<svg id="Layer_1" data-name="Layer 1" xmlns="http://www.w3.org/2000/svg" viewBox="0 0 1000 1000"><path d="M500,0C223.86,0,0,223.86,0,500s223.86,500,500,500,500-223.86,500-500S776.14,0,500,0ZM850,679.29a17.52,17.52,0,0,1-1.31,6.56c-7,16.6-37.13,28.82-91.76,37.07-1.72,2.66-3.5,10.94-4.78,16.63a118.07,118.07,0,0,1-3.91,16.13c-2.22,7.9-7.87,11.81-16.19,11.81h-.87c-3.94,0-9.13-.9-15.69-2.16a175.86,175.86,0,0,0-37.13-3.94,141.81,141.81,0,0,0-26.63,2.16c-17.5,3-32.76,13.54-50.26,25.79-24.88,17.47-53.26,37.56-96.07,37.56-1.75,0-3.47-.43-5.25-.43h-4.35c-42.82,0-70.79-19.69-95.64-37.57-17.47-12.25-32.29-22.72-49.79-25.78A191.86,191.86,0,0,0,323.28,761c-15.75,0-27.94,2.59-37.1,4.34-6.16,1.26-11.41,2.16-15.75,2.16-10.91,0-15.26-6.53-17-12.25s-2.62-11.34-3.94-16.54-3.06-14.41-4.84-16.62c-55.94-6.48-86-18.73-93-35.76a17.49,17.49,0,0,1-1.6-6.56,14.47,14.47,0,0,1,12.25-14.85c95.2-15.75,138-113.14,139.73-117.25l.47-.85C307.73,536.72,309,528,306,521.44c-5.69-12.66-25.78-19.19-38.85-23.6A64.68,64.68,0,0,1,257,494.37c-32.29-12.69-36.66-27.12-34.91-37.13,2.62-14,19.66-23.13,34.06-23.13a29.65,29.65,0,0,1,11.18,2.16c12.25,5.66,23,8.75,32.2,8.75,6.82,0,11.2-1.75,13.56-3.06l-1.34-16.6c-2.86-47.42-6.57-106.49,8.95-141.08C365.6,181.41,463.22,173.53,492,173.53l12.22-.43H506v0c28.87,0,126.79,8.05,173,111.44,15.43,34.8,11.75,93.89,8.72,141.37l-.09,1.76c-.35,5.25-.64,10.06-.87,14.87,2.18,1.31,5.92,2.63,11.69,2.63,8.75-.47,19.22-3.5,30.13-8.78a29,29,0,0,1,13.54-3A39.86,39.86,0,0,1,756.93,436c13.13,4.34,21.41,14,21.41,24.44Q779,480.1,743,494.52c-2.59.84-6.09,2.18-10,3.47-13.13,3.93-33.22,10.5-38.88,23.62-2.63,6.54-1.78,15.29,3.5,25.32l.44.44c1.75,4,44.5,101.35,139.73,117.07C845.16,665.73,850.41,672.32,850,679.29Z"/></svg>