<svg id="Layer_1" data-name="Layer 1" xmlns="http://www.w3.org/2000/svg" viewBox="0 0 1000 1000"><path d="M256,427.77c-6.61-3.24-13.93-9.48-15.25-20.41,0-1.68-.6-2.28-1.44-2.28-2.4,0-5.77,5.64-5.77,10.09,0,8.28,8.05,17.4,15.37,17.4h0c4.08-.12,8.28-2.4,8.28-3.72C257.18,428.37,256.71,428.37,256,427.77Z"/><path d="M607.15,628.26c-1.8,0-1.08,2.65-1.56,5.65-.36,2.16-1.44,4.92-1.44,6.6a5.58,5.58,0,0,0,5.4,5.64c3.61,0,5.88-3.12,5.88-6.72C615.43,634.75,611.23,628.26,607.15,628.26Z"/><path d="M296.44,637.15a8.53,8.53,0,1,0,9.49,7.45A8.5,8.5,0,0,0,296.44,637.15Z"/><path d="M269.55,405.2c-2.52-3.48-2.52-7.81-4.44-8.88a6.51,6.51,0,0,0-3.48-.85c-3.25,0-5.77.49-5.77,4.69,0,6.72,6.25,18.61,14.05,18.61h0c3.6,0,5.4-4.08,5.4-7.2C275.31,409.76,271.11,407.24,269.55,405.2Z"/><path d="M695.27,370.74c0-.84-1.32-1.56-4.2-1.56s-8.76-.24-19.69-2C662,365.58,654.81,362,652.17,362a1.17,1.17,0,0,0-1.32,1.2c-.12,5.88,10.69,14.76,27.14,14.76C687.83,377.94,695.27,373.5,695.27,370.74Z"/><path d="M454.56,666.93c0,2.88-.72,6.72-.72,8.76,0,2.52.6,4.32,3.48,4.32,8,0,20.77-13.69,20.77-25.33,0-3.12-1.8-4.44-3.84-4.44-1.68,0-3.72,3.36-9.13,5.88h.12C457.56,659.6,454.56,659,454.56,666.93Z"/><path d="M400.05,409.16h0c2.52.12,6.25-7.68,6.25-15.48h-.12v-.13c0-3.84-.84-4.68-1.81-4.68-2.27,0-4.68,2.64-8.28,8.65C396.57,405.56,397.77,409.28,400.05,409.16Z"/><path d="M375.56,402.8c2.52,0,5.64-2.64,11.41-9.13h0a53.83,53.83,0,0,0,.48-9c0-4.44-1.8-9.36-4.45-9.36-6.72,0-10.08,17.88-10.08,22.69C372.92,400.64,374.24,402.92,375.56,402.8Z"/><path d="M357.19,410.36c7.57,0,16.33-41.18,16.33-48.14,0-1.8-.6-3.12-2.28-3.12-7,0-16.57,39.14-16.57,47.9C354.79,408.56,355.27,410.36,357.19,410.36Z"/><path d="M414.46,717.23c3.36-.12,4.44-2,4.56-3.6,0-5.89-10.08-12.73-15.73-12.73-2.52,0-5.64,1.8-5.64,5.16C397.65,710,407.74,717.23,414.46,717.23Z"/><path d="M412.06,422.73c5.64,0,11.88-21.49,11.88-34.94,0-2.88-.47-6-1.8-6-4.68,0-12.48,22.09-12.48,34.21C409.54,420.69,410.62,422.73,412.06,422.73Z"/><path d="M731.41,309.64c30.62,0,41.78-13.81,41.78-25.46.12-6.36-3.48-12.36-9.36-14.05,0,19.93-14.53,35.06-40.7,39.26C726,309.64,728.89,309.64,731.41,309.64Z"/><path d="M710.16,660.44c-3.12,0-6.48,2.52-6.48,8.52,0,6.61,5.16,10.93,8,12.25a14.38,14.38,0,0,0,6.61,1.68c6.48,0,11.64-1.8,11.64-7.2C729.85,669,719.77,660.44,710.16,660.44Z"/><path d="M647.13,768.49c-1.32-.12-9,6.85-26.53,7h-2.88a41.61,41.61,0,0,1,.48,5.17,52.37,52.37,0,0,1-3.12,16.32c11.16-.12,18.73-3.24,24.37-7.08,7.92-5.28,10.2-11.77,10.2-16.68C649.65,769.09,648.21,768.49,647.13,768.49Z"/><path d="M573.3,288.74c0,.48.48.72,1.56.72,1.56,0,6.72.25,9.36.25a1.63,1.63,0,0,1,1.56,1.8l.48,8.88c0,1.2.36,2,1.08,2,1.92,0,5.89-9.12,8.41-9.12,2,0,9,3.12,10.8,3.12a.64.64,0,0,0,.72-.72c0-2-4.56-8.29-4.56-9.73,0-2,12.73-1.8,12.73-4.08,0-1.68-12.61-4.2-12.61-6.24s5.64-7.93,5.64-9.49c0-.48-.36-.72-.84-.72-2.28,0-7.68,3.36-10.56,3.36-2.28,0-5.05-11.76-6.61-11.76-2.16,0-2.64,12.49-5.52,12.49-3.48,0-7.56-.85-10.08-.85-.6,0-1.08.25-1.08.72,0,2.64,8.76,7.33,8.76,9.85C582.42,280.7,573.54,287.06,573.3,288.74Z"/><path d="M729.73,431.61c-.24-2-.84-5.64-3.36-5.64-4.08,0-.84,12.24-5.4,12.36-10.33,0-13.69-20.17-17.41-20.17-.84,0-1.92.73-1.92,3.37s.6,4,.6,6.84-.72,4.92-3.36,4.92c-6,0-11.41-14.05-16.57-14.05-1.08,0-2.28.72-2.28,1.69,0,2.52,4.56,7.44,4.56,10.08,0,5.4-14.53,2.4-14.53,7,0,2,2,2.52,4.56,2.52,4.69,0,12.13-2,15.85-2,2.28,0,5.76.6,5.76,3.36,0,3.13-8,7.21-8,10.09,0,1.44,1.44,2,2.52,2,6,0,16.69-10.44,24.38-10.44,1.32,0,4.56.6,4.56,2.64,0,2.88-7.57,8-7.57,12.36,0,1.2.6,2.53,2,2.53,4,0,9.37-10.57,17-10.57,2.88,0,7.21,1.2,9.49,1.2h0a2.09,2.09,0,0,0,2-1.68C742.7,445.3,730.81,444.82,729.73,431.61Z"/><path d="M768.27,248.76a5.56,5.56,0,0,0,5.22-7.68,5.73,5.73,0,0,0-3.06-3.06,5.76,5.76,0,0,0-7.92,5.22C762.51,246.36,765,248.64,768.27,248.76Z"/><path d="M500,0C223.86,0,0,223.86,0,500s223.86,500,500,500,500-223.86,500-500S776.14,0,500,0ZM713.88,231.36c13.81,0,27,3.12,27,13.8,0,5.89-4.69,11.89-4.69,20.77,0,4.93,2.53,9.13,8.89,9.13,7,0,8.52-7.33,8.52-15.25,0-6.48-1.08-11.4-1.08-14.53,0-9.36,6.49-15.6,15.61-15.6,7.56,0,9.48,3.48,20.65,3.48h0c-6,3.6-8.28,10.08-8.28,13.2,0,9.49,6,15.73,6,35.18,0,35.3-33.14,47.9-73.6,47.9a228.94,228.94,0,0,1-34.69-2.64c-1.8-.24-2.28-.72-2.28-1.8,0-2.88,15.84-4.44,15.84-18.73,0-5.64-1.8-10.92-1.8-13a1.85,1.85,0,0,1,.13-.7,1.77,1.77,0,0,1,1-1,1.67,1.67,0,0,1,.7-.12c3.36,0,10.08,12.84,22.68,12.84,3.25-.12,11.65-1.2,11.53-11.65,0-15.84-38.06-19.92-38.06-23.53,0-2.88,21.25-7.8,32.18-8-16.81-21.49-40.71-19.21-40.71-23C679.42,235.8,697.32,231.36,713.88,231.36Zm19.69,137.46c20.41,0,39.14-13.56,39.14-25.93,0-3.72-.72-5.16-2.28-7.2,9.12,1.08,12.73,7.44,12.73,15,0,16.33-21.25,34.94-44.54,34.94h0c-8.77,0-14.77-2.52-14.65-9C724,374,726.13,368.82,733.57,368.82Zm-10-13.32a18.66,18.66,0,0,1-1.56-5.53c-.6-3.12-1.2-6.24-3.6-7.92a35.81,35.81,0,0,0,10.92,1.2c10.09,0,19.69-7,27.13-7,4.93,0,6.37,3.12,6.37,6.24.24,9.85-19.81,17.89-28.94,17.89h-.24C730.57,360.42,726.13,360.42,723.61,355.5Zm13.21,39.62h0c8.76.83,35.77-3.37,46.1-24.14,6.48,2.17,5.76,11.89,5.76,24.14,0,21.49-2.16,48.74-8,49.22-8.89.72-40.94-28-43.82-49.22h0Zm-61,177.68c4.68,0,8.76-7.2,8.76-15,0-9-1.56-15.85-1.56-19.45,0-1.56.72-2.28,1.56-2.28,3.36.24,6.6,9.49,10.08,9.49,4.09,0,10.09-7.45,12.49-7.45.72,0,.84.84.84,1.08,0,3.36-5.16,10.81-5.16,13.81,0,2.52,12.85,2.88,12.85,5.16,0,3.36-13.57,3.36-20.05,6.24-6.25,2.65-10.09,6-10.09,10.57s4.56,5.4,10.93,5.4c15,0,25.45-8,28.81-8a1.19,1.19,0,0,1,1.2,1.08c0,2.28-7.56,9.6-7.56,12.84,0,3.73,13.8,8.29,13.8,10.57-.24.72-1.08.84-2.64.84-2.52,0-6.24-.72-9.24-.72-1.8,0-3.37.24-4.09,1.08-1.56,1.68.61,13.69-2.64,13.69-2.88,0-10.56-26.42-27.73-26.42-2.52,0-4.2,2-4.2,5.41,0,8.88,8.64,19.21,16.93,24.13,3.72,2.52,10.08,4.92,10.08,6.36,0,2.64-14.29.24-14.29,4.68,0,4,1.69,10.09,1.69,13.69,0,1.08-.24,2.4-1.56,2.52-2.65,0-9.25-12.25-12.37-12.25-2.64,0-8.53,7.33-10.93,7.33-.6,0-1.08-.72-1.08-1.32,0-5.16,8.29-16.81,8.29-28.21,0-5.41-.72-17-7.21-17-5.4,0-11.4,8.52-14,16.92-1.57,4.93-.48,23.9-4.08,23.9-3.37,0-2.53-12.73-7-12.73-3.36,0-10.44,6-13,6-.48,0-.85-.24-.85-.72,0-2.64,6.49-11.4,6.49-13.2,0-3.37-14.77-3.85-14.77-6.49,0-1.56,5.76-2.64,11.17-3.6,11.4-2,28.21-10.32,28.21-22,0-13-12.49-18.61-20.77-23.89-4.2-2.64-9-4.92-9-6.73s5.41-1.79,7.57-1.79c3.36,0,6.72-.25,6.72-2.89,0-2-.48-6-.48-9.12,0-2.28.24-4.08,1.08-4.08,3.37,0,8.05,10.92,10.33,10.92,3.6,0,8.52-9,11.88-9,1.08,0,1.44.6,1.44,2.64-.12,8.4-4.32,17.89-4.32,25.93C668.38,566.07,670.06,572.68,675.83,572.8Zm-39,61.83c16.68,1.08,27.49,11.16,27.61,23.17,0,8.76-6.36,16.09-15.49,16.09-8.28,0-14-6-14-13.45,0-6.48,4.2-12.37,4.2-18.61A13.64,13.64,0,0,0,636.81,634.63ZM609,671.36c-11.4,0-19.69-7.8-19.69-20.4,0-9.37,7.33-19.21,7.33-28.82a16.68,16.68,0,0,0-4.09-11.4c23.54,4.56,36.14,22.09,36.14,38.65C628.64,660.8,621.44,671.36,609,671.36Zm42.27,63.4v5.16c0,2.4-.49,4.92-2.29,6.48-5.76,4.92-14.52,7.45-24,7.45-12.36,0-22.09-4.33-22.09-8.65V734.87c0-3.11,8.77-10.44,25.09-10.44C641.37,724.43,651.22,728.27,651.22,734.76ZM602.08,472.37a13.54,13.54,0,0,1-18.7-12.67A13.26,13.26,0,0,1,596.83,446a13.58,13.58,0,0,1,12.66,8.43,14,14,0,0,1,0,10.5,13.53,13.53,0,0,1-7.41,7.42Zm1,16.51a9,9,0,0,1-9,8.88,8.86,8.86,0,0,1-8.89-8.88,9.1,9.1,0,0,1,8.89-8.89A9,9,0,0,1,603.07,488.88Zm-31.45-37.7a8.86,8.86,0,0,1-8.89-8.88v-.12h.12a8.79,8.79,0,0,1,8.77-9,9,9,0,0,1,0,18Zm8.88,22.69a12.67,12.67,0,1,1-12.73-12.72A12.81,12.81,0,0,1,580.5,473.87Zm-10.8-61.35c-4.21,0-4,8.53-7,8.29-5.16-.84-9.84-12.25-9.84-24.37,0-7.13,1.89-14.84,5.88-20.35v-.18h.12l-.12.18v.05c5.76,5.77,10.93,8.05,17.17,8.05,2.52,0,5.4-.72,7-.72,2,0,3.48.84,3.48,2.52,0,2.52-2.28,6.48-4.92,8.76a23.26,23.26,0,0,0,8.64,1.57c12.73,0,27.26-8.05,27.26-28.22,2.64,3.48,4.32,10.93,4.32,14.29,0,24.37-17.89,33.73-34.46,33.73C576.42,416.12,571.13,412.52,569.7,412.52Zm22.8-52.7c-1.8-2.88-8.52-4.44-11.64-4.44-9.84,0-16.57,7-17.89,13.2a22.34,22.34,0,0,1-1.56-7.56c0-9.85,6.72-22,23.05-22,14.29,0,19.81,7.44,21.85,7.44,2.28,0,4.44-2.28,6.25-2.28,2.4,0,2.52,3.72,2.52,6.48,0,8.89-4.08,24.37-14.17,30.14a22.54,22.54,0,0,0-11.17-10.69,3.67,3.67,0,0,1-2.28-3.36c.12-2.64,2.4-5.76,5-7Zm44.31,76.59a14.29,14.29,0,1,1-14.29-14.28A14.48,14.48,0,0,1,636.81,436.41ZM624.92,409c-.12-4.68,3.84-8.41,8.65-8.53a8.53,8.53,0,1,1-8.65,8.53Zm7.45,61.83a8.95,8.95,0,1,1-17.89,0l.12.12a9,9,0,0,1,8.76-9.13A9.08,9.08,0,0,1,632.37,470.87Zm-31.1-40.34a8.55,8.55,0,0,1-8.53,8.52c-4.56.12-8.28-4-8.28-8.52a8.41,8.41,0,1,1,16.81,0Zm20.41,56.55a15.49,15.49,0,1,1-15.49,15.48h0A15.6,15.6,0,0,1,621.68,487.08Zm19.69,24.25a8.65,8.65,0,0,1,8.41-8.28,8.46,8.46,0,1,1-.13,16.92,8.29,8.29,0,0,1-3.25-.67,8.32,8.32,0,0,1-4.5-4.69,8.56,8.56,0,0,1-.53-3.28Zm15-20.39a10.56,10.56,0,0,1-18-7.46h0a10.82,10.82,0,0,1,10.56-10.57,10.56,10.56,0,0,1,7.47,18Zm-9.15-26.31a9.37,9.37,0,1,1,9.36-9.37A9.41,9.41,0,0,1,647.25,464.63ZM627.68,351.77a2.84,2.84,0,0,1,1.56-2.28c2.88-1.92,15.49,1.2,31.7-7A12.62,12.62,0,0,1,666.7,341c7.8,0,5.76,8.88,12.85,9,5.64,0,12.72-4.68,17.05-4.68,6.72,0,16.32,20.89,16.32,30.85,0,11.41-17.16,18.37-37.58,18.37C645.57,394.51,627.68,368.58,627.68,351.77Zm-76.47-80.91c0-2.77,13.68-6.49,13.68-10.57s-13.8-19.81-13.8-25c0-5.52,20.77,9.84,26.17,9.84,2.64,0,2.64-7.8,2.64-10.32,0-3.72,1.2-6,2.28-6,2.76,0,8.17,9,11.65,8.76,5.88,0,16.8-7.32,31.81-7.32,31.58,0,54.39,19.08,54.39,51.5,0,33.62-25.57,52.59-52.59,52.59-19-.12-30.49-11.89-34.7-11.89-2.88,0-7.2,10.32-9.84,10.32-1.2,0-1.56-.35-2-2.87-.6-5.29-1.32-13.93-4.92-13.93-3,0-15.85,14.64-20.05,14.52-1,0-1.21,0-1.21-1.2,0-4.44,11.17-20.17,11.17-24.85s-15.25-2-15.25-5.76c0-4.56,15.25-9.49,15.25-15.73S551.21,275.78,551.21,270.86ZM556,578.32c0-4.68-1.08-8.52-1.08-13.69,0-6.72,3.12-10.08,7.56-10.08,8.28,0,12.37,11.77,17.77,11.77a6.45,6.45,0,0,0,6-6.73c0-17.05-32.65-14.52-32.65-38.42-.24-6.72,2.16-14.76,8-25.93h0c2.52,19,28.09,9.48,28.09,32.42,0,3.36-.84,8.28-.84,12.48,0,4.93.6,9.13,4.33,9.13s4.68-2.65,4.68-6.25-.84-8-.84-10.56c0-7.81,5.64-9.61,9-9.61,8.53,0,14.89,8.65,27.86,8.77-2.89,14.28-32.42,10.56-32.42,26.17,0,7.68,7.68,9.73,12.85,9.73,4.68,0,6.24-.73,6.24-4.69,0-2.28-.48-4.68-.48-6.24a1.84,1.84,0,0,1,1.8-1.8c4.92,0,28.93,18.37,28.93,23.89,0,5.16-25.45,10.33-32.89,10.33-2.28,0-2.64-1.57-2.64-2.41,0-1.56,3.84-6.24,3.84-9,0-2-3.36-3.36-12.37-3.36-4.2,0-7.44.48-7.44,3.84,0,6,9.72,13.45,9.72,19,0,4.44-2.64,7.2-9.84,7.2-6,0-15.13-4.68-15.13-12.48,0-6.25,6.48-12.49,6.48-16.33,0-1.08-.84-2.88-3.48-2.88-8.28,0-10.56,22-39.86,24.37C551.93,592.73,556,587.93,556,578.32Zm6.72,70.59h.12c13,0,21.61,8.41,21.49,16.81a10.46,10.46,0,0,1-10.56,10.69c-5.77,0-9.73-4.68-9.73-10.09,0-3.72,1.56-7.32,1.56-10.68A9,9,0,0,0,562.73,648.91Zm3.12-43.34c9.85,0,18,3.49,18,7.57,0,6.24-14.65,2.52-15.73,9.36,10.33,1.44,12.85,4.92,12.85,7.81,0,4.92-4.44,6.48-8.76,6.48-3.13,0-6.73-.72-10.57-.72-4.92,0-9.84,1.08-13.93,5.76,2.88.6,7.21,2.52,7.21,7,0,13-36,2.29-36,35.54,0,17.77,18.37,37,46.22,36.86,14.29,0,23.53-4.68,23.53-10.08,0-4.21-7.56-1.33-7.56-4.93,0-1.56,2.64-4.44,2.64-7,0-1.08-.84-3.12-2.64-3.12-4.08,0-11.65,6.48-27.13,6.6-12.13,0-23.9-7-23.9-16.33,0-2,.85-3.12,2.29-3.12s3.12.84,4.56.84,1.56-.84,1.56-3.36,0-9.36,4.2-9.36,12.37,15.72,43.34,15.72c10.21,0,30.14-2,37.58-8.76-.24,24.61-19.45,57-59.79,57-41.78,0-64.23-33.62-64.23-64.48C499.58,636.67,527.56,605.57,565.85,605.57ZM496.7,705.46a7.67,7.67,0,0,1-3.12,6c2.64,1.32,4.2,3.36,4.2,6.24a6.05,6.05,0,0,1-6.24,6.24c-3.49-.12-5.28-4.08-8.89-4.08-2,0-4.32,1-5.16,2.28a23.76,23.76,0,0,1,2,9.13c0,17.53-22.09,31.57-45.14,31.57s-31.22-14.41-31.22-20.17c0-1.32,1-2,2.52-2,3.85,0,4.69,1.32,15,1.32,24.61,0,15.85-33.37,38.9-33.37,3.12,0,10.09,2.28,12.49,6.72a10.34,10.34,0,0,0,2.52-6.48h0c0-4-2.4-6.84-2.88-10,0-4,2.52-6.36,5.88-6.36,4.32,0,6.48,3.84,7,7.8a6.65,6.65,0,0,1,4.93-2.16A7,7,0,0,1,496.7,705.46ZM335.47,599.09c0,8.29-6.49,15.61-14.53,15.61a12.32,12.32,0,0,1-12.61-12.12c0-3.13,1.44-6,2.28-6,1.2,0,.72,4.68,5.89,4.68s7.32-3.6,7.32-10.56c0-18.61-10.57-31.82-10.57-51a37,37,0,0,1,.72-8.88c-5.76,6.84-6.48,16.69-6.48,25.45V579c0,15.37-7.8,22.34-17.17,22.34h0v-.23H290c-6.12,0-12-4.57-12.24-13,0-1.08.72-5.16,2-5.16,1.8,0,3.12,4.68,8.28,4.68,9.85,0,10.57-9.61,10.57-28.82,0-22.21,9.12-47.54,38.65-66.51-4.68,8.05-5.76,18.61-5.76,25.09,0,38.06,45.86,73.6,45.86,97.13,0,9.6-7,20.41-19.69,20.41a16.66,16.66,0,0,1-17.16-16.33c0-5.88,4.08-10.32,5.4-10.32.6,0,.84.48.84,2a7.28,7.28,0,0,0,7.56,7.2,7.44,7.44,0,0,0,7.81-7.56c0-18.61-37.82-51-37.82-95.45-1.92,4.92-4.44,11.17-4.44,20.53C319.86,556.59,335.47,578.92,335.47,599.09Zm-19.1,59.43c.84,8.29-4.68,14.77-13,15.85-8,1.08-13.92-3.48-15.72-10.69a18.14,18.14,0,0,1-7.45,2.29,14.47,14.47,0,0,1-16.08-12.49c-1.21-8.52,6-15.13,12.48-16.33,1-.12,2.28-.36,2.28-.36a16.38,16.38,0,0,1-1.2-4.44c-.84-8.4,4.32-15,12.13-16.33,8.64-1.32,14.89,4.44,16.93,11.17a14.4,14.4,0,0,1,7.44-3c7.44-.95,14.77,5.05,15.61,13.09.72,7.81-4.81,14.29-12.85,15.85-.84.12-1.92.24-1.92.24A17.9,17.9,0,0,1,316.37,658.52ZM279.64,472.07c-1.81,1.44-4.69,2.28-8.77,2.28-7.68,0-14.05-5.16-14.05-13.2,0-11.17,10.69-17.41,15.85-18.73a33.14,33.14,0,0,0-1.56,10.2A26,26,0,0,0,279.64,472.07Zm-16.45-34.45c-7.57,3.84-13.57,5.4-18.73,5.4-8.52-.12-14.65-3.84-20.05-3.84-1,0-2,.48-3.84.48-2,.12-4.33-2.17-4.33-4.21a5.76,5.76,0,0,1,.72-2.52c3-5,.25-25.69,19.58-37.93,9.84-6.25,18.6-7.21,25.93-7.21q2.46,0,4.92.24c4.08.48,7.2.48,8.28,1.56,1.8,1.8.72,5.29,3.61,9.13s6.24,3.36,6.24,7.56C285.52,409.64,279.28,429.57,263.19,437.62Zm-14.89,17c-5.76,7.33-12.37,10.69-17.89,10.69-7.44,0-12.84-5.76-12.84-16.33a15.84,15.84,0,0,1,.24-3.36c5.28,7.44,14.4,9.72,22.45,9.72A43.56,43.56,0,0,0,248.3,454.66ZM223.57,351.17a20.12,20.12,0,0,0-.24,3.85c-.12,12.6,7,22.33,20,26.05h0S236.89,386,228.85,386a16.8,16.8,0,0,1-17.17-17.17C211.68,361.86,215.29,354.77,223.57,351.17Zm-10.69-48.86c0-4.44,2-10.68,4.45-12.72,2.88-2.64,9.6-4,14.76-4,3.25,0,6.73.61,6.73,2.41h0c0,4.44-17,19.45-23.05,19.45C213.48,307.48,212.88,304.83,212.88,302.31Zm22,49.1a14.91,14.91,0,0,1,15-15.24c15.25,0,20.17,16.32,20.17,27a45.15,45.15,0,0,1-2,13C252.62,376.27,234.85,369.18,234.85,351.41Zm54.75,38.78a8.86,8.86,0,0,1-8.88-8.88,8.95,8.95,0,1,1,8.88,8.88Zm11.65,2.28a8.95,8.95,0,0,1,0,17.89,9,9,0,0,1-8.89-9h-.12A9.22,9.22,0,0,1,301.25,392.47Zm-10,31.58c11.29,3.24,24.85,13.81,25,28.93,0,9.61-5.16,19-16.08,19-11.53,0-19-10.08-19-22.09C281.2,439.66,286.36,429.81,291.28,424.05Zm54.15-55.59c-3.84,0-8.53,2.88-10.09,4.56,5.4-16.08,18.37-24.37,32.66-24.37,17.65,0,27,15.73,27,33.14a43,43,0,0,1-.72,7.68c7.2-12.72,17.77-22.09,29.18-22.33,14.76,0,21.49,12.61,21.49,27,0,6.25-1.81,15.49-4.69,15.49s-2.52-5.16-2.88-9.84c-.48-6-1.56-7.32-3.6-7.32-3.84,0-6.24,8.88-6.24,17.16,0,5.16.84,10.93,4.92,10.93a8.4,8.4,0,0,0,5.64-2.4c-.84,10.32-8.52,19.2-19.21,19.2-19.69,0-27-23-29.29-36.49-11.89,12.48-22.93,21.73-42.38,21.73-18.37,0-26.65-13.45-26.65-26.17,0-3.85,1.32-13.69,6-13.69,5.64,0,.6,18.37,11.76,18.37,2.64,0,7.57-2.28,10.33-9.61a41.32,41.32,0,0,0,2.52-13.2C351.19,372.3,349.87,368.46,345.43,368.46Zm57.86-57.38c-.12-.84.48-1.44,1.09-1.32,6.24,0,34.57,22.33,38.65,28a9.41,9.41,0,0,1,1.32,4.92c0,6.73-3.36,14.53-7.8,14.53C431.39,357.3,403.29,318.76,403.29,311.08ZM328,466.31c3.36-1.56,7.44-2,11.88-2,7.09,0,15.61,1.56,24.38,3.12C356.59,457.42,345,450,335.34,450c-4.44,0-8,1.56-9.12,5.4a48.29,48.29,0,0,1-.6-7.56c0-10.93,3.6-17.17,13-17.17,13.93,0,25.7,16.45,32.9,31.94,0-23.53.48-35.18,10.08-35.18h0c5.29-.12,15.49,9.61,17.89,19.21a18.61,18.61,0,0,0-3.48-.48c-7.2,0-11.16,7.08-17.05,19.21,13-8.53,25-15.73,38.66-15.73,11.65,0,20.77,7.2,20.77,18.13,0,4.68-2.28,9.84-5.16,14.29-1.68-10.09-10.09-14.65-24.37-14.65a79.51,79.51,0,0,0-25.93,4.44c25.21,3.6,29.05,12.73,29.05,21,0,14.05-14.17,21-23.53,25.69A61.5,61.5,0,0,0,390,505.81c0-8.53-3-18-15.73-27.49-1.92,9.24-9.12,14.76-9.12,22,0,2.76,1.8,3.6,3.12,3.6,0,4.08-1.8,15.48-1.8,18.37,0,6,1.32,7.08,4.2,7.8,1.8,5.16,1.92,13.69,3.12,18.37a4.16,4.16,0,0,0,4.32,3.24c1.8,4.44,4.09,11.17,8.29,14.29a5.26,5.26,0,0,1,2,3.6c0,4.08-6,8.52-9.85,8.52-1.2,0-3.24-1-4.92-4.92C372.32,569.92,361.52,563,360.8,559a5.84,5.84,0,0,0,1.07-3.6c0-6.24-9.72-13.44-9.72-23.17,1.2-.36,2.28-2.16,2.28-4.2,0-5.52-5.76-16.45-5.76-23.89,2.52.12,3.84-.12,4.08-3.72.48-7.45,2-18.37,9-24.62a44.46,44.46,0,0,0-6.36-.48c-13.44,0-34.21,7.93-42,25.34a56.32,56.32,0,0,1-.6-7.33C312.77,478.79,321.54,469.19,328,466.31Zm24.25,180.21c11.05,0,19.09,3.12,26.41,14.28,6.73,10.09,7.81,26.89,11.41,30,1.8,1.56,4.68,2,6.72,2s4.2-.24,5.76-.24c16.09,0,27,18.13,27,26.17,0,7.44-6.49,10.09-14.53,10.09-9.36,0-20.41-5.41-26.05-11.77-4.32-4.56-6.49-13.45-8.28-24.37-1.69-11.41-10.81-20.89-28.7-25.45-14.17-3.73-16.33-6.37-16.33-10.21C335.7,650.72,344.46,646.52,352.27,646.52ZM468,618.78c19.94,7.45,22.7,18.61,22.7,30.38,0,20.17-14.05,45.14-50.31,45.26-29.05,0-49.94-25.93-49.94-47.9,0-6,1.56-12.73,5.4-12.73,3.36,0,4.56,2.52,7.2,5.4,10.09,10.09,20.89,12.61,37,12.73,13.81-.12,24.25-6.12,24.37-12,0-10.08-20.77-10.32-20.77-25.45,0-3.84,2.41-10.32,7.45-17.17C453.12,609.06,457.68,615.06,468,618.78ZM446.51,577c0,11.41-16.32,24.61-16.32,39.38,0,11.53,8,20.89,20.41,22.33a55.49,55.49,0,0,1-11.41,1.56c-22.57,0-45.86-18.61-45.86-40.7a38.07,38.07,0,0,1,11.88-27.49c6.25,5.4,12.61,8.88,16.69,8.88,3.61,0,5.17-1.8,5.17-4.44-.24-8.16-33-16-33.14-33.49,0-14.29,34-22,34-39.62a29.23,29.23,0,0,0-3.12-11.89c11.88,6.6,20.65,17.53,20.65,26.41,0,15.49-16.09,22.58-16.09,32.18C429.35,561.28,446.51,563,446.51,577Zm-1.08-318.15c0,5.4-1.08,10.57-4.92,10.57-6.6-.12-20.65-8.77-20.65-12.73h0c0-2.64,9.37-4.68,16.81-4.8C442.55,251.89,445.43,252.13,445.43,258.85Zm-147.78-15.6c0-7.45-10.57-6.37-10.57-8.89,0-2,8.16-3.6,17.17-3.6,14.76,0,11.88,12.48,23.53,12.48,11.16.12,9.12-12,23.65-12,9.12,0,15.85,1.32,15.85,2.64h0c.11,3.24-10.93,3.24-11.17,10.09,0,7,19.93,12.72,19.93,18.12,0,1.56-1.32,2-2.64,2-3.72,0-10.56-3.12-15.73-3.12-3.6,0-6.24,1.8-6.24,5.65,0,6.24,6.72,15.84,6.72,20.53a2.47,2.47,0,0,1-2.4,2.64c-5.16,0-11.16-17.17-19-17.17-9.6,0-6.72,24.85-13.44,24.85s1.32-25.33-10.57-25.33c-7.08,0-14.76,11.4-19.21,11.4-1.08-.12-2.28-.36-2.28-1.8,0-4.56,12.13-14.52,12.13-20.17,0-3-2.88-3.6-6-3.6-5.65,0-13.45,2.28-18.38,2.28-2.27,0-4-.84-4-2.28C275.07,253.33,297.65,251.05,297.65,243.25Zm-85-8.77c0-3.84,7.21-5.4,20.41-5.41,10.93,0,39.38,2.88,39.38,9.37,0,7.44-23.89,14.76-23.89,22,0,8.4,33.62,3.48,33.62,10.92,0,7.69-24.38,24.61-24.38,30,0,.84,1.21,1.32,2.05,1.32,5.76,0,21-11.16,28-11.16,2.76,0,3.6,1.79,3.6,4.91,0,6.25-3.84,16.81-3.84,23.29,0,1.57.48,3.37,2.28,3.37,4.92,0,12.73-21.25,19.69-21.25,6.36,0,.72,31.93,7.2,31.93,5.53.12,6.73-28.93,12.49-28.93,5.52,0,8.28,16.32,14,16.32,2.4,0,2.64-3.11,2.64-8.28v-7.56c0-4.92.24-8.28,2.64-8.28,6.72,0,25.69,22.33,29.77,22.33.84,0,1.08-.84,1.08-1.57,0-6-12.6-26.41-12.6-37,0-3.61,1.32-6,4.92-6,7.8,0,24.37,9.12,31.94,9.12,2.52-.12,4.08-1,4.08-3.48,0-9.25-27.26-27.62-27.26-35.3,0-7.44,30.5-15,51.27-15,2.64,0,8,0,8,2.88,0,5.65-25.81,10.33-32.05,16.94a4,4,0,0,0-1.32,2.76c.48,10.44,36.73,34.81,36.73,48.26h0c-.12,3-2.52,5.28-7.08,4.8-12.13,0-37.46-12-46.22-12-2.52,0-3.13.6-3.13,2.88,0,8.52,16.57,35.29,16.57,47.18,0,3.12-1.08,5.64-4.2,5.64-10,.12-32.29-26.89-40.1-26.89-7.2,0-4.08,22.57-10.8,22.57-5.17,0-10-12.84-15.73-12.84s-9.61,44.78-18.73,44.78c-10.93-.12-6.6-41.42-13.81-41.42-5.64,0-13.21,14-21.49,14-4.32-.12-5.76-3.6-5.76-8.76,0-6.48,2-15.37,2-21.25,0-3.12-.24-6.6-3.12-6.6-8.28,0-38.42,22.09-50.07,22.09-2.64-.12-4.32-1.09-4.32-3.6,0-10.93,38.3-43.83,38.3-51.39,0-6.84-43.82-.84-43.82-7.44,0-7.57,31.09-20.78,31.09-25.7S212.64,240.24,212.64,234.48ZM210,465.71c6.84,10.32,13,13.44,21,13.57,6-.12,12.73-1.44,21.49-3.49-11.4,9.85-21,15-28.21,15-9.13-.12-14.29-8.16-14.29-25.09ZM266,704.26c-4.2-7.56-37.82-15.36-37.82-59.66,0-38.3,33.5-60.63,33.5-76.48a10.34,10.34,0,0,0-4-8.28c-7.45-6.25-7.57-11.41-13.45-11.41-4.2,0-9.36,9.84-4.08,18.61,1.8,2.88,3.48,4.56,3.48,7.44,0,6.24-9.84,23-16.81,22.93s-12.24-17.17-12.24-44.9c0-24.61,5.64-49.46,12.48-49.46,2,0,2.52,1.44,2.52,3.12,0,2.88-.84,8.76-.84,18.61.12,10.44,2.4,11.28,4.56,11,7.57,0,6-46.58,18.38-46.58,2.88,0,3.72,2.88,3.72,6.6,0,10.57-5.17,25.94-5.17,34.46,0,4.32,1.21,5.76,3.13,5.64,5.4,0,14.76-51.26,23.89-51.26,2.88,0,4.32,2.88,4.32,5.88,0,10.69-13.69,41.66-13.69,50.3,0,1.45.6,2.53,1.44,2.53,5.65,0,16.81-24.13,20.41-36.26,2-6.25,4.69-9.61,7.21-9.61,2.28,0,4.32,2.53,4.32,7.69,0,12.12-11.17,40.46-21,59.55-7.57,14.76-19.45,36-19.45,47.9,0,6,1.2,12.36,9.72,19.81-14.28-.84-20.17-2.28-25.45-13.45C221.17,666.57,289.24,662,266,704.26Zm9.84,13.33c0-18.37,11.89-30,19.21-31.82-7.68,32.54,9.61,65,45.63,64.84,17.88.12,26.65-9.13,26.65-25,0-17.52-11.89-35.29-31.82-35.29-10.08,0-17,5.76-17,13.8,0,13.45,10.93,22,22.34,22,7.56,0,12.48-3.12,12.48-8.28a4.54,4.54,0,0,0-.6-2.64,13.45,13.45,0,0,1-4.92.84c-9.25-.12-16.69-5.28-16.69-10.69a6.55,6.55,0,0,1,7-7c13.45,0,22.57,13.81,22.57,23.89s-7.44,19.21-19.92,19.21c-26.66,0-37.82-22.09-37.82-37,0-15.84,13.2-26.65,28-26.65,27.13,0,47.9,23.77,47.9,57.51,0,15.25-8,37.82-40.7,37.82C299.33,773.18,275.79,739.44,275.79,717.59ZM573.18,770.9a8.87,8.87,0,0,1-2.65-.49c-4.44,1.57-4.68,33.74-23.53,33.74-13.92,0-26.65-11.4-32.17-25.69-1.56-4.2-4.92-7-8.05-7-3.6,0-5.64.72-9.84,5.4a77.71,77.71,0,0,1-57,24.61c-7.56,0-13.68-.72-15.24-.72-.85,0-.85.24-.85.48,0,1.44,7.69,7.68,24.14,7.56,39.37,0,49-22.21,55.22-22.21.84,0,3.48,0,5.17,3.6,9.48,21.61,29.65,26.42,42,26.54,10.68,0,10.2-.84,13.56-.84s3.48,2,3.48,3.36c0,4.92-10.92,10.92-30.37,10.92-11.41,0-18.37-6-20.41-12.72-11.17,7.2-28.21,13.68-44.9,13.68-45.87,0-57.51-19.92-71.8-26.41-10.92-4.92-27.73,4.68-51.26-21.49a62.65,62.65,0,0,0,10.56.84c20.53,0,31.58-10.08,31.58-26.17a54.61,54.61,0,0,0-.48-6.24c6.24,2.52,20.65,13.2,23.77,32.17.48,2.28,9.72,4.32,15.49,4.2,8,0,18.37-3.36,19.93-16.56,26.89-2.29,45-18.13,48.74-38.3,9.6,3.12,20.65,11.76,23.17,16.33a40.9,40.9,0,0,1,13.45-2c7.2,0,15.24,1.45,25,4.21.48-2.88.84-6.49,5.4-6.49,6.72,0,4.92,7.45,7.21,11.77,1.08,2.28,6.6,3.48,6.6,8A5.84,5.84,0,0,1,573.18,770.9Zm26.53,42.49c-13-.12-19.81-9-19.81-17.89,0-12.84,7-24.49,12.24-30.73,2.53-2.88,4.93-5.16,7.21-5.16,1.8,0,7.08,3.84,19.21,3.84a66.62,66.62,0,0,0,42-14.64c5.16,0,12.37,5.12,12.25,17.16C672.82,787.22,641.61,813.39,599.71,813.39Zm93.4-56.06c-5.16,0-10.8-7.32-10.8-12.25,0-1.56.72-3.6,5.16-5.4,21.49-8.52,33.74-28.21,33.74-38.3,0-2.28-1.08-4.44-4.08-4.44-3.85,0-20,37.1-38.18,37-12.49,0-25.33-11.41-25.33-16.81,0-9,36.25-25.45,36.25-38.06.12-4.61-1.87-4.79-3.84-4.91v.23c-4.68,0-30.73,34.7-47.42,34.7-4.08,0-7.33-7.57-7.33-13.45,0-3.12,2-5.4,9.13-7,38.42-8.77,29.89-37.58,62.79-37.58,18.13,0,38.18,12.37,38.18,40.1C741.38,720.71,699.36,757.33,693.11,757.33Zm61.83-85.72c-.24-30.14-37.21-20.53-37.21-42.5,0-9.37,6.72-15.61,14.76-15.61,7.21,0,12.61,2,16.93,6a19.51,19.51,0,0,1-6-14.28c-.12-8.77,5.28-16.57,15.13-16.57,11.16,0,20.05,14.65,20.05,31.57C778.6,638.35,770.07,658,754.94,671.61Zm18.73-87.53a13.73,13.73,0,0,0,.24-3.36c0-6.24-2.4-15.25-9.6-15.25-11.17,0-14.77,12.13-21,22.1-6.49-22.82-15.25-43.35-30.86-56-15.84-12.73-43.22-5.77-43.22-29.06,0-6.24,4.08-15.24,4.08-22.33a10.79,10.79,0,0,0-1.8-6.48c21.49,8,13.81,22.33,27.26,37.1,8.28,9.48,31,18.37,44.18,57a38,38,0,0,0,.48-6c0-33.13-43.82-65.55-47.66-79,25.45,2.88,29.77,9.12,42.13,42.74,2.53,7.2,10.57,24.36,10.57,32.77,3.6-11.17,8-19,15.37-31.09-7.32-3.85-26.77-11.89-26.77-25.09,0-15.49,19.2-27.5,23.29-27.5,1.8,0,2.28,1.44,2.28,4.44,0,8.05-3.85,21-3.85,28.09,0,6.37,4,12.37,7.69,12.25s14.29-13.45,14.29-26.65C780.76,469.07,760,462,753.5,462c-6,0-17,9.85-42.74,9.85-48.14,0-59.06-47.66-59.06-68.43,0-.84.23-1.08.47-1.08,1.08,0,5.77,5.76,20.9,5.88,7.8,0,15-2,26.41-2,26.77,0,38.65,18.61,55.34,42.14,10,6.36,33.86,16.33,33.86,44.78,0,25.09-26.65,38.9-33.14,65.79,10.21-1.08,16.33-19.45,26.78-19.45,5.4,0,7.68,4.33,7.68,10.93C790,560.19,784.36,575,773.67,584.08Z"/><path d="M542,763.09a8.89,8.89,0,0,0-8.88,9,8.93,8.93,0,0,0,15.25,6.37A9.08,9.08,0,0,0,551,772.1,9.08,9.08,0,0,0,542,763.09Z"/><path d="M608.11,255c4.57,0,15.25-4.2,17.29-4.2,1.56,0,2.4.48,2.4,1.56,0,2.4-4.68,7.8-4.68,10.92,0,4.32,24.61,1.2,24.61,5.65,0,4.2-18.13,8.28-18.13,10.92,0,2.88,14.53,12.49,14.53,17.41,0,1-.48,1.8-2,1.8-4.92,0-13.81-2.52-19.81-2.52-1.32,0-2,.72-2,1.56,0,3.36,3.84,10,3.84,14,0,1.33-.72,1.81-1.56,1.81-3.48,0-14.29-7.45-19.21-7.45a3.09,3.09,0,0,0-3.12,3.36c0,4.08,10.2,11.89,25.93,11.89,12.25,0,34.7-8,34.82-40.34,0-25.45-13.21-40.7-35.3-40.7-13.69,0-22.45,5.52-22.45,10.69C603.19,254.53,605.83,255,608.11,255Z"/></svg>