<svg xmlns="http://www.w3.org/2000/svg" viewBox="0 0 1000 1000"><path d="M760.146,713.218a519.972,519.972,0,0,1,51.772,86.648c-34.046,2.524-67.362,2.329-101.641-1.673a523.124,523.124,0,0,1,19.277,99.761A522.5,522.5,0,0,1,634.671,861.8a516.367,516.367,0,0,1-16.137,100.171,503.742,503.742,0,0,1-76.651-66.455c-13.608,31.421-30.108,60.445-49.419,88.893a524.943,524.943,0,0,1-49.45-88.891,507.792,507.792,0,0,1-77.286,66.855c-3.422-17.252-7.111-33.45-9.749-49.817-2.645-16.415-4.243-33-6.406-50.361a538.472,538.472,0,0,1-94.209,35.785A509.152,509.152,0,0,1,274.6,798.242a539.163,539.163,0,0,1-101.591,1.649,519,519,0,0,1,52.08-87.269c-33.277-7.849-64.687-19.052-95.995-33.148a522.208,522.208,0,0,1,78.891-64.082,525.765,525.765,0,0,1-78.83-64.016,514.463,514.463,0,0,1,95.96-33.254A526.944,526.944,0,0,1,172.963,431a490.641,490.641,0,0,1,101.606,1.6A522.211,522.211,0,0,1,255.3,332.846,521.186,521.186,0,0,1,350.184,369a518.556,518.556,0,0,1,16.124-100.157,513.744,513.744,0,0,1,76.724,66.314,537.261,537.261,0,0,1,49.378-88.815,528.433,528.433,0,0,1,49.4,88.871,512.791,512.791,0,0,1,76.718-66.375A505.936,505.936,0,0,1,634.6,368.977a530.716,530.716,0,0,1,94.946-36.222A510.566,510.566,0,0,1,710.2,432.619a499.561,499.561,0,0,1,101.676-1.7A514.614,514.614,0,0,1,759.7,518.089,520.624,520.624,0,0,1,855.629,551.3a504.866,504.866,0,0,1-78.808,64.063c28.6,18.815,54.309,40.033,79.411,64.513-16.434,6.389-31.846,12.9-47.618,18.366C792.794,703.725,776.616,708.176,760.146,713.218ZM492.39,694.855c5.356,22.348,12.261,43.887,25.232,63.089,5.677-22.6,4.981-45.16,1.593-69.195,12.92,20.737,27.455,38.142,45.823,52.313-2.881-23.693-11.422-45.307-23.17-66.785,19.037,15.494,38.921,27.232,61.558,34.169a184.207,184.207,0,0,0-42.581-53.06c11.921,2.747,22.851,5.6,33.918,7.723a129.459,129.459,0,0,0,33.895,1.951c-17.226-15.782-36.764-27.356-58.27-36,23.126-.733,45.424-4.7,66.706-13.671-21.056-9.053-43-12.577-65.426-14.066,20.825-9.126,40.341-19.829,56.848-35.7-22.978-.861-45.1,3.147-67.044,9.829a184.966,184.966,0,0,0,41.723-53.47,210.194,210.194,0,0,0-30.59,13.484c-9.758,5.44-18.879,12.022-29.276,18.748,10.687-21.037,19.354-41.656,21.546-64.5-18.528,14.147-32.733,31.88-45.3,51.188,3.257-22.835,3.512-45.444-2.021-68.025-12.8,19.387-19.91,40.866-25.165,63.151-5-22.575-12.3-43.967-25.217-63.233-5.207,22.628-5.339,45.178-1.945,67.973-12.7-19.239-26.645-37.22-45.445-50.924,3.082,23,10.828,44.206,21.6,64.532-18.427-13.68-37.736-25.392-59.91-32.105,10.5,20.424,24.95,37.609,41.741,53.114-21.926-6.557-43.926-10.741-66.876-9.7,16.539,15.794,36.107,26.522,56.805,35.726-22.625,1.445-44.609,4.9-65.541,14.038a181.954,181.954,0,0,0,67.425,13.475c-21.721,8.652-41.538,20.218-58.84,36.188,22.962.8,45.126-2.85,67.329-10.357-8.26,8.924-16.192,16.947-23.48,25.519-7.317,8.607-14.121,17.678-18.423,28.41,22.39-7.159,42.168-18.655,60.373-33.22-11.014,20.668-19.256,42.142-22.187,65.578,18.692-13.858,32.772-31.667,45.417-50.97-3.163,22.763-3.509,45.328,1.515,68.872a23.578,23.578,0,0,0,2.457-2.623C480.5,737.226,487.488,716.493,492.39,694.855Z"/><path d="M616.083,178.347c-.349,6.273-.666,11.97-1,17.982H592.507c0-4.793,0-9.307,0-13.82q.079-78.607.16-157.214c.008-8.594.083-7.092,7.079-7.17,5.334-.059,10.67-.012,16.581-.012V85.3a14.325,14.325,0,0,0,2.336-1.941c8.267-12.756,20.7-17.9,35.184-18.9,34.665-2.4,58.076,18.316,60.622,53.285.989,13.586.652,27.051-2.981,40.257-11.74,42.68-60.712,49.165-84.457,30.894C623.25,185.984,620.1,182.256,616.083,178.347Zm-.875-46.273c1.516,8.3,2.268,16.833,4.71,24.851,4.7,15.439,15.707,23.635,30.687,24.232,15.361.612,27.316-6.589,33.466-21.317,7.991-19.138,7.783-38.707.4-57.957C679.136,87.989,668.5,80.691,653.52,80.615c-15.071-.077-25.742,6.991-31.833,20.861C617.425,111.18,616.232,121.42,615.208,132.074Z"/><path d="M733.675,246.317V68.114h23.13c.322,6.2.645,12.413,1,19.3a14.707,14.707,0,0,0,2.263-2c18.114-26.324,68.97-29.194,86.594,6.463,14.178,28.686,13.91,58.43-3.225,86.108-14.994,24.219-52.375,31.1-75.363,15.119-3.653-2.54-6.716-5.929-10.53-9.355v4.825c0,17.47-.107,34.942.077,52.411.042,4.018-.965,5.665-5.257,5.415C746.438,246.059,740.473,246.317,733.675,246.317ZM756.067,133.2c.773,8.047.987,14.048,1.981,19.915,2.879,16.979,12.635,27.667,27.011,30.115,21.033,3.582,36.372-6.016,42.361-26.683a91.537,91.537,0,0,0,1.857-43.422C825.764,95,814.256,84.153,798.15,83.508c-19.853-.8-33.195,8.153-38.214,26.634C757.732,118.255,757.1,126.794,756.067,133.2Z"/></svg>