<svg xmlns="http://www.w3.org/2000/svg" viewBox="0 0 1000 1000"><path d="M994.021,487.21c-5.624-15.475-18.038-22.05-33.1-24.917-4.422-.841-8.99-.928-13.494-1.318-2.674-.232-3.989.757-3.98,3.734.084,26.776-.153,53.555.159,80.328.155,13.331,6.266,22.694,18.242,29.956H880.516c9.306-4.949,15.429-11.77,17.574-21.666a25.319,25.319,0,0,0,.544-5.29c.033-27.463-.05-54.927.108-82.389.022-3.8-1.125-5.157-4.862-5.045-13.044.391-25.479,2.748-35.49,11.832-3.574,3.243-6.3,7.419-9.523,11.3,0-4.736,0-9.719,0-14.7,0-7.964.157-15.933-.07-23.891-.1-3.6,1.031-4.672,4.678-4.662q67.614.176,135.228.062c1.772,0,3.545-.206,5.318-.316Z"/><path d="M547.328,440.558c25.262,0,49.71.049,74.157-.067,2.853-.013,3.7,1.32,4.5,3.635,10.709,30.942,21.545,61.84,32.244,92.785,5.315,15.372,12.582,29.257,28.279,38.021H596.519c2.674-1.8,5.433-3.362,7.862-5.335,7.877-6.4,9.977-13.867,6.746-23.468a108.6,108.6,0,0,0-4.28-11.555c-.641-1.367-2.62-2.96-4.017-2.987-11.953-.236-23.914-.178-35.871-.07-1.186.011-3.164.679-3.42,1.477-2.291,7.117-5.421,14.231-6.062,21.542-.794,9.057,4.6,15.733,13.66,20.613h-4.144c-34.36,0-68.724-.273-103.08.136-13.355.159-23.416-4.864-29.767-16.174-7.106-12.656-13.24-25.855-19.863-38.785-1.087-2.123-2.181-5.417-3.848-5.826-3.623-.89-7.624-.372-11.454-.144-.562.033-1.489,1.633-1.474,2.5.212,12.614.02,25.27,1.052,37.823.724,8.809,5.114,16.136,14.6,20.29H337.283c12.433-9.083,15.5-21.414,15.327-35.4-.288-24.03-.061-48.067-.163-72.1a42.489,42.489,0,0,0-1.111-9.766c-1.8-7.4-5.774-13.281-13.9-16.914,1.846-.113,2.79-.22,3.735-.22,29.826-.009,59.654-.162,89.478.078,10.408.084,20.846.913,30.6,5.249a31.383,31.383,0,0,1,15.674,43.137,39.139,39.139,0,0,1-15.413,16.737c-1.165.686-2.315,1.4-3.34,2.021-.032.549-.148.861-.048,1.071,9.465,20,19.364,39.755,34.143,56.52a62.83,62.83,0,0,0,9.643,8.286,4.59,4.59,0,0,0,4.05.319c6.754-3.612,12.994-8.056,16.149-15.312q12.293-28.268,24.1-56.745c4.566-11.013,8.8-22.168,12.974-33.338C564.192,455.181,561.01,447.393,547.328,440.558Zm-152.54,37.171c0,4.941.2,9.893-.07,14.819-.188,3.383,1.13,4.271,4.259,4.1,3.972-.213,7.965-.018,11.948-.049,14.436-.113,20.518-6.427,20.028-20.757-.275-8.022-4.385-13.854-12.362-15.205-6.674-1.13-13.619-.614-20.435-.985-2.845-.155-3.483,1.125-3.407,3.664C394.891,468.118,394.79,472.925,394.788,477.729Zm189.262-5.591-1.266-.031c-4.8,14.528-9.6,29.055-14.541,44h31.069Z"/><path d="M5.529,370.534c17.623-6.287,29.69,3.815,42.11,13.212,7.864-8,15.6-15.837,27.642-18.335,3.2,12.807-.9,23.381-9.245,33.209,8.673,4.939,17.69,7.162,27.112,8.459,10.619,1.462,19.5-1.758,25.946-9.969,3.43-4.369,5.213-10.029,7.629-14.884,4.256.681,9.193,2.121,14.132,2.129,10.526.016,18.761-4.625,23.909-14.044,7.467-13.661,10.453-28.181,7.945-43.645-.312-1.922-1.353-3.726-2.1-5.7-12.339,3.417-23.873,3.314-34.843-4.284,6-11.754,15.707-17.8,27.825-19.975-1.558-6.524-3.477-12.778-4.477-19.176a37.729,37.729,0,0,1,4.356-25.044c1.686-2.97,3.442-3.682,6.568-1.834,11.374,6.725,17.384,17.217,21,29.388a74.817,74.817,0,0,1,1.593,8.754c6.216-.425,12.154-1.3,18.056-1.1,6.076.2,11.753,2.408,17.159,6.391-6.2,12-16.394,17.942-30.217,20.215,2.761,5.891,4.9,11.358,7.779,16.4a67.415,67.415,0,0,0,22.021,23.015,28.363,28.363,0,0,0,36.942-5.062c.884-1.009,1.741-2.043,2.842-3.338,5.033,7.32,11.658,12.09,20.279,12.969a33.928,33.928,0,0,0,13.74-1.058c12.38-4.105,20.652-13.385,28.411-24.114-11.609-4.313-20.016-11.254-24.4-23.329,11.986-4.19,23.095-2.71,34.235,4.069,2.539-17.676,11.958-28.719,29.793-33.414-2.62,6.044-4.924,11.252-7.144,16.494-14.221,33.59-23.774,68.517-29.954,104.413-1.323,7.687-2.631,15.379-4.138,23.031-1.631,8.286-6.972,13.767-14.107,17.74-.384.213-.989.027-2.313.027.94-1.583,1.544-2.693,2.233-3.747,6.277-9.6,3.221-18.928-7.989-21.372a112.512,112.512,0,0,0-27.279-2.829c-41.579,1.338-81.366,11.053-119.543,27.395-11.131,4.764-21.909,10.291-30.93,18.6-9.6,8.84-8.222,18,3.5,24.16.782.411,1.462,1.016,3.249,2.281-3.714,0-6.286.4-8.68-.077a26.512,26.512,0,0,1-16.625-10.5c-21.757-29.132-45.44-56.543-73.2-80.2C26.432,387.4,16.216,379.3,5.529,370.534Z"/><path d="M152.821,551.957c-3.1,0-5.967-.307-8.748.057-8.594,1.124-13,7.789-11.142,16.293,1.38,6.3,5.2,10.767,10.379,14.264,7.916,5.344,16.9,7.889,26.159,9.309,17.409,2.673,34.747,2.437,51.716-2.92,27.955-8.825,43.888-27.934,48.035-56.825,2.683-18.694,1.673-37.214-4.058-55.282-7.417-23.381-25.177-32.808-49.387-30.94-.131,1.666-.387,3.4-.388,5.132-.023,35.168.029,70.337-.055,105.5-.017,7.1,1.654,12.861,9.577,14.879-13.431,11.032-60.28,11.677-72.45.718,5.3-1.411,10.109-3.337,11.408-9.3a18.792,18.792,0,0,0,.5-4.061q-.267-51.512-.647-103.023c-.021-2.6.771-3.879,3.242-4.872a368.362,368.362,0,0,1,83.883-22.843c17.247-2.539,31.112,5.118,43.806,15.044,15.654,12.242,23.167,29.2,25.249,48.692,2.516,23.561-.4,46.3-11.35,67.552-14.7,28.527-38.818,45.228-69.146,53.676-21.969,6.119-44.326,6.848-66.927,4.331-19-2.116-37.293-6.412-54.07-15.88-11.331-6.4-20.89-14.684-26.919-26.5-5.724-11.218-6.231-22.969-2.71-34.793,3.73-12.526,12.844-19.452,25.377-22.021C135.112,513.86,153,530.836,152.821,551.957Z"/><path d="M193.406,745.341c13.969-5.99,17.405-17.844,17.638-30.751.477-26.363.3-52.739.184-79.108-.016-3.718,1.144-4.439,4.707-5.1,12.783-2.383,25.441-5.44,38.135-8.3,1.561-.351,3.049-1.025,5.141-1.746V663.3c1.618-1.734,2.537-2.642,3.37-3.623,13.34-15.705,26.6-31.477,40.033-47.1,5.249-6.107,8.468-12.506,4.71-20.977h65.083c-4.093,1.32-7.311,2.237-10.442,3.388-14.845,5.457-27.739,13.711-37.776,26.158-5.338,6.619-10.937,13.027-16.524,19.656,15.887,28.144,29.979,57.181,53.944,79.572,8.678,8.108,18.091,15.138,28.917,20.212,2.416,1.132,3.936.814,5.727-1.038a25.8,25.8,0,0,0,7.693-18.138c.193-28.292.481-56.591.031-84.877-.178-11.209-4.6-20.9-16.637-26.2h79.219c-.12.176-.232.548-.465.654-10.952,4.956-15.5,14.051-15.71,25.431-.309,16.476-.139,32.961-.163,49.443-.012,8.241.246,16.491-.057,24.721-.532,14.392,2.326,27.038,16.194,35.082h-3.95c-39.039.029-78.081-.229-117.114.225-15.743.183-28.859-4.935-38.483-16.955-10.011-12.5-18.827-25.965-28.121-39.039-1.5-2.117-2.78-4.4-4.562-7.24-5.133,6.6-10.055,12.9-14.925,19.245a2.851,2.851,0,0,0-.213,1.607c.143,9.773.66,19.513,4.3,28.74A22.381,22.381,0,0,0,275.5,745.341Z"/><path d="M527.448,655.659c.038,22.742-.177,44.917.228,67.082.175,9.625,5.221,16.855,13.933,21.311a16.535,16.535,0,0,1,1.764,1.346H483.525c13.071-4.515,15.074-14.613,15.121-25.142.133-29.649.073-59.306-.565-88.946-.193-9.007-3.926-17.065-14.513-21.285h11.039c18.006,0,36.013.081,54.018-.077a6.767,6.767,0,0,1,6.6,3.534q26.914,41.447,54.088,82.724c.817,1.247,1.638,2.492,2.927,4.451a25.534,25.534,0,0,0,.5-3.193c.021-18.678.19-37.359-.093-56.032a71.284,71.284,0,0,0-2.357-16.625c-1.728-6.667-5.927-11.69-13.709-14.458H654.5c-10.75,5.349-13.336,14.908-13.439,25.184-.282,28.152-.135,56.308-.051,84.462a41.26,41.26,0,0,0,1.163,8.955c1.584,6.942,4.795,12.826,12.73,16.318-2.09.206-3.083.388-4.076.389-20.48.016-40.961-.041-61.44.076-2.7.015-4.16-.934-5.584-3.15q-26.711-41.574-53.609-83.028C529.41,658.351,528.54,657.206,527.448,655.659Z"/><path d="M748.087,674.246h70.748c-12.452,7.106-14.418,18.241-14.534,30.1-.129,13.175-.03,26.352-.03,39.5-.42.088-.774.276-.91.174-10.115-7.616-21.383-7.816-33.007-4.906-10.245,2.565-20.26,6.484-30.64,7.982-30.09,4.342-64.218-7.436-74.105-45.629-5.476-21.153-3.492-42.4,7.2-61.555,10.582-18.953,28.779-27.58,49.73-30.636a94.531,94.531,0,0,1,42.72,3.733,104.635,104.635,0,0,0,18.529,3.583c9.892,1.241,17.391-2.738,22.712-12.36v57.416c-13.321-19.125-32.8-28.032-54.951-32.4-15.737-3.1-27.714,3.731-31.935,19.21a108.525,108.525,0,0,0,.949,60.965c4.254,14.021,15.287,20.57,28.309,17.809,6.627-1.4,10.4-5.125,10.639-11.775.3-8.084.065-16.2-.247-24.288C758.967,683.441,755.451,677.636,748.087,674.246Z"/><path d="M950.528,603.372v48.447c-4.615-4.434-8.519-8.4-12.649-12.113-13.336-11.993-29.017-16.429-46.522-13.026-4.763.926-9.541,3.608-13.465,6.6-6.492,4.945-6.51,12.128.191,16.9a49.7,49.7,0,0,0,16.214,7.5c10.218,2.6,20.895,3.449,31.064,6.2a79.562,79.562,0,0,1,21.047,9.019c25.062,15.6,24.478,51.059-.769,66.452-12.288,7.491-25.917,10.021-39.946,9.232-10.348-.582-20.646-2.612-30.886-4.443-14.452-2.583-28.418-1.729-41.859,4.528a8.65,8.65,0,0,1-1.377.344V692.18l1.079-1.095a9.061,9.061,0,0,0,1,2.529c15.727,19.285,35.922,30.85,60.644,33.723,5.625.653,11.7-.8,17.287-2.328,2.681-.733,5.228-3.541,6.9-6.036,3.085-4.611,2.56-8.854-2-11.889a59.012,59.012,0,0,0-15.064-7.194c-11.782-3.643-23.853-6.351-35.651-9.947a62.707,62.707,0,0,1-13.311-6.389c-28.193-16.677-20.628-52.5-.313-65.312,14.139-8.916,29.593-11.389,45.8-10.168,9.707.731,19.328,2.542,29.022,3.528C935.7,612.491,943.984,611.346,950.528,603.372Z"/><path d="M795.616,478.876v52.806c-7.368-17.523-22.008-17.95-36.965-17.482a3.417,3.417,0,0,0-2.372,2.345c.082,11.925.053,23.867.709,35.768.53,9.619,5.318,17.127,14.184,22.571h-77.8a37.2,37.2,0,0,0,14.943-22.6,30.674,30.674,0,0,0,.614-6.52q.061-37.907.017-75.813c-.017-12.435-5.031-22.034-15.55-29.4h5.244c43.435,0,86.871.046,130.306-.081,3.763-.011,4.984.956,4.9,4.8-.246,10.677-.085,21.363-.085,33.053-9.065-13.074-21.944-17.259-35.91-18.494-10.51-.93-21.123-.777-31.693-.934-10.01-.149-10.012-.05-10.011,9.83,0,8.241.085,16.482-.041,24.721-.043,2.859.992,4.032,3.846,3.817,4.652-.349,9.364-.245,13.958-.942a24.764,24.764,0,0,0,17.813-11.41C792.884,483.114,794.049,481.309,795.616,478.876Z"/></svg>