<svg xmlns="http://www.w3.org/2000/svg" viewBox="0 0 1000 1000"><path d="M496.961,38.234Q626.227,113.327,755.51,188.39c41.884,24.265,83.731,48.612,126.074,72.064,14.228,7.881,20.184,17.358,20.1,34.182q-1.051,212.813-.209,425.633c.048,15.465-4.638,24.8-18.5,32.716Q695.636,859.868,509.125,968.177c-12.41,7.2-21.757,6.105-33.773-.829Q280.118,854.686,84.343,742.952V271.7c52.52-30.025,105.171-59.824,157.528-90.128q123.359-71.4,246.4-143.337ZM475.379,482.65l-1.205-3.612q-86.74,0-173.481.019c-29.1.033-29.1.124-29.257,28.284-.265,48.1-.269,48.757,46.885,49.072,17.05.113,22.921,6.031,22.572,22.744-.813,38.868.479,77.785-.578,116.642-.515,18.935,4.683,28.154,25.428,26.744a518.151,518.151,0,0,1,60.735-.086c18.391.915,24.086-7.218,23.5-24.448-.885-25.893-.661-51.854.165-77.752.2-6.333,2.764-15.265,7.365-18.281,13.353-8.754,44.8-.276,53.974,13.125,12.628,18.445,26.988,36.088,36.932,55.9,19.36,38.574,46.115,60.721,91.894,51.711,6.152-1.211,12.93,1.1,19.426,1.188,15.524.211,31.052.068,52.721.068L617.285,584.036c7.119-4.808,11.2-7.687,15.393-10.378,56.888-36.46,77.359-83.218,62.879-152.007-12.162-57.776-53.313-86.563-108.624-98.023a209.863,209.863,0,0,0-40.84-4.327c-73.062-.515-146.132-.991-219.19-.34-64.881.579-54.017-10.665-55.615,56.209-.367,15.348,4.149,23.487,20.751,21.589,3.569-.408,7.227-.042,10.844-.034,35.191.083,34.58.151,38.483,35.007.7,6.226,8.635,16.483,13.51,16.648,40.139,1.355,80.345.765,120.53.765-1.761-3.19-3.668-4.327-5.559-4.3-11.269.154-19.964-4.352-16.293-16.195,1.789-5.771,11.152-12.811,17.3-13.016,24.492-.818,49.253-.793,73.562,1.984,28.266,3.229,42.937,20.164,43.494,45.1.52,23.294-13.437,43.215-39.294,46.906-27.666,3.949-56.115,2.988-84.213,2.788-3.875-.028-10.88-8.107-10.746-12.278.175-5.463,5.249-11.535,9.713-15.788C465.741,482.086,471.273,483.109,475.379,482.65Z"/></svg>