<svg id="Layer_1" data-name="Layer 1" xmlns="http://www.w3.org/2000/svg" viewBox="0 0 1000 1000"><path d="M255.12,506.39c.34,3.16,3.81,8.33,6.16,8.51,11.53.89,23.16.41,36.11.41V413.37h0c4.06,4.44,6,6.45,7.83,8.58,22.32,26.28,45.4,52,66.56,79.17,9.2,11.82,19.07,15.58,33.1,14.68,15.46-1,15.93-.53,16-15.72q.14-68.82,0-137.65c0-4.33-.93-8.67-1.44-13.09H378.05v97.4c-23.74-27.85-47-53.3-68-80.53-10.9-14.16-22.51-20-40-18.37-15.13,1.42-15.37.38-15.4,16.08q-.09,58.47,0,116.94C254.66,489.37,254.21,498,255.12,506.39Z"/><path d="M729.19,621c-9.18,5.11-18.12,10.85-27.75,14.92-36,15.21-73.7,15.94-111,8.2-37.14-7.69-73.85-17.86-110.21-28.74-60.05-18-120.19-20.94-180.59-3.64-15,4.28-29.13,12-43,19.37-7.05,3.78-14.17,9.51-12.55,20.63,2.21-.63,3.81-.78,5.1-1.5,22.27-12.48,46-18.87,71.6-20.92,32.16-2.58,64.16-3.22,95.39,4.93,32.45,8.47,64.15,19.73,96.48,28.67,46.69,12.9,93.79,22.21,142.52,11.34,31.26-7,58.1-22.15,82-43,4.73-4.14,9.42-9.16,4.49-17.88C737.2,616.12,733.29,618.72,729.19,621Z"/><path d="M498.94,525.31c35.8,8.4,79-4.61,93.09-27.5l-22.37-26.95c-8.81,5.35-16,11-24.07,14.36-18.85,7.84-37.57,7.07-53.71-6.51S470,447,474.76,426.24c8.54-37,45.82-51.69,79-31.3,4.73,2.91,9.24,6.19,14.65,9.83l25-28C568.41,348.2,521,340,482.8,356.25c-34.63,14.71-56.83,52.59-53,90.36A90.14,90.14,0,0,0,498.94,525.31Z"/><path d="M500,0C223.86,0,0,223.86,0,500s223.86,500,500,500,500-223.86,500-500S776.14,0,500,0ZM790.86,658.45c0,9.31-2.72,16.08-9.28,22.53a251.74,251.74,0,0,1-59.79,43.57c-45.31,23.81-93.27,30.91-143.75,23.84-37.28-5.22-72.14-18.25-106.57-32.49-35.38-14.63-71.4-26.6-109.9-28.58-52.16-2.68-99.2,12.35-141.51,42.72-3.07,2.2-6.29,4.2-10.91,7.28V721.83q0-227.9,0-455.8c0-5.68-.35-11.35-.54-17H791.41c-.2,5.68-.56,11.35-.57,17Q790.73,462.25,790.86,658.45Z"/><path d="M657.89,479.87V349.36H618.57V515.58H644l89,0c5.32,0,11.46.56,11.87-7,.49-9.15.11-18.35.11-28.71Z"/></svg>