<svg width="512" height="512" viewBox="0 0 512 512" fill="none" xmlns="http://www.w3.org/2000/svg">
<path fill-rule="evenodd" clip-rule="evenodd" d="M256 512C397.385 512 512 397.385 512 256C512 114.615 397.385 0 256 0C114.615 0 0 114.615 0 256C0 397.385 114.615 512 256 512ZM381.115 78.9914C373.624 72.4596 362.745 69.3979 345.867 69.0236C330.548 68.6834 312.348 72.0174 291.707 78.8213C288.623 79.9099 286.148 81.645 283.946 83.7883C262.967 103.554 242.563 124.544 223.279 146.18L221.787 147.813C221.381 148.289 221.313 148.97 221.618 149.48C221.923 150.025 222.567 150.297 223.177 150.161L225.346 149.684C256.425 143.017 287.81 137.914 318.618 134.546C320.651 134.307 322.753 134.988 324.244 136.383C325.769 137.777 326.617 139.785 326.582 141.86C326.073 172.546 327.192 203.367 329.903 233.474L330.073 235.448C330.141 236.061 330.548 236.537 331.157 236.706C331.212 236.725 331.267 236.734 331.328 236.743C331.379 236.751 331.434 236.76 331.496 236.775C331.937 236.775 332.412 236.571 332.716 236.163L333.836 234.563C351.187 209.729 370.066 185.575 389.927 162.714C392.163 160.162 392.74 158.564 393.147 156.25C399.382 116.175 389.757 86.5098 381.115 78.9914ZM174.305 339.24C175.355 337.199 180.168 327.878 181.252 325.802L181.456 325.428C213.721 264.363 253.036 206.733 298.282 154.207L299.535 152.744C299.91 152.302 299.977 151.622 299.706 151.111C299.401 150.567 298.824 150.295 298.248 150.363L296.351 150.635C266.66 154.751 236.598 160.433 206.977 167.543C204.028 168.359 202.13 170.298 201.723 170.741C179.558 197.378 158.579 225.411 139.328 254.157C138.379 255.62 138.04 257.525 138.277 259.09L138.298 259.249C138.695 262.262 143.285 297.143 150.173 324.068C132.685 374.553 117.061 441.163 117.061 441.163C116.925 441.605 117.027 442.048 117.264 442.422C117.535 442.796 117.942 443 118.416 443H128.381C129.025 443 129.567 442.626 129.804 442.048L130.482 440.177C140.65 412.348 152.241 384.861 165.052 358.054C168.001 351.827 174.305 339.24 174.305 339.24ZM231.21 363.225L233.684 362.408C234.091 362.273 234.531 362.408 234.836 362.749C235.107 363.088 235.175 363.566 234.972 363.94L227.549 378.908C226.736 380.507 225.143 381.357 225.143 381.357C215.213 386.12 198.741 393.979 184.133 400.919L183.862 401.054C179.849 402.98 175.928 405.045 172.272 406.972C168.95 408.722 165.845 410.358 163.086 411.67L160.545 412.894C160.375 412.961 160.206 412.996 160.07 412.996C159.799 412.996 159.562 412.894 159.358 412.689C159.019 412.383 158.918 411.907 159.087 411.498L160.172 408.879C160.703 407.635 161.489 405.722 162.39 403.532L162.39 403.531L162.391 403.528C163.903 399.852 165.735 395.395 167.221 392.005L167.289 391.836C167.466 391.425 167.636 391.028 167.799 390.648C168.134 389.865 168.439 389.154 168.713 388.536C168.713 388.536 169.458 387.039 170.577 386.495C191.725 376.731 215.28 368.533 231.21 363.225ZM312.855 163.225L312.89 165.13C313.228 195.339 318.55 255.078 318.55 255.078C318.55 255.078 318.752 256.745 317.974 257.868C317.974 257.868 287.368 307.774 274.117 333.561C273.27 335.228 271.745 336.522 269.948 337.031C239.886 345.775 209.62 356.456 179.965 368.771L178.236 369.486C178.033 369.554 177.829 369.588 177.66 369.588C177.287 369.588 176.914 369.419 176.643 369.145C176.237 368.704 176.135 368.058 176.406 367.513L177.219 365.813C211.925 292.976 256.29 225.004 309.06 163.735L310.315 162.306C310.72 161.864 311.364 161.694 311.908 161.898C312.45 162.102 312.822 162.612 312.855 163.225Z" fill="black"/>
</svg>
