<svg xmlns="http://www.w3.org/2000/svg" viewBox="0 0 1000 1000"><path d="M3.225,507.628c2.151-.989,4.262-2.741,6.458-2.853,27.05-1.383,54.113-2.542,81.174-3.718,5.117-.222,8.631,2.981,8.54,7.581s-3.4,7.444-8.842,7.212c-22.082-.942-44.159-1.994-66.238-2.98-4.817-.216-9.667-.067-14.443-.6-2.287-.257-4.437-1.726-6.649-2.646Z"/><path d="M122.106,393.122c1,2.123,2.767,4.2,2.886,6.376,1.429,26.105,2.621,52.222,3.856,78.337.309,6.54-4.141,10.656-9.749,9.083-3.788-1.063-5.449-3.425-5.285-8.4.423-12.9.969-25.8,1.545-38.7.6-13.39,1.174-26.784,2.049-40.157.146-2.229,1.763-4.362,2.7-6.54Z"/><path d="M773.249,556.172H765.04c-.135-2.155-.353-4.09-.362-6.026-.045-10.454.167-20.913-.106-31.36-.29-11.124-6.542-17.716-17.3-18.894-10.827-1.185-20.475,4.9-23.13,14.739a23.373,23.373,0,0,0-.6,5.9c-.058,9.956-.015,19.912-.04,29.868,0,1.782-.16,3.564-.262,5.665h-7.6V493.7c6.763-1.67,6.763-1.67,8.207,8.2,6.709-7.594,15.05-10.542,24.671-9.852,9.525.684,17.2,4.718,22.081,13.3,10.363-12.472,21.911-16.205,35.582-11.773,9.506,3.081,16.127,10.835,16.383,20.423.355,13.265.108,26.545.092,39.819a11.921,11.921,0,0,1-.492,2.222h-7.4c-.122-1.743-.346-3.491-.352-5.241-.034-10.453.027-20.908-.03-31.361-.065-11.985-7.279-19.356-19.111-19.648-12.218-.3-21.509,7.535-21.9,19.033-.35,10.277-.106,20.573-.122,30.861C773.247,551.653,773.249,553.611,773.249,556.172Z"/><path d="M366.412,556.2h-7.47c-.219-3.228-.427-6.285-.695-10.226-9.179,9.858-20.036,13.266-32.666,10.422a30.274,30.274,0,0,1-18.35-12.04,33.757,33.757,0,0,1,4.563-44.38c12.818-11.612,30.933-10.6,46.743,3.318V460.027h7.875Zm-32.547-6.767c14.375.125,24.922-10.291,24.969-24.661.047-14.152-10.322-24.839-24.229-24.971-14.358-.137-24.8,10.227-24.88,24.7C309.642,538.763,319.852,549.307,333.865,549.43Z"/><path d="M519.645,503.048v-9.727l7.758-.427v63.148H519.9c-.176-3.046-.358-6.214-.549-9.539-17.75,14.054-36.1,14.263-48.581.741-11.313-12.258-11.391-32.767-.171-45.025C483,488.672,501.455,488.779,519.645,503.048Zm-24.01,46.382c14.111-.072,24.259-10.422,24.26-24.743,0-14.523-10.36-24.974-24.673-24.89-14.155.083-24.463,10.793-24.344,25.294C470.993,539.147,481.525,549.5,495.635,549.43Z"/><path d="M447.536,527.612H395.657c-1.249,6.544,2.683,14.654,9.421,18.534,12.678,7.3,24.265,4.08,35.512-4.8l4.383,5.264c-6.774,7.234-15.05,10.065-24.264,10.722-17.818,1.272-31.574-9.694-34.536-27.467-2.805-16.831,7.181-32.689,23.179-36.811C431.3,487.4,450.855,504.635,447.536,527.612Zm-8.24-7.378c-1.175-13.784-11.259-21.974-24.944-20.562-10.689,1.1-20.008,11.278-18.728,20.562Z"/><path d="M695.817,524.785c-.063,18.526-14.585,32.631-33.6,32.632-18.983,0-33.6-14.188-33.633-32.654-.035-18.7,14.829-33.1,33.911-32.851C681.634,492.158,695.879,506.212,695.817,524.785Zm-58.426-.354c-.073,14.5,10.137,24.92,24.5,25,14.556.081,25.531-10.6,25.485-24.8a24.6,24.6,0,0,0-25.03-24.828C647.992,499.784,637.463,510.177,637.391,524.431Z"/><path d="M208.91,432.127a29.439,29.439,0,0,1-2.656,3.752q-30.235,29.679-60.549,59.277c-3.03,2.957-4.413,2.84-7.61-.067-6.963-6.33-7.014-6.855-.224-13.52q28.279-27.757,56.625-55.448c3.763-3.68,4.8-3.723,8.663-.112C205.137,427.861,206.885,429.957,208.91,432.127Z"/><path d="M110.667,488.621c-3.05,2.9-5.624,5.9-8.743,8.148-2.44,1.756-4.213-.711-5.859-2.316Q66.653,465.79,37.252,437.116c-4.244-4.143-4.214-5.039-.058-9.282.58-.593,1.164-1.184,1.764-1.757,3.777-3.606,5.027-3.689,8.729-.161,4.566,4.349,9.019,8.815,13.525,13.228q22.763,22.291,45.509,44.6A61.237,61.237,0,0,1,110.667,488.621Z"/><path d="M141.893,519.112a46,46,0,0,1,4.487,3.39q19.471,18.935,38.856,37.957,10.148,9.936,20.242,19.926c3.7,3.68,3.64,4.816-.055,8.615-.81.833-1.641,1.652-2.521,2.41-3.446,2.967-4.753,2.976-8.054-.211q-10.935-10.555-21.776-21.207-17.975-17.616-35.9-35.275c-6.007-5.921-6-6.073.243-12.059C138.687,521.434,140.191,520.446,141.893,519.112Z"/><path d="M110.648,528.5a58.214,58.214,0,0,1-3.693,4.557q-24.516,24.039-49.087,48.021c-3.321,3.248-6.567,6.572-9.9,9.8-3.808,3.686-5.215,3.64-9.124-.127-.716-.691-1.424-1.391-2.115-2.108-3.456-3.589-3.474-4.844-.035-8.2q29.73-29.028,59.48-58.033c1.628-1.587,3.408-4,5.884-2.108C105.1,522.635,107.664,525.6,110.648,528.5Z"/><path d="M609.815,556.09H602.3c-.157-1.9-.44-3.794-.449-5.691-.051-10.451.129-20.906-.086-31.353-.23-11.187-6.353-17.874-17.027-19.129-10.895-1.281-20.527,4.619-23.293,14.441a24.453,24.453,0,0,0-.729,6.378c-.074,9.788-.033,19.576-.034,29.364v5.856h-7.939V493.7c2.513-.954,5.5-1.94,7.137.554,1.176,1.788.674,4.673,1,7.792,5.534-6.166,11.919-9.41,19.511-9.95,14.749-1.05,29.209,6.015,29.909,24.509.463,12.259.095,24.549.064,36.825A14.944,14.944,0,0,1,609.815,556.09Z"/><path d="M942.586,548.7c1.076-1.7,2.2-3.465,3.624-5.718,6.406,4.367,13.246,6.954,20.665,6.817a56.885,56.885,0,0,0,14.633-2.139c4.868-1.41,6.983-5.059,6.8-9.283-.174-3.988-2.467-7-7.439-8.2-5.141-1.237-10.494-1.575-15.713-2.534A62.164,62.164,0,0,1,954.579,525c-5.933-2.224-9.538-6.63-9.99-13.054-.469-6.666,1.957-12.474,7.994-15.4a42.84,42.84,0,0,1,42.722,2.6c-1.112,2.059-2.159,4-3.2,5.923-4.533-1.6-8.619-3.577-12.929-4.415a53.346,53.346,0,0,0-13.834-.757,17.33,17.33,0,0,0-8.241,3.093c-5.871,4.1-5.147,12,1.431,14.715,3.758,1.551,8.026,1.872,12.064,2.748,5.655,1.228,11.643,1.662,16.9,3.846,11.78,4.895,13.007,19.9,2.64,27.412C977.166,561.1,951.521,557.783,942.586,548.7Z"/><path d="M930.914,502.553l-5.464,4.615c-7.253-5.912-15.491-9.141-25.164-6.554a23.278,23.278,0,0,0-13.316,9.047c-6.863,9.537-6.064,23.688,1.777,32.243,9.03,9.851,21.311,9.953,37.873-.239.605.905,1.335,2.021,2.09,3.12.551.8,1.135,1.581,1.654,2.3-7.2,10.955-31.117,15.188-45.892,2.25-13.776-12.062-14.418-35.186-1.315-48.119C895.912,488.628,919.393,488.877,930.914,502.553Z"/><path d="M162.163,501.6q35.335,1.529,70.672,3.071c1.152.05,2.541-.013,3.38.587,1.083.775,2.38,2.173,2.367,3.289-.014,1.1-1.34,2.57-2.468,3.168a10.664,10.664,0,0,1-4.38.672q-39.566,1.752-79.133,3.475c-3.749.169-6.993-.46-8.872-4.089-2.654-5.127,1.325-10.886,7.5-10.748,3.647.082,7.288.422,10.932.646Z"/><path d="M126.875,577.851q-.883,19.853-1.792,39.7a7.921,7.921,0,0,1-.773,3.82,4.4,4.4,0,0,1-3.127,1.843,4.2,4.2,0,0,1-3.1-1.864,10.092,10.092,0,0,1-.79-4.324q-1.787-38.213-3.5-76.429a30.126,30.126,0,0,1,.013-3.975,7.192,7.192,0,0,1,6.689-6.806,7.341,7.341,0,0,1,7.925,5.413,12.687,12.687,0,0,1,.407,3.922C128.214,552.054,127.535,564.952,126.875,577.851Z"/><path d="M271.82,462.869c1.318-.136,2.458-.341,3.6-.347,1.306-.007,2.612.161,4.283.28V556c-1.442.152-2.718.364-4,.4-1.147.032-2.3-.13-3.375-.2C270.932,552.636,270.453,470.677,271.82,462.869Z"/><path d="M846.841,493.235h7.467v62.828h-7.467Z"/><path d="M850.513,476.462a5.7,5.7,0,0,1-5.821-5.59,6.034,6.034,0,0,1,5.577-5.947,5.9,5.9,0,0,1,6.055,5.932A5.729,5.729,0,0,1,850.513,476.462Z"/></svg>