<svg id="Layer_1" data-name="Layer 1" xmlns="http://www.w3.org/2000/svg" viewBox="0 0 1000 1000"><path d="M732.6,555.21c-2.34,1.12-3.51,1.3-4,2-34.13,47.35-60.48,98.28-67.79,157a133.43,133.43,0,0,0,2.7,45.35c4.27,18.72,21.55,23.81,36.72,11.81a67.89,67.89,0,0,0,18-21.17,180.93,180.93,0,0,0,14.89-38.37c13.15-51.79,8.33-103.71-.5-156.58Z"/><path d="M294.24,215.16c-17.05,12.42-29.94,28.69-40,47-38.38,70.26-41.8,143.68-17.55,218.83,7.54,23.37,19.92,44.67,36,63.56C290.93,531.43,301,516.5,292,494.18c-1.81-4.45-1.6-9.69-2.56-14.51-15.91-80.33-10.91-158.83,20.31-235.1,5.19-12.67,9.8-25.57,15.4-40.25C311.1,203.32,302.5,209.14,294.24,215.16Z"/><path d="M296.83,556.52C259.15,604.59,236.48,659,230.27,719.71A116.4,116.4,0,0,0,233,759.16c4.88,19.4,21.8,24,37.84,11.76,4.26-3.25,9-7,11.23-11.57,7.64-15.83,16.45-31.58,20.86-48.39,13.66-52.08,8.1-104.46-.94-158.6C299,554.73,297.68,555.44,296.83,556.52Z"/><path d="M466.68,482.47c-7.43-.1-14.26,1.57-16.42,9.51-2.33,8.58,3.06,14.2,10,17.67,21.14,10.58,43.3,8.85,69.2,5.9h0C511.19,494.13,491.89,482.81,466.68,482.47Z"/><path d="M500,0C223.86,0,0,223.86,0,500s223.86,500,500,500,500-223.86,500-500S776.14,0,500,0ZM856.07,434.61c-23.24,18.31-46.32,36.83-69.48,55.23-7.51,6-10,12.85-9.24,23.05,3.52,50.27,6.06,100.61-4.9,150.48-8.84,40.21-20.71,79.24-43.13,114.29-11.4,17.84-25.43,32.69-46.15,39.72H665.38c-18.4-6.87-28.8-21-31.94-39.45-2.62-15.41-4-31.47-2.85-47,3.58-48.5,19.74-93.29,43.6-135.44,4.78-8.45,9.59-16.89,14.13-24.88-11.58-13-23.06-24.65-33-37.49-6.48-8.38-14.26-11.31-24.05-11.9-20.48-1.24-40.2,2.59-59.89,7.71-7.24,1.88-8.76,5.88-9.67,12.48-1.41,10.19-3.35,20.53-7,30.1-1.75,4.64-7.77,7.67-11.86,11.42-2.74-4.82-6.55-9.36-7.93-14.55-1.48-5.58-.51-11.78-.9-17.69-.25-3.75-1-7.45-1.55-11.15-5,0-8.93,0-12.83,0-19.64-.16-39.56,1.7-58.85-1-30.82-4.26-57.74-15.6-61-55.43-15,6.7-28.34,12.8-41.79,18.54-8.53,3.64-10.65,9.51-10.24,18.69,1.86,41.4,4.78,82.83-2.33,124.13-8,46.5-20.4,91.4-45.56,131.91-11.42,18.4-25.73,33.64-46.88,41H235.29c-17.18-6.27-27.37-18.91-31.54-36.21-2.29-9.5-4.24-19.42-4.11-29.12.88-61.45,18.53-118.15,49.77-170.84,2.45-4.12,4.67-8.38,7-12.57l2-3.41c-4.86-3.43-10.43-6.18-14.46-10.41-32.83-34.44-58.43-73-66.94-121-1.19-6.66-2.68-13.26-4-19.89V363.55c5.36-18.34,8.8-37.52,16.42-54.88,26.77-61,71.19-104,134.85-126h17.8c6.78,8.62,3.37,17.95,1.57,27-8.32,41.76-14.38,83.82-12,126.48,1.88,34,5.45,67.91,8.6,101.83,1.3,14.1,3.44,28.12,5.29,42.91,62.25-29.53,122.88-38.4,183.06,3.92-2-16.1-9.45-28.67-17.24-41.28-1.9-3.08-2.66-10.57-1.3-11.33a163.6,163.6,0,0,1,29.36-13.21c2.38-.78,8.36,3.56,9.75,6.8,4.06,9.43,7.81,19.3,9.53,29.36,3,17.36,4.31,35,6.39,53l66.56-7.23c-2.43-5-4.66-9.34-6.67-13.77-29.82-66.05-31.34-132,3.29-196.61,27.87-52,69.71-88.72,126.12-107.88h17.79c6.79,8,3.4,16.91,2.15,25.47-3.4,23.39-7.84,46.65-10.6,70.1-6.31,53.42,1.57,106.36,6.65,159.37.92,9.61,2.61,19.14,4.3,31.23,7.1-6,12.06-10.57,17.49-14.58,19-14.06,38-28.18,57.4-41.69,7.58-5.28,16.22-8.18,23.46,1.46v8.9C867.34,426.77,861.45,430.37,856.07,434.61Z"/><path d="M724.88,214.73c-17.75,13.21-30.84,30.33-41.55,49.5-19.38,34.66-29.33,72-31,111.46-2.51,58.25,9.15,112.79,44.07,160.85,2.47,3.4,5.43,6.44,8.58,10.13,5.35-6.94,9.51-13.1,14.44-18.56,5.35-5.93,7.34-11.68,5.43-20-3.51-15.34-5.57-31-8-46.6-6.45-41.14-8.39-82.25-2.28-123.76,6-40.87,19.69-79.22,34.7-117.3,1.9-4.83,3.52-9.76,5.43-15.09h0C741.79,204.62,736,206.46,724.88,214.73Z"/></svg>