<svg xmlns="http://www.w3.org/2000/svg" viewBox="0 0 1000 1000"><path d="M981.3,497.293c-5.323,6.349-10.2,13.141-16.034,18.983q-225.2,225.6-450.615,450.978c-20.38,20.374-20.923,20.4-40.528.8Q248.66,742.714,23.439,517.129c-5.269-5.276-9.847-11.242-12.053-13.784L494.834,21,974.445,501.179ZM497.275,31.6C340.724,187.716,182.784,345.212,28.35,499.211L496.335,967.8C650.95,811.257,807.665,652.585,962.41,495.909Z"/><path d="M88.633,499.169l402.9-403.395L898.115,503.726c-7.044,7.382-18.4,19.681-30.189,31.562-30.585,30.834-60.622,62.28-92.506,91.718-9.436,8.713-24.136,15.9-36.681,16.337-51.867,1.788-103.839,1.235-155.758.514-35.3-.491-38.027-4.065-38.139-39.848-.1-31.158-.541-62.326.142-93.468.37-16.872-6.118-24.2-23.269-23.487-18.85.788-37.8.984-56.63-.028-19.3-1.037-27.189,6.112-26.52,26.083,1.138,33.951.568,67.973.153,101.958-.318,26.088-2.37,28.771-26.746,28.855-54.746.189-109.5-.148-164.234-1.378-9.56-.215-21.606-3.136-28.073-9.389C176.244,591.163,134,547.957,91.494,505.02,89.659,503.166,89.063,500.088,88.633,499.169ZM503.189,211.735,204.829,509.819l37.553,35.8L490.919,293.356c10.681,9.81,19.124,17.024,26.96,24.847Q615.13,415.291,712.2,512.562c36.636,36.631,36.7,36.621,70.464-3.1,1.689-1.987,2.119-5.043,4.634-11.376-34.729-34.169-69.989-69.509-106.062-104-12.51-11.961-18.9-24.819-17.987-42.368,1.029-19.777-.175-39.66.187-59.486.259-14.192-5.794-20.123-20.186-20.732-23.533-1-47.345-4.3-50.328,32.588l-7.952,1.133Z"/><path d="M270.394,670.728H722.112l4.14,6.326L500.318,903.233Z"/></svg>