<svg xmlns="http://www.w3.org/2000/svg" viewBox="0 0 1000 1000"><path d="M94.541,472.087q-21.954,15.584-43.915,31.156c-5.047,3.565-10.214,6.96-15.286,10.492-2.277,1.586-4.465,2.847-6.447-.285-1.844-2.911.214-4.319,2.321-5.617,7.593-4.68,15.24-9.275,22.794-14.017C67.528,485.33,81,476.76,94.484,468.225l-.591-1.163c-2.982,1.352-5.977,2.674-8.942,4.062Q57.525,483.954,30.109,496.8c-1.978.926-4,1.753-5.97,2.7-2.649,1.274-4.044,0-5.135-2.282-1.244-2.6.249-3.693,2.319-4.5,11.521-4.506,23.132-8.8,34.551-13.55Q75.493,471,94.694,461.6c-4.675,1.207-9.369,2.348-14.024,3.634Q50.178,473.656,19.7,482.148c-.877.243-1.913.915-2.6.655a32.19,32.19,0,0,1-4.534-2.539c.98-1.456,1.678-3.791,2.989-4.21a129.6,129.6,0,0,1,14.851-3.571c8.93-1.722,17.956-2.984,26.833-4.937,5.837-1.284,11.448-3.565,17.224-5.17,5.213-1.449,10.512-2.585,15.693-4.6-8.412.5-16.857.673-25.228,1.558-16.1,1.7-32.154,3.806-48.228,5.733-1.263.152-2.755.68-3.753.21-1.388-.653-2.979-1.914-3.378-3.246-.247-.824,1.339-2.631,2.5-3.322s2.813-.666,4.259-.725c10.727-.438,21.469-.605,32.18-1.269,14.968-.928,29.915-2.213,44.87-3.345l-.016-1.208q-29.358-1.639-58.716-3.275c-6.9-.382-13.8-.708-20.7-1.1-2.584-.146-4.791-.837-4.473-4.133.326-3.39,2.749-3.389,5.239-3.08,14.985,1.861,29.942,3.984,44.958,5.552a313.055,313.055,0,0,0,33.092,1.546c-3.859-.811-7.733-1.559-11.576-2.444Q50.089,438.06,19,430.839c-1.241-.288-2.871-.18-3.635-.942-1.176-1.175-2.378-2.958-2.345-4.456.017-.825,2.724-2.489,3.893-2.24,5.867,1.245,11.639,2.947,17.42,4.579q29.92,8.445,59.823,16.95l.5-1.239c-2.126-.861-4.257-1.71-6.378-2.583q-30.538-12.569-61.07-25.157a27.092,27.092,0,0,1-6.338-3.12,4.467,4.467,0,0,1-1.25-4.043c.414-1.048,2.351-1.848,3.723-2.05,1.111-.164,2.415.637,3.565,1.159,4.64,2.105,9.26,4.257,13.877,6.413q25.947,12.112,51.9,24.222c.41.191.934.139,1.722-.452-12.939-8.347-25.821-16.786-38.839-25.008-8.15-5.148-16.491-9.993-24.777-14.923-2.121-1.262-3.593-2.6-1.875-5.191,1.615-2.436,3.406-2.839,5.908-1.031C42.491,397.269,50.236,402.71,58,408.12q18.3,12.749,36.668,25.406l1.033-1.074q-1.89-1.878-3.78-3.755c-1.416-1.415-2.765-2.906-4.251-4.243q-22.485-20.217-45.026-40.372c-1.721-1.536-3.628-2.918-1.586-5.349,2.056-2.448,4.36-2.323,6.551-.065,6.843,7.051,13.551,14.236,20.538,21.141,9.179,9.069,18.566,17.928,27.9,26.846.448.428,1.192.548,2.55.121-1.333-1.792-2.787-3.506-3.979-5.387C84.065,404.758,70.362,390.6,58.368,375.107c-.667-.863-1.3-1.753-1.943-2.635-1.566-2.142-2.235-4.263.354-6.136,2.678-1.938,4.332-.407,5.806,1.773C68.7,377.15,74.7,386.272,80.991,395.188c7.841,11.111,15.929,22.047,24.748,32.592-2.564-5.436-4.943-10.97-7.729-16.29-7.926-15.138-16.021-30.188-24.042-45.277-.683-1.286-1.817-2.593-1.838-3.9-.026-1.649.382-3.9,1.491-4.843,2.094-1.786,4.042-.7,5.133,1.773,4.119,9.319,8.091,18.708,12.407,27.937,6.376,13.632,13,27.149,20.383,40.4-.556-1.83-1.1-3.664-1.67-5.491q-9.931-32.053-19.867-64.107c-.108-.348-.185-.705-.286-1.054-.656-2.284-1.759-4.727,1.629-5.839,3.626-1.19,4.929,1.017,5.678,4,1.6,6.355,3.23,12.7,4.825,19.058q6.63,26.433,13.241,52.869l1.157-.137c-.261-2.845-.539-5.689-.781-8.535-.246-2.9-.35-5.82-.7-8.708-2.224-18.4-4.511-36.8-6.731-55.2-.192-1.6-.605-3.57.1-4.757.649-1.084,2.93-2.11,4.043-1.755a5.194,5.194,0,0,1,2.92,3.661c.656,6.325.814,12.7,1.256,19.049q1.911,27.468,3.92,54.929a3.7,3.7,0,0,0,1.279,2.581q1.774-27.019,3.548-54.04c.476-7.259.907-14.522,1.444-21.777.169-2.291-.057-5.039,3.72-4.572,3.518.434,3.865,2.759,3.506,5.544-1.21,9.382-2.552,18.748-3.648,28.143-1.744,14.95-3.331,29.917-4.125,45.076,1.384-4.61,2.928-9.179,4.123-13.837,4.569-17.8,9.018-35.622,13.535-53.43.537-2.115.842-4.435,1.971-6.2.726-1.137,2.986-2.224,4.149-1.893,1.187.337,2.813,2.6,2.61,3.732a97.06,97.06,0,0,1-3.271,11.535q-9.1,29.181-18.218,58.356a2.039,2.039,0,0,0,.52,1.88c3.252-6.464,6.684-12.844,9.718-19.408,6.641-14.362,13.078-28.819,19.6-43.235.751-1.657,1.586-3.277,2.294-4.951,1.157-2.738,3.159-2.635,5.409-1.675,2.751,1.173,2.6,3.043,1.339,5.322-5.554,10.028-11.209,20-16.526,30.156-5.274,10.069-10.187,20.326-15.259,30.5l1.384.882c1.561-2.067,3.178-4.093,4.672-6.207q16.992-24.036,33.943-48.1c.629-.892,1.246-1.795,1.915-2.657,1.451-1.871,3.09-2.411,5.126-.78s2.621,3.379.83,5.578c-6.554,8.042-13.124,16.07-19.61,24.165q-6.465,8.07-12.7,16.317a201.294,201.294,0,0,0-13.036,19.128c1.542-1.481,3.053-3,4.631-4.437,6.438-5.88,13.118-11.513,19.288-17.66,7.465-7.436,14.465-15.335,21.746-22.958,2.761-2.891,5.695-5.623,8.643-8.326,1.963-1.8,3.911-1.5,5.745.4,2.056,2.123.712,3.6-.875,5.01-6.929,6.166-13.92,12.263-20.808,18.475-8.222,7.416-16.368,14.917-24.534,22.395a104.314,104.314,0,0,0-10.428,10.584c1.362-.852,2.762-1.649,4.081-2.562q28.911-20.014,57.84-40c1.346-.926,3.413-1.874,4.776-1.493,3.381.946,3.511,4.8.154,6.9-9.724,6.073-19.676,11.781-29.359,17.917-11.9,7.54-23.613,15.366-35.408,23.069l.566,1.063q26.271-12.423,52.541-24.844,8.636-4.077,17.3-8.086c2.409-1.112,4.739-1.2,6.02,1.594,1.494,3.259-1.2,4.2-3.339,5.053-13.86,5.522-27.835,10.763-41.619,16.469-9.167,3.795-18.078,8.208-27.1,12.344l.358,1.077c15.384-4.148,30.787-8.227,46.145-12.47,8.945-2.471,17.814-5.213,26.723-7.814,2.293-.669,4.361-.745,5.23,2.164.965,3.23-.968,4.262-3.561,4.808-10.679,2.249-21.4,4.3-32.029,6.774-14.852,3.456-29.632,7.223-44.442,10.858l.2,1.3q28.6-3.072,57.205-6.141,10.585-1.134,21.176-2.228c2.324-.24,4.476-.185,4.778,2.939.322,3.335-1.694,3.909-4.4,4.019-8.729.355-17.458.727-26.177,1.244-16.852,1-33.7,2.1-50.716,4.173a14.024,14.024,0,0,0,3.032.874q33.762,1.922,67.527,3.771a30.878,30.878,0,0,1,7.557.931c1.286.409,3.048,2.356,2.917,3.4-.151,1.2-2.182,3.089-3.357,3.059-5.075-.126-10.137-.829-15.2-1.35q-29.571-3.037-59.142-6.075a6.183,6.183,0,0,0-4.322,1l51.958,11.759q11.716,2.652,23.43,5.312c2.142.489,4.562.752,3.759,4.037-.764,3.122-2.961,3.434-5.5,2.7-11.367-3.274-22.668-6.784-34.079-9.894-13.46-3.668-27.009-7.011-40.874-9.633,2.685,1.133,5.363,2.28,8.055,3.395q30.492,12.63,60.989,25.25c.673.279,1.364.518,2.019.832,2.059.989,4.054,1.968,2.575,4.9-1.223,2.424-2.844,3-5.323,1.809q-12.294-5.93-24.66-11.712c-10.705-4.978-21.448-9.873-32.185-14.781a84.109,84.109,0,0,0-13.208-5.08c2.927,1.92,5.826,3.885,8.787,5.751q25.148,15.843,50.319,31.648c1.7,1.066,3.362,2.179,5.076,3.215,2.228,1.346,3.168,3,1.416,5.361-1.648,2.218-3.576,2.148-5.686.661-7.143-5.031-14.277-10.073-21.45-15.061q-13.86-9.638-27.778-19.194c-3.734-2.571-7.5-5.093-11.253-7.637l-.808.761c1.157,1.089,2.3,2.2,3.473,3.264q22.432,20.317,44.871,40.629c1.887,1.711,3.667,3.541,5.576,5.225,2.037,1.8,2.265,3.453.253,5.511-2.158,2.208-3.769,1.317-5.522-.452q-10.758-10.861-21.57-21.671c-5.249-5.268-10.42-10.617-15.77-15.782-5.965-5.758-12.093-11.347-19.124-17.921,6.13,8.5,11.278,16.123,16.914,23.361,9.835,12.63,19.974,25.022,29.977,37.521,1.675,2.093,4.164,4.048.42,6.636-3.412,2.359-4.938.073-6.515-2.29-6.567-9.835-12.881-19.848-19.728-29.484-7.318-10.3-15.132-20.244-22.729-30.344l-.936.558c7.5,14.437,14.964,28.892,22.515,43.3,3.8,7.252,7.736,14.434,11.665,21.618,1.278,2.335,1.91,4.473-1.068,5.935-3.081,1.511-4.728-.078-5.9-2.8-5.473-12.7-10.744-25.5-16.562-38.04a232.053,232.053,0,0,0-15.323-27.709c4.227,14.014,8.382,28.052,12.709,42.036,2.8,9.039,5.872,17.991,8.758,27,.661,2.065,1.553,4.463-1.5,5.447s-4.84-.4-5.562-3.453c-2.766-11.686-5.363-23.417-8.414-35.028-3.26-12.409-6.961-24.7-11.486-36.845,1.719,15.5,3.362,31.017,5.185,46.509,1.043,8.853,2.43,17.665,3.551,26.509.31,2.451,1.035,5.333-3.038,5.6-4,.265-4.3-2.342-4.444-5.3-.708-14.876-1.269-29.763-2.262-44.621a268.959,268.959,0,0,0-3.718-29.389c-.215,3.021-.445,6.041-.645,9.063q-2.154,32.632-4.314,65.265c-.178,2.639-.564,5.192-4.262,5.017-3.973-.189-3.567-2.881-3.229-5.468,1.2-9.2,2.6-18.384,3.69-27.6,1.782-15.134,3.378-30.29,4-45.657-1.8,6.277-3.744,12.517-5.371,18.839-4.481,17.41-8.807,34.859-13.27,52.273-.381,1.484-.993,3.436-2.114,4.055a4.837,4.837,0,0,1-4.476-.421c-.879-.76-1.15-3.028-.745-4.34,3.056-9.914,6.462-19.72,9.534-29.63,4.081-13.169,7.959-26.4,11.925-39.606l-1.174-.52c-.832,1.764-1.558,3.586-2.511,5.281-10.633,18.909-18.429,39.134-27.38,58.823-.451.992-1.033,1.923-1.535,2.893-1.263,2.443-3.484,3.149-5.364,1.516a5.373,5.373,0,0,1-1-4.986c4.022-8.155,8.481-16.092,12.7-24.15q10.816-20.643,21.523-41.343l-1.078-.646c-7.643,10.323-15.467,20.519-22.876,31.008C75.37,518.164,69,528.135,62.43,537.963c-1.642,2.456-3.58,3.564-6.362,1.539-2.995-2.181-1.157-4.151.287-5.972,6.786-8.558,13.744-16.98,20.457-25.593,7.7-9.876,15.2-19.9,22.167-30.61a12.418,12.418,0,0,0-2.454,1.4c-7.613,7.013-15.371,13.884-22.714,21.171C66.2,507.456,59.005,515.438,51.6,523.209c-1.505,1.58-3.176,3-4.682,4.579-1.954,2.05-3.669,1.858-5.526-.176-1.839-2.015-1.141-3.548.587-5.089,8.14-7.263,16.3-14.5,24.389-21.824,7.652-6.923,15.211-13.95,22.84-20.9,2.263-2.06,4.628-4.009,6.947-6.009Zm42.642-19.509c-.064-8.3-7.781-15.425-16.629-15.343-8.514.078-16.7,7.785-16.32,15.848.458,9.68,6.53,15.41,16.805,15.521C130.842,468.71,137.256,462.1,137.183,452.578Z"/><path d="M722.03,568.785a13.776,13.776,0,0,1,2.32-1.493c13.658-4.589,22.986-14.325,30.672-25.933,3.412-5.153,6.55-10.49,9.758-15.776,1.935-3.189,1.874-6.325.368-9.853q-19.4-45.446-38.527-91c-.753-1.783-1.339-3.636-2.369-6.462,7.7,0,14.524-.222,21.312.192,1.326.081,3.032,2.428,3.666,4.075,9.664,25.134,19.178,50.325,28.748,75.5.111.291.5.478,1.235,1.146,1.141-3.644,2.09-7.068,3.279-10.406q12-33.685,24.174-67.306c.506-1.387,2.274-3.211,3.535-3.276,6.478-.331,12.981-.154,20.223-.154-.795,2.38-1.257,4.079-1.919,5.7-13.779,33.7-27.267,67.517-41.55,101a215.6,215.6,0,0,1-17.95,33.02c-8.571,13.122-20.309,22.689-36.161,26.352-4.054.936-6.142.069-7.171-4.043C724.716,576.231,723.261,572.529,722.03,568.785Z"/><path d="M327.809,527.486c-17.036-.285-33.12-3.449-47.519-12.722-17.654-11.369-26.971-28.21-29.983-48.577-2.842-19.218-.491-37.775,9.337-54.907,9.021-15.724,22.649-26.033,39.579-31.7,20.953-7.01,42.211-6.762,63.374-.587,6.157,1.8,6.15,2.017,4.063,7.877-1.2,3.376-1.759,8.305-4.16,9.557-2.363,1.232-6.659-1.434-10.156-2.15-21.575-4.416-42.483-4.151-60.762,10.3-11.763,9.3-17.254,22.094-19.139,36.754-1.538,11.966-.657,23.606,3.731,34.861,8,20.522,24.006,30.508,45.074,32.734,12.882,1.361,25.845.689,38.2-4.093,2.967-1.149,4.7-.748,5.52,2.726,3.126,13.311,6.048,12.79-9.651,16.385C346.347,526,336.991,526.36,327.809,527.486Z"/><path d="M577.741,439.187c-1.451-4.09-3.1-7.721-3.881-11.53-.251-1.215,1.494-3.813,2.81-4.223,8.293-2.58,16.6-5.629,25.139-6.773,9.865-1.322,19.986-1.155,29.536,2.955,12.536,5.394,19.09,15.262,21.182,28.346a94.071,94.071,0,0,1,1,13.582c.223,17.28.286,34.562.409,51.844,0,.364.009.728.024,1.091.4,9.993.4,9.994-10.026,9.972-1.274,0-2.554-.106-3.82-.011-3.418.257-5.009-1.229-5.117-4.7a53.955,53.955,0,0,0-1.211-6.925c-1.782,1.54-2.98,2.68-4.281,3.686-14.265,11.019-29.958,13.757-46.629,6.781-22.4-9.376-21.546-37.69-8.561-50.362,9.726-9.491,22.039-13.125,34.989-14.994a175.744,175.744,0,0,1,18.471-1.4c3.386-.127,4.354-1.572,4.256-4.741-.336-10.881-8.057-18.924-19.955-20.048a55.731,55.731,0,0,0-29.2,5.14C581.436,437.551,579.974,438.185,577.741,439.187Zm55.068,41.836a37.1,37.1,0,0,0-.135-6.97c-.215-1.187-1.87-3.03-2.858-3.021-12.039.113-24.11.506-34.63,7.517-7.459,4.97-10.126,12.926-7.54,21.55,2.09,6.969,8.708,11.248,17.465,11.358C618.794,511.629,634.782,501.982,632.809,481.023Z"/><path d="M449.549,513.148c-3.279,2.439-6.18,4.852-9.322,6.892-15.216,9.88-37.78,9.069-49.595-1.678-14.639-13.316-12.791-37.35,3.865-49.408,9.4-6.806,20.216-9.82,31.55-11.169,5.408-.643,10.862-.908,16.3-1.3,4.886-.352,5.493-1.051,5.042-6.059-.935-10.364-8.3-17.566-19.424-18.685a52.305,52.305,0,0,0-29.663,5.4c-3.75,1.931-5.312,1.406-6.754-2.538-3.587-9.815-3.656-9.993,6.178-13.631A78.094,78.094,0,0,1,438,417.144c15.936,2.6,26.069,12.241,29.531,28.107a68.433,68.433,0,0,1,1.5,13.5c.26,17.645.259,35.293.381,52.94a36.825,36.825,0,0,0,.322,4.891c1.092,7.726,1.043,7.81-6.455,7.853-.728,0-1.456,0-2.184,0-9.383,0-9.376,0-10.836-9.214A13.327,13.327,0,0,0,449.549,513.148Zm-1.192-30.986c0-1.817.023-3.635-.005-5.452-.085-5.64-.376-6.2-5.791-5.8-6.687.5-13.562.756-19.925,2.6a42.474,42.474,0,0,0-15.052,8.153c-5.637,4.738-6.241,11.563-4.091,18.531,2.063,6.685,6.848,10,13.541,10.937C435.333,513.7,448.394,501.624,448.357,482.162Z"/><path d="M841.563,504.858c7.743,2.147,14.439,4.736,21.36,5.689a49.066,49.066,0,0,0,16.644-1.083c5.777-1.242,9.411-5.6,10.107-11.586.689-5.927-1.7-10.892-6.911-13.805-4.732-2.648-9.928-4.449-14.823-6.823-5.543-2.689-11.465-4.937-16.373-8.534-16.973-12.441-15.719-35.721,2.551-46.327,15.847-9.2,32.414-7.838,48.942-1.579,2.623.993,3.656,2.778,2.46,5.6-1.4,3.317-1.814,7.878-4.275,9.643-1.7,1.223-6.163-1.318-9.362-2.274-7.069-2.113-14.133-3.38-21.441-1.028-5.605,1.805-9.117,5.533-9.693,11.288-.539,5.378,2.323,9.573,6.869,12.138,4.254,2.4,8.926,4.048,13.347,6.167,5.886,2.821,12.173,5.107,17.471,8.8,18.48,12.868,15.765,41.387-4.854,50.637-17.8,7.984-35.794,6.335-53.586-.637-2.467-.967-3.472-2.383-2.472-5.026C838.925,512.415,840.2,508.667,841.563,504.858Z"/><path d="M960.946,392.938c0,7.113-.032,13.068.009,19.022.04,5.805.329,6.105,6.24,6.145,6.191.041,12.386.119,18.57-.091,3.325-.113,4.548,1.092,4.5,4.4-.188,13.475,1.353,11.4-11.107,11.516q-6.828.066-13.656.027c-2.787-.015-4.56.959-4.519,4.08.258,19.647.052,39.314.931,58.933.435,9.69,7.009,13.993,16.6,12.847,1.265-.151,2.526-.342,3.782-.553,3.947-.664,6.51.287,5.953,4.995a9.244,9.244,0,0,0,.028,1.637c.577,9.171.458,9.56-8.856,10.446a71.067,71.067,0,0,1-15.8.019c-14.214-1.857-23.01-12.509-23.348-28.438-.4-18.928-.3-37.867-.414-56.8-.045-7.166-.048-7.158-7.369-7.19-10.634-.046-9.8,1.218-9.8-10.133,0-5.7.055-5.655,5.795-5.715,12.418-.13,11.332,1.87,11.333-11.38,0-8.579-1.145-7.557,7.73-10.164C951.523,395.375,955.548,394.383,960.946,392.938Z"/><path d="M550.147,418.112a13.92,13.92,0,0,1,.724,2.209c1.36,13.611,1.356,13.608-12.219,13.616-4.188,0-8.377.068-12.565.029-2.922-.027-4.35,1.243-4.338,4.252.073,18.208.08,36.417.171,54.625a27.341,27.341,0,0,0,.712,4.859c1.664,8.8,6.981,12.866,15.885,12.2,9.58-.721,9.39-.689,11,8.914.7,4.2-.466,6.42-4.655,6.71-6.518.45-13.1,1.415-19.563.923-14.626-1.115-23.9-12.39-24.244-29.257-.389-18.93-.32-37.869-.439-56.8-.04-6.4-.026-6.366-6.262-6.464-12.119-.19-10.875,2.437-10.907-11.676-.007-3.1,1.409-4.3,4.325-4.125a3.826,3.826,0,0,0,.546-.011c3.917-.346,9.363.712,11.33-1.428,2.06-2.241,1.192-7.588.856-11.514-.429-5,1.629-7.3,6.327-8.271,4.58-.945,9.06-2.377,14.892-3.947,0,4.442,0,7.969,0,11.5,0,2.55-.019,5.1.023,7.648.092,5.609.371,5.953,5.842,6C535.028,418.163,542.466,418.112,550.147,418.112Z"/><path d="M684.71,447.181q0-35.5.006-71.006c0-6.869.041-6.875,7.049-6.891,3.277-.008,6.56.139,9.83-.011,3.607-.165,4.98,1.517,4.671,4.937-.049.542-.015,1.091-.015,1.638q.02,71.005.036,142.011c0,6.385-.136,6.53-6.267,6.572-3.641.024-7.287-.118-10.922.023-3.41.132-4.273-1.441-4.259-4.647.1-24.208.057-48.417.057-72.626Z"/><path d="M404.505,558.945c1.536-1.046,2.538-1.835,3.635-2.458,8.076-4.585,16.912-.577,17.95,8.586.671,5.924.332,11.983.1,17.968-.044,1.148-1.677,2.236-2.577,3.352-.783-1.224-2.158-2.409-2.242-3.679-.3-4.526-.1-9.083-.2-13.626-.134-6.552-2.431-9.7-7.012-9.778-5-.089-7.985,3.571-8.111,10.13-.084,4.361.146,8.734-.1,13.082-.076,1.329-1.268,2.595-1.949,3.89-.878-1.288-2.417-2.529-2.512-3.873-.322-4.522-.043-9.083-.156-13.624-.151-6.036-2.623-9.422-6.773-9.566-4.673-.163-8.107,3.647-8.3,9.468-.148,4.54.135,9.1-.193,13.624-.1,1.36-1.608,2.617-2.471,3.922-.726-1.258-2.021-2.487-2.084-3.777-.386-7.971-.487-15.957-.7-23.937-.064-2.4,1.3-3.934,3.247-2.543,2.153,1.539,3.365.789,5.22-.13C394.879,553.208,399.845,554.9,404.505,558.945Z"/><path d="M265.177,584.938a75.049,75.049,0,0,1-.06,7.9c-.256,2.208,1.511,5.614-2.432,5.906-.579.043-2.012-3.667-2.067-5.667-.24-8.722-.116-17.454-.128-26.182,0-1.454.039-2.912-.044-4.363-.333-5.763-.355-5.691,5.373-5.142.953.092,2-.718,3-1.139,6.636-2.818,13.874-1.679,17.612,2.779,4.673,5.572,5.2,15.829,1.131,22.076-3.377,5.185-10.133,7.474-16.866,5.66C269.154,586.348,267.662,585.766,265.177,584.938Zm0-13.79c-.027,7.276,3.763,11.916,9.766,11.953,5.794.035,10.352-5.3,10.5-12.293.14-6.535-4.4-11.554-10.4-11.506C269.069,559.35,265.208,563.983,265.18,571.148Z"/><path d="M644.97,574.791a77.953,77.953,0,0,1-.113,8.72c-.117,1.041-1.519,1.937-2.335,2.9-3.152-3.278-5.857.3-8.7.722-6.812,1.013-11.654-1.277-12.946-6.753s1.839-10.225,8.2-12.184c1.9-.583,3.981-.588,5.849-1.234a24.548,24.548,0,0,0,4.24-2.45c-1.237-1.615-2.205-4.18-3.774-4.625-2.454-.695-5.317.188-8,.119a17.9,17.9,0,0,1-4.066-1.064c.893-1,1.593-2.428,2.71-2.934,9.9-4.481,18.086.42,18.736,11.145.154,2.537.023,5.092.023,7.638Zm-13.455,8.187a7.924,7.924,0,0,0,8.023-7.348c.176-2.891-.812-4.419-4-4.334-4.88.132-9.479,3-9.715,6.329C625.618,580.435,628.259,582.917,631.515,582.978Z"/><path d="M301.09,557.026c4.321-.914,7.614-2.123,10.932-2.2a10.291,10.291,0,0,1,10.674,9.615c.453,6.328.281,12.711.1,19.063-.027.978-1.542,1.915-2.37,2.871-.711-1.078-1.975-2.127-2.036-3.241-.246-4.53-.068-9.082-.15-13.624-.118-6.555-2.6-9.894-7.443-10.176-5.146-.3-9.1,3.546-9.534,9.754-.315,4.523.026,9.092-.27,13.617-.084,1.273-1.389,2.465-2.133,3.694-.811-1.171-2.309-2.334-2.325-3.516q-.248-19.078,0-38.161c.013-1.09,1.333-2.165,2.046-3.247.834,1.119,2.3,2.192,2.389,3.365C301.271,548.955,301.09,553.1,301.09,557.026Z"/><path d="M450.911,565.686c-.567-4.758-3.055-6.605-7.077-6.4-1.964.1-3.893.87-5.857.975-1.026.054-2.094-.675-3.142-1.051.429-.9.629-2.313,1.325-2.628,4.613-2.088,9.465-2.911,14.235-.7,4.088,1.891,5.454,5.649,5.558,9.906.142,5.816.331,11.638.167,17.448-.031,1.084-1.629,2.123-2.5,3.182-2.8-2.551-5.313-.069-7.884.521-6.221,1.426-11.681-.743-13.264-5.448-1.9-5.638.889-10.8,7.491-13.1C443.471,567.164,447.205,566.578,450.911,565.686Zm-8.8,17.382c4.773.094,8.943-3.691,9.2-7.647.205-3.121-1.3-4.173-4.246-4.157-5.694.031-9.711,2.735-9.562,6.766C437.624,581.315,439.509,582.938,442.108,583.068Z"/><path d="M496.8,571.87c-.019,7.089,3.578,11.043,10.092,11.148,2.509.04,5.022-.77,7.548-.892.828-.04,2.323.781,2.4,1.364a3.251,3.251,0,0,1-1.357,2.574c-5.421,3.409-16.1,1.419-20.673-3.718-4.654-5.228-5.1-13.97-1.071-20.977,2.968-5.161,8.874-7.562,15.6-6.339,6.349,1.153,10.834,7.653,9.129,13.806-.324,1.169-2.454,2.474-3.845,2.591-4.157.35-8.361.114-12.546.164C500.3,571.612,498.531,571.774,496.8,571.87Zm16.627-4.7c-1.046-6.152-2.926-7.92-7.955-7.893-4.937.027-7.138,2.071-7.97,7.893Z"/><path d="M352.3,572.067c.275,3.612.746,7.226.715,10.835-.01,1.193-1.314,2.375-2.026,3.562-3.662-2.268-6.882.4-10.293.926-7.542,1.154-12.948-3.789-11.229-11.09.647-2.747,3.36-5.508,5.858-7.17,2.257-1.5,5.551-1.372,8.3-2.241a19.808,19.808,0,0,0,3.9-2.278c-1.041-1.563-1.821-4.121-3.18-4.478-2.664-.7-5.655-.076-8.5-.2a24.451,24.451,0,0,1-4.109-.872c1.019-1.07,1.882-2.792,3.089-3.081a29.137,29.137,0,0,1,9.085-.961c5.556.472,8.32,3.74,8.595,9.39.123,2.54.02,5.091.02,7.637Zm-8.269-.706c-5.548-.105-10.127,2.975-9.862,6.63.23,3.156,2.278,4.81,5.331,5.051a8,8,0,0,0,8.3-7.517C347.983,572.548,346.813,571.082,344.032,571.361Z"/><path d="M545.8,585.032c-2.548.79-5.058,1.925-7.679,2.31-6.234.918-11.115-2-12.055-8.217-1.023-6.764-.84-13.723-.9-20.6-.009-.928,1.617-1.87,2.486-2.806.681,1.11,1.868,2.181,1.957,3.337.39,5.062.305,10.16.689,15.222.436,5.757,3.455,9,7.678,8.729,4.681-.3,8.33-4.4,8.413-9.562.071-4.359-.194-8.736.15-13.069.124-1.561,1.589-3.015,2.442-4.518.732,1.417,2.036,2.809,2.1,4.255.333,7.614.4,15.243.426,22.867,0,1.1-.786,3.16-1.148,3.147A20.12,20.12,0,0,1,545.8,585.032Z"/><path d="M609.933,554.665a21.589,21.589,0,0,1,4.782.985c1.058.421,1.719,1.84,2.559,2.81-1.149.531-2.28,1.448-3.453,1.5-1.774.086-3.574-.617-5.369-.651-7.553-.145-12.254,5.02-11.92,12.95a11.525,11.525,0,0,0,13.106,10.749c1.254-.141,2.5-.865,3.707-.769a16.584,16.584,0,0,1,3.933,1.309c-.882.969-1.582,2.406-2.676,2.831-6.741,2.619-14.969.925-19.106-3.953-4.868-5.741-5.278-12.279-2.251-18.885C596.237,557.017,602.016,554.764,609.933,554.665Z"/><path d="M462.2,571.645c-1.2-10.588,7.931-19.845,22.694-16.129,1.052.265,1.777,1.831,2.654,2.792-1.156.521-2.286,1.389-3.474,1.476-1.587.117-3.212-.489-4.832-.579-4.748-.261-8.492,1.39-10.762,5.817a12.328,12.328,0,0,0,.843,13.394c2.855,4.1,7.031,5.336,12,4.429,2.015-.368,5.238-2.912,5.98.55.73,3.407-3.147,3.161-5.472,3.639C470.785,589.3,461.221,582.526,462.2,571.645Z"/><path d="M672.575,587.608a22.24,22.24,0,0,1-5.1-1.233c-1.058-.492-1.621-2.049-2.406-3.128,1.2-.424,2.4-1.193,3.6-1.188,1.591.008,3.383,1.256,4.723.828,2.19-.7,4.814-1.918,5.811-3.717.543-.979-1.6-3.895-3.076-5.4-1.189-1.21-3.253-1.517-4.836-2.392-3.518-1.947-6.407-4.559-5.725-8.989.693-4.5,3.874-6.947,8.24-7.452a19.862,19.862,0,0,1,6.95.583c1.073.268,1.845,1.741,2.753,2.668-1.279.569-2.526,1.5-3.845,1.617-1.736.153-3.629-.781-5.264-.409a5.106,5.106,0,0,0-3.4,2.87c-.295,1.154.723,3.056,1.74,4.026a15.959,15.959,0,0,0,4.716,2.611c6.286,2.742,8.212,5.963,6.913,11.774C683.429,584.87,679.027,587.625,672.575,587.608Z"/><path d="M568.091,555.292l7.344,1.414q0,.886,0,1.772a26.706,26.706,0,0,1-5.188,1.039c-2.829.021-3.891,1.276-3.839,3.97.07,3.624-.015,7.25,0,10.876.043,7.885.239,8.1,9.111,9.321-1.577,1.571-2.42,3.1-3.633,3.5-5.208,1.7-9.8-1.605-10.048-7.386-.27-6.32-.062-12.66-.062-19.129l-5.771-2.456q-.016-.653-.032-1.3l4.211-1.6,3.937-6.017Z"/><path d="M658.033,563.754c0,6.174.149,12.355-.113,18.518-.06,1.4-1.544,2.742-2.373,4.111-.851-1.342-2.42-2.673-2.441-4.028q-.289-18.518,0-37.039c.021-1.28,1.712-2.532,2.628-3.8.759,1.238,2.126,2.453,2.173,3.718.228,6.165.1,12.344.1,18.517Z"/><path d="M363.092,556.868c2.427-.51,4.847-1.063,7.285-1.512a9.533,9.533,0,0,1,3.726-.285,2.944,2.944,0,0,1,1.907,2.057,2.894,2.894,0,0,1-1.83,2.144c-7.191,1.176-7.735,6.856-8.247,12.291-.371,3.949.084,7.969-.089,11.946-.044,1-1.085,1.95-1.668,2.923-.927-.653-2.648-1.291-2.66-1.96-.176-9.485-.12-18.975-.12-28.463Z"/><path d="M585.074,571.42c0,3.991.161,7.994-.109,11.966-.071,1.048-1.477,2-2.27,3-.761-1.034-2.159-2.054-2.182-3.1q-.26-12.238.033-24.485c.024-1.022,1.458-2.011,2.239-3.015.75,1.038,2.083,2.042,2.149,3.122.254,4.157.1,8.339.1,12.511Z"/><path d="M587.4,547.9c-2.249,1.321-3.594,2.706-4.919,2.686-.931-.014-2.793-2.312-2.551-2.936a5.528,5.528,0,0,1,3.34-3.125C584.118,544.342,585.416,546.2,587.4,547.9Z"/></svg>