<svg id="Layer_1" data-name="Layer 1" xmlns="http://www.w3.org/2000/svg" viewBox="0 0 1000 1000"><path d="M283.15,529.36c-3.3,0-4.95.82-4.13,4.12v12.37c0,4.13-.82,8.25,0,12.38,0,2.47,1.65,4.94,3.3,4.94,4.95,1.65,9.07.83,13.2-2.47,5-5,5-9.9,5-15.67C300.47,534.3,293,528.53,283.15,529.36Z"/><path d="M463,549.15c0-1.65-1.64-2.47-2.47-3.3a11.6,11.6,0,0,1-2.47,3.3c-1.65,4.13-3.3,7.43-4.95,11.55-4.95,10.72-4.95,10.72,6.6,10.72h9.07c2.47,0,3.3-1.65,2.47-4.12C468.74,561.53,466.26,554.93,463,549.15Z"/><path d="M691.45,475.74c.83-21.45.83-42.89.83-64.34,0-3.3-2.48-5.77-6.6-5.77-4.13-.83-9.08-1.65-13.2-.83-5.77,1.65-7.42,2.48-7.42,8.25v61.86c0,4.13,1.65,6.6,5.77,7.43,5.77,1.65,10.72.82,15.67,0C689.8,481.51,691.45,479,691.45,475.74Z"/><path d="M207.26,545.85c-1.65,2.48-4.95,9.08-10.73,21.45-1.65,2.47,0,3.3,2.48,4.12h16.5c2.47,0,4.12-1.65,2.47-4.12C214.68,558.23,212.21,550.8,207.26,545.85Z"/><path d="M425,441.92c9.07,1.65,16.5-3.3,19-12.37,1.65-4.13,0-8.25,0-12.38-.82-8.24-10.72-13.19-19.79-11.54-.83,0-1.65,1.65-1.65,3.3v29.69C422.55,439.45,424.2,441.92,425,441.92Z"/><path d="M722.8,530.18c-9.9-1.65-19,5.77-20.63,10.72-6.59,14-7.42,28.87,0,42.9,5.78,14,22.28,16.49,33,5.77,11.55-10.72,9.9-32.17,5-47C737.64,536,729.4,530.18,722.8,530.18Z"/><path d="M500,0C223.86,0,0,223.86,0,500s223.86,500,500,500,500-223.86,500-500S776.14,0,500,0ZM822.6,404.8c-.82,0-2.47,0-3.29-.82a3,3,0,0,1-.83-2.48,1.77,1.77,0,0,1,1.65-1.65h43.72c7.42,0,4.12,4.13,0,4.95-8.25,2.48-8.25,2.48-8.25,10.72v57.74c0,8.25.82,9.08,9.07,9.08,5.78,0,12.38,1.65,18.15-2.48a22.58,22.58,0,0,0,10.72-14c.83-3.3,1.65-9.07,6.6-7.42,5,.82,2.48,5.77,2.48,9.07l-2.48,14.85c-1.65,6.6-2.47,7.42-9.07,7.42h-66c-2.48-.82-6.6-2.47-6.6-3.3-.82-4.12,3.3-4.12,5.77-4.12,4.13,0,6.6-2.48,6.6-6.6V413.87C830.85,407.28,830,406.45,822.6,404.8Zm-87.43,0c-6.6-.82-4.95-4.95,0-4.95h41.24c7.43,0,2.48,4.95-1.65,4.95-6.6.83-7.42,2.48-7.42,9.07v61.87c0,4.95,1.65,6.6,7.42,6.6h9.9c10.72.82,19-8.25,20.62-16.5a25,25,0,0,1,3.3-6.6c.83-.82,3.3-1.65,4.13-.82.82,0,1.65,1.65,2.47,3.3,0,2.47-.82,4.95-.82,7.42-.83,4.12-1.65,8.25-2.48,13.2-1.65,6.6-1.65,7.42-9.07,7.42H736a48.32,48.32,0,0,0-5.77-3.3,21.71,21.71,0,0,1,4.95-4.12c6.6-.83,7.42-2.48,7.42-9.08V413.87C742.59,407.28,741.77,406.45,735.17,404.8ZM486.06,432.85c7.42-22.27,21.45-30.52,47-34.65,9.9-.82,18.15.83,23.92,5.78,2.47,1.65,5,2.47,6.6-1.65,0-1.65.82-3.3,3.3-2.48,1.65.83,3.3.83,3.3,4.13a160,160,0,0,0,1.65,19.79c.82,4.13-2.48,5.78-5,5.78-1.65,0-3.3-2.48-3.3-4.13-3.3-13.19-16.5-20.62-28.05-19.79-9.07,0-18.14,8.24-21.44,15.67-5.78,15.67-4.95,30.52,0,45.37,4.95,13.19,19.79,19,31.34,14,5.78-2.48,10.72-4.95,14.85-9.07,1.65-2.48,5-4.95,7.42-1.65,2.48,2.47.83,5.77-1.65,8.24-6.6,5.78-14,9.9-23.09,10.73-15.68,1.65-30.52,0-43.72-9.9C487.71,469.14,480.29,450.17,486.06,432.85Zm-292-27.22c-.82-.83-2.47-.83-3.3-.83-.82-.82-1.65-2.47-2.47-3.3a6.22,6.22,0,0,1,3.3-1.65h19c6.6,0,14-.82,21.44,0,1.65,0,2.48.83,4.13,1.65a6.44,6.44,0,0,1-3.3,3.3c-8.25,2.48-8.25,2.48-8.25,10.72v19c0,2.47.82,4.12,4.12,4.12h19c3.3,0,4.12-1.65,4.12-4.12V412.23c0-4.13-1.65-6.6-6.6-7.43-.82,0-2.47,0-3.3-.82-.82,0-1.65-1.65-1.65-2.48.83-.82,1.65-1.65,2.48-1.65.82-.82,1.65,0,2.47,0h89.09c1.65,0,2.47.83,4.12,1.65-.82,1.65-2.47,3.3-4.12,3.3-6.6,1.65-6.6,1.65-6.6,8.25,0,18.15,0,36.29-.83,53.62,0,12.37,14,19,23.92,14,7.43-4.13,11.55-9.9,11.55-19,0-15.68,0-31.35.83-47,0-6.6-1.65-8.25-8.25-9.9-1.65,0-2.48-1.65-3.3-3.3a6.3,6.3,0,0,1,4.12-1.65h92.39a20.23,20.23,0,0,1,9.9,3.3,28.18,28.18,0,0,1,12.37,18.15c1.65,10.72-7.43,19-15.67,23.09-3.3,1.65-4.13,2.48-1.65,4.95,5.77,8.25,10.72,16.5,16.49,23.92,3.3,3.3,7.43,6.6,10.73,9.9.82.83,2.47,2.48,2.47,3.3-.82.83-2.47,2.48-3.3,2.48H454.72c-1.65,0-3.3-1.65-4.13-2.48-7.42-11.55-15.67-23.09-23.09-33.82-.83-1.65-2.48-1.65-4.13-2.47,0,.82-.82,2.47-.82,3.3v20.62c0,5.77,1.65,7.42,6.6,8.25a21.46,21.46,0,0,1,4.94,4.12c-1.64.83-3.29,2.48-4.94,2.48a305.82,305.82,0,0,1-38.77,0c-1.65,0-3.3-1.65-4.95-3.3,1.65-.83,3.3-2.48,5.77-3.3,4.95-.83,7.43-3.3,6.6-8.25V416.35c0-9.9-3.3-14-14-12.37-9.08,1.65-12.37,2.47-11.55,13.19,0,15.68,0,31.35-.82,47-.83,10.72-7.43,17.32-16.5,22.27-10.73,5-21.45,3.3-32.17,1.65-7.43-1.65-19.8-12.37-19.8-22.27,0-17.32,0-33.82-.82-50.32,0-1.65.82-3.29,0-4.94a14.22,14.22,0,0,0-4.95-4.95,20.28,20.28,0,0,0-14-.83c-4.95,1.65-6.6,2.48-6.6,8.25v61c0,5.77,1.65,7.42,6.6,8.25a3,3,0,0,1,2.47.82c1.65,0,2.47,1.65,3.3,2.48-.83.82-1.65,2.47-3.3,3.3-.83.82-2.47.82-4.12.82H246.85c-.82,0-2.47,0-3.3-.82s-3.3-1.65-3.3-3.3c0-.83,2.48-2.48,3.3-3.3,8.25-2.48,8.25-1.65,8.25-10.72V450.17c0-3.3-.82-4.95-4.12-4.95a72.65,72.65,0,0,1-19,0c-2.47,0-4.12,1.65-4.12,4.95v24.74c0,4.95,1.65,6.6,6.6,7.43,2.47,0,5.77.82,4.95,4.12a25.56,25.56,0,0,1-4.95,3.3H194.06c-1.65,0-3.3-.82-4.12-.82-2.48-1.65-2.48-4.13,0-5.78,1.65,0,2.47-.82,4.12-.82,4.12-.83,6.6-2.48,6.6-6.6V412.23C200.66,408.1,198.18,405.63,194.06,405.63ZM98.38,427.07c9.89-18.14,27.22-26.39,45.36-27.22,9.9,0,19-.82,23.92,4.13,3.3,1.65,5.78,2.47,7.43-1.65,0-.83,2.47-2.48,3.3-2.48.82.83,2.47,2.48,2.47,3.3a99.9,99.9,0,0,1,0,22.27c0,1.65-1.65,3.3-3.3,4.13a18.28,18.28,0,0,1-3.3-4.13C171.79,412.23,158.59,404,147,405.63c-9.07.82-17.32,5.77-21.44,16.49-4.95,11.55-4.13,23.1-2.48,35.47,1.65,8.25,4.13,17.32,13.2,22.27,11.55,5.78,25.57,1.65,33.82-7.42.82,0,1.65-1.65,2.47-1.65,1.65-1.65,4.13-3.3,6.6-1.65,2.48,3.3.83,5.77-.82,7.42-1.65,2.48-4.95,4.95-7.43,6.6-14.84,8.25-30.52,8.25-47,3.3-14-4.95-23.1-15.67-28-29.69C93.43,447.69,94.25,437,98.38,427.07Zm14,153.43c3.3,9.07,13.2,15.67,22.27,16.49,9.9.83,18.15-3.3,24.75-9.07.82-1.65,2.47-2.47,4.12-3.3a.81.81,0,0,0,.79.83h0a55.35,55.35,0,0,1-11.54,12.37c-6.6,4.95-14,3.3-21.45,4.12-15.67.83-24.75-8.25-32.17-19.79-6.6-9.9-5.77-19.8-3.3-28.87,3.3-11.55,10.72-20.63,23.1-26.4a47.93,47.93,0,0,1,32.17-.82,9.09,9.09,0,0,0,6.6,0c3.3-.83,4.95,0,5.77,3.3.82,5.77.82,10.72,1.65,16.49,0,.83-.83,2.48-1.65,2.48a3,3,0,0,1-2.47-.83,25,25,0,0,1-4.13-5.77c-3.3-9.9-21.45-15.67-30.52-10.72-10.72,5.77-14,14-15.67,23.92C109.1,563.17,109.1,572.25,112.4,580.5Zm186.42-12.38a94.14,94.14,0,0,1-15.67.83c-3.3.82-4.95,1.65-4.95,4.95a105.16,105.16,0,0,1,.82,15.67c0,4.12,1.65,6.6,5.77,7.42,1.65,0,2.48,1.65,3.3,2.48a6.22,6.22,0,0,1-3.3,1.65c-10.72.82-20.62.82-30.52.82-28,0-33,0-33.81-1.65,0-1.65,2.47-2.47,3.3-3.3,1.64-1.65,3.29-4.12,3.29-5.77a52.75,52.75,0,0,0-4.94-13.2c0-.82-2.48-.82-4.13-.82-7.42-.83-14,0-20.62-.83-3.3,0-5,1.65-6.6,5-.82,2.48-2.47,5.78-3.3,8.25-1.65,3.3-.82,5.77,3.3,7.42,1.65.83,7.42,4.13-.82,5a122.37,122.37,0,0,1-17.33-.82c-1.65,0-2.47-.83-3.3-.83,4.13-7.42,8.25-4.95,14-19,4.12-11.55,9.9-23.09,14.84-34.64,2.48-4.95,4.95-10.73,7.43-16.5.82-2.47,4.12-5.77,6.6-5.77.82,0,3.3,2.47,4.12,4.12,7.43,19,14.85,37.94,23.1,56.09,1.65,5.78,4.95,11.55,11.55,12.37,7.42,1.65,14.84,0,14-9.89-.83-15.68,0-32.17,0-48.67,0-6.6,0-6.6-7.43-9.9-.82,0-1.65-1.65-2.47-2.47,1.65-.83,1.65-1.65,3.3-2.48h32.17c10.72.83,19,4.95,23.92,14.85C319.44,550,311.19,566.47,298.82,568.12Zm54.44,33c0,.82-.83.82-1.65.82-9.07,0-18.15,0-26.4-.82-1.65,0-2.47-.83-4.12-.83a11.42,11.42,0,0,1,2.47-3.3c7.43-2.47,9.08-4.12,9.08-11.54V540.9c0-8.25-.83-9.07-9.08-12.37-9.07-3.3-3.3-4.12.83-4.95h26.39c2.48,0,7.43,3.3.83,5.78-5.78.82-6.6,3.29-6.6,9.07v50.32c0,4.94,1.65,7.42,5.77,8.24.83,0,2.48,0,3.3.83l1.65,1.65C354.91,600.29,354.08,601.12,353.26,601.12ZM408.52,597a11.45,11.45,0,0,0,3.3,2.48c-1.65.82-2.47,1.65-3.3,1.65a141.86,141.86,0,0,1-26.39,0c-1.65,0-2.48-.83-4.13-1.65,1.65-.83,2.48-2.48,3.3-2.48,5.78-1.65,7.43-3.3,7.43-9.07V534.3c0-4.12-1.65-5.77-5.78-4.94-2.47,0-4.95-.83-7.42,0-4.12.82-7.42,3.29-8.25,8.24,0,.83-1.65,1.65-2.47,2.48-.83-.83-2.48-1.65-2.48-3.3v-8.25c.83-3.3,3.3-4.95,6.6-4.95h52.79c4.13,0,6.6,2.48,7.43,6.6v7.42c0,.83-.83,1.65-1.65,2.48-.83-.83-2.48-.83-2.48-1.65-4.12-9.07-11.55-12.37-21.45-9.07-.82.82-2.47,2.47-2.47,4.12V587.1C401.1,593.69,402.75,595.34,408.52,597ZM576,583c-1.65,5.78-3.3,11.55-5.77,16.5-.83,1.65-3.3,1.65-5.78,2.47h-85a11.76,11.76,0,0,1-5.77-1.65c1.65-.82,2.47-2.47,4.12-3.3,3.3-2.47,3.3-5,1.65-8.24-.82-3.3-1.65-6.6-3.3-9.08-.82-1.65-3.3-2.47-5-2.47a99.9,99.9,0,0,0-22.27,0,6.79,6.79,0,0,0-4.95,3.3,47,47,0,0,0-3.3,9.9c-1.65,3.29,0,4.94,3.3,6.59,1.65,0,2.48,2.48,3.3,3.3-1.65,0-2.47.83-4.12,1.65a134.48,134.48,0,0,1-18.15-.82,3,3,0,0,1-2.47-.83,6.22,6.22,0,0,1,1.65-3.3c9.07-4.12,10.72-13.19,14.84-21.44,6.6-15.67,13.2-31.35,20.63-47,0-.82,0-1.65.82-1.65.83-.82,2.47-2.47,4.12-2.47.83,0,3.3,1.65,4.13,2.47,4.12,9.9,8.25,20.62,12.37,30.52,4.13,11.55,8.25,22.27,14,33,3.3,7.42,12.38,9.07,19.8,5.77,1.65-.83,2.48-3.3,2.48-5.77.82-18.15.82-36.3.82-54.45,0-4.12-2.47-5.77-6.6-6.59-1.65-.83-4.12-1.65-4.12-3.3s3.3-2.48,5-2.48h27.22c1.65,0,5,0,5,2.48,0,3.3-2.48,2.47-4.13,3.3-6.6.82-9.07,2.47-9.07,9.07v51.14c0,5.77,1.65,7.42,7.42,7.42h14c6.6-.82,11.55-3.3,14.85-9.07.83-2.47,2.48-4.12,4.13-6.6,0-.82.82-2.47,2.47-1.65C576.8,580.5,576,582.15,576,583Zm47-1.65c4.12,10.72,23.92,19,33.82,12.37,5-2.47,9.07-5.77,13.2-9.07,5.77-3.3,6.59.83,4.12,4.13a164.41,164.41,0,0,1-13.2,11.54,9,9,0,0,1-4.12.83c-26.4,1.65-31.35.82-40.42-8.25-7.42-6.6-11.55-14-12.37-23.92-1.65-17.32,5-30.52,19-40.42,11.55-7.42,23.92-7.42,36.29-4.12,2.48.82,5.78.82,8.25.82,4.12-1.65,6.6-.82,6.6,3.3.82,5.77.82,11.55,1.65,17.32,0,1.65-1.65,3.3-1.65,4.13-1.65-.83-3.3-.83-4.12-2.48-1.65-1.65-2.48-4.12-4.13-5.77a38.88,38.88,0,0,0-8.25-8.25c-3.3-1.65-6.6-3.3-9.07-3.3-14-1.65-23.1,5.77-26.4,20.62A54.91,54.91,0,0,0,623,581.32Zm15.67-91.56h-3.3c-2.47,0-5.77,0-5.77-3.3-.83-4.12,2.47-4.12,4.95-4.12,4.12-.83,5.77-2.48,5.77-6.6v-26.4c.83-2.47-.82-4.12-3.3-4.12-6.6,0-13.2.82-19.8,0a3.9,3.9,0,0,0-4.12,3.65,3.68,3.68,0,0,0,0,.47v26.4c0,4.12,2.47,6.6,6.6,6.6,2.47,0,5.77.82,4.95,4.12,0,.83-3.3,2.48-5.78,3.3H582.57c-.83,0-2.47-.82-3.3-.82a4.43,4.43,0,0,1-2.47-3.3c0-.83,1.65-1.65,2.47-2.48s2.47-.82,4.12-.82c3.3-.83,5.78-2.48,5.78-6.6V412.23c0-5.78-3.3-6.6-9.9-7.43-.82,0-2.47-.82-2.47-3.3,0-1.65,2.47-1.65,3.3-1.65h41.24a4.31,4.31,0,0,1,3.3,1.65c-1.65,2.48-2.48,3.3-4.95,4.13-4.13,0-6.6,2.47-6.6,6.6V434.5c0,3.3,1.65,4.12,4.12,4.12h19c3.3,0,4.95-1.65,4.12-4.95,0-6.6.83-14,0-21.44,0-5-.82-6.6-6.6-7.43-5-.82-5.77-4.12-1.65-4.95,1.65-.82,3.3,0,5,0h84.14c1.65,0,3.3-.82,4.12,0,.83,0,2.48.83,2.48,1.65s-.83,2.48-1.65,2.48c-1.65.82-2.48.82-4.13,1.65-4.12,0-5.77,2.47-5.77,6.6v63.51c0,4.12,1.65,6.6,6.6,6.6,1.65.82,4.12,2.47,4.12,3.3.83,3.3-2.47,4.12-4.95,4.12H687.33C670.83,488.94,655.16,490.59,638.66,489.76ZM742.59,596.17c-7.42,5.77-14.84,5.77-22.27,5.77H716.2c-15.67.83-25.57-7.42-31.35-20.62-11.55-25.57.83-50.31,26.4-57.74,11.55-3.3,23.09-.82,33.82,7.43C766.51,547.5,764.86,580.5,742.59,596.17Zm143.11-26.4h-.41a54.47,54.47,0,0,1-11.54.83c-3.3,0-4.13.82-4.13,3.3v14.85c0,4.12,1.65,6.59,6.6,7.42,1.65,0,2.48,2.47,4.12,3.3-1.64.82-2.47,1.65-4.12,2.47H822.6c-3.29,0-4.94-.82-6.59-4.12-5-8.25-10.73-14.85-16.5-22.27a18,18,0,0,0-4.13-6.6,11.66,11.66,0,0,0-5-1.65c-.82,0-1.64,2.47-1.64,4.12v18.15c0,4.12,1.64,6.6,5.77,6.6a17.75,17.75,0,0,1,4.12,3.3c-1.65.82-3.3,2.47-4.95,2.47H767.34c-1.65,0-2.48-1.65-4.13-2.47,1.65-.83,2.48-3.3,4.13-3.3,4.95,0,6.6-3.3,6.6-8.25V538.43c0-5.78-1.65-7.42-7.43-9.07-6.59-1.65-1.65-6.6,1.65-6.6h25.57c4.95,0,9.08,0,13.2.82,5,1.65,10.73,4.13,14,7.43,9.9,7.42,7.43,26.39-7.42,31.34-3.3.82-4.12,3.3-1.65,5.77,4.13,6.6,9.07,13.2,14,19.8,5.78,5.77,12.38,10.72,21.45,9.07,5.77-1.65,6.6-2.47,6.6-9.07V536c0-3.3-.83-5.77-5.77-6.59-5.78,0-4.13-6.6.82-6.6h33.82c9.07.82,16.5,5.77,22.27,13.19,0,.83.83,2.48.83,4.13v9.07A20.42,20.42,0,0,1,885.7,569.77Z"/><path d="M801.16,530.18c-7.43-1.65-12.37,0-12.37,9.07v15.68c-.83,3.3.82,5,4.12,4.12a21.45,21.45,0,0,0,9.07-2.47c6.6-2.48,8.25-5,8.25-14C810.23,536,806.93,532.65,801.16,530.18Z"/><path d="M873.75,530.18c-2.48,0-4.13.83-4.13,4.12v23.93c.83,1.65,1.65,4.12,3.3,4.12,7.42,3.3,15.67-2.47,17.32-10.72v-8.25C889.42,534.3,882,529.36,873.75,530.18Z"/></svg>