<svg id="Layer_1" data-name="Layer 1" xmlns="http://www.w3.org/2000/svg" viewBox="0 0 1000 1000"><path d="M500,0C223.86,0,0,223.86,0,500s223.86,500,500,500,500-223.86,500-500S776.14,0,500,0ZM382.33,610.18q-73.5,51.62-147.54,102.47c-5.8,4-13.27,5.49-21.38,8.71-8.27-3.57-17.25-5.71-24.12-10.74-17.69-13-26.63-31.94-28.17-53.18-1-14.43,6-26.71,20.2-33.31,53.27-24.84,106.42-49.9,159.91-74.24,8.75-4,19.4-7.7,28.39-6.35,18.32,2.76,24.27,18.33,28.15,34.57C401.37,593.19,393.1,602.62,382.33,610.18Zm10.8-173c-9.19,15.93-21.59,26.65-43.62,16.28-41.7-19.64-83.67-38.71-125.5-58.1-13-6-25.93-12.11-38.76-18.45-20.73-10.25-23.07-14.23-22.83-37-2.79-21.61,20.36-53.92,44.35-59.42a31.49,31.49,0,0,1,22.15,4.1c40.09,26.81,79.55,54.57,119.17,82.09,11.32,7.85,21.85,17.12,33.91,23.54C399.09,399.37,403.39,419.44,393.13,437.22Zm107.64,443.4c-10.14-2.48-21-3.44-30.27-7.78-13.78-6.42-22.37-18-21.15-34.2,2-25.86,4.54-51.67,6.76-77.52,2.05-23.72,4-47.44,6-71.16,1.15-13.72,2-27.47,3.64-41.13,1.55-12.85,12.41-21.51,29.57-24.67,12.63-2.33,28.32,4.78,35,16.84a42.47,42.47,0,0,1,5.28,16.43c3.6,40.6,6.61,81.25,10.06,121.86,1.21,14.23,2.49,28.49,4.85,42.56C556.81,859.44,539.44,879.92,500.77,880.62Zm51-723.72c-1,15.84-1.85,31.69-3.28,47.49-3.75,41.61-7.81,83.2-11.67,124.8-.59,6.33-.49,12.73-1.27,19-2.3,18.81-16.45,28.93-39.37,28.46-16.3-.34-29.45-13.63-31-30.29-4.85-52.12-10.05-104.2-15-156.31-.65-6.86-.67-13.77-1-20.65.11-13.67-2.58-28.16,11.75-37.32,17.2-11,35.64-16.67,55.87-10.68,7.49,2.22,14.57,6.27,21.37,10.27C547.52,137.23,552.39,145.79,551.73,156.9Zm64.82,235.44q76.8-53.83,153.68-107.6c13.41-9.38,29-6.52,46,8.27,12.36,10.72,22.34,32.74,22.31,49.19.73,16-5.82,27.07-20.81,33.95-55.84,25.66-111.4,51.94-167.21,77.67-18.76,8.65-32.77,2.49-44.35-18.31C597.63,420.05,601.7,402.76,616.55,392.34ZM800.23,717.69c-9.73,3.85-20.33,4.38-29.17-1.63-33.74-22.93-67.08-46.47-100.57-69.77C654,634.78,637.92,622.46,620.75,612c-29.5-17.94-19.24-52.92,2.43-65,7.57-4.22,14.84-5.44,22.74-2,20.33,9,40.71,17.86,60.92,27.1q49.85,22.8,99.49,46c15.54,7.25,31.37,14.44,32.91,35,.12,1.58.42,3.15.57,4.22C839.92,678.78,819.57,710,800.23,717.69Z"/></svg>