<svg id="Layer_1" data-name="Layer 1" xmlns="http://www.w3.org/2000/svg" viewBox="0 0 1000 1000"><path d="M468.1,514.65c1,.88,2,1.76,3,2.63,19,15.9,39,15.75,58.77.48q2-1.51,3.85-3.11Z"/><path d="M569.35,393.32c-.63-6.82-9.86-9.72-21.83-7.44-12.83,2.44-17.73,7.18-16.23,15h36.2C567.72,400.07,569.65,396.59,569.35,393.32Z"/><path d="M488.39,329c-28.36,3.54-57.05,28.22-55.75,48,29.42-4.64,45.26-2.69,52.32,9.24,6.52,11,5.31,23.64,1.67,37.19-8.3-7.76-16.33-5.91-25-3.49-4.57,1.28-10.8,1.24-14.78-.94-11.49-6.3-17.56,1.21-17.42,12.21.43,33,13.25,60.07,36.61,81.62l15.42-12.48A82.55,82.55,0,0,1,472.83,490h21.36l5.79-4.69,5.79,4.69h21.4a79,79,0,0,1-8.44,10.48l16.21,13.1c19.43-16.9,30.8-39,35.79-64.44A74.83,74.83,0,0,0,571,424.6c-.93-6.46-4.72-11.4-12.93-6.15-3,1.93-7.31,2.36-11,2.48-9.79.34-24.4,5.18-30.9,11.14-5.92-14.8-8.28-31-.32-43.6,12.87-20.29,34.49-15.72,54.69-10.92C564.22,345.26,527.61,324.11,488.39,329Z"/><path d="M266.6,743.38c-.06.61.07.32,0,0Z"/><path d="M260,371.57h0c-1-3.68-1.91-6.64-2.75-9.61-5.73-20.13-15.38-37.9-31.73-51.43-2.22-1.84-5.49-2.41-8.27-3.57-.79,2.91-2.37,5.85-2.25,8.72,1,24.15-4.21,47-14,68.92-11.59,26-28.17,48.65-46.41,70.23-1.71,2-3.18,4.26-6.27,8.43,9.51,0,17.24,1.78,23.67-.36,15.07-5,29.57-11.79,44.19-18.1,16.73-7.22,33.82-12.67,52-7.16,6.41,1.94,9-.07,12.26-4.93a268.66,268.66,0,0,1,58.34-63.27c2.18-1.7,5.16-2.36,7.77-3.51C314.5,350.34,287.06,355.61,260,371.57Z"/><path d="M500,0C223.86,0,0,223.86,0,500s223.86,500,500,500,500-223.86,500-500S776.14,0,500,0ZM751.75,490.83c.77,1.61,4.12,2.81,6.27,2.81,14.55,0,27.34,5.17,40.11,11.6,14.18,7.15,28.87,13.41,43.69,19.11,5.42,2.08,11.88,1.45,18,2.07a12,12,0,0,1,.76,2.78c.53,23.87-4.92,28.13-27.49,19.54-10.37-3.94-19.9-10.15-29.68-15.58-12.39-6.88-25-12.7-41.45-11.68,1.9,9.6,3.45,18.52,5.61,27.3.35,1.4,3.38,2.32,5.31,3.13,11.38,4.77,23.37,8.43,34.08,14.39,14.38,8,28.29,16.37,47.22,15-2,8.88-3.44,16.91-5.8,24.65-.55,1.82-4.64,4.26-6.3,3.76a200.74,200.74,0,0,1-25.62-9.48c-11.24-5.17-22-11.45-33.2-16.62-3.17-1.46-7.35-.69-11.41-1v21.93l66.39,35.31c-2.93,7.35-6.5,16.36-11,27.63-8-5.48-14.58-10.3-21.47-14.55-7.8-4.8-15.5-10.24-24-13.33-10.57-3.85-12.73-1.82-14.57,9-.59,3.44-.89,6.93-1.1,8.67,9.47,4.89,18.47,8.7,26.54,13.93s15,11.74,23.52,18.58L803,713.17l-41.58-30.24c.78-3.44,2.23-9.87,3.92-17.35a71.19,71.19,0,0,0-8.25-1.79c-17.89-1.62-33.18-9.19-46.7-20.56-2.16-1.82-4.52-5.1-4.45-7.64.43-15-6.19-27.31-14.12-39.08-7.16-10.62-14.54-21.13-22.44-31.21-11-14-12.65-29.37-8.91-46.28,4.26-19.31,9.7-38.68,10.93-58.25,2.31-36.91-12.45-67.95-38.82-93.56-1-1-2.46-1.58-4.91-1.33,1.79,2.79,3.53,5.62,5.39,8.37,24.06,35.62,30.45,73.9,18,115.29-3.32,11-5.59,22.29-8.23,33.47-3.93,16.6-.22,31.8,9.05,45.74,6.21,9.33,12.41,18.72,19.4,27.45,19.68,24.58,21,50.36,7.08,78-9,18-8.59,18.29,7.73,30.36,13.52,10,28.08,17.65,45,20.39,9.65,1.57,16.66-.85,19.14-10.93,2.17-8.76,7.87-8.95,13.46-4.88,9.23,6.73,17.62,14.59,27,22.52l-16.53,22L743.81,727l-9.09,16.47,4.36-3.65,24.56,27.36-23.28,21.46-19.74-21.35-10,12.91,16.78,21.35-22.72,17.84c-10.72-17.6-20.89-34.8-31.59-51.65-10-15.66-17.42-31.86-14.71-51.41-7.59,10.53-11.49,22-7.91,34.1,3.41,11.53,8.66,22.59,13.82,33.52,4.5,9.54,11,18.21,14.83,28,8.84,22.71,7.68,20.75-10.41,29.8-11.16-25.42-22.21-51-33.61-76.37-8.41-18.76-6.63-36.59,3.23-54.24,8.73-15.64,17.62-31.24,25.37-47.37,9.57-19.93,8.14-39.84-3.74-58.58-6.34-10-12.84-20-20.29-29.16-16.92-20.8-19.59-43.17-11.69-68.47,6.25-20,12.77-40.61,14.32-61.31,3-39.89-13.47-72.53-43.86-97.89l-2.5,1.2c1.45,2.37,2.76,4.83,4.39,7.08,27,37.36,32.38,77.66,17.13,121.1-5,14.15-9.12,28.62-12.82,43.15-4.82,18.86-.12,36.21,10.61,52,7,10.33,14.51,20.34,21.77,30.51,14.23,19.91,15.64,40.87,4.23,62.36-7.5,14.13-15.74,27.87-23.89,41.64-13.72,23.17-14.29,46.53-1.89,70.41q9.51,18.32,18.31,37a141.55,141.55,0,0,1,6.94,17.88c6.67,21.21,3.65,25.87-19.45,30.29.42-21.54-8-40.5-17.15-59.24-4.93-10.06-9.41-20.33-14.33-30.39-10.2-20.86-7.78-41,3.56-60.47,6.92-11.9,14.11-23.65,21.23-35.45,17.69-29.31,17.23-57.49-5.14-84.36-2.05-2.46-3.67-5.28-5.77-7.68-24-27.42-26.27-57.48-12.35-90.36,6.83-16.13,13.89-32.76,16.73-49.85,6.83-41.13-6.13-76.42-37.3-104.57-1.52-1.37-3.6-2.11-7.19-1.78,1.38,2.48,2.59,5.09,4.17,7.44q37.39,55.67,12.51,117.9c-5.57,14-11.35,27.86-16.39,42-10.27,28.79-5.89,55.43,12.79,79.71,4.69,6.09,9.26,12.29,13.59,18.63,12.89,18.85,14.52,38.8,4,59a454.86,454.86,0,0,1-23.35,39.7c-17.93,27.33-19.64,54.92-5.27,84.52,9.32,19.2,16.31,39.53,24.28,59.38a21.94,21.94,0,0,1,1.29,5.59c2.47,21-1.23,25.1-24.34,25.79,4.08-36.37-13-67-27.29-98.33-10.53-23.15-9.53-45.25,3.56-66.9,8.12-13.43,16.37-26.78,24.48-40.2,16-26.51,15.47-52-4.39-76.56-10.74-13.28-20.08-27.29-22.67-44.88-1.1-7.46-6.39-10.21-13.54-7.4-17.52,6.86-34.89,6.75-52.41,0-7.84-3-11.27,1.08-14.05,8.33C455.8,564.9,450,576.88,444.1,588.8c-2.09,4.24-5.53,7.83-8.42,11.67-15.7,20.81-17.45,42.89-5.19,65.71C437,678.3,445,689.61,451.6,701.67c5.84,10.6,11.73,21.37,15.78,32.72,5.59,15.66.71,30.81-5.2,45.63-8.63,21.63-17.68,43.15-24.91,65.25-3.28,10.06-2.64,21.4-4,34-6.3-1.46-13.69-2.64-20.6-5.13-1.81-.65-2.95-5.36-3-8.23-.36-17.39,5.53-33.27,12.46-48.85,6.24-14,12.67-28,18.64-42.12,8.54-20.21,7-40.16-3.34-59.24-6.53-12.1-14.26-23.56-21.06-35.52-4.42-7.77-9-15.62-12-24-5.81-16.48-4.85-32.83,4.82-47.91,4.66-7.27,9.58-14.41,14.91-21.21q30.21-38.46,12.76-84c-5.48-14.34-11.49-28.47-16.94-42.82-15.37-40.51-9.84-78.51,14.11-114.19,1.52-2.27,2.89-4.65,4.33-7l-1.62-1.9c-2.84,1.91-6.09,3.41-8.47,5.78-34.83,34.66-45.15,75.47-29.74,122.28,4.9,14.86,11.36,29.21,16.31,44.06,8,24.06,5.16,46.71-10.5,67.27-6.21,8.16-12.29,16.42-18.12,24.85-14.42,20.85-16,42.91-4.4,65.32,7.33,14.2,15.54,28,24.07,41.52,14.83,23.53,16.07,47.28,3.06,71.88-3.44,6.5-6.33,13.29-9.64,19.86-10,19.81-18.94,39.92-19.31,62.5-1.08.27-1.77.71-2.22.53-23.15-9.43-24.67-4.61-15.83-32.55,5.07-16,12.93-31.4,21.23-46.11,16.53-29.3,15-57.11-3.14-85a368.69,368.69,0,0,1-20.86-36.7c-9.62-19.31-8.31-38.44,3.69-56.5a252.56,252.56,0,0,1,16.27-22.62c20.49-24.44,23.78-51.6,13.73-81.1Q389,491.16,385,479.86c-16.15-44.94-11.06-86.84,17.83-125.37a8.1,8.1,0,0,0,1.85-6.34c-3.93,3.13-8.34,5.83-11.72,9.47-32.36,34.83-41.75,75.27-28.86,120.91,3.82,13.53,8.4,26.85,12.1,40.4,4.93,18.1,1.5,34.78-9.44,50.08-8.75,12.23-17.46,24.53-25.58,37.19-11.38,17.76-12.81,36.85-4,55.89a420.83,420.83,0,0,0,23.12,43.11c13.83,22.5,14.61,44.55,2.85,68.3-11,22.21-20.11,45.37-30.29,68.64-2.58-1.5-7.43-3.49-11.1-6.79-2.26-2-4.57-6.72-3.71-9.06,4.18-11.33,9.19-22.39,14.36-33.33C337.75,781.7,344.5,771,349,759.49c6.13-15.7,3.56-31.18-6.92-45.75,5.33,28.08-9.23,47-22.08,66.78-7.94,12.23-14.54,25.33-22.42,39.26L274.3,801.7,291,780.15l-9.95-13.09-19.81,21.88-20.55-20.1,25.61-26.13c-7.08-15.61-9.92-16.11-23-4.08-5.11,4.7-9.58,10.1-15,15.9L211.85,733c17.66-20.62,23.36-24.73,35.73-26,.43.46,1.09.86,1.25,1.4,5.11,18.06,11,22,34.21,13,15.45-6,29-17,43.29-25.84,4.76-3,4.85-6.89,2-11.45-22-35.22-17.87-67.85,9.71-98.22,23.24-25.58,27.08-54.71,15.61-86.61-17.28-48.06-10.46-92.52,19.2-134.62-3.32,2.86-7,5.37-9.91,8.63-31.27,35.43-40.24,76.07-28.11,121.59,2.72,10.19,5.25,20.45,7.52,30.74,2.6,11.77,1.06,23-5.94,33-8.05,11.57-16.28,23-24.36,34.56-9.09,13-16.44,26.61-16.81,43.17-.07,2.79-3.06,6.13-5.57,8.16-13.21,10.67-28.06,17.77-45.26,19.21a38.44,38.44,0,0,0-5.65,1c-.55.13-1,.77-2.11,1.74L240.4,683l-41.58,30.11c-4.42-7.63-9.17-15.82-14.33-24.74,18.95-6.51,27.81-29,51.75-27.72-1.2-6.74-1.59-12.79-3.62-18.23-.75-2-6.1-4.41-8-3.58a308.68,308.68,0,0,0-29.48,14.81c-6.76,3.82-13,8.62-20.68,13.83l-11.08-27.6,66.49-35.19V583.38c-10.65-2.19-19.66,1.75-28.28,6.53-6.15,3.41-11.72,7.83-17.76,11.43a81.88,81.88,0,0,1-14.54,7.33c-11.65,4.1-15.15,2-18-9.86-1.26-5.26-2.41-10.53-3.92-17.12,22.59,1.47,39.2-10.9,56.7-21.29,5.44-3.23,11.62-7,17.59-7.19,10.87-.41,14.32-5.52,14.89-15.26.3-5,2.09-9.92,3.44-15.9-10.25-2.46-19.39.5-27.84,4.42-11,5.1-21,12.39-32.14,17.13-9.23,3.92-19.37,5.86-29.25,8-5.52,1.19-9.05-1.06-8.89-7.79.14-5.64-.94-11.31-1.58-18,25.55,2.11,45.13-11.08,66.07-21.38,11.42-5.62,24.86-7.07,37.29-10.73,2.58-.76,5.83-2.38,6.91-4.54,4.3-8.54,7.87-17.46,12.32-27.64-11.86-3-23.27-3-34,.92-11.66,4.25-22.9,9.82-33.91,15.61-16.86,8.88-33.75,16.89-55.94,13.19,2.33-19.71,3.43-39.47,7.15-58.73,23.07-119.7,85.43-212,193.07-271.37C392.78,131.56,450.9,117.53,512,121.28c158.85,9.77,263.15,95,323.4,238.55,16.19,38.58,24.14,79.52,25.54,121.52.1,3.14,0,6.29,0,9.93-14.66,2.83-27.81-.38-40.34-6.41s-24.29-13-36.79-18.7c-13.91-6.36-28.56-8.58-44.87-4.7C743.38,471.79,747.26,481.46,751.75,490.83Z"/><path d="M819.79,460.36c10.08,4.08,20.67,6.13,32.42,1.52-2.19-3-3.68-5.42-5.48-7.55-34.68-41.19-62.64-85.19-60.35-142.11.26-6.47-3.79-7.37-7.93-3.57-6.32,5.82-13.34,11.6-17.55,18.86-7.89,13.61-14,28.26-21,42.91-25.46-14.65-53.07-20.59-84.25-6.78A299.18,299.18,0,0,1,723.8,436c1.07,1.59,5,2.58,7.06,2,16.54-4.8,32.38-2.32,47.78,4.19C792.45,448,805.89,454.74,819.79,460.36Z"/><path d="M474.31,402.77c-3.72-12.83-18.83-20.19-32.66-17-10.79,2.45-12.64,8.73-4.66,18.11C448.59,394.86,461.34,399.83,474.31,402.77Z"/><path d="M668.39,269.14c-24.77,1.27-45,10.2-63.88,23.24l-2.28-1.89c9.06-19,18.12-38.07,27.75-58.28-31.68,3.46-58.21,15.19-81.4,38-2.3-6-4.24-10.75-5.87-15.57-3.07-9.05-9.76-19.08-7.84-27s12.47-13.81,19.32-20.51c4.33-4.23,8.8-8.31,14.89-14-10.45-.93-17.93-2.95-25-2-19.23,2.62-28.53-6.34-32.87-24-2-8-6.19-15.39-10.47-25.62-6.36,15.5-11.85,27.74-16.36,40.33-2.23,6.23-5.7,8.26-12,8.46-12.32.39-24.63,1.53-39.07,2.5,3.26,3.6,5,5.73,6.92,7.59,7.9,7.5,16,14.75,23.73,22.47,1.9,1.91,4,5.71,3.3,7.8-4.14,13-9,25.72-14.06,39.6-23.12-22.65-49.82-34.62-81.57-38,9.84,20.65,19.07,40,28.31,59.42l-2,1.48c-19-13.39-39.41-22.82-64.82-23.67,2.64,4.09,4.44,6.62,6,9.29,10.53,18.28,21.54,36.32,31.25,55,4.17,8,7.34,10.06,15.88,5.65,31.39-16.2,65.09-24.88,100.27-26.84,45.65-2.54,89.12,6.72,130,27.3,7.15,3.6,10.19,2.6,14-4.59,10.48-19.76,22-39,33.16-58.36C664.89,274.77,666.2,272.72,668.39,269.14Z"/></svg>