<svg xmlns="http://www.w3.org/2000/svg" viewBox="0 0 1000 1000"><path d="M907.22,376.657c2.573-10,9.838-18.017,9.147-28.986-8.136-.438-13.176,4.362-17.774,8.615-12.714,11.758-25.508,23.548-37.082,36.4-32.77,36.383-58.68,77.523-80.75,122,2.726-1.93,5.553-3.732,8.164-5.808a549.171,549.171,0,0,0,85.454-85.4c3.966-4.912,7.916-9.109,15.9-6.467-.968,2.076-1.521,4.224-2.778,5.817-32.59,41.308-68.895,78.844-112.256,109.023-6.038,4.2-10.493,8.975-13.055,15.787-3.286,8.737-7.071,17.294-10.137,26.1-1.963,5.641-3.751,11.542-4.215,17.436-.305,3.876.67,9.31,3.247,11.617,3.975,3.56,8.385-.6,11.119-3.619a307.661,307.661,0,0,0,19.679-23.857c12.272-16.632,23.562-34.015,36.336-50.238,8.2-10.416,18.057-19.6,27.708-28.771a73.552,73.552,0,0,1,15.585-10.742c15.442-8.409,23.745-7.784,37.661,2,10.963-8.682,23.388-3.53,37.582-4.924-2.55,4.882-3.989,7.984-5.725,10.91q-27.576,46.463-55.185,92.9c-2.615,4.424-4.582,9.232-7.469,15.128,8.328,1.135,12.86-2.741,16.379-6.606,10.3-11.317,20.19-23.032,29.759-34.977,3.8-4.746,7.433-7.42,14.078-4.476-.56,1.785-.725,3.792-1.714,5.233-13.443,19.561-27.731,38.516-45.92,53.931-7.533,6.383-15.991,12.251-24.972,16.217-14.352,6.337-22.621.983-25.459-14.522a31.694,31.694,0,0,0-1.179-3.529c-2.629,1.988-4.825,3.871-7.234,5.426-6.7,4.322-13.079,9.459-20.321,12.548-14.839,6.331-26.708-.969-28.972-16.846-.276-1.94-.392-3.9-.761-7.683-3.792,3.612-6.382,6.51-9.4,8.861-6.553,5.108-12.823,10.9-20.108,14.684-16.484,8.555-32.124-.438-31.985-18.946.086-11.466,3.062-23,5.543-34.328,1.689-7.71,4.767-15.116,7.446-23.339-9.561-1.125-15.82,1.087-20.384,9.525A164.394,164.394,0,0,1,656.7,617.1c-7.666,5.709-16.1,11.032-25,14.3-16.316,6-29.19-2.46-30.009-19.791a76.666,76.666,0,0,1,4.023-27.43c13.69-40.671,39.907-72.018,75.105-95.824,6.914-4.676,15.736-7.5,24.06-8.895,12.735-2.141,22.107,5.729,21.667,18.58-.345,10.119-3.49,20.192-5.878,30.169-1.06,4.424-3.321,8.56-5.123,13.038,11.367.9,13.592-.214,18.115-9.008,16.954-32.964,34.868-65.389,57.926-94.555,25.287-31.986,52.582-62.139,85.3-86.842a147.96,147.96,0,0,1,20.4-12.559,40.95,40.95,0,0,1,13.277-4.115c13.343-1.825,19.587,5.078,16.592,18.3-1.243,5.489-3.457,10.766-5.349,16.1C919.447,375.221,914.5,377.3,907.22,376.657ZM892.355,499.9c-4.349-4.815-8.355-3-11.624-1.012a67.763,67.763,0,0,0-12.6,9.674,248.572,248.572,0,0,0-50,71.6,42.775,42.775,0,0,0-4.063,12.244c-.368,2.855.509,7.392,2.441,8.6,2.026,1.269,6.832.5,8.917-1.209,5.083-4.172,10.161-8.842,13.71-14.307,17.376-26.754,34.262-53.826,51.271-80.818A30.156,30.156,0,0,0,892.355,499.9ZM696.272,552.985l-25.624-21.858c-11.665,15.354-22.847,31.334-28.552,50.434-1.977,6.618-4.58,14.5,2.9,19.1,6.962,4.28,12.807-1.315,17.773-5.48C676.7,583.5,687.553,569.262,696.272,552.985Zm8.322-12.418c3.595-9.208,7.488-17.889,10.271-26.913,1.187-3.847.787-8.592-.209-12.6-1.291-5.2-5.428-7.162-10.845-5.992-9.888,2.135-20.1,13.883-20.255,23.384C683.4,528.158,690.493,536.317,704.594,540.567Z"/><path d="M433.077,411.335c11.4-5.95,22.88-2.625,36.326-3.25-2.709,5.2-4.3,8.679-6.259,11.94q-27.31,45.446-54.689,90.85c-2.632,4.39-6.2,8.635-5.143,14.787,6.632,1.41,10.644-2.65,14.141-6.252Q432.414,504,446.5,487.755c4.169-4.8,8.294-7.243,15.15-4.127a30,30,0,0,1-2.237,4.535c-14.461,19.651-29.847,38.549-48.634,54.244a89.951,89.951,0,0,1-21.82,13.808c-14.431,6.166-22.631.981-25.4-14.518a11.869,11.869,0,0,0-1.28-2.406,67.346,67.346,0,0,1-6.866,5.277c-7.417,4.352-14.54,9.768-22.555,12.42-17.206,5.693-28.187-4.214-26.061-22.336.38-3.242.934-6.463,1.779-12.227-4.535,4.081-7.311,6.671-10.183,9.148-11.652,10.043-23.488,19.937-38.454,24.66a52.775,52.775,0,0,1-16.637,2.563c-15.574-.314-26.588-11.619-27.673-27.348-1.021-14.817,3.373-28.325,9.79-41.355,2.611-5.3,5.376-10.526,8.358-16.346-8.32-.851-13.193,2.2-17.08,8.58-11.472,18.829-23.667,37.2-40.714,51.622a228.526,228.526,0,0,1-22.184,17A54.356,54.356,0,0,1,137.377,558c-12.886,3.2-24.565-3.628-27.646-16.544a56.9,56.9,0,0,1-.649-19.757,73.491,73.491,0,0,1,5.322-19.209,196.5,196.5,0,0,1,68.6-85.421,78.7,78.7,0,0,1,26.146-11.819c17.044-4.22,28.547,5.324,27.551,22.761-.617,10.794-3.885,21.436-6.074,32.72,1.3-.307,3.651-.245,5.2-1.329,9.516-6.673,19.048-13.351,28.191-20.517,10.217-8.009,19.521-17.28,30.2-24.569a60.176,60.176,0,0,1,22.868-9.28c19.347-3.4,31.734,11.378,25.895,30.017-2.928,9.345-7.525,17.827-15.647,23.861-4.384,3.257-9.037,4.564-13.744.8-4.778-3.823-4.182-8.77-2.037-13.638,3.055-6.936,7.382-12.7,15.266-14.7,3.475-.881,7.219-2.506,4.916-6.57-1.172-2.066-5.551-3.738-8.065-3.285-3.739.674-7.466,2.922-10.582,5.306-28.211,21.58-46.2,50.307-57.72,83.462a23.49,23.49,0,0,0-1.081,5.883c-.487,6.413-.888,12.926,5.562,17.014,6.231,3.948,12.927,2.479,17.885-1.393,11.757-9.183,23.8-18.4,33.767-29.382,14.315-15.763,26.517-33.423,40.343-49.659a327.992,327.992,0,0,1,29.3-30.021c6.073-5.512,13.475-9.769,20.766-13.682C412.623,403.293,423.527,401.917,433.077,411.335ZM347.188,518.458c-.782,8.414,3.939,11.947,9.807,8a56,56,0,0,0,15-14.319c13.816-20.335,26.966-41.125,40.2-61.849,4.472-7,8.619-14.228,12.546-21.55.912-1.7,1.206-5.081.185-6.124-1.2-1.224-4.6-1.651-6.236-.819-4.385,2.237-9.06,4.656-12.339,8.191-21.33,22.988-40.714,47.453-54.429,75.911C349.771,510.357,348.4,515.2,347.188,518.458Zm-139-43.936c-5.8-3.107-10.977-5.355-15.555-8.477-4.492-3.063-8.378-7.015-12.838-10.841-11.024,15.1-21.724,29.611-27.309,46.993a48.933,48.933,0,0,0-2.416,16.59c.282,7.011,5.342,9.754,11.952,7.368a29.2,29.2,0,0,0,7-3.765C186.2,510.045,196.983,492.586,208.189,474.522Zm17.965-40.508c-2.158-4.488-3.151-9.5-6.2-12.181-4.267-3.746-9.638-1.169-13.7,1.821a40.818,40.818,0,0,0-9.833,9.608c-8.125,12.137-.609,27.262,14.074,28.471,2.057.17,5.5-1.5,6.265-3.217C220.218,450.731,222.94,442.621,226.154,434.014Z"/><path d="M841.561,372.468c-7.55,7.931-14.19,14.87-20.787,21.852-2.934,3.105-5.933,2.222-9,.321-9.068-5.626-18.022-11.447-27.224-16.844-13.216-7.751-26.377-15.656-40.009-22.618-10.246-5.232-21.387-6.966-33.186-3.488-.563,6.246-.436,12.31-1.74,18.048-7.061,31.063-23.2,56.685-48.5,75.926-6.028,4.584-14.327,7.366-21.933,8.408-11.175,1.532-18.574-6.053-18.123-17.389a56.315,56.315,0,0,1,3.811-17.457c8.407-22.073,23.032-39.665,41.035-54.568,7.157-5.923,14.7-11.383,21.9-18.965-4.539.559-9.548.079-13.522,1.881-9.967,4.522-20.074,9.191-29.049,15.364-47.95,32.983-83.528,77.109-112.738,126.849-13.641,23.227-23.548,47.895-28.486,74.379a64.985,64.985,0,0,0-.669,20.839c2.665,18.42,17.728,27.6,35.3,21.37a68.773,68.773,0,0,0,19.85-11.265c21.119-17.093,37.339-38.131,46.783-63.766a84.914,84.914,0,0,0,4.91-24.3c.533-9.519-6.078-13.369-14.53-8.728-4.814,2.643-9.783,6.459-12.565,11.035-5.489,9.028-9.411,19-14.184,28.478-1.573,3.123-3.169,6.706-5.791,8.746-10.74,8.356-21.868,16.215-32.892,24.2a32.409,32.409,0,0,1-4.118,2.182c-.6-1.161-1.222-1.789-1.132-2.289,5.427-30.253,15.643-58.148,41.341-77.354a83.454,83.454,0,0,1,23.861-12.189c17.9-5.8,30.248,3.154,31.7,21.989a37.683,37.683,0,0,1-.7,10.927c-11.062,49.714-38.345,87.483-83.831,110.965-8.615,4.448-19,6.646-28.77,7.438-22.286,1.807-39.337-10.473-46.53-31.7a69.961,69.961,0,0,1-2.545-37.538c3.17-14.594,6.271-29.622,12.424-43.079,30.63-66.985,75.509-122.308,137.64-162.8,15.149-9.872,31.253-18.027,48.738-22.908,14.407-4.022,28.8-5.474,42.639,2.8,2.086,1.246,5.819.864,8.384.012,31.8-10.564,61.734-6.725,90.222,10.751C812.857,356.148,826.526,363.732,841.561,372.468ZM699.1,356.544c-3.292.825-4.352.85-5.144,1.324-25.811,15.442-45.482,36.579-58.554,63.7a33.347,33.347,0,0,0-2.885,10.52c-1.085,9.452,3.8,13.389,12.484,10.016a40.548,40.548,0,0,0,10.309-5.953c20.723-16.395,35.185-37.061,41.632-62.888C698.19,368.258,698.3,362.971,699.1,356.544Z"/><path d="M430.653,637.671c-1.689-.842-3.433-1.592-5.059-2.542-20.69-12.079-42.991-17.49-66.948-17.219-14.523.165-26.73,4.73-36.636,15.383-1.318,1.417-2.862,2.624-4.556,4.159a24.8,24.8,0,0,1-3.1-3c-12.187-17.358-29.786-24.9-50.01-27.9-20.787-3.085-41.353-.833-61.633,3.324-30.044,6.159-59.78,13.859-89.882,19.686a168.07,168.07,0,0,1-40.737,2.831C32.359,630.207,6,601.376,5.058,561.672,4.14,522.879,16.5,488.138,36.52,455.813A318.764,318.764,0,0,1,141.873,350.836c14.563-8.953,30.106-15.921,47.047-19.057a93.151,93.151,0,0,1,17.871-1.553c17.056.187,28.188,12.836,25.638,29.593-1.814,11.922-7.957,21.888-17.262,29.585-4.209,3.482-9.2,5.824-14.725,2.541-4.276-2.539-5.756-8.85-3.45-15.414,2.937-8.361,8.427-14.346,17.3-16.516,3.6-.879,6.458-2.148,5.85-6.518-.576-4.139-3.092-6.952-7.229-6.987-4.595-.039-9.626-.14-13.708,1.584-8.849,3.736-18.032,7.522-25.646,13.207C118.687,402.273,79,454.752,56.162,519.538a115.337,115.337,0,0,0-6.6,43.269c1.183,29.519,18.721,49.2,48.357,51.023a185.873,185.873,0,0,0,46.689-3c33.027-6.475,65.6-15.263,98.545-22.175a510.627,510.627,0,0,1,53.379-7.934c45.067-4.559,84.042,10.182,118.2,39.042,6.007,5.077,11.834,10.368,17.745,15.56Z"/><path d="M994,332.927c-16.054,47.725-96.965,92.478-138.52,76.679a138.871,138.871,0,0,1,21.628-24.391c1.27-1.143,3.732-1.372,5.632-1.343,31.352.484,58.452-11.437,83.535-28.875,7.629-5.3,14.552-11.62,21.808-17.46C989.742,336.2,991.441,334.918,994,332.927Z"/><path d="M520.811,410.944c-4.709,7.519-9.3,15.116-14.227,22.489a7.126,7.126,0,0,1-4.888,2.847c-8.5.288-17.013.132-28.121.132,6.178-9.87,10.924-17.725,16.019-25.346a7.16,7.16,0,0,1,5.016-2.684c8.232-.278,16.479-.124,24.72-.124Z"/><path d="M916.122,623.408c-.1,5.5-5.682,10.633-11.311,10.41a10.941,10.941,0,0,1-10.1-10.4,10.6,10.6,0,0,1,10.6-10.85C910.95,612.5,916.224,617.8,916.122,623.408Z"/></svg>