<svg id="Layer_1" data-name="Layer 1" xmlns="http://www.w3.org/2000/svg" viewBox="0 0 1000 1000"><polygon points="811.66 515.5 866.09 515.5 838.88 464.34 811.66 515.5"/><path d="M429.91,465.65c-2.36-2.14-5.69-2.69-15.24-2.69H346.54c-9.58,0-13,.55-15.24,2.69-2.18,1.92-3.09,4.35-3.09,12.7v43.06c0,8.35,1,10.78,3.09,12.7s5.66,2.69,15.24,2.69h68.1c9.58,0,12.91-.62,15.23-2.69s3.13-4.35,3.13-12.7V478.35C433,470,432.05,467.57,429.91,465.65Z"/><path d="M500,0C223.86,0,0,223.86,0,500s223.86,500,500,500,500-223.86,500-500S776.14,0,500,0ZM271.91,570.75H200.83L116.18,463.51V570.75H74.24V429.55h72.49L230,535V429.55h42Zm200.56-43.68c0,19.59-3.52,26.41-9.32,32.91-8.86,9.65-21.77,12.55-46.77,12.55H344.79c-24.88,0-37.87-2.9-46.76-12.55-5.81-6.53-9.29-13.24-9.29-32.91V472.65c0-19.59,3.48-26.38,9.29-32.87,8.89-9.65,21.88-12.59,46.76-12.59h71.59c25,0,37.91,2.9,46.8,12.59,5.81,6.53,9.29,13.24,9.29,32.91Zm140.84,43.68-80-73.65v73.65H489.56V429.55h43.79V497.1l74-67.52v0h57.87l-78.07,66,88.05,75.17Zm113.78,0H683.27V429.58h43.82Zm167,0-13-24.59H796.39l-12.81,24.59h-48.4l77.65-141.2h54.49L945,570.75H894.13Z"/></svg>