<svg id="Layer_1" data-name="Layer 1" xmlns="http://www.w3.org/2000/svg" viewBox="0 0 1000 1000"><path d="M500,0C223.86,0,0,223.86,0,500s223.86,500,500,500,500-223.86,500-500S776.14,0,500,0ZM657.31,527.22a448.93,448.93,0,0,0,24.55-76.65c4.12-18.37,7.29-37,10.71-55.48,1.19-6.46,2-7.81,7.73-7.85,18.15-.12,36.3-.05,54.45,0a20,20,0,0,1,3.9.78c2.17,17.33-18.53,97.93-33.74,132.46-10,22.83-21.12,45-37.5,64.7a20.45,20.45,0,0,1-3.66-3.29c-8.62-13.77-17.07-27.63-25.72-41.37A13.13,13.13,0,0,1,657.31,527.22Zm-187.41-160A89,89,0,0,1,532.44,379c15.81,9.57,28.22,22.78,39,37.54A432.69,432.69,0,0,1,614.28,492c5.48,12,11.12,24,17.06,35.75a12,12,0,0,1,0,11.94,247.47,247.47,0,0,1-24.9,41.07c-1.37,1.8-3,3.39-5.08,5.7a104.39,104.39,0,0,1-6.88-8.93c-8.57-14.09-17.75-27.89-25.28-42.52-12.4-24.11-23.37-48.94-35.55-73.16-11.77-23.41-24.92-46.09-42.13-66C484.72,388,477,381,469.68,373.69c-1.28-1.28-2.65-2.48-4.62-4.31A23.73,23.73,0,0,1,469.9,367.25Zm-44.3-3.79a25.4,25.4,0,0,1-2.7,3c-7.5,6-15.08,11.94-22.56,18-2,1.62-3.82,2.86-6.15.75-7.62-6.88-15.25-13.77-23.36-21.11C382.68,357.58,414.87,357.26,425.6,363.46Zm-84.37-1.06c-2.22,2.23-3.46,3.71-4.93,4.91-6.91,5.64-13.92,11.14-20.8,16.81-2.2,1.82-4.09,3.05-6.72.7-7.18-6.41-14.46-12.7-21.68-19.07a15.14,15.14,0,0,1-1.34-2.78A131,131,0,0,1,341.23,362.4ZM140.57,574.32c-2.12,10.63-3.78,21.36-5.67,32-.88,5-1.37,5.67-6.29,5.71q-26.9.18-53.78,0c-5.92-.05-6.85-1.26-5.65-7.55,3.34-17.6,6.38-35.28,10.51-52.7a464.46,464.46,0,0,1,22.7-70.66c9.87-23.85,21.59-46.74,38-66.79,12.62-15.4,26.9-29.07,45.22-37.81a88.07,88.07,0,0,1,39.57-9.32c4.48.06,9,0,13.44.11a49.54,49.54,0,0,1,6.39,1.18c-2.14,2.08-3.3,3.44-4.69,4.53-21.66,17-38.3,38.18-51.71,62.1C164.26,478.67,150.23,525.74,140.57,574.32Zm80.54,31c-.85,5.7-1.91,6.76-7.79,6.85-9,.14-17.92,0-26.88,0-8.72,0-17.44.11-26.16,0-6.53-.1-7.25-1.09-6.21-7.7a557,557,0,0,1,33-122.65,281.31,281.31,0,0,1,36.65-65.93,136,136,0,0,1,42.08-37.14c4.11-2.3,7.35-2.32,11,.54,5.7,4.54,11.77,8.66,17.22,13.48,5.72,5.06,5.34,5.65,1.06,11.63-5.89,8.23-11.83,16.47-17.14,25.08a336.2,336.2,0,0,0-29.62,64,583.2,583.2,0,0,0-24.92,96.41C222.43,595,221.88,600.2,221.11,605.32ZM342.18,472a461.26,461.26,0,0,0-25.49,80.13c-4,17.46-6.77,35.17-10.07,52.78-1.35,7.14-1.46,7.37-8.54,7.4q-26.18.09-52.36,0c-6.95,0-7.6-.71-6.61-7.22,7.72-50.87,20.63-100.27,43.52-146.55,6.76-13.67,15.7-26.27,23.76-39.28a73.13,73.13,0,0,1,5.86-7c4.3,6.08,8.1,10.87,11.27,16,6.15,10.05,11.76,20.43,18,30.45A13.11,13.11,0,0,1,342.18,472Zm-19.39-73c2.58-5.21,7.69-8,12-11.41a157.78,157.78,0,0,1,17.09-11.18,9.1,9.1,0,0,1,6.57-.82c7.26,2.3,22.88,15.41,27.47,22.44l-31.91,48.85ZM532.14,630.28a25.94,25.94,0,0,1-5.82,1.5c-12.7.29-25.39,1.08-37.91-2.56a93,93,0,0,1-37.14-21.08c-20-18.2-35-40.18-47.31-63.91-12.61-24.25-24.17-49-36.22-73.57a9.27,9.27,0,0,1-.66-8.74,242.13,242.13,0,0,1,26.56-44.15,38.84,38.84,0,0,1,3.6-3.43,36.33,36.33,0,0,1,4.83,5.09c7.66,12.16,16,24,22.56,36.73,14.16,27.43,27.29,55.39,41,83a337.43,337.43,0,0,0,37.76,60.48,176.81,176.81,0,0,0,26,26.78,21.17,21.17,0,0,0,3.64,2ZM551.46,620a133.75,133.75,0,0,1-25.26-21.37c-19-20.69-32.88-44.74-45.25-69.72-11.5-23.23-22.69-46.62-34.15-69.86a342.35,342.35,0,0,0-33.22-54.18c-4.14-5.53-4.15-6.66,1.35-10.84,6.92-5.27,14.14-10.15,21.24-15.18a8.63,8.63,0,0,1,10.48.05,122.52,122.52,0,0,1,31.19,27.37c21.24,26.49,37.17,56.09,51.27,86.8,13.27,28.92,26.78,57.74,44.25,84.44,4.79,7.28,10,14.29,15.52,22.26a31.59,31.59,0,0,1-4.33,4.91q-10.78,8-21.83,15.58A9.42,9.42,0,0,1,551.46,620Zm21,17a30.45,30.45,0,0,1,3.26-4c7.5-6,15.12-11.91,22.57-18,2.31-1.89,4.19-2.69,6.73-.42,7,6.24,14.13,12.34,21.19,18.55a14.75,14.75,0,0,1,1.6,3A136.87,136.87,0,0,1,572.47,637Zm65.68-14.5q-11.55-8.68-22.9-17.6c-2.46-1.93-3.54-4.22-1.13-7.23a262.29,262.29,0,0,0,28.16-43.09c.44-.85.79-1.75,1.19-2.62l1.95.79c1.27,1.94,2.55,3.88,3.82,5.83,8,12.18,16,24.39,24.11,36.51,3.31,4.94,3.79,5.66-.87,9.35-8.1,6.4-16.67,12.21-25.11,18.17A7.34,7.34,0,0,1,638.15,622.51ZM658,636a11.09,11.09,0,0,1,1.55-2.12c9.06-7,18.16-14,27.88-21.45l26,22.15C705.69,641.2,671.19,642.17,658,636Zm62.88-16.83c-5.8-4.43-11.66-8.82-17.17-13.6-4.4-3.83-4.29-4.51-.64-9.35a292.63,292.63,0,0,0,30.73-49.92,444.63,444.63,0,0,0,28.3-76.89,580,580,0,0,0,15.49-74.74c.84-6.3,2-7.51,8-7.54q26.52-.17,53.06,0c5.36,0,6.55,1.17,6.58,5.36-.94,5.85-1.8,11.92-2.91,17.94-7.2,38.81-17.18,76.84-32.8,113.22-10.65,24.83-23.66,48.28-41.62,68.65a134.83,134.83,0,0,1-33.2,27.25C729.8,622.37,725.31,622.53,720.87,619.14Zm177-102.83c-10.53,25.88-23.29,50.57-41.39,72.1-15.6,18.55-33.93,33.45-57.63,40.44-13.67,4-27.62,6.13-41.9,3.43-1.12-.21-2.22-.61-5.08-1.4,5-4.24,8.87-7.61,12.85-10.79,15.87-12.72,27.89-28.71,38.56-45.75,20.08-32.06,33.18-67.11,43.4-103.35a555,555,0,0,0,15.88-75.37c1.09-8,1.88-8.66,9.81-8.68q25.47-.06,50.94,0c2.29,0,4.57.37,7.66.63-.26,3.35-.28,6.1-.72,8.78C923.47,437.42,913.57,477.66,897.86,516.31Z"/></svg>