<svg id="Layer_1" data-name="Layer 1" xmlns="http://www.w3.org/2000/svg" viewBox="0 0 1000 1000"><path d="M500,0C223.86,0,0,223.86,0,500s223.86,500,500,500,500-223.86,500-500S776.14,0,500,0ZM359.27,645.38h-195c-1.62,0-3.24.12-4.86.18V354.06c1.62.06,3.24.17,4.86.17q94.9,0,189.81,0h5.17v63.34h-4.3L251,417.65c-10.55,0-10.62,0-10.7,10.3-.09,11.12-.05,22.23,0,33.34,0,6.09.47,6.62,6.55,6.64q48.21.17,96.4.21H348v63.34h-4.43q-48.21.09-96.4.21c-6.35,0-6.76.42-6.82,6.76q-.15,18.34,0,36.71c0,6.26.51,6.6,6.91,6.68q14.05.17,28.13.19,39.57,0,79.14,0h4.73Zm252.18-228c-1.19.06-2.39.17-3.59.18l-60,.2c-5.78,0-5.77,0-5.78,6Q542,532.38,541.87,641v4.06H462v-3.9q0-56-.07-112,0-53-.13-106c0-5.38,0-5.39-5.25-5.39H392.33V354.49H611.45Zm229.55.19h-4.5q-53.64.09-107.27.21c-6.85,0-7.18.42-7.2,7.13q0,18.56,0,37.09c0,5,.46,5.65,5.5,5.83,7.87.28,15.75.28,23.63.29q36.95,0,73.89,0h4.69v63.34h-4.53q-48.19.09-96.39.21c-6.37,0-6.64.29-6.66,6.82Q722,589.45,722,640.39v4.72H642.24V354.41H841Z"/></svg>