<svg xmlns="http://www.w3.org/2000/svg" viewBox="0 0 1000 1000"><path d="M772.628,563.377q-85.812,0-171.623.01c-4.486,0-9.025-.3-13.447.263-11.779,1.5-19.163,9.088-20.369,21.018-.561,5.558-.295,11.206-.295,16.812q-.009,167.417.007,334.834c0,5.047.236,10.117-.154,15.137-1.2,15.4-9.067,24.693-24.11,25.083q-46.236,1.2-92.522.043c-14.271-.35-21.049-8.464-21.428-22.826-.384-14.572-.072-29.162-.072-43.744q0-149.749,0-299.5c0-4.487-.043-8.974,0-13.46.22-24.468-9.776-34.06-34.745-33.929-113.851.6-227.707.264-341.562.263-4.487,0-8.986.175-13.458-.093-15.091-.9-23.211-7.958-23.513-22.923q-.913-45.408.066-90.847c.317-14.179,9.236-22.58,23.292-24.2,5.543-.639,11.2-.318,16.811-.318q165.732-.007,331.465.01c6.169,0,12.339-.061,18.508-.123,11.129-.112,18.067-6.174,20.549-16.426a100.137,100.137,0,0,0,2.478-23.245q.234-169.939.136-339.881c.007-25.3,9.5-34.641,34.256-33.9q37.779,1.125,75.556,2.279c18.7.547,27.716,9.071,28.4,27.807.448,12.322.042,24.674.042,37.013q0,154.8.023,309.595c0,5.608-.234,11.245.24,16.817,1.073,12.616,7.645,18.948,20.521,19.858,5.583.4,11.212.178,16.82.178q168.258.018,336.516.03c31.841.009,37.092,5.292,37.126,37,.027,24.678.14,49.356-.031,74.033-.144,20.873-6.407,27.25-27.122,27.293Q861.8,563.518,772.628,563.377Z"/><path d="M213.679,340.594q-65.6-.006-131.2-.009c-3.924,0-7.877.223-11.767-.162-13.159-1.3-17.1-6.948-12.252-19q38.908-96.68,78.339-193.148c4.867-11.909,10.505-12.832,20.213-3.95,5.783,5.292,10.959,11.242,16.6,16.692,11.906,11.495,16.474,10.77,23.615-3.531q15.77-31.577,31.5-63.172a5.749,5.749,0,0,1,.787-1.479c4.079-4.18,8.192-8.327,12.295-12.483,3.854,4.474,8.274,8.589,11.4,13.525,2.957,4.673,4.423,10.267,6.771,15.352q44.763,96.9,89.591,193.779c5.172,11.189,10.369,22.369,15.356,33.641,7.923,17.9,4.335,23.823-15,23.9C304.513,340.716,259.1,340.6,213.679,340.594ZM270.293,181.16c-.757-2.243-1.892-5.958-3.258-9.586-4.533-12.041-9.069-24.083-13.773-36.057a84.547,84.547,0,0,0-6.306-13.7c-4.769-7.707-10.588-7.824-15.579-.387-2.472,3.682-4.052,7.969-5.984,12.006-7.483,15.634-14.729,31.384-22.473,46.886-7.935,15.886-13.056,16.544-26.195,4.011-5.264-5.021-10.063-10.606-15.73-15.109-7.075-5.621-12.686-4.545-16.037,3.6A233.374,233.374,0,0,0,133.9,206.187c-2.085,8.551,6.342,18.663,17.211,24.322,8.831,4.6,13.4-.915,18.493-6.365,10.033-10.744,10.2-10.924,24.734-3.916,6.177,2.979,10.58,2.372,14.236-3.479,1.778-2.844,3.725-5.592,5.719-8.291,7.685-10.4,8.087-10.471,20.335-4.334C248.414,211.031,270.225,197.962,270.293,181.16Z"/><path d="M863.564,249.023c-.157,61.144-54.792,104.339-114.88,93.057-57.13-10.727-95.8-69.565-68.273-136.261,5.742-13.912,12.988-27.3,20.586-40.327,18.591-31.866,37.83-63.353,56.731-95.039C764.678,58.8,770,58.52,776.686,69.789,799.5,108.253,822.477,146.627,845,185.261,857.068,205.953,863.613,229.991,863.564,249.023ZM836.5,251.848c-1.8-2.025-4.134-6.83-7.769-8.217-5.564-2.123-11.078-.1-13.085,6.723-.786,2.674-1.681,5.329-2.256,8.05-3.394,16.041-13.842,26.493-27.632,33.818-5.319,2.825-11.6,3.789-17.369,5.825-7.8,2.756-10.983,8.582-8.434,15.418,2.593,6.954,8,7.046,13.774,4.93,9.379-3.437,19.408-5.935,27.8-11.059C821.089,295.392,832.907,277.637,836.5,251.848Z"/><path d="M291.347,782.331c-.055,47.06-37.251,83.656-84.348,84.093-44.986.418-83.169-36.748-83.976-83.055-.789-45.25,39.239-86.6,84.05-85.4C261.763,699.426,292.578,742.162,291.347,782.331Z"/><path d="M780.7,886.264c-30.3,0-60.593.264-90.885-.07-33.69-.373-58.706-16.247-71.156-47.07-11.834-29.3-6.1-57.817,15.738-81.154a67.02,67.02,0,0,1,28-17.751c11.385-3.483,16.078-10.138,19.806-20.069,8.133-21.667,23.417-37.1,45.082-44.8,28.731-10.206,55.205-5.625,77.826,15.884,2.844,2.705,5.879,5.311,8.223,8.417,5.466,7.242,11.718,8.482,20.613,6.167,17.637-4.59,34.8-3.749,47.62,11.818,3.5,4.244,6.923,9.237,8.173,14.419.982,4.068.069,10.593-2.677,13.124-4.941,4.554-11.655,3.359-16.646-1.573-2.345-2.317-3.648-5.65-5.8-8.2-8.705-10.333-23.461-10.12-31.921.465-1.73,2.165-2.53,5.106-4.358,7.154-7.194,8.06-18.208,5.789-22.823-4.149-4.194-9.033-7.613-18.942-13.837-26.411-13.868-16.642-32.523-21.557-53.136-15-21.128,6.717-33.362,21.892-36.667,43.827-2.225,14.768-1.96,14.808-17.987,17.589-25.838,4.483-45.094,24.765-46.085,48.541-1.283,30.771,21.039,54.386,53.11,54.822,39.825.54,79.664.113,119.5.128,23.563.01,47.129-.173,70.686.21,10.821.175,14.533,5.09,12.738,14.564-1.3,6.877-5.94,9.019-12.155,9.061q-18.511.124-37.025.111-31.977.024-63.956,0Z"/><path d="M815.061,815.583c32.431,0,64.864-.189,97.293.1,11.508.1,15.393,4.275,14.574,13.348-.519,5.747-3.266,9.539-9.159,10.153a130.278,130.278,0,0,1-13.4.408q-72.971.038-145.942.015c-15,0-30.01-.089-45.014,0-8.32.048-12.394-3.636-12.054-12.2s5.234-11.833,13.049-11.843q50.325-.068,100.649-.019Z"/><path d="M847.55,771.176q45.4-.017,90.806,0c3.922,0,7.849.006,11.763.21,5.868.306,9.474,3.424,9.932,9.324.483,6.21-1.865,11.378-8.248,12.9-4.822,1.153-9.981,1.212-14.99,1.219q-89.965.12-179.931.06c-2.8,0-5.619.126-8.4-.1-10.525-.861-13.529-3.98-13.588-12.947-.064-9.543,6.044-10.683,13.447-10.673Q797.943,771.235,847.55,771.176Z"/><path d="M301.274,738.023c-2.253-2.644-6.532-5.766-7.9-9.859-1.114-3.343-.1-9.944,2.3-11.492,14.961-9.658,30.484-18.466,46.026-27.191,5.3-2.974,9.731-.5,12.706,4.394,3.019,4.97,5.929,11.106-.054,14.937-15.462,9.9-31.558,18.811-47.439,28.052C306.006,737.391,304.761,737.334,301.274,738.023Z"/><path d="M130.1,932.644c-12.793-.029-18.836-9.266-13.8-18.18,7.711-13.65,16.055-26.943,24.153-40.374,3.7-6.133,8.47-8.7,15.409-4.819,7.109,3.977,9.159,9.126,4.973,16.817-7.226,13.276-14.921,26.315-22.91,39.148C135.774,928.688,131.851,931.035,130.1,932.644Z"/><path d="M68.314,688.132c3.693,1.458,5.36,1.875,6.778,2.714q20.151,11.934,40.222,24.006c6.642,4,9.672,9.122,4.857,16.6-4.544,7.055-10.322,7.735-17.2,3.7q-20.2-11.861-40.412-23.686c-5.074-2.966-7.552-7.28-4.181-12.478C61.146,694.713,65.3,691.342,68.314,688.132Z"/><path d="M302.854,826.5c3.43.785,4.653.784,5.567,1.315,15.391,8.956,30.918,17.7,46.008,27.139,5.232,3.273,4.426,9.31.81,13.238-2.95,3.2-7.948,6.814-11.674,6.456-5.145-.5-10.069-4.342-14.875-7.121-10.6-6.131-21.379-12.054-31.389-19.057-2.607-1.824-4.553-8.037-3.438-10.943C295.608,832.983,300.219,829.536,302.854,826.5Z"/><path d="M267.179,866.734c1.716,1.117,5.406,2.252,6.941,4.723,8.824,14.209,17.387,28.6,25.51,43.216,3.6,6.473.814,11.626-5.4,15.385-6.491,3.928-11.584,3.141-15.458-3.525-8.127-13.982-16.627-27.77-24.163-42.065C250.491,876.655,257.135,866.994,267.179,866.734Z"/><path d="M147.367,697.677c-1.683-1.425-5.725-3.536-7.836-6.869-8.045-12.705-15.51-25.78-23.106-38.767-3.5-5.982-4.03-11.561,2.766-15.85,6.858-4.328,13.056-3.454,17.337,3.334,8.317,13.191,16.528,26.486,23.953,40.188C165.037,688.12,159.38,696.871,147.367,697.677Z"/><path d="M72.257,771.458c7.839,0,15.679-.053,23.518.012,6.819.057,10.173,3.464,10.231,10.409.059,7.06-2.247,12.693-9.951,12.893-16.782.437-33.6.5-50.372-.066-7.746-.26-9.8-6.561-9.658-13.284.15-6.98,4.606-9.818,11.035-9.926C55.457,771.356,63.857,771.462,72.257,771.458Z"/><path d="M343.568,771.318c8.393,0,16.787-.088,25.178.026,7.068.1,9.764,4.278,9.77,10.885,0,6.208-1.745,11.9-8.727,12.082q-25.963.676-51.958-.2c-6.384-.219-9.737-4.9-9.529-11.575.206-6.588,3.417-10.737,10.1-11.019,8.376-.353,16.778-.085,25.169-.085Z"/><path d="M219.928,917.083c0,8.4.206,16.809-.058,25.2-.265,8.447-5.3,11.622-13.347,11.371-8.325-.26-10.12-5.473-10.1-12.4q.057-22.687.028-45.376c0-7.06,2.472-12.028,10.394-12.427,7.643-.386,12.472,3.585,13.076,11.794.534,7.242.112,14.555.112,21.837Z"/><path d="M220.017,647.413c0,7.259.133,14.522-.035,21.777-.191,8.259-4.583,11.952-12.857,11.774-7.859-.17-10.861-4.186-10.809-11.621.1-15.078-.009-30.158.017-45.238.012-6.65,1.449-12.4,9.533-13.233,7.706-.792,13.212,3.936,13.959,13.1.634,7.766.131,15.625.131,23.443Z"/><path d="M301.513,644.429c-1.6,3.262-2.669,5.845-4.075,8.228-7.11,12.047-14.068,24.194-21.551,36.008-6.164,9.731-9.582,10.658-17.412,6.27-7.849-4.4-8.7-8.2-3.247-17.885,6.856-12.191,13.644-24.448,21.174-36.222,5.345-8.357,12.97-9.679,19.906-4.139C298.647,638.558,299.843,641.858,301.513,644.429Z"/><path d="M68.066,877.2c-2.683-3.031-7.042-5.8-7.719-9.278-.81-4.166-.005-11.2,2.757-13.075a461.441,461.441,0,0,1,41.786-24.9c6.884-3.67,13.078-1.135,16.46,6.453,3.2,7.181.069,11.47-6.153,15.01-11.678,6.647-23.077,13.782-34.721,20.491C77.149,873.816,73.379,874.965,68.066,877.2Z"/></svg>