<svg id="Layer_1" data-name="Layer 1" xmlns="http://www.w3.org/2000/svg" viewBox="0 0 1000 1000"><path d="M311,464.1a6.28,6.28,0,0,0,2.36,5,17.48,17.48,0,0,0,6.31,3.25,68.16,68.16,0,0,0,19.85,2.74c12.85.15,25.7,0,38.54.05a86.84,86.84,0,0,0,19.16-1.87,25.8,25.8,0,0,0,9-3.56,6.86,6.86,0,0,0,3.32-6.16c-.07-10.42-.1-20.83,0-31.25a7.28,7.28,0,0,0-4.42-7.19,32.39,32.39,0,0,0-7.28-2.47,78.73,78.73,0,0,0-15.92-1.44c-6.56-.06-13.12,0-21.37,0-9,.26-19.7-.6-30.35.87-5,.69-9.94,1.64-14.42,4.12-3,1.67-4.86,4-4.81,7.74C311.13,444,311.06,454,311,464.1Z"/><path d="M587,434.12a30.18,30.18,0,0,0,11.26-3.72c3.23-2,5.22-4.67,5.13-8.68-.09-4.8,0-9.6,0-14.4a4.72,4.72,0,0,0-2.29-4.45,27,27,0,0,0-5.79-2.7c-6.41-1.87-13-2.31-19.66-2.36-14.8-.11-29.6,0-44.4,0H485.09c-1.68,0-1.69,0-1.69,1.68v33.94c0,1.93,0,1.94,1.9,1.94H565A141.38,141.38,0,0,0,587,434.12Z"/><path d="M500,0C223.86,0,0,223.86,0,500s223.86,500,500,500,500-223.86,500-500S776.14,0,500,0ZM735.92,431.49c0-4.71,2.1-8.65,5.24-12.05,3.49-3.78,7.87-6.23,12.54-8.2A63.61,63.61,0,0,1,767.91,407a104.73,104.73,0,0,1,13-1.56c9.94-.41,19.89-.49,29.83-.7v.2c7.3,0,14.61-.09,21.91,0,9.48.16,18.93.79,28.12,3.41,6,1.7,11.53,4.18,15.94,8.7a20.18,20.18,0,0,1,5.89,14.36c.09,11.22.06,22.43,0,33.65a19.14,19.14,0,0,1-6,14A32,32,0,0,1,866,485.61a71,71,0,0,1-22,5.27c-5.71.43-11.44.66-17.16.7-12.73.1-25.46.15-38.19,0a108.38,108.38,0,0,1-32.56-5.11c-5.31-1.74-10.31-4.13-14.38-8.06-3.55-3.42-5.79-7.6-5.83-12.62Q735.8,448.64,735.92,431.49Zm-641.31-21A19.44,19.44,0,0,1,102,394.75a39,39,0,0,1,14.73-7.44c5.21-1.44,10.5-2.67,15.82-3.62A109.19,109.19,0,0,1,152,382.13c7.84,0,15.68-.05,23.52,0a18,18,0,0,1,5,.82,6,6,0,0,1,4.08,4.6,11.41,11.41,0,0,1,0,5.54c-.84,3.52-3.65,5.58-7.78,5.61-4,0-8-.1-11.93-.1-5.47,0-10.94-.05-16.39.17A79.9,79.9,0,0,0,129,401.58a16,16,0,0,0-7.26,3.83,5.76,5.76,0,0,0-1.77,4.18q0,27.17,0,54.31c0,3.87,2.47,5.92,5.59,7.33a41.63,41.63,0,0,0,14.3,3.23c17.5,1.34,35,.39,52.55.65,5.7.08,11.4.07,17.1,0a63,63,0,0,0,21.52-3.91,23.65,23.65,0,0,0,5.2-3.07,4.74,4.74,0,0,0,1.75-4.05c0-3.12-.05-6.24,0-9.36,0-1.19-.32-1.52-1.51-1.52q-16.33.06-32.68,0a8.84,8.84,0,0,1-8.91-6.54,9.28,9.28,0,0,1,4.31-10.45,10.7,10.7,0,0,1,5.56-1.08c9.84,0,19.67,0,29.52,0,6.87,0,13.74,0,20.61,0a14.51,14.51,0,0,1,2.79.28,6.27,6.27,0,0,1,5.49,6.68c0,7.56.15,15.14,0,22.7-.15,6.31-3,11.43-7.84,15.44-4.61,3.78-10,6-15.61,7.75a73.46,73.46,0,0,1-18.35,3.4c-7.23.36-14.48.54-21.73.66-6.29.11-12.58,0-18.87,0-9.25,0-18.5,0-27.75,0a136.48,136.48,0,0,1-28.79-2.83c-7.38-1.64-14.59-3.84-20.79-8.42-5.68-4.19-8.83-9.75-8.83-16.93C94.64,446.07,94.68,428.28,94.61,410.49ZM264.67,616.68c0,2.42,0,2.42-3.15,2.42H99.09c-3.47,0-3.48,0-3.48-2.71V520.77c0-2.54,0-2.55,3.38-2.55H261.42c3.25,0,3.25,0,3.25,2.5ZM287,465.1c-.06-10.34.13-20.68-.07-31-.15-8.12,3.4-14,9.86-18.5a54.5,54.5,0,0,1,16.75-7.34,77.32,77.32,0,0,1,18.44-2.9c10-.25,20-.44,29.94-.65v.2c7.1,0,14.21-.08,21.32,0,9.48.14,18.93.75,28.13,3.29,5.51,1.52,10.69,3.72,15.06,7.51a20.29,20.29,0,0,1,7.28,15.51c.16,11,0,22,.05,33,0,7.51-3.19,13.26-9.28,17.5a44.2,44.2,0,0,1-10.39,5A79.68,79.68,0,0,1,393.81,491c-7.63.69-15.27.6-22.91.61-10.19,0-20.38.1-30.57,0A109.56,109.56,0,0,1,307,486.35a36.08,36.08,0,0,1-13.87-7.79A18.15,18.15,0,0,1,287,465.1ZM468.64,616.29c0,2.76-.07,2.82-3.62,2.82H302.8c-3.5,0-3.5,0-3.5-2.7V520.8c0-2.57,0-2.57,3.37-2.58H465.52c3.11,0,3.12,0,3.12,2.44ZM485.33,452c-1.92,0-1.93,0-1.93,1.93v29.38c0,4.45-2.36,7.23-6.81,7.5-4,.24-8,.25-12,.1-3.83-.15-6.3-2.95-6.49-6.94,0-.19,0-.39,0-.59V388.6c0-3.28,1.37-5.68,4-6.62a14.51,14.51,0,0,1,4.66-.92c18.15-.07,36.31,0,54.47,0,17.33,0,34.67-.06,52,0a134.76,134.76,0,0,1,23.12,2.17,74.19,74.19,0,0,1,19.41,5.87c5,2.41,9.49,5.41,11.71,10.75a15.32,15.32,0,0,1,1.17,5.42c.14,5.62,0,11.24.07,16.85.13,8.45-3.57,14.78-10.42,19.5a45.89,45.89,0,0,1-17.43,7.11c-5.15,1-10.36,1.83-15.58,2.41-10.64,1.18-21.34.86-32,.87Q519.3,452,485.33,452ZM673.54,616.45c0,2.41,0,2.41-3.15,2.41H507.78c-3.22,0-3.22,0-3.22-2.51V520.74c0-2.5,0-2.5,3.25-2.5h162.6c3.12,0,3.13,0,3.13,2.44Zm31.89-195.19a81,81,0,0,0-9.35.1,102.6,102.6,0,0,0-10.34,1.06,30.87,30.87,0,0,0-6.44,2c-3.84,1.57-5.63,4.5-5.62,8.7.05,16.65-.08,33.31.08,50,0,5.09-2.37,7.93-7.41,8.23a79.94,79.94,0,0,1-10.15,0c-4.14-.28-6.34-2.6-6.43-6.72-.14-6.2-.07-12.4-.09-18.6v-8.54c0-8.27,0-16.54,0-24.81A21.19,21.19,0,0,1,661.8,412.4a54,54,0,0,1,18.47-5.64c4.25-.56,8.51-1,12.77-1.35,2.56-.22,5.14-.21,7.71-.28,3.28-.09,6.55-.22,9.82-.2a10.6,10.6,0,0,1,5.95,1.43c2.5,1.66,3.2,4.22,3.36,7,.22,4-1.94,6.73-6,7.56A32.64,32.64,0,0,1,705.43,421.26ZM882.64,616.83c0,2.19,0,2.2-2.87,2.27-.77,0-1.53,0-2.3,0H717.78l-2.3,0a1.55,1.55,0,0,1-1.77-1.06.87.87,0,0,1,0-.36c0-.49,0-1,0-1.46V520.94c0-2.65,0-2.66,3.46-2.66H879.35c3.28,0,3.29,0,3.29,2.46Zm16.15-115.47c-6.32,2.56-13.71-2.41-13.88-9.22a10.3,10.3,0,0,1,20-3.86c.15.4.32.79.48,1.19v4.21A10.92,10.92,0,0,1,898.79,501.36Z"/><path d="M759.93,464.2a6.19,6.19,0,0,0,2.4,5,19.26,19.26,0,0,0,7.44,3.55,75,75,0,0,0,18.86,2.39c6.86.13,13.74,0,20.61,0,1.52,0,3,0,4.57,0,9.23-.1,18.49.47,27.68-1,4.33-.69,8.62-1.56,12.48-3.74,2.33-1.32,4.34-2.92,4.33-6q0-16.56,0-33.12a6,6,0,0,0-2.09-4.63c-2.67-2.47-6.06-3.34-9.47-4a91.89,91.89,0,0,0-18.14-1.44c-10.94,0-21.87,0-32.8,0a119.63,119.63,0,0,0-16.92.9c-4.87.7-9.69,1.64-14.09,4-3.2,1.73-5,4.14-4.9,8C760.06,444.15,760,454.18,759.93,464.2Z"/><path d="M896.76,487.8a4.49,4.49,0,0,0-1.59-.21v.07a2.82,2.82,0,0,0-1.26,0,1.3,1.3,0,0,0-.62,1c0,.54.24,1.5.48,1.53a9.77,9.77,0,0,0,3.1-.1,1.46,1.46,0,0,0,.89-1.13A1.91,1.91,0,0,0,896.76,487.8Z"/><path d="M895.19,483.35a8.37,8.37,0,0,0-.08,16.73h0a8.36,8.36,0,0,0,8.36-8.33h0A8.35,8.35,0,0,0,895.19,483.35Zm2.69,11.83a16,16,0,0,0-1.5-2.22,3.17,3.17,0,0,0-1.37-1c-1.37-.43-1.75-.09-1.76,1.33a9.37,9.37,0,0,1-.06,2,1.2,1.2,0,0,1-.83.78,1.13,1.13,0,0,1-.8-.78q-.09-4.08,0-8.18c0-.32.47-.9.74-.9a46.49,46.49,0,0,1,5,.08,2.42,2.42,0,0,1,2.26,2.19,2.57,2.57,0,0,1-1.34,2.86,5.85,5.85,0,0,0-.55.37l2.79,4.18C899.15,496.34,898.42,496.13,897.88,495.18Z"/></svg>