<svg xmlns="http://www.w3.org/2000/svg" viewBox="0 0 1000 1000"><path d="M790.928,950.459c-1.719-2.509-3.106-5.343-5.2-7.48Q659.157,814.14,532.452,685.432c-1.556-1.581-3.363-2.916-6.1-5.259-4.968,6.187-9.773,11.982-14.376,17.932-40.273,52.062-80.373,104.26-121,156.047-3.581,4.564-10.486,9.161-15.908,9.234-51.409.7-102.833.42-154.252.389-2.1,0-4.2-.349-8.913-.767,74.315-92.977,147.332-184.329,220.508-275.882L332.5,490.808c-2.022,2.518-6,7.333-9.828,12.258C277.265,561.416,232,619.879,186.25,677.959c-3.612,4.585-10.527,9.228-15.968,9.3-51.861.7-103.735.417-155.605.384-1.657,0-3.314-.362-7.091-.8L242.469,393.2c-68.585-69.179-137.009-138.2-207.136-208.929,5.647-.6,8.941-1.249,12.236-1.252,60.44-.061,120.883-.281,181.317.308,6.268.061,13.725,3.636,18.529,7.93,29.914,26.742,59.23,54.154,88.744,81.343l-2.879,5.287c3.822-4.775,7.7-9.507,11.457-14.333q75.6-97.114,151.308-194.149c3.043-3.887,7.979-8.91,12.083-8.955,54.514-.6,109.036-.4,167.215-.4L428.179,370.979,526.561,468c1.944-2.372,5.632-6.681,9.116-11.15Q637.958,325.66,740.03,194.3c6.421-8.292,13.039-11.7,23.665-11.583,51.4.564,102.8.254,158.238.254L618.964,565.444c3.809,4.04,7.06,7.654,10.486,11.1Q809.38,757.269,989.288,938.02c3.736,3.755,6.7,8.276,10.025,12.439Z"/></svg>