<svg id="Layer_1" data-name="Layer 1" xmlns="http://www.w3.org/2000/svg" viewBox="0 0 1000 1000"><path d="M655.53,313.46H344.47a31,31,0,0,0-30.77,31V655.53a30.84,30.84,0,0,0,30.77,31H655.53a30.84,30.84,0,0,0,30.77-31V344.47A30.84,30.84,0,0,0,655.53,313.46ZM580.09,561.77a17.82,17.82,0,0,1-17.83,17.58H437.74a17.5,17.5,0,0,1-17.58-17.58V437.49A17.82,17.82,0,0,1,438,419.67H562.26a17.9,17.9,0,0,1,12.61,5.22,17.92,17.92,0,0,1,3.86,5.78,17.74,17.74,0,0,1,1.36,6.82Z"/><path d="M500,0C223.86,0,0,223.86,0,500s223.86,500,500,500,500-223.86,500-500S776.14,0,500,0ZM793,695.09A98.06,98.06,0,0,1,695.09,793H304.91c-54-.24-97.91-44-97.91-97.91V304.91A97.92,97.92,0,0,1,304.91,207H695.09A97.9,97.9,0,0,1,793,304.67Z"/></svg>