<svg xmlns="http://www.w3.org/2000/svg" viewBox="0 0 1000 1000"><path d="M494.333,18.556c1.019,1.514,1.692,3.621,3.111,4.45q17.427,10.173,35.1,19.922c11.9,6.6,24.028,12.805,35.821,19.59,10.486,6.033,20.626,12.665,30.969,18.949,4.815,2.926,9.754,5.644,14.626,8.476,8.277,4.811,16.519,9.684,24.826,14.444,7.122,4.081,14.317,8.034,21.473,12.056,4.06,2.281,8.16,4.5,12.147,6.9,7.817,4.716,15.449,9.75,23.38,14.264,7.6,4.326,15.611,7.932,23.2,12.27,8.25,4.714,16.19,9.97,24.338,14.87,4.845,2.913,9.848,5.562,14.748,8.387,14.353,8.277,28.634,16.68,43.055,24.838,7.935,4.489,16.129,8.517,24.131,12.891,3.085,1.686,5.885,3.89,8.945,5.627,16.079,9.131,32.251,18.1,48.281,27.312A183.445,183.445,0,0,1,902.2,256.383c2.33,1.77,3.3,5.587,4.372,8.654.615,1.768.212,3.9.212,5.869q.007,229.859-.145,459.717c-.006,4.64-1.129,10.077-3.742,13.688-2.533,3.5-7.638,5.164-11.656,7.565-11.721,7-23.407,14.073-35.226,20.909-4.534,2.622-9.39,4.689-14.106,6.993-.348.17-.8.133-1.131.324q-15.611,9.113-31.2,18.252c-8.414,4.909-16.859,9.763-25.268,14.679-3.693,2.159-7.287,4.487-11,6.605-9.49,5.41-19.125,10.575-28.512,16.155-10.516,6.252-20.742,12.992-31.26,19.241-4.835,2.873-10.138,4.949-15.088,7.645-2.9,1.576-5.4,3.861-8.275,5.484-16.44,9.282-33.047,18.271-49.383,27.731-14.839,8.594-29.3,17.849-44.125,26.461-11.125,6.461-22.624,12.275-33.86,18.55-6.461,3.608-12.719,7.578-19.088,11.353-11.4,6.757-22.771,13.563-34.246,20.19-3.881,2.242-8.164,3.8-12.009,6.09-1.417.846-2.1,2.921-3.121,4.435H477.786c-1.531-1.656-2.78-3.787-4.639-4.892-11.223-6.674-22.643-13.015-33.88-19.666-6.886-4.075-13.436-8.725-20.363-12.726-11.887-6.867-23.965-13.4-35.936-20.127-8.14-4.571-16.2-9.278-24.361-13.812-4.759-2.645-9.791-4.822-14.441-7.638-13.356-8.088-26.429-16.653-39.9-24.537-12.279-7.185-24.988-13.63-37.405-20.583-7.644-4.28-15.047-8.988-22.648-13.347-10.771-6.177-21.707-12.068-32.422-18.337-13.916-8.142-27.633-16.621-41.534-24.789-9.247-5.433-18.676-10.556-28-15.855q-22.091-12.55-44.151-25.156c-4.743-2.709-9.282-5.837-14.209-8.145-4.97-2.327-8.279-8.458-15.038-6.766V254.933c3.359-1.2,6.91-2.041,10.03-3.694,4.132-2.189,7.813-5.218,11.894-7.522,7.967-4.5,16.2-8.529,24.1-13.148,11.26-6.589,22.138-13.842,33.5-20.249,13.892-7.835,28.27-14.81,42.142-22.68,11.488-6.518,22.554-13.783,33.79-20.743,3-1.856,5.832-3.991,8.913-5.687,8.156-4.49,16.519-8.612,24.592-13.242,12.515-7.176,24.813-14.728,37.286-21.977,10.266-5.966,20.682-11.674,30.978-17.589,7.8-4.483,15.474-9.2,23.3-13.645,4.562-2.593,9.435-4.648,13.945-7.32,11-6.514,21.74-13.457,32.821-19.818,7.744-4.445,16.053-7.907,23.794-12.356,11.16-6.415,21.994-13.395,33.048-20,5.172-3.09,10.7-5.6,15.747-8.873,3.318-2.152,6.06-5.193,9.059-7.836ZM854.82,500.89c0-65.779-.154-131.558.166-197.336.048-9.8-.931-17.686-11.974-20.391-.712-.174-1.27-.911-1.944-1.31-11.244-6.643-22.44-13.37-33.76-19.881-10.932-6.287-22.039-12.269-32.984-18.535-8.449-4.837-16.738-9.951-25.148-14.856-7.706-4.495-15.52-8.806-23.212-13.324-10.759-6.318-21.371-12.889-32.191-19.1-11.465-6.58-23.128-12.816-34.654-19.292-8.631-4.85-17.169-9.866-25.774-14.763-3.894-2.217-7.926-4.2-11.764-6.507-14.049-8.446-27.918-17.2-42.1-25.423-12.13-7.034-24.7-13.311-36.861-20.288-6.87-3.94-13.177-8.851-19.988-12.9-9.37-5.575-18.938-10.822-28.5-16.072-5.293-2.907-10.72-3.461-16.118-.028-7.059,4.488-14.092,9.019-21.244,13.352q-11.543,6.995-23.3,13.637c-4.563,2.592-9.4,4.706-13.914,7.377-11,6.511-21.758,13.426-32.843,19.78-7.747,4.44-16.044,7.922-23.784,12.372-11.159,6.416-22.044,13.31-33.029,20.028-3.655,2.235-7.179,4.7-10.9,6.813-7.81,4.442-15.761,8.639-23.563,13.1-8.271,4.725-16.357,9.778-24.671,14.424-7.632,4.266-15.655,7.854-23.161,12.32-14.352,8.54-28.329,17.712-42.709,26.2-11.037,6.517-22.537,12.244-33.681,18.589-15.013,8.547-29.859,17.39-44.826,26.02-4.632,2.672-6.9,6.029-6.895,11.823q.24,204.131,0,408.262c-.007,5.863,2.416,9.168,7.05,11.724q6.877,3.793,13.691,7.7c5.528,3.184,10.966,6.528,16.533,9.641,6.978,3.9,14.16,7.451,21.047,11.5,6.515,3.835,12.639,8.332,19.154,12.168,10.395,6.121,21,11.89,31.462,17.892,10.31,5.914,20.513,12.016,30.849,17.885,11.333,6.435,22.842,12.563,34.131,19.072,11.823,6.818,23.457,13.963,35.21,20.9,7.9,4.664,15.887,9.184,23.8,13.829,10.245,6.015,20.368,12.243,30.707,18.091,8.056,4.556,16.479,8.463,24.529,13.031,11.838,6.718,23.534,13.69,35.2,20.7q17.312,10.392,34.429,21.1c5.791,3.643,11.5,3.587,17.126.211,11.15-6.689,22.07-13.764,33.257-20.389,10.019-5.934,20.273-11.471,30.416-17.2,14.433-8.146,28.9-16.225,43.278-24.478,14.861-8.533,29.579-17.319,44.449-25.837,7.08-4.055,14.539-7.462,21.528-11.66,14.349-8.62,28.377-17.778,42.762-26.338,15.382-9.154,30.956-17.993,46.57-26.747,14.739-8.264,29.714-16.106,44.445-24.384,10.531-5.919,20.83-12.25,31.232-18.4,4.373-2.585,8.573-5.536,13.151-7.683,7.979-3.741,9.312-5.413,9.312-14.368Q854.826,601.922,854.82,500.89Z"/><path d="M351.991,481.754c-.213,2.969-.61,5.937-.611,8.906q-.05,127.323-.027,254.646a10.977,10.977,0,0,1-.038,2.942c-.927,3.191-1.2,8-3.28,9.032-2.146,1.061-6.314-1.2-9.262-2.671q-12.544-6.274-24.791-13.137c-7.1-3.974-13.974-8.362-21.013-12.454-8.584-4.99-17.277-9.793-25.847-14.805-7.6-4.442-15.015-9.188-22.644-13.57-11.3-6.493-22.739-12.76-34.09-19.172-4.524-2.555-9.367-4.771-13.3-8.056-2.14-1.786-2.932-5.41-3.849-8.356-.563-1.811-.266-3.9-.266-5.873q-.012-158.34.066-316.682A32.066,32.066,0,0,1,194.9,331.62c.759-2.053,3.081-3.85,5.119-5.051,7.835-4.617,15.888-8.863,23.766-13.408,8.084-4.663,16.035-9.556,24.09-14.271q12.382-7.248,24.859-14.336c11.027-6.25,22.127-12.373,33.154-18.625,7.06-4,14.038-8.15,21.065-12.212,4.063-2.348,7.963-5.953,12.283-6.573,3.451-.5,8.234,1.788,11.031,4.356q19.466,17.874,38.081,36.667c13.526,13.592,26.54,27.692,40.009,41.341,7.971,8.077,16.421,15.679,24.6,23.556,6.058,5.835,12.108,11.683,18,17.68,7.135,7.256,13.989,14.789,21.174,21.993,8.981,9,18.194,17.778,27.271,26.687q9.638,9.459,19.181,19.012c10.389,10.359,20.8,20.7,31.117,31.125,6.88,6.953,13.617,14.047,20.416,21.08,7.348,7.6,14.647,15.251,22.08,22.768,1.457,1.473,3.429,2.436,6.445,4.519a88.023,88.023,0,0,0,.977-8.786q.065-126.732.164-253.464c.007-3.964.63-9.534,3.178-11.523,4.134-3.226,8.417.771,12.583,3.294,13.324,8.068,27.042,15.484,40.568,23.219,7.609,4.352,15.093,8.921,22.718,13.242,11.676,6.618,23.485,13,35.122,19.688,7.865,4.517,15.5,9.437,23.3,14.063,4.709,2.791,9.441,5.584,14.355,7.981,6.454,3.149,9.905,7.865,9.9,15.223q-.065,159.818,0,319.636c0,7.619-3.7,12.134-10.272,15.6-8.576,4.524-16.627,10.032-25.034,14.892-6.906,3.993-14.082,7.519-21,11.5-12.11,6.971-24.007,14.317-36.185,21.163-13.973,7.854-28.171,15.309-42.239,22.994-4.39,2.4-8.442,5.762-13.105,7.184-2.693.821-7.277-.343-9.34-2.339-17.664-17.1-34.959-34.578-52.341-51.966Q464.031,591.507,356.061,483.483c-.675-.675-1.443-1.257-2.168-1.883Z"/></svg>