<svg xmlns="http://www.w3.org/2000/svg" viewBox="0 0 1000 1000"><path d="M995.467,391.743c-5.205,8.215-10.446,16.408-15.586,24.664a5.289,5.289,0,0,1-4.259,2.663c-24.266,3.284-48.517,6.685-72.773,10.042q-28.646,3.964-57.3,7.895-31.54,4.315-63.085,8.585c-17.561,2.408-35.111,4.889-52.671,7.3-22.18,3.042-44.369,6.022-66.548,9.068-19.716,2.709-39.421,5.5-59.138,8.2q-35.12,4.817-70.251,9.556c-7.085.967-14.161,2-21.245,2.988a3.184,3.184,0,0,1-1.872-.306c5.8-1.13,11.6-2.28,17.4-3.385q35.984-6.854,71.971-13.682,38.163-7.244,76.328-14.477,40.563-7.728,81.113-15.51,37.814-7.2,75.639-14.352,32.2-6.124,64.4-12.29,48.01-9.13,96.027-18.22a16.136,16.136,0,0,1,1.845-.141Z"/><path d="M794.2,607.022c-4.467-1.754-9.071-3.23-13.359-5.344a25.893,25.893,0,0,1-9.351-8.28c-1.12-1.545-1.112-2.528.75-3.425,4.206-2.024,8.367-4.144,12.517-6.282a2.538,2.538,0,0,1,3.157.413c8.675,7.138,18.32,8.03,28.417,3.774,6.6-2.782,9.657-8.483,10.871-15.3a1.758,1.758,0,0,0-.045-.691c-.031-.131-.171-.235-.365-.483-1.334.856-2.657,1.759-4.03,2.58-14.2,8.487-34.289,5.854-44.157-8.673-6.646-9.784-7.9-20.621-4.925-31.948a42.307,42.307,0,0,1,40.537-31.032,25.819,25.819,0,0,1,18.838,7.906,16.822,16.822,0,0,1,1.634,2.281l.81-.411c.238-1.7.547-3.4.7-5.111.167-1.918.842-2.921,3.038-2.847,4.508.153,9.026.113,13.538.017,1.936-.041,2.607.485,2.3,2.546-1.523,10.227-2.891,20.476-4.372,30.709q-2.69,18.581-5.5,37.143a64.084,64.084,0,0,1-1.779,8.205c-3.7,12.75-12.84,19.746-25.069,23.392-1.04.31-2.094.572-3.141.857Zm20.109-86.993a45.091,45.091,0,0,0-5.083.557A23.715,23.715,0,0,0,790.6,543.1c-.3,8.424,4.283,15.075,12.13,17.617,11.467,3.714,24.847-2.744,28.988-14.112C837.658,530.3,826,519.31,814.307,520.029Z"/><path d="M11.069,580.4c.9-6.226,1.819-12.448,2.683-18.678q2.257-16.281,4.46-32.569c.19-1.386.359-2.775.592-4.154.242-1.432-.346-2.026-1.764-1.99-1.321.033-2.645-.011-3.967-.027-1.173-.014-1.734-.623-1.587-1.778.551-4.316,1.064-8.639,1.771-12.93a2.691,2.691,0,0,1,1.829-1.547,11.916,11.916,0,0,1,3.716-.076c2.135.216,2.562-1.055,2.879-2.767.876-4.733,1.495-9.56,2.9-14.139C28.652,476.5,43.845,471.743,55.171,480c.556.406,1.231,1.251,1.166,1.811-.537,4.6-1.237,9.178-1.95,14.2a24.288,24.288,0,0,0-2.3-1.357,23.655,23.655,0,0,0-4.721-1.837,4.206,4.206,0,0,0-5.013,2.888c-.937,3.03-1.5,6.18-2.133,9.3-.255,1.252.609,1.617,1.695,1.62,2.334.007,4.669.056,7,.015,1.561-.028,2.278.449,2.032,2.19-.584,4.154-1.052,8.325-1.512,12.5-.145,1.31-.883,1.686-2.048,1.68-2.257-.012-4.518.1-6.768-.023-1.863-.1-2.753.395-3.027,2.461-1.562,11.788-3.275,23.556-4.942,35.33-.861,6.079-1.776,12.151-2.577,18.237-.222,1.69-.863,2.436-2.663,2.4-5.445-.1-10.892-.062-16.338-.077Z"/><path d="M973.575,431.057q-2.8,4.4-5.6,8.793c-3.183,4.981-6.394,9.945-9.538,14.951a3.7,3.7,0,0,1-3.216,1.894q-18.964,1.146-37.923,2.4-20.934,1.371-41.865,2.8-20.583,1.389-41.165,2.8-20.466,1.4-40.93,2.8-20.7,1.411-41.4,2.813-20.349,1.385-40.7,2.78c-14.882,1.038-29.76,2.14-44.644,3.156-10.466.714-20.942,1.287-31.408,2-12.324.842-24.642,1.779-36.965,2.651a41.889,41.889,0,0,1-7.675-.038L973.187,430.6Z"/><path d="M666.313,547.23c.276,5.619,2.231,10.187,6.764,13.082,7.028,4.487,14.516,3.942,21.908.84,2.125-.891,3.966-2.439,6.015-3.539a3.293,3.293,0,0,1,2.488-.414c4.946,2.438,9.814,5.036,15.069,7.773a21.557,21.557,0,0,1-1.69,2.443c-7.682,8.32-17.356,12.272-28.513,13.127a47.042,47.042,0,0,1-16.852-1.516c-13.518-3.915-21.219-13.067-23.364-26.815-1.611-10.321.013-20.263,5.493-29.221,11.194-18.3,30.964-24.915,50.082-18.2,11.378,4,17.86,12.777,20.955,24.216a41,41,0,0,1,.957,15.961c-.209,1.677-.951,2.279-2.561,2.265-4.669-.04-9.339-.008-14.008-.007H666.313Zm39.907-14.262c-2.617-9.076-9.645-13.191-18.065-13.043-8.526.15-17.637,6.7-18.584,13.043Z"/><path d="M535.077,547.233q-13.189,0-26.379,0c-3.1,0-3.49.56-2.664,3.651,2.117,7.918,7.943,12.31,16.712,12.584a26.375,26.375,0,0,0,17.165-5.626,2.981,2.981,0,0,1,3.769-.306c4.082,2.259,8.229,4.407,12.407,6.487,1.683.837,1.76,1.62.545,2.959-7.426,8.188-16.792,12.379-27.652,13.477a48.77,48.77,0,0,1-18.929-1.606,31.878,31.878,0,0,1-22.81-27.849c-1.191-11.9,1.242-22.745,8.583-32.3,10.837-14.1,28.327-19.8,45.234-14.573,12.5,3.863,19.678,12.82,22.953,25.16a39.077,39.077,0,0,1,.966,14.807c-.33,2.739-.632,3.111-3.521,3.116q-13.19.024-26.379.006Zm10.139-14.27c-.067-6.352-7.427-12.091-16.5-12.97-8.039-.778-18.448,5.887-19.939,12.97Z"/><path d="M200.215,567.674a30.684,30.684,0,0,1-12.681,10.617c-12.019,5.9-24.54,6.827-37.148,2.36-12.238-4.335-18.811-13.6-20.69-26.224a41.99,41.99,0,0,1,4.947-27.745c7.285-12.647,18.05-20.31,32.9-21.605,8.7-.758,16.914.69,24.3,5.568,9.336,6.17,13.965,15.239,15.385,26.053a59.818,59.818,0,0,1,.043,9.982c-.1,2.768-.447,2.991-3.252,2.992q-26.376.012-52.753.006c-3.539,0-3.708.234-2.829,3.781,1.834,7.4,7.643,11.991,15.272,12.426a26.758,26.758,0,0,0,18.378-5.416c1.563-1.192,2.8-1.081,4.428-.167,3.662,2.049,7.446,3.88,11.167,5.825C198.481,566.546,199.229,567.068,200.215,567.674ZM187.67,535.41c-.993-6.989-8.351-12.663-16.249-12.85-9.273-.219-18.807,5.788-20.14,12.85Z"/><path d="M400.953,568.09c-1.876,1.88-3.568,4.049-5.7,5.63-14.446,10.736-30.259,12.609-46.728,5.824-10.8-4.449-16.533-13.47-18.063-24.876-2.282-17.022,3.251-31.116,16.889-41.75a38.422,38.422,0,0,1,22.033-7.95c7.562-.426,14.736.8,21.342,4.565,9.568,5.457,14.821,14.036,16.777,24.609.738,3.99.555,8.183.485,12.278-.053,3.081-.447,3.253-3.494,3.254q-26.257.007-52.515,0c-3.426,0-3.659.3-2.893,3.63a16.072,16.072,0,0,0,14.945,12.552,27.089,27.089,0,0,0,19.222-5.671,2.9,2.9,0,0,1,2.479-.441c4.886,2.4,9.693,4.953,14.517,7.476C400.435,567.319,400.537,567.566,400.953,568.09Zm-49.107-32.777h36.626c-1.7-7.569-8.639-12.5-17.118-12.795C362.927,522.222,354.051,528.1,351.846,535.313Z"/><path d="M599.182,510.369c1.8-1.209,3.547-2.5,5.4-3.612,7.536-4.52,15.573-6,23.917-2.853,7.718,2.91,12.423,8.817,12.941,17.024.377,5.98-.364,12.08-1.086,18.069-1.46,12.112-3.264,24.183-4.883,36.277-.5,3.706-.433,3.713-4.093,3.711-4.124,0-8.247.02-12.37-.011-2.516-.019-2.709-.212-2.377-2.679,1.776-13.171,3.594-26.336,5.372-39.507.291-2.155.5-4.324.673-6.491.676-8.427-5.276-12.085-12.816-10.138a18.091,18.091,0,0,0-13.383,13.411,186.8,186.8,0,0,0-3.865,19.652c-1.2,7.6-2.022,15.251-3.054,22.874-.386,2.847-.492,2.884-3.395,2.886-4.357,0-8.714-.048-13.07.013-1.931.027-2.583-.583-2.291-2.637,1.871-13.157,3.622-26.331,5.419-39.5,1.334-9.778,2.7-19.552,4-29.335.419-3.16.491-3.316,3.743-3.322,4.123-.008,8.246-.015,12.369.006,2.681.014,2.993.4,2.643,3.007-.13.97-.235,1.943-.351,2.915Z"/><path d="M858.643,504.457c1.051-.112,1.726-.243,2.4-.245,4.514-.017,9.029.06,13.54-.037,1.819-.039,2.594.737,3.124,2.388,4.1,12.739,8.263,25.454,12.419,38.173.227.7.545,1.363,1.046,2.6,1.651-2.739,3.037-4.955,4.341-7.218,6.638-11.526,13.244-23.072,19.912-34.58a2.589,2.589,0,0,1,1.738-1.25c5.989-.076,11.979-.025,17.969.008.2,0,.393.2.9.47-1.072,1.981-2.081,3.953-3.186,5.871q-17.645,30.634-35.311,61.258-9.136,15.878-18.166,31.815a4.1,4.1,0,0,1-4.088,2.4c-4.744-.108-9.493-.026-14.24-.04-.756,0-1.512-.1-2.692-.191.591-1.241.984-2.208,1.493-3.11,5.921-10.5,11.8-21.029,17.842-31.461a7.043,7.043,0,0,0,.547-6.346q-9.555-28.917-18.922-57.9C859.075,506.341,858.93,505.591,858.643,504.457Z"/><path d="M69.829,506.643c2.256,0,4.514.057,6.767-.017,1.883-.062,2.467.761,2.213,2.559-1.316,9.308-2.643,18.616-3.851,27.939-.708,5.466-1.465,10.947-1.727,16.443-.344,7.185,4.4,11.823,11.627,11.9,7,.075,11.553-2.749,13.507-9.5a139.083,139.083,0,0,0,3.563-17.79c1.474-9.677,2.652-19.4,3.924-29.106.213-1.626.86-2.491,2.668-2.46,4.588.079,9.179.053,13.768.012,1.792-.016,2.455.544,2.182,2.507-1.874,13.466-3.51,26.967-5.484,40.418-1.2,8.207-3.336,16.161-8.874,22.734-5.923,7.031-13.655,10.336-22.658,10.93a34.816,34.816,0,0,1-17.1-2.746c-9.285-4.262-14.359-11.623-15.481-21.688-.914-8.2.523-16.273,1.631-24.348s2.366-16.144,3.511-24.222c.5-3.56.453-3.569,3.981-3.576,1.945,0,3.889,0,5.834,0Z"/><path d="M952.953,467.409c-.454.95-.748,1.728-1.172,2.425-2.992,4.92-6.058,9.8-8.993,14.748a3.916,3.916,0,0,1-3.78,2.109c-17.35.105-34.7.284-52.049.429q-29.643.249-59.287.48-24.857.213-49.713.46l-51.349.474q-24.507.226-49.014.46c-8.088.086-16.175.253-24.262.379-.819.013-1.638,0-2.457,0l-.021-.533c3.38-.294,6.756-.634,10.14-.872,9.849-.691,19.7-1.305,29.55-2.015,11.707-.845,23.407-1.779,35.113-2.633,7.6-.555,15.2-1.011,22.8-1.557,9.768-.7,19.533-1.457,29.3-2.174,7.055-.517,14.113-1,21.168-1.515q15.118-1.1,30.234-2.21c7.211-.52,14.425-1.008,21.636-1.525,10.234-.734,20.466-1.493,30.7-2.22,7.444-.528,14.892-1,22.336-1.538,9.924-.71,19.844-1.471,29.768-2.173,5.894-.417,11.792-.768,17.69-1.134A13.626,13.626,0,0,1,952.953,467.409Z"/><path d="M287.283,583.335c-7.508-.116-14.19-1.047-20.349-4.189-11.1-5.664-16.715-15.07-17.679-27.248-1.006-12.7,2.615-24.032,11.348-33.453,7.695-8.3,17.325-12.6,28.635-13.4a46.093,46.093,0,0,1,20.149,2.66c6.842,2.636,12.033,7.285,16.146,13.26.693,1.006.606,1.676-.462,2.258-4.37,2.379-8.746,4.749-13.094,7.168-1.315.733-2.022-.086-2.78-.882a19.477,19.477,0,0,0-9.812-6c-9.089-2.043-17.479-.514-24.189,6.162-6.729,6.7-8.939,14.979-6.378,24.247a14.8,14.8,0,0,0,9.7,10.33c9.134,3.167,17.908,2.346,25.766-3.831.306-.24.595-.5.879-.766,2.637-2.454,2.616-2.426,5.652-.254s6.1,4.3,9.183,6.4c2.284,1.556,2.36,1.89.471,3.837C311.2,579.2,299.656,583.11,287.283,583.335Z"/><path d="M455.891,581.374c-2.412,0-4.823-.02-7.234.007-1.548.018-2.049-.693-1.841-2.194q2.823-20.319,5.594-40.644,2.724-19.859,5.441-39.718c.829-6.082,1.658-12.165,2.427-18.255.224-1.77.963-2.56,2.86-2.514,4.431.109,8.867.019,13.3.042,2.593.013,2.906.395,2.54,3.095q-1.615,11.9-3.268,23.786-2.5,18.127-4.991,36.254c-1.736,12.7-3.479,25.4-5.145,38.113-.213,1.631-.975,2.084-2.449,2.052-2.41-.052-4.823-.014-7.234-.014Z"/><path d="M423.828,581.384c-2.41,0-4.822-.049-7.23.015-1.459.039-1.936-.546-1.741-1.965.718-5.232,1.364-10.474,2.076-15.707q2.714-19.968,5.463-39.931,2.7-19.622,5.416-39.238c.212-1.539.471-3.075.6-4.621.116-1.392.853-1.853,2.15-1.848,4.9.02,9.8.027,14.7-.013,1.609-.013,1.936.675,1.729,2.179-1.37,9.925-2.644,19.863-3.989,29.792q-2.706,19.972-5.469,39.937c-1.3,9.465-2.562,18.933-3.887,28.394-.42,3-.487,3-3.514,3.007C428.027,581.392,425.928,581.387,423.828,581.384Z"/><path d="M223.242,581.383c-2.256,0-4.512.029-6.767-.007-2.209-.036-2.582-.457-2.281-2.68,1.077-7.929,2.2-15.853,3.283-23.782q2.766-20.2,5.511-40.411c1.565-11.468,3.15-22.934,4.685-34.406a2,2,0,0,1,2.3-2.01q7.233.039,14.467,0c1.644-.01,2.17.66,1.941,2.305q-3.864,27.7-7.644,55.409-2.934,21.476-5.772,42.963c-.249,1.9-.96,2.765-2.956,2.651C227.759,581.284,225.5,581.383,223.242,581.383Z"/><path d="M752.889,512.252c2.449-2.317,4.712-4.909,7.415-6.9a14.39,14.39,0,0,1,12.834-2.474c1.682.463,2.05,1.308,1.38,2.909-1.86,4.449-3.585,8.956-5.489,13.386a2.262,2.262,0,0,1-1.859,1.083c-4.552-.947-7.623,1.3-10.247,4.541A23.487,23.487,0,0,0,752.3,535.4c-1.4,7.4-2.624,14.847-3.745,22.3-.948,6.3-1.657,12.642-2.452,18.967-.192,1.531-.836,2.361-2.546,2.336q-7.119-.105-14.241,0c-1.829.026-2.26-.735-2.021-2.427,1.219-8.621,2.374-17.251,3.546-25.879q2.937-21.609,5.856-43.221c.414-3.09.514-3.261,3.554-3.266,3.736-.006,7.472.05,11.207-.013,1.768-.03,2.4.73,2.162,2.412C753.352,508.515,753.122,510.433,752.889,512.252Z"/></svg>