<svg xmlns="http://www.w3.org/2000/svg" viewBox="0 0 1000 1000"><path d="M478.675,494.188c11.931,1.138,23.254,1.632,34.354,3.465a122.846,122.846,0,0,1,24.881,7c8.778,3.467,15.714,9.452,17.572,19.518,1.206,6.53-3.45,14.61-10.478,18.325-6.239,3.3-14.25,2.616-19-2.126,2.467-1.52,5.036-2.676,7.039-4.464,1.736-1.548,4.017-3.908,3.867-5.731-.141-1.729-2.856-3.982-4.9-4.706-16.911-5.989-34.462-8.467-52.31-9.1v58.876c29.646,4.262,58.111,4.663,84.983-9.157,16.811-8.646,26.768-22.147,25.061-41.641-.631-7.2-3.492-14.541-6.74-21.127-9.921-20.116-26.1-34.715-44.387-47.033a252.832,252.832,0,0,0-122.978-42.91c-14.368-1.154-28.605-.94-42.709,2.248a8.9,8.9,0,0,0-4.738,2.618c2.672.516,5.48.69,7.964,1.678,1.442.574,2.363,2.455,3.518,3.748-1.352,1.006-2.688,2.839-4.06,2.866a53.718,53.718,0,0,1-12.8-.979c-4.547-1.027-5.681-3.835-4.195-8.356,3.03-9.222,9.708-14.247,18.9-16.68A157.012,157.012,0,0,1,447.341,398c42.884,8.026,82.1,24.632,116.6,51.579,18.134,14.164,33.488,30.641,44.093,51.484,13.932,27.381,4.933,55.9-17.253,74.183-15.6,12.856-34.557,18.236-54.256,20.947a143.085,143.085,0,0,1-52.593-2.571c-1.113-.261-2.275-.319-3.715-.512-.265,1.384-.518,2.635-.743,3.892-1.167,6.532-3.112,8.4-9.342,8.956-5.661.5-10.363-2.369-11.916-7.76a44.672,44.672,0,0,1-1.8-10.276c-.155-3.479-1.69-5.187-4.73-6.629a143.739,143.739,0,0,1-44.265-31.951,62.653,62.653,0,0,1-8.459-11.661c-3.96-6.972-3.057-14.394,3.18-19.369a68.489,68.489,0,0,1,18.263-10.894c10.224-3.805,20.958-6.312,31.58-8.948,3.459-.858,4.738-1.965,5.055-5.74,1.026-12.218,2.55-24.4,4.235-36.55.27-1.947,2.225-4.985,3.627-5.117,1.734-.162,4.237,1.8,5.481,3.512,5.592,7.7,6.63,16.872,7.537,25.985C478.386,485.168,478.448,489.818,478.675,494.188Zm-23,23.23c-15.579.968-30.716,2.63-45.232,7.789-8.774,3.117-9.455,6.5-3.007,13.141,11.785,12.141,25.992,20.628,41.46,27.173,2.109.892,4.317,1.553,6.779,2.427Z"/><path d="M67.675,571.765c-8.6,4.776-17.3,7.434-26.728,6.042-18.653-2.755-31.7-16.162-35.93-36.515-4.4-21.205-.759-41.705,6.022-61.75,8.45-24.977,21.534-47.181,42.016-64.316,5.16-4.318,11.3-7.572,17.3-10.72,1.7-.89,4.5.324,6.8.574-.6,2.027-.7,4.44-1.894,6.019-8.026,10.592-17.061,20.5-24.32,31.577-18.112,27.637-26.61,58.126-23.829,91.271a56.1,56.1,0,0,0,4.422,17.241c6.192,14.335,17.039,17.569,30.1,10.239-2.1-10.743-4.912-21.151-6.048-31.738-2.557-23.831,2.982-45.247,21.334-62.094A41.893,41.893,0,0,1,99.58,456.868c10.16-1.51,19.136,3.852,22.32,14.2,7.253,23.577,4,45.975-10.649,65.788C104.735,545.673,95.8,552.7,87.6,560.9c3.268,9.3,14.258,15.34,25.606,13,16.356-3.373,28.085-13.152,36.681-27.02,9.174-14.8,13.852-31.215,16.58-48.209,5.238-32.625.791-63.649-16.826-92.052-3.893-6.276-9.6-11.41-14.2-17.283-1.442-1.841-1.992-4.378-2.95-6.6,2.467.277,5.271-.108,7.344.943a73.739,73.739,0,0,1,24.552,20.067c32.765,41.165,37.867,101.341,12.417,147.36-11.619,21.009-28.326,36.545-51.2,44.4-21.916,7.527-44.059-1.181-56.022-20.989C69.074,573.686,68.47,572.91,67.675,571.765Zm14.886-28.694c2.3-2.653,3.993-4.378,5.427-6.3,7.307-9.771,11.467-20.934,14.05-32.711,2.043-9.314,3.181-18.805.762-28.152-.778-3.008-3.668-5.472-5.592-8.184-2.285,2.1-4.689,4.086-6.8,6.348-.845.906-1.053,2.409-1.528,3.65-6.84,17.883-8.116,36.541-7.631,55.42C81.326,536.053,82,538.943,82.561,543.071Z"/><path d="M926.792,556.506c10.508-12.232,20.175-24.08,30.539-35.286a82.269,82.269,0,0,1,16.563-13.438c7.053-4.437,12.772-2.915,17.9,3.778,6.2,8.1,7.76,17.607,6.82,27.418-2.74,28.616-28.6,52.443-57.507,53.068-3.3.072-4.7,1.112-5.445,4.2-5.171,21.446-10.537,42.846-15.679,64.3-1.731,7.22-3.386,8.017-9.772,4.382-9.116-5.189-10.417-13.636-9.707-22.826a196,196,0,0,1,11.977-53.8,30.625,30.625,0,0,1,1.254-3.251c2.77-5.408,2.915-10.527.752-16.522-3.485-9.659-2.339-19.73.869-29.392,4.788-14.421,12.919-26.936,23.115-38.085,1.82-1.989,5.619-4.642,7.133-3.959,3.878,1.748,2.1,6.018.924,8.83-2.607,6.258-6.134,12.128-8.93,18.316-3.536,7.829-6.9,15.749-9.945,23.778C926.713,550.5,927.061,553.459,926.792,556.506ZM948.6,568.4a18.363,18.363,0,0,0,2.631.337c15.662-.93,31.637-14.623,34.489-30.056a38.989,38.989,0,0,0-.182-12.328c-.423-2.979-2.526-4.411-5.3-1.718C967.241,537.265,958.654,553.005,948.6,568.4Z"/><path d="M673.569,523.428c7.478.982,14.967,1.883,22.43,2.965,10.2,1.478,20.419,2.846,30.544,4.722,9.8,1.817,16.066,7.982,18.149,17.661,2.277,10.578.442,20.37-8.479,27.5-12.049,9.635-26.146,10.94-40.731,8.55-10.868-1.782-20.775-6.03-28.591-14.13-9.706-10.059-6.782-22.349,6.639-26.242,15.663-4.544,30.642-.789,45.083,5.513,3.657,1.6,3.559,4.587-.175,6.657-6.739,3.736-13.93,5.585-21.565,2.971-4.554-1.56-8.983-3.484-13.486-5.2a18.677,18.677,0,0,0-3.358-.943c-5.437-.965-10.626,1.067-10.818,4.584-.281,5.151,4.293,6.245,7.759,6.919,17.587,3.424,34.48,1.424,49.922-8.22,5.232-3.267,4.927-8.132-1.247-10.3a141.129,141.129,0,0,0-25.075-5.947c-10.017-1.557-20.213-1.922-30.286-3.175-12.67-1.576-17.476-10.147-11.168-21.3a29.473,29.473,0,0,1,12.325-11.676c22.1-10.234,45.18-11.57,68.606-4.888,3.1.885,7.829,1.4,7.55,5.882-.3,4.855-4.223,7.493-8.852,8.109-6.752.9-13.573,1.271-20.36,1.923-13.392,1.285-26.785,2.56-40.163,3.977-1.653.176-3.217,1.2-4.821,1.826Z"/><path d="M381.505,676.376h16.148c.134,2.8.258,5.394.425,8.876,6.852-5.847,13.941-10,22.784-10.286,9.156-.3,16.877,1.795,21.079,11.392,7.665-7.386,16.09-11.767,26.569-11.393,11.087.395,18.82,6.567,19.2,17.558.626,18.23.17,36.5.17,55.074H471.349c0-1.931,0-3.712,0-5.494-.023-14.127.112-28.257-.127-42.38-.153-8.985-5.228-12.852-13.824-10.047-4.589,1.5-8.758,4.571-12.745,7.447-1.208.871-1.619,3.458-1.634,5.265-.125,14.935-.071,29.871-.071,45.171H426.237c0-1.791,0-3.557,0-5.323-.014-14.127.089-28.256-.085-42.381-.111-8.993-5.154-12.968-13.732-10.206-4.6,1.48-8.781,4.528-12.783,7.383-1.215.867-1.659,3.448-1.674,5.251-.128,14.942-.073,29.886-.073,45.235H381.505Z"/><path d="M235.321,557.425c-7.8,0-14.776-.181-21.73.148a5.724,5.724,0,0,0-4.052,3.171c-2.476,6.851-4.533,13.853-6.7,20.814-1.234,3.962-2.659,7.527-7.8,7.67-5.16.144-8.772-2.585-9.63-7.015-1.041-5.372-.817-11.084-.431-16.6.213-3.039,1.641-6.087,2.948-8.935,2.153-4.691,1.99-8.819-1.455-12.906-1.011-1.2-1.859-3.691-1.269-4.754s3.1-1.618,4.711-1.5c3.442.245,4.9-1.3,6.219-4.287,6.864-15.524,14.715-30.506,25.346-43.885a15.435,15.435,0,0,0,3.208-5.535c.805-3.337,2.259-5.432,5.873-5.637,3.792-.215,6.034,1.973,7.108,5.14,2.711,8,5.617,15.98,7.574,24.175a325.754,325.754,0,0,1,8.648,63.043c.065,1.66.439,3.426.015,4.963-.913,3.3-2.253,6.492-3.417,9.728-2.9-1.685-6.159-2.96-8.609-5.142-4.51-4.017-5.309-9.753-5.821-15.453C235.834,562.174,235.557,559.728,235.321,557.425Zm-1.594-21.7c-1.527-8-2.911-15.255-4.3-22.51l-1.714-.093-9.889,23.489Z"/><path d="M855,514.35c-3.911-1.5-7.809-2.323-10.858-4.391-2.183-1.481-3.231-4.631-4.785-7.036,2.136-1.3,4.152-3.434,6.429-3.763q22.689-3.273,45.479-5.834c8.722-.968,15.016,3.312,19.4,10.6,3.032,5.043,1.944,8.609-3.826,9.473a251.826,251.826,0,0,1-27.269,2.344c-9.423.373-7.126-1.372-10.134,7.823-.355,1.086-.485,2.244-.854,4.015,7.024,0,13.77-.035,20.515.013,4.543.032,7.648,1.7,8.07,6.823.562,6.826-.921,8.663-7.928,8.829-6.992.166-13.987.2-20.98.288-3.807.045-6.608,1.062-7.485,5.479-.767,3.865-2.33,7.572-3.8,12.16,2.469-.147,4.357-.109,6.193-.4,8.705-1.364,17.412-2.729,26.086-4.273,4.8-.854,7.578,1.376,9.474,5.4,1.859,3.941,1.5,7.4-2.127,10.193-10.438,8.036-21.947,13.876-35.042,15.933s-24.047-6.59-24.575-19.866c-.216-5.445,1.226-11.137,2.874-16.418,1.359-4.354,2.679-8.257,1.442-12.976-1.543-5.887-.168-7.44,5.664-9.469a6.5,6.5,0,0,0,3.558-2.966C852.261,522.432,853.549,518.333,855,514.35Z"/><path d="M772.9,531.638c-.3,3.245-.7,6.485-.885,9.736-.683,11.936-1.187,23.883-2,35.809-.263,3.875-1.28,7.771-6,8.683-3.72.719-8.7-2.161-9.625-7.054a101.384,101.384,0,0,1-2.122-23.6,146.059,146.059,0,0,1,9.3-43.66,29.813,29.813,0,0,1,2.282-4.963c2.9-4.836,6.451-5.339,10.566-1.423a29.981,29.981,0,0,1,4.078,5.015q13.072,19.443,26.055,38.949a12.433,12.433,0,0,0,4.669,4.472c.09-1.794.318-3.592.249-5.38-.65-16.911-5.317-33.035-9.745-49.207a62.585,62.585,0,0,1-2.379-10.155c-.182-1.843.579-4.472,1.895-5.531.918-.738,3.637.3,5.3,1.083a11.411,11.411,0,0,1,3.761,3.213c18.026,22.282,24.485,47.5,18.425,75.541-.934,4.321-3.667,8.61-6.572,12.078-5.853,6.987-14.766,7.007-19.943-.362-6.566-9.346-12.171-19.374-18.012-29.214-2.764-4.656-5.112-9.558-7.648-14.348Z"/><path d="M307.082,480.534c2.915,15.615,16.465,15.815,27.3,19.7,1.221.438,3.465-.919,4.784-1.994,4.575-3.73,8.489-8.5,13.506-11.407,8.471-4.914,17.769-2.673,22.733,4.305,5.62,7.9,5.162,19.45-2.2,25.376-4.166,3.354-9.844,5.11-15.105,6.734-3.027.934-6.581.169-10.92.169-1.394,11.148-3.511,22.1-3.946,33.108-.522,13.242.395,26.54.672,39.814.071,3.411,1.132,7.267-2.978,9.218-4,1.9-7.489.171-10.614-2.238-8.032-6.19-10.664-14.992-11.292-24.539-1.247-18.95,1.522-37.405,7.373-55.435.453-1.4.861-2.812,1.352-4.425-4.044-1.877-8.357-3.118-11.726-5.623-4.84-3.6-9.774-7.558-13.245-12.383C298.249,494.629,300.542,485.364,307.082,480.534Zm46.654,22.535c4.547-1.1,8.405-1.686,11.954-3.066,1.374-.534,2.047-2.863,3.039-4.375-1.675-.745-3.394-2.2-5.017-2.1C358.547,493.842,355.628,497.135,353.736,503.069Z"/><path d="M288.66,677.182l-15.632,4.378c-.749-1.777-1.377-3.1-1.873-4.468-3.062-8.446-8.281-14.277-17.855-15.083-10.927-.921-19.74,2.474-25.139,12.441-4.84,8.936-5.745,18.719-4.7,28.575a62.033,62.033,0,0,0,3.842,16.366c4.184,10.434,12.826,15.254,24.68,14.82,10.292-.378,16.909-5.594,20.767-16.383.548-1.532,1.053-3.079,1.653-4.837l15.16,3.434c-.536,14.93-14.484,29.868-30.058,32.464-28.4,4.734-49.416-11.346-52.644-40-1.594-14.151-.8-27.874,5.858-40.752,10.733-20.757,38.943-28.74,59.036-16.691C281.339,657.19,286.051,666.229,288.66,677.182Z"/><path d="M503.691,676.391h16.021c.162,2.762.311,5.305.4,6.9,5.871-2.663,11.539-6.436,17.738-7.8,13.665-3.01,25.409,4.161,30.214,17.594a54.756,54.756,0,0,1,.473,36.18c-6.248,19.085-29.012,25.906-45.149,13.8-.875-.656-1.743-1.319-3.424-2.593v33.978H503.691Zm16.277,36.1h.278c0,4.793-1.4,10.183.333,14.237,2.513,5.874,8.783,8.426,15.184,8.91,6.047.458,11.6-1.059,15.176-6.6,5.069-7.842,4.775-25.723-.507-33.427-4.034-5.885-11.111-8.3-18.544-5.522-8.3,3.108-13.185,6.073-11.979,14.445A56.209,56.209,0,0,1,519.968,712.492Z"/><path d="M625.941,479.524a12.952,12.952,0,0,1-.877.989q-3.33,2.922-6.677,5.826c-2.012-2.673-5.446-5.2-5.737-8.05-.577-5.664-2.707-10.318-5.234-15.216-2.843-5.512-2.5-11.608-.365-17.462,6.662-18.261,34.57-35,53.8-31.636,10.59,1.852,18.9,9.022,27.385,14.946,5.773,4.031,5.51,11.256,3.224,17.885-6.412,18.592-38.6,37.567-57.989,34.135C631.034,480.509,628.6,480.027,625.941,479.524Zm7.869-14.84a45.5,45.5,0,0,0,22.387-1.718c9-2.9,17.245-7.245,22.622-15.461,2.2-3.356,3.116-7.177.284-10.68-2.608-3.226-6.136-3.688-9.952-2.305C653.9,440.052,643.759,451.481,633.81,464.684Zm6.666-31.935c-13.318.887-26.725,16.112-21.724,23.868Z"/><path d="M544.248,355.757H527.714v-5.511c0-13.3.085-26.606-.033-39.908-.1-11.152-5.948-15.558-16.583-12.025-4.145,1.377-7.984,4.046-11.507,6.725-1.345,1.023-1.952,3.711-1.976,5.653-.167,13.134-.087,26.272-.086,39.408v5.637H481.218V256.5H497.44v37.315c7.347-6.224,14.524-9.625,22.86-10.553,14.116-1.57,23.557,5.936,23.86,20.078C544.53,320.612,544.248,337.9,544.248,355.757Z"/><path d="M624.859,700.29c.584-8.436-2.923-11.986-11.757-11.771-8.876.216-16.383,3.941-23.742,9.657l-7.766-9.982c10.53-11.547,34.206-16.827,47.933-10.973a17.873,17.873,0,0,1,11.348,15.768c.737,8.758.715,17.588.834,26.389.125,9.274.028,18.552.028,28.523-3.536,0-8.278.128-13-.112-.9-.046-2.1-1.393-2.519-2.4a23.944,23.944,0,0,1-1.062-4.666c-6.024,2.5-11.9,5.266-18.01,7.332-2.9.979-6.258.9-9.395.813-7.429-.207-13.983-2.689-17.252-9.8-3.348-7.285-2.574-14.657,2.118-21.281,4.434-6.259,10.994-9.662,18.113-11.707C608.527,703.833,616.517,702.258,624.859,700.29Zm.251,11.776c-4.216.76-7.813,1.311-11.363,2.081a31.8,31.8,0,0,0-7.129,2.121c-3.24,1.571-6.721,3.135-9.245,5.581-4.629,4.488-2.715,11.534,3.242,13.6,6.285,2.181,19.288-1.454,23.479-6.617a3.951,3.951,0,0,0,.971-2.169C625.152,721.91,625.11,717.155,625.11,712.066Z"/><path d="M620.887,325.815h-48.36c.264,7.383,2.541,13.4,9.154,16.317,11.085,4.887,21.072,2.047,30.088-6.021l7.973,8.451c-7.381,10.517-24.726,15.718-39.622,11.813-13.673-3.584-23.118-14.887-23.976-29.743a65.915,65.915,0,0,1,1.284-18.775c3.717-15.661,19.012-26.1,34.85-24.65,16.637,1.525,26.911,12.379,28.559,30.425C621.182,317.41,620.887,321.246,620.887,325.815ZM605.561,313.16c-.066-10.626-6.251-16.666-16.51-16.4-9.309.238-16.069,7.21-15.685,16.4Z"/><path d="M726.217,676.541a6.038,6.038,0,0,1,.834-.242c15.769-1.048,15.757-1.043,21,13.749,4.408,12.443,8.85,24.874,13.752,38.645,3.448-9.774,6.455-18.315,9.473-26.851,2.985-8.442,5.981-16.88,9.029-25.479h16.152c-.541,1.687-.941,3.181-1.491,4.617q-14.167,36.944-28.388,73.865c-1.012,2.626-2.207,5.192-3.468,7.71-3.868,7.721-10.017,12.579-18.752,12.869-6.544.217-13.126-.671-20.348-1.107,1.447-5.245,2.577-9.342,3.815-13.828,3.326.387,6.4.816,9.49,1.093,11.35,1.019,18.13-7.984,14.07-18.6q-11.736-30.679-23.425-61.374C727.321,679.942,726.8,678.233,726.217,676.541Z"/><path d="M369.42,711.131c-.019,21.885-12.218,36.54-30.728,37.888-25.109,1.829-40.422-14.226-38.979-40.474,1.726-31.386,30.632-38.79,49.6-30.686C364.317,684.265,369.164,696.918,369.42,711.131Zm-16.169,1.329c-.795-4-1.2-8.183-2.493-12.079-2.476-7.47-8.44-11.34-16.417-11.317s-13.739,3.974-16.28,11.519a36.29,36.29,0,0,0,.132,23.522c2.506,7.5,8.387,11.321,16.451,11.276s13.785-3.921,16.238-11.524C352.043,720.258,352.454,716.418,353.251,712.46Z"/><path d="M423.145,271.933h-30.62V256.606h77.95v15.129H440.22v83.823H423.145Z"/><path d="M719.8,747.724H703.834c-.108-1.92-.289-3.674-.292-5.429-.025-13.293-.2-26.589.035-39.878.24-13.666-7.564-15.532-18.382-12.344a24.916,24.916,0,0,0-4.05,1.894c-5.585,2.828-8.575,6.58-8.223,13.634.69,13.885.2,27.829.2,42.034H657.06v-71.23h16.023v8.917c6.675-3.3,12.911-7.706,19.831-9.555,16.394-4.379,27.062,4.47,27.1,21.371q.05,22.929,0,45.86C720.01,744.456,719.886,745.914,719.8,747.724Z"/><path d="M259.045,551.017c1.05-19.663,4.193-37.748,11.686-54.824a51.728,51.728,0,0,1,7.613-12.151c3.282-3.936,7.577-3.006,8.374,1.957a46.488,46.488,0,0,1-.372,15.164c-2.623,14.846-5.768,29.6-8.685,44.395a14.44,14.44,0,0,0-.243,2.973c.086,6.04,1.292,6.839,6.745,4.578,5.982-2.479,11.875-5.233,18.01-7.255,2.391-.788,6.693-.918,7.713.448,1.579,2.113,2.033,6.016,1.315,8.724-3.442,12.979-20.309,24.942-33.755,24.489-8.985-.3-15.218-6.761-17.294-18.24C259.475,557.532,259.322,553.7,259.045,551.017Z"/><path d="M625.866,546.75c1.218-11.738,2.579-25.438,4.116-39.119a26.4,26.4,0,0,1,2-7.158c1.965-4.67,5.192-5.476,8.242-1.4a22.979,22.979,0,0,1,4.542,11.271c1.641,20.695,2.728,41.435,3.976,62.161a19.88,19.88,0,0,1-.227,3.481c-.808,6.839-2.758,9.105-8.031,9.391-7.14.387-11.55-2.3-12.342-8.749C627.013,567.413,626.687,558.1,625.866,546.75Z"/></svg>