<svg id="Layer_1" data-name="Layer 1" xmlns="http://www.w3.org/2000/svg" viewBox="0 0 1000 1000"><path d="M611.75,554.41c45.52-29.18,61.9-66.59,50.31-121.63-9.73-46.23-42.66-69.26-86.91-78.43a167.74,167.74,0,0,0-32.68-3.46c-58.46-.41-116.92-.79-175.38-.27-51.91.46-43.22-8.54-44.5,45-.29,12.28,3.32,18.79,16.6,17.27a76.15,76.15,0,0,1,8.68,0c28.16.06,27.67.12,30.79,28,.56,5,6.91,13.19,10.81,13.32,32.12,1.08,64.29.61,96.44.61-1.41-2.55-2.93-3.46-4.45-3.44-9,.12-16-3.48-13-13,1.43-4.62,8.92-10.25,13.84-10.41,19.6-.66,39.41-.64,58.86,1.58,22.61,2.59,34.35,16.14,34.8,36.09.41,18.64-10.75,34.58-31.44,37.53-22.14,3.16-44.9,2.39-67.38,2.23-3.1,0-8.71-6.48-8.6-9.82.14-4.37,4.2-9.23,7.77-12.63,1.9-1.81,6.32-1,9.61-1.36l-1-2.89H346.12c-23.28,0-23.28.1-23.41,22.63-.21,38.49-.22,39,37.51,39.27,13.65.09,18.34,4.82,18.06,18.2-.65,31.1.39,62.23-.46,93.32-.41,15.16,3.75,22.53,20.35,21.4a416.76,416.76,0,0,1,48.59-.07c14.72.74,19.27-5.77,18.81-19.56-.71-20.71-.53-41.49.13-62.21.16-5.07,2.21-12.21,5.89-14.63,10.68-7,35.85-.22,43.19,10.51,10.1,14.75,21.59,28.87,29.55,44.72,15.49,30.87,36.89,48.59,73.52,41.38,4.93-1,10.35.88,15.55,1,12.42.17,24.84,0,42.18,0l-76.15-112C605.13,558.86,608.39,556.56,611.75,554.41Z"/><path d="M500,0C223.86,0,0,223.86,0,500s223.86,500,500,500,500-223.86,500-500S776.14,0,500,0ZM826.82,671.71c0,12.38-3.71,19.85-14.8,26.18Q662.13,783.41,512.89,870.07c-9.93,5.76-17.41,4.89-27-.66Q329.66,779.26,173,689.86V312.8c42-24,84.15-47.86,126-72.11Q397.77,183.56,496.21,126h7Q606.59,186.09,710,246.14c33.51,19.42,67,38.9,100.87,57.66,11.39,6.31,16.15,13.89,16.09,27.35Q826.15,501.43,826.82,671.71Z"/></svg>