<svg id="Layer_1" data-name="Layer 1" xmlns="http://www.w3.org/2000/svg" viewBox="0 0 1000 1000"><path d="M681.68,370.29H318.32q-30.48.73-51.23,21.06T245.68,443V647.89q.69,31.22,21.41,51.58t51.23,21.06H681.68q30.48-.69,51.23-21.06t21.41-51.58V443q-.69-31.28-21.41-51.62T681.68,370.29ZM427.32,544q-.69,16-10.9,26.16c-6.78,6.82-15.26,10.2-25.42,10.2s-18.64-3.41-25.42-10.2-10.44-15.5-10.9-26.16V512A35.89,35.89,0,0,1,391,475.67q15.24,0,25.42,10.16T427.32,512Zm218,0q-.69,16-10.9,26.16c-6.78,6.82-15.26,10.2-25.42,10.2s-18.64-3.41-25.42-10.2-10.44-15.5-10.9-26.16V512q.69-16,10.9-26.16T609,475.67q15.24,0,25.42,10.16T645.32,512Z"/><path d="M500,0C223.86,0,0,223.86,0,500s223.86,500,500,500,500-223.86,500-500S776.14,0,500,0ZM827,645.71q-1.47,61.71-42.51,102.81T681.68,791H318.32q-61.71-1.47-102.81-42.51T173,645.71V445.15q1.47-61.77,42.51-102.46t102.81-42.9h21.1l-32-30.52a35.1,35.1,0,0,1,0-49.4l.74-.74c7.28-6.78,15.61-10.16,25.07-10.16s17.79,3.38,25.07,10.16L436,294a53,53,0,0,1,5.1,5.8H557.42a22.65,22.65,0,0,1,4.36-5.8l77.74-74.86c7.28-6.78,15.61-10.16,25.07-10.16s18,4.11,25.32,10.9a32.3,32.3,0,0,1,10.65,24.72,33.6,33.6,0,0,1-10.16,24.68l-32,30.52h23.28q61.71,2.22,102.81,42.9T827,445.15Z"/></svg>