<svg xmlns="http://www.w3.org/2000/svg" viewBox="0 0 1000 1000"><path d="M521.5,794.5c-2,56-5,111-7,166,0,6-1,11-4,16s-7,7-13,8c-5-1-10-3-13-8a56.625,56.625,0,0,1-3-18c-5-106-10-213-14-319a48.449,48.449,0,0,1,0-17c0-15,12-27,28-28a29.693,29.693,0,0,1,33,22c1,5,2,11,1,17C527.5,686.5,524.5,740.5,521.5,794.5Zm148-318c98,4,197,8,295,12,5,1,11,0,14,3,5,3,10,9,10,14,0,4-5,10-10,13a56.625,56.625,0,0,1-18,3c-111,5-221,9-331,14-16,1-29-2-37-17-11-21,5-45,31-45C638.5,473.5,653.5,475.5,669.5,476.5Zm-216,112c-4,7-10,13-15,19-68,67-137,134-205,201-14,13-28,27-42,41-16,15-22,15-38-1l-9-9c-14-15-14-20,0-34,83-81,166-162,249-242,7-7,14-17,24-9C430.5,563.5,441.5,576.5,453.5,588.5Zm131-39c7,4,13,9,19,14l162,159c28,27,57,55,85,83,7,7,15,20,0,36-4,3-7,7-11,10-14,12-26,6-34-1-30-29-60-59-91-89l-150-147c-25-25-25-25,1-50C571.5,558.5,577.5,554.5,584.5,549.5Zm-131-128c-12,12-23,25-36,34-10,8-18-3-25-9l-246-240c-17-17-17-21,0-39,3-2,5-5,8-7,15-15,21-16,36-1,19,18,38,37,57,55,63,63,127,125,190,187C443.5,407.5,448.5,414.5,453.5,421.5Zm411-236c-3,6-7,11-11,16-84,82-169,165-253,248-13,12-19,11-32-1-29-26-29-28-1-56,79-78,158-155,237-232,16-15,20-16,36,0C848.5,167.5,856.5,176.5,864.5,185.5Zm-382-136c2-33,29-35,31,0,6,109,11,218,16,327,2,28-17,45-40,38-16-4-23-14-22-35,1-54,4-108,6-162C476.5,161.5,478.5,105.5,482.5,49.5Zm-450,471c-37-4-34-29-1-31,113-6,226-11,340-16,21-1,36,13,35,32,0,19-14,31-37,30-92-4-184-8-277-12C72.5,522.5,52.5,522.5,32.5,520.5Z"/></svg>