<svg xmlns="http://www.w3.org/2000/svg" viewBox="0 0 1000 1000"><path d="M163.827,348.112c4.124.478,8.238,1.061,12.373,1.4,2.483.2,3.469,1.1,2.972,3.686q-5.1,26.53-10.051,53.088c-.486,2.612-2.172,2.849-4.263,2.832-8.473-.069-16.954-.358-25.418-.09-10.011.317-16.606,5.836-19.22,15.446a38.755,38.755,0,0,0-.631,3.995c5.06,0,9.747.052,14.432-.014q7.911-.111,15.819-.4c3.285-.122,4.369.936,3.669,4.455-3.324,16.712-6.447,33.466-9.51,50.229-.58,3.174-2.094,4.482-5.29,4.474-8.891-.021-17.784.258-26.672.124-3.4-.052-4.9,1-5.574,4.439-11.336,58.2-22.827,116.381-34.124,174.593-.838,4.318-2.374,6-7,5.93-19.165-.291-38.335-.184-57.5-.223v-3.331c.2-.663.445-1.315.576-1.99q16.911-87.519,33.865-175.029c.738-3.8-.661-4.664-4.038-4.6-8.193.145-16.391.045-24.584.2-3.466.064-4.677-.9-3.877-4.65,3.614-16.934,7-33.918,10.4-50.9.539-2.692,1.642-4.116,4.682-4,8.6.343,17.211.371,25.81.723,2.664.109,4.114-.413,4.555-3.353a101.429,101.429,0,0,1,2.52-11.353c8.6-31.757,27.386-53.759,60.218-61.975,6.829-1.709,13.891-2.491,20.846-3.7Z"/><path d="M992.177,348.112c-2.541,4.756-4.927,9.6-7.647,14.252-15.768,26.954-31.639,53.847-47.388,80.812a5.751,5.751,0,0,1-5.674,3.28c-4.723-.112-9.458-.164-14.174.057-3.37.158-4.71-1.309-5.146-4.474q-3.321-24.1-6.829-48.182c-1.007-7-2.256-13.968-3.086-20.987-.357-3.026-1.632-4-4.538-3.954-8.755.127-17.516.226-26.267.011-3.7-.091-5.054,1.467-5.875,4.825-5.469,22.373-11.229,44.676-16.583,67.077-1.044,4.368-2.826,5.975-7.31,5.691-5.911-.374-11.864-.092-18.743-.092,6.182-25.974,12.187-51.2,18.327-77H813.705c2.038-7.5,3.916-14.408,5.795-21.319H924.608a16.888,16.888,0,0,1,.731,2.8c1.474,16.521,2.9,33.047,4.362,49.568.346,3.909.807,7.807,1.256,12.092.843-.634,1.29-.8,1.461-1.122q16.971-31.656,33.9-63.336Z"/><path d="M659.294,502.611c-4.645-20.749-10.928-40.8-25.13-58.241,4.1-2.786,7.708-5.51,11.566-7.811,44.753-26.68,105.67-22.134,145.84,11.025,21.48,17.732,33.031,41.082,37.267,68.223a141.771,141.771,0,0,1-12.37,84.356c-19.616,41.216-51.8,67.162-97.043,75.308-34.278,6.172-66.865.778-95.76-19.623-20.96-14.8-36.612-33.955-40.684-60.076-1.975-12.665-1.3-25.719-2.42-38.546-.924-10.6-1.854-21.323-4.3-31.632-5.459-22.959-19.475-38.109-43.4-42.293-35.735-6.251-67.655,13.924-77.51,48.814-5.5,19.464-5.389,38.795,4.154,57.1,8.8,16.874,23.28,25.651,42.22,26.9,21.986,1.446,40.754-5.444,55.636-22.019a26.208,26.208,0,0,1,2.448-2.017c.709,3.76,1.3,6.939,1.908,10.115,3.279,17.112,10.058,32.6,21.868,45.579,3,3.3,1.974,4.9-1.072,7.062-14.581,10.342-31.031,16-48.371,19.386-21.816,4.266-43.6,4.589-65.261-1.076-13.255-3.467-25.2-9.434-35.393-18.706-.594-.541-1.262-1-2.665-2.1-.847,4.295-1.648,7.98-2.289,11.692-1.245,7.2-1.208,7.2-8.689,7.217q-25.023.063-50.048.131c-5.272.009-5.509-.285-4.5-5.488q16.221-83.709,32.457-167.415,13.882-71.664,27.67-143.346c.667-3.486,1.92-4.9,5.663-4.856,17.793.2,35.59.191,53.384.081,3.881-.024,5.074.95,4.25,5.058-5.017,25.012-9.79,50.073-14.629,75.121-.253,1.308-.369,2.642-.676,4.906,2.081-1.013,3.38-1.63,4.665-2.274,44.4-22.256,112.564-11.954,143.711,37.927,7.882,12.622,11.867,26.636,13.436,41.217,1.436,13.351,1.758,26.819,2.665,40.229,1.285,18.993,6.893,36.35,20.945,49.857,15.5,14.9,34.29,16.33,54.109,11.542,28.577-6.9,48.26-29.294,52.112-58.808,1.523-11.661,1.388-23.195-1.559-34.675q-7.4-28.808-35.982-36.739c-21.074-5.843-40.774-3.3-58.283,10.5-3.2,2.524-5.755,5.87-8.608,8.837Z"/><path d="M286.906,660.431c-5.752,2.847-10.93,5.818-16.409,8.055-30.086,12.279-60.129,12.806-89.53-1.9C159.816,656,149.754,637.437,146.08,614.847c-3.332-20.493-.239-40.61,3.563-60.695q11.605-61.3,23.122-122.608c1.13-6,1.1-6.023,7.14-6.025q27.527-.01,55.052,0c5.828,0,5.962.182,4.861,5.859-8.446,43.554-16.985,87.09-25.278,130.672-1.965,10.324-3.5,20.717-2.273,31.386,1.657,14.348,10.638,23.692,24.953,25.982,21.474,3.436,43.073-9.411,53.218-28.851,6.579-12.606,9.6-26.275,12.411-40q12.267-59.9,24.307-119.846c.631-3.127,1.723-4.708,5.387-4.706,18.066.008,36.132-.3,54.2-.476,5.462-.052,5.635.243,4.541,5.745Q368.16,547.548,345.066,663.819c-1.341,6.751-1.29,6.715-8.173,6.808-15.563.212-31.125.491-46.688.705-5.288.073-5.484-.23-4.377-5.417C286.2,664.2,286.507,662.467,286.906,660.431Z"/></svg>