<svg xmlns="http://www.w3.org/2000/svg" viewBox="0 0 1000 1000"><path d="M173.34,768.019c.552.592,1.4,1.1,1.6,1.8,6.578,23.227,14.154,28.294,44.008,16.773,19.88-7.672,37.273-21.83,55.687-33.235,6.123-3.792,6.237-8.863,2.568-14.731-28.322-45.3-22.979-87.28,12.5-126.347,29.886-32.909,34.828-70.376,20.073-111.417-22.225-61.817-13.448-119.009,24.7-173.16-4.274,3.676-9.05,6.909-12.746,11.1-40.228,45.576-51.77,97.846-36.157,156.409,3.5,13.111,6.747,26.3,9.672,39.545,3.341,15.133,1.365,29.548-7.647,42.5-10.353,14.88-20.94,29.6-31.327,44.454-11.7,16.731-21.156,34.232-21.632,55.529-.081,3.593-3.937,7.89-7.156,10.492-17,13.736-36.1,22.87-58.229,24.716a49.117,49.117,0,0,0-7.267,1.311c-.7.167-1.242.991-2.707,2.239,1.772,7.773,3.659,16.05,4.815,21.119l-53.488,38.733C104.925,766.035,98.82,755.5,92.18,744.03c24.377-8.372,35.769-37.343,66.566-35.661-1.548-8.665-2.048-16.451-4.651-23.455-.967-2.6-7.853-5.669-10.34-4.594a398.918,398.918,0,0,0-37.916,19.041c-8.7,4.919-16.687,11.092-26.6,17.792L64.982,681.659l85.527-45.278V609.013c-13.7-2.818-25.286,2.254-36.378,8.4-7.9,4.381-15.068,10.073-22.844,14.708-5.989,3.57-12.162,7.128-18.7,9.424-14.992,5.269-19.492,2.546-23.13-12.69-1.613-6.757-3.1-13.543-5.036-22.013,29.055,1.883,50.418-14.026,72.934-27.394,7-4.155,14.948-8.947,22.623-9.24,13.987-.532,18.422-7.105,19.157-19.63.378-6.443,2.69-12.772,4.422-20.458-13.182-3.161-24.941.639-35.811,5.682-14.15,6.564-27.036,15.943-41.349,22.034-11.863,5.048-24.908,7.54-37.619,10.28-7.1,1.531-11.641-1.36-11.432-10.015.174-7.256-1.209-14.549-2.034-23.212,32.857,2.718,58.055-14.245,84.986-27.5,14.685-7.23,31.974-9.1,47.969-13.8,3.319-.975,7.5-3.065,8.892-5.841,5.531-10.99,10.114-22.457,15.841-35.562-15.257-3.867-29.931-3.84-43.758,1.192-15,5.459-29.464,12.634-43.624,20.084C83.928,484.878,62.2,495.187,33.662,490.426c3-25.358,4.418-50.779,9.193-75.553C72.531,260.9,152.748,142.152,291.221,65.8c68.889-37.984,143.65-56.04,222.266-51.208,204.34,12.56,338.5,122.2,416,306.855,20.828,49.625,31.065,102.289,32.86,156.321.134,4.04.017,8.089.017,12.77-18.868,3.638-35.776-.488-51.895-8.241-15.945-7.67-31.247-16.706-47.326-24.06-17.891-8.184-36.733-11.035-57.717-6.042,5.679,13.279,10.678,25.71,16.454,37.769.992,2.071,5.294,3.611,8.063,3.605,18.722-.043,35.163,6.659,51.593,14.933,18.246,9.19,37.134,17.243,56.209,24.575,6.969,2.679,15.28,1.866,23.181,2.666a15.508,15.508,0,0,1,.99,3.57c.673,30.711-6.336,36.192-35.369,25.146-13.341-5.075-25.6-13.065-38.181-20.049-15.94-8.85-32.178-16.34-53.314-15.021,2.438,12.342,4.429,23.824,7.217,35.109.447,1.809,4.348,2.992,6.833,4.033,14.638,6.135,30.054,10.843,43.827,18.511,18.509,10.3,36.4,21.052,60.747,19.322-2.565,11.426-4.425,21.745-7.454,31.708-.711,2.339-5.979,5.484-8.109,4.835a259.243,259.243,0,0,1-32.963-12.188c-14.454-6.656-28.252-14.735-42.707-21.389-4.066-1.873-9.447-.89-14.677-1.248V636.3l85.4,45.411c-3.757,9.462-8.359,21.057-14.114,35.553-10.347-7.057-18.76-13.253-27.624-18.718-10.03-6.184-19.932-13.174-30.859-17.151-13.589-4.947-16.369-2.336-18.744,11.518-.758,4.422-1.139,8.909-1.417,11.144,12.19,6.292,23.758,11.2,34.145,17.926,10.232,6.627,19.269,15.1,30.253,23.9L887.8,775.964c-17.571-12.777-34.5-25.089-53.48-38.891,1-4.427,2.868-12.706,5.038-22.319-3.79-.845-7.161-1.989-10.607-2.3-23.013-2.084-42.68-11.826-60.073-26.451-2.788-2.345-5.814-6.558-5.723-9.824.541-19.29-7.965-35.136-18.173-50.281-9.208-13.662-18.7-27.18-28.864-40.138-14.17-18.067-16.265-37.78-11.462-59.541,5.479-24.83,12.477-49.748,14.057-74.926,2.981-47.482-16.006-87.406-49.932-120.353-1.323-1.285-3.163-2.038-6.314-1.713,2.307,3.591,4.542,7.231,6.931,10.767,30.951,45.817,39.173,95.068,23.089,148.3-4.27,14.131-7.188,28.676-10.59,43.063-5.05,21.353-.283,40.907,11.645,58.836,7.984,12,15.966,24.082,24.961,35.316,25.312,31.615,26.953,64.773,9.11,100.386-11.591,23.135-11.058,23.526,9.938,39.051,17.388,12.857,36.123,22.706,57.867,26.231,12.419,2.014,21.432-1.1,24.632-14.06,2.783-11.274,10.115-11.512,17.306-6.275,11.873,8.647,22.673,18.767,34.751,28.963l-21.268,28.329-38.973-34.391-11.7,21.189,5.614-4.693c10.023,11.163,20.045,22.327,31.594,35.191l-29.944,27.609c-8.236-8.9-16.433-17.764-25.4-27.462l-12.844,16.6,21.577,27.462-29.218,22.947c-13.8-22.63-26.875-44.753-40.645-66.431-12.8-20.147-22.4-40.981-18.918-66.134-9.761,13.539-14.774,28.3-10.174,43.866,4.386,14.836,11.144,29.057,17.776,43.116,5.788,12.271,14.193,23.42,19.083,35.983,11.371,29.209,9.875,26.684-13.391,38.334-14.366-32.705-28.571-65.579-43.234-98.247-10.83-24.128-8.534-47.063,4.146-69.767,11.235-20.115,22.663-40.182,32.632-60.93,12.317-25.637,10.473-51.26-4.807-75.359-8.154-12.86-16.511-25.727-26.1-37.514-21.763-26.753-25.194-55.534-15.034-88.073,8.042-25.753,16.419-52.237,18.417-78.864,3.852-51.31-17.325-93.3-56.421-125.927l-3.213,1.549c1.872,3.04,3.557,6.215,5.644,9.1,34.764,48.062,41.661,99.9,22.045,155.786-6.388,18.2-11.734,36.813-16.5,55.506-6.192,24.258-.146,46.575,13.647,66.9,9.023,13.293,18.665,26.165,28.007,39.241,18.3,25.618,20.122,52.585,5.445,80.223-9.65,18.17-20.246,35.849-30.732,53.562-17.645,29.8-18.389,59.85-2.432,90.568q12.24,23.564,23.551,47.607a180.968,180.968,0,0,1,8.926,22.992c8.58,27.282,4.7,33.282-25.012,38.961.533-27.709-10.241-52.089-22.062-76.2-6.341-12.934-12.109-26.149-18.435-39.091-13.12-26.84-10.013-52.686,4.576-77.782,8.9-15.316,18.153-30.43,27.307-45.6,22.757-37.707,22.171-73.953-6.614-108.524-2.633-3.162-4.716-6.792-7.423-9.881-30.914-35.272-33.781-73.933-15.875-116.23,8.782-20.745,17.865-42.143,21.515-64.126,8.784-52.906-7.884-98.3-47.987-134.511-1.95-1.761-4.625-2.719-9.247-2.3,1.78,3.2,3.338,6.551,5.374,9.581q48.1,71.6,16.081,151.66c-7.157,17.961-14.593,35.831-21.083,54.034-13.208,37.042-7.565,71.3,16.457,102.532,6.028,7.838,11.907,15.809,17.487,23.97,16.577,24.247,18.676,49.917,5.168,75.927a584.225,584.225,0,0,1-30.036,51.061c-23.063,35.155-25.268,70.65-6.782,108.721,11.991,24.7,20.984,50.851,31.231,76.388a28.327,28.327,0,0,1,1.663,7.188c3.179,27.009-1.586,32.293-31.312,33.183,5.245-46.794-16.764-86.19-35.1-126.494-13.549-29.783-12.258-58.208,4.577-86.061,10.44-17.271,21.051-34.439,31.489-51.711,20.605-34.1,19.9-66.89-5.649-98.483-13.812-17.078-25.825-35.106-29.162-57.723-1.416-9.6-8.217-13.134-17.42-9.53-22.536,8.826-44.871,8.693-67.419-.025C455.292,554.72,450.881,560,447.3,569.323c-6.121,15.918-13.627,31.334-21.168,46.656-2.688,5.461-7.118,10.076-10.84,15.012-20.186,26.768-22.438,55.174-6.675,84.533,8.368,15.583,18.636,30.14,27.165,45.645,7.506,13.645,15.08,27.5,20.293,42.1,7.194,20.145.916,39.627-6.69,58.695-11.1,27.821-22.741,55.5-32.037,83.933-4.23,12.937-3.4,27.53-5.116,43.791-8.1-1.877-17.6-3.4-26.5-6.6-2.317-.835-3.79-6.895-3.866-10.593-.461-22.363,7.113-42.8,16.027-62.841,8.024-18.043,16.293-35.983,23.976-54.171,10.985-26,8.966-51.668-4.291-76.21-8.408-15.564-18.343-30.3-27.095-45.684-5.685-10-11.622-20.1-15.42-30.868-7.476-21.2-6.241-42.226,6.195-61.624,6-9.354,12.332-18.545,19.189-27.281q38.849-49.491,16.408-108.049c-7.047-18.444-14.784-36.626-21.79-55.085C375.292,398.576,382.4,349.7,413.212,303.8c1.963-2.924,3.717-5.989,5.568-8.989l-2.083-2.446c-3.656,2.45-7.829,4.38-10.89,7.428-44.8,44.593-58.087,97.085-38.258,157.3,6.3,19.122,14.619,37.575,20.975,56.68,10.3,30.953,6.642,60.08-13.5,86.533-7.989,10.49-15.809,21.123-23.31,31.966-18.553,26.819-20.526,55.2-5.658,84.022,9.425,18.27,19.992,36.01,30.961,53.412,19.071,30.26,20.669,60.823,3.938,92.461-4.423,8.364-8.146,17.1-12.4,25.552-12.828,25.482-24.367,51.352-24.845,80.395-1.387.351-2.28.909-2.852.676-29.785-12.126-31.738-5.93-20.365-41.863,6.523-20.609,16.632-40.39,27.307-59.313,21.266-37.7,19.281-73.465-4.034-109.319a474.773,474.773,0,0,1-26.837-47.211c-12.368-24.842-10.693-49.448,4.753-72.684,6.609-9.944,13.267-19.958,20.919-29.088,26.357-31.448,30.589-66.381,17.668-104.331q-4.972-14.606-10.181-29.132c-20.774-57.808-14.219-111.707,22.943-161.269a10.407,10.407,0,0,0,2.376-8.163c-5.057,4.033-10.723,7.5-15.077,12.187-41.629,44.8-53.7,96.828-37.123,155.532,4.913,17.4,10.8,34.534,15.561,51.976,6.348,23.282,1.937,44.729-12.14,64.41-11.259,15.743-22.462,31.558-32.9,47.845-14.648,22.849-16.483,47.4-5.106,71.894a541.927,541.927,0,0,0,29.73,55.459c17.8,28.937,18.806,57.3,3.668,87.855-14.154,28.573-25.868,58.355-38.958,88.3-3.32-1.94-9.554-4.5-14.285-8.742-2.908-2.606-5.871-8.642-4.764-11.646,5.377-14.583,11.813-28.807,18.466-42.878,6.847-14.483,15.527-28.194,21.329-43.053,7.887-20.2,4.577-40.116-8.9-58.85,6.858,36.119-11.873,60.445-28.4,85.9-10.213,15.732-18.7,32.586-28.847,50.5L207.7,889.851c7.513-9.689,14.214-18.331,21.5-27.724l-12.8-16.841-25.481,28.148-26.434-25.86,33.519-34.193c-.483,2.8.006,1.861-.264,1.261-9.347-20.748-12.887-21.576-29.931-5.922-6.577,6.041-12.326,12.985-19.331,20.456l-21.111-27.763C150.091,774.889,157.424,769.6,173.34,768.019ZM560.522,206.105c-2.947-7.775-5.448-13.836-7.548-20.033-3.943-11.64-12.558-24.551-10.086-34.708,2.484-10.209,16.049-17.763,24.859-26.377,5.565-5.441,11.314-10.692,19.145-18.065-13.435-1.2-23.057-3.793-32.158-2.553-24.728,3.37-36.7-8.153-42.275-30.866-2.52-10.261-7.971-19.8-13.466-32.956-8.184,19.936-15.244,35.68-21.043,51.876-2.871,8.021-7.342,10.621-15.412,10.881-15.856.51-31.682,1.965-50.266,3.213,4.2,4.635,6.383,7.378,8.9,9.767,10.168,9.646,20.644,18.979,30.527,28.906,2.449,2.46,5.1,7.352,4.248,10.037-5.323,16.695-11.618,33.081-18.087,50.94-29.737-29.142-64.086-44.533-104.933-48.935,12.659,26.564,24.54,51.5,36.422,76.429l-2.539,1.914c-24.463-17.23-50.693-29.362-83.38-30.459,3.4,5.267,5.71,8.519,7.692,11.959,13.547,23.515,27.714,46.712,40.2,70.779,5.366,10.342,9.451,12.934,20.426,7.267,40.382-20.849,83.73-32.013,128.987-34.53,58.726-3.266,114.636,8.645,167.185,35.113,9.2,4.633,13.108,3.349,18.018-5.907,13.481-25.411,28.324-50.1,42.649-75.062,1.555-2.71,3.246-5.343,6.056-9.95-31.855,1.637-57.905,13.12-82.172,29.9l-2.931-2.435c11.658-24.483,23.316-48.967,35.7-74.971C624.489,161.733,590.355,176.824,560.522,206.105ZM518.754,414.374c-7.609-19.042-10.642-39.92-.4-56.081,16.548-26.107,44.358-20.228,70.34-14.049C580.641,302.7,533.559,275.5,483.1,281.8c-36.483,4.55-73.383,36.3-71.707,61.71,37.844-5.974,58.215-3.466,67.3,11.882,8.39,14.179,6.822,30.408,2.142,47.847-10.677-9.992-21.006-7.612-32.135-4.489-5.868,1.646-13.89,1.592-19.01-1.214-14.78-8.1-22.592,1.56-22.407,15.708.6,45.45,19.434,82.138,53.636,110.741,24.459,20.454,50.111,20.265,75.606.621,28.976-22.325,45.539-52.761,52.493-88.226a95.9,95.9,0,0,0,.339-31.613c-1.2-8.312-6.079-14.665-16.638-7.91-3.866,2.473-9.4,3.027-14.217,3.191C545.916,400.475,527.124,406.705,518.754,414.374Zm-329.4-77.826c-1.358-4.731-2.459-8.542-3.544-12.358-7.368-25.9-19.788-48.754-40.815-66.158-2.856-2.364-7.057-3.1-10.635-4.593-1.019,3.74-3.047,7.522-2.9,11.215,1.253,31.07-5.418,60.419-18.014,88.661-14.91,33.431-36.24,62.571-59.7,90.331-2.2,2.608-4.094,5.479-8.072,10.85,12.238,0,22.184,2.294,30.447-.46,19.383-6.462,38.035-15.169,56.846-23.285,21.517-9.284,43.5-16.3,66.923-9.214,8.24,2.493,11.591-.084,15.772-6.345a345.433,345.433,0,0,1,75.04-81.379c2.8-2.185,6.643-3.042,10-4.516C259.414,309.243,224.12,316.02,189.353,336.548ZM951.1,452.718c-2.819-3.914-4.735-6.976-7.039-9.712-44.614-52.981-80.586-109.578-77.641-182.807.335-8.323-4.87-9.482-10.192-4.587-8.139,7.486-17.165,14.923-22.579,24.258-10.155,17.509-18,36.361-27.061,55.2-32.752-18.841-68.272-26.485-108.38-8.728a384.979,384.979,0,0,1,87.713,93.031c1.381,2.05,6.437,3.322,9.086,2.554,21.275-6.171,41.653-2.992,61.455,5.384,17.774,7.519,35.058,16.218,52.938,23.457C922.368,456.016,935.99,458.655,951.1,452.718ZM416.98,378.065c14.925-11.552,31.327-5.162,48.013-1.387-4.79-16.5-24.224-25.972-42.021-21.919C409.1,357.918,406.712,365.992,416.98,378.065Zm121.3-3.783h46.575c.293-1.075,2.776-5.547,2.389-9.755-.807-8.777-12.679-12.508-28.079-9.572C542.665,358.1,536.357,364.191,538.282,374.282Z"/><path d="M499.129,184.785l46.607,37.684H452.583Z"/><path d="M533.9,473.2c-21.447,31.243-43.2,36.974-69.9,0Z"/><path d="M521.062,444.435c-14.873,10.154-28.739,10.26-42.706.7C485.394,436.954,510.285,436.266,521.062,444.435Z"/></svg>