<svg xmlns="http://www.w3.org/2000/svg" viewBox="0 0 1000 1000"><path d="M105.519,475.376c2.513-3.369,4.29-5.976,6.292-8.4,9.6-11.606,22.045-17.963,37.023-17.651,19.286.4,33.135,12.707,36.823,31.859a110.012,110.012,0,0,1,2.016,19.328c.26,20.822.127,41.65.122,62.475,0,6.191-.1,6.324-5.989,6.3-11.849-.047-10.259,1.178-10.313-10.458-.073-15.993.075-31.988-.06-47.981-.061-7.317-.324-14.651-.926-21.942-1.6-19.4-17.205-26.26-32.135-23.043-15.032,3.239-23.982,13.188-27.324,27.937a94.028,94.028,0,0,0-2.155,18.806c-.324,16.321-.171,32.652-.216,48.979,0,1.5-.007,3-.115,4.494a3,3,0,0,1-3.15,3.15c-.5.017-1,.064-1.5.061-13.418-.073-11.307,1.319-11.387-10.881-.11-16.993.154-33.99-.111-50.979a173.18,173.18,0,0,0-1.848-22.35c-1.445-9.851-7.475-16.181-16.99-18.876-15.035-4.258-32.129,4.546-38.933,19.819-3.524,7.914-4.6,16.361-4.741,24.86-.273,16.989-.14,33.985-.178,50.978,0,1.333-.027,2.665-.042,4-.024,2.206-1.045,3.419-3.343,3.408-3.165-.016-6.33-.006-9.5-.012-2.3,0-3.3-1.233-3.268-3.455.016-1.166-.028-2.332-.028-3.5q0-51.48,0-102.961c0-1,.059-2,.01-3-.132-2.686,1.1-4.066,3.8-4.082,2.832-.016,5.664-.016,8.5-.018,2.719,0,3.882,1.421,3.853,4.074-.045,4.144-.012,8.29-.012,13.435a29.627,29.627,0,0,0,2.972-2.7C41.6,455.748,53.541,449.581,67.638,449.4c15.02-.188,27.67,5.473,34.786,19.93C103.291,471.094,104.211,472.827,105.519,475.376Z"/><path d="M461.537,551.31c-3.565,3.1-6.111,5.473-8.821,7.643-18.309,14.655-38.8,17.659-60.083,8.736-19.462-8.158-31.738-23.471-35.823-44.434-3.931-20.174.606-38.441,14.486-53.895,22.563-25.122,61.347-27.3,85-3.1,1.494,1.528,2.833,3.207,4.961,5.634.121-2.592.269-4.3.271-6.014q.027-25.992.022-51.985c.007-5.814.121-5.9,5.822-5.946,2.166-.018,4.332.04,6.5.021,2.5-.022,3.639,1.295,3.707,3.687.042,1.5.068,3,.068,4.5q.006,72.48,0,144.96c0,8.194-.011,8.194-8.313,8.194-7.79,0-7.791,0-7.8-8C461.536,558.327,461.537,555.352,461.537,551.31Zm-44.352-86.154c-25.165-.56-45.4,20.549-45.215,46.056.18,25.036,20.234,46.075,44.971,46.113,21.641.033,45.508-16.233,45.508-45.735C462.45,482.634,439.845,464.283,417.185,465.156Z"/><path d="M620.847,536.81c-4.278,9.714-10.056,17.48-17.988,23.185-21.867,15.724-45.467,17.031-68.771,4.554-17.631-9.44-27.044-25.874-29.374-45.743-2.227-19,3.064-35.921,15.76-50.433A52.975,52.975,0,0,1,547.153,451.6c16.417-4.347,32.534-3.161,47.393,5.445,16.17,9.366,26,23.521,29.211,42.064a72.194,72.194,0,0,1,.977,7.928c.315,5.2-.335,5.854-5.388,5.988-1.332.036-2.666.013-4,.013H528.854c-1.333,0-2.669-.047-4,.023-3.551.186-4.17.768-3.842,4.178,2.174,22.575,20.255,40.16,41.743,40,17.509-.133,31.28-6.674,40.927-21.52,4.278-6.584,3.126-6.61,10.773-2.7C616.5,534.062,618.418,535.358,620.847,536.81Zm-14.726-38.776c-2-17.642-18.659-31.268-37.6-32.863-26.747-2.251-42.419,16.634-45.094,32.015C526.588,498.369,596.847,499.129,606.121,498.034Z"/><path d="M953.332,552.528c-1.426,1.338-2.881,2.648-4.274,4.02-21.5,21.182-57.438,20.407-78.27,1.548-10.8-9.773-18.176-21.33-20.606-35.587-6.849-40.192,21.775-68.958,50.776-72.548,19.121-2.367,35.564,2.619,49.017,16.666,1.036,1.082,2.081,2.157,3.169,3.186.187.177.608.106,1.614.246,0-4-.035-7.916.008-11.836.06-5.358.6-5.927,6.107-5.994,11.83-.145,9.98-.08,10,9.905q.1,49.473.024,98.945c0,1.166.028,2.333-.011,3.5-.145,4.233-.454,4.692-4.562,4.693-12.77,0-11.5,1.332-11.565-10.9-.009-1.779,0-3.559,0-5.338Zm2.442-41.094c1.034-26.1-20.812-46.529-44.582-46.45-27.311.091-45.576,23.113-45.593,45.878-.019,24.406,19.981,46.7,45.134,46.373C936.876,556.891,955.765,537.987,955.774,511.434Z"/><path d="M334,511.32c1.341,30.275-24.611,61.3-60.981,61.215-35.682-.08-61.007-30.9-60.82-61.706.183-30.266,23.89-61.6,61.062-61.62C311.727,449.183,335.492,482.023,334,511.32Zm-105.555,0a96.306,96.306,0,0,0,1.317,10.348c4.724,20.1,18.658,32.858,39.161,35.019,14.151,1.492,27.076-2.605,36.593-13.381,13.769-15.59,16.038-33.577,7.714-52.563-7.755-17.688-28.7-28.462-47.308-24.883C243.806,470.108,228.783,488.476,228.44,511.315Z"/><path d="M739.3,470.605c2.688-2.922,5.092-6.183,8.111-8.709,15.339-12.831,32.519-16.453,51.2-8.581,11.771,4.962,19.174,14.415,22.068,26.75a112.456,112.456,0,0,1,2.948,23.193c.416,20.147.189,40.307.177,60.462,0,5.336-.257,5.594-5.721,5.568-11.841-.056-10.414,1.306-10.458-10.313-.07-18.156.162-36.316-.168-54.467a85.783,85.783,0,0,0-2.4-20.218c-4.023-15.213-16.061-21.189-31.5-19.608-19.461,1.993-34.526,19.908-34.83,38.413-.29,17.639-.652,35.277-.964,52.915-.053,3,.068,6-.043,8.994-.141,3.809-.534,4.171-4.483,4.276-2.829.075-5.662,0-8.494-.033a2.814,2.814,0,0,1-3.106-3.1c-.029-1.165-.056-2.331-.056-3.5q0-51.72,0-103.441c0-1.165.043-2.331.045-3.5,0-2.282,1.267-3.352,3.419-3.411,2.829-.078,5.661-.021,8.492-.076,2.914-.056,4.282,1.3,4.211,4.24-.068,2.83,0,5.663,0,8.5,0,1.637,0,3.274,0,4.912Z"/><path d="M663.487,465.741c1.568-1.6,3.18-3.165,4.7-4.815,5.7-6.2,12.46-10.391,20.993-11.48,4.854-.619,9.207.836,13.5,2.714,2.122.93,2.446,2.567,1.273,4.495a90.024,90.024,0,0,1-5.347,8.414,4.58,4.58,0,0,1-3.775,1.177c-11.1-2.071-19.408,1.78-24.955,11.651a56.333,56.333,0,0,0-6.943,26.775c-.437,19.29-.633,38.587-.931,57.881-.02,1.331.247,2.773-.184,3.957-.379,1.04-1.5,2.474-2.385,2.548a63.519,63.519,0,0,1-10.955.03c-.989-.089-2.174-1.694-2.642-2.855s-.155-2.623-.155-3.955q0-51.429,0-102.859c0-1.165.038-2.33.034-3.494-.01-2.5,1.329-3.642,3.722-3.658,2.994-.021,5.99-.03,8.984.033,2.421.052,3.584,1.317,3.575,3.794-.012,3.068.124,6.136.2,9.2Z"/><path d="M614.608,618.009c8.661,0,17.322-.063,25.981.026,4.292.045,6.192,2.06,6.141,6.074-.043,3.4-1.968,5.6-5.463,5.907-2.315.2-4.659.093-6.99.093-14.99,0-29.979-.029-44.968.006-3.009.007-5.633-.384-6.925-3.643-1.809-4.564.585-8.327,5.744-8.411,8.825-.142,17.654-.039,26.48-.039Z"/><path d="M858.459,630.1c-8.665,0-17.33.067-25.994-.029-4.332-.048-6.789-2.6-6.532-6.4.25-3.674,2.452-5.618,6.8-5.651,9.664-.072,19.33-.028,28.994-.03,7.166,0,14.331-.023,21.5.007,5.654.025,7.474,1.395,7.588,5.582.128,4.69-1.978,6.489-7.854,6.521-8.164.045-16.33.011-24.5.011Z"/><path d="M938.723,618c8.832,0,17.666-.1,26.5.038,4.949.076,7.551,4.152,5.769,8.545a5.33,5.33,0,0,1-5.48,3.509c-4.666-.009-9.332.019-14,.019-12.666,0-25.331.048-38-.034-4.983-.033-6.96-2.05-6.848-6.493.1-3.857,1.744-5.491,6.06-5.559,6.665-.1,13.332-.034,20-.037h6Z"/><path d="M694.989,618c8.651,0,17.3-.065,25.954.027,4.286.046,6.286,2.079,6.321,5.984.037,4.054-2.042,6.049-6.736,6.069-14.142.061-28.283.025-42.425.025-3,0-5.993.075-8.983-.037-4.649-.175-6.521-2.07-6.481-6.338.038-4.073,1.7-5.664,6.4-5.707C677.686,617.948,686.338,618,694.989,618Z"/><path d="M777.681,618.007c8.82,0,17.641-.089,26.459.037,4.631.065,6.94,3.263,5.888,7.672-.757,3.171-2.244,4.315-6.261,4.362-7.155.083-14.311.033-21.467.032-9.985,0-19.97.059-29.954-.04-4.924-.049-6.886-2.107-6.737-6.571.129-3.883,1.706-5.417,6.112-5.471,7.654-.1,15.31-.033,22.965-.036h3Z"/><path d="M533.732,618.02c8.657,0,17.315-.072,25.971.029,4.786.056,6.556,2.205,6.123,6.946-.32,3.5-1.862,4.951-6.115,5.031-7.489.142-14.983.058-22.475.057-9.656,0-19.313.053-28.968-.05-4.71-.051-6.292-1.395-6.628-5.026-.441-4.756,1.31-6.878,6.12-6.933,8.656-.1,17.314-.028,25.972-.028Z"/><path d="M450.988,618.066c8.637,0,17.275-.078,25.911.028,4.574.057,6.213,2.03,5.939,6.59-.2,3.356-1.434,4.722-4.814,5.245a16.331,16.331,0,0,1-2.485.125c-16.61,0-33.22.033-49.83-.032-5.125-.02-7.025-1.848-7.006-6.265.015-3.815,1.464-5.506,5.377-5.618,5.643-.161,11.294-.062,16.941-.069Q446.006,618.063,450.988,618.066Z"/><path d="M370.406,630.028q-11.46-.006-22.922-.009a31.04,31.04,0,0,1-3.98-.128c-3.546-.467-5.61-2.694-5.574-5.863.039-3.4,2.315-5.762,6.039-5.86,5.312-.14,10.629-.055,15.945-.058,11.959-.006,23.927.253,35.874-.127a6.223,6.223,0,0,1,5.922,9.181c-1.357,2.367-3.421,2.888-5.89,2.879C387.349,630.012,378.877,630.031,370.406,630.028Z"/><path d="M289.441,629.2c-8.651,0-17.3.072-25.954-.03-4.461-.053-6.089-1.951-5.749-6.172.284-3.519,1.765-4.8,6.15-4.828,10.647-.071,21.3-.031,31.944-.032q9.734,0,19.466.006c2.447,0,4.648.479,5.825,2.983,1.934,4.115-.184,7.968-4.73,8.046-8.981.153-17.968.045-26.952.045Z"/><path d="M206.644,629.157c-8.485,0-16.97.04-25.454-.016-4.722-.031-6.348-1.387-6.4-5.028-.051-3.858,1.912-5.873,6.346-5.9q25.7-.126,51.407-.012c4.191.021,6.031,1.928,6.121,5.605.088,3.608-1.5,5.288-5.573,5.334-8.816.1-17.634.031-26.452.031Z"/><path d="M126.018,629.112c-8.666,0-17.333.044-26-.019-4.136-.031-5.778-1.532-5.931-5.065-.143-3.312,2.2-5.757,6.054-5.775q25.748-.122,51.5-.007c4.521.025,5.979,1.579,6.085,5.5.113,4.183-.876,5.324-5.208,5.364-8.832.081-17.666.024-26.5.024Z"/><path d="M45.735,629.063c-8.825,0-17.652.087-26.475-.036-4.439-.062-6.585-2.89-5.111-6.882.543-1.47,2.225-2.695,3.662-3.592.871-.544,2.268-.31,3.428-.311q24.479-.031,48.956-.023a15.327,15.327,0,0,1,2.493.095,5.89,5.89,0,0,1,4.791,6.069c-.153,2.957-1.857,4.639-5.268,4.674-8.824.092-17.65.031-26.476.031Z"/><path d="M988.138,467.275a7.557,7.557,0,0,1-7.5-7.187,7.563,7.563,0,1,1,15.1.125A7.5,7.5,0,0,1,988.138,467.275Z"/></svg>