<svg id="Layer_1" data-name="Layer 1" xmlns="http://www.w3.org/2000/svg" viewBox="0 0 1000 1000"><path d="M113.14,497.94l386.91,387.4L885.38,495.21,500.83,111.34ZM503.35,832,313.25,639.74H686.71l3.43,5.23Zm303.92-304.2c-25.29,25.49-50.12,51.49-76.48,75.83-7.8,7.2-20,13.15-30.33,13.51-42.88,1.48-85.85,1-128.77.42-29.19-.4-31.44-3.36-31.53-32.94-.09-25.76-.45-51.53.11-77.28.31-13.95-5.06-20-19.23-19.42-15.59.66-31.26.82-46.82,0-16-.86-22.48,5.05-21.93,21.57.94,28.06.47,56.19.13,84.29-.27,21.57-2,23.79-22.12,23.86-45.26.15-90.53-.13-135.78-1.14-7.9-.18-17.86-2.6-23.21-7.77-35.9-34.71-70.82-70.43-106-105.93-1.52-1.53-2-4.08-2.37-4.84l333.1-333.51L832.23,501.67C826.4,507.77,817,517.94,807.27,527.76Z"/><path d="M290.09,536.3,495.57,327.74c8.84,8.11,15.82,14.08,22.29,20.55Q598.28,428.56,678.52,509c30.29,30.29,30.34,30.28,58.26-2.56,1.39-1.64,1.75-4.17,3.83-9.4-28.71-28.25-57.87-57.47-87.69-86-10.34-9.89-15.63-20.52-14.87-35,.85-16.35-.15-32.78.15-49.18.22-11.73-4.79-16.63-16.68-17.14-19.46-.82-39.15-3.55-41.61,26.95l-6.58.93-67.61-77.29L259.05,506.71Z"/><path d="M500,0C223.86,0,0,223.86,0,500s223.86,500,500,500,500-223.86,500-500S776.14,0,500,0Zm15.2,884.89c-16.85,16.85-17.3,16.87-33.51.66q-186.4-186.3-372.61-372.8c-4.35-4.36-8.14-9.3-10-11.4L498.81,102.57l396.52,397,5.67-3.21c-4.4,5.25-8.43,10.86-13.26,15.69Q701.56,698.57,515.2,884.89Z"/></svg>