<svg id="Layer_1" data-name="Layer 1" xmlns="http://www.w3.org/2000/svg" viewBox="0 0 1000 1000"><path d="M500,0C223.86,0,0,223.86,0,500s223.86,500,500,500,500-223.86,500-500S776.14,0,500,0ZM819.38,681c-.85,1.49-1.9,2.86-3.62,5.44L499.93,135.93a34.34,34.34,0,0,0-3.07,3.79q-41.34,71.92-82.65,143.87c-1.9,3.3-2.46,5.91-.29,9.64,18.82,32.39,37.36,64.94,56,97.43q29.46,51.32,58.95,102.6,27.15,47.29,54.26,94.63,29.61,51.61,59.28,103.19,30.75,53.63,61.38,107.32c.84,1.47,1.53,3,2.53,5q-99.62,67.26-218.91,63.37c-70.28-2.26-135-23.07-193.91-63.27L498.8,445.59c-3.11-.25-5-.54-6.87-.54-54.51,0-109,.05-163.54-.12-5.18,0-7.77,1.9-10.26,6.29-19.68,34.69-39.65,69.21-59.51,103.8q-27.13,47.31-54.22,94.65C198.59,659.8,192.83,670,187,680.07c-1,1.67-2.2,3.16-3.89,5.55-3-5.37-5.81-10-8.32-14.8a370.58,370.58,0,0,1-38.53-118.88,365.6,365.6,0,0,1-2.61-77.79,366.47,366.47,0,0,1,85.84-210.62A367.83,367.83,0,0,1,430.73,140.22c19.91-3.88,40-6.29,60.42-6.07,2.55,0,5.11-.75,7.67-1.15h13.24a32.47,32.47,0,0,0,5.07,1c40.3,1.41,79.07,10.06,116.55,24.64,54.9,21.35,101.77,54.41,140.84,98.27,46,51.61,74.82,111.75,87.06,179.73a347.43,347.43,0,0,1,5.41,77.6C864.26,573.53,848.89,629.3,819.38,681Z"/></svg>