<svg id="Layer_1" data-name="Layer 1" xmlns="http://www.w3.org/2000/svg" viewBox="0 0 1000 1000"><path d="M500,0C223.86,0,0,223.86,0,500s223.86,500,500,500,500-223.86,500-500S776.14,0,500,0ZM803.08,677.51,499.75,150.06c-3.43,4.77-6,7.76-8,11.14-23.62,41-46.88,82.22-70.91,123-5.47,9.28-4.8,16.34.39,25.28,26.05,44.84,51.54,90,77.23,135.07h.24l-.18.12.17-.11-.1.22c26.79,46,53.7,91.93,80.35,138,37.24,64.45,74,129.16,111.61,193.4,6.52,11.14,5.87,17-5.74,23.64q-185.51,105.66-370.78.11c-11.22-6.36-11.49-12.3-5.42-22.81q91.86-158.65,182.9-317.76c2.68-4.68,4.74-9.72,7.08-14.6l-.07-.11-.06-.12c-50.46.25-100.92,1-151.36.43-13.71-.14-21.43,4.08-28.26,16.21-38.31,68.08-77.53,135.62-116.5,203.31-1.95,3.42-4.42,6.55-6.91,10.21C125.85,570.55,119.16,381,249.67,250.9,383.13,117.83,599,112.33,737.87,239.09,877.48,366.51,878.38,560.9,803.08,677.51Z"/></svg>