<svg xmlns="http://www.w3.org/2000/svg" viewBox="0 0 1000 1000"><path d="M261.133,439.281h41.256c.55,1.889,1.068,3.311,1.363,4.776.3,1.514.392,3.071.7,5.68,20.492-17.29,40.506-18.445,59.969.465,3.826-2.79,7.175-5.487,10.771-7.806,10.814-6.972,22.348-7.82,34.2-3.106,9.267,3.683,14.546,10.772,16.053,20.486a62.369,62.369,0,0,1,.4,9.461q.047,44.43,0,88.86c0,3.1-.371,6.2-.639,10.356-14.1,1.337-27.792.723-42.375.4-.358-4.217-.887-7.622-.9-11.029-.07-22.906.133-45.814-.106-68.717-.094-9.008-1.1-18.006-1.656-26.568-11.569-4.079-14.139-2.784-14.284,7.794-.331,24.086-.181,48.179-.218,72.27-.013,8.222,0,16.445,0,25.728-15.188,1.589-29.324.63-44.815.721-.27-4.852-.684-9.016-.7-13.181-.126-27.249-.159-54.5-.244-81.748-.008-2.762-.033-5.533-.271-8.281-.321-3.7-2.571-5.579-6.248-5.905-3.983-.354-7.426.772-8.485,4.822a42.486,42.486,0,0,0-1.034,10.525c-.079,26.46-.045,52.921-.046,79.382v13.766c-14.872,1.294-28.563.8-42.026.4C259.459,559.314,258.933,453.819,261.133,439.281Z"/><path d="M119.184,570.813H89.206l-5.64-10.4c-1.938,1.754-3.721,3.616-5.748,5.164-14.523,11.1-30.185,10.95-46.2,3.98C16.061,562.79,6.682,551.05,6.421,533.923c-.446-29.211.069-58.436-.216-87.651-.193-19.7,10.1-32.558,27.59-38.7,24-8.428,47.721-6.923,69.56,7.815,5.526,3.73,9.807,8.4,11.12,14.817,1.965,9.6,3.341,19.336,4.615,29.059.622,4.751-2.007,7.549-6.917,7.582-13.087.089-26.174.03-40.583.03-.281-5.838-.39-10.8-.794-15.73-.417-5.077-.917-10.164-1.765-15.182-.693-4.1-3.751-6.176-7.747-5.816-3.947.354-6.5,2.738-6.621,7.025-.077,2.762-.285,5.523-.286,8.284q-.02,43.236.022,86.473c0,2.368.159,4.735.2,7.1.089,4.664,2.512,7.459,7.1,8,4.746.556,7.592-2.381,8.8-6.4.885-2.957.789-6.248.837-9.394.108-7.088.034-14.179.034-21.688l-8.49-3.611c-2.819-18.909-2.259-19.611,15.493-19.618q16.142-.007,32.283.027c4.976.006,8.558,1.475,8.546,7.341C119.156,518.9,119.184,544.126,119.184,570.813Z"/><path d="M672.566,454.854H627.147c-.207-5.592-.291-10.613-.6-15.62-.381-6.078-2.782-9.322-6.949-9.16-5.089.2-7.822,3.443-9.073,8.012-2.915,10.642.719,19.222,10.68,25.072,8.9,5.227,17.917,10.258,26.807,15.5a118.293,118.293,0,0,1,9.908,6.6c10.12,7.436,15.754,17.206,17.123,29.843a120.459,120.459,0,0,1,.234,25.76c-1.292,12.5-7.673,20.971-18.232,25.834-24.154,11.126-48.856,10.675-72.519-1.2-11.753-5.9-17-17.321-17.912-30.332-.275-3.9-.043-7.839-.043-13.294,7.443-.244,14.4-.557,21.363-.675,6.74-.113,13.484-.024,21.389-.024.475,5.169.737,9.724,1.34,14.235,1.158,8.654,3.757,11.936,9.01,11.827,5.57-.115,10.409-4.872,10.863-12.084.674-10.687-1.659-20.461-11.768-26.628-10.165-6.2-20.133-12.764-30.6-18.425-19.937-10.787-25.265-33.012-22.932-51.64,2.466-19.691,14.033-28.905,31.847-33.2a88.947,88.947,0,0,1,48.232,1.786c14.537,4.527,24.872,12.223,25.584,28.716C671.149,441.593,671.9,447.4,672.566,454.854Z"/><path d="M885.4,438.666h39.405c.954,3.16,1.808,5.99,2.938,9.729,3.718-2.271,6.662-4.094,9.63-5.878,10.493-6.307,21.334-7.835,33.113-3.4,11.434,4.309,17.363,12.2,17.535,24.147.256,17.774.368,35.553.237,53.328-.075,10.238-.421,20.5-1.219,30.7-1.554,19.879-23.712,27.214-37.316,22.809-7.426-2.4-14.413-6.144-22.533-9.691-2.533,13.251.606,27.009-1.969,41.038H885.4ZM926.273,503.7c0,9.855-.216,19.717.108,29.562a29.352,29.352,0,0,0,2.49,11.368c.9,1.9,4.178,3.536,6.46,3.639,1.514.068,4.075-2.552,4.567-4.389a57.317,57.317,0,0,0,2.066-13.945c.227-17.342.2-34.69.012-52.033-.046-4.285-1.155-8.551-1.608-12.844-.4-3.742-2.56-5.991-6.1-6.012-3.5-.021-5.865,2.232-6.465,5.817a73.84,73.84,0,0,0-1.466,10.456C926.133,484.775,926.267,494.239,926.273,503.7Z"/><path d="M868.675,500.764c-.871,12.785-1.394,24.582-2.545,36.319-1.493,15.237-13.254,27.815-29.652,31.724-15.268,3.64-30.662,4.242-46.046.324-20.759-5.286-28.109-15.1-29.469-33.693a461.255,461.255,0,0,1-.105-60.3c1.189-20.417,13.981-32.756,34.2-36.857,18.149-3.681,35.586-2.57,52.1,6.143,11.675,6.161,18.7,15.464,19.338,29.07C866.939,482.912,867.979,492.3,868.675,500.764ZM820.6,461.52c-12.806-1.831-13.992-1.13-14.081,9.134-.193,22.132-.115,44.266-.022,66.4.011,2.7.065,5.85,1.424,7.952,1.269,1.964,4.427,4.023,6.517,3.806,2.042-.212,4.52-2.939,5.461-5.13,1.027-2.391.634-5.433.645-8.192.056-14.623.047-29.247.055-43.871C820.605,481.787,820.6,471.955,820.6,461.52Z"/><path d="M178.334,481.394H137.779c-4.158-12.761-.708-25.694,9.322-32.855,16.825-12.014,35.859-14.217,55.806-11.057,10.75,1.7,20.919,4.651,28.637,13.2,4.461,4.942,7.365,10.305,7.516,16.918q1.053,46.146,1.908,92.3c.045,2.616-.951,5.251-1.589,8.519H197.01c-.859-2.435-1.72-4.875-2.382-6.753-6.1,2.952-11.839,6.492-18.071,8.57-10.915,3.64-21.281.7-30.892-4.82-6.88-3.949-9.154-10.932-9.763-18.106a196.934,196.934,0,0,1-.161-23.683c.293-8.149,4.132-14.306,11.871-17.7,4.728-2.071,9.431-4.219,14.256-6.045,5.2-1.969,10.577-3.484,15.8-5.405,15.545-5.72,19.352-13.075,15.447-28.921-1.061-4.307-3.751-5.844-7.792-5.555-3.7.266-5.732,2.41-5.975,6.132C179.042,470.791,178.729,475.449,178.334,481.394Zm15.06,27.184c-7.211,3.025-12.656,5.908-13.243,11.849a117.986,117.986,0,0,0,.472,24.5c.192,1.722,4.745,3.978,7.423,4.174,3.747.274,5.262-3.172,5.3-6.565C193.473,531.584,193.394,520.625,193.394,508.578Z"/><path d="M549.007,505.886H489.063c-2.016,12.2-.871,23.95-.742,35.634.05,4.53,3.1,7.223,7.521,7.838,3.985.556,7.728-3.067,8.422-8.195.474-3.5.277-7.1.45-10.643.187-3.84.456-7.676.7-11.76,10.975-3.416,21.342-1.473,31.513-1.7,12.913-.287,12.616.476,11.747,13.564-.713,10.747-3.174,20.49-11.159,27.754-8.739,7.948-19.717,11.785-31.47,12.977a88.184,88.184,0,0,1-37.662-4.337c-15.971-5.443-25.22-16.853-26.012-33.375-.925-19.308-.95-38.719-.107-58.032.815-18.687,11.414-30.964,29.287-35.918,20.784-5.761,40.856-4.647,59.757,6.8,7.184,4.352,12.091,10.474,14.25,18.282C549.23,478.038,550.921,491.555,549.007,505.886ZM488.1,485.047h13.072V461.161c-11.783-1.354-12.655-.809-13.035,8.349C487.924,474.545,488.1,479.6,488.1,485.047Z"/><path d="M737.634,546.191l13.192,4.4v17.88c-14.7.756-29.221,2.648-43.43-2.155-9.834-3.325-14.051-10.812-14.024-21.05.068-26.411-.065-52.822-.115-79.233-.008-4.277,0-8.553,0-12.745l-8.849-3.878V437.6l8.447-3.3c.316-5.177.6-9.86.975-15.973,13.8-1.832,27.456-.37,42.153-.85.621,6.251,1.146,11.537,1.732,17.444l12.994,1.885c.2,3.94.407,8.019.646,12.715l-13.72,2.492Z"/></svg>