<svg xmlns="http://www.w3.org/2000/svg" viewBox="0 0 1000 1000"><path d="M149.2,521.405V493.257c.651-2.322,1.854-4.64,1.871-6.967.2-27.5,6.2-53.951,14.479-79.953C184.833,345.787,217.682,294.084,265.583,252a342.238,342.238,0,0,1,95.043-58.9c27.194-11.343,55.464-19.217,84.614-22.063,24.728-2.415,49.931-3.5,74.641-1.562,23.373,1.834,46.377,8.369,70.163,12.956-.286.249.336-.069.626-.577,21.645-37.9,44.023-75.4,64.673-113.837C676.1,29.388,722.729,15.683,759.162,36.456c30.594,17.443,46.123,60.8,29.779,91.992-21.572,41.168-45.1,81.324-68.409,121.552-3.575,6.168-2.538,8.9,1.922,13.177a324.44,324.44,0,0,1,65.492,88.5c21.067,41.739,33.555,85.768,36.7,132.9a339.087,339.087,0,0,1-5.105,86.191c-7.577,39.931-22.839,77.181-44.073,112.086q-48.131,79.119-129.447,122.643C596.618,832,543.53,844.652,487.63,845.329a233.469,233.469,0,0,1-38.14-2.564c-21.442-3.3-42.692-7.846-64.172-11.9-19.9,34.753-40.158,69.858-60.135,105.12-8.313,14.674-16.432,29.665-31.636,38.184-9.4,5.265-19.941,8.482-29.97,12.618H242.952c-.707-.569-1.347-1.517-2.129-1.653-31.143-5.407-49.881-24.228-58.148-54.123-6.908-24.98,1.924-46.5,14.4-67.658,27.191-46.114,53.772-92.589,80.483-138.985,24.351-42.3,48.472-84.727,72.831-127.02,22.882-39.727,46.8-78.885,68.641-119.175,16.37-30.2,47.3-49.513,82.56-43.263,38.625,6.847,66.492,45.022,57.007,88.714-10.112,46.578-62.785,70.092-107.941,46.7L377.129,698.6c27.5,16.574,56.764,26.416,87.737,28.971,34.139,2.817,68.05-.1,100.552-12.8,53.025-20.721,92.832-56.233,118.868-106.748,22.725-44.089,28.923-90.8,20.139-139.67-9.758-54.285-35.864-99.409-78.9-133.147-51.75-40.568-110.645-57.448-176.512-44.805-61.159,11.74-111.243,41.61-144.342,94.706-34.477,55.305-65.875,112.534-98.6,168.934q-18.432,31.77-36.768,63.594l-2.969-.1c-4.426-20.991-9.178-41.921-13.142-63C151.141,543.625,150.486,532.455,149.2,521.405Z"/></svg>