<svg id="Layer_1" data-name="Layer 1" xmlns="http://www.w3.org/2000/svg" viewBox="0 0 1000 1000"><path d="M500,0C223.86,0,0,223.86,0,500s223.86,500,500,500,500-223.86,500-500S776.14,0,500,0ZM454.49,577.93c-40.77,17.63-81.1,36.3-121.8,54.11q-86.9,38-174.08,75.29c-14.36,6.15-25.59,3-32.75-7.51-7.33-10.77-6.32-21.5,5.09-33.06,46.69-47.32,93.79-94.23,140.56-141.48,7.49-7.56,16.36-9.15,26.28-9.1,27.31.14,54.61.05,81.92.05v-.07c28.46,0,56.92-.07,85.38,0,16.11.06,17.63,1.72,17.91,17.95C483.54,566,483.33,565.46,454.49,577.93ZM483.18,456.2c-.29,27-.29,26.95-27.4,26.86-25.37-.09-50.74,0-76.11,0v.22c-27.67,0-55.35-.2-83,.1-10.63.11-19.27-3.06-26.84-10.68-45.5-45.76-91.31-91.22-136.72-137.07-12.48-12.59-14.56-22.7-8.72-32.72,7.6-13,19-17.24,33.3-11.15,46.51,19.8,93,39.69,139.28,60,55.38,24.34,110.48,49.3,165.81,73.75C482.21,434.13,483.41,435.37,483.18,456.2Zm60.23-33.94q113-49.86,226-100,35.19-15.51,70.82-30c15.06-6.11,25.62-2.92,33.2,8.72,7.25,11.12,5.85,21-5.66,32.86Q834.47,368.2,800.66,402c-23.92,23.9-48.41,47.23-72.11,71.35-7.15,7.28-15,9.9-24.65,9.85-28.45-.13-56.89,0-85.34,0s-56.9,0-85.35,0c-14.63,0-16.72-2.06-17.38-16.39C514.37,434.85,514.45,435,543.41,422.26ZM844.68,708.79c-16.93-6.11-33.61-13-50.1-20.2q-72.65-31.76-145-64.05c-40.6-18.06-81-36.53-121.67-54.42-8.69-3.82-12.2-9.86-12.2-18.75,0-38.81-1.75-35,32.4-35.19,23.45-.1,46.91,0,70.37,0v.24c28.83,0,57.71-.76,86.49.49,8.33.36,18.34,4.52,24.28,10.32,44.27,43.22,87.71,87.28,131.39,131.11a129.13,129.13,0,0,1,10.15,11c8.76,11.14,9.42,20.24,2.31,30.48S855.82,712.82,844.68,708.79Z"/></svg>