<svg xmlns="http://www.w3.org/2000/svg" viewBox="0 0 1000 1000"><path d="M66.133,808.076c7.888-.2,15.777-.614,23.663-.567,14.319.086,15.387.984,18.133,15.557,5.2,27.583,10.172,55.208,15.383,82.788a40.5,40.5,0,0,0,6.984,17.09c5.983-25.064,12.034-50.111,17.915-75.2q3.54-15.1,6.446-30.341c1.338-7.065,5.373-10.168,12.362-9.862.492.021.987-.006,1.479-.033,25.454-1.432,25.637-1.472,31.045,23.422,6.073,27.949,11.758,55.983,17.649,83.972a12.665,12.665,0,0,0,4.912,8.176c3.093-14.58,6.234-29.149,9.266-43.742,4.011-19.309,8.194-38.588,11.793-57.975,1.819-9.8,6.172-14.969,16.852-13.806,6.2.676,12.53.123,20.485.123-1.629,9.043-2.417,16.243-4.256,23.164q-16.9,63.567-34.227,127.021c-2.3,8.47-3.581,17.863-15.419,18.807-10,.8-23.707-6.266-28.079-15.715a81.886,81.886,0,0,1-5.327-16.832c-6.109-27.893-11.969-55.84-19.739-83.829q-10.2,40.77-20.4,81.545c-1.308,5.255-2.025,10.69-3.722,15.808-2.475,7.471-1.828,17.232-13.98,17.769-15.091.666-24.948-2.872-29.547-14.536C101.138,949.037,98.086,936.5,95,924.094c-8.213-33-16.009-66.106-24.119-99.133-1.164-4.743-3.144-9.285-4.747-13.921Z"/><path d="M453.905,63.176c.1-12.71-2.4-26.188,10.923-34.709,15.994-10.23,33.151-15.507,51.963-9.932,6.967,2.064,13.55,5.829,19.875,9.554,8.733,5.143,13.261,13.1,12.646,23.431-.877,14.731-1.717,29.472-3.043,44.166-3.493,38.7-7.264,77.378-10.86,116.07-.547,5.886-.456,11.839-1.174,17.7-2.145,17.5-15.3,26.908-36.623,26.465-15.153-.314-27.39-12.67-28.834-28.17-4.516-48.47-9.354-96.91-13.965-145.372C454.207,76.005,454.194,69.577,453.905,63.176Z"/><path d="M234.67,576.482c-7.691-3.316-16.047-5.309-22.438-9.988-16.454-12.047-24.761-29.7-26.193-49.451-.974-13.422,5.621-24.849,18.784-30.986,49.538-23.1,98.977-46.405,148.724-69.04,8.129-3.7,18.036-7.163,26.4-5.907,17.037,2.56,22.575,17.046,26.178,32.148,3.346,14.027-4.341,22.791-14.358,29.825q-68.362,48.006-137.219,95.3C249.158,572.082,242.206,573.493,234.67,576.482Z"/><path d="M187.242,221.788c-2.587-20.1,18.935-50.154,41.254-55.266a29.324,29.324,0,0,1,20.6,3.809c37.285,24.939,73.98,50.759,110.83,76.346,10.523,7.306,20.322,15.922,31.54,21.893,15.891,8.46,19.887,27.126,10.352,43.655-8.552,14.823-20.082,24.786-40.569,15.141-38.788-18.26-77.818-36-116.716-54.032-12.078-5.6-24.128-11.265-36.061-17.163C189.2,246.641,187.017,242.941,187.242,221.788Z"/><path d="M816.1,223.855c.681,14.9-5.414,25.173-19.351,31.577-51.935,23.865-103.606,48.3-155.511,72.235-17.445,8.043-30.48,2.319-41.243-17.033-7.992-14.371-4.207-30.456,9.606-40.141q71.43-50.08,142.922-100.072c12.473-8.724,26.957-6.068,42.827,7.689C806.847,188.079,816.132,208.559,816.1,223.855Z"/><path d="M817.234,516.984c.1,19.9-18.824,48.971-36.813,56.088-9.044,3.578-18.9,4.075-27.126-1.516-31.382-21.328-62.381-43.22-93.531-64.89-15.375-10.7-30.286-22.159-46.26-31.871-27.433-16.679-17.891-49.218,2.267-60.461,7.033-3.922,13.8-5.057,21.141-1.812,18.909,8.355,37.863,16.612,56.662,25.207q46.358,21.194,92.53,42.793c14.454,6.746,29.171,13.435,30.6,32.536C816.814,514.529,817.1,515.987,817.234,516.984Z"/><path d="M501.922,724.6c-9.436-2.3-19.524-3.2-28.156-7.23-12.813-5.974-20.811-16.714-19.67-31.806,1.82-24.053,4.218-48.062,6.289-72.1,1.9-22.056,3.681-44.123,5.538-66.184,1.073-12.755,1.857-25.547,3.389-38.247,1.442-11.952,11.543-20.007,27.5-22.948,11.75-2.166,26.337,4.444,32.592,15.661a39.577,39.577,0,0,1,4.907,15.283c3.347,37.757,6.144,75.562,9.353,113.332,1.124,13.23,2.32,26.5,4.512,39.583C554.037,704.909,537.888,723.948,501.922,724.6Z"/><path d="M496.948,859.015c30.956-21.937,53.144-14.216,69.4,5.788,4.129-3.211,8.16-6.623,12.465-9.643,14.43-10.126,29.826-12.368,46.11-4.895,15.274,7.009,21.41,20.837,22.231,35.891,1.394,25.545.439,51.214.673,76.829.075,8.17-3.56,11.808-11.647,11.316a61.155,61.155,0,0,0-8.876-.012c-9.469.813-13.575-3.5-13.4-12.895.272-14.307.231-28.621.219-42.933-.006-6.9.229-13.86-.479-20.706-1.628-15.727-7.81-21.839-20.769-21.431-12.709.4-19.32,7.389-19.685,22.617-.438,18.246.407,36.524-.06,54.769-.164,6.455-.954,17.2-4.244,18.409-7.809,2.874-17.5,2.338-25.961.735-2.669-.506-5.331-8.732-5.477-13.5-.529-17.25.079-34.533.109-51.8a107.91,107.91,0,0,0-.82-14.762c-1.174-8.594-5.569-14.693-14.648-16.2-9.2-1.525-17.273,1.211-21.216,9.71-2.8,6.031-4.033,13.21-4.254,19.933-.569,17.255-.092,34.543-.207,51.816-.1,15.757-.753,16.276-17.066,16.235-.987,0-1.975.042-2.96.006-12.608-.46-13.589-1.162-13.769-13.6-.258-17.764-.083-35.535-.087-53.3,0-13.819-.077-27.639.024-41.458.119-16.426.6-16.565,16.369-17.059C487.244,848.613,494.775,848.734,496.948,859.015Z"/><path d="M349.1,964.576c-5.46,2.846-10.948,6.107-16.747,8.661-22.845,10.065-47.611,1.037-55.844-20.154-8.6-22.124,3.073-46.624,26.438-54.571,7.4-2.516,15.216-3.851,22.9-5.456,6.579-1.375,13.239-2.364,19.878-3.527C341.433,869.291,334,867.84,291.21,877.405c-11.414-16.989-9.824-21.839,9.637-27.739,17.384-5.271,34.932-6.045,52.283.078,14.662,5.173,25.293,15.71,26.671,30.871,2.579,28.393,3.053,57,3.6,85.54.161,8.331-9.83,12.51-19.313,8.344C358.836,972.189,354.349,968.128,349.1,964.576Zm-1.915-38.529c1.077-8.441-3.561-12.323-12.089-10.477a67.665,67.665,0,0,0-18.942,7c-6.877,3.91-7.594,11.151-5.68,18.2,1.981,7.29,7.888,9.319,14.808,9.432C339.282,950.425,347.473,941.736,347.186,926.047Z"/><path d="M736.468,965.3c-5.508,2.591-11.948,6.274-18.826,8.734-21.776,7.785-44.774-1.23-52.366-20.09-8.7-21.608.321-43.857,22.712-53.739,7.986-3.524,16.909-5.032,25.5-7.035,6.584-1.536,13.324-2.4,19.954-3.562-2.324-14.6-5.275-18.655-17.371-18.231-12.562.44-25.036,3.394-38.933,5.453-1.2-3.511-2.874-8.023-4.277-12.619-1.786-5.856.843-9.871,6.277-11.463,20-5.862,40.129-10.594,60.921-3.474,15.915,5.45,26.955,16.631,28.42,32.881,2.517,27.909,2.533,56.056,3.217,84.113.223,9.138-7.429,10.594-13.552,9.215C751.272,973.933,745.048,969.493,736.468,965.3ZM725.89,915.341c-15.194-.393-27.177,7.912-27.86,18.877-.61,9.807,4.614,15.494,14.669,15.97,12.684.6,22.213-8.3,22.74-21.35C735.73,921.631,735.822,914.45,725.89,915.341Z"/><path d="M880.446,879.158c0-19.215-.177-38.431.062-57.642.158-12.736,1.294-13.659,13.251-14.178,18.809-.816,20.264.548,20.461,19.205.021,1.97-.046,3.942.012,5.911.382,12.871.4,12.886,13.409,13.616,14.836.833,15.862,1.867,16.118,16.252.264,14.857-.891,16.534-16.676,16.791-9.446.154-13.385,3.493-12.98,13.1.518,12.295-.115,24.636.247,36.943.4,13.449,3.1,16.891,16.173,17.586,9.075.483,12.08,4.692,12.4,12.765.326,8.154-1.686,14.193-10.689,16.82-26.566,7.75-50.47-8.858-51.68-36.577-.451-10.327-.133-20.689-.148-31.035q-.019-14.779,0-29.56Z"/><path d="M439.872,891.062c0,22.714.166,45.43-.062,68.142-.139,13.91-1.348,14.817-15.582,15.1-1.974.039-3.951.054-5.924-.006-13.149-.394-14.5-1.411-14.57-14.486-.153-27.645.108-55.292.127-82.938.013-17.277-.29-34.555-.112-51.829.171-16.542,1.51-17.679,17.788-17.722,17-.046,17.849.592,17.977,17.085.173,22.217.043,44.436.043,66.654Z"/><path d="M825.715,861.606c9.093-5.091,17.089-10.976,26.043-14.21,10.252-3.7,14.282.068,15.04,11.064,1.182,17.139.591,17.922-16.6,21.963-14.2,3.34-21.5,12.126-21.8,27.4-.328,16.731.045,33.475-.092,50.211-.126,15.359-.752,15.9-15.669,16.258-3.442.083-6.888.034-10.332.027-6.745-.016-9.821-3.623-9.825-10.149q-.034-52.422-.052-104.844c-.006-7.409,3.7-10.088,11.012-10.467C820.449,847.979,821.964,848.575,825.715,861.606Z"/></svg>