<svg xmlns="http://www.w3.org/2000/svg" viewBox="0 0 1000 1000"><path d="M209.265,557.649c6.006,4.86,12.345,9.117,17.617,14.431a84.834,84.834,0,0,1,23.588,44.274c5.19,25.874-2.574,47.675-17.413,68.036-9.561,13.119-22.7,21.461-37.629,26.809a63.587,63.587,0,0,1-20.522,3.586c-38.986.341-77.977.074-116.964.3-6.214.036-8.379-1.883-8.368-8.217q.233-131.671,0-263.344c-.012-6.716,2.555-8.638,8.92-8.59,30.1.229,60.2-.207,90.287.235,21.434.315,41.246,6.068,57.328,21.212,9.16,8.626,14.687,19.621,19.048,31.176a54.123,54.123,0,0,1,2.818,13.128C230.342,522.256,223.589,540.978,209.265,557.649ZM94.817,586.218a17.762,17.762,0,0,0-.717,2.965c-.045,26.446.02,52.893-.157,79.338-.033,4.82,2.671,4.956,6.136,4.935,21.657-.125,43.318.01,64.968-.434,5.736-.117,12.081-.7,17.046-3.226,25.985-13.241,36.037-44.358,14.3-69.419-8.38-9.662-20.209-13.928-32.994-14.082C140.644,586.021,117.879,586.218,94.817,586.218Zm-.271-109.4v68.765c22.03-1.3,43.481-2.1,64.837-3.98,17.742-1.561,30.472-26.378,23.036-42.71-6.5-14.27-18.363-20.872-32.765-21.8C131.54,475.933,113.294,476.814,94.546,476.814Z"/><path d="M559.775,576.316c.846,42.042-14.479,77.584-44.456,106.653a126.554,126.554,0,0,1-54.633,31.336c-16.522,4.577-33.64,7.939-50.914,5.718-25.25-3.246-49.242-9.933-70.437-25.4-23.686-17.29-40.277-39.663-50.824-66.536-3.553-9.053-4.629-19.135-6.354-28.832a140.585,140.585,0,0,1-2.457-21.531A149.094,149.094,0,0,1,290.719,518.5c7.452-18.5,18.038-35.17,32.709-48.875a140.987,140.987,0,0,1,51.976-31.39c21.224-7.063,43.4-8.494,65.146-5.473,35.078,4.873,64.7,21.436,87.291,49.023,12.423,15.172,22.241,32.12,26.193,51.7,2.837,14.058,5.032,28.246,7.514,42.376Zm-237.611.221c2.58,12.675,3.519,25.986,8.133,37.871,6.551,16.875,16.237,31.931,31.3,43.632,16.329,12.683,34.588,18.358,54.363,20.3,14.785,1.454,29.058-2.294,42.511-8.2A91.035,91.035,0,0,0,497.3,638.279c8.3-11.927,13.6-25.15,17.11-38.982a89.029,89.029,0,0,0,2.694-25.483c-.391-8.858-2.964-17.624-4.645-26.418-2.889-15.124-10.124-28.255-19.692-39.964-14.717-18.009-33.938-29.728-56.8-32.886-12.686-1.752-26.1.521-39.037,2.139C381.332,478.636,368.25,486.9,357,497.264,334.092,518.368,323.957,545.228,322.164,576.537Z"/><path d="M840.865,673.446H850.5q63.3,0,126.593-.035c10.058-.02,12.918.889,12.3,12.477a218.739,218.739,0,0,0,.016,22.573c.258,5.148-1.594,6.67-6.635,6.609-19.385-.234-38.775-.092-58.163-.091-45.391,0-90.782-.1-136.172.114-6.01.027-7.518-1.569-8.352-7.828-2.16-16.2,4.886-28.338,13.795-40.64,13.241-18.282,25.665-37.16,38.3-55.877,12.223-18.109,24.223-36.368,36.409-54.5q19.237-28.626,38.653-57.133c4.852-7.141,9.852-14.182,15.539-22.353h-8.416q-56.8,0-113.592,0c-9.061,0-9.078-.028-9.1-9.14-.023-8.212.217-16.431-.077-24.632-.213-5.939,2.2-8.058,8.069-8.027,30.792.166,61.586.074,92.379.073,26.915,0,53.832.185,80.744-.13,6.6-.078,7.77,2.262,8.717,8.53,2.572,17.018-5.243,29.806-14.2,42.772-15.105,21.867-29.674,44.1-44.583,66.107-20.079,29.633-40.3,59.17-60.391,88.793C855.377,651.35,848.627,661.734,840.865,673.446Z"/><path d="M566.9,476.991c0-13.325-.169-25.363.209-37.383.048-1.552,2.764-3.285,4.57-4.41,1-.62,2.669-.165,4.037-.165q86.87,0,173.741,0c9.608,0,9.959.384,9.967,10.07.009,10.209,0,20.419,0,31.385H685.757c-.193,3.571-.482,6.424-.483,9.278q-.038,109.785-.023,219.571c0,9.622-.02,9.628-9.8,9.637-8.892.008-17.8-.352-26.67.118-6.441.342-8.068-2.151-8.04-8.268.21-45.144.114-90.29.113-135.436v-94.4Z"/><path d="M98.4,292.748c-24.395,0-48.792-.163-73.184.119-6.122.07-8.66-1.6-8.251-8.055a195.469,195.469,0,0,0,.016-23.242c-.35-6.247,2.8-6.982,7.906-6.967,43.091.123,86.182.068,129.272.069,7.068,0,14.138.123,21.2-.022,3.993-.082,5.841,1.377,5.767,5.562-.154,8.66-.252,17.334.048,25.987.179,5.175-1.944,6.654-6.855,6.622C149.013,292.657,123.706,292.745,98.4,292.748Z"/></svg>