<svg id="Layer_1" data-name="Layer 1" xmlns="http://www.w3.org/2000/svg" viewBox="0 0 1000 1000"><path d="M412.76,482.27c10.39-1.3,25.73-2.79,35.56-3.38,2.19-.11,2.65-.08,3.49,1a32.51,32.51,0,0,0,9.52,7.65c1.52.81,2.22,1.23,3.38,1.23a4.31,4.31,0,0,0,3.35-1.59,3.14,3.14,0,0,0,.74-3.59c-.6-1-7.43-4.83-7.65-6.35-.14-1,.92-1.19.92-1.19a22.29,22.29,0,0,0,13.47-10.93c3.13-6,3.59-14-2.05-18.44-5-3.88-12.62-3.28-18.68,2.12a22.54,22.54,0,0,0-7.05,19.67c.14,1.16.07,1.55-1.52,1.69-9.09.7-17.83.95-27.6,1.48-.63,0-.84-.39-.46-.85,11.21-19.45,28-33.34,46.46-47,1.24-.92.89-2.68.81-4.12,33.46,7.26,65.78,20.79,100.47,20.51,14.34-.14,28.09-2.33,41.24-9.52,11.53-6.31,16.21-12.12,16.57-18.19.24-4.16-2.65-6.8-6.81-5.92-35,8.07-68.49,8-103.35,3.74-45.54-5.5-89-17.73-134.83-13.92-38.07,3.17-74.31,24.6-74.38,57.17,0,16.5,11.71,29.86,29.89,29.29,21.37-.74,38.89-17.87,48.05-39.41,3.49-8.21-3-11.59-6-6.87a54.6,54.6,0,0,1-21.54,19.18c-10.08,4.93-20.79,3.56-24.07-4.59-4.58-11.52,5-28.73,26.68-36.83,31.38-11.64,64.19-3.95,95.78,2,.46,0,2.15,1,.63,1.73-5.64,3.07-11.21,5.57-19.88,13-6.2,5.36-14.38,12.41-20.66,20.16s-10.68,14.39-16.56,21.89a2.2,2.2,0,0,1-1.8,1.06c-14.31,2.43-28.31,4-41.1,12.94-2.65,1.83-3.81,5.11-2.19,7.58,1.45,2.18,4.76,2.43,7.05.74a43,43,0,0,1,25.56-9c.39,0,.6.1.7.35a.66.66,0,0,1-.14.64c-14.1,19.52-17.62,24-28.2,36.09a208.12,208.12,0,0,1-16.67,16.92c-24,22.31-49.91,21.93-59.19,7.93a23.8,23.8,0,0,1-1.19-24.53c4.47-9,13.53-15.55,21-19.39,2.78-1.41,3.6-5,.81-8.25-1.8-2.11-6.13-2.5-9.3-1.9-9.84,1.83-21.47,9.27-28.35,18.22a49.9,49.9,0,0,0-10.36,36c2.36,24.71,22.7,39,45.83,38.81,18.36-.14,35.67-5.71,56.54-26.86,19.42-19.74,37.11-49.18,53.68-76.49C409.87,483,410.25,482.55,412.76,482.27Zm48.92-28.52c2-1.76,4.69-2.18,6.35-.77,1.83,1.58,1,5.53-.92,8.24a15.13,15.13,0,0,1-8.63,6.24c-.64.15-1.2-.14-1.45-1.55A14,14,0,0,1,461.68,453.75Z"/><path d="M747.24,452.87H725.88c-1.58,0-2.43.21-3.14,1.66-2.46,4.69-32.32,49.49-37.89,58.16-1,1.34-2.08,1.16-2.22-.35-.56-5.15-5-11.11-12.06-14a30.57,30.57,0,0,0-16-1.83c-9.83,1.3-18.61,6.52-26.3,12.37-11.59,8.81-21.6,20.23-34.51,28.66-7,4.61-16.74,8.63-23.19,2.64-5.85-5.43-5.18-17.48,3.77-26.79.95-1,2.08-.18,1.91.71a11.86,11.86,0,0,0,3.38,11.35A12.77,12.77,0,0,0,593.91,527a18.69,18.69,0,0,0,9.9-14.31c1.52-9.52-5.82-17.88-15-18.58-7.44-.49-14.56,2.08-21.54,7.82a42.1,42.1,0,0,0-8.46,9.31c-.74,1-1.83,1.16-1.8-.39.32-12.19-4.68-19-14.77-19.24-7.79-.18-16.14,4.05-22.66,9.23-7.12,5.71-13.33,13.33-20,20.45-.85.88-1.55.84-1.77-.88-.24-8.08-2.25-15.87-6-21.4a4.92,4.92,0,0,0-6.41-1.59,42.16,42.16,0,0,0-7.58,4.51,4.34,4.34,0,0,0-1.31,4.8,56.58,56.58,0,0,1-2,37.33C470,554.67,461.22,564.23,451,567.47c-6.77,2.15-13.78,1.09-18.12-4.9-5.95-8.25-3.56-22.63,5.36-34.55,7.83-10.54,19.21-17.2,30.49-21.5A1.76,1.76,0,0,0,470,504c-.6-1.87-1.59-4.41-2-5.57-1.05-2.75-4-3.17-7.51-2.82a63.79,63.79,0,0,0-23,7.72c-19.21,10.29-28.83,30.17-33.06,40.82a40.28,40.28,0,0,1-6,11.1c-3,3.84-6.83,7.3-13.78,13.4a2.46,2.46,0,0,0-.56,2.82,29.73,29.73,0,0,0,5.36,7c1.12.57,2.43-.21,3-.6a71.06,71.06,0,0,0,13.5-12c1-1.2,2-.71,2.57,1.12a29.89,29.89,0,0,0,19.25,20.45c17.55,6,35.85-2.64,49.63-17.63,8.74-9.48,11.91-15.61,15.26-19.74,5.71-7,16.92-22.84,30.28-32.95,4.9-3.74,10.72-6.6,13.64-4.69,2.33,1.51,3.11,5-.67,11.88-13.6,24.88-33.69,54.14-37.36,61.19-.67,1.23-.07,2.22,1.2,2.22l20.69,0a2.47,2.47,0,0,0,2.11-1.31c10.44-16.35,20.27-31.93,30.85-48,.56-1,1.13-.21,1.16.17a26.75,26.75,0,0,0,3.35,12.23,18.24,18.24,0,0,0,15.9,8.92,30,30,0,0,0,12.9-2.71,45.19,45.19,0,0,0,10.57-5.71c1.59-1.06,1.84.77,1.8,1.06-2.39,13,.6,28.41,13.5,34.75C628,594.68,645,584,654.78,574.27c1-.91,2-.81,2.05,1.2a17.91,17.91,0,0,0,4.93,11.14c8.22,8.21,24.75,4.93,41.32-7.9a206.72,206.72,0,0,0,31.86-32.11l0,0a1.42,1.42,0,0,0-.09-2c-1.55-1.62-3.77-3.42-5.29-4.83a1.81,1.81,0,0,0-2.29,0c-10.29,9.8-19.6,21-33,30.25-4.51,3.13-11.74,5.71-15,1.34-1.27-1.73-1.09-4.09.14-7.2,3.92-9.72,65.88-104,69.09-109.62C749,453.58,748.48,452.87,747.24,452.87Zm-80.61,80.76c.1.7,1,1.41,2,1.76.35.11.53.35.14,1.13-2.64,5.64-5,8.88-8.35,13.78a52.14,52.14,0,0,1-10.58,11.46c-6.27,5.18-14.94,10.82-22.13,7-3.18-1.66-4.59-6.14-4.48-9.73.14-10.15,4.65-20.59,13-30.84,10.15-12.52,21.39-19,28.76-15.44,7.61,3.63,5.22,12.47,1.76,19.38v0A1.86,1.86,0,0,0,666.63,533.63Z"/><path d="M500,0C223.86,0,0,223.86,0,500s223.86,500,500,500,500-223.86,500-500S776.14,0,500,0Zm0,658.62C266.75,658.62,77,587.7,77,500c0-88.23,188.23-158.62,423-158.62,233.25,0,423,71.2,423,158.62S733.25,658.62,500,658.62Z"/><path d="M500,355.3c-223.84,0-405.38,64.79-405.38,144.77S276.13,644.81,500,644.81,905.3,580,905.3,500.07,723.84,355.3,500,355.3Zm0,277.49c-216,0-391.1-59.68-391.1-132.72S284,367.32,500,367.32,891.06,427,891.06,500.07,716,632.79,500,632.79Z"/></svg>