<svg id="Layer_1" data-name="Layer 1" xmlns="http://www.w3.org/2000/svg" viewBox="0 0 1000 1000"><path d="M228.84,515.56a100.9,100.9,0,0,0,.4,20.92c.16,1.47,4,3.4,6.34,3.57,3.2.23,4.49-2.71,4.53-5.61.1-9.35,0-18.71,0-29C234,508,229.34,510.49,228.84,515.56Z"/><path d="M500,0C223.86,0,0,223.86,0,500s223.86,500,500,500,500-223.86,500-500S776.14,0,500,0ZM176.77,558.59h-25.6l-4.81-8.88c-1.66,1.5-3.18,3.09-4.91,4.41-12.41,9.48-25.78,9.35-39.46,3.4-13.28-5.78-21.29-15.81-21.52-30.43-.38-25,.06-49.91-.18-74.86-.17-16.82,8.63-27.8,23.56-33.05,20.5-7.19,40.75-5.91,59.4,6.68,4.72,3.18,8.38,7.17,9.5,12.65,1.68,8.2,2.85,16.51,3.94,24.82.53,4.05-1.71,6.44-5.9,6.47-11.18.08-22.36,0-34.66,0-.24-5-.34-9.22-.68-13.44s-.78-8.68-1.51-13c-.59-3.5-3.2-5.27-6.61-5s-5.55,2.34-5.66,6c-.06,2.36-.24,4.72-.24,7.08q0,36.91,0,73.84c0,2,.13,4,.17,6.07.07,4,2.14,6.37,6.06,6.83s6.48-2,7.52-5.47c.75-2.52.67-5.33.71-8,.09-6,0-12.11,0-18.52l-7.25-3.08c-2.41-16.15-1.93-16.75,13.23-16.76l27.57,0c4.25,0,7.31,1.25,7.3,6.26C176.75,514.26,176.77,535.8,176.77,558.59Zm102.65-2H243.24c-.74-2.08-1.47-4.17-2-5.77-5.21,2.52-10.11,5.54-15.43,7.32-9.32,3.11-18.18.6-26.38-4.12-5.88-3.37-7.82-9.33-8.34-15.46a168.57,168.57,0,0,1-.14-20.23c.25-7,3.53-12.21,10.14-15.11,4-1.77,8-3.6,12.17-5.16,4.45-1.69,9-3,13.5-4.62,13.27-4.88,16.52-11.17,13.19-24.7-.91-3.68-3.2-5-6.66-4.74-3.16.23-4.89,2.06-5.1,5.23-.26,4-.53,8-.86,13H192.65c-3.55-10.9-.6-22,8-28.06,14.37-10.26,30.63-12.14,47.66-9.44,9.18,1.45,17.87,4,24.46,11.27,3.81,4.22,6.29,8.8,6.42,14.45q.9,39.41,1.63,78.82C280.81,551.5,280,553.75,279.42,556.55Zm159.24-84.7q0,37.93,0,75.88c0,2.65-.32,5.3-.55,8.84-12,1.15-23.73.62-36.19.35-.3-3.6-.75-6.51-.76-9.42-.06-19.56.11-39.13-.09-58.69-.08-7.69-.94-15.37-1.42-22.68-9.88-3.49-12.07-2.38-12.2,6.65-.28,20.57-.15,41.15-.18,61.72,0,7,0,14,0,22-13,1.36-25,.54-38.27.62-.24-4.15-.59-7.7-.6-11.26-.11-23.27-.14-46.54-.21-69.81,0-2.36,0-4.73-.23-7.07-.28-3.16-2.2-4.77-5.34-5.05-3.4-.3-6.34.66-7.24,4.12a36.26,36.26,0,0,0-.89,9q-.09,33.9,0,67.79v11.76c-12.7,1.1-24.39.68-35.89.34-2-8.13-2.44-98.22-.56-110.64h35.23c.47,1.62.91,2.83,1.16,4.08s.34,2.62.6,4.85c17.5-14.76,34.59-15.75,51.21.4,3.27-2.38,6.13-4.69,9.2-6.67,9.24-5.95,19.09-6.67,29.21-2.65,7.91,3.15,12.42,9.2,13.71,17.5A54.51,54.51,0,0,1,438.66,471.85ZM492,533.57c0,3.87,2.65,6.17,6.42,6.7,3.41.47,6.6-2.62,7.2-7,.4-3,.23-6.06.38-9.09.16-3.28.39-6.55.6-10,9.37-2.92,18.23-1.26,26.91-1.45,11-.25,10.77.4,10,11.58-.61,9.18-2.71,17.5-9.53,23.7-7.46,6.79-16.84,10.07-26.87,11.08a75.34,75.34,0,0,1-32.16-3.7c-13.64-4.65-21.54-14.39-22.22-28.5-.79-16.49-.81-33.07-.09-49.56.7-16,9.75-26.44,25-30.67,17.75-4.92,34.89-4,51,5.8A26.09,26.09,0,0,1,540.89,468c3.14,11.33,4.58,22.87,3,35.11H492.65C490.92,513.56,491.9,523.6,492,533.57ZM651.67,533c-1.1,10.68-6.55,17.91-15.57,22.06-20.63,9.5-41.72,9.12-61.93-1-10-5-14.52-14.79-15.3-25.9-.23-3.34,0-6.7,0-11.36,6.35-.21,12.29-.47,18.24-.57,5.76-.1,11.52,0,18.27,0,.4,4.41.63,8.3,1.14,12.15,1,7.39,3.21,10.2,7.7,10.1,4.75-.1,8.88-4.16,9.27-10.32.58-9.12-1.41-17.47-10.05-22.74s-17.19-10.9-26.13-15.73c-17-9.21-21.58-28.19-19.58-44.1,2.1-16.82,12-24.69,27.19-28.35a76,76,0,0,1,41.19,1.52c12.42,3.87,21.24,10.44,21.85,24.52.22,5,.86,9.95,1.43,16.31H610.57c-.18-4.77-.25-9.06-.51-13.34-.33-5.19-2.38-8-5.94-7.82-4.34.17-6.68,2.94-7.75,6.84-2.49,9.09.62,16.42,9.12,21.41,7.6,4.47,15.3,8.76,22.9,13.24q4.36,2.61,8.46,5.64A34.74,34.74,0,0,1,651.47,511,103.06,103.06,0,0,1,651.67,533Zm64.52,8.31v15.27c-12.56.65-25,2.26-37.09-1.84-8.4-2.84-12-9.23-12-18,.06-22.55,0-45.11-.09-67.66,0-3.65,0-7.31,0-10.88l-7.56-3.32V444.83l7.21-2.82c.27-4.42.51-8.42.83-13.64,11.79-1.57,23.45-.32,36-.73l1.48,14.9,11.1,1.61c.17,3.36.35,6.85.55,10.86l-11.72,2.13v80.42Zm98.47-11.53c-1.28,13-11.32,23.75-25.33,27.09-13,3.11-26.18,3.62-39.32.27-17.73-4.51-24-12.89-25.16-28.77a391.61,391.61,0,0,1-.09-51.5c1-17.43,11.94-28,29.2-31.47,15.5-3.14,30.39-2.2,44.5,5.25,10,5.26,16,13.2,16.51,24.82.38,8,1.27,16.06,1.86,23.29C816.09,509.69,815.64,519.76,814.66,529.79Zm103.25,8.71c-1.33,17-20.25,23.24-31.87,19.48-6.34-2.05-12.3-5.24-19.24-8.27-2.16,11.31.52,23.06-1.68,35h-34v-139h33.65c.82,2.7,1.55,5.11,2.51,8.31,3.18-1.94,5.69-3.5,8.23-5,9-5.39,18.22-6.69,28.28-2.91,9.76,3.68,14.82,10.42,15,20.62q.33,22.77.2,45.55C918.89,521,918.59,529.79,917.91,538.5Z"/><path d="M503,465c-10.07-1.16-10.81-.69-11.14,7.13-.18,4.3,0,8.62,0,13.27H503Z"/><path d="M775.77,491c0-8.4,0-16.79,0-25.7-10.93-1.57-11.94-1-12,7.8-.17,18.9-.1,37.8,0,56.7,0,2.31.06,5,1.22,6.79s3.78,3.44,5.56,3.25,3.86-2.51,4.67-4.38c.87-2,.54-4.64.55-7Q775.79,509.7,775.77,491Z"/><path d="M878.06,468.28c-.35-3.2-2.19-5.12-5.21-5.14s-5,1.91-5.52,5a64,64,0,0,0-1.26,8.93c-.17,8.07-.06,16.16-.05,24.24,0,8.41-.19,16.83.09,25.24a25,25,0,0,0,2.13,9.71c.77,1.62,3.56,3,5.51,3.11,1.3.06,3.48-2.18,3.9-3.75a48.93,48.93,0,0,0,1.77-11.91q.29-22.21,0-44.43C879.39,475.59,878.44,471.94,878.06,468.28Z"/></svg>