<svg id="Layer_1" data-name="Layer 1" xmlns="http://www.w3.org/2000/svg" viewBox="0 0 1000 1000"><path d="M259.66,489.66c-16.69,0-28.68,13-28.68,30.53,0,17.39,12.19,30.36,28.88,30.36s28.88-13,28.88-30.33S276.52,489.66,259.66,489.66Z"/><path d="M536.54,489.66c-16.66,0-29,13.16-29,30.53s12.19,30.36,28.88,30.36,28.89-13,28.89-30.33C565.26,502.62,553.44,489.66,536.54,489.66Z"/><path d="M644.15,527.54c-10.85,1.18-22.7,3.86-22.7,13.7,0,7.73,7.39,11.42,16.12,11.42,14.17,0,25.83-9.84,25.83-23.17l0-9.67C660.44,524.28,654.63,526.6,644.15,527.54Z"/><path d="M500,0C223.86,0,0,223.86,0,500s223.86,500,500,500,500-223.86,500-500S776.14,0,500,0ZM149.13,550.55a26.2,26.2,0,0,0,25.39-18.95H199C194.5,555.75,174.32,572,149.13,572,119.27,572,97,550,97,520.19s22.87-52,52.16-52c25.79,0,45.57,16.26,50,40.21H174.52c-3.66-11.22-13.36-18.74-25.58-18.74-16.88,0-28.53,13-28.53,30.53C120.41,537.58,132.27,550.55,149.13,550.55ZM259.66,572c-29.86,0-52.16-22-52.16-51.79s22.87-52,52.16-52c30.23,0,52.53,22.44,52.53,51.83C312.19,549.57,289.52,572,259.66,572Zm96.76-1.89H333.14V490.83H318.6V470.11h37.82Zm2.24-120.71a14.39,14.39,0,0,1-13.89,9c-8.54,0-14.92-6.18-14.92-14.71a15.3,15.3,0,0,1,20.66-13.71,14.43,14.43,0,0,1,9.2,13.71A14.65,14.65,0,0,1,358.66,449.38Zm109,120.68H444.45V512.83c0-13.7-8.36-23.17-21.73-23.17-14.34,0-24.05,10.81-24.05,26.09v54.31H375.4V470.14h23.07v12.93c5.84-8.7,15.75-14.88,30.86-14.88,25.4,0,38.36,17.81,38.36,42.93Zm72.14,2a40.39,40.39,0,0,1-32-15.08v13.13H485V428h23.27V482.7a40.57,40.57,0,0,1,31.57-14.51h0c27.54,0,49,22.24,49,52S567.78,572,539.83,572Zm157.86-2H684.12c-10.28,0-17.63-6.38-18.41-16.22-5.24,11-15.71,18-32.41,18-21.29,0-34.72-11.59-34.72-29.56,0-23.21,22.13-29.39,40-31.33,13.2-1.35,23.85-3.46,23.85-11.79,0-6.38-5.81-11.59-17.63-11.59-13.17,0-19.38,6.58-20.56,14.51H601.13c2.89-20.49,17.63-33.82,44-33.82,27.94,0,41.1,14.47,41.1,36.14h0v45h11.42Zm52.12,2c-27.87,0-43.19-13.74-45.34-33.25h22.87c1.18,8.5,8.94,14.1,22.71,14.1,11.25,0,19.38-3.29,19.38-11.21,0-6.18-4.64-9.47-13-10.62l-17.06-2.51c-21.53-3.09-32.18-13-32.18-30,0-17.77,16.29-30.37,40.91-30.37C772,468.19,787.46,480,790,500.1h-22.5c-1.51-7.93-8.7-12.73-20-12.73-10.25,0-17.8,3.46-17.8,10.41,0,6.39,5.81,9.07,13.93,10.25l17.07,2.52c19.21,2.88,31.43,12.15,31.43,30C792.13,560.39,775.24,572,749.81,572ZM903,525.79h-77c2.49,16.26,13.74,25.53,28.69,25.53,11.45,0,20-5,23.47-13.9h24.25C897.59,557.7,878.62,572,854.37,572c-28.72,0-52.16-20.69-52.16-51.82,0-29.56,21.9-52,51.79-52,28.08,0,49,20.12,49,48.7v8.9Z"/><path d="M853.59,488.51c-12,0-22.5,6.75-26.19,20.66h51.79C876.87,496,866.76,488.51,853.59,488.51Z"/></svg>