<svg id="Layer_1" data-name="Layer 1" xmlns="http://www.w3.org/2000/svg" viewBox="0 0 1000 1000"><path d="M474.58,281.4A192,192,0,0,0,242.35,572.53C290,480.16,370.56,373.29,474.58,281.4Z"/><path d="M497.16,293.68c-105.6,112.39-183,227.47-221,313.21A191.82,191.82,0,0,0,535.21,587L477.39,478.42c26.47,24.44,57.73,43.9,91.2,59.37a191.71,191.71,0,0,0-71.43-244.11Z"/><path d="M500,0C223.86,0,0,223.86,0,500s223.86,500,500,500,500-223.86,500-500S776.14,0,500,0Zm55.93,625.87-7.74-14.59a218.12,218.12,0,0,1-282.26,20.65c-22.2,59-22.1,100.13,4.8,110.3C314.44,758.72,394,686.91,394,686.91c-51.41,77.62-137.12,125.27-176.56,99-36.82-24.51-29.56-97.11,12.26-187.52A218.14,218.14,0,0,1,496.12,262.77a984.55,984.55,0,0,1,132.63-93.95Q569.61,218.76,515.6,274.36a218.36,218.36,0,0,1,77.15,273.69l-.07,0c154.2,61.26,342.13,48.91,342.13,62.52C934.81,610.61,651,618.13,555.93,625.87Z"/></svg>