<svg id="Layer_1" data-name="Layer 1" xmlns="http://www.w3.org/2000/svg" viewBox="0 0 1000 1000"><path d="M406.8,462.67c3.12-.16,6.25,0,9.37,0,11.32-.08,16.09-5,15.71-16.27-.22-6.29-3.44-10.86-9.7-11.92-5.23-.89-10.67-.48-16-.77-2.23-.13-2.73.88-2.67,2.87.11,3.76,0,7.53,0,11.3s.16,7.76,0,11.62C403.32,462.11,404.35,462.81,406.8,462.67Z"/><path d="M551.91,443.46l-1,0c-3.76,11.39-7.53,22.78-11.4,34.5h24.36Z"/><path d="M500,0C223.86,0,0,223.86,0,500s223.86,500,500,500,500-223.86,500-500S776.14,0,500,0ZM431.64,418.76c8.16.07,16.34.72,24,4.12a24.6,24.6,0,0,1,13,32.27c-.22.53-.46,1-.72,1.55a30.73,30.73,0,0,1-12.09,13.13c-.91.53-1.81,1.09-2.61,1.58,0,.43-.12.67,0,.84,7.42,15.68,15.18,31.17,26.77,44.32a49.25,49.25,0,0,0,7.56,6.49,3.6,3.6,0,0,0,3.18.25c5.29-2.83,10.18-6.31,12.66-12q9.63-22.17,18.89-44.5c3.58-8.63,6.9-17.38,10.18-26.14,3.92-10.51,1.43-16.62-9.3-22,19.81,0,39,0,58.15-.05,2.23,0,2.9,1,3.52,2.85,8.4,24.26,16.9,48.49,25.29,72.75,4.16,12.05,9.86,22.94,22.17,29.81H561.69c2.1-1.41,4.26-2.63,6.17-4.18,6.17-5,7.82-10.87,5.28-18.4a83.37,83.37,0,0,0-3.35-9.06,4.52,4.52,0,0,0-3.15-2.34c-9.37-.19-18.75-.14-28.13-.06-.93,0-2.48.53-2.68,1.16-1.79,5.58-4.25,11.16-4.75,16.89-.62,7.1,3.61,12.34,10.71,16.16h-3.25c-26.94,0-53.88-.21-80.82.11-10.47.12-18.36-3.81-23.34-12.68-5.57-9.93-10.38-20.27-15.57-30.41-.86-1.67-1.71-4.25-3-4.57-2.84-.7-6-.29-9-.11-.44,0-1.17,1.28-1.16,2,.17,9.89,0,19.81.83,29.65.56,6.91,4,12.65,11.44,15.91H358.43c9.75-7.12,12.16-16.79,12-27.75-.23-18.85-.05-37.69-.13-56.54a32.89,32.89,0,0,0-.87-7.65c-1.41-5.8-4.53-10.42-10.9-13.26,1.45-.09,2.19-.18,2.93-.18C384.87,418.7,408.25,418.58,431.64,418.76ZM122.48,383.64c-7.78-6.62-15.79-13-24.17-19.85,13.82-4.93,23.28,3,33,10.36,6.17-6.27,12.23-12.42,21.67-14.38,2.51,10.05-.7,18.34-7.24,26,6.8,3.87,13.87,5.62,21.25,6.63,8.33,1.15,15.29-1.37,20.35-7.81,2.69-3.43,4.08-7.87,6-11.67,3.34.53,7.21,1.66,11.08,1.67,8.25,0,14.71-3.63,18.75-11,5.85-10.72,8.19-22.1,6.23-34.22a25.34,25.34,0,0,0-1.65-4.47c-9.68,2.68-18.72,2.59-27.32-3.36,4.7-9.22,12.31-14,21.82-15.66-1.23-5.12-2.73-10-3.51-15a29.62,29.62,0,0,1,3.41-19.64c1.32-2.32,2.7-2.88,5.15-1.43,8.92,5.27,13.63,13.5,16.47,23A59.08,59.08,0,0,1,245,299.7c4.87-.33,9.52-1,14.15-.86a23.77,23.77,0,0,1,13.46,5c-4.87,9.41-12.86,14.07-23.7,15.85,2.17,4.62,3.85,8.91,6.1,12.86a52.87,52.87,0,0,0,17.27,18,22.23,22.23,0,0,0,29-4c.7-.8,1.37-1.61,2.23-2.62,3.95,5.74,9.14,9.48,15.9,10.17a26.71,26.71,0,0,0,10.78-.83c9.7-3.22,16.19-10.5,22.27-18.91-9.1-3.38-15.69-8.82-19.13-18.29,9.4-3.29,18.11-2.13,26.84,3.19,2-13.86,9.38-22.52,23.36-26.2-2.05,4.74-3.86,8.82-5.6,12.93-11.15,26.34-18.64,53.72-23.48,81.87-1,6-2.07,12.06-3.25,18.06-1.28,6.49-5.47,10.79-11.06,13.91-.3.16-.78,0-1.81,0,.73-1.24,1.21-2.11,1.75-2.94,4.92-7.53,2.52-14.84-6.27-16.76A88.37,88.37,0,0,0,312.41,398c-32.61,1.05-63.8,8.67-93.73,21.48-8.73,3.74-17.18,8.07-24.26,14.59C186.9,441,188,448.2,197.17,453c.61.32,1.14.8,2.55,1.79-2.92,0-4.93.31-6.81-.06a20.8,20.8,0,0,1-13-8.23C162.82,423.68,144.25,402.19,122.48,383.64Zm64.34,161.21c-8.89-5-16.38-11.51-21.11-20.78-4.49-8.79-4.88-18-2.12-27.28,2.92-9.82,10.07-15.25,19.89-17.26,16.44-3.36,30.46,10,30.32,26.51a55.75,55.75,0,0,0-6.86,0c-6.74.88-10.19,6.11-8.73,12.78,1.08,4.94,4.07,8.44,8.13,11.18,6.21,4.19,13.25,6.19,20.51,7.3,13.65,2.1,27.25,1.91,40.55-2.29,21.92-6.92,34.41-21.9,37.67-44.55a96.4,96.4,0,0,0-3.19-43.35c-5.81-18.33-19.74-25.72-38.72-24.26-.1,1.31-.3,2.67-.3,4,0,27.57,0,55.15-.05,82.72,0,5.56,1.3,10.08,7.51,11.66-10.53,8.65-47.26,9.16-56.8.57,4.15-1.11,7.92-2.62,8.94-7.3a14.19,14.19,0,0,0,.39-3.18q-.21-40.39-.5-80.78a3.45,3.45,0,0,1,2.54-3.82,289.51,289.51,0,0,1,65.77-17.91c13.52-2,24.39,4,34.35,11.8,12.27,9.6,18.16,22.89,19.79,38.18,2,18.47-.31,36.3-8.9,53-11.52,22.37-30.43,35.46-54.21,42.09-17.23,4.79-34.76,5.37-52.48,3.39C214.32,555.64,200,552.27,186.82,544.85ZM447,611c0,6.46.2,12.93,0,19.38-.42,11.29,1.82,21.2,12.7,27.51h-3.1c-30.61,0-61.22-.18-91.83.17-12.34.15-22.62-3.86-30.17-13.29-7.85-9.8-14.76-20.36-22.05-30.61-1.17-1.66-2.18-3.45-3.58-5.67-4,5.17-7.88,10.11-11.7,15.08a2.28,2.28,0,0,0-.16,1.26c.11,7.67.51,15.3,3.37,22.54A17.58,17.58,0,0,0,310,657.67H245.62c11-4.7,13.65-14,13.83-24.12.38-20.67.24-41.35.15-62,0-2.92.89-3.48,3.69-4,10-1.87,19.94-4.27,29.9-6.51a40.29,40.29,0,0,0,4-1.37v33.69c1.27-1.36,2-2.07,2.64-2.84,10.46-12.32,20.86-24.68,31.39-36.93,4.11-4.79,6.64-9.81,3.69-16.45h51c-3.21,1-5.73,1.76-8.19,2.66-11.63,4.28-21.74,10.75-29.61,20.51-4.19,5.19-8.58,10.21-13,15.41,12.46,22.07,23.51,44.83,42.3,62.39a87.93,87.93,0,0,0,22.67,15.85,3.36,3.36,0,0,0,4.49-.82,20.23,20.23,0,0,0,6-14.22c.15-22.18.38-44.37,0-66.55-.13-8.79-3.6-16.38-13-20.54h62.11c-.09.14-.18.43-.36.51-8.59,3.89-12.15,11-12.32,19.94C446.87,585.18,447,598.11,447,611Zm157.29,46.88c-16.06,0-32.11,0-48.17.06a4.56,4.56,0,0,1-4.38-2.47q-20.94-32.6-42-65.1c-.62-.94-1.3-1.84-2.16-3,0,17.83-.13,35.22.18,52.6.14,7.54,4.1,13.21,10.93,16.7a14,14,0,0,1,1.38,1.06H473.1c10.24-3.54,11.82-11.46,11.85-19.71.11-23.25.06-46.5-.44-69.74-.15-7.07-3.08-13.38-11.38-16.69h8.66c14.11,0,28.23.06,42.35-.06a5.31,5.31,0,0,1,5.17,2.77q21.11,32.49,42.41,64.86l2.3,3.49a21.29,21.29,0,0,0,.39-2.5c0-14.65.15-29.3-.07-43.94a55.74,55.74,0,0,0-1.85-13c-1.36-5.23-4.65-9.17-10.75-11.34h45.41c-8.43,4.2-10.45,11.69-10.54,19.75-.22,22.07-.1,44.15,0,66.22a31.93,31.93,0,0,0,.91,7c1.24,5.45,3.76,10.06,10,12.8C605.83,657.77,605.05,657.91,604.27,657.91Zm120.34-32.39c-.1,10.33,0,20.66,0,31-.33.07-.6.22-.71.14-7.93-6-16.77-6.13-25.88-3.85-8,2-15.89,5.09-24,6.26-23.6,3.41-50.36-5.83-58.11-35.78-4.29-16.58-2.74-33.24,5.65-48.26,8.29-14.86,22.56-21.62,39-24A74.12,74.12,0,0,1,694,553.91a82.7,82.7,0,0,0,14.53,2.81c7.76,1,13.64-2.15,17.81-9.69v45c-10.44-15-25.72-22-43.08-25.4-12.34-2.43-21.73,2.93-25,15.06a85.05,85.05,0,0,0,.74,47.8c3.34,11,12,16.13,22.2,14,5.19-1.1,8.15-4,8.34-9.24.23-6.33,0-12.7-.2-19-.23-6.06-3-10.61-8.76-13.27H736C726.24,607.49,724.7,616.22,724.61,625.52ZM719.55,433.8c-8.24-.72-16.56-.6-24.85-.73-7.85-.11-7.85,0-7.85,7.71,0,6.46.07,12.92,0,19.38,0,2.24.78,3.16,3,3,3.65-.28,7.35-.2,10.95-.74a19.42,19.42,0,0,0,14-8.95l3.06-4.73v41.4c-5.78-13.74-17.26-14.07-29-13.71a2.71,2.71,0,0,0-1.86,1.84c.07,9.35,0,18.72.56,28.05.42,7.54,4.17,13.43,11.12,17.7h-61a29.24,29.24,0,0,0,11.72-17.72,24.47,24.47,0,0,0,.48-5.12q0-29.71,0-59.44c0-9.75-3.94-17.28-12.19-23.05h4.11c34.06,0,68.11,0,102.17-.06,3,0,3.91.75,3.84,3.76-.19,8.37-.06,16.75-.06,25.91C740.6,438.05,730.5,434.77,719.55,433.8ZM835.43,653c-9.64,5.87-20.33,7.86-31.33,7.24-8.11-.46-16.18-2.05-24.21-3.49-11.33-2-22.28-1.35-32.82,3.55a6.82,6.82,0,0,1-1.08.27V616l.84-.86a7.13,7.13,0,0,0,.79,2c12.33,15.12,28.16,24.19,47.55,26.44,4.41.51,9.17-.63,13.55-1.83,2.1-.57,4.1-2.77,5.41-4.73,2.42-3.61,2-6.94-1.57-9.32A46.15,46.15,0,0,0,800.75,622c-9.24-2.86-18.7-5-28-7.8a48.91,48.91,0,0,1-10.44-5c-22.1-13.08-16.17-41.16-.24-51.21,11.08-7,23.2-8.93,35.91-8,7.61.57,15.15,2,22.75,2.76,6.85.7,13.35-.2,18.48-6.45v38c-3.62-3.48-6.68-6.59-9.92-9.5-10.46-9.4-22.75-12.88-36.48-10.21a26.69,26.69,0,0,0-10.55,5.17c-5.09,3.88-5.11,9.51.15,13.25a38.77,38.77,0,0,0,12.71,5.88c8,2,16.38,2.71,24.36,4.86a62.46,62.46,0,0,1,16.5,7.08C855.68,613.1,855.22,640.9,835.43,653Zm12-217.23c-3.47-.66-7-.73-10.58-1-2.1-.18-3.13.6-3.12,2.93.06,21-.12,42,.12,63,.12,10.46,4.91,17.8,14.3,23.49H784.36c7.3-3.88,12.1-9.23,13.78-17a19.86,19.86,0,0,0,.43-4.14c0-21.54,0-43.07.08-64.6,0-3-.88-4.05-3.81-4-10.23.31-20,2.16-27.82,9.28-2.81,2.54-4.94,5.82-7.47,8.86V441c0-6.24.12-12.49-.06-18.73-.07-2.82.81-3.66,3.67-3.66q53,.15,106,.05c1.39,0,2.78-.16,4.17-.24v36.83C869,443.14,859.22,438,847.41,435.74Z"/></svg>