<svg id="Layer_1" data-name="Layer 1" xmlns="http://www.w3.org/2000/svg" viewBox="0 0 1000 1000"><path d="M597.66,392.55H526.17l.21,168.18L464.12,392.52H402.4L349.24,533c-5.64-35.75-42.62-48.08-71.7-57.31-19.19-6.19-39.58-15.27-39.37-25.28.15-8.24,10.89-15.87,32.25-14.73,14.32.76,27,1.91,52.18,14.09l24.74-43.14c-23-11.7-54.69-19.06-80.73-19.09h-.15c-30.34,0-55.62,9.83-71.28,26a60,60,0,0,0-17.07,41.54c-.4,21.9,7.63,37.41,24.49,49.78,14.21,10.43,32.43,17.22,48.45,22.17,19.76,6.12,36,11.46,35.75,22.81A16.82,16.82,0,0,1,282.09,561c-4.92,5.1-12.49,7-23,7.21-20.21.42-35.17-2.75-59-16.84l-22,43.69A153.14,153.14,0,0,0,256,615.42l6.42-.06c25-.46,45.31-6.46,61.45-19.43.91-.72,1.75-1.48,2.63-2.23l-2.72,13.93,60.33-.18,10.8-27.72a123.51,123.51,0,0,0,75.21.33l7.54,27.39,108.24.09.3-63.16h23c55.69,0,88.57-28.33,88.57-75.84C697.76,415.59,665.75,392.55,597.66,392.55ZM433,536.32a64.44,64.44,0,0,1-22.83-4l22.56-71.26.45,0,22.21,71.5A67.08,67.08,0,0,1,433,536.32Zm168.91-41H586.14V437.92h15.72c20.93,0,37.65,7,37.65,28.35C639.47,488.42,622.79,495.35,601.86,495.35Z"/><path d="M500,0C223.86,0,0,223.86,0,500s223.86,500,500,500,500-223.86,500-500S776.14,0,500,0Zm33.92,679.07H168V320.93H892Z"/></svg>