<svg xmlns="http://www.w3.org/2000/svg" viewBox="0 0 1000 1000"><path d="M869.064,267.39C851.5,443.668,896.025,603.824,984.842,756.73c-8.643-.907-14.462-1.3-20.211-2.155-42.775-6.4-85.4-14.134-128.342-19-42.712-4.838-83.283,6.264-122.622,22.394-51.147,20.971-103.6,35.681-159.714,32.374-32.935-1.941-66.295-5.439-94.3-23.344-42.529-27.193-87.13-28.07-133.925-18.423-5.193,1.071-10.4,2.057-15.582,3.2-21.529,4.735-21.092,10.049-26.808-17.678-11.5-55.8-21.779-111.877-34.18-167.478-20.546-92.118-62.1-175.428-110.21-255.806-12.8-21.381-13.723-16.466,6.2-31.047,53.4-39.079,114.2-59.266,178.594-69.766,13.268-2.163,27.425-1.392,40.832.472,15.206,2.115,19.535,12.045,13.725,26.217-8.382,20.447-5.179,26.388,16.98,24.427,39.566-3.5,79.254-7.249,118.362-13.972,86.423-14.858,172.359-12.1,258.336,2.464q42.456,7.193,84.885,14.546A125.252,125.252,0,0,1,869.064,267.39ZM539.538,310.5c-15.643,2.386-31.69,3.28-46.864,7.395-117.49,31.857-173.292,168.636-114.1,278.634,50.542,93.928,162.613,130.354,252.817,82.174,70.978-37.911,108.159-114.775,96.806-200.125C715.644,384.213,634.182,312.256,539.538,310.5Z"/><path d="M20.839,246.164c-4.049-6.225-8.707-10.052-8.683-13.849.362-56.1,1.338-112.19,2.247-168.283.018-1.1.992-2.178,2.355-4.99,2.8,4.058,5.148,6.953,6.958,10.151,24.6,43.448,49.239,86.875,73.491,130.518,2.43,4.373,2.4,10.115,1.93,15.708,17.088,17.2,26.133,37.348,18.2,62.072a54.051,54.051,0,0,1-13.6,22.152c-7.63,7.173-8.933,13.267-5.684,23.045q65.994,198.663,131.278,397.56,32.742,99.417,65.035,198.98c1.4,4.354,1.091,12.4-1.6,14.358-8.71,6.332-11.712-.667-14.18-8.208-17.169-52.468-34.589-104.854-51.862-157.288q-72.959-221.472-146.1-442.883c-1.345-4.056-5.776-9.352-9.489-10.012C29.892,307.858,13.2,284.454,20.839,246.164Zm62.617-43.742L33.8,106.861l-1.989.863,24.69,104.5ZM94.3,231.2c-1.776,20.306-3.357,38.376-4.94,56.483C109.476,275.35,112.6,251.963,94.3,231.2Z"/><path d="M412.018,497.855c1.6-43.549,11.618-83.7,38.809-118.125,43.107-54.579,111.916-61.455,164.918-16.619,74.437,62.97,86.286,195.919,24.157,271.056-45.4,54.9-116.086,59.377-167.976,10.105C429.944,604.408,413.886,553.683,412.018,497.855Z"/></svg>