<svg xmlns="http://www.w3.org/2000/svg" viewBox="0 0 1000 1000"><path d="M451.108,182.676l5.618-9.267c20.107,9.5,39.321,18.584,58.535,27.665L465.5,182.258c1.214,3.517,2.2,6.382,3.191,9.246L459.7,183v23.578h17.381c-1.383-2.974-2.481-5.338-3.58-7.7l10.789,9.091-7.73,15.205c13.4,4.909,25.415,9.842,37.764,13.724,22.256,7,45.018,11.44,68.516,10.527,5.982-.233,12.661.348,16.3-8.033-4.375-1.994-8.242-3.675-12.038-5.5-10.532-5.069-21.035-10.2-31.549-15.3L602,236.028l18.463-23.553c9.014,8.658,17.693,16.9,26.27,25.252,11.228,10.93,22.472,21.847,33.488,32.987,2.643,2.673,4.416,6.206,6.589,9.344l-36.247-33.636-20.8,11.614,43.549,39.408c-4.137-2.645-8.3-5.251-12.407-7.945-5.8-3.8-7.435-1.116-7.234,4.552L624.4,299.908c-5.823,13.144,6.762,16.279,9.9,23.916l-2.4,7.439-12.039-9.638c0,10.975-.176,21.514.132,32.039.071,2.415,1.134,5.968,2.892,6.962,7.588,4.293,15.6,7.83,23.464,11.642l1.252-2.058-11.484-26.194c4.582,7.16,9.4,14.183,13.663,21.529,2.927,5.045,6.1,7.59,12.258,4.192l-6.5-10.171c6.395,4.78,12.789,9.56,19.457,14.546-2.347,1.439-5.964,3.018-8.717,5.541-2.294,2.1-3.575,5.311-5.3,8.03l-21.589,7.1,14.893,16.636c-4.957-3.088-9.754-6.487-14.935-9.138-2.794-1.43-6.565-2.816-9.341-2.092-11.535,3.008-13.338,11.657-4.944,21.6l-3.53,4.586c5.952,10.125,14.552,12.548,24.686,11.262,10.415-1.322,20.822-2.71,31.481-4.1l-4.574-7.857,7.894,3.351-1.656-5.679c6.551,4.4,9.414,14.331,20.595,11.774q.245,1.363.49,2.727l-8.157,3.409c4.913,9.113,8.624,16,12.336,22.885l-15.719-19.2-31.281,15.052,13.268,12.442c-4.229-2.766-8.391-5.646-12.715-8.255-2.555-1.542-5.524-4.019-8.038-3.731-12.339,1.412-24.588,3.61-37.081,5.564v76.26c5.151-.293,9.564.193,13.52-.929,7.47-2.118,14.677-5.161,21.993-7.819,4.641.139,9.921,1.776,13.8.123A158.351,158.351,0,0,0,690.275,518.6c5.578-3.854,9.474-10.143,14.123-15.341l2.544-5.206,8.527-6.895c-.465-2.618-.92-5.179-1.374-7.741l6.438,6.769L783.027,466.2l-61.465-58.789c3.907,2.476,8.278,4.443,11.64,7.514,16.26,14.856,32.438,29.813,48.223,45.169,4.971,4.837,8.572,5.914,12.667.611l-9.714-16.666c3.466,3.657,6.572,7.792,10.539,10.787,2.276,1.718,6.591,3.045,8.884,2.038,10.562-4.643,20.736-10.169,31.332-15.521L824.37,429.113c3.827,2.59,7.5,5.467,11.548,7.649,2.011,1.084,4.71.892,7.1,1.276l.38-2.18q-8.3-9.048-16.6-18.1c4.945,3.726,9.98,7.339,14.8,11.215,3.755,3.017,6.21,8.928,12.813,5.217l-15.539,13.853c-1.212-.89-2.971-2.824-3.557-2.518-17.842,9.324-37.583,15.89-48.81,34.775-2.147,3.612-6.99,5.621-10.589,8.37l.048.03-4.227-2.328c.533-2.679,1.065-5.359,1.754-8.829-9.106,4.838-16.786,9.574-24.989,13.089-7.943,3.4-11.578,8.554-10.426,17.078q-2.7,6.208-5.392,12.416l2.009.832L747.343,513c-2.548,2.965-4.68,6.481-7.729,8.781-6.72,5.067-7.912,11.334-6.207,19.379l7.65-6.487L731.264,552.4l1.666.8L760.4,528.481,731.2,561.64l-40.726-11.476,37.807,6.247q.422-1.657.841-3.315c-3.16-1.01-6.262-2.29-9.49-2.976-8.158-1.735-16.373-3.2-24.564-4.779l32.479,1.826V529.858c-5.732.68-10.878.156-14.917,2.025-6.659,3.081-17.486,1.688-17.253,13.654l-4.65,4.9c-2.9.85-7.023.768-8.487,2.7-9.641,12.738-18.709,25.91-28.99,40.385H278.3v-27.96c7.027-.408,14.724-4,21.055,3.358a1.478,1.478,0,0,0,1.086.352q17.893-1.182,35.783-2.407c1.774-.119,4.029-.922,5.248-.141,6.234,4,12.078,4.3,18.422.115,1.288-.849,4.055.453,6.113.89,2.6.552,6.145,2.639,7.592,1.633,10.287-7.152,21.543,5.05,31.571-1.981.322-.225.613-.745.9-.731q14.739.723,29.471,1.561c.319.018.655.669.917.625,6.281-1.053,13.355-4.485,18.624-2.668,6.515,2.246,13.1,6.012,18.551,1.679,6.945-5.52,10.5,2.3,15.973,2.474,5.6.176,9.69-9.6,15.586-2.048a2.717,2.717,0,0,0,2.107.9c6.239-.863,13.233-4.076,18.5-2.249,6.711,2.329,12.089,4.056,18.55.33,1.553-.9,4.119-.026,6.219.015q8.226.165,16.453.31c2.336.039,4.681-.064,7.006.111.66.05,1.274,1.262,1.892,1.246,11.832-.3,23.715-.135,35.461-.689,3.838-.182,6.811-.506,10.916.332,10.179,2.081,20.9,2.525,32.3-5.82H275.506c-5.407-6.548-9.683-11.727-14.872-18.013H291.4l.531-2.966c-15.23,2.339-29.579,2.6-35.911-15.184l9.278-1.4c-3.917-10.717-12.189-14.018-22.7-14.906-12.747-1.076-25.406-3.185-38.1-4.848l.136-3.381c5.78.48,11.808.081,17.287,1.628,10.512,2.968,18.381.065,25.03-8.9C232.458,455,231.081,415.478,253.13,375.525c7.494,4.946,14.187,8.869,20.317,13.533,7.953,6.051,16.133,9.243,26.305,6.441,4.47-1.232,9.375-.885,12.96-1.166,5.74-10.7,12.388-20.3,16.187-30.929,4.068-11.377,5.453-23.714,8.1-36.035l-14.074-7.684L347.25,292.23l-14.927-7.482,20.944-28.39c1.17-.342,2.091-.958,2.615-.715,15.031,6.958,26.62,3.711,35.811-10.5,2.98-4.608,8.752-7.41,13.247-11.038L381.3,261.286l31.689,7.307c7.128-19,29.237-28.771,31.535-52.43l-19.182-5.389L431,203.76l15.673,4.866c2.518-8.2,4.635-14.369,6.189-20.679C453.233,186.426,451.741,184.445,451.108,182.676Zm64.041,251.247-8.4,5.161,17.49,10.163c-4.371-1.286-8.987-2.056-13.061-3.975-6.894-3.248-13.076-2.672-19.122,1.663-13.443-8.219-27.886-4.589-43.314-4.832.279,6.124.5,10.91.792,17.373l26.89-1.867c7.323,5.6,15.133,2.035,22.738.95.5-.071.547-3.281.805-5.031,10.981,6.539,23.926,6.036,32.244-1.252H540c-6.311-3.429-11.2-5.448-15.311-8.508-3.7-2.755-6.554-6.653-9.782-10.047,12.057,2.5,21.72-2.013,29.85-10.968a52.506,52.506,0,0,0-16.616,4.677C523.709,429.357,519.473,431.741,515.149,433.923ZM319.488,486.18,324,452.864c-9.109,16.44-10.316,34.609-12.877,52.55,2.662-2.656,3.688-5.767,4.772-8.857,1.256-3.582,2.563-7.147,3.847-10.719q-.485,6.85-.971,13.7l2.861.531c6.267-16.162,7.527-33.478,11.559-50.155L329.668,449Q324.578,467.589,319.488,486.18Zm-19.021,9.614c-.16-2.484-.319-4.969-.539-8.406l-5.216,3.471c1.934-3.809,4.215-7.485,5.723-11.455a217.1,217.1,0,0,0,7-21.03c1.306-4.892-1.85-5.1-5.475-3.773l2.333-5.244-17.776-9.933c14.023-.014,18.5-11.433,27.551-18.791L269.01,390.471c2.892,27.725,5.46,52.644,8.229,77.541.093.837,2.217,1.447,3.394,2.162-6.681,11.9.466,23.486-1.259,37.724,5.677-6.4,9.217-10.388,12.758-14.377l-8.1,17.419,10.269,1.435c2.438-6.427,4.432-11.685,6.426-16.943q-.661,8.212-1.321,16.426l2.965.517c8.7-13.717,7.247-30.355,11.329-45.559a40.467,40.467,0,0,0-8.011,12.582C303.567,484.711,302.175,490.316,300.467,495.794Zm80.491-94.58c-.915-1.413-1.747-3.974-2.758-4.046-5.571-.4-11.185-.191-16.785-.191l-1.041,2.392,12.2,11.308,8.667-9.788q-2.21,6.825-4.418,13.649l2.257,1.918,15.277-11.782-4.281-7.5c10.126,3.26,6.835-3.339,8.529-6.21l-3.1-2.819Zm14.766-94.838-10.14,6.644c11.368,2.468,30.384-4.789,35.786-12.585l-25.993,6.187c7.193-2.836,14.5-5.414,21.53-8.62,3.368-1.538,6.193-4.264,9.264-6.453a56.444,56.444,0,0,0-20.82-1.816C399.418,290.409,394.68,299.438,395.724,306.376Zm-1.543,16.589c-5.8-4.706-10.768-3.139-14.835,2.312-3.611,4.84-6.833,9.971-10.227,14.973l1.483,1.887c7.8-3.044,15.6-6.056,23.382-9.147,3.937-1.566,5.687-4.012,2.78-8.012,13.718,5.516,21.3.2,21.9-15.762-7.074,2.565-14.131,4.8-20.853,7.785C396.067,317.779,395.364,320.913,394.181,322.965Zm.5,45.038c5.812-1.171,6.588-4.265,2.014-7.58-5.916-4.29-12.43-7.755-18.686-11.575l-1.557,2.053q.87,2.02,1.741,4.042c-4.22-2.564-8.324-5.364-12.739-7.531-1.14-.559-3.255.871-4.923,1.387l-2.967-6.013-1.694,2.124v42.515l21.94-6.021c.154-1.928.428-2.735.23-3.4-.441-1.482-1.118-2.894-1.7-4.334C389.068,382.289,393.448,380.936,394.681,368Zm203.465-56.842c-1.735-6.908-7.225-4.529-11.6-4.566-17.65-.153-35.38.8-52.922-.62-10.494-.848-20.7-5.328-31.028-8.176,28.781,8.028,58.134,8,87.607,6.189,4.978-.306,9.557-1.237,8.4-9.893-6.855-1.242-14.224-3.875-21.5-3.65-20.31.628-40.589,3.5-60.869,3.386-12.152-.066-24.283-4.06-36.423-6.288,5.08.536,10.179.938,15.238,1.631a259.27,259.27,0,0,0,79.984-1.133c15.564-2.694,22.261-14.836,30.748-26.1-14.676-1.419-28.944-.138-42.9-1.679-31.315-3.457-60.228-14.548-87.156-30.9-.731-.444-2.753,1.239-4.173,1.93-12.42,7.905-13.246,9.534-10.212,21.616,5.941,0,12.182.427,18.313-.211,2.452-.255,4.66-2.856,6.979-4.389l8.838,7.318L482.688,266.5c-1.063-1.349-2.062-3.8-3.2-3.866-6.469-.376-12.972-.182-21.223-.182,1.408,8.136,2.46,14.211,3.892,22.482l20.807-18.724-12.373,17.379,9.565,4.187-5.485,1.609,14.574,5.579-1.179,5.866-14.518-5.462,5.076,6.129c-2.7-1.375-5.3-3.134-8.163-3.931-1.1-.305-2.809,1.584-4.241,2.474l-8.373-7.691V358.6l42.6-3.7-12.894-21.58c3.629,3.888,7.849,7.385,10.739,11.761,3.829,5.8,7.2,11.54,15.593,12.436l-41.163,25.319,14.523-13.577h-27.82c2.058,7.8,6.419,11.96,13.59,13.307,7.172,6.95,14.55,13.7,21.44,20.921,4.185,4.384,8.816,5.876,14.553,4.731l-3.58,4.239c9.126,10.073,21.729,11.458,45.1,4.788l-6.022-9.417,12.459,8.033c13.406-6.19,21.724-14.926,20.434-30.5L566.7,379.845l-10.943,5.018c4.668-6.656,4.273-15.086-1.029-21.919l14.031,7.179c5.3-7.411,10.6-14.833,16.588-23.207-5.544-2.634-9.817-4.47-13.906-6.653-6.071-3.242-12.011-6.729-18.007-10.112l33.994,13.572,7.428-18.188-.841,8.651c9.178-9.446,9.724-19,8.03-29.507Q600.094,307.919,598.146,311.161ZM254.2,493.118c-1.908,11.4,1.877,15.675,12.593,14.415V485.155l-12.1,7.717c2.464-2.932,5.2-5.68,7.314-8.849,2-3.009,4.791-6.48,4.744-9.711-.383-26.315-1.442-52.619-2.083-78.931-.182-7.467-2.579-12.7-10.921-14.161-18.583,35.033-19.6,70.651-5.3,106.969C249.264,490.265,252.234,491.494,254.2,493.118Zm266.414-20.633c-5.11-3.429-10.386-9.976-15.3-9.713-16.106.862-32.994-3.909-48.307,6.214-5.526,3.653-8.838,6.453-8.637,13.438.441,15.351.05,30.725.171,46.088.07,8.954,5.953,15.945,14.74,16.08,23.63.364,47.273.254,70.906-.05,6.555-.084,10.844-3.322,10.965-10.935.162-10.228,1.531-20.456,1.32-30.661-.075-3.614-2.56-7.826-5.173-10.612-6.623-7.063-13.943-13.472-20.984-20.143l27.473,20.05c.677-8.895,1.114-16.608,1.887-24.287.926-9.195-1.717-12.607-10.576-11.4-8.67,1.182-17.191,3.464-26.25,5.362C515.8,465.936,518.211,469.21,520.617,472.485Zm37.755,77.687c-87.849.3-173.733-.675-259.627,1.541a24.014,24.014,0,0,0,10.161,1.953c5.508.033,11.016-.21,16.526-.261,2.108-.02,4.573-.513,6.264.375,6.64,3.487,12.257,1,18.84-.83,5.642-1.568,12.506,1.325,18.846,2.116.6.074,1.279-1.049,1.988-1.149a33.075,33.075,0,0,1,6.279-.465c12.162.619,24.387,2.36,36.442,1.541,4.722-.321,9-.225,13.6-.133,11.13.222,22.324-.59,33.512.424.945.085,1.957-1.473,3.02-1.6a37.7,37.7,0,0,1,6.295,0c12.161.563,24.318,1.2,36.482,1.665,1,.038,2.018-1.471,3.075-1.543,2.432-.164,5.2-.573,7.285.343,6.348,2.781,11.634.564,17.833-1.131,5.64-1.541,12.451,1.386,18.781,1.972C554.831,555.062,555.886,552.974,558.372,550.172ZM377.293,461.134l-2.624-1.081q-10.519,9.3-21.042,18.605c-.882.779-2.117,1.346-2.636,2.309-1.071,1.987-2.388,4.142-2.5,6.286-.331,6.219-.118,12.466-.118,18.788,18.142-1.839,18.309-1.966,22.881-17.278,2.024-6.778,4.192-13.52,5.949-20.367C377.786,466.117,377.293,463.562,377.293,461.134Zm229.38-202.759.713-3.864c-6.632-1.59-13.328-4.757-19.885-4.493-27.065,1.092-53.047-3.791-78.64-11.868-3.471-1.1-7.048-1.859-10.575-2.776q-.266,1.213-.532,2.427C532.258,254.4,568.295,262.714,606.673,258.375Zm-109.3,152.074L470.378,385.79c-3.715,2.474-7.465,4.1-9.9,6.885-1.746,2-3.223,7.242-2.251,8.089,4.695,4.088,5.651,12.965,14.756,11.719C480.2,411.5,487.519,411.238,497.372,410.449ZM378.669,533.7l8.9-33.684c-18.471,3.156-23.648,10.273-24.344,32.577ZM396.58,288.972c-11.574-3.046-22.682-4.19-33.31,2.473,19.125,21.129,23.374,21.048,33.7-.438C397.1,290.735,396.845,290.277,396.58,288.972Zm33.353,65.472,4.919-.389c8.413-14.3,3.248-31.548,8.754-46.581-16.264,7.268-11.57,24.066-16.953,36.148C425.493,346.225,428.724,350.785,429.933,354.444Zm-26.521-22.122L371.5,345.435c6.988,1.922,11.511,3.041,15.956,4.41,15.38,4.733,15.37,4.766,23.69-10.376Zm-33.267-59.436c6.066,9.482,6.241,10.007,12.312,8.23,7.907-2.315,15.548-5.535,24.583-8.833C385.387,262.2,379.934,262.341,370.145,272.886Zm34.3,214.157c2.178-9.811,4.7-19.242,6.112-28.837.368-2.491-2.709-5.492-4.2-8.258-2.056,1.855-5.089,3.343-5.958,5.646a44.069,44.069,0,0,0-2.783,13.761C397.389,475.668,395.585,482.955,404.446,487.043ZM380.635,468.06c-3.085,10.856-5.89,20.726-8.694,30.595l2.521,2.363c4.545-3.219,11.538-5.552,13.1-9.853C390.3,483.577,392.262,474.112,380.635,468.06Zm-31.911,62.53c10.974.9,15.282-6.2,15.16-24.149l-15.16,4.865ZM578.39,463.44c-2.192,1.138-4.86,1.675-5.13,2.793-3.323,13.721-6.3,27.527-9.359,41.311l3.387.775C572.81,494.25,583.5,481.654,578.39,463.44Zm-206.581-5.929c-2.325-6.5-5.252-7-10.268-4.187-14.128,7.916-15.1,9.458-10.954,24.2ZM643.961,284.739l-20.749-25.248v25.248ZM570.586,461.607c-12.187,7.227-17.39,30.448-9.57,44.068C564.434,489.939,567.3,476.718,570.586,461.607Zm-9.1,89.763c5.8,6.448,11.461,4.549,16.964,3.288,2.114-.485,4.9-2.48,6.11-1.733,6.8,4.2,12.568,2.383,19.792.192,6.226-1.888,14.009,1.45,21.126,2.291.859.1,1.855-.965,2.908-1.557C622.432,549.56,583.977,548.053,561.489,551.37ZM372.109,414.445,355.3,399.326c0,5.51.032,8.961-.008,12.412-.053,4.672-.835,9.4,5.537,11.2C368.446,425.076,368.686,418.748,372.109,414.445Zm250.542-169.99h19.158l-19.158-25.511ZM647.323,457.9q-.135-1.654-.269-3.311H611.085c2,3,3.549,7.017,4.795,6.925C626.393,460.735,636.849,459.205,647.323,457.9ZM419.828,388.571c-10.422,13.642-9.931,23.166.9,26.057C420.021,406.226,429.807,397.961,419.828,388.571ZM406.588,286.04c4.747,0,8.219.043,11.69-.019,1.569-.029,3.483.25,4.626-.521,2.026-1.366,4.729-3.269,5-5.244.251-1.826-1.835-4.946-3.713-5.929C415.732,269.9,413.226,271.5,406.588,286.04Zm-42.341,55.448,9.643-15.381H356.944C358.138,332.2,355.306,338.747,364.247,341.488Zm246.861-22.48c-9.656,10.825-13.062,24.4-7.377,34.2C606.37,340.975,608.568,330.785,611.108,319.008Zm-276.009,67,3.279.793q4.308-19.482,8.615-38.965C337.446,359.179,337.683,372.943,335.1,386.009Zm37.48-76.97L358.33,293.168l-1.852,1.2c.3,5.583.6,11.166.953,17.68ZM408.4,485.054l3.139.994q4.629-14.661,9.26-29.321l-3.649-1.156C410.154,464.106,410.954,475.111,408.4,485.054Zm240.827-99.071H625.137C635.251,395.364,635.251,395.364,649.226,385.983ZM440.836,251.51c8.982-6.7,8.049-17.155,10.209-26.469C442.107,231.574,441.037,241.373,440.836,251.51ZM390.289,469.418c.465-7.607.882-14.429,1.436-23.5C380.433,456.978,380.359,461.927,390.289,469.418Zm107.2-47.013-30.342-4.543C476.48,430.16,487.139,425.168,497.486,422.405Zm123.93-58.663c-1.135,11.364.645,12.176,19.058,8.643ZM291.525,399.456c10.018,8.617,14.741,8.068,28.653-2.638Zm138,52.368c.445,3.7.8,6.665,1.16,9.632l2.226-.174q.852-9.476,1.705-18.951l-3.857-.922c-4.258,5.168-5.594,11.792-7.089,18.309-.057.248.877.724,1.829,1.47C426.792,458.171,427.988,455.388,429.521,451.824ZM300.769,441.806q0,.935,0,1.87h39.166q0-.935,0-1.87Zm114.3-8.026-.527,3.376h24.249C430.88,432.067,423.112,431.947,415.065,433.78Z"/><path d="M414.225,762.794c-5.962,17.181-1.384,26.278,14.465,28.547a49.417,49.417,0,0,0,17.491-.976c8.646-1.952,13.359-8.14,13.552-15.746.194-7.674-4.1-14.036-12.888-16.139-7.159-1.713-14.776-1.489-22.183-2.19-5.065-.48-10.478-.11-15.1-1.824-8.867-3.285-13.252-10.8-14.617-19.922-1.455-9.724,7.664-9.236,13.278-12.818-4.535-3.59-9.11-6.619-12.981-10.373C375.08,691.8,380.425,661.141,406.22,650.2a62.567,62.567,0,0,1,22.851-5.227c38.21-.565,76.432-.335,114.65-.344,1.136,0,2.271.449,4.764.975.179,3.907.514,8.065.534,12.225.093,19.306-.2,38.619.244,57.917.269,11.872,9.285,18.68,18.67,13.754,4.11-2.158,8.556-8.053,8.786-12.463,1-19.247.776-38.578.353-57.865-.086-3.889-2.966-7.717-5.1-12.876h45.508c.183,3.932.536,8.124.547,12.317.065,24.429-.295,48.866.263,73.282.178,7.782,2.722,15.51,4.261,23.671H578.693c-.7-3.065-1.37-5.985-2.2-9.608a40.748,40.748,0,0,0-5.1,2.439c-12.306,8.154-25.428,10.1-39.444,5.313-14.912-5.095-23.162-15.926-23.444-31.876-.326-18.448-.076-36.9-.076-56.269h-27.75c1.4,2.743,2.584,4.941,3.654,7.194,8.159,17.184,3.742,34.7-13.241,43.457-10.952,5.645-23.674,7.874-35.631,11.542-3.561,1.093-7.217,1.875-10.83,2.8l-.486,3.289c3.527,1.243,6.992,3.286,10.593,3.563,7.443.573,15.054-.533,22.42.417,8.475,1.094,17.366,2.34,25.015,5.838,23.722,10.848,26.289,41.659,5.19,57.038a44.175,44.175,0,0,1-11.433,6.029c-25.35,8.739-51.035,8.847-76.621,1.419a44.218,44.218,0,0,1-16.338-9.067c-11.576-10.19-9.2-25.78,5.182-31.4C396.244,764.524,405.5,764.327,414.225,762.794Zm7.447-77.338c-.17,10.911,5.158,18.936,12.986,19.555,7.788.617,13.616-7.033,14.011-18.395.013-.391.007-.783.006-1.175,0-11.576-4.917-18.951-12.928-19.4C427.334,665.565,421.864,673.111,421.672,685.456Z"/><path d="M376.466,755.66H328.62c0-5.921,0-11.3,0-16.671-.014-17.736.151-35.474-.119-53.206-.154-10.164-4.507-15.556-12.022-16.18-7.916-.658-15.693,6.06-15.968,15.542q-.822,28.347.127,56.726c.158,4.565,3.683,9.014,5.786,13.8-27.509,0-55.424,1.111-83.2-.381-19.236-1.034-29.1-14.113-29.316-33.441-.048-4.281-.007-8.563-.007-12.879-14.651.707-23.363,6.458-23.748,15.151-.4,9,6.035,13.595,22.268,15.891-2.608,15.044-3.9,16.915-18.166,15.964a115.694,115.694,0,0,1-30.915-6.031c-11.185-3.994-17.834-13.455-17.7-25.574.136-11.885,6.092-21.345,17.445-25.86,8.724-3.47,17.963-5.66,27.008-8.3,2.255-.658,4.672-.738,6.967-1.283,10.764-2.556,15.99-6.839,14.3-12.52-2.539-8.51-10.309-9.614-17.3-8.985-9.674.871-19.195,3.443-30.579,5.633,2.506-7.748,4.47-15.437,7.632-22.6.941-2.13,5.127-3.48,8.034-3.98,16.862-2.9,33.624-3.411,50.139,2.511,13.122,4.706,21.472,13.6,22.857,27.378,1.416,14.075,1.336,28.3,1.853,42.467.579,15.862,6.885,21.132,25.638,19.315-2.069-29.873,3.868-60.223-4.434-91.794,11.861-.44,25.722-1.325,39.567-1.13,2.534.036,5.006,4.463,8.506,7.824,2.688-1.294,7.039-3.725,11.633-5.544,27.667-10.958,52.807,5.5,53.429,35.1.315,14.97.084,29.953,0,44.929C368.28,737.319,367.572,747.21,376.466,755.66Z"/><path d="M811.019,756c-26.622,0-53.781.8-80.868-.265-19.73-.773-30.295-13.161-31.272-33.2-.223-4.577-.033-9.174-.033-13.941-15.275,1.878-23.321,7.363-23.851,15.353-.572,8.612,6,13.266,23.224,16.457-4.938,15.9-4.987,16.621-20.768,15.547a104.655,104.655,0,0,1-29.668-6.28c-10.626-4.032-16.648-12.908-16.776-24.861-.133-12.371,5.787-21.565,16.775-26.17,9.708-4.068,20.28-6.075,30.475-8.977,4.147-1.18,8.7-1.627,12.329-3.706,2.705-1.55,6.067-5.393,5.794-7.842-.354-3.172-3.594-7.929-6.362-8.547a64.421,64.421,0,0,0-20.789-1.05c-6.509.718-12.8,3.395-21.19,5.78,2.571-8.058,4.369-15.1,7.167-21.717a10.864,10.864,0,0,1,6.77-5.439c16.745-3.656,33.463-4.077,50.15,1.074,16.875,5.209,25.192,16.858,26.143,33.909.657,11.784.255,23.625.507,35.436.352,16.548,6.83,22.206,26.08,20.9-1.615-30.179,4-60.718-4.12-92.057l42.992-1.942c1.161,3.649,2.16,6.786,2.7,8.488,7.37-3.109,14.494-6.855,22.066-9.068,5.845-1.708,9.829.931,9.356,8.117-.384,5.834-.078,11.713-.078,18.65-4.477.324-8.245.506-11.993.883-12.568,1.267-19.562,8.16-19.853,20.635-.368,15.746-.455,31.521.146,47.253C806.269,744.533,809.008,749.548,811.019,756Z"/><path d="M960.632,755.649H915.311c0-5.565.009-10.522,0-15.478-.035-17.708.09-35.419-.179-53.124-.16-10.54-5.2-17.378-12.871-18.607-7.821-1.252-14.889,3.6-18.111,13.593-4.373,13.563-4.014,27.237,1.887,40.335,4.454,9.886,12.755,14.577,23.659,14.414C903.525,760,895.969,760.428,877.079,756c-14.512-3.4-24.933-13.611-31.372-26.805-10.67-21.861-9.113-43.8,3.982-64.046,12.6-19.478,35.239-25.7,57.208-17.328,2.153.82,4.322,1.6,8.665,3.2-2.262-18.373,4.38-35.874-6.692-53.46h46.853c.217,4.1.652,8.629.664,13.16.107,39.745-.092,79.494.375,119.234C956.862,738.536,959.281,747.088,960.632,755.649Z"/><path d="M-1.6,595.976c14.924,0,30.163.115,45.4-.055,6.51-.072,7.366,4.755,8.872,9.2q15.177,44.761,30.361,89.52a26.443,26.443,0,0,0,6.247,10.709c4.689-14.753,9.419-29.494,14.056-44.264,3.657-11.651,6.73-23.511,10.931-34.96,3.909-10.654,5.442-20.44-6.181-29.82h42.116C131.952,650.3,114.115,703.06,96.056,756.476c-24.094-5.8-42.978-16.064-51.4-40.623C33.541,683.444,21.8,651.246,9.929,619.1,7.141,611.556,2.757,604.6-1.6,595.976Z"/><path d="M817.392,406.088c-2.354-1.1-5.236-1.67-6.984-3.389q-53.546-52.662-106.857-105.56c2.077.877,4.662,1.238,6.158,2.707Q763.657,352.859,817.392,406.088Z"/><path d="M974.59,618.855l2.37-17.716c13.243,2.558,13.247,2.557,15.671,16.05.269,1.5.46,3.013.688,4.52Z"/><path d="M771.042,518.488c.813-2.076,1.1-4.654,2.521-6.152q22.706-23.922,45.793-47.48c1.2-1.222,3.384-1.47,5.111-2.171Z"/><path d="M974.59,618.855l18.729,2.854c7.027-5.493,6.043-12.036,2.482-18.918,6.953,3.377,7.654,9.782,4.1,14.751A27.178,27.178,0,0,1,985.5,627.586C980.9,628.709,974.354,626.605,974.59,618.855Z"/><path d="M704.4,503.262,671.7,520.85c3.924-3.436,7.63-7.171,11.829-10.228,4.633-3.372,9.718-6.121,15.308-9.576l-9.468-9.986c2.706,1.318,5.345,2.806,8.136,3.908,3.074,1.214,6.288,2.074,9.441,3.088Z"/><path d="M755.635,368.289c-5.916-4.012-12.139-7.645-17.666-12.136-6.259-5.086-11.893-10.941-17.8-16.461,5.354,3.486,11.073,6.528,15.972,10.565C742.962,355.877,749.167,362.243,755.635,368.289Z"/><path d="M807.935,413.191c-4.823-2.973-10.053-5.454-14.378-9.029-7.436-6.148-14.307-12.98-21.415-19.524,4.161,2.521,8.707,4.58,12.4,7.66C792.572,398.986,800.165,406.2,807.935,413.191Z"/><path d="M681.164,366.847c12.815,11.769,25.675,23.49,38.369,35.388,1.205,1.13,1.363,3.376,2.008,5.1-12.7-11.763-25.441-23.479-38.026-35.361C682.246,370.782,681.925,368.582,681.164,366.847Z"/><path d="M640.938,329.01l39.288,36.874c-2.108-.82-4.7-1.118-6.248-2.544q-15.619-14.334-30.8-29.144C641.931,332.983,641.661,330.763,640.938,329.01Z"/><path d="M784.267,443.939c-2.727-1.882-5.978-3.306-8.087-5.726-7.855-9.013-15.334-18.353-22.955-27.57,2.756,1.839,6.074,3.189,8.167,5.6C769.234,425.289,776.675,434.679,784.267,443.939Z"/><path d="M556.075,384.575c-10.8,12.4-25.6,17.644-40.5,22.745,1.577-1.486,2.921-3.414,4.769-4.387C532.2,396.7,544.153,390.67,556.075,384.575Z"/><path d="M491.231,301.808c10.138,3.989,20.479,7.537,30.358,12.086,10.939,5.037,21.455,10.989,32.156,16.543Z"/></svg>