<svg xmlns="http://www.w3.org/2000/svg" viewBox="0 0 1000 1000"><path d="M8.4,327.967c2.346.087,4.692.249,7.037.25q137.369.02,274.736.011h7.492V419.9c-2.029,0-4.127,0-6.226,0q-75.2.046-150.4.1c-15.27.011-15.382.02-15.5,14.922-.127,16.084-.065,32.171.01,48.256.042,8.811.679,9.569,9.481,9.6q69.767.249,139.533.315c2.153,0,4.306,0,6.859,0v91.669c-2.194,0-4.306,0-6.419,0q-69.767.138-139.533.31c-9.189.032-9.783.6-9.863,9.78q-.233,26.565.006,53.134c.082,9.062.736,9.555,10,9.667q20.356.248,40.716.287,57.282.056,114.563.013h6.833v91.669H290.72q-137.639,0-275.278.011c-2.346,0-4.691.163-7.037.25Z"/><path d="M707.314,328.478H995V419.9c-2.278,0-4.4,0-6.515,0q-77.636.141-155.27.31c-9.911.03-10.388.61-10.413,10.326q-.072,26.837.009,53.674c.031,7.3.665,8.177,7.969,8.437,11.388.407,22.794.412,34.193.427q53.478.069,106.955.017h6.791v91.669c-2.31,0-4.431,0-6.553,0q-69.762.139-139.524.312c-9.213.032-9.605.422-9.637,9.866q-.247,73.736-.313,147.471c0,2.146,0,4.292,0,6.823H707.314Z"/><path d="M345.589,420.181v-91.6H662.748v91.044c-1.733.09-3.467.255-5.2.261q-43.43.165-86.859.292c-8.362.026-8.359.01-8.367,8.659q-.141,157.228-.284,314.458c0,1.8,0,3.6,0,5.865H446.35c0-1.813,0-3.724,0-5.636q-.048-81.056-.1-162.11-.069-76.716-.185-153.432c-.01-7.786-.012-7.8-7.594-7.8C407.72,420.179,376.967,420.181,345.589,420.181Z"/></svg>