<svg xmlns="http://www.w3.org/2000/svg" viewBox="0 0 1000 1000"><path d="M173.821,259.451c-10.809-60.558-7.93-114.657,48.558-151.744,53.18-34.927,106.386-30.314,160.805-1.018,1.964-4.934,3.681-9.486,5.571-13.961,15.682-37.134,41.561-64.838,82.081-70.5,57.507-8.025,112.52,3.659,153.534,66.919,2.7,4.162,5.2,8.442,8.008,13.007,53.8-24.869,106.307-32.408,156.751,6.976,49.915,38.972,59.952,90.331,46.178,148.709,59.016,10.683,113.123,25.614,130.066,93.561,15.435,61.85-2.107,111.809-51.363,151.4,41.99,42.133,70.574,87.248,46.612,149.368-22.419,58.122-66.616,86.06-127.1,94.207,1.735,9.885,3.859,19.185,4.96,28.614,7.1,60.7-11.979,97.663-65.293,127.075-43.572,24.036-87.543,22.137-131.8,2.042-3.035-1.379-5.983-2.957-8.966-4.466s-5.892-3.035-9.361-4.79C596.146,946.638,561.5,986.642,496.173,982.8c-61.5-3.62-101.911-36.622-128.258-91.124-3.716,2.219-6.742,4.1-9.833,5.861-30.349,17.39-62.528,24.6-97.242,16.87-38.972-8.671-93.327-57.29-98.165-115.447-1.479-17.819-.23-35.863-.23-55.118-55.239-11.424-102.623-34.918-120.433-95.382-17.446-59.223.139-107.694,47.379-147.746-48.307-40.785-68.84-89.178-45.523-150.521C66.508,290.7,111.766,263.457,173.821,259.451Zm611.892,454.2c-26.616-87.422-9.287-158.642,68.25-211.718-34.364-24.322-57.134-55.8-73.331-91.727-17.108-37.945-9.491-76.275,3.212-113.8-93.873,1.209-147.963-44.891-166.138-136.761-30.838,30.527-65.5,46.391-107.807,46.911s-77.173-14.789-106.91-43.555c-29.118,86.334-81.508,139.566-180.025,132.98,31.177,88.709,4.808,155.693-72.308,203.814,78.746,51.631,96.353,120.41,63.733,204.294,93-3.468,150.009,40.59,172.948,129.694,72.551-55.3,144.266-55.348,216.621,2.389C614.8,795.3,635.5,762.526,669.728,737.9,704.738,712.715,742.973,706.107,785.713,713.647ZM48.589,631.931c4.123,12.538,8.1,25.12,12.421,37.589,2.424,6.993,6.447,8.48,13.852,5.172,40.529-18.1,81.331-35.6,122.007-53.384,10.206-4.457,13.964-11.623,10.925-20.194-4.257-12.006-15.356-20.525-24.335-18.53q-57.165,12.693-114.311,25.475C51.4,611.987,50.9,612.65,48.589,631.931ZM207.625,390.584a27.482,27.482,0,0,0-7.136-6.286c-40.321-17.75-80.767-35.118-121.07-52.855a9.179,9.179,0,0,0-12.174,2.536,95.186,95.186,0,0,0-21.2,42.488c-2.393,9.14-.121,13.345,9.46,15.357,40.143,8.424,80.177,17.377,120.22,26.291,27.921,6.212,28.212,6.091,31.216-22.71.052-.676.174-1.335.685-4.838Zm544,500.755c4.279-.594,6.261-.867,8.238-1.145,18.69-2.757,27.457-17.307,37-31.016,3.72-5.346,2.488-9.36-1.709-14.047-25.558-28.558-50.726-57.45-76.253-86.06-17.776-19.944-20.169-19.827-38.864.086-.433.486-1.209.946-1.3,1.492-.434,3.468-2.3,7.865-.868,10.331q32.985,57.151,66.846,113.795a30.958,30.958,0,0,0,6.915,6.559ZM949.939,625.861c.108-16.432-.672-17.377-16.969-20.976-37.078-8.19-74.216-16.111-111.181-24.795-9.105-2.137-13.367,2.138-14.459,9.105-1.6,10.158-11.94,20.811.234,30.938a3.6,3.6,0,0,0,.915.4c37.918,16.406,75.785,32.924,113.855,48.966a12.879,12.879,0,0,0,10.367-2.051C946.952,657.259,949.644,641.972,949.939,625.861Zm4.214-263.111,1.448-.377c-2.367-8.949-4.687-17.915-7.128-26.846-2.215-8.09-6.269-10.314-14.7-6.542-38.405,17.155-77.056,33.756-115.647,50.5-22.8,9.894-22.614,9.733-10.873,31.741,3.516,6.59,7.032,8.879,14.9,7.028,36.059-8.49,72.269-16.311,108.467-24.193,21.339-4.643,22.77-6.174,23.529-28.306.034-1.024,0-2.025,0-3.027ZM256.335,891.707a49.878,49.878,0,0,0,7.526-8.125q31.464-52.8,62.523-105.835a17.851,17.851,0,0,0-8.9-26.013c-6.022-2.3-11.88-6.538-18.6,1.271-27.8,32.325-56.223,64.118-84.682,95.867a11.654,11.654,0,0,0-2.167,15C220.64,881.883,237.883,885.5,256.335,891.707Zm253.044-76.791c-4.1.213-6.426.386-8.754.434-10.1.256-15.868,3.9-15.43,15.517a204.107,204.107,0,0,1-2.6,26.8c-2.983,30.808-5.754,61.638-8.953,92.421a12.733,12.733,0,0,0,9.195,15.174c17.7,7.227,33.241.52,48.741-6.5a9.109,9.109,0,0,0,2.935-7.509c-3.993-41.413-8.5-82.774-12.326-124.2C521.288,817.14,517.469,813,509.379,814.916ZM761.234,102.587c-2.1,2.957-3.529,4.769-4.738,6.707-25.181,40.46-50.167,81.04-75.664,121.3-4.435,7-4.427,12.009,1.873,17.1,7.314,5.905,21.218,7.86,25.371,3.2q44.223-49.626,88.133-99.566a11.22,11.22,0,0,0,1.735-9.616,77.688,77.688,0,0,0-36.71-39.1ZM473.55,51.545c4.144,41.742,8.554,81.838,11.818,122.032.811,9.972,5.3,13.926,13.8,14.55,10.557.772,23.065-7.6,23.811-15.226,3.954-40.468,8.008-80.927,11.481-121.438a13.4,13.4,0,0,0-5.7-9.881c-14.9-9.725-30.526-6.573-46.182-1.526-6.659,2.163-10.57,5.575-9.022,11.506ZM255.2,111.809c-15.842-.135-28.407,8.237-40.195,24.348a9.924,9.924,0,0,0-.051,14.035,9.822,9.822,0,0,0,.779.706c26.946,30.514,53.479,61.391,80.281,92.031,14.906,17.038,18.045,16.908,32.383-1.54a9.624,9.624,0,0,0,1.075-8.554q-33.792-58.5-68.328-116.569c-1.44-2.4-4.865-3.655-5.944-4.431ZM659.31,791.478l-4.288-.13c-5.636,15.838-11.788,31.511-16.713,47.561-7.8,25.449-7.54,25.731,16.644,36.609a170.383,170.383,0,0,0,63.338,15.951ZM348.482,212.541a163.215,163.215,0,0,0,8.073-17.394c5.147-16.159,9.538-32.569,14.771-48.688,2.259-6.937-.182-10.38-6.013-13.519a192.707,192.707,0,0,0-64.2-21.044c-3.4-.49-6.872-.395-12-.655ZM459.39,828.664a22.9,22.9,0,0,0-5.571,1.431c-18.019,12.5-36.146,24.864-53.705,37.984-1.955,1.461-1.946,7.96-.55,11.1a178.4,178.4,0,0,0,44.365,59.7,21.492,21.492,0,0,0,4.648,2.324C452.193,903.561,455.735,866.878,459.39,828.664ZM729.351,100.927a21.739,21.739,0,0,0-4.891-.811,187.966,187.966,0,0,0-74.293,33.106,11.33,11.33,0,0,0-2.632,9.347c1.691,10.176,4.336,20.191,6.5,30.284,2.372,10.9,4.657,21.817,6.981,32.72l2.458.3Zm72.642,253.859,2.51,2.3L916.265,308.5a197.416,197.416,0,0,0-88.9-15.868,8.314,8.314,0,0,0-5.385,4.938C815.117,316.559,808.605,335.692,801.993,354.786ZM198.841,826.969,272.4,744.021a590.451,590.451,0,0,0-69.213-2.111,8.482,8.482,0,0,0-5.736,5.51A178.8,178.8,0,0,0,198.841,826.969Zm5.637-469.825,3.1-2.454c-4.335-14.52-8.237-29.2-13.184-43.52-6.664-19.38-7.01-19.315-27.812-17.195a140.074,140.074,0,0,0-19.749,2.7c-15.443,3.867-30.73,8.359-46.078,12.6l.5,3.62Zm600.333,290-3.239,2.168c4.3,14.9,8.1,29.954,13.007,44.656,7.8,23.442,8.168,23.62,32,18.309a166.289,166.289,0,0,0,56.145-22.809Zm-529.586-386.9-74.853-85.93a32.588,32.588,0,0,0-2.393,6.131A160.915,160.915,0,0,0,208.817,255a9.078,9.078,0,0,0,6.478,5.025c19.51.4,39.028.229,59.93.229ZM829.459,443.035c11.272,9.1,19.765,16.97,29.256,23.365,28.476,19.176,20.151,23.312,48.458-5.2,11.186-11.272,19.675-25.216,29.391-37.945l-2.6-3.165ZM62.905,419.827l-1.609,3a50.017,50.017,0,0,0,5.177,8.13c12.525,13.292,24.8,26.88,38.049,39.418,11.558,10.939,12.139,10.471,25.488,2.328,10.518-6.416,20.911-13.032,31.29-19.674,3.4-2.168,6.581-4.709,12.187-8.762ZM562.641,64.842,559.7,65.861q-4.682,48.692-9.36,97.38l2.839,1.93c16.545-13.215,33.163-26.339,49.508-39.8a7.527,7.527,0,0,0,1.678-6.937A176.682,176.682,0,0,0,562.641,64.842ZM805.18,181.3c-22.545,25.493-45.09,50.982-69.031,78.04,21.244,0,40.026.143,58.794-.243,1.7-.035,4.267-3.212,4.839-5.354A168.882,168.882,0,0,0,805.18,181.3ZM65.433,582.18l101.885-22.74,1.183-3.386c-15.712-10.839-31.367-21.768-47.257-32.343a7.161,7.161,0,0,0-6.252,1.366A213.591,213.591,0,0,0,65.433,582.18Zm31.7,110.682v2.68A187.273,187.273,0,0,0,169,708.392a7.24,7.24,0,0,0,5.523-3.213c7.08-17.472,13.8-35.092,21.556-55.1ZM839.3,554.914l.937,2.762,95.312,21.079a24.638,24.638,0,0,0-1.036-5.085,154.723,154.723,0,0,0-45.571-46.885A7.4,7.4,0,0,0,882.6,525.7C868.045,535.222,853.7,545.12,839.3,554.914ZM448.477,64.105c-1.452.243-2.285.117-2.649.477-16.332,16.041-25.8,36.067-33.119,57.3a6.186,6.186,0,0,0,.794,5.411c13.821,11.671,27.855,23.091,41.838,34.576l2.276-1.227ZM739.969,743.618l69.113,78.27a155.924,155.924,0,0,0-8.108-68.194,10.233,10.233,0,0,0-6.434-6.226C777.345,745.842,760.09,744.936,739.969,743.618ZM341.411,803.51l-51.593,87.525a148.953,148.953,0,0,0,63.954-28.991,8.159,8.159,0,0,0,1.366-6.937c-4.163-16.432-8.659-32.773-13.727-51.6Zm210.456,35.321-2.437,1.119q4.718,47.638,9.439,95.338c2.016-.26,2.9-.1,3.243-.433,15.265-16.085,24.058-35.73,30.661-56.493a7.231,7.231,0,0,0-1.665-6.243c-12.933-11.272-26.117-22.241-39.241-33.288Z"/></svg>