<svg id="Layer_1" data-name="Layer 1" xmlns="http://www.w3.org/2000/svg" viewBox="0 0 1000 1000"><path d="M500,0C223.86,0,0,223.86,0,500s223.86,500,500,500,500-223.86,500-500S776.14,0,500,0ZM136.13,590.66l-9.21-.45A28.15,28.15,0,0,1,99.8,563.05l-.48-9.17L209.86,443.44H127l-9.21-.45c-15-.88-25.93-12.21-27.09-27.15l-.48-9.21H228.11l9.21.44a27.8,27.8,0,0,1,27.16,27.16l.45,9.21L154.52,553.88h82.87l9.21.41,0,0c15.18,1,25.9,12,27.12,27.12l.48,9.22ZM422,563.72a92,92,0,1,1-65.08-157.09h.1a92,92,0,0,1,65,157.09Zm193.16,0a92.08,92.08,0,1,1,25.27-64.55A91.89,91.89,0,0,1,615.18,563.74Zm284.61,26.44c-15.22-.89-26.2-12-27.16-27.16l-.44-9.18V489.39l-.51-9.21c-.35-6.72-1.3-13-4.44-18.42a36.82,36.82,0,0,0-63.66-.1c-3.21,5.42-4.23,11.7-4.58,18.52l-.4,9.21V590.62l-9.22-.44A28.32,28.32,0,0,1,762.26,563l-.44-9.18V489.39l-.48-9.24c-.41-6.83-1.33-13-4.5-18.43a36.8,36.8,0,0,0-63.67,0c-3.14,5.39-4.16,11.53-4.5,18.42l-.48,9.21v64.45l-.44,9.21c-.62,15.26-11.81,26.14-27.16,27.16l-9.21.45V406.59c9.17,0,25.21,4.68,32.37,12.63a73.58,73.58,0,0,1,96.46,12.34,73.67,73.67,0,0,1,55.1-24.9v0A73.63,73.63,0,0,1,909,480.18V590.62Z"/><path d="M550.06,443.76a55.23,55.23,0,1,0,38.79,16.18A55.18,55.18,0,0,0,550.06,443.76Z"/><path d="M356.59,444.63a55.23,55.23,0,1,0,38.2,16.16A55.24,55.24,0,0,0,356.59,444.63Z"/></svg>