<svg id="Layer_1" data-name="Layer 1" xmlns="http://www.w3.org/2000/svg" viewBox="0 0 1000 1000"><path d="M680.17,517.35c-1.08-4.37-4.55-6-9.1-5-8.29,1.79-16.86,11.65-17,19.62-.13,8.15,5.82,15,17.65,18.56,3-7.72,6.28-15,8.62-22.58C681.34,524.69,681,520.71,680.17,517.35Z"/><path d="M265.06,450.87c-3.58-3.14-8.09-1-11.5,1.53a34.51,34.51,0,0,0-8.25,8.06c-6.81,10.19-.51,22.88,11.81,23.89,1.73.15,4.62-1.26,5.26-2.7,2.9-6.53,5.19-13.33,7.88-20.56h0C268.45,457.33,267.62,453.12,265.06,450.87Z"/><path d="M380.05,538.66a46.88,46.88,0,0,0,12.59-12c11.59-17.06,22.63-34.51,33.73-51.9,3.76-5.87,7.24-11.94,10.53-18.08.77-1.43,1-4.27.16-5.14-1-1-3.86-1.39-5.24-.69-3.68,1.88-7.6,3.91-10.35,6.88-17.9,19.29-34.16,39.81-45.67,63.69a107,107,0,0,0-4,10.54C371.17,539,375.13,542,380.05,538.66Z"/><path d="M613.67,450.65a27.94,27.94,0,0,0-2.42,8.83c-.91,7.93,3.19,11.23,10.47,8.4a34.12,34.12,0,0,0,8.66-5c17.38-13.76,29.52-31.1,34.93-52.77,1.05-4.2,1.14-8.64,1.81-14-2.76.69-3.65.71-4.32,1.11A123.92,123.92,0,0,0,613.67,450.65Z"/><path d="M619.29,584.9c-1.66,5.56-3.85,12.17,2.43,16,5.84,3.59,10.75-1.1,14.91-4.6,11.69-9.8,20.8-21.75,28.12-35.41l-21.5-18.34C633.46,555.47,624.07,568.88,619.29,584.9Z"/><path d="M242.14,488c-3.77-2.57-7-5.88-10.78-9.1-9.25,12.68-18.23,24.85-22.91,39.44a41.11,41.11,0,0,0-2,13.92c.24,5.88,4.48,8.18,10,6.18a24.28,24.28,0,0,0,5.87-3.16c14.42-10.36,23.47-25,32.87-40.17h0C250.32,492.48,246,490.59,242.14,488Z"/><path d="M500,0C223.86,0,0,223.86,0,500s223.86,500,500,500,500-223.86,500-500S776.14,0,500,0Zm-8.68,441.84a6,6,0,0,1,4.21-2.25c6.91-.24,13.83-.11,20.74-.11l1.25,2.26c-4,6.3-7.81,12.68-11.94,18.87a6,6,0,0,1-4.1,2.39c-7.14.24-14.28.11-23.6.11C483.06,454.82,487.05,448.23,491.32,441.84ZM278.38,482.4c8-5.6,16-11.21,23.66-17.22,8.57-6.72,16.38-14.5,25.34-20.62a50.48,50.48,0,0,1,19.19-7.78c16.23-2.86,26.62,9.55,21.73,25.19-2.46,7.84-6.32,14.95-13.13,20-3.68,2.73-7.59,3.83-11.54.67s-3.51-7.36-1.71-11.44c2.57-5.82,6.2-10.66,12.81-12.34,2.92-.74,6.06-2.1,4.13-5.51-1-1.74-4.66-3.14-6.77-2.76-3.14.57-6.26,2.45-8.88,4.45-23.67,18.11-38.77,42.22-48.43,70a19.76,19.76,0,0,0-.91,4.93c-.41,5.38-.74,10.85,4.67,14.28,5.23,3.31,10.85,2.08,15-1.17,9.86-7.7,20-15.44,28.33-24.65,12-13.23,22.25-28.05,33.85-41.67a273.25,273.25,0,0,1,24.59-25.19c5.09-4.63,11.31-8.2,17.42-11.48,9-4.83,18.14-6,26.16,1.91,9.56-5,19.2-2.2,30.48-2.72-2.28,4.36-3.61,7.28-5.25,10q-22.92,38.13-45.89,76.23c-2.21,3.68-5.21,7.24-4.32,12.41,5.56,1.18,8.93-2.23,11.87-5.25q12.56-12.93,24.37-26.56c3.5-4,7-6.08,12.71-3.46a25.75,25.75,0,0,1-1.87,3.8C453.86,523,441,538.88,425.19,552.05a75.77,75.77,0,0,1-18.31,11.58c-12.11,5.18-19,.83-21.32-12.18a10.28,10.28,0,0,0-1.07-2,56.11,56.11,0,0,1-5.76,4.43c-6.23,3.65-12.2,8.2-18.93,10.42-14.44,4.78-23.65-3.53-21.87-18.74.32-2.72.79-5.42,1.5-10.26-3.81,3.43-6.14,5.6-8.55,7.68-9.78,8.42-19.71,16.73-32.27,20.69a44.35,44.35,0,0,1-14,2.15c-13.07-.26-22.31-9.75-23.22-22.95-.85-12.43,2.83-23.77,8.22-34.7,2.19-4.45,4.51-8.83,7-13.72-7-.71-11.07,1.85-14.33,7.2-9.63,15.8-19.86,31.22-34.17,43.32a192.3,192.3,0,0,1-18.61,14.27,45.89,45.89,0,0,1-13.78,5.91c-10.81,2.69-20.61-3-23.2-13.88a47.62,47.62,0,0,1-.54-16.58,61.88,61.88,0,0,1,4.46-16.12,164.91,164.91,0,0,1,57.57-71.67A65.78,65.78,0,0,1,256,437c14.3-3.54,23.95,4.46,23.11,19.1-.51,9.05-3.26,18-5.09,27.45C275.11,483.25,277.08,483.31,278.38,482.4ZM441.86,632c-1.42-.71-2.88-1.34-4.24-2.14-17.36-10.13-36.08-14.67-56.18-14.45-12.19.14-22.43,4-30.74,12.91-1.11,1.19-2.4,2.2-3.82,3.49a20.7,20.7,0,0,1-2.61-2.52c-10.22-14.56-25-20.89-42-23.41-17.44-2.59-34.7-.7-51.72,2.79-25.21,5.17-50.16,11.63-75.42,16.52A140.92,140.92,0,0,1,141,627.56c-33.34-1.84-55.46-26-56.25-59.35-.77-32.55,9.6-61.7,26.4-88.82a267.41,267.41,0,0,1,88.4-88.09c12.22-7.51,25.26-13.36,39.48-16A77.83,77.83,0,0,1,254,374c14.31.16,23.65,10.77,21.51,24.84-1.52,10-6.68,18.36-14.49,24.82-3.53,2.92-7.72,4.89-12.35,2.13-3.59-2.13-4.83-7.42-2.9-12.93,2.47-7,7.07-12,14.52-13.86,3-.74,5.42-1.8,4.91-5.47-.48-3.47-2.6-5.83-6.07-5.86-3.85,0-8.07-.12-11.5,1.33-7.42,3.13-15.13,6.31-21.52,11.08-46,34.38-79.35,78.42-98.51,132.78a96.68,96.68,0,0,0-5.54,36.31c1,24.77,15.71,41.28,40.58,42.81a156,156,0,0,0,39.18-2.52c27.71-5.43,55-12.8,82.69-18.6a428,428,0,0,1,44.79-6.66c37.82-3.83,70.52,8.54,99.18,32.76,5,4.26,9.93,8.7,14.89,13.06Zm89.53-10.63c-7.23,3.73-15.95,5.58-24.14,6.24-18.7,1.52-33-8.79-39.05-26.6a58.73,58.73,0,0,1-2.13-31.5c2.66-12.24,5.26-24.85,10.42-36.15,25.7-56.2,63.36-102.63,115.5-136.6,12.71-8.29,26.22-15.13,40.89-19.23,12.09-3.37,24.17-4.59,35.78,2.35,1.75,1.05,4.89.73,7,0,26.68-8.86,51.8-5.64,75.7,9,11.18,6.86,22.65,13.22,35.26,20.55-6.33,6.65-11.91,12.48-17.44,18.34-2.46,2.6-5,1.86-7.55.27-7.61-4.73-15.13-9.61-22.85-14.14-11.09-6.5-22.13-13.14-33.57-19-8.6-4.39-18-5.84-27.85-2.92-.47,5.24-.36,10.32-1.46,15.14-5.92,26.07-19.46,47.56-40.69,63.71-5.06,3.85-12,6.18-18.41,7.06-9.38,1.28-15.58-5.08-15.21-14.6a47.18,47.18,0,0,1,3.2-14.64c7.06-18.53,19.33-33.29,34.44-45.79,6-5,12.33-9.55,18.37-15.92-3.81.47-8,.07-11.34,1.58-8.37,3.8-16.85,7.71-24.38,12.89-40.24,27.68-70.09,64.71-94.6,106.44-11.45,19.49-19.76,40.19-23.9,62.42a54.27,54.27,0,0,0-.56,17.48c2.23,15.46,14.87,23.16,29.62,17.94a57.73,57.73,0,0,0,16.65-9.46c17.72-14.34,31.33-32,39.26-53.5a71.44,71.44,0,0,0,4.12-20.39c.45-8-5.1-11.22-12.19-7.33-4,2.22-8.21,5.42-10.55,9.26-4.6,7.58-7.89,15.94-11.9,23.9-1.32,2.62-2.66,5.62-4.86,7.34-9,7-18.35,13.6-27.6,20.3a25.31,25.31,0,0,1-3.45,1.83c-.51-1-1-1.5-1-1.92,4.55-25.38,13.12-48.79,34.69-64.91a69.93,69.93,0,0,1,20-10.22c15-4.87,25.38,2.64,26.6,18.45a31.72,31.72,0,0,1-.59,9.17C592.45,570,569.56,601.65,531.39,621.36Zm308.35,7.39a9.18,9.18,0,0,1-8.48-8.72,8.89,8.89,0,0,1,8.68-9.11h.21a9.39,9.39,0,0,1,9.08,9.1C849.14,624.63,844.46,628.94,839.74,628.75Zm22-117.7q-23.15,39-46.31,78c-2.19,3.71-3.85,7.74-6.27,12.69,7,.95,10.79-2.3,13.75-5.54,8.64-9.5,16.94-19.33,25-29.35,3.19-4,6.23-6.23,11.81-3.76-.47,1.5-.61,3.18-1.44,4.39C847,583.86,835,599.76,819.72,612.7a88.5,88.5,0,0,1-21,13.6c-12,5.32-19,.83-21.37-12.18a25.07,25.07,0,0,0-1-3c-2.2,1.66-4,3.24-6.07,4.55-5.62,3.63-11,7.94-17.05,10.53-12.45,5.31-22.41-.81-24.31-14.14-.23-1.62-.33-3.27-.64-6.44-3.18,3-5.35,5.46-7.89,7.43-5.49,4.29-10.76,9.15-16.87,12.32-13.83,7.18-27-.36-26.84-15.89.07-9.63,2.57-19.3,4.65-28.81,1.42-6.47,4-12.68,6.25-19.58-8-1-13.27.91-17.1,8a137.9,137.9,0,0,1-39,45.6c-6.43,4.79-13.51,9.26-21,12-13.69,5-24.49-2.06-25.18-16.6a64.26,64.26,0,0,1,3.38-23c11.49-34.13,33.49-60.43,63-80.41,5.8-3.92,13.2-6.29,20.19-7.46,10.69-1.8,18.55,4.81,18.18,15.59-.29,8.49-2.93,16.94-4.93,25.31-.89,3.72-2.79,7.19-4.3,10.94,9.54.76,11.4-.18,15.2-7.55,14.23-27.66,29.26-54.87,48.61-79.35C766,437.33,788.85,412,816.3,391.3a124.69,124.69,0,0,1,17.12-10.54,34.62,34.62,0,0,1,11.14-3.45c11.2-1.53,16.44,4.26,13.92,15.36-1,4.6-2.9,9-4.48,13.51-2,5.58-6.13,7.32-12.24,6.78,2.16-8.39,8.25-15.11,7.67-24.32-6.83-.37-11,3.66-14.91,7.23-10.67,9.87-21.41,19.76-31.12,30.54-27.5,30.53-49.24,65.06-67.76,102.38,2.29-1.62,4.66-3.13,6.85-4.88a460.19,460.19,0,0,0,71.71-71.66c3.33-4.12,6.64-7.64,13.34-5.42-.81,1.74-1.28,3.54-2.33,4.88-27.35,34.66-57.81,66.16-94.2,91.48-5.06,3.52-8.8,7.53-11,13.25-2.76,7.33-5.93,14.51-8.51,21.9A59.84,59.84,0,0,0,708,593c-.26,3.25.56,7.81,2.72,9.75,3.34,3,7-.51,9.33-3a255,255,0,0,0,16.51-20c10.3-13.95,19.78-28.54,30.49-42.15,6.89-8.74,15.16-16.45,23.25-24.15a62.12,62.12,0,0,1,13.08-9c13-7.06,19.93-6.53,31.6,1.68,9.2-7.29,19.63-3,31.54-4.13C864.4,506,863.19,508.6,861.74,511.05Zm-63.4-70.44a116.6,116.6,0,0,1,18.15-20.46c1.06-1,3.13-1.16,4.73-1.13,26.3.41,49-9.6,70.09-24.23,6.4-4.45,12.21-9.75,18.3-14.65,1.39-1.12,2.82-2.2,5-3.87C901.1,416.32,833.21,453.87,798.34,440.61Z"/><path d="M819.53,515.53A56.7,56.7,0,0,0,809,523.65a208.5,208.5,0,0,0-42,60.08A35.88,35.88,0,0,0,763.59,594c-.31,2.4.43,6.21,2,7.22s5.73.42,7.48-1c4.27-3.5,8.53-7.41,11.51-12,14.58-22.45,28.75-45.17,43-67.82a24.85,24.85,0,0,0,1.63-4C825.63,512.34,822.27,513.86,819.53,515.53Z"/></svg>