<svg id="Layer_1" data-name="Layer 1" xmlns="http://www.w3.org/2000/svg" viewBox="0 0 1000 1000"><path d="M615.67,430.8c-11,.74-22.1,13.33-18,19.74Z"/><path d="M158.86,516.81c6-8.08,9.48-17.31,11.61-27,1.69-7.7,2.63-15.55.63-23.28-.64-2.49-3-4.52-4.62-6.77-1.89,1.74-3.88,3.38-5.62,5.25-.7.75-.87,2-1.27,3-5.65,14.79-6.71,30.21-6.31,45.82.07,2.41.63,4.8,1.09,8.21h0C156.27,519.83,157.67,518.4,158.86,516.81Z"/><path d="M378.59,489c3.76-.91,7-1.4,9.88-2.54,1.14-.44,1.69-2.36,2.51-3.61-1.38-.62-2.8-1.82-4.15-1.74C382.56,481.32,380.15,484,378.59,489Z"/><path d="M593.57,663.47a26.29,26.29,0,0,0-5.89,1.76c-2.68,1.3-5.56,2.59-7.65,4.61-3.82,3.71-2.24,9.54,2.68,11.25,5.2,1.8,15.95-1.21,19.42-5.47a3.36,3.36,0,0,0,.8-1.8c.07-3.93,0-7.86,0-12.07C599.48,662.38,596.51,662.84,593.57,663.47Z"/><path d="M423,518.12c9.74,10,21.49,17,34.28,22.46,1.74.74,3.57,1.29,5.6,2V500.81c-12.88.8-25.39,2.18-37.4,6.44C418.22,509.83,417.66,512.63,423,518.12Z"/><path d="M525.89,643.58c-6.87,2.57-10.9,5-9.91,11.95a46.46,46.46,0,0,1,0,6.57h.23c0,4-1.16,8.42.28,11.78,2.07,4.85,7.26,7,12.55,7.36,5,.38,9.59-.87,12.55-5.45,4.19-6.49,4-21.27-.42-27.64C537.88,643.28,532,641.28,525.89,643.58Z"/><path d="M573.15,318.36c-7.7.2-13.28,6-13,13.56H586.8C586.75,323.14,581.63,318.14,573.15,318.36Z"/><path d="M500,0C223.86,0,0,223.86,0,500s223.86,500,500,500,500-223.86,500-500S776.14,0,500,0ZM632.52,415.28c8.75,1.53,15.63,7.46,22.64,12.36,4.77,3.33,4.56,9.31,2.67,14.79-5.31,15.37-31.92,31.06-48,28.22-2-.36-4-.75-6.23-1.17-.22.28-.47.56-.72.82l-5.52,4.81c-1.67-2.21-4.51-4.29-4.75-6.65-.47-4.68-2.23-8.53-4.32-12.58-2.35-4.56-2.07-9.6-.31-14.44C593.54,426.34,616.62,412.5,632.52,415.28ZM547,327.54c3.08-13,15.72-21.58,28.82-20.38,13.76,1.26,22.25,10.23,23.61,25.15.29,3.13,0,6.3,0,10.08h-40c.22,6.1,2.1,11.08,7.57,13.49,9.16,4,17.42,1.69,24.88-5l6.59,7c-6.1,8.69-20.45,13-32.76,9.77-11.31-3-19.12-12.31-19.83-24.6A54.66,54.66,0,0,1,547,327.54Zm-63-42.46H497.4v30.85c6.08-5.15,12-8,18.91-8.73,11.67-1.29,19.47,4.91,19.72,16.61.31,14.28.08,28.57.08,43.34H522.44v-4.56c0-11,.07-22,0-33-.08-9.22-4.92-12.86-13.71-9.94a34.27,34.27,0,0,0-9.52,5.56c-1.11.85-1.61,3.07-1.63,4.67-.14,10.86-.07,21.73-.07,32.59v4.66H484Zm-73.33.08h64.45v12.51h-25V367H436V297.84H410.66ZM310,483.26a42.93,42.93,0,0,1,6.3-10c2.71-3.26,6.26-2.49,6.92,1.61a38.52,38.52,0,0,1-.3,12.54c-2.17,12.28-4.77,24.48-7.19,36.71a12.63,12.63,0,0,0-.2,2.46c.07,5,1.07,5.65,5.58,3.78,4.95-2.05,9.82-4.32,14.89-6,2-.65,5.54-.76,6.38.37a9.51,9.51,0,0,1,1.09,7.22c-2.85,10.73-16.8,20.62-27.91,20.25-7.43-.25-12.59-5.59-14.3-15.09-.56-3.09-.69-6.26-.92-8.48C301.16,512.33,303.76,497.38,310,483.26ZM190,565.38c-18.12,6.22-36.43-1-46.32-17.36-.42-.68-.92-1.33-1.58-2.27-7.11,4-14.3,6.14-22.1,5-15.42-2.27-26.21-13.36-29.71-30.19-3.63-17.53-.62-34.48,5-51.06,7-20.65,17.81-39,34.74-53.17,4.27-3.57,9.35-6.26,14.31-8.87,1.4-.73,3.72.27,5.62.48-.5,1.67-.58,3.67-1.57,5-6.63,8.76-14.1,17-20.1,26.11-15,22.85-22,48.06-19.71,75.47a46.27,46.27,0,0,0,3.66,14.25c5.12,11.86,14.09,14.53,24.89,8.47-1.74-8.88-4.06-17.49-5-26.24-2.12-19.71,2.46-37.41,17.64-51.34a34.59,34.59,0,0,1,18.73-8.87c8.4-1.25,15.82,3.18,18.46,11.74,6,19.49,3.3,38-8.81,54.39-5.39,7.29-12.77,13.1-19.55,19.88,2.7,7.69,11.78,12.69,21.17,10.75,13.52-2.79,23.22-10.87,30.33-22.34,7.58-12.24,11.45-25.81,13.71-39.86,4.33-27,.65-52.63-13.92-76.11-3.22-5.19-7.93-9.43-11.74-14.29-1.19-1.52-1.64-3.62-2.44-5.46,2,.23,4.36-.09,6.08.78A61.2,61.2,0,0,1,222,406.82c27.09,34,31.31,83.8,10.26,121.85C222.69,546,208.87,558.88,190,565.38Zm57.41-5.19c-4.27.12-7.25-2.14-8-5.8a53.4,53.4,0,0,1-.36-13.73c.18-2.51,1.36-5,2.44-7.39,1.78-3.88,1.64-7.29-1.2-10.67-.84-1-1.54-3.05-1-3.93s2.56-1.34,3.89-1.24c2.85.2,4.05-1.07,5.14-3.54,5.68-12.84,12.17-25.23,21-36.29a12.68,12.68,0,0,0,2.65-4.58c.67-2.75,1.87-4.49,4.86-4.66s5,1.63,5.88,4.25c2.24,6.62,4.64,13.22,6.26,20A269.52,269.52,0,0,1,296,544.73a14.09,14.09,0,0,1,0,4.1c-.75,2.73-1.86,5.37-2.82,8-2.4-1.4-5.1-2.45-7.12-4.26-3.73-3.32-4.39-8.06-4.82-12.77-.18-2-.41-4.06-.6-6-6.45,0-12.22-.15-18,.12a4.74,4.74,0,0,0-3.35,2.63c-2.05,5.66-3.75,11.45-5.54,17.2C252.8,557.12,251.62,560.07,247.37,560.19Zm53.3,132c-23.48,3.91-40.86-9.38-43.53-33.07-1.31-11.7-.66-23,4.85-33.7,8.87-17.16,32.2-23.76,48.81-13.8,7.93,4.75,11.82,12.22,14,21.28l-12.93,3.62c-.62-1.47-1.13-2.56-1.54-3.69-2.54-7-6.85-11.81-14.77-12.48-9-.76-16.32,2-20.78,10.29-4,7.39-4.75,15.48-3.89,23.63a51.28,51.28,0,0,0,3.18,13.53c3.46,8.63,10.6,12.61,20.4,12.25,8.51-.31,14-4.62,17.17-13.54.46-1.27.87-2.55,1.37-4l12.54,2.84C325.08,677.7,313.55,690.05,300.67,692.2Zm65.48.11c-20.76,1.51-33.43-11.77-32.23-33.47,1.42-26,25.33-32.07,41-25.37,12.4,5.3,16.41,15.76,16.62,27.51C391.54,679.08,381.45,691.19,366.15,692.31Zm28.53-192.25c-3.44,2.78-8.14,4.23-12.49,5.57-2.5.77-5.44.14-9,.14C372,515,370.26,524,369.9,533.15c-.43,11,.33,21.94.56,32.92.06,2.82.93,6-2.46,7.62s-6.2.14-8.78-1.85c-6.64-5.12-8.82-12.4-9.34-20.29a121.54,121.54,0,0,1,6.1-45.84c.37-1.16.71-2.32,1.12-3.66-3.35-1.55-6.91-2.57-9.7-4.65-4-3-8.08-6.24-10.95-10.23-3.74-5.2-1.85-12.86,3.56-16.86,2.41,12.92,13.61,13.08,22.57,16.29,1,.37,2.87-.76,4-1.65,3.78-3.08,7-7,11.17-9.43,7-4.06,14.69-2.21,18.79,3.56C401.15,485.61,400.77,495.16,394.68,500.06ZM489.5,691.13H475.83v-4.54c0-11.68.09-23.37-.1-35-.13-7.43-4.33-10.63-11.43-8.31-3.8,1.24-7.24,3.78-10.54,6.16-1,.72-1.34,2.86-1.35,4.35-.11,12.35-.06,24.7-.06,37.35H438.53v-4.4c0-11.68.08-23.36-.07-35-.09-7.44-4.26-10.73-11.35-8.44-3.81,1.22-7.26,3.74-10.57,6.1-1,.72-1.37,2.85-1.39,4.34-.1,12.36-.06,24.71-.06,37.41H401.55V632.24H414.9c.11,2.32.21,4.46.35,7.34,5.66-4.83,11.53-8.27,18.84-8.5,7.57-.25,14,1.48,17.43,9.42,6.33-6.11,13.3-9.73,22-9.42,9.17.32,15.57,5.43,15.88,14.51C489.88,660.67,489.5,675.77,489.5,691.13Zm-3.26-127.31c-.92-.22-1.89-.26-3.08-.42-.21,1.14-.42,2.18-.61,3.21-1,5.41-2.57,6.95-7.72,7.41-4.69.41-8.57-2-9.86-6.42a37.59,37.59,0,0,1-1.49-8.49c-.12-2.88-1.39-4.29-3.91-5.48A119,119,0,0,1,423,527.21a52.1,52.1,0,0,1-7-9.64c-3.27-5.77-2.53-11.91,2.63-16a56.67,56.67,0,0,1,15.1-9c8.45-3.14,17.33-5.22,26.11-7.4,2.86-.7,3.92-1.62,4.18-4.74.85-10.1,2.11-20.18,3.5-30.22.23-1.61,1.84-4.12,3-4.23,1.44-.14,3.5,1.49,4.53,2.9,4.63,6.37,5.49,13.95,6.23,21.49.39,3.81.44,7.65.63,11.26,9.86.95,19.23,1.35,28.4,2.87a101.39,101.39,0,0,1,20.58,5.79c7.25,2.86,13,7.81,14.53,16.14,1,5.39-2.86,12.08-8.67,15.15-5.16,2.73-11.78,2.16-15.71-1.76,2-1.26,4.17-2.21,5.82-3.69,1.44-1.28,3.32-3.23,3.2-4.74s-2.36-3.29-4-3.89c-14-5-28.5-7-43.25-7.53v48.68c24.51,3.53,48,3.86,70.26-7.57,13.9-7.15,22.14-18.31,20.72-34.43-.52-5.95-2.88-12-5.57-17.46-8.2-16.64-21.58-28.71-36.7-38.89a208.94,208.94,0,0,0-101.68-35.48c-11.88-1-23.65-.78-35.31,1.86a7.31,7.31,0,0,0-3.92,2.16c2.21.43,4.53.57,6.58,1.39,1.2.47,2,2,2.91,3.1-1.12.83-2.22,2.34-3.35,2.37a44.77,44.77,0,0,1-10.59-.81c-3.76-.85-4.7-3.17-3.47-6.91,2.51-7.63,8-11.78,15.63-13.79A129.85,129.85,0,0,1,456,402.07c35.46,6.64,67.88,20.37,96.41,42.65,15,11.71,27.69,25.34,36.46,42.57,11.52,22.64,4.08,46.22-14.27,61.34C561.68,559.26,546,563.7,529.72,566A118.49,118.49,0,0,1,486.24,563.82Zm70,112.15c-5.17,15.78-24,21.42-37.33,11.41L516,685.24v28.09H502.57V632.26h13.25c.13,2.28.26,4.38.33,5.7,4.86-2.2,9.54-5.32,14.67-6.45,11.3-2.49,21,3.44,25,14.55A45.26,45.26,0,0,1,556.19,676Zm60.52,15.41c-2.92,0-6.84.11-10.74-.09-.75,0-1.74-1.15-2.09-2a20.55,20.55,0,0,1-.88-3.86c-5,2.06-9.83,4.35-14.89,6.06a22.79,22.79,0,0,1-7.76.67c-6.15-.17-11.57-2.22-14.27-8.1a16.88,16.88,0,0,1,1.75-17.6c3.67-5.17,9.09-8,15-9.68,6.45-1.85,13.05-3.16,20-4.78.48-7-2.42-9.91-9.72-9.74s-13.55,3.26-19.63,8L567,642c8.7-9.54,28.28-13.91,39.63-9.07A14.78,14.78,0,0,1,616,646c.61,7.24.59,14.54.69,21.82C616.79,675.47,616.71,683.14,616.71,691.38Zm5.61-142.14c-.67,5.65-2.28,7.53-6.64,7.76-5.91.32-9.55-1.9-10.21-7.23-.93-7.62-1.2-15.32-1.88-24.71,1-9.7,2.13-21,3.4-32.34a21.85,21.85,0,0,1,1.66-5.92c1.62-3.86,4.29-4.53,6.81-1.16a19,19,0,0,1,3.76,9.32c1.36,17.11,2.25,34.26,3.29,51.4A16.34,16.34,0,0,1,622.32,549.24Zm8.76-49.59A24.31,24.31,0,0,1,641.27,490c18.28-8.47,37.36-9.57,56.73-4.05,2.56.74,6.47,1.16,6.24,4.87-.25,4-3.49,6.19-7.32,6.7-5.58.75-11.22,1.05-16.83,1.59-11.07,1.06-22.15,2.12-33.21,3.29a16.91,16.91,0,0,0-4,1.51l.14,1.87c6.19.81,12.38,1.56,18.55,2.45,8.43,1.22,16.88,2.36,25.25,3.91,8.11,1.5,13.29,6.6,15,14.6,1.88,8.75.37,16.84-7,22.74-10,8-21.62,9-33.68,7.07-9-1.48-17.18-5-23.64-11.69-8-8.31-5.61-18.48,5.49-21.69,13-3.76,25.34-.66,37.28,4.55,3,1.33,2.94,3.8-.15,5.51-5.57,3.09-11.51,4.62-17.83,2.45-3.76-1.28-7.43-2.88-11.15-4.29a15,15,0,0,0-2.77-.78c-4.5-.8-8.79.88-9,3.79-.23,4.25,3.55,5.16,6.42,5.72,14.54,2.83,28.5,1.17,41.27-6.8,4.33-2.7,4.08-6.72-1-8.52a116.83,116.83,0,0,0-20.73-4.91c-8.28-1.29-16.71-1.59-25-2.63C629.84,516,625.87,508.87,631.08,499.65Zm50.36,187.68c0,1.2-.11,2.41-.18,3.91h-13.2c-.09-1.59-.24-3-.24-4.49,0-11-.17-22,0-33,.19-11.29-6.26-12.84-15.2-10.2a20.41,20.41,0,0,0-3.35,1.56c-4.62,2.34-7.09,5.44-6.8,11.28.57,11.48.16,23,.16,34.75H629.38V632.27h13.25v7.37c5.52-2.73,10.68-6.37,16.4-7.9,13.55-3.62,22.37,3.7,22.41,17.67Q681.47,668.37,681.44,687.33Zm62-51.28q-11.71,30.54-23.47,61.07c-.84,2.18-1.83,4.3-2.87,6.38-3.2,6.38-8.28,10.4-15.51,10.64-5.41.18-10.85-.56-16.82-.92,1.2-4.33,2.13-7.72,3.15-11.43,2.75.32,5.3.68,7.85.9,9.39.85,15-6.6,11.63-15.37q-9.69-25.38-19.36-50.75c-.53-1.38-1-2.79-1.45-4.19a6,6,0,0,1,.69-.2c13-.87,13-.86,17.37,11.37,3.64,10.29,7.32,20.56,11.37,32l7.83-22.2c2.47-7,4.95-14,7.47-21.07h13.35C744.19,633.63,743.86,634.86,743.41,636.05Zm26.26-97.41c-.78,3.57-3,7.12-5.44,10-4.84,5.78-12.21,5.8-16.49-.3-5.43-7.72-10.06-16-14.89-24.15-2.28-3.85-4.23-7.9-6.32-11.86l-1.37.26c-.24,2.68-.57,5.36-.73,8-.56,9.87-1,19.75-1.65,29.61-.22,3.2-1.06,6.42-5,7.18-3.08.59-7.2-1.79-8-5.84a83.54,83.54,0,0,1-1.76-19.51,121,121,0,0,1,7.69-36.1,25.78,25.78,0,0,1,1.89-4.1c2.4-4,5.33-4.42,8.74-1.18a24.87,24.87,0,0,1,3.37,4.15q10.8,16.08,21.54,32.2a10.31,10.31,0,0,0,3.86,3.7c.08-1.48.27-3,.21-4.45-.54-14-4.4-27.31-8.06-40.68a51.5,51.5,0,0,1-2-8.4,5.88,5.88,0,0,1,1.57-4.57c.76-.61,3,.24,4.38.89a9.49,9.49,0,0,1,3.11,2.66C769.34,494.6,774.68,515.45,769.67,538.64ZM827.44,546c-8.63,6.64-18.14,11.47-29,13.17s-19.88-5.45-20.32-16.42c-.18-4.51,1-9.21,2.38-13.58,1.12-3.6,2.21-6.83,1.19-10.73-1.28-4.86-.14-6.15,4.68-7.83a5.31,5.31,0,0,0,2.94-2.45c1.44-3.22,2.51-6.61,3.71-9.91-3.24-1.24-6.46-1.92-9-3.63-1.81-1.22-2.67-3.82-4-5.81,1.77-1.08,3.44-2.84,5.32-3.11Q804.2,483,823,480.89c7.21-.8,12.42,2.74,16,8.77,2.51,4.17,1.61,7.11-3.16,7.83a210.18,210.18,0,0,1-22.55,1.94c-7.79.31-5.89-1.14-8.38,6.47-.29.89-.4,1.85-.7,3.31,5.8,0,11.38,0,17,0,3.76,0,6.32,1.4,6.67,5.64.47,5.64-.76,7.16-6.55,7.3s-11.57.16-17.35.24c-3.15,0-5.46.87-6.19,4.53-.63,3.19-1.93,6.26-3.14,10,2-.12,3.6-.09,5.12-.33,7.2-1.13,14.4-2.26,21.57-3.53,4-.71,6.26,1.13,7.83,4.46S830.44,543.71,827.44,546Zm36.8,16.5c-2.73.06-3.88.92-4.5,3.47-4.27,17.73-8.71,35.43-13,53.16-1.43,6-2.8,6.63-8.08,3.63-7.54-4.29-8.62-11.28-8-18.88a162.07,162.07,0,0,1,9.9-44.48,26.66,26.66,0,0,1,1-2.69c2.29-4.47,2.41-8.7.62-13.66-2.88-8-1.93-16.31.72-24.3,4-11.92,10.68-22.27,19.11-31.49,1.51-1.64,4.65-3.84,5.9-3.27,3.21,1.44,1.74,5,.77,7.3-2.16,5.17-5.08,10-7.39,15.14-2.92,6.47-5.7,13-8.22,19.66-.78,2-.49,4.5-.71,7,8.68-10.11,16.68-19.91,25.25-29.17a67.83,67.83,0,0,1,13.69-11.12c5.83-3.66,10.56-2.41,14.8,3.13,5.13,6.7,6.42,14.56,5.64,22.67C909.53,542.3,888.14,562,864.24,562.52Z"/><path d="M896.6,506.78c-10.75,10.44-17.85,23.46-26.16,36.19a15.88,15.88,0,0,0,2.17.27c12.95-.77,26.16-12.09,28.52-24.85A32.26,32.26,0,0,0,901,508.2C900.63,505.74,898.89,504.55,896.6,506.78Z"/><path d="M362.55,642.73c-6.6,0-11.36,3.29-13.46,9.53a29.94,29.94,0,0,0,.11,19.45c2.07,6.2,6.93,9.36,13.6,9.32s11.4-3.24,13.43-9.53a84.7,84.7,0,0,0,1.95-9.42h0c-.65-3.31-1-6.77-2.06-10C374.08,645.91,369.14,642.72,362.55,642.73Z"/><path d="M628.67,455.79c7.44-2.4,14.26-6,18.7-12.78,1.82-2.78,2.58-5.94.24-8.84-2.16-2.66-5.07-3-8.23-1.9-12.61,4.57-21,14-29.22,24.94A37.65,37.65,0,0,0,628.67,455.79Z"/><path d="M275.8,497.34l-1.41-.08-8.18,19.42,13.15-.73C278.1,509.33,277,503.34,275.8,497.34Z"/></svg>