<svg id="Layer_1" data-name="Layer 1" xmlns="http://www.w3.org/2000/svg" viewBox="0 0 1000 1000"><path d="M221.07,510.34c-22.77,0-41.51,19.44-41.67,43.3s18.38,42.86,41.78,42.7c23-.17,40.49-18.72,40.37-42.92S243.7,510.38,221.07,510.34Z"/><path d="M500,0C223.86,0,0,223.86,0,500s223.86,500,500,500,500-223.86,500-500S776.14,0,500,0ZM287.65,642.2c-27,18.66-56.47,21.71-86.53,6.85-6.41-3.17-11.84-8.3-17.85-12.62,0,0-.72.34-.77.73-1.66,15-1.66,15-16.91,15-13.26,0-26.52,0-39.78,0-10.89-.05-11.51-.66-11.52-11.52q0-110,0-220.07c0-18.9.24-37.81-.11-56.71-.14-7.33,2.45-10,9.81-9.87,15.8.37,31.61.43,47.4,0,8.11-.24,10.9,2.75,10.82,10.79-.29,31.59-.11,63.2-.11,94.8v10.81c43.86-35.43,94.79-21.82,122.41,8.31C346.77,524.75,338.9,606.85,287.65,642.2ZM421.22,364.4q0,69.36,0,138.72,0,68.51,0,137c0,11.45-.49,11.93-11.89,12q-21.57.09-43.13,0c-11.76,0-11.87-.15-11.87-11.74q0-130.68,0-261.36c0-5.92.16-11.85,0-17.77-.14-5.05,2.21-7.17,7.09-7.16,17.48,0,35,.12,52.44,0C421.6,354,421.22,359.14,421.22,364.4ZM488,341.23c22.59.27,40.25,18.51,40.07,41.39s-18.17,40.12-41.33,39.83c-22-.28-40.37-18.92-40.07-40.7C447,359.32,465.7,341,488,341.23ZM641.42,652.18q-24.55-.31-49.1,0c-7.05.1-9.24-3-9.2-9.75.2-32.44.08-64.89,0-97.34a95.94,95.94,0,0,0-.36-11c-1.69-14.31-10.49-24-23-25.6-17.46-2.22-29.81,3.76-35,18.25a64,64,0,0,0-3.47,20.67q-.54,47,0,94c.09,8-2.23,11.16-10.51,10.9-15.78-.48-31.6-.34-47.4-.06-7,.13-9.27-2.59-9.24-9.5q.29-88.87,0-177.76c0-7.51,2.62-9.85,9.87-9.67,15.51.39,31.05.46,46.55,0,8-.26,11.6,2.38,10.67,10.59-.36,3.16-.06,6.39-.06,11.64,23.14-26.13,50.18-31.4,80.23-23.87,29.3,7.34,48.19,31.51,48.48,61.69.41,42.6.07,85.21.32,127.82C650.25,649.69,647.94,652.26,641.42,652.18Zm189.85,0c-5.9.06-10-1.86-13.67-6.53-19.64-24.75-39.55-49.28-59.39-73.87-1.56-1.94-3.26-3.76-6.43-7.41-.37,4.79-.76,7.6-.76,10.42-.06,22.29-.22,44.58.06,66.87.09,7.46-2.32,10.74-10.2,10.54-15.79-.39-31.6-.31-47.39,0-7.38.14-10.55-2.21-10.53-10.19q.31-139.24,0-278.49c0-7.64,3-9.72,10.09-9.58,15.79.33,31.61.44,47.4,0,8.31-.25,10.66,3.13,10.63,11-.22,51.92-.11,103.83-.1,155.75v10l2.07.89L797.81,480c2.59-3,5.73-5.64,7.69-9,8-13.65,19.82-16.89,35-15.93,19.11,1.2,38.35.27,57.54.31,3,0,6.08.26,9.12.41L908.7,458l-84.48,88.16L916,650.78c-4.67.62-7.46,1.29-10.24,1.31C880.93,652.17,856.1,652,831.27,652.22Z"/></svg>