<svg xmlns="http://www.w3.org/2000/svg" viewBox="0 0 1000 1000"><path d="M13.952,517.4H82.509l.253,1.57c-2.639.845-5.8,1.059-7.794,2.682-3.067,2.491-7.424,5.841-7.592,9.017-.8,15.015-.355,30.1-.355,45.662h45.3c0-16.011.377-31.393-.343-46.723-.131-2.8-4.383-5.895-7.368-7.938-2.441-1.671-5.827-1.979-8.57-3.979h65.775l.124,1.619c-1.771.244-3.567.374-5.309.752-8.978,1.944-11.546,4.848-11.566,13.8q-.106,48.951,0,97.9c.023,9.158,1.758,10.783,11.363,12.108,3.2.441,8.2-.89,5.9,5.468H94c-.187-4.415,2.731-4.96,6.266-5.484,10.241-1.519,12.323-3.924,12.656-14.483.223-7.076.063-14.164.068-21.247,0-7.277,0-14.553,0-22.627-16.244-.323-30.895-.5-46.353.064,0,15.414-.1,29.221.032,43.026.118,12.023,1.409,13.509,13.485,15.287,3.65.538,5.555,1.538,4.083,5.464H13.952v-3.881A69.044,69.044,0,0,1,21.5,643.93c11.418-1.062,13.1-2.717,13.126-14.387.062-31.558-.208-63.119.186-94.672.095-7.614-2.241-12.4-13.133-14.8a61.594,61.594,0,0,0-7.726-.737Z"/><path d="M338.042,649.338c.27-.919.449-2.6.822-2.645,9.68-1.13,9.252-8.069,9.182-15.1-.145-14.513-.011-29.029-.058-43.543-.029-9.071-.082-9.071-6.729-15.125h32.463c-11.71,9.555-4.419,21.444-6.4,32.953h24.911c4.034-13.789,1.951-26.018-6.009-32.982h32.409c-6.538,6.088-6.592,6.088-6.618,15.154-.044,15.159.068,30.319-.046,45.478-.046,6.141-.02,11.891,8.249,12.7.69.068,1.191,2.031,1.78,3.113H382.946c1.212-1.287,2.283-3.482,3.662-3.693,4.366-.667,6.44-3.188,6.552-7.11.236-8.269.072-16.55.072-25.328H367.255c0,6.725.048,12.478-.012,18.23-.07,6.736-1.223,13.979,8.52,15.421.554.082.889,1.62,1.326,2.48Z"/><path d="M543.039,649.338c-10.712-25.087-18.228-51.532-32.2-76.085h27.913c-6.518,4.361-2.968,9.765-.877,15.015,4.362,10.952,8.864,21.848,14.2,34.952,4.407-10.13,9.361-17.768,10.85-26.023,1.428-7.912-2.867-15.5-9.359-21.058-.832-.712-1.9-1.15-2.475-3.076h31.258c-6.587,3.305-4.612,8.17-2.7,13.074q6.452,16.544,12.832,33.115l2.049.077c4.418-11.961,8.714-23.969,13.312-35.861,2.007-5.191-.989-7.556-4.662-10.5h15.334c-13.02,24.323-20.675,50.793-30.563,76.365h-3.9L567.559,603.6l-2.4.171-18.216,45.566Z"/><path d="M277.519,649.338c.523-1.093.963-3.084,1.581-3.14,7.6-.689,8.27-5.8,8.23-11.78-.1-16.122.013-32.246-.063-48.369a62.84,62.84,0,0,0-.891-7.427c-12.257-3.271-18.865,2.309-23.3,12.465v-17.42h66.887V590.74c-4.859-8.647-10.028-16.136-22.628-11.848a76.407,76.407,0,0,0-.848,8.083c-.086,15.478-.041,30.956-.038,46.435,0,5.93-.294,11.975,8.068,12.862.784.083,1.371,2,2.05,3.066Z"/><path d="M623.085,649.338c17.925-20.147,23.73-46.546,36.253-69.48,1.218-2.231,2.1-4.646,3.691-8.236,1.772,2.567,3.183,4.08,3.99,5.862,7.058,15.589,14.231,31.132,20.9,46.883,3.865,9.122,8.166,17.83,15.207,24.971H666.037l8.807-6.3c-3.376-16.057-3.714-16.353-18.956-16.336-2.594,0-5.191.121-7.782.036-6.693-.22-7.6,5.03-8.958,9.562-1.431,4.775,0,8.069,5.484,9.24,1.484.317,2.567,2.485,3.833,3.8Zm43.639-27.969-10.38-23.621-10.679,23.621Z"/><path d="M425.9,649.338c16.848-19.632,23.052-44.71,34.691-67.007,1.628-3.118,3.129-6.3,5.417-10.93,1.927,3.353,3.454,5.552,4.527,7.952,7.634,17.074,14.839,34.348,22.912,51.213,3.211,6.709,8.277,12.541,12.5,18.772h-37.1l9.352-7.1c-1.433-3.5-2.624-7.529-4.709-11.035-1.141-1.919-3.7-3.992-5.783-4.182a115.951,115.951,0,0,0-18.515-.121c-6.394.446-6.632,6.3-8.072,10.7-1.427,4.362,1.272,6.365,5.1,7.824,1.341.512,2.088,2.562,3.106,3.909Zm34.07-49.484-2.212.212c-3.038,6.894-6.075,13.788-9.409,21.353h20.682Z"/><path d="M724.607,649.338c1.266-1.268,2.512-3.6,3.8-3.626,7.417-.132,7.853-4.857,8.235-10.491.7-10.287-1-19.624-7.1-28.341-4.6-6.583-7.885-14.066-12.064-20.964-2.59-4.275-5.757-8.2-8.947-12.683h30.881c-5.567,3.52-4.878,7.427-2.28,11.818,4.92,8.311,9.544,16.795,15.034,26.525a156.246,156.246,0,0,0,18.056-29.906c.77-1.711-2.552-5.241-4.142-8.231h17.955c-11.605,11.379-17.858,26.179-26.359,39.506-5.624,8.816-3.386,18.694-1.5,28.12.344,1.718,3.626,2.868,5.574,4.25,1.92,1.361,3.867,2.683,5.8,4.023Z"/><path d="M177.95,649.338c.014-.642-.239-1.628.083-1.876,10.857-8.363,13.941-21.262,19.317-32.777,6.278-13.445,12.224-27.043,18.367-40.551.223-.489,1.012-.724,2.186-1.514,1.172,2.153,2.455,4.18,3.424,6.345,8.177,18.254,16.084,36.633,24.562,54.747,2.606,5.569,6.727,10.437,10.154,15.626H220.9c.58-1.08.973-2.92,1.771-3.114,4.348-1.059,7.544-2.978,5.477-7.886-2-4.742-2.46-11.259-9.76-11.527a169.014,169.014,0,0,0-17.408.093c-6.148.409-7.2,5.87-8.6,10.281-1.445,4.541,1.112,7.067,5.61,8.337,1.382.391,2.275,2.5,3.392,3.816Zm21.486-28.249H220.9c-3.715-7.9-6.879-14.616-10.99-23.353Z"/><path d="M857.367,649.338c4.712-3.659,6.1-8.46,5.808-14.3-.386-7.707.245-15.468-.23-23.165-.311-5.025-1.808-9.979-2.807-15.137,9.061-2.4,16.8.291,22.694,9.519,4.446,6.964,10.17,13.122,16.219,19.394-.184-9.487,3.914-19.212-3.305-28.914l12.986-.777c-7.715,8.3-4.374,17.725-4.79,26.485-.424,8.942.146,17.931.281,26.9h-3.9l-31.894-40.1a19.317,19.317,0,0,0-1.524,8.641c0,5.786.417,11.611-.128,17.345-.578,6.085,1.765,10.446,6.213,14.116Z"/><path d="M933.508,649.338c-6.539-3.666-12.886-7.421-15.907-14.917-4.276-10.608-2.923-20.5,4.431-28.994,7.231-8.351,16.708-11.858,27.925-9.545,4.559.941,9.131,1.82,14.621,2.91v12.67c-1.668-1.851-2.84-2.96-3.785-4.235-5.091-6.87-11.4-9.67-18.394-7.637-7.357,2.14-11.215,7.636-12.208,14.821a61.388,61.388,0,0,0-.114,14.478c1.628,16.045,14.244,21.84,27.953,13.036,1.549-.994,3.055-2.055,6.128-4.13-1.81,7.533-7.576,8.451-11.126,11.543Z"/><path d="M826.129,649.338c4.356-2.865,6.327-6.623,6.184-12.074-.343-13.142-.111-26.3-.111-40.428l16.151-.735c-.942,4.3-2.376,8.139-2.518,12.026-.353,9.654.155,19.34-.221,28.992-.21,5.373,1.526,9.289,5.9,12.219Z"/><path d="M976.46,649.338c-3.56-3.281-5.272-7.069-.963-10.673,4.513-3.773,7.667-.011,10.725,2.912v7.761Z"/><path d="M137.58,337.471c2.75-.206,5.5-.58,8.251-.588,16.571-.052,33.161-.5,49.705.16a189.5,189.5,0,0,1,30.772,4.031c11.581,2.4,19.711,9.643,23.644,20.912,4.491,12.863.137,24.366-11.986,31.44-4.13,2.41-8.729,4.025-14.454,6.607,5.532,2.057,9.914,3.751,14.341,5.32,11.493,4.071,18.459,12.216,19.946,24.055,1.57,12.5-3.393,22.74-13.692,30.216-11.283,8.19-24.623,10.209-37.9,10.7-21.09.774-42.229.281-63.348.225-1.781,0-3.561-.751-5.341-1.153q-.232-1.108-.466-2.217c2.374-.688,4.72-1.828,7.128-1.976,6.373-.392,9.288-4.017,10.051-9.806a75,75,0,0,0,.637-9.649q.07-41.171,0-82.342c-.049-16.257-.154-16.243-15.519-22.161-.805-.31-1.393-1.178-2.082-1.786Zm47.956,69.082c0,15.917-.094,31.4.056,46.882.047,4.935,3.238,8.122,7.951,8.234,7.824.187,15.525-.574,21.332-7.162,8.936-10.138,10.784-24.283,4.332-36.048C213.713,408.44,201.986,404.021,185.536,406.553Zm.5-10.783c12.892,2.512,22.522-.651,29.114-10.59,5.882-8.87,5.45-18.454.275-27.405-6.4-11.065-17.583-11.472-29.389-12.167Z"/><path d="M772.286,434.829l25.291,34.27c-15.063,4.38-20.172,2.755-28.911-9.507-4.132-5.8-8.167-11.666-12.417-17.377-1.787-2.4-4.017-4.476-6.046-6.7l-2.159.875c0,8.477-.51,17,.306,25.4.251,2.585,4.127,4.822,7.586,8.561a326.236,326.236,0,0,1-36.452-.632c10.936-2.929,9.382-11.132,9.4-18.553.033-13.891.073-27.782-.03-41.672-.072-9.756-.176-9.756-8.013-14.428,16.951,0,33.68-.553,50.345.223,8.953.417,15.488,7.744,17.172,16.191,1.6,8.022-1.978,15.224-10.136,20.243C776.609,432.718,774.862,433.492,772.286,434.829Zm-24.509-4c11.445.72,17.357-1.508,20.41-7.278,2.689-5.083,1.929-16.5-1.951-20.171-5.158-4.885-11.323-6.747-18.459-4.335Z"/><path d="M668.262,469.905H632.343c10.091-3.286,7.725-11.573,7.827-18.789.072-5.127.013-10.255.013-16.387H613.834c0,8.936-.666,17.631.353,26.127.367,3.063,4.779,5.648,8.069,9.242-11.672,1.166-23.314.326-35.754-.346,11.23-3.445,9.011-12.054,9.027-19.7.029-14.21-.1-28.422.057-42.631.056-5.163-.692-9.588-6.176-12.628h31.823c-14.185,7.925-4.327,20.881-8.6,32.387h27.486c-2-10.851,5.169-22.6-6.139-32.615h32.2c-7.43,6.093-7.454,6.093-7.476,17.04-.027,13.242.014,26.484-.015,39.725C658.675,458.96,657.21,467.315,668.262,469.905Z"/><path d="M377.335,437.1c0,7.694-.67,15.475.318,23.041.416,3.189,4.331,5.926,6.641,8.851-3.846,2.28-24.258,2.767-35.209-.435,10.489-1.683,10.033-8.294,9.908-15.21-.27-14.868-.3-29.748.041-44.613.146-6.286-.25-11.595-7.59-14.352,4.3,0,8.593-.051,12.887.01,12.016.173,24.076-.176,36.033.767a20.209,20.209,0,0,1,18.479,18.32c.533,6.6-1.583,12.1-7.158,16-2.62,1.838-5.309,3.58-8.907,6L428.7,470.315c-6.4,0-13.078.486-19.618-.262-2.3-.263-4.637-3.264-6.3-5.5-5.615-7.525-10.831-15.345-16.433-22.881-1.728-2.326-4.2-4.1-6.334-6.133Zm.432-6.191c8.3.723,15.525.5,20.348-6.668,3.308-4.912,2.95-14.449-.432-19.248-4.173-5.918-10.8-7.837-19.916-5.583Z"/><path d="M477.538,423.344c14.147,15.421,23.034,34.129,40.592,45.357-5.8,2.443-26.241,2.872-39.1.042l8.88-3.88-23.345-29.806-2.288.578a94.049,94.049,0,0,0-.018,27.909c.279,2.009,4.523,3.475,8.563,6.343H432.533c2-1.456,2.97-2.7,4.123-2.9,4.915-.875,6.187-4.255,6.2-8.459.052-17.751.345-35.513-.245-53.245-.119-3.587-3.691-7.06-5.738-10.7h30.134c-10.539,10.062-3.394,22.364-5.728,33.44l1.875,1.04c9.584-8,19.351-15.8,28.683-24.077,5.594-4.965.236-7.295-3.245-10.458h25.37Z"/><path d="M318.476,450.993c-6.23-16.251-6.276-16.3-16.94-16.091,0,7.9-.112,15.861.044,23.813.086,4.387,2.935,5.887,7.074,6.32,14.591,1.525,22.691-3.006,29.386-16.709.355-.728,1.26-1.191,3.474-3.192-1.34,8.319-2.043,14.945-3.678,21.335-.439,1.718-3.7,3.846-5.691,3.877-19.1.292-38.217.174-58.151-.622,11.31-3.5,8.714-12.174,8.748-19.732.063-13.9-.2-27.814.122-41.711.142-6.024-.349-11.037-7.3-13.514h59.99v19.5c-4.242-4.516-7.8-10.843-13.161-13.32-5.656-2.614-13.031-1.556-20.372-2.161V427.11c8.56,2.083,8.56,2.083,16.241-13.6C320.811,419.775,321.16,441.005,318.476,450.993Z"/><path d="M831.026,428.419c11.482.806,13.589-7.316,15.437-15.712l1.788.959v37.3c-4.669-7.41-4.488-18.818-17.739-16.009,0,7.955-.142,15.937.055,23.91.11,4.429,3.225,5.736,7.251,6.159,14.219,1.495,22.182-2.8,28.964-15.838a31.237,31.237,0,0,1,2.625-3.509c.492,1.735,1.019,2.587.9,3.338-1.049,6.661-2.212,13.3-3.48,20.771H803.891c10.215-3.132,8.175-11.465,8.223-18.761.088-13.557.042-27.116.006-40.674-.027-10.27-.059-10.27-7.472-15.6,19.661,0,39.317,0,59.842,0V414.2c-4.081-4.451-7.536-10.836-12.833-13.286-5.7-2.633-13.119-1.574-20.631-2.195Z"/><path d="M525.43,467.6V446.024l1.12-.4c1.325,2.739,2.5,5.561,4,8.2,4.824,8.5,11.661,13.649,22.038,13.119,5.513-.282,9.449-2.917,11.267-7.789,1.934-5.18-.434-9.674-4.661-12.712-3.924-2.821-8.383-4.9-12.583-7.351s-8.578-4.648-12.5-7.478c-7.973-5.757-11.091-15.013-8.294-24,2.824-9.075,9.624-13.83,18.7-14.589,5-.418,10.168,1.194,15.273,1.789,3.888.453,7.795.746,12.79,1.213.305,5.726.68,12.756,1.055,19.786l-2.142.343a90.419,90.419,0,0,0-4.395-8.071c-4.571-6.746-10.37-11.572-19.236-11.031-4.529.277-8.388,1.816-10.05,6.316-1.84,4.983.383,8.983,4.345,11.792,3.415,2.421,7.341,4.121,10.989,6.23,5.048,2.919,10.207,5.689,15.03,8.945,7.641,5.158,11.628,12.452,9.494,21.632-2.3,9.9-8.792,16.867-18.96,18.63-5.527.958-11.5-.472-17.259-1.022C536.332,469.083,531.231,468.323,525.43,467.6Z"/><path d="M678.192,394.293h30.8c-5.508,3.813-6.093,9.062-6,14.951.234,15.466.195,30.94.026,46.409-.069,6.365.659,11.791,9.869,11.881-6.1,3.562-26.034,4.281-39.831,1.558,14.413-2.538,11.735-12.033,11.792-20.214.093-13.213-.068-26.429.057-39.642C684.955,403.189,684.776,397.476,678.192,394.293Z"/></svg>