<svg xmlns="http://www.w3.org/2000/svg" viewBox="0 0 1000 1000"><path d="M140.07,553.922,291.056,669.306c-15.117,12.76-33.055,21.827-40.974,36.356-7.375,13.531-8.961,34.63-3.774,49.042,3.455,9.6,23.007,18.086,35.808,18.787,42.319,2.317,84.844.874,129.725.874V484.157c-37.419,0-75.489,0-113.56,0-47.716,0-95.457-.9-143.138.4-19.993.546-27.262-7.238-28.162-25.969-1.2-25.046-3.742-50.027-5.923-77.781H907.907c-2.673,30.7-4.091,61.545-9.2,91.768-.882,5.216-17.391,10.891-26.782,11.069-69.009,1.311-138.046,1.118-207.069,1.787-16.04.155-32.065,1.8-49.195,2.829V773.585c50.11,0,98.695,2.232,146.763-1.765,10.4-.865,27.472-24.951,26.321-36.88-1.685-17.472-15.847-34.5-27.173-49.894-4.295-5.837-15.474-6.608-28.8-11.714L882.375,558.787l7.955,4.789c-5.09,51.85-10.075,103.711-15.309,155.547-3.252,32.218-7.792,64.337-9.987,96.621-1.248,18.362-8.58,29.044-25.718,36.145-73.641,30.513-146.883,61.992-220.26,93.144-18.55,7.875-37.534,14.906-55.488,23.969-31.652,15.976-61.455,16.483-94.811,1.544-92.95-41.63-187.315-80.092-280.6-121-9.012-3.952-19.483-15.569-20.641-24.721-10.257-81.081-18.6-162.4-27.364-243.673C139.517,575.248,140.07,569.214,140.07,553.922Z"/><path d="M944.253,35.474c-4.108,46.386-7.246,84.355-10.886,122.275-4.718,49.135-10.565,98.174-14.444,147.37-1.687,21.389-9.952,29.808-32.044,29.761q-373.206-.8-746.415-.049c-16.727.029-28.573-4.553-30.245-21.626C101.557,224.758,93.653,136.237,85.63,47.729c-.133-1.472,1.56-3.11,4.229-8.061L259.541,181.55l-49.28,57.437c23.528,17.659,45.256,35.546,68.8,50.6,6.39,4.084,19.44,2.2,27.409-1.41,33.853-15.344,66.946-32.366,102.424-49.812-11.379-15.664-20.1-30.6-31.663-42.843-14.287-15.13-13.247-25.493,1.706-40.116C423.8,111.526,467.126,66.078,509.207,23.127L664.323,177.061,619.6,238.593c37.253,17.86,72.727,35.389,108.776,51.644,6.105,2.753,16.578,2.844,21.792-.66,23.247-15.621,45.318-32.993,69.164-50.737l-50.518-57.2Z"/></svg>