<svg id="Layer_1" data-name="Layer 1" xmlns="http://www.w3.org/2000/svg" viewBox="0 0 1000 1000"><path d="M118.17,474.74c-13.8,1.89-23.71,9.55-28.51,22.44-4.87,13.06-4.74,26.22,5.73,37,5.28,5.43,11.12,10.88,17.78,14.2,4.78,2.38,11.31,1.53,17.06,1.49,1.3,0,3-2.48,3.64-4.15.22-.58-2.18-2.18-3.4-3.3l-17.82-16.34,1.06-1.74c1.42,0,2.85.09,4.27,0,6.5-.5,13.42,2,19.39-2.78.62-.5,2.7,0,3.45.66,2.78,2.61,5.72,5.22,7.78,8.37,3.09,4.73,7.17,5.56,9.79.62A50.65,50.65,0,0,0,164,514.79c1.66-12.24-5.2-20.85-13.41-29.08C141.38,476.5,130.71,473,118.17,474.74Z"/><path d="M771.45,517.29c-13.05-1.88-20,9.94-17,21.51,1.88,7.38,7.26,12.48,12.87,12.84,11.3.74,17.94-5.52,17.92-16.9C785.19,525.61,779.27,518.41,771.45,517.29Z"/><path d="M500,0C223.86,0,0,223.86,0,500s223.86,500,500,500,500-223.86,500-500S776.14,0,500,0Zm41,626.17c-26.5,15.71-55.57,23.28-85.9,26.22-78.91,7.64-153.19-9.67-224.41-42.59a402.29,402.29,0,0,1-81-49.75,8,8,0,0,0-6.33-.92c-21.86,6.72-41.5,3-58.3-12.61-7.39-6.88-11.85-15.52-11.11-26.13.34-5,.23-10,.77-15a47.24,47.24,0,0,1,43.73-42c11.71-.76,23.5-2,34.55,4.91,10,6.25,17.05,14.47,20.77,25.38,5.55,16.25,4.73,32-5.58,46.42-1.71,2.4-1.49,3.91.91,5.81a345.39,345.39,0,0,0,75,44.93c19.69,8.73,40.17,15.66,60.12,23.82,26.13,10.7,53.51,16.17,81.31,19.68,38.61,4.86,77,4.18,114.55-7.44,23.24-7.19,44.57-17.93,60.29-37.24,18.53-22.77,24.05-48.89,14.53-76.42A184.37,184.37,0,0,0,539.65,452C475.24,377.83,392,338.27,297.45,319.18a333.46,333.46,0,0,0-80.56-6.06c-30.21,1.3-59.7,6.45-87.06,20.14-25.75,12.88-45.35,31.5-53.66,59.94-1.78,6.1-2.33,12.56-3.61,18.81-.25,1.2-1.3,2.23-2,3.33l-1.11-1.11c.41-1.35,1.16-2.68,1.2-4,.75-32.65,17.16-56.26,43.31-73.95,23.53-15.92,50.2-23.44,78-27.31,48.94-6.81,96.87-.51,144.59,10.57a456,456,0,0,1,125.52,49.57c28.28,16.31,55.15,34.62,77.72,58.55,21.45,22.74,39.14,47.84,48.49,78.07C603.45,554.71,585.79,599.61,541,626.17ZM206.32,515.82c.06,7.85,0,15.71.25,23.55.23,6,4.8,10.84,10,11.17,6.15.4,10.28-2.61,11.17-9.51.87-6.74.68-13.62.85-20.44.11-4.5,0-9,0-14l11.2-.5c0,12.31.56,24.82-.19,37.25a18.48,18.48,0,0,1-16.92,17,56.18,56.18,0,0,1-16.75-1.45c-7.05-1.56-10.79-7.42-11.18-13.88-.77-12.6-.22-25.27-.22-38.45l11.79-.63C206.32,509,206.3,512.4,206.32,515.82Zm75,44.67c-14.33,2.7-26.38-6.35-28.41-20.93-1.42-10.27-.26-19.81,7.73-27.57,9.23-8.93,22.72-9.42,34.36-.6l.58-4.73h12.15v52.59H294.83v-3.67C290.15,557.32,285.85,559.63,281.28,560.49Zm75.06-37c-.17-5.51-5-7.31-9.5-7.89-4.18-.54-8.65.5-10.34,5.16a35,35,0,0,0-2.07,10.66c-.28,9.16-.09,18.34-.09,28H322.07v-53h12l.69,3.91a10.87,10.87,0,0,0,2.19-.94c6.45-4.64,13.43-5.15,20.93-3.13,6.73,1.82,10.34,6.39,10.53,12.92.4,13.15.12,26.33.12,39.91H356.45C356.45,547.38,356.71,535.45,356.34,523.54Zm46-17.06a25.55,25.55,0,0,0,3.14-.59v11.27h-9.67V559.3H383.43V517.83l-5.2-.65c.21-3.34.42-6.67.64-10.23l4.91-.87V487.41l11.93-.59V500.1C395.71,506.77,395.82,506.88,402.37,506.48Zm27.56,31.95c0,5.86,3.46,11.05,7.71,12.13C446,552.67,451.86,548.07,452,539c.17-10.35,0-20.71,0-31.41l12-.85c0,11.35.58,23.08-.14,34.74-1.06,17.32-17.25,22.12-29.47,19.6-11.71-2.42-16.54-8.84-16.62-20.76-.07-11,0-22,0-33.92h12C429.9,516.74,429.85,527.59,429.93,538.43ZM540.5,523.21c-.15-4.64-4-6.54-8.38-6.84s-7.33,2-8.52,6.11a29.33,29.33,0,0,0-1.09,7.85c-.12,9.84,0,19.68,0,29.87h-13c0-12,.31-23.79-.14-35.53-.21-5.39-4.34-8.4-9.32-8.31s-8.29,3.31-8.62,9.1c-.57,9.66-.74,19.33-1.05,29-.06,1.79,0,3.58,0,5.63h-11.7V507.58l11.45-.77.7,3.28c4.95-1.6,9.75-4.27,14.64-4.43,5.13-.17,10.55,1.66,13.11,6.53,4.23-2.07,8-5.06,12.16-5.77,16.45-2.79,22.59,4.35,23,18,.33,11.83.07,23.67.07,35.81h-13C540.63,547.94,540.88,535.57,540.5,523.21ZM650,561.52c-10.77,2.28-20.93,1.13-29.78-6-6.67-5.37-8.1-13.35-10.61-21.44l14.19-3.39c2,4.1,3.54,8.66,6.18,12.46,4.34,6.23,14.31,7.7,21.07,3.76,6.92-4,10.38-12.7,7.06-19.77a19.15,19.15,0,0,0-7.33-7.76c-5.39-3.19-11.31-5.55-17.07-8.1-8.79-3.9-16.55-8.65-18.69-19.1-2.64-12.93,3.57-24.08,16.83-29.09,14.13-5.34,33-.73,39.48,13.66l-12.44,7.18c-3.69-5.63-8.15-9.72-15.18-9.74s-12.76,3.87-14.32,9.58c-1.18,4.33,2.46,10.61,8.36,13.44,6.71,3.22,13.64,6,20.44,9,8.85,3.95,14.06,10.38,15.47,20.35C675.93,542.46,665.65,558.22,650,561.52Zm72.54-.59c-9.7,2.88-18.88,2-27.32-3.42-9.45-6-12.48-15.61-11.46-26,1.2-12.23,8.58-20.33,20.33-24.05,8.09-2.56,16.12-1,24.31,1.55v17.35c-5.82-6.7-11.81-11.75-20.19-8.82a20.67,20.67,0,0,0-9.38,6.79c-5.46,7.45-2.24,20.94,6,25.48,6.31,3.51,16.67,3.7,23.91-7.51,0,3.82-.39,7.16.09,10.37C729.6,557.85,727,559.62,722.56,560.93Zm69.93.48c-2.64-.24-5.33,0-8.18,0-.11-1.69-.19-3.09-.34-5.48-2.11,1.35-3.54,2.32-5,3.21-13.41,8-33.72,2.89-37.08-18.44-1.24-7.89-.54-15.5,3.8-22.5,8.21-13.24,25.38-15.83,38-5.34.74-10.78,9.19-1.35,13.26-6.49v32.86c0,5.86-.16,11.72.06,17.57C797.13,560.17,796.13,561.75,792.49,561.41Zm67.68-7.82c-9.42,10.8-19.88,11.8-36.83,3.19v33.5H811.27V508.63l11.83-1c.18,1.19.43,2.94.8,5.54,7.81-6.09,16.1-9,25-5.33,4.58,1.86,9.43,4.76,12.39,8.56C869.39,526.85,868.43,544.13,860.17,553.59ZM902,551.91c9.19,2.8,14-3.4,18.51-9.2L931,546.53v1c-4.55,6.5-9.47,12.59-17.85,14.26-18.75,3.73-34-2.95-34.62-25.49-.28-10,1.89-18.82,10.5-25.06,12.58-9.13,40.72-5.36,41.08,18.22,0,.34.58.66.89,1v7H890.85C892.45,544.41,895.16,549.81,902,551.91Z"/><path d="M276.37,515.86A15.61,15.61,0,0,0,264.9,530c-.53,8.9,3.55,16.89,10,19.59,10.59,4.44,21.29-3.6,21.33-16C296.26,522.19,286,513.1,276.37,515.86Z"/><path d="M838,517.36c-10.72-.27-15.26,7.55-15.46,16.43-.2,8.67,6.35,18.7,16.22,18.66,8.46,0,15.68-8.05,15.71-17.44C854.46,525.23,847.14,517.39,838,517.36Z"/><path d="M903.51,517.39c-5.69.22-9.73,3.62-11.21,9.78h25.21A13.78,13.78,0,0,0,903.51,517.39Z"/></svg>