<svg id="Layer_1" data-name="Layer 1" xmlns="http://www.w3.org/2000/svg" viewBox="0 0 1000 1000"><path d="M500,0C223.86,0,0,223.86,0,500s223.86,500,500,500,500-223.86,500-500S776.14,0,500,0ZM701.31,627a169.13,169.13,0,0,1-30.09-3.07,110.61,110.61,0,0,1-97.35,57.52c-17.7,0-34.07-4.42-48.68-11.06a127.34,127.34,0,0,1-236.71-5.75c-8,1.83-15.93,2.24-24.33,2.24-65,0-118.15-53.1-118.15-119.47a120,120,0,0,1,59.29-103.55,133.47,133.47,0,0,1-11.5-54.46c0-76.11,62-137.17,137.18-137.17,45.13,0,84.07,20.8,109.74,53.1l.47.44A123.69,123.69,0,0,1,531,267.22c46,0,87.15,26.55,108.86,65,18.58-8.85,39.82-13.27,61.95-13.27C785.88,319,854,388,854,473S785.86,627,701.31,627Z"/></svg>