<svg xmlns="http://www.w3.org/2000/svg" viewBox="0 0 1000 1000"><path d="M168.27,342.68c1.223.325,2.451.634,3.668.98.839.238,1.664.527,2.683.854V476.908a2.5,2.5,0,0,0,.452.248.322.322,0,0,0,.231-.047q49.277-40.08,98.647-80.247A28.753,28.753,0,0,1,285.326,411.4l-18.939,14.678c2.121,2.6,4.273,5.03,6.463,7.563l8.62-6.369,6.351,7.394-8.569,7.548,6.48,7.91,8.625-6.762,6.364,7.785-23.874,19.231-7.55-24.314c-2.174,1.822-4.109,3.343-5.89,5.026-.353.333-.3,1.346-.117,1.953,1.58,5.319,3.235,10.615,4.857,15.921.394,1.288.749,2.589,1.281,4.436-7.082-3.568-13.477-7.335-20.226-10.817l-6.84,5.384,22.13,11.983c-.965,1.428-20.746,17.548-23.631,19.254l-6.206-8.26,8.52-6.906-6.462-7.522-8.6,6.764-6.37-8.123,8.566-6.821c-2.139-2.74-4.2-5.38-6.485-8.307L179.687,496.6l42.173,33.879a17.118,17.118,0,0,1,1.027-1.646c1.8-2.271,3.667-4.491,5.433-6.788a2.093,2.093,0,0,1,2.5-.8c4.537,1.09,7.31,4.15,9.334,8.1a1.641,1.641,0,0,1-.424,1.961q-2.378,2.891-4.715,5.816c-.6.748-1.179,1.518-1.889,2.435l4.561,3.581c.694-.549,1.37-1.07,2.032-1.609,8.072-6.572,17.071-11.281,27.422-12.9,18.994-2.976,35.09,2.762,47.742,17.154,14.906,16.957,17.281,42.324,6.3,62.066-.311.559-.613,1.124-1.043,1.914q3.037,2.355,6.067,4.707c1.863,1.452,1.989,1.671,1.258,3.838A16.577,16.577,0,0,1,317.008,629l-7.52-5.98c-.623.494-1.192.907-1.72,1.368a54.429,54.429,0,0,1-40.032,13.8,51.673,51.673,0,0,1-47.7-41.278c-2.6-12.762-.748-24.957,4.638-36.708.4-.871.795-1.744,1.259-2.764l-4.272-3.984c-2.57,3.406-5.021,6.654-7.422,9.838-5.438-.277-9.974-4.174-11.424-9.835l7.161-8.579c-1.163-1.682-33.114-28.174-35.174-29.15V561.7c.879.077,1.655.185,2.435.207,2.576.071,5.154.164,7.73.141a2.518,2.518,0,0,1,2.5,1.485,10.773,10.773,0,0,1,1.219,8.143c-.46,1.685-1.1,3.322-1.7,5.109H174.817v5.688c1.82.437,3.55.779,5.238,1.267,17.816,5.151,31.336,15.667,38.182,33.065,7.874,20.011,3.582,38.307-10.539,54.229-8.327,9.388-19.029,14.929-31.312,17.433-.464.095-.922.222-1.725.417-.007,1.967-.017,3.947-.019,5.927,0,3.676-.04,3.575-3.521,4.874-4.684,1.748-10.118.738-14.553-1.789V689c-.643-.206-1.147-.412-1.67-.527-19.433-4.279-33.645-15.136-41.159-33.72-10.854-26.847,2.2-56.853,29.369-68.027,3.764-1.548,7.832-2.36,11.76-3.51.455-.133.913-.253,1.521-.42v-5.825c-.7-.073-1.315-.189-1.933-.193-2.819-.021-5.64-.075-8.456.017a2.364,2.364,0,0,1-2.556-1.689,14.6,14.6,0,0,1-.112-11.5,2.493,2.493,0,0,1,2.731-1.8c2.573.106,5.153.029,7.731.028h2.29c.571-1.941.75-42.344.276-45.955a.778.778,0,0,0-.2-.133.3.3,0,0,0-.228.017Q138.9,529.641,121.87,543.527c-.361.294-.681.638-1.187,1.116,2.08,2.371,4.081,4.656,6.086,6.937,1.928,2.194,1.936,2.2.479,4.778a14.143,14.143,0,0,1-8.955,6.843,1.972,1.972,0,0,1-2.449-.879c-1.637-2.293-3.355-4.527-5.053-6.775-.476-.63-1-1.226-1.635-2l-4.607,3.839c.457.87.861,1.637,1.262,2.406,11.109,21.264,7.444,49.314-11.878,65.9C82.386,635.6,68.879,639.509,53.779,637.9A52.7,52.7,0,0,1,22.887,623.9a9.477,9.477,0,0,0-.754-.6,4.087,4.087,0,0,0-.552-.207c-1.741,1.338-3.638,2.791-5.53,4.25-2.449,1.888-2.466,1.919-5.051.272a18.829,18.829,0,0,1-7.4-8.984,22.483,22.483,0,0,0-1.113-2.087v-.966c3.13-1.342,5.271-3.925,7.88-5.916a65.065,65.065,0,0,1-7.08-22.313,10.092,10.092,0,0,0-.8-2.2v-8.212a21.79,21.79,0,0,0,.912-3.189A53.577,53.577,0,0,1,10.069,554a51.686,51.686,0,0,1,52.222-25.7,58.6,58.6,0,0,1,29.116,13.146c.677.553,1.357,1.1,2.1,1.7l4.188-3.181c-.442-.642-.779-1.18-1.165-1.681-1.67-2.169-3.271-4.4-5.064-6.46a2.681,2.681,0,0,1-.243-3.657,14.8,14.8,0,0,1,10.786-7.152l7.555,9.291,41.975-33.71L107.42,460.034l-6.5,8.3,8.56,6.809c-1.208,1.549-2.235,2.887-3.285,4.207-1.028,1.292-2.078,2.566-3.146,3.882L94.5,476.506l-6.454,7.538,8.164,6.894-6.356,8.454c-7.877-6.439-15.576-12.733-23.521-19.226l22.18-12.195-6.506-5.405L61.757,473.52c.382-1.393.589-2.226.839-3.045q2.643-8.65,5.311-17.3c.268-.865.618-1.649-.3-2.387-1.807-1.455-3.571-2.965-5.68-4.725-2.568,8.243-5.03,16.141-7.573,24.3L30.5,451.142l6.35-7.759L45.14,450.1l6.806-7.869-8.533-7.594,6.348-7.38,8.617,6.4L64.5,426.1,45.885,411.4A25.656,25.656,0,0,1,57.3,396.822q49.272,40.175,98.24,80.094a1.387,1.387,0,0,0,.433.2.384.384,0,0,0,.225,0,.988.988,0,0,0,.209-.118c.479-4.7.261-51.466-.266-53.26h-9.766v10.01h-10V423.7H126.117c-.282,3.442.083,6.8-.232,10.227-1.9,0-3.5.012-5.11,0-1.652-.015-3.3-.057-4.926-.087V403.7c4.092,1.731,7.916,3.384,11.769,4.967,3.81,1.565,7.531,3.372,11.625,4.768v-8.5l-21.581-8.92,21.638-8.558c-.053-2.783.238-5.38-.212-8.2l-23.242,9.085V357.9h10.176v10.772H136.5V357.917h9.968v10.8h10.08V344.5c1.154-.348,2.063-.636,2.98-.894,1.138-.321,2.283-.618,3.424-.925Zm6.386,331.367a22.075,22.075,0,0,0,7.945-2.193,41.61,41.61,0,0,0,22.465-24.925,35.48,35.48,0,0,0-1.028-26.382c-3.139-7.345-8.9-11.207-16.9-11.6a12.661,12.661,0,0,0-9.882,3.677,14.974,14.974,0,0,0-.761,20.183,13.725,13.725,0,0,0,19.47,1.483c.631-.545,1.325-1.016,2.248-1.718v15.715c-5.068,3.093-10.59,3.605-16.3,3-6.763-.717-12.244-3.694-16.128-9.8a21.373,21.373,0,0,1-15.036,9.6c-6.186.936-12.175.455-17.664-2.747-.436-5.2-.256-13.8.329-15.4.69.582,1.345,1.172,2.038,1.714A13.571,13.571,0,0,0,148.432,637c7.276-2.234,11.294-9.832,9.388-17.536-1.588-6.424-6.418-10.5-12.712-10.519a18.015,18.015,0,0,0-14.465,6.533,25.615,25.615,0,0,0-4.886,9.344c-6.412,21.408,7.263,44.423,29.141,49.048a13.075,13.075,0,0,0,1.646.115v-9.6a25.53,25.53,0,0,1,18.112,0Zm75.7-66.634c1.4-.381,2.475-.633,3.521-.961,7.472-2.349,11.051-8.693,10.349-15.241a14.585,14.585,0,0,0-12.782-12.854A14.1,14.1,0,0,0,236,587.7a17.9,17.9,0,0,0,.541,13.869,36.118,36.118,0,0,0,18.2,18.855c7.427,3.566,15.286,4.272,23.348,3.156a36.471,36.471,0,0,0,17.457-7.138c.664-.508,1.262-1.1,2.02-1.77l-7.794-6.075c1.917-6.117,5.046-11.072,10.991-13.859l7.8,5.953a34.956,34.956,0,0,0,4.71-15.107c.56-13.16-4.083-24.287-13.524-33.358a29.274,29.274,0,0,0-19.784-8.386,18.311,18.311,0,0,0-12.411,3.842c-5.409,4.259-8.907,14.069-.5,21.412a18.328,18.328,0,0,0,4.891,3.026c10.432,4.391,20.284-5.437,19.141-13.648a13.113,13.113,0,0,1-.009-1.7,2.569,2.569,0,0,1,.782.22c3.471,2.75,6.907,5.543,10.406,8.256.978.759.874,1.579.615,2.562a27.631,27.631,0,0,1-8.657,14.214,21.016,21.016,0,0,1-14.542,5.551,12.086,12.086,0,0,0-1.51.149c.254,2.13.63,4.111.7,6.1.311,8.48-6.845,18.652-15.174,22.491a2.08,2.08,0,0,1-2.415-.41c-2.277-1.794-4.585-3.548-6.876-5.323C253.145,609.607,251.893,608.618,250.355,607.413ZM52.844,587.568c-6.626.881-12-1.516-16.637-5.731a28.447,28.447,0,0,1-8.888-15.577c2.691-2.631,10.667-8.655,12.364-9.329,0,.584.032,1.137-.005,1.685-.413,6.084,3.947,11.9,9.937,13.925,7.8,2.637,17.3-3.081,18.609-11.154a14.822,14.822,0,0,0-10.6-16.784C52.3,543.044,47.054,543.79,42,545.721c-21.387,8.169-30.34,34.518-20.668,54.143a4.487,4.487,0,0,0,.665.779c2.621-1.992,5.172-3.932,7.763-5.9a21.094,21.094,0,0,1,10.975,13.837l-7.672,6.029a5.159,5.159,0,0,0,.569.717,26.166,26.166,0,0,0,2.1,1.618c12.12,7.865,24.99,9.407,38.435,4.057a35.079,35.079,0,0,0,18.886-17.145c2.153-4.261,3.229-8.774,2.245-13.55-1.134-5.507-4.145-9.584-9.613-11.42a14.764,14.764,0,0,0-18.411,9.066,14.425,14.425,0,0,0,9.234,18.425c1.044.354,2.124.6,3.466.974-.646.6-1.061,1.049-1.538,1.419-2.859,2.224-5.81,4.338-8.57,6.677-1.5,1.273-2.711,1.2-4.3.264a28.8,28.8,0,0,1-12.8-15.181A16.888,16.888,0,0,1,52.4,589.4C52.558,588.886,52.656,588.353,52.844,587.568Z"/><path d="M992.37,576.943a8.713,8.713,0,0,0-.468,1.575c-2.659,25.348-15.586,43.456-38.571,54.35a88.305,88.305,0,0,1-30.454,7.864A164.225,164.225,0,0,1,854.21,631.9c-3.556-1.232-6.905-3.055-10.363-4.575a2.7,2.7,0,0,1-1.764-2.774c-.215-8.77-.551-17.538-.831-26.307q-.51-16.05-.993-32.1c-.024-.794,0-1.59,0-2.337,1.886-.624,12.509-.71,15.021-.135.242,3.069.423,6.187.746,9.291a79.986,79.986,0,0,0,6.866,26.253c7.712,16.276,20.644,25.47,38.4,28.033a61.25,61.25,0,0,0,21.619-.344c15.224-3.224,25.128-12.39,29.931-27.073a57.08,57.08,0,0,0,2.5-24.54c-.97-8.387-4.912-15.209-11.1-20.826a65.024,65.024,0,0,0-15.1-9.89,198.572,198.572,0,0,0-24.663-9.744c-11.543-3.908-22.692-8.66-32.914-15.4-9.432-6.217-17.271-13.927-22.723-23.916-6.161-11.289-8.268-23.416-7.506-36.135a76.345,76.345,0,0,1,4.772-23.31c6.506-16.721,18.516-27.954,34.915-34.736a90.106,90.106,0,0,1,24.026-6.02,104.3,104.3,0,0,1,23.619-.42c16.277,1.769,31.953,5.7,46.76,12.859a4.324,4.324,0,0,1,2.767,4.426c.105,8.128.372,16.255.577,24.382s.41,16.255.609,24.383c.022.873,0,1.747,0,2.792H964.435c-.336-2.621-.635-5.237-1.01-7.842a80.262,80.262,0,0,0-6.809-23.8c-6.467-13.359-16.933-21.422-31.695-23.617a54.049,54.049,0,0,0-24.605,1.644c-13.554,4.3-21.69,13.584-24.931,27.3a51.573,51.573,0,0,0-1.205,12.225,29.382,29.382,0,0,0,7.158,19.034,53.918,53.918,0,0,0,15.205,12.143c8.212,4.684,17,8.044,25.9,11.121,10.877,3.759,21.693,7.658,31.854,13.15a75.233,75.233,0,0,1,24.365,20.192A66.841,66.841,0,0,1,991.7,556.072c.237,1.48.445,2.966.667,4.449Z"/><path d="M647.292,411.1H622.45V397.523a17.342,17.342,0,0,1,1.812-.181c36.009,0,72.018-.08,108.026.054,12.425.047,24.527,2.173,35.834,7.641,13.6,6.576,23.415,16.675,28.087,31.219,4.081,12.705,3.958,25.359-1.633,37.681a53.528,53.528,0,0,1-16.492,20.19,83.728,83.728,0,0,1-30.727,14.636c-.855.222-1.716.42-2.572.637-.071.018-.125.1-.5.414,2.444.362,4.627.661,6.8,1.01,10.664,1.714,20.86,4.805,30.053,10.621,15.9,10.056,24.562,24.625,26.6,43.209a66.757,66.757,0,0,1-3.543,30.187c-5.237,14.553-15.22,24.985-28.677,32.277a94.25,94.25,0,0,1-29.43,9.679,136.9,136.9,0,0,1-23.1,1.632q-49.3-.018-98.6,0h-3.292c-.577-1.911-.694-10.379-.205-13.556h26.1C647.6,622.85,647.861,416.889,647.292,411.1Zm43.28,106.453c-.526,3.941-.337,105.381.214,107.255h2.1q9.906,0,19.812,0a68.374,68.374,0,0,0,14.384-1.474c9.361-1.993,17.625-6.038,24.14-13.226,5.545-6.118,8.814-13.391,10.659-21.354a85.219,85.219,0,0,0,1.293-28.8A62.525,62.525,0,0,0,758.9,542.68c-4.35-10.462-11.546-18.092-22.26-22.149a47.48,47.48,0,0,0-16.526-3.076c-9.261-.073-18.523-.049-27.784-.055C691.777,517.4,691.226,517.492,690.572,517.55Zm-.1-13.773c.715.081,1.184.18,1.653.18,7.892,0,15.784.066,23.675-.039a38.221,38.221,0,0,0,14.8-3.03c9.705-4.2,16.091-11.591,20.065-21.166a61.222,61.222,0,0,0,3.716-32.92,49.544,49.544,0,0,0-7.015-19.62A33.515,33.515,0,0,0,731.06,413.4a36.725,36.725,0,0,0-13.716-2.312c-8.133.03-16.267,0-24.4.012-.78,0-1.559.081-2.471.132Z"/><path d="M487.012,397.5v13.424a49.157,49.157,0,0,1-6.719.167c-2.335.039-4.672.008-7.008.008H459.5c-.066,1.013-.166,1.855-.168,2.7q-.021,8.572-.008,17.146,0,56.749.039,113.5c.02,8.525.3,17.063.871,25.567a91.209,91.209,0,0,0,5.68,27.057c.639,1.647,1.346,3.275,2.127,4.86,5.715,11.6,14.864,18.882,27.6,21.255a69.733,69.733,0,0,0,34.591-2.109A38.026,38.026,0,0,0,552.6,602.306a66.784,66.784,0,0,0,6.734-20.294,131.965,131.965,0,0,0,2.041-23.535q.021-72.445.026-144.891c0-.711-.066-1.422-.117-2.453-8.494-.1-16.908.016-25.571-.067-.33-4.6-.2-9.038-.082-13.6h68.826v13.611H581.028v3.4q0,71.118.012,142.236a156.662,156.662,0,0,1-2.477,30.02,90.021,90.021,0,0,1-4.683,16.2c-7.1,17.848-20,29.189-38.457,34.332a118.814,118.814,0,0,1-28.885,3.841,176.627,176.627,0,0,1-25.811-.956,98.858,98.858,0,0,1-25.935-6.332c-16.294-6.678-27.293-18.381-33.171-34.941a96.531,96.531,0,0,1-5.284-26.174c-.519-8.024-.769-16.078-.782-24.12q-.107-66.893-.034-133.784v-3.671H389.933V397.5Z"/></svg>