<svg id="Layer_1" data-name="Layer 1" xmlns="http://www.w3.org/2000/svg" viewBox="0 0 1000 1000"><path d="M487.45,155.47a19.85,19.85,0,0,0-11.95-4v.3c-65.46,0-102.45,85.84-117.76,138.5,17.58-5.1,36.37-10.76,55.72-17C426.56,203.82,458.42,169.18,487.45,155.47Z"/><path d="M322.19,499.73c0,78.62,78.29,80.83,78.29,128.59,0,11.42-8.85,27.5-28.76,27.5-30.53,0-67.26-31.45-67.26-31.45L285.4,685.91s35,43.21,104.43,43.21c58,0,100.48-43.21,100.48-110.92,0-86-95.58-100.21-95.58-136.55,0-6.93,1.68-33.66,44.37-33.66,28.44,0,52.33,12.51,52.33,12.51l.59-.3,27.88-80.09s-18.23-10.65-55.31-10.65C368.53,369.46,321.19,433.74,322.19,499.73Z"/><path d="M441.31,264.17c23.92-7.43,48.38-14.86,70.62-21.71v-4c0-27.26-3.42-47.17-9.11-61.95C480.63,186.15,455.06,211.75,441.31,264.17Z"/><path d="M527.85,172.58c5.15,14.74,8,33,8,55.13v7.44c12.48-4,23.86-7.44,34.16-10.8C561.5,198.16,548.32,174.78,527.85,172.58Z"/><path d="M500,0C223.86,0,0,223.86,0,500s223.86,500,500,500,500-223.86,500-500S776.14,0,500,0ZM188.7,759.86s51.77-401.23,54-414.85c2.3-18.83,2.86-19.39,22.77-25.67,2.86-1.12,28.5-9.12,63.72-19.88C342.9,241.37,386.68,127,478.3,127c11.92,0,25.67,6.17,37.05,20.5h3.4c39.29,0,61.5,33.54,74,69.92,12.54-4,20.54-6.2,21.07-6.2s1.71-.62,2.3-.62L588.75,835Zm409.73,74.52h-.68l27-622.57a11.16,11.16,0,0,1,3.57,2.19c4.84,4,42.45,41.62,42.45,41.62s54,4,56.91,4a6.51,6.51,0,0,1,6.22,5.67c.62,3.45,77.44,523,77.44,523Z"/></svg>