<svg id="Layer_1" data-name="Layer 1" xmlns="http://www.w3.org/2000/svg" viewBox="0 0 1000 1000"><path d="M500,0C223.86,0,0,223.86,0,500s223.86,500,500,500,500-223.86,500-500S776.14,0,500,0ZM233,736.84a17.32,17.32,0,0,1,.21-2.69l84.62-536.44a29.09,29.09,0,0,1,28.71-24.54H549.72c70,0,124.69,14.78,155,49.29,27.5,31.32,35.51,65.91,27.56,116.76-.63,3.9-1.28,7.85-2.1,11.91C703.39,488.67,611.71,536.25,494.65,536.25H435a29,29,0,0,0-28.6,24.51L375.9,754.3H250.45A17.46,17.46,0,0,1,233,736.84ZM782.35,483.33c-23.43,120.33-103.64,162-206.05,162H560.51a25.37,25.37,0,0,0-25.14,21.46c-1.53,6.48-20.59,131.55-22.23,138.63A25.4,25.4,0,0,1,488,826.83H382.3a14.71,14.71,0,0,1-2.39-.18,15.26,15.26,0,0,1-12.7-17.44l6.54-41.29h13.78l32.33-205a15.33,15.33,0,0,1,15.14-13h59.65c139.8,0,223.55-66,248.88-196.13.41-2.15.77-4.85,1.12-6.92a91.23,91.23,0,0,1,16.53,14.74C787.09,391.06,792.15,433,782.35,483.33Z"/></svg>