<svg id="Layer_1" data-name="Layer 1" xmlns="http://www.w3.org/2000/svg" viewBox="0 0 1000 1000"><path d="M239.15,328.49c-1.23,14.09-2.33,26.63-3.43,39.2C249.68,359.13,251.85,342.9,239.15,328.49Z"/><path d="M500,0C223.86,0,0,223.86,0,500s223.86,500,500,500,500-223.86,500-500S776.14,0,500,0ZM376.9,816c-6,4.39-8.13-.47-9.85-5.7-11.91-36.42-24-72.78-36-109.17q-50.64-153.71-101.4-307.39c-.94-2.81-4-6.49-6.59-6.94-28.62-5.1-40.21-21.34-34.91-47.92-2.81-4.32-6-7-6-9.61.25-38.93.92-77.86,1.56-116.8,0-.76.68-1.51,1.63-3.46,1.94,2.82,3.57,4.83,4.83,7.05,17.07,30.15,34.17,60.29,51,90.58,1.68,3,1.66,7,1.34,10.91,11.86,11.93,18.13,25.92,12.63,43.08A37.55,37.55,0,0,1,245.7,376c-5.3,5-6.2,9.21-3.95,16q45.81,137.88,91.12,275.93Q355.6,736.92,378,806C379,809,378.76,814.63,376.9,816ZM843.21,691.74c-29.69-4.44-59.27-9.81-89.08-13.19-29.64-3.35-57.8,4.35-85.1,15.55-35.5,14.55-71.91,24.76-110.85,22.47-22.86-1.35-46-3.78-65.45-16.21-29.52-18.87-60.48-19.48-93-12.78-3.6.74-7.21,1.43-10.81,2.22-14.94,3.29-14.64,7-18.61-12.27-8-38.73-15.11-77.65-23.72-116.24-14.26-63.94-43.1-121.76-76.49-177.55-8.89-14.83-9.53-11.42,4.3-21.54,37.06-27.13,79.26-41.14,124-48.43,9.2-1.5,19-1,28.34.33,10.55,1.47,13.55,8.36,9.52,18.2-5.82,14.19-3.59,18.31,11.79,16.95,27.46-2.43,55-5,82.15-9.7,60-10.31,119.62-8.39,179.3,1.72q29.46,5,58.91,10.09c2.86.61,5.69,1.36,8.47,2.25C764.69,476,795.59,587.11,857.24,693.24,851.24,692.61,847.2,692.34,843.21,691.74Z"/><polygon points="195.78 242.79 212.91 315.32 231.62 308.51 197.16 242.19 195.78 242.79"/><path d="M548.17,383.53c-10.86,1.65-22,2.27-32.53,5.13-81.54,22.11-120.27,117-79.19,193.39,35.08,65.19,112.87,90.47,175.47,57,49.27-26.31,75.07-79.66,67.19-138.9C670.4,434.69,613.86,384.75,548.17,383.53Zm69.66,224.64c-31.51,38.11-80.57,41.21-116.59,7-29.13-27.66-40.28-62.87-41.58-101.62,1.12-30.22,8.07-58.09,26.94-82,29.92-37.88,77.68-42.66,114.46-11.54C652.73,463.75,661,556,617.83,608.17Z"/></svg>