<svg id="Layer_1" data-name="Layer 1" xmlns="http://www.w3.org/2000/svg" viewBox="0 0 1000 1000"><path d="M644.31,461.15c-5.86,13.59-6,27.44.18,40.93,3.3,7.18,9.55,10.31,17.54,9.9,7.6-.38,12.79-4.46,15.17-11.23,2.12-6,2.87-12.47,4.47-19.92-1.81-6.4-3.12-13.7-6-20.33-2.77-6.44-8.93-9.24-15.9-9.16S647.13,454.61,644.31,461.15Z"/><path d="M372.24,402.93q2.43-7.41,5.08-15.57l-12.87,1.58-1.52-2c-1.77,4.65-1.32,10.72-7.39,12.71-.25.08.2,2.28.3,3.26Z"/><polygon points="371.22 378.06 372.31 376.33 369.54 368.76 363.44 375.43 371.22 378.06"/><path d="M344.81,389.05c-1,3.44-1.53,5.5-2.76,9.89l9.8-5Z"/><path d="M376.91,363.27l-4.83-10.08-3.57,1.47,3.78,10.63Z"/><path d="M381.54,393.42c2.69.49,6.3,1.55,9.92,1.63,2.14,0,4.32-1.49,6.48-2.31l-4.48-6.23c1.45-.62,3.23-1.89,5.14-2.12,5-.58,10-.71,14.95-1-.84-2.85-1-7.05-2.81-8-3.68-2-8.6-3.34-12.57-2.61-4.25.79-8,4.28-13.32,7.4Z"/><path d="M421.87,304.23l-10.57,7.48,8.49,6.54C420.53,313.26,421.11,309.33,421.87,304.23Z"/><path d="M391.84,374.84l2.11-1.66c-.84-3-.82-6.75-2.71-8.7-3.22-3.34-5.86-.22-8.51,2.25-1.45,1.35-4,1.46-7,2.39C378.35,380.29,387.17,371.5,391.84,374.84Z"/><path d="M420.63,377.06c-.22-3.07-.09-6.23-.83-9.17a11.75,11.75,0,0,0-3.6-5.62c-1.19-1-3.33-1-5.3-1.51l-8.25,3.48c2.46,2.26,4.63,4.7,7.24,6.51C413.29,373.11,417,375,420.63,377.06Z"/><path d="M458.31,380.08c-1.19,4-2.39,7.93-3.93,13,1.77-.13,4.68.15,4.87-.43,1.12-3.95,2-8,2.75-12Z"/><path d="M160.51,460c-3.66,9.65-6.55,17.29-9.61,25.37h18.33c-2.86-8.34-5.46-15.9-8.72-25.37Z"/><path d="M290.59,461c-5.89,13.56-6,27.44,0,40.95,3.21,7.16,9.43,10.44,17.46,10.06,7.56-.35,12.83-4.25,15.24-11.08,2-5.79,2.83-12,4.49-19.45h0c-1.72-6.39-3-13.91-5.84-20.8-2.66-6.49-8.8-9.33-15.78-9.32S293.42,454.47,290.59,461Z"/><path d="M389,472.51c1.1-6.12,1.75-12.92-4.11-16.27-4.4-2.51-10.44-2.23-15.79-2.88-.57-.07-2,2-2,3-.17,8.47-.09,16.94-.09,26.24,4.65-.27,8.51-.21,12.27-.79C384.57,481,388,478,389,472.51Z"/><path d="M459.45,367.6c-1,8.31,5.12,4.24,9.39,5.6l-1.35-7.44Z"/><path d="M468.47,342.89c5.73,4.3,9.47,7.33,13.5,9.89.62.39,3.84-2,3.79-2.11-2-4.26-3.91-8.75-6.9-12.28C478.27,337.7,473.26,340.75,468.47,342.89Z"/><path d="M604,467.88c.35-5,.39-10.67-5-12.53-5-1.72-10.74-1.41-16.17-1.7-.41,0-1.32,2.31-1.34,3.55-.13,7.15-.07,14.3-.07,23.11,5.8-.66,10.63-.75,15.21-1.85C601.81,477.22,603.61,472.82,604,467.88Z"/><path d="M505.14,299.81c-1-1.9-2.16-3.7-3.25-5.54l-1.58,1-1.23,6.29-1.27-.19-.45-6.45-2.07.09v10.67l-1.67,0c-.43-2.2-.86-4.4-1.45-7.4-5.9,3.54-10.56,6.71-8.25,14.46,4.84,0,9.33.25,13.78-.07,4.8-.33,9.56-1.19,12.88-1.63C508.33,306.37,506.8,303.06,505.14,299.81Z"/><path d="M532.09,342.55l5.13,11.75c3.68-2.72,5.57-4.22,2.94-8.35s-3.87-9.45-5.81-14.2a58.88,58.88,0,0,0-3.24-5.53c-.74,3.1-1,4.66-1.49,6.16a44.63,44.63,0,0,1-1.88,5.15,32.55,32.55,0,0,1-2.1,3.51,31.67,31.67,0,0,1,3.87.57A15.59,15.59,0,0,1,532.09,342.55Z"/><path d="M484.37,293.44c4.23-2.14,2.05-10,8.72-9.7-2.56-3.12-5.54-4.86-11.56-2.49C491.7,284.64,478.4,289.75,484.37,293.44Z"/><path d="M479.4,243.67,473.26,246c.52-1.86.91-3.25,1.29-4.64l-1.89-1.11-4.58,7.2C478.75,248.55,480,248.05,479.4,243.67Z"/><path d="M468.55,314.27c1.59-2.69,2.8-5.67,4.83-7.9s4.86-3.68,7.34-5.47l-2.29-1.08c-.2-2.6-.34-5.21-.61-7.81a26.85,26.85,0,0,0-.75-3.31l2.27.38c-.22-3.31-.41-6.26-.67-10.27l-8,3.22,5.1,5.34c.32.33.61.69.91,1H462l2.06,6.84C460.23,300.14,461.77,307.45,468.55,314.27Z"/><path d="M502.63,391.71a3.28,3.28,0,0,0-3.26.28c-.57.74-.43,2.45,0,3.46,1.14,2.55,2.63,4.95,4.65,8.62,1.49-2.19,4.23-4.52,3.84-6.05C507.26,395.6,504.68,393.57,502.63,391.71Z"/><path d="M421.9,381.36l-8.08,2.13c7.5,5.24,10,5,12.37-1.1h0l5.3,6,2.06-10.8-1.78-1.14-5.52,5-5.4-4C421.3,379.13,421.74,380.76,421.9,381.36Z"/><path d="M507,302.78l1.88.84,8.69-6.2c0-.78,0-1.56-.08-2.34-2.61.21-5.82-.43-7.66.86S507.86,300.42,507,302.78Z"/><path d="M510.46,403.67c2.68-2.09,5.73-3.87,7.84-6.42.92-1.12-.11-3.83-.37-7.37l-9.28,11.69Z"/><path d="M461.57,362.88l7-9,2.93,3.21,1.43-.89L468,345l-13,8Z"/><path d="M355.4,318c-.5-3-.86-5.27-1.23-7.5l-3.21.29c.24,3-.34,6.39,1,8.68.73,1.23,4.77.5,7.32.66l-.32-1.62Z"/><polygon points="387.78 397.74 387.93 401.26 418.82 403.95 409.12 393.69 387.78 397.74"/><path d="M349.28,332.91l-3.5-2.81-3.39,8c5.42-1.91,10.14.56,11.93-5.43l-6,2.11Z"/><path d="M439.9,392.63a4.19,4.19,0,0,0,3.3,1.81,4,4,0,0,0,2.89-2.4c.29-1.32-.23-4-.93-4.19-6.35-1.77-5.35-6.75-4.87-11.58l-2-.54c-1,2.42-3.18,5-2.82,7.22C436,386.34,438.11,389.54,439.9,392.63Z"/><path d="M458.11,326.34c4-3.6,4-3.6.54-10.43l-6.42,1Z"/><path d="M447.09,269.89c2.89-1.55,5.55-3.54,8.29-5.38l-1.73-1.66c-2,.23-4.23,0-5.91.83s-2.44,2.77-3.63,4.23C445.13,268.61,446.6,270.16,447.09,269.89Z"/><path d="M450.29,356.62l-2.15-1.23-8.73,10,7.15,3.42Z"/><path d="M492.1,290c0,.3,1.73,1.32,2.2,1.09A156.48,156.48,0,0,0,509.56,283c1.07-.68.71-3.62,1-5.52l-1.44-1.16c-2.73,7.57-7.91,4.36-12.89,3.33l.92,5.41c-1.67-.5-2.74-.82-3.81-1.12C492.83,285.91,492.42,287.93,492.1,290Z"/><path d="M415.92,571.05c1.19-1,2.36-3.15,2.08-4.48s-2.27-2.66-3.77-3.1c-.66-.19-2.46,1.68-2.86,2.9-.68,2-.64,4.32-.9,6.57h0C412.65,572.25,414.68,572.11,415.92,571.05Z"/><path d="M466.22,575.88l3,.53,5-11.19-3.05-1.08c-.49,1.84-1,3.69-1.29,4.84l-5.16.69q.72,3.11,1.47,6.21Z"/><polygon points="394.44 571.13 374.96 572.35 374.06 573.7 385.82 581.28 394.44 571.13"/><path d="M397.49,578.67c-4.2.8-8.2,2.61-13.52,4.38L371.79,578l-1.31,1.56,24.78,27.1c2.94-7.3,6.07-13.91,8.21-20.82C404.82,581.43,403.06,577.61,397.49,578.67Z"/><path d="M651.64,388.16c-9.66.27-11.65,5.06-9.44,14.69h0l8.22-4c5.87,9.75,8.38-1.2,12.72-2.52l5.11,5.51c.87-7.68.87-7.68,5.14-8l-2.35,6.27a51.07,51.07,0,0,0,13.46-7.68c.72-.55,1-2.65.51-3.61-1.43-3-3.29-5.88-5-8.79-11.54,6.23-2.78-6.9-7.74-7.51-3.71,3.07-7.68,6.51-11.81,9.75C657.66,384.43,654.65,388.07,651.64,388.16Z"/><path d="M654.22,347.75a43.43,43.43,0,0,0,2.57,5.69l4.61-4-2.66-.46-1.81-10.49C649,339.4,653.14,344.14,654.22,347.75Z"/><path d="M648.93,337.75l5.26-7.72c-3-1-5.43-2.46-7.84-2.44-1.9,0-3.78,1.82-5.67,2.83a36.46,36.46,0,0,0,3.69,4.45A31.27,31.27,0,0,0,648.93,337.75Z"/><path d="M627,365.05l11.1-14.34-1.65-2.36c-2.75,1.5-5.45,3.1-8.26,4.49C619.6,357.11,619.45,358,627,365.05Z"/><path d="M615.15,739.93c-2.33,1-5.39,5.42-4.79,7.25a68.06,68.06,0,0,0,8.81,18c1.18,1.68,6.55,1.72,9.27.66,2.41-1,3.81-4.49,6.55-8h0c-3.62-6-6.43-12-10.57-16.92C622.89,739.11,617.77,738.84,615.15,739.93Z"/><path d="M500,0C223.86,0,0,223.86,0,500s223.86,500,500,500,500-223.86,500-500S776.14,0,500,0ZM387.13,274.35c3,1.65,9.64-3.07,8.42,6l-.75,3.45-8.88-8Zm-24.41,17.59L357,288.06v7.55L349.82,292C358.6,284.32,358.6,284.32,362.72,291.94ZM176.57,403.54q48.27-.07,96.53,0c10.48,0,20.94.31,30.38-6.54l2.66,5.43,13.13-.62c-.08-1.23.73-5-.58-6-7.86-6.13-2.18-7.8,2.38-9.46-.17-3.19-1.41-7.56-.25-8.33,3-2,7-2.36,11.81-3.72L330,381.62l1.15,1.6,9.28-4.13,14.61,12.6,7.29-9.78-6.6-1.36c-.37-1.79-.75-3.59-1.07-5.14h8.61q1.21-5.21,2.45-10.4l2.31,0-3.11-5.41-20.28,8.05c-3.63-2.84-6.47-6.11-4.32-11.62a3.9,3.9,0,0,0-1.17-3.54c-3.44-2.18-7.13-4-9.06-5,1.12-4.28,1.87-7.65,2.92-10.92.52-1.65,1.24-4.08,2.45-4.51,3.25-1.16,6.81-1.47,10.26-2.1,1.79-6.77,4.56-13.53.16-20.58l9.44-.81c-1.14-2.56-1.9-4.28-3.25-7.33l12.14-1.09a44.22,44.22,0,0,1,.09-6.09c.15-1.25,1.06-3.32,1.83-3.43a31.12,31.12,0,0,1,8.62.09c2.29.35,4.45,1.52,7.28,2.54.19,1.63.46,4,.8,7l-13.6-5.6c-4.78,11.86-4.78,11.86,5.05,17.12,1.95-5.7,5.47-8.14,11.8-6.16,2.57.8,5.76-.41,9.74-.82-3.49-5.28-6.54-9.91-8.92-13.53l16.7,5.69,1.87-2.51L394.8,283.76l.75-3.44c2.6-.54,5.19-1.16,7.81-1.59,4.11-.67,8.25-1.15,12.36-1.84a28.42,28.42,0,0,0,4-1.27l-7.43-12h7.33c-.6-2.42-1.1-4.48-1.69-6.85l11.11,5.92c-1.46-6.19-2.79-11.87-4.22-17.92,4.15-1.93,11.59-.63,10.8-8.92,8,0,9.85,2.45,7.25,9.46a3.05,3.05,0,0,0-.25,2c2.69,4.87-2.4,8.3-2.35,13.08,5.07,1.6,9.67,1.69,11.56-4.36.62-2-.59-4.6-1-6.86h8.28l-7-6.51c2.7-2.59,10.67,5.28,9.54-4.64l15.31.75c.15-3,.25-5.16.36-7.28l2-.53q2.38,8.2,4.78,16.39l1.52-.3V236.71c10.57-1.21,11.21,7.49,13.67,13.5l8.27-4.82,2.17,2.12-9.46,13.64c5.13-.42,9-.57,9.45-6.5.11-1.35,3.86-2.41,7.35-4.41-1.17,5.86-10.19,6.08-4.5,12,1.86-2,4.3-3.74,5.49-6.1,2.51-5,4.94-3.77,8.38-1,4.48,3.56,1.28,5.12-.85,8.06-1.37,1.89-.26,5.58-.26,8.46l2,.17,3-5.77,5.64,7.14,1.36-12.79,9.3,8.17c8.05-2.06,8.77-1.73,10.18,3.91,4,.87,8.24.64,10.39,2.64,1.81,1.68,1.2,6,3.13,9.52l3.82-9.11c2.83,3.19,8.83,3.76,11,.83a12.49,12.49,0,0,1,2.84-2.11c.35,1.23.65,2.48,1.05,3.69s.86,2.23,1.58,4.08c2.53-2.25,3.42-8.45,7.69-3.1a1.88,1.88,0,0,0,1.26.45c12.28.27,12.7.82,10.27,14.22l9,.91c-1.39,3.13-3.7,5.9-3.31,8.22.35,2.12,3.63,3.75,5.62,5.6l1.76-1.38-2.8-5.46,1.69-.73,5.32,11.73c6.34-7,9.6-7.4,11.7-2-7.29-2.89-9,4-12.34,7.46-1.88,1.92-2.36,5.2-3.48,7.87,2.95-1.65,6-3.18,8.8-5,.75-.48.67-2.2,1.42-2.76a17.48,17.48,0,0,1,4-1.76l8.11,6.74c3.23-.73,7.7-2.55,12.16-2.53,4.88,0,9.11,2.38,9.13,9.24l4.25-3.1,7.15,6.62-4.81,7.85c-3.37-.52-4.26-9.15-10.27-4.41l2.68-10-8.65.77v10.71l3.39-1-2,5.45,13.83,9.25c-.61-3.1-1.12-5.64-1.63-8.18,2,.5,4.48,2,5.93,1.32,5.92-2.77,9.26.05,12.54,4.39,1.12,1.48,3.17,2.26,5.06,3.55-.47,1.88-1.36,3.86-1.32,5.83,0,1.23,1.86,3.58,2.19,3.47,5.47-1.94,5.55,3.08,7.42,5.84l7-.84-2.2,3.27c3.27,3.4,6,5.61,7.73,8.48.49.83-2.19,3.52-2.68,5.39l-3.55,12.65c8.55-3.22,9.55-2.63,8.46,6L724,401.3c2.66.41,6.28,1.45,9.9,1.46,30.09.08,60.18-.05,90.27,0a50.66,50.66,0,0,1,7.3,1l-.24,2.32H169.51l-.19-2C171.74,403.89,174.16,403.54,176.57,403.54ZM718,465.49c3.25,11.3,6.53,22.59,10.31,35.62,4.8-12.52,9.48-23.28,12.94-34.41,1.64-5.27-.81-10.43-6.19-13.35a8.29,8.29,0,0,1-3.77-3.4H757.6c.08.37.16.75.23,1.13a20,20,0,0,1-3.33,1.44c-4,.93-5.29,3.16-4,7.12,4.18,13.19,8.28,26.42,13.08,41.79,4.8-15.27,9.43-28.5,12.81-42.05.6-2.4-4-6.1-6.23-9.27h22c-11.66,5.41-12.36,17.08-15.84,27-3.83,10.89-7.2,21.95-11.07,32.82-.81,2.26-2.92,4.06-4.43,6.07-1.4-2.13-3.31-4.08-4.11-6.42-3.94-11.53-7.59-23.16-12-36.76-2.38,5.88-4.1,10-5.71,14.13-3.16,8.19-6.14,16.46-9.51,24.55-.74,1.78-2.8,3-4.25,4.49-1.12-1.54-2.73-2.93-3.28-4.65-4.08-12.76-7.76-25.65-12-38.37-2.81-8.51-2.3-19.31-14-23.09h27.37C715.14,455.5,715.14,455.5,718,465.49Zm-28.41,28.8c-5.43,16.7-21.59,25.27-38.5,20.42-13.38-3.84-21.89-16.46-22-32.56-.07-22,15.12-36.56,35.78-34.27a28.53,28.53,0,0,1,6,1.38C687.66,455,695.9,475,689.61,494.29Zm-108.29,7.82c-.51,5.54,1,9.07,7.42,8.72.86-.05,1.78,1,2.43,2.84H560.88c1.07-1.48,1.48-2.5,1.85-2.49,9.28.32,9.29-5.66,9.07-12.47-.34-10.41-.09-20.83-.09-31.24,0-12.2,0-12.2-9.91-17.39,14.53,0,29.17-3.37,43.46,1.78,5.43,2,8.66,6,9,12,.38,6.37-1.94,11.29-7.62,14.43-1.56.87-3.19,1.63-6,3,9.39,2.3,11.72,8.67,12.35,16.24.59,7.14,1.59,14.07,12.47,14.61-11.68,6.08-20.61,1.59-21.69-8.89-.36-3.46-.72-6.91-1.17-10.35-.69-5.32-3.77-8.1-9.08-8.85-11.59-1.62-12.22-1.15-12.23,10.39C581.35,497,581.55,499.59,581.32,502.11Zm-33.76,2c-.09,5.7-1.8,8.78-7.31,9.47-6.61.83-13.37,2.66-19.82,1.93-21-2.35-32.73-19.61-28.78-41,3.5-19,22.14-30.44,42.14-26.2,3.51.74,7.23.48,12.12.75v17.07l-1.54.7c-1.14-1.66-2.36-3.27-3.39-5-8.46-14.13-26.19-14.31-34.15.17-6.9,12.54-6.88,25.79-.13,38.49,1.85,3.48,5.23,6.48,8.55,8.78,5.2,3.62,18.78,4.19,20.13.34,2.15-6.13,1.57-13.27,1.68-20,0-.89-2.66-2-4.24-2.67a36.5,36.5,0,0,0-5.25-1.37c.1-.65.19-1.29.28-1.94h25.68C543.29,488.33,547.66,497.2,547.56,504.15Zm-107.11,3c0,1.07,2.77,2.45,4.46,3.26a27.48,27.48,0,0,0,5.14,1.39c-.1.66-.21,1.31-.31,2H419.65c1.08-1.51,1.59-2.76,2-2.74,8.34.42,8.64-4.59,8.84-11.18.26-8.68-1.42-16.28-6.42-23.41-3.16-4.52-5.24-9.81-8.46-14.29-3.06-4.26-6.95-7.92-10.7-12.08h26.81c-.31.93-.35,1.63-.6,1.71-8.67,2.85-8.69,2.85-4.11,11,3.35,6,6.74,11.93,10.69,18.9,4.6-8,8.62-14.91,12.57-21.88,3.62-6.37-2.77-6.68-5.63-9.91h21.6c-12,7-15.4,20.19-22.75,30.37C437.47,488.67,440.66,498.13,440.45,507.16Zm-73.51-15.43a46.16,46.16,0,0,1,0,7.62c-.58,6.68,0,12.25,9,11.63.58,0,1.24,1,3.16,2.73H347.34l0-2.16c1.69-.35,3.72-.24,5-1.17,1.9-1.41,4.58-3.52,4.62-5.39q.56-23.22,0-46.46c-.05-1.89-2.66-4-4.54-5.47-1.35-1-3.45-1.05-5.05-2.74,14.57-.23,29.19-3.75,43.35,1.84,6.15,2.44,9.11,7.53,9.24,14.2.14,7.49-3.14,13.44-9.82,16.15-5.63,2.28-12,3.08-18.1,3.74C368.19,486.67,366.66,487.92,366.94,491.73Zm-29.31-10.54c.12,24.21-18.39,39.68-40.16,33.54-17.24-4.85-26.34-24.92-20.3-44.72,5.41-17.72,22.64-26.72,39.9-20.83C330,453.6,337.56,465.32,337.63,481.19ZM259.48,470.1c-.11,15,0,30-1.67,46.43-1.92-1.62-4.23-2.95-5.69-4.92-10.86-14.7-21.56-29.53-32.32-44.3-1.33-1.82-2.77-3.56-5.34-6.85,0,15.07-.05,28,0,40.91,0,4.93,2,8.42,7.41,9.33,1.08.19,2,1.32,4.66,3.18H200.08c.11-1.06.07-1.87.22-1.9,10.28-2.45,10-10.37,9.81-18.45-.19-8.33,0-16.66,0-25,0-11.83,0-11.83-10-17.68,8.77-4.38,18.06-2.29,23.58,5.29q14.52,19.92,29.06,39.8a16,16,0,0,0,2.42,1.69V483c0-4.4-.11-8.8,0-13.19.23-8.44.68-16.93-12.13-17.77l1.34-1.81h24.27C257,453.08,259.53,462.27,259.48,470.1ZM105.39,515.59c-12.06,1.82-22.51-1.86-30-11.92-8.8-11.85-8.35-30.74.74-43,8.88-12,23.22-15.8,38.55-10.92,2.6.83,6-.69,9.42-1.2v20.23l-1.66.64c-1.2-1.92-2.52-3.77-3.57-5.76-3.81-7.2-9-12.63-17.76-12.27-9.12.38-14.84,6-18,14.14-4,10.54-4.65,21.33.29,31.71,7.8,16.39,27.87,17.87,38.25,3.09a9.91,9.91,0,0,1,5-3.69C123.51,507.47,116.21,514,105.39,515.59Zm70.43-9.53c-1.93-5.56-4.76-10.81-7.47-16.07-.2-.39-1.75-.09-2.67-.1h-4.86c-12.34,0-15.16,2.28-17.1,14.84-.26,1.67,1.28,3.93,2.56,5.42,1,1.12,2.84,1.45,4.32,2.13l-.42,1.58H129.27c11.5-6.83,12.61-19.24,17.17-29.44,4.72-10.53,8.61-21.42,13.06-32.06.7-1.66,2.45-2.89,3.72-4.31,1.43,1.51,3.51,2.79,4.19,4.59,4.74,12.51,8.89,25.26,13.85,37.68,3.41,8.54,3.08,19.93,16.7,21.66l-1.37,1.78H166.74L170.1,511C172.12,509.32,176.12,506.94,175.82,506.06Zm103,76.69-6.6-3,2.37,8-9-3.64,2-1.62c-.95-2.71-1.9-5.42-2.75-7.83,3.05.76,5.48,2.2,7.43,1.72C279.07,574.65,279.28,578.23,278.79,582.75ZM334.15,739.4c.86,7.41,5.41,9.8,17.21,9-6.46,4.3-13.15,3.57-18.41-2-5.52-5.84-5.48-14.57.12-21.5,4.12-5.1,9.67-8.1,15.86-6.2,5.38,1.66,10.11,5.44,15.63,8.56l-5.7,8.65c-.92-4.15-.7-8.39-2.7-10.69s-6.33-3.85-9.43-3.54C339.69,722.43,333.32,732.14,334.15,739.4Zm40.06,28.75a15.39,15.39,0,0,1-15.82-14.94c-.11-9.51,8-18.68,16.67-18.92a15.25,15.25,0,0,1,15.61,14.88,1.21,1.21,0,0,1,0,.19C390.8,759.37,383.27,768,374.21,768.15Zm41.92,16.63c-6.43-1.14-7.41-2.45-6.05-9,1.62-7.93,1-8.8-7.55-10.57-.92,4.77-6.89,9.13-.79,15.06l-13.58-4.67c8.62-1.84,8.24-8.6,9.7-13.62s7.25-10.33,0-17.43c6.21,2.1,11.26,3.07,15.47,5.48,3.26,1.87,7.21,5.32,7.63,8.49.38,2.78-3.72,6.17-6.39,10.08C415,772.94,415.58,779,416.13,784.78Zm36.56-15.72c-1.1,5.53-5.21,7.24-10.33,7.18-2.28,0-4.56-.23-9-.46.49,5.09.89,9.28,1.31,13.7l-12.13-2.69c7.4-3.73,12-25.82,6.07-32.21,6.47,1.59,11.8,2.69,17,4.25C450.51,760.3,453.82,763.39,452.69,769.06Zm18.52,26.74c-9.28.11-15.8-6.66-15.74-16.36.07-10.43,6.92-17.83,16.29-17.61,9,.21,15.05,6.84,15,16.36C486.71,788.43,480.3,795.68,471.21,795.8Zm41.32-6.43c-1.09-8.09-2-8.62-11.57-7,1,4.69,1.94,9.35,2.91,14H493.36c5.46-5.47,4.77-27.25-2.7-32.4,6.9,0,12.25-.68,17.3.24,3.4.63,7.89,2.85,9.13,5.61,1.1,2.46-1.58,6.63-2.77,10.66.73,1.6,2.06,4.42,3.33,7.26s2.37,5.4,3.73,8.53C516.35,797.47,513.35,795.41,512.53,789.37Zm34.82,3.44c-1.31-4.18-1.41-9.13-3.63-10.41-2.42-1.39-7.77-.47-10,1.51-1.85,1.64-1,6.3-1.52,11.15l-5.37.49,10.38-36.43L556,791.65Zm34.36-7.43-15.25,3.85c4.35-5.13,3-15.18-3-29.63-4.92.61-4.92.61-8.42,9.74l-2.74-10.06,26.61-6.84c1,3.3,1.84,6,2.84,9.34l-11.34-6.48C569,767.19,574.83,783.35,581.71,785.38ZM592.9,782c5.54-6.72-1.8-28.43-10.14-30.82l12.82-4.82c-5.3,6.24.24,11.21,2,16,1.83,5,.78,12.54,10.46,14.3Zm29.39-11.94h-.07c-8.68.06-16.75-9-16.67-18.77A15.7,15.7,0,0,1,621,735.83c8.81,0,16.59,8.8,16.55,18.78A15.36,15.36,0,0,1,622.29,770.07Zm36.64-19L648.41,758c4-8.21-1-12.51-4.26-16.91-3.09-4.11-3.4-11.83-12.53-10,4.06-4.83,7.67-6.39,13-4,6.84,3.06,14,5.44,21.65,8.36-5.38-12.46-8.62-16-16.17-17.39l9.57-6.26c-1.32,13.16,10.77,19.41,14.06,31.72l-31-11.56C647.29,738.79,648.13,748.61,658.93,751.12Zm162.55-193.3c-25.24,0-50.48-.26-75.7.22-4.65.08-9.51,2.75-13.7,5.2-1.22.72-.45,4.84-.65,8.61l-5.23-6.38-6.47,1.22-.61-1.51,10.31-5c-10.2-4.69-14.77,7.1-23.17,3.71l-.15,2.41,11.18,5.83c-.4,2.57-.87,5.56-1.34,8.55l1.56.8-5.92,3.84-2.53-4.71-5.86,4.8c.3-4.8.51-8.08.72-11.36l6.94,2.7,1.1-2.37-14.66-8.07-1.16,1.85,1.74,2.77c-.85-.06-2.33-.43-2.48-.12-2.07,4.07-4,8.24-5.9,12.39l-2.51-.33c-.11-2.34-.22-4.67-.35-7.19-3.88-1.82-8.08-4.05-12.49-5.72-1.53-.57-3.6.28-5.43.48,1.07,1.9,1.71,4.83,3.3,5.48,3.29,1.36,7.08,1.51,11.19,3.36l-5.4,2.34,4.45,5.41c-3.31,1.38-6.54,4.06-8.89,3.43-4.82-1.29-5.11-5.32-.82-10.9H655l.79-2c-1-2.25-1.34-5.53-3-6.5-2.64-1.52-6.72-2.83-9.22-1.82-6.76,2.74-3.1,8.18-1,14.63a61.66,61.66,0,0,0-5.58-3.22c-2-.83-4.66-2.57-6-1.88-4.46,2.22-10.13,4.41-12.38,8.31-10.71,18.67-18.67,38.16-13.33,60.66,1.47,6.2.56,12.94,1.5,19.32.42,2.78,2.76,5.27,4.22,7.89l1.91-.82c.43-1.75.87-3.5,1.74-7,1.82,9.68,5.5,8.18,8.84,4.79l23,5.22c-.1,1-.19,1.93-.28,2.89-2.45,0-5.47.91-7.24-.19-3.8-2.35-7-3.49-11.47-1.52-1.86.82-4.76-1.08-7.22-1.21-11-.59-22-1.23-33-1.32-4.06,0-8.18,1.21-12.19,2.2-2.62.65-5.1-6.69-7.73,0-1.17,3-2.88,5.76-4.72,9.35-5.36-2.94-9.87-5.78-14.71-7.9-2.13-.93-6-1.48-7.21-.29-5.09,4.89-9.52,2.45-14.22-.11-.58-.32-1.48-.73-1.93-.5-7.5,3.74-14.8-2-22.37-.39-3.71.79-7.8-.31-11.72-.26-9.6.12-19.19.41-28.79.61-2.15,0-4.31,0-7.69,0l-3.45,5-3.29-7.74c-7.72-.45-8,13.26-18.26,8.64-.67-1.38-1.85-3.78-3.33-6.77l-10.53,8.75c-3.87-16.76-17.52-7.52-26.51-10.27-5.36-1.64-12,.86-18,1.41-.79.07-1.64-.6-2.47-.64-1.65-.07-4.25-.61-4.83.2-4,5.66-7.18,5.38-9.57-1.17l-6.63,4.69c3.36-8.09,14.71-12.19,21.8-9.1,7.3,3.18,18.23,2.14,20.05-2.8,1.59-4.33,1.32-9.45,1.38-14.22.14-12.23-.32-24.47.07-36.69.44-13.85-5.51-24.09-18.82-30.37l-3.42,7-10,2.64c.14.73.29,1.46.44,2.19h4.89L356.74,612c-2.79-2.7-6.79,7.79-11,.37,8.64-5.94,8.87-10.91,1.21-18.94-6.08-6.38-5.95-9.86.53-17.64a9.61,9.61,0,0,0,1.11-2.95l-1.13-2-16.57,6.46,2.21,9.06-17.45,1.75,5.75-2.49H306.75l-.71-1.86-3.39,6.38,11.74,4.4-14.7,7.06c-1.74-6.13-6-7.78-13.57-5.59,5.35-3.75,9.5-5.64,12-8.83,1.32-1.68-.24-5.62-.37-7,3.29-1.26,6.63-3.13,10.18-3.75,3.83-.66,7.86-.15,11.71-.15-1.6-2.85,10.37-6.14,1.07-11.32-3.6-2-6.5-3.55-8.9,1.19l-3.08-4.58c-7.09,9.09-12.9-.59-20.15-.7.38,3.06.75,6,1,8.29-5.93-.95-11.85-1.35-17.39-3-2.28-.69-3.69-4.16-5.58-6.3a16,16,0,0,0-2.4-2c-3.13,3.46-6.22.13-9.29.08-27.63-.41-55.26-.64-82.89-1a7.47,7.47,0,0,1-5.25-2H828.24c0,.84.1,1.67.14,2.51C826.08,557.51,823.78,557.82,821.48,557.82Zm29.67-88.7-1.39,1.12c-4.39-8.55-6.23-20.52-21-16.26v25.83c0,7.17.33,14.36-.1,21.5-.37,6.21,1.26,9.89,8.19,9.54.71,0,1.46.76,2.1,2.38-10.21,1.54-20.35,1.48-31.63,1.08,1.33-2,1.71-3.06,2-3.06,10.55.43,10-6.62,9.8-13.92-.27-12-.07-24.05-.07-36.08V454c-14.92-4.46-16.61,7.7-20.81,16.51l-1.67-1.12V449.7h54.54Zm50.44,44.74a15,15,0,0,1,.24-2c10.29-.38,9.27-7.68,9-14.59-.15-4.57,0-9.15,0-14.17H880.58c0,7.83-.23,15.4.19,22.94.09,1.56,2.34,3.32,4,4.36,1.47.93,3.49,1,5.27,1.42l-.3,1.92H860.8c.54-1.22.78-2.3,1.05-2.31,9.34-.13,9.23-6.32,9-13.19-.34-10.64-.09-21.29-.09-31.93,0-11.19,0-11.19-9.54-16.14h28.41c-12.29,1.55-8.93,10.71-9.09,18-.07,3.18,0,6.37,0,10h30.24c0-7.16.22-14-.17-20.88-.08-1.48-2.08-3.22-3.63-4.13s-3.68-1-5.37-3.09h28.76c-.28.82-.49,2-.7,2-8.69,0-9.55,5.28-9.26,12.45.5,12.24.39,24.53,0,36.78-.17,6,.88,10.06,8,9.69.67,0,1.39.84,2.08,1.29q-.13.84-.3,1.68Z"/><path d="M698.53,398.36l-.45-3.12c-3,.39-6.28.2-8.91,1.41-1.41.65-1.7,3.73-2.49,5.71l1.66,1.16Z"/><path d="M479.94,601.28c.63-4.27,2.61-8.39,1.31-10.56-4-6.62-7.41.29-10.56,1.45-5.82-2.62-7.62-6.37-3.24-12.76H447.21l-.63,7.3-1.43.26-3.34-5.47,9.76-6.59c-4.66-10.67-11-1.4-16.89-2l3.11,9.54-1.74,1.24-7.14-5.85C428,578.84,427,581,426,581c-9.86-.1-13.4,6.31-15.8,14.36-.71,2.37-2.69,4.35-3.56,6.7-2.46,6.65-6.33,13.35-6.59,20.15-.54,14.48.64,29.06,1.61,43.57.23,3.48.52,8.27,6.64,8.47l1-5.36c3.14,6.31,3.73,6.47,9.16,3.12.56-.34,1.2-1.2,1.57-1.08,10,3.09,16.25-5.84,24.64-7.62,1.42,1.82,2.46,4.52,4.29,5.26,8,3.22,17.12-.35,25.14,3.64.53.26,1.76.18,2-.17,2.57-4.25,7-8.53,7.13-12.9.42-16.11-.49-32.25-1.2-48.37C481.85,607.14,480.47,603.6,479.94,601.28Z"/><path d="M608.71,402.3h18.91l.9-1.82c-2-1.76-3.85-3.94-6.19-5-.66-.31-2.8,2.53-3.45,3.15l-10.5,2.34Z"/><path d="M606.64,579.89c-2.13-1.59-6.15-1.59-9-.92-2.61.61-4.8,3-6.54,4.23l-9.77-2.1,2.73-2.21-7.28-1.35-1.64,2,24.65,26.95c2.74-6.38,5.7-12.28,7.75-18.49C608.31,585.55,608.17,581,606.64,579.89Z"/><path d="M615.61,562.88v14l2,.64c1.39-2.26,3.07-4.4,4.08-6.82.8-1.93,1.76-5.28.89-6.09C621.08,563.26,618.21,563.42,615.61,562.88Z"/><path d="M599.19,571.21l-19.6,1.3c-.22.48-.45,1-.67,1.43l11.59,7Z"/><path d="M594.94,618.39c.74-13.82-5.14-24.59-18.87-31l-3,7-10.26,2.85.54,2,4.44.41-6.12,13.07c-9.38.7-10.13.66-11.06-.69,8.71-5.37,9.39-12.35,1.76-18.32-6.53-5.12-6.93-10.38-1.42-16.89a29,29,0,0,0,2.39-4l-1.63-2.15-15.88,6.91c.68,4.06,1.13,6.75,1.46,8.68l-17.35,2,4.36-1.86-.54-1.8L514.61,587l-4.1-3.69c-1,2.46-1.76,4.29-2.8,6.8l11.8,4.59-15,6.66-5.63-7.74c-2.54,7.45-5.93,12.67-5.77,17.79.49,16.82,1.87,33.65,3.72,50.38,1.15,10.41,5.59,12.74,16.4,10.51-1.11-7.19-.75-7.68,4.5-7.81.34,2.68.2,7.22,1.07,7.42,2.83.65,8,.74,8.76-.76,5.78-11.21,6-.31,8.68,2.1,10.28-2.4,21.77,3.18,31.76-4.07a2.65,2.65,0,0,1,2-.35c4.79,1.12,9.55,2.4,14.34,3.53,5.94,1.4,9.56-.85,10.43-6.93a76.7,76.7,0,0,0,.3-11.05C595,642.39,594.29,630.36,594.94,618.39Z"/><path d="M536.63,369.53c-1.68,3.61-3.26,6.13-3.94,8.86a6,6,0,0,0,1.56,4.7c.62.67,3,.49,4.07-.16,6.81-4.13,6.76-4.2,1-10.34C538.53,371.8,537.85,371,536.63,369.53Z"/><path d="M513.05,574.42c4.27,1.43,7.64,3.18,11.15,3.55s7.44-.32,6.57-5.07H518.63l-.3-1.55L524.2,567c-3.68-3.17-10.75,4-12.24-4.74l-3.87,8,5.4,1.19Z"/><path d="M597.1,365.71c1.07-.51,1.85-2.42,2-3.82.67-4.84,1-9.73,1.56-15-3.42-1.45-6.36,2.28-6.72,11.07l-5-3.49-2.27,6.08a74.12,74.12,0,0,0,6.3,4.07C594.26,365.31,596.1,366.18,597.1,365.71Z"/><path d="M438.5,759.34c-.78,3-1.91,5.57-2,8.2-.08,2.06,1.1,5.94,1.73,5.94,2.65,0,6.26-.3,7.79-2C450.5,766.39,447.41,761.22,438.5,759.34Z"/><path d="M612.75,351.15l-10.21,3.46c-.23,1.08-.7,3.34-1.46,7C607.44,358.83,614.26,358.93,612.75,351.15Z"/><path d="M569.4,382.63c-2.11,2.9-4.71,4.88-4.84,7-.21,3.48,2.36,5,6,3.66.26-.09.84,1.18,1.42,1.39a25.33,25.33,0,0,0,6.2,1.8c2.59.21,5.23-.23,8.58-.44l4.26-6.2c-2.7-6-5.1-11.43-7.51-16.81l-2.28.93c.25,1.83.5,3.68.66,4.81l-7.76,3c.46-3.59,1.75-8.36-5.49-4.83-.93.45-2.62-.9-3.78-.63a50.31,50.31,0,0,0-6.59,2.48l1.48,1.37Z"/><path d="M381,738.24c-3.13-1-8.91.17-10.69,2.54-3.4,4.53-5.53,10.44-6.63,16.08-.45,2.27,2.63,6.61,5.12,7.71s7.45.38,9.13-1.5c3.82-4.28,6.3-9.77,9.89-15.71C385.22,743.71,383.67,739.1,381,738.24Z"/><path d="M526.27,402.52h0c3.8.25,7.23.1,10.48.78,7.81,1.63,8.07-5.17,10.62-9.3.34-.55-.68-2.71-1.56-3.14C538.54,387.32,527.14,393.82,526.27,402.52Z"/><path d="M407.67,749.55l-4.81,14.31c4.82-.47,8.46.07,10.91-1.39,1.66-1,3-5.59,2.07-7.14C414.38,752.9,410.89,751.68,407.67,749.55Z"/><path d="M501.78,765.19V779.9c3.78-1.37,7.44-1.74,9.46-3.76,1.32-1.31,1.33-6.14,0-7.39C509.17,766.76,505.49,766.45,501.78,765.19Z"/><path d="M534.31,780.28,542.6,779c-1.9-3.91-3.41-7-4.93-10.11l-1.34.37C535.71,772.68,535.08,776.08,534.31,780.28Z"/><path d="M610.16,300.84c-2.06,7.93-2.06,7.93,6,10.19-1.67-4.64-2.87-9.54-5.19-13.83-1.3-2.4-4.45-3.79-6.82-5.68C600.6,296.74,600.6,296.74,610.16,300.84Z"/><path d="M472.27,764.32c-2.86-.22-6.87,3-8.82,5.75s-2,6.92-2.88,10.47c.53,8.13,3.93,13,9.76,13.27,5.44.28,9.15-3.7,10.19-11.68.46-3.59,1-7.77-.36-10.81S475.15,764.55,472.27,764.32Z"/><path d="M606.07,366.16a16.43,16.43,0,0,1-1.64,4c-.89,1.93-1.83,3.84-2.75,5.75l1.56.63,13.11-14.92C611.9,358.42,607,360.22,606.07,366.16Z"/></svg>