<svg xmlns="http://www.w3.org/2000/svg" viewBox="0 0 1000 1000"><path d="M298,576V550c0-10-1-11-11-15-11-4-4-5,1-6h32c3,0,9,4,1,7-7,1-8,4-8,11v61c0,6,2,9,7,10,1,0,3,0,4,1l2,2c-1,1-2,2-3,2,0,1-1,1-2,1-11,0-22,0-32-1-2,0-3-1-5-1a13.8,13.8,0,0,1,3-4c9-3,11-5,11-14Zm83-1v31c0,8,2,10,9,12a13.8,13.8,0,0,0,4,3c-2,1-3,2-4,2a170.948,170.948,0,0,1-32,0c-2,0-3-1-5-2,2-1,3-3,4-3,7-2,9-4,9-11V542c0-5-2-7-7-6-3,0-6-1-9,0-5,1-9,4-10,10,0,1-2,2-3,3-1-1-3-2-3-4V535c1-4,4-6,8-6h64c5,0,8,3,9,8v9c0,1-1,2-2,3-1-1-3-1-3-2-5-11-14-15-26-11-1,1-3,3-3,5ZM94,604a67.3,67.3,0,0,1-14,15c-8,6-17,4-26,5-19,1-30-10-39-24-8-12-7-24-4-35,4-14,13-25,28-32,13-5,26-5,39-1,3,1,6,1,8,0,4-1,6,0,7,4,1,7,1,13,2,20,0,1-1,3-2,3a3.674,3.674,0,0,1-3-1,30.388,30.388,0,0,1-5-7c-4-12-26-19-37-13-13,7-17,17-19,29-2,10-2,21,2,31,4,11,16,19,27,20,12,1,22-4,30-11,1-2,3-3,5-4A.979.979,0,0,0,94,604Zm597,19c-32,2-38,1-49-10-9-8-14-17-15-29-2-21,6-37,23-49,14-9,29-9,44-5,3,1,7,1,10,1,5-2,8-1,8,4,1,7,1,14,2,21,0,2-2,4-2,5-2-1-4-1-5-3-2-2-3-5-5-7a47.143,47.143,0,0,0-10-10c-4-2-8-4-11-4-17-2-28,7-32,25a66.573,66.573,0,0,0,1,37c5,13,29,23,41,15,6-3,11-7,16-11,7-4,8,1,5,5a200.234,200.234,0,0,1-16,14A10.873,10.873,0,0,1,691,623Zm95-14c14-13,12-39,6-57-3-8-13-15-21-15-12-2-23,7-25,13-8,17-9,35,0,52C753,619,773,622,786,609Zm-18,15h-5c-19,1-31-9-38-25-14-31,1-61,32-70,14-4,28-1,41,9,26,20,24,60-3,79C786,624,777,624,768,624ZM541,377c12-1,22,1,29,7,3,2,6,3,8-2,0-2,1-4,4-3,2,1,4,1,4,5a194.189,194.189,0,0,0,2,24c1,5-3,7-6,7-2,0-4-3-4-5-4-16-20-25-34-24-11,0-22,10-26,19-7,19-6,37,0,55,6,16,24,23,38,17,7-3,13-6,18-11,2-3,6-6,9-2,3,3,1,7-2,10-8,7-17,12-28,13-19,2-37,0-53-12-14-12-23-35-16-56C493,392,510,382,541,377ZM69,379c12,0,23-1,29,5,4,2,7,3,9-2,0-1,3-3,4-3,1,1,3,3,3,4a121.875,121.875,0,0,1,0,27c0,2-2,4-4,5a21.813,21.813,0,0,1-4-5c-3-16-19-26-33-24-11,1-21,7-26,20-6,14-5,28-3,43,2,10,5,21,16,27,14,7,31,2,41-9,1,0,2-2,3-2,2-2,5-4,8-2,3,4,1,7-1,9-2,3-6,6-9,8-18,10-37,10-57,4-17-6-28-19-34-36-3-11-2-24,3-36C26,390,47,380,69,379ZM829,488H787a57.361,57.361,0,0,0-7-4c2-2,4-4,6-5,8-1,9-3,9-11V396c0-8-1-9-9-11-8-1-6-6,0-6h50c9,0,3,6-2,6-8,1-9,3-9,11v75c0,6,2,8,9,8h12c13,1,23-10,25-20a29.94,29.94,0,0,1,4-8c1-1,4-2,5-1,1,0,2,2,3,4,0,3-1,6-1,9-1,5-2,10-3,16-2,8-2,9-11,9Zm107,0H895c-3-1-8-3-8-4-1-5,4-5,7-5,5,0,8-3,8-8V396c0-8-1-9-10-11-1,0-3,0-4-1a3.674,3.674,0,0,1-1-3,2.151,2.151,0,0,1,2-2h53c9,0,5,5,0,6-10,3-10,3-10,13v70c0,10,1,11,11,11,7,0,15,2,22-3a27.422,27.422,0,0,0,13-17c1-4,2-11,8-9,6,1,3,7,3,11l-3,18c-2,8-3,9-11,9ZM452,587h11c3,0,4-2,3-5-3-7-6-15-10-22,0-2-2-3-3-4a13.8,13.8,0,0,1-3,4c-2,5-4,9-6,14C438,587,438,587,452,587Zm75,37H476a14.453,14.453,0,0,1-7-2c2-1,3-3,5-4,4-3,4-6,2-10-1-4-2-8-4-11-1-2-4-3-6-3a121.875,121.875,0,0,0-27,0c-2,0-5,2-6,4a56.377,56.377,0,0,0-4,12c-2,4,0,6,4,8,2,0,3,3,4,4-2,0-3,1-5,2-7,0-15,0-22-1a3.674,3.674,0,0,1-3-1,7.581,7.581,0,0,1,2-4c11-5,13-16,18-26,8-19,16-38,25-57,0-1,0-2,1-2,1-1,3-3,5-3,1,0,4,2,5,3,5,12,10,25,15,37,5,14,10,27,17,40,4,9,15,11,24,7,2-1,3-4,3-7,1-22,1-44,1-66,0-5-3-7-8-8-2-1-5-2-5-4s4-3,6-3h33c2,0,6,0,6,3,0,4-3,3-5,4-8,1-11,3-11,11v62c0,7,2,9,9,9h17c8-1,14-4,18-11,1-3,3-5,5-8,0-1,1-3,3-2,3,1,2,3,2,4-2,7-4,14-7,20-1,2-4,2-7,3ZM146,587h10c3,0,5-2,3-5-4-11-7-20-13-26-2,3-6,11-13,26-2,3,0,4,3,5Zm87-31h0c0,5-1,10,0,15,0,3,2,6,4,6,6,2,11,1,16-3,6-6,6-12,6-19,0-13-9-20-21-19-4,0-6,1-5,5Zm-30,68c-34,0-40,0-41-2,0-2,3-3,4-4,2-2,4-5,4-7-1-5-3-10-6-16,0-1-3-1-5-1-9-1-17,0-25-1-4,0-6,2-8,6-1,3-3,7-4,10-2,4-1,7,4,9,2,1,9,5-1,6a147.687,147.687,0,0,1-21-1c-2,0-3-1-4-1,5-9,10-6,17-23,5-14,12-28,18-42,3-6,6-13,9-20,1-3,5-7,8-7,1,0,4,3,5,5,9,23,18,46,28,68,2,7,6,14,14,15,9,2,18,0,17-12-1-19,0-39,0-59,0-8,0-8-9-12-1,0-2-2-3-3,2-1,2-2,4-3h39c13,1,23,6,29,18,6,14-4,34-19,36-6,1-12,1-19,1-4,1-6,2-6,6a127.506,127.506,0,0,1,1,19c0,5,2,8,7,9,2,0,3,2,4,3a7.581,7.581,0,0,1-4,2C227,624,215,624,203,624Zm648-68v11c-1,4,1,6,5,5a26.072,26.072,0,0,0,11-3c8-3,10-6,10-17,0-8-4-12-11-15-9-2-15,0-15,11Zm98,0h0v15c1,2,2,5,4,5,9,4,19-3,21-13V553c-1-11-10-17-20-16-3,0-5,1-5,5Zm-26,68H892c-4,0-6-1-8-5-6-10-13-18-20-27a21.774,21.774,0,0,0-5-8c-2-1-4-2-6-2-1,0-2,3-2,5v22c0,5,2,8,7,8a21.813,21.813,0,0,1,5,4c-2,1-4,3-6,3H825c-2,0-3-2-5-3,2-1,3-4,5-4,6,0,8-4,8-10V547c0-7-2-9-9-11-8-2-2-8,2-8h31c6,0,11,0,16,1,6,2,13,5,17,9,12,9,9,32-9,38-4,1-5,4-2,7,5,8,11,16,17,24,7,7,15,13,26,11,7-2,8-3,8-11V544c0-4-1-7-7-8-7,0-5-8,1-8h41c11,1,20,7,27,16,0,1,1,3,1,5v11a24.757,24.757,0,0,1-25,25,66.02,66.02,0,0,1-14,1c-4,0-5,1-5,4v18c0,5,2,8,8,9,2,0,3,3,5,4-2,1-3,2-5,3H923ZM701,432h0v38c0,5,2,8,7,9,7,2,13,1,19,0,4-1,6-4,6-8,1-26,1-52,1-78,0-4-3-7-8-7-5-1-11-2-16-1-7,2-9,3-9,10Zm17-53h51c2,0,4-1,5,0,1,0,3,1,3,2s-1,3-2,3c-2,1-3,1-5,2-5,0-7,3-7,8v77c0,5,2,8,8,8,2,1,5,3,5,4,1,4-3,5-6,5H728c-20-1-39,1-59,0h-4c-3,0-7,0-7-4-1-5,3-5,6-5,5-1,7-3,7-8V439c1-3-1-5-4-5-8,0-16,1-24,0a4.724,4.724,0,0,0-5,5v32c0,5,3,8,8,8,3,0,7,1,6,5,0,1-4,3-7,4H601c-1,0-3-1-4-1a5.359,5.359,0,0,1-3-4c0-1,2-2,3-3s3-1,5-1c4-1,7-3,7-8V394c0-7-4-8-12-9-1,0-3-1-3-4,0-2,3-2,4-2h50a5.2,5.2,0,0,1,4,2c-2,3-3,4-6,5-5,0-8,3-8,8v27c0,4,2,5,5,5h23c4,0,6-2,5-6,0-8,1-17,0-26,0-6-1-8-8-9-6-1-7-5-2-6,2-1,4,0,6,0ZM407,407h0v19c0,1,2,4,3,4,11,2,20-4,23-15,2-5,0-10,0-15-1-10-13-16-24-14-1,0-2,2-2,4Zm-23-28h54c4,0,9,2,12,4,8,5,13,13,15,22,2,13-9,23-19,28-4,2-5,3-2,6,7,10,13,20,20,29,4,4,9,8,13,12,1,1,3,3,3,4-1,1-3,3-4,3H446c-2,0-4-2-5-3-9-14-19-28-28-41-1-2-3-2-5-3,0,1-1,3-1,4v25c0,7,2,9,8,10,2,1,4,3,6,5-2,1-4,3-6,3a368.448,368.448,0,0,1-47,0c-2,0-4-2-6-4,2-1,4-3,7-4,6-1,9-4,8-10V399c0-12-4-17-17-15-11,2-15,3-14,16,0,19,0,38-1,57-1,13-9,21-20,27-13,6-26,4-39,2-9-2-24-15-24-27,0-21,0-41-1-61,0-2,1-4,0-6a17.236,17.236,0,0,0-6-6c-5-2-11-3-17-1s-8,3-8,10v74c0,7,2,9,8,10a3.674,3.674,0,0,1,3,1c2,0,3,2,4,3-1,1-2,3-4,4-1,1-3,1-5,1H194c-1,0-3,0-4-1s-4-2-4-4c0-1,3-3,4-4,10-3,10-2,10-13V440c0-4-1-6-5-6a88.449,88.449,0,0,1-23,0c-3,0-5,2-5,6v30c0,6,2,8,8,9,3,0,7,1,6,5a31.12,31.12,0,0,1-6,4H130c-2,0-4-1-5-1-3-2-3-5,0-7,2,0,3-1,5-1,5-1,8-3,8-8V394c0-5-3-8-8-8-1-1-3-1-4-1-1-1-2-3-3-4a7.581,7.581,0,0,1,4-2h23c8,0,17-1,26,0,2,0,3,1,5,2a7.808,7.808,0,0,1-4,4c-10,3-10,3-10,13v23c0,3,1,5,5,5h23c4,0,5-2,5-5V394c0-5-2-8-8-9-1,0-3,0-4-1-1,0-2-2-2-3,1-1,2-2,3-2,1-1,2,0,3,0H300c2,0,3,1,5,2-1,2-3,4-5,4-8,2-8,2-8,10,0,22,0,44-1,65,0,15,17,23,29,17,9-5,14-12,14-23,0-19,0-38,1-57,0-8-2-10-10-12-2,0-3-2-4-4a7.638,7.638,0,0,1,5-2Z"/></svg>