<svg xmlns="http://www.w3.org/2000/svg" viewBox="0 0 1000 1000"><path d="M893.336,470.54c-11.975-11.754-22.5-23.259-34.255-33.347C822.31,405.576,781.4,380.082,738.4,357.848A1083.822,1083.822,0,0,0,575.9,289.331c-44.344-14.426-88.971-28.29-134.132-39.819A1353.922,1353.922,0,0,0,246.39,213.871c-16.376-1.7-32.781-3.118-49.179-4.595-10.832-.973-13.12-3.949-10.3-14.413,14.853-54.883,29.916-109.711,44.553-164.652,2.482-9.315,7.432-13.068,16.849-12.049,31.961,3.466,64.212,5.153,95.853,10.483,53.276,8.971,106.6,18.387,159.115,30.952A1330.125,1330.125,0,0,1,699.773,124.46c65.961,27.151,128.848,59.891,186.022,102.66,34.123,25.521,64.381,55.132,83.042,94.525,10.72,22.635,11.27,46.041,4.964,69.974-15.763,59.842-30.77,119.888-47.334,179.506a125.794,125.794,0,0,1-45.193,65.912c-37.1,29.108-79.8,45.374-125.544,52.948-35.5,5.866-71.592,8.113-107.421,12.013-43.187,4.707-86.218-.273-129.25-2.605-23.452-1.271-46.784-4.7-70.173-7.126-6.79-.7-8.2-3.758-6.325-10.416C453.519,643,464.122,604.04,474.7,565.081c5.434-20,10.573-40.087,16.275-61.774-11.426-1.462-21.709-3.258-32.068-4.018-33.62-2.46-67.216-5.333-100.877-6.527-25.443-.9-50.991-.027-76.447,1.077-21.115.918-42.157,3.46-63.25,5.035A371.363,371.363,0,0,0,120,520.087c-7.653,2.734-15.269,5.566-24.931,9.092,4.084,5.313,6.721,9.4,9.993,12.9,29.247,31.239,63.9,55.624,100.328,77.436C280.161,664.286,360.41,696.835,443,723.862a1420.016,1420.016,0,0,0,182.074,46.555c46.607,8.665,93.864,13.842,140.851,20.418,8.919,1.249,17.925,1.987,26.912,2.611,10.9.751,12.661,2.558,9.922,12.961-6.1,23.149-12.537,46.194-18.786,69.313-8.7,32.185-17.461,64.357-25.989,96.586-3.3,12.475-6.423,14.708-18.936,13.341-33.5-3.651-67.088-6.513-100.5-10.8-22.908-2.936-45.693-7.173-68.334-11.822-29.537-6.068-59.01-12.552-88.247-19.907q-41.612-10.473-82.651-23.179a1184.812,1184.812,0,0,1-200.082-81.977c-47.356-24.838-92.741-52.991-131.218-90.613a324.96,324.96,0,0,1-38.565-45.82C6.22,668.359,6.646,632.092,17.607,594.429c10.63-36.5,19.268-73.585,29.458-110.223,6.177-22.219,12.092-44.723,20.891-65.953,13.79-33.281,39.983-55.381,71.264-72.295,39.7-21.465,82.662-31.081,126.735-37.887,53.834-8.315,107.982-8.285,162.089-6.385,36.381,1.277,72.65,5.871,108.96,9.072,8.675.765,10.034,3.171,7.429,12.8q-10.285,38.057-20.724,76.07c-8.291,30.22-16.474,60.472-25.1,90.6-2.129,7.437.292,10.206,7.38,10.887,14.041,1.347,28.031,3.417,42.094,4.28,32.885,2.018,65.786,4.062,98.712,5.054,45.946,1.383,91.593-2.353,137.193-8.356a446.5,446.5,0,0,0,96.762-23.873,66.928,66.928,0,0,0,7.462-3.438A48.56,48.56,0,0,0,893.336,470.54Z"/></svg>