<svg id="Layer_1" data-name="Layer 1" xmlns="http://www.w3.org/2000/svg" viewBox="0 0 1000 1000"><path d="M500,0C223.86,0,0,223.86,0,500s223.86,500,500,500,500-223.86,500-500S776.14,0,500,0Zm54.66,847.89V603.32h81.55l15.51-101.21H554.66V436.49c0-27.68,13.56-54.66,57.05-54.66h44.16V295.7s-40.08-6.85-78.34-6.85c-79.95,0-132.22,48.47-132.22,136.18v77.06H356.44v101.2h88.87V847.86C278,821.61,150,676.82,150,502.11c0-193.28,156.71-350,350-350s350,156.72,350,350C850,676.79,722,821.61,554.66,847.89Z"/></svg>