<svg xmlns="http://www.w3.org/2000/svg" viewBox="0 0 1000 1000"><path d="M995.467,393.206c-10.636,16.786-21.345,33.527-31.848,50.4a10.8,10.8,0,0,1-8.7,5.441c-49.584,6.711-99.137,13.66-148.7,20.52q-58.533,8.1-117.083,16.132-64.447,8.817-128.905,17.542c-35.883,4.92-71.744,9.99-107.625,14.916-45.321,6.216-90.661,12.3-135.981,18.529-40.286,5.536-80.55,11.239-120.839,16.756q-71.761,9.843-143.547,19.526c-14.477,1.976-28.936,4.087-43.411,6.106A6.5,6.5,0,0,1,5,578.445c11.851-2.309,23.7-4.659,35.554-6.916q73.528-14.005,147.062-27.958,77.98-14.8,155.964-29.581Q426.466,498.2,509.322,482.3q77.268-14.712,154.557-29.326,65.8-12.514,131.591-25.113,98.1-18.655,196.217-37.23a33.023,33.023,0,0,1,3.77-.288Z"/><path d="M950.734,473.538q-5.721,8.991-11.443,17.967c-6.5,10.178-13.065,20.321-19.489,30.55a7.561,7.561,0,0,1-6.571,3.87q-38.751,2.341-77.49,4.9-42.775,2.8-85.545,5.722-42.058,2.838-84.114,5.721l-83.634,5.721q-42.3,2.883-84.595,5.748-41.58,2.831-83.164,5.681c-30.409,2.121-60.81,4.372-91.223,6.448-21.386,1.459-42.792,2.63-64.178,4.087-25.182,1.721-50.352,3.635-75.532,5.417a85.583,85.583,0,0,1-15.683-.078L949.941,472.6Z"/><path d="M908.6,547.818c-.927,1.941-1.528,3.531-2.395,4.955-6.113,10.053-12.378,20.024-18.375,30.135a8,8,0,0,1-7.724,4.309c-35.452.215-70.9.581-106.354.877q-60.572.508-121.144.981-50.792.435-101.581.94l-104.924.968q-50.076.462-100.152.94c-16.527.176-33.052.517-49.576.775-1.674.026-3.347,0-5.021,0l-.042-1.089c6.906-.6,13.8-1.3,20.719-1.782,20.125-1.412,40.254-2.667,60.381-4.118,23.921-1.726,47.829-3.635,71.748-5.38,15.529-1.134,31.059-2.066,46.588-3.181,19.96-1.431,39.913-2.977,59.87-4.443,14.416-1.056,28.838-2.043,43.254-3.1q30.891-2.249,61.778-4.516c14.735-1.063,29.476-2.06,44.21-3.116,20.912-1.5,41.819-3.051,62.731-4.536,15.21-1.079,30.429-2.044,45.64-3.143,20.278-1.451,40.548-3.006,60.826-4.44,12.044-.852,24.1-1.57,36.147-2.317A27.566,27.566,0,0,1,908.6,547.818Z"/></svg>