<svg id="Layer_1" data-name="Layer 1" xmlns="http://www.w3.org/2000/svg" viewBox="0 0 1000 1000"><path d="M597.87,716H556.39s-13.26-1.93-15.73-12.55V603.7l-40.86.67v111S501.67,743,540.66,753H641.28V604.37H597.87Z"/><path d="M438.76,599.33H392.24s-46.57,3.78-62.89,56.44c-5.65,35.13,5,55.77,6.89,60.22s17,30.09,54.74,37.57h87.44V542.89l-39.63-.61ZM438.12,719H402.91s-24.52-1.25-32.08-29.4c-3.77-12.56.62-27,2.57-32.61s10-18.79,27-23.85l37.73,0Z"/><path d="M500,0C223.86,0,0,223.86,0,500s223.86,500,500,500,500-223.86,500-500S776.14,0,500,0Zm30.85,293.52c3.77-34.38,42.64-86,76.54-85.66h0a30.88,30.88,0,0,1,6.7.77c35.13,8,67.18,54.46,60.7,94.42s-38.26,92.89-87.94,86.46S526,338.37,530.85,293.52Zm-104-100.93c37.16,0,67.18,42.61,67.21,95.27s-30,95.35-67.18,95.35-67.21-42.63-67.21-95.35S389.75,192.59,426.86,192.59ZM217.25,418.32s8-78.39,62.4-83.27c1.33-.1,2.67-.17,4-.2,41.22-.6,71.21,44.51,74.43,70.67,2,17.53,11.15,97.69-56.11,112.11C234.88,532.05,209.87,454.56,217.25,418.32ZM729.36,756.21c-36.81,86.45-171.3,41.53-171.3,41.53s-49.6-15.88-107.17-3.16-107.2,8-107.2,8-67.31,1.64-86.48-83.2S324.39,588,330.82,580.06s51.24-38.43,80-86.44c15.8-26.26,48.8-49.68,85.4-50,30.33-.29,63.12,15.21,90.67,58C631.75,565.64,708.59,624.9,708.59,624.9S766.11,669.75,729.36,756.21Zm-11.23-197c-73.69,1.62-76.8-49.66-76.8-86.41,0-38.47,7.94-92.93,67.26-92.93s75.15,57.7,75.15,76.84S791.81,557.62,718.13,559.24Z"/></svg>