<svg id="Layer_1" data-name="Layer 1" xmlns="http://www.w3.org/2000/svg" viewBox="0 0 1000 1000"><path d="M416.08,629.64c-2.71,24.47,14.54,49.48,41.54,52.06C462.94,656.12,440.65,628.18,416.08,629.64Z"/><path d="M500,0C223.86,0,0,223.86,0,500s223.86,500,500,500,500-223.86,500-500S776.14,0,500,0Zm36.4,411.07c2.18,0,4.44-.4,6.51.06,31.26,6.93,58.74,21.15,82.14,43.1,32,30,51,67.16,56.77,110.36,8.08,60.83-7.66,115.33-49.38,160.79-29.83,32.51-67.48,51.29-111.19,58.24-27,4.31-53,.22-78.67-7.48-3.38-1-6.47-3-9.7-4.51l.58-2.63c7.25-.58,14.5-1.7,21.74-1.64,39.79.28,76-11.37,108.23-34.15,41.22-29.15,68-68.38,75.74-119,9.37-60.94-8.44-113.55-50.58-158.13a221.29,221.29,0,0,0-44-36c-3.21-2-6-4.68-9-7.05Zm-64,270c0,5.43.05,10.85,0,16.28,0,2.95-1.42,5-4.6,4.08-17-4.84-34.81-8.12-47.85-21.57-11.5-11.88-19-25.65-19-42.82,0-7.13-1-14.27-.95-21.41,0-6.72,1.32-7.58,7.43-5.8,9.23,2.67,18.51,5.2,27.6,8.29,21.36,7.27,36.81,28.62,37.3,51.11.08,3.94,0,7.89,0,11.84Zm70.38-97.29c13.38-6.66,27.22-12.4,42-19.07,1.11,5.14,2.62,9.32,2.84,13.57.86,16.23,2.24,32.52,1.63,48.72-.58,15.41-9.67,27.68-19.34,39a66.74,66.74,0,0,1-26.32,18.57c-13.17,5.3-26.31,10.7-40.66,16.54-.78-6.87-1.75-12.86-2.09-18.88-1.14-19.69-3-39.56,5.39-58.27C514,606.67,525.51,592.35,542.76,583.78Zm-41.11-54c3.05,10.94,3.65,21.7.55,32.77-4.88,17.41-16.27,31.27-24.53,48.39-4.08-4.19-7.5-7.3-10.45-10.81C458,589.14,448.14,578.71,443,564.94c-6.43-17.2-7.09-34.17,1.18-51,5.86-11.89,11.7-23.78,18.32-37.23C476.52,495.1,495.45,507.47,501.65,529.73ZM709,669.33a24.09,24.09,0,0,0-1,3.53c-6.41,52.38-29.47,96-68.75,131-22.5,20.07-47.78,35.58-76.8,44.22-14.1,4.2-28.53,7.28-42.81,10.87H472.29c-11.91-3-24.07-5.32-35.68-9.24C377,829.66,335.79,789.11,310.78,732.15c-25.12-57.19-26.26-115.64-5.71-174.67,14.85-42.67,36.52-81.93,58.57-121.1,25.3-44.93,50.35-90,74.57-135.53a249.44,249.44,0,0,0,27-81.91c3.42-23.79,2.11-47.27-7.37-69.79-7.7-18.31-21.46-31-37.86-41.31-2.8-1.75-5.45-3.73-8.16-5.61l.65-1.92c2.44.3,5,.21,7.28,1,28.37,9.12,48.64,27.85,61.2,54.43,11.56,24.45,13.3,50.71,11.7,77.48-2.78,46.55-19.35,89-38.63,130.47-17.05,36.69-35.33,72.81-53.17,109.13-17.08,34.77-35,69.19-46,106.56C338.72,634.17,343.47,687,373,736.28c24.88,41.48,61.2,68.64,109.44,75.87,56.91,8.54,107.94-6.9,152.09-44.08,31.26-26.33,52.27-59.4,63.74-98.62,1.79-6.15,3.57-12.33,5.84-18.32,1-2.57,3.2-4.67,4.86-7Z"/></svg>