<svg xmlns="http://www.w3.org/2000/svg" viewBox="0 0 1000 1000"><path d="M142.886,402.775l-12.73-7.818c14.03-4.148,40.116-4.372,57.191-.445l-14.425,10.069v32.292h30.6v-34.3l-12.56-7.143c2.571-1.772,3.806-3.364,5.055-3.374,27.373-.224,54.749-.275,82.124-.352,7.146-.02,14.3-.229,21.434.087,2.538.113,5.017,1.526,10.87,3.439l-16.236,7.382c0,23.46-.337,47.206.135,70.936.257,12.876,10.014,16.15,21.182,18.2l15.4-10.079c8.24-26.086,4.379-51.651,5.4-77.123l-16.33-10c6.486-1.47,9.611-2.781,12.742-2.795,30.959-.139,61.918.03,92.877-.1,11.341-.047,20.9,3.377,28.686,11.9,10.559,11.556,10.061,25.672-2.04,35.823-3.969,3.33-8.809,5.621-14.253,9.011l36.673,46.188c-16.191,9.3-31.252,6.8-41.139-7.308-8.413-12-16.557-24.194-27.411-35.3v34.063l11.743,8.189c-.4,1.249-.57,3.148-1.1,3.253-17.52,3.493-34.962,2.266-53.405-2.57l12.552-7.928c.425-27.435.423-56.251-.065-86.052H348.692c-.527,7.191-1.224,12.923-1.311,18.665-.189,12.5.594,25.058-.238,37.51-1.064,15.923-5.23,30.209-21.972,37.789-16.928,7.663-32.089,5.264-47.212-4.349-8.944-5.685-12.962-13.51-12.982-23.8-.031-16.676,0-33.353-.18-50.027-.049-4.636-.731-9.264-1.077-13.358-9.631-6.733-18.412-6.32-29.084-.129-.284,4.649-.9,10.4-.941,16.152-.135,17.27.371,34.556-.2,51.809-.376,11.466,1.854,20.278,17.371,21.662-10.011,10.192-20.418,5.956-29.533,6.289-9.636.353-19.827,2.2-31.681-3.539l14.838-8.4c0-7.563.088-15.231-.031-22.9-.082-5.247-.453-10.488-.743-16.755H174.032v37.626l11.786,9.632c-10.644,6.113-40.108,6.454-55.644.091l12.712-7.323ZM426.012,439.36c8.186-13.319,7.841-24.2.315-34.042-5.378-7.029-12.922-7.136-19.949-3.609V442.9Z"/><path d="M644.538,396.513l-14.27,6.936c0,5.3-.091,11.111.027,16.917.106,5.262.44,10.519.721,16.85H660.67v-33.99l-12.323-6.7c1.555-1.79,2.416-3.729,3.682-4.044a37.041,37.041,0,0,1,8.83-.8c29.767-.041,59.535-.075,89.3.074,3.8.019,7.588,1.1,14.867,2.224-5.9,4.122-8.968,6.269-12.651,8.842V489.8c6.737.631,12.925,1.909,19.03,1.593,6.695-.346,11.161-4.722,11.225-11.621.235-25.489.093-50.981.093-76.663l-16.294-6.168c10.481-6.326,41.075-7.32,61.156-1.836l-16.156,7.753V484.92c9.54,7.776,21.21,10.2,30.038,2.735,8.22-6.956,13.78-17.053,21.4-26.916,7.484,12.549-2.332,23.613-1.063,35.725-14.66,5.412-29.042,2.335-43.058,2.825-14.276.5-28.858,1.748-42.8-.476-14.38-2.293-28.08,1.507-42.187.944-13.993-.558-27.948-2.313-42.224-.851-13.673,1.4-28.038,2.227-45.79-2.679l15.3-8.578V447.7H631.907c-3.572,12.978-.9,26.389-1.3,39.862l11.5,6.1c-.357,1.134-.45,2.881-1.031,3.061-17.342,5.394-34.548,1.78-51.825,2.009l-.9-4.269,11.787-6.859V403.654l-13.345-7.88c10.083-3.871,39.59-5.8,51.916-3.629C640.485,392.459,641.959,394.517,644.538,396.513Zm77.9,89.224c0-14.175.349-27.862-.1-41.522-.459-14.06,2.2-28.362-1.825-41.556-9.931-5.8-18.722-6.1-27.248.035-3.749,18.067-3.1,73.815,1.169,87.088C703.464,493.093,712.4,493.624,722.435,485.737Z"/><path d="M931.307,593.736v26.641l13.817,7.708c-3.3,1.823-5.1,3.678-6.926,3.7-21.42.2-42.843.13-63.94.13-14.994-12.163-21.025-31.422-37.341-45.355V619.9l12.6,9.513c-15.992,4.3-29.113,3.065-45.165,1.145,3.632-3.345,5.137-5.507,7.2-6.492,6.569-3.131,7.279-8.993,7.326-15,.146-19.034.054-38.069.054-57.683L805.649,542.3c2.074-1.58,3.317-3.347,4.6-3.381,14.279-.372,28.575-.874,42.847-.54,14,.328,24.605,8.245,27.048,19.016,2.852,12.575-1.12,19.454-16.153,28.055a40.484,40.484,0,0,0-3.312,2.452c6.193,8.656,12.024,17.619,18.691,25.91,7.813,9.716,18.088,12.984,31.322,8.89,3.674-11.768,1.287-24.271,1.7-36.525.4-11.887.087-23.8.087-35.8l-11.172-8.845c12.87-3.669,44.164-4.482,52.335-1.8,14.038,4.608,21.453,15.62,20.053,29.779-1.458,14.73-9.964,22.324-26.363,23.445C942.634,593.272,937.92,593.418,931.307,593.736Zm.294-46.467V583.08c16.759,1.444,22.567-2.2,23.448-13.991C956.176,554.015,949.837,547.68,931.6,547.269Zm-95.13,33.39c10.793.974,18.792-1.914,23.477-11.953,3.22-6.9,1.735-13.156-3.5-17.722-6.174-5.385-13.369-7.217-19.976-1.3Z"/><path d="M158.5,536.052c15.28,29.821,23.1,59.691,38.485,87.257h22.1c5.315-12.7,2.4-24.7,2.9-36.362.5-11.839.112-23.716.112-35.479l-15.636-12.646c18.05,0,32.22-.628,46.311.162,16.739.939,27.677,13.569,26.881,29.487-.673,13.428-12.125,23.293-27.9,24.066-4.11.2-8.216.485-13.726.814V621.38l11.387,9.12H167.8c11.393-10.664,8.1-20.038,1.231-29.881H137.688c-7.584,9.191-12.5,17.95-1.314,28.8-9.581,3.579-18,2.487-28.54.935,24.065-23.316,27.55-55.407,42.661-81.691C152.392,545.361,154.571,542.222,158.5,536.052Zm79.408,11.576v35.953c9.455,3.24,16.482,1.92,21.546-5.479,3.674-5.368,3.293-20.333-.529-25.5C253.554,545.341,246.538,544.654,237.911,547.628Zm-70.338,47.246-13.586-31.85c-7.048,11.314-11.672,20.324-12.773,31.85Z"/><path d="M586.743,606.488c-3.217,8.02-6.434,16.039-9.778,24.373h-111.7L474.5,619.72l-7.461-19H433.251l-8.4,18.964,11.072,8.34c-10.668,5.547-20,4.159-32.725,1.477,19.294-12.777,22.111-32.334,30-49.11,6.475-13.771,12.947-27.542,20.81-44.27,3.976,6.089,6.574,8.988,7.968,12.382,8.118,19.752,15.828,39.671,23.964,59.415,2.221,5.391,5.433,10.373,8.153,15.47H515.7c5.773-12.546,2.594-24.578,3.135-36.212.55-11.836.121-23.717.121-35.644l-14.309-11.441c15.688-2.111,28.629-1.263,41.585-.938l.617,3.874L534.6,549.9v73.182c10.438,2.309,21.108,3.94,29.957-.314,7.748-3.724,13.365-11.883,19.922-18.083Zm-149.888-11.97h28.456c-5.242-11.088-9.6-20.311-15.393-32.559C444.794,574.732,441.132,583.859,436.855,594.518Z"/><path d="M882.989,402.146l-11.929-4.9c.605-1.8.94-3.741,1.307-3.747q27.3-.457,54.611-.48c.533,0,1.067,1.784,2.277,3.945l-15.372,5.758c-.247,6.3-.677,12.664-.712,19.035-.1,17.813-.277,35.632.053,53.44.236,12.712,3.653,15.853,15.769,16.238,14.788.469,22.7-4.588,28.837-18.852,2-4.652,1.887-10.834,10.029-11.1,5.01,12.043-3.2,22.729-2.591,33.7-14.087,5.6-78.942,5.882-95.05.034l12.771-7.639Z"/><path d="M111.082,398.736l6.992-5.308c5.85,2.093,6.067,18.818.579,35.27-2.207-4.1-3.77-6.765-5.114-9.537-6.046-12.463-19-20.525-31.229-19.356S56.818,411.682,55.326,424.82a157.826,157.826,0,0,0,.52,40.832c3.213,21.379,25.158,33.321,46.09,18.869,3.415-2.358,6.264-5.578,9.787-7.721,2.2-1.339,5.175-1.406,8.346-2.176-3.822,18.258-30.553,29.246-54.139,23.411-33.073-8.181-51.382-36.1-42.769-64.754C33.193,399.9,69.966,380.028,111.082,398.736Z"/><path d="M566.861,399.776c3.624-2.593,5.918-4.233,8.146-5.826,6.658,3.136,6.74,19.338-.26,33.49-2.921-4.989-5.247-9.556-8.114-13.754-13.625-19.959-41.262-17.741-51.357,2.128-9.524,18.746-9.4,38.193-1.4,56.9,7.732,18.073,25.927,22.847,43.11,12.868,5.51-3.2,10.535-7.233,16.078-11.091,5.136,5.314,3.529,9.9-.9,12.226-8.888,4.664-18.035,9.734-27.687,11.874-28.7,6.363-62.064-16.081-67.332-44.884-3.7-20.257,11.164-47.423,32.413-56.547C528.629,388.965,547.665,388.667,566.861,399.776Z"/><path d="M756.367,538.191c25.927-.028,45.472,19.849,45.658,46.434s-20.487,47.6-46.789,47.585c-26.538-.018-46.879-20.7-46.737-47.528C708.638,558.366,729.382,538.22,756.367,538.191ZM728.6,584.628l1.5.291c0,3.548-.186,7.108.032,10.643.993,16.114,10.707,27.613,23.86,28.409,12.713.77,27.116-11.943,28.748-26.5,1.318-11.749.953-23.511-3.6-34.9-3.928-9.834-10.616-15.626-21.121-16.1-10.981-.5-20.122,3.876-24.183,14.356C730.932,568.308,730.263,576.661,728.6,584.628Z"/><path d="M700.54,572.576c-5.1-6.785-7.836-10.4-10.541-14.036-13.205-17.757-36-16.1-46.455,3.311-7.179,13.329-8.433,27.191-2.761,41.149,9.234,22.721,31.514,27.973,50.386,12.251,2.68-2.233,5.189-4.67,8.6-7.758,3.633,8.487-2.1,12.069-6.108,15.525-3.953,3.406-8.714,7.056-13.613,7.975-19.661,3.688-37.509,1.3-51.409-15.859-12.436-15.353-12.63-31.68-5.632-48.411,8.134-19.446,23.462-29.437,44.886-28.435,10.4.486,20.762,2.01,32.647,3.217Z"/><path d="M99.948,610.565c-20.232,29.739-57.872,27.484-73.942-3.62-13.093-25.34,1.189-65.28,39.1-67.907,11.38-.789,23.01,2.029,35.018,3.245.857,7.858,1.723,15.8,2.609,23.917-10.387,0-7.576-10.222-14.66-15.186,1.07.726.163-.088-.894-.578-29.832-13.82-50.765,5.616-47.432,32.459a55.564,55.564,0,0,1,.038,8.9c-.488,12.85,3.245,23.74,15.578,29.479,12.779,5.948,25.3,5.249,36.639-4.015C94.685,615.07,97.3,612.8,99.948,610.565Z"/><path d="M410.529,538.772c1.171,7.452,2.036,12.959,3.206,20.409-13.362-14.041-13.425-14.062-33.138-11.543-.227,10.174-.526,20.69-.674,31.208-.11,7.739.176,15.487-.069,23.219-.347,10.96-.027,21.447,17.384,26.266-16.659,5.417-28.638,2.453-44.915,3.436l12.051-10.729v-72.91c-18.153-3.259-18.153-3.259-27.3,10-.239-3.895-.6-6.8-.536-9.7a66.152,66.152,0,0,1,1.059-7.557c11.672-4.076,23.6-1.636,35.269-2.014C384.735,538.472,396.623,538.772,410.529,538.772Z"/><path d="M287.977,627.019l12.332-6.392c.152-11.1.374-22.807.454-34.514.08-11.808.017-23.617.017-35.3L288.1,543.255c.724-1.429,1.2-3.229,1.7-3.236,11.559-.159,23.12-.122,38.609-.122l-12.547,9.559v71.325l12.446,9.78H288.527Z"/></svg>