<svg xmlns="http://www.w3.org/2000/svg" viewBox="0 0 1000 1000"><path d="M860.039,632.846a692.406,692.406,0,0,1,68.946,115.392c-45.34,3.361-89.708,3.1-135.358-2.228A696.726,696.726,0,0,1,819.3,878.865a695.834,695.834,0,0,1-126.359-48.148,687.568,687.568,0,0,1-21.49,133.4,670.907,670.907,0,0,1-102.079-88.5c-18.122,41.845-40.1,80.5-65.813,118.382A699.193,699.193,0,0,1,437.7,875.621a676.261,676.261,0,0,1-102.924,89.033c-4.558-22.975-9.47-44.547-12.983-66.343-3.523-21.861-5.651-43.947-8.531-67.068A717.046,717.046,0,0,1,187.8,878.9,678.042,678.042,0,0,1,213.42,746.075a718.059,718.059,0,0,1-135.292,2.2,691.172,691.172,0,0,1,69.357-116.219C103.169,621.6,61.339,606.68,19.645,587.907a695.452,695.452,0,0,1,105.062-85.34A700.188,700.188,0,0,1,19.726,417.315,685.094,685.094,0,0,1,147.52,373.029,701.7,701.7,0,0,1,78.067,257.006a653.393,653.393,0,0,1,135.312,2.131,695.425,695.425,0,0,1-25.661-132.846,694.09,694.09,0,0,1,126.36,48.147A690.574,690.574,0,0,1,335.551,41.056a684.145,684.145,0,0,1,102.176,88.313A715.375,715.375,0,0,1,503.486,11.091a703.735,703.735,0,0,1,65.787,118.352A682.971,682.971,0,0,1,671.441,41.049a673.743,673.743,0,0,1,21.4,133.359A706.739,706.739,0,0,1,819.288,126.17a679.946,679.946,0,0,1-25.764,132.992A665.331,665.331,0,0,1,928.93,256.9a685.3,685.3,0,0,1-69.485,116.087A693.362,693.362,0,0,1,987.2,417.214a672.443,672.443,0,0,1-104.951,85.315c38.087,25.056,72.325,53.313,105.754,85.914-21.886,8.508-42.41,17.179-63.415,24.458C903.517,620.2,881.973,626.131,860.039,632.846Zm-356.58-24.455c7.133,29.762,16.328,58.446,33.6,84.018,7.561-30.1,6.634-60.141,2.122-92.15,17.206,27.616,36.563,50.795,61.024,69.667-3.837-31.552-15.211-60.337-30.856-88.94,25.352,20.634,51.832,36.266,81.978,45.5a245.316,245.316,0,0,0-56.706-70.661c15.875,3.658,30.431,7.457,45.17,10.285a172.451,172.451,0,0,0,45.139,2.6c-22.941-21.018-48.96-36.431-77.6-47.943,30.8-.976,60.492-6.259,88.834-18.206-28.041-12.056-57.264-16.749-87.13-18.732,27.734-12.153,53.724-26.407,75.707-47.543-30.6-1.147-60.062,4.191-89.285,13.09a246.326,246.326,0,0,0,55.564-71.208,279.914,279.914,0,0,0-40.738,17.957c-13,7.245-25.142,16.01-38.988,24.967,14.232-28.015,25.775-55.474,28.694-85.9-24.675,18.84-43.592,42.456-60.328,68.169,4.338-30.41,4.677-60.519-2.691-90.591-17.046,25.818-26.515,54.423-33.513,84.1-6.659-30.064-16.381-58.552-33.583-84.209-6.934,30.134-7.11,60.165-2.59,90.522-16.913-25.621-35.484-49.567-60.521-67.817,4.105,30.629,14.42,58.87,28.766,85.939-24.54-18.218-50.254-33.815-79.784-42.755,13.983,27.2,33.226,50.085,55.588,70.733-29.2-8.732-58.5-14.3-89.062-12.917,22.026,21.033,48.085,35.32,75.65,47.577-30.131,1.925-59.408,6.526-87.284,18.695a242.3,242.3,0,0,0,89.793,17.945c-28.927,11.522-55.318,26.925-78.36,48.193,30.58,1.065,60.1-3.795,89.665-13.793-11,11.885-21.564,22.569-31.269,33.985-9.745,11.462-18.806,23.542-24.535,37.834,29.818-9.534,56.157-24.843,80.4-44.24-14.668,27.524-25.644,56.122-29.547,87.333,24.892-18.456,43.643-42.172,60.483-67.879-4.212,30.314-4.673,60.365,2.018,91.719a31.424,31.424,0,0,0,3.272-3.493C487.625,664.818,496.931,637.207,503.459,608.391Z"/></svg>