<svg id="Layer_1" data-name="Layer 1" xmlns="http://www.w3.org/2000/svg" viewBox="0 0 1000 1000"><path d="M263.66,319c6,3.15,9.18-.63,12.67-4.36,6.87-7.36,7-7.48,16.93-2.68,4.23,2,7.25,1.62,9.75-2.39,1.22-1.94,2.55-3.82,3.92-5.67,5.26-7.12,5.53-7.17,13.92-3,9.44,4.73,24.37-4.22,24.42-15.72-.52-1.54-1.29-4.08-2.23-6.57-3.1-8.24-6.21-16.49-9.43-24.69a57.69,57.69,0,0,0-4.32-9.38c-3.26-5.28-7.25-5.36-10.67-.26a63.56,63.56,0,0,0-4.09,8.22c-5.13,10.7-10.09,21.49-15.39,32.1-5.44,10.88-8.94,11.33-17.94,2.75-3.6-3.44-6.89-7.26-10.77-10.35-4.84-3.85-8.69-3.11-11,2.47a158.33,158.33,0,0,0-7.57,22.84C250.45,308.24,256.22,315.16,263.66,319Z"/><path d="M690,379.22c6.42-2.36,13.29-4.07,19-7.58,13.4-8.17,21.49-20.33,24-38-1.23-1.39-2.83-4.68-5.32-5.63-3.81-1.45-7.59-.07-9,4.61-.54,1.83-1.15,3.64-1.55,5.51-2.32,11-9.47,18.14-18.92,23.15-3.64,1.94-7.94,2.6-11.89,4-5.34,1.89-7.52,5.88-5.78,10.56S686,380.67,690,379.22Z"/><path d="M500,0C223.86,0,0,223.86,0,500s223.86,500,500,500,500-223.86,500-500S776.14,0,500,0ZM626.1,302.13a227.66,227.66,0,0,1,14.09-27.61c12.73-21.82,25.91-43.38,38.85-65.08,4.76-8,8.4-8.17,13-.45,15.62,26.33,31.36,52.61,46.78,79.06,8.26,14.17,12.74,30.63,12.71,43.66-.11,41.87-37.52,71.45-78.66,63.72C633.73,388.09,607.25,347.8,626.1,302.13ZM200.22,381.29Q226.86,315.1,253.86,249c3.34-8.15,7.2-8.78,13.84-2.7,4,3.62,7.51,7.7,11.37,11.43,8.15,7.87,11.28,7.37,16.17-2.42q10.8-21.61,21.57-43.26a3.93,3.93,0,0,1,.54-1c2.79-2.86,5.61-5.7,8.42-8.55,2.64,3.07,5.66,5.88,7.8,9.26,2,3.2,3,7,4.64,10.52Q368.86,288.65,399.56,355c3.54,7.66,7.1,15.31,10.51,23,5.43,12.26,3,16.31-10.27,16.37-31.1.11-62.19,0-93.29,0H216.67c-2.69,0-5.4.15-8.06-.11C199.6,393.41,196.9,389.54,200.22,381.29Zm-15.36,315c.1-4.78,3.15-6.72,7.55-6.8,5.75-.09,11.51,0,17.26,0,5.37,0,10.73,0,16.1,0,4.67,0,7,2.37,7,7.12s-1.54,8.7-6.82,8.83c-11.49.3-23,.34-34.49,0C186.17,705.19,184.76,700.87,184.86,696.27ZM294.63,588.55c0-4.55,1-8.49,6.53-9.06,5.27-.54,9,2.69,9.55,9,.44,5.32.09,10.7.09,16h.05c0,5,.09,9.94,0,14.91-.13,5.66-3.14,8.18-8.8,8.06-5.38-.11-7.44-2.86-7.4-8C294.68,609.2,294.61,598.88,294.63,588.55ZM302,639.13c37.45,1,58.55,30.26,57.71,57.76,0,32.23-25.51,57.29-57.76,57.59-30.8.28-57-25.17-57.5-56.88C243.89,666.62,271.3,638.31,302,639.13Zm61.88-31c-4.87,8.25-9.63,16.57-14.76,24.66-4.22,6.66-6.56,7.29-11.92,4.29s-6-5.62-2.22-12.25c4.69-8.34,9.34-16.74,14.49-24.8,3.66-5.72,8.89-6.63,13.64-2.83,1.6,1.28,2.42,3.54,3.56,5.3C365.55,604.7,364.82,606.47,363.86,608.1Zm30.31,25.22c3.63-2,6.66-.35,8.7,3s4.06,7.61,0,10.23c-10.59,6.78-21.61,12.88-32.48,19.21-.62.36-1.48.32-3.86.79-1.55-1.81-4.48-3.94-5.41-6.75-.77-2.29-.07-6.81,1.57-7.87C372.9,645.32,383.52,639.29,394.17,633.32ZM261.1,638.93c-1.15-1-3.92-2.42-5.37-4.71-5.51-8.7-10.62-17.65-15.82-26.54-2.4-4.1-2.76-7.92,1.9-10.85s8.94-2.37,11.87,2.28c5.69,9,11.31,18.13,16.4,27.52C273.2,632.38,269.32,638.38,261.1,638.93Zm-22,11.76c4.55,2.74,6.62,6.24,3.33,11.36-3.12,4.84-7.07,5.3-11.78,2.54q-13.83-8.13-27.67-16.22c-3.48-2-5.17-5-2.87-8.55,1.9-2.92,4.74-5.23,6.81-7.43a43.3,43.3,0,0,1,4.64,1.86Q225.41,642.43,239.15,650.69ZM206.8,761.85c-1.84-2.07-4.82-4-5.29-6.35-.55-2.85,0-7.67,1.89-9a315,315,0,0,1,28.61-17c4.72-2.51,9-.78,11.27,4.42,2.19,4.91.05,7.85-4.21,10.27-8,4.56-15.8,9.44-23.77,14C213,759.54,210.44,760.32,206.8,761.85Zm63.52,6.09c-4.95,9.09-10.22,18-15.69,26.81-1.47,2.36-4.16,4-5.35,5.07-8.76,0-12.9-6.35-9.45-12.45,5.28-9.35,11-18.45,16.53-27.65,2.54-4.19,5.8-6,10.56-3.3S273.19,762.67,270.32,767.94Zm40.54,21.22h-.08c0,5.76.15,11.51,0,17.26s-3.62,8-9.13,7.79c-5.71-.18-6.93-3.75-6.92-8.5q0-15.53,0-31.07c0-4.83,1.69-8.23,7.12-8.51,5.23-.26,8.54,2.46,8.95,8.08C311.15,779.17,310.86,784.18,310.86,789.16Zm50.8,8.89c-4.44,2.69-7.93,2.15-10.58-2.42-5.57-9.57-11.39-19-16.55-28.8-2.82-5.35,1.73-12,8.61-12.14,1.17.76,3.7,1.54,4.75,3.23,6,9.73,11.91,19.59,17.47,29.59C367.82,792,365.92,795.47,361.66,798.05Zm41.78-42.36c-2,2.19-5.44,4.66-8,4.42-3.52-.35-6.89-3-10.18-4.88-7.26-4.2-14.64-8.25-21.5-13.05-1.78-1.25-3.11-5.5-2.35-7.49,1.2-3.11,4.35-5.47,6.16-7.55,2.35.54,3.18.53,3.81.9,10.54,6.13,21.17,12.12,31.5,18.58C406.47,748.86,405.91,753,403.44,755.69Zm10-50.59q-17.77.46-35.58-.14c-4.37-.15-6.66-3.36-6.52-7.93s2.34-7.35,6.91-7.54c5.74-.24,11.49-.06,17.24-.06v-.08c5.74,0,11.49-.06,17.24,0,4.84.07,6.68,2.93,6.69,7.45C419.38,701.07,418.18,705,413.4,705.1Zm358.84,56.72c-.89,4.71-4.07,6.17-8.32,6.2q-12.67.09-25.36.08H694.77v0c-20.75,0-41.49.18-62.23,0-23.07-.25-40.2-11.12-48.73-32.23-8.1-20.06-4.17-39.59,10.78-55.57a45.86,45.86,0,0,1,19.17-12.15c7.8-2.39,11-6.94,13.56-13.74,5.57-14.84,16-25.41,30.87-30.68,19.68-7,37.8-3.85,53.29,10.88a49.45,49.45,0,0,1,5.64,5.76c3.74,5,8,5.81,14.11,4.22,12.08-3.14,23.83-2.57,32.61,8.09,2.39,2.91,4.74,6.33,5.59,9.88.68,2.78.05,7.25-1.83,9-3.38,3.12-8,2.3-11.4-1.07-1.6-1.59-2.5-3.87-4-5.62a13.81,13.81,0,0,0-21.86.32c-1.18,1.48-1.73,3.5-3,4.9-4.93,5.52-12.47,4-15.63-2.84-2.87-6.19-5.21-13-9.47-18.09-9.5-11.39-22.27-14.76-36.39-10.27-14.47,4.6-22.84,15-25.11,30-1.52,10.11-1.34,10.14-12.31,12.05-17.69,3.07-30.88,16.95-31.56,33.23-.88,21.07,14.41,37.24,36.37,37.54,27.27.37,54.55.08,81.82.09,16.14,0,32.28-.12,48.41.14C770.93,752,773.47,755.33,772.24,761.82Zm22.66-33c-.36,3.94-2.24,6.53-6.27,7a88,88,0,0,1-9.18.28q-50,0-99.93,0c-10.27,0-20.55-.06-30.83,0-5.69,0-8.48-2.49-8.25-8.35s3.58-8.1,8.94-8.11q34.46,0,68.91,0v0c22.2,0,44.41-.13,66.62.07C792.8,719.8,795.46,722.66,794.9,728.87Zm17-24.25a44.41,44.41,0,0,1-10.26.83q-61.6.09-123.21,0c-1.92,0-3.85.09-5.75-.07-7.21-.59-9.27-2.72-9.31-8.86,0-6.54,4.14-7.32,9.21-7.31q34,0,67.93,0h62.18c2.69,0,5.38,0,8.06.14,4,.21,6.48,2.34,6.8,6.38C817.91,700,816.3,703.57,811.93,704.62Zm18-176.37c-.09,14.29-4.38,18.66-18.57,18.69q-61.07.12-122.13,0H571.72a74.17,74.17,0,0,0-9.2.18c-8.07,1-13.13,6.23-13.95,14.4a113.15,113.15,0,0,0-.2,11.51q0,114.63,0,229.27c0,3.46.16,6.93-.1,10.37-.83,10.54-6.21,16.91-16.51,17.17q-31.67.82-63.36,0c-9.77-.24-14.41-5.79-14.67-15.63s-.05-20-.05-29.95V579.24c0-3.07,0-6.15,0-9.22.15-16.75-6.69-23.32-23.79-23.23-78,.41-155.92.18-233.88.18-3.07,0-6.16.12-9.22-.06-10.33-.62-15.89-5.45-16.1-15.7q-.62-31.1.05-62.21c.21-9.71,6.32-15.46,15.95-16.57a100.28,100.28,0,0,1,11.51-.22h227c4.22,0,8.44,0,12.67-.08,7.62-.08,12.37-4.23,14.07-11.25a69.26,69.26,0,0,0,1.7-15.92q.15-116.36.09-232.73c0-17.32,6.5-23.72,23.46-23.21q25.86.76,51.73,1.56c12.81.37,19,6.21,19.45,19,.31,8.44,0,16.89,0,25.34q0,106,0,212c0,3.84-.16,7.7.17,11.51.73,8.64,5.23,13,14.05,13.6,3.82.27,7.68.12,11.52.12l230.42,0c21.81,0,25.4,3.63,25.43,25.34C830,494.46,830.06,511.35,829.94,528.25Z"/></svg>