<svg id="Layer_1" data-name="Layer 1" xmlns="http://www.w3.org/2000/svg" viewBox="0 0 1000 1000"><path d="M500,0C223.86,0,0,223.86,0,500s223.86,500,500,500,500-223.86,500-500S776.14,0,500,0ZM715.76,799.05C577.27,900,382.68,889.79,256.07,777.12,120.7,656.66,107.51,477.84,158.41,362.22c18.07,33.83,49.47,35.57,80.67,37.58,7,.45,14.16.2,21.23,0,6.41-.2,8.69,2.83,9.91,9,4,20.09,8.83,40,13.11,60a132,132,0,0,1,2.59,18c1.12,15.16,8.74,23,23.93,23.22,16.94.23,34.21,2.46,50-6.45.91-.51,2.37-.07,4.4-.07-1.21,9.21-8.59,11.7-14.34,14.39-8.66,4.06-9.13,9-6.65,17.48,10,34,19.73,68,40.14,97.72,2,2.93,2.56,7.26,2.75,11,1.47,28.25,2.67,56.52,4,84.77.56,12.17,6.21,19.16,15.7,19.47s15.34-6.16,16.93-18.44c3.05-23.58,6.29-47.15,9.52-70.72a8.38,8.38,0,0,1,3.72-6.05c2.71,16.9,5.49,33.79,8.1,50.7,1.52,9.85,2.66,19.75,4.18,29.6s8.29,16.13,16.49,15.79,13.78-6.27,14.36-16.34q2.21-38.52,3.61-77.07c.25-6.94,2-10.5,9.83-10.74,42.48-1.3,82.66-11.34,119.74-32.65,1.88-1.09,4-1.7,7.71-3.2.57,5.87,1.68,10.82,1.43,15.71-1.77,34.66-3.79,69.3-5.8,103.95-.69,11.85,3,18.39,11.71,20.09,8.24,1.6,14.63-3.53,18.13-14.73q16.13-51.57,32.2-103.14c.93-3,2.17-5.84,3.9-10.46,2,3.63,3.42,5.6,4.34,7.76C699.77,660.93,709.2,694.5,710.52,730c.33,8.74,3.72,16.83,12.82,18,5.38.7,12.73-2.14,16.7-6,3.19-3.08,3.57-10,3.59-15.28.22-61.45.13-122.89.12-184.34,0-5.47-.18-10.94,0-16.4.22-6.26-2.68-8.38-8.77-8.35q-18.79.09-37.58-.79c-41.15-2-77.33-20.24-114.82-34.63-23.28-8.93-47.28-17.25-71.71-21.6-29.79-5.3-58.74,2.86-86.31,14.95-3,1.33-6.19,2.31-9.29,3.45L413.63,477c2-2.94,3.89-6,6.12-8.8,8.44-10.54,17.37-20.71,25.35-31.59,4.11-5.6,6.95-12.24,9.75-18.67,3.84-8.79,3.34-17-7.31-24,32.3-12.26,43.14-36.87,43.41-67.82-6.41,7-12,14.87-19.27,20.68-22.92,18.36-50.2,20.65-77.88,17.61-14.16-1.56-28.13-5.95-41.83-10.21C328.53,347,306.23,349,283.12,357c-34.78,12.14-70,13.44-103.85-4.27-14.17-7.41-14.71-8.93-7.18-22.69,61.83-113,156-181.7,284.29-195.95,145.74-16.19,261.94,39.27,348.31,157.51C813,303,812.63,303,802.78,313.21c-20.83,21.53-44.2,39.87-75.06,41.55-22.9,1.25-46.18-1.42-69.1-4-34.58-3.94-68.92-8.77-103.41.7-30.3,8.31-57.54,22.06-80.92,43.16-1.62,1.46-4.09,3.52-4,5.13,1.48,19.1-6.85,34.78-18.51,51.4,6.49-1,11.08-1.72,15.64-2.52,25.49-4.45,50.88-3.72,75.28,4.81,26.69,9.32,52.87,20.14,79.14,30.63,55.87,22.32,112.84,29.48,170.38,8.46,21.47-7.84,41-20.91,61.41-31.72,3.56-1.89,6.78-4.4,11.77-7.69,6.95,47.57,3.4,92.69-7.89,137.16C835.56,676.86,787.76,746.58,715.76,799.05Z"/></svg>