<svg id="Layer_1" data-name="Layer 1" xmlns="http://www.w3.org/2000/svg" viewBox="0 0 1000 1000"><path d="M500,0C223.86,0,0,223.86,0,500s223.86,500,500,500,500-223.86,500-500S776.14,0,500,0ZM356.8,494.73q0-40.05,19.74-68.46c13.15-18.87,31.08-33.21,54.2-42.91,21.15-8.9,46.65-15.28,77.36-19.13,10.36-1.22,27.45-2.74,51-4.62v-9.83c0-24.71-2.79-41.4-8-49.82-8-11.42-20.72-17.27-38.25-17.27h-4.84c-12.75,1.23-23.8,5.21-33.1,12.22-9.3,7.18-15.28,16.74-17.94,29.12-1.59,8-5.47,12.36-11.55,13.55l-66.95-8.37c-6.59-1.59-9.89-4.78-9.89-10.36a15.77,15.77,0,0,1,.59-4q9.84-51.42,48.35-76.52c25.93-16.36,55.79-25.9,90.06-27.89H522c43.84,0,78.56,11.53,103.3,34.27,3.58,4,7.17,8,10.76,12.75,3.18,4.38,6,8.34,7.51,12a50.76,50.76,0,0,1,5.19,15.14c1.59,6.75,2.79,11.16,3.58,13.55.8,2.76,1.65,8,2,16.34s.53,13.1.53,14.69V469.44A86.57,86.57,0,0,0,659.25,497c2.79,8.32,5.58,14.35,8.37,17.91l13.54,17.91c2.4,3.61,3.62,6.8,3.62,9.56,0,3.19-1.6,6-4.78,8.34-31.89,27.9-49.42,43-52.16,45.43q-6.57,5.39-16.73,1.2a159.74,159.74,0,0,1-14-13.18l-8.23-9.22q-4.38-5.46-8.43-11.16l-8-11.55c-21.52,23.54-42.58,38.25-63.76,44.23-13.12,4-29,6-48.62,6-29.49,0-54.2-9.11-73.32-27.47s-28.7-44.23-28.7-78.11l-1.33-2ZM758.32,710.11c-6.8,5-15.94,10.9-26.73,17.38Q682,757.1,620.4,773.35A468.08,468.08,0,0,1,329.46,758,475,475,0,0,1,185.2,669c-2.66-2-4-4-4-5.84a5.83,5.83,0,0,1,1.35-3.45l-.16.21c1.92-3.08,5-3.3,9.25-.59Q336.53,743.43,507,743.46q113.65,0,224.41-42.38l8.37-3.72c3.67-1.59,6.22-2.65,7.79-3.45,6-2.34,10.36-1.22,14,3.45C764.69,702,763.9,706.29,758.32,710.11Zm60.49-40.59c0,13.55-4,29.49-11.26,47.82S789.91,750.5,776.83,762c-1.93,1.6-3.71,2.4-5.23,2.4a6.17,6.17,0,0,1-2.39-.32c-2.39-1.17-2.84-3.19-1.7-6.38,14.35-33.47,21.41-56.93,21.41-70.14,0-4-.79-7.17-2.31-9.14-3.85-4.41-14.61-6.82-32.52-6.82q-9.68,0-23.11,1.22c-9.65,1.19-18.6,2.39-26.57,3.58-2.39,0-3.93-.37-4.78-1.17s-1-1.24-.53-2a4.36,4.36,0,0,1,.53-1.67v-1.6l.29-.11a19.2,19.2,0,0,1,3.51-4.51c9.62-6.46,19-10.89,27.89-13.29a215.29,215.29,0,0,1,42.83-6.37,35.17,35.17,0,0,1,10.89.8c17.27,1.59,27.9,4.46,31.14,8.76,1.68,2.39,2.63,6.06,2.63,10.36Z"/><path d="M498.49,532.94a38.88,38.88,0,0,0,5.18-.54,30,30,0,0,1,4.41-.61c16.31-4.25,28.69-14.69,37.83-31.29a83.61,83.61,0,0,0,9.56-24.18,104,104,0,0,0,3.59-21.26c.4-5.18.4-14.34.4-26.7V414c-22.32,0-39.43,1.59-51,4.78-33.88,9.56-51,31.08-51,64.56l-.93-.53v.26c0,15,3.72,27.1,11.29,36.24S485.73,532.94,498.49,532.94Z"/></svg>