<svg id="Layer_1" data-name="Layer 1" xmlns="http://www.w3.org/2000/svg" viewBox="0 0 1000 1000"><path d="M500,0C223.86,0,0,223.86,0,500s223.86,500,500,500,500-223.86,500-500S776.14,0,500,0Zm23.29,625.05c.36-14.86,7.14-30.34,18.23-47,10.75-16.61,25.8-34,41.18-51.68,23.26-26.73,80.89-90.64,100.21-128.95a87.87,87.87,0,0,0,6.68-20.22C692,342,648.47,328.16,582,309.37l-12.87,7.94L593.79,338c-110.23,19.13-177.89,40.79-258.45,69l11.12,28.92-40,39.69a163.84,163.84,0,0,0,154.33-30.83,44.55,44.55,0,0,0-17.5-15.42s19.25-.29,30.27,17.21c0,0,7.28,10.32,5.69,23.35H467a42.47,42.47,0,0,0-1.46-14.78A178.63,178.63,0,0,1,286,484.81v50.71c-27.22,9.76-75.92,40.1-75.53,69.38,1.76,13.86,8.74,19,15.12,22.59l.27.07C287.74,663,456.33,614.89,456,614.89c-60.87,31.1-119.23,56-209.09,59.61-117-2.54-135.3-80.92-79.82-162.9,52.27-82.7,135.34-157.5,267.44-204.12,38.27-13.69,94.48-29.24,148.9-30,78-.73,153.9,23.85,148.91,99.38-2.85,57.76-85.55,139.41-129.22,197.9-18.63,25.64-21.87,42.28,10,40.83C728.77,608,833.64,567.58,931,525.7,865.17,570.79,524.71,741,523.29,625.05Z"/></svg>