<svg id="Layer_1" data-name="Layer 1" xmlns="http://www.w3.org/2000/svg" viewBox="0 0 1000 1000"><path d="M558.48,465.35C545.32,445.54,525.73,436,500,436s-45.35,9.54-58.51,29.12c-12.44,17-15.28,39.67-8,68,7.31,35.11,29.23,76.12,66.55,122.92,36.49-46.05,58.33-87,66.34-122.73C573.87,504.85,570.78,482.17,558.48,465.35Z"/><path d="M758.81,636.17,750,615.1l-14.7-33.66-.72-.68C694.41,492.87,645.31,393.46,589,283l-2.21-4.38-15.39-30c-6.54-10.93-11.69-19.7-16-26.29-8.77-12.39-29.29-27.78-55.61-27.78-13.13,0-24.82,2.9-34.37,8.69-19.75,12.5-24.85,22.65-37.26,45.32l-16,30.78L410.66,283c-56.36,110.47-105.4,210.1-145.78,297.76l-.69,1.46c-12.41,27.06-19.67,44.57-23.31,54.09-26.29,73.92,31.61,145.61,105.51,134.61,16.08-1.41,32.88-7.31,50.42-16.8,22.67-13.16,48.33-34.43,75.36-64.35C429,634.87,401.91,585.83,391.71,542.66,374.16,462.89,418.82,394.21,500,394.21c40.3,0,71.69,15.31,93.61,46.75,37.38,54.89,21.3,139.77-65.78,248.75,52.65,58.5,114.17,101.62,176.31,74.58,32.16-13.87,55.58-42.39,60.68-76.76l-.16-.11C766.92,669.88,765.52,653.08,758.81,636.17Z"/><path d="M500,0C223.86,0,0,223.86,0,500s223.86,500,500,500,500-223.86,500-500S776.14,0,500,0Zm166,814a37.21,37.21,0,0,1-7.31-.74H648.48c-48.19-5.88-98-36.64-148.45-91.5-50.48,55-100.24,85.62-148.51,91.5H341.26A37.09,37.09,0,0,1,334,814c-92.93,0-169.7-89.92-132.46-192.39.77-2.18,3.73-9.46,9.52-23.37l15.42-33.65v-1.46c51.91-110.44,100.24-209.94,146.27-299.2l2.24-4.41C404.15,198.75,432.72,152,500,152c68,0,91.46,40.3,124.2,107.41l3.07,4.5C673.22,353.17,721.58,452.52,773.68,563v.83c10.9,22.7,19.7,41.68,24.83,57.76C835.74,724.05,759,814.08,666.05,814Z"/></svg>