<svg id="Layer_1" data-name="Layer 1" xmlns="http://www.w3.org/2000/svg" viewBox="0 0 1000 1000"><path d="M500,0C223.86,0,0,223.86,0,500s223.86,500,500,500,500-223.86,500-500S776.14,0,500,0Zm32.68,211.3c22.87-26.64,61.13-46.43,92.86-47.8,4.08,36.89-10.57,74.09-32.73,100.7l0,0c-22.19,26.64-58.39,47.46-93.57,44.72C494.45,272.77,512.17,234.85,532.68,211.3ZM713.3,715.94c-26.29,38.59-53.61,76.82-96.64,77.5-42.33,1-56-24.92-104.12-24.92-48.51,0-63.49,24.24-103.46,26-41.64,1.34-73.06-41.67-99.69-79.9-54.3-78.53-95.6-221.24-39.94-317.86,27.63-48.14,76.8-78.54,130.43-79.25,40.62-1,79.19,27.35,104.12,27.35v0c24.58,0,68.62-32.76,121.2-28.66,20.17,1.37,77.85,7.52,115.42,62.47-3.08,1.71-69,39.94-68.28,119.86,1,95.6,83.63,127.36,84.66,127.7C756.32,628.52,743.7,671.56,713.3,715.94Z"/></svg>