<svg id="Layer_1" data-name="Layer 1" xmlns="http://www.w3.org/2000/svg" viewBox="0 0 1000 1000"><path d="M500,0C223.86,0,0,223.86,0,500s223.86,500,500,500,500-223.86,500-500S776.14,0,500,0ZM749.09,743.1C689.84,804.63,614,837.64,513.51,837.64,327.44,837.64,171,686.07,171,500S327.44,162.36,513.51,162.36c102.78,0,176.33,40.52,231.11,93.78l-64.91,64.91c-39.39-37.14-93.05-66-166.2-66-135.82,0-242,109.53-242,245.35s106.16,245.35,242,245.35c87.78,0,138-35.26,170.31-67.53,26.28-26.62,43.52-64.52,50.28-116.29H513.51V469.61H824.13C827.51,486.1,829,506,829,527.38,829,596.42,809.87,682.32,749.09,743.1Z"/></svg>