<svg id="Layer_1" data-name="Layer 1" xmlns="http://www.w3.org/2000/svg" viewBox="0 0 1000 1000"><path d="M500,0C223.86,0,0,223.86,0,500s223.86,500,500,500,500-223.86,500-500S776.14,0,500,0ZM705.88,412.2c-3.89-38.33-30.74-47.68-116-47.68l-89.52,505-90-505.12c-84.69,0-111.53,9.43-115.45,47.72,0,0-57.15-21.17-86-64.71,112.53-52.34,225.58-54.76,225.58-54.76l65.92,80.48,65.92-80.59s113.06,2.4,225.61,54.71C763.11,390.84,705.88,412.2,705.88,412.2ZM802.1,330c-106.58-46.66-210.75-61.52-301.7-60.72v-.08c-90.95-.67-195.11,14.09-301.7,60.86-12.7-23.2-17.9-37.18-17.9-37.18,116.52-46.32,225.64-62.16,319.6-62.56,94,.4,203.08,16.3,319.6,62.53C820,292.88,816.35,304.25,802.1,330Z"/><polygon points="500.4 373.21 500.4 373.15 500.3 373.21 500.4 373.21"/></svg>