<svg id="Layer_1" data-name="Layer 1" xmlns="http://www.w3.org/2000/svg" viewBox="0 0 1000 1000"><path d="M500,0C223.86,0,0,223.86,0,500s223.86,500,500,500,500-223.86,500-500S776.14,0,500,0ZM835.16,423.32c-11,41.8-21.5,83.75-33.07,125.4a87.9,87.9,0,0,1-31.57,46c-25.92,20.33-55.75,31.7-87.71,37-24.8,4.09-50,5.66-75,8.39-30.18,3.29-60.24-.19-90.3-1.82-16.38-.89-32.68-3.28-49-5-4.75-.49-5.73-2.62-4.42-7.28,7.65-27.14,15.06-54.36,22.45-81.57,3.8-14,7.39-28,11.37-43.16-8-1-15.17-2.27-22.4-2.8-23.49-1.72-47-3.73-70.47-4.56-17.78-.63-35.63,0-53.41.75-14.75.64-29.45,2.42-44.19,3.52a259.1,259.1,0,0,0-68.69,14.82C233.34,515,228,517,221.27,519.42c2.85,3.71,4.69,6.56,7,9,20.43,21.82,44.64,38.86,70.09,54.1,52.24,31.27,108.3,54,166,72.89A991.37,991.37,0,0,0,591.53,688c32.56,6,65.58,9.67,98.4,14.26,6.23.87,12.52,1.39,18.8,1.82,7.62.53,8.85,1.79,6.93,9.06-4.26,16.17-8.75,32.27-13.12,48.42-6.08,22.49-12.2,45-18.16,67.48-2.3,8.71-4.48,10.27-13.22,9.32-23.41-2.55-46.87-4.55-70.21-7.55-16-2-31.93-5-47.74-8.26-20.64-4.24-41.23-8.77-61.65-13.9q-29.07-7.32-57.74-16.2A827.84,827.84,0,0,1,294,735.13c-33.08-17.35-64.79-37-91.67-63.3a226.3,226.3,0,0,1-26.94-32c-16.23-23.17-15.93-48.51-8.28-74.82,7.43-25.5,13.46-51.41,20.58-77,4.32-15.52,8.45-31.25,14.6-46.08,9.63-23.25,27.93-38.69,49.78-50.5,27.74-15,57.75-21.72,88.54-26.47,37.61-5.81,75.44-5.79,113.24-4.46,25.41.89,50.75,4.1,76.12,6.34,6.06.53,7,2.21,5.19,8.94q-7.19,26.58-14.48,53.14c-5.79,21.11-11.51,42.25-17.54,63.3-1.48,5.19.21,7.13,5.16,7.6,9.81.94,19.58,2.39,29.41,3,23,1.41,46,2.84,69,3.53,32.1,1,64-1.64,95.84-5.84a311.58,311.58,0,0,0,67.6-16.67,47.27,47.27,0,0,0,5.21-2.41,32.7,32.7,0,0,0,3.58-3c-8.36-8.21-15.72-16.25-23.93-23.3-25.69-22.08-54.27-39.89-84.31-55.43a756.43,756.43,0,0,0-113.52-47.86c-31-10.08-62.16-19.77-93.71-27.82A946,946,0,0,0,327,299.14c-11.44-1.19-22.9-2.18-34.35-3.21-7.57-.68-9.17-2.76-7.2-10.07,10.38-38.34,20.9-76.64,31.13-115,1.73-6.51,5.19-9.13,11.77-8.42,22.32,2.42,44.86,3.6,67,7.32,37.22,6.27,74.47,12.85,111.16,21.62a929.26,929.26,0,0,1,137.27,45.32c46.08,19,90,41.84,129.95,71.72,23.84,17.83,45,38.51,58,66C839.18,390.25,839.56,406.6,835.16,423.32Z"/></svg>