<svg id="Layer_1" data-name="Layer 1" xmlns="http://www.w3.org/2000/svg" viewBox="0 0 1000 1000"><path d="M500,0C223.86,0,0,223.86,0,500s223.86,500,500,500,500-223.86,500-500S776.14,0,500,0ZM856.63,553.78c-5.36,8.82-10.86,17.58-16.13,26.45a7,7,0,0,1-6.78,3.79c-31.12.19-62.24.51-93.37.77L634,585.65q-44.58.38-89.18.82l-92.11.85-87.93.83c-14.51.15-29,.45-43.53.68-1.46,0-2.93,0-4.4,0l0-1c6.06-.52,12.12-1.14,18.19-1.56,17.67-1.24,35.34-2.34,53-3.62,21-1.51,42-3.19,63-4.72,13.63-1,27.27-1.81,40.9-2.79,17.52-1.26,35-2.62,52.56-3.9,12.66-.93,25.32-1.8,38-2.72l54.23-4c12.94-.93,25.88-1.81,38.82-2.73q27.54-2,55.07-4c13.35-.94,26.72-1.79,40.07-2.76,17.8-1.27,35.6-2.64,53.4-3.89,10.57-.75,21.16-1.38,31.74-2a23,23,0,0,1,3,.25C857.92,551.13,857.4,552.53,856.63,553.78Zm29-53.79c-5.71,8.93-11.47,17.84-17.11,26.82a6.64,6.64,0,0,1-5.77,3.4q-34,2.06-68,4.3-37.54,2.46-75.1,5-36.93,2.49-73.85,5l-73.42,5-74.27,5-73,5c-26.7,1.86-53.39,3.84-80.09,5.66-18.78,1.28-37.57,2.31-56.34,3.59-22.11,1.51-44.21,3.19-66.32,4.76a75.4,75.4,0,0,1-13.77-.07L895,483.39l.7.83Zm13.72-37.28c-43.53,5.9-87,12-130.55,18q-51.39,7.11-102.79,14.16-56.58,7.74-113.17,15.4c-31.5,4.32-63,8.77-94.48,13.1Q398.73,531.57,339,539.65c-35.37,4.87-70.71,9.87-106.09,14.72q-63,8.64-126,17.14c-12.71,1.73-25.4,3.59-38.11,5.36a5.74,5.74,0,0,1-3.36-.55c10.4-2,20.8-4.09,31.21-6.08Q161.21,558,225.76,545.7l136.93-26q72.76-13.86,145.51-27.82Q576,479,643.89,466.16q57.76-11,115.53-22.05,86.12-16.37,172.26-32.68a28.19,28.19,0,0,1,3.31-.25v2.51c-9.34,14.74-18.74,29.43-28,44.25A9.49,9.49,0,0,1,899.4,462.71Z"/></svg>