<svg xmlns="http://www.w3.org/2000/svg" viewBox="0 0 1000 1000"><path d="M512.449,11c3.363.894,6.739,1.743,10.085,2.7,2.307.654,4.576,1.449,7.377,2.348v364.02a6.951,6.951,0,0,0,1.243.682.891.891,0,0,0,.635-.129q135.489-110.2,271.232-220.641A79.048,79.048,0,0,1,834.3,199.947l-52.073,40.358c5.832,7.148,11.749,13.83,17.77,20.794l23.7-17.511,17.462,20.33L817.6,284.671l17.817,21.749,23.714-18.592,17.5,21.405-65.642,52.876-20.759-66.852c-5.977,5.009-11.3,9.191-16.194,13.819-.971.915-.825,3.7-.322,5.37,4.344,14.624,8.9,29.186,13.354,43.775,1.084,3.541,2.06,7.118,3.523,12.2-19.473-9.811-37.056-20.168-55.612-29.742l-18.807,14.8,60.847,32.947c-2.653,3.926-57.042,48.249-64.974,52.939l-17.064-22.711L718.4,399.667l-17.767-20.682-23.646,18.6-17.514-22.334,23.552-18.755L665.2,333.654,543.84,434.207,659.8,527.358a47.067,47.067,0,0,1,2.824-4.526c4.949-6.244,10.082-12.348,14.938-18.664a5.756,5.756,0,0,1,6.874-2.2c12.474,3,20.1,11.411,25.664,22.272a4.511,4.511,0,0,1-1.166,5.391q-6.538,7.95-12.964,15.992c-1.65,2.056-3.242,4.173-5.194,6.695l12.541,9.846c1.908-1.51,3.767-2.942,5.587-4.424,22.194-18.07,46.937-31.018,75.4-35.469,52.225-8.183,96.481,7.594,131.268,47.165,40.984,46.624,47.514,116.371,17.322,170.652-.855,1.537-1.686,3.09-2.868,5.262q8.351,6.476,16.681,12.942c5.123,3.993,5.469,4.595,3.459,10.553a45.573,45.573,0,0,1-28.751,29.4L900.731,781.8c-1.713,1.358-3.277,2.494-4.729,3.761a149.655,149.655,0,0,1-110.069,37.944A142.076,142.076,0,0,1,654.781,710.011c-7.149-35.089-2.057-68.62,12.752-100.929,1.1-2.395,2.186-4.8,3.462-7.6l-11.746-10.954c-7.066,9.365-13.805,18.295-20.407,27.05-14.952-.762-27.424-11.477-31.411-27.042l19.69-23.588c-3.2-4.625-91.048-77.465-96.712-80.149V613.2c2.417.212,4.551.509,6.7.57,7.083.2,14.171.45,21.254.387a6.924,6.924,0,0,1,6.874,4.083,29.622,29.622,0,0,1,3.351,22.39c-1.264,4.632-3.024,9.134-4.674,14.047H530.45v15.639c5,1.2,9.761,2.142,14.4,3.484,48.986,14.163,86.159,43.077,104.983,90.913,21.649,55.02,9.848,105.326-28.978,149.1-22.895,25.812-52.32,41.047-86.093,47.932-1.275.261-2.535.61-4.743,1.147-.019,5.408-.046,10.852-.052,16.3,0,10.107-.11,9.83-9.681,13.4-12.879,4.806-27.82,2.029-40.014-4.919V963.215c-1.768-.567-3.153-1.133-4.591-1.449C422.251,950,383.175,920.149,362.515,869.052c-29.843-73.817,6.049-156.319,80.751-187.042,10.349-4.256,21.534-6.489,32.334-9.651,1.251-.365,2.51-.7,4.182-1.154V655.189c-1.925-.2-3.615-.52-5.315-.531-7.751-.058-15.507-.206-23.25.047a6.5,6.5,0,0,1-7.027-4.644,40.14,40.14,0,0,1-.308-31.62,6.855,6.855,0,0,1,7.509-4.949c7.074.292,14.168.08,21.256.077h6.3c1.57-5.337,2.062-116.426.758-126.354a2.131,2.131,0,0,0-.549-.366.823.823,0,0,0-.627.047q-46.83,38.157-93.655,76.337c-.992.809-1.872,1.754-3.263,3.069,5.719,6.519,11.221,12.8,16.733,19.073,5.3,6.033,5.323,6.049,1.317,13.138a38.888,38.888,0,0,1-24.622,18.815,5.422,5.422,0,0,1-6.733-2.417c-4.5-6.3-9.225-12.447-13.894-18.628-1.308-1.733-2.749-3.371-4.5-5.5l-12.667,10.555c1.256,2.392,2.367,4.5,3.47,6.615,30.544,58.466,20.467,135.59-32.659,181.194-31.749,27.242-68.887,37.99-110.4,33.566a144.9,144.9,0,0,1-84.939-38.493,25.717,25.717,0,0,0-2.073-1.65,11.257,11.257,0,0,0-1.517-.569c-4.787,3.679-10,7.674-15.2,11.686-6.734,5.191-6.781,5.276-13.888.747a51.772,51.772,0,0,1-20.347-24.7A61.6,61.6,0,0,0,56.625,764v-2.656c8.606-3.689,14.493-10.791,21.666-16.266a178.9,178.9,0,0,1-19.466-61.35,27.706,27.706,0,0,0-2.2-6.049V655.1a59.869,59.869,0,0,0,2.508-8.768,147.3,147.3,0,0,1,18.339-54.3,142.113,142.113,0,0,1,143.586-70.663,161.129,161.129,0,0,1,80.055,36.146c1.861,1.52,3.731,3.024,5.774,4.674l11.515-8.747c-1.216-1.765-2.142-3.244-3.2-4.622-4.591-5.963-8.993-12.1-13.923-17.762A7.371,7.371,0,0,1,300.607,521a40.694,40.694,0,0,1,29.656-19.664l20.773,25.546L466.447,434.2,345.141,333.667l-17.872,22.821,23.536,18.722c-3.322,4.259-6.145,7.938-9.032,11.567-2.827,3.553-5.714,7.055-8.65,10.674l-23.506-18.493-17.745,20.726,22.447,18.955-17.476,23.244c-21.658-17.7-42.827-35.009-64.672-52.862l60.985-33.531-17.889-14.861-55.678,30.118c1.051-3.83,1.62-6.12,2.307-8.372q7.268-23.783,14.6-47.567c.737-2.378,1.7-4.533-.825-6.563-4.968-4-9.819-8.152-15.617-12.991-7.061,22.664-13.83,44.38-20.822,66.813l-65.587-52.848,17.459-21.334L173.9,306.354l18.713-21.636-23.462-20.88,17.454-20.292,23.693,17.6,16.832-20.778-51.182-40.418a70.536,70.536,0,0,1,31.386-40.082q135.474,110.462,270.113,220.22a3.8,3.8,0,0,0,1.19.55,1.053,1.053,0,0,0,.619,0,2.762,2.762,0,0,0,.575-.325c1.317-12.922.717-141.507-.732-146.439H452.248v27.522h-27.5V233.766h-28.2c-.776,9.464.228,18.7-.638,28.12-5.224,0-9.624.033-14.05,0-4.543-.042-9.074-.157-13.545-.24v-82.87c11.252,4.759,21.766,9.3,32.36,13.657,10.475,4.3,20.706,9.271,31.963,13.11V182.172L373.3,157.646l59.5-23.531c-.146-7.652.654-14.792-.583-22.546l-63.905,24.98v-83.7h27.979V82.466H425.1V52.894H452.5v29.7h27.715V16c3.173-.957,5.673-1.749,8.194-2.458,3.129-.883,6.277-1.7,9.414-2.543Zm17.559,911.1a60.7,60.7,0,0,0,21.845-6.03,114.409,114.409,0,0,0,61.768-68.531A97.552,97.552,0,0,0,610.794,775c-8.631-20.2-24.471-30.814-46.467-31.895a34.814,34.814,0,0,0-27.171,10.11,41.173,41.173,0,0,0-2.092,55.494,37.738,37.738,0,0,0,53.189,4.373l.344-.3c1.735-1.5,3.643-2.793,6.181-4.724v43.209c-13.934,8.5-29.117,9.912-44.817,8.249-18.6-1.972-33.665-10.157-44.344-26.945a58.767,58.767,0,0,1-41.342,26.395c-17.009,2.573-33.476,1.251-48.568-7.553-1.2-14.3-.7-37.943.905-42.343,1.9,1.6,3.7,3.223,5.6,4.713a37.312,37.312,0,0,0,35.689,6.45c20.006-6.142,31.053-27.033,25.813-48.215-4.367-17.663-17.647-28.87-34.952-28.922a49.533,49.533,0,0,0-39.772,17.962,70.44,70.44,0,0,0-13.434,25.692c-17.63,58.862,19.97,122.142,80.124,134.858a35.861,35.861,0,0,0,4.525.316V895.535a70.2,70.2,0,0,1,49.8,0ZM738.147,738.889c3.849-1.047,6.8-1.74,9.681-2.642,20.544-6.459,30.385-23.9,28.454-41.906A40.1,40.1,0,0,0,741.138,659a38.769,38.769,0,0,0-42.464,25.689,49.217,49.217,0,0,0,1.488,38.133A99.306,99.306,0,0,0,750.2,774.663c20.421,9.8,42.029,11.746,64.2,8.678a100.282,100.282,0,0,0,48-19.626c1.826-1.4,3.47-3.025,5.554-4.867l-21.429-16.7c5.27-16.819,13.874-30.443,30.22-38.106l21.446,16.368a96.118,96.118,0,0,0,12.95-41.537c1.54-36.184-11.226-66.778-37.184-91.719a80.49,80.49,0,0,0-54.4-23.057,50.349,50.349,0,0,0-34.124,10.563c-14.872,11.711-24.49,38.684-1.375,58.873a50.375,50.375,0,0,0,13.448,8.32c28.683,12.073,55.771-14.949,52.628-37.525a36.088,36.088,0,0,1-.024-4.674,7.064,7.064,0,0,1,2.15.6c9.543,7.562,18.991,15.241,28.611,22.7,2.689,2.087,2.4,4.342,1.691,7.045a75.972,75.972,0,0,1-23.8,39.081,57.787,57.787,0,0,1-39.984,15.263,33.222,33.222,0,0,0-4.152.41c.7,5.856,1.732,11.3,1.925,16.772.855,23.316-18.821,51.284-41.721,61.839a5.719,5.719,0,0,1-6.64-1.127c-6.261-4.933-12.607-9.755-18.906-14.636-3.467-2.68-6.909-5.4-11.138-8.713ZM195.083,684.325c-18.218,2.422-32.994-4.168-45.744-15.758A78.215,78.215,0,0,1,124.9,625.738c7.4-7.234,29.329-23.8,33.995-25.65,0,1.606.088,3.126-.013,4.633-1.136,16.728,10.852,32.719,27.322,38.287,21.446,7.25,47.566-8.471,51.165-30.668a40.752,40.752,0,0,0-29.144-46.148c-14.639-4.287-29.063-2.236-42.959,3.074-58.8,22.461-83.42,94.908-56.827,148.867a12.342,12.342,0,0,0,1.828,2.142c7.207-5.477,14.221-10.811,21.345-16.222A58,58,0,0,1,161.789,742.1L140.7,758.675a14.148,14.148,0,0,0,1.564,1.971,71.858,71.858,0,0,0,5.774,4.449c33.324,21.625,68.711,25.864,105.678,11.155a96.45,96.45,0,0,0,51.927-47.141c5.92-11.716,8.879-24.124,6.173-37.256-3.118-15.142-11.4-26.351-26.431-31.4a40.594,40.594,0,0,0-50.622,24.927,39.661,39.661,0,0,0,24.613,50.4q.387.133.777.259c2.87.973,5.84,1.649,9.529,2.678-1.776,1.649-2.917,2.884-4.228,3.9-7.861,6.115-15.975,11.928-23.564,18.359-4.124,3.5-7.454,3.3-11.823.726a79.195,79.195,0,0,1-35.194-41.741,46.439,46.439,0,0,1-1.006-30.6C194.3,687.949,194.566,686.484,195.083,684.325Z"/></svg>