<svg xmlns="http://www.w3.org/2000/svg" viewBox="0 0 1000 1000"><path d="M305.976,420.287c-2.493-13.968-1.829-26.446,11.2-35,12.266-8.056,24.538-6.992,37.09-.235.453-1.138.849-2.188,1.285-3.22,3.617-8.565,9.586-14.955,18.932-16.26,13.264-1.851,25.953.844,35.413,15.435.622.96,1.2,1.947,1.847,3,12.409-5.736,24.52-7.475,36.155,1.609,11.513,8.989,13.828,20.835,10.651,34.3,13.612,2.464,26.092,5.908,30,21.58,3.56,14.266-.486,25.789-11.847,34.921,9.685,9.718,16.278,20.124,10.751,34.452-5.171,13.406-15.365,19.85-29.315,21.729.4,2.28.89,4.425,1.144,6.6,1.638,14-2.763,22.526-15.06,29.31-10.05,5.544-20.192,5.106-30.4.471-.7-.318-1.38-.682-2.068-1.03s-1.359-.7-2.159-1.105c-6.209,11.944-14.2,21.171-29.268,20.285-14.186-.835-23.506-8.447-29.583-21.018-.857.512-1.555.945-2.268,1.352-7,4.011-14.422,5.674-22.429,3.891-8.989-2-21.526-13.214-22.642-26.628-.341-4.11-.053-8.272-.053-12.713-12.741-2.635-23.67-8.054-27.778-22-4.024-13.66.032-24.84,10.928-34.078-11.142-9.407-15.878-20.569-10.5-34.718C281.224,427.494,291.663,421.211,305.976,420.287ZM447.11,525.048c-6.139-20.164-2.142-36.591,15.742-48.833-7.926-5.61-13.178-12.871-16.914-21.157-3.946-8.752-2.189-17.593.741-26.249-21.652.279-34.128-10.354-38.32-31.544-7.113,7.041-15.108,10.7-24.866,10.82s-17.8-3.411-24.659-10.046c-6.716,19.913-18.8,32.191-41.523,30.672,7.191,20.461,1.109,35.911-16.678,47.01,18.163,11.909,22.224,27.773,14.7,47.121,21.451-.8,34.6,9.362,39.891,29.914,16.734-12.755,33.275-12.766,49.964.551,2.5-9.425,7.275-16.985,15.17-22.666C428.433,524.833,437.252,523.309,447.11,525.048ZM277.091,506.2c.951,2.892,1.869,5.794,2.865,8.67.559,1.613,1.487,1.956,3.195,1.193,9.348-4.175,18.759-8.212,28.141-12.313,2.354-1.028,3.221-2.681,2.52-4.658-.982-2.769-3.542-4.734-5.613-4.274q-13.185,2.928-26.366,5.876C277.739,501.6,277.625,501.753,277.091,506.2Zm36.682-55.667a6.343,6.343,0,0,0-1.646-1.45c-9.3-4.094-18.629-8.1-27.925-12.191a2.117,2.117,0,0,0-2.808.585,21.957,21.957,0,0,0-4.89,9.8c-.552,2.108-.028,3.078,2.182,3.542,9.259,1.943,18.493,4.008,27.729,6.064,6.44,1.433,6.507,1.405,7.2-5.238C313.627,451.489,313.655,451.337,313.773,450.529Zm125.475,115.5c.987-.137,1.444-.2,1.9-.264,4.311-.636,6.333-3.992,8.533-7.154.858-1.233.574-2.159-.394-3.24-5.895-6.587-11.7-13.251-17.588-19.85-4.1-4.6-4.652-4.573-8.964.02-.1.112-.279.218-.3.344-.1.8-.531,1.814-.2,2.383q7.608,13.182,15.418,26.247A7.147,7.147,0,0,0,439.248,566.032ZM484.989,504.8c.025-3.79-.155-4.008-3.914-4.838-8.552-1.889-17.118-3.716-25.644-5.719-2.1-.493-3.083.493-3.335,2.1-.369,2.343-2.754,4.8.054,7.136a.838.838,0,0,0,.211.092c8.746,3.784,17.48,7.594,26.261,11.294a2.97,2.97,0,0,0,2.391-.473C484.3,512.042,484.921,508.516,484.989,504.8Zm.972-60.687.334-.087c-.546-2.064-1.081-4.132-1.644-6.192-.511-1.866-1.446-2.379-3.391-1.509-8.858,3.957-17.773,7.786-26.674,11.648-5.259,2.282-5.216,2.245-2.508,7.321.811,1.52,1.622,2.048,3.437,1.621,8.317-1.958,16.669-3.762,25.018-5.58,4.922-1.071,5.252-1.424,5.427-6.529C485.968,444.57,485.961,444.339,485.961,444.108ZM325.008,566.118a11.51,11.51,0,0,0,1.736-1.874q7.257-12.179,14.421-24.411a4.117,4.117,0,0,0-2.052-6c-1.389-.531-2.74-1.508-4.29.293-6.412,7.456-12.968,14.789-19.532,22.112a2.688,2.688,0,0,0-.5,3.46C316.775,563.852,320.752,564.686,325.008,566.118Zm58.365-17.712c-.945.049-1.482.089-2.019.1-2.329.059-3.66.9-3.559,3.579a47.065,47.065,0,0,1-.6,6.182c-.688,7.106-1.327,14.217-2.065,21.317a2.937,2.937,0,0,0,2.121,3.5c4.083,1.667,7.667.12,11.242-1.5a2.1,2.1,0,0,0,.677-1.732c-.921-9.552-1.961-19.092-2.843-28.646C386.12,548.919,385.239,547.965,383.373,548.406Zm58.091-164.3c-.484.682-.814,1.1-1.093,1.547-5.808,9.332-11.571,18.692-17.452,27.978-1.023,1.615-1.021,2.77.432,3.943,1.687,1.362,4.894,1.813,5.852.738q10.2-11.446,20.328-22.965a2.588,2.588,0,0,0,.4-2.218A17.918,17.918,0,0,0,441.464,384.11Zm-66.355-11.773c.956,9.628,1.973,18.876,2.726,28.147.187,2.3,1.222,3.212,3.182,3.356,2.435.178,5.32-1.754,5.492-3.512.912-9.334,1.847-18.666,2.648-28.01a3.091,3.091,0,0,0-1.315-2.279c-3.436-2.243-7.041-1.516-10.652-.352C375.654,370.182,374.752,370.969,375.109,372.337Zm-50.364,13.9c-3.654-.031-6.552,1.9-9.271,5.616a2.289,2.289,0,0,0,.168,3.4c6.215,7.038,12.335,14.16,18.517,21.227,3.438,3.93,4.162,3.9,7.469-.355a2.219,2.219,0,0,0,.248-1.973q-7.794-13.494-15.76-26.887C325.784,386.707,324.994,386.418,324.745,386.239ZM417.955,543l-.989-.03c-1.3,3.653-2.719,7.268-3.855,10.97-1.8,5.87-1.739,5.935,3.839,8.444a39.3,39.3,0,0,0,14.609,3.679ZM346.262,409.467a37.676,37.676,0,0,0,1.862-4.012c1.187-3.727,2.2-7.512,3.407-11.23.521-1.6-.042-2.394-1.387-3.118a44.448,44.448,0,0,0-14.807-4.854c-.783-.113-1.585-.091-2.767-.151Zm25.581,142.11a5.282,5.282,0,0,0-1.285.33c-4.156,2.884-8.337,5.735-12.387,8.761-.451.337-.449,1.836-.127,2.561A41.146,41.146,0,0,0,368.277,577a4.952,4.952,0,0,0,1.072.536C370.183,568.852,371,560.391,371.843,551.577ZM434.11,383.723a5.007,5.007,0,0,0-1.128-.187,43.356,43.356,0,0,0-17.136,7.636,2.613,2.613,0,0,0-.607,2.156c.39,2.347,1,4.657,1.5,6.985.547,2.514,1.074,5.032,1.61,7.547l.567.069Zm16.755,58.553.579.531L477.222,431.6a45.533,45.533,0,0,0-20.506-3.66,1.917,1.917,0,0,0-1.242,1.139C453.892,433.459,452.39,437.872,450.865,442.276ZM311.747,551.186l16.967-19.132a136.148,136.148,0,0,0-15.964-.487,1.956,1.956,0,0,0-1.323,1.271A41.24,41.24,0,0,0,311.747,551.186Zm1.3-108.366.715-.566c-1-3.349-1.9-6.734-3.041-10.038-1.537-4.47-1.617-4.455-6.415-3.966a32.3,32.3,0,0,0-4.555.623c-3.562.892-7.088,1.928-10.628,2.907l.115.835Zm138.468,66.89-.747.5c.991,3.436,1.869,6.909,3,10.3,1.8,5.407,1.884,5.448,7.382,4.223a38.351,38.351,0,0,0,12.95-5.261Zm-122.15-89.238L312.1,400.652a7.523,7.523,0,0,0-.552,1.414,37.115,37.115,0,0,0,2.5,17.194,2.093,2.093,0,0,0,1.494,1.159C320.042,420.511,324.544,420.472,329.365,420.472ZM457.2,462.631c2.6,2.1,4.559,3.914,6.748,5.389,6.568,4.423,4.648,5.377,11.177-1.2,2.58-2.6,4.538-5.816,6.779-8.752l-.6-.73Zm-176.807-5.353-.371.692a11.534,11.534,0,0,0,1.194,1.875c2.889,3.066,5.719,6.2,8.776,9.092,2.666,2.523,2.8,2.415,5.879.537,2.426-1.48,4.823-3.006,7.217-4.538.785-.5,1.518-1.086,2.811-2.021ZM395.658,375.4l-.679.235q-1.08,11.231-2.159,22.461l.655.445c3.816-3.048,7.649-6.075,11.419-9.179a1.736,1.736,0,0,0,.387-1.6A40.751,40.751,0,0,0,395.658,375.4ZM451.6,402.262c-5.2,5.88-10.4,11.759-15.922,18,4.9,0,9.232.033,13.561-.056.391-.008.984-.741,1.116-1.235A38.952,38.952,0,0,0,451.6,402.262ZM280.976,494.725l23.5-5.245.273-.781c-3.624-2.5-7.235-5.021-10.9-7.46a1.652,1.652,0,0,0-1.442.315A49.266,49.266,0,0,0,280.976,494.725Zm7.312,25.529,0,.618a43.193,43.193,0,0,0,16.575,2.964,1.67,1.67,0,0,0,1.274-.741c1.633-4.03,3.183-8.094,4.972-12.708ZM459.47,488.436l.216.637,21.984,4.862a5.688,5.688,0,0,0-.239-1.173,35.689,35.689,0,0,0-10.511-10.814,1.706,1.706,0,0,0-1.462-.251C466.1,483.894,462.791,486.177,459.47,488.436ZM369.326,375.23c-.335.056-.527.027-.611.11-3.767,3.7-5.95,8.319-7.639,13.216a1.427,1.427,0,0,0,.183,1.248c3.188,2.692,6.425,5.326,9.65,7.975l.525-.283Zm67.233,156.731L452.5,550.014a35.962,35.962,0,0,0-1.87-15.729,2.36,2.36,0,0,0-1.484-1.436C445.18,532.474,441.2,532.265,436.559,531.961Zm-91.928,13.814-11.9,20.188a34.356,34.356,0,0,0,14.751-6.687,1.881,1.881,0,0,0,.315-1.6C346.837,553.886,345.8,550.117,344.631,545.775Zm48.542,8.147-.562.258q1.088,10.988,2.177,21.99c.465-.06.67-.023.748-.1,3.521-3.71,5.549-8.241,7.072-13.03a1.667,1.667,0,0,0-.384-1.44C399.241,559,396.2,556.47,393.173,553.922Z"/><path d="M79.213,392.4v181.08c0,.77-.047,1.544.006,2.31.112,1.634-.492,2.388-2.25,2.33-3.078-.1-6.162-.072-9.242-.014-1.473.027-2.148-.543-2.053-2.031.045-.69,0-1.386,0-2.079V377.326a10.856,10.856,0,0,0-.008-1.386c-.286-2.209.632-2.993,2.864-2.909,3.924.147,7.858.107,11.784.009a4.241,4.241,0,0,1,3.718,1.785q20.394,24.96,40.868,49.854,47.251,57.62,94.493,115.244,7.105,8.666,14.208,17.333a5.68,5.68,0,0,0,2.185,1.73V377.24c0-4.167,0-4.168,4.1-4.169,2.388,0,4.779.072,7.163-.02,1.726-.067,2.4.667,2.282,2.321-.043.614,0,1.232,0,1.849v196.9c0,.539-.045,1.083.005,1.617.17,1.812-.636,2.429-2.428,2.385-3.926-.1-7.861-.139-11.784.016a5.262,5.262,0,0,1-4.707-2.2q-18.162-22.308-36.428-44.53-35.163-42.879-70.342-85.746Q102.175,419.483,80.719,393.3c-.285-.348-.593-.679-.891-1.017Z"/><path d="M862.2,368.215c17.975.173,35.3,3.151,51.576,11,23.091,11.136,38.745,29.192,48.475,52.632,6.623,15.954,10,32.611,8.656,49.859-2.624,33.549-15.655,61.874-43.4,82.192-12.79,9.364-27.362,14.665-42.959,17.11-18.543,2.907-37.033,2.592-55.218-2.284-34.745-9.317-57.2-31.876-69.249-65.314-5.153-14.3-7.662-29.121-6.382-44.27,2.978-35.23,17.064-64.5,47.317-84.473,13.358-8.821,28.34-13.382,44.165-15.181C850.821,368.844,856.519,368.626,862.2,368.215ZM957.59,475.738A96.041,96.041,0,0,0,954.147,449c-8.153-29.265-25.609-50.547-54.137-61.918-17.881-7.128-36.514-8.423-55.424-5.421-23.324,3.7-43.027,14.2-57.333,33.183C766.387,442.538,762,473.512,771.741,506.38c7.437,25.092,23.086,43.885,46.882,55.179,21.424,10.168,43.993,11.707,67.023,6.881,19.374-4.061,35.832-13.414,48.789-28.482C950.288,521.521,957.275,499.807,957.59,475.738Z"/><path d="M588,560.845c2.456-5.5,4.684-10.474,6.892-15.451q30.683-69.154,61.357-138.31c4.653-10.488,9.343-20.96,13.9-31.488a3.618,3.618,0,0,1,4-2.571c3.976.159,7.963.046,12.355.046-.464,1.185-.732,1.956-1.062,2.7q-37.486,84.459-74.979,168.913c-4.562,10.275-9.16,20.535-13.629,30.851-.824,1.9-1.824,2.721-3.956,2.606-3.379-.184-6.778-.132-10.163-.015a3.024,3.024,0,0,1-3.3-2.137q-15.3-34.659-30.706-69.269-28.83-64.921-57.66-129.842c-.486-1.094-.879-2.228-1.474-3.75,5.039,0,9.638-.071,14.23.085.607.02,1.394,1.1,1.73,1.847q10.191,22.773,20.283,45.59,27.777,62.608,55.547,125.22C583.489,550.649,585.6,555.431,588,560.845Z"/><path d="M723.668,475.611q0,49.453,0,98.907c0,3.568-.006,3.57-3.5,3.572-2.619,0-5.24-.057-7.857.018-1.554.045-2.333-.477-2.178-2.116.058-.61,0-1.231,0-1.847V377.254c0-.693.044-1.389,0-2.079-.1-1.428.438-2.138,1.97-2.111q4.736.083,9.474,0c1.451-.023,2.17.521,2.084,2.024-.043.767,0,1.54,0,2.31Q723.669,426.5,723.668,475.611Z"/><path d="M8.816,475.449q0-49.445,0-98.889c0-3.478.007-3.482,3.387-3.488,2.695,0,5.392.046,8.086-.011,1.492-.032,2.123.611,2.06,2.063-.03.692,0,1.386,0,2.079V573.827c0,.308,0,.616,0,.924-.012,3.331-.012,3.335-3.285,3.339-2.772,0-5.546-.039-8.317.007-1.371.023-2-.534-1.933-1.91.036-.769,0-1.54,0-2.31Z"/><path d="M106.052,612.116c4.231-1.379,5.389-.817,6.623,3.011q5.456,16.92,10.928,33.835c.21.651.452,1.292.858,2.446.442-1.087.743-1.736.974-2.41,4-11.646,8.045-23.278,11.942-34.959.672-2.014,1.723-2.605,3.695-2.477,1.921.125,3.572-.167,4.428,2.456,3.8,11.633,7.863,23.177,11.835,34.751.246.717.521,1.424.961,2.621.42-.987.712-1.551.906-2.147q5.542-17.015,11.066-34.034c1.312-4.03,1.8-4.279,6.446-3.221a14.779,14.779,0,0,1-.38,1.9c-4.773,14.229-9.617,28.435-14.294,42.695-.745,2.272-2.125,2.329-4,2.408-2,.083-2.994-.561-3.673-2.53-3.986-11.57-8.116-23.09-12.2-34.624-.22-.62-.507-1.216-1.033-2.468-1.2,3.394-2.2,6.175-3.174,8.967-3.234,9.306-6.535,18.59-9.626,27.943-.73,2.209-1.886,2.73-4.013,2.727-2.055,0-3.154-.506-3.842-2.631-4.547-14.059-9.242-28.071-13.879-42.1C106.361,613.568,106.228,612.825,106.052,612.116Z"/><path d="M613.226,651.986c2.766-5.423,5.314-10.423,7.867-15.421q5.729-11.211,11.468-22.417c1.162-2.259,5.567-3.671,7.661-2.282.593.393.78,1.726.783,2.629.05,11.862.034,23.724.034,35.586,0,2.157-.1,4.319.026,6.469.118,2.039-.883,2.42-2.652,2.436-1.828.018-2.632-.5-2.621-2.474.063-11.323.029-22.646.028-33.969v-3.166c-.644.971-.994,1.4-1.241,1.886q-9.112,17.784-18.176,35.592A3.346,3.346,0,0,1,613.036,659a3.462,3.462,0,0,1-3.565-2.232c-5.938-11.839-11.96-23.636-17.956-35.446a4.708,4.708,0,0,0-1.4-1.809v2.331q0,17.1,0,34.2c0,2.621-2.073,3.976-4.339,2.674-.557-.319-.824-1.548-.829-2.361-.056-9.473-.037-18.948-.037-28.422,0-4.545.068-9.09-.03-13.633-.041-1.922.511-2.576,2.569-2.8,3.715-.4,5.565,1.075,7.178,4.373,5.646,11.551,11.639,22.932,17.508,34.374C612.37,650.715,612.685,651.134,613.226,651.986Z"/><path d="M387.675,626.685a21.764,21.764,0,0,1-3.8-.06,2.671,2.671,0,0,1-1.824-1.327c-2.734-8.106-11.365-10.571-18.7-10.037-13.954,1.016-19.225,11.258-17.587,24.1,1.666,13.055,11,17.121,22.772,15.538,8.371-1.126,13.2-5.837,15.011-13.6.395-1.693-.063-2.235-1.747-2.212-4.235.058-8.473-.054-12.706.047-1.832.043-2.419-.628-2.412-2.414.006-1.758.533-2.465,2.391-2.435,5.852.093,11.707.079,17.56.006,1.7-.021,2.324.592,2.311,2.278-.051,6.7-.038,13.4-.007,20.1.006,1.465-.362,2.3-2.068,2.3-1.594-.007-2.166-.623-2.216-2.18-.063-1.967-.352-3.926-.591-6.382-4.442,6.052-9.982,9.294-17.18,9.564-6.461.242-12.632-.52-18.012-4.467-8.644-6.34-11.7-20.442-6.84-31.311,4.75-10.615,16.389-15.867,29.348-13.245C380.42,612.782,387.562,619.492,387.675,626.685Z"/><path d="M471.852,619.9v10.826c0,8.473-.047,16.946.033,25.418.019,2.027-.506,2.885-2.713,2.871-2.132-.014-2.574-.886-2.566-2.781q.078-20.913-.014-41.825c-.013-2.278.823-2.825,2.967-2.88a6.1,6.1,0,0,1,5.452,2.593c9.467,11.756,19.07,23.4,28.633,35.08.381.466.812.891,1.654,1.808.073-1.362.158-2.213.158-3.063q.013-16.638.01-33.275c0-2.918,1.225-3.877,4.016-2.918a2.693,2.693,0,0,1,1.141,2.088c.12,3.539.059,7.085.059,10.628,0,10.321.033,20.643-.047,30.964-.008,1.144-.518,3.186-1.028,3.263-1.927.288-4.133,1.022-5.778-1-3.405-4.18-6.866-8.313-10.29-12.477q-9.831-11.955-19.653-23.919c-.476-.578-1.022-1.1-1.535-1.644Z"/><path d="M833.8,619.172v3.2q0,16.861,0,33.724c0,2.57-2.16,3.93-4.415,2.627-.556-.321-.82-1.549-.825-2.363-.054-10.086-.036-20.173-.036-30.259,0-4,.074-8.01-.029-12.011-.05-1.929.7-2.464,2.56-2.546a6.368,6.368,0,0,1,5.9,2.618c9.238,11.536,18.662,22.925,28.025,34.361.575.7,1.181,1.38,2.212,2.581.077-1.38.157-2.158.158-2.936q.012-16.747.009-33.494c0-3.009.2-3.117,3.1-3.1,1.623.012,2.141.665,2.122,2.218-.059,4.619-.018,9.24-.018,13.86,0,9.239.034,18.479-.041,27.718-.01,1.162-.481,3.261-.933,3.316-2,.242-4.221,1.067-5.958-1.08-5.472-6.762-11.045-13.442-16.574-20.158q-6.825-8.291-13.645-16.588C835.074,620.455,834.685,620.1,833.8,619.172Z"/><path d="M327.492,650.35V645.3q0-15.368,0-30.733c0-2.78,1.481-3.871,4.1-2.791.6.245,1.05,1.563,1.06,2.392.082,7.24.049,14.481.049,21.721,0,6.47.046,12.941-.041,19.41-.016,1.176-.206,2.81-.966,3.414-1.3,1.033-4.832.124-5.876-1.127q-4.885-5.853-9.712-11.755-10.13-12.309-20.24-24.633a16.132,16.132,0,0,1-1.172-1.906l-.823.528v2.446q0,16.753,0,33.506c0,3.125-.238,3.244-3.233,3.2-1.979-.028-1.989-1.21-1.987-2.606q.015-10.745,0-21.489c0-6.856.066-13.712-.036-20.566-.032-2.144.748-2.726,2.823-2.784a6.283,6.283,0,0,1,5.665,2.639c9.407,11.706,18.97,23.285,28.486,34.9.423.516.9.99,1.352,1.483Z"/><path d="M78.626,659.985c-11.447,0-20.327-5.108-23.829-14.5-6.5-17.43,3.252-36.9,26.791-34.94,10.233.853,18.259,5.675,21.353,15.94C108.445,644.745,97.622,660.205,78.626,659.985Zm20-24.627c.034-12.3-7.727-20.139-20-20.2-11.979-.059-20.091,7.985-20.11,19.942-.02,12.1,7.726,20.024,19.621,20.066C90.84,655.21,98.593,647.715,98.627,635.358Z"/><path d="M259.354,636.008c5.195,1.412,6.488,5.291,6.969,9.627s.785,8.681,1.192,13.307c-.886,0-1.949-.075-3,.016-1.79.156-2.539-.776-2.7-2.389-.179-1.76-.362-3.52-.476-5.285-.08-1.228,0-2.466-.074-3.695-.349-5.789-2.636-8.705-8.359-9.116-6.667-.479-13.387-.211-20.084-.269-1.535-.013-1.414,1.1-1.416,2.1-.007,5.314-.068,10.629.028,15.942.035,1.916-.428,2.753-2.553,2.763-2.189.012-2.731-.808-2.721-2.851q.1-20.91,0-41.82c-.011-2.117.67-2.808,2.782-2.778,8.548.12,17.1-.077,25.644.172,9.822.287,15.467,8.766,11.87,17.45C265.444,631.62,264.215,632.82,259.354,636.008ZM243.54,616.43v-.008c-3.382,0-6.764.044-10.145-.02-1.5-.028-2.031.555-2.011,2.037.061,4.3.078,8.61-.007,12.912-.033,1.678.682,2.1,2.2,2.068,3.689-.07,7.379,0,11.068-.028a79.567,79.567,0,0,0,9.666-.226c5.3-.693,7.836-4.173,7.428-9.528-.345-4.527-3.3-7.067-8.519-7.192C250,616.367,246.769,616.43,243.54,616.43Z"/><path d="M694.467,635.206c0-7,.039-14.008-.027-21.011-.017-1.8.443-2.657,2.448-2.628,7.309.1,14.624-.05,21.931.118,10.214.235,16.735,5.634,18.876,15.636,1.5,6.992,1.3,13.935-1.758,20.561-3.3,7.14-9.083,10.753-16.8,11-7.457.24-14.929.011-22.393.088-1.917.02-2.315-.844-2.3-2.525C694.5,649.367,694.467,642.286,694.467,635.206Zm5.28.126q0,4.041,0,8.084c0,2.771.075,5.546-.025,8.314-.065,1.8.609,2.451,2.415,2.421,5.08-.083,10.164.047,15.243-.05,8.019-.154,13.159-4.039,14.64-11.728a38.525,38.525,0,0,0,.456-12.131c-1.318-9.983-6.1-13.816-16.188-13.824-4.7,0-9.395.076-14.088-.037-1.957-.047-2.516.686-2.485,2.552C699.805,624.4,699.747,629.865,699.747,635.332Z"/><path d="M415.606,635.313c0-6.93.065-13.861-.039-20.789-.032-2.137.534-3.014,2.834-2.97,7,.135,14.015-.065,21.018.112,11.489.29,18.67,6.985,19.762,18.481.57,6,.489,12.017-2.215,17.657-3.425,7.144-9.153,10.89-17.006,11.094-7.31.189-14.629-.01-21.943.078-2.017.024-2.452-.855-2.436-2.643C415.644,649.327,415.607,642.32,415.606,635.313Zm16.022-18.882v-.011c-2.849,0-5.7.068-8.548-.026-1.719-.057-2.283.624-2.276,2.3q.069,16.635,0,33.271c0,1.586.57,2.195,2.164,2.176,5.237-.06,10.479.11,15.71-.066,8.2-.277,12.892-4.374,14.57-12.465a32.6,32.6,0,0,0-.233-14.2c-1.632-6.96-6.365-10.767-13.534-10.971C436.867,616.368,434.247,616.431,431.628,616.431Z"/><path d="M944.4,660.336c-3.178-.5-6.423-.743-9.52-1.55a14.93,14.93,0,0,1-11.438-13.54c-.065-.657.538-1.98.783-1.968a25.014,25.014,0,0,1,4.208.736c.1.022.133.419.171.647,1.289,7.687,6.635,10.263,13.639,10.424a37.682,37.682,0,0,0,10.246-1.066,10.24,10.24,0,0,0,5.231-3.8,6.5,6.5,0,0,0-2.816-10.063c-4.272-1.6-8.9-2.253-13.357-3.368a96.542,96.542,0,0,1-9.774-2.642c-4.013-1.468-6.755-4.274-7.1-8.817-.379-5.019,1.208-9.348,5.719-11.762,8.6-4.6,17.463-4.4,26.14-.118,3.763,1.856,5.723,5.3,6.349,9.4.113.738-.545,2.268-.9,2.284-1.38.064-3.469,1.137-4.03-.876-1.126-4.043-3.239-6.986-7.383-8.085-5.662-1.5-11.3-1.614-16.615,1.246a6.433,6.433,0,0,0-3.645,6.449,5.915,5.915,0,0,0,4.393,5.647c4.717,1.354,9.557,2.276,14.333,3.43a75.509,75.509,0,0,1,8,2.153c4.01,1.45,6.949,4.086,7.383,8.61.486,5.07-.909,9.5-5.23,12.577C954.787,659.411,949.712,660.114,944.4,660.336Z"/><path d="M881.683,635.239c0-7.006.058-14.013-.037-21.018-.027-2.021.654-2.671,2.665-2.658q16.4.113,32.8,0c1.935-.011,2.533.706,2.535,2.571,0,1.912-.868,2.309-2.553,2.3-9.162-.05-18.324.025-27.485-.06-1.976-.018-2.768.515-2.681,2.6.144,3.459.161,6.934,0,10.39-.106,2.214.764,2.709,2.812,2.687,8.621-.094,17.245-.045,25.868-.035,2.518,0,3.594,1.484,2.559,3.808-.244.549-1.467.925-2.243.931-8.545.066-17.092.041-25.638.044-3.307,0-3.311,0-3.314,3.252,0,3.773.1,7.548-.037,11.316-.074,2.1.613,2.821,2.757,2.8,9.161-.1,18.323-.046,27.485-.037,2.721,0,3.09.463,2.9,3.06-.091,1.268-.647,1.757-1.883,1.756q-17.322-.026-34.645,0c-1.843,0-1.868-1.144-1.866-2.461Q881.7,645.863,881.683,635.239Z"/><path d="M650.152,635.181c0-6.933.052-13.867-.033-20.8-.026-2.048.573-2.845,2.752-2.826,10.861.093,21.723.068,32.584.018,1.778-.008,2.669.4,2.67,2.425,0,2.008-.843,2.454-2.644,2.443-9.166-.057-18.334.026-27.5-.064-2.017-.02-2.731.589-2.649,2.63.138,3.461.135,6.935,0,10.4-.079,2.008.56,2.673,2.616,2.65,8.7-.1,17.409-.017,26.113-.064,1.684-.009,2.715.171,2.733,2.314.018,2.168-.883,2.54-2.764,2.525-8.55-.072-17.1-.034-25.652-.029-3,0-3,.008-3.008,3.1q-.009,5.546,0,11.092c.006,3.125.012,3.132,3.268,3.134q13.519.006,27.038.006c2.738,0,3.047.419,2.869,3.083-.088,1.3-.7,1.73-1.9,1.729q-17.331-.02-34.664,0c-1.872,0-1.829-1.224-1.829-2.5Q650.154,645.811,650.152,635.181Z"/><path d="M181.241,635.288c0-7.009.053-14.019-.034-21.027-.025-1.976.573-2.714,2.629-2.7q16.29.12,32.581,0c1.959-.012,2.5.737,2.506,2.588.01,1.943-.9,2.29-2.56,2.281-9.012-.044-18.025.041-27.035-.062-2.2-.025-3.016.609-2.911,2.865.16,3.458.106,6.931.017,10.395-.045,1.774.544,2.428,2.392,2.411,8.78-.078,17.561,0,26.341-.059,1.739-.011,2.477.475,2.489,2.345.012,1.94-.7,2.513-2.574,2.5-8.472-.072-16.945-.032-25.418-.029-3.193,0-3.2.007-3.2,3.154-.007,3.852.089,7.706-.038,11.553-.066,2.021.62,2.676,2.647,2.657,9.165-.087,18.331-.044,27.5-.032,2.649,0,2.88.34,2.79,2.932-.049,1.4-.656,1.887-1.987,1.884q-17.1-.03-34.2,0c-1.787,0-1.942-1.032-1.938-2.4C181.253,649.46,181.242,642.374,181.241,635.288Z"/><path d="M784.71,660.014c-9.045,0-16-2.353-21.042-8.811-8.976-11.483-5.692-30.735,6.76-37.463,9.828-5.31,19.88-4.764,29.368,1.334a15.715,15.715,0,0,1,6.683,10.178c.214.939,1.008,2.4-.767,2.524-1.49.1-3.4,1.029-4.324-1.353-.712-1.844-1.369-3.944-2.71-5.254a21.158,21.158,0,0,0-6.764-4.583,22.819,22.819,0,0,0-15.41-.287c-7.171,2.233-11.638,8.144-12.029,16.358a32.13,32.13,0,0,0,.851,9.361c2.115,8.268,8.524,13.044,17.093,13.124a37.129,37.129,0,0,0,6.2-.374c6.777-1.088,11.019-5.076,12.9-11.648a3.464,3.464,0,0,1,4.933-2.2c.412.24.6,1.315.489,1.928a19.725,19.725,0,0,1-9.224,13.51A23.1,23.1,0,0,1,784.71,660.014Z"/><path d="M562.747,658.414c-4.229,1.39-5.571.82-7.181-2.87-1.323-3.034-2.691-6.05-3.951-9.11a2.624,2.624,0,0,0-2.8-1.841q-10.278.084-20.558,0a2.607,2.607,0,0,0-2.775,1.857c-1.244,2.984-2.6,5.922-3.93,8.867-1.844,4.068-2.049,4.162-6.952,3.334a18.927,18.927,0,0,1,.627-1.868c6.472-14.307,13.013-28.584,19.382-42.937,1-2.245,2.5-2.234,4.415-2.285a3.365,3.365,0,0,1,3.7,2.277c6.315,14.125,12.753,28.194,19.144,42.286C562.205,656.862,562.454,657.644,562.747,658.414Zm-34.175-18.842h19.991c-3.346-7.543-6.521-14.7-9.959-22.445C535.091,624.988,531.882,632.168,528.572,639.572Z"/><path d="M9.279,635.247c0-7,.057-14.007-.035-21.009-.026-2,.619-2.7,2.65-2.674,8.079.109,16.163-.046,24.239.14,7.771.178,12.552,4.938,12.9,13.052.283,6.648-2.552,12.337-10.849,13.742-4.8.814-9.8.469-14.717.6-2.23.06-4.467.09-6.694-.013-1.7-.078-2.321.555-2.3,2.26.071,4.924-.039,9.852.051,14.775.036,1.985-.443,2.888-2.689,2.9-2.357.008-2.737-1.115-2.56-2.992a2.225,2.225,0,0,0,0-.231Q9.278,645.522,9.279,635.247Zm17.018-18.8v-.022c-3.235,0-6.472.038-9.706-.017-1.44-.025-2.118.466-2.1,1.99.046,4.622.058,9.245-.009,13.866-.024,1.662.711,2.1,2.239,2.081,4.621-.06,9.244.013,13.866-.035a36.474,36.474,0,0,0,5.975-.359c4.954-.878,7.231-4.062,6.894-9.3-.334-5.209-3.041-7.989-8.145-8.178C32.309,616.354,29.3,616.444,26.3,616.444Z"/><path d="M819.817,635.588c0,6.921-.062,13.842.038,20.762.029,2.045-.691,2.636-2.677,2.653-2.063.018-2.612-.726-2.6-2.7q.1-20.992.007-41.986c-.008-1.88.377-2.784,2.527-2.781s2.772.761,2.745,2.831C819.758,621.438,819.817,628.513,819.817,635.588Z"/><path d="M279.9,635.588c0,6.921-.062,13.842.038,20.762.029,2.045-.691,2.636-2.676,2.653-2.063.018-2.613-.726-2.6-2.7q.1-20.992.007-41.986c-.008-1.88.377-2.784,2.528-2.781s2.772.761,2.744,2.831C279.837,621.438,279.9,628.513,279.9,635.588Z"/><path d="M751.444,635.357c0,7-.064,14,.041,20.993.03,2.042-.659,2.645-2.655,2.653-2.05.009-2.634-.717-2.625-2.7q.1-20.994,0-41.987c-.012-2.138.713-2.756,2.794-2.78,2.211-.025,2.494,1.009,2.477,2.828C751.405,621.361,751.444,628.359,751.444,635.357Z"/><path d="M978.572,614.97v7.77l-.712.048a6.08,6.08,0,0,1-.455-1.551c-.047-2.616-.072-5.234.019-7.847.019-.563.551-1.107.847-1.66.6.37,1.456.6,1.76,1.134,1.392,2.465,2.63,5.018,4.141,7.963,1.416-2.725,2.577-5.118,3.9-7.415a7.98,7.98,0,0,1,1.913-1.676,8.215,8.215,0,0,1,.864,2.312c.118,2.225.067,4.462.025,6.692a13.922,13.922,0,0,1-.329,2.026l-.823-.013v-7.748l-.735-.16c-1.062,2.045-2.084,4.112-3.209,6.122a12.357,12.357,0,0,1-1.554,1.845,11.356,11.356,0,0,1-1.734-1.919c-1.12-1.99-2.1-4.057-3.141-6.094Z"/><path d="M977.025,611.9c-.683.584-.784.744-.911.77-3.707.754-3.708.752-3.708,4.587v5.459l-1.085.059a11.515,11.515,0,0,1-.4-1.972c-.057-1.84-.1-3.687,0-5.523.1-1.712-.393-2.649-2.292-2.479a5.565,5.565,0,0,1-1.606-.34l.076-.561Z"/></svg>