<svg id="Layer_1" data-name="Layer 1" xmlns="http://www.w3.org/2000/svg" viewBox="0 0 1000 1000"><path d="M500,0C223.86,0,0,223.86,0,500s223.86,500,500,500,500-223.86,500-500S776.14,0,500,0ZM772.07,509.14c-.62,3.69-12.31,7.71-19,7.84-48.87.93-97.75.79-146.63,1.26-11.36.11-22.71,1.28-34.84,2v202c35.49,0,69.89,1.58,103.93-1.25,7.36-.62,19.45-17.67,18.64-26.12C693,682.55,683,670.49,675,659.59c-3.05-4.13-11-4.68-20.4-8.29l105.94-81.11,5.63,3.39C762.54,610.29,759,647,755.3,683.72c-2.3,22.82-5.52,45.56-7.07,68.42-.89,13-6.08,20.57-18.21,25.59-52.15,21.61-104,43.9-156,66-13.14,5.58-26.58,10.55-39.29,17-22.42,11.31-43.52,11.67-67.14,1.1C401.8,832.28,335,805,268.93,776.07c-6.38-2.79-13.8-11-14.62-17.5-7.26-57.41-13.17-115-19.38-172.55-.44-4.18-.05-8.45-.05-19.28l106.91,81.71c-10.7,9-23.41,15.45-29,25.74-5.23,9.58-6.35,24.52-2.68,34.73,2.45,6.79,16.3,12.8,25.36,13.3,30,1.64,60.08.62,91.86.62V517.34H346.91c-33.79,0-67.6-.64-101.36.28-14.16.39-19.3-5.12-19.94-18.38-.85-17.74-2.65-35.43-4.2-55.08H778.59C776.69,465.9,775.69,487.74,772.07,509.14Zm24.22-222.93C793,321,788.81,355.73,786.06,390.56c-1.19,15.15-7,21.11-22.69,21.08q-264.27-.57-528.54,0c-11.84,0-20.23-3.22-21.41-15.31C207.28,333.66,201.69,271,196,208.3c-.1-1,1.1-2.2,3-5.7L319.15,303.06l-34.89,40.68c16.66,12.5,32,25.17,48.71,35.83,4.53,2.89,13.77,1.55,19.41-1,24-10.87,47.41-22.92,72.53-35.28-8.06-11.09-14.23-21.66-22.42-30.33-10.12-10.72-9.38-18,1.21-28.41,31.76-31.07,62.44-63.25,92.24-93.67l109.84,109-31.67,43.57c26.38,12.64,51.5,25.06,77,36.57,4.32,2,11.74,2,15.43-.47,16.46-11.06,32.09-23.36,49-35.93l-35.77-40.5L804,199.63C801.09,232.47,798.87,259.36,796.29,286.21Z"/></svg>