<svg width="512" height="512" viewBox="0 0 512 512" fill="none" xmlns="http://www.w3.org/2000/svg">
<path d="M225.943 400.592L222.571 401.702C200.864 408.912 168.765 420.05 139.945 433.314C138.421 434.052 137.405 436.087 137.405 436.087C136.85 437.333 136.204 438.859 135.465 440.569L135.372 440.8C132.139 448.149 127.706 459.193 125.766 463.722L124.288 467.281C124.057 467.836 124.196 468.482 124.657 468.899C124.934 469.176 125.258 469.315 125.627 469.315C125.812 469.315 126.043 469.268 126.274 469.176L129.738 467.513C137.636 463.769 147.612 458.085 158.05 453.092L158.419 452.909C178.325 443.481 200.771 432.804 214.304 426.334C214.304 426.334 216.474 425.179 217.583 423.006L227.698 402.673C227.975 402.165 227.882 401.516 227.513 401.055C227.097 400.592 226.497 400.408 225.943 400.592Z" fill="black"/>
<path d="M145.025 369.119C146.457 366.346 153.015 353.684 154.493 350.864L154.77 350.356C198.739 267.4 252.315 189.11 313.973 117.754L315.68 115.767C316.19 115.166 316.282 114.242 315.913 113.548C315.497 112.809 314.711 112.439 313.926 112.532L311.341 112.901C270.881 118.493 229.915 126.211 189.548 135.87C185.53 136.979 182.944 139.614 182.389 140.215C152.184 176.401 123.595 214.483 97.3616 253.534C96.0684 255.522 95.6065 258.111 95.9298 260.237C96.2069 262.316 102.534 311.073 112.141 348.508C88.3092 417.092 67.0176 507.581 67.0176 507.581C66.8328 508.181 66.9714 508.783 67.2947 509.291C67.6642 509.799 68.2184 510.076 68.865 510.076H82.4436C83.3211 510.076 84.0601 509.568 84.3834 508.783L85.3072 506.24C99.1629 468.436 114.958 431.095 132.417 394.677C136.435 386.218 145.025 369.119 145.025 369.119Z" fill="black"/>
<path d="M333.879 132.591L333.832 130.003C333.787 129.171 333.279 128.478 332.54 128.2C331.8 127.923 330.922 128.154 330.369 128.755L328.66 130.696C256.749 213.929 196.291 306.269 148.997 405.216L147.889 407.526C147.519 408.267 147.658 409.144 148.212 409.744C148.581 410.115 149.09 410.346 149.598 410.346C149.829 410.346 150.106 410.299 150.383 410.207L152.738 409.236C193.151 392.506 234.395 377.995 275.361 366.116C277.809 365.425 279.888 363.668 281.043 361.403C299.1 326.372 340.807 258.575 340.807 258.575C341.868 257.049 341.592 254.784 341.592 254.784C341.592 254.784 334.34 173.63 333.879 132.591Z" fill="black"/>
<path d="M426.85 15.5732C416.644 6.69987 401.818 2.54049 378.817 2.03212C357.942 1.56997 333.14 6.09907 305.012 15.3422C300.81 16.821 297.437 19.178 294.436 22.0897C265.848 48.9407 238.043 77.4558 211.764 106.849L209.731 109.067C209.177 109.714 209.085 110.638 209.5 111.331C209.916 112.071 210.794 112.441 211.625 112.256L214.581 111.609C256.933 102.551 299.702 95.6184 341.684 91.0431C344.455 90.7195 347.319 91.6437 349.351 93.5386C351.43 95.4334 352.585 98.1602 352.538 100.979C351.844 142.666 353.368 184.537 357.063 225.437L357.295 228.118C357.387 228.95 357.942 229.597 358.773 229.827C358.911 229.874 359.05 229.874 359.234 229.921C359.835 229.921 360.482 229.644 360.896 229.089L362.422 226.916C386.068 193.179 411.794 160.366 438.859 129.309C441.907 125.843 442.692 123.671 443.247 120.528C451.744 66.0867 438.628 25.7869 426.85 15.5732Z" fill="black"/>
</svg>
