<svg xmlns="http://www.w3.org/2000/svg" viewBox="0 0 1000 1000"><path d="M67.254,549.354c.876-2.181,1.751-4.361,2.811-6.988l-9.2-2.207c.641-2.779,1.18-5.112,1.771-7.674-1.2-.425-2.284-1.183-3.309-1.112-6.319.442-12.656,1.687-18.924,1.384-3.254-.157-7.534-2.127-9.348-4.694-5.347-7.568-.825-14.97,8.913-15.32,5.184-.187,10.4.36,15.57.016,11.757-.784,12.193-1.725,5.622-12.749l8.822-4.459-1.771-2.833-10.632-1.494,16.09-9.206-12.343-5.061,6.322-3.236-.155-.927L36.868,477c3.831-5.866,6.137-9.4,7.987-12.232-2.742-5.254-7.05-10.047-7.356-15.083-.3-4.87,3.529-9.992,6.27-16.809-3.056-3.955-2.012-8.229,6.58-8.949-4.973-8.261-4.973-8.261,9.938-12.6l-17.246-5.675c13.65-10.89,25.225-2.953,36.806-.863l1.17-2.758L60.235,390.233c7.564-5.5,16.215,6.536,26.849-.539l-16.5-10.76c2.89-3.622,2.8-3.319,9.859-1.287,3.375.978,7.153.548,12.456.856l-7.464-11.912c19.437-4.18,26.264-2.367,25.829,5.453l23.878,3c-5.653-16.408-3.4-20.21,13.076-23.727,4.43-.945,8.868-1.854,13.916-2.908.386-2.112-5.18-8.809,6.905-4.876-11.927-8.187-21.129-14.328-30.109-20.774-2.488-1.787-4.163-4.663-6.483-6.733-4.73-4.223-9.495-8.439-14.542-12.263-2.833-2.145-6.536-3.2-2.933-7.791,1-1.27.688-3.57,1.344-7.678-4.145,2.078-7.728,2.758-8.829,4.785-.914,1.684.429,5.472,1.946,7.411,2.962,3.789,6.843,6.844,10.156,10.38,3.02,3.222,7.346,7.07-2.031,6.94-.749-.009-1.526,1.985-2.053,2.717-6.6-7.132-13.494-13.584-18.977-21.068-1.807-2.464-1.314-10.16.431-11.078,8.652-4.545,5.859-8.343.574-12.907-.909-.785-1.431-2.018-3.518-5.073l10.678,6.241,1.834-1.557-13-15.962c12.23,1.49,17.945,9.993,23.577,18.895-.245-6.542,1.516-13.273-6.822-16.72-2.162-.894-3.134-5.8-3.562-9-.115-.865,3.775-2.263,6.355-3.716-7.55-5.918-1.059-12.073.719-18.331l12.041,8.986c8.05-8.094,7.546-9.034-1.074-16.5-2.768-2.4-3.048-7.668-5.327-14.025l17.265,3.666,3.218-12.178,14.168,2.367c-2.117-7.289-3.844-13.236-5.829-20.068,4.363,1.516,8.3,2.865,12.221,4.254,6.871,2.432,13.654,5.159,20.632,7.226,3.788,1.119,7.228-4.963,5.221-9.267-.789-1.692-2.566-2.922-4.421-4.931l5.876-1.093c-4.39-6.9-17.7-6.154-14.8-19.661l26.708,16.131c-5.522-7.225-9.67-12.315-13.4-17.7a21.424,21.424,0,0,1-2.646-7.282,8.437,8.437,0,0,1,3.445-1.7,29.384,29.384,0,0,1,4.363,6.855c2.407,5.91,6.363,9.613,13.489,11.436-3.7-10.7-13.608-19.149-5.957-31.615l6.92,7.29,2.3-1.4-5.654-12.832c7.332-1.421,14.207-5.518,20.207,1.125a132.83,132.83,0,0,1,10.235,12.424c5,7.1,8.864,15.2,19.414,15.711.866.041,3,6.275,1.928,8.075-3.622,6.09-1.557,11.274,5.69,12.73,3.869.779,7.553,2.484,12.246,4.086.822-3.344,6.873-6.244-1.761-11.874-4.512-2.941-4.445-12.91-7.088-21.9-10.265-1.413-22.95-5.155-29.583-19.839l6.921,3.411c.756-9.424-16.637-7.65-9.723-20.508l22.653,27.72,6.458-5.824-7.622-15.476,1.275-.856c2.208,2.01,4.568,3.877,6.6,6.056,4.744,5.1,8.684,13.2,16.62,3.544.531-.646,2.2-.357,5.117-.734-2.047,1.637-2.854,2.4-3.775,2.983a36.342,36.342,0,0,1-3.292,1.631l12.8,5.956-1.223.855c2.214,3.544,4.62,6.975,6.587,10.646,2.259,4.213,4.128,8.636,6.177,12.953-.253.836-.515,1.683-.776,2.531,1.126,5.939,5.148,8.082,10.726,9.166,3.594.7,6.766,3.421,10.356,4.318s7.473.67,11.226.935l-.244-.167,4.139,8.014c5.076-4.229,8.212-7.007,5.981-14.562-2.133-7.225,1.1-15.867,0-23.6-1.44-10.126-4.837-19.971-7.355-29.946-.882-3.5-1.652-7.024-2.766-11.793l8.283,1.6c1.23-5.188,1-10.985,3.771-14.2,3.544-4.117,6.843-11,15.867-6.011,4.911,2.715,12.557.489,19.176.489,2.444-5.969,1-10.388-4.032-14.3-7.522-5.83-9.917-15.789-7.015-25.436.413-1.371-.726-3.21-1.254-5.255l7.491-.707-3.7-4.374,12.085-6.39c.517,6.342.848,12.138,1.506,17.9.507,4.438,14.093,13.2,20.209,13.263-1.272,4.766-6.722,8.383-2.5,14.685,3.09,4.6,5.335,9.145,13.828,8.992-2.065-3.5-3.649-5.942-4.981-8.512-1.654-3.188-4.353-6.511-4.285-9.726.07-3.264,1.306-3.239-2.372-5.171-.29-3.343-.583-6.685-.9-10.354l-5.144,3.6c-1.821-3.533-3.455-6.523-4.926-9.589-4.916-10.244-2.717-14.815,8.432-17.777,2.656-.7,5.284-1.523,8.615-2.489l2.922,9.011-7.529,1.068c.9,4.216,1.21,8.423,2.825,12.044.856,1.905,4.155,4.138,6.068,3.91,9.39-1.145,10.066-.831,12.052,10.258l-4.549-1.931c.528,14.818,8.408,25.968,16.608,36.975,5.846,6.3,2.28,14.084,3.358,21.141.936,10.388,2.5,20.76,2.64,31.155.151,11.5,7.994,22.305,2.883,34.111-.8,1.844-2.5,4.681-3.733,4.651-2.269-.053-5.35-1.305-6.577-3.1a110.928,110.928,0,0,1-8.687-15.625c-.893-1.9-.367-4.473-2.4-7.1-.555,2.966-1.833,6.01-1.515,8.88.646,5.923,1.388,10.815-7.088,6.354-.653-.343-2.27,1.145-4.593,2.411l10.45,6.448c-5,7.513-1.955,13.621,3.974,19.475-6.469,6.739-8.4-.905-12.831-4.742,2.009,7.21,3.555,12.753,5.1,18.3l-2.114,1.791-14.291-4.987c-1.048,3.565-2.091,7.108-3.144,10.684-2.554-.122-6.939-1.192-7.461-.211-7.877,14.8-28.181,11.1-38.211,24.808-3.767-1.723-9-3.082-8.774,2.219-5.058,4.333-8.631,6.661-11.259,9.785-7.275,8.651-11.976,19.586-23.952,23.873-2.781.994-4.195,5.814-7.428,10.654l-6,.634c-.464,6.782-.9,13.183-1.344,19.584l2.566.423c8.626-6.441,17.781-12.294,25.744-19.471,10.369-9.345,21.038-17.828,34.057-23.255,15.677-6.535,30.61-15.535,46.823-19.974,42.363-11.594,85.373-14.636,128.324-2.158a102.343,102.343,0,0,1,17.518,7.476c9.079,4.616,14.024,10.71,13.254,22.543-2.018,30.976,28.763,56.537,57.8,48.94a62.707,62.707,0,0,0,12.68-5.477c11.365-5.9,18.926-4.933,29.128,3.927,16.364,14.207,28.6,31.5,39.228,50.292,14.438,25.529,23.15,52.762,27.4,81.648.828,5.632,3.506,10.977,4.512,16.6a66.554,66.554,0,0,1,.7,14.829c-.592,12.22-1.367,24.441-2.466,36.628-.58,6.442-2.257,12.78-2.9,19.219-.259,2.6.929,5.351,2.7,7.952,6.863-7.2,4.155-15.413,3.7-23.114l12.184-9.1-6.721-4.766c3.01-7.3,6.556-14.024,8.323-21.188.638-2.585-2.994-6.224-5.023-10.028,8.049-6.653,7.792-16.353,7.13-26.208a5.378,5.378,0,0,1,.977-3.824c7.837-7.482,6.54-17.432,6.059-26.427-.324-6.059.742-9.2,4.452-10.4l8.99,3.88c.374-2.879.746-5.76,1.081-8.34l26.763-12.953-.149-3.594c3.479,2.555,6.637,5.95,10.524,7.444a37.461,37.461,0,0,0,14.467,2.091c.79-.027,1.06-6.391,2.125-9.644,1.222-3.727,2.144-8.335,4.841-10.617,4.3-3.64,9.206-6.024,13.442-10.483,5.28-5.556,14.3-7.827,22-10.713,5.755-2.155,10.443-3.132,15.74-8.661,8.332-8.7,16.712-21.374,32.586-19.815-.3,2.838-.662,6.2-1.085,10.157l-5.988-1.314q.1,1.452.2,2.906c3.525-.438,7.21-.367,10.527-1.453,3.46-1.134,6.556-3.38,9.81-5.14l1.668,2.455-4.353,7.821,10,2.476-10.457,9.9c4.653,1.043,8.906.809,11.157,2.818,2.5,2.236,2.688,6.869,4.766,9.832,4.371,6.221,4.033,15.577,13.065,18.974,1.426.536,2.389,6.538,1.246,8.882-3.41,7-3.855,13.056,2.1,18.7,3.874,3.666,4.637,6.918-.3,10.564a23.914,23.914,0,0,0-6.152,7.21c-1.393,2.406-2.667,5.46-2.42,8.079.263,2.78,3.771,7.561,3.478,7.748A148.357,148.357,0,0,1,933.752,473.3c-3.042,1.39-7.2.547-10.021,2.173-4.534,2.624-8.432,6.378-12.471,9.81a63.9,63.9,0,0,0-5.086,5.586c10.283,1.733,16.026-16.647,24.319-7.758l7.287-6.966,2.154,3.649c2.963,1.576,5.839,4.3,8.9,4.529,13.809,1.045,20.8,13.588,13.856,25.709-.558.977-1.3,1.833-2.411,3.376,7.747,5.045,4.515,8.467-1.488,11.976-2.146,1.254-3.363,4.1-5.01,6.214,2.269.963,5.02,1.423,6.683,3.018,2,1.915,4.913,6.055,4.232,7.057-4.342,6.39-2.215,12.927-2.088,19.594.093,4.936-1.969,9.876-2.535,14.875-.3,2.68.528,5.487.895,8.643l-16.349,7.322a99.945,99.945,0,0,1-1.454,11.746c-2.514,10.8-6.8,20.814-1.249,32.71,3.055,6.531.546,15.658-1.1,22.653-2.307,3.961-4.546,7.963-6.942,11.869-1.931,3.148-4.051,6.177-6.524,9.921,4.925,4.975,10.754,10.871,4.118,16.856H907.608c7.591,8.8,10.243,17.94,5.9,27.812A51.936,51.936,0,0,1,905,738.9q-17.067,19.32-34.853,38.009a91.082,91.082,0,0,1-14.987,12.428c-4.481,3.015-9.723,4.9-15.134,7.527l-3.852-3.283c-2.212,12.021-11.94,21.464-5.92,33.922-5.582,6.7-3.88,17.677-13.584,22.157-5.657,2.611-10.367,7.535-16.154,9.532-5.443,1.873-11.746,1.222-17.653,1.833-.463.048-.792,1.38-1.667,3.027l8.031-.6c-3,3.219-4.766,4.87-6.232,6.763s-2.612,4.033-4.179,6.5l-5.907-5c-10.414,12.155-19.064,26.2-35.928,30.992-2.229.634-3.8,3.311-5.918,4.671-3.03,1.955-6.147,4.253-9.515,4.9-1.039.2-3.02-4.521-4.755-7.278-4.53,7.078-16.478,9.847-12.766,22.363l-9.381-7.864c-1.614,2.689-3.086,5.133-5.828,9.7-3.487-9.187-6.032-15.894-8.574-22.571-1.956-2.216-3.922-4.462-5.883-6.708l10.735-5.041c-2.739-2.475.939-11.547-8.856-10.711l5.063,3.375c-4.224,6.843-7.041,4.033-9.378-1.267l-2.566,5.621c-4.442-7.815-8.528-15-12.964-22.8l-9.909,9.247c11.32-.969,11.035,5.675,12.256,11.16-6.322-1.233-5.817,2.759-4.615,6.521a87.377,87.377,0,0,0,4.472,9.865l.227-.229-5.435,2.623c-1.368-4.98-2.46-9.557-3.936-14.006-.556-1.675-2.012-4.362-3.048-4.357-7.38.04-10.227-6.327-15.059-9.855-1.635-1.193-3.856-1.58-5.81-2.335l-1.291,1.8c3.544,3.324,7.293,6.458,10.558,10.035,2.3,2.519,5.377,5.522,5.622,8.512.9,11.052.855,22.187.988,33.293.046,3.883-.537,7.767-.632,11.655a59.3,59.3,0,0,0,.326,6c-11.764-1.536-22.853-2.368-33.67-4.564-11.342-2.3-20.814,7.668-32.551,3.857v4.313l-1.91,1.434-5.642-9.882L558.362,962.8c-1.179-5.178-1.047-9.488-3.07-12.175-2.276-3.024-6.5-4.584-10.325-7.079l-3.177,9.513,7.77,3.865-15.847,11.632c-.992-4.538-1.2-8.033-2.572-11-1.2-2.586-3.7-4.566-5.621-6.815l-3.158.839v20.316l-2.887.507-10.256-11.672c1.758,9.274-4.879,12.465-10.765,12-4.347-.34-13.72-.726-10.289-10.855-5.572-1.1-8.469.032-7.873,5.909a16.51,16.51,0,0,1-.45,6.747c-.644,1.911-2.38,3.455-3.633,5.16-1.8-1.487-4.577-2.65-5.192-4.522-1.5-4.594-1.055-10.225-9.957-10.991l5.734,16.225-8.147,6.6c-2.355-4.277-2.4-10.67-10.711-10.5-2.877.06-5.9-6.786-8.878-10.51-7.349,6.3-7.349,6.3-16.062-11.047l-8.464,15.019-13.81-12.893,4.08-10.239-11.472-3.065-.991,16.62-2.643.807c-3.055-8.944-6.1-17.888-9.678-28.381l8.485-14.623-9.653,3.46c-.9-12.675,4.485-22.89,10.877-33.55l5.124,6.416,8.211-26.826c2.49-8.138,4.663-16.4,7.7-24.328.715-1.865,4.35-2.608,7.054-4.094,1.737-5.817,3.666-12.289,5.6-18.76l-3.038-1.082c-2.666,5.688-5.332,11.377-9.349,19.951a85.411,85.411,0,0,1-1.913-9c-.261-2.975-.062-5.988-.062-10.143l-27.811,3.24,4.306-13.28-12.709,5.052-1.892-1.581,7.659-11.651-.987-1.506-32.3,22.451-2.425-2.444,5.147-10.337-9.41,2.125c.871-9.487,1.694-18.453,2.516-27.42l-2.1-.122-6.218,10.11-2.7-.525a108.44,108.44,0,0,0-2.33-11.872c-.554-1.822-2.507-3.217-3.827-4.806-1.048,1.458-2.152,2.879-3.137,4.378q-6.093,9.288-12.126,18.615a16.051,16.051,0,0,0-2.246,3.64c-2.822,9.155-2.777,9.166-12.268,12.473-.314-3.371-.62-6.65-.957-10.257l5.341-1.742-2.022-1.344c1.645-3.455,3.705-6.785,4.8-10.406a17.786,17.786,0,0,0,.611-9.182c-.932-3.544-3.3-6.7-5.637-11.14-6.242,4.311-13.5,8.03-18.869,13.579-2.658,2.747-2.261,8.844-2.466,13.461-.192,4.277,3.442,9.961-4.986,10.038-4.04-6.207-7.577-12.909-13.687-17.081l-2,1.819,2.85,5.5-2.311-.813-8.04,13.565L248.935,814l12.492-8.442,1.057,1.332c-1.419,3.178-2.836,6.349-4.821,10.787,5.067-3.272,8.817-5.694,12.566-8.118q2.285,16.882,4.567,33.764l1.815,1.5c3.155-4.759,6.7-9.307,9.385-14.319,5.848-10.926,5.668-11.023,16.5-2.435l-30.313,29.312c11.172,7.536,3.292,14.492,1.023,19.406-2.662,5.763-9.173,9.747-14.8,15.276l-6.7-14.479-3.264.944c1.6,5.49,2.258,11.526,5.054,16.316,2.842,4.866,7.789,8.5,11.81,12.674l8.057-5.948c-1.4,5.444-2.358,9.177-3.319,12.91l.637-.038L258.927,925.9c-1.8-7.353-6.226-9.288-15.7-6.178.211-2.394.4-4.482.534-6.062l-10.169-7.641-1.894-2.218-4.379,6.8-17.136-5.329L196.337,887.2c-6.484-.1-5.315-6.881-4-14.713l-5.681,4.923c-15.162-3.9-24-14.42-31.813-27l-8.291,2.15c0-3.029-.091-5.681.03-8.323.085-1.833.458-3.666.7-5.48-3.666-3.016-7.463-7.8-12.391-9.826-8.5-3.5-6.6-7.97-2.411-13.839l-7.245-3.666,6.65-8.026c-8.555-5.575-15.584-4.1-23.6,4.091.635-8.791,1.052-14.542,1.492-20.634-10.021-5.073-11.655-10.925-5.722-25.86l-19.468.855L82.5,760.184l13.51-18.016-12.768,2.795c-1.816-4.4,4.211-11.487-7.234-9.214l1.48-2.519,15.489-6.6-.056-2.277c-9.279,1.881-12.6-3.569-15.8-10.375a54.775,54.775,0,0,0-10.447-14.685c-5.942-6.048-4.264-11.885-.017-16.978,5.7-6.844,12.446-12.8,18.783-19.18-9.581-4.331-15.559-1.674-20.286,7.693-1.182,2.337-5.073,3.6-7.982,4.574-.762.255-2.932-2.255-3.581-3.851-.245-.611,1.762-2.653,3.1-3.275,2.968-1.381,6.163-2.277,9.28-4.743-14.061-3.766-21.6-13.822-28.788-24.412-2.241-3.3-5.787-5.831-7.57-9.312-7.87-15.36-.115-25.99,10.265-37.008,7.431-7.89,16.334-13.78,23.708-20.944,6.888-6.689,16.673-8.4,21.938-16.357-7.465-7.371-7.926-7.4-16.391-.285L67.046,549.9A2.633,2.633,0,0,1,67.254,549.354ZM210.615,752.777l-6.843,10.731c4.07-1.673,6.823-1.985,8.188-3.526,3.4-3.842,6.263-3.521,10.554-1.267,2.212,1.161,7.21.668,8.648-1.028,4.364-5.145-1.549-7.745-4.478-10.012-1.385-1.073-5.19.638-7.75,1.52-2.933,1.013-5.706,2.5-8.547,3.788,4.564-4.692,9.3-9.238,13.6-14.16,1.5-1.71,1.935-4.348,2.858-6.562-1.854-.437-3.761-.721-5.555-1.336-10.056-3.448-1.9,6.768-6.49,7.219-2.751,1.019-6.147,2.038-7.088,4.155-1.327,2.971-.832,6.755-1.117,10.192Q208.607,752.631,210.615,752.777ZM891.3,405.181c-6.444-2.829-12.19-3.291-16.037,4.2a6.015,6.015,0,0,1-3.511,2.321c-8.34,2.413-16.818,4.4-25.022,7.195-1.533.522-2.044,4.05-3.485,7.189l51.977-15.446-4.087-5.67c8.31,2.558,20.573-.977,25.021-8.139C908.057,400.227,897.513,395.45,891.3,405.181Zm-21.213,98.243,21-4.145-9.617-16.693c-5.4,1.371-11.037,3.5-12.4-5.377L823.79,496.884l.26,1.264,18.612-2.9a8.72,8.72,0,0,1-4.744,3.655c-7.455,2.143-12.458,5.2-6.273,13.627a5.171,5.171,0,0,1,.315,3.241c-.2,1.846-.635,3.666-.978,5.5,3.587.4,7.589,1.98,10.657.9,4.138-1.456,7.557-4.957,11.686-7.864l-11.2-2.086.1-2.6Zm-342.346,7.814c0-3.473-.137-6.032.022-8.572q2-32.007,4.1-64.007c.312-4.8-.725-9.84-6.267-9.128-4.058.52-8.348,3.809-11.256,7.02-1.744,1.925-1.109,6.069-1.407,9.228-1.278,13.526-1.921,27.149-4.046,40.539a27.783,27.783,0,0,1-7.849,14.463c-3.656,3.558-8.82,2.109-9.166-4.012-.8-14.176-.88-28.4,7.577-40.918,1.609-2.383,4.135-4.377,5-6.966.918-2.734.367-5.966.447-8.979-2.72.039-5.732-.676-8.11.244-11.538,4.471-18.252,14.022-20.223,25.321-2.51,14.385-3.119,29.207-3.323,43.851-.122,8.432,5.972,13.237,14.56,12.306,6.852-.743,13.514-3.243,20.271-4.965,2.388,6.006-1.144,9.165-5.621,12.642-30.829,23.952-61.714,47.837-92.05,72.4-11.2,9.064-21.148,19.713-31.248,30.049-2.373,2.431-4.427,6.66-4.11,9.807.308,3.043,3.635,7.885,6.045,8.145,4.277.463,10.3-.528,13.094-3.369,25.729-26.212,51.1-52.746,80.478-75.047,10.868-8.25,21.464-16.856,33.118-26.03,0,24.979.008,47.769,0,70.557,0,11.561-.638,23.162.128,34.67.551,8.271,6.149,11.946,13.687,10.858,6.721-.969,10.482-6.276,9.446-13.876C529.21,634,525.9,620.6,525.521,607.105c-.611-22.027.855-44.1.946-66.161.026-5.84,1.691-9.927,6.515-13.03,42.305-27.215,84.526-54.521,132.666-70.907,5.408-1.84,10.321-6.1,14.478-10.225,1.875-1.862,2.671-6.831,1.5-9.165s-5.8-4.828-8.2-4.252a124.719,124.719,0,0,0-20.812,7.6c-10.034,4.425-13.1,2.811-13.2-8.216-.113-12.091.631-24.2.063-36.265-.209-4.432-2-11.05-5.053-12.511-3.775-1.8-9.768.218-14.512,1.589-2.507.726-4.142,4.073-6.623,5.377-4.305,2.255-8.856,5.061-13.49,5.457-10.962.938-17.551,4.676-18.441,14.558-1.5,16.689-1.973,33.484-2.417,50.249-.169,6.34,3.967,7.73,9.516,5.866,8.564-2.874,10.672-9.6,10.842-17.7.162-7.656.107-15.379,1.123-22.939,1.076-8,3-16.1,10.237-21.142,2.111-1.466,5.406-2.519,7.7-1.943,1.374.345,2.529,4.187,2.619,6.5.2,5.181-.518,10.387-.509,15.591.018,10.069.28,20.139.462,31.544ZM315.719,483.752c1.555,4.132,2.55,5.866,2.852,7.718,4.553,27.934,8.893,55.9,13.543,83.818,2.466,14.8,5.133,29.592,8.432,44.224.63,2.788,4.821,6.843,7.111,6.68,3.155-.223,6.441-3.554,8.921-6.242,1.357-1.467,1.345-4.33,1.664-6.6,4.047-28.962,6.809-58.162,12.38-86.821,6.123-31.5,14.309-62.635,22.591-93.665a546,546,0,0,1,17.445-52.419c5.913-15.6,11.771-31.468,25.257-42.819,2.524-2.125,4.122-5.553,5.637-8.63,3.348-6.8,2.153-13.382-3.543-18.037-5.908-4.825-13.15-5.569-18.962.067a41.935,41.935,0,0,0-9.755,14.023c-18.478,46.461-35.459,93.46-45.843,142.505-5.546,26.2-10.068,52.608-15.127,79.322a36.316,36.316,0,0,1-1.961-5.8c-3.28-21-6.334-42.038-9.719-63.022-1.793-11.113-3.527-22.3-6.5-33.118a16.624,16.624,0,0,0-8.864-9.714c-5.325-2.04-9.059,2.118-10.9,7.318-.963,2.724-1.923,5.45-2.841,8.188-6.966,20.816-14.054,41.6-20.826,62.477-2.567,7.908,2.279,14.244,8.817,11.61,2.979-1.2,5.693-4.779,7.068-7.917,4.469-10.191,8.256-20.668,13.128-33.143ZM426.828,518.6h.122c-.225,4.033-.977,8.13-.511,12.084.367,3.157,1.427,7.653,3.613,8.787,2.272,1.178,6.583-.341,9.447-1.784,7.455-3.753,7.226-11.063,7.527-18.086.742-17.271-.667-35.41,17.739-45.925A6.732,6.732,0,0,0,467.2,470.2c1.992-5.523-2.273-11.885-7.316-10.459-7.732,2.187-15.781,4.278-22.6,8.268-3.75,2.2-6.843,7.994-7.479,12.554-1.761,12.567-2.08,25.345-2.971,38.03Zm-37.34,22.922c0,3.677-.307,5.48.063,7.132.868,3.9,2.06,7.723,3.122,11.579,4.1-1.64,8.411-2.916,12.2-5.1,1.492-.856,2.315-3.687,2.58-5.73,1.111-8.568,1.911-17.178,2.794-25.775,1.147-11.175,2.772-22.333,3.225-33.536.336-8.317-4.547-11.164-10.764-5.89-4.589,3.893-8.707,10.307-9.655,16.145-2.28,14.2-2.6,28.718-3.559,41.177Zm154.111-66.1c.409,1.234,1.6,4.823,2.8,8.411,4.408-1.6,9.48-2.353,12.989-5.1,2.363-1.85,3.235-6.462,3.53-9.944,1.256-14.844,2.307-29.718,2.83-44.605.133-3.8-1.944-7.679-3.008-11.521-3.948,2.314-8.676,3.93-11.592,7.172-2.22,2.465-2.6,6.945-3.015,10.617-1.59,14.063-2.862,28.16-4.53,44.971ZM526.09,824.207c-4.106,11.1-7.526,20.456-11.032,29.781-2.039,5.426-1.728,9.166,5.292,7.782.754,5.443,1.42,10.248,2.086,15.054l2-.123,2.868-8.033,6.677,9.507c-.634-7.493-1.161-13.706-1.687-19.919l3.87-.721,4.233,11.637,2.233-.042c0-8.709-.452-17.446.105-26.119.855-13.224-.122-14.383-13.335-12.26ZM198.442,704.04c5.866.6,12.661,1.232,19.443,2.007,10.308,1.177,2.578,14.286,11.435,16.605l12.305-5.988L214.537,689.5l-6.721,7.046c-.816-2.182-1.467-3.92-1.915-5.132ZM186.475,674.3l-15.688,2.234,3.7,2.048-8.126,6.34L208.518,688c-2.329-9.566-11.442-16.955-19.325-16.59C187.941,671.469,186.806,673.929,186.475,674.3ZM694.492,859.582c-.207,2.528-.312,5.071-.647,7.582-.316,2.385-.874,4.737-1.439,7.7l10.721,2.261c-.435,1.955-.734,3.277-1.159,5.207l10.038-3.922C712.085,859.467,711.825,859.192,694.492,859.582ZM455.428,847.13l-1.363-.954c-1.559,2.839-4.04,5.536-4.5,8.542-1.266,8.3-3.538,15.792-9.342,22.268-1.55,1.73-1.773,6.371-.553,8.5,2.221,3.871,5.98,6.86,8.928,10.035Zm76.445,52.151L519.615,900.8c-2.548,11.984-5.231,24.6-7.912,37.211l2.976.889ZM408.659,462.737c5.57-7.348,9.825-12.538,13.32-18.2.366-.589-3.685-5.589-5.881-5.744-5.681-.393-14.3,8.933-13.616,14.4C402.778,455.624,405.325,457.771,408.659,462.737Zm169.765-80.065c-5.133-3.337-7.333-5.79-9.833-6.175-5.647-.867-14.2,6.675-13.443,12.149.332,2.407,5.189,6.566,5.893,6.172C566.394,391.824,571.23,387.9,578.424,382.672ZM716.332,830.12l-2.427,1.914q5.541,9.345,11.084,18.688c4.115,6.926,8.289,6.308,12.9.26ZM436.567,889.336c-1.8,14.451-3.472,27.953-5.421,43.649C442.555,911.222,444.955,893.7,436.567,889.336ZM875.2,569.974h13.926l-1.137-1.733,11.552-7.516-16.864-2.334C880.031,562.5,877.312,566.706,875.2,569.974ZM610.262,885.063c-1.417-8.066-2.656-15.124-3.995-22.746l-5.314-.251c.311,5.169-.2,10.056,1.112,14.39,1.087,3.564.329,10.5,8.2,8.607ZM282.528,327.944l-5.445-.35-1.121,2.227c2.167,1.58,5.877,4.841,6.266,4.484,4.316-3.965,8.119-8.49,13.2-14.121C286.186,318.475,281.477,319.258,282.528,327.944ZM858.115,557.022q.274-1.635.547-3.273a134.42,134.42,0,0,0-13.135-6.8c-1.473-.591-3.814.988-5.757,1.574.773,2.278,1.137,6.232,2.387,6.54,5.167,1.256,10.607,1.4,15.95,1.961ZM594.3,840.279c2.9-14.185.912-17.3-11.469-20.775ZM786.785,693.871c0-5.408.945-9.032-.277-11.64-1.134-2.421-4.5-3.892-7.079-5.462-.508-.309-2.789,1.189-2.761,1.259a40.508,40.508,0,0,0,3.249,6.985c1.651,2.562,3.724,4.854,6.868,8.858ZM450.3,928.642v-25.89l-1.8-.154-3.964,19.391ZM726.293,756.467c8.985-10.57-3.889-10.341-5.573-17.183l-5.526,7.681C725.164,743.149,723.659,751.511,726.293,756.467ZM264.45,855.05l-2.83-1.3-7.352,14.237,15.361-5.6L263,859.066C263.391,857.975,263.92,856.517,264.45,855.05Zm356.037,37.566-3.335,1.36q4.4,10.34,8.8,20.677l2.851-1.114ZM85.123,443.268l-.489,2.155c4.918,1.293,9.809,2.713,14.787,3.729.673.138,2.472-1.759,2.465-2.706,0-1.064-1.415-2.979-2.308-3.035C94.777,443.108,89.945,443.268,85.123,443.268ZM282.962,149.315l-2.035,2.915,12.568,8.7,2.444-3.579ZM889.888,370.034l.739,2.17,22.955-7.21-.933-2.819Z"/><path d="M641.827,63.772c-1.808.746-3.992,2.55-5.362,2.064-7.655-2.723-10.564,2.7-14.338,7.346-5.64,6.945-11.651,13.588-17.445,20.286-1.308-9.964-2.757-21-4.207-32.044l-1.855.273-3.734,8.065c-1.881-5.255-3.178-8.856-4.464-12.465l-3.027.313c.514,5.722,1.675,11.488,1.328,17.152-.255,4.169-2.115,8.395-3.98,12.247-1.02,2.107-3.536,3.489-5.377,5.2l1.611,1.679,9.181-6.774c1.693,11.524-1.315,18.888-9.809,26.471-5.116-2.552-9.939-5.092-14.915-7.287-.725-.319-2.143,1.1-3.3,1.559-1.438.576-2.933,1-4.41,1.482-.392-1.235-1.481-2.9-1.036-3.618.969-1.563,2.967-3.92,4.1-3.7,4.84.946,11.8,3.394,11.791-3.258-.011-5.7-5.719-11.336-8.676-17.122a59.293,59.293,0,0,1-2.725-7.7l-2.706-.318q-3.358,15.56-6.721,31.117l-2.7-.4c.132-2.444.136-4.9.418-7.332.926-8,2.249-15.98,2.72-24.009.112-1.911-2.227-4.305-4-5.827-.743-.637-4.115.137-4.263.756a12.078,12.078,0,0,0,.042,6.672c2.053,5.508.589,11.292-3.928,13.386l.319.3c-.724-5.152-1.976-10.3-2-15.456-.016-3.991,1.508-7.989,1.09-12.123-4.112,5.5-8.683,10.74-12.125,16.635a12.893,12.893,0,0,0-.708,9.721c2.358,6.458,1.128,15.778-4.253,20.2,0-2.827.157-5.255-.048-7.65a48.686,48.686,0,0,0-1.176-5.8l-2.284-.238c-1.077,2.122-3.22,4.337-3.043,6.347.741,8.364-5.419,14.718-6.175,22.173-.693,6.83,2.37,13.957,2.675,21a35.98,35.98,0,0,1-2.67,14.394c-.567,1.432-5.276,2.042-7.88,1.646-3.532-.536-6.862-2.4-11.092-2.79-2.84-5.182,7.625-12.18-2.689-18.615-1.322,3.856-2.525,7.362-4.013,11.7l-12.034-11.216c10.19-11.342,8.991-15.449-7.088-20.222-.855,3.069-1.64,6.156-2.588,9.192-1.011,3.231-2.322,6.374-3.238,9.628s-2.921,8.967-2.023,9.5c7.235,4.277,4.61,11.2,5.2,17.054.2,1.979-1.947,4.2-3.021,6.305-1.57-1.275-3.7-2.238-4.61-3.879-3.478-6.294-7.057-12.662-3.521-20.33.469-1.019-.8-2.789-1.135-4.24-1.316-5.675-2.249-11.471-4.042-16.986-.648-1.993-3.313-3.33-5.051-4.969,7.266-7.21,6.029-14.192-3.821-21.6,6.981-8.607,13.4-17.538,15.817-28.769l2.529-.707c6.477,13.47,12.954,26.941,19.155,39.839,0-11.868.131-23.883-.11-35.891-.048-2.412-1.1-6.625-2.377-6.913C458.319,62.148,462.721,49.393,458.8,41.2c-.694-1.451-.4-3.374-.553-5,2.688-1.147,5.692-1.6,7.445-3.321,6.877-6.764,13.052-7.884,21.349-3.7,6.247,3.149,12.4,2.7,17.9-1.5L522.058,34.4l8.042-3.814c.666,3.951,1.331,7.9,2.162,12.832,1.138-1.962,2.642-3.7,3.229-5.709,3.041-10.413,4.544-11.051,10.821-6.549L581.039,21l12.7,16.774c13.15-3.911,26.406-4.015,38.15,5.817,1.537,1.288,2.865,4.521,2.347,6.281-2.275,7.733,1.751,11.3,7.968,13.857C642.205,63.723,641.827,63.772,641.827,63.772Z"/><path d="M831.9,240.124c1.727-7.383,6.29-11,13.5-13.973,5.572-2.3,9.743-8.688,13.766-13.858,4.208-5.41,9.173-8.052,18.187-8.076-2.362,6-4.215,10.7-6.792,17.247l15.886-4.62c-2.411,2.821-4.167,3.95-4.277,5.216-.155,1.876.395,5.2,1.452,5.567,8.45,2.911,10.787,7.1,8.066,16.355a26.182,26.182,0,0,1-3.206,7.033c-3.923,5.9-5.621,11.009-.354,17.719,4.149,5.284,1.169,8.571-8.921,10.685.346-4.31.678-8.467,1.163-14.523l-18.149,10.641c-3.666-5.022-8.213-8.848-16.762-1.717L860,278.01l-29.31,11.648c-2.688-7.88,3.779-9.4,8.562-12.648-7.419-5.333-4.968-9.791,1.776-12.679,5.369-2.3,11.442-2.994,16.742-5.42,2.839-1.3,4.693-4.755,8.065-8.393l-9.721-2.736c-.4-5.262-.832-11.108-1.406-18.752l-23.046,10.947Z"/><path d="M293.948,872.824c-1.118,7.221-1.964,12.693-2.764,17.86l-10.254,1.141c-3.344-15.923,4.226-30.4,10.11-44.983,1.4-3.484,6.758-5.32,10.167-8.073,2.037-1.646,3.824-3.6,6.568-6.233l2.566,8.444L325.1,817.256c4.442,13.958-7.643,20.673-10.945,30.772-2.641,8.074-5.621,16.057-8.869,23.9C303.125,877.169,299.944,880.982,293.948,872.824Z"/><path d="M270.006,86.344c6.621,1.37,12.864.8,16.009,3.649a292,292,0,0,1,30.113,31.417c3.375,4.138,3.527,11.1,4.566,16.883.8,4.458.688,9.079.978,13.629l-2.949.666c-3.2-7.424-5.779-15.211-9.849-22.119-2.092-3.554-7.013-5.347-10.348-8.284-8.377-7.385-16.883-14.674-24.66-22.658C271.652,97.256,271.755,92.717,270.006,86.344Z"/><path d="M367.711,874.4c2.542-2.528,5.118-5.022,7.619-7.591,4.536-4.662,8.737-9.709,13.687-13.881,1.9-1.605,5.447-1.258,8.245-1.8a73.867,73.867,0,0,1,.709,7.858c-.186,13.986-8.742,22.73-18.935,30.663-1.711,1.33-1.761,4.785-2.774,7.85l-6.509-.9c2.322-6.786,4.476-13.1,6.982-20.434l-6.966.473Z"/><path d="M333.5,922.176c1.337,6.844,2.8,14.357,4.353,22.31-4.708-.271-7.139-.808-9.447-.479-11.822,1.683-16.117-1.987-17.116-14-.867-10.395,8.676-12.631,15.339-10.581C328.623,920.04,330.522,920.973,333.5,922.176Z"/><path d="M867.144,340.735c3.822,8.96,10.886,1.811,18.3,3.422l-7.624,6.676c-.4,2.071.041,6.206-1.737,7.707-5.812,4.914-12.433,10.195-20.594,7.586-3.959-1.265-6.674-6.111-2.774-10.586C857.183,350.413,862.2,345.758,867.144,340.735Z"/><path d="M674.357,899.914c1.955,2.246,3.924,4.492,5.883,6.708-1.909,2.476-3.978,4.877-5.65,7.529a8.332,8.332,0,0,0-1.123,4.522,20.061,20.061,0,0,0,1.345,4.754c-1.7-.209-3.389-.489-5.091-.611-1.62-.1-3.25-.022-4.82-.022.805-2.368,1.384-4.071,1.8-5.3h-14.7c2.573-4.47,4.7-8.154,6.817-11.84l-.227.231,3.761,5.01,1.3-.623-5.046-21Z"/><path d="M67.254,549.354a2.665,2.665,0,0,0-.214.529c-3.989,3.3-7.814,6.82-12.008,9.832-6.018,4.322-12.3,8.275-18.481,12.374-1.4.931-2.842,1.811-4.348,2.768l-1.892-8.283,11.6-15.245c5.427,5.438,10.953,1.893,14.147-1.61C60.474,544.865,63.292,543.882,67.254,549.354Z"/><path d="M540.365,88.3l-.319-.3c4.155,10.762,3.737,12.765-6.11,27.905-1.531-1.147-4.479-2.61-4.308-3.341,2-8.524,4.468-16.938,6.812-25.381Z"/><path d="M641.827,63.772s.378-.047.379-.041c-1.361-2.06-2.724-4.125-5.341-8.091l13.11,1.215c5.512,12.316-5.429,17.061-9.372,25.7C635.443,75.216,640.124,69.605,641.827,63.772Z"/><path d="M767.426,409.581c-.712-2.5-2.751-6.537-1.926-7.246a188.7,188.7,0,0,1,19.177-14.287c1.429-.942,4.135.05,7.358.2L767.268,409.7Z"/><path d="M97.561,320.962l-14.45-15.938a13.945,13.945,0,0,1,16.811,13.922Z"/><path d="M833.22,175.985l5.174,13.713c-2.677.245-6.994,1.867-8.488.472-2.174-2.03-3.13-6.279-2.971-9.5C827.013,179.094,830.781,177.7,833.22,175.985Z"/><path d="M239.924,107.571q6.532,8.652,13.067,17.3l-3.086,2.507-14.162-16.437Z"/><path d="M41.63,503l9.358-7.136c2.149,2.741,4.56,5.818,6.966,8.895l-17.188.774Z"/><path d="M447.664,58.648c-11.331-8.654-3.561-13.888-.065-19.6l2.567.244C449.4,45.235,448.628,51.185,447.664,58.648Z"/><path d="M767.268,409.7c5.755-3.1,11.445-6.332,17.309-9.209,1.39-.682,3.362-.174,5.067-.213-.366,1.511-.274,3.911-1.183,4.39-6.529,3.4-12.5,9.81-21.006,4.888C767.426,409.581,767.268,409.7,767.268,409.7Z"/><path d="M831.664,239.982c6.355,2.73,5.139,8.476,4.375,13.216-.332,2.053-4.062,3.558-6.943,5.866,1.1-7.358,1.975-13.137,2.823-18.929Z"/><path d="M330.932,178.073c-5.671-3.234-5.648-7.319.207-13.187,1.656,3.243,3.544,6.226,4.522,9.484.185.622-3.238,2.322-4.985,3.532C330.684,177.911,330.932,178.073,330.932,178.073Z"/><path d="M298.624,163.657c.261-.848.523-1.7.776-2.53,2.625-.212,5.447-1.128,7.848-.482,2.958.8,5.567,2.9,8.235,6.313Z"/><path d="M897.23,282.086l7.412-9.793c1.631,3.653,2.851,6.38,4.49,10.049l-10.653,1.576Q897.855,283.007,897.23,282.086Z"/><path d="M323.222,118.132l8.869,12.542c-9.909,1.1-8.168-6.682-11.487-10.6Z"/><path d="M53.7,482.6c-.482.323-.9.821-1.321.829-.488.009-.986-.414-1.48-.65a6.366,6.366,0,0,1,1.634-1.222C52.771,481.469,53.294,482.215,53.7,482.6Z"/><path d="M270.684,914.442l-.637.038q.123.96.235,1.927l-.722-.188Q270.123,915.328,270.684,914.442Z"/><path d="M870.091,503.424c-.4-1.955-1.816-4.844-1.022-5.715,5.1-5.6,16.459-4.644,22.049,1.514C884.088,500.661,877.088,502.042,870.091,503.424Z"/></svg>