<svg id="Layer_1" data-name="Layer 1" xmlns="http://www.w3.org/2000/svg" viewBox="0 0 1000 1000"><path d="M500,0C223.86,0,0,223.86,0,500s223.86,500,500,500,500-223.86,500-500S776.14,0,500,0ZM810.3,710.28C781,743.08,744,764.57,703.77,780.88,631,810.39,555,820.33,477,817.55,404.64,815,334.86,801.1,269.54,768.77c-36.08-17.86-68.5-40.56-92.06-74-31.12-44.25-31.21-95.45.07-139.62,24.12-34,57.14-57.53,94.31-74.93,24.4-11.42,50-20.25,76.58-30.85.56,4.75,1,6.94,1.05,9.14.25,28.5,7.95,54.88,21.91,79.67,34.09,60.55,68.34,121,101.68,182,8.56,15.65,14,33,20.83,49.62.49,1.19,1,2.35,1.95,4.46A156.4,156.4,0,0,0,519,710.61c4.85-36.28-2.59-70.06-20.47-101.83-28.11-49.93-56.33-99.8-83.91-150-28.48-51.87-28.47-104.26-.74-156.58.62-1.18,1.25-2.34,2-3.46a13.57,13.57,0,0,1,1.83-1.64c.55,1.62.94,2.94,1.45,4.21,5.93,14.71,10.47,30.18,18,44,35.1,64,71.17,127.35,106.64,191.1,14.63,26.29,31.77,51.47,39.5,82.33,2.9-5.45,6.13-10.77,8.64-16.39,21.24-47.5,21.3-95.1-3.19-141.06-28.31-53.13-58.89-105-87.78-157.88-27.91-51-28-102.76-1.22-154.46.85-1.65,1.79-3.25,2.75-4.83a17.29,17.29,0,0,1,2.29-2.08c6.41,32.3,24.51,58.22,39.59,85.49q40.8,73.83,82.47,147.17c12.34,21.82,20.56,44.85,22.21,69.92.4,6.05,3.83,7.27,8.4,8.57,41.89,11.88,81.84,28.3,116.78,54.68A253.64,253.64,0,0,1,814.46,545C858,596,856,659.14,810.3,710.28Z"/></svg>