<svg xmlns="http://www.w3.org/2000/svg" viewBox="0 0 1000 1000"><path d="M875,553.26c-12.383,0-24.07.09-35.751-.137-1.191-.024-2.765-1.734-3.443-3.035q-5.083-9.751-9.724-19.731c-1.152-2.475-2.571-3.578-5.445-3.557q-26.45.191-52.9,0c-3.047-.025-4.545,1.175-5.774,3.767-3.141,6.625-6.357,13.227-9.918,19.63a6.634,6.634,0,0,1-4.77,2.972q-28.776.308-57.554,0a7.688,7.688,0,0,1-5.326-3.027q-13.34-19.327-26.194-38.987a6.827,6.827,0,0,0-6.554-3.543c-7.331.183-14.675.224-22-.012-3.608-.116-4.542,1.227-4.494,4.651.171,11.989-.1,23.985.156,35.97.09,4.188-1.349,5.282-5.33,5.165-8.88-.26-17.774-.163-26.659-.04-2.912.041-3.943-.969-3.937-3.916q.1-56.711,0-113.421c0-2.716.938-3.8,3.662-3.782,29.618.229,59.243.145,88.851.8,6.451.142,13.125,2.151,19.206,4.545,12.842,5.056,19.155,15.221,19.834,28.867a66.5,66.5,0,0,1-.319,11.825c-1.862,14.337-9.923,23.243-24.037,26.6-1.094.26-2.171.6-3.24.949-.218.072-.361.375-.888.957l25.654,34.69c1.135-2.029,1.971-3.429,2.719-4.875q25.86-49.977,51.637-100c1.634-3.185,3.529-4.5,7.16-4.427,10.434.225,20.877.143,31.316.041,2.838-.028,4.624.775,5.979,3.507q28.286,57.048,56.753,114C874.093,550.554,874.346,551.492,875,553.26ZM649.646,486.923c0-.252,0-.5,0-.756,8.58,0,17.178.335,25.733-.127,5.018-.271,8.052-3.809,8.93-8.794a41.8,41.8,0,0,0,.744-7.966c-.2-10.695-5.244-15.815-15.983-15.951-13.253-.168-26.51,0-39.764-.107-2.807-.023-4.078.706-4.023,3.781q.231,13.11,0,26.226c-.056,3.115,1.283,3.793,4.056,3.738C636.107,486.831,642.877,486.923,649.646,486.923Zm165.782,18.446c-6.747-14.058-13.159-27.419-20.094-41.871l-21.567,41.871Z"/><path d="M121.479,475.972c-15.515.077-31.031.3-46.542.132-4.208-.045-6.579,1.25-8.676,4.976-11.76,20.9-23.8,41.636-35.765,62.419-.6,1.048-1.356,2.011-2.122,3.134C7,514.657,4.946,456.475,45.015,416.523c40.973-40.854,107.245-42.542,149.878-3.627,42.861,39.121,43.139,98.8,20.02,134.6L121.791,385.564c-1.055,1.464-1.848,2.384-2.444,3.419-7.253,12.59-14.393,25.245-21.77,37.76-1.679,2.848-1.475,5.017.118,7.761,8.005,13.78,15.838,27.66,23.731,41.505Z"/><path d="M121.426,476.009c8.232,14.134,16.5,28.246,24.687,42.407,11.433,19.785,22.726,39.652,34.267,59.373,2,3.421,1.8,5.232-1.762,7.26q-56.953,32.436-113.834.031c-3.445-1.95-3.528-3.775-1.661-7q28.2-48.708,56.149-97.556c.837-1.458,1.474-3.03,2.206-4.55Z"/><path d="M835.509,432.728c2-.214,3.336-.475,4.669-.48,9.874-.035,19.75.074,29.623-.075a6.647,6.647,0,0,1,6.479,3.612c10.2,16.576,20.555,33.057,30.867,49.565.807,1.291,1.673,2.544,2.866,4.353,1.3-1.764,2.3-3.055,3.225-4.4,11.251-16.4,22.545-32.769,33.676-49.25a7.75,7.75,0,0,1,7.291-3.88c9.59.164,19.184.044,28.776.072,1.367,0,2.734.208,5.019.394-1.3,1.961-2.121,3.323-3.056,4.6-18.3,25.057-36.672,50.069-54.851,75.218a14.569,14.569,0,0,0-2.509,7.68c-.292,9.725-.19,19.465-.078,29.2.033,2.853-.851,4.046-3.859,4-9.308-.131-18.621-.144-27.929.011-3.145.053-4.162-1.053-4.115-4.159.149-9.731.207-19.47-.054-29.2a14.635,14.635,0,0,0-2.292-7.38c-16.788-25.085-33.746-50.056-50.652-75.061C837.675,436.177,836.81,434.759,835.509,432.728Z"/><path d="M282.375,432.618H419.546c-4.29,7.288-8.072,13.965-12.192,20.428-.568.891-2.8.984-4.269,1-10.014.082-20.033.213-30.042-.039-3.912-.1-5.04,1.141-5.022,5.014.139,29.339.078,58.679.074,88.019,0,6.249-.01,6.255-6.209,6.26q-11.849.01-23.7,0c-5.874-.006-5.9-.013-5.9-5.746q-.012-43.586,0-87.172c0-6.283-.01-6.288-6.15-6.291-9.028-.006-18.057-.107-27.082.056a5.957,5.957,0,0,1-6.029-3.5C289.825,444.868,286.327,439.26,282.375,432.618Z"/><path d="M483.946,483.085c0-15.23.124-30.461-.081-45.688-.056-4.14,1.371-5.359,5.372-5.245,8.595.246,17.2.228,25.8.009,3.888-.1,5.076,1.279,5.058,5.123-.131,27.5-.073,55-.067,82.493,0,9.534,2.266,11.894,11.987,11.96,14.806.1,29.614.16,44.418-.045,3.962-.055,5.677.932,5.359,5.145s-.138,8.457-.061,12.686c.046,2.575-.774,3.829-3.639,3.812-21.292-.129-42.593.17-63.872-.385-6.031-.157-12.243-2.077-17.936-4.3-7.355-2.874-11.877-8.774-11.993-16.927-.231-16.209-.068-32.424-.068-48.636Z"/><path d="M462.664,492.941c0,18.471-.1,36.944.081,55.414.038,3.9-1.163,5.128-5.034,5.019-8.735-.245-17.484-.192-26.223-.02-3.331.066-4.741-.761-4.73-4.436q.17-56.26.013-112.522c-.007-3.142,1.058-4.239,4.136-4.2q13.746.17,27.5,0c3.3-.045,4.343,1.216,4.321,4.487C462.6,455.433,462.663,474.187,462.664,492.941Z"/></svg>