<svg id="Layer_1" data-name="Layer 1" xmlns="http://www.w3.org/2000/svg" viewBox="0 0 1000 1000"><path d="M500,0C223.86,0,0,223.86,0,500s223.86,500,500,500,500-223.86,500-500S776.14,0,500,0ZM313.27,402.23,183.47,189.89h86.16c36.35,0,51.26,14.86,66,29.46,16.81,15.31,67.84,84.36,175.72,219.17H394.57C346.82,438.52,331.74,430.39,313.27,402.23Zm81.3,132.38c-7.71-12-9.82-22.54-9.82-34.79,0-13.46,5.73-20.86,27.8-32.55C438.23,455,490,449.58,543.32,449.58c86.66,0,107.43,27.85,116.27,57.87,0,0-12.24-4.89-41-4.89-91.3,0-164.26,44.35-164.26,111.42a91.16,91.16,0,0,0,4.32,26.56ZM633.7,810.54c-45.32,0-81.73-16.13-103.79-51.61L458.63,640.51c-2.53-40.83,63.07-87.82,130.3-90.17q6.74-.24,13.46.13L817,810.54Z"/></svg>