<svg xmlns="http://www.w3.org/2000/svg" viewBox="0 0 1000 1000"><path d="M148.728,355.34c-5.325,2.2-7.217.186-8.346-4.109-3.332-12.674-8.119-24.74-16.409-35.1-5.555-6.944-12.23-12.343-21.321-13.843-16.858-2.782-31.262,5.388-36.293,23.294-4.195,14.932-7.262,30.648-7.612,46.09-.648,28.6.752,57.256,1.988,85.86a69.109,69.109,0,0,0,5.084,21.887c4.675,11.852,15.2,16.19,27.336,12.465,7.666-2.354,12.9-7.369,14.419-15.22a140.1,140.1,0,0,0,2.367-21.292c.386-10.363.3-20.757,0-31.125a51.607,51.607,0,0,0-2.089-13.328c-2.083-6.883-7.138-10.913-14.245-12.226-1.481-.274-3.191.008-4.444-.642-1.68-.871-3.017-2.4-4.5-3.648,1.514-1.122,3.019-3.207,4.543-3.221,19.807-.191,39.617-.092,59.426-.041a9.4,9.4,0,0,1,1.977.527V553.323c-4.738,1.49-7.157.648-8.255-4.815-2.854-14.192-7.663-27.678-18.284-38.2-9.189-9.1-20.366-12.8-33.125-10.806-11.59,1.814-20.9,7.431-24.374,19.2-3.639,12.332-2.213,24.4,8,33.251,6.475,5.615,14.158,9.95,21.646,14.255C107.329,572.6,118.9,578.19,130,584.6c15.295,8.834,26.768,20.93,29.925,39.077,6.328,36.369-15.3,67.143-51.735,73.63a98.736,98.736,0,0,1-16.3,1.523c-19.81.188-39.623-.04-59.431.2-4.786.057-6.609-1.091-6.544-6.258.268-21.317.078-42.639.145-63.959.007-2.37-1.14-5.526,3.208-5.866,4.008-.314,4.532,2.132,5.1,5.162,2.941,15.692,7.377,30.886,17.172,43.835,11.733,15.508,27.374,22.023,46.677,18.749,9.521-1.615,16.255-7.268,19.239-16.415,6.9-21.167,2.533-36.9-14.034-47.927-12.383-8.24-25.528-15.33-38.237-23.089q-10.131-6.184-19.926-12.915c-25.913-17.791-25.32-57.794-2.2-76.741,6.326-5.183,13.985-8.746,21.071-12.988,1.376-.823,2.935-1.344,5.641-2.555-2.62-.69-3.964-1.061-5.316-1.4C43.54,491.454,27.5,479.418,19.389,459.573,2.234,417.61,1.654,375.523,24.805,335.4c15.486-26.837,39.523-40.735,71.086-40.464,15.847.137,31.7.032,47.544.044,2.649,0,5.358-.4,5.337,3.779C148.673,317.607,148.728,336.453,148.728,355.34Z"/><path d="M431.826,659.908c-4.291,7.167-7.545,13.57-11.676,19.347-27.592,38.577-84.035,23.133-99.434-9.4-14.695-31.049-14.5-62.711-1-94.171,4.778-11.135,12.664-20.067,22.634-26.993,13.8-9.588,28.933-13.32,45.608-9.944,19.275,3.9,31.406,21.4,27.017,39.047A23.38,23.38,0,0,1,381.9,593.169c-10.019-4.914-13.743-17.645-7.893-28.213,2.17-3.922,5.318-7.293,7.91-10.992,3.191-4.555,1.976-7.838-3.315-9.27-6.394-1.732-13.045.029-16.394,5.768-2.879,4.933-5.377,10.565-6.177,16.156-4.779,33.381-5.8,66.854-.351,100.294,1.75,10.747,4.871,20.93,16.552,24.964,12.272,4.239,23.167.69,32.5-7.6,14.741-13.09,22.136-30.245,25.69-49.211a90.582,90.582,0,0,0,1.346-16.309c.117-34.145.029-68.292.081-102.437.015-9.363-1.242-8.621,8.933-8.68,8.678-.05,17.356-.024,26.034.019,2.021.01,4.042.229,6.479.377v42.621c1.684-1.231,2.682-1.854,3.558-2.618,12.671-11.044,27.306-13.182,42.884-8.5,13.7,4.116,20.488,14.855,23.407,28.127A86.049,86.049,0,0,1,545,585.627c.163,35.465-.034,70.933.19,106.4.034,5.438-1.495,7.257-6.979,7.02-9.415-.406-18.868-.351-28.289-.032-4.774.162-6.045-1.509-6.027-6.143q.224-59.425.011-118.851a75.151,75.151,0,0,0-1.2-14.036c-2.051-10.581-12.178-14.13-20.628-7.4a22.149,22.149,0,0,0-8.531,17.768c-.265,24.142-.342,48.286-.429,72.429-.06,16.789-.113,33.58.046,50.369.041,4.291-1.193,6.023-5.784,5.874-9.8-.318-19.622-.3-29.424-.017-4.618.134-6.348-1.262-6.218-6.051C432.027,682.229,431.826,671.494,431.826,659.908Z"/><path d="M571.039,344.41c28.808-24.059,46.92-22.964,69.347,3.95,5.375-9.443,12.81-16.577,23.483-18.975,27.439-6.164,49.253,5.862,50.483,37.8,1.509,39.186.537,78.467.731,117.706.017,3.485-1.325,4.615-4.68,4.573-10.186-.126-20.379-.2-30.561.044-4.177.1-5.7-1.289-5.616-5.487.2-10.373.085-20.752.066-31.128-.057-31.5-.084-63.011-.26-94.516a36.736,36.736,0,0,0-1.514-10.014c-2.522-8.588-11.153-11.305-18.4-5.943a21.92,21.92,0,0,0-9.275,17.357c-.283,6.78-.246,13.577-.25,20.367-.019,34.148-.12,68.3.115,102.443.037,5.481-1.549,7.211-7.017,6.961-9.225-.421-18.494-.376-27.724-.01-5.1.2-6.381-1.672-6.361-6.524q.243-58.861.027-117.726a77.637,77.637,0,0,0-1.479-16.262c-1.981-9.058-10.89-12.119-18.456-6.7-6.463,4.631-9.384,11.207-9.5,18.992-.163,11.128-.121,22.26-.125,33.391-.012,29.243-.119,58.486.106,87.728.04,5.314-1.3,7.367-6.918,7.11-9.413-.43-18.864-.276-28.292-.047-4.069.1-5.637-1.024-5.625-5.389q.2-74.143.02-148.289c-.007-3.889,1.183-5.355,5.184-5.255,9.051.228,18.115.241,27.164-.009,4.342-.12,5.722,1.634,5.363,5.687C570.857,338.784,571.039,341.357,571.039,344.41Z"/><path d="M459.427,340.6c0-13.218.21-24.882-.1-36.534-.127-4.766,1.457-6.193,6.111-6.055,9.99.3,20,.211,29.993.04,3.924-.067,5.175,1.373,5.169,5.289q-.142,90.274,0,180.55c.007,4.107-1.194,5.733-5.482,5.617-9.238-.25-18.5-.342-27.727.036-5.046.207-6.935-1.509-6.354-6.431a53.763,53.763,0,0,0,.039-6.211c-.649,0-1.228-.124-1.3.017-10.241,19.575-43.238,18.258-58.244.088-10.71-12.97-15.661-28.233-18.218-44.437-3.8-24.108-2.6-47.815,7.531-70.4,6.463-14.409,16.045-26.25,31.674-31.222C435.883,326.694,448.67,327.294,459.427,340.6Zm-36.619,77.158c.6,10.458,1.188,25.729,2.51,40.937a47.515,47.515,0,0,0,4.317,15.676c4.57,9.771,14.571,10.606,21.277,2.048a25.237,25.237,0,0,0,4.754-8.875c1.675-6.547,3.361-13.26,3.641-19.963.723-17.331,1.115-34.7.8-52.041a292.067,292.067,0,0,0-3.018-36.032,47.953,47.953,0,0,0-6.216-17.363c-4.927-8.238-14.245-7.673-19.086.654a38.908,38.908,0,0,0-3.7,9.427C422.742,372.145,423.194,392.579,422.808,417.757Z"/><path d="M919.4,343.848c7.545-7.46,15.454-13.265,25.74-15.041,24.472-4.225,42.418,5.656,47.521,30.526a71.447,71.447,0,0,1,1.468,14.023c.122,36.4-.027,72.794.188,109.19.032,5.408-1.476,7.277-6.993,7.008-8.842-.433-17.721-.113-26.584-.125-7.464-.01-7.472-.019-7.472-7.265,0-39.414.048-78.828-.07-118.242a65.042,65.042,0,0,0-1.533-14.562c-2.162-9.2-10.962-12.482-18.951-7.349-5.752,3.7-8.843,9.217-9.67,15.889a116.942,116.942,0,0,0-.925,14.092c-.073,36.962-.143,73.926.074,110.887.03,5.268-1.538,6.853-6.712,6.654-9.6-.369-19.235-.253-28.848-.041-4.008.089-5.681-.947-5.669-5.344q.2-74.112.008-148.226c-.011-4.369,1.633-5.462,5.653-5.363,8.858.218,17.73.248,26.586-.014,4.506-.133,6.792,1.1,6.236,6A65.165,65.165,0,0,0,919.4,343.848Z"/><path d="M809.579,476.16c-10.682,13.868-23.957,17.041-38.773,15.446-18.478-1.989-29.675-11.983-32.761-30.533-5.065-30.449,5.154-45.529,27.47-56.158,2.043-.973,4.112-1.893,6.171-2.833Q785.84,395.625,800,389.17c5.979-2.726,8.692-7.1,8.323-13.918-.459-8.466-.055-16.976-.124-25.467-.049-6.055-1.723-11.427-8.128-13.475-6.759-2.161-13.56-2.016-19.251,2.822-3.771,3.206-2.377,7.089-.2,10.759,1.814,3.064,4.063,6.021,5.135,9.343,2.761,8.558-.149,16.958-6.874,21.58-7.976,5.481-19.979,5.7-27.259.5-6.921-4.943-9.737-14.524-7.062-23.954a31,31,0,0,1,14.3-18.331c21.537-13.007,44.465-14.776,67.88-6.184,15.984,5.865,22.438,18.886,22.512,35.178.175,38.68,0,77.361.123,116.042.014,4.294-1.518,5.543-5.623,5.433-8.862-.236-17.735-.059-26.6-.076-7.47-.015-7.473-.03-7.562-7.349C809.565,480.764,809.579,479.451,809.579,476.16ZM807.8,393.693c-3.957,2.512-7.141,4.756-10.525,6.64-10.8,6.015-16.736,15.308-17.289,27.445-.616,13.535-.352,27.114-.315,40.673a17.668,17.668,0,0,0,1.373,6.031c2.248,5.922,7.488,8.646,13.139,5.866,3.485-1.715,7.487-4.757,8.741-8.137,2.638-7.112,4.731-14.791,5.055-22.323.721-16.756.225-33.565.2-50.352C808.176,397.91,807.976,396.285,807.8,393.693Z"/><path d="M248.1,686.067c-9.917,13.141-22.591,16.4-36.559,15.383-22.212-1.618-34.854-16.238-35.928-39.581-1.043-22.673,8.49-38.4,29.092-47.626,11.016-4.933,21.978-9.988,33.028-14.845,6.607-2.9,9.843-7.351,9.34-14.966-.571-8.641-.058-17.349-.165-26.026-.085-6.871-2.722-10.764-8.266-12.724-6.486-2.292-16.44-.559-19.618,3.593-2.76,3.606-1.222,6.953.669,10.474,2.2,4.088,4.767,8.3,5.558,12.744,1.4,7.883-1.553,14.719-8.761,18.7-8.714,4.819-17.88,5.171-26.252-.626-7.306-5.06-8.9-12.873-7.375-21.194,2.038-11.126,9.441-18.412,18.955-23.323,18.95-9.783,39.016-11.331,59.338-5.376,17.5,5.127,26.594,16.823,26.79,34.94.429,39.614.172,79.235.3,118.853.011,3.526-1.389,4.541-4.7,4.494-9.62-.137-19.252-.3-28.861.064-5.033.188-6.958-1.5-6.316-6.451C248.569,690.952,248.246,689.255,248.1,686.067Zm-1.583-82.723c-9.607,6.481-20.4,10.223-24.244,21.026-6.868,19.319-5.313,39.25-2.589,59.119a4.184,4.184,0,0,0,.367,1.066c2.285,5.219,7.318,8.073,12.376,5.6,3.794-1.854,8.047-5.1,9.566-8.769a60.989,60.989,0,0,0,4.727-20.616c.644-17.3.222-34.644.2-51.97C246.914,607.362,246.709,605.921,246.512,603.344Z"/><path d="M296.138,409.2c-.415,20.174-3.991,38.446-14.5,54.885-13.348,20.889-35.38,31.557-57.677,27.25-16.453-3.177-28.734-12.974-37.731-26.706-12.369-18.88-15.87-40.084-14.464-62.2,1.328-20.893,8.071-39.763,22.449-55.456,23.533-25.686,58.074-25.424,81.1.783C291,365.6,295.51,387.277,296.138,409.2ZM254.419,410.2l-.973-.049c0-9.053.535-18.146-.131-27.15a323.465,323.465,0,0,0-4.328-35.8c-1.617-8.608-7.606-12.872-14.952-12.972-7.523-.1-12.867,3.817-15.385,12.5a72.031,72.031,0,0,0-3.267,18.3c-.55,27.136-1.025,54.29-.567,81.422.166,9.84,2.471,19.767,4.822,29.405,1.558,6.385,6.751,9.75,13.609,9.909,7.05.163,12.017-3.057,14.575-9.5,1.516-3.821,3-7.88,3.3-11.921C252.453,446.314,253.358,428.253,254.419,410.2Z"/><path d="M599.035,698.9c-7.736,0-15.475-.132-23.206.058-3.657.09-5.021-1.213-4.991-4.9.124-15.471-.029-30.944.167-46.413.02-1.562,1.706-3.1,2.619-4.653,1.605,1.387,4,2.464,4.684,4.212,3.65,9.263,6.117,19.058,10.422,27.979,6.127,12.693,19.278,18.52,33.177,16.166,17.379-2.943,26.217-24.12,15.388-39.47-5.154-7.3-12.894-13.079-20.26-18.452-8.812-6.427-18.606-11.487-27.744-17.489-15.75-10.343-23.058-24.682-18.859-43.585,4.133-18.6,16.531-30.357,34.687-32.908,17.789-2.5,36.083-1.454,54.159-1.707,1.069-.015,3.091,2.252,3.113,3.484.228,13.015.209,26.036.014,39.051-.017,1.1-2.034,3.222-2.7,3.067-1.646-.383-3.812-1.485-4.417-2.883-2.985-6.889-4.878-14.315-8.375-20.9-6.127-11.545-16.644-16.765-27.9-15.054-17.42,2.648-24.709,20.244-13.4,33.918,4.809,5.815,11.368,10.42,17.752,14.636,8.481,5.6,17.815,9.906,26.349,15.437,23.22,15.05,29.866,41.565,16.178,65.683-9.351,16.476-25.283,22.525-43.111,24.166-7.853.723-15.828.122-23.747.122Z"/><path d="M359.445,298.506v7.148c0,58.867-.08,117.734.125,176.6.019,5.68-1.387,7.618-7.223,7.3a267.674,267.674,0,0,0-27.157-.006c-5.607.268-7.447-1.293-7.406-7.183.265-37.922.134-75.847.135-113.771,0-21.509.139-43.019-.1-64.526-.054-4.791,1.5-6.183,6.12-6.05,9.8.283,19.62.064,29.431.1C355.209,298.125,357.046,298.346,359.445,298.506Z"/></svg>