<svg xmlns="http://www.w3.org/2000/svg" viewBox="0 0 1000 1000"><path d="M808.253,264.777c-6.6,17.964-12.493,34.642-19.056,51.054-.755,1.886-5.2,3.136-7.977,3.228-11.18.367-22.387-.052-33.566.323-2.724.091-7.033,1.421-7.808,3.324-5.694,13.982-10.674,28.254-16.521,44.183h43.762c-1.124,4.253-1.649,6.953-2.552,9.521-2.472,7.035-5.1,14.015-7.672,21.017-8.4,22.893-8.4,22.892-33.2,22.892-20.007,0-19.985.008-26.65,18.613-4.527,12.639-9.127,25.252-14.264,39.45h50.984l-9.808,29.823,257.728-68.923q.439,1.251.88,2.5c-7.18,3.2-14.328,6.477-21.546,9.59Q781.628,528.745,602.25,606.069q-135.537,58.4-271.113,116.721c-37.4,16.117-74.3,33.53-112.25,48.238-42.534,16.484-86.513,23.529-131.161,7.63-22-7.832-41.357-20.289-55.246-39.46C14.362,714.191,14.691,685.989,20.8,657.427c7.66-35.832,23.137-68.669,43.179-98.879,22.327-33.654,46.976-65.769,70.672-98.512a8.238,8.238,0,0,1,5.259-3.114c-3.74,9.478-7.7,18.876-11.176,28.451-7.7,21.226-12.26,43.024-10.825,65.769,2.7,42.8,29.267,73.475,71.145,82.817,26.16,5.836,51.8,3.709,77.417-3.173q173.224-46.536,346.5-92.88a12.032,12.032,0,0,0,6.714-4.113h-26.67c1.225-4.507,1.86-7.75,2.976-10.819Q641.582,397.626,687.2,272.288c1.936-5.332,4.077-8.671,10.741-8.609,33.86.311,67.725.127,101.588.171C801.755,263.853,803.983,264.308,808.253,264.777Z"/><path d="M160.684,532.98c5.5-15.255,10.3-28.721,15.193-42.157,26.289-72.235,52.712-144.421,78.732-216.753,2.774-7.712,6.408-10.881,14.777-10.446,13.452.7,26.972.43,40.451.1,6.559-.162,8.405,2.306,7.935,8.668-2.642,35.765-4.986,71.552-7.386,107.335a22.038,22.038,0,0,0,1.179,9.158c.965-2.292,2.031-4.547,2.88-6.882,13.241-36.394,26.633-72.737,39.517-109.258,2.431-6.89,5.9-9.286,13.083-9.067,15.978.486,31.98.151,49.451.151-1.089,4.085-1.587,6.757-2.5,9.277Q368.1,399.258,322.249,525.427c-2.192,6.058-5.132,8.689-11.748,8.483q-20.641-.642-41.316.008c-7.722.252-9.9-2.269-9.018-10.047,4.492-39.625,8.5-79.305,12.634-118.971a25.069,25.069,0,0,0-1.06-11.582c-1.009,2.4-2.118,4.77-3.011,7.216-15.144,41.494-30.378,82.956-45.26,124.544-2.274,6.355-5.315,9.146-12.355,8.864-13.466-.54-26.969-.116-40.457-.18C167.914,533.749,165.171,533.345,160.684,532.98Z"/><path d="M525.861,426.081q-14.97,41.107-29.94,82.214c-2.355,6.466-4.2,13.188-7.278,19.289-1.367,2.707-5.171,5.839-7.946,5.914-18.628.509-37.278.267-55.92.192-1.34-.006-2.678-.618-5.056-1.205.785-2.986,1.272-5.683,2.195-8.222q45.839-126.1,91.646-252.207c2.188-6.046,5.241-8.542,11.816-8.376,16.338.412,32.693.1,49.041.16,2.765.01,5.529.391,10.183.744-11.7,32.234-22.962,63.259-34.223,94.284l1.558.971c1.675-2.32,3.436-4.584,5.012-6.969,18.028-27.274,36.138-54.5,53.935-81.92,3.331-5.133,7.03-7.411,13.25-7.264,16.052.378,32.119.107,48.181.154,2.49.007,4.979.326,9.239.625-2.2,3.732-3.519,6.363-5.194,8.743-24.424,34.712-49.006,69.313-73.205,104.181a29.184,29.184,0,0,0-4.894,14.151q-4.053,65.685-7.186,131.422c-.4,8.668-3.463,11.273-11.92,11.008-18.051-.565-36.14-.477-54.2-.043-8.034.194-9.646-2.767-8.68-10.253,4.038-31.274,7.57-62.613,11.264-93.931a28.645,28.645,0,0,0,.016-3.329Z"/><path d="M333.664,533.179c1.27-4.333,1.908-7.06,2.859-9.673q45.718-125.688,91.369-251.4c2.206-6.1,5.167-8.582,11.766-8.427,17.2.4,34.415.11,51.624.164,2.746.009,5.491.376,9.313.657-1.055,3.739-1.633,6.441-2.569,9.014Q452.454,398.784,406.991,524.1c-2.723,7.554-6.449,10.158-14.324,9.877-16.042-.571-32.118-.141-48.179-.192C341.414,533.771,338.341,533.449,333.664,533.179Z"/></svg>