<svg id="Layer_1" data-name="Layer 1" xmlns="http://www.w3.org/2000/svg" viewBox="0 0 1000 1000"><path d="M536,329.47a29.3,29.3,0,0,1-.3-5c-.29-67.57,50.31-126.65,113.79-139.82-6.14-2-15.8-2.92-25.16-2.92-72.54.29-152.39,31.3-210.89,79.85C353.75,311,306.36,394.7,306.66,481.57c.58,131.33,100.32,213.23,196,212.94,118.46-.29,188.67-97.69,187.49-186.32C690.12,419.56,642.45,355.51,536,329.47Z"/><path d="M500,0C223.86,0,0,223.86,0,500s223.86,500,500,500,500-223.86,500-500S776.14,0,500,0Zm0,851c-193.85,0-351-157.15-351-351S306.15,149,500,149,851,306.15,851,500,693.85,851,500,851Z"/></svg>