<svg id="Layer_1" data-name="Layer 1" xmlns="http://www.w3.org/2000/svg" viewBox="0 0 1000 1000"><path d="M697.74,465.6c-29.74,0-54.72,20.6-61.83,51.5H759.26C752.54,486.2,727.52,465.6,697.74,465.6Z"/><path d="M461.89,466h-.59a69.73,69.73,0,0,0-69.23,70.21v.56a69.6,69.6,0,1,0,139.19-.56C531.26,497,499.94,466,461.89,466Z"/><path d="M500,0C223.86,0,0,223.86,0,500s223.86,500,500,500,500-223.86,500-500S776.14,0,500,0ZM311.84,637h-41.2V611.17c-18.64,19.41-44.42,30.48-73.36,30.48-59.49,0-105.11-43.23-105.11-108.64V359.34h41.66V530.56c0,44.81,29.29,73.78,68.18,73.78,38.43,0,68.21-29.75,68.21-73.78V359.31h41.62Zm259-99.6A105.32,105.32,0,0,1,464.59,641.69a101,101,0,0,1-72.17-30.13V637H352.83V359.34h0l0,0v0h40V460.45a100.18,100.18,0,0,1,71.79-30.16c.43,0,.86,0,1.3,0a105.43,105.43,0,0,1,105,105.94C570.89,536.61,570.88,537,570.88,537.36Zm228.81,11.52H635.14c5.57,32.93,32.89,57.46,67,57.46,23.41,0,43.24-9.46,58.3-29.68l28.94,21.41c-20.22,27-50.35,43.19-87.24,43.19-60.68,0-107.41-45.19-107.41-105.45,0-57.1,44.77-105.1,103.87-105.1,58.3,0,101.11,44.84,101.11,105.1Zm116.67-78.51c-26.17,0-45.23,20.18-45.23,51.5V637h-40V434.67h39.62v25c9.92-16.26,26.17-26.56,48.39-26.56v0H933v37.31Z"/></svg>