<svg id="Layer_1" data-name="Layer 1" xmlns="http://www.w3.org/2000/svg" viewBox="0 0 1000 1000"><path d="M431.24,404.79c4.75-12.53,9.45-25.28,20.29-34.4,2-1.71,3.31-4.46,4.53-6.93,2.69-5.47,1.73-10.76-2.85-14.5-4.75-3.87-10.57-4.47-15.23.06a33.67,33.67,0,0,0-7.84,11.26c-14.85,37.33-28.49,75.09-36.83,114.5-4.46,21.05-8.09,42.27-12.16,63.73a29.69,29.69,0,0,1-1.57-4.66c-2.64-16.87-5.09-33.78-7.81-50.64-1.44-8.92-2.84-17.91-5.22-26.6a13.36,13.36,0,0,0-7.13-7.81c-4.27-1.64-7.27,1.7-8.75,5.88-.78,2.19-1.55,4.38-2.29,6.58-5.59,16.72-11.29,33.42-16.73,50.2-2.06,6.35,1.83,11.44,7.09,9.32,2.39-1,4.57-3.84,5.67-6.36,3.59-8.18,6.64-16.6,10.55-26.62h0c1.25,3.31,2.05,4.71,2.29,6.19,3.66,22.45,7.14,44.92,10.88,67.35,2,11.89,4.12,23.77,6.77,35.53.51,2.24,3.88,5.49,5.72,5.36,2.53-.18,5.17-2.85,7.17-5,1.09-1.18,1.08-3.48,1.33-5.3,3.25-23.27,5.47-46.73,9.95-69.76,4.92-25.31,11.5-50.32,18.15-75.25A438.52,438.52,0,0,1,431.24,404.79Z"/><path d="M526.64,766.58,524,761.33c-3.3,8.91-6.05,16.43-8.87,23.92-1.63,4.36-1.38,7.37,4.26,6.26.6,4.37,1.14,8.23,1.67,12.09l1.61-.1,2.3-6.45,5.37,7.64c-.51-6-.94-11-1.36-16l3.11-.58,3.4,9.35,1.8,0c0-7-.37-14,.08-21C538,765.81,537.25,764.88,526.64,766.58Z"/><path d="M446.62,485.23c-1.42,10.1-1.67,20.36-2.39,30.55h.09c-.18,3.24-.78,6.53-.41,9.71.3,2.54,1.15,6.15,2.91,7.06s5.29-.28,7.59-1.43c6-3,5.8-8.89,6-14.54.6-13.87-.53-28.45,14.26-36.89a5.44,5.44,0,0,0,2-2.8c1.6-4.43-1.82-9.55-5.87-8.4-6.22,1.76-12.68,3.44-18.16,6.64C449.61,476.91,447.13,481.57,446.62,485.23Z"/><path d="M328.29,362.61l-4.37-.28-.9,1.79c1.74,1.27,4.72,3.89,5,3.6,3.47-3.18,6.52-6.82,10.61-11.34C331.23,355,327.45,355.63,328.29,362.61Z"/><path d="M424.85,488.15c-3.69,3.13-7,8.28-7.76,13-1.83,11.41-2.09,23.08-2.86,33.09h0c0,2.95-.25,4.4,0,5.73.69,3.13,1.65,6.2,2.51,9.3,3.29-1.32,6.75-2.34,9.8-4.1,1.2-.69,1.86-3,2.07-4.6.89-6.89,1.54-13.8,2.24-20.71.93-9,2.23-17.94,2.6-26.94C433.77,486.2,429.84,483.92,424.85,488.15Z"/><polygon points="339.07 225.55 328.64 219.09 327 221.44 337.1 228.43 339.07 225.55"/><path d="M462.49,785.84c-1,6.67-2.84,12.69-7.5,17.89-1.25,1.39-1.43,5.12-.45,6.83,1.79,3.11,4.81,5.51,7.18,8.06l5.49-38.88-1.1-.76C464.86,781.26,462.86,783.42,462.49,785.84Z"/><path d="M512.42,852.76l2.39.71,13.81-31.83-9.84,1.22C516.73,832.49,514.57,842.63,512.42,852.76Z"/><path d="M452.05,813.65c-1.44,11.61-2.79,22.46-4.35,35.07C456.86,831.24,458.79,817.16,452.05,813.65Z"/><polygon points="458.45 839.89 463.08 845.23 463.08 824.43 461.64 824.31 458.45 839.89"/><path d="M435.61,451.67c-4.57-.32-11.49,7.18-10.94,11.57.23,1.95,2.28,3.68,5,7.67,4.47-5.91,7.89-10.08,10.7-14.62C440.62,455.81,437.37,451.79,435.61,451.67Z"/><path d="M181.3,455.38c-3.86-.24-7.74-.11-11.61-.11L169.3,457c3.95,1,7.88,2.18,11.88,3,.54.11,2-1.41,2-2.17S182,455.43,181.3,455.38Z"/><path d="M253.3,638.56c-1,.05-1.92,2-2.18,2.33l-12.61,1.79,3,1.65L235,649.42l33.87,2.47C267,644.21,259.64,638.27,253.3,638.56Z"/><path d="M283.42,699.84c-1.11-.86-4.17.51-6.22,1.22-2.32.8-4.52,2-6.76,3L265,712.56c3.27-1.35,5.48-1.6,6.57-2.83,2.74-3.09,5-2.83,8.48-1,1.78.93,5.8.53,6.95-.83C290.53,703.75,285.78,701.66,283.42,699.84Z"/><path d="M550.73,483.76c1.9-1.49,2.6-5.19,2.84-8,1-11.93,1.85-23.88,2.27-35.84.11-3.05-1.56-6.17-2.42-9.25-3.17,1.86-7,3.15-9.31,5.76-1.78,2-2.09,5.58-2.42,8.53-1.28,11.3-2.3,22.62-3.64,36.13h0l2.25,6.76C543.84,486.57,547.91,486,550.73,483.76Z"/><path d="M634.5,830.47l-4-16.69c-5-.95-4.6,2.24-3.64,5.25a71.75,71.75,0,0,0,3.55,7.85l.2-.1,0,0v0h0l0,0-.12.22,3,4Z"/><path d="M434.25,168.43c-1.65-2.81-2.93-4.77-4-6.84-1.33-2.56-3.49-5.23-3.44-7.81s1-2.61-1.75-4.08c-1.16,3.69-5.22,6.58-1.92,11.51C425.63,164.9,427.43,168.55,434.25,168.43Z"/><path d="M273.88,692.18c-2.21.82-4.94,1.64-5.7,3.34-1.07,2.39-.67,5.43-.9,8.19l3.21.23c3.62-3.72,7.36-7.32,10.77-11.21,1.2-1.38,1.55-3.5,2.29-5.28-1.49-.35-3-.58-4.46-1.07C271,683.61,277.56,691.82,273.88,692.18Z"/><path d="M552.06,416.34c4.3-2.41,8.18-5.56,14-9.76-4.12-2.68-5.89-4.65-7.9-5-4.53-.7-11.4,5.36-10.8,9.76C547.59,413.31,551.49,416.66,552.06,416.34Z"/><path d="M313.77,786.11l-2.28-1.05-5.9,11.44,12.34-4.5-5.33-2.67C312.92,788.46,313.34,787.29,313.77,786.11Z"/><path d="M312.19,747.41c-1.14,2.56-2.28,5.1-3.88,8.67l9.89-6.39c-3.23-5-6.07-10.33-11-13.68l-1.61,1.47,2.29,4.41-1.86-.65-6.46,10.9,1.7,1,10-6.79Z"/><path d="M268.26,658.76l-1.53-4.12-6,10.14c4.72.48,10.18,1,15.62,1.61,8.29,1,2.08,11.48,9.19,13.34l9.89-4.81L273.66,653.1Z"/><path d="M597.14,817.38q3.54,8.31,7.07,16.61l2.29-.89-6.68-16.81Z"/><path d="M817.23,500.27l0,0c-5.3,1.09-10.59,2.13-15.86,3.17Z"/><path d="M776,539.83c.62,1.83.91,5,1.92,5.26,4.15,1,8.52,1.12,12.81,1.57h0c.15-.88.29-1.75.44-2.63a107.56,107.56,0,0,0-10.56-5.46C779.44,538.09,777.56,539.36,776,539.83Z"/><path d="M799.54,499c4.06-4.47,13.07-3.74,17.6,1.1l-7.64-13.25c-4.34,1.1-8.86,2.81-10-4.32l-36.38,15.8.21,1,15-2.33a6.92,6.92,0,0,1-3.81,2.93c-6,1.73-10,4.18-5,11a4.17,4.17,0,0,1,.25,2.61c-.16,1.48-.51,2.94-.78,4.42,2.88.32,6.1,1.59,8.56.72,3.33-1.17,6.07-4,9.39-6.32l-9-1.67.08-2.09,22.39-5h0C800,502,798.9,499.71,799.54,499Z"/><path d="M817.39,424.66c-5.18-2.27-9.79-2.63-12.87,3.38a4.85,4.85,0,0,1-2.82,1.86c-6.71,1.94-13.52,3.54-20.11,5.79-1.23.41-1.64,3.25-2.8,5.77l41.76-12.41Z"/><polygon points="835.3 392.38 834.55 390.11 816.27 396.43 816.86 398.17 835.3 392.38"/><path d="M569.57,757.55l9.21,16.69C581.11,762.84,579.51,760.34,569.57,757.55Z"/><path d="M837.37,418c-6.47,2.71-14.89-1.07-19.89,6.59C824.15,426.48,833.83,423.65,837.37,418Z"/><path d="M500,0C223.86,0,0,223.86,0,500s223.86,500,500,500,500-223.86,500-500S776.14,0,500,0ZM828.12,317.9l3.61,8.07-8.56,1.27-1-1.47Zm-36.54-48.21c3.38-4.34,7.37-6.47,14.62-6.49l-5.46,13.86,12.76-3.71c-1.94,2.26-3.35,3.17-3.43,4.19-.13,1.51.31,4.18,1.16,4.47,6.79,2.34,8.67,5.71,6.48,13.14a20.92,20.92,0,0,1-2.57,5.65c-3.16,4.74-4.52,8.85-.29,14.24,3.34,4.24.94,6.88-7.17,8.58.28-3.46.55-6.8.94-11.66L794,320.5c-2.95-4-6.6-7.1-13.47-1.38l11.68,3.37-23.55,9.36c-2.16-6.33,3-7.55,6.88-10.16-6-4.29-4-7.87,1.43-10.19,4.31-1.85,9.19-2.4,13.45-4.35,2.28-1,3.77-3.82,6.48-6.75l-7.81-2.19c-.32-4.23-.67-8.93-1.13-15.07l-18.26,8.67-.06.22c4.87,2.23,3.93,6.77,3.32,10.53-.26,1.65-3.26,2.86-5.58,4.71.89-5.91,1.59-10.56,2.27-15.21h0l-.17-.1h0l0,0,.25-.12c1.43-5.76,5.07-8.63,10.78-11C785,279,788.35,273.85,791.58,269.69Zm21.12,106L806.57,381c-.32,1.66,0,5-1.4,6.19-4.66,3.95-10,8.19-16.54,6.1-3.18-1-5.36-4.91-2.23-8.51,3.59-4.12,7.62-7.86,11.59-11.89C801.06,380.09,806.74,374.34,812.7,375.64Zm-47-131.36c.06-1.26,3.09-2.38,5-3.76l4.15,11c-2.15.19-5.62,1.5-6.82.38C766.33,250.29,765.56,246.87,765.69,244.28Zm-49.36,178.1a151.37,151.37,0,0,1,15.41-11.48c1.14-.76,3.32,0,5.91.16l-19.78,17.13h0l0,0,0,0c4.56-2.46,9.08-5,13.73-7.3,1.11-.55,2.7-.14,4.07-.17-.3,1.21-.22,3.14-1,3.52-5.24,2.73-10,7.87-16.85,3.95l-.18.1.12-.11C717.3,426.18,715.67,423,716.33,422.38ZM460.91,130.5l2.07.2c-.62,4.77-1.24,9.55-2,15.55C451.86,139.29,458.11,135.09,460.91,130.5ZM361,194l7.12,10.08c-8,.88-6.56-5.37-9.23-8.52Zm-29.9-22.61a235.54,235.54,0,0,1,24.2,25.24c2.71,3.33,2.83,8.92,3.66,13.57.65,3.58.56,7.29.79,10.95l-2.37.53c-2.57-6-4.64-12.22-7.91-17.77-1.68-2.85-5.64-4.29-8.32-6.65-6.73-5.94-13.56-11.79-19.81-18.21-1.78-1.82-1.69-5.47-3.1-10.59C323.55,169.6,328.57,169.14,331.09,171.43Zm-37,14.12,10.5,13.9-2.48,2L290.7,188.26ZM181.34,352.85a10.8,10.8,0,0,1,.24,2.53l-1.9,1.62-11.61-12.8A11.19,11.19,0,0,1,181.34,352.85ZM337.47,800.39c-.9,5.8-1.58,10.19-2.22,14.35l-8.24.91c-2.69-12.79,3.39-24.42,8.12-36.14,1.12-2.8,5.43-4.27,8.17-6.48,1.63-1.33,3.07-2.9,5.28-5l2.06,6.78,11.85-19.06c3.57,11.22-6.14,16.61-8.79,24.72-2.12,6.49-4.52,12.91-7.12,19.21C344.84,803.88,342.28,806.94,337.47,800.39Zm27.68,57.19c-9.5,1.35-12.95-1.6-13.75-11.25-.7-8.35,7-10.15,12.32-8.5,1.61.49,3.13,1.24,5.52,2.21,1.08,5.5,2.25,11.53,3.5,17.92C369,857.74,367,857.31,365.15,857.58Zm33.22-38.09C400.24,814,402,809,404,803.07l-5.6.38-1.65-1.8c2-2,4.11-4,6.12-6.1,3.65-3.74,7-7.8,11-11.15,1.52-1.29,4.37-1,6.62-1.44a60.61,60.61,0,0,1,.57,6.31c-.15,11.24-7,18.26-15.21,24.63-1.38,1.07-1.42,3.85-2.23,6.31ZM873,528.66c1.61,1.54,3.95,4.86,3.4,5.67-3.49,5.13-1.78,10.38-1.68,15.74.08,4-1.58,7.94-2,11.95-.25,2.15.42,4.41.71,7l-13.13,5.88a79,79,0,0,1-1.17,9.44c-2,8.67-5.46,16.72-1,26.28,2.45,5.24.44,12.58-.89,18.2-1.85,3.18-3.65,6.39-5.57,9.53-1.56,2.53-3.26,5-5.25,8,4,4,8.64,8.74,3.31,13.55H830.5c6.1,7.07,8.23,14.41,4.74,22.34a41.76,41.76,0,0,1-6.83,10.63q-13.71,15.53-28,30.54a73.89,73.89,0,0,1-12,10c-3.6,2.42-7.81,3.94-12.15,6.05l-3.1-2.64c-1.78,9.66-9.59,17.24-4.76,27.25-4.48,5.39-3.11,14.21-10.91,17.81-4.54,2.09-8.33,6.05-13,7.65-4.37,1.51-9.44,1-14.18,1.48-.37,0-.64,1.11-1.34,2.43l6.45-.48c-2.41,2.58-3.83,3.91-5,5.43s-2.09,3.24-3.35,5.22l-4.75-4c-8.37,9.76-15.32,21-28.86,24.9-1.8.51-3.06,2.66-4.76,3.75-2.43,1.57-4.94,3.42-7.64,3.94-.84.16-2.43-3.64-3.82-5.85-3.64,5.68-13.24,7.91-10.26,18l-7.54-6.32-4.68,7.79c-2.8-7.38-4.85-12.77-6.89-18.13h0c-1.54,2-3.2,3.92-4.54,6.05a6.61,6.61,0,0,0-.9,3.63,15.74,15.74,0,0,0,1.08,3.82c-1.37-.16-2.73-.39-4.09-.49s-2.62,0-3.88,0c.65-1.9,1.12-3.27,1.45-4.25H625.14c2-3.5,3.68-6.39,5.34-9.27l-.05-.06h0l0-.07-4.14,2c-1.1-4-2-7.68-3.17-11.26-.44-1.34-1.61-3.5-2.45-3.5-5.92,0-8.21-5.08-12.09-7.91-1.32-1-3.1-1.27-4.67-1.88l-1,1.45c2.85,2.67,5.86,5.18,8.48,8.06,1.85,2,4.32,4.43,4.52,6.84.72,8.88.69,17.82.79,26.75,0,3.12-.43,6.24-.5,9.36a45.64,45.64,0,0,0,.26,4.82c-9.45-1.23-18.36-1.9-27-3.67-9.12-1.84-16.73,6.16-26.16,3.1v3.47l-1.53,1.15-4.53-7.94-7.21,15c-.95-4.16-.85-7.63-2.47-9.79-1.83-2.42-5.22-3.68-8.3-5.68l-2.55,7.64,6.24,3.11L530.1,877.3c-.79-3.64-1-6.45-2.06-8.84-1-2.07-3-3.66-4.52-5.47l-2.54.67V880l-2.32.41L510.42,871c1.42,7.46-3.92,10-8.65,9.65-3.49-.28-11-.59-8.26-8.73-4.48-.88-6.81,0-6.33,4.75a13.23,13.23,0,0,1-.36,5.42c-.52,1.54-1.91,2.78-2.92,4.15-1.44-1.2-3.68-2.13-4.17-3.63-1.21-3.7-.85-8.22-8-8.84l4.61,13-6.55,5.3c-1.89-3.43-1.93-8.57-8.6-8.43-2.32,0-4.74-5.46-7.14-8.45-5.9,5.06-5.9,5.06-12.9-8.87l-6.8,12.06-11.1-10.35,3.28-8.23-9.22-2.46-.79,13.35-2.13.65-7.77-22.8,6.81-11.75-7.75,2.78c-.72-10.19,3.6-18.39,8.74-27l4.12,5.16,6.59-21.56c2-6.53,3.75-13.17,6.19-19.54.57-1.5,3.49-2.1,5.67-3.29,1.39-4.68,2.94-9.88,4.5-15.07l-2.45-.87-7.51,16a69,69,0,0,1-1.53-7.24c-.21-2.39-.05-4.81-.05-8.14l-22.35,2.6,3.46-10.67-10.21,4.06-1.52-1.27,6.15-9.36-.79-1.21-25.95,18-1.95-2,4.14-8.3-7.56,1.7c.7-7.62,1.36-14.82,2-22l-1.69-.09-5,8.12-2.17-.42a87.89,87.89,0,0,0-1.88-9.54c-.44-1.47-2-2.59-3.07-3.86-.84,1.17-1.73,2.31-2.52,3.51q-4.89,7.47-9.74,15a12.94,12.94,0,0,0-1.81,2.92c-2.27,7.36-2.23,7.37-9.85,10-.26-2.71-.5-5.35-.77-8.25l4.29-1.39-1.63-1.08c1.32-2.78,3-5.46,3.86-8.37a14.2,14.2,0,0,0,.49-7.37c-.75-2.85-2.65-5.39-4.53-8.95-5,3.46-10.85,6.45-15.16,10.91-2.13,2.2-1.82,7.1-2,10.81-.15,3.4,2.7,7.91-3.81,8.06q1.83,13.49,3.65,26.95l1.46,1.21c2.53-3.82,5.38-7.48,7.54-11.5,4.7-8.78,4.55-8.86,13.25-2L320,788c9,6,2.64,11.64.82,15.59-2.14,4.63-7.37,7.83-11.89,12.27l-5.38-11.63-2.63.76c1.29,4.41,1.82,9.26,4.07,13.11s6.25,6.83,9.48,10.18l6.48-4.78-2.67,10.37.51,0h0c-.14.23-.28.46-.43.69,0,.3.08.59.11.89l-.58-.15c.16-.25.32-.49.47-.74l0-.24-9,8.76c-1.45-5.91-5-7.46-12.62-5,.17-1.93.33-3.6.43-4.87L289,827.06l-1.52-1.79-3.52,5.47-13.76-4.28L259,811.94c-5.21-.08-4.27-5.53-3.21-11.82l-4.57,4c-12.18-3.13-19.28-11.58-25.56-21.69L219,784.11c0-2.44-.07-4.57,0-6.69.07-1.47.36-2.95.56-4.4-2.95-2.43-6-6.27-10-7.9-6.83-2.81-5.3-6.4-1.93-11.12l-5.82-2.94,5.34-6.45c-6.87-4.48-12.52-3.3-19,3.29.51-7.07.84-11.69,1.2-16.58-8.05-4.08-9.37-8.78-4.6-20.78l-15.64.69-1.68-1.34,10.86-14.48-10.26,2.25c-1.46-3.54,3.38-9.23-5.82-7.4l1.19-2,12.45-5.3L176,681.1c-7.45,1.51-10.12-2.87-12.69-8.34A44,44,0,0,0,154.87,661c-4.78-4.86-3.43-9.55,0-13.65,4.58-5.49,10-10.28,15.09-15.41-7.69-3.47-12.5-1.34-16.3,6.19-.95,1.87-4.07,2.89-6.41,3.67-.61.21-2.35-1.81-2.88-3.09-.19-.49,1.42-2.13,2.49-2.63,2.39-1.11,5-1.83,7.46-3.82-11.3-3-17.35-11.1-23.13-19.61-1.8-2.65-4.65-4.68-6.08-7.48-6.32-12.34-.09-20.88,8.25-29.73,6-6.34,13.12-11.08,19-16.83,5.54-5.38,13.4-6.75,17.63-13.14-6-5.93-6.37-6-13.17-.23l-1.68-4.27a2.35,2.35,0,0,1,.17-.44,2.17,2.17,0,0,0-.17.42c-3.21,2.66-6.28,5.48-9.65,7.9-4.83,3.48-9.88,6.65-14.85,9.95-1.12.74-2.28,1.45-3.49,2.22l-1.52-6.66L135,542.09c4.36,4.36,8.8,1.52,11.37-1.3,3.54-3.9,5.81-4.69,9-.29.71-1.75,1.41-3.5,2.26-5.62l-7.39-1.77c.51-2.23,1-4.11,1.42-6.16a7.82,7.82,0,0,0-2.66-.9c-5.07.36-10.17,1.36-15.2,1.11-2.62-.12-6-1.7-7.51-3.77-4.3-6.08-.66-12,7.16-12.31,4.16-.15,8.35.29,12.51,0,9.44-.63,9.79-1.39,4.52-10.25l7.08-3.58L156.1,495l-8.54-1.2,12.93-7.4-9.92-4.07,5.08-2.6-.13-.74-24.6,3.38c3.08-4.72,4.93-7.56,6.42-9.83-2.21-4.22-5.67-8.07-5.91-12.12s2.83-8,5-13.5c-2.45-3.18-1.61-6.62,5.29-7.19-4-6.64-4-6.64,8-10.13L135.88,425c11-8.75,20.26-2.37,29.57-.69l.94-2.22-16.7-9.47c6.08-4.42,13,5.25,21.57-.44L158,403.58c2.32-2.91,2.25-2.67,7.92-1,2.71.79,5.75.44,10,.69l-6-9.57c15.62-3.36,21.1-1.9,20.75,4.38l19.19,2.41c-4.55-13.18-2.74-16.24,10.5-19.06,3.56-.76,7.13-1.49,11.18-2.34.31-1.69-4.16-7.08,5.55-3.92-9.58-6.57-17-11.51-24.19-16.69-2-1.43-3.35-3.74-5.21-5.41-3.8-3.39-7.63-6.78-11.68-9.85-2.28-1.72-5.25-2.57-2.36-6.26.8-1,.55-2.87,1.08-6.17-3.33,1.67-6.21,2.22-7.09,3.85-.74,1.35.34,4.39,1.56,5.95,2.38,3.05,5.5,5.5,8.16,8.34,2.43,2.59,5.9,5.68-1.63,5.58-.6,0-1.23,1.59-1.65,2.18-5.3-5.73-10.84-10.91-15.25-16.93-1.45-2-1-8.16.35-8.9,7-3.65,4.71-6.7.46-10.37-.73-.63-1.15-1.62-2.83-4.07l8.58,5,1.48-1.25-10.45-12.82c9.83,1.19,14.42,8,18.94,15.18-.19-5.26,1.22-10.67-5.48-13.44-1.74-.71-2.52-4.66-2.86-7.23-.09-.69,3-1.81,5.11-3-6.07-4.76-.85-9.7.57-14.73l9.68,7.22c6.47-6.5,6.06-7.26-.87-13.26-2.22-1.93-2.44-6.16-4.27-11.27l13.87,2.95,2.58-9.78,11.38,1.9c-1.7-5.86-3.08-10.64-4.68-16.13,3.51,1.22,6.67,2.31,9.82,3.42,5.52,2,11,4.15,16.58,5.81,3,.9,5.8-4,4.19-7.45-.63-1.36-2.06-2.35-3.55-4l4.72-.88c-3.53-5.54-14.22-4.94-11.89-15.79l21.46,13C257.3,234.05,254,230,251,225.64a17.05,17.05,0,0,1-2.12-5.86,6.81,6.81,0,0,1,2.76-1.36,23.53,23.53,0,0,1,3.51,5.51c1.93,4.74,5.11,7.72,10.84,9.18-3-8.59-10.94-15.38-4.79-25.4l5.56,5.86,1.85-1.12L264,202.14c5.89-1.15,11.41-4.44,16.23.9a106,106,0,0,1,8.22,10c4,5.71,7.13,12.21,15.6,12.63.7,0,2.41,5,1.55,6.48-2.91,4.9-1.25,9.06,4.57,10.23,3.11.63,6.07,2,9.84,3.28.66-2.68,5.52-5-1.41-9.54-3.63-2.36-3.57-10.37-5.7-17.59-8.25-1.14-18.44-4.14-23.77-15.94l5.56,2.74c.61-7.57-13.36-6.15-7.81-16.48l18.2,22.27,5.19-4.68L304.19,194l1-.69c1.78,1.62,3.67,3.12,5.3,4.87,3.82,4.1,7,10.6,13.36,2.85.42-.52,1.77-.29,4.11-.59-1.65,1.31-2.29,1.92-3,2.39s-1.75.92-2.65,1.31l10.29,4.79-1,.69c1.78,2.84,3.71,5.6,5.29,8.55,1.82,3.38,3.32,6.94,5,10.41h0c2.11-.17,4.37-.9,6.3-.38,2.38.64,4.47,2.33,6.62,5.07l-13.53-2.65c.91,4.75,4.14,6.47,8.61,7.34,2.89.57,5.44,2.75,8.32,3.47s5.92.55,8.89.75l0-.08c-4.39-2.58-4.32-5.84.33-10.5,1.33,2.61,2.84,5,3.63,7.62.15.5-2.6,1.87-4,2.84l0,0,0,0,.19.13h0l0,0,0,0h-.09l3.26,6.31c4.08-3.4,6.6-5.63,4.81-11.7-1.72-5.81.88-12.75,0-19-1.16-8.14-3.89-16.05-5.91-24.06-.71-2.81-1.33-5.65-2.23-9.48l6.66,1.29c1-4.17.8-8.83,3-11.41,2.85-3.31,5.5-8.84,12.75-4.83,3.94,2.18,10.09.39,15.4.39,2-4.79.81-8.34-3.24-11.49-6-4.68-8-12.68-5.63-20.43.33-1.1-.58-2.58-1-4.22l6-.57-3-3.52,9.71-5.13c.41,5.09.68,9.75,1.21,14.38.4,3.5,10.93,10.35,16,10.64-.22-2.61-.45-5.22-.7-8.09l-4.13,2.9c-1.46-2.84-2.78-5.25-4-7.71-3.95-8.23-2.18-11.9,6.77-14.28,2.14-.56,4.25-1.22,6.93-2l2.34,7.24-6,.86c.72,3.38,1,6.76,2.26,9.67.69,1.53,3.34,3.33,4.88,3.15,7.54-.92,8.09-.67,9.68,8.24l-3.65-1.55c.42,11.86,6.71,20.8,13.27,29.61,5.56-6.87,10.65-14,12.57-23l2-.57c5.2,10.83,10.4,21.65,15.39,32,0-9.53.1-19.19-.09-28.83,0-1.94-.89-5.33-1.91-5.56-11-2.47-7.47-12.72-10.62-19.3-.55-1.17-.32-2.71-.44-4,2.16-.92,4.57-1.28,6-2.67,5.53-5.43,10.49-6.33,17.15-3,5,2.53,10,2.17,14.39-1.2l13.75,5.4,6.46-3.07c.53,3.18,1.07,6.35,1.74,10.31.91-1.57,2.12-3,2.59-4.59,2.44-8.36,3.65-8.87,8.69-5.26L568.13,116l10.2,13.48c10.56-3.15,21.21-3.23,30.65,4.67,1.24,1,2.3,3.63,1.89,5-1.83,6.21,1.4,9.08,6.4,11.13l-.31,0,.31,0-4.29-6.5,10.53,1c4.43,9.89-4.36,13.7-7.53,20.65-4.14-5.9-.38-10.41,1-15.1-1.45.6-3.2,2-4.3,1.66-6.15-2.18-8.49,2.17-11.52,5.9-4.53,5.58-9.36,10.92-14,16.3-1-8-2.21-16.87-3.38-25.74l-1.49.22-3,6.48-3.59-10-2.43.25c.42,4.6,1.35,9.23,1.07,13.78-.21,3.35-1.7,6.75-3.2,9.84-.82,1.7-2.84,2.81-4.32,4.18l1.3,1.35,7.37-5.44c1.36,9.26-1.05,15.17-7.88,21.27-4.11-2-8-4.09-12-5.86-.58-.25-1.72.89-2.65,1.25-1.16.47-2.36.81-3.55,1.19-.31-1-1.19-2.33-.83-2.9.78-1.26,2.38-3.15,3.3-3,3.88.76,9.48,2.72,9.47-2.62,0-4.58-4.6-9.11-7-13.76a48.39,48.39,0,0,1-2.19-6.19l-2.18-.25q-2.68,12.5-5.4,25l-2.16-.32c.1-2,.1-3.94.33-5.89.75-6.43,1.81-12.84,2.19-19.29.09-1.54-1.79-3.46-3.22-4.68-.59-.52-3.3.11-3.42.6a9.76,9.76,0,0,0,0,5.36c1.62,4.34.51,8.89-3,10.65,0,.12,0,.23.05.35l-.25-.24.2-.11c-.59-4-1.54-8-1.56-12.07,0-3.2,1.22-6.42.88-9.74-3.3,4.42-7,8.63-9.74,13.37a10.33,10.33,0,0,0-.57,7.81c1.89,5.19.91,12.67-3.42,16.23,0-2.27.13-4.23,0-6.15a38.84,38.84,0,0,0-.94-4.66l-1.84-.19c-.86,1.7-2.58,3.48-2.44,5.1.6,6.72-4.35,11.82-5,17.81-.56,5.49,1.9,11.22,2.15,16.88a29,29,0,0,1-2.15,11.56c-.45,1.15-4.24,1.64-6.33,1.32-2.84-.43-5.51-1.93-8.91-2.24-2.28-4.16,6.13-9.78-2.16-15-1.06,3.09-2,5.91-3.22,9.4l-9.67-9c8.18-9.11,7.22-12.41-5.7-16.24-.69,2.46-1.32,4.94-2.08,7.38-.81,2.6-1.86,5.12-2.6,7.74s-2.35,7.2-1.62,7.63c5.81,3.44,3.7,9,4.17,13.7.16,1.59-1.56,3.38-2.42,5.07-1.27-1-3-1.8-3.71-3.12-2.79-5.06-5.67-10.17-2.83-16.33.38-.82-.64-2.24-.91-3.41-1.06-4.56-1.81-9.22-3.25-13.65-.52-1.6-2.66-2.67-4-4,5.63-5.59,4.88-11-2.3-16.74,3.86,4.93,1.3,10.88,2.13,16.3.75,8.34,2,16.68,2.12,25,.12,9.24,6.42,17.92,2.32,27.4-.65,1.49-2,3.77-3,3.74a7.32,7.32,0,0,1-5.29-2.49,90,90,0,0,1-7-12.55c-.71-1.53-.29-3.6-1.92-5.71-.45,2.39-1.48,4.83-1.22,7.14.52,4.76,1.11,8.69-5.7,5.1-.52-.27-1.82.92-3.69,1.94l8.4,5.18c-4,6-1.57,10.94,3.19,15.65-5.19,5.41-6.75-.73-10.31-3.81,1.62,5.79,2.86,10.24,4.1,14.7l-1.7,1.44-11.48-4c-.84,2.87-1.68,5.71-2.53,8.59-2.05-.1-5.57-1-6-.17-6.33,11.89-22.64,8.91-30.7,19.93-3-1.39-7.23-2.48-7.05,1.78-4.06,3.48-6.93,5.35-9.05,7.86C363,318.2,359.2,327,349.58,330.43c-2.23.8-3.37,4.67-6,8.56l-4.82.51c-.37,5.45-.72,10.59-1.08,15.74l2.06.34c6.93-5.18,14.29-9.88,20.69-15.65,8.33-7.51,16.9-14.32,27.36-18.68,12.6-5.25,24.59-12.48,37.62-16.05,34-9.31,68.59-11.76,103.1-1.73a82.33,82.33,0,0,1,14.07,6c7.3,3.71,11.27,8.61,10.65,18.12-1.62,24.88,23.11,45.42,46.44,39.32a50.84,50.84,0,0,0,10.19-4.4c9.13-4.74,15.21-4,23.4,3.15,13.15,11.42,23,25.31,31.52,40.41,11.6,20.51,18.6,42.39,22,65.6.67,4.52,2.82,8.82,3.63,13.33a53.45,53.45,0,0,1,.56,11.92c-.47,9.82-1.1,19.63-2,29.43-.47,5.17-1.81,10.26-2.33,15.44-.21,2.09.75,4.3,2.17,6.39,5.51-5.79,3.34-12.39,3-18.57l9.79-7.32-5.4-3.83c2.42-5.86,5.27-11.26,6.69-17,.51-2.08-2.41-5-4-8.06,6.47-5.34,6.26-13.13,5.73-21.05a4.25,4.25,0,0,1,.79-3.07c6.29-6,5.25-14,4.86-21.24-.26-4.86.6-7.39,3.58-8.35l7.22,3.12.87-6.71,21.5-10.4-.11-2.89c2.79,2,5.33,4.78,8.45,6a30,30,0,0,0,11.62,1.68c.64,0,.86-5.13,1.71-7.75,1-3,1.72-6.69,3.89-8.53,3.46-2.92,7.4-4.84,10.8-8.42,4.24-4.46,11.49-6.29,17.68-8.61,4.62-1.73,8.39-2.51,12.64-7,6.7-7,13.43-17.17,26.18-15.92-.24,2.28-.53,5-.87,8.16l-4.81-1.05c0,.78.11,1.55.16,2.33,2.83-.35,5.79-.29,8.46-1.16s5.27-2.72,7.88-4.13l1.34,2-3.5,6.28,8,2-8.4,8c3.73.83,7.15.65,9,2.26,2,1.8,2.16,5.52,3.83,7.9,3.51,5,3.24,12.51,10.5,15.24,1.14.43,1.92,5.26,1,7.14-2.74,5.62-3.1,10.49,1.68,15,3.12,2.95,3.73,5.56-.24,8.49a19.23,19.23,0,0,0-4.94,5.79c-1.12,1.94-2.14,4.39-1.94,6.5s3,6.07,2.79,6.22a119.12,119.12,0,0,1-14.72,8.22c-2.45,1.12-5.79.44-8,1.75-3.65,2.11-6.78,5.12-10,7.88a51.11,51.11,0,0,0-4.09,4.49c8.26,1.39,12.88-13.37,19.54-6.23l5.85-5.6,1.73,2.93c2.39,1.27,4.7,3.46,7.16,3.64,11.09.84,16.71,10.92,11.13,20.66-.45.78-1,1.47-1.94,2.71,6.23,4,3.63,6.8-1.19,9.62-1.73,1-2.71,3.29-4,5C869.42,527,871.63,527.38,873,528.66ZM142.26,497.52l5.6,7.15-13.81.62.69-2ZM142.19,487a5,5,0,0,1,1.31-1c.2-.07.62.53.94.84-.39.26-.72.66-1.06.66S142.59,487.2,142.19,487Zm393-317.18.26.24-.19,0c3.26,8.48,2.87,10.16-5,22.23-1.23-.92-3.6-2.1-3.46-2.68,1.61-6.85,3.59-13.61,5.47-20.4l3,.85A1.46,1.46,0,0,0,535.19,169.83Z"/><path d="M810.47,547.76c-2.12,3.3-4.31,6.68-6,9.31h11.18l-.91-1.4,9.28-6Z"/><path d="M647.74,458.09c1.5-1.5,2.14-5.49,1.2-7.36s-4.66-3.88-6.59-3.42a99.59,99.59,0,0,0-16.72,6.11c-8.06,3.55-10.52,2.25-10.6-6.61-.09-9.71.5-19.44.05-29.13-.17-3.56-1.61-8.88-4.06-10.05-3-1.45-7.85.17-11.66,1.27-2,.59-3.33,3.27-5.32,4.32-3.46,1.81-7.12,4.07-10.84,4.39-8.81.75-14.1,3.75-14.82,11.69-1.2,13.41-1.58,26.91-1.94,40.38-.14,5.09,3.19,6.21,7.65,4.71,6.88-2.31,8.57-7.71,8.71-14.22.13-6.15.08-12.36.9-18.43.86-6.43,2.41-12.94,8.22-17,1.7-1.18,4.35-2,6.19-1.56,1.1.28,2,3.36,2.1,5.22.16,4.16-.41,8.35-.4,12.53,0,8.09.22,16.18.37,25.34l-74.88,43.6c0-2.8-.11-4.85,0-6.89q1.6-25.73,3.3-51.43c.25-3.85-.59-7.9-5-7.33-3.26.42-6.71,3.06-9,5.64-1.4,1.55-.89,4.88-1.13,7.41-1,10.87-1.55,21.82-3.25,32.57a22.28,22.28,0,0,1-6.31,11.62c-2.94,2.86-7.09,1.7-7.36-3.22-.65-11.39-.71-22.82,6.08-32.87,1.3-1.92,3.33-3.52,4-5.6s.3-4.79.36-7.22c-2.19,0-4.61-.54-6.52.2-9.27,3.59-14.66,11.27-16.24,20.34-2,11.56-2.51,23.47-2.67,35.24-.1,6.77,4.79,10.63,11.69,9.88,5.51-.59,10.86-2.6,16.29-4,1.92,4.83-.92,7.37-4.52,10.16-24.77,19.24-49.58,38.44-74,58.17-9,7.28-17,15.84-25.11,24.14-1.9,2-3.55,5.35-3.3,7.88s2.92,6.34,4.86,6.55c3.43.37,8.27-.43,10.52-2.71,20.67-21.06,41.05-42.38,64.66-60.3,8.73-6.63,17.24-13.54,26.6-20.91,0,20.07,0,38.38,0,56.69,0,9.29-.51,18.61.11,27.85.44,6.65,4.94,9.6,11,8.73,5.4-.78,8.43-5.05,7.59-11.15-1.47-10.82-4.13-21.59-4.43-32.43-.49-17.7.69-35.43.76-53.16,0-4.69,1.36-8,5.23-10.47,34-21.86,67.92-43.8,106.59-57C640.45,464.83,644.4,461.4,647.74,458.09Z"/><path d="M644.61,809.5l4.07,2.71c-3.39,5.5-5.66,3.24-7.53-1l-2.06,4.52c-3.57-6.28-6.86-12.05-10.42-18.32l-8,7.43c9-.77,8.87,4.46,9.82,8.84l12.57,8.49h0l8.63-4C649.53,816.12,652.48,808.83,644.61,809.5Z"/><path d="M684.83,706.9c7.22-8.49-3.13-8.31-4.48-13.8l-4.44,6.17C683.92,696.2,682.71,702.92,684.83,706.9Z"/><path d="M727.52,642.87c-.41-.25-2.24,1-2.22,1a32.87,32.87,0,0,0,2.61,5.61c1.33,2.06,3,3.9,5.52,7.12,0-4.35.76-7.26-.22-9.35S729.59,644.13,727.52,642.87Z"/><path d="M659.28,789.75c-.17,2-.25,4.07-.52,6.09s-.7,3.81-1.16,6.19l8.62,1.81c-.35,1.57-.59,2.64-.94,4.19l8.07-3.16C673.41,789.66,673.2,789.43,659.28,789.75Z"/><path d="M674.87,767.61l8.91,15c3.31,5.56,6.66,5.07,10.36.21l-17.32-16.76Z"/><path d="M588.39,792l-4.26-.21c.25,4.16-.17,8.08.89,11.56.87,2.87.26,8.44,6.59,6.92h0C590.47,803.74,589.47,798.07,588.39,792Z"/></svg>