<svg xmlns="http://www.w3.org/2000/svg" viewBox="0 0 1000 1000"><path d="M876.78,371.4c-1.207,13.2-1.93,26.462-3.7,39.586C857.629,525.773,799.17,612.38,700.2,671.52,648.673,702.308,592.428,718.5,532.18,719.2c-57.9.671-115.806.873-173.71,1.111-14.777.06-18.336-3.653-18.438-18.3q-.189-26.96,0-53.922c.1-14.125,3.022-17.031,16.992-17.043,55.92-.049,111.84.135,167.759-.07,119.938-.439,226.65-84.674,254.9-200.991C815.718,281.6,713.3,130.6,562.043,112.138c-39.727-4.85-80.382-2.081-120.61-2.858-5.841-.113-8.463,2.5-8.434,8.394.1,20.636.154,41.274-.028,61.909-.062,6.949,3.724,8.188,9.539,8.16,25.962-.121,51.925-.049,77.888-.036,94.488.049,171.784,63.815,185.356,157.169,14.937,102.742-56.42,187.718-147.618,204.052a179.426,179.426,0,0,1-30.766,2.447c-55.585.232-111.173.136-166.759.1-14.832-.009-16.993-2.1-17-16.571q-.069-81.382,0-162.766c.012-13.349,3.181-16.523,16.449-16.587q27.96-.134,55.92,0c13.662.073,16.892,3.307,16.958,17.319.124,26.295.309,52.595-.1,78.884-.135,8.6,2.559,11.837,11.412,11.571,31.9-.959,64.1,1.141,95.649-2.544,44.563-5.205,77.971-44.794,79.129-88.378,1.185-44.587-29.975-83.915-74.535-93.5-7.072-1.521-14.53-1.726-21.81-1.737q-121.825-.173-243.65-.061c-13.728,0-13.9.18-13.9,13.966q-.018,293.077.006,586.157c0,13.719.225,13.916,13.949,13.946,17.309.037,34.625-.3,51.922.128,8.343.207,11.034-3.023,10.889-11.135-.379-21.3-.2-42.6-.08-63.906.079-14.353,3.24-17.352,17.817-17.384,18.64-.04,37.28-.085,55.919.022,12.144.069,15.725,3.447,15.747,15.278q.143,75.392.018,150.783c-.018,12.152-3.36,15.482-15.426,15.491q-112.338.086-224.677,0c-12.5-.009-15.361-2.847-15.362-15.274q-.049-380.952,0-761.9c0-12.591,3.129-15.534,16.291-15.55,46.266-.056,92.536-.315,138.8.2,10.242.114,12.956-3.086,12.853-13.048q-.714-68.893.055-137.8c.059-5.748,3.7-11.46,5.683-17.188H553.24c5.867.879,11.727,1.8,17.6,2.63,68.539,9.649,129.751,36,182.149,81.426,68.1,59.034,108.522,133.279,119.89,222.939,1.705,13.452,2.619,27,3.9,40.51Z"/><path d="M465.429,947.345a32.26,32.26,0,0,1,32.822-32.656,32.65,32.65,0,0,1,32.873,32.816c-.019,17.8-15.277,32.967-33.093,32.9A32.577,32.577,0,0,1,465.429,947.345Zm60.235-.229c-.107-15.323-12.87-28.252-27.721-28.083S470,932.357,469.844,947.26c-.158,15.248,13.6,28.868,28.779,28.481C513.917,975.35,525.775,962.8,525.664,947.116Z"/><path d="M510.3,963.864c-13.56-17.336-13.843-17.34-23.667-.032-.5-4.044-1.112-8.079-1.452-12.137-.22-2.639-.044-5.311-.039-7.969.027-14.511,9.211-19.906,22.226-12.616,2.478,1.387,5.832,6.229,5.157,7.414-4.5,7.9-1.114,15.5-.439,23.211C512.143,962.376,510.948,963.127,510.3,963.864Zm-13.2-14.358,8.987-9.271c-2.552-1.974-5.054-5.391-7.673-5.483-2.242-.078-5.65,3.283-6.56,5.831C491.284,942.187,494.365,945.1,497.1,949.506Z"/></svg>