<svg xmlns="http://www.w3.org/2000/svg" viewBox="0 0 1000 1000"><path d="M56.36,319.808c23.484,43.964,64.3,46.237,104.85,48.839,9.159.587,18.4.267,27.587-.019,8.339-.259,11.3,3.676,12.888,11.711,5.176,26.112,11.47,52,17.042,78.037a172.976,172.976,0,0,1,3.362,23.406c1.454,19.7,11.362,29.908,31.107,30.178,22.015.3,44.459,3.2,65.019-8.382,1.186-.669,3.077-.087,5.726-.087-1.572,11.965-11.172,15.2-18.639,18.7-11.258,5.275-11.874,11.724-8.65,22.722,12.957,44.205,25.642,88.364,52.171,127.01,2.617,3.811,3.331,9.432,3.582,14.283,1.906,36.718,3.468,73.453,5.153,110.182.725,15.812,8.069,24.9,20.406,25.3,12.467.412,19.943-8.012,22.007-23.961,3.966-30.66,8.181-61.288,12.37-91.918.36-2.635,1.3-5.19,4.832-7.87,3.525,21.965,7.141,43.916,10.539,65.9,1.977,12.8,3.449,25.674,5.431,38.471,1.971,12.728,10.773,20.965,21.432,20.525,10.473-.433,17.91-8.152,18.662-21.239q2.875-50.059,4.692-100.175c.325-9.017,2.568-13.647,12.779-13.959,55.21-1.685,107.438-14.74,155.624-42.439,2.449-1.408,5.252-2.2,10.019-4.148.744,7.618,2.188,14.061,1.863,20.413-2.3,45.047-4.927,90.078-7.542,135.109-.893,15.4,3.944,23.9,15.227,26.106,10.705,2.09,19.012-4.581,23.565-19.142q20.955-67.02,41.852-134.058c1.207-3.856,2.811-7.589,5.06-13.593,2.667,4.719,4.455,7.278,5.65,10.089,17.955,42.252,30.211,85.88,31.934,132.078.424,11.366,4.829,21.878,16.664,23.413,6.99.907,16.546-2.787,21.708-7.769,4.145-4,4.64-13.047,4.664-19.861.282-79.861.17-159.723.158-239.584,0-7.108-.234-14.223.011-21.322.281-8.136-3.486-10.895-11.409-10.856q-24.421.118-48.844-1.019c-53.484-2.578-100.506-26.305-149.233-45.006-30.255-11.612-61.445-22.429-93.2-28.079-38.714-6.889-76.345,3.715-112.177,19.432-3.927,1.723-8.049,3-12.081,4.484l-2.147-2.694c2.641-3.822,5.065-7.817,7.961-11.435,10.967-13.7,22.574-26.924,32.946-41.056,5.344-7.28,9.03-15.907,12.677-24.269,4.981-11.42,4.333-22.062-9.5-31.165,41.977-15.942,56.071-47.929,56.421-88.146-8.33,9.079-15.613,19.322-25.049,26.875C433.744,323.675,398.275,326.66,362.3,322.7c-18.4-2.024-36.554-7.731-54.358-13.262-30.467-9.467-59.46-6.852-89.491,3.628-45.207,15.775-90.958,17.464-134.979-5.559-18.417-9.632-19.115-11.6-9.334-29.483C154.5,131.09,276.855,41.858,443.639,23.335,633.069,2.3,784.1,74.381,896.349,228.06c10.765,14.739,10.324,14.8-2.484,28.045-27.07,27.986-57.447,51.824-97.547,54.007-29.772,1.62-60.028-1.852-89.819-5.244-44.943-5.116-89.573-11.389-134.41.915-39.379,10.807-74.784,28.676-105.174,56.1-2.1,1.9-5.308,4.575-5.146,6.667,1.932,24.829-8.9,45.209-24.05,66.8,8.432-1.351,14.393-2.233,20.327-3.27,33.122-5.788,66.125-4.832,97.836,6.248,34.691,12.122,68.719,26.175,102.864,39.815,72.619,29.009,146.665,38.318,221.448,11,27.909-10.2,53.347-27.184,79.825-41.238,4.62-2.452,8.808-5.717,15.3-9.991,9.029,61.827,4.415,120.476-10.26,178.271-28.584,112.574-90.713,203.188-184.292,271.388-180,131.185-432.914,117.932-597.475-28.506C7.344,702.5-9.792,470.08,56.36,319.808Z"/></svg>