<svg xmlns="http://www.w3.org/2000/svg" viewBox="0 0 1000 1000"><path d="M501.369,421.577c-70.01.347-140.026,1.353-210.018.6-18.989-.2-29.688,5.641-39.15,22.454C199.134,538.937,144.8,632.507,90.813,726.289c-2.708,4.729-6.119,9.075-9.576,14.142C-15.212,596.141-24.481,333.6,156.329,153.316,341.218-31.036,640.267-38.653,832.647,136.949c193.408,176.532,194.663,445.831,90.339,607.377L502.777,13.615c-4.76,6.606-8.339,10.757-11.028,15.428C459.02,85.855,426.8,142.96,393.513,199.433c-7.577,12.852-6.656,22.639.532,35.021,36.122,62.182,71.468,124.815,107.085,187.29Z"/><path d="M501.13,421.744c37.147,63.779,74.456,127.459,111.4,191.36,51.591,89.278,102.55,178.927,154.629,267.917,9.024,15.438,8.122,23.61-7.951,32.761q-257,146.366-513.671.14c-15.546-8.8-15.92-17.035-7.5-31.587Q365.292,662.542,491.41,442.118c3.777-6.58,6.652-13.673,9.955-20.532Z"/></svg>