<svg xmlns="http://www.w3.org/2000/svg" viewBox="0 0 1000 1000"><path d="M20.68,84.933h958.8c-.322,9.337-.92,18.674-.926,28.011q-.192,322.8.029,645.591c.026,15.315-4.479,26.442-15.274,37.051a414.317,414.317,0,0,1-98.353,71.685c-74.538,39.175-153.449,50.852-236.49,39.223-61.329-8.589-118.676-30.036-175.318-53.455-58.208-24.067-117.465-43.758-180.81-47.016-85.8-4.412-163.192,20.321-232.79,70.272-5.057,3.629-10.355,6.922-17.954,11.977V862.8q0-374.925-.038-749.85C21.555,103.611,20.985,94.272,20.68,84.933Zm146.08,270.4c6.685,7.3,9.909,10.6,12.888,14.1,36.72,43.245,74.69,85.519,109.5,130.253,15.133,19.448,31.363,25.623,54.452,24.145,25.428-1.628,26.2-.866,26.247-25.863q.225-113.22-.053-226.441c-.016-7.132-1.54-14.26-2.38-21.531H299.465V410.225c-39.056-45.825-77.351-87.686-111.837-132.479-17.936-23.3-37.042-32.938-65.814-30.232-24.885,2.342-25.284.635-25.324,26.463q-.151,96.188-.025,192.375c.006,14.025-.742,28.151.762,42.024.563,5.189,6.256,13.7,10.126,14,18.968,1.459,38.11.662,59.407.662v-167.7Zm486.963-60.283c-41.1-46.921-119.129-60.368-181.941-33.679-56.967,24.206-93.495,86.512-87.149,148.65A148.281,148.281,0,0,0,498.332,539.5c58.894,13.816,129.95-7.585,153.148-45.245l-36.8-44.338c-14.491,8.8-26.272,18.081-39.607,23.627-31,12.891-61.791,11.626-88.345-10.709-26.741-22.492-36.034-52.258-28.176-86.314,14.059-60.934,75.387-85.049,129.92-51.5,7.787,4.79,15.2,10.184,24.1,16.179ZM79.126,747.481c3.641-1.036,6.277-1.279,8.387-2.461,36.638-20.529,75.712-31.036,117.8-34.414,52.9-4.245,105.543-5.295,156.927,8.115,53.372,13.929,105.529,32.457,158.719,47.16,76.8,21.23,154.3,36.537,234.456,18.651,51.428-11.476,95.592-36.437,134.832-70.735,7.787-6.805,15.5-15.067,7.4-29.417-7.342,4.51-13.785,8.794-20.525,12.543-15.1,8.4-29.8,17.847-45.641,24.544-59.2,25.025-121.258,26.22-182.64,13.493-61.087-12.665-121.484-29.388-181.3-47.288-98.791-29.564-197.735-34.453-297.094-5.992-24.616,7.051-47.917,19.657-70.666,31.864C88.177,719.769,76.457,729.2,79.126,747.481Zm680.7-282.737V250.039H695.149V523.493c15.235,0,28.494,0,41.753,0q73.185-.009,146.369-.032c8.756,0,18.865.922,19.53-11.489.807-15.059.192-30.194.192-47.227Z"/></svg>