<svg xmlns="http://www.w3.org/2000/svg" viewBox="0 0 1000 1000"><path d="M911.5,994.805H830.712c-.627-10.013-1.79-20.026-1.8-30.041q-.181-201.477-.083-402.955V505.646c-27.514,0-52.458-.119-77.4.022q-125.649.71-251.283,1.558c1.164-9.007,3.275-18,3.314-27,.262-59.691,0-119.384.069-179.077.047-42.328.156-42.3-41.354-45.054-1.1-.073-2.065-2.1-4.916-5.185,11.969-21.893,24.672-44.415,36.566-67.357,3.179-6.132,7.512-15.39,5.132-20.066-13.542-26.61-28.956-52.266-45.909-82.072l-48.656,88.127c-17.08-30.3-32.024-56.8-48.937-86.8l-49.267,85.9-49.15-87.757-48.983,88.679L158.445,82.4c-15.616,29.1-29.2,53.843-42.049,78.964-2,3.919-2.441,10.475-.532,14.264,13.018,25.838,26.858,51.261,42.641,80.976l49.442-87.355c7.2,12.409,10.822,21.026,16.472,28,34.478,42.559,32.941,84.6-.993,126.357-15.864,19.522-12.2,38.339,1.972,56.243,31.1,39.276,33.259,78.372.947,118.018-.755.927.049,3.126.237,7.043,14.834,0,29.784-.1,44.732.017q114.6.923,229.194,1.94,1.074,99.453,2.126,198.908c.148,14.782.022,29.566.022,47.165h81.37c.683,9.447,1.492,16,1.58,22.567q1.471,109.647,2.752,219.295H497.475c-4.86-5.744-9.339-11.87-14.638-17.177Q323.374,817.923,163.68,658.447C113.712,608.661,63.093,559.527,12.768,510.1V171.813l49.866,83.909c15.091-28.137,28.936-53.654,42.38-79.381,1.752-3.353,3.278-8.772,1.786-11.568-14.25-26.707-29.173-53.056-45.273-81.967L12.768,166.764c0-46.283,1.138-92.609-.626-138.825-.606-15.871,7.42-12.4,15.773-12.646L61.824,73.81,93.553,15.293H128.9c9.023,18.64,18.045,37.281,29.939,61.853l30.649-61.853h35.344c10.122,18.97,20.245,37.94,32.114,60.182l33.523-60.182h35.343c9.09,19.018,18.18,38.035,29.676,62.088L386.4,15.293H421.74l31.189,61.643,34.448-61.643h262.55c.2,70.661,1.793,141.359-.11,211.963-.721,26.78,8.6,32.62,32.912,32.049,58.857-1.384,117.768-.613,176.656-.378,10.479.042,20.951,1.686,30.593,2.518v244.8c-18.2,0-34.237,1.12-50.047-.275-21.06-1.859-27.015,6.2-26.89,27.172.84,141.328.436,282.664.273,424C913.3,969.692,912.13,982.248,911.5,994.805ZM61.266,263.169c-15.419,28.973-29.368,54.289-42.2,80.16-2.185,4.406-1.314,12.091,1.1,16.721,12.637,24.235,26.226,47.974,41.434,75.4,16.172-29.1,30.467-54.423,44.179-80.056,1.578-2.95,1.176-8.318-.469-11.419C91.688,318.294,77.556,292.881,61.266,263.169Zm97.487,173.5c14.048-25.948,25.663-46.9,36.726-68.135,3.4-6.525,9.388-15.741,7.19-20.474-12.68-27.314-27.459-53.653-43.918-84.856-16.094,30.208-29,53.648-40.96,77.561-2.322,4.642-3.116,12.2-.936,16.588C129.37,382.53,142.993,407.154,158.753,436.671Zm33.629,66.56-33.9-59.179c-12.018,22.17-21.439,39.548-32.082,59.179Zm-97.858.418-33.2-61.167L28.972,503.649Z"/><path d="M664.094,994.805c-.1-72.265.271-144.535-.619-216.79-.238-19.3,5.43-26.422,25.8-26.32,61.033.3,61-.531,60.875,61.608q-.18,90.75-.219,181.5Z"/><path d="M594.927,717.069c6.246-13.406,12.437-26.7,18.628-39.986l-4.861-4.334c-22.093,14.344-46.745,24.681-65.543,1.888-9.319-11.3-12.621-32.919-9.465-47.941,5.212-24.806,28.248-27.54,52.848-25.19-5.2-23.373-10.463-49.141,14.833-59.413,14.7-5.969,37.139-4.6,51.349,2.708,20.695,10.639,18.333,33.4,10.494,55.184,24.544-.3,49.846,2.04,54.4,29.454,2.483,14.954-2.73,36.3-12.738,47.126-19.514,21.1-42.982,9.462-68.572-1.408,5.98,13.576,11.96,27.153,18.46,41.912Z"/><path d="M376.045,430.316c-19.675,2.209-32.582,7.373-42.377,3.86-13.621-4.885-28.556-13.851-36.285-25.485-9.871-14.858-1.691-30.5,12.187-41.762,26.048-21.141,51.99-42.411,70.674-57.666,19.688,16.342,49.522,39.156,76.569,64.9,6.941,6.605,10.051,24.73,6.031,33.476-5.132,11.165-18.019,21.813-29.908,25.954-11.58,4.032-26.117-.423-45.846-1.509l27.349,41.076H345.564Z"/><path d="M259.332,254.546l47.3-86.171,47.6,86.171Z"/><path d="M403.873,166.4l47.255,89.1h-93.5Z"/></svg>