<svg id="Layer_1" data-name="Layer 1" xmlns="http://www.w3.org/2000/svg" viewBox="0 0 1000 1000"><path d="M500,0C223.86,0,0,223.86,0,500s223.86,500,500,500,500-223.86,500-500S776.14,0,500,0ZM838.9,314q0,186-.12,371.92c0,3.75-.92,8.15-3,11.07s-6.18,4.18-9.43,6.12c-9.48,5.67-18.94,11.39-28.5,16.92-3.67,2.12-7.59,3.79-11.41,5.66-.28.13-.65.1-.91.26q-12.63,7.37-25.25,14.77c-6.8,4-13.64,7.89-20.44,11.87-3,1.75-5.89,3.63-8.9,5.34-7.68,4.38-15.47,8.56-23.06,13.07-8.51,5.06-16.78,10.52-25.29,15.57-3.92,2.32-8.21,4-12.21,6.19-2.35,1.27-4.37,3.12-6.7,4.43-13.3,7.51-26.73,14.78-39.95,22.44-12,7-23.7,14.44-35.69,21.4-9,5.23-18.31,9.94-27.4,15-5.23,2.92-10.29,6.13-15.44,9.19-9.22,5.46-18.42,11-27.71,16.33-3.14,1.81-6.6,3.07-9.71,4.93-1.15.68-1.7,2.36-2.53,3.59H491.83c-1.24-1.34-2.25-3.07-3.75-4-9.08-5.4-18.32-10.53-27.41-15.91-5.57-3.3-10.87-7.06-16.48-10.3-9.61-5.55-19.39-10.84-29.07-16.28-6.59-3.7-13.11-7.51-19.71-11.18-3.85-2.14-7.92-3.9-11.68-6.17-10.81-6.55-21.38-13.48-32.28-19.86-9.94-5.81-20.22-11-30.26-16.65C315,786.35,309,782.54,302.86,779c-8.71-5-17.56-9.76-26.23-14.83-11.25-6.59-22.35-13.45-33.6-20-7.48-4.4-15.11-8.54-22.65-12.83Q202.52,721.15,184.66,711c-3.84-2.2-7.51-4.73-11.49-6.59s-6.7-6.85-12.17-5.48V301.12c2.72-1,5.59-1.65,8.11-3,3.35-1.77,6.33-4.22,9.63-6.08,6.44-3.65,13.1-6.91,19.49-10.64,9.11-5.33,17.91-11.2,27.11-16.38,11.24-6.34,22.87-12,34.09-18.35,9.29-5.28,18.25-11.15,27.34-16.78,2.42-1.51,4.71-3.23,7.21-4.6,6.6-3.64,13.36-7,19.89-10.72C324,208.78,334,202.67,344,196.8c8.3-4.82,16.73-9.44,25.06-14.23,6.31-3.62,12.52-7.44,18.85-11,3.69-2.09,7.63-3.76,11.28-5.92,8.9-5.27,17.59-10.88,26.55-16,6.27-3.6,13-6.4,19.25-10,9-5.19,17.8-10.83,26.74-16.18,4.18-2.5,8.66-4.53,12.74-7.18,2.68-1.74,4.9-4.2,7.33-6.34h13.38c.82,1.22,1.36,2.93,2.51,3.6q14.1,8.22,28.4,16.11c9.63,5.34,19.44,10.36,29,15.85,8.48,4.88,16.69,10.25,25,15.33,3.9,2.37,7.89,4.57,11.84,6.86,6.69,3.89,13.36,7.83,20.08,11.68,5.76,3.31,11.58,6.5,17.37,9.76,3.29,1.84,6.6,3.64,9.83,5.58,6.32,3.82,12.5,7.89,18.91,11.54,6.15,3.5,12.63,6.42,18.77,9.93,6.68,3.81,13.1,8.06,19.69,12,3.92,2.35,8,4.5,11.93,6.78,11.62,6.7,23.17,13.5,34.84,20.1,6.42,3.63,13.05,6.89,19.52,10.43,2.49,1.36,4.76,3.14,7.24,4.55,13,7.39,26.09,14.64,39.06,22.09a149.49,149.49,0,0,1,16,10.18c1.88,1.43,2.67,4.52,3.53,7C839.22,310.72,838.9,312.45,838.9,314Z"/><path d="M787.3,324c-.57-.14-1-.74-1.57-1.06-9.1-5.38-18.15-10.82-27.31-16.09-8.85-5.08-17.83-9.92-26.69-15-6.83-3.91-13.54-8.05-20.34-12-6.24-3.64-12.56-7.12-18.78-10.78-8.71-5.11-17.29-10.43-26-15.45-9.28-5.33-18.72-10.37-28-15.61-7-3.92-13.89-8-20.85-11.94-3.15-1.8-6.41-3.4-9.52-5.27-11.36-6.83-22.58-13.91-34.06-20.56-9.81-5.7-20-10.77-29.82-16.42-5.56-3.19-10.66-7.16-16.17-10.43-7.58-4.51-15.32-8.76-23.06-13-4.28-2.35-8.67-2.8-13,0-5.71,3.63-11.4,7.3-17.18,10.8q-9.34,5.67-18.85,11c-3.7,2.09-7.61,3.8-11.26,6-8.9,5.27-17.6,10.87-26.57,16-6.27,3.59-13,6.4-19.24,10-9,5.2-17.84,10.77-26.72,16.21-3,1.81-5.81,3.8-8.82,5.51-6.32,3.59-12.75,7-19.06,10.6-6.7,3.82-13.24,7.91-20,11.67-6.18,3.45-12.67,6.35-18.74,10C294,275,282.69,282.4,271.06,289.27c-8.93,5.27-18.24,9.91-27.25,15-12.15,6.91-24.16,14.07-36.27,21.05-3.74,2.16-5.58,4.88-5.58,9.56q.19,165.15,0,330.3c0,4.74,2,7.41,5.71,9.48s7.4,4.12,11.07,6.23c4.48,2.58,8.88,5.28,13.38,7.8,5.65,3.15,11.46,6,17,9.3,5.27,3.11,10.22,6.74,15.49,9.85,8.41,5,17,9.62,25.46,14.47s16.59,9.72,24.95,14.47c9.17,5.21,18.48,10.16,27.62,15.43,9.56,5.52,19,11.3,28.48,16.91,6.39,3.77,12.85,7.43,19.26,11.19,8.28,4.86,16.47,9.9,24.84,14.63,6.52,3.69,13.33,6.85,19.84,10.55,9.58,5.43,19,11.07,28.48,16.74s18.62,11.3,27.85,17.07a12.34,12.34,0,0,0,13.86.17c9-5.41,17.85-11.13,26.9-16.49,8.11-4.8,16.41-9.28,24.61-13.92,11.68-6.59,23.38-13.12,35-19.8,12-6.9,23.93-14,36-20.9,5.73-3.28,11.77-6,17.42-9.44,11.61-7,23-14.38,34.6-21.3,12.44-7.41,25-14.56,37.67-21.64,11.93-6.69,24-13,36-19.73,8.52-4.79,16.85-9.91,25.27-14.89,3.53-2.09,6.93-4.47,10.64-6.21,6.45-3,7.53-4.38,7.53-11.63q0-81.72,0-163.46c0-53.21-.13-106.43.13-159.65C797,332.53,796.24,326.15,787.3,324ZM738.1,629.64c0,6.17-3,9.82-8.31,12.62-6.94,3.66-13.45,8.12-20.25,12-5.59,3.23-11.4,6.09-17,9.31-9.8,5.64-19.43,11.58-29.28,17.12-11.3,6.35-22.79,12.38-34.17,18.6-3.55,1.94-6.83,4.66-10.6,5.81a9.1,9.1,0,0,1-7.56-1.89c-14.29-13.83-28.28-28-42.34-42L393.91,486.43c-.55-.54-1.17-1-1.76-1.52l-1.54.12c-.17,2.41-.49,4.81-.49,7.21q0,103,0,206a9.48,9.48,0,0,1,0,2.38c-.75,2.58-1,6.47-2.66,7.31s-5.11-1-7.49-2.16q-10.16-5.07-20.06-10.63c-5.74-3.21-11.3-6.76-17-10.07-6.94-4-14-7.93-20.91-12-6.15-3.6-12.14-7.44-18.32-11-9.14-5.25-18.39-10.32-27.58-15.51-3.66-2.07-7.57-3.86-10.76-6.52-1.73-1.44-2.37-4.38-3.11-6.76-.46-1.46-.21-3.15-.21-4.75q0-128.1,0-256.2a26.18,26.18,0,0,1,1.5-8.81c.62-1.66,2.5-3.11,4.15-4.08,6.33-3.74,12.85-7.17,19.22-10.85,6.54-3.77,13-7.73,19.49-11.55q10-5.85,20.11-11.59c8.92-5.06,17.9-10,26.83-15.07,5.71-3.24,11.35-6.59,17-9.88,3.28-1.9,6.44-4.82,9.93-5.32,2.8-.4,6.67,1.45,8.93,3.53Q405,313.22,420,328.42c10.94,11,21.47,22.4,32.36,33.45,6.45,6.53,13.29,12.68,19.91,19.05,4.9,4.72,9.79,9.45,14.56,14.31,5.77,5.87,11.32,12,17.13,17.79,7.26,7.28,14.72,14.38,22.06,21.59q7.8,7.65,15.52,15.38c8.4,8.38,16.83,16.75,25.17,25.18,5.57,5.63,11,11.36,16.52,17.05,6,6.15,11.85,12.34,17.86,18.42,1.18,1.2,2.78,2,5.22,3.66.38-2.35.64-4.73.79-7.11q0-102.53.13-205c0-3.21.51-7.72,2.57-9.33,3.35-2.61,6.81.63,10.18,2.67,10.78,6.53,21.88,12.52,32.82,18.78C659,317.78,665,321.48,671.21,325c9.45,5.35,19,10.51,28.42,15.92,6.36,3.66,12.54,7.64,18.85,11.38,3.81,2.26,7.63,4.52,11.61,6.46,5.22,2.55,8,6.36,8,12.31Q738,500.35,738.1,629.64Z"/></svg>