<svg xmlns="http://www.w3.org/2000/svg" viewBox="0 0 1000 1000"><path d="M474.474,996.916c-15.4-3.924-31.124-6.874-46.14-11.936-77.1-25.989-130.356-78.432-162.7-152.072-32.477-73.948-33.946-149.523-7.382-225.85,19.2-55.174,47.222-105.938,75.738-156.585,32.71-58.1,65.107-116.387,96.418-175.245a322.621,322.621,0,0,0,34.846-105.919c4.421-30.76,2.729-61.114-9.523-90.237-9.959-23.669-27.75-40.093-48.964-53.408-3.611-2.266-7.037-4.827-10.549-7.251l.849-2.484c3.144.382,6.447.269,9.409,1.222,36.676,11.8,62.887,36.016,79.132,70.376C500.555,119.14,502.8,153.1,500.738,187.708c-3.594,60.2-25.019,115.059-49.955,168.709-22.048,47.438-45.676,94.141-68.746,141.1-22.087,44.957-45.277,89.464-59.462,137.792-20.809,70.9-14.671,139.214,23.556,202.937,32.172,53.629,79.135,88.746,141.509,98.1,73.584,11.035,139.56-8.921,196.651-57,40.42-34.042,67.587-76.8,82.412-127.512,2.326-7.957,4.622-15.95,7.562-23.686,1.265-3.33,4.137-6.047,6.279-9.043v32.572a29.78,29.78,0,0,0-1.3,4.566c-8.3,67.72-38.106,124.157-88.9,169.453-29.1,25.948-61.778,46-99.3,57.17-18.23,5.428-36.888,9.416-55.353,14.056Z"/><path d="M424.267,880.551c9.37-.747,18.745-2.193,28.109-2.127,51.445.365,98.3-14.7,139.948-44.15,53.3-37.687,87.878-88.419,97.933-153.846,12.112-78.8-10.918-146.816-65.4-204.459a286.145,286.145,0,0,0-56.834-46.538c-4.145-2.583-7.739-6.055-11.587-9.116l.939-2.577c2.812,0,5.738-.516,8.418.078C606.211,426.775,641.74,445.162,672,473.55c41.388,38.825,65.983,86.841,73.4,142.693,10.444,78.652-9.9,149.12-63.853,207.91C642.984,866.18,594.3,890.464,537.783,899.46c-34.942,5.561-68.482.277-101.727-9.681-4.367-1.308-8.365-3.851-12.534-5.822Z"/><path d="M619.9,616.406c1.44,6.637,3.381,12.049,3.671,17.547,1.108,20.984,2.9,42.041,2.108,62.983-.752,19.928-12.5,35.795-25.008,50.436a86.361,86.361,0,0,1-34.027,24.015c-17.039,6.842-34.019,13.829-52.573,21.384-1.012-8.886-2.263-16.629-2.713-24.418-1.472-25.452-3.889-51.146,6.978-75.339,10.044-22.364,24.951-40.871,47.259-51.962C582.9,632.449,600.79,625.023,619.9,616.406Z"/><path d="M461.813,502.646c18.125,23.751,42.609,39.742,50.629,68.519,3.943,14.148,4.715,28.062.7,42.384-6.31,22.5-21.035,40.423-31.714,62.558-5.268-5.412-9.7-9.437-13.512-13.979-11.874-14.135-24.662-27.626-31.32-45.436-8.31-22.232-9.165-44.181,1.534-65.917C445.7,535.4,453.258,520.03,461.813,502.646Z"/><path d="M474.586,766.853c0,7.018.063,14.036-.025,21.053-.048,3.816-1.836,6.452-5.948,5.281-21.983-6.259-45.011-10.5-61.871-27.9-14.872-15.353-24.577-33.157-24.5-55.359.032-9.225-1.237-18.455-1.231-27.682.006-8.69,1.713-9.8,9.616-7.508,11.93,3.453,23.93,6.724,35.681,10.722,27.619,9.4,47.6,37.011,48.225,66.084.11,5.1.016,10.209.016,15.313ZM401.8,700.36c-3.513,31.638,18.792,63.978,53.711,67.313C462.388,734.6,433.559,698.468,401.8,700.36Z"/></svg>