<svg id="Layer_1" data-name="Layer 1" xmlns="http://www.w3.org/2000/svg" viewBox="0 0 1000 1000"><path d="M633,451.28c-22.5-.84-44.16,3.08-65.65,9.63a181.3,181.3,0,0,0,40.86-52.36,206,206,0,0,0-30,13.2c-9.55,5.33-18.48,11.77-28.66,18.36,10.46-20.6,18.95-40.79,21.1-63.16-18.15,13.85-32.06,31.22-44.36,50.12,3.19-22.36,3.44-44.49-2-66.61-12.53,19-19.5,40-24.64,61.84-4.9-22.1-12-43.05-24.69-61.92-5.1,22.16-5.23,44.24-1.91,66.56C460.7,408.1,447,390.5,428.63,377.08c3,22.52,10.61,43.28,21.15,63.19-18-13.4-36.95-24.87-58.66-31.44,10.28,20,24.43,36.83,40.87,52-21.47-6.42-43-10.52-65.48-9.5,16.19,15.47,35.35,26,55.62,35-22.15,1.42-43.68,4.8-64.17,13.75a178.14,178.14,0,0,0,66,13.19c-21.27,8.47-40.68,19.8-57.62,35.44,22.49.78,44.19-2.79,65.93-10.14-8.09,8.73-15.86,16.59-23,25s-13.83,17.31-18,27.82c21.92-7,41.29-18.26,59.11-32.53-10.78,20.24-18.85,41.27-21.72,64.22,18.3-13.57,32.09-31,44.47-49.91-3.1,22.29-3.44,44.38,1.48,67.44A24.36,24.36,0,0,0,477,638c11.08-18.7,17.92-39,22.72-60.19,5.25,21.89,12,43,24.71,61.78,5.56-22.13,4.87-44.22,1.56-67.75,12.65,20.3,26.88,37.34,44.87,51.22-2.83-23.2-11.19-44.36-22.69-65.4,18.64,15.18,38.11,26.67,60.27,33.46a180.37,180.37,0,0,0-41.69-52c11.67,2.69,22.37,5.49,33.21,7.57a126.93,126.93,0,0,0,33.19,1.91c-16.87-15.46-36-26.79-57.06-35.25,22.65-.72,44.48-4.6,65.32-13.39-20.62-8.86-42.1-12.31-64.06-13.77C597.75,477.3,616.86,466.82,633,451.28Z"/><path d="M500,0C223.86,0,0,223.86,0,500s223.86,500,500,500,500-223.86,500-500S776.14,0,500,0ZM812.61,680.65c-33.34,2.47-66,2.28-99.53-1.64A512.18,512.18,0,0,1,732,776.7a511.82,511.82,0,0,1-92.91-35.41,505.62,505.62,0,0,1-15.8,98.09,493.24,493.24,0,0,1-75-65.07c-13.33,30.76-29.49,59.19-48.39,87a513.92,513.92,0,0,1-48.43-87,496.83,496.83,0,0,1-75.68,65.46c-3.35-16.89-7-32.75-9.54-48.78s-4.16-32.31-6.27-49.31a527.11,527.11,0,0,1-92.25,35,498.54,498.54,0,0,1,18.84-97.66A528.2,528.2,0,0,1,187,680.68a507.55,507.55,0,0,1,51-85.46c-32.59-7.68-63.34-18.65-94-32.46A511.54,511.54,0,0,1,221.25,500a515.2,515.2,0,0,1-77.19-62.69,504.26,504.26,0,0,1,94-32.56A514.91,514.91,0,0,1,187,319.46,480.93,480.93,0,0,1,286.45,321a511.28,511.28,0,0,1-18.87-97.68,511.05,511.05,0,0,1,92.91,35.4,507.93,507.93,0,0,1,15.78-98.07,503.07,503.07,0,0,1,75.13,64.94,526,526,0,0,1,48.35-87,518.1,518.1,0,0,1,48.37,87,502.75,502.75,0,0,1,75.12-65A495.19,495.19,0,0,1,639,258.73a520.23,520.23,0,0,1,93-35.47A499.86,499.86,0,0,1,713,321.05a488.66,488.66,0,0,1,99.56-1.66,505,505,0,0,1-51.09,85.35,510,510,0,0,1,93.93,32.52A494.11,494.11,0,0,1,778.24,500c28,18.42,53.18,39.2,77.76,63.17-16.09,6.25-31.18,12.63-46.63,18s-31.33,9.73-47.46,14.67A509.26,509.26,0,0,1,812.61,680.65Z"/></svg>