<svg id="Layer_1" data-name="Layer 1" xmlns="http://www.w3.org/2000/svg" viewBox="0 0 1000 1000"><path d="M500,0C223.86,0,0,223.86,0,500s223.86,500,500,500,500-223.86,500-500S776.14,0,500,0ZM763.94,371.49c.41,5.81.41,11.62.41,17.43,0,179.53-136.81,386.92-387.27,386.92A387.16,387.16,0,0,1,168,714.72a288.34,288.34,0,0,0,32.37,1.86,273,273,0,0,0,168.82-58.24A136.58,136.58,0,0,1,241.81,563.8a138.26,138.26,0,0,0,61.2-2.35A136.2,136.2,0,0,1,193.84,427.9v-1.66a135.62,135.62,0,0,0,61.64,17.05A136.16,136.16,0,0,1,195,330a133.41,133.41,0,0,1,18.42-68.47C280.52,343.6,380.76,398,493.91,403.31a136.12,136.12,0,0,1,232-124,281.42,281.42,0,0,0,86.51-32.76,137.17,137.17,0,0,1-59.84,75.34,276.75,276.75,0,0,0,78.16-21.45l1.3.56A274.8,274.8,0,0,1,763.94,371.49Z"/></svg>