<svg xmlns="http://www.w3.org/2000/svg" viewBox="0 0 1000 1000"><path d="M106.818,520.384C94.7,538.516,82.581,556.649,70.314,575a13.087,13.087,0,0,1-1.9-1.445,21.893,21.893,0,0,1-1.558-2.243Q50.8,547.335,34.747,523.358a6.565,6.565,0,0,0-2.29-2.232c-.029,1.162-.082,2.325-.083,3.487q-.008,37.516-.005,75.033c0,4.922-.057,4.978-4.842,4.989-4.151.01-8.3.023-12.455,0-3.931-.027-4.175-.266-4.181-4.107q-.023-14.733-.006-29.467,0-41.313,0-82.628c0-4.749.007-4.755,4.651-4.76,5.063-.007,10.127.075,15.188-.036a4.909,4.909,0,0,1,4.732,2.535c7.125,11.187,14.341,22.315,21.521,33.468q5.837,9.066,11.66,18.141c.321.5.75.927,1.421,1.742a29.785,29.785,0,0,0,1.887-2.35q9.8-15.182,19.57-30.389c4.381-6.812,8.807-13.6,13.1-20.463a5.135,5.135,0,0,1,4.976-2.687c5.566.121,11.138.012,16.707.053,2.843.021,3.149.368,3.252,3.118.023.606.009,1.215.009,1.822q0,55.44,0,110.88c0,5.121-.007,5.126-5,5.134-4.354.007-8.708.027-13.062-.01-3.63-.03-3.928-.336-3.932-4.062q-.021-21.568-.006-43.137,0-16.709,0-33.416V520.7Z"/><path d="M821.194,481.778A60.374,60.374,0,0,1,856.253,491.8c14.9,9.864,23.9,23.764,26.625,41.367,3.365,21.726-2.492,40.78-18.364,56.235-10.207,9.939-22.752,15.145-36.922,16.677a64,64,0,0,1-35.732-6.028c-18.2-8.933-29.372-23.679-33.051-43.518-4.071-21.95,1.5-41.493,17.481-57.356,11.21-11.125,25.128-16.725,40.959-17.387C818.561,481.731,819.879,481.778,821.194,481.778Zm-40.82,62.753c.168,1.584.337,3.9.666,6.2,3.348,23.361,23.3,38.277,45.4,35.127,13.563-1.933,23.364-9.142,29.644-21.111,4.3-8.189,5.524-17.024,4.416-26.213-1.512-12.542-7.265-22.606-17.543-29.947-7.376-5.269-15.767-7-24.73-6.639a36.8,36.8,0,0,0-20.92,7.148C785.691,517.705,780.862,529.694,780.374,544.531Z"/><path d="M471.194,525.912c2.247-2.351,3.915-4.238,5.732-5.97,7.282-6.94,16.033-9.489,25.931-8.538a33.453,33.453,0,0,1,12.494,3.483,28.244,28.244,0,0,1,13.134,14.192,41.2,41.2,0,0,1,3.363,16.551q.066,27.49.025,54.982c0,.506-.031,1.013-.027,1.519.01,1.64-.878,2.381-2.439,2.46-.2.01-.4.03-.607.03-5.062,0-10.126.053-15.188-.018-2.746-.038-3.162-.5-3.2-3.223-.052-3.442-.018-6.885-.018-10.328,0-12.252.085-24.5-.057-36.755a45.566,45.566,0,0,0-1.228-10.208c-2.026-8.288-7.953-12.825-16.487-12.94a29.776,29.776,0,0,0-6.64.452c-7.756,1.678-13.425,8.341-14.227,16.623-.331,3.419-.519,6.864-.534,10.3-.06,13.365-.024,26.731-.024,40.1,0,.709,0,1.418,0,2.127-.033,3.608-.239,3.856-3.723,3.881-4.658.033-9.316.009-13.973,0-.506,0-1.012-.032-1.517-.063a2.13,2.13,0,0,1-2.228-2.337c-.019-.911-.038-1.823-.038-2.734q0-55.437,0-110.876c0-4.979.007-4.981,5.049-4.984,4.152,0,8.3-.014,12.455,0,3.816.017,3.967.153,3.971,3.908q.022,17.163.007,34.326Z"/><path d="M354.828,594.583c-1.223,1.023-1.906,1.563-2.554,2.141a37.837,37.837,0,0,1-21.345,9.314,41.1,41.1,0,0,1-19.1-2.235c-11.161-4.035-18.528-13.666-18.4-25.886.072-6.935,1.743-13.209,6.085-18.658a28.286,28.286,0,0,1,13.177-8.868,55.291,55.291,0,0,1,24.859-2.558c5.208.592,10.346,1.8,15.517,2.723.387.069.783.083,1.395.144a8.543,8.543,0,0,0,.459-1.992c-.138-6.693-2.763-11.919-8.943-15.049a23.262,23.262,0,0,0-9.032-2.4,59.317,59.317,0,0,0-25.89,4.007c-1.113.434-2.26.78-3.308,1.139-1.581-1.895-5.412-12.622-6.037-16.83a21.953,21.953,0,0,1,2.185-1.238,78.979,78.979,0,0,1,23.681-6.209,68.754,68.754,0,0,1,20.54.752c7.08,1.418,13.471,4.212,18.628,9.512s7.712,11.813,8.86,18.932a60.579,60.579,0,0,1,.679,9.367c.064,16.195.03,32.391.03,48.587,0,.4,0,.81,0,1.215-.037,3.839-.29,4.114-4.165,4.138q-6.529.041-13.058,0c-3.915-.022-4.166-.288-4.2-4.1C354.863,598.757,354.85,596.983,354.828,594.583Zm.629-23.848c0-.4,0-.809,0-1.214-.045-3.122-.191-3.335-3.2-4.188a61.084,61.084,0,0,0-17.67-2.4c-4.77.074-9.485.771-13.73,3.244a12.132,12.132,0,0,0,.023,21.044,18.26,18.26,0,0,0,4.195,1.707,27.828,27.828,0,0,0,20.35-2.134C351.913,583.542,355.383,578.13,355.457,570.735Z"/><path d="M203.6,594.953c-1.32,1.1-2.482,2.053-3.637,3.02-5.782,4.843-12.542,7.191-19.955,8.079a40.79,40.79,0,0,1-19.087-2.323,28.166,28.166,0,0,1-12.485-8.813,25.669,25.669,0,0,1-5.665-15.384c-.371-7.437,1.253-14.282,5.969-20.2a28.481,28.481,0,0,1,13.146-8.914,55.38,55.38,0,0,1,24.555-2.641c5.211.542,10.35,1.768,15.524,2.676.576.1,1.165.127,1.791.193.853-1.782.518-3.515.2-5.161a16.042,16.042,0,0,0-11.711-13.046c-5.647-1.763-11.411-1.519-17.155-.91a57.881,57.881,0,0,0-15.528,4.039c-.907.365-1.878.573-3.233.976-1.919-5.672-3.751-11.089-5.644-16.687a17.875,17.875,0,0,1,2.148-1.364,78.461,78.461,0,0,1,23.646-6.336,69.3,69.3,0,0,1,20.844.7c8.956,1.772,16.618,5.722,21.913,13.464a34.833,34.833,0,0,1,5.689,15.222,74.506,74.506,0,0,1,.656,9.674c.064,16.3.034,32.593.026,48.889,0,4.309-.194,4.509-4.385,4.526-4.554.018-9.11.044-13.664-.02-2.917-.041-3.29-.478-3.37-3.39-.05-1.82-.053-3.641-.1-5.461C204.081,595.594,203.9,595.433,203.6,594.953Zm-18.946-32.138c-4.894.335-9.965.665-14.47,3.351a11.573,11.573,0,0,0-6.044,10.8,11.265,11.265,0,0,0,6.243,10.347,25.673,25.673,0,0,0,17.123,1.959c10.652-2.174,17.873-9.11,17.258-20.009-.158-2.781-.264-3.057-2.88-3.841A76.2,76.2,0,0,0,184.658,562.815Z"/><path d="M639.031,558.718a47.958,47.958,0,0,1-42.269,47.3c-14.746,1.742-27.938-1.759-39.277-11.485a45.184,45.184,0,0,1-15.3-27.579,46.04,46.04,0,0,1,6.418-32.94c8.107-13.014,20.033-20.268,35.151-22.376a48.209,48.209,0,0,1,26.16,3.475c15.691,6.77,25.035,18.735,28.248,35.473C638.674,553.254,638.752,556.005,639.031,558.718ZM590.359,587.6c10.763,0,19.409-5.344,24-15.071a30.559,30.559,0,0,0,.771-25.04,25.92,25.92,0,0,0-16.194-15.776,27.091,27.091,0,0,0-13.443-1.149,24.836,24.836,0,0,0-16.9,10.232c-4.959,6.955-6.244,14.769-5.059,23.083C565.441,577.286,576.879,587.935,590.359,587.6Z"/><path d="M671.055,525.542c2.783-2.716,5.036-5.179,7.555-7.33,11.141-9.519,29.476-8.915,40.236-1.021,6.573,4.822,10.114,11.493,11.672,19.262a58.889,58.889,0,0,1,1.135,11.144c.115,17.408.055,34.818.049,52.227,0,4.682-.123,4.8-4.713,4.811q-6.224.015-12.449,0c-4.565-.012-4.681-.128-4.684-4.84q-.01-23.836,0-47.673a26.607,26.607,0,0,0-2.387-11.783c-2.152-4.505-5.57-7.532-10.388-8.574-5.41-1.169-10.838-1.29-15.953,1.52a17.882,17.882,0,0,0-8.2,9.413,26.973,26.973,0,0,0-1.886,10.081q.039,23.532.008,47.065c0,4.679-.1,4.778-4.725,4.79-4.352.012-8.7.036-13.056-.013-3.318-.036-3.684-.4-3.693-3.674-.027-9.413-.012-18.826-.012-28.239q0-27.48,0-54.96c0-4.681.1-4.781,4.723-4.793,4.453-.011,8.907-.043,13.36.022,2.951.043,3.341.463,3.388,3.361C671.092,519.262,671.055,522.189,671.055,525.542Z"/><path d="M438.59,584.463a14,14,0,0,1,.34,2.181c.037,4.051-.052,8.1.05,12.153a3.576,3.576,0,0,1-2.491,3.7,38.869,38.869,0,0,1-26.416,2.226c-10-2.643-15.624-10.03-16.294-20.954q-.438-7.116-.474-14.256c-.068-11.343-.011-22.686-.031-34.029-.006-3.43-.237-3.63-3.6-3.678-1.721-.025-3.448.053-5.163-.059-1.888-.123-2.3-.51-2.33-2.448q-.108-6.834-.009-13.671c.029-2.105.434-2.506,2.48-2.628,1.817-.109,3.645-.01,5.467-.063,2.746-.08,3.119-.424,3.145-3.242.047-5.266.016-10.533.019-15.8,0-.912-.026-1.825.018-2.734.125-2.565.523-3.057,3.049-3.091q7.748-.1,15.5-.007c2.771.032,3.152.479,3.269,3.185.035.809.014,1.62.015,2.43,0,5.267-.023,10.533.012,15.8.021,3.148.323,3.443,3.52,3.462,5.671.034,11.343-.015,17.014.025,3.435.025,3.765.387,3.791,3.9.028,3.848.036,7.7,0,11.545-.031,3.014-.348,3.351-3.3,3.376-5.064.043-10.128.014-15.192.016-.911,0-1.823-.019-2.734.009-2.772.087-3.021.354-3.1,3.24-.009.3,0,.607,0,.911q0,19.293.005,38.587c0,1.214,0,2.435.123,3.641.493,4.909,3.636,7.933,8.536,8.214a26.733,26.733,0,0,0,12.228-1.691,9.283,9.283,0,0,1,1.745-.471C437.94,584.206,438.146,584.337,438.59,584.463Z"/><path d="M743.834,450.451c2.162-1.82,3.808-3.265,5.515-4.632,6.814-5.459,11.975-12.327,16.555-19.642,8.619-13.766,14.247-28.811,18.632-44.37a238.607,238.607,0,0,0,6.819-32.361c.47-3.439.809-3.715,4.214-3.724q10.935-.03,21.87,0c.979,0,1.958.157,3.288.27-.114,1.436-.122,2.618-.312,3.77-2.907,17.631-7.156,34.907-13.9,51.5-4.52,11.113-10,21.712-17.769,30.955-6.7,7.963-14.568,14.364-24.743,17.365-5.87,1.731-11.859,2.63-17.988,1.47C745.53,450.962,745.062,450.794,743.834,450.451Z"/><path d="M526.234,337.816c-.918.892-1.419,1.476-2.013,1.943-9.3,7.3-16.445,16.394-22.2,26.66-10.464,18.681-16.49,38.892-20.637,59.747-.908,4.565-1.622,9.169-2.433,13.754-.379,2.138-.588,2.437-2.7,2.452q-11.546.081-23.09,0c-2.542-.018-2.94-.54-2.427-3.239,1.436-7.555,2.74-15.147,4.513-22.625a199.506,199.506,0,0,1,9.746-30.339c4.239-10.236,9.269-20.063,16.323-28.671,5.418-6.612,11.549-12.48,19.417-16.234a37.779,37.779,0,0,1,16.985-4c1.924.027,3.85-.019,5.772.046A21.556,21.556,0,0,1,526.234,337.816Z"/><path d="M783.9,348.091c-.4,2.511-.77,5.118-1.249,7.7-3.092,16.666-7.376,32.991-14.079,48.609-4.575,10.659-10.161,20.726-17.87,29.472a57.89,57.89,0,0,1-14.254,11.7c-2.086,1.223-4.014,1.293-5.921-.164-2.49-1.9-5.008-3.783-7.371-5.838-1.89-1.644-1.843-1.935-.276-4.013a125.677,125.677,0,0,0,13.193-21.431,191.166,191.166,0,0,0,12.152-33.012,249.849,249.849,0,0,0,6.651-32.088c.357-2.708.875-3.225,3.419-3.24q11.389-.067,22.78,0C783.377,345.8,783.889,346.291,783.9,348.091Z"/><path d="M501.081,442.438c-3.745,0-7.491.045-11.235-.013-2.8-.043-3.112-.468-2.666-3.309a239.407,239.407,0,0,1,14.156-52.656,120.794,120.794,0,0,1,15.735-28.306,58.413,58.413,0,0,1,18.066-15.947c1.766-.984,3.155-.994,4.7.235,2.449,1.95,5.056,3.716,7.395,5.786,2.457,2.174,2.293,2.425.454,4.994-2.529,3.534-5.077,7.07-7.356,10.765a144.266,144.266,0,0,0-12.719,27.494,250.323,250.323,0,0,0-10.7,41.391c-.38,2.191-.615,4.406-.945,6.607-.367,2.448-.82,2.9-3.345,2.942C508.774,442.481,504.927,442.436,501.081,442.438Z"/><path d="M262.7,530.657a38.078,38.078,0,0,1,8.214-11.2,28.92,28.92,0,0,1,19.535-7.911c3.406-.039,3.721.235,3.746,3.529q.058,7.747,0,15.5c-.027,3.27-.334,3.526-3.721,3.678-8.164.367-15.239,3.174-20.6,9.515a32.083,32.083,0,0,0-7.1,17.168,87.429,87.429,0,0,0-.664,9.982c-.086,9.317-.03,18.634-.03,27.952,0,.709.01,1.418,0,2.126-.069,3.218-.421,3.573-3.754,3.636-1.924.036-3.848.01-5.773.01-2.633,0-5.266.023-7.9-.007-3.746-.043-4.008-.315-4.052-3.937,0-.3,0-.608,0-.912q0-41.016,0-82.032c0-4.691.088-4.781,4.718-4.794,4.456-.012,8.912-.042,13.368.021,2.928.042,3.344.477,3.38,3.376.049,4.051.016,8.1.017,12.153q0,1.028,0,2.055Z"/><path d="M673.86,437.089A13.738,13.738,0,0,1,672,439.2q-4.632,3.417-9.373,6.686a4.044,4.044,0,0,1-4.835-.108,57.678,57.678,0,0,1-10.843-9.178c-8.17-8.883-14.114-19.208-19.426-29.933-4.939-9.972-9.741-20.012-14.663-29.993A147.158,147.158,0,0,0,598.6,353.413c-1.78-2.374-1.784-2.86.576-4.654,2.975-2.26,6.074-4.355,9.122-6.517a3.7,3.7,0,0,1,4.5.023,52.649,52.649,0,0,1,13.39,11.749c9.12,11.372,15.957,24.082,22.009,37.269,5.7,12.416,11.5,24.786,19,36.253C669.254,430.66,671.473,433.67,673.86,437.089Z"/><path d="M936.42,543.867V489.538c0-.708-.006-1.416,0-2.125.049-3.544.24-3.754,3.815-3.77,4.857-.021,9.713-.038,14.569.014,2.644.028,2.953.391,3.063,2.975.026.606.01,1.214.01,1.821q0,55.542,0,111.085c0,5.078-.012,5.089-5.024,5.1-4.148.007-8.3.025-12.444-.008-3.661-.03-3.981-.343-3.984-4q-.021-26.709-.007-53.418Q936.421,545.536,936.42,543.867Z"/><path d="M679.2,431.393a45.384,45.384,0,0,1-2.952-3.834c-3.683-6.049-7.621-11.972-10.854-18.256-5.324-10.348-10.035-21.01-15.264-31.408-5.055-10.053-10.7-19.787-18.089-28.352-2.9-3.361-6.22-6.357-9.358-9.512-.548-.551-1.137-1.063-1.985-1.851a10.4,10.4,0,0,1,2.078-.913,38.2,38.2,0,0,1,26.85,5.026c6.789,4.11,12.12,9.78,16.729,16.12a185.621,185.621,0,0,1,18.41,32.427c2.352,5.158,4.772,10.288,7.324,15.348a5.155,5.155,0,0,1-.018,5.128,106.259,106.259,0,0,1-10.69,17.632C680.793,429.718,680.091,430.4,679.2,431.393Z"/><path d="M649.5,450.193a11.181,11.181,0,0,1-2.5.644c-5.454.124-10.9.462-16.277-1.1a39.923,39.923,0,0,1-15.946-9.048c-8.589-7.812-15.014-17.25-20.31-27.438-5.412-10.41-10.375-21.054-15.552-31.587a3.99,3.99,0,0,1-.282-3.753,103.9,103.9,0,0,1,11.406-18.954,16.012,16.012,0,0,1,1.546-1.473,15.722,15.722,0,0,1,2.07,2.185c3.29,5.22,6.866,10.3,9.688,15.768,6.079,11.777,11.715,23.78,17.615,35.65a144.951,144.951,0,0,0,16.212,25.965,76.083,76.083,0,0,0,11.176,11.5,9.537,9.537,0,0,0,1.565.862Z"/><path d="M555.092,356.579c1.848,2.61,3.479,4.665,4.838,6.886,2.641,4.315,5.052,8.771,7.715,13.071a5.631,5.631,0,0,1,.3,5.709A197.884,197.884,0,0,0,557,416.644c-1.7,7.5-2.905,15.1-4.325,22.663-.576,3.067-.623,3.164-3.663,3.175q-11.239.041-22.479,0c-2.985-.014-3.263-.305-2.838-3.1,3.314-21.838,8.858-43.046,18.686-62.919,2.9-5.868,6.74-11.275,10.2-16.864A31.593,31.593,0,0,1,555.092,356.579Z"/><path d="M746.747,346.183c.931,7.442-7.957,42.044-14.487,56.871-4.314,9.8-9.066,19.317-16.1,27.779a9.026,9.026,0,0,1-1.57-1.415c-3.7-5.91-7.328-11.863-11.043-17.763a5.647,5.647,0,0,1-.309-5.711,192.258,192.258,0,0,0,10.54-32.908c1.769-7.887,3.13-15.868,4.6-23.821.513-2.774.857-3.352,3.321-3.368,7.791-.051,15.583-.023,23.374,0A8.463,8.463,0,0,1,746.747,346.183Z"/><path d="M898.111,560.921q0-18.989,0-37.979c0-.81-.012-1.621,0-2.431.066-3.054.327-3.38,3.261-3.406q7.6-.068,15.192.006c2.607.028,2.918.413,3.022,3.029.02.5.008,1.012.008,1.519q0,39.042,0,78.085c0,4.824-.061,4.883-4.936,4.891-4.355.008-8.71.041-13.064-.02-3.063-.043-3.469-.466-3.474-3.587Q898.088,580.975,898.111,560.921Z"/><path d="M615.105,655.132c.614-.531,1.078-.907,1.514-1.312,9.093-8.451,22.019-4.986,27.965,2.662,6.868,8.836,6.944,22.713-.135,31.373-7.676,9.39-21.048,9.6-28.014,2.523a19.387,19.387,0,0,0-1.662-1.31c-.122,1.116-.272,1.872-.277,2.629-.025,4.148.018,8.3-.027,12.445-.033,3.037-.344,3.326-3.277,3.388-1.517.032-3.036.036-4.553,0-2.767-.07-3.034-.36-3.14-3.228-.018-.5-.008-1.011-.008-1.517q0-24.132,0-48.263c0-4.8.066-4.853,4.958-4.865h.911c4.639.008,4.636.009,5.226,4.684C614.609,654.508,614.79,654.658,615.105,655.132Zm23.718,17.093a17.287,17.287,0,0,0-2.166-7.862,11.71,11.71,0,0,0-17.969-2.931c-5.557,4.786-5.228,14.893-1.93,19.2a11.711,11.711,0,0,0,11.932,4.844c4.94-.807,7.824-3.913,9.233-8.515A42.065,42.065,0,0,0,638.823,672.225Z"/><path d="M501.8,644.118l-6.574,7.694c-1.583-1.11-2.9-2-4.18-2.935a19.678,19.678,0,0,0-16.679-3.572A18.518,18.518,0,0,0,460.3,661.1a23.557,23.557,0,0,0,1.28,12.247c4.745,11.336,16.108,14.323,25.95,9.855a33.118,33.118,0,0,0,5.757-3.893c1.965-1.461,2.376-1.562,4.122.162,1.574,1.555,3,3.257,4.592,5a9.8,9.8,0,0,1-1.158,1.852,30.028,30.028,0,0,1-19.727,8.969,32.367,32.367,0,0,1-14.853-2.391c-12.219-5.214-19.208-18.129-17.591-31.382,1.441-11.813,7.541-20.586,18.763-24.814,12.152-4.579,23.492-2.463,33.423,6.148A8.809,8.809,0,0,1,501.8,644.118Z"/><path d="M778.641,690.289c-.873.548-1.477.883-2.034,1.283-5.827,4.184-12.142,4.742-18.756,2.356a12.863,12.863,0,0,1-8.664-11.715c-.268-6.147,1.919-10.878,7.654-13.607,5.349-2.546,10.994-2.388,16.675-1.688,1.586.2,3.154.544,4.7.818.8-2.934-.155-5.683-2.849-7.022a13.968,13.968,0,0,0-6.329-1.705,51.89,51.89,0,0,0-10.119,1.62c-3.12.737-3.248.832-4.357-2.291-.169-.477-.331-.957-.492-1.437-1.349-4.024-1.373-4.1,2.52-5.456a36.684,36.684,0,0,1,18.214-1.92c8.72,1.425,14.328,7.214,14.627,16.012.3,8.7.125,17.41.088,26.116-.01,2.344-.5,2.753-2.927,2.884-1.515.082-3.038.068-4.555.018-2.668-.089-2.781-.227-3.114-2.952C778.891,691.308,778.8,691.019,778.641,690.289Zm-8.655-16a43.878,43.878,0,0,0-6,1.045,5.575,5.575,0,0,0-4.128,5.973,6.082,6.082,0,0,0,5.191,5.185,23.69,23.69,0,0,0,6.623-.086A8.483,8.483,0,0,0,779,678.655c.093-2.315-.237-2.933-2.468-3.423C774.48,674.781,772.36,674.621,769.986,674.294Z"/><path d="M885.766,695.326c-15.5-.008-25.5-9.062-26.325-21.76A22.651,22.651,0,0,1,872.2,651.51c8.564-4.157,17.129-3.642,25.051,1.779a22.659,22.659,0,0,1,7.681,28.035C900.658,690.6,893.116,695.023,885.766,695.326ZM870.31,671.517c.049,1.051.044,1.762.121,2.465.56,5.114,4.379,9.98,8.939,11.253,5.371,1.5,10.066.363,13.658-4.043,2.866-3.516,3.537-7.619,2.668-12.024-1.865-9.444-10.919-12.639-18.452-9.253C872.222,662.171,870.668,666.732,870.31,671.517Z"/><path d="M658.665,672.139c.018-13.116,10.39-23.269,23.768-23.2,13.515.066,23.634,9.967,23.606,23.076-.03,14.356-11.289,23.413-24.033,23.324C668.639,695.242,658.646,685.356,658.665,672.139Zm36.862.1c-.622-2.217-.938-4.581-1.918-6.627-4.307-8.991-16.042-8.252-20.342-3.508-4.722,5.209-5.221,13.894-.614,19.213a12.011,12.011,0,0,0,11.374,4.36C691.054,684.61,695.114,679.64,695.527,672.235Z"/><path d="M509.786,672.12c.026-13.066,10.459-23.267,23.805-23.181,13.623.088,23.609,10,23.574,23.082-.039,14.353-11.3,23.409-24.037,23.315C519.819,695.238,509.761,685.279,509.786,672.12Zm23.64-13.392c-7.516-.512-12.993,5.564-12.853,13.4.159,8.878,5.893,13.67,12.868,13.708,7.551.042,12.679-5.279,12.85-13.579C546.439,665.062,540.859,658.234,533.426,658.728Z"/><path d="M928.953,655.235c1-.887,1.661-1.454,2.3-2.042,5.195-4.772,11.218-5.451,17.521-3,5.743,2.233,8.737,7,9.026,12.956.461,9.492.417,19.009.494,28.517.019,2.347-.532,2.778-2.933,2.874a51.047,51.047,0,0,1-5.463-.035c-2.012-.134-2.464-.6-2.527-2.639-.087-2.832-.037-5.668-.04-8.5,0-4.454.039-8.909-.028-13.362a20.676,20.676,0,0,0-.521-4.5c-1.059-4.382-3.833-6.559-8.224-6.641-4.36-.081-7.877,2.248-8.988,6.272a23.982,23.982,0,0,0-.765,5.992c-.093,6.578-.021,13.158-.043,19.738-.012,3.408-.254,3.641-3.593,3.7-1.416.026-2.838.056-4.249-.04-2.257-.153-2.616-.551-2.762-2.737-.034-.5-.02-1.012-.02-1.518q0-18.221,0-36.441a7.063,7.063,0,0,1,.125-2.4c.244-.64.941-1.519,1.493-1.56,2.412-.178,4.844-.136,7.267-.076a1.669,1.669,0,0,1,1.694,1.778C928.78,652.639,928.856,653.712,928.953,655.235Z"/><path d="M825.753,684.29a11.664,11.664,0,0,1,.326,7.6c-.167.705-1.138,1.417-1.9,1.749a17.538,17.538,0,0,1-13.583.369,9.264,9.264,0,0,1-5.986-6.752,23.836,23.836,0,0,1-.673-5.388c-.081-6.268-.025-12.537-.042-18.805-.009-3.23-.02-3.3-3.209-3.7-1.636-.2-2.317-.969-2.279-2.562.037-1.516-.049-3.036.021-4.549.1-2.087.327-2.275,2.537-2.584,2.875-.4,2.885-.4,2.929-3.389.03-2.022.032-4.044.037-6.066a1.974,1.974,0,0,1,2.213-2.256c2.022,0,4.047-.082,6.064.019,1.872.094,2.205.468,2.286,2.465.09,2.221-.014,4.45.066,6.672.075,2.1.4,2.425,2.538,2.507,2.121.081,4.248-.02,6.369.058,2.526.094,2.935.531,3.038,3.092a36.23,36.23,0,0,1-.023,3.941c-.141,2.046-.548,2.5-2.567,2.6-2.219.113-4.448,0-6.671.078-2.323.076-2.665.37-2.685,2.663-.049,5.661-.121,11.326.031,16.984.15,5.53,2.71,7.282,8.193,5.921C823.727,684.727,824.685,684.53,825.753,684.29Z"/><path d="M579.384,657.2c1.181-1.475,1.838-2.362,2.564-3.19a14.582,14.582,0,0,1,9.468-4.926c2.357-.3,2.989.224,3.072,2.515.078,2.121-.014,4.247.027,6.371.03,1.579-.591,2.542-2.249,2.578-7.84.168-13.052,7.108-13.04,15.092.008,5.057.006,10.114-.037,15.17-.027,3.33-.388,3.686-3.625,3.751-1.617.032-3.236,0-4.853-.037a2.207,2.207,0,0,1-2.469-2.42c-.006-.708-.033-1.416-.033-2.124q0-17.9,0-35.8c0-4.3.2-4.491,4.384-4.519,1.314-.009,2.634-.05,3.943.043,2.06.145,2.442.548,2.624,2.56.063.7.016,1.416.043,2.123C579.232,655.072,579.291,655.759,579.384,657.2Z"/><path d="M728.737,656.594c.691-.859,1.352-1.744,2.076-2.573a14.507,14.507,0,0,1,9.766-4.963c2.124-.22,2.709.329,2.788,2.524.076,2.122.075,4.25,0,6.372-.074,2.1-.316,2.286-2.509,2.628a23.406,23.406,0,0,0-2.978.523c-5.7,1.676-9.4,6.585-9.689,13.274-.219,5.049-.092,10.114-.11,15.171-.018,5-.023,5.014-5.11,5.023-5.883.01-5.884.01-5.885-5.763q0-17.3,0-34.6c0-4.391.164-4.534,4.657-4.556.91,0,1.821-.017,2.731.007,3.154.082,3.506.419,3.593,3.48.03,1.095,0,2.192,0,3.288Z"/><path d="M837.372,671.946c0-6.172-.02-12.344.009-18.515.017-3.351.365-3.693,3.608-3.764,1.618-.036,3.237.009,4.856.026a2.21,2.21,0,0,1,2.488,2.4c.02.808.042,1.618.042,2.427q0,17.6,0,35.209c0,4.769-.077,4.831-4.985,4.841-.81,0-1.62.016-2.428-.008-3.152-.095-3.521-.439-3.58-3.5-.04-2.023-.011-4.047-.011-6.07Q837.37,678.472,837.372,671.946Z"/><path d="M908.624,483.649c2.931,0,5.862-.053,8.791.017,2.3.055,2.723.425,2.753,2.638q.1,7.578-.009,15.157c-.031,2.039-.472,2.45-2.6,2.471q-8.943.093-17.886,0c-2.091-.02-2.572-.442-2.605-2.483q-.125-7.728.01-15.459c.033-1.872.511-2.266,2.448-2.318,3.029-.08,6.062-.021,9.094-.021Z"/><path d="M698.133,416.916q.82,1.248,1.641,2.5c3.447,5.228,6.87,10.473,10.353,15.677,1.419,2.12,1.624,2.431-.376,4.013-3.477,2.748-7.158,5.242-10.781,7.8a3.153,3.153,0,0,1-3.959-.048q-4.955-3.726-9.831-7.554c-1.055-.829-1.517-1.811-.482-3.106a112.915,112.915,0,0,0,12.087-18.5c.19-.366.342-.751.512-1.126Z"/><path d="M586.743,350.505l-13.7,20.969c-4.49-6.876-8.926-13.67-13.423-20.555,1.109-2.237,3.3-3.452,5.174-4.9a68.262,68.262,0,0,1,7.336-4.8,3.914,3.914,0,0,1,2.822-.352C578.068,341.856,584.771,347.485,586.743,350.505Z"/><path d="M703.532,452.637a4.893,4.893,0,0,1,.662-.912c3.892-3.007,7.8-6,11.974-9.206l11.149,9.51C724.009,454.881,709.2,455.3,703.532,452.637Z"/><path d="M580.242,335.9c5.089-2.785,18.911-2.921,23.516-.262a10.9,10.9,0,0,1-1.16,1.281c-3.219,2.586-6.474,5.128-9.684,7.725-.856.692-1.641,1.225-2.642.321C587,342.012,583.727,339.053,580.242,335.9Z"/><path d="M543.721,335.429a56.257,56.257,0,0,1,23.813-.245c-.954.959-1.485,1.595-2.116,2.109-2.966,2.42-5.978,4.783-8.93,7.218-.946.781-1.755,1.308-2.885.3-3.083-2.749-6.207-5.453-9.306-8.185A6.267,6.267,0,0,1,543.721,335.429Z"/><path d="M690.577,452.7a58.815,58.815,0,0,1-23.764.385,13.167,13.167,0,0,1,1.4-1.718c3.22-2.589,6.492-5.115,9.69-7.731.993-.813,1.8-1.156,2.888-.183,3.008,2.681,6.07,5.3,9.1,7.964A6.276,6.276,0,0,1,690.577,452.7Z"/><path d="M842.806,633.688c6.016,0,5.7-.451,5.692,5.809-.007,4.479-.139,4.613-4.566,4.635-1.516.008-3.032-.015-4.548-.037a2.2,2.2,0,0,1-2.482-2.4c-.02-1.819-.093-3.642,0-5.456.107-2.07.509-2.423,2.568-2.537C840.579,633.638,841.694,633.688,842.806,633.688Z"/><path d="M980.107,689.322c.5-1.892.867-3.119,1.156-4.364a2.206,2.206,0,0,1,2.6-1.943c1.481.115,1.81,1.115,1.829,2.315.035,2.225.045,4.452,0,6.677-.021,1.007-.063,2.208-1.444,2.268-1.413.062-1.435-1.136-1.582-2.145a4.734,4.734,0,0,0-.316-.787,14.479,14.479,0,0,1-.784,2.057,1.609,1.609,0,0,1-3.035-.11,27.178,27.178,0,0,1-1.066-3.259,17.362,17.362,0,0,1-.279,3.065,1.716,1.716,0,0,1-1.143,1.094c-.415.02-1.223-.6-1.236-.96-.105-2.926-.143-5.862.01-8.784.026-.493,1.077-1.32,1.634-1.3a2.821,2.821,0,0,1,2.143,1.153A32.768,32.768,0,0,1,980.107,689.322Z"/><path d="M969.31,683.052a23.09,23.09,0,0,1,3.32.054,1.877,1.877,0,0,1,1.146,1.119c.1.269-.4,1.1-.679,1.121-2.756.229-2.377,2.232-2.4,4.035a20.836,20.836,0,0,1-.151,3.62,1.393,1.393,0,0,1-2.758.084,21.2,21.2,0,0,1-.248-3.912c-.025-1.635.142-3.3-2.051-3.813a1.341,1.341,0,0,1-.657-1.147,1.878,1.878,0,0,1,1.158-1.11A22.818,22.818,0,0,1,969.31,683.052Z"/></svg>