<svg xmlns="http://www.w3.org/2000/svg" viewBox="0 0 1000 1000"><path d="M790.364,645.888c5.782-4.868,10.183-8.732,14.749-12.388,18.222-14.6,32.024-32.966,44.273-52.529,23.05-36.814,38.1-77.049,49.828-118.659a638.134,638.134,0,0,0,18.236-86.544c1.257-9.2,2.164-9.935,11.269-9.959q29.244-.08,58.488,0c2.618,0,5.236.42,8.793.722-.3,3.841-.326,7-.834,10.082-7.775,47.151-19.138,93.353-37.173,137.728-12.088,29.719-26.744,58.065-47.52,82.783-17.918,21.3-38.96,38.414-66.171,46.44-15.7,4.629-31.715,7.033-48.106,3.931C794.9,647.254,793.648,646.8,790.364,645.888Z"/><path d="M208.432,344.666c-2.455,2.386-3.795,3.947-5.383,5.2-24.871,19.523-43.979,43.843-59.37,71.3-27.984,49.958-44.1,104.009-55.19,159.782-2.428,12.208-4.338,24.521-6.507,36.783-1.013,5.717-1.572,6.517-7.22,6.557q-30.877.216-61.75,0c-6.8-.048-7.863-1.444-6.491-8.662,3.841-20.205,7.328-40.508,12.069-60.507a533.617,533.617,0,0,1,26.064-81.136C55.991,446.6,69.443,420.323,88.307,397.3c14.49-17.683,30.886-33.376,51.927-43.415a101.038,101.038,0,0,1,45.424-10.7c5.145.072,10.3-.051,15.436.123A57.618,57.618,0,0,1,208.432,344.666Z"/><path d="M897.513,372.145c-1.07,6.715-2.059,13.687-3.34,20.592-8.269,44.57-19.726,88.228-37.652,130-12.235,28.505-27.174,55.428-47.79,78.817a154.808,154.808,0,0,1-38.12,31.29c-5.578,3.27-10.734,3.458-15.834-.439-6.659-5.081-13.393-10.117-19.713-15.612-5.054-4.4-4.929-5.175-.738-10.733a336.007,336.007,0,0,0,35.282-57.313,511.318,511.318,0,0,0,32.5-88.284,668.162,668.162,0,0,0,17.786-85.814c.955-7.242,2.341-8.625,9.144-8.665q30.457-.179,60.921,0C896.114,366.018,897.483,367.331,897.513,372.145Z"/><path d="M141.165,624.458c-10.015,0-20.033.121-30.046-.034-7.488-.115-8.322-1.252-7.129-8.85a640.23,640.23,0,0,1,37.857-140.819,323.049,323.049,0,0,1,42.081-75.7,156.2,156.2,0,0,1,48.314-42.647c4.723-2.632,8.437-2.658,12.569.628,6.549,5.215,13.522,9.938,19.777,15.474,6.57,5.814,6.132,6.485,1.214,13.356-6.764,9.451-13.578,18.907-19.673,28.789a385.776,385.776,0,0,0-34.014,73.527A669.359,669.359,0,0,0,183.5,598.876c-1.017,5.859-1.645,11.783-2.528,17.669-.981,6.547-2.193,7.756-8.945,7.868C161.739,624.573,151.451,624.453,141.165,624.458Z"/><path d="M603.231,610.154a36.779,36.779,0,0,1-4.974,5.645q-12.388,9.138-25.067,17.881a10.815,10.815,0,0,1-12.93-.289,154.306,154.306,0,0,1-29-24.545c-21.849-23.756-37.745-51.369-51.951-80.051-13.208-26.668-26.051-53.518-39.214-80.21a393.536,393.536,0,0,0-38.135-62.208c-4.761-6.348-4.771-7.648,1.54-12.446,7.956-6.044,16.244-11.647,24.395-17.428a9.9,9.9,0,0,1,12.035.061,140.809,140.809,0,0,1,35.809,31.421c24.39,30.412,42.674,64.4,58.859,99.669,15.244,33.2,30.755,66.285,50.812,96.952C590.913,592.96,596.848,601.01,603.231,610.154Z"/><path d="M617.512,594.921a121.486,121.486,0,0,1-7.895-10.254c-9.849-16.177-20.381-32.017-29.027-48.822-14.238-27.674-26.836-56.188-40.82-83.995-13.519-26.885-28.616-52.917-48.376-75.822-7.756-8.989-16.634-17-25.026-25.438-1.466-1.474-3.041-2.843-5.309-4.951a27.808,27.808,0,0,1,5.557-2.441,102.16,102.16,0,0,1,71.806,13.441c18.156,10.991,32.412,26.155,44.738,43.11a496.4,496.4,0,0,1,49.235,86.72c6.289,13.794,12.761,27.513,19.586,41.045a13.786,13.786,0,0,1-.048,13.714,284.171,284.171,0,0,1-28.588,47.154C621.772,590.441,619.9,592.265,617.512,594.921Z"/><path d="M538.085,645.2a29.919,29.919,0,0,1-6.686,1.722c-14.586.332-29.15,1.236-43.53-2.942a106.769,106.769,0,0,1-42.645-24.2c-22.969-20.892-40.152-46.132-54.315-73.378-14.473-27.839-27.746-56.305-41.591-84.474a10.672,10.672,0,0,1-.754-10.036,277.861,277.861,0,0,1,30.5-50.689,42.623,42.623,0,0,1,4.135-3.939,42.033,42.033,0,0,1,5.536,5.843c8.8,13.96,18.362,27.545,25.908,42.169,16.258,31.5,31.33,63.6,47.108,95.339a387.67,387.67,0,0,0,43.356,69.439A203.492,203.492,0,0,0,535,640.809a25.433,25.433,0,0,0,4.185,2.305Z"/><path d="M285.608,394.844c4.942,6.98,9.3,12.476,12.938,18.416,7.063,11.539,13.511,23.456,20.632,34.956a15.056,15.056,0,0,1,.8,15.267,529.186,529.186,0,0,0-29.271,91.994c-4.546,20.058-7.769,40.382-11.566,60.608-1.541,8.2-1.666,8.462-9.8,8.491q-30.057.11-60.116,0c-7.983-.037-8.727-.816-7.59-8.29,8.863-58.4,23.689-115.119,49.972-168.266,7.756-15.693,18.025-30.153,27.278-45.1A84.572,84.572,0,0,1,285.608,394.844Z"/><path d="M798.154,367.042c2.49,19.9-21.279,112.439-38.743,152.091-11.537,26.208-24.245,51.66-43.056,74.29a24.188,24.188,0,0,1-4.2-3.784c-9.895-15.805-19.6-31.726-29.532-47.5a15.1,15.1,0,0,1-.827-15.273,514.173,514.173,0,0,0,28.187-88.006c4.731-21.093,8.371-42.437,12.3-63.7,1.372-7.419,2.292-8.965,8.881-9.007,20.836-.137,41.674-.062,62.51,0A22.544,22.544,0,0,1,798.154,367.042Z"/><path d="M668.145,556.2q2.193,3.338,4.388,6.686c9.219,13.982,18.373,28.008,27.688,41.926,3.794,5.669,4.343,6.5-1.006,10.732-9.3,7.349-19.143,14.018-28.832,20.859a8.431,8.431,0,0,1-10.587-.128q-13.253-9.965-26.292-20.2c-2.821-2.217-4.057-4.843-1.289-8.306A301.923,301.923,0,0,0,664.54,558.3c.508-.979.914-2.009,1.369-3.011Z"/><path d="M370.252,378.6l-36.638,56.078c-12.007-18.388-23.871-36.558-35.9-54.97,2.966-5.983,8.825-9.232,13.837-13.105a182.673,182.673,0,0,1,19.619-12.836,10.47,10.47,0,0,1,7.547-.942C347.053,355.47,364.979,370.524,370.252,378.6Z"/><path d="M682.583,651.734a13.107,13.107,0,0,1,1.771-2.439c10.408-8.042,20.859-16.046,32.022-24.62l29.816,25.433C737.345,657.735,697.741,658.855,682.583,651.734Z"/><path d="M352.867,339.542c13.609-7.448,50.574-7.812,62.889-.7a29.117,29.117,0,0,1-3.1,3.426c-8.609,6.916-17.314,13.714-25.9,20.659-2.29,1.851-4.389,3.276-7.066.859C370.94,355.887,362.187,347.974,352.867,339.542Z"/><path d="M255.2,338.282a150.467,150.467,0,0,1,63.684-.655c-2.552,2.565-3.972,4.266-5.659,5.64-7.932,6.472-15.988,12.792-23.882,19.3-2.53,2.088-4.693,3.5-7.715.8-8.245-7.352-16.6-14.583-24.888-21.889A16.818,16.818,0,0,1,255.2,338.282Z"/><path d="M647.938,651.9a157.287,157.287,0,0,1-63.553,1.03,35.271,35.271,0,0,1,3.744-4.594c8.612-6.924,17.362-13.68,25.915-20.676,2.655-2.174,4.813-3.091,7.723-.489,8.044,7.17,16.233,14.174,24.336,21.3A16.792,16.792,0,0,1,647.938,651.9Z"/></svg>