<svg xmlns="http://www.w3.org/2000/svg" viewBox="0 0 1000 1000"><path d="M438.246,73.411c.139-17.651-3.333-36.37,15.17-48.2C475.628,11,499.456,3.671,525.582,11.414c9.676,2.866,18.819,8.1,27.6,13.268,12.128,7.143,18.417,18.194,17.563,32.542-1.218,20.458-2.385,40.93-4.227,61.337-4.851,53.747-10.088,107.463-15.082,161.2-.76,8.175-.633,16.442-1.63,24.582-2.979,24.3-21.249,37.37-50.863,36.755-21.044-.437-38.039-17.6-40.044-39.123-6.272-67.315-12.991-134.589-19.395-201.893C438.665,91.228,438.647,82.3,438.246,73.411Z"/><path d="M133.771,786.293c-10.681-4.605-22.286-7.373-31.162-13.871-22.851-16.731-34.388-41.248-36.377-68.678C64.88,685.1,74.039,669.234,92.32,660.71c68.8-32.081,137.459-64.447,206.548-95.883,11.29-5.138,25.049-9.948,36.665-8.2,23.661,3.555,31.352,23.673,36.356,44.647,4.647,19.481-6.029,31.652-19.941,41.421q-94.941,66.67-190.57,132.353C153.892,780.182,144.237,782.142,133.771,786.293Z"/><path d="M67.9,293.692c-3.593-27.915,26.3-69.654,57.294-76.753a40.721,40.721,0,0,1,28.609,5.29c51.782,34.635,102.744,70.494,153.922,106.029,14.614,10.147,28.223,22.113,43.8,30.406,22.07,11.749,27.62,37.672,14.377,60.628-11.877,20.586-27.89,34.423-56.342,21.028-53.869-25.36-108.074-50-162.1-75.04C130.7,357.5,113.96,349.635,97.388,341.444,70.622,328.208,67.591,323.07,67.9,293.692Z"/><path d="M941.264,296.563c.946,20.693-7.519,34.961-26.875,43.854C842.262,373.561,770.5,407.5,698.415,440.738c-24.228,11.17-42.331,3.22-57.279-23.656-11.1-19.958-5.842-42.3,13.341-55.748q99.2-69.55,198.491-138.98c17.323-12.116,37.438-8.427,59.478,10.678C928.413,246.877,941.308,275.32,941.264,296.563Z"/><path d="M942.839,703.662c.139,27.637-26.143,68.011-51.126,77.895-12.56,4.969-26.249,5.66-37.673-2.105-43.583-29.621-86.635-60.024-129.9-90.12-21.353-14.86-42.061-30.774-64.246-44.262-38.1-23.164-24.847-68.354,3.148-83.969,9.768-5.447,19.166-7.023,29.361-2.516,26.261,11.6,52.584,23.071,78.692,35.007q64.383,29.435,128.506,59.431c20.074,9.369,40.513,18.659,42.5,45.187C942.256,700.252,942.653,702.277,942.839,703.662Z"/><path d="M504.932,992c-13.105-3.194-27.115-4.444-39.1-10.041-17.8-8.3-28.9-23.212-27.318-44.172,2.528-33.405,5.858-66.749,8.734-100.133,2.639-30.632,5.113-61.278,7.692-91.917,1.49-17.714,2.579-35.48,4.706-53.117,2-16.6,16.031-27.786,38.192-31.871,16.319-3.008,36.577,6.172,45.264,21.75a54.963,54.963,0,0,1,6.815,21.225c4.648,52.438,8.533,104.941,12.99,157.4,1.561,18.374,3.222,36.8,6.266,54.973C577.31,964.653,554.882,991.1,504.932,992Z"/></svg>