<svg xmlns="http://www.w3.org/2000/svg" viewBox="0 0 1000 1000"><path d="M114.2,889.829V859.856H914.552v29.088h-4.578L674.8,889.1q-107.031.072-214.061.146-37.056.029-74.113.121c-1.633,0-3.266.3-4.9.459Z"/><path d="M164.267,574.36c-7.64,4.3-14.638,9.123-22.3,12.377-21.839,9.276-44.358,9.583-66.735,2.268-20.69-6.762-32.9-23.177-33.778-44.937-.617-15.313-.362-30.663-.4-46-.053-21.276,0-42.552-.02-63.829-.011-11.891-.892-12.774-12.592-12.822-6.048-.025-12.095,0-18.57,0,0-5.372-.2-9.91.14-14.407.087-1.149,1.692-2.616,2.94-3.179,14.327-6.452,28.614-13.015,43.139-19A35.883,35.883,0,0,0,72.8,371.2c4.257-6.42,7.856-13.275,11.87-19.861.691-1.134,2-2.656,3.052-2.684,8.379-.22,16.767-.123,25.417-.123,0,8.031.03,15.312-.01,22.592-.033,5.939-.293,11.881-.19,17.817.089,5.149,1.117,6.108,6.139,6.1,13.942-.017,27.885-.268,41.823-.109,3.566.04,3.973-2.064,4.608-4.47a354.778,354.778,0,0,1,55.78-118.127q70.112-97.064,183.667-135.33a344.643,344.643,0,0,1,74.815-16.215,372.78,372.78,0,0,1,80.514.464A358.885,358.885,0,0,1,695.2,164.863,368.77,368.77,0,0,1,871.086,390.748c.14.513.286,1.025.467,1.674,8.063,0,16.064-.439,24,.087a187.226,187.226,0,0,1,55.621,11.833,65.175,65.175,0,0,1,31.374,26.035c7.511,11.65,3.675,23.087-9.232,28.165a60.287,60.287,0,0,1-32.912,3.464,16,16,0,0,1-8.262-4.127,134.613,134.613,0,0,1-12.034-14.673c-4.067-5.567-7.446-11.641-11.587-17.146-8.953-11.9-16.571-14.623-31.964-11.694a380.218,380.218,0,0,1,.655,136.166c5.867.856,11.414,1.526,16.91,2.49,28.031,4.917,51.5-4.718,72.361-22.647a40.687,40.687,0,0,0,4.534-4.822c3.184-3.8,8.014-3.992,12.936-.416,3.892,2.827,4.715,6.489,2.016,10.659-13.847,21.392-33.214,36.32-55.918,47.157a119.123,119.123,0,0,1-59.864,11.528c-3.027-.2-4.287.677-5.257,3.592A365.869,365.869,0,0,1,770.374,748.1a362.184,362.184,0,0,1-100.386,68.373,13.585,13.585,0,0,1-5.547,1.2q-147.422-.36-294.844-.889a12.521,12.521,0,0,1-5.124-1.149Q285.6,778.544,231.467,710.18a364.685,364.685,0,0,1-66.716-134.5A12.884,12.884,0,0,0,164.267,574.36Zm-3.877-17.147A378.152,378.152,0,0,1,158.7,420.541H123.079c-10.988,0-11.157.122-11.167,11.383-.023,26.364-.085,52.728.081,79.09a143.922,143.922,0,0,0,1.43,19.79C116.757,553.707,139.973,566.88,160.39,557.213Zm684.421-128.6v50.952h33.237c-.354-5.5-.643-10.707-1.034-15.9-.786-10.463-1.557-20.929-2.54-31.375-.121-1.285-1.468-3.491-2.3-3.514C863.116,428.517,854.046,428.612,844.811,428.612ZM186.336,534.487c1.778-2.316,2.964-3.766,4.027-5.3a3.519,3.519,0,0,0,.572-1.889c.033-13.677.061-27.355-.061-41.031-.007-.824-1.256-2.338-1.946-2.349-9.9-.154-19.8-.1-30.31-.1.867,17.2,1.706,33.817,2.557,50.675ZM442.648,312.57V261.979H412.7V312.57Zm-216,332.917V594.9h-29.8v50.592ZM730.391,312.551a6.929,6.929,0,0,0,.483-1.687c.037-15.471.02-30.941.087-46.412.01-2.268-1.064-2.793-3.059-2.76-4.553.075-9.109.021-13.663.02H700.812v50.839Zm-144.074-.043a4.816,4.816,0,0,0,.516-1.343c.04-15.6.03-31.209.1-46.813.01-2.362-1.266-2.67-3.161-2.655-6.209.048-12.418.016-18.627.015h-8.324v50.8Zm-35.637.04a7.105,7.105,0,0,0,.479-1.7c.037-15.466.02-30.931.086-46.4.01-2.269-1.064-2.8-3.058-2.762-4.552.075-9.105.021-13.658.02H521.116v50.836Zm-65.99-.114h30.226V261.713c-8.967,0-17.743.1-26.514-.057-2.9-.053-3.8.889-3.766,3.775.138,10.886.054,21.774.054,32.661Zm144.206.318c9.061,0,17.6-.171,26.127.083,3.461.1,4.111-1.2,4.073-4.3-.145-12-.059-24-.058-36,0-10.823,0-10.823-10.662-10.823H628.9Zm143.932-.189H803.15c0-15.822.063-31.375-.06-46.926-.022-2.728-1.884-4.035-4.742-3.977-4.961.1-9.924.026-14.887.026H772.828ZM874.473,534.247c1.182-16.651,2.339-32.944,3.519-49.559H844.837v49.559ZM556.822,761.034v50.679h30.069c0-16.314.025-32.424-.08-48.534,0-.719-1.18-2.044-1.825-2.053C575.648,760.992,566.308,761.034,556.822,761.034ZM298.566,312.515V262.54H268.748v49.975ZM412.519,201.559h30.044V151.578H412.519ZM298.7,594.98H268.7v49.95H298.7ZM521.159,151.443V201.62h29.788V151.443Zm35.654.018v50h29.83v-50ZM658.669,645.135V595H629.026v50.14Zm144.2,55.592V650.375H772.976v50.352ZM442.559,645.053v-50H412.65v50Zm78.586,116.182v50.42h29.821v-50.42Zm-36.09-.009v50.488h29.761V761.226ZM658.8,484.062h-29.9v50.065h29.9ZM665.283,650.3v50.371h29.8V650.3Zm-396.644-.043v50.368h29.946V650.254Zm360.277,50.432h29.777V650.295H628.916Zm-42.286.034V650.372H556.757V700.72ZM658.778,811.7V760.992c-8.753,0-17.26.145-25.758-.072-3.378-.086-4.487.847-4.439,4.358.193,14.2.074,28.4.09,42.605,0,1.2.152,2.407.247,3.815ZM586.572,645.034V595.1H556.82v49.937Zm186.487-50.122v49.97h29.805v-49.97ZM442.577,811.705V761.32H412.622v50.385Zm72.288-110.962V650.371H484.98v50.372Zm-102.2-50.428v50.326h30.007V650.315ZM730.944,206.976h-30.1v50.055c8.7,0,17.1-.168,25.492.079,3.564.1,4.76-.8,4.7-4.564-.229-13.808-.091-27.622-.091-41.434ZM665.131,257.03c8.845,0,17.51-.164,26.163.081,3.443.1,4.127-1.195,4.1-4.3-.133-14.086-.052-28.174-.071-42.261,0-1.2-.171-2.392-.257-3.517H665.131ZM628.942,705.951v49.937h29.749V705.951ZM521.047,206.9V257.03c8.856,0,17.519-.17,26.17.083,3.49.1,4.092-1.271,4.065-4.333-.124-14.082-.048-28.165-.067-42.248,0-1.193-.175-2.385-.272-3.634Zm-6.089,0H485.332c-.235.421-.482.658-.483.895-.06,15.609-.132,31.217-.053,46.825,0,.8,1.308,2.264,2.025,2.275,9.341.155,18.685.1,28.137.1Zm-.04,277.2H484.943v50.08h29.975Zm-138.34-277.19v49.8H406.31v-49.8ZM484.948,645.03h29.893v-50H484.948Zm.036,61V755.96h29.9V706.025Zm36.1,0v49.915h29.87V706.021Zm173.87-60.881V594.97H665.275v50.17Zm35.609,0V594.97H700.878v50.17Zm-173.826,60.9v49.908h29.913V706.04ZM521.2,594.847V644.99h29.632V594.847ZM730.637,706.119H700.815v49.769h29.822ZM628.849,206.91V256.6H658.77V206.91Zm-72.006.036v49.72h29.834v-49.72Zm-144.2,0v49.8h30v-49.8ZM376.582,594.921v50.018h29.783V594.921Zm29.9,111.066h-29.87v49.906h29.87ZM658.514,201.6a5.239,5.239,0,0,0,.442-1.339c.034-15.159.117-30.32-.081-45.476-.015-1.161-2.007-3.256-3.13-3.291-8.885-.273-17.781-.152-26.743-.152V201.6Zm-252.243.04V150.91c-8.052,0-15.765-.17-23.466.06-5.128.153-6.514,1.946-6.515,7.158q0,19.44,0,38.882v4.627Zm-179.461,116H204.954c-6.882,0-8.366,1.45-8.379,8.375q-.037,19.057-.008,38.116v4.049H226.81Zm366.064-5.168h29.737v-50.48H592.874ZM448.923,261.908V312.5h29.563V261.908ZM809.308,594.88v50.587H838.85V594.88ZM334.632,262.033H304.854v50.39h29.778ZM766.721,373.205H737v50.246h29.724ZM370.8,261.738c-9.416,0-18.614-.085-27.8.152-.782.02-2.151,2.177-2.163,3.353-.148,14.754-.1,29.51-.079,44.265a23.88,23.88,0,0,0,.373,2.92H370.8ZM628.881,590.505c9.079-2.5,18.076,2.27,26.573-3.087,2.392-1.508,3.678-2.278,3.645-5.2-.143-12.825-.054-25.651-.073-38.477,0-1.315-.165-2.63-.25-3.895H628.881ZM161.743,429.064c-1.07,16.609-2.129,33.05-3.2,49.617h31.717V429.064ZM514.951,539.426c-9.136,0-17.8.137-26.453-.07-3.248-.077-3.891,1.172-3.864,4.11q.192,20.476.014,40.954c-.031,3.834,1.715,5.461,5.332,5.47,5.786.014,11.573.032,17.359-.03a4.2,4.2,0,0,0,2.578-.73,60.08,60.08,0,0,0,4.133-4.4l.9.675ZM268.62,317.827v49.834h29.924V317.827Zm504.245,49.778h30.06V318.147h-30.06ZM376.558,317.831v49.822h29.78V317.831Zm354.1,49.881v-49.77h-29.81v49.77Zm-288.028-.038V317.892H412.645v49.782Zm42.314-.061h29.841V317.877H484.943Zm180.181-.032h29.958V317.9H665.124ZM521.055,317.829v49.832H550.9V317.829Zm65.6,49.9V317.919H556.792v49.813Zm42.246-.08h29.837V318H628.9Zm30.137,111.087c0-14.833-.092-29.168.074-43.5.036-3.044-.88-4.926-3.844-5.138-7.66-.548-15.342-.786-23-1.308-3.054-.208-3.669,1.151-3.649,3.889.1,14.357.042,28.716.064,43.074a26.771,26.771,0,0,0,.348,2.984Zm113.988-105.8V423.7a40.645,40.645,0,0,1,5.209.032c8.535,1.17,15.878-.944,22.186-7.062,1.711-1.66,2.827-2.929,2.8-5.424-.122-11.586-.045-23.174-.069-34.761,0-1.178-.207-2.356-.318-3.543ZM484.968,428.586v50.083h30.146c0-15.044.052-29.795-.112-44.543-.011-1.05-1.4-2.521-2.507-3.052C503.705,426.853,494.369,429.313,484.968,428.586ZM736.989,650.264v50.31h29.688v-50.31ZM622.776,256.8V206.958H592.953V256.8ZM448.824,206.85v49.858h29.681V206.85ZM334.585,256.766v-49.72H304.817v49.72ZM304.8,755.994h29.8V706.156H304.8Zm288.07-55.339h29.743V650.323H592.874Zm.137,60.482v50.551h29.632V761.137ZM449,594.865v50.119h29.5V594.865Zm144.05,0v50.115h29.561V594.869ZM448.816,700.644H478.6V650.407H448.816Zm-.008,55.325h29.8V706.138h-29.8ZM304.861,644.949H334.63V595.035H304.861ZM478.476,811.691V761.31H448.867v50.381ZM341.039,650.263v50.316h29.719V650.263ZM232.833,594.905v50.02H262.3v-50.02ZM766.664,312.731V262.6H736.7c0,16.036-.036,31.74.1,47.443.007.9,1.361,2.554,2.113,2.569C748.1,312.794,757.284,312.731,766.664,312.731ZM304.9,650.251v50.328h29.688V650.251Zm36.228-55.377V644.99h29.559V594.874ZM622.609,756.012V706.091H592.964v49.921ZM478.654,151.527H449v50.012h29.659Zm288.04,493.515V595.057H736.979v49.985ZM593.016,151.019v50.553H622.64V151.019ZM232.759,650.289v50.359h29.6V650.289Zm576.526-332.51V368.22h29.89c0-5.459,0-10.676,0-15.893,0-9.666.063-19.333-.049-29-.03-2.585-.192-5.52-3.96-5.538C826.632,317.752,818.1,317.779,809.285,317.779ZM262.341,262.271c-7.634,0-15.037,0-22.44,0-6.588,0-7.443.829-7.447,7.3q-.011,19.224,0,38.45v4.594h29.889Zm72.3,55.675h-29.71v49.747h29.71Zm-101.823-.017v49.689h29.421V317.929Zm137.976,49.776V317.948h-29.7v49.757ZM478.646,317.91H448.959v49.751h29.687Zm114.262-.057v49.793h29.763V317.853Zm144.173,0v49.8h29.586v-49.8ZM298.611,756.7V706.055H268.365c0,7.5.781,14.865-.177,22-1.581,11.785,2.229,20.5,12.146,26.74,1.122.7,2.31,1.762,3.5,1.814C288.634,756.819,293.446,756.7,298.611,756.7Zm468.335-50.645h-30v49.833c9.369.673,18.655,2.221,25.2-6.812.955-1.317,2.464-2.221,3.5-3.49a5.05,5.05,0,0,0,1.237-2.854C766.974,730.617,766.946,718.505,766.946,706.052Zm-540-171.645c0-10.314-.535-20.006.168-29.607.565-7.706-1.843-12.07-8.56-16.4-7.071-4.559-13.857-4.992-21.607-4.392v45.629c4.981-.127,9.85-.747,12.766,4.22.243.413,1.25.522,1.9.527C216.555,534.426,221.492,534.407,226.947,534.407ZM371.025,372.719c-9.676,0-18.87-.073-28.057.135-.766.017-2.17,1.964-2.124,2.962.373,8.137-1.126,16.3,1.63,24.43,2.188,6.46,3.105,13.379,4.252,20.151.454,2.677,1.591,3.418,4.08,3.336a109.162,109.162,0,0,1,12.389.039c3.976.323,5.422-.978,5.064-5.022-.3-3.407-1.316-8.255.439-10.017,3.334-3.347,2.16-6.719,2.251-10.077C371.179,390.159,371.025,381.651,371.025,372.719ZM298.569,257.251V207.135c-6.034-1.33-11-.4-15.19,4.227a76,76,0,0,1-10.1,9.135c-4,3.065-5.335,6.725-5.025,11.722.433,7,.1,14.048.117,21.075,0,1.308.113,2.615.174,3.957ZM665.185,761.257v51.088a40.383,40.383,0,0,0,5.358-1.639c4.482-2.109,8.717-4.857,13.35-6.5,9.322-3.316,13.025-9.107,11.656-19.224-1.04-7.69-.206-15.634-.206-23.72ZM370.816,812.274v-51H340.728c0,11.825-.074,23.374.121,34.919.018,1.079,1.527,2.507,2.688,3.13,7.389,3.963,14.854,7.789,22.35,11.548A28.539,28.539,0,0,0,370.816,812.274ZM766.942,257.239c0-4.866.039-9.526-.009-14.185-.066-6.337,1.612-13.5-.8-18.781-2.494-5.447-9.294-8.782-13.664-13.543-4.537-4.942-9.818-4.477-15.454-3.75v50.259ZM596.384,483.989v50.082h26.567c0-16.348,0-32.341-.015-48.335a9.078,9.078,0,0,0-.385-1.747Zm-3.721-111.037c0,13.106,0,25.8,0,38.494a9.189,9.189,0,0,0,.083,2.88,6.447,6.447,0,0,0,1.84,2.937c3.942,3.041,8.034,3.628,12.66,1.062,5.017-2.783,12.33-3.789,14.924-7.912,2.633-4.185.765-11.229.8-17.021.041-6.731.01-13.463.01-20.44Zm-221.9,105.86V428.964H348.58c1.4,6.933,2.734,13.511,4.1,20.269-.9.356-1.627.713-2.394.938-3.106.911-7.476.858-9,2.92-1.6,2.176-.531,6.355-.553,9.66-.036,5.311-.01,10.624-.01,16.061Zm107.877,5.212H453.961v50.147h24.675Zm263.252-5.067c5.57,0,10.527.163,15.456-.128,1.072-.063,2.578-1.569,2.975-2.724,1.517-4.407,2.176-9.158,4.043-13.388,4.88-11.059,1.443-22.473,2.722-33.836H736.492C743.093,445.123,741.685,461.859,741.888,478.957ZM665.141,201.589h30.151c0-9.987.073-19.75-.113-29.508-.018-.975-1.426-2.246-2.491-2.825-6.529-3.552-13.126-6.98-19.741-10.37-2.474-1.267-5.057-2.321-7.806-3.57ZM370.815,155.5c-5.958,2.923-11.522,5.544-16.982,8.366-4.268,2.206-10.046,3.695-12.153,7.273-2.2,3.73-.876,9.579-.958,14.5-.088,5.315-.02,10.633-.02,15.834h30.113Zm78.049,231.875,5.641.583c0,2.9.082,5.5-.016,8.1-.224,5.914-.463,11.83-.843,17.735-.17,2.649.825,3.359,3.448,3.764,7.107,1.1,12.7-2.665,18.814-4.961,2.4-.9,3.008-2.2,2.986-4.561-.1-10.615-.034-21.231-.06-31.847a29.824,29.824,0,0,0-.351-3.216H448.864ZM196.915,373.5v50.585c7.856-11.016,17.473-18.173,28.543-23.525a3,3,0,0,0,1.41-2.2c.1-8.231.063-16.463.063-24.857Zm71.44,55.423c0,6.147.68,11.888-.15,17.4-1.434,9.523,2.184,14.641,11.291,17.294,6.5,1.894,12.6,5.131,19.143,7.876V428.922ZM190.981,589.883c0-3.875.038-7.166-.007-10.455-.147-10.9-.12-21.808-.563-32.7-.282-6.959-.6-6.947-7.378-6.947H162.279c.971,5.331,1.793,9.846,2.646,14.535l3.9-1.607c.944,3.257,1.617,6.22,2.676,9.039.99,2.635.917,4.611-1.463,6.567a4.73,4.73,0,0,0-1,3.975c1.181,5.1,2.606,10.15,4.192,15.138a3.9,3.9,0,0,0,2.648,2.341C180.68,590.011,185.5,589.883,190.981,589.883Zm431.8-159.556c-11.931,3.439-22.161,8.767-25.09,21-2.1,8.763-1.484,18.177-2.084,27.353h27.174Zm-318.131-.483c0,14.8-.039,28.828.094,42.854.009.856,1.242,1.912,2.144,2.516,8.627,5.78,18.24,3.282,27.99,3.686,0-8.055.025-15.613-.044-23.169a2.991,2.991,0,0,0-.98-2.015C324.4,445.936,314.909,438.211,304.651,429.844ZM741.927,539.629c0,4.179-.139,7.894.028,11.6.373,8.292,1.413,16.477,5.212,24.021,3.992,7.93,10.611,11.92,19.443,12.814V539.629Zm-145.451-.017c-2.815,27.73,12.094,46.133,26.15,46.667V539.612ZM453.89,478.656h24.763V430.129c-11.722,2.66-23.279,13.98-24.6,25.288C453.176,462.992,453.89,470.752,453.89,478.656Zm-77.344-72.112c9.5-1.118,18.506-2.085,27.468-3.362,1-.141,2.436-2.014,2.485-3.136.252-5.779.118-11.576.118-17.366v-9.719H376.546Zm354.1-33.53h-30.1c0,6.792.153,13.277-.073,19.749-.094,2.694.8,3.851,3.309,4.637a48.589,48.589,0,0,1,24.885,17.64,9.064,9.064,0,0,1,.885,2.258l1.1-.965Zm-555.063.471c-2,6.868-3.982,13.683-6.029,20.719l4.2.942v25.409c-2.825,0-5.423-.137-7.989.088-.729.064-1.366,1.183-2.045,1.818.692.465,1.379,1.327,2.077,1.335,8.221.094,16.443.061,24.85.061V373.485Zm309.5-.584v35.323c9.648-3.461,18.959-6.759,28.219-10.2a3.19,3.19,0,0,0,1.731-2.308c.132-7.54.079-15.084.079-22.818Zm257.04,111.116v50.22h23.991c-7.553-16.131-8.657-32.886-7.088-50.22Zm67.155-110.465v36.462c9.454-3.652,18.786-7.218,28.066-10.914a3.206,3.206,0,0,0,1.738-2.282c.13-7.681.078-15.365.078-23.266ZM659.009,373H629.015v34.828c9.648-3.509,19.046-6.895,28.4-10.394a2.794,2.794,0,0,0,1.523-2.02C659.051,388.019,659.009,380.62,659.009,373ZM454.117,539.685c-2.551,18.582,8.7,43.151,24.43,46.6v-46.6ZM376.58,483.954v50.121h17.1V483.954Zm17.6-5.224c0-16.067.041-31.626-.11-47.182a3.566,3.566,0,0,0-2.461-2.461c-4.918-.243-9.855-.116-15.052-.116V478.73ZM262.566,534.194c0-7.509.093-14.794-.116-22.071-.026-.928-1.462-2.169-2.524-2.655-5.256-2.406-10.63-4.551-15.913-6.9-3.717-1.652-7.355-3.482-11.3-5.36v36.986Zm576.359.972V484.131H814.846C815.757,504.372,821.092,522.041,838.925,535.166ZM556.638,395.8c10.895,2.463,21,6.459,29.943,14.073V373.032H556.638ZM536.607,534.28c.238-.546.54-.916.541-1.287.054-15.6.112-31.2.022-46.8a3.136,3.136,0,0,0-2-2.3c-4.636-.212-9.286-.108-14.041-.108v50.5Zm144.3-50.244h-15.7v50.2h15.7Zm122.26,105.7a110.951,110.951,0,0,0-.12-11.527,8.557,8.557,0,0,0-2.59-4.923c-7.27-6.689-14.793-13.1-22.084-19.771-1.934-1.768-3.358-4.1-5.381-6.624v42.845ZM369.891,534.862l.9-.8V484.078H341.2c-1.3,6.207-.394,10.638,5.068,14.849,10.774,8.305,18.878,18.825,20.727,33.062C367.136,533.054,368.889,533.909,369.891,534.862Zm-101.268,4.784v27.685c9.923-.547,19.381-1.784,28.385-5.471.746-.305,1.717-1.285,1.73-1.969.13-6.693.078-13.391.078-20.245ZM814.732,478.67h24.133V432.233C824.759,445.2,815.921,459.716,814.732,478.67Zm-113.8,282.547v33.728c9.81-6.521,18.974-12.58,28.08-18.724a4.03,4.03,0,0,0,1.8-2.517c.191-4.085.085-8.184.085-12.487ZM341.071,589.841c6.059,0,12.21.008,18.361-.022.366,0,1.039-.289,1.052-.479.254-3.69,3.2-2.722,5.266-2.948,3.847-.42,5.583-1.828,5.4-6.234-.408-10.056-.129-20.139-.129-30.212v-10.04c-3.7-1.235-3.949.918-4.137,3.117-1.207,14.179-7.832,25.353-19.97,32.447-5.526,3.23-6.985,6.963-6.143,12.571C340.836,588.449,340.909,588.855,341.071,589.841ZM304.648,761.22c0,3.289.218,6.181-.058,9.025-.3,3.125.784,5.061,3.45,6.734,6.17,3.871,12.126,8.082,18.218,12.081,2.585,1.7,5.291,3.21,8.376,5.068V761.22Zm29.946-363.964V373.024H304.832v21.441ZM232.474,539.707c0,4.528-.041,8.781.04,13.032a2.992,2.992,0,0,0,.871,2.156c8.736,6.029,17.84,11.219,28.895,12.25V539.707ZM809.13,694.931a267.974,267.974,0,0,0,28-44.139h-28ZM198.914,650.565a341.657,341.657,0,0,0,27.7,45.121V650.565ZM550.907,394.994V373.008h-29.74v21.986Zm.3-248.741c0-6.547.14-12.592-.144-18.617-.045-.947-1.938-2.456-3.1-2.588-5.186-.591-10.414-.864-15.634-1.076-3.772-.154-7.555-.03-11.189-.03v22.311ZM695.1,373.018H665.157v21.866H695.1ZM514.833,146.248V123.553l-29.776,1.61v21.085Zm-102.228,255.2c3.834-2.082,7.077-3.763,10.242-5.581,6.3-3.617,11.514-9.607,19.764-8.382V372.965H412.605Zm-150.021-10.9c0-4.921.013-9.728-.012-14.536,0-.936-.154-1.871-.25-2.963H232.77v24.127c5.075-1.358,9.8-2.79,14.608-3.86C252.2,392.242,257.109,391.529,262.584,390.549ZM376.556,582.341c13.917-5.843,18.46-31.087,16.195-42.648H376.556Zm-77.9-209.38H268.717v16.982l29.939,2.808ZM536.665,478.718c3.966-18.039-3.8-38.9-15.475-42.34v42.34Zm-15.559,60.719v43.534c5.25-2.243,8.922-6.225,11.643-12.447,3.965-9.067,4.389-18.71,4.4-28.378a3.722,3.722,0,0,0-2.55-2.586C530.224,539.282,525.824,539.437,521.106,539.437ZM665.164,434.973v43.669h15.684C682.271,461.714,681.239,446.005,665.164,434.973ZM586.913,146.25c0-4.888.084-9.288-.073-13.679-.03-.851-.889-2.293-1.55-2.408-9.424-1.647-18.879-3.112-28.514-4.651V146.25Zm144.529,55.342c-.619-3.182-.181-7.3-1.873-8.566-9.076-6.8-18.682-12.882-28.792-19.675v28.241ZM665.193,539.664v43.371c11.965-4.636,17.576-27.616,15.272-43.371ZM448.948,130.224v15.843h29.657V125.7ZM810.29,273.212l-1.027.587v38.716h25.862ZM334.608,174.753c-1.806.985-3.144,1.6-4.359,2.4-7.116,4.7-14.056,9.681-21.355,14.068-4.376,2.63-4.922,5.971-3.872,10.28h29.586ZM226.67,312.548V274.381l-1.035-.475L201.38,312.548ZM772.9,737.408l1.1.62,28.165-31.85H772.9ZM233.912,706.046l27.618,31.336.775-.758V706.046Zm34.767-192.767v20.87H299.45c-.747-2.554-.687-5.548-2.066-6.543C288.691,521.339,278.846,517.272,268.679,513.279ZM866.633,393.041c-1.885-6.388-3.655-12.558-5.585-18.677a2.793,2.793,0,0,0-2.041-1.558c-4.635-.14-9.277-.072-14.144-.072v24.181ZM262.366,428.652c-6.155,0-11.8-.077-17.449.07a3.9,3.9,0,0,0-2.976,1.521c-1.563,3.322-2.439,6.878.041,10.183,5.195,6.92,12.654,10.667,20.384,14.791Zm535.075-171.9-23.679-26.118-.878.71v25.408Zm47.306,376.913,1.169.3c4.99-12.614,9.98-25.227,15.118-38.211H844.747ZM190.773,594.98H175.165c4.96,12.772,9.714,25.013,14.467,37.254l1.141-.374ZM592.954,131.207v14.7h29.805c-.4-2.651,2.094-5.961-1.907-7.134C611.755,136.1,602.555,133.786,592.954,131.207ZM412.585,146.118H442.7V131.57l-30.116,7.978ZM262.42,232.242l-.938-.527L238.777,257.15H262.42Zm6.155,191.106h28.388c-8.441-7.639-16.562-13.969-28.388-12.535Zm590.641-55.606L845.67,334.3l-.837.363v33.075Zm-668.591.588V336.52l-.874-.195c-4.156,10.523-8.313,21.046-12.642,32ZM847.612,539.662l-.351,1.359L872.34,549.9c.618-3.941,1.089-6.947,1.605-10.24ZM226.847,589.724c-1.514-5.912-19.706-8-30.339-3.839.131,1.257.266,2.558.4,3.839Zm609.274-.012L809.34,579.067v10.645ZM262.263,423.444V412.377c-6.45,1.578-13.058,6.419-15.185,11.067Zm610.75.09c-.467-2.779-.887-5.28-1.491-8.868l-19.286,7.76.391,1.108Zm-538.3,159.084-29.2,6.986h29.2Zm450.3-153.63H773.056V444ZM304.839,557.367c4.881-3.856,6.524-8.171,5.836-13.533-.453-3.53-1.867-5.33-5.836-3.916Zm-78.175-7.324V539.83H215.175Zm510.4,211.14v9.1l11.335-9.1Zm-438.421.566h-10.2l10.2,8.186ZM641.286,146.166l.214-.65-12.6-4.381v5.031ZM204.625,478.808l-7.671-7.052v7.052Zm129.95,11.13v-5.851h-9.9Zm72.1-344c-.155-1.543-.275-2.74-.431-4.3l-10.022,3.652.168.645Z"/></svg>