<svg id="Layer_1" data-name="Layer 1" xmlns="http://www.w3.org/2000/svg" viewBox="0 0 1000 1000"><path d="M500,0C223.86,0,0,223.86,0,500s223.86,500,500,500,500-223.86,500-500S776.14,0,500,0ZM217.21,479.3c-7.19,0-14.37.2-21.56.1-2.75,0-4,.8-4.5,3.58-9.16,47-18.45,94.07-27.58,141.11-.68,3.49-1.92,4.85-5.66,4.8-15.49-.24-31-.15-46.47-.18V626a15.3,15.3,0,0,0,.46-1.6q13.68-70.74,27.37-141.47c.6-3.07-.53-3.77-3.26-3.71-6.62.11-13.25,0-19.87.16-2.8.05-3.78-.73-3.13-3.76,2.92-13.69,5.65-27.41,8.4-41.14.44-2.17,1.33-3.33,3.79-3.23,7,.28,13.91.3,20.86.58,2.15.09,3.32-.33,3.68-2.71a79.84,79.84,0,0,1,2-9.17c6.95-25.67,22.13-43.45,48.66-50.09,5.52-1.38,11.23-2,16.85-3h20.22c3.33.39,6.66.86,10,1.13,2,.17,2.8.89,2.4,3q-4.12,21.45-8.12,42.91c-.39,2.11-1.76,2.3-3.45,2.29-6.84-.06-13.7-.29-20.54-.07-8.09.25-13.42,4.71-15.53,12.48a29.32,29.32,0,0,0-.51,3.23c4.09,0,7.87,0,11.66,0q6.39-.09,12.79-.33c2.65-.09,3.53.76,3,3.6-2.69,13.51-5.21,27.05-7.69,40.6C221,478.25,219.79,479.3,217.21,479.3ZM377.39,627.54c-12.58.17-25.16.39-37.74.57-4.27,0-4.43-.19-3.54-4.38.3-1.39.55-2.79.88-4.44-4.65,2.31-8.84,4.71-13.27,6.51-24.31,9.93-48.59,10.36-72.36-1.53-17.09-8.56-25.22-23.56-28.19-41.82-2.7-16.56-.2-32.82,2.88-49.05q9.38-49.54,18.68-99.1c.92-4.85.89-4.86,5.77-4.87H295c4.71,0,4.82.15,3.93,4.74-6.83,35.2-13.73,70.39-20.43,105.61-1.59,8.35-2.83,16.75-1.84,25.37,1.34,11.59,8.6,19.15,20.17,21,17.35,2.77,34.81-7.61,43-23.32,5.32-10.19,7.76-21.24,10-32.33q9.92-48.4,19.65-96.86c.51-2.53,1.39-3.81,4.35-3.81,14.6,0,29.2-.24,43.81-.38,4.41,0,4.55.2,3.67,4.64Q402.66,528.07,384,622C382.91,627.49,383,627.46,377.39,627.54Zm387.6-57c-15.86,33.32-41.87,54.29-78.43,60.87-27.71,5-54,.63-77.4-15.86-16.94-12-29.59-27.44-32.88-48.55-1.6-10.24-1-20.79-2-31.16-.74-8.56-1.5-17.23-3.47-25.56-4.41-18.56-15.74-30.8-35.08-34.19-28.88-5.05-54.68,11.26-62.64,39.46-4.45,15.73-4.36,31.35,3.35,46.15,7.11,13.63,18.82,20.73,34.13,21.74,17.77,1.17,32.93-4.4,45-17.8a22,22,0,0,1,2-1.63c.57,3,1.05,5.61,1.54,8.18,2.65,13.83,8.13,26.34,17.68,36.83,2.42,2.67,1.59,4-.87,5.71-11.78,8.36-25.08,12.93-39.09,15.67-17.64,3.45-35.24,3.71-52.75-.87a66.64,66.64,0,0,1-28.6-15.12c-.49-.44-1-.81-2.16-1.7-.68,3.48-1.33,6.45-1.85,9.45-1,5.82-1,5.82-7,5.84l-40.45.1c-4.26,0-4.45-.23-3.64-4.43Q413.45,556,426.57,488.4q11.22-57.91,22.37-115.86c.54-2.81,1.55-4,4.57-3.92,14.39.16,28.77.15,43.15.06,3.14,0,4.1.77,3.44,4.09-4.06,20.22-7.92,40.47-11.83,60.72-.2,1.05-.3,2.13-.54,4,1.68-.82,2.73-1.32,3.77-1.84,35.88-18,91-9.66,116.15,30.66,6.37,10.2,9.59,21.53,10.86,33.31,1.16,10.79,1.42,21.68,2.15,32.51,1,15.35,5.57,29.38,16.93,40.3,12.53,12,27.71,13.2,43.73,9.33,23.1-5.58,39-23.68,42.12-47.53a73.31,73.31,0,0,0-1.26-28q-6-23.28-29.08-29.69c-17-4.72-33-2.67-47.11,8.49-2.59,2-4.65,4.74-7,7.14l-1.07-.36c-3.76-16.77-8.84-33-20.31-47.07,3.31-2.25,6.23-4.45,9.34-6.31,36.17-21.57,85.41-17.89,117.88,8.91,17.36,14.33,26.69,33.2,30.12,55.14A114.56,114.56,0,0,1,765,570.58ZM862.52,443.7a4.66,4.66,0,0,1-4.59,2.66c-3.81-.09-7.64-.14-11.45,0-2.73.13-3.81-1.06-4.16-3.61q-2.69-19.49-5.52-39c-.81-5.65-1.82-11.29-2.49-17-.29-2.44-1.32-3.23-3.67-3.19-7.08.1-14.16.18-21.23,0-3-.08-4.09,1.18-4.75,3.89-4.42,18.09-9.08,36.11-13.4,54.22-.85,3.53-2.29,4.83-5.91,4.6-4.78-.3-9.59-.08-15.15-.08,5-21,9.85-41.38,14.81-62.23H762.76c1.64-6.06,3.16-11.64,4.68-17.23h84.95a13.66,13.66,0,0,1,.59,2.26c1.19,13.36,2.34,26.71,3.53,40.06.28,3.16.65,6.31,1,9.78.68-.51,1-.65,1.18-.91q13.72-25.59,27.4-51.19H907c-2,3.85-4,7.76-6.18,11.52C888.08,400.18,875.25,421.91,862.52,443.7Z"/></svg>