<svg id="Layer_1" data-name="Layer 1" xmlns="http://www.w3.org/2000/svg" viewBox="0 0 1000 1000"><path d="M500,0C223.86,0,0,223.86,0,500s223.86,500,500,500,500-223.86,500-500S776.14,0,500,0ZM237,583.13H138l26.55-125.5h95.32c61.85,0,76,30.17,76,54.91C335.89,546,314.47,583.13,237,583.13Zm35.29-188.85h-99l26.55-125.49h95.33c61.84,0,76,30.17,76,54.9C371.19,357.18,348.26,394.28,272.24,394.28ZM457.77,779.21H358.82l26.55-125.49h95.32c61.84,0,75.72,30.16,75.72,54.9C556.41,742.1,533.48,779.21,457.77,779.21Zm35.29-196.08H394.42l28.05-125.5H517.8c61.84,0,76,30.17,76,54.91C593.82,546,570.59,583.13,493.06,583.13Zm35.3-188.85H429.41L456,268.79h95.32c61.84,0,76,30.17,76,54.9C627.3,357.18,605.58,394.28,528.36,394.28Zm197.89,307.1h-99l26.25-125.19h95.63c61.54,0,75.72,29.86,75.72,54.6C824.9,666.08,801.67,701.38,726.25,701.38ZM761.54,505.6H662.6l28-125.5h95.93C847.82,380.1,862,410.27,862,435,862,470.3,839.07,505.6,761.54,505.6Z"/></svg>