<svg id="Layer_1" data-name="Layer 1" xmlns="http://www.w3.org/2000/svg" viewBox="0 0 1000 1000"><path d="M715.78,239.25H284.25a45.13,45.13,0,0,0-45,45V715.3a45.11,45.11,0,0,0,45,45h431.5a45.13,45.13,0,0,0,45-45v-431A45.13,45.13,0,0,0,715.78,239.25Zm-275,332.06c-.89,46.79-31.49,72.46-85.49,72.46H336.9V605.52h18.43c29.26-.45,41.39-12.58,41.84-33.76v-8.55H358.5c-25.64-.44-46.82-21.13-46.82-46.79V402.53a46.77,46.77,0,0,1,46.79-46.75h82.35Zm247,72.48H473.66V605.55H687.85Zm.47-80.55H644.67v-153A16.61,16.61,0,0,0,628,393.61H602.83V562.79H559.18V393.61H517.32V562.77H473.66v-207H641.5c25.64,0,46.37,21.16,46.82,46.8Z"/><path d="M500,0C223.86,0,0,223.86,0,500s223.86,500,500,500,500-223.86,500-500S776.14,0,500,0ZM799,715.78A83.35,83.35,0,0,1,715.78,799H284.22A83.35,83.35,0,0,1,201,715.78V284.22A83.35,83.35,0,0,1,284.22,201H715.78c45.87,0,82.77,37.38,83.22,83.22Z"/><path d="M355.33,508.35v.12A16.6,16.6,0,0,0,372,525h25.17V393.61H372l0,0a16.65,16.65,0,0,0-16.65,16.65Z"/></svg>