<svg xmlns="http://www.w3.org/2000/svg" viewBox="0 0 1000 1000"><path d="M544.684,216.027l10.629,9.337c9.2-2.358,10.016-1.976,11.633,4.466,4.57,1,9.409.728,11.87,3.014,2.068,1.921,1.366,6.824,3.576,10.885l4.369-10.407c3.233,3.638,10.082,4.292,12.6.948.778-1.033,2.145-1.623,3.242-2.416.4,1.409.744,2.834,1.205,4.221.43,1.293.981,2.546,1.809,4.663,2.882-2.581,3.9-9.659,8.779-3.545a2.086,2.086,0,0,0,1.442.509c14.036.306,14.517.944,11.741,16.256L637.867,255c-1.58,3.571-4.227,6.735-3.784,9.382.406,2.424,4.149,4.29,6.422,6.4l2.02-1.571-3.2-6.244,1.927-.835,6.083,13.411c7.244-7.962,10.962-8.454,13.371-2.231-8.332-3.305-10.256,4.6-14.107,8.524-2.148,2.191-2.7,5.944-3.976,8.993,3.371-1.881,6.822-3.636,10.058-5.725.857-.553.766-2.51,1.617-3.151,1.3-.979,3.037-1.373,4.589-2.015l9.271,7.7c3.686-.833,8.793-2.906,13.895-2.892,5.566.014,10.4,2.727,10.43,10.562,1.889-1.377,3.369-2.455,4.853-3.538,2.619,2.416,5.232,4.837,8.175,7.564l-5.5,8.963c-3.855-.584-4.862-10.445-11.73-5.029.981-3.655,1.961-7.31,3.057-11.4l-9.89.885c0,4.744,0,8.6,0,12.452-9.223,1.044-4.472,6.49-3.233,10.64a50.453,50.453,0,0,0,2.944,6.5l5.271-4.6-3.047-.525-2.1-12.181,4.04-1.226-2.319,6.227,15.811,10.566c-.706-3.544-1.285-6.445-1.863-9.346,2.291.571,5.119,2.291,6.778,1.514,6.76-3.165,10.572.056,14.326,5.012,1.283,1.694,3.623,2.588,5.785,4.055-.539,2.145-1.557,4.416-1.513,6.668.027,1.4,2.125,4.093,2.5,3.96,6.257-2.212,6.342,3.519,8.483,6.674l8.037-.956-2.517,3.739c3.731,3.884,6.914,6.411,8.829,9.68.559.954-2.495,4.024-3.058,6.168-1.361,4.85-2.721,9.7-4.054,14.451,9.761-3.676,10.906-3,9.662,6.852l7.714-2.042c3.036.47,7.173,1.656,11.313,1.667,34.386.093,68.773-.059,103.159-.035,2.781,0,5.56.763,8.34,1.171l-.274,2.648H124.339l-.219-2.281c2.762-.213,5.523-.608,8.285-.612q55.152-.084,110.3-.039c11.973.026,23.927.35,34.723-7.481l3.03,6.211,15.012-.711c-.1-1.4.827-5.667-.669-6.833-8.977-7-2.493-8.913,2.717-10.805-.193-3.655-1.606-8.64-.279-9.528,3.378-2.259,7.982-2.688,13.5-4.247l-2.984,8.392,1.31,1.83c3.145-1.4,6.291-2.805,10.6-4.724l16.7,14.4L344.7,354.88l-7.549-1.56c-.424-2.04-.851-4.1-1.219-5.87q4.992,0,9.955,0l8.942,3.035,1.253-1.98-3.171-8.653-7.208,7.877q1.429-6.082,2.861-12.165l2.644-.024c-1.244-2.167-2.489-4.333-3.552-6.183l-23.172,9.2c-4.156-3.243-7.4-6.981-4.942-13.276a4.441,4.441,0,0,0-1.34-4.044c-3.93-2.494-8.145-4.539-10.349-5.724,1.281-4.889,2.141-8.738,3.332-12.48.6-1.886,1.418-4.656,2.806-5.152,3.762-1.343,7.882-1.684,11.859-2.424-1.024,2.433-2.047,4.867-3.959,9.419,6.184-2.188,11.584.633,13.629-6.211l-6.828,2.412,1.071-2.193-4.085-3.278c2.041-7.782,5.274-15.541.216-23.642l10.787-.922c-1.3-2.927-2.17-4.9-3.709-8.381l13.871-1.25a50.032,50.032,0,0,1,.1-6.949c.176-1.434,1.214-3.8,2.1-3.92a35.288,35.288,0,0,1,9.839.094c2.619.405,5.094,1.737,8.33,2.91.21,1.856.524,4.621.906,7.989l-15.539-6.4c-5.46,13.551-5.46,13.551,5.772,19.559,2.23-6.518,6.25-9.3,13.486-7.041,2.93.915,6.577-.47,11.124-.933-3.98-6.035-7.468-11.325-10.194-15.457l19.083,6.5,2.143-2.867-12.219-12.169q.428-1.968.856-3.94c2.974-.612,5.93-1.325,8.924-1.814,4.7-.767,9.436-1.315,14.132-2.1a32.1,32.1,0,0,0,4.584-1.455l-8.48-13.7h8.373c-.682-2.769-1.262-5.123-1.929-7.827l12.695,6.769c-1.667-7.082-3.194-13.566-4.823-20.484,4.741-2.2,13.236-.714,12.34-10.191,9.123.007,11.252,2.8,8.284,10.815-.268.723-.588,1.756-.281,2.314,3.063,5.572-2.747,9.488-2.686,14.947,5.788,1.835,11.04,1.931,13.2-4.985.719-2.3-.672-5.257-1.087-7.838h9.454l-8.023-7.439c3.085-2.956,12.194,6.031,10.906-5.305l17.492.864c.172-3.479.292-5.9.412-8.326l2.3-.6q2.728,9.368,5.458,18.734l1.739-.352V188.954c12.08-1.378,12.813,8.565,15.617,15.434l9.454-5.517,2.477,2.424-10.811,15.59c5.867-.479,10.253-.651,10.8-7.426.124-1.544,4.415-2.753,8.4-5.041-1.333,6.7-11.641,6.948-5.145,13.744,2.136-2.3,4.921-4.272,6.275-6.965,2.869-5.7,5.645-4.316,9.576-1.194,5.123,4.07,1.466,5.858-.968,9.216-1.565,2.159-.294,6.374-.294,9.667l2.3.194,3.393-6.6c1.739,2.206,3.479,4.411,6.437,8.161Zm-127.039,139.4c1.608,1.807,3.215,3.615,6.057,6.812.985-5.151,1.672-8.748,2.359-12.344l-2.033-1.3-6.31,5.729-6.412-4.74c-.27-3.589-.1-7.287-.959-10.729a13.514,13.514,0,0,0-4.113-6.415c-1.362-1.2-3.813-1.152-6.057-1.733l-9.435,3.982c2.817,2.578,5.295,5.374,8.277,7.443,3.938,2.732,8.272,4.893,12.437,7.3.55,2.053,1.1,4.1,1.292,4.824l-9.486,2.493c-1.023-3.247-1.12-8.225-3.266-9.373-4.212-2.253-9.831-3.821-14.372-2.984-4.85.895-9.127,4.892-15.223,8.451l-3.782,15.192c3.074.552,7.2,1.77,11.342,1.854,2.448.05,4.932-1.7,7.4-2.635l-5.112-7.121c1.65-.71,3.692-2.162,5.875-2.418,5.7-.668,11.454-.813,17.188-1.167C412.044,362.681,414.913,362.457,417.645,355.423Zm76.6-112.555c-2.963-3.677-6.363-5.766-13.359-3.017,11.625,3.875-3.579,9.711,3.242,13.93,4.905-2.489,2.243-11.77,10.305-11.083a71.149,71.149,0,0,0-1.465,7.1c-.042.342,1.966,1.517,2.511,1.252a179.672,179.672,0,0,0,17.437-9.222c1.226-.775.815-4.137,1.158-6.308l-1.652-1.324c-3.117,8.645-9.034,4.979-14.723,3.8l1.049,6.186C496.765,243.592,495.517,243.22,494.248,242.868Zm-18.955,5.172H458.576c.543,1.8,1.409,4.669,2.36,7.818-4.389,5.581-2.631,13.931,5.11,21.728,1.821-3.079,3.2-6.483,5.521-9.031,2.3-2.531,5.555-4.2,8.391-6.247l-2.618-1.238c-.222-2.975-.387-5.955-.695-8.921a31.112,31.112,0,0,0-.857-3.788l2.589.433c-.246-3.774-.467-7.152-.766-11.732l-9.186,3.682q2.919,3.049,5.835,6.1C474.623,247.227,474.949,247.641,475.293,248.04Zm189.2,130.773,9.4-4.6c6.709,11.137,9.576-1.376,14.531-2.881l5.846,6.294c.993-8.777.993-8.777,5.866-9.183l-2.679,7.166a58.32,58.32,0,0,0,15.384-8.782c.816-.624,1.087-3.031.573-4.128-1.629-3.473-3.751-6.715-5.676-10.038-13.185,7.121-3.17-7.882-8.844-8.583-4.235,3.51-8.781,7.434-13.5,11.136-3.245,2.545-6.677,6.7-10.12,6.8C664.233,362.332,661.961,367.8,664.489,378.813ZM568.57,351.274l1.688,1.562L581.3,355.7c-2.415,3.316-5.391,5.581-5.539,8.018-.242,3.97,2.7,5.667,6.846,4.181.3-.109.959,1.343,1.626,1.583a28.775,28.775,0,0,0,7.086,2.053c2.952.246,5.968-.26,9.8-.492l4.866-7.093c-3.08-6.9-5.828-13.055-8.577-19.211l-2.611,1.062c.289,2.1.577,4.207.755,5.5l-8.866,3.371c.53-4.1,2-9.555-6.27-5.516-1.06.518-3-1.029-4.319-.718A56.9,56.9,0,0,0,568.57,351.274Zm-84.954-75.435c5.529,0,10.659.282,15.743-.076,5.485-.386,10.929-1.369,14.723-1.871-2.572-5.333-4.318-9.118-6.215-12.825-1.114-2.176-2.469-4.228-3.715-6.336l-1.81,1.092q-.7,3.6-1.406,7.194l-1.448-.216q-.258-3.687-.517-7.373l-2.365.1v12.2l-1.908.037c-.492-2.513-.984-5.025-1.656-8.45C486.306,263.36,480.981,266.976,483.616,275.839ZM347.093,362.913l-1.739-2.264c-2.022,5.315-1.5,12.25-8.443,14.524-.283.093.23,2.612.344,3.724H356q2.764-8.469,5.807-17.793Zm184.914,15.513c4.344.292,8.259.117,11.975.893,8.928,1.865,9.221-5.906,12.133-10.621.392-.635-.776-3.1-1.773-3.588C546.028,361.057,533,368.491,532.007,378.426ZM398.135,368.338l-24.384,4.633.178,4.015,35.291,3.078Zm146.386-45.01c4.206-3.106,6.365-4.819,3.356-9.541-3.089-4.847-4.413-10.8-6.638-16.224-.657-1.6-1.746-3.023-3.7-6.327-.847,3.55-1.175,5.325-1.7,7.04a51.06,51.06,0,0,1-2.152,5.895,37.535,37.535,0,0,1-2.4,4.006,35.311,35.311,0,0,1,4.428.656,17.282,17.282,0,0,1,2.942,1.069ZM378.391,346.8l2.41-1.9c-.957-3.382-.937-7.708-3.089-9.936-3.684-3.814-6.7-.259-9.734,2.574-1.646,1.538-4.616,1.658-7.946,2.725C362.976,353.025,373.061,342.98,378.391,346.8Zm87.024-34.082-14.828,9.1c2.639,3.989,4.7,7.1,7.49,11.318l7.988-10.294,3.347,3.659,1.634-1.016Zm138.22,10.854-2.6,6.949c3.364,2.207,5.183,3.628,7.2,4.65,1.468.742,3.569,1.734,4.717,1.193,1.218-.575,2.11-2.763,2.333-4.361.772-5.533,1.191-11.115,1.787-17.1-3.909-1.657-7.272,2.608-7.675,12.652ZM465.964,310.286c6.544,4.915,10.815,8.38,15.426,11.309.7.443,4.39-2.284,4.328-2.413-2.325-4.87-4.47-10-7.887-14.03C477.16,304.359,471.432,307.848,465.964,310.286Zm193.878,8.938-1.884-2.693c-3.141,1.716-6.228,3.539-9.433,5.126-9.865,4.886-10.035,5.909-1.36,13.951Zm-34,57.4.377,1.551h21.6l1.037-2.072c-2.312-2.015-4.406-4.5-7.076-5.746-.76-.355-3.2,2.884-3.941,3.591ZM543.85,340.733c-1.919,4.13-3.726,7-4.509,10.123-.4,1.607.576,4.084,1.782,5.372.718.768,3.43.56,4.655-.183,7.788-4.72,7.729-4.805,1.1-11.817C546.021,343.326,545.245,342.35,543.85,340.733Zm90.857-66.846c-1.909-5.309-3.285-10.9-5.936-15.812-1.48-2.739-5.08-4.331-7.786-6.488-4.038,5.969-4.038,5.969,6.885,10.648C625.523,271.3,625.523,271.3,634.707,273.887Zm-200.95,74.55-2.332-.621c-1.171,2.766-3.627,5.744-3.215,8.25.637,3.876,3.06,7.53,5.1,11.061a4.809,4.809,0,0,0,3.771,2.067,4.572,4.572,0,0,0,3.3-2.736c.336-1.515-.257-4.572-1.054-4.794C432.068,359.644,433.214,353.954,433.757,348.437Zm184.426-.413,1.777.715q7.5-8.53,14.984-17.05c-5.089-3.654-10.694-1.594-11.749,5.189a18.474,18.474,0,0,1-1.872,4.577C620.31,343.66,619.233,345.836,618.183,348.024Zm60-52.432c-3.442-1.159-6.206-2.805-8.958-2.787-2.167.014-4.321,2.08-6.482,3.235a41.8,41.8,0,0,0,4.216,5.081,34.889,34.889,0,0,0,5.219,3.292ZM506.611,380.207c1.7-2.507,4.829-5.171,4.381-6.919-.707-2.762-3.655-5.087-6-7.208-.681-.616-3.182-.386-3.727.321-.648.841-.489,2.794.028,3.947C502.6,373.268,504.3,376.009,506.611,380.207Zm110.881-48.494c7.269-3.206,15.06-3.093,13.34-11.983l-11.671,3.949C618.9,324.915,618.366,327.5,617.492,331.713Zm-172.312-5.73-2.451-1.405c-3.083,3.548-6.166,7.1-9.971,11.473l8.165,3.9C442.6,334.448,443.89,330.216,445.18,325.983Zm283.673,47.695q-.255-1.784-.511-3.566c-3.437.447-7.184.225-10.187,1.612-1.61.744-1.94,4.257-2.848,6.521l1.9,1.333ZM355.811,322.056l-4.072,1.688q2.156,6.075,4.312,12.149l5.284-2.311Q358.572,327.819,355.811,322.056Zm44.821-47.394,9.7,7.467c.846-5.7,1.512-10.192,2.376-16.02Zm57.93,78.8-4.207-.677c-1.37,4.533-2.74,9.066-4.5,14.876,2.022-.145,5.357.18,5.57-.489A140.124,140.124,0,0,0,458.562,353.46Zm53.314,23.882,2.07,2.406c3.054-2.393,6.548-4.423,8.96-7.347,1.047-1.269-.131-4.375-.428-8.412Zm-57.754-85.965c4.583-4.117,4.583-4.117.613-11.916l-7.333,1.116Zm67.907-33.049q-.043-1.333-.088-2.668c-2.983.233-6.647-.5-8.751.981-1.946,1.371-2.223,5.112-3.236,7.81l2.147.966ZM335.351,273.319l-3.669.335c.267,3.379-.387,7.306,1.169,9.916.842,1.413,5.455.578,8.366.757l-.359-1.853-4.11-.583C336.182,278.416,335.766,275.868,335.351,273.319ZM464.84,336.43l-9.183,2.092c-1.19,9.5,5.851,4.85,10.728,6.4C465.708,341.2,465.227,338.558,464.84,336.43ZM451,220.727l-1.97-1.9c-2.28.261-4.843-.033-6.756.946-1.749.9-2.793,3.167-4.148,4.832,1.164.809,2.844,2.574,3.407,2.27C444.836,225.1,447.875,222.83,451,220.727ZM321.5,374.337l11.2-5.746-8.043-5.553C323.556,366.968,322.9,369.326,321.5,374.337ZM465.516,201.251c12.188,1.236,13.662.665,12.934-4.346l-7.013,2.695c.592-2.135,1.032-3.72,1.471-5.305l-2.157-1.269C469.164,195.521,467.575,198.015,465.516,201.251Z"/><path d="M728.116,570.9c-.982-.066-2.665-.488-2.84-.144-2.37,4.658-4.53,9.422-6.742,14.16l-2.865-.375c-.129-2.668-.259-5.337-.4-8.209-4.432-2.081-9.23-4.638-14.276-6.537-1.751-.659-4.116.314-6.2.542,1.221,2.169,1.956,5.518,3.764,6.263,3.761,1.55,8.091,1.721,12.79,3.84l-6.167,2.674,5.084,6.182c-3.783,1.578-7.476,4.639-10.158,3.921-5.511-1.475-5.847-6.081-.944-12.459H679.055l.9-2.3c-1.1-2.565-1.526-6.309-3.462-7.423-3.011-1.731-7.679-3.228-10.533-2.075-7.724,3.122-3.544,9.342-1.082,16.71A70.915,70.915,0,0,0,658.5,582c-2.279-.95-5.334-2.937-6.9-2.158-5.106,2.538-11.586,5.042-14.148,9.5-12.246,21.334-21.344,43.61-15.239,69.312,1.685,7.092.641,14.793,1.722,22.086.471,3.172,3.147,6.017,4.821,9.011l2.179-.933c.494-2,.988-4,1.983-8.023,2.082,11.055,6.285,9.341,10.111,5.474l26.284,5.967q-.158,1.653-.317,3.3c-2.8,0-6.247,1.039-8.274-.214-4.344-2.687-8-3.994-13.1-1.74-2.124.938-5.446-1.235-8.256-1.386-12.543-.672-25.1-1.406-37.649-1.512-4.644-.039-9.349,1.39-13.935,2.519-2.994.738-5.821-7.649-8.826.017-1.336,3.41-3.3,6.574-5.4,10.685-6.121-3.361-11.28-6.616-16.806-9.033-2.432-1.064-6.825-1.688-8.237-.333-5.821,5.587-10.876,2.8-16.254-.123-.664-.362-1.689-.835-2.207-.576-8.572,4.274-16.907-2.292-25.556-.445-4.247.907-8.917-.349-13.392-.294-10.97.133-21.938.468-32.908.7-2.457.052-4.916.008-8.784.008l-3.936,5.689-3.762-8.838c-8.823-.516-9.157,15.142-20.863,9.869-.772-1.572-2.125-4.323-3.805-7.739L405.01,702.79c-4.428-19.149-20.019-8.589-30.3-11.737-6.118-1.874-13.669.988-20.586,1.61-.91.082-1.871-.681-2.824-.724-1.889-.087-4.851-.7-5.514.224-4.622,6.47-8.206,6.15-10.945-1.339l-7.574,5.367c3.841-9.246,16.807-13.932,24.916-10.4,8.34,3.634,20.831,2.444,22.907-3.2,1.82-4.95,1.513-10.8,1.577-16.256.164-13.974-.362-27.964.084-41.926.5-15.823-6.3-27.521-21.509-34.7l-3.906,7.952-11.442,3.016q.248,1.251.5,2.5h5.594l-7.709,14.634c-3.186-3.093-7.749,8.9-12.557.414,9.876-6.778,10.14-12.467,1.39-21.643-6.952-7.291-6.8-11.257.606-20.151.725-.871.855-2.235,1.262-3.371q-.645-1.155-1.288-2.311l-18.931,7.386,2.524,10.349-19.94,2,6.564-2.85H281.155l-.81-2.122-3.866,7.29,13.416,5.027L273.09,605.9c-1.983-7-6.832-8.887-15.507-6.392,6.115-4.284,10.859-6.442,13.712-10.082,1.508-1.925-.275-6.43-.414-7.987,3.75-1.44,7.567-3.579,11.633-4.285,4.369-.758,8.971-.171,13.37-.171-1.821-3.267,11.851-7.019,1.223-12.944-4.113-2.292-7.425-4.049-10.166,1.362l-3.513-5.234c-8.111,10.394-14.749-.668-23.036-.8.438,3.5.86,6.872,1.187,9.477-6.779-1.084-13.549-1.55-19.877-3.474-2.609-.794-4.222-4.758-6.382-7.2a17.053,17.053,0,0,0-2.742-2.305c-3.577,3.948-7.1.144-10.615.092-31.569-.472-63.141-.74-94.711-1.139a8.586,8.586,0,0,1-6.008-2.329H877.078q.081,1.433.161,2.867c-2.629.188-5.258.538-7.887.54-28.838.025-57.681-.3-86.508.247-5.314.1-10.868,3.141-15.651,5.95-1.4.82-.51,5.529-.745,9.834l-5.973-7.292-7.395,1.4-.7-1.73,11.78-5.688c-11.651-5.364-16.878,8.109-26.474,4.237q-.088,1.377-.176,2.755l12.777,6.664c-.458,2.928-.993,6.346-1.528,9.765l1.783.921-6.768,4.384c-1.276-2.381-2.082-3.883-2.887-5.386l-6.694,5.486c.344-5.482.58-9.23.816-12.977l7.933,3.088,1.259-2.715-16.753-9.218-1.326,2.114Q727.118,569.32,728.116,570.9ZM500.735,596.825c-2.905,8.51-6.776,14.481-6.6,20.331.569,19.222,2.137,38.451,4.25,57.575,1.315,11.895,6.391,14.551,18.744,12.009-1.262-8.215-.857-8.786,5.143-8.924.387,3.053.231,8.242,1.224,8.473,3.23.748,9.129.842,10.011-.869,6.6-12.812,6.891-.358,9.917,2.4,11.752-2.742,24.883,3.63,36.29-4.655a3.1,3.1,0,0,1,2.261-.4c5.478,1.291,10.917,2.745,16.395,4.038,6.786,1.6,10.921-.968,11.912-7.915.591-4.143.365-8.416.344-12.63-.069-13.72-.886-27.475-.15-41.148.849-15.789-5.866-28.1-21.562-35.431l-3.435,7.948-11.725,3.259q.308,1.134.616,2.268l5.071.474-6.991,14.934c-10.717.8-11.573.755-12.641-.789,9.961-6.133,10.729-14.108,2.016-20.938-7.462-5.851-7.926-11.855-1.63-19.3a31.5,31.5,0,0,0,2.731-4.589l-1.859-2.463-18.14,7.9c.777,4.641,1.291,7.717,1.661,9.924l-19.829,2.3,4.993-2.124-.619-2.05-10.451,2.833-4.685-4.223c-1.157,2.812-2.013,4.9-3.2,7.773l13.492,5.245-17.127,7.606C505.372,603.2,503.812,601.053,500.735,596.825ZM435.5,582.953c4.1-2.77,7.628-5.155,11.143-7.532-5.319-12.185-12.607-1.6-19.3-2.27,1.318,4.036,2.439,7.466,3.559,10.9l-1.992,1.419-8.155-6.686c-1.012,1.134-2.193,3.588-3.349,3.577-11.269-.117-15.31,7.213-18.056,16.409-.81,2.713-3.078,4.965-4.071,7.653-2.809,7.607-7.234,15.258-7.525,23.023-.618,16.556.727,33.212,1.835,49.788.266,3.985.6,9.456,7.589,9.686.355-1.849.7-3.638,1.178-6.13,3.584,7.213,4.263,7.4,10.473,3.57.633-.39,1.363-1.372,1.788-1.241,11.426,3.537,18.573-6.672,28.162-8.707,1.624,2.083,2.808,5.173,4.9,6.014,9.156,3.684,19.562-.395,28.728,4.163.6.3,2.01.2,2.249-.2,2.94-4.857,8.022-9.744,8.151-14.736.473-18.405-.562-36.859-1.374-55.279-.182-4.115-1.76-8.169-2.368-10.819.726-4.873,2.988-9.591,1.5-12.065-4.532-7.561-8.472.337-12.067,1.661-6.649-3-8.706-7.288-3.7-14.589H441.664c-.308,3.575-.514,5.96-.72,8.344l-1.627.3Zm154.172-4.525-1.874,2.327c9.1,9.947,18.193,19.893,28.167,30.8,3.136-7.29,6.514-14.035,8.856-21.122.94-2.847.776-8.015-.977-9.323-2.431-1.814-7.025-1.812-10.335-1.044-2.982.693-5.482,3.464-7.48,4.83L594.869,582.5l3.123-2.523ZM382.3,611.676c3.359-8.347,6.933-15.9,9.382-23.8,1.549-5-.463-9.369-6.837-8.151-4.794.915-9.369,2.979-15.446,5l-13.92-5.808-1.488,1.786Zm128.935-41.534,6.166,1.363c-.274,1.829-.5,3.355-.5,3.364,4.881,1.63,8.728,3.628,12.742,4.053,3.989.423,8.5-.372,7.513-5.8H523.282q-.176-.885-.35-1.77l6.711-4.95c-4.209-3.612-12.279,4.551-13.984-5.413ZM371.516,582.7l9.852-11.59L359.107,572.5l-1.026,1.536Zm233.9-.407,9.924-11.1-22.4,1.488q-.387.815-.772,1.63Zm28.678-4.614,2.256.722c1.589-2.583,3.513-5.027,4.66-7.793.915-2.2,2.015-6.032,1.017-6.951-1.68-1.548-4.959-1.36-7.933-1.979Zm-170.707-1.142,3.451.6q2.865-6.391,5.731-12.782l-3.494-1.239c-.56,2.107-1.121,4.215-1.471,5.532l-5.9.785Q462.543,572.978,463.384,576.532Zm-63.7-3.358c2.491-.8,4.805-.959,6.223-2.168,1.36-1.158,2.7-3.6,2.373-5.122-.314-1.488-2.59-3.04-4.3-3.535-.757-.218-2.82,1.914-3.277,3.311C399.936,568,399.985,570.6,399.682,573.174Z"/><path d="M725.963,432.535h31.276c-9.4,6.433-9.409,6.437-6.117,17.856,3.72,12.906,7.467,25.805,11.78,40.7,5.486-14.308,10.834-26.6,14.794-39.316,1.877-6.032-.924-11.92-7.081-15.26a9.443,9.443,0,0,1-4.3-3.889h30.038q.135.648.269,1.3a22.637,22.637,0,0,1-3.81,1.64c-4.556,1.064-6.05,3.611-4.616,8.134,4.781,15.08,9.459,30.192,14.945,47.752,5.491-17.439,10.777-32.567,14.641-48.051.685-2.742-4.557-6.964-7.127-10.594H835.8c-13.327,6.186-14.118,19.521-18.1,30.845-4.38,12.447-8.232,25.08-12.655,37.51-.92,2.584-3.334,4.636-5.059,6.933-1.6-2.434-3.785-4.667-4.7-7.336-4.5-13.174-8.67-26.463-13.7-42.008-2.716,6.717-4.68,11.41-6.516,16.152-3.621,9.353-7.019,18.8-10.871,28.052-.844,2.03-3.2,3.432-4.856,5.124-1.282-1.761-3.125-3.342-3.755-5.312-4.662-14.579-8.857-29.309-13.657-43.84C738.715,449.2,739.3,436.858,725.963,432.535Z"/><path d="M993.624,505.665H960.893a17.8,17.8,0,0,1,.272-2.294c11.765-.43,10.6-8.766,10.342-16.672-.166-5.222-.031-10.453-.031-16.188h-34.59c0,8.943-.26,17.6.214,26.213.1,1.778,2.681,3.8,4.571,4.985,1.681,1.057,3.989,1.118,6.02,1.618l-.337,2.2H914.279c.621-1.4.9-2.635,1.206-2.64,10.67-.149,10.547-7.22,10.3-15.078-.38-12.151-.1-24.322-.1-36.485,0-12.788,0-12.788-10.9-18.445h32.462c-14.04,1.774-10.2,12.239-10.387,20.565-.08,3.634-.013,7.271-.013,11.375h34.565c0-8.177.245-16.039-.194-23.863-.094-1.684-2.388-3.679-4.149-4.715-1.81-1.066-4.206-1.134-6.142-3.526h32.863c-.322.931-.559,2.225-.8,2.227-9.929.05-10.91,6.035-10.576,14.223.569,13.99.442,28.029.035,42.03-.2,6.889,1,11.5,9.141,11.072.765-.04,1.585.96,2.379,1.476Q993.8,504.706,993.624,505.665Z"/><path d="M572.614,432.783c16.6.012,33.328-3.852,49.659,2.035,6.2,2.234,9.9,6.842,10.31,13.71.436,7.278-2.221,12.9-8.709,16.485-1.789.99-3.645,1.861-6.818,3.471,10.73,2.638,13.4,9.912,14.119,18.566.675,8.152,1.815,16.078,14.254,16.692-13.347,6.949-23.555,1.815-24.791-10.163-.408-3.945-.821-7.892-1.333-11.825-.79-6.077-4.317-9.26-10.383-10.11-13.24-1.857-13.965-1.312-13.973,11.87,0,2.909.226,5.839-.039,8.724-.579,6.328,1.151,10.366,8.489,9.956.98-.055,2.03,1.122,2.774,3.246H571.564c1.219-1.684,1.684-2.851,2.108-2.836,10.6.364,10.612-6.476,10.361-14.258-.384-11.889-.1-23.8-.1-35.7C583.931,438.709,583.933,438.709,572.614,432.783ZM595,467.322c6.628-.754,12.138-.862,17.377-2.112,5.957-1.421,8.012-6.441,8.408-12.089.4-5.687.451-12.2-5.7-14.316-5.726-1.967-12.276-1.612-18.482-1.946-.46-.024-1.5,2.634-1.529,4.059C594.927,449.082,595,457.251,595,467.322Z"/><path d="M175.7,444.637c0,17.22-.058,31.985.03,46.75.034,5.634,2.344,9.621,8.465,10.667,1.237.212,2.289,1.506,5.326,3.629H159.27c.124-1.212.078-2.135.243-2.175,11.748-2.795,11.438-11.844,11.218-21.079-.225-9.515-.044-19.04-.047-28.561,0-13.513-.006-13.513-11.417-20.2,10.021-5,20.638-2.611,26.949,6.049q16.584,22.752,33.2,45.478c.286.391.827.595,2.764,1.929V470.337c0-5.025-.116-10.054.023-15.075.265-9.64.783-19.339-13.855-20.3l1.527-2.074h27.737c-13.277,3.316-10.41,13.821-10.472,22.766-.12,17.165-.035,34.331-1.9,53.063-2.193-1.859-4.842-3.38-6.507-5.63C206.321,486.292,194.1,469.35,181.8,452.471,180.282,450.386,178.635,448.4,175.7,444.637Z"/><path d="M316.451,468.332c.132,27.667-21.024,45.334-45.9,38.326-19.691-5.547-30.093-28.476-23.187-51.11,6.179-20.249,25.86-30.523,45.587-23.8C307.763,436.8,316.364,450.193,316.451,468.332Zm-11.233.3c-1.974-7.3-3.446-15.889-6.676-23.762-3.041-7.416-10.058-10.667-18.035-10.657-8.046.011-14.575,3.587-17.809,11.023-6.738,15.488-6.887,31.358.024,46.792,3.663,8.182,10.773,11.927,19.942,11.5,8.649-.408,14.66-4.863,17.416-12.662C302.416,484.252,303.32,477.137,305.218,468.633Z"/><path d="M649.585,469.426c-.087-25.115,17.274-41.775,40.889-39.158a32.428,32.428,0,0,1,6.907,1.57c19.047,6.547,28.464,29.392,21.281,51.461-6.212,19.082-24.672,28.87-44,23.329C659.372,502.245,649.649,487.821,649.585,469.426Zm60.008-1.511c-2.074-7.317-3.571-15.655-6.834-23.234-3.166-7.354-10.208-10.549-18.178-10.461-8.039.088-14.459,3.731-17.686,11.211-6.7,15.529-6.864,31.354.21,46.769,3.763,8.2,10.914,11.78,20.042,11.316,8.681-.441,14.615-5.105,17.337-12.831C706.9,483.831,707.756,476.429,709.593,467.915Z"/><path d="M554.454,431.668v19.511l-1.76.8c-1.3-1.9-2.695-3.743-3.875-5.715-9.669-16.153-29.928-16.354-39.029.193-7.877,14.324-7.856,29.472-.147,43.982,2.116,3.981,5.982,7.4,9.771,10.037,5.95,4.137,21.464,4.782,23,.389,2.457-7.009,1.8-15.173,1.922-22.858.016-1.012-3.036-2.306-4.839-3.052a42.305,42.305,0,0,0-6-1.566q.16-1.107.319-2.213h29.34c-11.7,5.309-6.7,15.445-6.819,23.388-.1,6.512-2.057,10.034-8.358,10.826-7.543.949-15.273,3.036-22.649,2.207-23.977-2.693-37.393-22.418-32.884-46.841,4-21.666,25.3-34.79,48.162-29.943C544.614,431.663,548.861,431.359,554.454,431.668Z"/><path d="M327.582,503.022c1.924-.4,4.247-.274,5.678-1.339,2.164-1.612,5.225-4.022,5.276-6.155q.635-26.537.006-53.092c-.051-2.163-3.036-4.615-5.182-6.249-1.538-1.172-3.944-1.2-5.768-3.133,16.651-.265,33.356-4.29,49.531,2.105,7.034,2.781,10.417,8.6,10.559,16.228.159,8.548-3.582,15.352-11.216,18.446-6.432,2.607-13.691,3.518-20.683,4.281-4.412.481-6.167,1.9-5.839,6.258a53.917,53.917,0,0,1-.01,8.712c-.666,7.634.045,14,10.229,13.291.669-.046,1.425,1.176,3.618,3.113H327.542Q327.562,504.255,327.582,503.022Zm22.468-33.049c5.313-.31,9.729-.237,14.031-.9,6.01-.926,9.968-4.356,11.1-10.659,1.261-7,2-14.771-4.691-18.591-5.031-2.873-11.936-2.556-18.05-3.3-.648-.079-2.262,2.241-2.286,3.47C349.964,449.665,350.05,459.343,350.05,469.973Z"/><path d="M102.247,505.657H78.355c13.139-7.8,14.4-21.98,19.621-33.641,5.384-12.026,9.83-24.469,14.915-36.634.8-1.9,2.806-3.3,4.254-4.928,1.636,1.734,4.008,3.189,4.788,5.247,5.42,14.3,10.154,28.868,15.829,43.062,3.9,9.76,3.523,22.773,19.087,24.751l-1.574,2.032H121.169c2.091-1.716,2.972-2.429,3.842-3.155,2.3-1.922,6.877-4.638,6.528-5.647-2.2-6.348-5.436-12.344-8.527-18.355-.23-.446-2-.11-3.059-.116-1.849-.011-3.7-.006-5.546-.006-14.1,0-17.323,2.612-19.546,16.963-.3,1.907,1.459,4.488,2.922,6.192,1.1,1.282,3.254,1.659,4.939,2.439Q102.485,504.76,102.247,505.657Zm11.8-61.512c-4.179,11.03-7.488,19.765-10.983,28.993h20.949C120.74,463.606,117.77,454.966,114.051,444.145Z"/><path d="M853.169,506.174c1.524-2.329,1.952-3.5,2.333-3.49,12.054.486,11.386-7.566,11.2-15.908-.314-13.737-.086-27.487-.087-41.231,0-2.828,0-5.657,0-8.241-17.048-5.093-18.974,8.8-23.774,18.862l-1.912-1.277V432.347h62.321v22.191l-1.583,1.275c-5.014-9.77-7.12-23.45-24-18.577v29.511c0,8.194.375,16.41-.111,24.575-.421,7.092,1.439,11.3,9.356,10.9.811-.041,1.671.868,2.4,2.714C877.643,506.7,866.057,506.633,853.169,506.174Z"/><path d="M72.456,431.034v23.112l-1.895.727c-1.37-2.187-2.881-4.3-4.085-6.576-4.349-8.225-10.336-14.436-20.293-14.023-10.427.432-16.961,6.852-20.531,16.165-4.614,12.038-5.32,24.368.327,36.233,8.913,18.727,31.844,20.412,43.709,3.53a11.3,11.3,0,0,1,5.68-4.218c-3.6,12.377-11.941,19.79-24.3,21.655-13.788,2.081-25.729-2.126-34.27-13.624-10.059-13.54-9.544-35.129.844-49.133C27.781,431.213,44.17,426.83,61.693,432.4,64.666,433.346,68.492,431.609,72.456,431.034Z"/><path d="M444.552,505.571H410.167c1.243-1.722,1.822-3.155,2.328-3.13,9.523.477,9.874-5.249,10.1-12.776.3-9.919-1.628-18.609-7.335-26.754-3.618-5.165-5.994-11.207-9.667-16.326-3.494-4.87-7.949-9.052-12.224-13.805h30.633c-.355,1.058-.4,1.858-.686,1.95-9.908,3.257-9.929,3.257-4.7,12.592,3.827,6.83,7.709,13.63,12.22,21.6,5.249-9.127,9.845-17.04,14.363-25,4.136-7.283-3.167-7.63-6.431-11.322h24.677c-13.716,8.012-17.591,23.071-25.992,34.7-6.917,9.578-3.27,20.388-3.508,30.7-.028,1.229,3.158,2.8,5.088,3.727a31.417,31.417,0,0,0,5.877,1.59Q444.733,504.445,444.552,505.571Z"/><path d="M506.414,828.547c-2.738,0-7.372,0-12.011-.007,6.236-6.26,5.446-31.146-3.081-37.026,7.881,0,13.989-.785,19.76.274,3.894.714,9.022,3.26,10.434,6.406,1.264,2.817-1.8,7.577-3.167,12.187.842,1.826,2.356,5.047,3.813,8.293,1.378,3.07,2.7,6.167,4.257,9.746-5.74,1.326-9.173-1.029-10.108-7.93-1.252-9.24-2.34-9.845-13.22-7.952C504.205,817.9,505.308,823.221,506.414,828.547Zm-2.393-18.875c4.322-1.564,8.5-1.994,10.813-4.3,1.506-1.5,1.516-7.017.016-8.447-2.379-2.268-6.582-2.622-10.829-4.062Z"/><path d="M404.392,796.7c.475,5.017,1.126,11.889,1.757,18.55-7.346-1.309-8.463-2.8-6.915-10.345,1.857-9.057,1.183-10.053-8.621-12.081-1.06,5.458-7.875,10.439-.912,17.216L374.188,804.7c9.851-2.1,9.419-9.825,11.08-15.571,1.683-5.824,8.284-11.8.023-19.909,7.1,2.4,12.869,3.5,17.688,6.261,3.722,2.13,8.228,6.074,8.717,9.7C412.124,788.362,407.44,792.227,404.392,796.7Zm-13.4-5.357c5.5-.544,9.661.074,12.463-1.592,1.893-1.125,3.417-6.39,2.359-8.157-1.666-2.781-5.646-4.176-9.33-6.61Z"/><path d="M673.537,738.959l10.939-7.149c-1.518,15.028,12.3,22.177,16.062,36.238l-35.461-13.206c5.225,7.848,6.186,19.077,18.524,21.945l-12.015,7.838c4.579-9.389-1.1-14.294-4.873-19.327-3.529-4.7-3.886-13.516-14.317-11.459,4.643-5.52,8.763-7.3,14.875-4.566,7.823,3.5,15.993,6.22,24.737,9.552C685.865,744.588,682.165,740.543,673.537,738.959Z"/><path d="M659.181,780.771a17.559,17.559,0,0,1-17.524,17.67c-9.918.067-19.142-10.321-19.054-21.456a17.93,17.93,0,0,1,17.672-17.671C650.332,759.263,659.229,769.36,659.181,780.771Zm-2.936,3.678c-4.133-6.886-7.347-13.752-12.078-19.333-1.745-2.06-7.6-2.371-10.593-1.121-2.665,1.112-6.155,6.191-5.477,8.29a78.088,78.088,0,0,0,10.073,20.583c1.345,1.924,7.482,1.973,10.588.752C651.516,792.535,653.115,788.5,656.245,784.449Z"/><path d="M377.065,774.772c.141,11.437-8.466,21.256-18.813,21.465-9.8.2-17.975-7.521-18.084-17.065-.124-10.874,9.1-21.345,19.049-21.619A17.425,17.425,0,0,1,377.065,774.772Zm-3.323-2.282c-2.916-4.171-4.681-9.449-7.793-10.423-3.58-1.12-10.186.192-12.212,2.895-3.884,5.185-6.318,11.93-7.579,18.375-.509,2.6,3,7.555,5.846,8.81,2.814,1.242,8.517.444,10.436-1.706C366.811,785.544,369.641,779.271,373.742,772.49Z"/><path d="M486.865,807.714c-.06,11.7-7.381,19.993-17.77,20.12-10.613.13-18.059-7.606-17.986-18.689.077-11.916,7.9-20.378,18.608-20.128C479.969,789.256,486.921,796.836,486.865,807.714ZM456.934,810.4c.6,9.286,4.493,14.829,11.149,15.167,6.215.315,10.463-4.233,11.645-13.355.531-4.1,1.169-8.868-.412-12.348s-5.718-7.737-9.019-7.994c-3.264-.253-7.846,3.39-10.076,6.569S457.94,806.347,456.934,810.4Z"/><path d="M425.836,804.961c.559,5.818,1.019,10.609,1.5,15.652l-13.864-3.074c8.454-4.254,13.767-29.5,6.945-36.8,7.387,1.819,13.483,3.073,19.421,4.854,5.6,1.68,9.386,5.215,8.092,11.688-1.263,6.32-5.953,8.269-11.805,8.205C433.52,805.456,430.912,805.229,425.836,804.961Zm5.872-18.783c-.891,3.41-2.173,6.364-2.285,9.363-.088,2.353,1.262,6.787,1.985,6.789,3.03.011,7.152-.338,8.894-2.307C445.422,794.236,441.9,788.325,431.708,786.178Z"/><path d="M538.775,826.992l-6.138.556c3.791-13.306,7.526-26.417,11.857-41.623l21.441,37.166-9.841,1.336c-1.489-4.785-1.611-10.444-4.144-11.9-2.766-1.585-8.88-.537-11.442,1.729C538.4,816.123,539.36,821.448,538.775,826.992Zm11.9-18.343c-2.179-4.466-3.907-8.008-5.636-11.549l-1.537.424c-.71,3.89-1.421,7.779-2.3,12.577Z"/><path d="M595.356,815.93l-17.422,4.405c4.977-5.869,3.455-17.348-3.461-33.862-5.623.7-5.623.7-9.622,11.133-1.148-4.209-1.992-7.3-3.134-11.494l30.411-7.823c1.146,3.77,2.1,6.9,3.243,10.67l-12.956-7.4C580.8,795.149,587.5,813.612,595.356,815.93Z"/><path d="M332.136,773.714c-7.385,4.914-15.021,4.089-21.039-2.271-6.309-6.668-6.259-16.646.143-24.571,4.7-5.818,11.042-9.254,18.117-7.077,6.152,1.893,11.559,6.212,17.868,9.783l-6.513,9.875c-1.053-4.737-.8-9.578-3.087-12.206-2.269-2.606-7.241-4.4-10.777-4.048-8.052.8-15.324,11.894-14.372,20.185C313.45,771.86,318.648,774.591,332.136,773.714Z"/><path d="M625.421,805.978l-17.271,6.1c6.333-7.673-2.056-32.489-11.586-35.217l14.644-5.509c-6.055,7.132.282,12.808,2.265,18.281C615.565,795.41,614.362,803.965,625.421,805.978Z"/><path d="M233.2,575.1c3.485.877,6.258,2.517,8.487,1.966,7.837-1.939,8.085,2.146,7.524,7.319l-7.539-3.414,2.7,9.091L234.057,585.9l2.285-1.854C235.254,580.95,234.167,577.856,233.2,575.1Z"/><path d="M338.541,247.63v8.628l-8.167-4.084c10.036-8.818,10.036-8.818,14.74-.1Z"/><path d="M382.628,238.778q-.427,1.971-.856,3.94l-10.142-9.127,1.376-1.623C376.436,233.849,384.029,228.455,382.628,238.778Z"/></svg>