<svg id="Layer_1" data-name="Layer 1" xmlns="http://www.w3.org/2000/svg" viewBox="0 0 1000 1000"><path d="M500,0C223.86,0,0,223.86,0,500s223.86,500,500,500,500-223.86,500-500S776.14,0,500,0ZM742.24,546.65c-5.52,29.12-16.65,56.28-32.13,81.73a242.71,242.71,0,0,1-94.39,89.43c-36,19.32-74.73,28.55-115.49,29A169.11,169.11,0,0,1,472.42,745c-15.64-2.4-31.13-5.72-46.8-8.67-14.51,25.34-29.28,50.93-43.85,76.65-6.06,10.7-12,21.63-23.06,27.84-6.86,3.84-14.54,6.18-21.86,9.2h-15c-.51-.41-1-1.11-1.55-1.21-22.71-3.94-36.37-17.66-42.4-39.46-5-18.21,1.4-33.91,10.5-49.33,19.83-33.63,39.21-67.52,58.69-101.35,17.75-30.84,35.34-61.78,53.1-92.62,16.69-29,34.13-57.52,50.05-86.9,11.94-22,34.49-36.1,60.2-31.54,28.17,5,48.49,32.83,41.57,64.69-7.37,34-45.78,51.1-78.7,34.05l-53.62,93.53C439.7,652,461,659.12,483.63,661c24.89,2,49.62-.08,73.32-9.34,38.66-15.1,67.69-41,86.67-77.83,16.57-32.15,21.09-66.21,14.69-101.85-7.12-39.58-26.16-72.48-57.54-97.08C563,345.31,520.1,333,472.07,342.22c-44.6,8.56-81.12,30.34-105.25,69-25.14,40.33-48,82.06-71.9,123.19q-13.44,23.16-26.81,46.37l-2.16-.08c-3.23-15.3-6.7-30.56-9.59-45.93-1.49-8-2-16.1-2.91-24.16V490.13c.48-1.69,1.35-3.38,1.37-5.08.14-20.05,4.52-39.34,10.55-58.3,14.07-44.15,38-81.85,72.95-112.53a249.49,249.49,0,0,1,69.3-43c19.83-8.27,40.44-14,61.7-16.09,18-1.76,36.4-2.55,54.42-1.14,17,1.34,33.82,6.1,51.16,9.45-.21.18.25-.05.46-.42,15.78-27.64,32.1-55,47.16-83s49.13-38.16,75.7-23c22.31,12.72,33.63,44.33,21.71,67.08-15.73,30-32.88,59.29-49.88,88.63-2.61,4.5-1.85,6.49,1.4,9.61a236.51,236.51,0,0,1,47.76,64.53A249.61,249.61,0,0,1,746,483.8,247.06,247.06,0,0,1,742.24,546.65Z"/></svg>