<svg xmlns="http://www.w3.org/2000/svg" viewBox="0 0 1000 1000"><path d="M347.573,529.494c35.922,0,71.845-.093,107.767.036,20.322.073,22.244,2.168,22.6,22.651.687,40.159.418,39.537-35.981,55.273-51.469,22.249-102.363,45.823-153.738,68.294Q178.556,723.714,68.505,770.784c-18.131,7.757-32.3,3.81-41.34-9.479-9.253-13.6-7.972-27.138,6.427-41.733C92.518,659.843,151.972,600.635,211,541.006c9.456-9.552,20.654-11.551,33.173-11.487,34.466.176,68.933.061,103.4.061Z"/><path d="M648.881,529.8c36.4,0,72.843-.969,109.175.607,10.506.455,23.142,5.709,30.639,13.028C844.568,597.986,899.407,653.6,954.529,708.92a162.341,162.341,0,0,1,12.814,13.91c11.06,14.057,11.89,25.551,2.917,38.47s-21.763,16.406-35.824,11.325c-21.362-7.719-42.414-16.4-63.234-25.5q-91.685-40.077-183.066-80.846C636.9,643.486,585.9,620.179,534.571,597.6c-10.969-4.826-15.4-12.451-15.4-23.668-.009-48.983-2.208-44.231,40.892-44.414,29.607-.125,59.215-.024,88.822-.024Z"/><path d="M347.511,487.965c-34.933,0-69.869-.247-104.8.125-13.415.142-24.321-3.864-33.88-13.478-57.427-57.762-115.25-115.131-172.568-173-15.749-15.9-18.367-28.661-11-41.3,9.588-16.448,23.962-21.765,42.024-14.075,58.714,24.994,117.383,50.1,175.8,75.78,69.9,30.724,139.446,62.23,209.285,93.082,24.564,10.851,26.083,12.416,25.8,38.713-.373,34.1-.373,34.018-34.592,33.9-32.021-.11-64.043-.023-96.065-.023Z"/><path d="M649.033,487.871q-53.862.03-107.724,0c-18.459-.03-21.1-2.6-21.928-20.689-1.852-40.312-1.75-40.081,34.808-56.208C649.3,369.019,744.275,326.735,839.4,284.81q44.421-19.576,89.391-37.9c19-7.716,32.332-3.687,41.9,11,9.143,14.037,7.387,26.473-7.151,41.479q-41.992,43.341-84.659,86.028c-30.192,30.164-61.1,59.614-91.012,90.054-9.026,9.188-18.917,12.5-31.117,12.436C720.849,487.735,684.941,487.851,649.033,487.871Z"/></svg>