<svg xmlns="http://www.w3.org/2000/svg" viewBox="0 0 1000 1000"><path d="M977.775,765.012c-33.438,10.6-64.15,20.742-95.11,30.065C768.642,829.41,653.372,858.468,535.105,874c-69.026,9.064-138.281,14.356-207.471,1.653a279.464,279.464,0,0,1-47.544-13.309c-34.207-12.852-59.875-33.992-68.125-72.25-4.019-18.638-11.084-36.619-15.545-55.8,42.123,30.81,90.142,35.3,138.885,35.059,84.2-.424,166.363-16.372,247.946-35.441,108.739-25.417,215.235-58.475,320.527-95.52,6.89-2.424,13.892-4.528,23.321-7.584Z"/><path d="M796.583,268.9c-7.03,2.742-12.135,5.007-17.411,6.75-130.36,43.07-262.563,78.924-398.471,99.663-71.589,10.925-143.523,17.274-215.939,8.311-30.144-3.731-59.251-11.184-86.012-26.086C57.7,345.819,41.418,330.315,34.87,305.794c-5.816-21.781-13.337-43.108-18.823-65.959C42.234,257.99,70.8,267.18,101.474,271.149c45.541,5.893,90.941,3.688,136.17-2.1,140.557-17.984,276.233-56.23,410.471-100.206,31.836-10.43,63.49-21.414,98.2-33.147C763.09,180.155,779.605,223.914,796.583,268.9Z"/><path d="M107.513,486.394c65.587,45.314,135.921,39.5,205.537,31.864,118.135-12.964,232.4-44.142,345.821-78.5,8.106-2.456,16.249-4.789,26.69-7.86,16.371,44.79,32.474,88.846,49.2,134.608-7.329,2.284-13.066,4.278-18.914,5.862-109.484,29.664-219.967,54.334-333.4,62.628-52.883,3.866-105.942,4.575-157.946-8.619A253.921,253.921,0,0,1,181.15,611.1c-26.928-12.375-47.116-30.86-54.2-61.66C122.29,529.169,114.773,509.559,107.513,486.394Z"/></svg>