<svg id="Layer_1" data-name="Layer 1" xmlns="http://www.w3.org/2000/svg" viewBox="0 0 1000 1000"><path d="M500,0C223.86,0,0,223.86,0,500s223.86,500,500,500,500-223.86,500-500S776.14,0,500,0ZM197,459.33c28.6-45.42,59.9-89.61,94.28-130.78,46.14-55.27,95.54-107.91,145.28-160,16-16.75,36.28-30.37,56.67-41.67,34.59-19.16,65.78-7.69,83.05,27.62,15.58,31.84,19.6,66.57,22.57,101,3.57,41.61,4.31,83.47,6.17,125.23.16,3.47-.52,7-1,13.05-27.3-7.53-53.05-14.23-78.41-22.15-3.25-1-5.85-8.25-6.46-12.91-4-30.41-7-60.95-11.07-91.34-2.95-21.93-12.41-25.88-28.64-10.85-27.73,25.69-54.41,52.55-81.14,79.31-7,7-14.12,10.66-24.44,10.83-26.69.45-38.52,14.94-37.1,40.95.33,6-3.36,13.79-7.75,18.21-23.83,24-48.66,47-72.77,70.7-22.08,21.71-22.16,28.57,4.54,44C327.38,559.09,394.82,596.24,462,633.9c13.41,7.52,26.94,14.82,41.58,22.86-10.5,10.06-18,16.59-32.46,9C388,622,304.4,579.21,220.82,536.39,179.82,515.38,172.24,498.62,197,459.33ZM801.76,573c-20.3,29.11-49.36,48.6-78.29,67.76C655.19,686,586.45,730.5,518,775.46c-9.83,6.46-19,13.87-28.55,20.84l1.47,4.73,180.16-12,.66-5.8-73.6-49.86c12.43-14.91,17.35-16.19,32.69-7.45,25.14,14.31,50.53,28.25,75,43.7,27.53,17.41,27.47,41.61-2.21,54.34a666.4,666.4,0,0,1-104.82,34.54c-42.26,10.27-85.31,18.55-128.51,23.22a282.15,282.15,0,0,1-85.91-4c-35-7.22-46.71-33.73-34.33-67.45,11.78-32.1,36.41-54.49,61.33-76.08,51.38-44.53,110.18-78.24,167.76-113.76,30.65-18.91,61.13-38.27,90.43-59.19,27.17-19.4,26.86-28.88-3.17-43.53-53.55-26.12-108.06-50.33-162.64-74.27-35.44-15.55-71.69-29.24-107.61-43.69-4.32-1.74-8.83-3-16.28-5.55,2,7.47,2.62,12.17,4.47,16.33,26.58,59.66,63.93,112,110.5,157.44,7.2,7,20.45,14.28,28.71,12.29,12.76-3.05,9-18.52,8.86-29.16-.43-24.45-2-48.88-3-73.31-.18-4.34,0-8.69,0-16.1,15.27,6.42,28.73,11.67,41.83,17.67,39.35,18,31.87,6.32,26.52,49A287.36,287.36,0,0,1,585.76,583c-13.31,40-42.23,50-78.56,28.57-29.79-17.6-51.92-43.66-71.77-70.85-27.49-37.65-52.5-77.14-77.53-116.51-6.53-10.27-10.44-22.68-13.42-34.63-5.3-21.32,5.25-36,27.34-35.43a468.52,468.52,0,0,1,72.73,7.77C548.61,381.07,649.21,412.2,746.77,453c14.56,6.09,28.21,15.32,40.81,25C821.19,503.84,826.12,538.1,801.76,573Z"/></svg>