<svg xmlns="http://www.w3.org/2000/svg" viewBox="0 0 1000 1000"><path d="M.832,516.552v-32.44c.241-1.347.6-2.684.706-4.04.907-11.737,1.494-23.506,2.694-35.212a458.566,458.566,0,0,1,23.62-105.939q61.225-173.793,219.608-268.4c65.076-38.784,135.8-60.586,211.26-66.972a499.224,499.224,0,0,1,96.781,1.4,483.1,483.1,0,0,1,104.075,22.94Q804.755,77.567,897.883,199.546c59.586,78.376,92.621,167.054,99.961,265.17a491.646,491.646,0,0,1-3.762,106.569C987.311,618.6,974.3,664.1,954.162,707.434Q882.15,862.386,731.011,942.549c-53.2,28.192-109.913,45.5-169.635,52.865A501.662,501.662,0,0,1,458.8,997.38,499.633,499.633,0,0,1,44.644,704.594,487.732,487.732,0,0,1,2.389,536.343C1.936,529.742,1.355,523.149.832,516.552Zm510.805-92.335c-2.2-2.032-4.3-4.033-6.466-5.951-26.395-23.375-75.078-29.933-110.867-9.58-19.953,11.346-35.46,26.458-42.785,48.771-3.159,9.62-3.135,19.538-3.035,29.567.291,29.241-.025,58.488.242,87.729.1,11.191,5.993,19.177,16.262,23.463a26.135,26.135,0,0,0,36.34-24.11c.156-29.521.016-59.043.065-88.564.023-13.411,5.827-23.811,17.953-29.476a72.186,72.186,0,0,1,22.151-6.3c24-2.675,43.119,15.043,43.126,39.129.008,27.859-.088,55.717.04,83.575.08,17.5,14.17,29.725,31.223,27.395a26.709,26.709,0,0,0,22.772-26.643c.083-29.244-.037-58.488.061-87.732.051-15.29,8.026-27,22.209-32.451,14.8-5.686,29.38-4.506,43.414,2.669a30.344,30.344,0,0,1,16.2,20.569,49.667,49.667,0,0,1,1.287,11.5c.105,28.412-.038,56.826.094,85.238C622.01,592.9,641.3,605.928,658.961,598c11.23-5.039,16.006-14.315,16-26.364-.023-27.859.072-55.717-.069-83.575a94.771,94.771,0,0,0-1.422-17.746c-5.364-27.243-19-48.945-44.139-62.047-20-10.425-41.471-13.411-63.778-10.36-16.2,2.216-31.218,7.5-44.168,17.778C518.036,418.343,514.94,421.312,511.637,424.217ZM286.364,448.792v4.452q0,19.548,0,39.094c0,27.034-.058,54.067.034,81.1a26.469,26.469,0,0,0,46.67,17.463c4.987-5.811,6.372-12.7,6.366-20.122q-.06-72.366-.033-144.731a52.238,52.238,0,0,0-.276-5.394c-1.387-13.281-11.3-22.839-24.549-24a222.487,222.487,0,0,0-45.665.727c-29.121,3.444-56.591,12.011-82.039,26.575C131.3,455.764,99.25,505.259,81.858,565.317c-5.338,18.432,4.53,31.766,23.689,33.788,5.064.534,10.23.112,15.35.112q60.562,0,121.126-.007c2.357,0,4.722-.023,7.069-.212,12.208-.981,22.811-12.1,23.256-24.311.588-16.123-10.9-28.228-27.067-28.265-31.773-.072-63.546-.022-95.319-.023h-4.481C162.317,494.933,230.236,447.912,286.364,448.792Zm510.083-57.818c-6.773.767-13.566,1.183-20.228,2.348-59.886,10.469-100.305,70.34-87.49,129.422,15.117,69.695,89.156,106.837,153.818,76.981,22.68-10.472,39.577-27.208,50.929-49.443,4.916-9.63,4.3-19.165-2.156-27.8-6.435-8.6-15.377-12.006-26.024-10.165-8.992,1.554-14.984,7.062-19.331,14.911-10.1,18.235-25.732,28.612-46.482,29.821-36.266,2.114-63.9-28.048-59.427-64.1,2.928-23.592,22.425-44.018,45.629-47.8,26.351-4.3,50.9,7.731,61.868,30.271a36.218,36.218,0,0,0,3.335,5.732,26.36,26.36,0,0,0,34.584,6.964,25.939,25.939,0,0,0,10.474-33.945C875.882,412.7,841.269,393.928,796.447,390.974Zm106.2,212.218a17.281,17.281,0,0,0,17.226-16.734c.151-9.3-7.769-17.088-17.309-17.014a16.965,16.965,0,0,0-16.895,16.941A16.762,16.762,0,0,0,902.644,603.192Z"/><path d="M916.705,586.188c-.088,8.148-5.821,13.8-14,13.8a13.906,13.906,0,0,1-14.2-13.8,14.4,14.4,0,0,1,14.184-14A14.028,14.028,0,0,1,916.705,586.188Zm-17,2.4,1.74-.934c1.4,2.11,2.959,4.139,4.174,6.354,1.191,2.172,2.426,3.517,5.218,1.9l-4.79-8.37c2.986-2.538,4.517-5.446,2.28-9.119-1.355-2.224-8.529-3.739-11.177-2.342a3.033,3.033,0,0,0-1.247,2.26c-.109,5.4-.147,10.8.029,16.2.028.846,1.263,1.652,1.939,2.476.612-.893,1.608-1.729,1.752-2.692A39.149,39.149,0,0,0,899.71,588.587Z"/><path d="M901.7,578c1.272,1.287,3.585,2.561,3.6,3.865.039,2.856-2.313,3.622-5.22,3.205V579Z"/></svg>