<svg xmlns="http://www.w3.org/2000/svg" viewBox="0 0 1000 1000"><path d="M19.131,367.687c8.186,0,15.354-.03,22.522.017,2.347.016,4.693.235,7.925.409.109,12.074.026,23.761.041,35.446.015,11.424,0,22.849,0,35.39,3.087-1.041,5.091-1.453,6.848-2.35a71.6,71.6,0,0,1,40.268-7.637c10.307,1.025,19.971,4.456,29.405,9.3,16.391,8.412,25.5,22.1,30.866,38.773,4.96,15.41,4.617,31.162-1.664,46.01-6.909,16.332-18.117,28.655-34.972,36.418-14.649,6.747-29.593,6.988-44.5,5.285-9.673-1.105-18.9-5.824-27.361-11.722-12.092-8.432-20.524-19.26-24.789-33.146-2.714-8.839-4.644-17.929-4.625-27.337q.12-57.378.035-114.757ZM89.222,457.1c-4.434.662-9.1.653-13.255,2.117-10.418,3.672-18.285,10.089-22.827,20.85-1.64,3.886-1.825,7.68-2.633,11.447-2.483,11.573.4,22.4,7.588,31.508,10.459,13.253,27.629,17.8,43.814,12.158,23.441-8.175,29.65-28.509,25.582-47.9C124.149,471.348,110.359,456.264,89.222,457.1Z"/><path d="M667.175,561.868H639.89c-.649-2.89-1.263-5.621-2.053-9.139-2.24,1.26-4.055,2.1-5.675,3.223-9.23,6.387-19.4,8.972-30.639,9.611-17.085.972-32.042-4.489-45.987-13.255-8.486-5.334-14.274-13.653-18.926-22.356-5.049-9.45-6.889-20.053-8.14-30.6-.422-3.559,1-7.3,1.281-10.986.819-10.854,4.081-21.285,10.532-29.611,7.015-9.057,14.44-18.187,26.325-22.431,6.728-2.4,13.215-5.239,20.327-6.456,21.152-3.618,40.188,1.337,57.066,14.311,11.555,8.882,18.328,21.206,23.192,34.671a14.147,14.147,0,0,1,.729,4.694q.09,37.721.053,75.442A13.728,13.728,0,0,1,667.175,561.868Zm-68.633-104.6c-4.214.469-8.667.23-12.592,1.555a35.185,35.185,0,0,0-19.539,15.722c-2.146,3.643-5.135,7.342-5.627,11.28-.8,6.414-2.161,12.812-.646,19.628,2,8.981,5.869,16.749,12.4,22.71,12.4,11.307,31.828,13.047,46.176,4.72,13.057-7.577,19.534-19.737,20.043-34.2.849-23.976-19.157-43.446-40.215-41.417Z"/><path d="M905.551,565.785c-35-.664-55.52-14.981-68.608-40.438a51.475,51.475,0,0,1-4.855-17.563c-1.617-14.508-.4-29.019,6.539-42.042,6.575-12.345,15.879-22.49,28.85-28.918,12.22-6.055,24.98-8.97,38.517-7.989,17.445,1.263,33.314,6.954,45.665,19.659a69.823,69.823,0,0,1,17.256,30.066c6.439,22.409,1.418,42.251-11.1,60.589a55.237,55.237,0,0,1-22.6,18.716C923.966,563.1,912.4,566.476,905.551,565.785Zm-3.613-108.108c-24.652-2.177-39.954,20.266-39.9,40.075.057,21.741,16.954,40.9,40.377,39.99,22.3-.868,37.778-16,38.565-40.3.666-20.631-16.9-42.233-39.042-39.765Z"/><path d="M229.316,494.391c-1.551-12.251,4.046-25.407,12.038-37.516,7.361-11.154,18.243-18.4,30.61-23.19,10.543-4.083,21.659-6.016,32.863-4.745,14.965,1.7,28.663,6.5,40.626,16.622a63.8,63.8,0,0,1,21.218,34.518c1.332,5.363,1.828,10.945,2.545,16.448,1.1,8.468-1.88,16.43-4.417,24.088-4.987,15.054-14.3,27.187-28.452,35.125-10.059,5.644-20.607,9.6-32.331,9.627-2.673.006-5.346-.04-8.018.013-16.413.326-30.292-5.855-43.122-15.73-10.382-7.992-16.092-18.481-20.605-30.438C229.5,511.858,229.666,504.661,229.316,494.391Zm68.6-36.765c-4.431.709-9.373.086-14.715,2.5-22.869,10.333-26.881,31.779-21.335,52.2,1.738,6.4,6.478,10.841,10.993,15.453,6.962,7.111,15.634,9.421,25.111,10.257,5.026.444,9.27-1.765,13.868-2.93a30.551,30.551,0,0,0,19.349-14.2c5.968-9.775,8.651-20.132,6.116-31.754-2.915-13.362-9.715-22.871-22.518-28.7-5.491-2.5-10.659-2.577-16.874-2.826Z"/><path d="M812.5,518.987c0,12.036.058,24.072-.025,36.108-.043,6.282-.681,6.9-6.848,7-6.15.1-12.3,0-18.455.03-3.256.018-5.012-1.47-5.07-4.781-.032-1.872-.028-3.745-.028-5.617q0-31.7.018-63.39c.007-6.506-1.169-12.713-4.486-18.385-4.488-7.673-10.88-12.278-20.085-12.247a83.744,83.744,0,0,1-8.822-.057c-7.548-.779-13.708,2.6-18.846,7.227a24.039,24.039,0,0,0-6.879,11.364c-1.536,6.1-1.857,12.615-1.933,18.962-.229,18.988-.086,37.98-.091,56.97,0,1.872.055,3.748-.043,5.615-.128,2.452-1.394,4.172-3.921,4.211q-11.228.174-22.46.013c-2.528-.032-3.837-1.671-3.963-4.148-.1-1.868-.056-3.743-.057-5.615,0-18.991-.316-37.989.14-56.968a130.776,130.776,0,0,1,3.119-25.987c4.924-21.425,22.392-35.953,43.549-38.885,3.408-.473,6.783-1.4,10.2-1.561,13.518-.627,26.467,1.948,38.347,8.468a45.342,45.342,0,0,1,19.865,21.313c4.725,10.457,7.447,21.383,6.866,33.083C812.136,500.781,812.5,509.893,812.5,518.987Z"/><path d="M508.581,562.091c-10.247.036-19.5.1-28.616-.036,0-20.841.139-40.53-.072-60.216a185.349,185.349,0,0,0-1.579-22.245c-1.669-12.623-12.626-21.774-25.56-21.906q-4.011-.042-8.023,0c-14.783.165-25.639,10.925-25.721,25.8-.125,22.732-.058,45.465-.075,68.2,0,1.872-.016,3.744-.027,5.616-.017,2.844-1.362,4.7-4.263,4.747-7.219.12-14.441.093-21.661.031-2.89-.025-4.364-1.689-4.473-4.554-.04-1.068-.026-2.139-.026-3.209.014-24.07.1-48.14.024-72.209-.074-22.916,17.329-42.411,35.1-48.805a72.676,72.676,0,0,1,50.7-.046q24.843,8.9,31.985,34.695A71.843,71.843,0,0,1,509.05,487.6c-.094,22.2-.022,44.4-.05,66.593C509,556.539,508.758,558.885,508.581,562.091Z"/><path d="M182.911,432.03c6.429,0,13.093-.116,19.752.038,4.967.115,5.933,1.1,5.975,6.328.11,13.886.047,27.773.047,41.66v70.5c0,1.6.042,3.206-.013,4.807-.2,5.793-.878,6.613-6.36,6.73-5.872.126-11.749.009-17.624.017-3.286,0-4.923-1.615-4.934-4.893,0-1.335-.018-2.671-.018-4.006q0-55.28.01-110.56C179.741,439.209,179.258,435.648,182.911,432.03Z"/><path d="M747.3,623.093c-1.677,2.309-3,4.166-4.36,5.992-1.264,1.7-2.571,3.361-3.739,4.883-8.81,2.307-8.988-6.951-14.143-10.271-2.666,7.084,1.7,15.05-3.195,21.3-8.844,1.262-10.4.15-10.506-8.026-.132-10.407-.035-20.817-.022-31.225a13.19,13.19,0,0,1,.178-3.187c1.739-6.859,6.393-8.626,11.656-3.942,2.876,2.56,4.883,6.138,7.1,9.379,1.9,2.776,3.548,5.727,5.9,9.574,2.9-4.243,5.163-7.455,7.323-10.731,1.023-1.551,1.636-3.415,2.819-4.811,6.722-7.928,14.186-6.513,14.432-1.574,1.722,25.143.964,39.043-2.618,45.036h-6.95C745.534,638.994,750.009,630.927,747.3,623.093Z"/><path d="M433.322,605.225c-3.837,7.652-5.212,8.133-12.371,4.713-6.66-3.181-14.441-1.334-18.242,4.752a12.9,12.9,0,0,0-.315,13.018c1.921,3.534,4.937,7.192,10.119,6.675,2.377-.237,4.832-.088,7.12-.651.911-.224,1.833-1.832,2.039-2.941.117-.637-1.054-1.792-1.9-2.25a10.625,10.625,0,0,0-3.1-.555c-5.613-1.014-6.77-2.906-4.857-8.121a21.591,21.591,0,0,1,1.957-3.2c4.1,0,8.355-.163,12.588.042,5.056.245,5.772,1.416,7.512,6.388,1.7,4.865,1.237,9.462-.354,14.062a10.653,10.653,0,0,1-2.91,4.316,18.474,18.474,0,0,1-11.753,4.314c-2.4.11-4.821-.046-7.226.059-16.407.721-27.954-14.691-23.5-30.486,2.737-9.693,8.882-15.643,17.686-19.054C415.018,592.745,426.1,596.559,433.322,605.225Z"/><path d="M559.029,620.112c-.621,7.35-1.121,13.69-1.705,20.023-.4,4.336-2.006,5.77-6.074,5.644-3.659-.115-5.3-1.46-5.348-5.463-.155-12.565-.044-25.134-.074-37.7a6.5,6.5,0,0,1,4.245-6.224c2.735-1.231,5.288-.427,7.178,1.886,5.214,6.382,10.363,12.817,15.532,19.235,1.094,1.36,2.163,2.74,3.735,4.734,0-6.236.084-11.455-.033-16.669-.063-2.838.53-5.221,2.809-7.133,1.659-1.393,3.385-3.459,5.511-2.141,1.858,1.152,3.244,3.312,4.376,5.292.582,1.019.181,2.615.182,3.951.008,10.161-.03,20.322.027,30.483.018,3.259,0,6.436-2.834,9.153-5.368,1.8-9.045-.02-12.337-5.121C569.924,633.4,564.641,627.384,559.029,620.112Z"/><path d="M649.455,645.837c-15.5,2.218-26.109-12.308-25.909-25.116.208-13.379,13.835-25.826,27.147-25.05,14.069.819,25.439,11.466,25.447,25.375C676.149,636.592,666.158,645.873,649.455,645.837Zm1.425-37.174c-7.773-.145-13.19,4.829-13.436,12.34-.25,7.606,5.121,13.327,12.65,13.358,7.491.03,11.987-3.574,12.958-12.986.706-6.829-5.13-12.581-12.172-12.712Z"/><path d="M484.04,608.8c-1.145,4.214.291,6.031,3.575,6.262,3.193.225,6.437-.165,9.613.155a65.219,65.219,0,0,1,7.965,1.733c.668,8.935.335,9.36-7.1,9.52-3.474.075-6.951-.014-10.425.058-2.476.051-4.151,1.291-4.183,3.863-.033,2.588,1.652,3.867,4.1,3.933,4.008.107,8.022.139,12.029.037,3.29-.084,6.384.213,8.822,2.566.678,8.086.23,8.7-7.068,8.788q-11.226.127-22.456-.014c-5.385-.075-8.139-2.156-8.3-7.5-.354-11.485-.235-22.99-.03-34.482.069-3.876,2.695-6.2,6.832-6.286,8.551-.187,17.109-.067,25.664-.065,2.9,0,5.363.67,5.819,4.12a6.289,6.289,0,0,1-5.156,7,49.312,49.312,0,0,1-7.2.181C492.335,608.712,488.132,608.754,484.04,608.8Z"/><path d="M953.08,633.859c1.384-2.961.326-4.663-2.013-5.426-2.762-.9-5.863-.966-8.432-2.2-3.751-1.8-7.651-3.8-10.6-6.635-4.563-4.391-2.8-14.906,2.448-19.466,5.6-4.865,12.246-5.586,18.715-3.554,5,1.572,14.813,6.291,12.753,10.053-.438.553-1.221,1.566-2.032,2.557-2.16,2.639-4.532,3.107-7.757,1.543a28.4,28.4,0,0,0-9.058-2.714c-2.4-.269-4.744.9-4.041,4.412,5.64,2.16,11.266,4.3,16.876,6.472,4.842,1.879,6.708,5.613,6.908,10.636.439,11.016-4.324,16.19-15.519,16.244-5.286.025-10.792.987-15.688-1.815-2.458-1.407-5.06-3.072-6.695-5.286-2.375-3.217-.25-7.271,3.795-7.516a12.188,12.188,0,0,1,6.829,1.3C944.115,635.306,948.605,634.542,953.08,633.859Z"/><path d="M894.159,636.4c-4.486,7.38-10.81,10.262-19.089,9.479-4.47-.423-9.039.478-13.269-2.011-7.612-4.479-12.645-10.47-12.351-19.786.125-3.978-.305-8.2.879-11.879,4.887-15.175,25.646-21.174,38.592-12.707a12.624,12.624,0,0,1,1.851,1.522c2.4,2.323,3,6.193,1.4,8.746-1.3,2.081-5.362,3.512-7.895,1.6-4.889-3.7-17.837-2.7-20.277,3.736-2.935,5.154-2.153,11,1.817,15.552,3.394,3.895,8.258,4.983,13.876,3.056,2.494-.855,4.9-2.119,7.456-2.6C890.785,630.413,893.367,631.933,894.159,636.4Z"/><path d="M210.312,383.435c.008,10.187-5.761,16.49-15.154,16.556-10.662.075-17.24-6.25-17.136-16.479a15.945,15.945,0,0,1,16.063-15.825l.237,0C203.961,367.717,210.3,373.962,210.312,383.435Z"/><path d="M812.569,621.1c0,5.6.235,11.211-.119,16.786a10.539,10.539,0,0,1-2.567,6.277c-3.38,3.452-8.691,1.735-9.854-2.937a20.13,20.13,0,0,1-.289-4.765q-.033-15.594-.011-31.189c0-.533-.022-1.068.006-1.6.257-4.8,2.62-7.727,6.218-7.726,3.247,0,6.474,3.5,6.579,7.559C812.683,609.365,812.57,615.233,812.569,621.1Z"/></svg>