<svg id="Layer_1" data-name="Layer 1" xmlns="http://www.w3.org/2000/svg" viewBox="0 0 1000 1000"><path d="M500,0C223.86,0,0,223.86,0,500s223.86,500,500,500,500-223.86,500-500S776.14,0,500,0ZM602.75,493.91c-73,31.66-146.1,63.31-220,95-30,13-60.06,26.78-90.91,39-34.9,13.8-70.61,19.48-106.33,6.49-17.85-6.49-34.09-17-45.45-32.46-14.61-20.3-13.8-43-8.93-66.56,5.68-28.41,18.67-55.19,34.9-79.54,17.86-27.6,38.15-53.57,57.63-80.36a4.48,4.48,0,0,1,4.06-2.44c-3.25,7.31-6.49,15.43-8.93,22.73-6.49,17.86-10.55,34.9-8.93,53.57,2.44,34.9,23.54,60.07,57.63,67.37,21.11,4.87,42.21,3.25,62.5-2.43,172.08-46.27,274.35-74.68,581.16-155.85a3,3,0,0,0,.81,2.44c-6.49,2.43-12.18,4.87-17.86,7.3C796.74,410.31,700.15,452.52,602.75,493.91Z"/></svg>