<svg id="Layer_1" data-name="Layer 1" xmlns="http://www.w3.org/2000/svg" viewBox="0 0 1000 1000"><path d="M523.31,730.53a28.46,28.46,0,0,0,40.11,3.29l.26-.22c1.31-1.13,2.75-2.11,4.66-3.57v32.59c-10.51,6.41-22,7.47-33.79,6.22-14-1.49-25.39-7.66-33.44-20.32a44.32,44.32,0,0,1-31.18,19.9c-12.82,1.94-25.24,1-36.62-5.69-.91-10.79-.53-28.61.68-31.93,1.43,1.2,2.79,2.43,4.22,3.55a28.14,28.14,0,0,0,26.92,4.87c15.08-4.64,23.41-20.39,19.46-36.36-3.29-13.32-13.31-21.77-26.36-21.81a37.37,37.37,0,0,0-30,13.54A53.28,53.28,0,0,0,418.11,714c-13.29,44.38,15.06,92.1,60.42,101.69a27.8,27.8,0,0,0,3.42.24V796a52.92,52.92,0,0,1,37.55,0v20A45.67,45.67,0,0,0,536,811.48a86.24,86.24,0,0,0,46.58-51.67,73.58,73.58,0,0,0-2.13-54.7c-6.51-15.24-18.46-23.24-35-24.05a26.25,26.25,0,0,0-20.49,7.62A31.06,31.06,0,0,0,523.31,730.53Z"/><path d="M778.86,563.46a60.71,60.71,0,0,0-41-17.39,38,38,0,0,0-25.73,8c-11.22,8.83-18.47,29.17-1,44.39a38.21,38.21,0,0,0,10.14,6.28c21.63,9.1,42.06-11.28,39.69-28.3a26,26,0,0,1,0-3.53,5.37,5.37,0,0,1,1.62.46c7.19,5.7,14.32,11.49,21.57,17.11,2,1.58,1.81,3.28,1.28,5.32a57.31,57.31,0,0,1-18,29.47,43.62,43.62,0,0,1-30.15,11.51,25.31,25.31,0,0,0-3.13.3c.53,4.42,1.31,8.53,1.45,12.65.65,17.58-14.19,38.67-31.46,46.63a4.31,4.31,0,0,1-5-.85c-4.72-3.72-9.5-7.35-14.25-11-2.62-2-5.21-4.08-8.4-6.57h0c2.9-.79,5.13-1.32,7.3-2,15.49-4.87,22.91-18,21.46-31.6a30.22,30.22,0,0,0-26.5-26.64,29.24,29.24,0,0,0-32,19.37,37.12,37.12,0,0,0,1.13,28.75,74.82,74.82,0,0,0,37.73,39.09c15.4,7.39,31.69,8.86,48.41,6.55a75.73,75.73,0,0,0,36.2-14.8c1.37-1.06,2.61-2.28,4.18-3.67l-16.16-12.6c4-12.68,10.47-23,22.79-28.73l16.17,12.34a72.42,72.42,0,0,0,9.77-31.32C808.06,605.34,798.43,582.27,778.86,563.46Z"/><path d="M335,618.73a30.61,30.61,0,0,0-38.17,18.8,29.9,29.9,0,0,0,18.56,38l.58.2c2.17.73,4.41,1.24,7.19,2-1.34,1.24-2.2,2.17-3.19,2.94-5.93,4.61-12.05,9-17.77,13.84-3.11,2.64-5.62,2.49-8.92.55a59.73,59.73,0,0,1-26.53-31.48,34.92,34.92,0,0,1-.76-23.07c.32-1.07.52-2.17.91-3.8-13.73,1.83-24.88-3.14-34.49-11.88A59,59,0,0,1,214,592.55c5.58-5.45,22.12-17.94,25.64-19.34,0,1.21.06,2.36,0,3.5-.86,12.61,8.18,24.67,20.6,28.87,16.17,5.46,35.87-6.39,38.58-23.13a30.73,30.73,0,0,0-22-34.8c-11-3.23-21.91-1.68-32.39,2.32-44.34,16.94-62.9,71.57-42.85,112.26a9.63,9.63,0,0,0,1.38,1.61l16.09-12.23a43.74,43.74,0,0,1,22.76,28.69l-15.9,12.5a9.83,9.83,0,0,0,1.18,1.48,54.72,54.72,0,0,0,4.35,3.36c25.13,16.3,51.81,19.5,79.69,8.41a72.75,72.75,0,0,0,39.15-35.55c4.47-8.83,6.7-18.19,4.66-28.09C352.62,631,346.37,622.54,335,618.73Z"/><path d="M500,0C223.86,0,0,223.86,0,500s223.86,500,500,500,500-223.86,500-500S776.14,0,500,0ZM833.72,692.51c3.86,3,4.12,3.46,2.61,8a34.37,34.37,0,0,1-21.68,22.16l-15.6-12.4c-1.29,1-2.47,1.88-3.57,2.84a112.82,112.82,0,0,1-83,28.61,107.13,107.13,0,0,1-98.89-85.58C608.2,629.64,612,604.36,623.2,580c.83-1.8,1.65-3.62,2.61-5.73L617,566l-15.39,20.4c-11.28-.57-20.68-8.65-23.69-20.39l14.85-17.79c-2.41-3.49-68.66-58.41-72.93-60.44V583.1c1.82.16,3.43.38,5.05.43,5.35.15,10.69.34,16,.29a5.21,5.21,0,0,1,5.18,3.08,22.29,22.29,0,0,1,2.53,16.88c-1,3.5-2.28,6.89-3.52,10.6H519.83v11.79c3.77.9,7.36,1.61,10.86,2.63,36.94,10.68,65,32.48,79.17,68.55,16.32,41.49,7.42,79.42-21.86,112.43-17.26,19.46-39.45,31-64.92,36.14-1,.2-1.91.46-3.57.87q0,6.12,0,12.29c0,7.62-.08,7.41-7.3,10.11-9.71,3.62-21,1.53-30.17-3.71V847c-1.34-.42-2.38-.85-3.47-1.09-40.29-8.87-69.75-31.38-85.33-69.91-22.5-55.66,4.56-117.88,60.89-141,7.8-3.21,16.24-4.9,24.38-7.28.95-.28,1.9-.53,3.16-.87V614.76c-1.46-.15-2.73-.39-4-.4-5.85,0-11.7-.15-17.53,0a4.91,4.91,0,0,1-5.3-3.51,30.24,30.24,0,0,1-.23-23.84,5.16,5.16,0,0,1,5.66-3.73c5.33.22,10.68.06,16,.06H481c1.18-4,1.55-87.8.57-95.28a1.54,1.54,0,0,0-.42-.28.6.6,0,0,0-.47,0l-70.62,57.56c-.75.61-1.41,1.32-2.46,2.31,4.31,4.92,8.46,9.66,12.62,14.39,4,4.55,4,4.56,1,9.9a29.32,29.32,0,0,1-18.57,14.19,4.07,4.07,0,0,1-5.07-1.82c-3.4-4.75-7-9.39-10.48-14-1-1.3-2.07-2.54-3.39-4.14l-9.56,7.95,2.62,5c23,44.09,15.43,102.25-24.63,136.63-23.94,20.55-51.94,28.65-83.25,25.32a109.27,109.27,0,0,1-64-29c-.5-.44-1-.86-1.57-1.25a7.79,7.79,0,0,0-1.14-.42c-3.61,2.77-7.54,5.78-11.46,8.81-5.08,3.91-5.12,4-10.48.56a39,39,0,0,1-15.34-18.62,46,46,0,0,0-2.31-4.33v-2c6.49-2.78,10.93-8.14,16.34-12.27a134.72,134.72,0,0,1-14.68-46.26,21.09,21.09,0,0,0-1.66-4.56v-17a44.52,44.52,0,0,0,1.89-6.61,110.9,110.9,0,0,1,13.83-40.94,107.15,107.15,0,0,1,108.27-53.29,121.52,121.52,0,0,1,60.37,27.26l4.35,3.52,8.68-6.59c-.91-1.33-1.61-2.45-2.41-3.49-3.46-4.49-6.78-9.12-10.5-13.39a5.56,5.56,0,0,1-.5-7.59,30.66,30.66,0,0,1,22.36-14.82L384.54,518l87-69.89L380.1,372.31l-13.48,17.21,17.75,14.12c-2.51,3.21-4.63,6-6.81,8.72s-4.31,5.32-6.52,8.05l-17.73-13.94-13.38,15.62,16.93,14.3-13.18,17.52-48.77-39.86,46-25.28-13.49-11.21-42,22.71c.8-2.88,1.23-4.61,1.74-6.31q5.49-17.94,11-35.87c.56-1.79,1.28-3.42-.62-4.95-3.75-3-7.4-6.14-11.78-9.79-5.32,17.09-10.42,33.46-15.7,50.38l-49.45-39.85,13.16-16.09L251,351.72l14.11-16.32-17.69-15.74,13.16-15.3,17.87,13.27L291.11,302l-38.59-30.48a53.16,53.16,0,0,1,23.66-30.22L479.87,407.32a2.67,2.67,0,0,0,.89.41.76.76,0,0,0,.47,0,1.82,1.82,0,0,0,.43-.24c1-9.75.54-106.71-.55-110.43H460.86v20.76H440.13V297H418.86c-.58,7.14.17,14.1-.48,21.21-3.94,0-7.26,0-10.59,0s-6.85-.12-10.22-.19V255.51c8.49,3.59,16.42,7,24.4,10.3s15.62,7,24.11,9.89V258.08l-44.75-18.5,44.87-17.74c-.11-5.77.49-11.16-.44-17l-48.19,18.83V160.56h21.1v22.33h21.72v-22.3h20.66V183H482V132.77c2.4-.72,4.28-1.32,6.18-1.85,2.36-.67,4.73-1.28,7.1-1.92h11c2.53.67,5.08,1.32,7.6,2,1.74.49,3.45,1.09,5.57,1.77V407.3a4.71,4.71,0,0,0,.93.52.67.67,0,0,0,.48-.1L725.37,241.34A59.63,59.63,0,0,1,749,271.48l-39.27,30.43c4.4,5.39,8.86,10.43,13.4,15.68L741,304.39l13.17,15.33-17.77,15.65,13.44,16.4,17.88-14,13.2,16.14-49.5,39.87-15.66-50.41c-4.5,3.78-8.52,6.93-12.21,10.42-.73.69-.62,2.79-.24,4.05,3.28,11,6.71,22,10.07,33,.82,2.67,1.55,5.37,2.66,9.2-14.69-7.4-28-15.21-41.94-22.43l-14.18,11.16,45.88,24.84c-2,3-43,36.39-49,39.92L643.9,436.4l17.66-14.32-13.4-15.59-17.83,14-13.21-16.84,17.76-14.14L621.44,372.3l-91.51,75.83,87.44,70.24A36.08,36.08,0,0,1,619.5,515c3.73-4.71,7.6-9.32,11.27-14.08a4.34,4.34,0,0,1,5.18-1.66c9.4,2.26,15.16,8.61,19.35,16.8a3.38,3.38,0,0,1-.88,4.06q-4.93,6-9.77,12.06c-1.25,1.55-2.45,3.15-3.92,5.05l9.46,7.42c1.43-1.13,2.84-2.21,4.21-3.33,16.73-13.63,35.39-23.39,56.86-26.75,39.38-6.17,72.75,5.73,99,35.57,30.9,35.16,35.83,87.75,13.06,128.68-.64,1.16-1.27,2.33-2.16,4Z"/></svg>