<svg xmlns="http://www.w3.org/2000/svg" viewBox="0 0 1000 1000"><path d="M10.666,516.959c1.5-12.846,2.107-25.873,4.657-38.508,14.5-71.85,73.612-128.923,146.283-141.876C256.562,319.65,347.043,376.9,372.165,469.89a172.308,172.308,0,0,1,6.073,47.913,23.472,23.472,0,0,1-3.386.517c-25.06-.04-50.123.074-75.18-.25-14.871-.193-20.1-4.4-24.127-18.63-6.609-23.325-19.6-41.768-41.115-53.54a82.7,82.7,0,0,0-117.364,43.875c-1.31,3.506-2.414,7.093-3.51,10.674-3.943,12.893-9.414,17.416-23.055,17.584-25.527.313-51.059.233-76.589.288a23.885,23.885,0,0,1-3.246-.424Z"/><path d="M289.458,675.1a42.993,42.993,0,0,0-3.55-4.7q-37.833-37.84-75.751-75.6c-13.131-13.068-17.756-13.106-31.041.075q-38.318,38.019-76.4,76.277c-2.685,2.7-4.435,3.158-7.793.946A185.935,185.935,0,0,1,32,603.21c-1.515-2.844-1.329-4.465,1-6.766,23.02-22.783,46.056-45.554,68.74-68.668,6.859-6.989,14.461-10.018,24.189-9.969q68.824.351,137.652.007c9.536-.045,17.044,2.833,23.81,9.73,22.79,23.228,45.977,46.07,69.03,69.04,1.6,1.6,2.96,2.814,1.531,5.537C342.1,632.326,319.689,656.362,289.458,675.1Z"/><path d="M628.387,537.324v-4.99q0-45.268.028-90.536a50.166,50.166,0,0,1,.658-8.863c.921-5.077,4.166-9.308,9.082-9.561,12.591-.648,25.237-.216,38.137-.216V612.682c-1.609.128-2.969.328-4.33.332-9.868.025-19.749-.289-29.6.1-9.383.366-16.429-3.12-22.517-10.184-18.285-21.214-36.9-42.146-55.384-63.19q-17.193-19.573-34.368-39.164a35.819,35.819,0,0,1-2.134-2.988l-1.093.55c-.078,1.626-.222,3.253-.222,4.879q-.021,45.972-.05,91.944a32.533,32.533,0,0,1-.935,8.81c-1.459,5.09-5.152,8.652-10.425,8.829-12.014.4-24.051.127-36.77.127V607.57q0-89.834-.085-179.666c-.009-4.171.925-5.762,5.4-5.595,9.073.338,18.183.437,27.248.011,10.377-.487,18.135,3.3,24.962,11.178,29.2,33.708,58.763,67.094,88.2,100.6,1.024,1.165,2.077,2.3,3.116,3.457Z"/><path d="M991.442,518.545c-.433,55.9-46.233,100.448-102.79,99.98-56.3-.465-101.368-45.721-100.915-101.341.452-55.385,46.507-100.057,102.751-99.665C946.319,417.908,991.869,463.491,991.442,518.545ZM942.12,518a52.384,52.384,0,0,0-52.2-52.3c-28.8-.147-52.76,23.772-52.6,52.516A52.4,52.4,0,0,0,942.12,518Z"/><path d="M758.828,423.033V612.556h-47.67c-.081-1.744-.226-3.412-.226-5.079q-.018-83.688.025-167.376a32.359,32.359,0,0,1,.831-7.882c1.259-4.952,4.579-8.821,9.632-9.024C733.717,422.7,746.047,423.033,758.828,423.033Z"/></svg>