<svg xmlns="http://www.w3.org/2000/svg" viewBox="0 0 1000 1000"><path d="M994.146,595.115c-5.185,7.4-10.781,14.327-20.325,16.228-21.341,4.252-38.7-3.358-39.412-29.013-.317-11.449,2.146-21.425,11.947-28.535,14.325-10.393,46.368-6.1,46.772,20.744.006.383.664.756,1.018,1.134v8.006H948.439c1.819,7.881,4.9,14.032,12.725,16.42,10.467,3.194,15.973-3.865,21.074-10.473l11.908,4.346Zm-15.355-23.179A15.689,15.689,0,0,0,962.845,560.8c-6.478.252-11.074,4.118-12.764,11.131Z"/><path d="M13.257,443.34c.473-1.526,1.328-3.043,1.364-4.579.857-37.178,19.537-64.054,49.311-84.2,26.794-18.127,57.153-26.683,88.809-31.091,55.716-7.76,110.286-.581,164.621,12.034a519.367,519.367,0,0,1,142.91,56.434c32.2,18.577,62.79,39.423,88.483,66.66,24.427,25.894,44.563,54.476,55.208,88.895,17.259,55.8-2.85,106.916-53.867,137.158-30.172,17.886-63.267,26.5-97.8,29.845-89.849,8.706-174.423-11.008-255.5-48.483a457.7,457.7,0,0,1-92.273-56.648c-1.675-1.325-5.069-1.7-7.209-1.04-24.889,7.643-47.248,3.433-66.378-14.366-8.413-7.827-13.483-17.662-12.647-29.742.394-5.7.269-11.437.883-17.1a53.773,53.773,0,0,1,49.787-47.81c13.326-.867,26.755-2.233,39.333,5.592,11.422,7.107,19.409,16.467,23.647,28.889,6.316,18.508,5.383,36.415-6.349,52.858-1.948,2.731-1.7,4.453,1.031,6.615A393.214,393.214,0,0,0,212,644.412c22.419,9.934,45.735,17.829,68.45,27.124,29.751,12.175,60.922,18.41,92.573,22.4,43.959,5.54,87.681,4.765,130.42-8.467,26.459-8.191,50.746-20.42,68.642-42.4,21.106-25.929,27.39-55.66,16.55-87.012a210.087,210.087,0,0,0-40.053-69.7C475.246,401.9,380.467,356.863,272.82,335.123a379.859,379.859,0,0,0-91.712-6.895c-34.4,1.478-67.975,7.339-99.126,22.928C52.667,365.825,30.343,387.02,20.889,419.4c-2.028,6.947-2.649,14.3-4.113,21.423-.28,1.359-1.478,2.531-2.252,3.789ZM62.416,570.658l1.214-1.979c1.618,0,3.245.105,4.854-.018,7.408-.566,15.28,2.23,22.085-3.167.708-.561,3.073-.042,3.928.762,3.159,2.97,6.512,5.942,8.853,9.524,3.516,5.384,8.163,6.332,11.15.705a57.365,57.365,0,0,0,6.358-18.653c1.9-13.933-5.92-23.729-15.267-33.1-10.461-10.487-22.613-14.448-36.882-12.494-15.717,2.153-26.994,10.878-32.462,25.544-5.545,14.87-5.4,29.853,6.519,42.1,6.011,6.175,12.67,12.38,20.244,16.16,5.441,2.716,12.883,1.748,19.428,1.705,1.476-.009,3.415-2.822,4.139-4.724.255-.67-2.477-2.488-3.865-3.761Q72.57,579.954,62.416,570.658Z"/><path d="M628.257,579.809l16.153-3.862c2.263,4.677,4.027,9.868,7.039,14.194,4.937,7.089,16.287,8.767,23.985,4.282,7.877-4.589,11.82-14.464,8.035-22.511a21.848,21.848,0,0,0-8.337-8.838c-6.147-3.637-12.877-6.317-19.439-9.226-10.011-4.439-18.846-9.845-21.28-21.747-3.009-14.719,4.068-27.408,19.162-33.112,16.088-6.079,37.55-.834,44.947,15.555l-14.163,8.164c-4.2-6.4-9.28-11.061-17.287-11.08-7.924-.019-14.521,4.4-16.295,10.907-1.343,4.924,2.8,12.071,9.517,15.3,7.633,3.667,15.53,6.783,23.267,10.241,10.079,4.506,16.008,11.818,17.618,23.177,2.563,18.09-9.15,36.035-26.945,39.792-12.262,2.589-23.825,1.282-33.9-6.82C632.737,598.11,631.111,589.018,628.257,579.809Z"/><path d="M492.383,609.417H479.062V549.632l13.038-.88c.216,1.019.6,2.824.795,3.736,5.631-1.822,11.1-4.863,16.669-5.046,5.835-.192,12.007,1.889,14.926,7.435,4.808-2.359,9.105-5.76,13.845-6.565,18.723-3.179,25.713,4.949,26.139,20.52.369,13.469.077,26.956.077,40.771H549.69c0-14.019.289-28.111-.149-42.181-.165-5.284-4.5-7.447-9.537-7.783-5.135-.343-8.339,2.3-9.7,6.951a33.551,33.551,0,0,0-1.238,8.943c-.139,11.2-.055,22.4-.055,34H514.174c0-13.689.356-27.083-.159-40.444-.237-6.145-4.939-9.564-10.611-9.463-5.6.1-9.439,3.766-9.823,10.365-.641,10.99-.833,22.007-1.188,33.013C492.327,605.042,492.383,607.082,492.383,609.417Z"/><path d="M857.825,550.827l13.474-1.094c.2,1.355.485,3.342.914,6.3,8.885-6.924,18.327-10.186,28.446-6.065,5.213,2.123,10.738,5.416,14.11,9.743,9.234,11.852,8.136,31.534-1.262,42.3-10.732,12.3-22.639,13.436-41.939,3.637v38.132H857.825V550.827Zm30.4,9.941c-12.205-.315-17.368,8.588-17.6,18.706-.229,9.871,7.226,21.284,18.464,21.245,9.631-.034,17.86-9.17,17.886-19.855C907,569.728,898.668,560.8,888.225,560.768Z"/><path d="M827.13,610.864c-.118-1.924-.215-3.523-.381-6.24-2.4,1.528-4.037,2.633-5.732,3.646-15.267,9.118-38.385,3.3-42.211-20.985-1.416-8.988-.622-17.649,4.326-25.627,9.345-15.068,28.889-18.018,43.3-6.08.843-12.267,10.456-1.535,15.092-7.388v37.416c0,6.671-.18,13.348.067,20.009.144,3.89-1,5.683-5.142,5.3C833.438,610.642,830.383,610.864,827.13,610.864Zm1.034-30.312c-.023-10.4-6.766-18.593-15.675-19.873-14.855-2.135-22.746,11.324-19.377,24.5,2.146,8.393,8.262,14.2,14.651,14.617C820.638,600.639,828.193,593.513,828.164,580.552Z"/><path d="M269.988,553.97l.66-5.393H284.48v59.879H269.837v-4.177c-5.328,1.982-10.223,4.612-15.429,5.591-16.314,3.067-30.03-7.228-32.335-23.832-1.623-11.689-.3-22.556,8.8-31.385C241.375,544.477,256.736,543.927,269.988,553.97Zm1.44,25.182c.042-12.886-11.591-23.236-22.6-20.1a17.772,17.772,0,0,0-13.062,16.05c-.6,10.133,4.042,19.226,11.376,22.3C259.2,602.462,271.382,593.308,271.428,579.152Z"/><path d="M314.82,608.7H300.851V548.4H314.53c.148.84.433,2.451.788,4.453a12.9,12.9,0,0,0,2.488-1.069c7.341-5.288,15.293-5.867,23.83-3.563,7.659,2.068,11.772,7.273,11.995,14.7.45,14.979.134,29.98.134,45.446H340c0-13.43.289-27.009-.128-40.566-.193-6.277-5.727-8.329-10.813-8.985-4.757-.613-9.855.564-11.77,5.87a40.016,40.016,0,0,0-2.363,12.14C314.605,587.261,314.82,597.71,314.82,608.7Z"/><path d="M155.64,548.464l13.432-.712c0,3.47-.022,7.363,0,11.255.059,8.941-.063,17.89.281,26.821.264,6.863,5.462,12.337,11.366,12.715,7,.449,11.7-2.975,12.712-10.828.988-7.675.781-15.51.971-23.277.125-5.119.023-10.244.023-15.924l12.745-.57c0,14.012.642,28.259-.214,42.415-.623,10.295-9.109,18.476-19.266,19.344a64.385,64.385,0,0,1-19.068-1.655c-8.023-1.777-12.283-8.448-12.731-15.8C155.023,577.9,155.64,563.47,155.64,548.464Z"/><path d="M409.9,548.3h13.727c0,11.754-.066,24.106.027,36.458.05,6.671,3.939,12.574,8.776,13.8,9.495,2.406,16.2-2.829,16.374-13.15.193-11.783.045-23.572.045-35.753l13.7-.97c0,12.919.661,26.279-.156,39.549-1.214,19.727-19.638,25.19-33.558,22.315-13.33-2.752-18.824-10.066-18.917-23.634C409.836,574.369,409.9,561.821,409.9,548.3Z"/><path d="M763.847,589.155c0,4.352-.451,8.159.1,11.813.894,5.893-2.093,7.908-7.118,9.4-11.041,3.285-21.494,2.218-31.1-3.89-10.765-6.845-14.212-17.77-13.053-29.6,1.365-13.924,9.774-23.152,23.15-27.384,9.209-2.914,18.346-1.2,27.677,1.762v19.749c-6.625-7.62-13.447-13.372-22.985-10.034a23.52,23.52,0,0,0-10.688,7.723c-6.209,8.482-2.543,23.844,6.791,29.02C743.8,601.7,755.6,601.925,763.847,589.155Z"/><path d="M371.111,526.665l13.588-.673c0,4.511,0,9.818,0,15.125,0,7.587.12,7.714,7.579,7.261a29.891,29.891,0,0,0,3.581-.673v12.827H384.846V608.51H370.71V561.3l-5.912-.744c.237-3.8.472-7.588.724-11.64l5.589-1Z"/></svg>