<svg id="Layer_1" data-name="Layer 1" xmlns="http://www.w3.org/2000/svg" viewBox="0 0 1000 1000"><path d="M500,0C223.86,0,0,223.86,0,500s223.86,500,500,500,500-223.86,500-500S776.14,0,500,0ZM388.25,679.1C193.3,660.84,123.86,459.85,123.86,459.85s122.71-120,264.63-131.54v34.45c-128.12,9.93-192.06,104.39-192.06,104.39s48.81,157.67,191.82,175.4Zm0-75.44c-108-19.32-138.07-131.78-138.07-131.78S302.12,414.44,388.25,405h0V362.79q6.25-.46,12.53-.53C516.67,358.6,592.63,462,592.63,462s-82,113.79-169.9,113.79a108.23,108.23,0,0,1-34.21-5.47V441.86c45.15,5.47,54.28,25.32,81.17,70.47L530,461.69S485.88,404,411.77,404a177.71,177.71,0,0,0-23.52,1v36.55H388c-45.15-5.49-80.67,36.79-80.67,36.79s20.09,71.25,80.9,91.88v0l0,0h0ZM833,734.17H388.78V679.1a261,261,0,0,0,28.7,1.56c102.85,0,284.24-52.47,362-117.71-11.52-11.5-67.1-37.85-80.67-48.82C616.92,584.6,532.33,644.38,415.41,644.38a235.67,235.67,0,0,1-26.89-1.83V603.4a191,191,0,0,0,32.35,2.86C546.45,606.26,667,459.59,667,459.59S561.81,322.05,400.78,327.51l-12.53.8V265.14H833Z"/></svg>