<svg xmlns="http://www.w3.org/2000/svg" width="1000" height="1000">
  <path d="M500.496 5C223.572 5 5 229.506 5 500.002c0 276.43 224.506 495.001 495.002 495.001 276.43 0 495.001-224.506 495.001-495.001C995.003 226.539 773.464 5 500.496 5zM145.44 749.728c6.923-9.89 12.857-19.78 19.78-27.693 48.462-70.22 98.902-141.429 148.352-212.638 1.978-3.956 1.978-5.934 0-9.89-49.45-73.187-97.912-146.374-146.374-219.561-4.945-6.923-8.9-12.857-11.868-19.78 4.945-.99 69.231-.99 136.484-.99 3.956 0 5.934 1.979 7.912 4.946 42.528 61.319 83.077 121.648 125.605 182.967 12.857 17.803 23.736 34.616 36.594 52.418 1.978 3.956 1.978 5.934 0 9.89-56.374 79.121-112.748 157.254-170.11 235.386-2.968 2.967-4.946 4.945-7.913 4.945H151.374zm209.671 0c6.923-8.901 9.89-14.835 15.824-22.748 49.451-72.198 99.89-143.407 151.32-216.594 3.956-4.945 3.956-6.923 0-10.879-51.43-78.132-159.232-240.33-159.232-240.33h138.462c4.945 0 7.912 1.978 9.89 4.945 52.418 77.143 103.847 152.308 157.254 228.462 4.945 9.89 4.945 14.835-1.978 22.747-53.407 78.132-109.781 154.287-163.188 229.452-1.978 2.967-4.945 4.945-9.89 4.945H362.034zm209.671 0c12.857-17.803 23.736-34.616 35.605-52.418 12.857 17.802 24.725 34.615 35.604 52.418zm7.912-490.551h55.385c-9.89 15.824-17.802 27.692-27.692 42.527-7.913-13.846-17.803-26.703-27.693-42.527zm63.297 397.583c-2.967-2.967-2.967-4.945 0-7.912 30.66-42.527 68.242-96.923 72.198-99.89 46.484 66.264 91.979 133.517 139.451 200.77H708.19c-3.957 0-6.924-1.978-8.902-4.945-20.77-29.67-40.55-59.341-63.297-88.023zm0-303.627c-.989-1.978-2.967-2.967 0-6.923 18.791-28.682 37.583-55.385 55.385-82.088 2.967-4.945 4.945-4.945 7.912-4.945h141.43c-45.496 68.242-89.012 134.506-132.529 199.78-5.934-6.923-50.44-73.187-72.198-105.824z" style="fill:#000;fill-opacity:1;fill-rule:nonzero;stroke:none;"/>
</svg>
