<svg xmlns="http://www.w3.org/2000/svg" viewBox="0 0 1000 1000"><path d="M5 499.507C5.494 225.056 225.847 5 500.496 5c272.968 0 494.507 221.54 494.507 495.002 0 274.451-221.539 495.001-495.001 495.001C225.55 995.003 5 773.464 5 499.507zm131.539 100.88c-7.912 7.912-2.967 12.857 8.901 18.79 16.813 7.913 16.813 11.869 16.813 26.704-7.912 75.165 22.748 131.54 90 165.166 30.66 17.802 63.297 21.758 96.924 21.758 0-.99-2.967-2.967-7.912-3.956C275 814.014 223.572 746.76 223.572 678.519c0-40.55 0-43.517 35.605-43.517 20.769 0-20.77-58.352-39.56-101.868-3.957-4.945-9.891-6.923-15.825 0-22.747 23.736-44.506 46.483-67.253 67.253zm181.979 65.275c0 12.857 4.945 20.769 19.78 20.769h60.33c29.67 0 29.67 38.571 29.67 72.198 0 14.835 48.462 14.835 48.462-1.978 0-58.352 7.912-70.22 25.714-70.22 29.67 0 29.67 0 29.67 31.648v17.803c0 36.593 0 36.593 38.572 33.626 10.88 0 14.835-4.945 14.835-14.835v-49.45c0-10.88 2.967-18.792 13.847-18.792 58.351-3.956 97.912-27.693 105.824-88.022 4.945-66.264-32.637-91.979-83.077-108.792 83.077-59.34 70.22-154.286-10.88-169.121-33.626-3.957-25.714-17.803-25.714-67.253 0-10.88-3.956-18.792-19.78-18.792h-13.846c-11.868 0-19.78 7.912-19.78 18.792v41.538c0 17.802-3.956 20.77-21.759 22.747-36.593 0-33.626-16.813-33.626-64.285 0-17.803-9.89-18.792-22.747-18.792-10.88 0-23.737.99-25.715 18.792-1.978 31.648 10.88 64.285-25.714 64.285H346.21c-16.813 0-28.681 6.924-27.692 25.715 0 14.835 4.945 22.747 27.692 22.747 26.703 0 29.67 2.967 29.67 32.638v201.759c0 34.615 0 38.571-37.582 38.571-19.78 0-19.78 14.835-19.78 26.704zm158.242-81.1v-50.934 42.033c0-18.198-1.088-32.044 0-42.033 1.483-13.154 6.824-19.286 23.736-19.286h36.594c33.626 4.945 51.428 30.66 54.395 61.32 0 32.637-25.714 63.296-59.34 63.296-62.308 0-53.407 6.923-55.385-54.396zm0-171.1c1.978-51.428-3.956-47.472 49.45-47.472 28.682 0 51.43 21.759 51.43 47.473-.99 36.593-10.88 52.418-48.462 52.418-44.506 0-52.418 3.956-52.418-52.418zM663.684 175.11c78.132 14.836 130.55 75.166 137.473 157.254 3.956 41.538 0 47.472-43.517 47.472 15.824 31.649 31.648 67.253 49.45 99.89 0 0 4.946 5.935 13.847-1.977 22.747-22.748 40.55-45.495 63.297-66.264 7.912-8.901 2.967-13.846-7.912-18.791-14.836-4.945-14.836-7.913-14.836-26.704-1.978-27.692-1.978-56.374-9.89-79.12-30.66-73.188-106.813-119.672-187.912-111.76z"/></svg>