<?xml version="1.0" encoding="utf-8"?>
<!-- Generator: Adobe Illustrator 24.2.3, SVG Export Plug-In . SVG Version: 6.00 Build 0)  -->
<svg version="1.1" id="Layer_1" xmlns="http://www.w3.org/2000/svg" xmlns:xlink="http://www.w3.org/1999/xlink" x="0px" y="0px"
	 viewBox="0 0 24 24" style="enable-background:new 0 0 24 24;" xml:space="preserve">
<path d="M12,0C5.4,0,0,5.4,0,12s5.4,12,12,12s12-5.4,12-12S18.6,0,12,0z M11.1,4.8h0.6v3H8.9C9.4,6.5,10.1,5.5,11.1,4.8z M8.1,11.7
	c0-1.2,0.2-2.4,0.6-3.4h3.1v3.4H8.1z M11.7,12.2v3.4H8.7c-0.4-1-0.6-2.2-0.6-3.4H11.7z M8.9,4.8h1.4c-0.8,0.8-1.5,1.8-2,3H6L8.9,4.8
	z M4.8,9l0.7-0.7h2.7c-0.4,1-0.6,2.2-0.6,3.4H4.8V9z M4.8,15v-2.8h2.8c0,1.2,0.2,2.4,0.6,3.4H5.4L4.8,15z M9,19.2l-3-3h2.4
	c0.5,1.2,1.2,2.2,2,3H9z M11.7,19.2h-0.6c-1-0.8-1.7-1.8-2.3-3h2.9V19.2z M15,4.8l3,3h-2.4c-0.5-1.2-1.2-2.2-2-3H15z M12.3,4.8h0.6
	c1,0.7,1.7,1.8,2.2,3h-2.9V4.8z M12.3,8.3h3.1c0.4,1,0.6,2.2,0.6,3.4h-3.7V8.3z M12.3,12.2h3.7c0,1.2-0.2,2.4-0.6,3.4h-3V12.2z
	 M12.9,19.2h-0.6v-3c0,0,2.9,0,2.9,0C14.6,17.5,13.8,18.5,12.9,19.2z M15,19.2h-1.4c0.8-0.8,1.6-1.8,2-3h2.4L15,19.2z M19.2,15
	l-0.7,0.7h-2.7c0.4-1,0.6-2.2,0.6-3.5h2.8V15z M19.2,11.7h-2.8c0-1.2-0.2-2.4-0.6-3.4h2.7L19.2,9V11.7z"/>
</svg>
