<svg width="27" height="27" fill="none" xmlns="http://www.w3.org/2000/svg">
    <path fill-rule="evenodd" clip-rule="evenodd"
        d="M13.5 0C20.955 0 27 6.045 27 13.5S20.955 27 13.5 27 0 20.955 0 13.5 6.045 0 13.5 0zm1.776 2c-.31 0-.539.001-.553.004l-.034.005.075.036c.098.047.207.12.264.178a.756.756 0 01.093.124c.035.059.053.08.077.09.076.028.133.096.183.218a.817.817 0 01.054.338c0 .215-.044.408-.148.652l-.047.111.034.044c.072.092.057.177-.072.41-.03.055-.065.12-.077.146-.034.075-.067.111-.12.131l-.048.019-.063.134c-.151.327-.266.5-.363.551a.15.15 0 00-.044.033.313.313 0 00-.031.144c0 .095.006.1.168.19.165.091.29.173.37.243.051.045.055.051.055.088 0 .033.005.044.025.058.07.049.13.093.187.14.035.03.117.094.184.143.153.115.235.19.33.301.3.35.466.864.511 1.588.005.08.01.27.01.42v.275l.03.139c.032.143.065.332.113.658.034.225.066.401.091.492.01.038.067.18.127.315.138.316.184.436.239.62.044.149.08.329.094.47.036.354.088.636.126.683a.482.482 0 00.113.043c.057.017.128.044.159.06.052.027.057.033.085.098l.03.069.102.058c.057.032.115.071.129.086.033.035.058.09.065.145a.285.285 0 00.034.089c.061.1.152.29.16.336a2483.28 2483.28 0 00.005-5.61C18 3.826 18 3.658 17.962 3.5a1.5 1.5 0 00-.015-.064 2.038 2.038 0 00-.238-.59 1.712 1.712 0 00-1.157-.825c-.08-.015-.18-.018-.942-.02h-.334zm-.13 6.39c-.044 0-.364.217-.55.373-.073.06-.084.074-.113.14-.045.103-.217.586-.396 1.117l-.082.242-.004.113c-.003.105-.002.114.014.114.025 0 .101.053.147.103.09.098.145.22.217.487.058.21.196.753.312 1.225l.118.478.037.15-.053.057-.052.056.02.086.048.192c.167.686.244 1.186.321 2.073.037.423.064.57.152.807.085.23.176.433.292.65.165.307.258.527.31.73.053.202.12.58.197 1.11.1.695.136.927.151.993.014.06.03.09.101.2.123.187.152.237.212.366.099.21.124.337.097.494-.008.047-.03.16-.05.252-.095.437-.113.645-.073.849.005.025.026.157.046.294.04.275.066.39.101.448.03.05.06.153.06.207a.285.285 0 01-.018.087.251.251 0 00-.017.06c0 .008.04.151.089.319.049.167.1.344.112.394.099.396.097.717-.006.948a.923.923 0 01-.318.386c-.014.011-.01.012.028.007.06-.008.17-.04.267-.076.25-.095.5-.28.69-.508.241-.294.399-.685.438-1.087.006-.067.01-1.476.009-4.488v-4.39l-.029.07c-.037.09-.124.256-.174.33a1.6 1.6 0 01-.553.502 1.382 1.382 0 01-1.54-.149 1.963 1.963 0 01-.352-.396 1.898 1.898 0 01-.14-1.712c.172-.421.517-.765.904-.9a.763.763 0 00.103-.041c.01-.01-.012-.07-.13-.362a35.866 35.866 0 00-.423-.984c-.112-.254-.128-.308-.194-.64a46.903 46.903 0 01-.261-1.508l-.005-.028c-.032-.206-.037-.235-.05-.239h-.009zm-4.513-6.38c.064-.006.834-.01 1.59-.01.757 0 1.5.002 1.509.008.007.005-.019.022-.066.044a.943.943 0 00-.32.225c-.124.134-.177.257-.217.509-.017.11-.036.349-.04.513l-.003.076-.075.006c-.138.011-.168.06-.166.276.003.266.075.471.16.456.01-.002.015.003.014.012l-.035.304c-.036.316-.05.4-.085.477-.068.156-.213.211-.614.232l-.121.006-.029.035-.028.034-.251.025c-.375.037-.49.062-.645.14a.961.961 0 00-.286.217c-.193.2-.38.506-.624 1.017a6.85 6.85 0 00-.328.856 4.863 4.863 0 01-.145.348c-.365.806-.554 1.289-.63 1.607-.008.035-.029.114-.046.174-.051.172-.046.247.026.441.018.048.042.13.053.181.037.175.044.196.086.235.07.064.164.08.495.08h.25v.245l-.104.11c-.111.117-.183.213-.215.285-.051.118-.154.64-.19.972-.057.518.044.917.43 1.707.27.554.364.78.438 1.05.019.068.038.127.041.132.004.004.107.024.229.043.122.019.223.035.224.037l.06.122c.284.593 1.135 1.95 1.514 2.413.03.036.06.079.068.096.03.06.095.133.269.298.097.092.267.266.377.386.178.194.393.417.514.534.406.394.821.733 1.163.953l.085.054.06.149c.075.18.111.277.146.389l.027.084-.027.034a.217.217 0 00-.06.165c.002.113.038.205.217.547.125.238.205.411.26.556a1.9 1.9 0 01.095.334.363.363 0 01-.024.087c-.05.124-.028.217.08.342l.05.059-.006.184c-.007.188-.033.493-.076.877-.05.44-.052.633-.01.804.035.141.129.28.246.364a.265.265 0 01.057.048c0 .01-5.226.007-5.353-.003a1.69 1.69 0 01-1.122-.558c-.326-.352-.491-.756-.518-1.264-.006-.127-.008-3.273-.006-9.814.003-9.016.004-9.634.019-9.723.074-.448.242-.793.53-1.093a1.69 1.69 0 011.083-.528zm-.218 18.31h-.298v3.473h.186c.172 0 .187-.001.187-.017.003-.215-.002-1.714-.005-1.8a108.112 108.112 0 01-.027-.811l-.005-.096.023.121c.025.138.07.397.158.917a335.213 335.213 0 00.244 1.422l.045.264h.546V20.32h-.384l.005.567c.004.311.008.589.01.616.002.028.007.135.01.237a12.613 12.613 0 00.019.423c.005.127.012.238.019.348.018.297.032.561.03.565a5.12 5.12 0 01-.053-.286 625.963 625.963 0 00-.336-2.012l-.063-.37-.014-.088h-.297zm1.695 0h-.343v3.476l.376-.005c.318-.003.383-.007.43-.021a.501.501 0 00.324-.279c.067-.148.068-.156.068-.629 0-.41 0-.425-.02-.494a.503.503 0 00-.124-.226l-.052-.055.057-.06a.498.498 0 00.122-.233c.014-.05.017-.12.02-.468.004-.449 0-.516-.045-.649a.498.498 0 00-.41-.348 5.28 5.28 0 00-.403-.01zm1.69 0h-.307l-.005.032c-.006.044-.01.07-.131 1.17l-.121 1.088a73.014 73.014 0 00-.126 1.153v.03h.426l.005-.058.026-.33c.01-.149.021-.281.024-.294.004-.022.005-.023.194-.023h.19l.006.058.024.32c.01.144.021.277.024.295l.005.032h.223c.123 0 .223-.004.223-.008 0-.008-.015-.15-.181-1.694a1511.693 1511.693 0 01-.188-1.734l-.005-.038h-.307zm-.032.393c.002-.002.003-.004.005-.004.014 0 .026.148.148 1.634.016.185.026.339.023.342a1.168 1.168 0 01-.16.006c-.114 0-.155-.003-.159-.013-.002-.006.01-.199.03-.428a87.662 87.662 0 00.104-1.442.712.712 0 01.01-.095zm-1.572.616v-.569l.125.004c.14.004.16.012.197.08.018.033.018.052.018.492v.459l-.02.036c-.032.055-.065.067-.197.07a.852.852 0 01-.119 0c-.002-.003-.004-.26-.004-.572zm0 1.486v-.534l.114.003c.133.005.177.022.208.08.018.033.018.05.018.447s0 .415-.019.454c-.031.066-.078.085-.21.085h-.11v-.535z"
        fill="#000" />
</svg>