<?xml version="1.0" encoding="UTF-8"?><svg id="a" xmlns="http://www.w3.org/2000/svg" viewBox="0 0 1000 1000"><path d="m129.487,396.887c14.985,0,28.231,2.847,39.733,8.528,11.496,5.687,20.091,13.18,25.778,22.483v-27.522h41.09v198.86h-41.09v-27.522c-5.687,9.303-14.282,16.862-25.778,22.677-11.502,5.815-24.748,8.722-39.733,8.722-28.17,0-51.168-9.364-69-28.104-17.831-18.735-26.747-43.737-26.747-75.009s8.916-56.269,26.747-75.008c17.832-18.735,40.83-28.104,69-28.104Zm6.978,37.213c-17.317,0-31.399,5.815-42.253,17.444-10.854,11.63-16.281,27.783-16.281,48.455s5.427,36.766,16.281,48.262c10.854,11.502,24.936,17.249,42.253,17.249,16.796,0,30.363-5.293,40.702-15.893,10.333-10.593,15.506-25.451,15.506-44.579v-10.466c0-19.122-5.173-33.979-15.506-44.579-10.339-10.593-23.907-15.893-40.702-15.893Z"/><path d="m497.745,396.887c22.222,0,40.181,7.498,53.881,22.483,13.695,14.991,20.545,34.761,20.545,59.309v120.557h-43.803v-113.967c0-14.985-3.622-26.747-10.854-35.276-7.238-8.528-17.444-12.792-30.624-12.792-12.15,0-22.035,3.816-29.655,11.435-7.625,7.625-12.083,17.51-13.374,29.654v120.944h-43.803v-113.967c0-14.73-3.683-26.42-11.048-35.081-7.365-8.656-16.996-12.986-28.879-12.986-13.44,0-24.361,4.591-32.756,13.761-8.401,9.176-12.598,20.739-12.598,34.694v113.579h-43.416v-198.86h41.09v26.359c11.369-19.897,30.49-29.849,57.371-29.849,28.94,0,50.006,12.017,63.185,36.051,13.695-24.034,35.276-36.051,64.736-36.051Z"/><path d="m785.369,494.961v21.32h-146.141c1.03,14.991,6.33,26.941,15.893,35.857,9.559,8.915,21.962,13.373,37.214,13.373,25.839,0,41.605-9.431,47.292-28.298l43.804,2.327c-3.877,18.092-14.216,33.21-31.011,45.354-16.802,12.15-36.438,18.219-58.922,18.219-29.722,0-53.882-9.237-72.489-27.717-18.607-18.473-27.91-43.61-27.91-75.396s9.17-56.917,27.522-75.396c18.347-18.474,42.253-27.717,71.714-27.717,28.424,0,51.035,8.788,67.837,26.359,16.796,17.577,25.197,41.478,25.197,71.714Zm-93.421-60.86c-14.991,0-27.201,4.203-36.632,12.598-9.437,8.401-14.67,20.225-15.7,35.469h101.95c-.522-14.73-4.979-26.42-13.374-35.081-8.4-8.656-20.485-12.986-36.244-12.986Z"/><path d="m968.726,400.377l-63.186,97.686,66.287,101.174h-51.945l-46.129-71.326-46.517,71.326h-50.781l64.348-101.95-62.798-96.91h51.557l44.191,68.225,43.415-68.225h51.557Z"/></svg>