<svg xmlns="http://www.w3.org/2000/svg" width="1000" height="1000">
  <path d="M500.496 5C223.572 5 5 229.506 5 500.002c0 276.43 224.506 495.001 495.002 495.001 276.43 0 495.001-224.506 495.001-495.001C995.003 226.539 773.464 5 500.496 5zM191.924 507.42V196.868c0-9.89 1.978-13.846 10.879-13.846 56.374 1.978 108.791 1.978 163.187 0 10.88 0 13.846 3.956 13.846 13.846v306.594c0 64.286 38.572 118.682 96.924 134.506 24.725 4.945 48.462 4.945 70.22 4.945 21.758 0 26.703 2.967 26.703 24.726v148.352c0 8.9-.989 13.846-12.857 16.813-194.836 25.714-368.902-128.572-368.902-325.386zm266.045-147.364V196.87c0-6.923 4.945-9.89 11.868-9.89 85.055-11.869 160.22 5.934 231.43 55.384 201.758 139.451 180 445.057-37.583 556.815-4.946 2.968-6.924 2.968-11.869 3.957V515.33c0-51.428-21.758-90.989-64.286-119.67-21.758-13.847-43.516-21.759-70.22-21.759h-41.538c-12.857 0-17.802-1.978-17.802-13.846z" style="fill:#000;fill-opacity:1;fill-rule:nonzero;stroke:none;"/>
</svg>
