<?xml version="1.0" encoding="UTF-8"?><svg id="a" xmlns="http://www.w3.org/2000/svg" viewBox="0 0 1000 1000"><path d="M500,0C223.858,0,0,223.858,0,500s223.858,500,500,500,500-223.858,500-500S776.142,0,500,0ZM185.513,198.811c0-7.314,5.984-13.298,13.298-13.298h183.062c7.314,0,13.298,5.984,13.298,13.298v183.062c0,7.314-5.984,13.298-13.298,13.298H198.811c-7.314,0-13.298-5.984-13.298-13.298V198.811Zm209.658,602.378c0,7.314-5.984,13.298-13.298,13.298H198.811c-7.314,0-13.298-5.984-13.298-13.298v-183.062c0-7.314,5.984-13.298,13.298-13.298h183.062c7.314,0,13.298,5.984,13.298,13.298v183.062Zm196.36-196.36h-183.062c-7.314,0-13.298-5.984-13.298-13.298v-183.062c0-7.314,5.984-13.298,13.298-13.298h183.062c7.314,0,13.298,5.984,13.298,13.298v183.062c0,7.314-5.984,13.298-13.298,13.298Zm222.956,196.36c0,7.314-5.984,13.298-13.298,13.298h-183.062c-7.314,0-13.298-5.984-13.298-13.298v-183.062c0-7.314,5.984-13.298,13.298-13.298h183.062c7.314,0,13.298,5.984,13.298,13.298v183.062Zm0-419.316c0,7.314-5.984,13.298-13.298,13.298h-183.062c-7.314,0-13.298-5.984-13.298-13.298V198.811c0-7.314,5.984-13.298,13.298-13.298h183.062c7.314,0,13.298,5.984,13.298,13.298v183.062Z"/></svg>