<svg xmlns="http://www.w3.org/2000/svg" width="1000" height="1000">
  <path d="M7.19 498.464V27.04C7.19 12.347 12.088 5 25.557 5c84.489 4.898 164.08 4.898 246.12 0 17.142 0 23.265 7.347 23.265 22.04v465.301c0 96.734 57.55 179.998 145.712 203.263 36.735 8.572 72.244 8.572 107.754 8.572 31.836 0 40.408 3.673 40.408 35.51v225.303c0 14.693-3.674 22.04-20.816 25.714C271.677 1029.886 7.19 796.01 7.19 498.463zm405.301-224.08V27.042c0-11.02 7.347-14.694 17.143-14.694C559.428-4.796 674.529 19.694 781.058 95.61c306.12 211.834 274.283 677.135-56.325 844.888-8.572 4.898-9.796 4.898-18.368 7.347V509.484c0-77.142-31.836-138.366-97.958-181.222-31.836-20.817-67.346-31.837-105.304-31.837h-64.898c-18.367 0-25.714-3.673-25.714-22.04z" style="fill:#000;fill-opacity:1;fill-rule:nonzero;stroke:none;"/>
</svg>
