<?xml version="1.0" encoding="UTF-8"?><svg id="a" xmlns="http://www.w3.org/2000/svg" viewBox="0 0 1000 1000"><path d="M500,0C223.858,0,0,223.858,0,500s223.858,500,500,500,500-223.858,500-500S776.142,0,500,0Zm.789,674.756c85.37,0,156.392-61.204,171.667-142.146h176.335c-16.442,177.743-165.969,316.902-348.002,316.902-193.018,0-349.513-156.46-349.513-349.513S307.737,150.487,500.789,150.487c182.034,0,331.56,139.16,348.002,316.902h-176.335c-15.275-80.908-86.297-142.146-171.667-142.146-96.526,0-174.756,78.23-174.756,174.756s78.23,174.756,174.756,174.756Z"/></svg>