<svg xmlns="http://www.w3.org/2000/svg" width="1000" height="1000">
  <path d="M776.39 905.604H264.857c45.006-64.765 90.012-127.334 133.92-192.1C539.286 517.015 676.5 315.037 812.616 117.449c12.075-15.368 23.052-23.052 39.518-23.052 42.81 0 91.11 2.195 96.598 12.074l-7.684 19.76c-133.92 189.903-477.504 688.264-482.993 694.85 28.54 5.49 150.387 4.391 225.031 0 45.006 0 83.426-19.758 120.748-47.201 76.84-57.081 124.042-132.823 156.973-217.347 13.173-27.443 19.759-53.788 31.834-85.621 8.781 77.937-7.684 151.484-36.225 214.053C921.288 764 865.305 834.254 796.15 889.14c-7.684 5.488-13.172 13.172-19.759 16.465zM6.895 523.601c-8.782-91.11 13.172-176.732 61.472-256.865C104.59 203.07 156.184 150.38 218.753 106.47c3.293-8.781 8.782-8.781 18.661-8.781 164.657-3.293 324.923-3.293 490.677-3.293l4.391 3.293c0 4.39-4.39 12.075-8.782 16.465-181.122 257.963-361.147 513.73-537.878 772.79-4.391 7.683-9.88 15.367-14.27 18.66H55.194c-17.563-3.293-2.195-18.66 4.391-32.931 159.168-222.835 310.652-448.964 466.527-669.604 4.391-9.88 13.173-16.466 20.857-28.54-7.684 0-16.466-1.098-26.345-1.098-62.57 0-130.628 0-199.784 5.488-50.494 0-96.598 28.54-139.41 60.375-76.839 62.57-121.845 143.8-153.679 236.007-7.684 16.466-10.977 32.932-20.856 48.3z" style="fill:#000;fill-opacity:1;fill-rule:nonzero;stroke:none;"/>
</svg>
