<svg xmlns="http://www.w3.org/2000/svg" viewBox="0 0 1000 1000"><path d="M256.814,537.73h-78.1V462.27h78.1ZM995,500c0,273.381-221.619,495-495,495S5,773.381,5,500,226.619,5,500,5,995,226.619,995,500ZM338.911,380.909H97.277V617.421H338.911Zm281.906,0H540.272q-.123,39.574-.247,79.149h-80.3V380.909H379.183V617.593h80.844V539.04h79.532c0,.3-.008.593-.011.89h.911c.005,25.731.005,51.465.005,77.725h78.4V539.93h-78.4v-.887s-.911.887-.911.887l.907-.89h-.9l.945-78.491h80.313Zm201.6,79.63,80.306-.236V380.909H822.178l-.228,79.159-80.068-.011q-.125-39.575-.248-79.148H661.089v79.629h80.3l.873,78.5-.892-.01v.9c-26.1,0-52.21,0-78.833,0v77.252H741.37V539.919h.9s-.681-.681-.857-.855l.86.851q0-.441-.01-.882l79.667.9v79.154h80.794V539.7l-80.295-.245Q822.422,500,822.417,460.539Z"/></svg>