<?xml version="1.0" encoding="UTF-8"?><svg id="a" xmlns="http://www.w3.org/2000/svg" viewBox="0 0 1000 1000"><path d="m923.579,1l-404.007,232.564-2.563,1.476-16.747,9.64-19.306-11.173v.014L77.704,0l-.519,488.351-.024,22.308-.024,22.289.009-.005-.726,466.039,423.275-243.659,422.6,244.678.792-510.63-.028-.017.519-488.353ZM135.152,499.58l345.729-199.122-.123,118.694-.302,280.382-345.305-199.954Zm-20.02,432.62l.208-199.589.396-199.589,345.375,199.966-345.979,199.211Zm769.322-465.188l-345.519-199.952,345.934-199.129-.415,399.081Z"/></svg>