<svg xmlns="http://www.w3.org/2000/svg" viewBox="0 0 1000 1000"><path d="M5 517.068C5 243.965 223.735 5 469.022 5h525.976v103.678c0 15.172-7.586 17.701-21.494 17.701h-440c-87.24 0-171.953 16.437-244.022 67.011-127.7 88.506-185.861 245.287-149.195 397.01 35.403 145.403 164.368 257.931 312.298 276.897 16.437 5.057 36.667 5.057 53.104 5.057h457.7c31.609 0 31.609 0 31.609 32.873v65.747c0 18.966-3.793 24.023-21.494 24.023H496.838C233.85 994.997 5 776.262 5 517.067zM262.93 352.7c53.104-83.448 131.495-128.965 230.115-128.965H642.24c6.322 0 15.172 0 21.494 5.057l111.264 108.736s5.058 5.057 2.53 7.586h-280.69c-82.184 3.793-155.517 73.333-151.724 160.574 3.794 79.655 69.54 146.667 147.931 146.667h255.402c39.195 0 34.138 5.057 18.965 21.494-24.023 24.023-74.597 70.804-103.678 96.091-10.115 10.115-15.172 10.115-18.965 10.115-59.425 0-120.115 0-177.011-2.528C267.988 767.412 156.724 522.125 262.93 352.7zm177.012 147.93c0-35.401 27.816-61.953 61.954-61.953h318.62c54.367 0 83.448 26.552 110 61.954-37.932 46.781-55.633 60.69-110 60.69H505.688c-37.931 0-65.747-25.288-65.747-60.69zM781.32 780.056c96.092-106.206 96.092-127.7 197.241-127.7 12.644 0 16.437 5.057 16.437 16.436v93.563c0 10.115-3.793 17.701-16.437 17.701zm6.322-551.263c-10.115-6.321-6.322-5.057 16.437-5.057h169.425c17.7 0 21.494 1.264 21.494 18.965v83.449c0 13.908-1.265 20.23-18.966 21.494-88.505 0-96.091-24.023-188.39-118.85z"/></svg>