<svg xmlns="http://www.w3.org/2000/svg" viewBox="0 0 1000 1000"><path d="M195.336 521.929v-14.426c-12.022-2.404-25.246-4.809-33.66-10.82-32.459-19.234-45.683-52.894-34.863-92.566 15.628-49.288 32.458-99.78 43.277-150.27 2.405-13.224 8.416-15.628 21.64-15.628 24.043 2.404 43.277 0 66.118 2.404 8.415 0 14.426-2.404 16.83-13.223 16.83-66.12 36.065-135.844 54.098-206.772C333.584 11.011 335.989 5 349.212 5h151.473c39.67 0 70.927 28.852 75.736 64.917 2.404 22.84-2.405 44.48-9.618 67.32-9.617 28.852-16.83 60.109-24.043 87.758 0 4.809-2.404 8.415-2.404 13.224h14.426c48.086 2.404 93.768 0 137.046 2.404 91.364 7.213 152.674 63.715 176.718 151.473 14.425 66.118 8.415 132.237-4.81 197.154-14.425 61.31-34.862 120.216-66.118 174.313-67.32 114.205-162.292 186.335-289.72 219.995-68.524 15.629-140.653 15.629-210.379-2.404-110.598-28.852-164.696-108.194-158.685-223.602 2.405-51.693 15.628-99.779 30.054-147.865 7.213-28.852 14.426-58.906 26.448-87.758zm234.421 139.45c-8.415 34.863 7.213 63.715 45.682 63.715 25.246 3.607 48.087-7.213 64.917-25.245 33.66-36.065 48.086-80.545 51.693-121.419 2.404-54.097-15.628-73.331-62.513-73.331-16.83 0-36.064 0-54.097 2.404-6.01 0-10.82 4.809-10.82 9.617-13.223 44.48-27.649 94.971-34.862 144.26z"/></svg>