<svg xmlns="http://www.w3.org/2000/svg" width="1000" height="1000">
  <path d="M5 943.431c0 16.965 16.964 27.87 26.658 27.87H967.13c10.906 0 27.87-7.27 27.87-27.87 0-19.388-8.482-27.87-27.87-27.87h-21.812v-1.212c0-18.176-13.329-27.87-26.658-27.87h-15.753V444.19h21.812c23.023 0 38.776-12.117 46.046-36.352 6.059-21.811 2.424-39.987-15.752-53.317L519.993 34.618c-12.117-7.27-20.599-8.482-31.505 0L53.47 354.52c-20.6 13.33-26.659 31.506-18.177 53.317 8.483 23.024 23.024 36.353 47.259 36.353h21.811v442.29H88.61c-8.482 0-13.329 2.423-20.6 8.481-3.635 3.636-7.27 12.118-7.27 19.388v1.212H31.658C14.694 915.561 5 931.314 5 943.431zm119.963-570.734L495.759 97.629c4.847-4.847 10.906-4.847 15.753 0l372.007 275.068c7.27 4.847 4.847 13.329-6.059 13.329H129.81c-12.117 0-13.33-7.27-4.847-13.33zm44.835 513.782V475.695h60.587V886.48zm111.48 0V444.19h64.224v442.29zm119.964-288.397c-20.6-61.799 21.812-132.08 94.517-145.41 73.917-9.694 138.14 50.894 129.657 121.175-4.847 42.412-24.235 75.129-60.587 94.517-1.212 0-4.847 2.423-4.847 3.635v198.727c0 6.06-4.847 12.118-10.906 12.118h-75.129c-7.27 0-12.117-6.059-12.117-12.118V672c0-1.212-1.212-3.635-3.635-3.635-27.87-15.753-47.259-39.988-56.953-70.282zM673.886 444.19h63.011v442.29h-61.799V445.401s0-1.212-1.212-1.212zm115.117 442.29V475.694h60.587V886.48z" style="fill:#000;fill-opacity:1;fill-rule:nonzero;stroke:none;"/>
</svg>
