<svg xmlns="http://www.w3.org/2000/svg" viewBox="0 0 1000 1000"><path d="M500.496 5C223.572 5 5 229.506 5 500.002c0 276.43 224.506 495.001 495.002 495.001 276.43 0 495.001-224.506 495.001-495.001C995.003 226.539 773.464 5 500.496 5zM161.264 538.079c-21.758-171.1 98.902-342.2 283.847-373.848 184.946-31.648 364.947 107.803 386.705 293.738 10.88 92.967-12.857 176.044-70.22 250.22-8.901 10.88-10.88 18.791 0 30.66 17.802 25.714 51.429 73.187 67.253 99.89h-40.55c-33.626 0-45.494-9.89-58.352-39.56l-11.868-24.726c-6.923-14.835-8.9-14.835-20.769-3.956-27.692 23.736-62.308 39.56-99.89 51.429-216.595 62.308-411.43-87.033-436.156-283.847zm117.693-44.506c0 19.78 3.956 40.55 7.912 61.319 0 2.967 2.967 3.956 3.956 6.923 14.835-16.813 33.627-10.88 52.418-10.88 7.912 0 18.791 0 18.791 12.858-1.978 11.868-12.857 11.868-20.77 11.868-11.867 0-24.724-1.978-37.582-1.978-3.956 0-6.923 1.978-7.912 1.978.99 1.978.99 6.923 3.956 7.912 0 0 41.539 2.967 47.473 2.967 7.912 0 14.835 2.967 14.835 11.869 0 5.934-10.879 8.9-14.835 8.9-10.88 0-17.802 0-24.725 1.979-3.956 1.978-5.934 1.978-7.913 3.956 1.979 1.978 3.957 5.934 5.935 5.934 8.9 1.978 15.824 1.978 24.725 1.978 7.912 0 16.813 0 16.813 10.879 0 7.912-12.857 13.846-20.77 13.846 0 2.967 1.979 3.956 3.957 6.923 5.934 3.956 11.868 7.912 16.813 14.836 12.857 13.846 24.726 21.758 43.517 21.758 7.912 0 18.791-1.978 26.703 0 3.956 2.967 13.846 5.934 13.846 10.879 2.967 9.89 16.814 16.813 51.43 16.813 10.878 0 25.714-2.967 38.57-3.956 3.957 0 7.913-6.923 7.913-10.879 1.978-9.89 7.912-12.857 16.813-12.857h32.638c16.813-1.978 20.769-5.934 27.692-21.758.989-6.924 9.89-10.88 15.824-12.858l15.824-5.934c0-6.923-9.89-4.945-15.824-4.945-8.901 0-15.824-1.978-15.824-11.868 0-10.88 6.923-10.88 15.824-10.88 11.868 0 22.747 0 35.605-1.977 3.956 0 5.934-3.956 7.912-5.934-1.978-1.978-6.923-3.956-7.912-3.956-12.858 0-26.704 0-39.56-1.978-4.946 0-11.87-3.956-11.87-8.901 0-5.935 5.935-9.89 6.924-9.89 18.791-1.979 38.572-4.946 56.374.988 10.879 2.967 10.879 0 13.846-6.923 14.835-37.582 19.78-77.143 12.857-118.681-15.824-94.946-94.945-183.957-216.594-181.979-118.682 1.978-211.649 92.967-215.605 211.649zm14.835 34.616c0-5.935 7.912-9.89 13.846-9.89 12.858-1.979 27.693-1.979 39.561 0 7.912.988 14.835 5.933 14.835 9.89 0 8.9-8.901 9.89-12.857 12.857-7.912 1.978-16.813 1.978-22.747 1.978-7.912 0-16.814 0-22.748-1.978-3.956-2.967-9.89-3.956-9.89-12.857zm87.033 136.484c0-15.825 65.275-14.836 65.275 2.967 0 6.923-9.89 11.868-32.637 11.868-7.912 0-32.638 1.978-32.638-14.835zm0-32.638c0-6.923 3.956-10.88 7.913-10.88h49.45c1.978 0 7.912 3.957 7.912 10.88 0 3.956-3.956 9.89-7.912 9.89-7.912 1.978-17.802 1.978-26.703 1.978-16.813 0-30.66-1.978-30.66-11.868zm0-34.615c0-4.946 3.956-8.902 5.935-8.902 18.79-1.978 34.615-1.978 51.428-1.978 3.956 0 7.912 2.967 7.912 11.869 0 4.945-5.934 8.9-7.912 8.9 1.978 0-41.538 1.979-49.45 0-1.978 0-7.913-6.922-7.913-9.89zm0-33.627c0-4.945 5.935-10.88 9.89-10.88 14.836-1.977 30.66-1.977 45.495 0 3.956 0 9.89 4.946 9.89 8.902 0 7.912-5.934 11.868-9.89 11.868-8.9 1.978-55.385 3.956-55.385-9.89zm85.056 138.462c0-6.923 3.956-12.857 9.89-12.857h47.472c3.957 0 7.913 5.934 7.913 10.879 0 3.956-3.956 9.89-7.912 9.89-16.814 2.967-32.638 2.967-47.473 0-3.956 0-9.89-1.978-9.89-7.912zm0-34.615c0-4.946 5.934-12.858 11.868-12.858h43.516c7.913 0 11.869 5.934 11.869 12.858 0 5.934-11.869 11.868-32.638 11.868-3.956 0-34.615 1.978-34.615-11.868zm0-33.627c0-5.934 5.934-12.857 9.89-12.857 15.824-1.978 30.66-1.978 47.472 0 3.957 0 7.913 3.956 7.913 10.88 0 3.955-1.978 7.911-9.89 9.89-8.902 1.977-14.836 1.977-23.737 1.977-5.934 0-13.846 0-21.758-1.978-3.956 0-9.89-3.956-9.89-7.912zm0-35.604c0-5.935 5.934-11.869 9.89-11.869h49.45c1.979 0 5.935 2.967 5.935 10.88 0 5.934-3.956 9.89-7.912 9.89-7.913 1.978-14.836 1.978-25.715 1.978-11.868 0-31.648-1.978-31.648-10.88zm0-34.616c0-4.945 5.934-10.88 9.89-10.88 15.824-1.977 30.66-1.977 47.472 0 3.957 0 7.913 5.935 7.913 10.88 0 3.956-3.956 7.912-7.912 9.89-7.913 1.978-14.836 1.978-25.715 1.978-5.934 0-13.846 0-21.758-1.978-3.956-1.978-9.89-7.912-9.89-9.89zm0-35.604c0-11.869 21.758-11.869 34.615-11.869 22.748 0 30.66 1.978 30.66 9.89 0 16.814-20.77 11.869-58.352 11.869-.99 0-6.923-3.956-6.923-9.89zm0-28.682c-6.923-5.934 0-18.791 9.89-18.791h47.472c9.89 0 13.847 12.857 9.89 16.813-7.911 7.912-61.318 5.934-67.252 1.978zm80.11 168.133c0-6.924 5.934-10.88 9.89-10.88 14.835-1.978 31.648-1.978 45.495 0 4.945 0 8.9 3.956 8.9 10.88 0 11.868-22.747 11.868-31.648 11.868-11.868 0-32.637-1.978-32.637-11.868zm0-35.605c1.978-6.923 5.934-10.88 11.868-10.88 6.923-1.977 52.418-3.955 52.418 10.88 0 5.934-2.967 9.89-6.923 9.89-15.825 1.978-30.66 1.978-47.473 0-3.956 0-9.89-1.978-9.89-9.89zm0-34.615c0-14.836 22.747-14.836 54.396-10.88 13.846 0 21.758 22.748-21.759 22.748-11.868 0-32.637 0-32.637-11.868zm75.165-35.605c0-12.857 40.55-10.88 57.363-8.901 3.956 0 9.89 1.978 9.89 8.901 0 7.912-5.934 11.868-9.89 11.868-7.912 1.978-16.814 1.978-26.704 1.978-20.769 0-30.66-3.956-30.66-13.846z"/></svg>