<svg xmlns="http://www.w3.org/2000/svg" viewBox="0 0 1000 1000"><path d="M500.496 5C223.572 5 5 229.506 5 500.002c0 276.43 224.506 495.001 495.002 495.001 276.43 0 495.001-224.506 495.001-495.001C995.003 226.539 773.464 5 500.496 5zm-310.55 634.947c0-61.319 7.912-122.638 40.55-176.044 32.637-61.32 83.076-104.836 140.44-138.462 123.626-71.21 258.132-103.847 399.561-99.89 33.627 2.966 31.649-3.957 35.605 32.637 10.879 113.736 0 226.484-40.55 334.286-20.77 53.407-50.44 99.89-92.967 139.451-60.33 58.352-136.484 90.99-219.562 102.858-82.088 8.901-154.286-13.846-218.572-66.264-3.956-6.923-10.879-7.912-18.791-17.802 6.923-1.978 7.912-1.978 11.868-1.978 110.77-22.748 204.726-73.187 289.781-145.385 111.759-90.99 193.847-204.726 262.09-331.32 1.977-2.967 1.977-7.912 5.933-11.868h-3.956c-18.791 22.747-39.56 44.505-58.352 66.264-96.923 106.813-202.748 201.759-331.32 266.044-58.351 28.682-119.67 50.44-183.956 57.363-9.89 3.956-17.802 0-17.802-9.89z"/></svg>