<svg xmlns="http://www.w3.org/2000/svg" viewBox="0 0 1000 1000"><path d="M94.3 307.082c113.87-91.3 235.947-86.171 343.662 0 47.189 41.034 73.861 93.353 83.094 149.775 29.75 173.37-103.611 302.627-286.213 302.627-76.94 0-149.775-54.37-190.81-126.18C-21.62 529.693-4.18 398.384 94.302 307.082zM75.836 519.434c13.336 97.456 87.198 185.68 216.456 166.188 99.507-11.284 166.188-92.327 162.084-187.731-9.232-124.128-104.637-185.68-203.119-181.576-97.456 0-182.602 93.353-175.42 203.119zm99.508 82.068 6.155-29.75h14.362c3.078 0 8.207-1.025 10.259-3.077 1.026-2.052 2.052-5.13 2.052-8.207V453.78c0-13.336 4.103-16.413-18.466-16.413h-14.362v-26.673h51.293v-42.06h26.672v42.06H272.8v-42.06h25.647v42.06c10.258 1.026 18.465 2.052 25.646 4.104 7.181 2.052 14.362 5.13 21.543 10.258 6.155 4.104 10.258 12.31 13.336 21.543 6.155 17.44-2.052 36.931-15.388 45.138l-6.155 3.077c31.802 16.414 45.138 28.724 32.827 70.784-8.206 27.698-32.827 29.75-71.81 35.905v43.086H272.8v-43.086h-19.49v43.086h-26.673v-43.086zm77.965-29.75c25.646 0 70.784 0 70.784-28.723 0-21.543-25.646-27.698-61.551-27.698l-9.233 1.025zm0-82.068h20.517c10.259-1.026 20.517-2.052 26.672-6.155 7.181-5.13 11.285-10.258 11.285-19.491 0-23.595-23.595-24.62-58.474-24.62zm345.713 269.8v-485.23c0-21.542 7.18-26.671 26.672-26.671 43.086 0 43.086 0 43.086 43.086V510.2c9.233-7.18 14.362-12.31 18.465-17.44 46.164-45.137 136.439-149.774 174.395-187.73 23.595-26.673 23.595-26.673 5.13-57.448h106.688v109.766c-14.362-14.362-23.594-19.491-35.904-30.776-9.233 9.233-14.362 16.414-21.543 25.647-30.776 30.775-56.422 62.577-88.224 97.456-9.232 7.18-4.103 17.44 0 26.672C881.131 566.623 937.553 665.105 995 757.432c-9.232 0-19.49 2.052-21.543 2.052h-61.55c-50.268-77.965-93.354-162.085-145.672-245.18-9.233 9.233-14.362 14.363-18.465 19.492-21.543 21.543-43.086 43.086-60.526 68.732-9.232 9.233-18.465 26.672-18.465 41.034v115.922z"/></svg>