<svg xmlns="http://www.w3.org/2000/svg" viewBox="0 0 1000 1000"><path d="M673.7,946.4s4.6,17.9-6.6,31.1-28.5,12.4-28.5,12.4H460s-70.9.2-96.1,0-32.8-19.8-32.8-19.8a41.391,41.391,0,0,1-1.9-22.5c2.5-12.3,16.5-23.2,16.5-23.2s132.5-99.4,139-103.6,17.2-4.3,17.2-4.3c11.2.4,17.2,4.6,17.2,4.6S646.7,915.6,658.6,925A45.056,45.056,0,0,1,673.7,946.4Zm309-562.1s-8.8-33.6-42.4-60.1S549.2,33,549.2,33s-16.4-11.5-47.1-12.9h-2.3c-5.9.2-31,1.6-46.9,12.1C434.8,44.1,63.1,322.6,63.1,322.6s-39.3,30.5-46.4,65S22,450.8,22,450.8s21.2,54.9,91.9,55.5c32.1.2,90.5.3,144.8.2,28.4,0,40.5,36.2,17.7,53.2-39.9,29.8-70,52.4-70,52.4s-26.5,20.6-31.3,43.9a78.062,78.062,0,0,0,3.6,42.7s14.3,37.1,62.1,37.5,182.1,0,182.1,0H761.2s32.8,1.6,54-23.5,12.5-58.8,12.5-58.8-6-22.7-28.7-40.6c-7.1-5.6-35.7-27-71.6-53.8-22.9-17-10.8-53.3,17.6-53.3H884.3s48.6,2.3,80-34.8S982.7,384.3,982.7,384.3Z"/></svg>