<?xml version="1.0" encoding="UTF-8"?><svg id="a" xmlns="http://www.w3.org/2000/svg" viewBox="0 0 1000 1000"><path d="M0,312.191V21.143C0,9.514,9.514,0,21.143,0H312.191c11.628,0,21.143,9.514,21.143,21.143V312.191c0,11.628-9.514,21.143-21.143,21.143H21.143c-11.629,0-21.143-9.514-21.143-21.143Zm312.191,354.476H21.143c-11.629,0-21.143,9.514-21.143,21.143v291.048c0,11.628,9.514,21.143,21.143,21.143H312.191c11.628,0,21.143-9.514,21.143-21.143v-291.048c0-11.628-9.514-21.143-21.143-21.143ZM978.857,0h-291.048c-11.628,0-21.143,9.514-21.143,21.143V312.191c0,11.628,9.514,21.143,21.143,21.143h291.048c11.628,0,21.143-9.514,21.143-21.143V21.143c0-11.629-9.514-21.143-21.143-21.143Zm0,666.667h-291.048c-11.628,0-21.143,9.514-21.143,21.143v291.048c0,11.628,9.514,21.143,21.143,21.143h291.048c11.628,0,21.143-9.514,21.143-21.143v-291.048c0-11.628-9.514-21.143-21.143-21.143Zm-312.191-312.191c0-11.629-9.514-21.143-21.143-21.143H354.476c-11.628,0-21.143,9.514-21.143,21.143v291.048c0,11.628,9.514,21.143,21.143,21.143h291.048c11.628,0,21.143-9.514,21.143-21.143V354.476Z"/></svg>