<svg xmlns="http://www.w3.org/2000/svg" viewBox="0 0 1000 1000"><path d="M500.496 5C223.572 5 5 229.506 5 500.002c0 276.43 224.506 495.001 495.002 495.001 276.43 0 495.001-224.506 495.001-495.001C995.003 226.539 773.464 5 500.496 5zM156.32 360.056c58.352-86.044 174.067-131.539 266.045-99.89-152.308 130.55-152.308 356.045 0 486.595-78.132 29.67-189.89-4.945-252.199-80.11C97.967 580.606 87.088 455 156.32 360.056zm257.144 292.748c-73.187-98.901-62.308-243.297 27.692-330.33 90.99-90.99 230.44-97.913 333.298-21.759 85.055 68.242 144.396 225.496 38.572 365.936 12.857 12.857 23.736 24.725 35.604 38.571 10.88 13.846 17.802 26.703 7.912 36.594-9.89 13.846-24.725 2.967-36.593-9.89-12.857-12.858-21.759-23.737-34.616-38.572-139.45 109.78-300.66 53.407-371.87-40.55zm51.429-286.814c-83.078 79.121-73.187 214.616 12.857 290.77 76.154 72.198 211.649 78.133 273.957 5.934-13.846-12.857-30.66-28.68-43.517-42.527-8.9-9.89-14.835-20.77-5.934-30.66 13.846-12.857 22.747-8.9 35.605 4.946 11.868 11.868 25.714 26.703 39.56 41.538 78.132-81.1 66.264-207.693-15.824-284.836-86.044-83.077-216.594-77.143-296.704 14.835zm2.967 136.484c0-61.319 30.66-105.824 86.044-136.484 13.846-5.934 19.78-5.934 26.703 6.923 10.88 23.737 37.583 75.165 37.583 129.561 0 56.374-15.824 87.033-37.583 127.583-7.912 12.857-12.857 16.813-26.703 8.901-55.385-25.714-86.044-72.198-86.044-136.484z"/></svg>