<svg xmlns="http://www.w3.org/2000/svg" viewBox="0 0 1000 1000"><path d="M500.496 5c272.968 0 494.507 221.54 494.507 495.002 0 270.495-218.572 495.001-495.001 495.001C229.506 995.003 5 776.431 5 500.002 5 229.506 223.572 5 500.496 5zM127.638 439.177c20.77 54.396 44.505 101.869 83.077 143.407 14.835 17.803 32.637 35.605 49.45 53.407-9.89-.989-24.725-2.967-42.527-5.934 2.967 20.77 4.945 38.572 10.88 57.363 3.955 6.923 6.922 11.868 12.856 14.835 87.034 14.835 171.1 5.934 250.221-26.703 55.385-25.715 50.44-32.638 55.385-84.067v-16.813c-5.934 3.956-6.923 4.945-14.835 7.912-41.539 22.748-85.056 38.572-131.54 50.44-13.845 2.967-20.769 0-30.659-5.934-82.088-50.44-137.473-115.715-173.077-199.78-6.923-15.825-12.857-26.704-17.802-45.496-14.836 11.869-30.66 25.715-43.517 36.594-7.912 5.934-11.868 10.88-7.912 20.77zm77.143-63.297c30.66 84.067 77.143 152.309 146.374 206.704 40.55 25.715 52.418 15.825 116.704-5.934-7.912-6.923-10.88-8.9-17.803-12.857-37.582-22.747-76.154-48.462-107.802-86.044-9.89-11.868-10.88-21.758-10.88-36.594 3.957-100.88 35.605-189.89 100.88-269.012 6.923-7.912 6.923-8.9 13.846-17.802-18.79-5.934-33.626-12.857-52.417-18.791-7.912-3.956-13.847-1.978-19.78 5.934-38.572 45.495-73.188 99.89-91.979 159.231-6.923 20.77-8.901 37.583-14.835 56.374-1.978-12.857-7.912-24.725-13.846-37.582-14.836 12.857-27.693 24.725-42.528 36.593-8.901 6.923-8.901 10.88-5.934 19.78zm30.66 354.067c2.966 16.814 5.933 31.649 7.911 47.473 0 13.846 6.924 20.77 16.814 24.726 56.374 7.912 113.736 7.912 166.154-3.957 27.692-6.923 51.429-12.857 76.154-20.769-10.879 13.846-18.791 26.704-27.692 42.528 16.813 3.956 33.626 10.879 47.472 16.813 11.869 2.967 18.792 2.967 26.704-5.934 56.374-69.231 93.956-149.341 100.88-236.374 3.955-24.726 0-34.616-19.781-53.407-7.912-8.901-17.802-18.792-27.692-25.715-2.967-2.967-8.901-6.923-14.836-9.89v22.748c-2.967 46.483-8.9 90-22.747 135.495-2.967 4.945-5.934 11.868-11.868 13.846-78.132 45.494-159.231 68.242-246.265 61.319-24.725-2.967-47.472-5.934-71.209-8.902zm121.648-294.726c0 3.956 0 7.912 2.967 11.868 19.78 18.792 40.55 36.594 57.363 54.396l2.967-2.967c2.967-4.945 2.967-10.879 2.967-17.802 0-45.495 8.901-92.967 23.736-134.506 2.967-7.912 6.923-13.846 12.858-18.791 98.901-54.396 188.901-66.264 314.506-47.473-3.956-16.813-5.934-35.605-9.89-49.45-3.956-16.814-6.923-17.803-14.835-19.781-53.407-10.88-106.814-10.88-158.243-3.956-32.637 6.923-54.395 12.857-82.088 23.736 9.89-12.857 18.792-25.714 31.649-39.56-21.759-5.934-39.56-15.825-57.363-21.759-5.934-2.967-9.89-4.945-18.791 5.934-62.308 76.155-101.869 163.188-107.803 260.111zm102.858-.989c6.923-3.956 112.747-46.483 131.538-52.418 23.737-11.868 44.506-5.934 69.231 8.902 112.748 77.143 99.89 87.033 177.034 236.374 13.846-11.868 28.681-24.725 40.55-32.638 7.912-5.934 11.868-11.868 5.934-24.725-13.846-41.538-35.605-86.044-66.264-122.638-18.792-22.747-43.517-46.483-68.242-74.176 13.846.99 24.725 2.967 39.56 5.934-2.967-22.747-5.934-40.55-8.9-63.297 0-1.978-5.935-3.956-11.869-5.934-84.066-16.813-166.154-11.868-246.265 17.803-61.318 24.725-44.505 26.703-62.307 106.813zm87.033-4.945c.989 4.945.989 6.923 11.868 15.824 40.55 22.748 81.1 53.407 112.748 90 6.923 5.935 9.89 13.847 9.89 26.704 0 101.869-34.616 192.858-102.858 274.946-2.967 2.967-6.923 8.901-10.879 14.835 16.813 5.934 34.616 12.857 50.44 20.77 9.89 2.967 15.824 0 21.758-4.946 41.539-47.472 72.198-102.857 90-162.198 3.957-17.802 6.924-36.593 13.847-59.34 5.934 17.802 11.868 29.67 18.791 48.461a7299.344 7299.344 0 0 1 46.484-43.517c2.967-.989 2.967-7.912 0-14.835-32.638-92.967-89.012-170.11-175.056-224.506-3.956-2.967-6.923-3.956-11.868-2.967-25.714 5.934-52.418 15.824-75.165 20.77z"/></svg>