<?xml version="1.0" encoding="utf-8"?>
<!-- Generator: Adobe Illustrator 24.2.3, SVG Export Plug-In . SVG Version: 6.00 Build 0)  -->
<svg version="1.1" id="Layer_1" xmlns="http://www.w3.org/2000/svg" xmlns:xlink="http://www.w3.org/1999/xlink" x="0px" y="0px"
	 viewBox="0 0 24 24" style="enable-background:new 0 0 24 24;" xml:space="preserve">
<path d="M18.5,11.5h-6.1V5.8h5.1C18.1,7.6,18.5,9.5,18.5,11.5z M5.6,5.8H1.2L0,7v4.6h4.6C4.7,9.5,5,7.6,5.6,5.8z M4.7,12.4H0V17
	l1.1,1.1h4.5C5,16.4,4.7,14.5,4.7,12.4z M12.4,19v5h1c1.6-1.3,2.9-2.9,3.8-5C17.2,19,12.4,19,12.4,19z M9.2,0H6.9L2,5h3.9
	C6.7,3,7.9,1.3,9.2,0z M18.3,18.1h4.5L24,17v-4.6h-4.6C19.3,14.5,18.9,16.4,18.3,18.1z M22,5l-5-5h-2.3c1.4,1.3,2.5,3,3.3,5
	C18.1,5,22,5,22,5z M18.5,12.4h-6.1v5.7h5C18.1,16.4,18.5,14.5,18.5,12.4z M22.8,5.8h-4.4c0.6,1.7,0.9,3.6,0.9,5.7H24V7
	C24,7,22.8,5.8,22.8,5.8z M6.5,18.1h5.1v-5.7H5.5C5.5,14.5,5.9,16.4,6.5,18.1z M6.8,5h4.8V0h-1.1C8.9,1.2,7.7,2.9,6.8,5z M13.5,0
	h-1.1v5h4.8C16.3,2.9,15.1,1.2,13.5,0z M2,19l5,5h2.3c-1.4-1.3-2.6-3-3.4-5C5.9,19,2,19,2,19z M10.6,24h1v-5H6.8
	C7.7,21,9,22.7,10.6,24z M14.7,24H17l5-5h-4C17.3,21,16.1,22.7,14.7,24z M5.5,11.5h6.1V5.8H6.5C5.9,7.6,5.5,9.5,5.5,11.5z"/>
</svg>
