<svg xmlns="http://www.w3.org/2000/svg" viewBox="0 0 1000 1000"><path d="M799.112 501.173c0-170.083-125.51-297.938-297.939-297.938-170.083 0-297.938 127.855-297.938 299.111 0 168.91 126.682 295.593 295.592 295.593 168.91 0 300.285-129.029 300.285-296.766zM5 500v-.586zm0-.586C5.352 225.17 224.583 5 500 5c273.306 0 495 220.521 495 493.827 0 275.652-221.694 496.174-495 496.174C224.583 995 5.352 773.658 5 499.414zm279.17.586c5.866-138.412 107.916-238.116 242.809-219.348 100.877 11.73 177.12 93.839 187.678 195.889 10.557 127.855-66.86 236.943-188.851 247.5-137.24 10.557-241.635-90.32-241.635-224.04z"/></svg>