<svg xmlns="http://www.w3.org/2000/svg" width="1000" height="1000">
  <path d="M427.148 15.514C530.986-5.254 594.51 5.74 670.252 39.946c-236.996-12.216-411.69 78.185-473.993 321.29-34.205 133.157 0 313.958 174.694 423.905-15.881-6.108-34.206-6.108-48.866-14.66C78.983 675.195-5.31 388.112 149.837 171.883c59.86-80.627 186.91-134.379 277.31-156.368zM9.35 430.868c8.551-36.649 20.768-78.184 35.427-111.168 7.33-21.99 13.438-34.206 26.876-57.417h7.33l-14.66 50.087c-28.097 105.06-14.66 201.57 43.98 284.64 12.215 29.32 4.886 35.427-17.104 41.535-61.081 26.876-61.081 26.876-73.298-34.205 0-6.108-21.989-86.736-8.551-173.472zm26.876 250.435c35.427-15.882 54.973-21.99 76.963-28.098 14.66-8.551 19.546 0 29.319 6.108 48.865 58.638 103.838 98.952 172.25 125.828 21.989 6.108 26.876 9.773 14.66 35.427-7.33 19.547-14.66 34.206-21.99 54.974-6.108 14.66-19.546 20.768-32.984 14.66-106.282-35.428-183.245-105.06-238.218-208.9zm125.828 173.471c160.033 96.509 318.845 103.839 473.993-6.108 145.374-112.39 193.017-265.094 151.482-447.117 35.427 41.535 48.865 100.174 57.416 146.596 12.217 117.276-21.989 222.337-98.952 306.63-85.513 106.28-210.12 162.475-362.823 131.935-68.411-21.99-136.823-47.643-191.796-96.509-9.773-8.551-15.881-14.66-23.211-23.21 0 0-6.108-4.887-6.108-12.217zM204.81 417.43c12.216-112.39 53.752-196.682 136.823-271.202 13.437 25.654 23.21 47.644 29.319 62.303 0 6.108-6.108 20.768-15.881 26.876-61.082 42.757-108.726 98.952-138.045 166.142 0 8.551-6.108 8.551-12.216 15.881zm109.947 478.88c14.66-29.32 21.989-56.195 34.205-75.742 6.108-7.33 21.99-14.66 34.206-14.66 56.195 7.33 120.941 7.33 174.693-6.107 21.99-8.552 29.32 6.108 36.65 20.767 4.886 12.217 4.886 28.098-7.33 41.536-83.072 42.757-174.694 61.081-272.424 34.206zm56.195-743.974c-7.33-21.989 0-29.319 12.216-34.205 50.087-29.32 106.282-48.866 169.807-56.195 41.535-4.887 75.74-4.887 125.828 7.33-23.211 48.865-42.757 90.4-58.639 131.936-6.108 13.438-20.767 13.438-32.984 13.438-56.195-20.768-118.498-20.768-174.693 0-10.995 6.108-14.66 0-14.66 0-7.33-20.768-19.546-42.758-26.875-62.304zM599.398 986.71c7.33-6.108 20.767-13.438 36.649-21.99 96.508-47.643 173.471-131.935 208.898-241.882 2.444-4.887 7.33-21.99 12.217-34.206 20.768 12.217 50.087 18.325 68.411 34.206 15.881 7.33 10.995 19.546 0 35.427-68.411 103.839-158.812 180.802-284.64 222.337-14.66 6.108-26.876 6.108-41.535 6.108zm29.319-153.925c-34.206-26.876-34.206-41.536 0-62.303 32.984-20.768 68.411-40.314 109.947-69.633-25.655 57.416-68.412 98.952-109.947 131.936zm7.33-631.583c19.546-36.65 34.205-70.855 47.643-103.84 13.438-21.988 19.546-21.988 41.536-14.659 103.838 35.428 174.693 105.06 223.558 202.791 12.216 34.206 6.108 40.314-23.21 48.865-41.536 12.217-73.299 26.876-116.056 46.422-7.33 4.887-10.994-3.665-21.99-19.546-41.535-48.865-84.292-90.4-138.043-117.276-13.438-14.66-20.768-23.211-13.438-42.757zm186.91 229.666c-13.439-36.649-7.33-36.649 21.988-50.087 32.985-12.216 74.52-28.097 123.385-41.535 41.536 125.828 34.206 244.326-19.546 367.71-29.319-12.216-54.973-23.21-76.963-31.762-14.66-2.443-14.66-21.989-14.66-29.319 14.66-76.963 0-144.152-34.205-215.007z" style="fill:#000;fill-opacity:1;fill-rule:nonzero;stroke:none;"/>
</svg>
