<?xml version="1.0" encoding="UTF-8"?><svg id="a" xmlns="http://www.w3.org/2000/svg" viewBox="0 0 1000 1000"><path d="m733.486,482.772h-98.5c.995-14.729,6.051-26.152,15.168-34.269,9.111-8.111,20.909-12.172,35.392-12.172,15.226,0,26.901,4.184,35.018,12.547,8.111,8.368,12.418,19.662,12.922,33.894Zm266.514,17.228c0,276.142-223.858,500-500,500S0,776.142,0,500,223.858,0,500,0s500,223.858,500,500Zm-754.887-96.252h-39.7v26.591c-5.495-8.989-13.799-16.228-24.906-21.722-11.113-5.489-23.911-8.24-38.389-8.24-27.217,0-49.437,9.053-66.665,27.153-17.228,18.105-25.842,42.262-25.842,72.47s8.614,54.37,25.842,72.471c17.228,18.105,39.448,27.152,66.665,27.152,14.478,0,27.276-2.809,38.389-8.427,11.107-5.618,19.411-12.921,24.906-21.909v26.591h39.7v-192.13Zm324.71,75.653c0-23.718-6.619-42.819-19.85-57.302-13.237-14.478-30.588-21.722-52.058-21.722-28.464,0-49.314,11.61-62.546,34.831-12.734-23.22-33.087-34.831-61.047-34.831-25.971,0-44.445,9.615-55.43,28.839v-25.467h-39.699v192.13h41.947v-109.735c0-13.483,4.055-24.655,12.172-33.52,8.111-8.859,18.662-13.295,31.647-13.295,11.482,0,20.786,4.184,27.902,12.547,7.116,8.368,10.674,19.662,10.674,33.894v110.11h42.321v-116.852c1.247-11.733,5.554-21.283,12.921-28.651,7.362-7.362,16.912-11.048,28.651-11.048,12.734,0,22.594,4.12,29.587,12.359,6.987,8.24,10.487,19.604,10.487,34.082v110.11h42.321v-116.477Zm204.111,58.801l-42.322-2.248c-5.494,18.229-20.727,27.34-45.691,27.34-14.736,0-26.72-4.307-35.955-12.921-9.24-8.615-14.36-20.16-15.355-34.644h141.196v-20.599c0-29.213-8.116-52.305-24.344-69.287-16.233-16.976-38.079-25.467-65.541-25.467-28.464,0-51.561,8.93-69.287,26.779-17.731,17.854-26.591,42.134-26.591,72.845s8.989,54.997,26.966,72.845c17.977,17.854,41.32,26.779,70.036,26.779,21.722,0,40.694-5.864,56.928-17.602,16.227-11.733,26.216-26.34,29.962-43.819Zm131.834,57.676h50.187l-64.044-97.75,61.048-94.38h-49.812l-41.946,65.916-42.696-65.916h-49.812l60.673,93.63-62.17,98.5h49.062l44.943-68.913,44.568,68.913ZM148.861,436.331c-16.731,0-30.336,5.618-40.823,16.854-10.487,11.236-15.73,26.843-15.73,46.816s5.243,35.521,15.73,46.629c10.487,11.113,24.092,16.666,40.823,16.666,16.227,0,29.336-5.114,39.325-15.355,9.983-10.235,14.981-24.59,14.981-43.07v-10.112c0-18.475-4.998-32.829-14.981-43.07-9.989-10.235-23.098-15.355-39.325-15.355Z"/></svg>