<svg xmlns="http://www.w3.org/2000/svg" viewBox="0 0 1000 1000"><path d="M500.496 5C223.572 5 5 229.506 5 500.002c0 276.43 224.506 495.001 495.002 495.001 276.43 0 495.001-224.506 495.001-495.001C995.003 226.539 773.464 5 500.496 5zM153.352 601.376c-49.45-77.144-36.593-176.045 37.583-245.276 86.044-68.242 178.022-65.275 259.121 0 34.616 30.66 55.385 70.22 62.308 112.748 21.759 130.55-78.132 227.473-215.605 227.473-58.352 0-112.747-40.55-143.407-94.945zm23.736-85.056c9.89 73.187 65.275 139.451 163.188 124.616 74.176-7.912 124.616-69.23 121.649-141.429-6.923-92.967-79.122-139.45-153.298-136.484-73.187 0-137.473 70.22-131.539 153.297zm75.166 61.32 3.956-21.76h10.879c2.967 0 6.923-.988 7.912-2.966.989-.99 1.978-3.956 1.978-5.934v-80.11c0-9.89 2.967-12.858-13.846-12.858h-10.88v-19.78h38.572v-31.648h19.78v31.648h14.836v-31.648h18.79v31.648c7.913.99 13.847.99 19.781 2.967 4.945 1.978 10.88 3.956 15.824 7.912 4.945 3.956 7.913 8.901 9.89 15.825 3.957 13.846-.988 27.692-10.879 34.615l-4.945 1.978c23.737 11.868 33.627 21.758 24.726 53.407-5.934 20.77-24.726 21.758-54.396 26.703v32.638H325.44v-32.638h-14.836v32.638h-19.78v-32.638zm58.351-21.76c19.78 0 53.407 0 53.407-21.757 0-16.814-19.78-20.77-46.483-20.77h-6.924zm0-62.307h15.825c6.923-.989 14.835-1.978 19.78-4.945 5.934-2.967 7.912-6.923 7.912-13.846 0-17.802-16.813-18.792-43.517-18.792zm260.111 202.748V331.375c0-15.825 5.934-19.78 19.78-19.78 32.638 0 32.638 0 32.638 32.637v165.165c6.923-5.934 10.88-9.89 13.846-13.846 34.616-33.626 102.858-112.748 131.539-140.44 17.802-20.77 17.802-20.77 3.956-43.517h80.11v82.089c-10.879-10.88-17.802-14.836-26.703-22.748-6.923 6.923-10.88 11.868-16.813 18.792-22.748 23.736-42.528 47.472-66.264 74.176-6.923 4.945-2.967 12.857 0 19.78 40.55 68.242 83.077 142.418 125.604 211.649-6.923 0-13.846.989-15.824.989h-46.483c-37.583-58.352-70.22-121.649-109.781-183.957-6.923 6.923-10.88 10.88-13.846 14.836-15.824 15.824-31.649 31.648-45.495 51.428-6.923 6.923-13.846 19.78-13.846 30.66v87.033z"/></svg>