<svg xmlns="http://www.w3.org/2000/svg" width="1000" height="1000">
  <path d="m593.563 932.478-13.635 20.453c21.589 7.954 45.45 17.044 64.767 27.27 12.499 2.273 20.453 0 28.406-7.953 53.405-61.359 94.31-132.943 117.036-210.21 5.68-23.86 10.226-47.722 17.044-77.265 9.09 23.862 17.043 38.633 24.997 62.495 23.862-21.59 43.178-38.633 61.359-55.677 4.545-2.273 4.545-9.09 0-18.18-43.178-122.717-115.9-222.708-228.39-293.157-3.408-4.545-9.09-5.68-14.77-4.545-32.952 9.09-68.177 20.453-98.856 28.407 2.273 5.681 2.273 9.09 17.044 20.453 52.268 28.406 104.536 68.176 145.442 117.035 9.09 6.817 12.499 18.18 12.499 35.224 0 131.807-43.178 249.978-132.943 355.65zM7.251 416.615c26.134 70.448 57.95 131.806 107.945 186.347 20.453 22.725 42.042 46.587 64.767 70.448l-55.677-9.09c3.41 27.27 5.682 49.996 13.635 73.857 4.546 9.09 9.09 17.044 18.18 19.317 112.49 20.453 220.436 9.09 323.836-34.088 71.584-34.088 65.903-40.906 71.584-109.081v-22.726c-6.817 5.682-7.954 6.818-18.18 11.363-54.54 29.543-111.354 49.996-171.576 64.767-18.18 5.681-27.27 0-39.769-6.818C216.324 595.008 144.74 509.788 95.88 401.843c-7.954-21.589-15.908-35.224-20.453-59.085-21.589 14.771-42.042 31.815-57.95 46.587-10.226 6.817-15.907 14.771-10.226 27.27zm98.855-81.811c40.906 107.945 102.264 197.71 192.029 268.158 52.268 32.952 67.04 20.453 152.259-7.954-11.363-9.09-15.908-12.499-23.862-15.907-49.995-30.68-99.99-63.631-139.76-112.49-13.635-15.908-15.908-28.407-15.908-47.724 6.818-130.67 48.86-247.705 132.943-349.969 7.954-11.362 7.954-12.499 17.044-22.725-23.862-7.954-44.314-17.044-68.176-24.998-9.09-4.545-18.18-2.272-26.134 7.954-48.86 59.086-94.31 130.67-118.171 207.936-10.227 26.134-11.363 47.723-20.453 72.721-2.272-17.044-10.226-32.951-17.044-48.86-20.453 15.909-35.224 31.816-55.677 47.724-11.362 7.954-11.362 13.635-9.09 26.134zm40.906 459.05c3.408 22.726 9.09 42.042 10.226 61.359 0 19.316 10.226 28.406 22.725 32.951 72.721 10.227 146.578 10.227 214.754-4.545 36.36-9.09 68.176-17.044 101.127-28.406-15.907 19.316-26.134 35.224-37.496 55.676 21.589 5.682 43.178 13.636 62.494 21.59 14.772 4.544 23.862 4.544 35.224-7.954 72.721-88.629 121.58-193.165 130.67-306.792 4.546-31.815 0-45.45-24.997-69.312-11.363-11.362-23.862-23.861-36.36-32.951-4.546-4.545-12.5-7.954-20.453-13.635v30.679c-3.41 59.085-11.363 117.035-29.543 176.12-4.545 5.682-6.818 14.772-15.908 17.044-101.127 59.086-206.8 89.765-319.29 80.675-31.815-4.545-62.494-9.09-93.173-12.499zm157.94-382.92c0 5.68 0 10.226 5.681 15.907 23.862 23.862 51.132 47.723 72.721 71.585l3.41-5.681c5.68-5.682 5.68-14.772 5.68-23.862 0-57.95 11.363-119.308 29.543-174.985 4.545-9.09 9.09-17.044 17.044-21.589 129.534-72.72 246.57-87.492 409.055-62.494-4.545-22.725-7.954-47.723-11.363-64.767-6.817-21.589-10.226-22.725-20.452-27.27-70.449-12.5-138.624-12.5-206.8-3.41-40.906 9.091-70.449 17.045-105.673 30.68 12.5-17.044 23.862-34.088 40.906-52.268-28.407-5.681-52.268-19.317-74.994-27.27-6.817-3.41-13.635-7.954-24.997 7.953-80.675 97.719-131.807 211.345-139.76 337.47zm134.08-2.273c7.953-3.409 146.577-59.086 170.439-65.903 31.815-17.044 59.085-7.954 90.9 11.362 147.715 98.855 129.535 112.49 229.526 306.791 19.316-17.043 38.633-32.951 53.404-43.178 10.227-7.953 15.908-14.77 7.954-31.815-19.316-53.404-46.587-111.354-85.22-159.077-26.134-30.679-57.949-60.222-89.764-97.718 17.044 2.272 31.815 5.68 51.131 7.953-3.408-28.406-7.953-52.268-11.362-81.81 0-3.41-7.954-4.546-15.908-7.954-107.945-21.59-214.754-15.908-319.29 24.997-79.538 30.68-57.95 32.952-81.81 136.352z" style="fill:#000;fill-opacity:1;fill-rule:nonzero;stroke:none;"/>
</svg>
