<svg xmlns="http://www.w3.org/2000/svg" viewBox="0 0 1000 1000"><path d="M500.3,5C226.9,5,5.3,226.6,5.3,500s221.6,495,495,495,495-221.6,495-495S773.7,5,500.3,5ZM624.7,847.2c-8.3,9.8-21.2,9.2-21.2,9.2h-133s-52.8.2-71.6,0c-18.8-.1-24.4-14.7-24.4-14.7a30.605,30.605,0,0,1-1.4-16.8c1.9-9.2,12.3-17.3,12.3-17.3s98.7-73.9,103.5-77.1,12.8-3.2,12.8-3.2c8.4.3,12.7,3.4,12.7,3.4s95,70.4,103.9,77.4a33.2,33.2,0,0,1,11.3,16S633,837.4,624.7,847.2ZM846,470.3c-23.4,27.7-59.6,25.9-59.6,25.9H682.7c-21.1,0-30.1,27-13.1,39.7,26.7,20,48,35.9,53.3,40.1,16.9,13.3,21.3,30.2,21.3,30.2s6.5,25.1-9.3,43.8-40.2,17.5-40.2,17.5H442.9s-100,.3-135.6,0c-35.5-.3-46.2-27.9-46.2-27.9a57.872,57.872,0,0,1-2.7-31.8c3.5-17.4,23.3-32.7,23.3-32.7s22.4-16.8,52.1-39c16.9-12.6,8-39.6-13.2-39.6-40.4,0-83.9,0-107.8-.2-52.7-.5-68.5-41.4-68.5-41.4a86.429,86.429,0,0,1-3.9-47.1c5.3-25.7,34.6-48.4,34.6-48.4S451.8,152.1,465.3,143.3c11.8-7.8,30.5-8.9,34.9-9h1.7c22.9,1,35.1,9.6,35.1,9.6S803.3,341,828.3,360.7c25,19.8,31.6,44.8,31.6,44.8S869.4,442.7,846,470.3Z"/></svg>