<svg xmlns="http://www.w3.org/2000/svg" viewBox="0 0 27 27">
	<path
		d="M27 13.5C27 6 21 0 13.5 0S0 6 0 13.5 6 27 13.5 27 27 21 27 13.5zM11.6 7.1l.3 4c-1.4-3.3-3.4-4-4.2-3.9-.7.1-2.2.4-2.2 1.9 0 1.4 1.6 2.2 2.4 2.4 1.5.3 4.4 1.4 4.4 3.7 0 2.9-2.4 3.8-3.3 3.8-.5 0-1.3-.1-2.1-.2-.7-.1-1.3-.2-1.5-.2-.5 0-1.1.2-1.4.3v-4.6c1.1 3.3 3.4 4.3 4.5 4.4.7.2 2.2.1 2.2-1.6s-2-2.5-3-2.7c-1.1-.2-3.7-1-3.7-3.8C4 7.9 6.4 7.1 7.7 7c2.3.2 3.5.2 3.9.1zm2.7 2c0-1-.8-1.6-1.2-1.8l-.2-.1h6.7c.7 0 2.9 1 2.9 3 0 1.6-1.6 2.6-2.4 2.8.5 1.7 2.9 4.5 4 5.7h-3.4c-.9-1.5-2.8-4.7-3-5.3-.3-.5-.6-.5-.7-.4v4c0 .7.8 1.4 1.2 1.6h-4.9c.5 0 1-1.1 1.2-1.6V9.1zm2.6 3.6V7.4c1.4 0 2.9.8 2.9 3.1 0 1.8-1.1 2.2-1.7 2.2h-1.2z"
		fill-rule="evenodd" clip-rule="evenodd" />
</svg>