<svg xmlns="http://www.w3.org/2000/svg" width="1000" height="1000">
  <path d="M500.496 5C223.572 5 5 229.506 5 500.002c0 276.43 224.506 495.001 495.002 495.001 276.43 0 495.001-224.506 495.001-495.001C995.003 226.539 773.464 5 500.496 5zM136.54 607.31c46.484-79.121 95.934-156.265 139.45-239.342 9.891-18.791 19.781-38.571 34.616-58.352 35.605-59.34 105.825-62.308 141.43-2.967 12.857 18.792 45.494 73.187 46.483 78.132 3.956-4.945 25.715-43.516 45.495-78.132 33.626-59.34 112.747-59.34 150.33 0 56.374 98.902 115.715 198.792 171.1 297.694 33.626 60.33-4.946 126.593-72.199 126.593H508.408c-98.901 0-197.803-3.956-301.65-3.956-59.34 3.956-103.846-62.307-70.22-119.67zm247.253 2.967c-33.626 56.374 9.89 123.627 70.22 119.67h12.858c-54.396-3.956-90.99-66.263-60.33-119.67 46.483-81.1 93.956-158.243 138.462-238.353 10.879-19.78 19.78-40.55 34.615-60.33 15.825-25.714 38.572-41.538 62.308-44.505-30.66-5.934-64.286 9.89-85.055 44.505-13.846 19.78-22.747 40.55-33.627 60.33-44.505 81.1-91.978 158.243-139.45 238.353z" style="fill:#000;fill-opacity:1;fill-rule:nonzero;stroke:none;"/>
</svg>
