<svg xmlns="http://www.w3.org/2000/svg" viewBox="0 0 1000 1000"><path d="M500.496 5C223.572 5 5 229.506 5 500.002c0 276.43 224.506 495.001 495.002 495.001 276.43 0 495.001-224.506 495.001-495.001C995.003 226.539 773.464 5 500.496 5zM331.375 735.882V281.924h76.154c4.945 0 5.934 2.967 5.934 5.934v441.1c0 5.935-.99 6.924-7.912 6.924h-58.352zm140.44 141.429V141.484c0-8.901 0-8.901 8.9-8.901h65.276c8.901 0 8.901 0 8.901 8.9v733.85c0 9.89 0 9.89-10.88 9.89h-65.274c-6.923 0-6.923 0-6.923-7.912zm140.44-148.353V292.803c0-10.879 0-10.879 9.89-10.879h64.286c5.934 0 8.901 1.978 8.901 6.923a16468.56 16468.56 0 0 0 0 442.09c0 3.956-2.967 4.945-8.901 4.945h-67.253c-5.934 0-6.923-.99-6.923-6.924z"/></svg>