<svg xmlns="http://www.w3.org/2000/svg" viewBox="0 0 1000 1000"><path d="M548.1,548.561l.013-1.082h1.09Zm1.108-1.078s-1.108,1.078-1.108,1.078H549.2Zm95.351,95.6V548.561H549.2c.006,31.293.006,62.589.006,94.526ZM10.229,355.168H304.092V642.8H10.229Zm99.038,190.717h94.982v-91.77H109.267Zm588.4,96.617h95.873V548.547c-31.746,0-63.495,0-95.873,0Zm292.1-190.779V355.168H891.817q-.139,48.134-.278,96.268l-97.375-.013q-.15-48.127-.3-96.255H695.908v96.84h97.657l1.062,95.462,96.886,1.1v96.262h98.258V548.277l-97.65-.3q-.008-47.986-.014-95.971Zm-195.132,96.82-.012-1.073-1.085-.012Zm0,0s-1.093-1.089-1.093-1.089v1.089ZM548.676,451.424H451.023V355.168H353.069V643.011h98.317V547.479h96.723l1.15-95.458h97.672V355.168H548.977Q548.827,403.3,548.676,451.424Z"/></svg>