<svg xmlns="http://www.w3.org/2000/svg" width="1000" height="1000">
  <path d="M500.496 5C223.572 5 5 229.506 5 500.002c0 276.43 224.506 495.001 495.002 495.001 276.43 0 495.001-224.506 495.001-495.001C995.003 226.539 773.464 5 500.496 5zM236.43 761.596V407.529c0-20.77 9.89-27.693 30.66-27.693h86.044c26.703 0 34.616 7.913 34.616 34.616v183.957c0 17.802 14.835 27.692 30.659 27.692h186.924c22.747 0 23.736 5.934 23.736 25.714v100.88c0 12.857 0 17.802-10.88 17.802H244.342c-5.934 0-7.912-1.978-7.912-8.901zm155.276-450.002v-64.286c0-7.912 0-21.758 15.824-21.758h361.98c15.823 0 15.823 8.901 15.823 24.726v341.21c0 19.78-4.945 24.725-20.769 24.725h-80.11c-17.802 0-31.649-9.89-31.649-28.682v-59.34c0-15.825-9.89-27.693-25.714-27.693h-86.044c-21.759 0-33.627-8.901-33.627-27.692V374.89c0-19.78-9.89-31.648-30.66-31.648h-54.395c-19.78 0-30.66-10.88-30.66-31.649z" style="fill:#000;fill-opacity:1;fill-rule:nonzero;stroke:none;"/>
</svg>
