<svg xmlns="http://www.w3.org/2000/svg" viewBox="0 0 1000 1000"><path d="M500.496 5c272.968 0 494.507 221.54 494.507 495.002 0 270.495-218.572 495.001-495.001 495.001C229.506 995.003 5 776.431 5 500.002 5 229.506 223.572 5 500.496 5zM184.012 634.013c0 10.88 0 10.88 11.868 10.88h176.044v1.977c-2.967 1.978-4.945 2.967-7.912 3.956-12.857 8.901-27.692 17.803-40.55 25.715-5.933 1.978-8.9 5.934-8.9 12.857v46.484c0 9.89 0 9.89 10.879 9.89h213.627c33.626 0 67.253-.99 98.901-2.967 21.758 0 41.539-2.967 61.319-12.858 54.396-27.692 90.99-88.022 85.055-151.319-4.945-30.66-15.824-59.34-40.55-81.099-10.878-9.89-23.736-15.824-37.582-24.725 4.945-2.967 9.89-7.912 12.857-10.88 56.374-49.45 51.43-133.516-8.9-176.044-32.638-22.747-67.254-32.637-107.803-32.637H326.43c-11.869 0-11.869 0-11.869 13.846v257.143c0 10.88 0 10.88-11.868 10.88H195.88c-11.868 0-11.868 0-11.868 10.879zm243.297 5.934v-93.956c0-5.934.99-10.88 8.901-10.88 28.682.99 57.363 0 85.055 0v.99c30.66 0 58.352-.99 86.045 0 20.769 0 38.571 8.9 52.417 26.703 23.737 30.66 2.968 78.132-31.648 84.066-11.868 1.978-21.758 3.956-35.604 3.956H437.199c-9.89 0-9.89 0-9.89-10.879zm0-198.792V357.09c0-5.934 1.978-5.934 8.901-5.934h80.11c25.715 0 53.407-.989 80.11 0 38.572 0 59.341 39.56 39.561 72.198-8.901 17.802-24.725 22.747-43.516 25.714H434.232c-5.934 0-6.923-2.967-6.923-7.912z"/></svg>