<svg xmlns="http://www.w3.org/2000/svg" width="1000" height="1000">
  <path d="M500.496 5C223.572 5 5 229.506 5 500.002c0 276.43 224.506 495.001 495.002 495.001 276.43 0 495.001-224.506 495.001-495.001C995.003 226.539 773.464 5 500.496 5zM201.814 734.893V258.188c.989-1.978.989-4.945 1.978-6.923 7.912-30.66 37.582-50.44 69.23-44.506 28.682 4.945 48.463 28.681 48.463 57.363v143.407c2.967-1.978 3.956-1.978 4.945-3.956 55.384-55.385 109.78-108.792 165.165-163.188 26.703-26.703 52.418-52.417 80.11-78.132 22.748-21.758 59.341-21.758 82.088.99 57.363 58.351 115.715 115.714 174.067 173.077 26.703 26.703 20.77 71.209-10.88 92.967-22.747 14.835-54.395 11.868-75.164-8.901-42.528-41.539-84.067-84.066-125.605-126.594-5.934-4.945-5.934-4.945-9.89 0-67.253 66.264-134.506 131.539-199.781 198.792-4.945 3.956-4.945 3.956 0 7.912 66.264 68.242 133.517 133.517 200.77 199.781.989 1.978 2.967 2.967 3.956 4.945.989-1.978 2.967-3.956 4.945-4.945l79.121-79.121c15.824-15.824 32.637-31.649 48.462-47.473 23.736-23.736 61.319-23.736 84.066.99 22.747 22.747 22.747 60.33 0 83.076-58.352 58.352-116.704 115.715-174.067 173.078-6.923 7.912-16.813 12.857-24.725 14.835-4.945.99-6.923.99-10.88 1.978h-13.845c-.99 0-2.967-.989-4.945-.989-10.88-1.978-20.77-6.923-29.67-15.824-4.946-3.956-8.902-8.901-12.858-12.857-76.154-75.165-152.308-150.33-230.44-226.485 0-.989-1.978-2.967-4.945-4.945v143.407c0 29.67-22.748 54.396-54.396 58.352-28.682 2.967-56.374-16.813-63.297-45.494-.99-1.978-.99-3.956-1.978-7.912zm350.11-237.364c0-32.637 26.704-61.319 59.342-61.319 33.626 0 61.319 28.682 61.319 61.32 0 33.626-26.704 59.34-60.33 59.34-33.627 0-60.33-25.714-60.33-59.34z" style="fill:#000;fill-opacity:1;fill-rule:nonzero;stroke:none;"/>
</svg>
