<?xml version="1.0" encoding="UTF-8"?><svg id="a" xmlns="http://www.w3.org/2000/svg" viewBox="0 0 1000 1000"><path d="m258.198,499.722l229.131-131.967-.081,78.664-.2,185.822-228.849-132.519Zm741.802.278c0,276.142-223.858,500-500,500S0,776.142,0,500,223.858,0,500,0s500,223.858,500,500Zm-219.618-7.056l.344-323.655-267.754,154.131-1.699.978-11.099,6.389-12.795-7.405v.009L220.125,168.627l-.344,323.653-.016,14.784-.016,14.772.006-.003-.481,308.866,280.524-161.484,280.077,162.159.525-338.419-.019-.011Zm-535.315,161.219l-.138,132.277,229.296-132.027-228.896-132.527-.263,132.277Zm509.728-176.025l.275-264.49-229.267,131.972,228.992,132.517Z"/></svg>