<?xml version="1.0" encoding="UTF-8"?><svg id="a" xmlns="http://www.w3.org/2000/svg" viewBox="0 0 1000 1000"><path d="M233.024,566.861c0,12.862-8.258,23.565-25.629,23.565h-39.968v-46.853h39.968c17.356,0,25.629,10.441,25.629,23.288Zm-2.747-78.716c0-13.11-9.098-21.946-25.359-21.946h-37.49v43.907h37.49c16.261,0,25.359-8.837,25.359-21.961Zm321.676,55.428h-39.967v46.853h39.967c17.371,0,25.629-10.703,25.629-23.565s-8.258-23.288-25.629-23.288Zm22.882-55.428c0-13.11-9.098-21.946-25.359-21.946h-37.491v43.907h37.491c16.26,0,25.359-8.837,25.359-21.961Zm425.166,11.856c0,276.143-223.858,500-500,500S0,776.143,0,500,223.858,0,500,0s500,223.858,500,500Zm-728.66,68.742c0-25.446-15.164-37.491-27.01-42.843,9.924-4.55,24.263-18.214,24.263-39.358,0-32.665-22.326-53.547-60.642-53.547h-78.839v190.622h82.142c35.013,0,60.086-19.278,60.086-54.874Zm175.844-135.748h-41.619l-36.109,76.835-36.664-76.835h-41.619l58.99,112.445v78.177h38.046v-78.177l58.976-112.445Zm168.715,135.748c0-25.446-15.165-37.491-27.011-42.843,9.924-4.55,24.263-18.214,24.263-39.358,0-32.665-22.326-53.547-60.642-53.547h-78.839v190.622h82.142c35.013,0,60.087-19.278,60.087-54.874Zm80.225-192.372h-38.316v190.622h38.316v-190.622Zm174.765,89.828v-33.204h-140.862v33.204h51.273v157.432h38.316v-157.432h51.273Z"/></svg>