<svg width="27" height="27" fill="none" xmlns="http://www.w3.org/2000/svg">
    <path
        d="M13.5 0C6.045 0 0 6.045 0 13.5S6.045 27 13.5 27 27 20.955 27 13.5 20.957 0 13.5 0zM6.66 13.954l.058-.092 3.512-5.495c.052-.078.173-.07.21.016.587 1.315 1.094 2.952.857 3.97-.1.418-.378.985-.691 1.509-.04.075-.084.151-.133.224a.12.12 0 01-.1.051h-3.61a.12.12 0 01-.102-.183zm15.653 1.89c0 .05-.03.094-.073.113-.273.116-1.204.545-1.59 1.083-.989 1.374-1.742 3.34-3.43 3.34h-7.036a4.521 4.521 0 01-4.514-4.531v-.081a.12.12 0 01.122-.119h3.92c.078 0 .135.07.13.149-.03.254.018.515.14.753.232.473.715.767 1.237.767h1.94v-1.515H11.24a.124.124 0 01-.1-.194l.07-.103c.181-.26.44-.659.7-1.115.175-.308.345-.637.483-.967.027-.059.049-.121.073-.18.038-.106.075-.206.103-.303a5.14 5.14 0 00.072-.251c.065-.28.092-.578.092-.886a4.13 4.13 0 00-.016-.367c-.005-.132-.022-.264-.038-.397-.01-.116-.032-.232-.054-.35a7.306 7.306 0 00-.11-.527l-.017-.068c-.032-.121-.062-.235-.1-.356-.11-.378-.234-.748-.37-1.094a5.863 5.863 0 00-.159-.4c-.08-.199-.165-.38-.24-.55a4.009 4.009 0 01-.105-.221c-.038-.081-.076-.162-.116-.24-.027-.06-.06-.117-.082-.17l-.237-.438c-.033-.06.021-.133.086-.114l1.485.403h.011l.195.056.216.06.078.021v-.88c0-.426.34-.772.764-.772.21 0 .402.086.537.227.138.14.224.332.224.545v1.31l.16.043c.01.005.024.01.035.019l.164.124c.057.043.117.097.187.154a11.645 11.645 0 01.645.567c.24.224.51.486.77.777.072.084.143.165.215.254.07.09.149.176.214.262.089.116.18.238.264.365.038.06.084.121.12.18.107.16.199.325.288.49.038.075.076.159.108.24.1.221.178.445.227.672.016.049.027.1.032.148v.011c.017.065.022.135.027.208a2.314 2.314 0 01-.118.983c-.036.094-.068.192-.111.286-.084.192-.181.386-.297.564-.038.068-.084.138-.127.206-.049.07-.1.137-.143.202-.062.084-.127.17-.195.248-.059.082-.118.163-.186.235-.092.111-.18.214-.275.314a2.342 2.342 0 01-.176.191c-.06.068-.121.127-.175.181-.095.095-.17.165-.235.227l-.154.138a.114.114 0 01-.081.032h-1.183v1.515h1.488c.332 0 .648-.116.905-.335.086-.076.467-.405.918-.902a.106.106 0 01.056-.035l4.107-1.188a.12.12 0 01.154.116v.87z"
        fill="#000" />
</svg>