<svg xmlns="http://www.w3.org/2000/svg" viewBox="0 0 27 27">
	<path
		d="M15 0h2.3c.6.1 1.1.4 1.4 1 .1.2.2.4.3.7v11.4c0-.1-.1-.3-.2-.4v-.1c0-.1 0-.1-.1-.2 0 0-.1-.1-.2-.1l-.1-.1v-.1c0-.1 0-.1-.1-.1 0 0-.1-.1-.2-.1s-.1 0-.1-.1-.1-.4-.2-.8c0-.2-.1-.4-.1-.6-.1-.2-.1-.4-.3-.7-.1-.2-.1-.3-.2-.4 0-.1-.1-.3-.1-.6-.1-.1-.1-.4-.1-.5v-.5-.5c-.1-.8-.3-1.5-.6-1.9l-.4-.4c-.1-.1-.2-.1-.2-.2l-.2-.2v-.1s0-.1-.1-.1c-.1-.1-.3-.2-.5-.3-.2-.1-.2-.1-.2-.2v-.2h.1c.1-.1.3-.3.4-.6l.1-.2h.1c.1 0 .1-.1.1-.2 0 0 .1-.1.1-.2.2-.3.2-.4.1-.5v-.1l.1-.1c.1-.3.2-.5.2-.8 0-.2 0-.3-.1-.4-.1-.1-.1-.2-.2-.3 0 0-.1 0-.1-.1l-.1-.1c-.3.2-.4.1-.6 0zm-.2 7.9c.2-.2.6-.4.7-.4l.1.3c.1.7.2 1.4.3 1.8.1.4.1.4.2.7.2.5.4.9.5 1.2.1.3.2.4.2.4h-.1c-.5.2-.9.6-1.1 1.1-.3.7-.2 1.4.2 2 .1.1.3.4.4.5.6.4 1.3.5 1.9.2.3-.1.5-.3.7-.6.1-.1.2-.3.2-.4v-.1 10.5c0 .5-.2.9-.5 1.3-.2.3-.5.5-.8.6-.1 0-.3.1-.3.1s-.1 0 0 0c.2-.1.3-.3.4-.5.1-.3.1-.6 0-1.1 0-.1-.1-.3-.1-.5-.1-.2-.1-.4-.1-.4v-.1-.1c0-.1 0-.2-.1-.2 0-.1-.1-.2-.1-.5 0-.2 0-.3-.1-.3 0-.2 0-.5.1-1 0-.1.1-.2.1-.3 0-.2 0-.3-.1-.6-.1-.2-.1-.2-.3-.4-.1-.1-.1-.2-.1-.2 0-.1-.1-.3-.2-1.2-.1-.6-.2-1.1-.2-1.3-.1-.2-.2-.5-.4-.9-.1-.3-.3-.5-.4-.8-.1-.3-.1-.5-.2-.9-.1-1-.2-1.6-.4-2.4L15 13l.1-.1-.1-.8c-.1-.6-.3-1.2-.4-1.4-.1-.3-.2-.5-.3-.6 0-.1-.1-.1-.2-.1v-.2l.1-.3c.2-.6.4-1.2.5-1.3 0-.2.1-.2.1-.3zM11.9 0H10c-.5 0-1 .3-1.3.6-.4.4-.6.8-.7 1.3v23c0 .6.2 1.1.6 1.5.4.3.9.6 1.4.6h6.5l-.1-.1c-.1-.1-.3-.3-.3-.4-.1-.2 0-.4 0-.9.1-.5.1-.8.1-1v-.2l-.1-.1c-.1-.1-.2-.3-.1-.4v-.1s-.1-.2-.1-.4c-.1-.2-.2-.4-.3-.7-.2-.4-.3-.5-.3-.6 0-.1 0-.1.1-.2v-.1c0-.1-.1-.2-.2-.5l-.1-.2.1-.1c-.4-.3-.9-.7-1.4-1.1l-.6-.6-.5-.5-.3-.3s0-.1-.1-.1c-.5-.5-1.5-2.1-1.9-2.8 0-.1-.1-.1-.1-.1H10c-.1 0-.3 0-.3-.1 0 0 0-.1-.1-.2-.1-.3-.2-.6-.5-1.2-.5-.9-.6-1.4-.5-2 0-.4.2-1 .2-1.1 0-.1.1-.2.3-.3l.1-.1V10H9c-.4 0-.5 0-.6-.1-.1 0-.1-.1-.1-.3 0-.1 0-.2-.1-.2-.1-.2-.1-.3 0-.5 0-.1 0-.2.1-.2 0-.4.3-.9.7-1.9.1-.2.2-.3.2-.4.1-.4.3-.7.4-1 .3-.6.5-1 .8-1.2.1-.1.2-.2.3-.2.2-.1.3-.1.8-.2h.3l.1-.1h.1c.5 0 .7-.1.8-.3 0-.1.1-.2.1-.6v-.4c-.1 0-.2-.2-.2-.5s0-.3.2-.3h.1v-.1-.6c0-.3.1-.4.3-.6.1-.1.2-.2.4-.3.1 0 .1 0 .1-.1 0 .1-.9.1-1.9.1zM9.4 25.6v-4.1h.7l.1.5c0 .2.1.4.1.6 0 .1.1.5.1.8.1.3.1.7.2.9 0 .2.1.3.1.3v-.7-.4-.2-.3-.3-1.4h.3v4.1h-.7l-.1-.3c0-.2-.1-.5-.1-.8 0-.3-.1-.7-.2-.9-.1-.6-.2-.9-.2-1.1v-.1 3.2H9.4zm2-4.1h.9c.2 0 .4.2.5.4.1.2.1.2.1.8v.5c0 .1-.1.2-.1.3l-.1.1.1.1c.1.1.1.1.2.3v.6c0 .6 0 .6-.1.7-.1.2-.2.3-.4.3h-1v-4.1zm.5.5v1.4h.1c.2 0 .2 0 .2-.1v-.5-.6c0-.1-.1-.1-.2-.1l-.1-.1zm.1 1.8h-.1v1.3h.1c.2 0 .2 0 .3-.1v-.5-.5c0-.2-.1-.2-.3-.2zm1.5-2.3c0 .1 0 .1-.2 1.4-.1.6-.1 1.2-.1 1.3-.1.6-.2 1.3-.2 1.4h.5v-.1-.4-.3h.4v.8h.6s0-.2-.2-2c-.1-.5-.1-1.1-.2-1.4 0-.3-.1-.6-.1-.6h-.5zm.3.5s0 .2.2 1.9v.4h-.4v-.5c0-.3.1-.7.1-1v-.5-.2l.1-.1z"
		fill-rule="evenodd" clip-rule="evenodd" />
</svg>