<svg xmlns="http://www.w3.org/2000/svg" viewBox="0 0 1000 1000"><path d="M500.496 5C223.572 5 5 229.506 5 500.002c0 276.43 224.506 495.001 495.002 495.001 276.43 0 495.001-224.506 495.001-495.001C995.003 226.539 773.464 5 500.496 5zM134.561 503.463c0-171.1 137.473-321.43 290.77-321.43h328.353v65.275c0 9.89-4.945 11.869-13.846 11.869H464.892c-54.396 0-106.814 10.879-151.32 41.538-81.099 55.385-116.703 153.297-94.945 248.243 20.77 91.978 102.858 161.21 195.825 174.066 10.88 1.978 22.747 1.978 32.637 1.978h286.815c19.78 0 19.78 0 19.78 20.77v41.538c0 11.868-1.978 14.836-13.846 14.836H442.144c-165.165 0-307.583-137.473-307.583-298.683zm161.21-102.857c33.626-52.418 82.087-79.121 144.395-80.11h91.979c4.945 0 11.868-.99 15.824 2.967l67.253 67.253s4.945 3.956 1.978 4.945H442.144c-51.428 2.967-96.923 45.494-94.945 99.89 1.978 50.44 43.517 91.978 92.967 91.978h160.22c23.737 0 20.77 2.967 11.869 13.847-15.824 14.835-47.473 44.505-64.286 59.34-7.912 7.913-10.88 6.924-13.846 6.924-36.594 0-74.176 0-110.77-1.978-124.616-6.924-194.836-159.232-127.583-265.056zm109.78 91.978c0-21.758 17.802-38.572 39.56-38.572h199.781c33.627 0 51.429 16.814 69.231 38.572-22.747 29.67-35.604 38.572-69.23 38.572H447.088c-23.736 0-41.538-15.825-41.538-38.572zM620.167 667.64c60.33-66.264 60.33-80.11 123.627-80.11 7.912 0 9.89 2.966 9.89 10.879v59.34c0 4.945-1.978 9.89-9.89 9.89zm3.956-344.177c-5.934-4.945-3.956-2.967 9.89-2.967h105.825c11.868 0 13.846.989 13.846 10.879v53.406c0 7.913 0 11.869-11.868 12.858-54.396 0-59.341-15.825-117.693-74.176z"/></svg>