<svg xmlns="http://www.w3.org/2000/svg" viewBox="0 0 1000 1000"><path d="M646.295 481.426c108.658-77.613 92.1-201.793-14.488-221.455-43.463-5.175-33.114-22.767-33.114-87.961 0-14.488-5.175-24.837-26.906-24.837h-17.592c-15.523 0-25.871 10.349-25.871 24.837v54.846c0 22.766-5.175 26.906-28.976 30.01-47.602 0-43.463-22.766-43.463-84.856 0-22.767-13.453-24.837-30.01-24.837-14.488 0-31.045 2.07-34.15 24.837-2.07 41.393 15.523 84.856-33.115 84.856h-73.473c-21.732 0-38.289 8.279-36.22 33.115 0 19.662 6.21 30.01 36.22 30.01 34.15 0 38.289 4.14 38.289 42.429v264.918c0 44.498 0 50.707-48.637 50.707-25.871 0-25.871 18.627-25.871 34.15 0 17.592 6.209 27.94 25.87 27.94h78.648c38.29 0 38.29 49.672 38.29 94.17 0 19.662 64.16 19.662 64.16-3.104 0-76.578 10.347-91.066 34.149-91.066 38.289 0 38.289 0 38.289 40.359v23.8c0 47.603 0 47.603 50.707 44.499 14.487 0 19.662-7.244 19.662-19.662v-65.195c0-14.487 3.104-23.801 17.592-23.801 76.578-6.209 128.32-37.254 138.668-115.902 6.209-86.926-42.428-120.04-108.658-142.807zM9.87 627.338c-10.348 10.348-3.104 16.557 11.384 24.836 22.766 9.313 22.766 15.522 22.766 34.15-10.348 98.309 30.01 172.817 117.971 216.28 39.324 23.802 82.787 28.976 127.285 28.976 0-1.035-4.139-4.14-10.348-5.174-87.961-19.662-155.226-107.623-155.226-196.62 0-53.81 1.035-57.95 47.603-57.95 26.906 0-27.94-75.543-52.777-132.46-4.14-7.243-12.418-9.313-19.662 0-30.01 30.01-58.985 60.021-88.996 87.962zm446.015-20.697v-12.418c0-55.881-8.279-79.682 31.045-79.682h47.603c44.498 6.209 67.264 40.358 71.403 79.682 0 43.463-34.15 83.822-77.612 83.822-81.752 0-69.334 8.278-72.439-71.404zm0-224.56c3.105-67.264-5.174-62.09 64.16-62.09 38.289 0 68.3 28.976 68.3 62.09-2.07 47.603-14.489 69.334-64.16 69.334-57.952 0-68.3 5.175-68.3-69.334zm245.256-312.52c102.45 19.662 170.749 98.31 180.062 205.932 5.174 54.847 0 63.125-57.95 63.125 20.696 40.359 42.428 86.927 65.194 130.39 0 0 6.209 8.278 17.592-2.07 30.01-30.01 53.812-60.02 83.822-87.961 10.348-11.383 4.14-17.592-10.348-23.801-19.662-6.21-19.662-10.349-19.662-35.185-3.105-36.22-3.105-73.473-13.453-103.483C906.039 120.268 806.695 59.212 701.14 69.56z"/></svg>