<svg xmlns="http://www.w3.org/2000/svg" viewBox="0 0 1000 1000"><path d="M752.635 568.393c-2.062 1.031-4.125 4.124-5.156 5.156-21.654 20.623-42.277 41.246-63.931 59.806-3.094 3.094-7.218 4.125-10.312 4.125-32.996 1.031-65.993 1.031-97.959 1.031h-13.405c3.094-3.093 10.312-7.218 11.343-8.25 20.623-17.529 42.277-35.058 60.838-51.557 24.747-22.685 46.401-45.37 70.118-67.024 5.156-6.187 4.125-8.25 0-14.437-21.654-31.965-43.308-61.869-64.963-92.803-3.093-3.093 0-4.125 5.156-4.125 32.997 0 64.963-2.062 96.928 0 9.28 0 19.592 13.405 27.841 25.78 4.125 6.186 7.218 4.124 11.343 0 10.312-14.437 21.654-27.842 31.966-40.216 14.436-21.654 29.903-43.308 45.37-64.962 18.561-27.841 34.028-56.713 44.34-89.71 3.093-13.405 7.218-27.841 1.03-42.277-4.124-11.343-14.435-17.53-25.778-17.53-42.277-7.218-147.454 50.526-219.635 103.115-7.218 4.125-10.311-2.062-13.405-6.187-4.124-4.124 0-7.218 3.094-10.311 39.183-24.748 76.305-51.558 117.55-75.274 40.216-24.748 82.493-44.34 129.926-54.651 46.401-9.28 88.679-3.094 97.959 42.277 6.187 28.872-2.062 57.744-14.436 83.523-14.436 32.997-32.997 67.025-50.527 100.022-14.436 23.716-79.398 111.364-104.146 136.111-3.093 4.125-4.124 8.25-1.03 14.437 24.747 40.214 49.494 82.492 73.21 124.769 6.188 7.218 5.157 9.28-4.124 9.28-25.779 0-51.557-1.031-78.367 0-12.374 0-16.499-11.343-22.685-18.56-11.343-17.53-24.748-34.029-38.153-51.558zM6.082 554.988c3.094-20.623 4.125-39.184 8.25-59.807 2.062-15.467 5.155-30.934 10.311-45.37 7.218-28.873 46.402-49.496 79.399-49.496a1782.6 1782.6 0 0 1 148.485 0c25.779 0 54.651 22.686 58.776 47.433 3.093 10.312 2.062 11.343-8.25 11.343H91.669c-9.28 2.062-11.343 6.187-13.405 13.405-3.094 11.343-4.125 22.685-5.156 35.059-3.093 17.53-5.156 36.09-6.187 54.65-1.031 13.406 3.094 17.53 15.467 17.53h135.081c20.623 0 27.841-10.311 24.748-31.965h-115.49c-10.31 0-12.373-3.094-10.31-13.405 3.093-11.343 4.124-21.654 4.124-30.935 1.031-9.28 4.125-10.311 11.343-10.311H298.93c11.343 0 12.374 0 11.343 11.343-3.094 22.685-6.187 46.401-10.312 68.055-4.125 25.78-21.654 43.309-45.37 54.651-15.468 9.28-26.81 11.343-41.247 11.343-46.401 0-92.803 0-139.205-1.031-28.872 0-50.526-11.343-63.931-37.122-7.218-14.436-5.156-29.903-4.125-45.37zm207.261 258.819c0-29.904 8.25-57.745 19.592-84.555 10.312-22.685 20.623-44.34 31.966-63.931 10.311-17.53 21.654-34.028 31.966-49.495 2.062-3.094 4.124-8.25 7.218-6.187 5.155 3.093 7.218 7.218 9.28 12.374 1.031 2.062 1.031 7.218 0 9.28-12.374 23.716-26.81 45.37-36.09 68.056-6.187 13.405-10.312 27.84-13.405 42.277-3.094 13.405 1.031 30.935 15.467 38.153 9.28 5.155 39.184 3.093 60.838-5.156 16.498-5.156 30.934-12.374 46.402-19.592 14.436-9.28 30.934-16.498 45.37-24.748 10.312-6.187 18.561-11.342 28.872-18.56 4.125-2.063 1.032-6.187 0-9.28l-21.654-34.029c-6.187-10.311-4.124-12.373 7.218-12.373H657.77c4.125 0 15.467-2.063 10.312 9.28-13.405 17.53-24.748 32.997-38.153 48.464-28.872 37.121-60.838 68.056-92.803 102.084-4.125 3.093-5.156 3.093-8.25-2.062-7.218-11.343-14.436-22.686-20.623-34.028-12.373 7.218-24.747 14.436-36.09 21.654-15.467 8.249-29.903 18.56-46.402 26.81-14.436 7.218-28.872 13.405-44.339 19.591-18.56 7.219-37.121 15.468-59.807 21.655-15.467 3.093-26.81 8.249-46.402 5.155-18.56-4.124-35.059-7.218-47.432-21.654-10.312-11.342-13.405-24.747-14.437-39.183zm96.929-250.57c3.093-23.716 5.155-50.526 10.311-76.305 2.062-13.405 4.125-25.779 9.28-37.121 16.499-31.966 42.278-49.496 78.368-49.496 49.495-2.062 96.928-2.062 146.423 0 39.184 0 61.87 31.966 61.87 80.43 0 27.841-8.25 90.741-18.562 110.333-11.342 20.623-28.872 35.06-51.557 42.277-11.343 5.156-46.402 5.156-96.928 5.156h-70.118c-36.09 0-59.807-17.53-68.056-52.589-2.063-7.218-2.063-14.436-1.031-22.685zm60.837-2.062c-2.062 14.436 3.094 17.53 17.53 18.56h137.143c11.343-1.03 18.56-4.124 20.623-13.404 1.031-8.25 2.062-15.468 4.125-24.748 1.03-18.56 4.124-37.121 7.218-55.682 3.093-23.717 1.03-26.81-20.623-26.81-43.309-1.031-86.617 0-129.925 0h-11.343c-9.28 2.062-10.311 7.218-13.405 16.498-1.031 8.25-3.093 18.561-4.124 27.841-3.094 18.561-6.187 37.122-7.219 57.745z"/></svg>