<svg xmlns="http://www.w3.org/2000/svg" width="1000" height="1000">
  <path d="M500.496 5C223.572 5 5 229.506 5 500.002c0 276.43 224.506 495.001 495.002 495.001 276.43 0 495.001-224.506 495.001-495.001C995.003 226.539 773.464 5 500.496 5zM94.011 507.42c1.978-44.506 40.55-79.122 86.045-79.122 67.252 0 112.747-22.747 127.582-84.066 2.967-14.835 4.945-32.638 4.945-48.462 0-42.527 28.682-76.154 70.22-84.066 47.473-9.89 93.957 25.714 96.924 76.154.989 49.45-36.594 90-88.022 88.022-16.814 0-34.616 1.978-51.43 4.945-39.56 9.89-64.285 35.605-74.175 76.155-9.89 39.56-6.923 65.274 0 107.802 18.791 84.066 93.956 83.077 128.572 84.066 20.769 0 38.571-2.967 56.373-5.934 40.55-11.868 66.264-38.571 76.155-82.088 3.956-17.802 3.956-32.637 3.956-50.44 0-37.582 31.648-75.165 70.22-81.099 50.44-8.901 93.956 27.693 96.923 79.121.989 44.506-33.626 86.045-86.044 86.045-18.791 0-38.572 1.978-56.374 7.912-36.594 8.9-59.34 32.637-69.231 69.23-5.934 19.78-6.923 35.605-6.923 56.374.989 42.528-31.649 80.11-74.176 84.067-49.45 6.923-92.968-30.66-92.968-87.034 0-20.769-1.978-40.55-7.912-59.34-17.802-55.385-64.286-71.21-124.615-71.21-48.462 1.979-87.034-38.571-86.045-87.033zm221.54 15.823c-7.913-49.45 25.714-93.956 72.198-96.923 29.67-2.967 58.351.99 89.01-15.824 40.55-21.758 54.397-61.319 54.397-117.693 0-45.495 31.648-81.099 75.165-85.055 58.352-7.912 91.978 32.637 91.978 101.868.989 14.836 2.967 28.682 8.901 45.495 10.88 35.605 37.583 55.385 73.187 65.275 17.802 2.967 37.583 5.934 55.385 5.934 35.605 0 68.242 24.725 79.121 59.34 14.835 55.386-28.681 106.814-84.066 106.814-24.725 0-50.44 1.979-74.176 11.869-27.693 12.857-45.495 38.571-53.407 69.23-3.956 17.803-4.945 33.627-4.945 51.43.989 42.527-31.648 79.12-74.176 83.077-46.484 5.934-84.066-24.726-90.99-68.242-7.911-48.462 29.671-93.957 77.144-95.935 16.813-.989 32.637 0 49.45-3.956 20.77-3.956 39.561-11.868 56.374-24.725 17.803-17.802 25.715-36.594 29.67-59.341 5.935-25.714 6.924-73.187-.988-104.836-10.88-37.582-33.627-62.307-72.198-71.209-38.572-9.89-76.154-9.89-113.737 0-43.517 8.902-67.253 38.572-75.165 79.122-2.967 17.802-3.956 36.593-3.956 49.45-1.978 38.572-28.682 73.187-68.242 81.1-46.484 7.912-89.011-19.78-95.935-66.265z" style="fill:#000;fill-opacity:1;fill-rule:nonzero;stroke:none;"/>
</svg>
