<svg xmlns="http://www.w3.org/2000/svg" viewBox="0 0 1000 1000"><path d="M864.092 496.25c26.44 36.055 52.88 61.293 73.31 92.54 38.459 52.88 56.486 54.082 26.44 118.98-99.75 188.684-254.783 281.223-463.898 287.232-225.94 0-432.652-187.482-469.908-411.02-31.247-171.858 20.43-314.874 138.208-438.66C350.919-32.546 642.959-42.161 834.047 121.286c62.494 54.081 109.365 121.383 141.814 193.491 3.605 19.23 3.605 31.247-4.807 45.67-38.458 45.668-68.504 88.933-100.952 135.804-33.651-46.87-67.302-93.742-128.594-165.85-72.109-91.338-173.061-135.805-284.83-109.365-111.768 26.44-188.684 99.75-215.124 206.711C194.684 621.24 344.91 795.502 543.21 777.474c82.925-7.21 151.428-45.668 198.299-115.373 20.43-22.835 102.154-133.401 122.584-165.85z"/></svg>