<svg xmlns="http://www.w3.org/2000/svg" width="1000" height="1000">
  <path d="M367.18 666.885c24.28 0 45.524-3.034 66.768-7.08 49.57-14.164 79.919-46.536 92.059-98.13 5.058-21.243 5.058-39.453 5.058-60.697 0-45.524 37.43-90.035 83.965-97.117 60.698-11.128 113.303 32.372 116.338 95.094 1.011 53.616-40.465 103.186-103.187 103.186-22.255 0-46.535 2.023-67.779 9.105-43.5 11.128-70.814 39.453-82.954 82.954-7.081 24.279-9.104 43.5-9.104 67.779 2.023 51.593-37.43 97.117-89.024 101.163-58.675 9.105-111.28-36.419-111.28-104.198 0-25.29-2.023-48.558-9.104-71.826-22.256-65.756-77.896-84.977-150.733-84.977C50.54 604.164 4.005 555.606 5.016 496.931c3.035-53.616 49.57-95.093 103.187-95.093 80.93 0 136.57-27.314 153.768-100.152 4.046-18.209 6.07-39.453 6.07-58.674 0-50.582 34.395-92.059 83.965-101.163 57.663-12.14 113.303 31.36 116.338 92.058 2.023 58.675-43.5 107.233-105.21 105.21-20.233 0-41.477 2.023-61.71 6.07-47.546 12.14-77.895 42.488-89.023 91.046-12.14 47.547-8.093 78.908 0 129.49 22.256 102.174 112.29 100.15 154.78 101.162zm-96.105-150.733c-9.104-58.674 31.36-112.29 87-116.337 35.408-3.035 69.803 1.011 107.234-19.221 48.558-25.291 65.756-72.838 65.756-140.617 0-54.628 37.43-98.128 90.035-103.187 69.803-9.104 110.268 39.454 110.268 122.408 1.011 18.21 4.046 35.407 11.128 54.628 13.151 43.5 44.512 66.768 88.012 78.907 21.244 4.047 44.512 7.082 65.756 7.082 43.5 0 82.954 30.349 95.093 70.814 18.21 66.768-34.395 128.477-100.151 128.477-30.35 0-60.698 3.035-89.024 14.163-34.395 16.186-55.64 46.535-64.744 83.965-5.059 21.245-6.07 40.466-6.07 61.71 1.011 51.593-37.43 95.093-89.024 100.152-55.64 7.081-101.163-30.35-109.256-82.954-9.105-57.663 35.407-112.291 93.07-115.326 19.221-1.012 38.442 0 58.675-4.047 25.29-5.058 47.546-14.163 67.78-30.349 22.255-21.244 31.36-43.5 36.418-70.814 7.081-30.349 8.093-88.012-2.023-125.442-12.14-45.524-40.466-75.873-85.99-85.99-46.534-12.139-92.058-12.139-137.581 0-51.593 10.117-79.919 46.536-90.035 95.094-3.035 21.245-5.058 43.5-5.058 59.687-2.024 46.535-34.396 88.012-80.931 97.116-56.651 9.105-107.233-24.279-116.338-79.919z" style="fill:#000;fill-opacity:1;fill-rule:nonzero;stroke:none;"/>
</svg>
