<svg xmlns="http://www.w3.org/2000/svg" width="1000" height="1000">
  <path d="M500.496 5C223.572 5 5 229.506 5 500.002c0 276.43 224.506 495.001 495.002 495.001 276.43 0 495.001-224.506 495.001-495.001C995.003 226.539 773.464 5 500.496 5zM162.253 484.672c3.956-.99 6.923-2.967 8.901-5.934 70.22-42.528 140.44-87.033 208.682-129.561 16.814-10.88 30.66-4.945 47.473-4.945 39.56 5.934 81.1 10.879 120.66 16.813 3.956 0 11.868-3.956 13.846-5.934 7.912-20.77 24.725-26.703 41.539-37.583 12.857-5.934 22.747-11.868 34.615-15.824 8.901-4.945 16.813-4.945 27.693-6.923 22.747-1.978 45.494-3.956 65.274-5.934 6.924-1.978 13.847-3.956 14.836-7.912 19.78-19.78 35.604-40.55 52.417-62.308 1.979 3.956 1.979 7.912 1.979 9.89-3.957 18.791-6.924 39.56-10.88 58.352-1.978 5.934-3.956 9.89-7.912 11.868-26.703 16.813-56.374 31.649-83.077 50.44-11.868 5.934-20.77 18.791-28.681 28.681-7.912 7.912-16.814 17.803-24.726 26.704-3.956 5.934-3.956 10.879 0 18.791 16.814 26.703 30.66 53.407 47.473 80.11 1.978 1.978 3.956 6.923 5.934 8.901-1.978 1.978-1.978 1.978-1.978 3.956-22.747-7.912-43.517-16.813-64.286-24.725l-1.978 1.978c3.956 8.901 7.912 16.813 14.835 22.747 1.978 1.978 5.934 3.956 9.89 3.956h24.726c8.9 0 12.857 2.967 14.835 12.858 8.901 32.637 18.791 65.275 26.703 96.923 3.956 22.747 3.956 22.747-17.802 28.681 0 0-2.967 0-4.945 1.978 5.934 2.968 10.88 6.924 14.835 8.902 5.934 3.956 7.912 5.934 1.978 9.89-28.681 16.813-56.374 35.604-83.077 52.417-3.956.99-9.89 0-11.868-1.978-20.77-20.769-39.56-41.538-60.33-62.307-14.835-14.836-28.681-28.682-43.517-45.495-5.934-3.956-9.89-9.89-16.813-18.791-16.813 72.198-32.637 138.462-49.45 206.704 0 0-1.979 0-1.979 2.967-3.956-4.945-6.923-8.901-7.912-12.858-41.538-73.187-83.077-145.385-124.616-217.583-3.956-7.912-11.868-14.835-18.79-20.769-43.517-22.747-85.056-47.473-127.584-72.198-2.967 0-3.956-1.978-6.923-4.945z" style="fill:#000;fill-opacity:1;fill-rule:nonzero;stroke:none;"/>
</svg>
