<?xml version="1.0" encoding="UTF-8"?><svg id="a" xmlns="http://www.w3.org/2000/svg" viewBox="0 0 1000 1000"><path d="M121.999,281.837v436.325l378.001,218.166,378.001-218.166V281.837L500,63.672,121.999,281.837Zm347.872,429.068l-65.667,61.031h-55.623l-138.286-241.035,101.976-75.71,89.616,57.168v102.749l67.984,64.894s0,30.902,0,30.902Zm29.357-101.976h-74.165l10.043-96.568-33.22-86.525h196.227l-32.447,86.525,9.271,96.568h-75.71Zm290.478-78.027l-137.513,240.262h-54.851l-65.667-60.259v-30.902l67.984-64.894v-102.749l88.843-57.941,101.204,76.482Zm-101.976-129.016H312.271l35.537-154.51h303.611l36.31,154.51ZM500,0C223.858,0,0,223.858,0,500s223.858,500,500,500,500-223.858,500-500S776.142,0,500,0Zm0,953.647l-3.749-2.163L106.999,726.825V273.175L500,46.353l393.001,226.822v453.649l-393.001,226.822Z"/></svg>