<svg xmlns="http://www.w3.org/2000/svg" viewBox="0 0 1000 1000"><path d="M994.438 197.014c-26.259 49.488-55.548 93.926-82.816 145.433C829.816 492.93 743.97 641.393 662.163 792.886c-8.08 10.1-13.129 14.14-24.238 14.14H298.58c-25.25 0-13.13-13.13-4.04-30.3 8.08-15.149 73.726-128.263 106.045-190.88 6.06-14.14 13.13-17.17 25.249-17.17h195.93c13.13 0 18.18-2.02 27.269-16.159 60.597-112.104 127.254-220.17 186.841-333.284 13.13-22.219 24.24-26.259 46.458-26.259h110.085s4.04 0 2.02 4.04zM5.694 802.986c3.03-6.06 55.548-94.936 82.816-145.434 81.807-146.442 164.623-299.956 249.46-451.448 4.04-9.09 9.09-13.13 24.239-13.13H718.72l-17.17 33.329c-33.328 62.617-70.696 125.234-103.015 187.85-6.06 13.13-16.159 16.16-30.298 16.16h-194.92c-8.08 0-16.16 3.03-22.219 13.13-64.637 116.144-172.702 308.035-194.92 348.433-6.06 12.12-16.16 15.15-29.29 15.15H6.705s-3.03 0-1.01-4.04z"/></svg>