<svg xmlns="http://www.w3.org/2000/svg" viewBox="0 0 1000 1000"><path d="M500.496 5C223.572 5 5 229.506 5 500.002c0 276.43 224.506 495.001 495.002 495.001 276.43 0 495.001-224.506 495.001-495.001C995.003 226.539 773.464 5 500.496 5zM224.561 681.486c0-38.572-2.967-74.176 0-86.044h89.011V406.54c-26.703-2.967-58.351 0-89.01-2.967v-92.968c30.659 0 59.34 3.956 91.978 0v-98.901h96.923v98.901h92.967v-98.901h98.902v98.901H626.1c42.528 0 88.022 14.836 120.66 47.473 37.582 37.583 61.319 80.11 61.319 134.506 0 42.528-8.902 78.132-28.682 114.726-24.725 35.604-65.275 61.319-105.824 77.143-20.77 7.912-42.528 7.912-68.242 16.813v77.143c0 10.88-4.945 10.88-18.792 10.88h-67.253c-12.857 0-15.824 0-15.824-10.88v-82.088h-90v82.088c0 10.88 0 10.88-16.813 10.88h-64.286c-15.824 0-15.824 0-15.824-10.88v-77.143c-9.89-4.945-12.858-4.945-18.792-4.945h-64.286c-11.868 0-8.9 0-8.9-14.835zm188.902-86.044H626.1c56.374 0 85.055-49.451 85.055-105.825-4.945-57.363-58.352-86.044-99.89-86.044H413.463z"/></svg>