<svg xmlns="http://www.w3.org/2000/svg" width="1000" height="1000">
  <path d="M500.496 5c272.968 0 494.507 221.54 494.507 495.002 0 270.495-218.572 495.001-495.001 495.001C229.506 995.003 5 776.431 5 500.002 5 229.506 223.572 5 500.496 5zM203.792 502.474c0 169.122 127.583 296.704 295.715 296.704 169.122 0 301.65-129.56 301.65-297.693 0-169.121-127.583-297.693-298.683-298.682-170.11 0-298.682 129.56-298.682 299.671zm82.088-1.978c3.956-138.462 106.814-237.363 241.32-219.561 101.868 10.88 177.033 93.956 186.923 195.825 11.868 127.583-66.264 236.374-187.912 247.253-137.473 11.869-240.33-89.01-240.33-223.517z" style="fill:#000;fill-opacity:1;fill-rule:nonzero;stroke:none;"/>
</svg>
