<svg xmlns="http://www.w3.org/2000/svg" viewBox="0 0 1000 1000"><path d="M500.496 5C223.572 5 5 229.506 5 500.002c0 276.43 224.506 495.001 495.002 495.001 276.43 0 495.001-224.506 495.001-495.001C995.003 226.539 773.464 5 500.496 5zM375.88 815.992V185h147.364c91.978 0 162.198 24.725 214.616 80.11 52.417 56.374 77.143 130.55 77.143 228.462 0 104.836-28.682 185.935-81.1 242.309-52.417 52.417-129.56 80.11-227.473 80.11zm81.1-66.264h42.527c150.33 0 227.473-84.066 227.473-253.188 0-161.21-70.22-245.275-213.627-245.275H456.98z"/></svg>