<?xml version="1.0" encoding="UTF-8"?><svg id="a" xmlns="http://www.w3.org/2000/svg" viewBox="0 0 1000 1000"><path d="M712.742,590.313V333.333h51.654v256.98h-51.654ZM110.737,666.648H0V409.668H106.284c51.655,0,81.753,28.152,81.753,72.188,0,28.505-19.33,46.926-32.709,53.059,15.97,7.215,36.413,23.453,36.413,57.758,0,47.988-33.801,73.976-81.003,73.976Zm-8.542-212.217H51.654v59.192h50.541c21.921,0,34.187-11.913,34.187-29.606s-12.266-29.586-34.187-29.586Zm3.34,104.31H51.654v63.164h53.881c23.418,0,34.551-14.429,34.551-31.768s-11.153-31.396-34.551-31.396Zm243.756,2.516v105.391h-51.29v-105.391l-79.526-151.589h56.107l49.428,103.582,48.68-103.582h56.107l-79.506,151.589Zm225.949,105.391h-110.737V409.668h106.284c51.654,0,81.752,28.152,81.752,72.188,0,28.505-19.33,46.926-32.709,53.059,15.97,7.215,36.414,23.453,36.414,57.758,0,47.988-33.802,73.976-81.004,73.976Zm-8.541-212.217h-50.542v59.192h50.542c21.921,0,34.186-11.913,34.186-29.606s-12.266-29.586-34.186-29.586Zm3.339,104.31h-53.881v63.164h53.881c23.418,0,34.551-14.429,34.551-31.768s-11.132-31.396-34.551-31.396Zm360.84-104.31v212.237h-51.654v-212.237h-69.122v-44.763h189.899v44.763h-69.122Z"/></svg>