<svg xmlns="http://www.w3.org/2000/svg" width="1000" height="1000">
  <path d="M20.433 645.996c61.961-104.301 124.955-207.57 182.785-314.969 13.425-24.784 25.817-51.634 45.438-77.45 46.47-77.452 139.412-82.615 186.916-3.099 16.523 23.752 58.863 96.04 60.928 103.268 5.163-7.228 33.046-57.83 59.895-103.268 44.406-79.516 147.674-79.516 197.243 0 74.353 129.086 151.804 260.236 225.125 391.387 44.405 78.484-7.23 167.294-95.007 167.294H508.892c-130.118 0-260.236-7.228-396.55-7.228-78.484 7.228-136.314-81.582-91.909-155.935zm324.263 3.098c-44.406 74.353 13.424 163.163 92.941 158h16.523c-71.255-6.196-119.791-87.778-79.517-158 59.896-106.367 123.922-208.602 182.785-313.936 14.458-25.817 25.817-52.667 45.438-78.484 20.654-34.078 50.602-54.732 81.582-58.863-41.307-7.228-83.647 13.425-111.53 58.863-18.588 25.817-29.947 52.667-45.438 78.484-58.863 105.334-120.823 208.602-182.784 313.936z" style="fill:#000;fill-opacity:1;fill-rule:nonzero;stroke:none;"/>
</svg>
