<svg xmlns="http://www.w3.org/2000/svg" width="1000" height="1000">
  <path d="M500.496 5c272.968 0 494.507 221.54 494.507 495.002 0 270.495-218.572 495.001-495.001 495.001C229.506 995.003 5 776.431 5 500.002 5 229.506 223.572 5 500.496 5zM207.748 752.695c0 9.89 9.89 16.813 16.813 16.813h571.65c5.935 0 16.814-3.956 16.814-16.813 0-11.868-5.934-17.802-16.814-17.802h-13.846c0-11.869-8.9-17.803-16.813-17.803h-9.89V448.078h13.846c14.835 0 23.736-7.912 28.681-22.747 3.957-12.857.99-24.725-10.879-31.648L522.254 197.858c-6.923-4.945-12.857-4.945-18.79 0L237.417 393.683c-11.868 6.923-15.824 18.79-10.879 31.648 5.934 14.835 13.846 22.747 28.682 22.747h13.846V717.09h-9.89c-4.945 0-7.912 1.978-11.868 5.934-2.968 2.967-4.946 6.923-4.946 11.869H224.56c-9.89 0-16.813 9.89-16.813 17.802zm73.187-349.122L507.419 235.44c2.967-1.978 7.912-1.978 10.88 0l225.495 168.133c4.945 3.956 3.956 8.9-2.967 8.9H283.902c-6.923 0-7.912-4.944-2.967-8.9zm27.692 313.517V466.87h36.594v250.22zm68.242 0V448.078h39.561V717.09zm73.187-175.055c-12.857-39.56 12.858-81.1 57.363-89.012 45.495-5.934 84.066 31.649 79.121 74.177-2.967 25.714-14.835 45.494-37.582 57.362 0 0-1.978 1.978-1.978 2.967v120.66c0 3.956-2.967 6.923-6.923 6.923h-45.495c-4.945 0-7.912-2.967-7.912-6.923V587.53c0-.989 0-2.967-1.978-2.967-16.813-8.9-28.681-23.736-34.616-42.527zM617.2 717.09V448.078h37.582V717.09zm69.23 0V466.87h37.583v250.22z" style="fill:#000;fill-opacity:1;fill-rule:nonzero;stroke:none;"/>
</svg>
