<svg xmlns="http://www.w3.org/2000/svg" viewBox="0 0 1000 1000"><path d="M500.496 5c272.968 0 494.507 221.54 494.507 495.002 0 270.495-218.572 495.001-495.001 495.001C229.506 995.003 5 776.431 5 500.002 5 229.506 223.572 5 500.496 5zM163.242 533.134c-2.967 52.417 9.89 93.956 45.495 131.539 58.352 66.263 163.187 73.187 235.385 40.55 47.473-15.825 83.078-52.419 99.89-98.902 9.89-25.715 3.957-25.715-16.812-25.715h-66.264c-16.814 0-26.704 0-31.649 10.88-21.758 24.725-46.484 35.604-78.132 35.604-42.528-4.945-79.121-32.638-79.121-78.132 0-55.385 25.714-83.077 73.187-89.011 20.77-1.978 47.473 0 73.187 0 10.88 0 15.824 5.934 15.824 16.813v14.835c0 15.824 3.956 15.824 19.78 15.824H527.2c10.879 0 16.813 0 16.813-15.824v-109.78c0-8.902-5.934-15.825-16.813-15.825H351.155c-104.836 0-181.979 63.297-187.913 167.144zm412.42-73.187c0 47.472-.99 47.472 40.549 47.472 20.77 0 20.77 4.945 20.77 25.715v167.143c0 10.88 5.933 15.824 16.812 15.824h78.133c8.9 0 14.835-4.945 14.835-15.824V533.134c0-20.77 5.934-25.715 21.758-25.715h46.484c10.879 0 14.835-4.945 14.835-15.824v-36.594c0-46.483 5.934-40.55-41.539-40.55-41.538 0-41.538-10.878-41.538-52.417.989-31.648 16.813-36.593 41.538-36.593h26.704c10.879 0 14.835-5.934 14.835-15.825v-57.362c0-10.88 0-21.759-14.835-21.759h-46.484c-73.187 0-131.539 56.374-131.539 114.726v47.473c0 10.879 0 21.758-15.824 21.758-47.473 0-45.495-6.923-45.495 45.495z"/></svg>