<svg xmlns="http://www.w3.org/2000/svg" width="1000" height="1000">
  <path d="M545.827 335.218H283.81c-154.366 0-270.141 93.433-278.266 247.8C1.482 660.2 19.762 722.15 73.587 776.99c86.324 99.525 240.69 108.666 348.34 60.934 70.075-23.358 123.9-77.183 148.274-147.258 14.217-37.576 6.093-37.576-24.374-37.576H446.3c-24.374 0-38.591 0-45.7 16.25-32.499 36.56-70.075 52.809-116.79 52.809-61.95-7.109-116.791-48.747-116.791-115.775 0-82.26 38.591-123.9 108.666-132.024 30.467-3.046 70.074 0 108.665 0 16.25 0 23.359 8.125 23.359 24.374v22.342c0 23.358 6.093 23.358 29.451 23.358h108.666c16.249 0 24.374 0 24.374-23.358V357.561c0-13.203-8.125-22.343-24.374-22.343zm71.09 139.133c0 70.074-1.016 70.074 60.934 70.074 30.467 0 30.467 7.11 30.467 38.592v247.799c0 16.249 8.124 22.342 24.373 22.342h115.775c14.218 0 22.343-6.093 22.343-22.342V583.017c0-31.483 8.124-38.592 32.498-38.592h68.043c16.25 0 23.358-7.108 23.358-23.358v-54.84c0-68.043 8.125-59.919-61.95-59.919-61.95 0-61.95-15.233-61.95-78.199 1.016-46.716 24.374-53.825 61.95-53.825h38.592c16.25 0 23.358-8.124 23.358-23.358v-85.308c0-15.233 0-31.482-23.358-31.482h-68.043c-108.666 0-194.99 83.276-194.99 169.6v70.074c0 16.25 0 32.498-23.357 32.498-70.074 0-68.043-10.156-68.043 68.043z" style="fill:#000;fill-opacity:1;fill-rule:nonzero;stroke:none;"/>
</svg>
