<svg xmlns="http://www.w3.org/2000/svg" viewBox="0 0 1000 1000"><path d="M500.496 5c272.968 0 494.507 221.54 494.507 495.002 0 270.495-218.572 495.001-495.001 495.001C229.506 995.003 5 776.431 5 500.002 5 229.506 223.572 5 500.496 5zM325.441 720.057c0 11.868 3.956 21.759 21.758 21.759h163.187c39.56 0 79.121 0 118.682-3.956 47.473-9.89 71.21-35.605 79.121-84.067 3.956-17.802 3.956-39.56 3.956-57.362 0-53.407-21.758-89.012-69.23-96.924 33.626-31.648 51.428-39.56 57.362-75.165v-49.45c0-75.166-35.604-110.77-110.77-110.77H347.2c-17.802 0-21.758 5.934-21.758 23.736zm86.044-70.22v-96.923c0-13.846 5.934-17.802 23.736-17.802h140.44c49.451 0 49.451 21.758 49.451 75.165 0 35.604-17.802 53.406-53.407 57.363H429.287c-11.868 0-17.802-9.89-17.802-17.803zm0-203.737v-89.01c0-11.87 5.934-17.803 23.736-17.803H567.75c29.67 5.934 43.517 17.802 43.517 49.45v25.715c-3.956 35.604-17.802 49.45-53.407 49.45H429.287c-11.868 0-17.802-3.955-17.802-17.802z"/></svg>