<?xml version="1.0" encoding="UTF-8"?><svg id="a" xmlns="http://www.w3.org/2000/svg" viewBox="0 0 1000 1000"><path d="m202.71,384.687h44.444v230.714h-41.614l-111.096-155.132v155.132h-44.444v-230.714h41.614l111.096,155.015v-155.015Zm189.538,95.338l-60.174-95.338h-56.73l89.822,137.127v93.587h48.238v-92.974l91.252-137.74h-53.899l-58.51,95.338Zm238.768.321l-26.993-6.158c-31.663-7.091-38.375-12.782-38.375-26.526,0-13.278,13.716-25.593,39.775-25.593,23.082-.342,45.495,7.752,63.033,22.762l27.956-36.974c-26.06-21.303-59.24-28.89-89.093-28.89-54.016,0-91.924,31.75-91.924,73.918,0,33.151,22.295,54.483,67.761,63.471l26.556,5.224c30.787,6.157,42.139,17.509,42.139,30.787,0,18.472-15.613,27.023-41.672,27.489-25.126.467-49.289-8.521-71.088-30.787l-28.89,35.018c22.266,25.593,61.604,36.974,98.548,36.974,56.38,0,91.457-27.49,91.457-72.021,0-38.345-24.163-58.247-69.191-68.695Zm317.735,39.979l-170.482.058c7.471,34.727,34.172,57.664,69.307,57.664,25.534,0,45.874-11.819,60.524-32.1l33.559,28.394c-21.875,29.97-56.986,47.394-94.083,46.691-73.276,0-120.551-52.528-120.551-121.047s46.896-121.047,114.044-121.047c50.281,0,119.063,35.018,107.682,141.387Zm-45.612-37.295c-5.136-47.246-35.69-61.487-56.467-61.487-35.339,0-60.932,22.208-69.132,61.487h125.6Z"/></svg>