<svg xmlns="http://www.w3.org/2000/svg" width="1000" height="1000">
  <path d="M163.176 178.313V11.468h164.445v166.845h157.242V11.468h166.845v166.845h34.81c72.019 0 148.84 25.207 205.255 81.622 63.617 63.618 103.228 134.437 103.228 225.661 0 72.02-15.604 132.036-49.213 194.453-42.012 61.217-110.43 104.428-178.849 129.635-33.609 14.404-72.02 14.404-115.23 28.808v133.236c0 16.804-8.403 16.804-32.41 16.804H505.27c-20.406 0-26.408 0-26.408-16.804V831.29h-151.24v140.438c0 16.804 0 16.804-30.009 16.804h-108.03c-26.407 0-26.407 0-26.407-16.804V838.492c-18.005-7.202-22.806-7.202-31.208-7.202H22.738c-20.405 0-15.604 0-15.604-25.207 0-64.817-4.801-126.034 0-145.24h151.24V340.358c-46.812-4.801-99.626 0-151.24-4.801V178.313c51.614 0 100.827 7.202 156.042 0zm164.445 482.53h358.897c96.026 0 144.038-84.022 144.038-178.848-8.402-99.627-97.226-146.44-169.245-146.44H327.62z" style="fill:#000;fill-opacity:1;fill-rule:nonzero;stroke:none;"/>
</svg>
