<svg xmlns="http://www.w3.org/2000/svg" viewBox="0 0 1000 1000"><path d="M966,499.88c0,124.505-48.472,241.559-136.488,329.596-88.015,88.039-205.039,136.523-329.512,136.523s-241.496-48.484-329.512-136.523c-88.016-88.038-136.488-205.092-136.488-329.596s48.472-241.558,136.488-329.596S375.527,33.761,500,33.761c54.448,0,107.459,9.309,157.25,27.12h0c-15.059,37.946-72.252,89.353-111.922,114.74-1.056-15.682-5.089-23.504-11.102-37.443-1.955-2.851-3.911-5.702-6.215-9.061-3.674,5.957-6.544,11.571-10.294,16.516-12.388,16.332-28.407,28.543-45.77,39.103-21.93,13.338-44.891,24.535-69.127,33.057-7.219,2.996-14.634,5.595-21.617,9.065-17.667,8.78-30.38,22.034-35.706,41.533-.488,9.612-.693,19.114,5.205,27.584,6.264,8.996,12.577,12.875,28.902,16.996-13.574,3.244-26.269,2.976-36.672-5.996-11.523,9.626-22.228,19.242-33.65,27.912-10.346,7.853-21.911,13.845-34.913,16.127-8.065,1.416-16.197,1.94-21.936-5.871-5.746-5.98-5.221-13.146-3.872-20.469,.754-3.249,1.637-6.476,2.206-9.757,.285-1.641-.005-3.381-.035-5.076-5.092,3.597-10.437,6.891-15.214,10.866-6.272,5.219-12.098,10.976-18.116,16.501-10.997,11.991-20.774,24.859-28.259,39.372-3.417,10.5-6.834,20.999-10.251,31.499-.519,10.882-1.038,21.764-1.557,32.646,1.079,15.945,3.528,31.647,7.837,47.644,7.989-6.062,15.328-11.629,22.666-17.197h0c2.441,3.305,4.682,6.782,7.353,9.889,19.265,22.403,44.401,34.475,72.701,40.659,10.08,2.203,20.341,3.579,30.52,5.333-1.999-4.41-4.583-7.304-6.862-10.421-10.357-14.166-8.12-27.307,6.509-36.928,4.03-2.65,8.474-4.877,13.01-6.516,34.952-12.635,70.96-11.705,107.004-7.185,30.446,3.818,59.65,12.357,87.012,26.596,.515,.379,1.03,.758,1.545,1.137l-.088,.022c4.442,2.177,9.158,3.933,13.282,6.602,22.65,14.659,41.127,33.305,52.827,57.9,6.675,14.032,11.316,28.787,11.693,44.523,.217,9.07,.016,18.149,.004,27.225-11.334,9.25-22.441,18.844-36.602,24.817,3.215-9.622,6.999-18.368,9.042-27.504,8.873-39.666,.558-75.795-24.058-108.015-5.189-6.792-11.623-12.647-17.641-18.779-.853-.87-2.603-.858-3.939-1.255,1.842,2.36,3.711,4.701,5.522,7.085,24.537,32.308,30.639,67.348,14.537,105.101-13.194,30.935-36.151,53.672-64.093,71.308-57.856,36.517-120.996,47.866-187.969,35.86-68.453-12.272-122.87-48.74-167.178-101.284-28.274-33.53-49.581-71.307-66.851-111.48-.258-.599-.617-1.155-1.004-1.699,1.099,114.87,46.304,222.701,127.63,304.048,82.338,82.359,191.81,127.716,308.253,127.716s225.915-45.356,308.252-127.716c56.059-56.073,94.95-124.734,114.077-199.605-.744-7.743-1.374-15.501-2.346-23.216-7.294-57.915-28.63-110.098-64.075-156.492-18.622-24.374-40.068-45.873-64.941-63.891-.28-.203-.413-.611-.614-.923h0c-2.353-1.487-4.695-2.993-7.035-4.502-5.187-3.345-10.362-6.712-15.608-9.956-2.537-1.569-5.092-3.11-7.672-4.604-32.049-18.562-66.344-31.151-102.816-37.733-.731-.132-1.428-.451-2.141-.683-5.235-.634-10.47-1.268-15.705-1.902,.052-.417,.104-.833,.156-1.25,5.207,.386,10.414,.771,15.621,1.157,39.85,2.434,78.178,11.46,115.005,26.807,9.684,4.036,19.148,8.6,30.095,13.545-5.288-9.092-9.912-17.04-14.535-24.989,.212-.31,.424-.62,.636-.931,10.769,5.672,21.661,11.126,32.284,17.06,27.154,15.169,52.723,32.723,77.145,51.972,.331,.261,.687,.491,1.059,.701,1.114,.63,2.369,1.081,3.522,1.663-.583-1.426-.84-3.144-1.806-4.234-37.498-42.314-81.346-76.434-131.44-102.713-41.942-22.002-86.07-37.281-132.761-45.093-9.946-1.664-20-2.687-30.004-4.005-2.893,1.941-5.747,3.953-8.601,5.966-4.373,3.085-8.742,6.176-13.234,9.04-2.475,1.578-4.987,3.087-7.558,4.488-19.337,10.533-39.199,20.106-58.907,29.95-2.073,1.035-4.573,1.215-6.287,1.644,6.655-9.248,14.048-18.169,19.858-28.024,4.58-7.769,7.086-16.743,10.799-25.054,.866-1.938,2.569-4.153,4.427-4.901,45.821-18.458,82.569-48.545,112.501-87.416,2.816-3.657,5.3-7.569,7.938-11.362-.251-.239-.466-.507-.643-.805-9.593,2.821-19.186,5.643-30.004,8.825,11.418-13.005,21.574-26.547,30.561-40.627l15.079-26.318c10.308-20.185,18.438-41.419,24.416-63.802,.49,.123,.981,.245,1.471,.368-2.034,19.757-3.504,39.595-6.294,59.244-.568,4.002-1.303,7.98-2.118,11.947,48.338,22.683,92.88,53.838,131.757,92.725,88.017,88.038,136.488,205.091,136.488,329.596Zm-752.578-33.329l-.008,.006c.718-.528,1.435-1.056,2.152-1.584-.715,.526-1.43,1.052-2.145,1.578Zm-3.255,2.314c.395-.284,.79-.568,1.184-.851-.395,.284-.79,.568-1.184,.851l-.003,.003,.003-.003Zm429.114,168.976c4.545,15.624,7.193,31.276,5.943,47.837-1.478,19.589-6.779,37.853-15.304,55.2-15.633,31.808-39.136,57.216-66.438,79.33-27.708,22.442-58.476,39.569-91.919,51.742-33.821,12.31-68.699,18.804-104.853,17.191,1.207,.357,2.412,1.019,3.62,1.026,13.23,.077,26.545,.993,39.672-.173,18.13-1.611,36.32-3.849,54.123-7.554,28.136-5.855,54.618-16.571,80.026-30.14,22.407-11.966,43.126-26.268,61.835-43.304,20.009-18.22,37.248-38.766,50.743-62.495,13.94-24.512,22.043-50.644,24.107-78.593,1.176-15.917-.707-31.776-5.13-47.128-3.018-10.472-7.059-20.65-10.642-30.959-.542,.112-1.083,.224-1.625,.336-.453,1.148-1.116,2.259-1.327,3.45-2.447,13.804-8.858,25.713-17.318,36.672-1.906,2.469-3.679,5.04-5.514,7.564M222.174,399.893c5.799-3.82,11.838-7.385,18.14-10.268,2.132-.975,5.777-.386,7.908,.877,2.094,1.241,3.144,4.245,4.735,6.598,.556-1.495,1.188-3.198,1.821-4.9,.878-5.478,2.513-10.967,2.439-16.433-.089-6.584-5.719-10.08-12.198-8.685-12.098,2.605-26.405,19.207-27.647,32.081l-.005,.005c-.434,1.63-.872,3.258-1.31,4.887,.789,.657,1.577,1.315,2.366,1.972,1.219-2.091,1.939-4.941,3.749-6.133Zm170.363-104.83h-.004c7.033-.276,14.118-.141,21.116-.736,1-.085,1.998-.185,2.994-.303,35.567-4.221,61.523-21.712,75.093-55.687,2.303-5.765,4.114-11.727,6.496-18.586-5.484,3.74-9.592,7.024-14.13,9.529-7.804,4.307-15.876,8.129-23.835,12.154-14.985,6.025-30.222,11.509-44.84,18.323-6.542,3.05-12.473,8.162-17.536,13.438-5.65,5.887-8.361,13.41-5.362,21.869h.007Zm420.666,322.318c-8.457-64.07-40.279-107.482-57.153-129.93-10.722-14.264-48.336-60.36-114.293-94.232-40.955-21.032-84.989-31.696-130.837-34.355-16.894-.98-33.892-.158-50.974-.158,10.868,6.709,21.501,13.163,32.009,19.813,1.14,.721,2.264,1.468,3.377,2.23,3.341,2.288,6.591,4.72,9.906,7.049h0c2.386-.016,4.785-.178,7.166-.141,.794,.012,1.585,.047,2.374,.116,21.639,1.903,42.808,6.288,63.472,12.901,36.696,11.743,70.465,29.065,100.813,53.017,25.159,19.857,47.033,42.747,65.431,68.958,16.114,22.957,28.958,47.648,38.573,74.003,13.955,38.251,16.431,70.342,17.055,79.674,2.856,42.723-5.473,70.736-4.274,70.944,1.75,.303,26.834-58.066,17.355-129.888Zm-298.791-197.532c-1.774-.538-3.523-1.192-5.327-1.598-27.984-6.306-56.283-10.228-84.964-11.399-46.092-1.882-91.116,3.655-134.63,19.424-4.958,1.797-9.864,3.696-14.713,5.707-2.626,1.089-5.236,2.211-7.828,3.367-.3,.134-.595,.279-.895,.414-2.288,1.029-4.567,2.074-6.826,3.157-.64,.307-1.269,.637-1.907,.948-1.908,.931-3.816,1.863-5.703,2.835-.706,.364-1.398,.753-2.101,1.123-1.806,.95-3.613,1.896-5.398,2.885-.398,.221-.788,.458-1.185,.68-2.076,1.163-4.146,2.338-6.193,3.557-.229,.136-.453,.283-.682,.42-7.063,4.232-13.956,8.79-20.647,13.728l-.035,.028c2.261-.749,4.668-1.214,6.756-2.295,19.332-9.997,39.222-18.507,60.175-24.629,21.4-6.252,43.217-10.217,65.338-11.905,14.652-1.118,29.507-1.014,44.18-.057,18.566,1.211,37.168,3.055,55.523,6.047,27.89,4.546,54.893,12.831,81.571,22.095,3.082,1.07,6.146,2.19,9.219,3.287,.35-.367,.7-.733,1.05-1.1-2.776-4.724-5.29-9.628-8.387-14.13-5.27-7.662-10.907-15.072-16.391-22.588Z"/></svg>
