<svg xmlns="http://www.w3.org/2000/svg" width="1000" height="1000">
  <path d="M5 575.321v146.431c0 17.909 0 17.909 18.962 17.909h290.755v3.16c-6.32 2.107-9.48 3.16-12.641 7.375-22.123 12.641-47.406 28.443-68.475 41.084-9.481 3.16-14.749 10.535-14.749 22.123v75.85c0 16.855 0 16.855 17.91 16.855h351.855c56.887 0 111.667-2.107 164.34-4.214 35.817 0 68.475-6.321 100.078-22.123 90.598-47.406 149.592-145.377 141.164-250.723-9.481-48.46-28.443-95.865-67.421-132.736-17.91-16.856-38.978-25.283-62.154-41.085 8.427-5.268 16.855-12.642 21.069-17.91 93.758-81.116 86.383-220.172-13.695-290.754-52.673-37.925-109.56-52.673-178.035-52.673H239.922c-21.07 0-21.07 0-21.07 22.122v424.545c0 17.909 0 17.909-20.015 17.909H23.962C5 558.466 5 558.466 5 575.32zm400.315 156.966V575.32c0-9.481 2.107-16.855 14.748-16.855 47.406 1.053 93.758 0 140.11 0v1.053c50.567 0 96.919-1.053 141.164 0 34.764 0 64.261 14.749 87.437 45.299 38.978 48.46 4.214 127.469-52.673 138.003-18.962 3.16-35.817 7.375-58.993 7.375H421.117c-15.802 0-15.802 0-15.802-17.91zm0-329.733v-136.95c0-10.535 3.16-10.535 14.748-10.535h131.683c43.192 0 88.49-1.053 131.682 0 64.261 0 99.026 65.315 66.368 117.988-14.748 29.497-40.031 38.978-72.688 44.245H415.849c-8.427 0-10.534-5.267-10.534-14.748z" style="fill:#000;fill-opacity:1;fill-rule:nonzero;stroke:none;"/>
</svg>
