<svg xmlns="http://www.w3.org/2000/svg" viewBox="0 0 1000 1000"><path d="M46.586 835.595V164.867c1.226-3.679 1.226-8.583 3.678-9.81 9.81-44.142 52.727-72.345 96.87-63.762 40.464 7.358 68.666 41.691 68.666 80.93v202.321c3.679-2.452 4.905-3.679 6.131-6.13l234.203-229.299c36.786-36.786 73.572-73.572 111.584-110.357 31.88-31.881 84.607-31.881 115.262 1.226 82.155 82.155 164.31 164.31 246.465 244.012 38.012 38.012 29.428 100.548-15.94 131.203-31.882 20.845-76.025 15.94-105.453-12.262-60.084-58.857-117.715-120.167-177.798-177.798-7.358-7.357-7.358-7.357-13.489 0-95.643 91.964-188.833 183.929-282.024 279.572-6.13 4.905-6.13 4.905 0 11.036 94.417 94.417 187.608 188.833 283.25 282.024 1.227 2.452 3.68 2.452 6.132 6.131 1.226-3.679 3.678-4.905 7.357-6.13 38.012-39.24 74.798-76.025 111.583-112.81l67.44-66.215c34.334-33.107 85.834-33.107 118.942 1.226 31.88 33.107 31.88 85.834 0 116.488-82.155 83.382-164.31 163.084-245.239 245.239-11.036 11.036-24.524 17.167-35.56 22.071-6.13 0-11.035 0-14.714 1.227H615.54c-3.678 0-6.13-1.227-8.583-1.227-14.714-3.678-29.429-9.81-41.69-22.071-7.358-6.131-12.263-12.262-18.394-19.62l-323.714-318.81c-1.227-1.225-3.679-2.452-7.358-7.356v203.548c0 41.69-33.107 77.25-76.024 82.155-41.69 3.678-80.928-24.524-89.512-64.989-2.452-2.452-2.452-6.13-3.678-11.035zM540.74 500.844c0-45.37 38.012-84.607 83.382-84.607 46.595 0 85.833 39.238 85.833 84.607 0 46.595-38.012 84.607-84.607 84.607-46.596 0-84.608-38.012-84.608-84.607z"/></svg>