<svg xmlns="http://www.w3.org/2000/svg" viewBox="0 0 1000 1000"><path d="M440.827 711.234c-5.09 27.995-11.452 48.355-15.27 75.078-8.907 63.624-25.45 127.249-41.992 194.691 0 13.998-6.362 13.998-19.087 13.998H209.233c-13.997 0-20.36-3.818-24.177-13.998C153.244 874.113 121.43 765.952 85.8 662.88c-20.36-63.625-39.447-128.522-57.262-190.875-6.362-10.18-6.362-20.36-11.452-34.357h167.969c24.177 0 24.177 5.09 29.267 24.177 22.905 77.623 48.355 157.79 77.622 235.412 0 11.452 5.09 17.815 8.908 29.267 10.18-52.172 20.36-94.164 33.085-137.429 6.362-45.81 19.087-89.075 25.45-127.25 0-13.997 12.725-24.177 24.177-24.177h132.34c15.27 0 21.632 10.18 27.994 24.177l72.533 235.412c6.362 11.452 6.362 17.815 7.635 24.177 30.54-161.606 83.984-325.758 128.521-484.82-19.087-3.818-38.174-8.907-53.444-15.27C771.676 153.882 844.208 78.804 916.74 5c17.815 92.892 48.355 194.692 66.17 290.129-8.907-5.09-27.995-11.453-34.357-13.998-13.998-5.09-13.998-5.09-25.45 17.815-12.725 41.993-22.905 80.167-31.813 114.525-34.357 105.617-68.714 213.779-100.527 318.123-24.177 81.44-52.172 165.425-76.35 244.32C708.052 995 708.052 995 685.147 995H543.9c-27.994 0-27.994 0-31.812-24.178-22.905-76.35-44.537-159.062-67.442-244.319 0-5.09 0-5.09-3.818-15.27z"/></svg>