<svg xmlns="http://www.w3.org/2000/svg" viewBox="0 0 1000 1000"><path d="M500.496 5C223.572 5 5 229.506 5 500.002c0 276.43 224.506 495.001 495.002 495.001 276.43 0 495.001-224.506 495.001-495.001C995.003 226.539 773.464 5 500.496 5zM140.495 513.353c-6.923-67.253 8.901-131.539 44.506-190.88 26.703-47.472 65.275-86.044 110.77-119.67 3.955-5.934 8.9-5.934 14.834-5.934 122.638-2.967 242.309-2.967 364.947-2.967l2.967 2.967c0 3.956-2.967 8.9-5.934 11.868-134.506 191.869-269.012 381.76-400.551 574.617-2.967 5.934-5.934 10.88-9.89 13.846h-86.045c-13.846-2.967-2.967-13.846 2.968-23.736 116.703-167.143 230.44-334.287 346.155-498.463 3.956-6.923 8.9-12.857 14.835-20.77-5.934 0-10.88-.988-17.803-.988-47.472 0-97.912 0-148.352 2.967-38.571 0-73.187 21.758-104.835 45.494-57.363 47.473-90 106.814-112.748 176.045-6.923 11.868-9.89 23.736-15.824 35.604zM331.375 797.2c33.626-47.472 66.264-94.945 98.901-143.407C534.123 508.408 636.98 358.078 738.85 211.704c7.912-10.88 16.813-17.802 28.681-17.802 31.648 0 68.242 1.978 72.198 8.9-1.978 5.935-2.967 8.902-6.923 14.836-98.901 141.43-354.067 512.31-358.023 517.255 21.758 3.956 111.758 2.967 167.143 0 33.627 0 62.308-15.825 90-35.605C788.3 656.76 823.905 600.387 847.64 537.09c10.88-20.77 15.824-38.572 24.726-62.308 5.934 56.374-5.935 110.77-27.693 158.242-25.714 59.34-67.253 111.759-118.682 152.308-5.934 3.956-8.9 8.901-14.835 11.868z"/></svg>