<svg xmlns="http://www.w3.org/2000/svg" viewBox="0 0 1000 1000"><path d="M314.375 8.788h651.582c29.044 0 29.044 17.679 29.044 44.197v617.487c0 31.57-7.577 44.197-37.883 44.197H814.427c-32.832 0-56.824-20.204-56.824-53.036V554.3c0-29.043-18.942-49.248-47.985-49.248h-155.32c-36.62 0-60.611-16.415-60.611-51.773V277.755c0-35.357-16.416-56.824-53.036-56.824h-99.758c-35.357 0-55.561-18.941-55.561-55.56V47.933c0-15.153 0-39.146 29.043-39.146zM5 976.06V338.368c0-39.146 17.679-51.773 55.561-51.773h156.582c47.985 0 61.875 15.153 61.875 61.875v333.367c0 32.832 26.518 49.248 54.299 49.248h339.68c39.146 0 41.672 10.102 41.672 46.722V958.38c0 23.992 0 32.832-20.204 32.832H20.153C8.788 991.213 5 987.424 5 976.059z"/></svg>