<?xml version="1.0" encoding="UTF-8"?><svg id="a" xmlns="http://www.w3.org/2000/svg" viewBox="0 0 1000 1000"><path d="M500,0C223.858,0,0,223.858,0,500s223.858,500,500,500,500-223.858,500-500S776.142,0,500,0Zm0,841.082c-188.374,0-341.081-152.707-341.081-341.081S311.626,158.918,500,158.918h0v154.521h185.033v185.034h-185.034v-185.034c-103.034,0-186.56,83.526-186.56,186.561s83.526,186.56,186.56,186.56,186.561-83.526,186.561-186.56c0-.515-.073-1.012-.077-1.527h154.559c.002,.511,.039,1.015,.039,1.527,0,188.374-152.707,341.081-341.082,341.081Z"/></svg>