<svg width="27" height="27" fill="none" xmlns="http://www.w3.org/2000/svg">
    <path fill-rule="evenodd" clip-rule="evenodd"
        d="M2.51 14.863l-.081.128c-.074.11.008.258.148.258h5.206a.174.174 0 00.144-.072c.07-.102.132-.208.19-.314.452-.735.853-1.53.997-2.116.343-1.427-.39-3.721-1.234-5.564-.055-.122-.23-.133-.304-.023l-5.065 7.703zM24.896 17.8A.172.172 0 0025 17.64v-1.219a.172.172 0 00-.222-.163l-5.922 1.666a.154.154 0 00-.082.049c-.63.675-1.165 1.13-1.31 1.253a2.03 2.03 0 01-1.317.48H14v-2.123h1.705a.168.168 0 00.117-.045l.222-.193.074-.07c.076-.07.163-.15.265-.248l.046-.046c.066-.063.138-.132.207-.208.09-.083.175-.178.253-.269.136-.14.264-.284.397-.439.097-.102.183-.215.268-.329a6.14 6.14 0 00.396-.507l.091-.125.025-.038a4.97 4.97 0 00.158-.25 5.392 5.392 0 00.552-1.097l.036-.095c.047-.14.086-.269.117-.405.07-.326.086-.651.054-.973a1.7 1.7 0 00-.039-.291v-.015a1.008 1.008 0 00-.046-.209 4.597 4.597 0 00-.327-.942 4.47 4.47 0 00-.156-.337 7.869 7.869 0 00-.417-.685c-.03-.05-.065-.1-.1-.15-.024-.035-.049-.07-.071-.104a8.904 8.904 0 00-.553-.717l-.136-.16a15.158 15.158 0 00-.312-.357 16.657 16.657 0 00-1.11-1.09 16.727 16.727 0 00-.93-.795l-.123-.1a3.728 3.728 0 00-.146-.115 9.685 9.685 0 00-.237-.175.224.224 0 00-.039-.02l-.012-.006-.23-.06V4.082c0-.3-.124-.568-.322-.765A1.088 1.088 0 0012.902 3 1.09 1.09 0 0011.8 4.083v1.234l-.425-.114-.28-.08h-.015L8.939 4.56c-.093-.026-.171.076-.125.16l.343.613c.018.044.042.09.066.136.017.033.035.067.05.102.06.11.114.223.168.337.047.102.094.2.152.31l.075.164c.088.19.181.392.272.609.081.181.16.367.23.56a18.307 18.307 0 01.665 1.99l.012.042.023.095c.063.246.117.492.16.738l.004.022c.03.159.059.315.074.47.023.186.046.371.054.557.016.166.024.344.024.514 0 .432-.04.848-.133 1.242a7.012 7.012 0 01-.105.352c-.032.114-.076.23-.12.351l-.028.073-.038.093a12.447 12.447 0 01-.764 1.516c-.374.64-.748 1.2-1.008 1.563-.04.053-.07.098-.102.144-.081.113.004.272.144.272h2.769v2.124H9a1.994 1.994 0 01-1.783-1.075 1.805 1.805 0 01-.202-1.056.19.19 0 00-.187-.209H1.175a.171.171 0 00-.175.167v.113C1 21.158 3.912 24 7.51 24h10.147c1.902 0 2.98-1.683 4.042-3.338.296-.463.591-.923.903-1.344.556-.754 1.9-1.355 2.293-1.518z"
        fill="#000" />
</svg>