<svg xmlns="http://www.w3.org/2000/svg" viewBox="0 0 1000 1000"><path d="M39.678 496.533C37.314 264.888 203.957 55.698 432.056 11.97c75.64-16.547 145.369-4.728 208.008 47.274 55.547 48.456 69.73 115.822 33.092 163.097-47.275 70.911-124.096 91.003-189.098 52.002-49.638-30.729-101.64-74.458-145.369-94.55-24.819-7.09-48.456 2.365-55.547 24.82-35.456 100.458-67.366 204.462-76.821 312.011-3.546 83.912 27.182 151.278 89.821 205.644 42.547 33.092 83.912 67.366 130.005 96.913 78.003 50.82 160.733 53.183 241.1 5.909 59.093-35.456 119.367-75.64 176.097-114.64 29.546-26.001 67.366-36.638 96.912-10.637 20.092 16.546 28.365 52.002 9.455 78.003-143.005 197.37-374.65 271.828-606.294 174.915-190.28-79.185-303.739-241.1-303.739-456.198zm271.828 61.456c-4.727-10.636-8.273-28.364 4.728-36.637 24.819-16.546 53.183-18.91 80.366-7.091 27.183 9.454 35.456 34.273 36.638 56.729 0 36.638-23.637 56.73-55.547 46.092-31.91-7.09-57.912-29.546-66.185-59.093zm172.552 161.915c-15.364-14.182-9.455-28.364 7.091-28.364 31.91-3.546 60.275-3.546 89.822 0 13 0 26 9.455 10.636 24.819-60.275 59.093-48.456 61.457-107.549 3.545zm159.551-154.823c0-54.366 76.821-75.64 114.64-41.366 26.002 36.638-17.727 80.367-59.092 93.367-31.91 13-55.548-9.454-55.548-52.001zm44.911-229.282c37.82-44.91 81.548-87.457 127.641-130.004 13-14.183 34.274-9.455 43.729 10.637 29.546 62.638 59.093 128.822 85.094 197.37 13 35.456-18.91 68.548-72.094 65.003-56.729-10.637-120.55-39.002-176.097-80.367-21.274-17.728-24.82-42.547-8.273-62.639z"/></svg>