<svg xmlns="http://www.w3.org/2000/svg" width="1000" height="1000">
  <path d="M12.906 557.078C-17.915 307.94 155.454 57.518 423.856 11.285c270.97-44.947 534.235 156.675 563.772 428.93 14.126 136.126-21.832 252.99-102.738 363.433-11.558 16.695-15.41 28.253 0 46.232 26.969 37.242 75.769 105.306 100.17 145.117h-61.643c-47.516 0-65.495-14.127-83.474-57.79l-17.98-35.958c-10.273-21.832-11.558-21.832-30.82-5.137-42.38 33.39-91.18 56.505-143.833 74.484C330.108 1060.492 48.864 843.46 12.906 557.078zm169.517-64.21c0 29.536 6.42 57.79 12.842 88.61 0 3.853 3.853 6.421 5.137 8.99 21.832-23.116 48.8-14.127 75.769-14.127 11.558 0 28.253 0 28.253 17.98-2.569 19.263-19.264 19.263-30.822 19.263-17.979 0-35.958-5.137-55.221-5.137-6.421 0-7.705 5.137-10.274 5.137 2.569 1.284 2.569 6.42 3.853 10.273 0 0 61.642 3.853 70.632 3.853 11.558 0 21.832 5.137 21.832 16.695 0 10.274-16.695 11.558-21.832 11.558-16.695 0-26.969 1.284-35.958 5.137-7.706 2.568-8.99 1.284-11.558 5.137 2.568 3.852 3.852 8.99 7.705 8.99 12.842 3.852 23.116 3.852 35.958 3.852 12.842 0 25.685 0 25.685 14.126 0 11.558-19.264 20.548-30.822 20.548 0 5.137 2.569 6.42 5.137 8.99 8.99 6.42 17.98 12.841 25.685 23.115 17.979 19.263 35.958 30.821 62.926 30.821 12.842 0 26.969-2.568 39.811 0 3.853 5.137 19.263 8.99 19.263 16.695 2.569 14.127 24.4 23.116 74.485 23.116 16.695 0 38.526-3.852 55.221-5.137 7.706 0 11.558-8.99 11.558-15.41 2.569-14.127 11.558-19.264 25.685-19.264h47.516c23.116-2.568 29.537-7.705 39.81-30.82 2.569-10.275 15.411-16.696 24.4-19.264l21.832-7.705c0-11.558-14.126-7.706-21.831-7.706-14.127 0-24.4-3.852-24.4-17.979 0-14.126 10.273-14.126 24.4-14.126 17.979 0 32.105 0 50.084-3.853 6.421 0 8.99-5.137 11.558-8.99-2.568-3.852-8.99-5.136-11.558-5.136-17.979 0-38.526 0-56.506-5.137-7.705 0-17.979-3.853-17.979-11.558 0-8.99 8.99-15.41 10.274-15.41 28.253-1.285 56.506-5.138 83.474 3.852 15.411 2.568 15.411 0 19.264-12.842 23.116-52.653 28.252-109.159 17.979-170.801-23.116-138.696-138.696-267.118-315.918-265.833-172.085 1.284-306.928 136.127-313.35 309.496zm20.547 48.8c0-7.706 14.127-12.843 23.116-12.843 16.695-5.137 38.527-5.137 56.506 0 11.558 1.285 21.832 6.421 21.832 12.843 0 12.842-12.843 15.41-19.264 19.263-11.558 1.284-24.4 1.284-33.39 1.284-12.842 0-24.4 0-33.39-1.284-6.42-3.853-15.41-6.421-15.41-19.263zM330.108 740.72c0-21.831 96.316-20.547 96.316 5.137 0 10.274-15.41 16.695-46.232 16.695-12.842 0-50.084 2.568-50.084-21.832zm0-47.516c0-10.273 6.421-14.126 12.842-14.126h71.916c2.569 0 11.558 3.853 11.558 14.126 0 5.137-3.852 14.127-11.558 14.127-12.842 3.852-26.968 3.852-38.526 3.852-24.4 0-46.232-3.852-46.232-17.979zm0-51.368c0-6.422 6.421-12.843 10.274-12.843 26.968-1.284 50.084-1.284 74.484-1.284 7.706 0 11.558 5.137 11.558 16.695 0 7.705-8.99 11.558-11.558 11.558 2.569 0-60.358 5.137-71.916 0-2.568 0-12.842-7.705-12.842-14.126zm0-47.517c0-6.42 10.274-16.694 14.126-16.694 23.116-1.285 46.232-1.285 66.78 0 6.42 0 15.41 7.705 15.41 12.842 0 12.842-8.99 17.979-15.41 17.979-11.558 5.137-80.906 6.421-80.906-14.127zm124.569 201.623c0-10.274 6.421-19.264 15.41-19.264h69.348c5.137 0 10.274 8.99 10.274 16.695 0 5.137-5.137 14.127-10.274 14.127-25.684 3.852-48.8 3.852-69.347 0-6.421 0-15.411-3.853-15.411-11.558zm0-50.085c0-7.705 8.99-19.263 17.98-19.263h62.926c12.842 0 19.263 8.99 19.263 19.263 0 8.99-19.263 16.695-50.084 16.695-3.853 0-50.085 2.568-50.085-16.695zm0-48.8c0-8.99 8.99-17.98 15.41-17.98 21.832-3.852 43.664-3.852 69.348 0 5.137 0 10.274 3.854 10.274 14.127 0 5.137-1.284 11.558-14.126 14.127-12.842 3.852-21.832 3.852-34.674 3.852-8.99 0-19.263 0-30.821-3.852-6.421 0-15.411-5.137-15.411-10.274zm0-52.653c0-8.99 8.99-16.695 15.41-16.695h70.633c3.852 0 8.99 5.137 8.99 14.127 0 10.273-5.138 14.126-10.275 14.126-11.558 5.137-21.831 5.137-38.526 5.137-16.695 0-46.232-5.137-46.232-16.695zm0-50.085c0-6.42 8.99-16.694 15.41-16.694 21.832-1.285 43.664-1.285 69.348 0 5.137 0 10.274 10.273 10.274 16.694 0 5.137-5.137 11.558-10.274 14.127-11.558 5.137-21.831 5.137-38.526 5.137-8.99 0-19.263 0-30.821-5.137-6.421-2.569-15.411-11.558-15.411-14.127zm0-52.652c0-17.98 33.39-17.98 50.085-17.98 34.673 0 44.947 5.137 44.947 15.411 0 23.116-29.537 17.98-84.758 17.98-1.284 0-10.274-6.422-10.274-15.411zm0-41.095c-10.274-7.706 0-28.253 15.41-28.253h69.348c15.411 0 19.264 20.547 15.411 24.4-14.126 14.126-91.18 10.274-100.169 3.853zm115.58 245.285c0-10.274 8.99-16.695 15.41-16.695 20.548-2.568 47.516-2.568 66.78 0 6.42 0 11.558 6.421 11.558 16.695 0 16.695-30.822 16.695-43.664 16.695-17.979 0-50.084-2.568-50.084-16.695zm0-52.653c5.137-10.273 8.99-14.126 19.263-14.126 8.99-3.853 74.485-7.705 74.485 14.126 0 8.99-2.569 14.127-8.99 14.127-21.832 3.852-43.663 3.852-69.348 0-6.42 0-15.41-2.569-15.41-14.127zm0-51.368c0-21.832 35.958-21.832 79.621-14.127 20.548 0 33.39 33.39-29.537 33.39-17.979 0-50.084 0-50.084-19.263zm110.442-51.37c0-17.978 57.79-14.126 83.475-12.841 6.42 0 15.41 3.852 15.41 12.842 0 12.842-8.99 17.979-15.41 17.979-11.558 5.137-25.685 5.137-38.527 5.137-29.537 0-44.948-7.706-44.948-23.116z" style="fill:#000;fill-opacity:1;fill-rule:nonzero;stroke:none;"/>
</svg>
