<svg xmlns="http://www.w3.org/2000/svg" width="1000" height="1000">
  <path d="M750.272 413.661h-54.838c-18.668 0-38.503 0-57.172 3.5-4.667 0-11.667 1.167-15.168 7.001-2.333 2.334 0 8.168 5.834 12.835 16.335 16.334 16.335 16.334 0 32.669-38.503 38.503-78.173 78.173-115.51 117.843-11.667 9.334-11.667 9.334-3.5 23.336 3.5 7-3.5 12.834-11.667 12.834H382.74c-11.668 0-15.168-3.5-15.168-15.168v-112.01c0-5.833 0-11.667 8.167-15.167 3.5-2.334 7 1.166 11.668 4.667 11.667 12.834 14.001 12.834 25.669 0C505.25 396.16 596.259 307.486 686.1 214.144c11.667-11.667 15.168-11.667 28.002 0 91.008 93.342 182.016 182.016 273.023 275.357 10.501 9.334 10.501 11.668 0 22.169-159.847 159.846-317.36 316.193-476.04 476.04-9.334 9.334-12.835 9.334-22.169 0L12.876 511.67c-10.5-10.501-10.5-12.835 0-22.169C172.723 328.487 329.07 173.308 488.916 12.294c10.501-9.334 12.835-9.334 24.502 0 25.67 26.836 50.171 52.504 77.007 78.173 10.5 11.668 10.5 14.001 0 24.502C575.257 128.971 225.227 477.833 220.56 482.5c-5.834 7.001-5.834 14.002 0 18.669l264.856 264.855c11.668 10.501 14.001 10.501 28.002 0 70.006-70.005 141.18-141.178 210.018-211.184 9.334-10.501 11.668-10.501 22.169 0 4.667 4.667 9.334 8.167 16.334 8.167 7.001-4.667 7.001-11.667 7.001-18.668V434.663c0-16.335-2.333-21.002-18.668-21.002z" style="fill:#000;fill-opacity:1;fill-rule:nonzero;stroke:none;"/>
</svg>
