<svg width="27" height="27" fill="none" xmlns="http://www.w3.org/2000/svg">
    <path
        d="M11.376 10.835l-.3-4.667c-.402.042-1.902.067-4.689-.168C4.925 6.084 2 7.051 2 10.246c0 3.195 3.068 4.162 4.602 4.246 1.19.253 3.57 1.245 3.57 3.196 0 1.95-1.72 2.074-2.58 1.892-1.248-.084-4.07-1.22-5.377-5.087v5.38c.301-.097 1.05-.293 1.634-.293.335 0 1.055.087 1.837.183.93.113 1.947.237 2.508.237 1.032 0 3.913-1.051 3.913-4.457 0-2.724-3.555-4.05-5.333-4.372-.975-.224-2.925-1.093-2.925-2.775 0-1.681 1.692-2.074 2.538-2.06.946-.126 3.269.597 4.99 4.499z"
        fill="#000" />
    <path fill-rule="evenodd" clip-rule="evenodd"
        d="M12.925 6.336c.473.197 1.42.883 1.42 2.06v9.292c-.202.63-.767 1.892-1.42 1.892h5.85c-.474-.267-1.42-1.018-1.42-1.892V13.02c.143-.084.516-.1.86.504.344.606 2.58 4.345 3.656 6.139H26c-1.319-1.402-4.12-4.692-4.774-6.643.975-.336 2.925-1.472 2.925-3.321 0-2.313-2.624-3.532-3.441-3.532h-8l.215.168zm4.559.084v6.18h1.462c.688 0 2.065-.52 2.065-2.606 0-2.607-1.893-3.574-3.527-3.574z"
        fill="#000" />
</svg>