<svg xmlns="http://www.w3.org/2000/svg" viewBox="0 0 1000 1000"><path d="M500.494 9.08c68.699 62.672 133.781 133.781 196.454 195.248l89.187 91.598c13.257 13.257 10.847 15.668 0 30.13-4.821 4.822-50.62 50.62-74.725 77.136-18.078 19.283-28.925 19.283-44.593 6.026-49.415-54.236-104.856-103.65-153.065-157.886-13.258-15.668-19.284-13.257-32.541 0L319.709 409.218c-12.052 10.847-18.078 10.847-31.336 0-12.052-13.258-55.44-54.236-78.34-80.75-8.437-12.053-12.052-18.08 0-32.542L486.032 9.08c4.82-6.026 8.436-4.82 14.462 0zM13.58 489.97c21.694-19.284 39.773-44.594 63.877-63.878 40.978-39.773 40.978-39.773 77.135 0 20.49 19.284 40.978 38.568 60.262 62.672 8.437 8.437 8.437 18.079 0 30.131l-85.572 79.546c-10.847 12.052-19.283 9.641-31.336 0-28.925-28.926-60.261-60.262-80.75-77.135-6.027-6.027-12.053-20.49-3.616-31.336zm196.453 219.35c-14.463-16.873-14.463-19.284 0-34.952 22.9-26.515 50.62-49.414 78.34-79.545 15.668-13.258 18.079-15.668 31.336 0 57.852 53.03 106.06 104.855 161.502 155.475 13.257 12.052 21.694 13.258 32.541 0 48.21-50.62 103.65-102.445 153.065-155.475 15.668-15.668 22.9-13.258 39.772 0 25.31 20.489 60.262 56.646 79.546 79.545 13.257 13.258 13.257 18.079 0 34.952-89.187 89.187-178.375 177.17-266.357 262.741-15.668 16.873-20.489 26.515-28.925 21.694-55.441-60.261-113.292-116.907-173.554-175.964-34.952-38.567-73.52-75.93-107.266-108.47zm186.811-190.427c-13.257-16.873-10.847-21.694 0-30.13 28.926-34.953 55.441-62.673 84.367-91.599 6.026-4.82 15.668-4.82 21.694 0 14.463 13.258 66.288 56.646 102.445 95.214 7.231 7.231 6.026 13.258-6.026 26.515l-89.188 86.777c-9.642 9.642-10.847 9.642-22.9-1.205-16.872-14.463-61.466-56.646-90.392-85.572zm384.47 0c-10.847-12.052-13.258-21.694 0-30.13 27.72-34.953 61.467-62.673 83.161-85.572 14.463-13.258 21.694-8.437 30.13 0 30.132 31.336 57.852 60.261 91.599 91.597 6.026 6.027 6.026 9.642-1.206 16.874-33.746 31.336-57.85 54.235-90.392 83.16-13.258 13.258-19.284 18.08-34.952 3.617-9.642-9.642-68.698-73.52-78.34-79.546z"/></svg>