<svg xmlns="http://www.w3.org/2000/svg" width="1000" height="1000">
  <path d="M500.496 5C223.572 5 5 229.506 5 500.002c0 276.43 224.506 495.001 495.002 495.001 276.43 0 495.001-224.506 495.001-495.001C995.003 226.539 773.464 5 500.496 5zM291.814 446.1c10.88-31.648 19.78-62.308 28.682-94.945.989-7.912 3.956-9.89 12.857-9.89 14.835 1.978 26.703 0 41.538 1.978 5.934 0 8.901-1.978 10.88-8.901 10.879-41.539 21.758-87.034 33.626-130.55 2.967-5.934 4.945-8.901 13.846-8.901h95.935c23.736 0 43.516 17.802 47.472 39.56.99 14.836-1.978 27.693-6.923 43.517-5.934 16.813-9.89 36.593-14.835 55.385 0 2.967-1.978 4.945-1.978 7.912h9.89c29.67 1.978 59.34 0 86.044 1.978 58.352 3.956 96.924 40.55 110.77 95.934 9.89 40.55 6.923 82.088-1.978 123.627-8.901 38.572-21.758 77.143-41.539 110.77-41.538 72.198-102.857 117.692-182.967 138.462-43.517 10.879-89.012 10.879-132.528-.99-70.22-17.802-104.836-68.241-101.869-142.417 1.978-32.638 10.88-62.308 19.78-92.968 3.957-17.802 8.902-37.582 16.814-54.396v-8.9c-7.912-1.979-14.835-3.957-21.759-7.913-20.769-11.868-27.692-32.637-21.758-58.352zm191.869 162.2c-5.934 22.747 3.956 41.538 28.681 41.538 16.814.99 30.66-4.945 40.55-16.813 21.758-22.747 30.66-49.45 32.637-77.143 1.978-34.616-8.9-45.495-38.571-45.495-11.868 0-22.747 0-34.616 1.978-2.967 0-6.923 1.978-6.923 4.945-7.912 28.682-17.802 60.33-21.758 90.99z" style="fill:#000;fill-opacity:1;fill-rule:nonzero;stroke:none;"/>
</svg>
