<svg xmlns="http://www.w3.org/2000/svg" viewBox="0 0 1000 1000"><path d="M500.496 5C223.572 5 5 229.506 5 500.002c0 276.43 224.506 495.001 495.002 495.001 276.43 0 495.001-224.506 495.001-495.001C995.003 226.539 773.464 5 500.496 5zM211.704 807.09V652.805c0-13.846 2.967-15.824 15.824-15.824h156.264c11.869 0 14.836 1.978 14.836 12.857V809.07c0 10.879-2.967 12.857-14.836 12.857H227.528c-10.879 0-15.824-1.978-15.824-14.835zm0-213.627V439.177c0-11.868 4.945-14.835 15.824-14.835h156.264c11.869 0 14.836 2.967 14.836 14.835V597.42c0 10.879-2.967 13.846-14.836 13.846H227.528c-10.879 0-15.824-2.967-15.824-17.803zm0-210.66V228.517c0-10.879 2.967-15.824 15.824-15.824h156.264c11.869 0 14.836 1.978 14.836 12.857v159.231c0 7.913-2.967 14.836-14.836 14.836H227.528c-10.879 0-15.824-3.956-15.824-16.814zM425.331 516.32c0-50.44 41.539-91.978 92.967-91.978 55.385 2.967 91.979 41.539 94.946 94.945 0 50.44-44.506 91.979-94.946 91.979-51.428 0-92.967-44.506-92.967-94.946zm0-131.539v-159.23c0-10.88 4.945-12.858 14.835-12.858h159.232c10.879 0 13.846 4.945 13.846 12.857v159.231c0 7.913-2.967 14.836-13.846 14.836H440.166c-9.89 0-14.835-3.956-14.835-14.836zm212.638 0v-159.23c0-10.88 2.967-12.858 13.846-12.858h158.243c10.879 0 14.835 1.978 14.835 12.857v159.231c0 10.88-5.934 14.836-16.813 14.836H654.782c-10.879 0-16.813-3.956-16.813-14.836z"/></svg>