<svg xmlns="http://www.w3.org/2000/svg" viewBox="0 0 1000 1000"><path d="M846.889 98.149c-38.178 31.814-71.265 53.448-113.26 90.353-68.72 64.902-138.711 128.53-207.43 192.16-21.635 15.27-24.18 19.089-49.631 0C369.67 290.309 270.41 203.773 168.603 113.42c-16.543-8.908-16.543-20.361-6.363-30.542 43.268-29.27 83.99-49.63 128.531-76.355 11.453-3.818 22.906 0 31.814 6.363 53.449 30.542 101.807 62.357 153.983 95.444 16.543 11.453 27.996 11.453 45.813 0 45.812-33.087 99.26-64.902 153.982-95.444 10.18-6.363 21.634-10.18 30.542-6.363 49.63 20.361 96.716 47.086 139.984 91.626zM8.259 711.533c-5.091-11.454 0-20.362 3.817-30.542 33.087-54.721 63.629-108.17 95.443-161.618 11.454-16.543 11.454-26.724 0-40.723-31.814-50.903-62.356-101.806-95.443-157.8-3.818-11.453-8.908-20.36-3.818-25.451 26.724-48.358 52.176-91.626 77.628-132.348 6.362-12.726 8.908-12.726 17.816-6.363 24.179 31.814 48.358 57.266 73.81 90.353 68.719 78.9 138.71 156.527 208.703 237.972 16.543 12.726 12.725 17.817 0 34.36-89.081 103.08-180.707 202.34-267.242 311.782-15.271 13.999-26.725 20.362-43.268 0-20.361-36.905-47.086-80.172-67.447-119.622zm143.8 188.342c36.906-31.815 73.81-59.812 110.715-90.354 73.81-63.629 146.347-128.53 213.794-198.522 12.726-10.18 22.906-17.816 39.45 0 105.624 89.08 212.52 187.07 320.69 283.785 3.818 5.09 3.818 5.09 10.18 10.18-21.633 16.544-43.267 36.906-62.356 50.904-81.445 52.176-86.535 52.176-167.98 0-31.815-17.816-63.63-45.813-94.171-66.174-17.817-12.726-29.27-12.726-45.813 0-52.176 31.814-100.534 66.174-153.983 96.716-8.908 5.09-31.814 5.09-43.267 0-47.086-16.543-90.353-44.54-127.258-86.535zm454.312-412.316c96.716-110.715 181.979-207.431 277.422-320.69 0 0 11.454-16.544 15.271-10.181 44.54 38.177 71.265 86.535 92.899 138.71 2.545 10.182 5.09 14-10.18 38.178-31.815 47.086-64.902 99.262-97.99 151.437-10.18 7.636-10.18 17.817 0 34.36 33.088 53.448 66.175 103.08 97.99 156.527 10.18 15.271 8.907 20.362 0 40.723-16.544 40.723-44.541 77.627-64.902 114.532-11.454 20.362-21.634 13.999-38.178 0-83.99-109.442-175.616-208.703-268.514-316.872-10.181-11.453-15.271-16.544-3.818-26.724z"/></svg>