<svg xmlns="http://www.w3.org/2000/svg" width="1000" height="1000">
  <path d="M500.496 5C223.572 5 5 229.506 5 500.002c0 276.43 224.506 495.001 495.002 495.001 276.43 0 495.001-224.506 495.001-495.001C995.003 226.539 773.464 5 500.496 5zM135.55 445.111c5.934-26.703 15.824-59.34 25.714-83.077 5.934-16.813 10.88-26.703 21.759-44.506h4.945c-4.945 17.803-7.912 27.693-9.89 37.583-21.759 80.11-11.869 154.286 31.648 216.594 9.89 21.758 3.956 27.693-11.868 31.649-46.484 19.78-46.484 19.78-56.374-25.715 0-4.945-16.813-66.264-5.934-132.528zm20.77 189.891c26.703-11.868 41.538-15.824 57.362-21.758 10.88-4.945 15.824 0 21.758 5.934 37.583 43.516 79.121 74.176 131.54 94.945 15.823 4.945 20.769 7.912 10.878 26.704-4.945 14.835-10.879 26.703-16.813 41.538-3.956 11.868-13.846 16.813-24.725 11.868-80.11-26.703-138.462-80.11-180-159.23zm85.054-385.715c45.495-61.32 141.43-102.858 209.671-119.671 79.122-14.835 127.583-5.934 185.935 19.78-180-9.89-311.54 58.352-359.012 244.287-26.703 99.89 0 237.363 131.539 320.44-11.868-4.945-26.704-4.945-36.594-10.879-184.945-72.198-249.231-289.781-131.539-453.957zm9.89 518.243c121.65 73.187 242.31 79.121 359.013-4.945 110.77-85.055 146.374-200.77 114.725-339.232 27.693 31.648 37.583 75.165 43.517 111.759 10.88 88.022-15.824 168.132-74.176 232.418-65.275 81.1-159.231 123.627-274.946 99.89-52.418-16.813-104.836-36.593-146.374-73.187L256.21 777.42s-4.945-4.945-4.945-9.89zm31.649-332.309c9.89-85.055 42.528-149.341 104.836-205.715 9.89 19.78 17.802 36.594 21.758 46.484 0 5.934-3.956 17.802-11.868 21.758-46.484 31.649-83.078 74.176-104.836 125.605 0 6.923-4.945 6.923-9.89 11.868zm84.066 363.957c10.88-21.758 15.824-43.516 26.704-58.351 3.956-4.945 15.824-9.89 25.714-9.89 42.528 4.945 90.99 4.945 132.528-5.935 16.813-5.934 21.758 5.934 26.703 15.825 4.945 9.89 4.945 21.758-4.945 31.648-63.297 31.649-132.528 46.484-206.704 26.703zm42.528-564.727c-5.934-16.813 0-21.758 9.89-26.703 37.583-21.758 79.121-36.594 127.583-41.539 31.648-4.945 58.352-4.945 95.934 4.945-17.802 36.594-32.637 68.242-44.505 99.89-4.945 10.88-14.836 10.88-24.726 10.88-43.516-15.824-90-15.824-132.528 0-8.9 3.956-11.868 0-11.868 0-3.956-15.824-13.846-32.637-19.78-47.473zm174.066 632.97c4.945-4.946 14.836-10.88 26.704-16.814 74.176-35.604 132.528-99.89 158.242-182.967 1.978-4.946 5.934-16.814 10.88-26.704 14.834 9.89 36.593 14.835 51.428 26.704 11.868 4.945 6.923 14.835 0 25.714-51.429 79.121-119.67 137.473-215.605 169.121-11.868 4.945-21.758 4.945-31.649 4.945zm21.759-116.704c-26.704-19.78-26.704-31.649 0-47.473 25.714-15.824 51.428-30.66 84.066-52.418-20.77 42.528-52.418 74.176-84.066 99.89zm4.945-479.672c14.835-26.704 26.703-53.407 36.593-79.121 9.89-15.825 15.825-15.825 31.649-10.88 78.132 26.704 132.528 80.11 169.121 154.287 10.88 26.703 4.945 30.66-16.813 36.593-31.649 9.89-56.374 21.759-88.022 35.605-5.934 3.956-8.901-1.978-17.803-13.846-30.659-38.572-62.307-70.22-103.846-90-10.88-9.89-15.824-17.803-10.88-32.638zM752.695 445.11c-9.89-26.703-5.934-26.703 15.824-37.582 25.714-9.89 57.363-21.759 93.956-31.649 31.649 95.935 26.704 185.935-14.835 279.891-21.758-9.89-40.55-18.79-58.352-24.725-9.89-1.978-9.89-17.802-9.89-21.758 9.89-59.341 0-110.77-26.703-164.177z" style="fill:#000;fill-opacity:1;fill-rule:nonzero;stroke:none;"/>
</svg>
