<svg xmlns="http://www.w3.org/2000/svg" viewBox="0 0 1000 1000"><path d="M500.496 5C223.572 5 5 229.506 5 500.002c0 276.43 224.506 495.001 495.002 495.001 276.43 0 495.001-224.506 495.001-495.001C995.003 226.539 773.464 5 500.496 5zM226.54 459.947h102.858c14.835 0 14.835 1.978 17.802 14.835 14.835 47.472 30.66 95.934 47.473 144.396 0 5.934 2.967 10.879 5.934 17.802 4.945-31.648 11.868-57.363 19.78-85.055 3.956-26.703 10.88-54.396 15.824-77.143 0-9.89 7.912-14.835 14.835-14.835h81.1c9.89 0 13.846 4.945 17.802 14.835 14.835 47.472 29.67 95.934 44.506 144.396 3.956 5.934 3.956 10.879 4.945 15.824 18.79-100.88 51.428-200.77 78.132-298.682-10.88-1.978-23.737-5.934-31.649-8.901 43.517-42.528 88.023-88.023 132.528-134.506 11.868 57.363 29.67 120.66 41.539 179.011-6.923-2.967-13.846-4.945-21.759-8.9-10.879-3.957-5.934 0-34.615 82.087-21.758 65.275-42.528 130.55-62.308 194.836-13.846 50.44-31.648 102.858-47.473 150.33-2.967 11.869-2.967 11.869-17.802 11.869h-86.044c-17.802 0-17.802 0-19.78-15.825-14.836-45.494-27.693-96.923-41.539-149.34 0-1.979 0-1.979-2.967-9.891-1.978 17.802-5.934 30.66-9.89 46.484-3.956 38.571-14.835 78.132-24.726 120.66 0 7.912-3.956 7.912-10.879 7.912h-95.934c-8.901 0-11.868-2.968-14.835-7.913-18.792-66.264-38.572-132.528-61.32-196.813-11.867-38.572-24.725-78.133-35.604-116.704-2.967-5.934-2.967-11.868-5.934-20.77z"/></svg>