<svg xmlns="http://www.w3.org/2000/svg" viewBox="0 0 1000 1000"><path d="M500.496 5C223.572 5 5 229.506 5 500.002c0 276.43 224.506 495.001 495.002 495.001 276.43 0 495.001-224.506 495.001-495.001C995.003 226.539 773.464 5 500.496 5zm-341.21 558.793c-22.747-125.605 14.835-231.43 101.869-323.408 133.517-129.56 348.133-136.484 488.573-15.824 46.483 38.572 81.099 89.011 103.846 142.418 3.956 13.846 3.956 22.748-3.956 33.627-26.703 33.626-50.44 64.286-73.187 98.901-24.725-34.615-49.45-70.22-94.945-121.649-52.418-68.242-126.594-99.89-209.671-80.11-80.11 18.791-137.473 72.198-157.254 151.32-34.615 142.417 77.144 270.99 222.529 256.154 59.34-3.956 109.78-32.637 144.396-83.077 15.824-17.802 75.165-98.902 90.99-122.638 18.79 26.704 38.57 45.495 53.406 68.242 27.692 38.572 41.538 39.56 19.78 87.033-73.187 138.462-187.913 207.693-341.21 211.65-167.143 0-318.462-138.463-345.166-302.639z"/></svg>