<svg xmlns="http://www.w3.org/2000/svg" viewBox="0 0 1000 1000"><path d="M500.496 5C223.572 5 5 229.506 5 500.002c0 276.43 224.506 495.001 495.002 495.001 276.43 0 495.001-224.506 495.001-495.001C995.003 226.539 773.464 5 500.496 5zM142.473 492.584c-1.978-174.066 123.627-330.33 292.748-362.968 58.352-11.868 111.759-3.956 157.253 35.604 41.54 34.616 51.43 86.045 24.726 121.649-36.594 53.407-92.967 68.242-141.43 39.56-29.67-18.79-54.395-39.56-83.076-56.373-7.913-5.934-16.814-10.88-25.715-14.835-19.78-4.945-36.593 1.978-42.527 17.802-25.715 76.154-50.44 153.297-56.374 235.385-3.956 62.308 19.78 112.748 67.253 153.297 31.648 24.726 62.308 50.44 96.923 72.199 58.352 38.571 120.66 40.55 180 5.934 45.495-27.693 90.001-58.352 132.529-87.034 3.956-3.956 7.912-7.912 11.868-9.89 21.758-12.857 44.506-12.857 61.319 1.978 14.835 12.857 19.78 38.572 5.934 59.341-18.791 26.703-40.55 53.407-67.253 73.187-117.693 93.956-248.243 114.726-386.705 57.363-143.407-59.34-227.473-180.99-227.473-342.199zm203.737 45.495c-3.956-7.912-5.934-20.77 2.967-26.704 18.791-12.857 40.55-13.846 60.33-6.923 20.77 8.901 25.714 27.693 27.692 44.506 0 26.703-18.791 41.538-41.538 34.615-23.737-5.934-42.528-22.747-49.451-45.494zm129.56 121.648c-10.878-10.879-7.911-21.758 4.946-21.758 23.736-1.978 45.495-1.978 67.253 0 5.934 0 9.89 4.945 15.824 8.901-4.945 5.934-5.934 8.901-7.912 10.88-44.506 43.516-36.594 46.483-80.11 1.977zm118.683-114.725c0-15.824 6.923-31.649 26.703-40.55 14.835-6.923 49.45-.989 60.33 8.901 3.956 5.934 6.923 15.825 5.934 22.748-9.89 20.769-25.714 39.56-50.44 47.472-24.725 8.901-42.527-7.912-42.527-38.571zm33.626-173.078c29.67-33.626 62.308-65.275 95.934-96.923 9.89-10.88 25.715-7.912 32.638 6.923 23.736 47.473 44.506 96.923 64.286 148.352 10.879 26.704-14.835 51.429-53.407 48.462-43.517-5.934-90.99-28.682-131.539-59.341-15.824-13.846-20.77-31.648-7.912-47.473z"/></svg>