<svg xmlns="http://www.w3.org/2000/svg" width="1000" height="1000">
  <path d="M500.496 5c272.968 0 494.507 221.54 494.507 495.002 0 270.495-218.572 495.001-495.001 495.001C229.506 995.003 5 776.431 5 500.002 5 229.506 223.572 5 500.496 5zm-361.98 588.463c-13.845 45.495 12.858 80.11 62.309 80.11h193.847c20.769 0 15.824 2.968 25.714-21.758 28.681-82.088 71.209-217.583 74.176-236.374-14.835-.99-34.615 2.967-34.615 0 24.725-25.714 52.417-48.462 81.099-83.077h-109.78c-15.825 0-15.825 0-20.77 16.813-15.824 46.484-28.682 91.978-45.495 138.462-27.692 87.033-36.593 125.605-49.45 125.605h-46.484c-19.78 0-26.704-7.912-21.759-24.726-.989 2.967 65.275-198.791 77.144-229.45 4.945-22.748 6.923-26.704-13.847-26.704h-71.209c-16.813 0-16.813 0-25.714 20.769-12.857 38.572-25.714 77.143-36.594 113.737-12.857 42.527-29.67 81.099-38.571 126.593zm344.178 80.11h87.033c22.748 0 22.748 0 25.715-17.802 9.89-25.714 16.813-50.44 26.703-75.165 4.945-16.813 2.967-16.813 23.736-16.813h93.957c53.406 0 90.989-25.714 117.692-76.154 10.88-24.725 18.792-54.396 23.737-79.121 8.9-41.539-12.858-76.154-59.341-76.154H579.617c3.956 30.66 12.858 55.385 25.715 90-17.803-3.956-42.528-5.934-43.517 0-4.945 13.846-45.495 136.484-70.22 221.54-4.945 7.911-4.945 15.823-8.901 29.67zM645.88 509.398c12.857-42.527 21.759-76.154 34.616-108.791 0-4.945 3.956-8.901 12.857-8.901h57.363c17.802 0 25.714 8.9 21.758 24.725-8.901 24.725-12.857 42.528-21.758 63.297-7.912 15.824-20.77 29.67-41.539 29.67z" style="fill:#000;fill-opacity:1;fill-rule:nonzero;stroke:none;"/>
</svg>
