<svg width="27" height="27" fill="none" xmlns="http://www.w3.org/2000/svg">
    <path fill-rule="evenodd" clip-rule="evenodd"
        d="M27 13.5C27 6.045 20.955 0 13.5 0S0 6.045 0 13.5 6.045 27 13.5 27 27 20.955 27 13.5zM5.791 10.638c.1-2.867 1.553-1.706 1.553-1.706s3.964 2.2 4.844 2.718c.873.508.59.841.13 1.379l-.014.017c-.465.549-.58.233-.58.233s-.07-.12-.505-.543c-.435-.424-.581-.195-.581-.195s-.675.651-1.59 1.512c-.859.808-.912.664-1.056.275l-.03-.08c-.17-.637.195-.932.195-.932s1.18-1.082 1.59-1.396c.286-.22.119-.285-.364-.474-.21-.082-.48-.188-.8-.34-1.68-.87-1.147 3.693-.737 5.159.482 1.6 1.018 1.162 2.063.305.22-.179.46-.377.729-.578 2.333-1.874 6.599-6.01 7.952-7.333 1.352-1.323 1.979-.788 2.405.389.564 1.89.654 6.326.659 7.876-.03 1.952-.597 1.957-1.59 1.668-.938-.262-3.048-1.633-4.23-2.4-.337-.219-.598-.389-.736-.47-.559-.332-.453-.46-.142-.84l.105-.13c.491-.604.699-.231.699-.231s1.077.783 2.211 1.512c1.501 1.042 1.83.459 1.901-.31.204-2.253-.017-3.251-.239-4.251l-.072-.33c-.492-2.169-2.5.006-4.01 1.64-.355.384-.681.738-.955.999-1.439 1.374-4.838 4.506-5.778 5.2-1.08.764-1.66.999-2.095.232-1.029-2.038-1.031-6.353-.932-8.575z"
        fill="#000" />
</svg>