<svg xmlns="http://www.w3.org/2000/svg" width="1000" height="1000">
  <path d="M500.496 5C223.572 5 5 229.506 5 500.002c0 276.43 224.506 495.001 495.002 495.001 276.43 0 495.001-224.506 495.001-495.001C995.003 226.539 773.464 5 500.496 5zM127.638 453.023c28.681-82.088 101.868-132.527 185.934-124.615 5.935.989 9.89 1.978 15.825 3.956v-34.616c0-95.934 77.143-174.066 170.11-174.066 85.055 0 162.198 62.308 174.067 151.319 2.967 34.615-11.868 57.363 15.824 57.363 76.154-7.912 134.506 22.747 173.077 89.011 65.275 107.803-19.78 254.177-146.374 254.177-11.868 0-26.703 0-35.604 4.945-6.923 3.956-3.956 23.736-3.956 34.615-2.967 115.715-107.803 192.858-215.605 166.155-81.1-19.78-142.418-100.88-131.54-185.935 0-14.835-3.955-19.78-19.78-19.78-37.582 4.945-73.187-2.967-106.813-22.748-70.22-46.483-101.869-126.593-75.165-199.78zm205.715-112.747c7.912 19.78 15.824 34.615 22.747 46.483 23.736 42.528 58.352 73.188 104.836 77.144-19.78-62.308-73.187-119.671-127.583-123.627zm3.956 332.309c50.44-3.956 107.802-66.264 119.67-123.627-58.351 15.824-123.626 81.099-119.67 123.627zm123.627-132.528c19.78 0 53.406.989 77.143.989v-69.231c0-8.901 0-3.956 30.66-15.825 65.274-28.68 89.01-65.274 100.879-115.714-43.517 0-102.858 54.396-115.715 89.011-15.824 42.528-9.89 42.528-70.22 38.572-6.923 0-16.813-.99-22.747-3.956zm77.143.989c15.824 27.692 22.747 50.44 38.571 74.176 23.737 30.66 54.396 45.494 89.012 57.363-7.913-61.32-62.308-112.748-127.583-131.54z" style="fill:#000;fill-opacity:1;fill-rule:nonzero;stroke:none;"/>
</svg>
