<svg xmlns="http://www.w3.org/2000/svg" viewBox="0 0 27 27">
	<path
		d="M3.1 5.7S.7 3.8.5 8.6C.3 12.2.3 19.5 2 22.9c.7 1.3 1.7.9 3.5-.4 1.6-1.2 7.3-6.4 9.7-8.7s7.3-8.9 8.3-4.4c.4 1.9.9 3.5.5 7.7-.1 1.3-.7 2.3-3.2.5-1.9-1.2-3.7-2.5-3.7-2.5s-.3-.6-1.2.4c-.6.8-1 1 .1 1.6 1 .6 6.3 4.2 8.3 4.8 1.7.4 2.7.4 2.7-2.9 0-2.6-.2-10-1.1-13.2-.7-2-1.8-2.9-4-.7-2.3 2.2-9.4 9.1-13.3 12.3-2.6 1.9-3.7 3.7-4.7.5-.7-2.4-1.6-10.1 1.2-8.6 1.8.8 2.6.8 1.9 1.4-.6.5-2.6 2.3-2.6 2.3s-.6.5-.3 1.6c.3.7.3 1.1 1.8-.3 1.5-1.4 2.7-2.5 2.7-2.5s.2-.4 1 .3c.7.7.8.9.8.9s.2.5 1-.4 1.3-1.5-.2-2.3c-1.5-1-8.1-4.6-8.1-4.6z"
		fill-rule="evenodd" clip-rule="evenodd" />
</svg>