<svg xmlns="http://www.w3.org/2000/svg" viewBox="0 0 1000 1000"><path d="M500.496 5C223.572 5 5 229.506 5 500.002c0 276.43 224.506 495.001 495.002 495.001 276.43 0 495.001-224.506 495.001-495.001C995.003 226.539 773.464 5 500.496 5zM132.583 730.936c1.978-4.945 41.538-71.209 61.319-108.791C255.22 513.353 316.54 399.617 379.836 286.869c2.967-6.923 6.924-9.89 17.803-9.89h266.045c-5.935 9.89-9.89 16.813-12.858 24.725-24.725 46.484-53.406 92.968-77.143 139.451-3.956 9.89-11.868 11.868-22.747 11.868H406.54a19.428 19.428 0 0 0-16.813 9.89c-48.462 87.034-128.572 229.452-145.386 259.122-3.956 9.89-11.868 11.869-21.758 11.869h-89.011s-2.967 0-.99-2.968zm214.616-19.78c5.934-10.879 55.385-95.934 79.121-142.418 4.945-9.89 9.89-12.857 18.791-12.857h146.374c8.902 0 12.858-.99 19.78-11.868 45.495-83.077 94.946-163.188 139.452-248.243 9.89-15.824 17.802-18.791 34.615-18.791h82.088s2.968 0 .99 2.967c-19.78 36.593-41.54 69.231-61.32 107.803-61.318 111.758-124.615 222.528-185.934 335.275-5.934 7.912-9.89 10.88-17.802 10.88H350.166c-18.791 0-9.89-9.89-2.967-22.748z"/></svg>