<svg xmlns="http://www.w3.org/2000/svg" width="1000" height="1000">
  <path d="M500.496 5C223.572 5 5 229.506 5 500.002c0 276.43 224.506 495.001 495.002 495.001 276.43 0 495.001-224.506 495.001-495.001C995.003 226.539 773.464 5 500.496 5zM154.341 494.562c13.846-13.846 27.693-31.648 44.506-46.484 29.67-28.681 29.67-28.681 58.352 0 12.857 14.836 28.681 28.682 42.527 44.506 5.934 7.912 5.934 14.835 0 22.747-22.747 20.77-52.418 48.462-62.308 58.352-8.9 9.89-13.846 7.912-21.758 0-23.736-20.77-45.495-44.505-59.34-55.385-4.946-4.945-9.891-15.824-1.979-23.736zm143.407 160.22c-11.868-11.868-11.868-13.846 0-25.714 15.824-18.791 35.605-36.594 56.374-57.363 10.88-10.879 12.857-11.868 22.747 0 41.539 38.572 77.144 77.143 117.693 113.737 9.89 7.912 15.824 8.9 22.747 0 35.605-36.594 76.155-75.165 112.748-113.737 11.868-11.868 16.813-10.879 27.692 0 19.78 15.824 45.495 40.55 59.341 57.363 9.89 9.89 9.89 13.846 0 25.714-65.275 65.275-130.55 129.561-194.836 191.87-11.868 11.867-14.835 19.78-20.769 15.823-41.538-43.516-83.077-86.044-126.594-128.571-26.703-27.693-54.395-55.385-77.143-79.122zm0-276.924c-7.912-9.89-9.89-14.835 0-24.725 6.923-9.89 196.814-204.726 199.781-209.671 3.956-4.945 6.923-3.956 10.88 0 49.45 46.484 97.912 97.912 143.406 142.418 20.77 21.758 42.528 43.517 65.275 67.253 9.89 9.89 6.923 11.868 0 21.758-3.956 3.956-36.593 38.572-55.384 56.374-11.869 14.835-19.78 14.835-31.649 3.956-36.593-38.571-77.143-75.165-112.748-114.725-8.9-11.869-12.857-9.89-22.747 0-40.55 39.56-108.791 105.824-117.693 114.725-8.9 8.901-13.846 8.901-22.747 0-9.89-8.9-40.55-38.571-56.374-57.363zm135.495 137.473c-10.879-11.868-7.912-14.835 0-22.747 20.77-23.736 40.55-44.506 61.32-65.275 3.955-3.956 11.867-3.956 15.823 0 9.89 8.901 47.473 41.539 73.187 68.242 6.923 6.923 4.945 10.88-2.967 19.78-22.747 20.77-43.516 42.528-65.275 64.286-6.923 7.912-7.912 6.923-16.813-.989-11.868-10.879-45.495-42.527-65.275-63.297zm279.891 0c-7.912-7.912-8.9-14.835 0-22.747 21.759-23.736 44.506-44.506 61.32-61.319 10.878-9.89 15.823-6.923 21.757 0 21.759 21.758 42.528 43.517 67.253 67.253 2.967 3.956 2.967 7.912-.989 11.868-25.714 22.748-42.527 40.55-66.264 61.32-9.89 9.89-14.835 12.856-25.714 1.977-7.912-6.923-50.44-52.418-57.363-58.352z" style="fill:#000;fill-opacity:1;fill-rule:nonzero;stroke:none;"/>
</svg>
