<svg xmlns="http://www.w3.org/2000/svg" width="1000" height="1000">
  <path d="M260.577 202.307h101.538c5.77 0 6.924 2.308 6.924 8.077v580.383c0 8.077-1.154 8.077-10.385 8.077h-98.077zm184.615 783.46V17.691C445.192 5 445.192 5 456.731 5h86.538c11.538 0 11.538 0 11.538 11.538v965.767c0 12.692 0 12.692-13.846 12.692h-85.384c-10.385 0-10.385 0-10.385-9.23zm184.615-195V216.153c0-13.846 0-13.846 13.846-13.846h84.23c8.078 0 11.54 2.308 11.54 9.23a24328.643 24328.643 0 0 0 0 580.384c0 6.923-3.462 6.923-11.54 6.923h-88.845c-6.923 0-9.231 0-9.231-8.077z" style="fill:#000;fill-opacity:1;fill-rule:nonzero;stroke:none;"/>
</svg>
