<svg xmlns="http://www.w3.org/2000/svg" viewBox="0 0 1000 1000"><path d="M640.74,422.221c0,7.408-14.813,18.518-22.221,22.223H351.852V396.3H614.814C629.63,396.3,640.74,411.11,640.74,422.221ZM1000,500c0,277.778-222.222,500-500,500S0,777.778,0,500,222.222,0,500,0,1000,222.222,1000,500Zm-244.444,3.7c33.332-11.111,96.3-48.148,96.3-118.519,0-85.185-74.074-125.925-129.63-125.925H148.148V740.741h203.7V577.777H603.7c18.519,3.7,51.853,18.518,51.853,48.148V740.741h196.3V596.295C848.149,566.666,822.223,503.7,755.556,503.7Z"/></svg>