<svg xmlns="http://www.w3.org/2000/svg" width="1000" height="1000">
  <path d="M5 502.084c0 73.745 27.276 136.378 79.806 184.868 93.95 80.817 216.185 87.888 320.236 17.174 8.082-6.061 13.133-5.051 19.194 3.03l20.204 20.205c19.194 19.194 34.347 22.224 47.48 9.091 23.235-23.234 3.03-35.357-8.082-47.48-9.091-8.08-13.132-12.122-20.204-20.203-8.081-9.092-9.092-13.133-3.03-24.245 40.408-57.582 53.54-121.225 41.418-192.95-21.214-124.256-140.419-216.184-265.684-203.052C101.98 262.665 5 366.717 5 502.084zm110.113-138.398c77.786-81.827 207.092-77.786 284.878 4.04 64.653 68.695 68.694 187.9 6.061 253.563-3.03-3.03-5.05-6.061-7.071-9.092-7.072-10.102-14.143-20.204-22.225-28.286-11.112-15.153-30.306-17.173-42.428-5.05-11.113 11.111-9.092 29.295 4.04 42.428 11.113 11.112 21.215 21.214 33.337 35.357-64.653 57.582-176.786 52.53-248.51-13.133-80.817-74.755-84.858-199.01-8.082-279.827zm438.43 363.675c0 16.163 13.132 23.234 34.347 23.234 58.592 0 120.214 0 181.837 1.01 62.633 1.01 126.276 1.01 187.899 1.01 23.235 0 36.367-9.091 36.367-25.254 0-17.174-12.122-24.245-40.408-24.245H585.869c-17.173 0-32.326 10.102-32.326 24.245zm0-225.277c0 19.194 14.143 23.235 40.408 23.235h364.685c21.214 0 36.367-9.092 36.367-24.245-1.01-15.153-15.153-23.235-37.377-23.235H589.91c-13.133 0-36.367-1.01-36.367 24.245zm0-229.317c0 18.184 14.143 27.276 40.408 27.276h179.817c31.316 0 60.612-1.01 90.919-1.01 29.296 0 58.592-1.01 88.898-1.01 25.255 0 40.408-9.092 40.408-25.256 0-20.204-11.112-24.245-40.408-24.245H593.95c-17.174 0-40.408 0-40.408 24.245z" style="fill:#000;fill-opacity:1;fill-rule:nonzero;stroke:none;"/>
</svg>
