<svg xmlns="http://www.w3.org/2000/svg" viewBox="0 0 1000 1000"><path d="M500.496 5C223.572 5 5 229.506 5 500.002c0 276.43 224.506 495.001 495.002 495.001 276.43 0 495.001-224.506 495.001-495.001C995.003 226.539 773.464 5 500.496 5zM132.583 507.42c-8.901-8.902-8.901-8.902 0-17.803l364.946-364.946c7.912-7.912 9.89-7.912 17.802 0 20.77 19.78 39.561 40.55 59.341 59.34 8.901 7.913 8.901 10.88 0 19.78-10.879 9.891-279.89 276.925-283.847 281.87-2.967 3.956-2.967 9.89 0 12.857 4.945 4.945 135.495 134.506 203.737 202.748 7.912 9.89 10.88 9.89 20.77 0 54.395-52.418 108.791-107.803 162.198-161.21 6.923-7.911 8.9-7.911 16.813 0 3.956 3.957 6.923 5.935 11.868 5.935 5.934-2.967 5.934-8.901 5.934-13.846v-84.067c0-12.857-2.967-15.824-13.846-15.824h-42.528c-13.846 0-29.67 0-44.505 1.978-3.956 0-7.912.99-10.88 5.934-2.966 1.978 0 5.934 4.946 10.88 11.868 11.868 11.868 11.868 0 23.736a3861.076 3861.076 0 0 0-90 90c-7.913 7.912-7.913 7.912-2.968 17.802 2.967 5.934-.989 10.88-7.912 10.88H416.43c-9.89 0-11.868-1.979-11.868-11.869v-86.044c0-4.945 0-8.901 4.945-10.88 3.956-1.977 6.923.99 8.901 2.968 9.89 10.88 11.868 10.88 20.77 0a10378.963 10378.963 0 0 0 208.681-208.682c9.89-8.901 12.857-8.901 21.759 0 69.23 71.209 139.45 139.45 208.682 210.66 8.9 8.901 8.9 8.901 0 17.802L513.353 872.366c-5.934 6.923-8.9 6.923-15.824 0z"/></svg>