<svg xmlns="http://www.w3.org/2000/svg" width="1000" height="1000">
  <path d="M412.309 184.043c-198.774 169.764-198.774 463.09 0 633.927-100.999 37.606-247.125-6.446-328.783-105.296C-11.026 600.93-23.919 437.614 65.26 312.977c76.286-111.743 227.784-169.763 347.049-128.934zm-11.82 510.365c-94.551-128.934-81.658-315.889 36.532-429.781 117.115-118.19 299.772-126.785 434.08-27.936 110.668 89.18 188.028 293.326 49.424 475.983 17.191 17.191 31.16 33.308 46.201 50.5 15.043 18.265 23.638 35.456 10.745 48.35-12.894 17.19-32.234 3.223-47.276-12.894-17.191-17.191-29.01-32.233-46.201-51.574C702.41 891.033 493.967 817.97 400.49 694.408zm66.617-372.835C359.66 424.721 372.554 600.931 484.297 699.78c98.85 94.552 275.06 102.074 356.718 8.596-17.19-17.191-39.754-37.606-56.946-55.871-11.819-12.894-19.34-26.862-7.52-39.755 17.19-17.191 29.01-11.82 47.275 6.447 15.042 15.042 33.308 35.456 50.5 54.797 100.998-106.371 85.956-271.837-20.415-371.761-111.743-108.52-282.581-100.999-386.803 19.34zm4.298 177.285c0-79.51 39.754-137.53 111.743-177.285 18.265-8.596 25.787-8.596 35.457 8.596 13.967 31.159 48.35 97.775 48.35 168.689 0 74.137-20.415 113.892-48.35 166.54-11.82 17.191-17.192 21.49-35.457 11.819-71.989-34.383-111.743-94.552-111.743-178.36z" style="fill:#000;fill-opacity:1;fill-rule:nonzero;stroke:none;"/>
</svg>
