<svg xmlns="http://www.w3.org/2000/svg" width="1000" height="1000">
  <path d="M500.496 5C223.572 5 5 229.506 5 500.002c0 276.43 224.506 495.001 495.002 495.001 276.43 0 495.001-224.506 495.001-495.001C995.003 226.539 773.464 5 500.496 5zM171.154 647.86c-2.967-7.913 0-14.836 3.956-21.759 21.759-36.594 43.517-74.176 65.275-110.77 6.924-10.879 6.924-17.802 0-28.681-21.758-33.627-43.516-70.22-65.275-107.803-3.956-7.912-6.923-14.835-3.956-17.802 17.803-32.637 36.594-63.297 54.396-92.967 3.956-5.934 5.934-5.934 10.88-2.967 17.802 21.758 33.626 40.55 51.428 63.297 48.462 53.406 95.934 106.813 144.396 161.209 11.868 11.868 7.912 14.835 0 25.714-62.308 70.22-125.605 140.44-184.946 213.627-10.879 11.869-17.802 14.836-28.68 0-13.847-24.725-32.638-54.395-47.474-81.099zm98.902 129.56c25.714-21.758 51.429-41.538 78.132-62.308 50.44-44.505 98.901-89.011 146.374-136.484 7.912-6.923 14.835-11.868 26.703 0 72.199 61.32 146.375 128.572 221.54 194.836l5.934 7.912c-13.846 10.88-28.682 24.726-42.528 32.638-56.374 37.582-59.34 37.582-115.715 0-21.758-10.88-43.516-29.67-65.274-43.517-11.869-7.912-19.78-7.912-30.66 0-36.593 21.758-69.23 43.517-105.824 66.264-7.913 3.956-22.748 3.956-29.67 0-34.616-11.868-63.298-30.66-89.012-59.34zm7.912-562.749c28.681-19.78 58.352-34.616 88.022-53.407 6.923-2.967 14.835 0 22.748 4.945 36.593 20.77 69.23 42.528 105.824 66.264 10.88 6.923 18.791 6.923 30.66 0 31.648-23.736 68.242-45.494 106.813-66.264 6.923-4.945 14.835-7.912 20.77-4.945 33.626 15.824 67.252 33.627 95.934 63.297-24.726 21.758-48.462 37.583-77.143 62.308-47.473 44.506-95.935 89.011-143.407 132.528-14.836 10.88-16.814 13.846-33.627 0-74.176-62.308-142.418-121.649-212.638-183.957-11.868-6.923-11.868-14.835-3.956-20.769zm305.605 278.902c66.264-77.143 124.616-143.407 190.88-220.55 0 0 7.912-10.88 10.88-7.912 30.659 25.714 48.461 59.34 63.296 95.934 1.978 6.923 3.956 9.89-6.923 25.714-21.758 32.638-44.506 69.231-67.253 102.858-6.923 7.912-6.923 14.835 0 25.714 22.747 36.594 45.495 70.22 67.253 106.814 6.923 10.88 5.934 15.824 0 28.681-10.88 27.693-29.67 53.407-44.506 78.132-6.923 14.836-14.835 11.869-25.714 0-58.352-73.187-121.649-143.407-183.957-216.594-7.912-7.912-11.868-10.879-3.956-18.791z" style="fill:#000;fill-opacity:1;fill-rule:nonzero;stroke:none;"/>
</svg>
