<svg xmlns="http://www.w3.org/2000/svg" width="1000" height="1000">
  <path d="M500.496 5C223.572 5 5 229.506 5 500.002c0 276.43 224.506 495.001 495.002 495.001 276.43 0 495.001-224.506 495.001-495.001C995.003 226.539 773.464 5 500.496 5zM152.363 520.276c-14.835-63.296 27.693-124.615 90.99-136.484 37.582-6.923 71.208 4.946 99.89 31.649 8.901 8.901 18.791 18.791 31.648 21.758 26.704 8.901 56.374-2.967 69.231-27.692 12.858-23.737 7.912-53.407-12.857-70.22-33.626-29.67-46.484-66.264-39.56-106.814 8.9-54.396 55.384-95.934 112.747-95.934 66.264 1.978 117.693 59.34 111.759 125.605-3.956 29.67-16.813 53.406-37.583 73.187-17.802 16.813-26.703 40.55-17.802 63.297 9.89 24.725 27.692 37.582 53.407 38.571 18.791 1.978 34.615-5.934 47.473-20.77 53.406-61.318 152.308-49.45 187.912 26.704 24.726 50.44 6.923 111.759-39.56 143.407-47.473 30.66-110.77 21.759-147.363-21.758-22.748-26.703-73.188-27.692-94.946 11.868-12.857 21.759-8.901 50.44 10.88 68.242 16.813 15.824 29.67 33.627 35.604 53.407 22.747 61.319-12.857 127.583-76.154 146.374-62.308 17.802-126.594-21.758-140.44-83.077-9.89-43.517 3.956-81.1 36.593-112.748 15.824-15.824 22.748-35.604 15.824-58.352-4.945-20.769-21.758-37.582-44.505-40.55-20.77-4.944-40.55 0-56.374 17.803-28.681 33.627-66.264 49.45-110.77 37.583-45.494-9.89-75.165-38.572-86.044-85.056zm44.506-23.736c0 37.583 30.66 66.264 67.253 66.264s66.264-31.648 66.264-66.264c0-39.56-29.67-67.253-67.253-67.253-36.594 0-66.264 29.67-66.264 67.253zm20.77 0c0-26.703 19.78-46.484 45.494-46.484 26.703 0 45.494 19.78 45.494 46.484 0 23.736-18.79 44.506-45.494 44.506-25.715 0-45.495-20.77-45.495-44.506zM435.22 249.287c0 36.593 29.67 66.263 66.264 67.252 34.616 2.968 67.253-26.703 67.253-63.296 1.978-36.594-26.703-67.253-63.297-69.231-37.582-1.978-68.242 27.692-70.22 65.275zm4.945 487.584c1.978 37.582 30.66 67.253 68.242 65.275 37.583 0 67.253-30.66 67.253-70.22-.989-35.605-33.626-64.286-70.22-63.297-36.593 1.978-65.275 31.648-65.275 68.242zm16.814-486.595c0-23.737 21.758-47.473 47.472-45.495 23.737 0 44.506 21.758 44.506 45.495 0 25.714-20.77 48.461-47.473 45.494-23.736 0-44.505-20.77-44.505-45.494zm4.945 484.617c0-25.715 20.769-44.506 46.483-44.506 23.737 0 46.484 20.77 46.484 44.506 0 26.703-23.736 47.472-47.473 46.483-26.703 0-45.494-21.758-45.494-46.483zm219.56-245.276c0 36.594 28.682 67.253 64.287 68.242 37.582 0 68.242-28.681 68.242-67.253 0-36.594-28.682-66.264-64.286-66.264-37.583-.989-68.242 28.681-68.242 65.275zm20.77 0c0-23.736 19.78-45.495 44.506-45.495 26.703 0 46.483 21.759 46.483 46.484 0 26.703-19.78 46.484-46.483 46.484-24.726 0-44.506-20.77-44.506-47.473z" style="fill:#000;fill-opacity:1;fill-rule:nonzero;stroke:none;"/>
</svg>
