<?xml version="1.0" encoding="utf-8"?>
<!-- Generator: Adobe Illustrator 26.4.1, SVG Export Plug-In . SVG Version: 6.00 Build 0)  -->
<svg version="1.1" id="Layer_1" xmlns="http://www.w3.org/2000/svg" xmlns:xlink="http://www.w3.org/1999/xlink" x="0px" y="0px"
	 viewBox="0 0 1000 1000" style="enable-background:new 0 0 1000 1000;" xml:space="preserve">
<path d="M676.6,489.2c-10,0-18.4,2.6-24.9,7.6c-6.2,4.8-10.4,11.6-12.7,20.2h73c-2.2-9.1-6.5-16.1-12.8-20.6
	C692.7,491.6,684.8,489.1,676.6,489.2z"/>
<path d="M430.6,489.2c-10,0-18.4,2.6-24.9,7.6c-6.2,4.8-10.4,11.6-12.7,20.2h73c-2.2-9.1-6.5-16.1-12.8-20.6
	C446.7,491.6,438.8,489.1,430.6,489.2z"/>
<path d="M500,0C223.9,0,0,223.9,0,500s223.9,500,500,500s500-223.9,500-500S776.1,0,500,0z M675.8,770.8
	c-45.3,25.2-95.2,37.8-149.5,37.8c-89.5,0-163.4-29.7-221.8-89.2C246.2,659.9,217,586.6,217,499.3c0-87.8,29.2-161.3,87.5-220.5
	s132.2-88.8,221.8-88.8c52.1-0.4,103.5,12.6,149.1,37.8c45.6,25.2,81.1,59.3,106.6,102.4l-101.1,58.6
	c-14.5-26.4-36.4-48.1-62.9-62.4c-27.2-15-57.8-22.5-91.8-22.5c-57.8,0-104.4,18.1-139.8,54.4c-35.4,36.2-53.1,83.3-53.1,141
	c0,57.2,17.7,103.9,53.1,140.2c35.4,36.3,82,54.4,139.8,54.4c34,0,64.7-7.5,92.2-22.5c26.4-14,48.1-35.4,62.4-61.6L782,668.4
	C756.5,711.5,721.1,745.6,675.8,770.8z"/>
</svg>
