<svg xmlns="http://www.w3.org/2000/svg" width="1000" height="1000">
  <path d="m629.796 612.029 80.937 37.507-191.486 118.445v-69.093c0-7.205.691-11.647 1.974-13.325 1.283-1.678 6.613-5.428 15.793-11.35 28.328-17.076 47.674-31.586 58.235-43.43l5.922-7.897c-9.87-8.587-17.766-18.457-23.688-29.61l-.987-2.962c-3.258 5.231-6.91 10.167-10.858 14.806-7.205 9.18-23.393 21.418-48.365 36.52-11.153 7.205-18.457 12.14-21.715 14.806-5.922 5.922-10.166 14.114-12.831 24.676-1.283 6.613-1.974 13.127-1.974 19.74v67.12L290.254 649.535l62.184-28.624c5.922-2.665 11.548-3.948 16.78-3.948 3.257 0 8.685 1.777 16.285 5.429s14.609 7.699 21.222 12.338c19.74 15.102 37.507 25.959 53.3 32.572 3.948-12.535 10.166-22.702 18.754-30.598l2.96-1.974c-13.818-3.948-30.894-14.115-51.325-30.598-7.897-5.923-16.78-11.549-26.65-16.78-13.128-6.613-24.676-9.87-34.547-9.87-11.153 0-22.702 2.96-34.546 8.883l-41.456 18.754 187.538-336.58v133.25c.69 6.613.197 10.857-1.48 12.831-1.679 1.974-7.108 5.626-16.287 10.858-27.637 17.766-46.588 32.276-56.755 43.43-10.166 11.153-17.569 23.688-22.208 37.507-3.948 12.535-6.218 27.933-6.91 46.39 11.154 1.284 23.69 5.232 37.508 11.845.691-17.767 2.468-31.881 5.429-42.443 2.961-10.56 7.699-19.74 14.312-27.637 7.896-8.587 24.38-20.431 49.352-35.533 11.153-7.205 18.063-12.14 20.728-14.806 6.613-5.922 11.153-14.114 13.818-24.676 1.283-6.613 1.678-13.127.987-19.74V268.539l188.525 336.58-59.223-26.65c-5.922-3.948-10.857-9.179-14.805-15.792-1.283-3.257-3.652-11.844-6.91-25.663-5.922-23.689-11.844-40.469-17.766-50.339-17.767-26.946-40.469-45.108-68.106-54.287-3.948 12.535-10.166 22.702-18.754 30.598l-3.948 2.961c14.51 3.257 26.65 9.18 36.52 17.767 7.897 5.922 15.102 14.115 21.716 24.676 3.948 5.231 8.192 17.767 12.831 37.507 3.948 17.076 7.6 28.92 10.857 35.534 7.897 13.818 17.767 23.985 29.612 30.598zM5 500c0-89.82 22.406-173.225 67.119-250.214 44.12-74.324 103.343-133.25 177.667-176.68C326.775 27.702 410.376 5 500.494 5c89.524 0 172.731 22.702 249.72 68.106 74.324 43.43 133.547 102.356 177.667 176.68C972.594 326.775 995 410.18 995 500s-22.406 173.225-67.119 250.214c-44.12 74.324-103.343 133.25-177.667 176.68C673.225 972.298 589.821 995 500 995c-89.82 0-173.225-22.702-250.214-68.106-74.324-43.43-133.547-102.356-177.667-176.68C27.406 673.225 5 589.821 5 500zm232.448 149.043c.987 4.244 3.158 7.403 6.415 9.377L491.61 812.398c2.665 1.974 5.429 2.96 8.39 2.96 2.961 0 5.725-.986 8.39-2.96L756.137 658.42c3.948-1.974 6.415-5.133 7.402-9.377.987-4.244.494-8.39-1.48-12.338l-247.747-443.18c-3.257-5.923-8.094-8.884-14.312-8.884s-10.66 2.961-13.325 8.883l-247.747 443.18c-1.974 3.95-2.467 8.095-1.48 12.339z" style="fill:#000;fill-opacity:1;fill-rule:nonzero;stroke:none;"/>
</svg>
