<svg xmlns="http://www.w3.org/2000/svg" viewBox="0 0 1000 1000"><path d="M673.128,682.777l244.242-26.35c-3.761,10.632-6.48,19.766-10.156,28.5-69.833,165.819-192.293,266.369-370.377,296.8-26.971,4.609-54.694,6.425-82.092,6.634-109.565.836-219.138.528-328.708.642q-8.715.009-17.428,0-.462-2.1-.925-4.189l250.437-78.881-.681-3.818-254.1-17.337c-.706-10.673-1.625-18.245-1.642-25.819-.126-56.425-.253-112.852,0-169.276.13-29.312-4.67-26.269,26.28-36.461Q237.25,617.229,346.4,580.84a31,31,0,0,0,13.511-8.169c-3.594-.158-7.186-.378-10.781-.463-59.648-1.4-119.3-2.608-178.943-4.294-18.315-.517-36.579-2.707-54.894-3.434-10.209-.406-13.688-5.305-13.672-14.84.114-65.61.3-131.222-.167-196.83-.087-12.411,7.7-15.058,16.573-18.262q98.935-35.745,197.8-71.684c2.457-.892,4.838-1.992,8.722-3.6L103.339,242.378c-.748-9.624-1.659-15.974-1.67-22.325Q101.5,128.526,101.627,37c.034-19.871.968-20.893,21.405-20.893,116.131,0,232.27-.505,348.391.668,38.507.389,77.065,4.6,116.635,16.5C575.832,47.1,559.535,50.613,545.883,58.137c-14.111,7.776-28.993,14.151-47.461,23.025,51.4,6.3,98.267,5.815,145.236,2.591,16.993-1.167,34.065-1.652,51.1-1.544a34.829,34.829,0,0,1,16.7,4.659c58.555,34.525,106.26,80.674,144.714,136.545,1.808,2.627,2.765,5.84,5.285,11.315C789.59,280.7,711.8,315.108,637.072,358.1c10.873-1.075,21.745-2.175,32.621-3.217,11.089-1.063,22.31-1.339,33.255-3.223q93.827-16.143,187.53-33c10.464-1.875,16.986.2,21.149,11.272,24.158,64.22,33.61,130.6,29.476,198.851-.375,6.186-6.751,14.445-12.566,17.492-69.689,36.516-139.758,72.308-209.831,108.089-15.586,7.958-31.571,15.136-47.373,22.673Q672.23,679.906,673.128,682.777Z"/></svg>