<svg xmlns="http://www.w3.org/2000/svg" viewBox="0 0 1000 1000"><path d="M500,0C223.858,0,0,223.858,0,500s223.858,500,500,500,500-223.858,500-500S776.142,0,500,0Zm271.049,543.123c0,135.41-85.935,223.841-213.045,241.182v83.689h-102.383v-84.75c-135.397-21.256-226.637-122.65-226.637-283.983,0-160.217,92.285-261.956,226.637-282.453V126.932h102.383v90.129c107.865,17.592,195.536,90.531,207.47,188.694h-134.765c-13.382-49.269-70.559-79.277-122.904-79.277-77.25,0-140.003,62.719-140.003,170.855,0,110.029,67.585,176.6,145.916,176.6,61.671,0,121.822-37.712,125.539-93.504l.338-8.448h-97.998v-96.985h229.451v68.126Z"/></svg>