<svg xmlns="http://www.w3.org/2000/svg" viewBox="0 0 1000 1000"><path d="M500.496 5c272.968 0 494.507 221.54 494.507 495.002 0 270.495-218.572 495.001-495.001 495.001C229.506 995.003 5 776.431 5 500.002 5 229.506 223.572 5 500.496 5zm-261.1 664.618c49.451 50.44 58.352 74.176 58.352 139.45 28.682-34.615 79.121-53.406 136.484-53.406 78.132 0 157.253-7.912 227.473-47.473 102.858-58.352 155.276-148.352 155.276-251.21 0-112.747-46.484-195.824-141.43-250.22-128.571-85.055-285.824-78.132-413.407 17.802-151.32 113.737-145.385 331.32-22.748 445.057zm56.374-204.726c0 40.55 54.396 44.505 54.396 0 0-39.56-54.396-36.594-54.396 0zm154.286-7.912c0 34.615 62.308 39.56 62.308.989 0-48.462-62.308-47.473-62.308-.99zm75.166 329.341c69.23 34.616 127.582 42.528 249.231 55.385-15.824-31.648 4.945-54.396 28.682-79.121 7.912-7.912 14.835-17.802 21.758-25.714 49.45-68.242 46.484-159.232-7.912-204.726.989 19.78-.99 28.681-4.945 38.571-1.978 4.945-2.967 10.88-2.967 17.802 23.736 83.078-31.649 141.43-78.132 195.825-52.418-3.956-164.177-21.758-165.166-21.758-10.879 6.923-20.77 15.824-38.571 15.824zm71.209-321.43c0 38.572 64.285 38.572 64.285-7.911 0-30.66-64.285-39.561-64.285 7.912z"/></svg>