<svg xmlns="http://www.w3.org/2000/svg" viewBox="0 0 1000 1000"><path d="M289,2,87,204H251C273,124,359,17,385,2ZM483,204V2H437C351.4,63.6,302.7,162.3,289,204Zm39,0H718C672.4,95.2,598.3,24,567,2H522Zm234,0H915L711,2H621C685.8,61.2,731,144,756,204Zm-43,796L915,798H751c-22,80-108,187-134,202ZM519,798v202h46c85.6-61.6,134.3-160.3,148-202Zm-39,0H284c45.6,108.8,119.7,180,151,202h45Zm-234,0H87l204,202h90C316.2,940.8,271,858,246,798Zm.4-64L174.9,537.7H131.3V734H56V273.8H187.3q28.65,0,52.6,7.8a99.9,99.9,0,0,1,41,23.4q17.55,16.2,27.3,41t9.8,59.1c0,17.8-2.4,33.6-7.1,47.4A123.3,123.3,0,0,1,294,487a99.9,99.9,0,0,1-23.4,23.4,81.48,81.48,0,0,1-24.7,11.7L328.3,734Zm-5.2-325c0-13.9-1.9-25.4-5.9-34.5s-9.1-16.2-15.6-21.4A54.4,54.4,0,0,0,198.9,342a85.7,85.7,0,0,0-23.4-3.2H131.3V480.5h44.2c19.1,0,34.7-5.9,46.8-17.5C235,450.8,241.2,432.8,241.2,409Zm311.3-68.9V734H475.8V340.1H389.4V273.8H639v66.3ZM877.4,557.8V734H800.7V557.8l-115-284h84.5l68.9,205.4,2-1.3,70.2-204.1h82.5Z"/></svg>