<svg xmlns="http://www.w3.org/2000/svg" viewBox="0 0 1000 1000"><path d="M816.98 330.386c28.385 52.714 42.528 109.088 42.528 169.121 0 65.275-16.516 125.902-49.45 181.979-31.649 54.099-74.473 96.923-128.572 128.572-56.077 32.934-116.506 49.45-181.484 49.45-64.979 0-125.407-16.516-181.484-49.45-54.1-31.649-96.924-74.473-128.572-128.572-32.935-56.077-49.451-116.704-49.451-181.979 0-60.033 14.538-116.704 43.517-170.11 27.692-50.737 65.769-92.77 114.23-126.1 48.462-33.33 102.364-53.209 161.705-59.835v11.868c-3.956.692-7.418 2.67-10.385 5.934-2.967 3.264-4.45 7.22-4.45 11.868 0 4.649 1.78 8.704 5.439 12.363 3.66 3.66 7.912 5.44 12.857 5.44 4.945 0 9.1-1.78 12.363-5.44 3.264-3.66 4.945-7.714 4.945-12.363 0-4.648-1.286-8.604-3.956-11.868-2.67-3.264-5.934-5.242-9.89-5.934v-12.857l29.67-1.978v40.55c-6.626 1.285-12.165 4.648-16.813 9.89-4.648 5.241-6.923 11.67-6.923 19.285 0 7.616 2.769 14.341 8.406 20.275 5.638 5.934 12.56 8.901 20.77 8.901 8.209 0 15.132-2.967 20.769-8.9 5.637-5.935 8.407-12.66 8.407-20.276 0-7.615-2.275-14.044-6.923-19.285-4.649-5.242-10.187-8.605-16.814-9.89v-40.55l29.67 1.978v12.857c-3.955.692-7.417 2.67-10.384 5.934-2.967 3.264-4.45 7.22-4.45 11.868 0 4.649 1.78 8.704 5.44 12.363 3.658 3.66 7.911 5.44 12.856 5.44s9.198-1.78 12.857-5.44c3.66-3.66 5.44-7.714 5.44-12.363 0-4.648-1.484-8.604-4.45-11.868-2.968-3.264-6.43-5.242-10.385-5.934v-11.868c58.648 7.22 112.055 27.495 160.22 60.824 48.165 33.33 85.748 75.363 112.748 126.1zM5 500.002c0-89.308 22.45-172.583 67.253-249.726 44.209-74.473 103.55-133.814 178.023-178.023C327.419 27.45 410.496 5 499.507 5c89.704 0 173.078 22.45 250.22 67.253 74.474 44.209 133.814 103.55 178.023 178.023 44.803 77.143 67.253 160.418 67.253 249.726 0 89.308-22.45 172.583-67.253 249.726C883.541 824.2 824.2 883.54 749.728 927.75c-77.143 44.803-160.418 67.253-249.726 67.253-89.308 0-172.583-22.45-249.726-67.253-74.473-44.209-133.814-103.55-178.023-178.022C27.451 672.585 5 589.31 5 500.002zm109.78 0c0 69.527 17.506 134.308 52.418 194.34 34.32 58.056 80.407 104.144 138.462 138.463 60.034 34.912 124.913 52.418 194.836 52.418 69.231 0 133.814-17.506 193.847-52.418 58.055-34.319 104.143-80.407 138.462-138.462 34.912-60.033 52.418-124.814 52.418-194.341 0-69.528-17.506-134.309-52.418-194.342-34.319-58.055-80.407-104.143-138.462-138.462-60.033-34.912-124.814-52.417-194.341-52.417-69.528 0-134.308 17.505-194.342 52.417-58.055 34.32-104.143 80.407-138.462 138.462-34.912 60.033-52.417 124.814-52.417 194.342zm48.462-.495c0 11.868.693 23.44 1.978 34.616h211.65v87.033l-63.298 77.143-17.802-18.791c-12.56-15.132-22.747-28.484-30.66-40.055-7.911-11.572-15.527-27.89-22.747-48.957l-7.912-28.681h-65.275c9.198 47.473 27.396 90.693 54.396 129.56 27 38.87 60.627 70.913 100.88 95.935l120.66-150.33v-73.187c-8.605-7.912-15.33-17.308-20.275-28.187-4.945-10.879-7.418-22.55-7.418-35.11 0-9.89 1.681-19.78 4.945-29.67h-190.88l1.978-14.835c1.978-11.869 4.253-23.737 6.923-35.605 3.956-15.824 8.605-29.868 13.847-42.033 5.241-12.165 13.55-24.923 24.725-38.077 7.912-9.198 17.11-18.1 27.692-26.704l12.858-10.879 56.373 80.11v46.484h69.231v-58.352L332.364 208.737c-51.429 28.978-92.275 69.23-122.638 120.66-30.956 52.12-46.484 108.791-46.484 170.11zm185.935 301.65 16.813 7.912h28.682V787.31h-34.616zM356.1 195.88l112.748 167.143v59.341c10.582-4.648 21.461-6.923 32.637-6.923 11.176 0 22.055 2.275 32.638 6.923v-60.33L645.88 196.87c-22.45-10.583-45.198-18.792-68.242-24.726L501.485 285.88l-77.143-113.737c-23.736 5.242-46.484 13.154-68.242 23.737zm11.868 582.53h26.704v-26.704l-2.967-1.978zm35.605 43.516c13.846 4.648 27.692 7.912 41.538 9.89V817.97h-41.538zm0-12.857h41.538V787.31h-41.538zm0-30.66h41.538v-9.89c-13.846-3.264-27.692-7.615-41.538-12.857zm5.934-49.45 12.857 5.934a413.004 413.004 0 0 0 34.616 9.89c16.516 3.263 31.45 4.945 45 4.945s28.483-1.682 45-4.945c11.176-1.978 22.747-4.945 34.615-8.901l13.847-4.946-61.32-82.088V546.98c7.22-5.242 13.155-11.868 17.803-19.78 4.648-7.913 6.923-16.814 6.923-26.704 0-15.132-5.637-28.385-16.813-39.56-11.176-11.176-24.528-16.814-40.055-16.814-15.528 0-28.88 5.638-40.055 16.814-11.176 11.175-16.814 24.428-16.814 39.56 0 9.198 2.176 17.802 6.429 25.715 4.253 7.912 10.088 14.538 17.308 19.78v106.813zm41.538-555.827c0-3.263 1.187-6.23 3.462-8.9 2.275-2.671 5.242-3.957 8.901-3.957 3.66 0 6.627 1.286 8.901 3.956 2.275 2.67 3.462 5.638 3.462 8.901 0 3.264-1.187 6.132-3.462 8.407-2.274 2.275-5.242 3.462-8.9 3.462-3.66 0-6.627-1.187-8.902-3.462-2.275-2.275-3.462-5.143-3.462-8.407zm2.967 659.673c13.847 1.978 27.693 3.264 41.54 3.956V817.97h-41.54zm0-23.736h41.54V787.31h-41.54zm0-30.66h41.54v-2.967c-13.155 0-27.001-1.681-41.54-4.945zm27.693-568.683c0-5.242 1.978-9.89 5.934-13.846 3.956-3.956 8.703-5.934 14.34-5.934 5.638 0 10.385 1.978 14.341 5.934 3.956 3.956 5.934 8.703 5.934 14.34 0 5.638-1.978 10.385-5.934 14.341-3.956 3.956-8.703 5.934-14.34 5.934-5.638 0-10.385-1.978-14.341-5.934-3.956-3.956-5.934-8.901-5.934-14.835zm22.747 627.035c13.846-.692 27.693-1.978 41.539-3.956V817.97h-41.539zm0-27.692h41.539V787.31h-41.539zm0-30.66h41.539v-6.923c-14.539 2.67-28.385 4.253-41.539 4.945zm23.737-605.277c0-3.263 1.186-6.23 3.461-8.9 2.275-2.671 5.242-3.957 8.901-3.957 3.66 0 6.627 1.286 8.901 3.956 2.275 2.67 3.462 5.638 3.462 8.901 0 3.264-1.187 6.132-3.462 8.407-2.274 2.275-5.241 3.462-8.9 3.462-3.66 0-6.627-1.187-8.902-3.462-2.275-2.275-3.461-5.143-3.461-8.407zm26.703 658.684c13.846-1.978 27.692-5.242 41.539-9.89v-3.956h-41.539zm0-22.747h41.539V787.31h-41.539zm0-30.66h41.539v-22.747c-13.847 5.934-27.693 10.582-41.539 13.846zm3.956-141.429 119.67 148.352c39.561-24.428 72.693-56.077 99.397-94.945 26.703-38.868 44.308-81.792 52.912-128.572h-61.319l-7.912 28.681c-7.22 21.066-14.835 37.385-22.747 48.957-7.912 11.571-18.1 24.923-30.66 40.055a469.07 469.07 0 0 0-17.802 18.791l-63.297-77.143v-87.033h207.693a303.05 303.05 0 0 0 1.978-34.616c0-60.626-15.527-117-46.484-169.121-29.67-50.737-69.527-90.99-119.67-120.66l-111.759 161.21v58.351h69.231v-46.484l56.374-80.11 12.857 10.88c10.582 8.604 19.78 17.505 27.692 26.703 11.176 13.154 19.484 25.912 24.726 38.077 5.242 12.165 9.89 26.209 13.846 42.033 2.67 11.868 4.945 23.736 6.923 35.604l1.978 14.836h-190.88c3.264 9.89 4.945 19.78 4.945 29.67 0 12.56-2.472 24.231-7.417 35.11-4.945 10.88-11.67 20.275-20.275 28.187zm46.484 172.089h28.681l15.824-7.913-10.879-13.846h-33.626zm0-30.66h26.703l-21.758-28.681-4.945 2.967z"/></svg>