<svg xmlns="http://www.w3.org/2000/svg" width="1000" height="1000">
  <path d="M500.496 5C223.572 5 5 229.506 5 500.002c0 276.43 224.506 495.001 495.002 495.001 276.43 0 495.001-224.506 495.001-495.001C995.003 226.539 773.464 5 500.496 5zM105.88 498.518c0-220.55 180.001-397.584 400.551-397.584 222.528 0 399.562 177.034 399.562 400.551 0 220.55-179.012 400.551-399.562 400.551s-400.55-180-400.55-403.518zm43.517 2.967c0 197.803 161.21 357.034 359.012 355.056 195.825 0 355.056-162.198 355.056-358.023-2.967-197.803-162.198-354.067-360-354.067-194.837 0-354.068 161.21-354.068 357.034zm61.319 56.374v-6.923c17.802-8.901 45.495-1.978 61.319 18.791 6.923 8.901 10.879 19.78 15.824 31.649 36.594 63.297 86.044 108.791 157.253 129.56 106.814 29.67 224.507-20.769 278.902-115.714 0-2.967 2.967-4.945 2.967-8.901-11.868 0-20.769-2.967-31.648-2.967-9.89 0-16.813-6.923-18.791-15.825-1.978-8.9 4.945-13.846 13.846-15.824 29.67-8.901 59.34-17.802 89.011-27.692 17.802-3.956 26.704 6.923 24.726 25.714-1.978 10.88-4.946 24.726-8.902 33.627-45.494 111.758-129.56 175.055-248.242 190.88-152.308 20.769-297.693-81.1-336.265-236.375zm63.297-56.374c-27.693-45.495 4.945-211.649 66.264-236.374 10.879 33.626 22.747 65.275 33.626 99.89h2.967c1.978-4.945 1.978-11.868 3.956-15.824 4.946-15.824 8.902-32.638 15.825-48.462 2.967-6.923 6.923-10.879 8.9-15.824 11.869-13.846 22.748-10.88 32.638 2.967 1.978 0 1.978 1.978 3.956 3.956 22.748 50.44 41.539 102.858 34.616 159.231 0 4.945-2.967 8.902-2.967 15.825-33.627-17.803-40.55-54.396-54.396-86.045-1.978 8.902-1.978 17.803-6.923 26.704-3.956 13.846-8.901 27.692-17.802 39.56-11.869 17.803-27.693 17.803-38.572 0-6.923-13.846-11.868-27.692-18.791-43.516-1.978-1.978-1.978-6.923-1.978-11.868-13.846 41.538-22.748 84.066-61.32 109.78zm257.144-207.693c20.769 6.923 29.67 18.791 36.593 34.616 6.923 15.824 10.88 31.648 17.802 50.44 4.945-16.814 8.902-29.671 13.847-43.517 4.945-8.901 8.9-18.792 13.846-24.726 10.879-13.846 24.725-16.813 33.626-2.967 8.901 11.869 13.846 25.715 20.77 38.572 1.978 4.945 4.945 9.89 6.923 15.824 13.846-38.571 17.802-81.099 63.297-101.868 6.923 20.769 6.923 40.55 4.945 61.319-4.945 47.472-20.77 92.967-41.539 138.462-5.934 13.846-15.824 27.692-35.604 32.637-11.869-34.615-22.748-66.264-32.638-100.88-10.88 36.594-17.802 73.188-54.396 97.913-31.648-63.297-61.319-122.638-47.472-195.825z" style="fill:#000;fill-opacity:1;fill-rule:nonzero;stroke:none;"/>
</svg>
