<svg xmlns="http://www.w3.org/2000/svg" viewBox="0 0 1000 1000"><path d="M743.705,446.743c-12.018-29.984-23.69-60.16-37.288-89.422-4.39-9.447-14.308-16.3-23.482-26.286-3.527,7.988-5.774,11.666-6.821,15.661-16.961,64.758-53.748,115.036-105.379,157.336-50.7,41.538-98.638,86.7-145.638,132.492-34.4,33.517-61.606,73.138-73.688,120.818-6.132,24.2-6.342,48.622,8.535,74.055,3.294-5.7,5.039-7.4,5.248-9.275,6.512-58.381,41.068-97.159,88.168-126.978,32.861-20.8,66.836-39.938,98.8-62.024,23.482-16.223,44.516-36.019,70.758-57.61-4.288,11.165-6.039,18.747-9.836,25.1-17.8,29.763-36.113,59.221-54.34,88.726-34.194,55.351-68.867,110.2-89.419,172.95C453.96,909.2,463.365,954.1,472.724,1000c4.48-6.279,6.267-12.821,7.777-19.426,13.671-59.8,41.013-111.652,82.468-157.465,80.071-88.488,159.043-178.276,188.114-299.346V471.588C748.663,463.291,746.9,454.726,743.705,446.743Z"/><path d="M482.04,450.6c51-43.858,101.823-87.856,138.495-145.36,19.359-30.356,33.643-62.84,30.643-99.944-1.019-12.6-6.088-24.873-9.306-37.295l-6.27.224C629.41,244.09,580.969,286.2,520.444,320.158c-31.324,17.577-60.959,38.465-90.078,59.632-18.644,13.552-34.953,30.345-52.308,45.685a151.413,151.413,0,0,1,16.635-44.234c9.7-16.92,21.474-32.622,31.912-49.131,41.383-65.451,83.338-130.632,106.543-205.582C546.454,83.551,535.125,41.963,526.76,0c-3.74,5.257-5.207,10.588-6.524,15.957C504.42,80.43,474.417,135.739,429.3,185.861,380.719,239.836,337.415,299.27,297,359.817c-44.733,67.016-62.977,140.925-34.257,221.1,11.555,32.258,25.906,62.144,53.749,87.231,3.122-7.229,5.535-11.46,6.825-16.013C335.1,610.522,351.525,570.546,382,539.716,413.346,508.01,448.173,479.722,482.04,450.6Z"/></svg>