<svg xmlns="http://www.w3.org/2000/svg" viewBox="0 0 1000 1000"><path d="M149.365,408.9q24.621,0,44.317,10.874a75.867,75.867,0,0,1,30.365,30.16l48.83-28.314q-18.465-31.179-51.5-49.445a146.457,146.457,0,0,0-72.015-18.261q-64.841,0-107.1,42.881T0,503.283q0,63.2,42.266,106.279t107.1,43.086q39.392,0,72.22-18.261t51.292-49.447l-48.83-28.313a73.5,73.5,0,0,1-30.16,29.75q-19.908,10.878-44.522,10.874-41.856,0-67.5-26.262T56.217,503.283q0-41.856,25.646-68.117T149.365,408.9Z"/><path d="M149.365,654.147c-43.443,0-79.837-14.647-108.17-43.535S-1.5,545.624-1.5,503.283c0-42.612,14.365-78.792,42.7-107.537s64.731-43.328,108.168-43.328a148.6,148.6,0,0,1,72.74,18.448c22.156,12.252,39.672,29.072,52.063,49.994l.771,1.3L223.476,452l-.742-1.338a74.74,74.74,0,0,0-29.777-29.574C180.1,414,165.437,410.4,149.365,410.4c-27.354,0-49.7,8.683-66.428,25.81s-25.22,39.7-25.22,67.069c0,27.1,8.485,49.529,25.219,66.658s39.069,25.81,66.429,25.81c16.083,0,30.821-3.6,43.8-10.69a72.35,72.35,0,0,0,29.561-29.151l.736-1.354L274.939,584.4l-.771,1.3A136.117,136.117,0,0,1,222.314,635.7C200.305,647.94,175.761,654.147,149.365,654.147Zm0-298.729c-42.6,0-78.278,14.277-106.031,42.434S1.5,461.487,1.5,503.283c0,41.528,14.076,76.931,41.836,105.228s63.422,42.636,106.029,42.636c25.88,0,49.933-6.08,71.491-18.071a133.259,133.259,0,0,0,49.952-47.6L224.615,558.69a75.433,75.433,0,0,1-30.009,29c-13.428,7.337-28.65,11.058-45.241,11.058-28.2,0-51.27-8.988-68.575-26.714-17.3-17.709-26.073-40.841-26.073-68.754,0-28.179,8.772-51.449,26.073-69.165S121.172,407.4,149.365,407.4c16.585,0,31.739,3.721,45.041,11.06a77.706,77.706,0,0,1,30.2,29.416l46.2-26.79c-12.066-19.855-28.933-35.863-50.155-47.6A145.64,145.64,0,0,0,149.365,355.418Z"/><path d="M404.191,435.986q-47.607,0-77.966,30.981t-30.365,77.35q0,46.779,30.776,77.554t81.658,30.777q59.088,0,89.454-43.908l-42.675-24.62q-15.6,20.524-45.958,20.517-47.193,0-57.859-38.572h154.7a124.132,124.132,0,0,0,2.051-21.748q0-45.952-29.34-77.144T404.191,435.986Zm-53.755,89.045q4.511-19.7,18.465-30.571t35.29-10.874A53.547,53.547,0,0,1,436.4,493.845q14.155,10.261,18.67,31.186Z"/><path d="M408.294,654.147c-34.175,0-62.006-10.5-82.719-31.215S294.36,575.77,294.36,544.317c0-31.174,10.361-57.552,30.794-78.4s47.034-31.431,79.037-31.431c30.375,0,55.8,10.652,75.569,31.659,19.739,20.987,29.747,47.289,29.747,78.172a126.084,126.084,0,0,1-2.075,22.012l-.221,1.236H353.257c7.364,23.93,25.658,35.572,55.858,35.572,19.655,0,34.716-6.7,44.764-19.924l.8-1.053,45.229,26.1-.926,1.339C478.536,639.157,448.024,654.147,408.294,654.147Zm-4.1-216.661c-31.167,0-57.038,10.272-76.895,30.531s-29.936,45.938-29.936,76.3c0,30.628,10.207,56.364,30.336,76.494s47.247,30.336,80.6,30.336c38.082,0,67.44-14.105,87.285-41.927l-40.125-23.149c-10.634,13.317-26.216,20.066-46.339,20.066-32.073,0-52.026-13.348-59.3-39.672l-.526-1.9H504.693a121.738,121.738,0,0,0,1.814-20.248c0-30.094-9.735-55.7-28.932-76.116C458.4,447.82,433.706,437.486,404.191,437.486Zm52.741,89.044H348.554l.42-1.835c3.071-13.412,9.465-23.982,19-31.418s21.712-11.191,36.212-11.191a55.251,55.251,0,0,1,33.092,10.544c9.7,7.03,16.176,17.824,19.257,32.084Zm-104.587-3H453.191c-3.061-12.615-9-22.186-17.669-28.471a52.306,52.306,0,0,0-31.331-9.973c-13.816,0-25.379,3.552-34.368,10.557C361.279,502.3,355.4,511.679,352.345,523.53Z"/><rect x="544.935" y="347.352" width="52.935" height="299.55"/><path d="M599.37,648.4H543.436V345.853H599.37Zm-52.934-3H596.37V348.853H546.436Z"/><path d="M743.949,435.986q-47.607,0-77.966,30.981t-30.364,77.35q0,46.779,30.775,77.554t81.659,30.777q59.088,0,89.454-43.908l-42.676-24.62q-15.6,20.524-45.958,20.517-47.192,0-57.859-38.572h154.7a124.132,124.132,0,0,0,2.051-21.748q0-45.952-29.339-77.144T743.949,435.986Zm-53.755,89.045q4.511-19.7,18.466-30.571t35.289-10.874a53.547,53.547,0,0,1,32.212,10.259q14.155,10.261,18.67,31.186Z"/><path d="M748.053,654.147c-34.176,0-62.007-10.5-82.719-31.215s-31.215-47.161-31.215-78.615c0-31.175,10.36-57.552,30.793-78.4s47.036-31.431,79.037-31.431h0c30.375,0,55.8,10.652,75.57,31.659,19.738,20.987,29.747,47.289,29.747,78.172a126.187,126.187,0,0,1-2.076,22.012l-.22,1.236H693.015c7.364,23.93,25.658,35.572,55.858,35.572,19.654,0,34.716-6.7,44.764-19.924l.8-1.053,45.23,26.1-.927,1.339C818.3,639.157,787.783,654.147,748.053,654.147Zm-4.1-216.661c-31.167,0-57.038,10.272-76.894,30.531s-29.936,45.938-29.936,76.3c0,30.629,10.206,56.365,30.336,76.494s47.246,30.336,80.6,30.336c38.082,0,67.439-14.105,87.284-41.927l-40.125-23.149c-10.634,13.317-26.216,20.066-46.339,20.066-32.073,0-52.026-13.348-59.3-39.672l-.525-1.9H844.452a121.831,121.831,0,0,0,1.814-20.248c0-30.094-9.735-55.7-28.933-76.116C798.154,447.82,773.465,437.486,743.949,437.486Zm52.74,89.044H688.312l.42-1.835c3.072-13.412,9.465-23.982,19-31.418s21.713-11.191,36.212-11.191a55.251,55.251,0,0,1,33.092,10.544c9.7,7.029,16.176,17.823,19.256,32.084Zm-104.585-3H792.948c-3.06-12.615-9-22.187-17.667-28.471a52.309,52.309,0,0,0-31.332-9.973c-13.814,0-25.378,3.552-34.368,10.557C701.037,502.3,695.163,511.679,692.1,523.53Z"/><path d="M962.044,447.476q-17.033,9.849-24.416,29.545v-35.29H884.694V646.9h52.934V548.831q0-29.546,19.081-42.266T1000,496.717V437.628A74.429,74.429,0,0,0,962.044,447.476Z"/><path d="M939.128,648.4H883.193V440.231h55.935v29.613a55.763,55.763,0,0,1,22.165-23.666A76.223,76.223,0,0,1,1000,436.128h1.5v62.277l-1.677-.2c-15.7-1.857-29.926,1.373-42.282,9.606-12.218,8.148-18.413,21.949-18.413,41.018Zm-52.935-3h49.935V548.831c0-20.135,6.644-34.774,19.749-43.514,12.523-8.345,26.852-11.8,42.623-10.27V439.141a72.938,72.938,0,0,0-35.705,9.634h0c-10.992,6.355-18.986,16.036-23.763,28.773l-2.9,7.745V443.231H886.193Z"/></svg>