<svg xmlns="http://www.w3.org/2000/svg" width="1000" height="1000">
  <path d="M875.252 497.036c87.737 34.383 119.749 103.15 119.749 192.072V853.91H729.42c-20.156 0-24.899-10.67-24.899-27.27V684.366c0-45.054-14.227-69.952-58.096-69.952H290.737v215.784c0 13.042-3.557 23.713-8.3 23.713H5V146.09h704.264c54.539 4.742 109.078 8.299 158.874 29.64 122.12 37.94 156.503 207.485 62.839 286.922-14.228 14.228-36.755 26.084-55.725 34.384zM295.479 419.97h359.246c20.156 0 35.569-11.857 35.569-32.012 0-21.342-15.413-30.827-35.57-30.827H295.48z" style="fill:#000;fill-opacity:1;fill-rule:nonzero;stroke:none;"/>
</svg>
