<svg xmlns="http://www.w3.org/2000/svg" viewBox="0 0 1000 1000"><path d="M995.004 536.222v86.707c0 23.05-13.171 42.805-38.415 58.171-7.683 4.39-80.122 45-216.22 121.83l-207.44 116.342c-12.073 6.585-24.147 9.878-36.22 9.878-9.878 0-20.854-2.195-31.83-8.78L10.489 664.636l27.439-50.488 455.49 256.83c2.195 1.098 3.292 2.195 4.39 1.098 2.195-2.196 4.39 0 8.78-2.196l211.83-119.634c131.708-74.635 201.952-113.05 208.538-118.537 6.585-5.488 9.878-6.586 9.878-8.78v-63.66l-406.1 228.294c-20.853 13.17-42.804 14.268-68.048 0L43.415 552.685c-12.073-6.585-21.952-15.366-27.44-26.341C9.39 514.27 5 502.197 5 487.929V365.002c0-8.781 2.195-16.464 5.488-23.05 3.293-6.585 9.878-10.975 16.463-14.268L472.563 76.342c7.683-4.39 16.463-5.488 24.146-5.488 9.878 0 17.561 1.098 27.44 6.585l447.806 248.05c6.585 3.293 10.975 8.78 16.463 15.366 5.488 6.585 6.586 14.268 6.586 23.049 0 6.585-3.293 14.268-6.586 21.951-3.292 7.683-12.073 12.073-18.658 16.464L529.636 647.076c-9.878 5.488-20.854 8.78-32.927 8.78-9.878 0-20.854-3.292-30.732-8.78L62.073 420.977v66.952c0 6.585 3.293 10.975 9.878 14.268l419.27 233.781c3.293 2.196 5.488 3.293 5.488 3.293 1.098 0 3.293 0 5.488-2.195 6.585-4.39 77.927-41.707 216.22-119.635L924.76 501.1c8.781-4.39 17.562-6.586 26.342-6.586 8.78 0 16.464 1.098 24.146 5.488 13.171 7.683 19.757 19.756 19.757 36.22zM77.439 365.002l417.075 232.683c2.195 1.098 3.293 1.098 8.78-2.195l419.27-230.488C857.808 328.782 717.32 248.66 496.71 126.83z"/></svg>