<svg xmlns="http://www.w3.org/2000/svg" width="1000" height="1000">
  <path d="M5 500.496c0 271.98 220.55 494.507 495.496 494.507 271.98 0 494.507-220.55 494.507-495.496C995.003 227.528 773.464 5 500.496 5 226.54 5 5 225.55 5 500.496zm132.528-31.648c8.901-23.737 22.747-43.517 39.56-60.33 45.495-45.495 97.913-76.154 156.265-95.935 32.637-10.879 109.78-27.692 112.747-33.626 25.715-51.429 70.22-87.033 116.704-118.682 30.66-20.77 62.308-35.604 99.89-39.56 53.407-5.934 94.946 14.835 128.572 54.395-48.461-12.857-58.351-18.79-118.681 9.89-45.495 21.759-76.154 52.418-111.759 90l41.539 1.979c62.308 2.967 120.66 16.813 174.066 52.418 38.572 25.714 84.066 58.352 84.066 105.824v3.956c-37.582-32.637-84.066-43.516-131.539-54.396-62.307-13.846-126.593-19.78-191.868-22.747l-39.56-1.978c-7.913 0-10.88 1.978-13.847 6.923-42.528 71.21-79.121 134.506-106.814 205.715-25.714 67.253-97.912 201.76-105.824 284.836C275 770.497 285.88 689.398 306.649 608.3c21.759-84.067 49.451-163.188 89.012-241.32-68.242 3.956-193.847 28.682-258.133 101.869zm404.507 182.967c.989-50.44 39.56-91.978 90.99-91.978 50.439 0 90 43.517 90 93.956 0 50.44-41.54 91.979-90 91.979-51.43 0-91.98-41.539-90.99-93.957z" style="fill:#000;fill-opacity:1;fill-rule:nonzero;stroke:none;"/>
</svg>
