<svg xmlns="http://www.w3.org/2000/svg" viewBox="0 0 1000 1000"><path d="M500.496 5C223.572 5 5 229.506 5 500.002c0 276.43 224.506 495.001 495.002 495.001 276.43 0 495.001-224.506 495.001-495.001C995.003 226.539 773.464 5 500.496 5zM171.154 554.892c-28.681-190.88 123.627-362.968 318.463-362.968H808.08c3.956 32.637-7.912 56.373-29.67 79.12-20.77 23.737-50.44 40.55-86.045 40.55H493.573c-98.901 0-182.968 66.264-202.748 166.155-19.78 102.857 53.407 214.616 160.22 234.396 134.506 24.726 249.232-82.088 237.364-218.572 0-3.956-12.857-11.868-16.813-11.868H493.573c-24.725 0-38.571 15.824-38.571 40.55 0 20.769 13.846 36.593 38.571 36.593h83.077c8.901 0 12.857 0 20.77 3.956-11.869 46.484-72.198 79.121-123.627 71.21-63.297-7.913-112.748-63.298-107.803-128.573 3.956-62.308 56.374-114.725 123.627-114.725h284.836c25.715 0 37.583 7.912 33.627 36.593 0 54.396 7.912 115.715-7.912 170.11-34.616 123.627-142.419 218.573-270.001 235.386-177.034 19.78-334.287-103.847-359.013-277.913z"/></svg>