<svg xmlns="http://www.w3.org/2000/svg" viewBox="0 0 1000 1000"><path d="M500.496 5C223.572 5 5 229.506 5 500.002c0 276.43 224.506 495.001 495.002 495.001 276.43 0 495.001-224.506 495.001-495.001C995.003 226.539 773.464 5 500.496 5zM177.088 739.838V284.89c0-25.714 0-25.714 23.737-25.714h623.079v480.66c0 28.682-50.44 55.385-92.968 53.407-24.725 0-34.615-1.978-43.516-24.725-2.967-7.912-5.934-13.846-10.88-25.714-5.933 10.879-9.89 17.802-19.78 25.714-14.835 19.78-19.78 27.692-43.516 26.703-16.813-1.978-34.616-1.978-50.44 0-24.725.99-34.615-3.956-44.506-26.703-2.967-6.923-5.934-13.846-10.879-23.736-5.934 8.9-9.89 12.857-11.868 18.791-10.88 21.758-27.692 31.648-51.429 31.648-19.78 0-39.56 0-60.33.99-18.79.988-29.67-2.968-41.538-20.77-4.945-9.89-13.846-15.824-19.78-26.703-5.934 5.934-6.924 8.9-6.924 10.879-9.89 25.714-21.758 35.604-51.428 35.604h-26.704c-33.626 1.978-60.33-20.769-60.33-55.384zm41.54-36.594c2.966 8.901 4.944 19.78 6.922 28.681.99 2.968 5.934 7.913 9.89 7.913 25.715 2.967 48.462 2.967 64.286-21.759 5.934-7.912 11.868-16.813 16.814-23.736 5.934-6.923 11.868-13.846 20.769-23.736 4.945 16.813 6.923 26.703 13.846 39.56 2.967 13.846 11.868 24.726 28.681 27.693 64.286 13.846 90 3.956 127.583-50.44 1.978-3.956 4.945-8.901 9.89-13.846 5.934 13.846 6.924 23.736 11.869 34.615 5.934 15.824 14.835 29.67 31.648 31.649 43.517 5.934 82.088 1.978 105.825-42.528 3.956-4.945 6.923-9.89 10.879-16.813 1.978 0 4.945-2.967 6.923-4.945 9.89 16.813 14.835 35.604 23.736 50.44 12.857 19.78 30.66 24.725 48.462 6.923 6.923-6.924 12.857-20.77 12.857-31.649 0-170.11 2.967-271.979-.989-309.561-14.835 11.868-24.725 19.78-35.604 28.681-62.308 64.286-127.583 128.572-191.87 191.869-8.9 9.89-18.79 18.791-31.648 24.725-7.912 1.978-19.78 1.978-27.692-.989-13.846-8.901-25.714-21.758-37.583-33.626-21.758-21.759-202.748-209.671-220.55-232.419-10.879 5.934-5.934 321.43-4.945 333.298zm9.89-392.639c9.89 11.869 18.79 24.726 29.67 36.594 43.516 44.506 88.022 88.022 132.528 133.517 31.648 29.67 63.296 61.319 94.945 91.978 11.868 11.868 17.802 9.89 29.67 0 77.143-76.154 152.309-152.308 226.485-227.473 9.89-8.901 16.813-17.802 22.747-28.682 5.934-8.9 3.956-12.857-5.934-13.846-11.868-.989-22.747-.989-34.616-.989-118.681 0-234.396.99-353.078.99-39.56 0-79.12 0-118.681.988-7.913 0-13.847 0-19.78 1.978-.99.99-2.968 1.978-3.957 4.945zM384.78 375.88c0-15.824 12.858-30.66 28.682-30.66 15.824 0 30.66 14.836 30.66 29.671 0 15.825-13.847 28.682-28.682 28.682-15.824 0-28.681-11.868-30.66-27.693zm180.99 0c-.989-15.824 12.857-30.66 28.682-30.66 15.824 0 30.659 14.836 30.659 30.66 0 15.825-14.835 27.693-30.66 27.693-15.824 0-28.68-11.868-28.68-27.693z"/></svg>