<svg xmlns="http://www.w3.org/2000/svg" width="1000" height="1000">
  <path d="M841.664 545.401c48.725 118.49-5.537 245.838-137.315 281.274-36.544 9.967-71.98 13.289-120.704 16.611v151.711h-93.02V844.393h-73.087v150.604H323.41V844.393H140.693l19.933-111.845h55.369c26.577 0 44.295-4.43 44.295-36.543V310.637c0-42.08-14.396-56.477-66.443-56.477h-53.154v-97.449h182.718V5h94.127v151.71h73.087V5h93.02v151.71c34.328 1.108 65.335 6.645 90.805 13.29 148.389 38.758 182.717 197.113 50.94 291.24 55.368 18.826 91.912 33.222 116.274 84.161zm-424.126 190.47c132.885 0 255.804-7.752 255.804-104.094 0-52.047-32.114-74.195-87.483-87.483-55.369-13.289-90.805-11.074-168.321-9.967zm0-294.564h26.577c97.45 0 191.576-9.966 188.254-95.234 0-88.59-108.523-87.483-214.831-87.483z" style="fill:#000;fill-opacity:1;fill-rule:nonzero;stroke:none;"/>
</svg>
