<svg width="33" height="32" viewBox="0 0 33 32" fill="none" xmlns="http://www.w3.org/2000/svg">
<g clip-path="url(#clip0_3393:12259)">
<path fill-rule="evenodd" clip-rule="evenodd" d="M16.4338 31.84C25.1819 31.84 32.2738 24.7482 32.2738 16C32.2738 7.25184 25.1819 0.160034 16.4338 0.160034C7.68556 0.160034 0.59375 7.25184 0.59375 16C0.59375 24.7482 7.68556 31.84 16.4338 31.84ZM6.86471 9.14339L11.5281 4.47998H13.7444C13.1441 4.82628 11.1587 7.2965 10.6508 9.14339H6.86471ZM16.0068 4.47998V9.14339H11.5281C11.8436 8.18147 12.9687 5.90209 14.9449 4.47998H16.0068ZM16.9072 9.14339H21.4321C20.3794 6.63162 18.6694 4.98788 17.9461 4.47998H16.9072V9.14339ZM25.9801 9.14339H22.3094C21.7322 7.75822 20.6887 5.84669 19.1927 4.47998H21.2705L25.9801 9.14339ZM10.5355 22.8566H6.8648L11.5744 27.52H13.6521C12.1561 26.1533 11.1127 24.2417 10.5355 22.8566ZM11.4128 22.8566H15.9377L15.9377 27.52L14.8988 27.52C14.1754 27.0121 12.4655 25.3683 11.4128 22.8566ZM16.838 22.8566V27.52H17.9C19.8762 26.0979 21.0012 23.8185 21.3167 22.8566L16.838 22.8566ZM21.3167 27.52L25.9801 22.8566H22.194C21.6861 24.7035 19.7007 27.1737 19.1005 27.52H21.3167ZM9.55994 20.096C9.89594 20.096 10.2279 20.056 10.5559 19.976C10.8839 19.896 11.1799 19.752 11.4439 19.544C11.7079 19.328 11.9079 19.064 12.0439 18.752C12.1879 18.44 12.2599 18.116 12.2599 17.78H10.7839C10.7839 17.972 10.7239 18.152 10.6039 18.32C10.4839 18.488 10.3279 18.604 10.1359 18.668C9.94394 18.732 9.75194 18.764 9.55994 18.764C9.39194 18.764 9.22794 18.74 9.06794 18.692C8.90794 18.644 8.76794 18.56 8.64794 18.44C8.52794 18.32 8.43994 18.18 8.38394 18.02C8.33594 17.86 8.31194 17.696 8.31194 17.528V13.652C8.31194 13.484 8.33594 13.32 8.38394 13.16C8.43994 13 8.52794 12.86 8.64794 12.74C8.76794 12.62 8.90794 12.536 9.06794 12.488C9.22794 12.44 9.39194 12.416 9.55994 12.416C9.75194 12.416 9.94394 12.448 10.1359 12.512C10.3279 12.576 10.4839 12.692 10.6039 12.86C10.7239 13.02 10.7839 13.2 10.7839 13.4H12.2599C12.2599 13.064 12.1879 12.74 12.0439 12.428C11.9079 12.116 11.7079 11.856 11.4439 11.648C11.1799 11.432 10.8839 11.284 10.5559 11.204C10.2279 11.124 9.89594 11.084 9.55994 11.084C9.31994 11.084 9.07994 11.104 8.83994 11.144C8.60794 11.176 8.38394 11.244 8.16794 11.348C7.95194 11.444 7.75594 11.572 7.57994 11.732C7.40394 11.892 7.25594 12.076 7.13594 12.284C7.02394 12.492 6.94394 12.712 6.89594 12.944C6.85594 13.176 6.83594 13.412 6.83594 13.652V17.528C6.83594 17.768 6.85594 18.004 6.89594 18.236C6.94394 18.468 7.02394 18.688 7.13594 18.896C7.25594 19.104 7.40394 19.288 7.57994 19.448C7.75594 19.608 7.95194 19.74 8.16794 19.844C8.38394 19.94 8.60794 20.004 8.83994 20.036C9.07994 20.076 9.31994 20.096 9.55994 20.096ZM16.498 20.096C16.786 20.096 17.07 20.068 17.35 20.012C17.63 19.956 17.894 19.856 18.142 19.712C18.39 19.56 18.602 19.372 18.778 19.148C18.954 18.916 19.074 18.66 19.138 18.38C19.21 18.1 19.246 17.816 19.246 17.528V13.652C19.246 13.364 19.21 13.08 19.138 12.8C19.074 12.52 18.954 12.268 18.778 12.044C18.602 11.812 18.39 11.624 18.142 11.48C17.894 11.328 17.63 11.224 17.35 11.168C17.07 11.112 16.786 11.084 16.498 11.084C16.21 11.084 15.926 11.112 15.646 11.168C15.366 11.224 15.102 11.328 14.854 11.48C14.606 11.624 14.394 11.812 14.218 12.044C14.042 12.268 13.918 12.52 13.846 12.8C13.782 13.08 13.75 13.364 13.75 13.652V17.528C13.75 17.816 13.782 18.1 13.846 18.38C13.918 18.66 14.042 18.916 14.218 19.148C14.394 19.372 14.606 19.56 14.854 19.712C15.102 19.856 15.366 19.956 15.646 20.012C15.926 20.068 16.21 20.096 16.498 20.096ZM16.498 18.764C16.33 18.764 16.162 18.74 15.994 18.692C15.834 18.644 15.69 18.56 15.562 18.44C15.442 18.32 15.354 18.18 15.298 18.02C15.25 17.86 15.226 17.696 15.226 17.528V13.652C15.226 13.484 15.25 13.32 15.298 13.16C15.354 12.992 15.442 12.852 15.562 12.74C15.69 12.62 15.834 12.536 15.994 12.488C16.162 12.44 16.33 12.416 16.498 12.416C16.666 12.416 16.83 12.44 16.99 12.488C17.158 12.536 17.302 12.62 17.422 12.74C17.55 12.852 17.638 12.992 17.686 13.16C17.742 13.32 17.77 13.484 17.77 13.652V17.528C17.77 17.696 17.742 17.86 17.686 18.02C17.638 18.18 17.55 18.32 17.422 18.44C17.302 18.56 17.158 18.644 16.99 18.692C16.83 18.74 16.666 18.764 16.498 18.764ZM23.4481 20H20.7601V11.18H23.4481C23.7121 11.18 23.9721 11.212 24.2281 11.276C24.4921 11.332 24.7321 11.436 24.9481 11.588C25.1721 11.732 25.3561 11.916 25.5001 12.14C25.6441 12.364 25.7441 12.604 25.8001 12.86C25.8561 13.116 25.8841 13.376 25.8841 13.64C25.8841 14.432 25.5921 15.016 25.0081 15.392C25.8401 15.768 26.2561 16.432 26.2561 17.384C26.2561 17.68 26.2201 17.972 26.1481 18.26C26.0761 18.54 25.9521 18.8 25.7761 19.04C25.6001 19.272 25.3841 19.464 25.1281 19.616C24.8721 19.76 24.6001 19.86 24.3121 19.916C24.0321 19.972 23.7441 20 23.4481 20ZM22.2361 14.768H23.4481C23.5921 14.768 23.7281 14.744 23.8561 14.696C23.9921 14.64 24.1001 14.556 24.1801 14.444C24.2681 14.324 24.3281 14.196 24.3601 14.06C24.3921 13.924 24.4081 13.784 24.4081 13.64C24.4081 13.504 24.3921 13.368 24.3601 13.232C24.3281 13.088 24.2681 12.96 24.1801 12.848C24.1001 12.736 23.9921 12.652 23.8561 12.596C23.7281 12.54 23.5921 12.512 23.4481 12.512H22.2361V14.768ZM22.2361 16.112V18.668H23.4481C23.6241 18.668 23.7961 18.644 23.9641 18.596C24.1401 18.548 24.2921 18.464 24.4201 18.344C24.5481 18.216 24.6401 18.068 24.6961 17.9C24.7521 17.732 24.7801 17.56 24.7801 17.384C24.7801 17.208 24.7521 17.036 24.6961 16.868C24.6401 16.7 24.5481 16.556 24.4201 16.436C24.2921 16.316 24.1401 16.232 23.9641 16.184C23.7961 16.136 23.6241 16.112 23.4481 16.112H22.2361Z" fill="black"/>
</g>
<defs>
<clipPath id="clip0_3393:12259">
<rect width="32" height="32" fill="white" transform="translate(0.441406)"/>
</clipPath>
</defs>
</svg>
