<svg xmlns="http://www.w3.org/2000/svg" width="1000" height="1000">
  <path d="M5 500.496C5 225.55 226.54 5 500.496 5c272.968 0 494.507 222.528 494.507 494.507 0 274.946-222.528 495.496-494.507 495.496C225.55 995.003 5 772.475 5 500.496zm229.451-281.869c105.825 189.89 210.66 377.804 319.452 564.727 2.967 8.901 14.835 16.813 22.747 16.813 47.473.99 93.957.99 141.43.99V209.725H600.386v402.529c-13.847-11.868-19.78-23.737-26.704-33.627-65.275-113.736-128.572-228.462-191.869-339.232-6.923-13.846-22.747-29.67-33.626-29.67-37.583-3.956-76.154-2.967-113.737-2.967 0 7.912-1.978 9.89 0 11.868z" style="fill:#000;fill-opacity:1;fill-rule:nonzero;stroke:none;"/>
</svg>
