<?xml version="1.0" encoding="utf-8"?>
<!-- Generator: Adobe Illustrator 26.0.1, SVG Export Plug-In . SVG Version: 6.00 Build 0)  -->
<svg version="1.1" id="Layer_1" xmlns="http://www.w3.org/2000/svg" xmlns:xlink="http://www.w3.org/1999/xlink" x="0px" y="0px"
	 viewBox="0 0 1000 1000" style="enable-background:new 0 0 1000 1000;" xml:space="preserve">
<g>
	<path d="M500.5,5C223.6,5,5,229.5,5,499.5C5,773.5,226.5,995,499.5,995C776.4,995,995,770.5,995,499.5C995,223.6,770.5,5,500.5,5z
		 M715.6,204.4l-1.1,0.7c0,0,0,0,0,0c-16.7,10.8-221.3,136.5-328.9-52.2c0,0,0,0,0,0l-0.3-0.5C385.3,152.5,572.5-39.7,715.6,204.4z
		 M799.7,777.6c-21.5,87.6-105.9,110.6-186.5,112.7l0-0.1c-30.2,0.6-60.2-1.7-86.9-4.4c0,0-128.4-13.3-237.2-92.8l-3.5-2.6
		c0,0,0,0,0,0c-12.7-9.5-24.8-19.7-36.3-30.6c-30.5-29.1-57.6-62.1-78.4-98.4c0.1-0.1,0.3-0.3,0.4-0.4c-2.5-4.4-4.8-8.9-7.1-13.4
		c-20.1-40.2-32.3-83.9-32.9-130.4c-0.9-78,25.7-157.9,76.5-215.8c0,0,0-0.1-0.1-0.1c27.5-30.1,61.8-53.7,102.4-67.2
		c25.5-8.5,52.2-12.6,79.1-12.1c16.3,19.2,36.2,35,58.6,46.7c0,0,0,0,0,0c34.1,17.5,71.4,23.5,107,23.4c20.7,19,38,41.4,54.2,64.4
		c6.7,9.6,12.8,19.6,18.1,30c12.4,23.9,21.5,49.1,30.7,74.7c2.7,7.5,5.4,15,8.2,22.5c0.9,3.2,1.8,6.4,2.8,9.7l0,0
		c14.2,48.9,35,101,62.9,144.1l0,0c9.2,14.2,19.5,27.6,30.9,40.1c2.2,2.4,4.5,4.8,6.8,7.2l0,0l0,0l0,0
		c10.7,11.2,21.4,22.4,27.5,36.5C804.8,738.8,804.2,759,799.7,777.6z"/>
</g>
</svg>
