<svg xmlns="http://www.w3.org/2000/svg" viewBox="0 0 1000 1000"><path d="M5 581.739v-7.108c113.723-114.738 227.445-230.492 342.183-347.26 54.831 54.83 104.585 104.584 155.354 156.368 50.769-53.815 101.538-103.569 150.276-154.338 117.784 118.8 230.492 233.538 342.184 345.23-61.939 60.923-124.892 122.861-187.846 187.845-44.677-45.692-94.43-97.476-144.184-147.23-54.83 53.815-103.569 105.6-156.369 157.384-52.8-56.861-101.538-106.615-152.307-158.4-52.8 53.816-102.553 105.6-153.322 158.4-39.6-40.615-75.139-76.153-109.662-109.66C62.877 635.553 33.431 608.137 5 581.738zm89.354-4.062c34.523 33.508 70.06 69.046 102.553 103.569 35.538-34.523 72.092-72.092 104.584-104.584-34.523-33.508-70.061-71.077-102.553-102.554-34.523 34.523-70.061 70.061-104.584 103.57zM247.676 423.34l103.569 103.569c32.492-36.554 70.061-73.107 102.554-105.6-33.508-32.492-69.046-68.03-102.554-102.553-34.523 34.523-70.061 70.061-103.569 104.584zm154.338 151.292c33.508 34.523 69.046 72.092 101.538 104.584 34.523-33.507 70.062-71.077 104.584-104.584-33.507-33.508-68.03-70.061-103.568-103.569-34.523 35.538-71.077 73.107-102.554 103.569zm151.292-153.323c34.523 35.539 71.077 72.092 105.6 106.615 33.507-33.507 69.045-69.046 103.568-104.584-34.523-32.492-72.092-69.046-106.615-104.584-33.507 34.523-69.046 70.061-102.553 102.553zm151.292 153.323c34.523 34.523 71.076 72.092 104.584 106.615 34.523-35.538 71.077-72.092 105.6-106.615-34.523-33.508-70.062-69.046-104.585-104.584-34.523 35.538-73.107 71.076-105.6 104.584z"/></svg>