<svg xmlns="http://www.w3.org/2000/svg" viewBox="0 0 1000 1000"><path d="M825.21 135.271c-16.888 26.537-39.806 47.043-54.28 75.992-16.887 27.743-37.393 34.98-75.992 51.867-10.856 4.825-15.68 9.65-27.743 12.062-20.505 0-26.536 0-24.124-18.093 3.619-18.093 7.237-32.568 13.268-45.836 15.681-49.455 44.63-75.992 102.529-72.373 16.887 0 44.63-12.062 44.63-28.95-13.269-10.855-32.568 19.3-56.693 0 7.238-4.824 7.238-10.855 7.238-10.855 4.825-12.062 10.856-16.887 0-24.125-1.207 0-14.475 0-25.33 12.063-15.682 18.093-27.744 12.062-38.6-12.063-3.618-16.887-8.443-32.567-18.093-37.392l-8.443 33.774c-7.238 22.918-2.413 53.073-7.238 67.548-13.268 27.743-30.155 55.486-48.248 85.641h-3.619c-27.743-25.33-26.537-72.373 0-119.415 10.856-22.918 21.712-39.805 33.774-57.899 4.825-4.824 4.825-18.093 4.825-25.33-27.743 0-20.506 31.362-38.599 31.362C573.111 47.217 585.172 5 546.574 5c9.65 24.124 16.887 42.217 26.537 60.31 7.237 16.888 7.237 21.713 0 33.775-9.65 25.33-16.887 39.805-16.887 62.723-4.825 20.506-14.475 32.568-43.424 39.805v-30.155c0-13.269 4.825-32.568 4.825-55.486V21.887C517.625 5 512.8 5 491.088 5v48.249c0 4.824-10.856 18.093-16.887 21.711-6.031 0-18.093-9.65-24.124-16.887-8.444-13.268-8.444-21.711-10.856-39.805 0 0-8.444-6.03-10.856-6.03l-7.238 6.03c-4.824 3.619-4.824 10.856-4.824 19.3 0 27.743 14.474 49.455 39.805 67.548 24.124 10.856 27.743 33.774 24.124 56.692-12.062 44.63-19.3 95.29-24.124 142.333l-6.031 6.031c-28.95-34.98-45.837-71.166-56.692-103.734-7.238-30.156-10.856-48.249-22.919-78.404v-34.98c4.825-10.856 12.063-27.743 12.063-39.805 0-10.856 3.618-31.362-12.063-31.362-16.887 0-10.855 20.506-10.855 31.362-6.032 21.711-19.3 33.774-42.218 21.711-9.65-2.412-24.124-3.618-27.743-9.65-16.887-7.237-28.949 0-39.805 16.888 19.3 0 68.754 30.155 95.291 61.517 14.475 14.474 18.093 22.918 14.475 38.599 0 24.124-6.032 28.949-24.125 24.124-18.093-4.825-34.98-12.062-51.867-19.3-22.918-4.824-38.599-20.505-43.424-43.423l-19.3-33.774s-9.649 0-15.68-4.825v19.3c0 3.618 0 3.618 6.031 10.855 0 3.619 7.237 16.887 0 22.918-6.03 3.619-16.887 3.619-27.743 3.619H165.41c-16.887-3.619-31.362 4.825-34.98 20.506 12.062 0 21.712 4.824 27.743 4.824 42.217 7.238 77.197 19.3 114.59 24.125 4.825 4.825 16.887 13.268 16.887 18.093 3.619 33.774 3.619 74.785 10.856 108.56-16.887 0-27.743-3.62-43.424-12.063-38.599-9.65-73.579-33.774-91.672-72.373-13.268-14.474-22.918-28.949-34.98-37.392-18.093-14.475-24.125-9.65-28.95 13.268 22.919 9.65 32.568 39.805 47.043 69.96-27.743 10.856-59.105-7.237-80.816-18.093-6.031 3.619-13.269 18.093-18.094 22.918 32.568 30.156 62.724 30.156 98.91 30.156 9.65-8.444 16.887-8.444 27.743-8.444 18.093 8.444 34.98 19.3 59.104 28.95-69.96 24.123-133.89 27.742-191.788-9.65-18.093 24.124-18.093 24.124 0 33.773 6.031 3.62 10.856 12.063 18.094 18.094-7.238 16.887-18.094 16.887-28.95 22.918-12.062 0-18.093 6.03-18.093 14.474 0 9.65 18.093 9.65 22.918 9.65 16.887-3.619 30.156-9.65 44.63-18.093 22.918-13.269 51.867-19.3 88.054-24.124 6.03 0 16.887 4.824 16.887 12.062 18.093 8.443 31.361 26.536 42.217 42.217-63.929 18.093-123.034 31.362-185.757 18.093H25.49c-4.825 0-10.856 0-15.68 4.825 4.824 8.444 4.824 12.062 10.855 18.094 4.825 0 16.887 6.03 22.918 6.03 6.031 0 18.094 6.032 27.743 6.032-16.887 12.062-27.743 16.887-38.599 22.918-18.093 16.887-18.093 16.887-12.062 33.774 16.887-4.825 33.774-21.712 50.661-30.156 24.125-12.062 41.012-21.711 62.723-21.711-3.618 21.711-3.618 47.042-9.65 69.96 0 12.062-3.618 16.887-18.093 16.887-9.65 0-24.124-4.825-34.98-4.825-9.65 0-21.712 0-33.774 4.825-16.887 6.031-16.887 6.031-4.825 22.918h21.712c22.918 0 27.743 18.093 16.887 36.186-3.618 10.856-9.65 15.681-9.65 18.094-12.062 10.856-12.062 25.33 6.032 34.98 19.3-32.568 56.692-74.785 97.703-100.116 10.856-6.031 21.712-6.031 34.98 4.825 16.887 14.475 34.98 16.887 49.455 27.743l22.918 20.506c-7.237 0-12.062 4.824-15.68 4.824-27.744 7.238-56.693 18.094-91.673 26.537-22.918 9.65-44.63 22.918-68.754 44.63-19.3 13.268-19.3 13.268 0 28.95 24.124-10.857 37.392-22.919 55.486-28.95 18.093-3.619 31.361-3.619 34.98 6.031 7.237 12.062-3.619 22.918-21.712 36.187-7.237 4.824-22.918 4.824-31.362 9.65-3.618 6.03-9.65 12.061-13.268 18.093l9.65 6.03c39.805-12.062 39.805-12.062 39.805 28.95-4.825 16.887 0 22.918 16.887 28.949 4.825-3.619 10.856-33.774 24.124-75.992 18.093-57.898 61.517-92.878 142.333-92.878 21.712 0 44.63 13.268 56.693 34.98 6.03 13.268 10.855 28.95 10.855 42.218 10.856 73.579 1.207 137.508-38.598 191.788 48.248 25.33 197.819 25.33 240.036 0-14.474-24.125-25.33-42.218-37.392-66.342-14.475-57.898-14.475-120.622 0-178.52 12.062-53.073 48.248-65.135 98.91-55.486 86.847 21.712 135.095 100.116 113.383 194.2 0 6.032-7.237 16.888-7.237 27.744 28.95-15.681 42.218-33.774 42.218-62.723 0-16.887-7.238-41.012 10.856-50.661 16.887 4.824 27.743 15.68 33.774 27.743 24.124-22.919 24.124-27.743 7.237-45.837-13.268-6.03-16.887-10.856-31.362-24.124 18.094-16.887 43.424-10.856 59.105-3.619 18.093 3.62 21.712 0 21.712-18.093-13.269-13.268-32.568-16.887-62.723-16.887-68.755-21.712-151.984-51.867-85.642-51.867 39.805 0 74.786-16.887 110.972-44.63 24.124-18.093 44.63-18.093 68.754-6.031 3.619 6.031 10.856 6.031 10.856 6.031 21.712-22.918-10.856-33.774-18.093-51.867 9.65 0 28.95-13.269 28.95-28.95-3.62 0-10.857-4.824-18.094 0-21.712 6.032-38.599 18.094-62.723 28.95-21.712 9.65-34.98 10.856-45.836-19.3-7.238-14.474-7.238-32.567 7.237-44.63 3.619-12.062 28.949-16.887 44.63-12.062 8.443 8.444 10.856 8.444 18.093 12.062h38.599c24.124 0 24.124-3.618 18.093-26.536H968.75c-36.187 0-26.537-28.95 7.237-57.899 0-4.824 7.237-15.68 0-24.124 0 0-10.856-3.619-18.093-3.619-10.856 12.063-27.743 22.919-37.393 34.98-24.124 26.537-53.073 36.187-84.435 50.662h-27.743c10.856-38.6 16.887-62.723 24.125-95.291 44.63-7.238 90.466-14.475 132.683-43.424-7.237-9.65-12.062-15.68-18.093-21.712-16.887 6.031-34.98 12.062-45.836 16.887 4.825-21.712 10.856-36.186 19.3-51.867 10.855-20.506 2.412-21.712-14.475-39.805-4.825 9.65-9.65 18.093-9.65 24.124-19.3 50.661-60.31 80.817-110.972 84.435-20.505 7.237-31.361-3.618-26.536-27.743 6.03-18.093 12.062-34.98 13.268-56.692 13.268-24.124 31.362-37.392 60.31-37.392 16.888 8.443 34.98-4.825 44.63-14.475 7.238-7.237 7.238-14.475-6.03-19.3-18.094 12.063-27.743 24.125-56.693 12.063 4.825-12.062 18.094-22.918 21.712-36.187 7.238-14.474 0-19.3-10.856-22.918zM158.172 579.158c-6.031-43.424 18.093-75.991 53.073-82.022 33.774-9.65 66.342-18.094 100.116-9.65 28.95 3.618 51.867 9.65 63.93 44.63-15.681 3.618-30.156 3.618-39.806 3.618-57.898-3.618-114.59 8.444-165.251 37.393-4.825 6.031-4.825 6.031-12.062 6.031zm53.073-177.313c24.124-10.856 38.599-19.3 54.28-30.156 12.062 0 18.093 0 24.124 7.237 32.568 22.919 50.661 43.424 69.96 85.642-19.299-8.444-28.949-14.475-42.217-20.506H289.65c-39.805 12.062-54.28-21.712-78.404-42.217zm9.65 186.963c62.723-15.681 119.415-15.681 177.313 18.093-15.68 24.124-34.98 34.98-62.723 34.98-42.217-10.856-78.404-24.124-114.59-53.073zm90.466-354.627c48.249 19.3 74.785 47.042 98.91 82.022 36.186 45.836 57.898 97.704 69.96 151.983 0 10.856 3.619 28.95 0 45.837-6.031 21.711-24.124 21.711-33.774 12.062-15.68-12.062-18.093-22.918-18.093-34.98-18.093-47.043-42.218-77.198-68.754-112.179-6.032 0-14.475-7.237-14.475-9.65-22.918-43.423-27.743-88.053-33.774-135.095zm190.582 69.96c0-41.011 15.68-69.96 54.28-92.878 28.949 57.898 14.474 167.663-33.774 195.406-24.125-27.743-20.506-61.517-20.506-102.528zm78.404 164.045c-9.65-77.197 45.836-147.158 138.714-176.107 4.825 42.218-9.65 77.198-39.805 98.91-36.186 22.918-63.929 49.454-98.91 77.197zm4.825 127.86c0-30.156 12.062-63.93 30.155-92.88 41.011-62.723 103.734-106.146 174.901-131.477 0 0 12.062-2.412 7.237 7.237-7.237 41.012-25.33 71.167-50.66 95.291-10.857 4.825-18.094 13.269-27.744 13.269-28.949 21.712-51.867 44.63-57.898 78.404 0 7.237-4.825 13.268-4.825 18.093-22.918 4.825-48.248 12.062-71.166 12.062zm115.796 0c0-63.93 42.218-98.91 96.497-82.023 10.856 7.237 16.887 12.062 21.712 18.093 13.269 16.887 24.125 41.011 33.774 56.692-49.454 34.98-98.91 18.093-151.983 7.237z"/></svg>