<?xml version="1.0" encoding="utf-8"?>
<!-- Generator: Adobe Illustrator 26.0.1, SVG Export Plug-In . SVG Version: 6.00 Build 0)  -->
<svg version="1.1" id="Layer_1" xmlns="http://www.w3.org/2000/svg" xmlns:xlink="http://www.w3.org/1999/xlink" x="0px" y="0px"
	 viewBox="0 0 1000 1000" style="enable-background:new 0 0 1000 1000;" xml:space="preserve">
<g>
	<path d="M595.4,532.4c-16.9-8.6-38.9-17.7-66.2-27.1c-27.3-9-47.4-17.4-60.2-25.3c-12.8-7.8-19.3-18.7-19.3-32.6
		c0-12.7,3.8-22.4,11.4-28.9c7.6-7,17.7-10.5,30.1-10.5c14.5,0,26.3,4.1,35.5,12.3c9.2,7.8,14.3,18.7,15.1,32.6h111.4
		c-2-40.6-17.3-72.3-45.8-94.8c-28.5-23-66-34.5-112.6-34.5c-45.8,0-82.9,11.5-111.4,34.5c-28.5,22.6-42.8,54-42.8,94.2
		c0,27.1,6.2,49.1,18.7,65.9s27.3,29.6,44.6,38.2c17.3,8.6,39.5,17.2,66.8,25.9c18.9,5.8,33.3,10.9,43.4,15.4
		c10.4,4.5,19.1,10.3,25.9,17.2c7.2,7,10.8,15.8,10.8,26.5c0,12.7-4.4,22.8-13.3,30.2c-8.8,7-20.9,10.5-36.1,10.5
		c-14.9,0-26.9-4.1-36.1-12.3c-9.2-8.6-14.7-20.9-16.3-37H339.4c0.8,28.3,8.4,52.6,22.9,72.7c14.9,20.1,34.5,35.3,59,45.6
		c24.5,10.3,52.2,15.4,83.1,15.4c31.7,0,59.2-6,82.5-17.9c23.3-11.9,41-27.9,53-48c12.4-20.1,18.7-42.5,18.7-67.1
		c0-25.9-6.2-47-18.7-63.4S612.7,541,595.4,532.4z"/>
	<rect x="333.7" y="235.5" width="332.6" height="65.2"/>
	<path d="M500.5,5C223.6,5,5,229.5,5,499.5C5,773.5,226.5,995,499.5,995C776.4,995,995,770.5,995,499.5C995,223.6,770.5,5,500.5,5z
		 M500,883.4c-211.1,0-382.3-171.7-382.3-383.4S288.9,116.6,500,116.6c211.1,0,382.3,171.7,382.3,383.4S711.1,883.4,500,883.4z"/>
</g>
</svg>
