<svg xmlns="http://www.w3.org/2000/svg" viewBox="0 0 1000 1000"><path d="M388.755 519.854v82.811c99.102-65.162 192.774-126.253 290.518-190.058-97.744-62.448-191.416-127.61-290.518-190.058v71.95c0 9.503-2.715 12.219-9.502 13.576-29.867 1.358-61.09 4.073-92.314 8.145-78.739 10.86-149.332 38.012-213.137 80.096-4.073 2.716-5.43 4.073-8.146 6.788V5.34h13.576c149.332 0 300.02-1.357 452.067 1.358 156.12 1.358 271.512 74.666 351.608 206.349 43.442 69.235 55.66 143.901 50.23 223.997-5.43 100.46-46.157 185.986-112.678 255.221-5.43 9.503-5.43 13.576-4.072 20.364 36.654 90.956 73.308 183.27 109.962 271.511 1.357 2.716 1.357 5.43 4.073 10.86H221.776c-8.146 0-14.933-1.357-21.721-8.144-28.509-38.012-42.085-80.096-50.23-128.969-8.145-48.872-5.43-97.744 8.145-145.258 31.224-93.673 95.03-154.763 190.06-180.557 12.218-5.43 27.15-6.787 40.726-12.218z"/></svg>