<svg xmlns="http://www.w3.org/2000/svg" width="1000" height="1000">
  <path d="M952.808 318.627c65.739 131.477 53.906 323.435-30.24 462.801-43.387 69.683-98.608 123.59-161.717 164.347-15.778 7.889-24.981 7.889-39.444-6.574-53.905-84.145-118.33-161.717-173.55-245.863-2.63-5.26-9.204-9.203-14.463-19.722 35.5-14.462 74.943-10.518 93.35 19.722 30.24 38.129 64.424 84.146 94.663 127.533 18.407 24.981 18.407 24.981 44.703 5.26C926.513 688.078 952.808 426.437 818.7 264.72c-82.83-103.867-185.383-157.773-312.916-157.773-209.05 0-370.767 148.57-401.007 345.787-23.666 143.31 21.036 265.585 124.904 368.137 2.63 5.26 14.462 9.204 23.666 21.037V603.933c0-23.666 9.203-28.925 30.24-28.925h289.25c60.48 0 107.812-39.443 123.59-94.664 14.462-57.85-15.778-117.015-63.11-145.94-11.833-5.26-22.35-11.833-30.24-11.833H362.474c52.591 76.257 106.497 149.884 155.144 218.253-38.129 19.721-72.313 9.203-97.293-21.037-57.85-81.516-111.757-160.402-172.236-239.289-3.945-5.26-9.204-15.777-15.778-24.98h27.61c106.498 0 209.05-5.26 312.918 0 107.811 0 193.272 82.83 193.272 190.642 0 103.867-85.46 191.957-188.013 198.531H348.01c-22.351 0-24.981 3.945-24.981 23.666v315.547h-14.463c-99.923-49.962-182.754-118.33-237.974-218.253C-75.347 532.935 32.464 192.408 292.79 63.56c261.64-115.7 543.003-15.778 660.018 255.067z" style="fill:#000;fill-opacity:1;fill-rule:nonzero;stroke:none;"/>
</svg>
