<svg xmlns="http://www.w3.org/2000/svg" width="1000" height="1000">
  <path d="M5 762.237v-518.12c0-24.899 10.67-34.384 26.084-46.24 65.21-34.383 125.676-74.695 192.072-111.45 20.155-15.412 35.568-9.484 60.467 0 61.652 41.498 128.048 77.067 188.515 111.45 14.227 11.856 30.826 11.856 50.982 0 65.21-40.311 131.605-80.623 202.742-116.192 10.671-10.67 24.899-10.67 35.57-4.742 71.137 40.311 137.532 80.623 207.484 120.934 16.6 11.856 26.084 21.341 26.084 41.497-4.742 173.102-4.742 349.76 0 522.863 0 20.155-4.742 30.826-26.084 40.311-65.21 35.569-136.347 77.066-202.742 117.377-15.413 9.485-29.64 9.485-45.054 0-66.395-40.311-132.79-77.066-198-117.377-20.156-9.485-30.827-9.485-50.982 0-65.21 40.311-131.605 77.066-198 117.377-15.414 9.485-30.827 9.485-45.054 0-66.396-40.311-132.79-81.808-198-117.377C9.742 793.063 5 782.392 5 762.237zm288.108-150.575c0 18.97 9.485 33.197 28.455 42.682 77.066 43.869 155.317 90.108 238.311 132.79 54.54 30.827 111.45 65.21 164.803 100.78 15.413 3.556 22.527 3.556 37.94 0 58.096-35.57 124.491-72.324 188.515-116.192 8.3-3.557 13.042-13.042 13.042-22.527 3.557-160.06 3.557-321.306 0-482.552 0-8.299-9.485-23.712-18.97-32.012-58.096-35.568-124.491-71.137-187.33-109.077-10.67-5.929-17.784-5.929-33.197 0-59.282 37.94-124.491 73.509-187.33 109.077-5.928 4.743-10.67 8.3-17.784 14.228 11.856 4.743 17.784 9.485 21.341 13.042 59.282 37.94 119.749 69.952 180.216 101.964 14.227 9.485 18.97 22.527 18.97 36.755v230.012C593.072 544.08 444.868 459.902 299.036 373.35v30.826c0 71.138 0 139.905-5.928 207.486z" style="fill:#000;fill-opacity:1;fill-rule:nonzero;stroke:none;"/>
</svg>
