<svg xmlns="http://www.w3.org/2000/svg" viewBox="0 0 1000 1000">
    <path
        d="M534.57,322.57H724.39v51.5H592.06v83.08H693.71v51.5H592.06V612.24H724.39v51.64H534.57ZM247.9,568.23a141.74,141.74,0,0,0,3.74,32.48,90.64,90.64,0,0,0,13.92,29.19,86.78,86.78,0,0,0,23.66,21.86,90.18,90.18,0,0,0,30.24,12.12,141.07,141.07,0,0,0,32.48,3.75,166.23,166.23,0,0,0,27.4-2.4h0a128.49,128.49,0,0,0,26.49-7.33A89.62,89.62,0,0,0,429.49,644a73.7,73.7,0,0,0,17.21-21.85,67.19,67.19,0,0,0,8.38-26,216.87,216.87,0,0,0,1.8-27.84V473.77H354.34v51.49h45.51v43.12a86.43,86.43,0,0,1-2.4,19.46,30.22,30.22,0,0,1-9.73,15.72A49.81,49.81,0,0,1,371,613.29a63.05,63.05,0,0,1-19,2.84,66.74,66.74,0,0,1-18.56-2.84,42.5,42.5,0,0,1-15.72-10.18,38.12,38.12,0,0,1-9.73-16.32,61.36,61.36,0,0,1-2.84-18.56V418.08a67.78,67.78,0,0,1,2.84-19,41.29,41.29,0,0,1,10.18-16.32A38,38,0,0,1,334.43,373a62.75,62.75,0,0,1,19-2.85,68.24,68.24,0,0,1,22.3,3.75,36.09,36.09,0,0,1,18.12,13.47,33.4,33.4,0,0,1,7,21h57a89.39,89.39,0,0,0-8.38-37.58,77.21,77.21,0,0,0-23.21-30.24,86.82,86.82,0,0,0-34.43-17.21,157.92,157.92,0,0,0-38.47-4.64,167.32,167.32,0,0,0-27.4,2.39A95.87,95.87,0,0,0,299.55,329a85,85,0,0,0-22.76,14.82,88,88,0,0,0-17.21,21.4,92,92,0,0,0-9.28,25.6,151.32,151.32,0,0,0-2.4,27.4ZM988.29,704l.49-405-286-286.77-405-.49L11.24,297.9l-.48,405,286,286.61,404.95.49ZM85.64,671.93,86.06,329,328.78,86.66l342.94.41L913.89,329.94l-.41,343L670.76,915.06l-342.94-.41Z" />
</svg>