<?xml version="1.0" encoding="UTF-8"?><svg id="a" xmlns="http://www.w3.org/2000/svg" viewBox="0 0 1000 1000"><path d="M790.182,679.521l.269-.224c-.062,.125-.138,.293-.203,.437l.525-.437c-.322,.645-.645,1.613-1.29,2.258l-11.612,15.483-.295,.228-222.919,302.335c-.162,.244-.386,.364-.619,.393h-.002c-.214,.026-.433-.029-.624-.133-.484-.225-.861-.715-.69-1.228l48.707-159.668c.323-.968,.645-1.613,.645-2.58l.181-.151c.059-1.637-.317-3.232-1.149-4.687l-63.004-112.413-156.016,220.149c-1.29,2.903-5.806,3.871-8.387,1.613l-161.281-204.504c-3.871-3.226-4.193-8.709-1.29-12.257l211.743-261.778-159.165,82.111c-2.581,1.29-5.806,.322-7.096-1.935l-46.449-87.414c-1.253-2.255-1.308-4.891-.376-7.32l-.269,.223c.323-.645,.645-1.613,1.29-2.258L479.823,72.88c.498-.747,1.55-.525,1.866,.056,.304,.222,.52,.526,.392,.912l-83.221,214.504c-.322,.968-.645,1.613-.645,2.581l-.181,.151c-.059,1.637,.317,3.232,1.149,4.688l64.847,115.701,123.852-153.119c1.29-1.613,1.935-3.548,1.935-5.484V1.916c.322-2.258,3.548-2.58,4.193-.645l196.118,354.818c.968,2.258,.968,4.838,0,7.419l-214.168,302.205,160.622-82.863c2.58-1.29,5.806-.323,7.096,1.935l46.126,87.414c1.253,2.255,1.308,4.892,.376,7.321Z" fill-rule="evenodd" isolation="isolate"/></svg>