<svg xmlns="http://www.w3.org/2000/svg" width="1000" height="1000">
  <path d="M644.098 937.067c-62.236 62.236-169.493 78.126-255.563 21.187-25.16-17.215-29.132-21.187-5.297-42.374 50.318-51.642 103.285-107.257 157.575-161.547 60.912-59.587 117.85-116.526 177.438-176.114 34.428-34.428 38.4-79.45 18.538-119.174-7.945-23.835-18.538-29.132-38.4-9.27-62.236 63.56-127.12 128.444-195.976 193.328-50.318 47.67-94.016 92.691-148.306 145.658-34.428 34.428-113.878 34.428-141.686 0-15.89-19.862-34.428-34.428-55.614-52.967-13.242-15.89-13.242-19.862 0-34.428 59.587-58.263 117.85-119.174 178.761-173.465l308.53-308.53c43.697-46.345 103.285-46.345 143.01-6.62 52.966 50.318 108.58 103.284 156.25 157.575 68.857 74.153 68.857 192.003 0 267.48-72.828 78.126-150.954 157.576-230.404 234.377-18.538 21.187-42.373 43.697-68.856 64.884zM38.956 612.647c-55.614-95.34-42.373-203.92 35.753-271.453 87.394-87.394 181.41-177.437 268.804-271.453C408.397.885 515.654-8.384 584.511 26.044c37.076 22.51 62.235 33.104 39.725 55.615C609.67 94.9 354.106 350.464 234.932 470.962c-43.697 47.67-91.367 97.988-141.685 145.658-23.835 30.456-30.456 26.483-54.29-3.972z" style="fill:#000;fill-opacity:1;fill-rule:nonzero;stroke:none;"/>
</svg>
