<svg xmlns="http://www.w3.org/2000/svg" viewBox="0 0 1000 1000"><path d="M993.842 379.263v-3.213c0-29.982 3.213-63.177-1.07-93.16C976.708 158.676 857.85 70.87 734.706 97.64c-82.453 14.991-139.205 65.32-165.976 145.63-26.77 79.24-8.566 154.196 46.045 216.303 31.054 34.266 70.673 51.4 110.293 65.32 35.337 12.85 69.603 26.77 106.01 38.549 56.753 24.628 92.09 88.877 81.382 152.055-14.991 62.107-68.532 110.293-131.71 110.293-77.098 1.07-152.054 0-230.223 0h-10.709V102.994c0-8.566 0-8.566-9.637-8.566-102.797 0-203.453 0-307.322-2.142-43.903 0-81.381 10.708-116.718 35.337C32.256 176.88-3.08 245.412 6.557 332.147c8.566 84.594 57.823 146.7 135.993 180.967 42.832 18.204 82.452 31.053 127.426 47.115 20.345 7.496 37.478 18.204 54.611 35.337 46.045 49.257 49.257 123.143 9.637 176.683-35.336 44.974-94.23 64.249-152.055 48.187-52.47-16.062-92.09-65.32-93.16-119.93-2.142-24.63-2.142-48.187-2.142-73.886 0-3.213-1.07-7.496-7.495-7.496-10.708 0-47.116 1.07-73.886 1.07 0 37.479 1.07 85.665 4.283 107.082C24.761 821.506 104 895.392 197.161 906.1c98.514 11.778 190.604-41.762 229.153-132.78 47.115-111.365-6.425-242.003-119.93-285.907-43.904-17.133-88.878-33.195-130.64-51.398-57.823-21.417-94.23-77.099-86.735-139.206 4.283-65.319 63.178-121 127.426-123.143h233.437c4.283 0 5.354 2.142 8.566 2.142V907.17h313.747c67.46 0 123.143-24.628 168.117-71.744 36.407-43.903 56.753-95.302 53.54-149.913-1.07-88.877-56.753-165.975-141.346-198.1-39.62-17.133-81.382-33.195-121.002-47.115-98.514-35.337-119.93-153.126-56.753-220.587 40.691-43.903 89.948-54.611 145.63-37.478 52.47 17.133 88.877 65.32 93.16 117.789 2.142 22.487 0 46.045 0 69.602 0 2.142 2.142 6.425 2.142 9.638z"/></svg>