<?xml version="1.0" encoding="utf-8"?>
<!-- Generator: Adobe Illustrator 26.0.1, SVG Export Plug-In . SVG Version: 6.00 Build 0)  -->
<svg version="1.1" xmlns="http://www.w3.org/2000/svg" xmlns:xlink="http://www.w3.org/1999/xlink" x="0px" y="0px"
	 viewBox="0 0 1000 1000" style="enable-background:new 0 0 1000 1000;" xml:space="preserve">
<g id="Layer_1">
</g>
<g id="Layer_3">
</g>
<g id="Layer_2">
	<path d="M500.6,129.5c-5.4,164.2-5.2,341,0,506.3C505.2,470.6,505.4,293.8,500.6,129.5z"/>
	<path d="M318.3,998.7l0.4,1.3c1.6-0.8,3.2-1.5,4.8-2.3c32.5-17.9,67.1-31.1,102.3-42.5c44.9-14.6,90.4-16.2,135.9-3.7
		c39.3,10.8,77.3,25.8,113.3,44.9c2.2,1.2,4.1,3.5,7.4,2.9c-0.3-0.6-0.7-1.2-1.2-1.7c-56.7-43.5-113.3-87-170-130.6
		c-8-6.2-14.4-5.5-22.2,0.5C432.1,911.4,375.2,955.1,318.3,998.7L318.3,998.7z"/>
	<path d="M284.6,375.8c-3.7,4.8-2,8.3,1.6,12.1c13.6,14.5,21.8,31.9,27.5,50.6c7,23.1,9.6,46.9,10.7,70.9
		c1.7,36.9,1.2,73.7,0.5,110.6c-0.9,49.2-1.2,98.3-0.8,147.5c0.5,54.2-7,107.1-24.4,158.5c-6.8,20.1-13.5,40.2-23,61.4
		c1.5-0.5,3-1.1,4.4-1.8c49.5-39.8,98.7-79.9,150.2-117c6.6-4.8,6.7-10.8,2.6-16.9c-4.1-6.2-8.5-12.1-13.2-17.8
		c-13.7-16.4-19.2-35.4-19.5-56.3c-0.4-27.3-1-54.7-1.3-82c-1.2-100.8-0.4-201.5-1.7-302.3c-1.6-129.3-1.6-258.7-2.3-388V0.1h-1.9
		c-5.7,51.3-11.5,102.6-21.3,153.2C357.6,233,334.6,309.7,284.6,375.8L284.6,375.8z"/>
	<path d="M602.9,234.5c-1.6,115.8-0.2,231.6-2,347.3c-1,60.2-0.8,120.4-0.6,180.7c0.1,30.5-6.2,58.5-28,81.4c-2,2.3-3.9,4.8-5.5,7.4
		c-4.8,7.2-3.7,12.8,3.5,18c49.5,35.7,96.9,74.1,144.4,112.3c2.2,1.8,4.1,4.5,8.4,4c-15.8-35.5-26.6-71.9-35.6-108.9
		c-3.5-14.3-7-28.7-8.2-43.4c-3.1-36.2-2.2-72.4-2.9-108.7c-1.2-62-0.6-124.1-0.9-186.2c-0.2-21.2,1.1-42.4,3.9-63.4
		c3.9-28.2,10.7-55.6,28.3-78.9c11.5-15.3,11.7-15.2,0.4-31.3c-39.1-56-60.4-119.2-75-185.1C620,120.4,612.9,60.3,606.8,0h-2.4
		C603.7,78.2,604,156.3,602.9,234.5z"/>
</g>
</svg>
