<svg xmlns="http://www.w3.org/2000/svg" viewBox="0 0 1000 1000"><path d="M500,0C223.858,0,0,223.858,0,500s223.858,500,500,500,500-223.858,500-500S776.142,0,500,0ZM326.645,175,500.459,348.814,673.92,175.353V276.744L499.841,450.823l-173.2-174.079V175ZM175.353,673.107l173.461-173.46L175,325.833H276.745l174.079,173.2L276.745,673.108H175.353ZM673.39,824.647,499.929,651.186,326.115,825V723.255l173.2-174.079L673.39,723.255V824.646Zm151.257-151.01H723.256L549.177,499.558l174.079-173.2H825L651.187,500.176,824.648,673.637Z"/></svg>