<svg xmlns="http://www.w3.org/2000/svg" viewBox="0 0 1000 1000"><path d="M656.939 502.55c0-90.801-73.458-162.219-159.159-162.219-88.761 0-160.179 71.418-160.179 162.22 0 84.68 71.418 157.118 160.18 157.118 85.7 0 159.158-72.437 159.158-157.118zM5 621.92c0 12.243 6.122 24.486 22.445 24.486h95.904c16.324 0 19.385-6.122 19.385-17.344 2.04-29.588 16.324-35.709 44.89-35.709 68.357 0 116.309-55.093 116.309-126.51 0-63.256-54.073-113.248-118.349-113.248H27.445C14.182 353.595 5 360.736 5 377.06zm627.453 23.466c10.203 0 202.01 1.02 328.52 1.02 41.83 0 42.85 6.121 15.304-35.709-65.296-98.964-133.653-215.272-160.18-264.244-59.174 96.923-183.644 298.933-183.644 298.933z"/></svg>