<svg xmlns="http://www.w3.org/2000/svg" viewBox="0 0 1000 1000"><path d="M5 500.496c0 271.98 220.55 494.507 495.496 494.507 271.98 0 494.507-220.55 494.507-495.496C995.003 227.528 773.464 5 500.496 5 226.54 5 5 225.55 5 500.496zm128.572 193.847c-2.967-16.813 0-34.616.989-52.418 2.967-28.681 15.824-56.374 36.593-77.143 6.924-8.901 15.825-19.78 24.726-28.681 27.692-23.737 46.483-52.418 65.275-80.11 11.868-14.836 23.736-30.66 38.571-43.517 31.649-28.682 63.297-54.396 88.023-88.022 0-.99 2.967-.99 4.945-3.956 15.824 15.824 28.681 30.659 43.516 43.516-16.813 24.726-33.626 43.517-66.264 30.66 9.89 8.9 25.715 11.868 34.616 6.923 12.857-6.923 23.736-12.857 35.604-20.77 1.978 0 4.945-1.978 5.934-2.967 15.825 12.858 31.649 26.704 48.462 41.539-8.901 3.956-16.813 10.88-22.747 16.813-8.901 6.923-16.813 10.88-19.78 21.759 2.967-1.979 7.912-7.913 10.879-10.88 4.945-3.956 9.89-7.912 18.79-3.956 6.924 1.978 15.825 1.978 22.748.99 15.824-.99 20.77 9.89 27.693 20.769 4.945 9.89 4.945 17.802-1.978 27.692-9.89 10.88-21.759 17.802-35.605 22.747-11.868 2.967-21.758 7.912-31.648 11.869-10.88 4.945-16.814 13.846-19.78 24.725 11.868-13.846 28.68-23.736 49.45-29.67-3.956 9.89-3.956 17.802-7.912 22.747-12.857 17.802-24.725 35.604-39.56 53.407-12.858 14.835-27.693 26.703-38.572 39.56-22.748 26.704-53.407 41.539-84.066 49.45-9.89 2.968-16.814 4.946-26.704 6.924-6.923 2.967-12.857 7.912-13.846 17.802 2.967-1.978 5.934-3.956 6.923-3.956l1.978 1.978c0 14.835-8.901 23.737-20.77 31.649-22.747 13.846-46.483 13.846-72.197 9.89-4.945-1.978-10.88-3.956-16.813-3.956-27.693-5.934-44.506-25.715-47.473-53.407zm218.572-194.836c9.89 6.923 25.714 3.956 31.648-5.934-10.879 1.978-20.769 3.956-31.648 5.934zm17.802-209.67c-4.945-9.891-4.945-20.77 0-24.726 9.89-8.901 17.803-11.868 29.67-6.923 6.924 2.967 14.836 7.912 19.781 12.857 30.66 34.615 69.231 59.34 104.836 89.011 20.769 13.846 40.55 26.704 62.307 38.572 8.902 5.934 19.78 0 25.715-11.869-2.967 1.979-5.934 3.957-7.912 4.946-.99 1.978-3.956 2.967-3.956 2.967-18.792-20.77-37.583-40.55-53.407-61.32-32.638-42.527-61.319-83.076-91.978-124.615-.99-2.967-2.968-6.923-4.946-8.901-9.89-23.737-4.945-35.605 16.814-46.484h5.934c16.813 10.88 28.681 26.703 41.538 43.517 36.594 44.505 73.187 90 109.781 133.517 7.912 11.868 18.791 20.769 29.67 29.67 0 .99 1.978 2.967 1.978 3.956 5.935 24.726 17.803 46.484 28.682 71.21 3.956 5.933 3.956 9.89-.99 14.834-1.977 3.956-3.955 5.934-3.955 7.913-12.857-13.847-26.704-22.748-44.506-29.67-.989 0-.989 1.977-.989 1.977 2.967.99 5.934 4.945 8.901 5.934 12.857 6.923 23.737 16.813 30.66 26.704.989 1.978 0 7.912 0 7.912-1.978 3.956-2.967 6.923-4.945 9.89-14.836-5.934-28.682-7.912-44.506-7.912-7.912 0-17.802-1.978-24.725-1.978-1.978 0-1.978 1.978-1.978 1.978 8.9 1.978 17.802 2.967 24.725 2.967 16.813 0 30.66 2.967 44.506 12.857-3.956 10.88-9.89 21.758-12.858 32.637-.989 1.978-1.978 1.978-4.945 3.956-5.934 2.968-11.868 6.924-17.802 9.89 11.868-1.977 22.747-2.966 30.66-16.813 4.945-14.835 11.868-29.67 17.802-43.516 8.9-18.792 16.813-36.594 29.67-51.429 9.89-7.912 19.78-12.857 32.638-9.89 20.769 4.945 31.648 22.747 27.692 44.506-4.945 22.747-14.835 42.527-25.714 64.285-11.868 20.77-24.726 40.55-35.605 62.308-2.967 4.945-2.967 10.88-3.956 15.825l.99.989c5.933-11.869 11.867-25.715 15.823-38.572 5.934 29.67-2.967 54.396-15.824 79.121 11.868-9.89 18.791-22.747 21.758-36.593 1.978-14.836 3.957-29.67 3.957-43.517 0-5.934 0-12.857 4.945-16.813 2.967-3.956 5.934-8.901 8.9-12.857 6.924 3.956 13.847 5.934 15.825 15.824 3.956 14.835 10.88 19.78 27.692 21.758 2.967 0 5.934 3.956 6.923 4.945 11.869 14.835 17.803 32.638 21.759 51.429 1.978.989 1.978 1.978 1.978 3.956l1.978 1.978c1.978-16.813-1.978-33.626-21.759-64.286 4.946-2.967 7.913-5.934 11.869-8.901 19.78 15.824 22.747 15.824 34.615 16.813-7.912-5.934-16.813-12.857-24.725-16.813-3.956-2.967-4.945-6.923-3.956-12.857 1.978-2.967 1.978-7.912 3.956-12.857v-58.352c0-3.956 1.978-6.923 2.967-9.89 3.956-4.945 9.89-8.901 11.868-14.836 0 0-1.978 0-1.978-1.978-4.945 4.945-7.912 7.913-12.857 11.869v-1.978c1.978-7.913 2.967-14.836 6.923-22.748h-1.978c-1.978 2.967-2.967 3.956-4.945 7.912 0-7.912-1.978-16.813-3.956-23.736h-.99c0 12.857.99 28.681 0 43.517 0 24.725 0 47.472-4.944 72.198-.99 18.79-19.78 29.67-39.56 22.747-1.979 0-3.957-5.934-4.946-8.901-5.934-18.791-7.912-39.56 0-60.33 3.956-10.88 6.923-23.736 6.923-35.605 2.967-14.835-3.956-27.692-16.813-37.582-6.923-4.945-7.912-8.901-1.978-16.813 0 0 0-.99 1.978-2.967-2.967 1.978-4.945 1.978-7.912 2.967 0-4.945-1.978-12.858-3.956-22.748 12.857 15.825 28.681 15.825 44.505 18.792 11.869 0 20.77 3.956 27.693 13.846 16.813 21.758 36.593 44.505 54.396 66.264 9.89 13.846 14.835 31.648 18.79 50.44 2.968 23.736 4.946 48.461 0 72.198-1.977 9.89-5.933 17.802-11.867 28.681-19.78 28.681-36.594 63.297-44.506 98.901-10.88 26.704-26.703 40.55-52.418 44.506-40.55 7.912-80.11 3.956-116.703-16.813-36.594-22.748-43.517-68.242-11.869-98.902 2.967-3.956 5.934-7.912 9.89-10.879 10.88 6.923 20.77 10.88 30.66 16.813 0 0 0-1.978 2.967-1.978-3.956-2.967-4.945-3.956-6.923-5.934-17.802-9.89-33.627-23.736-44.506-38.571-15.824-20.77-15.824-38.572-1.978-59.341 1.978-3.956 5.934-7.912 6.923-10.88-.989 0-.989 0-2.967-1.977-6.923 12.857-14.835 23.736-20.769 34.615 0 0-1.978-.989-3.956-3.956-2.967-6.923-5.934-12.857-7.912-19.78-23.737-51.429-58.352-90.99-101.869-125.605-30.66-27.692-62.308-57.363-91.978-84.066-10.88-8.901-22.747-18.791-32.637-30.66-4.946-5.934-11.869-12.857-17.803-21.758zm63.297-11.87c12.857-11.867 24.726-24.724 36.594-37.582 0 0 0 .99 1.978 2.967 9.89 14.836 20.77 28.682 30.66 45.495-6.924 9.89-15.825 16.813-22.748 27.692-16.813-12.857-32.638-25.714-46.484-38.571zm68.242 58.353c9.89-6.923 17.802-11.868 25.715-15.824 9.89 13.846 23.736 27.692 35.604 42.527-2.967 3.956-6.923 4.945-10.88 9.89-16.812-12.857-32.637-24.725-50.439-36.593zm15.824-142.418c6.924-5.934 12.858-9.89 19.78-14.836 10.88-6.923 23.737-2.967 27.693 7.913 4.945 9.89 6.923 19.78 0 29.67-3.956 6.923-8.901 11.868-13.846 19.78-11.868-14.835-21.758-27.692-33.627-42.527zm69.231 84.066c17.803-6.923 35.605-14.835 53.407-23.736 2.967 0 8.901 0 11.868 3.956 6.923 6.923 9.89 21.758.99 31.648-2.968 3.956-7.913 8.901-12.858 11.868-5.934 4.945-13.846 9.89-22.747 14.835-8.901-12.857-17.802-23.736-30.66-38.571zm72.198 68.242c-1.978-25.714 22.748-42.528 47.473-29.67 12.857 4.945 25.715 13.846 29.67 29.67 4.946 20.77 5.935 40.55 8.902 62.308-23.737-.99-40.55 6.923-52.418 26.703-18.791-27.692-30.66-56.374-33.627-89.011zm49.451 320.44c17.802 17.803 56.374 25.715 67.253 12.858-23.736 2.967-44.506-1.978-67.253-12.857zm9.89-18.79c12.857-4.946 26.704-33.627 23.737-46.484-7.912 13.846-15.825 30.659-23.737 46.483zm30.66-120.66c.989-1.979.989-3.957 2.967-5.935 2.967 3.956 4.945 6.924 5.934 10.88 0 0 0 .989-.99.989-1.977-.99-4.944-2.967-7.911-5.934z"/></svg>