<svg xmlns="http://www.w3.org/2000/svg" width="1000" height="1000">
  <path d="M5 500.496C5 225.55 226.54 5 500.496 5c272.968 0 494.507 222.528 494.507 494.507 0 274.946-222.528 495.496-494.507 495.496C225.55 995.003 5 772.475 5 500.496zm239.341 141.43 124.616 35.604-30.66 98.901 64.287 12.857 22.747-100.88 47.473-187.912c28.681 0 65.275 6.923 94.945 11.868 88.022 0 176.045-20.769 176.045-104.835 11.868-72.198-34.616-106.814-105.825-130.55l23.736-99.89-59.34-10.88-22.748 99.89c-11.868-11.867-35.604-11.867-47.472-11.867l23.736-100.88-59.34-10.879-23.737 92.868c-7.319-2.67-60.132-20.769-116.704-34.516l-17.802 76.154c40.55 13.846 85.055 12.857 76.154 35.604l-34.616 129.561-41.538 129.561c0 12.857-12.857 23.737-22.748 23.737l-35.604-10.88zm205.715 159.23 46.484 9.89 35.605-91.978c93.956 22.748 165.165 11.868 200.77-89.011 10.879-45.495 0-93.956-23.737-117.693H697.31c2.967 0-91.978 23.737-105.825 23.737 23.737 10.879 30.66 35.604 23.737 59.34-12.857 58.352-67.253 46.484-114.726 34.616l-24.725 70.22zm22.748-565.716c1.187.396 1.187.396 0-.099zm11.868 195.825 37.582-106.813c21.759 0 127.583 22.747 115.715 83.077-22.747 70.22-115.715 34.615-153.297 23.736z" style="fill:#000;fill-opacity:1;fill-rule:nonzero;stroke:none;"/>
</svg>
