<svg xmlns="http://www.w3.org/2000/svg" viewBox="0 0 1000 1000"><path d="M490.154 14.526c-90.018 22.504-165.822 67.513-223.86 138.58-114.892 142.134-162.27 303.219-105.416 480.886 31.98 100.678 95.94 175.299 204.91 198.988 100.677 20.135 181.22-17.767 242.811-93.572 120.814-149.24 105.416-373.101-34.349-505.76-3.553-3.553-9.475-5.922-11.844-10.66 46.193-14.213 87.649-3.553 123.182 18.952 81.727 49.747 124.367 127.92 132.658 219.123C832.46 639.914 770.87 793.893 619.26 896.94 449.883 1014.2 223.653 966.822 99.286 795.077-113.914 500.15 53.093 82.04 413.166 15.71c24.873-4.738 50.93-5.922 76.988-9.475zm-309.14 527.08c-10.66-161.086 40.27-299.666 162.269-405.082C509.105-5.61 747.18 19.264 883.39 187.455c238.074 292.559 74.62 733.174-294.928 801.872-26.057 4.737-50.93 5.922-79.358 2.369 3.554-1.185 4.738-2.37 8.292-4.738 188.327-54.485 290.19-190.696 334.014-376.655 23.689-99.493 17.767-196.618-31.98-287.82-49.747-97.125-125.552-158.717-238.074-155.163-105.416 3.553-177.667 62.775-226.23 152.793-80.542 150.425-49.747 348.228 76.99 456.013 1.184 1.184 3.553 4.738 8.29 10.66-66.329 9.476-118.444-10.66-163.453-49.747-58.038-52.115-88.834-120.813-95.94-195.434z"/></svg>