<svg xmlns="http://www.w3.org/2000/svg" width="1000" height="1000">
  <path d="M392.896 642.282v-36.347c13.327 8.48 21.808 12.115 31.5 16.962 23.02 14.538 44.828 21.808 73.906 21.808 32.712 1.211 59.366-10.904 83.598-26.655 41.193-24.23 59.366-61.79 66.636-107.829 6.057-44.827-12.116-83.597-37.559-107.829-24.231-26.654-53.309-55.732-77.54-44.827-18.173 10.904-36.347 10.904-52.097-1.212-30.289-19.385-61.79 16.962-88.444 41.193-20.597 15.75-39.981 46.04-39.981 78.752 2.423 87.232 0 174.464 2.423 260.485 0 29.078 31.5 25.443 27.866 61.79 3.634 41.193 41.193 46.04 67.847 64.213 2.423 2.423 10.904-2.423 15.75-4.846 23.02-10.905 42.405-8.481 64.213 0 8.481 2.423 23.02 2.423 29.078 0 73.905-43.617 147.81-84.81 220.504-129.638 9.692-3.634 13.327-15.75 18.173-24.23 8.481-15.751 16.962-33.925 26.655-49.675 6.057-9.692 13.327-23.02 13.327-32.712a3879.512 3879.512 0 0 0 0-237.466c0-39.982-24.231-43.616-36.347-59.367-9.693-15.75-2.423-33.923-24.231-55.732-67.848-43.616-139.33-83.597-210.812-122.367-7.27-4.846-23.02-4.846-29.078 0-26.654 13.327-48.462 13.327-76.328 0-8.48-4.846-21.808-4.846-27.866 0-72.694 38.77-142.964 78.751-213.235 122.367-10.904 6.058-13.327 19.385-20.596 31.501-8.481 14.539-12.116 35.135-26.655 48.463-8.48 10.904-15.75 21.808-15.75 37.558V618.05c0 13.327 7.27 27.866 15.75 36.347 33.924 31.5 36.347 79.963 7.27 111.464-26.655 26.654-71.482 29.077-98.137 0-30.289-31.5-29.077-79.963 4.846-111.464 8.481-8.48 14.54-23.02 14.54-36.347V386.642c0-15.75-1.212-26.654-14.54-37.558-29.077-24.232-35.135-61.79-15.75-95.714 18.174-29.077 48.463-41.193 84.81-29.077 10.904 1.211 24.23 0 31.5-4.847 72.694-42.404 146.6-82.386 218.081-127.214 12.116-6.057 20.597-19.385 25.443-30.289C442.57 32.866 471.648 5 499.513 5c30.29 2.423 58.155 27.866 70.271 56.943 1.212 10.904 9.693 24.232 21.808 30.29a17402.17 17402.17 0 0 0 218.081 127.213c8.481 4.847 25.443 6.058 33.924 4.847 35.135-12.116 66.636 0 84.81 29.077 16.961 31.5 13.327 71.482-13.328 93.29-15.75 13.328-20.596 26.655-20.596 44.828 2.423 78.752 0 153.869 2.423 230.197 0 9.692 4.846 24.231 13.327 31.5 29.077 29.078 38.77 65.425 18.173 99.349-18.173 29.077-59.366 46.039-93.29 24.23-6.058-2.422-20.596-2.422-27.866 2.424L586.746 908.825c-9.693 4.846-15.75 15.75-16.962 24.231-9.692 37.559-36.347 64.213-70.27 61.79-35.136 0-61.79-24.231-67.848-61.79-2.423-8.48-9.692-19.385-16.962-21.808-27.866-18.173-55.732-39.981-93.29-37.558-44.828 2.423-66.636-52.097-44.828-89.656 7.27-13.327 14.539-31.5 14.539-47.25v-262.91c0-12.115-7.27-26.654-14.539-37.558-15.75-23.02-19.385-44.828-6.058-69.059 13.327-23.02 36.347-31.5 61.79-30.289 14.539 0 29.077-1.212 39.981-6.058 30.29-18.173 63.002-33.924 83.598-67.847 19.385-38.77 77.54-29.078 98.137 12.115 15.75 29.078 79.963 67.848 113.887 61.79 26.654-1.212 46.039 7.27 60.578 30.289 12.115 19.385 12.115 43.616-3.635 61.79-12.116 18.173-14.539 33.923-14.539 52.097 0 32.712-2.423 64.213 19.385 94.502 21.808 33.923-10.904 88.444-53.309 83.597-26.654-4.846-46.039 7.27-66.635 18.174-25.443 15.75-49.674 24.231-60.578 55.732-7.27 21.808-29.078 29.077-53.31 29.077-21.807-3.635-39.98-15.75-52.096-36.347-3.635-10.904-9.693-24.23-19.385-29.077-27.866-10.904-31.501-27.866-31.501-54.52z" style="fill:#000;fill-opacity:1;fill-rule:nonzero;stroke:none;"/>
</svg>
