<svg xmlns="http://www.w3.org/2000/svg" viewBox="0 0 1000 1000"><path d="M500.496 5C223.572 5 5 229.506 5 500.002c0 276.43 224.506 495.001 495.002 495.001 276.43 0 495.001-224.506 495.001-495.001C995.003 226.539 773.464 5 500.496 5zM80.166 498.518C82.142 267.088 270.055 76.21 504.451 76.21c228.463-1.978 424.287 180 426.265 422.31 2.967 236.374-194.835 428.242-429.232 426.264-223.517 0-421.32-187.912-421.32-426.265zm40.549 1.978c0 213.627 173.077 386.705 386.704 383.738 212.638 0 383.738-165.166 383.738-383.738 0-231.43-190.88-385.715-383.738-383.737-216.594-4.945-386.704 170.11-386.704 383.737zm197.803 63.297c-1.978-6.923 5.934-9.89 11.868-11.868 31.648-5.934 59.34-10.88 88.022-17.802 3.956 0 12.857-2.967 17.802-2.967 6.923-2.967 11.868 2.967 11.868 9.89 5.934 35.604 10.88 72.198 15.825 106.813 1.978 7.912-1.978 11.868-9.89 11.868-24.726 7.913-31.649 5.935-33.627-18.79-1.978-8.902-1.978-18.792-4.945-25.715 0 0-1.978 0-1.978-1.978-7.912 8.9-12.857 20.77-12.857 34.615 0 43.517 32.637 87.034 78.132 96.924 40.55 6.923 76.154-4.945 101.868-40.55 22.748-30.66 22.748-74.176 2.967-106.813-7.912-11.869-17.802-23.737-30.66-30.66-8.9-6.923-12.856-14.835-12.856-25.714 0-6.923 0-14.835 1.978-21.759 0-8.9 1.978-10.879 8.9-6.923 37.583 23.737 72.199 51.43 85.056 100.88 20.77 80.11-37.582 164.176-124.616 174.066-63.297 7.912-151.319-40.55-151.319-136.484 0-16.813 3.956-33.626 9.89-48.461 0-2.967 1.978-7.913 4.945-12.858-4.945 0-6.923-1.978-10.879-1.978-1.978 1.978-7.912 1.978-11.868 1.978-33.626 7.913-25.714 4.945-33.626-25.714zm51.428-265.056c19.78-52.418 71.21-86.044 127.583-86.044 88.022-1.978 159.231 82.088 138.462 174.066-1.978 3.957-1.978 5.935-1.978 12.858 0 1.978 1.978 1.978 1.978 4.945 8.901-2.967 18.791-4.945 25.714-6.923 15.825-8.901 17.803-6.923 25.715 8.9v4.946c3.956 14.835 3.956 18.791-9.89 22.747-30.66 9.89-64.286 23.737-93.957 33.627-13.846 4.945-15.824 1.978-17.802-9.89-10.879-31.649-21.758-65.275-28.681-96.924-4.945-12.857-1.978-14.835 11.868-20.77 1.978 0 3.956 0 5.934-1.977 14.835-2.967 17.802 0 23.736 14.835 1.978 9.89 4.945 20.77 9.89 33.627h2.967c1.979-5.935 3.957-7.913 3.957-12.858 9.89-55.384-19.78-98.901-63.297-114.725-46.484-15.825-98.902 4.945-118.682 45.494-23.736 45.495-9.89 99.89 29.67 127.583 28.682 21.758 22.748 14.835 22.748 52.418 0 6.923 0 8.901-1.978 13.846-1.978-2.967-7.912-2.967-9.89-4.945-17.803-13.846-38.572-25.714-53.407-41.539-40.55-40.55-53.407-98.901-30.66-153.297zm111.759 201.76c0-53.408 0-107.803 1.978-162.2 0-17.801 0-17.801 20.77-17.801h6.922c11.869 0 13.847 1.978 13.847 11.868v325.385c0 23.737 0 25.715-23.737 25.715-17.802-1.978-17.802-1.978-17.802-19.78-1.978-52.418-1.978-109.781-1.978-163.188z"/></svg>