<svg xmlns="http://www.w3.org/2000/svg" viewBox="0 0 1000 1000"><path d="M654.486 250.626c78.859 63.346 125.399 58.175 193.916 0V666.9c0 175.817-118.935 308.972-292.167 324.485-95.665 10.342-180.988 0-259.847-50.418-90.494-49.125-140.912-133.155-140.912-231.406-3.878-175.817-3.878-349.048-3.878-531.329 0-3.878 14.22-12.927 18.099-12.927 51.71-5.171 99.543 0 151.254 0 19.392-5.171 19.392 5.17 19.392 18.098 0 148.67 0 301.216 5.17 452.47 0 37.49 6.464 81.445 21.978 117.642 28.44 58.175 96.958 81.445 175.817 64.639 58.174-10.342 107.3-60.76 107.3-125.399 3.878-84.03 3.878-170.646 3.878-253.383zM650.608 98.08C654.486 45.076 701.026 5 748.858 5c54.297 0 99.544 45.247 99.544 93.08 0 58.174-45.247 100.836-99.544 100.836-54.296-6.464-98.25-42.662-98.25-100.836z"/></svg>