<svg xmlns="http://www.w3.org/2000/svg" width="1000" height="1000">
  <path d="M502.822 78.375c30.48 34.994 56.443 71.117 75.633 101.596 132.075 167.07 264.15 339.784 396.226 506.853 11.289 15.804 20.32 36.123 20.32 57.571v167.07c-5.645 0-5.645 0-9.031 5.644-158.04-204.321-320.593-406.385-483.148-615.222C335.752 510.724 172.07 712.787 5 921.625v-177.23c0-15.803 5.644-31.607 15.804-41.767C172.07 500.564 330.108 301.887 487.018 99.823c5.645-5.644 5.645-11.289 15.804-21.448zM370.747 667.634c0-66.602 55.314-121.916 121.916-121.916s116.271 55.314 116.271 121.916-55.313 121.915-121.916 116.271c-60.957 0-116.271-49.67-116.271-116.271z" style="fill:#000;fill-opacity:1;fill-rule:nonzero;stroke:none;"/>
</svg>
