<svg xmlns="http://www.w3.org/2000/svg" width="1000" height="1000">
  <path d="M500.496 995.003c275.935 0 494.507-224.506 494.507-495.496C995.003 226.54 773.464 5 500.496 5 223.572 5 5 229.506 5 499.507c0 276.924 224.506 495.496 495.496 495.496zM105.88 506.43c0-219.561 176.045-398.573 392.64-398.573 221.538 0 399.56 176.045 399.56 395.606 0 217.583-176.044 396.595-391.649 396.595-222.528 0-400.55-175.056-400.55-393.628zm205.715 108.792c0 36.593 22.748 58.352 58.352 57.363v-17.803c0-75.165 0-153.297-.989-229.45 0-18.792 8.901-33.627 25.715-40.55 16.813-6.924 30.66-1.979 43.516 9.89 34.616 31.648 68.242 63.297 102.858 93.956 16.813 16.813 16.813 40.55.989 56.374-15.824 16.813-42.528 16.813-59.341.989-15.824-16.813-16.813-40.55 0-57.363 3.956-3.956 10.88-7.912 17.802-12.857-17.802-16.813-31.648-27.693-44.505-40.55-23.737 16.813-36.594 32.638-41.54 49.45-13.845 46.485 8.902 101.87 52.419 123.628 45.494 22.747 96.923 9.89 127.583-34.616 24.725-33.626 25.714-88.022 0-112.747-39.561-40.55-81.1-79.122-123.627-115.715-29.67-26.703-65.275-29.67-100.88-14.835-35.604 15.824-54.396 44.505-58.352 82.088-.989 14.835 0 29.67 0 43.517-.989 52.417-.989 105.824 0 159.23zm208.682-243.298c12.858 11.868 27.693 23.737 40.55 35.605 6.923-4.945 11.868-12.857 18.791-16.813 8.901-3.957 18.792-8.902 28.682-9.89 23.736-.99 41.538 17.802 41.538 46.483 0 76.154 0 153.297-.989 228.462-.989 15.825 3.956 16.814 16.814 14.836 22.747-7.913 40.55-27.693 40.55-52.418.988-64.286.988-129.561.988-193.847 0-47.473-26.703-84.066-69.23-96.923-45.496-11.869-90.001 3.956-117.694 44.505z" style="fill:#000;fill-opacity:1;fill-rule:nonzero;stroke:none;"/>
</svg>
