<svg xmlns="http://www.w3.org/2000/svg" viewBox="0 0 1000 1000"><path d="M500.496 995.003c275.935 0 494.507-224.506 494.507-495.496C995.003 226.54 773.464 5 500.496 5 223.572 5 5 229.506 5 499.507c0 276.924 224.506 495.496 495.496 495.496zM206.76 789.288V199.836c0-1.978 1.978-1.978 1.978-4.945 14.835-3.956 79.121-3.956 106.813 0 3.957 21.758 1.979 42.527 1.979 66.264v139.45c28.68 0 55.384 1.979 81.099-2.966 25.714-1.978 44.505-18.792 64.286-35.605 40.55-37.582 78.132-75.165 119.67-111.758 19.78-16.814 37.583-33.627 57.363-50.44 6.923-4.945 12.857-6.923 18.791-6.923H798.19c1.979 0 3.957 0 8.902 1.978-40.55 42.527-86.045 81.099-126.594 119.67-42.528 40.55-87.033 81.1-129.561 119.671 85.055 119.67 173.077 238.353 258.133 357.034-8.901.99-13.847.99-14.836.99-36.593 0-73.187 0-107.802 3.955-9.89 0-16.813-4.945-22.747-13.846-10.88-14.835-21.759-27.692-29.67-42.527-13.847-19.78-35.605-23.737-53.408-36.594 3.956 45.495 3.956 89.011-14.835 130.55v-20.77c0-45.494-9.89-86.044-27.692-122.637-17.803-31.649-34.616-61.319-51.429-93.956-17.802-25.715-29.67-53.407-23.736-83.078 3.956-25.714 15.824-51.428 29.67-70.22 12.857-16.813 27.692-34.615 43.517-52.417 0-4.946-2.967-11.869-4.945-17.803-8.902-4.945-19.78-4.945-27.693 0-16.813 7.912-34.615 17.803-51.429 29.67-3.956 1.979-10.879 5.935-16.813 5.935-26.703 3.956-47.472 17.802-62.308 38.571-21.758 29.67-41.538 62.308-63.297 91.979-4.945 5.934-9.89 14.835-13.846 19.78-10.879 10.88-10.879 20.77-3.956 33.626 7.912-.989 17.802-6.923 27.693-10.879 11.868 17.803 1.978 31.649-3.957 47.473 20.77-1.978 27.693-19.78 35.605-36.594 4.945 12.858 6.923 20.77 8.901 31.649 4.945 41.539 5.934 79.121-10.879 117.693-12.857 32.637-38.572 50.44-74.176 50.44-21.758 3.955-42.528 3.955-64.286 3.955l-1.978-4.945zm222.528-320.44c.99-21.759 9.89-29.67 30.66-36.594 0 19.78-9.89 31.649-30.66 36.594z"/></svg>