<svg xmlns="http://www.w3.org/2000/svg" width="1000" height="1000">
  <path d="M595.346 994.997H459.61c-99.622-19.924-176.83-78.452-237.848-163.131-19.925-24.906-33.623-56.038-48.566-80.943 4.981 46.075 23.66 89.66 38.604 134.49C58.63 757.149 7.574 393.527 307.686 214.207c-9.962-8.717-14.943-13.698-24.905-18.68 29.886-9.961 58.528-27.395 88.414-36.112v-6.227c-29.886-18.679-63.509-33.622-94.64-47.32C241.685 90.924 211.8 71 188.138 44.848c0-6.225 3.736-9.961 8.717-14.942C256.63 71 321.384 105.868 396.101 124.546c-44.83-28.64-83.434-63.508-103.358-114.565L297.724 5c4.981 4.981 14.943 9.962 17.434 14.943C359.988 71 412.29 99.641 470.818 124.547c29.887 9.962 64.754 14.943 99.622 19.924 14.944 4.981 24.906 8.717 33.623 19.925 14.943 31.132 36.113 36.113 66 36.113h48.565c14.944-4.981 26.151 0 29.887 13.698-18.679 24.906-24.905 58.528-59.773 79.698 4.98-14.943 11.207-24.906 14.943-39.85-14.943 3.737-24.905 14.944-38.604 18.68 4.982-8.717 4.982-18.68 11.208-29.887-21.17 6.227-36.113 14.944-51.056 21.17v-29.887c-29.887-8.717-78.453 4.982-93.396 23.66-16.19 14.944-12.453 29.887 3.735 42.34 14.944 9.962 28.642 14.944 49.812 9.962 3.735-6.226 14.943-9.962 24.905-9.962 0 9.962 0 18.68-6.226 29.887 14.943 0 29.886 0 42.34-4.981-6.227 29.887-42.34 58.528-82.19 68.49 0-6.226 6.227-9.962 6.227-21.17 8.717-28.641 3.736-32.377-28.641-38.603-37.359 0-75.962 9.962-109.585 14.943-14.943 6.227-29.887 6.227-46.075 6.227v-6.227c19.924-8.717 46.075-14.943 69.735-23.66-28.641-9.962-69.735-9.962-89.66 4.981-39.849 24.906-63.509 63.51-89.66 103.358-34.868 64.755-44.83 134.49-24.905 209.207 19.924 88.415 78.452 154.415 165.622 194.264 99.622 46.075 198 43.585 286.414-14.944 80.943-61.018 129.51-133.244 134.49-239.093 0-34.868 0-69.736-14.943-99.623-4.981-9.962-8.717-19.924-19.924-23.66-43.585-26.15-69.736-61.019-84.68-104.603-3.735-21.17-18.679-36.114-42.339-44.83 42.34-9.963 77.207 14.943 114.566 29.886 0-6.226 3.736-6.226 3.736-6.226-3.736-8.717-3.736-18.68-9.963-33.623 18.68 9.962 33.623 18.68 44.83 33.623 18.68 23.66 33.623 53.547 33.623 84.679 0 11.207 4.981 14.943 4.981 21.17 41.094 77.207 49.811 158.15 37.358 242.83-6.226 29.886-22.415 59.773-31.132 83.433-59.773 119.547-155.66 185.547-285.169 199.245-18.679 0-38.603 4.98-57.282 9.962 27.396 0 63.509 4.981 98.377 9.962-11.208 4.981-26.151 9.962-34.868 9.962z" style="fill:#000;fill-opacity:1;fill-rule:nonzero;stroke:none;"/>
</svg>
