<svg xmlns="http://www.w3.org/2000/svg" width="1000" height="1000">
  <path d="M5 500.496c0 271.98 220.55 494.507 495.496 494.507 271.98 0 494.507-220.55 494.507-495.496C995.003 227.528 773.464 5 500.496 5 226.54 5 5 225.55 5 500.496zm167.143 19.78v-59.34c1.978-16.814 12.858-25.715 26.704-33.627 24.725-14.835 53.407-21.758 81.099-26.703 43.517-7.912 85.055-8.901 126.594-4.945 36.593 2.967 73.187 8.9 106.813 23.736 10.88 5.934 20.77 11.868 29.67 19.78 7.913 5.934 11.869 14.835 11.869 24.726-1.978 16.813-1.978 31.648 0 48.461 0 7.912-2.967 14.836-9.89 16.814-13.846 7.912-26.704 14.835-41.539 19.78-33.626 11.868-65.275 15.824-99.89 17.802-47.473 2.967-94.946 1.978-140.44-6.923-22.748-3.956-44.506-10.88-66.264-20.77-9.89-3.955-18.791-9.89-24.726-18.79zm34.616 241.32v-51.429c0-14.835 7.912-21.758 18.791-29.67 4.945 22.747 22.748 32.637 40.55 43.516 27.692 12.858 58.352 19.78 90 24.726 42.528 6.923 85.055 7.912 127.583 4.945 32.637-1.978 66.264-6.923 97.912-16.813h5.934c5.935 14.835.99 35.604-12.857 43.516-44.505 28.682-138.462 37.583-211.649 34.616-14.835-.99-29.67-2.967-43.516-4.945-29.67-2.967-57.363-9.89-83.078-21.759-8.9-2.967-16.813-7.912-24.725-14.835-1.978-2.967-4.945-7.912-4.945-11.868zm14.835-156.264c.99-8.901 0-18.792 0-27.693 14.835 2.967 27.693 5.934 41.539 8.901 39.56 5.934 79.12 8.902 119.67 6.923 38.572-.989 77.144-4.945 115.715-14.835 19.78-5.934 39.56-12.857 57.363-24.725 10.88-7.912 21.758-16.813 25.714-31.649 11.869 4.946 21.759 17.803 21.759 31.649.989 16.813 0 34.615.989 51.429 0 6.923-2.967 11.868-5.934 13.846-9.89 4.945-16.814 11.868-26.704 15.824-28.681 11.868-58.352 18.791-88.022 21.758-29.67 1.978-58.352 3.956-89.011 3.956-46.484-1.978-90.99-6.923-134.506-23.736-10.88-2.967-21.759-11.868-31.649-17.802-4.945-1.978-6.923-6.923-6.923-13.846zm31.649 58.351c11.868 2.968 22.747 6.924 33.626 8.902 51.429 12.857 102.858 15.824 156.264 12.857 37.583-1.978 75.165-6.923 111.759-16.813 13.846-4.946 27.692-10.88 41.539-17.803 6.923-1.978 12.857-6.923 18.79-11.868 7.913-7.912 14.836-15.824 14.836-28.681h1.978c0 3.956.99 7.912.99 11.868 1.977 17.802 1.977 35.604 0 54.396 0 3.956-2.968 10.879-6.924 12.857-10.88 5.934-21.758 12.857-33.627 17.802-31.648 11.868-63.296 17.802-95.934 18.791-29.67.99-60.33 2.967-90 .99-40.55-.99-80.11-6.924-117.693-21.759-8.901-4.945-18.791-9.89-26.703-14.835-9.89-6.923-11.868-13.846-8.901-26.704zm175.055-299.67v-34.616c2.967 0 2.967 0 3.956.989 32.638 18.791 66.264 25.714 100.88 30.66 41.538 4.944 82.088 7.911 124.615 4.944 40.55-1.978 81.1-8.9 120.66-21.758 8.901-4.945 17.802-8.901 26.704-11.868.989-1.978 3.956-2.967 4.945-2.967v47.472c-4.945 8.901-13.847 13.847-23.737 18.792-25.714 12.857-52.417 18.79-80.11 22.747-43.516 6.923-87.033 6.923-129.56 4.945-7.913 0-14.836-2.967-20.77-7.912-20.77-18.791-46.484-27.692-72.198-33.627-15.824-3.956-32.638-5.934-47.473-8.9-4.945-1.979-7.912-1.979-7.912-8.902zm0-79.122v-45.495c-.989-13.846 6.923-25.714 17.802-33.626 20.77-16.813 45.495-23.736 72.198-28.682 64.286-11.868 123.627-15.824 197.803-.989 23.737 2.967 48.462 10.88 70.22 23.737 11.868 7.912 21.759 15.824 23.737 31.648v61.32c-6.923 8.9-15.825 13.845-23.737 18.79-25.714 12.858-53.406 18.792-82.088 22.748-41.538 6.923-83.077 7.912-124.616 4.945-37.582-1.978-76.154-6.923-111.758-21.759-10.88-2.967-21.759-9.89-29.67-15.824-6.924-3.956-9.89-8.9-9.89-16.813zm151.32 199.78v-34.615h13.846c56.373 1.978 112.747-.989 168.132-17.802 14.835-2.967 29.67-11.868 43.517-17.802.989 0 3.956-.99 4.945-.99v47.474c-6.923 5.934-13.847 12.857-22.748 17.802-24.725 13.846-51.428 19.78-79.12 23.736-30.66 2.967-62.309 4.945-92.968 5.934-3.956 0-8.901-2.967-11.868-2.967-6.923-4.945-11.869-7.912-18.792-11.868-2.967-2.967-4.945-3.956-4.945-8.901zm34.615 273.958c.989-7.912.989-18.791 0-26.704 0-4.945 1.978-6.923 4.945-7.912 10.879-6.923 18.791-13.846 28.681-18.79 1.978-1.979 4.945-1.979 4.945-1.979 31.649-4.945 62.308-7.912 91.979-13.846 20.769-3.956 41.538-10.88 60.33-21.758.989-.99 3.956-.99 4.945-.99v33.627c-1.978 15.824-11.869 24.725-25.715 31.648-18.791 13.847-41.538 19.78-64.286 24.726-31.648 6.923-65.275 8.901-96.923 9.89-6.923 0-8.901-.989-8.901-7.912zm13.846-223.517c9.89 0 21.758-.99 31.648-.99 41.54-3.955 85.056-8.9 123.627-23.736 8.901-4.945 17.803-9.89 26.704-12.857v46.484c-4.945 9.89-13.847 14.835-22.748 19.78-24.725 11.868-52.417 18.791-79.12 22.747-16.814 1.978-33.627 3.956-51.43 4.945-3.956 0-5.934-.989-8.9-2.967-4.946-4.945-9.89-9.89-14.836-15.824-.989-1.978-2.967-3.956-2.967-6.923 0-9.89-1.978-19.78-1.978-30.66zm31.648 133.517v-44.506c0-4.945 1.979-5.934 6.924-5.934 31.648-2.967 64.286-7.912 94.945-15.824 14.835-5.934 29.67-13.847 43.517-18.792.989-.989 3.956-.989 4.945-.989v47.473c-9.89 11.868-23.737 19.78-38.572 24.725-29.67 10.88-60.33 16.814-91.978 18.792-2.967 0-7.912 1.978-12.857 1.978-4.945.989-6.924-1.978-6.924-6.923z" style="fill:#000;fill-opacity:1;fill-rule:nonzero;stroke:none;"/>
</svg>
