<?xml version="1.0" encoding="utf-8"?>
<!-- Generator: Adobe Illustrator 26.0.1, SVG Export Plug-In . SVG Version: 6.00 Build 0)  -->
<svg version="1.1" id="Layer_1" xmlns="http://www.w3.org/2000/svg" xmlns:xlink="http://www.w3.org/1999/xlink" x="0px" y="0px"
	 viewBox="0 0 1000 1000" style="enable-background:new 0 0 1000 1000;" xml:space="preserve">
<path d="M500.3,5C226.9,5,5.3,226.6,5.3,500s221.6,495,495,495s495-221.6,495-495S773.7,5,500.3,5z M650.7,142.6l146.1,144.7H682.9
	c-17.9-43-50.3-102.3-96.7-144.7H650.7z M784,588.8v38.9H638V370.4h43.4v218.4H784z M515.4,142.6h32.2
	c22.4,15.8,75.5,66.8,108.2,144.7H515.4V142.6z M454.5,142.6h32.9v144.7H348.5C358.3,257.4,393.2,186.7,454.5,142.6z M263.3,463.2
	c1.1,10.3,1.8,20.5,2.3,30.8c0.5,10.3,0.7,20.5,0.7,30.8v102.9h-43.1V370.4h49l69,195.3c-1.2-10.3-2.3-20.5-3.3-30.8
	c-1-10.3-1.8-20.5-2.3-30.8c-0.5-10.3-0.7-20.5-0.7-30.8V370.4h43.1v257.3h-49l-69-195.3C261.1,442.6,262.2,452.9,263.3,463.2z
	 M348.4,142.6h68.8c-18.6,10.8-80.2,87.4-96,144.7H203.8L348.4,142.6z M349.9,857.4L203.8,712.7h113.9
	c17.9,43,50.3,102.3,96.7,144.7H349.9z M485.3,857.4h-32.2c-22.5-15.8-75.5-66.8-108.2-144.7h140.4V857.4z M458.8,630.5l-6-38.5
	c12.1-1.9,23.7-5.9,34.7-12.1c11-6.2,20.5-14.1,28.5-23.8c8.1-9.7,14.1-20.4,18-32c-8.6,6.8-19.8,10.2-33.6,10.2
	c-8.6,0-17.2-1.1-25.6-3.3c-8.4-2.2-16.2-6-23.3-11.2c-7.1-5.2-13-11.6-17.5-19.1c-4.6-7.5-7.7-15.5-9.5-24
	c-1.8-8.5-2.6-17.1-2.6-25.7c0-8.9,0.9-17.6,2.6-26.3c1.8-8.6,5-16.7,9.8-24.2c4.8-7.5,10.8-13.8,18-19.1
	c7.2-5.3,15.1-8.9,23.6-10.9c8.5-2,17.2-3,26.1-3c9.3,0,18.6,1.3,27.8,4c9.2,2.7,17.4,7.2,24.5,13.7c7.1,6.4,12.8,13.9,17,22.4
	c4.2,8.5,7.1,17.4,8.6,26.8c1.5,9.3,2.3,18.7,2.3,28c0,19.1-2,38.2-6,57.2c-4,19-11.4,36.5-22.4,52.3c-11,15.9-24.9,28.9-41.7,39.2
	C495.6,621.5,477.7,627.9,458.8,630.5z M546.1,857.4h-32.9V712.7h138.9C642.3,742.6,607.4,813.3,546.1,857.4z M652.2,857.4h-68.8
	c18.6-10.8,80.2-87.4,96-144.7h117.5L652.2,857.4z M539.3,450.9c0,5.6-0.6,11.1-1.9,16.5c-1.3,5.4-3.6,10.3-6.8,14.9
	c-3.3,4.6-7.5,7.9-12.8,10c-5.2,2.1-10.6,3.2-15.9,3.2c-5.6,0-10.9-1.1-15.9-3.3c-5-2.2-9.2-5.6-12.4-10.2
	c-3.3-4.6-5.5-9.5-6.7-14.9c-1.2-5.4-1.8-10.7-1.8-16.1c0-5.4,0.6-10.8,1.9-16.3c1.3-5.5,3.6-10.4,6.8-14.9c3.3-4.4,7.5-7.8,12.6-10
	c5.1-2.2,10.4-3.3,15.8-3.3c1.4,0,2.7,0.1,3.9,0.3l7.7,1.4l6,2.5l3.2,1.4l6.7,6.3C536,426.1,539.3,436.9,539.3,450.9z"/>
</svg>
