<svg xmlns="http://www.w3.org/2000/svg" viewBox="0 0 1000 1000"><path d="M162.127 335.677C226.703 271.1 394.352 104.693 470.105 28.94c24.837-21.111 62.092-27.32 93.138 2.484l84.446 83.204L293.762 466.07c-42.222-42.223-86.929-85.688-131.635-130.394zM19.314 473.522c23.595-24.837 83.204-85.688 99.348-99.348 44.706 45.948 88.171 88.171 132.878 131.636L118.662 637.446c0-1.242 0-1.242-1.242-1.242l-81.962-81.962c-23.595-23.595-45.948-40.981-16.144-80.72zM175.787 694.57l352.685-351.443c44.706 43.464 88.17 85.687 132.877 130.394L308.665 826.206c-44.707-44.706-88.172-86.929-132.878-131.635zm186.277 188.76c44.707-44.706 88.171-88.17 131.636-132.877L625.336 883.33c-2.484 0-2.484 0-2.484 2.484-26.079 26.079-53.4 52.158-81.962 80.72-24.837 24.837-57.125 33.53-95.622 2.484-27.32-31.046-54.641-57.125-81.962-85.688zm176.342-175.1 352.685-353.927 81.962 84.446c26.079 26.079 32.288 60.85 0 98.106-40.981 47.19-88.171 88.171-132.878 132.878L672.525 836.14c-2.483 2.484-1.241 2.484-1.241 4.968zm32.288-408.568L702.33 169.27l129.152 130.394c-43.464 47.19-88.17 88.171-129.152 131.636-43.464-43.465-88.17-84.446-131.636-131.636z"/></svg>