<svg xmlns="http://www.w3.org/2000/svg" viewBox="0 0 1000 1000"><path d="M475,0H125C69.772,0,25,44.772,25,100V900c0,55.225,19.775,100,75,100H475c276.15,0,500-223.85,500-500S751.15,0,475,0Zm212.125,712.125c-117.161,117.153-307.111,117.147-424.264-.014s-117.147-307.111,.014-424.264c117.161-117.153,307.111-117.147,424.264,.014,56.26,56.264,87.865,132.573,87.861,212.139,.221,79.608-31.423,155.994-87.875,212.125Zm-114.896-309.346c53.696,53.698,53.694,140.759-.004,194.454-53.698,53.696-140.759,53.694-194.454-.004-53.696-53.698-53.694-140.758,.004-194.454l79.55-79.55c9.762-9.76,25.588-9.76,35.35,0l79.55,79.55h0l.004,.004Z"/></svg>