<svg xmlns="http://www.w3.org/2000/svg" width="1000" height="1000">
  <path d="M749.48 72.32c74.547 43.56 133.947 102.663 178.2 177.21C972.527 326.75 995 410.207 995 500s-22.473 172.953-67.32 249.48c-44.253 74.547-103.653 133.947-178.2 178.2C672.953 972.527 589.793 995 500 995c-89.793 0-173.25-22.473-250.47-67.32-74.547-44.253-133.65-103.653-177.21-178.2C27.473 672.953 5 589.793 5 500c0-89.793 22.473-173.25 67.32-250.47 43.56-74.547 102.663-133.65 177.21-177.21C326.75 27.473 410.207 5 500 5s172.953 22.473 249.48 67.32zM193.595 504.95c.297 20.493 5.742 39.402 16.335 56.925 10.593 17.523 25.047 31.383 43.56 41.58s38.313 15.147 59.4 14.85c21.087-.297 40.788-5.643 58.905-15.84 18.117-10.197 32.472-24.255 43.065-42.075l.99-.99c6.633-11.187 16.335-18.513 29.205-21.78 12.87-3.267 25.245-1.782 37.125 4.455 11.88 6.237 19.602 15.84 23.265 28.71 3.663 12.87 2.178 24.948-4.455 36.135-10.593 18.513-15.642 37.917-15.345 58.41.297 20.493 5.742 39.402 16.335 56.925 10.593 17.523 25.047 31.383 43.56 41.58s38.313 15.147 59.4 14.85c21.087-.297 40.788-5.643 58.905-15.84 18.117-10.197 32.472-24.255 43.065-42.075 10.593-18.513 15.642-37.917 15.345-58.41-.297-20.493-5.742-39.402-16.335-56.925-10.593-17.523-25.047-31.383-43.56-41.58s-38.313-15.345-59.4-15.345c-13.86.693-25.542-3.762-35.145-13.365-9.603-9.603-14.553-20.988-14.85-34.155-.297-13.167 4.257-24.552 13.86-34.155 9.603-9.603 20.988-14.355 34.155-14.355 21.087 0 40.887-5.445 59.4-16.335 18.513-10.89 32.868-25.245 43.065-43.065 10.197-17.82 15.345-36.927 15.345-57.42 0-20.493-5.445-39.6-16.335-57.42s-25.542-31.68-44.055-41.58c-18.513-9.9-38.313-14.85-59.4-14.85-21.087 0-40.887 5.445-59.4 16.335-18.513 10.89-32.868 25.245-43.065 43.065-10.197 17.82-15.147 36.927-14.85 57.42.297 20.493 5.742 39.6 16.335 57.42 7.227 11.187 9.207 23.265 5.94 36.135-3.267 12.87-10.692 22.572-22.275 29.205-11.583 6.633-23.958 8.415-37.125 5.445-13.167-2.97-23.463-10.098-30.69-21.285-10.593-17.82-25.245-31.878-44.055-42.075-18.81-10.197-38.61-15.147-59.4-14.85-20.79.297-40.293 5.643-58.41 15.84-18.117 10.197-32.472 24.453-43.065 42.57-10.593 18.117-15.642 37.422-15.345 57.915z" style="fill:#000;fill-opacity:1;fill-rule:nonzero;stroke:n"/>
</svg>
