<svg xmlns="http://www.w3.org/2000/svg" width="1000" height="1000">
  <path d="M495.537 994.997c-269.182 0-488.61-225.806-488.61-498.815 0-270.457 225.807-493.712 497.54-491.16 273.008 0 488.609 228.357 488.609 500.09-2.552 273.009-225.807 489.885-497.54 489.885zM49.027 567.623c16.585 123.747 77.82 221.98 177.328 301.075 19.136 11.482 22.964 11.482 35.72-10.206-33.168-31.893-67.613-57.408-90.577-89.301C27.34 590.587 49.028 339.266 216.15 187.453 360.308 53.5 586.114 40.743 746.858 155.559c20.411 15.309 24.239 15.309 43.375-8.93-8.93-3.827-12.758-6.379-19.136-12.757-86.75-65.063-184.983-93.13-292.145-90.578-122.471 6.379-225.806 53.581-312.557 144.159C68.163 294.615 27.34 422.189 49.027 567.623zm145.435-29.342c93.129 86.75 183.706 177.328 269.181 267.906 25.515 20.412 44.651 20.412 70.166 0 82.923-82.923 164.57-169.674 251.32-251.32 16.585-16.586 24.24-38.273 12.758-61.237-7.654-25.514-30.618-29.342-54.857-29.342H542.74c-17.86 0-25.515-3.827-21.688-22.963v-35.72c-31.893 38.272-65.062 67.614-90.577 90.577l90.577 90.578v-24.24c-3.827-20.411 3.828-24.239 25.515-24.239h137.78c-6.378 8.93-6.378 16.585-11.481 19.137-52.306 51.03-105.887 103.335-155.64 158.191-12.758 11.482-21.688 7.655-31.894 0-67.615-66.338-133.953-132.677-197.74-199.015-14.033-11.482-14.033-20.412 0-33.17 63.787-65.062 130.125-126.298 197.74-191.36 10.206-16.585 19.136-16.585 31.893 0 36.997 35.72 77.82 77.82 116.093 113.54 7.654 3.828 20.411 7.655 22.963 3.828 16.585-11.482 28.066-22.964 47.202-39.548-8.93-7.655-14.033-12.758-19.136-21.688-47.202-48.478-98.232-98.232-146.71-146.71-29.342-30.618-48.478-30.618-73.993 0-33.17 28.066-61.236 59.96-89.302 90.577-62.511 59.96-121.195 117.369-179.88 176.053-22.963 25.514-22.963 44.65 0 70.165zm82.923 362.31c3.827 3.828 14.033 6.38 17.86 6.38 90.578 48.478 190.086 62.51 287.042 42.099 243.666-44.65 404.41-271.733 372.516-514.124-12.757-95.68-58.684-181.155-125.022-252.596-3.828-6.379-12.758-11.482-20.412-2.552-7.655 7.655-16.585 17.86-3.827 25.515 3.827 3.827 7.654 12.757 11.481 15.309 89.302 107.162 128.85 227.082 99.508 362.31-52.305 275.56-347.001 419.72-597.047 301.075-24.239-8.93-28.066-8.93-42.1 16.585z" style="fill:#000;fill-opacity:1;fill-rule:nonzero;stroke:none;"/>
</svg>
