<svg xmlns="http://www.w3.org/2000/svg" viewBox="0 0 1000 1000"><path d="M995 586.994c-35.756 30.169-71.512 55.869-109.503 79.334-5.587 5.587-15.643 5.587-20.113 12.29-5.587-12.29-11.174-17.877-11.174-26.816V345.639c-8.939 6.704-17.878 11.174-22.347 15.643-74.865 53.635-154.2 107.269-227.946 158.669-14.526 13.408-24.583 23.465-24.583 43.578 6.705 97.212 0 192.19 6.705 290.519 0 18.995-12.292 34.639-32.405 49.165-63.69 43.577-43.577 43.577-108.386 0-14.526-14.526-22.347-30.17-22.347-49.165v-290.52c0-15.643-5.587-30.169-22.348-40.225-78.217-54.752-151.964-108.386-232.415-162.02-3.352-4.47-8.94-8.94-17.878-15.644-5.587 15.643-5.587 24.582-5.587 34.639v271.524c0 4.47-4.47 14.526-4.47 26.817-10.056-6.704-21.23-6.704-25.7-12.291C80.982 642.863 45.226 617.163 5 586.994V70.764c22.348-15.644 31.287 0 40.226 8.938 145.26 98.33 286.05 203.364 431.31 306.163 17.877 14.526 33.52 14.526 53.633 0 23.465-20.113 55.87-40.226 82.687-59.221C726.829 242.84 845.27 160.154 959.244 79.702c8.94-8.939 17.878-20.113 35.756-8.939z"/></svg>