<svg xmlns="http://www.w3.org/2000/svg" viewBox="0 0 1000 1000"><path d="M967.222 377.705c22.709 49.203-6.309 64.342-34.064 78.22L679.575 579.562c-18.925 7.57-41.634 22.71-83.267 42.895 41.634 15.14 69.389 21.447 92.098 27.755 90.836 22.71 145.085 36.587 224.566 58.034 20.186 6.308 59.296 11.355 60.558 26.494 0 11.355-1.262 21.448-6.308 27.756-6.309 8.83-47.942 0-70.65-6.308-104.714-27.756-216.997-47.942-320.45-75.697-41.632-16.4-85.789-7.57-128.683 12.616C336.417 749.88 210.256 805.39 97.973 862.163c-21.448 8.831-47.941 20.186-69.389 26.494-26.494-47.942 0-68.127 34.064-83.267 105.975-49.202 211.95-97.144 316.664-155.178 174.102-82.004 343.157-166.532 517.26-252.321 22.708-11.355 58.033-34.064 70.65-20.186zm-944.946-93.36v-40.37c1.262-13.878 47.941-7.57 69.389 0 105.975 29.016 218.258 50.464 321.71 76.957 50.464 15.14 92.098 8.832 140.039-13.877 112.283-54.25 225.828-112.284 338.111-166.533 21.447-8.831 47.941-21.447 75.697-32.802 22.709 54.25 11.354 64.343-41.634 87.051C694.714 314.624 457.531 426.908 224.134 537.93c-61.82 36.587-132.47 64.342-195.55 99.667-26.494-58.034 0-76.958 34.064-92.097 83.266-41.633 170.317-83.266 253.583-126.161 20.186-13.878 41.633-21.447 70.65-41.633-127.422-36.587-240.967-59.296-364.605-93.36zm6.308-152.654c0-12.616 2.523-16.4 13.878-13.878C182.5 153.138 328.847 182.155 470.147 225.05c20.186 6.308 20.186 18.924 20.186 47.941-161.486-29.017-299.001-61.819-440.301-105.975-23.971-6.308-22.71-15.14-21.448-35.325zm0-103.452C33.631 9.315 36.154 3.007 42.462 5.53c148.87 29.017 286.385 64.342 435.255 107.237 23.97 5.046 20.186 15.14 20.186 47.941C336.417 131.691 197.64 90.058 56.34 54.733c-18.924-5.047-30.279-6.308-27.756-26.494zm1.262 721.64c-26.494-51.725 5.046-66.865 34.063-82.004 82.005-35.325 680.008-328.018 827.616-394.884 27.755-13.877 74.435-30.278 84.528-10.093 22.709 44.157-22.71 51.726-50.465 66.866C771.672 405.46 617.756 483.68 463.84 554.33c-127.423 61.82-252.322 124.9-377.22 180.41-31.541 15.14-51.727 23.97-56.773 15.14zm460.487 87.052c-6.308-10.093 494.551 112.283 483.197 128.684-15.14 21.447-29.017 34.063-47.942 27.755-124.899-27.755-253.583-63.08-377.22-89.574-58.035-13.878-58.035-44.156-58.035-66.865zm21.448-108.499c141.3 27.756 288.908 63.08 427.685 98.406 34.064 6.308 41.633 18.924 21.447 41.633-8.83 13.878-22.708 12.616-47.94 6.308-121.115-27.756-240.968-54.25-359.56-83.266-18.923-6.308-55.51-15.14-41.632-63.08z"/></svg>