<svg xmlns="http://www.w3.org/2000/svg" width="1000" height="1000">
  <path d="M749.728 72.253c75.165 44.209 134.506 103.55 178.022 178.023 44.803 77.143 67.253 160.418 67.253 249.726 0 89.308-22.45 172.583-67.253 249.726C884.234 824.2 824.893 883.54 749.728 927.75c-76.451 44.803-159.528 67.253-249.232 67.253-89.703 0-173.077-22.45-250.22-67.253-74.473-44.209-133.517-103.55-177.034-178.022C27.747 672.585 5 589.31 5 500.002c0-89.308 22.747-172.583 68.242-249.726 43.517-74.473 102.56-133.814 177.034-178.023C327.419 27.45 410.793 5 500.496 5 590.2 5 673.277 27.45 749.728 72.253zM223.572 499.507c0 53.407 14.638 102.066 44.011 145.88 29.374 43.813 67.748 75.956 115.22 96.429l41.54-35.605-121.65-253.188-78.132 24.726c-.692 9.89-.989 17.11-.989 21.758zm1.978-32.637 73.187-22.748-37.582-79.12c-19.088 31.648-30.956 65.57-35.605 101.868zm41.539-112.748 41.538 86.044 217.584-68.242-14.836-135.495c-9.89-.692-17.802-.989-23.736-.989-45.495 0-87.528 10.682-126.1 32.143-38.57 21.462-70.022 50.242-94.45 86.539zm46.483 95.934L432.254 698.3l117.693-103.846-23.736-212.639zm80.11 296.705c17.803 6.626 36.89 11.176 57.363 13.846L429.287 716.1zm43.517-38.572 25.715 54.396c8.604.692 16.813.989 24.725.989 27 0 53.407-3.956 79.121-11.868L551.925 607.31zm84.066-470.77 38.572 348.132 181.979-160.22-5.934-15.824c-8.605 4.648-17.11 7.912-25.715 9.89 2.67 4.648 4.45 8.407 5.44 11.374.989 2.967-.198 5.44-3.462 7.417l-16.813 12.857c-1.286.693-2.967.99-4.945.99h-.99c-2.67-.693-4.252-1.979-4.944-3.957-19.78-32.934-41.242-61.12-64.286-84.56-23.044-23.44-50.143-44.308-81.1-62.803-3.263-1.978-4.252-4.945-2.966-8.9l6.923-17.803c0-1.286 1.187-2.67 3.461-3.956 2.275-1.286 4.45-1.484 6.429-.495l12.857 6.429.99.989c3.263-8.605 7.615-16.813 12.856-24.725-18.494-7.22-37.879-12.165-58.352-14.836zm39.561 360.99 15.824 149.34c34.32-11.867 64.583-30.164 90.99-54.89 26.406-24.725 46.978-53.703 61.813-87.033s22.253-68.736 22.253-106.319c0-20.472-2.67-41.538-7.912-63.297zm17.802-288.793c19.78 13.154 37.583 27.693 53.407 43.517 14.539 14.539 28.978 32.34 43.517 53.407h2.967c27 0 50.242-9.198 69.725-27.693 19.484-18.494 29.176-40.55 29.176-66.264s-9.692-47.769-29.176-66.264c-19.483-18.494-42.725-27.692-69.725-27.692-27 0-50.242 8.703-69.726 26.209-19.483 17.505-29.472 39.066-30.165 64.78z" style="fill:#000;fill-opacity:1;fill-rule:nonzero;stroke:none;"/>
</svg>
