<svg xmlns="http://www.w3.org/2000/svg" viewBox="0 0 1000 1000"><path d="M934.164 298.543v397.595c0 38.563-11.968 61.169-43.882 83.775C766.615 846.4 642.948 919.537 525.93 986.024c-17.287 11.968-33.244 11.968-50.53 0C353.062 919.537 234.715 846.4 111.048 779.913c-33.244-22.606-45.212-45.212-45.212-83.775V309.181c0-45.212 17.287-71.807 57.18-95.742L475.4 13.976c17.286-11.968 33.243-11.968 50.53 0 123.667 65.158 239.355 140.953 364.352 206.111 31.914 17.287 43.882 43.882 43.882 78.456zm-800.51 374.99c33.243-22.606 62.498-38.563 94.412-55.85-31.914-23.935-61.169-39.892-94.413-55.85zm0-224.728c-5.32 23.935 5.318 34.573 21.275 43.881 42.552 22.606 85.105 45.212 124.997 69.148 15.957 11.967 26.595 11.967 43.882 0 66.487-39.893 138.294-79.786 212.76-123.667 27.925-17.287 57.18-33.244 89.094-55.85-5.32-6.649-5.32-6.649-11.968-6.649C515.292 314.5 414.23 257.32 313.17 202.801c-6.649-6.65-23.936-6.65-27.925 0-45.211 22.605-89.093 45.211-135.635 71.806-10.638 6.649-15.957 23.936-15.957 34.574-5.319 49.2 0 95.742 0 139.624zm33.243 280.577c43.882 27.925 85.104 50.53 122.337 73.137h17.287c39.893-22.606 78.455-45.212 124.997-73.137-46.542-22.606-85.104-45.211-124.997-67.817-5.319-6.649-10.638-6.649-17.287 0-37.233 22.606-78.455 45.211-122.337 67.817zM363.7 152.27c10.638 6.649 14.628 6.649 14.628 6.649 109.04 61.168 210.1 115.688 308.502 178.186 6.649 0 18.617 5.32 23.936 0 39.892-22.605 77.125-43.881 118.348-67.817l-11.968-11.968C716.085 196.152 613.694 140.302 515.292 85.782c-6.649-6.648-18.616-6.648-22.606-6.648-41.222 22.605-78.455 45.211-128.986 73.136zm5.32 694.13c45.211 27.925 82.444 50.531 123.666 73.137h15.957c39.893-22.606 79.785-45.212 123.667-73.137-43.882-29.254-83.774-49.2-123.667-73.136-5.319 0-11.967 0-15.957 6.649-41.222 17.287-78.455 37.233-123.667 66.487zm0-228.717c38.562 22.606 77.125 37.233 111.699 61.169 11.967 11.967 27.924 11.967 39.892 0 93.083-55.85 190.155-111.7 284.567-162.23 6.649-6.649 11.968-11.968 23.936-17.287-41.223-22.606-73.137-43.882-107.71-61.168-15.957-11.968-27.925-11.968-43.882 0-69.147 38.562-135.635 78.455-202.122 118.348-33.244 17.286-67.818 31.914-106.38 61.168zm200.792 111.7c38.563 22.605 73.136 43.881 113.029 67.817 10.638 11.967 27.925 5.319 38.563 0 29.254-17.287 55.85-39.893 90.423-51.86 43.882-21.277 66.487-49.202 55.85-105.051v-83.774c-101.062 61.168-196.804 117.018-297.865 172.867zm202.122-347.066c33.244 22.606 62.499 37.233 95.742 55.85v-111.7c-33.243 21.276-62.498 38.563-95.742 55.85z"/></svg>