<?xml version="1.0" encoding="utf-8"?>
<!-- Generator: Adobe Illustrator 26.0.1, SVG Export Plug-In . SVG Version: 6.00 Build 0)  -->
<svg version="1.1" xmlns="http://www.w3.org/2000/svg" xmlns:xlink="http://www.w3.org/1999/xlink" x="0px" y="0px"
	 viewBox="0 0 1000 1000" style="enable-background:new 0 0 1000 1000;" xml:space="preserve">
<g id="Layer_1">
</g>
<g id="Layer_3">
</g>
<g id="Layer_2">
	<path d="M500,0C223.9,0,0,223.9,0,500s223.9,500,500,500s500-223.9,500-500S776.1,0,500,0z M421.9,664.1c0,46,0,78.8,0,101.6
		c0,22.1,0,33.1-6.9,40c-6.9,6.9-17.9,6.9-40,6.9c-16.9,0-36.4,0-54.7,0c-1.3,0-2.5,0-3.8,0c-36.3,0-54.5,0-67.9-12.3
		c-13.4-12.3-14.9-29.3-17.9-63.4c-2.3-26.7-4.2-59.3-4.2-96.2c0-49.2,3.3-91,6.6-121.1c2.6-23,3.9-34.5,13.9-42.6
		c10.1-8.1,21.5-6.8,44.5-4.4c10.4,1.1,22.4,2.6,36.2,4.4c12.1,1.6,23.1,4.2,33,7.2c20.2,6.1,30.3,9.2,45.6,29.9
		c15.4,20.7,15.4,37.4,15.4,70.7C421.9,605.3,421.9,631.3,421.9,664.1z M761.5,736.8c-3,34-4.5,51.1-17.9,63.4
		c-13.4,12.3-31.6,12.3-67.9,12.3c-1.2,0-2.5,0-3.8,0c-18.3,0-37.8,0-54.7,0c-22.1,0-33.1,0-40-6.9c-6.9-6.9-6.9-17.9-6.9-40
		c0-22.8,0-55.6,0-101.6c0-32.8,0-58.8,0-79.3c0-33.3,0-50,15.4-70.7c15.4-20.7,25.5-23.8,45.6-29.9c9.9-3,20.9-5.5,33-7.2
		c13.8-1.9,25.8-3.3,36.2-4.4c23-2.5,34.5-3.7,44.5,4.4c10.1,8.1,11.4,19.6,13.9,42.6c3.4,30.1,6.6,71.9,6.6,121.1
		C765.6,677.4,763.8,710.1,761.5,736.8z M755.2,332.4c-1.3,1.6-2.9,3.3-4.4,4.8c-12.1,11.3-29.3,12.6-63.8,15.2
		c-47.6,3.6-113.3,7.1-187,7.1s-139.4-3.5-187-7.1c-34.5-2.6-51.7-3.9-63.8-15.2c-1.5-1.4-3.1-3.1-4.4-4.8
		c-10.4-12.9-10.4-30.7-10.4-66.4c0-36,0-54,10.4-66.9c1.3-1.6,2.9-3.3,4.4-4.8c12.1-11.3,29.6-12.6,64.5-15.2
		c48.8-3.6,115.5-7.3,186.3-7.3s137.5,3.6,186.3,7.3c34.9,2.6,52.4,3.9,64.5,15.2c1.5,1.4,3.1,3.1,4.4,4.8
		c10.4,12.9,10.4,30.9,10.4,66.9C765.6,301.6,765.6,319.5,755.2,332.4z"/>
</g>
</svg>
