<svg xmlns="http://www.w3.org/2000/svg" viewBox="0 0 1000 1000"><path d="M500.496 5C223.572 5 5 229.506 5 500.002c0 276.43 224.506 495.001 495.002 495.001 276.43 0 495.001-224.506 495.001-495.001C995.003 226.539 773.464 5 500.496 5zM158.297 665.662v-332.31c0-18.79 8.901-47.472 28.682-58.351 92.967-50.44 190.88-101.869 283.847-163.187 30.66-17.803 49.45-7.913 68.242 0C633.024 173.132 726.98 230.495 822.915 275c26.703 19.78 36.593 39.56 36.593 58.352v332.309c0 26.703-9.89 44.505-36.593 54.395-95.935 59.341-189.89 113.737-283.847 173.078-18.792 9.89-48.462 9.89-57.363 0-94.945-59.341-201.759-113.737-294.726-173.078-19.78-9.89-28.682-27.692-28.682-54.395zm112.748-96.924c29.67 48.462 58.352 96.924 88.022 141.43 8.901 20.768 27.693 39.56 47.473 29.67 26.703-8.902 46.483-39.561 75.165-57.363-10.88-16.813-19.78-25.715-28.682-35.605-30.659-29.67-46.483-58.352-39.56-106.813 0-8.901-16.813-26.704-26.703-36.594-48.462-38.571-48.462-38.571-96.924 0-24.725 19.78-34.615 36.594-18.791 65.275zm76.154-171.1h324.397c-8.901-25.714-19.78-44.505-19.78-64.285 0-48.462-28.682-48.462-67.254-48.462H470.826c-102.858 0-102.858 0-123.627 112.748zm86.044 48.462c10.88 30.66 19.78 48.462 19.78 77.143 0 76.155 0 76.155 76.155 76.155 9.89 0 19.78-10.88 27.692-10.88 7.912-48.461 17.802-93.956 17.802-142.418zm131.54 200.77c-35.605 26.704-25.715 45.495 9.89 73.187 29.67 29.67 58.351 29.67 77.142-9.89 39.56-53.407 75.165-110.77 113.737-179.011-19.78-17.803-38.572-27.693-48.462-36.594-18.791-8.901-35.604-17.802-54.395-8.901-29.67 8.901-69.231 27.692-58.352 64.286 9.89 38.571-10.88 67.253-39.56 96.923z"/></svg>