<svg xmlns="http://www.w3.org/2000/svg" width="1000" height="1000">
  <path d="M500.496 5c272.968 0 494.507 221.54 494.507 495.002 0 270.495-218.572 495.001-495.001 495.001C229.506 995.003 5 776.431 5 500.002 5 229.506 223.572 5 500.496 5zM231.484 500.496c0 15.824 10.88 32.638 22.748 32.638h89.01v240.33c0 13.846 2.968 13.846 7.913 13.846h73.187c4.945 0 4.945-4.945 4.945-13.846V555.881l219.561 226.484c4.945 4.945 10.88 4.945 11.868 4.945h80.11c15.825 0 13.847-12.857 3.957-23.736l-209.671-230.44h171.1c11.867 0 22.746-8.902 22.746-30.66 0-19.78-8.9-33.626-22.747-33.626H542.035l188.902-237.364c5.934-8.9 0-17.802-7.913-17.802h-90s-3.956 0-6.923 2.967L429.287 468.848V222.583c0-5.934 0-8.901-5.934-8.901h-74.176c-5.934 0-5.934 1.978-5.934 7.912v247.254h-89.011c-11.869 0-22.748 12.857-22.748 31.648z" style="fill:#000;fill-opacity:1;fill-rule:nonzero;stroke:none;"/>
</svg>
