<svg xmlns="http://www.w3.org/2000/svg" width="1000" height="1000">
  <path d="M202.368 95.803V904.2c0 65.58 26.484 90.803 90.803 90.803h409.874c65.58 0 94.587-25.223 94.587-90.803V95.803C797.632 30.223 768.625 5 703.045 5H293.171c-64.319 0-90.803 25.223-90.803 90.803zm98.37 794.525V107.153h398.524v783.175zm52.968-252.23c34.051 0 63.058 5.045 97.11 5.045 0 36.573 3.783 69.363 7.566 103.414h87.02c0-34.051 3.783-66.84 3.783-103.414 34.051 0 60.535-5.045 94.586-8.828v-87.02H353.706zm0-181.606h290.065V365.69c-34.05 0-64.318-3.783-98.37-3.783v-108.46H454.6c0 37.835-3.784 74.409-3.784 108.46-36.573 0-66.841 3.783-97.109 3.783z" style="fill:#000;fill-opacity:1;fill-rule:nonzero;stroke:none;"/>
</svg>
