<svg xmlns="http://www.w3.org/2000/svg" width="1000" height="1000">
  <path d="M500.496 5C223.572 5 5 229.506 5 500.002c0 276.43 224.506 495.001 495.002 495.001 276.43 0 495.001-224.506 495.001-495.001C995.003 226.539 773.464 5 500.496 5zM173.132 703.244C58.407 520.276 142.473 254.232 347.2 152.364c204.726-90.001 425.276-11.87 516.265 200.769 51.43 102.858 42.528 253.188-23.736 361.98-33.626 54.395-77.143 96.923-126.594 128.571-11.868 6.923-18.791 6.923-30.66-4.945-42.527-66.264-92.967-126.594-135.494-192.858-2.967-3.956-7.912-6.923-11.868-14.835 27.692-11.868 58.352-8.901 73.187 14.835 23.736 30.66 50.44 66.264 74.176 99.89 14.835 19.781 14.835 19.781 34.615 4.946 126.594-108.792 146.374-313.518 41.539-440.112-64.286-81.099-145.385-123.626-245.276-123.626-163.187 0-289.78 116.703-313.517 270.99-18.791 111.758 15.824 207.693 96.923 287.803 2.967 4.945 11.868 7.912 18.791 16.813V576.65c0-18.791 7.913-22.747 23.737-22.747H565.77c47.473 0 85.055-31.649 96.924-74.176 11.868-45.495-11.869-91.978-49.451-114.726-8.901-3.956-16.813-8.9-23.737-8.9H401.595c40.55 59.34 83.077 116.703 121.648 171.099-30.659 14.835-57.362 6.923-76.154-16.814-45.494-64.286-88.022-125.605-135.495-187.912-2.967-3.956-6.923-11.869-11.868-18.792h20.77c84.066 0 164.176-4.945 245.275 0 85.055 0 151.32 64.286 151.32 149.341 0 81.1-66.265 150.33-146.375 155.276h-180.99c-16.813 0-19.78 2.967-19.78 18.791v247.254h-10.879c-78.132-39.561-143.407-92.968-185.935-171.1z" style="fill:#000;fill-opacity:1;fill-rule:nonzero;stroke:none;"/>
</svg>
