<svg xmlns="http://www.w3.org/2000/svg" width="1000" height="1000">
  <path d="M675.308 133.815c122.848-155.44 322.162 96.523 150.426 157.947-127.862 67.692-150.426 30.085-233.16 164.215-60.17 121.594-41.367 225.638 68.945 292.076 28.832 15.043 58.917 30.085 89.002 51.395 46.381 22.564 67.692 52.65 52.65 105.298-13.79 60.17-52.65 90.256-105.299 90.256-60.17 0-111.565-30.085-134.13-90.256-22.563-45.127-30.084-97.776-53.902-141.65-6.267-30.085-20.056-60.17-42.62-90.256-81.48-91.509-175.497-36.353-210.596 82.734-15.043 22.564-36.353 43.874-75.213 36.353-37.606-7.521-67.691-36.353-73.96-73.959 0-37.606 13.79-60.17 43.875-67.692 152.933-53.902 198.06-251.962 45.128-328.429-56.41-40.113-18.803-135.383 60.17-135.383 30.085 0 52.649 13.79 60.17 45.128 7.521 21.31 15.043 43.874 21.31 66.438 22.564 96.523 114.073 129.115 181.765 53.902 36.353-40.113 58.916-82.734 87.748-129.115 23.817-30.085 38.86-66.438 67.691-89.002zM368.19 162.647c0-66.438 60.17-140.397 121.594-156.693 60.17-7.522 102.79 30.085 102.79 90.255 8.775 60.17-51.395 135.383-111.565 149.172-66.438 23.817-112.82-13.789-112.82-82.734z" style="fill:#000;fill-opacity:1;fill-rule:nonzero;stroke:none;"/>
</svg>
