<svg xmlns="http://www.w3.org/2000/svg" viewBox="0 0 1000 1000"><path d="M499.998 19.532c266.698 0 481.509 214.81 481.509 480.47 0 266.698-214.811 481.509-481.509 481.509-265.66 0-480.47-214.81-480.47-481.508 0-265.66 214.81-480.471 480.47-480.471zM5 500.002v-5.188C8.113 225.004 229.15 3.966 499.998 5.004c273.962 0 495 221.037 495 494.999 0 273.961-221.038 494.998-495 494.998C226.037 995.001 5 773.964 5 500.003zm37.358-2.075C40.282 751.134 246.79 959.72 499.998 958.681c125.566 0 234.528-45.66 322.736-133.868 101.697-101.698 146.32-224.15 134.905-366.32-8.302-106.886-56.038-206.509-131.792-282.263C734.527 86.985 626.602 43.4 510.376 40.287c-262.547 0-468.018 206.509-468.018 457.64zm18.68 11.415C66.225 746.983 256.13 941.04 496.884 947.266c122.453 1.038 230.377-42.547 318.584-130.755C916.13 715.851 959.714 593.4 945.186 451.23c-9.34-100.66-53.962-195.094-127.641-266.697-87.17-87.17-194.056-131.793-318.584-132.83C251.98 56.89 55.848 261.324 61.037 509.342zm39.433-9.34c0-7.264 5.189-13.49 13.49-13.49 7.265 0 13.491 6.226 13.491 13.49 1.038 7.265-5.189 13.491-12.453 13.491h-1.037c-8.302 0-13.491-6.226-13.491-13.49zm6.226 67.453v-1.037c0-7.265 5.19-12.453 13.491-13.491 7.264 1.038 13.49 6.226 13.49 14.528s-6.226 13.49-13.49 13.49c-6.226 0-13.49-5.188-13.49-13.49zm0-133.867c0-7.265 5.19-13.49 13.491-13.49v-2.076c7.264 0 13.49 6.226 13.49 15.566 0 6.226-6.226 12.452-13.49 12.452-8.302 0-13.49-5.188-13.49-12.452zm16.604 198.207c0-7.264 6.227-13.49 14.528-13.49 7.265 0 13.491 6.226 13.491 13.49s-6.226 13.49-13.49 13.49c-8.302 0-14.529-6.226-14.529-13.49zm0-264.622c0-7.264 6.227-12.453 14.528-12.453 7.265 0 13.491 6.226 13.491 13.49-1.038 7.265-7.264 13.49-15.566 12.453-6.226-1.038-12.453-6.226-12.453-13.49zm29.057 325.848c0-7.264 6.226-13.49 13.49-13.49 8.302 0 14.529 5.188 14.529 12.452v1.038c0 6.226-6.227 13.49-14.529 13.49v1.038c-7.264 0-13.49-6.226-13.49-14.528zm0-386.037c0-8.302 6.226-14.528 13.49-14.528 8.302 0 12.453 6.226 12.453 13.49 2.076 1.038 2.076 1.038 0 1.038 2.076 7.264-4.15 13.49-12.453 13.49-7.264 0-13.49-6.226-13.49-13.49zm13.49 293.679 2.076-3.113h144.245c37.358 0 37.358 0 37.358-38.397V464.72c0-11.415 1.038-16.604 13.49-14.529 26.982 1.038 53.963 0 81.982 0 8.301 0 12.452 2.076 12.452 12.453v158.773c0 10.378-4.15 15.566-13.49 14.529h-10.377c-11.416 1.037-16.604-3.114-16.604-15.566 2.075-38.396 0-76.793 0-115.189 0-10.377-2.076-15.566-13.49-15.566-11.416 0-14.529 4.151-14.529 15.566V620.38c0 12.452-4.151 15.566-16.604 15.566-39.434 0-77.83 2.075-117.264-1.038-17.641-2.076-35.283-11.415-53.962-17.642-11.415-5.188-23.868-11.415-35.283-16.603zm23.868-348.679c2.076-8.302 8.302-14.528 15.566-14.528 7.264 0 12.453 6.226 12.453 14.528 0 7.264-6.226 13.49-13.49 13.49-8.302 0-12.453-6.226-14.529-13.49zm2.076 498.112c-2.076-1.037-2.076-1.037 0-3.113 0-7.264 6.226-13.49 13.49-13.49 7.264 1.037 13.49 7.264 13.49 15.566-1.037 6.226-6.226 12.452-12.452 13.49-7.264 0-14.528-5.188-14.528-12.453zm47.735 46.698v-2.075c0-7.264 6.227-13.49 13.49-13.49 7.265 1.037 13.491 6.226 13.491 13.49 0 8.302-6.226 14.528-13.49 14.528h-1.038c-8.302 0-12.453-5.188-12.453-12.453zm0-591.508v-1.038c-2.075-8.301 4.151-14.528 12.453-14.528 7.264 0 13.49 6.227 13.49 14.528 0 7.265-6.226 13.491-13.49 13.491-6.226 0-12.453-5.189-12.453-12.453zm42.547 448.301 1.038-4.15h185.754c29.057 0 24.906 3.112 24.906-24.906V375.475c0-13.491 4.151-17.642 17.642-17.642 26.98 2.076 52.924 2.076 78.867 0 10.378 0 14.529 3.113 14.529 12.453v308.207c0 11.415-5.19 14.528-15.566 12.453-4.151 0-6.227-1.038-10.378-1.038-17.641 1.038-17.641 1.038-17.641-16.604V420.097c0-8.302 3.113-16.604-8.302-18.68-13.49-2.075-17.642 1.039-17.642 14.53v258.395c0 17.641 0 17.641-17.641 17.641-44.623 0-90.283-1.037-133.868 0-26.98 1.038-45.66-13.49-66.415-22.83-11.415-3.113-23.868-9.34-35.283-15.566zm12.453 181.604v-1.038c0-7.264 5.189-13.49 12.453-13.49h1.038c7.264 0 12.453 6.226 12.453 13.49s-5.19 13.49-12.453 13.49c-7.264 0-13.49-5.188-13.49-12.452zm0-670.376c0-7.265 6.227-12.453 12.453-12.453 7.264-1.038 13.49 5.188 14.528 12.453 0 7.264-4.15 13.49-12.453 13.49h-2.075c-7.264 0-12.453-6.226-12.453-13.49zm60.189 698.394c0-7.264 6.226-14.528 13.49-14.528s13.49 7.264 13.49 14.528-6.226 12.453-12.452 13.49h-1.038c-7.264 0-13.49-6.226-13.49-13.49zm0-726.413c0-7.264 6.226-13.49 13.49-13.49s13.49 6.226 13.49 13.49c0 8.302-6.226 13.49-12.452 14.528h-1.038c-7.264 0-13.49-6.226-13.49-14.528zm46.698 569.716c3.113 0 7.264-2.076 11.415-2.076l194.056 2.076c30.094 0 30.094 0 30.094-29.057V285.192c0-11.415 3.113-16.604 15.566-16.604 26.981 2.075 55 2.075 84.057 0 8.302 0 12.453 4.15 12.453 13.49v446.226c0 17.641 0 17.641-18.68 17.641-29.056 0-28.018 0-25.943-29.056 3.113-19.717-1.038-303.018-1.038-390.188 0-7.264 1.038-16.604-11.415-14.528-9.34 0-12.453 3.113-12.453 12.453 0 44.622-1.037 378.772-1.037 378.772v41.51c-5.189 1.037-8.302 1.037-12.453 1.037-58.113 0-117.264 1.038-174.34 0-14.528 0-29.056-9.34-42.546-15.566-16.604-7.264-33.208-14.528-47.736-23.867zm18.679 174.339c0-8.302 5.189-14.528 13.49-15.566 7.265 0 13.491 6.226 13.491 14.528 0 7.264-6.226 13.49-13.49 13.49-7.265 1.038-13.491-5.188-13.491-12.452zm0-761.697c0-7.264 6.226-13.49 13.49-13.49 7.265 0 12.453 6.226 13.491 13.49 0 8.302-6.226 14.529-13.49 14.529h-1.038c-7.264-1.038-12.453-6.227-12.453-14.529zm66.415 766.885c0-8.301 6.226-14.528 13.49-13.49 7.265 0 14.529 7.264 14.529 14.528s-7.264 12.453-14.529 12.453c-7.264 0-13.49-6.226-13.49-13.49zm0-773.111c0-6.226 6.226-12.453 13.49-12.453 7.265 0 14.529 5.189 14.529 12.453 0 8.302-7.264 14.528-14.529 14.528-7.264 0-13.49-6.226-13.49-14.528zm66.415 766.885c1.038-8.302 7.264-13.49 15.566-13.49 7.264 0 13.49 6.226 12.453 14.528 0 7.264-6.227 12.453-14.529 12.453-7.264 0-13.49-6.227-13.49-13.49zm0-760.659c1.038-7.264 7.264-13.49 15.566-13.49 7.264 1.038 12.453 6.226 13.49 13.49-1.037 8.302-7.264 14.529-15.566 14.529-7.264-1.038-13.49-6.227-13.49-14.529zM618.3 863.21c0-7.264 6.226-14.528 13.49-14.528 8.302 0 14.529 7.264 14.529 14.528s-6.227 13.49-14.528 13.49c-7.265 0-12.453-6.226-13.49-13.49zm0-726.413c1.038-7.264 6.226-13.49 13.49-13.49 8.302 0 14.529 6.226 14.529 13.49 0 8.302-6.227 14.528-14.528 14.528-7.265 0-12.453-6.226-13.49-14.528zm61.226 697.357c0-7.264 6.227-13.49 14.529-13.49 7.264 0 13.49 6.226 13.49 13.49s-6.226 13.49-13.49 13.49c-8.302 0-14.529-6.226-14.529-13.49zm0-669.338c0-7.265 6.227-12.453 14.529-12.453 7.264 0 13.49 6.226 13.49 13.49-1.038 7.264-6.226 14.529-13.49 12.453-8.302 0-14.529-6.226-14.529-13.49zm55 629.904c0-7.264 7.264-13.49 14.529-13.49 7.264 1.037 13.49 6.226 12.452 13.49 1.038 8.302-4.15 14.528-11.415 14.528h-1.037c-7.265 0-14.529-6.226-14.529-14.528zm0-589.433v-1.038c0-8.301 7.264-14.528 14.529-14.528 7.264 0 13.49 6.227 13.49 14.528 0 7.265-5.189 13.491-12.453 13.491h-1.037c-7.265 0-14.529-6.226-14.529-12.453zm46.698 46.698c0-8.302 6.227-14.528 14.529-14.528 7.264 0 13.49 6.226 13.49 14.528 0 7.264-6.226 13.49-13.49 13.49-8.302 0-14.529-6.226-14.529-13.49zm1.038 495c2.075-7.265 7.264-12.454 13.49-12.454 7.265-1.037 14.529 5.189 14.529 12.453 0 8.302-5.189 14.528-12.453 14.528h-2.075c-8.302 0-13.491-6.226-13.491-14.528zm38.396-53.963c0-7.264 6.227-13.49 13.49-13.49 7.265 0 13.491 6.226 13.491 13.49 0 8.302-6.226 13.49-13.49 14.528-7.264 0-13.49-6.226-13.49-14.528zm0-386.037c0-8.302 6.227-12.453 12.453-14.528h1.038c7.264 0 13.49 6.226 13.49 14.528 0 7.264-6.226 13.49-13.49 13.49s-13.49-6.226-13.49-13.49zm29.057 324.81c-2.076-7.263 4.15-13.49 12.452-14.528 7.265 0 13.491 4.151 14.529 12.453v2.076c0 7.264-6.227 13.49-13.49 13.49-7.265 0-13.491-6.226-13.491-13.49zm0-263.584v-1.037c0-6.227 6.226-12.453 13.49-12.453s13.49 6.226 13.49 13.49c0 7.265-6.226 12.453-13.49 12.453s-13.49-5.188-13.49-12.453zm17.641 198.208c0-7.265 6.227-13.491 13.49-13.491 7.265 1.038 13.491 7.264 12.453 14.528 0 6.227-5.188 13.49-12.452 13.49s-13.49-7.263-13.49-14.527zm0-132.83c0-9.34 6.227-15.566 13.49-15.566 7.265 2.075 13.491 8.301 12.453 15.566 1.038 6.226-5.188 12.452-12.452 12.452s-13.49-6.226-13.49-12.452zm6.227 67.452v-1.037c-2.076-7.265 3.113-13.491 10.377-13.491h2.075c7.264-1.038 13.49 5.189 14.529 13.49 0 7.265-6.227 13.491-13.49 13.491-7.265 0-13.491-6.226-13.491-12.453z"/></svg>