<svg xmlns="http://www.w3.org/2000/svg" width="1000" height="1000">
  <path d="M24.722 625.912C-.366 541.87 2.143 479.152 20.959 396.363c38.885-175.612 145.506-294.777 311.083-356.24 20.07-3.764 20.07-3.764 31.36 8.78 38.885 48.92 80.279 96.586 115.401 145.507 3.763 5.017 8.78 13.798 11.29 18.815-112.894 11.29-200.7 63.973-249.62 165.577-30.105 66.481-35.122 131.709-13.798 201.953 67.736-47.666 129.2-96.586 190.664-148.015 42.649 55.192 82.788 107.875 126.691 166.83-61.464 48.921-122.928 96.587-188.155 145.507 61.464 84.043 122.928 163.068 188.155 240.84-28.85 15.052-90.314 8.78-126.69 0-201.955-43.905-333.664-163.07-392.619-360.006zM456.225 401.38c66.481-48.92 126.69-96.586 194.427-149.27-67.736-80.279-127.946-159.304-190.664-238.33C463.75 10.019 473.786 5 478.803 5c337.425 0 564.466 255.891 505.51 599.588-38.885 171.849-149.27 288.505-313.591 356.24-11.29 3.764-20.07 3.764-30.105-10.034-47.666-58.956-106.622-127.946-127.946-166.831 243.348-22.579 308.575-247.11 259.654-365.021-60.21 48.92-121.673 96.586-184.392 145.506-43.903-53.937-87.806-106.621-131.708-163.068zm52.683 3.764c30.105 35.122 56.447 71.499 82.788 105.367C644.38 472.879 693.3 432.74 742.221 393.854c35.122-27.596 65.227-15.052 74.007 25.088 5.018 17.56 8.78 38.885 8.78 61.464 11.29 173.102-77.77 263.417-242.092 333.662 27.596 35.122 52.683 71.499 80.28 106.621 201.953-71.499 347.46-308.575 273.452-559.448C870.166 150.507 663.195 43.885 539.013 53.92c43.903 52.683 85.297 106.62 127.945 163.067 26.342 30.105 22.58 52.684-7.526 75.262-48.92 38.886-97.84 74.008-150.524 112.894z" style="fill:#000;fill-opacity:1;fill-rule:nonzero;stroke:none;"/>
</svg>
