<svg xmlns="http://www.w3.org/2000/svg" width="1000" height="1000">
  <path d="M500.496 5C223.572 5 5 229.506 5 500.002c0 276.43 224.506 495.001 495.002 495.001 276.43 0 495.001-224.506 495.001-495.001C995.003 226.539 773.464 5 500.496 5zM196.87 512.364c1.978 134.506 110.77 258.133 244.286 281.87 138.462 19.78 265.056-46.484 326.375-170.111 6.923-18.791 9.89-36.594 19.78-58.352H542.035c-18.791 0-22.748 0-22.748-23.736 0-29.67 0-29.67 32.638-29.67h340.22v53.406c-31.648 0-31.648 0-38.57 29.67-32.638 116.704-101.87 202.748-216.595 245.276C160.275 1025.663-73.132 337.31 362.034 156.32c185.935-67.253 390.66 11.868 475.716 197.803v17.802h-70.22c-2.967 0-9.89-9.89-12.857-15.824-51.429-82.088-121.649-133.517-218.572-146.374-104.836-13.846-195.825 19.78-266.045 96.923-51.429 61.32-73.187 128.572-73.187 205.715zm71.209 26.704c-19.78-113.737 49.45-225.496 161.21-262.09 103.846-32.637 221.538 19.781 261.099 90.99-13.846 3.956-23.736 7.912-33.627-5.934-61.318-65.275-137.473-85.055-221.539-61.319-82.088 25.715-130.55 85.055-145.385 163.188-21.758 144.396 89.011 248.242 202.748 248.242 83.077 0 144.396-35.604 187.913-103.846 9.89-12.857 15.824-15.825 29.67-9.89-16.813 58.351-104.835 149.34-232.418 138.462-98.902-7.913-192.858-87.034-209.671-197.803zm39.56 0c-17.802-90.99 32.638-182.968 121.65-215.605 70.22-29.67 170.11-6.924 203.736 44.505 0 3.956 0 3.956-1.978 7.912-9.89-3.956-29.67-7.912-39.56-13.846-68.242-41.538-143.408-38.571-206.705 15.824-67.252 53.407-74.176 171.1-12.857 234.397 63.297 70.22 167.144 77.143 237.364 21.758 7.912-9.89 13.846-18.791 23.736-28.681s13.846-12.858 29.67-6.923c-9.89 40.55-83.077 97.912-163.187 97.912-94.945 0-172.088-67.253-191.869-157.253zM519.288 455c0-37.582 0-37.582 36.593-37.582h336.265v53.407H536.1c-9.89 0-16.814-2.967-16.814-15.825z" style="fill:#000;fill-opacity:1;fill-rule:nonzero;stroke:none;"/>
</svg>
