<svg xmlns="http://www.w3.org/2000/svg" viewBox="0 0 1000 1000"><path d="M499.169,0C223.027.459-.458,224.688,0,500.831A497.5,497.5,0,0,0,75.49,764.3c24.186-54.225,59.945-102.827,104.4-143.115C262.473,546.346,375.061,500.193,499.237,500c124.723-.194,237.924,46.012,320.872,121.178,44.453,40.283,80.211,88.885,104.4,143.121A497.657,497.657,0,0,0,1000,499.169C999.541,223.027,775.312-.458,499.169,0ZM839.4,543.991C746.89,472.852,628.321,430.2,499.113,430.405c-128.575.2-246.461,42.8-338.519,113.6a345.728,345.728,0,0,1-2.805-43.432c-.313-189,152.645-342.465,341.643-342.779S841.9,310.434,842.21,499.432A345.06,345.06,0,0,1,839.4,543.991ZM739.638,744.265c36.838,41.572,61.492,92.9,68.888,149.218a500.084,500.084,0,0,1-617.061-.006c7.394-56.3,32.057-107.623,68.9-149.2,56.909-64.224,142.865-105.206,239.118-105.355C596.107,638.768,682.505,679.792,739.638,744.265Z"/></svg>