<svg xmlns="http://www.w3.org/2000/svg" viewBox="0 0 1000 1000"><path d="M146.61 582.374C128.544 613.991 111.606 650.125 94.668 684c-4.516 4.517-4.516 14.68 0 19.196 20.325 37.263 46.297 76.784 70.01 115.176 0 2.259 10.162 5.646 16.937 9.034H283.24c3.387 0 10.162 4.517 13.55 7.904 6.775 13.55 14.68 27.1 22.583 45.167-29.358 3.388-53.07 3.388-77.913 3.388-28.23 0-59.846-3.388-90.334-3.388-7.904 0-14.68-5.646-19.196-10.162C38.21 757.397-6.958 633.187 7.721 488.653 28.048 271.85 171.453 100.216 381.48 40.37c76.784-20.326 154.697-20.326 230.352-3.388 11.292 0 21.455 6.775 24.842 13.55 24.842 39.521 49.684 80.172 73.397 123.08 7.904 10.163 11.291 13.55 24.842 13.55 46.296 0 90.334 0 133.242 4.517 13.55 0 24.842 3.388 35.005 16.938 16.938 28.23 38.392 53.071 56.459 84.688 3.387 2.259 3.387 10.163 3.387 13.55-7.904 20.325-16.937 42.909-24.842 70.01-7.904-10.163-7.904-18.068-11.291-21.455-16.938-31.617-37.263-65.492-58.718-100.497-3.387-3.387-11.291-12.42-16.937-12.42H743.945c7.904 25.97 16.938 47.425 22.583 71.137 11.292 53.072 16.938 108.401 28.23 161.473 0 6.775 3.387 13.55 5.646 20.325 18.067 24.842 18.067 49.684 0 73.396-2.259 3.388-5.646 10.163-5.646 16.938-7.904 81.3-24.842 154.697-50.813 228.094 0 4.516-2.258 6.775-2.258 10.162h76.784c32.746 3.388 49.683-10.162 66.621-37.263 35.005-53.07 60.976-112.917 77.913-178.41 9.034 24.842 20.325 47.426 30.488 72.268 3.388 3.387 0 11.292 0 14.68-24.842 66.62-58.717 123.08-103.884 175.022-4.517 6.775-14.68 10.162-21.455 10.162h-137.76c-9.033 0-16.937 0-20.324 11.292 0 5.646-3.388 10.162-5.646 13.55-14.68 53.071-56.46 63.234-106.143 70.009 21.454-36.134 41.78-66.621 63.234-100.497-21.454-4.516-35.004-7.904-51.942-12.42-64.363-13.55-124.21-35.005-179.54-58.718-5.645-3.387-16.937-3.387-23.712-3.387-32.746 3.387-56.459-10.163-66.621-38.392-3.388-7.905-7.905-14.68-10.163-16.938-66.621-41.78-123.08-94.85-171.635-159.214-3.387 0-3.387-3.388-3.387-6.775-3.388 0-3.388 0-7.905 3.387zm-79.042 25.972c16.938-25.972 30.488-46.297 44.038-67.751v-13.55c-13.55-21.455-27.1-45.167-44.038-70.01-7.904 51.943-7.904 100.498 0 151.31zm22.584-228.094c18.066 33.875 38.392 70.009 56.458 103.884h7.905c0-2.258 3.387-2.258 3.387-5.646 48.555-59.846 105.014-111.788 171.635-154.697 2.258-3.388 6.775-10.163 10.163-16.938 6.775-38.392 38.392-55.33 73.396-41.78 7.904 0 16.938 0 24.842-3.387 27.1-10.162 56.459-24.842 83.56-32.746 45.166-13.55 90.333-23.713 140.017-37.263-21.454-32.746-41.78-66.621-63.234-98.238-3.387-3.388-10.162-6.775-16.938-6.775-53.07-6.775-105.013-6.775-154.697 3.387-160.343 35.005-268.744 125.339-331.978 276.649-4.516 3.387-4.516 10.162-4.516 13.55zm94.85 154.697c50.813 60.976 105.014 115.176 168.248 156.956 3.387 3.387 11.292 3.387 16.937 3.387 39.522-14.68 71.139 3.388 77.914 41.78 3.387 7.904 6.775 13.55 13.55 16.937 66.621 32.746 136.63 53.072 210.027 64.363 11.291 2.259 14.679 0 14.679-11.291 27.1-66.622 44.038-136.63 48.555-211.156 0-5.646-4.517-13.55-7.905-16.938-30.487-27.1-33.875-70.01 0-94.85 7.905-2.26 11.292-9.034 7.905-16.939-4.517-70.009-21.455-136.63-41.78-202.122-6.775-13.55-13.55-18.067-28.23-13.55-70.008 10.162-136.63 30.487-203.251 62.104-6.775 2.259-10.163 10.163-13.55 16.938-10.163 32.746-38.392 46.296-70.01 39.521-7.904-3.387-13.55-3.387-18.066 0-66.622 44.038-124.21 97.11-175.023 164.86z"/></svg>