<?xml version="1.0" encoding="utf-8"?>
<!-- Generator: Adobe Illustrator 26.0.1, SVG Export Plug-In . SVG Version: 6.00 Build 0)  -->
<svg version="1.1" id="Layer_1" xmlns="http://www.w3.org/2000/svg" xmlns:xlink="http://www.w3.org/1999/xlink" x="0px" y="0px"
	 viewBox="0 0 1000 1000" style="enable-background:new 0 0 1000 1000;" xml:space="preserve">
<path d="M385.9,7.6h-94.7L91.8,206.9h161.8C275.3,128,360.2,22.4,385.9,7.6z M752,206.9h156.8L707.5,7.6h-88.8
	C682.7,66,727.3,147.7,752,206.9z M248.7,793.1H91.8l201.3,199.3h88.8C318,934,273.4,852.3,248.7,793.1z M565.4,7.6H521v199.3h193.4
	C669.5,99.6,596.4,29.3,565.4,7.6z M482.6,206.9L482.6,206.9V7.6h-45.4c-84.5,60.8-132.6,158.2-146,199.3L482.6,206.9L482.6,206.9z
	 M518.1,793.1v199.3h45.4c84.5-60.8,132.6-158.2,146-199.3H518.1z M435.2,992.4h44.4V793.1H286.2
	C331.2,900.4,404.3,970.7,435.2,992.4z M614.8,992.4h94.7l199.3-199.3H747C725.3,872,640.4,977.6,614.8,992.4z M290.3,501.1
	c-2.5,18.7-4.3,37.5-5.3,56.3c-1,18.9-1.5,37.8-1.5,56.8v73.6h62.1v-368H289l-67.6,200.3l-67.6-200.3H97.2v368.1h62.1v-73.6
	c0-19-0.4-38-1.3-56.8c-0.8-18.9-2.6-37.6-5.3-56.3s-5.4-37.3-8.3-55.8c-2.8-18.5-4.9-37.3-6.3-56.3l63.6,188.3H241l63.6-188.3
	c-1.3,19-3.4,37.8-6.3,56.3C295.5,463.8,292.8,482.4,290.3,501.1z M565.8,681.4c9.2-3.7,17.6-8.8,25.3-15.3s13.9-14.3,18.8-23.3
	c4.8-9,7.8-18.4,9-28.3c1.2-9.8,1.8-19.8,1.8-29.8V482.6H509.9v55.6H559v46.6c0,7-0.8,13.9-2.5,20.8c-1.7,6.8-5.2,12.6-10.5,17.3
	s-11.4,8.1-18,10.3c-6.7,2.2-13.5,3.3-20.5,3.3c-6.7,0-13.3-1.1-19.8-3.3s-12.3-5.8-17.3-10.8s-8.5-10.8-10.5-17.5s-3-13.4-3-20V423
	c0-7,1.1-13.9,3.3-20.5c2.2-6.7,5.8-12.5,10.8-17.5s10.8-8.5,17.5-10.5s13.5-3,20.5-3c8,0,16,1.3,24,4s14.5,7.4,19.5,14.3
	c5,6.8,7.5,14.4,7.5,22.8h61.6c0-14-2.9-27.5-8.8-40.6c-5.8-13-14.3-24-25.3-32.8s-23.4-14.9-37.1-18.3c-13.7-3.3-27.5-5-41.6-5
	c-10,0-19.9,0.8-29.6,2.3s-19.1,4.3-28.3,8.5c-9.2,4.2-17.5,9.6-24.8,16.3c-7.3,6.7-13.4,14.4-18.3,23c-4.8,8.7-8.2,17.9-10,27.5
	C396,403.2,395,413,395,423v161.8c0,11.7,1.4,23.3,4.3,34.8c2.8,11.5,7.8,22,14.8,31.6c7,9.5,15.6,17.5,25.8,23.8
	c10.2,6.3,21,10.8,32.6,13.3c11.5,2.5,23.1,3.8,34.8,3.8c10,0,19.9-0.8,29.8-2.5C547.1,687.7,556.6,685.1,565.8,681.4z M841,617.8
	c-5,7-11.5,11.9-19.5,14.5c-8,2.7-16,4-24,4c-7,0-13.9-1-20.5-3c-6.7-2-12.5-5.5-17.5-10.5s-8.6-10.8-10.8-17.5s-3.3-13.5-3.3-20.5
	V423c0-7,1.1-13.9,3.3-20.5c2.2-6.7,5.8-12.5,10.8-17.5s10.8-8.5,17.5-10.5s13.5-3,20.5-3c8,0,16,1.3,24,4s14.5,7.4,19.5,14.3
	c5,6.8,7.5,14.4,7.5,22.8h61.6c0-14-2.9-27.5-8.8-40.6c-5.8-13-14.3-24-25.3-32.8s-23.4-14.9-37.1-18.3c-13.7-3.3-27.5-5-41.6-5
	c-10,0-20,0.8-29.8,2.3c-9.9,1.5-19.3,4.3-28.3,8.5s-17.2,9.6-24.5,16.3c-7.3,6.7-13.4,14.4-18.3,23c-4.8,8.7-8.2,17.9-10,27.5
	c-1.8,9.7-2.8,19.5-2.8,29.5v161.8c0,10,0.9,19.9,2.8,29.5c1.8,9.7,5.2,18.9,10,27.5c4.8,8.7,10.9,16.4,18.3,23
	c7.3,6.7,15.5,12.1,24.5,16.3s18.4,7,28.3,8.5c9.8,1.5,19.8,2.3,29.8,2.3c14,0,27.9-1.7,41.6-5c13.7-3.3,26-9.4,37.1-18.3
	c11-8.8,19.4-19.8,25.3-32.8c5.8-13,8.8-26.5,8.8-40.6h-61.6C848.5,603.3,846,610.8,841,617.8z"/>
</svg>
