<svg xmlns="http://www.w3.org/2000/svg" viewBox="0 0 1000 1000"><path d="M5 500.496c0-90 22.747-173.077 67.253-250.22 44.506-74.177 103.846-133.517 178.023-178.023C327.419 27.747 410.496 5 500.496 5c89.011 0 172.089 22.747 249.232 67.253 74.176 44.506 133.517 103.846 178.022 178.023 44.506 77.143 67.253 160.22 67.253 249.231 0 90-22.747 173.078-67.253 250.22-44.505 74.177-103.846 133.518-178.022 178.023-77.143 44.506-160.22 67.253-249.232 67.253-90 0-173.077-22.747-250.22-67.253-74.177-44.505-133.517-103.846-178.023-178.022C27.747 672.585 5 589.508 5 500.496zm201.759 270.001c0 12.857 2.967 20.77 22.747 20.77h514.288c16.813 0 19.78-3.957 19.78-20.77V611.266c0-17.803 5.934-27.693 18.791-40.55 13.846-11.868 26.704-30.66 41.539-42.527 13.846-13.847 13.846-18.792 0-31.649-14.835-12.857-27.693-25.714-46.484-43.517-7.912-11.868-13.846-22.747-13.846-35.604V254.232c0-16.814-2.967-20.77-19.78-20.77H641.925c-37.582 0-37.582 0-40.55 37.583 0 3.956-7.911-1.978-7.911-1.978-30.66-31.649-60.33-59.341-87.034-85.055-11.868-11.869-16.813-13.847-29.67 0-87.033 85.055-172.089 168.132-259.122 253.187-7.912 9.89-10.88 20.77-10.88 27.693zm42.528-72.198V490.606c0-17.802 1.978-28.681 13.846-37.583 68.242-71.209 139.45-140.44 211.649-212.638 7.912-6.923 9.89-8.9 16.813-12.857 34.616 30.66 65.275 60.33 94.945 91.979 6.924 7.912 14.836 23.736 14.836 32.637 9.89 83.077-14.836 151.32-80.11 204.726-50.44 40.55-112.748 56.374-179.012 43.517-18.791-2.967-18.791-2.967-18.791 17.802v111.758c0 16.814-7.913 19.78-22.748 19.78-62.308 0-51.428 6.924-51.428-51.428zm114.725 31.648v-67.253c0-11.868 1.978-16.813 15.824-16.813 64.286 0 119.671-21.758 170.11-58.352 59.342-48.461 91.98-108.791 96.924-183.956 0-34.616-3.956-71.21-3.956-102.858 0-29.67 0-29.67 28.682-29.67h30.66c13.845 0 20.768 6.923 20.768 22.747v129.561c-3.956 23.736 3.956 38.572 20.77 54.396 6.923 5.934 14.835 12.857 19.78 18.791 13.846 12.857 18.791 19.78 0 31.649-34.616 24.725-47.473 55.384-40.55 95.934 3.956 34.615 0 69.23 0 105.824 0 12.858-6.923 19.78-24.725 19.78H383.792c-19.78 0-19.78-2.966-19.78-19.78z"/></svg>