<svg xmlns="http://www.w3.org/2000/svg" viewBox="0 0 1000 1000"><path d="m565.247 412.74-27.57 116.841 211.364 30.195-17.067 53.825-200.86-26.256c-15.754 42.01-26.257 91.897-43.323 136.533-19.692 52.512-34.133 98.46-56.451 149.66-28.882 63.016-74.83 111.59-143.097 119.467-53.826 10.502-144.41-22.318-144.41-56.451 0-53.826 57.764-56.451 84.02 5.251 14.441 27.57 49.887 32.82 84.02 10.503 57.764-57.764 85.334-203.487 119.467-364.963V571.59l-194.297-32.82 5.251-52.513 203.487 24.944 22.318-108.964-207.425-34.133 10.502-56.451 216.615 34.133c9.19-26.256 9.19-44.636 17.066-61.703C545.555 119.983 624.324-6.048 758.231 5.768c59.077 0 124.717 60.39 86.646 93.21-31.508 34.133-55.139 2.625-78.77-31.508-42.01-61.702-101.086-13.128-126.03 57.764-22.317 73.517-40.697 152.286-66.953 233.681l192.984 26.256-7.877 60.39z"/></svg>