<svg xmlns="http://www.w3.org/2000/svg" width="1000" height="1000">
  <path d="M5 577.47v4.846c7.27 38.776 19.388 81.187 35.141 117.54 46.047 92.093 110.27 162.375 201.15 214.48 56.953 33.929 122.388 53.317 192.67 61.8 42.41 4.846 84.822 4.846 127.233 1.211 38.776-4.847 76.34-13.33 113.905-26.659 83.61-27.87 155.104-76.34 212.056-145.41 50.894-56.952 83.611-127.234 100.575-199.939 1.212-8.482 4.847-18.176 7.271-25.446H785.368c0-2.424-1.212-2.424-1.212-2.424v-3.635c0-37.564-8.482-75.129-21.811-110.27-31.506-75.128-83.611-130.869-158.74-161.162-54.528-20.6-105.422-25.447-159.95-13.33-54.53 9.694-101.788 33.93-142.987 72.705-55.74 53.317-82.4 123.6-84.823 201.151v14.541zm221.75 2.423h546.5c-31.505 112.692-132.08 212.056-279.914 208.42-147.834-3.634-241.138-110.269-266.585-208.42zm158.74-447.137c0 63.012 50.894 112.693 113.905 112.693 63.01 0 113.904-49.681 113.904-112.693 0-64.222-50.893-112.692-113.904-112.692-63.011 0-113.905 48.47-113.905 112.692z" style="fill:#000;fill-opacity:1;fill-rule:nonzero;stroke:none;"/>
</svg>
