<?xml version="1.0" encoding="utf-8"?>
<!-- Generator: Adobe Illustrator 26.0.1, SVG Export Plug-In . SVG Version: 6.00 Build 0)  -->
<svg version="1.1" id="Layer_1" xmlns="http://www.w3.org/2000/svg" xmlns:xlink="http://www.w3.org/1999/xlink" x="0px" y="0px"
	 viewBox="0 0 1000 1000" style="enable-background:new 0 0 1000 1000;" xml:space="preserve">
<g>
	<path d="M394.8,341.6c-55.1,0-100.2,45.1-100.2,99.3c0,54.1,45,98.4,100.2,98.4h0c55.1,0,100.2-44.2,101.1-98.4
		C495.9,385.9,449.9,341.6,394.8,341.6z M453.6,440.9C453.6,440.9,453.6,440.9,453.6,440.9c0,32.5-26.7,58.7-59.7,58.7
		c-33.1,0-59.7-26.2-59.7-58.7c0-32.5,26.6-58.7,59.7-58.7C427.9,382.2,453.6,408.4,453.6,440.9
		C453.6,440.9,453.6,440.9,453.6,440.9L453.6,440.9z"/>
	<path d="M394.8,617.8c-24.8,0-45-19.9-45-44.2h-41.4c0,46.9,38.6,84.8,86.4,84.8h0c47.8,0,86.4-37.9,86.4-84.8h-41.4
		C439.8,597.9,419.6,617.8,394.8,617.8z"/>
	<path d="M530.8,467.1c10.1-9,23-15.3,35.9-19.8c-3.7-6.3-5.5-13.5-5.5-20.7c0-24.4,20.2-44.2,45-44.2c24.8,0,45,19.8,45,44.2
		c0,7.2-1.9,14.4-5.5,20.7c12.9,4.5,24.8,11.7,35.8,19.8c6.4-12.6,10.1-26.2,10.1-40.6c0-46.9-38.6-84.8-86.4-84.8
		c-47.8,0-86.4,37.9-84.6,84.8C520.7,440.9,523.4,454.4,530.8,467.1z"/>
	<path d="M500.5,5C223.6,5,5,229.5,5,499.5C5,773.5,226.5,995,499.5,995C776.4,995,995,770.5,995,499.5C995,223.6,770.5,5,500.5,5z
		 M822.1,700.8c0,64.1-53.3,115.5-117.7,115.5h-409c-65.3,0-117.7-51.4-117.7-115.5V299.2c0-64.1,52.4-115.5,117.7-115.5h409
		c65.3,0,117.7,51.4,117.7,115.5V700.8z"/>
	<path d="M605.2,460.7c-56.1,0-101.1,44.2-101.1,99.3c0,54.1,46,98.4,101.1,98.4v0c55.1,0,100.2-44.2,100.2-98.4
		C705.4,505,660.4,460.7,605.2,460.7z M605.2,616.9c-33.1,0-59.7-26.2-59.7-57.7c0-32.5,26.7-58.7,59.7-58.7
		c33.1,0.9,59.7,27.1,59.7,58.7C665,591.6,638.3,616.9,605.2,616.9z"/>
</g>
</svg>
