<svg xmlns="http://www.w3.org/2000/svg" viewBox="0 0 1000 1000"><path d="M501.378 5c219.342 5.928 391.258 195.629 368.73 406.67-11.855 75.881-46.239 137.534-85.364 195.63-81.809 122.12-168.36 241.868-253.725 362.802-26.084 33.198-41.497 33.198-64.024 0C381.63 849.168 296.265 729.42 215.64 607.3c-52.167-73.51-87.736-155.318-87.736-247.797C136.205 142.533 302.192 5 501.378 5zM197.857 365.431c-5.928 69.952 22.527 132.79 58.096 195.63 67.58 98.406 143.461 195.628 211.042 294.035 8.3 15.413 17.784 21.342 29.64 39.126 56.91-62.838 93.665-119.749 154.132-207.485 41.497-55.725 75.88-106.707 110.264-164.803 39.126-64.024 50.982-131.604 39.126-201.557C761.03 142.533 604.527 45.311 427.869 78.51c-125.677 29.64-230.012 155.317-230.012 286.922zm67.58 81.809c0-17.785 5.93-29.641 23.713-35.57 73.51-7.113 115.007-15.412 177.845-15.412-15.413 18.97-75.88 105.52-103.15 137.533-10.67 15.413-28.455 21.341-46.24 5.928-28.455-23.713-46.239-58.096-52.167-92.48zm0-138.719c5.93-46.24 23.713-74.695 58.097-98.407 11.856-3.557 29.64-3.557 35.569 0 13.042 18.97 92.479 120.934 107.892 149.39-48.61-3.558-100.779-8.3-177.845-21.342-17.784-3.557-23.712-11.856-23.712-29.64zM427.87 182.844c-17.784-32.012 28.455-58.095 68.767-58.095 45.054 0 84.18 20.155 68.766 64.024-15.413 41.497-64.024 164.802-64.024 149.389-26.084-26.084-60.467-128.048-73.509-155.318zm5.928 378.216c16.6-45.054 41.497-120.934 62.839-152.946 20.155 27.27 28.455 58.096 68.766 152.946 15.413 42.683-4.742 64.024-64.024 64.024-54.539 0-93.665-17.784-67.58-64.024zm91.294-164.802c11.856 0 86.55 4.742 137.533 9.485 69.952 0 84.18 29.64 46.24 104.335-39.126 56.91-64.025 45.054-98.408 0-2.371-3.557-88.922-116.192-85.365-113.82zm5.928-42.683c3.557-2.371 50.982-72.323 98.407-137.533 15.413-15.413 33.198-15.413 50.982 0 28.455 23.713 52.168 52.168 52.168 92.48 0 11.855 0 29.64-17.785 29.64-69.952 7.114-163.616 15.413-183.772 15.413z"/></svg>