<svg xmlns="http://www.w3.org/2000/svg" viewBox="0 0 1000 1000"><path d="M49.29 20.632V5l194.092 7.816v973.066l-194.093 9.119v-18.237l13.027-1.303c10.42-6.513 19.54-7.815 27.355-15.631 13.026-13.027 26.053-22.145 36.474-35.171 13.026-16.935 19.54-39.08 28.658-63.83 11.723-31.263 13.026-65.131 13.026-101.605V226.448c0-28.658-3.908-61.224-13.026-88.58-9.119-23.447-14.33-42.986-28.658-57.315C114.42 68.829 102.697 54.5 89.67 44.079c-7.816-6.513-16.934-13.026-27.355-16.934-3.908-1.303-10.421-1.303-13.027-6.513zm261.829 962.645V15.421c26.052 0 58.618-3.908 95.092-5.21 26.052-1.303 48.197-1.303 59.92-1.303 24.75 0 45.593 0 69.04 1.303 27.356 1.302 54.71 19.54 79.461 36.473 23.447 15.632 42.987 39.08 62.526 62.527 19.54 24.75 29.96 56.013 36.474 82.066 9.118 36.473 7.816 76.855 1.303 113.329-6.513 37.776-14.33 65.131-31.264 89.881-9.118 13.027-18.236 27.355-33.868 39.08-10.421 7.815-20.842 19.539-35.171 26.052l-18.237 9.118 27.355 7.816c20.843 6.513 33.869 14.329 50.803 22.145 19.54 9.118 33.869 19.54 45.592 27.355 23.448 15.632 41.684 45.592 56.013 78.158 20.843 48.197 24.75 109.421 13.027 174.553-9.119 50.802-27.356 92.487-54.71 127.658-22.146 28.658-54.711 53.408-88.58 69.04C614.632 989.79 582.066 995 549.5 995c-32.565 0-83.368 0-148.5-5.21zm75.552-218.842c1.303 35.17 5.21 65.131 14.33 89.882 7.815 22.144 13.026 37.776 27.355 49.5 7.815 6.513 23.447 15.631 33.868 16.934 7.816 1.302 22.145 3.908 39.079 3.908h6.513c41.684 1.302 79.46-3.908 106.816-16.935 44.29-20.842 75.553-62.526 92.487-121.144 13.026-45.593 13.026-84.672 3.908-125.053-6.513-28.658-18.237-56.013-41.684-79.46-19.54-19.54-35.172-36.474-59.922-44.29-15.631-5.21-42.986-14.33-83.368-19.54-28.658-3.908-58.619-2.605-93.79-1.302l-45.592 1.302c-3.908 57.316-3.908 138.08 0 246.198zm0-313.935c9.119 1.303 22.145 1.303 41.684 1.303 32.566 0 63.83-2.605 88.58-10.421 35.17-11.724 65.131-26.053 83.368-48.197 22.145-27.356 33.868-61.224 36.474-97.698 2.605-40.381-1.303-75.553-13.027-109.421-13.026-36.474-31.263-62.526-57.315-76.855-22.145-11.724-44.29-27.356-71.645-28.658-22.145-1.303-40.382-2.606-61.224 1.302-18.237 3.908-27.355 6.514-33.868 13.027-3.908 5.21-9.119 40.381-9.119 97.697 0 48.198-3.908 102.908-3.908 168.04zm291.79-419.447 22.145 7.815c15.631 5.211 31.263 9.119 46.894 15.632 22.145 9.118 37.777 26.053 58.619 37.776 23.447 13.027 32.566 35.172 44.29 57.316 14.328 27.356 18.236 54.71 22.144 82.066 3.908 31.263-5.21 58.619-13.026 84.671-6.513 23.448-20.842 40.382-36.474 57.316-11.724 13.026-24.75 28.658-39.079 37.776-14.329 9.119-22.145 15.632-36.474 22.145l-14.328 5.21c10.42-9.118 20.842-23.447 28.657-45.591 14.33-42.987 26.053-89.882 26.053-151.106 0-26.052-5.21-50.802-11.724-76.855-5.21-19.54-15.631-41.684-28.658-56.013-13.026-14.33-19.539-29.96-29.96-42.987-10.421-13.027-15.632-19.54-27.355-27.356zm97.697 928.777 9.119-10.421c6.513-7.816 13.026-16.935 20.842-26.053 11.724-14.329 19.54-29.96 27.355-46.895 11.724-23.447 16.934-46.895 22.145-65.131 7.816-28.658 9.118-59.921 6.513-88.58-2.605-35.17-2.605-70.342-15.631-102.907-9.119-22.145-13.027-49.5-27.356-72.948-11.723-19.54-22.144-28.658-31.263-42.987-2.605-3.908-6.513-9.118-11.724-13.026l16.935 3.908c16.934 3.908 29.96 15.631 41.684 23.447 20.842 10.421 39.079 24.75 53.408 41.685 16.934 19.539 32.566 39.079 41.684 65.131 10.421 31.263 20.842 62.527 20.842 97.698 0 32.565-6.513 66.434-14.329 96.394-6.513 24.75-26.052 48.198-46.895 66.435-18.236 16.934-29.96 35.17-52.105 46.894-14.329 7.816-28.658 15.632-44.29 19.54z"/></svg>