<svg xmlns="http://www.w3.org/2000/svg" width="1000" height="1000">
  <path d="M514.865 995.004h-33.037c-20.923-12.114-33.037-33.037-33.037-57.264 0-8.81-8.81-16.519-13.215-20.924-91.401-53.96-178.398-103.515-269.8-157.475-7.709-4.405-16.519-4.405-24.227 0-37.442 16.518-58.365 7.709-79.289-29.733v-28.632c8.81-12.114 13.215-25.328 20.924-29.733 12.113-7.709 16.518-16.519 16.518-33.037v-286.32c0-19.821 0-37.441-20.923-48.453-7.709-3.304-7.709-12.114-16.519-19.822v-29.734c25.329-40.745 49.556-49.555 86.997-28.631 4.405 4.404 16.519 4.404 20.924 0 86.997-49.556 173.994-100.212 265.396-149.767 4.404-4.405 13.214-12.114 13.214-20.924 0-24.227 12.114-40.745 33.037-49.555h33.037c25.328 8.81 37.442 25.328 37.442 49.555 4.405 4.405 7.708 13.215 12.113 16.519 86.997 53.96 178.399 104.616 269.8 158.576 4.406 0 16.52 3.304 20.924 0 28.632-25.328 70.479-13.214 82.592 24.227v29.734c-4.405 7.708-7.708 19.822-20.923 23.125-12.114 12.114-12.114 20.924-12.114 37.442 0 94.706 0 190.513-4.404 286.32 0 16.518 0 33.036 20.923 45.15 8.81 4.405 12.113 16.518 16.518 25.328v28.632c-20.923 37.442-40.745 46.251-78.187 29.733-8.81-4.405-16.518-4.405-20.923 0-91.402 53.96-182.804 103.515-274.206 157.475-7.708 4.405-12.113 12.114-12.113 16.519 4.405 28.632-12.114 49.555-37.442 61.669zm-385.43-347.988c0 20.923 19.822 33.037 36.34 20.923 88.099-62.77 175.096-121.135 262.093-182.804 4.405-4.405 12.113-12.113 12.113-20.923 0-25.328 12.114-45.15 33.037-53.96 8.81-7.709 13.215-16.519 13.215-28.632V125.034c0-24.227-20.923-37.442-41.847-24.227l-260.99 148.666c-8.81 4.404-8.81 16.518-17.62 25.328-7.709 12.113-12.114 28.632-24.227 36.34-8.81 7.709-12.114 16.519-12.114 28.632V489.54zm49.555 91.402c91.402 49.555 182.804 103.515 273.105 153.07 8.81 4.405 16.518 4.405 25.328 4.405h41.847c12.113 0 24.227 0 33.037-4.405 86.997-49.555 178.399-103.515 269.8-153.07 7.709-8.81 12.114-16.519 20.924-25.329-8.81-12.113-13.215-20.923-16.519-24.227-91.402-58.365-179.5-116.73-266.497-175.095-7.708-3.304-19.822-3.304-24.227 0-25.328 13.215-49.555 13.215-70.478-3.304-8.81-4.404-16.519-4.404-25.329 0-86.997 61.67-173.994 120.034-260.99 178.4-16.519 16.518-16.519 36.34 0 49.555zM514.865 381.62c0 12.113 4.405 20.923 12.113 24.227 25.329 13.215 37.442 33.037 37.442 62.77-4.405 12.113 0 16.518 12.114 24.227 88.098 58.365 175.095 116.73 262.092 170.69 4.405 4.405 16.518 7.709 24.227 4.405 4.405-4.405 13.215-16.518 13.215-25.328V335.368c0-7.708-8.81-16.518-13.215-24.227-7.709-11.012-16.519-19.822-24.227-31.935-8.81-13.215-12.114-25.329-20.923-29.733-86.997-49.556-170.69-99.111-257.688-148.666-24.227-13.215-45.15-4.405-45.15 28.632z" style="fill:#000;fill-opacity:1;fill-rule:nonzero;stroke:none;"/>
</svg>
