<svg xmlns="http://www.w3.org/2000/svg" width="1000" height="1000">
  <path d="M5 549.153h63.61c0 127.22 90.21 257.91 215.117 330.772 5.782 2.313 143.411-137.629 136.472-139.942-69.393-24.288-126.063-77.488-158.447-159.603-13.878-49.731-13.878-49.731 38.166-63.61L121.811 292.4C79.019 382.612 50.105 433.5 5 549.154zM136.846 265.8l126.063 150.351 11.565-21.974C323.05 299.34 449.112 205.66 486.122 292.4L668.855 99.258c-79.801-32.383-150.35-57.827-213.96-85.584-2.313 23.131-3.47 41.636-6.94 53.201 0 4.626-27.756 12.722-52.044 20.818-114.497 35.853-202.395 90.21-259.065 178.107zm174.638 629.16c16.191 9.252 31.226 13.878 47.418 19.66l178.108 71.707c8.095-61.297 8.095-52.045 63.61-63.61 137.628-38.166 228.995-109.872 287.979-224.37L740.56 585.007c0 3.469-1.156 6.938-2.313 9.252-32.383 69.392-84.428 122.593-161.916 148.037-45.105 20.818-50.888 12.722-63.61-33.54zm247.5-637.255c10.409 2.313 21.974 6.939 37.01 15.035 71.705 32.383 115.654 75.175 142.254 148.037 18.505 50.888 12.722 50.888-39.322 64.767 9.252 5.782 203.551 178.107 212.803 159.602C940.643 582.693 968.4 538.744 995 458.943h-57.827c-25.444-131.846-72.862-256.752-237.09-342.337z" style="fill:#000;fill-opacity:1;fill-rule:nonzero;stroke:none;"/>
</svg>
