<svg xmlns="http://www.w3.org/2000/svg" viewBox="0 0 1000 1000"><path d="M500,5C226.62,5,5,226.62,5,500S226.62,995,500,995,995,773.38,995,500,773.38,5,500,5ZM333.979,109.224h75.179c-20.361,11.747-87.709,95.541-104.937,158.19H175.789Zm-18.873,444.5a165.509,165.509,0,0,0,13.7,42.288c6.109,11.9,13.783,21.223,22.868,28.036,9.475,6.813,20.674,10.18,33.6,10.18A89.276,89.276,0,0,0,407.2,631.72c6.813-2.036,12.216-4.542,16.288-7.674V530.855H379.713V477.916h99.143V660.539c-10.885,8.849-23.885,15.976-39.156,21.379-14.958,5.4-32.891,8.145-53.957,8.145q-32.107,0-57.559-13.235a125.689,125.689,0,0,1-43.228-38.686c-11.512-16.6-20.518-36.493-26.939-59.517q-9.163-34.653-9.163-76.9,0-41.232,9.163-75.884t26.469-59.517q17.229-25.491,41.74-39.234,24.433-14.214,54.975-14.253,32.068,0,55.523,11.668a97.591,97.591,0,0,1,38.216,32.108L439.7,399.448Q419.339,370,384.725,369.924a53.981,53.981,0,0,0-33.048,10.651Q337.9,391.264,328.81,409.628c-6.108,11.9-10.65,25.765-13.7,41.74a267.749,267.749,0,0,0-4.62,50.433A281.384,281.384,0,0,0,315.106,553.722Zm20.439,337.054L175.789,732.586H300.305c19.578,46.987,54.975,111.829,105.721,158.19Zm148.01,0H448.314c-24.511-17.229-82.54-72.987-118.251-158.19H483.555ZM485.9,267.414H333.979c10.729-32.656,48.867-109.95,115.9-158.19H485.9Zm30.541-158.19h35.241c24.511,17.229,82.54,72.987,118.251,158.19H516.445ZM738.381,471.729v49.885H643.232V628.04H751.146v54.426H584.655V322.076H745.977v53.956H643.232v95.7ZM550.12,890.776H514.1V732.586H666.021C655.292,765.242,617.154,842.536,550.12,890.776Zm115.9,0H590.842c20.361-11.747,87.709-95.541,104.937-158.19H824.211ZM699.7,267.414c-19.578-46.987-54.975-111.829-105.721-158.19h70.481l159.756,158.19Z"/></svg>