<svg xmlns="http://www.w3.org/2000/svg" viewBox="0 0 1000 1000"><path d="M488.689 675.055c72.176 46.322 116.344 29.086 140.044-51.709 10.772-40.935 10.772-78.64 3.231-119.575-7.54-22.623-15.081-49.554-17.236-72.177-7.54-85.103-18.313-168.052-45.245-247.769-60.326-38.781-121.73-23.7-179.902 3.232-46.322 20.468-72.176 49.554-64.635 105.571 29.086 19.39 45.245 48.477 47.4 86.18-18.314 17.237-33.396 37.705-49.555 58.173-61.403-29.086-34.472-80.795-34.472-127.117-9.695 2.155-11.85 2.155-15.082 4.31-4.309 3.231-9.695 9.695-11.85 15.08-10.772-29.085-10.772-29.085-39.858-48.476 0 24.777 2.154 48.477 2.154 72.177-19.39-9.696-37.704-14.005-54.94-23.7-3.231 7.54-3.231 9.695-6.463 11.85l44.167 34.472c-11.85 7.54-20.468 11.85-31.24 18.313-4.31 5.387-6.464 10.773-6.464 17.236 87.258-25.854 102.34 60.327 154.048 89.413 40.936-31.24 61.404-68.945 54.94-117.421 17.237 19.39 32.318 39.858 46.322 57.094 21.546 20.468 30.164 43.09 21.546 73.254-17.236 62.373 2.046 115.051 42.875 163.528.107-.647.215-1.293.215-1.94zM5 736.458c32.318 23.7 64.636 43.09 99.108 66.79L59.94 821.562c44.168 18.313 79.717 22.622 108.803 42.013 31.24 17.236 58.172 51.708 92.644 82.949 20.468-77.563 38.782-145.43 56.018-213.297 36.627-4.31 84.026-11.85 128.194-19.391 16.805-2.047 39.643-11.311 42.875-36.627-58.065-7.54-116.237-19.39-178.61-23.7-46.322-4.308-57.095 7.541-59.25 53.863-4.308 40.936 0 78.64-4.308 117.422 0 9.695-2.155 19.39-4.31 31.24-6.463-2.154-9.694-2.154-11.849-2.154V704.14c-6.464 0-8.618 0-12.927-2.154-10.773 19.39-19.39 37.704-28.009 58.172-31.24-31.24-3.232-77.562-36.627-104.494-4.309 2.155-9.695 2.155-9.695 2.155-3.232 29.086-6.463 56.017-6.463 90.49-22.623-29.087-37.704-56.018-58.172-80.795-10.773-14.004-22.623-21.545-37.704 2.154 10.772 34.473 56.017 49.554 61.403 95.876-19.39-10.772-34.472-17.236-46.322-25.854-15.081-10.772-29.086-23.7-50.63-3.232zm483.47-59.277.003-.187.216.215zm126.258-392.094c-5.386 53.863 0 53.863 36.627 53.863 49.554 0 85.103-17.236 102.34-71.099 2.154-10.772 10.772-25.854 14.004-37.704 11.85-31.24 28.009-50.631 60.326-65.713 9.696-4.309 19.39-11.85 29.086-23.7h-44.167c15.081-20.467 29.086-34.472 42.013-52.785-3.232-2.154-5.387-6.464-7.541-10.773-15.082 8.619-29.086 17.237-44.168 24.777-18.313-14.004 5.387-43.09-29.086-48.476-3.231 14.004-9.695 32.318-15.081 48.476-11.85-5.386-22.623-7.54-32.318-10.772 54.94 80.794-8.618 138.966-23.7 205.756-31.24-4.309-59.249-7.54-88.335-11.85zm29.086 372.732c21.545-2.155 48.477-8.618 82.949-17.237-23.7 46.323-44.168 84.027-63.558 124.962 39.858 0 75.408-3.231 110.957 0 34.473 5.387 65.713 18.314 109.88 29.086-8.617-17.236-15.08-25.854-19.39-44.167 19.39 6.463 37.704 9.695 54.94 9.695 16.16 2.155 33.395 10.773 48.477-17.236-28.009-3.232-52.786-6.464-84.026-11.85 37.704-26.931 84.026-15.081 110.957-53.863-37.704-31.24-73.253 22.623-110.957 5.387 18.313-18.314 31.24-36.627 56.017-59.25-58.172-23.7-61.404 49.554-100.185 46.322 2.155-20.467 11.85-49.553 2.155-58.171-21.546-20.468 18.313-39.859-2.155-61.404-80.794 0-178.825 56.017-196.06 107.726zm82.949 61.403 81.872-99.107c2.154 57.094-26.932 87.257-81.872 99.107z"/></svg>