<svg xmlns="http://www.w3.org/2000/svg" width="1000" height="1000">
  <path d="M406.582 523.116v-69.91h190.793c107.776 4.37 177.685-68.452 182.054-171.859 10.195-84.473-37.867-152.925-117.97-186.424-45.15-20.39-91.756-23.302-138.362-23.302H406.582V6.08c97.581 0 199.532-10.195 294.2 32.042 110.689 48.062 167.49 158.751 144.187 284.004-14.564 65.54-42.237 117.972-99.038 158.752 5.826 4.37 8.739 4.37 8.739 10.195 103.407 64.083 145.644 158.751 122.34 279.636-18.933 117.97-94.668 176.228-202.444 205.357-68.452 18.934-138.361 14.564-203.9 14.564C359.976 995 247.83 995 135.685 995c-5.826 0-10.195 0-18.934-4.37V6.081h211.183v768.998h21.847c78.647 0 163.12 4.37 241.768 0 18.934 0 39.324-4.37 52.432-14.564 14.564-8.74 23.303-27.673 17.477-45.15-2.913-18.934-14.564-37.867-36.41-43.693-8.74 0-18.934-2.913-33.499-2.913H406.582v-66.996h18.934c58.257 0 116.514-2.913 176.228 0 72.822 0 131.08 53.888 131.08 122.34 0 65.54-59.714 122.341-131.08 122.341h-339.35V74.534h-77.19v844.732h14.564c120.884 0 240.312 7.282 355.37 0 55.345 0 106.32-8.739 157.295-30.585 84.474-39.324 117.972-122.34 99.038-217.009-17.477-87.386-93.212-148.556-180.598-148.556H428.428zm0-144.188V309.02h167.49c36.41 0 56.801-17.478 56.801-46.606 0-27.673-24.76-46.606-56.801-46.606h-167.49v-65.54h171.86c68.452 0 116.514 46.606 122.34 112.146 0 65.54-53.888 116.514-122.34 116.514H415.32z" style="fill:#000;fill-opacity:1;fill-rule:nonzero;stroke:none;"/>
</svg>
