<svg xmlns="http://www.w3.org/2000/svg" viewBox="0 0 1000 1000"><path d="M500.496 5C223.572 5 5 229.506 5 500.002c0 276.43 224.506 495.001 495.002 495.001 276.43 0 495.001-224.506 495.001-495.001C995.003 226.539 773.464 5 500.496 5zM185.001 635.991V507.42c0-53.407 12.857-105.824 39.56-153.297 56.374-99.89 154.286-163.187 265.056-170.11 147.363-9.89 277.913 78.132 326.375 215.605 12.857 33.626 18.791 70.22 18.791 106.813v129.561c0 34.616-19.78 58.352-46.484 58.352-27.692 0-45.494-20.77-45.494-58.352V521.265c0-29.67-14.836-55.384-44.506-55.384-30.66 0-47.473 25.714-47.473 55.384v114.726c0 35.605-10.879 58.352-47.472 58.352-34.616 0-44.506-22.747-44.506-60.33v-120.66c0-26.703-14.835-49.45-43.517-50.44-31.648 0-50.44 23.737-50.44 54.396v115.715c0 37.583-14.835 61.319-48.461 61.319-27.692 0-45.495-22.747-45.495-58.352V517.31c0-30.66-11.868-54.395-44.505-54.395-27.693 0-48.462 23.736-48.462 54.395v116.704c0 39.56-24.725 57.363-50.44 57.363-26.703 0-42.527-17.802-42.527-55.385z"/></svg>