<svg width="1000" height="1000" viewBox="0 0 1000 1000" fill="none" xmlns="http://www.w3.org/2000/svg">
<path fill-rule="evenodd" clip-rule="evenodd" d="M500 995C773.381 995 995 773.381 995 500C995 226.619 773.381 5 500 5C226.619 5 5 226.619 5 500C5 773.381 226.619 995 500 995ZM203.637 285.731L349.368 140H418.627C399.869 150.822 337.825 228.016 321.954 285.731H203.637ZM489.328 140V285.731H349.368C359.228 255.671 394.386 184.441 456.142 140H489.328ZM517.465 285.731H658.867C625.97 207.238 572.535 155.872 549.93 140H517.465V285.731ZM800.992 285.731H686.282C668.246 242.445 635.637 182.709 588.888 140H653.817L800.992 285.731ZM318.346 714.268H203.637L350.811 860H415.741C368.992 817.291 336.382 757.555 318.346 714.268ZM345.761 714.268H487.164V860H454.699C432.094 844.128 378.659 792.761 345.761 714.268ZM515.3 714.268L515.3 860H548.487C610.242 815.559 645.401 744.329 655.26 714.269L515.3 714.268ZM655.26 860L800.992 714.269H682.675C666.803 771.984 604.759 849.178 586.002 860H655.26ZM391.607 650.78L392.437 425.113H391.192L332.287 650.78H293.293L235.631 425.113H234.387L235.216 650.78H190V357.081H256.788L313.204 571.963H314.864L370.036 357.081H440.142V650.78H391.607ZM669.167 568.644C669.167 584.131 666.54 597.129 661.285 607.638C656.307 617.871 649.808 626.305 641.788 632.943C634.045 639.303 625.195 643.867 615.239 646.632C605.56 649.398 596.019 650.78 586.616 650.78H499.502V357.081H577.49C586.063 357.081 595.189 358.187 604.869 360.4C614.548 362.336 623.398 366.069 631.418 371.6C639.438 376.855 646.075 384.322 651.329 394.001C656.584 403.404 659.211 415.71 659.211 430.921C659.211 449.173 655.339 463.554 647.596 474.063C639.852 484.572 630.865 491.901 620.632 496.049V496.879C626.163 498.261 631.694 500.612 637.225 503.931C643.033 507.249 648.287 511.951 652.989 518.035C657.69 523.843 661.562 531.033 664.604 539.606C667.646 547.903 669.167 557.582 669.167 568.644ZM614.41 438.802C614.41 431.336 613.165 425.113 610.676 420.135C608.464 414.881 605.422 410.732 601.55 407.69C597.955 404.372 593.668 402.021 588.69 400.638C583.712 399.255 578.596 398.564 573.341 398.564H545.963V480.285H574.171C579.149 480.285 583.989 479.594 588.69 478.211C593.668 476.552 597.955 474.063 601.55 470.744C605.422 467.426 608.464 463.139 610.676 457.885C613.165 452.63 614.41 446.269 614.41 438.802ZM621.462 564.496C621.462 555.923 620.079 548.732 617.313 542.925C614.548 536.841 610.953 532.001 606.528 528.406C602.103 524.534 597.263 521.768 592.009 520.109C586.754 518.45 581.5 517.62 576.245 517.62H545.963V609.297H577.49C583.574 609.297 589.243 608.468 594.498 606.808C599.752 604.873 604.315 602.107 608.187 598.512C612.335 594.64 615.516 589.939 617.728 584.408C620.217 578.877 621.462 572.239 621.462 564.496ZM788.039 650.78V399.394H843.211V357.081H683.916V399.394H739.089V650.78H788.039Z" fill="black"/>
</svg>
