<svg xmlns="http://www.w3.org/2000/svg" viewBox="0 0 1000 1000"><path d="M289,2,87,204H251C273,124,359,17,385,2ZM483,204V2H437C351.4,63.6,302.7,162.3,289,204Zm39,0H718C672.4,95.2,598.3,24,567,2H522Zm234,0H915L711,2H621C685.8,61.2,731,144,756,204Zm-43,796L915,798H751c-22,80-108,187-134,202ZM519,798v202h46c85.6-61.6,134.3-160.3,148-202Zm-39,0H284c45.6,108.8,119.7,180,151,202h45Zm-234,0H87l204,202h90C316.2,940.8,271,858,246,798ZM465.3,584.5q0,37.05-10.4,67c-6.9,19.5-16.5,36.2-28.6,50a125.38,125.38,0,0,1-43.6,31.2,144.67,144.67,0,0,1-55.2,10.4q-30.6,0-55.9-10.4A127.26,127.26,0,0,1,228,701.5c-12.1-13.4-21.7-29.9-28.6-49.4q-9.75-29.25-9.8-65.6c0-25.1,3.2-48.5,9.8-70.2A399.08,399.08,0,0,1,226,451.9l91-178.1h85.1L308.5,449.3l.6.7a46.7,46.7,0,0,1,18.2-9.8,81.4,81.4,0,0,1,22.1-3.2,107.19,107.19,0,0,1,43.6,9.1,92.32,92.32,0,0,1,37,26.7q16.2,17.55,25.4,45.5C462.1,536.8,465.3,558.9,465.3,584.5Zm-74.1-.7q0-40.35-15.6-66.3t-46.8-26a49.31,49.31,0,0,0-26.6,7.2A65.56,65.56,0,0,0,282,518.8,95.25,95.25,0,0,0,269,548a144,144,0,0,0-4.5,37.1q0,42.3,16.9,68.2,17,25.35,46.8,25.3t46.1-26C385.6,635,391.2,612,391.2,583.8ZM769.5,362.9q-25.35-30.6-63.7-30.6a60.07,60.07,0,0,0-21.4,3.9,50.46,50.46,0,0,0-18.9,11,55.35,55.35,0,0,0-13.6,20.1c-3,8.2-4.6,18-4.6,29.2q0,29.25,17.6,45.5,17.55,15.6,46.1,29.9a382.11,382.11,0,0,1,34.5,19.5,152.39,152.39,0,0,1,31.8,26.7,131.1,131.1,0,0,1,23.4,37c6.1,14.2,9.1,31.2,9.1,50.7,0,22.5-3.7,42.5-11,59.8a129.77,129.77,0,0,1-28.6,44.2,115.49,115.49,0,0,1-41.6,26.6,141.07,141.07,0,0,1-50.7,9.1q-38.4,0-70.9-15c-21.7-10-39-22.5-52-37.7l42.2-57.2A108.94,108.94,0,0,0,633,664.2c14.3,6.9,28.8,10.4,43.5,10.4,16.5,0,30.1-5.6,41-16.9s16.2-27.1,16.2-47.5c0-19.9-6.5-35.8-19.5-47.5s-29.5-22.5-49.4-32.5A334.18,334.18,0,0,1,629,510.1a150.29,150.29,0,0,1-29.2-26,136.88,136.88,0,0,1-20.2-35.8c-4.8-13.9-7.2-30.3-7.2-49.4q0-35.7,11.1-61.1,11.7-25.95,29.9-42.9a119.68,119.68,0,0,1,42.2-24.7,139.51,139.51,0,0,1,47.5-8.4q35.1,0,62.4,11.7a117.21,117.21,0,0,1,46.8,33.2Z"/></svg>