<svg xmlns="http://www.w3.org/2000/svg" width="1000" height="1000">
  <path d="M945.456 327.536V672.81c0 61.746-22.683 104.59-73.088 133.573-99.55 56.706-199.1 109.631-293.61 165.077-51.665 30.243-100.81 30.243-153.735 6.3-91.99-55.445-192.8-109.63-289.83-171.377-54.185-28.983-80.648-78.128-80.648-146.175 5.04-109.63 0-215.481 0-326.373 0-56.706 18.902-95.77 65.527-123.492 109.63-65.527 211.701-131.054 322.593-191.54 39.063-21.422 79.388-15.121 118.452 0 84.428 51.665 171.377 102.07 254.545 153.736 22.683 10.08 51.666 26.463 73.088 37.804 40.324 27.723 56.706 66.786 56.706 117.192zM103.69 665.25c0 40.324 16.382 75.608 50.405 90.73 99.55 61.745 201.62 117.191 301.17 171.377 32.764 21.422 66.788 17.641 99.55 0 97.03-59.226 195.32-117.192 289.83-171.378 34.024-15.121 44.105-42.844 44.105-76.868V333.836c6.3-40.324-10.081-69.307-50.405-90.729-97.03-51.665-186.5-109.631-283.53-167.597-32.762-17.642-66.786-22.682-99.55 0-94.509 57.966-196.58 114.672-296.13 167.597-32.763 21.422-55.445 56.706-55.445 93.25zm94.51-49.145V382.98c0-35.283 17.641-61.746 50.405-83.168 61.746-35.284 123.492-68.047 183.978-104.59 45.365-27.724 83.169-34.024 128.534 0 61.746 36.543 127.272 70.566 194.06 108.37 28.982 16.382 44.104 44.105 44.104 79.388v244.465c0 27.723-8.821 55.446-37.804 66.787-73.088 46.625-151.215 86.949-229.343 133.573-21.423 12.602-44.105 12.602-66.787 0-73.088-44.104-143.655-81.908-216.742-127.273-32.764-17.641-50.405-45.364-50.405-84.428zm42.844-5.04c0 26.462 12.601 49.144 40.324 68.046 61.746 34.024 122.233 66.787 183.979 104.59 22.682 11.342 45.364 11.342 66.787 0 69.307-37.803 136.093-76.867 200.36-118.451 17.642-11.341 22.682-27.723 22.682-49.145V388.022c0-22.683-5.04-40.324-22.682-51.666-70.567-36.543-138.614-76.867-210.441-113.411-11.342-12.601-34.024-12.601-44.105 0-69.307 36.544-139.874 76.868-211.701 113.411-17.642 11.342-25.203 23.943-25.203 46.625v115.932c0 41.584 7.56 75.608 0 112.151zm102.07-112.152V472.45c7.561-44.104 12.602-68.047 49.145-84.428 27.723-17.642 50.406-27.723 73.088-45.365 22.682-8.82 45.364-8.82 66.787 0 28.983 17.642 61.746 34.024 90.729 50.405 28.983 16.382 32.763 34.024 32.763 61.747v56.705c0 83.169-27.723 94.51-76.868 126.013-56.705 41.584-100.81 35.284-158.776-5.04-54.185-34.024-74.347-55.446-76.868-133.574zm34.024-5.04c-1.26 59.226 0 80.648 47.885 104.59 57.966 39.064 84.428 39.064 146.175 7.56 45.364-22.681 51.665-50.404 56.705-88.208 6.301-66.787-22.682-99.55-78.128-134.834-71.827-31.503-71.827-10.08-110.89 10.081-52.926 32.764-56.707 51.665-61.747 100.81z" style="fill:#000;fill-opacity:1;fill-rule:nonzero;stroke:none;"/>
</svg>
