<svg xmlns="http://www.w3.org/2000/svg" width="1000" height="1000">
  <path d="M10.052 594.548C-2.245 544.336 8.002 491.05 39.769 452.11c23.569-24.594 49.188-39.965 83.004-51.237 18.445-5.124 18.445 11.272-1.025 18.445-61.484 22.544-96.325 95.3-76.855 159.86 16.396 48.162 62.509 73.78 117.845 67.632 22.544-3.074 47.138-11.272 71.732-24.594 45.088-24.593 85.053-55.336 125.018-92.226l-86.078-92.227c-6.149-7.173-9.223-10.247 0-19.47 4.099-4.099 11.272-4.099 15.37 1.025 31.768 33.816 38.94 40.99 88.128 94.276 25.619-25.619 140.39-121.944 179.33-148.587 92.226-61.485 175.23-85.054 285.902-56.361 211.096 65.583 202.899 324.843-20.495 383.253-133.216 31.767-267.457-2.05-394.524-98.375-4.1-3.075-32.792-27.668-34.842-28.693-11.272 11.272-71.731 55.336-100.424 72.756-49.188 34.842-101.45 52.262-154.736 51.237-60.46-3.074-110.672-39.964-127.067-94.276zm153.71-211.096c0-22.544 17.421-39.965 38.94-39.965 23.57 0 42.015 18.445 42.015 43.04 0 21.519-19.47 38.94-42.014 38.94-21.52 0-38.94-18.446-38.94-42.015zm252.086 160.884 46.114 33.817c91.202 60.46 182.403 88.127 278.729 86.078 43.039-3.075 86.078-13.322 125.018-36.89 73.781-52.263 90.177-150.638 36.89-216.221-64.558-78.905-182.403-81.98-285.902-24.594-50.212 25.619-115.795 80.955-200.849 157.81z" style="fill:#000;fill-opacity:1;fill-rule:nonzero;stroke:none;"/>
</svg>
