<svg xmlns="http://www.w3.org/2000/svg" viewBox="0 0 1000 1000"><path d="M994.997 529.289c-2.528 20.23-5.057 39.195-8.85 56.896-1.265 10.115-3.793 21.494-6.322 34.138-5.057-8.85-8.85-12.644-12.644-17.701-24.023-37.931-59.425-59.425-102.413-73.333-61.954-13.908-132.758 11.379-169.425 63.218-12.644 15.172-25.287 31.609-39.195 49.31-20.23 29.08-46.782 50.575-84.713 63.218-30.344 8.85-61.954 21.494-93.563 24.023-75.862 16.437-144.137-40.46-154.252-134.022-3.793-91.035-11.38-201.034 79.655-284.482 84.712-79.655 67.011-217.471-36.667-274.368-2.529-3.793-7.586-6.321-11.38-8.85v-2.529C509.482-3.009 603.045-8.066 730.746 61.474c73.333 37.93 134.023 93.563 180.804 164.367 63.219 91.034 83.448 175.747 83.448 303.448zM5 461.013C18.908 356.07 44.195 278.944 109.942 192.968c2.529-1.265 3.793-3.793 6.322-6.322 2.529 13.908 6.322 27.816 6.322 39.195 5.057 22.759 16.437 44.253 30.345 64.483 44.252 51.839 67.01 111.264 64.482 180.804-2.529 32.873 0 65.747-2.529 93.563-3.793 51.839-25.287 96.091-56.896 136.551-13.908 18.966-30.345 40.46-41.724 60.69-3.793 11.379-8.85 21.494-15.172 35.402-8.85-18.966-21.495-35.402-31.61-49.31C6.265 635.495 5 593.77 5 461.013zm178.275 378.045c-3.793-49.31 34.138-91.034 80.92-93.563 50.574-2.529 91.034 32.873 92.298 87.241 2.529 45.517-32.873 85.977-84.712 88.506-44.253 2.528-87.241-34.138-88.506-82.184zm17.701-649.883c0-53.104 37.931-91.035 85.977-91.035 46.782 0 89.77 37.931 89.77 85.977 0 48.046-40.46 89.77-89.77 89.77-45.517 0-85.977-41.724-85.977-84.712zM364.08 975.609c7.587-7.586 13.909-12.643 20.23-16.436 39.196-53.104 84.713-106.207 118.85-113.793 35.403-16.437 75.862-29.08 116.322-29.08 36.667 0 74.598 5.057 108.735 21.494 31.61 12.643 61.954 29.08 101.15 29.08 0 0 0 3.793 2.528 6.322-3.793 1.264-11.379 2.528-13.908 5.057C683.964 986.99 555 1012.276 386.838 983.195c-6.322-2.528-12.644-5.057-22.759-7.586zm376.78-279.424c0-50.575 35.402-87.241 87.241-87.241 48.046 0 87.241 36.666 87.241 87.24 0 49.31-39.195 89.77-85.976 89.77-50.575-2.528-88.506-42.988-88.506-89.77z"/></svg>