<svg xmlns="http://www.w3.org/2000/svg" width="1000" height="1000">
  <path d="M500.496 5C223.572 5 5 229.506 5 500.002c0 276.43 224.506 495.001 495.002 495.001 276.43 0 495.001-224.506 495.001-495.001C995.003 226.539 773.464 5 500.496 5zM196.87 659.727V343.243c0-12.857 3.956-19.78 18.791-28.682 29.67-17.802 60.33-35.604 90-53.406 0 0 3.956 0 3.956 4.945v329.342c0 15.824 3.956 25.714 20.77 32.637 53.406 31.648 109.78 62.308 165.165 94.945 8.901 4.945 17.802 4.945 29.67 0 51.43-28.681 107.803-63.297 160.22-94.945 18.792-6.923 21.76-16.813 21.76-32.637V409.507c0-18.791-2.968-25.715-16.814-35.605-57.363-30.66-107.803-59.34-160.22-90.989-12.858-6.923-24.726-9.89-38.572 0-21.758 13.846-47.473 25.714-73.187 40.55-4.945 2.967-4.945 4.945-4.945-8.902V213.682c0-7.912 4.945-16.813 11.868-20.77 21.758-14.835 44.506-26.703 66.264-39.56 12.857-6.923 25.714-6.923 38.572 0 46.483 31.649 94.945 56.374 142.418 88.022 44.505 24.726 88.022 47.473 129.56 73.187 12.858 8.902 17.803 15.825 17.803 28.682v316.484c0 16.814-7.912 24.726-21.759 34.616-78.132 43.517-154.286 90-237.363 133.517-11.868 8.901-24.725 14.835-40.55 23.736-9.89 4.945-14.835 3.956-24.725-1.978-94.945-51.429-185.935-108.791-279.89-159.231-14.836-5.934-18.792-18.791-18.792-30.66zm216.594-117.692v-72.198c0-12.857 4.945-21.759 17.802-31.649 19.78-10.879 42.528-24.725 64.286-38.571 8.901-5.934 17.802-5.934 24.725 0 28.682 17.802 48.462 31.648 69.231 44.505 9.89 6.923 13.847 6.923 13.847 15.825v82.088c0 9.89 0 13.846-13.847 22.747-20.769 11.868-47.472 30.66-69.23 43.517-6.924 2.967-14.836 3.956-24.726 0-21.758-12.857-42.528-26.704-70.22-40.55-6.923-6.923-11.868-15.824-11.868-25.714zm33.626 18.791h126.594v-21.758h-91.978c-2.967-18.792 5.934-22.748 18.791-22.748 14.835 0 29.67-.989 41.539-.989 18.791 0 31.648-14.835 31.648-33.626 0-21.758-12.857-33.627-31.648-33.627h-72.198c-12.857 0-16.814 2.967-16.814 21.759h77.144c5.934 0 8.9 7.912 8.9 11.868 0 6.923-5.933 12.857-21.758 12.857h-38.571c-13.846 0-25.715 9.89-31.649 21.758z" style="fill:#000;fill-opacity:1;fill-rule:nonzero;stroke:none;"/>
</svg>
