<?xml version="1.0" encoding="utf-8"?>
<!-- Generator: Adobe Illustrator 26.0.1, SVG Export Plug-In . SVG Version: 6.00 Build 0)  -->
<svg version="1.1" xmlns="http://www.w3.org/2000/svg" xmlns:xlink="http://www.w3.org/1999/xlink" x="0px" y="0px"
	 viewBox="0 0 1000 1000" style="enable-background:new 0 0 1000 1000;" xml:space="preserve">
<g id="Layer_1">
</g>
<g id="Layer_3">
</g>
<g id="Layer_2">
	<g>
		<path d="M420.1,652.1c11.8-2.5,130.6-119.4,156.1-123.1c19.9-2.5,125.6,74,154.2,69c15.6-2.2,60.4-78.7,76.1-96.1
			c-4.9-18.7-11.3-37-19.5-54.4c0-14.9-126.9-26.7-283.6-26.7s-283.6,30.5-283.6,45.4c0,0.3,0.1,0.7,0.2,1
			c-3.5,8.9-29.3,75.3-36.1,142.4c27.8-23.8,73.8-65.9,86.2-65C285.7,545.8,408.2,654.6,420.1,652.1z"/>
		<path d="M745.9,646.5c-14.9,3.7-136.2-84.6-162.3-82.1c-46.6,3.1-142.4,143.7-154.8,146.1c-14.9,2.5-121.9-125.6-160.4-130.6
			c-9.1-1.3-55.1,50.9-85.1,80.3c0.1,1.6,0.3,3.2,0.5,4.9c9.3,82.1,64.7,204,200.2,233.8c135.6,29.9,223.3-5,298.5-38.6
			c74.6-33.6,126.2-103.9,133.7-170.4c5-44.3,6.9-102.2-3.4-159.3C800.7,539.4,757.2,643.5,745.9,646.5z"/>
		<path d="M908.9,542.7c-16.8-86.4-54.7-155.5-70.3-181c-38.6-63.4-133.1-181-244.4-220.1c1.2-8.7,1.9-18,1.9-28.6l-1.9-57.2
			c-0.6-33.6-39.8-42.3-52.9-45.4c-21.1-5-46.6-6.8-72.1-6.2S416.9,9.7,394.6,19c-11.8,5-47.3,19.3-46.6,51v2.5
			c1.2,13.7,5,54.1,11.2,79.6c-19.9,8.1-44.8,26.1-75.2,54.1c-41.7,37.9-80.8,84.6-110.7,130.6C125.9,409,96.1,487.3,86.7,561.9
			c-11.8,89.6,5,174.1,48.5,251.2C182.5,895.9,282,995.4,489.7,996c0.6,0,0.6,0,1.2,0c60.3,0,257.5-13.1,367.5-176.6
			C912,739.2,928.8,646.5,908.9,542.7z M469.8,37.7c48.5-1.2,90.2,9.6,90.2,18.6S520.2,88.7,471,89.9c-48.5,1.2-90.2-12.6-90.2-21.6
			C380.3,59.3,420.7,38.9,469.8,37.7z M829.3,800.7c-102,153.6-291,161.7-339.5,161.7c-60.9,0-235.7-7.5-325.2-166
			c-85.8-151.7-45.4-315.3,36.7-441.5c64.1-98.9,156.1-173.5,179.7-174.7c4.4,0,11.2,4.4,21.8,9.3c14.9,6.8,37.9,15.5,74,12.4
			c0,0,0.1,0,0.1,0c5.5,0,10.6-0.6,15.5-1.7c31.8-4,50.2-10.4,61.5-16.4c14.9-7.5,18.7-13.7,24.9-11.2
			c107,36.1,197.8,153.6,230.7,207.1C844.8,438.2,941.8,632.2,829.3,800.7z"/>
		<path d="M183.9,609.6c-11,9.4-19.2,16-21.4,15.8c-4.4,0-14.9-76.5-16.2-60.9c-1.2,24.3,7.5,111.3,11.2,115
			c2.3,2.5,12.4-6.1,25.6-19.2C181.8,644,182.2,626.8,183.9,609.6z"/>
		<path d="M806.5,501.9c2.5,9.5,4.6,19.2,6.3,28.8c0.6-0.4,1.1-0.6,1.5-0.6c6.2,0.6,52.2,60.9,46,44.8
			c-6.8-17.4-41.7-77.1-49.8-76.5C809.7,498.8,808.2,500,806.5,501.9z"/>
	</g>
</g>
</svg>
