<svg xmlns="http://www.w3.org/2000/svg" viewBox="0 0 1000 1000"><path d="M395.51 923.33c-74.518 0-145.597-11.464-212.09-47.003-84.837-43.565-143.305-111.205-168.527-206.36-13.757-53.882-12.61-108.91 0-163.94 20.636-83.69 60.761-155.915 120.376-217.823 96.3-105.472 214.384-171.966 354.25-200.627 47.003-8.025 92.86-12.61 139.865-10.318 76.811 3.44 147.89 21.783 214.384 63.055 74.518 45.857 123.815 113.497 143.304 199.48 13.758 61.907 9.172 122.669-10.318 183.43-21.782 73.372-61.907 138.719-114.643 194.894-88.276 94.008-197.188 155.916-323.296 188.016-50.443 12.61-95.154 17.197-143.305 17.197zM134.123 525.518c1.146 11.464 1.146 28.66 3.439 45.857 11.464 71.08 41.272 132.987 92.861 183.43 87.13 85.983 192.602 119.23 312.978 102.033 91.715-13.757 168.526-53.882 230.434-122.669 79.104-85.982 113.497-188.015 96.3-304.952-10.317-71.08-41.271-132.987-91.714-182.284-90.569-89.422-199.48-119.23-322.15-98.593-84.836 13.757-155.915 51.59-216.676 113.497-68.786 71.08-104.326 157.062-105.472 263.68zm224.701 168.526v-386.35c0-6.878 1.147-14.903 8.025-18.342 6.88-1.147 10.318 0 14.904 2.292 72.226 43.565 143.305 87.13 213.238 129.548 35.54 22.929 71.079 43.565 106.618 65.347 12.611 9.171 12.611 21.782 0 28.66C596.137 580.547 489.52 643.6 384.046 708.948c-6.879 3.44-11.464 4.586-18.343 1.146-5.732-3.44-6.879-10.318-6.879-16.05z"/></svg>