<svg xmlns="http://www.w3.org/2000/svg" width="1000" height="1000">
  <path d="M5 500.496c0 271.98 220.55 494.507 495.496 494.507 271.98 0 494.507-220.55 494.507-495.496C995.003 227.528 773.464 5 500.496 5 226.54 5 5 225.55 5 500.496zM88.077 387.75v-13.847h332.309c4.945 0 11.868-.989 11.868 4.945 0 7.913-1.978 8.902-9.89 8.902H196.869zm0-39.561v-15.824h342.2c2.966 0 2.966 3.956 1.977 8.9 0 4.946-3.956 6.924-7.912 6.924zm144.396 410.44V424.343c0-7.912 0-8.901 8.901-8.901 6.924 0 5.935 2.967 6.924 6.923V758.63zm39.56 0V424.343c0-7.912 1.979-10.88 7.913-8.901 3.956 0 5.934 0 7.912 2.967v340.22zm207.694-36.593c0-6.923 2.967-7.912 4.945-9.89l370.88-370.88c2.967-2.967 5.934-9.89 11.868-2.967 6.924 3.956 6.924 4.945 0 12.857-51.428 50.44-101.868 101.868-153.297 153.297-19.78 18.791-39.56 40.55-61.319 61.32-48.461 49.45-98.901 98.9-148.352 148.351-3.956 2.967-8.9 7.912-13.846 13.846 0 0-.989 1.978-3.956 2.967-1.978-2.967-4.945-4.945-6.923-8.9zm2.967-344.177c-3.956-3.956-3.956-7.912 0-11.868 3.956-2.967 6.923-2.967 8.901 1.978 48.462 47.473 97.912 94.946 145.385 144.396 1.978 1.978 2.967 3.956 4.945 4.945-2.967 1.978-4.945 5.934-7.912 6.923 0 1.979-5.934 0-6.923-.989-47.473-49.45-95.934-96.923-144.396-145.385zm27.692-39.56c4.945-5.934 7.912-3.956 11.868 0 10.88 12.857 23.737 25.714 36.594 39.56 35.605 33.627 69.231 70.22 104.836 103.847 2.967 1.978 3.956 4.945 5.934 6.923-2.967 3.956-3.956 6.923-6.923 8.901-1.979 1.978-5.935 0-7.913-2.967-7.912-7.912-123.626-124.616-142.418-143.407-7.912-7.912-6.923-7.912-1.978-12.857zm4.945 399.562c53.407-53.407 104.836-105.825 158.243-159.232 69.23-68.242 138.462-138.462 207.693-206.704 7.912-8.9 7.912-8.9 20.769-1.978 0 .99 0 2.967-7.912 10.88-46.484 45.494-92.967 91.978-136.484 136.483-79.121 79.122-157.253 157.254-233.407 234.397l-7.913 6.923c-8.9-12.857-8.9-12.857-.989-20.77zm198.792-127.583c-6.923-5.934-6.923-5.934 0-11.868 3.956-3.956 5.934-3.956 9.89 0 48.462 48.461 95.935 94.945 144.396 145.385 7.913 4.945-2.967 16.813-6.923 14.835-2.967-3.956-3.956-6.923-6.923-8.901-46.483-47.473-94.945-93.957-140.44-139.451zm26.704-40.55c5.934-5.934 5.934-5.934 12.857 0 27.692 29.67 58.352 58.352 86.044 88.022 20.77 20.77 42.528 41.539 62.308 61.32 1.978 2.966-8.901 14.835-20.77.988-46.483-45.494-92.967-91.978-138.461-136.484-5.934-5.934-6.923-9.89-1.978-13.846z" style="fill:#000;fill-opacity:1;fill-rule:nonzero;stroke:none;"/>
</svg>
