<svg xmlns="http://www.w3.org/2000/svg" width="1000" height="1000">
  <path d="M5 500.002v.395-.395c.099-89.506 22.55-172.682 67.253-249.726 44.209-74.473 103.55-133.814 178.023-178.023C327.419 27.45 410.694 5 500.002 5c89.308 0 172.583 22.45 249.726 67.253C824.2 116.462 883.54 175.803 927.75 250.276c44.803 77.143 67.253 160.418 67.253 249.726 0 89.308-22.45 172.583-67.253 249.726C883.541 824.2 824.2 883.54 749.728 927.75c-77.143 44.803-160.418 67.253-249.726 67.253-89.308 0-172.583-22.45-249.726-67.253-74.473-44.209-133.814-103.55-178.023-178.022C27.55 672.684 5.099 589.508 5 500.002zm153.297 222.033c-.989 2.967-8.9 9.89 1.978 9.89 25.715-.989 75.165-.989 132.528-.989l65.275-129.56H235.44c-4.945 0-8.9 0-11.868 5.934-21.758 37.582-43.516 76.154-65.275 114.725zm90-176.044c-7.912 13.846-6.923 14.835 8.902 14.835h122.637l66.264-129.56H322.474c-4.945 0-8.902 0-11.869 4.944-20.769 36.594-42.527 74.176-62.307 109.78zm61.32 184.945c41.538-.989 87.033-.989 128.571-.989l70.22-128.571H375.88zm17.802-352.089c-4.945 6.923-2.967 10.88 5.934 10.88H466.87l67.253-130.55H394.672c0-.99-61.32 107.802-67.253 119.67zm69.23 181.979c44.506 0 92.968-.989 134.507-.989l68.242-128.572H462.914zm61.32 169.121h130.55c6.923 0 12.857-1.978 14.835-7.912 20.769-35.604 40.55-72.198 61.319-109.78 4.945-7.912 3.956-10.88-6.924-10.88H528.19zm26.703-340.22H616.21l74.176-130.55H551.925zm63.297 170.11H676.54c5.934 0 9.89-1.978 11.868-6.923 21.758-36.594 42.527-75.165 63.297-112.748 3.956-6.923 1.978-8.9-5.934-8.9H616.21zm88.022-170.11c63.297-.99 106.814-.99 120.66-.99 6.923 0 10.879-.988 13.846-6.923 20.77-37.582 40.55-74.176 62.308-110.77 2.967-4.944 8.901-11.867 0-11.867H708.189z" style="fill:#000;fill-opacity:1;fill-rule:nonzero;stroke:none;"/>
</svg>
