<svg xmlns="http://www.w3.org/2000/svg" viewBox="0 0 1000 1000"><path d="M500.496 5c272.968 0 494.507 221.54 494.507 495.002 0 270.495-218.572 495.001-495.001 495.001C229.506 995.003 5 776.431 5 500.002 5 229.506 223.572 5 500.496 5zM284.891 664.673c0 50.44 39.56 77.143 84.066 66.263 34.616-10.879 50.44-32.637 50.44-71.209V194.891c-4.945-39.56-33.626-68.242-72.198-68.242-33.627 0-62.308 28.681-62.308 68.242v122.637zm157.253-85.056c55.385 80.11 110.77 151.32 167.144 230.44 23.736 27.693 51.428 39.561 84.066 44.506 28.681 0 49.45-4.945 67.253-32.637 11.868-23.737-4.945-39.56-21.758-62.308C682.475 687.42 627.09 608.298 569.727 536.1c17.802-17.803 29.67-34.616 39.56-51.43 45.495-49.45 84.067-94.944 122.639-145.384 28.68-31.649 17.802-50.44-26.704-67.253-44.506-15.824-84.066 0-111.758 35.604-51.43 60.33-100.88 115.715-151.32 177.034-10.879 11.868-10.879 79.121 0 94.945z"/></svg>