<svg xmlns="http://www.w3.org/2000/svg" width="1000" height="1000">
  <path d="M500.496 995.003c275.935 0 494.507-224.506 494.507-495.496C995.003 226.54 773.464 5 500.496 5 223.572 5 5 229.506 5 499.507c0 276.924 224.506 495.496 495.496 495.496zM97.967 497.53c0-218.572 181.979-396.595 398.573-396.595 216.594 0 397.584 178.023 397.584 398.573 0 218.572-181.979 398.573-397.584 395.606C279.946 898.08 97.967 716.1 97.967 497.529zm56.374 21.758c0 25.715 1.978 50.44 11.868 72.198h4.945c3.956-26.703 3.956-53.406 8.902-78.132 9.89-45.494 17.802-91.978 31.648-137.473 14.835-49.45 51.429-76.154 104.836-83.077 44.505-6.923 88.022-18.791 131.538-26.703 14.836-3.956 28.682-3.956 41.539-1.978 36.594 6.923 70.22 21.758 100.88 45.494 9.89 5.934 17.802 14.836 26.703 17.803 24.725 6.923 37.582 21.758 42.527 47.472 4.946 25.715 16.814 51.43 26.704 76.154 4.945 14.836 11.868 31.649 21.758 45.495 21.758 31.649 52.418 56.374 90 68.242 4.946.99 8.902 2.967 13.847 4.945 0 1.978-1.978 2.967-1.978 2.967-19.78-4.945-41.539-7.912-65.275-12.857 8.9 19.78 15.824 38.572 21.758 56.374-21.758-29.67-43.517-60.33-64.286-88.022-20.77-25.715-35.604-52.418-43.517-82.089-3.956-11.868-8.9-21.758-13.846-29.67-4.945-9.89-9.89-13.846-22.747-9.89-23.736 7.912-47.473 14.835-70.22 20.77-46.484 10.878-82.088 38.57-111.759 72.197-6.923 7.912-13.846 19.78-18.791 29.67-4.945 11.869-2.967 23.737 3.956 33.627 14.835 23.736 27.692 48.462 42.528 72.198 15.824 24.725 35.604 44.506 57.363 64.286 38.571 31.648 75.165 65.275 111.758 98.901 6.923 6.924 12.857 9.89 24.726 4.946 130.55-68.242 205.714-226.485 173.077-369.892-41.539-190.88-224.506-309.561-413.408-266.045-163.187 38.572-276.924 181.979-267.034 352.09zm327.364-177.033c-4.945 20.77 39.56 18.791 38.571 0-2.967-17.802-36.593-14.835-38.571 0z" style="fill:#000;fill-opacity:1;fill-rule:nonzero;stroke:none;"/>
</svg>
