<?xml version="1.0" encoding="UTF-8"?><svg id="a" xmlns="http://www.w3.org/2000/svg" viewBox="0 0 1000 1000"><path d="m994.884,398.446l-167.811-291.717c-6.854-11.913-19.552-19.257-33.295-19.257H217.787c-13.353,0-25.751,6.939-32.74,18.322L5.674,398.126c-9.339,15.223-6.959,34.875,5.739,47.428l461.278,455.883c14.963,14.788,39.034,14.788,53.997,0l461.897-456.498c12.413-12.268,14.998-31.365,6.299-46.493Zm-237.22,80.933c-.64,29.856-87.097,54.762-202.33,60.826v139.27h-108.949v-139.27c-115.238-6.064-201.695-30.971-202.336-60.826v-62.236c.645-29.856,87.097-54.767,202.336-60.831v-56.747h-164.081v-81.853h437.106v81.853h-164.076v56.747c115.233,6.064,201.69,30.975,202.335,60.831l-.005,62.236Zm-202.33-78.899c97.956,5.159,175.114,23.927,196.446,47.778-25.156,28.126-127.946,49.188-250.923,49.188s-225.767-21.062-250.923-49.188c21.332-23.852,98.491-42.619,196.451-47.778v59.421c17.557.92,35.78,1.41,54.472,1.41s36.92-.49,54.477-1.41v-59.421Z"/></svg>