<svg xmlns="http://www.w3.org/2000/svg" viewBox="0 0 1000 1000"><path d="M377.914 211.207H817c62.923 6.84 69.762-24.622 54.715-77.969-31.46-76.6-91.647-123.108-168.248-123.108-131.316-6.84-262.632-6.84-403.523 0-68.394 0-138.156 30.093-160.042 90.28-23.254 62.922-24.622 131.315-15.046 203.813 0 4.103 84.808 13.678 138.155 13.678 39.668 1.368 53.347-9.575 53.347-46.507-6.84-53.347 23.254-60.187 61.555-60.187zM115.28 856.844C141.271 934.814 216.504 995 316.36 995h378.902c91.647 0 161.409-60.187 184.663-154.57 30.093-144.995 6.839-168.249-139.524-160.042-36.932 0-68.393 6.84-68.393 53.347 6.839 46.508-23.254 53.348-62.923 53.348H161.79c-53.347 0-61.554 24.621-46.508 69.761zm9.576-384.373c30.093 76.601 91.647 131.316 175.088 131.316h525.264c54.715 0 61.554-23.254 46.507-71.13-15.046-76.6-84.808-129.947-168.248-138.155h-534.84c-60.186 0-68.393 31.462-43.771 77.97z"/></svg>