<svg xmlns="http://www.w3.org/2000/svg" width="1000" height="1000">
  <path d="M742.705 929.802c-198.984 113.705-460.236 78.51-611.843-104.23C22.572 705.1-15.33 564.322 15.804 404.592 40.169 273.29 110.558 167.707 221.556 91.903c0 0 2.707-4.06 5.414-4.06v407.443c0 20.304 4.061 40.609 5.415 62.267 33.84 151.607 192.216 246.361 343.823 203.045 140.778-40.609 221.996-185.448 186.801-327.58-33.84-132.655-162.436-223.349-303.214-201.69-64.974 8.121-121.827 41.962-167.85 93.4 0 0 0 1.354-2.707 4.061V58.062c0-2.707 0-6.768 5.414-8.121C347.444 24.22 404.296 10.685 465.21 6.624 528.83 1.21 593.805 9.332 657.426 30.99c117.766 41.962 209.813 115.059 272.08 226.056 56.853 94.755 81.218 238.24 54.145 338.409C952.518 743 872.653 853.999 742.705 929.802zM87.546 462.8c-5.414 64.974 2.708 124.534 25.72 184.094 64.974 181.387 253.129 291.03 443.99 262.605 62.268-9.476 117.767-29.78 169.205-63.621 24.365-14.89 46.024-33.84 63.62-54.145 16.244-12.183 13.537-35.195-1.353-46.024-10.829-8.122-28.426-8.122-40.609 4.06-94.754 90.694-205.752 121.828-330.286 93.402C201.25 791.732 87.546 557.553 176.886 354.508c4.06-9.475 6.768-23.012 6.768-39.255v-83.926s-2.707 0-2.707 2.708c-55.499 66.328-86.633 144.838-93.4 228.764zm201.692 36.548c0-116.413 94.754-208.46 209.813-208.46 115.059 0 209.813 94.755 209.813 208.46 0 116.412-94.754 209.813-209.813 209.813-115.06 0-209.813-93.4-209.813-209.813zm46.023-314.043c2.707 0 5.415 0 5.415-2.707 79.864-37.902 161.082-47.378 245.007-25.72 62.267 14.89 116.413 46.024 165.143 92.048 9.476 13.536 28.427 13.536 41.963 0 10.83-12.183 10.83-29.78-2.707-43.317-10.83-10.829-20.305-20.304-29.78-28.426-85.279-66.328-181.387-96.108-289.678-92.047-46.023 2.707-89.34 12.183-129.948 29.78-2.708 2.707-5.415 2.707-5.415 8.122v31.133z" style="fill:#000;fill-opacity:1;fill-rule:nonzero;stroke:none;"/>
</svg>
