<svg xmlns="http://www.w3.org/2000/svg" width="1000" height="1000">
  <path d="M500.496 5C223.572 5 5 229.506 5 500.002c0 276.43 224.506 495.001 495.002 495.001 276.43 0 495.001-224.506 495.001-495.001C995.003 226.539 773.464 5 500.496 5zM321.485 815.003V210.715c0-20.77 8.9-20.77 39.56-20.77 37.583 0 45.495 0 45.495 20.77v587.474c0 21.759-2.967 17.803-29.67 17.803-15.825 0-39.561-.99-55.385-.99zm111.758-224.507V424.342c0-17.802 10.88-17.802 41.539-17.802 32.637 0 42.527 3.956 42.527 17.802v40.55c53.407 10.879 100.88-26.704 110.77-74.176 15.824-58.352-9.89-116.704-67.253-126.594-26.703-5.934-72.198-5.934-102.857-5.934-19.78 0-19.78-10.88-19.78-31.649 0-20.77-4.946-36.593 12.856-36.593 48.462 0 120.66.989 169.122 11.868 63.297 14.835 98.901 72.198 98.901 135.495 5.934 85.055-39.56 152.308-116.703 175.055 48.461 26.704 68.242 64.286 85.055 105.825 20.77 58.352 51.429 129.56 77.143 182.967 3.956 6.924-3.956 18.792-34.616 18.792-38.571 0-50.44-4.945-53.406-11.868-26.704-53.407-58.352-141.43-85.056-193.847-14.835-37.583-37.582-53.407-74.176-70.22v52.418c0 13.846-9.89 13.846-42.527 13.846-30.66 0-41.539 0-41.539-19.78z" style="fill:#000;fill-opacity:1;fill-rule:nonzero;stroke:none;"/>
</svg>
