<?xml version="1.0" encoding="utf-8"?>
<!-- Generator: Adobe Illustrator 24.2.3, SVG Export Plug-In . SVG Version: 6.00 Build 0)  -->
<svg version="1.1" id="Layer_1" xmlns="http://www.w3.org/2000/svg" xmlns:xlink="http://www.w3.org/1999/xlink" x="0px" y="0px"
	 viewBox="0 0 1000 1000" style="enable-background:new 0 0 1000 1000;" xml:space="preserve">
<path d="M759.5,255.2c-54.9,0-118.2,29.5-181.5,88.6c-29.5,29.5-54.9,59.1-76,80.2l0,0l0,0c-67.5-80.2-164.6-168.8-257.4-168.8
	c-109.7,0-202.6,76-232.1,173c-4.2,8.4-4.2,12.7-4.2,12.7c-4.2,16.9-8.4,38-8.4,59.1c0,135,109.7,244.8,244.8,244.8
	c54.9,0,118.2-29.5,181.5-88.6c29.5-25.3,59.1-59.1,76-80.2c71.7,80.2,164.6,168.8,257.4,168.8c109.7,0,206.8-76,232.1-181.5
	c0-4.2,0-4.2,0-4.2c4.2-16.9,8.4-38,8.4-59.1C1000,365,894.5,255.2,759.5,255.2z M362.8,584.4c-59.1,50.6-92.8,63.3-113.9,63.3
	c-80.2,0-143.5-67.5-143.5-147.7s63.3-147.7,143.5-147.7c4.2,0,4.2,0,8.4,0c46.4,21.1,88.6,54.9,101.3,63.3
	c42.2,38,80.2,84.4,80.2,84.4l0,0C417.7,525.3,392.3,559.1,362.8,584.4z M759.5,647.7C759.5,647.7,755.2,647.7,759.5,647.7
	c-54.9-21.1-101.3-54.9-109.7-67.5c-42.2-38-80.2-84.4-80.2-84.4c16.9-21.1,46.4-54.9,76-80.2c59.1-50.6,92.8-63.3,113.9-63.3
	c80.2,0,143.5,67.5,143.5,147.7S839.6,647.7,759.5,647.7z"/>
</svg>
