<svg width="33" height="32" viewBox="0 0 33 32" fill="none" xmlns="http://www.w3.org/2000/svg">
<g clip-path="url(#clip0_3393:12241)">
<path fill-rule="evenodd" clip-rule="evenodd" d="M16.4338 31.84C25.1819 31.84 32.2738 24.7482 32.2738 16C32.2738 7.25184 25.1819 0.160034 16.4338 0.160034C7.68556 0.160034 0.59375 7.25184 0.59375 16C0.59375 24.7482 7.68556 31.84 16.4338 31.84ZM6.86471 9.14339L11.5281 4.47998H13.7444C13.1441 4.82628 11.1587 7.2965 10.6508 9.14339H6.86471ZM16.0068 4.47998V9.14339H11.5281C11.8436 8.18147 12.9687 5.90209 14.9449 4.47998H16.0068ZM16.9072 9.14339H21.4321C20.3794 6.63162 18.6694 4.98788 17.9461 4.47998H16.9072V9.14339ZM25.9801 9.14339H22.3094C21.7322 7.75822 20.6887 5.84669 19.1927 4.47998H21.2705L25.9801 9.14339ZM10.5355 22.8566H6.8648L11.5744 27.52H13.6521C12.1561 26.1533 11.1127 24.2417 10.5355 22.8566ZM11.4128 22.8566H15.9377L15.9377 27.52L14.8988 27.52C14.1754 27.0121 12.4655 25.3683 11.4128 22.8566ZM16.838 22.8566V27.52H17.9C19.8762 26.0979 21.0012 23.8185 21.3167 22.8566L16.838 22.8566ZM21.3167 27.52L25.9801 22.8566H22.194C21.6861 24.7035 19.7007 27.1737 19.1005 27.52H21.3167ZM9.5605 20.096C9.9125 20.096 10.2565 20.052 10.5925 19.964C10.9365 19.876 11.2445 19.716 11.5165 19.484C11.7885 19.252 11.9925 18.972 12.1285 18.644C12.2725 18.308 12.3445 17.968 12.3445 17.624C12.3445 17.328 12.2885 17.044 12.1765 16.772C12.0725 16.5 11.9205 16.256 11.7205 16.04C11.5205 15.824 11.2925 15.64 11.0365 15.488C10.7885 15.336 10.5285 15.208 10.2565 15.104C9.9925 14.992 9.7205 14.888 9.4405 14.792C9.1685 14.688 8.9285 14.524 8.7205 14.3C8.5125 14.076 8.4085 13.82 8.4085 13.532C8.4085 13.372 8.4365 13.22 8.4925 13.076C8.5485 12.932 8.6325 12.808 8.7445 12.704C8.8645 12.6 9.0005 12.528 9.1525 12.488C9.3045 12.44 9.4565 12.416 9.6085 12.416C9.8005 12.416 9.9885 12.448 10.1725 12.512C10.3565 12.576 10.5005 12.692 10.6045 12.86C10.7165 13.028 10.7765 13.208 10.7845 13.4H12.2605C12.2605 13.064 12.1925 12.744 12.0565 12.44C11.9205 12.128 11.7205 11.864 11.4565 11.648C11.2005 11.432 10.9085 11.284 10.5805 11.204C10.2605 11.124 9.9365 11.084 9.6085 11.084C9.2645 11.084 8.9245 11.132 8.5885 11.228C8.2605 11.316 7.9645 11.48 7.7005 11.72C7.4445 11.952 7.2485 12.232 7.1125 12.56C6.9845 12.88 6.9205 13.212 6.9205 13.556C6.9205 13.844 6.9725 14.128 7.0765 14.408C7.1885 14.68 7.3445 14.924 7.5445 15.14C7.7445 15.356 7.9685 15.54 8.2165 15.692C8.4645 15.836 8.7245 15.964 8.9965 16.076L9.8125 16.388C10.0845 16.492 10.3245 16.656 10.5325 16.88C10.7485 17.104 10.8565 17.36 10.8565 17.648C10.8565 17.864 10.7965 18.068 10.6765 18.26C10.5565 18.444 10.3925 18.576 10.1845 18.656C9.9845 18.728 9.7765 18.764 9.5605 18.764C9.3605 18.764 9.1605 18.732 8.9605 18.668C8.7685 18.604 8.6085 18.488 8.4805 18.32C8.3605 18.152 8.2965 17.964 8.2885 17.756H6.8125C6.8125 18.1 6.8845 18.432 7.0285 18.752C7.1725 19.064 7.3805 19.328 7.6525 19.544C7.9245 19.752 8.2245 19.896 8.5525 19.976C8.8885 20.056 9.2245 20.096 9.5605 20.096ZM16.4386 20.096C16.6786 20.096 16.9146 20.076 17.1466 20.036C17.3866 19.996 17.6146 19.932 17.8306 19.844C18.0546 19.756 18.2586 19.636 18.4426 19.484C18.6266 19.324 18.7746 19.136 18.8866 18.92C19.0066 18.704 19.0786 18.48 19.1026 18.248C19.1346 18.008 19.1506 17.768 19.1506 17.528V15.08H16.4986V16.412H17.6746V17.528C17.6746 17.696 17.6546 17.864 17.6146 18.032C17.5746 18.192 17.4906 18.328 17.3626 18.44C17.2346 18.552 17.0906 18.636 16.9306 18.692C16.7706 18.74 16.6066 18.764 16.4386 18.764C16.2786 18.764 16.1186 18.74 15.9586 18.692C15.8066 18.636 15.6706 18.548 15.5506 18.428C15.4306 18.308 15.3466 18.168 15.2986 18.008C15.2506 17.848 15.2266 17.688 15.2266 17.528V13.652C15.2266 13.484 15.2506 13.32 15.2986 13.16C15.3546 13 15.4426 12.86 15.5626 12.74C15.6826 12.62 15.8226 12.536 15.9826 12.488C16.1426 12.44 16.3066 12.416 16.4746 12.416C16.6666 12.416 16.8586 12.448 17.0506 12.512C17.2426 12.576 17.3986 12.692 17.5186 12.86C17.6386 13.02 17.6986 13.2 17.6986 13.4H19.1746C19.1746 13.064 19.1026 12.74 18.9586 12.428C18.8226 12.116 18.6226 11.856 18.3586 11.648C18.0946 11.432 17.7986 11.284 17.4706 11.204C17.1426 11.124 16.8106 11.084 16.4746 11.084C16.2346 11.084 15.9986 11.104 15.7666 11.144C15.5346 11.176 15.3066 11.244 15.0826 11.348C14.8666 11.444 14.6706 11.572 14.4946 11.732C14.3186 11.892 14.1706 12.076 14.0506 12.284C13.9386 12.492 13.8586 12.712 13.8106 12.944C13.7706 13.176 13.7506 13.412 13.7506 13.652V17.528C13.7506 17.808 13.7826 18.088 13.8466 18.368C13.9186 18.64 14.0386 18.892 14.2066 19.124C14.3746 19.348 14.5786 19.536 14.8186 19.688C15.0666 19.84 15.3266 19.944 15.5986 20C15.8786 20.064 16.1586 20.096 16.4386 20.096ZM24.3846 19.976C24.0566 20.056 23.7246 20.096 23.3886 20.096C23.1486 20.096 22.9086 20.076 22.6686 20.036C22.4366 20.004 22.2126 19.94 21.9966 19.844C21.7806 19.74 21.5846 19.608 21.4086 19.448C21.2326 19.288 21.0846 19.104 20.9646 18.896C20.8526 18.688 20.7726 18.468 20.7246 18.236C20.6846 18.004 20.6646 17.768 20.6646 17.528V13.652C20.6646 13.412 20.6846 13.176 20.7246 12.944C20.7726 12.712 20.8526 12.492 20.9646 12.284C21.0846 12.076 21.2326 11.892 21.4086 11.732C21.5846 11.572 21.7806 11.444 21.9966 11.348C22.2126 11.244 22.4366 11.176 22.6686 11.144C22.9086 11.104 23.1486 11.084 23.3886 11.084C23.7246 11.084 24.0566 11.124 24.3846 11.204C24.7126 11.284 25.0086 11.432 25.2726 11.648C25.5366 11.856 25.7366 12.116 25.8726 12.428C26.0166 12.74 26.0886 13.064 26.0886 13.4H24.6126C24.6126 13.2 24.5526 13.02 24.4326 12.86C24.3126 12.692 24.1566 12.576 23.9646 12.512C23.7726 12.448 23.5806 12.416 23.3886 12.416C23.2206 12.416 23.0566 12.44 22.8966 12.488C22.7366 12.536 22.5966 12.62 22.4766 12.74C22.3566 12.86 22.2686 13 22.2126 13.16C22.1646 13.32 22.1406 13.484 22.1406 13.652V17.528C22.1406 17.696 22.1646 17.86 22.2126 18.02C22.2686 18.18 22.3566 18.32 22.4766 18.44C22.5966 18.56 22.7366 18.644 22.8966 18.692C23.0566 18.74 23.2206 18.764 23.3886 18.764C23.5806 18.764 23.7726 18.732 23.9646 18.668C24.1566 18.604 24.3126 18.488 24.4326 18.32C24.5526 18.152 24.6126 17.972 24.6126 17.78H26.0886C26.0886 18.116 26.0166 18.44 25.8726 18.752C25.7366 19.064 25.5366 19.328 25.2726 19.544C25.0086 19.752 24.7126 19.896 24.3846 19.976Z" fill="black"/>
</g>
<defs>
<clipPath id="clip0_3393:12241">
<rect width="32" height="32" fill="white" transform="translate(0.441406)"/>
</clipPath>
</defs>
</svg>
