<svg xmlns="http://www.w3.org/2000/svg" viewBox="0 0 1000 1000"><path d="M500.496 995.003c275.935 0 494.507-224.506 494.507-495.496C995.003 226.54 773.464 5 500.496 5 223.572 5 5 229.506 5 499.507c0 276.924 224.506 495.496 495.496 495.496zM222.583 509.397V196.87h500.441v123.627H349.177v188.901zm.99 312.529V635.99H335.33c9.89.99 13.846-2.967 13.846-13.846-.989-37.286 0-74.473.989-111.759h372.858v123.627H348.188v187.913zm500.44-312.529c0-35.209.99-68.538.99-102.857 0-28.682-.99-57.363-.99-86.044h125.605v188.901z"/></svg>