<svg xmlns="http://www.w3.org/2000/svg" viewBox="0 0 1000 1000"><path d="M500,5C226.62,5,5,226.62,5,500S226.62,995,500,995,995,773.38,995,500,773.38,5,500,5ZM653.33,141l147.2,145.73H685.79c-18-43.28-50.64-103-97.39-145.73ZM517,141h32.44c22.56,15.87,76.04,67.24,108.94,145.73H517Zm-61.39,0h33.23V286.73h-140C358.7,256.67,393.84,185.44,455.61,141Zm-106.73,0h69.26c-18.76,10.82-80.81,88-96.68,145.73H203.15ZM181,358.08h56.83l82.55,208.66h1.25l-.42-208.66h43.15v293.7H309.6L226.22,444.37H225l.83,207.41H181ZM350.32,861,203.15,715.27h114.7c18.04,43.28,50.65,103.02,97.4,145.73Zm136.35,0H454.21c-22.61-15.87-76.04-67.24-108.94-145.73h141.4ZM475.09,509.08h-1.25v142.7H424.06V358.08h49.78V485.43h1.25l74.67-127.35h56L519.47,493.32l91.68,158.46H553.49ZM548,861H514.81V715.27H654.78C644.92,745.33,609.76,816.56,548,861Zm106.77,0H585.51c18.76-10.82,80.8-88,96.67-145.73H800.5ZM803.33,613.62q-29.03,38.16-85.91,38.16H644V358.08h73.88q56.45,0,85.45,39,29.44,38.621,29.45,108.27T803.33,613.62ZM778,459.71q5,19.5,5,45.64,0,25.71-5,45.21-4.571,19.08-13.28,31.94A60.141,60.141,0,0,1,744,602a56,56,0,0,1-26.13,6.22H694.23V401.64h23.65A53.251,53.251,0,0,1,744,408.27q12,6.23,20.74,19.09T778,459.71Z"/></svg>