<?xml version="1.0" encoding="utf-8"?>
<!-- Generator: Adobe Illustrator 26.0.1, SVG Export Plug-In . SVG Version: 6.00 Build 0)  -->
<svg version="1.1" xmlns="http://www.w3.org/2000/svg" xmlns:xlink="http://www.w3.org/1999/xlink" x="0px" y="0px"
	 viewBox="0 0 1000 1000" style="enable-background:new 0 0 1000 1000;" xml:space="preserve">
<g id="Layer_1">
</g>
<g id="Layer_3">
</g>
<g id="Layer_2">
	<g>
		<path d="M526.4,707c0-3.8-10.3-2.8-23-2.8s-22.8-0.7-22.8,3c0,3.6,10.2,8.6,22.8,8.6S526.4,710.7,526.4,707z"/>
		<path d="M378.5,637.4c7.4,0,13.4-8.6,13.4-18.9c0-10.5-6.2-19.1-13.4-19.1c-7.2,0-13.4,8.7-13.4,19.1
			C365.1,628.8,371.1,637.4,378.5,637.4z"/>
		<path d="M619.2,618.4c0,10.3,6.2,18.9,13.4,18.9c7.2,0,13.4-8.6,13.4-18.9c0-10.3-6.2-19.1-13.4-19.1
			C625.4,599.4,619.2,608,619.2,618.4z"/>
		<path d="M755.3,741c-7.6,6.8-16.2,12.4-25.5,16.7c0.5,7.9,0.5,15.7-0.4,23.6c-1.1,9.8-2.7,19.6-4.7,29.3
			c-1.9,9.6-4.4,19.1-7.4,28.5c-1.6,4.7-3.1,9.3-5,13.4c-1.8,4.7-3.9,9.1-6.4,13.4c2-4.3,3.7-8.8,5-13.4c1.3-4.6,2.4-9.3,3.5-14.1
			c2-9.4,3.5-19,4.4-28.6c0.9-9.7,1.3-19.3,1.5-28.9c0-6.3-0.6-12.5-1.5-18.7c-2,0.7-4,1.5-6,2l-3.4,0.5c-0.1,0-0.2,0-0.3,0
			c-18.5,0-36.6-7.6-49.6-20.8c-52.7-48-99-68.5-153.1-67.7c-56.7,1-110.3,23.5-150.8,63.3c-11,9.9-29,26.1-49.6,26.1
			c-3.6,0-7.3-0.7-11-1.8c-0.3,2-0.6,4-0.9,6l-0.7,7.2v7.2c-0.5,9.7-0.5,19.4,0,29.1c0.8,9.8,2.2,19.5,4.2,29.1
			c0.9,4.8,2,9.7,3.4,14.4c1.2,4.6,2.8,9.1,4.8,13.4c-2.5-4.3-4.7-8.8-6.4-13.4c-1.9-4.6-3.5-9.3-5.1-13.4
			c-3.1-9.6-5.6-19.3-7.5-29.1c-1.9-9.9-3.2-19.9-4-29.9l-0.4-7.4v-7.7c0-3.7,0.2-7.3,0.5-11c-8.8-4.5-17.3-9.7-25.4-14.9
			c-18-11.6-36.6-23.6-62-27.7c-18.4-3.1-46.9-2.9-67.5,0c-1.1,12.5-1.6,25.1-0.7,37.7c10.6,127.5,159.1,215.6,371.1,221.5
			c227,0.1,375.3-102,385.9-229.1l0.4-0.1c0.8-11.1,0.3-22.2-0.9-33.3C839.4,708.2,787.9,719.4,755.3,741z M562.5,804.7l-4.6,0.1
			c-10.8,2.1-22.1,0.7-31.9-4.2c-8.7-3-15.9-8.9-20.7-16.4c-4.8,7.4-11.9,13.3-20.6,16.6c-6.6,3.3-14.2,5-21.8,5
			c-3.6,0-7.3-0.4-10.9-1.2c-0.4-0.1-0.8-0.3-1.2-0.5h-0.9c-23.1-4.1-38.2-23.9-36.4-46.1c0.3-3.7,3.5-6.4,7.2-6.1
			c3.7,0.3,6.4,3.6,6.1,7.2c-1.3,15.3,9.1,28.9,24.2,31.6l2.3-0.1c1.3,0,2.4,0.5,3.5,1.1c7.6,1.2,15.5,0.2,22.4-3.2
			c11.1-4.3,18.3-13.9,19.5-24.9c-0.1-1.5,0-3.1,0.1-4.6c0-0.2-0.1-0.4-0.1-0.7v-8c-27-2.3-48.5-21.7-48.5-36.5
			c0-15.7,24.3-21.1,53.7-21.1c29.4,0,53.7,4.6,53.7,20.3c0,14.1-19.9,33.4-45.5,37v7.4c0,0.2,0.1,0.3,0.1,0.5
			c0.1,2,0.1,3.9-0.1,5.9c0.9,11,8.1,20.7,18.9,24.4c8.3,4,16.9,5.1,25.1,3.3c0.2-0.1,0.5,0,0.7,0c0.2,0,0.5-0.1,0.7-0.1h3.6
			c13.9-2.6,24.5-16.8,23-32.1c-0.4-3.7,2.3-7,6-7.4c3.6-0.4,7,2.3,7.4,6C599.9,780.1,584.5,800.6,562.5,804.7z"/>
		<path d="M904.1,30.1c-5.1-4.3-12.1-5.9-18.6-4.3c-11.2,2.8-18,14.2-15.2,25.2c14.9,67.1,7.9,120.1-21.5,161.8
			c-30.9,44.2-95.6,86.8-137,91.7l0.4-2.1l-8,2.5c-0.3,0-0.7,0-1,0l-4.1-0.1c-15.9-15.9-34.2-29.1-54.3-39.1
			c-26.5-14.2-56.2-22.7-86.3-25.1l-3.3-33.3l-3-1.7c-14.6-8.2-31.2-12.5-48-12.7h-2.2c-16.7,0.1-33.2,4.5-47.8,12.7l-3,1.7
			l-3.3,32.8c-32.1,1.9-63.8,10.6-92.1,25.6C335.3,276,317,289.4,301,305.5l-2.8,0.1l-9.6-3.1l0.5,2.8
			c-42.2-4.2-106.1-46.6-137.7-91.8c-29.4-42.4-36.6-97-21.4-162.3c1.5-6.3,0-13.1-4.1-18.1c-3.5-4.3-8.5-7-14.1-7.6
			c-5.6-0.5-11,1.1-15.2,4.5c-104.8,81.9-127.6,231.8-52,341.2c18.7,26.6,41.1,50.5,66.3,71c12.7,10.5,26.7,19.3,41.8,26.3
			c4.7,2.1,9.6,3.8,14.9,5.2c0.2,0,0.5,0.1,0.8,0.1l3.8,19.2c-5,3-9.6,5.9-13.8,8.6l-3.1,2v3.7c0,6.7,0.1,12.2,0.2,17.5
			c0.1,4.4,0.1,8.6,0.1,13l32.5,21.9c2.9,1.3,5.8,2.6,8.8,4l3.6,1.7c41.3-15.8,84.3-27.7,127.7-35.6c57.5-9.5,116-14.4,174.2-14.4
			h1.6c59.7,0,118.8,4.9,175.5,14.3c43.5,7.9,86.2,19.7,127.3,35.3l45.3-26c0-3.1,0-6.1,0-9c0-7,0.1-14.1-0.4-23.1l-0.2-3.4
			l-2.8-1.9c-3.7-2.5-8.3-5.4-13.7-8.6l4.2-21.6l7.8-2.9c15-7,29-15.8,41.7-26.2c25.3-20.5,47.7-44.4,66.5-71l0-0.1
			C1031,261.9,1008.4,112,904.1,30.1z"/>
		<path d="M741.1,668.9c-7.6-5.1-16.2-8.7-25.2-10.6c-8.8-1.8-17.9-2.4-26.8-1.9c-3.7,0.2-7.4,0.7-11,1.3
			c10.4,11.5,20.2,23.4,28.9,36.3c5.8,8.4,10.7,17.4,14.6,26.8c1.2,3.1,2.1,6.3,3.1,9.4c4.7-2.8,9.2-6,13.3-9.7l1.6-1.3
			c35-23.6,89.3-36.8,137.6-34.4c-8.3-37.1-21.7-72.9-39.5-106.5l-28.4,16.3l-8.6-3.3c-40.5-15.6-82.8-27.5-125.6-35.2
			c-55.1-9.2-112.7-13.9-170.9-13.9h-1.6c-56.7,0-113.7,4.7-169.6,14c-42.5,7.7-84.8,19.5-125.3,35.2l-7.9,3.1l-13.7-6.3
			c-3.3-1.5-6.4-2.9-9.5-4.3l-2.2-1.2l-3.8-2.6c-18.2,34-31.4,70.3-38.7,108.1c22.2-2.3,48.9-2.1,68,1.1c31,5,52.9,19.1,72.3,31.6
			c5.3,3.4,10.4,6.6,15.5,9.6c0.7-2.4,1.2-4.9,2.1-7.3c3.6-9.9,8.3-19.4,14.1-28.2c8.5-12.6,18.2-24.4,28.4-35.7
			c-2.6-0.4-5.1-0.8-7.7-0.9c-8.4-0.6-16.9,0.2-25.1,2.1c-4.2,1-8.2,2.5-12.1,4.3c-12.2,5.7-22.5,14.7-29.8,26
			c3.4-8.8,8.3-16.9,14.5-23.9c3.2-3.6,6.7-7,10.5-9.9c3.9-3,8.1-5.6,12.5-7.8c8.6-5,18-8.6,27.8-10.7c2.7-0.4,5.4-0.6,8.1-0.9
			c-0.7-3.9-1.1-7.9-1.1-12.1c0-25.6,13.4-47.1,30.7-51.9l42.8,32.5c1.9,6.3,3,12.9,3.1,19.5c0,29.3-17.2,52.9-38.4,52.9
			c-6.1,0-11.8-2.1-16.9-5.6c-11.3,10.1-22.1,20.9-31.8,32.6c-5.8,7.2-10.7,15.1-14.6,23.5c-1.3,2.8-2.3,5.8-3.4,8.8
			c9.5,3.8,21.3-4.3,36.1-17.7c45-44.2,105.1-69.4,168.8-70.6c62-0.9,113.4,21.7,172.1,75.2c8.1,8.2,18.6,12.9,29.5,13.3
			c1.4-0.4,2.7-1,4.1-1.5c-1.3-3-2.5-6-4.1-8.9c-4.4-8.1-9.6-15.7-15.4-22.8c-9.6-11.5-20.3-22.1-31.4-32.2
			c-5.2,3.6-11,5.9-17.2,5.9c-21.1,0-38.4-23.6-38.4-52.9c0-6.7,0.9-13.3,2.7-19.7l43-32.2c17.7,4.7,31,26.2,31,51.9
			c0,4.1-0.4,8.1-1.1,12c3,0.2,6,0.4,9,0.8c10.4,1.5,20.5,4.4,30.1,8.6c9.5,4.1,18,10.1,25.2,17.4c7,7.1,12.5,15.6,16.2,24.8
			C755.9,681.1,749,674.3,741.1,668.9z"/>
	</g>
</g>
</svg>
