<svg xmlns="http://www.w3.org/2000/svg" width="1000" height="1000">
  <path d="M500.496 5C223.572 5 5 229.506 5 500.002c0 276.43 224.506 495.001 495.002 495.001 276.43 0 495.001-224.506 495.001-495.001C995.003 226.539 773.464 5 500.496 5zM79.176 567.75c-18.791-44.507 0-107.803 44.506-137.474 50.44-27.692 106.813-22.747 147.363 23.736 6.923 5.935 4.945 3.957 9.89 11.869V323.463c0-57.363 64.286-37.583 64.286 21.758v79.121c32.637-6.923 42.528-13.846 77.143-10.88 29.67 1.979 49.45 24.726 72.198 40.55V351.155c0-34.616 10.88-40.55 21.758-57.363 23.737-21.758 45.495-5.934 45.495 22.747v107.803c70.22-16.813 121.649 0 148.352 64.286 22.748-14.835 35.605-28.681 58.352-45.495 43.517-27.692 92.967-35.604 136.484 0 36.594 29.67 63.297 57.363-5.934 95.935-23.736-65.275-57.363-79.121-107.803-38.572-39.56 36.594-37.582 51.429-81.099 89.011-78.132 70.22-135.495 70.22-204.726-9.89-29.67 28.682-57.363 58.352-102.857 58.352-44.506 0-80.11-13.846-107.803-58.352v22.748c0 30.66.99 30.66-29.67 30.66l-39.56-1.979c-68.243 15.824-118.683-6.923-146.375-63.297zm50.44-44.507c0 27.693 22.747 56.374 56.374 56.374 29.67 0 51.428-17.802 51.428-56.374 0-28.68-21.758-49.45-51.428-49.45-28.682 0-56.374 20.77-56.374 49.45zm171.1 27.693c21.758-17.802 27.692-18.791 38.57-27.693 3.957 15.825.99 22.748 11.869 38.572 16.813 17.802 51.429 27.692 73.187 11.868 29.67-11.868 35.605-42.527 23.736-63.297-8.9-29.67-45.494-44.505-67.253-29.67-29.67 19.78-58.351 42.527-80.11 65.275zm215.604-4.945c15.825-6.923 23.737-14.835 29.67-22.748 6.924 15.825 15.825 27.693 21.76 38.572 13.845 17.802 51.428 27.692 74.175 11.868 17.802-11.868 27.693-50.44 12.857-73.187-12.857-19.78-45.494-34.615-73.187-19.78-19.78 19.78-41.538 42.527-65.275 58.352zm229.452 15.824c10.879-10.88 15.824-22.747 29.67-30.66 10.88 30.66 20.77 58.352 73.187 58.352-27.692 41.539-36.593 57.363-57.363 41.539-34.615-22.747-58.351-51.429-45.494-69.231z" style="fill:#000;fill-opacity:1;fill-rule:nonzero;stroke:none;"/>
</svg>
