<svg xmlns="http://www.w3.org/2000/svg" width="1000" height="1000">
  <path d="M736.721 11.488C791.217 15.38 841.82 33.545 874.258 51.71c42.817 23.356 73.958 53.198 90.825 90.826 19.463 42.818 25.95 98.611 16.868 167.379-16.868 131.049-81.743 223.172-194.627 277.667-72.66 35.033-160.891 49.306-263.394 49.306H259.237L190.47 995H14.008L132.08 373.493H32.173l18.165-119.37h106.396L206.04 5h360.709c70.065 0 127.156 3.893 169.973 6.488zm-445.046 458.02h302.32c35.033 0 66.173-7.784 96.016-22.057 29.843-14.272 55.793-35.033 75.256-60.983 20.76-27.248 33.735-55.793 37.627-92.123 5.19-46.71-12.975-81.743-53.197-97.313-25.95-10.38-66.174-20.76-118.074-20.76H347.468l-15.57 77.85h250.42L560.26 373.493H309.84z" style="fill:#000;fill-opacity:1;fill-rule:nonzero;stroke:none;"/>
</svg>
