<svg width="1000" height="1000" viewBox="0 0 1000 1000" fill="none" xmlns="http://www.w3.org/2000/svg">
<path d="M289 2L87 204H251C273 124 359 17 385 2H289Z" fill="black"/>
<path d="M483 204V2H437C351.4 63.6 302.667 162.333 289 204H483Z" fill="black"/>
<path d="M522 204H718C672.4 95.2 598.333 24 567 2H522V204Z" fill="black"/>
<path d="M756 204H915L711 2H621C685.8 61.2 731 144 756 204Z" fill="black"/>
<path d="M713 1000L915 798L751 798C729 878 643 985 617 1000L713 1000Z" fill="black"/>
<path d="M519 798L519 1000L565 1000C650.6 938.4 699.333 839.667 713 798L519 798Z" fill="black"/>
<path d="M480 798L284 798C329.6 906.8 403.667 978 435 1000L480 1000L480 798Z" fill="black"/>
<path d="M246 798L87 798L291 1000L381 1000C316.2 940.8 271 858 246 798Z" fill="black"/>
<path d="M246.444 734L174.944 537.7H131.394V734H55.9941V273.8H187.294C206.361 273.8 223.911 276.4 239.944 281.6C255.977 286.366 269.627 294.166 280.894 305C292.594 315.833 301.694 329.483 308.194 345.95C314.694 362.416 317.944 382.133 317.944 405.1C317.944 422.866 315.561 438.683 310.794 452.55C306.461 465.983 300.827 477.466 293.894 487C286.961 496.533 279.161 504.333 270.494 510.4C262.261 516.033 254.027 519.933 245.794 522.1L328.344 734H246.444ZM241.244 409C241.244 395.133 239.294 383.65 235.394 374.55C231.494 365.45 226.294 358.3 219.794 353.1C213.727 347.9 206.794 344.216 198.994 342.05C191.194 339.883 183.394 338.8 175.594 338.8H131.394V480.5H175.594C194.661 480.5 210.261 474.65 222.394 462.95C234.961 450.816 241.244 432.833 241.244 409Z" fill="black"/>
<path d="M552.488 340.1V734H475.787V340.1H389.338V273.8H638.938V340.1H552.488Z" fill="black"/>
<path d="M877.411 557.85V734H800.711V557.85L685.661 273.8H770.161L839.061 479.2L841.011 477.9L911.211 273.8H993.761L877.411 557.85Z" fill="black"/>
</svg>
