<?xml version="1.0" encoding="utf-8"?>
<!-- Generator: Adobe Illustrator 26.0.1, SVG Export Plug-In . SVG Version: 6.00 Build 0)  -->
<svg version="1.1" xmlns="http://www.w3.org/2000/svg" xmlns:xlink="http://www.w3.org/1999/xlink" x="0px" y="0px"
	 viewBox="0 0 1000 1000" style="enable-background:new 0 0 1000 1000;" xml:space="preserve">
<g id="Layer_1">
</g>
<g id="Layer_3">
</g>
<g id="Layer_2">
	<path d="M888.8,511c0,0,204.5-117.3,57-277.3c-147.5-160-321.4,7-321.4,7S656.5-13.5,431.1,6C205.7,25.5,304.5,329.7,304.5,329.7
		S11,112.7,0.3,417.5c-9.5,271.6,217.3,237.6,217.3,237.6S80.1,853.9,272.5,972.4c192,118.3,323.2-182.2,323.2-182.2
		S825.3,1010,952,845.7C1089.1,667.8,888.8,511,888.8,511z M483,649.7c-80.2,0-145.1-62.9-145.1-140.5c0-77.6,65-140.5,145.1-140.5
		s145.1,62.9,145.1,140.5C628.2,586.8,563.2,649.7,483,649.7z"/>
</g>
</svg>
