<svg xmlns="http://www.w3.org/2000/svg" viewBox="0 0 1000 1000"><path d="M5 500.496c0 271.98 220.55 494.507 495.496 494.507 271.98 0 494.507-220.55 494.507-495.496C995.003 227.528 773.464 5 500.496 5 226.54 5 5 225.55 5 500.496zM162.253 688.41V295.77c208.682-108.79 340.221-181.978 347.144-185.935 10.88 11.869 114.726 64.286 176.045 98.902 57.363 30.66 113.736 61.319 167.143 87.033v389.672C549.947 850.607 518.298 871.376 509.397 871.376c-16.813 0-180.99-90.989-267.034-140.44-26.703-15.824-53.406-26.703-80.11-42.527zm50.44-45.495c0 13.846 2.967 23.737 14.835 27.693 91.979 47.472 180 93.956 267.034 143.407 11.868 4.945 14.835 4.945 25.714-2.967 89.012-46.484 180.99-95.935 268.023-144.396 10.88-3.957 19.78-11.869 19.78-27.693-5.933-98.901 0-197.803 0-300.66 0-12.857-8.9-18.791-15.824-22.748-90.989-50.44-180.99-95.934-268.022-145.385-10.88-2.967-17.803-2.967-29.67 0-87.034 49.451-179.013 99.89-267.035 145.385-11.868 6.924-14.835 9.89-14.835 22.748zm80.11-163.187c-2.967-3.956-2.967-8.901 0-15.824 38.572-49.451 88.022-91.979 148.352-106.814 72.198-18.791 138.462-11.868 197.803 30.66 17.802 11.868 38.572 30.659 58.352 48.461 9.89 8.901 9.89 7.912 26.703 0l41.539-17.802v3.956c7.912 70.22-137.473 107.803-137.473 156.264v49.451c0 31.648 42.528 10.88 42.528-22.747 0-20.77 11.868-25.715 45.494-40.55 7.912 45.495-21.758 94.945-61.319 123.627-68.242 35.604-72.198-4.945-72.198-83.077v-19.78c-45.494 10.879-92.967 14.835-141.429 0V718.08c-13.846-6.923-26.703-10.879-38.571-17.802-5.934-3.956-5.934-11.868-5.934-14.835v-101.87c0-12.857-5.934-16.813-13.847-18.79-37.582-24.726-63.296-51.43-90-85.056zm2.967-107.803c100.88-132.528 315.496-136.484 415.386 0-1.978 0-26.703 18.792-33.626 18.792-11.868-2.967-20.77-13.847-26.704-18.792-84.066-76.154-216.594-76.154-297.693 4.945-2.967 3.956-7.912 5.934-10.88 10.88-4.944 2.967-5.933 1.978-10.878 0-11.868-4.946-24.726-10.88-35.605-15.825zm57.363 107.803c23.736 22.747 54.396 47.473 84.066 55.385-29.67-48.462-27.692-90 9.89-127.583-37.582 5.934-57.362 15.824-93.956 56.374-7.912 6.923-2.967 11.868 0 15.824zM566.76 407.53c37.583 37.582 42.528 79.12 15.824 125.605 33.627-12.858 56.374-30.66 79.122-57.363 3.956-4.945 3.956-8.901 0-11.868-25.715-26.704-68.242-63.297-94.946-56.374z"/></svg>