<svg xmlns="http://www.w3.org/2000/svg" width="1000" height="1000">
  <path d="M500.496 5C223.572 5 5 229.506 5 500.002c0 276.43 224.506 495.001 495.002 495.001 276.43 0 495.001-224.506 495.001-495.001C995.003 226.539 773.464 5 500.496 5zM186.98 665.662V336.32c-1.978-13.846 2.967-20.77 12.857-24.726 27.692-15.824 53.407-30.659 79.121-46.483 7.912-4.945 15.824-4.945 23.736 0 90.99 52.417 185.935 101.868 273.957 155.275l-3.956 146.374-68.242 41.539c-7.912 1.978-11.868 3.956-20.77 0-26.702-11.868-49.45-31.649-78.131-45.495-1.978 0-4.945-3.956-9.89-3.956v15.824c0 29.67-1.978 60.33 0 90.99 0 11.868-5.934 17.802-12.858 22.747-28.681 17.802-56.373 32.637-86.044 48.462-1.978 1.978-9.89 1.978-15.824 0-24.725-15.825-53.407-29.67-81.1-46.484-9.89-5.934-12.856-12.857-12.856-24.725zm422.309 0V558.848c-.99 0 3.956-138.462 3.956-144.396v-83.077c0-8.901 1.978-15.825 9.89-17.803 27.692-17.802 53.407-32.637 81.1-48.461 7.911-4.945 14.834-4.945 21.757 0 28.682 15.824 56.374 30.66 82.089 48.461 4.945 1.978 8.9 8.902 8.9 15.825v341.21c0 3.956-1.977 12.857-6.922 17.802-30.66 17.802-57.363 32.637-88.023 50.44-2.967 0-9.89 0-13.846-1.978l-83.077-46.484c-9.89-5.934-14.835-10.88-15.824-24.725z" style="fill:#000;fill-opacity:1;fill-rule:nonzero;stroke:none;"/>
</svg>
