<svg xmlns="http://www.w3.org/2000/svg" width="1000" height="1000">
  <path d="M5 66.98v866.04h803.587v-99.928H100.764V166.907h707.823V66.98zm600.956 512.13c0 38.86 12.49 79.11 29.145 106.867 9.715 15.267 27.758 36.085 41.637 44.413 37.473 29.145 98.54 37.473 156.831 34.697 56.904-2.776 94.377-23.594 126.298-51.352 16.655-20.818 30.534-43.024 33.31-69.394 2.775-23.594 2.775-70.783-2.776-90.213-13.88-43.025-45.8-73.558-104.092-91.6-12.491-4.164-26.37-6.94-40.249-6.94-41.636-9.715-70.782-19.43-83.273-24.982-27.758-9.715-37.473-26.37-37.473-51.352 0-26.37 13.879-41.637 43.025-49.964 20.818-5.551 52.74-2.776 68.006 0 30.534 12.491 49.964 36.085 54.128 62.455v12.491H990.4l-2.776-22.206c0-29.146-11.103-52.74-27.758-74.946-23.594-34.697-59.68-58.291-105.48-69.395-11.103-2.775-20.818-2.775-49.963-2.775h-36.086c-70.782 5.551-120.746 43.024-138.788 102.703-4.164 15.267-4.164 18.043-8.328 37.473 0 48.576 11.103 80.498 37.473 105.48 27.758 26.37 63.843 43.024 134.625 56.903 47.189 6.94 66.62 16.655 80.498 26.37 20.818 15.267 26.37 48.576 16.655 70.782-4.164 12.491-19.43 27.758-30.534 31.922-30.533 16.655-81.885 9.715-108.255-4.164-16.655-6.94-26.37-18.042-37.473-33.31-5.552-11.102-9.715-33.308-9.715-45.8v-9.715h-98.54z" style="fill:#000;fill-opacity:1;fill-rule:nonzero;stroke:none;"/>
</svg>
