<svg width="1000" height="1000" viewBox="0 0 1000 1000" fill="none" xmlns="http://www.w3.org/2000/svg">
<path fill-rule="evenodd" clip-rule="evenodd" d="M500 995C773.381 995 995 773.381 995 500C995 226.619 773.381 5 500 5C226.619 5 5 226.619 5 500C5 773.381 226.619 995 500 995ZM202 285.731L347.731 140H416.99C398.232 150.822 336.188 228.016 320.316 285.731H202ZM487.691 140V285.731H347.731C357.591 255.671 392.749 184.441 454.505 140H487.691ZM515.827 285.731H657.23C624.333 207.238 570.898 155.872 548.292 140H515.827V285.731ZM799.355 285.731H684.645C666.609 242.445 634 182.709 587.25 140H652.18L799.355 285.731ZM316.355 714.268H201.645L348.82 860H413.75C367 817.291 334.391 757.555 316.355 714.268ZM343.77 714.268H485.172V860H452.707C430.102 844.128 376.667 792.761 343.77 714.268ZM513.309 714.268L513.309 860H546.495C608.251 815.559 643.409 744.329 653.269 714.269L513.309 714.268ZM653.269 860L799 714.269H680.683C664.812 771.984 602.768 849.178 584.01 860H653.269ZM299.399 668.096L247.816 526.477H216.397V668.096H162V336.088H256.725C270.481 336.088 283.142 337.964 294.709 341.715C306.277 345.154 316.124 350.781 324.253 358.597C332.693 366.413 339.259 376.26 343.948 388.14C348.637 400.02 350.982 414.244 350.982 430.813C350.982 443.631 349.263 455.042 345.824 465.046C342.697 474.737 338.633 483.022 333.631 489.9C328.629 496.777 323.002 502.405 316.75 506.781C310.81 510.846 304.87 513.659 298.93 515.222L358.485 668.096H299.399ZM295.647 433.627C295.647 423.623 294.24 415.339 291.427 408.773C288.613 402.208 284.862 397.05 280.172 393.298C275.796 389.547 270.794 386.89 265.166 385.326C259.539 383.763 253.912 382.982 248.285 382.982H216.397V485.21H248.285C262.04 485.21 273.295 480.99 282.048 472.549C291.114 463.795 295.647 450.821 295.647 433.627ZM520.192 383.92V668.096H464.857V383.92H402.488V336.088H582.56V383.92H520.192ZM754.606 668.096V541.014L838.545 336.088H778.99L728.345 483.335L726.938 484.272L677.231 336.088H616.269L699.271 541.014V668.096H754.606Z" fill="black"/>
</svg>
