<svg xmlns="http://www.w3.org/2000/svg" viewBox="0 0 1000 1000"><path d="M500.496 5C223.572 5 5 229.506 5 500.002c0 276.43 224.506 495.001 495.002 495.001 276.43 0 495.001-224.506 495.001-495.001C995.003 226.539 773.464 5 500.496 5zM122.693 610.277c-7.912-28.682-6.923-29.67 19.78-39.56 77.143-29.671 153.297-59.342 230.44-89.012 17.803-5.934 26.704-4.945 33.627 14.835 7.912 13.846 18.791 24.725 30.66 36.594 7.911 7.912 7.911 13.846.988 22.747-2.967 4.945-6.923 10.88-8.9 16.813-18.792 45.495-48.463 83.077-102.858 90.99-.99 0-2.967.989-7.912 5.934 4.945 5.934 7.912 11.868 12.857 17.802 87.033 88.022 237.363 96.923 332.309 19.78 23.736-19.78 46.483-26.703 76.154-26.703 42.527 2.967 85.055.989 134.506.989-16.814 25.714-28.682 49.45-45.495 69.23C705.222 909.949 506.43 956.433 318.518 860.498c-100.88-53.406-167.144-139.45-195.825-250.22zm26.703-282.858c5.934-8.901 7.912-14.836 11.868-22.748 84.066-133.517 203.737-203.737 363.958-199.78 180.99 2.966 343.187 139.45 377.803 316.484 4.945 19.78 0 28.681-17.802 34.616-90 31.648-179.012 66.263-267.034 99.89-6.923 1.978-11.868 5.934-17.802 4.945-4.945-1.978-12.858-6.923-16.814-10.88-.989-3.955 1.978-11.867 4.945-14.834 39.561-36.594 52.418-81.1 36.594-131.54-2.967-15.823 2.967-18.79 12.857-21.758 22.747-8.9 45.495-17.802 72.198-28.681-15.824-26.703-37.582-45.495-61.319-59.34-97.912-62.309-220.55-52.419-308.572 22.746-9.89 7.913-22.747 13.847-36.594 13.847-42.527.989-84.066.989-126.594 0-8.9 0-15.824-2.967-27.692-2.967zm269.012 325.385c22.747-41.538 46.484-80.11 70.22-122.637-40.55-19.78-63.297-46.484-63.297-89.012 0-42.527 29.67-77.143 70.22-85.055 42.528-8.901 84.066 14.835 99.89 54.396 15.825 36.593 1.979 82.088-30.659 104.835-26.703 17.803-26.703 17.803-9.89 43.517 13.846 25.714 30.66 52.418 45.495 79.121 4.945 8.901 7.912 19.78-7.912 19.78H426.32c-.989 0-2.967-1.978-7.912-4.945z"/></svg>