<?xml version="1.0" encoding="UTF-8"?><svg id="a" xmlns="http://www.w3.org/2000/svg" viewBox="0 0 1000 1000"><path id="b" d="M988.291,455.379L782.46,98.343c-15.972-27.169-45.128-43.859-76.645-43.871H294.16c-31.604,.011-60.805,16.874-76.61,44.242L11.72,455.749c-15.627,27.431-15.627,61.07,0,88.501l205.831,357.012c15.725,27.451,44.973,44.351,76.61,44.265h411.655c31.612-.009,60.818-16.883,76.615-44.265l205.831-357.012c15.637-27.56,15.655-61.306,.029-88.872Zm-488.271,350.922v-61.418c135.337-.221,244.966-109.93,245.086-245.268-.104-135.344-109.742-245.064-245.086-245.268-135.344,.204-244.983,109.925-245.086,245.268-.15,53.488,17.407,105.524,49.933,147.987l44.212-43.086c-21.473-30.751-32.92-67.387-32.775-104.892,.166-101.63,82.47-183.994,184.098-184.239,101.629,.244,183.933,82.609,184.098,184.239-.156,101.633-82.466,184.006-184.098,184.239v-61.418c67.755,.026,122.702-54.879,122.728-122.634v-.17c.072-67.764-54.804-122.758-122.568-122.83h-.16c-67.905-.052-123.011,54.925-123.117,122.83-.042,21.435,5.614,42.494,16.388,61.024l45.742-44.63c-1.535-5.329-2.306-10.85-2.29-16.394,.029-34.728,28.162-62.878,62.889-62.929,34.729,.049,62.865,28.201,62.895,62.929-.029,34.728-28.166,62.881-62.895,62.929-6.094-.057-12.14-1.084-17.912-3.038l-158.182,154.807c-1.474,1.486-3.141,2.771-4.956,3.814-.382,.388-1.148,.388-1.525,.782-1.188,.785-2.47,1.417-3.814,1.883-.759,.388-1.519,.388-2.284,.782-1.148,.388-2.29,.759-3.432,1.178-.782-.057-1.566,.069-2.29,.371-1.142,0-2.29,.371-3.055,.371h0c-1.142,0-2.284-.365-3.432-.365-.903,.037-1.806-.086-2.666-.365-1.142-.388-2.29-.759-3.432-1.178-.765-.388-1.525-.388-2.29-.782-1.222-.474-2.375-1.107-3.432-1.883-.681-.313-1.321-.71-1.907-1.178-1.098-.79-2.118-1.684-3.049-2.667-.377-.388-1.142-.782-1.525-1.518h0c-56.063-57.265-87.407-134.249-87.287-214.388,.22-169.195,137.261-306.335,306.456-306.674,169.195,.339,306.236,137.479,306.456,306.674-.028,169.351-137.118,306.729-306.467,307.111l.03-.006Z"/></svg>