<svg xmlns="http://www.w3.org/2000/svg" viewBox="0 0 1000 1000"><path d="M936.007 955.301 576.122 555.714h293.287c21.773 0 40.983-14.088 40.983-52.51 0-34.58-16.649-57.633-40.983-57.633H586.368L912.954 35.737C921.919 21.65 912.954 5 898.866 5H743.898s-7.685 0-11.527 5.123L391.697 445.57V19.088c0-8.965 0-14.088-10.246-14.088H252.097c-7.684 0-7.684 2.561-7.684 12.807v427.764H89.445c-20.492 0-39.703 21.772-39.703 55.071 0 28.176 19.211 55.072 39.703 55.072h154.968v417.518c0 21.772 3.842 21.772 12.807 21.772h125.512c8.965 0 8.965-8.965 8.965-21.772V596.697L770.793 986.04c7.684 8.965 19.21 8.965 20.492 8.965h139.6c26.894 0 23.052-20.492 5.122-39.703z"/></svg>