<svg xmlns="http://www.w3.org/2000/svg" viewBox="0 0 1000 1000"><path d="M500.496 5C223.572 5 5 229.506 5 500.002c0 276.43 224.506 495.001 495.002 495.001 276.43 0 495.001-224.506 495.001-495.001C995.003 226.539 773.464 5 500.496 5zM110.825 460.936c-33.627-64.286 12.857-133.517 82.088-133.517 33.626 0 59.34 11.868 77.143 41.538 48.462 85.055 100.88 168.133 147.363 257.144 25.714 43.517 10.88 98.901-30.66 123.627-46.483 26.703-101.868 13.846-126.593-30.66-48.462-87.033-101.869-172.088-149.341-258.132zm295.715 1.978c-34.616-66.264 7.912-135.495 80.11-135.495 34.615 0 59.34 11.868 78.132 43.516 49.45 83.077 99.89 166.155 147.363 252.199 25.715 46.484 11.868 101.868-31.648 126.594-44.506 25.714-100.88 13.846-127.583-33.627-51.429-82.088-100.88-167.143-146.374-253.187zm258.133-59.341c-16.814-35.605 5.934-71.21 44.505-74.176 21.759-1.978 49.45 0 72.198 0 22.748 0 46.484-1.978 66.264 0 41.539 2.967 68.242 39.56 50.44 74.176-22.747 43.516-47.473 86.044-70.22 123.627-20.77 33.626-69.231 36.593-90.99 2.967-27.692-40.55-51.428-83.078-72.197-126.594z"/></svg>