<svg xmlns="http://www.w3.org/2000/svg" viewBox="0 0 1000 1000"><path d="M5 500.002v.395-.395c.099-89.506 22.55-172.682 67.253-249.726 44.209-74.473 103.55-133.814 178.023-178.023C327.419 27.45 410.694 5 500.002 5c89.308 0 172.583 22.45 249.726 67.253C824.2 116.462 883.54 175.803 927.75 250.276c44.803 77.143 67.253 160.418 67.253 249.726 0 89.308-22.45 172.583-67.253 249.726C883.541 824.2 824.2 883.54 749.728 927.75c-77.143 44.803-160.418 67.253-249.726 67.253-89.308 0-172.583-22.45-249.726-67.253-74.473-44.209-133.814-103.55-178.023-178.022C27.55 672.684 5.099 589.508 5 500.002zm144.396 63.791c39.56 74.176 81.1 145.385 122.638 215.605 21.758 39.56 57.363 59.341 100.88 63.297h255.165c6.923 0 15.824-1.978 22.747-3.956 38.572-6.923 66.264-24.725 86.045-58.352 43.516-71.209 82.088-142.418 124.615-213.627 22.748-42.528 22.748-86.044 0-126.594-42.527-71.209-81.099-143.407-124.615-213.627-22.748-41.538-62.308-63.297-108.792-63.297H379.836c-45.494 0-83.077 21.759-107.802 63.297-41.539 70.22-83.077 142.418-122.638 216.594-23.736 39.56-23.736 81.1 0 120.66zm39.56-61.319c.99 12.857 5.935 21.758 14.836 27.693 39.56 24.725 80.11 45.494 119.67 67.253 4.946 1.978 10.88 1.978 13.847 1.978 8.9-1.978 19.78-26.704 17.802-35.605-5.934-35.604-5.934-73.187-.989-111.759 2.967-14.835 0-26.703-7.912-37.582-5.934-9.89-14.835-12.857-24.725-6.923-39.561 23.736-78.133 44.505-114.726 66.264-11.868 6.923-16.813 16.813-17.802 28.681zm26.704 0c37.583-19.78 73.187-40.55 109.78-62.308-6.922 42.528-6.922 84.066 0 126.594-36.593-23.736-72.197-42.528-109.78-64.286zm192.858-120.66c0 2.967 2.967 2.967 2.967 4.945 9.89-4.945 20.77-9.89 27.692-13.846 5.934-1.978 8.901-5.934 8.901-11.868v-77.143c0-12.857 7.913-18.791 18.792-12.857 28.681 13.846 56.374 25.714 83.077 40.55 18.791 8.9 27.692 25.714 30.66 45.494.988 23.736-10.88 41.539-32.638 50.44-36.594 17.802-72.198 35.604-108.792 53.407-20.769 11.868-30.66 33.626-24.725 55.384 3.956 13.847 13.846 23.737 27.692 29.67 35.605 17.803 69.231 33.627 105.825 51.43 20.77 7.912 32.637 24.725 32.637 46.483 0 24.726-10.879 41.539-30.66 51.429-29.67 13.846-54.395 25.714-80.11 40.55-13.845 5.934-21.758 0-21.758-14.836v-77.143c0-2.967-2.967-7.912-3.956-9.89-10.879-3.956-20.769-9.89-32.637-15.824 0 42.527-2.967 79.121 2.967 117.693 1.978 28.681 37.582 47.472 63.297 36.593 31.648-16.813 64.286-30.66 96.923-49.45 27.693-17.803 43.517-44.506 43.517-79.122-2.967-34.615-20.77-64.286-55.385-80.11-17.802-8.901-42.528-20.77-63.297-29.67-19.78-9.89-41.538-18.792-63.297-30.66 2.967-.989 5.934-2.967 7.912-5.934 39.56-16.813 79.121-35.604 117.693-54.396 41.539-20.769 61.319-56.373 53.407-99.89-5.934-31.649-24.726-53.407-53.407-68.242-26.703-11.868-52.418-23.736-78.132-36.594-33.627-17.802-69.231 2.967-72.198 38.572-2.967 36.593-2.967 73.187-2.967 104.835zm245.275 61.32c6.923 37.582 7.913 73.186 2.967 108.79-5.934 15.825 0 27.693 5.935 39.561 6.923 10.88 14.835 11.869 23.736 5.935 38.571-21.759 79.121-42.528 117.693-67.253 10.879-5.935 14.835-14.836 14.835-26.704s-3.956-20.77-14.835-27.692c-38.572-23.737-79.122-44.506-117.693-68.242-4.945-2.967-13.846-2.967-16.813 0-8.902 8.9-20.77 21.758-15.825 35.604zm32.638 120.66v-120.66c33.626 18.79 69.23 39.56 106.813 59.34-37.582 21.758-70.22 40.55-106.813 61.32z"/></svg>