<svg width="1000" height="1000" viewBox="0 0 1000 1000" fill="none" xmlns="http://www.w3.org/2000/svg">
<path d="M289 2L87 204H251C273 124 359 17 385 2H289Z" fill="black"/>
<path d="M483 204V2H437C351.4 63.6 302.667 162.333 289 204H483Z" fill="black"/>
<path d="M522 204H718C672.4 95.2 598.333 24 567 2H522V204Z" fill="black"/>
<path d="M756 204H915L711 2H621C685.8 61.2 731 144 756 204Z" fill="black"/>
<path d="M713 1000L915 798L751 798C729 878 643 985 617 1000L713 1000Z" fill="black"/>
<path d="M519 798L519 1000L565 1000C650.6 938.4 699.333 839.667 713 798L519 798Z" fill="black"/>
<path d="M480 798L284 798C329.6 906.8 403.667 978 435 1000L480 1000L480 798Z" fill="black"/>
<path d="M246 798L87 798L291 1000L381 1000C316.2 940.8 271 858 246 798Z" fill="black"/>
<path d="M345.041 718L346.241 391.6H344.441L259.241 718H202.841L119.441 391.6H117.641L118.841 718H53.4414V293.2H150.041L231.641 604H234.041L313.841 293.2H415.241V718H345.041Z" fill="black"/>
<path d="M501.098 718V293.2H691.298V356.8H570.098V469.6H682.298V528.4H570.098V653.8H697.298V718H501.098Z" fill="black"/>
<path d="M929.226 375.4C913.626 356.6 894.026 347.2 870.426 347.2C863.626 347.2 857.026 348.4 850.626 350.8C844.226 352.8 838.426 356.2 833.226 361C828.026 365.8 823.826 372 820.626 379.6C817.826 387.2 816.426 396.2 816.426 406.6C816.426 424.6 821.826 438.6 832.626 448.6C843.426 458.2 857.626 467.4 875.226 476.2C885.626 481.4 896.226 487.4 907.026 494.2C917.826 501 927.626 509.2 936.426 518.8C945.226 528.4 952.426 539.8 958.026 553C963.626 566.2 966.426 581.8 966.426 599.8C966.426 620.6 963.026 639 956.226 655C949.826 671 941.026 684.6 929.826 695.8C919.026 706.6 906.226 714.8 891.426 720.4C876.626 726 861.026 728.8 844.626 728.8C821.026 728.8 799.226 724.2 779.226 715C759.226 705.8 743.226 694.2 731.226 680.2L770.226 627.4C779.426 638.6 790.426 647.4 803.226 653.8C816.426 660.2 829.826 663.4 843.426 663.4C858.626 663.4 871.226 658.2 881.226 647.8C891.226 637.4 896.226 622.8 896.226 604C896.226 585.6 890.226 571 878.226 560.2C866.226 549.4 851.026 539.4 832.626 530.2C821.026 524.6 810.026 518.4 799.626 511.6C789.626 504.8 780.626 496.8 772.626 487.6C765.026 478 758.826 467 754.026 454.6C749.626 441.8 747.426 426.6 747.426 409C747.426 387 750.826 368.2 757.626 352.6C764.826 336.6 774.026 323.4 785.226 313C796.826 302.6 809.826 295 824.226 290.2C838.626 285 853.226 282.4 868.026 282.4C889.626 282.4 908.826 286 925.626 293.2C942.826 300 957.226 310.2 968.826 323.8L929.226 375.4Z" fill="black"/>
</svg>
