<svg xmlns="http://www.w3.org/2000/svg" width="1000" height="1000">
  <path d="M986.907 197.722c-10.197 12.747-24.217 20.394-36.964 28.042-39.513 20.394-81.575 29.316-124.912 35.69-63.731 10.196-127.462 11.471-189.919 7.647-57.358-3.824-115.99-11.471-170.799-33.14-16.57-5.098-33.14-15.295-45.886-25.492-10.197-5.099-14.021-12.747-14.021-24.218v-70.104c-1.275-21.669 10.197-39.513 26.767-50.985C463.038 39.67 501.277 28.198 540.79 20.55c98.146-17.844 189.92-22.943 302.085-1.274 36.964 5.098 73.928 16.57 107.068 36.964 17.845 11.471 33.14 24.217 36.964 48.435zM13.097 544.42v-90.498c3.824-25.492 20.394-39.513 40.788-50.985 38.239-22.943 81.576-33.14 123.638-40.788 66.28-11.471 130.012-14.02 193.743-7.647 56.083 3.824 110.892 14.02 161.876 36.964 16.57 7.647 31.866 17.844 45.887 29.316 11.471 8.922 17.845 22.943 17.845 38.239-2.55 25.492-2.55 48.435 0 73.928 0 11.471-3.824 21.668-14.021 25.492-21.669 11.472-42.063 22.943-63.731 30.59-50.985 17.846-100.695 22.944-152.955 26.768-72.653 3.824-144.032 2.55-214.136-11.472-34.415-5.098-67.555-15.295-100.695-30.59-15.295-6.374-29.316-15.296-38.239-29.317zm53.534 368.365v-79.026c0-21.669 11.472-33.14 28.042-44.612 7.648 34.415 34.415 49.71 61.182 66.28 43.337 20.394 89.223 30.591 137.659 38.24 65.005 10.196 130.011 11.47 195.017 7.647 49.71-3.824 100.695-11.472 149.13-25.493 3.824 0 5.099-1.274 8.923-1.274 10.197 22.943 2.549 54.808-19.12 67.555-67.554 43.337-211.587 56.083-322.479 52.26-22.943-1.276-45.886-3.825-67.554-7.649-44.612-5.098-86.675-15.295-126.188-33.14-12.746-5.098-25.492-12.746-36.964-22.943-3.824-3.824-7.648-11.471-7.648-17.845zM88.3 674.43c1.275-14.02 0-29.316 0-42.062 22.943 3.824 42.062 8.922 63.731 12.746 59.907 10.197 121.089 14.021 182.27 11.472 59.908-1.275 118.54-7.648 177.173-22.943 30.59-8.923 59.907-19.12 86.674-38.239 17.845-11.472 33.14-25.492 39.513-48.436 19.12 7.648 33.14 28.042 33.14 49.71 1.275 25.493 0 52.26 1.275 77.752 0 10.197-3.824 17.845-8.922 21.669-14.021 7.648-25.493 17.845-40.788 22.943-43.337 19.12-87.949 29.316-133.835 33.14-44.612 3.824-89.224 6.373-136.385 6.373-70.104-2.549-137.659-10.197-203.939-35.689-17.845-5.098-33.14-17.845-48.435-26.767-7.648-3.824-11.472-11.472-11.472-21.669zm48.436 89.224c17.844 3.824 34.414 10.197 52.259 14.02 77.752 19.12 156.778 22.944 237.08 19.12 57.357-2.55 114.715-10.197 170.799-25.492 21.668-7.648 42.062-16.57 63.73-26.767 10.197-3.824 19.12-11.472 29.317-19.12 11.471-11.471 21.668-24.218 21.668-43.337h3.824c0 6.373 1.275 11.472 1.275 17.845 2.55 26.767 2.55 54.809 0 82.85 0 6.373-5.099 16.57-11.472 20.394-15.295 8.922-33.14 19.12-50.985 26.767-48.435 17.845-96.87 26.767-146.58 29.316-44.613 1.275-91.774 3.824-136.385 1.275-62.457-1.275-122.364-11.472-179.722-34.415-14.02-6.373-29.316-14.02-40.788-21.668-15.295-11.472-17.844-21.669-14.02-40.788zm267.67-457.589v-52.26c3.824 0 3.824 0 6.373 1.275 48.436 28.042 100.695 39.514 152.954 47.161 63.731 7.648 126.188 11.472 189.919 7.648 62.456-3.824 123.638-14.02 184.82-34.415 12.746-6.373 26.767-12.746 40.788-17.844 1.274-2.55 5.098-3.824 7.647-3.824v71.378c-7.647 14.021-21.668 21.669-36.964 29.317-39.513 19.119-80.3 29.316-122.363 34.414-66.28 10.197-132.56 11.472-197.566 7.648-11.472 0-21.669-3.824-31.866-11.471-30.59-29.317-70.104-42.063-109.617-52.26-24.218-5.098-49.71-8.922-72.654-12.746-7.647-2.55-11.471-3.824-11.471-14.02zm230.706 184.82v-53.534h21.669c85.4 3.824 170.799-1.275 256.198-26.767 21.669-5.098 44.612-17.845 66.28-26.767 1.275 0 5.1-2.55 7.648-2.55v72.654c-11.471 8.922-21.668 20.394-35.689 26.767-36.964 21.669-77.752 30.591-119.814 36.964-47.161 5.099-95.597 7.648-141.483 8.922-6.373 0-14.021-3.823-19.12-5.098-10.196-6.373-17.844-11.472-28.041-17.845-5.099-3.824-7.648-5.098-7.648-12.746zm52.26 418.076c2.549-12.747 2.549-29.317 0-42.063 0-6.373 3.823-10.197 7.647-11.471 16.57-10.197 29.317-20.394 43.337-28.042 3.824-3.824 7.648-3.824 8.923-3.824 47.16-7.648 94.322-11.472 138.933-20.394 31.866-6.373 63.731-16.57 93.048-33.14 1.274-2.55 5.098-2.55 7.647-2.55v52.26c-3.824 24.218-19.119 36.964-39.513 48.436-29.316 20.394-63.73 29.316-98.146 36.964-48.435 10.197-99.42 14.02-147.856 15.295-10.197 0-14.02-1.274-14.02-11.471zm21.668-341.599c15.296 0 33.14-1.274 48.436-1.274 63.73-6.373 128.736-14.021 188.643-36.964 12.747-6.373 26.768-14.021 40.788-19.12v71.38c-7.647 14.02-21.668 21.668-35.689 29.315-36.964 19.12-79.026 29.317-119.814 34.415-25.493 3.824-52.26 6.373-79.027 7.648-5.098 0-8.922-1.275-12.746-3.824-7.648-7.648-15.295-15.295-22.943-24.218-1.275-2.549-5.099-6.373-5.099-10.197 0-15.295-2.549-30.59-2.549-47.16zm48.436 203.94v-67.555c0-7.648 2.549-10.197 10.197-10.197 48.435-3.824 98.145-11.472 145.306-24.218 22.944-8.922 44.612-20.394 66.28-28.042 1.275-1.274 5.1-1.274 7.648-1.274v71.378c-15.295 19.12-36.964 30.591-59.907 38.239-44.612 16.57-91.772 25.492-138.933 29.316-5.099 0-12.747 2.55-20.394 2.55-7.648 1.274-10.197-2.55-10.197-10.197z" style="fill:#000;fill-opacity:1;fill-rule:nonzero;stroke:none;"/>
</svg>
