<svg xmlns="http://www.w3.org/2000/svg" viewBox="0 0 1000 1000"><path d="M749.416 927.207c74.186-44.767 134.302-103.604 177.79-179.07 44.768-78.022 67.791-157.325 67.791-248.138 0-88.256-23.023-172.674-67.79-249.418-43.489-75.465-103.605-134.302-177.79-177.79C671.392 26.744 589.532 5 499.997 5 410.464 5 328.603 28.023 251.86 72.79c-75.465 43.49-135.58 103.606-179.07 177.79C28.023 327.326 5 411.744 5 500c0 90.813 21.744 171.395 67.79 248.139 44.767 74.185 103.605 135.58 179.07 179.069 78.022 44.767 158.604 67.79 249.417 67.79 88.256 0 171.395-21.744 248.14-67.79zM70.232 499.999c0-76.744 17.907-149.651 57.558-216.163 39.651-66.511 89.535-116.395 154.767-156.046 65.232-39.65 139.418-57.558 218.72-57.558 75.465 0 148.372 19.186 214.884 57.558 69.07 39.651 117.674 89.535 156.046 156.046 38.372 66.512 58.837 139.419 58.837 216.163 0 62.674-11.512 118.953-37.093 172.674-25.582 52.441-55 101.046-98.488 139.418-12.791-25.581-30.698-47.326-53.721-67.79 33.256-31.977 57.558-69.07 76.744-110 19.186-40.93 26.86-86.977 26.86-134.302 0-61.395-16.628-120.233-47.325-173.953-30.698-52.442-72.907-92.093-122.79-124.07-53.721-34.535-112.558-46.046-175.233-46.046-62.674 0-120.232 16.628-172.674 46.046-53.72 30.698-94.65 72.907-124.07 124.07-30.697 53.72-48.604 112.558-48.604 173.953 0 47.325 10.233 92.092 29.419 134.302 17.907 39.65 40.93 78.023 74.186 110-21.744 20.464-39.651 42.209-55 67.79-42.21-38.372-75.465-85.698-98.488-139.418-23.023-53.721-34.535-110-34.535-172.674zm166.279 0c0-46.047 12.79-90.814 34.534-133.023 20.466-40.93 57.558-71.628 97.21-94.651 39.65-23.023 85.697-35.814 133.022-35.814 46.047 0 89.535 12.79 131.744 35.814 39.651 21.744 71.628 55 94.651 94.65 24.302 42.21 35.814 86.977 35.814 133.024 0 38.372-8.953 75.465-23.023 108.72-14.07 34.535-38.372 63.954-65.233 89.535-28.139-15.349-56.278-25.581-88.255-31.977 29.418-16.628 55-38.372 74.186-67.79 19.186-29.419 26.86-63.953 26.86-97.21 0-35.813-8.953-66.51-25.581-95.93-16.628-28.139-39.651-49.883-67.79-66.51-29.42-16.629-60.117-25.582-94.652-25.582-33.255 0-66.511 8.953-94.65 25.581-26.861 16.628-49.884 38.372-66.512 66.512-17.907 29.418-25.581 60.116-25.581 95.93 0 33.255 8.953 66.511 26.86 97.209 17.907 29.418 42.21 51.162 71.628 67.79-29.419 6.396-57.558 16.628-84.419 31.977-30.697-25.581-51.162-55-66.511-89.535-15.349-34.534-24.302-70.348-24.302-108.72z"/></svg>