<svg xmlns="http://www.w3.org/2000/svg" viewBox="0 0 1000 1000"><path d="m207.103 272.307-22.466-25.11c-3.964 42.29-9.25 80.613-13.215 120.26-13.215 80.612-25.109 166.51-31.717 252.41-6.607 33.037-6.607 33.037-39.645 33.037H80.237c-50.218 0-50.218 0-64.754-59.468-30.395-167.833 14.536-321.13 134.795-444.03 178.405-181.05 463.852-191.621 659.438-33.04 107.043 87.22 169.154 199.55 182.37 340.952 5.285 56.826-2.644 114.973-18.502 171.798-6.608 23.787-6.608 23.787-21.144 23.787h-63.433c-23.788 0-27.752-9.25-33.038-29.073-9.25-114.972-27.752-233.91-40.967-347.56 0-9.25-2.643-5.286-5.286-22.466l-25.11 18.502c-83.255 91.185-173.118 177.083-261.66 265.625-23.787 23.787-23.787 23.787-48.896 0-92.507-87.22-174.44-181.048-266.947-265.625zM80.237 754.66h120.258c18.502 0 23.788-6.607 26.43-26.43 6.608-80.613 14.537-133.474 22.467-214.086 2.643-25.11 6.607-33.038 10.572-42.289 10.572 3.965 15.858 13.215 25.109 18.501 66.076 63.433 133.473 129.51 194.263 195.585 14.537 13.215 23.787 13.215 39.645 0 62.112-66.076 128.188-129.509 194.264-195.585 6.607-6.607 13.215-14.536 25.109-23.787 2.643 34.36 9.25 62.111 9.25 87.22 7.93 54.183 11.894 117.615 23.788 174.44 0 19.824 9.25 26.431 23.787 26.431h117.615c-3.964 83.256-208.8 218.05-351.524 236.552-227.3 29.075-418.92-114.971-481.033-236.551z"/></svg>