<svg xmlns="http://www.w3.org/2000/svg" width="1000" height="1000">
  <path d="M499.507 995.003c276.924 0 495.496-224.506 495.496-495.496C995.003 223.572 770.497 5 500.496 5 236.43 5 5 229.506 5 499.507c0 273.957 221.54 495.496 494.507 495.496zM246.32 363.023c0-20.77 7.913-38.571 17.803-56.374 18.791-31.648 45.494-56.373 75.165-77.143 41.538-29.67 88.022-47.472 137.473-58.352 32.637-6.923 66.264-9.89 98.901-7.912 49.451 1.978 96.924 13.847 138.462 41.539 39.56 26.703 65.275 64.286 72.198 112.748 6.923 45.494-3.956 87.033-29.67 125.604-25.714 38.572-61.319 68.242-101.869 90.99-37.582 21.758-77.143 37.582-118.681 45.494-3.956.99-6.923 1.978-5.934 6.923 9.89 41.54 25.714 82.089 51.428 116.704 3.956 4.945 6.923 7.912 10.88 11.868 13.846 16.814 31.648 21.759 52.417 21.759 41.539-1.978 77.143-17.803 107.803-43.517 7.912-6.923 14.835-16.813 22.747-23.736 5.934-5.934 11.868-10.88 18.791-14.836 6.924-3.956 15.825-2.967 22.748 2.967 6.923 5.935 7.912 12.858 6.923 21.759-2.967 13.846-8.901 26.703-18.791 36.593-36.594 37.583-78.133 69.231-129.561 84.067-24.726 6.923-50.44 10.879-75.165 4.945-21.759-4.945-38.572-16.814-54.396-31.649-26.704-24.725-46.484-55.385-61.32-89.011-13.845-30.66-24.724-62.308-37.582-93.956-.989-1.979-1.978-4.946-2.967-9.89-1.978 3.955-3.956 6.922-4.945 9.89-11.868 31.648-22.747 63.296-34.615 94.945-10.88 26.703-20.77 53.407-34.616 78.132-9.89 15.824-20.769 30.66-35.604 42.528-18.792 14.835-47.473 13.846-62.308-2.967-10.88-11.869-11.868-25.715-9.89-41.539.989-14.835 7.912-27.692 14.835-40.55 47.473-86.044 94.945-173.077 142.418-259.121 18.791-33.627 38.572-66.264 63.297-94.946 7.912-7.912 15.824-15.824 24.725-22.747 3.956-2.967 8.901-4.945 13.846-5.934 18.792-2.967 31.649 12.857 26.704 32.637-5.934 18.792-11.868 38.572-19.78 56.374-10.88 26.704-23.737 52.418-35.605 78.132-.989 1.978-.989 3.956-1.978 6.923 20.77 1.978 39.56.99 58.352-4.945 70.22-24.725 118.682-70.22 138.462-142.418 8.901-32.637 4.945-65.275-17.802-91.978-16.814-20.77-40.55-31.649-66.264-37.583-25.715-5.934-52.418-4.945-79.121-2.967-27.693 1.978-54.396 8.901-80.11 19.78-33.627 15.825-57.363 42.528-76.155 73.188-9.89 17.802-20.77 34.615-31.648 51.428-7.912 11.869-17.802 20.77-31.649 24.726-11.868 2.967-22.747 1.978-33.626-.99-15.824-4.944-23.737-18.79-24.726-37.582z" style="fill:#000;fill-opacity:1;fill-rule:nonzero;stroke:none;"/>
</svg>
