<svg xmlns="http://www.w3.org/2000/svg" viewBox="0 0 1000 1000"><path d="M600.69,964.39c0,13.43,12.35,23.5,25.35,20.1C839,928.89,996.09,735.73,996.09,506,996.09,232.82,774,11.38,500,11.38S3.91,232.82,3.91,506c0,235,164.41,431.75,384.81,482.11,12.85,2.94,24.76-7.07,24.76-20.25v-117A22,22,0,0,0,398,830.11Q293.35,796.5,228.7,711q-68.87-91.69-68.87-212.48,0-159.58,120.28-261.46Q380,152.7,507.57,152.7q164.41,0,265.3,118.84,81.48,96.06,81.48,221.69,0,123.21-72.27,220.71-60.62,82.35-166,116.17a21.93,21.93,0,0,0-15.43,20.72Zm-6.3-391.26a21.22,21.22,0,0,0-21.21-21.21H441.48a21.21,21.21,0,0,0-21.2,21.21v8c0,17.93-20.32,26.88-30.58,12.17q-27.63-39.65-27.62-93.78,0-61.62,43.16-106.72T507.57,347.7q58.7,0,101.85,45.12t43.17,106.72q0,52.5-27.31,92.48c-10.22,15-30.89,6.09-30.89-12Z" fill-rule="evenodd"/></svg>