<svg xmlns="http://www.w3.org/2000/svg" viewBox="0 0 1000 1000"><path d="M486.216,374.616a77.751,77.751,0,0,1,57.91,23.581L549.38,403c11.814,11.041,16.39,13.561,26.556,13.61,11.156.075,41.1-46.972,78.852-135.958l-261.161-1.247-.841,176.262C424.338,401.545,454.211,374.464,486.216,374.616Z" fill-rule="evenodd"/><path d="M502.387.006C226.247-1.312,1.324,221.474.006,497.613S221.474,998.676,497.613,999.994,998.676,778.526,999.994,502.387,778.526,1.324,502.387.006ZM721.9,236.564l-2.966,7.74-9.724,24.765-6.451,15.95c-49.032,119.731-86.994,176.453-127.1,176.262a73.014,73.014,0,0,1-54.34-22.551l-5.1-4.655c-12.651-11.82-18.021-14.732-30.276-14.79-6.375-.031-17.85,8.056-32.372,27.09a484.787,484.787,0,0,0-49.522,87.294l-1.633,3.61,171.932.821-21.62,44.415-160.539-.766L391.314,764l-47.21-.226,2.525-529.021L721.9,236.543Z"/></svg>