<svg xmlns="http://www.w3.org/2000/svg" width="1000" height="1000">
  <path d="M5 500.496C5 225.55 226.54 5 500.496 5c272.968 0 494.507 222.528 494.507 494.507 0 274.946-222.528 495.496-494.507 495.496C225.55 995.003 5 772.475 5 500.496zm129.56-119.67c-67.252 92.967-49.45 215.605 35.605 294.726 82.089 68.242 222.529 49.45 283.847-36.594 30.66-42.527 42.528-79.121-11.868-103.846-33.626 83.077-100.88 160.22-215.605 103.846-67.253-42.527-91.978-140.44-43.516-208.682 43.516-61.319 142.418-74.176 209.67-12.857 33.627 33.626 165.166 200.77 232.419 258.133 87.033 80.11 239.341 37.582 271.979-79.121-31.649 17.802-56.374 17.802-92.967 42.527-56.374 24.726-103.847 24.726-153.298-11.868-43.516-42.528-68.242-80.11-104.835-117.693-34.616-53.406-61.32-102.857-103.847-140.44-85.055-80.11-242.308-67.253-307.583 11.868zm448.024 141.428c51.43-141.429 141.43-180.99 258.133-115.714 12.857 10.879 37.583 10.879 69.231 10.879-44.506-115.715-213.627-153.297-327.364-23.736-36.593 44.505-36.593 80.11 0 128.571z" style="fill:#000;fill-opacity:1;fill-rule:nonzero;stroke:none;"/>
</svg>
