<svg xmlns="http://www.w3.org/2000/svg" viewBox="0 0 1000 1000"><path d="M656.53 995H206.649c-43.158 0-74.545-15.693-95.47-58.85-26.155-47.08-56.235-87.622-83.698-136.01-15.694-24.849-10.463-52.312 6.539-83.7 30.079-51.004 61.466-104.623 92.853-162.166 20.925-36.618 20.925-71.929 0-108.547-27.464-49.696-56.235-102.008-87.622-147.78-22.233-40.543-27.464-73.237 0-115.087 24.848-41.85 45.773-83.699 71.928-125.548C132.104 19.386 163.491 5 200.11 5h444.65c47.081 0 79.776 14.386 99.393 57.543L965.17 439.188c19.617 43.157 24.848 78.468 0 115.086-73.237 132.087-153.012 261.559-224.941 391.03-22.233 34.003-48.389 49.697-83.699 49.697zM290.347 246.943c9.155 20.925 20.925 35.31 24.849 47.08 32.694 47.081 57.542 98.085 85.006 145.166 31.387 43.157 31.387 85.007 3.924 125.548-31.388 47.08-62.775 100.7-92.854 151.704-18.309 28.772-11.77 37.927 15.694 37.927h197.477c31.387 0 58.85-15.694 74.544-48.389 30.08-53.62 57.543-103.316 88.93-155.627 20.925-36.619 20.925-68.006 0-104.624-30.08-53.62-58.85-102.008-88.93-151.704-15.694-32.695-43.157-48.389-78.468-48.389H341.351c-14.385 0-30.079 1.308-51.004 1.308z"
    style="fill:#000;fill-opacity:1;fill-rule:nonzero;stroke:none"/></svg>