<svg xmlns="http://www.w3.org/2000/svg" width="1000" height="1000">
  <path d="M500.496 5c272.968 0 494.507 221.54 494.507 495.002 0 270.495-218.572 495.001-495.001 495.001C229.506 995.003 5 776.431 5 500.002 5 229.506 223.572 5 500.496 5zM222.583 735.882c0 16.813 6.923 24.725 22.747 24.725 86.045-4.945 171.1-4.945 256.155-4.945 86.044 0 171.1 0 257.144 4.945 16.813 0 22.747-7.912 22.747-24.725V260.166c0-15.825-5.934-18.792-19.78-18.792H245.33c-15.824 0-22.747 2.967-22.747 18.792 3.956 157.253 3.956 318.462 0 475.716zm49.45-189.891V283.902h240.331c-80.11 88.022-158.242 174.067-240.33 262.089zm2.968 168.132v-91.978c0-3.956 2.967-7.912 7.912-9.89 22.747-23.737 44.506-46.484 68.242-72.198 52.418 58.352 101.868 114.725 154.286 174.066zm105.824-211.649c62.308-71.209 127.583-143.407 189.891-211.649 3.956-4.945 5.934-6.923 13.846-6.923 45.495-3.956 94.946 0 147.364 0-65.275 71.209-131.54 143.407-196.814 218.572 65.275 69.231 127.583 142.418 196.814 213.627h-26.704c-35.604 0-68.242-1.978-104.835 0-19.78 0-31.649-6.923-46.484-18.791-58.352-66.264-115.715-128.572-173.078-194.836z" style="fill:#000;fill-opacity:1;fill-rule:nonzero;stroke:none;"/>
</svg>
