<svg xmlns="http://www.w3.org/2000/svg" viewBox="0 0 1000 1000"><path d="M500,0C224.15,0,.529,223.859.529,500S224.15,1000,500,1000,999.471,776.142,999.471,500,775.852,0,500,0ZM432.631,714.062c-63.82,3.448-127.6-33.42-131.069-93.263-3.407-58.814,44.54-98.162,123.682-102.434,29.214-1.579,52.976.816,76.736,3.213s47.525,4.791,76.738,3.213a260.59,260.59,0,0,0,43.011-5.878C613.118,620.005,536.633,708.449,432.631,714.062ZM597.766,481.59c-30.832,1.72-55.915-.892-80.995-3.506s-50.16-5.224-81-3.507a267.1,267.1,0,0,0-45.4,6.41c9.09-110.278,89.819-206.766,199.6-212.887,67.365-3.761,134.691,36.46,138.352,101.739C731.917,434.005,681.311,476.929,597.766,481.59Z" fill-rule="evenodd"/></svg>