<svg xmlns="http://www.w3.org/2000/svg" viewBox="0 0 1000 1000"><path d="M500.496 5C223.572 5 5 229.506 5 500.002c0 276.43 224.506 495.001 495.002 495.001 276.43 0 495.001-224.506 495.001-495.001C995.003 226.539 773.464 5 500.496 5zM153.352 705.222v-4.945c-.989-3.956.99-4.945 4.945-6.923 23.737-14.835 49.45-28.681 74.176-42.528 100.88-59.34 202.748-117.692 304.617-176.044 91.978-53.407 182.967-105.825 275.935-158.243 3.956-3.956 8.9-6.923 14.835-9.89 1.978 0 1.978-.989 4.945 0 4.945 2.967 8.901 5.934 14.835 8.901.99.99 1.978 1.978 1.978 2.968v15.824c0 3.956-.989 5.934-2.967 6.923-32.637 17.802-63.297 36.593-95.934 55.385-48.462 27.692-96.924 55.384-144.396 83.077-.99.989-1.978.989-3.956 1.978-2.967-3.956-4.945-8.901-7.912-12.857-110.77 63.297-221.54 127.583-333.298 191.868-1.978-4.945-4.945-8.9-6.923-13.846-32.638 19.78-67.253 38.572-100.88 58.352zm0-63.297c0-2.967-.989-5.934 0-7.912 0 0 1.978-1.978 3.956-2.967 30.66-17.802 63.297-36.593 92.968-55.385C353.133 517.31 455.99 457.97 559.837 397.64c70.22-39.56 141.43-81.1 211.65-122.638 2.966-.99 4.944-1.978 6.922 0 10.88 6.923 22.748 13.846 33.627 19.78.989 0 .989.99 1.978 1.978-70.22 40.55-140.44 81.1-211.65 122.638-2.966-4.945-4.944-9.89-7.911-14.835-110.77 65.275-221.54 128.572-333.298 193.847-1.978-5.935-4.945-9.89-6.923-14.836-32.638 19.78-67.253 38.572-100.88 58.352zm0-63.297v-7.912c0-.989 1.978-1.978 3.956-2.967 33.627-19.78 67.253-38.571 101.869-59.34 110.77-63.298 219.56-127.584 330.33-190.88 43.517-24.726 85.056-48.462 127.583-73.188 1.978-1.978 3.956-1.978 7.912 0 10.88 6.924 22.748 12.858 35.605 20.77-71.21 41.538-142.418 81.099-212.638 121.649-2.967-3.957-4.945-8.902-7.912-12.858l-278.902 160.22c-1.978-3.955-4.945-8.9-6.923-12.857-32.638 18.792-67.253 37.583-100.88 57.363zm0-126.594v-7.912s1.978-1.978 2.967-1.978c29.67-17.802 59.341-34.615 88.022-51.428 120.66-70.22 242.309-140.44 362.969-210.66 2.967-.99 3.956-.99 7.912 0 10.879 7.912 22.747 14.835 34.615 21.758-71.209 40.55-141.429 81.099-213.627 123.627-1.978-4.945-3.956-8.902-7.912-13.847-55.385 31.649-110.77 64.286-167.143 96.924-1.978-4.945-5.934-9.89-6.923-14.835-32.638 19.78-67.253 38.571-100.88 58.351zm0-63.296c0-2.968-.989-4.946 0-7.913 0 0 1.978-1.978 3.956-2.967 34.616-19.78 70.22-40.55 103.847-60.33 96.923-56.373 193.847-111.758 290.77-167.143 3.956-2.967 5.934-2.967 8.901 0 11.868 5.934 21.758 11.868 34.616 19.78-71.21 41.539-142.419 82.089-213.628 122.638-1.978-3.956-5.934-8.901-6.923-12.857-38.571 20.77-76.154 43.517-113.736 64.286-1.978-3.956-4.945-8.901-6.923-12.857-32.638 19.78-67.253 37.582-100.88 57.363zm0-63.297v-7.913c0-.989 1.978-.989 3.956-1.978 21.759-13.846 45.495-26.703 68.242-40.55 90.99-52.417 181.979-104.835 271.98-157.252 3.955-.99 4.944-.99 7.911 0 9.89 5.934 20.77 11.868 31.649 18.79.989 0 1.978 0 3.956 1.979-71.21 40.55-141.43 82.088-213.627 122.638-2.967-4.945-4.945-7.912-7.912-12.858-19.78 10.88-38.572 22.748-58.352 33.627-1.978-4.945-4.945-8.901-6.923-13.846-32.638 19.78-67.253 38.571-100.88 57.363zm.99 188.901c-1.979-5.934-1.979-7.912 4.944-10.879 112.748-66.264 224.506-129.56 336.265-194.836 56.374-31.648 111.759-64.286 167.144-95.934 2.967-1.978 4.945-1.978 5.934 0 11.868 5.934 22.747 11.868 33.626 17.802.99 0 .99.99 1.978 1.978-70.22 41.539-141.429 83.077-212.638 124.616-2.967-5.934-4.945-9.89-7.912-14.835-74.176 43.516-147.363 86.044-222.528 128.572-1.978-3.956-4.945-8.901-6.923-12.857-32.638 19.78-67.253 37.582-99.89 56.373zm34.615 223.518c220.55-126.594 440.111-253.188 659.672-379.782.99 0 .99.99.99.99v40.549c0 2.967-1.979 3.956-1.979 3.956-58.352 33.626-114.725 67.253-172.088 99.89-23.737 13.846-47.473 27.693-72.198 41.539-.99 0-.99.989-2.967 1.978-1.978-5.934-4.945-9.89-6.923-14.835l-332.31 192.857c-2.966-5.934-5.933-8.9-7.911-13.846-1.978.99-2.967.99-3.956 1.978-15.825 7.912-30.66 17.802-45.495 26.704-5.934 3.956-9.89 2.967-14.835-1.978zm55.384 32.637a164558.97 164558.97 0 0 1 605.277-350.111v43.517c0 .989-1.978 2.967-1.978 2.967-20.77 11.868-41.538 22.747-60.33 34.615-60.33 35.605-121.648 71.21-181.978 105.825-.99.989-2.967.989-4.945 1.978-1.978-4.945-3.956-8.901-6.923-13.846-91.979 54.395-183.957 106.813-276.924 159.23-2.968-2.966-4.946-7.911-8.902-11.867-.989 0-.989.989-1.978 1.978a1148.467 1148.467 0 0 1-48.461 25.714c-6.923 4.945-6.923 4.945-12.858 0zm54.396 31.649c183.957-105.825 366.925-211.65 550.881-318.463v40.55c0 3.956-.989 5.934-1.978 6.923-39.56 21.758-77.143 44.505-115.714 66.264-42.528 24.725-85.056 48.461-127.583 73.187-.99.989-1.978.989-3.956 1.978-1.978-4.945-3.956-8.902-6.923-12.858-73.188 42.528-148.353 85.056-222.529 128.572-2.967-5.934-4.945-9.89-7.912-14.835-2.967 1.978-4.945 2.967-8.901 4.945-12.857 8.901-28.681 15.824-41.539 25.715-5.934 1.978-9.89.989-13.846-1.978zm54.396 31.648c166.154-95.934 331.32-191.869 496.485-286.814v43.516c0 .99-1.978 1.978-1.978 2.967-23.736 13.847-46.483 27.693-69.23 40.55-59.342 33.627-116.704 67.253-174.067 99.89-.99.99-1.978 1.979-3.956 2.968-1.978-5.935-4.945-9.89-6.923-14.836-56.374 31.649-111.76 65.275-167.144 96.924-2.967-4.945-5.934-8.901-7.912-13.846-1.978 0-1.978.989-2.967 1.978-15.824 9.89-32.638 18.79-48.462 27.692-7.912 4.945-6.923 4.945-13.846-.989zm55.385 31.648c147.363-86.044 293.737-170.11 441.1-255.165v43.516c0 .99-1.978 1.978-1.978 2.967-26.703 15.825-52.418 29.67-79.121 45.495-54.396 31.649-109.78 62.308-164.176 94.945-.99 0-1.978.99-3.956 1.978-1.978-4.945-4.945-9.89-6.923-13.846-37.583 21.759-75.166 43.517-113.737 65.275-.99-4.945-3.956-8.9-6.923-12.857-1.978 0-2.967.989-3.956 1.978-15.825 7.912-31.649 16.813-47.473 26.703-5.934 3.957-5.934 3.957-12.857-.989zm53.407 31.649c129.56-75.165 258.132-149.341 387.693-223.517 0 11.868-.989 25.714 0 37.582 0 5.934-1.978 7.912-5.934 10.88-80.11 46.483-159.231 91.978-238.352 138.461-1.978 0-2.967.99-4.945 1.978-1.978-5.934-4.945-8.9-6.923-13.846-19.78 10.88-38.572 22.747-57.363 33.627-3.956-4.945-5.934-8.901-8.901-13.847-2.967 1.978-6.924 4.946-9.89 4.946-13.847 8.9-27.693 17.802-41.54 24.725-5.933 3.956-5.933 3.956-13.845-.99z"/></svg>