<svg xmlns="http://www.w3.org/2000/svg" viewBox="0 0 1000 1000"><path d="m668.629 761.596-33.627-46.484-49.45-73.187c-31.65-44.505-40.55-42.527-15.825-81.099 4.945-8.901 40.55-60.33 47.473-76.154 7.912-23.736 15.824-47.473 13.846-72.198 0-63.297-39.56-118.682-105.824-158.242-32.638-16.814-65.275-30.66-101.869-38.572-1.978 0-1.978-.989-4.945-.989 0-3.956-1.978-3.956-1.978-4.945v-4.945c1.978 0 1.978-1.978 1.978-1.978 2.967-2.967 2.967-2.967 4.945-2.967 22.747-5.934 67.253-1.978 91.978 2.967 131.54 22.747 254.177 157.253 207.693 290.77-7.912 23.736-22.747 50.44-38.571 70.22-1.978 2.967-4.945 5.934-4.945 8.901 0 3.956 3.956 7.912 4.945 10.88l34.615 51.428c22.748-26.703 36.594-55.385 50.44-88.022 38.572-120.66-9.89-238.353-115.715-318.463 39.561 22.748 76.154 57.363 101.869 94.946 28.681 42.527 46.484 86.044 52.418 133.517 6.923 46.483 3.956 97.912-12.858 142.418-12.857 45.494-41.538 88.022-75.165 121.648-14.835 13.847-32.637 29.67-51.428 40.55zM5 499.507c0 90 22.747 173.078 67.253 250.22 44.506 74.177 103.846 133.518 178.023 178.023 77.143 44.506 160.22 67.253 250.22 67.253 89.011 0 172.089-22.747 249.232-67.253 74.176-44.505 133.517-103.846 178.022-178.022 44.506-77.143 67.253-160.22 67.253-250.22 0-89.012-22.747-172.09-67.253-249.232C883.245 176.1 823.904 116.759 749.728 72.253 672.585 27.747 589.508 5 500.496 5c-90 0-173.077 22.747-250.22 67.253C176.099 116.759 116.759 176.1 72.253 250.276 27.747 327.419 5 410.496 5 499.507zm188.902 44.506c-6.923-47.473-3.956-98.902 12.857-142.418 12.857-45.495 41.539-89.012 75.165-122.638 14.835-13.846 32.637-28.681 51.429-40.55l33.626 47.473 49.45 72.198c31.65 45.495 40.55 43.517 15.825 81.1-4.945 8.9-40.55 61.318-47.473 76.153-7.912 23.737-15.824 48.462-13.846 72.198 0 64.286 43.517 119.671 105.825 159.232 32.637 16.813 65.275 29.67 101.868 37.582 2.967 0 2.967 1.978 4.945 1.978 0 2.967 1.978 2.967 1.978 3.956v5.934c-1.978 0-1.978.99-1.978.99-1.978 2.967-1.978 2.967-4.945 2.967-22.747 5.934-67.253 1.978-91.978-2.967-131.539-22.748-254.177-157.254-206.704-289.782 6.923-24.725 21.758-50.44 37.583-70.22 1.978-2.967 4.945-6.923 4.945-8.9 0-4.946-2.967-8.902-4.945-11.869l-34.616-50.44c-22.747 26.704-36.594 55.385-50.44 87.034-38.571 120.66 9.89 238.352 115.715 318.462-39.56-22.747-76.154-56.374-101.869-94.945-28.68-41.539-46.483-86.044-52.417-132.528z"/></svg>