<svg width="1000" height="1000" viewBox="0 0 1000 1000" fill="none" xmlns="http://www.w3.org/2000/svg">
<path d="M289 2L87 204H251C273 124 359 17 385 2H289Z" fill="black"/>
<path d="M483 204V2H437C351.4 63.6 302.667 162.333 289 204H483Z" fill="black"/>
<path d="M522 204H718C672.4 95.2 598.333 24 567 2H522V204Z" fill="black"/>
<path d="M756 204H915L711 2H621C685.8 61.2 731 144 756 204Z" fill="black"/>
<path d="M713 1000L915 798L751 798C729 878 643 985 617 1000L713 1000Z" fill="black"/>
<path d="M519 798L519 1000L565 1000C650.6 938.4 699.333 839.667 713 798L519 798Z" fill="black"/>
<path d="M480 798L284 798C329.6 906.8 403.667 978 435 1000L480 1000L480 798Z" fill="black"/>
<path d="M246 798L87 798L291 1000L381 1000C316.2 940.8 271 858 246 798Z" fill="black"/>
<path d="M476.094 584.501C476.094 609.201 472.627 631.517 465.694 651.451C458.761 670.951 449.227 687.634 437.094 701.501C424.961 714.934 410.444 725.334 393.544 732.701C376.644 739.634 358.227 743.101 338.294 743.101C317.927 743.101 299.294 739.634 282.394 732.701C265.494 725.334 250.977 714.934 238.844 701.501C226.711 688.067 217.177 671.601 210.244 652.101C203.744 632.601 200.494 610.717 200.494 586.451C200.494 561.317 203.744 537.917 210.244 516.251C217.177 494.151 226.061 472.701 236.894 451.901L327.894 273.801H413.044L319.444 449.301L320.094 449.951C324.861 445.617 330.927 442.367 338.294 440.201C346.094 438.034 353.461 436.951 360.394 436.951C375.561 436.951 390.077 439.984 403.944 446.051C418.244 451.684 430.594 460.567 440.994 472.701C451.827 484.401 460.278 499.567 466.344 518.201C472.844 536.834 476.094 558.934 476.094 584.501ZM401.994 583.851C401.994 556.984 396.794 534.884 386.394 517.551C375.994 500.217 360.394 491.551 339.594 491.551C329.627 491.551 320.744 493.934 312.944 498.701C305.144 503.467 298.427 510.184 292.794 518.851C287.161 527.084 282.827 536.834 279.794 548.101C276.761 559.367 275.244 571.717 275.244 585.151C275.244 613.317 280.877 636.067 292.144 653.401C303.411 670.301 319.011 678.751 338.944 678.751C358.878 678.751 374.261 670.084 385.094 652.751C396.361 634.984 401.994 612.017 401.994 583.851Z" fill="black"/>
<path d="M779.644 600.101C779.644 646.034 769.894 681.784 750.394 707.351C731.327 732.917 701.211 745.701 660.044 745.701C630.144 745.701 605.444 737.684 585.944 721.651C566.444 705.184 553.444 683.301 546.944 656.001L611.944 628.051C614.544 639.317 619.527 649.717 626.894 659.251C634.694 668.351 644.877 672.901 657.444 672.901C675.211 672.901 687.127 665.751 693.194 651.451C699.261 637.151 702.294 617.651 702.294 592.951V273.801H779.644V600.101Z" fill="black"/>
</svg>
