<?xml version="1.0" encoding="UTF-8"?><svg id="a" xmlns="http://www.w3.org/2000/svg" viewBox="0 0 1000 1000"><path d="m387.237,525.384l-40.854-19.941c-1.886-.914-3.143-2.914-3.143-5.028s1.257-4.114,3.143-5.028l40.854-20.056c1.714-.857,3.771-.743,5.428.229,1.657,1.029,2.686,2.8,2.686,4.742v40.111c0,1.886-1.029,3.714-2.686,4.685-1.657,1.029-3.714,1.143-5.428.286Zm25.027,34.969c-1.371-1.371-3.371-1.943-5.257-1.543-1.886.457-3.428,1.828-4.057,3.657l-14.799,43.083c-.629,2-.114,4.171,1.371,5.657,1.486,1.486,3.714,2.057,5.714,1.428l42.797-14.685c1.886-.571,3.371-2.057,3.885-3.943.514-1.943,0-3.943-1.371-5.371l-28.284-28.284Zm-9.428-121.82c.629,1.828,2.171,3.143,4.057,3.6,1.886.4,3.885-.171,5.257-1.543l28.284-28.284c1.371-1.371,1.943-3.314,1.486-5.2-.4-1.886-1.771-3.428-3.6-4.114l-43.083-14.799c-2.057-.857-4.514-.457-6.114,1.143-1.657,1.543-2.171,3.943-1.371,6.057l15.085,43.14Zm184.901,1.943c1.371,1.371,3.371,1.943,5.257,1.543,1.886-.457,3.428-1.828,4.057-3.657l14.799-43.083c.629-2,.114-4.171-1.371-5.714-1.486-1.486-3.714-2-5.714-1.371l-42.683,15.313-.114-.514c-1.828.571-3.257,2.057-3.771,3.943-.514,1.828-.057,3.828,1.257,5.257l28.284,28.284Zm-62.967,167.359c-1.029-1.657-2.8-2.685-4.743-2.685h-40.054c-1.943,0-3.714,1.028-4.743,2.685s-1.086,3.714-.229,5.428l19.999,40.854c.971,1.943,2.914,3.143,5.085,3.143,2.114,0,4.057-1.2,5.028-3.143l20.056-40.854h-.171c.857-1.714.8-3.771-.229-5.428Zm-44.797-212.042h40.054c1.943,0,3.714-1.029,4.743-2.686,1.029-1.657,1.086-3.714.229-5.428l-19.999-40.854c-.971-1.886-2.914-3.028-4.971-3.028-2.114,0-4,1.143-5.028,3.028l-19.999,40.854c-.857,1.714-.8,3.771.229,5.428,1.029,1.657,2.8,2.686,4.743,2.686Zm20.056,25.827c-43.425,0-78.623,35.197-78.623,78.623s35.198,78.566,78.623,78.566,78.566-35.197,78.566-78.566-35.198-78.623-78.566-78.623Zm499.971,78.38c0,276.142-223.858,500-500,500S0,776.142,0,500,223.858,0,500,0s500,223.858,500,500Zm-320.841-256.024c19.484,38.911,33.769,80.223,42.454,122.905.857,2.971,2.628,5.6,5.085,7.542,32.741,28.969,61.481,62.053,85.537,98.564,6.228-13.313,11.313-27.141,15.199-41.311v-1.943c1.657-6.4,2.971-12.685,4.057-18.856v-2.228c.971-6.228,1.6-12.456,1.943-18.742.343-5.942.343-11.885,0-17.827v-1.714c-.457-5.542-1.314-11.142-2.457-16.627v-2.857c-1.257-5.314-2.857-10.513-4.743-15.599l-1.029-2.343c-4.171-10.685-9.885-20.627-17.027-29.484l-1.6-2.114c-3.428-4.171-7.142-8.114-11.142-11.771l-2.343-2.228c-4.171-3.714-8.514-7.199-13.085-10.342l-2.114-1.486c-4.571-3.086-9.256-5.885-14.113-8.514l-1.828-1.428c-5.143-2.628-10.514-4.971-16.113-7.2l-3.543-1.428c-5.428-2-11.028-3.828-16.913-5.485l-4.171-1.086c-6.057-1.543-12.056-2.857-18.342-4.057h-3.028c-5.828-.971-11.885-1.714-18.056-2.343h-2.628Zm-316.549-20.684c-23.655,37.083-41.311,77.652-52.396,120.22,22.97-17.37,46.968-33.255,71.938-47.539,18.856-10.856,37.94-20.684,57.367-29.312,2.343-1.543,3.6-4.285,3.314-7.085-.343-2.743-2.228-5.143-4.914-6.057-10.914-2.4-21.713-4.457-32.341-6.114-4.4-.857-8.057-3.885-9.714-7.999-1.657-4.114-1.086-8.799,1.486-12.456,2.857-3.943,7.599-5.942,12.399-5.257,28.112,4.285,55.767,10.799,82.794,19.541,4.742,1.486,9.885,1.486,14.685,0,40.626-13.313,82.851-21.313,125.591-23.713l-.8-1.086c-4-5.714-8.171-11.199-12.456-16.342l-1.143-1.6c-4.343-5.085-8.685-9.942-13.142-14.513l-2.457-2.514c-4.457-4.343-8.857-8.457-13.085-12.285l-2.514-2c-4.857-4.114-9.942-7.942-15.199-11.485h-.914c-4.8-3.371-9.771-6.4-14.913-9.199l-2.114-1.029c-5.028-2.343-10.171-4.343-15.427-6.057l-3.028-.914c-5.2-1.543-10.513-2.743-15.827-3.657h-2.628c-10.285-1.428-20.684-1.428-30.912,0h-3.657c-3.943,0-7.771,1.314-11.656,2.228h-2.114c-4.457,1.2-8.799,2.686-13.085,4.343l-3.143,1.314c-3.6,1.486-7.142,3.086-10.742,4.857l-2.743,1.257c-4.285,2.286-8.685,4.8-13.085,7.485l-2,1.314c-3.543,2.457-7.142,5.085-10.742,7.885l-2.457,1.943c-8.399,7.199-16.285,15.027-23.484,23.427l-1.828,2.114c-7.942,9.142-15.313,18.856-21.998,28.969l-.914,1.314Zm-196.443,165.074v1.257c.114,6.342.571,12.628,1.314,18.913v3.143c.971,5.942,2.228,11.885,3.828,17.942l.914,3.143c1.657,6.285,3.657,13.085,6,18.856v1.314c2.343,6.171,4.971,12.285,7.714,18.57l.8,1.714c25.37-37.997,55.882-72.338,90.622-102.05,8.628-44.283,23.198-87.194,43.368-127.591-41.768,1.657-81.823,16.97-114.106,43.483l-1.543,1.428c-4.114,3.885-7.942,7.999-11.542,12.342l-1.429,1.828c-7.142,8.914-12.913,18.913-17.027,29.598l-1.029,2.514c-1.943,5.085-3.485,10.285-4.743,15.599l-.629,2.971c-1.143,5.257-2,10.571-2.514,15.885v2.057c-.286,5.714-.286,11.371,0,17.084Zm203.928,368.373c23.027-1.6,45.882-4.971,68.338-10.114,2.857-.743,4.914-3.143,5.2-6.057.343-2.914-1.143-5.714-3.714-7.028-19.427-8.799-38.683-18.456-57.539-29.484-77.709-42.911-144.332-103.364-194.615-176.616l-.743,1.714c-2.914,6.285-5.542,12.456-7.771,18.627v1.314c-2.343,6.285-4.285,13.085-6,18.856l-.914,3.143c-1.6,6-2.857,11.999-3.828,17.942v3.143c-.914,5.942-1.486,11.942-1.828,17.942v1.314c-.286,5.657-.286,11.371,0,17.027-.629.914-.629,1.6-.514,2.743.514,5.542,1.314,11.085,2.514,16.513l.629,3.028c1.257,5.257,2.8,10.514,4.743,15.599l1.029,2.457c4.114,10.628,9.885,20.57,17.027,29.484l1.714,2.114c3.371,4.171,7.085,8.114,10.971,11.771l2.4,2.228c4.114,3.657,8.514,7.085,13.085,10.228l2.057,1.428c4.514,3.028,9.142,5.828,13.885,8.399l1.714.914c5.142,2.628,10.513,4.971,15.885,7.199l3.657,1.428c5.371,2,10.971,3.828,16.742,5.371l4.343,1.086c5.885,1.543,11.885,2.857,18.17,3.885h3.143c5.771.971,11.656,1.714,17.713,2.228h2.857c-4.685-9.142-9.085-18.742-13.085-28.684-2.4-5.143-1.257-11.256,2.914-15.142,4.114-3.885,10.342-4.628,15.313-1.886,2.686,1.371,4.8,3.657,6,6.457,3.485,8.285,7.199,16.285,11.142,23.941,5.2,10.171,15.942,16.285,27.369,15.485Zm262.438,26.455c-42.226-2.4-83.937-10.285-124.162-23.313-5.542-1.771-11.485-1.771-17.027,0-40.226,13.142-81.994,21.084-124.277,23.541,19.484,29.884,46.397,54.168,78.052,70.509,5.257,2.457,10.685,4.628,16.227,6.4l2.4.8c5.257,1.6,10.628,2.857,16.113,3.771h2.457c11.313,1.771,22.856,1.771,34.169,0h2.628c5.371-.857,10.685-2.057,15.885-3.657l2.971-.914c5.257-1.657,10.456-3.714,15.485-6l2.228-1.086c5.085-2.457,9.999-5.2,14.799-8.228l1.143-.686c5.028-3.2,9.885-6.742,14.57-10.456l2.743-2.228c4.514-3.771,8.914-7.828,13.085-12.171l2.857-2.914c4.343-4.457,8.685-9.142,13.142-14.113l1.828-2.343c3.943-4.857,7.714-9.828,11.371-15.085l1.314-1.828Zm201.3-171.245v-1.314c-.171-6.228-.629-12.513-1.428-18.742v-3.143c-.971-5.942-2.228-11.885-3.828-17.942l-1.143-2.971c-1.714-6.171-3.714-12.456-6.057-18.742v-1.6c-2.228-6.171-4.857-12.285-7.714-18.456l-.8-1.714c-8.742,13.599-18.227,26.741-28.398,39.311-2.743,3.2-7.142,4.457-11.142,3.143-4-1.371-6.799-4.971-7.085-9.199v-8.742c-.171-2.514.629-5.028,2.228-6.971,20.456-26.741,19.884-64.053-1.428-90.108-45.197-55.082-100.221-101.193-162.274-136.104-16.513-9.428-32.969-17.942-49.482-26.227,10.971-3.943,23.141-7.828,36.512-11.371,8.742,4.514,17.484,9.314,26.227,14.285,24.855,14.342,48.797,30.284,71.595,47.654-8.057-30.398-19.256-59.939-33.483-87.994-4.228-8.399-12.913-13.542-22.284-13.142-44.968,2.857-89.308,11.942-131.762,27.141l-.514,2.114h-1.828c-36.34,12.742-71.423,28.912-104.792,48.168-75.537,41.826-139.99,101.136-187.929,172.959-3.028,4.857-3.028,11.085,0,15.942,17.884,28.512,38.969,54.853,62.738,78.623-3.714-28.741-5.542-57.653-5.485-86.565v-24.284c.114-3.028,1.314-5.942,3.371-8.228,3.771-3.885,9.485-5.085,14.456-3.028,4.971,2.057,8.171,6.971,8.114,12.342v23.427c-.057,35.483,2.971,70.909,9.028,105.878,1.029,5.885,4.171,11.199,8.742,15.027,27.312,22.57,56.51,42.797,87.251,60.396,71.595,42.854,151.989,68.738,235.069,75.709,11.313.457,21.827-5.828,26.855-15.942,10.514-21.484,19.256-43.711,26.17-66.567.857-2.686-.171-5.6-2.457-7.2-2.343-1.543-5.371-1.486-7.599.229-17.884,13.085-36.34,25.255-55.425,36.455-5.885,3.371-11.885,6.514-17.942,9.714-2.971,1.543-6.4,1.943-9.656,1.029-4.914-1.657-8.399-6.057-8.857-11.199-.514-5.142,2.114-10.114,6.628-12.628,5.771-3.086,11.485-6.285,17.142-9.599,31.026-17.884,60.396-38.454,87.879-61.424,4.057-3.371,6.8-7.999,7.885-13.085,5.942-35.369,8.799-71.195,8.628-107.021v-28.455c-.057-4.914,2.628-9.428,6.971-11.713,4.343-2.286,9.542-1.943,13.599.857,2.8,2.343,4.514,5.771,4.685,9.428,0,9.656.686,19.37.686,29.198,1.543,88.794-17.656,176.73-56.053,256.781h2.857c6.057-.629,11.942-1.371,17.656-2.228h3.028c6.285-1.086,12.342-2.514,18.341-4.057l4.171-1.086c5.771-1.543,11.371-3.371,16.799-5.485l3.657-1.428c5.485-2.228,10.856-4.571,15.999-7.2l1.657-.914c4.857-2.628,9.542-5.428,14.056-8.514l2.057-1.314c4.571-3.2,8.971-6.628,13.142-10.342l2.343-2.228c3.885-3.714,7.599-7.657,10.971-11.828l1.714-2.057c7.142-8.914,12.913-18.856,17.027-29.484l1.029-2.514c1.943-5.085,3.485-10.285,4.743-15.599l.629-2.971c1.143-5.257,2-10.571,2.514-15.885v-2.228c.286-5.657.286-11.371,0-17.027Zm-180.101-115.935l-40.854-20.57c-1.714-.857-3.771-.743-5.428.286-1.657.971-2.628,2.743-2.686,4.685v40.74c.057,1.943,1.029,3.714,2.686,4.742s3.714,1.086,5.428.229l40.854-19.999c1.943-.971,3.143-2.914,3.143-5.085,0-2.114-1.2-4.057-3.143-5.028Zm-56.167,66.967c-.629-1.828-2.171-3.2-4.057-3.657-1.886-.4-3.885.171-5.257,1.543l-28.284,28.284c-1.371,1.371-1.943,3.371-1.486,5.257.4,1.886,1.771,3.428,3.6,4.057l43.083,14.799-.4-.628c2.171,1.029,4.743.571,6.457-1.143,1.657-1.714,2.114-4.343,1.029-6.457l-14.685-42.054Z"/></svg>