<svg xmlns="http://www.w3.org/2000/svg" width="1000" height="1000">
  <path d="M5 500.496C5 225.55 226.54 5 500.496 5c272.968 0 494.507 222.528 494.507 494.507 0 274.946-222.528 495.496-494.507 495.496C225.55 995.003 5 772.475 5 500.496zM176.1 437.2c-36.594 63.297-21.759 134.506 31.648 178.023 48.462 33.626 114.726 25.714 154.286-20.77 46.484-51.428 46.484-130.55-1.978-180-43.516-42.528-103.846-47.473-150.33-11.868 9.89 11.868 14.835 20.769 23.736 26.703 14.836 0 25.715-2.967 37.583-5.934 25.714-2.967 45.495 5.934 62.308 25.714 28.681 31.649 28.681 80.11 5.934 110.77-22.747 31.648-59.341 43.517-90.99 28.681-40.55-16.813-62.307-56.373-48.461-99.89 4.945-24.725 0-39.56-23.737-51.429zm208.68 197.802h42.528c26.703-51.429 49.45-102.857 74.176-154.286 6.923 4.945 6.923 7.912 9.89 10.879 1.978 8.901 8.901 17.802 14.836 28.681 13.846 32.638 13.846 32.638 56.373 22.748-25.714-51.429-49.45-102.858-77.143-165.166-42.527 88.023-80.11 171.1-120.66 257.144zm180.99-34.615c1.978 29.67 19.78 40.55 47.473 34.615h20.77c31.648 8.901 51.428-4.945 68.241-34.615 11.868-19.78 26.703-37.583 43.517-57.363 16.813 26.703 33.626 45.494 48.461 66.264 13.847 27.692 36.594 31.648 65.275 22.747-28.681-43.517-59.34-83.077-88.022-125.605 31.649-42.527 59.34-83.077 88.022-122.638-34.615-14.835-53.406 0-70.22 24.726-11.868 22.747-29.67 40.55-46.483 63.297-16.814-25.715-34.616-42.528-45.495-63.297-17.802-24.726-37.583-36.594-72.198-24.726 31.648 42.528 60.33 80.11 93.956 125.605 9.89-17.802 16.814-26.703 23.737-37.582 10.879 13.846 19.78 25.714 28.681 34.615-8.901 10.88-17.802 19.78-25.714 31.649-11.868-8.901-19.78-17.803-28.682-25.715-31.648 40.55-60.33 79.121-91.978 117.693-25.714-41.539-25.714-41.539-59.34-29.67z" style="fill:#000;fill-opacity:1;fill-rule:nonzero;stroke:none;"/>
</svg>
