<svg xmlns="http://www.w3.org/2000/svg" width="1000" height="1000">
  <path d="M5 549.029C5 213.372 211.171 7.202 541.8 7.202c385.942 0 593.37 495.313 345.713 812.112-6.285 7.543-20.114 16.343-26.4 16.343-46.514 3.771-93.028 7.542-138.285 11.314-69.143 0-139.543-3.772-204.914-35.2-57.828-23.886-108.114-64.114-126.97-128.228-22.63-79.2 11.313-164.686 85.485-198.628 69.142-35.2 153.37-11.315 203.656 56.57 0 3.772 2.515 3.772 2.515 7.544 25.142-11.315 44-22.629 66.628-33.943-3.772-3.771-3.772-7.543-7.543-12.571C682.6 408.229 564.427 368 460.084 408.229 357 449.715 286.6 565.372 309.229 673.486c21.371 111.885 93.028 177.256 194.857 214.97 82.97 33.943 172.228 33.943 260.228 26.4 7.542-3.771 16.342-3.771 23.885-3.771-3.771 3.771-7.543 8.8-11.314 8.8-54.057 2.514-104.343 11.314-154.628 7.543-99.314-5.029-188.571-38.972-262.742-108.114C286.6 747.657 260.2 626.97 301.685 526.4c42.743-103.085 140.8-164.685 251.428-162.17 26.4 0 59.086 10.056 84.228 16.342 11.315-22.628 18.858-42.743 31.429-65.371-7.543-5.029-15.086-6.286-20.114-11.314-206.171-66.629-383.428 70.4-434.97 227.542-49.029 160.914 46.514 375.885 246.399 431.199 54.057 15.085 111.885 22.628 169.714 22.628 3.771 0 7.542 2.514 11.314 7.543h-79.2c-5.028 0-13.828 0-16.343-5.029-41.485-6.285-88-15.085-130.742-30.17C267.742 903.541 172.2 757.713 175.97 608.113c2.515-165.942 133.257-313.027 296.685-339.427 18.857-5.029 41.486-5.029 60.343-8.8V188.23h-18.857c-176 12.571-300.457 100.57-375.885 257.713-99.314 192.343-35.2 397.256 144.571 507.885 3.772 0 3.772 3.771 8.8 8.8-8.8 0-12.571-5.029-16.343-8.8C105.571 860.799 5 716.228 5 549.028z" style="fill:#000;fill-opacity:1;fill-rule:nonzero;stroke:none;"/>
</svg>
