<svg xmlns="http://www.w3.org/2000/svg" viewBox="0 0 1000 1000"><path d="M500.496 995.003c275.935 0 494.507-224.506 494.507-495.496C995.003 226.54 773.464 5 500.496 5 223.572 5 5 229.506 5 499.507c0 276.924 224.506 495.496 495.496 495.496zM111.814 506.43c28.681-27.692 56.373-56.374 85.055-85.055 26.703 27.692 55.385 56.374 82.088 83.077-27.692 27.693-55.385 55.385-85.055 84.066zm151.319-152.308c77.143-76.154 155.275-154.286 233.407-231.43C572.694 199.837 650.826 276.98 729.947 356.1c-28.68 27.692-56.373 54.396-86.044 84.066-47.472-48.461-96.923-97.912-145.385-147.363-49.45 50.44-98.901 99.89-147.363 148.352-31.648-30.66-59.34-59.34-88.022-87.033zm.989 300.66c27.692-26.703 56.374-54.395 86.044-84.066C396.65 618.19 446.1 667.64 494.562 717.09c51.429-49.45 99.89-99.89 149.341-148.352 29.67 29.67 57.363 58.352 85.055 85.055-77.143 78.132-155.275 155.276-233.407 233.408-76.154-76.154-153.297-154.286-231.43-232.419zm148.352-149.34c27.692-26.704 55.385-55.386 83.077-83.078 27.692 27.692 55.385 56.374 83.077 84.066-26.703 26.704-54.395 53.407-83.077 82.088-27.692-27.692-54.396-55.384-83.077-83.077zm298.682 0c27.693-28.682 56.374-56.375 85.055-85.056 27.693 28.681 55.385 56.374 83.078 84.066l-84.067 84.066c-27.692-26.703-55.384-55.384-84.066-83.077z"/></svg>