<svg xmlns="http://www.w3.org/2000/svg" viewBox="0 0 1000 1000"><path d="M656.569 855.196c-64-1.067-129.065-1.067-195.198-1.067H156.308c-48 4.267-92.8-4.266-124.799-45.866C.576 764.53-3.69 718.664 20.843 673.865 106.175 517.066 190.44 362.4 276.84 207.736c23.466-42.666 59.733-62.932 105.599-62.932H789.9c44.8 0 59.732 27.733 38.4 64-23.467 44.799-49.067 87.465-73.6 131.198 61.866 0 124.799 1.066 185.598 1.066 6.4 0 12.8 0 19.2 1.067 30.933 5.333 44.8 34.133 28.8 58.666-74.666 132.265-151.465 265.597-226.131 395.729-23.467 39.466-59.733 58.666-105.599 58.666z"/></svg>