<svg xmlns="http://www.w3.org/2000/svg" viewBox="0 0 1000 1000"><path d="M500,0C223.858,0,0,223.858,0,500s223.858,500,500,500,500-223.858,500-500S776.142,0,500,0Zm-29.029,110.472c6.88-9.108,17.655-14.48,29.07-14.525,20.191,.016,36.681,16.396,36.666,36.586-.009,11.482-5.41,22.292-14.586,29.192l12.371,89.957c43.361,14.667,85.206,33.485,124.953,56.189l-14.738,23.669c-38.826-21.845-79.671-39.892-121.965-53.886l-22.71-7.498-22.738,7.527c-42.294,13.994-83.139,32.041-121.965,53.886l-14.761-23.678c39.749-22.708,81.593-41.531,124.953-56.211l12.587-89.993c-16.113-12.171-19.31-35.099-7.139-51.214Zm75.057,766.385l-46.027,27.202-46.025-27.211c-121.142-71.476-195.463-201.68-195.409-342.336,0-.328,.106-34.875,.921-46.978l3.017-44.637,46.456-30.705c46.128-30.49,95.771-55.247,147.823-73.784l-16.579,344.872,59.771,118.671v-1.169l.059,1.174,59.771-118.676-16.578-344.859c52.049,18.539,101.689,43.294,147.815,73.78l46.447,30.705,3.021,44.637c.843,12.308,.921,46.651,.921,46.978,.053,140.656-74.266,270.856-195.405,342.336Z"/></svg>