<svg xmlns="http://www.w3.org/2000/svg" viewBox="0 0 1000 1000"><path d="M500.496 5c272.968 0 494.507 221.54 494.507 495.002 0 270.495-218.572 495.001-495.001 495.001C229.506 995.003 5 776.431 5 500.002 5 229.506 223.572 5 500.496 5zM302.693 522.254c0 31.649 5.934 33.627 13.847 45.495 24.725 26.703 51.428 51.429 76.154 77.143 18.79 19.78 43.516 23.737 62.308 3.956 18.79-18.791 20.769-43.516 1.978-65.275-14.836-15.824-32.638-31.648-48.462-48.461-4.945-7.912-4.945-10.88 0-18.792 14.835-11.868 27.692-26.703 38.571-40.55 18.792-18.79 18.792-45.494 0-62.307-19.78-18.791-45.494-18.791-65.275 2.967-18.79 17.802-34.615 37.582-53.406 56.374-16.814 16.813-25.715 30.66-25.715 49.45zm70.22 256.155c-25.714 27.693-15.824 67.253 22.748 78.132 18.79 2.967 31.648-5.934 42.527-18.791 79.121-78.132 157.254-159.231 237.364-238.352 31.648-29.67 45.494-80.11 22.747-107.803-39.56-42.528-78.132-83.077-115.715-125.605-8.9-8.9-8.9-14.835 0-23.736 34.616-33.627 67.253-70.22 98.902-107.803 47.472-39.56-24.726-106.813-64.286-58.352-40.55 43.517-81.1 89.012-122.638 132.528-20.77 23.737-20.77 67.253 0 90.99 36.594 43.516 74.176 84.066 112.748 124.615 3.956 7.913 3.956 10.88 0 18.792-28.682 24.725-52.418 51.429-76.154 76.154-51.43 53.407-106.814 104.835-158.243 159.231z"/></svg>