<svg xmlns="http://www.w3.org/2000/svg" width="1000" height="1000">
  <path d="M500.496 995.003c275.935 0 494.507-224.506 494.507-495.496C995.003 226.54 773.464 5 500.496 5 223.572 5 5 229.506 5 499.507c0 276.924 224.506 495.496 495.496 495.496zM190.935 671.596V536.1c0-3.956 1.978-6.923 4.945-8.901 47.472-26.704 94.945-54.396 142.418-82.089.989 0 1.978-.989 3.956-1.978v7.912c0 44.506.989 88.023 0 131.54 0 14.835 5.934 25.714 18.791 32.637 45.495 26.703 91.978 53.407 138.462 80.11 11.868 6.923 22.747 5.934 34.616-.99 28.681-15.823 57.362-32.637 86.044-49.45 15.824-7.912 30.66-6.923 42.528 5.934a1734.244 1734.244 0 0 1 60.33 60.33c16.813 16.813 13.846 41.539-5.935 53.407-42.527 23.736-84.066 48.462-126.594 72.198-17.802 10.88-36.593 20.77-54.395 31.648-12.858 7.913-25.715 7.913-39.56 0-90.99-53.406-182.969-105.824-273.958-158.242-4.945-2.967-8.901-5.934-13.846-7.912-11.868-6.923-17.802-16.813-17.802-30.66zm0-176.045v-6.923c0-48.462.989-97.912 0-147.363 0-13.846 5.934-24.726 18.791-31.649 62.308-35.604 123.627-71.209 185.935-106.813 33.626-19.78 66.264-38.572 99.89-57.363 13.846-8.901 27.692-8.901 41.539-.989 59.34 34.615 118.681 69.231 178.022 102.857 20.77 11.869 24.726 36.594 6.923 54.396l-59.34 59.341c-12.858 12.857-26.704 14.835-41.54 5.934-28.68-15.824-57.362-32.637-86.043-49.45-12.858-6.924-25.715-6.924-38.572.989L196.87 493.573c-.99 0-2.967.99-5.934 1.978z" style="fill:#000;fill-opacity:1;fill-rule:nonzero;stroke:none;"/>
</svg>
