<svg xmlns="http://www.w3.org/2000/svg" width="1000" height="1000">
  <path d="M500.496 5C223.572 5 5 229.506 5 500.002c0 276.43 224.506 495.001 495.002 495.001 276.43 0 495.001-224.506 495.001-495.001C995.003 226.539 773.464 5 500.496 5zM90.056 498.518c0-227.473 191.868-420.331 413.407-409.452 210.66-4.945 412.42 176.045 412.42 409.452 0 235.386-188.903 410.441-417.365 410.441-233.407 0-408.463-192.858-408.463-410.44zm61.318 7.912c5.934 176.045 152.308 341.21 347.144 341.21 187.913 3.956 340.221-154.286 347.144-336.265 13.846-205.715-159.231-360-342.199-360-186.923-4.946-358.023 160.22-352.089 355.055zm152.308 84.066V527.2h45.495v-61.32c2.967 0-26.703-.988-44.506-.988 0 0-.989-37.583-.989-62.308h45.495V260.166h102.857v142.418h113.737v62.308H452.034V527.2h113.737v63.296H453.023c-.989 0-.989 4.946-.989 15.825 0 59.34.99 55.384.99 52.417h240.33v80.11H349.177V590.497z" style="fill:#000;fill-opacity:1;fill-rule:nonzero;stroke:none;"/>
</svg>
