<svg xmlns="http://www.w3.org/2000/svg" viewBox="0 0 1000 1000"><path d="M750.47 72.32C673.25 27.473 589.793 5 500 5S327.047 27.473 250.52 72.32c-74.547 44.253-133.947 103.653-178.2 178.2C27.473 327.047 5 410.207 5 500c0 89.793 22.473 173.25 67.32 250.47 44.253 74.547 103.653 133.65 178.2 177.21C327.047 972.527 410.207 995 500 995c89.793 0 173.25-22.473 250.47-67.32 74.547-43.56 133.65-102.663 177.21-177.21C972.527 673.25 995 589.793 995 500s-22.473-172.953-67.32-249.48c-43.56-74.547-102.663-133.947-177.21-178.2zM204.98 348.53c4.95-11.88 11.88-22.77 17.82-31.68 8.91-15.84 17.82-31.68 25.74-50.49 7.92-9.9 16.83-17.82 33.66-17.82 62.37 1.98 124.74 1.98 187.11 1.98 7.92 0 13.86-3.96 17.82-13.86 2.97-10.89 6.93-21.78 12.87-34.65.99-1.98 4.95-4.95 7.92-6.93h65.34c-7.92 19.8-12.87 33.66-18.81 51.48 10.89 5.94 19.8 3.96 28.71 1.98 3.96-1.98 5.94-6.93 7.92-9.9 4.95-9.9 5.94-18.81 10.89-28.71 2.97-10.89 7.92-15.84 20.79-14.85 42.57 0 14.85-.99 55.44 1.98-6.93 17.82-12.87 33.66-19.8 51.48 34.65 3.96 85.14 17.82 114.84 39.6 40.59 28.71 54.45 65.34 51.48 113.85-6.93 52.47-28.71 97.02-53.46 141.57-28.71 48.51-66.33 87.12-112.86 118.8-37.62 27.72-78.21 49.5-121.77 63.36-19.8 4.95-38.61 10.89-56.43 16.83-8.91.99-12.87 4.95-15.84 10.89-5.94 14.85-10.89 28.71-18.81 41.58-1.98 3.96-6.93 7.92-9.9 7.92-21.78 1.98-41.58 1.98-61.38 1.98 3.96-16.83 8.91-30.69 14.85-46.53-12.87.99-25.74 0-32.67.99-10.89 4.95-12.87 19.8-15.84 32.67-3.96 6.93-5.94 12.87-13.86 12.87h-59.4c4.95-14.85 8.91-25.74 11.88-38.61-15.84-1.98-49.5-5.94-72.27-6.93 4.95-13.86 9.9-26.73 15.84-40.59 28.71-69.3 59.4-141.57 87.12-210.87 10.89-28.71 23.76-59.4 34.65-87.12 6.93-15.84 6.93-15.84 23.76-15.84 32.67 0 63.36-2.97 96.03-2.97 17.82 0 22.77 7.92 17.82 23.76-5.94 17.82-12.87 33.66-17.82 51.48-23.76 57.42-44.55 114.84-68.31 173.25 0 1.98 0 5.94-1.98 10.89 15.84-1.98 31.68-3.96 46.53-4.95 65.34-9.9 121.77-41.58 164.34-93.06 32.67-35.64 53.46-78.21 60.39-126.72 8.91-52.47-22.77-81.18-69.3-88.11-10.89-.99-21.78 0-33.66 0h-336.6z"
    style="fill:#000;fill-opacity:1;fill-rule:nonzero;stroke:n"/></svg>