<svg xmlns="http://www.w3.org/2000/svg" viewBox="0 0 1000 1000"><path d="m583.956 143.468-314.01 515.718c-9.813 15.264-19.626 32.71-30.529 47.973-13.084 17.445-22.896 35.98-33.8 53.426h582.227c-13.083-42.522-30.528-109.031-41.432-151.554 1.09-4.36 14.174 13.084 14.174 11.994l234.418 235.507H5l45.793-58.877 58.877-73.05c26.167-31.62 51.245-65.42 79.593-98.129l138.47-163.547c25.077-26.167 49.063-57.786 71.96-86.134 10.903-13.084 76.322-95.948 103.58-128.657 29.438-35.98 56.696-76.322 80.683-104.67z"/></svg>