<svg xmlns="http://www.w3.org/2000/svg" width="1000" height="1000">
  <path d="M500.496 995.003c275.935 0 494.507-224.506 494.507-495.496C995.003 226.54 773.464 5 500.496 5 223.572 5 5 229.506 5 499.507c0 276.924 224.506 495.496 495.496 495.496zM142.473 729.947c29.67-51.428 60.33-105.824 90-157.253 14.835-30.66 30.66-30.66 46.484 0 29.67 51.429 60.33 105.825 90 157.253 21.759 30.66 14.835 45.495-23.736 45.495H166.209c-41.538.99-39.56-14.835-23.736-45.495zM283.902 486.65c-7.912 7.912 192.858-332.309 197.803-343.188 21.758-36.594 29.67-36.594 52.418 0 30.66 54.396 59.34 106.814 89.01 158.242 15.825 23.737 15.825 38.572-5.933 44.506-97.913 38.571-196.814 84.066-286.814 121.649-6.923 0-30.66 18.79-46.484 18.79zm39.56 78.132c-14.835-30.66-14.835-45.495 15.825-52.418 95.934-38.571 194.836-82.088 292.748-120.66 32.638-13.846 46.484-6.923 59.34 14.836 60.33 112.747 121.65 217.583 179.013 323.407 24.725 30.66 15.824 45.495-20.77 45.495H481.705c-21.758 0-46.484-8.901-61.319-29.67-29.67-60.33-66.264-121.65-96.923-180.99z" style="fill:#000;fill-opacity:1;fill-rule:nonzero;stroke:none;"/>
</svg>
