<svg xmlns="http://www.w3.org/2000/svg" width="1000" height="1000">
  <path d="M460.176 461.596 15.34 593.539C-3.51 519.399 5.287 440.233 26.649 363.58c22.619-82.936 64.087-155.819 128.173-213.622 65.344-59.06 136.97-105.555 224.932-128.174C418.708 11.732 460.176 6.706 502.9 6.706c72.883 0 143.252 16.336 208.595 47.75 65.344 31.416 121.89 74.14 169.642 129.43 30.158 35.186 50.264 71.627 70.37 109.325 3.77 2.513-289.019 86.706-299.072 92.989 2.513-13.823 2.513-30.159 1.257-45.238-3.77-15.08-8.796-27.645-13.823-38.955-11.31-21.362-28.902-35.185-47.75-45.237-31.416-12.566-74.14-16.336-120.634-6.283l-32.672-103.042-64.087 15.08 30.159 104.297-50.264 12.566-27.645-104.297-62.83 17.592 26.388 103.041-125.66 30.159 15.08 70.37 36.44-15.08c21.363-3.77 33.929-1.256 40.212 0 3.77 6.283 10.053 10.053 10.053 15.08 3.77 2.513 6.283 7.539 8.796 16.335l15.08 67.857 109.323-32.672-26.388-94.245c12.566-5.027 28.902-11.31 37.698-15.08 26.389-6.282 42.724-6.282 60.317-6.282h7.54c13.822 0 25.131 5.026 36.44 12.566 11.31 6.283 16.337 15.079 20.106 26.388 5.027 25.132 2.514 41.468-15.079 56.547-16.336 15.08-37.698 27.646-60.317 33.929zM35.446 665.165l387.032-125.66c27.646-11.31 81.68-22.619 115.608-22.619 40.21 0 71.626 10.053 75.396 42.724 5.026 13.823 5.026 26.39-1.257 40.212-1.257 6.283-7.54 12.566-15.08 21.362-17.592 15.08-40.21 26.388-70.369 36.441l-71.626 20.106-27.645-113.094-108.068 36.441 22.619 76.653c1.256 8.796 1.256 16.336-1.257 20.106-3.77 6.283-10.053 10.052-25.132 13.822l-36.441 10.053 6.283 79.166 124.403-32.672 27.646 104.298 66.6-18.849-27.646-101.785 50.264-11.309 25.132 101.785 61.574-16.336-22.62-103.041 37.699-15.08h3.77c36.441-13.822 67.856-32.671 85.448-59.06 15.08-17.592 25.133-36.441 25.133-60.317 1.256-16.336 0-38.954-5.027-61.573-10.053-42.725-28.902-65.343-57.804-79.166l295.302-89.219 5.026 21.363c40.211 170.897-2.513 351.848-130.686 472.481-65.344 61.574-139.483 105.555-224.932 125.66-87.962 20.106-174.667 21.363-258.86-2.513-85.449-23.875-155.818-64.086-216.135-128.173-51.52-54.034-91.732-114.35-114.35-182.207z" style="fill:#000;fill-opacity:1;fill-rule:nonzero;stroke:none"/>
</svg>
