<svg xmlns="http://www.w3.org/2000/svg" viewBox="0 0 1000 1000"><path d="M531.564 26.256c202.372-70.65 410.732 40.714 457.434 246.68 7.184 34.726 5.987 79.032 3.592 117.351-19.16 147.29-137.71 268.234-282.603 287.394-22.752 4.79-22.752 4.79-27.542 31.134-28.74 140.104-112.562 231.112-250.272 271.826-183.213 58.676-380.795-69.454-417.917-257.457C7.07 677.681 2.28 658.521 8.269 605.832c22.752-148.486 138.906-264.64 286.195-288.59 21.555-1.198 21.555-5.988 25.147-26.345 22.752-125.734 92.205-215.545 211.953-264.64zM69.34 605.832c0 11.975 3.592 17.962 14.37 17.962h213.15c14.369 0 16.764-5.987 16.764-17.962V390.287c0-9.58-2.395-13.172-14.37-9.58C185.494 393.88 88.5 493.27 69.34 605.833zm3.592 99.39c23.95 128.13 140.104 226.322 269.431 226.322 135.314 0 251.47-93.402 275.419-222.73 7.184-23.949 3.592-23.949-20.358-23.949H88.5c-19.16 0-19.16 0-15.567 20.357zm301.763-99.39c0 11.975 8.382 17.962 17.962 17.962h214.347c10.778 0 17.962-5.987 17.962-17.962V390.287c0-13.172-7.184-14.37-17.962-14.37H392.657c-9.58 0-17.962 1.198-17.962 14.37zm8.382-316.132c-4.79 20.357-4.79 21.554 17.962 21.554h511.32c17.963 0 20.357-1.197 17.963-20.357C905.175 161.57 790.217 65.773 660.89 65.773 524.38 62.18 409.421 156.78 383.077 289.7zm304.158 316.132c0 11.975 3.592 14.37 15.567 11.975 111.365-15.567 214.347-116.155 227.52-227.52 2.394-13.172-3.593-14.37-13.173-14.37H702.802c-11.975 0-15.567 1.198-15.567 14.37z"/></svg>