<svg xmlns="http://www.w3.org/2000/svg" width="1000" height="1000">
  <path d="M749.728 72.253C824.2 116.462 883.54 175.803 927.75 250.276c44.803 77.143 67.253 160.418 67.253 249.726 0 89.308-22.45 172.583-67.253 249.726C883.541 824.2 824.2 883.54 749.728 927.75c-77.143 44.803-160.418 67.253-249.726 67.253-89.308 0-172.583-22.45-249.726-67.253-74.473-44.209-133.814-103.55-178.023-178.022C27.451 672.585 5 589.31 5 500.002c0-89.308 22.45-172.583 67.253-249.726 44.209-74.473 103.55-133.814 178.023-178.023C327.419 27.45 410.496 5 499.507 5c89.704 0 173.078 22.45 250.22 67.253zM176.099 451.045c14.539 46.187 49.451 69.231 104.836 69.231 34.319 0 67.253-5.241 98.901-15.824 27-9.198 52.715-21.758 77.144-37.582 19.78-13.154 38.274-28.385 55.384-45.495a353.9 353.9 0 0 0 32.638-37.583l10.879-15.824 11.868 2.967-5.934-112.747-66.264 90 8.901 3.956c-5.934 8.604-14.538 18.495-25.714 29.67-22.45 23.044-47.176 41.539-74.176 55.385-38.275 20.473-78.43 30.66-120.66 30.66-29.67 0-53.407-7.912-71.209-23.737-14.539-11.868-24.725-27.692-30.66-47.472-3.263 17.802-5.241 35.9-5.934 54.395zm1.979 43.517c1.978 19.78 5.637 39.264 10.879 58.352 17.11 22.45 38.275 36.593 63.297 42.528 43.516 10.582 92.472 7.912 146.868-7.913 54.396-15.824 101.67-41.538 141.924-77.143 24.428-21.066 45.791-43.22 64.286-66.264 13.154-16.516 24.428-32.934 33.626-49.45l9.89-18.792 11.868 1.978-6.923-112.747-65.275 90.99 7.913 2.966-5.935 12.857c-6.626 10.583-13.846 21.066-21.758 31.649a483.548 483.548 0 0 1-38.571 43.516c-17.803 17.11-36.89 32.638-57.363 46.484-40.847 26.407-83.077 43.517-126.594 51.429-32.934 6.626-62.308 7.615-88.022 2.967-28.978-5.242-55.682-23.044-80.11-53.407zm20.769 85.055c6.626 17.803 14.835 34.616 24.725 50.44 25.022 27 52.715 42.528 83.077 46.484 44.21 5.241 90-.693 137.473-17.803 34.32-11.868 73.484-31.945 117.693-60.33 21.758-13.153 43.22-30.659 64.286-52.417a653.321 653.321 0 0 0 43.517-50.44l16.813-21.758 8.901 2.967-5.934-114.726-66.264 91.978 9.89 4.946c-5.242 9.197-14.143 20.472-26.703 33.626-25.022 27.692-56.374 52.714-93.957 75.165-44.802 26.407-83.77 44.209-116.703 53.407-32.935 9.198-67.253 12.066-102.858 8.407-35.604-3.66-66.956-20.275-93.956-49.946zm54.396 92.968a316.998 316.998 0 0 0 41.538 41.538c28.385 16.517 54.693 24.726 79.121 24.726 44.803 0 87.034-7.22 126.594-21.759 34.319-12.56 71.506-32.934 111.759-61.319 21.758-15.132 43.516-33.626 65.275-55.384a633.537 633.537 0 0 0 44.505-49.451l15.825-20.77 12.857 5.935-4.945-114.726-67.253 90 11.868 3.956c-9.198 11.869-20.77 25.418-34.616 40.55-28.384 29.67-56.077 53.407-83.077 71.209-74.473 49.45-145.088 74.176-211.649 74.176-37.582 0-73.484-9.593-107.802-28.681zm74.176 66.264c19.088 12.56 38.868 22.747 59.34 30.659 21.067 5.934 40.55 8.901 58.352 8.901 65.968 0 141.726-30.956 227.474-92.967 22.45-15.824 43.516-34.912 63.297-57.363 16.516-17.802 31.945-37.286 46.483-58.352 10.583-15.132 19.78-30.363 27.693-45.495l9.89-17.802 13.846 2.967-5.934-112.747-65.275 90.989 14.835 5.934c-5.934 13.846-14.835 30.66-26.703 50.44-23.737 38.868-52.121 72.198-85.055 99.89-34.32 29.67-71.506 54.396-111.76 74.176-48.757 23.737-93.955 35.605-135.494 35.605-29.67 0-60.033-4.945-90.99-14.835zm109.78 46.483c26.407 5.242 53.11 7.616 80.11 6.923 28.979-2.67 56.374-8.9 82.089-18.79 23.736-9.891 47.769-23.045 72.198-39.561a463.336 463.336 0 0 0 49.45-39.561l18.792-18.791 4.945 3.956 2.967-46.484-32.638 28.681 4.945 3.957-5.934 6.923c-5.934 6.626-13.154 13.154-21.758 19.78-11.868 9.89-25.418 19.484-40.55 28.681-19.088 11.869-40.846 23.44-65.275 34.616-46.187 21.066-95.934 30.956-149.34 29.67z" style="fill:#000;fill-opacity:1;fill-rule:nonzero;stroke:none;"/>
</svg>
