<svg xmlns="http://www.w3.org/2000/svg" width="1000" height="1000">
  <path d="M500.496 5C223.572 5 5 229.506 5 500.002c0 276.43 224.506 495.001 495.002 495.001 276.43 0 495.001-224.506 495.001-495.001C995.003 226.539 773.464 5 500.496 5zM111.814 500.496c19.78-49.45 38.571-86.044 49.45-168.132 24.726-114.726 43.517-175.056 147.363-175.056 38.572 0 58.352 0 88.023-19.78 28.681-19.78 48.461-36.594 89.011-40.55 28.681 0 56.374 5.934 78.132 20.77 78.132 58.351 166.154 69.23 255.166 87.033 78.132 20.77 116.703 69.23 96.923 138.462-8.9 49.45 0 115.715 10.88 147.363 29.67 68.242 4.944 172.088-78.133 195.825-107.802 30.66-177.033 108.791-256.154 178.022-68.242 58.352-147.364 58.352-225.496 18.792-39.56-18.792-80.11-54.396-185.934-107.803C75.22 718.08 65.33 622.145 111.814 500.496zm152.308 244.287c48.461 29.67 120.66 30.66 173.077 30.66 66.264 4.944 68.242 70.22 140.44 21.757 77.143-32.637 138.462-95.934 191.87-161.209 52.417-56.374 123.626-131.539 115.714-195.825-5.934-49.45-72.198-85.055-149.341-147.363C601.376 185.99 480.716 180.055 346.21 270.056 186.979 375.88 99.945 622.145 264.122 744.783zm4.945-235.386c0-136.484 97.912-235.385 235.385-235.385 137.473 0 205.715 98.901 216.594 235.385 0 127.583-118.681 227.474-226.484 216.594-140.44-11.868-235.385-97.912-225.495-216.594z" style="fill:#000;fill-opacity:1;fill-rule:nonzero;stroke:none;"/>
</svg>
