<svg xmlns="http://www.w3.org/2000/svg" viewBox="0 0 1000 1000"><path d="M481.69 563.215c3.532 3.531 9.416 9.415 14.124 15.3 18.83-11.769 32.953-15.3 51.784-23.538 90.622-38.838 177.713-5.885 197.72 89.445 14.123 51.784 14.123 108.276 3.531 158.883-23.538 125.929-134.167 169.474-243.62 98.86 3.53-10.592 15.3-20.008 18.83-28.246 20.008-29.423 20.008-58.845 0-85.914-23.538-28.246-56.491-28.246-85.914-15.3-32.953 15.3-37.66 42.369-37.66 71.791 10.591 47.077 34.13 84.738 71.79 115.337 114.16 78.853 323.65 17.654 375.434-109.452 62.377-149.467-3.53-310.704-138.875-358.957-27.069-10.592-55.314-10.592-85.914-12.946 77.676-82.384 154.175-160.06 231.85-240.09-15.299-28.245-38.837-37.66-77.675-37.66h-376.61v-82.384c0-111.807-3.532-117.691-118.869-111.807-10.592 0-21.184 0-38.838 3.531 56.492 57.669 51.784 123.576 43.546 190.66H128.618c4.708 23.538 4.708 37.66 4.708 61.199h156.529v304.819c0 72.968 28.246 121.222 87.091 134.168 70.615 20.007 143.583 28.245 194.19-32.954 15.3-10.592 25.892-23.538 28.246-42.369 0-9.415-2.354-23.538-8.239-47.076-32.953 27.069-52.96 50.607-76.499 65.907-52.96 32.953-103.568 8.238-109.452-54.138-4.708-109.452 0-217.728 0-328.357h310.704C634.689 366.67 558.19 467.886 481.69 563.215z"/></svg>