<svg xmlns="http://www.w3.org/2000/svg" width="1000" height="1000">
  <path d="M5 500.002v.395-.395c.099-89.506 22.55-172.682 67.253-249.726 44.209-74.473 103.55-133.814 178.023-178.023C327.419 27.45 410.694 5 500.002 5c89.308 0 172.583 22.45 249.726 67.253C824.2 116.462 883.54 175.803 927.75 250.276c44.803 77.143 67.253 160.418 67.253 249.726 0 89.308-22.45 172.583-67.253 249.726C883.541 824.2 824.2 883.54 749.728 927.75c-77.143 44.803-160.418 67.253-249.726 67.253-89.308 0-172.583-22.45-249.726-67.253-74.473-44.209-133.814-103.55-178.023-178.022C27.55 672.684 5.099 589.508 5 500.002zm142.418 168.627c0 15.824 4.945 26.703 17.802 34.615 103.847 60.33 213.627 121.649 321.43 184.946 13.846 7.912 26.703 7.912 41.539 0 101.868-63.297 204.726-124.616 311.54-181.979 14.834-10.879 21.757-21.758 21.757-41.538 0-109.781-3.956-222.529 0-336.265 0-14.836-6.923-26.704-21.758-34.616-106.813-63.297-209.671-125.605-315.495-184.946-10.88-5.934-26.704-5.934-37.583 0-107.803 59.341-212.638 121.65-318.463 180.99-15.824 11.868-20.769 23.736-20.769 41.539v167.143zm31.649-3.956c30.659-17.803 60.33-32.638 87.033-48.462 49.45-26.704 49.45-13.846 26.703-73.187-7.912-14.835-14.835-21.759-30.66-17.802-22.747 2.967-37.582-8.902-46.483-26.704-5.934-18.791-17.802-23.736-36.593-23.736zm0-226.485c0 6.923 0 18.792 3.956 18.792 8.9 0 17.802 0 26.703-3.957 2.967-2.967 5.934-10.879 10.88-14.835 12.856-14.835 21.757-19.78 37.582-11.868 26.703 6.923 26.703 6.923 43.516-23.736-43.516-20.77-81.099-44.506-122.637-68.242 0 39.56-4.946 68.242 0 103.846zm12.857 246.265c20.769 10.879 41.538 21.758 59.34 33.626h6.924c7.912-2.967 26.703-29.67 23.736-40.55v-42.527c-27.692 11.868-57.363 29.67-90 49.45zm1.978-370.88c33.626 17.802 64.286 33.626 94.945 51.428-3.956-14.835-6.923-24.725-6.923-36.593 2.967-20.77-3.956-34.616-19.78-46.484 0-2.967-7.912-2.967-10.88-2.967-17.802 7.912-35.604 19.78-57.362 34.615zm30.66 161.209c11.867 31.648 14.834 35.604 49.45 31.648 14.835 0 21.758 3.956 30.66 18.792 2.966 11.868 5.933 17.802 10.878 26.703h3.957v-17.802c0-20.77 0-41.539 2.967-62.308 3.956-18.792 0-29.67-14.836-45.495-11.868 30.66-33.626 23.736-53.406 15.824-6.924 0-14.836 2.967-17.803 7.912-8.9 6.924-11.868 18.792-11.868 24.726zm53.406 258.133c68.242 41.538 136.484 81.099 208.682 122.637 6.923-45.494 2.967-54.396-23.736-77.143-3.956-6.923-10.88-14.835-10.88-18.791 10.88-33.627-4.945-53.407-33.626-64.286-3.956 0-3.956-3.956-8.901-6.923-9.89-8.901-25.715-10.88-36.594 0-15.824 17.802-35.604 26.703-62.308 22.747-14.835-4.945-21.758 6.923-32.637 21.759zm0-469.782c10.88 15.824 23.736 23.736 41.539 23.736 11.868-4.945 30.659-4.945 33.626 2.967 25.714 26.703 49.45 30.66 76.154 3.956 2.967-3.956 6.923-3.956 11.868-6.923 14.836-4.945 17.803-14.835 14.836-29.67-3.957-17.803-3.957-26.704 14.835-39.56 22.747-10.88 29.67-49.452 15.824-79.122-68.242 41.539-136.484 83.077-208.682 124.616zm23.736 71.209c0 8.9 5.934 15.824 13.846 23.736 3.957 6.923 6.924 15.824 15.825 23.736 2.967 2.967 5.934 9.89 14.835 14.836 3.956 0 10.88-7.912 14.835-14.836 2.967-19.78 15.824-31.648 33.627-34.615 10.879 0 23.736-3.956 19.78-18.791-46.484-4.945-46.484-4.945-61.319-20.77-6.923-5.934-37.583-13.846-45.495-5.934-5.934 5.934-5.934 21.759-5.934 32.638zm2.967 357.034c0 3.956 41.539 0 45.495-6.923 13.846-10.88 28.681-30.66 52.418-15.824v-6.924c-18.792-18.79-34.616-38.571-52.418-52.417-12.857-12.857-15.824-3.956-18.791 1.978-8.901 11.868-20.77 20.77-23.737 35.604-5.934 10.88-5.934 30.66-2.967 44.506zm86.045-231.43c-22.748 61.32 8.9 142.419 77.143 160.22 9.89 2.968 18.791-3.955 18.791-10.878 0-30.66 0-57.363 2.967-88.023 0-4.945-2.967-7.912-6.923-10.879-30.66-15.824-61.319-30.66-91.978-50.44zm18.79-29.67c26.704 19.78 58.353 34.616 84.067 53.407 3.956 0 10.88 2.967 15.824 0 30.66-18.791 59.341-33.627 90-53.407-44.505-65.275-152.308-60.33-189.89 0zm26.704 249.232c0 8.9 0 8.9 4.945 8.9 0 0 0 2.968 3.956 2.968 25.715 8.901 32.638 26.703 25.715 54.396v1.978c-2.967 15.824 2.967 20.769 18.791 20.769v-68.242c0-4.945-2.967-8.901-6.923-8.901-11.868-2.967-26.703-6.923-46.484-11.868zm4.945-371.87c5.934 20.77 21.759 12.858 36.594 12.858 8.901-3.957 15.824-6.924 15.824-12.858v-74.176c-3.956 0-6.923-2.967-6.923-2.967-8.901 6.923-15.824 14.835-12.857 17.802 8.9 30.66-2.967 50.44-32.638 57.363zm72.198-130.55c0 20.77 2.967 33.627 26.704 44.506 1.978 0 14.835 11.868 10.879 15.824-8.901 34.616 6.923 49.451 33.626 61.32 2.967 0 2.967 2.966 7.912 6.922 11.869 7.912 33.627 7.912 44.506-3.956 12.857-14.835 30.66-19.78 50.44-14.835 17.802 0 30.66-7.912 41.538-23.736-73.187-41.539-141.429-83.077-212.638-124.616 0 14.835 0 26.703-2.967 38.571zm2.967 674.508c2.967 0 2.967 3.956 2.967 3.956 73.187-38.571 141.43-81.099 213.628-122.637-14.836-14.836-27.693-26.704-45.495-21.759-10.88 0-26.704 0-34.616-7.912-26.703-29.67-48.461-25.714-75.165 0-4.945 2.967-4.945 2.967-8.9 2.967-13.847 8.901-17.803 15.824-13.847 30.66 6.923 22.747 0 37.582-18.791 50.44-7.912 2.966-16.814 10.878-19.78 17.802zm0-80.11c19.78-2.967 23.737-11.868 19.78-25.714-4.944-27.693 0-45.495 29.671-54.396 0 0 2.967-2.967 6.923-2.967 0-3.956-3.956-3.956-3.956-8.901-13.846 4.945-32.637 8.9-49.45 11.868 0 0-2.968 3.956-2.968 8.901zm0-246.264c0 26.703 2.967 56.373 2.967 84.066 0 10.879 8.902 13.846 20.77 10.879 47.472-10.88 86.044-59.341 86.044-109.78 0-11.869 0-23.737-2.967-30.66 0-14.835-8.901-19.78-18.791-10.88-26.704 10.88-49.451 25.715-76.154 37.583-3.956 3.956-11.869 14.835-11.869 18.792zm0-217.584c0 5.934 2.967 8.901 11.869 8.901 2.967 3.957 11.868 3.957 13.846 3.957 15.824 2.967 23.736 0 26.703-14.836-32.637-3.956-44.505-23.736-32.637-57.363 0-2.967-7.912-14.835-11.868-17.802h-7.913zm76.154 23.737c3.957 2.967 6.924 11.868 15.825 15.824 0 0 1.978 2.967 5.934 2.967 19.78 0 31.648 7.912 31.648 26.703 0 4.945 3.956 7.912 3.956 7.912 2.967 3.957 10.88 11.869 14.836 6.924 2.967 0 11.868-2.967 13.846-6.924 8.9-10.879 12.857-22.747 19.78-34.615 3.956-6.923 10.88-15.824 10.88-15.824 0-28.682-3.957-32.638-26.704-32.638-14.835-2.967-26.704 5.934-36.594 14.835-11.868 11.869-19.78 14.836-35.604 11.869-1.978-4.945-10.88 0-17.803 2.967zm11.869 337.254c21.758-10.88 36.593-3.956 48.461 10.879 0 4.945 2.967 8.9 7.912 8.9 15.825 2.968 30.66 2.968 41.54 0 2.966 0 6.922-19.78 6.922-30.659 0-3.956-6.923-10.879-10.879-14.835-6.923-10.879-10.88-22.747-19.78-31.648-1.978-1.978-13.846-5.934-17.803-1.978-19.78 17.802-37.582 37.582-56.373 59.34zm83.077-215.606c0 33.627 3.956 63.297 3.956 98.902 6.923-8.901 10.88-17.802 13.846-26.703 3.956-14.836 12.857-18.792 27.693-14.836 26.703 2.967 38.571-8.9 48.461-30.66 4.945-10.878 4.945-19.78-3.956-22.746-5.934-6.924-10.879-18.792-26.703-14.836-17.802 7.912-37.583 14.836-52.418-18.791-3.956 14.835-10.88 21.758-10.88 29.67zm14.835 121.65c-3.956 10.878-3.956 21.758 10.88 30.659 15.823 3.956 31.648 14.835 46.483 21.758 21.758 10.88 44.506 22.747 68.242 34.615v-18.79c0-53.408 2.967-105.825 0-156.265 0-2.967-8.901-11.868-11.868-11.868-18.792 0-22.748 17.802-29.67 26.703-4.946 11.868-11.869 23.736-26.704 23.736-26.703-8.9-41.539 2.968-50.44 35.605 0 1.978-6.923 5.934-6.923 13.846zm10.88-159.232c4.944 7.912 7.911 22.747 26.703 14.835 22.747-11.868 37.582-6.923 53.406 14.835 0 4.945 3.956 7.912 7.913 7.912 14.835 11.869 26.703 3.957 26.703-10.879 2.967-23.736 0-45.494 0-68.242v-39.56c-34.616 23.736-68.242 42.527-102.858 62.308-6.923 3.956-19.78 5.934-11.868 18.79zm7.911 219.561c3.956 14.835 3.956 29.67 3.956 44.506 0 15.824 22.748 42.527 30.66 38.571 18.791-11.868 37.582-22.747 60.33-33.626-34.616-19.78-65.275-37.583-94.946-49.45zm0-272.968c26.704-14.835 56.374-30.66 91.979-54.396-23.737-8.9-38.572-17.802-53.407-28.681-3.956 0-11.868 0-14.835 2.967-11.868 11.868-19.78 23.736-19.78 41.539 0 10.879-3.957 26.703-3.957 38.571z" style="fill:#000;fill-opacity:1;fill-rule:nonzero;stroke:none;"/>
</svg>
