<svg xmlns="http://www.w3.org/2000/svg" width="1000" height="1000">
  <path d="M219.586 273.43C111.775 273.43 5 365.692 5 492.163c0 132.691 75.675 216.66 206.293 237.393 72.566 10.366 193.854-49.76 263.31-136.838-16.587-16.586-34.21-32.136-52.87-49.759-30.063 49.76-69.455 93.299-145.13 117.141-49.76 13.477-96.41 2.074-146.168-32.136-67.383-48.722-67.383-131.654-49.76-193.853 16.587-68.419 98.482-110.922 195.927-85.005 75.676 16.586 118.178 85.005 163.79 143.057 49.76 50.796 81.896 119.215 151.352 167.937 37.319 36.283 86.041 52.87 147.204 69.456h32.136c99.518-16.586 168.974-69.456 206.293-153.424h-53.906c-52.869 83.968-170.01 120.251-245.686 66.345-118.178-66.345-231.172-265.382-256.052-291.298-29.026-40.43-97.445-77.749-202.147-77.749zm302.702 124.398c13.476 25.916 20.733 36.283 37.32 61.162 32.136-45.612 85.005-86.041 133.727-109.884 111.958-53.906 230.136 8.293 230.136 143.057H711.995v50.796H995v-50.796c0-126.471-103.665-222.88-223.916-222.88-112.995 0-177.267 36.283-248.796 128.545z" style="fill:#000;fill-opacity:1;fill-rule:nonzero;stroke:none;"/>
</svg>
