<svg xmlns="http://www.w3.org/2000/svg" viewBox="0 0 1000 1000"><path d="M645.764,499.471c.037,20.68-4.328,41.13-12.803,59.994l-96.144-96.277-73.626,73.617,96.18,96.153c-73.271,32.946-159.378,.257-192.324-73.014-8.476-18.849-12.837-39.289-12.795-59.956-.143-80.499,64.999-145.871,145.498-146.014s145.871,64.999,146.014,145.498Zm354.236,.529c0,276.142-223.858,500-500,500S0,776.142,0,500,223.858,0,500,0s500,223.858,500,500Zm-290.519-135.877l97.976-97.985-73.581-73.599-97.914,97.985c-82.581-53.853-189.174-53.853-271.754,0l-98.064-97.985-73.599,73.599,97.985,97.976c-53.853,82.581-53.853,189.174,0,271.754l-97.985,97.994,73.599,73.599,97.985-97.985c82.581,53.853,189.173,53.853,271.754,0l97.985,97.985,73.59-73.599-97.976-97.905c26.384-40.437,40.411-87.687,40.365-135.97,.025-48.247-14.001-95.457-40.365-135.864Z"/></svg>