<svg xmlns="http://www.w3.org/2000/svg" viewBox="0 0 1000 1000"><path d="M500.496 5C223.572 5 5 229.506 5 500.002c0 276.43 224.506 495.001 495.002 495.001 276.43 0 495.001-224.506 495.001-495.001C995.003 226.539 773.464 5 500.496 5zM83.132 504.452c67.253-101.868 155.275-155.275 256.155-194.836-62.308 50.44-104.836 116.704-104.836 194.836 0 80.11 42.528 145.385 104.836 195.825-96.924-36.594-200.77-106.814-256.155-195.825zm239.342 4.945c0-5.934 5.934-10.879 12.857-10.879h321.43c5.934 0 12.857 4.945 12.857 10.88 0 7.911-7.913 13.845-12.858 13.845H335.33c-6.922 0-12.856-5.934-12.856-13.846zm51.428 60.33c0-6.923 6.923-13.846 12.858-13.846h217.583c6.923 0 13.846 6.923 13.846 13.846s-6.923 12.857-13.846 12.857H386.76c-5.935 0-12.858-5.934-12.858-12.857zm1.978-120.66c0-6.923 6.923-12.857 12.858-12.857h226.484c5.934 0 12.857 5.934 12.857 12.857 0 6.923-6.923 10.88-12.857 10.88H388.738c-5.935 0-12.858-3.957-12.858-10.88zm45.495 180.99c0-7.912 6.923-12.857 13.846-12.857h127.583c7.912 0 12.857 4.945 12.857 12.857 0 6.923-4.945 11.868-12.857 11.868H435.221c-6.923 0-13.846-4.945-13.846-11.868zm10.88-241.32c0-5.934 6.922-12.857 12.856-12.857h127.583c7.912 0 13.846 6.923 13.846 12.858 0 7.912-5.934 14.835-13.846 14.835H445.111c-5.934 0-12.857-6.923-12.857-14.835zm239.34 311.54c60.33-50.44 104.836-115.715 104.836-195.825 0-78.132-44.505-144.396-104.835-194.836 91.978 36.594 181.978 93.957 255.165 194.836-61.319 96.924-165.165 163.188-255.165 195.825z"/></svg>