<svg xmlns="http://www.w3.org/2000/svg" viewBox="0 0 1000 1000"><path d="M618.213,481.519c165.061,1.9,189.725,83.943,189.725,83.943,0,189.674-153.76,343.434-343.434,343.434S121.07,755.136,121.07,565.462c0,0-3.73-23.231,68.365-44.1s81.582,15.177,178.342,13.28S453.153,479.622,618.213,481.519ZM970.024,222.533c.379,22.707-8.937,42.1-27.693,57.657-14.956,13.16-33.5,17.663-51.872,17.663-23.271,0-46.208-7.215-61.291-13.217-2.774,12.441-4.894,24.722-6.223,35.534a432.014,432.014,0,0,1,76.1,245.3c0,239.6-194.934,434.535-434.537,434.535S29.964,805.066,29.964,565.465,224.9,130.922,464.505,130.922a432.45,432.45,0,0,1,145.966,25.3c9.759-3.647,20.981-8.243,32.508-13.442-7.085-13.064-24.834-50.894-14.568-86.178,6.1-20.97,20.577-37.066,43.024-47.841,34.2-16.418,78.344-9.728,131.206,19.885a413.82,413.82,0,0,1,66.2,46.626C876.871,81.552,968.893,155.074,970.024,222.533ZM848.647,565.465c0-211.82-172.325-384.147-384.142-384.147S80.36,353.645,80.36,565.465,252.687,949.6,464.505,949.6,848.647,777.279,848.647,565.465ZM797.713,286.932c6.359-32.37,19.458-79.958,43.885-101.738-10.826-15.626-40.451-40.292-98.5-71.894-18.847,23.94-61.835,45.832-92.9,59.393A437.031,437.031,0,0,1,797.713,286.932Zm142.074-63.893c-.758-45.378-65.135-105.033-89.881-124.193l-.831-.691c-28.55-25.55-113.8-86.507-164.559-62.138-14.568,6.993-23.426,16.489-27.073,29.029-7.387,25.387,8.313,56.436,12.771,64.487A280.409,280.409,0,0,0,701,111.066c4.306-9.084,11.1-19.1,21.3-23.778,6.324-2.9,16.487-4.943,29,1.789,79.934,43.016,120.463,79.384,120.463,108.093,0,26.027-16.965,37.822-28.909,41.5-2.076,5.208-4.034,10.777-5.859,16.557,23.194,9.779,64.027,21.032,85.7,1.977C934.531,247.379,940.013,236.3,939.787,223.039Z"/></svg>