<svg xmlns="http://www.w3.org/2000/svg" width="1000" height="1000">
  <path d="m898.664 199.671 81.403-80.11c16.798-19.382 14.214-52.977-10.336-76.235-21.966-23.258-58.146-27.135-76.235-7.753C743.61 185.458 743.61 185.458 742.319 188.043L610.523 318.545c-86.571-65.898-208.03-56.853-286.849 20.673C244.855 419.33 239.687 540.79 303 628.653L202.216 725.56c-24.55-32.303-42.64-69.774-56.853-113.706-33.595-99.492-23.258-211.906 28.426-301.062 83.987-143.425 233.872-205.446 374.713-187.356 32.303 5.168 58.145-18.09 60.73-49.1 0-33.596-23.259-63.314-58.146-67.19-142.132-12.922-288.141 32.302-397.97 140.84C-27.782 327.59-38.118 614.44 122.104 808.257l-93.033 91.74c-16.797 16.797-12.92 50.392 11.63 73.65 23.257 24.55 55.56 28.426 73.65 9.045l98.2-96.909c38.764-36.179 65.898-63.313 71.067-68.482l112.413-114.998c80.111 33.595 177.02 16.798 241.626-50.392 65.897-63.314 81.403-158.93 49.1-239.041l127.919-130.503c95.616 144.716 76.235 344.994-54.269 474.205-82.695 82.695-193.817 121.459-301.062 111.122-25.842-1.292-47.808 19.381-49.1 45.224l-2.585 16.797c-2.584 28.427 19.382 52.977 47.809 55.561 139.548 6.46 279.096-41.348 386.341-148.593 177.02-177.02 196.401-447.071 56.853-637.012zM405.077 571.8c-40.055-40.056-40.055-107.246 0-151.177 43.932-40.056 111.122-40.056 151.177 0 41.348 43.931 41.348 111.121 0 151.177-40.055 41.347-107.245 41.347-151.177 0z" style="fill:#000;fill-opacity:1;fill-rule:nonzero;stroke:none;"/>
</svg>
