<svg xmlns="http://www.w3.org/2000/svg" viewBox="0 0 1000 1000"><path d="M995 116.434c-2.345 32.843-3.518 65.687-4.691 104.396-79.763 0-157.18 2.345-234.598-1.173-35.19-1.173-53.957 10.556-68.033 44.573-79.763 187.678-161.872 375.356-246.327 561.86-10.557 23.46-34.017 57.477-52.784 57.477-23.46 0-51.612-24.633-68.034-46.92-51.611-65.687-102.05-133.72-147.796-205.272-25.806-37.536-52.784-55.13-97.358-49.266-22.286 3.52-44.573 0-70.379 0V478.887c55.13 0 107.915-2.346 161.872 2.346 17.595 2.345 37.536 21.113 50.439 38.708 51.611 66.86 100.876 137.24 153.66 211.138C440.179 572.725 507.039 417.89 576.245 264.23c21.114-50.438 50.439-98.53 73.899-147.796z"/></svg>