<?xml version="1.0" encoding="utf-8"?>
<!-- Generator: Adobe Illustrator 26.0.1, SVG Export Plug-In . SVG Version: 6.00 Build 0)  -->
<svg version="1.1" id="Layer_1" xmlns="http://www.w3.org/2000/svg" xmlns:xlink="http://www.w3.org/1999/xlink" x="0px" y="0px"
	 viewBox="0 0 1000 1000" style="enable-background:new 0 0 1000 1000;" xml:space="preserve">
<path d="M500.3,5C226.9,5,5.3,226.6,5.3,500s221.6,495,495,495s495-221.6,495-495S773.7,5,500.3,5z M348.4,142.6h68.8
	c-18.6,10.8-80.2,87.4-96,144.7H203.8L348.4,142.6z M434.9,476.5V370.4h43.1v257.3h-43.1v-112h-68.6v112h-43.1V370.4h43.1v106.1
	H434.9z M349.9,857.4L203.8,712.7h113.9c17.9,43,50.3,102.3,96.7,144.7H349.9z M485.3,857.4h-32.2c-22.5-15.8-75.5-66.8-108.2-144.7
	h140.4V857.4z M487.4,287.3H348.5c9.8-29.9,44.7-100.6,106-144.7h32.9V287.3z M650.7,142.6l146.1,144.7H682.9
	c-17.9-43-50.3-102.3-96.7-144.7H650.7z M567.9,515.7v112h-43.1V370.4h43.1v106.1h68.6V370.4h43.1v257.3h-43.1v-112H567.9z
	 M515.4,142.6h32.2c22.4,15.8,75.5,66.8,108.2,144.7H515.4V142.6z M546.1,857.4h-32.9V712.7h138.9
	C642.3,742.6,607.4,813.3,546.1,857.4z M652.2,857.4h-68.8c18.6-10.8,80.2-87.4,96-144.7h117.5L652.2,857.4z"/>
</svg>
