<?xml version="1.0" encoding="UTF-8"?><svg id="a" xmlns="http://www.w3.org/2000/svg" viewBox="0 0 1000 1000"><path d="M320.936,759.736h150.684v240.206C219.176,986.273,13.699,779.266,0,527.342H240.703v148.42l-29.353,1.952v109.363h109.587v-27.341Zm438.36-230.445v148.42h27.4v109.363h-109.589v-27.341h-150.684v240.206c252.445-13.671,459.879-218.724,473.577-470.648h-240.704ZM240.703,322.285h-27.397v-109.364h109.587v109.364h-27.396v355.427h25.439v27.341h358.119v-27.341h27.397v-148.42l-234.832-1.952v-226.537h207.435v33.2h109.589v-121.081h-109.589v33.202h-207.435V.057C221.134,13.727,13.699,218.781,0,470.705H240.703v-148.42Z"/></svg>