<?xml version="1.0" encoding="utf-8"?>
<!-- Generator: Adobe Illustrator 26.0.1, SVG Export Plug-In . SVG Version: 6.00 Build 0)  -->
<svg version="1.1" id="Layer_1" xmlns="http://www.w3.org/2000/svg" xmlns:xlink="http://www.w3.org/1999/xlink" x="0px" y="0px"
	 viewBox="0 0 1000 1000" style="enable-background:new 0 0 1000 1000;" xml:space="preserve">
<style type="text/css">
	.st0{fill:#FFFFFF;}
</style>
<rect class="st0" width="32" height="32"/>
<g>
	<path d="M679.7,522.5h-45.3h-47.5H413.1h-47.5h-45.3c-12.4,0-22.5,10.1-22.5,22.5s10.1,22.5,22.5,22.5H350l-12,34.8l-12,34.7
		l-4.5,13.1c-4.1,11.7,2.2,24.5,13.9,28.6c11.7,4.1,24.5-2.2,28.6-13.9l4.5-13.1l12-34.7c5-14.4,10.8-31.3,17.1-49.5h204.9
		c6.3,18.2,12.1,35.1,17.1,49.5l12,34.7l4.5,13.1c4.1,11.7,16.8,18,28.6,13.9c11.7-4.1,18-16.9,13.9-28.6l0,0l-4.5-13.1l-12-34.7
		l-12-34.8h29.7c12.4,0,22.5-10.1,22.5-22.5S692.2,522.5,679.7,522.5z"/>
	<path d="M679.7,432.6h-76.3C584.6,378,569,332.5,566.3,324.4c-4.8-14.4-12.7-27.1-24.7-36.1c-12.1-9.1-26.5-12.9-41.6-12.9
		c-15.1,0-29.5,3.8-41.6,12.9c-12,9-19.9,21.7-24.7,36.1c-2.7,8.1-18.4,53.6-37.2,108.2h-76.3c-12.4,0-22.5,10.1-22.5,22.5
		s10.1,22.5,22.5,22.5H381h47.5h142.8H619h60.8c12.4,0,22.5-10.1,22.5-22.5S692.2,432.6,679.7,432.6z M444.1,432.6
		c16.5-48,29.8-86.5,32.3-94c2.7-8,6-12.2,9-14.4c2.9-2.2,7.2-3.9,14.6-3.9c7.4,0,11.7,1.8,14.6,3.9c3,2.2,6.3,6.4,9,14.4
		c2.5,7.6,15.8,46,32.3,94H444.1z"/>
	<path d="M500.5,5C223.6,5,5,229.5,5,499.5C5,773.5,226.5,995,499.5,995C776.4,995,995,770.5,995,499.5C995,223.6,770.5,5,500.5,5z
		 M500,859.5c-198.5,0-359.5-161-359.5-359.5s161-359.5,359.5-359.5s359.5,161,359.5,359.5S698.5,859.5,500,859.5z"/>
</g>
</svg>
