<svg xmlns="http://www.w3.org/2000/svg" width="1000" height="1000">
  <path d="M45.233 626.8c0-1.219 173.128-234.089 229.212-310.9L502.44 5c0 1.22 109.73 151.183 148.744 204.828 153.622 210.925 287.735 401.123 303.585 416.973-2.438 0-152.402 124.36-158.498 128.017-47.55 39.015-91.441 78.03-137.771 114.607L502.44 995.004c-29.261-24.384-58.523-48.769-81.688-67.057-54.864-43.892-109.73-86.564-164.594-130.456-62.18-49.988-126.799-99.976-188.979-152.402-7.315-6.096-15.85-12.192-21.945-18.288zm188.978-23.165c65.838 53.646 132.895 107.292 199.952 160.937V331.75c-67.057 91.441-134.114 180.444-199.952 271.885zm337.723 158.499c65.838-53.646 129.237-104.853 193.856-158.499-64.619-91.44-128.018-180.444-193.856-270.666z" style="fill:#000;fill-opacity:1;fill-rule:nonzero;stroke:none;"/>
</svg>
