<?xml version="1.0" encoding="utf-8"?>
<!-- Generator: Adobe Illustrator 26.0.1, SVG Export Plug-In . SVG Version: 6.00 Build 0)  -->
<svg version="1.1" id="Layer_1" xmlns="http://www.w3.org/2000/svg" xmlns:xlink="http://www.w3.org/1999/xlink" x="0px" y="0px"
	 viewBox="0 0 1000 1000" style="enable-background:new 0 0 1000 1000;" xml:space="preserve">
<g id="_x31_zDJfB_00000038385880766503291100000017555875992244821183_">
	<g>
		<path d="M500.1,326.3c-27,58-51.9,111.5-76.8,165C374.8,595.7,326.1,700,278,804.6c-7.9,17.1-19,24.5-38.2,24
			c-43.4-1.1-86.9-0.1-130.4-0.4c-29.5-0.2-34.9-8.5-22.9-34.6c117-255.3,234.2-510.5,351.2-765.8c8.9-19.4,21.4-30.7,44.3-28
			c11.7,1.3,23.8,1.4,35.5,0c23.9-2.9,36.3,9.4,45.4,29.3c116.6,254.7,233.6,509.4,350.4,764c12.1,26.5,7,34.9-22,35.1
			c-44.1,0.4-88.2-0.6-132.3,0.4c-18.7,0.5-29-7.4-36.5-23.5c-48.2-104.5-96.9-208.9-145.4-313.2
			C552.1,438.2,527.2,384.6,500.1,326.3z"/>
		<path d="M500,999.3c-41.8-83.7-81.1-162.3-121.6-243.2c81.9,0,160.9,0,243.2,0C581.3,836.8,541.8,915.7,500,999.3z"/>
	</g>
</g>
</svg>
