<svg xmlns="http://www.w3.org/2000/svg" width="1000" height="1000">
  <path d="M995 20.041c-4.102 19.144-8.205 39.655-13.674 58.799-42.39 203.743-84.78 410.22-127.169 616.699-4.102 16.408-5.47 19.143-21.878 13.674l-98.453-20.511c-19.144-6.837-20.511-8.205-16.41-28.716 19.145-109.392 39.656-221.52 58.8-332.279C793.991 219.682 813.135 111.657 832.278 5h42.39c2.734 0 6.836 1.367 10.939 1.367 30.082 1.368 60.165 2.735 88.88 4.103 6.838 0 13.675 1.367 20.512 2.734zM5 5h139.475c12.307 56.064 25.98 113.495 39.655 170.925 34.185 161.354 67.002 321.34 103.922 481.326 2.735 15.042-1.367 21.879-15.041 27.348-35.553 16.41-72.472 27.348-112.127 27.348-12.307 0-16.409-5.47-19.144-16.408C102.086 493.163 61.063 290.787 21.41 87.044 14.572 59.696 9.102 32.348 4.999 5zm166.823 836.85c-2.735-9.571 1.367-12.306 12.307-16.408 28.715-5.47 56.063-13.674 84.779-21.878 2.734-1.368 5.47-2.735 9.572-4.103 16.408-5.47 19.143-4.102 20.51 15.042 0 10.939 2.735 23.246 2.735 34.185 1.368 0 2.735-1.368 2.735-1.368 4.102-15.041 8.205-31.45 13.674-46.491 1.368-5.47 4.102-10.94 9.572-12.307 28.715-5.47 60.166-10.94 94.35-16.409-2.734 10.94-5.469 17.776-6.836 23.246-17.776 62.9-36.92 123.066-54.696 185.967C357.79 990.898 352.32 995 341.38 995H216.947c-12.306 0-16.408-4.102-19.143-15.041-8.205-46.492-17.777-91.616-25.98-138.108zm192.804-201.007c0-4.103 1.367-8.205 1.367-12.307 27.348-92.984 56.064-184.6 83.412-277.583 1.367-8.204 6.837-10.94 15.041-10.94h60.166c9.572 0 15.042 4.103 17.776 12.307 25.981 83.412 51.962 165.456 77.942 248.868 4.103 12.306 6.837 24.613 13.674 41.022-15.041-4.102-24.613-6.837-36.92-8.204-20.51-2.735-41.022-6.838-62.9-8.205-12.307 0-20.511-4.102-24.613-19.144-4.103-23.245-10.94-45.124-19.144-68.37-4.102 8.205-5.47 15.042-6.837 21.879-5.47 17.776-9.572 35.552-13.674 51.961-1.367 6.837-6.837 12.307-10.94 13.674-30.082 4.102-60.165 8.205-94.35 15.042zm199.64 131.27c17.777 1.368 35.553 2.735 53.33 5.47 16.408 1.367 31.45 6.837 47.859 8.204 9.571 1.368 17.776 6.837 19.143 16.41 4.102 16.408 9.572 31.45 15.042 46.49 2.735 0 2.735-1.367 4.102-1.367v-38.287c0-10.94 4.102-13.674 13.674-10.94 32.818 9.573 65.635 17.777 98.453 27.349 4.102 1.367 9.572 8.204 8.204 12.307-10.939 49.226-20.51 98.453-31.45 146.312-1.367 4.102-8.204 10.939-12.307 10.939H642.21c-9.572 0-10.94-6.837-15.042-13.674-13.674-45.124-28.715-90.249-41.022-135.373-8.204-20.511-13.674-38.287-19.143-58.798-1.368-4.103-1.368-8.205-2.735-15.042z" style="fill:#000;fill-opacity:1;fill-rule:nonzero;stroke:none"/>
</svg>
