<svg xmlns="http://www.w3.org/2000/svg" viewBox="0 0 1000 1000"><path d="M500.496 5c272.968 0 494.507 221.54 494.507 495.002 0 270.495-218.572 495.001-495.001 495.001C229.506 995.003 5 776.431 5 500.002 5 229.506 223.572 5 500.496 5zM217.638 622.145c-5.934 11.868-1.978 16.813 4.945 21.758l271.98 175.056c4.944 3.956 8.9 4.945 15.823 0l271.98-175.056c5.933-4.945 10.878-10.879 5.933-21.758l-59.34-101.869c-2.968-5.934-4.946-5.934-8.902-3.956l-44.505 25.715c-3.956 2.967-3.956 6.923 0 11.868l32.637 57.363c2.967 4.945 0 6.923 0 6.923L505.441 749.728s-1.978 1.978-4.945 0l-200.77-130.55s-5.934-3.956-1.978-7.912l30.66-57.363c1.978-3.956 4.945-7.912 0-11.868l-41.539-24.726s-6.923-1.978-10.88 2.967zm101.869-159.231 41.538 25.714c6.923 2.967 7.912.989 11.868-3.956l127.583-213.627c1.978-3.956 2.967-3.956 4.945 0l128.572 213.627c3.956 4.945 5.934 5.934 9.89 3.956l44.506-26.703s3.956-3.956-.99-9.89l-155.274-261.1c-2.967-4.945-4.945-4.945-10.88-4.945h-37.582c-4.945 0-4.945 0-8.901 4.945l-155.275 261.1c-5.935 8.9 0 10.879 0 10.879z"/></svg>