<svg xmlns="http://www.w3.org/2000/svg" width="1000" height="1000">
  <path d="M5 500.496C5 225.55 226.54 5 500.496 5c272.968 0 494.507 222.528 494.507 494.507 0 274.946-222.528 495.496-494.507 495.496C225.55 995.003 5 772.475 5 500.496zm182.968 293.737h76.154v-129.56c10.879 1.978 14.835 3.956 20.77 7.912 70.22 36.593 148.351-5.934 174.066-68.242 31.648-70.22 29.67-138.462-.99-205.715-26.703-59.341-76.154-86.045-141.428-75.165-17.803 2.967-33.627 9.89-49.451 15.824-20.77-31.649-50.44-17.802-75.165-12.857-7.912 36.593-7.912 429.232-3.956 467.803zm89.01-213.627c-18.79-34.615-19.78-109.78 1.979-153.297 13.846-25.714 31.648-38.571 60.33-36.593 27.692 2.967 44.505 20.769 52.418 44.505 15.824 44.506 17.802 88.022 1.978 135.495-6.923 25.715-26.704 43.517-54.396 43.517-28.682 2.967-46.484-9.89-62.308-33.627zM516.32 187.968c-4.945 60.33-4.945 460.88 2.967 492.529 32.638 1.978 41.539 1.978 70.22-2.967 0-47.473 4.946-455.936 0-489.562zm138.462 494.507h75.165c2.968-15.824 2.968-25.715 2.968-36.594 2.967-51.428 0-103.846 2.967-156.264 0-46.484 19.78-70.22 67.253-80.11 7.912-2.967 15.824-5.934 23.736-5.934V326.43c-36.594-7.912-65.275 4.945-93.956 13.846-25.715-19.78-52.418-8.901-78.133-8.901-7.912 46.483-7.912 320.44 0 351.1zm130.55 0h77.143c0-30.66-1.978-54.396-3.956-88.023h-73.187z" style="fill:#000;fill-opacity:1;fill-rule:nonzero;stroke:none;"/>
</svg>
