<svg xmlns="http://www.w3.org/2000/svg" viewBox="0 0 1000 1000"><path d="M36.454 777.055h64.67c-3.271 5.41-17.489 42.526-58.38 108.203-28.937 44.036-17.614 49.068 93.105 49.068h262.958c26.421 0 47.81 0 74.232-15.098L293.12 777.055c32.712 0 60.392 3.774 89.33 0 11.323 0 25.163-6.29 30.196-17.614 18.872-36.487-5.033-64.167-47.81-64.167h-32.713c-11.324 0-15.098-5.033-15.098-16.356 0-7.55 15.098-7.55 26.421-7.55h91.847c22.647 0 26.421-10.065 26.421-31.454 0-22.647 6.291-42.777-26.421-47.81H382.45c-28.938 0-35.23-6.29-17.615-30.196 11.324-26.422 28.938-47.81 42.778-70.458 65.425-85.555 142.173-145.947 244.085-179.918 57.876-16.356 106.944-11.323 145.948 37.745 152.238 174.886 322.091-103.17 64.166-168.595-57.875-17.614-114.493-10.065-169.853 10.066-59.134 21.389-119.526 60.392-179.918 94.362-26.421 10.066-50.327 32.713-80.523 44.036-37.745 20.131-94.363 16.357-120.784-17.614-27.68-33.97-37.745-80.523-12.582-120.784 18.873-20.131 45.294-42.778 72.974-59.134 16.356-16.356 33.97-22.647 22.647-49.069-6.29-21.389-28.938-16.356-46.552-16.356C211.339 76.254 90.555 218.427 194.983 355.568c27.68 39.003 66.683 54.101 109.461 65.425 27.68 11.323 32.712 16.356 16.356 39.003-27.68 36.487-47.81 75.49-76.748 109.46-10.065 11.324-26.422 22.648-42.778 22.648-39.003 5.033-81.78 0-127.075 5.033-11.324 0-26.422 6.29-31.454 13.84-10.066 45.294 0 60.392 47.81 60.392h51.585c26.422 0 41.52 23.905-6.29 23.905H36.453C5 695.274 5 700.307 5 740.568c0 36.487 3.774 36.487 31.454 36.487z"/></svg>