<svg xmlns="http://www.w3.org/2000/svg" width="1000" height="1000">
  <path d="M994.319 161.602v35.406c-9.532 54.47-38.13 99.409-77.62 133.453-49.024 50.385-99.409 99.408-148.432 149.793-20.427 13.618-14.98 24.512 0 39.491 49.023 54.47 99.408 104.856 153.879 153.88 34.044 34.043 62.64 78.982 72.173 129.367v34.044c-9.532 38.129-19.065 72.173-49.023 103.494-28.597 29.958-69.45 44.938-107.58 54.47h-35.405c-54.47-9.532-99.409-39.491-133.453-78.982-49.023-50.385-99.408-99.409-148.432-149.794-13.617-13.617-25.873-13.617-40.852 0-47.662 50.385-103.494 99.409-153.88 153.88-34.043 35.405-72.173 65.364-126.643 74.896h-35.406c-43.576-9.532-78.982-24.512-113.026-54.47-25.873-31.321-36.768-65.365-44.938-103.494v-34.044c8.17-50.385 35.406-95.324 73.535-129.368 40.853-35.405 74.897-74.896 113.026-114.387 40.853-39.491 35.406-39.491 70.812 0 49.023 44.938 49.023 34.044 0 78.982-39.491 44.938-88.515 88.514-133.453 137.537-24.512 27.236-20.426 65.365 4.085 89.877 20.427 25.873 55.833 29.958 84.43 9.532 9.532-9.532 20.426-17.703 28.597-24.512 50.385-54.47 106.217-103.493 155.24-157.964 20.427-19.065 23.15-19.065 0-44.938C291.651 542.895 189.52 435.316 79.216 330.461 43.81 290.97 13.851 251.479 5.681 197.008v-35.406C13.85 123.473 24.746 89.43 54.704 58.11 84.663 28.149 122.792 14.532 163.645 5h35.406c54.47 9.532 92.6 39.491 133.452 78.982 43.577 49.024 99.409 98.047 147.07 148.432 14.98 14.98 27.236 19.065 40.853 0 38.13-40.853 78.982-78.982 119.835-118.473C683.838 69.003 727.414 14.532 802.311 5h35.406c38.129 9.532 78.982 23.15 107.579 58.556 29.958 29.958 39.49 64.002 49.023 98.046zM109.175 182.03c4.085 14.98 10.894 35.406 20.426 44.938 62.641 61.28 123.92 119.835 182.476 182.476 10.894 12.256 20.426 12.256 28.597 0 25.873-24.512 46.3-43.576 66.726-62.641 14.98-9.532 14.98-20.426 0-35.406-20.426-20.426-46.3-43.576-66.726-64.003-38.13-40.852-73.535-74.896-113.026-114.387-20.427-19.065-49.024-25.874-73.535-14.98-31.32 14.98-40.853 35.406-44.938 64.003zm306.396 302.31c-8.17 9.533-8.17 14.98 6.809 29.96 21.788 25.873 38.129 40.852 64.002 64.002 12.256 10.894 17.703 10.894 28.597 0 13.618-14.98 29.96-23.15 43.577-38.13 10.894-10.893 20.426-10.893 31.32 0 14.98 14.98 29.959 29.96 44.938 43.577 9.533 9.533 9.533 20.427 0 29.959-14.98 10.894-27.235 24.512-40.853 39.491-14.979 14.98-14.979 23.15 0 35.406 61.28 58.556 118.474 118.473 178.391 177.029 9.532 9.532 27.235 25.873 44.938 25.873 23.15-5.447 40.853-16.341 58.556-40.853 14.98-19.064 14.98-43.576 0-64.002-8.17-13.618-17.703-24.512-28.597-34.044-99.409-104.856-202.902-202.903-302.31-302.311-24.513-25.874-24.513-25.874 0-49.024 13.617-10.894 24.51-20.426 34.043-35.405 14.98-9.533 20.426-9.533 35.406 0 10.894 14.979 25.873 28.597 40.853 43.576 8.17 12.256 19.064 12.256 34.044 0 58.555-62.641 119.835-118.473 178.39-182.476 23.15-24.512 23.15-69.45 0-93.961-27.235-25.874-70.811-25.874-95.323 0C655.241 251.479 535.406 371.314 415.571 484.34z" style="fill:#000;fill-opacity:1;fill-rule:nonzero;stroke:none;"/>
</svg>
