<svg xmlns="http://www.w3.org/2000/svg" viewBox="0 0 1000 1000"><path d="M289,2,87,204H251C273,124,359,17,385,2ZM483,204V2H437C351.4,63.6,302.7,162.3,289,204Zm39,0H718C672.4,95.2,598.3,24,567,2H522Zm234,0H915L711,2H621C685.8,61.2,731,144,756,204Zm-43,796L915,798H751c-22,80-108,187-134,202ZM519,798v202h46c85.6-61.6,134.3-160.3,148-202Zm-39,0H284c45.6,108.8,119.7,180,151,202h45Zm-234,0H87l204,202h90C316.2,940.8,271,858,246,798Zm23.6-64L138.9,409H137l1.3,325H68.1V273.8h89.1L286.5,600.7h2l-.6-326.9h67.6V734Zm231.3,0V273.8h78V734ZM865.4,557.9V734H788.7V557.9l-115-284.1h84.5L827,479.2l2-1.3,70.2-204.1h82.5Z"/></svg>