<svg xmlns="http://www.w3.org/2000/svg" viewBox="0 0 1000 1000"><path d="M503.023 12.831c-252.469 0-453.463 177.71-492.682 426.502C-26.426 669.74 130.448 902.6 363.308 970.008c33.09 11.03 68.632 13.481 107.85 17.158 23.286 0 41.67-17.158 37.993-41.67 0-15.932-14.707-29.414-31.865-45.346-1.225-4.902-12.256-4.902-26.962-4.902-229.184-30.64-389.734-248.793-341.937-476.75 45.347-218.153 283.109-362.771 502.487-299.041 227.958 66.18 346.839 295.364 265.95 519.645-15.932 44.12-6.127 67.407 23.287 78.437 28.188 11.03 51.474-4.903 66.18-46.572C1079.046 351.09 846.186 12.83 503.024 12.83zM194.178 484.68c-13.482 116.43 56.376 236.536 164.227 291.687 4.903 0 8.58 3.677 11.03 3.677 31.865 13.482 58.828 7.354 69.858-20.835 11.03-22.06 4.903-46.572-29.414-60.053-104.174-55.15-151.971-163.002-112.753-268.401 36.768-99.272 139.716-161.777 248.793-143.393 107.85 23.286 181.385 116.43 172.806 232.86 0 33.09 15.933 57.602 42.895 61.279 29.414 0 46.572-15.933 51.475-55.151 25.737-205.898-197.318-390.96-408.118-314.974-120.106 33.09-205.897 142.167-210.8 273.304zm330.906 283.108c7.353 14.707 22.06 25.738 34.316 35.542 25.737 11.03 140.941-47.797 182.611-109.076 3.677-11.03 0-42.895-11.03-50.249-12.256-11.03-42.895-14.707-55.151-4.902-37.993 34.316-80.888 62.504-128.686 78.437-22.06 7.353-34.316 31.865-22.06 50.248z"/></svg>