<svg xmlns="http://www.w3.org/2000/svg" viewBox="0 0 1000 1000"><path d="M577.888 304.317H43.622C15.299 304.317 5 292.731 5 266.983V66.151c0-23.173 10.3-34.76 36.047-34.76h919.195c25.747 0 34.759 11.587 34.759 37.334V268.27c0 24.46-9.012 36.047-33.472 36.047H662.855c-20.598 0-25.748 6.437-25.748 27.035v601.21c0 24.46-10.299 36.047-38.621 36.047h-196.97c-25.748 0-38.622-11.586-38.622-36.047V551.496c0-18.024 6.437-32.185 18.023-45.059 64.37-64.37 127.452-128.739 191.821-194.395 1.287-3.863 1.287-3.863 5.15-7.725z"/></svg>