<svg xmlns="http://www.w3.org/2000/svg" viewBox="0 0 1000 1000"><path d="M38.273 741.082V260.089c0-5.837 1.167-9.34 7.004-14.009C167.86 180.702 291.611 114.157 415.361 46.445 439.878 33.603 465.562 20.76 490.08 6.75c5.837-2.335 11.674-2.335 17.511 0a41633.41 41633.41 0 0 0 444.802 241.664c5.837 2.335 9.34 7.005 9.34 12.842 0 150.602-2.336 301.204-2.336 450.638v29.187c0 4.67-1.167 7.005-3.502 9.34-59.54 31.52-116.746 63.042-173.951 93.396-92.23 50.2-184.458 100.401-277.855 149.435-3.502 2.335-7.005 2.335-11.675 0-96.898-52.536-194.965-105.071-293.031-157.607-51.368-28.019-102.737-56.038-154.105-82.89-5.837-2.334-7.004-5.837-7.004-11.674zm235.826 16.344c0 11.675-1.167 11.675 10.507 11.675h207.807c38.527 0 75.885-5.837 110.909-22.182 75.885-33.856 131.923-87.56 162.277-165.779 26.851-63.042 28.018-126.085 2.334-189.128-24.516-60.708-61.875-108.573-116.745-143.597-46.699-31.521-98.067-49.033-154.105-49.033-57.205-1.168-114.41 0-170.448 0-7.005 0-8.173 3.502-8.173 7.004 1.168 50.201 0 100.402 1.168 148.268 0 50.2 0 99.233-1.168 147.1 0 11.674 0 11.674 11.675 11.674 39.693 0 79.387-1.168 119.08-1.168 5.838 0 5.838-1.167 5.838-5.837v-187.96c0-4.67 0-9.34 5.837-9.34 22.182 0 45.531-1.168 67.713 4.67 35.023 11.674 63.042 31.52 82.89 60.707 23.348 30.354 37.358 65.378 38.525 103.904 1.168 54.87-18.68 100.401-57.205 136.593-30.354 29.186-66.545 45.53-108.574 44.363-22.181-2.335-43.196-2.335-63.042-2.335-11.675 0-11.675 0-11.675-9.34v-105.07c0-11.675-2.335-11.675-11.675-11.675h-68.88c-10.507 0-10.507-1.168-10.507-9.34 0-7.005-3.502-8.172-8.172-8.172-5.837 1.167-12.842 0-19.847 0-17.511 0-16.344 0-16.344 17.512z"/></svg>