<svg xmlns="http://www.w3.org/2000/svg" viewBox="0 0 1000 1000"><path d="M721.033 308.61C736.2 237.446 739.7 235.113 739.7 133.614c-3.5-24.5-24.5-33.833-44.333-24.5-25.666 10.5-50.166 24.5-64.166 35C565.87 195.445 516.87 253.778 471.37 319.11c0 4.666 0 4.666-4.667 9.333 65.333 5.833 125.999 5.833 184.331 10.5 59.5 4.666 120.165 19.833 183.165 29.166-4.667 15.166-10.5 25.666-14 36.166-4.667 4.667-14 9.333-21 9.333-18.666-4.666-43.166-16.333-59.5-9.333-15.166 9.333-18.666 30.333-29.166 53.666-15.166 30.333-15.166 56 0 79.333C764.2 646.94 807.366 771.772 785.2 869.77c-9.333 53.666-49 80.5-99.165 66.5-65.333-22.167-110.832-66.5-153.998-111.999-9.334-5.833 18.666-42 18.666-43.166 66.5 64.166 77 79.332 139.998 103.832 24.5 9.333 45.5 0 49-30.333 0-35 0-68.833-3.5-104.999-15.167-68.832-40.833-127.165-68.833-197.164-65.332 108.499-135.331 213.497-225.164 298.663-9.333-9.333-14-15.166-18.666-26.833-4.667-4.667-4.667-14 0-18.666 9.333-14 23.333-24.5 33.833-33.833 9.333-10.5 9.333-22.167 0-31.5-46.666-58.333-65.333-79.332-125.999-82.832-72.332-4.667-146.998-21-216.997-50.166-30.333-14-65.332-36.167-83.999-54.833-33.833-35-33.833-73.5 0-108.499 35-35 79.332-53.666 122.499-66.499 45.499-9.333 60.666-18.666 69.999 26.833-9.333 4.667-24.5 9.333-33.833 14-36.166 14-74.666 25.666-108.499 43.166-36.166 22.167-36.166 52.5 0 75.833 63 38.5 138.832 55.999 207.664 64.165 26.833 5.834 53.666 9.334 84 16.334-64.167-115.499-117.833-223.998-149.332-344.163 14-4.666 26.833-5.833 45.5-9.333 5.832 18.666 15.166 40.833 19.832 59.5 4.667 15.166 9.333 19.832 26.833 19.832 23.333-4.666 47.833-4.666 72.333-9.333 9.333 0 23.333-10.5 31.5-19.833C471.37 235.112 532.035 160.446 611.367 99.78c24.5-14 47.833-29.166 74.666-35 43.166-14 89.832 5.834 99.165 54.833 5.833 38.5 4.667 120.165-9.333 159.831-11.667 44.333-16.333 44.333-54.833 29.167zM189.04 184.947c0-30.333 19.833-51.333 50.166-51.333 23.333 0 44.333 21 44.333 51.333 0 24.5-24.5 45.499-51.333 45.499-23.333 0-43.166-21-43.166-45.5zm19.833 634.658c4.667-44.332 14-93.332 23.333-138.831 21 2.333 30.333 7 46.666 7-4.667 43.166-19.833 83.999-19.833 122.498 0 40.833 9.333 79.333 19.833 125.999-52.5 0-70-56-70-116.666zm23.333-724.49c22.166-30.334 46.666-38.5 82.832-33.834 67.666 18.667 113.166 70 162.165 117.832-10.5 9.333-19.833 24.5-30.333 33.833-59.5-62.999-122.499-113.165-214.664-117.832zm75.832 789.823c0-25.666 23.333-49 50.166-49 24.5 0 40.833 21 43.167 49 0 25.666-18.667 51.333-43.167 51.333-26.833 0-50.166-25.667-50.166-51.333zm7-491.16c47.833 113.165 108.499 223.997 187.831 321.995 72.333-104.998 138.832-208.83 183.165-327.829-124.832-10.5-248.497-14-370.996 5.833zM418.87 496.441c0-49 33.833-82.833 84-82.833 44.332 0 82.832 39.667 78.165 82.833 0 44.332-39.666 86.332-85.166 86.332-43.166 0-76.999-42-76.999-86.332zm356.996 96.832c82.832-22.167 162.165-45.5 208.83-131.832 12.834 22.167 12.834 40.833 4.667 61.833-9.333 17.5-25.666 38.5-39.666 47.832-46.666 36.167-99.165 51.333-158.665 65.333-5.833-14-10.5-29.166-15.166-43.166zm82.832-165.665c-3.5-30.333 21-50.166 44.333-50.166 30.333 0 52.5 19.833 46.666 50.166 0 25.667-21 44.333-46.666 44.333-23.333 0-44.333-18.666-44.333-44.333z"/></svg>