<svg xmlns="http://www.w3.org/2000/svg" viewBox="0 0 1000 1000"><path d="M5 500.496c0 271.98 220.55 494.507 495.496 494.507 271.98 0 494.507-220.55 494.507-495.496C995.003 227.528 773.464 5 500.496 5 226.54 5 5 225.55 5 500.496zm87.033 14.835C86.1 298.737 257.2 108.846 465.881 95.99c223.517-12.858 419.342 139.45 439.122 354.066H701.266c-11.868 0-20.77-11.868-25.714-23.736-37.583-77.143-106.814-120.66-188.902-114.726-76.154 4.945-146.374 64.286-167.143 138.462-24.726 94.946 26.703 197.803 120.66 229.452 88.022 32.637 190.88-13.846 228.462-100.88 12.857-33.626 32.637-39.56 63.297-27.692v52.418c0 25.714 18.79 44.505 45.494 44.505 18.791-5.934 30.66-18.791 30.66-44.505 6.923-58.352 6.923-58.352 64.286-58.352h32.637C891.157 712.145 737.86 900.058 510.386 906.98c-227.473 0-406.485-171.1-418.353-391.65zm336.265-12.857c0-39.56 30.66-70.22 76.154-70.22 38.572 0 70.22 30.66 70.22 70.22 0 36.594-31.648 70.22-76.154 70.22-39.56 0-70.22-33.626-70.22-70.22z"/></svg>