<svg xmlns="http://www.w3.org/2000/svg" viewBox="0 0 1000 1000"><path d="M498.746 5.639c276.397 0 496.258 219.86 496.258 492.489-1.256 273.884-222.374 496.258-496.258 496.258C226.118 994.386 5 770.756 5 495.616 6.256 221.73 236.168 3.125 498.746 5.638zM133.148 496.872c-1.257 203.528 165.838 371.88 368.11 369.367 203.53-3.77 368.111-168.351 365.598-368.111C863.087 294.599 702.274 132.53 497.49 132.53c-206.041 0-365.598 172.12-364.341 364.342zm60.305-7.539c6.281-114.327 59.048-198.503 157.043-255.039 17.59-10.05 35.178-17.589 51.51-25.127 3.77 8.795 3.77 15.077 3.77 20.102v45.229c0 8.794-5.026 8.794-12.564 8.794h-90.457c-11.307 0-11.307 5.025-11.307 15.076v33.922c0 7.538 2.513 12.563 10.05 12.563 13.82 0 23.871 0 35.178 1.257 16.333 1.256 27.64 12.563 27.64 28.896 1.257 80.406 1.257 164.581 1.257 246.244 0 16.333-7.539 22.615-21.358 23.87h-32.666c-5.025 0-10.05 5.026-10.05 11.308-3.77 15.076-6.282 28.896-7.538 43.972-2.513 8.795 1.256 11.307 8.794 11.307h90.457c8.795 0 13.82 1.257 12.564 11.308v54.023c0 11.307 0 11.307-12.564 7.538-59.048-21.358-104.277-57.792-140.711-105.534-41.46-57.792-60.305-121.866-59.048-189.709zM459.799 793.37v-71.612c0-5.025 5.025-10.05 8.794-10.05 11.307 1.256 22.615 1.256 30.153 1.256s8.794 3.769 8.794 8.794v71.612c1.256 7.538-1.256 8.795-8.794 8.795-8.795 0-18.846-1.257-30.153-1.257-3.769 0-8.794-1.256-8.794-7.538zm0-518.872v-67.843c0-7.538 3.769-10.051 8.794-10.051 11.307 0 21.358 0 30.153-2.513 7.538 0 8.794 3.77 8.794 11.307v67.843c0 7.538-1.256 10.051-10.05 10.051h-28.897c-3.769 0-8.794-2.513-8.794-8.794zm3.769 363.085V529.537c0-7.538 0-10.051 5.025-10.051 36.434-1.256 66.587-1.256 103.02 3.769 8.795 6.282 17.59 7.538 26.384 12.563 32.665 20.102 33.922 66.587 2.513 90.458-17.589 11.307-36.434 12.563-54.023 16.332-25.127 1.257-50.254 1.257-74.125 2.513-7.538 0-8.794-2.513-8.794-7.538zm0-183.427v-96.74c0-7.537 1.256-10.05 8.794-10.05 23.87 1.256 50.254 1.256 75.381 6.282 11.307 2.512 20.102 7.538 28.896 12.563 28.896 21.358 25.127 65.33-5.025 82.92-21.358 7.537-40.203 13.82-62.818 13.82-12.563 2.512-23.87 0-36.434 0-7.538 0-8.794-1.257-8.794-8.795zm99.251 330.42c1.257-21.358 0-41.46 0-62.818 0-5.025 2.513-10.05 11.308-11.307 23.87-1.256 43.972-6.282 67.843-12.563 32.665-5.026 64.073-22.615 80.406-59.049 13.82-30.152 16.333-65.33 6.282-99.252-6.282-31.408-30.153-48.997-60.305-59.048-6.282-1.256-10.05-2.513-13.82-3.77 2.513-5.024 5.025-6.28 7.538-8.794 25.127-13.82 36.434-37.69 37.69-67.842 2.513-31.41-3.768-60.305-31.408-84.176-21.358-12.563-45.229-21.358-69.1-26.383-10.05 0-17.588-1.257-27.64-1.257-7.537-5.025-8.794-7.538-8.794-13.82v-61.56c0-7.539 1.257-12.564 11.308-7.539 64.074 16.333 118.097 50.254 159.556 101.765 42.716 54.023 65.33 113.071 69.1 180.914 2.512 81.663-25.128 150.762-80.407 214.836-38.947 43.972-89.2 75.381-148.25 90.457-8.794 1.257-11.307 0-11.307-8.794z"/></svg>
<svg xmlns="http://www.w3.org/2000/svg" viewBox="0 0 1000 1000"><path d="M498.746 5.639c276.397 0 496.258 219.86 496.258 492.489-1.256 273.884-222.374 496.258-496.258 496.258C226.118 994.386 5 770.756 5 495.616 6.256 221.73 236.168 3.125 498.746 5.638zM133.148 496.872c-1.257 203.528 165.838 371.88 368.11 369.367 203.53-3.77 368.111-168.351 365.598-368.111C863.087 294.599 702.274 132.53 497.49 132.53c-206.041 0-365.598 172.12-364.341 364.342zm60.305-7.539c6.281-114.327 59.048-198.503 157.043-255.039 17.59-10.05 35.178-17.589 51.51-25.127 3.77 8.795 3.77 15.077 3.77 20.102v45.229c0 8.794-5.026 8.794-12.564 8.794h-90.457c-11.307 0-11.307 5.025-11.307 15.076v33.922c0 7.538 2.513 12.563 10.05 12.563 13.82 0 23.871 0 35.178 1.257 16.333 1.256 27.64 12.563 27.64 28.896 1.257 80.406 1.257 164.581 1.257 246.244 0 16.333-7.539 22.615-21.358 23.87h-32.666c-5.025 0-10.05 5.026-10.05 11.308-3.77 15.076-6.282 28.896-7.538 43.972-2.513 8.795 1.256 11.307 8.794 11.307h90.457c8.795 0 13.82 1.257 12.564 11.308v54.023c0 11.307 0 11.307-12.564 7.538-59.048-21.358-104.277-57.792-140.711-105.534-41.46-57.792-60.305-121.866-59.048-189.709zM459.799 793.37v-71.612c0-5.025 5.025-10.05 8.794-10.05 11.307 1.256 22.615 1.256 30.153 1.256s8.794 3.769 8.794 8.794v71.612c1.256 7.538-1.256 8.795-8.794 8.795-8.795 0-18.846-1.257-30.153-1.257-3.769 0-8.794-1.256-8.794-7.538zm0-518.872v-67.843c0-7.538 3.769-10.051 8.794-10.051 11.307 0 21.358 0 30.153-2.513 7.538 0 8.794 3.77 8.794 11.307v67.843c0 7.538-1.256 10.051-10.05 10.051h-28.897c-3.769 0-8.794-2.513-8.794-8.794zm3.769 363.085V529.537c0-7.538 0-10.051 5.025-10.051 36.434-1.256 66.587-1.256 103.02 3.769 8.795 6.282 17.59 7.538 26.384 12.563 32.665 20.102 33.922 66.587 2.513 90.458-17.589 11.307-36.434 12.563-54.023 16.332-25.127 1.257-50.254 1.257-74.125 2.513-7.538 0-8.794-2.513-8.794-7.538zm0-183.427v-96.74c0-7.537 1.256-10.05 8.794-10.05 23.87 1.256 50.254 1.256 75.381 6.282 11.307 2.512 20.102 7.538 28.896 12.563 28.896 21.358 25.127 65.33-5.025 82.92-21.358 7.537-40.203 13.82-62.818 13.82-12.563 2.512-23.87 0-36.434 0-7.538 0-8.794-1.257-8.794-8.795zm99.251 330.42c1.257-21.358 0-41.46 0-62.818 0-5.025 2.513-10.05 11.308-11.307 23.87-1.256 43.972-6.282 67.843-12.563 32.665-5.026 64.073-22.615 80.406-59.049 13.82-30.152 16.333-65.33 6.282-99.252-6.282-31.408-30.153-48.997-60.305-59.048-6.282-1.256-10.05-2.513-13.82-3.77 2.513-5.024 5.025-6.28 7.538-8.794 25.127-13.82 36.434-37.69 37.69-67.842 2.513-31.41-3.768-60.305-31.408-84.176-21.358-12.563-45.229-21.358-69.1-26.383-10.05 0-17.588-1.257-27.64-1.257-7.537-5.025-8.794-7.538-8.794-13.82v-61.56c0-7.539 1.257-12.564 11.308-7.539 64.074 16.333 118.097 50.254 159.556 101.765 42.716 54.023 65.33 113.071 69.1 180.914 2.512 81.663-25.128 150.762-80.407 214.836-38.947 43.972-89.2 75.381-148.25 90.457-8.794 1.257-11.307 0-11.307-8.794z"/></svg>
<svg xmlns="http://www.w3.org/2000/svg" viewBox="0 0 1000 1000"><path d="M498.746 5.639c276.397 0 496.258 219.86 496.258 492.489-1.256 273.884-222.374 496.258-496.258 496.258C226.118 994.386 5 770.756 5 495.616 6.256 221.73 236.168 3.125 498.746 5.638zM133.148 496.872c-1.257 203.528 165.838 371.88 368.11 369.367 203.53-3.77 368.111-168.351 365.598-368.111C863.087 294.599 702.274 132.53 497.49 132.53c-206.041 0-365.598 172.12-364.341 364.342zm60.305-7.539c6.281-114.327 59.048-198.503 157.043-255.039 17.59-10.05 35.178-17.589 51.51-25.127 3.77 8.795 3.77 15.077 3.77 20.102v45.229c0 8.794-5.026 8.794-12.564 8.794h-90.457c-11.307 0-11.307 5.025-11.307 15.076v33.922c0 7.538 2.513 12.563 10.05 12.563 13.82 0 23.871 0 35.178 1.257 16.333 1.256 27.64 12.563 27.64 28.896 1.257 80.406 1.257 164.581 1.257 246.244 0 16.333-7.539 22.615-21.358 23.87h-32.666c-5.025 0-10.05 5.026-10.05 11.308-3.77 15.076-6.282 28.896-7.538 43.972-2.513 8.795 1.256 11.307 8.794 11.307h90.457c8.795 0 13.82 1.257 12.564 11.308v54.023c0 11.307 0 11.307-12.564 7.538-59.048-21.358-104.277-57.792-140.711-105.534-41.46-57.792-60.305-121.866-59.048-189.709zM459.799 793.37v-71.612c0-5.025 5.025-10.05 8.794-10.05 11.307 1.256 22.615 1.256 30.153 1.256s8.794 3.769 8.794 8.794v71.612c1.256 7.538-1.256 8.795-8.794 8.795-8.795 0-18.846-1.257-30.153-1.257-3.769 0-8.794-1.256-8.794-7.538zm0-518.872v-67.843c0-7.538 3.769-10.051 8.794-10.051 11.307 0 21.358 0 30.153-2.513 7.538 0 8.794 3.77 8.794 11.307v67.843c0 7.538-1.256 10.051-10.05 10.051h-28.897c-3.769 0-8.794-2.513-8.794-8.794zm3.769 363.085V529.537c0-7.538 0-10.051 5.025-10.051 36.434-1.256 66.587-1.256 103.02 3.769 8.795 6.282 17.59 7.538 26.384 12.563 32.665 20.102 33.922 66.587 2.513 90.458-17.589 11.307-36.434 12.563-54.023 16.332-25.127 1.257-50.254 1.257-74.125 2.513-7.538 0-8.794-2.513-8.794-7.538zm0-183.427v-96.74c0-7.537 1.256-10.05 8.794-10.05 23.87 1.256 50.254 1.256 75.381 6.282 11.307 2.512 20.102 7.538 28.896 12.563 28.896 21.358 25.127 65.33-5.025 82.92-21.358 7.537-40.203 13.82-62.818 13.82-12.563 2.512-23.87 0-36.434 0-7.538 0-8.794-1.257-8.794-8.795zm99.251 330.42c1.257-21.358 0-41.46 0-62.818 0-5.025 2.513-10.05 11.308-11.307 23.87-1.256 43.972-6.282 67.843-12.563 32.665-5.026 64.073-22.615 80.406-59.049 13.82-30.152 16.333-65.33 6.282-99.252-6.282-31.408-30.153-48.997-60.305-59.048-6.282-1.256-10.05-2.513-13.82-3.77 2.513-5.024 5.025-6.28 7.538-8.794 25.127-13.82 36.434-37.69 37.69-67.842 2.513-31.41-3.768-60.305-31.408-84.176-21.358-12.563-45.229-21.358-69.1-26.383-10.05 0-17.588-1.257-27.64-1.257-7.537-5.025-8.794-7.538-8.794-13.82v-61.56c0-7.539 1.257-12.564 11.308-7.539 64.074 16.333 118.097 50.254 159.556 101.765 42.716 54.023 65.33 113.071 69.1 180.914 2.512 81.663-25.128 150.762-80.407 214.836-38.947 43.972-89.2 75.381-148.25 90.457-8.794 1.257-11.307 0-11.307-8.794z"/></svg>