<svg xmlns="http://www.w3.org/2000/svg" viewBox="0 0 1000 1000"><path d="m981.427 203.563 13.577 27.155L507.356 919.76c-2.263 3.395-4.525 5.657-9.051 6.789-6.789 5.657-13.577 7.92-21.497 7.92-5.658 0-11.315-1.131-16.972-3.394-5.657-2.263-9.051-4.526-12.446-7.92l-4.525-4.526-87.12-116.538 514.8-736.561 24.892 23.76c19.234 18.103 35.074 38.468 47.52 55.44 13.577 18.103 27.154 37.337 38.469 58.834zM5 513.576l55.44-62.229 46.389 62.229zm71.28-80.332 1.132-2.263h248.915l135.772 177.635-121.063 174.241z"/></svg>