<svg xmlns="http://www.w3.org/2000/svg" width="1000" height="1000">
  <path d="M500.002 995.004c273.933 0 495.002-222.27 495.002-493.8C995.004 227.27 773.934 5 500.002 5 224.867 5 5 227.27 5 501.203c0 271.53 219.867 493.8 495.002 493.8zM54.26 501.204C54.26 253.701 252.5 54.26 500.002 54.26c247.5 0 444.54 199.442 444.54 446.943 0 246.3-197.04 443.34-444.54 443.34-247.501 0-445.742-197.04-445.742-443.34zm398.885 0c0-25.231 19.223-45.656 46.857-45.656 25.23 0 43.252 20.425 43.252 45.655 0 24.03-18.022 46.857-43.252 46.857-27.634 0-46.857-22.827-46.857-46.857z" style="fill:#000;fill-opacity:1;fill-rule:nonzero;stroke:none;"/>
</svg>
