<svg xmlns="http://www.w3.org/2000/svg" width="1000" height="1000">
  <path d="M106.466 32.712c83.924 0 77.66-10.02 122.754 77.661 90.187 184.131 184.131 360.747 273.066 548.636 12.526 26.305 31.314 43.841 65.135 43.841 36.325 0 56.366-11.273 77.66-43.84C786.625 362.143 841.74 239.39 930.673 71.542c5.01-12.526 11.273-17.537 16.284-23.8 13.778-15.03 27.557-15.03 41.335-5.01 11.274 11.273 6.263 22.547 0 37.578-66.387 127.764-129.017 259.287-192.9 387.051C715.228 640.22 591.22 899.507 554.896 947.106c-26.305 33.82-86.43 23.8-115.24-15.031-15.03-16.284-113.985-225.467-202.92-407.093C140.286 339.598 22.543 102.857 12.522 80.31-1.257 59.017 1.248 32.712 42.583 32.712z" style="fill:#000;fill-opacity:1;fill-rule:nonzero;stroke:none;"/>
</svg>
