<svg xmlns="http://www.w3.org/2000/svg" width="1000" height="1000">
  <path d="M500.496 995.003c275.935 0 494.507-224.506 494.507-495.496C995.003 226.54 773.464 5 500.496 5 223.572 5 5 229.506 5 499.507c0 276.924 224.506 495.496 495.496 495.496zM121.704 516.32c-8.901-8.9-8.901-14.835 0-23.736L486.65 127.638c8.901-10.88 15.824-8.901 24.725 0a63482.63 63482.63 0 0 0 364.947 364.946c7.912 7.912 8.9 12.857 0 22.747-122.638 121.65-243.298 243.298-365.936 364.947-3.956 2.967-6.923 5.934-11.868 9.89-5.934-3.956-10.879-7.912-14.835-13.846-95.934-93.957-189.89-187.913-283.847-282.859-26.704-25.714-52.418-51.428-78.132-77.143zm89.011 38.572c10.88 24.725 25.714 47.473 42.528 66.264 21.758 26.703 47.472 48.462 71.209 72.198 8.9 9.89 14.835 9.89 24.725 1.978 29.67-28.681 64.286-51.429 104.835-63.297 8.902-2.967 18.792-3.956 32.638-6.923-5.934 7.912-6.923 11.868-9.89 14.835-53.407 75.165-51.429 145.385 9.89 214.616 7.912 9.89 13.846 10.88 23.736 0 59.341-64.286 64.286-139.45 11.868-210.66-2.967-4.945-4.945-8.9-8.9-14.835 1.977-.989 4.944-2.967 5.933-2.967 4.946 1.978 8.902 1.978 10.88 2.967 46.483 9.89 85.055 35.605 118.681 66.264 8.901 7.912 14.836 7.912 22.748-1.978 22.747-23.736 47.472-46.484 71.209-69.231 71.209-73.187 71.209-167.143 0-239.342-22.748-24.725-47.473-47.472-70.22-71.209-8.901-9.89-14.836-9.89-24.726 0-32.637 30.66-69.23 55.385-113.736 64.286-5.934.99-12.858.99-22.748 2.967 28.682-39.56 51.43-78.132 46.484-125.604-4.945-45.495-27.692-81.1-59.34-114.726-33.627 35.604-56.375 72.198-59.342 119.67-3.956 45.495 18.792 83.078 47.473 121.65-9.89-.99-17.802-.99-23.736-3.957-38.572-7.912-71.21-27.692-101.869-52.417-25.714-22.748-26.703-22.748-49.45.989-21.759 21.758-44.506 43.516-64.287 66.264-40.55 47.472-62.307 100.879-36.593 162.198zm60.33 63.297c64.286-76.154 64.286-151.32 3.956-225.495 1.978-.99 2.967-2.967 3.956-3.956 11.868 2.967 24.725 4.945 36.593 8.9 53.407 18.792 94.946 55.385 131.54 96.924 2.966 3.956 2.966 13.846.988 16.813-42.527 49.451-90.989 90-157.253 105.825-3.956 0-8.901 0-19.78.989zm277.913-105.825c-1.978-3.956-1.978-11.868 0-14.835 43.516-51.429 91.978-92.967 159.231-107.802h12.857c-60.33 107.802-60.33 114.725 0 228.462-7.912-.99-12.857-.99-19.78-1.978-63.297-16.813-109.78-56.374-152.308-103.847z" style="fill:#000;fill-opacity:1;fill-rule:nonzero;stroke:none;"/>
</svg>
