<svg xmlns="http://www.w3.org/2000/svg" viewBox="0 0 1000 1000"><path d="M440.674 79.157c3.708 14.832 7.416 25.955 7.416 29.663 53.145 208.876 97.64 412.808 153.258 620.448 3.707 17.303 0 23.483-22.248 27.19-55.617 19.776-108.763 33.371-168.089 46.967-13.595 4.944-22.247 4.944-28.427-7.416-66.741-98.876-133.483-196.516-197.752-294.156-9.888-12.36-9.888-22.248-6.18-44.495 28.427-107.527 85.28-201.46 160.674-281.797 33.37-33.37 67.977-63.033 101.348-96.404zM124.27 457.358h7.416c81.573 121.124 160.674 239.775 241.01 355.954-7.415 4.944-17.303 9.888-27.19 9.888-19.776 9.888-42.023 12.36-63.034 18.54-50.674 13.595-46.966 24.718-80.337-28.428-40.786-75.393-60.561-156.965-70.45-234.83-2.471-39.55-2.471-81.573-7.415-121.124zM246.63 868.93c12.359 0 17.303-2.472 27.19-7.415 29.663-9.888 64.27-14.832 96.405-25.955 2.471 0 18.539 0 22.247 6.18 33.37 46.965 61.797 95.168 93.932 142.134v11.123c-93.932-11.123-170.561-53.146-239.775-126.067zm160.673-40.786c13.596-4.944 22.247-9.888 37.079-14.832 45.73-9.887 93.932-23.483 143.37-37.078 27.191-4.944 37.079 3.708 30.899 32.135-7.416 24.719-13.596 46.966-22.247 70.449l-27.191 91.46c-6.18 24.72-50.674 28.427-63.034 13.596-33.37-46.966-65.505-98.876-95.168-148.314-3.708 0-3.708-2.472-3.708-7.416zM444.382 8.708c3.708 0 3.708 0 9.887-3.708 16.068 8.652 23.483 17.303 35.843 23.483C591.46 108.82 680.448 200.28 742.246 309.044c8.652 12.36 8.652 32.135 8.652 40.787-37.079 129.774-72.921 249.662-113.708 373.257 0 11.124-3.708 14.831-3.708 21.011h-8.651C563.033 501.853 506.179 255.9 444.38 8.708zm143.37 966.514c8.652-40.786 23.483-86.517 37.079-133.483 0 4.944 3.707 4.944 3.707 4.944 8.652 29.663 19.776 61.798 23.484 95.168 0 2.472-3.708 14.832-7.416 14.832-16.068 9.887-33.37 13.595-53.146 22.247 0-3.708-3.708-3.708-3.708-3.708zm56.854-198.988c3.708-8.652 7.416-19.775 17.303-19.775l197.752-55.618h16.068c-48.202 98.876-108.764 177.977-203.932 241.01-9.888-29.662-13.596-56.853-19.775-80.336-7.416-28.427-23.484-58.09-7.416-85.281zm7.416-32.135c42.022-152.022 85.28-295.392 127.303-431.347 6.18-3.708 6.18-3.708 11.123-3.708 0 8.652 3.708 22.247 8.652 32.135 38.314 106.292 53.146 207.64 38.314 321.347-4.943 18.54-9.887 34.607-34.606 38.315-44.495 9.887-93.933 22.247-150.786 43.258z"/></svg>