<svg xmlns="http://www.w3.org/2000/svg" viewBox="0 0 1000 1000"><path d="M500.496 5C223.572 5 5 229.506 5 500.002c0 276.43 224.506 495.001 495.002 495.001 276.43 0 495.001-224.506 495.001-495.001C995.003 226.539 773.464 5 500.496 5zM64.341 481.705C72.253 257.199 263.133 63.352 503.463 63.352c241.32 0 441.1 199.78 436.156 451.98-4.946 230.44-203.737 423.297-444.068 421.32-235.385-1.979-440.111-201.76-431.21-454.947zm38.571 20.77c0 222.527 184.946 398.572 400.551 394.616 210.66-3.956 400.551-178.023 395.606-402.529-4.945-209.671-172.089-392.639-400.55-392.639-218.573 0-395.607 173.078-395.607 400.551zm134.506-32.638 14.836-49.451 35.604-106.814c3.956-12.857 7.912-15.824 16.813-15.824 59.341 0 118.682 2.967 179.012 2.967 31.648 0 59.34-12.857 86.044-26.703 18.791-9.89 28.682-24.725 44.506-29.67l2.967 2.966-30.66 50.44h181.98c17.801 0 15.823 2.967 10.878 20.77l-40.55 138.462c-3.955 12.857-9.89 12.857-18.79 12.857h-97.913c-23.736 0-35.605 7.912-40.55 30.66l-61.319 258.132c-1.978 8.901-2.967 12.857-16.813 12.857H328.408l-11.868-3.956 36.593-102.857c-24.725 13.846-48.462 31.648-70.22 48.461l-2.967-2.967 28.681-45.494 73.187-108.792c6.924-10.88 10.88-20.77 14.836-33.627l14.835-52.417zm39.56-31.649h76.155l-37.583-17.802 126.594-85.055-101.868-4.945c-35.605-1.978-23.736-2.967-37.583 28.681l-6.923 15.824zm91.98 296.705h104.835c13.846 0 16.813-4.946 18.791-12.858l19.78-75.165 23.737-96.923-5.934 3.956-123.627 93.956c-30.66 23.737-25.715 48.462-37.583 87.034zm7.911-126.594c74.176-49.451 138.462-102.858 209.671-154.287l-83.077-33.626c-13.846-5.934-11.868-12.857-7.912-23.736 1.978-5.934 7.912-15.825 11.868-21.759l35.605-52.417-3.956-3.956-148.352 97.912 15.824 7.912 57.363 32.638c8.9 4.945 13.846 8.9 6.923 17.802l-56.374 79.12zm172.089-203.737 60.33 19.78c25.714 8.901 58.352 15.824 90 15.824 3.956 0 13.846-1.978 14.835-5.934l30.66-98.901H596.43c-2.967 0-3.957-.99-6.924 3.956z"/></svg>