<svg xmlns="http://www.w3.org/2000/svg" width="1000" height="1000">
  <path d="M500.496 5c272.968 0 494.507 221.54 494.507 495.002 0 270.495-218.572 495.001-495.001 495.001C229.506 995.003 5 776.431 5 500.002 5 229.506 223.572 5 500.496 5zM120.715 372.913c18.79 73.187 51.428 159.232 84.066 221.54 33.626 64.285 75.165 114.725 122.638 160.22 46.483 44.505 129.56 96.923 180.99 107.802 13.845-4.945 28.68-9.89 46.483-17.802 64.286-28.681 114.726-68.242 159.231-115.715 41.539-44.505 76.154-91.978 102.858-148.352 14.835-31.648 29.67-65.275 43.516-100.88 22.748-68.241 35.605-104.835 18.792-117.692-11.869-10.879-63.297-47.473-86.045-62.308-37.582-24.725-76.154-45.494-114.725-65.275-33.627-16.813-69.231-30.66-103.847-46.483-16.813-7.912-32.637-13.847-49.45-19.78l-15.825-4.946-15.824 4.945c-19.78 5.934-40.55 12.858-59.34 20.77-53.408 22.747-102.858 45.494-153.298 74.176-50.44 28.681-93.956 53.406-126.594 82.088-7.912 6.923-28.681 21.758-33.626 27.692zm37.582 12.857c3.956 10.88 4.945 22.748 8.901 33.627 5.934 19.78 39.56 112.748 50.44 133.517 1.978-57.363 21.758-108.792 58.352-152.308 38.571-46.484 91.978-71.21 154.286-78.132-5.934-6.924-11.868-13.847-16.813-20.77l-3.956-4.945c9.89-3.956 20.77-5.934 28.681-5.934 28.682 0 56.374.99 83.077 7.912 52.418 9.89 105.825 29.67 161.21 60.33 7.912 5.934 11.868 12.857 9.89 20.77 0 2.966.989 3.955 5.934 6.922 3.956 3.957 9.89 7.913 15.824 11.869 7.912 4.945 15.824 10.879 22.748 16.813 39.56 38.571 43.516 95.934 9.89 140.44-15.824 17.802-35.605 26.703-59.341 27.692l2.967-7.912c4.945-10.879 9.89-23.736-5.934-30.66-8.901-4.944-17.802-4.944-27.693 0-19.78 8.902-30.659 42.528-21.758 65.276 3.956 15.824 14.835 26.703 35.605 36.593 19.78 7.912 37.582 9.89 59.34 11.868 9.89 0 62.308-93.956 76.155-126.593 19.78-45.495 36.593-93.957 49.45-145.386.99-3.956 0-3.956-3.956-7.912-7.912-5.934-46.483-35.604-54.396-41.538-52.417-39.56-107.802-66.264-163.187-90.99-32.637-14.835-67.253-28.68-100.88-41.538-27.692-10.88-40.549-5.934-94.945 15.824-53.407 21.758-104.835 46.484-155.275 76.154-43.517 25.715-84.066 53.407-120.66 83.077-2.967 2.967-3.956 3.956-3.956 5.934zm190.88 82.089c.989 26.703 10.88 47.472 27.692 66.264 33.627 37.582 79.122 56.373 139.451 60.33 30.66 1.978 62.308-4.946 95.935-19.78 3.956-1.979 4.945-1.979 6.923-6.924 8.901-23.736 21.758-36.593 40.55-40.55 5.934-1.977 11.868-4.945 15.824-8.9 24.725-35.605 30.66-72.199 16.813-110.77-1.978-5.934-18.791-11.868-14.835-25.715 0-4.945-1.978-7.912-4.945-8.9-6.923-2.968-14.836-6.924-21.759-10.88l-16.813-8.901c-61.319-27.692-125.605-46.484-193.847-44.506 3.956 2.967 7.912 5.934 10.88 9.89 4.945 3.957 8.9 7.913 13.846 13.847-8.901 2.967-10.88 3.956-16.814 5.934-27.692 11.868-50.44 27.692-68.242 46.483-21.758 22.748-31.648 51.43-30.659 83.078zm186.924-107.803c41.538-3.956 76.154 2.967 111.758 22.747 7.912 4.946 1.978 4.946-7.912 10.88-.989.989-1.978.989-1.978.989-7.912 0-12.857 0-17.802 3.956-4.945 5.934-12.857 6.923-21.758 4.945-16.814-3.956-31.649-11.868-45.495-23.737-3.956-2.967-7.912-6.923-16.813-19.78z" style="fill:#000;fill-opacity:1;fill-rule:nonzero;stroke:none;"/>
</svg>
