<?xml version="1.0" encoding="UTF-8"?><svg id="a" xmlns="http://www.w3.org/2000/svg" viewBox="0 0 1000 1000"><path d="M758.68,681.986c-20.782-36.173-41.568-72.344-62.459-108.453-28.75-49.694-57.652-99.3-86.375-149.009-17.504-30.293-34.791-60.712-52.181-91.071-6.131-10.703-12.128-21.488-18.498-32.047-2.448-4.057-2.542-7.463,.459-11.043,.573-.683,.976-1.505,1.486-2.242,10.232-14.782,12.239-30.478,5.394-47.234-6.501-15.912-18.441-25.858-34.709-30.089-14.058-3.657-27.207-.602-39.978,6.741-21.221,12.203-32.01,43.611-15.872,68.066,10.284,15.585,24.593,24.577,43.601,25.072,3.774,.098,6.427,1.532,8.329,4.659,1.049,1.724,2.184,3.398,3.188,5.148,27.036,47.063,54.009,94.163,81.103,141.192,20.264,35.173,40.731,70.23,61.018,105.389,20.851,36.135,41.6,72.329,62.367,108.513,1.178,2.053,2.112,4.247,3.722,7.517-122.719,.385-244.201,.775-365.684,1.14-23.556,.071-47.113,.049-70.669,.02-.804-.001-1.607-.552-3.23-1.147,1.028-2.306,1.622-3.981,2.478-5.508,13.378-23.869,26.732-47.751,40.212-71.563,12.927-22.834,26.057-45.552,38.979-68.389,11.923-21.073,23.64-42.263,35.535-63.352,12.007-21.288,24.067-42.547,36.236-63.743,2.238-3.898,3.331-7.922,2.555-12.23-1.124-6.245-4.095-11.614-10.291-13.933-6.333-2.369-11.97-.399-16.282,4.766-2.143,2.567-4.15,5.308-5.815,8.202-9.055,15.739-17.946,31.572-26.966,47.332-14.592,25.495-29.284,50.933-43.856,76.44-23.255,40.704-46.449,81.443-69.662,122.171-8.886,15.59-17.475,31.358-26.725,46.729-6.497,10.797-2.293,22.596,8.429,26.616,3.658,1.372,7.783,2.103,11.695,2.107,73.143,.07,146.286-.004,219.429-.069,86.829-.077,173.658-.161,260.488-.29,5.599-.008,11.253-.014,16.785-.75,11.552-1.536,17.265-12.517,12.259-23.107-2.012-4.256-4.151-8.468-6.495-12.549ZM498.586,279.239c-10.364-.298-19.535-9.561-19.281-19.587,.319-12.577,10.068-19.912,20.573-19.11,13.784-.594,18.818,10.482,18.985,18.992,.216,11.01-9.263,20.022-20.278,19.705Zm48.608,199.461c-5.49-.628-10.528-1.205-16.032-1.836,.263-1.558,.194-2.905,.715-3.96,4.266-8.636,8.638-17.219,12.988-25.813,.707-1.396,1.248-2.943,2.225-4.124,3.184-3.847,8.14-3.327,10.467,1.131,1.028,1.97,1.588,4.186,2.333,6.3,7.847,22.252,16.495,44.176,29.646,63.914,5.696,8.549,12.424,16.418,18.798,24.505,1.913,2.426,4.216,4.545,6.895,7.395-2.083,1.996-3.682,3.733-5.485,5.223-10.188,8.423-20.476,16.726-30.619,25.202-3.937,3.29-4.768,3.56-7.948-.733-8.01-10.813-15.788-21.797-23.66-32.713-3.936-5.458-7.98-10.841-11.766-16.4-2.251-3.306-5.086-4.673-9.064-4.578-6.726,.159-13.46-.085-20.19-.04-3.482,.023-6.362-.631-9.073-3.316-4.427-4.385-9.983-4.368-13.794-.69-3.619,3.494-3.767,8.633-.365,12.741,3.248,3.923,9.416,4.699,13.909,1.07,3.256-2.63,6.657-3.366,10.584-3.285,5.158,.107,10.321,.121,15.48,.029,4.896-.088,8.462,1.807,11.308,5.913,10.475,15.116,21.184,30.071,31.751,45.123,4.448,6.336,4.178,6.208-.916,12.507-5.352,6.619-10.268,13.592-15.333,20.441-2.102,2.843-4.097,5.764-6.761,9.525-2.293-2.563-4.181-4.334-5.669-6.394-8.143-11.274-16.417-22.465-24.162-34.01-3.491-5.204-7.455-7.34-13.809-7.28-30.734,.293-61.473,.133-92.211,.129-2.019,0-4.038-.038-6.057-.05-3.746-.023-6.689-1.597-7.89-5.163-3.074-9.125-6.259-18.242-8.677-27.549-1.552-5.976,.199-7.901,6.865-8.707,10.459-1.266,20.953-2.299,31.454-3.152,10.836-.88,20.72-3.98,28.564-11.796,3.469-3.456,6.79-7.201,9.454-11.286,2.821-4.327,6.693-6.457,11.374-7.642,17.608-4.456,35.179-9.079,52.869-13.186,5.37-1.247,11.074-1.203,16.638-1.428,4.185-.17,4.195,.06,5.163-6.016ZM500,0C223.858,0,0,223.858,0,500s223.858,500,500,500,500-223.858,500-500S776.142,0,500,0Zm317.719,768.492H182.281c-18.464,0-30.335-19.599-21.781-35.963L478.219,124.7c9.194-17.589,34.368-17.589,43.563,0l317.719,607.829c8.553,16.364-3.317,35.963-21.781,35.963Zm-281.049-143.18c2.369,3.315,2.601,5.984,.813,9.787-4.095,8.71-7.472,17.756-11.217,26.634-.906,2.149-2.107,4.174-3.692,7.272-1.901-2.526-3.215-3.963-4.18-5.605-7.725-13.151-15.654-26.193-22.946-39.582-3.506-6.438-7.718-9.428-15.362-9.167-16.86,.576-33.534-1.797-50.111-4.848-7.193-1.324-13.008-4.857-17.724-10.181-3.113-3.515-5.836-7.397-8.518-11.264-1.225-1.768-1.929-3.897-3.522-7.225,3.745-.533,6.09-1.152,8.437-1.158,29.389-.068,58.778,.028,88.166-.111,5.734-.027,9.692,2.074,12.908,6.823,8.803,12.998,17.819,25.854,26.948,38.626Z"/></svg>