<svg xmlns="http://www.w3.org/2000/svg" width="1000" height="1000">
  <path d="M500.496 5C223.572 5 5 229.506 5 500.002c0 276.43 224.506 495.001 495.002 495.001 276.43 0 495.001-224.506 495.001-495.001C995.003 226.539 773.464 5 500.496 5zM81.154 552.914v-5.934c97.913-98.902 196.814-198.792 295.715-299.672 47.473 46.484 90.99 90 134.506 134.506 43.517-46.483 88.023-89.01 129.561-133.517A1406150.283 1406150.283 0 0 1 936.652 546.98c-53.407 52.418-107.803 106.813-162.199 162.198-38.571-39.56-81.099-84.066-124.616-126.594-47.472 46.484-90 90-135.495 135.495-45.494-48.461-87.033-91.978-131.539-136.484-45.494 46.484-88.022 90.99-132.527 136.484-33.627-34.615-64.286-65.275-94.946-94.945-24.725-23.736-49.45-47.473-74.176-70.22zm77.143-2.967a3776.688 3776.688 0 0 1 89.011 89.011c30.66-29.67 62.308-62.308 90-90-29.67-28.682-60.33-61.319-89.01-89.011-29.67 29.67-60.33 61.318-90 90zM290.825 416.43c28.682 28.681 61.319 61.319 90 89.011 27.693-30.66 60.33-62.308 88.023-90.99-27.693-27.691-58.352-58.35-88.023-89.01-30.659 30.66-61.318 61.319-90 90.989zm133.517 130.55c28.681 29.67 59.34 62.308 88.022 90.99 29.67-29.671 60.33-62.309 90-90.99-28.68-28.682-58.351-60.33-89.01-89.011-29.671 30.659-61.32 63.296-89.012 89.01zm130.55-132.528a4032.646 4032.646 0 0 0 91.978 91.978c28.682-28.681 59.341-59.34 89.012-90-29.67-28.681-62.308-60.33-91.979-90.99-28.681 30.66-59.34 61.32-89.011 89.012zM686.431 546.98c29.67 29.67 61.319 62.308 90 91.978 29.67-30.66 61.32-62.308 90.99-91.978-29.67-28.682-60.33-59.341-90-90-29.671 30.659-63.298 61.318-90.99 90z" style="fill:#000;fill-opacity:1;fill-rule:nonzero;stroke:none;"/>
</svg>
