<svg xmlns="http://www.w3.org/2000/svg" viewBox="0 0 1000 1000"><path d="M744.122,500c0,60.946-22.188,118.48-62.735,163.386l-163.533-165.339,161.67-163.457c41.724,45.196,64.597,103.541,64.597,165.41Zm255.878,0c0,276.142-223.858,500-500,500S0,776.142,0,500,223.858,0,500,0s500,223.858,500,500Zm-109.405,0c0-215.72-174.875-390.595-390.595-390.595S109.405,284.28,109.405,500s174.875,390.595,390.595,390.595,390.595-174.875,390.595-390.595Zm-554.032,181.342c44.914,40.576,102.468,62.78,163.437,62.78s118.524-22.204,163.437-62.78l-163.437-165.244-163.437,165.244Zm324.815-364.507c-44.608-39.41-101.333-60.957-161.377-60.957s-116.769,21.547-161.377,60.957l161.377,163.16,161.377-163.16Zm-340.902,17.755c-41.724,45.196-64.597,103.541-64.597,165.41,0,60.946,22.188,118.48,62.735,163.386l163.533-165.339-161.67-163.457Zm540.825,165.41c0,96.507-37.582,187.237-105.823,255.478-68.241,68.241-158.971,105.823-255.478,105.823s-187.237-37.582-255.478-105.823c-68.241-68.24-105.823-158.971-105.823-255.478s37.582-187.237,105.823-255.478,158.971-105.823,255.478-105.823,187.237,37.582,255.478,105.823,105.823,158.971,105.823,255.478Zm-91.79,0c0-148.847-120.664-269.511-269.511-269.511S230.489,351.153,230.489,500s120.664,269.511,269.511,269.511,269.511-120.664,269.511-269.511Z"/></svg>