<svg xmlns="http://www.w3.org/2000/svg" width="1000" height="1000">
  <path d="M318.39 948.699H148.295C79.336 945.25 10.378 890.084 10.378 823.425 5.78 694.703.034 562.533 12.677 436.11 32.215 243.027 181.624 95.917 370.109 57.99c180.44-36.778 368.926 44.823 470.065 203.426 16.09 31.031 29.881 45.972 68.958 37.927 56.316-4.597 99.989 50.57 81.6 105.736-13.791 40.226-41.375 80.451-63.211 118.378-12.643 21.837-25.285 43.674-28.733 65.51C852.816 791.244 694.212 932.608 490.786 948.7c-59.764 4.597-117.229 0-172.395 0zM77.038 785.498c0 66.66 24.136 93.093 90.795 95.392h291.923c166.649 0 311.46-103.437 359.731-263.19 19.538-64.361 41.375-120.677 79.302-174.694 17.24-18.389 40.226-56.316 28.733-67.809-12.643-18.389-42.525 5.747-93.094 29.882-6.896-8.045-9.194-16.09-11.493-24.135C767.768 223.489 617.21 105.11 418.38 118.903c-179.291 12.642-341.343 180.44-341.343 360.88zm201.128-363.18c-26.434-32.18 6.896-52.867 26.434-65.51 31.031-19.538 63.212-42.524 99.99-47.121 59.763-8.045 106.884 43.673 86.197 103.437-19.538 47.121-50.57 91.944-81.6 135.618-4.598 8.045-32.18 8.045-41.375 2.298-6.896-8.045-10.344-29.882-4.598-41.375 13.792-29.881 35.629-57.465 52.868-85.048 5.747-13.791 20.688-27.583 12.643-40.225-12.643-20.688-40.226-5.747-81.6 22.986-21.837 14.94-44.824 44.822-68.959 14.94z" style="fill:#000;fill-opacity:1;fill-rule:nonzero;stroke:none"/>
</svg>
