<svg xmlns="http://www.w3.org/2000/svg" width="1000" height="1000">
  <path d="M994.29 287.284c0 1.024 0 3.072-9.216 12.29-56.326 55.301-112.652 111.627-165.906 166.93-96.266 95.242-190.485 190.484-283.679 283.678l-9.217 8.193c-11.265-14.338-11.265-14.338-1.024-23.555 64.52-65.543 128.014-129.038 191.509-194.58 83.977-82.954 167.954-167.955 251.931-250.908 11.265-11.265 11.265-11.265 25.603-2.048zM5 308.79v-17.41h403.5c7.168 0 15.361-1.024 15.361 6.145 0 9.217-2.048 11.265-12.29 11.265h-274.46zm0-48.133V241.2h416.813c3.072 0 3.072 4.097 2.048 10.241 0 7.169-4.096 9.217-9.217 9.217zm176.147 497.718V352.827c0-9.217 0-11.265 10.241-11.265 8.193 0 7.169 4.096 9.217 8.193v408.62zm48.133 0V352.827c0-9.217 2.048-13.313 9.217-11.265 5.12 0 7.169 0 9.217 4.096v412.717zm251.931-44.037c0-7.169 4.097-10.24 6.145-12.29A93466.485 93466.485 0 0 0 937.965 251.44c4.096-4.096 8.193-12.29 15.361-4.096 7.17 6.144 7.17 7.169 0 16.386-63.494 61.446-124.941 123.917-186.388 186.388-24.578 22.53-48.133 49.157-74.76 74.76-59.398 59.398-119.82 119.82-181.267 179.22-4.097 5.12-10.241 10.24-15.362 17.409 0 0-2.048 2.048-6.145 4.096-2.048-4.096-6.144-6.144-8.193-11.265zm4.097-418.861c-5.12-4.096-5.12-8.193 0-13.313 4.096-4.097 8.193-4.097 11.265 2.048 58.374 57.35 117.773 115.724 176.147 175.123 2.048 2.048 3.072 4.096 5.12 6.144-3.072 3.073-5.12 7.17-9.216 9.217 0 2.049-6.145 0-8.193-2.048-57.35-59.398-116.749-117.773-175.123-177.171zm32.771-48.133c7.17-6.145 10.242-4.097 15.362 0 13.314 16.386 28.675 32.771 45.06 48.133 41.99 41.988 83.978 86.025 126.99 126.99 3.073 2.048 5.121 6.144 7.17 8.193-4.097 4.096-5.121 9.217-9.218 11.265-2.048 2.048-7.168 0-9.217-4.097-9.217-9.217-150.544-150.544-173.074-174.098-10.241-9.217-9.217-9.217-3.073-16.386zm248.86 331.812c-8.194-8.193-8.194-8.193 0-15.362 4.096-4.097 7.168-4.097 11.264 0 58.375 59.398 117.773 116.749 176.148 177.171 9.216 6.145-4.097 20.482-8.193 17.41-4.097-4.097-6.145-8.193-9.217-10.241-56.326-57.35-114.7-113.676-170.003-168.978zm31.747-50.182c7.168-6.145 7.168-6.145 16.385 0 33.796 35.844 69.64 71.688 104.46 107.532 24.578 25.603 50.181 50.181 74.76 74.76 4.096 3.072-10.241 17.41-25.603 1.024-56.326-55.302-112.652-111.628-167.954-166.93-6.145-7.169-8.193-11.265-2.048-16.386z" style="fill:#000;fill-opacity:1;fill-rule:nonzero;stroke:none;"/>
</svg>
