<svg xmlns="http://www.w3.org/2000/svg" width="1000" height="1000">
  <path d="M435.264 995c1.308-36.618 1.308-47.08 1.308-54.927v-367.49c0-54.927 0-66.698 61.466-66.698h219.71c32.695 0 49.696-6.539 49.696-49.696 0-37.926-17.001-56.235-61.466-56.235h-207.94c-61.466 0-61.466 0-61.466-64.082V186.783c0-64.082 11.77-74.544 61.466-74.544h333.488c35.31 0 56.235-7.847 56.235-45.773C887.761 23.31 866.837 5 823.68 5H398.646c-61.466 0-61.466 7.847-61.466 70.62v253.713c0 62.774-17.002 70.621-70.621 70.621H156.704c-44.465 0-44.465 28.771-44.465 56.235 0 35.31 11.77 49.696 44.465 49.696h109.855c53.62 0 70.62 11.77 70.62 73.237v289.023C326.718 958.382 392.108 976.692 435.265 995z" style="fill:#000;fill-opacity:1;fill-rule:nonzero;stroke:none"/>
</svg>
