<svg width="32" height="32" viewBox="0 0 32 32" fill="none" xmlns="http://www.w3.org/2000/svg">
<path d="M9.24525 0.0639648L2.78125 6.52797H8.02925C8.73325 3.96797 11.4852 0.543965 12.3172 0.0639648H9.24525Z" fill="black"/>
<path d="M15.4532 6.52797V0.0639648H13.9812C11.242 2.03516 9.68258 5.19463 9.24525 6.52797H15.4532Z" fill="black"/>
<path d="M16.7012 6.52797H22.9732C21.514 3.04636 19.1439 0.767965 18.1412 0.0639648H16.7012V6.52797Z" fill="black"/>
<path d="M24.1892 6.52797H29.2772L22.7492 0.0639648H19.8692C21.9428 1.95836 23.3892 4.60797 24.1892 6.52797Z" fill="black"/>
<path d="M22.8133 31.9999L29.2773 25.5359L24.0293 25.5359C23.3253 28.0959 20.5733 31.5199 19.7413 31.9999L22.8133 31.9999Z" fill="black"/>
<path d="M16.6053 25.5359L16.6053 31.9999L18.0773 31.9999C20.8165 30.0287 22.376 26.8692 22.8133 25.5359L16.6053 25.5359Z" fill="black"/>
<path d="M15.3573 25.5359L9.08535 25.5359C10.5445 29.0175 12.9147 31.2959 13.9173 31.9999L15.3573 31.9999L15.3573 25.5359Z" fill="black"/>
<path d="M7.86935 25.5359L2.78135 25.5359L9.30935 31.9999L12.1893 31.9999C10.1157 30.1055 8.66935 27.4559 7.86935 25.5359Z" fill="black"/>
<path d="M6.74919 22.1281C7.19719 22.1281 7.63985 22.0747 8.07719 21.9681C8.51452 21.8614 8.90919 21.6694 9.26119 21.3921C9.61319 21.1041 9.87985 20.7521 10.0612 20.3361C10.2532 19.9201 10.3492 19.4881 10.3492 19.0401H8.38119C8.38119 19.2961 8.30119 19.5361 8.14119 19.7601C7.98119 19.9841 7.77319 20.1387 7.51719 20.2241C7.26119 20.3094 7.00519 20.3521 6.74919 20.3521C6.52519 20.3521 6.30652 20.3201 6.09319 20.2561C5.87985 20.1921 5.69319 20.0801 5.53319 19.9201C5.37319 19.7601 5.25585 19.5734 5.18119 19.3601C5.11719 19.1467 5.08519 18.9281 5.08519 18.7041V13.5361C5.08519 13.3121 5.11719 13.0934 5.18119 12.8801C5.25585 12.6667 5.37319 12.4801 5.53319 12.3201C5.69319 12.1601 5.87985 12.0481 6.09319 11.9841C6.30652 11.9201 6.52519 11.8881 6.74919 11.8881C7.00519 11.8881 7.26119 11.9307 7.51719 12.0161C7.77319 12.1014 7.98119 12.2561 8.14119 12.4801C8.30119 12.6934 8.38119 12.9334 8.38119 13.2001H10.3492C10.3492 12.7521 10.2532 12.3201 10.0612 11.9041C9.87985 11.4881 9.61319 11.1414 9.26119 10.8641C8.90919 10.5761 8.51452 10.3787 8.07719 10.2721C7.63985 10.1654 7.19719 10.1121 6.74919 10.1121C6.42919 10.1121 6.10919 10.1387 5.78919 10.1921C5.47985 10.2347 5.18119 10.3254 4.89319 10.4641C4.60519 10.5921 4.34385 10.7627 4.10919 10.9761C3.87452 11.1894 3.67719 11.4347 3.51719 11.7121C3.36785 11.9894 3.26119 12.2827 3.19719 12.5921C3.14385 12.9014 3.11719 13.2161 3.11719 13.5361V18.7041C3.11719 19.0241 3.14385 19.3387 3.19719 19.6481C3.26119 19.9574 3.36785 20.2507 3.51719 20.5281C3.67719 20.8054 3.87452 21.0507 4.10919 21.2641C4.34385 21.4774 4.60519 21.6534 4.89319 21.7921C5.18119 21.9201 5.47985 22.0054 5.78919 22.0481C6.10919 22.1014 6.42919 22.1281 6.74919 22.1281Z" fill="black"/>
<path d="M15.9999 22.1281C16.3839 22.1281 16.7626 22.0907 17.1359 22.0161C17.5093 21.9414 17.8613 21.8081 18.1919 21.6161C18.5226 21.4134 18.8053 21.1627 19.0399 20.8641C19.2746 20.5547 19.4346 20.2134 19.5199 19.8401C19.6159 19.4667 19.6639 19.0881 19.6639 18.7041V13.5361C19.6639 13.1521 19.6159 12.7734 19.5199 12.4001C19.4346 12.0267 19.2746 11.6907 19.0399 11.3921C18.8053 11.0827 18.5226 10.8321 18.1919 10.6401C17.8613 10.4374 17.5093 10.2987 17.1359 10.2241C16.7626 10.1494 16.3839 10.1121 15.9999 10.1121C15.6159 10.1121 15.2373 10.1494 14.8639 10.2241C14.4906 10.2987 14.1386 10.4374 13.8079 10.6401C13.4773 10.8321 13.1946 11.0827 12.9599 11.3921C12.7253 11.6907 12.5599 12.0267 12.4639 12.4001C12.3786 12.7734 12.3359 13.1521 12.3359 13.5361V18.7041C12.3359 19.0881 12.3786 19.4667 12.4639 19.8401C12.5599 20.2134 12.7253 20.5547 12.9599 20.8641C13.1946 21.1627 13.4773 21.4134 13.8079 21.6161C14.1386 21.8081 14.4906 21.9414 14.8639 22.0161C15.2373 22.0907 15.6159 22.1281 15.9999 22.1281ZM15.9999 20.3521C15.7759 20.3521 15.5519 20.3201 15.3279 20.2561C15.1146 20.1921 14.9226 20.0801 14.7519 19.9201C14.5919 19.7601 14.4746 19.5734 14.3999 19.3601C14.3359 19.1467 14.3039 18.9281 14.3039 18.7041V13.5361C14.3039 13.3121 14.3359 13.0934 14.3999 12.8801C14.4746 12.6561 14.5919 12.4694 14.7519 12.3201C14.9226 12.1601 15.1146 12.0481 15.3279 11.9841C15.5519 11.9201 15.7759 11.8881 15.9999 11.8881C16.2239 11.8881 16.4426 11.9201 16.6559 11.9841C16.8799 12.0481 17.0719 12.1601 17.2319 12.3201C17.4026 12.4694 17.5199 12.6561 17.5839 12.8801C17.6586 13.0934 17.6959 13.3121 17.6959 13.5361V18.7041C17.6959 18.9281 17.6586 19.1467 17.5839 19.3601C17.5199 19.5734 17.4026 19.7601 17.2319 19.9201C17.0719 20.0801 16.8799 20.1921 16.6559 20.2561C16.4426 20.3201 16.2239 20.3521 15.9999 20.3521Z" fill="black"/>
<path d="M21.6827 22.0001H25.2667C25.6614 22.0001 26.0454 21.9627 26.4187 21.8881C26.8027 21.8134 27.1654 21.6801 27.5067 21.4881C27.848 21.2854 28.136 21.0294 28.3707 20.7201C28.6054 20.4001 28.7707 20.0534 28.8667 19.6801C28.9627 19.2961 29.0107 18.9067 29.0107 18.5121C29.0107 17.2427 28.456 16.3574 27.3467 15.8561C28.1254 15.3547 28.5147 14.5761 28.5147 13.5201C28.5147 13.1681 28.4774 12.8214 28.4027 12.4801C28.328 12.1387 28.1947 11.8187 28.0027 11.5201C27.8107 11.2214 27.5654 10.9761 27.2667 10.7841C26.9787 10.5814 26.6587 10.4427 26.3067 10.3681C25.9654 10.2827 25.6187 10.2401 25.2667 10.2401H21.6827V22.0001ZM25.2667 15.0241H23.6507V12.0161H25.2667C25.4587 12.0161 25.64 12.0534 25.8107 12.1281C25.992 12.2027 26.136 12.3147 26.2427 12.4641C26.36 12.6134 26.44 12.7841 26.4827 12.9761C26.5254 13.1574 26.5467 13.3387 26.5467 13.5201C26.5467 13.7121 26.5254 13.8987 26.4827 14.0801C26.44 14.2614 26.36 14.4321 26.2427 14.5921C26.136 14.7414 25.992 14.8534 25.8107 14.9281C25.64 14.9921 25.4587 15.0241 25.2667 15.0241ZM23.6507 20.2241V16.8161H25.2667C25.5014 16.8161 25.7307 16.8481 25.9547 16.9121C26.1894 16.9761 26.392 17.0881 26.5627 17.2481C26.7334 17.4081 26.856 17.6001 26.9307 17.8241C27.0054 18.0481 27.0427 18.2774 27.0427 18.5121C27.0427 18.7467 27.0054 18.9761 26.9307 19.2001C26.856 19.4241 26.7334 19.6214 26.5627 19.7921C26.392 19.9521 26.1894 20.0641 25.9547 20.1281C25.7307 20.1921 25.5014 20.2241 25.2667 20.2241H23.6507Z" fill="black"/>
</svg>
