<?xml version="1.0" encoding="utf-8"?>
<!-- Generator: Adobe Illustrator 26.0.1, SVG Export Plug-In . SVG Version: 6.00 Build 0)  -->
<svg version="1.1" xmlns="http://www.w3.org/2000/svg" xmlns:xlink="http://www.w3.org/1999/xlink" x="0px" y="0px"
	 viewBox="0 0 1000 1000" style="enable-background:new 0 0 1000 1000;" xml:space="preserve">
<g id="Layer_1">
</g>
<g id="Layer_3">
</g>
<g id="Layer_2">
	<g>
		<path d="M36.6,583.9l281.1-275.8c54.6-54.4,126.7-83.5,203.4-83.5c97.1,0,182.2,47.2,233.9,119.8c0.9,0.9,1.8,1.8,2.8,2.7
			c19.4,22.7,48.1,36.3,78.6,36.3c56.4,0,102.6-45.4,102.6-100.7c0-31.8-21.3-61.7-21.3-61.7C825.4,96.7,677.4,23.2,521.2,23.2
			c-135.9,0-266.3,56.3-359.7,153.3C68.1,275.4,21.8,404.2,31.1,539.4C32,554.8,33.9,569.4,36.6,583.9z"/>
		<path d="M983.5,561.2c-14.8-18.1-36.1-29-60.1-29H626.6c-0.9,0-0.9,0-1.8,0c-21.3,0-40.7,8.2-55.5,22.7
			c-14.8,14.5-22.2,34.5-21.3,54.4c0.9,39,38.8,72.6,81.4,72.6h20.3c16.6,0,30.5,9.1,37,24.5c6.5,14.5,2.8,31.8-8.3,42.6
			L442.6,980.4c14.8,2.7,29.6,4.5,45.3,5.4c235.8,15.4,451.2-135.2,510.4-359.3C1002.9,603.8,998.3,579.3,983.5,561.2z"/>
		<path d="M493.4,611.1c-0.9-35.4,12-68,37-93.5c24-24.5,55.5-38.1,89.7-39c0.9,0,2.8,0,3.7,0h127.6
			c-12.9-113.4-112.8-202.3-233-201.4c-41.6,0.9-81.4,14.5-115.6,37.2l-2.8,1.8c-29.6,19.1-57.3,41.7-82.3,66.2
			C227.1,471.4,6.1,688.2,6.1,688.2C-7.7,701.8,0.6,739,45,720.9l41.6-15.4c43.5-11.8,75.8-9.1,99.9,22.7
			c20.3,26.3,7.4,69.9,7.4,69.9c-9.2,30.8,14.8,51.7,40.7,41.7l16.6-6.4c37.9-13.6,79.5,1.8,100.8,40.8c8.3,15.4,9.2,34.5,4.6,50.8
			c-6.5,23.6,24,40.8,41.6,23.6l217.3-214.1C549.8,728.1,495.3,674.6,493.4,611.1z M393.6,466.8c-12,31.8-36.1,51.7-53.6,45.4
			c-17.6-6.3-23.1-37.2-11.1-69c12-31.8,36.1-51.7,53.6-45.4C400,404.2,405.6,435.1,393.6,466.8z M462,512.2
			c-17.6-6.3-23.1-37.2-11.1-69c12-31.8,36.1-51.7,53.6-45.4c17.6,6.4,23.1,37.2,11.1,69C503.6,498.6,479.6,518.5,462,512.2z"/>
	</g>
</g>
</svg>
