<svg xmlns="http://www.w3.org/2000/svg" viewBox="0 0 1000 1000"><path d="M5 500.496C5 225.55 226.54 5 500.496 5c272.968 0 494.507 222.528 494.507 494.507 0 274.946-222.528 495.496-494.507 495.496C225.55 995.003 5 772.475 5 500.496zM207.748 738.85c0 27.692 54.396 36.593 54.396-4.945 1.978-75.166 1.978-151.32 1.978-226.485 0-75.165 0-150.33 1.978-224.506 0-37.583-56.374-33.626-58.352 0zm181.979-69.231c0 37.582 55.384 39.56 55.384-4.945V386.76c0-40.55-55.384-38.572-55.384-4.946zm180-80.11c0 24.725 3.956 40.549 28.682 40.549 20.769 0 25.714-14.835 25.714-40.55V457.97c0-25.715-10.88-36.594-24.725-36.594-19.78 0-29.67 10.88-29.67 40.55zm181.979 151.319c0 35.604 55.385 36.593 55.385 0v-461.87c0-34.616-55.385-33.627-55.385 0z"/></svg>