<svg xmlns="http://www.w3.org/2000/svg" width="1000" height="1000">
  <path d="M500.496 5C223.572 5 5 229.506 5 500.002c0 276.43 224.506 495.001 495.002 495.001 276.43 0 495.001-224.506 495.001-495.001C995.003 226.539 773.464 5 500.496 5zM144.451 709.178v-411.43C261.155 232.473 381.814 161.264 493.573 95c4.945-1.978 8.901-.989 11.868 0 20.77 12.857 238.353 139.451 349.122 202.748v411.43C737.86 774.453 619.178 845.662 505.441 911.926c-4.945 1.978-7.912.99-11.868 0-27.692-13.846-116.704-68.242-349.122-202.748zm144.396-102.857c0 19.78 2.967 22.747 17.802 32.637 56.374 30.66 109.781 62.308 162.199 92.967 22.747 11.869 22.747 11.869 22.747-10.879V528.19c0-17.803 1.978-26.704 19.78-35.605 60.33-35.604 115.715-64.286 174.067-102.857 13.846-8.902 17.802-12.858 5.934-19.78-64.286-31.65-118.682-69.232-173.078-97.913-15.824-8.901-20.769-7.912-34.615 0-59.34 34.615-120.66 66.264-177.034 100.88-14.835 7.911-17.802 12.856-17.802 28.68z" style="fill:#000;fill-opacity:1;fill-rule:nonzero;stroke:none;"/>
</svg>
