<svg xmlns="http://www.w3.org/2000/svg" viewBox="0 0 1000 1000"><path d="M570.894 994.997h-451.71V302.376C119.184 124.2 257.206 5 434.126 5h446.69v668.781c0 7.529-3.764 15.057-3.764 23.84-23.84 149.316-170.646 297.376-306.158 297.376zM292.339 816.823c0 11.293 8.783 16.312 18.821 16.312h220.836c143.042-5.02 225.855-161.863 150.57-287.338-36.388-57.718-92.851-87.832-161.862-87.832-50.19 0-81.56-36.388-84.069-79.05-2.51-45.17 31.37-85.323 84.069-85.323 66.501 0 133.003 16.312 194.486 51.445 2.51 5.02 7.528 7.529 17.566 12.548V194.467c0-27.604 0-27.604-26.35-27.604h-219.58c-16.312 0-26.35 0-42.662 5.019-92.852 16.311-159.353 104.144-151.825 193.231 8.783 101.635 82.814 173.155 183.194 178.174 53.954 0 87.832 35.133 85.323 85.323 0 45.171-33.879 76.54-90.342 76.54-52.7 0-102.89-11.293-150.57-33.878-8.784-6.274-16.312-8.783-22.586-13.802 0 7.528-5.019 7.528-5.019 13.802z"/></svg>