<svg xmlns="http://www.w3.org/2000/svg" width="1000" height="1000">
  <path d="M5 500.496C5 225.55 226.54 5 500.496 5c272.968 0 494.507 222.528 494.507 494.507 0 274.946-222.528 495.496-494.507 495.496C225.55 995.003 5 772.475 5 500.496zm184.946-219.561c-21.759 12.857-15.825 49.45 6.923 54.396 41.538 7.912 53.407 26.703 68.242 61.319 11.868 26.703 26.703 60.33 46.483 91.978 80.11 168.132 45.495 141.429 221.54 141.429h114.725c19.78 0 46.484-11.868 53.407-26.703 46.484-65.275 80.11-141.43 119.67-206.704 13.847-26.704 0-46.484-34.615-53.407h-421.32c-34.615 0-56.374-7.912-73.187-41.539-14.835-27.692-75.165-32.637-101.868-20.769zm186.923 450.99c0 39.561 27.693 66.264 69.231 66.264 40.55 0 60.33-18.79 60.33-60.33 0-39.56-26.703-66.263-60.33-66.263-41.538 0-69.23 26.703-69.23 60.33zm202.748 5.935c0 33.626 26.704 60.33 68.242 60.33 38.572 0 65.275-26.704 65.275-66.265 0-33.626-26.703-60.33-65.275-60.33-34.615 0-68.242 26.704-68.242 66.265z" style="fill:#000;fill-opacity:1;fill-rule:nonzero;stroke:none;"/>
</svg>
