<svg xmlns="http://www.w3.org/2000/svg" viewBox="0 0 1000 1000"><path d="M834.85 864.07c-136.936 128.06-322.052 161.026-500.83 103.97C226.247 941.412 76.632 812.084 76.632 725.865c69.736 68.468 223.154 149.615 325.856 162.294 67.2 10.144 128.06 0 190.189-27.894 84.95-35.502 153.418-88.755 213.01-163.562 58.325-83.683 72.272-187.653 45.646-280.211-8.875-29.162-81.147-162.294-100.166-192.725 50.717 26.627 174.974 71.004 211.743 262.46C993.34 637.112 947.695 760.1 834.85 864.07zM33.523 346.757c15.215-92.558 69.735-161.026 131.864-224.422C297.25 9.489 514.066-26.012 692.843 33.58 796.813 67.814 908.39 195.874 908.39 238.984c-11.412-7.608-13.948-11.412-25.359-19.02-82.415-63.395-174.973-107.773-282.747-122.988-65.932-5.072-130.596 3.804-187.652 29.162-86.22 35.502-158.49 84.951-213.011 158.49-48.182 67.2-62.129 143.276-48.182 224.423 15.216 125.525 55.79 173.706 88.755 242.174C138.76 725.866 79.168 662.47 48.738 548.357c-20.287-67.2-26.627-131.864-15.215-201.6zm235.833 16.483c13.947-44.377 54.521-74.807 102.702-74.807h305.57c22.822 0 30.43 8.875 20.286 30.43-16.483 44.377-54.52 73.54-97.63 73.54h-7.607c-69.736 0-58.325-10.144-58.325 58.324v152.15c0 64.665-38.037 110.31-92.558 122.989-26.627 6.34-29.162 0-29.162-24.09 5.071-72.272 11.411-185.117 19.019-285.283 0-19.02-5.072-24.09-19.02-24.09H288.376c-19.019 0-24.09-6.34-19.019-29.163z"/></svg>