<svg xmlns="http://www.w3.org/2000/svg" viewBox="0 0 1000 1000"><path d="M5 500.002v.395-.395c.099-89.506 22.55-172.682 67.253-249.726 44.209-74.473 103.55-133.814 178.023-178.023C327.419 27.45 410.694 5 500.002 5c89.308 0 172.583 22.45 249.726 67.253C824.2 116.462 883.54 175.803 927.75 250.276c44.803 77.143 67.253 160.418 67.253 249.726 0 89.308-22.45 172.583-67.253 249.726C883.541 824.2 824.2 883.54 749.728 927.75c-77.143 44.803-160.418 67.253-249.726 67.253-89.308 0-172.583-22.45-249.726-67.253-74.473-44.209-133.814-103.55-178.023-178.022C27.55 672.684 5.099 589.508 5 500.002zm195.825-14.341c0 6.923 2.967 12.857 7.912 17.802s10.88 6.923 16.813 6.923h-.989l37.583 111.759c-3.956 1.978-5.934 4.945-6.923 7.912-2.967 3.956-3.956 7.912-3.956 11.868 0 6.923 1.978 12.857 7.912 17.802 4.945 4.946 10.879 6.924 16.813 6.924 2.967 0 5.934 0 8.901-.99 1.978-.988 2.967-.988 4.945-2.967l96.924 69.231-.99 1.979c0 .989-.989 2.967-.989 4.945 0 13.846 12.858 24.725 24.726 24.725 5.934 0 10.879-.99 14.835-4.945 3.956-3.956 6.923-6.923 8.901-11.868h116.704c.989 4.945 3.956 8.9 6.923 11.868 3.956 2.967 9.89 4.945 16.813 4.945 12.857 0 26.704-9.89 22.748-32.638l109.78-78.132L758.63 698.3c-1.978.989-1.978 2.967-2.967 5.934-.99 2.967-.99 4.945-.99 8.901 0 8.901 2.968 16.813 9.891 23.737 6.923 6.923 14.835 9.89 23.736 9.89s16.814-2.967 24.726-9.89c6.923-6.924 9.89-14.836 9.89-23.737 0-8.9-2.967-17.802-9.89-23.736-7.912-6.923-14.836-10.88-23.737-10.88-7.912 0-13.846 2.968-20.769 6.924l-52.418-45.495 41.539-128.572h-.99c6.924 0 12.858-1.978 17.803-6.923 3.956-4.945 6.923-10.879 6.923-17.802s-2.967-12.857-6.923-17.802c-4.945-4.945-10.879-6.923-17.802-6.923h.989l-36.594-111.759c3.956-3.956 9.89-5.934 9.89-19.78 0-16.814-14.835-29.67-38.571-19.78l-95.934-69.232v-1.978l.989-4.945c0-5.934-1.978-12.857-7.913-17.802-3.956-4.945-9.89-6.923-15.824-6.923-6.923 0-12.857 1.978-16.813 4.945-2.967 1.978-5.934 6.923-6.923 10.88H433.243c-1.978-3.957-3.956-5.935-8.9-10.88-3.957-3.956-8.902-4.945-14.836-4.945-5.934 0-11.868 1.978-16.813 6.923-5.934 4.945-7.913 11.868-7.913 17.802 0 1.978.99 3.956.99 4.945l.989 1.978-96.924 69.231c-.989-.989-2.967-1.978-4.945-2.967-2.967-.989-5.934-1.978-8.901-1.978-5.934 0-11.868 2.967-16.813 7.912-5.934 4.946-7.912 10.88-7.912 16.814 0 4.945.989 8.9 3.956 12.857.989 2.967 4.945 4.945 7.912 7.912l.989.989h-2.967l-35.605 109.78c-5.934 0-11.868 1.979-16.813 6.924-4.945 4.945-7.912 9.89-7.912 16.813zm39.56 20.77c1.978-1.979 3.956-2.968 4.945-4.946l3.957-6.923h14.835c.989 2.967 2.967 5.934 4.945 8.901 1.978 2.967 5.934 4.945 9.89 6.923h-.99l-6.922 90zm0-40.55 30.66-92.968 6.923 90.99c-2.967.989-6.923 2.967-8.901 5.934-1.978 2.967-3.956 5.934-4.945 8.9h-14.835c-.99-2.966-1.979-4.944-3.957-6.922-.989-1.978-2.967-2.967-4.945-5.934zm45.495 154.286 7.912-104.836 39.56 78.132c-1.977 1.979-2.966 3.957-3.955 5.935-1.978 2.967-2.967 6.923-2.967 9.89v2.967L293.792 626.1c0-1.978-1.978-1.978-2.967-3.956zm0-267.034 4.945-2.967c.99 0 2.967-1.978 3.956-2.967l31.649 13.846v2.967c0 1.978.989 6.923 2.967 9.89.989 1.978 1.978 3.956 3.956 5.934L294.78 457.97zm13.846 296.704v-1.978c0-.989.99-2.967.99-4.945v-1.978l32.637-13.846c1.978 1.978 4.945 2.967 6.923 3.956 3.956 1.978 7.912 2.967 10.879 2.967h1.978l39.56 84.066zm0-324.396v-1.978l91.088-65.176-37.681 81h-.989c-2.967 0-7.912 0-11.868 1.978-1.978 1.978-4.945 2.967-5.934 4.945l-33.627-13.846v-1.978c0-1.978-.989-3.956-.989-4.945zm4.945 178.022 3.956-3.956 1.978-4.945h76.155c0 3.956 1.978 6.923 5.934 9.89l-39.561 81.1h-4.945zm0-33.626 43.517-82.088h6.923l37.583 81.099c-2.967 1.978-5.934 5.934-5.934 9.89h-76.155l-1.978-4.945zm64.286 158.242c.99-.989 1.978-2.967 1.978-3.956l2.967-3.956 92.968 12.857c0 .99.989 2.967 1.978 3.956 0 1.978.989 2.967 2.967 4.945l-8.901 9.89-46.484 64.286-.99-.989c-1.977-.989-3.955-.989-5.933-.989h-1.978zm0-35.605 37.583-82.088c.989.99 6.923.99 7.912 0l58.352 100.88-1.978 1.978-1.978 2.967-92.968-11.868c0-1.978-1.978-3.956-2.967-6.923-.989-1.978-2.967-3.957-3.956-4.946zm0-211.649 3.956-5.934c.99-1.978 2.967-3.956 2.967-5.934l92.968-12.857c.989 3.956 1.978 4.945 3.956 5.934l-58.352 99.89c-.99-.988-4.945-.988-7.912 0zm0-34.615 38.572-87.033h1.978c1.978 0 3.956 0 5.934-.99l.989-.988 55.385 74.176c-1.978.989-4.945 5.934-4.945 7.912l-92.968 13.846-2.967-4.945zm21.863-87.952 2.863-2.048v-1.978h-.99zm37.478 244.216c.99-.989 4.945-6.923 4.945-7.912h116.704c0 .99 0 2.967 1.978 3.956l1.978 3.956-57.363 100.88-4.945-.99-3.956.99v1.978zm0-31.648 59.341-101.869h8.901l57.363 101.869-1.978 3.956c-1.978.989-1.978 2.967-1.978 3.956H433.243c0-.99-1.978-7.912-4.945-7.912zm1.978 254.176 53.407-74.176h3.956c1.978.99 4.945.99 7.912 0h2.967l53.407 74.176c0 1.978-.99 1.978-.99 2.967l-.988 2.967H433.243s-3.956-6.923-2.967-5.934zm0-476.705 1.978-1.978.99-3.956h116.703l.989 2.967c0 .99.989 1.978.989 2.967l-54.396 73.188-11.868 1.978zm79.121 113.737 1.978-2.967 1.978-1.978 92.968 11.868c.989 1.978.989 3.956 2.967 5.934 1.978 1.978 2.967 4.945 4.945 5.934l-38.572 81.1h-7.912zm.99 249.232 57.362-100.88 3.956.99 3.066-.792 39.462 81.89c-1.978.99-3.956 2.968-4.945 4.946-.99 2.967-1.978 4.945-1.978 6.923l-93.957 11.868-.989-2.967h-.989zm.988 30.66 1.978-3.957c.99-1.978.99-3.956 1.978-4.945l93.957-12.857 1.978 3.956 2.967 2.967-39.56 86.044-.99.99h-1.978c-.989 0-1.978 0-3.956.988l-1.978.99zm0-310.551 54.396-74.176 1.978.989c1.978.989 2.967.989 3.956.989h.99l2.966-.99 38.572 88.023-4.945 6.923-93.957-13.846c0-3.956-.989-4.945-3.956-7.912zm63.297 179.011.1.198.89-.198zm14.835-5.934 3.957-4.945c.989-.989 1.978-2.967 2.967-4.945h77.143l1.978 4.945c.989.99.989 1.978 2.967 2.967l-44.506 83.077h-4.945zm0-248.242 92.968 67.253-.99 2.967v5.934l-32.637 13.846c-1.978-.99-3.956-2.967-6.923-4.945-2.967-1.978-7.912-1.978-10.879-1.978h-1.978zm.99 461.87 38.571-84.067h1.978c2.967 0 7.912-.989 10.88-1.978 2.966-1.978 5.933-3.956 7.911-5.934l.99-1.978v2.967l38.57 17.802zm0-249.232 37.582-81.1h6.923l43.517 81.1c-1.978 1.978-2.967 3.956-3.956 4.945l-1.978 4.945H596.43zm58.351 124.615 41.539-81.099 6.923 117.693-42.528-17.802.99-1.978v-.99c0-2.966-.99-6.922-1.979-8.9-1.978-2.967-3.956-4.945-4.945-6.924zm0-213.627c4.945-5.934 6.923-10.879 5.934-18.79l33.627-13.847 3.956 2.967c.989.989 1.978 2.967 3.956 2.967l-6.923 104.836zm56.374 128.572c2.967-.989 6.923-2.967 8.901-5.934 1.978-1.978 3.956-4.945 4.945-7.912h14.836c0 1.978 1.978 4.945 2.967 6.923.989 2.967 3.956 2.967 4.945 4.945l-29.67 93.957zm0-45.494 6.923-90 29.67 93.956c-.988 1.978-2.966 2.967-4.944 4.945-1.978 1.978-2.967 4.945-2.967 6.923h-14.836c0-3.956-1.978-6.923-4.945-9.89-2.967-2.967-5.934-4.945-8.9-5.934z"/></svg>