<?xml version="1.0" encoding="UTF-8"?><svg id="a" xmlns="http://www.w3.org/2000/svg" viewBox="0 0 1000 1000"><path d="M811.945,452.429c.524,1.844-.136,3.269-.796,4.139-.566,.754-1.855,2.022-4.055,2.022H192.909c-2.206,0-3.489-1.268-4.06-2.022-.655-.87-1.326-2.295-.796-4.149,19.002-66.588,87.435-221.486,311.949-221.486s292.936,154.898,311.944,221.497Zm-386.63,207.445c0,18.064-11.318,33.834-27.519,38.35-11.501,3.206-23.455,.775-32.794-6.675-9.354-7.45-14.722-18.703-14.722-30.879v-6.014h-21.794v25.787c0,21.732-14.342,40.466-34.11,44.542-12.631,2.63-25.57-.733-35.464-9.158-9.925-8.456-15.616-20.904-15.616-34.159v-27.013h-49.364v28.071c0,18.661,6.909,36.118,18.96,47.916,16.191,15.853,37.367,23.89,62.939,23.89l443.868-.021c47.607-.744,86.374-42.174,86.374-92.364v-7.492H425.315v5.218Zm574.685-159.875c0,276.142-223.858,500-500,500S0,776.142,0,500,223.858,0,500,0s500,223.858,500,500Zm-162.897,138.562c0-8.885-6.95-16.094-15.515-16.094H409.799c-8.57,0-15.514,7.209-15.514,16.094v21.312c0,3.416-1.95,6.538-4.526,7.251-2.762,.786-4.702-.189-5.863-1.111-1.642-1.299-2.587-3.248-2.587-5.344v-22.109c0-8.885-6.944-16.094-15.514-16.094h-52.824c-8.571,0-15.515,7.209-15.515,16.094v41.881c0,6.329-3.924,11.903-9.126,12.972-4.813,.985-8.151-1.121-9.728-2.462-2.716-2.316-4.278-5.7-4.278-9.284v-43.107c0-8.885-6.944-16.094-15.515-16.094h-80.393c-8.571,0-15.515,7.209-15.515,16.094v44.165c0,27.484,10.46,53.48,28.692,71.324,21.834,21.375,50.96,32.671,84.239,32.671h441.565l2.727-.021c64.506-1.006,116.98-56.875,116.98-124.553v-23.586Zm0-94.259c0-8.064-6.537-14.601-14.601-14.601H184.522c-8.064,0-14.601,6.537-14.601,14.601v26.982c0,8.064,6.537,14.601,14.601,14.601H822.502c8.064,0,14.601-6.537,14.601-14.601v-26.982Zm5.794-100.707c-21.009-73.619-96.461-244.852-342.896-244.852S178.104,369.977,157.1,443.586c-3.201,11.233-.995,23.02,6.051,32.367,7.109,9.42,17.954,14.827,29.758,14.827H807.094c11.798,0,22.643-5.407,29.747-14.827,7.052-9.336,9.263-21.134,6.056-32.356Z"/></svg>