<svg xmlns="http://www.w3.org/2000/svg" viewBox="0 0 1000 1000"><path d="M259.803 142.974h2.014c1.007 18.129 3.021 36.257 5.035 56.4l7.05 65.462c2.015 19.136 3.022 40.285 6.043 59.42 4.029 28.2 6.043 55.393 8.057 82.585 2.014 21.15 3.021 41.292 6.043 63.449 1.007 21.15 5.035 43.306 6.043 63.449 3.02 18.128 4.028 33.235 5.035 48.342 0 5.035-1.007 11.078-3.021 12.085-68.485 62.442-134.955 123.876-201.425 185.311-30.214 26.185-59.42 53.378-88.627 81.577-1.007 1.007-4.029 1.007-7.05 1.007 85.606-238.688 170.204-478.384 254.803-719.087zm5.035 5.036h2.014c3.022 8.057 5.036 13.093 8.057 21.15 39.278 111.79 79.563 224.588 119.848 335.372 2.014 8.057 1.007 10.071-4.028 14.1-25.178 20.142-50.357 43.306-76.542 63.449-2.014 2.014-3.021 3.021-6.042 5.035zm1.007-10.071s1.007 0 1.007-1.007l48.342 41.292c55.392 49.349 111.791 98.698 169.197 146.033 15.107 15.107 15.107 15.107 15.107 35.25 0 20.142 0 40.284-1.007 59.42 0 5.035-2.014 9.064-4.028 12.085-29.207 25.178-60.428 51.363-89.635 76.541-1.007 1.008-4.028 1.008-6.042 5.036-44.314-126.898-89.634-250.774-132.94-374.65zm43.307 453.206 89.634-75.535c32.228 88.627 62.441 176.247 96.684 261.853 0 2.014-1.007 2.014-1.007 2.014a1903149.31 1903149.31 0 0 1-185.311-188.332zm94.67-69.492c-4.03-6.043-3.022-9.064 4.028-13.092 28.2-23.164 53.377-48.342 82.584-71.506 4.029-3.022 5.036-4.029 8.057-5.036v344.437c-2.014-3.022-3.021-5.036-4.028-9.064-29.207-82.585-62.442-164.162-90.642-245.739zm96.683-102.727c0-24.17 0-48.342 2.015-73.52 0-3.021 1.007-8.057 3.02-9.064 55.393-49.349 109.777-96.684 162.148-143.011 22.157-18.129 41.292-34.243 59.42-51.364l5.036-4.028c0 1.007 0 1.007 2.014 1.007-43.306 123.876-87.62 246.745-132.94 370.622-11.079-8.057-21.15-15.107-30.214-23.164-22.157-19.136-43.306-38.27-65.463-55.392-3.021-3.021-5.036-6.043-5.036-12.086zm2.015 357.53V431.012c10.07 8.057 19.135 15.107 28.199 24.17l63.449 53.379c5.035 5.035 6.043 7.05 3.021 11.078-30.214 84.598-60.427 166.175-91.648 249.767-1.007 3.021-2.014 6.043-3.021 7.05zm2.014 3.021c34.242-86.613 65.463-175.24 96.684-263.867l90.64 75.535c-62.44 62.441-124.883 126.897-186.317 190.346 0-2.014-1.007-2.014-1.007-2.014zm100.712-273.938c24.171-62.442 45.32-123.876 66.47-184.304 20.143-52.37 38.271-106.755 57.407-160.132 0-2.015 2.014-4.029 3.02-6.043h2.015l-42.3 434.07c-5.035-5.035-7.049-8.057-11.077-9.064-24.171-21.15-47.335-42.299-72.513-61.434-4.029-4.029-5.036-6.043-3.022-13.093zm90.641 73.52c3.022-32.228 5.036-65.463 10.072-98.698 3.021-36.256 7.05-70.499 11.078-106.755 3.021-30.214 6.043-61.435 8.057-92.656 3.021-35.249 7.05-71.505 12.086-106.755 0-12.085 1.007-21.15 2.014-32.228h2.014c83.591 239.696 168.19 481.406 253.795 720.094 0 1.007-2.014 1.007-2.014 1.007-2.014-1.007-3.021-2.014-5.035-4.028-77.549-69.492-154.09-140.998-230.632-210.49-19.135-16.113-38.27-36.256-57.406-53.377-6.043-5.035-5.036-11.078-4.029-16.114z"/></svg>