<svg xmlns="http://www.w3.org/2000/svg" width="1000" height="1000">
  <path d="M428.784 620.167c-26.407-33.627-39.56-81.1-39.56-142.418 0-46.78 9.691-81.594 29.175-104.341 19.484-22.748 43.714-34.121 72.693-34.121 30.956 0 56.373 12.56 76.154 37.582 26.406 35.605 39.56 84.067 39.56 145.385 0 46.78-9.395 81.297-28.187 103.352-18.79 22.055-43.022 33.132-72.692 33.132-30.956 0-56.67-12.857-77.143-38.571zM5.486 500.497c0-89.704 22.45-173.078 67.253-250.221 44.208-74.473 103.55-133.814 178.022-178.023C327.904 27.45 411.278 5 500.981 5c89.012 0 172.09 22.45 249.232 67.253 74.473 44.209 133.517 103.55 177.034 178.023 45.495 77.143 67.945 160.912 67.253 251.21 0 83.769-19.78 162.494-59.341 236.374-38.868 70.516-91.978 128.571-159.231 174.066v-2.967c0-31.648-10.682-58.352-32.143-80.11-21.462-21.758-50.242-35.308-86.539-40.55-25.714-3.956-77.44-6.923-155.275-8.9-42.825-.693-69.924-1.979-81.1-3.957-18.494-2.67-30.857-6.923-37.087-12.857-6.231-5.934-9.396-12.66-9.396-20.275 0-7.615 2.967-16.813 8.901-27.692 5.934-10.88 17.506-23.539 34.616-38.077 27 7.912 53.703 11.868 80.11 11.868 63.989 0 114.923-17.506 152.802-52.418 37.88-34.912 56.869-77.44 56.869-127.583 0-40.253-9.198-73.88-27.693-100.88h81.1l29.67-75.164h-7.912c-4.649 7.22-9.396 12.56-14.34 15.824-4.946 3.264-10.583 5.44-16.814 6.429-6.23.989-17.605 1.483-34.121 1.483h-78.132c10.582-9.198 33.626-33.33 69.23-72.198 24.43-27 41.836-52.418 52.418-76.154 7.22-15.132 10.88-30.363 10.88-45.495 0-21.066-8.21-39.56-24.726-55.385-16.516-15.824-36.593-23.736-60.33-23.736-23.044 0-42.33 7.22-57.857 21.758-15.527 14.539-24.923 35.605-28.187 63.297h7.912c5.934-17.11 14.835-29.967 26.704-38.571 11.868-8.605 25.022-12.857 39.56-12.857 16.517 0 30.462 6.131 42.033 18.296 11.572 12.165 17.308 27.89 17.308 46.979 0 25.022-10.582 52.714-31.648 83.077-15.825 21.758-40.253 48.758-73.187 81.099-36.89-23.736-80.11-35.605-129.561-35.605-62.011 0-112.748 18.99-152.309 56.869-39.56 37.879-59.34 83.275-59.34 135.99 0 34.318 8.703 65.57 26.209 93.956 17.505 28.384 42.33 50.44 74.67 66.264-40.253 33.626-65.77 59.637-76.649 78.132-10.879 18.494-16.318 33.923-16.318 46.483 0 12.56 4.253 23.539 12.857 33.132 8.604 9.594 22.747 20.275 42.528 32.143-36.297 37.583-56.078 58.649-59.341 63.297l-17.803 23.736c-53.406-27.692-100.385-63.79-140.934-108.297-40.55-44.505-71.704-94.747-93.462-150.824C17.057 623.43 5.486 563.1 5.486 500.496zm323.407 459.89c0-13.845 4.747-29.472 14.34-46.977 9.594-17.506 23.243-35.803 41.045-54.89 49.45 6.626 116.407 11.175 200.77 13.846 60.627 1.285 100.583 6.23 119.67 14.835 19.089 7.912 29.374 22.055 30.66 42.527l-.989 6.923c-72.495 38.869-150.33 58.352-233.407 58.352-58.649 0-115.715-10.187-171.1-30.66z" style="fill:#000;fill-opacity:1;fill-rule:nonzero;stroke:none;"/>
</svg>
