<svg xmlns="http://www.w3.org/2000/svg" viewBox="0 0 1000 1000"><path d="M5 500.496c0-90 22.747-173.077 67.253-250.22 44.506-74.177 103.846-133.517 178.023-178.023C327.419 27.747 410.496 5 500.496 5c89.011 0 172.089 22.747 249.232 67.253 74.176 44.506 133.517 103.846 178.022 178.023 44.506 77.143 67.253 160.22 67.253 249.231 0 90-22.747 173.078-67.253 250.22-44.505 74.177-103.846 133.518-178.022 178.023-77.143 44.506-160.22 67.253-249.232 67.253-90 0-173.077-22.747-250.22-67.253-74.177-44.505-133.517-103.846-178.023-178.022C27.747 672.585 5 589.508 5 500.496zm201.759 162.198c-.99 7.913.989 12.858 9.89 19.78 93.956 72.199 184.946 141.43 278.902 211.65 9.89 8.901 17.802 8.901 28.682 0 25.714-17.802 51.428-37.583 76.154-56.374-.99 0 98.901-73.187 105.824-80.11 5.934-4.945 9.89-16.813 2.967-25.715-5.934-5.934-14.835-7.912-23.736-.989-24.726 18.792-56.374 43.517-86.044 65.275-29.67 21.759-57.363 41.539-86.045 63.297-3.956 2.967-2.967 4.945-7.912 1.978-79.12-60.33-211.649-159.23-226.484-173.077-7.912-5.934 46.484-4.945 76.154-4.945 2.967 0 7.912 4.945 9.89 5.934 58.352 41.538 115.715 85.055 174.067 128.572 7.912 5.934 19.78 5.934 26.703 0 6.923-8.901 2.967-19.78-6.923-26.704-16.813-13.846-34.615-26.703-53.407-41.538-41.538-29.67-82.088-61.32-122.638-91.979-5.934-3.956-12.857-6.923-19.78-6.923-31.648-1.978-61.319 0-91.978 0H224.56c-8.901 0-16.813 2.967-17.802 11.868zm6.923-308.572c19.78 14.835 37.583 25.714 57.363 42.528 12.857 10.879 496.485 375.825 501.43 378.792-11.868 8.901-22.747 16.813-34.615 25.714-26.308 21.462-54.495 40.946-82.78 60.43-10.089-5.737-18.594-12.363-27.001-18.89-8.901-6.924-16.813-6.924-25.714 0-8.901 7.911-4.945 16.812 5.934 26.702 5.934 5.935 31.648 26.704 31.648 26.704 10.88 6.923 19.78 4.945 27.693-1.978 23.736-15.824 46.483-32.638 68.242-49.45 23.736-17.803 47.472-35.605 68.242-52.419 13.846-7.912 14.835-19.78 1.978-31.648-19.78-14.835-38.572-28.682-57.363-43.517-19.78-14.835-37.583-27.692-57.363-41.538-98.901-76.154-198.792-153.298-297.693-228.463-44.506-33.626-87.034-67.253-130.55-98.901-2.967-2.967-8.901-6.923-12.857-10.88 5.934-5.933 12.857-10.878 17.802-13.845 11.868-8.902 13.846-18.792 4.945-26.704-7.912-6.923-14.835-8.9-24.725 0-9.89 7.912-21.759 14.835-34.616 25.715-17.802 10.879-13.846 18.79 0 31.648zm1.978-108.792c14.835 8.902 25.714 19.78 38.572 28.682 14.835 9.89 27.692 20.77 40.55 30.66C441.154 417.418 588.517 528.188 737.86 639.946c10.879 8.901 19.78 17.802 31.648 25.715-6.923 5.934-13.846 11.868-17.802 16.813-10.88 6.923-11.868 14.835-5.934 23.736 8.9 7.912 16.813 7.912 25.714 1.978 11.868-8.901 23.736-16.813 34.616-27.692 11.868-8.901 12.857-20.77-1.978-29.67-39.561-31.65-81.1-63.298-123.627-94.946-40.55-30.66-81.1-62.308-123.627-93.956-48.462-35.605-303.627-234.397-306.594-234.397 17.802-12.857 29.67-20.77 48.461-34.615 9.89-7.912 44.506-34.616 66.264-51.43 1.978.99 21.759 13.847 29.67 19.781 10.88 8.901 19.78 9.89 26.704.99 7.912-6.924 7.912-17.803-5.934-26.704 0 0-25.714-19.78-37.583-27.693-8.9-5.934-17.802-6.923-25.714 0-43.517 38.572-91.978 70.22-135.495 104.836-14.835 11.868-14.835 20.77-.989 32.637zm94.945 24.726c9.89 7.912 14.836 9.89 23.737 2.967 55.286-41.539 112.648-85.945 174.857-133.418 8.407 6.923 44.308 34.912 98.11 75.066 29.671 21.758 60.33 45.495 90.001 68.242 16.813 11.868 33.627 25.714 51.429 39.56h-80.11c-5.934 0-10.88-4.945-17.803-7.912-57.362-43.516-113.736-89.01-170.11-129.56-10.88-6.924-19.78-6.924-27.693 0-5.934 7.912-2.967 19.78 7.913 25.714 29.67 23.736 60.33 46.484 90 71.209s62.308 44.506 91.978 67.253c2.967 2.967 8.901 5.934 14.835 5.934h137.473c8.902 0 16.814-2.967 19.78-11.868.99-8.901 0-13.846-8.9-20.77-93.957-71.208-186.924-143.407-281.87-214.616-10.879-6.923-18.79-6.923-26.703 0-47.473 41.54-98.901 75.166-148.352 111.76-10.88 7.911-22.747 16.812-35.605 26.702-6.923 4.946-11.868 15.825-2.967 23.737zM509.22 139.64l.178-.135c-2.769-2.077-2.769-1.978-.198.099zm144.574 722.834h2.967c-.593-.296-1.087-.593-1.68-.89z"/></svg>