<svg id="a" xmlns="http://www.w3.org/2000/svg" viewBox="0 0 1000 1000"><path d="M117.586,665.763l-21.572,8.794-3.844-9.428,18.368-8.019-1.747-12.918,10.383-4.233,13.191,32.358-10.383,4.233-4.397-10.786ZM365.153,119.174l-4.233-10.383-12.919,1.747-8.019-18.368-9.428,3.844,8.794,21.572-10.786,4.397,4.233,10.383,32.358-13.191Zm279.042,761.651l4.233,10.383,12.919-1.747,8.019,18.368,9.429-3.844-8.794-21.572,10.786-4.397-4.233-10.383-32.358,13.191Zm233.823-552.104l-10.383,4.233,13.191,32.358,10.383-4.233-1.747-12.918,18.368-8.019-3.844-9.428-21.572,8.794-4.397-10.786Zm121.983,171.278c0,276.142-223.858,500-500,500S0,776.142,0,500,223.858,0,500,0s500,223.858,500,500Zm-75.153-107.938l-22.917,4.183,2.091,11.458-11.458,2.091,6.274,34.375,11.458-2.091-6.274-34.375,22.489-4.105,6.274,34.375-11.458,2.091,2.091,11.458,11.458-2.091-2.091-11.458,11.458-2.091-6.274-34.375-11.031,2.013-2.091-11.458Zm-55.628,21.994l-11.458,2.091,6.274,34.375,11.458-2.091,2.091,11.458,22.917-4.183-2.091-11.458-22.917,4.183-6.274-34.375,11.458-2.091-2.091-11.458-11.458,2.091,2.091,11.458Zm30.371-94.129l-21.572,8.794-4.397-10.786-43.143,17.588,4.397,10.786,21.974-8.958,13.191,32.358-21.974,8.958,4.397,10.786,43.143-17.588-4.397-10.786,21.572-8.794-1.739-11.87,8.127-3.313-4.397-10.786-10.786,4.397-4.397-10.786Zm-64.495,357.817l16.119-31.003,10.334,5.373,5.373-10.334-10.334-5.373-5.373,10.334-10.334-5.373-16.119,31.003,10.334,5.373-5.373,10.334,20.669,10.746,5.373-10.334-20.669-10.746Zm.03-362.871l18.547-13.364-6.809-9.45-18.547,13.364,6.809,9.45Zm-43.672-40.315l6.809,9.45,20.427,28.351,9.45-6.809-20.427-28.35,18.9-13.618,20.427,28.351,9.45-6.809-20.427-28.35,18.9-13.618,20.427,28.35-18.547,13.364,6.809,9.45,18.547-13.364-6.809-9.45,9.45-6.809-20.427-28.351-6.809-9.45-66.151,47.664Zm-46.526-151.555l-49.165,65.043,9.292,7.024,21.071-27.876,9.292,7.024-7.024,9.292,9.292,7.024-7.024,9.292,9.292,7.024-7.024,9.292,9.292,7.024,7.024-9.292-9.292-7.024,7.024-9.292-9.292-7.024,7.024-9.292-9.292-7.024,7.024-9.292,9.292,7.024,7.024-9.292,9.292,7.024,7.023-9.292,9.292,7.024,7.024-9.292-9.292-7.024-7.024,9.292-9.292-7.024-7.024,9.292-9.292-7.024-7.024,9.292-9.292-7.024,21.071-27.876-9.292-7.023Zm-92.359-10.978l10.334,5.373-5.373,10.334,31.003,16.119,5.373-10.334-31.003-16.119,10.545-20.283,31.003,16.119-5.373,10.334,10.334,5.373,5.373-10.334-10.334-5.373,5.373-10.334-31.003-16.119-5.172,9.948-10.334-5.373-10.746,20.669Zm-5.985,36.762l5.373-10.334-10.334-5.373-5.373,10.334,10.334,5.373-5.373,10.334,31.003,16.119,5.373-10.334,10.334,5.373,10.746-20.669-10.334-5.373-10.746,20.669-31.003-16.119Zm-121.111-15.661l46.431,3.853,.963-11.608-34.823-2.89,5.78-69.647-11.608-.963-5.78,69.647-.963,11.608Zm-51.531-1.592h34.943v-11.648h-11.648V61.648h11.648v-11.648h-34.943v11.648h11.648v58.239h-11.648v11.648Zm-18.392-32.035l-11.458,2.091,4.183,22.917-34.375,6.274-2.091-11.458-11.458,2.091,2.091,11.458,11.458-2.091,2.091,11.458,34.375-6.274-2.091-11.458,11.458-2.091-4.183-22.917Zm-52.186-26.437l-11.458,2.091,4.183,22.917,11.458-2.091,2.091,11.458,34.375-6.274-2.091-11.458-34.375,6.274-4.105-22.489,34.375-6.274,2.091,11.458,11.458-2.091-2.091-11.458-11.458,2.091-2.091-11.458-34.375,6.274,2.013,11.03Zm-74.799,48.921l-10.786,4.397,17.588,43.143,10.786-4.397-8.958-21.974,32.358-13.191,8.958,21.974,10.786-4.397-17.588-43.143-10.786,4.397-8.794-21.572-11.87,1.739-3.313-8.127-10.786,4.397,4.397,10.786-10.786,4.397,8.794,21.572Zm-27.212,24.346l-9.45,6.809,13.364,18.547,9.45-6.809-13.364-18.547Zm-74.614-3.932l47.664,66.151,9.45-6.809,28.351-20.427-6.809-9.45-28.351,20.427-13.618-18.9,28.351-20.427-6.809-9.45-28.35,20.427-13.618-18.9,28.35-20.427,13.364,18.547,9.45-6.809-13.364-18.547-9.45,6.809-6.809-9.45-28.351,20.427-9.45,6.809ZM86.781,326.292l9.948,5.172-5.373,10.334,20.669,10.746,5.373-10.334,10.334,5.373,16.119-31.003-10.334-5.373-16.119,31.003-20.283-10.545,16.119-31.003,10.334,5.373,5.373-10.334-10.334-5.373-5.373,10.334-10.334-5.373-16.119,31.003Zm78.125,1.234l-16.119,31.003-10.334-5.373-5.373,10.334,10.334,5.373,5.373-10.334,10.334,5.373,16.119-31.003-10.334-5.373,5.373-10.334-20.669-10.746-5.373,10.334,20.669,10.746Zm-101.794,68.531l11.121,3.462,3.462-11.121,55.606,17.311-3.462,11.121,11.121,3.462,10.386-33.364-11.121-3.462-3.462,11.121-55.606-17.31,3.462-11.121-11.121-3.462-10.386,33.364Zm67.669,195.158l11.458-2.091-6.274-34.375-11.458,2.091-2.091-11.458-22.917,4.183,2.091,11.458,22.917-4.183,6.274,34.375-11.458,2.091,2.091,11.458,11.458-2.091-2.091-11.458Zm-78.91-118.317l69.647,5.78,11.608,.963,3.853-46.431-11.608-.963-2.89,34.823-69.647-5.78-.963,11.608Zm-1.872,58.274h11.648v-11.648h58.239v11.648h11.648v-34.943h-11.648v11.648H61.648v-11.648h-11.648v34.943Zm25.153,82.037l22.917-4.183-2.091-11.458,11.458-2.091-6.274-34.375-11.458,2.091,6.274,34.375-22.489,4.105-6.274-34.375,11.458-2.091-2.091-11.458-11.458,2.091,2.091,11.458-11.458,2.091,6.274,34.375,11.031-2.013,2.091,11.458Zm25.258,72.135l21.572-8.794,4.397,10.786,43.143-17.588-4.397-10.786-21.974,8.958-13.191-32.358,21.974-8.958-4.397-10.786-43.143,17.588,4.397,10.786-21.572,8.794,1.739,11.87-8.127,3.313,4.397,10.786,10.786-4.397,4.397,10.786Zm64.465,5.054l-18.547,13.364,6.809,9.45,18.547-13.364-6.809-9.45Zm43.672,40.315l-6.809-9.45-20.427-28.351-9.45,6.809,20.427,28.35-18.9,13.618-20.427-28.351-9.45,6.809,20.427,28.35-18.9,13.618-20.427-28.35,18.547-13.364-6.809-9.45-18.547,13.364,6.809,9.45-9.45,6.809,20.427,28.351,6.809,9.45,66.151-47.664Zm7.593-458.529l7.024-9.292-9.292-7.024-7.024,9.292-9.292-7.024-7.024,9.292-9.292-7.024-7.024,9.292-9.292-7.024,7.024-9.292-9.292-7.024,7.024-9.292-9.292-7.023,7.024-9.292-9.292-7.024-7.024,9.292,9.292,7.024-7.024,9.292,9.292,7.024-7.024,9.292,9.292,7.024-7.024,9.292-27.876-21.071-7.024,9.292,65.043,49.165,7.024-9.292-27.876-21.071,7.024-9.292,9.292,7.024,7.024-9.292,9.292,7.024,7.024-9.292,9.292,7.024Zm48.281,604.813l49.165-65.043-9.292-7.024-21.071,27.876-9.292-7.024,7.024-9.292-9.292-7.024,7.024-9.292-9.292-7.024,7.024-9.292-9.292-7.024-7.024,9.292,9.292,7.024-7.024,9.292,9.292,7.024-7.024,9.292,9.292,7.024-7.024,9.292-9.292-7.024-7.024,9.292-9.292-7.024-7.024,9.292-9.292-7.024-7.024,9.292,9.292,7.024,7.024-9.292,9.292,7.024,7.024-9.292,9.292,7.024,7.024-9.292,9.292,7.024-21.071,27.876,9.292,7.024Zm92.359,10.978l-10.334-5.373,5.373-10.334-31.003-16.119-5.373,10.334,31.003,16.119-10.545,20.283-31.003-16.119,5.373-10.334-10.334-5.373-5.373,10.334,10.334,5.373-5.373,10.334,31.003,16.119,5.172-9.948,10.334,5.373,10.746-20.669Zm5.985-36.762l-5.373,10.334,10.334,5.373,5.373-10.334-10.334-5.373,5.373-10.334-31.003-16.119-5.373,10.334-10.334-5.373-10.746,20.669,10.334,5.373,10.746-20.669,31.003,16.119Zm61.762,7.826l-33.364-10.386-3.462,11.121,11.121,3.462-17.31,55.606-11.121-3.462-3.462,11.121,33.364,10.386,3.462-11.121-11.121-3.462,17.311-55.606,11.121,3.462,3.462-11.121Zm59.349,7.835l-46.431-3.853-.963,11.608,34.823,2.89-5.78,69.647,11.608,.963,5.78-69.647,.963-11.608Zm16.123-88.757c69.891-71.856,112.936-169.958,112.936-278.116s-43.046-206.26-112.936-278.116c-69.891,71.857-112.936,169.958-112.936,278.116s43.046,206.26,112.936,278.116Zm35.408,90.35h-34.943v11.648h11.648v58.239h-11.648v11.648h34.943v-11.648h-11.648v-58.239h11.648v-11.648Zm18.392,32.035l11.458-2.091-4.183-22.917,34.375-6.274,2.091,11.458,11.458-2.091-2.091-11.458-11.458,2.091-2.091-11.458-34.375,6.274,2.091,11.458-11.458,2.091,4.183,22.917Zm52.186,26.437l11.458-2.091-4.183-22.917-11.458,2.091-2.091-11.458-34.375,6.274,2.091,11.458,34.375-6.274,4.105,22.489-34.375,6.274-2.091-11.458-11.458,2.091,2.091,11.458,11.458-2.091,2.091,11.458,34.375-6.274-2.013-11.031Zm12.198-775.59l3.462-11.121-11.121-3.462,17.31-55.606,11.121,3.462,3.462-11.121-33.364-10.386-3.462,11.121,11.121,3.462-17.311,55.606-11.121-3.462-3.462,11.121,33.364,10.386Zm62.602,726.669l10.786-4.397-17.588-43.143-10.786,4.397,8.958,21.974-32.358,13.191-8.958-21.974-10.786,4.397,17.588,43.143,10.786-4.397,8.794,21.572,11.87-1.739,3.313,8.127,10.786-4.397-4.397-10.786,10.786-4.397-8.794-21.572Zm27.212-24.346l9.45-6.809-13.364-18.547-9.45,6.809,13.364,18.547Zm74.614,3.932l-47.664-66.151-9.45,6.809-28.351,20.427,6.809,9.45,28.35-20.427,13.618,18.9-28.351,20.427,6.809,9.45,28.351-20.427,13.618,18.9-28.35,20.427-13.364-18.547-9.45,6.809,13.364,18.547,9.45-6.809,6.809,9.45,28.351-20.427,9.45-6.809Zm94.385-112.518l-65.043-49.165-7.024,9.292,27.876,21.071-7.024,9.292-9.292-7.024-7.024,9.292-9.292-7.024-7.024,9.292-9.292-7.024-7.024,9.292,9.292,7.024,7.024-9.292,9.292,7.024,7.024-9.292,9.292,7.024,7.024-9.292,9.292,7.024-7.024,9.292,9.292,7.024-7.024,9.292,9.292,7.023-7.024,9.292,9.292,7.024,7.024-9.292-9.292-7.024,7.024-9.292-9.292-7.024,7.024-9.292-9.292-7.024,7.024-9.292,27.876,21.071,7.024-9.292Zm36.223-66.106l-9.948-5.172,5.373-10.334-20.669-10.746-5.373,10.334-10.334-5.373-16.119,31.003,10.334,5.373,16.119-31.003,20.283,10.545-16.119,31.003-10.334-5.373-5.373,10.334,10.334,5.373,5.373-10.334,10.334,5.373,16.119-31.003Zm23.668-69.765l-11.121-3.462-3.462,11.121-55.606-17.311,3.462-11.121-11.121-3.462-10.386,33.364,11.121,3.462,3.462-11.121,55.606,17.31-3.462,11.121,11.121,3.462,10.386-33.364Zm11.241-76.841l-69.647-5.78-11.608-.963-3.853,46.431,11.608,.963,2.89-34.823,69.647,5.78,.963-11.608Zm1.872-23.331v-34.943h-11.648v11.648h-58.239v-11.648h-11.648v34.943h11.648v-11.648h58.239v11.648h11.648Z"/></svg>
