<svg xmlns="http://www.w3.org/2000/svg" viewBox="0 0 1000 1000"><path d="M291.2,206.9c13.4-41.1,61.5-138.5,146-199.3h45.4V206.9Zm460.8,0H908.8L707.5,7.6H618.7C682.7,66,727.3,147.7,752,206.9ZM565.4,7.6H521V206.9H714.4C669.5,99.6,596.4,29.3,565.4,7.6Zm318.3,348A85.315,85.315,0,0,1,899,387.4a152.1,152.1,0,0,1,4.3,35.6V584.8a147.582,147.582,0,0,1-4.3,35.6,82.366,82.366,0,0,1-15.3,31.8,93.073,93.073,0,0,1-26.5,23.5,105.363,105.363,0,0,1-33.1,12.8,183.646,183.646,0,0,1-35.6,3.5,192.741,192.741,0,0,1-35.6-3.6,103,103,0,0,1-33.1-12.8,93.243,93.243,0,0,1-26.5-23.5A85.315,85.315,0,0,1,678,620.3a152.1,152.1,0,0,1-4.3-35.6V423a147.582,147.582,0,0,1,4.3-35.6,82.366,82.366,0,0,1,15.3-31.8,93.073,93.073,0,0,1,26.5-23.5,104.439,104.439,0,0,1,33.1-12.8,182.8,182.8,0,0,1,71.2,0,103,103,0,0,1,33.1,12.8A94.606,94.606,0,0,1,883.7,355.6ZM841.6,423a67.96,67.96,0,0,0-3.3-20.8,40.189,40.189,0,0,0-11-17.5,45.06,45.06,0,0,0-18-10.3,73.607,73.607,0,0,0-41.6,0,43.281,43.281,0,0,0-18,10.3,39.3,39.3,0,0,0-11,17.5,67.486,67.486,0,0,0-3.3,20.8V584.8a64.7,64.7,0,0,0,3.3,20.5,41.989,41.989,0,0,0,11,17.5,43.241,43.241,0,0,0,18,10.5,73.607,73.607,0,0,0,41.6,0,43.241,43.241,0,0,0,18-10.5,41.989,41.989,0,0,0,11-17.5,65.16,65.16,0,0,0,3.3-20.5ZM385.9,7.6H291.2L91.8,206.9H253.6C275.3,128,360.2,22.4,385.9,7.6ZM518.1,793.1V992.4h45.4c84.5-60.8,132.6-158.2,146-199.3Zm10.2-107.7a187.276,187.276,0,0,1-30.8,2.5H389.3V319.8H497.5a187.276,187.276,0,0,1,30.8,2.5,108.76,108.76,0,0,1,29.3,9.3,105.26,105.26,0,0,1,25.5,17.3,88.458,88.458,0,0,1,18.8,24.5,103.722,103.722,0,0,1,10,29.3,177.3,177.3,0,0,1,2.8,30.8V574.2a167.256,167.256,0,0,1-2.8,30.8,102.665,102.665,0,0,1-10,29.3,85.212,85.212,0,0,1-18.8,24.5,107.23,107.23,0,0,1-25.5,17.3A108.76,108.76,0,0,1,528.3,685.4ZM520,628.8a41.2,41.2,0,0,0,18.8-12.3,50.943,50.943,0,0,0,11-19.8,78.056,78.056,0,0,0,3.3-22.5V433.5a80.609,80.609,0,0,0-3.3-22.8,49.563,49.563,0,0,0-11-19.8,41.7,41.7,0,0,0-18.8-12,74.971,74.971,0,0,0-22.5-3.5H450.9V632.3h46.6A74.483,74.483,0,0,0,520,628.8ZM140.4,687.9H76.8L176,319.8h71.1l99.2,368.1H282.7l-20.5-77.1H160.9Zm35.7-132.7h71l-10-37.1Q217,444.45,211.6,398.9q-5.55,45.6-25.5,119.2ZM614.8,992.4h94.7L908.8,793.1H747C725.3,872,640.4,977.6,614.8,992.4ZM248.7,793.1H91.8L293.1,992.4h88.8C318,934,273.4,852.3,248.7,793.1ZM435.2,992.4h44.4V793.1H286.2C331.2,900.4,404.3,970.7,435.2,992.4Z"/></svg>