<svg xmlns="http://www.w3.org/2000/svg" width="1000" height="1000">
  <path d="M875.388 381.616c41.71 38.03 79.74 79.74 117.77 118.996-160.706 164.386-331.226 328.772-495.613 494.385-36.802-38.03-74.832-80.966-117.769-117.769 164.386-165.613 330-329.999 495.612-495.612zM6.84 494.478c38.03-36.803 76.06-74.832 118.996-112.862 38.03 38.03 74.833 79.74 112.863 118.996L125.836 613.474C87.806 579.124 44.87 538.642 6.84 494.478zm190.15-184.014L502.453 5c36.802 39.256 74.832 79.74 112.862 116.542-99.368 104.275-202.416 208.55-301.784 307.918-36.803-39.257-79.74-79.74-116.542-118.996zm7.36 396.244c-13.494-13.494-13.494-23.308 0-36.803 142.305-142.304 288.29-288.289 430.594-429.367 12.267-18.401 33.122-38.03 46.617-56.43 46.617 46.616 90.78 84.646 126.356 121.449C643.53 471.17 474.237 641.69 308.624 806.076c-8.587-8.587-23.308-23.309-36.803-38.03-23.308-19.628-44.163-42.936-67.472-61.338z" style="fill:#000;fill-opacity:1;fill-rule:nonzero;stroke:none;"/>
</svg>
