<svg xmlns="http://www.w3.org/2000/svg" viewBox="0 0 1000 1000"><path d="M524.787,541.368c-.056.213-.2.441-.148.613.191.654.425,1.3.677,1.93A89.771,89.771,0,0,0,545.6,574.136c1.379,1.387,1.911,2.518,1.058,4.435-1.715,3.854-3,7.906-4.788,11.721-9.344,19.9-22.9,35.848-42.866,45.923-9.17,4.628-18.107,5.1-27.66,1.086-15.053-6.325-28.778-14.861-42.112-24.12a4.217,4.217,0,0,1-1.74-2.666c-.447-5.91-.677-11.836-.986-17.882,1.383-.353,2.485-.6,3.566-.915,14.035-4.107,26.233-10.942,33.491-24.228,9.8-17.933,2.87-35.63-16.416-41.968a78.849,78.849,0,0,0-38.607-2.672c-15.309,2.682-23.976,11.07-26.162,24.64-1.371,8.508,1.221,16.082,6.092,22.906a60.183,60.183,0,0,0,27.248,21.111c1.084.435,2.461,1.762,2.554,2.78.487,5.342.663,10.717.8,16.085a3.918,3.918,0,0,1-1.022,2.926c-9.643,6.715-19.311,13.4-29.167,19.794-1.381.9-4.048.819-5.687.143-10.131-4.177-17-11.744-21.113-21.776-4.479-10.936-7.748-22.24-8.55-34.088-.966-14.267,1.286-27.889,9.916-39.719,15.2-20.838,47.361-42.245,86.558-32.448,2.1.526,4.209,1.053,6.3,1.645,1.943.551,3.86,1.189,5.789,1.788a58.028,58.028,0,0,0-33.752-12.822c-26.121-1.19-47.069,9.808-64.789,28.129-11.831,12.233-17.662,27.037-18.382,43.859-.774,18.086,3.791,35.1,11.446,51.318,3.329,7.054,8.646,12.542,14.906,17.175a12.071,12.071,0,0,1,3.076,3.856c3.543,6.371,7.041,12.771,10.365,19.258a7.3,7.3,0,0,1,.718,4.631c-2.669,10.957-4.053,21.974-3,33.282,4.29,45.864,52.388,59.784,81.3,45.521,13.765-6.79,19.67-18.493,17.767-33.716-1.017-8.139-1.077-16.4-1.631-24.6-.125-1.842.46-2.8,2.267-3.575,36.306-15.484,58.592-43.175,69.717-80.484,1.2-4.019,1.982-8.162,3.134-12.99,2.171,8.747.112,16.454-1.907,25.081,5.211-6.048,8.189-12.077,9.141-19.045.993-7.277-.446-14.094-5.545-19.448C546.393,563.007,535.528,552.257,524.787,541.368ZM475.049,650.355c-1.292,11.436-3.124,22.86-3.529,34.332-.327,9.295.937,18.666,1.794,27.975.708,7.682-1.709,13.93-7.617,18.78-5.176,4.248-11.311,6.4-17.848,7.3-20.788,2.855-42.138-5.533-51.491-24.027-5.575-11.022-6.337-22.815-4.912-34.765a110.668,110.668,0,0,1,17.521-47.442c2.366-3.648,6.537-6.187,10.063-9,4.584-3.663,4.665-3.566,9.384-.341,1.031.7,2.046,1.43,3.247,2.271-15.825,27.379-18.278,55.842-8.927,85.568-2.221-28.363.43-55.682,16.7-80.408.859.421,1.667.747,2.405,1.19,10,5.994,20.137,11.7,31.33,15.215C475,647.573,475.243,648.64,475.049,650.355ZM341.939,352.592s-34.116,35.667-41.1,27.914c-3.877-5.04,0-19.385,0-19.385s32.566-123.89,71.334-152.36C384.2,200.62,396.6,254.12,396.6,254.12s4.653,46.135-15.119,56.99c-3.1,2.714-16.623,1.163-12-13.569-18.632,8.141-13.592,32.566-13.592,32.566s-7.754-8.529-17.059-5.816C348.142,330.882,341.939,352.592,341.939,352.592ZM365.6,469.2c2.273-3.65.785-7.2-2.51-10.155,6.764-2.34,13.083-2.348,19.14,1.027,7.158,3.988,9.427,11.9,5.645,19.141-5.537,10.609-21.327,15.054-31.583,8.891-7.537-4.528-9.208-12.862-3.9-21.1,1.31,3.749,3.477,6.493,7.271,5.906A9.4,9.4,0,0,0,365.6,469.2ZM500,0C223.858,0,0,223.858,0,500s223.858,500,500,500,500-223.858,500-500S776.142,0,500,0ZM775.636,609.643c-.459,3.043-.7,6.138-1.415,9.12-2.218,9.254-4.615,18.465-6.942,27.693l-1-.189c-3.325-5.781-6.651-11.562-10.16-17.664a130.458,130.458,0,0,1-16.692,45.813,170.353,170.353,0,0,1-11.9,17.516l0,0-.006,0a175.952,175.952,0,0,1-19.959,21.721c-7.915,7.292-16.6,13.745-24.538,21.016-8.3,7.608-16.31,15.566-24.083,23.718a148.222,148.222,0,0,0-13.143,16.03c-5.871,8.2-10.74,16.98-12.2,27.684-10.01-5.73-15.524-14.163-17.777-24.635-24.648,20.581-52.041,32.381-81.551,37.619l-.006,0h-.01a226.3,226.3,0,0,1-41.859,3.278q-.147-.5-.293-1H415.12c-4.864,1.488-24.334-1.617-36.75-5.76A151.108,151.108,0,0,1,343.9,795.251c-12.636-8.178-23.14-17.746-28.508-25.349-2.275,2.576-4.266,5.592-6.972,7.682-2.769,2.139-6.238,3.37-9.694,5.15-3.13-15.17-11.888-27-19.16-39.642-6.459-11.233-15.3-20.58-22.682-31.061-9.384-13.317-16.981-27.445-21.42-43.053a257.149,257.149,0,0,1-6.2-29.819,105.57,105.57,0,0,1-1.356-20.622c.515-13.222,1.754-26.418,5.4-39.772l-8.945,7.424c.728-6.706,1.171-12.694,2.071-18.612,1.176-7.736,2.051-15.613,4.251-23.077,3.3-11.213,6.859-22.484,11.752-33.062,5.715-12.355,12.973-24,19.593-35.93a12.451,12.451,0,0,1,2.007-2.689c4.787-4.842,4.289-10.539,2.868-16.472-1.895-7.914-3.1-16.05-5.7-23.719-1.792-5.288-5.328-10.019-8.334-14.844-1.014-1.628-1.55-2.288.411-3.7a27.294,27.294,0,0,1,18.64-5.352,184.619,184.619,0,0,1-5.678-51.1l14.786,8.067c2.164-6.615,4.248-13.055,6.378-19.479,4.25-12.819,8.335-25.7,12.848-38.422,3.916-11.042,8.179-21.968,12.551-32.84,9.493-23.6,19.791-46.835,34.336-67.872,4.959-7.17,10.632-13.82,18.216-18.438,10.687-6.506,21.192-4.912,31.352,1.248a66.1,66.1,0,0,1,5.686,3.887h.02l.016.026c10.523,7.992,18.276,18.626,25.5,29.655A273.512,273.512,0,0,1,451.7,268.18c1.074,2.582,2.062,4.907,5.694,5.179,2.662.2,5.2,1.88,7.834,2.764a4.382,4.382,0,0,0,2.729.124,87.687,87.687,0,0,1,38.031-5.957c7.079.507,14.073,2.194,20.487,3.246,7.695-16.307,15.192-33.063,23.46-49.429,6.237-12.349,13.748-24.032,23.965-33.6,5.573-5.218,11.809-9.235,20.062-8.878,4.685.2,8.5,2.2,11.9,4.912a152.9,152.9,0,0,1,31.51,34.841l.006.006,0,.006q3.395,5.066,6.5,10.362c7.92,13.529,15.664,27.234,22.334,41.4q3.306,7.023,6.4,14.149l.014.015,0,.028c5.328,12.191,10.29,24.555,15.148,36.938,4.888,12.46,8.816,25.3,13.157,37.971.577,1.684,1.064,3.4,1.757,5.629l15.022-11.852c1.249,17.091.651,33.213-5.526,48.859,10.2-.808,17.784,3.714,25.221,9.717a51.228,51.228,0,0,1-5.491,2.924c-8.089,3.115-11.8,9.839-13.747,17.511-1.535,6.045-2.026,12.363-2.821,18.58a4.657,4.657,0,0,0,.976,3.042,364.265,364.265,0,0,1,32.94,51.409,258.906,258.906,0,0,1,17.935,42.544l.019.03,0,.038c1.795,5.713,3.371,11.506,4.685,17.4,1.534,6.874,2.038,13.977,3.048,20.971a12.352,12.352,0,0,0,.672,2.063ZM673.6,361.121s3.877,14.345,0,19.385c-6.978,7.753-41.095-27.914-41.095-27.914s-6.2-21.71,3.1-28.3c-9.305-2.713-17.058,5.816-17.058,5.816s5.04-24.425-13.593-32.566c4.629,14.732-8.893,16.283-11.995,13.569-19.771-10.855-15.119-56.99-15.119-56.99s12.406-53.5,24.424-45.359C641.037,237.231,673.6,361.121,673.6,361.121ZM494.673,479.578c-4.715-8.439-2.082-17.548,6.418-22.2,6.143-3.364,14.918-3.868,22.143-1.15-4.453,3.4-6.063,7.62-3.61,12.784,1.514,3.188,4.753,4.682,8.592,4.258,4.163-.459,6.1-2.719,7.706-9.013,8.768,8.127,7.292,20.657-3.1,26.31C520.477,497.28,501.511,491.818,494.673,479.578Z"/></svg>