<svg xmlns="http://www.w3.org/2000/svg" viewBox="0 0 1000 1000"><path d="M62.974 156.905h32.785c17.563 8.197 42.151 12.88 65.569 8.197 17.563-3.513 39.81 14.05 59.715 14.05 23.418 0 40.981-4.683 63.228-9.367 25.76 19.905 43.323 14.05 65.57 9.367 19.904-4.683 43.322 10.538 70.252 17.563 40.981-22.246 45.665-22.246 83.133 15.222 38.64-26.93 60.886-26.93 78.45 0 15.221 23.418 4.683 45.664-17.564 60.886 7.026 17.563 22.247 32.785 22.247 45.664 0 17.564-15.221 32.785-22.247 50.348 35.127 26.93 35.127 55.032 0 80.791 7.026 17.564 28.101 29.273 28.101 50.348 0 4.684-5.854 17.564-15.221 26.93-17.563 17.564-40.981 17.564-73.766-15.22-4.683 10.537-15.221 21.075-22.247 28.1l22.247 28.102c28.101-30.443 56.203-30.443 78.45-8.196 17.563 17.563 10.537 40.98-22.247 67.91 39.81 32.786 39.81 60.887 4.683 88.988 7.026 15.222 17.563 26.93 28.101 42.152 5.855 8.196-10.538 23.418-15.221 32.785-11.709 23.417-35.127 17.563-73.766-9.367l-9.367 9.367c-17.563 23.417-40.98 23.417-67.911 8.196-10.538-5.855-15.222-8.196-25.76 0-24.588 18.734-45.664 22.247-67.91 9.367-10.539-5.855-19.906 0-28.102 5.854-17.563 11.71-42.152 12.88-65.57 4.684-10.538-3.513-17.563 0-26.93 2.342-19.905 4.683-32.785 10.538-45.664 10.538-24.589 0-43.323-5.855-65.57 4.683-53.86 25.76-108.892-37.468-92.5-98.354 3.513-12.88 0-28.101 0-45.665V336.05c-5.854-40.98 0-83.132 0-118.259 0-32.784 26.93-52.69 55.032-60.886zm418.005 295.063c7.026 9.367 17.564 19.905 22.247 26.93l28.101-26.93c-10.538-8.196-17.563-17.563-28.1-23.417zm0-85.474 22.247 26.93c10.538-9.367 17.563-19.905 28.101-26.93l-28.1-30.443c-9.368 9.367-15.222 19.905-22.248 30.443zm0-88.988c7.026 8.197 17.564 17.564 17.564 23.418l32.784-23.418c-10.538-9.367-17.563-19.905-28.1-26.93zm2.342 439.082 19.905 26.93c10.538-7.025 17.563-17.563 28.101-26.93l-32.784-23.418c-4.684 5.855-10.538 15.222-15.222 23.418zm0-88.987c4.684 10.538 15.222 21.076 19.905 28.101l28.101-28.101c-10.538-7.025-17.563-17.563-28.1-26.93zM596.897 758.74c0-19.905 17.563-32.785 35.126-32.785 22.247 0 37.469 17.563 37.469 38.64 0 17.563-17.563 35.126-37.469 29.271-17.563-4.683-35.126-17.563-35.126-35.126zm0-83.133c0-24.588 17.563-48.006 39.81-37.468 14.05 7.025 32.785 17.563 32.785 37.468 0 17.563-17.563 35.127-37.469 35.127-17.563 0-35.126-17.564-35.126-35.127zm0-87.816c0-19.905 17.563-37.469 35.126-37.469 19.906 0 37.469 15.222 37.469 37.469 0 17.563-17.563 35.126-37.469 35.126-17.563 0-35.126-17.563-35.126-35.126zm0-87.817c0-21.075 17.563-38.639 35.126-38.639 19.906 0 37.469 15.222 37.469 38.64 0 17.563-17.563 33.955-37.469 37.468-17.563 3.512-35.126-19.905-35.126-37.469zm0-93.67c0-17.564 17.563-32.785 35.126-32.785 19.906 0 37.469 19.905 37.469 37.468 0 17.564-17.563 38.64-37.469 32.785-17.563-4.684-35.126-19.905-35.126-37.468zm0-87.817c0-17.563 17.563-32.784 39.81-32.784 17.563 0 32.785 15.221 32.785 37.468 0 17.563-17.563 37.468-37.469 37.468-17.563 0-35.126-24.588-35.126-42.152zm0-88.987c0-17.563 17.563-35.126 35.126-32.785 21.076 2.342 37.469 15.222 37.469 38.64 0 17.563-17.563 37.468-42.152 37.468-17.563 0-30.443-22.247-30.443-43.323zm90.158 535.094c0-15.221 15.222-32.784 32.785-32.784 15.221 0 28.101 11.708 28.101 32.784 0 11.71-12.88 29.272-28.101 26.93-17.563-2.341-32.785-9.366-32.785-26.93zm0-88.987c0-19.905 15.222-32.785 32.785-32.785 15.221 0 28.101 12.88 28.101 32.785 0 12.88-12.88 28.101-28.101 28.101-11.709 0-32.785-15.221-32.785-28.1zm0-87.816c0-19.905 15.222-32.785 32.785-32.785 15.221 0 32.785 12.88 32.785 32.785 0 12.88-11.71 28.101-32.785 28.101-11.709 0-32.785-15.221-32.785-28.101zm0-87.817c0-21.075 15.222-32.784 32.785-32.784 15.221 0 31.614 11.709 28.101 32.784-2.342 12.88-12.88 26.93-28.101 26.93-17.563 0-32.785-15.22-32.785-26.93zm0-88.987c0-17.563 15.222-32.784 32.785-32.784 15.221 0 28.101 17.563 28.101 32.784 0 17.564-12.88 28.101-28.101 28.101-17.563 0-32.785-15.221-32.785-28.1zm0-92.5c0-12.88 15.222-28.1 32.785-28.1 15.221 0 28.101 15.22 28.101 28.1 0 17.564-12.88 32.785-28.101 32.785-17.563 0-32.785-15.221-32.785-32.785zm0-83.132c0-17.564 15.222-32.785 28.101-32.785 19.905 0 32.785 15.221 32.785 26.93 0 21.076-12.88 32.785-28.101 32.785-17.563 0-32.785-11.709-32.785-26.93zm93.67 523.385c0-4.684 15.222-19.905 22.248-19.905 15.221 0 23.417 4.683 23.417 25.76 0 7.025-8.196 17.563-17.563 26.93h-10.538c-2.342-9.367-17.563-24.589-17.563-32.785zm0-83.133c-4.683-9.367 10.539-19.905 17.564-26.93l10.538-5.855c9.367 8.197 17.563 23.418 17.563 28.102 0 7.025-12.88 17.563-17.563 28.1-10.538-10.537-23.418-15.22-28.101-23.417zm0-92.5c0-15.221 10.539-23.417 22.248-23.417 10.538 0 23.417 17.563 23.417 28.1 0 7.026-8.196 17.564-17.563 28.102h-10.538c-7.025-10.538-17.563-21.076-17.563-32.785zm0-88.987c0-15.221 10.539-22.247 22.248-17.563 14.05 5.854 23.417 12.88 23.417 23.417 0 7.026-8.196 17.564-17.563 26.93h-10.538c-2.342-9.366-17.563-19.904-17.563-32.784zm0-87.816c0-12.88 10.539-22.247 28.102-22.247 15.222 0 22.247 11.709 17.563 26.93-3.512 10.538-8.196 17.564-17.563 28.101h-10.538c-7.025-10.537-17.563-17.563-17.563-32.784zm0-83.133c17.564-43.323 56.203-22.247 45.665 0-4.683 9.367-12.88 17.563-23.417 22.247-11.71 5.854-26.93-9.367-22.247-22.247zm0-93.67c0-4.684 15.222-17.564 22.248-17.564 15.221 0 23.417 5.854 23.417 23.418 0 37.468-45.664 25.76-45.664-5.855zm87.817 181.486c10.538-9.367 15.222-17.563 23.418-17.563 4.683 0 14.05 2.342 26.93 12.88-12.88 10.538-22.247 17.563-26.93 17.563-8.196 0-12.88-7.025-23.418-12.88zm5.855 353.607c0-5.854 9.367-21.076 17.563-21.076 4.683 0 14.05 10.538 26.93 21.076-12.88 7.026-22.247 17.564-26.93 17.564-8.196 0-17.563-15.222-17.563-17.564zm0-88.987c0-9.367 9.367-15.221 17.563-26.93 9.367 7.025 19.905 17.563 19.905 26.93 0 2.342-15.222 8.196-19.905 17.563-5.855-4.683-17.563-15.221-17.563-17.563zm0-87.816c0-10.538 9.367-15.222 17.563-19.905 4.683 4.683 19.905 9.367 19.905 19.905 0 4.683-10.538 12.88-19.905 22.247-8.196-9.368-17.563-17.564-17.563-22.247zm0-87.817c4.683-10.538 9.367-21.075 17.563-21.075 4.683 0 14.05 10.537 26.93 15.221-12.88 10.538-22.247 17.563-26.93 17.563-5.855 0-12.88-7.025-17.563-11.709zm0-176.803c0-28.101 37.468-22.247 37.468 0 0 21.076-37.468 28.101-37.468 0zm0-93.67c0-4.684 9.367-11.71 11.708-11.71 10.538 0 19.905 7.026 25.76 11.71 23.418 21.075-37.468 40.98-37.468 0zm92.5 535.093c0-5.854 8.196-15.221 12.88-15.221 0 0 4.683 9.367 15.22 15.221-10.537 2.342-15.22 7.026-19.904 7.026-5.855 0-8.197-7.026-8.197-7.026zm0-93.67 8.196-10.538c4.683 0 9.367 5.854 19.905 15.221-10.538 2.342-15.222 8.196-15.222 8.196-10.538 0-12.88-5.854-12.88-12.88zm0-87.817s2.341-10.538 8.196-10.538c4.683 0 9.367 4.684 19.905 15.222l-15.222 7.025c-4.683 0-12.88-2.342-12.88-11.709zm0-83.133c0-5.854 2.341-10.538 8.196-21.075 4.683 5.854 14.05 10.537 14.05 15.221 0 5.854-9.367 10.538-14.05 12.88 0 0-8.197-2.342-8.197-7.026zm0-93.67s2.341-10.538 8.196-10.538c4.683 0 14.05 5.854 14.05 10.538 0 4.683-4.683 15.221-9.367 22.247-10.538-7.026-12.88-11.71-12.88-22.247zm0-87.817c0-5.854 8.196-5.854 8.196-10.538 4.683 4.684 14.05 10.538 14.05 15.222 0 4.683-9.367 10.538-14.05 12.88-5.855-8.197-8.197-12.88-8.197-17.564zm0-88.987s2.341-7.025 8.196-7.025c33.955 0 4.683 18.734 4.683 22.247-4.683 0-12.88-4.684-12.88-15.222z"/></svg>