<svg xmlns="http://www.w3.org/2000/svg" viewBox="0 0 1000 1000"><path d="M929,127.66c0,63-48,113-110,113-62,1-113-50-113-112a112.464,112.464,0,0,1,111-113C879,14.66,929,65.66,929,127.66Zm-4,776c-26,82-123,109-184,54-41-36-51-99-21-146,31-48,91-66,144-42C914,792.66,941,850.66,925,903.66Zm-369-403v-243c0-8,1-18-12-15-29,6-60,10-87,21-103,42-169,153-155,270,15,118,118,218,235,224,19,1,19,1,19-18Zm-483,48v-95c1-2,2-4,2-5,12-113,58-210,138-290,89-90,198-138,325-144,21-1,21-1,21,21v190c0,11,2,15,15,16,69,4,127,31,174,82,54,58,77,127,68,205-7,65-34,119-82,163-45,42-99,64-159,69-15,1-16,7-16,18v209H541c-18-2-37-3-55-6-194-36-325-146-390-332C85,617.66,80,582.66,73,548.66Z"/></svg>