<svg xmlns="http://www.w3.org/2000/svg" width="1000" height="1000">
  <path d="M500.496 5C223.572 5 5 229.506 5 500.002c0 276.43 224.506 495.001 495.002 495.001 276.43 0 495.001-224.506 495.001-495.001C995.003 226.539 773.464 5 500.496 5zM195.88 730.936c1.978-2.967 3.956-5.934 7.912-8.9 24.725-25.715 49.45-52.418 75.165-78.133 4.945-5.934 5.934-9.89 1.978-16.813-47.473-87.033-45.495-172.089 1.978-258.133 3.956-6.923 2.967-9.89-.989-14.835-27.692-24.725-52.418-49.45-79.121-76.154 23.736-25.714 48.462-50.44 73.187-77.143 29.67 28.681 59.34 57.363 87.033 84.066 93.957-53.407 185.935-53.407 279.891 1.978 27.693-27.692 54.396-56.374 83.077-87.033 25.715 25.714 50.44 49.45 77.144 74.176-17.803 18.791-33.627 35.604-51.43 53.407-9.89 10.879-19.78 20.769-29.67 31.648-1.978 1.978-2.967 8.901-.989 10.88 48.462 89.01 47.473 178.022-3.956 265.055 0 .99 0 1.978-.989 4.945 28.682 27.693 59.341 57.363 90 87.033-24.725 25.715-48.461 50.44-74.175 77.144-31.649-30.66-61.32-60.33-91.979-90-93.956 54.395-185.935 53.406-279.89-1.979-29.671 30.66-57.364 61.32-88.023 92.968-25.715-25.715-51.429-49.451-76.154-74.177zm152.308-231.429c-.989 83.077 67.253 153.297 151.32 154.286 85.054.99 154.285-67.253 155.274-152.308.99-84.066-67.253-153.297-150.33-154.286-87.033-.99-155.275 66.264-156.264 152.308z" style="fill:#000;fill-opacity:1;fill-rule:nonzero;stroke:none;"/>
</svg>
