<svg xmlns="http://www.w3.org/2000/svg" width="1000" height="1000">
  <path d="M905.814 229.211c119.732 151.09 115.456 382.002 4.276 537.369-4.276 7.127-11.403 9.978-15.679 19.955-2.85-9.977-11.403-9.977-17.105-12.828-25.656-31.359-55.59-58.44-84.097-86.948-9.978-11.403-9.978-15.68-7.127-25.657 52.74-85.523 61.291-175.322 29.933-266.546-9.978-19.956-19.955-39.911-29.933-55.59-2.85-8.553-7.127-15.68 0-19.956 32.784-34.209 68.418-66.993 99.777-98.35 0-5.702 5.701-5.702 8.552-5.702 4.276 5.701 8.552 9.977 11.403 14.253zM23.504 893.44c0-39.91 39.91-81.247 78.395-81.247 44.187 0 81.247 37.06 81.247 84.098 0 44.186-37.06 78.396-81.247 75.545-42.761 0-78.396-37.06-78.396-78.396zm0-796.788c0-42.761 35.634-74.12 78.395-74.12 44.187 0 81.247 34.21 81.247 79.821 0 42.762-41.336 78.396-81.247 78.396-42.761 0-78.396-38.485-78.396-84.097zm82.671 689.884c-146.814-175.322-121.157-434.74 0-571.577 5.702 0 5.702 5.701 8.553 5.701 31.358 31.358 62.716 64.142 95.5 94.075 8.552 8.552 8.552 15.68 0 24.232-27.082 48.463-38.485 94.075-44.187 149.665 0 61.291 11.403 116.88 44.187 166.77 8.552 15.678 8.552 15.678-4.276 31.358-28.508 28.507-54.164 55.59-86.948 84.097-4.276 2.85-7.127 5.702-12.829 15.68zm65.568 22.806c0-12.828 11.403-19.955 18.53-19.955 11.403 0 19.955 7.127 19.955 19.955 0 12.829-8.552 19.956-19.955 19.956-12.829 0-18.53-11.403-18.53-19.956zm0-617.19c0-11.403 5.701-18.53 18.53-24.231 11.403 0 19.955 8.552 19.955 21.38 0 11.404-8.552 19.956-19.955 19.956-7.127 2.85-18.53-8.552-18.53-17.105zm41.336 701.288c5.701-4.276 8.552-8.552 11.403-11.403 29.933-28.508 55.59-59.866 84.097-88.374 15.68-9.977 15.68-9.977 31.359-4.276 105.478 59.866 213.807 59.866 316.434 0 11.403-5.701 19.956-5.701 31.359 4.276 28.507 28.508 55.59 59.866 88.373 88.374 2.851 2.85 2.851 7.127 7.127 11.403-7.127 7.127-9.977 11.403-19.955 18.53-124.008 85.523-270.822 104.053-410.51 59.866-44.187-17.105-88.373-39.91-128.284-66.993-2.85-4.276-5.702-8.552-11.403-11.403zm5.701-786.81c133.986-128.285 399.107-142.538 564.451 0-4.276 2.85-4.276 5.701-7.127 11.403-32.783 29.933-59.866 58.44-91.224 91.224-8.552 5.702-17.105 11.403-24.231 2.85-106.904-58.44-215.233-58.44-320.711 0-7.127 2.852-15.68 8.553-22.806 0-32.784-35.634-62.717-64.141-95.5-94.074-2.852-5.702-2.852-8.553-2.852-11.403zm2.851 649.973c0-9.977 8.553-18.53 19.956-18.53 12.828 0 19.955 8.553 19.955 15.68 0 12.828-7.127 19.955-19.955 22.806-11.403 0-19.956-5.702-19.956-19.956zm0-511.711c0-12.829 8.553-24.232 19.956-24.232 12.828 0 19.955 11.403 19.955 19.955 0 11.403-7.127 24.232-19.955 24.232-7.127 0-19.956-12.829-19.956-19.955zm52.74 461.823c0-11.403 9.977-19.955 19.955-19.955 8.552 0 18.53 8.552 18.53 19.955 0 8.552-9.978 21.38-18.53 21.38-9.978 0-19.956-12.828-19.956-21.38zm0-411.935c0-9.978 9.977-19.955 19.955-19.955 8.552-4.277 18.53 9.977 18.53 15.679 0 12.828-9.978 24.231-18.53 24.231-9.978 0-19.956-11.403-19.956-19.955zm49.887 360.62c0-11.403 11.403-21.38 19.955-21.38 11.403 0 19.955 9.977 19.955 21.38 0 11.403-8.552 19.956-19.955 19.956-11.403 0-19.955-11.403-19.955-19.956zm0-312.158c4.276-8.552 11.403-17.105 22.806-17.105 8.552 0 17.104 8.553 17.104 17.105 0 11.403-8.552 22.806-19.955 22.806-11.403 0-19.955-11.403-19.955-22.806zm51.313 262.27c0-14.254 11.403-19.955 21.381-19.955s19.955 5.701 19.955 19.955c2.851 5.701-9.977 18.53-19.955 18.53-9.978 0-21.38-8.552-21.38-18.53zm0-210.956c4.277-7.127 11.403-17.105 24.232-17.105 7.127 0 19.955 9.978 17.104 19.955 0 9.978-9.977 19.956-19.955 19.956-12.828 0-21.38-9.978-21.38-22.806zm51.314 158.217c0-11.403 8.552-19.956 18.53-19.956 14.254 0 19.955 8.553 19.955 17.105 7.127 11.403-5.701 22.806-12.828 22.806-12.828 0-25.657-7.127-25.657-19.955zm0-102.628c0-14.253 8.552-19.955 18.53-19.955 14.254 0 19.955 5.702 19.955 15.68 7.127 9.977-5.701 22.805-12.828 22.805-12.828 0-19.955-12.828-25.657-18.53zM478.2 501.46c0-12.828 8.552-18.53 19.955-18.53 12.829-5.701 19.955 5.702 24.232 14.254 0 11.403-11.403 24.231-18.53 24.231-12.829 0-21.381-8.552-25.657-19.955zm52.739 51.314c0-11.403 11.403-19.956 19.955-19.956 11.403-2.85 19.956 8.553 24.232 19.956 0 8.552-12.829 19.955-21.381 19.955-11.403 0-19.955-11.403-22.806-19.955zm0-102.628c0-14.253 11.403-19.955 19.955-19.955 11.403 0 24.232 5.702 19.956 19.955 0 5.702-8.553 18.53-17.105 18.53-11.403 0-22.806-12.828-22.806-18.53zm51.314 155.367c0-14.254 12.828-19.955 18.53-19.955 14.253 0 19.955 5.701 22.806 19.955 0 5.701-8.553 18.53-18.53 18.53-9.978 0-19.956-12.829-22.806-18.53zm0-208.106c0-9.977 12.828-19.955 22.806-19.955 9.977 0 18.53 9.978 18.53 19.955 0 9.978-8.553 19.956-22.806 19.956-5.702 0-18.53-9.978-18.53-19.956zm51.313 253.718c4.276-7.127 9.978-17.104 22.806-17.104 8.553 0 19.956 9.977 19.956 21.38-2.851 11.403-11.403 19.956-22.806 19.956-9.978 0-19.956-11.403-19.956-24.232zm4.276-307.882c0-8.552 5.702-17.105 15.68-17.105 11.403 0 19.955 8.553 22.806 19.956 0 8.552-8.553 17.104-19.956 19.955-12.828 0-22.806-11.403-18.53-22.806zm49.889 363.472c-2.851-11.403 8.552-19.955 17.104-19.955 11.403 0 22.806 8.552 22.806 15.679 0 12.828-7.126 25.657-19.955 25.657-11.403 0-19.955-9.978-19.955-21.381zm0-411.935c-2.851-9.978 8.552-19.955 17.104-19.955 11.403-4.277 22.806 9.977 22.806 15.679 0 12.828-7.126 24.231-19.955 24.231-11.403 0-19.955-11.403-19.955-19.955zm52.739 461.823c0-9.977 7.127-18.53 19.955-18.53 5.702 0 18.53 8.553 18.53 18.53 0 9.978-5.701 19.956-18.53 19.956-12.828 0-19.955-5.702-19.955-19.956zm0-515.988c0-8.552 7.127-19.955 19.955-19.955 5.702 0 18.53 11.403 18.53 19.955 0 11.403-5.701 21.381-18.53 24.232-12.828 0-19.955-12.829-19.955-24.232zm52.739 568.727c0-12.828 5.701-19.955 18.53-19.955 9.978 0 19.955 7.127 19.955 19.955 0 12.829-12.828 19.956-19.955 19.956-12.829 0-18.53-11.403-18.53-19.956zm0-620.04c0-12.829 5.701-21.381 18.53-21.381 9.978 0 19.955 12.828 19.955 24.231 0 8.553-12.828 17.105-19.955 17.105-12.829 0-18.53-8.552-18.53-19.955zm25.657 706.989c0-47.038 35.634-84.098 79.821-84.098 42.762 5.702 78.396 41.336 78.396 81.247 0 41.336-35.634 78.396-78.396 78.396-44.187 0-79.821-31.359-79.821-75.545zm0-793.938c0-45.612 35.634-79.82 79.821-79.82 42.762 0 78.396 34.208 78.396 79.82 0 42.762-35.634 78.396-78.396 78.396-44.187 0-79.821-35.634-79.821-78.396z" style="fill:#000;fill-opacity:1;fill-rule:nonzero;stroke:none;"/>
</svg>
