<svg xmlns="http://www.w3.org/2000/svg" viewBox="0 0 1000 1000"><path d="M5 500.496c0 271.98 220.55 494.507 495.496 494.507 271.98 0 494.507-220.55 494.507-495.496C995.003 227.528 773.464 5 500.496 5 226.54 5 5 225.55 5 500.496zm149.341-39.56c10.88-152.309 125.605-281.87 273.957-316.485 302.639-68.242 550.881 265.056 381.76 534.068C707.2 843.684 496.54 895.113 330.386 798.189c-8.901-2.967-14.836-5.934-24.726 0-34.615 22.748-71.209 34.616-111.758 36.594h-7.912c22.747-34.616 27.692-45.495 33.626-74.176 2.967-10.88 5.934-22.747 5.934-33.627 2.967-11.868 0-20.769-5.934-28.681-30.66-42.528-65.275-125.605-65.275-237.363zm154.286 91.978h56.374c11.868 0 13.846 0 17.802 10.88 4.946 17.801 10.88 34.615 16.814 51.428 1.978 9.89 7.912 14.835 16.813 14.835h31.648c14.836 0 14.836 0 16.814-14.835 14.835-53.407 28.681-108.792 40.55-162.199.988-6.923 2.966-5.934 2.966-11.868h2.967c1.978 5.934 1.978 11.868 4.945 19.78 11.869 51.43 25.715 102.858 37.583 154.287 2.967 9.89 4.945 14.835 16.813 14.835h34.616c8.9 0 14.835-2.967 16.813-10.88 5.934-16.812 10.88-34.615 15.824-51.428 5.934-14.835 5.934-14.835 23.736-14.835h48.462v-34.616h-54.396c5.934-28.681 5.934-28.681 10.88-28.681h43.516v-30.66c-10.879 0-22.747-.988-33.626-.988 7.912-24.726 16.813-51.43 24.725-80.11h-48.462c-14.835 0-14.835 0-16.813 14.835-13.846 51.428-27.692 102.857-42.527 152.308 0 4.945-1.979 7.912-5.935 13.846-13.846-63.297-28.681-120.66-42.527-180.99H476.76c-13.846 60.33-25.715 117.693-40.55 178.023h-1.978c-17.802-60.33-32.637-117.693-49.45-178.023h-65.275c7.912 28.682 19.78 55.385 28.681 80.11-14.835.99-28.681.99-39.56.99v30.659h39.56c12.857 0 10.88 9.89 16.813 28.681h-56.374z"/></svg>