<?xml version="1.0" encoding="UTF-8"?><svg id="a" xmlns="http://www.w3.org/2000/svg" viewBox="0 0 1000 1000"><path d="M673.103,392.899c-20.892,4.994-41.04,13.025-59.656,23.742-8.873,5.111-18.564,10.073-28.484,14.086-6.395,2.586-12.883,4.778-19.308,6.359-12.221,3.006-24.795,4.626-37.384,4.632-41.048,.018-80.128-18.37-103.078-52.981-38.607-58.221-20.164-128.734,38.056-167.34,32.381-19.878,67.882-33.64,98.967-57.149,125.84,25.585,226.266,121.223,259.613,244.25-25.187-11.922-52.967-19.455-82.489-21.286-22.206-1.376-44.597,.514-66.238,5.687Zm36.69,76.062c-.198,.061-.388,.137-.584,.199-5.194,1.708-10.12,3.797-15.082,5.835-52.597,24.143-86.651,82.21-74.573,145.843,9.935,52.342,51.331,93.656,103.689,103.502,7.126,1.34,14.169,2.078,21.1,2.303,55.466-60.523,89.646-140.908,89.646-229.336,0-12.825-.857-25.441-2.245-37.901-43.673-4.053-86.639-1.939-121.95,9.556Zm290.207,31.039c0,276.142-223.858,500-500,500S0,776.142,0,500,223.858,0,500,0s500,223.858,500,500Zm-106.968-38.48c-12.336-13.784-26.521-25.843-41.951-36.244-27.498-137.189-131.977-246.493-266.414-280.802,27.046-27.372,37.722-52.823,30.634-104.309-.611-4.441-6.628-5.356-8.319-1.203-19.112,46.933-93.199,65.032-136.767,77.485-45.163,13.071-99.104,33.014-143.588,56.475-166.993,87.91-231.215,275.069-181.126,435.047,.197,.555,.46,1.048,.661,1.599,22.863,71.54,68.771,137.48,138.414,186.308,173.034,121.316,388.735,69.719,524.157-75.172,2.904-3.107-.085-8.323-3.932-6.506-7.891,3.73-16.247,6.609-24.904,8.721,48.999-62.041,78.331-140.373,78.331-225.611,0-11.798-.61-23.45-1.705-34.961,10.936,1.586,21.847,3.4,32.602,5.662,3.746,.789,6.463-3.635,3.907-6.488Z" fill="#231f20"/></svg>