<svg xmlns="http://www.w3.org/2000/svg" width="1000" height="1000">
  <path d="M5 500.002v-.396.396c.099 89.505 22.55 172.682 67.253 249.726C116.462 824.2 175.803 883.54 250.276 927.75c77.143 44.803 160.418 67.253 249.726 67.253 89.308 0 172.583-22.45 249.726-67.253C824.2 883.541 883.54 824.2 927.75 749.728c44.803-77.143 67.253-160.418 67.253-249.726 0-89.308-22.45-172.583-67.253-249.726-44.209-74.473-103.55-133.814-178.022-178.023C672.585 27.45 589.31 5 500.002 5c-89.308 0-172.583 22.45-249.726 67.253-74.473 44.209-133.814 103.55-178.023 178.023C27.55 327.32 5.099 410.496 5 500.002zm244.287-147.858V295.77h107.802v-88.022h55.385v88.022h41.538v-88.022h54.396v88.022c20.77 1.978 39.56 4.945 54.396 8.901 16.813 4.945 30.66 11.868 44.506 21.759 13.846 9.89 23.736 25.714 28.681 45.494 2.967 10.88 2.967 22.748 1.978 34.616 0 5.934-1.978 12.857-3.956 20.77-2.967 8.9-5.934 16.812-9.89 22.746-4.945 4.945-10.88 10.88-19.78 17.803l-12.858 7.912 7.913 1.978c5.934 1.978 11.868 3.956 17.802 6.923 6.923 2.967 13.846 6.923 19.78 10.88 10.88 6.922 17.802 17.801 23.736 29.67 4.946 12.857 7.913 27.692 7.913 45.494 0 34.616-25.715 70.22-41.539 74.176-3.956.99-94.945-.989-94.945 1.978s.989 51.429-.99 51.429c-7.911 0-6.922-.989-22.747 0v89.011h-54.396v-88.022h-41.538v88.022h-55.385v-88.022H252.254l.989-65.275h40.55c5.933 0 9.89 0 12.856-.989 1.978-.989 4.945-1.978 6.923-3.956 3.957-3.956 5.935-9.89 5.935-16.813V385.77c0-23.736-7.913-33.626-38.572-33.626zm163.187 281.87c35.604.988 95.934 0 121.649-14.836 8.9-4.945 14.835-9.89 18.79-15.824 4.946-7.912 8.902-16.814 8.902-29.67 0-18.792-8.901-33.627-27.692-42.528-5.934-2.967-13.847-5.934-23.737-8.902-28.681-8.9-48.461-5.934-97.912-4.945zm0-171.1h45.495c22.747-.99 41.538-5.934 56.373-13.847 16.814-8.9 23.737-22.747 23.737-41.538 0-9.89-3.956-19.78-9.89-26.704-6.924-8.9-15.825-13.846-26.704-17.802-22.747-7.912-46.483-6.923-79.121-6.923h-9.89zm155.275 359.012V674.563h126.594l24.725 40.55 27.693-40.55h34.615l-41.538 69.23 46.483 78.133h-40.55l-26.703-47.473-27.692 47.473h-36.594l43.517-78.132-39.56-62.902v22.352h-59.341v32.638h57.362v29.67h-57.362v56.374z" style="fill:#000;fill-opacity:1;fill-rule:nonzero;stroke:none;"/>
</svg>
