<svg xmlns="http://www.w3.org/2000/svg" width="1000" height="1000">
  <path d="M500.496 5C223.572 5 5 229.506 5 500.002c0 276.43 224.506 495.001 495.002 495.001 276.43 0 495.001-224.506 495.001-495.001C995.003 226.539 773.464 5 500.496 5zM176.1 359.067v-26.703c.99-9.89 31.649-4.945 46.484 0 69.231 18.791 144.396 33.626 212.638 50.44 33.627 9.89 61.32 5.934 92.968-8.902 74.176-35.604 148.352-74.176 222.528-109.78 14.835-5.934 32.637-13.846 51.429-22.748 13.846 36.594 6.923 42.528-28.682 58.352-152.309 79.121-308.573 153.297-462.86 227.474-41.538 23.736-88.022 42.527-130.55 65.274-16.813-37.582 0-51.428 22.748-60.33 56.374-27.692 112.747-56.373 168.132-84.066 13.846-8.9 27.693-14.835 47.473-27.692-85.055-23.736-159.231-38.572-242.309-61.319zm3.957 399.562c-16.814-31.649 0-44.506 22.747-55.385 70.22-31.648 140.44-63.297 210.66-101.868 114.726-55.385 226.484-110.77 341.21-168.133 14.835-6.923 38.571-21.758 47.473-12.857 13.846 32.637-4.946 42.528-23.737 51.429-55.385 27.692-110.77 55.385-167.143 83.077-12.857 4.945-27.693 14.835-55.385 27.692 27.692 9.89 46.484 14.836 61.319 18.792 59.34 14.835 95.934 23.736 148.352 38.571 12.857 3.956 39.56 6.923 40.55 16.813 0 6.924-.99 14.836-3.956 18.792-4.946 5.934-32.638 0-47.473-3.956-69.231-18.792-143.407-31.649-211.65-50.44-27.692-10.88-57.362-4.945-85.054 7.912-73.188 38.572-157.254 74.176-231.43 111.759-14.835 6.923-31.648 13.846-46.483 17.802zm0-500.441c0-7.912 2.967-11.869 9.89-8.901 91.978 22.747 189.89 42.527 282.858 70.22 12.857 3.956 12.857 12.857 12.857 31.648-105.825-18.791-197.803-40.55-290.77-70.22-15.824-3.956-15.824-9.89-14.835-22.747zm0-68.242c3.956-12.858 5.934-16.814 9.89-14.836 97.912 18.792 189.89 42.528 287.803 70.22 15.824 3.957 13.846 10.88 13.846 31.649-106.814-18.791-199.78-46.484-292.748-70.22-11.868-2.967-19.78-3.956-18.791-16.813zm.989 476.705c-16.814-33.627 3.956-44.506 22.747-54.396 55.385-23.737 450.001-216.594 546.925-261.1 18.791-8.901 50.44-19.78 56.374-5.934 14.835 28.681-14.836 33.626-33.627 43.517-101.868 50.44-202.748 101.868-304.616 148.352-84.067 41.538-167.144 83.077-250.22 119.67-20.77 9.89-33.627 15.825-37.583 9.89zm304.616 57.362c-3.956-5.934 327.364 75.165 320.44 85.056-9.89 14.835-19.78 22.747-32.637 18.79-82.088-18.79-167.143-41.538-249.231-59.34-38.572-8.901-38.572-29.67-38.572-44.506zm14.835-71.209c92.968 18.792 190.88 41.539 282.858 65.275 22.748 3.956 27.693 11.868 13.846 27.693-5.934 8.9-14.835 7.912-31.648 3.956-80.11-18.792-159.231-35.605-237.363-55.385-12.858-3.956-36.594-9.89-27.693-41.539z" style="fill:#000;fill-opacity:1;fill-rule:nonzero;stroke:none;"/>
</svg>
