<svg xmlns="http://www.w3.org/2000/svg" viewBox="0 0 1000 1000"><path d="M500,0C223.858,0,0,223.858,0,500s223.858,500,500,500,500-223.858,500-500S776.142,0,500,0Zm238.264,213.48c15.08,15.08,33.176,30.16,45.24,45.24l-141.752,120.64c-6.032-9.048-15.08-15.08-24.128-24.128l120.64-141.752Zm-238.264,660.503c-205.088,0-370.968-165.88-370.968-373.984S291.896,126.016,500,126.016v186.992c-102.544,0-186.992,84.448-186.992,186.992s84.448,186.992,186.992,186.992c54.288,0,108.576-24.128,141.752-66.352l141.752,120.64c-69.368,84.448-174.928,132.704-283.504,132.704Zm322.712-186.992l-159.848-93.496c3.016-9.048,9.048-18.096,12.064-30.16l174.928,63.336c-6.032,21.112-18.096,39.208-27.144,60.32Zm-135.72-186.992c0-12.064,0-21.112-3.016-33.176l180.96-33.176c3.016,21.112,6.032,42.224,6.032,66.352h-183.976Z"/></svg>