<svg xmlns="http://www.w3.org/2000/svg" viewBox="0 0 1000 1000"><path d="M253.6,206.9H91.8L291.2,7.6h94.7C360.2,22.4,275.3,128,253.6,206.9Zm498.4,0H908.8L707.5,7.6H618.7C682.7,66,727.3,147.7,752,206.9ZM737.5,355.6a85.315,85.315,0,0,1,15.3,31.8,152.1,152.1,0,0,1,4.3,35.6V584.8a147.582,147.582,0,0,1-4.3,35.6,82.366,82.366,0,0,1-15.3,31.8A93.073,93.073,0,0,1,711,675.7a105.363,105.363,0,0,1-33.1,12.8,183.646,183.646,0,0,1-35.6,3.5,191.872,191.872,0,0,1-35.6-3.6,103,103,0,0,1-33.1-12.8,93.243,93.243,0,0,1-26.5-23.5,85.315,85.315,0,0,1-15.3-31.8,152.1,152.1,0,0,1-4.3-35.6V423a147.582,147.582,0,0,1,4.3-35.6,82.366,82.366,0,0,1,15.3-31.8,93.073,93.073,0,0,1,26.5-23.5,104.439,104.439,0,0,1,33.1-12.8,182.8,182.8,0,0,1,71.2,0A103,103,0,0,1,711,332.1,94.606,94.606,0,0,1,737.5,355.6ZM695.3,423a67.96,67.96,0,0,0-3.3-20.8,40.189,40.189,0,0,0-11-17.5,45.06,45.06,0,0,0-18-10.3,73.607,73.607,0,0,0-41.6,0,43.281,43.281,0,0,0-18,10.3,39.3,39.3,0,0,0-11,17.5,67.486,67.486,0,0,0-3.3,20.8V584.8a64.7,64.7,0,0,0,3.3,20.5,41.989,41.989,0,0,0,11,17.5,43.241,43.241,0,0,0,18,10.5,73.607,73.607,0,0,0,41.6,0,43.241,43.241,0,0,0,18-10.5,41.989,41.989,0,0,0,11-17.5,65.16,65.16,0,0,0,3.3-20.5ZM565.4,7.6H521V206.9H714.4C669.5,99.6,596.4,29.3,565.4,7.6Zm-145,488.1q52.05,23.55,52.1,83.1a146.743,146.743,0,0,1-4.5,36.3,92.479,92.479,0,0,1-15.5,32.6,87.381,87.381,0,0,1-27,24,111.157,111.157,0,0,1-33.8,12.8,190.879,190.879,0,0,1-36.3,3.5H243.1V319.8H355.3a145.468,145.468,0,0,1,32.8,3.8,89.648,89.648,0,0,1,30.1,13A79.13,79.13,0,0,1,441,359.9,91.161,91.161,0,0,1,453.5,390a154.257,154.257,0,0,1,3.5,32.6C457,455.7,444.8,480,420.4,495.7ZM304.6,469.6h50.6a47.937,47.937,0,0,0,17.3-3.3A30.339,30.339,0,0,0,386,455.8a44.641,44.641,0,0,0,7.3-15.8,78.257,78.257,0,0,0,2-17.5,79.922,79.922,0,0,0-2-17.3,41.533,41.533,0,0,0-7.3-15.8,31.812,31.812,0,0,0-13.5-10.5,44.566,44.566,0,0,0-17.3-3.5H304.6ZM410.9,578.7a68.659,68.659,0,0,0-3.5-21.5,42.864,42.864,0,0,0-11.5-18,44.255,44.255,0,0,0-18.8-10.5,80.737,80.737,0,0,0-21.8-3H304.7V632.4h50.6v-.1a81.282,81.282,0,0,0,21.8-3,43.368,43.368,0,0,0,18.8-10.8,45.173,45.173,0,0,0,11.5-18.3A68.659,68.659,0,0,0,410.9,578.7ZM291.2,206.9H482.6V7.6H437.2C352.7,68.4,304.6,165.8,291.2,206.9ZM614.8,992.4h94.7L908.8,793.1H747C725.3,872,640.4,977.6,614.8,992.4ZM518.1,793.1V992.4h45.4c84.5-60.8,132.6-158.2,146-199.3Zm-269.4,0H91.8L293.1,992.4h88.8C318,934,273.4,852.3,248.7,793.1ZM435.2,992.4h44.4V793.1H286.2C331.2,900.4,404.3,970.7,435.2,992.4Z"/></svg>