<svg xmlns="http://www.w3.org/2000/svg" viewBox="0 0 1000 1000"><path d="M500.496 5C223.572 5 5 229.506 5 500.002c0 276.43 224.506 495.001 495.002 495.001 276.43 0 495.001-224.506 495.001-495.001C995.003 226.539 773.464 5 500.496 5zM152.363 285.88h4.945c18.791 20.77 39.56 39.56 58.352 59.34 49.45 37.583 102.858 58.353 160.22 67.254 24.726 3.956 35.605 14.835 35.605 34.615 3.956 38.572 9.89 78.132 9.89 117.693-9.89-4.945-20.77-10.88-29.67-10.88-48.462-22.746-101.869-33.626-156.265-39.56-15.824 0-23.736-3.956-29.67-23.736-19.78-67.253-33.627-136.484-53.407-204.726zm78.132 273.957c67.253 4.945 127.583 19.78 180.99 53.407 9.89 3.956 13.846 14.835 17.802 19.78 6.923 58.352 10.88 115.715 15.824 180.99v3.956c-4.945 0-15.824-3.956-19.78-8.901-28.681-24.726-67.253-39.561-112.748-44.506-18.79 0-28.681-9.89-32.637-28.681-12.857-59.341-35.605-118.682-49.45-176.045zM337.31 354.122c0-26.703 70.22-35.604 117.693-47.473 14.835-3.956 23.736-5.934 23.736-25.714 0-24.725-3.956-48.462-3.956-67.253-4.945-24.725 3.956-44.506 24.725-44.506 23.736 0 38.572 23.737 29.67 44.506-14.835 29.67 0 53.407 0 82.088 0 4.945 3.957 10.88 14.836 10.88 85.055 21.758 120.66 20.769 120.66 47.472 0 4.945-9.89 10.88-14.836 10.88-3.956 0-13.846-5.935-13.846-10.88 0-14.835-13.846-19.78-24.725-19.78-34.616 0-63.297 4.945-96.924 4.945h-24.725c-66.264 0-53.407-19.78-121.649 14.835-19.78 13.846-30.66 14.835-30.66 0zm107.802 28.681v-23.736H557.86c0 40.55 0 73.187-4.945 112.748-13.846 106.813-14.835 213.627-23.736 323.407 0 27.693-10.88 57.363-25.715 86.045-24.725-28.682-28.681-58.352-33.626-91.979-3.956-136.484-14.835-274.946-24.726-406.485zm107.803 431.21c4.945-39.56 8.901-78.131 14.835-122.637V676.54c-5.934-48.462 24.725-73.187 63.297-88.023 48.462-13.846 92.967-28.681 140.44-28.681-13.846 53.407-28.681 102.857-42.528 157.253-4.945 31.649-24.725 42.528-53.406 52.418-44.506 4.945-78.132 29.67-122.638 44.506zm23.736-249.23c4.945-50.44 9.89-92.968 15.825-132.529 4.945-4.945 8.9-9.89 14.835-14.835 7.912-4.945 18.791-4.945 28.681-4.945 68.242-12.857 131.539-43.517 180.99-96.924 7.912-14.835 18.791-19.78 32.637-29.67-13.846 48.462-24.725 96.923-38.571 141.43-3.956 29.67-8.901 63.296-23.737 79.12-19.78 13.846-54.395 7.912-79.12 18.791-28.682 5.935-58.353 13.847-86.045 24.726-14.835 3.956-24.725 9.89-45.495 14.835z"/></svg>