<svg width="1000" height="1000" viewBox="0 0 1000 1000" fill="none" xmlns="http://www.w3.org/2000/svg">
<path fill-rule="evenodd" clip-rule="evenodd" d="M500 995C773.381 995 995 773.381 995 500C995 226.619 773.381 5 500 5C226.619 5 5 226.619 5 500C5 773.381 226.619 995 500 995ZM201 285.731L346.731 140H415.99C397.232 150.822 335.188 228.016 319.317 285.731H201ZM486.691 140V285.731H346.731C356.591 255.671 391.75 184.441 453.505 140H486.691ZM514.828 285.731H656.23C623.333 207.238 569.898 155.872 547.293 140H514.828V285.731ZM798.355 285.731H683.645C665.609 242.445 633 182.709 586.25 140H651.18L798.355 285.731ZM315.709 714.268H201L348.174 860H413.104C366.355 817.291 333.745 757.555 315.709 714.268ZM343.124 714.268H484.527V860H452.062C429.457 844.128 376.022 792.761 343.124 714.268ZM512.663 714.268V860H545.85C607.605 815.559 642.764 744.329 652.623 714.269L512.663 714.268ZM652.623 860L798.355 714.269H680.038C664.166 771.984 602.122 849.178 583.365 860H652.623ZM366.044 656.841C380.737 664.344 397.15 668.096 415.282 668.096H550.336V619.795L491.25 620.733V618.857C497.19 614.793 502.817 608.697 508.132 600.569C513.759 592.441 518.605 582.906 522.669 571.964C527.046 561.022 530.328 549.142 532.517 536.324C535.018 523.507 536.268 510.533 536.268 497.403C536.268 472.392 533.454 449.571 527.827 428.938C522.2 407.992 514.228 390.016 503.911 375.01C493.595 360.004 481.09 348.437 466.396 340.308C451.703 331.867 435.29 327.647 417.158 327.647C399.026 327.647 382.456 331.867 367.45 340.308C352.757 348.437 340.096 360.004 329.466 375.01C319.15 390.016 311.178 408.148 305.551 429.407C299.923 450.665 297.11 474.112 297.11 499.747C297.11 526.008 299.767 549.611 305.082 570.557C310.709 591.19 318.681 608.853 328.997 623.547C339.314 637.928 351.663 649.026 366.044 656.841ZM474.368 453.322C477.182 467.703 478.589 483.178 478.589 499.747C478.589 515.378 477.338 530.384 474.837 544.765C472.336 558.833 468.428 571.338 463.114 582.28C458.112 592.91 451.703 601.507 443.887 608.072C436.384 614.324 427.631 617.451 417.627 617.451C407.623 617.451 398.713 614.481 390.897 608.541C383.394 602.288 376.985 594.004 371.671 583.687C366.356 573.058 362.292 560.553 359.478 546.172C356.665 531.791 355.258 516.316 355.258 499.747C355.258 483.178 356.509 467.703 359.01 453.322C361.823 438.942 365.887 426.593 371.202 416.276C376.517 405.647 382.925 397.362 390.428 391.423C398.244 385.17 407.154 382.044 417.158 382.044C426.849 382.044 435.446 385.17 442.949 391.423C450.765 397.362 457.33 405.647 462.645 416.276C467.959 426.593 471.867 438.942 474.368 453.322ZM629.425 336.088V668.096H685.698V336.088H629.425Z" fill="black"/>
</svg>
