<svg xmlns="http://www.w3.org/2000/svg" width="1000" height="1000">
  <path d="M5 500.496C5 225.55 226.54 5 500.496 5c272.968 0 494.507 222.528 494.507 494.507 0 274.946-222.528 495.496-494.507 495.496C225.55 995.003 5 772.475 5 500.496zm111.759 6.923c0 101.869 58.351 166.155 159.23 181.979 54.397 7.912 148.353-38.572 200.77-104.836-11.867-12.857-25.714-24.725-40.549-38.571-22.747 38.571-53.407 72.198-110.77 90-38.57 10.88-73.186 1.978-111.758-24.725-52.418-36.594-52.418-100.88-38.572-148.352 12.858-52.418 76.155-85.056 150.33-65.275 57.363 12.857 90.99 65.275 125.605 109.78 38.572 38.572 63.297 91.979 116.704 128.572 28.682 27.693 65.275 40.55 111.759 53.407h24.725c76.154-12.857 129.561-53.407 158.242-117.693h-41.538c-40.55 64.286-129.561 91.978-187.913 51.429-90-51.429-177.033-203.737-196.814-223.517-21.758-31.649-74.176-60.33-154.286-60.33-83.077 0-165.165 71.209-165.165 168.132zm397.583-73.187c8.901 19.78 14.836 28.682 28.682 47.473 24.725-34.616 64.286-66.264 101.868-84.066 86.044-41.539 176.045 5.934 176.045 109.78h-161.21v38.572h216.595v-38.572c0-96.923-80.11-171.1-172.089-171.1-86.044 0-135.495 27.693-189.89 97.913z" style="fill:#000;fill-opacity:1;fill-rule:nonzero;stroke:none;"/>
</svg>
