<svg xmlns="http://www.w3.org/2000/svg" width="1000" height="1000">
  <path d="M485.165 584.562c0-1.978.791-3.758 2.472-5.44 1.682-1.68 3.66-2.472 5.934-2.472 2.275 0 4.253.791 5.934 2.473 1.682 1.681 2.473 3.66 2.473 5.934 0 2.275-.791 4.253-2.473 5.934-1.68 1.681-3.659 2.472-5.934 2.472-2.274 0-4.252-.79-5.934-2.472-1.681-1.681-2.472-3.758-2.472-6.429zM5.493 499.507c0-89.703 22.45-172.78 67.253-249.231 44.209-74.473 103.55-133.814 178.022-178.023C327.22 27.45 410.296 5 500 5c89.704 0 173.078 22.45 250.22 67.253 74.473 44.209 133.518 103.55 177.034 178.023 44.803 76.45 67.253 159.528 67.253 249.231 0 89.704-22.45 173.078-67.253 250.22-43.516 74.474-102.56 133.518-177.033 177.034-77.143 45.495-160.517 68.242-250.221 68.242-89.704 0-172.78-22.747-249.232-68.242-74.472-43.516-133.813-102.56-178.022-177.033C27.943 672.585 5.493 589.21 5.493 499.508zm144.396.495c0 63.593 16.12 122.44 48.462 176.539 30.956 52.714 72.89 94.648 125.604 125.605 54.1 31.648 112.748 47.472 176.045 47.472 63.297 0 122.341-15.824 177.034-47.472 52.714-30.957 94.648-72.89 125.604-125.605 31.649-54.1 47.473-113.045 47.473-177.034 0-27-2.967-53.407-8.901-79.121H514.835v16.813h-42.527a29.924 29.924 0 0 0-7.913-9.89c-3.263-2.67-7.417-3.956-12.362-3.956s-9.396 1.978-13.352 5.934c-3.956 3.956-5.934 8.703-5.934 14.34 0 5.638 1.978 10.583 5.934 14.836 3.956 4.253 8.407 6.429 13.352 6.429s9.099-1.286 12.362-3.956a29.924 29.924 0 0 0 7.913-9.89h42.527v20.769h-2.967c-1.978-3.956-4.648-7.121-7.912-9.396-3.264-2.275-7.418-3.461-12.363-3.461-4.945 0-9.395 1.978-13.351 5.934-3.956 3.956-5.934 8.703-5.934 14.34 0 5.638 1.978 10.385 5.934 14.341 3.956 3.956 8.406 5.934 13.351 5.934s9.1-1.286 12.363-3.956a29.924 29.924 0 0 0 7.912-9.89h2.967v92.967h-1.978c-1.286-3.956-3.66-7.22-6.923-9.89-3.264-2.67-7.615-3.956-12.857-3.956-5.242 0-9.89 1.978-13.846 5.934-3.956 3.956-5.934 8.703-5.934 14.34 0 5.638 1.978 10.386 5.934 14.342 3.956 3.956 8.604 5.934 13.846 5.934 5.242 0 9.593-1.286 12.857-3.956 3.264-2.67 5.637-5.934 6.923-9.89h1.978v21.758h45.495c-18.495 9.89-38.572 14.835-60.33 14.835-23.044 0-44.308-5.736-63.791-17.308-19.484-11.571-34.913-27-46.484-46.483-11.572-19.484-17.308-40.847-17.308-64.286 0-23.44 5.736-44.803 17.308-64.286 11.571-19.484 27-34.912 46.484-46.484 19.483-11.571 40.747-17.308 63.791-17.308 27 0 51.429 7.616 73.187 22.748h261.1c-15.132-47.473-39.066-89.704-71.704-126.594-32.637-36.89-71.407-65.572-116.209-86.044-46.187-21.759-94.945-32.638-146.374-32.638-63.297 0-121.945 16.121-176.045 48.462-52.714 30.956-94.648 72.89-125.604 125.605-32.341 54.099-48.462 112.945-48.462 176.539zm16.813-.495c0-48.758 10.187-95.143 30.66-138.956 20.472-43.814 48.956-81.792 85.55-113.737 36.593-31.945 78.33-54.594 125.11-67.748l6.923-1.978 37.582 171.1c15.132-4.648 30.66-6.923 46.484-6.923 17.802 0 35.308 2.967 52.418 8.901 3.263-3.956 7.417-5.934 12.362-5.934s9.1 1.681 12.363 4.945c3.264 3.264 4.945 7.22 4.945 11.868 0 4.648-1.681 8.605-4.945 11.868-3.264 3.264-7.22 4.945-11.868 4.945-7.22 0-12.56-3.263-15.824-9.89-15.825-5.934-32.341-8.9-49.451-8.9-25.714 0-49.253 6.23-70.715 18.79-21.461 12.56-38.373 29.67-50.934 51.43-12.56 21.757-18.791 45.296-18.791 70.714 0 25.417 6.23 48.758 18.791 70.22 12.56 21.461 29.473 38.571 50.934 51.428 21.462 12.858 45 19.286 70.715 19.286 19.78 0 38.868-4.253 57.363-12.857.692-3.264 2.472-6.132 5.44-8.407 2.966-2.274 6.626-3.461 10.879-3.461 4.252 0 8.11 1.681 11.373 4.945 3.264 3.264 4.945 7.22 4.945 11.868 0 4.648-1.681 8.604-4.945 11.868-3.264 3.264-7.22 4.945-11.868 4.945-4.648 0-8.604-1.681-11.868-4.945-16.517 7.22-33.923 11.572-52.418 12.857l26.703 173.078h-6.923a207.303 207.303 0 0 1-28.681 1.978c-48.165 0-94.154-10.187-137.968-30.66-43.813-20.472-81.593-48.758-113.242-85.055-31.648-36.297-54.395-77.44-68.242-123.627l-1.978-6.923 168.133-50.44c-3.264-12.56-4.945-24.725-4.945-36.593 0-32.34 9.198-61.813 27.692-88.517 18.495-26.703 42.231-45.989 71.21-57.857l-34.616-159.231c-43.517 13.846-82.385 35.9-116.704 66.264-34.319 30.362-61.022 66.264-80.11 107.802-19.088 41.539-28.682 85.352-28.682 131.54 0 13.153.693 26.01 1.978 38.57l123.627-36.593v-1.978c0-31.648 7.418-61.615 22.253-90 14.835-28.385 35.407-51.429 61.813-69.231a17.79 17.79 0 0 1-.989-5.934c-.692-6.627 1.978-11.572 7.913-14.835 5.934-3.264 11.67-3.264 17.307 0 5.638 3.263 8.407 8.11 8.407 14.34 0 6.231-2.67 11.176-7.912 14.835-5.242 3.66-10.583 4.154-15.824 1.484-25.023 16.516-44.506 38.077-58.352 64.78-13.847 26.704-20.77 54.89-20.77 84.561v11.868l-148.352 44.506-.989-7.912c-1.978-15.824-2.967-31.945-2.967-48.462zm27.693 95.935c13.846 43.516 35.9 82.286 66.264 116.209 30.362 33.923 66.263 60.33 107.802 79.12 41.539 18.792 85.055 28.188 130.55 28.188h20.77l-24.726-161.21c-33.627-.692-63.791-11.175-90.495-31.648-26.703-20.473-45.297-46.187-55.88-77.143l-20.768 5.934c8.604 27.692 23.241 51.923 44.01 72.692 20.77 20.77 45 35.407 72.693 44.012 3.264-5.934 8.209-8.902 14.835-8.902 4.649 0 8.605 1.682 11.869 4.946 3.263 3.263 4.945 7.417 4.945 12.362s-1.682 9.1-4.945 12.363c-3.264 3.264-7.121 4.945-11.374 4.945s-7.714-1.187-10.385-3.462c-2.67-2.274-4.648-5.142-5.934-8.406-30.363-9.198-57.066-25.022-80.11-47.473-23.044-22.45-39.264-48.758-48.462-79.121zm250.22-151.814c0-2.275.791-4.253 2.473-5.934 1.681-1.682 3.461-2.473 5.44-2.473 2.67 0 4.747.791 6.428 2.473 1.681 1.681 2.472 3.66 2.472 5.934 0 2.275-.79 4.253-2.472 5.934-1.681 1.681-3.66 2.472-5.934 2.472-2.275 0-4.253-.79-5.934-2.472-1.682-1.681-2.473-3.66-2.473-5.934zm5.934-273.463 6.923-.989c13.847-1.285 27.693-1.978 41.539-1.978 44.802 0 87.726 8.407 128.572 25.22 40.846 16.813 76.846 40.846 107.802 72.198 30.957 31.352 55.088 67.748 72.198 109.286l3.957 8.901H636.484l-1.978-1.978c-18.495-21.066-40.747-37.088-66.759-47.967-26.01-10.879-52.912-15.33-80.604-13.351l-5.934.989zm15.825 11.869 24.725 123.626c28.978-.692 56.67 4.45 83.077 15.33 26.407 10.88 49.154 27.198 68.242 48.956H790.77c-25.714-58.055-64.978-104.143-117.692-138.462-52.715-34.319-110.77-51.429-174.067-51.429a270.34 270.34 0 0 0-32.637 1.979zm17.802 296.704c0-1.978.791-3.758 2.472-5.44 1.682-1.681 3.66-2.472 5.934-2.472 2.275 0 4.253.79 5.934 2.472 1.682 1.682 2.473 3.66 2.473 5.934 0 2.275-.791 4.253-2.473 5.934-1.68 1.682-3.659 2.473-5.934 2.473-2.274 0-4.252-.791-5.934-2.473-1.681-1.68-2.472-3.758-2.472-6.428zm30.66 112.747v-12.857h162.198l-4.946 8.901c-12.56 24.429-29.175 45-49.945 61.814-20.769 16.813-44.01 28.879-69.725 36.099l23.736 124.616c60.627-15.132 112.55-45.792 155.77-91.979 43.22-46.187 70.418-99.89 81.594-161.209h-252.2a29.924 29.924 0 0 1-7.911 9.89c-3.264 2.67-7.418 3.956-12.363 3.956-4.945 0-9.396-1.978-13.352-5.934-3.956-3.956-5.934-8.703-5.934-14.34 0-5.638 1.978-10.385 5.934-14.341 3.956-3.956 8.407-5.934 13.352-5.934s9.099 1.186 12.363 3.461c3.264 2.275 5.934 5.44 7.912 9.396h254.177l1.978-23.737H597.912c-1.285 3.956-3.758 7.22-7.417 9.89-3.66 2.67-7.912 3.957-12.857 3.957-4.945 0-9.396-1.978-13.352-5.934-3.956-3.957-5.934-8.704-5.934-14.341 0-5.638 1.978-10.385 5.934-14.34 3.956-3.957 8.407-5.935 13.352-5.935s9.197 1.286 12.857 3.956 6.132 5.934 7.417 9.89h220.55v-20.77H514.836v-13.845h302.639c-.693-7.912-1.682-14.835-2.967-20.77H514.835V437.2h311.54l.989 5.934a323.79 323.79 0 0 1 4.945 56.374c0 50.737-11.176 99.1-33.627 144.89-22.45 45.792-53.406 84.561-92.967 116.21-39.56 31.648-84.066 53.11-133.517 64.286l-6.923.989-27.692-149.341 5.934-1.978c23.044-5.934 44.307-16.121 63.791-30.66 19.484-14.538 35.11-31.945 46.978-52.418zm19.285-37.088c1.681 2.967 4.154 4.451 7.418 4.451 2.67 0 4.648-.791 5.934-2.473 1.285-1.68 1.978-3.659 1.978-5.934 0-2.274-.693-4.252-1.978-5.934-1.286-1.681-3.462-2.472-6.429-2.472s-5.242 1.285-6.923 3.956c-1.681 2.67-1.681 5.44 0 8.406zm36.099-41.538c0 2.275.791 4.253 2.473 5.934 1.68 1.681 3.758 2.472 6.428 2.472 1.978 0 3.758-.79 5.44-2.472 1.681-1.681 2.472-3.66 2.472-5.934 0-2.275-.791-4.253-2.472-5.934-1.682-1.682-3.66-2.473-5.934-2.473-2.275 0-4.253.791-5.934 2.473-1.682 1.681-2.473 3.66-2.473 5.934z" style="fill:#000;fill-opacity:1;fill-rule:nonzero;stroke:none;"/>
</svg>
