<svg xmlns="http://www.w3.org/2000/svg" width="1000" height="1000">
  <path d="M5 500.002v.395-.395c.099-89.506 22.55-172.682 67.253-249.726 44.209-74.473 103.55-133.814 178.023-178.023C327.419 27.45 410.694 5 500.002 5c89.308 0 172.583 22.45 249.726 67.253C824.2 116.462 883.54 175.803 927.75 250.276c44.803 77.143 67.253 160.418 67.253 249.726 0 89.308-22.45 172.583-67.253 249.726C883.541 824.2 824.2 883.54 749.728 927.75c-77.143 44.803-160.418 67.253-249.726 67.253-89.308 0-172.583-22.45-249.726-67.253-74.473-44.209-133.814-103.55-178.023-178.022C27.55 672.684 5.099 589.508 5 500.002zm176.045 249.726c37.582 46.483 85.055 84.066 137.473 111.758 118.681 62.308 268.022 55.385 388.682-16.813 84.066-50.44 184.946-180 184.946-257.144H790.277c-1.978 0-1.978 0-2.967 1.978-17.802 76.155-89.011 151.32-167.143 187.913-35.605 16.813-74.176 23.736-113.737 25.715-77.143 0-147.363-24.726-205.715-75.166-169.121-145.385-123.627-423.298 73.187-506.375 109.78-46.484 227.474-33.626 319.452 45.495 40.55 34.615 76.154 86.044 93.956 140.44.99 1.978.99 1.978 2.967 1.978h101.869c-22.747-93.957-72.198-169.122-149.341-231.43-68.242-55.384-157.254-84.066-237.364-84.066-98.901 0-183.956 28.682-264.067 93.957-171.1 139.45-193.846 396.594-60.33 561.76zm226.484-278.902c8.9 25.714 24.725 45.494 47.473 58.352 1.978 0 2.967 1.978 2.967 2.967v115.714h81.099V532.145c0-.99 1.978-2.967 2.967-2.967 30.66-15.825 46.483-43.517 50.44-78.133 6.923-57.362-45.495-107.802-106.814-99.89-60.33 10.88-95.934 68.242-78.132 119.67z" style="fill:#000;fill-opacity:1;fill-rule:nonzero;stroke:none;"/>
</svg>
