<svg xmlns="http://www.w3.org/2000/svg" viewBox="0 0 1000 1000"><path d="M500.496 995.003c275.935 0 494.507-224.506 494.507-495.496C995.003 226.54 773.464 5 500.496 5 223.572 5 5 229.506 5 499.507c0 276.924 224.506 495.496 495.496 495.496zM176.1 381.814c0-48.461.99-80.11 0-113.736 0-28.682 13.847-43.517 42.528-43.517 80.11 0 155.275-12.857 223.517-57.363 11.868-6.923 22.748-15.824 34.616-23.736 16.813-12.857 32.637-13.846 49.45 0 72.199 58.352 155.276 81.1 247.254 81.1H788.3c22.748 0 38.572 14.834 37.583 35.604-2.967 126.594-1.978 253.187-30.66 378.792-17.802 74.176-59.34 129.561-126.593 167.144-49.451 26.703-97.913 57.362-146.375 86.044-13.846 8.901-27.692 8.901-42.527 0-43.517-26.704-85.055-55.385-129.561-77.143-88.022-45.495-136.484-115.715-149.341-210.66-10.88-78.132-16.813-157.254-24.726-222.529zm75.166-78.132c1.978 99.89 4.945 199.781 23.736 298.683 11.868 64.286 42.528 112.747 100.88 142.418 40.549 20.769 78.132 44.505 117.692 67.253 3.956 2.967 9.89 2.967 13.846 1.978 48.462-27.693 96.924-56.374 144.396-85.056 32.638-19.78 55.385-48.461 64.286-84.066 10.88-43.516 20.77-86.044 24.726-129.56 6.923-72.199 9.89-142.419 13.846-215.606-5.934-.989-7.912-1.978-9.89-1.978-85.056-3.956-164.177-26.703-234.397-75.165-8.9-6.923-13.846-2.967-20.769 1.978-46.484 29.67-96.923 51.429-151.32 61.319-27.692 6.923-57.362 8.901-86.043 13.846-.99 1.978-.99 2.967-.99 3.956z"/></svg>