<svg xmlns="http://www.w3.org/2000/svg" width="1000" height="1000">
  <path d="M319.496 561.13c-39.866-4.43-79.732-4.43-120.705-7.752 17.718-35.436 33.222-74.194 45.403-105.2 4.43-1.108 7.752-1.108 15.503-1.108h63.12c-17.717-63.12-47.616-110.738-96.341-142.852-47.617-37.651-100.772-53.154-156.14-53.154-17.719 0-24.363-7.752-29.9-19.933C29.362 200.124 16.074 177.977 5 146.97c45.403-6.644 84.16-6.644 128.456 3.322 131.778 23.255 234.764 93.02 295.67 219.261 9.967 19.933 14.396 44.295 19.933 67.55 2.215 6.645 9.966 9.967 12.181 9.967 27.685 3.322 57.584 0 84.161 0 54.262-253.59 318.925-326.677 449.596-292.348-12.181 28.791-26.577 58.69-39.866 88.59-3.322 7.752-13.288 7.752-19.932 7.752-106.309 5.537-193.792 45.402-246.946 142.852-9.966 13.288-15.503 33.22-25.47 56.476h122.92c-16.611 36.543-29.9 69.765-44.296 99.664-3.322 6.644-9.966 6.644-15.503 6.644H668.32c6.644 39.866 24.362 69.765 47.617 97.45 59.799 65.335 132.886 96.342 219.262 98.556 9.966 0 16.61 2.215 23.254 14.396 9.967 29.9 24.363 56.477 36.544 88.59-29.9 0-57.584 4.43-87.483 0-148.389-12.18-262.449-78.623-332.214-215.938-13.288-19.933-19.933-46.51-26.577-68.658-3.322-9.966-6.644-14.396-16.61-14.396h-76.41c-2.214 0-5.537 8.86-6.644 14.396-40.973 148.389-143.96 234.765-285.704 272.416-44.295 9.966-90.805 6.644-133.993 9.966H9.43c13.289-33.221 26.578-66.443 43.188-96.342 0-4.43 9.967-6.644 17.718-6.644 119.597-12.182 212.617-69.765 249.16-189.362z" style="fill:#000;fill-opacity:1;fill-rule:nonzero;stroke:none;"/>
</svg>
