<svg xmlns="http://www.w3.org/2000/svg" viewBox="0 0 1000 1000"><path d="M5 35.557h989.998v928.887H5zM71 863c0 25.666 12.222 35.444 35.445 35.444 132-4.889 262.777-4.889 392.332-4.889 133.222 0 264 0 398.443 4.889 24.445 0 33-9.778 33-35.444V130.89c0-24.444-8.555-30.555-30.555-30.555h-793.22c-23.223 0-35.445 6.111-35.445 30.556C77.111 372.89 77.111 618.556 71 863zm75.778-294.555v-402.11H517.11C394.888 303.223 273.89 434 146.778 568.445zm4.889 260.333V687c0-4.889 4.888-9.778 12.222-15.889 34.222-34.222 69.666-70.888 106.333-111.222 79.444 90.445 155.222 177.222 237.11 268.889zm162.555-325.11c96.555-108.778 196.777-221.222 293.332-326.333 6.111-7.333 8.556-11 19.556-11 70.888-4.889 146.666 0 227.332 0-100.221 110-201.666 221.221-301.888 337.332C652.776 611.223 748.11 721.222 854.442 832.444H814.11c-56.222 0-103.888-3.666-161.333 0-31.777 0-48.888-9.778-70.888-29.333-90.445-102.666-178.444-198-267.666-299.444z"/></svg>