<?xml version="1.0" encoding="UTF-8"?><svg id="a" xmlns="http://www.w3.org/2000/svg" viewBox="0 0 1000 1000"><path d="M500,0C223.858,0,0,223.858,0,500s223.858,500,500,500,500-223.857,500-500S776.142,0,500,0Zm310.544,719.611c-41.872,59.081-102.523,98.059-171.251,115.861-1.272,.59-2.541,1.184-3.821,1.762v-.779c-103.018,25.511-223.367,4.089-325.216-67.964-171.566-121.323-225.704-339.822-120.739-488.019,104.965-148.197,328.721-170.203,500.288-48.88,2.142,1.558,4.284,3.116,6.427,4.674-2.905-1.96-5.835-3.851-8.775-5.71-106.956-67.629-235.956-68.303-326.35-8.44-24.37,16.138-45.942,36.661-63.508,61.472-85.686,121.128-43.622,298.342,94.449,396.102,58.82,41.647,125.448,62.037,189.199,62.361,85.895,.437,166.566-35.566,215.861-105.204,1.928-2.719,3.791-5.467,5.59-8.241,7.936-12.238,14.574-25.01,20.038-38.155,2.623-6.31,4.964-12.707,7.028-19.18,.833-2.611,1.622-5.232,2.365-7.865,5.647-20.033,8.723-40.704,9.283-61.613,.097-3.613,.138-7.231,.087-10.855-.731-51.671-16.467-104.283-45.636-151.557l.004,.006-.003-.005c.864,1.517,2.783,5.007,5.262,10.24l.018,.039c2.475,5.229,5.505,12.19,8.597,20.656,.021,.059,.043,.121,.064,.18,1.839,5.046,3.698,10.619,5.474,16.678,.473,1.613,.938,3.27,1.396,4.951,.413,1.512,.822,3.041,1.221,4.607,.447,1.756,.882,3.554,1.308,5.375,.376,1.608,.746,3.231,1.102,4.888,.054,.252,.106,.511,.159,.764,.448,2.114,.882,4.261,1.292,6.452,.007,.039,.014,.079,.021,.118,.681,3.642,1.306,7.388,1.862,11.233,.268,1.851,.513,3.733,.747,5.628,.257,2.085,.5,4.188,.714,6.326,.21,2.099,.389,4.229,.553,6.377,.472,6.207,.752,12.607,.779,19.195,.016,3.751-.058,7.568-.209,11.433-.147,3.748-.365,7.541-.684,11.388-.012,.146-.028,.294-.04,.441-.224,2.65-.494,5.325-.805,8.019-.107,.927-.223,1.858-.341,2.79-.45,3.557-.98,7.151-1.593,10.779-.227,1.342-.466,2.688-.716,4.039-.389,2.101-.805,4.211-1.253,6.333-.21,.995-.426,1.992-.649,2.991-.633,2.84-1.308,5.694-2.051,8.569-.73,2.826-1.527,5.672-2.367,8.53-1.167,3.967-2.428,7.959-3.818,11.982-40.506,117.234-175.656,143.913-175.656,143.913,0,0-.754,.761-2.116,2.091,47.603-52.002,76.506-120.149,76.506-190.989,0-149.854-128.409-272.679-291.361-284.043,.66,.037,1.308,.071,1.977,.112,0,0,113.675-60.23,274.444,14.559,46.04,31.495,84.118,72.161,111.075,118.999,72.404,116.715,78.814,258.617,3.767,364.587Z"/></svg>