<svg xmlns="http://www.w3.org/2000/svg" width="1000" height="1000">
  <path d="M500.496 5C223.572 5 5 229.506 5 500.002c0 276.43 224.506 495.001 495.002 495.001 276.43 0 495.001-224.506 495.001-495.001C995.003 226.539 773.464 5 500.496 5zm-200.77 645.826V344.232h304.617c23.736 1.978 47.472 3.956 68.242 12.857 53.406 16.813 68.242 90 27.692 124.616-5.934 5.934-15.824 10.879-23.736 14.835 37.582 14.835 51.428 44.506 51.428 83.077v71.21H613.244c-8.901 0-10.88-3.957-10.88-11.869V577.64c0-19.78-5.933-30.66-25.714-30.66H423.353v93.957c0 5.934-1.978 9.89-3.956 9.89zm125.605-187.912h155.275c8.901 0 15.825-4.945 15.825-13.847 0-8.9-6.924-12.857-15.825-12.857H425.331z" style="fill:#000;fill-opacity:1;fill-rule:nonzero;stroke:none;"/>
</svg>
