<svg xmlns="http://www.w3.org/2000/svg" viewBox="0 0 1000 1000"><path d="M502.512 162.685c57.514 122.697 236.446 506.123 350.196 752.794 38.343 84.354 140.59 48.568 98.413-42.177-125.253-273.51-251.784-548.3-387.261-817.976-33.23-66.46-85.632-67.739-116.306 0C319.745 337.783 179.155 612.572 50.068 893.752c-26.84 58.792-5.112 98.413 61.349 98.413 196.825 0 392.373 6.39 586.642 0 77.964-2.556 94.579-111.194 0-111.194H168.931c56.235-125.253 115.027-245.393 171.263-371.924 51.124-113.75 108.638-226.221 162.318-346.362z"/></svg>