<svg xmlns="http://www.w3.org/2000/svg" viewBox="0 0 1000 1000"><path d="M293.954 470.997c19.702 100.696 36.12 187.164 51.443 273.631 35.025 12.04 42.686-4.378 45.97-28.458l13.134-129.154c6.567-80.994 18.607-164.178 26.269-253.93 17.512 67.861 13.134 123.682 31.741 414.826 4.378 59.104 8.756 122.586 12.04 183.88 0 15.323 0 40.497 27.363 40.497 19.701-1.095 25.174-51.443 31.741-90.846 15.323-98.507 27.363-195.92 41.592-305.372 7.662 40.498 17.512 91.94 21.89 101.791 3.284 16.418 21.891 24.08 35.025 7.662 6.567-7.662 14.23-18.607 21.89-31.742 16.419-26.268 30.647-53.631 47.065-85.372 47.065 0 90.846 3.283 137.91 0 19.702 0 35.025 3.283 54.727 18.606 27.363 28.458 66.765 24.08 86.467-3.283 19.701-22.985 19.701-51.443 0-74.428-25.174-28.457-54.726-31.74-83.184-6.567-22.985 18.607-42.686 22.985-65.671 22.985h-70.05c-78.806-3.283-93.034-3.283-129.154 61.293 0-3.283-4.378-10.945-4.378-15.323-8.756-62.388-16.418-125.87-24.08-188.258 0-15.323-3.283-28.458-22.984-28.458-15.324-3.283-25.174 9.851-25.174 25.174-3.284 22.985-6.568 47.065-10.946 70.05-7.661 71.144-19.701 145.572-27.363 216.716-10.945-16.418-15.323-31.741-15.323-48.16-12.04-147.76-20.796-297.71-27.363-442.187-3.284-39.403-7.662-78.806-12.04-121.492 0-12.04-4.378-27.363-22.985-27.363-16.418 0-24.08 15.323-24.08 27.363-7.661 74.427-15.323 148.855-24.079 223.283-10.945 86.467-18.607 171.84-26.269 259.402-18.607-33.93-41.592-157.612-51.442-189.353-3.284-15.323-28.458-15.323-35.025 0-9.85 20.796-38.308 126.965-47.065 177.313H58.632c-12.04 0-27.363 0-38.309 3.284-8.756 0-15.323 12.04-15.323 18.607 0 4.378 6.567 16.418 9.85 16.418 12.04 4.378 25.175 4.378 36.12 4.378h160.895c51.443 0 51.443 0 66.766-52.538 3.284-9.85 6.567-21.89 15.323-44.875z"/></svg>