<svg xmlns="http://www.w3.org/2000/svg" width="1000" height="1000">
  <path d="M500.496 5C223.572 5 5 229.506 5 500.002c0 276.43 224.506 495.001 495.002 495.001 276.43 0 495.001-224.506 495.001-495.001C995.003 226.539 773.464 5 500.496 5zM131.594 580.606v-18.791c21.758-20.77 21.758-20.77 47.473-4.945 101.868 62.308 204.725 122.638 304.616 184.946 16.813 9.89 28.681 8.9 44.506 0C621.156 684.453 716.1 626.1 809.069 567.749c9.89-5.934 20.769-13.846 31.648-19.78 13.846-11.868 22.747-1.978 30.66 7.912 8.9 11.868 2.967 18.791-5.935 25.714-10.879 7.912-22.747 16.814-35.604 23.737 12.857 10.879 26.703 18.79 36.593 26.703 10.88 7.912 10.88 15.824 0 23.736-18.79 11.869-36.593 25.715-55.384 37.583-70.22 42.528-140.44 84.066-212.638 126.594-21.759 13.846-45.495 28.681-68.242 41.538-19.78 12.858-34.616 6.923-49.451-14.835 109.78-66.264 218.572-132.528 330.33-198.792-10.878-15.824-19.78-19.78-35.604-10.879-83.077 51.429-166.154 101.869-249.231 153.297-15.825 10.88-30.66 10.88-45.495 0A28958.058 28958.058 0 0 1 225.55 635.991c-31.648-18.791-62.308-37.582-93.956-55.385zm8.901 55.385c6.923-15.824 22.747-16.813 39.56-5.934 41.54 25.714 83.078 54.396 124.616 80.11 17.803 11.868 36.594 23.737 59.341 34.616-22.747 17.802-40.55 21.758-60.33 6.923-47.472-30.66-97.912-57.363-145.385-86.044-10.879-5.935-28.681-11.869-17.802-29.67zm.989-192.858c-3.956-5.934-1.978-19.78 1.978-26.703 2.967-5.934 15.824-8.901 21.758-6.923 11.868 3.956 22.748 12.857 36.594 21.758-13.846 8.901-24.726 17.802-34.616 20.77-7.912.988-20.769-2.968-25.714-8.902zm10.88 78.132c-22.748-13.846-22.748-31.648.988-45.494 23.736-14.835 47.473-29.67 72.198-46.484-23.736-13.846-45.494-29.67-68.242-42.527-29.67-17.803-29.67-35.605 0-53.407 108.792-64.286 216.594-130.55 326.375-194.836 6.923-3.956 17.802-8.901 23.736-7.912 12.857 4.945 23.737 13.846 34.616 20.77-7.912 7.911-13.846 16.812-23.737 21.757-99.89 60.33-198.791 119.671-298.682 178.023-5.934 3.956-7.912 3.956-15.824 9.89 23.736 13.846 44.506 27.693 66.264 38.572 3.956 1.978 10.879-1.978 15.824-5.934 11.868-4.945 21.758-10.88 33.627-18.792 28.681-17.802 38.571-14.835 65.274 13.847-20.769 12.857-43.516 26.703-63.296 39.56.989 2.967 1.978 4.945 3.956 5.934 60.33-35.604 120.66-73.187 181.978-109.78-.989-.99-.989-2.967-2.967-5.934-9.89 5.934-20.77 10.879-29.67 16.813-32.638 19.78-40.55 19.78-69.231-11.868 28.681-16.814 57.363-35.605 87.033-48.462 11.868-4.945 32.638 1.978 45.495 9.89 14.835 7.912 25.714 7.912 38.571-1.978 25.715-15.824 52.418-30.66 78.132-47.473 10.88-6.923 21.759-8.9 34.616-.989 53.407 34.616 107.802 65.275 161.21 96.924 5.933 4.945 11.867 7.912 15.823 11.868 13.847 11.868 13.847 25.714-.989 36.593-14.835 9.89-28.681 18.792-42.527 27.693-94.946 56.374-187.913 112.747-282.858 168.132-29.67 17.802-39.56 17.802-70.22-11.868 112.747-68.242 222.528-132.528 336.265-200.77-6.924-5.934-10.88-7.912-14.836-11.868-34.615-21.758-71.209-42.528-106.813-63.297-9.89-5.934-17.802-6.923-27.693-.989-17.802 10.88-35.604 21.758-56.373 36.594 42.527 25.714 82.088 48.461 121.648 72.198-25.714 26.703-37.582 27.692-65.275 9.89-27.692-15.824-56.373-31.649-84.066-50.44-8.9-5.934-16.813-5.934-25.714 0-16.813 10.88-36.594 22.747-57.363 36.594 40.55 24.725 78.132 49.45 116.704 73.187-23.737 28.681-33.627 30.66-62.308 11.868-25.715-15.824-49.45-30.66-75.165-48.462-14.836-11.868-26.704-8.901-41.539 0a8675.177 8675.177 0 0 1-139.45 83.077c-24.726 14.836-36.594 11.868-57.364-15.824 16.813-9.89 33.627-19.78 51.429-31.648-13.846-5.934-51.429 12.857-78.132 37.582C316.54 569.727 428.298 637.97 540.057 706.211c-15.824 25.714-32.638 27.693-58.352 13.846-48.462-28.681-96.924-58.352-144.396-86.044-57.363-34.615-113.737-70.22-172.089-103.846-3.956-2.967-7.912-5.935-12.857-8.902zm81.098-161.209c5.934-4.945 10.88-8.901 16.814-10.879 76.154-46.484 153.297-91.978 230.44-138.462 27.692-15.824 41.538-14.835 68.242 13.846-54.396 32.638-108.792 64.286-164.177 98.902 17.803 11.868 31.649 21.758 47.473 33.626-19.78 23.736-31.648 26.703-54.396 11.868-1.978-1.978-5.934-2.967-7.912-5.934-15.824-13.846-34.615-13.846-50.44 0-3.956 2.967-8.9 3.956-13.846 7.912-33.626 20.77-39.56 18.792-72.198-10.879zm60.33 176.045c23.737-14.836 47.473-28.682 72.198-44.506 21.759-12.857 43.517-26.703 66.264-39.56 25.715-16.814 30.66-16.814 56.374 9.89-26.703 16.813-50.44 33.626-74.176 47.472-20.77 13.846-42.528 26.704-64.286 40.55-20.77 12.857-36.594 9.89-56.374-13.846zm169.122 103.846c21.758-13.846 43.516-26.703 65.275-38.571 38.571-25.715 78.132-49.451 118.681-72.198 13.846-10.88 29.67-13.847 45.495-4.946 24.725 16.814 48.462 31.649 74.176 45.495-15.824 23.736-33.626 27.693-53.407 13.846-8.9-5.934-17.802-13.846-28.681-15.824-7.912-3.956-19.78-4.945-27.693 0-46.483 25.714-90 52.418-136.484 80.11-27.692 18.792-29.67 18.792-57.362-7.912zm289.78-176.044C782.366 437.199 788.3 435.22 818.96 455c15.824 8.902 29.67 15.825 43.516 24.726 11.869 7.912 17.803 17.802 8.902 31.648-8.902 12.857-18.792 14.836-34.616 5.934-21.758-15.824-45.495-27.692-69.231-43.516-4.945-2.967-8.901-6.923-14.835-9.89z" style="fill:#000;fill-opacity:1;fill-rule:nonzero;stroke:none;"/>
</svg>
