<svg xmlns="http://www.w3.org/2000/svg" viewBox="0 0 1000 1000"><path d="M146.59 337.454c0-49.84 40.779-89.485 89.486-91.75 48.707 0 89.485 39.645 89.485 89.485 0 49.84-39.646 89.485-89.485 89.485-47.575 0-89.486-39.645-89.486-87.22zM5 380.498a30.456 30.456 0 0 1 30.584-30.584c15.858 0 29.45 13.593 29.45 30.584 0 14.725-13.592 28.318-29.45 28.318C18.593 409.949 5 396.356 5 380.498zm12.46-114.405c0-20.39 18.124-38.513 37.38-37.38 22.654 0 38.512 16.99 38.512 39.645 0 19.257-18.123 38.513-38.512 36.247-21.522 0-37.38-16.99-37.38-38.512zm14.725 200.492c0-12.46 9.062-21.522 20.39-21.522 12.46 0 22.654 9.062 22.654 21.522-1.133 10.194-10.195 19.256-22.655 19.256-11.327 0-20.389-9.062-20.389-19.256zM67.3 524.354c-1.133-4.531 6.796-13.593 12.46-13.593 7.929 0 13.592 5.664 13.592 12.46 0 9.062-5.663 13.593-13.592 13.593-5.664 0-12.46-4.531-12.46-12.46zM89.954 169.81c0-26.052 21.522-46.441 48.707-46.441 24.92 1.132 44.177 20.389 44.177 47.574 0 24.92-19.257 47.574-46.442 47.574-24.92 0-46.442-22.654-46.442-48.707zm69.096 386.26c0-39.646 33.982-72.495 73.627-72.495 39.646 0 71.362 32.849 71.362 72.494 0 41.91-32.849 73.627-72.494 73.627-38.513 0-72.495-31.716-72.495-73.627zm41.911-445.161c0-29.451 23.787-53.238 53.238-53.238 30.584 0 55.504 26.052 55.504 56.636 0 29.45-26.053 55.503-55.504 55.503-30.583-2.265-56.636-27.185-53.238-58.901zm14.726 612.803c0-33.982 26.052-62.3 62.3-62.3 33.981-1.132 64.565 28.318 64.565 62.3 0 36.247-27.186 65.698-63.433 65.698-37.38 0-63.432-29.45-63.432-65.698zm86.087 133.662c0-29.451 23.787-54.371 53.238-54.371 32.849 0 56.636 24.92 56.636 54.37 0 31.717-23.787 56.637-56.636 56.637-29.451 0-53.238-24.92-53.238-56.636zm43.043-739.669c0-35.114 27.185-64.565 64.565-64.565 35.115 0 62.3 29.45 62.3 65.698 0 35.114-27.185 63.432-62.3 63.432-37.38 0-64.565-27.185-64.565-64.565zM420.71 926.47c0-24.92 20.389-45.31 47.574-45.31 24.92 0 46.442 21.523 46.442 45.31 0 26.052-21.522 47.574-49.84 47.574-23.787 0-46.442-22.654-44.176-47.574zm38.512-182.369c0-48.707 39.645-87.22 87.22-87.22 50.972 0 90.618 38.513 90.618 87.22s-39.646 89.485-88.353 89.485c-49.84 1.133-89.485-40.778-89.485-89.485zm45.31-576.556c0-39.645 30.583-71.362 71.36-71.362 39.646 0 70.23 32.85 71.362 71.362 0 39.645-31.716 73.627-71.361 73.627-40.778 0-71.362-31.716-71.362-73.627zM554.37 946.86c0-21.522 15.858-39.646 37.38-39.646 20.389 0 38.512 18.124 38.512 39.646 0 19.256-16.99 36.247-38.512 36.247-21.522 0-37.38-16.991-37.38-36.247zm91.75-912.975c0-6.797 5.664-12.46 13.593-12.46 5.664 0 10.195 5.663 10.195 12.46 0 6.796-4.531 10.194-10.195 10.194-7.929 0-13.592-3.398-13.592-10.194zm22.655 868.798c0-15.858 13.593-29.45 29.45-29.45 16.992 0 30.584 13.592 30.584 29.45 0 15.859-13.592 29.451-30.583 29.451-15.858 0-29.451-13.592-29.451-29.45zm0-265.057c0-39.645 33.982-70.229 70.229-70.229 40.778 0 73.627 30.584 73.627 70.23 0 39.645-32.85 71.36-73.627 71.36-36.247 0-70.229-32.848-70.229-71.36zm1.133-348.879c0-48.707 40.778-88.352 90.618-88.352 49.84 0 88.352 39.645 88.352 88.352 0 50.973-38.513 90.618-88.352 90.618-49.84 0-90.618-41.91-90.618-90.618zM703.89 36.15c0-10.195 7.93-19.256 18.124-19.256 13.593 0 21.522 9.061 21.522 22.654 0 10.195-7.93 18.124-21.522 18.124-10.194 0-18.124-9.062-18.124-21.522zm35.115 805.366c0-12.46 11.327-20.389 21.522-20.389 12.46 0 22.654 9.062 21.521 21.522 0 12.46-9.061 21.522-21.521 21.522-10.195 0-21.522-12.46-21.522-22.655zM777.518 61.07A30.456 30.456 0 0 1 808.1 30.486c14.725 0 28.318 13.593 28.318 30.584 0 18.123-13.593 31.716-29.45 28.318-15.859 0-29.451-13.593-29.451-28.318zm9.061 727.208c0-6.796 3.398-13.592 10.195-13.592 6.796 0 13.592 6.796 13.592 13.592 0 6.797-6.796 11.328-13.592 11.328-6.797 0-10.195-4.531-10.195-11.328zm12.46-274.119c0-35.114 30.584-64.565 65.698-64.565 33.982 0 61.167 29.45 61.167 65.698 0 35.114-29.45 62.3-64.565 61.167-33.982 0-62.3-28.318-62.3-62.3zm62.3-382.86c0-20.39 14.725-36.247 36.247-36.247s38.513 15.858 38.513 37.38c-1.133 21.521-18.124 37.38-38.513 37.38-21.522 0-36.247-15.859-36.247-38.513zm26.053 248.066c0-30.583 22.654-53.238 52.105-55.503 30.584 0 55.503 24.92 55.503 55.503 0 30.584-23.787 53.238-54.37 53.238-30.584 0-53.238-22.654-53.238-53.238zm10.194-130.263c0-24.92 21.522-46.442 46.442-46.442 26.053 0 46.442 21.522 46.442 46.442s-19.257 46.442-46.442 46.442c-24.92 0-46.442-21.522-46.442-46.442z"/></svg>