<?xml version="1.0" encoding="utf-8"?>
<!-- Generator: Adobe Illustrator 26.0.1, SVG Export Plug-In . SVG Version: 6.00 Build 0)  -->
<svg version="1.1" xmlns="http://www.w3.org/2000/svg" xmlns:xlink="http://www.w3.org/1999/xlink" x="0px" y="0px"
	 viewBox="0 0 1000 1000" style="enable-background:new 0 0 1000 1000;" xml:space="preserve">
<style type="text/css">
	.st0{fill:#010101;}
</style>
<g id="Layer_1">
</g>
<g id="Layer_3">
</g>
<g id="Layer_2">
	<path class="st0" d="M939.7,262.8v472.7c-128.4,89.7-293.4,157-414.2,256.3V912c111.6-72.9,229.6-140.7,346-214V379.2
		C775.4,439.8,675.8,488,584.5,549v107.6l-59,29.1V501.6L939.7,262.8z"/>
	<path class="st0" d="M476.5,501.2v483.9L60.3,733.6V260.8l67,39.9v395.4l287.4,176.2V541.5L319,486.4v-75.7L476.5,501.2z"/>
	<path class="st0" d="M913,228.9l-66.6,39.8l-68.5-37.9L501.6,81.5l-279,149.9l279,159.5l20.7-12.4l21.5-11.6l47.4-27.1l69.8,35.5
		l-30.3,17.5l-110.1,63.8l-20.7,12C362.1,388.8,224.9,309.1,87.4,229.3C226.1,152,358.5,78.7,498.8,8.1
		c119.6,55.1,229.6,121.6,344.8,184.5C867.1,205,889.8,217,913,228.9z"/>
</g>
</svg>
