<svg xmlns="http://www.w3.org/2000/svg" viewBox="0 0 1000 1000"><path d="M404.108 554.859V389.643c0-27.106-5.163-32.269-29.687-32.269-37.432 0-73.573 5.163-117.458 12.908-85.19 19.361-148.436 68.41-196.194 134.238C19.465 566.476 2.685 634.885 6.557 708.458c7.745 61.956 32.27 117.458 70.992 169.088 61.956 73.573 147.145 117.458 252.986 117.458 122.621 0 240.08-86.48 285.256-198.775 24.524-55.502 24.524-111.005 24.524-166.507 0-30.978 0-30.978-30.978-30.978H449.284c-27.106 0-32.269 0-32.269 30.978 0 24.525 0 50.34-6.453 74.864-11.617 54.211-94.225 85.19-134.238 54.211-30.978-24.524-51.63-65.828-40.013-104.55 9.035-30.978 40.013-68.41 80.026-68.41h58.084c24.524 0 29.687-6.454 29.687-30.978zm12.907-229.753c0 25.815 5.163 25.815 32.27 25.815H615.79c24.524 0 24.524 0 24.524-25.815 5.163-60.666 36.14-91.644 99.388-91.644h216.845c30.978 0 37.432-7.744 37.432-36.14V41.14c0-30.978-6.454-30.978-37.432-36.141-74.863 0-148.436 0-216.845 5.163-42.595 0-81.318 7.744-111.005 19.361-58.083 23.234-105.841 54.212-143.273 103.26-43.885 56.793-68.41 117.458-68.41 192.322zm236.207 236.207c0 24.524 5.163 24.524 23.234 24.524h161.343c30.978 0 34.85-6.454 34.85-37.432V394.806c0-32.269-3.872-37.432-34.85-37.432H690.654c-9.035 0-20.652 0-32.269 5.163-5.163 7.745-5.163 11.617-5.163 11.617z"/></svg>