<svg xmlns="http://www.w3.org/2000/svg" width="1000" height="1000">
  <path d="m562.574 86.606 10.138 18.022C709.006 337.795 843.05 570.963 978.22 804.13c16.896 29.287 20.275 59.7 13.517 93.492v4.506c-1.127 0-1.127 0-3.38 1.126-143.054-246.684-283.855-489.989-425.783-737.8-2.253 3.38-4.506 9.012-5.632 10.138-103.63 179.1-210.64 359.325-315.396 540.678-3.379 6.758-7.884 9.011-16.896 9.011-10.137-1.126-20.275 0-32.666 0 121.653-214.018 245.558-424.657 370.59-638.675zM5 831.164c2.253-3.38 3.38-6.759 6.759-9.012 102.503-177.973 208.386-359.325 310.89-540.677 32.665-51.815 61.952-105.883 92.365-161.077 15.77-27.034 39.424-46.183 69.837-56.32 2.253-1.127 5.632-1.127 10.138-3.38C355.314 304.003 215.64 548.434 75.964 789.486c3.38 1.127 7.885 1.127 11.264 1.127H711.26c7.885 0 12.39 1.126 16.896 10.138 2.253 12.39 11.264 18.022 16.896 30.413zm9.011 70.964c1.127 0 1.127-2.253 3.38-4.506h843.682c-1.127-2.253-1.127-6.758-4.506-9.011L544.551 349.06c-4.505-10.138-4.505-13.517 0-20.276 5.632-10.138 10.138-20.275 18.023-29.287 121.652 211.766 244.431 424.658 369.463 637.55-7.885 0-9.011 2.252-13.517 2.252H208.88c-33.792-2.253-69.837-2.253-101.376-2.253-32.666 0-63.08-11.264-86.734-31.54-3.38-1.126-3.38-2.252-6.759-3.378zm314.27-177.973c56.32-99.125 112.64-197.122 172.34-298.5 56.32 101.378 111.515 199.375 167.835 298.5zm64.205-37.172h209.512L500.621 505.631c-37.171 60.826-72.09 121.652-108.135 181.352z" style="fill:#000;fill-opacity:1;fill-rule:nonzero;stroke:none;"/>
</svg>
