<?xml version="1.0" encoding="utf-8"?>
<!-- Generator: Adobe Illustrator 24.2.3, SVG Export Plug-In . SVG Version: 6.00 Build 0)  -->
<svg version="1.1" id="Layer_1" xmlns="http://www.w3.org/2000/svg" xmlns:xlink="http://www.w3.org/1999/xlink" x="0px" y="0px"
	 viewBox="0 0 1000 1000" style="enable-background:new 0 0 1000 1000;" xml:space="preserve">
<g>
	<path d="M708.5,380.5c-17.5,0-47.7,8.6-94,51.1c-24.9,22.7-46.5,47.7-61.5,66.3c0.6,0.7,31.8,36.8,65.2,68.6
		c9.4,9,45.1,37.4,87.2,53.3c1.1,0.1,2.2,0.2,3.2,0.2c65.2-0.7,118.1-54.2,118.1-119.7C826.6,433.9,773.7,380.5,708.5,380.5z"/>
	<path d="M382.3,433.2c-9.2-8.7-43.4-36.3-84.2-52.6c-2.4-0.3-4.7-0.6-6.6-0.6c-65.2,0.7-118.1,54.2-118.1,119.7
		c0,66.2,52.9,119.7,118.1,119.7c17.2,0,47.7-9,94-51.1c24-21.8,46.9-47.9,62.1-66.5c0,0-0.1-0.1-0.1-0.1
		C447.5,501.9,415.9,465.3,382.3,433.2z"/>
	<path d="M500,0C223.9,0,0,223.9,0,500s223.9,500,500,500s500-223.9,500-500S776.1,0,500,0z M898.7,551.2
		c-22.5,84.5-98.9,147-189.6,147.3c-75.3,0-151.5-72.4-208-137.6c-15.9,19.1-39.6,45.3-62.7,66.2c-52.2,47.6-101.6,71.8-146.9,71.8
		c-108.8,0-197-89.4-197-199.4c0-15.9,2.1-31.4,5.5-46.2c0.3-1.1,1.3-4.9,3.6-10.3c24.3-81.7,99.4-141.5,188.1-141.9
		c75.3,0,151.5,72.3,207.7,137.6c0.1-0.1,0.2-0.2,0.3-0.3c0,0,0,0.1,0.1,0.1c15.8-19.3,37.3-43.3,61.9-65.6
		c52.2-47.6,101.6-71.8,146.9-71.8c108.5,0,196.7,89.4,197,199.4c0,15.9-2.1,31.4-5.5,46.2C899.9,547.4,899.4,549,898.7,551.2z"/>
</g>
</svg>
