<svg xmlns="http://www.w3.org/2000/svg" viewBox="0 0 1000 1000"><path d="M500.496 5C223.572 5 5 229.506 5 500.002c0 276.43 224.506 495.001 495.002 495.001 276.43 0 495.001-224.506 495.001-495.001C995.003 226.539 773.464 5 500.496 5zM207.748 724.013c4.945-38.571 0-82.088 0-120.66 0-36.593 10.88-27.692 30.66-13.846 81.099 52.418 161.209 103.847 243.297 151.32 12.857 7.912 29.67 13.846 46.484 15.824 90 14.835 157.253 20.77 195.824 39.56-90 60.33-105.824 69.231-211.649 129.561 0 0-2.967 2.967-8.9-1.978-34.616-26.703-74.177-46.483-106.814-68.242-55.385-29.67-112.748-63.297-167.144-92.967-10.879-8.901-23.736-19.78-21.758-38.572zm0-334.286V271.045c0-24.726 29.67-20.77 76.154-7.912 106.814 21.758 171.1 33.626 180.99 41.538-29.67 13.847-59.341 21.759-94.946 38.572 180 100.88 399.562 225.495 419.342 238.352 7.912 5.934 11.869 13.847 11.869 21.759 3.956 38.571 3.956 82.088 3.956 123.626 0 13.847-7.913 16.814-24.726 13.847-28.681-8.902-207.693-32.638-235.385-47.473 29.67-12.857 65.275-26.703 98.901-38.572-39.56-23.736-177.033-101.868-276.924-158.242-47.472-30.66-93.956-54.396-140.44-80.11-7.912-4.945-18.791-8.901-18.791-26.703zm82.088-191.87c160.22-90 206.704-128.571 230.44-115.714 60.33 35.605 115.715 69.231 175.056 103.847 28.681 16.813 63.297 33.626 93.956 55.384 11.869 6.923 11.869 15.825 11.869 25.715v119.67c0 7.913-.99 20.77-3.957 29.67-60.33-38.57-119.67-73.186-175.055-106.813-51.429-33.626-96.923-61.319-153.297-74.176-41.539-7.912-89.012-15.824-135.495-19.78-36.594-4.945-71.21-2.967-43.517-17.802z"/></svg>