<svg xmlns="http://www.w3.org/2000/svg" width="1000" height="1000">
  <path d="M5 500.496c0-90 22.747-173.077 67.253-250.22 44.506-74.177 103.846-133.517 178.023-178.023C327.419 27.747 410.496 5 500.496 5c89.011 0 172.089 22.747 249.232 67.253 74.176 44.506 133.517 103.846 178.022 178.023 44.506 77.143 67.253 160.22 67.253 249.231 0 90-22.747 173.078-67.253 250.22-44.505 74.177-103.846 133.518-178.022 178.023-77.143 44.506-160.22 67.253-249.232 67.253-90 0-173.077-22.747-250.22-67.253-74.177-44.505-133.517-103.846-178.023-178.022C27.747 672.585 5 589.508 5 500.496zm191.869 241.32c5.934 0 8.9 2.967 10.879 2.967 84.066-2.967 167.143-2.967 252.199-3.956 82.088-1.978 154.286-30.66 219.56-82.089 132.53-106.813 169.123-274.946 53.409-372.858-8.902-9.89-22.748-18.791-34.616-24.725-60.33-33.627-127.583-33.627-195.825-31.649-6.923 25.715-12.857 52.418-21.758 81.1h-90c-6.924 28.68-13.847 55.384-19.78 84.066h-90.99c-28.681 116.703-55.385 231.429-83.077 347.144zm43.516-28.682c9.89.99 15.825.99 22.748.99 54.396 0 107.802-2.968 160.22-2.968 83.077 0 159.231-21.758 224.506-73.187 48.462-38.571 89.012-84.066 105.825-144.396 20.77-68.242 8.901-130.55-45.495-181.979-50.44-44.505-110.77-56.373-179.011-49.45-2.967 15.824-5.934 29.67-8.902 43.516 2.968 1.978 4.946 3.956 5.935 3.956 11.868 0 24.725.99 36.593.99 68.242 4.944 123.627 52.417 138.462 117.692 8.901 40.55-.989 77.143-21.758 111.759-43.517 73.187-111.759 112.747-196.814 120.66-53.407 3.956-107.803.988-161.21.988-2.966 0-5.934-.989-13.846-.989 18.792-80.11 37.583-155.275 56.374-232.418-8.9-1.978-12.857-2.967-16.813-2.967h-39.56c-23.737 95.934-44.506 191.869-67.254 287.803zm113.737-83.077c49.45-.989 98.901 2.967 150.33-3.956-9.89-32.638-19.78-62.308-32.637-95.934h-59.341c1.978-10.88 2.967-21.759 6.923-31.649 3.956 0 7.912-.989 9.89-.989h66.264c17.802 0 33.627-4.945 48.462-16.813 17.802-17.802 12.857-44.506-9.89-50.44-8.901-3.956-19.78-4.945-27.693-4.945h-85.055c-20.77 0-20.77 0-25.714 19.78-13.847 55.385-26.704 110.77-39.56 167.144-.99 4.945-1.979 8.9-1.979 17.802zm53.407-237.363c9.89 1.978 17.802 1.978 24.725 1.978H547.97c32.637 3.956 50.44 24.725 47.473 56.373-1.978 32.638-20.77 53.407-47.473 68.242-7.912 3.956-18.791 7.913-27.693 12.858 5.935 27.692 16.814 54.395 26.704 81.099 56.374-26.704 96.923-63.297 114.726-121.649 19.78-65.275-11.869-123.627-76.155-143.407-13.846-3.956-28.681-5.934-41.538-6.923H438.188c-6.923 0-12.857.989-18.791.989-3.956 16.813-6.923 32.637-11.868 50.44z" style="fill:#000;fill-opacity:1;fill-rule:nonzero;stroke:none;"/>
</svg>
