<svg xmlns="http://www.w3.org/2000/svg" viewBox="0 0 1000 1000"><path d="M5 500.496c0 271.98 220.55 494.507 495.496 494.507 271.98 0 494.507-220.55 494.507-495.496C995.003 227.528 773.464 5 500.496 5 226.54 5 5 225.55 5 500.496zm137.473-18.791C180.056 346.21 266.1 261.155 400.606 227.528c25.714-6.923 31.648-5.934 37.582 10.88 3.956 7.911 0 14.835-8.9 22.747-12.858 6.923-24.726 14.835-39.561 21.758-105.825 72.198-176.045 168.132-214.617 292.748-1.978 7.912-2.967 33.627-21.758 33.627-36.593 0-30.66-62.308-10.879-127.583zm86.044 21.758c0-28.681 33.627-24.725 40.55 7.912C295.77 615.222 344.232 707.2 419.397 777.42c19.78 18.791 50.44 44.506 86.044 70.22 6.923 4.945 10.88 11.868 6.923 19.78-2.967 6.924-7.912 13.847-17.802 13.847-119.67-19.78-225.495-126.594-259.122-257.144-10.879-41.539-10.879-79.121-6.923-120.66zm74.176-340.22c41.539-14.836 68.242-26.704 119.671-26.704 98.901 0 172.089 31.648 237.363 87.033 33.627 26.704 60.33 59.341 78.133 97.913 11.868 18.79-9.89 35.604-34.616 17.802-59.34-51.429-121.649-92.968-197.803-115.715-59.34-18.791-119.67-26.703-182.967-26.703-32.638 0-44.506-18.792-19.78-33.627zm119.671 577.584c4.945-11.869 11.868-15.825 31.649-15.825 95.934 10.88 189.89-3.956 278.902-44.505 38.571-14.835 75.165-38.572 108.791-65.275 27.693-18.791 50.44-5.934 38.572 16.813-11.869 14.835-21.759 28.681-33.627 43.517-41.538 49.45-90.99 83.077-147.363 101.868-83.077 29.67-294.726 12.857-276.924-36.593zm297.693-116.704c24.726-60.33 43.517-123.627 48.462-186.924 2.967-71.209-8.901-142.418-30.66-209.67-4.944-7.913-4.944-15.825-7.912-19.781-3.956-10.88 0-17.802 7.913-24.725 10.879-4.946 17.802 0 25.714 6.923 26.703 29.67 49.45 66.264 60.33 104.835 14.835 37.583 22.747 78.132 22.747 108.792 0 96.923-33.626 175.055-93.956 243.297-10.88 11.868-19.78 11.868-30.66 6.923-6.923-6.923-10.879-14.835-1.978-29.67z"/></svg>