<svg xmlns="http://www.w3.org/2000/svg" viewBox="0 0 1000 1000"><path d="M500.3,5C226.9,5,5.3,226.6,5.3,500s221.6,495,495,495,495-221.6,495-495S773.7,5,500.3,5ZM321.064,162.89l4.347,1.448c10.142,105.287,12.556,227.478,12.556,340.009,0,29.461-.966,58.439-3.38,79.689-1.449,26.563-14.489,46.847-42.5,77.757l-6.279-3.381c4.829-30.426,5.313-64.716,5.313-96.592V514.489c0-88.383-9.659-216.851-17.387-300.405A439.9,439.9,0,0,1,321.064,162.89Zm62.3,605.157a234.237,234.237,0,0,1-18.836,32.84c-48.295,7.729-90.315,20.286-125.57,36.223l-.966-1.448,11.591-20.284c4.346-5.313,14.006-13.041,22.216-15.939V797.99c-22.7-6.761-37.671-21.25-37.671-42.018,0-13.04,9.176-29.943,22.7-42.5,15.937-15.455,38.637-27.53,58.439-27.53,19.318,0,30.426,11.109,30.426,23.667S337.967,731.824,330.24,741h-.966c-5.312-10.625-10.142-17.387-15.455-18.836-3.381-.966-9.176-1.448-14.971-1.448-16.9,0-33.809,9.659-33.809,16.9,0,23.183,40.57,30.91,69.065,30.91,16.421,0,32.841-.966,49.262-1.932ZM427.644,658.68c-34.621,0-58.359-26.708-58.359-62.317,0-36.6,24.728-62.318,59.349-62.318S487,559.763,487,596.363C487,631.972,464.245,658.68,427.644,658.68Zm317.941-47.6C702.6,636.68,656.72,656,611.321,656c-55.058,0-92.729-30.426-92.729-101.906a215.556,215.556,0,0,1,2.414-35.256h18.836c1.448,41.535,18.835,74.376,79.207,74.376,37.671,0,69.547-11.591,104.8-31.392,6.279-3.381,9.66-7.728,9.66-11.592,0-26.08-16.9-60.37-45.4-91.764-27.529-29.46-64.234-55.54-98.525-72.928-11.592-5.8-15.455-12.074-15.455-17.869,0-12.074,13.523-37.189,24.631-55.058l3.865-.483c39.119,24.149,83.069,59.888,115.428,99.974,29.461,36.706,47.814,73.894,47.814,114.463C765.87,556.507,758.143,585,745.585,611.083Z"/></svg>