<svg xmlns="http://www.w3.org/2000/svg" viewBox="0 0 1000 1000"><path d="M663.176,116.128c-10.28-2.776-20.592-5.438-30.834-8.344-79.889-22.669-160-25.385-238.447,3.922C230.952,172.582,148.012,347.985,207.047,513.352,270.331,690.622,400.016,786.4,586.393,805.614,756.014,823.1,900.517,715.853,931.611,549.046c10.841-58.157,5.205-115.571-17.051-170.642,9.461,212.139-73.475,345.343-235.634,364.891,88.65-119.291,119.087-245.732,53.557-379.9-63.648-130.32-177.651-193.938-318.6-222.9,14.849-5.086,29.331-12.4,44.6-14.919C647.076,94.428,804.875,147.81,901.015,327.255,955.116,428.234,983,531,960.461,644.233,927.68,808.92,793.047,925.424,617.672,942.873,373.841,967.133,141.861,821.7,58.758,592.48-48.416,296.867,176.49,18.255,489.669,58.357,551.174,66.232,610.088,81.441,663.176,116.128Z"/></svg>