<svg width="1000" height="1000" viewBox="0 0 1000 1000" fill="none" xmlns="http://www.w3.org/2000/svg">
<path fill-rule="evenodd" clip-rule="evenodd" d="M500 995C773.381 995 995 773.381 995 500C995 226.619 773.381 5 500 5C226.619 5 5 226.619 5 500C5 773.381 226.619 995 500 995ZM201 285.731L346.731 140H415.99C397.232 150.822 335.188 228.016 319.317 285.731H201ZM486.691 140V285.731H346.731C356.591 255.671 391.75 184.441 453.505 140H486.691ZM514.828 285.731H656.23C623.333 207.238 569.898 155.872 547.293 140H514.828V285.731ZM798.355 285.731H683.645C665.609 242.445 633 182.709 586.251 140H651.18L798.355 285.731ZM315.709 714.268H201L348.174 860H413.104C366.355 817.291 333.745 757.555 315.709 714.268ZM343.124 714.268H484.527V860H452.062C429.457 844.128 376.022 792.761 343.124 714.268ZM512.663 714.268L512.663 860H545.85C607.605 815.559 642.764 744.329 652.623 714.269L512.663 714.268ZM652.623 860L798.355 714.269H680.038C664.166 771.984 602.122 849.178 583.365 860H652.623ZM469.627 608.541C474.629 594.16 477.13 578.06 477.13 560.24C477.13 541.795 474.785 525.852 470.096 512.409C465.719 498.966 459.623 488.024 451.807 479.583C444.304 470.829 435.394 464.421 425.078 460.357C415.074 455.98 404.601 453.791 393.659 453.791C388.657 453.791 383.342 454.573 377.715 456.136C372.4 457.699 368.024 460.044 364.585 463.17L364.116 462.701L431.643 336.088H370.212L304.561 464.577C296.745 479.583 290.336 495.058 285.334 511.002C280.645 526.633 278.3 543.515 278.3 561.647C278.3 579.154 280.645 594.942 285.334 609.01C290.336 623.078 297.214 634.958 305.967 644.649C314.721 654.341 325.194 661.844 337.386 667.158C349.579 672.16 363.022 674.661 377.715 674.661C392.096 674.661 405.382 672.16 417.575 667.158C429.767 661.844 440.24 654.341 448.993 644.649C457.747 634.645 464.625 622.609 469.627 608.541ZM412.416 511.94C419.919 524.445 423.671 540.389 423.671 559.771C423.671 580.092 419.607 596.661 411.478 609.479C403.663 621.984 392.565 628.236 378.184 628.236C363.803 628.236 352.549 622.14 344.42 609.948C336.292 597.443 332.228 581.03 332.228 560.709C332.228 551.018 333.322 542.108 335.51 533.98C337.699 525.852 340.825 518.817 344.889 512.878C348.953 506.625 353.799 501.779 359.426 498.341C365.054 494.902 371.462 493.182 378.653 493.182C393.659 493.182 404.913 499.435 412.416 511.94ZM566.228 336.088V668.096H719.571V617.92H620.156V519.912H707.847V473.956H620.156V385.795H714.881V336.088H566.228Z" fill="black"/>
</svg>
