<svg xmlns="http://www.w3.org/2000/svg" viewBox="0 0 1000 1000"><path d="M451.203 426.233c19.453-8.511 31.612-23.1 35.259-40.122 3.647-18.238 3.647-35.259-2.432-52.28-6.079-12.158-15.805-20.67-25.532-27.964-10.942-6.079-23.1-9.726-36.474-9.726-9.727 0-21.885 2.431-31.611 8.51-17.022 10.943-26.748 21.885-34.043 38.906-6.08 14.59-4.863 34.043 4.863 52.28 6.08 10.943 13.374 20.669 24.317 27.964 10.942 4.863 25.532 9.726 36.474 9.726 12.158 0 20.669-3.647 29.18-7.294zM5 499.18c0 8.511 1.216 14.59 3.647 18.238 3.648 4.863 13.374 6.079 18.238 6.079 4.863 0 12.158 1.215 18.237-4.864 3.647-3.647 7.295-8.51 7.295-15.805 1.216-6.08-2.432-13.374-6.08-17.022-4.863-4.863-10.942-8.51-17.02-8.51-6.08-1.216-12.159 2.431-17.022 7.295C8.647 488.239 5 493.102 5 499.182zm94.833-207.904c1.216 8.511 3.648 15.806 13.374 19.453 6.08 4.864 13.374 6.08 21.885 4.864 8.51-2.432 13.374-7.295 18.237-10.943 6.08-8.51 7.295-17.021 6.08-23.1-1.217-8.51-8.511-15.806-14.59-19.453-6.08-4.864-14.59-6.08-23.1-4.864-6.08 2.432-12.16 6.08-18.238 12.159-3.648 8.51-4.863 15.805-3.648 21.884zm1.216 413.377c-2.431 9.726-2.431 17.021 1.216 24.316 4.863 8.51 10.942 12.158 17.021 14.59 7.295 3.647 15.806 3.647 24.317 0 4.863-4.863 12.158-8.51 15.805-18.237 2.432-7.295 1.216-17.022-2.431-23.1-3.648-7.296-9.727-12.159-18.238-17.022-7.294-3.648-14.59-1.216-21.884 6.079-7.295 2.431-13.374 8.51-15.806 13.374zm15.806-206.688c0 9.726 1.216 19.453 8.51 25.532 7.295 9.726 14.59 13.374 24.317 13.374 10.942 0 18.237-2.432 24.316-8.511 9.727-8.51 12.158-15.806 13.374-25.532 1.216-8.51-1.216-17.022-8.51-25.532-7.296-7.295-14.59-9.727-25.533-10.943-9.726-1.215-18.237 2.432-25.532 8.511-7.295 6.08-10.942 14.59-10.942 23.1zm110.639-122.798c3.647 10.943 8.51 20.67 15.805 25.532 12.159 6.08 19.453 7.295 32.827 6.08 9.727-2.432 20.67-7.295 26.748-17.022 6.08-9.726 8.51-20.669 4.863-31.611-2.431-8.51-7.294-18.237-18.237-25.532-8.51-6.08-17.021-7.295-30.395-6.08-8.51 2.432-20.669 8.512-25.532 17.022-6.08 10.943-9.727 20.67-6.08 31.611zm1.216 248.026c-4.864 9.727-2.432 21.885 3.647 30.396 3.647 10.942 10.942 15.805 23.1 20.668 8.511 3.648 20.67 3.648 31.612-1.215 10.942-4.864 17.021-14.59 19.453-24.317 3.647-12.158 3.647-21.884-1.216-30.395-4.863-10.942-10.942-17.021-24.316-21.885-10.943-4.863-21.885-3.647-29.18 3.648-12.158 3.647-18.237 9.726-23.1 23.1zm12.158 290.58c1.216 9.726 4.863 13.374 12.158 15.805 3.647 2.432 9.726 4.863 17.021 2.432 7.295 0 10.943-3.648 14.59-7.295 3.647-4.863 4.863-13.374 3.647-18.237-1.215-7.295-3.647-14.59-9.726-17.022-6.08-4.863-13.374-4.863-18.237-2.431-4.863 2.431-9.727 3.647-14.59 10.942-4.863 6.08-4.863 10.942-4.863 15.806zm0-810.948c2.431 4.863 10.942 9.727 14.59 10.943 4.863 1.215 13.373 1.215 19.453-1.216 4.863-2.432 9.726-7.295 9.726-12.158 2.432-7.295 2.432-12.159 0-18.238-3.647-4.863-7.295-8.51-12.158-12.158-8.51-6.079-14.59-1.216-18.237 1.216-4.864 2.432-12.158 6.08-13.374 13.374-1.216 6.08-2.432 14.59 0 18.237zm35.258 393.924c0 19.453 3.648 36.474 18.238 47.416 12.158 17.022 32.826 25.532 51.064 25.532 18.237 0 32.827-7.294 47.416-19.453 13.374-10.942 20.67-29.18 20.67-46.2 1.215-18.238-3.648-36.475-18.238-49.849-13.374-10.942-27.964-20.669-47.417-20.669-20.669-3.647-37.69 6.08-49.848 15.806-13.374 13.374-21.885 26.748-21.885 47.417zm15.806-307.601c-3.648 7.295-3.648 17.021 2.432 25.532 3.647 7.295 10.942 13.374 20.668 17.021 9.727 3.648 17.022 3.648 26.748-1.215 7.295-2.432 14.59-10.943 17.022-19.453 4.863-10.943 4.863-18.238-1.216-27.964-4.863-7.295-10.943-13.374-23.1-17.021-7.296-2.432-15.806-3.648-24.317 1.215-7.295 4.864-14.59 9.727-18.237 21.885zm2.432 621.28c0 8.511 4.863 17.022 12.158 23.1 8.51 3.648 19.453 4.864 26.748 3.648 10.942-1.215 17.02-7.295 23.1-15.805 4.863-6.08 7.295-14.59 4.863-26.748-2.431-8.51-8.51-18.237-14.59-21.885-6.079-3.647-17.02-6.079-25.532-3.647-10.942 0-19.453 6.079-23.1 15.805-2.432 6.08-8.51 15.806-3.647 25.532zm59.574-160.487c2.432 19.453 14.59 31.611 31.612 44.985 10.942 4.863 24.316 8.51 36.474 8.51 12.158 0 21.885-1.215 34.043-6.078 9.726-4.863 17.021-15.806 25.532-23.1 13.374-12.159 12.158-32.828 8.51-51.065-3.647-18.237-13.373-34.043-29.18-43.769-12.157-7.295-24.315-12.158-38.905-12.158-10.942 0-23.1 2.431-31.611 8.51-10.943 8.511-19.453 13.374-24.316 24.317-7.295 15.805-14.59 31.61-12.159 49.848zM457.282 766.66c-1.215 8.51 2.432 20.669 10.943 27.964 4.863 9.726 17.021 14.59 25.532 15.805 14.59 2.432 21.885-2.431 32.827-12.158 6.079-6.079 10.942-14.59 12.158-26.748 1.216-9.726-2.432-21.884-9.727-27.963-8.51-8.51-17.02-14.59-26.747-15.806-13.374-1.216-23.1 2.432-31.612 10.943-6.079 7.294-10.942 14.59-13.374 27.963zm2.432-537.39c-1.216 10.943 2.432 21.885 9.727 30.396 8.51 9.727 17.021 12.158 26.748 13.374 12.158 1.216 21.884-3.647 31.61-10.942 7.296-6.08 12.159-15.806 13.375-26.748 0-13.374-3.648-20.669-10.943-29.18-8.51-9.726-18.237-13.374-26.748-14.59-13.374-2.431-20.668 1.216-31.61 8.511-6.08 8.511-12.159 18.237-12.159 29.18zm9.727 699.093c-1.216 7.295 1.215 17.022 8.51 20.67 4.864 6.078 12.158 8.51 17.022 8.51 9.726 1.216 17.021 0 23.1-6.08 8.51-8.51 9.727-14.589 9.727-19.452 1.215-7.295-1.216-17.022-7.295-21.885-8.51-6.079-12.158-8.51-18.237-9.726-10.943-1.216-17.022 1.215-23.1 6.079-7.296 6.079-9.727 15.805-9.727 21.884zm0-859.58c0 8.511 1.215 15.806 9.726 21.885 4.863 8.51 10.942 9.727 17.022 10.942 9.726 2.432 15.805-1.215 23.1-8.51 7.295-4.864 9.726-12.158 10.942-19.453 0-8.511-3.647-17.022-9.726-21.885-4.863-4.863-10.943-9.726-18.237-9.726-10.943 0-15.806 3.647-20.67 7.294-8.51 6.08-12.157 13.374-12.157 19.453zM510.778 377.6c3.648 19.453 15.806 34.043 29.18 44.985 10.942 6.08 23.1 10.942 38.906 10.942 12.158 0 23.1-4.863 31.61-8.51 10.943-4.864 19.454-13.374 25.533-21.885 12.158-17.021 13.374-34.043 9.727-51.064-3.648-19.453-13.374-35.259-29.18-44.985-12.158-7.295-21.885-10.942-37.69-10.942-9.727 0-23.1 2.431-31.611 8.51-12.158 3.648-20.67 12.158-26.748 21.885-9.727 15.805-13.374 32.827-9.727 51.064zm2.432 235.868c-6.08 18.237-3.648 37.69 2.432 54.711 9.726 10.943 17.02 21.885 25.532 27.964 13.374 3.647 23.1 7.295 37.69 7.295 8.51 0 20.669-1.216 31.61-6.08 19.454-8.51 29.18-23.1 35.26-40.121 6.079-18.237 3.647-34.043-4.864-51.064-7.295-14.59-14.59-21.885-24.316-27.964-13.374-8.51-23.1-12.158-37.69-10.942-9.727 0-21.885 2.431-30.396 8.51-17.02 12.159-29.179 20.67-35.258 37.69zm74.164-116.718c0 18.237 7.295 36.474 19.453 47.416 15.806 14.59 26.748 23.1 46.201 24.317h3.648c18.237 0 35.258-7.295 48.632-18.238 13.374-13.373 19.453-29.179 19.453-46.2 2.432-18.238-3.647-36.475-15.805-49.849-12.158-12.158-29.18-20.669-46.201-23.1-19.453-2.432-37.69 4.863-52.28 18.237-12.158 13.374-23.1 26.748-23.1 47.417zm52.28-300.306c-1.215 6.079 1.216 14.59 3.648 18.237 2.432 4.863 6.079 9.727 9.726 13.374 3.648 3.647 13.374 6.08 18.238 6.08 7.294 1.215 14.59-2.433 18.237-3.648 4.863-2.432 10.942-8.511 13.374-13.374 7.295-6.08 7.295-18.238 6.079-25.532-1.216-9.727-8.51-17.022-15.806-23.1-7.295-6.08-18.237-6.08-25.532-3.648-10.942 1.216-18.237 6.079-23.1 13.374-1.216 4.863-4.864 12.158-4.864 18.237zm3.648 593.317c-3.648 8.51-3.648 19.453 1.216 27.963 3.647 6.08 8.51 14.59 20.669 18.238 8.51 2.431 18.237 1.215 25.532-2.432 8.51-3.648 14.59-10.942 19.453-20.669 1.215-7.295 1.215-19.453-2.432-26.748-6.08-9.726-10.942-14.59-20.669-17.021-12.158-3.648-19.453-2.432-26.748 1.216-9.726 2.431-14.59 12.158-17.021 19.453zm49.848-145.898c2.432 9.727 7.295 17.021 17.022 25.532 7.294 6.08 21.884 7.295 31.61 4.863 10.943-1.215 19.454-7.294 26.749-17.021 7.295-9.726 8.51-20.669 6.079-30.395-3.648-13.374-9.727-20.67-17.022-25.532-12.158-8.511-20.668-9.727-34.042-8.511-8.511 3.647-18.238 9.726-25.533 18.237-9.726 10.942-8.51 19.453-4.863 32.827zm0-291.795c-4.863 12.158-2.431 23.1 3.648 30.395 3.647 12.158 12.158 18.237 21.884 21.885 14.59 3.647 23.1 2.432 32.827-1.216 9.727-4.863 17.022-12.158 19.453-24.316 6.08-10.943 3.648-23.1-1.216-29.18-4.863-13.374-12.158-18.237-25.532-23.1-7.294-2.432-20.668-3.648-29.18 2.431-12.157 8.511-18.236 13.374-21.884 23.1zm19.453-257.752c2.432 8.51 4.864 12.158 9.727 17.02 6.079 3.648 13.374 3.648 18.237 2.433 6.079-2.432 12.158-6.08 17.021-10.943 2.432-3.647 2.432-10.942 1.216-17.021-1.216-7.295-3.647-10.942-12.158-14.59-2.432-2.432-8.51-4.863-13.374-2.432-10.942 0-14.59 4.864-17.021 8.511-3.648 4.863-6.08 12.158-3.648 17.022zm3.648 825.537c2.431 4.863 6.079 8.51 15.805 10.942 4.864 1.216 10.943 1.216 14.59-1.216 6.08-1.216 10.942-4.863 13.374-14.59 1.216-4.863 1.216-10.942-1.216-15.805-1.216-7.295-7.295-10.942-14.59-12.158-3.647-3.648-9.726-3.648-17.021 1.216-6.08 3.647-9.726 8.51-10.942 13.373-1.216 4.864-1.216 10.943 0 18.238zM812.3 497.966c-1.216 9.726 2.432 18.237 9.726 24.316 7.295 9.726 14.59 12.158 26.748 13.374 8.511 1.216 17.022-2.432 24.317-9.727 6.079-7.295 9.726-13.374 9.726-23.1 1.216-8.51-1.216-18.237-6.079-26.748-7.295-8.51-17.021-10.942-25.532-10.942-8.51-1.216-19.453 2.431-24.316 7.294-10.943 8.511-13.374 17.022-14.59 25.533zm31.611 222.493c1.216 7.295 4.863 14.59 10.942 18.238 7.295 4.863 15.806 7.294 23.1 4.863 7.296 0 15.806-4.863 19.454-13.374 3.647-7.295 4.863-13.374 3.647-21.885-1.216-8.51-4.863-13.374-12.158-17.021-7.295-7.295-15.805-8.51-21.884-7.295-8.511 1.216-14.59 8.51-18.238 13.374-4.863 6.079-6.079 17.021-4.863 23.1zm0-446.203c-3.647 9.726-3.647 15.805 2.432 24.316 2.431 7.295 8.51 10.942 14.59 14.59 8.51 2.432 17.02 2.432 23.1-2.432 9.726-2.431 13.374-8.51 15.805-14.59 2.432-8.51 2.432-15.805-1.215-24.316-2.432-7.295-10.943-10.942-17.022-14.59-8.51-3.647-15.805-3.647-23.1 2.432-6.08 2.432-12.158 7.295-14.59 14.59zm105.776 223.71c-1.216 6.079 1.216 12.158 6.079 17.02 3.647 3.648 9.726 7.296 15.805 7.296 4.864 0 14.59-2.432 17.022-4.863 3.647-3.648 6.079-7.295 6.079-17.022 1.216-6.079-1.216-12.158-3.648-15.805-4.863-7.295-10.942-8.511-17.021-8.511-6.079-1.216-12.158 0-17.021 4.863-6.08 4.863-7.295 12.158-7.295 17.022z"/></svg>