<svg xmlns="http://www.w3.org/2000/svg" width="1000" height="1000">
  <path d="M889.742 761.235c-19.233 21.798-38.467 42.314-50.007 60.265-11.54 12.822-11.54 12.822-11.54 23.08-8.976 47.443-38.467 79.499-92.32 91.039-28.21 21.798-70.524 39.749-110.273 50.007-20.516 8.976-34.62 0-47.443-10.258-32.056-17.951-75.652-17.951-102.579 0-33.338 19.234-61.547 19.234-93.603 10.258-80.78-26.927-150.021-60.265-183.36-103.861l-7.693-5.129c7.694-42.314-21.798-65.394-44.878-84.628l-8.976-8.975c-48.725-8.976-70.522-42.314-91.038-80.781C28.08 650.962 5 599.673 5 538.126c0-1.282 70.523-173.102 50.007-225.673 0-17.952 0-41.032 20.516-56.419 23.08-44.878 51.29-84.627 83.345-116.683 20.516-15.387 32.056-15.387 61.548-15.387 8.975 0 29.491 0 41.031-11.54 16.67-20.516 50.007-30.774 82.063-43.596 5.13 0 17.952-10.258 28.21-19.234 21.797-19.233 42.313-41.031 70.522-41.031h123.095c29.491 0 51.29 12.822 60.265 33.338 23.08 16.67 29.491 26.927 51.29 39.75 30.773 0 58.982 19.233 89.756 42.313 0 0 11.54-11.54 23.08-11.54 38.467 0 61.547 39.75 88.474 58.983 32.056 39.75 53.854 84.627 82.063 123.094 10.258 8.976 0 51.29-6.411 79.499 16.67 43.596 6.411 93.603 6.411 141.046 10.258 14.104 20.516 23.08 32.056 43.596 10.258 41.031-11.54 83.345-21.798 130.788-10.258 12.822-10.258 23.08-16.669 32.056-12.822 19.233-43.596 39.749-64.112 39.749zm-780.88-175.666c0 33.338 8.975 56.418 17.95 84.627 10.258 19.234 32.056 32.056 52.572 51.29 28.21 29.49 93.603 123.094 98.732 123.094 23.08 8.976 42.314 17.951 65.394 32.056 28.21 5.129 61.548 15.387 88.474 28.21 10.258 0 20.516-12.823 43.596-12.823h119.248c21.798 0 30.774 0 53.854-10.258 28.21-5.129 58.983-28.21 87.192-37.185 19.234-3.847 42.314-52.572 53.854-70.523 29.491-33.338 50.007-71.805 80.78-94.885 7.694 0 7.694-8.976 7.694-8.976l20.516-98.732c0-23.08-8.976-33.338-8.976-56.418 0-47.443 8.976-89.757-11.54-129.506-7.693-11.54-7.693-20.516 0-30.774 0-53.853-71.805-160.279-129.506-160.279-5.129 0-92.32-58.983-111.554-65.394-20.516-5.129-42.314-5.129-53.854-16.669C555.08 81.65 464.04 81.65 431.984 100.884c-17.95 23.08-26.927 23.08-50.007 28.209-33.338 10.258-48.725 23.08-80.78 33.338-10.258 8.976-28.21 32.056-51.29 38.467-42.314 0-51.29 41.032-80.78 64.112-32.057 29.491-23.08 80.78-42.314 120.53-8.976 39.75 0 82.063-17.952 115.401-10.258 28.21 0 57.7 0 84.628zm182.077-26.927c-105.144-60.265-79.499-223.11 42.313-287.22 65.394-29.492 142.328 0 169.255 64.11 43.596 89.757 10.258 179.514-60.265 223.11-48.725 26.927-98.732 26.927-151.303 0zm20.515 215.415c-42.313-53.854-32.056-61.547 0-71.805C381.977 689.43 464.04 750.977 452.5 803.549c-28.209 41.031-69.24 14.104-91.038 0-17.952-15.387-28.21-12.823-50.008-29.492zM578.16 689.43c16.67-57.7 58.983-89.757 108.99-117.966 46.16-23.08 88.474-20.516 120.53 28.21 21.798 65.393-25.644 126.94-88.474 174.383-32.056 17.951-70.523 17.951-114.119 0-26.927-12.822-42.314-50.007-26.927-84.627zm38.467-478.274c70.523-28.21 201.311 124.377 173.102 153.868-66.676 66.676-88.474 2.565-164.126-80.78-20.516-26.927-25.645-60.266-8.976-73.088z" style="fill:#000;fill-opacity:1;fill-rule:nonzero;stroke:none;"/>
</svg>
