<svg width="1000" height="1000" viewBox="0 0 1000 1000" fill="none" xmlns="http://www.w3.org/2000/svg">
<path fill-rule="evenodd" clip-rule="evenodd" d="M500 995C773.381 995 995 773.381 995 500C995 226.619 773.381 5 500 5C226.619 5 5 226.619 5 500C5 773.381 226.619 995 500 995ZM201 285.731L346.731 140H415.99C397.232 150.822 335.188 228.016 319.317 285.731H201ZM486.691 140V285.731H346.731C356.591 255.671 391.75 184.441 453.505 140H486.691ZM514.828 285.731H656.23C623.333 207.238 569.898 155.872 547.293 140H514.828V285.731ZM798.355 285.731H683.645C665.609 242.445 633 182.709 586.251 140H651.18L798.355 285.731ZM315.709 714.268H201L348.174 860H413.104C366.355 817.291 333.745 757.555 315.709 714.268ZM343.124 714.268H484.527V860H452.062C429.457 844.128 376.022 792.761 343.124 714.268ZM512.663 714.268L512.663 860H545.85C607.605 815.559 642.764 744.329 652.623 714.269L512.663 714.268ZM652.623 860L798.355 714.269H680.038C664.166 771.984 602.122 849.178 583.365 860H652.623ZM434.365 608.542C439.367 594.161 441.868 578.061 441.868 560.241C441.868 541.796 439.523 525.852 434.834 512.409C430.457 498.966 424.361 488.025 416.545 479.584C409.042 470.83 400.132 464.421 389.816 460.357C379.812 455.981 369.339 453.792 358.397 453.792C353.395 453.792 348.08 454.574 342.453 456.137C337.138 457.7 332.762 460.045 329.323 463.171L328.854 462.702L396.381 336.089H334.95L269.299 464.578C261.483 479.584 255.074 495.059 250.072 511.003C245.383 526.634 243.038 543.516 243.038 561.648C243.038 579.155 245.383 594.942 250.072 609.011C255.074 623.079 261.952 634.958 270.705 644.65C279.459 654.341 289.932 661.844 302.124 667.159C314.317 672.161 327.76 674.662 342.453 674.662C356.834 674.662 370.12 672.161 382.313 667.159C394.505 661.844 404.978 654.341 413.732 644.65C422.485 634.646 429.363 622.61 434.365 608.542ZM377.154 511.94C384.657 524.445 388.409 540.389 388.409 559.772C388.409 580.093 384.345 596.662 376.217 609.48C368.401 621.985 357.303 628.237 342.922 628.237C328.541 628.237 317.287 622.141 309.158 609.948C301.03 597.443 296.966 581.031 296.966 560.71C296.966 551.019 298.06 542.109 300.249 533.981C302.437 525.852 305.563 518.818 309.627 512.878C313.691 506.626 318.537 501.78 324.164 498.341C329.792 494.902 336.2 493.183 343.391 493.183C358.397 493.183 369.651 499.435 377.154 511.94ZM582.08 433.628L676.337 668.097H738.237V336.089H689.467L689.936 571.964H688.529L595.21 336.089H530.966V668.097H581.611L580.673 433.628H582.08Z" fill="black"/>
</svg>
