<svg xmlns="http://www.w3.org/2000/svg" viewBox="0 0 1000 1000"><path d="M394.3,296.468c-19.212-12.25-49.55-6.311-57.238,16.969-7.264,22-17.571,42.34-28.87,62.454-9.205,16.388-2.487,31.171,15.578,37,5.441,1.757,11.38,1.974,17.61,2.98,9.733-1.992,19.679-4.083,29.649-6.057,14.254-2.823,22.962-12.223,25.838-25.512a568.817,568.817,0,0,0,9.483-59.455C407.522,313.96,404.521,302.983,394.3,296.468Zm-48.851,59.094c-5.937,10.844-12.486,21.007-11.528,34.091.257,3.508.6,9.24-5.135,7.387-3.428-1.108-6.082-5.78-8.116-9.394-.706-1.254,1.409-4.188,2.385-6.284,9.433-20.249,18.958-40.456,28.314-60.74,2.582-5.6,4.953-11.118,11.943-11.586l3.221,2.155C359.581,326.022,353.3,341.222,345.451,355.562Zm207.278-9.254c3.693,12.809,2.764,25.537-3.436,37.385-6.335,12.107-12.851,24.183-20.253,35.651-7.571,11.731-19.629,17.287-33.081,19.045-18.028,2.356-35.49-1.1-51.951-8.348-11.22-4.941-16.931-13.849-17.379-26.876-.539-15.716-2.464-31.359,2.262-46.757,1.1-3.6,1.732-7.731,3.983-10.461,1.8-2.183,5.962-3.894,8.638-3.406,2.115.384,4.732,4.29,5.036,6.878.458,3.9-.429,8.157-1.584,12.011-4.212,14.062-2.788,28.241-1.391,42.432.554,5.626,2.881,9.949,12.346,11.026-11.781-38.662,8.47-67.183,28.152-95.879l-1.766-1.656c-4.516,2.115-9.139,4.032-13.518,6.4-4.977,2.69-9.917,3.409-12.928-1.993-2.93-5.259.125-9.333,4.747-12.4C500.324,282.993,540.78,304.867,552.729,346.308Zm-190,108.993A100.846,100.846,0,0,0,314.1,439.987c-15.423-.8-24.071,5.985-27.479,21.118-1.788,7.939-2.267,16.2-4.395,24.029-3.2,11.756-7.582,23.183-10.979,34.891-3.321,11.447-1.287,22.1,7.394,30.6,8.982,8.8,19.545,10.786,31.38,5.885,24.628-10.2,44.946-25.9,59.381-48.3,4.876-7.565,7.116-16.829,10.56-25.317C378.08,471.4,372.773,461.552,362.732,455.3Zm-69.3,84.849c-7.952-3-8.3-9.1-6.805-15.121,5.158-20.8,10.695-41.5,16.253-62.194,1.648-6.137,5.764-7.508,11.247-4.959C307.243,485.265,300.394,512.492,293.437,540.15ZM500,5C226.619,5,5,226.619,5,500S226.619,995,500,995,995,773.381,995,500,773.381,5,500,5ZM179.518,643.172c-.785-6.635-1.57-13.27-2.519-21.3C186.425,626.341,186.945,630.738,179.518,643.172Zm10.46-30.121c4.268-7.716,9.237-15.05,14.163-22.386.5-.74,2.1-.733,3.875-1.284,2.165,1.228,5.388,2.1,6.789,4.191.919,1.374-.259,4.827-1.427,6.8A136.885,136.885,0,0,1,202.2,617.054c-1.354,1.666-5.309,2.672-7.339,1.941C192.681,618.21,189.468,613.973,189.978,613.051Zm134.641,90.8c.3,5.923-1.124,9.817-6.825,9.5-10.656-.6-21.709-.912-31.742-4.065-11.476-3.607-12.84-10.955-6.147-21.03q17.409-26.208,35.032-52.274c2.343-3.452,5.332-6.466,8.023-9.683l2.453,1.128c-.717,6.886-2.048,13.773-2.033,20.657C323.418,666.678,323.671,685.29,324.619,703.855Zm-64.263-8.663c-3.331,4.715-8.562,4.789-10.607-1.608-3.79-11.848-7.1-23.877-9.879-36-.494-2.149,2.521-5.106,2.975-5.946,12.813,1.042,22.638,2.108,32.49,2.542,5.924.261,8.825,2.894,5.892,8.045C274.8,673.522,267.854,684.578,260.356,695.192Zm47.534-66.057c-.961,7.615-9,15.806-16.184,15.435-8.555-.442-17.061-1.841-28.637-3.177,7.5-11.209,13.555-20.176,19.509-29.212,3.465-5.258,8.041-6,13.714-4.159C303.9,610.488,309.083,619.679,307.89,629.135ZM266.5,617.643c-3.781,5.517-7.424,11.146-11.535,16.407-1.54,1.972-4.228,3.047-5.173,3.694-14.707-1.652-16.757-5.278-9.877-16.33,3.758-6.038,8.227-12.139,13.789-16.339,2.821-2.13,9.661-1.618,13.107.4C271.91,608.454,269.271,613.6,266.5,617.643Zm-42.491,9.385c-1.365,1.808-8.027-.379-13.47-.824,9.542-23.409,18.456-31.3,31.631-28.116C236.118,608.062,230.763,618.073,224.009,627.028Zm-1.289,55.416c-2.539-3.038-6.543-5.747-7.313-9.181a92.251,92.251,0,0,1-1.917-22.385c.071-2.77,3.783-7.96,5.078-7.732,4.586.8,11.155-.06,11.947,7.383.735,6.9.893,13.953,2.469,20.665C234.815,678.989,232.031,681.516,222.72,682.444Zm-19.3-16.035c-.026,1.131-1.7,3.273-2.191,3.158-1.78-.419-4.4-1.235-4.868-2.555-1.813-5.074-2.916-10.4-3.775-13.69.59-5.637.448-9.247,1.5-12.463a7.489,7.489,0,0,1,4.874-4.338c1.253-.222,4.293,2.464,4.365,3.955C203.748,649.1,203.61,657.765,203.417,666.409ZM655.51,552.066c-13.914,16.3-13.883,36.033-14.481,55.46-.439,14.242.7,28.548,1.487,42.806.913,16.5-2.2,32.22-10.974,46.05a567.4,567.4,0,0,1-34.034,48.531c-8.906,11.241-21.893,15.233-36.535,15.6-24.444.608-48.866,2.368-73.271,4.021a48.584,48.584,0,0,0-15.236,3.666c-22.12,9.282-45.117,12.906-69.033,13.085-44.394.332-88.6-1-132.426-9-19.088-3.485-35.066-12.61-45.41-28.522-12.289-18.906-22.3-39.295-33.291-59.042l2.533-3.527c4,.725,9.578.047,11.694,2.437,6.288,7.1,13.826,8.377,22.183,7.246,6.774-.917,10.619,1.409,13.887,7.455,5.413,10.015,8.892,10.609,19.7,7.315,2.249-.686,6.154.64,7.945,2.408,15.931,15.721,35.161,16.5,55.351,12.5,2.735-.543,6.962-3.493,7.091-5.543.576-9.14,7.965-9.128,14.183-11.991A18.118,18.118,0,0,1,348.331,706c2.124,8.986,5.592,16.706,16.239,18.021,11.54,1.426,21.429-1.5,28.687-11.041,2.3-3.024,3.533-6.876,8.591-2.914,12.316,9.647,20.209,7.95,28.219-5.474.886-1.484,1.727-2.994,2.8-4.867,1.729.325,3.406.512,5.009.964,10.692,3.01,16.064,1.363,22.421-8.054,2.993-4.434,5.195-6.268,11.165-4.081,11.076,4.058,18.257-.029,20.74-11.733,1.5-7.078,6.461-9.863,10.779-14.429,17.117-18.1,39.756-20.255,62.051-24.022a109.792,109.792,0,0,0,11.989-2.473c12.183-3.492,21.836-10.5,21.884-24,.093-26.31,13.583-47.214,25.946-68.521,10.455-18.018,7.686-17.748,26.9-8.308C664.022,541.1,664.471,541.57,655.51,552.066ZM385.439,679.277c3.142,1.015,4.857,6.444,7.231,9.834-2.308,18.321-9.1,26.419-22.885,26.451-8.783.021-12.928-4.182-12.539-12.927a57.507,57.507,0,0,1,1.087-6.017C361.171,678.126,367.749,673.56,385.439,679.277Zm-8.684-24.469c.11-5.479,1.486-10.948,2.517-16.388,1.408-7.435,12.706-12.4,18.834-8.093,1.624,1.14,2.307,3.622,3.546,5.7-3.011,8.444-5.042,16.828-9.112,24.065-1.387,2.467-7.974,2.881-12.037,2.526C378.959,662.479,376.7,657.525,376.755,654.808Zm-11.3-12.976c-1.9,18.18-10.8,33.5-21.368,47.927-.716.977-2.45,1.209-4.514,2.157-6.534-17.124-9.372-33.567-7.026-50.565,1.612-11.68,6.868-16.4,16.61-16.548C360.991,624.625,366.683,630.076,365.458,641.832Zm44.386,30.033c12.391-5.832,17.588-1.928,16.016,11.507a81.772,81.772,0,0,1-5.06,19.166c-.772,2.042-4.58,4.409-6.641,4.115-2.555-.365-5.912-2.888-6.838-5.284-2.056-5.324-2.812-11.15-4.646-19.162C404.628,679.233,406.289,673.538,409.844,671.865ZM407.6,646.45a49.332,49.332,0,0,1,4.454-12.209c2.973-5.529,8.752-6.187,13.062-1.9,6.277,6.252,2.325,13.366.666,19.721-.733,2.809-5.373,4.6-6.456,5.448C407.022,657.311,405.493,655.61,407.6,646.45Zm44.945-.739c-3.26,2.761-7.362,4.528-11.129,6.69a82.748,82.748,0,0,1-2.664-8.535c-.335-1.62.251-3.426.393-5.15.442-5.372,1.133-11.675,8.12-10.5,3.046.512,5.241,6.081,7.823,9.353l-1.781,1.464C453.113,641.326,453.794,644.657,452.548,645.711Zm2.028,17.96c.634-.046,2.2,2.319,2.033,3.356-1.181,7.31-2.209,14.722-4.427,21.741-.634,2-5.2,4.12-7.661,3.806-2.417-.308-5.355-3.245-6.439-5.736-1.69-3.882-2.008-8.362-3.149-13.732.991-2.128,1.678-6.567,3.634-7.223C443.6,664.2,449.185,664.061,454.576,663.671ZM482.6,641.506c-1.99,2.326-5.084,4.485-7.987,4.929-1.481.227-4.731-3.222-5.105-5.37-.672-3.868-.881-8.581.819-11.846,1.267-2.433,6.728-5.061,8.735-4.141,2.629,1.205,3.7,5.816,5.437,8.963l-1.335.712C483.04,637.06,483.79,640.113,482.6,641.506Zm-4.52,17.091c3.1.356,5.7,5,10.15,9.26-4.4,5.5-7.09,12.1-10.586,12.559-7.44.983-8.608-5.991-8.972-12.111C468.274,661.615,472.339,657.938,478.079,658.6Zm42.137-73.529c.437-5.161,5.084-11.3,9.579-14.535,13.618-9.794,24.075-21.54,31.136-36.927,2.285-4.979,8.223-8.822,13.278-11.885,14.394-8.719,33.019-7.8,47.563,2.507-6.919,12.432-13.378,24.8-20.562,36.739a90.753,90.753,0,0,0-13.366,42.9c-.751,14.628-3.742,18.292-18.117,21.355-14.525,3.094-29.155,5.748-43.823,8.058-1.687.266-5.575-2.846-5.634-4.494C519.739,614.213,518.992,599.545,520.216,585.068Zm136.119-61.506c-16.716-6.717-33.468-13.783-50.819-18.379-23.665-6.268-47.144,7.069-58.569,28.48a76.257,76.257,0,0,1-21.656,24.48c-12.513,9.215-18.613,19.813-17.758,35.423a402.217,402.217,0,0,1-.366,41.982c-.551,11-3.387,13.866-15.421,17.36,0-7.832-.166-15.12.035-22.4.39-14.073-3.059-16.841-16.956-14.546-9.592,1.584-19.458,1.612-28.986,3.451a103.313,103.313,0,0,1-28.958,1.9c-14.3-1.2-29.366,3.917-43.272,1.514-12.562-2.169-25.14-4.855-37.68-7.3-6.154-1.2-10.923-4.5-17.34.514-1.5-2.047-2.95-3.712-4.053-5.583-6.671-11.312-17.9-15.723-30.5-12.964-3.64.8-7.914-.912-11.81-1.838-1.926-.458-3.564-2.087-5.49-2.605-8.872-2.384-17.733-4.894-26.731-6.7-5.874-1.177-12.146-.535-17.929-1.966-5.829-1.441-11.273-4.437-18.789-7.537,5.379-6.47,10-12.715,15.328-18.293,9.86-10.327,20.149-20.244,30.222-30.369,12.491-12.554,16.233-25.511,7.45-40.3-11.092-18.678-7.525-34.722,4.666-49.973,20.03-25.057,30.667-54.371,37.141-84.867,4.733-22.3,8.924-44.529,18.447-65.3,2.3-5.022,6.122-10.366,10.709-13.142,17.575-10.638,36.024-14.646,55.241-3.424,4.771,2.786,9.846,5.058,14.812,7.5a72.139,72.139,0,0,0,50.881,5.567c26.591-6.469,53.622-6.786,80.7-2.021,30.053,5.288,46.931,23.725,53.811,52.594,6.65,27.9,5.027,56.135,3.9,84.417a264.016,264.016,0,0,0,1.188,37.515c1.43,13.827,8.829,22.994,22.862,27.693,20.388,6.827,40.275,15.166,60.289,23.079,3.966,1.567,7.543,4.116,11.268,6.2C675.566,526.207,668.189,528.326,656.335,523.562Zm118.884-171.9c-1.811,14.626-4.462,29.193-7.636,43.591-3.812,17.294-9.5,34.212-12.649,51.605-4.194,23.162-15.17,42.014-32.321,57.5-9.022,8.147-15.818,7.672-26.693,2.741-25.41-11.522-50.982-22.762-76.93-33-15.711-6.2-19.763-9.11-20.375-26.128-.532-14.827-.031-29.742.922-44.56,2-31.17.453-61.884-11.988-90.965-11.93-27.885-35.661-39.384-64.038-43.548-6.4-.939-12.836-1.648-19.256-2.463,13.809-12.91,28.926-22.684,46.211-24.836,28.5-3.549,57.377-5.827,86.065-5.549,25.118.243,47.131,11.9,66.337,28.114,2.871,2.423,5.869,5.113,7.668,8.319,12.925,23.026,34.413,37.725,53.241,54.949C771.158,334.2,776.448,341.745,775.219,351.666Z"/></svg>