<svg xmlns="http://www.w3.org/2000/svg" viewBox="0 0 1000 1000"><path d="M7.885 494.283C2.669 202.196 266.068 9.21 449.926 5.299c152.563-3.912 288.175 29.99 399.012 139.523 95.188 97.797 143.435 217.761 143.435 355.98 0 277.744-233.409 494.2-491.592 494.2-268.616 0-502.024-229.496-492.896-500.72zm48.246-5.216c-3.912 289.479 230.8 462.905 444.65 452.473 241.232 10.432 443.345-204.721 443.345-434.218 2.608-230.8-170.818-461.6-443.345-457.689-258.184 0-444.65 203.418-444.65 439.434zm91.277 58.678c-5.216-16.951 0-32.599 15.648-40.423 31.295-14.343 58.678 9.128 58.678 40.423 0 11.736-7.824 24.775-18.256 39.119 70.414 0 129.092 0 181.25-27.383 61.286-32.6 58.679-168.21 0-200.81-48.246-29.99-101.708-24.775-160.386-29.99-23.472 0-2.608 24.774-2.608 41.726 0 20.863-7.824 32.599-18.256 41.726-7.824 3.912-32.599 3.912-40.422 0-7.824-9.127-15.648-23.47-15.648-41.726 0-20.864 3.912-44.335 13.04-69.11 2.608-15.648 10.431-24.775 14.343-24.775 75.63-3.912 147.347-3.912 213.85 28.687 45.638 16.951 78.237 53.462 86.06 101.709 7.824 26.079 20.864 28.687 40.423 28.687h87.365c58.679 0 91.277 24.775 105.621 83.453 10.432 28.687 14.344 28.687 37.815 2.608 24.775-20.863 48.246-20.863 74.325-10.432 19.56 7.824 36.511 36.511 36.511 57.374 0 23.472-20.863 52.159-44.334 52.159-22.168 6.52-79.542-14.344-89.973-14.344-14.344 0-10.432 57.374-10.432 84.757 0 16.952-7.824 27.384-23.471 27.384-49.55 0-97.797 0-143.436-3.912-49.55 0-80.845-36.511-86.061-80.846 0-46.942 32.599-82.15 82.15-86.06 24.775-5.217 49.55-5.217 73.021-5.217 13.04 0 24.775 0 39.119-2.608 0-32.599-10.432-45.638-39.119-50.854-36.51-2.608-78.237-2.608-113.444 0-9.128 0-18.256 11.736-20.864 18.255-26.079 84.758-87.365 118.66-164.298 126.484-45.639 5.216-87.366 5.216-127.788 7.824-24.775 0-32.6-7.824-32.6-33.903 0-20.863-3.911-39.119-7.823-59.982zm367.716 80.845c0 24.776 18.256 39.12 33.903 39.12h86.061c18.256 0 26.08-10.432 26.08-26.08 2.607-35.207-5.216-40.423-37.815-40.423-67.806 0-108.229-9.127-108.229 27.383zm276.44-41.726c22.167 0 33.902-31.295 2.607-39.119-20.863 0-18.255 39.119-2.608 39.119z"/></svg>