<svg xmlns="http://www.w3.org/2000/svg" viewBox="0 0 1000 1000"><path d="M749.728 72.253C672.585 27.45 589.21 5 499.508 5c-89.012 0-172.09 22.45-249.232 67.253-74.473 44.209-133.814 103.55-178.023 178.023C27.451 327.419 5 410.694 5 500.002c0 89.308 22.45 172.583 67.253 249.726C116.462 824.2 175.803 883.54 250.276 927.75c77.143 44.803 160.418 67.253 249.726 67.253 89.308 0 172.583-22.45 249.726-67.253C824.2 883.541 883.54 824.2 927.75 749.728c44.803-77.143 67.253-160.418 67.253-249.726 0-89.308-22.45-172.583-67.253-249.726-44.209-74.473-103.55-133.814-178.022-178.023zM231.484 619.178c-1.978-1.978-1.978-2.967 0-5.934 62.308-105.825 124.616-213.627 186.924-320.44 2.967-6.924 6.923-11.869 10.88-18.792 0 .989.988 1.978.988 2.967 18.791 30.66 36.594 62.308 53.407 92.967 1.978 1.978 1.978 4.945 0 6.923-42.528 75.165-87.033 149.342-130.55 224.507-1.978 1.978-1.978 3.956 0 5.934 26.703 28.681 51.429 56.373 77.143 86.044 1.978 1.978 3.956 2.967 6.923 2.967h95.935c-.99 1.978-.99 1.978-.99 3.956-28.68 30.66-55.384 62.308-83.077 93.956-.989.99-1.978 3.956-1.978 3.956h-56.373c-13.847-16.813-29.67-32.637-44.506-49.45-37.583-43.517-76.154-86.045-114.726-129.561zm218.572-375.826c-.989-1.978-.989-2.967 0-5.934 18.792-30.66 37.583-62.308 54.396-93.956.99 0 .99-.989 1.978-1.978 4.945 7.912 8.901 15.824 13.846 22.747 56.374 98.902 111.76 195.825 170.11 295.716 28.682 50.44 59.342 102.857 89.012 154.286 0 .989 1.978 1.978 2.967 2.967v1.978c-.989 0-2.967 0-2.967 1.978-23.736 26.703-47.472 53.407-70.22 80.11-27.692 32.638-56.374 65.275-85.055 96.923h-130.55l35.605-41.538c43.516-49.45 86.044-98.902 128.571-147.363 1.978-1.978 1.978-3.956.99-6.923-41.54-71.21-82.089-141.43-123.627-211.65-28.682-50.44-56.374-97.912-85.056-147.363z"/></svg>