<svg xmlns="http://www.w3.org/2000/svg" viewBox="0 0 1000 1000"><path d="M257.812 346.179H50.179C86.066 193.659 257.812 23.194 479.544 6.532c283.253-21.789 465.252 193.535 501.14 349.9-6.409 0-15.38 5.127-25.634 5.127H793.557c-21.788 0-30.76-5.127-39.732-20.507-112.788-165.338-344.774-171.746-471.661-14.098-5.127 8.971-15.38 19.225-24.352 19.225zM19.418 519.207c0-56.395-5.127-56.395 56.394-56.395h125.606c20.507 0 25.633 0 25.633 20.507-5.126 61.521 0 61.521-60.239 61.521H45.052c-14.099 0-25.634-11.535-25.634-25.633zm30.76 139.704h39.733c51.267 0 106.38-3.845 156.366 0 16.662 0 25.634 6.408 35.887 15.38C409.051 835.783 635.91 831.938 757.67 658.91c5.127-3.845 14.099-14.099 25.634-14.099h197.38c-35.888 161.494-223.014 370.409-506.267 348.62C252.685 976.769 86.066 801.178 50.18 658.91zm293.507-105.099c35.887 0 65.366-15.38 96.127 19.226 34.605 46.14 105.098 42.295 144.83 0 42.296-34.606 42.296-101.254 6.409-140.986-39.733-44.86-106.38-44.86-151.24-3.845-29.478 26.915-56.394 29.479-96.126 17.943 14.099-74.337 105.098-135.858 187.126-125.605 96.127 11.535 166.62 96.127 166.62 193.535-5.127 89.718-87.155 166.62-178.155 170.464-79.464 0-165.337-60.239-175.591-130.732z"/></svg>