<svg xmlns="http://www.w3.org/2000/svg" viewBox="0 0 1000 1000"><path d="M733.734 217.06c141.763 12.888 251.894 126.533 260.095 267.125-8.2-231.977-201.515-417.09-435.836-410.06-138.249 5.858-267.125 73.81-340.936 190.97C229.945 123.333 342.42 13.202 484.182 5 248.69 15.544 68.264 214.717 78.808 451.38c4.686 132.392 73.811 255.41 185.113 330.392C122.157 768.885 14.37 655.24 6.17 515.82c5.858 231.977 201.515 417.09 433.492 412.404 138.25-3.515 263.611-74.983 340.937-188.628-12.888 139.42-125.362 247.208-264.782 255.409 233.148-8.201 415.918-203.859 407.717-438.18-4.686-135.905-72.64-264.781-189.8-339.764zm-358.51 408.89c-70.297-69.125-66.782-180.428 0-247.209 66.78-66.781 180.426-66.781 247.207 0 66.782 66.781 66.782 180.427 0 247.208-31.633 35.148-76.154 51.55-124.19 51.55-45.692 0-91.384-16.402-123.018-51.55z"
    style="fill:#000;fill-opacity:1;fill-rule:nonzero;stroke:none"/></svg>