<svg xmlns="http://www.w3.org/2000/svg" viewBox="0 0 1000 1000"><path d="M575.406 461.528c0-4.103-6.155 4.104 43.088-54.373 120.032-86.177 355.991-252.374 376.51-262.633-12.311 37.959-23.597 70.788-38.985 105.669 0 3.077-4.104 8.207-11.285 12.31-155.939 84.125-358.043 199.027-369.328 199.027zM5 151.703c0-4.103 3.078-4.103 3.078-4.103 44.114 26.673 83.098 58.476 127.213 88.228 73.865 53.347 152.86 104.643 230.83 159.016 20.518 16.415 44.114 31.803 50.269 66.684-23.596-11.285-41.036-23.596-61.555-34.88-94.383-50.27-187.741-105.67-287.254-156.965-19.493-11.285-31.804-23.596-35.907-43.088C24.492 197.869 12.18 174.273 5 151.703zm50.27 134.395 4.103-4.104c52.322 27.7 102.591 54.373 149.783 82.073 69.762 38.984 142.602 73.865 207.234 109.772 17.44 11.285 23.596 28.726 35.907 43.088l-3.078 3.078c-15.389-3.078-32.829-11.285-47.192-14.363-97.461-44.114-192.87-85.15-290.332-129.264-20.519-9.234-35.907-16.415-40.01-40.01-4.104-15.39-12.312-35.908-16.415-50.27zM95.28 390.74c27.7 12.311 51.296 23.596 77.97 32.83 91.305 37.958 185.689 78.995 275.97 116.953 23.595 12.311 44.113 38.985 40.01 62.58-8.208 71.815-19.493 137.473-28.726 213.39-23.596-8.207-31.803-20.518-26.674-44.114 15.39-50.27 26.674-101.565 38.985-152.86 3.078-28.726 3.078-31.804-23.596-43.089-103.617-38.984-205.182-78.995-305.721-117.98-31.803-11.285-41.037-31.803-48.218-67.71zm365.224 94.384c-3.078-6.155 0-14.363 9.233-26.674 3.078 0 3.078-3.077 6.156 0 8.207 15.39 17.44 26.674 24.622 44.115 7.181-17.44 12.31-28.726 19.492-44.115 20.518 12.311 23.596 23.596 11.285 38.985-11.285 19.492-18.466 43.088-30.777 69.762-16.415-26.674-27.7-52.322-40.01-82.073zm15.389-53.347 20.518-20.518c27.7 20.518 27.7 20.518 0 56.425-7.181-12.311-12.31-23.596-20.518-35.907zm5.13 387.794c3.077-58.477 12.31-121.058 15.388-179.534h4.104c7.181 58.476 12.31 117.98 19.492 172.352 0 19.493 0 35.907-19.492 43.089-16.415-7.182-19.493-15.389-19.493-35.907zm35.906-184.664c-4.103-23.596-12.31-47.192 3.078-70.788 5.13-8.207 5.13-13.337 20.518-20.518 116.954-49.244 234.934-96.436 348.81-148.757h12.31c-4.103 40.01-23.595 55.4-59.502 66.684-105.669 41.037-211.338 82.073-322.136 126.187 8.207 28.726 11.285 55.4 20.518 78.995 7.182 34.881 14.363 73.866 23.596 108.747 3.078 26.673 3.078 26.673-27.7 41.036-8.207-58.477-12.31-122.083-19.492-181.586zm34.881-117.98c3.078-22.57 15.389-34.88 31.803-43.088 25.648-13.337 365.224-194.923 351.888-187.741 12.31-4.104 12.31-4.104 9.233 3.077-9.233 20.518-15.389 44.114-26.674 67.71-3.078 7.182-9.233 10.26-16.414 14.363-108.747 49.244-223.649 96.436-334.447 145.68z"/></svg>