<svg xmlns="http://www.w3.org/2000/svg" viewBox="0 0 1000 1000"><path d="M453.092 77.293H130.82c-7.726 0-7.726 0-7.726 7.725v259.364c0 6.622 0 6.622-7.725 6.622H11.622c-6.622 0-6.622 0-6.622 7.726v83.88c0 6.621 0 6.621 6.622 6.621h103.746c7.725 0 7.725 1.104 7.725 8.83v87.19c0 6.622 0 6.622-7.725 6.622-35.318 1.104-68.428 1.104-103.746 1.104-6.622 0-6.622 0-6.622 7.726v83.879c0 6.622 0 6.622 7.726 6.622h99.33c11.037 0 11.037-1.104 11.037 11.037v249.43c0 11.037 0 11.037 9.933 11.037h325.585c15.451 0 32.006 0 45.25-2.207 49.666-3.311 98.228-13.244 144.582-32.007 35.318-13.244 70.635-32.006 100.434-56.287 38.629-26.488 70.636-60.702 97.124-100.435 16.555-23.177 26.488-48.561 37.525-73.946 1.103-3.311 4.415-6.622 11.037-6.622h93.812c6.622 0 6.622 0 6.622-6.622v-83.88c0-7.725-1.104-8.829-6.622-8.829-23.177 1.104-44.147 1.104-67.324 0-11.037 0-11.037 1.104-8.83-8.83 2.208-29.798 2.208-59.598 0-86.086 0-5.518 1.104-7.726 6.622-7.726h69.532c6.622 0 6.622 0 6.622-5.518V358.73c0-7.726 0-7.726-6.622-7.726H896.77c-5.518 0-8.83-1.103-11.037-4.414-13.244-34.214-28.695-66.221-50.769-96.02-45.25-61.806-102.642-104.85-172.173-134.649-34.214-14.347-68.428-24.28-103.746-30.903-35.317-5.518-69.531-7.725-105.953-7.725zM220.217 825.585V658.93c0-7.726 0-7.726 7.725-7.726h541.905c2.208 0 6.622 1.104 9.933 1.104 0 0 0 2.207 2.208 2.207-8.83 9.933-13.244 20.97-20.97 30.903-26.488 40.836-60.702 75.05-105.953 100.434-38.629 22.074-81.672 37.525-128.026 43.044a732.975 732.975 0 0 1-69.532 3.31c-77.257 1.104-153.41 0-229.564 0-7.726 0-7.726 0-7.726-6.621zm0-280.334v-87.19c0-7.726 0-8.83 7.725-8.83h573.912c8.83 0 11.037 0 11.037 9.933 1.103 22.074 1.103 44.147 1.103 66.221 0 5.518-1.103 13.244-1.103 19.866-2.208 6.622-2.208 6.622-9.934 6.622H231.254c-1.104 0-3.311 0-3.311 1.104-5.519 0-7.726-2.208-7.726-7.726zm0-200.869V174.416c0-7.726 1.103-7.726 7.725-7.726h230.669c29.799 0 58.495 2.208 88.294 7.726 35.317 7.726 68.428 18.763 99.33 34.214 54.08 29.8 98.228 71.739 126.923 124.715 3.311 5.519 5.519 12.14 8.83 15.452v2.207H227.942c-7.725 0-7.725 0-7.725-6.622z"/></svg>