<svg xmlns="http://www.w3.org/2000/svg" viewBox="0 0 1000 1000"><path d="M454.085,499.161c0,5.885,1.087,11.512,3.053,16.704l-71.329,43.411c-7.03-9.013-17.955-14.812-30.235-14.812-13.461,0-25.297,6.965-32.153,17.499l-82.799-53.159c.911-3.056,1.415-6.289,1.415-9.643,0-1.904-.195-3.759-.498-5.577l82.881-51.739c6.856,6.41,16.043,10.336,26.146,10.336,11.916,0,22.564-5.455,29.608-14.015l75.589,48.529c-1.085,3.971-1.677,8.148-1.677,12.465Zm545.915,.839c0,276.142-223.858,500-500,500S0,776.142,0,500,223.858,0,500,0s500,223.858,500,500Zm-387.298-250.839c0,18.533,14.951,33.557,33.394,33.557s33.393-15.024,33.393-33.557-14.951-33.557-33.393-33.557-33.394,15.024-33.394,33.557Zm-146.93-90.604c0,18.533,14.951,33.557,33.393,33.557s33.394-15.024,33.394-33.557-14.952-33.557-33.394-33.557-33.393,15.024-33.393,33.557Zm-5.009,171.142c0,21.313,17.193,38.591,38.401,38.591s38.403-17.278,38.403-38.591-17.193-38.591-38.403-38.591-38.401,17.278-38.401,38.591Zm-138.583-82.215c0,18.533,14.951,33.557,33.393,33.557s33.393-15.024,33.393-33.557-14.951-33.557-33.393-33.557-33.393,15.024-33.393,33.557Zm-146.931,82.215c0,18.533,14.951,33.557,33.393,33.557s33.393-15.024,33.393-33.557-14.951-33.558-33.393-33.558-33.393,15.024-33.393,33.558Zm66.787,338.926c0-18.533-14.951-33.557-33.393-33.557s-33.393,15.024-33.393,33.557,14.951,33.557,33.393,33.557,33.393-15.024,33.393-33.557Zm146.93,83.892c0-18.532-14.951-33.556-33.393-33.556s-33.393,15.024-33.393,33.556,14.951,33.557,33.393,33.557,33.393-15.024,33.393-33.557Zm143.593,88.927c0-18.533-14.952-33.557-33.394-33.557s-33.393,15.024-33.393,33.557,14.951,33.557,33.393,33.557,33.394-15.024,33.394-33.557Zm5.009-174.497c0-21.313-17.193-38.591-38.403-38.591s-38.401,17.278-38.401,38.591,17.193,38.591,38.401,38.591,38.403-17.277,38.403-38.591Zm141.921,87.249c0-18.533-14.951-33.557-33.393-33.557s-33.394,15.024-33.394,33.557,14.951,33.557,33.394,33.557,33.393-15.024,33.393-33.557Zm145.261-85.57c0-18.533-14.951-33.557-33.392-33.557s-33.394,15.024-33.394,33.557,14.951,33.557,33.394,33.557,33.392-15.024,33.392-33.557Zm0-169.464c0-18.532-14.951-33.557-33.392-33.557-9.043,0-17.232,3.626-23.245,9.492l-84.323-54.137c.459-2.386,.708-4.848,.708-7.368,0-21.313-17.193-38.591-38.401-38.591s-38.403,17.278-38.403,38.591c0,3.17,.389,6.248,1.106,9.196l-73.443,44.698c-8.549-9.403-20.849-15.303-34.521-15.303-14.913,0-28.186,7.027-36.746,17.956l-75.91-48.736c.516-2.523,.788-5.135,.788-7.811,0-21.313-17.193-38.591-38.401-38.591s-38.403,17.278-38.403,38.591c0,4.492,.772,8.801,2.176,12.811l-80.806,50.444c-6.115-6.883-14.986-11.242-24.89-11.242-18.442,0-33.393,15.026-33.393,33.557s14.951,33.557,33.393,33.557c8.457,0,16.156-3.184,22.04-8.392l86.624,55.614c-.082,1.028-.135,2.064-.135,3.114,0,21.313,17.193,38.591,38.402,38.591s38.403-17.278,38.403-38.591c0-2.318-.215-4.584-.605-6.789l73.565-44.771c8.519,9.016,20.55,14.646,33.898,14.646,13.867,0,26.319-6.074,34.881-15.712l72.46,46.521c-.315,1.989-.483,4.027-.483,6.104,0,21.313,17.193,38.591,38.403,38.591s38.401-17.278,38.401-38.591c0-2.512-.247-4.965-.703-7.343l85.086-51.784c5.936,5.443,13.807,8.79,22.477,8.79,18.442,0,33.392-15.024,33.392-33.557Zm0-169.462c0-18.533-14.951-33.558-33.392-33.558s-33.394,15.024-33.394,33.558,14.951,33.557,33.394,33.557,33.392-15.024,33.392-33.557Zm-65.783,161.43l-83.004-53.29c-7.04,8.746-17.801,14.343-29.866,14.343-11.441,0-21.706-5.033-28.741-13.008l-72.508,44.129c1.768,4.955,2.738,10.293,2.738,15.859,0,5.373-.91,10.53-2.563,15.339l70.472,45.245c7.013-9.283,18.108-15.281,30.602-15.281,12.09,0,22.869,5.62,29.908,14.396l83.223-50.649c-.803-2.883-1.263-5.909-1.263-9.049,0-2.774,.372-5.454,1.003-8.032Z"/></svg>
