<?xml version="1.0" encoding="utf-8"?>
<!-- Generator: Adobe Illustrator 26.0.1, SVG Export Plug-In . SVG Version: 6.00 Build 0)  -->
<svg version="1.1" id="Layer_1" xmlns="http://www.w3.org/2000/svg" xmlns:xlink="http://www.w3.org/1999/xlink" x="0px" y="0px"
	 viewBox="0 0 1000 1000" style="enable-background:new 0 0 1000 1000;" xml:space="preserve">
<g>
	<path d="M500.5,5C223.6,5,5,229.5,5,499.5C5,773.5,226.5,995,499.5,995C776.4,995,995,770.5,995,499.5C995,223.6,770.5,5,500.5,5z
		 M832.6,755c-93.2,120.9-262.1-40.8-262.1-40.8s-96.6,221.1-237.8,134.1c-141.6-87.2-40.4-233.5-40.4-233.5s-166.9,25-159.9-174.8
		c7.9-224.3,223.9-64.6,223.9-64.6s-72.7-223.9,93.2-238.2c165.8-14.3,142.3,172.7,142.3,172.7s128-122.8,236.5-5.1
		c108.5,117.7-42,204.1-42,204.1S933.5,624.1,832.6,755z"/>
	<ellipse cx="487.5" cy="507.4" rx="106.8" ry="103.4"/>
</g>
</svg>
