<svg xmlns="http://www.w3.org/2000/svg" viewBox="0 0 1000 1000"><path d="m74.864 43.35 300.41 843.702c10.226 28.123 21.73 56.246 31.958 84.37 2.556 7.67 6.391 14.062 11.505 19.175 16.618 8.948 38.35 3.835 47.298-11.505v1.278l455.088-666.013c12.783-19.175 3.835-40.907-11.505-51.133-7.67-8.949-31.959-24.289-38.35-29.402-26.846-21.732-57.526-42.185-88.206-60.082-6.391-5.113-14.061-7.67-21.731-10.226l-218.596-53.69C503.107 99.597 463.478 90.648 423.85 81.7c-58.803-12.783-117.607-26.845-176.41-43.463-14.062-3.835-26.845-6.392-39.629-8.949 0 0-93.318-24.288-102.267-24.288C94.04 5 88.926 7.557 79.978 16.505c-7.67 10.227-8.949 12.783-5.114 26.845zm86.927 97.154 107.38 129.112c48.577 58.803 98.432 117.606 145.73 176.41 6.392 8.948 11.506 15.34 17.897 21.732 10.227 10.226 16.619 19.175 25.567 30.68l-3.835 37.071c-1.278 12.784-3.835 40.907-23.01 214.76-6.392 58.804-11.505 122.721-12.783 124-43.464-138.061-92.04-272.286-139.339-406.511-38.35-109.937-79.257-218.596-117.607-327.254zM186.08 89.37c172.575 42.185 346.429 85.649 521.56 126.555L487.768 452.418c-24.289-29.402-49.855-60.082-74.144-89.484C338.202 270.894 262.78 181.41 186.08 89.37zm286.347 768.28c11.505-113.772 24.288-228.822 37.071-342.594l311.914-164.905C706.362 518.89 590.034 690.188 472.427 857.65zm122.72-444.86c54.968-61.361 109.937-118.886 164.905-176.411l71.587 51.133z"/></svg>