<svg xmlns="http://www.w3.org/2000/svg" width="1000" height="1000">
  <path d="M750.036 262.653H596.46c5.077-24.115 5.077-40.615 7.615-63.461 5.077-7.616 0-13.962-12.692-13.962-41.885-1.269-45.692 0-54.577 45.692-5.077 26.654-11.423 31.731-26.654 31.731-24.115 0-40.615 2.539-62.192 7.616-52.038 12.692-96.461 40.615-114.23 91.384-29.193 83.769 10.153 145.961 92.653 157.384 46.962 6.346 91.385 3.808 138.346 3.808 41.884 0 83.769 13.961 83.769 53.307 5.077 52.039-29.192 92.654-83.77 101.539H331.192c-50.769 0-50.769 3.807-54.577 52.038 0 12.692 3.808 17.769 16.5 17.769H431.46c-5.077 20.308-10.154 39.346-10.154 59.654 0 5.077 0 13.961 5.077 13.961 16.5 0 34.27 0 52.038-3.807 3.808 0 7.616-16.5 7.616-30.462 8.884-39.346 8.884-39.346 52.038-39.346 102.808-8.885 159.923-57.115 176.423-152.307 12.692-72.346-21.577-123.115-92.654-132-46.961-10.154-96.461-5.077-143.423-10.154-57.115 0-97.73-17.769-82.5-64.73 6.347-43.154 40.616-58.385 102.808-58.385 76.154 0 145.961-2.538 219.576-2.538 5.077 0 24.116-3.808 24.116-10.154 2.538-16.5 7.615-33 7.615-54.577zM5 497.46c0-87.576 22.846-170.076 68.538-247.5C117.96 173.808 176.345 116.693 251.23 72.27 327.383 26.577 411.152 5 499.998 5s172.615 22.846 250.038 67.269c74.885 43.154 134.538 101.538 177.692 177.692 44.423 78.692 67.269 159.923 67.269 247.5 0 90.114-21.577 173.883-67.269 251.306-44.423 74.885-104.077 133.27-177.692 178.961-76.154 46.962-161.192 67.27-250.038 67.27s-171.345-22.847-248.768-67.27c-76.154-43.153-133.27-104.076-177.692-178.96C27.846 671.343 5 587.574 5 497.46zm68.538 1.27c0 78.692 16.5 148.5 57.115 217.037 39.346 66 87.577 114.23 154.846 153.577 68.538 39.346 135.807 58.384 214.5 58.384 78.691 0 148.499-19.038 217.037-58.384 66-38.077 114.23-88.846 153.577-154.846 40.615-67.269 57.115-137.076 57.115-217.038 0-77.423-17.77-145.96-57.115-214.5-38.077-65.999-87.577-112.96-154.846-153.576-66-39.346-137.077-57.115-215.769-57.115-78.692 0-145.96 19.038-215.768 57.115C216.96 166.192 170 216.961 130.653 284.23c-39.346 67.27-57.115 135.807-57.115 214.5z" style="fill:#000;fill-opacity:1;fill-rule:nonzero;stroke:none;"/>
</svg>
