<svg xmlns="http://www.w3.org/2000/svg" viewBox="0 0 1000 1000"><path d="M412.117 5v99.517c6.462 1.292 9.047 1.292 11.632 1.292h191.28c14.216 0 27.14 5.17 34.895 15.51l67.206 55.574c16.802 16.802 37.48 34.896 58.16 52.99l56.866 50.404c5.17 6.463 10.34 10.34 16.802 15.51 1.292 1.292 2.585 2.584 5.17 2.584-34.896-64.621-71.084-126.658-105.98-192.572h113.734c7.755 0 7.755 0 7.755 10.34v196.45c0 6.461 0 12.923-1.293 18.093 0 1.293-2.585 2.585-3.877 5.17H447.012c-6.462 0-7.754 0-7.754 9.047 0 28.433 1.292 55.574 1.292 85.3 0 1.293 1.293 3.877 6.462 3.877 0 5.17 2.585 5.17 3.878 6.463l64.621 55.574c15.51 14.217 31.018 28.434 46.528 41.358 18.094 18.094 37.48 34.895 56.866 51.697 12.925 12.924 27.141 23.264 41.358 34.896 1.293 2.584 3.877 3.877 5.17 3.877v-1.293C629.245 564.622 594.349 500 555.576 434.086h308.891c6.462 0 5.17 162.847 5.17 218.421 0 11.632 0 11.632-10.34 11.632H405.655c-5.17 0-6.463 0-6.463 7.754v65.914c0 6.462 1.293 16.802 0 21.972 0 9.047 2.585 10.34 5.17 10.34h205.496c12.925 0 19.387 1.291 32.311 1.291 1.293 0 2.585 1.293 3.877 2.585 19.387 15.51 38.773 33.603 58.16 51.698 24.556 20.678 49.112 43.942 72.376 63.329 21.971 18.094 41.358 34.895 58.16 51.697l19.386 15.509h1.292c-36.188-63.33-71.084-122.78-105.98-186.11h233.93c10.34 0 10.34 0 10.34 7.755V995H6.294V5zM7.587 876.097c0 3.878 2.584 6.462 3.877 9.047 11.632 7.755 20.679 18.094 32.31 27.141 14.217 12.925 29.726 24.556 43.943 38.773 2.585 2.585 5.17 3.877 7.755 5.17v-1.293C67.038 904.531 38.605 852.834 8.879 803.721H7.586zm0-669.478c0 11.632 1.292 18.094 9.046 27.14 25.849 19.387 50.405 41.359 73.669 62.038 2.585 2.584 3.877 2.584 5.17 5.17 0-2.586 0-2.586 2.584-2.586C68.331 247.977 39.897 194.987 8.88 144.582H7.586zM68.33 428.917c-3.878 1.292-1.293 3.877 1.292 10.34 3.877 3.876 7.755 7.754 14.217 12.923 18.094 16.802 37.48 33.604 59.451 51.698 23.264 21.97 46.528 41.357 72.377 63.329 19.386 16.801 37.48 34.895 58.159 52.99l11.632 9.046 2.585-1.292c-56.867-96.932-111.15-195.157-168.016-289.504-1.293 2.585-2.585 2.585-2.585 3.877-16.802 27.141-32.31 56.867-49.112 86.593zm186.11 329.57c-1.293 2.584 0 5.169 5.17 10.339 5.169 3.877 9.046 7.754 12.923 10.34 18.094 15.508 33.604 28.432 49.113 45.234 15.509 11.632 31.018 25.849 43.942 36.188 20.68 19.387 38.773 36.188 59.452 52.99 14.217 14.216 28.433 24.556 43.943 40.065 1.292 1.292 3.877 2.585 5.17 2.585h1.292c-54.282-98.225-109.857-195.157-164.139-288.212-3.877 1.293-3.877 2.585-5.17 2.585-15.509 28.433-33.603 59.452-51.697 87.885zm2.584-659.14c-3.877 3.878-2.585 6.462 2.585 11.632 2.585 2.585 3.877 2.585 5.17 3.877 9.047 9.047 20.679 18.094 31.018 28.434 18.094 12.924 31.018 27.14 46.528 41.358 18.094 16.801 37.48 33.603 59.451 49.112l56.867 55.574c9.047 3.878 11.632 7.755 15.51 11.632 1.292-2.585 1.292-2.585 3.877-2.585L308.722 6.292c-2.584 9.047-7.754 14.217-10.339 21.972-12.924 21.971-28.433 46.527-41.358 71.083z"/></svg>