<?xml version="1.0" encoding="utf-8"?>
<!-- Generator: Adobe Illustrator 26.0.1, SVG Export Plug-In . SVG Version: 6.00 Build 0)  -->
<svg version="1.1" xmlns="http://www.w3.org/2000/svg" xmlns:xlink="http://www.w3.org/1999/xlink" x="0px" y="0px"
	 viewBox="0 0 1000 1000" style="enable-background:new 0 0 1000 1000;" xml:space="preserve">
<g id="Layer_1">
</g>
<g id="Layer_3">
</g>
<g id="Layer_2">
	<g>
		<path d="M755.8,83c1.7,1.6,2.9,3.6,3.4,5.9c0.5,2.3,0.3,4.6-0.6,6.7c-16.7,40.3-54.7,73.6-87.3,96.1c29.8-0.4,69.3,5.4,115.5,27.9
			c14.7,6.2,91.7,36.6,147.8,14.1c-0.2-0.3-0.4-0.7-0.5-1c-1.1-2.2-2.3-4.3-3.5-6.4c-39.1-69.1-94.4-127.5-161.2-170.3
			C720.4,26.1,665.7,7.1,608.8,0c5.5,28,2.4,56.9-8.7,83.2C686.2,45.4,732,61.2,755.8,83z"/>
		<path d="M588,585c-28.7-9.3-71.7-52.3-137-36.7c-53.9,12.9-70.1,50.4-78.6,64.1c-20.1-19.8-41.4-33.2-59.1-36.3
			c-13.5-2.3-22.3,1.8-27.3,5.6c-9.2,7-9.4,7.2,51.6,134.1l5.1,10.5c0.1,0.2,0.2,0.3,0.3,0.5l5.5,11.3c0,0,3.5,11.9,23.8,6.2
			c0,0,140.4-13.4,193.8-110.6C573.7,617.9,581.1,601.5,588,585z"/>
		<path d="M854.1,434.8c-52.5,29.2-104.3,43.8-154.7,43.8c-28.3,0-56.5-4.7-83.3-13.9c9.3,37.4,2.5,75.2,8,109.3
			c2.5,0.9,5.2,1.8,7.8,2.6c77.5,25.4,137.6,29.8,174,12.7c10-4.5,18.7-11.4,25.5-19.9C856.8,537.4,855.3,470.6,854.1,434.8z"/>
		<path d="M202.7,732.9c2.3,4.2,3.7,7.2,4.3,8.6c14.4,27.9,32.1,56.1,56.2,72.1l2.4,1.5c27.3,16.9,76.3,31.6,126.6,39.7
			c3.4-38.8,26.6-74.1,49.7-100c-30.2,9.1-61.5,13.7-93,13.8C298,768.5,247.9,756.3,202.7,732.9z"/>
		<path d="M687.4,777.8c-2.3-0.9-4.4-1.9-6.3-2.9c-41.8-22.8-65.2-101.5-75.7-170.2c-1.5,3.9-3.1,7.7-4.7,11.6
			C589,646,579.4,676.6,572,707.7c-18.2,80.1-4.5,111.3,11.8,123.1v0C619.1,814.7,653.7,797,687.4,777.8z"/>
		<path d="M826,256.3c10.9,13.5,20,28.3,27.1,44.2c15.7,29.5,66.7,113.4,134.2,97.3c-3.8-24.2-9.1-48.1-15.9-71.6
			c-0.5-1.4-0.9-2.8-1.5-4.3l0.2-0.1c-6.8-22.6-15.3-45.4-25.7-68C905.8,270.1,860.3,264.8,826,256.3z"/>
		<path d="M489.4,860.9c43.4-3.2,64.3-16.4,72.1-19.9c-22.9-24.8-26.8-71.2-11.5-138.6c1.2-5.3,2.5-10.5,3.9-15.7
			c-21.8,23.4-58.1,46.2-80.5,67.8c-24.7,23.9-55.8,62.2-58.8,103.4C440.9,861,466.8,862.6,489.4,860.9z"/>
		<path d="M588,585C588,585,588,585,588,585C588,585,588,585,588,585L588,585z"/>
		<path d="M854.1,434.8C854.1,434.8,854.1,434.8,854.1,434.8C854.1,434.8,854.1,434.8,854.1,434.8L854.1,434.8z"/>
		<path d="M32.8,415.5L32.8,415.5c0.4-8.1-0.1-26.3-11.8-35.6c-9.4,34.5-14.8,69.9-16.1,105.6c11,1.1,21.5,5.5,30.1,12.5
			C32.4,481.1,26.9,452.7,32.8,415.5z"/>
		<path d="M741.8,303.9l-1.7,0.8c-74.2,37.6-144.3,16.6-182.7-1.4c11.3,26.7,26.3,62.3,32.1,76.1l0.1-0.1c2.4,5.5,4.7,11.2,7.1,17.2
			l0.1,0.3c5,13.1,9.6,27,13.4,41.7h0c9.2,3.7,18.6,6.9,28.2,9.5c68.2,18.2,140.3,5.3,214.6-38.6c-0.7-41-8.7-73.5-20.4-99.3
			c-3.2-6-4.8-9.8-5.1-10.3h0c-12.8-24.6-31.3-45.7-54.1-61.5c-50.4-23.7-91.6-25.8-118.6-22.7c77.2,30.3,90.3,74,90.9,76.1l0.5,1.8
			c0.6,2,0.4,4.1-0.4,6C745.1,301.4,743.6,303,741.8,303.9z"/>
		<path d="M861.7,764.8L861.7,764.8c-19.8-28.6-26.3-70.3-27.3-108.6c-6.9,16.2-14,30.7-20.9,43.2l0,0c-1,2.4-2.3,4.7-3.7,7.1
			c-11.5,22.6-48.7,102-31.5,152.9c5,14.8,14.2,25.8,28,33.2c14-10.3,54.7-42.7,94.4-96.9C884.8,789.7,871.1,778.9,861.7,764.8z"/>
		<path d="M732.4,749.5l0.1,0.1c54-31.9,86.4-105.5,97.8-148.3c-4.6,3.2-9.5,6-14.8,8.5c-18.6,8.7-40.6,12.3-64.1,12.3
			c-40,0-84.4-10.4-124-23.2c10.1,66.2,32.2,138.3,64.6,156.1C704.1,761.7,717.3,759.9,732.4,749.5z"/>
		<path d="M104.7,653.3c-25.6-33.6-44.1-62.4-53.5-92.9c-5.1-16.7-22.4-48.3-46.7-52.1c0.3,49.4,8,97.2,21.9,142.2
			C56.8,645.3,82.8,647.3,104.7,653.3z"/>
		<path d="M757,866.5c-11.8-34.8-3.1-78.5,8.8-113.8c-6.7,5.3-13.6,10.4-20.7,15.3l0.1,0.1l-3.7,2.3c-8.7,5.9-17.5,11.6-26.5,17.1
			l0.1,0.1c-5.3,3.3-127.3,80.4-69.1,190.6c50.8-15.7,98.8-39.5,142-70.5C773.3,897.8,762.4,883.3,757,866.5z"/>
		<path d="M990.5,420.3c-6.8,1.5-13.6,2.2-20.4,2.2c-33.5,0-66.6-17.9-97.2-52.9c-0.1-0.1-0.2-0.2-0.3-0.3c2.1,14.6,3.2,30,3.2,46
			c0.3,4.7,0.6,9.5,0.8,14.2c2.4,26.9,11.7,86.5,48,118.5c17.7,15.6,40,22.7,66.5,21.3c0.2-1.1,0.5-2.3,0.7-3.5
			c2.5-20.3,3.8-40.7,3.8-61.1C995.5,479.2,994.2,450.6,990.5,420.3z"/>
		<path d="M639.8,828.8c-27.8,14-102.6,39.3-145.5,88.2c-19.2,21.9-36,49.9-34.2,80.9c15.1,1.7,49.7,4.1,94.9-0.8l6.6-0.7l2.7-0.3
			c20.2-2.6,40.1-6.4,59.5-11.5C592.3,920.9,612,866.9,639.8,828.8z"/>
		<path d="M909.5,564.9c-16.5-14.6-28.1-33.4-36.4-52.8c-2.3,18.2-5.5,36.3-9.6,54.2c-2.9,17.4-20.4,132.1,16.7,185.6
			c8.9,12.8,20,20.7,34,24.2c17.2-26,31.8-53.5,43.6-82.4l0.1,0.1c13.4-32.4,23.6-66.4,29.9-101.8
			C957.1,592.8,930.9,583.7,909.5,564.9z"/>
		<path d="M495.7,883.3C495.7,883.3,495.7,883.3,495.7,883.3C495.8,883.3,495.8,883.3,495.7,883.3L495.7,883.3z"/>
		<path d="M495.7,883.3c-32.9,2.7-71.6-0.1-109-6.4c-27.3-2.9-103.5-5.7-156.8,43.1c62.5,40.8,133.4,66.9,207.5,76.3
			c-0.9-33.2,14.5-67.5,45.1-99.9C486.9,891.7,491.4,887.3,495.7,883.3z"/>
		<path d="M200.5,574.4c1.4,1.1,3.8,2.6,11.6,2.6c9.4,0,26.5-2.3,59.1-10.5c28.1-7.1,70.5-19.8,117.8-40.7
			c5.3-2.4,18.6-8.9,34.1-16.6c5.2,5.8,9.6,12.5,12.5,20.5c88.1-19.3,121.7,19,158.5,33.3c7.6-36,6.3-83.2-2.8-108.1
			C505.7,416.8,451.1,342.6,431,311.2c-20.1,15.7-50.2,36.5-68.4,73.4c-37.1,75-76.2,142.4-146.1,163.9c-12,3.7-19.8,6.6-20.8,15.3
			c-0.2,2,0.2,4.1,1,6C197.5,571.6,198.8,573.2,200.5,574.4z"/>
		<path d="M210.1,790.8c-11-16.2-20.7-33.3-29.1-51c-14.1-24.7-56.9-81.2-147.3-67.7c18.2,50.4,44.5,97.6,77.8,139.6
			C138.4,783.3,176.4,782.2,210.1,790.8z"/>
		<path d="M252.4,833.4c-12.4-7.5-86-48.6-125.8-5c11,13.5,39.4,45.7,84.4,78.3c29.3-28.6,64.5-42.6,96.7-49.1
			C288.3,852.2,269.7,844,252.4,833.4z"/>
		<path d="M259.6,415.1c20.4-14.7,57.3-41,70.2-51.6c23.5-19.3,88.3-70.5,104.6-83.4c0.5-0.4,1-0.6,1.6-0.7c0.6-0.1,1.2-0.1,1.7,0
			c0.6,0.1,1.1,0.4,1.6,0.8c0.5,0.4,0.8,0.8,1.1,1.4C490.9,382,583.2,425.8,583.2,425.8c-4-12.3-8.7-24.7-14.2-37.4l0.1,0
			l-19.3-45.6L537.5,314c-6.9-16.2-12.3-28.8-13.8-32.3L509,248.1c-0.5-1.1,0.8-2.1,1.8-1.4l29.8,21.5c0.8,0.6,86.9,60.7,179.2,21.3
			c-9.4-14.9-36.9-46.1-110.7-64.8l-25.2-6.4c-1.8-0.4-2-2.9-0.3-3.7l23.5-11.1c1-0.4,95.1-45.3,127.1-108.7
			c-42.1-28.8-115.6,2.7-157,24.9l-47.2,25.4c-1.1,0.6-2.2-0.8-1.4-1.8l34.7-40.8c1.5-1.8,35.2-42.8,23.1-99.9
			c-23-3.6-101-9-170,63.1l-13.8,14.4c-0.3,0.3-0.6,0.5-1,0.6c-0.4,0.1-0.8,0.1-1.2-0.1c-0.4-0.1-0.7-0.4-1-0.7
			c-0.2-0.3-0.4-0.7-0.4-1.1l-5.8-57.1c-34.4,14.7-125.5,65.7-138.9,196.3c-4.8,46.4-12.3,86.4-22.6,120.3l-0.1-0.1l-1.4,4.8
			c-3.6,11.3-7.5,21.9-11.7,31.8c-3.3,7.1-7.1,14-11.5,20.6c-7.6,11.3-4.2,18.9-1,22C212.2,423.5,242.3,427.6,259.6,415.1z
			 M359.2,203.9c0.7-1,1.6-1.9,2.6-2.6c15.3-9.8,31.5,6.4,21.7,21.8c-0.6,1-1.5,1.9-2.5,2.5C365.7,235.5,349.4,219.2,359.2,203.9z
			 M278.6,203.9c0.7-1,1.5-1.9,2.5-2.6c15.3-9.8,31.5,6.4,21.7,21.8c-0.6,1-1.5,1.9-2.5,2.5C285,235.5,268.8,219.2,278.6,203.9z"/>
	</g>
</g>
</svg>
