<svg xmlns="http://www.w3.org/2000/svg" width="1000" height="1000">
  <path d="M662.404 951.252H325.612c-57.53-5.993-105.473-31.162-133.04-83.898-56.331-94.686-111.464-188.172-164.2-287.652-31.163-51.537-31.163-107.87 0-159.407 52.736-98.28 107.869-194.164 164.2-287.651 32.362-55.133 80.303-83.899 141.43-83.899h328.402c63.523 0 115.06 28.766 146.222 83.899 56.332 93.487 107.87 189.37 163.003 284.056 31.162 52.736 31.162 111.465 0 166.598-55.133 95.884-106.67 189.37-163.003 285.254-26.368 41.95-63.523 68.317-113.862 76.707-10.787 2.397-21.574 5.993-32.36 5.993zM81.108 499.4c1.198 16.78 8.39 28.766 20.375 37.155 51.538 31.163 106.67 59.928 158.208 88.693 5.993 3.596 13.185 3.596 17.979 3.596 11.985-4.795 27.566-37.155 25.17-49.14-9.59-46.744-9.59-97.083-2.398-147.422 4.794-20.376 0-35.957-10.787-50.34-7.191-14.382-20.375-16.779-33.56-8.39-50.338 29.965-103.074 58.73-151.016 87.495-15.581 8.39-22.773 21.574-23.971 38.353zm35.956 0c47.942-27.566 95.884-53.934 145.025-82.7a486.036 486.036 0 0 0 0 166.599c-49.14-29.964-97.083-55.133-145.025-83.899zm255.291-159.406c0 3.595 3.596 3.595 3.596 5.992 14.382-5.992 28.765-14.382 37.155-17.978 8.39-2.397 10.787-8.39 10.787-17.978V208.152c0-16.78 10.786-25.17 25.169-16.78 39.552 17.979 75.509 34.759 110.266 53.935 25.17 11.986 38.354 33.56 40.751 59.928 1.199 31.162-14.382 56.331-43.148 68.317-47.942 22.772-95.883 46.743-143.825 70.714-27.567 15.581-40.751 43.148-32.361 73.112 4.794 19.176 17.978 31.162 35.956 39.552 46.744 22.772 92.288 43.148 140.23 68.317 27.567 10.787 43.148 32.36 43.148 61.126 0 33.56-14.382 55.133-40.75 68.317-38.354 17.978-70.715 34.758-106.671 53.935-17.979 8.39-28.765 0-28.765-19.177V686.373c0-3.596-2.398-10.787-3.596-13.184-15.581-4.794-27.567-13.184-44.346-20.375 0 55.133-3.596 104.273 4.794 155.81 2.397 39.553 49.14 62.325 82.7 47.943 43.147-21.574 85.097-39.552 129.443-64.722 35.956-22.772 56.332-58.729 56.332-105.472-3.596-46.743-26.369-86.296-70.715-106.67-26.368-11.986-57.53-26.369-85.097-38.354-27.566-13.184-55.133-25.17-83.898-40.751 3.596-1.199 7.191-4.794 10.787-8.39 51.537-22.772 104.274-46.743 157.01-71.913 52.736-27.566 79.104-74.31 68.317-133.039-8.39-41.949-32.36-71.912-68.317-91.09-37.155-15.58-70.715-31.161-105.473-47.941-44.346-22.772-91.09 3.596-95.883 50.339-3.596 50.339-3.596 97.082-3.596 141.429zm324.806 80.302c8.39 49.14 11.986 97.083 3.596 143.826-5.993 20.375 0 35.956 9.588 53.935 7.192 14.382 19.177 15.58 29.964 7.191 51.538-28.765 105.472-57.53 157.01-88.693 14.383-8.39 19.177-20.375 19.177-35.956 0-16.78-4.794-28.765-19.177-37.155-51.538-31.162-105.472-59.927-157.01-92.288-7.191-3.596-19.177-3.596-22.772 2.397-11.986 10.787-25.17 27.567-20.376 46.743zm43.148 159.407V420.295c45.545 25.17 91.09 51.538 142.627 79.104-51.537 28.766-93.486 53.935-142.627 80.303z" style="fill:#000;fill-opacity:1;fill-rule:nonzero;stroke:none;"/>
</svg>
