<svg xmlns="http://www.w3.org/2000/svg" viewBox="0 0 1000 1000"><path d="M500,0C223.858,0,0,223.858,0,500s223.858,500,500,500,500-223.858,500-500S776.142,0,500,0Zm4.229,182.731L599.77,344.009c17.914,23.342,0,33.113,0,33.113L436.917,420.007ZM612.8,401.008,569.914,564.947l-157.425,45.6s-26.057,5.429-25.514-17.914l45.6-162.311L590,390.151S609,383.772,612.8,401.008ZM478.716,182.784c5.308-2.051,7.6,3.257,7.6,3.257l-66.228,235.6-239.711,62.97ZM418.46,435.75,376.661,583.4s-5.972,32.028-30.942,21.714S180.377,500,180.377,500ZM186.122,521.457,322.919,610s48.856,29.857,88.484,100.97L477.63,814.656ZM396.746,661.031s-11.943-28.771,19-37.457l148.739-41.256L501.71,821.333ZM814.737,521.457,511.829,821.333l63.513-242.815,233.424-63.513S817.994,514.337,814.737,521.457Zm-236.68,41.319,41.256-154.711c9.771-22.8,36.913-6.515,36.913-6.515l159.207,93.913Zm89.026-166.861c-54.284-29.52-82.512-94.546-82.512-94.546l-68.4-122.7L819.623,482.435Z"/></svg>