<svg xmlns="http://www.w3.org/2000/svg" viewBox="0 0 1000 1000"><path d="M772.234,495.352c0,16.675,5.446,23.769,18.262,23.769a27.55,27.55,0,0,0,16.237-5.1V474.247a40.43,40.43,0,0,0-14.491-2.523C778.2,471.724,772.234,478.78,772.234,495.352Z"/><path d="M458.34,457.535c-5.866,0-11.572,1.22-15.795,3.6v42.508a23.358,23.358,0,0,0,16.366,6.513c12.722,0,18.141-8.158,18.141-27.337C477.052,465.3,471.483,457.535,458.34,457.535Z"/><path d="M500,0C223.858,0,0,223.858,0,500s223.858,500,500,500,500-223.858,500-500S776.142,0,500,0ZM199.984,546.924c-16.208,0-33-3.49-46.074-9.58a48.12,48.12,0,0,1-.277-5.077V532.1c.023-9.844,3.136-19.053,8.854-25.869a87.239,87.239,0,0,0,30.984,6.267c10.1,0,16.077-2.2,16.077-6.567,0-11.934-49.482-9.475-49.482-47.874,0-22.82,18.693-37.358,44.951-37.358,17.357,0,32.648,6.272,41.654,17.193a30.912,30.912,0,0,1-19.157,22.5c-4.15-4.485-10.531-7.065-17.5-7.065-6.663,0-10.315,2.017-10.315,5.545,0,12.78,50.594,7.375,50.594,48.615C250.3,532.162,230.52,546.924,199.984,546.924ZM383.1,565.139a77.2,77.2,0,0,1-39.971,0v-72.2c0-9.618-4.054-13.577-13.183-13.577a32.673,32.673,0,0,0-18.064,6.006v79.769a77.2,77.2,0,0,1-39.971,0V402.483a79.083,79.083,0,0,1,39.971,0v47.856a62.758,62.758,0,0,1,30.051-7.664c24.866,0,41.167,14.892,41.167,42.6Zm85.862-18.215c-10.062,0-19.57-2.637-26.083-7.713v46.683a78.367,78.367,0,0,1-39.971,0V437.408c16.012-10.509,37.067-16.532,57.8-16.532,37.515,0,56.692,20.941,56.692,61.763C517.405,523.5,499.759,546.924,468.963,546.924Zm110.212,19.058a75.083,75.083,0,0,1-39.973,0V445.318a80.356,80.356,0,0,0,39.973,0Zm-.627-135.472a72.845,72.845,0,0,1-38.709,0,58.128,58.128,0,0,1,0-33.6,66.829,66.829,0,0,1,38.709,0A57.977,57.977,0,0,1,578.548,430.51ZM712.134,552.118a79.053,79.053,0,0,1-39.971,0V479.209c0-9.337-4.2-13.581-13.089-13.581a41.26,41.26,0,0,0-18.158,4.2v82.294a79.053,79.053,0,0,1-39.971,0V445.475c20.055-10.511,43.213-16.536,65.025-16.536,29.573,0,46.164,15.193,46.164,42.6Zm134.233-6.609c0,40.414-19.233,60.447-58.021,60.447-19.533,0-37.14-5.093-48.34-13.991-1.523-11.447,1.856-22.614,9.023-29.566a65.5,65.5,0,0,0,31.472,8.377c16.653,0,25.892-4.84,25.892-17.875v-4.474c-7.481,4.539-17,6.577-26.08,6.577-31.228,0-48.444-20.458-48.444-57.879,0-38.144,22.072-60.006,60.608-60.006,19.7,0,39.334,5.958,53.89,16.352Z"/></svg>