<svg width="1000" height="1000" viewBox="0 0 1000 1000" fill="none" xmlns="http://www.w3.org/2000/svg">
<path d="M289 2L87 204H251C273 124 359 17 385 2H289Z" fill="black"/>
<path d="M483 204V2H437C351.4 63.6 302.667 162.333 289 204H483Z" fill="black"/>
<path d="M522 204H718C672.4 95.2 598.333 24 567 2H522V204Z" fill="black"/>
<path d="M756 204H915L711 2H621C685.8 61.2 731 144 756 204Z" fill="black"/>
<path d="M713 1000L915 798L751 798C729 878 643 985 617 1000L713 1000Z" fill="black"/>
<path d="M519 798L519 1000L565 1000C650.6 938.4 699.333 839.667 713 798L519 798Z" fill="black"/>
<path d="M480 798L284 798C329.6 906.8 403.667 978 435 1000L480 1000L480 798Z" fill="black"/>
<path d="M246 798L87 798L291 1000L381 1000C316.2 940.8 271 858 246 798Z" fill="black"/>
<path d="M384.019 734C358.885 734 336.135 728.8 315.769 718.4C295.835 707.566 278.719 692.183 264.419 672.25C250.119 651.883 239.069 627.4 231.269 598.8C223.902 569.766 220.219 537.05 220.219 500.65C220.219 465.116 224.119 432.616 231.919 403.15C239.719 373.683 250.769 348.55 265.069 327.75C279.802 306.95 297.352 290.916 317.719 279.65C338.519 267.95 361.485 262.1 386.619 262.1C411.752 262.1 434.502 267.95 454.869 279.65C475.235 290.916 492.569 306.95 506.869 327.75C521.169 348.55 532.219 373.466 540.019 402.5C547.819 431.1 551.719 462.733 551.719 497.4C551.719 515.6 549.985 533.583 546.519 551.35C543.485 569.116 538.935 585.583 532.869 600.75C527.235 615.916 520.519 629.133 512.719 640.4C505.352 651.666 497.552 660.116 489.319 665.75V668.35L571.219 667.05V734H384.019ZM471.769 500.65C471.769 477.683 469.819 456.233 465.919 436.3C462.452 416.366 457.035 399.25 449.669 384.95C442.302 370.216 433.202 358.733 422.369 350.5C411.969 341.833 400.052 337.5 386.619 337.5C372.752 337.5 360.402 341.833 349.569 350.5C339.169 358.733 330.285 370.216 322.919 384.95C315.552 399.25 309.919 416.366 306.019 436.3C302.552 456.233 300.819 477.683 300.819 500.65C300.819 523.616 302.769 545.066 306.669 565C310.569 584.933 316.202 602.266 323.569 617C330.935 631.3 339.819 642.783 350.219 651.45C361.052 659.683 373.402 663.8 387.269 663.8C401.135 663.8 413.269 659.466 423.669 650.8C434.502 641.7 443.385 629.783 450.319 615.05C457.685 599.883 463.102 582.55 466.569 563.05C470.035 543.116 471.769 522.316 471.769 500.65Z" fill="black"/>
<path d="M680.845 734V273.8H758.845V734H680.845Z" fill="black"/>
</svg>
