<?xml version="1.0" encoding="utf-8"?>
<!-- Generator: Adobe Illustrator 26.0.1, SVG Export Plug-In . SVG Version: 6.00 Build 0)  -->
<svg version="1.1" xmlns="http://www.w3.org/2000/svg" xmlns:xlink="http://www.w3.org/1999/xlink" x="0px" y="0px"
	 viewBox="0 0 1000 1000" style="enable-background:new 0 0 1000 1000;" xml:space="preserve">
<g id="Layer_1">
	<g id="Bit_dark" transform="translate(-4767.292 -5497)">
		<path id="Union_12" d="M4894.5,6493.3v-864.1c0-70.9,57.5-128.4,128.4-128.4s128.4,57.5,128.4,128.4V5876h192.6
			c163.6,0,296.3,132.6,296.3,296.3v24.7c0,163.6-132.6,296.3-296.3,296.3H4894.5z"/>
	</g>
</g>
<g id="Layer_3">
</g>
<g id="Layer_2">
	<g>
		<path d="M497.5,487.7h14.8c73.2,0,138.7-32.5,183.1-83.8c-36.4-16-76.6-24.9-118.9-24.9H384V132.1C384,61.2,326.5,3.7,255.6,3.7
			v242C255.6,379.3,363.9,487.7,497.5,487.7z"/>
		<path d="M381.7,6c16.4,16.4,29.2,35.4,38.2,56.7c9.3,22,14,45.4,14,69.5V329h142.6c46.7,0,92.1,9.2,134.8,27.2
			c4.4,1.9,8.8,3.9,13.1,5.9c19-34.5,29.8-74.2,29.8-116.5c0-133.6-108.3-242-242-242H379.4C380.2,4.5,380.9,5.2,381.7,6z"/>
	</g>
</g>
</svg>
