<svg xmlns="http://www.w3.org/2000/svg" viewBox="0 0 1000 1000"><path d="M406.73,408.77q4.219,9.86,4.22,24.86,0,25.781-13.6,38.92-13.12,12.66-33.76,12.66H331.7V383h31.89a62.6,62.6,0,0,1,16.88,2.35,38.573,38.573,0,0,1,15,8,39.069,39.069,0,0,1,11.26,15.42Zm268.12,66.6q12.66-14.051,12.66-40.79t-12.66-38.93l-.03-.01q-12.66-12.191-32.36-12.19H610.57V489h31.89Q662.16,489,674.85,475.37ZM995,500c0,273.38-221.62,495-495,495S5,773.38,5,500,226.62,5,500,5,995,226.62,995,500ZM201,285.73H319.33C335.2,228,397.24,150.82,416,140H346.73ZM414.23,515.22a57.469,57.469,0,0,0,17.82-8.44,72.058,72.058,0,0,0,16.88-16.88,87.661,87.661,0,0,0,12.19-24.85q5.16-15,5.16-34.24,0-24.851-7-42.67a79.079,79.079,0,0,0-19.7-29.54A70.924,70.924,0,0,0,410,341.72a122.285,122.285,0,0,0-38-5.63H277.3v332h54.4V526.48h31.42L414.7,668.1h59.09ZM413.1,860c-46.74-42.71-79.36-102.45-97.39-145.73H201L348.17,860Zm71.43-145.73H343.12C376,792.76,429.46,844.13,452.06,860h32.47ZM486.69,140H453.47c-61.78,44.44-96.92,115.67-106.78,145.73h140Zm28.14,145.73h141.4C623.33,207.24,569.9,155.87,547.29,140H514.83ZM647.26,336.1H555.24v332h55.33V534.92H650a96.154,96.154,0,0,0,33.77-6.1,80.155,80.155,0,0,0,29.07-18.75Q725.46,497.4,733,478.65q8-19.23,8-44.55,0-28.14-8.91-46.9-8.441-18.75-22-30a74.437,74.437,0,0,0-30-16.41A122.307,122.307,0,0,0,647.26,336.1Zm5.36,378.17H512.66V860h33.19C607.6,815.56,642.76,744.33,652.62,714.27Zm145.73,0H680C664.17,772,602.12,849.18,583.36,860h69.26Zm0-428.54L651.18,140H586.25c46.75,42.73,79.4,102.45,97.4,145.73Z" /></svg>