<svg xmlns="http://www.w3.org/2000/svg" viewBox="0 0 1000 1000"><path d="M500.3,5C226.9,5,5.3,226.6,5.3,500s221.6,495,495,495,495-221.6,495-495S773.7,5,500.3,5ZM683.726,263.411l3.219,1.073c7.509,77.952,9.3,168.419,9.3,251.734,0,21.813-.714,43.268-2.5,59-1.072,19.667-10.727,34.685-31.468,57.57l-4.648-2.5c3.576-22.527,3.934-47.914,3.934-71.515V523.727c0-65.436-7.151-160.552-12.873-222.413A326.144,326.144,0,0,1,683.726,263.411ZM410.208,595.243C378.384,614.2,344.413,628.5,310.8,628.5c-40.764,0-68.655-22.527-68.655-75.448a159.522,159.522,0,0,1,1.788-26.1H257.88c1.072,30.752,13.946,55.067,58.642,55.067,27.891,0,51.491-8.581,77.6-23.243,4.648-2.5,7.152-5.721,7.152-8.581,0-19.311-12.516-44.7-33.613-67.941-20.382-21.811-47.558-41.12-72.945-53.993-8.583-4.292-11.443-8.939-11.443-13.231,0-8.939,10.011-27.533,18.236-40.763l2.861-.358c28.964,17.879,61.5,44.339,85.461,74.018,21.812,27.176,35.4,54.71,35.4,84.746C425.226,554.837,419.505,575.934,410.208,595.243Zm125.631,37.018c-25.632,0-43.208-19.773-43.208-46.135,0-27.1,18.308-46.136,43.94-46.136s43.207,19.041,43.207,46.136C579.778,612.488,562.934,632.261,535.839,632.261Zm194.015,79.2a173.376,173.376,0,0,1-13.946,24.315c-35.756,5.721-66.866,15.018-92.97,26.818l-.715-1.072L630.8,746.5c3.218-3.935,10.37-9.656,16.448-11.8v-1.074c-16.806-5-27.89-15.732-27.89-31.108,0-9.655,6.794-22.171,16.806-31.468,11.8-11.442,28.607-20.381,43.267-20.381,14.3,0,22.527,8.223,22.527,17.52s-5.721,16.449-11.442,23.243h-.716c-3.933-7.867-7.509-12.873-11.442-13.945a46.315,46.315,0,0,0-11.085-1.073c-12.516,0-25.03,7.151-25.03,12.516,0,17.162,30.037,22.885,51.133,22.885,12.158,0,24.316-.716,36.473-1.43Z"/></svg>