<svg xmlns="http://www.w3.org/2000/svg" width="1000" height="1000">
  <path d="M5 500.002v-.396.396c.099 89.505 22.55 172.682 67.253 249.726C116.462 824.2 175.803 883.54 250.276 927.75c77.143 44.803 160.418 67.253 249.726 67.253 89.308 0 172.583-22.45 249.726-67.253C824.2 883.541 883.54 824.2 927.75 749.728c44.803-77.143 67.253-160.418 67.253-249.726 0-89.308-22.45-172.583-67.253-249.726-44.209-74.473-103.55-133.814-178.022-178.023C672.585 27.45 589.31 5 500.002 5c-89.308 0-172.583 22.45-249.726 67.253-74.473 44.209-133.814 103.55-178.023 178.023C27.55 327.32 5.099 410.496 5 500.002zm225.495 66.758v-69.23h117.693l-.99-1.979-16.812-41.539-1.978-2.967h-97.913v-67.253h68.242v-2.967c-19.78-47.472-39.56-93.956-61.319-141.429-.989-3.956-4.945-9.89-6.923-15.824h91.979c38.571 90.99 76.154 180.99 114.725 271.98 0 0 0 1.977.99 1.977h131.538c1.978 0 2.967 0 2.967-1.978l8.901-20.77c35.605-83.076 71.21-167.143 106.814-251.209h90.99v.99l-65.276 150.33c-.989 2.966-1.978 5.933-1.978 8.9h67.253v67.253h-95.934c-1.978 0-1.978 0-2.967 2.967l-17.802 40.55s0 .99-.99 2.967h117.693v69.231H635.002c-1.978 0-1.978 0-2.967.99l-50.44 118.68c-24.725 58.353-49.45 115.716-76.154 174.067 0 0 0 1.978-.989 2.967v-2.967c-42.527-96.923-84.066-195.824-125.605-292.748-1.978-.989-1.978-.989-2.967-.989zm236.375 0c11.868 29.67 24.725 59.341 37.582 91.978 14.835-32.637 25.715-62.307 39.56-91.978z" style="fill:#000;fill-opacity:1;fill-rule:nonzero;stroke:none;"/>
</svg>
