<?xml version="1.0" encoding="UTF-8"?><svg id="a" xmlns="http://www.w3.org/2000/svg" viewBox="0 0 1000 1000"><path d="M561.303,389.84c6.025,0,12.051,0,18.076,0,25.792,16.819-.115,30.086-3.491,45.08,9.262,4.276,26.653,.748,21.934,18.308-2.731,10.161-11.114,18.808-15.898,26.451,13.159,6.524,25.191,12.49,37.223,18.456v14.439c-14.365,8.42-28.02,18.584-43.289,24.784-16.215,6.583-20.924,14.403-14.774,31.351,7.443,20.511-5.221,36.787-25.077,32.95-8.685-1.678-16.394-8.395-24.886-13.009-10.38,9.536-23.676,22.989-37.872,10.568-9.685-8.474-12.003-25.344-16.706-36.336-10.251-.448-22.982,1.99-31.915-2.734-4.087-2.161-.695-18.421-.695-29.565-8.07-2.135-19.194-3.468-28.64-8.165-5.947-2.958-13.904-12.041-12.849-16.432,1.475-6.136,9.771-12.181,16.521-15.099,7.539-3.258,16.614-2.974,29.248-4.863-9.382-10.45-16.523-16.851-21.59-24.604-3.254-4.98-6.329-13.278-4.286-17.687,2.494-5.382,10.662-11.781,15.974-11.443,10.133,.645,20.403,4.867,29.795,9.328,5.937,2.82,10.386,8.761,17.357,14.948,1.531-14.104,1.593-25.551,4.455-36.25,1.346-5.03,7.936-11.9,12.405-12.096,6.637-.29,14.247,3.566,19.993,7.678,3.51,2.512,4.302,8.809,6.448,13.708,18.195-13.771,35.367-26.768,52.539-39.764Zm-43.117,589.094c40.755-10.936,82.331-19.495,122.087-33.326,71.778-24.972,142.876-52.496,198.707-107.489,74.038-72.926,119.047-160.688,132.534-264.289,2.487-19.099,4.891-38.21,7.333-57.315v-55.05c-4.273-28.18-8.161-56.426-12.887-84.53-21.441-127.502-101.286-214.756-198.935-289.472-44.653-34.167-96.36-52.746-150.127-66.397-34.123,0-68.246,0-102.369,0-1.425,.956-2.741,2.49-4.291,2.786-47.745,9.114-95.681,17.298-143.239,27.296-84.05,17.67-161.12,47.292-221.7,113.869-46.761,51.39-86.881,104.915-106.496,172.543-23.91,82.437-20.713,165.204-7.041,248.751,31.087,189.968,147.138,306.317,319.925,373.289,23.942,9.28,50.012,13.027,75.097,19.335h91.401ZM178.706,172.752c40.28-36.004,84.05-67.309,138.041-78.917,71.852-15.447,143.616-32.194,216.209-43.048,85.495-12.784,160.943,17.516,227.955,68.993,160.397,123.21,223.04,327.488,163.889,521.333-46.234,151.516-153.236,236.623-297.527,282.878-71.01,22.764-143.752,29.996-218.069,22.076-44.22-4.712-82.731-23.51-120.02-45.889-83.121-49.884-154.455-111.577-193.152-203.458-29.687-70.488-43.629-144.677-44.158-209.464,.044-130.6,36.783-234.015,126.831-314.503Z"/></svg>