<svg xmlns="http://www.w3.org/2000/svg" width="1000" height="1000">
  <path d="M10.513 429.722c3.026-98.366 16.646-193.704 63.559-273.91C104.338 101.332 142.17 54.42 199.677 27.18 243.563 5.994 284.423 2.967 328.309 5.994 479.64 24.154 618.865 81.659 753.55 151.272c68.1 37.833 131.659 84.746 183.111 149.818 27.24 36.32 43.887 84.746 49.94 128.632 7.566 57.506 0 110.472-19.673 164.951-16.647 40.86-51.453 65.073-90.8 77.18-75.665 21.186-149.817 37.832-223.97 62.045-60.532 16.647-121.065 33.293-181.598 52.966-10.593 4.54-18.16 10.594-21.186 24.213-10.593 43.886-27.24 87.773-57.506 125.605-57.506 66.586-131.658 80.206-202.784 19.674-49.94-40.86-81.72-98.366-101.392-158.899-33.293-87.772-57.506-183.11-71.126-276.936-3.027-30.266-3.027-65.073-6.053-90.8z" style="fill:#000;fill-opacity:1;fill-rule:nonzero;stroke:none;"/>
</svg>
