<svg xmlns="http://www.w3.org/2000/svg" viewBox="0 0 1000 1000"><path d="M994.989 499.637v25.023c-1.137 18.198-3.412 36.396-4.55 55.732-3.412 29.572-13.648 56.87-22.747 85.304-10.237 31.847-25.023 61.42-44.359 90.991-12.51 23.885-27.297 43.221-43.22 63.694-14.786 12.511-26.16 26.16-35.26 37.534-25.022 23.885-51.182 43.22-76.204 60.281-29.572 15.924-59.144 30.71-90.991 44.358-20.473 7.962-40.946 13.65-63.694 20.474-14.786 2.274-26.16 4.549-43.22 6.824-36.397 5.687-71.656 5.687-104.64 4.55-17.061 0-32.985-1.138-47.77-6.825-27.298-4.55-52.32-11.374-78.48-18.198-32.985-11.374-65.97-25.023-94.404-45.496-23.885-13.648-45.495-29.572-63.694-46.633-15.923-10.236-30.71-25.022-44.358-38.67-15.923-15.924-28.434-35.26-43.22-54.595-15.924-22.748-30.71-46.633-40.946-71.656-12.512-28.435-23.886-55.732-30.71-84.167-5.687-20.473-9.1-39.808-14.786-59.144-3.412-36.396-3.412-71.655-1.137-105.777 1.137-31.847 6.824-61.419 15.923-89.854 10.237-38.67 25.023-73.93 43.22-109.189 15.924-29.572 32.985-54.594 53.458-80.754 10.237-11.374 18.198-20.473 27.297-31.847 11.374-11.374 23.886-19.336 35.26-29.572 10.236-7.962 19.335-18.199 32.984-26.16 25.022-18.199 51.182-32.985 79.617-46.633 15.923-5.687 34.121-13.649 47.77-18.198 23.885-9.1 46.633-12.512 70.518-20.473 12.511-2.275 25.023-2.275 39.809-4.55 23.885-2.275 46.633 0 70.518 0 19.335 0 39.808 2.275 58.007 4.55 29.572 5.687 55.732 11.373 81.892 20.473 28.434 11.373 55.732 22.747 80.754 37.533 22.748 11.374 44.358 27.298 65.969 45.496 12.51 7.962 20.473 14.786 30.71 26.16 7.96 6.824 15.923 12.511 21.61 22.748 19.335 19.335 34.121 36.396 48.907 60.281 15.924 21.61 30.71 44.358 40.946 69.38 14.786 32.985 25.023 67.107 35.26 103.503 3.411 14.786 4.549 35.26 6.824 54.595 0 17.06 1.137 30.71 1.137 48.907zm-940.62 0c0 128.525 46.633 238.852 143.31 327.568 85.305 77.343 186.532 119.426 303.683 119.426 126.25 0 237.715-47.77 325.293-141.036 79.618-85.304 120.564-187.67 120.564-305.958 0-126.25-48.908-236.576-142.174-325.293C719.741 93.59 617.376 53.781 501.362 53.781c-122.837 0-229.752 44.358-315.056 129.663C98.727 269.885 54.369 375.662 54.369 499.637zm39.808 6.825c0-12.511-2.274-28.435 0-43.22 4.55-12.512 4.55-25.023 4.55-35.26 2.275-17.06 7.962-30.71 12.511-43.22 0-3.413 1.138-9.1 4.55-11.375h7.962c3.412 1.138 5.687 7.962 5.687 11.374-2.275 6.825-4.55 14.786-5.687 21.61-4.55 21.611-7.962 39.81-7.962 61.42-3.412 12.51-3.412 26.16-3.412 37.533 0 4.55-1.138 7.962-5.687 9.1-7.962 4.55-12.512 0-12.512-7.962zm21.61 125.113c-3.411-9.1 2.276-13.65 5.688-13.65 7.962 0 10.236 4.55 13.648 9.1 2.275 10.236 7.962 20.473 11.374 35.259 11.374 21.61 23.886 44.358 39.809 64.831 1.137 3.412 3.412 6.824 5.687 7.962 1.137 3.412 0 9.099-2.275 10.236-2.275 3.413-7.962 5.687-11.374 3.413-4.55-3.413-6.824-7.962-7.961-10.237-19.336-26.16-35.26-59.144-48.908-90.991-2.275-5.687-5.687-12.511-5.687-15.923zm31.848-137.624c0-94.404 38.67-177.433 105.777-245.676 67.106-65.969 151.272-101.228 250.225-101.228 95.54 0 178.57 36.397 245.676 101.228 70.518 72.793 106.915 158.097 104.64 257.05-2.275 95.54-36.397 178.57-104.64 245.675C681.07 818.106 598.04 852.228 489.99 852.228c-85.305 0-170.609-34.122-239.99-101.228-68.243-71.655-103.502-155.822-102.364-257.05zm18.198-226.34s2.275-3.413 4.55-4.55c17.06-23.885 36.396-45.496 58.006-64.831 7.962-9.1 18.199-15.924 29.572-26.16 3.413-1.138 7.962-1.138 12.512 2.274 1.137 3.413 1.137 9.1-2.275 13.65-6.824 5.686-14.786 11.373-21.61 19.335-12.512 11.374-27.298 25.022-36.397 37.534l-27.297 31.846c0 2.275-1.138 2.275-4.55 4.55-7.961 1.137-13.648-2.275-12.511-13.649zm97.815 563.006c-2.274-3.412-2.274-7.961 0-10.236 2.275-2.275 4.55-4.55 6.825-4.55 3.412 0 5.687 0 7.961 2.275 31.847 22.748 64.832 37.534 101.228 51.183 2.275 0 4.55 2.274 6.824 2.274 4.55 2.275 7.962 7.962 5.687 10.237 0 5.687-5.687 10.236-12.511 9.099-7.962-3.412-13.649-7.962-22.748-9.1-31.847-12.51-62.556-27.296-88.716-46.632zm96.678-208.142h64.831c3.413 0 7.962 0 12.512 4.55v38.671c0 4.55 0 4.55 5.687 4.55h30.71c15.923 0 15.923 3.412 15.923-13.649v-32.984h30.71v42.083c0 4.55 0 4.55 6.823 4.55h43.221v-52.32c4.55 0 7.962-1.138 13.649-2.275 18.198-5.687 32.984-14.786 50.045-28.435 4.55-7.961 10.236-15.923 11.374-26.16 2.275-9.099 2.275-18.198 2.275-28.434-2.275-15.924-6.825-32.985-20.473-46.633-3.413-4.55-6.825-7.962-11.374-9.1-6.825-5.686-17.061-13.648-28.435-10.236 4.55-6.824 10.236-9.099 12.511-9.099 12.512-4.55 17.061-14.786 23.885-22.748 6.825-12.51 12.512-26.16 12.512-39.808 0-20.473-9.1-35.26-23.885-46.633-10.237-11.374-22.748-17.061-35.26-19.336-2.274 0-3.412-1.137-3.412-4.55-3.412-3.411-3.412-5.686-3.412-7.961v-39.809h-50.045c-2.275 15.924 0 32.985-2.275 48.908h-29.572v-46.633c-11.374-2.275-45.495-2.275-51.182 0v46.633c-12.512 0-25.023 2.275-35.26 0-11.373-1.137-23.884-1.137-35.258-1.137-6.825 0-6.825 1.137-6.825 4.55v31.846c5.687 6.824 11.374 4.55 17.061 4.55a20.388 20.388 0 0 1 20.473 20.473v175.157c0 10.237-9.099 19.336-20.473 19.336h-17.06zm0-497.038c0-3.412 3.412-9.1 7.962-11.374l29.572-10.237c20.473-3.412 42.084-7.961 64.831-10.236 11.374 0 21.61-1.137 32.985-1.137 5.686 0 10.236 3.412 10.236 10.236 0 3.412-4.55 9.1-10.236 9.1-13.65 2.274-23.886 2.274-36.397 2.274-21.61 2.275-45.495 4.55-67.106 13.649-5.687 0-10.236 1.137-13.648 4.55H367.15c-3.412-3.413-3.412-4.55-6.825-6.825zm6.825 623.288h11.374c1.137-13.648 1.137-45.495 0-54.594H367.15zm25.022 0h12.511v-22.747c0-5.687 2.275-9.1 5.687-9.1 3.413 0 5.687 3.413 5.687 9.1v22.748h12.512V720.29c-1.138-7.962-6.825-14.786-18.199-10.237-3.412 0-5.687 2.275-10.236 0h-7.962zm47.77-14.786c0 11.374 6.825 14.787 17.061 14.787h3.412c5.687-10.237-1.137-10.237-6.824-11.374V720.29c3.412-3.412 5.687-3.412 6.824-3.412v-6.825c-7.961 2.275-6.824-4.55-7.961-11.374-5.687 0-12.511 3.413-12.511 7.962-2.275 5.687-4.55 9.1 0 13.649zm29.573 3.413c2.274 7.961 10.236 11.374 17.06 11.374h10.237c2.275 0 4.55-3.413 4.55-3.413 2.274-1.137 0-4.55 0-6.824-12.512 2.275-12.512 2.275-21.61-4.55h23.884c2.275-5.686 2.275-6.824 2.275-7.961-2.275-9.1-4.55-13.649-12.511-15.924-9.1-3.412-15.924-3.412-19.336 5.687-5.687 6.825-5.687 14.786-4.55 21.61zm2.274-166.059v-79.617c2.275-2.275 4.55-2.275 5.687-2.275h36.397c10.236 2.275 20.473 2.275 31.847 4.55 17.06 5.686 21.61 12.51 23.885 28.434 1.137 13.649 0 26.16-6.825 37.534-9.099 9.1-19.335 9.1-29.572 11.374H520.7c-7.963 0-14.787 2.275-23.886 2.275-7.962 0-17.06-2.275-25.023-2.275zm0-126.25c-2.274-10.237-2.274-50.045 0-70.518 23.886 0 44.359 0 67.106 1.137 6.825 2.275 12.512 5.687 17.061 10.237 7.962 9.099 9.1 15.923 7.962 25.022-4.55 19.336-12.511 28.435-30.71 31.847-5.687 2.275-12.51 2.275-19.335 2.275zm25.023 453.818c0-4.55 2.275-11.374 9.099-11.374h3.412c19.336 0 36.397-2.275 55.732-5.687 19.336-2.275 37.534-6.824 58.007-12.511 2.275-2.275 7.962-2.275 13.649-2.275v2.275c4.55 7.961 4.55 13.648-5.687 15.923-14.786 5.687-30.71 9.1-46.633 13.649-17.061 3.412-32.984 5.687-53.457 7.961h-27.298c-4.55 0-6.824-4.55-6.824-7.961zm17.06-150.135h13.65v-20.473c0-2.275 0-5.687 5.686-7.962 6.825-3.412 6.825-4.55 1.138-13.649-3.412 3.412-5.687 5.687-10.237 7.962-1.137-7.962-5.687-4.55-10.236-4.55zm29.573-14.787c0 4.55 4.55 11.374 12.511 14.787 7.962 2.274 13.649 2.274 21.61 0 0-4.55 0-7.962-2.274-10.237-5.687 0-12.512 2.275-21.61-4.55h25.022v-7.961c-1.138-13.649-9.1-20.473-19.336-15.924-11.374 2.275-17.06 10.237-15.923 23.885zm45.495 14.787h15.924c5.687 0 9.099-3.413 11.374-7.962 1.137-6.825 0-12.511-6.825-14.786-4.55 0-6.824-3.412-10.236-3.412 3.412-7.962 11.374-2.275 14.786-6.825v-3.412c-9.1-5.687-11.374-5.687-15.924-2.275-7.961 2.275-9.099 4.55-9.099 10.237 0 6.824 1.138 10.236 9.1 13.648 1.137 0 2.274 1.138 6.824 1.138-5.687 3.412-5.687 3.412-15.924 3.412zm20.473-632.388c1.138-2.275 4.55-9.1 7.962-9.1 7.962 4.55 17.06 6.825 19.336 9.1 35.259 11.374 67.106 28.434 96.678 47.77 1.137 1.137 1.137 1.137 2.274 4.55 5.687 3.412 5.687 3.412 3.413 9.099-3.413 5.687-4.55 5.687-10.237 5.687 0 0-5.687 0-7.962-1.138-14.786-13.648-32.984-23.885-54.594-32.984-14.786-6.824-29.572-12.511-45.496-20.473-3.412 0-4.55 0-6.824-1.137-3.412-2.275-9.1-9.1-4.55-11.374zm13.649 600.54c2.275 3.413 2.275 5.688 2.275 9.1v9.099c0 9.099 5.687 13.649 15.923 13.649h4.55c3.412-10.237-1.138-11.374-6.825-11.374V720.29c2.275-3.412 5.687-3.412 9.1-3.412v-4.55c-9.1-5.687-9.1-5.687-11.374-13.649h-2.275c-3.412 0-6.824 3.413-9.1 3.413-1.137 3.412-1.137 7.961-2.274 13.648zm108.052 95.541 4.55-4.55c20.472-13.648 34.121-30.709 52.32-45.495 11.373-11.374 19.335-25.022 29.571-36.396 0-3.412 2.275-5.687 6.825-5.687 5.687-4.55 12.511 0 12.511 10.236-2.275 0-2.275 4.55-4.55 7.962-17.06 22.748-36.396 43.22-56.869 61.419-9.1 9.1-19.336 18.198-29.572 23.885 0 3.412-2.275 3.412-2.275 4.55-4.55 0-9.099 0-10.236-1.138-4.55-4.55-4.55-9.099-2.275-14.786zm79.617-547.083c-3.412-2.275-1.137-7.962 0-11.374 4.55-5.687 11.374-3.413 15.923 1.137 3.413 7.962 10.237 12.511 13.65 19.336 17.06 27.297 32.983 54.594 43.22 86.441 1.137 2.275 1.137 6.824 3.412 10.237 0 4.55-2.275 10.236-5.687 10.236-5.687 2.275-10.236 0-11.374-6.824-4.55-3.412-5.687-11.374-7.961-17.061-7.962-22.748-21.61-45.496-32.985-65.969-4.55-9.099-11.374-17.06-18.198-26.16zm62.556 344.628c6.825-21.61 10.237-40.946 11.374-63.694 2.275-17.06 2.275-31.846 5.687-46.633v-7.961c0-5.687 5.687-10.237 10.237-10.237 4.55 2.275 7.961 4.55 7.961 12.512-2.274 12.51 0 28.434-2.274 44.358-1.138 25.022-5.687 48.907-12.512 71.655v6.824c-6.824 10.237-6.824 10.237-18.198 10.237-4.55-6.824-4.55-10.237-2.275-17.06z"/></svg>