<svg xmlns="http://www.w3.org/2000/svg" viewBox="0 0 1000 1000"><path d="M500.496 5C223.572 5 5 229.506 5 500.002c0 276.43 224.506 495.001 495.002 495.001 276.43 0 495.001-224.506 495.001-495.001C995.003 226.539 773.464 5 500.496 5zM257.2 860.497c3.956-15.824 3.956-22.747 5.934-31.648 8.9-29.67 17.802-60.33 29.67-88.022 4.945-16.814 3.956-27.693-9.89-40.55-158.242-178.023-72.198-463.848 161.21-522.2 38.57-11.868 61.318-10.879 102.857-10.879 118.682 0 238.352 107.803 279.89 235.386 21.76 86.044 6.924 115.714 6.924 136.484C802.146 722.035 625.112 838.739 446.1 796.21c-21.758-3.956-46.483-18.79-67.253-14.835-19.78 3.956-38.571 26.704-58.351 38.572-18.792 12.857-37.583 24.725-63.297 40.55zm19.78-374.836c0 134.506 109.78 243.297 242.308 243.297 131.54 0 240.33-108.791 242.309-239.341 0-134.506-106.814-244.287-240.33-244.287-132.528-1.978-242.309 107.803-244.287 240.33zm90.99 39.56v-73.187h116.703V336.32h70.22v115.714h116.704v68.242H556.87v118.682h-70.22V525.222z"/></svg>