<svg xmlns="http://www.w3.org/2000/svg" width="1000" height="1000">
  <path d="M500.496 5C223.572 5 5 229.506 5 500.002c0 276.43 224.506 495.001 495.002 495.001 276.43 0 495.001-224.506 495.001-495.001C995.003 226.539 773.464 5 500.496 5zM185.99 569.727c-36.594-35.604-36.594-97.912 0-138.462L440.166 175.11c17.803-15.824 43.517-26.703 70.22-26.703 27.693 0 52.418 10.88 70.22 26.703l254.177 256.155c36.594 40.55 36.594 102.858 0 138.462L712.145 693.354v128.572c0 10.879-5.934 19.78-18.791 19.78-10.88 0-17.802-8.901-17.802-19.78V693.354c0-4.945-1.978-7.912-8.901-13.846l-66.264-60.33-71.21-72.198c-24.725 13.846-55.384 0-65.274-26.704-14.836-25.714 0-57.362 26.703-67.253 26.703-7.912 56.374 4.946 66.264 27.693 2.967 6.923 2.967 13.846 2.967 19.78 0 5.934 0 16.813-2.967 23.736L693.354 656.76l111.759-114.725c28.681-26.704 29.67-52.418 0-84.066l-252.2-252.2c-28.68-29.67-62.307-20.768-85.054 0L214.67 457.97c-22.747 22.747-22.747 62.307 0 84.066L467.859 796.21c17.802 20.77 62.308 23.737 85.055 0l92.967-96.923 7.912 7.912-3.956 49.45-66.264 69.232c-39.56 40.55-102.857 40.55-143.407 0z" style="fill:#000;fill-opacity:1;fill-rule:nonzero;stroke:none;"/>
</svg>
