<svg xmlns="http://www.w3.org/2000/svg" width="1000" height="1000">
  <path d="M500.496 995.003c275.935 0 494.507-224.506 494.507-495.496C995.003 226.54 773.464 5 500.496 5 223.572 5 5 229.506 5 499.507c0 276.924 224.506 495.496 495.496 495.496zM82.143 502.474c0-7.912 4.945-14.835 12.857-14.835 7.912 0 14.836 6.923 14.836 14.835.989 7.912-5.935 14.835-13.847 14.835H95c-7.912 0-12.857-6.923-12.857-14.835zm5.934 71.21v-.99c0-7.912 5.934-12.857 13.846-15.824 7.913 2.967 13.847 7.912 13.847 16.813 0 7.912-5.934 12.857-13.847 12.857-6.923 0-13.846-4.945-13.846-12.857zm0-140.44c0-7.913 5.934-14.836 13.846-14.836v-.99c7.913 0 13.847 5.935 13.847 15.825 0 4.945-5.934 12.857-13.847 12.857-7.912 0-13.846-4.945-13.846-12.857zm17.802 207.692c0-7.912 5.935-14.835 13.847-14.835s14.835 6.923 14.835 14.835c0 7.912-6.923 14.835-14.835 14.835-7.912 0-13.847-6.923-13.847-14.835zm0-277.913c0-7.912 5.935-13.846 13.847-13.846s14.835 7.912 14.835 15.824c-.99 7.912-7.912 13.846-15.824 12.857-6.923-.989-12.858-7.912-12.858-14.835zm29.67 342.2c0-8.902 6.924-13.847 14.836-13.847s14.835 3.956 14.835 12.857v.99c0 6.922-6.923 13.845-14.835 13.845v.99c-7.912 0-14.835-6.924-14.835-14.836zm0-405.497c0-8.9 6.924-13.846 14.836-13.846s12.857 4.945 12.857 12.857c1.978.99 1.978.99 0 .99 1.978 7.911-4.945 14.834-12.857 14.834-7.912 0-14.835-6.923-14.835-14.835zm14.836 307.584.99-1.978h151.318c39.56 0 39.56 0 39.56-40.55v-98.901c0-11.869 1.979-17.803 14.836-16.814 27.692 1.978 56.374 0 85.055 0 9.89 0 13.847 3.956 13.847 13.847v167.143c0 10.88-3.957 15.824-14.836 14.835h-10.879c-11.868.99-16.813-2.967-16.813-15.824.989-41.539 0-81.1 0-121.649 0-9.89-2.967-14.835-13.846-14.835-11.868 0-15.825 3.956-15.825 14.835v121.649c0 12.857-3.956 15.824-17.802 15.824-40.55 0-81.099 1.978-122.638-.989-17.802-1.978-36.593-11.868-56.373-18.791-11.869-4.945-24.726-11.868-36.594-17.802zm24.725-365.936c1.978-6.923 7.913-13.846 15.825-13.846 7.912 0 13.846 6.923 13.846 13.846 0 8.902-6.923 14.836-14.835 14.836-7.912 0-12.858-5.934-14.836-14.836zm1.978 523.189c-1.978-.989-1.978-.989 0-1.978 0-7.912 5.935-14.835 13.847-14.835 7.912.989 14.835 6.923 14.835 15.824-.99 5.934-6.923 11.868-12.857 13.846-7.912 0-15.825-4.945-15.825-12.857zm49.451 48.462v-.99c0-7.911 6.923-14.835 14.835-14.835 7.913 1.978 13.847 6.924 13.847 14.836s-5.934 14.835-13.847 14.835h-1.978c-7.912 0-12.857-5.934-12.857-13.846zm0-619.123v-2.967c-.989-6.923 4.945-12.858 12.857-12.858 7.912 0 14.836 5.935 14.836 12.858 0 8.9-6.924 15.824-14.836 15.824-5.934 0-12.857-5.934-12.857-12.857zm44.506 469.782 1.978-3.957h194.836c29.67 0 25.714 1.978 25.714-26.703v-260.11c0-14.836 3.956-18.792 18.791-18.792 27.693.989 55.385.989 83.078 0 9.89 0 13.846 2.967 13.846 12.857v322.419c0 11.868-4.945 15.824-15.824 13.846-2.968 0-5.935-1.978-9.89-1.978-18.792 1.978-18.792 1.978-18.792-16.813V418.408c0-8.901 2.967-16.813-8.901-19.78-14.835-.99-18.791 0-18.791 15.824v270.99c0 18.791 0 18.791-17.803 18.791-47.472 0-94.945-.989-141.429 0-27.692.99-47.472-14.835-69.23-23.736-11.869-4.945-25.715-10.88-37.583-16.813zm13.846 189.89v-.989c0-8.9 4.945-13.846 12.857-13.846h.99c7.911 0 13.845 4.945 13.845 13.846 0 7.912-5.934 14.835-13.846 14.835s-13.846-4.945-13.846-13.846zm0-702.2c0-8.901 5.934-12.857 12.857-12.857 7.912-1.978 14.835 3.956 15.824 12.857 0 7.912-4.945 14.835-12.857 14.835h-2.967c-7.912 0-12.857-6.923-12.857-14.835zm63.297 731.87c0-8.9 5.934-14.835 13.846-14.835s14.835 5.935 14.835 14.836c0 7.912-6.923 12.857-12.857 14.835h-1.978c-7.912 0-13.846-6.923-13.846-14.835zm0-761.54c0-6.923 5.934-13.847 13.846-13.847s14.835 6.924 14.835 13.847c0 8.9-6.923 13.846-12.857 14.835h-1.978c-7.912 0-13.846-5.934-13.846-14.835zm48.462 597.364c3.956 0 7.912-2.967 11.868-2.967l203.737 2.967c31.648 0 31.648 0 31.648-30.66v-410.44c0-11.868 2.967-17.802 15.824-17.802 28.682.989 58.352.989 88.023 0 9.89 0 13.846 3.956 13.846 13.846v468.793c0 17.802 0 17.802-19.78 17.802-30.66 0-29.67 0-26.704-29.67 2.967-21.759-.989-319.452-.989-410.441 0-6.924.99-16.814-11.868-14.836-10.88 0-13.846 3.956-13.846 12.858 0 47.472-.99 396.594-.99 396.594v44.506c-4.944.989-8.9.989-12.856.989-61.32 0-122.638 1.978-182.968 0-14.835 0-30.66-9.89-45.495-16.813-16.813-7.912-33.626-14.836-49.45-24.726zm19.78 182.968c0-8.901 4.945-14.835 13.846-15.824 7.912 0 14.835 5.934 14.835 13.846s-6.923 13.846-14.835 13.846c-7.912 1.978-13.846-3.956-13.846-11.868zm0-799.124c0-6.923 5.934-13.846 13.846-13.846s13.846 6.923 14.835 13.846c0 8.902-6.923 15.825-14.835 15.825h-.989c-7.912-1.978-12.857-6.923-12.857-15.825zm69.23 804.069c0-7.912 6.924-14.835 14.836-13.846 7.912 0 14.835 6.923 14.835 14.835 0 7.912-6.923 13.846-14.835 13.846-7.912 0-14.835-7.912-14.835-14.835zm0-810.003c0-5.934 6.924-13.846 14.836-13.846s14.835 5.934 14.835 13.846-6.923 14.836-14.835 14.836c-7.912 0-14.835-6.924-14.835-14.836zm70.221 803.08c.989-7.912 7.912-12.857 15.824-12.857s14.835 5.934 12.857 14.835c0 7.912-5.934 11.868-13.846 11.868s-14.835-5.934-14.835-13.846zm0-797.146c.989-6.923 7.912-13.846 15.824-13.846 7.912 1.978 12.857 6.923 14.835 13.846-1.978 8.902-7.912 15.825-15.824 15.825-7.912-1.978-14.835-6.923-14.835-15.825zm68.242 780.333c0-8.901 6.923-14.836 14.835-14.836 7.912 0 13.846 5.935 13.846 14.836 0 7.912-5.934 14.835-13.846 14.835s-13.846-6.923-14.835-14.835zm0-761.541c.989-6.923 6.923-13.847 14.835-13.847 7.912 0 13.846 6.924 13.846 13.847 0 8.9-5.934 14.835-13.846 14.835s-13.846-5.934-14.835-14.835zm64.286 730.881c0-8.9 6.923-13.846 14.835-13.846 7.912 0 14.835 4.945 14.835 13.846 0 7.912-6.923 14.835-14.835 14.835-7.912 0-14.835-6.923-14.835-14.835zm0-701.21c0-8.902 6.923-12.858 14.835-12.858 7.912 0 14.835 5.934 14.835 12.857-1.978 8.901-6.923 15.824-14.835 14.835-7.912 0-14.835-6.923-14.835-14.835zm58.352 660.66c0-7.911 6.923-14.835 14.835-14.835 7.912 1.978 13.846 6.924 12.857 14.836.99 7.912-3.956 14.835-11.868 14.835h-.99c-7.911 0-14.834-6.923-14.834-14.835zm0-618.133v-2.967c0-6.923 6.923-12.858 14.835-12.858 7.912 0 13.846 5.935 13.846 12.858 0 8.9-4.945 15.824-12.857 15.824h-.99c-7.911 0-14.834-6.923-14.834-12.857zm48.461 47.472c0-6.923 6.924-13.846 14.836-13.846s13.846 6.923 13.846 13.846c0 8.902-5.934 14.836-13.846 14.836s-14.836-5.934-14.836-14.836zm.99 521.21c1.977-7.911 6.923-13.845 13.846-13.845 7.912-.99 15.824 5.934 15.824 13.846 0 6.923-5.934 12.857-13.846 12.857h-1.978c-7.912 0-13.847-5.934-13.847-12.857zm39.56-57.362c0-8.901 6.923-13.846 14.835-13.846 7.912 0 14.835 4.945 14.835 13.846 0 7.912-6.923 13.846-14.835 14.835-7.912 0-14.835-6.923-14.835-14.835zm0-405.496c0-8.9 6.923-12.857 13.846-13.846h.99c7.911 0 14.834 4.945 14.834 13.846 0 7.912-6.923 14.835-14.835 14.835-7.912 0-14.835-6.923-14.835-14.835zm30.66 341.21c-.99-7.912 4.945-14.835 12.857-15.824 7.912 0 14.835 4.945 15.824 11.868v3.956c0 7.912-5.934 14.835-13.846 14.835s-14.836-6.923-14.836-14.835zm0-275.935v-1.978c0-5.934 6.923-13.846 14.835-13.846 7.912 0 13.846 7.912 13.846 15.824s-5.934 12.857-13.846 12.857-14.836-4.945-14.836-12.857zm18.79 207.693c0-7.912 5.935-15.824 13.847-15.824 7.912 2.967 14.835 8.901 13.846 16.813 0 6.923-5.934 12.857-13.846 12.857s-13.846-5.934-13.846-13.846zm0-139.45c0-9.891 5.935-15.825 13.847-15.825 7.912.989 14.835 7.912 13.846 15.824.99 4.945-5.934 12.857-13.846 12.857s-13.846-7.912-13.846-12.857zm5.935 71.208v-1.978c-.99-7.912 3.956-14.835 11.868-14.835h1.978c7.912-.99 13.846 5.934 15.824 14.835 0 7.912-6.923 14.835-14.835 14.835-7.912 0-14.835-6.923-14.835-12.857z" style="fill:#000;fill-opacity:1;fill-rule:nonzero;stroke:none;"/>
</svg>
