<svg xmlns="http://www.w3.org/2000/svg" viewBox="0 0 1000 1000"><path d="M373.769 19.952C659.965-60.579 990.764 198.36 994.48 457.3c0 261.417-126.372 457.17-363.01 521.595-27.257 7.434-50.797 11.15-74.337 16.107h-117.7c-4.956-1.24-11.15-2.478-16.106-2.478C218.9 959.072 56.599 805.444 11.997 602.256c0-18.584-16.106-147.434 2.478-204.426C62.794 203.316 181.732 78.182 373.769 19.952zM52.882 537.831c23.54 267.612 255.223 408.852 420.003 408.852 0-8.673 3.716-13.629 3.716-18.584V636.947c0-14.868-4.955-19.824-18.584-26.018-55.752-21.062-85.487-76.815-75.575-135.045 11.15-54.514 61.947-94.16 117.7-92.921 55.752 0 104.07 40.885 116.46 96.638 8.673 56.991-22.3 113.983-78.053 131.328-11.15 6.194-14.868 11.15-14.868 23.54v312.214c199.47-3.717 418.764-174.691 423.72-437.348 4.955-257.7-205.665-465.843-460.888-457.17-257.7 8.672-457.17 230.443-433.63 485.666zm76.815-111.505c0-19.823 13.628-35.93 35.93-35.93 18.583 0 34.69 14.868 34.69 34.691 0 18.584-14.868 33.452-34.69 33.452-17.346 3.716-33.452-13.629-35.93-32.213zm112.744 37.168c0-19.823 17.345-37.168 37.168-37.168 18.584 0 33.452 17.345 33.452 37.168 0 18.584-16.107 34.69-33.452 34.69-19.823 0-37.168-17.344-37.168-34.69zm185.841 37.169c0 38.407 33.452 70.62 71.86 70.62 38.407 0 70.62-32.213 70.62-71.86-1.24-40.884-33.452-70.62-73.099-69.38-38.407 0-69.38 32.212-69.38 70.62zm256.462-38.408c0-18.584 17.345-35.93 35.93-35.93 19.823 0 34.69 17.346 34.69 35.93 0 18.585-14.867 35.93-34.69 35.93-21.063 0-35.93-17.345-35.93-35.93zm112.744-37.168c0-19.823 17.345-34.69 35.93-34.69 19.823 0 35.929 14.867 35.929 34.69 0 18.584-16.106 33.452-34.69 33.452-19.824 3.716-37.169-14.868-37.169-33.452z"/></svg>