<svg xmlns="http://www.w3.org/2000/svg" width="1000" height="1000">
  <path d="M5 500.496c0 271.98 220.55 494.507 495.496 494.507 271.98 0 494.507-220.55 494.507-495.496C995.003 227.528 773.464 5 500.496 5 226.54 5 5 225.55 5 500.496zm96.923-.989C101.923 278.957 275.99 95 504.453 95c230.44 0 404.506 183.957 404.506 406.485 0 221.54-179.012 401.54-402.529 401.54-224.506 0-404.507-179.012-404.507-403.518zm42.528 0h92.967c7.912 0 9.89-4.945 9.89-11.868.99-15.824 2.968-30.66 3.957-45.495-15.825-7.912-82.089-22.747-100.88-21.758-4.945 24.725-10.88 49.45-5.934 79.121zm19.78 125.605c10.88 25.714 18.792 51.429 37.583 72.198 29.67-19.78 58.352-36.594 85.055-55.385-9.89-18.791-18.791-35.604-26.703-54.396-30.66 10.88-60.33 22.748-89.012 32.638-1.978.989-3.956 1.978-6.923 4.945zm35.605-323.408c29.67 18.792 57.363 37.583 87.033 55.385 13.846-16.813 24.725-31.648 35.605-45.495-24.726-24.725-47.473-47.472-72.198-73.187-18.792 17.803-34.616 39.56-50.44 63.297zm83.077 489.562c23.736 13.847 45.495 27.693 71.21 43.517 16.812-33.627 29.67-63.297 44.505-95.934-16.814-9.89-34.616-19.78-51.429-30.66-20.77 27.693-41.539 54.396-64.286 83.077zm71.21-623.079c16.812 29.67 26.702 61.32 46.483 90.99 17.802-7.912 35.604-13.847 53.407-19.78-6.924-34.616-12.858-66.265-20.77-100.88-29.67 8.901-55.385 13.846-79.12 29.67zm43.516 197.803c0 19.78 0 40.55.989 60.33 0 7.912 3.956 12.857 11.868 13.846 13.846 0 28.681 0 43.517-.989 7.912 0 11.868-3.956 11.868-12.857v-10.88h53.406c15.825.99 30.66 5.935 42.528 15.825 6.923 5.934 14.835 8.901 22.747 8.901h42.528c4.945 0 10.88-2.967 16.813-2.967-7.912-37.582-56.374-72.198-94.945-80.11-45.495-8.901-91.978-2.967-137.473-4.945-8.901 0-13.846 4.945-13.846 13.846zm.989 151.32c1.978 13.846 2.967 14.835 17.802 15.824h9.89c5.934 0 11.868 0 16.813-.99 19.78-1.977 25.715-13.846 19.78-32.637-1.977-3.956-1.977-9.89-.988-13.846 1.978-17.802-3.956-27.692-20.77-29.67-8.9-1.979-17.802-.99-27.692-.99s-14.835 4.946-14.835 14.836zm1.978 45.494c-1.978 22.747-2.967 45.495.989 68.242 4.945.989 6.923 1.978 9.89 1.978 35.604 0 72.198.99 107.802-.989 47.473-2.967 106.814-29.67 120.66-77.143h-35.604c-20.77 0-41.539-2.967-60.33 11.868-1.978 2.967-6.923 3.956-10.88 3.956-21.758.99-43.516 0-66.263 0-3.956-7.912-3.956-15.824-13.847-15.824h-41.538c-4.945.989-10.88 4.945-10.88 7.912zm16.813-79.121v-4.945c0-1.978 1.978-3.956 3.956-3.956h16.813c1.978 0 3.956 1.978 3.956 3.956v4.945c0 1.978-1.978 3.956-3.956 3.956h-16.813c-1.978 0-3.956-1.978-3.956-3.956zm1.978 26.703v-4.945c0-1.978 1.978-3.956 3.956-3.956h16.813c1.978 0 3.956 1.978 3.956 3.956v4.945c0 1.978-1.978 3.956-3.956 3.956h-16.813c-1.978 0-3.956-1.978-3.956-3.956zM476.76 848.63c0 3.956.989 8.901.989 14.835 28.681 3.956 54.396 3.956 81.099-3.956-3.956-27.692-5.934-54.395-9.89-78.132-3.956-21.758-3.956-21.758-25.715-19.78h-23.736c-12.857.989-14.835.989-15.824 15.824-1.978 23.736-4.945 46.484-6.923 71.21zm16.813-377.803c0 14.835 0 29.67.99 44.505 0 4.945 1.977 10.88 2.966 17.803 15.824 0 31.649 0 46.484-.99 7.912 0 14.835-11.868-.99-15.824-4.944-1.978-9.89-.989-14.834-.989-3.956 0-8.902.99-13.847-.989v-9.89h24.726c5.934 0 10.879-2.967 9.89-9.89 0-7.912-4.945-8.901-10.88-8.901h-14.834c-3.957 0-9.89-.99-10.88-4.945 0-5.934 6.923-4.945 10.88-5.934h18.79c5.935 0 10.88-1.978 11.869-8.901 0-8.901-5.934-10.88-11.868-10.88h-32.638c-12.857 0-15.824 1.979-15.824 15.825zm50.44-234.397c19.78 6.923 37.582 11.868 56.374 16.814 13.846-30.66 26.703-62.308 38.571-92.968-15.824-11.868-60.33-24.725-81.099-20.77zm41.538 236.375c3.956 2.967 8.902 2.967 13.847 3.956.989 5.934.989 10.879.989 15.824 1.978 9.89.989 21.758 1.978 30.66.989 13.846 19.78 15.824 19.78-8.902V477.75c6.923-1.978 11.868-1.978 15.824-4.945 1.978-.99 5.934-4.945 5.934-6.923-.989-3.956-1.978-8.901-6.923-9.89h-49.45c-3.957 0-12.858 10.879-1.979 16.813zm43.517 260.11c18.791 29.67 31.648 60.33 50.44 87.034 23.736-9.89 51.428-28.682 66.264-47.473l-67.253-75.165c-17.803 11.868-33.627 23.736-49.451 35.605zm49.45-433.188c14.836 15.824 26.704 29.67 40.55 44.506 28.682-19.78 54.396-39.56 84.067-60.33-18.792-23.736-34.616-43.517-57.363-61.319-22.748 26.704-45.495 51.429-67.253 77.143zm56.375 328.353c29.67 15.824 59.34 32.637 90 49.45 13.846-24.725 25.714-47.472 31.648-77.142-32.637-8.902-65.275-18.792-97.912-28.682-7.912 19.78-14.835 36.594-23.736 56.374zm23.736-203.737c2.967 20.77 5.934 37.583 9.89 57.363 32.638 0 66.264-.99 100.88-4.945 1.978-29.67-3.957-54.396-13.847-81.1-33.626 9.89-65.275 18.792-96.923 28.682z" style="fill:#000;fill-opacity:1;fill-rule:nonzero;stroke:none;"/>
</svg>
