<svg xmlns="http://www.w3.org/2000/svg" viewBox="0 0 1000 1000"><path d="m633.33 127.923 13.848-13.849C616.963 49.868 577.936 17.135 523.801 8.323 464.631-1.75 418.05 19.653 372.727 76.306c-22.661 32.733-39.027 78.055-40.286 123.377-7.554 64.207-47.84 112.047-108.27 128.413-3.777 0-8.813 1.259-11.33 2.518-7.554 1.259-12.59 2.518-20.144 1.259 6.295 35.25 15.108 44.063 42.804 35.25 80.573-25.179 128.413-78.054 138.485-162.404 6.295-50.358 20.143-86.868 42.804-115.824 30.215-35.25 73.02-47.84 114.565-35.25 30.215 8.812 54.135 31.474 70.501 64.206 8.813 16.367 17.625 17.626 31.474 10.072zM6.373 481.688c-7.554 54.135 16.366 101.975 64.206 139.743 40.286 27.697 89.385 39.028 134.708 45.323 60.43 7.553 104.493 44.063 122.118 107.01 0 3.777 2.518 10.072 3.777 13.849 2.518 6.295 2.518 12.59 3.777 18.884 32.732-7.554 40.286-16.366 35.25-39.027-27.697-80.573-73.019-120.86-146.038-135.967l-36.51-7.554c-25.179-5.036-49.099-11.33-73.019-22.66-51.617-28.957-79.314-81.833-65.465-130.932 10.071-27.697 27.697-47.84 56.653-66.724 11.33-10.072 22.66-15.107 31.473-17.625-12.59-31.474-16.366-36.51-33.991-30.215-59.171 33.992-89.386 73.019-96.94 125.895zm100.716 244.236C91.98 800.202 149.893 871.962 224.17 887.07c44.063 8.813 81.832 3.777 117.082-17.625 26.438-13.849 50.358-27.697 74.278-45.323 33.992-25.179 66.725-41.545 105.752-30.214 12.59 3.776 22.661 8.812 33.992 15.107 10.071 5.036 20.143 10.072 30.215 12.59 2.518 1.258 3.776 2.517 7.553 3.776 5.036 1.26 5.036 1.26 7.554 3.777 11.33-10.071 16.366-17.625 10.072-26.438-1.26 0-1.26-1.259-2.518-3.777-2.518-6.294-8.813-15.107-18.885-18.884-69.242-35.25-138.484-31.474-203.95 12.59-17.625 13.848-31.473 22.66-50.357 33.991-35.251 21.402-71.76 26.438-108.27 18.885-59.17-12.59-89.386-75.537-70.501-142.262 7.553-26.438 5.035-28.956-33.992-37.768-2.518 13.848-6.295 26.438-8.813 37.768-1.259 7.554-5.036 16.366-6.294 22.661zm3.776-507.357c-10.071 49.1 1.26 99.457 31.474 149.815l13.849 18.885c8.812 10.071 16.366 22.66 25.179 32.732 31.473 49.1 33.991 94.422 6.294 146.039-3.777 5.035-6.294 8.812-8.812 13.848-5.036 7.554-10.072 13.848-10.072 18.884 30.215 17.626 40.287 16.367 54.135-10.071 37.768-71.76 28.956-141.003-18.884-203.95-27.697-36.51-44.064-66.725-51.617-103.234-13.849-64.207 20.143-118.341 79.314-128.413 21.402-6.295 47.84 0 74.278 3.777 10.071 5.036 21.402-1.26 26.438-12.59 2.518-13.848-2.518-21.402-17.626-26.438-3.777-1.259-8.812-1.259-11.33-2.518-5.036-1.259-8.813-2.517-15.108-5.035-83.09-16.367-156.11 27.697-177.512 108.27zM356.361 875.74c11.33 62.948 73.019 115.824 138.484 118.342 61.689 0 107.011-27.697 139.744-88.127 25.179-39.027 31.473-76.796 36.51-119.6 8.812-59.17 47.84-103.234 109.528-115.824 2.518-2.517 6.295-2.517 10.071-3.776 6.295-1.26 13.849-1.26 17.626-6.295-7.554-27.697-20.143-36.51-45.322-28.956-64.207 18.884-104.493 55.394-122.119 107.01-7.553 21.403-11.33 40.287-15.107 59.171-1.259 6.295-2.518 13.849-5.036 21.403-7.553 37.768-18.884 70.5-42.804 98.198-46.581 45.322-115.824 42.804-157.369-3.777-11.33-12.59-16.366-22.661-23.92-37.769-5.036-10.071-17.625-12.59-26.438-5.035 0 1.258-1.259 2.517-2.518 2.517-6.295 2.518-6.295 2.518-11.33 2.518zm41.545-711.307c-16.366 36.51-16.366 42.805 12.59 54.135 69.242 35.25 137.225 33.992 202.69-10.071 7.554-7.554 16.367-12.59 25.18-17.626 7.553-3.776 13.848-10.071 18.884-13.848 32.732-21.402 66.724-30.215 103.234-27.697 69.242 13.849 103.234 78.055 81.831 148.556-5.035 11.33-8.812 27.697 12.59 31.474 18.884 7.554 23.92-6.295 26.438-15.107 0-2.518 1.259-5.036 2.518-5.036 2.518-5.036 2.518-8.813 3.777-13.849 1.259-3.777 2.518-7.553 2.518-12.59 18.884-99.456-64.207-185.065-167.44-174.993-45.323 6.294-85.61 26.438-133.45 62.947-51.616 40.287-103.233 46.581-156.11 17.626-6.294-5.036-12.589-8.813-18.884-12.59-6.294-3.777-11.33-7.554-16.366-11.33zm236.683 79.314c28.956 78.055 83.09 119.6 167.44 127.154 44.063 7.554 79.314 20.143 104.493 40.287 59.17 47.84 62.947 124.636 2.518 173.735-6.295 5.036-12.59 8.812-20.143 13.848-7.554 5.036-16.367 10.072-25.18 16.367 8.813 28.955 17.626 32.732 40.287 20.143 10.072-3.777 16.366-10.072 22.661-15.108l13.849-10.071c67.983-55.394 73.019-153.592 11.33-215.28-32.733-32.733-80.573-52.877-144.78-62.948-83.09-12.59-120.858-44.063-135.966-123.377 0-1.26-2.518-5.036-3.777-7.554-1.259-1.259-1.259-1.259-1.259-3.777-36.51 2.518-44.063 12.59-31.473 46.581zM679.91 839.23c-17.625 25.179-15.108 37.768 10.071 41.545 5.036 3.777 8.813 3.777 15.108 3.777 113.305 27.697 203.95-56.653 182.548-172.476-8.813-49.1-32.733-88.127-62.948-125.895-35.25-45.322-41.545-91.904-16.366-142.262 7.553-15.107 13.848-28.955 26.438-46.58-31.474-17.626-45.322-15.108-59.17 13.848-35.252 71.76-27.698 138.484 22.66 201.432 17.625 27.697 32.733 54.135 44.063 85.608 32.733 81.832-21.402 158.628-108.27 149.815-11.33 0-21.401-1.259-33.99-5.035-6.296-2.518-13.85-3.777-20.144-3.777z"/></svg>