<svg xmlns="http://www.w3.org/2000/svg" width="1000" height="1000">
  <path d="M5 500.496c0 271.98 220.55 494.507 495.496 494.507 271.98 0 494.507-220.55 494.507-495.496C995.003 227.528 773.464 5 500.496 5 226.54 5 5 225.55 5 500.496zm142.418 74.176v-52.418h100.88c17.802 0 17.802 0 17.802-44.505H147.418v-44.506h72.198c41.539 0 41.539 0 41.539-44.505V252.254h111.758c14.836 0 16.814 10.879 21.759 16.813 75.165 115.714 114.725 183.956 113.736 180.99 44.506-76.155 60.33-110.77 114.726-180.99 6.923-10.88 16.813-16.813 22.747-16.813h100.88V365.99c0 59.341-2.967 67.253 11.868 67.253h101.868c1.978 42.528 4.945 44.506-8.9 44.506h-99.891c0 44.505-4.945 44.505 29.67 44.505h70.22c10.88 0 8.901 11.869 8.901 52.418H746.761v158.243H645.88V433.243h-5.934c-44.505 61.32-91.978 129.561-135.495 196.814-45.494-67.253-85.055-128.572-131.539-196.814h-4.945v299.672H266.1V574.672z" style="fill:#000;fill-opacity:1;fill-rule:nonzero;stroke:none;"/>
</svg>
