<svg xmlns="http://www.w3.org/2000/svg" viewBox="0 0 1000 1000"><path d="M5 500.496c0 271.98 220.55 494.507 495.496 494.507 271.98 0 494.507-220.55 494.507-495.496C995.003 227.528 773.464 5 500.496 5 226.54 5 5 225.55 5 500.496zm100.88-7.912c0-8.901 7.912-15.824 15.824-15.824 8.9 0 14.835 6.923 14.835 15.824s-6.923 15.824-14.835 15.824c-9.89 0-15.825-6.923-15.825-15.824zm67.252 123.627c0-12.857 9.89-25.715 25.715-25.715 14.835 0 25.714 10.88 25.714 25.715 0 16.813-10.879 27.692-25.714 27.692-15.824 0-25.715-11.868-25.715-27.692zm0-248.243c0-15.824 9.89-25.714 26.704-26.703 11.868 0 26.703 10.879 24.725 26.703 0 17.802-9.89 26.704-25.714 26.704-13.846.989-27.693-11.869-25.715-26.704zm43.517 392.639c0-9.89 6.923-16.813 15.824-16.813 9.89 0 13.846 6.923 13.846 16.813 0 8.901-4.945 14.835-13.846 14.835-7.912 0-15.824-8.901-15.824-14.835zm0-534.068c0-8.9 6.923-14.835 13.846-14.835 10.88 0 17.803 4.945 17.803 14.835 0 7.912-6.924 14.835-15.825 14.835-8.9 0-15.824-6.923-15.824-14.835zm6.923 280.88v-30.66c0-12.856 9.89-24.725 24.726-25.714h27.692c12.857 0 23.736 9.89 24.725 22.748.99 12.857.99 26.703 0 39.56-.989 8.901-8.9 15.825-18.791 16.814-13.846 1.978-26.703 1.978-39.56 0-11.869-.99-18.792-10.88-18.792-22.748zm77.143 156.265V636.98c.99-16.813 10.88-26.703 27.693-26.703h45.494c5.934 0 7.912 0 7.912-8.901V377.858c0-9.89 0-9.89-8.9-9.89h-41.54c-19.78 0-30.659-9.89-30.659-28.681V314.56c0-16.813 12.857-27.692 27.693-27.692h26.703c17.802 0 27.692 12.857 27.692 27.692v43.517c0 6.923 0 6.923 8.902 6.923h40.55c17.801 0 25.714 8.901 25.714 27.693v15.824c1.978 21.758 17.802 37.582 39.56 40.55 15.824 1.977 34.616-12.858 37.583-31.65.989-6.922.989-15.823.989-24.724 0-15.825 8.9-27.693 26.703-27.693h46.484c9.89 0 9.89 0 9.89-8.901V314.56c0-12.857 4.945-22.747 17.802-26.703 1.978 0 4.945-.989 7.912-.989h27.693c15.824 0 26.703 10.88 27.692 24.725v30.66c-.989 19.78-15.824 25.714-28.681 25.714h-42.528c-6.923 0-6.923 0-6.923 8.901v47.473c0 4.945-1.978 8.901-2.967 12.857-3.956 7.912-9.89 11.868-19.78 11.868-8.902 0-18.792 0-28.682 1.978-14.835.99-28.681 15.825-31.648 31.649-.99 15.824 5.934 30.66 20.769 39.56 6.923 3.957 13.846 4.946 21.758 4.946h15.825c14.835 0 24.725 9.89 24.725 24.725v48.462c0 9.89 0 9.89 8.901 9.89h41.539c17.802 0 27.692 9.89 27.692 28.681v26.704c0 13.846-9.89 25.714-25.714 25.714h-30.66c-12.857 0-21.758-8.901-23.736-20.77-.99-6.923-.99-10.879-.99-16.813v-33.626c0-7.912 0-7.912-8.9-7.912h-49.451c-12.857 0-25.714-10.88-24.725-24.726 0-10.879 1.978-21.758-1.978-32.637-5.934-13.846-19.78-24.725-35.605-25.714-16.813 0-27.692 7.912-34.615 21.758-3.956 6.923-5.934 12.857-5.934 21.758v14.835c0 15.825-8.902 24.726-22.748 24.726h-43.516c-8.902 0-8.902 0-8.902 7.912v41.538c0 19.78-9.89 29.67-28.681 29.67h-25.714c-16.814 0-27.693-9.89-27.693-27.692zm47.473 129.56c0-14.835 11.868-27.692 26.703-27.692 13.847 0 25.715 12.857 25.715 27.692 0 16.814-10.88 25.715-25.715 25.715-14.835.989-26.703-10.88-26.703-25.715zm0-601.32c0-14.836 9.89-24.726 26.703-25.715 14.836 0 25.715 11.868 25.715 26.704 0 15.824-11.868 25.714-26.704 25.714-13.846 0-25.714-10.88-25.714-26.703zm109.78 552.859V716.1c0-12.857 11.869-24.725 26.704-24.725h25.714c15.825 0 27.693 9.89 27.693 25.714v26.704c0 15.824-9.89 25.714-25.715 27.692h-27.692c-14.835-1.978-26.703-11.868-26.703-26.703zm0-479.672v-24.726c0-13.846 11.869-24.725 24.726-24.725h30.66c12.857 0 24.725 8.901 24.725 24.725v27.693c0 15.824-11.868 26.703-25.715 26.703H487.64c-17.802 0-29.67-10.879-29.67-29.67zm24.726 604.287c0-7.912 7.912-14.835 15.824-14.835 8.901 0 15.824 6.923 15.824 14.835 0 8.902-7.912 15.825-15.824 15.825-9.89-.99-15.824-5.934-15.824-15.825zm0-753.628c0-8.902 7.912-15.825 15.824-15.825s15.824 6.923 15.824 15.825c0 7.912-7.912 15.824-14.835 15.824-8.901 0-16.813-6.923-16.813-15.824zM597.42 793.244c-1.978-16.813 11.868-26.703 24.725-27.692 15.824 0 26.703 12.857 26.703 27.692 0 14.836-10.879 25.715-25.714 25.715-15.824 0-25.714-10.88-25.714-25.715zm0-601.32c0-14.836 9.89-25.715 25.714-25.715 14.835 0 25.714 10.88 25.714 25.715 0 16.813-10.879 26.703-26.703 26.703s-24.725-9.89-24.725-26.703zm97.912 319.451v-38.571c0-10.88 13.846-21.759 24.725-21.759h13.847c6.923 0 12.857 0 18.79.99 13.847 2.966 19.781 11.868 21.76 27.692v27.692c-1.979 9.89-8.902 21.759-20.77 22.748-12.857 1.978-25.715 0-38.572 0-8.9 0-17.802-10.88-19.78-18.792zm54.396 248.243c0-8.901 5.934-15.824 13.846-15.824 8.901 0 16.813 6.923 16.813 15.824 0 6.923-7.912 15.824-14.835 15.824-8.901 0-15.824-6.923-15.824-15.824zm0-535.057c0-7.912 5.934-12.857 15.824-12.857 6.923 0 14.835 5.934 14.835 14.835 0 9.89-7.912 14.835-14.835 14.835-9.89 0-15.824-6.923-15.824-16.813zm21.758 391.65c0-14.835 11.868-25.715 27.692-25.715 13.847 0 25.715 12.858 25.715 26.704 0 14.835-11.868 26.703-25.715 26.703-15.824 0-27.692-10.879-27.692-27.692zm0-249.232c0-12.857 11.868-25.714 24.725-25.714 16.814 0 28.682 12.857 27.693 26.703.989 14.835-10.88 27.693-26.704 26.704-15.824-1.978-25.714-10.88-25.714-27.693zm88.022 127.583c0-10.88 6.923-17.802 14.836-17.802 8.9 0 15.824 8.9 16.813 14.835 0 9.89-6.923 16.813-16.813 16.813-7.913 0-14.836-6.923-14.836-13.846z"/></svg>