<svg xmlns="http://www.w3.org/2000/svg" viewBox="0 0 1000 1000"><path d="M881.528,829.714l-178.429-247.62c29.362-11.819,56.474-28.817,80.102-50.215,43.427-39.16,94.954-113.1,94.954-242.323,1.443-39.04-5.257-77.948-19.652-114.13-14.39-36.183-36.151-68.811-63.824-95.712C706.477-2.98,590.376,.014,553.024,.014H198.418c-27.175,.121-53.203,11.227-72.419,30.899-19.216,19.672-30.064,46.317-30.183,74.137v100.891h500.634c22.217,.934,43.243,10.512,58.798,26.778,15.555,16.266,24.462,37.995,24.903,60.753v19.809c-.404,10.822-2.896,21.455-7.329,31.289-4.428,9.834-10.712,18.676-18.487,26.017-7.78,7.341-16.898,13.038-26.828,16.762-9.936,3.724-20.491,5.402-31.057,4.94h-78.754c-19.043,.413-37.62,6.155-53.704,16.602-16.09,10.447-29.079,25.201-37.562,42.664-8.483,17.463-12.134,36.969-10.566,56.406,1.574,19.437,8.31,38.061,19.484,53.862l281.924,391.583c7.659,11.767,17.564,21.818,29.126,29.551,11.557,7.738,24.531,12.989,38.128,15.45,13.598,2.46,27.542,2.067,40.988-1.149,13.451-3.211,26.12-9.186,37.252-17.553,11.127-8.373,20.481-18.965,27.5-31.141,7.019-12.176,11.552-25.68,13.325-39.702,1.773-14.018,.755-28.261-3.001-41.864-3.751-13.603-10.162-26.288-18.839-37.284h-.226ZM95.561,392.277v490.17h2.251c2.402,31.177,16.335,60.241,38.956,81.262,22.622,21.016,52.226,32.405,82.769,31.838,30.027-.121,58.975-11.473,81.395-31.922,22.42-20.449,36.765-48.579,40.333-79.106l1.35-492.242H95.561Z"/></svg>