<?xml version="1.0" encoding="utf-8"?>
<!-- Generator: Adobe Illustrator 26.0.1, SVG Export Plug-In . SVG Version: 6.00 Build 0)  -->
<svg version="1.1" id="Layer_1" xmlns="http://www.w3.org/2000/svg" xmlns:xlink="http://www.w3.org/1999/xlink" x="0px" y="0px"
	 viewBox="0 0 1000 1000" style="enable-background:new 0 0 1000 1000;" xml:space="preserve">
<path d="M318.4,509l7,25.9h-49.7l7-25.9c9.3-34.3,15.3-62.1,17.9-83.3C303.1,447,309.1,474.7,318.4,509z M995.3,500
	c0,273.4-221.6,495-495,495S5.3,773.4,5.3,500S226.9,5,500.3,5S995.3,226.6,995.3,500z M586.2,142.6
	c46.4,42.4,78.8,101.7,96.7,144.7h113.9L650.7,142.6H586.2z M725.5,588.8V409.3h48.7v-38.9H633.5v38.9h48.7v179.6h-48.7v38.9h140.7
	v-38.9H725.5z M515.4,287.3h140.4c-32.7-77.9-85.8-128.9-108.2-144.7h-32.2V287.3z M348.5,287.3h138.9V142.6h-32.9
	C393.2,186.7,358.3,257.4,348.5,287.3z M325.4,370.4h-49.7l-69.3,257.3h44.5l14.4-53.9h70.7l14.4,53.9h44.5L325.4,370.4z
	 M203.8,287.3h117.4c15.8-57.3,77.4-133.9,96-144.7h-68.8L203.8,287.3z M414.4,857.4C368,815,335.6,755.7,317.7,712.7H203.8
	l146.1,144.7H414.4z M485.3,712.7H344.9c32.7,77.9,85.7,128.9,108.2,144.7h32.2V712.7z M582.4,627.7v-38.9H479.8V370.4h-43.4v257.3
	H582.4z M652.1,712.7H513.2v144.7h32.9C607.4,813.3,642.3,742.6,652.1,712.7z M796.9,712.7H679.4c-15.8,57.3-77.4,133.9-96,144.7
	h68.8L796.9,712.7z"/>
</svg>
