<svg width="32" height="32" viewBox="0 0 32 32" fill="none" xmlns="http://www.w3.org/2000/svg">
<path d="M9.24525 0.0639648L2.78125 6.52797H8.02925C8.73325 3.96797 11.4852 0.543965 12.3172 0.0639648H9.24525Z" fill="black"/>
<path d="M15.4532 6.52797V0.0639648H13.9812C11.242 2.03516 9.68258 5.19463 9.24525 6.52797H15.4532Z" fill="black"/>
<path d="M16.7012 6.52797H22.9732C21.514 3.04636 19.1439 0.767965 18.1412 0.0639648H16.7012V6.52797Z" fill="black"/>
<path d="M24.1892 6.52797H29.2772L22.7492 0.0639648H19.8692C21.9428 1.95836 23.3892 4.60797 24.1892 6.52797Z" fill="black"/>
<path d="M22.8133 31.9999L29.2773 25.5359L24.0293 25.5359C23.3253 28.0959 20.5733 31.5199 19.7413 31.9999L22.8133 31.9999Z" fill="black"/>
<path d="M16.6053 25.5359L16.6053 31.9999L18.0773 31.9999C20.8165 30.0287 22.376 26.8692 22.8133 25.5359L16.6053 25.5359Z" fill="black"/>
<path d="M15.3573 25.5359L9.08535 25.5359C10.5445 29.0175 12.9147 31.2959 13.9173 31.9999L15.3573 31.9999L15.3573 25.5359Z" fill="black"/>
<path d="M7.86935 25.5359L2.78135 25.5359L9.30935 31.9999L12.1893 31.9999C10.1157 30.1055 8.66935 27.4559 7.86935 25.5359Z" fill="black"/>
<path d="M2.47656 22.0001H4.50856L5.16456 19.5361H8.39656L9.05256 22.0001H11.0846L7.91656 10.2401H5.64456L2.47656 22.0001ZM5.64456 17.7601L5.96456 16.5761C6.39123 15.0081 6.66323 13.7387 6.78056 12.7681C6.8979 13.7387 7.1699 15.0081 7.59656 16.5761L7.91656 17.7601H5.64456Z" fill="black"/>
<path d="M16.0313 22.1281C16.5006 22.1281 16.9646 22.0694 17.4233 21.9521C17.8926 21.8347 18.3086 21.6267 18.6713 21.3281C19.0446 21.0187 19.3273 20.6454 19.5193 20.2081C19.7113 19.7601 19.8073 19.3014 19.8073 18.8321C19.8073 18.4267 19.7273 18.0321 19.5673 17.6481C19.418 17.2641 19.194 16.9281 18.8953 16.6401C18.6073 16.3521 18.282 16.1227 17.9193 15.9521C18.2393 15.7814 18.522 15.5574 18.7673 15.2801C19.0233 15.0027 19.2153 14.6934 19.3433 14.3521C19.482 14.0001 19.5513 13.6374 19.5513 13.2641C19.5513 12.8267 19.4606 12.4001 19.2793 11.9841C19.1086 11.5574 18.8526 11.2001 18.5113 10.9121C18.17 10.6134 17.7806 10.4054 17.3433 10.2881C16.9166 10.1707 16.4793 10.1121 16.0313 10.1121C15.6046 10.1121 15.178 10.1654 14.7513 10.2721C14.3246 10.3787 13.9406 10.5761 13.5993 10.8641C13.258 11.1414 12.9966 11.4827 12.8153 11.8881C12.6446 12.2934 12.5593 12.7147 12.5593 13.1521H14.5273C14.5273 12.9067 14.5966 12.6774 14.7353 12.4641C14.8846 12.2507 15.0766 12.1014 15.3113 12.0161C15.546 11.9307 15.786 11.8881 16.0313 11.8881C16.234 11.8881 16.426 11.9147 16.6073 11.9681C16.7993 12.0214 16.97 12.1121 17.1193 12.2401C17.2686 12.3681 17.3806 12.5281 17.4553 12.7201C17.53 12.9014 17.5673 13.0934 17.5673 13.2961C17.5673 13.5734 17.498 13.8401 17.3593 14.0961C17.2313 14.3521 17.05 14.5601 16.8153 14.7201C16.5806 14.8801 16.3193 14.9814 16.0313 15.0241C15.754 15.0667 15.4766 15.0881 15.1993 15.0881V16.8801C15.5086 16.8801 15.8126 16.9014 16.1113 16.9441C16.4206 16.9867 16.7033 17.0934 16.9593 17.2641C17.226 17.4347 17.434 17.6587 17.5833 17.9361C17.7433 18.2134 17.8233 18.5067 17.8233 18.8161C17.8233 19.0294 17.7753 19.2427 17.6793 19.4561C17.594 19.6694 17.4606 19.8454 17.2793 19.9841C17.1086 20.1227 16.9113 20.2187 16.6873 20.2721C16.474 20.3254 16.2553 20.3521 16.0313 20.3521C15.754 20.3521 15.482 20.3094 15.2153 20.2241C14.9486 20.1387 14.7246 19.9841 14.5433 19.7601C14.3726 19.5254 14.282 19.2694 14.2713 18.9921H12.3033C12.3033 19.4507 12.3993 19.8934 12.5913 20.3201C12.794 20.7467 13.0766 21.1041 13.4393 21.3921C13.8126 21.6694 14.2233 21.8614 14.6713 21.9681C15.1193 22.0747 15.5726 22.1281 16.0313 22.1281Z" fill="black"/>
<path d="M25.2181 22.1281C25.6661 22.1281 26.1087 22.0801 26.5461 21.9841C26.9834 21.8881 27.3834 21.7067 27.7461 21.4401C28.1194 21.1734 28.4021 20.8321 28.5941 20.4161C28.7967 20.0001 28.8981 19.5681 28.8981 19.1201C28.8981 17.9041 28.2314 16.8694 26.8981 16.0161C28.0287 15.2161 28.5941 14.2507 28.5941 13.1201C28.5941 12.6934 28.5087 12.2774 28.3381 11.8721C28.1781 11.4667 27.9327 11.1254 27.6021 10.8481C27.2714 10.5707 26.8981 10.3787 26.4821 10.2721C26.0661 10.1654 25.6447 10.1121 25.2181 10.1121C24.7914 10.1121 24.3701 10.1654 23.9541 10.2721C23.5381 10.3787 23.1647 10.5707 22.8341 10.8481C22.5034 11.1254 22.2527 11.4667 22.0821 11.8721C21.9221 12.2774 21.8421 12.6934 21.8421 13.1201C21.8421 14.2507 22.4074 15.2161 23.5381 16.0161C22.2154 16.8694 21.5541 17.9041 21.5541 19.1201C21.5541 19.5681 21.6501 20.0001 21.8421 20.4161C22.0341 20.8321 22.3114 21.1734 22.6741 21.4401C23.0474 21.7067 23.4527 21.8881 23.8901 21.9841C24.3274 22.0801 24.7701 22.1281 25.2181 22.1281ZM25.2181 20.3521C25.0261 20.3521 24.8287 20.3361 24.6261 20.3041C24.4341 20.2614 24.2527 20.1921 24.0821 20.0961C23.9114 19.9894 23.7727 19.8507 23.6661 19.6801C23.5701 19.4987 23.5221 19.3121 23.5221 19.1201C23.5221 18.3947 24.0874 17.6961 25.2181 17.0241C26.3487 17.6961 26.9141 18.3947 26.9141 19.1201C26.9141 19.3121 26.8607 19.4987 26.7541 19.6801C26.6581 19.8507 26.5247 19.9894 26.3541 20.0961C26.1834 20.1921 25.9967 20.2614 25.7941 20.3041C25.6021 20.3361 25.4101 20.3521 25.2181 20.3521ZM25.2181 15.0401C24.2794 14.4641 23.8101 13.8187 23.8101 13.1041C23.8101 12.8801 23.8741 12.6667 24.0021 12.4641C24.1301 12.2507 24.3061 12.1014 24.5301 12.0161C24.7541 11.9307 24.9834 11.8881 25.2181 11.8881C25.4527 11.8881 25.6821 11.9307 25.9061 12.0161C26.1301 12.1014 26.3061 12.2507 26.4341 12.4641C26.5621 12.6667 26.6261 12.8801 26.6261 13.1041C26.6261 13.8187 26.1567 14.4641 25.2181 15.0401Z" fill="black"/>
</svg>
