<svg xmlns="http://www.w3.org/2000/svg" viewBox="0 0 1000 1000"><path d="M5 729.011c0 2.335 0 2.335 3.502 4.67H87.89c15.176 0 19.846 3.502 28.019 15.177 141.262 222.984 447.136 282.524 656.11 123.75 158.775-119.08 218.315-280.19 177.454-473.987C902.775 163.96 666.948 5.187 428.787 43.714 146.262 93.914-25.353 382.276 69.21 650.79c2.335 8.173 2.335 15.177-4.67 23.35C44.694 690.485 24.847 710.33 5 729.01zm121.416-144.765c-46.699-201.97 79.387-403.94 277.855-457.643 213.644-58.373 434.294 78.22 477.49 296.534 38.526 193.798-73.55 380.591-259.176 444.801-171.616 60.708-371.251-19.846-457.643-177.453-5.838-11.675 0-16.344 5.837-22.182 78.22-78.22 155.272-152.937 233.491-231.156 26.852-26.852 56.038-57.206 82.89-85.225 2.335 0 4.67-2.335 7.005-5.837v252.17c7.004-2.334 9.34-2.334 9.34-5.836 23.349-18.68 42.028-40.861 61.875-59.54 4.67-5.838 8.172-11.675 8.172-17.513v-349.07c-147.1 143.598-295.367 290.697-441.3 436.63-2.334-7.005-5.836-12.842-5.836-18.68zm275.52 243.999c2.335-2.335 4.67-7.005 8.172-9.34 88.727-87.56 177.453-177.453 263.845-265.013 57.206-54.87 109.741-108.573 162.277-163.444 5.837-3.502 10.507-10.507 8.172-16.344-8.172-22.182-19.847-40.861-26.852-64.21-3.502 0-7.004 0-7.004-3.503-112.076 112.076-222.985 226.487-335.06 335.06V390.449c-24.517 24.517-46.699 44.364-65.378 66.545-5.838 4.67-8.172 14.01-8.172 21.015zm498.504-601.24c10.507 21.014 24.516 40.86 33.856 59.54 21.014-21.015 40.861-40.861 60.708-59.54z"/></svg>