<svg xmlns="http://www.w3.org/2000/svg" viewBox="0 0 1000 1000"><path d="M749.728 72.253C672.585 27.45 589.508 5 500.496 5c-89.703 0-173.077 22.45-250.22 67.253-74.473 44.209-133.814 103.55-178.023 178.023C27.451 327.419 5 410.694 5 500.002c0 89.308 22.45 172.583 67.253 249.726C116.462 824.2 175.803 883.54 250.276 927.75c77.143 44.803 160.418 67.253 249.726 67.253 89.308 0 172.583-22.45 249.726-67.253C824.2 883.541 883.54 824.2 927.75 749.728c44.803-77.143 67.253-160.418 67.253-249.726 0-89.308-22.45-172.583-67.253-249.726-44.209-74.473-103.55-133.814-178.022-178.023zM103.9 528.189c-6.923-86.045 11.869-165.166 56.374-241.32 1.978-3.956 5.934-15.824 15.824-7.912 11.869 6.923 13.847 10.88 5.935 23.736-36.594 60.33-55.385 123.627-55.385 192.858 2.967 107.803 41.538 201.759 120.66 276.924 62.307 60.33 138.462 92.967 227.473 99.89 123.627 6.924 225.495-34.615 309.561-124.615 54.396-61.32 87.034-134.506 93.957-219.561 6.923-75.166-6.923-145.386-44.506-211.65-61.319-105.824-151.32-172.088-271.979-190.88-90-13.845-171.1 2.968-248.243 45.495-18.79 10.88-18.79 10.88-32.637-8.9 20.77-10.88 39.56-22.748 57.363-32.638 54.396-24.726 113.736-35.605 175.055-33.627 95.935 1.978 180.001 33.627 250.221 94.946 66.264 58.352 111.759 128.572 130.55 214.616 29.67 127.583.989 244.286-80.11 344.177-68.242 86.044-157.254 134.506-266.045 145.385-127.583 13.846-239.342-24.726-330.33-115.715-69.232-68.242-104.836-152.308-113.738-251.21zm84.067-307.584c0-22.747 17.802-39.56 40.55-39.56 22.747.989 39.56 16.813 39.56 39.56 0 26.703-16.813 42.528-39.56 42.528-22.748 0-40.55-19.78-40.55-42.528zm118.681 277.913c-1.978-92.967 68.242-179.011 156.265-195.825 125.604-22.747 237.363 69.231 237.363 193.847v182.968c0 15.824 0 15.824-15.824 15.824H499.507c-106.813-1.978-190.88-89.011-192.858-196.814zm84.067-28.681c-15.825 65.275 26.703 133.517 92.967 140.44 43.517 4.945 85.055 2.967 127.583 2.967 5.934 0 9.89-4.945 9.89-9.89V495.55c-3.956-51.429-34.616-96.923-83.077-109.78-63.297-20.77-133.517 19.78-147.363 84.066z"/></svg>