<svg xmlns="http://www.w3.org/2000/svg" viewBox="0 0 1000 1000"><path d="M500.496 995.003c275.935 0 494.507-224.506 494.507-495.496C995.003 226.54 773.464 5 500.496 5 223.572 5 5 229.506 5 499.507c0 276.924 224.506 495.496 495.496 495.496zM192.913 521.265c-.99-71.209 19.78-134.505 61.319-191.868 49.45-67.253 115.714-107.803 194.835-123.627 18.792-2.967 36.594-4.945 54.396-4.945 43.517-.99 86.044 0 128.572 0h141.43c19.78 0 20.768.989 20.768 20.77 0 32.637 0 30.659-29.67 30.659-84.066 0-167.143 0-251.21-.99-64.286 0-118.681 18.792-168.132 56.374-54.396 41.539-86.044 97.913-97.913 165.166-1.978 15.824-2.967 32.637-3.956 49.45-.989 15.825-.989 16.814-16.813 20.77-4.945.989-10.879.989-15.824.989-15.824-3.956-16.813-5.934-17.802-22.748zm22.747 289.782c0-28.682 0-28.682 29.67-28.682 83.078 0 165.166-.989 248.243 0 66.264.99 124.616-16.813 175.056-58.352 50.44-41.538 81.099-93.956 92.967-158.242 3.956-16.813 3.956-34.615 4.945-54.396.989-16.813 4.945-20.769 21.758-20.769 3.956-.989 7.912 0 11.869.989 15.824 1.978 17.802 2.967 17.802 19.78.989 86.045-28.682 163.188-89.012 225.496-46.483 48.461-101.868 77.143-167.143 90-17.802 3.956-35.604 5.934-54.396 5.934-43.516.989-87.033.989-130.55.989H237.42c-20.77-.99-21.759-.99-21.759-22.747zm74.176-305.606c0-7.912 3.956-12.857 10.88-12.857 5.933-.989 10.878-1.978 15.824-2.967 21.758 0 24.725 1.978 24.725 24.725-1.978 60.33 21.758 107.803 70.22 140.44 63.297 44.506 146.374 39.561 203.737-12.857 36.593-32.637 55.385-75.165 56.374-123.627.989-42.527-13.847-82.088-42.528-113.736-34.615-37.583-76.154-56.374-127.583-55.385-19.78 0-19.78-.99-19.78-20.77 0-30.659 0-30.659 28.681-29.67 54.396.99 101.869 19.78 140.44 57.363 45.495 42.528 69.231 94.945 71.21 155.275 1.977 52.418-13.847 100.88-47.473 142.418-36.594 43.517-82.088 72.198-139.451 80.11-8.901.99-20.77 1.979-30.66 2.968-107.802 0-198.792-84.067-213.627-187.913-1.978-14.835-.989-29.67-.989-43.517zm99.89 48.462c-22.747-73.187 24.726-141.43 91.979-156.264 19.78-4.945 22.747-1.978 23.736 18.79 0 3.957-.989 7.913 0 11.87.99 11.867-2.967 17.801-15.824 19.78-31.648 4.944-47.473 28.68-53.407 58.351-5.934 27.693 8.901 57.363 33.627 71.21 34.615 22.747 83.077 5.933 98.901-30.66 3.956-8.901 5.934-17.802 10.88-29.67h30.659c14.835.988 18.791 3.955 14.835 17.802-3.956 13.846-6.923 28.681-12.857 40.55-26.704 46.483-69.231 66.263-123.627 62.307-40.55-2.967-85.055-40.55-98.901-84.066z"/></svg>