<svg xmlns="http://www.w3.org/2000/svg" viewBox="0 0 1000 1000"><path d="m682.27 164.935 70.297-70.297c0-14.8-85.096-64.13-119.628-75.23-25.898-8.633-51.797-12.332-76.463-12.332-25.898-4.933-50.564 0-76.463 3.7-38.231 8.632-75.23 19.732-108.528 43.164-45.63 28.365-78.929 67.83-94.962 120.86-14.799 39.465-18.499 85.097-12.332 127.028 3.7 39.465 18.499 73.996 41.931 107.295 19.732 28.365 43.165 45.63 69.063 65.363 34.532 27.132 70.297 41.931 107.295 57.964 19.732 6.166 38.231 14.8 57.964 25.899 20.965 12.332 46.864 23.432 66.597 43.164 18.499 19.732 30.831 38.232 40.698 61.664 9.866 34.531 13.566 65.363 3.7 99.895-9.867 48.097-33.299 82.63-76.464 104.828-34.531 17.266-69.063 22.199-107.294 22.199-41.932 0-91.262-29.599-123.328-60.43-13.566-13.566-23.432-18.5-28.365-30.832-7.4 1.233-77.696 72.763-77.696 75.23 0 3.7 0 3.7 3.7 7.399l30.832 27.132c34.531 32.065 72.763 57.964 118.394 72.763 76.463 24.666 166.492 14.8 233.088-20.966 46.865-22.198 81.396-51.797 106.062-92.495 25.899-43.165 38.231-88.796 40.698-139.36 0-24.665 0-46.864-4.933-73.996-9.866-45.631-30.832-90.03-64.13-125.794-22.2-18.5-44.398-36.998-69.064-50.564-25.898-18.5-53.03-30.832-87.562-44.398-24.666-8.633-50.564-22.199-72.763-34.532-18.5-11.1-34.532-23.432-49.331-34.531-18.5-19.733-35.765-43.165-40.698-66.597-7.4-23.432-11.1-45.631-7.4-67.83 19.733-118.394 154.16-155.392 272.554-87.562 9.866 3.7 19.732 13.566 25.898 18.499 3.7 2.466 6.167 3.7 8.633 3.7zM216.093 472.019c0 25.9 0 50.565 3.7 72.764 3.7 29.598 9.866 54.264 18.499 80.162 14.8 34.532 38.231 62.897 67.83 85.096 73.996 56.73 187.457 62.897 300.919 53.03 2.466 0 6.166-3.699 6.166-6.166 6.166-14.799 9.866-34.531 9.866-50.564 0-11.1-1.233-28.365-13.566-28.365-62.897 8.633-140.593 9.866-202.257-18.5-27.132-13.565-50.564-28.364-69.063-50.563-32.065-40.698-49.33-104.828-43.164-145.526 0-3.7-2.467-8.633-2.467-8.633-16.033-14.8-17.266-12.333-59.197-78.93-9.866 33.299-17.266 64.13-17.266 96.195zm193.624-189.924c0 3.7 0 3.7 8.633 3.7h27.132c25.899-3.7 49.33 0 80.163 2.467 23.432 2.466 54.264 13.566 76.462 22.199 22.2 11.1 43.165 25.898 59.198 45.63 32.065 36.999 44.397 75.23 44.397 131.961 0 0 0 3.7 2.467 3.7 12.333 6.166 25.899 14.8 35.765 27.132 1.233 0 33.421 44.768 34.531 47.974v-7.276c12.333-78.93 3.7-156.626-25.898-219.523-17.266-29.598-32.065-51.797-57.964-73.996-23.432-17.266-53.03-35.765-81.396-44.398-33.298-9.866-67.83-14.8-101.128-14.8-35.765 0-66.597 2.467-102.362 7.4-14.8 2.467-9.866 13.566 0 67.83z"/></svg>