<svg xmlns="http://www.w3.org/2000/svg" width="1000" height="1000">
  <path d="M500.496 5C223.572 5 5 229.506 5 500.002c0 276.43 224.506 495.001 495.002 495.001 276.43 0 495.001-224.506 495.001-495.001C995.003 226.539 773.464 5 500.496 5zM79.176 504.452C75.22 280.935 258.188 78.187 496.54 72.252c232.418-2.966 428.243 180.99 433.188 416.376 6.924 228.462-171.1 429.232-414.397 436.155-236.374 8.901-432.199-185.934-436.155-420.33zm40.55 4.945c5.934 213.627 175.055 381.76 392.638 375.826 232.419-4.945 381.76-199.781 376.815-393.628 0-215.605-180-382.749-393.628-378.792-213.627 5.934-382.748 181.978-375.825 396.594zm97.912 1.978c-9.89-63.297 37.583-152.308 133.517-155.275 15.824 0 32.637 3.956 48.462 10.88 2.967 0 6.923.988 12.857 2.966 0-3.956 1.978-6.923 1.978-10.879-1.978-1.978-1.978-6.923-1.978-11.868-8.901-32.638-6.923-25.714 23.736-32.638 7.912-1.978 9.89 4.946 11.868 11.869 7.913 29.67 11.869 57.362 21.759 86.044 0 4.945 2.967 12.857 2.967 18.791 1.978 5.934-2.967 10.88-10.88 10.88-34.615 6.922-71.208 12.856-106.813 18.79-6.923 1.979-11.868-1.977-11.868-10.879-6.923-24.725-4.945-30.659 19.78-32.637 7.912-2.967 17.802-2.967 24.726-5.934 0 0 0-1.978 1.978-1.978-10.88-7.912-22.748-12.857-36.594-12.857-42.528 1.978-84.066 35.604-93.956 81.099-6.923 41.538 7.912 76.154 43.516 101.868 30.66 20.77 74.176 19.78 106.814 0 11.868-8.9 23.736-18.791 28.681-30.66 6.923-8.9 14.835-14.834 24.726-14.834 7.912 0 15.824-.99 22.747 1.978 8.901 0 10.88 1.978 6.923 7.912-21.758 38.571-49.45 75.165-97.912 89.011-80.11 21.758-165.166-34.615-177.034-121.649zm103.847-11.868c1.978-18.791 1.978-18.791 19.78-19.78 52.418-1.978 107.802-3.956 161.21-4.945 54.395-.99 108.79-1.978 164.176-.99 17.802 0 17.802 0 17.802 20.77v6.923c0 11.868-1.978 13.846-11.868 13.846h-9.89a356864.35 356864.35 0 0 0-315.496 5.934c-23.736 1.978-25.714 1.978-25.714-21.758zM505.44 457.97c2.967-2.968 2.967-8.902 4.945-10.88 13.847-17.802 24.726-38.571 39.56-54.395 40.55-42.528 98.902-56.374 153.298-33.627 52.418 18.791 88.022 68.242 90 125.605 3.956 88.022-80.11 161.21-171.1 143.407-4.944-2.967-6.922-2.967-12.856-2.967-2.967 0-2.967 2.967-5.934 2.967 2.967 7.912 5.934 17.802 7.912 24.725 7.912 16.814 5.934 18.792-9.89 25.715h-3.956c-15.825 5.934-19.78 5.934-23.737-7.912-9.89-31.649-24.725-63.297-34.615-92.968-4.945-13.846-1.978-16.813 9.89-18.791 29.67-11.868 63.297-22.747 94.945-31.648 12.857-3.957 14.835-1.979 20.77 11.868 0 1.978 0 3.956 1.978 5.934 4.945 14.835 1.978 18.791-12.858 23.736-9.89 1.978-20.769 4.945-33.626 10.88v2.966c5.934.99 7.912 2.967 12.857 2.967 56.374 9.89 99.89-21.758 112.748-65.275 15.824-46.483-4.945-98.901-47.473-118.681-46.484-21.759-100.88-6.923-126.594 33.626-21.758 29.67-14.835 23.737-52.418 24.726-6.923 0-8.9 0-13.846-1.978z" style="fill:#000;fill-opacity:1;fill-rule:nonzero;stroke:none;"/>
</svg>
