<svg xmlns="http://www.w3.org/2000/svg" width="1000" height="1000">
  <path d="M5 500.496c0 271.98 220.55 494.507 495.496 494.507 271.98 0 494.507-220.55 494.507-495.496C995.003 227.528 773.464 5 500.496 5 226.54 5 5 225.55 5 500.496zm130.55 154.286c5.934-70.22 45.495-247.253 87.033-432.199 9.89-73.187 73.187-113.737 142.418-101.868 133.517 28.681 266.045 52.417 398.573 83.077 78.132 18.791 112.748 78.132 97.912 156.264-23.736 132.528-54.395 265.056-83.077 403.518-14.835 79.121-80.11 116.704-158.242 97.912-121.649-25.714-245.276-53.406-367.913-79.12C185 767.53 135.55 717.09 135.55 654.781zm156.264-3.956c16.813-36.593 136.484-143.407 215.605-236.374 10.88-9.89 14.835-14.835 29.67-30.66L371.925 346.21c-21.758-4.945-25.714-10.88-21.758-25.714 14.835-73.188 6.923-68.242 74.176-53.407 89.011 18.791 172.089 38.571 256.155 53.407 20.77 1.978 33.626 19.78 22.747 30.659-74.176 77.143-176.044 180.99-215.605 220.55-10.88 9.89-13.846 14.835-17.802 22.747 28.681 10.88 52.417 15.825 72.198 21.759 29.67 4.945 59.34 14.835 89.011 19.78 19.78 3.956 23.736 14.835 19.78 29.67-15.824 72.199-10.879 59.341-74.176 48.462-72.198-11.868-248.242-47.472-284.836-63.297z" style="fill:#000;fill-opacity:1;fill-rule:nonzero;stroke:none;"/>
</svg>
