<svg xmlns="http://www.w3.org/2000/svg" width="1000" height="1000">
  <path d="M993.396 327.35v589.187c0 19.255-6.418 39.793-23.105 53.913-16.687 14.12-34.658 24.389-53.912 24.389H85.869c-16.687 0-30.807-3.851-44.927-14.12-12.836-10.27-23.105-19.255-28.24-34.658-5.134-15.404-8.985-29.524-5.134-47.495 3.85-15.403 8.985-25.672 21.821-38.509L723.834 164.33H162.887v163.02h187.41L5 671.364V86.028c0-24.39 7.702-41.077 24.39-59.047C43.51 11.577 64.046 5.159 85.87 5.159h830.509c15.403 0 29.523 5.134 44.927 12.836 12.836 6.418 20.538 21.822 28.24 37.225 6.418 12.837 6.418 29.524 3.85 46.211-2.567 14.12-10.269 28.24-20.538 38.51L277.13 835.667h559.663V671.364H651.951z" style="fill:#000;fill-opacity:1;fill-rule:nonzero;stroke:none;"/>
</svg>
