<svg width="1000" height="1000" viewBox="0 0 1000 1000" fill="none" xmlns="http://www.w3.org/2000/svg">
<path d="M289 2L87 204H251C273 124 359 17 385 2H289Z" fill="black"/>
<path d="M483 204V2H437C351.4 63.6 302.667 162.333 289 204H483Z" fill="black"/>
<path d="M522 204H718C672.4 95.2 598.333 24 567 2H522V204Z" fill="black"/>
<path d="M756 204H915L711 2H621C685.8 61.2 731 144 756 204Z" fill="black"/>
<path d="M713 1000L915 798L751 798C729 878 643 985 617 1000L713 1000Z" fill="black"/>
<path d="M519 798L519 1000L565 1000C650.6 938.4 699.333 839.667 713 798L519 798Z" fill="black"/>
<path d="M480 798L284 798C329.6 906.8 403.667 978 435 1000L480 1000L480 798Z" fill="black"/>
<path d="M246 798L87 798L291 1000L381 1000C316.2 940.8 271 858 246 798Z" fill="black"/>
<path d="M337.133 734L206.483 409H204.533L205.833 734H135.633V273.8H224.683L354.033 600.75H355.983L355.333 273.8H422.933V734H337.133Z" fill="black"/>
<path d="M712.142 734C687.009 734 664.259 728.8 643.892 718.4C623.959 707.566 606.842 692.183 592.542 672.25C578.242 651.883 567.192 627.4 559.392 598.8C552.026 569.766 548.342 537.05 548.342 500.65C548.342 465.116 552.242 432.616 560.042 403.15C567.842 373.683 578.892 348.55 593.192 327.75C607.926 306.95 625.476 290.916 645.842 279.65C666.642 267.95 689.609 262.1 714.742 262.1C739.876 262.1 762.626 267.95 782.992 279.65C803.359 290.916 820.692 306.95 834.992 327.75C849.292 348.55 860.342 373.466 868.142 402.5C875.942 431.1 879.842 462.733 879.842 497.4C879.842 515.6 878.109 533.583 874.642 551.35C871.609 569.116 867.059 585.583 860.992 600.75C855.359 615.916 848.642 629.133 840.842 640.4C833.476 651.666 825.676 660.116 817.442 665.75V668.35L899.342 667.05V734H712.142ZM799.892 500.65C799.892 477.683 797.942 456.233 794.042 436.3C790.576 416.366 785.159 399.25 777.792 384.95C770.426 370.216 761.326 358.733 750.492 350.5C740.092 341.833 728.176 337.5 714.742 337.5C700.876 337.5 688.526 341.833 677.692 350.5C667.292 358.733 658.409 370.216 651.042 384.95C643.676 399.25 638.042 416.366 634.142 436.3C630.676 456.233 628.942 477.683 628.942 500.65C628.942 523.616 630.892 545.066 634.792 565C638.692 584.933 644.326 602.266 651.692 617C659.059 631.3 667.942 642.783 678.342 651.45C689.176 659.683 701.526 663.8 715.392 663.8C729.259 663.8 741.392 659.466 751.792 650.8C762.626 641.7 771.509 629.783 778.442 615.05C785.809 599.883 791.226 582.55 794.692 563.05C798.159 543.116 799.892 522.316 799.892 500.65Z" fill="black"/>
</svg>
