<svg xmlns="http://www.w3.org/2000/svg" viewBox="0 0 1000 1000"><path d="M5 500.496c0 271.98 220.55 494.507 495.496 494.507 271.98 0 494.507-220.55 494.507-495.496C995.003 227.528 773.464 5 500.496 5 226.54 5 5 225.55 5 500.496zm126.594 4.945C253.243 381.814 374.89 258.188 500.496 137.528l364.946 364.946c-43.516 44.506-87.033 90.99-133.516 134.506-78.133-77.143-155.276-154.286-235.386-234.396-76.154 80.11-156.264 157.253-234.396 234.396-42.528-43.517-90-90-130.55-131.539zm175.055 175.056c-7.912-7.912-7.912-9.89 0-16.813C369.946 599.398 433.243 536.1 493.573 475.77c67.253 66.264 134.506 130.55 197.803 196.814-63.297 61.319-130.55 128.571-197.803 194.835-60.33-59.34-123.627-123.626-186.924-186.923z"/></svg>