<svg xmlns="http://www.w3.org/2000/svg" viewBox="0 0 1000 1000"><path d="M901.361,860.022c29.243,38.143,22.028,92.77-16.116,122.012-38.143,29.243-92.77,22.028-122.012-16.116l-23.092-30.121c-71.236,39.219-153.076,61.553-240.141,61.553-227.271,0-418.993-152.05-479.082-359.965,3.089,2.51,6.316,4.863,9.688,7.026,17.073,10.953,36.861,16.743,57.224,16.743,28.187,0,54.75-10.909,74.797-30.717,9.381-9.269,16.833-19.99,22.145-31.661,42.411,133.727,167.463,230.654,315.229,230.654,48.538,0,94.587-10.542,136.112-29.323l-33.321-43.463c-29.243-38.143-22.027-92.77,16.116-122.012,38.143-29.243,92.77-22.028,122.013,16.115l29.422,38.377c38.011-53.857,60.414-119.517,60.414-190.448,0-19.255-1.738-38.094-4.896-56.448-.098-1.529-.192-3.06-.192-4.614,0-47.775,38.73-86.505,86.505-86.505,32.895,0,61.419,18.395,76.019,45.436,6.862,32.969,10.486,67.125,10.486,102.131,0,125.535-46.401,240.223-122.968,327.884l25.654,33.462ZM87.829,641.154c47.367,0,85.79-38.084,86.444-85.296-3.241-18.585-5.028-37.669-5.028-57.182,0-182.67,148.084-330.754,330.754-330.754,146.665,0,270.995,95.476,314.32,227.655,16.337-37.882,54.045-64.468,97.85-64.468,23.935,0,46.646,8.036,64.944,22.168C914.882,148.794,724.829,0,500,0,224.589,0,1.325,223.265,1.325,498.675c0,32.029,3.056,63.339,8.826,93.688,14.001,28.85,43.452,48.791,77.679,48.791Z"/></svg>