<svg xmlns="http://www.w3.org/2000/svg" width="1000" height="1000">
  <path d="M562.777 995h-128.66c-57.323-16.56-117.194-29.299-173.244-57.324-123.564-64.966-206.365-171.97-240.76-308.273-10.19-35.668-8.916-36.942 24.204-49.68 95.54-35.669 188.531-72.61 284.07-109.552 21.656-7.644 33.12-6.37 42.038 19.107 8.917 16.56 22.93 30.573 36.942 44.586 10.19 10.19 10.19 16.56 1.273 28.024-2.547 6.37-7.643 14.013-10.19 20.382-22.93 56.05-59.872 103.183-127.386 113.373-1.274 0-3.822 1.274-10.191 6.37 6.37 7.643 10.19 15.286 16.56 22.93C384.437 833.22 570.42 844.684 687.615 749.144c29.299-24.203 57.324-33.12 94.266-33.12 52.228 3.822 104.456 1.274 165.601 1.274-20.382 31.846-35.668 61.145-56.05 85.348-80.253 104.457-184.709 168.15-315.916 189.805-5.096 1.274-8.917 2.548-12.739 2.548zM51.96 280.366c7.643-11.465 10.191-19.108 15.287-28.025C170.429 86.74 318.197.117 516.918 5.213 739.843 9.034 939.84 177.183 983.15 396.287c6.37 24.203 0 35.668-21.655 42.037-112.1 39.49-221.652 81.527-329.93 123.564-8.916 2.548-15.286 7.644-21.655 6.37-6.37-2.548-16.56-8.917-21.656-14.013-1.273-3.821 2.548-14.012 6.37-17.834 48.406-45.859 64.966-100.635 45.859-163.054-3.822-19.107 2.547-22.929 15.286-26.75 28.025-10.191 56.05-21.656 89.17-34.395-19.108-33.12-45.859-57.323-75.158-73.883-121.016-76.432-272.605-64.967-382.157 28.024-11.465 10.191-28.025 17.834-44.585 17.834H86.354c-10.19 0-19.107-3.821-34.394-3.821zM384.437 681.63c28.025-50.954 57.324-99.36 86.622-151.589-49.68-24.203-77.705-57.324-77.705-109.552 0-52.228 36.942-95.54 86.622-105.73 52.229-10.19 103.183 19.108 123.565 67.514 19.108 45.86 2.547 101.91-38.216 129.934-33.12 21.656-33.12 21.656-11.465 53.502 16.56 31.846 36.942 64.967 56.05 98.087 5.095 10.19 8.917 24.203-10.19 24.203H394.627c-1.274 0-3.822-2.547-10.19-6.369z" style="fill:#000;fill-opacity:1;fill-rule:nonzero;stroke:none;"/>
</svg>
