<svg xmlns="http://www.w3.org/2000/svg" viewBox="0 0 1000 1000"><path d="M962.822 265.29H826.503c8.087-41.589 13.863-76.246 21.95-113.214 5.776-20.795-3.466-25.416-21.95-25.416H698.271c-24.26 0-34.657 10.397-39.278 31.192-5.777 41.589-13.863 79.712-23.105 117.835-8.087 48.52-19.64 94.73-27.726 144.406H424.477c2.31-13.863 5.777-25.415 5.777-35.813 15.018-76.246 28.88-152.492 45.054-228.739 5.777-24.26-2.31-32.346-24.26-28.88H326.281c-25.415-3.466-35.812 10.396-41.588 31.19-4.621 31.193-10.398 58.919-16.174 87.8-2.31 16.173-8.087 19.639-23.105 19.639H129.89c-24.26 0-36.967 10.397-42.744 34.657a1237.408 1237.408 0 0 0-17.328 90.11c-5.777 33.502-5.777 33.502 27.725 33.502h135.164c-6.931 47.365-16.173 94.73-26.57 137.474 0 4.621-13.863 13.863-21.95 13.863-38.123 3.466-78.557 3.466-116.68 0-25.415 0-38.123 11.553-40.434 35.813-5.776 30.036-10.397 60.073-18.484 86.643C1.657 732.01 1.657 732.01 37.47 732.01h136.319c-4.621 36.968-13.863 69.314-19.64 102.817-8.086 39.278-8.086 39.278 33.503 39.278h97.04c49.676 0 51.987-2.31 60.073-48.52 13.863-76.247 30.037-152.493 43.9-226.429 2.31-6.931 10.397-18.484 12.707-18.484 57.763-2.31 115.525-2.31 175.598-2.31-3.466 10.397-3.466 16.173-3.466 24.26-16.173 82.023-33.502 162.89-48.52 244.912-3.466 18.484 0 26.571 20.794 26.571h131.698c20.795 0 32.347-10.397 36.968-32.347l17.33-90.11c3.465-12.707 8.086-19.638 24.26-19.638h120.145c21.95 0 34.657-6.932 38.123-28.881 5.776-32.347 10.397-62.384 16.174-92.42 8.086-32.347 4.62-32.347-24.26-32.347h-138.63c6.931-46.21 15.018-90.11 23.105-132.854 2.31-17.328 10.397-21.95 28.88-21.95 34.658 2.311 69.316 0 105.128 0 38.123 0 43.9-3.465 51.986-42.743 5.777-25.416 10.398-54.297 16.174-80.868 4.62-32.347 4.62-34.657-30.037-34.657z"/></svg>