<svg xmlns="http://www.w3.org/2000/svg" viewBox="0 0 1000 1000"><path d="m219.52 348.47-34.465-188.968C169.605 79.874 231.405 5 312.222 5c72.497 0 130.733 59.424 130.733 130.733v159.256c16.639 0 36.843-2.377 54.67-2.377 19.016 0 34.466 0 53.482 2.377V135.733C551.107 64.424 608.154 5 680.65 5c79.628 0 141.43 74.874 129.544 154.502L775.73 348.471c121.225 52.293 213.927 144.994 213.927 259.088v71.31c0 96.266-61.801 175.894-152.126 229.376-89.136 54.67-206.795 86.759-339.905 86.759-133.11 0-249.58-32.089-339.905-86.76-85.57-53.48-147.372-133.109-147.372-229.376V607.56c0-114.094 89.136-206.795 209.173-259.088zM49.569 682.435c0 152.125 202.042 274.539 448.057 274.539 248.392 0 449.246-122.414 449.246-274.54v-71.308c2.377-101.021-84.383-187.78-217.492-238.885l40.408-222.245c10.696-55.859-30.9-108.152-89.136-108.152-49.916 0-89.136 40.408-89.136 90.324v203.23c-13.073-2.377-28.524-2.377-40.408-2.377-19.016 0-34.466-3.565-53.482-3.565-17.827 0-38.031 0-54.67 3.565-13.073 0-28.524 2.377-41.597 2.377V135.733c0-49.916-39.22-91.513-89.136-91.513-55.858 0-98.644 53.481-86.759 109.34l41.597 223.434C135.139 425.722 49.568 511.292 49.568 611.124zm225.811-93.89c0-39.22 21.393-73.686 49.916-73.686 27.336 0 48.728 34.466 48.728 73.686 0 41.596-21.392 73.685-48.728 73.685-28.523 0-49.916-32.089-49.916-73.685zm343.471 0c0-39.22 21.393-73.686 48.728-73.686 28.523 0 49.916 34.466 49.916 73.686 0 41.596-21.393 73.685-49.916 73.685-27.335 0-48.728-32.089-48.728-73.685z"/></svg>