<svg xmlns="http://www.w3.org/2000/svg" viewBox="0 0 1000 1000"><path d="M5 500.496c0 271.98 220.55 494.507 495.496 494.507 271.98 0 494.507-220.55 494.507-495.496C995.003 227.528 773.464 5 500.496 5 226.54 5 5 225.55 5 500.496zm172.088 74.176c-13.846-77.143-7.912-156.264 29.67-223.517 44.507-82.088 111.76-126.594 199.782-148.352 44.505-4.945 58.352-1.978 59.34-29.67 0-15.825.99-23.737 0-43.517 0-15.824 3.957-23.737 31.65-23.737 29.67.99 34.615 7.913 36.593 45.495 0 43.517-7.912 36.594 36.593 36.594 67.253 0 124.616 14.835 192.858 36.593 13.846 8.901 13.846 14.835 13.846 30.66-5.934 29.67-5.934 65.275-13.846 103.846 0 13.846-7.912 13.846-21.758 13.846-7.912 0-21.759 0-21.759-13.846-1.978-9.89 0-7.912 0-15.824 5.934-35.605-16.813-66.264-52.417-82.088-37.583-13.847-75.166-21.759-119.671-21.759-13.846 0-21.758 7.912-21.758 21.759 7.912 82.088 7.912 157.253 7.912 236.374v237.364c0 24.725 0 24.725 21.758 24.725 29.67 0 60.33-7.912 88.022-15.824 14.835-3.956 15.824-13.847 15.824-21.759v-95.934c0-15.824-7.912-18.791-21.758-21.758-21.758-7.912-45.495-7.912-60.33-7.912-15.824 0-15.824-15.825-15.824-21.759 0-16.813 0-24.725 15.824-24.725 38.572 7.912 66.264 7.912 103.847 7.912 38.571 0 82.088 0 119.67-7.912 13.847 0 21.759 0 21.759 16.813 0 15.824 0 21.758-14.835 21.758-14.836 0-22.748 21.759-22.748 37.583v108.792c0 16.813 0 24.725-13.846 30.659-76.154 23.736-150.33 45.495-223.517 45.495-13.846 0-15.824 6.923-13.846 14.835v43.516c0 15.825-7.912 23.737-23.737 23.737-44.505 0-35.604 0-44.505-45.495 0-36.593 0-36.593-35.605-43.516-127.583-21.759-223.517-104.836-253.188-229.452zm133.517-24.725c13.847 82.088 59.341 149.341 133.517 193.847 8.901 4.945 13.847 4.945 21.759 7.912V255.22C391.705 275 356.1 302.693 324.45 380.825c-21.758 59.341-21.758 111.759-13.846 169.122z"/></svg>