<svg xmlns="http://www.w3.org/2000/svg" width="1000" height="1000">
  <path d="M950.214 799.563c12.797 15.996 26.66 34.125 44.79 55.453h-78.915c-13.863 0-26.66 5.332-40.523 12.797-60.785 35.192-125.836 35.192-191.953 0-13.863-7.465-31.992-12.797-50.121-12.797H339.164c-13.864 0-26.66 5.332-39.457 12.797-66.118 35.192-132.235 35.192-203.684-5.332-8.531-2.133-15.996-2.133-28.793-2.133-13.863-5.332-33.059-5.332-54.387-5.332 12.797-13.863 21.328-26.66 26.66-39.457-75.714-118.37-18.128-246.34 88.512-291.128 0-15.997 5.332-28.793 0-42.657 0-31.992 5.332-62.918 34.125-71.449 12.797-39.457 18.13-78.914 31.992-113.039 47.989-124.77 148.23-190.887 280.465-190.887 75.715-4.265 150.363 13.864 211.149 57.586 71.449 47.988 124.77 108.774 142.898 194.086 0 3.2 3.2 7.465 0 12.797 0 30.926 20.262 44.79 39.457 66.117 3.2 5.332 12.797 5.332 17.063 5.332v79.98c-4.266 2.134-13.864 2.134-22.395 7.466 105.574 66.117 138.633 153.562 87.445 269.8zm-902.18-98.11c-4.265 71.45 58.653 139.7 140.766 134.368 66.118 0 140.766-46.922 140.766-138.633 4.266-79.98-53.32-140.765-133.3-140.765-94.911 0-152.497 77.847-148.231 145.03zm114.106-53.32c0-23.46 12.797-38.39 34.125-38.39 24.528 0 39.457 14.93 39.457 38.39 0 15.997-14.93 39.458-39.457 39.458-15.996 0-34.125-17.063-34.125-39.457zm0-139.699c5.332 0 5.332 2.133 5.332 2.133 39.457-2.133 74.649 0 108.774 13.864h407.367c12.797 0 20.262-2.133 34.125-2.133 31.992-13.864 66.117-13.864 100.242-11.73 5.332 5.331 10.664 0 18.129 0v-55.454c-4.266-9.598-7.465-12.797-18.129-12.797-12.797-5.332-20.262 0-29.86 0-4.265-31.992-4.265-53.32-12.796-81.047-23.461-109.84-84.246-183.421-198.352-210.082-57.586-19.195-118.37-19.195-177.023-5.332-57.586 12.797-105.574 44.79-137.567 92.778-28.793 39.457-46.922 83.18-55.453 132.234-5.332 21.328-10.664 44.79-12.797 66.117-34.125 5.332-39.457 12.797-31.992 71.45zm167.426 50.122c12.797 12.796 22.394 24.527 36.258 37.324 82.113-24.528 167.426-19.196 250.605 0 8.531-12.797 17.063-24.528 29.86-37.324zm68.25-166.36c12.797 0 14.93-3.2 14.93-8.531V278.09c-2.133-5.332-7.465-5.332-12.797-7.465v-26.66c12.797 0 27.726-1.067 39.457-1.067 3.199-1.066 6.398-18.129 8.531-25.593h23.461c0 7.464 0 14.93 3.2 21.328h5.331c2.133-5.332 3.2-9.598 5.332-21.328h21.328c0 7.464 4.266 15.996 4.266 26.66 15.996 2.132 37.324 11.73 39.457 34.125 1.066 25.593-7.465 34.125-23.46 47.988 19.194 8.531 31.991 26.66 26.66 50.121-3.2 20.262-24.528 42.656-42.657 42.656-4.266 9.598-4.266 12.797-4.266 26.66h-21.328c0-8.53-2.133-17.062-5.332-26.66h-5.332c-3.199 9.598-3.199 18.13-3.199 26.66h-23.461c-2.133-8.53-1.066-26.66-8.531-26.66-12.797 0-26.66-3.199-39.457-3.199 0-9.598-2.133-13.863-2.133-23.46zm62.918-8.531h31.992C505.523 384.73 506.59 373 506.59 361.27c0-12.797-6.398-17.062-19.195-17.062h-26.66zm0-71.45c22.394 0 42.656 0 42.656-12.796 1.067-20.262-12.797-23.461-42.656-21.328zM646.289 690.79c0 82.113 66.117 145.031 145.03 145.031 79.981 0 142.9-62.918 137.567-129.035 5.332-76.781-57.586-150.363-150.363-155.695-68.25 0-132.234 66.117-132.234 139.699zm98.109-42.656c0-25.594 12.797-38.391 34.125-38.391 23.46 0 39.457 14.93 39.457 38.39-3.2 22.395-20.262 39.458-39.457 39.458-21.328 0-34.125-17.063-34.125-39.457z" style="fill:#000;fill-opacity:1;fill-rule:nonzero;stroke:none;"/>
</svg>
