<svg xmlns="http://www.w3.org/2000/svg" width="1000" height="1000">
  <path d="M5 235.574V29.909h109.858v75.368h65.148V24.799h109.858v80.478h63.871V24.799h109.858v210.775h-77.922v173.729h49.82c5.109 0 10.219-2.555 14.05-7.665 47.265-54.929 93.253-107.303 141.795-166.064h-70.259V24.799H995v210.775h-60.038c-7.665 0-16.607 3.832-19.162 6.387-71.535 89.42-146.903 171.174-218.439 255.484V500c29.381 34.49 56.207 71.535 86.865 103.47 40.877 47.265 81.755 99.64 123.91 145.627 10.22 12.774 19.161 16.606 34.49 16.606H995V975.2H521.077V769.535h70.259c-14.052-15.329-20.44-28.103-29.381-39.6-35.768-39.6-65.149-75.367-98.362-113.69-14.051-17.884-28.103-25.548-47.264-25.548-10.22 5.11-19.161 5.11-30.658 5.11v169.896h77.922V975.2H5V765.703h83.032c16.606 0 16.606-3.832 16.606-20.439V256.012c0-16.606-2.554-20.438-19.16-20.438z" style="fill:#000;fill-opacity:1;fill-rule:nonzero;stroke:none;"/>
</svg>
