<svg xmlns="http://www.w3.org/2000/svg" viewBox="0 0 1000 1000"><path d="M200.602 804.207c53.687-29.284 96.393-54.907 139.099-80.53 7.32-3.661 10.981-19.523 10.981-29.285v-445.36c0-40.265 13.422-67.108 43.926-74.43 20.743-3.66 46.366-3.66 62.228 7.322 148.86 84.19 296.5 168.382 441.7 255.014 54.907 31.724 54.907 93.952 0 125.677C656.942 704.154 415.35 843.252 173.757 981.13c-58.567 34.164-113.475 2.44-113.475-64.669V80.65C60.283 34.284 89.567 5 132.273 5c41.485 0 68.329 29.284 68.329 75.65v682.071zm290.399-167.162c80.53-47.587 157.4-91.513 240.372-139.1-84.191-47.585-159.841-90.291-240.372-136.657z"/></svg>