<svg xmlns="http://www.w3.org/2000/svg" width="1000" height="1000">
  <path d="M333.12 631.717V144.434c0-29.384 20.813-56.319 50.197-68.562 26.935-9.795 63.665 0 79.581 26.935 12.244 14.692 17.14 33.057 17.14 50.198v484.833c0 41.627-29.383 72.236-69.786 78.357-31.832 2.449-64.89-22.038-74.684-56.319-2.448-9.794-2.448-18.365-2.448-28.16zM5 803.123c231.398 219.154 569.312 211.808 784.794 15.916C903.656 714.97 967.32 583.968 977.116 428.479c9.795-154.266-40.403-290.166-139.573-410.15 90.6 84.478 181.2 264.454 151.816 462.795-35.505 237.52-171.406 401.58-400.355 473.815C358.83 1027.175 137.227 945.145 5 803.123zM85.805 641.51V527.65c0-39.179 29.384-72.236 68.563-72.236 40.403-3.673 74.684 25.711 74.684 62.441 4.897 45.3 4.897 86.927 4.897 132.228-4.897 41.627-39.178 68.562-82.03 66.113-36.73-2.448-66.114-31.832-66.114-74.684zm493.404-198.34v-181.2c0-45.3 33.057-77.133 74.684-77.133 39.179 0 72.236 31.833 72.236 77.133v181.2c0 41.627-33.057 77.133-72.236 77.133-41.627-2.449-74.684-35.506-74.684-77.133z" style="fill:#000;fill-opacity:1;fill-rule:nonzero;stroke:none;"/>
</svg>
