<svg xmlns="http://www.w3.org/2000/svg" width="1000" height="1000">
  <path d="M23.048 364.939c118.284-58.506 377.746-3.816 478.223 244.199 8.903-25.438 16.535-45.787 24.166-66.137 33.068-91.575 63.593-184.421 100.477-273.452 31.797-78.856 78.856-148.809 148.81-200.956C835.772 22.806 903.181 6.272 976.95 5c-6.36 35.612-11.447 67.41-17.806 101.75-10.175 45.787-16.534 91.574-30.525 136.09-20.35 71.224-72.496 115.74-136.09 147.536-48.33 24.166-99.206 38.156-155.168 31.797-5.087 0-13.99 6.36-19.078 11.447-29.253 39.428-45.787 86.487-57.234 134.818-19.078 72.497-19.078 148.809-13.99 222.577 2.543 39.428 11.446 77.584 17.806 115.74 7.63 38.156 0 63.594-30.525 80.128-21.622 11.447-45.787 10.175-67.41 0-24.165-11.447-35.612-29.253-31.796-55.962 5.088-39.428 12.719-78.856 16.534-118.284 5.088-58.506 10.175-118.284 8.903-175.518-1.271-61.05-29.253-110.653-77.584-147.537-8.903 12.719-16.534 25.438-27.98 35.612-45.788 49.603-120.828 53.419-178.062 7.632-24.166-17.806-43.244-41.972-64.866-64.866-29.253-34.34-57.234-68.68-89.03-103.021z" style="fill:#000;fill-opacity:1;fill-rule:nonzero;stroke:none;"/>
</svg>
