<svg xmlns="http://www.w3.org/2000/svg" width="1000" height="1000">
  <path d="M502.546 5c99.919 57.27 201.056 113.322 299.756 171.811 35.337 18.278 69.456 38.993 102.356 58.489 14.622 7.311 14.622 21.933-2.437 32.9-108.449 62.144-216.897 124.289-327.782 190.089-2.437 1.218-7.311 3.655-10.967 6.092-9.748-15.84-24.37-23.151-43.866-25.588-2.437-1.219-3.656-6.093-3.656-8.53v-98.7c7.311-1.219 13.404-3.656 20.715-7.311 29.244-12.185 49.96-47.522 45.085-79.204-4.874-37.774-31.681-65.8-68.237-71.892-32.9-4.875-69.455 13.403-84.078 42.648-21.933 46.303-1.218 96.263 47.523 112.103 8.53 2.437 10.966 6.093 10.966 14.623v86.514c0 6.093-2.437 8.53-8.53 9.749-12.185 1.218-26.807 7.31-40.21 23.151-13.404-6.092-26.808-15.84-42.649-24.37-98.7-57.27-198.618-113.322-296.1-169.374-15.84-8.53-15.84-25.589 0-32.9 92.608-53.615 183.997-107.23 276.604-159.626C418.47 50.085 458.68 28.152 500.11 5zM66.316 754.389c-4.873-9.748-2.436-355.808 2.438-436.23 0-24.37 9.748-30.463 32.9-19.496 71.892 43.867 147.44 86.515 221.77 127.944 32.9 18.278 63.363 37.774 95.045 54.834 6.092 3.655 6.092 6.092 6.092 15.84-2.437 10.967-2.437 24.37 0 36.556 0 6.093 0 10.967-6.092 13.404-28.026 14.622-56.052 30.463-84.078 48.74-4.874-7.31-8.53-12.185-15.84-15.84-20.716-19.497-59.708-23.152-87.734-9.748-30.463 15.84-49.96 48.74-43.867 84.077 6.093 36.556 37.774 63.363 74.33 67.019 43.866 2.437 76.766-28.026 85.296-62.145 2.437-9.748 2.437-20.714 2.437-30.463 0-6.092 0-8.53 2.437-9.748 25.59-15.84 54.834-32.9 80.422-46.303 7.312-3.656 9.749-3.656 12.186 0 10.966 7.31 24.37 14.622 35.337 19.496 6.092 3.655 8.53 4.874 8.53 10.967v366.774c0 13.403-10.967 28.026-23.153 21.933 0 0-86.514-52.396-124.288-73.111-77.986-45.085-157.19-90.17-232.738-134.037-14.622-8.53-29.244-18.278-41.43-30.463zM515.95 963.974V605.73c0-8.53 1.219-9.749 8.53-13.404 14.622-6.093 23.152-10.967 34.118-17.06 4.874-6.092 7.311-6.092 13.404-2.436 25.589 13.403 49.96 30.463 76.767 43.866 6.092 3.656 7.31 6.093 7.31 14.623-3.655 43.866 20.716 80.422 64.582 88.951 30.463 6.093 58.49-4.874 77.986-29.244 19.496-25.589 23.151-59.707 8.53-84.078-13.405-29.244-36.556-42.648-67.02-45.085-25.588-1.219-47.522 7.311-63.362 26.807-6.093 7.311-9.748 6.093-14.623 1.219-25.588-13.404-51.177-28.026-75.548-42.648-6.092-2.437-9.748-7.311-6.092-13.404 3.655-15.84 1.218-31.681-4.874-46.304 24.37-13.403 46.303-28.026 69.455-41.43 141.348-77.985 219.334-124.288 264.419-151.096 12.185-4.874 26.807-1.218 26.807 15.841v433.793c0 12.185-3.655 20.715-17.06 25.589-67.018 38.992-132.818 76.766-202.273 115.759C658.516 921.326 597.59 956.663 539.102 992c-19.496 8.53-23.152-1.219-23.152-28.026z" style="fill:#000;fill-opacity:1;fill-rule:nonzero;stroke:none;"/>
</svg>
