<svg xmlns="http://www.w3.org/2000/svg" viewBox="0 0 1000 1000"><path d="M500,5C226.62,5,5,226.62,5,500S226.62,995,500,995,995,773.38,995,500,773.38,5,500,5ZM346.73,140H416c-18.76,10.82-80.8,88-96.67,145.73H201ZM329.36,463.14a33.1,33.1,0,0,1,13.13-7,59.387,59.387,0,0,1,15.95-2.35,77.561,77.561,0,0,1,31.42,6.57,67.4,67.4,0,0,1,26.73,19.22q11.72,12.671,18.28,32.83,7,20.171,7,47.83,0,26.73-7.51,48.3a110.172,110.172,0,0,1-20.63,36.11,90.569,90.569,0,0,1-31.42,22.51,104,104,0,0,1-39.86,7.5,105.372,105.372,0,0,1-40.33-7.5,90.763,90.763,0,0,1-31.42-22.51q-13.129-14.53-20.63-35.64-7-21.1-7-47.36a175.512,175.512,0,0,1,7-50.65,284.43,284.43,0,0,1,19.23-46.42L335,336.06h61.42L328.89,462.67ZM348.17,860,201,714.27H315.71C333.74,757.55,366.36,817.29,413.1,860Zm136.36,0H452.06c-22.6-15.87-76.06-67.24-108.94-145.73H484.53Zm2.16-574.27h-140c9.86-30.06,45-101.29,106.78-145.73h33.22ZM514.83,140h32.46c22.61,15.87,76.04,67.24,108.94,145.73H514.83ZM689.47,336.1h48.77v332h-61.9L582.08,433.63l-1.38-.01.94,234.47H531v-332h64.21L688.53,572h1.41ZM545.85,860H512.66V714.27H652.62C642.76,744.33,607.6,815.56,545.85,860Zm106.77,0H583.36c18.76-10.82,80.81-88,96.64-145.73H798.35Zm31.03-574.27c-18-43.28-50.65-103-97.4-145.73h64.93L798.35,285.73ZM324.16,498.36a36.139,36.139,0,0,1,19.23-5.16q22.52-.019,33.76,18.74h0q11.27,18.769,11.26,47.83,0,30.48-12.19,49.71-11.73,18.75-33.3,18.76T309.16,610Q297,591.19,297,560.71A102.6,102.6,0,0,1,300.25,534a68.553,68.553,0,0,1,9.38-21.1A46.128,46.128,0,0,1,324.16,498.36Z"/></svg>