<svg xmlns="http://www.w3.org/2000/svg" width="1000" height="1000">
  <path d="M500.496 5C223.572 5 5 229.506 5 500.002c0 276.43 224.506 495.001 495.002 495.001 276.43 0 495.001-224.506 495.001-495.001C995.003 226.539 773.464 5 500.496 5zM205.77 751.706c-.99-63.297-.99-63.297 60.33-85.055 21.758-7.913 46.483-19.78 79.12-32.638-32.637-15.824-57.362-28.681-82.087-40.55-65.275-33.626-70.22-49.45-47.473-131.538 33.627 14.835 66.264 29.67 108.792 46.483-21.759-56.374-38.572-106.813-57.363-156.264-12.857-35.605-27.693-72.198-40.55-107.803-4.945-12.857-.989-25.714-4.945-38.571h97.913c16.813 42.527 33.626 87.033 51.428 129.56h11.868c17.803-42.527 38.572-87.033 57.363-129.56h103.847c-5.934 17.802-8.901 38.571-15.824 57.363-8.902 16.813-17.803 35.604-30.66 63.297 89.011-35.605 169.122-65.275 250.22-92.968 16.814-7.912 39.561-34.615 56.375 0 17.802 35.605 1.978 86.045-27.693 96.924-28.681 12.857-61.319 25.714-92.967 36.593-1.978 1.978-1.978 5.934-5.934 12.857 29.67 14.836 61.319 30.66 90.99 47.473 35.604 17.802 54.395 70.22 35.604 102.858-4.946 7.912-23.737 10.879-32.638 7.912-23.736-7.912-48.462-20.77-82.088-36.594 6.923 24.726 12.857 42.528 17.802 57.363 23.736 66.264 51.429 135.495 77.143 202.748 12.857 37.582 8.901 42.528-32.637 45.495-41.539 4.945-72.198-6.924-83.077-53.407-4.945-27.693-20.77-54.396-33.627-87.033-19.78 42.527-36.593 75.165-55.385 108.791-14.835 29.67-84.066 45.495-105.824 24.725-4.945-5.934-4.945-21.758-1.978-31.648 9.89-22.747 20.77-44.506 33.626-76.154-17.802 3.956-25.714 4.945-35.604 6.923-72.198 28.681-145.385 56.374-217.583 82.088-39.561 14.835-46.484 10.88-46.484-29.67zm222.528-264.067c2.967 40.55 33.627 92.967 58.352 92.967 36.594 0 94.945-34.615 94.945-58.352 0-36.593-37.582-93.956-59.34-93.956-40.55 1.978-94.946 35.605-93.957 59.341z" style="fill:#000;fill-opacity:1;fill-rule:nonzero;stroke:none;"/>
</svg>
