<svg xmlns="http://www.w3.org/2000/svg" viewBox="0 0 1000 1000"><path d="M8.161 664.145c-16.251-42.66 32.504-109.698 92.431-91.415 32.504 11.173 48.755 41.645 45.708 78.21-2.031 31.488-27.425 56.881-59.928 61.96-34.534 5.079-67.038-16.252-78.21-48.755zm147.28-126.966c-26.408-44.691-1.015-103.604 59.928-109.698 58.913 0 69.07-8.126 69.07-62.975 0-44.692 32.503-78.21 74.148-78.21 41.644 0 71.1 32.502 71.1 76.179 0 49.77 13.205 67.038 72.117 67.038 36.566 2.031 66.022 27.424 69.07 61.959 4.062 39.613-18.284 69.07-55.866 78.21-34.534 7.11-71.1-13.204-82.273-47.738-6.095-15.236-4.063-37.582-7.11-50.787-7.11-36.566-31.488-41.644-69.07-41.644-50.786-2.032-67.038 16.251-69.07 69.069 0 69.07-87.351 100.557-132.043 38.597zm417.464 126.966c-11.173-38.597 9.141-80.242 48.755-89.384 26.409-7.11 43.676-6.094 56.88-9.141 31.488-6.095 32.504-31.488 32.504-67.038 2.031-39.613 32.503-67.038 72.116-69.07 56.88 0 69.07-7.11 69.07-72.116 2.03-36.566 31.487-69.07 69.069-71.1 36.566 0 67.038 23.36 73.132 59.927 5.079 44.692-24.377 81.258-69.07 83.29-13.204 0-25.392 0-38.597 4.062-29.456 6.095-32.503 32.504-32.503 65.007-2.032 51.802-38.598 66.022-94.463 74.148-32.503 6.094-48.754 24.377-48.754 69.07 0 36.565-23.362 63.99-57.897 71.1-36.566 5.079-69.07-14.22-80.242-48.755z"/></svg>