<svg xmlns="http://www.w3.org/2000/svg" viewBox="0 0 1000 1000"><path d="M500.5,5C223.572,5,5,229.506,5,500c0,276.43,224.506,495,495,495,276.43,0,495-224.506,495-495C995,226.539,773.464,5,500.5,5Zm-362.7,625.717a42.773,42.773,0,0,0,21.476,21.192,72,72,0,0,0,30.517,6.783,85.17,85.17,0,0,0,27.127-4.522,45.207,45.207,0,0,0,30.518-41.82h69.513a113.451,113.451,0,0,1-9.608,45.776A94.884,94.884,0,0,1,278.8,695.143a108.578,108.578,0,0,1-42.1,20.628,197.636,197.636,0,0,1-46.907,5.651,204.484,204.484,0,0,1-40.125-3.956,113.55,113.55,0,0,1-37.017-14.411,102.156,102.156,0,0,1-29.387-26.844A99.357,99.357,0,0,1,66.3,640.042a166.872,166.872,0,0,1-4.8-39.56V417.94A165.754,165.754,0,0,1,66.3,378.1a99.67,99.67,0,0,1,16.954-35.887,102.4,102.4,0,0,1,29.387-26.844,113.976,113.976,0,0,1,37.017-14.411A204.56,204.56,0,0,1,189.787,297a197.636,197.636,0,0,1,46.907,5.651,108.83,108.83,0,0,1,42.1,20.628A94.949,94.949,0,0,1,307.337,360.3a113.456,113.456,0,0,1,9.608,45.777H247.432a42.56,42.56,0,0,0-8.477-25.715,43.966,43.966,0,0,0-22.041-16.106,85.42,85.42,0,0,0-27.127-4.521,74.739,74.739,0,0,0-30.517,6.5,41.386,41.386,0,0,0-21.476,21.193,72.073,72.073,0,0,0-6.781,30.517V600.482A70.17,70.17,0,0,0,137.794,630.717ZM626.868,716.9H557.356V536.055H446.589V716.9H377.076V301.521h69.513V472.759H557.356V301.521h69.512Zm255.26-251.489v62.731H758.361V716.9H688.284V301.521H919.426v62.731H758.361v101.16Z"/></svg>