<svg xmlns="http://www.w3.org/2000/svg" width="1000" height="1000">
  <path d="M500.496 5C223.572 5 5 229.506 5 500.002c0 276.43 224.506 495.001 495.002 495.001 276.43 0 495.001-224.506 495.001-495.001C995.003 226.539 773.464 5 500.496 5zM228.517 781.376v-46.483c0-8.902 4.945-13.847 14.835-13.847h401.54c41.539 0 81.1-28.681 89.012-72.198 4.945-33.626-4.946-63.297-28.682-87.033-12.857-12.857-29.67-19.78-47.473-19.78-32.637 0-65.274 0-98.901 1.978-7.912 0-12.857-4.945-12.857-13.846v-46.484c0-9.89 2.967-15.824 12.857-15.824h96.923c25.715 0 45.495-9.89 61.32-32.638 8.9-11.868 14.835-27.692 16.813-44.505 2.967-23.737-1.978-47.473-16.814-65.275-15.824-18.792-35.604-29.67-59.34-33.627-5.935-2.967-10.88-2.967-14.836-2.967H243.352c-9.89 0-12.857-4.945-12.857-8.901-1.978-.99-1.978-2.967-1.978-2.967v-48.462c0-9.89 4.945-12.857 14.835-12.857H646.87c37.583 0 72.198 12.857 102.858 36.594 30.66 24.725 51.429 57.362 57.363 96.923 2.967 15.824 2.967 31.648 1.978 48.462-2.967 32.637-14.836 61.319-33.627 87.033-5.934 6.923-11.868 12.857-18.791 17.802 0 .99 0 .99-1.978.99 5.934 6.922 8.901 9.89 12.857 15.823 22.747 22.748 34.616 51.43 39.56 84.067 1.979 11.868 2.968 23.736 2.968 36.593-2.967 37.583-15.825 72.198-40.55 100.88-20.77 24.725-50.44 40.55-83.077 50.44-7.912.988-18.791 2.966-28.682 2.966-9.89 1.978-17.802 1.978-24.725 1.978H244.341c-10.879 0-15.824-4.945-15.824-14.835zm0-125.605v-299.67c0-8.902 4.945-13.847 14.835-13.847h401.54c15.824 0 36.594 10.879 37.583 32.637 3.956 20.77-10.88 36.594-28.682 41.539H309.616c-5.934 0-5.934 0-5.934 4.945v43.517c0 .989 1.978 2.967 4.945 2.967h172.089c7.912 0 10.879 4.945 12.857 8.9v53.408c0 8.9-4.945 11.868-12.857 11.868h-171.1c-5.934 0-5.934 0-5.934 4.945v43.516c0 4.946 1.978 4.946 4.945 4.946h336.265c18.792 0 34.616 11.868 37.583 27.692 4.945 19.78-8.901 43.517-30.66 45.495-.989 0-4.945.989-6.923.989h-401.54c-9.89 0-14.835-5.935-14.835-13.847z" style="fill:#000;fill-opacity:1;fill-rule:nonzero;stroke:none;"/>
</svg>
