<svg xmlns="http://www.w3.org/2000/svg" viewBox="0 0 1000 1000"><path d="M649.843,694.913l-101.719,92.689V479.483h120.392l-18.674,215.431Zm-194.205,96.101V479.483h-124.136l18.64,215.431,105.496,96.101ZM1000,500c0,276.142-223.857,500-500,500S0,776.142,0,500,223.857,0,500,0s500,223.857,500,500Zm-268.258-92.529H268.792v.018l2.422,35.208,9.245,100.288,.387,4.532,.017-.074,16.766,181.89,202.006,177.266,.364-2.036,.364,2.036,202.041-177.266,26.4-286.653,2.33-33.465,.606-1.744Zm22.822-218.238l-83.57,.455-13.868,69.154h-99.755l-13.833-69.15h-83.461l-13.837,69.15h-87.714l-13.852-69.15h-99.239l17.965,182.571h473.074l18.09-183.03Z"/></svg>