<svg xmlns="http://www.w3.org/2000/svg" width="1000" height="1000">
  <path d="M239.637 665.687c84.387 16.465 167.745 31.902 252.132 49.397-28.815 32.931-57.63 64.834-85.416 96.736 3.087 3.088 6.174 5.146 11.32 8.233 27.786-31.902 56.601-63.805 86.445-95.707 26.757 33.96 56.601 66.892 86.445 99.824 3.088-5.146 7.204-7.204 10.291-10.292-30.873-33.96-59.688-66.892-90.561-101.881 23.67-4.117 46.31-7.204 67.921-12.35 21.611-4.116 43.223-9.262 65.863-12.349 21.611-5.146 43.223-10.291 64.834-13.378 22.64-4.117 44.252-8.233 66.892-13.379-1.029 4.117-2.058 4.117-2.058 5.146-13.379 23.67-25.728 47.339-40.135 72.037-16.466 25.728-33.961 53.514-50.427 79.242-2.058 1.029-3.087 2.058-3.087 6.174h113.202c3.087 0 7.204-3.087 8.233-5.145 10.29-17.495 20.582-34.99 29.844-53.514 1.03-1.029 3.087-2.058 4.116-3.087 13.379 26.757 27.786 52.484 41.165 78.212 3.087-2.058 8.233-4.116 12.35-6.174-14.408-30.874-30.874-58.66-45.282-88.504 5.146-10.291 11.32-21.611 16.466-32.931 1.03 1.029 3.087 1.029 4.116 3.087 36.02 26.757 73.067 54.543 110.115 80.27 3.088 1.03 3.088 3.088 3.088 6.175v55.572h15.436v-59.688c0-1.03 1.03-3.088 2.058-5.146-1.029 0-2.058-2.058-3.087-4.116 1.03-1.03 2.058-3.088 3.087-3.088-1.029-2.058-2.058-3.087-2.058-4.116-30.873-50.426-60.717-100.853-90.561-149.22-2.059-5.146-2.059-6.176-1.03-9.263 9.262-21.611 18.524-42.193 26.757-65.863 17.495-49.397 31.903-100.853 34.99-156.425 1.03-27.786 0-54.542-6.175-81.3-7.203-28.814-21.61-54.542-43.222-74.095-6.175-7.204-15.437-14.408-24.699-20.582-17.495-6.175-33.96-10.291-51.455-11.32-24.699-2.059-47.34 1.029-71.009 8.232-26.757 9.262-51.455 20.583-76.154 37.048-1.03 0-1.03 1.03-2.058 2.058 2.058-1.029 3.087-1.029 6.174-2.058 21.612-10.29 44.252-21.611 67.922-27.786 17.495-7.203 38.077-9.262 55.572-7.203 24.698 4.116 42.193 15.436 52.484 39.106 8.233 18.524 10.291 36.019 10.291 55.572 0 21.61-3.087 43.222-6.174 66.892-10.292 52.484-25.728 104.969-45.281 154.366 0 1.03-1.03 3.088-1.03 4.117-2.058-1.03-3.087-3.088-4.116-4.117-58.659-34.99-116.29-71.008-174.948-105.998-11.32-7.204-6.175-7.204-21.612-7.204H379.596c-4.117 0-8.233 1.03-11.32 4.117-11.32 7.203-21.612 14.407-33.961 20.582-59.688 37.048-121.435 75.125-180.094 112.173-2.058 1.029-6.175 2.058-6.175 4.116-46.31 74.096-94.678 148.192-142.017 224.346 0 1.03-1.029 1.03-1.029 2.058 2.058 1.03 3.087 2.058 6.175 3.088 3.087 1.029 4.116 4.116 4.116 6.174v54.543H29.7V800.5c0-4.116 0-5.146 4.116-6.175 10.291-10.29 22.64-18.524 36.019-27.786 43.222-30.873 87.474-61.746 131.726-95.707 0 0 4.116-1.029 5.145-2.058v1.03c-28.815 54.542-54.542 108.056-83.357 163.628 3.087 2.058 8.232 4.116 12.349 6.174 28.815-57.63 59.688-115.26 89.532-172.89 19.554 54.543 39.107 108.056 59.689 162.6 5.145-2.06 10.29-3.088 13.378-4.117-18.524-53.514-38.077-105.999-58.659-159.512zM36.332 772.873c7.774-13.743 110.89-178.4 117.889-185.399a1521.616 1521.616 0 0 1 57.63 57.63v2.059c-57.63 41.164-117.318 83.358-174.949 125.551 0 0-.308 0-.617.206zm129.21-194.66c93.648-24.7 184.21-47.34 275.8-71.01l1.03 1.03c-72.038 43.223-142.018 87.474-214.055 130.697-20.582-20.582-41.165-40.135-62.776-60.718zm28.814-22.641c1.03-2.058 1.03-3.087 3.087-4.116 56.601-34.99 115.26-69.98 172.89-105.999 2.06-2.058 5.146-2.058 9.263-1.029 28.815 13.379 58.66 25.728 87.474 38.077 1.03 0 4.117 1.03 5.146 2.058-92.62 23.67-186.27 47.34-277.86 71.009zm46.31 94.678v-1.03c1.03-1.028 2.058-1.028 2.058-1.028 84.387-51.456 167.745-103.94 251.103-154.367h1.03v206.851c-85.417-15.436-169.804-32.931-254.19-50.426zM410.47 442.37c60.718-1.03 119.377-1.03 181.123-1.03v1.03c-12.349 4.116-23.67 9.262-34.99 14.407-17.494 7.204-36.018 13.379-52.484 21.612-2.058 1.029-7.204 1.029-9.262 0-26.757-12.35-54.543-22.64-82.329-34.99-1.029 0-2.058-1.03-2.058-1.03zm99.824 255.22V497.941c84.387 49.397 168.774 98.794 251.103 149.22 0 0 1.029 1.03 3.087 1.03-85.416 17.495-169.803 31.902-254.19 49.397zm4.116-513.527c24.699 27.786 49.397 55.572 76.154 82.33 11.32-8.234 21.612-15.438 31.903-24.7-15.437-31.902-30.874-64.833-46.31-98.794-20.582 14.408-41.165 26.757-61.747 41.164zm12.35 300.5v-1.029c1.029 0 3.087-1.029 4.116-1.029 31.902-14.407 64.834-26.757 96.736-39.106 5.146-2.058 8.233-2.058 14.408 1.03 55.572 33.96 112.173 69.979 168.774 104.968 1.029 1.03 2.058 1.03 3.087 3.088-94.678-22.64-191.414-44.252-287.121-67.922zm30.873 23.67v-1.03c87.474 20.583 173.92 41.165 261.394 61.747-11.32 25.728-22.64 49.398-33.96 74.096-77.184-44.251-152.31-90.561-227.434-134.813zm6.174-214.055c14.408 20.582 28.816 39.106 43.223 57.63 28.815-26.757 58.66-50.426 88.504-77.183-10.292-11.32-21.612-22.64-30.874-34.99-11.32 5.146-97.765 52.485-100.853 54.543zm72.038 50.426c16.466 33.961 31.903 66.893 47.34 99.824 21.61-13.378 42.193-28.815 60.717-41.164-24.699-27.786-48.368-55.572-75.125-83.358-11.32 8.233-21.612 17.495-32.932 24.698zm231.55 355.043c9.262-19.553 17.495-37.048 25.728-55.572 3.087 3.088 74.095 122.464 76.154 129.668-34.99-24.698-68.95-49.397-101.882-74.096z" style="fill:#000;fill-opacity:1;fill-rule:nonzero;stroke:none;"/>
</svg>
