<svg xmlns="http://www.w3.org/2000/svg" width="1000" height="1000">
  <path d="M5 500.496c0-90 22.747-173.077 67.253-250.22 44.506-74.177 103.846-133.517 178.023-178.023C327.419 27.747 410.496 5 500.496 5c89.011 0 172.089 22.747 249.232 67.253 74.176 44.506 133.517 103.846 178.022 178.023 44.506 77.143 67.253 160.22 67.253 249.231 0 90-22.747 173.078-67.253 250.22-44.505 74.177-103.846 133.518-178.022 178.023-77.143 44.506-160.22 67.253-249.232 67.253-90 0-173.077-22.747-250.22-67.253-74.177-44.505-133.517-103.846-178.023-178.022C27.747 672.585 5 589.508 5 500.496zm181.979-170.11c-63.297 120.66-46.484 255.165.989 334.287 5.934-3.957 10.879-7.913 17.802-11.869-.99-1.978-.99-2.967-2.967-5.934-42.528-90-49.45-183.956-9.89-275.935 50.44-118.681 141.429-187.912 269.012-204.726 14.835-3.956 26.703-6.923 28.681-23.736l1.978-.99c-100.88-1.977-235.385 57.364-305.605 188.903zm11.868 356.045c47.472 81.099 161.21 171.1 311.54 169.121 138.461-2.967 248.242-88.022 294.726-169.121-5.935-2.967-11.869-6.923-17.803-9.89l-2.967 1.978c-1.978.989-1.978.989-2.967 2.967-80.11 113.736-187.912 164.176-326.374 146.374-89.012-10.88-163.188-54.396-218.573-126.594-8.9-14.835-17.802-25.714-37.582-14.835zm5.934-15.824c61.319-11.869 123.627-23.737 184.946-34.616-8.902-9.89-14.836-19.78-22.748-31.648 20.77-2.967 39.56-5.934 60.33-8.901-9.89-12.858-17.802-25.715-28.681-38.572 34.615-19.78 68.242-39.56 100.88-57.363v-1.978c-61.32 11.868-122.639 22.747-184.947 34.616 8.902 10.879 16.814 20.769 22.748 30.659-20.77 2.967-39.56 6.923-60.33 9.89 10.88 12.857 19.78 25.715 28.681 39.56-34.615 18.792-67.253 38.572-100.88 55.386zM328.408 515.33c52.417-9.89 106.813-18.79 160.22-29.67v-91.978h-.989c-8.901 1.978-17.802 1.978-26.703 2.967-15.825 0-22.748-6.923-16.814-22.748 3.956-9.89 6.923-20.769 11.869-32.637-4.946 1.978-7.913 1.978-11.869 1.978-3.956 0-8.9 0-11.868-1.978-4.945-2.967-7.912-2.967-11.868 0-45.495 25.714-76.154 62.308-89.011 112.747-4.945 19.78-5.934 40.55-2.967 61.32zm63.297 99.89c2.967 4.946 5.934 7.913 6.923 10.88 1.978 3.956 5.934 6.923 4.945 9.89-2.967 5.934.989 7.912 5.934 10.88 41.538 26.703 89.011 32.637 138.462 20.769 20.77-5.935 40.55-13.847 58.352-26.704-2.967-1.978-2.967-2.967-2.967-2.967-32.638-39.56-66.264-78.132-98.902-118.682-4.945-3.956-7.912-3.956-10.879 0-17.802 9.89-35.604 18.792-53.407 29.67-6.923 2.968-12.857 7.913-21.758 11.869 6.923 8.901 13.846 16.813 19.78 25.714 5.934 8.902 1.978 17.803-5.934 22.748-2.967 0-6.923.989-10.879.989-8.901 1.978-17.802 2.967-29.67 4.945zm46.483-284.835c12.857-.99 26.704-2.967 38.572-3.956-6.923 17.802-14.835 37.582-21.758 55.384 17.802-.989 32.637-.989 49.45-2.967v114.726l.99.99c19.78-58.353 40.549-116.705 61.318-177.035-14.835.99-26.703 2.968-38.571 3.957 7.912-18.792 13.846-37.583 22.747-55.385-17.802.989-32.638 2.967-49.45 3.956V154.34h-1.979c-18.791 57.363-40.55 115.715-61.319 176.045zm67.253 169.121c39.56 46.484 80.11 94.946 121.649 142.418 4.945-11.868 9.89-23.736 13.846-35.604 13.846 16.813 26.704 32.637 39.56 47.472 6.924-14.835 12.858-29.67 19.781-43.516 34.616 20.769 67.253 40.55 100.88 60.33v-2.967c-40.55-46.484-80.11-92.968-122.638-142.418-3.956 12.857-8.901 24.725-14.835 35.604-11.869-15.824-25.715-29.67-37.583-46.484-6.923 14.836-13.846 26.704-22.747 43.517-31.649-20.77-66.264-40.55-97.913-60.33zm7.912-360.001c.99 2.967.99 7.912 2.967 8.901v7.912c-1.978 4.945 1.978 5.934 5.934 5.934 69.231 5.934 129.561 26.704 181.98 69.231 84.065 63.297 127.582 147.363 132.527 251.21 2.967 57.363-7.912 109.78-32.637 159.231-1.978 3.956-1.978 7.912 0 8.901 3.956 4.945 8.9 9.89 12.857 15.825 57.363-103.847 63.297-251.21-18.792-370.88-68.242-98.902-164.176-148.353-284.836-156.265zm7.912 346.155c-1.978 3.956 0 5.934 3.957 8.901 10.879 5.934 23.736 14.835 34.615 20.77 13.846 6.922 26.703 15.824 39.56 22.747 3.957-11.868 8.902-20.77 12.858-28.682 4.945-11.868 16.813-11.868 24.725-3.956 2.967 3.956 5.934 8.901 9.89 11.868 2.967 4.945 7.912 11.869 12.857 16.814 3.957-8.901 7.913-14.836 14.836-19.78 2.967-2.968 3.956-4.946 3.956-8.902 1.978-45.494-10.88-86.044-40.55-121.649-17.802-21.758-38.571-35.604-63.297-47.472-.989 1.978-.989 1.978-.989 3.956-17.802 49.45-34.615 96.923-52.418 145.385z" style="fill:#000;fill-opacity:1;fill-rule:nonzero;stroke:none;"/>
</svg>
