<svg xmlns="http://www.w3.org/2000/svg" viewBox="0 0 1000 1000"><path d="M594.53,606.81a56.221,56.221,0,0,1-17,2.49H546V517.62h30.24a52.117,52.117,0,0,1,15.77,2.49,40.379,40.379,0,0,1,14.52,8.3,39.116,39.116,0,0,1,10.78,14.51q4.151,8.711,4.15,21.58h0q.01,11.62-3.7,19.91a38.543,38.543,0,0,1-9.54,14.1A40.41,40.41,0,0,1,594.53,606.81Zm-5.8-128.6a34.938,34.938,0,0,0,12.86-7.47,34.006,34.006,0,0,0,9.13-12.85q3.679-7.89,3.69-19.09t-3.73-18.66a34.748,34.748,0,0,0-22-19.5,57.205,57.205,0,0,0-15.35-2.08H546v81.73h28.21A51.262,51.262,0,0,0,588.73,478.21ZM995,500c0,273.38-221.62,495-495,495S5,773.38,5,500,226.62,5,500,5,995,226.62,995,500ZM588.89,140c46.75,42.73,79.39,102.45,97.39,145.73H800.99L653.82,140ZM517.47,285.73h141.4C626,207.24,572.53,155.87,549.93,140H517.47Zm-313.83,0H321.95C337.83,228,399.87,150.82,418.63,140H349.37ZM190,650.78h45.22l-.83-225.67h1.24l57.66,225.67h39l58.9-225.67h1.25l-.83,225.67H440.1V357.08H370L314.86,572H313.2L256.79,357.08H190ZM415.74,860C369,817.29,336.38,757.55,318.35,714.27H203.64L350.81,860Zm71.42-145.73H345.76C378.66,792.76,432.09,844.13,454.7,860h32.46ZM489.33,140H456.1c-61.77,44.44-96.91,115.67-106.77,145.73h140Zm97.29,510.78a103.68,103.68,0,0,0,28.62-4.15,71.389,71.389,0,0,0,26.55-13.69,74.629,74.629,0,0,0,19.49-25.3q7.89-15.76,7.89-39,.011-16.639-4.56-29.06A72.47,72.47,0,0,0,653,518a53.793,53.793,0,0,0-15.8-14.06,60.964,60.964,0,0,0-16.59-7.05v-.83q15.39-6.24,27-22t11.61-43.14q0-22.82-7.88-36.92-7.91-14.51-19.91-22.4a70.758,70.758,0,0,0-26.55-11.2,123.3,123.3,0,0,0-27.38-3.32h-78v293.7Zm68.64,63.49H515.3V860h33.19C610.24,815.56,645.4,744.33,655.26,714.27Zm145.74,0H682.67C666.8,772,604.76,849.18,586,860h69.26Zm42.17-357.19H683.92v42.31h55.17V650.78H788V399.39h55.17Z"/></svg>