<svg xmlns="http://www.w3.org/2000/svg" width="1000" height="1000">
  <path d="M503.47 995c-34.697-40.479-40.48-80.958-47.419-128.376-5.782-189.673-20.817-381.659-34.696-564.393v-32.383h157.29c0 55.514 0 100.62-6.94 156.133-18.504 148.038-20.817 297.232-33.54 448.739 0 39.322-13.878 79.801-34.695 120.28zM15.409 168.072h6.939c26.6 27.758 55.514 54.358 80.958 82.115 68.236 52.044 142.255 79.801 223.213 93.68 33.54 5.783 48.574 20.818 48.574 47.418 5.783 54.358 13.879 108.715 13.879 163.073-13.879-5.783-28.914-13.879-41.636-13.879-67.08-32.383-141.098-47.418-216.273-55.514-21.974 0-33.54-5.783-41.636-32.383-28.913-93.68-46.261-190.83-74.018-284.51zm108.715 380.503c93.68 5.783 176.95 26.6 250.97 74.019 13.878 5.782 19.66 20.818 25.443 26.6 9.253 82.115 15.035 161.916 20.818 252.127v5.782c-5.783 0-20.818-5.782-26.6-12.722-40.48-34.696-93.68-54.357-156.134-62.453-26.6 0-40.479-12.722-46.261-39.322-17.348-82.115-49.732-164.23-68.236-244.031zM272.16 261.752c0-37.009 98.306-48.574 163.073-65.922 20.817-4.627 33.54-8.096 33.54-34.697 0-34.696-5.783-67.08-5.783-93.68C456.05 32.757 468.773 5 497.687 5c32.383 0 40.479 26.6 40.479 62.453-1.157 49.732 0 74.019 0 114.498 0 5.783 5.783 13.879 20.818 13.879 119.124 31.226 167.698 30.07 167.698 65.922 0 37.01-23.13 5.783-67.08-12.722-19.66-8.095-48.574-6.939-94.836-6.939H435.234c-39.323 0-80.958 0-120.28 19.661-27.758 19.662-42.793 20.818-42.793 0zm299.545 639.569c6.939-55.515 12.722-108.715 20.817-170.012V710.49c-8.095-67.08 34.697-101.776 87.898-122.594 67.08-18.504 129.532-39.322 195.455-39.322-19.66 74.019-40.479 142.255-60.14 217.43-5.783 45.105-33.54 60.14-74.019 74.019-82.114 3.47-128.376 40.479-170.011 61.297zm32.383-346.963c8.096-69.393 13.878-128.377 23.13-183.89 5.783-5.783 11.566-12.723 19.662-19.662 11.565-6.939 26.6-6.939 40.479-6.939 94.836-18.505 182.734-61.297 250.97-135.316 11.565-20.817 26.6-26.6 46.261-40.479-19.66 67.08-34.696 134.16-54.357 196.613-5.783 40.479-12.722 87.897-33.54 108.715-26.6 19.661-75.175 11.565-108.715 26.6-40.479 8.096-80.958 19.661-120.28 34.697-20.818 5.782-34.697 13.878-63.61 19.66z" style="fill:#000;fill-opacity:1;fill-rule:nonzero;stroke:none;"/>
</svg>
