<svg xmlns="http://www.w3.org/2000/svg" viewBox="0 0 1000 1000"><path d="M5 500.496C5 225.55 226.54 5 500.496 5c272.968 0 494.507 222.528 494.507 494.507 0 274.946-222.528 495.496-494.507 495.496C225.55 995.003 5 772.475 5 500.496zm306.594 298.682h240.33c128.573 0 195.826-35.604 195.826-102.857v-58.352h-91.98v47.473c0 32.637-33.626 54.396-91.978 54.396h-159.23V475.77h184.945v-66.264H311.594zm0-438.133h92.968L398.628 257.2h165.165c58.352 0 91.978 11.868 91.978 47.472v171.1c0 35.604-33.626 58.352-91.978 58.352H459.947v58.351h91.978c128.572 0 195.825-35.604 195.825-102.857V304.671c0-81.099-67.253-116.703-195.825-116.703h-240.33z"/></svg>