<svg xmlns="http://www.w3.org/2000/svg" width="1000" height="1000">
  <path d="M500.557 995c3.34-4.454 4.454-8.909 6.682-12.25 28.954-90.202 60.135-178.177 89.089-266.152 5.568-16.705 14.476-26.727 27.84-33.409C745.55 624.168 865.82 565.146 987.205 503.898c3.34-1.114 5.568-2.227 7.795-3.341-2.227-2.227-4.454-2.227-5.568-3.34-17.817-5.569-33.408-10.023-48.999-16.705-76.839-26.727-154.792-51.226-229.404-77.953-12.25-4.454-18.93-10.022-25.613-20.045-15.59-36.749-35.635-74.612-53.453-111.36-42.317-85.749-84.634-171.497-126.952-256.132-1.113-2.227-3.34-4.454-4.454-10.022-3.34 7.795-5.568 13.363-6.682 16.704-28.954 90.203-61.248 179.292-90.202 268.38-3.341 12.25-11.136 20.045-21.159 24.5C260.017 374.719 137.52 435.968 15.022 496.103c-2.227 1.113-4.454 2.227-10.022 4.454 8.909 2.227 14.477 6.682 20.045 7.795 89.089 30.068 177.064 60.135 266.153 89.09 11.136 4.454 18.931 12.249 23.386 22.271 60.135 122.498 121.384 244.995 181.519 367.492 1.113 3.341 2.227 4.455 4.454 7.795zM95.202 494.99c95.771-46.772 190.428-92.43 287.312-141.429-25.613 72.385-50.112 142.543-73.498 214.927zm255.017 61.249c52.34-153.679 103.566-307.357 157.02-462.15 48.999 104.68 101.338 207.133 151.45 309.585a19774.236 19774.236 0 0 0-308.47 152.565zm3.341 63.475c72.385 25.613 142.543 47.886 214.927 73.499-23.386 70.157-48.999 141.428-73.498 213.813-46.772-95.77-93.543-189.314-141.429-287.312zm13.364-32.294c3.34-3.341 4.454-3.341 6.681-4.455 97.998-48.999 195.996-95.77 295.107-145.883 8.91-4.454 18.932-4.454 28.954-1.113 65.703 22.272 131.406 44.544 199.337 65.703 2.227 1.113 4.454 2.227 8.908 5.568l-8.908 4.454c-97.998 47.885-197.11 94.657-293.994 143.656-8.909 5.568-20.045 6.682-28.954 3.34-65.703-23.385-131.406-45.657-198.222-67.93-2.228 0-4.455-1.113-8.91-3.34z" style="fill:#000;fill-opacity:1;fill-rule:nonzero;stroke:none;"/>
</svg>
