<svg xmlns="http://www.w3.org/2000/svg" width="1000" height="1000">
  <path d="M995.004 500.623C995.004 231.073 775.141 5 500.624 5 226.104 5 5 224.863 5 500.623 5 768.93 222.38 995.004 500.623 995.004c273.276 0 494.381-221.105 494.381-494.38zm-951.497 0c0-253.401 204.957-455.874 457.116-455.874 249.675 0 454.632 203.715 454.632 455.874 0 250.917-203.715 453.39-454.632 453.39-252.159 0-457.116-202.473-457.116-453.39zm62.109 7.453c0-75.772 59.623-124.216 126.7-124.216s114.28 48.444 114.28 124.216c0 75.772-47.203 124.216-114.28 124.216-75.772 0-126.7-48.444-126.7-124.216zm43.475 0c0 49.687 32.296 83.225 83.225 83.225 42.234 0 73.288-33.538 73.288-83.225 0-49.686-31.054-83.225-73.288-83.225-50.929 0-83.225 33.539-83.225 83.225zM386.344 624.84V390.071h49.687c1.242 0 65.835 177.629 65.835 176.387 8.695-18.633 21.116-50.929 69.56-177.63 6.212 0 45.96 1.243 55.898 1.243v234.768h-42.233V474.538c-37.265 98.13-55.898 149.06-57.14 149.06l-49.687-1.243C463.36 582.605 441 515.53 418.641 474.538v150.301zm283.214-166.45c22.359-75.771 108.068-99.373 175.145-57.139 26.085 14.906 33.538 31.054 40.991 64.593-40.991 0-42.234 0-43.476-2.485-24.843-90.678-183.84-38.507-135.396 85.71 13.664 34.78 38.508 49.686 70.804 49.686 57.14 0 67.077-31.054 67.077-57.14h-57.14c-17.39 0-17.39-8.695-17.39-17.39 0-16.148 0-22.359 8.695-22.359h106.826V624.84h-40.991v-16.148c-9.938 23.601-65.835 36.023-99.373 23.601-63.35-23.6-100.616-90.678-75.772-173.902z" style="fill:#000;fill-opacity:1;fill-rule:nonzero;stroke:none;"/>
</svg>
