<svg xmlns="http://www.w3.org/2000/svg" width="1000" height="1000">
  <path d="M500.496 5C223.572 5 5 229.506 5 500.002c0 276.43 224.506 495.001 495.002 495.001 276.43 0 495.001-224.506 495.001-495.001C995.003 226.539 773.464 5 500.496 5zM127.638 492.584c22.747-50.44 46.483-98.901 68.242-146.374 22.747-47.473 44.505-93.956 66.264-139.451 1.978-5.934 4.945-8.901 11.868-8.901H536.1c68.242 0 134.506.989 202.748.989 4.945 0 6.923 2.967 7.912 6.923a6346.245 6346.245 0 0 0 137.473 286.814c1.978 3.956.989 6.923-2.967 8.901C826.87 554.892 772.475 608.3 719.068 658.738c-69.23 68.242-139.45 134.506-209.67 201.76-3.957 4.944-3.957 4.944-9.89 0-70.22-67.254-138.463-133.518-208.683-200.77-53.407-51.43-106.813-103.847-161.21-156.265-3.955-3.956-3.955-6.923-1.977-10.879zm144.396 10.88c1.978 1.977 3.956 4.944 7.912 5.933 9.89 4.945 17.802 9.89 27.692 12.857 47.473 15.825 97.913 21.759 147.364 24.726 3.956.989 5.934 1.978 4.945 6.923v27.692c0 48.462 0 97.913-.99 145.385 0 4.945 1.979 7.913 5.935 7.913h89.01c6.924 0 6.924 0 6.924-7.913.99-32.637.99-64.286.99-97.912.988-24.725.988-51.429.988-75.165 0-5.934.99-7.912 6.923-8.901 22.748-.99 47.473-2.967 71.21-5.934 26.703-1.978 50.439-8.901 76.153-16.814 10.88-3.956 22.748-9.89 31.649-17.802 5.934-8.9 5.934-15.824-1.978-22.747-3.956-4.945-9.89-7.912-13.846-11.868-38.572-22.748-81.1-31.649-126.594-33.627-11.868-1.978-25.715-1.978-37.583-2.967-3.956 0-5.934-.989-5.934-3.956.99-13.846.99-26.703 0-40.55 0-2.967.99-3.956 5.934-3.956 3.956-.989 10.88-.989 17.802-.989 31.649-.989 65.275-.989 98.902-.989 6.923 0 6.923 0 6.923-8.9 0-26.704 0-53.407-.99-80.11 0-7.913 0-7.913-5.933-7.913H329.397c-2.967 0-4.945.99-4.945 5.934 0 27.693-.99 56.374-1.978 85.055 0 1.978.989 4.945 4.945 4.945 9.89 0 18.79 0 28.681.99 29.67 0 60.33 0 90.99.988 1.977 0 5.933 0 7.912.99.989 0 1.978 1.978 1.978 2.967v41.538c0 .99-.99 3.956-1.978 3.956-6.924.99-12.858.99-17.803 2.967-28.681 2.967-55.385 5.934-82.088 9.89-24.725 3.956-47.473 9.89-67.253 20.77-6.923 2.967-12.857 7.912-15.824 10.879-7.912 7.912-6.923 16.813 0 25.714zm30.66-10.88c-5.935-3.956-5.935-10.88.988-14.835 10.88-3.956 22.748-8.901 34.616-11.868 26.703-6.923 53.407-10.88 82.088-13.847 9.89-.989 20.77-1.978 31.648-2.967 3.957-.989 4.946.99 4.946 5.934-.99 17.803 0 36.594-.99 53.407 0 4.945 2.968 6.923 7.913 6.923 24.725-.989 50.44 0 74.176-.989h18.791c4.945 0 6.923-1.978 6.923-5.934-.989-12.857-.989-25.714-.989-39.56.99-4.945.99-10.88.99-17.803 0-1.978 0-2.967 3.955-2.967 26.704 2.967 54.396 5.934 82.088 9.89 19.78 1.979 39.56 6.924 58.352 15.825 3.956 1.978 6.923 2.967 9.89 4.945 5.934 4.945 6.923 8.901 0 13.846-8.9 3.956-17.802 8.901-28.681 11.868-23.736 6.923-47.473 10.88-72.198 13.846-42.528 1.978-83.077 2.967-125.605 4.945 0 0-.989 0-.989-.989-17.802 0-37.583 0-57.363-.989-39.56-3.956-76.154-8.9-113.736-19.78-4.946-1.978-11.869-5.934-16.814-8.901z" style="fill:#000;fill-opacity:1;fill-rule:nonzero;stroke:none;"/>
</svg>
