<svg xmlns="http://www.w3.org/2000/svg" viewBox="0 0 1000 1000"><path d="M397.88 38.8c104.795-69.041 247.81-24.658 379.727 64.11 17.26 13.562 38.22 24.658 7.398 24.658-55.48 0-112.192 0-166.44 7.397-14.794 0-24.657-7.398-36.986-20.96-53.014-65.342-154.11-54.246-183.699 24.658-7.397 20.96-12.329 29.59-12.329 45.617 0 14.795-4.931 25.89-14.794 34.52-14.795 16.028-29.59 25.891-43.151 41.919-9.863 9.863-17.26 9.863-32.055 0-35.754-19.726-35.754-25.89-19.726-61.644 25.89-64.11 60.41-125.754 122.055-160.275zM24.317 420.993h6.164c4.932 3.699 8.63 8.63 14.795 16.028 24.657 43.15 50.548 83.836 75.206 129.452 8.63 14.795 16.027 24.658 3.698 44.384-18.493 40.685-9.863 91.233 27.124 125.754 35.753 32.055 86.301 40.685 129.452 16.027 14.795-9.863 24.658-9.863 41.918-6.164 13.562 6.164 33.288 14.795 48.083 22.192 9.863 0 14.794 8.63 14.794 23.425 0 45.616 0 45.616-44.384 51.78-39.452 3.7-81.37 3.7-120.822-6.164-78.904-14.794-133.151-60.41-171.37-130.685C9.521 610.857 9.521 515.925 24.316 420.993zm24.657-59.178c0-62.877 20.96-112.192 56.713-162.74C162.4 127.568 237.605 83.184 322.674 52.362h9.863c-9.863 25.89-27.123 45.616-36.986 66.575l-45.617 91.234c-8.63 8.63-12.329 13.561-33.288 18.493-19.726 6.164-41.918 12.329-61.644 25.89-59.178 49.316-55.48 140.549 16.028 182.467 32.055 18.493 29.589 50.548 34.52 78.904 6.165 25.89 0 29.59-18.493 39.452-32.055 17.26-32.055 17.26-57.945-9.863-38.22-55.48-75.206-115.89-80.138-183.699zm87.535 294.659c0-50.548 38.22-83.836 90-90 45.617 0 83.836 39.452 83.836 90 0 45.616-34.52 86.301-83.836 86.301-51.78 0-90-40.685-90-86.301zm4.932-316.85c0-45.617 39.452-85.07 85.068-85.07 45.617 0 83.836 39.453 83.836 85.07 0 51.78-38.219 90-83.836 90-45.616 0-85.068-38.22-85.068-90zm59.178 537.535c0-3.698 0-3.698 4.931-9.863 60.412 0 122.056 0 180.001-4.931 12.329 0 22.192 11.096 25.89 19.726 25.891 30.822 56.713 45.617 94.933 45.617C569.25 922.776 612.4 877.159 612.4 822.913c0-24.658 6.165-40.685 24.658-50.548 17.26-11.096 27.123-19.727 35.754-35.754 9.863-4.932 14.794-4.932 25.89 0 40.685 32.055 40.685 19.726 22.192 65.343-18.493 41.918-38.22 80.137-66.576 110.959-55.48 66.576-125.754 86.302-208.357 81.37C351.03 979.49 275.825 932.64 200.62 877.16zM407.743 184.28c0-49.315 38.22-91.233 86.302-91.233 49.315 0 87.534 41.918 87.534 85.069 0 50.548-38.219 92.466-83.836 92.466-51.78 0-90-41.918-90-86.302zm11.096 633.701c0-49.315 36.986-86.302 83.836-86.302 45.617 0 85.069 36.987 85.069 86.302 0 49.315-35.754 86.302-85.07 86.302-50.547 0-83.835-41.918-83.835-86.302zM612.4 202.773c0-3.698 0-13.561 6.165-24.657 0-4.932 8.63-13.562 14.794-13.562 75.206-16.028 144.247-16.028 216.987 19.726 44.384 25.89 80.138 65.343 104.795 114.658 25.89 71.507 35.754 141.781 25.89 216.987 0 19.726-3.698 39.452-3.698 71.507l-18.493-14.794c-23.425-46.85-54.247-97.398-83.836-147.946-3.699-9.863-3.699-19.726 0-29.59 19.726-49.314 8.63-101.095-24.658-130.685-35.753-35.753-87.534-40.685-129.452-14.794-12.329 4.931-22.192 11.096-41.918 0-14.795-4.932-29.59-8.63-45.617-14.795-14.794-6.164-20.959-16.027-20.959-32.055zm56.713 745.894c-4.932 1.232 90-166.44 85.069-166.44 4.931-9.862 14.794-13.561 30.822-13.561 49.315-7.397 90-41.918 98.63-87.535 11.096-45.616-8.63-93.699-54.247-118.356-14.794-12.33-24.657-20.96-24.657-36.987-4.932-13.561-4.932-35.753-8.63-50.548 0-14.794 0-24.658 12.328-29.59 36.987-20.958 36.987-20.958 62.877 9.864 29.59 40.685 54.247 80.137 67.809 125.754 25.89 80.137 7.397 150.411-44.384 216.987-56.712 75.206-131.918 114.658-215.754 150.412zm18.493-292.193c0-45.617 41.918-83.836 86.302-83.836 51.78 0 86.302 33.288 86.302 83.836s-40.686 90-86.302 90c-44.384-3.699-86.302-44.384-86.302-90zm0-310.686c0-51.781 41.918-91.234 90-85.07 48.083 0 86.302 38.22 86.302 85.07 0 45.616-38.22 83.835-90 83.835-44.384 0-86.302-38.219-86.302-83.835z"/></svg>