<svg xmlns="http://www.w3.org/2000/svg" viewBox="0 0 1000 1000"><path d="M151.83 5h697.687c6.734 0 6.734 0 6.734 9.428 0 196.646 0 394.638 2.694 592.63 0 36.366-4.04 72.732-10.775 110.445-16.163 61.956-45.794 115.832-90.242 162.973-39.06 40.406-84.853 70.038-138.729 91.588-36.366 14.816-75.425 21.55-117.179 22.897-96.976 1.347-179.136-32.325-247.827-99.67-39.06-37.712-68.691-83.506-87.547-133.341-17.51-43.1-25.591-87.548-25.591-134.689V14.428c0-9.428 0-9.428 10.775-9.428zm114.485 655.933c0 29.632 6.735 56.57 20.203 82.16 22.897 56.57 65.998 95.63 123.914 117.18 8.081 2.693 16.162 6.734 26.938 9.428V118.138c0-8.08-1.347-9.428-9.429-9.428H275.743c-5.387 0-9.428 1.347-9.428 8.082zm294.968 207.42h6.735c41.753-10.774 75.425-30.977 105.057-63.303 41.753-43.1 60.61-92.935 57.916-153.545v-532.02c0-10.775 0-10.775-9.428-10.775H572.058c-10.775 0-10.775 0-10.775 9.428v740.788z"/></svg>