<svg xmlns="http://www.w3.org/2000/svg" viewBox="0 0 1000 1000"><path d="M482.224 231.3c41.864 0 71.92 15.028 95.537 53.672 62.26 101.978 123.446 205.029 181.412 311.3 31.13 56.893 15.028 125.594-38.644 155.65-54.746 31.13-124.52 17.175-156.723-41.864-63.334-100.904-124.52-205.029-180.34-311.3-42.937-81.582 9.662-167.458 98.758-167.458zM18.494 396.61c-40.79-79.434 16.102-165.31 100.904-165.31 41.865 0 74.068 15.028 95.537 51.525 60.113 104.125 124.52 207.176 181.413 316.668 32.203 53.672 12.881 122.373-37.57 152.43-56.894 32.203-125.594 17.174-155.65-37.572-59.04-107.344-125.594-212.542-184.634-317.74zm682.713-70.847c-20.395-45.084 6.44-88.022 54.746-91.243 26.836-3.22 60.113 0 89.096 0 27.91 0 56.893-3.22 81.582 0 50.452 3.22 83.729 48.305 61.187 91.243-27.91 53.673-57.967 105.198-85.876 152.43-24.69 41.864-85.876 45.085-111.639 3.22-34.35-50.452-64.407-101.977-89.096-155.65z"/></svg>