<svg xmlns="http://www.w3.org/2000/svg" width="1000" height="1000">
  <path d="M5 500.496C5 225.55 226.54 5 500.496 5c272.968 0 494.507 222.528 494.507 494.507 0 274.946-222.528 495.496-494.507 495.496C225.55 995.003 5 772.475 5 500.496zm198.792-2.967c0 27.693 0 27.693 26.703 27.693h46.484v308.572h170.11c47.473 0 97.913 3.956 147.364-2.967 88.022-7.912 162.198-50.44 202.747-130.55 61.32-129.56 63.297-258.133 13.847-387.694-20.77-56.373-63.297-100.879-114.726-128.571-36.594-20.77-79.121-31.649-120.66-31.649-95.934-1.978-187.912-1.978-284.836-1.978-12.857 0-13.846 1.978-13.846 12.857v297.694h-73.187zm165.165 254.177V525.22h177.034c10.879 0 12.857-.989 12.857-12.857v-41.538c0-6.923-1.978-9.89-12.857-9.89H368.957V234.45h11.868c53.407 0 107.803-2.967 160.22 0 27.693 0 56.375 4.945 82.089 13.846 49.45 11.869 79.121 49.451 100.88 95.935 21.758 42.527 23.736 91.978 23.736 139.45 0 50.44-1.978 97.913-21.759 144.397-24.725 77.143-78.132 117.693-157.253 120.66-67.253 4.945-129.56 2.967-195.825 4.945 0 0-2.967-1.978-3.956-1.978z" style="fill:#000;fill-opacity:1;fill-rule:nonzero;stroke:none;"/>
</svg>
