<svg xmlns="http://www.w3.org/2000/svg" width="1000" height="1000">
  <path d="M500.496 5c272.968 0 494.507 221.54 494.507 495.002 0 270.495-218.572 495.001-495.001 495.001C229.506 995.003 5 776.431 5 500.002 5 229.506 223.572 5 500.496 5zM244.341 655.771H357.09v128.572h90.99V655.771h109.78v128.572h90.99V655.771h107.8v-90H648.848c0-46.484-5.934-95.934 0-141.429h107.803v-90.99H653.793c-4.945-42.527-4.945-83.076-4.945-122.637H557.86v122.638H441.155V210.715H357.09v130.55H244.341v83.077H357.09v146.374H244.341zm203.737-90V424.342H557.86v141.43z" style="fill:#000;fill-opacity:1;fill-rule:nonzero;stroke:none;"/>
</svg>
