<svg xmlns="http://www.w3.org/2000/svg" viewBox="0 0 32 32">
	<path
		d="M9.2.1L2.8 6.5H8c.7-2.6 3.5-6 4.3-6.5H9.2zm6.3 6.4V.1H14c-2.7 2-4.3 5.1-4.7 6.5h6.2zm1.2 0H23C21.5 3 19.2.7 18.2 0h-1.4v6.5zm7.5 0h5.1L22.8 0h-2.9c2 2 3.5 4.6 4.3 6.5zM22.8 32l6.5-6.5H24c-.7 2.6-3.5 6-4.3 6.5h3.1zm-6.2-6.5V32h1.5c2.7-2 4.3-5.1 4.7-6.5h-6.2zm-1.2 0H9.1c1.5 3.5 3.8 5.8 4.8 6.5h1.4v-6.5zm-7.5 0H2.8L9.3 32h2.9c-2.1-1.9-3.5-4.5-4.3-6.5zm-1.2-3.4c.4 0 .9-.1 1.3-.2s.8-.3 1.2-.6c.4-.3.6-.6.8-1.1.2-.4.3-.8.3-1.3h-2c0 .3-.1.5-.2.7-.1.4-.3.5-.6.6-.3.1-.5.1-.8.1-.2 0-.4 0-.7-.1l-.6-.3c-.2-.2-.3-.3-.4-.6-.1-.2-.1-.4-.1-.7v-5.2c0-.2 0-.4.1-.7.1-.2.2-.4.4-.6.3.1.5-.1.7-.1.2-.1.4-.1.7-.1.3 0 .5 0 .8.1.3.1.5.2.6.5.2.2.2.5.2.7h2c0-.4-.1-.9-.3-1.3-.2-.4-.4-.8-.8-1-.4-.3-.7-.5-1.2-.6-.4-.1-.9-.2-1.3-.2-.3 0-.6 0-1 .1-.3 0-.6.1-.9.3-.3.1-.5.3-.8.5-.2.2-.4.5-.6.7-.1.3-.3.6-.3.9-.1.3-.1.6-.1.9v5.2c0 .3 0 .6.1.9l.3.9c.2.3.4.5.6.7.2.2.5.4.8.5.3.2.6.3.9.3.3.1.6.1.9.1zm9.3 0c.4 0 .8 0 1.1-.1.4-.1.7-.2 1.1-.4.3-.2.6-.5.8-.8.2-.3.4-.7.5-1 .1-.4.1-.8.1-1.1v-5.2c0-.4 0-.8-.1-1.1-.1-.4-.2-.7-.5-1-.2-.3-.5-.6-.8-.8-.3-.2-.7-.3-1.1-.4-.4-.1-.8-.1-1.1-.1s-.8 0-1.1.1c-.4.1-.7.2-1.1.4-.3.2-.6.4-.8.8-.2.3-.4.6-.5 1-.1.4-.1.8-.1 1.1v5.2c0 .4 0 .8.1 1.1.1.4.3.7.5 1 .2.3.5.5.8.8.3.2.7.3 1.1.4.3.1.7.1 1.1.1zm0-1.7c-.2 0-.4 0-.7-.1l-.6-.3c-.2-.2-.3-.3-.4-.6-.1-.2-.1-.4-.1-.7v-5.2c0-.2 0-.4.1-.7.1-.2.2-.4.4-.6.2-.2.4-.3.6-.3.2-.1.4-.1.7-.1s.4 0 .7.1l.6.3c.2.1.3.3.4.6.1.2.1.4.1.7v5.2c0 .2 0 .4-.1.7-.1.2-.2.4-.4.6-.2.2-.4.3-.6.3-.3 0-.5.1-.7.1zm5.7 1.6h3.6c.4 0 .8 0 1.2-.1.4-.1.7-.2 1.1-.4.3-.2.6-.5.9-.8.2-.3.4-.7.5-1 .1-.4.1-.8.1-1.2 0-1.3-.6-2.2-1.7-2.7.8-.5 1.2-1.3 1.2-2.3 0-.4 0-.7-.1-1-.1-.3-.2-.7-.4-1-.2-.3-.4-.5-.7-.7-.3-.2-.6-.3-1-.4-.3-.1-.7-.1-1-.1h-3.6V22zm3.6-7h-1.6v-3h1.6c.2 0 .4 0 .5.1.2.1.3.2.4.3.1.1.2.3.2.5s.1.4.1.5c0 .2 0 .4-.1.6 0 .2-.1.4-.2.5-.1.1-.3.3-.4.3-.2.2-.3.2-.5.2zm-1.6 5.2v-3.4h1.6c.2 0 .5 0 .7.1l.6.3c.2.1.3.4.4.6v.7c0 .2 0 .5-.1.7-.1.2-.2.4-.4.6-.2.2-.4.3-.6.3-.2.1-.5.1-.7.1h-1.5z" />
</svg>