<?xml version="1.0" encoding="utf-8"?>
<!-- Generator: Adobe Illustrator 26.0.1, SVG Export Plug-In . SVG Version: 6.00 Build 0)  -->
<svg version="1.1" id="Layer_1" xmlns="http://www.w3.org/2000/svg" xmlns:xlink="http://www.w3.org/1999/xlink" x="0px" y="0px"
	 viewBox="0 0 1000 1000" style="enable-background:new 0 0 1000 1000;" xml:space="preserve">
<path d="M447.5,423.6c1.9,3.7,2.8,7.6,2.8,11.6V466c0,4-0.9,7.8-2.8,11.6c-1.9,3.7-4.6,6.7-8.2,8.8c-3.6,2.1-7.4,3.6-11.4,4.4
	c-4,0.8-8.1,1.2-12.3,1.2H382v-82.6h33.6c4.2,0,8.3,0.4,12.3,1.2c4,0.8,7.8,2.3,11.4,4.4C442.9,417,445.6,419.9,447.5,423.6z
	 M995.3,500c0,273.4-221.6,495-495,495S5.3,773.4,5.3,500S226.9,5,500.3,5S995.3,226.6,995.3,500z M348.5,287.3h138.9V142.6h-32.9
	C393.2,186.7,358.3,257.4,348.5,287.3z M203.8,287.3h117.4c15.8-57.3,77.4-133.9,96-144.7h-68.8L203.8,287.3z M414.4,857.4
	C368,815,335.6,755.7,317.7,712.7H203.8l146.1,144.7H414.4z M485.3,712.7H344.9c32.7,77.9,85.7,128.9,108.2,144.7h32.2V712.7z
	 M493.3,435.2c0-7.5-1.1-14.9-3.3-22.4c-2.2-7.5-6-14.1-11.2-19.8c-5.3-5.7-11.4-10.3-18.4-13.7c-7-3.4-14.3-5.7-21.9-7
	c-7.6-1.3-15.2-1.9-22.9-1.9h-77v257.3H382v-97h33.6c7.7,0,15.3-0.6,22.9-1.9c7.6-1.3,14.9-3.6,21.9-7c7-3.4,13.1-7.9,18.4-13.7
	c5.3-5.7,9-12.3,11.2-19.8c2.2-7.5,3.3-14.9,3.3-22.4V435.2z M586.2,142.6c46.4,42.4,78.8,101.7,96.7,144.7h113.9L650.7,142.6H586.2
	z M589.6,588.8V370.4h-43.4v257.3h146v-38.9H589.6z M515.4,287.3h140.4c-32.7-77.9-85.8-128.9-108.2-144.7h-32.2V287.3z
	 M652.1,712.7H513.2v144.7h32.9C607.4,813.3,642.3,742.6,652.1,712.7z M796.9,712.7H679.4c-15.8,57.3-77.4,133.9-96,144.7h68.8
	L796.9,712.7z"/>
</svg>
