<svg xmlns="http://www.w3.org/2000/svg" width="1000" height="1000">
  <path d="M460.162 26.601c21.566-25.161 47.925-33.548 83.87 3.594 52.718 53.917 428.936 430.135 426.54 428.937 29.953 33.548 29.953 55.114 0 88.662-91.06 87.465-183.317 179.722-270.781 270.781-55.115 51.52-106.635 101.843-155.76 152.165-28.755 32.35-53.916 32.35-83.87 0C317.583 828.16 173.806 685.58 31.227 543.002c-32.35-28.756-32.35-50.322 0-83.87C173.805 316.552 317.582 172.775 460.162 26.6zm-311.518 516.4c29.953 28.756 59.907 53.917 85.068 83.87 25.161 25.162 53.917 25.162 79.078 0 29.953-29.953 58.709-55.114 83.87-87.464 27.557-23.963 23.963-52.718 3.594-71.888-28.755-29.954-57.51-63.502-92.257-93.456-20.368-20.368-49.124-16.774-70.69 4.793-28.756 25.16-58.71 58.709-88.663 88.663-23.963 21.566-20.369 50.322 0 75.483zm226.45 238.432c29.953 29.953 59.907 55.114 88.662 83.87 26.36 25.16 51.52 25.16 76.681 0 27.558-25.161 57.511-53.917 87.465-83.87 20.369-25.161 20.369-53.917 0-79.078-29.954-28.755-59.907-53.916-87.465-83.87-25.16-26.36-50.322-26.36-76.68 0-28.756 29.954-58.71 55.115-88.664 87.465-31.151 35.944-23.963 47.925 0 75.483zm239.628-242.026c29.954 27.558 59.908 57.511 87.465 87.465 26.36 25.161 50.322 25.161 75.483 0 29.954-29.954 59.908-59.907 88.663-87.465 21.567-21.566 21.567-46.727 0-71.888-28.755-29.954-58.71-63.502-93.455-93.456-20.369-20.368-44.332-16.774-70.69 4.793-27.558 29.953-57.512 58.709-87.466 88.663-27.557 27.557-22.764 46.727 0 71.888z" style="fill:#000;fill-opacity:1;fill-rule:nonzero;stroke:none;"/>
</svg>
