<svg xmlns="http://www.w3.org/2000/svg" viewBox="0 0 1000 1000"><path d="M5 500.496C5 225.55 226.54 5 500.496 5c272.968 0 494.507 222.528 494.507 494.507 0 274.946-222.528 495.496-494.507 495.496C225.55 995.003 5 772.475 5 500.496zm129.56 44.506c0 16.813 10.88 27.692 26.704 27.692 15.824-2.967 27.693-15.824 27.693-29.67 0-15.824-11.869-24.726-27.693-24.726-15.824 0-26.703 10.88-26.703 26.704zm0-103.847c0 22.748 14.836 43.517 42.528 43.517 20.77 0 39.561-24.725 39.561-43.517 0-23.736-18.791-39.56-42.528-39.56-24.725 0-39.56 12.857-39.56 39.56zm26.704 198.792c0 18.791 12.857 33.627 31.649 33.627 19.78 0 30.66-14.836 35.604-33.627 0-20.77-15.824-36.593-35.604-36.593-15.825 0-31.649 15.824-31.649 36.593zm24.726-291.76c0 14.836 14.835 30.66 30.66 30.66 11.867 0 27.691-15.824 27.691-30.66 0-11.867-13.846-22.746-27.692-22.746-18.791 0-27.692 10.879-30.66 22.747zm26.703 367.914c0 4.945 6.923 15.824 15.824 19.78 10.88 4.946 26.704-7.912 26.704-19.78 0-10.879-10.88-22.747-24.726-22.747-10.879 0-17.802 6.923-17.802 22.747zm0-178.022c0 27.692 22.747 47.472 50.44 47.472 23.736-4.945 46.483-23.736 46.483-51.428 0-22.748-22.747-42.528-49.45-42.528-31.649 0-52.418 19.78-47.473 46.484zm38.572 104.835c0 23.737 15.824 39.56 38.571 39.56 26.704 0 42.528-11.867 42.528-35.604 3.956-18.791-15.824-43.516-38.572-43.516-22.747-3.956-42.527 15.824-42.527 39.56zm8.9-213.627c22.748 4.945 33.627-35.604 2.968-43.517-24.726-4.945-32.638 30.66-2.967 43.517zm2.968 338.243c0 27.692 23.736 46.484 50.44 46.484 22.747 0 46.483-23.737 46.483-46.484 0-26.703-23.736-51.429-50.44-51.429-27.692 0-46.483 24.726-46.483 51.429zm0-447.034c0 15.824 18.791 30.659 34.615 30.659 18.792 4.945 38.572-14.835 34.616-34.616 0-18.79-15.824-30.659-34.616-30.659-18.791 0-34.615 14.835-34.615 34.616zm3.956-77.144c-3.956 11.869 11.868 23.737 22.747 18.792 32.638 0 22.747-38.572-7.912-38.572-2.967 0-14.835 11.868-14.835 19.78zm26.703 179.012c-6.923 6.923-6.923 21.758 3.956 25.714 22.748 11.869 22.748 27.693 22.748 48.462 0 30.66 23.736 48.462 54.395 48.462 26.704-1.978 51.43-26.704 51.43-53.407 0-31.648-31.65-62.308-63.298-54.396-14.835 3.956-26.703 6.923-30.66-11.868 0 0-2.966-2.967-2.966-7.912-12.857-6.923-24.726-6.923-35.605 4.945zm35.605-43.517c0 11.869 11.868 27.693 23.736 22.748 6.923 0 14.835-6.923 30.66-18.792-20.77-10.879-27.693-19.78-35.605-19.78-6.923 0-15.824 10.88-18.791 15.824zm0-116.703c6.923 11.868 26.703 14.835 42.527 11.868 11.868-6.923 13.847-22.747 6.923-38.572 0-7.912-6.923-11.868-10.879-18.791 6.923-4.945 17.803-4.945 22.748-12.857 10.879-7.912 10.879-17.802 0-29.67-6.924-8.902-18.792-3.957-27.693 2.966-18.791 15.825-2.967 26.704 4.945 39.561-7.912 2.967-14.835 2.967-23.736 6.923-14.835 6.923-18.791 22.747-14.835 38.572zm38.571 420.33c0 26.704 17.803 41.54 42.528 41.54 23.736 0 38.571-18.792 38.571-41.54 0-23.736-14.835-39.56-38.571-39.56-24.725 0-42.528 15.824-42.528 39.56zm0-90c3.956 15.825 15.824 31.649 31.649 31.649 10.879 0 26.703-15.824 26.703-31.649 0-14.835-10.88-22.747-26.703-22.747-20.77-3.956-31.649 7.912-31.649 22.747zm0-263.077c0 29.67 17.803 49.45 47.473 49.45 21.758 3.956 49.45-22.747 49.45-46.483 3.957-23.737-19.78-46.484-47.472-46.484-22.747-3.956-45.495 14.835-49.45 43.517zm15.824 441.1c0 15.824 15.825 26.703 31.649 26.703 10.88 0 21.758-13.846 21.758-26.703 0-15.824-10.879-27.692-26.703-27.692-15.824-1.978-26.704 11.868-26.704 27.692zm26.704-540.002c0 20.77 15.824 36.594 34.615 36.594 14.836 0 30.66-20.77 30.66-39.56 0-19.781-17.802-34.616-38.572-34.616-14.835 2.967-26.703 18.791-26.703 37.582zm11.868 614.178c0 26.703 37.583 26.703 37.583-4.945 0-29.67-39.561-17.802-37.583 4.945zm11.868-299.671c0 27.692 14.835 51.429 41.539 51.429 23.736 2.967 54.396-23.737 54.396-46.484 0-22.747-22.748-46.484-45.495-50.44-24.725 0-47.473 18.791-50.44 45.495zm0-103.847c0 27.693 18.791 43.517 41.539 43.517 23.736-4.945 39.56-20.77 39.56-43.517 0-23.736-15.824-42.527-39.56-39.56-26.704 0-41.539 15.824-41.539 39.56zm25.715 313.518c0 28.681 20.769 42.527 47.472 42.527 26.704 0 49.451-17.802 49.451-45.494 0-23.737-22.747-42.528-49.45-42.528-31.65 0-47.473 14.835-47.473 45.495zm11.868-103.847c0 15.825 15.824 31.649 35.604 31.649s35.605-11.868 35.605-31.649c0-19.78-15.824-31.648-35.605-35.604-19.78 0-35.604 15.824-35.604 35.604zm12.857-485.606c0 15.825 14.835 30.66 33.626 35.605 20.77 0 36.594-12.857 38.572-35.605 0-15.824-13.846-27.692-33.626-31.648-19.78 0-35.605 11.868-38.572 31.648zm14.835 111.759c0 36.593 15.824 48.462 46.484 48.462 31.648 0 46.484-11.869 46.484-43.517 0-30.66-14.836-46.484-46.484-46.484-27.693 0-46.484 15.825-46.484 41.539zm11.868 96.923c0 16.814 15.825 32.638 31.649 32.638 11.868 0 22.747-15.824 22.747-32.638 0-14.835-8.901-22.747-26.703-22.747-15.824 0-27.693 7.912-27.693 22.747zM527.2 832.805c0 20.77 11.868 31.648 27.692 31.648s26.703-15.824 26.703-26.703c0-11.868-15.824-27.692-31.648-27.692-10.88 0-22.747 6.923-22.747 22.747zm11.868-341.21c0 14.835 6.923 22.747 22.747 22.747 19.78 3.956 30.66-7.912 30.66-22.747 0-15.824-10.88-27.692-26.704-27.692s-26.703 11.868-26.703 27.692zm10.879 95.934c4.945 27.693 22.747 47.473 50.44 43.517 28.681 0 51.428-22.747 46.483-45.495 0-23.736-22.747-42.527-49.45-42.527-26.704 0-47.473 18.791-47.473 44.505zm4.945 96.924c-4.945 13.846 1.978 24.725 15.824 20.77 6.923 0 14.835-4.946 17.802-6.924 3.957-15.824-2.967-27.692-15.824-27.692-6.923 0-15.824 6.923-17.802 13.846zm22.747 86.044c0 19.78 22.748 43.517 46.484 43.517 18.791 0 34.615-18.792 34.615-43.517 0-22.747-15.824-38.572-38.571-38.572-27.692 0-42.528 15.825-42.528 38.572zm14.836-356.045c0 38.571 15.824 54.396 54.395 54.396 31.649 0 54.396-24.726 54.396-54.396-2.967-28.682-30.66-55.385-54.396-55.385-33.626 0-54.395 23.736-54.395 55.385zm0-233.407c15.824 25.714 38.571 22.747 38.571-3.957 0-11.868-6.923-15.824-17.802-15.824-12.857 0-20.77 8.901-20.77 19.78zm36.593 501.43c0 17.802 17.802 41.538 41.539 41.538 18.79 0 43.516-18.79 43.516-41.538 0-20.77-19.78-39.56-43.516-39.56-18.792 0-39.56 18.79-41.539 39.56zm13.846-168.133c0 14.836 11.868 28.682 27.693 30.66 14.835 0 27.692-15.824 27.692-30.66 0-10.879-8.901-22.747-24.725-22.747-18.792 0-30.66 7.912-30.66 22.747zm0-193.846c0 20.769 15.824 35.604 39.56 30.659 15.825 0 31.65-14.835 31.65-34.616-3.957-18.79-19.781-30.659-40.55-30.659-14.836 0-30.66 14.835-30.66 34.616zm11.868-100.88c0 15.824 11.869 26.703 27.693 31.649 15.824 0 31.648-11.869 31.648-27.693 0-15.824-15.824-30.66-31.648-30.66-11.868 2.968-27.693 14.836-27.693 26.704zm15.825 379.782c0 12.857 2.967 19.78 18.79 24.725 11.87 0 27.693-15.824 24.726-24.725-3.956-11.869-15.824-18.792-19.78-21.759-20.77 2.967-23.736 9.89-23.736 21.759zm14.835 171.1c0 15.823 8.901 26.702 24.725 26.702 15.824 0 30.66-13.846 30.66-26.703 0-15.824-14.836-27.692-26.704-27.692-15.824 0-28.681 11.868-28.681 27.692zm24.725-306.595c0 15.824 10.88 27.692 30.66 27.692 22.747 0 34.615-6.923 34.615-31.648 0-18.792-11.868-34.616-34.615-34.616-14.836 0-30.66 15.824-30.66 38.572zm10.88-208.682c0 11.868 6.922 18.79 19.78 18.79 10.879 0 22.747-3.955 22.747-18.79 0-11.869-6.923-19.78-19.78-19.78-10.88 0-22.748 3.955-22.748 19.78zm11.868 92.967c3.956 23.736 26.703 42.528 51.428 42.528 25.715 0 44.506-18.792 44.506-42.528 4.945-27.692-18.791-47.473-49.45-47.473-27.693 0-46.484 15.824-46.484 47.473zm3.956 208.682c0 15.824 10.879 28.681 26.703 23.736 20.77 0 27.692-7.912 27.692-23.736 0-13.846-15.824-29.67-27.692-29.67-15.824 0-26.703 15.824-26.703 29.67zm10.879 90c0 23.737 15.824 35.605 43.516 35.605 22.748 0 42.528-15.824 37.583-39.56 0-18.792-21.758-43.517-42.528-43.517-17.802 0-38.571 24.725-38.571 47.472zm11.868 81.1c0 12.857 10.88 19.78 24.725 19.78 20.77 0 27.693-31.649 0-38.572-13.846 0-20.769 6.923-24.725 18.791zm26.703-231.43c0 17.802 20.77 37.583 42.528 37.583 24.725-4.945 36.593-15.825 40.55-42.528 0-22.747-15.825-38.572-40.55-38.572-26.703-4.945-44.506 15.825-42.528 43.517zm39.56 81.1c0 9.89 7.913 18.79 18.792 18.79 15.824 0 20.77-10.879 20.77-23.736 0-10.879-4.946-18.791-20.77-18.791-10.879 0-18.791 7.912-18.791 23.736zm0-167.144c0 11.868 7.913 18.791 23.737 18.791 10.88 0 15.824-6.923 15.824-22.747 0-11.868-8.9-20.77-20.769-20.77-15.824 0-18.791 12.858-18.791 24.726z"/></svg>