<svg xmlns="http://www.w3.org/2000/svg" width="1000" height="1000">
  <path d="M103.642 637.917h667.415c47.767 0 53.075-9.288 34.499-57.055-63.69-164.532-127.38-325.084-188.416-489.615C576.007-10.923 601.218 10.307 496.395 5c-41.133 0-55.728 9.288-63.69 42.46-49.094 122.072-91.554 242.817-140.648 363.562-39.806 96.862-39.806 96.862-140.648 96.862-72.978 0-72.978 0-95.535 66.343-14.595 47.767-10.615 63.69 47.768 63.69zM85.065 951.058c-9.288 25.21 0 41.133 26.538 41.133 88.9 7.961 99.515 3.98 127.38-79.612 3.98-3.98 3.98-7.961 3.98-13.269 9.288-38.479 29.191-50.42 72.978-50.42 124.726 7.96 256.086 0 387.446 0 76.958 0 61.036-7.962 91.554 63.689 29.19 83.593 29.19 83.593 114.11 79.612h6.635c33.172 0 43.787-15.922 29.191-43.787-26.537-63.69-49.094-126.052-68.997-189.742-9.288-22.557-22.557-33.172-51.748-33.172H211.118c-14.596 0-41.133 10.615-45.114 18.577-27.864 67.67-54.401 140.648-80.939 206.991zm313.142-443.174c38.479-106.15 76.958-204.338 110.13-298.546h14.595c34.5 94.208 75.632 192.396 111.458 298.546z" style="fill:#000;fill-opacity:1;fill-rule:nonzero;stroke:none;"/>
</svg>
