<svg xmlns="http://www.w3.org/2000/svg" width="1000" height="1000">
  <path d="M749.728 72.253C824.2 116.462 883.54 175.803 927.75 250.276c44.803 77.143 67.253 160.418 67.253 249.726 0 89.308-22.45 172.583-67.253 249.726C883.541 824.2 824.2 883.54 749.728 927.75c-77.143 44.803-160.418 67.253-249.726 67.253-89.308 0-172.583-22.45-249.726-67.253-74.473-44.209-133.814-103.55-178.023-178.022C27.451 672.585 5 589.31 5 500.002c0-89.308 22.45-172.583 67.253-249.726 44.209-74.473 103.55-133.814 178.023-178.023C327.419 27.45 410.793 5 500.496 5c89.011 0 172.089 22.45 249.232 67.253zm-450.99 308.572c1.285 85.056 4.252 146.078 8.9 182.968 5.242 40.253 16.814 74.868 34.616 103.847 12.56 19.78 28.978 38.571 49.45 56.373 11.176 9.198 27.396 18.495 48.462 27.693 22.45 9.89 43.22 16.516 62.308 19.78 23.044 3.956 40.352 2.473 51.923-4.45 11.572-6.924 19.979-22.253 25.22-45.99 5.242-21.758 7.418-46.483 6.429-74.176-.99-27.692-4.45-52.12-10.385-73.187-13.846-49.45-41.538-95.934-83.077-139.45-11.176-11.869-32.34-30.364-63.297-55.386l-42.527-33.626c15.131 7.22 32.34 16.12 51.428 26.703 38.275 21.066 66.957 39.56 86.045 55.385 26.406 20.473 51.132 48.462 74.176 84.066 25.714 39.56 41.241 75.462 46.483 107.803 2.67 21.066 2.967 44.209.99 69.23-1.979 18.495-4.946 37.287-8.902 56.375a1053.751 1053.751 0 0 0-5.934 22.747c17.11-11.868 34.319-27.99 51.429-48.462 34.912-41.538 52.418-83.77 52.418-126.594 0-38.868-2.67-69.527-7.913-91.978-7.22-28.978-20.472-55.088-39.56-78.132-20.473-25.714-51.132-51.429-91.978-77.143-29.67-18.495-63-33.923-99.89-46.484-30.364-9.89-62.309-17.802-95.935-23.736-24.429-4.648-48.462-7.616-72.198-8.901l-28.682-1.978z" style="fill:#000;fill-opacity:1;fill-rule:nonzero;stroke:none;"/>
</svg>
