<svg xmlns="http://www.w3.org/2000/svg" width="1000" height="1000">
  <path d="M5.629 498.152C3.206 767.134 224.934 994.92 496.339 994.92c270.193 4.847 495.555-216.881 497.979-487.075C999.164 234.017 777.436 8.655 503.608 5.02 234.627 2.596 5.628 225.536 5.628 498.152zm42.407 38.772c4.846-61.793 12.116-116.316 16.963-169.628h13.328c9.693 47.254 24.232 92.084 38.772 140.55zm69.063-157.511c3.635-92.084 83.602-170.84 174.474-170.84 95.719 0 174.475 78.756 174.475 170.84 2.423 95.718-78.756 179.32-174.475 179.32C198.278 555.1 117.1 475.132 117.1 379.414zm19.386 295.637c0-33.925 20.597-55.735 55.735-60.581 36.348-2.424 69.062 26.656 70.274 60.581 0 35.137-27.867 64.216-61.793 64.216-38.772 2.424-67.851-24.232-64.216-64.216zm35.137-477.381c38.772-37.561 82.39-69.063 130.856-101.777 2.423 32.714 3.635 54.523 8.481 71.486-44.83 10.904-88.449 23.02-135.702 36.349 0-3.635-3.635-6.058-3.635-6.058zm71.486 679.723c26.656-20.598 44.83-32.714 61.793-47.253 27.868 31.502 60.582 66.64 87.237 99.353 0 3.635 0 7.27-1.211 8.481-46.042-18.174-93.296-41.195-147.819-60.58zm19.386-282.31c35.137-4.846 60.582-4.846 92.084-7.27L304.9 665.358c-13.328-24.232-25.444-43.619-42.407-70.274zm67.851 153.877c-2.423-99.353 75.121-178.109 169.628-178.109 95.719 0 173.263 76.333 173.263 170.84 0 95.718-77.544 175.686-169.628 175.686-94.507 2.423-173.263-72.698-173.263-168.417zm102.989-598.544c3.635-32.714 35.137-64.216 66.64-64.216 36.348 2.423 69.062 35.137 69.062 67.85 0 30.292-32.714 65.429-69.063 65.429-33.925 0-66.64-35.137-66.64-69.063zm7.27 387.721c19.386-30.29 36.348-64.216 59.37-98.142 20.597 33.926 42.406 65.428 60.58 98.142zm24.232-284.733h73.91c-12.117 26.656-21.81 49.677-38.773 81.18-14.54-31.503-25.444-50.889-35.137-81.18zm67.851 134.491c0-96.93 79.968-179.32 176.898-179.32 93.295 0 170.84 78.755 170.84 176.897 0 89.66-77.545 169.628-170.84 173.263-89.66 0-173.263-79.968-176.898-170.84zm79.968 550.08v-12.117c27.867-29.079 56.946-61.793 86.025-95.718 15.751 14.54 32.714 26.655 56.947 47.253-48.465 19.386-96.93 42.407-142.972 60.581zm31.502-350.161c31.502 2.423 60.581 2.423 90.872 7.27-12.116 26.655-25.444 46.042-36.349 70.274-16.962-24.232-32.714-50.888-54.523-77.544zm43.619-420.435 13.328-67.851c43.618 29.079 88.448 60.581 129.644 93.295-2.423 4.847-2.423 7.27-6.058 10.905-42.407-13.328-89.66-25.445-136.914-36.35zm52.1 507.672c2.423-33.925 19.386-60.581 59.37-60.581 37.56-2.424 65.427 26.656 65.427 60.581 0 39.984-25.444 64.216-61.793 64.216-36.348 0-67.85-29.079-63.004-64.216zM885.27 507.845l39.984-140.549c3.635 0 7.27 0 7.27-3.634l18.174 169.628c-31.502-9.693-48.465-18.175-65.428-25.445z" style="fill:#000;fill-opacity:1;fill-rule:nonzero;stroke:none;"/>
</svg>
