<svg xmlns="http://www.w3.org/2000/svg" width="1000" height="1000">
  <path d="M500.496 5c272.968 0 494.507 221.54 494.507 495.002 0 270.495-218.572 495.001-495.001 495.001C229.506 995.003 5 776.431 5 500.002 5 229.506 223.572 5 500.496 5zM203.792 644.892s0 7.912 6.923 7.912h282.858C440.166 731.925 386.76 796.211 334.342 868.41h52.418c32.637 7.913 54.395-.989 80.11-39.56 33.626-45.495 65.275-84.066 91.978-123.627 31.648-40.55 51.429-52.418 98.901-52.418h78.133c66.264 0 58.351 11.869 58.351-59.34 0-25.715 0-25.715-31.648-25.715H657.749c45.495-66.264 90.99-126.594 136.484-189.89H499.507c59.341-80.11 106.814-145.386 158.242-225.496h-51.428c-39.56-5.934-59.341 7.912-74.176 33.627-38.572 59.34-78.132 111.758-117.693 164.176-12.857 19.78-27.692 19.78-46.484 19.78H230.495c-19.78 0-32.637 7.912-26.703 26.704v24.725c-5.934 34.615 6.923 40.55 32.637 40.55h97.913c-43.517 66.264-90.99 124.615-130.55 182.967zm164.176-85.055c26.704-31.648 46.484-58.352 66.264-86.044 0-4.945 12.857-11.868 12.857-11.868h183.957c-24.725 39.56-52.418 66.264-72.198 91.978 0 5.934-6.923 5.934-11.868 5.934z" style="fill:#000;fill-opacity:1;fill-rule:nonzero;stroke:none;"/>
</svg>
