<svg xmlns="http://www.w3.org/2000/svg" width="1000" height="1000">
  <path d="M502.784 537.296v-3.341c-64.59-76.84-132.52-159.247-191.541-237.2-41.204-46.77-110.247-131.405-119.156-139.2-4.455 14.476-31.181 138.087-43.431 182.632-26.727 111.36-55.68 224.949-82.407 334.083C50.658 761.132 27.272 843.539 5 930.4v8.91h193.768v-8.91c30.068-130.292 57.908-260.585 89.09-393.104v-3.341c10.022 8.909 106.906 121.384 144.769 167.042 26.726 28.953 47.885 55.68 75.725 82.407C509.466 782.29 697.666 554 712.143 537.296l3.34-3.341c0 2.227 51.227 222.722 66.818 277.29 10.022 44.544 20.045 82.406 26.726 119.156 4.455 8.908 4.455 8.908 10.023 8.908H995c0-8.908-181.518-778.414-185.973-781.755-51.226 64.59-103.566 122.498-152.564 191.541-47.886 59.022-99.112 123.611-153.679 188.2zM287.857 129.714c0 31.181 27.84 54.567 51.226 81.294 33.409 41.203 53.454 71.27 93.544 96.884 27.84 20.045 64.59 7.795 85.748-13.363 16.704-16.705 38.976-40.09 56.794-55.681 20.045-21.159 47.885-40.09 81.294-66.817 16.704-14.477 135.86-96.884 135.86-96.884l6.682-6.682c3.34-4.454-1.114-12.25-11.136-4.454-46.772 24.5-347.447 220.495-290.653 197.11-10.022 4.454-16.704 4.454-22.272 0-10.023-13.364-15.59-22.273-26.727-34.523-80.18-90.202-104.68-124.724-130.292-124.724-15.59 0-30.068 16.704-30.068 27.84z" style="fill:#000;fill-opacity:1;fill-rule:nonzero;stroke:none;"/>
</svg>
