<svg xmlns="http://www.w3.org/2000/svg" width="1000" height="1000">
  <path d="m919.302 850.524-106.79-290.217h70.356c54.023 0 57.792-33.922 57.792-50.254 0-21.358-16.332-36.434-57.792-36.434h-87.944l-18.846-56.536h106.79c79.15 0 72.868-86.688 0-86.688H739.644l-89.2-216.092C619.033 40.178 573.805 5 507.218 5c-65.33 0-101.764 22.614-143.224 109.303L276.05 330.395H134.083c-37.69 0-57.792 13.82-57.792 51.51 0 20.102 20.102 35.178 57.792 35.178h106.79l-18.845 56.536H111.469c-21.358 0-31.409 15.076-35.178 36.434-3.769 20.101 0 50.254 35.178 50.254h72.868L76.291 850.524c-7.538 17.589-16.332 35.178-16.332 50.254-12.564 109.302 169.607 120.61 216.092 20.101l35.178-121.866h391.98l36.435 121.866c13.82 60.305 55.28 74.125 106.79 74.125 62.817 0 103.02-55.28 72.868-144.48zM384.097 596.74l123.122-395.75 126.892 395.75z" style="fill:#000;fill-opacity:1;fill-rule:nonzero;stroke:none;"/>
</svg>
