<svg xmlns="http://www.w3.org/2000/svg" width="1000" height="1000">
  <path d="M5 500.496c0 271.98 220.55 494.507 495.496 494.507 271.98 0 494.507-220.55 494.507-495.496C995.003 227.528 773.464 5 500.496 5 226.54 5 5 225.55 5 500.496zm97.912 7.912v-.989h167.144v.99c0 .988-.99.988-.99 1.977-27.692 26.704-55.384 53.407-82.087 80.11-27.693-27.692-55.385-55.384-84.067-82.088zm0-18.791c28.682-28.681 56.374-55.385 84.067-84.066 26.703 28.681 55.384 55.385 83.077 84.066zm96.924 115.715c29.67-28.682 55.385-55.385 84.066-84.067V688.41h-.989c-27.692-26.704-53.407-54.396-81.1-82.088-.988 0-.988-.99-1.977-.99zm0-212.638c28.681-27.693 55.385-55.385 84.066-84.067v167.144c-1.978-.99-80.11-79.121-84.066-83.077zM302.693 687.42V521.265c1.978.99 80.11 80.11 82.088 84.067-27.692 26.703-54.395 54.395-82.088 82.088zm0-212.638V308.627c27.693 28.682 54.396 56.374 82.088 83.078-27.692 27.692-54.395 55.384-82.088 83.077zm12.857 245.275c1.979 0 162.199-.989 166.155 0-26.703 27.693-55.385 55.385-82.088 83.078-28.682-27.693-55.385-55.385-84.067-83.078zm0-17.802v-.989c27.693-28.681 55.385-54.396 84.067-83.077 26.703 28.681 55.385 55.385 83.077 83.077-.99.99-1.978.99-1.978.99h-161.21zm0-406.485h166.155a3212.09 3212.09 0 0 0-82.088 82.088c-27.693-27.692-55.385-55.384-84.067-82.088zm0-18.791c28.682-28.682 56.374-56.374 84.067-83.077 25.714 26.703 54.395 54.395 82.088 83.077zm96.924 540.99c28.681-28.68 55.385-56.373 84.066-85.054v167.143c-28.681-27.692-55.385-56.374-84.066-82.088zm0-638.903C441.155 151.374 466.87 124.671 496.54 95v168.133c-28.681-27.693-55.385-56.374-84.066-84.067zM515.33 900.058c-.989-1.978-.989-163.187 0-166.154 26.704 28.68 55.385 55.384 82.089 84.066-26.704 26.703-55.385 54.396-82.089 82.088zm0-636.925V95.989c1.978.99 80.11 81.1 82.089 83.077-26.704 27.693-55.385 56.374-82.089 84.067zm12.858 456.924h166.154c-26.703 27.693-55.385 55.385-82.088 83.078-28.682-27.693-56.374-55.385-84.066-83.078zm0-17.802c27.692-28.681 56.373-55.385 84.066-83.077 25.714 27.692 54.396 54.396 82.088 83.077zm0-406.485h167.143c-27.692 27.693-56.374 54.396-83.077 82.088-27.693-27.692-56.374-55.384-84.066-82.088zm0-18.791c27.692-28.682 56.373-56.374 84.066-83.077 25.714 26.703 54.396 54.395 82.088 83.077zm96.923 328.353c27.692-28.682 55.385-56.374 84.066-85.056V688.41c-28.681-27.693-56.374-56.374-84.066-83.077zm0-212.638 84.066-84.067v166.155c0 .989 0 .989-.989.989-.989-.99-.989-.99-1.978-.99-27.692-27.692-54.396-55.384-81.099-82.087zM726.98 687.42V521.265h.99c.988 0 .988.99.988.99 27.693 27.692 55.385 55.384 81.1 82.088-26.704 27.692-55.385 55.384-83.078 83.077zm0-212.638V308.627c27.693 28.682 56.374 56.374 82.089 83.078-25.715 27.692-54.396 55.384-82.089 83.077zm13.847 32.637H906.98c-27.692 27.693-56.374 55.385-82.088 83.077-28.682-27.692-56.374-55.384-83.077-83.077-.99.99-.99.99-.99 0zm0-17.802c26.703-29.67 55.384-55.385 83.077-84.066 26.703 28.681 55.385 55.385 83.077 84.066z" style="fill:#000;fill-opacity:1;fill-rule:nonzero;stroke:none;"/>
</svg>
