<svg xmlns="http://www.w3.org/2000/svg" viewBox="0 0 1000 1000"><path d="M802.895 557.49H504.372c11.241-6.245 26.23-18.735 46.215-34.973 19.985-14.989 34.973-21.234 41.219-29.977 3.747-4.996 13.74-8.744 19.984-16.238h191.105c16.238 0 27.48-3.747 38.72-13.74 9.993-9.992 12.491-21.233 12.491-36.222 0-12.49-3.747-22.483-12.49-33.724-7.495-12.49-22.483-12.49-38.72-12.49H704.22c14.989-22.484 24.981-47.465 32.475-69.948 23.732-68.697 16.238-132.399-26.23-192.353-23.732-32.476-49.962-62.453-84.935-81.189C590.556 16.652 555.583 6.66 515.613 5.41c-37.471-1.249-76.192 0-117.41 8.744-36.223 6.245-79.94 12.49-108.668 41.218-2.498 2.498-3.747 0-4.996 2.498-23.732 16.238-24.98 39.97-9.992 62.453 16.237 24.98 38.72 32.475 66.2 19.985 78.69-37.472 149.885-51.211 214.836-28.729 27.48 11.242 47.464 24.981 66.2 44.966 18.736 23.732 27.479 46.215 27.479 73.694 0 49.962-19.985 98.675-73.694 149.886H197.106c-12.49 0-23.732 2.498-34.974 12.49-12.49 9.993-16.237 21.235-16.237 33.725 0 14.989 7.494 26.23 16.237 36.223 9.993 11.241 22.483 13.74 34.974 13.74h249.81c-26.23 23.731-48.713 39.969-66.2 56.206-6.245 6.246-13.74 16.238-24.981 24.981h-158.63c-12.49 0-23.731 4.997-34.973 12.49-12.49 9.993-16.237 24.982-16.237 36.223 0 13.74 7.494 27.48 16.237 34.974 11.242 11.241 22.483 14.988 34.974 14.988h101.173c-16.238 44.966-22.483 91.181-13.74 141.143 8.744 47.464 27.48 89.932 63.702 124.905 31.226 32.475 72.445 52.46 118.66 63.702 48.712 11.241 93.678 12.49 141.142 1.249 47.464-9.993 86.185-22.483 127.403-43.717 17.487-9.992 24.981-23.732 24.981-39.97 0-16.237-7.494-29.977-23.732-41.218-14.988-12.49-32.475-12.49-49.962-3.747-23.732 11.241-51.21 21.233-78.69 26.23-28.728 7.494-57.456 11.241-84.935 8.743-29.977-3.747-58.706-8.743-81.188-23.732-22.483-13.74-43.717-36.222-52.46-62.453-19.985-52.46-13.74-104.92 16.237-151.135h397.198c16.238 0 29.977-4.996 38.72-14.988 8.744-7.494 12.491-18.736 12.491-32.476 0-8.743-2.498-17.486-4.996-23.731-2.498-7.495-12.49-12.491-21.234-19.985-6.245-7.495-13.74-7.495-24.98-7.495z"/></svg>