<svg xmlns="http://www.w3.org/2000/svg" width="1000" height="1000">
  <path d="M5 796.14V601.566c0-647.23 990-646.222 990 0v194.572c0 114.929-140.132 117.953-140.132 0v-173.4c0-115.937-141.14-111.904-141.14 0v173.401c0 114.929-140.133 114.929-140.133-2.016V609.632c0-101.823-143.157-104.847-143.157 6.049v176.426c0 116.945-143.157 114.928-143.157 4.032V615.681c0-113.92-141.14-108.88-141.14 1.008v177.434C146.14 903.003 5 897.962 5 796.139z" style="fill:#000;fill-opacity:1;fill-rule:nonzero;stroke:none;"/>
</svg>
