<svg xmlns="http://www.w3.org/2000/svg" viewBox="0 0 1000 1000"><path d="M511.01 234.768c11.093 20.17 26.22 41.348 36.305 59.5 10.085 16.136-4.034 62.525-25.212 71.601-20.169 11.094-46.39 0-62.525-20.169-9.076-20.17-14.118-39.33 7.06-65.55 9.076-10.085 14.118-30.255 24.203-45.382zM13.834 462.683h6.051c5.042 50.423 10.085 101.855 15.127 146.228-5.042 5.042-5.042 5.042-10.085 5.042-29.245-49.415-20.17-100.847-11.093-151.27zm6.051-25.212c5.042-50.424 15.127-91.771 45.381-122.025-20.17 35.296-10.085 85.72-45.381 122.025zm25.212 227.914c20.17 24.204 40.339 50.424 65.55 81.686-30.254 0-60.508-36.305-65.55-81.686zM55.18 564.538c21.178 44.373 55.466 85.72 46.39 142.195-42.356-17.144-66.559-86.729-46.39-142.195zm0-16.135c-35.296-41.348-25.211-126.06 16.136-161.356 5.042 101.856 5.042 132.11-16.136 161.356zm21.18-177.491c-21.178-29.246 18.153-94.796 75.636-127.068-25.212 50.424-41.348 97.822-75.636 127.068zm4.034 157.321c5.043-21.178 10.085-45.381 14.119-70.593h12.101c0 5.043 0 15.127 4.034 19.161 0 21.178 0 42.356 10.085 56.475 16.136 20.169 10.085 45.38 10.085 66.559-4.034 9.076-10.085 20.169-15.127 20.169-9.077 0-21.178-6.05-21.178-11.093-14.119-25.212-23.195-49.415-14.119-80.678zm10.085-96.813c0-19.161-5.042-39.33 4.034-54.457 12.101-26.22 32.27-46.39 47.398-70.593 0 0 4.034 0 10.085-6.051-6.051 41.347-15.127 76.644-21.178 111.94 0 10.085-10.085 19.161-15.127 19.161-5.043 6.05-25.212 0-25.212 0zm25.212 208.753c21.178 45.382 66.559 70.593 71.601 116.983-50.423 14.119-71.601-41.347-71.601-116.983zm26.22-213.795c4.034-4.034 10.085-14.119 10.085-19.161 5.042-20.17 14.118-20.17 30.254-20.17 5.042 20.17 14.118 39.33 20.17 54.458 10.084 16.135-15.128 91.77-30.255 101.855-6.05 0-26.22-4.034-26.22-10.084-15.127-35.297-35.297-70.593-4.034-106.898zm4.034 178.499c0-10.085 0-26.22 6.05-35.297h20.17c10.085 20.17 30.254 39.33 35.297 60.509 10.084 20.17 5.042 45.38 5.042 71.601 0 0-20.17 5.043-25.212 0-30.254-16.135-50.423-61.517-41.347-96.813zm15.127-263.21c-4.034-21.179 5.042-41.348 26.22-56.475l50.424-50.424c4.034 50.424-5.043 90.763-41.348 126.059-4.034 5.042-14.118 5.042-24.203 10.085-6.05-10.085-11.093-20.17-11.093-29.246zm35.296 201.693c11.094-19.16 16.136-45.38 21.178-66.559 5.043-19.16 10.085-24.203 20.17-19.16 16.135 35.296 25.211 61.516 35.296 90.762 11.093 16.135-5.042 60.508-19.16 71.601-6.052 0-12.102 4.034-16.136 0-25.212 0-50.424-50.424-41.348-76.644zm16.136-121.016c-5.042-15.127-10.085-35.297 0-51.432 5.042-20.17 25.212-40.34 41.347-60.508 0-4.034 9.076-4.034 14.119-10.085 5.042 25.212 9.076 50.423 16.135 70.593 5.043 16.135-25.211 66.559-46.39 66.559-10.084 0-20.169-11.093-25.211-15.127zm20.17 267.245c5.042-14.12 0-30.255 0-44.373 5.042 0 5.042-5.043 5.042-5.043 10.084 5.043 16.135 10.085 25.211 15.128 10.085 20.169 26.22 40.338 35.297 55.465 5.042 5.043 10.085 11.094 10.085 15.127-5.043 11.094-5.043 31.263-10.085 31.263-9.076 4.034-25.212 4.034-35.297 0-30.254-15.127-35.296-35.296-30.254-67.567zm30.253-231.949c0-5.042 0-10.084 5.043-16.135 9.076-15.127 25.212-34.288 40.339-54.458 26.22-10.084 31.262 14.119 46.39 35.297 24.203 35.296 10.084 66.559-6.052 101.855-5.042 9.077-20.169 19.161-35.296 19.161-10.085 0-24.203-10.084-29.246-19.16-11.093-21.179-16.135-41.348-21.178-66.56zm21.178 156.313c9.077-14.118 9.077-30.254 14.119-44.373h30.254c11.093 20.17 26.22 39.33 41.347 60.509 9.077 10.084 5.043 55.466-9.076 65.55-17.144 15.127-36.305 11.094-57.483-10.084-5.042-5.043-10.084-14.119-14.118-20.17-12.102-15.127-21.178-30.254-5.043-51.432zm14.119-319.685c15.127-18.152 36.305-39.33 56.474-59.5h10.085c10.085 41.348 30.254 75.636-4.034 115.974-17.144 15.127-41.347 26.22-57.483 15.127-10.084-15.127-19.16-55.465-5.042-71.601zm66.559 239.008c10.085-26.22 20.17-50.424 26.22-75.636h24.204c15.127 31.263 30.254 61.517 44.372 85.72 7.06 16.136-9.076 61.517-29.245 70.593-15.127 16.136-35.297 10.085-51.432-5.042-24.204-25.212-30.255-44.373-14.119-75.635zm10.085-172.449c4.034-10.085 16.135-25.212 20.17-35.296 5.041-19.161 15.126-31.263 29.245-25.212 17.144 25.212 31.262 45.381 31.262 70.593 4.034 16.135-5.042 36.305-14.118 55.466-17.144 15.127-41.348 15.127-56.475 5.042-24.203-14.119-30.254-44.373-10.084-70.593zm4.034 345.906c12.101-21.178 16.135-41.348 21.177-61.517 3.026-5.043 18.153-7.06 20.17 0 16.135 20.17 30.254 44.373 46.39 65.55 0 11.094 0 26.22-7.06 36.305-9.076 19.161-35.296 24.204-54.457 10.085-26.22-10.085-30.254-31.263-26.22-50.423zm66.559-66.56c0-5.042 0-10.084 5.042-16.135 9.076-19.161 21.178-40.339 35.296-59.5h31.263c9.076 19.161 26.22 44.373 35.297 65.55 9.076 15.128-9.077 55.467-30.255 71.602-15.127 9.076-36.305 9.076-50.423-12.101-12.102-14.12-16.136-30.255-26.22-49.416zm0-182.533c0-5.042 0-10.084 5.042-16.135 9.076-15.127 21.178-34.288 35.296-54.458h31.263c9.076 20.17 26.22 39.33 35.297 54.458 21.177 26.22-21.178 97.821-50.424 97.821-11.093 0-26.22-6.05-30.254-15.127-12.102-21.178-21.178-41.347-26.22-66.559zm91.77 273.296c-4.033-5.043 0-10.085 6.051-20.17 9.077-21.177 24.204-45.38 34.288-65.55h25.212c6.05 20.17 15.127 44.373 21.178 65.55 4.034 11.094 0 26.22-6.05 31.263-15.128 19.16-35.297 29.246-56.475 19.16-9.076-4.033-18.153-19.16-24.204-30.253zm15.128-374.143c5.042-11.093 9.076-15.127 9.076-26.22 6.05-10.085 6.05-20.17 6.05-24.203 24.204-12.102 35.297 0 41.348 19.16 4.034 10.085 15.127 25.212 24.203 35.297 9.076 21.178 9.076 46.39-9.076 65.55-15.127 15.128-36.305 15.128-56.474 5.043-24.204-19.161-30.255-49.415-15.127-74.627zM557.4 524.2c10.085-21.178 16.135-41.347 25.212-66.559h26.22c15.127 35.297 29.246 66.56 40.339 95.805 5.042 11.093-16.136 51.432-36.305 60.508-15.127 16.136-39.33 10.085-51.432-9.076-24.204-26.22-24.204-51.432-4.034-80.678zm70.593-248.083c10.085-11.094 10.085-26.22 14.118-41.348h12.102c14.119 20.17 35.297 41.348 50.424 59.5 15.127 16.136 9.076 56.474-5.043 66.559-15.127 16.136-41.347 10.085-57.483-10.085-14.118-25.211-33.28-44.372-14.118-74.626zm5.042 404.396c-5.042-21.178-15.127-45.38 9.076-66.559 16.136-12.101 21.178-30.254 31.263-44.373h31.263c6.05 16.136 15.127 35.297 20.169 54.458 5.042 8.068 5.042 11.093 5.042 16.135-16.135 19.161-30.254 40.34-51.432 61.517-15.127 14.119-36.305 5.043-45.38-21.178zm0-227.914v-11.093c9.076-15.127 25.212-34.288 35.297-54.458h25.211c15.128 20.17 31.263 39.33 41.348 60.509 5.042 0 5.042 10.084 5.042 10.084-10.085 25.212-15.127 49.415-31.262 75.636-9.077 20.169-35.297 20.169-45.382 0-14.118-26.22-21.178-50.424-30.254-80.678zm71.602 258.168c9.076-15.127 25.211-39.33 39.33-55.465 5.042-10.085 12.102-10.085 21.178-15.128 5.042 31.263 5.042 49.416 9.076 75.636 0 21.178-44.373 50.423-65.55 45.38-15.128-4.033-19.161-30.253-4.034-50.423zm20.169-151.27c0-6.051 0-8.068 5.042-16.136 5.043-19.16 14.119-45.38 26.22-66.559 3.026-9.076 9.077-14.118 9.077-19.16 5.042 5.042 15.127 10.084 15.127 19.16 11.093 21.178 15.127 47.398 26.22 71.602 9.076 21.177-21.178 71.601-46.39 71.601-4.033 0-16.135-6.05-20.169-11.093-10.085-14.119-10.085-30.254-15.127-49.415zm0-208.754c5.042-15.127 5.042-30.254 5.042-56.474 10.085 12.102 20.17 16.136 26.22 21.178 9.077 15.127 24.204 35.296 35.297 55.466 9.076 16.135 4.034 55.466-11.093 60.508-20.17 16.136-36.305 0-45.381-14.119-15.127-21.177-26.22-40.338-10.085-66.559zm40.339-115.974c30.254 35.297 75.635 55.466 80.678 106.898 0 9.076-5.043 24.203-9.077 29.246-11.093 0-26.22-5.043-30.254-10.085-36.305-30.254-46.39-70.593-41.347-126.059zm20.17 424.566c0-14.118 10.084-24.203 15.126-39.33 10.085-15.127 20.17-36.305 31.263-50.424h19.16c5.043 20.17 16.136 35.297 10.086 54.458 0 21.178-10.085 41.347-24.204 56.474-11.093 9.077-26.22 15.127-41.347 26.22-4.034-17.143-10.085-31.262-10.085-47.398zm21.177-232.956c9.076-9.077 9.076-25.212 9.076-39.33h21.178c14.119 20.169 24.204 39.33 35.297 60.508 10.084 15.127-5.043 80.677-21.178 95.804-10.085 5.043-25.212 5.043-30.254-10.084-14.119-35.297-35.297-65.551-14.119-106.898zm9.076 334.812c0-54.457 56.475-75.635 66.56-121.017 0 81.687-10.085 121.017-66.56 121.017zm35.297-454.82 5.042-6.051c20.17 30.254 40.339 56.474 56.475 86.728 5.042 5.043 5.042 14.119 5.042 20.17-5.042 10.084-10.085 19.16-15.127 30.254-11.093-6.051-20.17-11.093-30.254-20.17-11.093-21.177-21.178-40.338-16.136-66.559 5.043-15.127 0-30.254-5.042-44.372zm0-56.475c45.381 9.076 91.77 85.72 75.635 121.017-35.296-29.246-50.423-76.644-75.635-121.017zm25.212 359.016c-4.034-25.212 0-44.373 0-69.585 6.05-15.127 11.093-26.22 15.127-41.347 0-15.127 0-25.212 5.042-40.339h6.05c5.043 5.043 5.043 10.085 10.086 19.161 5.042 21.178 14.118 47.398 14.118 71.602-5.042 21.177-14.118 46.39-24.203 71.601-11.093 10.085-26.22 4.034-26.22-11.093zm15.127 138.16c26.22-31.262 47.398-61.516 65.55-87.737 0 42.356-30.254 82.695-65.55 87.737zm11.093-40.338c-11.093-56.475 24.203-92.78 45.381-137.153 15.127 65.551-5.042 115.975-45.381 137.153zm29.246-319.686c42.355 39.33 46.39 120.008 16.135 161.356-26.22-50.424-30.254-106.898-16.135-161.356zm0-76.644c36.305 35.297 46.39 76.644 51.432 127.068-40.34-36.305-26.22-91.771-51.432-127.067zm36.305 303.55c6.05-49.415 10.084-100.847 10.084-151.27 20.17 50.423 25.212 101.855 0 151.27z"/></svg>