<svg xmlns="http://www.w3.org/2000/svg" width="1000" height="1000">
  <path d="M500.496 995.003c275.935 0 494.507-224.506 494.507-495.496C995.003 226.54 773.464 5 500.496 5 223.572 5 5 229.506 5 499.507c0 276.924 224.506 495.496 495.496 495.496zM160.276 618.19c61.317-112.75 122.636-224.507 184.944-336.266 16.813-30.66 42.528-45.495 76.154-45.495H716.1c31.649 0 42.528 20.77 27.693 46.484-17.803 32.637-35.605 63.297-53.407 94.945 44.506 0 90 .99 133.517.99 4.945 0 9.89 0 14.835.988 21.758 2.967 31.649 23.737 20.77 41.539-54.396 95.934-109.781 191.869-164.177 285.825-16.813 28.682-42.528 42.528-76.154 42.528-46.484-.99-92.967-.99-140.44-.99h-220.55c-34.616 2.968-67.253-2.966-90-32.637-22.748-31.648-25.715-65.275-7.913-97.912z" style="fill:#000;fill-opacity:1;fill-rule:nonzero;stroke:none;"/>
</svg>
