<svg xmlns="http://www.w3.org/2000/svg" viewBox="0 0 1000 1000"><path d="M500.496 5C223.572 5 5 229.506 5 500.002c0 276.43 224.506 495.001 495.002 495.001 276.43 0 495.001-224.506 495.001-495.001C995.003 226.539 773.464 5 500.496 5zM92.033 506.43c0-232.418 185.935-417.364 421.32-417.364 227.474 0 411.43 184.946 411.43 417.364 0 225.495-183.956 414.397-411.43 414.397-232.418 0-421.32-182.967-421.32-414.397zm35.605 0c-8.901 209.671 180 384.727 381.76 380.77 213.626 0 380.77-164.176 386.704-377.803 2.967-188.901-142.418-389.671-386.705-389.671-244.286 0-390.66 200.77-381.76 386.704zm25.714 2.967c0-149.34 69.231-262.089 209.671-329.341 106.814-51.43 213.627-42.528 322.419 15.824-99.89 0-145.385 60.33-188.902 133.517-13.846 24.725-26.703 33.626-56.374 33.626h-7.912c-20.77 0-38.571 5.934-38.571 27.693 0 20.769 17.802 24.725 33.626 29.67 17.802 0 33.627-4.945 33.627 15.824 0 26.704-20.77 21.759-33.627 21.759-15.824 4.945-30.66 4.945-42.528 8.9-8.9 3.957-21.758 17.803-17.802 21.759 0 11.868 8.901 26.703 17.802 26.703 17.803 6.923 33.627 6.923 55.385 11.869-16.813 73.187-34.615 141.429-55.385 213.627-64.285-38.572-86.044-33.627-110.77 30.66-78.131-69.232-120.659-158.243-120.659-262.09zm180 301.65c102.858-5.934 149.342-70.22 180.001-155.276 8.901-33.626 20.77-64.286 29.67-97.912 5.935-26.703 12.858-39.56 39.561-39.56 8.901 0 15.825 0 24.726-2.968 8.9-5.934 17.802-17.802 17.802-26.703s-8.901-17.802-17.802-21.758c-12.857-8.901-24.726-8.901-33.627-8.901-3.956-24.726 2.967-37.583 29.67-37.583 3.957 0 12.858 0 17.803-4.945 16.813 0 34.615-3.956 34.615-24.725 0-17.803-12.857-27.693-30.659-27.693-8.901 0-17.802-2.967-30.66-2.967 8.902-39.56 21.759-73.187 52.418-106.813 11.868 29.67 20.77 58.351 60.33 46.483 33.627-8.9 33.627-34.615 28.682-68.242 124.615 89.012 202.748 317.474 47.472 506.376-111.758 136.484-325.385 167.143-450.001 73.187z"/></svg>