<svg xmlns="http://www.w3.org/2000/svg" width="1000" height="1000">
  <path d="M5 500.496c0 271.98 220.55 494.507 495.496 494.507 271.98 0 494.507-220.55 494.507-495.496C995.003 227.528 773.464 5 500.496 5 226.54 5 5 225.55 5 500.496zm64.286 79.121c-21.758-135.495 7.912-255.165 93.956-361.979C237.418 125.66 337.31 74.231 453.023 60.385 683.463 32.692 898.08 191.924 939.62 419.397l5.934 52.418c0 .989.989 4.945.989 7.912v42.527l-3.956 42.528c-8.902 90.99-52.418 170.11-113.737 235.385-73.187 78.133-162.198 121.65-268.023 139.451-11.868 1.979-24.725 1.979-38.572 3.957h-37.582l-44.506-4.946c-89.011-9.89-169.121-51.428-236.374-113.736C131.594 757.64 85.11 676.54 69.286 579.617zm4.945-85.055c-3.956 241.32 194.836 433.188 425.276 435.166 240.33 1.978 435.166-193.846 433.188-429.232C936.652 273.023 748.74 71.264 504.452 71.264c-237.363 0-426.265 188.902-430.221 423.298zm34.616 70.22C80.165 401.595 154.34 243.352 294.78 155.33c74.176-46.484 155.275-62.308 241.32-57.363 182.967 10.88 336.265 153.298 364.946 334.287 30.66 195.825-82.088 385.716-269.012 450.002-31.648 10.879-63.297 14.835-96.923 18.791h-3.956c-.99-6.923 1.978-7.912 4.945-7.912 30.66-4.945 59.34-9.89 85.055-18.791 57.363-19.78 109.78-48.462 154.286-90 69.231-65.276 109.78-145.386 119.67-238.353 11.87-115.715-17.801-220.55-96.923-306.595-67.252-73.187-144.396-118.681-242.308-131.539-125.605-16.813-233.407 21.759-325.386 108.792C165.22 277.968 127.638 356.1 114.781 446.1c-2.967 14.836-2.967 30.66-4.945 46.484 1.978 0 3.956 1.978 3.956 1.978 20.769.99 19.78.99 20.769-19.78 3.956-78.132 33.626-147.363 84.066-208.682 5.934-10.88 16.813-19.78 25.714-30.66l2.968-2.967c7.912 2.967 5.934 6.923 2.967 12.857-50.44 48.462-84.067 107.803-97.913 174.067-41.538 199.78 83.077 393.628 281.87 434.177 82.087 16.814 162.198 1.978 238.352-35.604 3.956-1.978 6.923-3.956 9.89-5.934 0-.99-2.967-2.967-2.967-3.956l-7.912-14.836c-3.956 1.978-5.934 3.956-7.912 4.945-153.298 80.11-343.188 33.627-439.123-108.791-5.934-9.89-5.934-9.89 2.967-12.857 54.396 81.099 130.55 131.539 227.474 148.352 76.154 12.857 148.352-2.967 216.594-42.528 62.308-36.593 109.78-90 137.473-159.231 18.79-46.484 28.681-94.945 22.747-148.352-6.923 0-13.846 0-22.747 1.978 0 13.846.989 28.681 0 42.527-3.956 68.242-27.693 128.572-75.165 180.001-53.407 58.352-115.715 93.956-195.825 103.847-33.627 3.956-67.253 2.967-98.902-4.946-7.912-1.978-10.879-.989-16.813 1.978-7.912 5.935-18.791 0-24.725-6.923-2.967-10.879 0-18.79 10.879-23.736 8.901-2.967 17.802 0 21.758 10.88 1.978 5.933 5.934 7.911 9.89 8.9 87.034 18.792 169.122 2.967 242.309-53.406 68.242-52.418 108.791-119.671 116.703-204.726 14.836-161.21-92.967-306.595-241.319-324.397l-33.626-3.956c-1.979 0-2.968 0-5.935.989h-1.978c-2.967 21.758-2.967 21.758 18.792 22.747 126.594 5.934 225.495 112.748 240.33 239.342 11.868 102.857-24.725 186.923-106.813 251.21-2.967 1.977-4.945 3.955-5.934 4.944-7.913-2.967-5.935-6.923 0-9.89 19.78-13.846 36.593-32.637 51.428-51.429 2.967-1.978 4.945-4.945 5.934-9.89-4.945-3.956-11.868-8.9-16.813-11.868-3.956 1.978-5.934 2.967-6.923 7.912-42.528 54.396-98.901 85.055-169.121 93.957h-5.935c-4.945 0-5.934-2.967-7.912-4.945 1.978-.99 2.967-3.957 4.945-3.957l25.715-4.945c.989 0 2.967 0 4.945-.989 0-3.956-1.978-6.923-1.978-10.879 0-2.967-1.978-6.923-2.967-10.879-44.506 7.912-89.011 3.956-129.561-16.813-17.802-8.901-34.616-17.802-49.45-34.616l3.955-2.967c18.792 10.88 34.616 22.748 53.407 29.67 119.67 56.375 262.089-18.79 280.88-150.33 9.89-68.241-7.912-132.527-62.308-176.044-4.945-3.956-6.923-1.978-11.868-1.978-8.901 0-16.813-5.934-17.802-14.835 0-8.901 3.956-15.824 11.868-19.78 8.901-.99 17.802 3.956 19.78 10.879.99 2.967.99 3.956.99 5.934-.99 8.9 1.977 11.868 7.911 17.802 16.814 16.813 33.627 38.572 44.506 61.319 0 1.978.989 3.956.989 6.923 0 0 1.978 0 1.978 1.978 6.923-2.967 14.835-4.945 20.77-8.901-.99-2.967-2.968-6.923-2.968-8.901-42.527-83.077-107.802-130.55-201.759-135.495-10.879-1.978-21.758 0-32.637 0-3.956 0-5.934.989-9.89 4.945-3.956 9.89-15.824 11.868-24.726 4.945-6.923-5.934-8.9-15.824-1.978-22.747 5.934-5.934 17.803-8.902 24.726 0 2.967 3.956 7.912 3.956 11.868 3.956 42.528-3.956 86.044.989 124.616 20.769 78.132 40.55 123.627 101.868 135.495 188.902 1.978 7.912 1.978 14.835 9.89 17.802 8.9 5.934 6.923 18.791.989 22.747-4.945 7.912-14.835 9.89-22.747 1.978-5.935-5.934-8.902-16.813-1.979-22.747 7.913-6.923 7.913-10.88 4.946-16.813-7.913-15.824-4.946-32.638-7.913-50.44-8.9 1.978-14.835 5.934-19.78 7.912-5.934 1.978-2.967 3.956-.989 8.901 4.945 18.792 8.901 39.56 8.901 61.32 0 91.977-60.33 173.077-149.34 199.78-3.957 1.978-6.924 1.978-9.891 3.956 0 6.923.989 13.846 2.967 20.77 5.934 0 6.923 0 10.88-1.979 89.01-28.681 145.384-89.01 164.176-181.978.989-4.945 0-11.868 9.89-8.901-2.967 34.615-16.814 67.253-36.594 98.901 7.912 5.934 12.857 8.901 19.78 11.868 1.978-.989 2.967-2.967 4.946-5.934 22.747-39.56 35.604-82.088 37.582-127.583 5.934-129.56-86.044-248.242-221.54-270.99-129.56-21.758-262.088 60.33-296.703 186.924 0 4.945 0 7.912 2.967 13.846 4.945 5.934 2.967 16.813-2.967 22.748-8.902 4.945-19.78 2.967-25.715-5.935-5.934-8.9-1.978-18.79 8.901-22.747 5.934-1.978 7.912-4.945 8.901-10.879 17.803-108.792 106.814-170.11 216.595-190.88 11.868-3.956 25.714-3.956 40.55-4.945 6.922 0 7.911-3.956 7.911-8.901v-13.846h-16.813C376.869 211.704 294.781 266.1 239.396 365c-57.362 102.858-37.582 239.342 40.55 328.353 29.67 32.637 63.297 59.34 103.846 76.154 5.935 1.978 9.89 5.934 1.979 10.88-81.1-34.616-139.452-92.968-169.122-178.023-45.495-129.561-8.901-239.342 87.033-334.287-4.945-1.978-5.934-5.934-7.912-7.912-2.967-2.967-5.934-4.945-6.923-8.901-17.802 14.835-32.637 28.681-44.506 46.483-49.45 65.275-72.198 140.44-68.242 222.528 1.978 37.583 11.869 74.177 25.715 109.781 1.978 3.956 5.934 6.923 10.879 6.923 9.89 0 17.802 9.89 15.824 19.78-1.978 8.902-9.89 15.825-19.78 13.847-9.89-2.967-15.824-11.869-11.868-20.77 1.978-4.945 0-8.9-1.978-13.846-58.352-135.495-25.715-287.803 81.099-386.704 68.242-63.297 152.308-90.99 246.264-88.023 58.352 1.978 111.76 19.78 160.22 50.44 2.968.989 3.957 2.967 8.902 4.945 4.945-4.945 7.912-10.88 13.846-18.791l-8.901-4.945c-126.594-70.22-272.968-64.286-398.573 10.879-4.945 2.967-8.9 4.945-8.9 12.857 0 9.89-8.902 15.824-17.803 15.824-9.89-1.978-15.824-10.879-14.835-19.78 0-9.89 10.879-17.802 19.78-14.835 7.912 4.945 10.88 0 16.813-2.967 156.264-78.132 340.221-86.045 466.815 35.604 64.286 61.32 103.846 136.484 112.748 226.485 5.934 58.351 0 114.725-20.77 170.11 0 2.967-1.978 5.934-1.978 6.923l-1.978 1.978c-6.923 0-6.923-2.967-4.945-8.901 17.802-46.484 24.725-93.956 23.736-143.407-1.978-90.99-37.582-171.1-101.868-235.386-13.846-13.846-30.66-24.725-44.506-36.593-.989-4.945-4.945-5.934-8.9-7.912-2.968 4.945-7.913 12.857-11.869 17.802l25.714 21.758c3.956 2.967 8.902 7.913 17.803 5.935 9.89-1.979 18.791 5.934 18.791 16.813 0 7.912-7.912 15.824-16.813 15.824-10.88 0-16.814-4.945-16.814-15.824 0-6.923-1.978-10.88-7.912-16.813-66.264-56.374-144.396-83.078-232.418-79.122-70.22 2.967-132.528 27.693-186.924 70.22-1.978 0-2.967 2.967-4.945 5.934 2.967 4.946 8.901 10.88 13.846 15.825l19.78-13.847c181.98-127.582 435.167-22.747 475.717 194.836l1.978 17.803c1.978 4.945 2.967 5.934 8.9 5.934 2.968-.99 8.902-.99 15.825-2.967-6.923-62.308-29.67-118.682-69.231-168.133 7.912-6.923 7.912-6.923 12.857 0 26.704 37.583 45.495 77.143 56.374 120.66 35.604 141.429-21.758 284.836-141.43 365.935-3.955 1.978-6.922 3.956-10.878 6.923 3.956 5.934 6.923 12.858 10.879 19.78 9.89-6.922 19.78-11.868 28.681-19.78 35.605-31.648 72.198-65.275 96.924-105.824 1.978-4.945 2.967-8.901 1.978-15.824-4.945-8.902 0-19.78 10.879-22.748 8.901-2.967 17.802 2.967 18.791 11.868 3.956 10.88-2.967 19.78-13.846 21.759-6.923 0-6.923 4.945-9.89 8.9-50.44 81.1-118.682 138.463-212.638 166.155-138.462 40.55-262.089 8.901-366.925-92.967-60.33-58.352-95.934-130.55-107.802-212.638 0-12.857-1.978-23.737-1.978-33.627 0-7.912-.99-10.879-8.901-10.879-15.824 0-15.824 0-13.846 13.846 2.967 83.078 30.659 157.254 81.099 220.55 67.253 84.067 151.319 132.529 257.143 150.33 11.869 1.979 23.737 4.946 37.583 4.946.989 7.912.989 7.912-7.912 7.912-33.627-1.978-65.275-6.923-96.924-18.791-152.308-53.407-246.264-160.22-273.957-317.474zm92.967 90.99c0 4.944 5.934 7.911 10.879 7.911 5.934 0 9.89-2.967 9.89-10.879-.989-4.945-3.956-7.912-9.89-7.912-4.945 0-10.88 4.945-10.88 10.88zm28.681-165.166c0-4.945 1.978-8.901 1.978-12.857 8.901-.99 8.901 1.978 6.923 7.912-2.967 66.264 15.825 126.594 58.352 178.023 14.835 17.802 31.649 35.604 51.429 49.45l11.868-17.802c-85.055-70.22-116.704-160.22-86.044-266.045 22.747-78.132 74.176-129.56 150.33-158.242 4.945 6.923.99 8.9-2.967 10.879-41.539 15.824-77.143 42.528-103.846 77.143-47.473 61.319-57.363 131.539-36.594 205.715 0 3.956 1.978 6.923 2.967 10.88 7.912-1.979 13.846-4.946 21.758-6.924-16.813-53.407-16.813-102.857 4.945-152.308 17.803-39.56 43.517-71.21 80.11-93.956 71.21-44.506 158.243-39.561 209.672-6.924-.99 6.924-5.934 4.946-11.869 3.957-28.681-14.836-59.34-21.759-93.956-19.78-83.077 4.944-144.396 47.472-177.033 124.615-25.715 60.33-19.78 123.627 15.824 180 2.967 3.957 5.934 8.902 12.857 8.902 10.88-1.978 17.802 5.934 15.824 16.813 0 8.901-7.912 16.813-15.824 16.813-8.901-1.978-17.802-9.89-15.824-18.791 1.978-8.901-1.978-14.835-4.945-20.77l-16.814-30.659c-5.934 2.967-13.846 3.956-20.769 7.912l3.956 8.901c33.627 70.22 88.022 114.726 164.177 132.528 2.967.99 6.923.99 10.879-1.978 5.934-8.9 19.78-8.9 24.725 0 6.923 7.912 3.956 17.803-1.978 22.748-8.901 7.912-19.78 4.945-26.703-4.945 0-3.956-3.956-5.934-6.923-5.934-28.682-5.935-56.374-16.814-83.078-32.638 0-1.978-1.978-1.978-3.956-1.978-4.945 4.945-8.9 10.88-11.868 17.802l10.88 6.923c36.593 20.77 76.153 34.616 119.67 37.583 41.539 2.967 80.11-3.956 117.693-19.78 4.945-1.978 7.912-2.967 7.912-10.88.989-10.879 10.879-15.824 19.78-13.846 8.901 1.978 15.824 10.88 11.868 21.759-1.978 7.912-10.879 13.846-19.78 10.879-5.934-2.967-11.868-2.967-16.813.989C446.1 819.948 261.155 719.068 235.44 545.99c-2.967-19.78-2.967-37.583-4.945-55.385zm0-43.517c0 5.934 2.967 9.89 10.88 9.89 4.944 0 8.9-3.956 8.9-10.879 0-4.945-5.934-7.912-10.879-7.912-5.934 0-8.9 4.945-8.9 8.901zm31.649-232.418c0 4.945 4.945 10.88 10.879 10.88 4.945 0 8.901-3.957 10.879-10.88 0-5.934-5.934-8.901-10.88-8.901-5.933 0-10.878 2.967-10.878 8.901zm75.165 413.408c0 5.934 3.956 10.88 9.89 10.88 4.945 0 10.88-4.946 10.88-10.88 0-4.945-5.935-9.89-10.88-9.89-5.934 0-9.89 4.945-9.89 9.89zm16.813-132.528c2.967-63.297 42.528-118.682 100.88-137.473 8.9-1.978 12.857-4.945 10.879-13.846v-7.912c0-10.88 0-10.88 10.879-10.88s10.879 0 10.879 10.88v11.868h34.615v-13.846c0-6.923 1.979-9.89 8.902-8.901h12.857v19.78c-1.978 7.912.989 10.879 8.9 12.857 61.32 20.77 101.87 77.143 101.87 142.418 0 64.286-42.528 115.715-99.891 141.43-10.88 4.944-10.88 4.944-10.88 16.812v4.945c0 10.88 0 10.88-10.878 10.88-10.88 0-10.88 0-10.88-10.88v-12.857H487.64v16.814c0 4.945-2.967 6.923-7.912 6.923h-6.923c-4.945 0-6.923-1.978-6.923-4.945 2.967-19.78-5.934-24.726-20.77-32.638-53.406-28.681-93.956-80.11-90.989-141.429zm22.747 23.736c6.923 45.495 54.396 102.858 89.012 99.89v-240.33c-43.517 11.869-96.924 64.286-89.012 140.44zm26.704 267.034c0 4.945 4.945 8.901 10.879 8.901 4.945 0 10.88-3.956 10.88-10.879 0-4.945-5.935-8.9-10.88-8.9-5.934 0-10.88 4.944-10.88 10.878zM448.078 266.1c1.978 4.945 4.945 10.879 10.88 10.879 4.945 0 9.89-5.934 9.89-10.88 0-5.933-4.945-10.878-9.89-10.878-5.935 0-10.88 4.945-10.88 10.879zm20.77 468.793c0 5.934 4.945 10.879 10.879 10.879 4.945 0 10.879-4.945 10.879-10.88 0-4.945-5.934-10.879-10.88-10.879-5.933 0-10.878 5.934-10.878 10.88zm18.791-130.55c0 25.714 0 25.714 23.736 23.736 10.88 0 10.88-.989 10.88-9.89V392.694c0-19.78 0-22.748-22.748-19.78-11.868.988-11.868.988-11.868 11.867zm2.967 291.759c0-10.88 5.934-17.802 15.824-17.802s17.803 6.923 17.803 15.824-7.913 16.813-16.814 16.813c-10.879 0-16.813-5.934-16.813-14.835zm5.934-1.978c-.989 4.945 4.945 10.879 9.89 10.879s9.89-3.956 9.89-8.901c0-5.934-2.967-10.88-8.9-10.88-4.946-1.977-10.88 2.968-10.88 8.902zm47.473-271.98c47.472-8.9 90-68.241 88.022-127.582 0-51.429-45.495-109.78-88.022-113.737zm74.176-287.802c0 4.945 4.945 9.89 10.879 9.89 4.945 0 7.912-4.945 7.912-10.88 0-5.933-2.967-8.9-7.912-8.9-5.934 0-10.88 2.967-10.88 9.89zm2.967 400.55c-.99 5.935 3.956 10.88 8.901 10.88s10.88-3.956 10.88-9.89c0-3.957-3.957-9.89-8.902-9.89-5.934-1.979-10.88 3.955-10.88 8.9zm109.78-235.385c0 5.934 5.935 9.89 10.88 9.89 5.934 0 10.879-3.956 10.879-9.89 0-4.945-4.945-10.879-10.88-10.879-4.944 0-10.879 5.934-10.879 10.88zm2.968-233.407c0 4.945 4.945 10.879 8.9 10.879 5.935 0 10.88-5.934 10.88-10.88 0-5.933-4.945-10.878-10.88-10.878-3.955 0-8.9 4.945-8.9 10.879zm87.033 395.605c0 5.935 5.934 8.902 10.879 8.902 5.934 0 10.88-2.967 10.88-8.902 0-5.934-4.946-10.879-10.88-10.879-4.945 0-10.88 5.934-10.88 10.88z" style="fill:#000;fill-opacity:1;fill-rule:nonzero;stroke:none;"/>
</svg>
