<svg xmlns="http://www.w3.org/2000/svg" width="1000" height="1000">
  <path d="M987.766 299.1c24.309 86.816-15.048 203.73-82.187 282.443-53.247 68.296-120.385 119.228-200.257 148.167-40.514 16.206-82.186 24.309-127.331 23.151H316.383v-5.787c23.151-72.926 43.987-145.852 65.98-217.621 1.158-4.63 3.474-6.945 6.946-6.945h234.984c50.933 0 100.708-41.672 107.653-91.447 6.945-38.2-17.363-70.611-56.72-70.611H430.98c24.309-75.241 45.145-150.483 69.454-228.039H790.98c115.756 2.315 177.107 68.296 196.785 166.688zM5 863.986c4.63-12.733 6.946-26.624 12.734-40.515 27.78-96.077 55.562-193.312 86.816-290.546 0-10.418 0-10.418 9.26-10.418h211.834c0 3.472 0 4.63-2.316 4.63-33.568 112.283-67.138 225.723-98.392 336.85 0 1.157-2.315 1.157-2.315 3.473H9.631c-2.315 0-4.63 1.157-4.63-3.473zM154.325 360.45c1.158-1.158 1.158-2.315 3.473-5.788 19.678-71.769 41.672-143.537 63.665-215.306 0-2.315 1.158-3.472 1.158-6.945h218.778c-20.836 74.084-45.144 148.167-67.138 224.566-1.158 3.473-3.473 3.473-8.103 3.473H160.113z" style="fill:#000;fill-opacity:1;fill-rule:nonzero;stroke:none;"/>
</svg>
