<svg xmlns="http://www.w3.org/2000/svg" viewBox="0 0 1000 1000"><path d="M500.496 5C223.572 5 5 229.506 5 500.002c0 276.43 224.506 495.001 495.002 495.001 276.43 0 495.001-224.506 495.001-495.001C995.003 226.539 773.464 5 500.496 5zm-340.22 669.563C35.658 411.485 239.395 114.78 529.177 133.572c117.692 7.912 211.649 93.956 234.396 215.605 16.813 82.088 7.912 165.165-42.528 235.385-43.516 67.253-109.78 97.913-183.956 112.748-26.704 7.912-59.341 11.868-90 20.77-58.352 15.824-87.034 57.362-74.177 112.747 3.956 12.857 11.868 24.725 18.792 39.56-105.825-35.604-183.957-96.923-231.43-195.824zm264.066 78.132c18.791-11.868 42.528-15.824 65.275-18.791 78.132-11.869 157.253-36.594 220.55-93.957 120.66-113.736 116.704-317.473-7.912-435.166-4.945-7.912-12.857-11.868-20.77-19.78 67.254 30.659 117.693 82.088 154.287 148.352 61.319 129.56 57.363 259.121-20.77 380.77-78.131 120.66-191.868 180-337.253 172.089-18.791 0-34.616-7.912-49.45-15.825-51.43-22.747-51.43-90.989-3.957-117.692z"/></svg>