<svg xmlns="http://www.w3.org/2000/svg" width="1000" height="1000">
  <path d="M500.496 5C223.572 5 5 229.506 5 500.002c0 276.43 224.506 495.001 495.002 495.001 276.43 0 495.001-224.506 495.001-495.001C995.003 226.539 773.464 5 500.496 5zM213.682 622.145v-34.616c1.978-4.945 1.978-8.9 1.978-16.813 1.978-36.593 11.868-74.176 30.66-106.813 20.769-36.594 48.461-64.286 75.165-95.935 26.703-29.67 58.351-57.363 85.055-90.99 25.714-30.659 41.538-66.263 41.538-108.79 0-21.759 0-41.54-1.978-63.298h1.978c28.682 23.737 57.363 48.462 79.122 77.144 42.527 54.395 50.44 112.747 35.604 177.033-3.956 11.868-6.923 24.725-10.88 35.605-8.9 26.703-6.922 51.428 12.858 70.22 19.78 18.79 55.385 20.769 76.154 4.945 19.78-12.857 26.704-31.649 28.682-54.396 0-2.967 1.978-6.923 3.956-9.89 1.978 0 2.967 1.978 2.967 1.978 34.615 42.527 66.264 86.044 77.143 141.429 15.824 69.23 3.956 135.495-42.528 194.836-21.758 25.714-50.44 42.527-82.088 55.384-27.692 11.869-52.418 24.726-78.132 39.561-23.736 13.846-36.594 35.605-48.462 59.34h-5.934c-1.978 0-3.956-2.966-5.934-2.966-63.297-10.88-119.67-39.56-169.121-82.088-44.506-37.583-78.133-81.1-94.946-136.484-6.923-18.792-7.912-35.605-12.857-54.396zm116.704 0c0 7.912 2.967 8.901 9.89 8.901h83.077c8.901 0 12.857 2.967 12.857 9.89-.989 28.682-.989 56.374-.989 86.044 0 5.935 1.978 7.913 8.901 7.913H527.2c5.934 0 9.89-1.978 7.912-7.913v-84.066c0-11.868 0-11.868 11.868-11.868h84.066c6.923 0 9.89-.989 7.912-8.901v-81.1c1.978-6.922-.989-11.867-7.912-11.867h-290.77c-6.923 0-9.89 1.978-9.89 11.868 1.978 25.714 1.978 53.407 0 81.099zm301.65-349.122c20.768-27.693 28.68-36.594 27.691-73.187 15.825 14.835 45.495 58.352 49.451 95.934 3.956 20.77-3.956 42.528-18.791 50.44-16.813 7.912-20.77 28.681-29.67 24.725-34.616-16.813-48.462-65.275-28.682-97.912z" style="fill:#000;fill-opacity:1;fill-rule:nonzero;stroke:none;"/>
</svg>
