<svg xmlns="http://www.w3.org/2000/svg" viewBox="0 0 1000 1000"><path d="M393.936,369.318c-72.169,72.164-72.173,189.169-.009,261.338,72.164,72.169,189.169,72.173,261.338,.009,34.773-34.576,54.265-81.628,54.129-130.665,.002-49.011-19.466-96.016-54.121-130.674-72.164-72.169-189.169-72.173-261.338-.009Zm190.554,190.576c-33.077,33.076-86.705,33.074-119.78-.003-33.076-33.077-33.074-86.704,.003-119.78l49.001-49.001c6.013-6.012,15.761-6.012,21.775,0l49.001,49.001,.003,.003c33.076,33.077,33.074,86.705-.003,119.78ZM500,0C223.858,0,0,223.858,0,500s223.858,500,500,500,500-223.858,500-500S776.142,0,500,0Zm24.6,807.99h-230.993c-34.018,0-46.199-27.581-46.199-61.598V253.608c0-34.02,27.578-61.598,61.598-61.598h215.593c170.103,0,307.99,137.887,307.99,307.99s-137.887,307.99-307.99,307.99Z"/></svg>