<?xml version="1.0" encoding="utf-8"?>
<!-- Generator: Adobe Illustrator 26.0.1, SVG Export Plug-In . SVG Version: 6.00 Build 0)  -->
<svg version="1.1" id="Layer_1" xmlns="http://www.w3.org/2000/svg" xmlns:xlink="http://www.w3.org/1999/xlink" x="0px" y="0px"
	 viewBox="0 0 1000 1000" style="enable-background:new 0 0 1000 1000;" xml:space="preserve">
<path d="M500.3,5C226.9,5,5.3,226.6,5.3,500s221.6,495,495,495s495-221.6,495-495S773.7,5,500.3,5z M348.4,142.6h68.8
	c-18.6,10.8-80.2,87.4-96,144.7H203.8L348.4,142.6z M349.9,857.4L203.8,712.7h113.9c17.9,43,50.3,102.3,96.7,144.7H349.9z
	 M485.3,857.4h-32.2c-22.5-15.8-75.5-66.8-108.2-144.7h140.4V857.4z M373.7,569.9c1.5,4.7,4,8.8,7.5,12.3c3.5,3.5,7.6,6,12.3,7.4
	c4.7,1.4,9.5,2.1,14.4,2.1c5.6,0,11.2-0.9,16.8-2.8c5.6-1.9,10.2-5.2,13.7-10.2c3.5-4.9,5.3-10.2,5.3-15.8h43.1
	c0,9.8-2,19.3-6.1,28.4c-4.1,9.1-10,16.7-17.7,22.9c-7.7,6.2-16.3,10.4-25.9,12.8c-9.6,2.3-19.3,3.5-29.1,3.5
	c-7,0-13.9-0.5-20.8-1.6c-6.9-1.1-13.5-3-19.8-6c-6.3-2.9-12-6.7-17.2-11.4c-5.1-4.7-9.4-10-12.8-16.1c-3.4-6.1-5.7-12.5-7-19.3
	c-1.3-6.8-1.9-13.7-1.9-20.7V442.5c0-7,0.6-13.9,1.9-20.7c1.3-6.8,3.6-13.2,7-19.3c3.4-6.1,7.6-11.4,12.8-16.1
	c5.1-4.7,10.9-8.5,17.2-11.4c6.3-2.9,12.9-4.9,19.8-6c6.9-1,13.8-1.6,20.8-1.6c9.8,0,19.5,1.2,29.1,3.5c9.6,2.3,18.2,6.6,25.9,12.8
	c7.7,6.2,13.6,13.8,17.7,22.9c4.1,9.1,6.1,18.6,6.1,28.4h-43.1c0-5.8-1.8-11.1-5.3-15.9c-3.5-4.8-8.1-8.1-13.7-10
	c-5.6-1.9-11.2-2.8-16.8-2.8c-4.9,0-9.7,0.7-14.4,2.1c-4.7,1.4-8.8,3.9-12.3,7.4c-3.5,3.5-6,7.6-7.5,12.3c-1.5,4.7-2.3,9.5-2.3,14.4
	v113.1C371.5,560.5,372.2,565.3,373.7,569.9z M487.4,287.3H348.5c9.8-29.9,44.7-100.6,106-144.7h32.9V287.3z M650.7,142.6
	l146.1,144.7H682.9c-17.9-43-50.3-102.3-96.7-144.7H650.7z M690.3,588.8v38.9h-146V370.4h43.4v218.4H690.3z M515.4,142.6h32.2
	c22.4,15.8,75.5,66.8,108.2,144.7H515.4V142.6z M546.1,857.4h-32.9V712.7h138.9C642.3,742.6,607.4,813.3,546.1,857.4z M652.2,857.4
	h-68.8c18.6-10.8,80.2-87.4,96-144.7h117.5L652.2,857.4z"/>
</svg>
