<svg xmlns="http://www.w3.org/2000/svg" viewBox="0 0 1000 1000"><path d="M496.28 988.561c-134.158 0-256.548-52.957-348.34-144.749-23.537-24.713-31.774-52.957-11.768-75.317 11.768-22.36 34.128-35.304 63.548-29.42 228.304 151.81 390.706 198.883 567.23 11.768 36.481-29.42 71.786-29.42 94.145-4.707 28.244 22.36 23.537 56.487-4.707 90.615-100.03 98.853-220.066 151.81-360.108 151.81zM25.55 639.045C-48.59 357.784 82.038 110.65 350.354 17.68c38.835-14.122 88.261-4.707 97.676 42.366 8.238 29.42-5.884 57.664-40.012 69.433-68.256 16.475-128.274 50.603-180.054 104.737-97.677 103.56-128.274 231.834-91.792 371.877 11.768 40.012 0 68.255-36.482 80.024-34.128 12.945-63.548-5.885-74.14-47.073zm364.816-138.866c0-57.664 47.073-103.56 105.914-103.56 56.487 0 103.56 45.896 103.56 103.56 0 54.134-47.073 105.915-103.56 105.915-54.134 0-105.914-47.073-105.914-105.915zM530.408 60.047c5.884-36.482 34.128-54.134 69.432-47.073 4.708 0 10.592 0 18.83 4.707 143.572 36.482 248.31 122.39 317.742 251.84 54.134 108.269 76.494 254.195 42.366 354.225-12.945 40.012-42.366 56.487-77.67 50.603-34.128-5.884-51.78-40.012-40.013-80.024 28.244-134.158 0-256.547-94.146-354.224-50.603-60.018-112.975-94.146-190.645-110.621-34.128-7.061-51.78-35.305-45.896-69.433z"/></svg>