<svg xmlns="http://www.w3.org/2000/svg" viewBox="0 0 1000 1000"><path d="M500,0C223.858,0,0,223.857,0,500s223.858,500,500,500,500-223.858,500-500S776.142,0,500,0Zm0,939.685C257.169,939.685,60.315,742.831,60.315,500S257.169,60.315,500,60.315,939.685,257.169,939.685,500,742.831,939.685,500,939.685ZM746.686,246.039q.258,254.111-.31,508.22c-.027,7.806-4.568,18.085-10.5,22.935-21.119,17.256-43.751,32.661-67.77,50.2L331.381,315.635V819.5l-5.947,4.342c-23.186-17.725-46.69-35.064-69.224-53.582-3.495-2.872-3.511-11.146-3.517-16.923q-.258-254.11.31-508.219c.028-7.806,4.571-18.085,10.506-22.934,21.119-17.256,43.752-32.66,67.793-50.212C444.147,343.5,554.319,510.978,668,683.776V179.882q2.974-2.171,5.947-4.343c23.186,17.724,46.69,35.061,69.224,53.579C746.661,231.99,746.68,240.262,746.686,246.039Z"/></svg>