<?xml version="1.0" encoding="UTF-8"?><svg id="a" xmlns="http://www.w3.org/2000/svg" viewBox="0 0 1000 1000"><path d="M623.631,663.778c11.075,30.565,10.652,64.116-1.19,94.393-8.941,7.492-18.551,14.148-28.709,19.882-91.611,51.714-207.798,19.371-259.512-72.24-34.606-59.93-34.606-133.771,0-193.702l45.415-79.591c1.51,7.343,3.516,14.575,6.005,21.646,18.476,52.433,61.188,91.833,126.938,117.07,58.167,22.42,95.533,53.55,111.053,92.543Zm-110.855-419.826c-1.314-2.331-3.241-4.258-5.573-5.573-7.056-3.979-16.002-1.484-19.98,5.573l-39.771,69.707c-10.407,23.881-27.952,75.447-11.155,122.723,13.042,36.693,45.14,65.079,95.424,84.379,73.139,28.173,120.925,69.821,142.059,123.792,3.307,8.448,5.925,17.15,7.828,26.02,17.722-52.643,11.956-110.364-15.829-158.462l-153.003-268.159Zm487.224,256.048c0,276.142-223.858,500-500,500S0,776.142,0,500,223.858,0,500,0s500,223.858,500,500Zm-287.911-14.947l-186.536-326.928c-7.957-14.112-25.848-19.102-39.961-11.145-4.662,2.629-8.516,6.483-11.145,11.145l-186.536,326.928c-44.269,76.669-44.269,171.133,0,247.803,66.028,117.133,214.51,158.562,331.643,92.534,38.712-21.822,70.712-53.823,92.534-92.534,44.269-76.67,44.269-171.133,0-247.803Z"/></svg>