<?xml version="1.0" encoding="UTF-8"?><svg id="a" xmlns="http://www.w3.org/2000/svg" viewBox="0 0 1000 1000"><path d="M1000,500c0,221.587-144.198,409.385-343.833,474.989-2.12-.657-42.937-14.01-21.649-62.391,21.849-49.658,57.603-150.96,57.603-150.96,0,0-5.959-31.781,43.699-33.767,49.658-1.987,99.812-3.477,108.254-6.952s18.373-13.904,17.877-30.788c-.496-16.883-6.952-50.154-4.469-55.12,2.482-4.966,18.373-16.884,18.373-16.884,0,0-5.462-16.387-18.373-15.394,0,0,25.822-26.815,21.353-40.223,0,0-18.87-5.462-16.884-27.312,0,0,47.175-24.829,47.175-37.74,0-18.219-88.391-41.713-96.833-82.929-8.442-41.216,15.89-50.651-8.442-101.302s-47.175-74.984-47.175-74.984c0,0,7.2-14.4,1.241-24.084-5.959-9.683-29.05-38.733-56.61-45.437-27.56-6.704-39.478-11.918-89.385-17.132-49.906-5.214-113.22-17.876-139.29-20.111-26.07-2.234-89.384,13.408-101.302,24.581-11.918,11.173-58.845,52.886-77.467,58.1-18.621,5.214-42.457,20.856-45.437,30.54-2.979,9.683-8.193,26.07-22.346,32.029-14.152,5.959-59.589,41.712-68.528,55.12-8.938,13.407-6.704,19.366-17.132,23.836-10.428,4.469-43.947,17.132-46.927,35.009s6.704,43.947,9.683,55.865c2.979,11.917,9.683,32.029,1.489,46.926-8.193,14.897-18.622,51.396-5.959,67.783,12.663,16.387,45.437,36.499,58.1,37.243,12.663,.745,0,35.754,8.938,46.927,8.938,11.173,43.947,52.886,54.376,58.845,10.428,5.959,8.193,37.988,13.407,46.182,5.214,8.194,103.536,71.508,110.24,63.314,4.217-5.154,13.137-9.417,19.185-11.876,4.296-11.623,9.843-26.15,16.372-42.171-3.33-2.948-37.015-33.671-44.372-76.955-7.74-45.543,16.672-87.677,16.672-87.677,0,0,36.962,31.704,44.703,77.246,3.646,21.447,.144,42.076-4.565,57.967,11.439-26.042,24.676-53.358,38.656-76.793-11.177-11.795-31.8-37.31-37.366-70.058-7.74-45.542,16.672-87.677,16.672-87.677,0,0,36.962,31.704,44.703,77.246,2.863,16.842,1.318,33.204-1.754,47.155l40.995-57.765c-3.947-6.381-25.675-43.714-21.028-85.508,5.104-45.913,40.179-79.693,40.179-79.693,0,0,26.799,40.659,21.694,86.571-1.417,12.745-5.177,24.502-9.821,34.914l17.517-24.683c2.895-17.786,12.08-56.991,39.417-88.037,36.54-41.497,91.668-52.679,91.668-52.679,0,0-4.116,56.099-40.656,97.596-28.855,32.769-69.194,46.593-84.931,50.976l-26.737,37.674c13.572-10.115,31.326-20.432,52.184-25.727,49.087-12.462,96.54,7.606,96.54,7.606,0,0-32.133,40.272-81.221,52.735-37.099,9.418-73.229,.263-88.68-4.774l-47.756,67.292c-.507,.715-1.011,1.476-1.517,2.205,14.224-12.295,35.892-27.342,62.661-34.138,49.087-12.462,96.539,7.606,96.539,7.606,0,0-32.133,40.273-81.22,52.735-38.475,9.768-75.836-.424-90.24-5.298-.293,.538-.503,.913-.503,.913,0,0-.298-.263-.723-.646-15.774,26.737-30.57,58.42-42.808,87.309,14.057-12.715,36.974-29.607,65.82-36.93,49.087-12.462,96.54,7.606,96.54,7.606,0,0-32.133,40.272-81.221,52.734-37.239,9.455-73.487,.198-88.84-4.827-14.969,36.996-24.558,65.588-24.758,66.193l-.4-.133c-8.921,33.577-25.432,85.566-48.844,117.78l-8.855,10.049C125.152,883.526,0,706.427,0,500,0,223.858,223.858,0,500,0s500,223.858,500,500Z"/></svg>