<svg xmlns="http://www.w3.org/2000/svg" width="1000" height="1000">
  <path d="M83.105 250.978V433.56H236.27V250.978c0-6.086 4.057-10.144 9.129-10.144h61.875c5.071 0 8.114 4.058 8.114 10.144v491.957c0 5.072-3.043 8.115-8.114 8.115H245.4c-5.072 0-9.13-3.043-9.13-8.115V521.808H83.106v221.127c0 5.072-4.058 8.115-9.13 8.115H15.143C9.057 751.05 5 748.007 5 742.935V250.978c0-6.086 4.057-10.144 10.143-10.144h58.832c5.072 0 9.13 4.058 9.13 10.144zm280.973 491.957V250.978c0-6.086 3.043-10.144 9.129-10.144h57.818c6.086 0 10.143 4.058 10.143 10.144v171.424L580.133 246.92c3.043-4.057 7.1-6.086 11.158-6.086h82.162c7.1 0 10.143 6.086 5.072 12.173L496.957 473.119l181.568 266.773c4.057 6.086 0 11.158-6.086 11.158h-82.162c-4.058 0-8.115-2.03-10.144-5.072l-136.936-207.94-2.029 2.028v202.869c0 5.072-4.057 8.115-10.143 8.115h-57.818c-6.086 0-9.13-3.043-9.13-8.115zm314.447-153.166c0-2.029 2.028-4.058 5.071-4.058h65.933c4.057 0 5.071 1.015 6.086 2.03 25.358 62.889 47.674 84.19 87.233 84.19 40.574 0 73.033-33.474 73.033-75.062 0-46.66-41.588-68.975-90.276-91.29-53.76-24.345-114.621-52.747-114.621-129.837 0-57.817 38.545-104.477 106.506-123.75v-51.731c0-3.043 2.029-4.058 4.057-4.058h58.832c2.029 0 4.058 1.015 4.058 4.058v51.731c44.63 7.1 92.305 48.689 108.534 112.592 1.015 4.058-1.014 8.115-3.043 8.115h-68.975c-4.057 0-4.057 1.015-4.057-1.014-10.144-29.416-35.502-47.674-66.947-47.674s-56.803 22.315-56.803 51.731c0 30.43 22.315 43.617 65.932 63.904C947.326 480.22 995 515.722 995 596.869c0 68.976-46.66 132.88-110.563 148.095v54.774c0 2.029-2.03 4.058-4.058 4.058h-58.832c-2.028 0-4.057-2.03-4.057-4.058v-50.717c-86.22-19.273-123.75-61.875-138.965-159.252z" style="fill:#000;fill-opacity:1;fill-rule:nonzero;stroke:none;"/>
</svg>
