<svg xmlns="http://www.w3.org/2000/svg" width="1000" height="1000">
  <path d="M79.618 325.796c0-61.63 1.163-103.49 0-146.515 0-37.21 18.605-56.978 54.653-55.815 104.653 0 201.167-17.442 289.541-74.42 15.117-9.303 29.07-20.931 45.35-31.397 20.93-16.279 41.862-17.442 63.955 0 93.026 75.584 200.005 104.654 319.775 105.817 5.814 0 12.791-1.163 18.605 0 29.07 0 50.001 18.605 48.839 45.35-3.489 163.957-2.326 327.915-39.536 489.546-23.257 96.514-76.746 167.446-163.958 216.284-63.955 34.885-126.747 74.42-189.539 111.631-17.442 11.628-36.047 11.628-54.652 0-56.978-34.885-110.468-72.095-167.446-100.002-113.956-58.141-176.749-150.004-193.028-272.1C98.223 513.01 90.083 410.682 79.618 325.796zm97.677-100.002c2.325 129.073 5.814 258.146 30.233 386.056 15.117 82.56 54.653 145.352 130.236 183.725 52.327 26.745 101.165 58.14 152.329 87.211 5.814 3.489 12.79 3.489 18.605 2.326 62.792-36.048 124.422-73.258 186.05-110.468 43.025-24.42 72.096-61.63 83.724-108.142 13.954-55.815 26.745-111.63 31.396-167.446 9.302-93.025 12.79-184.888 18.605-279.076-8.14-1.163-10.465-2.326-12.791-2.326-110.468-5.814-212.796-34.884-303.496-97.677-11.628-8.14-17.442-3.488-26.744 2.326-60.467 39.536-125.585 67.444-195.354 80.235-36.047 8.14-74.42 11.628-111.63 17.442-1.163 2.325-1.163 3.488-1.163 5.814z" style="fill:#000;fill-opacity:1;fill-rule:nonzero;stroke:none;"/>
</svg>
