<svg xmlns="http://www.w3.org/2000/svg" viewBox="0 0 1000 1000"><path d="M993.057 571.199V407.983c0-54.77 4.381-116.113 0-169.788 0-50.388-18.622-61.342-63.534-50.388-46.007 4.381-89.823 19.717-135.83 30.671-31.767 9.859-43.817 27.385-43.817 59.152 0 109.54-5.477 224.558 0 335.194 0 49.294 18.622 60.248 67.916 55.866 44.911-10.954 85.441-27.385 131.448-35.053 36.149-6.572 43.817-31.767 43.817-62.438zM5 622.683c0 15.336 14.24 35.053 18.622 35.053 33.958 0 75.583 0 111.731-16.431 12.05-3.286 18.622-35.053 23.004-53.675V426.605c0-28.48 9.859-59.152 40.53-70.106 49.293-8.763 54.77-43.816 54.77-83.25v-27.386c-5.477-58.056-25.194-73.392-78.869-58.056-44.912 9.858-85.442 19.717-127.067 30.671C19.24 222.86 5 238.195 5 266.676zm174.17 150.07c4.381 29.577 19.717 48.199 49.293 44.912 55.866-10.954 116.113-26.29 170.883-44.911 35.053-9.859 39.435-65.725 5.477-81.06-49.293-18.622-49.293-53.675-49.293-99.682V422.224c0-24.1-6.572-46.007-6.572-74.488-44.912 8.763-79.965 15.336-116.113 19.717-39.435 8.764-53.675 35.053-53.675 75.583zm194.982-205.936c0 106.255 15.336 116.113 115.018 85.442h4.381c35.053-5.477 46.007-25.194 46.007-60.247V433.178c0-35.053 7.668-65.725 49.294-76.679 29.576-8.763 39.434-28.48 36.148-59.152v-63.533c-6.572-41.626-20.813-56.961-66.82-50.389-38.339 8.763-85.441 18.622-123.78 28.48-51.485 16.432-60.248 26.29-60.248 79.965zm184.028 135.83c0 25.195 0 49.294 4.382 70.107 0 29.576 16.431 48.198 47.102 44.911 60.248-10.954 113.923-26.29 168.693-44.911 15.336-4.382 26.29-30.672 26.29-44.912 0-15.336-15.336-31.767-26.29-36.148-43.816-13.145-54.77-50.389-54.77-89.824V416.747c0-18.622-5.477-40.53-5.477-63.534-39.435 3.286-69.011 9.859-99.682 14.24-39.435 8.764-60.248 35.053-60.248 75.583z"/></svg>