<?xml version="1.0" encoding="UTF-8"?><svg id="a" xmlns="http://www.w3.org/2000/svg" viewBox="0 0 1000 1000"><path d="M395.577,563.562c-15.134-30.267-21.187-63.562-12.107-93.829,9.08-30.267,27.241-57.508,57.508-72.642,18.16-12.107,39.348-15.133,60.535-15.133,42.374,0,81.722,21.187,105.936,60.535,33.294,57.508,12.107,133.177-45.401,166.471-57.508,33.294-133.177,12.107-166.471-45.401Zm604.423-63.562c0,276.143-223.858,500-500,500S0,776.143,0,500,223.858,0,500,0s500,223.858,500,500Zm-298.721-118.043c24.214,39.348,60.535,69.615,105.936,81.722,15.134,3.027,30.268,6.053,45.401,6.053,9.08,0,15.134,0,24.214-3.027-3.027-18.161-6.053-36.321-9.08-57.508-15.134,3.027-30.267,0-45.401-3.027-30.268-9.08-54.481-27.241-72.642-54.482-15.134-27.241-21.187-57.508-12.107-87.775,3.027-15.134,12.107-27.241,21.187-39.348-15.134-12.107-27.241-24.214-45.401-36.321-15.134,18.161-24.214,39.348-30.267,60.535-12.107,48.428-6.054,93.829,18.16,133.177ZM332.016,157.978c33.294,63.562,93.829,108.963,166.471,108.963s136.203-45.401,160.417-108.963c-18.16-9.08-33.294-15.134-54.481-21.187-18.161,42.375-60.535,72.642-108.963,72.642s-90.802-30.267-108.963-72.642c-18.16,6.053-36.321,12.107-54.481,21.187Zm-33.294,460.065c-24.214-39.348-60.535-69.615-105.936-81.722-24.214-6.054-45.401-6.054-69.615-3.027,3.027,18.161,6.053,36.321,9.08,57.508h15.134c9.08,0,21.187,0,30.268,3.027,30.267,9.08,54.481,27.241,72.642,54.481,24.214,42.374,18.16,93.829-9.08,130.15,15.134,12.107,27.241,24.214,45.401,36.321,39.348-57.508,48.428-136.203,12.107-196.738Zm18.16-369.263c-6.053-24.214-18.16-42.374-30.267-60.535-18.16,12.107-33.294,24.214-45.401,36.321,9.08,12.107,15.134,24.214,21.187,39.348,9.08,30.267,3.027,60.535-12.107,87.775-15.134,27.241-42.374,45.401-72.642,54.482-15.134,3.027-30.268,6.053-45.401,3.027-3.027,18.161-6.053,36.321-9.08,57.508,9.08,0,15.134,3.027,24.214,3.027,15.134,0,30.268,0,45.401-6.053,45.401-12.107,81.722-39.348,105.936-81.722,24.214-39.348,30.267-87.776,18.16-133.177Zm30.268,338.995c30.267,60.535,90.802,90.802,154.364,90.802,30.268,0,60.535-9.08,90.802-24.214,84.749-48.428,115.016-160.418,66.588-245.166-48.428-84.749-160.417-115.016-245.166-66.588-42.374,24.214-69.615,63.562-84.749,108.963-12.107,45.401-6.053,93.829,18.161,136.203Zm314.781,254.247c-27.241-63.562-87.776-108.963-160.418-108.963s-136.203,45.401-160.418,108.963c18.161,9.08,36.321,15.134,54.481,21.187,15.134-42.374,54.481-72.642,102.909-72.642s90.802,30.268,108.963,72.642c18.16-6.054,36.321-12.107,54.481-21.187Zm214.899-308.728c-24.214-6.054-45.401-3.027-69.615,3.027-45.401,12.107-81.722,39.348-105.936,81.722-24.214,39.348-30.267,87.776-18.16,133.177,6.054,24.214,18.16,42.374,30.267,60.535,15.134-12.107,30.267-24.214,45.401-36.321-9.08-12.107-15.134-24.214-21.187-39.348-9.08-30.267-3.027-60.535,12.107-87.776,15.134-27.241,42.374-45.401,72.642-54.481,15.134-3.027,30.268-6.054,45.401-3.027,3.027-18.161,6.054-36.321,9.08-57.508Z"/></svg>