<svg xmlns="http://www.w3.org/2000/svg" width="1000" height="1000">
  <path d="M869.462 797.854H107.135c-46.403 0-108.273-64.08-101.644-111.587 0-6.629 12.153-23.201 19.887-30.935 41.983-25.41 55.24-60.765 61.87-106.063 35.354-198.868 204.392-336.97 403.26-346.914 161.304-5.524 329.237 99.434 392.212 246.375 18.782 39.774 25.41 81.757 41.983 125.95 6.629 32.04 12.153 55.241 39.773 74.023 35.355 14.363 35.355 37.564 23.202 69.604-36.46 72.918-36.46 79.547-118.216 79.547zm-657.37-254.109c-7.733 36.46 0 43.088 36.46 36.46 43.088-5.525 81.757-19.888 124.845-30.936 98.329-12.153 104.958-12.153 104.958-106.063 0-91.7-5.524-121.53-69.604-106.063-98.33 13.258-174.562 95.015-196.658 206.602zm314.875-33.144c0 19.886 13.258 33.144 32.04 33.144 62.975 16.572 136.998 30.935 198.868 36.46 25.41 6.628 32.04 0 32.04-30.936-6.63-100.539-118.216-212.126-223.174-218.754-26.516 0-39.774 6.628-39.774 33.144z" style="fill:#000;fill-opacity:1;fill-rule:nonzero;stroke:none;"/>
</svg>
