<svg xmlns="http://www.w3.org/2000/svg" viewBox="0 0 1000 1000"><path d="M332.025 513.087c59.785 7.798 119.569 15.596 179.353 18.195 58.485 6.498 118.269 10.397 172.854 11.697 28.593 0 51.987-3.899 79.28-5.199 11.696-3.899 15.595 0 11.696 14.297-7.798 57.185-24.693 109.17-51.986 161.157-61.084 118.269-153.36 197.548-279.426 243.036-89.676 33.791-180.652 40.29-272.928 19.495C74.693 952.37 14.909 882.19 5.812 783.415c-2.6-48.087 0-94.874 23.393-137.763 25.993-46.788 61.084-75.38 106.572-93.575 59.784-27.293 115.67-35.091 196.248-35.091zm-111.77-51.986c9.097-28.593 10.397-54.586 18.195-81.879C281.34 234.96 369.715 132.287 503.58 64.705c50.687-27.292 109.171-44.188 170.255-48.087 49.387-6.498 105.272-6.498 159.858 6.498 89.676 23.394 152.06 93.576 159.858 187.15 2.6 36.391 2.6 75.381-7.798 109.172-22.094 62.384-62.384 103.973-120.868 128.666-49.387 22.094-101.374 28.593-154.66 31.192-75.38 5.199-146.86-2.6-222.24-10.397-71.482-11.697-144.263-16.896-215.744-11.697-14.296 1.3-29.892 3.899-51.986 3.899z"/></svg>