<svg xmlns="http://www.w3.org/2000/svg" viewBox="0 0 1000 1000"><path d="M289,2,87,204H251C273,124,359,17,385,2ZM483,204V2H437C351.4,63.6,302.7,162.3,289,204Zm39,0H718C672.4,95.2,598.3,24,567,2H522Zm234,0H915L711,2H621C685.8,61.2,731,144,756,204Zm-43,796L915,798H751c-22,80-108,187-134,202ZM519,798v202h46c85.6-61.6,134.3-160.3,148-202Zm-39,0H284c45.6,108.8,119.7,180,151,202h45Zm-234,0H87l204,202h90C316.2,940.8,271,858,246,798ZM442.8,584.5q0,37.05-10.4,67c-6.9,19.5-16.5,36.2-28.6,50a125.92,125.92,0,0,1-43.5,31.2,144.67,144.67,0,0,1-55.2,10.4q-30.6,0-55.9-10.4a127.26,127.26,0,0,1-43.6-31.2c-12.1-13.4-21.7-29.9-28.6-49.4q-9.75-29.25-9.8-65.7c0-25.1,3.2-48.5,9.8-70.2a386.16,386.16,0,0,1,26.7-64.3l91-178.1h85.1L286.2,449.3l.6.6a46.7,46.7,0,0,1,18.2-9.8,81.4,81.4,0,0,1,22.1-3.2,106.38,106.38,0,0,1,43.5,9.1,94.05,94.05,0,0,1,37.1,26.6c10.8,11.7,19.3,26.9,25.3,45.5Q442.75,546.15,442.8,584.5Zm-74.1-.6q0-40.35-15.6-66.3t-46.8-26a50.39,50.39,0,0,0-26.6,7.1,63.54,63.54,0,0,0-20.1,20.2,95.25,95.25,0,0,0-13,29.2,143.63,143.63,0,0,0-4.6,37q0,42.3,16.9,68.2,17,25.35,46.8,25.3t46.1-26C363,635,368.7,612,368.7,583.9Zm463.4,21.4c0,24.3-4.1,44.6-12.3,61.1a118.27,118.27,0,0,1-30.6,39.7,110.62,110.62,0,0,1-41.6,21.4,164,164,0,0,1-44.8,6.5H566.3V273.8H688.5a191.4,191.4,0,0,1,42.9,5.2A111.19,111.19,0,0,1,773,296.5q18.9,12.3,31.2,35.1c8.2,14.7,12.4,34,12.4,57.9q0,42.9-18.2,67.6c-12.1,16.5-26.2,27.9-42.2,34.4v1.3a96.58,96.58,0,0,1,26,11c9.1,5.2,17.3,12.6,24.7,22.1,7.4,9.1,13.4,20.4,18.2,33.8C829.7,572.8,832.1,588,832.1,605.3ZM746.3,401.9c0-11.7-2-21.5-5.9-29.2-3.5-8.2-8.2-14.7-14.3-19.5A48.31,48.31,0,0,0,706,342.1a88.11,88.11,0,0,0-24.1-3.2H639V467h44.2a83.15,83.15,0,0,0,22.8-3.2,54.37,54.37,0,0,0,20.1-11.7A53.26,53.26,0,0,0,740.4,432C744.4,423.5,746.3,413.6,746.3,401.9Zm11.1,196.9c0-13.4-2.2-24.7-6.5-33.8a66.33,66.33,0,0,0-39.7-35.8,81.63,81.63,0,0,0-24.7-3.9H639V669h49.4a88.85,88.85,0,0,0,26.7-3.9,64.15,64.15,0,0,0,21.5-13,61,61,0,0,0,15-22.1C755.4,621.3,757.4,610.9,757.4,598.8Z"/></svg>