<?xml version="1.0" encoding="UTF-8"?><svg id="a" xmlns="http://www.w3.org/2000/svg" viewBox="0 0 1000 1000"><path d="m543.792,420.282v-44.911h129.854v-64.78h-345.936v64.78h129.858v44.911c-91.202,4.799-159.623,24.515-160.133,48.143v49.255c.507,23.628,68.931,43.34,160.133,48.139v110.221h86.225v-110.221c91.198-4.799,159.623-24.511,160.129-48.139l.004-49.255c-.51-23.628-68.935-43.344-160.133-48.143Zm155.472,72.769c-19.909,22.26-101.26,38.928-198.587,38.928s-178.677-16.669-198.587-38.928c16.883-18.877,77.948-33.729,155.476-37.813v47.027c13.895.728,28.317,1.116,43.11,1.116s29.219-.388,43.114-1.116v-47.027c77.524,4.083,138.59,18.936,155.472,37.813ZM500,0C223.858,0,0,223.858,0,500s223.858,500,500,500,500-223.858,500-500S776.142,0,500,0Zm21.121,851.707c-11.842,11.703-30.893,11.703-42.735,0L113.32,490.91c-10.05-9.935-11.933-25.488-4.542-37.536l141.961-231.359c5.531-9.009,15.343-14.501,25.911-14.501h455.853c10.877,0,20.926,5.812,26.351,15.241l132.809,230.872c6.884,11.972,4.839,27.086-4.985,36.796l-365.557,361.283Z"/></svg>