<svg xmlns="http://www.w3.org/2000/svg" viewBox="0 0 1000 1000"><path d="M289,2,87,204H251C273,124,359,17,385,2ZM483,204V2H437C351.4,63.6,302.7,162.3,289,204Zm39,0H718C672.4,95.2,598.3,24,567,2H522Zm234,0H915L711,2H621C685.8,61.2,731,144,756,204Zm-43,796L915,798H751c-22,80-108,187-134,202ZM519,798v202h46c85.6-61.6,134.3-160.3,148-202Zm-39,0H284c45.6,108.8,119.7,180,151,202h45Zm-234,0H87l204,202h90C316.2,940.8,271,858,246,798Zm31.7-64c-25.1,0-47.9-5.2-68.2-15.6-19.9-10.8-37.1-26.2-51.4-46.2-14.3-20.4-25.4-44.8-33.2-73.5-7.4-29-11.1-61.8-11.1-98.1q0-53.25,11.7-97.5c7.8-29.5,18.9-54.6,33.1-75.4q22.05-31.2,52.7-48.1,31.2-17.55,68.9-17.5c25.1,0,47.9,5.9,68.2,17.5q30.6,16.95,52,48.1t33.1,74.8q11.7,42.9,11.7,94.9a277.41,277.41,0,0,1-5.2,53.9,244.79,244.79,0,0,1-13.6,49.4,177.74,177.74,0,0,1-20.2,39.7c-7.4,11.3-15.2,19.7-23.4,25.3v2.6l81.9-1.3v67Zm87.7-233.4a335.79,335.79,0,0,0-5.9-64.4q-5.25-29.85-16.2-51.3-11.1-22-27.3-34.5a54.09,54.09,0,0,0-35.8-13,57.7,57.7,0,0,0-37.1,13q-15.6,12.3-26.6,34.5-11.1,21.45-16.9,51.3a372.54,372.54,0,0,0-5.2,64.4,335.79,335.79,0,0,0,5.9,64.4c3.9,19.9,9.5,37.3,16.9,52,7.4,14.3,16.2,25.8,26.7,34.5A59.78,59.78,0,0,0,281,663.8a54.9,54.9,0,0,0,36.4-13Q333.6,637.15,344,615q11.1-22.8,16.2-52A359.87,359.87,0,0,0,365.4,500.6Zm520.5,2.6c0,36.4-3.9,69.5-11.7,99.5q-11.1,44.25-32.5,76T789,728.1c-20.4,11.7-43.3,17.5-68.9,17.5-26,0-49.2-5.9-69.5-17.5s-37.7-28.2-52-49.4-25.3-46.6-33.1-76c-7.4-29.9-11.1-63-11.1-99.5s3.7-69.3,11.1-98.8,18.2-54.8,32.5-76.1,31.6-37.5,52-48.8Q681.2,262,720.2,262c25.6,0,48.5,5.9,68.9,17.5,20.8,11.3,38.3,27.5,52.7,48.8s25.1,46.6,32.5,76.1C882,433.9,885.9,466.9,885.9,503.2Zm-80.6,0a356.64,356.64,0,0,0-5.8-65.6q-5.25-31.2-16.2-53.3Q773,361.5,756.6,348.5a54.9,54.9,0,0,0-36.4-13c-14.3,0-26.9,4.3-37.7,13q-15.6,13-26.7,35.8-10.35,22.05-15.6,53.3a387.72,387.72,0,0,0-5.2,65.6,399.67,399.67,0,0,0,5.2,66.3c3.5,20.4,8.7,38.1,15.6,53.3,7.4,15.2,16.2,27.1,26.7,35.8,10.8,8.7,23.4,13,37.7,13s26.7-4.3,37.1-13q16.2-13.05,26.6-35.8c7.4-15.2,12.8-32.9,16.2-53.3A408.89,408.89,0,0,0,805.3,503.2Z"/></svg>