<svg xmlns="http://www.w3.org/2000/svg" width="1000" height="1000">
  <path d="M805.883 62.375 795.758 113c-5.625-14.625-7.875-19.125-21.375-19.125-4.5 0-11.25 4.5-16.875 10.125-7.875 6.75-10.125 14.625-12.375 23.625l-18 84.375h-37.125l27-149.625h39.375l-2.25 4.5c20.25-15.75 28.125-12.375 51.75-4.5zm-740.25 792 18-104.625h52.874c24.75 0 41.625-6.75 41.625-36V352.625c0-39.375-14.625-54-61.875-54H65.632v-90h172.125V66.875h90v141.75h66.375V66.875h86.626v141.75c33.75 3.375 63 7.875 85.5 12.375 140.625 28.125 172.125 185.625 47.25 274.5 54 15.75 86.625 31.5 111.375 79.875 46.125 106.875-7.875 227.25-127.125 261-36 10.125-72 13.5-117 18V995h-86.626V854.375h-66.375V995h-90V854.375zm262.124-103.5c123.75 3.375 238.5-7.875 238.5-99 0-45-31.5-69.75-84.374-79.875-50.625-10.125-84.376-11.25-154.126-10.125zm0-274.5h23.625c91.125 0 178.876-10.125 174.376-88.875 0-83.25-100.126-82.125-198-82.125zM796.883 212l36-207h39.375l-12.375 60.75s3.375 0 4.5-2.25c7.875-1.125 16.875-5.625 24.75-5.625 38.25 0 49.5 21.375 43.875 60.75L919.508 212h-40.5l18-102.375c0-11.25-4.5-15.75-15.75-15.75-9 0-21.375 6.75-25.875 11.25L835.133 212z" style="fill:#000;fill-opacity:1;fill-rule:nonzero;stroke:non"/>
</svg>
