<svg xmlns="http://www.w3.org/2000/svg" width="1000" height="1000">
  <path d="M5 500.496c0 271.98 220.55 494.507 495.496 494.507 271.98 0 494.507-220.55 494.507-495.496C995.003 227.528 773.464 5 500.496 5 226.54 5 5 225.55 5 500.496zm189.89 211.65v-162.2c0-5.933 8.902-16.812 13.847-19.78 13.846-9.89 29.67-15.824 49.45-25.714-18.79-9.89-33.626-14.835-44.505-23.736-14.835-5.934-18.791-9.89-18.791-21.758v-161.21c0-9.89 3.956-14.835 13.846-18.791 25.714-14.835 55.385-29.67 80.11-41.539 9.89-6.923 19.78-3.956 29.67 1.978 21.759 13.847 47.473 23.737 70.22 35.605 4.946 3.956 9.89 3.956 15.825 3.956v-71.21c-.99-23.735 3.956-32.637 23.736-40.549 21.758-7.912 45.495-20.769 67.253-33.626 4.945 0 14.835-3.956 22.747 0 27.693 12.857 52.418 25.714 82.089 41.538 4.945 3.956 9.89 8.902 9.89 18.792v69.23c0 6.924 0 9.89 4.945 19.781 21.758-12.857 40.55-19.78 60.33-33.626 25.714-15.825 49.45-18.792 74.176-1.979 15.824 15.825 37.582 22.748 61.319 31.649 3.956 3.956 5.934 8.901 5.934 14.835v167.144c0 6.923-5.934 13.846-9.89 16.813-16.814 11.868-27.693 16.813-47.473 26.703 15.824 9.89 27.692 15.824 45.495 20.77 9.89 7.912 11.868 14.835 11.868 24.725v162.198c0 9.89-1.978 17.802-11.868 19.78-25.715 12.858-53.407 29.67-79.122 39.561-5.934 2.967-15.824 2.967-20.769 0-34.615-13.846-60.33-26.703-90-41.539-4.945 4.946-4.945 11.869-4.945 14.836v60.33c4.945 16.813-1.978 30.659-20.77 36.593-23.736 9.89-44.505 23.736-69.23 33.627-5.935.989-19.78.989-24.726 0-29.67-9.89-55.385-28.682-81.1-39.561-5.933-3.956-10.878-13.846-10.878-19.78v-86.045c-9.89 1.978-17.802 4.946-27.693 9.89-21.758 10.88-41.538 21.759-67.253 34.616-3.956 1.978-13.846 1.978-15.824 0-28.681-12.857-54.396-29.67-84.066-42.528-4.945-1.978-13.846-11.868-13.846-19.78zm149.342-207.694c21.758 10.88 39.56 18.791 59.34 30.66v-60.33c-19.78 9.89-37.582 19.78-59.34 29.67zm266.045 30.66c24.725-11.869 39.56-20.77 60.33-30.66-20.77-9.89-35.605-19.78-60.33-29.67z" style="fill:#000;fill-opacity:1;fill-rule:nonzero;stroke:none;"/>
</svg>
