<?xml version="1.0" encoding="UTF-8"?><svg id="a" xmlns="http://www.w3.org/2000/svg" viewBox="0 0 1000 1000"><path id="b" d="M1.387,400.496c1.725-13.459,3.275-26.942,5.201-40.372C25.958,225.042,95.202,123.196,212.451,54.293,266.881,22.307,326.205,4.019,389.547,2.366c67.932-1.773,135.957-3.252,203.872-1.737,119.674,2.67,221.269,47.934,302.076,136.887,57.778,63.603,91.337,138.826,102.916,223.957,.925,6.803-1.328,9.053-7.67,9.038-28.111-.069-56.224-.255-84.331,.084-10.317,.124-9.035-8.006-10.003-13.47-8.087-45.613-25.602-87.239-52.623-124.719-51.866-71.939-122.012-114.574-209.437-128.607-13.039-2.093-26.431-2.68-39.666-2.741-61.159-.283-122.355-1.468-183.473,.144-119.838,3.161-209.782,58.283-269.72,161.59-26.773,46.144-38.72,96.753-38.51,150.232,.233,59.26-.08,118.523,.084,177.783,.409,147.614,108.88,277.01,254.452,302.848,20.422,3.625,41.391,5.419,62.14,5.708,55.451,.772,110.921,.387,166.383,.239,150.836-.404,275.014-99.9,308.518-247.059q5.31-23.323,28.933-23.322c22.033,.002,44.067,.162,66.098-.077,7.461-.081,9.889,2.101,8.767,10.088-12.582,89.557-49.098,167.651-111.825,232.959-61.257,63.778-135.429,104.656-222.647,119.797-28.948,5.025-58.752,6.356-88.212,6.918-54.682,1.044-109.451,1.831-164.091-.02-167.718-5.68-290.325-84.327-367.548-232.826-24.911-47.904-37.66-99.785-39.965-153.996-.189-4.441-1.752-8.823-2.677-13.233,0-66.112,0-132.223,0-198.335Zm579.336,259.862c-10.31-45.019-20.377-90.099-31.281-134.974-2.079-8.557-.371-12.725,6.757-17.616,33.494-22.981,48.399-54.76,44.269-95.606-5.034-49.783-53.418-96.732-117.456-84.884-41.157,7.614-72.998,39.929-78.812,80.117-6.123,42.32,8.285,77.081,44.791,100.945,6.802,4.446,7.883,8.952,6.201,16.013-7.979,33.499-15.774,67.042-23.521,100.596-3.782,16.381-7.314,32.82-11.119,49.954h162.909c-1.072-5.745-1.739-10.183-2.738-14.545Z"/></svg>