<svg xmlns="http://www.w3.org/2000/svg" viewBox="0 0 1000 1000"><path d="M5 500.496C5 225.55 226.54 5 500.496 5c272.968 0 494.507 222.528 494.507 494.507 0 274.946-222.528 495.496-494.507 495.496C225.55 995.003 5 772.475 5 500.496zm103.847-7.912c18.79 38.572 53.406 45.495 112.747 33.627 14.835 16.813 30.66 31.648 45.495 43.516-11.868 54.396-3.956 84.066 26.703 107.803 31.649 18.791 61.32 18.791 91.979 0 30.659-18.792 38.571-50.44 26.703-107.803 15.824-16.813 30.66-31.648 42.528-43.516h89.01c15.825 16.813 26.704 26.703 42.528 43.516-11.868 57.363-4.945 89.011 26.704 107.803 29.67 18.791 61.319 18.791 88.022 0 33.627-18.792 41.539-53.407 30.66-107.803 14.835-16.813 29.67-31.648 46.483-43.516 56.374 11.868 91.979 4.945 110.77-29.67 19.78-34.616 11.868-69.232-14.835-99.891-23.737-23.737-58.352-30.66-92.968-15.825-38.571 23.737-49.45 54.396-34.615 111.759-18.792 18.791-30.66 33.627-41.539 45.495h-91.978c-20.77-17.803-20.77-17.803-42.528-41.539 15.824-53.407 7.912-80.11-18.791-103.846-30.66-22.748-70.22-26.704-100.88-2.967-38.571 29.67-34.615 68.242-22.747 102.857-19.78 18.791-30.66 33.627-42.527 45.495h-88.023c-15.824-14.836-30.66-26.704-45.494-41.539 14.835-57.363 6.923-89.011-26.704-111.759-35.604-18.79-74.176-14.835-100.88 11.869-26.703 26.703-34.615 61.319-15.823 95.934z"/></svg>