<svg xmlns="http://www.w3.org/2000/svg" viewBox="0 0 1000 1000"><path d="M511.77 442.79h468.106c8.929 0 11.48 1.275 11.48 7.653 3.826 36.99 3.826 71.427 0 108.417-5.102 35.714-12.755 70.152-24.235 103.315-19.132 53.57-47.193 102.04-82.907 149.233-33.163 43.367-75.254 80.356-124.998 108.417-51.02 33.163-105.866 52.295-165.814 67.601-43.367 7.653-85.459 8.928-131.376 6.377-65.05-5.102-127.55-24.234-187.498-54.846-54.846-26.785-105.866-68.876-147.958-114.794C73 761.663 36.01 690.236 18.153 608.604 6.674 563.962 4.123 515.493 6.674 470.851c2.551-53.571 16.581-107.142 34.438-156.886 22.96-52.295 51.02-102.04 90.56-145.406 48.47-51.02 100.765-89.285 164.54-117.346 48.468-24.234 99.488-36.99 155.61-42.091 59.948-7.653 117.345-5.102 173.467 11.48 31.887 8.928 63.775 20.407 93.111 34.437 38.265 16.582 70.152 40.816 102.04 68.877 8.928 5.102 17.856 12.755 25.51 21.684 1.275 1.275 1.275 6.377 0 7.653-24.235 25.51-48.47 47.193-68.877 68.876-11.48 10.204-11.48 10.204-20.408 0-19.133-19.132-39.54-36.99-65.05-49.744-26.786-12.755-53.571-26.785-81.632-35.714-28.06-5.102-52.295-11.48-76.53-12.755-42.091-6.377-84.182-2.55-123.723 7.653-39.54 10.204-80.356 28.061-113.519 48.469-26.785 19.132-51.02 38.265-71.427 62.5-43.367 44.642-72.704 96.937-91.836 153.059-6.378 35.713-12.755 68.876-12.755 105.866 3.827 71.427 21.683 140.304 62.5 201.528 56.121 85.458 137.753 142.855 238.517 164.539 98.213 20.407 191.324 6.377 276.782-48.47 84.183-49.744 135.202-122.447 164.539-215.558 3.826-11.48 6.377-24.234 10.204-34.438 2.55-10.204 0-14.03-10.204-14.03H511.77c-12.755 0-12.755 0-12.755-7.654v-96.937c0-7.653 0-7.653 12.755-7.653z"/></svg>