<svg xmlns="http://www.w3.org/2000/svg" width="1000" height="1000">
  <path d="M163.607 123.863C-46.514 281.16-38.297 585.19 131.913 743.663c69.258 69.257 80.996 102.125 80.996 193.687 39.912-48.129 110.343-75.128 190.166-75.128 107.995 0 218.338-10.564 316.943-65.736 143.211-79.823 215.99-205.426 215.99-348.637 0-157.298-64.562-272.336-197.208-348.637-178.427-118.56-397.94-107.996-575.193 24.65zm46.955 334.55c0 56.346 75.127 62.215 75.127 0 0-55.17-75.127-50.475-75.127 0zm37.563 316.944c-269.988-269.989-221.86-572.845 102.126-665.58C553.33 66.344 723.54 127.384 817.448 278.813c79.823 127.95 53.998 316.943-63.388 410.852C634.326 774.183 522.809 807.05 285.689 807.05c-2.348 0-5.87-2.348-21.13-17.608-4.695-3.522-10.565-8.217-16.434-14.086zm177.253-327.508c0 48.128 85.692 55.171 85.692 1.174 0-68.084-85.692-65.737-85.692-1.174zm104.474 457.806c96.257 48.129 177.253 58.693 346.29 77.475-22.304-44.607 7.043-76.3 39.911-110.343 10.565-11.738 21.13-24.65 30.52-36.39 68.084-95.082 64.563-221.86-11.738-284.074 2.347 26.999-1.174 39.911-5.87 52.824-2.347 7.043-4.695 15.26-4.695 24.65 32.868 116.213-43.433 197.21-107.995 273.51-73.954-5.869-228.904-30.52-230.077-30.52-15.26 9.391-29.347 22.304-53.998 22.304zm98.605-447.241c0 53.997 89.213 53.997 89.213-10.565 0-43.433-89.213-55.172-89.213 10.565z" style="fill:#000;fill-opacity:1;fill-rule:nonzero;stroke:none;"/>
</svg>
