<svg xmlns="http://www.w3.org/2000/svg" viewBox="0 0 1000 1000"><path d="M535.03 984.568v-25.476c0-39.489 8.917-45.858 38.215-45.858 30.572 0 36.94 8.917 36.94 20.381 0 22.93 0 33.12-3.82 52.227 0 11.464-21.656 8.917-35.668 8.917-17.833 0-38.214-2.548-35.667-10.19zM29.323 575.672c0-42.036 0-42.036 42.037-42.036 29.297 0 29.297 0 29.297 45.857 0 36.941 0 36.941-36.94 36.941-34.394 0-34.394 0-34.394-40.762zm71.334-119.74c0-56.048 0-56.048 53.5-56.048h226.74c29.299 0 29.299 2.548 29.299 36.941 0 45.858 0 45.858-42.036 45.858H128.68c-16.56 0-28.024-10.19-28.024-26.75zm53.5 119.74c0-42.036 0-42.036 39.49-42.036 36.94 0 36.94 0 36.94 42.036 0 40.762 0 40.762-36.94 40.762-39.49 0-39.49 0-39.49-40.762zm90.442-253.49c0-57.323 0-57.323 52.227-57.323h143.941c21.655 0 26.75 6.37 26.75 28.025 2.548 54.774 2.548 54.774-57.321 54.774H276.445c-21.655 0-31.846-5.095-31.846-25.477zm36.94 416.539V559.112c0-14.012 5.096-25.476 26.751-25.476 50.953 0 50.953 0 50.953 50.952V734.9c0 25.477-6.37 29.298-33.12 29.298h-14.011c-29.298-1.274-30.572-3.821-30.572-25.476zm107.002-570.672c0-36.94 0-36.94 42.036-36.94 36.94 0 36.94 0 36.94 47.13 0 35.668 0 35.668-36.94 35.668-42.036 0-42.036 0-42.036-45.858zm0-126.108C388.54 5 388.54 5 430.577 5c36.94 0 36.94 0 36.94 39.488 0 36.941 0 36.941-40.762 36.941-38.214 0-38.214 0-38.214-39.488zm16.56 844.543V620.255c0-24.202 5.095-29.297 39.488-29.297 36.94 0 36.94 5.095 36.94 35.667v266.228c0 20.381-3.82 30.572-25.476 26.75h-21.655c-19.107 3.822-29.297-6.369-29.297-33.12zm113.37-510.802V112c0-20.381 8.916-30.572 30.571-30.572 40.763 0 48.405 0 48.405 40.763 0 87.893 0 170.692-7.642 253.49 0 26.75 0 26.75-36.941 26.75-24.203 0-34.393 0-34.393-26.75zm16.56 444.563c0-40.762 0-40.762 38.214-40.762 36.94 0 36.94 0 36.94 47.131 0 35.667 0 35.667-36.94 35.667-38.215 0-38.215 0-38.215-42.036zm0-113.37c0-61.143-7.644-61.143 54.774-61.143 47.13 0 89.167 6.369 132.477 0 20.381 0 33.12 10.19 33.12 31.845 0 49.68 0 49.68-52.227 49.68H560.507c-17.834 7.642-25.477-2.548-25.477-20.382zm54.774-145.215v-12.74c0-20.38 10.19-30.571 30.571-30.571h252.217c21.655 0 25.476 10.19 25.476 26.75 0 50.953 3.822 50.953-47.131 50.953-75.156 0-152.859 0-230.562 2.547-22.929 0-30.571-7.642-30.571-36.94zm52.226-145.216v-156.68c0-20.381 7.643-30.572 29.298-30.572h20.381c22.929 0 30.572 10.191 28.024 30.572v179.609c0 16.56-5.095 21.655-21.655 28.024-56.048 0-56.048 0-56.048-50.953zm127.382 2.548c0-36.941 0-36.941 42.036-36.941 36.941 0 36.941 0 36.941 44.584 0 40.762 0 40.762-36.94 40.762-42.037 0-42.037 0-42.037-48.405zm124.835 0c0-36.941 0-36.941 40.762-36.941 35.667 0 35.667 0 35.667 44.584 0 40.762 0 40.762-35.667 40.762-40.762 0-40.762 0-40.762-48.405z"/></svg>