<svg xmlns="http://www.w3.org/2000/svg" viewBox="0 0 1000 1000"><path d="M462.986,275.525c-.775-11.621,14.643-37.962,36.413-38.737,20.918-.775,40.287,24.017,41.061,35.638,.775,11.621-17.819,6.973-37.963,13.945-22.468,7.747-38.737,.775-39.512-10.846Zm537.014,224.475c0,276.142-223.858,500-500,500S0,776.142,0,500,223.858,0,500,0s500,223.858,500,500Zm-186.132-85.021c13.456,2.119,26.208,7.432,37.188,15.495-5.035-24.245-13.928-47.526-26.341-68.952-25.567-42.611-81.348-104.59-151.075-153.399v467.171c.026,26.058-21.076,47.203-47.134,47.23-18.291,.018-34.945-10.537-42.736-27.086-86.304,53.49-199.629,26.889-253.119-59.415-53.49-86.304-26.889-199.629,59.415-253.119,57.675-35.746,130.351-36.818,189.055-2.787V198.825c-.272-14.124,6.024-27.575,17.044-36.413-90.645-41.836-192.137-50.358-278.908,26.341-145.652,129.382-218.478,309.898-145.652,489.638,1.549,3.874,3.099,7.747,4.648,10.846,2.098-4.367,4.988-8.307,8.522-11.621,37.962-38.737,79.799,40.287,168.894,85.997,56.556,28.666,89.096,66.628,101.492,102.266,82.898,10.072,168.119-3.099,236.297-42.611,89.096-51.133,141.003-144.102,159.597-238.621-13.368,11.69-30.296,18.516-48.034,19.369-27.891-1.549-12.396-45.71-24.792-96.068-14.72-55.782,6.973-94.519,35.638-92.969Zm-278.133,48.809c-97.618-55.782-179.741,87.546-82.123,143.328,44.935,25.567,99.167,15.495,109.239-41.836,5.423-33.314,2.324-85.222-27.116-101.492Z"/></svg>