<svg xmlns="http://www.w3.org/2000/svg" width="1000" height="1000">
  <path d="M70.413 750.852V255.93c50.88-30.065 105.228-61.287 157.265-91.352 16.189-9.251 31.221-17.346 46.254-26.597C277.4 135.67 493.64 8.47 490.172 8.47c5.781-4.625 10.406-4.625 19.657 0 92.51 55.505 158.422 93.665 205.832 121.418 28.91 15.033 58.975 31.222 86.727 47.41 11.564 6.939 26.597 15.033 39.317 21.971 31.221 17.346 58.974 34.691 87.883 50.88v497.235c-21.97 11.564-157.265 92.509-194.268 114.48-37.004 21.97-75.164 43.941-111.011 64.756-15.033 8.094-95.978 54.349-111.01 63.6-10.408 6.938-15.033 5.781-23.128 0-8.094-4.626-190.8-108.698-202.363-115.636-38.16-23.128-77.476-42.786-113.323-63.6-33.534-19.658-70.538-39.316-104.072-60.13zm33.534-37.003c0 8.094 4.625 16.189 15.033 21.97 6.938 3.47 250.93 152.64 356.159 205.833 9.25 4.625 6.938 6.938 6.938-6.939V762.416c0-12.72-3.47-13.877-11.564-19.658-6.938-5.782-152.64-89.04-176.923-104.073-13.876-8.094-20.814-18.502-20.814-32.378V405.101c0-6.939 0-12.72-5.782-15.033-18.502-6.938-35.847-20.815-52.036-31.222-33.535-21.97-68.226-40.472-104.073-60.13-8.094-4.626-6.938-5.782-6.938 4.625zm19.658-8.095c0 8.095 6.938 16.19 15.033 16.19 8.094 0 16.189-8.095 16.189-16.19 0-6.938-8.095-13.876-16.19-13.876-8.094 0-15.032 6.938-15.032 13.876zm3.47-442.886c-5.783 3.47-3.47 4.626 8.094 11.564 47.41 27.752 95.978 55.505 145.701 80.945 12.72 4.625 15.033 4.625 23.127 1.156 84.415-55.505 188.487-114.48 197.738-111.01 17.345 5.782 176.923 99.447 189.643 107.541 11.563 6.938 16.189 6.938 32.378 0 32.378-13.876 129.512-68.225 158.421-93.665-13.876-8.094-100.603-56.661-181.548-100.603C627.779 119.48 557.24 77.85 537.582 68.6c-28.909-13.877-47.41-15.033-77.476 2.313-57.818 33.534-112.167 65.912-168.829 99.446-13.876 8.095-26.596 16.19-39.316 24.284-13.876 9.25-27.753 16.19-41.629 23.127-16.189 8.095-75.163 41.63-83.258 45.098zm45.097 411.664c0 8.095 6.938 15.033 15.033 15.033 6.938 0 15.033-6.938 15.033-15.033 0-8.094-8.095-13.876-15.033-13.876-8.095 0-15.033 5.782-15.033 13.876zm52.036-34.69c0 8.094 5.782 16.189 13.877 16.189 8.094 0 15.032-8.095 15.032-16.19 0-8.094-6.938-13.876-15.032-13.876-8.095 0-13.877 5.782-13.877 13.877zM309.78 595.9c0 2.313 1.156 6.938 6.938 10.407 9.251 5.782 158.422 95.978 160.734 97.134 5.782 2.313 4.626 2.313 4.626-3.469V526.518c0-10.407-3.47-17.345-11.564-21.97-32.378-18.502-64.756-37.004-97.134-54.35-19.658-10.407-40.473-23.127-61.287-34.69-2.313-2.313-2.313-2.313-2.313 1.156zm16.19-211.614c57.817 27.753 104.072 53.193 158.42 86.727 8.095 6.938 19.659 6.938 33.535 0 31.222-20.814 62.443-39.316 93.665-56.662 16.19-9.25 32.378-18.501 46.254-27.752 9.251-3.47 9.251-3.47 6.939-4.626-57.818-33.534-145.702-80.945-168.829-97.134-32.378 19.658-169.985 99.447-169.985 99.447zm159.577-173.454c0 6.938 6.938 13.876 15.032 13.876 9.251 0 15.033-6.938 15.033-13.876 0-8.094-5.782-16.189-15.033-16.189-8.094 0-15.032 8.095-15.032 16.19zm0-61.287c0 8.095 6.938 15.033 15.032 15.033 9.251 0 15.033-6.938 15.033-15.033 0-6.938-5.782-13.876-15.033-13.876-8.094 0-15.032 6.938-15.032 13.876zm3.469-56.662c0 8.095 6.938 15.033 13.876 15.033 8.095 0 15.033-6.938 15.033-15.033 0-8.094-6.938-15.032-15.033-15.032-6.938 0-13.876 6.938-13.876 15.032zm28.909 845.3c0 6.938 0 12.72 8.094 6.938 40.473-24.284 235.898-142.233 357.316-211.614 10.407-8.095 12.72-11.564 12.72-23.127V287.152c3.353-1.735 3.006-1.157 0 1.156-14.34 10.87-89.04 60.13-89.04 60.13-23.127 12.72-42.785 25.44-67.069 37.004-12.72 5.782-18.502 16.19-18.502 31.222v189.643c0 16.19-5.782 25.44-18.502 35.847-57.818 31.222-115.636 63.6-169.984 100.604-11.564 6.938-15.033 11.563-15.033 21.97zm0-238.21c0 6.937 0 6.937 5.782 3.468 49.723-28.909 101.76-57.818 154.952-89.04 6.938-6.937 6.938-11.563 6.938-18.501V420.133c-32.378 15.033-127.2 69.382-152.64 83.258-12.72 6.938-15.032 12.72-15.032 20.815v85.57zm220.865-60.131c0 8.094 5.781 16.189 13.876 16.189 8.094 0 15.033-8.095 15.033-16.19 0-8.094-6.939-13.876-15.033-13.876-8.095 0-13.876 5.782-13.876 13.877zm50.88 33.534c0 8.095 6.938 16.19 15.032 16.19 8.095 0 13.876-8.095 13.876-16.19 0-6.938-5.781-13.876-13.876-13.876-8.094 0-15.033 6.938-15.033 13.876zm53.192 28.909c0 8.095 5.782 15.033 13.876 15.033 8.095 0 16.19-6.938 16.19-15.033 0-6.938-8.095-13.876-16.19-13.876-8.094 0-13.876 6.938-13.876 13.876zm-327.25-552.74c0-6.938-5.782-13.876-15.033-13.876-8.094 0-15.032 6.938-15.032 13.876m32.378-56.662c0-8.094-6.938-15.032-15.033-15.032-6.938 0-13.876 6.938-13.876 15.032" style="fill:#000;fill-opacity:1;fill-rule:nonzero;stroke:none;"/>
</svg>
