<svg xmlns="http://www.w3.org/2000/svg" width="1000" height="1000">
  <path d="M749.728 72.746C824.2 116.262 883.54 175.306 927.75 249.779c44.803 77.144 67.253 160.517 67.253 250.221 0 89.704-22.45 172.78-67.253 249.232-44.209 74.472-103.55 133.813-178.022 178.022-76.451 44.803-159.528 67.253-249.232 67.253-89.703 0-173.077-22.45-250.22-67.253-74.473-44.209-133.517-103.55-177.034-178.022C27.747 672.78 5 589.704 5 500c0-89.704 22.747-173.077 68.242-250.22 43.517-74.473 102.56-133.518 177.034-177.034 77.143-44.803 160.517-67.253 250.22-67.253 89.704 0 172.781 22.45 249.232 67.253zM328.408 619.67c2.67 42.824 17.802 80.11 45.494 111.758l86.045-87.033c-5.242-6.626-8.605-14.835-9.89-24.725zm0-25.715h121.648c1.286-8.604 4.649-17.505 9.89-26.703L328.409 434.725zm0-198.792c44.802 45.495 95.637 96.627 152.308 153.298 7.22-4.649 15.132-7.616 23.736-8.901V339.78L328.408 182.526zm64.286 355.057c32.934 28.384 70.22 43.516 111.758 45.494V674.067c-8.604-1.286-17.11-4.649-25.714-9.89zm136.484 45.494c43.516-2.67 81.099-18.099 112.747-46.483l-86.044-85.056c-7.912 5.242-16.813 8.605-26.703 9.89zm0-257.143c9.197 1.285 18.099 4.945 26.703 10.879l86.044-86.045c-32.934-28.978-70.517-44.505-112.747-46.483zm45.494 28.681c5.242 7.912 8.901 16.813 10.88 26.703H707.2c-3.264-41.538-18.791-79.12-46.484-112.747zm.99 76.154 87.033 86.044c27-32.34 41.835-68.934 44.505-109.78H584.562c-1.285 8.604-4.252 16.516-8.9 23.736z" style="fill:#000;fill-opacity:1;fill-rule:nonzero;stroke:none;"/>
</svg>
