<svg xmlns="http://www.w3.org/2000/svg" width="1000" height="1000">
  <path d="M500.496 995.003c275.935 0 494.507-224.506 494.507-495.496C995.003 226.54 773.464 5 500.496 5 223.572 5 5 229.506 5 499.507c0 276.924 224.506 495.496 495.496 495.496zM153.352 692.365c0-11.868 4.945-24.725 13.846-33.627l367.914-370.88c8.9-8.901 20.769-12.857 33.626-12.857s24.726 3.956 33.627 12.857c18.79 18.791 18.79 48.462 0 67.253L233.462 725.002c-8.9 8.902-20.769 14.836-32.637 14.836-12.857 0-24.726-5.934-33.627-14.836-8.9-8.9-13.846-20.769-13.846-32.637zm242.309-31.649 368.902-371.869c13.846-13.846 33.626-17.802 51.429-9.89 17.802 6.923 29.67 25.714 29.67 43.517v369.89c0 27.693-21.758 47.474-47.473 47.474-25.714 0-47.472-19.78-47.472-47.473V437.199L462.914 725.991c-17.803 18.792-48.462 18.792-66.264 0-18.792-17.802-18.792-48.461-.99-65.275z" style="fill:#000;fill-opacity:1;fill-rule:nonzero;stroke:none;"/>
</svg>
