<svg xmlns="http://www.w3.org/2000/svg" viewBox="0 0 1000 1000"><path d="M5 500.496c0 271.98 220.55 494.507 495.496 494.507 271.98 0 494.507-220.55 494.507-495.496C995.003 227.528 773.464 5 500.496 5 226.54 5 5 225.55 5 500.496zm192.858 149.341c4.945-101.868 4.945-207.693 4.945-310.55v-19.78c99.89 60.33 202.748 115.714 305.605 177.033 97.913-61.319 199.781-116.704 301.65-177.033v334.286c0 10.88 0 16.814-9.89 23.737-28.682 15.824-56.374 32.637-86.045 49.45-1.978-27.692-1.978-52.417-1.978-77.143v-150.33c-71.209 37.583-137.473 81.1-203.737 119.67-72.198-38.57-138.462-82.087-212.638-119.67V726.98c-31.648-21.758-97.912-44.505-97.912-77.143zm139.45 99.89c32.638-18.79 61.32-35.604 92.968-55.384 19.78 11.868 41.539 25.714 63.297 36.593 9.89 7.913 16.813 7.913 27.692 0 17.803-10.879 39.561-24.725 60.33-36.593 32.638 19.78 59.341 36.593 91.979 55.385-1.978.989-155.276 92.967-165.166 98.901 0 0-3.956 1.978-6.923 0-52.418-31.648-74.176-47.473-164.176-98.901zm0-511.32c22.748-9.89 39.561-21.758 58.353-31.648 34.615-21.758 57.362-35.605 92.967-56.374 5.934-3.956 12.857-6.923 12.857-6.923 2.967-2.967 6.923 0 6.923 0 23.737 13.846 44.506 24.725 66.264 39.56 34.616 16.814 45.495 27.693 98.902 55.385-12.858 8.901-29.67 16.814-38.572 25.715-17.802 8.9-33.626 15.824-50.44 25.714-15.824 12.857-34.615-.989-76.154-25.714-65.275 30.66-59.34 36.593-78.132 30.66-13.846-7.913-79.121-47.474-92.967-56.375z"/></svg>