<svg xmlns="http://www.w3.org/2000/svg" viewBox="0 0 1000 1000"><path d="M434.357,178.6H330.243V69.95H434.357Zm-366.673,0H176.33V69.95H67.684ZM171.8,332.506H63.159V441.152H171.8ZM99.375,889.31v40.74h40.738V889.31ZM67.684,712.762H176.33V608.645H67.684ZM366.455,930.05H407.2V889.31H366.455Zm0-253.5H407.2V635.8H366.455ZM330.243,445.677H438.889V337.035H330.243ZM629.014,930.05h40.737V889.31H629.014Zm0-253.5h40.737V635.8H629.014Zm0-267.085h40.737v-40.74H629.014ZM597.328,178.6h108.64V69.95H597.328ZM896.1,930.05h40.742V889.31H896.1Zm0-253.5h40.742V635.8H896.1Zm0-267.085h40.742v-40.74H896.1Zm0-303.3v40.743h40.742V106.164Z"/></svg>