<?xml version="1.0" encoding="utf-8"?>
<!-- Generator: Adobe Illustrator 24.2.3, SVG Export Plug-In . SVG Version: 6.00 Build 0)  -->
<svg version="1.1" id="Layer_1" xmlns="http://www.w3.org/2000/svg" xmlns:xlink="http://www.w3.org/1999/xlink" x="0px" y="0px"
	 viewBox="0 0 1000 1000" style="enable-background:new 0 0 1000 1000;" xml:space="preserve">
<circle cx="500" cy="904.6" r="69.8"/>
<circle cx="500" cy="95.4" r="69.8"/>
<circle cx="500" cy="300" r="55.8"/>
<circle cx="304.7" cy="197.7" r="55.8"/>
<circle cx="304.7" cy="806.9" r="55.8"/>
<ellipse transform="matrix(0.1602 -0.9871 0.9871 0.1602 166.9254 1005.5291)" cx="674.4" cy="404.7" rx="55.8" ry="55.8"/>
<ellipse transform="matrix(0.1602 -0.9871 0.9871 0.1602 -23.5794 1167.6112)" cx="674.4" cy="597.7" rx="55.8" ry="55.8"/>
<circle cx="500" cy="700" r="55.8"/>
<circle cx="500" cy="500" r="44.2"/>
<circle cx="304.7" cy="600" r="44.2"/>
<circle cx="304.7" cy="404.7" r="44.2"/>
<circle cx="114" cy="300" r="32.6"/>
<circle cx="114" cy="500" r="32.6"/>
<circle cx="114" cy="700" r="32.6"/>
<ellipse transform="matrix(0.7071 -0.7071 0.7071 0.7071 57.7072 534.7811)" cx="674.4" cy="197.7" rx="69.8" ry="69.8"/>
<ellipse transform="matrix(0.7071 -0.7071 0.7071 0.7071 -371.4159 712.5297)" cx="674.4" cy="804.6" rx="69.8" ry="69.8"/>
<circle cx="848.8" cy="300" r="69.8"/>
<circle cx="848.8" cy="700" r="69.8"/>
<circle cx="848.8" cy="500" r="69.8"/>
</svg>
