<?xml version="1.0" encoding="utf-8"?>
<!-- Generator: Adobe Illustrator 26.0.1, SVG Export Plug-In . SVG Version: 6.00 Build 0)  -->
<svg version="1.1" id="Layer_1" xmlns="http://www.w3.org/2000/svg" xmlns:xlink="http://www.w3.org/1999/xlink" x="0px" y="0px"
	 viewBox="0 0 1000 1000" style="enable-background:new 0 0 1000 1000;" xml:space="preserve">
<style type="text/css">
	.st0{fill:#FFFFFF;}
</style>
<rect class="st0" width="32" height="32"/>
<g>
	<path d="M279.2,668c0,23.9,19.7,43.2,43.9,43.2h351.2c24.2,0,43.9-19.3,43.9-43.2V567.2h-70.9c-27,54-83.5,91.2-148.9,91.2
		c-79,0-145.1-54.4-161.8-127.2l15.7,0h365.8v-120h-439V668z M592.5,440c34.4,0,62.9,25,67.6,57.6h-37.4
		c-4.1-12.5-16.1-21.6-30.2-21.6c-14.1,0-26.1,9.1-30.2,21.6h-37.4C529.7,465,558.1,440,592.5,440z M404.8,440
		c34.4,0,62.9,25,67.6,57.6h-37.4c-4.1-12.5-16.1-21.6-30.2-21.6c-14.1,0-26.1,9.1-30.2,21.6h-37.4C341.9,465,370.4,440,404.8,440z"
		/>
	<path d="M498.4,622.7c44.3,0,83.5-22,106.8-55.5H391.6C414.9,600.7,454,622.7,498.4,622.7z"/>
	<path d="M500.5,5C223.6,5,5,229.5,5,499.5C5,773.5,226.5,995,499.5,995C776.4,995,995,770.5,995,499.5C995,223.6,770.5,5,500.5,5z
		 M500,861.4c-199.6,0-361.4-161.8-361.4-361.4c0-199.6,161.8-361.4,361.4-361.4c199.6,0,361.4,161.8,361.4,361.4
		C861.4,699.6,699.6,861.4,500,861.4z"/>
	<path d="M674.2,279.2H323.1c-24.2,0-43.9,19.3-43.9,43.2v52.8h439v-52.8C718.1,298.5,698.5,279.2,674.2,279.2z"/>
</g>
</svg>
