<svg xmlns="http://www.w3.org/2000/svg" viewBox="0 0 1000 1000"><path d="M5 500.496c0 271.98 220.55 494.507 495.496 494.507 271.98 0 494.507-220.55 494.507-495.496C995.003 227.528 773.464 5 500.496 5 226.54 5 5 225.55 5 500.496zm109.78 133.517v-270.99c0-9.89.99-12.857 12.858-12.857h133.517c58.352 0 79.12 20.77 79.12 62.308v21.758c0 21.759-8.9 37.583-20.768 39.56 32.637 6.924 47.472 27.693 47.472 70.22v34.616c0 47.473-21.758 68.242-77.143 68.242H127.638c-11.868 0-12.857-3.956-12.857-12.857zm94.946-55.385h51.429c11.868 0 14.835-8.9 14.835-20.769v-13.846c0-11.868-2.967-15.824-14.835-15.824h-51.429zm0-115.714h34.615c9.89 0 16.814-2.967 16.814-14.836V436.21c0-10.879-6.923-17.802-16.814-17.802h-34.615zm178.023-50.44v-49.45c0-9.891 3.956-12.858 15.824-12.858h217.583c11.868 0 16.813 2.967 16.813 12.857v49.45c0 12.858-4.945 14.836-16.813 14.836h-58.352v206.704c0 8.901-1.978 12.857-18.791 12.857H476.76c-7.912 0-13.846-3.956-13.846-12.857V427.31h-59.341c-11.868 0-15.824-1.978-15.824-14.835zm275.935 221.54V565.77c0-71.209 29.67-83.077 67.253-93.956l56.373-20.77c7.912 0 11.868-2.967 11.868-14.835 0-8.9-3.956-8.9-11.868-8.9H698.3c-13.846 0-16.813-1.979-16.813-14.836v-49.45c0-9.891 2.967-12.858 16.813-12.858h121.649c47.472 0 75.165 21.758 75.165 67.253v38.571c0 45.495-27.693 64.286-66.264 76.155l-55.385 15.824c-8.901.989-13.846.989-13.846 9.89v11.868h119.67c11.869 0 15.825 5.934 15.825 13.846v50.44c0 8.901-3.956 12.857-15.824 12.857H681.486c-8.901 0-17.802-3.956-17.802-12.857z"/></svg>