<svg xmlns="http://www.w3.org/2000/svg" width="1000" height="1000">
  <path d="M357.878 971.676c-139.28-45.534-242.4-127.227-304.006-257.132C-109.514 371.7 158.332-19.355 537.335 7.43c154.011 10.714 278.56 121.87 308.023 281.238 20.088 108.478 10.714 216.956-56.248 309.363-57.587 87.05-143.298 128.566-241.061 147.315-34.82 10.714-77.676 16.07-117.853 26.785-76.336 20.088-113.834 74.997-97.764 148.654 5.357 16.071 16.071 32.142 25.446 50.891zm42.855-154.011c24.106-16.071 56.248-20.089 85.711-24.107 101.782-13.392 204.902-48.212 287.935-123.209C935.086 524.373 928.39 255.188 763.665 99.837c-5.357-10.714-16.071-14.732-26.785-25.445 88.39 38.837 154.012 107.138 202.224 194.188 80.354 170.082 76.336 340.165-26.785 499.533-101.781 158.03-251.775 234.365-441.946 224.99-25.445 0-45.534-9.374-65.622-21.427-66.962-28.124-66.962-117.852-4.018-154.011z" style="fill:#000;fill-opacity:1;fill-rule:nonzero;stroke:none;"/>
</svg>
