<svg xmlns="http://www.w3.org/2000/svg" viewBox="0 0 1000 1000"><path d="M5 500.496c0 271.98 220.55 494.507 495.496 494.507 271.98 0 494.507-220.55 494.507-495.496C995.003 227.528 773.464 5 500.496 5 226.54 5 5 225.55 5 500.496zm186.924 161.21V334.341c0-6.923 1.978-10.88 8.9-13.846 26.704-15.825 55.386-32.638 81.1-48.462 7.912-4.945 12.857-4.945 19.78 0 35.605 23.736 71.21 44.505 106.814 67.253 2.967 2.967 6.923 3.956 11.868 6.923 0-20.77 1.978-27.692-8.901-34.616-35.605-24.725-84.066-54.395-91.978-60.33 6.923-2.967 12.857-6.923 19.78-10.879a15607.587 15607.587 0 0 1 157.253-91.978c6.923-2.967 10.88-5.934 17.802-.989 52.418 30.66 164.177 95.934 185.935 106.814-31.648 19.78-61.319 37.582-93.956 55.384-18.792 8.902-13.847 13.847-13.847 36.594 16.814-9.89 33.627-18.791 49.451-27.692 26.704-13.847 52.418-30.66 79.121-46.484 2.967-1.978 5.934-1.978 10.88 1.978 26.703 16.813 55.384 30.66 81.099 46.484 5.934 2.967 7.912 4.945 7.912 12.857v346.155c0 5.934-1.978 8.9-7.912 12.857-86.045 49.45-173.078 98.901-259.122 150.33-12.857 6.923-26.703 13.846-39.56 22.747-6.924 3.956-10.88 3.956-15.825 0-37.582-22.747-74.176-43.516-111.758-65.275-56.374-33.626-114.726-65.274-172.089-98.901-22.747-12.857-22.747-12.857-22.747-39.56zm39.56-.99c55.385-35.604 78.132-49.45 121.649-75.165 6.923-3.956 5.934-6.923 5.934-9.89V439.177c0-5.934-1.978-8.9-7.912-12.857-18.791-10.88-38.572-20.77-58.352-32.637-4.945-4.945-8.901-2.967-11.868 0-14.835 7.912-28.681 14.835-42.528 23.736-5.934 3.956-6.923 6.923-6.923 13.846v218.572zm33.627 24.726c12.857 9.89 20.77 14.835 31.648 8.9 38.572-23.735 78.132-46.483 114.726-69.23 6.923-3.956 8.901-6.923 8.901-14.835V426.32c10.88 6.923 21.758 13.846 31.648 19.78 5.935 2.967 7.913 6.923 7.913 13.847v212.638c11.868-6.923 20.769-10.88 30.659-17.803 11.868-8.9 21.758-8.9 32.637 0 8.902 5.934 18.792 10.88 30.66 15.825V457.969c0-2.968 0-8.902.989-9.89 11.868-7.913 23.736-14.836 37.582-23.737v185.935c0 3.956 0 7.912 4.946 10.879 41.538 24.725 84.066 49.45 123.626 73.187 2.967.989 5.934.989 6.923.989 7.913-2.967 12.858-6.923 21.759-11.868-3.956-1.978-3.956-1.978-4.945-3.956-41.539-22.748-81.1-47.473-122.638-72.198-4.945-1.978-6.923-5.934-6.923-12.857V419.397c0-4.945 1.978-8.901 5.934-10.88 14.835-8.9 29.67-17.801 43.517-26.703 8.9-4.945 16.813-8.9 24.725-13.846-7.912-4.945-13.846-8.9-20.77-13.846-3.955-1.978-3.955-4.945-10.879 0-26.703 15.824-51.428 30.66-76.154 45.495-8.9 5.934-17.802 8.9-27.692 15.824v-73.187c0-5.934-16.813 5.934-29.67 12.857-16.814 12.857-16.814 12.857-34.616 0-15.824-11.868-19.78-9.89-29.67-15.824v75.165c-3.956-1.978-5.935-1.978-7.913-3.956-31.648-16.813-63.296-37.583-92.967-55.385-4.945-.989-7.912-2.967-10.879-2.967-6.923 2.967-14.835 8.901-23.736 13.846 3.956 3.956 7.912 5.934 10.879 6.923 17.802 11.868 35.604 21.759 55.385 33.627 1.978 1.978 4.945 7.912 4.945 10.879.989 60.33.989 120.66 0 179.012 0 3.956-1.978 8.9-4.945 10.879-69.231 42.527-44.506 25.714-125.605 78.132zm61.319 34.615c6.923 3.956 14.835 7.912 17.802 10.88 5.934 3.956 9.89 3.956 15.824 0 17.802-10.88 35.605-20.77 53.407-31.649 3.956-1.978 6.923-3.956 6.923-6.923v-26.703c-31.648 17.802-61.319 35.604-93.956 54.395zm133.517 28.682c13.846-6.923 25.714-13.846 38.571-20.77 4.945-3.956 8.901-3.956 13.846 0 11.869 6.924 26.704 13.847 41.539 21.759v-29.67c0-3.957-32.638-25.715-44.506-25.715-12.857-.99-49.45 17.802-49.45 25.714zm0-461.87c0 3.956.989 8.901 4.945 9.89 12.857 7.912 24.725 14.835 37.582 21.759 2.967 1.978 6.923 1.978 9.89 0 11.869-6.924 23.737-12.858 35.605-18.792 1.978-2.967 5.934-5.934 5.934-7.912v-31.648c-16.813 8.9-29.67 15.824-41.539 22.747-4.945 3.956-8.9 3.956-12.857 0-11.868-6.923-25.714-13.846-39.56-20.77zm24.725 343.188V385.77c5.934 2.968 13.846 10.88 20.77 10.88 6.922 0 14.834-5.934 22.747-8.901v240.33c-15.825-13.846-29.67-13.846-43.517 1.978zm107.802 58.352c0 3.956 3.957 6.923 4.946 8.901 19.78 12.857 38.571 22.747 60.33 33.626 1.977 1.979 5.934 1.979 6.923 1.979 7.912-3.957 13.846-8.902 20.769-12.858-30.66-18.791-61.319-36.593-92.967-56.374zm62.308-114.726c0 4.945.99 8.901 5.934 11.868 2.968 1.978 96.924 60.33 118.682 75.165 1.978-16.813 1.978-16.813 1.978-232.418 0-3.956-2.967-6.923-6.923-8.901-12.857-8.901-28.681-17.802-42.527-24.725-1.979-.99-6.924-.99-10.88 0-18.79 10.879-39.56 22.747-60.33 33.626-4.945 2.967-5.934 7.912-5.934 11.868z"/></svg>