<svg xmlns="http://www.w3.org/2000/svg" viewBox="0 0 1000 1000"><path d="M500,0C223.858,0,0,223.858,0,500s223.858,500,500,500,500-223.858,500-500S776.142,0,500,0Zm35.676,248.72h220.258v217.156h-111.68l-108.578-108.578v-108.578Zm-291.609,0h220.258v108.578l-108.578,108.578h-111.68V248.72Zm220.258,502.56H151v-217.156h204.747l108.578,108.578v108.578Zm27.92-142.702l-83.76-55.84v-96.169l83.76,46.533v105.476Zm6.204-116.578l-86.862-47.84,86.862-55.84,86.862,55.84-86.862,47.84Zm8.307,11.102l84.76-46.533v96.169l-84.76,55.84v-105.476Zm342.244,248.178h-313.324v-108.578l108.578-108.578h204.747v217.156Z"/></svg>