<svg xmlns="http://www.w3.org/2000/svg" viewBox="0 0 1000 1000"><path d="M771.22,463.9c-9.582-2.735-17.115,8.355-10.954,16.158,16.019,20.4,24.644,42.031,24.644,64.486,0,118.838-240.826,215.09-537.923,215.09-85.162,0-165.666-7.944-237.132-22.045-8.9-1.782-13.692,9.994-6.025,14.922,94.606,61.475,264.511,102.549,458.242,102.549,297.1,0,537.928-96.388,537.928-215.09C1000.135,567.132,909.638,502.783,771.22,463.9Z"/><path d="M22.153,392.43C103.205,445,248.47,480.188,414.267,480.188c254.245,0,460.3-82.422,460.3-184.145,0-62.432-77.354-117.47-195.781-150.74-8.215-2.329-14.651,7.118-9.312,13.826,13.69,17.39,21.083,36.009,21.083,55.178,0,101.722-206.053,184.145-460.3,184.145-72.836,0-141.7-6.708-202.9-18.894C19.689,378.05,15.718,388.183,22.153,392.43Z"/></svg>