<svg xmlns="http://www.w3.org/2000/svg" viewBox="0 0 1000 1000"><path d="M500.496 995.003c275.935 0 494.507-224.506 494.507-495.496C995.003 226.54 773.464 5 500.496 5 223.572 5 5 229.506 5 499.507c0 276.924 224.506 495.496 495.496 495.496zM157.308 287.858h122.638l91.978 159.231-60.33 105.825zM371.924 657.75l60.33-104.835 61.32-105.825-92.968-159.23h122.638l31.648 54.395 59.34 104.835-59.34 105.825-122.638 209.67zm240.33 0 61.32-104.835 61.319-105.825-92.968-159.23h121.649l31.648 54.395 60.33 104.835-60.33 105.825-60.33 104.835-61.318 104.836z"/></svg>