<svg xmlns="http://www.w3.org/2000/svg" viewBox="0 0 1000 1000"><path d="M282.725,520.128c.53,6.125,1.172,12.244,1.548,18.379.215,3.494,1.757,5.13,5.268,5.042,2.819-.072,5.642.027,8.464.027q333.978,0,667.956,0h12.972c-1.266,11.6-2.409,22.078-3.65,33.447H288.635c1.369,7.6,2.3,14.086,3.871,20.419.325,1.308,2.909,2.586,4.63,2.9,2.735.5,5.62.181,8.441.181q326.667,0,653.335,0H971c-2.832,11.725-5.378,22.261-8.087,33.479H301.128c2.254,7.43,3.969,13.816,6.23,20,.538,1.472,2.774,2.9,4.455,3.244,2.713.555,5.614.217,8.435.217q311.661,0,623.323,0h12.162c-4.337,11.163-7.979,20.927-12.022,30.522-.605,1.437-2.983,2.643-4.725,2.967-2.731.509-5.619.2-8.44.2q-298.965,0-597.929,0h-11.6c3.833,8.1,6.778,14.814,10.238,21.252.76,1.414,3.28,2.336,5.119,2.611a62.558,62.558,0,0,0,9.215.221q286.268.008,572.535,0H931.3c-2.871,5.863-5.489,10.152-7.144,14.785C919,744.456,909.71,748.61,893.994,748.548c-177.247-.7-354.5-.443-531.747-.443H350.47c4.579,8.745,8.919,16.024,14.427,22.553.936,1.109,3.271,1.28,5,1.426,2.8.237,5.638.108,8.459.108q254.331,0,508.663,0h9.661l.982,1.875c-7.355,9.729-14.635,19.516-22.163,29.109-.906,1.153-3.121,1.567-4.795,1.762a66.512,66.512,0,0,1-7.687.11H392.205l-1.237,1.7c6.249,7.156,11.5,15.243,19.23,21,2.3,1.712,6.4,1.334,9.683,1.344,30.269.089,60.537.053,90.805.053H852.2c-2.065,2.81-3.018,4.512-4.343,5.842-7.24,7.269-14.732,14.293-21.808,21.715-4.033,4.229-8.491,5.711-14.31,5.7q-101.579-.246-203.157-.105H447.294l-.936,2.335c8.924,6.974,17.643,14.242,26.914,20.72,2.346,1.639,6.453,1,9.751,1q147.751.065,295.5.035h8.919l.433,1.373a41.462,41.462,0,0,1-4.272,3.793c-11.7,7.876-23.494,15.6-35.153,23.527-4.658,3.167-9.589,4.251-15.2,4.241q-99.268-.18-198.54-.077H526.59l-.576,1.836c4.575,2.515,9.26,4.85,13.705,7.577,17.927,11,36.856,16.133,58.348,15.03,28.142-1.444,56.415-.362,84.631-.34a14.316,14.316,0,0,1,7.563,1.731c-7.277,2.9-14.514,5.918-21.844,8.683-6.235,2.352-12.682,4.159-18.847,6.669-11.093,4.516-22.026,5.91-33.465.954-3.108-1.347-7.038-1.074-10.591-1.076-82.34-.055-164.681.023-247.02-.18A60.431,60.431,0,0,1,339.806,957c-26.086-8.723-50.789-20.616-74.8-33.97a7.023,7.023,0,0,1-3.307-3.779H517.937l.534-2.135c-10.909-5.462-19.374-14.269-33.891-14.144-81.308.705-162.625.3-243.939.418-5.626.008-10.483-.99-14.976-4.571-12.627-10.064-25.443-19.892-38.145-29.862-1.942-1.525-3.679-3.311-5.511-4.977q.3-.728.6-1.456H440.585q.326-.954.65-1.908C433.877,854.3,429.1,845.8,416.293,845.89c-81.31.591-162.627.21-243.94.453-7.313.022-12.718-1.864-17.449-7.395-9.274-10.842-18.925-21.362-28.421-32.016l.862-1.872H389c-4.273-5.525-7.176-9.685-10.549-13.421-1.19-1.318-3.468-1.939-5.356-2.265a40.988,40.988,0,0,0-6.91-.128c-81.314,0-162.629-.089-243.942.155-6.952.021-11.531-1.9-15.115-7.824-5.571-9.208-11.7-18.081-17.51-27.143-1.057-1.647-1.755-3.524-3.179-6.442H349.161c-2.905-5.253-4.909-9.336-7.391-13.1a6.988,6.988,0,0,0-4.381-2.4,47.512,47.512,0,0,0-7.677-.183c-80.8,0-161.6-.148-242.4.21-8.511.038-13.114-2.6-16.231-10.276-4.113-10.13-9.077-19.914-14.25-31.087H320.3c-2.017-5.353-3.306-9.669-5.309-13.623-.732-1.445-3.056-2.527-4.834-2.89-2.467-.5-5.1-.2-7.669-.2q-121.2-.006-242.4-.006c-10.392,0-10.505.025-13.8-10.085-3.152-9.662-6.034-19.412-9.416-30.359H300.219c-1.282-5.275-1.949-9.464-3.427-13.344-.538-1.41-2.9-2.561-4.627-2.972-2.191-.519-4.588-.181-6.9-.181q-121.2,0-242.4-.031c-10.606-.007-10.458,1.744-12.908-10.309-1.93-9.5-3.467-19.078-5.415-29.939H286.8a48.968,48.968,0,0,0,.618-6.256c-.473-9.787-1.113-10.4-10.754-10.406q-121.587-.016-243.174-.011c-2.564,0-5.295.469-7.638-.268-1.739-.546-4.112-2.59-4.255-4.145-1.048-11.442-1.605-22.929-2.364-35.147a68.942,68.942,0,0,1,7.392-.864q127.358-.029,254.715.031c.507,0,1.014.076,1.521.116Z"/><path d="M284.266,463.2v22.96H979.507v33.97H282.725l.135.136v-16.8H19.024a81.828,81.828,0,0,1-.588-8.9c.383-8.184,1.122-16.353,1.466-24.539.211-5.028,2.2-7.562,7.529-7.225,4.087.259,8.2.039,12.308.039q116.958,0,233.916.02c3.579,0,7.158.3,10.737.46Z"/><path d="M291.934,406.238c-.894,7.317-1.789,14.634-2.8,22.921h685.9c1.38,11.266,2.666,21.755,4.067,33.188-4.975.245-8.713.59-12.45.591q-335.04.038-670.079.033c-4.1,0-8.2.148-12.3.227l.126.122c.446-5.294.892-10.588,1.424-16.912H22.97c0-3.681-.355-6.446.065-9.088,1.369-8.6,3.082-17.151,4.536-25.742.661-3.911,2.61-5.956,6.725-5.672,1.531.106,3.076-.011,4.615-.011q122.348,0,244.7.018c2.81,0,5.62.288,8.431.441Z"/><path d="M307.317,349.287c-1.835,7.391-3.671,14.783-5.769,23.235h11.233q319.331,0,638.663.036c12.362,0,10.644-2.16,14.19,10.818,1.688,6.177,2.937,12.475,4.339,18.728a20.244,20.244,0,0,1,.022,3.284c-3.078.205-6.236.6-9.395.6q-139.275.05-278.55.027-189.289,0-378.581.009c-3.845,0-7.69.139-11.535.214l.1.116c1.305-5.17,2.611-10.341,4.219-16.712H32.183c2.445-8.85,4.247-16.451,6.646-23.858,6.609-20.407,2.053-16.722,22.539-16.767q117.654-.257,235.309-.05c3.578,0,7.156.279,10.734.428Z"/><path d="M331.88,290.709,321.449,315.38h607.7a64.1,64.1,0,0,0,6.919-.039c4.823-.525,7.55,1.436,9.155,6.057,3.077,8.858,6.575,17.57,10.4,27.67h-12.15q-311.928,0-623.855.009c-4.1,0-8.2.137-12.3.209l.094.108c2-5.2,4-10.394,6.466-16.783H50.557a64.388,64.388,0,0,1,2.091-7.337c3.869-8.933,8.156-17.694,11.732-26.739,2.2-5.575,5.368-7.614,11.524-7.52,24.605.375,49.218.154,73.829.154q86.136,0,172.273-.014c3.326,0,6.652-.209,9.979-.321Z"/><path d="M365.8,233.823c-4.956,7.64-9.911,15.281-15.964,24.612H361.62q270.436,0,540.874-.214c8.661-.014,13.831,2.284,17.256,10.2,3.114,7.2,7.241,13.965,11.594,22.194-4.081.291-6.74.647-9.4.647q-291.21.039-582.421,0c-2.548,0-5.1-.364-7.644-.557l.105.126,7.669-15.363H76.822c1.126-2.813,1.613-4.737,2.594-6.364,5.823-9.653,11.929-19.14,17.585-28.89,2.644-4.559,6.02-6.134,11.24-6.093,27.432.217,54.868.1,82.3.1q82.688,0,165.374-.012c3.329,0,6.657-.175,9.985-.269Z"/><path d="M410.352,176.8,391.269,199.6q.268.947.538,1.893h9.452q230.76,0,461.52-.205c8.662-.016,14.434,2.359,19.043,9.526,4.8,7.469,10.345,14.462,16.393,22.808-3.579.331-5.719.7-7.86.7q-258.836.039-517.672,0c-2.294,0-4.587-.325-6.88-.5l.1.12,9.217-15.42H112.742c2.365-3.656,3.607-6.041,5.276-8.076,7.472-9.106,15.241-17.973,22.543-27.211,3.724-4.71,8.094-6.074,13.944-6.063q122.993.234,245.986.091c3.323,0,6.646-.212,9.969-.325Z"/><path d="M410.46,176.939l13.986-15.213H164.138l-.9-1.577a55.7,55.7,0,0,1,5.2-5.859c12.053-10.347,24.1-20.708,36.423-30.726a15.4,15.4,0,0,1,8.961-3.3q126.527-.261,253.054-.123c1.2,0,2.4.236,5.247.535l-25.342,21.249.228,1.754c2.538.192,5.076.546,7.615.55q36.92.063,73.839.026,140.757,0,281.513-.159c7.293-.019,12.694,1.879,17.578,7.183,7.609,8.263,15.689,16.093,24.872,25.431-3.941.3-6.51.66-9.081.667-18.2.05-36.407.027-54.61.027q-183.445,0-366.891-.025c-3.83,0-7.66-.372-11.49-.571Z"/><path d="M568.317,63.426,526.036,85.185q.188.879.374,1.757c2.655.121,5.309.347,7.963.348,65.63.019,131.261.1,196.891-.109,7.272-.023,13.514,1.554,19.439,5.64,10.335,7.129,20.866,13.972,31.276,20.992,2.059,1.389,3.942,3.039,7.321,5.671H474.344l17.647-13.632q-.15-.654-.3-1.306H234.07q-.213-.717-.427-1.433a25.2,25.2,0,0,1,3.743-3.1c21.1-11.573,42.174-23.182,63.416-34.482a22.762,22.762,0,0,1,10.3-2.265q126.132-.183,252.267-.088C564.387,63.178,565.4,63.276,568.317,63.426Z"/><path d="M689.922,62.9H573.244l-.465-1.217,31.367-12.55q-.051-.66-.1-1.318H351.418l-.15-2.187c55.315-18.377,112.309-24.835,170.476-22.6C580.233,25.274,636.311,38.146,689.922,62.9Z"/><path d="M419.6,976.185H580.071A431.559,431.559,0,0,1,419.6,976.185Z"/></svg>