<svg xmlns="http://www.w3.org/2000/svg" viewBox="0 0 1000 1000"><path d="M331.11 650.354H500c91.998-6.866 167.518 78.266 167.518 175.755 0 42.566 8.238 90.625 0 134.564 0 19.223 8.238 34.327 35.7 34.327h83.759c30.208 0 35.7-15.104 35.7-34.327V812.379c0-76.894-28.835-140.056-78.266-203.218-12.358-13.731-19.223-20.597-26.089-27.462 26.089-48.058 61.79-83.759 75.52-134.563C885.84 237.053 732.053 5 493.135 5c-173.01 8.239-310.319 141.429-310.319 315.811-5.492 113.967-5.492 225.188-5.492 337.781 0 98.863 0 197.726 5.492 295.215 0 41.193 0 41.193 38.447 41.193h75.52c28.835 0 34.327-6.866 34.327-34.327V776.678zm0-152.414c0-71.4-5.492-134.563 0-196.352 13.731-91.997 105.728-155.16 204.59-141.429 83.76 15.104 146.922 105.729 131.818 189.487C655.16 441.643 591.998 497.94 500 497.94z"/></svg>