<svg xmlns="http://www.w3.org/2000/svg" width="1000" height="1000">
  <path d="M7.947 549.925c-6.934-56.859 0-81.821 4.16-127.586C56.485 211.546 178.523 77.027 380.995 18.781c26.35-6.934 49.925-8.32 74.887-8.32v239.915c0 19.416-5.547 29.123-24.962 24.963h-77.66c-16.642 0-24.963 9.707-24.963 24.962 2.774 131.746 2.774 267.652 0 399.398 0 13.868 8.32 23.575 24.962 23.575h72.114c24.962 0 30.51 4.16 30.51 29.123V989.54H430.92c-194.152 0-413.266-220.5-422.973-439.614zm536.69 439.614c0-77.66 4.16-158.094 4.16-237.142-4.16-24.962 5.548-33.283 24.963-38.83 102.623-29.123 166.416-113.718 166.416-216.34 0-99.85-63.793-183.058-166.416-212.18-19.415-5.548-29.123-15.255-24.962-40.218 0-79.047-4.16-156.708-4.16-234.368h13.867c9.708 0 15.255 0 26.35 2.773 195.538 36.057 353.633 183.057 398.01 379.983 18.029 83.207 12.481 113.717 5.548 167.802-24.963 205.246-184.445 374.435-385.53 418.813-19.415 5.547-44.378 9.707-58.246 9.707z" style="fill:#000;fill-opacity:1;fill-rule:nonzero;stroke:none"/>
</svg>
