<svg xmlns="http://www.w3.org/2000/svg" viewBox="0 0 1000 1000"><path d="M500.496 995.003c275.935 0 494.507-224.506 494.507-495.496C995.003 226.54 773.464 5 500.496 5 223.572 5 5 229.506 5 499.507c0 276.924 224.506 495.496 495.496 495.496zM113.792 481.705v-74.176c0-5.934 1.978-11.868 5.934-15.824l.989-.99 6.923-4.945 362.968-236.374c7.912-3.956 16.813-3.956 23.736 0l351.1 223.517c10.88 6.923 13.847 21.759 6.924 32.638-1.978 1.978-3.957 4.945-6.924 6.923L511.375 635.99c-7.912 3.956-16.813 3.956-24.725 0L143.462 419.397h-.989v62.308c0 9.89 4.945 18.791 13.846 23.736l338.243 215.605h.99l345.165-220.55c8.901-5.934 19.78-4.945 27.692 1.978 4.946 4.945 7.913 11.868 6.924 18.791v64.286c0 19.78-8.902 37.583-25.715 47.473L511.375 851.596c-3.956 1.978-7.912 2.967-12.857 2.967-3.956 0-8.901-.989-11.868-3.956L128.627 621.156v-.99l15.824-23.735h.989l353.078 227.473h.99l335.275-215.605c6.923-4.945 11.868-12.857 11.868-21.759v-53.406s0-.99-.989-.99v.99L507.42 747.75c-7.912 4.945-17.802 4.945-24.725 0l-342.2-217.583c-16.813-9.89-26.703-28.682-26.703-48.462zm51.428-84.066 333.298 210.66h.99l340.22-215.605v-.99L502.474 177.089h-.989L165.22 396.65z"/></svg>