<svg xmlns="http://www.w3.org/2000/svg" viewBox="0 0 1000 1000"><path d="M474.743,652.2c-1.309,11.577-3.164,23.142-3.573,34.755-.331,9.408.948,18.895,1.816,28.318.717,7.777-1.73,14.1-7.711,19.011-5.24,4.3-11.45,6.48-18.067,7.388-21.044,2.89-42.656-5.6-52.124-24.322-5.643-11.158-6.415-23.1-4.972-35.193a112,112,0,0,1,17.736-48.025c2.395-3.693,6.617-6.263,10.186-9.115,4.641-3.708,4.723-3.61,9.5-.345,1.043.713,2.071,1.448,3.287,2.3-16.019,27.715-18.5,56.529-9.037,86.62-2.248-28.712.436-56.367,16.908-81.4.869.427,1.687.757,2.434,1.205,10.12,6.068,20.385,11.842,31.715,15.4C474.7,649.387,474.939,650.467,474.743,652.2Zm-87.958-422c-6.5-19.02-11.123-22.614-12.81-23.275a1.928,1.928,0,0,0-1.97.247c-38.085,28.04-70.929,151.615-71.257,152.86l0,.016c-1.481,5.5-2.593,14.474-.484,17.419a1.267,1.267,0,0,0,.9.253h.063c6.926,0,25.9-17.074,36.594-28.18,1.618-6.076,3.984-20.928-2.364-25.425l-4.109-2.91,4.834-1.41c6-1.752,11.349.383,14.96,2.678-.28-8.424,1.413-23.376,15.775-29.651l4.9-2.139-1.6,5.1c-1.11,3.534-1.694,8.228,1.826,10.525,2.5,1.633,5.709,1.25,6.394.651l.2-.174.232-.127c9.4-5.16,12.747-19.709,13.9-31a137.462,137.462,0,0,0,.168-24.159C392.607,250.149,390.243,240.327,386.785,230.2Zm251.174,89.6,4.832,1.41-4.108,2.91c-6.363,4.507-3.988,19.352-2.365,25.424,10.693,11.1,29.669,28.181,36.6,28.181h.063a1.267,1.267,0,0,0,.9-.253c2.109-2.945,1-11.922-.484-17.419l0-.016c-.328-1.245-33.172-124.82-71.257-152.86a1.929,1.929,0,0,0-1.969-.247c-1.688.661-6.316,4.255-12.811,23.275-3.457,10.125-5.822,19.946-6.141,21.292-.26,2.878-3.767,45.37,14.071,55.164l.232.127.2.174c.685.6,3.893.982,6.4-.651,3.52-2.3,2.935-6.991,1.825-10.525l-1.6-5.1,4.9,2.139C621.585,299.1,623.278,314.05,623,322.474,626.609,320.179,631.953,318.045,637.959,319.8ZM995.3,500c0,273.4-221.6,495-495,495S5.3,773.4,5.3,500,226.9,5,500.3,5,995.3,226.6,995.3,500ZM482.174,683.181c36.752-15.675,59.311-43.707,70.574-81.473,1.213-4.069,2-8.264,3.172-13.151,2.2,8.855.114,16.657-1.93,25.39,5.275-6.122,8.29-12.225,9.253-19.279,1-7.367-.451-14.268-5.613-19.688-10.666-11.2-21.665-22.08-32.538-33.1-.057.215-.2.446-.15.62.193.662.43,1.313.685,1.954a90.885,90.885,0,0,0,20.536,30.6c1.4,1.4,1.935,2.549,1.071,4.49-1.736,3.9-3.034,8-4.847,11.865-9.459,20.147-23.186,36.289-43.393,46.488-9.283,4.685-18.33,5.162-28,1.1-15.238-6.4-29.132-15.043-42.63-24.417a4.268,4.268,0,0,1-1.762-2.7c-.452-5.983-.685-11.982-1-18.1,1.4-.357,2.515-.606,3.61-.926,14.207-4.157,26.555-11.077,33.9-24.526,9.917-18.154,2.9-36.069-16.618-42.485a79.826,79.826,0,0,0-39.081-2.7c-15.5,2.715-24.272,11.206-26.484,24.943-1.388,8.612,1.236,16.28,6.167,23.188a60.922,60.922,0,0,0,27.583,21.37c1.1.44,2.491,1.784,2.585,2.814.494,5.408.672,10.849.809,16.283a3.97,3.97,0,0,1-1.034,2.962c-9.762,6.8-19.549,13.565-29.526,20.038-1.4.907-4.1.828-5.757.144-10.256-4.228-17.214-11.889-21.373-22.044-4.534-11.07-7.843-22.513-8.655-34.507-.978-14.442,1.3-28.231,10.038-40.207,15.386-21.094,47.943-42.765,87.623-32.847,2.129.533,4.26,1.066,6.372,1.665,1.966.558,3.908,1.2,5.86,1.81a58.733,58.733,0,0,0-34.167-12.979c-26.442-1.2-47.648,9.928-65.585,28.474-11.977,12.384-17.88,27.37-18.609,44.4-.783,18.308,3.838,35.527,11.587,51.948,3.37,7.142,8.753,12.7,15.09,17.386a12.215,12.215,0,0,1,3.113,3.9c3.587,6.45,7.128,12.928,10.493,19.5a7.384,7.384,0,0,1,.726,4.688c-2.7,11.092-4.1,22.244-3.032,33.691,4.343,46.428,53.031,60.519,82.3,46.08,13.934-6.873,19.911-18.72,17.985-34.13-1.03-8.239-1.09-16.6-1.652-24.9C479.752,684.935,480.345,683.961,482.174,683.181ZM363.943,468.824a9.514,9.514,0,0,1-6.007,3.759c-3.839.594-6.034-2.184-7.359-5.978-5.378,8.335-3.686,16.772,3.943,21.356,10.383,6.238,26.366,1.739,31.972-9,3.828-7.335,1.531-15.338-5.715-19.376-6.131-3.416-12.528-3.409-19.376-1.04C364.737,461.532,366.244,465.129,363.943,468.824Zm33.808-217.97-.05-.306c-.025-.107-2.521-10.811-6.3-21.885-5.337-15.638-10.456-24.23-15.65-26.267a6.763,6.763,0,0,0-6.508.771l-.076.053c-16.662,12.236-34.043,42.189-51.659,89.028-12.949,34.429-21.264,65.79-21.462,66.536-.44,1.63-4.1,15.855.422,21.736l.12.144a5.948,5.948,0,0,0,4.5,1.921l.289,0c2.145,0,8.108-.606,24.775-15.232,8.374-7.348,15.535-14.819,15.606-14.893l.416-.435.165-.579c.238-.83,4.979-17.81-.532-27.355,5.9.613,10.469,5.5,10.522,5.561l5.947,6.54-1.764-8.665c-.171-.84-3.656-18.8,7.991-27.7-.331,6.057,2.707,9.138,4.873,10.552,4.1,2.673,9.5,2.364,12.021.43C402.35,299,397.95,252.82,397.751,250.854ZM523.52,455.688c-7.314-2.751-16.2-2.241-22.416,1.164-8.6,4.711-11.269,13.932-6.5,22.475,6.923,12.391,26.121,17.919,38.619,11.122,10.519-5.722,12.014-18.407,3.138-26.634-1.631,6.372-3.587,8.659-7.8,9.125-3.885.428-7.164-1.084-8.7-4.312C517.382,463.4,519.012,459.129,523.52,455.688Zm255.5,136.558a12.528,12.528,0,0,1-.68-2.088c-1.022-7.08-1.532-14.27-3.085-21.229-4.755-21.309-12.776-41.406-22.919-60.746A368.711,368.711,0,0,0,719,456.141a4.714,4.714,0,0,1-.989-3.079c.805-6.294,1.3-12.689,2.856-18.808,1.972-7.767,5.728-14.573,13.916-17.726a51.7,51.7,0,0,0,5.558-2.961c-7.528-6.077-15.208-10.654-25.531-9.836,6.254-15.839,6.859-32.159,5.594-49.46l-15.206,12c-.7-2.257-1.195-3.993-1.779-5.7-4.394-12.83-8.37-25.825-13.318-38.438-6.838-17.43-13.867-34.828-21.837-51.759-6.752-14.344-14.59-28.218-22.608-41.913-10.186-17.4-22.607-33.1-38.482-45.771-3.442-2.747-7.3-4.767-12.048-4.972-8.354-.361-14.666,3.705-20.309,8.988-10.342,9.682-17.945,21.508-24.26,34.009-8.368,16.568-15.957,33.53-23.747,50.037-6.493-1.066-13.573-2.773-20.739-3.286a88.751,88.751,0,0,0-38.5,6.03,4.441,4.441,0,0,1-2.764-.125c-2.669-.895-5.235-2.6-7.93-2.8-3.677-.275-4.677-2.63-5.764-5.242a276.685,276.685,0,0,0-24.067-45.266c-8.574-13.1-17.878-25.662-31.6-33.982-10.286-6.237-20.92-7.85-31.738-1.263-7.678,4.674-13.421,11.405-18.44,18.664-14.724,21.295-25.149,44.811-34.758,68.707-4.426,11.005-8.742,22.065-12.706,33.243-4.568,12.882-8.7,25.918-13.006,38.894-2.156,6.5-4.265,13.022-6.456,19.719l-14.968-8.166a186.941,186.941,0,0,0,5.748,51.724,27.629,27.629,0,0,0-18.87,5.418c-1.985,1.434-1.441,2.1-.415,3.75,3.043,4.885,6.622,9.674,8.437,15.027,2.631,7.763,3.851,16,5.77,24.01,1.438,6.007,1.942,11.774-2.9,16.675a12.647,12.647,0,0,0-2.033,2.722c-6.7,12.08-14.048,23.865-19.833,36.372-4.953,10.708-8.552,22.118-11.9,33.468-2.227,7.556-3.113,15.529-4.3,23.361-.911,5.991-1.359,12.052-2.095,18.841l9.054-7.516c-3.685,13.519-4.939,26.877-5.461,40.261a106.924,106.924,0,0,0,1.373,20.876,260.15,260.15,0,0,0,6.273,30.185c4.493,15.8,12.184,30.1,21.683,43.583,7.476,10.609,16.423,20.071,22.961,31.442,7.362,12.8,16.227,24.773,19.4,40.13,3.5-1.8,7.01-3.048,9.813-5.213,2.739-2.116,4.754-5.169,7.057-7.777,5.435,7.7,16.068,17.383,28.859,25.661a152.994,152.994,0,0,0,34.89,16.569c13.292,4.435,34.581,7.7,37.911,5.526C370.418,807.94,330.143,789.012,305.4,747c-.53,9.161,2.854,18.3-3.441,26.6-7.394-16.969-17.271-31.931-28.028-46.354-10.185-13.656-20.762-27.029-27.714-42.806-7.6-17.262-12.23-35.238-12.627-54.085a272.545,272.545,0,0,1,1.353-29.989,114.193,114.193,0,0,1,7.159-30.951c2.012-5.219,3.944-10.469,5.913-15.706l-.486-.292-16.252,13.848c.827-4.052,1.51-7.268,2.138-10.5,5.772-29.678,18.534-56.275,35.59-81,2.485-3.6,5.768-6.811,4.775-12.006-1.095-5.728-1.4-11.606-2.47-17.341-1.93-10.353-5.035-20.339-10.808-29.431,5.522-1.975,10.007-1.195,14.127,2.844,3.655,3.584,7.775,6.695,11.69,10.015-8.486-18.776-13.759-38.187-13.985-59.376l11.462,6.089c.275-1.2.394-2,.64-2.753,7.2-22.074,14.079-44.262,21.71-66.188,9.873-28.371,21.038-56.242,35.654-82.579,5.737-10.337,11.919-20.423,20.6-28.65,4.687-4.444,10.09-7.9,16.825-7.22,7.8.787,14.136,4.932,19.8,10.162,14.922,13.78,25.091,30.915,34.317,48.7,3.454,6.657,6.673,13.436,10.116,20.4-14.765,1.1-27.14,6.076-37.139,16.6.35.191.48.317.549.29.735-.284,1.473-.567,2.187-.9,8.983-4.155,18.325-7.161,28.22-7.925,9.486-.732,18.308,1.992,26.844,5.91a5.546,5.546,0,0,0,3.768.216c13.632-4.75,27.474-7.362,42.061-6.4a118.484,118.484,0,0,1,29.454,5.991q7.152,2.356,14.311,4.7.329-.609.656-1.218l-18.418-12.229a7.248,7.248,0,0,1,.316-1.4c7.1-17.6,14.557-35.053,24.079-51.516,6.266-10.832,12.834-21.485,22.652-29.619,5.763-4.776,12.416-7.02,17.97-2.144,2.412,2.117,5.061,3.97,7.41,6.15,18.007,16.709,31.018,37.125,42.065,58.727,8.882,17.369,17.077,35.151,24.467,53.2,7.031,17.177,12.691,34.918,18.817,52.459,2.5,7.166,4.649,14.458,7.027,21.911l11.507-9.2c-.64,22.161-10.066,40.812-19.264,59.57,5.781-5.085,11.355-10.223,16.76-15.533a11.612,11.612,0,0,1,12.752-2.873c-2.706,4.258-5.9,8.227-7.945,12.719-4.45,9.781-5.425,20.29-4.939,30.935a5.716,5.716,0,0,0,1.242,3,325.411,325.411,0,0,1,30.693,46.706c13.861,26.046,25.117,52.954,27.808,82.81a126.673,126.673,0,0,1-1.873,37.066l-17.653-31.415a38.023,38.023,0,0,0,.1,9.844,78.241,78.241,0,0,1-1.2,32.392c-5.609,23.767-17.437,44.32-34.167,61.722C703.2,710.8,690.144,721,678.117,732.224c-9.342,8.718-18.653,17.534-27.253,26.966a116.939,116.939,0,0,0-20.6,30.763c-1.006-2.053-1.841-3.52-2.466-5.071-2.842-7.058-1.613-14.051.333-21.064,1.181-4.259,2.111-8.588,3.154-12.886-5.506,5.856-10.1,12.192-15.45,17.807-9.569,10.045-21.138,17.518-33.3,24.062-25.415,13.678-53.122,20.346-81.023,26.4q-4.753,1.032-9.5,2.074.149.505.3,1.011c46.248.467,88.551-11.015,124.944-41.4,2.281,10.6,7.862,19.137,18,24.938,1.474-10.836,6.4-19.723,12.346-28.024a150.026,150.026,0,0,1,13.305-16.227c7.868-8.252,15.974-16.308,24.38-24.01,8.033-7.361,16.827-13.892,24.839-21.275a175.074,175.074,0,0,0,32.257-39.729,132.072,132.072,0,0,0,16.9-46.376l10.285,17.882,1.013.19c2.356-9.341,4.782-18.665,7.027-28.033.723-3.019.968-6.152,1.432-9.232ZM632.332,324.093c-5.512,9.545-.771,26.525-.533,27.355l.165.579.416.435c.071.074,7.232,7.545,15.606,14.893,16.668,14.627,22.631,15.232,24.775,15.232l.289,0a5.948,5.948,0,0,0,4.5-1.921l.12-.144c4.522-5.879.865-20.094.422-21.733-.181-.688-8.5-32.076-21.462-66.539-17.616-46.839-35-76.792-51.659-89.028l-.075-.053a6.766,6.766,0,0,0-6.508-.771c-5.2,2.037-10.314,10.629-15.651,26.267-3.779,11.074-6.275,21.778-6.3,21.885l-.051.306c-.2,1.966-4.6,48.148,16.36,59.957,2.518,1.934,7.926,2.242,12.021-.431,2.166-1.413,5.2-4.5,4.873-10.551,11.647,8.9,8.162,26.86,7.992,27.7l-1.774,8.611,5.952-6.478C621.86,329.6,626.43,324.705,632.332,324.093Z"/></svg>