<svg xmlns="http://www.w3.org/2000/svg" width="1000" height="1000">
  <path d="M375.76 5h248.48c0 1.315 0 1.315 1.315 1.315 28.924 76.253 53.903 153.821 81.512 228.76 47.33 134.1 94.66 268.2 143.304 402.301 39.441 113.065 78.882 224.816 119.638 339.196 0 2.63 1.315 6.573 2.63 10.518H764.914c-2.63 0-2.63-1.315-3.944-3.945-46.015-132.785-93.344-262.942-140.674-397.042-38.127-107.807-74.938-216.928-114.38-324.734-1.315-3.944-2.63-7.889-3.944-13.147h-1.315C413.887 495.387 325.801 741.239 239.03 987.09H27.36v-1.315c1.315-1.315 1.315-1.315 1.315-2.63 9.203-24.98 17.091-47.33 24.98-73.623 38.126-102.548 74.938-203.78 110.435-307.643 40.756-117.01 82.827-235.333 126.212-353.657 24.98-70.995 49.96-143.304 74.939-214.298 2.63-10.518 6.574-17.092 10.518-28.924zm11.832 879.542c0-65.736 52.589-115.695 117.01-114.38 59.161 1.315 110.435 51.274 109.12 115.695-1.314 60.477-51.273 110.436-115.694 109.12-60.477 0-110.436-51.273-110.436-110.435z" style="fill:#000;fill-opacity:1;fill-rule:nonzero;stroke:none;"/>
</svg>
