<svg width="1000" height="1000" viewBox="0 0 1000 1000" fill="none" xmlns="http://www.w3.org/2000/svg">
<path fill-rule="evenodd" clip-rule="evenodd" d="M500 995C773.381 995 995 773.381 995 500C995 226.619 773.381 5 500 5C226.619 5 5 226.619 5 500C5 773.381 226.619 995 500 995ZM201 285.731L346.731 140H415.99C397.232 150.822 335.188 228.016 319.317 285.731H201ZM486.691 140V285.731H346.731C356.591 255.671 391.75 184.441 453.505 140H486.691ZM514.828 285.731H656.23C623.333 207.238 569.898 155.872 547.293 140H514.828V285.731ZM798.355 285.731H683.645C665.609 242.445 633 182.709 586.251 140H651.18L798.355 285.731ZM315.709 714.268H201L348.174 860H413.104C366.355 817.291 333.745 757.555 315.709 714.268ZM343.124 714.268H484.527V860H452.062C429.457 844.128 376.022 792.761 343.124 714.268ZM512.663 714.268L512.663 860H545.85C607.605 815.559 642.764 744.329 652.623 714.269L512.663 714.268ZM652.623 860L798.355 714.269H680.038C664.166 771.984 602.122 849.178 583.365 860H652.623ZM453.141 608.542C458.143 594.161 460.644 578.061 460.644 560.241C460.644 541.796 458.299 525.852 453.61 512.409C449.233 498.966 443.137 488.025 435.321 479.584C427.818 470.83 418.908 464.421 408.592 460.357C398.588 455.981 388.115 453.792 377.173 453.792C372.171 453.792 366.856 454.574 361.229 456.137C355.914 457.7 351.537 460.045 348.099 463.171L347.63 462.702L415.157 336.089H353.726L288.074 464.578C280.259 479.584 273.85 495.059 268.848 511.003C264.159 526.634 261.814 543.516 261.814 561.648C261.814 579.155 264.159 594.942 268.848 609.011C273.85 623.079 280.728 634.958 289.481 644.65C298.235 654.341 308.708 661.844 320.9 667.159C333.093 672.161 346.535 674.662 361.229 674.662C375.61 674.662 388.896 672.161 401.089 667.159C413.281 661.844 423.754 654.341 432.507 644.65C441.261 634.646 448.139 622.61 453.141 608.542ZM395.93 511.94C403.433 524.445 407.185 540.389 407.185 559.772C407.185 580.093 403.121 596.662 394.992 609.48C387.177 621.985 376.079 628.237 361.698 628.237C347.317 628.237 336.062 622.141 327.934 609.948C319.806 597.443 315.742 581.031 315.742 560.71C315.742 551.019 316.836 542.109 319.024 533.981C321.213 525.852 324.339 518.818 328.403 512.878C332.467 506.626 337.313 501.78 342.94 498.341C348.567 494.902 354.976 493.183 362.167 493.183C377.173 493.183 388.427 499.435 395.93 511.94ZM677.293 597.756L693.706 668.097H752.323L671.197 336.089H599.449L516.916 668.097H573.189L590.07 597.756H677.293ZM633.213 389.079H635.089L670.259 553.676H597.105L633.213 389.079Z" fill="black"/>
</svg>
