<svg xmlns="http://www.w3.org/2000/svg" width="1000" height="1000">
  <path d="M5 500.496c0 271.98 220.55 494.507 495.496 494.507 271.98 0 494.507-220.55 494.507-495.496C995.003 227.528 773.464 5 500.496 5 226.54 5 5 225.55 5 500.496zm111.759 131.539c-3.956-85.055-3.956-174.066 0-262.089 0-4.945 3.956-18.791 8.9-18.791 76.155-49.45 157.254-93.956 233.408-138.462 7.912 0 12.857-3.956 16.813 0 31.649 14.835 62.308 31.648 93.957 52.418-13.846 4.945-21.759 14.835-31.649 18.791-71.209 40.55-138.462 81.1-209.67 121.649-7.913 3.956-12.858 11.868-12.858 25.714v148.352c0 7.912 8.901 16.814 12.857 20.77 44.506 28.681 84.066 50.44 130.55 76.154 7.912 9.89 16.813 5.934 25.714 0 45.495-25.715 85.056-47.473 125.605-71.21 12.857-8.9 16.814-17.802 16.814-30.659V427.31c0-4.945 4.945-13.846 9.89-17.802 25.714-18.791 57.363-35.605 89.011-54.396v280.88c0 4.945-3.956 18.791-13.846 18.791-75.165 45.495-151.32 88.023-227.474 133.517-8.9 5.934-21.758 5.934-30.659 0-76.154-45.494-147.363-84.066-223.517-129.56-9.89-3.957-13.846-17.803-13.846-26.704zm259.121 18.791v-280.88c0-4.945 8.901-18.791 13.847-23.736 76.154-44.506 151.319-83.077 222.528-129.561 13.846-3.956 22.747-3.956 36.593 0 71.21 46.484 147.363 85.055 223.518 129.56 3.956 4.946 12.857 18.792 12.857 27.693v258.133c0 8.901-4.945 22.747-12.857 26.703C796.21 704.233 720.057 747.75 643.903 788.3c-4.945 5.934-13.846 8.901-17.802 5.934-31.648-14.835-63.297-32.637-93.956-51.428 4.945-2.967 8.9-6.923 13.846-6.923 76.154-45.495 152.308-90 227.473-135.495 8.901-3.956 13.846-12.858 13.846-20.77V427.31c0-9.89-4.945-17.802-13.846-21.758-39.56-27.693-85.055-50.44-129.56-76.154-8.902-9.89-17.803-4.945-31.65 0-39.56 25.714-80.11 48.461-125.604 71.209-7.912 8.9-12.857 12.857-12.857 26.703v147.363c0 7.912-3.956 18.791-7.912 21.759-27.693 18.79-58.352 35.604-90 54.395z" style="fill:#000;fill-opacity:1;fill-rule:nonzero;stroke:none;"/>
</svg>
