<svg xmlns="http://www.w3.org/2000/svg" width="1000" height="1000">
  <path d="M605.614 7.794c7.544-6.287 17.602 2.515 31.433 10.059 74.182 40.234 147.106 79.21 215.001 121.96 13.83 7.544 21.375 15.087 21.375 32.69-7.544 32.69-7.544 65.38 0 98.07 0 8.802 0 15.089 10.058 23.89 32.69 16.345 72.925 41.491 106.873 56.58V647.77c-33.948 18.86-66.638 38.977-106.873 57.836-10.058 6.287-17.602 13.83-17.602 21.375 3.772 36.462 3.772 62.866 7.544 100.585 0 8.802-3.772 15.088-15.088 21.375-50.293 25.146-96.814 57.837-139.562 82.983-32.69 16.345-65.381 41.491-96.814 59.094-8.801 7.544-8.801 2.515-16.345 0-17.603-10.059-32.69-18.86-57.837-33.948-7.544-8.8-17.602-16.345-17.602-32.69V563.53c0-15.089 0-15.089-7.544-25.147-121.96-71.667-245.178-137.048-368.395-202.429-5.03-3.771-15.088-7.543-22.632 0-17.602 7.544-42.749 25.147-67.895 40.235-7.544 5.029-15.088 7.544-15.088 17.602v211.23c0 8.801 7.544 12.573 15.088 17.602 25.146 16.345 47.778 22.632 67.895 40.235 11.316 10.058 15.088 5.029 22.632 0 25.147-11.316 50.293-23.89 64.123-32.69 17.603-7.545 25.147-16.346 33.948-32.691 8.801-25.146 33.948-33.948 50.293-25.146 51.55 17.602 40.234 90.527-8.801 90.527-25.147-7.544-41.492 0-57.837 10.058-17.603 7.544-31.433 21.375-56.58 32.69-7.543 2.515-7.543 13.83-7.543 21.375v75.439c0 7.544 0 15.088 15.087 25.146 56.58 32.69 115.674 64.124 181.054 104.358 7.544 0 38.977-7.544 50.293-16.345 7.544-16.345 0-41.492-17.602-47.778-57.837-32.69-114.416-65.381-170.996-98.071-18.86-10.059-25.146-17.603-18.86-32.69 7.544-17.603 25.147-17.603 41.492-10.06 33.948 25.147 66.638 42.75 100.586 65.381 22.631 10.059 40.234 17.603 65.38 35.205V530.84c7.544 0 13.83 7.544 31.433 17.602 7.544 7.544 7.544 7.544 7.544 23.89v359.593c0 8.801 0 16.345-7.544 16.345-23.889 17.603-40.234 28.918-67.895 45.264l-21.374-12.574c-74.182-49.035-149.622-89.27-221.289-132.018-12.573-6.287-17.602-6.287-17.602-21.375V726.981c0-7.544-7.544-15.088-15.088-21.375-32.69-18.86-64.123-42.748-96.814-57.836V351.042c32.69-15.088 64.124-40.234 96.814-56.58 15.088-8.8 15.088-15.087 15.088-23.888v-98.071c0-17.603 10.058-20.117 17.602-25.146 47.778-32.69 90.527-57.837 138.305-81.726 32.69-18.86 65.381-40.234 98.071-57.837 0 0 5.03-6.287 10.059 0 21.374 10.059 40.234 25.146 54.065 32.69C457.25 50.543 457.25 58.087 457.25 75.69v358.336c0 7.544 7.544 17.603 17.603 25.147 121.96 64.123 236.376 138.305 358.336 203.686 7.544 10.058 13.83 5.029 25.146 0 25.146-11.316 47.778-23.89 72.925-40.235 0 0 8.8-5.029 8.8-17.602V393.79c0-10.058-8.8-17.602-8.8-17.602-25.147-15.088-50.293-28.919-72.925-40.235-8.801-7.543-17.602-7.543-25.146 0-21.375 11.316-38.977 21.375-64.124 32.69-17.602 7.545-25.146 10.06-25.146 27.662 0 18.86-32.69 37.72-57.837 30.175-18.86-6.286-38.977-25.146-32.69-50.292 8.801-25.147 25.146-40.235 50.293-40.235 25.146 7.544 32.69 0 47.778-7.543 25.146-10.059 42.749-23.89 56.58-33.948 7.543-8.801 18.859-15.088 18.859-23.89v-75.438c0-15.088-11.316-15.088-18.86-22.632-56.58-32.69-121.96-64.123-179.796-106.872-15.088-7.544-40.235 0-47.779 17.602-7.543 13.83 0 38.977 16.346 46.521 56.579 32.69 114.416 65.38 172.252 99.328 15.088 8.802 15.088 16.345 15.088 33.948-7.544 7.544-22.632 7.544-40.234 7.544-47.778-32.69-98.071-57.837-138.305-82.983-8.801-7.544-17.603-7.544-25.147-15.088v294.213c-17.602-7.544-21.374-7.544-32.69-15.088-12.573-10.059-17.602-17.603-17.602-25.147V65.631c0-6.287 45.263-40.234 75.439-57.837zM171.839 254.23c7.543 0 15.087 0 25.146-8.802 64.123-40.234 130.761-72.924 196.142-115.673 13.83-7.544 25.146-15.088 25.146-40.234 0-13.83-32.69-31.433-50.293-23.89-65.38 31.434-124.474 74.183-188.598 106.873 0 0-7.543 7.544-7.543 15.088zm25.146 50.292c71.667 38.977 145.849 79.212 221.288 121.96V172.503c-82.983 40.234-149.62 81.726-221.288 132.018zm383.482 602.257c0 17.602 25.147 33.947 41.492 25.146 64.123-32.69 129.504-71.667 186.083-104.358 27.661-17.602 30.176-33.947 18.86-90.527-11.316 7.544-11.316 7.544-25.146 15.088-65.381 32.69-130.762 75.44-204.943 115.674-16.346 6.286-16.346 13.83-16.346 38.977zm0-79.212c72.925-50.292 148.364-90.527 221.289-133.275-72.925-38.977-148.364-80.469-221.289-121.96z" style="fill:#000;fill-opacity:1;fill-rule:nonzero;stroke:none;"/>
</svg>
