<svg xmlns="http://www.w3.org/2000/svg" width="1000" height="1000">
  <path d="M5 500.496C5 225.55 226.54 5 500.496 5c272.968 0 494.507 222.528 494.507 494.507 0 274.946-222.528 495.496-494.507 495.496C225.55 995.003 5 772.475 5 500.496zM262.144 275.99c-130.55 138.462-116.704 358.023 31.648 478.683 61.32-55.385 135.495-79.121 218.572-79.121 82.089 0 156.265 23.736 219.562 79.12 148.352-124.615 161.209-340.22 29.67-478.682-134.506-142.418-366.924-142.418-499.452 0zm127.583 222.528c.989-64.286 54.395-115.715 122.637-115.715 67.253 0 122.638 53.407 122.638 117.693 1.978 66.264-55.385 123.627-122.638 121.649-68.242 0-124.615-55.385-122.637-123.627z" style="fill:#000;fill-opacity:1;fill-rule:nonzero;stroke:none;"/>
</svg>
