<svg xmlns="http://www.w3.org/2000/svg" viewBox="0 0 1000 1000"><path d="M5 541.81h140.092c24.978 0 24.978 0 24.978-61.9H5v-61.902h100.997c56.471 0 56.471 0 56.471-61.901V167.145h155.296c20.634 0 22.806 15.204 30.408 23.891C452.427 351.764 506.726 445.158 505.64 441.9c60.815-106.427 82.535-153.125 158.554-250.863 9.774-15.204 22.806-23.892 31.494-23.892h139.006v157.468c0 82.535-3.258 93.395 16.29 93.395h141.178c3.258 58.643 7.602 61.901-11.946 61.901h-137.92c0 61.901-7.602 61.901 41.268 61.901h96.652c15.204 0 11.946 16.29 11.946 71.676H834.694v219.369H695.688V418.008H687c-61.901 84.707-127.06 180.274-187.876 272.583-62.987-92.31-117.286-178.102-181.36-272.583h-7.602v414.847H170.07v-219.37H5z"/></svg>