<svg xmlns="http://www.w3.org/2000/svg" viewBox="0 0 1000 1000"><path d="M5 375.223v-17.33c8.665-19.497 16.247-34.662 40.077-42.244 28.162-5.415 57.407 7.582 66.072 34.661 8.665 28.162-4.332 57.408-29.245 70.405-29.245 7.583-56.324 0-68.239-29.245-3.25-4.332-3.25-8.665-8.665-16.247zm12.998-12.998c14.08-11.915 27.079-23.83 43.326-36.827-29.245-2.167-47.659 12.998-43.326 36.827zm184.136 0C307.2 231.163 504.334 178.09 654.893 248.494c138.644 61.74 184.136 201.467 106.15 331.445-40.078 74.738-106.15 118.064-188.47 142.977-18.413 7.582-40.077 16.247-60.656 19.496 101.816-7.582 189.552-59.573 252.375-137.56-12.998 36.827-37.91 66.072-72.572 87.735-110.482 84.486-232.878 112.648-367.19 71.489C168.557 717.5 77.572 512.784 202.135 362.226zm15.164 79.07c-11.914 61.74-4.332 116.981 44.41 163.557 54.157 53.074 120.23 66.072 188.469 61.74 0-4.333 0-4.333-3.25-4.333-9.748-4.333-17.33-7.582-24.912-11.915-64.99-20.58-110.482-58.49-139.727-120.23-29.246-56.324-16.248-122.396 29.245-163.556 45.492-41.16 100.733-50.909 160.307-41.16 24.912 3.25 44.41 7.582 69.322 16.247-54.158-25.996-111.565-31.411-166.806-22.746 68.239-24.913 134.311-16.247 193.885 19.497 54.157 28.162 95.317 73.654 98.567 139.727 5.415 27.079 0 51.991-3.25 80.153 74.738-59.573 70.405-175.471-4.332-235.045-126.73-103.982-318.448-54.157-397.518 55.241-16.248 21.663-36.828 33.578-44.41 62.823zm132.145 71.489c20.58 62.823 105.066 108.315 166.806 95.317 33.578-7.582 56.324-28.162 64.99-60.656 7.581-34.661 0-61.74-19.497-86.653-4.333 48.742-11.915 94.235-64.99 107.233-37.91 11.914-79.07-5.416-96.4-33.578-30.329-48.742-18.414-93.152 24.912-131.062-7.582 0-16.247 0-24.912 4.333-47.66 12.997-72.572 58.49-50.909 105.066zm59.574-62.823c-16.248 20.58-11.915 45.492 3.25 68.238-7.583-44.409 9.748-76.904 49.824-97.484-28.162-4.332-40.076 4.333-53.074 29.246zm413.765 100.733c0-45.492 37.91-80.153 87.736-80.153 43.326 0 84.486 34.66 84.486 84.486 0 45.492-36.828 86.652-81.237 86.652-53.075 0-90.985-41.16-90.985-90.985zm24.913 29.245c4.332-57.407 29.245-89.902 85.569-84.486-22.746-17.33-51.992-9.748-72.572 7.582-21.663 19.497-24.912 47.659-12.997 76.904z"/></svg>