<svg xmlns="http://www.w3.org/2000/svg" width="1000" height="1000">
  <path d="M708.85 509.177c-24.624 41.04-46.17 82.082-66.69 115.94-10.26 18.469-21.547 33.859-46.172 33.859-21.546 0-32.832-15.39-46.17-33.859-16.417-33.858-42.068-74.9-63.614-115.94-7.182 11.286-72.848 124.149-76.952 129.279-21.546 26.676-52.327 26.676-67.717 0-19.494-30.781-36.937-65.666-55.405-93.368-11.286-25.65-6.156-41.041 13.338-55.405 22.573-10.26 42.067-4.105 51.301 14.364 6.156 10.26 17.443 21.546 22.573 31.806 30.78-47.197 33.858-51.3 70.795-119.018 18.469-31.807 58.483-31.807 77.978 0 5.13 7.182 61.561 98.498 73.873 119.018 0 0 70.796-112.862 71.822-113.888 23.598-36.937 53.353-36.937 76.951 0 21.547 40.015 47.197 76.952 67.718 123.123 35.91-55.405 66.691-107.733 93.368-160.06 6.156-11.286 14.364-23.598 20.52-29.754 11.286-16.417 34.885-22.573 52.327-12.313 16.417 12.313 21.547 30.781 10.26 48.223-16.416 34.885-34.884 70.796-51.3 98.499-31.807 46.17-52.328 89.263-83.108 135.434-31.807 49.25-57.457 49.25-83.108 0-16.416-33.858-41.04-68.743-62.587-115.94zM5 525.593c0-69.77 66.691-134.409 135.435-134.409 70.795 0 134.409 64.64 134.409 134.41 0 70.795-57.458 133.382-134.41 133.382C71.692 658.976 5 601.519 5 525.593zm83.108 0c0 30.78 23.598 51.301 52.327 51.301 29.754 0 52.327-20.52 52.327-51.3 0-26.677-22.573-52.328-52.327-52.328-28.729 0-52.327 30.78-52.327 52.327z" style="fill:#000;fill-opacity:1;fill-rule:nonzero;stroke:none;"/>
</svg>
