<svg xmlns="http://www.w3.org/2000/svg" width="1000" height="1000">
  <path d="M500.268 534.533h-1.14c-10.258 33.053-20.516 66.107-31.914 95.74-12.537 37.614-23.935 69.527-34.193 101.441-9.118 34.193-35.333 49.01-67.247 49.01-27.354 0-52.43-18.236-58.128-49.01-39.892-124.236-74.086-251.89-113.978-376.126-6.839-37.613 3.42-69.526 35.333-83.204 21.656-11.397 66.107-12.537 78.645 17.097 7.978 22.795 55.849 155.01 68.386 192.622 10.258-25.075 17.097-53.57 25.075-79.784 6.839-30.774 20.516-60.408 27.355-91.182 11.398-29.634 35.333-44.452 70.666-44.452 28.494 0 54.71 14.818 63.827 44.452 29.635 76.365 45.591 128.794 62.688 162.988 5.699-29.635 13.677-59.269 20.516-90.043 4.56-21.655 7.979-43.311 13.677-66.107 11.398-36.472 35.333-58.128 80.924-51.29 35.334 7.979 56.99 45.591 52.43 78.645-27.354 99.16-52.43 197.181-71.806 297.481-13.677 75.226-35.333 137.913-85.483 137.913-31.914 2.28-55.849-14.817-67.247-51.29-20.516-56.988-42.171-117.397-64.967-176.665 0-4.559-3.42-10.258-3.42-18.236zM151.496 843.412c11.398-14.817 28.495-18.236 45.591-6.839 33.054 28.495 76.365 49.01 119.677 66.107 95.741 31.914 194.902 31.914 291.782 10.258 68.387-12.537 132.214-42.171 196.042-76.365 17.097-11.397 34.193-7.978 44.451 6.839 11.398 17.097 9.118 38.752-10.258 47.87-37.612 19.377-74.085 39.893-110.558 53.57-80.924 34.193-159.569 50.15-253.03 50.15-109.419-1.14-214.278-29.634-308.88-99.16-3.419-3.42-10.257-4.56-12.537-7.979-12.538-11.398-12.538-30.774-2.28-44.451zM173.152 92.3c0-37.613 35.333-75.225 77.505-75.225 38.752 0 72.946 33.053 72.946 75.225 0 42.171-30.774 77.505-72.946 77.505-42.172-2.28-77.505-35.334-77.505-77.505zm492.383 26.215c-26.215-14.817-26.215-46.731 0-59.269 30.774-15.957 58.129-34.193 90.043-51.29 14.817-5.699 23.935-3.419 30.774 9.119 10.258 10.258 4.559 22.795-10.258 30.773L702.008 90.02c21.656 12.538 59.268 34.193 82.064 44.451 12.538 10.258 9.118 20.516 2.28 28.495-6.84 10.258-21.656 10.258-33.054 4.559l-34.193-18.236c-20.516-10.258-37.613-18.237-53.57-30.774z" style="fill:#000;fill-opacity:1;fill-rule:nonzero;stroke:none;"/>
</svg>
