<svg xmlns="http://www.w3.org/2000/svg" viewBox="0 0 1000 1000"><path d="M646.574 186.284c-12.857-12.857-29.572-19.286-47.572-19.286-18 0-36 6.429-47.571 19.286L24.286 716C12.714 728.858 5 746.858 5 764.858c0 16.714 7.714 33.428 19.286 46.286C37.143 824 55.143 831.715 73.143 831.715c16.714 0 33.429-7.714 46.286-20.571l527.145-528.431c27-27 27-69.429 0-96.43zm-294.43 532.288C326.43 743 326.43 786.715 353.43 812.429c24.429 27 69.429 27 93.858 0l411.43-412.716v365.145c0 38.571 32.143 68.143 68.143 68.143 37.286 0 68.143-29.572 68.143-68.143V235.14c0-25.714-16.714-51.429-42.429-61.714-25.714-11.572-54-5.143-73.286 14.143z"/></svg>