<svg xmlns="http://www.w3.org/2000/svg" width="1000" height="1000">
  <path d="M995 164.274v805.742c0 21.861 0 24.984-26.545 24.984H33.108C8.123 995 5 991.877 5 970.016V19.053C5 11.246 9.685 5 20.616 5H974.7c17.178 0 20.3 6.246 20.3 21.86zM223.613 678.013h304.496v-59.338H317.303v-9.37c4.685-3.122 7.808-7.807 10.93-15.614 59.338-81.199 115.553-162.398 181.137-243.597 18.738-28.107 15.615-51.53 15.615-81.198H223.612v64.022h204.559c-3.123 6.246-6.246 9.369-7.808 10.93-60.899 85.884-121.798 171.767-182.697 249.843-21.861 29.669-14.054 54.653-14.054 84.322zm382.571 0h59.338V656.15c0-53.091 3.123-103.06 0-157.713 0-24.984 9.37-42.16 31.23-49.968 15.615-10.93 35.915-14.054 51.53-14.054h17.177V375.08c-42.161 0-71.83 18.738-96.814 46.845-3.123-18.738-3.123-28.107-3.123-40.6h-59.338z" style="fill:#000;fill-opacity:1;fill-rule:nonzero;stroke:none;"/>
</svg>
