<svg xmlns="http://www.w3.org/2000/svg" viewBox="0 0 1000 1000"><path d="M500,995c273.38,0,495-221.62,495-495S773.38,5,500,5,5,226.62,5,500,226.62,995,500,995ZM201,285.73,346.73,140H416c-18.76,10.82-80.8,88-96.67,145.73ZM486.69,140V285.73h-140c9.86-30.06,45-101.29,106.78-145.73Zm28.14,145.73h141.4C623.33,207.24,569.9,155.87,547.29,140H514.83Zm283.52,0H683.65c-18-43.28-50.65-103-97.4-145.73h64.93ZM315.71,714.27H201L348.17,860H413.1C366.36,817.29,333.74,757.55,315.71,714.27Zm27.41,0H484.53V860H452.06C429.46,844.13,376,792.76,343.12,714.27Zm169.54,0V860h33.19c61.75-44.44,96.91-115.67,106.77-145.73ZM652.62,860,798.35,714.27H680C664.17,772,602.12,849.18,583.36,860ZM711,664.34a102.93,102.93,0,0,0,33.77-31.88l-32.36-38a74.59,74.59,0,0,1-20.17,20.64q-11.72,8.43-28.13,8.44-17.36,0-30.48-9.38-12.66-9.85-21.1-26.26t-12.67-38.45a257.11,257.11,0,0,1-4.22-47.37,252.09,252.09,0,0,1,4.22-47.36q4.23-22.51,12.67-38.92T633.63,390a46.69,46.69,0,0,1,29.54-9.85q30.48,0,49.71,27.66l32.35-39.38a88.3,88.3,0,0,0-35.17-30q-21.57-10.79-50.17-10.78a100.22,100.22,0,0,0-50.65,13.13q-22.5,12.66-38.45,36.11-15.94,23-24.86,55.33-8.43,31.89-8.44,69.87T545.93,572q8.93,31.89,24.39,55.34a120.73,120.73,0,0,0,38.45,36.11q23,13.13,51.12,13.13Q690.84,676.54,711,664.34Zm-255.57-55.8q7.5-21.57,7.5-48.3,0-27.68-7-47.83-6.57-20.16-18.29-32.83a67.26,67.26,0,0,0-26.73-19.22,77.51,77.51,0,0,0-31.42-6.57,59.4,59.4,0,0,0-15.94,2.35,32.91,32.91,0,0,0-13.13,7l-.47-.47,67.53-126.61H356L290.36,464.58A285.21,285.21,0,0,0,271.14,511a175.51,175.51,0,0,0-7,50.65q0,26.25,7,47.36,7.5,21.11,20.63,35.64a90.67,90.67,0,0,0,31.42,22.51,105.33,105.33,0,0,0,40.33,7.5,104,104,0,0,0,39.86-7.5,90.76,90.76,0,0,0,31.42-22.51A110.18,110.18,0,0,0,455.43,608.54Zm-57.21-96.6q11.25,18.77,11.25,47.83,0,30.48-12.19,49.71Q385.57,628.23,364,628.24T330.22,610Q318,591.19,318,560.71A103,103,0,0,1,321.31,534a68.78,68.78,0,0,1,9.38-21.1,46,46,0,0,1,14.54-14.54,36.14,36.14,0,0,1,19.23-5.16Q387,493.18,398.22,511.94Z" fill-rule="evenodd"/></svg>