<svg xmlns="http://www.w3.org/2000/svg" viewBox="0 0 1000 1000"><path d="M500.496 995.003c275.935 0 494.507-224.506 494.507-495.496C995.003 226.54 773.464 5 500.496 5 223.572 5 5 229.506 5 499.507c0 276.924 224.506 495.496 495.496 495.496zM272.034 758.63V249.287c0-27.693 17.802-45.495 43.516-45.495 25.715 0 41.54 17.802 41.54 45.495v441.1c32.637-17.802 58.35-33.627 85.054-49.45 3.956-1.979 5.934-11.869 5.934-17.803v-270.99c0-24.725 8.902-40.55 27.693-45.495 11.868-1.978 27.692-1.978 37.582 4.945 90 51.43 180.001 102.858 269.012 155.276 33.627 18.79 33.627 57.362 0 76.154-147.363 86.044-294.726 171.1-441.1 255.165-36.594 20.77-69.231.99-69.231-39.56zm262.089-170.11c48.461-28.682 95.934-55.385 146.374-85.056-51.429-28.681-97.913-54.396-146.374-83.077z"/></svg>