<svg xmlns="http://www.w3.org/2000/svg" viewBox="0 0 1000 1000"><path d="M581.993 16.38v78.516c71.69 13.655 174.103 83.069 174.103 186.62 0 6.828-1.138 19.345-7.966 19.345H638.89c-5.69 0-13.656 3.414-15.932-5.69-15.93-51.206-61.448-73.965-101.275-73.965-51.207 0-87.62 35.276-87.62 79.655 0 46.655 33 63.724 103.55 97.862C677.58 465.86 760.648 522.757 760.648 655.895c0 112.654-75.103 216.206-178.654 242.378v86.483c0 5.69-4.552 10.241-12.517 10.241h-94.448c-6.828 0-12.518-4.552-12.518-10.241v-80.793c-129.723-28.448-196.861-92.172-223.033-258.31-1.138-7.965 5.69-13.655 12.517-13.655H357.82c7.966 0 13.655 1.138 15.931 9.104 33 97.861 72.827 130.861 135.413 130.861 62.586 0 112.655-50.069 112.655-116.068 0-72.828-64.862-104.69-142.24-141.103-87.621-40.966-187.759-87.62-187.759-213.93 0-95.587 63.724-171.828 170.69-203.69V16.38c0-5.69 5.69-11.38 12.517-11.38h94.448c7.965.001 12.517 5.69 12.517 11.38z"/></svg>