<svg xmlns="http://www.w3.org/2000/svg" viewBox="0 0 1000 1000"><path d="M7.277 500.075C7.277 212.38 236.552-1.465 501.101 5.15 791 11.763 992.72 224.504 992.72 501.177c0 270.06-227.07 493.824-490.517 493.824C239.86 995 7.277 753.6 7.277 500.075zm22.046-24.25 16.534 12.125c7.716-4.41 12.125-8.818 15.432-12.125-3.307 0-7.716-4.41-15.432-8.818-4.409 0-12.125 8.818-16.534 8.818zm4.41 94.796c4.408 0 7.715 4.41 12.124 6.614l24.25-11.023c-8.818-3.307-12.125-7.716-16.534-7.716zm7.715-185.183 24.25 11.022c4.41 0 6.614-4.409 11.023-4.409-6.614-6.613-11.023-9.92-23.148-14.33-3.307 4.41-7.716 7.717-12.125 7.717zm16.534 274.468c7.716 0 14.33-3.306 18.74-3.306 7.715 0 7.715-4.41 16.533-7.716l-8.818-8.819-26.455 12.125zm14.33-357.14 24.25 15.432 7.716-7.716-22.045-15.432c-5.512 3.307-9.92 3.307-9.92 7.716zm9.92 197.31c0 231.479 187.389 419.97 418.869 419.97 231.48 0 416.663-188.491 421.073-419.97C926.583 267.492 732.58 79.001 501.1 79.001S82.233 267.493 82.233 500.075zm11.023 231.479 3.307 7.716c4.41 0 12.125-4.41 19.841-4.41 4.41-3.306 4.41-7.715 12.126-11.022l-7.716-8.818zm23.148-503.744 23.148 19.84s4.41-4.408 7.716-4.408c-7.716-7.716-14.33-15.432-26.454-31.966 0 9.92-4.41 12.125-4.41 16.534zm27.558 580.904 3.306 5.511c8.819-7.716 20.944-15.432 28.66-19.84-4.41-4.41-4.41-7.717-7.716-7.717-4.41 0-12.125 3.307-20.944 7.716 0 4.41-3.306 7.716-3.306 14.33zm27.557-648.144c7.716 7.716 16.534 16.535 18.739 28.66 5.511-8.818 12.125-12.125 9.92-12.125-4.409-8.819-12.125-16.535-20.943-18.74zm35.273 704.36 7.716 11.023L231.04 849.5c3.307-4.409-4.41-8.818-4.41-8.818-7.715 8.818-16.533 16.534-19.84 24.25zm36.375-759.474c0 4.41 0 8.818 3.307 16.534l15.432 15.432c3.307-3.306 3.307-7.716 3.307-7.716-3.307-12.125-12.125-19.84-18.739-27.557 0 0-3.307 0-3.307 3.307zm34.171 806.873 7.716 7.716c8.818-7.716 12.125-15.432 20.943-27.558-4.409-4.409-8.818-8.818-12.125-4.409-4.409 7.716-8.818 16.535-16.534 24.25zm41.887-335.095V389.847c0-78.263 58.42-138.888 138.888-143.297 27.557-3.307 59.523-3.307 88.182 0 74.956 4.409 132.275 62.83 137.786 142.194v181.877c0 36.376-12.125 70.547-34.17 94.797-7.717 7.716-6.614 11.023 0 16.534 6.613 7.716 12.124 13.228 16.534 17.637 22.045 23.148 26.454 33.068 6.613 46.296-12.125 11.022-25.352 9.92-36.375 0-5.512-6.614-11.023-12.126-15.432-16.535-18.739-22.045-24.25-25.352-34.171-20.943-49.603 23.148-105.82 15.432-157.627 3.307-65.034-15.432-110.228-70.546-110.228-134.479zm1.102-510.358c0 7.716 4.41 16.535 7.716 26.455 4.41 0 8.818-2.204 8.818-2.204V74.593c-4.409-3.307-8.818-7.716-12.125-15.432-4.409 3.307-4.409 3.307-4.409 7.716zm39.682 871.907c0 4.41 4.41 9.921 8.819 12.126l14.33-23.148c-2.205-3.307-7.717-7.716-12.126-7.716-2.204 4.409-6.614 12.125-11.023 18.738zm13.228-363.754c0 74.956 52.91 102.513 177.468 88.183 13.227-2.204 9.92 0 5.511-4.409-29.762-22.046-36.375-28.66-20.943-50.705 12.125-15.432 27.557-13.227 44.091 2.205l19.841 20.943c5.512 6.614 3.307 7.716 11.023 1.102 13.227-19.84 19.841-40.784 19.841-61.728v-178.57c0-51.807-38.58-92.592-93.694-97h-68.342c-55.114 4.408-94.796 44.09-94.796 97zm29.761-527.994 12.126 24.25 8.818-12.125-12.125-24.25c-4.41 5.511-8.819 7.716-8.819 12.125zm42.99 908.283c4.409 3.307 4.409 7.716 8.818 15.432 3.307-7.716 7.716-12.125 7.716-19.841l-4.41-14.33c-3.306 2.204-7.715 12.125-12.124 18.739zm42.989-912.692L501.1 59.161c0-4.409 7.716-7.716 7.716-16.534 0-2.205-3.307-12.125-7.716-14.33-2.205 2.205-6.614 6.614-12.125 14.33zm52.91 915.999c0 4.409 3.306 8.818 7.715 12.125 0-3.307 2.205-7.716 6.614-12.125-4.41-9.921-6.614-15.432-6.614-22.046h-7.716zm38.58-899.465c0 3.307 3.306 7.716 7.715 12.125 4.41-8.818 7.716-16.534 16.535-19.84-4.41-8.819-8.819-11.024-12.126-16.535zm38.58 868.6c7.715 8.819 12.124 15.433 16.534 23.149 3.306-2.205 7.716-2.205 7.716-7.716-4.41-6.614-7.716-15.432-16.535-23.148zm44.09-841.043s4.41 4.41 4.41 6.614h7.716c4.409-6.614 6.613-14.33 6.613-22.046 0-4.409-2.204-8.818-2.204-8.818zm38.58 805.77c4.41 7.716 8.819 19.842 16.535 27.558l12.125-7.716c-7.716-7.716-16.534-16.535-24.25-28.66 0 4.41-4.41 8.818-4.41 8.818zm35.274-766.087s5.511 3.306 5.511 7.716l23.148-24.25c-4.409-4.41-8.818-7.717-12.125-7.717zm36.375 718.69c0 4.408 0 12.124 3.307 16.533l16.534 12.126 4.41-4.41c-4.41-12.125-12.126-19.84-16.535-31.966-4.409 3.307-7.716 3.307-7.716 7.716zm30.864-667.985c-4.409 0 0 3.307 3.307 12.125 8.818-12.125 16.534-16.534 20.943-24.25 3.307-4.41-4.409-6.614-4.409-6.614-7.716 2.204-16.534 9.92-19.84 18.739zm27.557 612.87c4.41 8.818 12.125 16.534 18.739 24.25 5.511 0 9.92-5.511 12.125-7.716-12.125-7.716-18.739-16.534-26.455-19.84zm24.25-550.04 6.614 12.125 24.25-24.25-7.716-6.614zm23.148 483.903c7.716 7.716 15.432 11.023 24.25 15.432 3.308 4.409 7.717 0 12.126-4.41-12.125-7.715-20.944-11.022-28.66-19.84-4.409 0-7.716 8.818-7.716 8.818zm19.842-413.357c0 4.41 4.409 7.716 7.716 12.125l23.148-19.84s-7.716-7.717-7.716-4.41zm16.534 338.402 22.046 11.022c4.409 0 8.818-3.306 8.818-3.306l-24.25-18.74c-4.41 2.205-6.614 6.614-6.614 11.024zm9.92-259.037c0 2.204 4.41 6.613 8.819 12.125 7.716-5.512 19.84-9.92 27.557-16.534-4.41 0-7.716-3.307-12.125-3.307-7.716 0-15.432 7.716-24.25 7.716zm8.819 176.365c7.716 4.41 15.432 8.818 23.148 8.818 4.409 0 8.818-4.409 12.125-4.409l-23.148-16.534zm3.306-90.387c8.819 3.307 12.126 7.716 16.535 12.125 7.716-4.41 15.432-8.818 19.84-12.125-4.408 0-12.124-8.818-16.533-8.818-7.716 4.409-11.023 8.818-19.841 8.818z"/></svg>