<svg xmlns="http://www.w3.org/2000/svg" width="1000" height="1000">
  <path d="M500.496 5C223.572 5 5 229.506 5 500.002c0 276.43 224.506 495.001 495.002 495.001 276.43 0 495.001-224.506 495.001-495.001C995.003 226.539 773.464 5 500.496 5zM235.44 742.805v-21.759l4.945-.989c47.473-5.934 68.242-39.56 82.089-78.132 56.373-144.396 118.681-305.605 177.033-451.98l24.726-4.944S697.31 662.694 696.32 662.694c14.835 32.638 32.637 51.43 68.242 57.363 3.956 0 8.901 0 8.901 3.956v18.792H570.716v-22.748c.99-2.967 19.78-2.967 39.56-2.967 28.682 0 18.792-21.758 14.836-36.593-24.725-66.264 1.978 7.912-134.506-383.738-39.56 107.803-88.022 253.188-129.56 373.848-6.924 33.626 9.89 49.45 57.362 49.45v22.748z" style="fill:#000;fill-opacity:1;fill-rule:nonzero;stroke:none;"/>
</svg>
