<svg xmlns="http://www.w3.org/2000/svg" viewBox="0 0 1000 1000"><path d="M500,995c273.38,0,495-221.62,495-495S773.38,5,500,5,5,226.62,5,500,226.62,995,500,995ZM201.21,286.73,346.94,141H416.2c-18.76,10.82-80.8,88-96.67,145.73ZM486.9,141V286.73h-140C356.8,256.67,392,185.44,453.72,141ZM515,286.73h141.4C623.54,208.24,570.11,156.87,547.5,141H515Zm283.53,0H683.86c-18-43.28-50.65-103-97.4-145.73h64.93ZM315.92,715.27H201.21L348.39,861h64.93C366.57,818.29,334,758.55,315.92,715.27Zm27.41,0H484.74V861H452.27C429.67,845.13,376.23,793.76,343.33,715.27Zm169.54,0V861h33.19C607.82,816.56,643,745.33,652.83,715.27ZM652.83,861,798.57,715.27H680.25C664.38,773,602.33,850.18,583.58,861ZM766.41,390q25.53,0,42.42,20.35l28.57-37.23a78,78,0,0,0-31.17-22.08q-18.18-7.79-41.55-7.79a92.45,92.45,0,0,0-31.6,5.63,79.42,79.42,0,0,0-28.14,16.45Q692.82,376.62,685,393.94q-7.37,16.88-7.36,40.69,0,19,4.76,32.89a91.09,91.09,0,0,0,13.42,23.81,100.8,100.8,0,0,0,19.48,17.32,211.87,211.87,0,0,0,23.81,13.42Q759,532,772,543.71t13,31.6q0,20.34-10.82,31.6t-27.27,11.25a65.93,65.93,0,0,1-29-6.92,72.46,72.46,0,0,1-23.81-19L666,630.28q13,15.15,34.63,25.11a111.5,111.5,0,0,0,47.18,10,94.4,94.4,0,0,0,33.77-6.06,77.43,77.43,0,0,0,27.7-17.74,86.43,86.43,0,0,0,19-29.44q7.35-17.31,7.36-39.82,0-19.49-6.06-33.76A85.58,85.58,0,0,0,814,513.84a103.87,103.87,0,0,0-21.21-17.75q-11.68-7.35-22.94-13-19.05-9.53-30.73-19.91-11.7-10.83-11.69-30.3a56.33,56.33,0,0,1,3-19.48A38,38,0,0,1,739.57,400a32.8,32.8,0,0,1,12.55-7.36A40.42,40.42,0,0,1,766.41,390Zm-379,267.51.87-235.48h-1.3L325.47,657.55H284.78L224.62,422.07h-1.3l.86,235.48H177V351.08h69.69l58.87,224.23h1.73l57.57-224.23H438V657.55Zm112.59,0V351.08H637.18V397H549.74v81.38h80.94v42.42H549.74v90.47h91.77v46.31Z" fill-rule="evenodd"/></svg>