<svg xmlns="http://www.w3.org/2000/svg" width="1000" height="1000">
  <path d="M958.197 468.665c45.608-38.767 49.029-29.645 9.122-88.935-51.308-84.374-102.617-167.608-153.925-251.982-3.421-4.56-4.561-10.261-5.701-14.822-1.14-5.7-3.421-10.262-4.561-14.822-6.841-10.262-12.542-22.804-22.804-26.225-6.841-2.28-17.103 1.14-29.645 7.982-5.7 2.28-10.262 6.84-14.822 11.401-5.701 5.701-10.262 7.982-15.963 10.262-61.57 25.084-118.58 61.57-180.15 90.075-21.663 10.262-45.607 11.402-70.691 0-63.851-28.505-120.86-91.215-186.991-91.215-1.14 0-15.963-12.542-27.365-21.664-9.121-5.7-22.804-10.261-31.925-6.84-7.981 3.42-13.682 15.962-17.103 26.224-14.822 45.607-25.084 49.028-111.738 190.411l-53.59 87.795c-6.84 9.121-22.803 22.803-22.803 22.803-18.243 18.243-17.103 38.767 6.841 54.73 10.262 6.84 22.804 13.682 31.925 23.943C123.58 545.058 189.71 612.33 256.982 680.74c68.41 69.551 133.402 135.682 202.953 205.234 2.28 2.28 4.56 6.841 6.841 12.542 2.28 3.42 4.561 7.981 7.982 12.542 6.84 7.981 19.383 18.243 27.364 18.243 6.841 0 12.542-2.28 23.944-13.682l4.56-4.561c4.562-4.56 5.702-7.981 7.982-11.402 3.42-4.56 3.42-9.121 7.981-12.542 77.533-58.15 133.402-137.963 199.533-205.234l205.234-207.514zM60.87 397.973c36.486-57.01 75.253-112.878 108.318-169.888 12.542-21.663 27.365-41.047 39.907-64.99l1.14-2.281c2.28 0 4.56 1.14 2.28 12.542-3.42 54.73-6.841 107.178-12.542 161.907-2.28 15.962-13.682 29.645-28.505 34.205-25.084 12.543-50.168 17.103-77.532 23.944-7.982 2.28-14.823 3.421-23.944 5.701h-2.28c-1.141 0-3.421-1.14-6.842-1.14zm10.262 30.785 30.785-7.981c26.224-6.841 53.589-14.822 78.673-19.383 12.542-2.28 25.084 3.42 31.925 18.243 26.225 57.01 61.57 109.458 92.355 164.187l90.075 163.047c33.066 58.15 45.608 78.673 43.328 78.673-4.561-3.42-12.543-12.542-18.244-17.103C306.01 689.861 191.991 574.702 77.972 458.403 67.71 448.141 55.168 435.6 71.13 428.758zm157.346-93.495c1.14-20.524 2.28-41.047 4.56-62.71 3.421-44.468 7.982-88.935 11.402-132.262 0-2.28 1.14-4.561 2.28-9.122 37.627 36.486 72.973 75.252 111.74 114.019 36.485 36.486 70.691 75.252 107.177 111.738 10.262 6.842-5.7 6.842-17.103 6.842H255.841c-26.224 0-31.925-6.842-27.364-28.505zm12.542 74.112c-9.122-15.963-9.122-17.103 9.121-17.103h212.075c19.384 0 26.225 6.841 26.225 23.944l-1.14 429.851C335.656 583.824 383.543 659.077 241.02 409.375zm63.85-262.243v-2.28c3.421 3.42 5.701 3.42 7.982 3.42 1.14 1.14 1.14 1.14 4.56 1.14l68.412 34.206c23.944 12.542 46.748 22.803 70.692 36.486 19.383 11.402 31.925 28.504 31.925 50.168v64.99c-1.14 2.281-1.14 3.421-3.42 3.421-60.43-66.13-119.72-129.981-180.15-191.551zm213.216 701.216v-419.59c0-31.925 4.56-36.486 35.346-36.486h199.533c20.523 0 21.663 1.14 11.401 21.664-35.345 70.692-78.673 140.243-119.72 210.935-123.14 220.056-124.28 221.196-126.56 223.477zm0-532.468c-3.42-31.926-5.701-59.29 15.962-85.515 4.561-5.7 51.309-38.766 84.374-46.747 4.447-1.14 79.928-38.767 82.094-38.88v.113l-180.15 193.832c-.342-8.323-2.28-16.532-2.28-22.803zm20.523 43.327 217.776-229.178c5.701 6.841 6.841 7.981 6.841 9.121 3.42 43.328 6.841 87.795 10.262 129.982 2.28 25.084 3.42 47.888 4.56 71.832 1.14 15.962-4.56 22.804-22.803 22.804H553.43c-6.842 0-17.103 0-14.823-4.561zm33.066 458.356c5.7-10.262 11.401-21.664 15.962-33.066l3.42-7.981c45.608-78.673 93.496-158.486 136.823-239.44 20.524-38.766 42.187-76.392 63.851-115.159 13.682-20.523 22.804-23.944 46.748-18.243 13.682 3.42 27.364 6.841 39.906 11.402 17.103 4.56 33.066 7.981 49.028 13.682 18.243 3.42 19.384 7.982 7.982 22.804-37.627 35.346-77.533 76.393-115.16 112.879-34.205 37.626-70.691 74.112-107.177 110.598-44.467 44.467-86.654 87.795-128.841 133.402-4.561 2.28-7.982 5.701-11.402 11.402-1.14 0-1.14 0-1.14-2.28zM794.01 163.094c51.309 77.533 100.337 153.926 148.225 236.02h-6.841l-20.524-4.561c-26.224-5.701-51.308-12.542-79.813-25.085-10.262-3.42-22.804-18.243-26.224-29.644-5.701-43.328-14.823-125.421-14.823-176.73z" style="fill:#000;fill-opacity:1;fill-rule:nonzero;stroke:none;"/>
</svg>
