<svg xmlns="http://www.w3.org/2000/svg" viewBox="0 0 1000 1000"><path d="M730.79,598.706V477.986h47.5V453.248H657.566v24.738h48.486v120.72Zm-321.591,0V541.315c21.77-1.979,41.56-2.969,61.35,0v57.391h24.738V453.248H470.549V510.64H408.21V453.248H386.441c-2.969,19.79-2.969,132.595,0,145.458Zm134.574-120.72H521.014v33.643c6.927,2.969,14.843,3.958,20.78,5.937,1.979,7.917,1.979,13.854,2.968,20.78,20.78.99,41.56.99,60.36.99,0,14.842,1.979,24.737,1.979,36.612-26.716-.99-56.4-.99-85.1-.99v25.727H568.51c0,8.906,0,15.832,1.98,22.759h22.758c2.969-10.885-3.958-23.748,11.874-24.738,0,0,1.979-4.947,1.979-6.926V574.958H629.86V538.346c-6.926-.989-12.863-2.968-19.79-3.958-1.979-6.926-2.969-13.853-4.948-22.759h-60.36c0-12.863-.989-23.748-.989-33.643H629.86V453.248c-11.874-.989-22.759-.989-33.643-1.979-.99-9.895-2.969-15.832-3.958-22.759H570.49c-1.98,7.917-1.98,14.843-3.959,22.759-7.916.99-13.853,1.979-22.758,2.969ZM261.762,574.958v23.748h74.214V574.958h23.748v-61.35H287.49v24.738a437.842,437.842,0,0,1,48.486,2.969v34.633H261.762V477.986h97.962V453.248c-34.633-.989-66.3-.989-97.962,0v24.738H238.014a792.688,792.688,0,0,0,0,96.972ZM635.8,851.031H369.619c-.99-11.874-.99-22.758-2.969-36.611H299.364c-.99-12.864-.99-23.749-2.969-33.644a202,202,0,0,0-33.643-2.968c-.99-12.864-.99-23.749-1.979-33.644-11.874-.989-21.77-3.958-33.644-3.958a85.159,85.159,0,0,0-.989-15.832,121.413,121.413,0,0,0-.99-16.822c-12.863-.989-22.758-.989-35.622-1.979V636.308c-12.864,0-23.748-2.969-33.643-3.958V370.129c10.884-.989,21.769-1.979,33.643-1.979.989-24.737.989-47.5.989-71.244,11.875-.99,21.77-.99,34.633-1.979.99-11.875,1.979-21.77,2.969-32.654,10.884,0,21.769-1.979,32.654-2.969.989-11.874,1.979-21.769,3.958-31.664a303.12,303.12,0,0,0,31.664-4.948c1.979-10.884,1.979-20.779,2.969-33.643,22.758,0,45.517,0,67.286-.99,1.979-13.853,2.969-22.758,3.958-33.643h264.2c.989,11.874.989,20.78,2.968,34.633h69.266c1.979,12.864,1.979,23.748,2.968,35.622,10.885,0,20.78,1.979,33.644,2.969,0,10.884.989,20.78,1.979,31.664,11.874.99,21.769,2.969,31.664,3.958.99,11.874,2.969,21.769,3.958,31.665,11.874.989,21.769.989,34.633,1.979V368.15c14.843,0,25.727.99,36.612.99v264.2c-10.885,2.969-21.769,2.969-33.643,2.969-5.937,23.748.989,48.486-3.958,71.244H781.255c-.989,12.864-2.968,23.749-3.958,32.654-6.926,0-11.874,2.969-16.821,2.969-3.959,0-9.9.989-14.843.989a101.718,101.718,0,0,0-.99,16.822c0,3.958-.989,9.895-.989,16.822-12.864.989-22.759.989-33.644,2.968-.989,11.874-.989,20.78-2.968,33.644H637.776C635.8,828.273,635.8,839.157,635.8,851.031ZM748.6,72.287C671.42,27.759,588.3,5,499.245,5,409.2,5,326.08,27.759,248.9,72.287Q137.578,139.079,70.787,250.4C26.259,327.58,3.5,410.7,3.5,499.755,3.5,589.8,26.259,672.92,70.787,750.1Q137.579,861.422,248.9,928.213C326.08,972.741,409.2,995.5,499.245,995.5c89.056,0,172.175-22.759,249.356-67.287Q859.922,861.421,926.713,750.1C971.241,672.92,994,589.8,994,499.755,994,410.7,971.241,327.58,926.713,250.4Q859.921,139.078,748.6,72.287Z"/></svg>