<?xml version="1.0" encoding="utf-8"?>
<!-- Generator: Adobe Illustrator 26.0.1, SVG Export Plug-In . SVG Version: 6.00 Build 0)  -->
<svg version="1.1" id="Layer_1" xmlns="http://www.w3.org/2000/svg" xmlns:xlink="http://www.w3.org/1999/xlink" x="0px" y="0px"
	 viewBox="0 0 1000 1000" style="enable-background:new 0 0 1000 1000;" xml:space="preserve">
<style type="text/css">
	.st0{fill-rule:evenodd;clip-rule:evenodd;}
</style>
<path class="st0" d="M385.9,7.6h-94.7L91.8,206.9h161.8C275.3,128,360.2,22.4,385.9,7.6z M908.8,206.9L707.5,7.6h-88.8
	C682.7,66,727.3,147.7,752,206.9H908.8z M91.8,793.1l201.3,199.3h88.8C318,934,273.4,852.3,248.7,793.1H91.8z M565.4,7.6H521v199.3
	h193.4C669.5,99.6,596.4,29.3,565.4,7.6z M482.6,206.9V7.6h-45.4c-84.5,60.8-132.6,158.2-146,199.3L482.6,206.9L482.6,206.9z
	 M518.1,793.1v199.3h45.4c84.5-60.8,132.6-158.2,146-199.3H518.1z M435.2,992.4h44.4V793.1H286.2
	C331.2,900.4,404.3,970.7,435.2,992.4z M614.8,992.4h94.7l199.3-199.3H747C725.3,872,640.4,977.6,614.8,992.4z M176,319.8h71.1
	l99.2,368.1h-63.6l-20.5-77.1H160.9l-20.5,77.1H76.8L176,319.8z M247.1,555.2l-10-37.1c-13.4-49.1-21.9-88.8-25.5-119.2
	c-3.7,30.4-12.2,70.1-25.5,119.2l-10,37.1H247.1z M458.4,686.9c-14-3.3-26.8-9.4-38.3-18.3c-11.5-8.8-20.4-19.9-26.5-33.3
	c-6.2-13.4-9.3-27.2-9.3-41.6h61.6c0.3,8.7,3.3,16.6,8.8,23.8c5.5,7.2,12.4,12.1,20.8,14.8c8.3,2.7,16.9,4,25.5,4
	c7,0,13.9-0.8,20.8-2.5c6.8-1.7,13-4.7,18.5-9c5.5-4.3,9.7-9.8,12.5-16.5c2.8-6.7,4.3-13.4,4.3-20c0-9.7-2.4-18.9-7.3-27.5
	c-4.8-8.7-11.4-15.7-19.5-21c-8.2-5.3-17-8.7-26.5-10c-9.5-1.3-19.1-2-28.8-2v-56.1c8.7,0,17.4-0.7,26.3-2
	c8.8-1.3,16.9-4.5,24.3-9.5c7.3-5,13.1-11.5,17.3-19.5c4.2-8,6.3-16.4,6.3-25c0-6.3-1.2-12.4-3.5-18.3c-2.3-5.8-5.8-10.8-10.5-14.8
	c-4.7-4-9.9-6.8-15.8-8.5c-5.8-1.7-11.9-2.5-18.3-2.5c-7.7,0-15.2,1.3-22.5,4c-7.3,2.7-13.3,7.3-17.8,14c-4.5,6.7-6.8,13.9-6.8,21.5
	h-61.6c0-13.7,2.8-26.9,8.3-39.6c5.5-12.7,13.6-23.5,24.3-32.3c10.7-8.8,22.7-14.9,36.1-18.3c13.4-3.3,26.7-5,40.1-5
	c14,0,27.8,1.8,41.3,5.5c13.5,3.7,25.6,10.1,36.3,19.3c10.7,9.2,18.8,20.4,24.3,33.6c5.5,13.2,8.3,26.6,8.3,40.3
	c0,11.7-2.1,23-6.3,33.8c-4.2,10.9-10.2,20.6-18,29.3c-7.8,8.7-16.8,15.7-26.8,21c11.3,5.3,21.6,12.5,30.8,21.5
	c9.2,9,16.2,19.5,21,31.6c4.8,12,7.3,24.4,7.3,37.1c0,14.7-3,29-9,42.8c-6,13.9-14.8,25.5-26.3,35.1c-11.5,9.5-24.5,16.1-39.1,19.8
	c-14.5,3.7-29.1,5.5-43.8,5.5C486.6,691.9,472.5,690.2,458.4,686.9z M746.9,687.4c-13.7-3-26.3-8.7-37.8-17
	c-11.5-8.3-20.3-19-26.3-32.1c-6-13-9-26.5-9-40.6c0-38.1,20.7-70.4,62.1-97.2c-35.4-25-53.1-55.3-53.1-90.7
	c0-13.4,2.6-26.4,7.8-39.1c5.2-12.7,12.9-23.4,23.3-32.1c10.3-8.7,22-14.7,35.1-18c13-3.3,26.2-5,39.6-5c13.4,0,26.5,1.7,39.6,5
	c13,3.3,24.7,9.4,35.1,18c10.3,8.7,18.1,19.4,23.3,32.1c5.2,12.7,7.8,25.7,7.8,39.1c0,35.4-17.7,65.6-53.1,90.7
	c41.7,26.7,62.6,59.1,62.6,97.2c0,14-3.1,27.5-9.3,40.6c-6.2,13-15,23.7-26.5,32.1c-11.5,8.3-24.1,14-37.8,17
	c-13.7,3-27.5,4.5-41.6,4.5S760.6,690.4,746.9,687.4z M806.8,634.6c6.2-1.2,11.9-3.3,17.3-6.5c5.3-3.2,9.6-7.5,12.8-13
	c3.2-5.5,4.8-11.3,4.8-17.3c0-22.7-17.7-44.6-53.1-65.6c-35.4,21-53.1,42.9-53.1,65.6c0,6,1.6,11.8,4.8,17.3
	c3.2,5.5,7.4,9.9,12.8,13c5.3,3.2,11.1,5.3,17.3,6.5c6.2,1.2,12.3,1.8,18.3,1.8C794.5,636.3,800.6,635.7,806.8,634.6z M832.6,409.4
	c0-7-2-13.8-6-20.3s-9.5-11.1-16.5-13.8c-7-2.7-14.2-4-21.5-4c-7.3,0-14.5,1.3-21.5,4c-7,2.7-12.5,7.3-16.5,13.8s-6,13.3-6,20.3
	c0,22.4,14.7,42.6,44.1,60.6C817.9,452,832.6,431.8,832.6,409.4z"/>
</svg>
