<svg xmlns="http://www.w3.org/2000/svg" viewBox="0 0 1000 1000"><path d="M500.496 5C223.572 5 5 229.506 5 500.002c0 276.43 224.506 495.001 495.002 495.001 276.43 0 495.001-224.506 495.001-495.001C995.003 226.539 773.464 5 500.496 5zM161.264 734.893V299.726c0-4.945 2.967-7.912 7.912-7.912H305.66c94.946 0 161.21 29.67 161.21 131.539 0 64.286-33.627 106.814-87.034 124.616-5.934 1.978-6.923 4.945-3.956 9.89l102.858 175.056c2.967 4.945.989 8.9-4.945 8.9h-63.297c-3.956 0-6.923-1.977-8.901-4.944L305.66 563.793c-1.978-2.967-4.945-4.945-8.9-4.945h-59.342c-3.956 0-6.923 2.967-6.923 7.912v168.133c0 3.956-2.967 6.923-7.912 6.923h-53.407c-4.945 0-7.912-2.967-7.912-6.923zm69.231-241.32c0 3.956 2.967 6.923 6.923 6.923h63.297c64.286 0 99.89-24.725 99.89-77.143 0-57.363-35.604-79.121-99.89-79.121h-63.297c-3.956 0-6.923 2.967-6.923 6.923zm313.518 241.32V299.726c0-4.945 2.967-7.912 7.912-7.912h71.209c3.956 0 7.912 1.978 8.901 5.934l67.253 208.682c1.978 6.923 6.923 6.923 8.901 0l61.32-208.682c.988-3.956 2.966-5.934 7.911-5.934h77.143c4.945 0 7.912 2.967 7.912 7.912v435.167c0 3.956-2.967 6.923-7.912 6.923h-44.505c-3.956 0-6.923-2.967-6.923-6.923v-341.21c0-6.924-6.924-6.924-8.902-.99l-69.23 220.55c-.99 3.957-4.946 5.935-8.902 5.935h-29.67c-3.956 0-7.912-1.978-8.901-5.934l-67.253-219.561c-1.978-5.934-8.901-5.934-8.901.989 0 44.505 2.967 106.813 2.967 142.418v197.803c0 3.956-2.967 6.923-7.912 6.923h-44.506c-4.945 0-7.912-2.967-7.912-6.923z"/></svg>