<svg xmlns="http://www.w3.org/2000/svg" viewBox="0 0 1000 1000"><path d="M305.661 5h688.635v963.243c0 16.9 0 26.757-26.757 26.757H5.704V316.223c0-43.655 14.083-76.045 40.84-107.027C101.464 152.866 156.386 102.17 209.9 45.84 235.25 20.491 264.822 5 305.661 5zM66.26 683.777c0 35.206 30.981 60.554 61.963 60.554 35.206 0 59.146-25.348 59.146-60.554 0-35.207-23.94-61.963-59.146-61.963-38.023 0-61.963 29.573-61.963 61.963zm0-371.778c0 35.206 23.94 60.554 61.963 60.554 35.206 5.633 59.146-25.348 59.146-56.33 0-35.206-23.94-64.78-59.146-64.78-30.982 0-61.963 29.574-61.963 60.556zm183.072 0c1.409 45.064 33.798 61.963 66.188 60.554 29.573-1.408 60.555-25.348 60.555-60.554 0-36.615-30.982-60.555-60.555-60.555-35.206 0-66.188 23.94-66.188 60.555zm7.042 371.778c-7.042 35.206 23.94 60.554 59.146 60.554 29.573 0 60.555-25.348 60.555-60.554 0-35.207-30.982-61.963-60.555-61.963-35.206 0-59.146 26.756-59.146 61.963zm181.664 183.072c0 36.615 25.348 61.963 60.555 66.188 35.206 0 61.963-29.573 61.963-60.555 0-35.206-26.757-67.596-61.963-67.596-35.207 0-60.555 32.39-60.555 61.963zm183.073 0c0 36.615 26.756 61.963 61.963 66.188 35.206 0 63.37-29.573 63.37-60.555 2.817-35.206-28.164-61.963-59.146-67.596-33.798 0-66.187 32.39-66.187 61.963zm0-183.072c0 35.206 32.39 60.554 61.963 60.554 35.206 0 63.37-25.348 63.37-60.554 2.817-32.39-28.164-61.963-63.37-61.963-29.574 0-61.963 26.756-61.963 61.963zm0-556.26c0 36.615 32.39 60.556 61.963 60.556 35.206 0 63.37-23.94 63.37-60.555 2.817-35.206-28.164-61.963-59.146-61.963-33.798 0-66.187 26.757-66.187 61.963zM809.815 866.85c0 36.615 25.349 61.963 63.371 66.188 28.165 0 60.555-29.573 60.555-60.555 0-35.206-26.757-61.963-60.555-67.596-38.022 0-63.37 32.39-63.37 61.963zm0-183.072c-4.225 30.981 25.349 60.554 63.371 60.554 28.165 0 60.555-25.348 60.555-60.554 0-32.39-26.757-61.963-60.555-61.963-38.022 0-63.37 26.756-63.37 61.963zm0-183.073c0 35.206 25.349 60.555 63.371 60.555 33.798 0 60.555-29.573 60.555-60.555 0-38.023-32.39-60.555-60.555-60.555-38.022 0-67.596 22.532-63.37 60.555z"/></svg>