<svg xmlns="http://www.w3.org/2000/svg" width="1000" height="1000">
  <path d="M6.333 506.698C1.366 247.18 213.698 11.257 490.599 5.048c269.45-3.725 496.683 209.849 502.891 483.024 8.692 265.726-198.673 497.925-480.54 506.617-274.418 9.933-502.892-216.057-506.617-487.991zm47.185 4.967c6.208 248.341 202.398 443.29 455.706 437.08 269.45-6.208 443.29-232.199 437.081-456.948 0-250.825-208.606-444.531-456.948-439.564-248.341 6.208-444.531 211.09-435.84 459.432zm112.995 2.483c-11.175-73.26 43.46-176.322 155.214-180.048 18.625 0 38.493 4.967 55.876 12.418 3.726 0 8.692 1.241 14.9 3.725 0-4.967 2.484-7.45 2.484-12.417-2.483-2.484-2.483-8.692-2.483-13.66-9.934-38.492-7.45-29.8 28.56-38.492 8.691-2.484 11.175 6.208 13.658 13.659 8.692 34.767 13.659 67.052 24.834 100.578 0 4.967 3.725 14.9 3.725 21.109 2.484 7.45-3.725 13.659-12.417 13.659-40.976 7.45-83.194 14.9-124.17 21.109-8.693 2.483-13.66-2.484-13.66-12.417-8.691-28.56-6.208-36.01 22.351-38.493 9.934-2.484 21.11-2.484 28.56-6.209 0 0 0-2.483 2.483-2.483-12.417-8.692-26.076-14.9-42.218-14.9-49.668 2.483-98.095 40.976-109.27 94.37-7.45 48.426 8.692 88.16 50.91 117.961 34.768 24.834 85.678 23.593 124.17 0 13.66-9.933 27.318-21.109 32.285-36.01 8.692-9.933 17.384-16.141 29.8-16.141 8.693 0 17.385-1.242 26.077 1.241 9.933 0 12.417 2.484 7.45 9.934-24.834 44.701-57.119 86.92-112.995 103.062-93.128 24.834-192.465-39.735-206.124-141.555zm120.446-13.659c2.483-21.109 2.483-21.109 23.592-22.35 60.844-2.484 125.413-4.967 187.498-6.209 62.085-1.242 125.413-2.483 189.981-1.242 21.11 0 21.11 0 21.11 24.834v7.45c0 13.66-2.484 16.143-13.66 16.143h-12.417a590692.97 590692.97 0 0 0-366.303 7.45c-27.318 1.242-29.801 1.242-29.801-26.076zm213.573-48.426c3.726-2.484 3.726-9.934 6.209-12.417 16.142-19.868 28.56-44.702 45.943-63.328 47.185-48.426 114.237-64.568 177.564-38.492 60.844 21.109 103.062 79.469 104.304 145.28 4.967 103.061-91.887 187.497-198.673 166.388-4.967-2.483-7.45-2.483-14.9-2.483-2.484 0-2.484 2.483-6.21 2.483 3.726 9.934 6.21 21.11 8.693 29.801 9.933 18.626 7.45 21.11-11.176 29.801h-4.967c-17.384 6.209-22.35 6.209-27.317-9.934-11.176-36.01-28.56-73.26-39.735-108.028-6.208-16.142-2.483-18.626 11.175-21.11 34.768-13.658 73.261-27.317 110.512-37.25 14.9-4.967 17.384-2.484 23.593 13.658 0 2.484 0 4.967 2.483 7.45 6.209 17.385 2.484 21.11-14.9 27.318-11.176 2.484-23.593 6.209-38.493 12.417v3.725c6.208 1.242 8.692 3.726 14.9 3.726 64.57 11.175 115.48-26.076 130.38-75.745 18.625-54.635-6.209-115.478-54.635-137.83-54.636-26.075-117.963-8.691-147.764 38.494-24.834 34.768-17.384 27.317-60.843 28.56-7.45 0-9.934 0-16.143-2.484z" style="fill:#000;fill-opacity:1;fill-rule:nonzero;stroke:none;"/>
</svg>
