<svg xmlns="http://www.w3.org/2000/svg" viewBox="0 0 1000 1000"><path d="M163.646 270.023A121082.953 121082.953 0 0 0 729.361 832.05c31.975-34.435 70.1-72.56 105.764-105.764C648.193 536.892 461.262 348.73 271.87 161.8c-36.894 36.894-73.789 71.329-108.224 108.223zM5 432.36c188.162 185.7 377.553 373.862 563.255 562.024 38.125-38.124 68.87-71.33 109.454-109.453-190.621-185.702-378.783-375.094-565.715-563.255C75.1 361.03 38.205 394.235 5 432.359zm317.292-319.752C509.224 300.77 697.386 488.93 884.318 675.862c38.124-36.894 73.789-73.789 110.683-105.764L430.516 5.613c-34.435 33.205-71.33 68.87-108.224 106.994z"/></svg>