<svg xmlns="http://www.w3.org/2000/svg" viewBox="0 0 1000 1000"><path d="M121.96 322.396c40.516-14.927 92.76-19.191 133.274-10.662 41.582 6.397 81.03 19.191 119.414 34.118 37.316 14.927 73.567 30.92 108.75 50.111 20.258 11.728 41.582 23.456 61.84 35.184 5.33 3.199 8.53 3.199 12.794-1.066 6.397-7.463 12.794-12.794 19.192-19.191 41.581-33.052 87.427-59.707 138.604-73.567 38.383-10.662 75.7-17.06 115.149-12.795 36.25 4.265 72.5 14.927 103.42 35.185 29.853 20.257 49.045 46.912 57.574 83.162 10.662 63.972-7.463 129.01-44.78 175.922-20.257 26.654-44.78 45.846-75.7 57.574-33.051 12.794-67.17 19.191-103.42 14.927-38.382-5.331-75.699-12.795-111.95-26.655a1265.69 1265.69 0 0 1-121.545-57.574c-26.655-13.86-52.243-26.655-77.832-40.516-2.132-1.066-5.33 0-6.397 1.067-6.397 5.33-11.728 11.728-18.125 17.059-40.515 34.118-85.295 60.772-136.472 76.765-38.383 11.728-78.898 19.192-119.414 14.927-31.985-3.199-61.839-10.662-90.626-24.523-74.633-38.382-95.957-125.81-70.368-204.708 13.86-56.508 57.574-104.486 106.619-124.744zM39.865 496.185c13.86 20.257 33.052 34.118 54.376 44.78 44.78 22.39 90.626 30.92 139.67 26.655 43.714-4.265 87.428-11.729 130.076-23.457 10.662-2.132 22.39-6.397 34.118-9.595-2.133-2.133-4.265-3.199-6.397-4.265-49.045-26.655-98.09-53.31-148.2-77.832-33.053-14.927-66.104-24.522-102.355-22.39a128.397 128.397 0 0 0-53.31 14.927c-19.19 10.662-34.117 26.654-47.978 42.647-2.132 3.199-2.132 5.331 0 8.53zm569.345-30.92 2.133 2.133c6.397 3.198 12.794 7.463 20.257 10.662 41.582 23.456 85.295 45.846 131.142 62.905 31.985 12.794 66.103 20.257 101.288 19.191 12.794-1.066 26.654-2.132 38.382-7.463 22.39-10.662 40.516-24.522 56.508-41.582 4.265-3.198 4.265-6.397 1.067-10.661-13.86-15.993-29.854-28.788-47.979-38.383-47.978-25.589-99.156-34.118-153.531-27.721-39.45 5.33-78.898 11.728-118.347 22.39-9.596 2.132-20.258 5.33-30.92 8.53z"/></svg>