<svg xmlns="http://www.w3.org/2000/svg" viewBox="0 0 1000 1000"><path d="M504.95 995.004h-9.9c-6.187 0-9.9-2.475-14.85-4.95-2.475-2.475-4.95-4.95-7.425-4.95-129.938-96.525-261.113-190.576-391.051-284.626-2.475-2.475-6.188-7.425-9.9-8.663l-7.425-18.562V327.989c2.475-11.138 7.425-19.8 17.325-27.225l316.8-228.939c25.989-18.562 51.976-39.6 79.201-58.162C485.15 8.713 492.575 5 500 5c8.663 0 16.088 3.713 24.75 8.663 61.876 34.65 113.85 81.675 170.776 123.75l223.989 167.063c9.9 7.425 16.087 16.088 16.087 28.463v345.264c-3.712 11.137-11.137 17.325-18.563 22.275-129.938 96.525-259.876 190.576-391.051 284.626-7.425 4.95-12.375 9.9-21.038 9.9zM95.336 647.265c0 2.475 7.425 9.9 12.375 9.9h80.438c2.475 0 3.713 0 2.475-2.475v-12.375c0-4.95 0-4.95-2.475-4.95h-70.538s-2.475 2.475-2.475-2.475v-40.838c0-1.237 0-1.237 2.475-1.237h12.375s2.475 0 2.475-2.475v-16.088c0-1.237-2.475-1.237-2.475-1.237h-24.75c-2.475 1.237-4.95 3.712-7.425 6.187-2.475 2.475-2.475 2.475-2.475 4.95zm0-253.688c0 2.475 0 2.475 2.475 2.475h60.638v1.237c-6.188 6.188-13.613 11.138-24.75 16.088 4.95 3.712 13.612 6.187 18.562 11.137h1.238c14.85-8.662 29.7-18.562 43.313-27.225v-18.562c0-1.238 0-1.238-2.475-1.238H97.81c-2.475 0-2.475 0-2.475 1.238zm29.7 116.325c0 2.475 2.475 2.475 2.475 2.475h17.325s2.475 0 2.475-2.475V496.29l-2.475-3.712h-14.85c-2.475 0-4.95 3.712-4.95 3.712zm27.225-189.338c0 2.475 0 2.475 1.238 2.475h81.675c3.713 0 6.188 0 6.188-2.475-2.475-3.713-2.475-8.663-2.475-13.613 0-2.475 0-2.475-3.713-2.475H153.5c-1.238 0-1.238 0-1.238 2.475zm38.363 215.326c0 2.475 1.238 4.95 1.238 4.95 4.95-2.475 9.9-2.475 16.087 0 2.475 0 3.713-2.475 3.713-4.95v-58.163c0-2.475-1.238-2.475-3.713-2.475h-16.087s-1.238 0-1.238 2.475zm17.325 215.326c0 2.475 0 2.475 2.475 2.475h47.025c2.475 0 2.475-2.475 2.475-2.475v-14.85c0-2.476 0-2.476-2.475-2.476h-47.025c-2.475 0-2.475 0-2.475 2.475zm21.038-167.064c0 2.475 2.475 2.475 3.712 2.475h82.913c2.475 0 2.475 0 2.475-2.475v-16.087s0-2.475-2.475-2.475h-84.15c-2.475 2.475-2.475 2.475-2.475 4.95zm3.712 65.588c0 2.475 0 4.95 2.475 4.95 8.663 9.9 13.613 21.038 19.8 32.175l9.9 13.613c2.475 0 2.475 0 2.475-2.475 9.9-13.613 19.8-28.463 28.463-45.788 2.475 0 2.475-2.475 2.475-2.475v-28.462c-11.138 13.612-21.038 30.937-33.413 48.262-9.9-17.325-18.562-32.175-32.175-48.262zm8.663-256.163h2.475c13.612 9.9 28.462 22.275 43.312 30.937h33.413c-16.087-11.137-30.938-21.037-48.263-30.937l48.263-34.65h-30.938l-2.475 2.474-40.837 27.226c-2.475 0-2.475 2.475-4.95 4.95zm2.475 138.6h16.087c2.475 0 2.475 0 2.475-2.475 8.663-19.8 12.375-39.6 17.325-58.163 0-2.475 0-2.475 2.475-2.475h4.95c2.475-2.475 3.713 0 3.713 2.475 2.475 8.663 7.425 18.563 11.138 30.938l7.425 27.225c0 2.475 1.237 2.475 1.237 2.475h17.325v-2.475L306.95 451.74c0-2.475-2.475-2.475-4.95-2.475h-30.938c-3.713 0-3.713 0-3.713 2.475-7.425 25.988-16.087 50.738-23.512 77.963zm8.662-211.613c0 2.475 2.475 2.475 2.475 2.475H272.3s2.475 0 2.475-2.475V306.95c0-2.475-2.475-2.475-2.475-2.475h-17.325s-2.475 0-2.475 2.475zm7.425-71.776c4.95 4.95 11.138 7.426 14.85 9.9 0 1.238 2.475 1.238 4.95 0l60.638-37.125 2.475-1.237v-13.613c0-6.187 0-4.95-7.425-6.187-17.325 0-33.412 1.237-50.738 1.237-2.475 0-2.475 0-2.475 2.475v16.088c0 1.237 0 1.237 2.475 1.237h19.8zm29.7 555.64h17.326c2.475 0 2.475 0 2.475-2.475v-13.612c0-2.475 0-2.475-2.475-2.475h-16.088c-1.238 0-1.238 0-1.238 2.475zm6.188-54.45c0 1.238 0 1.238 2.475 1.238h108.9c2.475 0 4.95 0 4.95-1.238-2.475-2.475 0-8.663 0-13.613 0-4.95 0-4.95-4.95-4.95h-71.775l50.738-33.412c-4.95-4.95-9.9-6.188-17.325-11.138l-1.238 2.475-69.3 42.075c-2.475 0-2.475 2.475-2.475 2.475zm29.7 80.438c0 2.475 2.475 2.475 3.713 2.475h76.725c1.237 0 1.237 0 1.237-2.475v-11.138c0-4.95 0-4.95-1.237-4.95h-76.725c-1.238 0-3.713 0-3.713 2.475zm2.475-480.152c0 2.475 0 2.475 4.95 2.475h12.375c2.475 0 2.475 0 2.475-2.475V306.95s0-2.475-2.475-2.475h-16.087s-1.238 2.475-1.238 4.95zm14.85 110.138c0 3.712 0 3.712 2.475 3.712h42.075c2.475 0 2.475 0 2.475-3.712v-16.088s0-2.475-2.475-2.475h-42.075c-2.475 0-2.475 2.475-2.475 2.475zm8.663 201.713h17.325c2.475 0 2.475-2.475 2.475-2.475v-17.325l-2.475-2.475h-14.85c-2.475 0-2.475 0-2.475 2.475zm4.95-403.426c0 1.237 0 3.712 2.475 6.187l27.225 44.55c1.237 0 1.237 0 1.237 2.475v-2.475l32.175-47.025v-2.475c0-6.187 0-11.138 2.476-18.563v-12.375h-2.476c-9.9 17.325-18.562 33.413-32.175 49.5-8.662-16.087-19.8-32.175-30.937-49.5zm12.375 350.213c0 2.475 0 2.475 2.475 2.475h14.85c1.237 0 1.237 0 1.237-2.475v-32.175c0-11.137 2.475-23.512 2.475-33.412v-7.425l2.475 2.475c13.613 22.275 27.225 43.312 42.076 63.112v2.475h7.425v-9.9c0-7.425 0-17.325-7.425-23.512l-44.55-70.538c0-2.475-2.476-2.475-3.713-2.475H371.3c-2.475 0-2.475 0-2.475 2.475zm18.562-195.525c0 3.712 0 3.712 4.95 3.712h82.913c0-1.237 2.475-1.237 2.475-1.237v-18.563l-2.475-1.237h-85.388s-2.475 1.237-2.475 4.95zM401 866.303c6.187 16.088 13.612 27.226 21.038 40.838 0 1.238 2.475 1.238 2.475 1.238h19.8c0-1.238-2.475-4.95-2.475-4.95-7.425-12.375-12.375-23.513-19.8-37.126zm2.475-668.252c0 2.475 0 3.712 2.475 3.712 3.712-1.237 8.662-1.237 13.612-1.237 2.475 0 2.475 0 2.475-2.475V113.9H405.95c-2.475 0-2.475 0-2.475 2.474zm13.612 138.6c0 3.713 2.475 11.138 7.426 13.613 3.712 2.475 3.712 2.475 4.95 2.475h55.687c7.425 0 12.375 0 17.325-7.425 0 0 2.475-2.475 2.475-4.95v-80.438c0-1.237-2.475-1.237-2.475-1.237h-16.087c-1.238 0-1.238 0-1.238 1.237v70.538c0 2.475-2.475 2.475-4.95 2.475h-40.837c-2.475 0-2.475 0-2.475-2.475v-9.9c0-1.238 0-1.238-2.475-1.238h-14.85s-2.476 0-2.476 1.238zm11.138 455.402c0 2.475 0 4.95 1.238 4.95h73.012s2.475 0 2.475 2.475v40.838c0 3.712 0 3.712-2.475 3.712h-9.9c-6.187 0-6.187 0-6.187 3.713v12.375c0 2.475 0 2.475 2.475 2.475h17.325c4.95 0 9.9 0 12.375-4.95l3.712-2.475c2.475 0 2.475-2.475 2.475-4.95v-53.213c0-7.425-2.475-11.137-8.662-16.087-3.713-2.475-4.95-3.713-4.95-3.713h-81.675c-1.238 0-1.238 0-1.238 3.713zm18.563-44.55h1.237c0 2.475 2.475 2.475 4.95 2.475l11.138-2.475c2.475 0 2.475 0 2.475-3.713v-70.537c0-2.475 0-2.475-2.475-2.475H450.5c-3.712 0-3.712 0-3.712 4.95zm3.712-292.051c0 8.662 0 8.662 4.95 8.662h70.538c2.475 0 2.475 0 2.475 2.475v40.838c0 2.475 0 2.475-2.475 2.475h-12.375c-2.475 0-2.475 0-2.475 2.475v14.85c0 2.475 0 2.475 2.475 2.475h22.275c2.475 0 2.475 0 2.475-2.475l6.187-8.662c2.476 0 2.476-2.475 2.476-2.475v-55.688c0-8.663-6.188-18.563-16.088-18.563h-77.963c-2.475 0-2.475 2.475-2.475 4.95zm2.475-347.74c0 2.476 2.475 2.476 2.475 2.476h14.85c2.475 0 2.475 0 2.475-2.475V99.05c0-2.475 0-2.475 2.475-2.475h40.838c2.475 0 2.475 0 2.475 2.475v38.363l3.712 9.9c0 2.475 0 2.475 2.475 2.475h11.138c4.95 0 4.95 0 4.95-6.187V89.15c0-2.476-2.475-3.713-2.475-3.713l-4.95-6.188c-2.475-2.475-4.95-2.475-7.425-2.475H470.3c-6.187 0-8.662 2.475-14.85 8.663 0 0-2.475 1.237-2.475 3.712zm2.475 118.801c0 2.475 0 2.475 3.713 2.475h13.612c2.475 0 2.475 0 2.475-2.475v-13.612c0-2.475 0-2.475-2.475-2.475h-13.612c-3.713 0-3.713 0-3.713 2.475zm3.713 331.652c0 2.475 2.475 4.95 2.475 4.95h13.612c4.95 0 4.95 0 4.95-4.95v-43.313c0-2.475-2.475-2.475-4.95-2.475h-13.612s-2.475 0-2.475 2.475zm8.662-400.952 24.75 38.363h18.563V193.1l-22.275-35.888c0-2.475 0-2.475-2.475-2.475h-18.563zm18.563 497.477 2.475 2.475H599c3.712 0 3.712 0 3.712-4.95v-14.85c0-2.475 0-2.475-3.712-2.475h-73.013v-2.475c17.325-8.662 34.65-19.8 50.738-30.938-4.95-4.95-9.9-7.425-13.613-8.662-2.475-2.475-2.475-2.475-4.95 0l-22.275 13.612c-17.325 8.663-30.938 19.8-47.025 28.463-2.475 0-2.475 2.475-2.475 2.475zm2.475 297.001c0 2.475 0 2.475 3.712 2.475h13.613c2.475 0 2.475 0 2.475-2.475v-40.837c0-2.475 0-2.475-2.475-2.475h-17.325zm8.662-538.314c0 2.475 0 3.712 2.475 3.712 4.95-1.237 8.663-1.237 16.088-1.237h2.475v-18.563l-2.475-1.237H500c-2.475 0-2.475 1.237-2.475 1.237zM500 693.053l22.275 38.362h21.038c-2.475-1.237-2.475-1.237-2.475-3.712-4.95-13.613-12.375-24.75-18.563-34.65-3.712-1.238-3.712-1.238-6.187-1.238H500zm35.888 214.088c0 1.238 0 1.238 2.475 1.238h13.613s3.712 0 3.712-1.238v-16.087c0-2.475-3.712-2.475-3.712-2.475h-16.088zm8.662-615.04c0 2.475 0 2.475 2.476 2.475h16.087c1.238 0 1.238 0 1.238-4.95v-71.775h2.475v2.475l40.837 61.875c2.475 2.475 2.475 4.95 7.425 4.95 3.713 0 3.713 0 3.713-2.475v-24.75c-6.188-3.712-8.663-8.663-11.138-11.138-13.612-22.275-28.462-47.025-40.837-66.825-2.475 0-2.475-2.475-3.713-2.475h-16.088c-2.475 0-2.475 2.475-2.475 3.713zm2.476 278.439c0 2.475 0 2.475 2.475 2.475h14.85s2.475 0 2.475-2.475v-17.325h-19.8zm0-173.25c0 3.712 0 3.712 2.475 3.712h13.612c3.713 0 3.713 0 3.713-3.713v-58.163l-2.475-2.475H549.5c-2.475 0-2.475 2.475-2.475 2.475zm17.325 372.488h17.325l1.237-1.237c3.713-4.95 3.713-9.9 3.713-14.85l14.85-45.788c0-2.475 0-2.475 1.237-2.475h4.95c2.475 0 4.95 2.475 4.95 4.95 6.188 19.8 9.9 37.125 17.325 55.688 0 2.475 0 3.712 2.475 3.712h13.613c3.712 0 3.712-1.237 3.712-3.712l-22.275-74.25c-2.475-2.476-2.475-4.95-4.95-4.95-9.9 2.474-21.037 2.474-30.937 0-2.475 0-4.95 2.474-4.95 4.95-7.425 19.8-12.375 42.074-19.8 66.825 0 2.475-2.475 7.425-2.475 11.137zm12.375 85.388c0 2.475 2.475 2.475 2.475 2.475h58.162c2.475 0 2.475 0 2.475-2.475v-14.85c0-2.475 0-2.475-2.475-2.475h-22.275l3.713-2.475c11.137-7.425 23.512-13.613 35.887-23.513 4.95 0 7.425-3.712 11.138-4.95v-4.95l-11.138-7.425c-2.475-2.475-4.95-2.475-8.662 0l-11.138 7.425c-17.325 11.138-35.887 24.75-55.687 35.888-2.475 0-2.475 2.475-2.475 6.187zm4.95-693.003c0 1.238 1.237 1.238 1.237 1.238h51.975c2.475 0 2.475 0 2.475-1.238v-14.85c0-3.712 0-3.712-2.475-3.712h-51.975c-1.237 0-1.237 0-1.237 3.712zm1.237 391.052s0 1.237 3.713 0h14.85c1.237 1.237 1.237 0 1.237 0V535.89c0-1.238 0-1.238-1.237-1.238h-14.85c-3.713 0-3.713 0-3.713 1.238zm6.188-73.013c0 2.475 2.475 7.425 4.95 7.425 0 2.475 2.475 4.95 4.95 8.662h84.15c2.475 0 2.475 0 2.475-3.712v-9.9c0-7.425 0-7.425-3.712-7.425h-69.3c-2.476 0-4.95 0-4.95-1.238v-40.837c0-2.475 2.474-2.475 4.95-2.475h9.9c2.474 0 2.474 0 2.474-3.713v-13.612c0-2.475 0-2.475-2.475-2.475h-23.512l-7.425 6.187c0 2.475-2.475 4.95-2.475 7.425zm25.987-121.276c0 2.475 3.713 2.475 3.713 2.475h16.087s2.475 0 2.475-2.475v-13.612c0-2.475-2.475-2.475-2.475-2.475h-16.087v2.475c-3.713 4.95-3.713 9.9-3.713 13.612zm6.188 258.639c0 3.712 1.237 3.712 1.237 3.712h14.85c2.475 0 2.475 0 2.475-3.712v-8.663c0-4.95 0-4.95 3.713-4.95h44.55v53.213c0 2.475 0 2.475 2.475 2.475h13.613s2.475 0 2.475-2.475v-60.638l-2.475-2.475-6.188-7.425-2.475-2.475h-63.113s-2.475 0-2.475 2.475l-7.425 7.425s-1.237 0-1.237 2.475zm6.187-404.664c0 2.475 0 2.475 2.475 2.475h16.088v-19.8h-16.088c-2.475 0-2.475 0-2.475 2.475zm22.275 340.314c0 1.237 0 1.237 2.475 1.237h56.926c3.712 0 3.712 0 3.712-3.712v-12.375c0-2.475 0-2.475-3.712-2.475h-56.926c-2.475 0-2.475 0-2.475 2.475zm7.425-306.902c0 4.95 0 4.95 4.95 4.95h89.1c2.476 0 2.476 0 2.476-2.475v-14.85c0-2.475 0-2.475-2.475-2.475h-91.576c-2.475 0-2.475 0-2.475 2.475zm21.038 128.701c0 2.475 0 2.475 3.713 2.475h11.137c4.95 0 4.95 0 4.95-4.95 6.188-19.8 11.138-39.6 17.325-58.163 0 0 0-2.475 2.475-2.475h6.188c2.475 0 2.475 2.475 2.475 2.475 2.475 4.95 2.475 8.663 4.95 11.138 2.475 17.325 7.425 32.175 12.375 47.025 0 2.475 2.475 4.95 4.95 4.95h11.137c2.475 0 2.475 0 2.475-2.475l-22.275-75.488c-1.237-4.95-1.237-4.95-6.187-4.95h-32.175l-1.238 2.475zm9.9 64.35h16.088c2.475 0 2.475 0 2.475-2.475v-14.85c0-2.475 0-2.475-2.475-2.475H688.1zm4.95 308.139 28.463 44.55c2.475 0 2.475 2.475 2.475 2.475v-2.475l32.175-42.075V714.09l-2.475 3.713-24.75 38.363-4.95 4.95c-11.138-17.326-22.275-30.938-30.938-49.5zm40.838-141.076c0 2.475 0 2.475 2.475 2.475h14.85c2.475 0 2.475 0 2.475-2.475V540.84c0-2.475 0-2.475-2.475-2.475h-14.85c-2.475 0-2.475 0-2.475 2.475zm19.8-169.538c0 2.475 2.475 2.475 4.95 2.475h81.675c2.475 0 2.475 0 2.475-2.475v-14.85c0-2.475 0-2.475-2.475-2.475H758.64c-2.475 0-4.95 0-4.95 2.475 2.475 4.95 0 11.138 0 14.85zm6.187 198.001c2.475 4.95 2.475 9.9 2.475 14.85 0 2.475 0 2.475 2.475 2.475h110.138s2.475 0 2.475-2.475v-17.325h-79.2v-1.237c18.563-9.9 34.65-22.276 54.45-32.176-7.425-4.95-12.375-8.662-17.325-12.375h-2.475l-70.538 44.55c0 1.238-2.475 1.238-2.475 3.713zm22.275 82.913c0 2.475 0 2.475 2.475 2.475h13.613c2.475 0 2.475 0 2.475-2.475v-14.85c0-2.475 0-2.475-2.475-2.475h-13.613c-2.475 0-2.475 0-2.475 2.475zm16.088-326.701c0 2.475 0 2.475 2.475 2.475h16.088c1.237 0 1.237 0 1.237-2.475v-13.613c0-2.475 0-2.475-1.237-2.475h-16.088c-2.475 0-2.475 0-2.475 2.475zm0-50.738c0 2.475 0 2.475 2.475 2.475h16.088c1.237 0 1.237 0 1.237-2.475v-60.638c0-1.237 0-1.237-1.237-1.237h-16.088c-2.475 0-2.475 0-2.475 1.237zm18.563 167.063c0 2.475 0 2.475 1.237 2.475h14.85c2.475 0 2.475-2.475 2.475-2.475v-11.138c0-3.712 0-3.712 3.713-3.712h39.6c2.475 0 4.95 3.712 4.95 4.95v79.2c0 2.475 0 2.475 2.475 2.475h11.137c2.475 0 2.475 0 2.475-2.475 0-8.662 3.713-18.562 3.713-28.462v-55.688c0-7.425-3.713-12.375-9.9-17.325 0 0-2.475-1.238-4.95-1.238h-53.213c-2.475 0-7.425 0-9.9 1.238-2.475 0-4.95 4.95-7.425 7.425-1.237 0-1.237 0-1.237 2.475zm30.937-186.863 24.75 38.362s0 2.475 2.475 2.475h13.613c2.475 0 2.475 0 2.475-2.475-4.95-13.612-13.613-25.987-18.563-38.362-3.712 0-3.712-1.238-3.712-1.238h-21.038z"/></svg>