<svg width="1000" height="1000" viewBox="0 0 1000 1000" fill="none" xmlns="http://www.w3.org/2000/svg">
<path fill-rule="evenodd" clip-rule="evenodd" d="M500 995C773.381 995 995 773.381 995 500C995 226.619 773.381 5 500 5C226.619 5 5 226.619 5 500C5 773.381 226.619 995 500 995ZM201 285.731L346.731 140H415.99C397.232 150.822 335.188 228.016 319.317 285.731H201ZM486.691 140V285.731H346.731C356.591 255.671 391.75 184.441 453.505 140H486.691ZM514.828 285.731H656.23C623.333 207.238 569.898 155.872 547.293 140H514.828V285.731ZM798.355 285.731H683.645C665.609 242.445 633 182.709 586.25 140H651.18L798.355 285.731ZM315.709 714.268H201L348.174 860H413.104C366.355 817.291 333.745 757.555 315.709 714.268ZM343.124 714.268H484.527V860H452.062C429.457 844.128 376.022 792.761 343.124 714.268ZM512.663 714.268V860H545.85C607.605 815.559 642.764 744.329 652.623 714.269L512.663 714.268ZM652.623 860L798.355 714.269H680.038C664.166 771.984 602.122 849.178 583.365 860H652.623ZM430.859 378.292C449.304 378.292 464.623 385.639 476.815 400.332L507.765 360.004C498.699 349.374 487.445 341.403 474.002 336.088C460.871 330.461 445.865 327.647 428.984 327.647C417.416 327.647 406.006 329.679 394.751 333.743C383.497 337.495 373.336 343.435 364.27 351.563C355.517 359.691 348.326 370.008 342.699 382.513C337.384 394.705 334.727 409.398 334.727 426.593C334.727 440.348 336.447 452.228 339.885 462.232C343.637 471.924 348.483 480.521 354.422 488.024C360.675 495.214 367.709 501.467 375.525 506.781C383.653 512.096 392.25 516.942 401.316 521.318C415.697 528.509 427.577 536.324 436.956 544.765C446.334 553.206 451.024 564.617 451.024 578.998C451.024 593.691 447.116 605.102 439.3 613.23C431.485 621.358 421.637 625.423 409.757 625.423C399.128 625.423 388.655 622.922 378.338 617.92C368.334 612.918 359.737 606.04 352.547 597.286L322.066 638.553C331.444 649.495 343.949 658.561 359.581 665.751C375.212 672.942 392.25 676.537 410.695 676.537C423.513 676.537 435.705 674.348 447.272 669.972C458.839 665.595 468.843 659.186 477.284 650.745C486.038 641.992 492.915 631.362 497.917 618.857C503.232 606.352 505.889 591.972 505.889 575.715C505.889 561.647 503.701 549.455 499.324 539.138C494.948 528.821 489.32 519.911 482.443 512.409C475.565 504.906 467.905 498.497 459.465 493.182C451.024 487.867 442.739 483.178 434.611 479.114C420.855 472.236 409.757 465.046 401.316 457.543C392.875 449.727 388.655 438.785 388.655 424.717C388.655 416.589 389.749 409.555 391.937 403.615C394.438 397.675 397.721 392.829 401.785 389.078C405.849 385.326 410.382 382.669 415.384 381.106C420.386 379.23 425.545 378.292 430.859 378.292ZM594.621 336.088V668.096H650.894V336.088H594.621Z" fill="black"/>
</svg>
