<?xml version="1.0" encoding="UTF-8"?><svg id="a" xmlns="http://www.w3.org/2000/svg" viewBox="0 0 1000 1000"><path d="M549.043,411.872c4.82,0,9.641,0,14.461,0,20.633,13.455-.092,24.069-2.793,36.064,7.41,3.421,21.323,.599,17.547,14.647-2.185,8.129-8.891,15.047-12.719,21.161,10.527,5.219,20.153,9.992,29.778,14.765v11.551c-11.492,6.736-22.416,14.867-34.631,19.827-12.972,5.267-16.739,11.523-11.819,25.08,5.954,16.409-4.177,29.43-20.062,26.36-6.948-1.343-13.115-6.716-19.909-10.407-8.304,7.629-18.941,18.391-30.298,8.454-7.748-6.78-9.603-20.275-13.365-29.069-8.201-.358-18.386,1.592-25.532-2.187-3.269-1.729-.556-14.737-.556-23.652-6.456-1.708-15.355-2.774-22.912-6.532-4.758-2.366-11.123-9.633-10.279-13.146,1.18-4.909,7.817-9.745,13.217-12.079,6.031-2.607,13.291-2.379,23.398-3.891-7.506-8.36-13.219-13.481-17.272-19.683-2.603-3.984-5.063-10.623-3.429-14.15,1.995-4.306,8.529-9.425,12.779-9.154,8.107,.516,16.323,3.893,23.836,7.462,4.749,2.256,8.309,7.009,13.885,11.959,1.225-11.283,1.274-20.44,3.564-29,1.076-4.024,6.348-9.52,9.924-9.677,5.31-.232,11.398,2.853,15.994,6.143,2.808,2.009,3.442,7.047,5.158,10.967,14.556-11.017,28.294-21.414,42.031-31.812ZM500,0C223.858,0,0,223.858,0,500s223.858,500,500,500,500-223.858,500-500S776.142,0,500,0Zm454.078,513.212v4.519l-.573,4.483c-.612,4.788-1.221,9.576-1.83,14.364-1.318,10.359-2.68,21.07-4.058,31.651-12.697,97.534-55.294,182.604-126.61,252.849-54.96,54.135-121.755,80.303-185.46,102.466-24.978,8.69-49.568,14.804-73.347,20.717-10.158,2.526-19.753,4.912-29.251,7.46l-9.04,2.426h-91.271l-8.525-2.144c-5.208-1.31-10.894-2.541-16.915-3.844-15.571-3.371-33.221-7.191-51.507-14.279-39.666-15.374-75.994-33.761-107.976-54.65-34.143-22.301-64.38-48.124-89.871-76.753-53.801-60.423-88.288-135.102-102.502-221.963-6.714-41.031-9.784-77.707-9.385-112.124,.487-41.961,6.014-80.599,16.897-118.122,20.703-71.379,62.609-123.99,100.872-166.04,29.114-31.996,62.941-56.999,103.415-76.438,31.997-15.367,68.584-27.259,111.852-36.356,26.032-5.473,52.192-10.287,77.49-14.943,8.021-1.476,16.215-2.984,24.385-4.51l9.131-6.131h112.394l8.599,2.183c41.884,10.634,96.304,27.694,145.775,65.547,50.21,38.419,87.185,74.677,116.363,114.106,17.537,23.698,32.168,48.732,43.487,74.406,12.255,27.795,21.059,57.295,26.169,87.679,2.709,16.112,5.076,32.185,7.364,47.729,1.018,6.917,2.071,14.07,3.126,21.024l.802,5.292v49.393Zm-240.457-343.242c-35.723-27.334-77.088-42.197-120.101-53.118h-81.896c-1.14,.765-2.193,1.992-3.432,2.229-38.196,7.291-76.545,13.838-114.592,21.837-67.24,14.136-128.896,37.834-177.36,91.096-37.409,41.112-69.505,83.932-85.197,138.034-19.128,65.95-16.571,132.163-5.633,199.001,24.87,151.975,117.71,245.054,255.94,298.631,19.154,7.424,40.01,10.421,60.078,15.468h73.121c32.604-8.749,65.865-15.596,97.669-26.661,57.423-19.977,114.301-41.997,158.966-85.991,59.23-58.341,95.238-128.551,106.027-211.432,1.989-15.279,3.913-30.568,5.866-45.852v-44.04c-3.419-22.544-6.528-45.141-10.309-67.624-17.153-102.002-81.029-171.805-159.148-231.579Zm126.221,442.92c-36.987,121.213-122.589,189.299-238.022,226.302-56.808,18.211-115.001,23.997-174.456,17.661-35.376-3.77-66.185-18.808-96.016-36.711-66.497-39.907-123.565-89.262-154.522-162.767-23.749-56.391-34.903-115.742-35.326-167.571,.035-104.48,29.427-187.213,101.465-251.603,32.224-28.803,67.24-53.848,110.433-63.134,57.482-12.358,114.893-25.755,172.967-34.439,68.396-10.227,128.754,14.013,182.365,55.194,128.318,98.568,178.432,261.991,131.112,417.067Z"/></svg>