<svg xmlns="http://www.w3.org/2000/svg" viewBox="0 0 1000 1000"><path d="M5 500.496c0 271.98 220.55 494.507 495.496 494.507 271.98 0 494.507-220.55 494.507-495.496C995.003 227.528 773.464 5 500.496 5 226.54 5 5 225.55 5 500.496zm271.979 390.66c0-5.933 12.857-61.318 16.813-73.186l17.802-90 18.792-79.122c5.934-22.747 10.879-46.483 15.824-69.23 1.978-12.858 4.945-25.715 7.912-38.572 5.934-25.715 11.868-51.429 16.813-78.132 2.967-19.78 8.901-40.55 13.846-60.33 3.957-13.846 6.924-27.693 9.89-41.539l13.847-62.308c.989 11.868 2.967 24.726 5.934 35.605.989 9.89 1.978 19.78 3.956 29.67.989 4.945.989 9.89 1.978 14.835 1.978 6.923 2.967 14.836 3.956 21.759.99 3.956.99 7.912 1.978 10.879 1.978 10.879 3.956 21.758 4.945 33.626 2.967 9.89 3.956 19.78 4.945 29.67 1.978 5.935 2.967 11.869 3.956 17.803l2.967 16.813 6.923 42.528c.99 9.89 1.978 19.78 3.956 29.67.99 3.956.99 7.912 1.979 10.88l2.967 14.835c0 3.956.989 8.9 1.978 12.857 1.978 13.846 3.956 26.703 6.923 40.55.989 3.956.989 7.912 1.978 12.857.989 6.923 1.978 14.835 3.956 22.747l4.945 33.626c.989 4.946 1.978 9.89 1.978 14.836 0 0-25.714 18.791-38.572 27.692-22.747 15.824-44.505 31.649-67.253 48.462-5.934 4.945-12.857 9.89-18.79 13.846-25.715 18.791-52.419 37.583-79.122 56.374zM412.474 295.77l12.857 28.682 143.407 323.407c24.726 55.385 25.715 56.374 41.539 95.935h-19.78c-9.89 0-19.78 0-29.671-.99h-29.67c-11.869 0-24.726 0-36.594-.988l-6.923-.99c0-.988-7.912-50.44-7.912-49.45-.99-3.956-.99-7.912-1.978-12.857-.99-6.923-1.978-14.835-3.956-21.759l-6.923-41.538c-1.978-13.846-3.956-28.682-6.923-41.539-.99-4.945-1.978-8.9-1.978-12.857-1.978-6.923-2.967-14.835-3.956-21.758l-6.924-43.517c-1.978-5.934-2.967-11.868-3.956-17.802l-2.967-16.813c-1.978-8.902-2.967-17.803-3.956-27.693-.989-3.956-.989-7.912-1.978-11.868l-6.923-42.528-6.923-39.56zm4.945-7.912c13.846.99 27.692 1.978 42.528 4.945 10.879 1.978 21.758 3.956 31.648 4.945l30.66 2.967 18.79 2.967c4.946.99 10.88 1.978 16.814 1.978l31.648 3.956c10.88 1.978 20.77 3.956 31.649 4.945-.99 0 37.582 4.946 38.571 4.946 6.924.989 12.858 1.978 18.792 3.956 0 10.879-5.934 41.538-6.923 54.395l-3.956 22.748c-.99 10.879-2.967 21.758-4.945 32.637-.99 12.857-2.968 23.737-4.946 34.616l-3.956 27.692-3.956 21.758c-.989 11.869-1.978 22.748-4.945 32.638l-2.967 30.66-3.956 23.736-3.956 29.67-5.934 35.605c-.989 11.868-2.967 24.725-4.945 36.593l-3.956 28.682c0 1.978-.99 2.967-.99 4.945-46.483-106.814-96.923-217.584-146.373-328.353zm.123-16.033c9.866-16.703 19.657-32.528 27.57-49.242l1.977-1.978 110.77-43.517c-53.209 34.814-136.682 90.495-140.341 94.748zm1.855 7.132c24.725-17.802 49.45-33.627 74.176-49.45l85.055-57.364h2.967c14.836 7.912 59.341 27.693 66.264 30.66L513.353 245.33c-32.637 10.88-62.308 22.748-93.956 33.627zm9.89 1.978 224.506-71.21 2.967 14.836c4.946 19.78 9.89 38.572 12.858 58.352l7.912 32.637-32.638-4.945-28.681-3.956c-4.945-.989-9.89-1.978-15.824-1.978l-15.825-2.967-26.703-3.956-27.692-2.967c-2.967 0-5.934-.989-8.902-.989-4.945-.989-9.89-1.978-14.835-1.978l-24.725-2.967c-4.945 0-18.791-2.967-52.418-7.912zm18.791-69.231 1.978-5.934c3.957-9.89 6.924-19.78 9.89-30.66 0-.989 24.726-2.967 31.649-2.967 10.88 0 63.297-1.978 66.264-1.978-11.868 4.945-32.637 11.869-52.418 19.78-18.791 7.913-37.582 14.836-57.363 21.759zm15.825-45.495 27.692-29.67.99-.99c.988-.988.988-.988 1.977-.988l67.253 28.681h-16.813c-1.978 0-24.726 1.978-32.638 1.978-.989 0-37.582.99-48.461.99zm36.593-36.593 46.484-21.759 43.516 47.473c2.968 5.934 7.913 10.88 12.858 15.824l5.934 5.934zm58.352-24.726h43.517c1.978 0 2.967 0 3.956.99 7.912 7.912 14.835 16.813 21.758 24.725.989 0 3.956 2.967 5.934 4.945-4.945-1.978-9.89-3.956-15.824-6.923zm3.956 8.902 30.66 11.868c10.879 4.945 30.659 12.857 36.593 15.824l-5.934 17.802c-3.956 12.857-3.956 13.846-6.923 17.802zm60.33 68.242 12.857-36.594c1.978 7.912 2.967 12.857 4.945 19.78l7.912 29.67zm8.901 525.166 54.396-375.825c14.835 18.791 33.626 44.505 34.615 43.516-3.956 17.803-8.9 34.616-13.846 52.418l-14.835 52.418-52.418 193.847c-2.967 12.857-3.956 21.758-7.912 33.626zm9.89-565.716 28.682 5.934 79.12 25.714-44.505 11.869c-20.77 5.934-39.56 10.879-47.473 11.868 0 .989-.989-4.945-.989-4.945l-2.967-9.89c-.989-2.968-6.923-21.759-11.868-40.55z"/></svg>