<svg xmlns="http://www.w3.org/2000/svg" width="1000" height="1000">
  <path d="M5 500.496c0 271.98 220.55 494.507 495.496 494.507 271.98 0 494.507-220.55 494.507-495.496C995.003 227.528 773.464 5 500.496 5 226.54 5 5 225.55 5 500.496zm122.638 32.638c10.879 2.967 19.78 4.945 29.67 5.934V536.1c-46.483-13.847-62.308-58.352-29.67-88.023 0 26.704 4.945 46.484 29.67 52.418 16.813 6.923 29.67 2.967 41.539-5.934-24.726 0-51.429 2.967-56.374-22.747-3.956-14.835 0-19.78 11.868-28.682 22.747 24.726 54.396 18.792 72.198-17.802 5.934-19.78 15.824-39.56 22.748-54.396 8.9-16.813 8.9-18.791 25.714-12.857 5.934 2.967 11.868 6.923 15.824 12.857-5.934 5.934-7.912 8.901-12.857 14.835-19.78 26.704-32.638 52.418-42.528 82.089-5.934 19.78-11.868 35.604-18.79 55.384-12.858 25.715-35.605 39.561-62.309 35.605-15.824-2.967-21.758-9.89-26.703-25.714zm37.582-100.88c3.956-6.923 8.901-8.901 11.868-10.879 9.89-6.923 13.847-4.945 19.78 1.978 9.89 8.901 11.869 17.802 3.957 21.758-13.846 6.923-41.539 3.956-35.605-12.857zm64.286-140.44c1.978-7.912 56.374 39.56 90.99 45.495 19.78 3.956 35.604-.99 49.45 3.956 23.737 4.945 59.341 15.824 75.165 15.824-16.813-17.802-42.527-19.78-104.835-29.67-25.715-4.945-49.45-15.825-67.253-35.605-7.912-9.89-14.835-19.78-7.912-25.714 7.912 3.956 9.89 5.934 12.857 9.89 26.703 28.681 58.352 38.571 94.945 41.538 31.649 6.924 85.056 28.682 103.847 36.594 21.758 8.901 22.747 13.846 22.747 25.714v13.847c0 6.923 0 8.9 9.89 8.9 5.934 0 12.857 0 19.78 2.968 16.814 3.956 26.704 3.956 35.605-8.901 10.88-19.78 22.747-22.748 42.528-19.78 5.934 0 14.835.988 19.78 0 14.835 0 19.78-21.759 19.78-42.528 2.967 1.978 2.967 1.978 5.934 1.978v40.55c-10.879 36.593-84.066-8.902-54.395 39.56 7.912 8.901 16.813 17.802 25.714 26.703-2.967 4.945-20.77 0-16.813 18.792-5.934-4.945-12.857-6.924-12.857-6.924-12.858 1.979-23.737 9.89-35.605 9.89-9.89-2.966-16.813 6.924-22.747 9.89-3.956-2.966-3.956-6.922-6.923-9.89-6.924 12.858-6.924 25.715-2.967 38.572 5.934 13.846 13.846 29.67 19.78 42.528 17.802 50.44-.99 97.912-39.56 75.165-19.781-12.857-32.638-33.627-38.572-55.385 0 0 0-2.967 2.967-2.967 0 0 22.747 29.67 28.681 35.605 9.89 6.923 19.78 9.89 29.67 3.956 6.924-6.923 8.902-16.814 6.924-25.715-3.956-10.879-6.923-17.802-9.89-27.692-10.88-22.747-19.78-41.539-26.704-64.286-2.967-9.89-9.89-9.89-16.813-9.89-8.901-2.967-18.791 0-24.725-17.802 0 0-3.957 0-7.913-1.979 0 6.924-1.978 9.89-1.978 12.858 5.935 12.857 19.78 16.813 34.616 12.857 6.923 13.846 13.846 30.66 10.88 45.495-6.924 9.89-16.814 12.857-29.671 9.89 3.956-5.934 3.956-9.89 6.923-15.825-6.923-6.923-16.814-5.934-20.77 0-1.978 2.967-8.9 9.89-14.835 12.858-9.89 5.934-23.736.989-33.626-9.89-5.934-5.935-19.78-11.869-12.857-28.682 1.978-6.923-1.978-10.88-9.89-9.89h-11.869c5.934-6.923 8.901-12.857 11.868-22.747-5.934-4.945-15.824-9.89-22.747-13.847 16.813-22.747 22.747-22.747 65.275-15.824-9.89-15.824-28.681-12.857-45.495-19.78 5.934-15.824 25.715-6.923 35.605-18.791-5.934-2.967-9.89-7.913-15.824-10.88-19.78-5.934-39.56-11.868-59.341-14.835-35.605-10.879-68.242-22.747-90.99-53.407-5.934-5.934-9.89-11.868-15.824-22.747zm25.715 270.99c-4.945-70.22 5.934-139.451 59.34-180 3.957-2.968 14.836 0 21.759 0 10.879 0 16.813 2.966 26.703 7.912-6.923 14.835-14.835 43.516-18.791 43.516-10.88 8.901-7.912 13.846 0 20.77 5.934 6.923 8.901 12.857 5.934 22.747-2.967 7.912 1.978 16.813 5.934 19.78 16.813 9.89 19.78 25.714 25.714 38.572 11.869 17.802 25.715 19.78 46.484 19.78 5.934 0 9.89-1.978 16.813-1.978 0 4.945 2.967 14.835 4.945 22.747 7.913 21.759 23.737 40.55 43.517 54.396 25.714 19.78 55.385 13.846 75.165-16.813 6.923-8.901 12.857-22.748 21.758-35.605 7.913-9.89 16.814-15.824 30.66-19.78v23.736c14.835-5.934 25.714-13.846 25.714-28.681s5.934-27.692 19.78-40.55c0 6.923.99 9.89 2.968 16.814 6.923 2.967 14.835-6.924 14.835-16.814v-22.747c0-7.912.989-12.857 6.923-18.791 7.912-6.923 10.88-.99 10.88 5.934 11.867-2.967 11.867-9.89 11.867-15.824v-38.572h3.956c3.956 0 5.934 1.978 5.934 4.945 10.88-4.945 13.847-15.824 6.923-25.714-2.967-11.868-2.967-25.715 3.957-39.56 2.967 4.944 5.934 4.944 8.9 4.944 3.957-16.813-5.933-36.593 3.957-56.374 5.934 12.858 15.824 22.748 19.78 33.627 5.934 14.835 18.791 28.681 35.605 34.615 8.9 5.934 15.824 16.814 29.67 25.715 0-14.835 1.978-31.649 25.714-34.616 0 5.934 0 11.868 2.967 14.835 10.88 4.946 19.78 4.946 31.649 7.913-2.967 6.923-5.934 11.868-8.901 18.79 13.846 6.924 22.747 12.858 25.714 30.66-11.868 0-28.681-4.945-42.528 1.978 19.78 19.78 25.715 29.67 19.78 42.528-9.89-2.967-19.78-6.923-25.714-15.824-2.967-6.923-11.868-9.89-19.78-16.814-6.923 12.858-8.901 19.78-11.868 29.67-17.802-6.922-19.78-16.812-14.835-41.538-2.967-4.945-4.945-4.945-11.868-8.9v17.801C815.003 595.442 714.123 718.08 575.66 738.85c-10.879 0-19.78 1.978-23.736 15.824-2.967 12.857-13.846 19.78-29.67 25.714 0-2.967-2.968-8.9-6.924-15.824-8.9 12.857-15.824 19.78-21.758 32.637-3.956-6.923-6.923-9.89-10.88-16.813-5.933 3.956-8.9 6.923-14.834 9.89 12.857 9.89 17.802 16.814 21.758 32.638 0 13.846 6.923 26.703-8.901 36.593 0-19.78-19.78-22.747-32.638-36.593-19.78 9.89-36.593 23.736-42.527 45.494-3.956 10.88-12.857 16.814-23.737 25.715-5.934-11.868-8.9-25.715-5.934-37.583 2.967-9.89 12.858-19.78 22.748-29.67-37.583-9.89-33.627-4.945-74.176 19.78-9.89-19.78-5.934-33.626 11.868-42.527 6.923-2.968 37.582-7.913 39.56-13.847-19.78-5.934-35.604-15.824-51.428-25.714 4.945-9.89 25.714-18.791 38.571-12.857 12.857 5.934 22.748 15.824 35.605 25.714 0-5.934 0-12.857-2.967-15.824-6.923-12.857-16.814-22.747-25.715-32.638 11.868-9.89 25.715-2.967 35.605 0 10.879 5.935 15.824 19.78 24.725 32.638 4.945-9.89 7.912-20.77 10.88-30.66 0-1.978 0-4.945-5.935-8.9-64.286-32.638-68.242-38.572-82.088-38.572 0 2.967 2.967 9.89 2.967 13.846-11.868 0-22.747-3.956-26.703-13.846-1.978-6.923-4.945-14.835-8.901-23.737-5.935-19.78-1.978-19.78-22.748-34.615v19.78c-24.725-19.78-16.813-53.407-29.67-76.154-9.89 7.912-12.857 0-12.857-5.934zm52.417-282.858c10.88-9.89 16.814-17.802 21.759-26.703-1.978-2.967-4.945-2.967-8.901-2.967 16.813-43.517 24.725.989 65.275-33.627-3.957 0-6.924-1.978-9.89-1.978 9.89-13.846 16.813-16.813 35.604-13.846 10.879 1.978 16.813 1.978 29.67 0-2.967-2.967-2.967-6.923-5.934-6.923 22.748-28.682 35.605 7.912 68.242 0-3.956-1.978-6.923-4.945-9.89-9.89 15.824-5.935 25.714-1.978 38.572 7.912 5.934 1.978 16.813 5.934 23.736 8.9 0-2.966 4.945-5.933-3.956-11.867 12.857-6.923 29.67 0 38.571 11.868 3.957 9.89 10.88 15.824 22.748 15.824-2.967-1.978-2.967-8.901-2.967-12.857 16.813-2.967 22.747 0 32.637 19.78 6.923 6.923 9.89 12.857 23.737 16.813-4.945-6.923-4.945-9.89-7.913-16.813 22.748 0 25.715 22.747 40.55 35.605v-15.825c14.835 0 39.56 39.561 35.605 65.275 0 0-19.78 85.056-20.77 85.056-.989 12.857-33.626 76.154-47.472 90.989v-6.923c2.967-22.748 2.967-45.495-4.945-68.242-3.957-7.912 7.912-50.44 7.912-75.165 0-9.89-7.913-16.814-16.814-16.814-9.89 0-19.78 4.946-22.747 13.847-2.967 4.945-2.967 13.846-2.967 19.78-55.385-32.637-89.011-47.473-146.374-23.736-6.923 3.956-9.89 3.956-16.813 0-25.715-15.825-56.374-18.792-85.056-22.748-36.593-4.945-48.461-16.813-71.209-24.725zm140.44 136.484c5.935 11.868 16.814 16.813 26.704 6.923 3.956-3.956 1.978-6.923 1.978-10.88-2.967 0-5.934-2.966-8.901-2.966-6.923 2.967-13.846 6.923-19.78 6.923zm88.023 74.176c24.725 6.923 24.725 6.923 28.681-12.857 3.956 2.967 10.88 2.967 16.813 6.923 1.978-3.956 5.934-6.923 8.901-12.857 7.913 8.9 22.748 12.857 22.748 28.681 0 2.967-5.934 10.88-9.89 12.857-1.978 3.956-8.901 3.956-15.825 6.923 0 2.967-3.956 9.89-5.934 15.825-9.89-9.89-20.769-15.825-32.637-9.89-2.967-8.902-6.923-22.748-12.857-35.605zm15.824-62.308c12.857 3.956 19.78 14.835 31.648 3.956-6.923-8.901-14.835-8.901-31.648-3.956z" style="fill:#000;fill-opacity:1;fill-rule:nonzero;stroke:none;"/>
</svg>
