<svg xmlns="http://www.w3.org/2000/svg" viewBox="0 0 1000 1000"><path d="M500.496 5C223.572 5 5 229.506 5 500.002c0 276.43 224.506 495.001 495.002 495.001 276.43 0 495.001-224.506 495.001-495.001C995.003 226.539 773.464 5 500.496 5zM151.374 426.32c-9.89-25.714-4.945-33.626 22.747-33.626h114.726c4.945 0 16.813-6.924 19.78-11.869 62.308-68.242 124.616-135.495 181.979-200.77 21.758-23.736 36.594-19.78 47.473 8.902 8.9 30.66 21.758 59.34 31.648 90 13.846 33.626 25.715 67.253 38.572 99.89.989 6.923 5.934 9.89 17.802 9.89h109.78c16.814 0 28.682 5.935 32.638 23.737 13.846 48.462 32.638 95.934 50.44 142.418 7.912 21.758 14.835 44.506 24.725 66.264 11.868 26.703 3.956 35.604-27.692 35.604h-54.396c-45.495 0-78.132 4.945-116.704 53.407-24.725 30.66-52.418 57.363-78.132 85.055-22.747 24.726-45.495 48.462-68.242 74.176-19.78 21.759-33.626 16.814-42.527-8.9-11.869-31.65-23.737-63.298-36.594-95.935-11.868-29.67-23.736-62.308-37.583-93.956-4.945-10.88-4.945-13.847-14.835-13.847-4.945 0-87.033 2.967-107.802 2.967-16.814 0-27.693-3.956-33.627-22.747-22.747-69.23-48.462-140.44-74.176-210.66zm43.517 4.945c11.868 34.616 24.725 66.264 36.593 99.89 10.88 27.693 20.77 53.407 30.66 80.11 3.956 12.858 54.396 9.89 114.725 4.946 10.88-1.978 21.759-13.846 61.32-56.374 9.89-10.88 19.78-22.747 29.67-33.626 7.912-6.924 4.945-9.89 4.945-11.869-5.934-17.802-11.868-34.615-17.802-51.428-4.946-8.902-7.913-18.792-10.88-25.715-1.978-2.967-4.945-5.934-5.934-5.934zm159.231-42.527h90c19.78 0 28.682 6.923 34.616 25.714 7.912 25.714 22.747 69.23 24.725 71.209 3.956-4.945 8.901-8.901 13.846-13.846 6.924-7.912 12.858-13.846 17.803-19.78 5.934-7.913 11.868-13.847 17.802-19.78 10.88-10.88 19.78-19.781 21.758-30.66 2.967-9.89-1.978-19.78-8.9-32.638-2.968-6.923-5.935-13.846-9.891-21.758-9.89-28.681-20.77-57.363-32.637-88.022-4.946-13.847-9.89-25.715-13.847-39.56-24.725 25.713-47.472 51.428-70.22 77.142-28.681 30.66-56.374 61.32-85.055 91.979zm62.308 253.187c2.967 19.78 10.88 39.56 19.78 60.33 4.945 13.846 10.88 27.692 15.824 41.539 8.902 25.714 29.67 79.12 29.67 82.088 51.43-56.374 101.87-109.78 155.276-169.122-31.648 0-59.34 2.967-85.055 2.967-16.813 0-31.649-8.9-36.594-23.736-4.945-13.846-22.747-68.242-25.714-76.154-24.725 28.681-48.462 56.374-73.187 79.121zm107.803-118.682c-5.935 8.902 8.9 48.462 28.68 95.935h2.968c84.066 0 169.121 0 254.177 2.967-77.143-187.913-76.154-190.88-87.034-190.88H615.222c-2.967 0-8.901 3.956-11.868 6.923-.99 1.978-73.187 79.121-79.121 85.055z"/></svg>