<svg xmlns="http://www.w3.org/2000/svg" viewBox="0 0 1000 1000"><path d="M299.4,579.766A790.319,790.319,0,0,0,280.516,673.7q-97.766-3.066-139.11-3.063-40.839,0-137.321,3.063Q0,673.7,0,666.552q0-6.384,4.085-6.894,30.882-3.577,41.987-11.5t11.1-31.674V376.11q0-17.876-4.469-25.158t-15.7-11.5q-11.235-4.209-32.927-6.768Q0,332.687,0,325.668t4.085-7.02q17.1,0,40.839,1.535,22.713,1.529,38.286,1.528t38.034-1.528q23.477-1.537,40.581-1.535,4.083,0,4.085,7.02t-4.085,7.019q-21.439,2.562-32.669,6.773t-15.57,11.366q-4.342,7.156-4.34,25.29V624.154q0,30.149,29.609,30.145h50.538q31.393,0,53.092-16.718t42.88-62.406q1.02-2.042,4.849-2.045a10.768,10.768,0,0,1,6.255,2.045C298.424,576.535,299.4,578.07,299.4,579.766ZM523.728,479.451q33.215,33.952,33.218,85.509,0,50.8-33.089,83.6T438.13,681.352q-52.641,0-85.854-32.927t-33.22-83.465q0-51.3,33.475-85.377t85.6-34.077Q490.51,445.506,523.728,479.451Zm-18.342,85q0-46.712-18-74.659T438,461.84q-31.141,0-49.261,28.078t-18.124,74.533q0,46.2,17.869,73.382T438,665.017q31.65,0,49.519-26.926T505.386,564.451Zm291.965-85q33.215,33.952,33.217,85.509,0,50.8-33.089,83.6t-85.727,32.795q-52.641,0-85.854-32.927t-33.22-83.465q0-51.3,33.475-85.377t85.6-34.077Q764.132,445.506,797.351,479.451Zm-18.343,85q0-46.712-18-74.659t-49.39-27.952q-31.142,0-49.261,28.078t-18.124,74.533q0,46.2,17.869,73.382t49.516,27.184q31.65,0,49.519-26.926T779.008,564.451Zm214.356-80.144q6.636,0,6.636-13.787t-6.636-13.781H918.322l2.044-48.752q0-4.082-7.125-4.088c-2.886,0-5.26,1.373-7.127,4.1q-26.21,38.2-61.573,59.206a8.083,8.083,0,0,0-4.58,7.517q0,6.528,5.617,6.522h19.4q6.127,0,6.126,7.145l-1.022,124.046v2.3q0,29.1,17.324,46.833t46.357,17.744q23.692,0,42.667-10.85t18.981-17.228a10.712,10.712,0,0,0-1.66-5.742q-1.664-2.681-3.7-2.68a76.1,76.1,0,0,1-38.543,9.951q-34.2,0-34.2-47.985V482.263Z"/></svg>