<svg xmlns="http://www.w3.org/2000/svg" viewBox="0 0 1000 1000"><path d="M349.849 137h6.6c41.8 51.7 84.7 102.3 126.5 154 3.3 0 3.3 8.8 3.3 12.1-8.8 34.099-16.5 72.599-24.2 109.999-30.8-22-63.8-42.9-94.6-63.8-4.4-3.3-4.4-7.7-4.4-12.1-3.3-63.8-6.6-130.9-13.2-200.2zM6.65 375.699c38.5-8.8 77-17.6 110-20.9 4.4-5.5 13.2 0 16.5 3.3 47.3 42.9 99 90.2 149.6 135.3-35.2-3.3-68.2-7.7-99-7.7-27.5-3.3-57.2-9.9-92.4-9.9-13.2 0-20.9-3.3-28.6-20.9-17.6-24.2-38.5-49.5-56.1-79.2zm56.1 381.699c20.9-34.1 42.9-63.8 63.8-93.5 3.3-4.4 6.6-4.4 15.4-4.4 63.8-3.3 126.5-7.7 196.899-11-4.4 3.3-9.9 7.7-9.9 11-46.2 39.6-93.5 77-138.6 115.5-6.6 3.3-13.2 8.8-17.6 8.8-39.6-8.8-73.7-17.6-110-26.4zm12.1-271.7c72.6 4.4 139.7 13.2 203.5 17.6 4.4 0 4.4 3.3 4.4 3.3-50.6 47.3-105.6 90.2-156.2 135.3zm58.3 162.8c57.2-48.4 107.8-91.3 158.4-133.1 0 0 4.4-4.4 7.7 0 35.199 4.4 72.599 12.1 111.099 20.9-20.9 35.2-42.9 63.8-63.8 94.6-4.4 4.4-7.7 7.7-12.1 7.7-66 3.3-128.7 3.3-187 9.9zm0-311.299c26.4-51.7 50.6-97.9 78.1-148.5 46.2 53.9 88 105.6 135.299 166.1-71.5-8.8-140.8-13.2-213.4-17.6zm8.8 12.1v-3.3c48.4 3.3 90.2 12.1 136.4 12.1 56.099-3.3 89.099 22 111.099 72.6 3.3 8.8 12.1 20.9 20.9 34.1-38.5 7.7-75.9 11-111.1 20.9-3.3 0-13.2 0-13.2-3.3-50.6-42.9-95.7-84.7-144.1-133.1zm48.4 437.799c50.6-42.9 105.6-88 159.499-135.3-3.3 71.5-11 139.7-15.4 216.7-51.7-29.7-99-50.6-144.1-81.4zm28.6-619.298c4.4-34.1 13.2-69.3 22-106.7 34.1 22 63.8 42.9 93.499 63.8 4.4 4.4 4.4 12.1 4.4 15.4 3.3 66 7.7 133.1 11 201.299-7.7-7.7-11-14.3-15.4-20.9-35.2-44-72.6-85.8-107.8-128.7-3.3-3.3-7.7-16.5-7.7-24.2zm127.599 691.897c3.3-68.2 9.9-133.1 16.5-200.199 0 0 0-7.7 4.4-7.7 30.8-20.9 63.8-42.9 97.9-63.8 4.4 42.9 12.1 75.9 17.6 114.4 3.3 3.3 0 8.8-5.5 13.2-42.9 46.2-84.7 96.8-127.6 144.1zm3.3 22c0-5.5 6.6-13.2 9.9-13.2 38.5-50.6 81.4-97.9 123.2-145.2 3.3 0 3.3 0 8.8-3.3-5.5 67.1-8.8 130.9-17.6 194.7 0 4.4-4.4 13.2-8.8 17.6-30.8 20.9-58.3 38.5-93.5 62.7-8.8-41.8-15.4-80.3-22-113.3zm6.6-756.797c53.9-17.6 105.6-34.1 159.5-48.4-7.7 70.4-11 137.5-20.9 214.5-46.2-59.4-93.5-111.1-138.6-166.1zm126.5 798.597c8.8-68.2 12.1-136.4 22-212.3 45.1 59.4 88 111.1 135.299 165-50.6 16.5-103.4 34.1-157.3 47.3zm25.3-646.798c4.4-37.4 4.4-75.9 7.7-114.4 3.3-25.3 3.3-49.5 9.9-75.9 0-3.3 0-13.2 3.3-16.5 34.1-20.9 63.8-44 97.9-64.899 7.7 38.5 13.199 78.1 16.499 111.1 4.4 3.3 0 13.2-3.3 17.6-42.9 51.7-84.7 97.9-127.6 143zm7.7 413.599c3.3-34.1 13.2-69.3 20.9-102.3l94.6 63.8c0 4.4 3.3 7.7 3.3 17.6 5.499 63.8 8.799 127.6 13.199 190.3h-7.7c-13.2-12.1-26.4-29.7-39.6-47.3-28.6-34.1-53.9-62.7-81.4-96.8-3.3-4.4-6.6-16.5-3.3-25.3zm0-383.899c0-6.6 0-15.4 3.3-20.9 44-46.2 86.9-96.8 128.699-145.2h4.4c-4.4 60.5-8.8 115.5-12.1 172.7 0 28.6-13.2 45.1-39.6 57.2-20.9 14.3-41.8 27.5-67.1 42.9-4.4-37.4-14.3-71.5-17.6-106.7zm68.2 158.4c26.4-34.1 42.9-63.8 63.799-94.6 4.4-3.3 9.9-6.6 13.2-6.6 67.1-5.5 136.4-5.5 207.9-8.8-28.6 20.9-55 42.9-75.9 58.3-23.1 17.6-39.6 29.7-56.1 51.7-20.9 20.9-46.2 25.3-72.6 17.6-24.2-9.9-50.6-13.2-80.3-17.6zm5.5 71.5c33-8.8 62.699-12.1 95.699-16.5 9.9-4.4 22-4.4 26.4 0 51.7 41.8 97.9 89.1 152.9 136.399-46.2-4.4-84.7-4.4-122.1-7.7-26.4-6.6-51.7-6.6-78.1-9.9-3.3 0-12.1-3.3-16.5-7.7-20.9-30.8-37.4-59.4-58.3-94.6zm58.299 136.399v-13.2c16.5 17.6 26.4 34.1 37.4 46.2 30.8 35.2 57.2 64.9 81.4 99 13.2 7.7 17.6 20.9 13.2 38.5-9.9 28.6-13.2 59.4-20.9 96.8-34.1-25.3-63.8-47.3-94.6-68.2-3.3 0-6.6-6.6-6.6-12.1-5.5-62.7-5.5-123.2-9.9-187zm0-323.399c4.4-75.9 9.9-143 16.5-215.6 51.7 24.2 99 51.7 145.2 80.3-56.1 41.8-106.7 85.8-161.7 135.3zm4.4 299.2c72.6 7.699 140.8 10.999 212.3 20.899-24.2 46.2-50.6 92.4-75.9 143zm5.5-293.7c24.2-20.9 45.1-38.5 67.1-55 12.1-14.3 34.1-26.4 45.1-44 30.8-37.4 70.4-41.8 112.2-24.2 16.5 3.3 33 7.7 53.9 11l-62.7 91.3c-4.4 3.3-8.8 7.7-12.1 7.7-68.2 4.4-133.1 7.7-203.5 13.2zm53.9 144.1c55-47.3 106.7-93.5 161.7-140.8 17.6 55 35.2 106.7 51.7 157.3-73.7-4.4-140.8-12.1-213.4-16.5zm4.4 7.7c29.7 4.4 50.6 4.4 72.6 8.8 41.8 0 80.3 4.4 123.2 8.8 7.7 3.3 17.6 8.8 20.9 16.5 20.9 26.4 38.5 56.1 60.499 84.7-39.6 9.9-73.7 16.5-107.8 23.1-7.7 0-16.5-6.6-20.9-9.9-50.6-38.5-97.9-84.7-148.5-132z"
    style="fill:#000;fill-opacity:1;fill-rule:nonzero;stroke:n"/></svg>