<svg xmlns="http://www.w3.org/2000/svg" viewBox="0 0 1000 1000"><path d="M928.73,747.13l2.12-2.85A493.17,493.17,0,0,1,850.71,850c-92.2,92.7-214.78,143.74-345.16,143.74-140.24,0-268.14-47.25-360.15-133.06C55.76,777.06,6.36,663.53,6.28,541L7.17,537A493.41,493.41,0,0,1,84.52,362.82c92.64-132.26,242.81-211,402.11-211h2c11,0,21,.35,30.26.87a452.77,452.77,0,0,1,66.79,8.7l.07,0c3.28.84,6.53,1.74,9.76,2.67l1.74.51q4.66,1.38,9.25,2.89l1.85.62q4.68,1.58,9.28,3.28l.83.32q4.44,1.67,8.79,3.46l1.4.57q4.46,1.86,8.81,3.84l1.77.81c2.92,1.35,5.81,2.72,8.67,4.15.39.2.78.41,1.18.6q4.17,2.11,8.26,4.33l.9.48q4.24,2.33,8.39,4.78l1.59.94q4.08,2.43,8.08,5l1.3.85q4.06,2.63,8,5.36a1.88,1.88,0,0,0,.23.16c2.69,1.86,5.33,3.78,8,5.72l1.33,1q3.8,2.85,7.49,5.8l1.29,1q3.81,3.06,7.51,6.23l.26.23c2.44,2.1,4.83,4.24,7.2,6.41l1,.93q3.5,3.23,6.87,6.56l1.21,1.2c2.27,2.26,4.52,4.54,6.72,6.87l.63.67c2.14,2.29,4.26,4.6,6.33,6.95.23.25.46.5.68.76,2.11,2.4,4.17,4.83,6.21,7.29l1.08,1.32q3,3.68,5.91,7.45l.79,1q2.89,3.79,5.68,7.69l.27.38c1.88,2.63,3.71,5.31,5.51,8l.91,1.37q2.6,3.94,5.08,8l.83,1.36q2.55,4.19,5,8.46l0,0c1.61,2.84,3.17,5.72,4.69,8.61l.73,1.38q2.17,4.19,4.23,8.45c.26.53.51,1.07.76,1.6,1.38,2.9,2.73,5.82,4,8.76.11.27.22.53.34.79q1.85,4.27,3.58,8.61l.51,1.26q1.74,4.41,3.35,8.9c.22.59.43,1.19.64,1.79q1.59,4.49,3,9l.42,1.36q1.39,4.41,2.65,8.87c.09.33.19.65.28,1,.87,3.1,1.67,6.21,2.44,9.34.16.63.32,1.27.47,1.9q1.11,4.62,2.08,9.27c0,.2.07.39.11.59a335.64,335.64,0,0,0-78-113c-65.82-63-152.81-97.73-244.93-97.73-141.61,0-268.74,88-319.6,220-.31.51-.6,1-.91,1.53s-.79,1.31-1.17,2-.72,1.27-1.08,1.9-.75,1.31-1.11,2l-1,1.9c-.35.66-.71,1.31-1,2s-.64,1.28-1,1.92-.66,1.3-1,2-.61,1.28-.91,1.92l-.92,1.94c-.29.65-.58,1.3-.86,1.95s-.58,1.28-.85,1.92l-.82,2c-.26.64-.53,1.27-.79,1.9l-.77,2c-.24.63-.49,1.26-.73,1.88s-.48,1.32-.72,2-.46,1.25-.68,1.87l-.68,2c-.21.61-.42,1.22-.62,1.84s-.42,1.33-.63,2l-.58,1.84c-.2.66-.39,1.32-.58,2s-.36,1.22-.53,1.83-.37,1.33-.55,2l-.48,1.78c-.17.67-.33,1.34-.5,2s-.3,1.19-.44,1.78-.31,1.32-.46,2l-.4,1.76c-.15.67-.29,1.34-.43,2l-.36,1.73c-.13.67-.26,1.33-.38,2l-.33,1.7c-.12.67-.23,1.33-.34,2s-.21,1.13-.3,1.69-.21,1.34-.31,2-.18,1.09-.26,1.63-.19,1.35-.28,2-.16,1.07-.23,1.6l-.24,2-.21,1.63-.21,1.94-.18,1.6c-.06.67-.13,1.33-.19,2-.05.5-.1,1-.14,1.51-.06.68-.12,1.35-.17,2L144,500.2c-.05.68-.1,1.36-.14,2.05,0,.45-.07.92-.1,1.37,0,.69-.08,1.36-.12,2,0,.45,0,.9-.08,1.34l-.09,2c0,.44-.05.89-.06,1.33,0,.63-.05,1.26-.07,1.88l-.06,1.41c0,.67,0,1.33-.05,2l0,1.24c0,.84,0,1.68,0,2.51,0,.22,0,.45,0,.67l0,2.39c0,.25,0,.5,0,.74,0,1,0,2.06,0,3.07,0,109.28,44.7,212.64,125.84,291a429,429,0,0,0,134,88,417.51,417.51,0,0,0,161,32.3c47.33,0,93.35-7.89,140.68-24.12l.31-.11A489.37,489.37,0,0,0,928.73,747.13ZM854.6,139.34C762.59,53.53,634.69,6.28,494.45,6.28c-130.38,0-253,51-345.16,143.74A488.78,488.78,0,0,0,10.87,429.34c.07-.17.15-.33.23-.49.92-2,1.89-4.06,2.84-6.08.76-1.6,1.5-3.22,2.27-4.81,1-2.07,2-4.12,3.07-6.17.77-1.54,1.52-3.08,2.3-4.61,1.07-2.09,2.19-4.16,3.29-6.23.78-1.48,1.54-3,2.34-4.43,1.15-2.13,2.34-4.23,3.52-6.33.79-1.41,1.55-2.82,2.35-4.22,1.24-2.17,2.53-4.31,3.8-6.47.78-1.32,1.54-2.64,2.33-4,1.37-2.26,2.77-4.5,4.17-6.74.74-1.19,1.46-2.38,2.21-3.56,1.56-2.47,3.17-4.91,4.78-7.35.62-.94,1.22-1.9,1.85-2.83Q55.6,350,59.09,345c98.44-140.54,258.13-224.27,427.53-224.27h2.11c46.95.15,78.64,5.27,103.44,10.25l.75.18a340.88,340.88,0,0,1,126.69,62.12,346.31,346.31,0,0,1,112.5,386.42C783.87,717.16,654,809.52,508.92,809.52c-92.12,0-179.11-34.71-244.93-97.73-40-38.32-69.28-84.43-86.27-134.93l-.05-.14c.16,1.17.35,2.34.53,3.51.14,1,.29,2,.44,2.95q.53,3.36,1.13,6.7c.11.6.2,1.21.31,1.82q.76,4.21,1.64,8.4c.16.79.34,1.58.51,2.38.43,2,.87,4,1.34,6,.24,1,.49,2.07.74,3.1.42,1.78.86,3.55,1.32,5.33.27,1.07.55,2.13.84,3.2.47,1.79,1,3.58,1.48,5.36.28,1,.55,2,.84,3q.94,3.22,2,6.43c.18.59.36,1.19.55,1.79.86,2.69,1.75,5.38,2.67,8.05.29.84.59,1.67.89,2.51q1,2.81,2,5.59c.38,1,.77,2,1.16,3.07q1,2.52,1.95,5l1.26,3.13c.7,1.71,1.42,3.41,2.14,5.12.41,1,.8,1.9,1.22,2.84.92,2.13,1.87,4.24,2.83,6.34.24.51.46,1,.69,1.52,1.2,2.57,2.43,5.14,3.68,7.68.41.83.83,1.65,1.24,2.47.88,1.76,1.77,3.52,2.68,5.26.51,1,1,2,1.55,2.92q1.28,2.4,2.6,4.8c.54,1,1.08,2,1.63,2.94.93,1.64,1.88,3.29,2.83,4.92l1.53,2.62c1.27,2.13,2.56,4.24,3.86,6.35.23.36.44.72.66,1.08,1.53,2.44,3.1,4.87,4.68,7.28l1.54,2.3c1.12,1.66,2.24,3.32,3.38,5l1.88,2.68q1.62,2.3,3.28,4.58c.64.9,1.29,1.79,2,2.68,1.17,1.58,2.37,3.16,3.57,4.74l1.76,2.31c1.69,2.17,3.39,4.33,5.13,6.47l.36.46c1.86,2.29,3.75,4.55,5.67,6.81l1.81,2.1q2,2.34,4.07,4.65c.72.82,1.46,1.63,2.19,2.43q2,2.16,3.94,4.3l2.25,2.4c1.42,1.5,2.85,3,4.29,4.46.67.68,1.33,1.37,2,2q2.53,2.56,5.13,5.09l1.29,1.27A397.94,397.94,0,0,0,414.83,876.6a386.62,386.62,0,0,0,149.1,29.92c43.8,0,86.48-7.33,130.47-22.4A458.24,458.24,0,0,0,893.82,741.43q2.53-3.13,5-6.31t5.06-6.62a447.26,447.26,0,0,0,89.35-248.63c.32-7.08.48-14,.48-20.56C993.72,336.64,944.32,223,854.6,139.34Z"/></svg>