<svg xmlns="http://www.w3.org/2000/svg" viewBox="0 0 1000 1000"><path d="M711.2,357.811a131.079,131.079,0,0,1-83.336,29.769c-72.824.006-131.864-59.224-131.907-132.32q3.666-.1,7.359-.1C588,255.147,663.2,295.376,711.2,357.811ZM1000,500c0,276.142-223.858,500-500,500S0,776.142,0,500,223.858,0,500,0,1000,223.858,1000,500ZM711.256,357.541A132.368,132.368,0,0,0,759.7,255c0-73.143-59.064-132.434-131.922-132.434-72.791,0-131.808,59.175-131.924,132.218-141.8,3.924-255.544,120.55-255.544,263.84,0,145.776,117.714,263.942,262.925,263.942,123.647,0,227.073-85.787,255.155-201.22H620.525A132.562,132.562,0,0,1,503.23,652.338c-73.275,0-132.678-59.635-132.678-133.2s59.4-133.2,132.678-133.2a132.559,132.559,0,0,1,117.295,70.994H758.647A263.994,263.994,0,0,0,711.256,357.541Z"/></svg>