<svg xmlns="http://www.w3.org/2000/svg" viewBox="0 0 32 32">
	<path
		d="M9.2.1L2.8 6.5H8c.7-2.6 3.5-6 4.3-6.5H9.2zm6.3 6.4V.1H14c-2.7 2-4.3 5.1-4.7 6.5h6.2zm1.2 0H23C21.5 3 19.2.7 18.2 0h-1.4v6.5zm7.5 0h5.1L22.8 0h-2.9c2 2 3.5 4.6 4.3 6.5zM22.8 32l6.5-6.5H24c-.7 2.6-3.5 6-4.3 6.5h3.1zm-6.2-6.5V32h1.5c2.7-2 4.3-5.1 4.7-6.5h-6.2zm-1.2 0H9.1c1.5 3.5 3.8 5.8 4.8 6.5h1.4v-6.5zm-7.5 0H2.8L9.3 32h2.9c-2.1-1.9-3.5-4.5-4.3-6.5zM2.5 22h2l.7-2.5h3.2l.7 2.5h2L7.9 10.2H5.6L2.5 22zm3.1-4.2l.4-1.2c.4-1.6.7-2.8.8-3.8.1 1 .4 2.2.8 3.8l.3 1.2H5.6zM16 22.1c.5 0 .9-.1 1.4-.2.5-.1.9-.3 1.2-.6.4-.3.7-.7.8-1.1.2-.4.3-.9.3-1.4 0-.4-.1-.8-.2-1.2-.1-.4-.4-.7-.7-1-.3-.3-.6-.5-1-.7.3-.2.6-.4.8-.7.3-.3.4-.6.6-.9.1-.4.2-.7.2-1.1 0-.4-.1-.9-.3-1.3-.2-.4-.4-.8-.8-1.1-.3-.3-.7-.5-1.2-.6-.4-.1-.9-.2-1.3-.2s-.9.1-1.3.2-.8.3-1.2.6c-.3.3-.6.6-.8 1-.2.4-.3.8-.3 1.3h2c0-.2.1-.5.2-.7.1-.2.3-.4.6-.4.2-.1.5-.1.7-.1.2 0 .4 0 .6.1.2.1.4.1.5.3.1.1.3.3.3.5.1.2.1.4.1.6 0 .3-.1.5-.2.8-.1.3-.3.5-.5.6.1.1-.2.2-.5.2s-.6.1-.8.1v1.8c.3 0 .6 0 .9.1.3 0 .6.1.8.3.3.2.5.4.6.7.2.3.2.6.2.9 0 .2 0 .4-.1.6-.1.2-.2.4-.4.5l-.6.3c-.2.1-.4.1-.7.1-.3 0-.5 0-.8-.1-.3-.1-.5-.2-.7-.5-.2-.2-.3-.5-.3-.8h-2c0 .5.1.9.3 1.3.2.4.5.8.8 1.1.4.3.8.5 1.2.6.7.1 1.2.1 1.6.1zm9.2 0c.4 0 .9 0 1.3-.1s.8-.3 1.2-.5c.4-.3.7-.6.8-1 .2-.4.3-.8.3-1.3 0-1.2-.7-2.3-2-3.1 1.1-.8 1.7-1.8 1.7-2.9 0-.4-.1-.8-.3-1.2-.2-.4-.4-.7-.7-1-.3-.3-.7-.5-1.1-.6-.4-.1-.8-.2-1.3-.2-.4 0-.8.1-1.3.2-.4.1-.8.3-1.1.6-.3.3-.6.6-.8 1-.2.4-.2.8-.2 1.2 0 1.1.6 2.1 1.7 2.9-1.3.9-2 1.9-2 3.1 0 .4.1.9.3 1.3s.5.8.8 1c.4.3.8.4 1.2.5.6.1 1.1.1 1.5.1zm0-1.7h-.6c-.2 0-.4-.1-.5-.2-.2-.1-.3-.2-.4-.4-.1-.2-.1-.4-.1-.6 0-.7.6-1.4 1.7-2.1 1.1.7 1.7 1.4 1.7 2.1 0 .2-.1.4-.2.6-.1.2-.2.3-.4.4-.2.1-.4.2-.6.2-.2-.1-.4 0-.6 0zm0-5.4c-.9-.6-1.4-1.2-1.4-1.9 0-.2.1-.4.2-.6.1-.2.3-.4.5-.4.2-.1.5-.1.7-.1.2 0 .5 0 .7.1.2.1.4.2.5.4.1.2.2.4.2.6 0 .7-.4 1.4-1.4 1.9z" />
</svg>