<svg xmlns="http://www.w3.org/2000/svg" viewBox="0 0 1000 1000"><path d="M500.496 995.003h-.989c-89.011 0-172.088-22.45-249.231-67.253-74.473-44.209-133.814-103.55-178.023-178.022C27.451 672.585 5 589.31 5 500.002c0-89.308 22.45-172.583 67.253-249.726 44.209-74.473 103.55-133.814 178.023-178.023C327.419 27.45 410.694 5 500.002 5c89.308 0 172.583 22.45 249.726 67.253C824.2 116.462 883.54 175.803 927.75 250.276c44.803 77.143 67.253 160.418 67.253 249.726 0 89.308-22.45 172.583-67.253 249.726C883.541 824.2 824.2 883.54 749.728 927.75c-77.143 44.803-160.22 67.253-249.232 67.253zM99.946 595.442c0 9.89 4.944 19.78 18.79 19.78h79.122c12.857 0 15.824-4.945 15.824-13.846.989-24.726 13.846-29.67 36.594-29.67 56.373 0 95.934-45.495 95.934-103.847 0-52.418-44.506-92.968-97.912-92.968H118.737c-10.88 0-18.792 4.945-18.792 18.792zm273.956-97.913c0 69.231 58.352 129.561 131.54 129.561 70.22 0 131.538-60.33 131.538-129.56 0-75.166-61.319-133.518-131.539-133.518-73.187 0-131.539 58.352-131.539 133.517zm242.309 117.693H887.2c33.626 0 34.615 5.934 12.857-28.682-51.429-83.077-109.78-177.033-132.528-217.583-48.462 80.11-151.32 246.265-151.32 246.265z"/></svg>