<svg xmlns="http://www.w3.org/2000/svg" width="1000" height="1000">
  <path d="M5 500.496C5 225.55 226.54 5 500.496 5c272.968 0 494.507 222.528 494.507 494.507 0 274.946-222.528 495.496-494.507 495.496C225.55 995.003 5 772.475 5 500.496zm320.44 90 106.814 200.77c39.56 73.187 124.616 100.88 201.76 64.286 69.23-34.615 96.922-127.583 62.307-193.847l-30.66-71.209c63.297-32.637 89.012-122.637 51.43-190.88l-112.749-198.79c-32.638-75.165-121.65-97.913-199.781-66.264-85.055 48.462-97.913 135.495-32.638 265.056-67.253 41.538-85.055 125.604-46.483 190.88zm46.484-190.88 16.814-9.89c67.253-40.55 163.187-7.912 200.77 60.33l76.154 140.44-20.77 8.902c-65.275 35.604-156.264 7.912-188.901-60.33z" style="fill:#000;fill-opacity:1;fill-rule:nonzero;stroke:none;"/>
</svg>
