<?xml version="1.0" encoding="UTF-8"?><svg id="a" xmlns="http://www.w3.org/2000/svg" viewBox="0 0 1000 1000"><path d="M653.163,790.788c8.879,11.099,8.879,28.857,0,42.175l-126.526,155.383c-13.318,15.538-37.736,15.538-51.054,0l-126.526-155.383c-8.879-13.318-8.879-31.077,0-42.175l126.526-155.383c13.319-15.538,37.736-15.538,51.054,0l126.526,155.383Zm-177.58-426.193c13.318,15.538,37.736,15.538,51.054,0l126.526-155.383c8.879-11.099,8.879-28.857,0-42.175L526.637,11.654c-13.318-15.538-37.736-15.538-51.054,0l-126.526,155.383c-8.879,11.099-8.879,28.857,0,42.175l126.526,155.383Zm-17.758,46.615l-126.526-155.383c-13.318-15.538-37.736-15.538-51.054,0l-126.526,155.383c-8.879,11.099-8.879,28.857,0,42.175l126.526,155.383c13.319,15.538,37.736,15.538,51.054,0l126.526-155.383c8.879-11.099,8.879-28.857,0-42.175Zm388.457,0l-126.526-155.383c-13.319-15.538-37.736-15.538-51.054,0l-126.526,155.383c-8.879,11.099-8.879,28.857,0,42.175l126.526,155.383c13.318,15.538,37.736,15.538,51.054,0l126.526-155.383c8.879-11.099,8.879-28.857,0-42.175Z"/></svg>