<svg xmlns="http://www.w3.org/2000/svg" viewBox="0 0 1000 1000"><path d="M401,474.9H365.6V409.1H401a31.57,31.57,0,0,1,12.1,2.5,23.169,23.169,0,0,1,9.5,7.4,27.117,27.117,0,0,1,5.1,11,53.854,53.854,0,0,1,0,24.4,31.48,31.48,0,0,1-5.1,11,20.93,20.93,0,0,1-9.5,7.4A29.163,29.163,0,0,1,401,474.9Zm227.7-59.2a30.542,30.542,0,0,0-12.6-7.2,51.11,51.11,0,0,0-29,0,30.542,30.542,0,0,0-12.6,7.2,28.3,28.3,0,0,0-7.7,12.3,48.268,48.268,0,0,0-2.3,14.5V555.6a47.14,47.14,0,0,0,2.3,14.4,29.5,29.5,0,0,0,7.7,12.3,29.882,29.882,0,0,0,12.6,7.4,51.11,51.11,0,0,0,29,0,29.882,29.882,0,0,0,12.6-7.4,29.5,29.5,0,0,0,7.7-12.3,47.14,47.14,0,0,0,2.3-14.4V442.5a48.268,48.268,0,0,0-2.3-14.5A27.408,27.408,0,0,0,628.7,415.7Zm-199.3,108a31.038,31.038,0,0,0-13.1-7.4,56.3,56.3,0,0,0-15.2-2.1H365.7v74.6H401a56.3,56.3,0,0,0,15.2-2.1,30.2,30.2,0,0,0,13.1-7.5,32.513,32.513,0,0,0,8.1-12.8,48.284,48.284,0,0,0,2.5-15.1,45.989,45.989,0,0,0-2.5-15.1A30.192,30.192,0,0,0,429.4,523.7ZM995.3,500c0,273.4-221.6,495-495,495S5.3,773.4,5.3,500,226.9,5,500.3,5,995.3,226.6,995.3,500ZM203.8,287.3H321.2c15.8-57.3,77.4-133.9,96-144.7H348.4Zm242.7,206c17-11,25.6-28,25.6-51.1a102.772,102.772,0,0,0-2.5-22.8,62.585,62.585,0,0,0-8.8-21,56.138,56.138,0,0,0-15.9-16.3,61.527,61.527,0,0,0-21-9.1,98.713,98.713,0,0,0-22.9-2.6H322.6V627.7H401a126.474,126.474,0,0,0,25.4-2.5,75.1,75.1,0,0,0,23.6-8.9,60.913,60.913,0,0,0,18.9-16.8,64.927,64.927,0,0,0,10.9-22.8,102.8,102.8,0,0,0,3.2-25.4C483,523.6,470.8,504.2,446.5,493.3ZM414.4,857.4C368,815,335.6,755.7,317.7,712.7H203.8L349.9,857.4Zm70.9-144.7H344.9c32.7,77.9,85.7,128.9,108.2,144.7h32.2Zm2.1-570.1H454.5c-61.3,44.1-96.2,114.8-106,144.7H487.4Zm98.8,0C632.6,185,665,244.3,682.9,287.3H796.8L650.7,142.6Zm92.6,275.1a57.261,57.261,0,0,0-10.7-22.2A65.387,65.387,0,0,0,649.5,379a71.493,71.493,0,0,0-23.1-8.9,129.8,129.8,0,0,0-24.9-2.5,122.294,122.294,0,0,0-24.9,2.5,71.493,71.493,0,0,0-23.1,8.9,66.578,66.578,0,0,0-18.6,16.5,60.172,60.172,0,0,0-10.7,22.2,104.713,104.713,0,0,0-3,24.9V555.7a104.713,104.713,0,0,0,3,24.9,57.261,57.261,0,0,0,10.7,22.2,65.387,65.387,0,0,0,18.6,16.5,71.493,71.493,0,0,0,23.1,8.9,129.8,129.8,0,0,0,24.9,2.5,122.294,122.294,0,0,0,24.9-2.5,71.493,71.493,0,0,0,23.1-8.9,66.578,66.578,0,0,0,18.6-16.5,60.172,60.172,0,0,0,10.7-22.2,104.713,104.713,0,0,0,3-24.9V442.5A103.277,103.277,0,0,0,678.8,417.7ZM515.4,287.3H655.8C623.1,209.4,570,158.4,547.6,142.6H515.4ZM652.1,712.7H513.2V857.4h32.9C607.4,813.3,642.3,742.6,652.1,712.7Zm144.8,0H679.4c-15.8,57.3-77.4,133.9-96,144.7h68.8Z"/></svg>