<svg xmlns="http://www.w3.org/2000/svg" viewBox="0 0 1000 1000"><path d="M500.496 5C223.572 5 5 229.506 5 500.002c0 276.43 224.506 495.001 495.002 495.001 276.43 0 495.001-224.506 495.001-495.001C995.003 226.539 773.464 5 500.496 5zM80.166 487.639c-2.968-8.901-.99-11.868 9.89-14.835 45.494-12.857 88.021-28.682 132.527-42.528 2.967-1.978 7.912 0 10.88 0 0 1.978 0 5.934-1.979 9.89-31.648 50.44-62.308 101.869-93.956 149.341-1.978 4.946-5.934 8.902-10.88 13.847-4.944-4.945-8.9-8.902-8.9-11.869-8.901-21.758-17.803-44.505-24.726-66.264-3.956-11.868-7.912-23.736-12.857-37.582zm23.735-68.242c7.913-16.813 16.814-32.637 27.693-47.473 9.89-17.802 18.791-37.582 30.66-54.396 2.966-6.923 9.89-13.846 15.823-15.824 36.594-22.747 75.166-44.505 112.748-65.275l8.901-5.934c4.945-3.956 10.88-1.978 18.792 2.967 2.967 3.956 6.923 9.89 2.967 16.814-1.978 7.912-6.924 15.824-10.88 23.736-14.835 28.681-29.67 58.352-42.527 90-2.967 5.934-6.923 8.901-12.857 10.88-10.88 1.977-18.792 10.878-20.77 20.769-.989 5.934-5.934 9.89-14.835 12.857-30.66 9.89-61.319 22.747-92.967 35.604l-8.901.99c-13.847 0-22.748-13.847-13.847-25.715zm44.506 183.957c31.649-51.43 66.264-101.869 95.934-157.254 6.924-12.857 16.814-14.835 29.67-15.824 2.968.99 6.924 1.978 8.902 4.945 16.813 14.835 33.627 29.67 48.462 45.495 23.736 20.77 47.472 44.506 69.23 66.264 9.89 7.912 9.89 12.857 0 22.747-34.615 35.605-68.241 73.187-102.857 107.803-2.967 3.956-7.912 6.923-10.879 4.945-3.956-.99-6.923-5.934-8.901-9.89-.99-7.912-1.978-13.847-1.978-22.748-1.978-5.934-4.945-8.9-12.857-9.89l-104.836-13.846c-14.835-1.978-19.78-9.89-9.89-22.747zm141.43-231.43c0-2.967-1.979-7.912 0-9.89 14.834-31.648 28.68-64.286 42.527-95.934 6.923-19.78 14.835-37.583 23.736-55.385 4.945-9.89 9.89-13.846 20.77-13.846 47.472-1.978 94.945-5.934 141.428-5.934.99 0 .99-1.978.99-1.978 4.945 2.967 8.9 5.934 11.868 11.868 1.978 3.956-2.967 8.9-5.934 11.868-10.88 5.934-20.77 13.846-34.616 23.736-61.319 42.528-125.605 88.023-188.902 130.55-1.978 1.978-1.978 1.978-3.956 2.967-2.967 0-5.934 0-7.912 1.978zm.988 39.56c.99-5.933 5.934-7.911 11.868-7.911 91.979-14.835 184.946-31.649 276.924-49.451h2.967c3.956 1.978 8.901 1.978 11.869 2.967-.99 3.956-.99 7.912-4.946 11.868-33.626 36.594-70.22 75.165-104.835 112.748-18.791 17.802-33.627 36.593-52.418 55.385-2.967 2.967-5.934 4.945-10.879 7.912l-7.912-7.912c-24.725-24.726-51.429-48.462-77.143-73.187-14.835-13.847-28.682-25.715-41.539-38.572-2.967-4.945-6.923-7.912-3.956-13.846zm13.846 313.518c-10.879-10.879-10.879-20.769 0-29.67 34.616-36.594 69.231-76.154 105.825-112.748 7.912-9.89 16.813-9.89 25.714 0 39.56 43.517 82.088 80.11 122.638 120.66 11.868 11.868 8.901 24.725-6.923 31.649-19.78 9.89-40.55 21.758-62.308 29.67-6.923 4.945-14.835 5.934-23.736 7.912-27.693 0-57.363 0-89.012 1.978-13.846 5.934-24.725-3.956-35.604-15.824-11.868-12.857-24.725-22.747-36.594-33.627zm0-339.232c1.978-1.978 2.967-5.934 5.934-6.923 44.506-30.66 87.034-61.319 130.55-90.989 36.594-24.725 75.165-50.44 109.78-75.165 10.88-7.912 13.847-6.923 19.781 3.956 12.857 29.67 26.704 59.34 39.56 89.011 1.979 1.978 1.979 4.945 1.979 5.934 0 6.924-11.868 22.748-18.791 23.737-78.133 10.879-155.276 26.703-232.419 41.538-15.824 2.967-31.648 6.923-48.462 9.89-1.978 0-4.945-.989-7.912-.989zm138.462 180.001c-9.89-7.912-8.9-9.89 0-18.791 46.484-50.44 94.946-100.88 142.418-151.32 5.934-6.922 11.869-12.857 17.803-20.769l8.9-2.967c.99 1.978 2.968 4.945 2.968 6.923l-8.901 88.023c-3.956 38.571-8.901 78.132-12.857 115.714-4.946 32.638-7.913 67.253-12.858 99.89 0 2.968-.989 7.913-2.967 7.913-2.967 0-6.923-1.978-7.912-3.956-44.505-39.56-85.055-80.11-126.594-120.66zM585.551 215.66c-1.978-2.967 0-7.912 0-11.868 2.967 0 7.913 0 10.88.989 56.373 28.681 110.77 56.374 167.143 84.066 2.967 1.978 4.945 6.923 7.912 9.89-2.967 1.978-5.934 3.956-10.88 4.945-28.68 5.934-58.35 12.857-90 17.803-1.977.989-4.944.989-7.911.989-1.979-.99-4.946-.99-6.924-4.946-6.923-5.934-13.846-8.9-22.747-9.89-1.978-1.978-6.923-4.945-8.901-6.923-13.846-28.681-24.725-57.363-38.572-85.055zm5.934 567.694v-20.77c0-10.878 1.979-23.735 1.979-33.626 0-6.923 3.956-12.857 8.9-14.835 46.484-18.791 82.089-53.407 121.65-79.12l28.68-18.792c5.935-3.956 10.88-2.967 18.792-1.978 7.912.989 13.846 0 20.77.989 3.955 0 10.879 0 14.835 2.967 19.78 15.824 38.571 30.66 56.373 48.462 10.88 10.879 10.88 18.79-2.967 28.681-58.351 37.583-113.736 77.143-172.088 113.737-7.912 4.945-10.88 11.868-10.88 20.769.99 5.934.99 13.846.99 19.78 0 7.912-3.956 12.857-9.89 14.835-7.913 2.967-10.88 0-15.825-4.945-19.78-22.747-39.56-44.505-58.351-68.242-.99-1.978-2.968-4.945-2.968-7.912zm5.935-100.88c2.967-23.736 5.934-48.46 8.9-72.197 6.924-57.363 15.825-115.715 24.726-172.089 2.967-18.791 2.967-36.593 5.934-54.396 1.978-3.956 3.956-6.923 4.945-9.89 2.967.99 4.945 2.967 6.923 5.934 36.594 60.33 72.198 119.671 107.803 179.012 1.978 2.967 1.978 9.89 1.978 13.846-1.978 5.934-2.967 11.868-4.945 16.813-.99 4.946-2.967 10.88-5.934 11.869l-134.506 87.033c-2.967 1.978-8.901 1.978-12.857 1.978-.99 0-2.967-5.934-2.967-7.912zm65.275-310.55c-9.89-15.824-1.979-33.626 14.835-36.593 33.626-6.923 68.242-12.857 101.868-18.792h5.934v-1.978c4.945 2.967 10.88 6.924 14.836 10.88l72.198 106.813c2.967 8.901 1.978 17.802-3.957 25.715-8.9 12.857-19.78 26.703-27.692 39.56-12.857 15.824-23.736 31.649-37.582 47.473-2.967 6.923-7.913 10.879-15.825 12.857-9.89 0-15.824-4.945-21.758-12.857-19.78-34.616-39.56-67.253-61.319-100.88-12.857-24.725-28.681-48.461-41.538-72.198zm148.352 206.704c-3.956-6.923-1.978-15.824 2.967-20.769 16.813-24.725 34.615-45.495 50.44-70.22 5.934-5.934 8.9-8.901 15.824-6.923 5.934.989 7.912 5.934 7.912 10.879 6.923 36.594 13.846 70.22 20.77 106.814 0 2.967 0 3.956-1.979 6.923-2.967 13.846-6.923 28.681-9.89 41.538-5.934 11.868-13.846 16.813-23.736 6.923-18.792-13.846-37.583-30.66-56.374-47.472-4.945-3.956-5.934-8.901-4.945-17.803 0-1.978 0-6.923-.99-9.89z"/></svg>