<svg xmlns="http://www.w3.org/2000/svg" width="1000" height="1000">
  <path d="M495.221 447.609c62.357-66.584 115.2-115.2 178.614-173.33 50.73-53.9 94.063-101.46 143.736-145.85 40.162-33.82 59.186-29.592 65.527 20.081 38.048 228.287 76.096 453.404 109.916 677.464 9.512 64.47-14.796 79.266-80.323 59.185-125.77-35.934-256.823-79.266-384.706-122.598-13.74 0-33.82-8.456-60.243 0C343.03 805.893 214.09 842.884 81.98 885.159c-64.47 20.081-89.835 5.285-70.811-68.697C30.192 675.896 54.5 531.102 74.58 381.025c12.683-71.868 23.251-145.85 36.991-215.605 11.626-57.071 32.763-82.437 79.266-29.592 95.12 99.347 195.524 196.58 292.758 298.041 0 0 10.568 8.455 11.625 13.74zM87.264 805.893c96.176-32.764 184.955-60.243 271.62-87.722 13.739-20.08-77.153-48.616-15.854-105.688 32.763-39.105 69.754-70.811 104.632-107.802-98.29-89.836-183.899-172.273-276.904-269.506-25.366 190.24-53.902 377.308-83.494 570.718zm328.69-169.102c59.187 39.105 112.03 39.105 160.648 0-28.536-23.251-48.617-50.73-72.926-63.413-28.535 20.08-56.014 40.162-87.721 63.413zm132.112-132.11c33.82 36.99 71.868 68.697 106.745 97.233 52.844 54.958 52.844 73.982-19.024 116.257 88.778 27.48 172.272 53.902 266.335 87.722-25.365-193.41-48.617-380.479-76.096-562.263-95.12 88.778-181.784 172.272-277.96 261.05z" style="fill:#000;fill-opacity:1;fill-rule:nonzero;stroke:none;"/>
</svg>
