<svg xmlns="http://www.w3.org/2000/svg" viewBox="0 0 1000 1000"><path d="M500.3,5C226.9,5,5.3,226.6,5.3,500s221.6,495,495,495,495-221.6,495-495S773.7,5,500.3,5ZM383.421,204.663h71.5v74.612h-71.5ZM200,384.976h74.612v74.61H200Zm52.85,410.361H224.87V767.359h27.98Zm24.87-149.223H203.11v-71.5h74.61Zm0-366.839H203.11V204.663h74.61ZM436.271,795.337h-27.98V767.359h27.98Zm0-174.093h-27.98v-27.98h27.98ZM458.031,462.7h-74.61V388.084h74.61Zm158.55,332.641H588.6V767.359h27.98Zm0-174.093H588.6v-27.98h27.98Zm0-183.42H588.6V409.846h27.98Zm24.87-158.549H566.839V204.663h74.612ZM800,795.337H772.022V767.359H800Zm0-174.093H772.022v-27.98H800Zm0-183.42H772.022V409.846H800Zm0-180.311H772.022V229.535H800Z"/></svg>