<svg width="1000" height="1000" viewBox="0 0 1000 1000" fill="none" xmlns="http://www.w3.org/2000/svg">
<path d="M289 2L87 204H251C273 124 359 17 385 2H289Z" fill="black"/>
<path d="M483 204V2H437C351.4 63.6 302.667 162.333 289 204H483Z" fill="black"/>
<path d="M522 204H718C672.4 95.2 598.333 24 567 2H522V204Z" fill="black"/>
<path d="M756 204H915L711 2H621C685.8 61.2 731 144 756 204Z" fill="black"/>
<path d="M713 1000L915 798L751 798C729 878 643 985 617 1000L713 1000Z" fill="black"/>
<path d="M519 798L519 1000L565 1000C650.6 938.4 699.333 839.667 713 798L519 798Z" fill="black"/>
<path d="M480 798L284 798C329.6 906.8 403.667 978 435 1000L480 1000L480 798Z" fill="black"/>
<path d="M246 798L87 798L291 1000L381 1000C316.2 940.8 271 858 246 798Z" fill="black"/>
<path d="M442.77 584.501C442.77 609.201 439.303 631.517 432.37 651.451C425.437 670.951 415.903 687.634 403.77 701.501C391.637 714.934 377.12 725.334 360.22 732.701C343.32 739.634 324.903 743.101 304.97 743.101C284.603 743.101 265.97 739.634 249.07 732.701C232.17 725.334 217.653 714.934 205.52 701.501C193.387 688.067 183.853 671.601 176.92 652.101C170.42 632.601 167.17 610.717 167.17 586.451C167.17 561.317 170.42 537.917 176.92 516.251C183.853 494.151 192.737 472.701 203.57 451.901L294.57 273.801H379.72L286.12 449.301L286.77 449.951C291.537 445.617 297.603 442.367 304.97 440.201C312.77 438.034 320.137 436.951 327.07 436.951C342.237 436.951 356.753 439.984 370.62 446.051C384.92 451.684 397.27 460.567 407.67 472.701C418.503 484.401 426.953 499.567 433.02 518.201C439.52 536.834 442.77 558.934 442.77 584.501ZM368.67 583.851C368.67 556.984 363.47 534.884 353.07 517.551C342.67 500.217 327.07 491.551 306.27 491.551C296.303 491.551 287.42 493.934 279.62 498.701C271.82 503.467 265.103 510.184 259.47 518.851C253.837 527.084 249.503 536.834 246.47 548.101C243.437 559.367 241.92 571.717 241.92 585.151C241.92 613.317 247.553 636.067 258.82 653.401C270.087 670.301 285.687 678.751 305.62 678.751C325.553 678.751 340.937 670.084 351.77 652.751C363.037 634.984 368.67 612.017 368.67 583.851Z" fill="black"/>
<path d="M832.12 605.301C832.12 629.567 828.003 649.934 819.77 666.401C811.97 682.434 801.787 695.651 789.22 706.051C777.087 716.017 763.22 723.167 747.62 727.501C732.453 731.834 717.503 734.001 702.77 734.001H566.27V273.801H688.47C701.903 273.801 716.203 275.534 731.37 279.001C746.537 282.034 760.403 287.884 772.97 296.551C785.537 304.784 795.937 316.484 804.17 331.651C812.403 346.384 816.52 365.667 816.52 389.501C816.52 418.101 810.453 440.634 798.32 457.101C786.187 473.567 772.103 485.051 756.07 491.551V492.851C764.737 495.017 773.403 498.701 782.07 503.901C791.17 509.101 799.403 516.467 806.77 526.001C814.137 535.101 820.203 546.367 824.97 559.801C829.737 572.801 832.12 587.967 832.12 605.301ZM746.32 401.851C746.32 390.151 744.37 380.401 740.47 372.601C737.003 364.367 732.237 357.867 726.17 353.101C720.537 347.901 713.82 344.217 706.02 342.051C698.22 339.884 690.203 338.801 681.97 338.801H639.07V466.851H683.27C691.07 466.851 698.653 465.767 706.02 463.601C713.82 461.001 720.537 457.101 726.17 451.901C732.237 446.701 737.003 439.984 740.47 431.751C744.37 423.517 746.32 413.551 746.32 401.851ZM757.37 598.801C757.37 585.367 755.203 574.101 750.87 565.001C746.537 555.467 740.903 547.884 733.97 542.251C727.037 536.184 719.453 531.851 711.22 529.251C702.987 526.651 694.753 525.351 686.52 525.351H639.07V669.001H688.47C698.003 669.001 706.887 667.701 715.12 665.101C723.353 662.067 730.503 657.734 736.57 652.101C743.07 646.034 748.053 638.667 751.52 630.001C755.42 621.334 757.37 610.934 757.37 598.801Z" fill="black"/>
</svg>
