<svg xmlns="http://www.w3.org/2000/svg" viewBox="0 0 1000 1000"><path d="M610.736,227.778c-8.73-.794-17.46-1.587-26.19-1.587-65.079,0-129.365,26.19-186.508,77.778-26.984,23.81-51.587,52.381-74.603,85.714-3.968-123.81-11.111-255.556-23.016-389.683H132.165c35.714,378.571,31.746,708.73,25.397,998.413h0v1.587h166.667c4.762-290.476,77.778-476.19,184.921-572.222,28.571-26.19,57.143-37.302,83.333-34.921,131.746,14.286,111.111,425.397,100.794,607.143h166.667c7.143-134.127,15.079-297.619-3.968-440.476-27.778-205.556-110.318-316.667-245.238-331.746Z"/></svg>