<svg xmlns="http://www.w3.org/2000/svg" width="1000" height="1000">
  <path d="M125.584 196.24c-6.08 28.372-10.133 48.638-17.226 70.93 20.266 6.08 32.425 11.147 47.625 16.214 25.333 11.146 32.426 20.266 25.333 46.612-10.133 44.586-19.253 87.145-30.4 131.73-15.2 47.626-25.332 94.238-37.492 144.904-9.12 22.292-15.2 28.372-37.492 24.319-7.093-2.027-40.533-13.173-40.533-13.173-2.026 5.066-4.053 9.12-30.399 74.985 35.466 10.133 90.185 25.333 127.677 35.466-4.053 10.133-4.053 19.253-7.093 28.372-4.053 17.227-10.133 35.466-12.16 54.719-2.026 10.133-5.066 22.293 8.107 27.36 14.186 6.08 34.452 8.106 53.705 13.172 8.107-37.492 18.24-70.931 29.386-109.437 15.2 7.093 30.4 11.146 45.599 16.213-10.133 38.506-16.213 69.918-26.346 103.358 26.346 9.12 45.599 17.226 70.932 12.16 8.106-32.427 18.24-64.853 26.346-100.318 9.12 3.04 13.173 3.04 20.266 3.04 34.452 2.026 73.971 6.08 110.45 2.026 44.586-8.106 78.025-40.532 95.252-83.091 27.359-70.932 19.252-129.704-49.653-169.223 68.905-45.599 104.371-99.304 60.799-174.29-19.253-29.385-82.078-70.93-113.49-79.037 9.12-38.506 14.186-69.919 23.305-104.371-16.212-4.053-46.612-15.2-60.798-19.253 0 0-9.12 28.373-31.413 106.397-17.226-4.053-32.426-8.106-48.639-11.146 7.094-35.466 14.187-69.918 24.32-106.397-26.346-6.08-44.586-10.134-66.879-14.187-10.133 38.506-20.266 69.919-29.386 104.371-41.545-11.146-84.104-19.253-129.703-32.426zM225.9 660.334c11.147-44.586 24.32-87.145 34.453-131.73 44.586 4.053 91.198 14.186 127.677 40.532 9.12 6.08 18.24 12.16 23.306 21.28 21.28 38.505 7.093 83.091-40.532 90.184-49.652 7.093-96.265-3.04-144.903-20.266zm51.68-210.768c12.159-40.533 20.265-81.065 32.425-121.598 43.573 8.107 84.105 18.24 113.49 44.586 32.427 27.36 23.307 74.985-17.225 89.171-31.413 11.147-60.799 5.067-90.185-2.026-13.173-2.027-23.306-6.08-38.506-10.133zM597.785 551.91c-12.16 38.506-10.133 38.506 28.373 49.652 40.532 9.12 79.038 20.266 120.584 31.413-12.16 54.718-26.346 107.41-41.546 160.102 24.32 9.12 43.572 13.173 66.878 18.24 15.2-54.719 29.386-107.41 45.6-160.103 52.691 16.213 104.37 29.386 159.089 41.546 6.08-21.28 11.146-43.572 18.24-65.865-54.72-13.173-105.385-30.4-159.09-43.573 16.213-54.718 25.333-100.317 42.559-158.076l-67.892-18.24c-15.2 52.693-30.4 104.371-44.586 156.05-10.133-2.026-21.279-4.053-29.386-7.093-35.465-8.106-69.918-17.226-102.344-25.333-26.346-7.093-30.399-4.053-36.479 21.28z" style="fill:#000;fill-opacity:1;fill-rule:nonzero;stroke:none;"/>
</svg>
