<svg xmlns="http://www.w3.org/2000/svg" width="1000" height="1000">
  <path d="M500.496 5C223.572 5 5 229.506 5 500.002c0 276.43 224.506 495.001 495.002 495.001 276.43 0 495.001-224.506 495.001-495.001C995.003 226.539 773.464 5 500.496 5zM318.518 847.64c1.978-6.923 6.923-16.813 10.879-23.736 24.725-43.517 47.472-85.055 71.209-128.572 19.78-34.616 38.571-70.22 56.374-104.836 20.769-40.55 44.505-79.12 66.263-119.67 16.814-31.649 34.616-61.32 49.451-92.968 22.748-37.582 43.517-74.176 63.297-113.736l13.846-27.693s1.978-2.967 2.967 0c11.869 21.759 23.737 42.528 35.605 64.286 47.473 87.034 50.44 90 49.45 91.979l-65.274 116.703c-19.78 35.605-40.55 73.187-60.33 109.78l-64.286 115.716C502.474 816.98 486.65 847.64 483.683 847.64zM356.1 431.265c-.989-1.978-1.978.99 32.638-91.978 17.802-47.473 36.593-94.946 54.395-142.418 9.89-24.726 18.792-48.462 26.704-73.187 1.978-2.967 1.978-2.967 3.956-1.978 27.692 17.802 108.791 70.22 150.33 100.88 0 0 .989 0 0 1.977-17.802 35.605-37.583 70.22-58.352 106.814-18.791 33.626-35.604 63.297-54.396 96.923L455.002 527.2c-6.924 14.835-15.825 26.703-21.759 41.538l-.989 1.978c-.989 1.978-1.978 0-1.978-1.978l-32.637-60.33c-12.858-24.725-27.693-50.44-41.539-77.143zM512.364 847.64c39.56-71.209 92.968-170.11 137.473-247.253l85.056 111.758c-74.177 44.506-148.353 90.99-222.529 135.495z" style="fill:#000;fill-opacity:1;fill-rule:nonzero;stroke:none;"/>
</svg>
