<svg xmlns="http://www.w3.org/2000/svg" viewBox="0 0 1000 1000"><path d="M500 995.004c273.756 0 494.412-221.837 494.412-494.412C994.412 226.836 773.756 5 500 5 226.245 5 5.588 226.836 5.588 500.592c0 272.575 220.657 494.412 494.412 494.412zM274.624 554.87c0-38.94 30.68-69.619 70.799-69.619 38.94 0 70.799 30.68 70.799 69.619 0 40.12-33.04 71.979-71.98 71.979-38.939 0-69.618-33.04-69.618-71.979zm119.178 146.318c2.36-12.98 2.36-27.14 0-40.12 0-10.62 3.54-14.16 11.8-18.88 24.78-10.62 41.3-28.319 49.56-51.919 18.879-49.559-1.18-101.478-49.56-123.898-8.26-4.72-11.8-8.26-11.8-16.52 2.36-49.558 2.36-95.578 2.36-145.137 0-15.34 0-15.34 15.34-15.34h90.858c30.68 1.18 69.62-4.72 106.199 2.36 60.179 11.8 109.738 63.72 115.638 126.258 7.08 63.72-11.8 117.998-68.44 154.578-24.779 15.34-53.098 21.24-81.418 21.24H502.36c-7.08 0-9.44 2.36-9.44 10.62v94.398c0 9.44-1.18 12.98-11.8 11.8h-75.518c-8.26 1.18-11.8-1.18-11.8-9.44zm99.118-199.417c0 9.44 1.18 12.98 11.8 12.98 16.52-1.18 34.22 0 51.92 0 37.759 0 63.718-21.24 68.438-60.18 9.44-48.379-23.6-89.678-71.979-86.138-17.7 1.18-33.039 1.18-50.739 0-8.26 0-9.44 2.36-9.44 10.62v63.719z"/></svg>