<svg xmlns="http://www.w3.org/2000/svg" width="1000" height="1000">
  <path d="M5 500.496c0 271.98 220.55 494.507 495.496 494.507 271.98 0 494.507-220.55 494.507-495.496C995.003 227.528 773.464 5 500.496 5 226.54 5 5 225.55 5 500.496zm159.231-168.132c0-33.627 22.748-66.264 53.407-78.132 46.484-12.858 89.011 4.945 109.78 52.417 12.858 41.539-4.944 87.034-47.472 101.869-20.77 6.923-23.736 15.824-23.736 34.615v109.78c0 46.485 79.12 56.375 91.978 2.968 3.956-18.791 20.77-34.616 39.56-34.616 21.759 0 37.583 11.869 41.54 34.616 4.944 30.66 43.516 54.396 71.208 42.528 23.737-2.967 42.528 3.956 46.484 26.703 2.967 19.78-7.912 38.572-26.704 42.528-48.461 5.934-26.703-25.715-56.373-54.396-6.923-7.912-15.825-7.912-23.737-14.835-10.879-8.902-21.758-8.902-32.637 0-11.868 3.956-22.748 3.956-35.605 0-26.703-11.869-57.363 6.923-52.417 33.626 2.967 38.572-21.759 73.187-55.385 81.1-39.56 8.9-74.176-10.88-84.066-49.452-13.847-35.604 6.923-74.176 41.538-89.01 10.88-4.946 15.824-7.913 15.824-18.792V432.254c0-12.857-7.912-19.78-19.78-23.736-30.66-9.89-53.407-41.539-53.407-76.154zm191.87 74.176c2.966-20.77 22.746-31.649 42.527-22.748 23.736 2.968 68.242-9.89 74.176-40.55 0-21.757 20.77-41.538 43.516-41.538 13.847 0 33.627 23.737 38.572 41.539 0 23.736 37.582 42.527 57.363 31.648 22.747-16.813 54.396-7.912 71.209 15.825 8.9 21.758 2.967 52.417-20.77 68.242-12.857 3.956-19.78 15.824-14.835 23.736 1.978 6.923 6.923 16.813 14.836 21.758 23.736 12.857 38.571 40.55 34.615 62.308 0 23.736 19.78 31.649 34.616 19.78 35.604-26.703 72.198-23.736 100.879 8.902 25.714 21.758 25.714 65.274 0 91.978-28.681 29.67-65.275 34.615-97.912 6.923-9.89-6.923-15.825-6.923-25.715-4.945-33.626 23.736-69.23 42.527-103.846 65.275-5.934 4.945-12.858 12.857-12.858 20.77 8.902 50.439-9.89 84.065-56.373 103.846-15.825 6.923-31.649 6.923-47.473 0-31.648-16.814-54.396-38.572-54.396-80.11 0-35.605 13.846-59.341 43.517-72.199 30.66-16.813 61.319-13.846 88.022 9.89 11.868 7.913 19.78 7.913 33.627 0 27.692-19.78 63.297-34.615 92.967-54.395 23.736-11.868 24.725-60.33 8.901-77.143-8.901-2.967-17.802 0-23.736 4.945-29.67 17.802-72.198 14.835-91.979-14.835-19.78-32.638-7.912-70.22 26.704-90.99 19.78-11.868 22.747-32.637 2.967-45.494-15.824-9.89-25.715-26.704-25.715-46.484 0-5.934-6.923-18.791-11.868-21.758-15.824-12.858-34.615-23.737-53.406-6.924-7.913 4.946-15.825 3.957-26.704-5.934-24.725-10.879-72.198 20.77-76.154 49.451 0 21.758-25.714 28.682-45.495 21.758-19.78-5.934-27.692-24.725-19.78-42.527zm88.021-247.254c7.912-23.736 28.682-39.56 44.506-50.44 15.824-5.934 27.692-7.912 47.473 0 29.67 14.836 55.384 51.43 46.483 76.155-4.945 15.824 2.967 26.703 18.792 35.604 30.66 15.824 61.319 33.627 90.989 52.418 12.857 4.945 23.736 9.89 34.615-2.967 28.682-28.682 70.22-28.682 105.825-3.956 29.67 23.736 37.583 69.23 21.758 100.88-21.758 39.56-62.308 52.417-98.901 41.538-42.528-14.835-63.297-53.407-54.396-95.935 0-10.879 0-18.79-10.88-22.747-35.604-19.78-70.22-39.56-104.835-61.319-10.879-3.956-19.78-3.956-26.703 4.945-22.747 20.77-58.352 20.77-86.044 7.912-24.726-16.813-36.594-53.406-28.682-82.088z" style="fill:#000;fill-opacity:1;fill-rule:nonzero;stroke:none;"/>
</svg>
