<svg xmlns="http://www.w3.org/2000/svg" viewBox="0 0 1000 1000"><path d="M5 500.496C5 225.55 226.54 5 500.496 5c272.968 0 494.507 222.528 494.507 494.507 0 274.946-222.528 495.496-494.507 495.496C225.55 995.003 5 772.475 5 500.496zM319.507 747.75c0 42.527 17.802 59.34 58.351 59.34h264.067c42.528 0 61.32-16.813 61.32-59.34V228.517c0-43.516-18.792-58.352-61.32-58.352H377.858c-40.55 0-58.351 14.836-58.351 58.352v261.1zm64.285-7.912V235.44h256.155v504.398zm33.627-162.199c21.758 0 40.55 2.967 61.319 2.967 0 22.748 2.967 44.506 5.934 66.264h55.385c0-21.758 2.967-43.516 2.967-66.264 21.758 0 39.56-2.967 61.319-5.934v-55.385H417.419zm0-117.692h186.924v-58.352c-21.759 0-42.528-2.967-64.286-2.967v-69.231h-58.352c0 24.725-2.967 48.461-2.967 69.23-22.747 0-41.539 2.968-61.319 2.968z"/></svg>