<svg xmlns="http://www.w3.org/2000/svg" width="1000" height="1000">
  <path d="M283.122 5.06h182.465c31.319 10.894 40.85 35.404 40.85 70.808 0 73.53 5.447 140.253 5.447 216.506v626.372c0 31.319-19.063 76.254-40.85 76.254H102.019c-24.51-2.723-35.403-44.935-20.425-80.339 9.532-19.063 20.425-43.574 29.957-69.445 5.447-13.617 10.893-29.957 10.893-44.936 0-157.954 0-314.547 2.724-472.502 0-50.382-2.724-95.317 0-144.338 0-54.467 19.063-95.317 59.914-127.997 29.956-29.957 69.445-51.744 98.04-50.383zm300.931 913.686V542.923c0-51.744 16.34-66.722 70.807-66.722h227.4c35.404 5.447 50.383 27.234 39.49 57.19-4.086 16.34-10.894 25.872-14.98 35.404-9.531 25.872-14.978 54.467-14.978 77.616-5.446 61.275 0 123.912 0 185.188 0 88.509-59.914 159.316-138.89 163.401H628.987c-25.871 0-44.935-40.85-44.935-76.254zm0-565.096V78.591c0-38.127 10.893-73.53 44.935-73.53H743.37c74.893 0 138.891 66.722 148.423 138.89 0 65.361 5.447 127.998 0 193.359 0 35.403-17.702 73.53-61.275 73.53H645.329c-39.49 0-61.276-25.871-61.276-57.19z" style="fill:#000;fill-opacity:1;fill-rule:nonzero;stroke:none;"/>
</svg>
