<svg xmlns="http://www.w3.org/2000/svg" viewBox="0 0 1000 1000"><path d="M280.32 939.85H60.082c-6.221 0-13.687 0-21.152-2.49C12.8 929.896.358 908.743 6.58 881.37c2.488-12.443 8.71-22.397 16.175-31.107C164.602 601.408 306.45 351.309 452.028 103.7c6.222-11.199 11.199-18.664 16.176-28.619 19.908-19.908 44.794-19.908 62.213 0 4.977 6.222 11.199 11.199 17.42 19.909 34.84 67.19 72.168 131.892 107.007 195.35 24.886 42.305 24.886 89.588 0 130.649-88.343 150.556-171.709 303.602-261.296 454.158-24.886 42.305-64.702 64.702-113.229 64.702zm302.357-57.237c3.733-7.466 6.221-16.176 9.954-23.641 52.26-83.366 102.03-169.221 149.312-255.076 0-2.488 2.489-2.488 2.489-3.733 24.885-39.816 64.702-39.816 89.587 0 51.015 88.344 99.542 175.443 150.557 261.297 0 4.977 3.733 7.466 3.733 9.954 18.664 37.328-3.733 68.435-42.305 68.435h-308.58c-9.954 0-17.42 0-23.64-2.488-24.886-7.466-36.084-28.618-31.107-54.748z"/></svg>