<svg xmlns="http://www.w3.org/2000/svg" viewBox="0 0 1000 1000"><path d="M276.691 842.404c90.564-79.399-33.496-204.699-115.376-120.338-28.533 37.218-33.496 73.195 0 120.338 40.94 38.458 91.805 38.458 115.376 0zM31.053 504.96c0 37.218 38.458 75.676 78.157 75.676 27.293 0 43.421-13.646 66.993-28.533 13.646-9.925 26.052-39.7 26.052-47.143 0-54.586-40.94-94.285-93.045-94.285-39.699 0-78.157 39.699-78.157 94.285zM152.63 189.849c-16.128 23.571 0 68.233 23.572 89.323 13.646 16.128 38.458 24.812 54.586 24.812 22.33 0 45.902-8.684 62.03-24.812 52.105-39.699 16.128-142.669-62.03-142.669-28.534 0-69.474 14.888-78.158 53.346zm85.601 337.443h106.692v-52.105H238.232zm31.015 129.022 90.564 91.804 76.917-91.804c-37.218-13.647-66.992-52.105-76.917-89.323zm7.444-315.112 83.12 84.36c28.534-49.623 53.346-80.638 91.804-91.804l-81.88-75.676zm106.691 163.759c0 62.03 68.233 114.135 131.504 114.135 63.27 0 115.375-52.105 115.375-114.135 0-68.233-52.105-121.579-115.375-121.579s-131.504 53.346-131.504 121.579zm39.7 413.12c0 38.458 39.699 76.916 91.804 76.916 39.699 0 78.158-38.458 78.158-76.917 0-53.346-32.256-91.804-78.158-91.804-52.105 0-91.804 38.458-91.804 91.804zm0-822.517c0 55.827 39.699 79.398 91.804 79.398 39.699 0 78.158-23.571 78.158-79.398C593.044 44.699 557.066 5 514.886 5c-52.105 0-91.804 37.218-91.804 90.564zm66.992 693.494h49.624V681.126h-49.624zm0-455.3h49.624v-105.45h-49.624zm88.082 322.556 80.64 79.398 89.322-93.045-89.323-75.676c-13.646 37.218-37.218 75.676-80.639 89.323zm0-315.112c28.534 0 75.677 55.827 93.045 95.526l76.917-95.526-89.323-83.12zm93.045 186.09h104.21v-52.105H671.2zm49.624 220.826c-12.406 27.293-12.406 65.752 16.128 94.286 11.165 9.925 38.458 22.33 53.346 22.33 65.751 0 100.488-57.067 79.398-116.616-33.496-84.36-122.82-59.548-148.872 0zm16.128-468.946c24.812 24.812 63.27 39.7 93.045 24.812 58.308-27.293 68.233-125.3 0-152.593-79.399-39.7-166.24 62.03-93.045 127.781zm63.27 233.233c14.888 29.774 53.346 54.586 75.677 54.586 31.015 0 54.586-14.887 70.714-24.812 13.647-14.887 22.33-37.218 22.33-66.992 0-24.812-22.33-64.511-53.345-78.158-62.03-22.33-140.188 62.03-115.376 115.376z"
    style="fill:#000;fill-opacity:1;fill-rule:nonzero;stroke:none"/></svg>