<?xml version="1.0" encoding="utf-8"?>
<!-- Generator: Adobe Illustrator 26.0.1, SVG Export Plug-In . SVG Version: 6.00 Build 0)  -->
<svg version="1.1" id="Layer_1" xmlns="http://www.w3.org/2000/svg" xmlns:xlink="http://www.w3.org/1999/xlink" x="0px" y="0px"
	 viewBox="0 0 1000 1000" style="enable-background:new 0 0 1000 1000;" xml:space="preserve">
<path d="M500.5,5C223.6,5,5,229.5,5,499.5C5,773.5,226.5,995,499.5,995C776.4,995,995,770.5,995,499.5C995,223.6,770.5,5,500.5,5z
	 M546.2,126.6c97.7,0,177,79.2,177,177c0,30.9-7.9,59.9-21.8,85.2c-3.2-1.5-6.4-2.9-9.6-4.3c-31.3-13.2-64.4-19.9-98.6-19.9H488.9
	v-144c0-17.6-3.5-34.7-10.3-50.8c-6.6-15.5-16-29.5-27.9-41.5c-0.6-0.6-1.1-1.1-1.7-1.6H546.2z M809.9,635.9
	c0,119.7-97,216.7-216.7,216.7H264.5V220.5c0-51.9,42-93.9,93.9-93.9h0l0,0c3.3,0,6.6,0.2,9.9,0.5c1.4,0.1,2.7,0.3,4.1,0.5
	c0.2,0,0.5,0.1,0.7,0.1c2,0.3,4,0.7,6,1.2c1.9,0.4,3.8,0.9,5.7,1.5c15.3,4.5,29,12.8,40,23.7c17,17,27.5,40.5,27.5,66.4v180.6h140.9
	c1.9,0,3.8,0,5.7,0.1c0.5,0,1.1,0,1.6,0.1c1.4,0,2.7,0.1,4.1,0.2c0.6,0,1.2,0.1,1.8,0.1c1.3,0.1,2.6,0.2,3.9,0.3
	c0.6,0,1.2,0.1,1.8,0.2c1.3,0.1,2.6,0.2,3.9,0.4c0.6,0.1,1.1,0.1,1.7,0.2c1.3,0.1,2.6,0.3,3.9,0.5c0.5,0.1,1,0.1,1.5,0.2
	c1.3,0.2,2.7,0.4,4,0.6c0.5,0.1,0.9,0.2,1.4,0.2c1.4,0.2,2.8,0.5,4.2,0.7c0.4,0.1,0.8,0.2,1.2,0.2c1.4,0.3,2.9,0.6,4.3,0.9
	c0.3,0.1,0.7,0.1,1,0.2c1.5,0.3,3,0.7,4.4,1c0.3,0.1,0.6,0.1,0.8,0.2c1.5,0.4,3,0.8,4.6,1.2c0.2,0.1,0.5,0.1,0.7,0.2
	c1.6,0.4,3.1,0.9,4.7,1.3c0.2,0.1,0.4,0.1,0.5,0.2c1.6,0.5,3.2,1,4.8,1.5c0.1,0,0.3,0.1,0.4,0.1c1.6,0.5,3.3,1.1,4.9,1.6
	c0.1,0,0.2,0.1,0.3,0.1c1.7,0.6,3.3,1.2,4.9,1.8c0,0,0.1,0,0.1,0.1c1.7,0.6,3.3,1.3,5,2c0,0,0,0,0.1,0
	c79,32.3,134.7,110,134.7,200.7V635.9z"/>
</svg>
