<svg xmlns="http://www.w3.org/2000/svg" viewBox="0 0 1000 1000"><path d="M500,5C226.62,5,5,226.62,5,500S226.62,995,500,995,995,773.38,995,500,773.38,5,500,5Zm64.9,550v-4.71a14.59,14.59,0,0,0-14.59-14.58H459.77a14.58,14.58,0,0,0-14.58,14.58v5.51c0,12.33-14,18.48-21,8.37q-19-27.25-19-64.48,0-42.36,29.68-73.37t70.36-31q40.35,0,70,31t29.68,73.37q0,36.09-18.78,63.59C579.1,573.56,564.9,567.45,564.9,555ZM586.65,833.1a14,14,0,0,1-17.42-13.82V741.2A15.07,15.07,0,0,1,579.83,727q72.43-23.25,114.11-79.87,49.68-67,49.68-151.75,0-86.37-56-152.41-69.35-81.71-182.39-81.71-87.7,0-156.39,58-82.69,70-82.7,179.76,0,83.06,47.35,146.08Q357.93,703.85,429.89,727a15.1,15.1,0,0,1,10.63,14.26v80.44a14,14,0,0,1-17,13.92C272,801,158.93,665.7,158.93,504.12c0-187.81,152.7-340.06,341.07-340.06S841.07,316.31,841.07,504.12C841.07,662.07,733.05,794.87,586.65,833.1Z"/></svg>