<svg width="1000" height="1000" viewBox="0 0 1000 1000" fill="none" xmlns="http://www.w3.org/2000/svg">
<path fill-rule="evenodd" clip-rule="evenodd" d="M500 995C773.381 995 995 773.381 995 500C995 226.619 773.381 5 500 5C226.619 5 5 226.619 5 500C5 773.381 226.619 995 500 995ZM201 285.731L346.731 140H415.99C397.232 150.822 335.188 228.016 319.317 285.731H201ZM486.691 140V285.731H346.731C356.591 255.671 391.75 184.441 453.505 140H486.691ZM514.828 285.731H656.23C623.333 207.238 569.898 155.872 547.293 140H514.828V285.731ZM798.355 285.731H683.645C665.609 242.445 633 182.709 586.251 140H651.18L798.355 285.731ZM315.709 714.268H201L348.174 860H413.104C366.355 817.291 333.745 757.555 315.709 714.268ZM343.124 714.268H484.527V860H452.062C429.457 844.128 376.022 792.761 343.124 714.268ZM512.663 714.268L512.663 860H545.85C607.605 815.559 642.764 744.329 652.623 714.269L512.663 714.268ZM652.623 860L798.355 714.269H680.038C664.166 771.984 602.122 849.178 583.365 860H652.623ZM647.431 378.292C665.876 378.292 681.195 385.639 693.387 400.332L724.337 360.004C715.271 349.374 704.016 341.403 690.573 336.088C677.443 330.461 662.437 327.647 645.555 327.647C633.988 327.647 622.577 329.679 611.323 333.743C600.068 337.495 589.908 343.435 580.842 351.563C572.088 359.691 564.898 370.008 559.271 382.513C553.956 394.705 551.299 409.398 551.299 426.593C551.299 440.348 553.018 452.228 556.457 462.232C560.209 471.924 565.054 480.521 570.994 488.024C577.247 495.214 584.281 501.467 592.096 506.781C600.225 512.096 608.822 516.942 617.888 521.318C632.269 528.509 644.149 536.324 653.527 544.765C662.906 553.206 667.595 564.617 667.595 578.998C667.595 593.691 663.688 605.102 655.872 613.23C648.056 621.358 638.209 625.423 626.329 625.423C615.7 625.423 605.227 622.922 594.91 617.92C584.906 612.918 576.309 606.04 569.118 597.286L538.638 638.553C548.016 649.495 560.521 658.561 576.153 665.751C591.784 672.942 608.822 676.537 627.267 676.537C640.084 676.537 652.277 674.348 663.844 669.972C675.411 665.595 685.415 659.186 693.856 650.745C702.609 641.992 709.487 631.362 714.489 618.857C719.804 606.352 722.461 591.972 722.461 575.715C722.461 561.647 720.273 549.455 715.896 539.138C711.519 528.821 705.892 519.911 699.014 512.409C692.136 504.906 684.477 498.497 676.036 493.182C667.595 487.867 659.311 483.178 651.183 479.114C637.427 472.236 626.329 465.046 617.888 457.543C609.447 449.727 605.227 438.785 605.227 424.717C605.227 416.589 606.321 409.555 608.509 403.615C611.01 397.675 614.293 392.829 618.357 389.078C622.421 385.326 626.954 382.669 631.956 381.106C636.958 379.23 642.116 378.292 647.431 378.292ZM466.421 608.541C471.423 594.16 473.924 578.06 473.924 560.24C473.924 541.795 471.579 525.851 466.89 512.409C462.513 498.966 456.417 488.024 448.601 479.583C441.098 470.829 432.189 464.421 421.872 460.356C411.868 455.98 401.395 453.791 390.453 453.791C385.451 453.791 380.137 454.573 374.509 456.136C369.195 457.699 364.818 460.044 361.379 463.17L360.91 462.701L428.437 336.088H367.006L301.355 464.577C293.539 479.583 287.131 495.058 282.129 511.002C277.439 526.633 275.094 543.515 275.094 561.647C275.094 579.154 277.439 594.942 282.129 609.01C287.131 623.078 294.008 634.958 302.762 644.649C311.515 654.34 321.988 661.843 334.181 667.158C346.373 672.16 359.816 674.661 374.509 674.661C388.89 674.661 402.177 672.16 414.369 667.158C426.561 661.843 437.034 654.34 445.788 644.649C454.541 634.645 461.419 622.609 466.421 608.541ZM409.211 511.94C416.714 524.445 420.465 540.388 420.465 559.771C420.465 580.092 416.401 596.661 408.273 609.479C400.457 621.984 389.359 628.236 374.978 628.236C360.597 628.236 349.343 622.14 341.215 609.948C333.086 597.443 329.022 581.03 329.022 560.709C329.022 551.018 330.116 542.108 332.305 533.98C334.493 525.851 337.619 518.817 341.684 512.877C345.748 506.625 350.593 501.779 356.221 498.34C361.848 494.902 368.257 493.182 375.447 493.182C390.453 493.182 401.708 499.435 409.211 511.94Z" fill="black"/>
</svg>
