<svg xmlns="http://www.w3.org/2000/svg" width="1000" height="1000">
  <path d="M710.784 204.87 745.85 56.43l-86.493-16.364-33.897 147.273c-17.532-11.689-52.597-17.533-70.13-17.533l35.066-148.441L502.732 5l-36.117 137.571c-10.285-4.441-88.48-31.909-171.935-52.246L267.797 204.87c59.61 19.87 126.234 17.533 113.377 51.429l-52.598 191.688-60.78 191.689c-22.207 43.246-44.415 32.727-86.493 19.87l-52.597 84.156 184.675 52.597-45.584 147.273 95.844 17.532 32.727-148.441 70.13-278.182c43.247 0 95.845 10.52 141.429 17.532 70.13 9.35 260.65-30.39 260.65-156.623 17.532-105.195-51.43-156.624-157.793-190.52zM432.602 978.637 502.732 995l52.598-137.923c137.922 35.065 244.285 18.702 296.883-129.74 16.363-67.792 0-140.26-35.065-175.325-40.91 9.35-136.753 35.065-175.325 35.065 35.065 16.364 46.753 52.598 35.065 86.494-17.532 87.662-98.182 70.13-169.48 53.766l-35.066 102.857zm50.26-545.845 57.273-158.96c32.727 0 188.182 33.895 170.65 121.558-33.897 105.195-170.65 52.597-227.923 37.402z" style="fill:#000;fill-opacity:1;fill-rule:nonzero;stroke:none;"/>
</svg>
