<svg xmlns="http://www.w3.org/2000/svg" viewBox="0 0 1000 1000"><path d="M5 500.496c0 271.98 220.55 494.507 495.496 494.507 271.98 0 494.507-220.55 494.507-495.496C995.003 227.528 773.464 5 500.496 5 226.54 5 5 225.55 5 500.496zm191.869 252.199c-95.935-57.363-69.231-190.88 33.626-242.309-6.923-7.912-14.835-11.868-21.758-19.78-88.022-54.396-91.978-161.21-11.868-219.561 33.626-26.704 70.22-51.429 102.857-74.176 11.868-7.912 19.78-7.912 30.66 0 52.417 32.637 102.857 70.22 155.275 106.813 80.11 54.396 161.21 112.748 238.352 169.122 11.869 6.923 18.792 6.923 29.67 0 74.177-39.56 104.836-116.704 32.638-166.155-25.714-17.802-47.472-35.604-73.187-50.44-10.879-9.89-17.802-9.89-29.67 0-25.715 16.814-54.396 36.594-81.1 54.396-18.79 9.89-28.68 1.978-55.384-17.802-4.945-1.978 7.912-8.901 11.868-11.868 43.517-29.67 84.066-58.352 127.583-88.022 8.901-6.923 15.824-6.923 22.747 0 36.594 26.703 74.176 51.428 110.77 78.132 97.912 60.33 71.209 148.352-36.594 242.308 112.748 70.22 129.561 166.155 29.67 243.298-32.637 20.77-70.22 47.473-103.846 69.23-6.923 7.913-13.846 7.913-25.714 0-81.1-59.34-161.21-114.725-247.254-172.088-46.483-33.626-93.956-67.253-143.407-103.846-13.846-6.923-17.802-10.88-32.637 0-75.165 42.527-100.88 118.682-36.594 161.21 25.715 18.79 48.462 33.626 73.187 53.406 18.791 12.857 18.791 12.857 37.583 0 37.582-28.681 87.033-62.308 95.934-62.308 9.89 5.934 25.715 16.813 36.594 24.725-19.78 18.792-104.836 79.122-140.44 102.858-6.923 6.923-14.836 3.956-22.748 0-16.813-15.824-36.593-25.714-54.395-40.55-18.792-11.868-33.627-24.725-52.418-36.593zm22.747-309.562c10.88 7.912 22.747 18.792 36.594 26.704 15.824 9.89 15.824 9.89 33.626 0 40.55-30.66 81.1-55.385 120.66-86.045 23.736-10.879 24.725-1.978 56.374 19.78-51.43 35.605-99.89 72.199-151.32 106.814 10.88 6.923 18.792 12.857 26.704 20.77 68.242 48.461 137.473 95.934 208.682 143.407 44.506 33.626 88.022 63.297 132.528 95.934 6.923 3.956 14.835 6.923 25.714 0 26.704-17.802 59.341-40.55 84.066-59.34 48.462-36.594 46.484-101.87 0-135.496-9.89-7.912-20.769-14.835-32.637-21.758-17.802-14.835-17.802-14.835-36.594 0-40.55 25.714-81.099 55.385-121.648 80.11-2.967 3.956-14.836 11.868-18.792 8.901-13.846-8.9-24.725-11.868-36.593-25.714 52.418-37.583 99.89-70.22 151.319-106.814-7.912-7.912-14.835-11.868-17.802-15.824-51.429-36.593-103.847-74.176-158.243-106.813-63.296-47.473-126.593-91.979-187.912-136.484-14.835-6.924-22.748-6.924-34.616 0-24.725 19.78-54.396 37.582-80.11 59.34-43.517 32.638-43.517 99.89 0 132.528z"/></svg>