<svg xmlns="http://www.w3.org/2000/svg" viewBox="0 0 1000 1000"><path d="M500,0C223.858,0,0,223.858,0,500s223.858,500,500,500,500-223.858,500-500S776.142,0,500,0ZM773.785,341.963a74.611,74.611,0,0,1-27.317,101.93l-71.144,41.07a196.6,196.6,0,0,1-45.945-14.146l99.474-57.42a39.408,39.408,0,1,0-39.411-68.256L474.773,469.064a74.535,74.535,0,0,1,37.292-62.182l159.772-92.227A74.635,74.635,0,0,1,773.785,341.963ZM425.359,258.548a74.636,74.636,0,0,1,149.272,0v82.131a196.879,196.879,0,0,1-35.22,32.708V258.548a39.416,39.416,0,0,0-78.831,0V506.375A74.563,74.563,0,0,1,425.359,443ZM226.205,341.963a74.641,74.641,0,0,1,101.949-27.308l71.144,41.07a196.14,196.14,0,0,1,10.715,46.845l-99.474-57.42a39.409,39.409,0,1,0-39.411,68.257l214.679,123.9a74.6,74.6,0,0,1-72.513-1.191L253.523,443.893A74.6,74.6,0,0,1,226.205,341.963Zm0,316.084a74.623,74.623,0,0,1,27.318-101.94l71.144-41.07a196.6,196.6,0,0,1,45.945,14.146L271.138,586.6a39.408,39.408,0,1,0,39.411,68.256L525.218,530.946a74.534,74.534,0,0,1-37.293,62.181L328.154,685.355A74.637,74.637,0,0,1,226.205,658.047Zm348.417,83.4a74.632,74.632,0,0,1-149.263.01V659.331a196.919,196.919,0,0,1,35.221-32.708V741.462a39.411,39.411,0,0,0,78.821,0V493.635a74.559,74.559,0,0,1,35.221,63.372Zm199.173-83.4a74.65,74.65,0,0,1-101.958,27.308l-71.144-41.07a196.212,196.212,0,0,1-10.716-46.845l99.474,57.419A39.408,39.408,0,1,0,728.862,586.6L514.193,462.7a74.61,74.61,0,0,1,72.513,1.191l159.771,92.227A74.6,74.6,0,0,1,773.8,658.047Z"/></svg>