<?xml version="1.0" encoding="utf-8"?>
<!-- Generator: Adobe Illustrator 26.0.1, SVG Export Plug-In . SVG Version: 6.00 Build 0)  -->
<svg version="1.1" id="Layer_1" xmlns="http://www.w3.org/2000/svg" xmlns:xlink="http://www.w3.org/1999/xlink" x="0px" y="0px"
	 viewBox="0 0 1000 1000" style="enable-background:new 0 0 1000 1000;" xml:space="preserve">
<path d="M650.9,536.3c1.6,4.9,2.5,9.9,2.5,15.1c0,5.1-0.8,10.2-2.5,15.1c-1.6,4.9-4.3,9.2-8.1,12.8c-3.7,3.6-8.1,6.1-13.1,7.5
	c-5,1.4-10.1,2.1-15.2,2.1h-35.4v-74.6h35.4c5.1,0,10.2,0.7,15.2,2.1c5,1.4,9.4,3.9,13.1,7.4C646.5,527.2,649.2,531.4,650.9,536.3z
	 M626.5,472.8c3.9-1.5,7-4,9.5-7.4c2.5-3.4,4.1-7.1,5.1-11c0.9-4,1.4-8.1,1.4-12.3c0-4-0.5-8-1.4-12.1c-0.9-4.1-2.6-7.8-5.1-11
	c-2.5-3.3-5.6-5.7-9.5-7.4c-3.9-1.6-7.9-2.5-12.1-2.5h-35.4v65.8h35.4C618.7,475.1,622.7,474.3,626.5,472.8z M446.4,477
	c1.6-3.6,2.5-7.3,2.5-11v-30.8c0-3.7-0.8-7.4-2.5-11c-1.6-3.6-4-6.6-7.2-8.9c-3.2-2.3-6.7-3.9-10.5-4.7c-3.9-0.8-7.8-1.2-11.7-1.2
	h-39.6v82.6H417c4,0,7.9-0.4,11.7-1.2c3.9-0.8,7.4-2.4,10.5-4.7C442.4,483.6,444.8,480.6,446.4,477z M995.3,500
	c0,273.4-221.6,495-495,495S5.3,773.4,5.3,500S226.9,5,500.3,5S995.3,226.6,995.3,500z M348.5,287.3h138.9V142.6h-32.9
	C393.2,186.7,358.3,257.4,348.5,287.3z M203.8,287.3h117.4c15.8-57.3,77.4-133.9,96-144.7h-68.8L203.8,287.3z M414.4,857.4
	C368,815,335.6,755.7,317.7,712.7H203.8l146.1,144.7H414.4z M485.3,712.7H344.9c32.7,77.9,85.7,128.9,108.2,144.7h32.2V712.7z
	 M499.3,627.7L439.8,529c7.2-1.6,14.2-4.1,21-7.5c6.8-3.4,12.7-8,17.7-13.8c5-5.8,8.5-12.4,10.5-19.6c2-7.2,3-14.6,3-22.1v-30.8
	c0-7.5-1.1-14.8-3.2-22.1c-2.1-7.2-5.6-13.8-10.5-19.6c-4.9-5.8-10.7-10.5-17.5-14c-6.8-3.5-13.9-5.9-21.4-7.2
	c-7.5-1.3-14.9-1.9-22.4-1.9h-82.6v257.3h43.1v-97h16.8l58.5,97H499.3z M586.2,142.6c46.4,42.4,78.8,101.7,96.7,144.7h113.9
	L650.7,142.6H586.2z M660,493.3c17-11,25.6-28,25.6-51.1c0-7.7-0.8-15.3-2.5-22.8c-1.6-7.5-4.6-14.5-8.8-21
	c-4.2-6.5-9.5-12-15.9-16.3c-6.4-4.3-13.4-7.4-21-9.1c-7.6-1.8-15.2-2.6-22.9-2.6h-78.4v257.3h78.4c8.6,0,17.1-0.8,25.4-2.5
	c8.3-1.6,16.2-4.6,23.6-8.9c7.5-4.3,13.8-9.9,18.9-16.8c5.1-6.9,8.8-14.5,10.9-22.8c2.1-8.3,3.2-16.7,3.2-25.4
	C696.4,523.6,684.2,504.2,660,493.3z M515.4,287.3h140.4c-32.7-77.9-85.8-128.9-108.2-144.7h-32.2V287.3z M652.1,712.7H513.2v144.7
	h32.9C607.4,813.3,642.3,742.6,652.1,712.7z M796.9,712.7H679.4c-15.8,57.3-77.4,133.9-96,144.7h68.8L796.9,712.7z"/>
</svg>
