<svg xmlns="http://www.w3.org/2000/svg" width="1000" height="1000">
  <path d="M736.296 622.9c-23.086 35.31-39.383 66.544-58.395 101.853-50.247 84.197-95.062 164.32-148.024 249.876C524.444 989.567 516.297 995 500 995H349.26c4.073-9.506 8.147-19.012 8.147-20.37l313.704-541.851c6.79-9.507 6.79-21.729 4.074-38.025-17.654-57.037-31.234-115.432-47.53-176.543l-10.865 20.37C476.914 484.382 335.68 728.827 193.087 974.63c-8.149 14.937-16.297 20.37-35.31 20.37H11.112c2.716-9.507 2.716-19.013 6.79-20.37C198.52 658.21 379.136 345.863 562.47 28.085 574.691 13.148 582.84 5 600.494 5c43.457 5.432 81.481 5.432 123.58 5.432 8.148 14.938 12.222 27.16 14.938 42.099 16.297 61.11 32.593 123.58 50.247 186.05 0 9.505 9.506 13.58 19.012 13.58h141.235c-5.432 8.147-8.148 13.58-13.58 19.012-27.16 51.605-57.037 100.493-84.198 152.098-8.148 9.507-8.148 19.013-4.074 29.877 47.531 169.753 88.272 343.58 135.803 514.691 4.074 6.79 4.074 13.58 5.432 21.728C983.457 995 975.309 995 969.876 995H855.802c-14.938 0-23.086-5.433-27.16-20.37-25.803-108.643-57.037-220-85.556-330-4.074-6.79-4.074-13.58-6.79-21.73z" style="fill:#000;fill-opacity:1;fill-rule:nonzero;stroke:none;"/>
</svg>
