<svg xmlns="http://www.w3.org/2000/svg" viewBox="0 0 1000 1000"><path d="M500,0C223.858,0,0,223.858,0,500s223.858,500,500,500,500-223.858,500-500S776.142,0,500,0Zm227.379,309.136l-43.538,43.5,2.426,6.46c5.089,13.491,8.506,29.018,10.6,47.825,.949,8.739,.807,40.7-.237,49.628-3.755,31.676-11.359,53.378-26.568,76.22-15.304,23.032-33.698,39.181-59.079,51.907-24,12.014-44.108,15.959-97.197,18.902-5.089,.285-29.753,.617-54.755,.76l-45.532,.237v208.387h-111.693l.142-197.892c.142-181.558,.19-198.556,.949-205.634,2.093-20.374,5.516-36.143,10.837-50.34l2.426-6.461-43.538-43.5-43.538-43.5,39.309-39.323,39.356-39.275,43.529,43.5,43.538,43.5,4.657-1.709c16.78-6.271,40.163-9.309,83.701-10.828,13.31-.427,20.34-.427,33.65,0,43.538,1.519,66.921,4.557,83.701,10.828l4.657,1.709,43.538-43.5,43.538-43.5,39.351,39.276,39.309,39.323-43.538,43.5Zm-141.19,119.564c1.092,28.244-10.206,51.741-31.851,66.314-19.035,12.769-42.01,16.044-112.928,16.044h-27.912l.142-44.763c.19-43.861,.19-44.81,1.234-50.032,3.133-15.807,9.494-27.674,20.601-38.402,12.769-12.294,28.434-19.082,48.56-21.029,2.896-.285,5.886-.617,6.646-.712,3.133-.427,21.741,.142,27.247,.902,19.984,2.563,34.035,8.877,46.472,20.839,6.076,5.839,10.111,11.155,13.576,17.848,5.079,9.731,7.737,20.411,8.212,32.991Z"/></svg>