<svg width="33" height="32" viewBox="0 0 33 32" fill="none" xmlns="http://www.w3.org/2000/svg">
<g clip-path="url(#clip0_3393:12205)">
<path fill-rule="evenodd" clip-rule="evenodd" d="M16.4338 31.84C25.1819 31.84 32.2738 24.7482 32.2738 16C32.2738 7.25184 25.1819 0.160034 16.4338 0.160034C7.68556 0.160034 0.59375 7.25184 0.59375 16C0.59375 24.7482 7.68556 31.84 16.4338 31.84ZM6.86471 9.14339L11.5281 4.47998H13.7444C13.1441 4.82628 11.1587 7.2965 10.6508 9.14339H6.86471ZM16.0068 4.47998V9.14339H11.5281C11.8436 8.18147 12.9687 5.90209 14.9449 4.47998H16.0068ZM16.9072 9.14339H21.4321C20.3794 6.63162 18.6694 4.98788 17.9461 4.47998H16.9072V9.14339ZM25.9801 9.14339H22.3094C21.7322 7.75822 20.6887 5.84669 19.1927 4.47998H21.2705L25.9801 9.14339ZM10.5355 22.8566H6.8648L11.5744 27.52H13.6521C12.1561 26.1533 11.1127 24.2417 10.5355 22.8566ZM11.4128 22.8566H15.9377L15.9377 27.52L14.8988 27.52C14.1754 27.0121 12.4655 25.3683 11.4128 22.8566ZM16.838 22.8566V27.52H17.9C19.8762 26.0979 21.0012 23.8185 21.3167 22.8566L16.838 22.8566ZM21.3167 27.52L25.9801 22.8566H22.194C21.6861 24.7035 19.7007 27.1737 19.1005 27.52H21.3167ZM7.32812 20.0001H12.2361V18.6681H8.81612V15.9921H11.4441V14.6601H8.81612V12.5121H12.2361V11.1801H7.32812V20.0001ZM13.8462 20.0001H15.3222V16.1601H17.6742V20.0001H19.1502V11.1801H17.6742V14.8161H15.3222V11.1801H13.8462V20.0001ZM22.2362 20.0001H20.7603V11.1801H23.5923C23.8483 11.1801 24.1042 11.2041 24.3603 11.2521C24.6163 11.2921 24.8603 11.3721 25.0923 11.4921C25.3243 11.6121 25.5243 11.7721 25.6922 11.9721C25.8602 12.1721 25.9802 12.3961 26.0522 12.6441C26.1243 12.8921 26.1602 13.1441 26.1602 13.4001V14.4561C26.1602 14.7121 26.1243 14.9641 26.0522 15.2121C25.9883 15.4601 25.8682 15.6841 25.6922 15.8841C25.5243 16.0841 25.3243 16.2441 25.0923 16.3641C24.8603 16.4761 24.6202 16.5601 24.3722 16.6161L26.4123 20.0001H24.8162L22.8123 16.6761H22.2362V20.0001ZM22.2362 12.5121V15.3441H23.5923C23.7283 15.3441 23.8603 15.3321 23.9883 15.3081C24.1243 15.2761 24.2442 15.2201 24.3482 15.1401C24.4602 15.0601 24.5443 14.9601 24.6003 14.8401C24.6562 14.7121 24.6842 14.5841 24.6842 14.4561V13.4001C24.6842 13.2721 24.6562 13.1481 24.6003 13.0281C24.5443 12.9001 24.4602 12.7961 24.3482 12.7161C24.2442 12.6361 24.1243 12.5841 23.9883 12.5601C23.8603 12.5281 23.7283 12.5121 23.5923 12.5121H22.2362Z" fill="black"/>
</g>
<defs>
<clipPath id="clip0_3393:12205">
<rect width="32" height="32" fill="white" transform="translate(0.441406)"/>
</clipPath>
</defs>
</svg>
