<svg xmlns="http://www.w3.org/2000/svg" width="1000" height="1000">
  <path d="M283.939 897.338h212.716c9.365 0 14.716-2.675 21.405-9.365 36.122-36.121 72.244-72.243 107.028-108.365 2.675-4.013 6.689-6.689 9.364-9.364-2.675 0-9.364-1.338-12.04-1.338H472.574c-10.703 0-17.392-1.338-25.419-10.703L241.128 552.176c-9.365-8.027-10.703-13.378-10.703-25.419V379.595c0-2.676-1.338-5.351-1.338-6.69-2.675 1.339-4.013 2.676-5.35 4.014-37.46 33.446-72.244 69.568-108.366 105.69-6.689 6.689-9.365 13.378-9.365 21.405v105.689c0 36.122 2.676 72.243 0 107.027 0 9.365 2.676 17.392 10.703 24.081l148.5 148.5c4.014 6.69 10.703 8.027 18.73 8.027zM7.006 768.906V455.852l9.365-9.365C160.858 302 305.344 161.527 445.817 17.04c2.676-2.676 5.352-5.352 9.365-12.04h318.406c6.689 8.026 9.364 12.04 13.378 18.729 64.216 64.216 128.432 127.095 192.649 191.31 8.027 9.366 13.378 16.055 13.378 28.095a10021.787 10021.787 0 0 0 0 283.622c0 10.703-2.676 17.392-10.703 26.757-76.256 76.257-153.851 149.838-227.432 230.108-62.879 68.23-129.77 131.108-195.325 195.324-8.027 9.365-17.391 16.054-30.77 13.379-92.31 0-183.284 0-276.932 2.675-14.717 0-22.744-6.689-33.446-16.054C152.83 912.054 88.615 847.838 23.06 783.622c-5.351-8.027-10.702-10.703-16.054-14.716zm318.406-276.933c0 6.69 1.338 12.04 6.689 17.392 54.851 50.838 105.69 107.027 157.865 157.865 5.351 5.351 8.027 6.69 14.716 6.69h160.54c8.028 0 8.028-2.676 8.028-9.366V501.338c0-6.689-1.338-12.04-6.69-16.054a4098.759 4098.759 0 0 0-152.513-152.513c-4.014-5.352-8.027-6.69-13.378-6.69H334.777c-8.027 0-9.365 2.676-9.365 9.365zm48.162-262.216c1.338 0 4.013 1.338 5.351 1.338h151.176c10.703-1.338 20.068 1.338 26.757 10.703 66.892 66.891 132.446 133.783 200.675 199.337 9.365 8.027 10.703 17.392 10.703 29.433v151.176c0 1.337 1.338 4.013 2.676 5.35l2.676-2.675c40.135-38.797 78.932-78.932 119.067-115.054 4.014-6.689 4.014-12.04 4.014-18.73V283.271c0-8.027-1.338-13.379-8.027-18.73-50.838-50.838-103.014-101.676-153.852-153.852-5.351-6.689-13.378-8.027-20.067-8.027h-204.69c-9.364 0-16.054 1.338-22.743 8.027-36.121 37.46-73.58 73.582-109.703 109.703-2.675 4.014-2.675 6.69-4.013 9.365z" style="fill:#000;fill-opacity:1;fill-rule:nonzero;stroke:none;"/>
</svg>
