<svg xmlns="http://www.w3.org/2000/svg" width="1000" height="1000">
  <path d="M501.262 995.004c-274.931 0-496.894-228.268-495.633-500.677C6.891 224.44 231.376 5 503.784 5c269.887 0 490.588 224.485 490.588 494.37 0 274.931-220.701 495.633-493.11 495.633zM103.999 529.639c7.567 99.631 46.663 182.867 117.287 253.492 5.045-10.09 6.306-23.962 10.09-34.052 2.522-7.566 2.522-13.872-3.784-21.44-76.93-95.847-100.892-203.045-71.886-322.854 13.873-50.446 39.096-95.847 73.147-136.204 2.523-2.523 5.045-7.567 2.523-10.09-2.523-15.133-5.045-26.484-10.09-41.618C134.266 305.154 95.171 408.568 104 529.64zm105.937 8.828c6.306 54.23 29.006 103.415 64.319 147.555 1.26 0 8.828 5.044 10.089 2.522 7.567-2.522 13.873-2.522 21.44-7.567-95.848-119.81-95.848-240.88 0-364.473-2.523 0-7.567-1.26-11.35-1.26-16.396-6.306-16.396-6.306-26.485 7.566-50.446 64.319-68.102 136.205-58.013 215.657zm25.223-314.027c6.306 41.618 37.835 74.408 78.191 83.236 7.567 1.262 10.09 2.523 10.09 11.35v359.429c0 7.567-2.523 12.611-10.09 16.395-6.305 0-15.133 1.261-21.44 5.045-47.923 20.178-70.624 78.19-50.445 128.637 21.44 49.185 75.669 71.886 126.115 52.968 49.185-15.133 75.669-71.885 60.535-122.331-3.783-7.567-2.522-12.612 6.306-15.134 93.325-55.49 189.173-109.72 279.976-162.689 13.872-10.089 25.223-15.134 41.618-22.7 40.356 50.446 98.37 49.184 136.204 22.7 40.357-29.006 54.23-84.497 30.268-126.115-22.701-42.88-73.147-64.319-118.549-49.185-25.223 10.09-42.879 23.962-55.49 46.663-16.395 27.745-16.395 56.752-2.523 88.28-112.242 61.797-221.962 126.116-332.944 189.173-17.656-22.7-40.356-34.05-69.363-41.618v-372.04c0-7.567 5.045-7.567 10.09-8.828 41.617-10.089 68.101-35.312 76.93-75.669 7.566-41.618-5.045-75.669-37.835-102.153-32.79-22.7-69.363-25.223-107.198-7.567-36.573 21.44-56.752 63.058-50.446 102.153zm18.917-13.872c0-44.14 34.051-76.93 76.93-80.714 42.88 0 78.192 34.051 79.453 75.67 3.783 39.095-27.745 78.19-66.841 80.713v-46.663c0-2.522 5.045-5.044 6.306-5.044 10.089-10.09 13.872-20.179 10.089-34.052-3.783-10.089-13.873-17.656-26.484-17.656-12.612 0-23.962 5.045-27.746 17.656-2.522 13.873 1.262 23.962 11.35 32.79 2.523 3.784 6.307 7.567 6.307 11.35v39.096l-2.523 2.523c-35.312 0-66.84-36.574-66.84-75.67zM256.6 773.04c7.566-31.528 35.312-58.013 66.84-60.535v46.663c0 2.522-3.783 3.783-6.305 5.044-11.35 11.35-15.134 23.962-10.09 37.835 3.784 12.611 16.396 18.917 30.268 17.656 15.134-2.522 22.701-13.873 25.223-29.007 0-2.522 1.261-7.566 3.784-7.566 11.35-7.567 25.223-16.395 39.095-21.44 13.873 21.44 5.045 59.274-13.872 80.714-25.223 27.745-64.319 34.05-95.848 17.656-31.529-17.656-49.185-54.23-39.095-87.02zm87.019-13.872v-46.663c22.7 2.522 37.835 12.612 51.707 31.529-13.872 7.567-27.745 12.611-39.095 20.178-6.306 2.523-12.612 0-12.612-5.044zm18.917-259.798c0 78.192 61.797 138.727 138.727 138.727 74.408 0 137.465-60.535 137.465-138.727 0-75.669-63.057-137.465-137.465-137.465-76.93 0-138.727 61.796-138.727 137.465zm34.051 384.652c92.064 29.006 224.485 18.917 332.944-59.274 78.192-55.491 129.899-129.9 156.383-224.485-11.35 2.522-23.962 7.566-35.312 8.828-7.567 1.26-11.35 5.044-15.134 12.611C795.11 727.64 719.441 802.048 612.243 838.621c-56.752 21.44-117.287 22.7-177.822 11.35-2.522 0-6.306 0-8.828 3.784-11.35 10.09-20.179 20.178-29.007 30.268zm2.523-766.78c6.305 7.566 13.872 16.394 22.7 26.484 3.784 5.044 8.828 5.044 16.395 5.044 88.281-15.134 168.995 0 244.664 45.402 73.147 42.879 123.593 104.675 153.86 182.867 0 3.783 2.523 10.089 6.306 11.35 13.873 3.784 27.745 6.306 40.357 10.09C835.468 192.911 607.2 52.923 399.11 117.241zm40.357 644.448c2.522 2.522 3.783 11.35 3.783 13.873-1.261 10.089 5.045 12.611 12.612 15.133 51.707 5.045 100.892 1.262 148.815-16.395 80.714-32.79 138.727-88.28 168.995-171.516 1.26-2.522 1.26-7.567 0-10.09-6.306-5.044-12.612-10.089-17.656-12.61-58.013 139.987-161.428 201.783-316.55 181.605zm2.522-522.117c152.6-20.178 256.014 40.357 314.027 181.606 5.044-3.783 10.089-7.567 12.611-8.828 6.306-6.306 7.567-10.09 5.045-17.656-17.656-50.446-49.185-92.064-93.326-124.854-66.84-52.969-145.032-71.886-228.268-59.274-2.522 0-6.306 3.783-8.828 6.305-1.261 7.567-1.261 16.395-1.261 22.701zM763.582 529.64c-15.134-22.7-7.567-73.147 32.79-98.37 36.573-22.7 83.235-10.089 107.197 27.746 21.44 36.573 11.35 85.758-25.223 107.197-35.312 23.962-83.236 13.873-104.675-17.656 13.872-7.567 26.484-15.134 40.357-25.223 1.26 0 7.566 0 8.828 1.261 12.611 8.828 23.962 2.523 34.05-5.044 8.829-10.09 8.829-22.7 2.523-35.312-6.306-10.09-17.656-15.134-30.268-11.35-13.872 1.26-21.44 11.35-22.7 23.961 0 5.045-2.523 8.828-6.306 10.09-12.612 8.827-25.223 15.133-36.573 22.7z" style="fill:#000;fill-opacity:1;fill-rule:nonzero;stroke:none;"/>
</svg>
