<svg width="32" height="32" viewBox="0 0 32 32" fill="none" xmlns="http://www.w3.org/2000/svg">
<path d="M9.24525 0.0640259L2.78125 6.52803H8.02925C8.73325 3.96803 11.4852 0.544026 12.3172 0.0640259H9.24525Z" fill="black"/>
<path d="M15.4532 6.52803V0.0640259H13.9812C11.242 2.03523 9.68258 5.19469 9.24525 6.52803H15.4532Z" fill="black"/>
<path d="M16.7012 6.52803H22.9732C21.514 3.04643 19.1439 0.768026 18.1412 0.0640259H16.7012V6.52803Z" fill="black"/>
<path d="M24.1892 6.52803H29.2772L22.7492 0.0640259H19.8692C21.9428 1.95843 23.3892 4.60803 24.1892 6.52803Z" fill="black"/>
<path d="M22.8133 32L29.2773 25.536L24.0293 25.536C23.3253 28.096 20.5733 31.52 19.7413 32L22.8133 32Z" fill="black"/>
<path d="M16.6053 25.536L16.6053 32L18.0773 32C20.8165 30.0288 22.376 26.8693 22.8133 25.536L16.6053 25.536Z" fill="black"/>
<path d="M15.3573 25.536L9.08535 25.536C10.5445 29.0176 12.9147 31.296 13.9173 32L15.3573 32L15.3573 25.536Z" fill="black"/>
<path d="M7.86935 25.536L2.78135 25.536L9.30935 32L12.1893 32C10.1157 30.1056 8.66935 27.456 7.86935 25.536Z" fill="black"/>
<path d="M2.8125 22H4.7965V19.648C4.7965 19.04 4.7805 18.4373 4.7485 17.84C4.72717 17.232 4.67383 16.6293 4.5885 16.032C4.50317 15.4347 4.4125 14.8427 4.3165 14.256C4.23117 13.6587 4.16717 13.056 4.1245 12.448L6.1565 18.464H7.4045L9.4365 12.448C9.39383 13.056 9.3245 13.6587 9.2285 14.256C9.14317 14.8427 9.05783 15.4347 8.9725 16.032C8.89783 16.6293 8.8445 17.232 8.8125 17.84C8.7805 18.4373 8.7645 19.04 8.7645 19.648V22H10.7485V10.24H8.9405L6.7805 16.64L4.6205 10.24H2.8125V22Z" fill="black"/>
<path d="M15.9193 22.128C16.2393 22.128 16.5539 22.1013 16.8632 22.048C17.1832 21.9947 17.4873 21.9093 17.7753 21.792C18.0739 21.6747 18.3459 21.5147 18.5913 21.312C18.8366 21.0987 19.0339 20.848 19.1833 20.56C19.3433 20.272 19.4393 19.9733 19.4713 19.664C19.5139 19.344 19.5352 19.024 19.5352 18.704V15.44H15.9993V17.216H17.5673V18.704C17.5673 18.928 17.5406 19.152 17.4873 19.376C17.4339 19.5893 17.3219 19.7707 17.1512 19.92C16.9806 20.0693 16.7886 20.1813 16.5752 20.256C16.3619 20.32 16.1433 20.352 15.9193 20.352C15.7059 20.352 15.4926 20.32 15.2793 20.256C15.0766 20.1813 14.8953 20.064 14.7353 19.904C14.5753 19.744 14.4633 19.5573 14.3993 19.344C14.3353 19.1307 14.3033 18.9173 14.3033 18.704V13.536C14.3033 13.312 14.3353 13.0933 14.3993 12.88C14.4739 12.6667 14.5913 12.48 14.7513 12.32C14.9113 12.16 15.0979 12.048 15.3112 11.984C15.5246 11.92 15.7432 11.888 15.9672 11.888C16.2232 11.888 16.4793 11.9307 16.7353 12.016C16.9913 12.1013 17.1992 12.256 17.3593 12.48C17.5192 12.6933 17.5992 12.9333 17.5992 13.2H19.5673C19.5673 12.752 19.4713 12.32 19.2793 11.904C19.0979 11.488 18.8312 11.1413 18.4792 10.864C18.1273 10.576 17.7326 10.3787 17.2952 10.272C16.8579 10.1653 16.4152 10.112 15.9672 10.112C15.6472 10.112 15.3326 10.1387 15.0233 10.192C14.7139 10.2347 14.4099 10.3253 14.1112 10.464C13.8232 10.592 13.5619 10.7627 13.3273 10.976C13.0926 11.1893 12.8953 11.4347 12.7353 11.712C12.5859 11.9893 12.4792 12.2827 12.4152 12.592C12.3619 12.9013 12.3352 13.216 12.3352 13.536V18.704C12.3352 19.0773 12.3779 19.4507 12.4633 19.824C12.5593 20.1867 12.7192 20.5227 12.9432 20.832C13.1672 21.1307 13.4392 21.3813 13.7592 21.584C14.0899 21.7867 14.4366 21.9253 14.7993 22C15.1726 22.0853 15.5459 22.128 15.9193 22.128Z" fill="black"/>
<path d="M25.186 22.128C25.634 22.128 26.0767 22.0747 26.514 21.968C26.9513 21.8613 27.346 21.6693 27.698 21.392C28.05 21.104 28.3167 20.752 28.498 20.336C28.69 19.92 28.786 19.488 28.786 19.04H26.818C26.818 19.296 26.738 19.536 26.578 19.76C26.418 19.984 26.21 20.1387 25.954 20.224C25.698 20.3093 25.442 20.352 25.186 20.352C24.962 20.352 24.7433 20.32 24.53 20.256C24.3167 20.192 24.13 20.08 23.97 19.92C23.81 19.76 23.6927 19.5733 23.618 19.36C23.554 19.1467 23.522 18.928 23.522 18.704V13.536C23.522 13.312 23.554 13.0933 23.618 12.88C23.6927 12.6667 23.81 12.48 23.97 12.32C24.13 12.16 24.3167 12.048 24.53 11.984C24.7433 11.92 24.962 11.888 25.186 11.888C25.442 11.888 25.698 11.9307 25.954 12.016C26.21 12.1013 26.418 12.256 26.578 12.48C26.738 12.6933 26.818 12.9333 26.818 13.2H28.786C28.786 12.752 28.69 12.32 28.498 11.904C28.3167 11.488 28.05 11.1413 27.698 10.864C27.346 10.576 26.9513 10.3787 26.514 10.272C26.0767 10.1653 25.634 10.112 25.186 10.112C24.866 10.112 24.546 10.1387 24.226 10.192C23.9167 10.2347 23.618 10.3253 23.33 10.464C23.042 10.592 22.7807 10.7627 22.546 10.976C22.3113 11.1893 22.114 11.4347 21.954 11.712C21.8047 11.9893 21.698 12.2827 21.634 12.592C21.5807 12.9013 21.554 13.216 21.554 13.536V18.704C21.554 19.024 21.5807 19.3387 21.634 19.648C21.698 19.9573 21.8047 20.2507 21.954 20.528C22.114 20.8053 22.3113 21.0507 22.546 21.264C22.7807 21.4773 23.042 21.6533 23.33 21.792C23.618 21.92 23.9167 22.0053 24.226 22.048C24.546 22.1013 24.866 22.128 25.186 22.128Z" fill="black"/>
</svg>
