<svg xmlns="http://www.w3.org/2000/svg" viewBox="0 0 1000 1000"><path d="M500,995c273.38,0,495-221.62,495-495S773.38,5,500,5,5,226.62,5,500,226.62,995,500,995ZM203.64,285.73,349.37,140h69.26c-18.76,10.82-80.8,88-96.68,145.73ZM489.33,140V285.73h-140c9.86-30.06,45-101.29,106.77-145.73Zm28.14,145.73h141.4C626,207.24,572.53,155.87,549.93,140H517.47Zm283.52,0H686.28c-18-43.28-50.64-103-97.39-145.73h64.93ZM318.35,714.27H203.64L350.81,860h64.93C369,817.29,336.38,757.55,318.35,714.27Zm27.41,0h141.4V860H454.7C432.09,844.13,378.66,792.76,345.76,714.27Zm169.54,0V860h33.19c61.75-44.44,96.91-115.67,106.77-145.73ZM655.26,860,801,714.27H682.67C666.8,772,604.76,849.18,586,860ZM391.61,650.78l.83-225.67h-1.25l-58.9,225.67h-39L235.63,425.11h-1.24l.83,225.67H190V357.08h66.79L313.2,572h1.66L370,357.08h70.1v293.7Zm277.56-82.14q0,23.24-7.89,39a74.62,74.62,0,0,1-19.49,25.3,71.39,71.39,0,0,1-26.55,13.69,103.68,103.68,0,0,1-28.62,4.15H499.5V357.08h78a123.29,123.29,0,0,1,27.38,3.32,70.76,70.76,0,0,1,26.55,11.2q12,7.89,19.91,22.4,7.88,14.1,7.88,36.92,0,27.38-11.61,43.14t-27,22v.83a60.94,60.94,0,0,1,16.59,7.05A53.78,53.78,0,0,1,653,518a72.49,72.49,0,0,1,11.61,21.58Q669.18,552,669.17,568.64ZM614.41,438.8q0-11.19-3.73-18.66a34.75,34.75,0,0,0-22-19.5,57.19,57.19,0,0,0-15.35-2.08H546v81.73h28.21a51.28,51.28,0,0,0,14.52-2.08,34.94,34.94,0,0,0,12.86-7.47,34,34,0,0,0,9.13-12.85Q614.4,450,614.41,438.8Zm7.05,125.7q0-12.87-4.15-21.58a39.12,39.12,0,0,0-10.78-14.51,40.37,40.37,0,0,0-14.52-8.3,52.12,52.12,0,0,0-15.77-2.49H546V609.3h31.53a56.23,56.23,0,0,0,17-2.49,40.41,40.41,0,0,0,13.69-8.3,38.55,38.55,0,0,0,9.54-14.1Q621.47,576.12,621.46,564.5ZM788,650.78V399.39h55.17V357.08H683.92v42.31h55.17V650.78Z" fill-rule="evenodd"/></svg>