<svg xmlns="http://www.w3.org/2000/svg" width="1000" height="1000">
  <path d="M500 9.496c253.537-7.244 495 211.28 495 488.964 0 282.512-226.975 492.586-501.037 492.586C213.866 991.046 5 760.448 5 498.46 5 228.02 235.597-3.784 500 9.496zM78.646 508.118C85.89 719.4 260.951 917.4 493.963 917.4c224.562 4.83 408.074-184.72 415.318-403.244C926.183 269.07 718.525 83.143 500 83.143 276.646 77.106 71.402 275.106 78.646 508.118zm182.305 101.415V534.68h55.537v-73.646c2.414 0-32.598-1.207-54.33-1.207 0 0-1.207-45.878-1.207-74.854h55.537v-171.44h121.939c1.207 0 1.207 0 1.207 28.977v141.256c0 1.207 0 1.207 35.012 1.207h100.208v74.854h-135.22v74.853h135.22v74.854H440.84c-1.207 0-1.207 6.037-1.207 19.317 0 70.025 1.207 66.403 1.207 62.78h286.135v95.379H316.488V609.533z" style="fill:#000;fill-opacity:1;fill-rule:nonzero;stroke:none;"/>
</svg>
