<svg xmlns="http://www.w3.org/2000/svg" viewBox="0 0 1000 1000">
	<path
		d="M676.5 75.1l-352.1-.4L75.1 323.5l-.4 352.1 248.7 249.3 352.1.4 249.3-248.7.4-352.1L676.5 75.1zM985 299.7L701.3 15.4 299.7 15 15.4 298.7 15 700.3l283.7 284.3 401.6.4 284.3-283.7.4-401.6zM360.7 657c8.7 0 17.3-.7 25.8-2.2 8.7-1.5 17.1-3.8 24.9-7 8.2-3.2 15.6-7.6 22.3-13.1 6.7-5.8 12.1-12.7 16.2-20.6 4.4-7.9 7-16 7.9-24.5 1.2-8.7 1.7-17.5 1.7-26.2v-89.2h-96.6v48.5h42.9v40.7c0 6.1-.7 12.2-2.2 18.4-1.5 5.8-4.5 10.8-9.2 14.9s-9.9 7.1-15.7 9.2c-5.8 1.7-11.8 2.6-17.9 2.6-5.8 0-11.7-.9-17.5-2.6-5.5-2-10.5-5.2-14.9-9.6-4.4-4.4-7.4-9.5-9.2-15.3s-2.6-11.7-2.6-17.5V422.2c0-6.1.9-12.1 2.6-17.9 2-5.8 5.2-10.9 9.6-15.3 4.4-4.4 9.5-7.4 15.3-9.2 5.8-1.7 11.8-2.6 17.9-2.6 7 0 14 1.2 21 3.5s12.7 6.6 17.1 12.7c4.4 5.8 6.6 12.4 6.6 19.7h53.8c0-12.2-2.6-24-7.9-35.4-5-11.4-12.2-20.8-21.9-28.4-9.6-7.9-20.4-13.3-32.4-16.2-12-2.9-24-4.4-36.3-4.4-8.7 0-17.3.7-25.8 2.2-8.5 1.2-16.8 3.6-24.9 7.4-7.9 3.5-15 8.2-21.4 14-6.4 5.8-11.8 12.5-16.2 20.1-4.1 7.6-7 15.6-8.7 24-1.5 8.5-2.2 17.1-2.2 25.8v141.2c0 10.2 1.2 20.4 3.5 30.6 2.6 9.9 7 19.1 13.1 27.5 6.1 8.2 13.6 15 22.3 20.6 9 5.5 18.5 9.3 28.4 11.4 10.2 2.3 20.4 3.5 30.6 3.5zm171.9-3.5h178.8V605H586.9v-97.5h95.8V459h-95.8v-78.3h124.6v-48.5H532.6v321.3z"
		fill-rule="evenodd" clip-rule="evenodd" />
</svg>