<svg xmlns="http://www.w3.org/2000/svg" width="1000" height="1000">
  <path d="M500.496 5C223.572 5 5 229.506 5 500.002c0 276.43 224.506 495.001 495.002 495.001 276.43 0 495.001-224.506 495.001-495.001C995.003 226.539 773.464 5 500.496 5zm-321.43 303.627c-11.868-13.846-6.923-25.714 10.88-31.648 29.67-11.868 55.384-7.912 81.099 2.967 37.582 10.88 70.22-6.923 70.22-47.473 0-33.626 14.835-62.308 36.593-89.011h17.803c37.582 51.429 63.297 109.78 58.351 177.034v110.77c0 25.714-9.89 35.604-35.604 25.714-44.506-14.836-85.055-33.627-129.56-48.462-47.474-21.758-80.111-55.385-109.781-99.89zm2.968 276.924c-2.967-7.912-6.924-21.758 0-26.703 33.626-39.56 71.209-76.154 106.813-113.737 3.956-2.967 19.78-2.967 22.747 0 32.638 11.869 66.264 21.759 99.89 33.627 36.594 17.802 69.232-3.956 69.232-47.473v-91.978c0-18.791 6.923-26.704 21.758-33.627 85.055-32.637 165.166-25.714 240.33 33.627 69.232 54.396 98.902 131.539 84.067 219.561-7.912 78.132-52.418 133.517-114.726 173.077-31.648 22.748-65.275 44.506-102.857 59.341-48.462 18.792-84.066 44.506-110.77 88.023h-13.846c-6.923-9.89-14.835-17.803-17.802-28.682-33.627-91.978-7.912-174.066 58.352-243.297 51.428-58.352 113.736-95.935 186.923-117.693 7.912-2.967 26.704-2.967 18.791-18.791-3.956-13.846-18.79-7.912-25.714-3.956-117.693 26.703-217.583 85.055-301.65 170.11-22.747 21.758-40.549 47.473-59.34 70.22-10.88 6.923-17.802 21.758-32.638 10.88-14.835-7.913-14.835-22.748-6.923-37.583 17.803-35.605 36.594-77.143 55.385-116.704 0-7.912 6.923-11.868 6.923-14.835 0-7.912 3.956-23.737-3.956-26.704-2.967-2.967-18.791-6.923-21.758-2.967-36.594 14.836-70.22 32.638-103.847 50.44-10.879 7.912-17.802 15.824-28.681 19.78-6.923 0-22.747 0-26.703-3.956zm29.67-272.968c10.88 7.913 18.791 14.836 29.67 26.704h11.869c6.923-7.912 10.879-18.791 13.846-26.704-6.923-3.956-13.846-6.923-21.759-10.879h-29.67c0 3.956-3.956 6.923-3.956 10.88zm162.198-84.066c-2.967 3.956 0 9.89 3.956 9.89 7.913 0 13.847 0 25.715-2.967 0 0 2.967-6.923 2.967-10.879-2.967-9.89-10.88-25.714-17.802-36.593h-7.913c-2.967 10.879-6.923 26.703-6.923 40.55zM487.64 831.816c34.615-21.758 66.264-44.506 91.978-62.308-25.714-17.802-54.395-37.583-87.033-59.34-14.835 41.538-14.835 81.098-4.945 121.648z" style="fill:#000;fill-opacity:1;fill-rule:nonzero;stroke:none;"/>
</svg>
