<svg xmlns="http://www.w3.org/2000/svg" width="1000" height="1000">
  <path d="M5 918.19c44.017-190.024 88.034-376.828 136.345-567.926H289.5c10.736-48.312 21.472-92.329 32.208-138.493h148.155c13.956-47.238 24.692-90.181 35.428-133.125 111.653-3.22 222.232-3.22 321.002 51.532 19.325 9.663 40.797 24.693 56.9 40.797 105.212 90.18 132.052 206.128 97.697 337.106-24.693 113.8-94.476 201.834-185.73 274.838-106.286 82.666-225.454 130.977-360.726 133.124-137.419 2.148-273.764 2.148-412.257 6.442-3.22 0-8.588-4.294-17.177-4.294zm70.857-47.237c15.03 2.147 26.84 2.147 36.502 2.147 89.107 0 177.141-5.368 264.102-5.368 134.198 0 259.808-35.428 366.093-119.168 79.445-63.342 146.007-138.493 174.994-236.189 32.208-112.726 12.883-215.79-75.15-298.457-82.667-74.077-182.51-92.328-293.09-81.592-5.368 25.766-9.662 48.311-15.03 71.93 5.368 3.22 7.515 5.368 9.662 5.368 20.398 0 40.797 2.147 61.195 2.147 110.579 7.515 201.834 84.813 225.453 193.245 15.03 66.563-2.147 125.61-35.429 182.51-70.856 120.242-183.583 184.657-322.075 197.54-88.035 6.441-176.069 2.147-265.176 2.147-4.295 0-9.663-2.147-21.472-2.147 31.134-129.904 60.12-254.44 91.255-380.05-13.957-3.22-19.325-5.367-27.913-5.367h-63.342c-38.649 156.743-74.077 314.56-110.58 471.304zm185.73-135.272c81.593-2.147 162.112 4.294 246.925-7.515-16.104-53.68-33.281-101.99-52.606-156.744h-98.77c3.221-17.177 5.368-35.428 12.883-51.532 6.442 0 11.81-2.147 15.03-2.147h109.506c27.914 0 54.753-7.515 78.372-27.913 30.06-27.913 21.472-71.93-16.104-82.666-15.03-5.368-31.134-7.515-46.164-7.515H372.166c-34.354 0-34.354 0-40.796 33.28-23.619 89.108-46.164 180.363-65.489 272.692-2.147 8.588-4.294 15.03-4.294 30.06zm88.034-388.638c16.104 3.22 30.06 3.22 40.796 3.22h190.025c52.606 6.442 81.593 40.797 77.298 92.329-3.22 52.606-34.354 85.887-77.298 111.653-12.883 6.441-31.134 12.883-46.164 20.398 9.662 45.09 26.84 90.181 44.017 133.125 91.255-42.944 158.89-104.138 187.878-199.687 33.28-106.285-20.399-201.834-124.536-235.116-22.546-5.368-47.238-9.662-68.71-11.81h-173.92c-10.737 0-19.325 2.148-28.988 2.148-7.515 27.913-12.883 54.753-20.398 83.74z" style="fill:#000;fill-opacity:1;fill-rule:nonzero;stroke:none;"/>
</svg>
