<svg xmlns="http://www.w3.org/2000/svg" viewBox="0 0 1000 1000"><path d="M500.496 5C223.572 5 5 229.506 5 500.002c0 276.43 224.506 495.001 495.002 495.001 276.43 0 495.001-224.506 495.001-495.001C995.003 226.539 773.464 5 500.496 5zm-279.89 789.233V666.651h50.439c9.89 0 9.89-2.968 9.89-11.869V355.111c0-9.89-1.978-11.868-11.868-11.868h-48.462V217.638h67.253v45.495h39.56V214.67h67.254v48.462h38.571V214.67h67.253v128.572h-47.473v105.824h30.66c2.967 0 4.945-1.978 7.912-4.945 28.681-33.626 57.363-65.275 86.044-100.88h-42.527V214.672h289.78v128.572H788.3c-4.945 0-9.89 1.978-11.868 3.956-43.516 53.407-90 103.846-133.517 155.275v1.978c17.802 21.759 34.616 43.517 53.407 63.297 24.725 28.682 50.44 60.33 75.165 89.011 6.923 6.923 11.868 9.89 21.758 9.89h31.649v127.583H535.112V668.63h42.527c-6.923-8.902-11.868-16.814-16.813-23.737-21.758-24.725-40.55-46.483-60.33-70.22-8.901-9.89-16.813-14.835-28.681-14.835-6.923 2.967-11.868 2.967-18.792 2.967v103.847h47.473v127.582z"/></svg>