<svg xmlns="http://www.w3.org/2000/svg" width="1000" height="1000">
  <path d="M765.294 117.339v29.639c-5.292 1.058-8.468 1.058-11.644 2.117-15.878 5.292-23.287 14.82-23.287 30.697v474.225c2.117 2.117 4.234 2.117 5.292 2.117h40.225c6.35 0 7.41-2.117 9.527-4.234 11.643-16.937 22.229-34.932 33.873-50.81 5.292-8.468 4.234-9.527-2.117-14.82 0-1.058-1.059-2.116-1.059-4.234-1.058-2.117-1.058-4.234-1.058-5.292v-6.351h179.95v23.287c-6.35 0-13.76 0-19.053 2.117-9.527 2.117-14.82 6.352-17.995 13.761-30.698 48.693-59.278 100.561-87.859 149.254-2.117 2.117-4.234 3.176-9.526 3.176H732.48c0 3.175-2.117 3.175-2.117 3.175 0 16.937-1.059 35.99 2.117 51.869 2.117 23.288 17.995 37.048 41.283 39.166h4.234v26.463H550.41v-23.288c0-3.175 1.059-3.175 2.117-3.175 28.58-4.235 43.4-22.23 43.4-50.81v-40.225H428.68v42.342c0 28.58 15.879 46.575 43.4 48.693h4.235v26.463H247.67v-26.463c2.117 0 6.35 0 9.526-1.059 23.288-3.176 35.99-21.17 35.99-43.4v-448.82H428.68v84.683h166.19V343.866H240.26c-5.292 0-6.35 0-9.526 5.292-26.463 48.693-52.927 98.444-79.39 148.195-3.176 2.118-3.176 4.235 1.058 8.469 25.405 46.575 51.869 96.327 78.332 146.078 3.176 2.117 4.234 4.234 9.527 4.234h34.932v105.854H161.928c-3.176 0-6.351-1.059-8.468-2.117-49.751-86.8-98.444-170.425-146.078-255.108-3.176-3.175-3.176-5.292 0-7.41 47.634-86.8 96.327-171.483 146.078-256.166 2.117-3.175 5.292-5.292 8.468-5.292h131.259v-52.927c0-20.112-9.527-31.756-28.58-34.932h-5.293V117.34H463.61v26.463c0 2.117-1.058 4.234-2.117 4.234-24.346 5.293-32.815 13.761-32.815 35.99v51.869h166.19c0-1.059 1.06-4.234 1.06-7.41v-45.517c-1.06-20.112-9.527-31.756-29.64-34.932-2.117 0-6.35-1.058-4.234-8.468v-22.23zM428.68 656.134h166.19V551.339H428.68zm320.737-312.268V235.895h111.147c5.292 0 7.41 2.117 9.526 5.292 28.581 49.752 57.161 97.386 85.742 146.079 5.293 11.643 12.702 14.82 25.405 17.995 4.234 0 7.41 1.058 13.76 1.058v23.288H816.105c0-6.351-2.117-11.644 3.176-19.054 3.175 0 3.175-5.292 0-8.468-10.586-19.054-22.23-37.049-35.99-55.044 0-3.175-4.235-3.175-5.293-3.175z" style="fill:#000;fill-opacity:1;fill-rule:nonzero;stroke:none;"/>
</svg>
