<svg xmlns="http://www.w3.org/2000/svg" width="1000" height="1000">
  <path d="M500.496 5C223.572 5 5 229.506 5 500.002c0 276.43 224.506 495.001 495.002 495.001 276.43 0 495.001-224.506 495.001-495.001C995.003 226.539 773.464 5 500.496 5zM246.32 381.814c0-58.351 19.78-110.77 55.385-158.242 41.539-51.429 94.946-84.066 161.21-94.945 80.11-14.835 153.297 4.945 216.594 59.34 28.681 23.737 50.44 55.385 67.253 90 .989 1.979 3.956 4.946 7.912 5.935 27.692 5.934 42.527 45.495 15.824 68.242-1.978 1.978-1.978 4.945-1.978 7.912 6.923 64.286-11.868 125.605-47.473 180-13.846 22.748-29.67 46.484-49.45 63.298-24.726 21.758-37.583 51.428-41.539 82.088-.989 22.747-.989 43.516-2.967 66.264 0 11.868-10.88 18.791-21.758 15.824-6.923-4.945-9.89-10.88-9.89-17.802v-18.792c0-34.615 2.967-65.274 14.835-94.945 6.923-21.758 19.78-38.571 36.593-53.407 36.594-36.593 63.297-78.132 79.121-127.583 9.89-26.703 11.869-55.384 10.88-86.044 0-3.956-2.967-8.9-8.902-12.857-20.769-9.89-27.692-35.604-13.846-54.396 2.967-5.934 1.978-11.868 0-16.813-20.769-41.539-52.417-74.176-90.99-97.912-85.054-49.451-193.846-36.594-267.033 26.703-42.528 39.56-69.23 88.022-76.154 146.374-3.956 42.528 2.967 82.088 19.78 119.67.99 3.957 3.956 6.924 7.912 5.935 24.726-1.978 48.462 27.692 36.594 55.385-1.978 4.945-.99 7.912.989 9.89 18.791 28.681 37.582 57.363 57.363 84.066 15.824 24.725 23.736 51.429 25.714 81.1v33.626c0 10.879-6.923 18.791-16.813 18.791-8.901 0-16.813-8.901-16.813-19.78 0-15.824-.99-32.638-2.967-48.462 0-19.78-7.913-34.615-18.792-50.44-18.79-25.714-37.582-52.417-54.395-80.11-3.957-3.956-7.913-4.945-10.88-6.923-27.692-.989-45.494-27.692-35.604-53.407 1.978-2.967 1.978-6.923 0-9.89-16.813-36.593-25.715-76.154-25.715-117.693zm46.484 143.407c0 9.89 4.945 14.836 14.835 14.836 10.88.989 17.803-4.945 17.803-14.836 0-8.9-6.923-17.802-16.814-17.802-8.9 0-15.824 6.923-15.824 17.803zm29.67-159.23c2.968-39.561 20.77-73.188 45.495-102.858 23.737-27.693 53.407-46.484 89.012-56.374 2.967-.99 5.934-3.956 6.923-7.912 16.813-23.737 48.461-24.726 66.264-2.967 2.967 2.967 6.923 4.945 9.89 4.945 53.407 10.879 95.934 38.571 124.616 84.066 24.725 38.572 32.637 81.1 27.692 125.605C685.442 455 666.65 493.573 639.947 527.2c-3.956 3.956-3.956 8.9-3.956 12.857 3.956 25.714-13.846 46.483-39.56 46.483-5.935-2.967-10.88.99-15.825 3.956-26.703 22.748-47.472 50.44-54.395 85.056-.99 9.89-.99 18.791-.99 28.681v166.155c0 10.879-5.934 18.79-14.835 19.78-10.879 0-18.791-5.934-18.791-16.813V697.31c0-47.473 20.77-87.033 56.374-120.66 0-.989 1.978-2.967 2.967-2.967 6.923-4.945 10.88-10.879 8.901-22.747-6.923-24.725 18.791-48.462 45.495-43.517 4.945 1.978 9.89 0 11.868-3.956 20.77-27.692 36.593-59.34 41.538-93.956 12.858-82.088-36.593-155.275-117.692-174.067-3.956-1.978-6.923 0-8.901 3.956-16.814 23.737-44.506 24.726-64.286 3.956-2.967-3.956-6.923-3.956-10.88-2.967-58.351 23.737-90.989 65.275-100.879 127.583-5.934 60.33 18.791 106.814 67.253 142.418 1.978 2.967 2.967 2.967 4.945 3.956 13.846 7.912 24.725 7.912 35.605-.989 9.89-11.868 10.879-30.66.989-43.516-7.912-10.88-17.803-20.77-25.715-30.66-22.747-28.681-28.681-59.34-15.824-92.967 12.857-33.627 36.594-53.407 72.198-58.352 40.55-5.934 78.132 13.846 95.934 48.462 18.792 34.615 10.88 78.132-14.835 106.813-5.934 5.934-9.89 10.88-14.835 16.814-5.934 6.923-15.824 6.923-23.736 1.978-5.934-6.924-7.912-16.814-.99-22.748 3.957-7.912 9.89-11.868 15.825-18.791 17.802-19.78 21.758-47.473 9.89-70.22-12.857-22.747-39.56-34.616-61.319-29.67-28.681 3.956-48.462 23.736-51.429 50.44-2.967 18.79 2.967 35.604 14.836 49.45 8.9 8.901 16.813 18.791 24.725 27.692 24.725 27.693 18.791 74.176-12.857 94.946-18.791 12.857-37.583 12.857-58.352 2.967-21.758-7.912-37.583-25.715-52.418-43.517-33.626-39.56-46.483-85.055-43.516-136.484zm158.243-146.375c0 7.912 8.901 15.824 17.802 15.824 9.89 0 15.824-5.934 15.824-15.824s-5.934-16.813-15.824-16.813c-8.901 0-17.802 6.923-17.802 16.813zm99.89 326.375c0 9.89 6.923 16.813 17.803 16.813 7.912 0 16.813-6.923 16.813-16.813 0-9.89-6.923-17.802-16.813-17.802-10.88 1.978-17.803 7.912-17.803 17.802zM727.97 322.474c1.978 9.89 8.902 16.813 18.792 16.813 9.89-1.978 14.835-6.923 14.835-16.813 2.967-8.902-5.934-16.814-16.813-16.814-7.912 0-16.814 7.912-16.814 16.814z" style="fill:#000;fill-opacity:1;fill-rule:nonzero;stroke:none;"/>
</svg>
