<svg xmlns="http://www.w3.org/2000/svg" width="1000" height="1000">
  <path d="M439.805 945.91c0 8.181-15.195-14.026-18.701-19.87-7.013-8.182-120.39-165.975-123.896-172.988 3.506-15.194 0-24.545-5.844-32.727-2.338-3.506-3.507-7.013-11.689-9.35-8.182-21.04-47.922-382.209-47.922-406.754 0-9.35 0-14.026 7.013-23.377 8.182-5.844 10.52-23.376 4.676-31.558-5.845-8.182-4.676-5.844 3.506-15.195C260.974 215.39 400.065 71.623 414.091 57.597c16.364-10.519 19.87-9.35 19.87 11.689 0 153.117 2.338 233.766 2.338 296.883 0 14.026-3.507 19.87-12.857 28.052-14.026 11.688-16.364 29.22 0 45.584 10.52 4.676 12.857 11.689 12.857 22.208 0 143.767 0 286.364 4.675 427.793 1.169 31.558 0 43.246-1.169 56.104zm-240.78-684.936c0-9.35 8.183-16.363 11.69-16.363 10.519 0 15.194 7.013 15.194 16.363 0 10.52-5.844 16.364-15.195 16.364-5.844 0-11.688-4.676-11.688-16.364zm50.26 476.884c0-9.351 5.845-16.364 17.533-16.364 8.182 0 12.857 8.182 12.857 16.364 0 11.688-7.013 17.532-17.532 17.532-7.013 0-12.857-7.013-12.857-17.532zm181.17-718.832c0-8.182 7.013-14.026 12.857-14.026 9.35 0 14.026 5.844 14.026 14.026 0 10.52-4.676 17.532-12.857 17.532-9.351 0-14.026-4.675-14.026-17.532zm5.844 395.065c0-12.857 9.35-17.532 16.363-17.532 9.351 0 15.195 4.675 15.195 19.87 0 8.182-7.013 16.363-15.195 16.363-8.181 0-16.363-7.013-16.363-18.7zm3.506 565.715c0-9.35 4.676-16.364 12.857-16.364 9.351 0 15.195 7.013 15.195 16.364 0 9.35-7.013 15.194-15.195 15.194-5.844 0-12.857-8.181-12.857-15.194zM467.857 55.26c0-4.676-2.337-22.208 7.013-22.208s247.793 167.143 277.013 196.364c15.195 15.195 12.857 10.52-1.169 18.701-50.26 24.546-172.987 80.65-231.428 109.87l-38.572 16.364c-8.181 4.675-7.013 7.013-7.013-9.35v-11.69c-5.844-99.35-5.844-197.532-5.844-298.051zm3.507 891.818V560.195c0-37.402 0-86.493 1.169-105.195C473.7 449.156 712.143 692.273 725 708.637c1.169 0 21.04 23.376 26.883 32.727 3.507 4.675-8.181 26.883-21.039 35.065-33.896 31.558-202.208 161.299-232.597 185.844-15.195 15.195-26.883 1.17-26.883-15.195zm15.195-522.467c-5.845-4.676-1.17-16.364 7.013-19.87 61.948-23.377 219.74-100.52 266.493-125.066 15.195-5.844 23.377 0 23.377 17.533 0 43.247-12.857 405.585-14.026 405.585-29.221-31.559-236.104-224.416-282.857-278.182zm275.844 324.935c0-9.35 7.013-16.364 15.195-16.364 10.52 0 14.026 8.182 14.026 16.364 0 12.857-4.676 18.701-18.702 18.701-4.675 0-10.52-5.844-10.52-18.701zm10.52-495.585c0-5.844 4.675-14.026 14.025-14.026 8.182 0 14.026 8.182 14.026 14.026 0 9.35-5.844 15.195-14.026 15.195-8.182 0-14.026-9.35-14.026-15.195z" style="fill:#000;fill-opacity:1;fill-rule:nonzero;stroke:none;"/>
</svg>
<svg xmlns="http://www.w3.org/2000/svg" width="1000" height="1000">
  <path d="M439.805 945.91c0 8.181-15.195-14.026-18.701-19.87-7.013-8.182-120.39-165.975-123.896-172.988 3.506-15.194 0-24.545-5.844-32.727-2.338-3.506-3.507-7.013-11.689-9.35-8.182-21.04-47.922-382.209-47.922-406.754 0-9.35 0-14.026 7.013-23.377 8.182-5.844 10.52-23.376 4.676-31.558-5.845-8.182-4.676-5.844 3.506-15.195C260.974 215.39 400.065 71.623 414.091 57.597c16.364-10.519 19.87-9.35 19.87 11.689 0 153.117 2.338 233.766 2.338 296.883 0 14.026-3.507 19.87-12.857 28.052-14.026 11.688-16.364 29.22 0 45.584 10.52 4.676 12.857 11.689 12.857 22.208 0 143.767 0 286.364 4.675 427.793 1.169 31.558 0 43.246-1.169 56.104zm-240.78-684.936c0-9.35 8.183-16.363 11.69-16.363 10.519 0 15.194 7.013 15.194 16.363 0 10.52-5.844 16.364-15.195 16.364-5.844 0-11.688-4.676-11.688-16.364zm50.26 476.884c0-9.351 5.845-16.364 17.533-16.364 8.182 0 12.857 8.182 12.857 16.364 0 11.688-7.013 17.532-17.532 17.532-7.013 0-12.857-7.013-12.857-17.532zm181.17-718.832c0-8.182 7.013-14.026 12.857-14.026 9.35 0 14.026 5.844 14.026 14.026 0 10.52-4.676 17.532-12.857 17.532-9.351 0-14.026-4.675-14.026-17.532zm5.844 395.065c0-12.857 9.35-17.532 16.363-17.532 9.351 0 15.195 4.675 15.195 19.87 0 8.182-7.013 16.363-15.195 16.363-8.181 0-16.363-7.013-16.363-18.7zm3.506 565.715c0-9.35 4.676-16.364 12.857-16.364 9.351 0 15.195 7.013 15.195 16.364 0 9.35-7.013 15.194-15.195 15.194-5.844 0-12.857-8.181-12.857-15.194zM467.857 55.26c0-4.676-2.337-22.208 7.013-22.208s247.793 167.143 277.013 196.364c15.195 15.195 12.857 10.52-1.169 18.701-50.26 24.546-172.987 80.65-231.428 109.87l-38.572 16.364c-8.181 4.675-7.013 7.013-7.013-9.35v-11.69c-5.844-99.35-5.844-197.532-5.844-298.051zm3.507 891.818V560.195c0-37.402 0-86.493 1.169-105.195C473.7 449.156 712.143 692.273 725 708.637c1.169 0 21.04 23.376 26.883 32.727 3.507 4.675-8.181 26.883-21.039 35.065-33.896 31.558-202.208 161.299-232.597 185.844-15.195 15.195-26.883 1.17-26.883-15.195zm15.195-522.467c-5.845-4.676-1.17-16.364 7.013-19.87 61.948-23.377 219.74-100.52 266.493-125.066 15.195-5.844 23.377 0 23.377 17.533 0 43.247-12.857 405.585-14.026 405.585-29.221-31.559-236.104-224.416-282.857-278.182zm275.844 324.935c0-9.35 7.013-16.364 15.195-16.364 10.52 0 14.026 8.182 14.026 16.364 0 12.857-4.676 18.701-18.702 18.701-4.675 0-10.52-5.844-10.52-18.701zm10.52-495.585c0-5.844 4.675-14.026 14.025-14.026 8.182 0 14.026 8.182 14.026 14.026 0 9.35-5.844 15.195-14.026 15.195-8.182 0-14.026-9.35-14.026-15.195z" style="fill:#000;fill-opacity:1;fill-rule:nonzero;stroke:none;"/>
</svg>
<svg xmlns="http://www.w3.org/2000/svg" width="1000" height="1000">
  <path d="M439.805 945.91c0 8.181-15.195-14.026-18.701-19.87-7.013-8.182-120.39-165.975-123.896-172.988 3.506-15.194 0-24.545-5.844-32.727-2.338-3.506-3.507-7.013-11.689-9.35-8.182-21.04-47.922-382.209-47.922-406.754 0-9.35 0-14.026 7.013-23.377 8.182-5.844 10.52-23.376 4.676-31.558-5.845-8.182-4.676-5.844 3.506-15.195C260.974 215.39 400.065 71.623 414.091 57.597c16.364-10.519 19.87-9.35 19.87 11.689 0 153.117 2.338 233.766 2.338 296.883 0 14.026-3.507 19.87-12.857 28.052-14.026 11.688-16.364 29.22 0 45.584 10.52 4.676 12.857 11.689 12.857 22.208 0 143.767 0 286.364 4.675 427.793 1.169 31.558 0 43.246-1.169 56.104zm-240.78-684.936c0-9.35 8.183-16.363 11.69-16.363 10.519 0 15.194 7.013 15.194 16.363 0 10.52-5.844 16.364-15.195 16.364-5.844 0-11.688-4.676-11.688-16.364zm50.26 476.884c0-9.351 5.845-16.364 17.533-16.364 8.182 0 12.857 8.182 12.857 16.364 0 11.688-7.013 17.532-17.532 17.532-7.013 0-12.857-7.013-12.857-17.532zm181.17-718.832c0-8.182 7.013-14.026 12.857-14.026 9.35 0 14.026 5.844 14.026 14.026 0 10.52-4.676 17.532-12.857 17.532-9.351 0-14.026-4.675-14.026-17.532zm5.844 395.065c0-12.857 9.35-17.532 16.363-17.532 9.351 0 15.195 4.675 15.195 19.87 0 8.182-7.013 16.363-15.195 16.363-8.181 0-16.363-7.013-16.363-18.7zm3.506 565.715c0-9.35 4.676-16.364 12.857-16.364 9.351 0 15.195 7.013 15.195 16.364 0 9.35-7.013 15.194-15.195 15.194-5.844 0-12.857-8.181-12.857-15.194zM467.857 55.26c0-4.676-2.337-22.208 7.013-22.208s247.793 167.143 277.013 196.364c15.195 15.195 12.857 10.52-1.169 18.701-50.26 24.546-172.987 80.65-231.428 109.87l-38.572 16.364c-8.181 4.675-7.013 7.013-7.013-9.35v-11.69c-5.844-99.35-5.844-197.532-5.844-298.051zm3.507 891.818V560.195c0-37.402 0-86.493 1.169-105.195C473.7 449.156 712.143 692.273 725 708.637c1.169 0 21.04 23.376 26.883 32.727 3.507 4.675-8.181 26.883-21.039 35.065-33.896 31.558-202.208 161.299-232.597 185.844-15.195 15.195-26.883 1.17-26.883-15.195zm15.195-522.467c-5.845-4.676-1.17-16.364 7.013-19.87 61.948-23.377 219.74-100.52 266.493-125.066 15.195-5.844 23.377 0 23.377 17.533 0 43.247-12.857 405.585-14.026 405.585-29.221-31.559-236.104-224.416-282.857-278.182zm275.844 324.935c0-9.35 7.013-16.364 15.195-16.364 10.52 0 14.026 8.182 14.026 16.364 0 12.857-4.676 18.701-18.702 18.701-4.675 0-10.52-5.844-10.52-18.701zm10.52-495.585c0-5.844 4.675-14.026 14.025-14.026 8.182 0 14.026 8.182 14.026 14.026 0 9.35-5.844 15.195-14.026 15.195-8.182 0-14.026-9.35-14.026-15.195z" style="fill:#000;fill-opacity:1;fill-rule:nonzero;stroke:none;"/>
</svg>
