<svg xmlns="http://www.w3.org/2000/svg" width="1000" height="1000">
  <path d="M948.786 459.865H521.894V429.46H943.92c2.432 9.73 3.649 18.243 4.865 30.405zM6.218 500c0-90 21.891-173.919 65.675-249.324 43.784-75.406 103.379-135 178.784-178.784C327.3 26.892 410.002 5 501.217 5 572.976 5 642.3 19.595 706.76 50c62.027 29.19 117.973 69.324 164.189 122.838 46.216 52.297 80.27 110.676 102.162 177.568H603.38c-31.622-21.892-65.676-31.622-102.162-31.622-34.054 0-64.46 7.297-92.433 24.324-27.973 17.027-49.865 37.703-65.675 64.46-17.027 27.973-24.325 58.378-24.325 92.432 0 31.622 8.514 63.244 24.325 90 15.81 27.973 37.702 49.865 65.675 65.676C436.758 671.486 467.164 680 501.218 680c29.19 0 58.378-7.297 83.919-21.892h-63.243v-27.972h195.81c-17.027 27.972-38.918 52.297-66.891 72.973-26.757 20.675-55.946 35.27-88.784 43.783l-9.73 2.433 40.135 210.405 8.514-1.216c71.756-9.73 133.784-46.216 189.73-92.432 54.73-45 99.73-97.298 130.135-161.757C951.218 638.649 969.46 570.54 969.46 500c0-27.973-2.432-54.73-7.297-80.27l-1.216-8.514H521.894v-25.54h459.73c9.73 38.919 12.162 75.405 12.162 114.324 0 88.784-20.676 171.487-65.676 249.325-43.784 75.405-103.378 132.567-178.784 177.567-76.622 45-159.324 68.109-248.108 68.109-91.216 0-173.92-23.109-250.54-68.109-75.406-45-135-103.378-178.785-177.567-45-76.622-65.675-160.54-65.675-249.325zm23.108 0c0 21.892 0 45 3.648 66.892l1.217 10.946 209.189-63.243V500c0-43.784 10.946-83.919 30.405-120.405 19.46-36.487 46.217-68.108 82.703-92.433 7.297 3.649 14.595 3.649 21.892-1.216 7.297-4.865 10.946-10.946 10.946-20.676 0-4.864-2.433-10.946-7.297-17.027-3.649-4.864-9.73-7.297-17.027-7.297-6.082 0-10.946 2.433-17.027 7.297-6.082 4.865-7.298 12.163-7.298 17.027 0 2.433 0 4.865 2.433 8.514-37.703 26.757-66.892 58.378-87.568 98.514-20.676 38.918-30.405 81.486-30.405 127.702v1.217L50 553.514c-1.215-18.244-2.43-36.487-2.43-53.514 0-65.675 13.378-127.702 40.135-187.297 26.757-58.379 64.46-110.676 111.892-153.243 48.649-42.568 103.379-72.973 165.406-92.433l49.864 225c-41.35 17.027-75.405 45-100.946 81.487-26.756 37.702-38.918 79.054-38.918 126.486 0 15.811 1.216 32.838 6.08 49.865L43.92 622.838l3.649 7.298c19.46 66.891 51.081 125.27 96.081 177.567 43.784 51.081 97.297 90 158.108 117.973 63.244 29.19 128.92 43.784 197.027 43.784 13.379 0 26.757-1.216 41.352-2.432l9.73-1.217-38.92-243.243c26.757-2.432 52.298-7.297 74.19-17.027 4.865 3.649 9.73 6.081 17.027 6.081 4.865 0 10.946-1.216 17.027-7.297 4.865-4.865 6.081-10.946 6.081-17.027 0-6.081-1.216-12.162-6.081-15.811-6.081-4.865-12.162-7.297-17.027-7.297-6.081 0-10.946 0-15.81 4.864-2.433 2.433-4.866 6.082-7.298 10.946-25.54 12.163-53.514 18.244-80.27 18.244-36.487 0-69.325-8.514-99.73-26.757-30.406-18.243-55.946-41.351-72.973-72.973s-26.757-63.243-26.757-99.73c0-35.27 8.513-69.324 26.757-98.514 19.46-30.405 42.567-55.945 72.973-74.189 30.405-18.243 63.243-25.54 99.73-25.54 23.108 0 46.216 3.648 69.324 13.378 2.432 3.649 4.865 7.297 9.73 8.514 4.864 1.216 7.297 4.864 12.162 4.864 7.297 0 13.378-2.432 17.027-6.08 4.865-4.865 8.513-10.947 8.513-18.244 0-6.081-3.648-12.162-8.513-17.027s-9.73-6.081-17.027-6.081c-6.081 0-12.162 2.432-18.244 7.297-23.108-7.297-48.648-10.946-72.973-10.946-23.108 0-45 3.649-65.675 9.73L379.596 42.703l-8.513 3.648c-63.244 26.757-126.487 49.865-177.568 96.082-51.081 46.216-92.433 97.297-122.838 159.324C40.272 362.567 29.326 429.46 29.326 500zm38.919 135 169.054-52.297c14.594 42.568 37.703 80.27 70.54 110.676 34.054 31.621 69.325 55.946 111.892 68.108 1.217 4.865 3.649 8.513 8.514 12.162 4.865 3.649 9.73 4.865 14.594 3.649 7.298-1.216 12.163-2.433 17.028-6.081 4.864-3.649 6.08-10.946 6.08-18.244 0-6.08-2.432-10.946-6.08-17.027-3.65-4.864-10.946-6.08-17.028-6.08-8.513 0-17.027 3.648-21.891 12.161-38.92-12.162-72.973-31.621-103.379-62.027-29.19-29.189-48.649-63.243-62.027-102.162l30.405-9.73c14.595 43.784 41.352 81.487 77.838 109.46 37.703 27.973 80.27 42.568 128.92 45l35.27 227.433c-9.73 0-20.676 1.216-29.19 1.216-64.46 0-126.486-13.379-184.865-40.135-59.594-27.973-109.46-64.46-153.243-113.109C118.11 751.757 87.704 695.811 68.245 635zM403.92 420.946c0-8.513 2.432-15.81 8.513-20.676 7.297-6.08 12.162-8.513 20.676-8.513 6.08 0 10.946 1.216 15.81 6.081 4.865 4.865 8.514 7.297 10.946 13.378h62.028v18.244h-62.028c-2.432 6.08-6.08 10.946-10.945 14.594-4.865 3.649-9.73 4.865-15.811 4.865-8.514 0-14.595-3.648-20.676-8.513-6.081-4.865-8.513-12.163-8.513-19.46zm17.027 0c0 3.649 1.216 4.865 3.648 7.297 2.433 2.433 4.865 3.65 8.514 3.65 3.648 0 6.08-1.217 7.297-3.65 1.216-3.648 3.649-3.648 3.649-7.297 0-3.648-1.217-7.297-3.649-9.73-2.432-2.432-3.649-3.648-7.297-3.648-3.649 0-6.081 1.216-8.514 3.648-2.432 2.433-3.648 6.082-3.648 9.73zM429.46 34.19l42.568 210.406 8.513-1.216c41.352-2.433 79.054 4.864 115.54 19.459 36.487 14.595 68.109 38.919 93.65 68.108l3.648 3.649h245.676l-4.865-12.162c-24.324-60.811-57.162-110.676-102.162-155.676-43.784-43.784-94.865-77.838-152.027-102.162-57.162-24.325-117.973-35.27-181.217-35.27-19.459 0-38.919 1.216-59.594 3.648zM451.353 50c15.81-1.216 31.622-2.432 47.432-2.432 59.595 0 115.541 10.946 169.055 32.837 54.73 21.892 102.162 53.514 143.513 93.65 42.568 41.35 75.406 86.35 99.73 141.08h-209.19c-26.756-29.189-57.162-51.08-92.432-66.892-35.27-15.81-71.757-23.108-110.676-23.108H487.84zm8.514 419.595c0-7.297 3.648-14.595 8.513-20.676 4.865-6.08 12.162-7.297 20.676-7.297 6.08 0 12.162 1.216 15.81 4.865 4.865 4.865 9.73 8.513 10.946 13.378h6.082v19.46h-6.082c-1.216 6.08-4.864 9.73-10.945 13.378-4.865 2.432-9.73 6.081-15.811 6.081-8.514 0-14.595-2.432-20.676-8.513-4.865-4.865-8.513-12.163-8.513-20.676zm2.432 149.595c0-8.514 2.432-14.595 8.513-20.676 6.082-6.081 12.163-8.514 20.676-8.514 6.081 0 10.946 2.433 15.811 6.081 4.865 3.65 8.513 8.514 10.946 13.379h3.649v20.676h-3.65c-2.432 4.864-6.08 9.73-10.945 13.378-4.865 3.649-9.73 6.081-15.81 6.081-8.514 0-14.595-3.649-20.677-9.73-6.08-6.08-8.513-10.946-8.513-20.675zm15.81-149.595c0 3.649 1.217 6.08 2.433 8.513 1.216 3.649 4.865 3.649 8.514 3.649 3.648 0 6.08-1.216 8.513-3.649 2.433-2.432 3.649-4.864 3.649-8.513s-1.216-4.865-3.649-7.297c-2.432-2.433-4.865-4.865-8.513-4.865-3.649 0-6.081 2.432-8.514 4.865-2.432 2.432-2.432 3.648-2.432 7.297zm1.217 149.595c0 3.648 1.216 6.08 2.432 8.513 1.217 3.649 6.081 2.433 9.73 2.433s6.081 0 8.514-2.433c2.432-2.432 2.432-4.865 2.432-8.513 0-2.433-1.216-6.082-2.432-8.514-1.217-2.432-4.865-2.432-8.514-2.432-3.649 0-7.297 1.216-9.73 2.432-2.432 1.216-2.432 6.081-2.432 8.514zm42.568-9.73V479.325h428.108L951.218 500l-1.216 7.298H638.65c-2.432-4.865-6.08-8.514-10.946-13.379-3.648-3.648-9.73-6.08-17.027-6.08-7.297 0-14.594 3.648-20.675 9.729-4.865 4.865-7.298 10.946-7.298 19.46 0 8.513 2.433 14.594 7.298 20.675 6.08 7.297 13.378 9.73 20.675 9.73 7.298 0 13.379-2.433 17.027-6.081 4.865-4.865 8.514-8.514 10.946-13.379h311.352c-1.216 9.73-2.432 20.676-4.865 32.838H586.353c-2.432-6.081-4.865-10.946-10.946-13.378-6.081-2.433-10.946-4.865-17.027-4.865-8.513 0-14.595 2.432-19.46 7.297-6.08 6.081-9.73 13.379-9.73 20.676 0 8.513 3.65 15.81 9.73 19.46 6.082 3.648 10.947 9.73 19.46 9.73 6.081 0 12.162-2.433 17.027-6.082 6.081-3.649 8.514-7.297 10.946-14.595h356.352c-9.73 57.163-31.622 111.892-63.244 160.541-31.621 48.649-69.324 91.216-115.54 125.27-47.433 35.27-99.73 58.379-156.892 72.973L574.19 762.703c36.486-9.73 69.324-27.973 98.513-51.081 29.19-23.108 55.946-52.297 70.541-87.568l6.081-14.594zm25.54-38.92c0-2.432 1.216-6.08 2.433-8.513 1.216-3.648 6.08-3.648 8.513-3.648 3.649 0 6.081 1.216 8.514 3.648 2.432 2.433 3.648 6.081 3.648 8.514 0 3.649-1.216 6.081-3.648 8.513-2.433 2.433-4.865 3.649-8.514 3.649-2.432 0-6.081-1.216-8.513-3.649-2.433-2.432-2.433-4.864-2.433-8.513zm52.297-53.513c0-3.648 1.217-6.08 3.65-8.513 1.215-1.216 3.648-2.433 7.296-2.433 3.65 0 6.081 1.217 8.514 2.433 3.649 1.216 3.649 4.865 3.649 8.513 0 3.649-1.217 7.298-3.65 9.73-2.432 2.433-4.864 2.433-8.513 2.433-3.648 0-6.08-1.217-7.297-2.433-2.432-2.432-3.649-6.081-3.649-9.73z" style="fill:#000;fill-opacity:1;fill-rule:nonzero;stroke:none;"/>
</svg>
