<?xml version="1.0" encoding="utf-8"?>
<!-- Generator: Adobe Illustrator 26.0.1, SVG Export Plug-In . SVG Version: 6.00 Build 0)  -->
<svg version="1.1" id="Layer_1" xmlns="http://www.w3.org/2000/svg" xmlns:xlink="http://www.w3.org/1999/xlink" x="0px" y="0px"
	 viewBox="0 0 1000 1000" style="enable-background:new 0 0 1000 1000;" xml:space="preserve">
<style type="text/css">
	.st0{fill-rule:evenodd;clip-rule:evenodd;}
</style>
<path class="st0" d="M385.9,7.6h-94.7L91.8,206.9h161.8C275.3,128,360.2,22.4,385.9,7.6z M908.8,206.9L707.5,7.6h-88.8
	C682.7,66,727.3,147.7,752,206.9H908.8z M91.8,793.1l201.3,199.3h88.8C318,934,273.4,852.3,248.7,793.1H91.8z M565.4,7.6H521v199.3
	h193.4C669.5,99.6,596.4,29.3,565.4,7.6z M482.6,206.9V7.6h-45.4c-84.5,60.8-132.6,158.2-146,199.3L482.6,206.9L482.6,206.9z
	 M518.1,793.1v199.3h45.4c84.5-60.8,132.6-158.2,146-199.3H518.1z M435.2,992.4h44.4V793.1H286.2
	C331.2,900.4,404.3,970.7,435.2,992.4z M614.8,992.4h94.7l199.3-199.3H747C725.3,872,640.4,977.6,614.8,992.4z M178.6,686.9
	c-13.9-3.3-26.5-9.4-37.8-18.3c-11.4-8.8-20-19.9-26-33.1c-6-13.2-9-27-9-41.3h61.6c0.3,8.7,3.1,16.5,8.3,23.5
	c5.2,7,11.8,11.9,20,14.5c8.2,2.7,16.4,4,24.8,4c9,0,17.8-1.6,26.3-4.8c8.5-3.2,15.3-8.7,20.3-16.5c5-7.8,7.5-16.3,7.5-25.3
	c0-12-4.4-22.7-13.3-32.1c-8.9-9.3-19-16.2-30.3-20.5c-11.4-4.3-22.7-8.8-34.1-13.3c-11.4-4.5-22.2-9.8-32.6-16
	c-10.4-6.2-19.7-13.8-28-22.8c-8.3-9-14.8-19.3-19.3-30.8c-4.5-11.5-6.8-23.3-6.8-35.3c0-14.4,2.8-28.3,8.3-41.8
	s13.7-25.2,24.5-35.1c10.8-9.8,23.2-16.7,37.1-20.5c13.9-3.8,28-5.8,42.3-5.8c13.7,0,27.3,1.7,40.8,5c13.5,3.3,25.7,9.5,36.6,18.5
	c10.8,9,19.1,20,24.8,32.8c5.7,12.9,8.5,26.3,8.5,40.3h-61.6c-0.3-8-2.8-15.5-7.3-22.5s-10.6-11.8-18.3-14.5c-7.7-2.7-15.5-4-23.5-4
	c-6.3,0-12.7,0.9-19,2.8c-6.3,1.8-11.9,4.9-16.8,9.3c-4.8,4.3-8.4,9.5-10.8,15.5c-2.3,6-3.5,12.4-3.5,19c0,12,4.3,22.7,13,32.1
	c8.7,9.4,18.8,16.1,30.3,20.3c11.5,4.2,22.9,8.5,34.1,13c11.2,4.5,22,9.9,32.6,16.3c10.5,6.3,19.9,14,28.3,23
	c8.3,9,14.8,19.2,19.3,30.6c4.5,11.4,6.8,23.2,6.8,35.6c0,14.4-2.9,28.5-8.8,42.3c-5.8,13.9-14.4,25.6-25.8,35.3
	c-11.4,9.7-24.1,16.4-38.3,20c-14.2,3.7-28.6,5.5-43.3,5.5C206.4,691.9,192.5,690.2,178.6,686.9z M409.3,632.3h69.6V375.4h-69.6
	v-55.6h201.3v55.6H541v256.9h69.6v55.6H409.3V632.3z M704.3,319.8h62.1v312.5h146.7v55.6H704.3V319.8z"/>
</svg>
