<?xml version="1.0" encoding="UTF-8"?><svg id="a" xmlns="http://www.w3.org/2000/svg" viewBox="0 0 1000 1000"><path d="M310.199,640.732c0,2.692,.192,5.192,.192,7.884v3.846c-.192,.769,0,1.731-.192,2.692v1.923c.962-.769,1.923-.961,2.885-1.346,4.808-1.538,9.807-3.269,14.615-4.807,.577-.192,1.154-.385,1.538-.577,1.538-.769,2.115-2.308,3.077-3.846,.962-1.538,1.923-2.885,2.885-4.231,.769-1.154,1.538-2.307,2.308-3.461,.385-.577,.769-1.154,1.154-1.538,0,0,0-.192,.192-.192,.385-.192,.577-.192,.769-.192,.769-.192,1.539-.577,2.115-.962,1.538-.961,2.692-1.923,4.231-2.692-1.154,1.731-2.692,3.269-4.423,4.615-.769,.577-2.115,1.346-2.692,2.308-.192,.192-.192,.385-.192,.577-.192,.577-.577,1.346-.962,2.115-.577,1.538-1.346,3.269-2.115,4.808-.385,.961-.769,1.923-1.538,2.692-.385,.385-.961,.769-1.346,1.154-.577,.577-.961,1.154-1.346,1.731s-.577,1.346-1.154,1.538c-5,1.923-9.807,3.846-14.807,5.769-.385,.192-.769,.385-.962,.577-.192,.385-.192,.577-.385,.962-.962,2.307-1.538,4.615-2.115,6.923-.192,.961-.385,2.115-.577,3.077-.192,.769-.385,1.923-.385,2.885v.962c-.192,2.5-.385,5-.192,7.692,.192,2.692,.385,5.192,.769,7.884,.192,1.346,.385,2.692,.577,4.038,0,.192,.385,3.461,.385,3.461,104.996,5.961,209.416,11.73,314.028,17.499,2.115-5.384,1.923-10.577,2.308-15.576,1.346-20.768,2.308-41.537,4.615-62.113,1.154-10.577,2.885-20.961,.192-31.345-5-19.615-5-39.614-3.077-59.806,1.923-20.576,3.077-41.345,3.077-62.113,.192-19.422,0-39.229,3.077-58.267,5.769-35.768,4.038-71.536,4.038-107.497,0-5.385-1.346-10.769-2.885-15.961-5.192-17.884-8.461-35.96-10.384-54.421-2.308-21.922-18.846-32.883-34.806-45.383-.385,1.538-.769,2.885-.961,4.423-.577,3.846-.769,7.692-1.538,11.538-.192,.961-.385,1.731-.577,2.692-.192,.577-.192,.961-.385,1.346,0,.385-.192,.577-.385,.961-.192,.961-.577,1.923-1.154,2.5-.385,.577-.769,1.538-1.154,2.115-.385,.577-.577,.961-.961,1.346-.769,.769-1.538,1.538-2.5,2.115-.385,.192-.961,.577-1.346,.961l-.577,.577c-.192,.192-.385,.192-.577,.385,.385-1.346,1.154-2.5,1.923-3.654,.769-1.154,1.346-2.115,1.923-3.077,.385-.385,.577-.962,.769-1.538,.192-.385,.192-.577,.385-.769,.385-.769,.385-1.731,.385-2.5v-26.922c-51.537-45.191-110.766-38.076-169.417-29.422-1.923,3.077-2.692,6.538-2.5,10,0,1.346,.385,2.692,.577,4.038v.769c0,.769,.192,1.538,.385,2.115,.192,.769,.385,1.731,.577,2.5,.192,.577,.385,1.346,.961,1.731,.385,.192,.769,.192,.962,.385,.577,.192,.769,.962,.961,1.538,.769,1.923,1.346,4.038,2.115,6.154,.192,.577,.385,.961,.577,1.538,0,.385,.192,.769,.385,.961,.577,.577,1.538,.961,2.308,1.538,1.923,1.346,3.846,2.5,5.769,3.846,0,.769,0,1.538,.192,2.308,.577,3.654,2.115,7.115,4.423,10,1.538,1.923,3.269,3.461,4.423,5.384-2.5-1.538-5.192-3.077-7.692-4.615-.385-.192-.769-.385-1.154-.769-.385-.385-.577-.961-.769-1.346-1.154-2.5-2.115-5.192-3.077-7.692-.192-.385-.385-.769-.577-1.154-.385-.385-.769-.577-1.154-.769-.961-.577-1.923-.961-3.077-1.154-.385,0-.769-.192-1.154-.385-.192-.192-1.346-.385-1.346-.385-.192,.577-.577,1.154-.769,1.731-.385,.385-.577,.961-.769,1.538-.192,.385,0,.577,0,.961,0,.577,.192,.962,.192,1.538,.192,1.538,.385,2.885,.577,4.231,.192,.962,.385,2.115,.577,3.077,.192,.577,.192,.961,.385,1.538,.192,.385-2.308,6.923-2.308,6.923,0,0-.769-11.538-2.307-14.615-.192-.577-.385-.961-.577-1.538-.192-.577,0-1.346,0-1.923,.192-1.731,.192-3.461,.385-5.192,0-.769,.192-1.731,.192-2.5v-.962c0-.385,.961-5.577,.769-5.577-.769-.192-1.538-.577-2.308-.769-.192,0-.577-.192-.577-.192,0,0-.192-.192-.192-.385-.192-.192-.192-.385-.385-.769-.577-2.115-1.346-4.038-2.115-6.154-.385-.961-.769-2.115-1.154-3.077-.577-.961-.769-2.308-1.538-3.269-.385-.769-.961-1.346-1.731-1.923-.385-.192-.769-.385-1.154-.577-.192,0-.962-.577-1.154-.385-9.807,4.807-17.499,13.269-25.961,20.384-13.653,11.346-25.576,24.038-30.961,41.729-1.346,4.038-3.077,8.461-5.769,11.923-11.923,14.615-15.384,31.922-16.73,49.998,.769,2.115,1.539,4.038,2.308,6.154,1.346,3.846,2.5,7.692,3.654,11.538,1.154,3.846,2.308,7.692,3.654,11.346,.577,1.923,1.346,3.846,2.115,5.577,.192,.769,.577,1.346,.769,2.115,0,.577,.192,.962,.577,1.346l1.731,1.731c.577,.769,1.154,1.346,1.731,2.115,.961,1.346,1.923,2.884,2.5,4.615,.566,1.32,.956,2.821,2.058,3.966l1.974-.076,.109,1.42c.036,.309,.051,.602,.065,.898,2.066,1.733,4.886,3.876,4.64,4.368-6.731,12.115-4.615,14.807-12.884,14.807,0-.385,4.423-10,4.231-10.192,0-.192-6.923-5.384-6.923-5.577-.192-.385-6.154-5.961-9.615-7.5-.192-.192-.577-.192-.769-.192-.385,.192-.577,.385-.769,.577-.769,.962-1.731,1.923-2.5,2.885-.577,.577-1.154,1.154-1.154,1.923,0,1.731-.192,3.269-.385,4.808-.192,2.692-.385,5.385-.385,8.077-.192,10.384,0,20.961,.192,31.537,.577,29.037,2.115,58.075-2.115,86.92-3.077,20.768-5.577,41.537-5,62.69,.385,16.346-1.731,32.307-4.038,48.46-1.346,10-1.154,19.999,.385,29.614,.192,5,.577,10.192,.769,15.384Zm298.259-274.414c2.115,0,4.231,1.346,5,3.269,.385,1.346,.385,3.077-.385,4.231-1.346,2.308-4.807,3.077-7.115,1.538-2.033-1.355-2.719-4.201-1.934-6.437-.429-.178-.85-.364-1.335-.486,1.538-1.346,3.654-2.308,5.769-2.115Zm-17.765,288.025c.325-1.251,.661-2.545,.747-3.835l.479,.032-.102-.102c-.151,.004-.301-.002-.452,.006l-.023-.481-.023-.481c4.231-.197,8.366,.851,11.63,2.961,.432,.214,.892,.676,1.13,1.149,.409,1.023,.188,2.116-.623,3.198-.165,.295-.362,.654-.563,1.02-.59,1.072-1.2,2.18-1.931,3.202-1.683,3.095-3.583,4.623-5.775,4.623-3.162,0-5.288-3.431-5.288-6.635,0-1.609,.404-3.161,.792-4.659Zm-80.692,16.582c-.962,3.654-4.617,6.729-8.271,6.152-3.654-.577-6.536-4.808-5.19-8.269l1.154-.192c.192-.961,.577-2.115,.962-3.077,3.077,.961,6.346,1.733,9.423,2.502,.769,.192,1.346,.385,1.731,.961,.385,.577,.385,1.346,.192,1.923Zm75.957-55.577c1.538,3.461-2.692,7.884-6.346,6.73-2.115-.577-3.654-2.692-4.615-4.807l1.731-1.923c1.538-3.654,7.692-3.461,9.23,0Zm-21.538-394.217l.192-.385c2.115-.385,4.231-.384,6.346-.192,.577,2.115,.577,4.423,.577,6.538,0,.577-.192,1.154-.385,1.731-.577,.961-1.923,1.346-3.077,1.346-2.5,0-5-1.154-5.961-3.269-.961-2.115,0-5.192,2.308-5.769Zm-26.345,35.191c1.539-.769,3.462-.961,5.192-1.154l-.385-.962c.577,1.154,2.115,1.346,3.461,1.538,1.346,.192,2.885,1.154,2.692,2.5-.192,.769-.769,1.346-1.154,1.923-1.154,1.731-.577,4.038-2.115,5.385-1.538,1.346-3.846,.577-5.577-.192-2.115-.961-4.615-2.5-4.808-4.807-.192-1.731,1.154-3.461,2.692-4.231Zm-28.074-38.652c.961-1.731,2.884-3.077,4.615-4.038l-.689,.574c.453-.138,1.049,.115,1.458,.387,2.115,1.346,4.231,2.885,6.346,4.423,.385,.192,.769,.577,.769,.962s-.192,.769-.384,1.154c-1.923,3.269-5.192,6.538-8.846,5.769-3.654-.769-5.192-5.961-3.269-9.23Zm-74.617-31.346c-.577-2.115-.577-4.423,.192-6.346l2.115-.769c1.923-.962,4.231,1.154,4.615,3.269,.192,1.923-.577,3.846-2.115,4.808-1.538,.961-3.846,.577-4.808-.962Zm-11.919,144.225c41.153-18.462,80.96-13.847,116.151,14.23,34.806,27.691,48.46,64.613,41.537,109.035-1.538,10.384-6.154,19.422-12.692,27.499-.961,.962-1.731,2.115-2.692,3.077-1.731,2.115-3.461,4.038-5.192,6.154-1.731,2.115-3.654,4.038-5.385,6.154-1.731,2.115-3.461,4.038-5.384,6.154-1.923,2.115-3.654,4.038-5.577,6.154-1.923,2.115-3.846,4.038-5.769,6.154-.961,.961-1.923,2.115-2.885,3.077-.577,.577-.961,.961-1.539,1.538-.385,.385-.769,.962-1.154,1.346-1.538,1.923-2.308,4.423-2.692,6.731-.385,2.115-.385,4.423-.385,6.731,.192,.769,.192,1.731,.192,2.692v30.768s-33.46-1.538-35.576-1.538l.577-23.845-13.076-.385v18.653c0,.385-.192,.961-.192,1.539-.192,.192-.192,.577-.192,.769v.192c0,.577-.192,1.346-.192,1.923-.385,.192-.577,.192-.961,.192h-.577c-1.731,0-3.269-.192-4.807-.192-2.5-.192-5.192-.192-7.692-.385-2.884-.192-5.769-.192-8.461-.385-2.308,0-4.423-.192-6.731-.192h-3.269c0-.769,.192-1.346,.192-1.923v-22.307l-13.076-.385-.577,24.038-33.846-1.538c-1.538-11.346-.577-21.922,0-32.307,.385-7.5-1.346-13.461-6.538-19.038-5.769-6.154-10-13.269-15.576-19.422-39.614-43.654-21.922-131.342,44.037-160.956Zm-57.115-83.073v.385c.192-1.538,2.115-2.885,3.846-2.692,1.731,.192,3.269,1.154,4.423,2.5,.577,.577,.961,1.346,.961,2.115,0,.577-.385,.961-.577,1.346-1.154,1.731-2.5,3.077-4.231,4.038-1.731,.769-3.846,.961-5.577,0-.192-2.692,.192-5.384,1.154-7.692Zm-8.653,31.344l.577-1.923c1.923-.577,3.654,.961,4.807,2.307,1.154,1.154,2.308,2.885,1.539,4.423-.385,.961-1.731,1.346-2.885,1.538-1.731,.192-3.654-.385-4.807-1.731-.961-1.346-.769-3.846,.769-4.615Zm-4.807,251.145l1.154-.961c2.115,.385,4.423,.769,6.731,1.154,.192,1.923,.192,4.038-.577,5.961-.769,1.923-2.885,3.461-4.807,2.885-1.731-.385-2.885-2.115-3.077-3.846-.385-1.731,.192-3.461,.577-5.192Zm252.289-340.512l.778,1.1c-.192-.192-.385-.192-.385-.385-.224-.224-.316-.453-.393-.715Zm-223.636,283.783c7.692,10.192,15.384,20.384,23.461,30.191,.577,.577,1.154,1.346,1.538,1.923,.769,1.154,1.539,2.115,2.115,3.269,.577,1.154,1.154,2.307,1.731,3.461,.385,.577,.577,1.154,.769,1.731,.192,.192,.192,.577,.385,.769,0,.385,.192,.577,.192,.962,0,.769,.192,1.538,.192,2.308,0,.577,.192,1.346,.192,2.115,0,1.538-.192,3.077-.192,4.615,0,4.038-.192,8.269-.385,12.307,0,4.038-.192,7.884-.385,11.73,0,1.731-.192,3.461-.192,5.192l17.115,.769c0-4.038,.192-8.269,.385-12.307,0-1.923,.192-4.038,.192-5.961v-2.885h1.923l.961-.192h3.078c2.115,.192,4.231,.192,6.346,.192,2.115,.192,4.231,.192,6.346,.385,2.115,.192,4.038,.385,6.154,.769,.962,.192,2.115,.385,3.077,.577l-.769,21.73,17.115,.769,.769-22.115h11.73c2.115,0,4.231,0,6.346,.192,2.115,.192,4.038,.385,6.154,.577,.962,0,1.923,.192,2.885,.385l2.5,.385v5.961c0,1.154-.192,2.5-.192,3.654-.192,3.461-.192,7.115-.385,10.769,4.231,.192,8.461,.385,12.692,.577,.961,.192,2.115,.192,3.077,.192h.769s.192,.192,.385,0v-33.845c0-.961,0-1.923,.192-2.885,.385-1.923,.769-3.846,1.538-5.577,.385-.769,.769-1.538,1.154-2.308q0-.192,.192-.385c.192-.192,.192-.385,.385-.577,.192-.385,.577-.769,.769-1.154,.192-.192,.192-.385,.385-.577q.192-.192,.192-.385c.192-.385,.577-.577,.961-.961,8.269-8.846,16.538-17.694,24.615-26.73,6.538-7.307,13.076-14.615,15.384-24.807,9.615-39.806-1.346-73.844-31.153-100.573-29.23-26.345-64.036-32.499-100.767-17.884-37.114,14.807-57.883,43.652-62.69,83.459-2.115,17.692-.192,35.189,10.769,50.191Zm129.227-58.652c14.615,0,26.538,11.923,26.538,26.537s-11.923,26.538-26.538,26.538-26.538-11.923-26.538-26.538,11.923-26.537,26.538-26.537Zm-56.921,66.919c.385-.769,.769-1.346,1.154-2.115,.385-.577,.769-1.346,1.154-1.923,.385-.769,.769-1.346,1.154-1.923,.192-.577,.577-1.154,.961-1.731,.385-.385,.577-.961,.961-1.538,.962-1.731,1.731-3.269,2.692-4.807,.577-1.154,1.346-2.5,2.115-3.654,.577-1.154,1.346-2.5,2.115-3.654,.192-.192,.385-.577,.577-.961,0-.192,.192-.385,.192-.577s.192-.192,.192-.385,0-.192,.192-.192c0,0,.192,.192,.192,.385,0,0,.192,.192,.192,.385,.385,.769,.577,1.346,.961,1.923,.769,1.154,1.346,2.5,2.115,3.654,.192,.385,.385,.577,.577,.961,.192,.385,.385,.769,.577,1.154,.385,.577,.577,1.346,.961,1.923,.192,.192,.192,.577,.385,.769,.192,.385,14.615,30.384,15.769,33.076,.385,1.154,.961,2.115,1.346,3.269h-.192l-6.923-.192h-39.037c-1.154-.192-2.115-.192-3.269-.192h-.192l.192-.192c.192-.192,.192-.385,.385-.577,0-.192,.192-.577,.385-.769,.192-.385,.385-.769,.577-1.154,.192-.577,.577-.961,.769-1.346,.192-.577,.577-.961,.769-1.539,.385-.577,.577-1.154,.962-1.731,.192-.577,.577-1.154,.961-1.731,.385-.577,.769-1.346,1.154-1.923,.385-.769,.769-1.346,1.154-2.115,.385-.769,.769-1.346,1.154-2.115,.385-.769,.769-1.346,1.154-2.115,.385-.577,.769-1.346,1.154-2.115,.385-.577,.769-1.346,1.154-2.115,.385-.769,.769-1.346,1.154-2.115Zm-28.462-68.842c14.614,0,26.537,11.923,26.537,26.538s-11.923,26.538-26.537,26.538-26.538-11.923-26.538-26.538,11.923-26.538,26.538-26.538Zm-161.726,383.833c2.5-.769,4.808-1.346,7.308-1.923,.769-.192,1.731-.385,2.5-.577,.577,0,1.154-.192,1.731-.192h.577c.385,0,.577-.192,.962-.192,.577-.192,1.154-.192,1.731-.385h.769c.192,.192,.385,.192,.577,.385,1.538,1.346,3.077,2.885,4.615,4.038,.385,.192,.961,.577,1.538,.962,.192,.192,.577,.192,.769,.385,.385,.192,.769,.385,.962,.385,.385,0,.961-.385,1.154-.577,.192-.385,.577-.577,.961-.769,.192,0,.192-.192,.385-.192l1.731-1.154c.192-.192,.577-.385,.769-.577,0,0,.192-.192,.385-.385,.961-.577,2.115-.577,3.269-.577,2.115,.192,4.038,.577,5.769,1.154-2.5,.192-5,.385-7.307,1.346-.577,.385-1.154,.577-1.731,.962-.192,0-.577,.192-.769,.385-.961,.577-2.115,1.346-3.077,2.308-.385,.192-.577,.769-1.154,.577-2.5-.577-4.807-2.115-6.923-3.654-.577-.577-1.346-.961-2.115-1.154-.961-.192-1.923,0-2.885,.385-1.346,.385-2.5,.961-3.654,1.538-.577,.385-1.154,.577-1.731,.961-.385,.192-.961,.577-1.346,.961-.192,.385-.385,.577-.577,.961-.577,.769-1.346,1.539-1.923,2.308-.577,.769-.962,1.346-1.538,2.115-.192,.385-.385,.577-.577,.961q-.192,.192-.385,.385l-.192,.192v18.461c0,.192,7.307,.577,7.884,.577,2.692,.192,5.384,.385,8.077,.577,5.384,.192,10.961,.577,16.346,.961,10.961,.769,21.73,1.346,32.691,2.115,21.73,1.346,43.46,2.885,65.19,4.231,21.73,1.346,43.46,2.884,65.19,4.231,21.73,1.346,43.46,2.884,65.19,4.231,21.73,1.346,43.46,2.884,65.19,4.231,2.5,0,5,.192,7.5,.385,1.346,0,2.5,0,3.846,.192,.192,.192,.385,.192,.577,.192,.769,.192,1.923,0,2.692,0-.192-.769,.577-1.154,.962-1.731,.192-.385,.192-.961,.192-1.346v-3.269c-.192-.385-.385-.769-.577-1.154-.577-.961-1.154-1.923-1.538-2.885,0-.385,0-.769-.192-.961-.192,0-1.154-.385-1.154-.385-.192-1.346-.192-2.885-.385-4.231,0-1.538-.192-3.077-.577-4.615-.192-1.154-.577-2.115-1.154-3.269-.192-.385-.577-.961-.577-1.346-.385-1.154-.961-1.923-1.538-2.692-.385-.385-.769-.769-.961-1.154-.385-.385-.577-.961-.962-1.154,.577,.385,1.154,.769,1.731,1.346,1.346,1.346,2.692,2.692,4.038,4.231,.577,.384,1.154,.769,1.538,1.346,.192,.192,.385,.577,.385,.769,.192,.961,.385,1.731,.577,2.692,.385,.961,.962,2.115,.769,3.269,0,.385,0,.961,.192,1.346,.577,1.346,1.346,2.5,2.308,3.654,0,.385,.192,.577,.385,.769,.192,.385,.192,.577,.192,.769,.192,.769,.385,1.538,.769,2.308,.192,.385,.769,.769,1.154,1.154,1.154,1.154,1.923,2.692,3.077,3.846,.577,.577,1.154,1.154,1.731,1.538,.385,.385,.577,.577,.961,.769,.192,.192,.577,.577,.961,.577,7.884,.961,16.346,2.115,24.999,.769v-66.921c-126.342-8.077-252.107-16.346-378.256-24.422v38.652Zm313.453,14.615l.961,.192c1.923-1.538,5,.192,5.384,2.5,.385,2.308-.577,4.615-1.538,6.731-2.308,1.731-5.769,.385-6.923-2.115-1.154-2.5,0-5.577,2.115-7.307Zm-198.07-5.385c.385-3.269,5.384-3.846,7.692-1.538,2.307,2.5,2.307,6.154,1.538,9.423-.192,.769-.385,1.538-.961,1.923-.577,.385-1.346,.192-1.923,.192-2.308-.385-4.615-.577-6.731-.961-.192-3.077-.192-5.961-.192-9.038h.577Zm-39.616-20.574c2.308,.385,4.039,2.692,4.615,5,.577,2.308,.384,4.807-.193,7.115-2.885-.577-6.153,1.154-8.461-.769-2.115-1.731-1.539-5-.769-7.5-.192-2.5,2.5-4.423,4.807-3.846Zm164.007-326.672c-3.13-3.685-4.994-8.384-5.165-13.702,0-11.404,9.209-20.538,20.378-20.749,6.461,2.993,10.969,9.524,10.969,17.095,0,10.384-8.461,18.846-18.845,18.846-2.6,0-5.08-.531-7.336-1.489Zm-27.086,40.717c-7.884-.385-14.423-.769-22.884-.962,4.615-7.884,8.846-15,13.653-23.268,3.269,8.846,5.961,15.769,9.23,24.23Zm-58.614-42.793c-3.074-3.687-4.845-8.277-4.845-13.357,0-11.527,9.405-20.749,20.735-20.767,6.266,3.067,10.608,9.492,10.608,16.921,0,10.384-8.461,18.845-18.845,18.845-2.725,0-5.311-.595-7.653-1.642Zm218.03,305.671c-117.881-7.692-234.8-15.192-353.834-22.884,8.077-8.077,15.769-13.076,22.884-18.653,2.692-2.115,6.154-1.538,9.23-1.346,61.729,3.462,123.457,6.731,185.186,10.192,40.383,2.307,80.766,4.615,121.342,6.731,1.923,.192,3.846,.577,5.961,.769,3.846,7.692,6.923,15.576,9.231,25.192Zm73.074-117.111c.577-26.345-3.462-52.69-.385-79.228,1.154-9.423,4.423-18.461,6.346-27.884,5.577-26.153-.769-52.114-2.115-78.074-.192-1.731-.577-3.846-3.269-4.423-.192,4.808-.577,9.423-.769,13.269-8.077,5.961-15.384,11.346-22.499,16.538,1.346,3.846,5.385,5,5.385,9.423-1.731,5-8.461,5.961-11.154,10.961l-3.654,17.884c-.192-1.538-.385-3.269-.385-5,0-.769,0-1.346,.192-1.923,0-.769-.192-1.538-.192-2.115-.577-4.231-1.154-8.654-1.731-12.884-.192-.385-.192-.769,0-.962,0-.192,.192-.192,.385-.385,.769-.769,1.731-1.346,2.5-2.115,.385-.192,.769-.577,1.154-.961,.769-.769,1.731-1.539,2.5-2.308,.577-.577,.192-1.346,.385-2.115v-1.154c0-.769-.192-1.538-.577-2.308,0-.385,0-.577-.192-.769-.192-.577-.577-.961-.769-1.346-.769-1.346-1.154-3.077-2.115-4.231,0-.192-.192-.192-.192-.385s.192-.385,.385-.577c.192-.192,.577-.577,.769-.769l.769-.769c.192-.577,.769-.769,1.154-1.154,1.346-.961,2.692-1.923,4.038-2.692,.769-.577,1.538-.962,2.115-1.538,.577-.577,1.154-1.154,1.731-1.731,1.154-1.154,2.692-2.115,4.038-3.077l.192-.192c1.539-1.154,3.077-2.308,4.423-3.654,1.538-1.346,3.269-2.885,4.038-4.807,.385-6.538-1.154-13.077,.577-20.192,5-3.654,6.538-9.615,7.884-15.961,3.269-16.538,1.538-33.653,2.692-50.383,2.115-29.038,7.307-57.883-.961-87.113-4.808-16.346-6.154-33.653-11.346-49.998-4.038-12.884-11.923-20.384-26.153-21.345-2.308,2.692-6.923,3.461-9.038,7.692-.192,.192,.192,.961,.192,1.154,0,.385,.192,.769,.192,1.154,.192,.769,.385,1.538,.577,2.307,.192,.769,.385,1.731,.577,2.5,0,.577,0,.769,.577,1.154-.577,.385-1.154,.961-1.731,1.346-.577,.385-.961,.961-1.538,1.538l-8.077,2.692c1.154-1.346,2.5-2.885,3.654-4.423,.192-.192,.769-.577,.769-.962,.192-.769,0-1.731-.192-2.5-.192-.769-.385-1.538-.769-2.308-.577-1.538-1.346-2.885-2.115-4.423-.192-.769-.577-1.346-.769-2.115,0-.385-.192-.769-.192-1.154v-.769c4.231-4.038,10.961-7.115,9.038-14.23-2.692-9.23-5.577-19.038-14.23-24.999-10.961-7.5-21.922-14.999-35.96-15.961-9.23-.769-18.076-3.654-26.922-6.346-11.346-3.461-22.499-7.307-34.422-7.115-3.461-.577-6.923-1.154-11.923-1.923,4.615,2.885,7.884,4.808,11.923,5.192,9.038,4.231,17.499,9.423,25.576,15,4.038,2.692,8.077,5.577,11.923,8.654l5.769,4.615c.385,0,.577,.385,.961,.385h2.5l4.799,6.784c-.055-.188-.103-.39-.183-.631l.961,1.731c1.154,1.154,2.115,2.115,3.269,3.077,4.615,4.038,8.846,8.077,13.461,11.923,12.307,10.192,20.192,23.268,22.115,39.037,2.5,21.345,8.461,41.922,12.115,62.882,4.615,26.346,2.308,53.268,.962,79.998-1.346,25.576-5.192,50.767-5.577,76.343-.385,25.576,.385,51.152-2.692,76.536-2.885,23.268-3.077,46.344,2.885,69.421,1.731,7.115,2.308,14.807,.769,21.922-3.654,16.538-2.885,33.653-4.615,50.383-1.154,10.384-1.538,20.768-2.5,32.499,20.961-10,40.383-19.038,59.613-29.038,4.423-13.846,2.692-27.307,3.077-40.576Zm-2.5-324.22l.769-.769c-.769-1.923,2.5-3.269,4.231-2.115,1.731,1.154,1.923,3.654,2.115,5.769,.192,3.077-.385,7.115-3.269,7.692-2.115,.385-4.423-1.538-4.808-3.846-.384-2.308,.192-4.615,.962-6.731Zm-14.805-30.575l.961-.192c-.385-1.538,1.346-3.077,2.885-2.885,1.538,.192,2.692,1.731,3.077,3.269,.385,1.538-.192,3.077-.769,4.615-.385,.769-.769,1.538-1.538,1.923-1.539,.962-3.654,0-4.423-1.538-.769-1.539-.577-3.461-.192-5.192Zm-9.809,25.19c.577-1.154,.961-2.5,.769-3.846,2.885,.192,5.192,3.077,4.807,5.961-.385,2.885-3.269,5-6.154,4.615-.192-2.115-.192-4.038-.192-6.154l.769-.577Zm-2.498,267.299c-.385,2.692-1.538,5.961-4.231,5.961-1.731,.192-3.077-1.538-3.461-3.269-.385-1.731,.192-3.461,.577-5.192l-.385-.385c1.346-1.923,3.461-4.423,5.769-3.461,2.115,.961,2.115,4.038,1.731,6.346Zm48.65,163.071c.385,5.384-1.538,9.807-4.807,13.653-.769,.961-1.346,1.923-1.923,2.885,0,.192-.192,.192-.192,.385-.192,.192-.192,.385-.385,.769-.385,.577-.385,1.346-.385,1.923v2.885l-.577,3.269h-.385c-.385,.192-.577,.577-.577,.962-.192,.192-.192,.577-.192,.961s-.192,.577-.192,.769c-.192,.385-.192,.769-.385,1.154-.384,.769-.577,1.538-.769,2.308,0,.192-.192,.385-.192,.577-.192,.385-.192,.577-.385,.961-.192,.385-.192,.769-.385,.961-.385,.769-.577,1.346-.962,1.923h-.192c-.384,0-.577,.385-.769,.385-.961,.385-1.731,.962-2.5,1.346-.962,.577-2.115,.769-3.269,.962,1.731-1.154,3.461-2.308,4.808-3.846,.192-.192,.385-.192,.385-.385s.192-.385,.192-.385l.577-.577c.577-.769,.769-2.115,.769-3.077,0-1.346-.192-2.5-.192-3.846v-7.5c-.192-.192-.192-.385-.192-.577,0-.577,.385-1.154,.769-1.538,.769-.961,1.346-2.115,1.923-3.077,0-.385,.192-.769,.384-.962,0-.385,.192-.577,.385-.769,.192-.385,.577-.961,.961-1.346,.385-.385,.577-.769,.962-.961l.769-.769c.192-.385,.385-.577,.385-.769,.192-.385,.385-.577,.385-.962,0-.577,.192-1.346,0-1.923-.192-.961-.577-1.923-1.154-2.692-19.615,10.192-39.037,20.384-58.652,30.768v65.19c25.191-14.807,49.421-29.23,73.651-43.652,.577-19.999,1.538-39.614,.192-58.46-3.654-.192-5.769,1.538-7.884,3.077Zm-40.381,70.574c-.192,.577-.385,1.154-.961,1.539-1.346,.961-3.462,0-4.038-1.539-.577-1.538-.385-3.269,0-4.808l-.385-.961c-.577-1.538,1.346-3.269,3.077-3.077,1.731,.192,3.077,1.923,3.269,3.654,.192,1.731-.192,3.461-.961,5.192Zm-24.849-55.972c-4.231-7.884-7.115-15.769-10-24.807,21.345-10,42.499-19.999,63.844-30.191,7.115,4.423,11.538,11.153,16.73,16.922-2.884,3.269-6.538,4.231-10.192,5.961-.385-.192-.769-.385-1.154-.577-.385-.192-.962-.577-1.346-.769-.385-.192-.769-.577-1.346-.577-.577-.192-1.346-.577-1.731-.961-.192-.192-.192-.385-.192-.769-.192-.769-.385-1.346-.385-2.115-.192-.961-.385-1.731-.769-2.692-.192-.769-.577-1.731-.769-2.5l-3.077-.769s.192,.192,.385,.192,.192,0,.385,.192c.385,0,.577,.192,.769,.385,.385,.385,.577,.769,.769,1.154,0,.577,.192,1.154,.192,1.923,0,1.346,.192,2.884,0,4.231,0,.769,0,1.346-.192,2.115v.769c0,.385,.385,.385,.769,.577,.577,.192,.962,.769,1.154,1.154,.192,.385,.385,.769,.192,1.154,0,.385-.192,.769-.384,.962-.385,.769-.962,1.154-1.731,1.538-1.731,.769-3.461,1.731-5,2.692-15.384,8.077-30.768,16.346-46.922,24.807ZM500,0C223.858,0,0,223.858,0,500s223.858,500,500,500,500-223.857,500-500S776.142,0,500,0Zm255.376,800.534c0,7.5-2.5,12.5-9.038,16.346-26.922,15.769-53.844,31.922-80.574,48.075-5.961,3.654-12.307,5.192-19.23,4.807-50.96-3.269-101.92-6.731-152.879-10-44.999-2.884-89.805-5.577-134.803-8.461-34.614-2.308-69.228-4.423-104.035-6.538-7.5-.577-10.961-4.615-10.961-11.923-.192-27.115-.192-54.229-.577-81.343,0-6.538,2.885-10.577,7.884-14.23,14.23-10.769,28.268-21.922,42.499-33.076-2.885-25.191-1.731-49.614-3.077-74.228-.962-18.076-1.923-36.153,2.115-54.229,1.346-5.192,1.154-10.769,1.154-16.153,.192-24.23-.192-48.46,4.423-72.498,4.231-22.691,3.269-45.768,3.077-68.844-.192-25.384-.385-50.96-.962-76.536-.192-8.461,0,4.038,1.731-15.576,1.346-3.461,5.192-16.154,4.038-18.269,1.923-29.23-1.154-39.422,12.115-61.921,2.885-5.192,6.731-10.192,8.461-15.961,6.346-20.576,21.538-34.614,36.345-49.421,31.345-31.153,71.536-39.037,112.304-45.383,30.384-4.615,60.767-7.307,91.535-2.308,17.692,2.885,34.23,10.769,52.114,12.5,14.038,1.346,25.384,7.884,36.922,14.807,14.999,9.038,17.692,9.23,35.191,27.691q19.615,25.961,25.961,40.96c8.077,19.23,9.23,40.191,14.423,60.19,5.961,23.653,3.846,46.729,2.115,70.19-1.346,16.538-1.538,33.076-2.885,49.614-1.346,18.845-.961,37.306,1.923,56.344,4.038,26.73,8.461,54.614,.577,81.728-4.038,14.23-8.077,28.461-6.923,43.268,1.923,24.23,.385,48.46,.577,72.69,0,8.846-1.154,17.692-1.731,27.499,9.23,8.846,16.538,19.038,26.345,26.922,4.231,3.269,5.192,7.692,5.192,12.5-.577,23.461-1.154,47.114-1.346,70.767Z"/></svg>