<svg xmlns="http://www.w3.org/2000/svg" viewBox="0 0 1000 1000"><path d="M5 500.496C5 225.55 226.54 5 500.496 5c272.968 0 494.507 222.528 494.507 494.507 0 274.946-222.528 495.496-494.507 495.496C225.55 995.003 5 772.475 5 500.496zm190.88 173.078 321.43 195.824 266.044-158.242-287.803-170.11 55.385-33.627V203.792L769.508 336.32v140.44l-69.23-39.56-16.814 78.131 161.21 96.924v-321.43L517.308 106.868 195.88 290.825zm70.22-87.034V336.32l213.627-124.616v251.21zm37.582 71.21 120.66-79.122 217.583 132.528-124.616 71.21z"/></svg>