<svg xmlns="http://www.w3.org/2000/svg" viewBox="0 0 1000 1000"><path d="M10.186 530.43c-16.355-33.878 9.345-53.737 30.373-66.587 28.036-17.523 58.41-37.383 95.791-21.028 37.382 16.355 78.269 28.037 117.987 44.391 7.01 4.673 19.86 7.01 28.037 10.514-21.027 9.346-181.07 72.428-181.07 72.428-35.045 14.018-67.755 14.018-91.118-39.719zm95.791 77.1c30.373-14.018 63.083-23.364 95.792-37.382 12.85-3.505 12.85 3.504 17.523 17.523 5.84 51.4 26.868 94.623 64.25 129.669 64.25 59.578 137.847 77.1 216.115 68.923C665.54 762.9 803.387 630.893 820.91 470.852c10.514-93.456-11.682-175.229-87.614-235.975-64.251-47.896-136.679-54.905-211.443-45.56-136.678 30.374-227.797 108.642-285.038 233.639-3.505 12.85-11.682 15.186-22.196 12.85-23.364-12.85-52.569-21.027-81.773-32.71 2.336-5.84 7.009-8.177 16.354-17.522C277.701 278.1 403.866 169.459 533.535 63.154c59.578-49.065 116.819-39.72 163.547 19.858C780.023 188.15 866.469 290.95 949.41 398.424c15.186 16.355 32.71 37.382 39.718 54.905 15.187 44.391 0 85.278-35.045 116.819-45.56 37.382-92.288 72.428-137.847 112.146-98.128 85.278-199.76 175.229-306.066 259.338-45.56 36.214-100.464 37.383-140.183-7.009C317.42 875.046 269.524 814.3 219.292 748.881c-32.71-42.055-70.092-86.446-106.306-129.67-4.672-4.672-4.672-4.672-7.009-11.681zm177.565 46.728c3.505-12.85 44.391-7.01 58.41-52.569 28.036-71.26 56.073-148.36 82.941-224.293 4.673-5.84 4.673-19.859-7.009-22.195-16.355-9.346-19.86-24.532-12.85-44.391 12.85-19.86 33.878-32.71 57.241-32.71h59.578c11.682 3.505 23.364-2.336 31.541-16.354 16.355-26.869 66.587-37.382 71.26 5.84 0 8.178 9.345 10.514 12.85 10.514 64.25 7.01 92.287 67.755 68.923 124.997-9.345 19.859-17.523 35.045-28.036 50.232-9.346 10.514-9.346 17.523 0 24.532 18.69 28.036 23.363 56.073 14.018 88.782-22.196 77.1-101.633 132.006-182.238 132.006-19.86 0-40.887 0-51.4 23.364-9.346 23.363-64.25 26.868-64.25-8.178 0-10.513-9.346-15.186-17.524-15.186h-67.755c-26.868-4.673-32.709-19.86-25.7-44.391zm137.847-52.569c-3.505 12.85 0 17.523 14.018 17.523H549.89c26.868 0 56.073-21.028 60.746-45.56 7.009-23.363-4.673-43.223-28.037-43.223-40.887-3.504-78.269-3.504-116.82 0-7.008 0-16.354 3.505-21.026 11.682-5.841 19.86-15.187 42.055-23.364 59.578zm56.073-150.697c36.214 0 67.755 0 99.296-4.672 23.364 0 40.887-15.187 47.896-36.214 16.354-32.71 0-52.569-31.541-52.569h-67.755c-8.178 0-15.187 5.841-21.028 9.346-5.84 24.532-14.018 51.4-26.868 84.11z"/></svg>