<svg xmlns="http://www.w3.org/2000/svg" viewBox="0 0 1000 1000"><path d="M5 500.496C5 225.55 226.54 5 500.496 5c272.968 0 494.507 222.528 494.507 494.507 0 274.946-222.528 495.496-494.507 495.496C225.55 995.003 5 772.475 5 500.496zm127.583-45.495c-10.88 156.265 48.462 278.903 180 360.002 134.506 80.11 302.639 71.209 429.233-22.748 112.747-83.077 157.253-197.803 149.34-339.232H278.958c-30.66 127.583 51.429 245.276 180.99 273.957 116.703 25.715 247.253-47.472 270.99-149.34-37.583-11.869-66.264-1.979-94.946 32.637-39.56 54.396-119.67 69.23-185.935 43.516-63.296-18.79-103.846-73.187-107.802-132.528h477.694c-8.901 147.364-135.495 270.99-285.825 280.88-79.121 4.946-153.298-15.824-218.573-65.274-91.978-72.198-123.626-170.11-119.67-286.815-19.78 0-47.473.99-63.297 4.945z"/></svg>