<svg xmlns="http://www.w3.org/2000/svg" width="1000" height="1000">
  <path d="M895.887 399.669c0 218.042-172.972 399.54-392.232 399.54-222.915 0-399.542-175.407-399.542-392.232C104.113 180.408 273.431 5 491.473 5c224.133 0 404.414 170.536 404.414 394.669zM157.71 963.655c7.31-71.869-7.308-59.687 66.997-66.996h568.859c42.634 0 42.634 0 42.634 42.634-4.873 65.778 8.526 53.597-59.688 53.597H194.254c-21.926 7.308-36.544-4.873-36.544-29.235zm36.544-563.986c0 163.227 133.992 303.31 302.092 303.31 164.445 0 303.31-133.993 303.31-296.002 0-170.535-132.774-310.619-303.31-310.619-162.01 0-296.002 133.993-302.092 303.31z" style="fill:#000;fill-opacity:1;fill-rule:nonzero;stroke:none;"/>
</svg>
