<svg xmlns="http://www.w3.org/2000/svg" width="1000" height="1000">
  <path d="M501.57 782.576c-52.754 52.754-104.19 101.552-152.987 150.349-25.058 25.058-52.754 42.203-85.725 52.754-106.827 38.247-236.074-46.16-251.9-163.537C-.912 750.924 24.147 690.257 76.9 641.459c15.827-17.145 22.42-17.145 40.885 0 14.507 13.189 26.377 26.377 39.565 39.566 7.913 9.232 7.913 17.145 0 26.377s-18.464 18.464-23.739 27.696c-29.015 42.203-23.74 96.276 13.188 125.29 36.928 32.971 91.001 32.971 127.929-2.637 43.522-43.522 88.363-88.363 134.522-133.204 11.87-11.87 7.914-21.102 1.32-34.29-22.421-39.566-42.204-77.812-89.682-92.32-11.87-2.637-18.464-13.188-30.334-21.101-22.42 21.101-42.203 42.203-61.986 61.986-25.058 22.42-26.377 22.42-51.435-1.32-11.87-9.231-19.783-21.1-31.652-31.652-13.189-11.87-13.189-23.739 0-34.29 14.507-15.826 30.333-31.652 44.84-47.478 7.914-7.913 14.508-14.508 25.059-23.74l-64.624-64.623c-32.971-34.29-67.261-67.262-98.914-104.19C-19.376 249.762-6.187 127.11 76.9 53.254c79.131-67.262 197.828-64.624 273.002 10.55 5.276 2.638 7.913 6.595 11.87 10.551 19.783 19.783 19.783 23.74-1.319 43.522-10.55 11.87-23.74 19.783-31.652 31.653-21.102 21.101-25.058 21.101-47.479 1.318-15.826-14.507-29.015-27.695-51.435-32.97-34.29-7.914-73.856 2.637-93.638 29.014-25.058 32.971-26.377 65.942-10.551 104.189 5.275 3.956 6.594 9.232 11.87 14.507 51.435 51.435 101.55 102.87 154.305 151.668 25.058-13.189 50.116-26.377 72.537-42.203 9.232-3.957 13.188-9.232 17.145-14.508 13.188-22.42 22.42-43.522 35.609-69.899-3.957-5.275-9.232-14.507-17.145-22.42-15.827-17.145-30.334-31.652-44.841-47.479-17.145-14.507-17.145-22.42-3.957-36.927 11.87-13.189 25.058-26.377 39.566-39.566 18.463-14.507 22.42-14.507 38.246 0 19.783 15.826 36.928 35.609 52.754 52.754 6.594 5.275 11.87 9.232 19.783 14.507 7.913-7.913 17.145-13.188 21.102-21.101 43.522-39.566 83.087-79.131 122.652-118.697 42.204-44.84 94.958-69.899 160.9-65.942 83.088 7.913 145.074 48.797 172.77 127.928 29.014 76.494 17.144 145.074-36.928 205.74-11.87 11.87-23.74 22.421-38.247 35.61-19.783-19.783-40.884-40.885-60.667-61.986-7.913-9.232-5.276-18.464 2.638-26.377 11.87-10.551 23.739-22.42 30.333-35.61 21.102-39.565 11.87-92.319-19.783-117.377-39.565-29.014-89.681-30.333-126.61 2.638-35.608 32.971-68.58 67.261-101.55 101.551-15.827 17.145-29.015 34.29-43.523 51.436 13.189 27.695 27.696 54.072 42.204 79.13 5.275 6.595 11.87 10.551 19.782 14.508 19.783 11.87 40.885 22.42 65.943 35.609 7.913-9.232 21.101-21.102 34.29-34.29 11.87-10.551 23.74-22.42 35.609-32.972 9.232-9.231 17.145-9.231 27.696-2.637 19.782 19.782 39.565 35.609 60.667 56.71-25.058 38.247-59.348 58.03-84.407 92.32 9.232 9.232 17.145 17.145 23.74 26.377l118.696 118.696c42.203 43.522 65.943 94.957 63.305 158.262-1.319 94.957-80.45 180.682-172.77 188.595-80.45 7.914-142.435-21.101-195.19-89.681 22.421-19.783 40.885-40.885 61.987-59.348 7.913-9.232 18.464-3.957 27.696 3.956 10.55 9.232 18.464 18.464 30.333 25.058 38.247 23.74 87.044 17.145 117.378-13.188 29.014-30.334 35.609-81.769 9.232-117.378-19.783-25.058-40.885-44.84-64.624-67.261-29.015-30.334-63.305-63.305-93.638-92.32a43355.692 43355.692 0 0 0-77.812 40.885c-6.595 3.956-10.551 13.188-14.508 18.464-13.188 22.42-25.058 46.16-39.565 72.536 17.145 18.464 38.247 36.928 58.03 58.03 25.057 23.739 25.057 30.333 0 52.754-6.595 9.232-17.146 18.464-26.378 25.058-19.782 22.42-23.739 22.42-44.84 0-21.102-19.783-40.885-40.885-65.943-64.624z" style="fill:#000;fill-opacity:1;fill-rule:nonzero;stroke:none;"/>
</svg>
