<svg xmlns="http://www.w3.org/2000/svg" viewBox="0 0 1000 1000"><path d="M516.585 526.004h478.412v49.384H501.152C468.23 687.532 347.855 768.811 236.74 756.465c-54.529-9.26-105.971-29.837-127.577-51.442-27.779-23.664-59.673-49.385-75.105-84.365-12.347-29.837-27.78-65.846-27.78-98.77C.107 461.188 16.569 404.6 49.49 350.073c37.039-49.385 91.567-85.394 151.24-101.856 116.26-23.663 246.923 21.606 300.422 171.817h493.845v54.529H516.585zm-354.95-25.721c0 54.529 44.24 96.711 98.768 96.711 47.327 0 96.711-42.182 96.711-96.711 0-77.163-104.942-129.634-167.701-69.961-17.49 20.576-27.779 39.096-27.779 69.96z"/></svg>