<svg xmlns="http://www.w3.org/2000/svg" viewBox="0 0 1000 1000"><path d="M949.403 933.891H465.169c-29.17 0-60.675-11.668-80.511-39.672-39.672-79.344-87.512-159.856-127.184-238.033-19.836-39.672-19.836-59.508 19.836-68.843 127.184-50.173 256.702-108.515 386.22-158.688 42.006-18.67 60.675-9.335 78.177 19.836 79.345 148.187 159.856 285.872 235.7 425.892 31.504 39.672 19.836 59.508-28.004 59.508zm-931.13-59.508c39.673-68.843 79.345-140.02 119.017-207.696 19.836-39.672 40.84-39.672 60.675 0 39.673 67.676 79.345 138.853 119.017 207.696 28.004 39.672 19.836 59.508-31.505 59.508H49.778c-54.84 1.167-51.34-19.836-31.504-59.508zm186.693-320.878c-10.501 10.502 253.202-437.56 260.203-451.562 29.17-47.84 39.672-47.84 68.843 0 40.839 71.176 78.177 140.019 117.85 207.695 19.836 31.504 19.836 51.34-8.168 59.508C514.176 419.32 384.658 478.828 265.64 529.002c-8.167 0-39.672 24.503-60.675 24.503z"/></svg>