<svg xmlns="http://www.w3.org/2000/svg" viewBox="0 0 1000 1000"><path d="M416.721,287.726c0-27.679,3.954-36.575,19.77-36.575s20.759,9.885,20.759,37.563a145.923,145.923,0,0,1-.989,20.759c0,11.862-7.908,19.77-19.77,18.782-11.862,0-19.77-6.92-19.77-18.782Zm175.955,2.965c.988,28.667-3.954,39.541-20.759,37.564-23.724-2.966-19.77-21.748-19.77-37.564-.989-6.919-2.966-15.816,0-20.758,4.942-7.909,14.828-16.805,20.759-16.805,7.908,0,15.816,10.873,19.77,18.782C595.641,276.852,592.676,284.76,592.676,290.691ZM479,717.728c-10.874-3.954-17.793-3.954-22.736-7.908-7.908-3.954-16.8-7.908-18.781-13.839-.989-5.931,5.931-14.828,10.873-20.759,12.851-10.873,27.678-9.885,39.541,1.977,4.942,3.954,5.931,10.874,9.885,16.805,10.873-11.862,15.816-20.759,22.735-20.759,11.863-2.965,22.736-.988,32.621,3.954C559.066,679.176,565,694,564.009,696.97c-4.943,6.919-15.816,9.885-23.724,13.839l-14.828,8.9c8.9,9.885,14.828,16.8,22.736,21.748,7.908,7.908,15.816,12.85,22.736-2.966,1.977-4.943,8.9-8.9,13.839-10.874,14.827-5.931,16.8-13.839,7.908-25.7-3.954-4.942-7.908-12.851-7.908-17.793,3.954-13.839.988-20.759-11.862-26.69-3.954-1.977-5.931-9.885-5.931-14.828,0-20.758-13.84-36.575-35.587-37.563-18.782-1.977-38.552-2.966-58.322,0-12.851.988-24.713,7.908-34.6,15.816-3.954,2.966,0,16.8-1.977,24.713-1.977,4.942-8.9,8.9-11.862,14.828-3.954,4.942-10.874,12.85-8.9,15.816,5.931,13.839,1.977,20.759-8.9,28.667-7.908,5.931-3.954,17.793,5.931,22.735s17.793,10.874,31.632,20.759Zm25.7-291.611h-86c-12.851,0-17.793,3.954-17.793,16.805.988,30.644,0,61.288.988,91.932,0,19.77,6.92,27.678,26.69,27.678,50.414.988,99.84,0,151.242,0,16.8,0,25.7-8.9,25.7-25.7.989-31.633,0-63.265.989-93.909,0-12.851-5.931-16.805-17.793-16.805Zm61.288,355.865H543.25l-42.506-20.759-40.529,20.759H432.537c-64.253-22.736-79.081-47.449-64.253-116.645,2.965-16.8,8.9-33.609,12.85-50.414.989-4.942,1.977-10.874,0-13.839-7.908-12.851-16.8-24.713-26.689-39.541-3.954.989-13.84.989-16.805,5.932-9.885,13.839-19.77,25.7-39.541,15.816-.988-.989-3.954,1.977-4.942,2.965-4.943,14.828-16.805,13.839-28.667,16.805-4.943.988-6.92,19.77-9.885,30.644,0,.988-2.966,3.954-2.966,3.954,3.954,6.919,6.92,17.793,12.851,19.77,10.874,2.966,23.724,0,39.54.989-.988-2.966-3.954-8.9-5.931-14.828-1.977-8.9-5.931-22.736-1.977-25.7,6.92-4.943,19.771-7.908,27.679-3.954,7.908,2.965,16.8,12.85,17.793,20.758,2.965,33.61-42.506,67.219-75.127,59.311-51.4-11.862-73.15-75.127-37.563-113.679,13.839-15.816,31.632-27.678,49.425-40.529,12.851-8.9,26.69-14.827,40.529-22.736v-6.919c-11.862-2.966-24.713-4.943-36.575-8.9a117.79,117.79,0,0,1-19.77-7.908c-3.954-2.965-5.931-8.9-9.885-8.9-22.736-2.966-44.483-4.943-64.253-14.828-.989,0-2.966,1.977-3.954,2.965-1.977,13.84-3.954,27.679-24.713,20.759-2.966-.988-7.908,7.908-14.828,15.816,23.724-1.977,34.6,1.977,28.667,21.748-.989,2.965,2.965,6.919,5.931,10.873,2.966-2.965,7.908-4.942,8.9-7.908,1.977-5.931.988-11.862,1.977-17.793,2.965-9.885,8.9-17.793,21.747-13.839,15.816,4.942,24.713,24.713,17.793,39.54-11.862,23.725-33.609,31.633-58.322,32.621-22.736.989-42.506-7.908-53.38-29.655-25.7-55.357,1.977-108.737,63.265-115.656a119.645,119.645,0,0,1,37.563,0c31.633,4.942,63.265,11.862,96.875,17.793-.989-4.942,0-9.885-1.977-12.851-5.931-10.873-17.794-20.758-18.782-31.632-2.966-24.713-24.713-36.575-37.564-54.368-6.919-9.885-16.8-18.782-30.643-6.92-3.954,2.966-12.851,0-18.782,1.977-7.908,2.966-15.816,6.92-19.77,11.863-1.977,2.965,3.954,13.839,7.908,17.793,7.908,4.942,13.839,3.954,20.758-4.943,4.943-5.931,15.817-6.919,23.725-9.885.988,7.908,4.942,16.8,2.965,24.713-1.977,6.919-8.9,12.851-14.827,16.805-19.771,9.885-48.437,2.965-62.277-13.84-14.827-18.781-16.8-44.483,0-61.287,9.885-10.874,25.7-18.782,39.541-22.736C264.49,289.7,308.973,313.427,344.559,358.9c3.954,5.931,7.909,10.873,13.84,18.781,12.85-33.609-16.805-77.1,34.6-95.885.988,10.873.988,18.781,1.977,26.69,1.977,22.735,14.827,37.563,33.609,39.54,26.69,3.954,46.46-13.839,47.448-41.518,0-7.908,2.966-21.747,4.943-22.735a167.371,167.371,0,0,1,44.483,0c2.966.988,4.943,15.816,4.943,24.713,1.977,21.747,15.816,37.563,37.563,39.54,22.736,1.977,38.552-10.874,42.506-34.6,1.977-9.885,1.977-19.77,3.954-31.632,46.46,13.839,24.713,55.356,35.586,84.023,9.886-9.885,17.794-18.782,25.7-26.69,36.575-36.575,81.058-49.425,130.483-33.609,12.851,3.954,25.7,14.828,32.621,25.7,13.839,18.782,6.92,46.46-10.873,61.288-18.782,14.828-47.449,16.805-62.277,2.966-11.862-9.886-15.816-29.656-6.919-36.575,12.85-8.9,19.77,0,26.69,10.873,2.965,2.966,12.85,5.931,15.816,3.954,5.931-3.954,9.885-11.862,10.873-17.793,0-2.965-7.908-7.908-12.85-10.874-6.92-2.965-13.839-5.931-20.759-6.919-4.943-1.977-10.874-4.943-13.839-2.966-16.805,13.839-32.621,27.679-47.449,42.506-.988,1.977,1.977,7.908.989,10.874-2.966,6.92-5.931,17.793-9.885,19.77-20.759,6.92-17.794,23.724-22.736,37.564,35.586-5.931,68.207-13.84,100.828-16.8,46.46-5.931,93.909,3.954,105.771,64.253V523.98L884.287,539.8c-7.908,21.747-24.713,33.61-48.437,34.6-27.679,0-51.4-7.908-63.265-31.632-3.954-6.92-.989-20.759,3.954-28.667,3.954-6.92,17.793-13.839,21.747-11.862,5.931,4.942,8.9,15.816,12.851,23.724v2.966a144.666,144.666,0,0,1,8.9,12.85c3.955-4.942,9.886-8.9,13.84-13.839,3.954-5.931,3.954-13.839,8.9-17.793,9.885-8.9,10.874-11.862-1.977-15.816-5.931-1.977-12.85-7.908-14.827-12.851-4.943-15.816-11.863-13.839-21.748-5.931-6.919,3.954-15.816,7.908-21.747,5.931-16.805-4.943-26.69-2.966-35.586,11.862-2.966,3.954-12.851,8.9-15.817,7.908-21.747-11.862-33.609,5.931-52.391,12.851,7.908,3.954,11.862,6.919,16.8,9.885,22.736,15.816,48.437,29.655,69.2,48.437,39.54,34.6,31.632,88.966-12.851,115.656-19.77,10.874-39.54,9.885-57.333-.989-18.782-11.862-35.587-26.689-33.61-51.4.989-7.908,9.885-19.77,18.782-22.736,6.919-2.965,18.782,2.966,28.667,4.943-2.966,7.908-3.954,16.8-5.931,25.7-.989.988-1.977,1.977-1.977,2.965-.989,5.932,0,10.874-.989,15.817,4.943-.989,11.862.988,16.805-.989,3.954-.988,8.9-7.908,13.839-7.908,10.874.989,22.736,0,19.77-12.851-1.977-13.839,3.954-31.632-14.828-38.552-14.827-4.942-26.689-21.747-46.46-16.8-.988.988-4.942-3.954-7.908-5.931-9.885-5.931-19.77-12.851-27.678-17.794l-33.609,48.438c4.942,18.781,10.873,40.528,15.816,63.264,11.862,60.3-6.92,90.943-65.242,106.759C567.963,780.993,567.963,781.982,565.986,781.982ZM5.5,501.244C5.5,773.085,225.938,995.5,500.744,995.5,772.585,995.5,995,775.062,995,500.256,995,228.415,773.573,6,500.744,6,226.927,6,5.5,226.438,5.5,501.244Z"/></svg>