<svg xmlns="http://www.w3.org/2000/svg" width="1000" height="1000">
  <path d="M5 500.496c0 271.98 220.55 494.507 495.496 494.507 271.98 0 494.507-220.55 494.507-495.496C995.003 227.528 773.464 5 500.496 5 226.54 5 5 225.55 5 500.496zm161.21 261.1L275 652.804c-29.67-47.472-45.494-96.923-45.494-151.319 0-56.374 15.824-105.824 45.495-153.297-36.594-36.594-72.198-70.22-108.792-106.814 27.693-26.703 54.396-54.395 82.089-81.099 33.626 36.594 69.23 72.198 105.824 108.792 103.847-61.32 203.737-61.32 307.584-2.967 33.626-35.605 70.22-72.198 105.824-107.803 27.692 28.682 54.396 56.374 82.088 83.077L742.805 348.188c59.34 101.868 59.34 202.748 0 304.616 36.593 36.594 72.198 72.198 108.791 106.814-29.67 28.681-56.374 56.374-84.066 83.077L659.727 734.893c-94.945 60.33-208.682 58.351-303.627 0-35.604 35.604-72.198 72.198-105.824 107.802-29.67-26.703-56.374-54.396-84.067-81.1zm214.615-160.22c47.473 58.351 136.484 81.099 194.836 44.505-36.593-33.626-72.198-69.23-105.824-103.846 26.703-26.704 53.407-54.396 81.099-81.1 33.626 33.627 70.22 70.22 103.846 105.825 29.67-56.374 20.77-144.396-49.45-195.825-66.264-50.44-156.265-41.538-212.638 17.803-56.374 58.351-61.32 149.34-11.869 212.638z" style="fill:#000;fill-opacity:1;fill-rule:nonzero;stroke:none;"/>
</svg>
