<svg xmlns="http://www.w3.org/2000/svg" width="1000" height="1000">
  <path d="M658.738 227.528c47.473 28.385 85.056 65.967 112.748 112.748 28.385 49.45 42.528 102.56 42.528 159.231 0 56.67-14.143 109.484-42.528 158.242-27.692 47.473-65.275 85.056-112.748 112.748-48.758 28.978-101.67 43.517-158.736 43.517-57.066 0-109.979-14.539-158.737-43.517-47.473-27.692-85.055-65.275-112.748-112.748-28.978-48.758-43.516-101.571-43.516-158.242 0-56.67 14.538-109.78 43.516-159.231 27.693-46.78 65.275-84.363 112.748-112.748 48.758-28.385 101.572-42.527 158.242-42.527 57.363 0 110.473 14.142 159.231 42.527zM5 499.508c0-89.704 22.45-172.782 67.253-249.232 44.209-74.473 103.55-133.814 178.023-178.023C326.726 27.45 409.804 5 499.507 5c89.704 0 173.078 22.45 250.22 67.253 74.474 44.209 133.518 103.55 177.034 178.023 45.495 76.45 68.242 159.528 68.242 249.231 0 89.704-22.747 173.078-68.242 250.22-43.516 74.474-102.56 133.518-177.033 177.034-77.143 45.495-160.517 68.242-250.22 68.242-89.704 0-172.782-22.747-249.232-68.242-74.473-43.516-133.814-102.56-178.023-177.033C27.451 672.585 5 589.21 5 499.508zm121.649 0c0 67.252 17.11 129.857 51.428 187.912 32.935 56.077 77.44 100.88 133.517 134.506 58.056 33.626 120.66 50.44 187.913 50.44 67.945 0 130.847-16.814 188.902-50.44 56.077-33.627 100.583-78.429 133.517-134.506 34.319-58.055 51.429-120.66 51.429-187.913 0-67.253-17.11-129.857-51.43-187.913-32.933-56.67-77.439-101.571-133.516-134.506-58.055-33.626-120.858-50.44-188.407-50.44-67.55 0-130.352 16.814-188.408 50.44-56.077 32.935-100.582 77.836-133.517 134.506-34.318 58.056-51.428 120.66-51.428 187.913zm98.901 0c0 38.274 7.616 74.472 22.748 108.79 15.131 34.32 36.296 64.287 63.296 90.001 8.605-15.824 20.077-30.363 34.616-43.517-20.473-19.78-36.396-43.22-47.967-70.22-11.572-27-17.308-55.384-17.308-85.055 0-39.56 9.89-76.154 29.67-109.78 19.78-33.627 46.286-60.33 79.616-80.11s69.726-29.671 109.286-29.671 76.154 9.89 109.78 29.67c33.627 19.78 60.33 46.484 80.11 80.11 19.781 33.627 29.671 70.22 29.671 109.781 0 29.67-5.736 58.055-17.307 85.055-11.572 27-27.495 50.44-47.968 70.22 13.847 13.154 25.418 27.693 34.616 43.517 27-25.714 48.165-55.681 63.297-90 15.132-34.32 22.747-70.517 22.747-108.792 0-49.45-12.56-95.638-37.582-138.462-24.43-41.538-57.363-74.176-98.902-97.912-42.824-25.022-89.011-37.583-138.462-37.583-49.45 0-95.242 12.56-137.473 37.583-41.538 23.736-74.473 56.374-98.901 97.912-25.022 42.824-37.583 89.011-37.583 138.462zm106.814 0c0 24.428 5.143 47.472 15.33 69.23 10.186 21.758 24.23 40.55 42.033 56.374a200.388 200.388 0 0 1 54.395-19.78c-19.088-10.583-34.417-25.22-45.989-44.011-11.571-18.792-17.308-39.264-17.308-61.32 0-22.054 5.242-42.23 15.825-60.33 10.582-18.098 25.022-32.637 43.516-43.516 18.495-10.879 38.374-16.319 59.836-16.319 21.461 0 41.242 5.44 59.34 16.32 18.1 10.878 32.638 25.417 43.517 43.516 10.88 18.099 16.319 38.275 16.319 60.33s-5.736 42.527-17.308 61.319c-11.571 18.79-26.901 33.428-45.989 44.01a200.387 200.387 0 0 1 54.396 19.78c17.802-15.823 31.846-34.615 42.033-56.373 10.187-21.758 15.33-44.802 15.33-69.23 0-30.364-7.616-58.353-22.748-84.067-15.132-25.714-35.604-45.99-61.319-60.824-25.714-14.836-53.703-22.253-84.066-22.253s-58.154 7.417-83.572 22.253c-25.417 14.835-45.692 35.11-60.824 60.824-15.132 25.714-22.747 53.703-22.747 84.066z" style="fill:#000;fill-opacity:1;fill-rule:nonzero;stroke:none;"/>
</svg>
