<svg xmlns="http://www.w3.org/2000/svg" width="1336" height="1000">
  <path d="M995 489.832v163.869c-39.372 22.346-78.743 44.692-118.114 68.101-12.769 6.385-23.41 8.513-36.179 0-32.986-20.217-67.037-39.37-101.088-58.524-12.769-7.449-19.153-17.026-17.025-30.859 0-38.307 1.064-74.486-2.128-111.729 0-11.704-7.449-25.538-17.026-30.858-71.293-45.756-72.357-45.756-143.65-1.064-7.45 4.256-13.834 9.577-26.603 17.025 30.858 18.09 58.525 35.115 86.19 51.076 18.09 9.577 25.539 20.218 24.475 40.436-2.128 36.178 1.064 74.485 0 110.664-2.128 10.641-8.513 23.41-18.09 29.795-32.986 22.345-65.973 40.435-102.152 59.588-7.448 5.32-23.41 5.32-32.986 0-36.18-19.153-71.294-39.37-104.28-61.717-7.45-2.128-13.834-14.897-15.962-24.473-1.064-41.5-1.064-81.935 2.128-123.434 0-9.577 9.577-21.282 17.026-27.666 28.73-19.154 58.524-35.115 92.575-55.333-32.987-21.281-60.653-38.307-91.511-55.332-4.257-2.128-11.705 0-17.026 3.192-29.794 15.961-58.524 30.859-85.126 50.012-7.449 5.32-15.962 18.09-15.962 26.602a1469.019 1469.019 0 0 0 0 96.832c0 19.153-4.256 30.858-21.281 39.37-32.987 19.154-67.038 39.372-100.024 56.397-7.449 5.32-21.282 5.32-29.795 0-32.986-17.025-64.909-36.178-97.895-55.332-13.833-6.384-20.218-14.897-18.09-32.987V512.178c-2.128-17.026 6.385-26.602 20.218-34.05 30.858-18.09 62.78-35.116 91.511-54.27 9.577-4.256 15.961-19.153 17.025-27.665 2.129-35.115 0-68.102 2.129-103.217 0-9.576 7.448-23.41 14.897-27.666 35.115-24.474 71.293-44.691 107.472-63.845 7.449-4.256 20.218-3.192 28.73 0 36.18 19.154 70.23 39.371 103.217 61.717 9.576 6.385 18.09 20.218 18.09 31.923 3.191 30.858 1.063 63.845 1.063 95.767-1.064 20.218 5.32 32.987 23.41 44.692 76.614 46.82 74.486 46.82 150.036 0 14.897-9.577 20.218-19.154 20.218-36.18-1.065-35.114 0-70.229 0-104.28-1.065-15.96 5.32-26.602 21.281-35.114 32.987-19.154 65.973-39.371 101.088-56.397 7.449-5.32 21.282-5.32 29.795 0 34.05 17.026 65.973 37.243 98.96 55.333 17.025 9.576 22.345 21.281 22.345 39.37-2.128 36.18-2.128 70.23 0 106.41 0 8.512 4.257 21.281 10.641 25.537 35.115 22.346 71.294 41.5 107.473 59.589zM33.067 574.959c-3.192 42.563 9.577 67.037 48.948 88.319 39.371 24.474 65.973 25.538 105.345 2.128 38.307-23.41 55.332-42.563 55.332-81.935-2.128-84.062 6.384-59.588-58.525-102.152-36.179-25.538-62.78-24.474-98.96 0-61.716 42.564-46.82 17.026-52.14 93.64zm9.577 52.14V520.69c13.833 23.41 13.833 86.191 0 106.409zm88.32 42.563c31.922-17.025 62.78-34.05 92.574-52.14 3.193 3.192 5.32 6.385 6.385 9.577-30.858 19.153-62.781 36.179-93.64 54.268-2.128-5.32-3.192-8.512-5.32-11.705zm0-193.663c2.127-3.192 5.32-7.449 6.384-10.64 31.922 17.024 61.717 36.178 92.575 53.203-1.064 5.32-4.256 7.449-6.385 10.641-30.858-17.025-60.652-36.179-92.575-53.204zm36.178-122.37c-3.192 43.628 11.705 69.166 51.076 87.255 69.166 35.115 40.435 35.115 106.408 0 39.372-18.09 55.333-37.243 55.333-79.806-2.128-81.935 5.32-58.525-56.397-101.088-38.307-25.538-65.973-25.538-104.28 2.128-59.589 40.435-46.82 14.897-52.14 91.511zm12.769 46.82V304.68c1.064 0 3.192-2.128 4.256-2.128v97.896zm86.19-146.844c3.193-3.192 5.321-6.384 6.385-9.576 30.859 18.089 61.717 35.114 91.512 52.14-1.064 3.192-4.257 8.512-6.385 11.705zm2.129 193.664c29.794-17.026 61.717-34.051 91.511-50.012 3.193 3.192 4.257 6.384 6.385 9.576-29.795 17.026-61.717 34.051-91.511 52.14-3.193-3.192-5.32-8.512-6.385-11.704zm135.139 202.176c-3.193 45.755 12.769 69.165 52.14 92.575 38.307 22.346 64.909 21.282 103.216-1.064 37.243-22.346 59.589-38.307 59.589-86.19 2.128-63.846-11.705-63.846-61.717-96.833-35.115-25.538-62.781-25.538-101.088 0-59.589 41.5-46.82 17.026-52.14 91.512zm9.576 48.948v-98.96c14.898 14.897 15.962 78.742 0 98.96zm88.32 46.82c31.922-17.026 62.78-34.051 94.703-52.14 2.128 3.191 3.192 6.384 6.384 9.576-31.922 19.153-62.78 36.179-94.703 54.268-3.192-3.192-4.256-6.384-6.385-11.705zm0-191.536c3.192-5.32 5.32-8.513 6.384-12.769 31.923 19.154 62.781 36.179 94.703 55.332-1.064 3.193-3.192 6.385-6.384 9.577-31.923-18.09-62.781-35.115-94.704-52.14zm131.946-203.24c3.192 50.012 18.09 70.23 55.332 93.64 38.307 22.345 67.038 22.345 104.28-1.065 17.452-10.109 29.582-20.75 37.67-33.518 1.382-2.022 2.553-4.15 3.617-6.278.532 1.064.958 2.234 1.277 3.617-1.596.852-3.192 1.81-4.895 2.66-29.262 16.388-59.589 34.37-89.809 50.545-3.192-4.257-4.256-7.449-6.384-10.641 31.922-19.154 63.845-36.18 94.703-53.204 1.597 2.34 3.725 4.15 5.108 7.023 7.236-14.046 10.322-30.646 10.854-51.715 0-20.537-2.767-37.03-10.003-51.076-.319-.638-.745-1.277-1.064-2.022l1.49.958c-.106.32-.213.745-.426 1.064-1.17 2.873-3.086 5.64-5.959 8.513-30.858-17.026-62.78-36.18-94.703-55.333 3.192-3.192 5.32-6.384 6.384-9.576 31.39 17.77 62.781 35.646 93.214 54.374-8.193-14.897-21.6-27.027-42.138-38.413-38.307-22.346-64.909-25.538-103.216-1.064-36.179 23.41-62.78 37.243-55.332 91.511zm12.769 51.076v-96.832h8.513v95.768c-3.193 0-5.32 0-8.513 1.064zm109.6 173.446c-3.192 44.691 10.641 70.23 50.013 88.319 65.973 32.986 38.307 35.115 105.344 0 38.307-20.218 56.396-45.756 60.653-88.32 7.448-57.46-25.538-72.357-64.91-95.767-36.178-22.346-62.78-22.346-97.895 2.128-62.781 42.564-48.948 17.026-53.204 93.64zm17.026 45.755c-12.77-6.384-15.961-72.357 0-95.767zm80.87 48.948c30.859-17.025 62.781-34.05 92.576-52.14 3.192 3.192 4.256 6.385 6.384 9.577-31.922 19.153-61.717 36.179-93.64 54.268-3.191-3.192-4.256-8.512-5.32-11.705zm0-193.663c2.129-3.192 4.257-7.449 5.32-10.64 34.051 18.089 64.91 39.37 96.832 58.524-2.128 2.128-3.192 5.32-6.384 8.512-31.923-18.089-62.781-37.243-95.768-56.396z" style="fill:#000;fill-opacity:1;fill-rule:nonzero;stroke:none;"/>
</svg>
