<?xml version="1.0" encoding="UTF-8"?><svg id="a" xmlns="http://www.w3.org/2000/svg" viewBox="0 0 1000 1000"><path d="M267.187,579.254h0c-.066-.182-.119-.367-.184-.55,.065,.183,.119,.367,.184,.55Zm732.813-79.254c0,276.142-223.858,500-500,500S0,776.142,0,500,223.858,0,500,0s500,223.858,500,500Zm-389.186-224.822c49.171,24.821,89.13,65.32,113.161,114.948l16.672-7.374,22.435-10.057-1.934,.387c8.123-3.868,36.36-19.341,20.501-56.475-27.077-42.549-63.437-76.976-105.213-102.119-29.398-15.086-47.578,19.341-47.578,19.341l-11.218,25.916-6.826,15.432Zm-259.302,179.135c-9.67,29.398-10.057,61.503,.387,92.062l47.578-18.567,43.71-17.02c3.868-4.255,5.029-10.444,2.708-16.246-.774-1.934-1.934-3.481-3.094-4.642l-43.71-17.02-47.578-18.567-1.367-.533c-4.368,14.299-6.736,29.462-6.736,45.171,0,16.621,2.661,32.626,7.53,47.647l.574-.224c-10.444-30.945-10.057-63.051,0-92.062Zm-96.292,17.653c-.267,2.145-.516,4.294-.724,6.449-.213,2.547-.45,5.086-.584,7.654-.007,.116-.017,.231-.024,.347-.211,4.152-.318,8.332-.318,12.536,0,28.127,4.829,55.134,13.602,80.309l.016-.006,32.879-12.765,28.624-11.217,16.838-6.564c-5.118-15.678-7.922-32.392-7.922-49.756,0-16.452,2.495-32.33,7.109-47.288l-16.025-6.247-28.624-10.831-32.879-12.765c-5.713,15.899-9.694,32.398-11.858,49.212,.052-.46,.106-.919,.161-1.378,2.192-16.491,6.107-32.664,11.697-48.221l-.849-.336c-5.231,15.545-8.837,31.806-10.848,48.557-.355,2.668-.675,5.341-.938,8.025,.166-1.921,.458-3.805,.668-5.713Zm23.958-80.316c9.562-20.277,22.018-39.138,37.072-55.975-14.97,16.674-27.721,35.38-37.706,55.695l.633,.28Zm164.478-131.026c3.337-.817,6.678-1.592,10.022-2.268-11.34,2.099-22.401,4.981-33.139,8.59l.213,.537,12.765,32.879,11.218,28.624,6.37,16.341c14.936-4.6,30.789-7.088,47.215-7.088,17.305,0,33.965,2.783,49.596,7.867l6.674-17.12,11.218-28.624,12.661-32.613c-25.13-8.737-52.081-13.547-80.149-13.547-15.191,0-30.039,1.462-44.472,4.123-3.401,.684-6.798,1.468-10.191,2.298Zm32.269,85.618c12.917-2.213,25.858-2.674,38.526-1.359-5.304-.551-10.685-.841-16.132-.841-15.683,0-30.82,2.362-45.098,6.715l.41,1.052,18.567,47.578,17.407,44.484c4.255,3.481,10.444,4.642,15.859,2.321,1.934-.774,3.481-1.934,4.642-3.094l17.02-44.097,18.433-47.234c.044,.015,.09,.028,.134,.043l.114-.292c-7.309-2.36-14.85-4.191-22.585-5.447-15.429-2.454-31.381-2.502-47.296,.172Zm-21.514,301.244c13.93,4.125,28.658,6.377,43.908,6.377,16.382,0,32.169-2.577,47.002-7.311l-17.809-45.635-17.02-43.71c-4.255-3.868-10.831-5.029-16.633-2.708-1.547,.774-3.094,1.547-4.255,2.708l-17.02,43.71-18.174,46.57Zm78.517-194.333c.387,5.802,3.868,10.831,9.67,13.152,1.547,.774,3.481,1.16,5.415,1.16l43.323-18.954,45.024-19.721c-14.234-27.891-36.637-50.944-64.079-65.919l-20.4,46.572-18.954,43.71Zm-105.901-91.662c-28.14,14.654-51.232,37.679-65.965,65.771l1.357,.608c-.023,.047-.052,.092-.076,.14l46.805,20.501,43.323,18.954c5.802-.387,10.831-4.255,13.151-9.67,.774-1.934,1.16-3.481,1.16-5.416l-18.954-42.936-20.29-46.322c.06-.03,.115-.066,.175-.096l-.688-1.535Zm-64.05,211.635l-.493,.213c15.015,27.309,38.036,49.599,65.868,63.754l20.251-46.233,18.954-42.936c-.387-5.802-3.868-11.217-9.67-13.538-1.547-.774-3.481-1.16-5.415-1.16l-42.936,18.954-46.804,20.501c.077,.154,.17,.293,.247,.447Zm59.072,158.344c24.019,7.899,49.641,12.232,76.27,12.232,28.016,0,54.919-4.794,80.01-13.5l-11.749-30.262-11.218-29.011-7.57-19.09c-15.596,5.059-32.214,7.826-49.473,7.826-15.876,0-31.208-2.35-45.704-6.659l-7.108,17.923-11.217,29.011-12.241,31.53Zm149.24-95.917c26.944-14.451,49.138-36.636,63.601-63.573l-44.327-19.416-42.549-18.567c-1.547,0-3.481,.387-5.029,1.16-3.868,1.547-6.963,4.642-8.51,8.51-.773,1.547-1.16,3.094-1.16,5.029l18.567,42.549,19.407,44.307Zm74.815-90.146c4.622-14.673,7.125-30.276,7.125-46.455,0-15.268-2.256-30.012-6.39-43.957l-45.833,17.886-44.096,17.407c-3.868,4.255-5.029,10.444-2.708,16.246,.774,1.547,1.547,3.095,2.708,4.255l44.096,17.02,45.097,17.599Zm5.358,2.263l19.171,7.602,29.011,11.218,30.181,11.717c8.54-24.876,13.244-51.519,13.244-79.255,0-26.774-4.383-52.529-12.365-76.661l-30.674,11.909-29.011,11.217-18.791,7.325c4.405,14.644,6.802,30.15,6.802,46.21,0,16.979-2.667,33.343-7.57,48.718Zm-42.997-267.177l-14.034,31.861-12.378,27.851h0s-7.466,17.32-7.466,17.32c28.74,15.561,52.194,39.645,67.036,68.818l18.566-8.003,28.237-12.378,30.238-13.479c-23.441-48.317-62.34-87.761-110.199-111.99Zm-205.893-59.427l10.057,25.917,5.771,14.564c25.119-8.479,51.977-13.146,79.92-13.146,28.771,0,56.397,4.936,82.151,13.903l6.224-15.708,8.123-20.888c3.094-8.51,11.991-40.228-26.69-54.927-.387,0-.387-.387-.774-.387-46.031-9.284-94.382-9.284-141.96,1.934-10.831,3.481-36.36,15.859-22.822,48.738Zm-12.348,58.375c-23.798,11.767-45.401,27.303-64.065,45.799,6.505-6.424,13.424-12.498,20.74-18.178-29.141,22.81-51.962,51.868-67.333,84.201l32.492,14.312,28.238,12.378,15.467,6.933c15.328-29.382,39.459-53.447,68.889-68.695l-6.993-15.601-12.378-28.237-14.312-32.492c-.155,.073-.302,.155-.457,.229l-.287-.649Zm-64.123,45.855c-3.173,3.136-6.241,6.361-9.215,9.66,2.987-3.301,6.055-6.526,9.215-9.66Zm-87.151,48.561l1.934,.774,18.18,8.123,14.168,6.267c24.426-49.809,64.897-90.355,114.642-114.892l-6.19-13.994-12.765-29.398c-14.312-28.624-40.228-18.954-49.512-14.312-41.002,25.53-75.042,59.183-100.571,98.251-.387,.387-.387,.774-.387,1.547-16.246,37.908,12.378,53.767,20.501,57.635Zm-13.152,221.644l20.888-8.123,15.085-5.977c-9.033-25.839-14.004-53.567-14.004-82.448,0-27.971,4.676-54.854,13.171-79.993l-14.252-5.647-26.69-10.444c-30.945-12.378-43.323,10.444-47.578,21.662-11.218,46.418-11.991,95.543-1.547,143.894v.387c15.086,38.681,46.418,29.785,54.927,26.69Zm163.989,129.257c-49.661-23.966-90.202-63.879-115.086-113.009l-14.864,6.574-20.888,9.284s-36.747,19.727-19.728,57.635v.387c26.69,41.389,61.89,75.042,102.119,99.798,10.444,5.029,36.747,13.538,49.899-18.567l11.217-25.53,7.33-16.572Zm2.524-5.224l13.742-31.198,12.378-28.237,7.725-17.614c-29.229-14.756-53.387-38.144-69.034-66.836l-16.44,7.087-28.237,12.378-32.43,14.285c24.321,47.875,63.87,86.767,112.297,110.135Zm206.375,63.185l-11.604-29.398h0s-6.972-17.597-6.972-17.597c-25.652,8.887-53.153,13.781-81.79,13.781-27.506,0-53.961-4.52-78.741-12.747l-6.563,16.563-13.152,34.04s-6.576,26.69,32.106,41.389c.773,.387,1.547,.773,2.321,.773,44.484,9.284,91.288,9.284,137.319-1.16,6.576-1.934,38.681-11.991,27.077-45.644Zm8.917-64.865c47.492-23.807,86.198-62.594,109.892-110.153l-29.455-12.974-28.624-12.378-19.042-8.352c-15.015,28.308-38.229,51.617-66.475,66.735l8.154,18.592,12.378,28.624,13.172,29.905Zm153.544-91.021l-2.321-.774-18.18-8.123-17.836-7.889c-24.309,48.921-64.128,88.8-113,113.193l7.83,17.702,11.218,25.53c14.699,35.587,44.87,21.662,52.607,17.02,39.71-24.897,73.505-58.164,99.024-97.477,.387-.387,.387-.774,.774-1.547,16.633-37.908-11.991-53.767-20.114-57.635Zm67.692-196.114c-15.086-37.521-46.031-29.011-54.541-25.53l-2.321,.773-18.954,7.35-16.96,6.72c8.265,24.832,12.807,51.348,12.807,78.92,0,28.483-4.844,55.841-13.64,81.375l17.793,7.05,26.303,10.057c30.558,12.765,43.323-8.897,47.965-20.501,11.604-47.191,12.378-97.09,1.547-146.215Z"/></svg>