<svg xmlns="http://www.w3.org/2000/svg" viewBox="0 0 1000 1000"><path d="M500,0C223.858,0,0,223.858,0,500s223.858,500,500,500,500-223.858,500-500S776.142,0,500,0Zm-83.599,492.782s7.785,4.927,37.267,39.303c29.465,34.376,29.465,58.947,29.465,58.946,0,0-40.042,0-66.732-24.554-26.689-24.571,0-73.695,0-73.695Zm385.017-81.826c-2.628,2.644-5.321,4.122-5.716,4.352l-.049,.016c-1.425,.766-2.888,1.456-4.385,2.069-1.298,.526-2.874,1.117-4.517,1.725-3.367,1.232-7.9,2.809-13.123,4.615-24.984,8.489-50.009,16.855-75.075,25.096l-12.236,4.04-4.648,1.527-1.051,.328-.624,.148c-.116,.041-.231,.085-.345,.131-5.242,2.049-9.825,5.491-13.254,9.953-5.601,7.325-14.503,25.802-1.38,68.44,6.717,21.844,16.818,42.703,27.527,64.284l1.839,3.712c9.789,19.693,20.268,40.814,26.558,61.509,6.865,22.6,9.657,47.515,.214,72.94-9.362,25.244-29.268,46.924-59.489,66.387-31.534,20.317-62.527,28.102-92.206,25.704-29.284-2.365-54.906-14.47-76.504-29.892-38.679-27.609-68.67-69.212-87.771-95.72l-.016-.016-.033-.066c-1.725-2.382-3.351-4.648-4.911-6.767-8.754-12.055-15.57-18.921-21.187-23.404-5.568-4.451-10.807-7.276-17.902-10.725l-3.351-1.61c-15.258-7.342-34.359-16.506-60.671-42.818-17.508-17.508-22.813-39.697-22.189-60.408,.624-20.202,6.849-40.634,14.306-58.47,8.163-19.463,18.658-37.825,27.921-52.393l-103.768-26.279c-22.321-5.634-29.974-33.473-13.714-49.765l195.777-195.777-131.312,204.81,96.673,24.472c20.267,5.124,29.465,29.432,16.556,46.678-7.916,10.561-27.724,38.548-40.206,68.341-6.258,14.946-9.97,28.693-10.298,39.977-.328,10.791,2.365,17.443,6.997,22.074,20.087,20.087,32.996,26.295,46.448,32.733l3.515,1.708c8.196,3.975,17.541,8.787,27.658,16.868,10.052,8.031,19.972,18.576,30.779,33.423l4.632,6.405c19.808,27.363,44.937,62.1,76.258,84.453,16.424,11.727,33.21,18.986,50.505,20.383,16.917,1.363,36.708-2.661,59.883-17.607,24.538-15.8,34.787-29.596,38.925-40.765,4.073-10.988,3.745-23.421-1.232-39.779-4.977-16.424-13.681-33.932-24.193-55.153l-1.035-2.086c-10.594-21.335-22.518-45.692-30.631-72.086-16.572-53.839-8.77-91.039,9.756-115.265,7.217-9.439,16.382-17.214,26.87-22.797,4.351-2.318,8.917-4.21,13.632-5.65l.558-.164,3.925-1.298c16.447-5.4,32.882-10.837,49.306-16.309,5.995-1.971,11.973-3.991,17.672-5.913-.427-.427-32.586-51.03-65.073-102.126-33.144-52.163-66.633-104.852-67.076-105.312,23.775,24.161,47.579,48.294,71.412,72.398,52.295,52.984,114.543,116.037,117.745,119.453,2.265,2.398,4.488,4.834,6.668,7.309,.943,1.073,1.846,2.18,2.71,3.318,2.245,2.894,3.866,6.221,4.763,9.772l.016,.066c.345,1.33,3.728,14.256-6.833,24.801Z"/></svg>