<svg xmlns="http://www.w3.org/2000/svg" viewBox="0 0 1000 1000"><path d="M500.496 5C223.572 5 5 229.506 5 500.002c0 276.43 224.506 495.001 495.002 495.001 276.43 0 495.001-224.506 495.001-495.001C995.003 226.539 773.464 5 500.496 5zM211.704 666.65c.989-2.967 7.912-.988 18.791 4.946 17.803 9.89 27.693 17.802 44.506 32.637l12.857 10.88-15.824-46.484-7.912-20.77c-4.945-12.857-7.912-19.78-6.923-19.78.989 0 5.934 2.967 12.857 11.868 6.923 8.901 12.857 16.813 18.791 24.726l13.846 23.736 6.923 13.846-.989-20.77c0-14.834 0-27.692 1.978-36.593 1.978-10.879 3.956-20.77 7.913-31.648 3.956-9.89 5.934-13.846 8.9-12.857 1.979 0 4.946 6.923 4.946 14.835 3.956 11.868 7.912 20.77 9.89 28.681 5.934 25.715 17.802 34.616 22.747 31.649.99-.99 3.956-8.901 3.956-23.737 0-14.835 2.967-32.637.99-52.417-1.979-19.78-3.957-37.583-4.946-56.374l-.989-21.759c17.802-18.79 26.704-26.703 28.682-26.703.989 0 .989 9.89.989 28.681 0 17.803.989 29.67.989 36.594 0 8.901 5.934 35.605 9.89 35.605 3.956 0 10.879-15.825 13.846-27.693 2.967-11.868 7.912-24.725 9.89-38.571l10.88-71.21 25.714-23.736c16.813-14.835 26.703-23.736 26.703-23.736.989 0 1.978 4.945 2.967 14.835.99 11.868 2.967 21.758 9.89 31.649l2.967 2.967c9.89-7.913 12.857-27.693 17.803-61.32 1.978-13.846 2.967-22.747 3.956-24.725.989-2.967 15.824-15.824 45.494-39.56 25.715-20.77 50.44-39.56 74.176-58.352 19.78-15.824 46.484-32.638 79.121-53.407 32.638-20.77 50.44-29.67 54.396-28.681 7.912 2.967 19.78 23.736 23.737 39.56 11.868 47.473 0 81.1-32.638 129.561-13.846 20.77-33.626 45.495-60.33 75.165l-6.923 7.912-26.703 33.627c-9.89 11.868-15.824 19.78-18.792 23.736-5.934 6.923-10.879 8.901-12.857 9.89-35.604-.989-59.34 2.967-66.264 16.814-2.967 5.934 22.748 7.912 39.56 7.912h14.836l-46.484 65.275c-31.648 44.505-49.45 66.264-52.417 67.253h-14.836c-44.505 0-77.143 0-96.923 3.956-16.813 2.967-36.593 10.879-49.45 25.714l-5.935 4.945c74.176 6.923 108.792 7.912 199.781 9.89l-7.912 3.956c-27.692 13.847-70.22 17.803-106.813 15.825-29.67-1.978-54.396-2.968-76.155-5.935l-21.758-2.967c3.956 9.89 6.923 14.836 11.868 22.748 11.868 18.791 29.67 23.736 56.374 33.626 7.912 2.967 11.868 4.945 11.868 5.934 0 0-3.956 0-12.857-.989-17.802-.989-40.55-6.923-56.374-13.846-15.824-6.923-22.747-14.835-34.615-30.66-1.978-4.944-4.945 4.946.989 17.803 6.923 14.835 13.846 22.747 28.681 32.637 10.88 9.89 15.824 13.847 14.835 14.836-.989.989-6.923-1.978-16.813-5.934-10.879-3.957-20.77-7.913-28.681-12.858-10.88-6.923-18.792-9.89-21.759-13.846-1.978 4.945-12.857 16.813-30.659 35.605-16.813 17.802-26.703 25.714-27.692 21.758 0 0 .989-3.956 4.945-8.901l12.857-17.802c18.791-23.737 29.67-30.66 22.747-53.407-5.934-20.77-18.791-3.956-29.67 15.824l-4.945 7.912-1.978-7.912c-3.956-15.824-1.978-24.725 10.879-42.528l-27.693-29.67c-14.835-12.857-22.747-19.78-22.747-20.77-4.945-3.955-5.934-6.922-4.945-8.9zm216.594-22.747 58.352-60.33c42.528-43.516 73.187-76.154 91.978-99.89 17.803-22.747 48.462-56.374 83.077-106.814l46.484-67.253C637.97 386.76 584.562 444.122 550.936 486.65c-20.77 25.714-49.45 58.352-81.1 100.88z"/></svg>