<svg xmlns="http://www.w3.org/2000/svg" width="1000" height="1000">
  <path d="M823.233 543.57c-45.175 41.159-42.163 58.225-91.353 101.391-89.345 79.307-154.597 79.307-233.903-11.042-33.128 32.124-65.252 66.256-116.45 66.256-50.194 0-91.353-16.062-122.473-66.256v25.097c0 35.135 1.004 35.135-34.132 35.135l-45.174-2.007c-77.298 18.07-134.52-8.031-166.643-72.28-21.082-50.193 0-122.472 51.197-156.604 57.221-31.12 121.47-25.097 167.648 27.104 8.03 7.028 6.023 5.02 11.042 14.055V341.79c0-65.252 73.283-42.163 73.283 25.097v90.349c37.144-8.031 48.186-16.062 87.337-13.05 34.132 2.007 56.217 28.108 82.318 46.177v-116.45c0-40.154 12.047-46.177 25.097-65.251 27.105-25.097 51.198-7.027 51.198 25.097v123.477c80.31-19.074 138.535 0 169.655 72.279 25.097-17.066 40.155-32.124 66.256-51.198 49.19-32.124 105.407-40.155 154.597 0 41.158 34.132 72.279 65.252-6.024 108.419-27.104-74.287-66.256-89.345-123.476-43.167zm-751.904 26.1c0 31.12 25.097 64.249 64.248 64.249 33.128 0 58.225-21.082 58.225-64.248 0-33.128-25.097-57.221-58.225-57.221-33.127 0-64.248 24.093-64.248 57.22zm194.752 31.12c24.093-20.077 31.12-21.08 43.167-31.12 5.02 17.067 1.004 25.098 14.054 43.167 19.074 21.082 58.225 32.124 83.322 14.055 33.128-14.055 40.155-48.186 26.1-72.28-10.038-34.131-51.197-50.193-76.294-34.131-33.128 23.089-66.256 49.19-90.349 74.287zm244.946-6.022c18.07-8.031 27.105-16.062 33.128-25.097 8.031 17.066 18.07 31.12 25.097 43.166 16.062 21.082 58.225 32.124 84.325 14.055 20.078-14.055 31.12-57.221 15.059-83.322-15.059-23.09-52.202-39.151-83.322-23.09-23.09 23.09-47.182 49.19-74.287 66.257zm261.008 18.07c12.046-12.047 18.07-26.101 33.128-34.132 13.05 34.131 24.093 66.255 83.321 66.255-31.12 47.183-41.158 65.252-65.251 47.183-39.152-26.101-66.256-58.225-51.198-79.307z" style="fill:#000;fill-opacity:1;fill-rule:nonzero;stroke:none;"/>
</svg>
