<?xml version="1.0" encoding="utf-8"?>
<!-- Generator: Adobe Illustrator 26.0.1, SVG Export Plug-In . SVG Version: 6.00 Build 0)  -->
<svg version="1.1" id="Layer_1" xmlns="http://www.w3.org/2000/svg" xmlns:xlink="http://www.w3.org/1999/xlink" x="0px" y="0px"
	 viewBox="0 0 1000 1000" style="enable-background:new 0 0 1000 1000;" xml:space="preserve">
<path d="M531.1,486.3c-3.6,2.1-7.4,3.6-11.4,4.4c-4,0.8-8.1,1.2-12.3,1.2h-33.6v-82.6h33.6c4.2,0,8.3,0.4,12.3,1.2
	c4,0.8,7.8,2.3,11.4,4.4c3.6,2.1,6.4,5,8.2,8.8c1.9,3.7,2.8,7.6,2.8,11.6V466c0,4-0.9,7.8-2.8,11.6
	C537.4,481.3,534.7,484.2,531.1,486.3z M995.3,500c0,273.4-221.6,495-495,495S5.3,773.4,5.3,500S226.9,5,500.3,5
	S995.3,226.6,995.3,500z M586.2,142.6c46.4,42.4,78.8,101.7,96.7,144.7h113.9L650.7,142.6H586.2z M666.7,555.6V442.5
	c0-4.9,0.8-9.7,2.3-14.4c1.5-4.7,4-8.8,7.5-12.3c3.5-3.5,7.6-6,12.3-7.4c4.7-1.4,9.5-2.1,14.4-2.1c5.6,0,11.2,0.9,16.8,2.8
	c5.6,1.9,10.2,5.2,13.7,10c3.5,4.8,5.2,10.1,5.2,15.9h43.1c0-9.8-2-19.3-6.1-28.4c-4.1-9.1-10-16.7-17.7-22.9
	c-7.7-6.2-16.3-10.4-25.9-12.8c-9.6-2.3-19.3-3.5-29.1-3.5c-7,0-13.9,0.5-20.7,1.6c-6.8,1.1-13.4,3-19.8,6
	c-6.4,2.9-12.2,6.7-17.3,11.4c-5.1,4.7-9.4,10-12.8,16.1c-3.4,6.1-5.7,12.5-7,19.3c-1.3,6.8-1.9,13.7-1.9,20.7v113.1
	c0,8.2,1,16.3,3,24.3c2,8.1,5.4,15.4,10.3,22.1c4.9,6.7,10.9,12.2,18,16.6c7.1,4.4,14.7,7.5,22.8,9.3c8.1,1.8,16.2,2.6,24.3,2.6
	c7,0,13.9-0.6,20.8-1.8c6.9-1.2,13.5-3,20-5.6c6.4-2.6,12.3-6.1,17.7-10.7c5.4-4.6,9.7-10,13.1-16.3c3.4-6.3,5.5-12.9,6.3-19.8
	c0.8-6.9,1.2-13.8,1.2-20.8v-71.4h-77.4V523h34.3v32.6c0,4.9-0.6,9.7-1.8,14.5c-1.2,4.8-3.6,8.8-7.4,12.1c-3.7,3.3-7.9,5.7-12.6,7.2
	c-4.7,1.5-9.5,2.3-14.4,2.3c-4.7,0-9.3-0.8-13.8-2.3c-4.6-1.5-8.6-4-12.1-7.5c-3.5-3.5-6-7.6-7.4-12.3
	C667.4,564.9,666.7,560.3,666.7,555.6z M515.4,287.3h140.4c-32.7-77.9-85.8-128.9-108.2-144.7h-32.2V287.3z M348.5,287.3h138.9
	V142.6h-32.9C393.2,186.7,358.3,257.4,348.5,287.3z M260,432.4l69,195.3h49V370.4h-43.1v102.9c0,10.3,0.2,20.5,0.7,30.8
	c0.5,10.3,1.2,20.5,2.3,30.8c1.1,10.3,2.2,20.5,3.3,30.8l-69-195.3h-49v257.3h43.1V524.8c0-10.3-0.2-20.5-0.7-30.8
	c-0.5-10.3-1.2-20.5-2.3-30.8C262.2,452.9,261.1,442.6,260,432.4z M203.8,287.3h117.4c15.8-57.3,77.4-133.9,96-144.7h-68.8
	L203.8,287.3z M414.4,857.4C368,815,335.6,755.7,317.7,712.7H203.8l146.1,144.7H414.4z M485.3,712.7H344.9
	c32.7,77.9,85.7,128.9,108.2,144.7h32.2V712.7z M507.5,530.7c7.7,0,15.3-0.6,22.9-1.9c7.6-1.3,14.9-3.6,21.9-7
	c7-3.4,13.1-7.9,18.4-13.7c5.2-5.7,9-12.3,11.2-19.8c2.2-7.5,3.3-14.9,3.3-22.4v-30.8c0-7.5-1.1-14.9-3.3-22.4
	c-2.2-7.5-6-14.1-11.2-19.8c-5.3-5.7-11.4-10.3-18.4-13.7c-7-3.4-14.3-5.7-21.9-7c-7.6-1.3-15.2-1.9-22.9-1.9h-77v257.3h43.4v-97
	H507.5z M652.1,712.7H513.2v144.7h32.9C607.4,813.3,642.3,742.6,652.1,712.7z M796.9,712.7H679.4c-15.8,57.3-77.4,133.9-96,144.7
	h68.8L796.9,712.7z"/>
</svg>
