<svg width="1000" height="1000" viewBox="0 0 1000 1000" fill="none" xmlns="http://www.w3.org/2000/svg">
<path d="M289 2L87 204H251C273 124 359 17 385 2H289Z" fill="black"/>
<path d="M483 204V2H437C351.4 63.6 302.667 162.333 289 204H483Z" fill="black"/>
<path d="M522 204H718C672.4 95.2 598.333 24 567 2H522V204Z" fill="black"/>
<path d="M756 204H915L711 2H621C685.8 61.2 731 144 756 204Z" fill="black"/>
<path d="M713 1000L915 798L751 798C729 878 643 985 617 1000L713 1000Z" fill="black"/>
<path d="M519 798L519 1000L565 1000C650.6 938.4 699.333 839.667 713 798L519 798Z" fill="black"/>
<path d="M480 798L284 798C329.6 906.8 403.667 978 435 1000L480 1000L480 798Z" fill="black"/>
<path d="M246 798L87 798L291 1000L381 1000C316.2 940.8 271 858 246 798Z" fill="black"/>
<path d="M277.695 734C252.561 734 229.811 728.8 209.445 718.4C189.511 707.566 172.395 692.183 158.095 672.25C143.795 651.883 132.745 627.4 124.945 598.8C117.578 569.766 113.895 537.05 113.895 500.65C113.895 465.116 117.795 432.616 125.595 403.15C133.395 373.683 144.445 348.55 158.745 327.75C173.478 306.95 191.028 290.916 211.395 279.65C232.195 267.95 255.161 262.1 280.295 262.1C305.428 262.1 328.178 267.95 348.545 279.65C368.911 290.916 386.245 306.95 400.545 327.75C414.845 348.55 425.895 373.466 433.695 402.5C441.495 431.1 445.395 462.733 445.395 497.4C445.395 515.6 443.661 533.583 440.195 551.35C437.161 569.116 432.611 585.583 426.545 600.75C420.911 615.916 414.195 629.133 406.395 640.4C399.028 651.666 391.228 660.116 382.995 665.75V668.35L464.895 667.05V734H277.695ZM365.445 500.65C365.445 477.683 363.495 456.233 359.595 436.3C356.128 416.366 350.711 399.25 343.345 384.95C335.978 370.216 326.878 358.733 316.045 350.5C305.645 341.833 293.728 337.5 280.295 337.5C266.428 337.5 254.078 341.833 243.245 350.5C232.845 358.733 223.961 370.216 216.595 384.95C209.228 399.25 203.595 416.366 199.695 436.3C196.228 456.233 194.495 477.683 194.495 500.65C194.495 523.616 196.445 545.066 200.345 565C204.245 584.933 209.878 602.266 217.245 617C224.611 631.3 233.495 642.783 243.895 651.45C254.728 659.683 267.078 663.8 280.945 663.8C294.811 663.8 306.945 659.466 317.345 650.8C328.178 641.7 337.061 629.783 343.995 615.05C351.361 599.883 356.778 582.55 360.245 563.05C363.711 543.116 365.445 522.316 365.445 500.65Z" fill="black"/>
<path d="M885.871 503.25C885.871 539.65 881.971 572.8 874.171 602.7C866.804 632.166 855.971 657.516 841.671 678.75C827.371 699.983 809.821 716.45 789.021 728.15C768.654 739.85 745.688 745.7 720.121 745.7C694.121 745.7 670.938 739.85 650.571 728.15C630.204 716.45 612.871 699.983 598.571 678.75C584.271 657.516 573.221 632.166 565.421 602.7C558.054 572.8 554.371 539.65 554.371 503.25C554.371 466.85 558.054 433.916 565.421 404.45C572.788 374.983 583.621 349.633 597.921 328.4C612.221 307.166 629.554 290.916 649.921 279.65C670.721 267.95 694.121 262.1 720.121 262.1C745.688 262.1 768.654 267.95 789.021 279.65C809.821 290.916 827.371 307.166 841.671 328.4C855.971 349.633 866.804 374.983 874.171 404.45C881.971 433.916 885.871 466.85 885.871 503.25ZM805.271 503.25C805.271 479.85 803.321 457.966 799.421 437.6C795.954 416.8 790.538 399.033 783.171 384.3C776.238 369.133 767.354 357.216 756.521 348.55C746.121 339.883 733.988 335.55 720.121 335.55C705.821 335.55 693.254 339.883 682.421 348.55C672.021 357.216 663.138 369.133 655.771 384.3C648.838 399.033 643.638 416.8 640.171 437.6C636.704 457.966 634.971 479.85 634.971 503.25C634.971 526.65 636.704 548.75 640.171 569.55C643.638 589.916 648.838 607.683 655.771 622.85C663.138 638.016 672.021 649.933 682.421 658.6C693.254 667.266 705.821 671.6 720.121 671.6C734.421 671.6 746.771 667.266 757.171 658.6C768.004 649.933 776.888 638.016 783.821 622.85C791.188 607.683 796.604 589.916 800.071 569.55C803.538 548.75 805.271 526.65 805.271 503.25Z" fill="black"/>
</svg>
