<svg xmlns="http://www.w3.org/2000/svg" width="1000" height="1000">
  <path d="M354.251 28.357C530.13-16.801 628.763 3.4 783.25 94.905c33.274 19.014-16.637 42.78-49.911 24.955C467.146-45.322 114.202 106.788 59.538 426.458c-20.203 131.908 9.506 255.498 97.445 357.697 20.202 17.825-17.825 54.664-33.274 35.65C22.7 695.029-5.822 560.744 8.438 426.459c16.637-128.343 116.46-317.293 345.813-398.101zm-211.528 869.88c54.664-66.548 142.603-156.863 216.282-230.542 34.462-34.462 34.462-34.462-4.754-65.36-23.767-14.26-42.78-33.274-64.171-49.91-9.507-8.32-9.507-14.261 0-17.826 51.1-24.956 92.692-48.723 137.85-73.679 11.883-5.942 13.072-9.507 0-20.202-26.144-19.014-33.274-26.144-52.288-39.216-16.637-13.072-16.637-13.072 0-24.955 108.14-60.607 230.542-120.025 481.286-245.991-13.072 20.202-77.243 85.562-226.977 245.99-15.448 14.26-15.448 17.826 0 28.521 23.767 21.39 48.723 41.593 72.49 59.418 21.39 14.26 21.39 21.39 0 29.71-42.78 20.202-81.997 43.969-127.154 64.17-20.203 11.885-20.203 15.45 0 29.71 21.39 14.26 39.216 24.956 54.664 38.028 15.449 10.695 11.884 17.825 0 21.39-78.432 38.028-152.11 78.432-230.542 116.46-47.534 24.955-259.063 136.661-256.686 134.284zm87.939 20.203c-9.507-5.942-9.507-14.26 7.13-24.956 14.26-9.507 28.52-9.507 48.723 0 165.182 93.88 392.16 68.925 534.762-79.62 160.43-160.43 171.125-409.985 35.651-589.428-19.013-24.955 11.884-54.664 33.274-29.709 194.892 256.686 110.518 622.702-191.326 756.987-144.98 71.301-305.409 49.91-468.214-33.274z" style="fill:#000;fill-opacity:1;fill-rule:nonzero;stroke:none;"/>
</svg>
