<svg xmlns="http://www.w3.org/2000/svg" width="1000" height="1000">
  <path d="M5 500.496c0-90 22.747-173.077 67.253-250.22 44.506-74.177 103.846-133.517 178.023-178.023C327.419 27.747 410.496 5 500.496 5c89.011 0 172.089 22.747 249.232 67.253 74.176 44.506 133.517 103.846 178.022 178.023 44.506 77.143 67.253 160.22 67.253 249.231 0 90-22.747 173.078-67.253 250.22-44.505 74.177-103.846 133.518-178.022 178.023-77.143 44.506-160.22 67.253-249.232 67.253-90 0-173.077-22.747-250.22-67.253-74.177-44.505-133.517-103.846-178.023-178.022C27.747 672.585 5 589.508 5 500.496zm192.858-171.1c0 81.1 3.956 165.166 17.802 279.892 1.978 0 4.945-2.967 4.945-2.967 35.605-57.363 66.264-112.748 99.89-170.11 4.946-6.924 4.946-14.836-2.966-20.77-13.847-9.89-30.66-20.77-44.506-30.66-23.736-16.813-52.418-37.582-75.165-55.384zm17.802 424.288c1.978 9.89 4.945 17.802 15.824 17.802H778.41c21.759 0 21.759-4.945 25.715-20.77v-30.659c0-11.868-10.88-16.813-31.649-16.813-145.385 0-540.002.99-540.99 0-13.847 0-15.825 5.934-15.825 19.78zm33.627-94.946c20.769 0 37.582 2.967 57.362 0 10.88 0 21.759-4.945 30.66-10.879 17.802-9.89 32.637-23.736 48.462-33.626 78.132-62.308 161.209-123.627 243.297-188.902 13.846-9.89 13.846-9.89 2.967-26.703-30.66-48.462-65.275-95.935-95.934-145.385-8.901-11.869-16.814-25.715-27.693-39.561-16.813 13.846-256.154 428.243-259.121 445.056zm160.22 0c3.956 2.967 3.956 2.967 6.923 2.967h369.89c10.88 0 17.803-7.912 17.803-16.813 0-35.604 1.978-69.23 4.945-98.901 7.912-58.352 10.879-116.704 18.79-175.056V336.32C687.42 447.09 546.98 551.925 409.508 658.738z" style="fill:#000;fill-opacity:1;fill-rule:nonzero;stroke:none;"/>
</svg>
