<svg xmlns="http://www.w3.org/2000/svg" viewBox="0 0 1000 1000"><path d="M500.496 5C223.572 5 5 229.506 5 500.002c0 276.43 224.506 495.001 495.002 495.001 276.43 0 495.001-224.506 495.001-495.001C995.003 226.539 773.464 5 500.496 5zM77.198 495.551c0-234.396 192.858-423.298 427.254-423.298 224.506 0 427.254 178.023 427.254 428.243-1.978 249.232-205.715 427.254-427.254 424.287-239.341 0-427.254-189.89-427.254-429.232zM215.66 771.486c0 11.868 2.967 14.835 15.824 14.835H396.65c9.89 0 12.857-2.967 12.857-14.835V665.662c0-8.902 1.978-13.847 11.868-15.825 56.374-22.747 114.726-46.483 171.1-69.23 1.978 0 4.945 0 6.923-2.968v190.88c0 17.802 0 17.802 19.78 17.802H777.42c14.835 0 14.835 0 14.835-17.802v-391.65c0-43.516 2.967-90 2.967-136.484 1.978-6.923 0-10.879 0-18.79 0-6.924-4.945-9.891-12.857-9.891h-170.11c-9.89 0-12.857 2.967-12.857 9.89v86.044c0 11.869-1.978 16.814-11.869 19.78-58.351 20.77-114.725 46.484-168.132 75.166-2.967 1.978-4.945 1.978-9.89 4.945v-180.99c0-9.89 0-14.835-12.857-14.835H231.484c-10.879 0-15.824 2.967-15.824 12.857 2.967 126.594 2.967 253.188 2.967 380.77 0 11.869 0 21.759 1.978 33.627 27.693-104.835 95.935-173.077 185.935-229.451 2.967 18.791 7.912 36.593 9.89 54.396-24.725 15.824-48.462 31.648-71.21 48.461-85.054 65.275-136.483 148.352-129.56 259.122z"/></svg>