<svg xmlns="http://www.w3.org/2000/svg" viewBox="0 0 1000 1000"><path d="M5 500.496C5 225.55 226.54 5 500.496 5c272.968 0 494.507 222.528 494.507 494.507 0 274.946-222.528 495.496-494.507 495.496C225.55 995.003 5 772.475 5 500.496zm298.682 25.715c49.451 40.55 90.99 73.187 149.341 122.637-47.472 46.484-93.956 88.023-137.473 125.605 19.78 23.736 34.616 38.572 46.484 50.44 64.286-62.308 124.616-119.67 190.88-180-66.264-58.353-129.56-115.715-190.88-168.133-8.901 5.934-26.703 23.736-58.352 49.45zm87.034-81.1c64.286 57.363 127.582 112.748 193.846 174.067 8.902-8.901 25.715-29.67 46.484-46.484-63.297-61.319-127.583-119.67-190.88-180-10.879 11.868-28.681 28.681-49.45 52.417zm87.033-81.099c60.33 54.396 124.616 112.748 187.913 171.1 11.868-8.901 26.703-26.704 52.417-55.385-46.483-37.583-92.967-78.132-148.352-121.649 55.385-49.45 98.902-87.033 142.418-126.594-22.747-23.736-37.582-41.538-46.483-50.44-61.32 58.352-124.616 119.671-187.913 182.968z"/></svg>