<svg xmlns="http://www.w3.org/2000/svg" viewBox="0 0 1000 1000"><path d="M5 500.496c0 271.98 220.55 494.507 495.496 494.507 271.98 0 494.507-220.55 494.507-495.496C995.003 227.528 773.464 5 500.496 5 226.54 5 5 225.55 5 500.496zm219.561 256.155C83.132 598.409 99.945 366.979 244.341 229.506 381.814 97.967 597.42 86.1 747.75 211.704c145.385 119.67 157.253 303.627 117.692 408.463-3.956-1.978-5.934-6.923-10.879-8.901-75.165-75.165-149.34-151.32-225.495-226.485-38.572-39.56-87.033-59.34-143.407-53.406-56.374 4.945-100.88 32.637-132.528 82.088-30.66 52.418-32.637 107.802-6.923 164.176 6.923 16.813 20.77 33.627 33.626 47.473a12547.648 12547.648 0 0 0 229.452 229.451c1.978 2.967 2.967 5.934 9.89 8.901-54.396 16.814-105.825 23.737-160.22 14.836-91.979-10.88-171.1-51.43-234.397-121.65zm303.628-87.033c7.912-4.945 13.846-5.935 18.79-7.913 11.869-4.945 23.737-6.923 35.605-13.846 12.858-6.923 22.748-2.967 34.616 8.901 40.55 41.539 82.088 84.067 126.594 126.594 7.912 8.901 7.912 8.901-2.967 16.813-12.858 9.89-25.715 17.803-39.56 26.704-4.946 6.923-11.87 3.956-15.825-1.978a5848.566 5848.566 0 0 1-110.77-110.77c-15.824-13.846-30.66-29.67-46.483-44.505zm117.692-77.144c7.912-21.758 14.835-40.55 24.726-62.307 0-.99 0-.99 3.956-1.978 7.912 5.934 17.802 14.835 24.725 23.736 41.539 40.55 85.055 83.077 125.605 125.605 10.879 10.879 10.879 10.879 3.956 24.725-10.88 12.857-18.791 24.725-29.67 38.572-1.979 5.934-4.946 7.912-10.88.989-47.472-45.495-91.978-91.979-139.45-138.462-.99-2.967-2.968-6.923-2.968-10.88z"/></svg>