<svg xmlns="http://www.w3.org/2000/svg" width="1000" height="1000">
  <path d="M5 500.496c0 271.98 220.55 494.507 495.496 494.507 271.98 0 494.507-220.55 494.507-495.496C995.003 227.528 773.464 5 500.496 5 226.54 5 5 225.55 5 500.496zm118.682.99v-10.88c35.604-58.352 70.22-118.682 102.857-177.034 7.912-8.9 11.868-17.802 19.78-28.681 6.924 2.967 11.869 6.923 15.825 10.88 60.33 60.33 122.637 119.67 185.934 182.967 11.869 15.824 11.869 22.747 0 33.626-59.34 61.32-122.637 118.682-181.978 180-15.824 13.847-15.824 13.847-31.649-3.955-34.615-62.308-72.198-126.594-110.77-186.924zm185.934 319.45c8.902-7.911 12.858-14.834 15.825-20.769 59.34-51.428 111.758-103.846 167.143-158.242 7.912-7.912 15.824-15.824 23.736-3.956 58.352 58.352 114.726 118.682 171.1 175.056 2.967 0 2.967 3.956 2.967 7.912zm8.902-651.76h375.825c-6.923 7.912-8.901 16.814-12.857 19.78-58.352 52.418-110.77 106.814-169.122 160.22-6.923 6.924-11.868 14.836-21.758 2.968-58.352-56.374-110.77-114.726-168.132-170.11-3.956-4.946-3.956-8.902-3.956-12.858zM566.76 512.364c-19.78-14.835-19.78-14.835 0-33.626C627.09 415.44 687.42 356.1 749.728 295.77c3.956-3.956 6.923-7.912 14.835-14.835 41.539 71.209 80.11 140.44 120.66 209.671v10.88c-37.583 60.329-72.198 120.659-108.792 183.956-15.824 23.736-15.824 23.736-34.615 2.967-60.33-57.363-118.682-114.726-175.056-176.045z" style="fill:#000;fill-opacity:1;fill-rule:nonzero;stroke:none;"/>
</svg>
