<svg xmlns="http://www.w3.org/2000/svg" viewBox="0 0 1000 1000"><path d="M508.635,200.357c30.582-28.609,68.07-69.056,83.854-54.259,15.784,10.852,30.582,24.663,43.407,38.474,78.921,76.948,156.855,154.883,234.79,233.8,9.865,9.865,16.771,22.69,24.663,34.528,15.784,16.771,2.959,36.5-20.717,60.177C770.061,618.638,663.518,723.209,557.961,828.766c-23.676,23.676-44.393,50.312-67.083,34.528-14.8-7.892-32.555-22.69-40.447-31.569a189.562,189.562,0,0,0-12.825-16.77Q286.67,666.977,137.706,518.014c-35.514-34.528-35.514-64.123-.986-99.638C216.627,339.455,294.562,260.534,373.483,182.6l11.838-11.838c24.663-18.744,52.285-17.757,75.962,3.946,8.878,7.892,17.757,15.785,25.649,25.65C494.824,208.249,499.757,207.262,508.635,200.357Zm-7.892,334.428c-17.757-15.785-34.528-31.569-52.285-48.339-5.919-4.933-11.838-11.839-18.744-18.744,0,1.973-1.973,2.959-2.959,3.946,19.73,19.73,39.46,40.447,59.191,59.191,3.946,2.959,9.865,2.959,14.8,3.946-27.622,26.636-54.258,53.271-80.894,78.921-11.838,11.838-10.851,20.717,0,30.582,20.717,19.73,40.447,40.447,61.164,60.177,8.879,9.865,9.865,16.771.987,27.622-38.475,43.407-52.286,54.259-39.461,78.921,2.96-31.568,8.879-46.366,39.461-72.015,31.568-31.568,65.109-62.15,97.664-92.732,3.946-4.933,8.879-9.865,16.771-18.744-7.892-5.919-15.784-10.852-21.7-16.771C550.069,586.083,526.393,560.434,500.743,534.785ZM636.882,361.158c3.946,24.663-4.932,47.353-26.636,64.124L598.408,437.12c-8.879,9.865-14.8,9.865-24.663,0Q524.913,386.807,473.121,336.5c-3.946-3.947-8.879-7.893-12.825-11.839,0,.987-.986.987-.986,1.973,73,72.016,146,145.018,217.033,215.06,24.662-23.676,51.3-48.339,74.975-71.029C712.844,433.174,675.356,396.673,636.882,361.158ZM416.89,296.048l-3.946-3.946c-5.92,5.919-13.812,10.852-19.731,16.771-20.716,23.676-39.46,48.339-62.15,71.029-24.663,26.636-51.3,52.285-76.948,78.921-4.933,4.933-10.852,9.865-1.973,17.757,21.7,21.7,44.393,44.394,67.083,66.1,2.959,2.959,12.824,2.959,15.784,0,27.622-26.636,56.231-55.245,88.786-87.8-16.771-14.8-33.541-28.609-48.339-43.406-21.7-21.7-21.7-54.259,0-76.949Zm215.06,49.326c-1.973,1.973-3.947,2.96-3.947,3.946C584.6,306.9,542.177,264.48,498.77,222.06a7.7,7.7,0,0,0,3.946-3.946C546.123,260.534,588.543,302.954,631.95,345.374ZM749.345,74.083C672.4,29.69,589.529,7,500.743,7,410.971,7,328.1,29.69,251.155,74.083Q140.173,140.673,73.583,251.655C29.19,328.6,6.5,411.471,6.5,500.257c0,89.772,22.69,172.64,67.083,249.588q66.59,110.982,177.572,177.572C328.1,971.81,410.971,994.5,500.743,994.5c88.786,0,171.654-22.69,248.6-67.083q110.982-66.59,177.572-177.572C971.31,672.9,994,590.029,994,500.257c0-88.786-22.69-171.654-67.083-248.6Q860.328,140.673,749.345,74.083Z"/></svg>