<svg xmlns="http://www.w3.org/2000/svg" width="1000" height="1000">
  <path d="M5 500.496c0 271.98 220.55 494.507 495.496 494.507 271.98 0 494.507-220.55 494.507-495.496C995.003 227.528 773.464 5 500.496 5 226.54 5 5 225.55 5 500.496zm242.309 121.649c-33.627-168.133 74.176-305.606 246.264-310.55h4.945c10.88-.99 15.824-3.957 10.88-9.89-15.825-9.89-29.671-18.792-40.55-28.682-18.792-19.78-18.792-44.506-4.945-59.341 15.824-15.824 40.55-15.824 59.34 0 33.627 39.56 68.242 73.187 103.847 111.759 13.846 16.813 16.813 39.56 0 55.384-35.605 39.561-70.22 79.122-108.792 113.737-13.846 13.846-38.571 13.846-54.395 0-13.847-14.835-13.847-40.55 4.945-55.385 14.835-14.835 29.67-29.67 40.55-43.516-35.605-9.89-70.22-4.945-98.902 13.846-64.286 29.67-102.858 103.846-98.902 173.077 9.89 78.132 58.352 137.473 132.528 152.309 108.792 29.67 216.594-54.396 216.594-167.144V164.231c0-19.78 12.858-28.681 39.561-28.681 24.725 0 35.605 8.901 35.605 24.725V567.75c0 117.693-84.067 220.55-196.814 246.265-133.517 28.681-266.045-60.33-291.76-191.87z" style="fill:#000;fill-opacity:1;fill-rule:nonzero;stroke:none;"/>
</svg>
