<?xml version="1.0" encoding="UTF-8"?><svg id="a" xmlns="http://www.w3.org/2000/svg" viewBox="0 0 1000 1000"><path d="M202.797,826.303c92.526,164.14,300.595,222.195,464.736,129.669,54.247-30.579,99.09-75.422,129.669-129.669,62.035-107.438,62.035-239.811,0-347.249L535.808,20.925c-11.15-19.776-36.221-26.768-55.997-15.618-6.533,3.684-11.934,9.085-15.618,15.618L202.797,479.054c-62.035,107.438-62.035,239.811,0,347.249ZM426.365,238.878l55.731-97.681c5.575-9.888,18.111-13.384,27.999-7.809,3.267,1.842,5.967,4.542,7.809,7.809l214.406,375.775c38.935,67.4,47.014,148.285,22.181,222.055-2.667-12.43-6.335-24.624-10.969-36.463-29.616-75.63-96.579-133.991-199.069-173.471-70.463-27.046-115.442-66.823-133.719-118.242-23.538-66.248,1.047-138.508,15.632-171.974Zm-95.034,166.561l-63.641,111.533c-48.494,83.981-48.494,187.456,0,271.437,72.467,128.375,235.283,173.698,363.658,101.231,14.235-8.036,27.701-17.362,40.23-27.861,16.595-42.427,17.187-89.442,1.667-132.274-21.749-54.641-74.11-98.263-155.62-129.681-92.136-35.365-151.99-90.576-177.881-164.051-3.487-9.909-6.298-20.043-8.414-30.333Z" fill-rule="evenodd"/></svg>