<svg xmlns="http://www.w3.org/2000/svg" width="1000" height="1000">
  <path d="M489.828 984.65c12.46 0 24.919 0 37.378-1.133h2.265c11.327 0 22.654-1.133 32.848-2.265 14.725-2.266 29.45-4.531 44.174-7.93 12.46-2.265 26.052-6.795 38.511-10.193 5.664-1.133 12.46-2.266 18.123-4.53 19.256-7.93 37.378-15.858 56.634-23.787 20.388-12.46 40.776-23.786 61.164-35.113 2.266-2.265 5.664-4.53 9.062-6.796 14.724-12.46 30.582-24.919 45.307-37.378 10.194-9.062 20.388-18.123 30.582-28.317 5.663-5.664 10.194-12.46 15.857-19.256 0 0 1.133-1.132 2.266-1.132 11.326-15.858 23.786-31.715 35.113-48.705 4.53-6.796 9.061-15.858 13.592-22.654 2.265-4.53 4.53-7.929 6.796-12.46 12.46-23.786 23.786-48.704 31.715-73.623 3.398-11.327 6.796-21.521 9.061-32.848 4.53-19.255 6.796-38.51 10.194-57.766 4.53-24.92 5.664-49.838 3.398-75.89 0-30.582-4.53-61.164-11.327-91.746-2.265-4.53-3.398-10.194-4.53-15.858-11.327 10.194-20.388 18.123-30.582 27.185l-78.155 71.358c-9.061 9.062-18.123 18.123-28.317 26.052 0 9.061-1.133 18.122-1.133 27.184-1.132 1.133-1.132 2.265-1.132 3.398 0 2.265 0 5.663-1.133 7.929v7.928c-2.265 7.93-3.398 16.99-4.53 24.92 0 1.132-1.133 2.265-1.133 2.265 0 3.398-1.133 6.796-2.266 11.326 0 0-1.132 1.133-1.132 2.266 0 2.265 0 3.398-1.133 4.53v2.266c-4.53 10.194-7.929 21.52-11.327 31.715-1.132 1.132-1.132 2.265-2.265 4.53l-3.398 6.796c0 1.133-1.133 2.266-1.133 4.531-1.133 1.133-2.265 3.398-3.398 4.53-1.133 2.266-1.133 3.399-2.265 4.531 0 1.133-1.133 2.266-1.133 3.398l-1.133 1.133c-1.132 2.266-1.132 3.398-2.265 5.664-1.133 1.132-2.265 2.265-2.265 3.398-1.133 2.265-3.398 4.53-4.531 6.796-4.53 6.796-9.061 13.592-12.46 20.388-6.795 7.928-13.591 16.99-20.388 24.919-5.663 6.796-11.326 12.459-16.99 18.122l-6.796 6.796c-9.061 6.797-18.123 14.725-26.051 22.654-11.327 7.929-23.786 14.725-35.113 22.653-12.46 6.797-26.052 13.593-38.511 20.389-15.858 5.663-32.848 11.326-48.705 16.99-16.99 2.265-32.848 5.663-49.838 9.061-13.592 0-26.051 1.133-39.643 1.133-16.99-1.133-33.98-2.266-50.97-4.53-15.858-3.399-30.583-6.797-46.44-10.195-4.531-1.133-10.195-2.265-14.725-4.53-11.327-4.531-21.521-9.062-32.848-13.593-11.327-5.663-22.653-12.46-35.113-19.255-9.061-5.664-18.123-12.46-27.184-18.123l-23.786-20.388c-9.062-9.062-18.123-19.256-28.317-29.45-1.133-2.265-3.398-4.53-4.53-6.796l-27.185-37.378c-7.929-15.858-15.857-30.582-22.653-46.44-28.317-69.093-32.848-139.319-11.327-210.677 27.184-92.88 83.818-161.973 169.901-206.147 65.695-35.113 135.921-46.44 209.545-35.113 46.44 6.796 89.481 23.786 129.125 48.705 2.265 1.133 4.53 3.398 7.929 5.663-3.398 2.266-5.664 3.398-6.796 5.664L570.248 333.36c-58.9 53.236-116.666 106.472-174.432 159.708-4.53 3.398-4.53 5.663-1.133 9.061 30.582 32.848 61.165 64.562 91.747 97.41 3.398 2.265 5.663 5.663 7.928 9.061 2.266-2.265 3.399-2.265 3.399-2.265 46.44-43.042 94.012-86.083 140.451-127.992l132.523-122.33c44.175-39.643 88.349-80.419 133.656-121.195 4.53-4.531 4.53-6.796 1.133-12.46C850.018 146.47 778.66 89.836 692.577 53.591c-97.41-39.644-198.219-48.705-301.292-26.052-100.808 22.654-188.024 71.359-257.117 148.38-67.96 73.624-109.87 159.708-124.594 259.383-9.062 64.563-4.531 127.992 12.459 191.422 7.929 26.052 16.99 52.103 29.45 77.022 3.398 7.929 6.796 15.858 11.326 22.654 10.194 16.99 20.388 32.847 30.583 48.705 12.459 14.724 24.918 30.582 37.378 46.44 12.46 12.459 24.919 23.786 36.245 36.245l37.379 30.582c18.122 11.327 36.245 22.654 55.5 35.113 7.93 4.53 16.99 9.062 24.92 13.592 15.857 6.796 30.582 12.46 46.44 18.123 27.183 11.327 55.5 18.123 84.95 22.654 24.919 2.265 49.838 4.53 73.624 6.796z" style="fill:#000;fill-opacity:1;fill-rule:nonzero;stroke:none;"/>
</svg>
