<svg xmlns="http://www.w3.org/2000/svg" width="1000" height="1000">
  <path d="M984.572 304.33c-53.978 36.803-82.193 84.647-110.409 133.717-23.308 45.39-55.204 79.74-99.368 101.821-45.39 19.629-89.553 19.629-133.717 0-15.948-8.587-20.855-4.907-28.215 6.134-83.42 125.13-145.985 263.754-182.788 412.192 0 8.588-2.453 17.175-6.134 20.855 0 8.588-4.907 11.041-8.587 15.948-4.907-4.907-11.041-11.04-11.041-15.948-6.134-17.174-8.587-36.802-8.587-51.524-25.762-114.089-49.07-228.177-68.699-339.813-4.907-15.948-8.587-20.855-28.216-20.855-122.676 0-213.456-88.327-222.044-214.683-4.907-56.431-8.587-111.636-13.494-168.067-3.68-56.43-19.628-110.408-42.937-161.932 0-3.68 0-8.588-4.907-17.175 28.216 6.134 56.431 8.587 80.967 17.175 105.501 19.628 206.096 56.43 290.742 121.45 60.112 44.163 107.955 96.913 125.13 174.2 8.587 40.483 8.587 79.739-4.907 116.542-12.268 49.07-40.483 77.286-88.327 96.914C355.243 377.936 265.69 240.538 136.88 131.357c-3.68 0-3.68 0-3.68 4.907 3.68 2.453 3.68 7.36 12.267 11.04 60.112 56.432 104.275 125.13 144.758 197.51 68.699 125.129 116.543 258.846 161.933 399.924 0 3.68 3.68 8.587 3.68 17.174 0 0 2.454 0 2.454 3.68 6.133-8.587 8.587-17.174 13.494-20.854 52.75-116.543 117.77-230.632 208.55-318.958 53.977-52.751 118.996-93.234 191.375-107.956 2.453 0 2.453 0 7.36-4.907-52.75-17.174-181.56 28.216-282.155 165.613-15.948-24.535-13.495-52.75 0-80.966 20.855-45.39 55.204-76.06 100.594-96.914 93.234-36.803 190.148-24.535 287.063 3.68z" style="fill:#000;fill-opacity:1;fill-rule:nonzero;stroke:none;"/>
</svg>
