<svg xmlns="http://www.w3.org/2000/svg" viewBox="0 0 1000 1000"><path d="M5 500.496C5 225.55 226.54 5 500.496 5c272.968 0 494.507 222.528 494.507 494.507 0 274.946-222.528 495.496-494.507 495.496C225.55 995.003 5 772.475 5 500.496zm176.045-121.649c0 47.473 25.714 88.023 75.165 88.023 42.527-1.978 69.23-40.55 69.23-85.056 0-46.483-24.725-88.022-73.186-88.022-45.495.99-69.231 41.539-71.21 85.055zm218.572 267.034c0 78.132 31.648 138.462 103.846 169.122 79.121 37.582 163.188 40.55 245.276 0-12.857-41.539-25.715-75.165-37.583-106.814-34.615 0-66.264 6.923-93.956-2.967-21.758-5.934-54.396-28.681-56.374-43.517-6.923-76.154-3.956-151.319-3.956-233.407h197.803V303.682H556.87V124.671c-47.473 21.758-90.99 37.582-131.539 59.34-12.857 6.924-25.714 28.682-25.714 41.54-2.967 140.44-2.967 281.868 0 420.33z"/></svg>