<?xml version="1.0" encoding="UTF-8"?><svg id="a" xmlns="http://www.w3.org/2000/svg" viewBox="0 0 1000 1000"><path d="M500,0C223.858,0,0,223.858,0,500s223.858,500,500,500,500-223.858,500-500S776.142,0,500,0Zm360.295,600.66c-9.096,64.747-35.496,121.207-80.846,168.423-44.287,46.11-97.911,75.663-160.968,86.61-20.928,3.633-42.476,4.595-63.775,5.002-39.534,.755-79.13,1.323-118.633-.014-121.255-4.107-209.897-60.966-265.727-168.327-18.01-34.633-27.227-72.141-28.893-111.334-.136-3.211-1.267-6.379-1.935-9.567v-143.39c1.247-9.73,2.368-19.479,3.76-29.188,14.004-97.66,64.065-171.292,148.833-221.107,39.351-23.125,82.241-36.347,128.035-37.542,49.113-1.282,98.293-2.351,147.394-1.256,86.521,1.931,159.971,34.655,218.392,98.965,41.772,45.983,66.034,100.367,74.406,161.914,.669,4.918-.96,6.545-5.545,6.534-20.323-.05-40.649-.184-60.969,.061-7.459,.09-6.532-5.788-7.232-9.739-5.847-32.977-18.509-63.071-38.045-90.168-37.498-52.01-88.212-82.834-151.417-92.979-9.427-1.513-19.109-1.937-28.677-1.982-44.216-.204-88.459-1.061-132.646,.104-86.639,2.285-151.667,42.137-195,116.825-19.356,33.361-27.993,69.95-27.841,108.614,.168,42.844-.058,85.688,.061,128.532,.296,106.721,78.717,200.27,183.962,218.95,14.764,2.621,29.925,3.918,44.925,4.127,40.09,.558,80.193,.28,120.29,.173,109.05-.292,198.828-72.225,223.05-178.617q3.839-16.862,20.918-16.861c15.929,.001,31.86,.117,47.787-.056,5.394-.059,7.15,1.519,6.338,7.294Zm-324.549-82.309c7.883,32.444,15.162,65.035,22.615,97.583,.722,3.153,1.205,6.362,1.98,10.516h-117.779c2.751-12.388,5.305-24.273,8.039-36.116,5.6-24.258,11.236-48.509,17.005-72.728,1.216-5.105,.434-8.362-4.483-11.577-26.393-17.253-36.81-42.385-32.383-72.981,4.204-29.055,27.224-52.417,56.979-57.922,46.298-8.566,81.278,25.377,84.918,61.369,2.986,29.53-7.79,52.505-32.005,69.12-5.154,3.536-6.389,6.55-4.885,12.736Z"/></svg>