<svg xmlns="http://www.w3.org/2000/svg" width="1000" height="1000">
  <path d="M39.46 680.69V321c0-50.424 23.532-90.763 67.233-114.294C215.384 143.956 325.196 82.327 435.008 22.94c41.46-23.531 84.04-23.531 126.62-2.241 28.013 13.446 52.665 29.134 79.558 43.7 84.04 47.063 168.08 94.125 250.999 142.308 38.098 20.17 59.388 52.665 66.111 95.245 1.12 6.723 2.241 13.447 2.241 20.17v352.967c0 56.027-24.652 96.366-73.955 124.379-106.45 59.388-212.9 118.776-320.472 177.044-42.58 24.652-88.522 24.652-132.222 0-108.692-58.268-216.263-118.776-324.954-179.285-34.737-20.17-58.268-49.304-66.112-88.522-2.24-8.964-3.361-17.929-3.361-28.013zm42.58-3.361c0 8.964 1.121 19.05 3.363 28.013 7.843 25.773 25.772 43.701 48.182 57.147 71.714 39.219 143.428 78.438 215.142 119.897 34.737 17.929 69.473 38.098 104.21 58.268 12.325 5.602 23.53 10.085 36.977 11.205v-78.437c0-3.362-1.12-3.362-3.361-3.362h-28.014c-19.049-1.12-33.616-11.205-40.339-29.133-2.24-7.844-4.482-16.808-5.602-24.652-1.121-4.482-1.121-5.603-5.603-6.723-15.688-5.603-32.495-10.085-47.062-17.929-66.112-33.616-99.728-88.522-103.09-161.356-2.24-33.616 0-68.353 0-104.21 0-3.361-1.12-5.602-4.481-7.843-21.29-22.411-21.29-57.147 0-80.679 14.567-14.566 32.495-21.29 52.665-22.41h63.87c20.17 0 40.339 0 60.509 1.12 3.361 0 5.602-1.12 5.602-4.482-1.12-5.602 0-10.085 0-15.687 0-5.603 0-5.603-6.723-5.603H305.027v-36.977h125.499c3.362 0 4.482-1.12 4.482-3.362 0-5.603-1.12-12.326 0-17.928 0-3.362-2.24-4.483-5.602-4.483H307.268c5.602-32.495 17.928-60.508 39.218-84.04 17.929-17.928 38.098-30.254 62.75-36.977v40.34h25.772v-47.063c17.929-3.362 35.857-4.482 53.786-4.482 0 2.24 1.12 3.361 1.12 4.482 0 13.446 0 28.013-1.12 42.58 0 3.362 1.12 5.603 5.602 5.603 5.603-1.12 12.326-1.12 17.929 0 2.24 0 4.482-2.241 4.482-5.603-1.12-13.446-1.12-26.893-1.12-41.46 0-1.12 1.12-3.361 1.12-5.602 17.928 0 35.857 1.12 54.906 4.482v47.062h24.652v-39.218c25.772 10.084 47.062 24.651 63.87 45.941 16.808 22.411 26.893 47.063 32.495 73.955H564.99v20.17c0 5.603 0 5.603 6.723 5.603h124.379v36.977h-124.38c-5.602 0-6.722 0-6.722 4.482v15.688c0 4.482 1.12 5.602 6.723 5.602 40.34-1.12 80.678 0 122.138 0 13.446 0 26.893 3.362 39.218 10.085 33.616 20.17 40.34 61.63 14.567 90.763-1.12 2.241-2.24 4.482-2.24 6.723v94.125c0 10.085-1.121 21.29-2.242 31.375-7.844 43.7-28.013 80.678-59.388 110.932-24.652 21.29-52.665 38.098-82.92 49.304-5.602 1.12-6.722 2.24-6.722 7.843s-1.121 11.206-3.362 16.808c-5.603 23.532-20.17 35.857-44.821 35.857h-25.772c-3.362 0-4.483 0-4.483 5.603v75.076c11.206-2.241 20.17-5.603 30.255-10.085 107.57-59.388 215.142-118.776 321.592-178.165 32.495-17.928 50.424-45.941 50.424-81.798V321c0-33.617-14.567-60.51-43.7-78.438-20.17-12.326-41.46-23.531-61.63-34.736-89.642-49.304-178.164-99.728-266.686-149.031-30.255-15.687-60.509-15.687-90.763 0-108.692 60.509-216.263 121.017-323.834 181.526-32.495 17.928-49.303 44.821-49.303 82.92zm178.165-191.61c3.362 16.807 21.29 29.133 38.098 28.013 2.241 0 4.483-1.121 3.362-4.483 0-3.361 1.12-7.843 0-12.325 0-3.362 2.241-4.483 5.603-4.483h79.557V466.67h-85.16v-24.651c-6.723-1.121-13.446 1.12-19.049 2.24-16.808 7.844-25.772 24.652-22.41 41.46zm21.29 135.583c0 32.496 10.085 62.75 28.014 89.643 17.928 26.893 42.58 47.062 70.593 60.509 24.652 12.325 49.304 21.29 76.196 21.29h77.317c14.567 0 30.254-1.12 44.821-5.603 42.58-11.205 78.437-33.616 105.33-68.352 24.652-32.496 39.219-67.232 36.978-107.571v-75.076c-6.724 1.12-14.567 2.241-22.411 3.362-7.844 1.12-15.687 0-23.531 0H564.99v26.892h131.102v35.857H564.99v25.773h129.98c1.12 45.941-54.906 113.173-98.606 123.258V719.91h-25.773v40.34c-17.928 3.36-35.857 6.723-54.906 5.602 0-14.567 0-28.013 1.12-42.58 0-2.241-1.12-3.362-4.481-3.362h-17.929c-3.361 0-5.602 1.12-5.602 3.362 1.12 13.446 1.12 25.772 1.12 38.098 0 2.24-1.12 2.24-1.12 4.482-16.808 1.12-33.616 0-50.424-3.362-3.362 0-3.362-2.24-3.362-4.482V719.91h-25.772v34.737c-26.893-10.085-51.544-25.773-69.473-47.063-20.17-22.41-31.375-49.303-34.736-79.557h128.86v-25.773H303.907V572c0-4.482 1.12-5.603 5.603-5.603h118.776c1.12 0 3.362 0 5.603-1.12v-25.772h-125.5c-7.844 0-15.687-1.12-23.531-2.241-1.12 0-2.241 0-3.362-1.12v3.36zM436.13 816.275c0 15.687 10.084 28.013 24.651 30.254h88.522c15.688-3.361 23.531-14.567 22.41-29.134-45.94 0-89.642 3.362-135.583-1.12zm23.53-320.472c0 5.603 3.362 10.085 7.845 13.446 8.964 4.483 17.928 8.965 26.892 14.567 4.482 2.241 8.965 2.241 13.447 0 10.084-5.602 17.928-10.084 28.013-14.567 4.482-3.361 5.603-6.723 5.603-12.325v-31.375c0-4.482-1.12-8.965-5.603-11.206-10.085-4.482-17.929-11.205-26.893-15.687-5.602-2.241-10.085-2.241-14.567 0-8.964 4.482-17.928 11.205-26.892 15.687-4.483 2.241-7.844 6.724-7.844 12.326 0 8.964 1.12 19.05 0 29.134zm156.875-3.362h79.558c0 5.603 1.12 11.206 0 16.808 0 4.483 2.24 5.603 5.603 4.483 12.325-1.121 20.17-6.724 26.892-15.688 8.965-11.205 8.965-24.652 2.241-36.977-6.723-12.326-19.049-17.929-34.736-20.17v25.772h-75.076c-2.24 0-4.482 0-4.482 2.241z" style="fill:#000;fill-opacity:1;fill-rule:nonzero;stroke:none;"/>
</svg>
