<svg xmlns="http://www.w3.org/2000/svg" viewBox="0 0 1000 1000"><path d="M379.265 360.236v288.151c0 18.2 4.044 21.232 22.243 21.232h103.128c33.365-3.033 67.74-9.1 98.072-30.331 41.454-29.321 63.697-72.797 67.741-124.36 7.078-88.974-37.409-166.825-140.537-180.98-39.431-3.033-81.895-3.033-125.37-3.033-21.233 0-25.277 3.033-25.277 29.32zM5.173 373.379c0 45.498-5.055 42.465 42.465 42.465 43.475 0 39.431 0 39.431-42.465 0-46.508 4.044-42.464-42.464-42.464-44.487 0-39.432 0-39.432 42.464zm128.405 124.36c0 42.465 0 42.465 42.464 42.465 44.487 0 40.442 0 40.442-37.41 0-42.464 4.045-42.464-43.475-42.464-39.431 0-39.431 0-39.431 37.41zm0-124.36c0 42.465 0 42.465 42.464 42.465 44.487 0 40.442 0 40.442-42.465 0-42.464 4.045-42.464-43.475-42.464-39.431 0-39.431 0-39.431 36.398zm124.36 258.831c0 34.376 0 34.376 40.442 34.376 37.41 0 37.41 0 37.41-40.442 0-41.454 0-41.454-37.41-41.454h-22.243c-8.089 0-18.2 3.034-18.2 15.166zm0-129.415c0 37.409 0 37.409 35.387 37.409 46.508 0 42.464 5.055 42.464-42.464 0-37.41 0-37.41-34.376-37.41-47.52 0-43.475 0-43.475 42.465zm0-103.128c0 13.144 10.11 16.177 21.232 16.177h40.442c11.122 0 16.177-9.1 16.177-16.177v-32.354c0-36.398 0-36.398-34.376-36.398-43.475 0-43.475 0-43.475 42.464zm195.134 185.024V418.877c0-19.21 3.033-19.21 21.232-19.21h37.41c34.375 0 60.663 16.177 72.795 45.498 18.2 39.43 12.133 77.851-4.044 113.238-12.133 26.287-39.431 41.453-68.752 41.453h-37.409c-13.144 0-21.232-4.044-21.232-15.166zm253.775 66.73c0 14.154 6.067 21.232 19.21 21.232 11.122 0 14.155-9.1 14.155-24.266v-257.82c1.011 1.012 9.1 10.111 14.155 16.177 41.453 50.553 79.874 100.095 118.294 150.648 22.243 29.32 46.508 59.652 69.763 89.984 11.121 12.133 19.21 26.288 39.43 19.21 11.123-4.044 12.134-16.177 12.134-40.442l1.01-284.107c0-9.1-5.055-14.155-15.165-14.155s-16.177 4.044-16.177 14.155c0 83.917-2.022 247.709 0 279.052-67.74-104.14-256.809-335.672-256.809-287.14z"/></svg>
<svg xmlns="http://www.w3.org/2000/svg" viewBox="0 0 1000 1000"><path d="M379.265 360.236v288.151c0 18.2 4.044 21.232 22.243 21.232h103.128c33.365-3.033 67.74-9.1 98.072-30.331 41.454-29.321 63.697-72.797 67.741-124.36 7.078-88.974-37.409-166.825-140.537-180.98-39.431-3.033-81.895-3.033-125.37-3.033-21.233 0-25.277 3.033-25.277 29.32zM5.173 373.379c0 45.498-5.055 42.465 42.465 42.465 43.475 0 39.431 0 39.431-42.465 0-46.508 4.044-42.464-42.464-42.464-44.487 0-39.432 0-39.432 42.464zm128.405 124.36c0 42.465 0 42.465 42.464 42.465 44.487 0 40.442 0 40.442-37.41 0-42.464 4.045-42.464-43.475-42.464-39.431 0-39.431 0-39.431 37.41zm0-124.36c0 42.465 0 42.465 42.464 42.465 44.487 0 40.442 0 40.442-42.465 0-42.464 4.045-42.464-43.475-42.464-39.431 0-39.431 0-39.431 36.398zm124.36 258.831c0 34.376 0 34.376 40.442 34.376 37.41 0 37.41 0 37.41-40.442 0-41.454 0-41.454-37.41-41.454h-22.243c-8.089 0-18.2 3.034-18.2 15.166zm0-129.415c0 37.409 0 37.409 35.387 37.409 46.508 0 42.464 5.055 42.464-42.464 0-37.41 0-37.41-34.376-37.41-47.52 0-43.475 0-43.475 42.465zm0-103.128c0 13.144 10.11 16.177 21.232 16.177h40.442c11.122 0 16.177-9.1 16.177-16.177v-32.354c0-36.398 0-36.398-34.376-36.398-43.475 0-43.475 0-43.475 42.464zm195.134 185.024V418.877c0-19.21 3.033-19.21 21.232-19.21h37.41c34.375 0 60.663 16.177 72.795 45.498 18.2 39.43 12.133 77.851-4.044 113.238-12.133 26.287-39.431 41.453-68.752 41.453h-37.409c-13.144 0-21.232-4.044-21.232-15.166zm253.775 66.73c0 14.154 6.067 21.232 19.21 21.232 11.122 0 14.155-9.1 14.155-24.266v-257.82c1.011 1.012 9.1 10.111 14.155 16.177 41.453 50.553 79.874 100.095 118.294 150.648 22.243 29.32 46.508 59.652 69.763 89.984 11.121 12.133 19.21 26.288 39.43 19.21 11.123-4.044 12.134-16.177 12.134-40.442l1.01-284.107c0-9.1-5.055-14.155-15.165-14.155s-16.177 4.044-16.177 14.155c0 83.917-2.022 247.709 0 279.052-67.74-104.14-256.809-335.672-256.809-287.14z"/></svg>
<svg xmlns="http://www.w3.org/2000/svg" viewBox="0 0 1000 1000"><path d="M379.265 360.236v288.151c0 18.2 4.044 21.232 22.243 21.232h103.128c33.365-3.033 67.74-9.1 98.072-30.331 41.454-29.321 63.697-72.797 67.741-124.36 7.078-88.974-37.409-166.825-140.537-180.98-39.431-3.033-81.895-3.033-125.37-3.033-21.233 0-25.277 3.033-25.277 29.32zM5.173 373.379c0 45.498-5.055 42.465 42.465 42.465 43.475 0 39.431 0 39.431-42.465 0-46.508 4.044-42.464-42.464-42.464-44.487 0-39.432 0-39.432 42.464zm128.405 124.36c0 42.465 0 42.465 42.464 42.465 44.487 0 40.442 0 40.442-37.41 0-42.464 4.045-42.464-43.475-42.464-39.431 0-39.431 0-39.431 37.41zm0-124.36c0 42.465 0 42.465 42.464 42.465 44.487 0 40.442 0 40.442-42.465 0-42.464 4.045-42.464-43.475-42.464-39.431 0-39.431 0-39.431 36.398zm124.36 258.831c0 34.376 0 34.376 40.442 34.376 37.41 0 37.41 0 37.41-40.442 0-41.454 0-41.454-37.41-41.454h-22.243c-8.089 0-18.2 3.034-18.2 15.166zm0-129.415c0 37.409 0 37.409 35.387 37.409 46.508 0 42.464 5.055 42.464-42.464 0-37.41 0-37.41-34.376-37.41-47.52 0-43.475 0-43.475 42.465zm0-103.128c0 13.144 10.11 16.177 21.232 16.177h40.442c11.122 0 16.177-9.1 16.177-16.177v-32.354c0-36.398 0-36.398-34.376-36.398-43.475 0-43.475 0-43.475 42.464zm195.134 185.024V418.877c0-19.21 3.033-19.21 21.232-19.21h37.41c34.375 0 60.663 16.177 72.795 45.498 18.2 39.43 12.133 77.851-4.044 113.238-12.133 26.287-39.431 41.453-68.752 41.453h-37.409c-13.144 0-21.232-4.044-21.232-15.166zm253.775 66.73c0 14.154 6.067 21.232 19.21 21.232 11.122 0 14.155-9.1 14.155-24.266v-257.82c1.011 1.012 9.1 10.111 14.155 16.177 41.453 50.553 79.874 100.095 118.294 150.648 22.243 29.32 46.508 59.652 69.763 89.984 11.121 12.133 19.21 26.288 39.43 19.21 11.123-4.044 12.134-16.177 12.134-40.442l1.01-284.107c0-9.1-5.055-14.155-15.165-14.155s-16.177 4.044-16.177 14.155c0 83.917-2.022 247.709 0 279.052-67.74-104.14-256.809-335.672-256.809-287.14z"/></svg>