<svg xmlns="http://www.w3.org/2000/svg" viewBox="0 0 1000 1000"><path d="M803.494 321.185v299.607c-108.948-61.58-208.422-119.606-306.712-177.632C396.124 501.186 304.94 560.397 198.36 620.792V321.185c-43.816-13.026-74.606-39.079-121.974-45v556.581c144.474-85.263 283.027-168.158 420.396-247.5 144.474 84.079 280.66 162.237 420.397 247.5 10.657-112.5 7.105-517.502-3.553-556.58-40.263 13.026-74.606 29.605-110.132 45zm-709.345-75.79c37.895 18.948 73.421 31.974 100.658 43.817 10.658-3.553 18.948-7.106 26.053-11.843 79.342-48.552 162.237-91.184 243.948-140.921 24.869-16.58 42.632-16.58 68.685 0 61.579 39.079 126.71 69.869 184.737 113.684 59.211 41.448 114.87 41.448 172.896 2.369 2.368 0 2.368-2.369 10.658-10.658C766.784 163.685 631.783 85.527 496.782 5c-136.185 84.08-270 158.685-402.633 240.396zm82.895 556.582c113.685 69.868 219.08 132.632 324.475 193.027 105.395-63.948 210.79-126.711 319.738-193.027-37.895-16.58-62.763-36.71-93.553-54.474-63.948 42.632-127.895 74.605-189.474 114.869-26.053 16.579-48.553 16.579-75.79 0-66.316-40.264-127.895-76.974-196.58-114.87-26.053 17.764-56.842 37.896-88.816 54.475z"/></svg>