<svg xmlns="http://www.w3.org/2000/svg" viewBox="0 0 1000 1000"><path d="M826.86 44.115H165.04c-11.155-26.026-30.985-37.18-60.73-37.18-34.702 0-60.729 26.026-60.729 60.728 0 33.463 26.027 60.729 60.73 64.447 3.717 0 7.435 0 7.435 3.718 7.437 11.154 11.155 22.309 18.59 34.702 42.14 90.474 87.996 182.187 130.134 273.9 3.718 3.718 3.718 7.436 0 11.154-16.112 18.59-19.83 42.138-8.676 64.447 12.394 23.548 30.985 34.702 57.011 34.702 4.958 0 8.676 3.718 8.676 7.436 53.292 106.585 106.585 213.17 156.16 323.474 3.718 3.718 3.718 3.718 0 7.436-8.676 11.155-12.394 22.309-12.394 34.702-3.718 26.027 12.394 53.293 42.138 64.447 27.266 7.436 53.293 0 71.883-23.548 16.112-22.308 16.112-57.01-3.718-79.319-3.718 0-3.718-3.718-3.718-7.436l137.57-319.756c3.718-3.718 3.718-7.436 7.436-7.436 45.856-7.436 64.447-57.01 42.138-95.431v-11.154L883.87 146.982c3.718-11.154 7.436-14.872 18.59-18.59 30.984 0 53.293-27.266 53.293-57.01 4.957-30.985-18.59-57.011-44.617-64.448-30.984-7.436-61.968 7.437-73.123 29.745-3.718 7.436-7.436 7.436-11.154 7.436zm-661.82 91.713c102.866 71.883 202.015 141.288 303.643 213.17-7.436 3.719-14.872 11.155-22.308 14.873-30.985 23.548-64.447 45.856-95.431 73.122-3.719 3.719-7.437 0-11.155 0-11.154-3.718-18.59-3.718-30.984-8.675-3.718 0-3.718 0-7.436-3.718-37.18-83.038-79.32-167.314-121.458-254.07-3.718-12.393-11.154-23.548-14.872-34.702zm18.59-45.856h639.51c-3.718 3.718-3.718 7.436-7.436 7.436-99.15 73.122-198.298 145.005-297.447 216.888-7.437 3.719-11.155 3.719-14.873 0C396.8 242.413 293.933 170.53 191.065 97.408c-3.717 0-3.717-3.718-7.435-7.436zM358.38 539.86v-8.676c12.393-14.872 16.111-29.745 16.111-49.574-3.718-3.719 0-7.437 3.719-7.437 42.138-29.744 83.037-64.447 128.893-94.191 0 0 3.718-4.958 7.437 0 42.138 29.744 84.276 57.01 130.133 86.755-12.394 30.984-3.718 57.01 18.59 76.84-14.872 37.182-30.984 71.884-45.856 106.586-29.745 71.883-60.73 140.048-90.474 213.17 0 3.719-4.957 7.437-4.957 7.437-3.718 0-7.436-3.718-7.436-7.436-11.155-27.266-26.027-53.293-37.181-76.841-38.42-83.037-80.559-163.596-118.98-246.633zm190.862-190.862c95.43-71.883 189.622-141.288 288.771-209.453-3.718 3.718-3.718 3.718-3.718 7.436-37.18 91.713-79.319 183.426-117.74 277.618-3.717 3.718-3.717 3.718-11.153 3.718-7.437 0-14.873 4.957-27.266 4.957h-7.437C632.28 406.01 591.38 375.025 552.96 349z"/></svg>