<svg xmlns="http://www.w3.org/2000/svg" viewBox="0 0 1000 1000"><path d="M500.496 995.003c275.935 0 494.507-224.506 494.507-495.496C995.003 226.54 773.464 5 500.496 5 223.572 5 5 229.506 5 499.507c0 276.924 224.506 495.496 495.496 495.496zM95 525.221c0-1.978 1.978-4.945 1.978-8.9 21.759 3.955 41.539-4.946 61.32-6.924 48.46-1.978 93.956-5.934 140.44 6.923 8.9 1.978 19.78 6.923 28.68 10.88 32.638 17.802 41.54 37.582 37.583 74.176-2.967 13.846-2.967 26.703 0 39.56 1.978 4.945 3.956 6.923 5.934 10.88 1.978-1.979 1.978-3.957 4.945-5.935 5.934-19.78 10.88-41.538 12.858-66.264 0-23.736-8.902-45.494-30.66-61.319-19.78-12.857-39.56-19.78-61.319-26.703-33.626-5.934-66.264-5.934-98.901-5.934-32.638 1.978-64.286 5.934-96.924 14.835h-3.956c-4.945-8.901 0-14.835 0-25.714 12.858-2.967 23.737-4.945 36.594-6.923 22.747-3.956 46.484-6.923 68.242-10.88 50.44-3.956 100.88-1.978 149.341 17.803 17.802 5.934 33.626 16.813 46.484 30.66 10.879 8.9 17.802 19.78 19.78 32.637 5.934 26.703 3.956 50.44-1.978 75.165-8.901 32.637-26.703 61.319-53.407 83.077-19.78 14.835-41.538 23.736-63.297 28.681-39.56 10.88-79.12 10.88-118.681 10.88-10.88 0-17.803-4.946-23.737-12.858-28.681-46.483-46.483-96.923-55.385-149.34A2198.924 2198.924 0 0 0 95 525.22zm14.836-114.725C131.594 294.78 232.473 158.297 395.66 114.78c175.055-46.484 353.078 28.681 447.034 171.099 94.945 142.418 73.187 313.518 19.78 405.496-3.956-10.88-5.934-23.736-7.912-34.616-8.9-39.56-26.703-79.12-46.483-113.736-15.825-31.649-32.638-59.341-48.462-90-10.88-19.78-19.78-39.561-26.703-59.341-3.957-11.869-5.935-22.748-5.935-35.605 1.978-32.637-1.978-66.264-8.9-98.901-4.946-17.803-8.902-32.638-17.803-48.462-1.978-3.956-6.923-8.901-8.901-12.857-10.88 8.9-10.88 17.802-12.857 26.703-1.978 12.857-1.978 23.736-3.956 34.616v4.945c-2.967 14.835-8.901 16.813-22.748 5.934-16.813-14.835-39.56-23.737-65.275-21.759h-17.802c-12.857-1.978-15.824-6.923-8.901-19.78 4.945-3.956 8.901-10.879 10.88-17.802 6.922-8.901 10.878-16.813 15.823-25.714 1.978-1.978 3.956-6.924 3.956-10.88-6.923-4.945-10.879 0-14.835 1.978-26.703 12.858-53.407 28.682-75.165 50.44-12.857 12.857-25.714 23.737-39.56 37.583-19.78 14.835-41.539 25.714-65.275 32.637-50.44 12.857-98.902 26.704-147.363 39.56-21.759 6.924-43.517 14.836-66.264 21.76-25.715 10.878-50.44 26.702-67.253 48.46-2.967 1.979-2.967 3.957-4.945 3.957zm70.22 345.166h15.824c32.637 1.978 67.253 5.934 100.88 5.934 23.736 0 48.46-3.956 70.22-7.912 45.494-6.923 79.12-33.627 107.802-68.242 12.857-15.824 25.714-33.627 38.571-50.44 19.78-24.725 44.506-44.506 75.165-55.385 30.66-8.9 59.341-3.956 88.023 10.88 19.78 10.879 36.593 26.703 52.417 44.505 28.682 34.616 63.297 65.275 98.902 93.956 1.978 1.978 3.956 6.924 8.901 8.902-6.923 8.9-13.846 17.802-19.78 26.703-1.978-2.967-4.945-4.945-6.923-6.923-28.682-26.704-59.341-54.396-85.056-86.044-15.824-16.814-33.626-34.616-55.384-47.473-21.759-13.846-48.462-19.78-74.176-13.846-17.803 4.945-30.66 15.824-44.506 28.681-23.736 24.726-48.462 52.418-72.198 79.121 0 0-1.978 1.978-3.956 4.945 12.857-2.967 21.758-8.9 27.692-15.824 8.901-6.923 17.802-15.824 24.726-23.736 14.835-17.802 30.659-33.627 50.44-44.506 32.637-19.78 65.274-17.802 93.956 8.901 19.78 17.803 37.582 37.583 57.362 55.385 21.759 21.758 43.517 41.539 66.264 63.297 3.956 1.978 7.913 3.956 12.858 8.901-19.78 23.736-41.539 43.517-66.264 61.319-63.297 46.484-135.495 72.198-216.594 77.143-156.265 8.901-285.826-73.187-345.166-158.242zm257.143-116.704c1.978-1.978 1.978-5.934 3.956-10.879 24.726-57.363 46.484-113.737 70.22-171.1 10.88-21.758 21.759-43.516 30.66-66.263 4.945-5.935 6.923-10.88 10.879-16.814 6.923-4.945 13.846-6.923 17.802-4.945 4.945 4.945 8.901 12.857 6.923 19.78-6.923 21.759-15.824 46.484-26.703 68.243-19.78 30.659-37.583 61.318-54.396 91.978-13.846 24.725-28.681 46.484-41.538 70.22-2.968 4.945-6.924 10.879-11.869 17.802 0 1.978-1.978 1.978-3.956 3.956 0 0-1.978 0-1.978-1.978zm83.077-355.056c1.978-6.923 6.924-13.846 12.858-13.846 6.923 0 11.868 4.945 11.868 13.846 0 5.934-4.945 10.88-11.868 10.88-5.934 0-12.858-4.946-12.858-10.88zm116.704 43.517c0-6.923 5.934-12.858 12.857-12.858 6.923 0 12.858 8.902 12.858 14.836 0 6.923-5.935 10.879-12.858 10.879-8.9 0-12.857-3.956-12.857-12.857z"/></svg>