<svg xmlns="http://www.w3.org/2000/svg" width="1000" height="1000">
  <path d="M995 257.584v3.296c0 4.395-2.197 10.988-2.197 18.68v410.943c0 12.086-2.198 19.778-15.383 27.47-53.84 31.864-112.076 64.827-167.015 97.79-8.79 4.396-17.58 4.396-27.47 0-83.506-52.74-170.31-102.186-257.114-152.73-35.16-19.778-70.321-38.457-104.384-59.334-6.592-2.197-8.79-4.395-13.185-6.592 9.89-8.79 17.58-13.186 24.173-18.68l157.126-90.1c9.889-4.395 12.086-8.79 12.086-21.975V282.856c0-28.569-2.197-32.964-29.667-40.655v221.953c-15.383-7.691-27.47-14.284-39.556-23.074-21.975-10.988-41.753-20.877-61.532-32.963-8.79-5.494-15.382-5.494-23.074 0-21.975 12.086-45.05 24.173-64.828 35.16-2.197 2.198-4.395 2.198-6.593 2.198 0-4.395-3.296-8.79-3.296-9.889v-61.532c0-24.173-2.197-26.37-30.766-36.26V558.65l-30.766-14.284c-51.642-30.766-104.384-62.63-157.125-92.297-5.494-2.198-13.185-2.198-16.482 0-13.185 4.395-24.173 12.086-37.358 18.679V252.09c17.58 10.988 35.16 19.778 50.544 30.766 45.05 25.272 87.902 50.544 132.952 74.717 2.198 2.197 5.494 2.197 7.691 2.197 15.383-6.592 32.964-17.58 48.347-26.37-53.84-34.063-105.483-63.73-158.225-93.397 64.828-38.457 127.459-73.618 191.188-110.976 3.296 4.395 3.296 9.889 3.296 15.382v63.73c0 10.987 2.198 15.383 10.988 19.778 30.766 17.58 60.433 35.16 93.396 51.642 2.198 3.297 9.89 3.297 15.383 3.297 21.976-13.186 43.952-25.272 62.63-37.359 3.297-3.296 5.495-3.296 10.989-5.494-53.84-31.864-107.68-61.531-163.719-93.396 15.383-10.988 24.174-17.58 37.359-23.074 47.248-29.667 96.693-57.137 143.94-85.705 9.89-5.494 18.68-5.494 29.667 0 95.594 56.038 188.99 110.977 283.485 165.916 32.964 17.58 61.532 34.062 94.495 53.84zM5 647.65c65.927-36.26 128.557-73.618 193.385-110.976v224.15C135.755 722.368 70.927 685.01 5 647.65zm321.942 208.77V663.033c0-5.494 2.198-10.987 2.198-15.383 5.494 2.198 9.889 2.198 13.185 4.396 42.853 25.271 87.903 50.543 130.755 75.815 4.395 2.198 14.284 4.395 20.877 2.198 19.778-12.087 38.457-25.272 62.63-37.359v216.46c-4.395 0-7.691-2.198-9.889-2.198-43.95-25.272-89-52.741-134.05-74.717-4.396-5.493-12.087-1.098-18.68 0-17.58 8.79-36.26 21.976-53.84 31.865-3.297 2.198-5.494 2.198-10.988 6.593-2.198-6.593-2.198-10.988-2.198-14.284zm274.695 109.878V743.244c64.828 36.26 128.557 74.717 193.385 110.977-64.828 39.556-128.557 74.717-193.385 112.076z" style="fill:#000;fill-opacity:1;fill-rule:nonzero;stroke:none;"/>
</svg>
