<svg xmlns="http://www.w3.org/2000/svg" width="1000" height="1000">
  <path d="M524.868 5c20.132 7.105 8.29 0 41.448 21.316 118.421 71.053 234.474 132.632 352.896 202.5-82.895 61.58-106.58 71.054-201.317 120.79-13.026 9.474-20.132 9.474-33.158 0-48.553-24.868-91.185-53.29-131.448-73.42-22.5-13.027-28.421-22.5-28.421-42.632zM60.656 725.003V276.185c34.342 15.395 63.947 28.421 90 41.448 55.658 28.421 76.974 39.079 111.316 60.395 28.421 17.763 28.421 29.605 28.421 49.737v152.764c0 11.842-8.29 20.131-16.579 26.052-66.316 42.632-136.184 75.79-213.158 118.422zm21.316 40.263c75.79-40.263 145.658-82.895 213.158-116.053 8.29-7.105 21.316-7.105 28.421 0 50.922 28.421 95.922 48.553 137.37 82.895 16.578 11.842 20.131 13.026 20.131 28.421v234.475c-129.08-75.79-261.712-152.764-399.08-229.738zm5.92-531.712C131.71 205.132 477.5 5 481.053 5v228.554c0 20.131-2.368 33.158-20.132 42.631-46.184 24.869-86.447 48.553-129.08 69.869-8.289 3.553-21.315 13.026-36.71 3.553-67.5-31.974-137.369-73.422-207.237-116.053zm243.95 352.896V427.765c46.184 26.053 100.658 56.842 149.211 84.08V682.37c-52.105-24.868-94.737-53.29-144.474-81.71 0 0-4.737-5.922-4.737-14.211zm20.131-198.95c46.184-28.42 97.105-58.026 138.553-78.158 7.105-4.737 20.131-8.29 28.42-4.737 40.264 24.869 88.817 54.474 137.37 82.896-48.553 24.868-97.106 54.473-137.37 82.895-8.289 7.105-17.762 8.29-28.42 0-41.448-28.422-92.369-58.027-138.553-82.895zm172.895 607.503V765.266c0-20.132 5.921-33.158 20.132-40.263 48.552-24.869 91.184-47.369 131.448-75.79 13.026-7.105 28.42-7.105 41.447 0 62.763 33.158 131.448 75.79 207.238 116.053-137.37 76.974-260.528 153.948-400.265 229.738zm0-312.633V517.765c104.21-63.947 103.027-63.947 151.58-90V586.45c0 8.29-7.106 14.21-11.843 20.131-42.631 28.421-84.079 50.922-139.737 75.79zm193.027-108.948v-151.58c0-9.473 7.105-21.315 14.21-30.789 68.685-41.447 139.738-81.71 207.238-121.974v455.923c-99.474-63.948-99.474-61.58-200.132-110.132-14.21-14.21-21.316-20.132-21.316-41.448z" style="fill:#000;fill-opacity:1;fill-rule:nonzero;stroke:none;"/>
</svg>
