<?xml version="1.0" encoding="UTF-8"?><svg id="a" xmlns="http://www.w3.org/2000/svg" viewBox="0 0 1000 1000"><path d="M445.425,500.018s-106.736,142.923-240.231,149.983c20.781-23.205,66.092-81.639,66.092-149.983s-45.311-126.778-66.092-149.983c133.495,7.059,240.231,149.983,240.231,149.983Zm554.575,.129l-499.822,499.542L0,500.018,500.178,.31l499.822,499.837Zm-181.126,146.402c21.884-25.131,63.136-81.32,63.136-146.532s-41.576-121.841-63.394-146.826l-110.164-110.183-.507,.498c-43.245,42.36-115.445,98.376-197.801,102.627,20.653-23.012,66.199-81.522,66.199-149.994s-45.546-126.983-66.199-149.995l-9.967-11.445-9.966,11.445c-20.653,23.012-66.199,81.523-66.199,149.995s45.546,126.982,66.199,149.994c-82.678-4.268-155.122-60.707-198.308-103.125l-107.86,107.91h0c-21.12,23.756-65.327,81.593-65.327,149.099s44.553,125.796,65.575,149.377l108.128,108.147,.508-.497c43.288-42.303,115.248-97.902,197.285-102.137-20.653,23.012-66.199,81.523-66.199,149.995s45.546,126.983,66.199,149.995l9.966,10.436,9.967-10.436c20.653-23.013,66.199-81.524,66.199-149.995s-45.546-126.983-66.199-149.995c82.358,4.252,154.56,60.27,197.793,102.634l110.679-110.698,.257-.295Zm-263.571-146.532s106.736,142.923,240.23,149.983c-20.78-23.205-66.092-81.639-66.092-149.983s45.312-126.778,66.092-149.983c-133.493,7.059-240.23,149.983-240.23,149.983Z"/></svg>