<svg xmlns="http://www.w3.org/2000/svg" viewBox="0 0 1000 1000"><path d="M517.464,283.223a51.174,51.174,0,0,0-5.957-8.633c-4.573-5.206-7.54-5.483-13.379-1.517a45.023,45.023,0,0,0-6.435,5.4c-9.869,9.854-17.412,21.419-23.971,33.619a692.068,692.068,0,0,0-39.037,87.044c-4.223,11.375-8.277,22.814-12.571,34.676,3.565,2.514,7.176,2.116,10.607,2.2a261.126,261.126,0,0,0,44.757-3.076c16.2-2.387,31.352-7.9,43.842-18.974,10.819-9.591,18.85-20.817,18.9-36.16.011-3.5.251-7,.494-10.488,1-14.313.652-28.554-2.4-42.627C529.168,310.229,524.782,296.183,517.464,283.223Z"/><path d="M500.5,5C226.54,5,5,225.55,5,500.5,5,772.476,225.55,995,500.5,995,772.476,995,995,774.453,995,499.507,995,227.528,773.464,5,500.5,5Zm113.65,366.1c-1.894,20.911-6.116,41.231-16.264,59.891-11.5,21.15-28.566,36.95-48.676,49.6-21.162,13.313-44.43,20.518-69.2,23.455-17.75,2.105-35.471,1.92-53.245.931-8.864-.493-17.736-.829-26.607-1.171a33.087,33.087,0,0,0-4.3.393c-2.655,3.342-3.108,7.375-3.575,11.244-2.1,17.427-4.388,34.845-5.872,52.329-1.8,21.23-3.41,42.505-4.113,63.792-1.021,30.907-.983,61.847-1.756,92.764-.316,12.625-1.348,25.246-2.483,37.83a48.408,48.408,0,0,1-8.767,23.418c-7.728,11.184-18.79,16.369-31.608,19.063-8.729,1.834-16.593.3-24.236-4.095-18.837-10.834-27.687-27.921-28.338-48.749-1.133-36.3-1.042-72.633-1.419-108.954-.073-7.03.235-14.067.066-21.094-.473-19.758,1.981-39.284,4.632-58.776q4.351-32.005,9.375-63.919c4.7-29.593,9.378-59.2,14.718-88.676,5.838-32.238,12.46-64.333,18.633-96.511.969-5.048,1.512-10.191,1.979-15.315a22.181,22.181,0,0,0-1.564-11c-1.99-4.65-1.754-9.584-.72-14.508,2.245-10.687,6.743-20.485,12.222-29.781q9.807-16.639,20.478-32.766c12.747-19.175,42.55-19.753,56.034-1.194,1.879,2.587,3,5.73,4.779,9.228a41.061,41.061,0,0,0,5.506-2.723c4.425-3.064,8.794-6.221,13.038-9.53,13.906-10.839,29.289-18.424,46.768-21.354a59.835,59.835,0,0,1,20.958,0c6.44,1.2,12.889,2.362,19.365,3.333,10.531,1.578,19.519,6.352,27.542,13.1,18.907,15.9,31.885,36.03,41.076,58.718a223.284,223.284,0,0,1,14.51,58.437A255,255,0,0,1,614.146,371.1ZM748.78,550.961c-17.074.4-36.981-18.417-35.593-34.275,2.022-23.092,12.44-36.9,35.663-36.434,19.775.4,34.265,12.807,35.2,34.224C783.683,532.632,769.675,550.469,748.78,550.961Z"/></svg>