<svg xmlns="http://www.w3.org/2000/svg" viewBox="0 0 1000 1000"><path d="M728.814,145.911C595.02,169.583,500.17,259.664,405.16,349.833c-30.259,28.709-60.517,57.419-92,84.01-12.851-5.873-30.543-8.33-44.978-10.341-6.728-.925-12.726-1.78-17.229-2.794-69.967-5.785-149.617,12.156-198.8,65.09-78.19,87.856-76.535,223.59,60.623,242.848a231.516,231.516,0,0,0,96.755-3.275,67.725,67.725,0,0,0,4.361,12.317c1.086,2.51,2.153,5.019,3.026,7.582a409.4,409.4,0,0,1,13.651,40.8c5.981,20.077,11.943,40.155,22.124,58.274a16.8,16.8,0,0,0,12.46,6.817,16.676,16.676,0,0,0,11.943,5.535,1373.218,1373.218,0,0,1,324.331-96.114c62.581-11.854,125.251-17.674,188.312-23.53,35.865-3.328,71.872-6.674,108.057-11.16,18.422.41,25.239-15.787,20.789-27.57a18.508,18.508,0,0,0,1.78-12.3c-3.168-13.243-7.12-26.289-10.982-39.318l-1.976-6.585q-1.494-5.145-3.026-10.342c-4.36-14.862-8.739-29.759-12.174-44.906,16.019-8.793,32.59-28.977,43.91-42.718,3.079-3.737,5.749-6.994,7.938-9.433a249.176,249.176,0,0,0,44.337-90.774C1039.974,259.219,913.6,122.559,728.814,145.911Zm180.73,368.615A205.044,205.044,0,0,1,873.11,551.12a86.06,86.06,0,0,0-16.7-2.563c-2.135-.178-4.236-.374-6.211-.605,17.087-28.638,25.9-73.776,24.918-92.964,2.029-24.793-35.153-28.478-37.787-3.755A224.991,224.991,0,0,1,831,495.944a114.216,114.216,0,0,1-21.128,40.937,19.4,19.4,0,0,0-8.294,6.069,18.088,18.088,0,0,0-1.78,2.688q-21.893-.392-43.749.214c11.142-25.239,17.3-55.052,14.541-67.636a228.882,228.882,0,0,0-9.469-45.832c-7.813-23.726-43.393-12.335-36.363,11.5,12.459,34.156,8.9,75.592-14.844,104.3q-42.5,3.2-84.634,10.092a776.894,776.894,0,0,0-102.646,28.656,19.1,19.1,0,1,0,11.32,36.488c7.369-2.225,14.72-4.539,22.071-6.835,18.173-5.695,36.31-11.391,54.82-15.93,34.922-8.223,68.775-11.782,104.142-13.918a18.046,18.046,0,0,0,7.119-.41c8.49-.463,17.069-.872,25.791-1.228,35.277-2.9,70.537-.943,105.618,1.371.356,9.024,3.56,19.258,6.479,28.478a152.061,152.061,0,0,1,4.183,14.951c3.026,10.021,5.767,20.13,8.508,30.258,2.563,9.416,5.126,18.831,7.9,28.158-31.5,3.666-63.114,6.781-94.725,9.878-80.309,7.885-160.706,15.77-239.626,33.124a1414.83,1414.83,0,0,0-171.19,45.957h-.16c-31.931,10.216-64.183,20.539-93.5,36.861-4.521-12.246-8.508-24.705-12.459-37.182C262,755.344,255.1,733.719,245.5,713.3c22.035-7.618,47.665-18.315,39.442-39.922a19.579,19.579,0,0,0-25.808-9.363C197.785,696.929,111.3,709.53,55.02,660.743c-37.84-47.327-4.521-118.967,33.391-156.4,50.905-43.43,122.207-52.418,186.888-40.244q-15.52,11.66-31.593,22.356c-21.234,14.239-.427,45.529,20.86,32.536,59.431-37.377,109.944-86,160.493-134.666,31.806-30.632,63.649-61.282,97.716-89.137,77.14-65.322,177.33-125.891,282.183-110.353,52.275,10.679,108.484,34.387,133.224,84.812C979.761,345.953,962.122,447.655,909.544,514.526Z"/></svg>