<svg width="1000" height="1000" viewBox="0 0 1000 1000" fill="none" xmlns="http://www.w3.org/2000/svg">
<path fill-rule="evenodd" clip-rule="evenodd" d="M500 995C773.381 995 995 773.381 995 500C995 226.619 773.381 5 500 5C226.619 5 5 226.619 5 500C5 773.381 226.619 995 500 995ZM201 285.731L346.731 140H415.99C397.232 150.822 335.188 228.016 319.317 285.731H201ZM486.691 140V285.731H346.731C356.591 255.671 391.75 184.441 453.505 140H486.691ZM514.828 285.731H656.23C623.333 207.238 569.898 155.872 547.293 140H514.828V285.731ZM798.355 285.731H683.645C665.609 242.445 633 182.709 586.251 140H651.18L798.355 285.731ZM315.709 714.268H201L348.174 860H413.104C366.355 817.291 333.745 757.555 315.709 714.268ZM343.124 714.268H484.527V860H452.062C429.457 844.128 376.022 792.761 343.124 714.268ZM512.663 714.268L512.663 860H545.85C607.605 815.559 642.764 744.329 652.623 714.269L512.663 714.268ZM652.623 860L798.355 714.269H680.038C664.166 771.984 602.122 849.178 583.365 860H652.623ZM444.111 667.627C458.179 662.625 470.215 656.06 480.219 647.932V479.583H388.776V528.352H429.105V614.168C425.353 616.982 420.351 619.326 414.099 621.202C408.159 622.765 401.437 623.547 393.934 623.547C382.055 623.547 371.738 620.421 362.984 614.168C354.544 607.916 347.51 599.318 341.882 588.376C336.255 577.122 332.035 564.148 329.221 549.455C326.407 534.449 325.001 518.505 325.001 501.623C325.001 485.366 326.407 469.892 329.221 455.198C332.035 440.505 336.255 427.687 341.882 416.745C347.51 405.491 354.544 396.581 362.984 390.016C371.738 383.451 381.898 380.168 393.465 380.168C414.724 380.168 431.606 389.234 444.111 407.366L476.467 367.976C467.401 355.158 455.678 345.31 441.297 338.433C426.916 331.242 409.878 327.647 390.183 327.647C371.425 327.647 354.544 332.024 339.538 340.777C324.532 349.218 311.714 361.254 301.085 376.885C290.455 392.204 282.327 410.493 276.7 431.751C271.073 453.01 268.259 476.3 268.259 501.623C268.259 527.571 271.073 551.174 276.7 572.433C282.64 593.691 290.924 611.98 301.554 627.298C312.496 642.617 325.782 654.497 341.413 662.938C357.045 671.066 374.708 675.13 394.403 675.13C413.786 675.13 430.355 672.629 444.111 667.627ZM577.677 336.088V668.096H731.02V617.92H631.605V519.911H719.297V473.956H631.605V385.795H726.331V336.088H577.677Z" fill="black"/>
</svg>
