<svg xmlns="http://www.w3.org/2000/svg" viewBox="0 0 1000 1000"><path d="M561.562 561.38c23.652-23.651 39.42-46.177 54.062-69.829 60.819-67.576 113.754-129.521 166.689-197.098 38.293-43.925 23.651-68.703-37.167-91.228-60.82-22.526-113.754 0-152.048 47.303-69.829 82.218-137.406 157.679-204.982 241.023-14.642 16.895-14.642 108.123 0 129.522 75.46 108.123 150.92 206.109 227.508 313.105 31.535 37.167 68.703 54.061 113.754 60.82 39.42 0 67.576-6.759 91.228-45.052 15.768-31.536-6.758-52.935-29.283-84.47-76.587-97.987-152.047-206.11-229.76-304.095zM174.123 735.954c0 68.703 52.935 105.87 113.754 91.229 47.304-15.768 68.703-45.051 68.703-97.986V97.355C349.822 44.42 311.53 5 258.594 5c-46.177 0-84.47 39.42-84.47 92.355z"/></svg>