<svg xmlns="http://www.w3.org/2000/svg" viewBox="0 0 1000 1000"><path d="M500,0C223.858,0,0,223.858,0,500s223.858,500,500,500,500-223.858,500-500S776.142,0,500,0ZM842.314,644.611A371.2,371.2,0,0,1,500,871.511a376.574,376.574,0,0,1-46.081-2.815l1.255-11.489A364.89,364.89,0,0,0,500,859.955a358.806,358.806,0,1,0-140.109-28.284q11.488,4.858,23.22,8.883l-1.286,11.774q-13.363-4.488-26.436-10.014a371.4,371.4,0,1,1,486.925-197.7ZM489.164,620.6q2.252,5.181,9.471,8.907a45.749,45.749,0,0,0,20.746,4.97H530.43v7.663H399.191v-7.663h10.824q18.942,0,27.51-10.148,5.412-6.627,5.412-31.895V411.006q0-21.33-2.931-28.167-2.257-5.175-9.246-8.906a44.84,44.84,0,0,0-20.745-4.97H399.191V361.3H626.718l2.931,61.719h-7.893q-5.865-19.674-13.642-28.892a44.664,44.664,0,0,0-19.167-13.358q-11.389-4.141-35.291-4.143H509.792a23.56,23.56,0,0,0-23.559,23.56V592.432Q486.233,613.767,489.164,620.6ZM544.916,190.78a316.5,316.5,0,0,0-38.853-3.14A311.433,311.433,0,1,0,627.17,214.545q-9.888-4.411-20-8.1l1.314-10.195q11.52,4.119,22.772,9.135a323.493,323.493,0,1,1-125-27.773,326.624,326.624,0,0,1,39.94,3.219Z"/></svg>