<svg xmlns="http://www.w3.org/2000/svg" viewBox="0 0 1000 1000"><path d="M500.496 995.003c275.935 0 494.507-224.506 494.507-495.496C995.003 226.54 773.464 5 500.496 5 223.572 5 5 229.506 5 499.507c0 276.924 224.506 495.496 495.496 495.496zM121.704 512.364c6.923 106.814 89.011 193.847 197.803 203.737-85.056-57.363-138.462-151.319-141.43-253.187-7.912-181.979 130.55-334.287 310.551-343.188-108.792 6.923-194.836 90.989-204.726 199.78 56.374-90 155.275-141.429 262.089-146.374 179.011-4.945 327.364 136.484 334.287 314.507-6.923-107.803-90.99-194.836-199.781-204.726 90 57.363 142.418 156.264 145.385 261.1 6.923 179.011-133.517 329.342-312.529 336.265 106.814-6.923 192.858-89.012 202.748-196.814-59.34 88.022-155.275 142.418-261.1 145.385-178.022 2.967-328.352-138.462-333.297-316.485zm283.847 84.067c23.736 27.692 59.34 39.56 93.956 39.56 36.594 0 71.21-11.868 95.935-39.56 50.44-51.43 50.44-138.462 0-189.891-51.43-50.44-138.462-50.44-189.891 0-51.429 51.429-54.396 137.473 0 189.89z"/></svg>