<svg width="33" height="32" viewBox="0 0 33 32" fill="none" xmlns="http://www.w3.org/2000/svg">
<g clip-path="url(#clip0_3393:12142)">
<path fill-rule="evenodd" clip-rule="evenodd" d="M16.4338 31.84C25.1819 31.84 32.2738 24.7482 32.2738 16C32.2738 7.25178 25.1819 0.159973 16.4338 0.159973C7.68556 0.159973 0.59375 7.25178 0.59375 16C0.59375 24.7482 7.68556 31.84 16.4338 31.84ZM6.86471 9.14333L11.5281 4.47992H13.7444C13.1441 4.82622 11.1587 7.29644 10.6508 9.14333H6.86471ZM16.0068 4.47992V9.14333H11.5281C11.8436 8.18141 12.9687 5.90203 14.9449 4.47992H16.0068ZM16.9072 9.14333H21.4321C20.3794 6.63155 18.6694 4.98782 17.9461 4.47992H16.9072V9.14333ZM25.9801 9.14333H22.3094C21.7322 7.75816 20.6887 5.84662 19.1927 4.47992H21.2705L25.9801 9.14333ZM10.5355 22.8565H6.8648L11.5744 27.5199H13.6521C12.1561 26.1532 11.1127 24.2417 10.5355 22.8565ZM11.4128 22.8565H15.9377L15.9377 27.5199L14.8988 27.5199C14.1754 27.012 12.4655 25.3683 11.4128 22.8565ZM16.838 22.8565V27.5199H17.9C19.8762 26.0978 21.0012 23.8184 21.3167 22.8565L16.838 22.8565ZM21.3167 27.5199L25.9801 22.8565H22.194C21.6861 24.7034 19.7007 27.1736 19.1005 27.5199H21.3167ZM16.4397 20.096C16.6797 20.096 16.9157 20.076 17.1477 20.036C17.3877 19.996 17.6157 19.932 17.8317 19.844C18.0557 19.756 18.2597 19.636 18.4437 19.484C18.6277 19.324 18.7757 19.136 18.8877 18.92C19.0077 18.704 19.0797 18.48 19.1037 18.248C19.1357 18.008 19.1517 17.768 19.1517 17.528V15.08H16.4997V16.412H17.6757V17.528C17.6757 17.696 17.6557 17.864 17.6157 18.032C17.5757 18.192 17.4917 18.328 17.3637 18.44C17.2357 18.552 17.0917 18.636 16.9317 18.692C16.7717 18.74 16.6077 18.764 16.4397 18.764C16.2797 18.764 16.1197 18.74 15.9597 18.692C15.8077 18.636 15.6717 18.548 15.5517 18.428C15.4317 18.308 15.3477 18.168 15.2997 18.008C15.2517 17.848 15.2277 17.688 15.2277 17.528V13.652C15.2277 13.484 15.2517 13.32 15.2997 13.16C15.3557 13 15.4437 12.86 15.5637 12.74C15.6837 12.62 15.8237 12.536 15.9837 12.488C16.1437 12.44 16.3077 12.416 16.4757 12.416C16.6677 12.416 16.8597 12.448 17.0517 12.512C17.2437 12.576 17.3997 12.692 17.5197 12.86C17.6397 13.02 17.6997 13.2 17.6997 13.4H19.1757C19.1757 13.064 19.1037 12.74 18.9597 12.428C18.8237 12.116 18.6237 11.856 18.3597 11.648C18.0957 11.432 17.7997 11.284 17.4717 11.204C17.1437 11.124 16.8117 11.084 16.4757 11.084C16.2357 11.084 15.9997 11.104 15.7677 11.144C15.5357 11.176 15.3077 11.244 15.0837 11.348C14.8677 11.444 14.6717 11.572 14.4957 11.732C14.3197 11.892 14.1717 12.076 14.0517 12.284C13.9397 12.492 13.8597 12.712 13.8117 12.944C13.7717 13.176 13.7517 13.412 13.7517 13.652V17.528C13.7517 17.808 13.7837 18.088 13.8477 18.368C13.9197 18.64 14.0397 18.892 14.2077 19.124C14.3757 19.348 14.5797 19.536 14.8197 19.688C15.0677 19.84 15.3277 19.944 15.5997 20C15.8797 20.064 16.1597 20.096 16.4397 20.096ZM6.93359 20H8.40959V16.16H10.7616V20H12.2376V11.18H10.7616V14.816H8.40959V11.18H6.93359V20ZM24.4217 19.964C24.0857 20.052 23.7417 20.096 23.3897 20.096C23.0537 20.096 22.7177 20.056 22.3817 19.976C22.0537 19.896 21.7537 19.752 21.4817 19.544C21.2097 19.328 21.0017 19.064 20.8577 18.752C20.7137 18.432 20.6417 18.1 20.6417 17.756H22.1177C22.1257 17.964 22.1897 18.152 22.3097 18.32C22.4377 18.488 22.5977 18.604 22.7897 18.668C22.9897 18.732 23.1897 18.764 23.3897 18.764C23.6057 18.764 23.8137 18.728 24.0137 18.656C24.2217 18.576 24.3857 18.444 24.5057 18.26C24.6257 18.068 24.6857 17.864 24.6857 17.648C24.6857 17.36 24.5777 17.104 24.3617 16.88C24.1537 16.656 23.9137 16.492 23.6417 16.388L22.8257 16.076C22.5537 15.964 22.2937 15.836 22.0457 15.692C21.7977 15.54 21.5737 15.356 21.3737 15.14C21.1737 14.924 21.0177 14.68 20.9057 14.408C20.8017 14.128 20.7497 13.844 20.7497 13.556C20.7497 13.212 20.8137 12.88 20.9417 12.56C21.0777 12.232 21.2737 11.952 21.5297 11.72C21.7937 11.48 22.0897 11.316 22.4177 11.228C22.7537 11.132 23.0937 11.084 23.4377 11.084C23.7657 11.084 24.0897 11.124 24.4097 11.204C24.7377 11.284 25.0297 11.432 25.2857 11.648C25.5497 11.864 25.7497 12.128 25.8857 12.44C26.0217 12.744 26.0897 13.064 26.0897 13.4H24.6137C24.6057 13.208 24.5457 13.028 24.4337 12.86C24.3297 12.692 24.1857 12.576 24.0017 12.512C23.8177 12.448 23.6297 12.416 23.4377 12.416C23.2857 12.416 23.1337 12.44 22.9817 12.488C22.8297 12.528 22.6937 12.6 22.5737 12.704C22.4617 12.808 22.3777 12.932 22.3217 13.076C22.2657 13.22 22.2377 13.372 22.2377 13.532C22.2377 13.82 22.3417 14.076 22.5497 14.3C22.7577 14.524 22.9977 14.688 23.2697 14.792C23.5497 14.888 23.8217 14.992 24.0857 15.104C24.3577 15.208 24.6177 15.336 24.8657 15.488C25.1217 15.64 25.3497 15.824 25.5497 16.04C25.7497 16.256 25.9017 16.5 26.0057 16.772C26.1177 17.044 26.1737 17.328 26.1737 17.624C26.1737 17.968 26.1017 18.308 25.9577 18.644C25.8217 18.972 25.6177 19.252 25.3457 19.484C25.0737 19.716 24.7657 19.876 24.4217 19.964Z" fill="black"/>
</g>
<defs>
<clipPath id="clip0_3393:12142">
<rect width="32" height="32" fill="white" transform="translate(0.441406)"/>
</clipPath>
</defs>
</svg>
