<svg xmlns="http://www.w3.org/2000/svg" viewBox="0 0 1000 1000"><path d="M500.496 5C223.572 5 5 229.506 5 500.002c0 276.43 224.506 495.001 495.002 495.001 276.43 0 495.001-224.506 495.001-495.001C995.003 226.539 773.464 5 500.496 5zm-330.33 629.013c9.89-19.78 39.56-66.264 64.285-104.835 62.308-108.792 124.616-217.584 186.924-325.386 3.956-5.934 11.868-14.835 19.78-2.967 16.814 26.703 32.638 55.385 45.495 82.088 6.923 9.89 6.923 15.824 0 22.747-26.703 42.528-52.418 85.056-78.132 131.54-16.813 28.68-35.605 58.351-56.374 91.978 10.88 2.967 15.824 2.967 23.736 2.967h94.946c12.857 0 22.747 2.967 29.67 16.813 9.89 22.747 18.791 38.571 31.649 58.352 13.846 25.714 1.978 26.703-42.528 26.703zm90 107.803c12.857-19.78 26.703-43.517 39.56-65.275 6.923-13.847 16.814-18.792 32.638-18.792h240.33c15.824 0 15.824-4.945 8.901-16.813-15.824-29.67-32.637-59.34-49.45-86.044-4.945-9.89-4.945-19.78-2.967-29.67 16.813-26.704 30.659-50.44 46.483-75.166 6.923-8.9 25.715 27.693 56.374 82.089 38.572 66.264 78.132 134.506 117.693 203.737 15.824 29.67 15.824 29.67-16.813 29.67H276.979c-21.758 0-29.67 1.978-16.813-23.736zm134.506-233.408c59.34-110.77 118.681-212.638 180.99-317.473 7.911 9.89 259.121 431.21 259.121 443.078h-110.77c-13.846 0-16.813-6.923-23.736-16.813-34.615-65.275-91.978-170.11-127.583-226.484-1.978.989-56.374 105.824-56.374 104.835-5.934 10.88-12.857 12.857-22.747 12.857z"/></svg>