<svg xmlns="http://www.w3.org/2000/svg" viewBox="0 0 1000 1000"><path d="M778.632 809.294c46.425-89.087 62.737-204.524-17.567-289.847-32.623-35.133-70.266-60.228-111.673-79.049-47.68-23.84-94.106-43.916-141.786-67.756-15.057-7.529-27.605-15.057-38.898-23.84-6.273-5.02-13.802-12.548-16.311-21.331-3.765-23.84 7.528-47.68 33.878-52.7 22.585-7.528 52.7-3.764 62.737 25.095 3.765 13.802 7.529 28.86 10.038 43.916 0 6.274 2.51 7.529 10.038 7.529h238.403c5.019 0 7.528-1.255 7.528-7.529-2.51-16.311-2.51-35.133-3.764-51.444-7.528-77.795-42.661-141.787-105.399-186.958C671.978 84.05 638.1 67.738 599.202 57.7c-3.764-1.255-7.528-2.51-7.528-10.038 1.255-12.548 0-27.605 0-42.662H418.518c-6.273 0-8.783 3.764-8.783 11.293V57.7c0 1.254-7.528 3.764-11.293 6.273-46.425 15.057-89.087 37.643-125.475 70.266-99.125 92.852-106.653 243.422-17.566 342.547 30.114 36.388 67.756 60.228 111.673 79.05 36.387 17.566 72.775 32.623 109.163 50.19 22.585 7.528 43.916 18.82 63.992 31.368 21.33 15.057 28.86 40.152 18.821 63.992-11.292 23.84-38.897 40.152-62.737 35.133-25.095-3.764-43.916-21.33-47.68-43.916-6.274-18.821-6.274-36.388-10.039-55.21v-12.547c-2.51-1.254-2.51-1.254-3.764-1.254H187.645c-5.02 0-5.02 2.509-5.02 6.273 0 26.35 0 50.19 1.255 76.54 2.51 40.152 72.776 227.11 205.78 234.638 8.782 2.51 23.84 0 33.877 1.255v46.426c48.936 6.273 107.909 6.273 168.137 6.273 0-8.783-3.764-36.387-3.764-52.7 5.019-1.254 11.292-1.254 20.076-3.763 74.03-17.567 134.258-57.719 170.646-129.24zM207.72 331.234c-7.528-99.124 38.898-169.39 119.202-222.09 28.859-16.311 55.209-27.604 85.323-33.878 1.254-2.51 3.764-2.51 6.273-2.51h3.765s0 2.51 1.254 2.51l-8.783 6.274c-11.293 6.274-25.095 10.038-37.642 13.802-35.133 16.312-66.502 35.133-92.852 60.228-53.954 55.209-74.03 120.456-67.756 195.74 2.51 5.02 0 8.784 0 13.803h-5.02c-1.254-11.293-3.764-21.33-3.764-33.878zM451.142 25.077c1.255-2.51 3.764-5.019 5.019-5.019h30.114c0 1.255 0 1.255 1.255 2.51-3.765 0-5.02 5.019-8.784 5.019h-22.585c-1.255 0-3.764-2.51-5.02-2.51z"/></svg>