<svg xmlns="http://www.w3.org/2000/svg" viewBox="0 0 1000 1000"><path d="M5 500.002v.395-.395c.099-89.506 22.55-172.682 67.253-249.726 44.209-74.473 103.55-133.814 178.023-178.023C327.419 27.45 410.694 5 500.002 5c89.308 0 172.583 22.45 249.726 67.253C824.2 116.462 883.54 175.803 927.75 250.276c44.803 77.143 67.253 160.418 67.253 249.726 0 89.308-22.45 172.583-67.253 249.726C883.541 824.2 824.2 883.54 749.728 927.75c-77.143 44.803-160.418 67.253-249.726 67.253-89.308 0-172.583-22.45-249.726-67.253-74.473-44.209-133.814-103.55-178.023-178.022C27.55 672.684 5.099 589.508 5 500.002zm170.11 184.45c8.902 36.594 38.572 77.144 87.034 85.056 37.582 4.945 82.088-7.912 101.868-40.55 13.846-21.758 22.748-44.505 30.66-66.264 12.857-40.55 42.527-68.241 77.143-68.241 13.846 0 29.67 3.956 45.494 4.945 16.814 3.956 29.67-.99 40.55-12.858 25.714-30.66 2.967-69.23-28.681-69.23-16.814 0-34.616 10.879-43.517 24.725-16.813 33.626-57.363 67.253-105.825 46.483-30.659-8.9-68.242-33.626-99.89-33.626-66.264.989-119.67 67.253-104.836 129.56zm8.902-309.56c29.67 54.395 97.912 68.241 150.33 37.582 12.857-6.923 25.714-14.835 40.55-19.78 43.516-14.836 80.11-8.902 107.802 32.637 33.626 50.44 87.033 42.528 87.033-8.901 0-18.791-11.868-32.638-25.714-38.572-18.791-6.923-31.649 1.978-48.462 3.956-38.571 4.946-70.22 0-88.022-36.593-37.583-82.088-58.352-134.506-131.54-129.561-78.131 0-132.527 85.055-91.977 159.231zm291.758 399.56c0 37.583 33.626 68.242 68.242 68.242 36.593 0 74.176-29.67 71.209-70.22 0-40.55-29.67-68.242-71.21-71.209-38.57 0-68.241 32.638-68.241 73.187zm0-565.716c0 40.55 29.67 75.165 68.242 75.165 41.538 0 71.209-31.648 71.209-71.209 2.967-39.56-26.704-72.198-68.242-72.198-37.583 0-71.21 32.637-71.21 68.242zm112.747 281.869c0 81.1 68.242 145.385 148.353 145.385 79.12 2.967 145.385-64.286 145.385-145.385 0-78.132-66.264-145.385-145.385-145.385-82.089 0-144.396 67.253-148.353 145.385z"/></svg>