<svg xmlns="http://www.w3.org/2000/svg" viewBox="0 0 1000 1000"><path d="M921.89,739.67c-33-.77-66.14-.06-99.21-.51-11.23-.15-22.45-1.86-33.7-2.86,5.47-45,10.45-86,15.43-127,.28-2.36.5-4.72.75-7.08,1.81-17,13.49-20.39,27.78-20.45,31.89-.13,64,1.49,95.58-1.54,13.5-1.29,31.63-9,38.1-19.64,28-46.17.45-95.86-52.24-97.56-26-.84-52-.35-77.94-.65-13.91-.16-25.68-2.94-28-20.23C802.49,399,796,355.9,789.12,308.42c12.6-1,25-2.68,37.38-2.92,34.24-.65,68.58.72,102.71-1.41,33.23-2.07,49.22-29.65,37.85-60.79-7.12-19.49-21.36-31.89-40.75-36.12-21.78-4.75-44.16-9-66.35-9.31-177.12-2.48-354.25-4.63-531.38-5.43-64.91-.29-129.88,2.49-194.74,5.65a241,241,0,0,0-65.7,12.24C42.72,219,29.34,246.6,34.48,270.26c5.1,23.46,18.86,33,50.57,34.13,17.69.61,35.43.28,53.14.31,25.64,0,51.27,0,80.26,0-6.51,48.23-12.24,87.89-17.12,127.66-3.34,27.17-4,28.73-33.17,29.54-27.15.76-54.36-.41-81.48.69C44,464.31,33,477.49,33.17,524c.14,43.35,11.49,55.71,53.75,56.92,24.79.71,49.61,0,74.41.35,37.27.53,36.67,1,40.42,37,3.07,29.43,8.67,58.59,12.95,87.9,1.29,8.88,1.92,17.86,3.18,30-15.7,1-28.39,2.35-41.09,2.52-29.52.41-59.06-.23-88.57.44-32.95.75-45.67,9.74-50.24,33.64-5.28,27.63,7.48,52.39,34.74,62.58a163.62,163.62,0,0,0,44.8,9.5c38.85,2.87,77.82,5.58,116.75,5.69q288.78.85,577.56,0c30.62-.09,61.3-3.43,91.8-6.7A124.1,124.1,0,0,0,941,833.69c22.83-10.33,34.87-35.21,30.5-58.68S952.54,740.38,921.89,739.67ZM668.08,616.06C665.53,688,635.93,720.57,565,733.11c-52.09,9.21-103.32,7.34-153.94-7.13s-85-74.69-73.42-126.24c3.89-17.33,17-17.73,30.06-17.81,44.77-.29,89.54-.11,134.32-.11v-.06c44.77,0,89.56-.61,134.32.22C664.79,582.51,669.08,588.13,668.08,616.06ZM667.79,444c-1.72,6.86-11.2,14.82-18.44,16.55-12.33,2.93-25.72,1.57-38.67,1.58q-111.28.12-222.58,0H343.88c-6.24-36.37-3.11-65.26,8.54-93,10.22-24.36,28.79-40.41,53.83-47.74,64.89-19,130.31-19.7,195-.17C648.68,335.55,680.18,394.62,667.79,444Z"/></svg>