<svg xmlns="http://www.w3.org/2000/svg" viewBox="0 0 1000 1000"><path d="M500.496 5C223.572 5 5 229.506 5 500.002c0 276.43 224.506 495.001 495.002 495.001 276.43 0 495.001-224.506 495.001-495.001C995.003 226.539 773.464 5 500.496 5zM147.418 343.243c-4.945-29.67-6.923-60.33 19.78-82.088 30.66-24.726 58.352-17.803 107.803-17.803 31.648 0 51.429 14.836 64.286 42.528 11.868 24.725 11.868 55.385-4.945 79.121-22.748 31.649-46.484 31.649-90 31.649h-33.627c-30.66 0-58.352-25.715-63.297-53.407zm270.99 438.133V322.474c0-55.385 27.692-79.122 80.11-79.122h274.946c30.66 0 54.396 9.89 67.253 37.583 13.846 29.67 11.868 60.33-5.934 88.022-11.868 18.792-30.66 27.693-53.407 27.693H623.134c-35.605 0-49.45 7.912-49.45 44.505v325.386c0 59.34-37.583 100.88-90.99 88.022-39.56-9.89-64.286-33.626-64.286-73.187z"/></svg>