<svg xmlns="http://www.w3.org/2000/svg" width="1000" height="1000">
  <path d="M5.715 497.402C5.715 226.737 231.27 1.182 503.224 5.05c270.665 3.867 491.064 216.532 491.064 492.353S773.89 989.755 496.78 994.911C226.114 1000.067 5.715 768.068 5.715 497.402zm45.111 0c0 248.755 198.488 445.954 445.953 452.398 250.044 6.445 452.398-198.488 452.398-452.398 0-248.754-198.488-447.242-445.953-447.242-253.91 0-452.398 194.621-452.398 447.242zm27.067-12.889c0-86.355 30.933-177.865 95.377-257.776 7.733-5.156 12.889-18.045 25.778-5.156 14.177 10.311 19.333 18.045 5.155 37.378-59.289 70.888-86.355 157.244-86.355 248.754 6.444 85.067 33.51 161.11 86.355 228.133 9.022 10.31 14.178 18.044 0 32.222-12.889 12.888-18.044 12.888-30.933 0-64.444-81.2-95.377-167.555-95.377-283.555zm144.354 310.621c9.023-7.733 18.045-16.755 37.378-3.867 43.822 39.956 101.822 67.022 164.977 81.2 118.577 21.911 222.977-1.289 313.199-77.333 16.755-14.178 36.088-7.733 45.11 9.022 0 3.867-5.155 14.178-9.022 18.045-81.2 64.444-171.421 100.533-277.11 100.533-97.955 0-188.176-32.223-265.51-100.533-9.022-3.867-21.91-14.178-9.022-27.067zm3.867-590.308c-12.889-10.311-12.889-19.333 0-33.511 82.489-61.867 172.71-97.955 270.665-97.955 105.689 0 195.91 36.088 270.666 97.955 10.31 10.31 23.2 14.178 10.31 27.066-10.31 10.311-16.755 23.2-37.377 6.445-48.977-39.956-101.821-68.311-164.977-78.622-118.577-25.778-221.688 0-315.776 78.622-10.311 3.866-19.333 12.889-33.51 0zm95.377 144.355c0-19.334 10.311-21.911 23.2-21.911h54.133c12.89 0 23.2-6.445 23.2-23.2v-27.067c-5.155-23.2 2.578-32.222 21.911-32.222 23.2 0 25.778 9.022 25.778 27.067v34.8c5.155 6.444 10.311 14.177 20.622 14.177 6.444 6.445 16.756-3.866 16.756-14.177v-34.8c-3.867-23.2 9.022-23.2 27.066-23.2 12.889-3.867 23.2 5.155 23.2 23.2 0 12.889-5.156 34.8 2.578 45.11 10.31 12.89 28.355 12.89 45.11 16.756 73.467 23.2 87.645 87.644 37.378 154.666 27.067 9.022 50.267 27.067 54.133 59.289 14.178 58-14.177 112.132-68.31 131.466-16.756 3.866-30.934 7.733-48.978 7.733-19.333 0-21.911 9.022-21.911 27.067v21.91c0 28.356-5.156 32.223-33.511 32.223-12.889 0-16.755-9.023-16.755-21.911V706.2c-3.867-6.444-14.178-14.177-16.756-14.177-10.311-5.156-20.622 3.866-20.622 18.044v36.089c0 18.044-7.733 21.91-25.778 21.91-19.333 0-27.066-9.022-21.91-27.066v-21.91c0-32.223 0-32.223-33.512-32.223h-39.955c-16.756 0-21.911-3.867-21.911-27.067 5.155-21.91 7.733-36.088 34.8-36.088 14.177 5.155 23.2-3.867 23.2-18.045V407.18c0-21.91-12.89-27.066-36.09-27.066-27.066 0-27.066-5.156-27.066-30.933zm148.222 261.643c0 3.867 10.311 12.889 14.178 12.889 32.222 0 63.155-3.867 91.51-12.89 12.89 0 21.911-23.199 21.911-36.088 0-10.31-9.022-27.066-21.91-37.377-15.467-3.867-37.378-7.734-55.423-7.734-58-5.155-50.266-5.155-50.266 47.689zm0-185.6c0 50.267 0 50.267 46.4 50.267 41.244-5.155 63.155-19.333 63.155-46.4 0-27.066-21.911-43.822-63.155-43.822-46.4-5.155-46.4-5.155-46.4 39.956zm320.932 315.777c41.244-48.977 68.31-108.266 82.488-170.132 25.778-114.711-3.866-217.822-77.333-311.91-9.022-10.311-18.044-19.333-5.155-32.222 14.177-14.178 23.2-14.178 32.222 0 67.022 79.91 99.244 171.421 99.244 270.665 0 103.11-36.089 194.622-99.244 270.666-3.867 10.31-14.178 19.333-21.911 10.31-14.178-10.31-23.2-19.333-10.311-37.377z" style="fill:#000;fill-opacity:1;fill-rule:nonzero;stroke:none;"/>
</svg>
