<svg xmlns="http://www.w3.org/2000/svg" width="1000" height="1000">
  <path d="M5 500.496c0 271.98 220.55 494.507 495.496 494.507 271.98 0 494.507-220.55 494.507-495.496C995.003 227.528 773.464 5 500.496 5 226.54 5 5 225.55 5 500.496zm55.385 0c0-258.133 205.715-450.001 443.078-444.067 260.111 6.923 441.1 196.814 441.1 445.056 0 242.309-203.736 443.079-440.11 443.079-235.386 0-444.068-216.595-444.068-444.068zm19.78-21.758L95 489.617c6.923-3.956 10.88-7.912 13.846-10.88-2.967 0-6.923-3.955-13.846-7.911-3.956 0-10.879 7.912-14.835 7.912zm3.956 85.055c3.956 0 6.923 3.956 10.88 5.934l21.758-9.89c-7.912-2.967-10.88-6.923-14.836-6.923zm6.923-166.154 21.759 9.89c3.956 0 5.934-3.956 9.89-3.956-5.934-5.934-9.89-8.901-20.77-12.857-2.967 3.956-6.923 6.923-10.879 6.923zm14.835 246.264c6.924 0 12.858-2.967 16.814-2.967 6.923 0 6.923-3.956 14.835-6.923l-7.912-7.912-23.737 10.88zm12.858-320.44 21.758 13.846 6.923-6.923-19.78-13.847c-4.945 2.968-8.901 2.968-8.901 6.924zm8.9 177.033c0 207.693 168.133 376.815 375.826 376.815s373.848-169.122 377.804-376.815c3.956-208.682-170.11-377.803-377.804-377.803-207.693 0-375.825 169.121-375.825 377.803zm9.89 207.693 2.968 6.923c3.956 0 10.88-3.956 17.802-3.956 3.956-2.967 3.956-6.923 10.88-9.89l-6.924-7.912zm20.77-451.98 20.77 17.803s3.956-3.956 6.923-3.956c-6.923-6.923-12.858-13.846-23.737-28.682 0 8.902-3.956 10.88-3.956 14.836zm24.726 521.211 2.967 4.945c7.912-6.923 18.79-13.846 25.714-17.802-3.956-3.956-3.956-6.923-6.923-6.923-3.956 0-10.88 2.967-18.791 6.923 0 3.956-2.967 6.923-2.967 12.857zm24.725-581.54c6.923 6.923 14.835 14.835 16.813 25.714 4.945-7.912 10.88-10.88 8.901-10.88-3.956-7.911-10.879-14.834-18.791-16.812zm31.648 631.98 6.923 9.89 14.836-23.736c2.967-3.956-3.956-7.912-3.956-7.912-6.923 7.912-14.836 14.835-17.803 21.758zm32.638-681.431c0 3.956 0 7.912 2.967 14.835l13.846 13.846c2.967-2.967 2.967-6.923 2.967-6.923-2.967-10.879-10.879-17.802-16.813-24.725 0 0-2.967 0-2.967 2.967zm30.66 723.958 6.922 6.924c7.913-6.924 10.88-13.847 18.792-24.726-3.956-3.956-7.912-7.912-10.88-3.956-3.956 6.923-7.912 14.835-14.835 21.758zm37.582-300.66V401.595c0-70.22 52.418-124.616 124.616-128.572 24.725-2.967 53.406-2.967 79.12 0 67.254 3.956 118.683 56.374 123.628 127.583v163.187c0 32.638-10.88 63.297-30.66 85.055-6.923 6.923-5.934 9.89 0 14.836 5.934 6.923 10.88 11.868 14.835 15.824 20.77 20.769 23.737 29.67 5.934 41.538-10.879 9.89-22.747 8.901-32.637 0-4.945-5.934-9.89-10.879-13.846-14.835-16.813-19.78-21.759-22.747-30.66-18.791-44.505 19.78-94.945 13.846-141.429 2.967-58.352-13.846-98.901-63.297-98.901-120.66zm.989-457.913c0 6.923 3.956 14.835 6.923 23.736 3.956 0 7.912-1.978 7.912-1.978v-14.835c-3.956-2.967-7.912-6.923-10.88-13.847-3.955 2.967-3.955 2.967-3.955 6.924zm35.604 782.31c0 3.956 3.956 8.901 7.912 10.879l12.858-20.77c-1.978-2.966-6.923-6.922-10.88-6.922-1.978 3.956-5.934 10.879-9.89 16.813zm11.869-326.375c0 67.253 47.472 91.978 159.23 79.121 11.869-1.978 8.902 0 4.946-3.956-26.703-19.78-32.638-25.714-18.791-45.494 10.879-13.847 24.725-11.869 39.56 1.978l17.802 18.79c4.946 5.935 2.968 6.924 9.89.99 11.869-17.802 17.803-36.594 17.803-55.385v-160.22c0-46.484-34.616-83.077-84.066-87.034h-61.32c-49.45 3.957-85.054 39.561-85.054 87.034zM415.44 94.011l10.88 21.759 7.911-10.88-10.879-21.758c-3.956 4.945-7.912 6.923-7.912 10.88zm38.572 814.948c3.956 2.967 3.956 6.923 7.912 13.846 2.967-6.923 6.923-10.879 6.923-17.802l-3.956-12.857c-2.967 1.978-6.923 10.879-10.88 16.813zm38.571-818.904 10.88 14.835c0-3.956 6.922-6.923 6.922-14.835 0-1.978-2.967-10.879-6.923-12.857-1.978 1.978-5.934 5.934-10.879 12.857zm47.473 821.871c0 3.956 2.967 7.912 6.923 10.88 0-2.968 1.978-6.924 5.934-10.88-3.956-8.901-5.934-13.846-5.934-19.78h-6.923zm34.615-807.036c0 2.967 2.967 6.924 6.923 10.88 3.956-7.913 6.923-14.836 14.836-17.803-3.957-7.912-7.913-9.89-10.88-14.835zm34.616 779.344c6.923 7.912 10.879 13.846 14.835 20.769 2.967-1.978 6.923-1.978 6.923-6.923-3.956-5.934-6.923-13.846-14.835-20.77zm39.56-754.618s3.956 3.956 3.956 5.934h6.923c3.957-5.934 5.935-12.857 5.935-19.78 0-3.956-1.978-7.913-1.978-7.913zm34.616 722.97c3.956 6.922 7.912 17.801 14.835 24.725l10.88-6.924c-6.924-6.923-14.836-14.835-21.76-25.714 0 3.956-3.955 7.912-3.955 7.912zm31.648-687.366s4.945 2.967 4.945 6.923l20.77-21.758c-3.956-3.956-7.912-6.923-10.88-6.923zm32.638 644.838c0 3.956 0 10.879 2.967 14.835l14.835 10.879 3.956-3.956c-3.956-10.88-10.88-17.802-14.835-28.681-3.956 2.967-6.923 2.967-6.923 6.923zm27.692-599.343c-3.956 0 0 2.967 2.967 10.88 7.912-10.88 14.835-14.836 18.791-21.76 2.968-3.955-3.956-5.933-3.956-5.933-6.923 1.978-14.835 8.9-17.802 16.813zm24.726 549.892c3.956 7.912 10.879 14.835 16.813 21.758 4.945 0 8.9-4.945 10.879-6.923-10.88-6.923-16.813-14.835-23.736-17.802zm21.758-493.518 5.934 10.879 21.758-21.758-6.923-5.934zm20.77 434.177c6.922 6.923 13.845 9.89 21.757 13.846 2.967 3.956 6.924 0 10.88-3.956-10.88-6.923-18.792-9.89-25.715-17.802-3.956 0-6.923 7.912-6.923 7.912zm17.801-370.88c0 3.956 3.956 6.923 6.923 10.879l20.77-17.802s-6.923-6.924-6.923-3.956zm14.836 303.627 19.78 9.89c3.956 0 7.912-2.967 7.912-2.967l-21.758-16.813c-3.956 1.978-5.934 5.934-5.934 9.89zm8.9-232.418c0 1.978 3.957 5.934 7.913 10.879 6.923-4.945 17.802-8.901 24.725-14.835-3.956 0-6.923-2.967-10.879-2.967-6.923 0-13.846 6.923-21.758 6.923zm7.913 158.242c6.923 3.956 13.846 7.912 20.77 7.912 3.955 0 7.911-3.956 10.878-3.956l-20.769-14.835zm2.967-81.1c7.912 2.968 10.879 6.924 14.835 10.88 6.923-3.956 13.846-7.912 17.802-10.88-3.956 0-10.879-7.911-14.835-7.911-6.923 3.956-9.89 7.912-17.802 7.912z" style="fill:#000;fill-opacity:1;fill-rule:nonzero;stroke:none;"/>
</svg>
