<svg xmlns="http://www.w3.org/2000/svg" width="1000" height="1000">
  <path d="M894.964 513.916H105.036c-25.117 0-47.722 22.606-47.722 48.978 0 25.117 22.605 47.723 47.722 47.723H303.46l134.375 354.149c8.791 20.093 27.63 31.396 47.723 30.14 20.093 1.256 38.931-10.047 47.722-30.14l134.376-354.15h227.308c26.373 0 47.722-22.605 47.722-47.722 0-26.372-21.349-48.978-47.722-48.978zM57.314 378.285c0 25.117 22.605 47.722 47.722 47.722h789.928c26.373 0 47.722-22.605 47.722-47.722 0-26.373-21.349-48.978-47.722-48.978H773.147l97.956-259.96c10.047-23.862-2.512-51.49-26.373-61.537-25.117-8.791-52.745 3.767-61.536 27.628l-111.77 293.869H300.947L189.178 35.438C179.13 11.578 152.758-.982 127.64 7.81c-25.117 10.046-37.675 37.675-27.629 61.536l97.957 259.96h-92.933c-25.117 0-47.722 22.606-47.722 48.979zm349.125 232.332h158.237l-79.118 209.726z" style="fill:#000;fill-opacity:1;fill-rule:nonzero;stroke:none;"/>
</svg>
