<svg xmlns="http://www.w3.org/2000/svg" width="1000" height="1000">
  <path d="M5 500.496c0 89.011 22.747 172.089 67.253 249.232 44.506 74.176 103.846 133.517 178.023 178.022 77.143 44.506 160.22 67.253 250.22 67.253 89.011 0 172.089-22.747 249.232-67.253 74.176-44.505 133.517-103.846 178.022-178.022 44.506-77.143 67.253-160.22 67.253-250.22 0-89.012-22.747-172.09-67.253-249.232-44.505-74.177-103.846-133.517-178.022-178.023C672.585 27.747 589.508 5 500.496 5c-90 0-173.077 22.747-250.22 67.253-74.177 44.506-133.517 103.846-178.023 178.023C27.747 327.419 5 410.496 5 500.496zm236.374 189.89c-10.879-15.823-7.912-32.637 2.967-52.417 19.78-32.637 39.561-65.275 58.352-100.88 12.857-22.747 12.857-45.494 0-68.241-17.802-31.649-35.604-62.308-55.384-91.979-13.847-25.714-16.814-45.494 0-71.209 17.802-26.703 28.68-53.406 45.494-79.12 13.846-22.748 32.638-32.638 55.385-32.638h277.913c29.67 0 49.45 9.89 62.308 35.604l137.473 235.386c12.857 26.703 16.813 49.45 0 72.198-46.484 81.099-94.946 163.187-140.44 244.286-13.846 19.78-29.67 30.66-52.418 30.66h-280.88c-26.703 0-45.495-10.88-59.34-36.594-16.814-28.681-35.605-55.385-51.43-85.055zm163.188-346.154c5.934 13.846 11.868 22.747 15.824 29.67 19.78 28.682 35.605 61.32 52.418 90.99 19.78 26.703 19.78 52.417 2.967 78.132-19.78 29.67-39.56 62.308-59.341 94.945-9.89 15.824-5.934 22.747 10.88 22.747h123.626c19.78 0 36.593-8.9 45.495-28.68 19.78-33.627 36.593-65.276 56.373-97.913 12.858-22.748 12.858-42.528 0-65.275-18.79-33.627-36.593-62.308-56.373-94.946-8.902-19.78-25.715-29.67-48.462-29.67z" style="fill:#000;fill-opacity:1;fill-rule:nonzero;stroke:none;"/>
</svg>
