<?xml version="1.0" encoding="UTF-8"?><svg id="a" xmlns="http://www.w3.org/2000/svg" viewBox="0 0 1000 1000"><path d="M500,0C223.858,0,0,223.858,0,500s223.858,500,500,500,500-223.858,500-500S776.142,0,500,0ZM228.077,332.877c0-11.699,6.221-22.469,16.341-28.318l293.209-169.259c10.12-5.849,22.562-5.849,32.682,0l184.671,106.588c18.569,10.677,21.912,36.117,6.778,51.344l-62.578,62.95c-10.399,10.492-26.647,12.627-39.46,5.199l-89.132-51.437c-10.306-5.942-23.026-5.942-33.332,0L228.077,490.251v-157.375Zm527.553,424.865l-185.414,106.959c-10.12,5.849-22.562,5.849-32.589,0l-293.209-169.259c-10.12-5.849-16.341-16.62-16.341-28.225v-142.798l151.061-87.554v143.076c0,11.699,6.221,22.469,16.341,28.225l142.148,82.076c10.12,5.849,22.562,5.849,32.589,0l89.968-51.901c12.813-7.428,28.968-5.292,39.367,5.199l62.764,62.764c15.227,15.227,11.884,40.667-6.685,51.437Z"/></svg>