<svg xmlns="http://www.w3.org/2000/svg" width="1000" height="1000">
  <path d="M500.496 995.003c275.935 0 494.507-224.506 494.507-495.496C995.003 226.54 773.464 5 500.496 5 223.572 5 5 229.506 5 499.507c0 276.924 224.506 495.496 495.496 495.496zm-232.418-200.77V404.562h100.88c4.944 0 9.89 5.934 11.867 8.9 33.627 55.386 69.231 113.738 103.847 169.122 1.978 3.956 4.945 5.934 5.934 9.89 3.956-3.956 4.945-5.934 4.945-7.912 71.21-122.637 143.407-245.275 213.627-366.924 10.88-18.791 23.737-33.626 47.473-36.593 21.758-2.968 39.56 4.945 53.407 23.736 12.857 17.802 15.824 37.582 4.945 58.352-15.825 29.67-32.638 60.33-51.429 89.011-6.923 13.846-16.813 27.692-24.725 42.528-2.967 5.934-5.934 13.846-5.934 18.79v367.914c2.967 12.857 2.967 12.857-12.858 12.857h-95.934c-6.923 0-10.88-.989-10.88-10.879V629.068c0-1.978 0-3.956-1.977-6.923-1.978 2.967-2.967 4.945-4.945 6.923-23.737 40.55-47.473 82.088-71.21 122.638-2.966 4.945-7.911 7.912-15.824 7.912h-37.582c-7.912 1.978-12.857-2.967-17.802-9.89-21.759-37.583-45.495-74.176-68.242-111.759-.99-.989-3.956-4.945-6.923-10.879v156.264c0 10.88 0 10.88-12.858 10.88z" style="fill:#000;fill-opacity:1;fill-rule:nonzero;stroke:none;"/>
</svg>
