<?xml version="1.0" encoding="UTF-8"?><svg id="a" xmlns="http://www.w3.org/2000/svg" viewBox="0 0 1000 1000"><path d="M500,0C223.858,0,0,223.858,0,500s223.858,500,500,500,500-223.857,500-500S776.142,0,500,0Zm267.686,654.548l-267.686,154.548-267.686-154.548V345.452L500,190.903l267.686,154.548v309.097ZM251.314,356.421v287.157l248.686,143.579,248.686-143.579V356.421l-248.686-143.579-248.686,143.579Zm259.807-48.794h72.9v26h-72.9v43.707h63.39v26h-63.39v138.742c28.773,5.998,50.39,31.497,50.39,62.051,0,36.003-30.015,64.996-66.387,63.321-32.841-1.512-59.339-28.437-60.362-61.297-.979-31.446,20.953-57.945,50.359-64.075v-218.66c0-8.72,7.069-15.789,15.789-15.789h10.211Zm-8.94,259.325c17.338,1.838,31.277,15.776,33.115,33.115,2.522,23.796-17.439,43.757-41.235,41.235-17.338-1.838-31.277-15.776-33.115-33.115-2.522-23.796,17.439-43.757,41.235-41.235Z"/></svg>