<svg xmlns="http://www.w3.org/2000/svg" viewBox="0 0 1000 1000"><path d="M129.974,62.748l-62.801,62.824,69.558,69.497,69.558,69.497-3.875,10.321c-8.501,22.683-13.969,47.876-17.314,80.426-1.213,11.307-1.289,38.465-1.517,328.528l-.228,316.159h178.445v-332.926l72.743-.379c39.944-.228,79.349-.758,87.478-1.213,84.817-4.702,116.941-11.004,155.285-30.198,40.55-20.332,69.937-46.132,94.387-82.928,24.298-36.493,36.448-71.166,42.446-121.772,1.668-14.265,1.896-65.326,.379-79.288-3.344-30.047-8.805-54.853-16.934-76.406l-3.875-10.321,69.558-69.497,69.558-69.497-62.801-62.824L807.157,0l-69.558,69.497-69.558,69.497-7.44-2.73c-26.809-10.018-64.166-14.872-133.724-17.299-21.265-.683-32.496-.683-53.761,0-69.558,2.427-106.916,7.28-133.724,17.299l-7.44,2.73-69.558-69.497L192.851,0l-62.877,62.748Zm398.67,208.826c31.928,4.095,54.375,14.182,74.245,33.293,9.707,9.328,16.153,17.822,21.689,28.515,8.115,15.547,12.361,32.61,13.12,52.707,1.744,45.123-16.305,82.663-50.887,105.945-30.411,20.4-67.116,25.633-180.417,25.633h-44.592l.228-71.515c.303-70.074,.303-71.591,1.972-79.933,5.005-25.254,15.167-44.213,32.913-61.352,20.4-19.642,45.427-30.487,77.582-33.596,4.626-.455,9.404-.986,10.617-1.138,5.005-.683,34.734,.228,43.531,1.441Z"/></svg>