<svg xmlns="http://www.w3.org/2000/svg" viewBox="0 0 1000 1000"><path d="M711.09,453.32a242.127,242.127,0,0,1,4.22,46.43,262.617,262.617,0,0,1-3.75,45,142.939,142.939,0,0,1-11.72,37.51q-7.511,15.94-19.23,25.79a39.791,39.791,0,0,1-26.26,9.38,43,43,0,0,1-26.73-8.91q-11.25-9.37-19.23-24.85-8-15.949-12.19-37.52a241.966,241.966,0,0,1-4.2-46.4,271.32,271.32,0,0,1,3.75-46.43q4.211-21.57,12.19-37,8-15.94,19.23-24.86A41.653,41.653,0,0,1,653.88,382a39.151,39.151,0,0,1,25.79,9.38q11.73,8.91,19.7,24.86Q707.331,431.75,711.09,453.32ZM995,500c0,273.38-221.62,495-495,495S5,773.38,5,500,226.62,5,500,5,995,226.62,995,500ZM201,285.73H319.33C335.2,228,397.24,150.82,416,140H346.73ZM395.06,572h-1.41L300.33,336.09H236.09v332h50.64l-.94-234.47,1.41.01L381.46,668.1h61.9v-332H394.59ZM413.1,860c-46.74-42.71-79.36-102.45-97.39-145.73H201L348.17,860Zm71.43-145.73H343.12C376,792.76,429.46,844.13,452.06,860h32.47ZM486.69,140H453.47c-61.78,44.44-96.92,115.67-106.78,145.73h140Zm28.14,145.73h141.4C623.33,207.24,569.9,155.87,547.29,140H514.83Zm213.14,335v-1.87q8.91-6.109,16.88-18.29A128.5,128.5,0,0,0,759.39,572a174.878,174.878,0,0,0,9.85-35.64A202.742,202.742,0,0,0,773,497.4q0-37.51-8.44-68.46-8.44-31.429-23.92-53.93t-37.51-34.7q-22.05-12.66-49.24-12.66a99.671,99.671,0,0,0-49.71,12.66q-22,12.19-38,34.7-15.48,22.51-23.92,54.4t-8.44,70.34q0,39.39,8,70.81,8.44,30.95,23.92,53,15.461,21.56,37.03,33.28,22,11.25,49.23,11.26H787.06V619.79Zm-75.35,93.54H512.66V860h33.19C607.6,815.56,642.76,744.33,652.62,714.27Zm145.73,0H680C664.17,772,602.12,849.18,583.36,860h69.26Zm0-428.54L651.18,140H586.25c46.75,42.73,79.4,102.45,97.4,145.73Z"/></svg>