<svg xmlns="http://www.w3.org/2000/svg" width="1000" height="1000">
  <path d="M994.997 501.031v4.125c-4.125 6.188-8.25 13.406-14.438 17.531-85.593 93.844-169.124 187.687-254.718 279.468-2.062 2.063-4.125 3.094-6.187 5.157-75.281-77.344-148.5-154.687-224.812-234.093-71.156 79.406-145.406 156.75-218.624 236.155-2.063-4.125-2.063-5.156-4.125-7.219-83.531-89.718-165-179.437-248.53-271.218C17.374 522.687 11.186 515.47 5 507.22v-14.44c4.125-7.218 8.25-15.468 14.437-21.656 83.531-91.78 169.125-182.53 252.656-272.249 0-2.062 2.062-4.125 4.125-6.187 73.218 81.468 145.406 160.874 216.562 242.343 78.374-83.531 151.593-162.937 228.936-244.406 2.063 4.125 4.125 6.188 6.188 8.25 81.468 89.718 162.937 176.343 245.437 266.062 9.28 10.312 17.53 20.625 21.656 36.093zm-855.935 16.5c45.375 47.438 90.75 94.875 135.093 143.344 2.063 1.03 4.125 3.093 6.188 5.156 51.562-55.688 101.062-111.375 152.624-167.062-51.562-55.688-101.062-109.312-154.687-167.062-48.468 51.562-93.843 101.062-139.218 151.593-10.312 9.281-10.312 21.656 0 34.031zm423.842-16.5c53.625 55.688 105.188 107.25 156.75 159.844 12.375-10.313 24.75-18.563 34.031-29.907 31.969-34.03 63.937-68.062 93.843-102.093 17.532-19.594 17.532-39.187 0-57.75-34.03-38.156-68.062-73.218-102.093-111.375-9.281-8.25-19.594-15.468-27.844-25.78-51.562 55.687-105.187 113.436-154.687 167.061z" style="fill:#000;fill-opacity:1;fill-rule:nonzero;stroke:none;"/>
</svg>
