<svg xmlns="http://www.w3.org/2000/svg" viewBox="0 0 1000 1000"><path d="M993.668 230.544h-795.99c-40.02 166.756 66.705 320.174 234.574 356.861 152.305 33.352 322.398-62.256 354.638-194.55-50.028-14.453-87.826-2.224-124.513 43.357-51.139 70.038-155.64 88.937-241.242 56.697-82.267-25.57-135.63-95.608-140.077-172.316h620.339C890.278 511.808 724.633 673.007 528.97 685.236c-102.278 6.67-198.997-21.122-283.487-84.49C125.417 506.25 83.172 379.514 89.843 227.209c-26.682 0-61.145 1.111-83.38 5.558-13.34 204.556 64.48 363.532 235.684 469.145 174.54 104.501 393.548 92.272 558.082-28.905C946.976 564.06 1004.785 415.09 993.67 230.544z"/></svg>