<svg xmlns="http://www.w3.org/2000/svg" width="1000" height="1000">
  <path d="M5 500.496c0 271.98 220.55 494.507 495.496 494.507 271.98 0 494.507-220.55 494.507-495.496C995.003 227.528 773.464 5 500.496 5 226.54 5 5 225.55 5 500.496zm198.792-119.67c0-27.693 9.89-55.385 22.747-81.1 2.967-5.934 7.912-7.912 14.835-5.934l31.649 18.791c11.868 6.924 10.879 9.89 5.934 22.748-5.934 15.824-7.912 33.626-11.868 51.428-1.978 7.913-6.923 12.858-16.813 12.858l-36.594-4.945c-6.923-2.967-9.89-7.913-9.89-13.847zm15.824 55.384c-2.967-2.967 2.967-7.912 6.923-10.879 5.934-.989 10.88 0 15.824 0h7.913c17.802 0 20.769 2.967 22.747 20.77 2.967 12.857 5.934 25.714 10.879 38.57.989 7.913 0 14.836-10.88 15.825-7.911 1.978-17.801 3.956-25.714 7.912-7.912 1.978-12.857 0-14.835-7.912-4.945-21.758-9.89-41.538-12.857-64.286zm15.824-183.956c24.726-35.605 56.374-65.275 92.968-87.034 0-2.967 1.978-2.967 6.923-2.967 1.978 7.912 4.945 15.824 7.912 20.77l16.813 30.659c3.956 7.912 3.956 10.88-3.956 16.813-23.736 16.813-43.517 38.572-59.34 62.308-7.913 11.868-11.869 11.868-20.77 3.956-12.857-7.912-23.736-15.824-36.594-23.736-9.89-7.912-9.89-10.88-3.956-20.77zm37.583 304.616c-6.923-6.923-1.978-12.857 4.945-15.824l26.703-10.88c1.978.99 5.934 3.957 6.923 5.935 10.88 11.868 16.814 23.736 23.737 33.626 1.978 2.967 4.945 7.912 1.978 7.912-6.923 7.912-14.835 15.824-25.715 20.77-.989 1.978-7.912 0-9.89-2.967-10.879-12.858-16.813-26.704-28.681-38.572zm46.484 245.276c8.9-18.792 20.769-33.627 28.681-49.451 4.945-7.912 9.89-9.89 18.791-4.945 16.813 6.923 32.638 12.857 50.44 17.802 10.88 1.978 20.77 1.978 29.67 1.978 14.836.989 16.814 4.945 16.814 18.791-1.978 11.868-1.978 20.77-1.978 30.66-1.978 23.736-7.912 30.66-31.649 23.736l-63.297-17.802c-12.857-3.956-25.714-10.88-38.571-13.846-3.956-1.978-5.934-4.945-8.901-6.923zm41.538-418.354c4.945-4.945 9.89-8.9 15.824-2.967 4.945 4.945 12.858 5.935 8.902 13.847-3.957 9.89-8.902 16.813-12.858 25.714-29.67-10.88-22.747-15.824-11.868-36.594zm7.912 240.33c3.956-2.966 4.945-7.911 9.89-12.856 2.967-.99 6.924-2.967 10.88-.99 10.879 4.946 22.747 10.88 33.626 18.792-12.857 32.637-13.846 32.637-41.539 17.802-2.967-4.945-4.945-4.945-8.9-7.912-5.935-2.967-6.924-9.89-3.957-14.835zm53.407-293.736c-11.868-15.825-8.901-13.847 5.934-28.682 1.978-1.978 6.923-4.945 7.912-7.912 17.803-7.912 30.66-.989 30.66 20.77 0 2.966-2.967 7.912-7.912 8.9-4.945 3.957-11.869 5.935-17.803 11.869-6.923 6.923-12.857 2.967-18.791-4.945zm54.396 460.88c.989-7.912 0-18.79 2.967-25.714 4.945-4.945 17.802-4.945 23.736-4.945 14.835 0 27.693-9.89 42.528-12.857 12.857-2.967 12.857-4.945 19.78 7.912l11.868 30.66c2.967 7.911.99 15.824-7.912 17.802-28.681 5.934-53.407 18.79-80.11 20.769-7.912 0-11.868-4.945-11.868-9.89v-23.737zm7.912-137.473c0-11.868 5.934-16.813 22.747-16.813 14.835 0 15.825 1.978 15.825 12.857 0 14.836-4.946 16.814-20.77 16.814-14.835 0-17.802-3.957-17.802-12.858zm28.681-367.913c-8.9-30.66-5.934-30.66 25.715-36.593l19.78-3.957c18.791 1.978 18.791 1.978 15.824 19.78-3.956 21.76-1.978 21.76-20.77 26.704l-25.713 1.978c-7.913 2.967-12.858-.989-14.836-7.912zm83.078 469.782c-21.759-38.572-18.792-28.682 9.89-54.396l15.824-15.824c6.923-6.923 11.868-7.912 18.791 0 6.923 4.945 13.846 12.857 21.759 20.77 1.978 2.966 1.978 9.89 0 10.878-21.759 10.88-33.627 30.66-49.451 46.484-1.978 1.978-3.956 1.978-4.945 1.978-1.978 0-4.945-1.978-7.912-4.945zm19.78-482.64c2.967-5.933 4.945-14.834 7.912-22.746 1.978-7.913 4.945-12.858 12.857-10.88 9.89 2.967 17.802 2.967 27.693 5.934l32.637 9.89c8.901 6.924 8.901 9.89 3.956 17.803-16.813 33.626-16.813 33.626-51.429 23.736l-23.736-4.945c-9.89-1.978-12.857-7.912-9.89-18.791zm28.681 138.463c-5.934-6.923-9.89-12.857 0-19.78 9.89-5.935 14.835-5.935 21.759 4.945 3.956 5.934 5.934 12.857 10.879 20.769-4.945 2.967-6.923 6.923-10.88 7.912-6.923 2.967-11.868 3.956-14.835-.989zm9.89 217.583c4.945-9.89 9.89-20.77 12.858-30.66 2.967-7.912 4.945-12.857 12.857-10.879l25.714 10.88c2.967 0 3.956 4.945 4.945 7.912-4.945 10.879-7.912 22.747-12.857 32.637-13.846 27.693-9.89 27.693-38.572 9.89-5.934-6.923-7.912-11.868-4.945-19.78zm23.737-134.506c.989-9.89 12.857-6.923 22.747-6.923 7.912-1.978 9.89 1.978 9.89 11.868v18.791c0 20.77-6.923 25.715-26.703 17.803-.99 0-3.956-1.978-3.956-4.945-1.978-12.858-2.967-25.715-1.978-36.594zm31.648-180c8.901-12.858 17.802-25.715 29.67-38.572 4.946-4.945 9.89-4.945 17.803-2.967 20.77 19.78 39.56 39.56 58.352 62.308 3.956 6.923.989 9.89-3.956 12.857-9.89 5.934-23.737 13.846-33.627 20.77-6.923 4.944-12.857 3.955-15.824-.99-14.835-16.813-32.638-31.648-51.429-48.461 0-1.979 0-1.979-.989-4.946zm76.154 82.088c-3.956-6.923-2.967-12.858 3.956-15.825l42.528-19.78c7.912-4.945 13.846-2.967 17.802 6.923 7.912 18.791 14.835 39.56 20.77 60.33 4.945 13.846 4.945 30.66 7.912 44.506 1.978 18.791 0 19.78-17.803 19.78-12.857 0-25.714-.989-39.56-.989-6.923-1.978-11.868-6.923-11.868-11.868-2.967-30.66-8.901-57.363-23.737-83.077z" style="fill:#000;fill-opacity:1;fill-rule:nonzero;stroke:none;"/>
</svg>
