<svg xmlns="http://www.w3.org/2000/svg" width="1000" height="1000">
  <path d="M269.16 995H144.35V501.819c0-6.059 0-6.059-7.27-6.059H14.693V369.737H144.35V5h124.81v363.525c3.636 1.212 106.635 1.212 109.058 0V26.811c0-1.211 1.212-2.423 1.212-2.423 4.847-1.212 123.598-1.212 124.81 0v344.137c6.059 1.212 76.34 1.212 79.976 0v-4.847c1.211-9.694 1.211-19.388 2.423-29.082 2.424-27.87 7.27-53.317 14.541-79.975 6.059-21.812 10.906-41.2 19.388-60.588 4.847-10.906 8.482-20.6 15.753-29.082l14.541-21.811c13.33-15.753 26.659-31.506 43.623-43.623 24.235-19.388 52.105-32.718 81.187-42.412 31.506-9.694 63.011-14.54 95.729-18.176 27.87-3.635 56.952-3.635 84.822-2.423h4.847v124.81h-3.635c-21.811-4.847-42.411-8.482-66.646-8.482-21.812-1.212-44.835 1.211-65.435 7.27-31.505 8.482-56.952 24.235-77.552 50.894-14.54 19.388-27.87 39.987-36.352 60.587-10.906 30.294-16.965 61.8-12.118 92.093 0 2.424 0 3.636 1.212 6.06h121.175v3.634c1.212 38.776 1.212 78.764 0 118.752v3.635H705.39v8.482c-1.212 18.177 1.212 33.93 6.059 50.894 6.058 29.082 18.176 55.74 36.352 79.976 10.906 13.329 25.447 25.446 39.988 35.14 20.6 15.753 44.835 25.447 71.493 29.082 21.812 1.212 46.047 2.424 69.07 1.212 19.388 0 37.564-1.212 56.952-1.212v99.364h-7.27c-4.847 1.212-10.906 1.212-15.753 1.212-29.082 2.423-56.952 2.423-84.823 0-25.446-2.424-49.681-3.636-72.705-9.694-21.811-2.424-44.834-9.694-65.434-19.388-18.176-7.27-35.14-18.177-49.682-31.506-8.482-9.694-19.388-20.6-27.87-31.505-27.87-30.294-47.259-65.435-59.376-105.423-10.906-31.505-16.965-65.434-20.6-100.575v-6.059H504.24v262.95c-2.423 1.212-122.387 1.212-126.022 0V498.183c0-1.212 0-2.424-1.212-2.424H269.16v493.183z" style="fill:#000;fill-opacity:1;fill-rule:nonzero;stroke:none;"/>
</svg>
