<?xml version="1.0" encoding="utf-8"?>
<!-- Generator: Adobe Illustrator 26.0.1, SVG Export Plug-In . SVG Version: 6.00 Build 0)  -->
<svg version="1.1" xmlns="http://www.w3.org/2000/svg" xmlns:xlink="http://www.w3.org/1999/xlink" x="0px" y="0px"
	 viewBox="0 0 1000 1000" style="enable-background:new 0 0 1000 1000;" xml:space="preserve">
<g id="Layer_1">
</g>
<g id="Layer_3">
</g>
<g id="Layer_2">
	<path d="M487,24.6c8.3,0,16.5,0,24.8,0c24.1,5.7,47.6,12.2,67.9,27.9c25.8,20,38.3,48.7,53,76.1c76.2,142.3,152.1,284.7,228.1,427
		c41.7,78,83.7,156,125.3,234c13.2,24.8,16.7,51.5,11.6,78.8C981.3,956.2,876.2,1010,793,949.8c-69.1-50-138.8-99.3-208.4-148.7
		c-58.5-41.4-111.8-40.9-170,0.7C345.9,851,277.2,900,208.4,949.1c-19.8,14.1-41.3,24.2-65.7,25.8c-51.7,3.4-92.4-17.2-120.8-59.8
		C-6.4,872.7-6.5,828,17.3,783.4c66.2-123.7,132.9-247.1,199-370.8c56.9-106.3,113.2-212.9,170-319.2c18.1-33.8,46.5-54.9,83.5-64.4
		C475.6,27.6,481.3,26.1,487,24.6z"/>
</g>
</svg>
