<svg xmlns="http://www.w3.org/2000/svg" viewBox="0 0 1000 1000"><path d="M1000,253.635l-2.032-33.544-9.947,28-55.707,48.861L867.658,305.3,850.21,289.35h0l-.007,0,0,0,.012.008L905.2,211.131l.048-.024v0l70.544-19.544-75.1,3.7-91.636,64.354-83.711-7.02-.03-.021,0,.016-.006,0,.006,0h0v0l-119.65-61.632.455.546,0,0-.45-.54.192.408L537.306,204.9l0,0h0l0,0v0h0L316.777,387.443h-.01l0,0,0,0v0h0l0,0-.006.014L212.853,422.288,169.9,468l0,0-77.7,1.031,0,0v0h0l0,0v-.006L53.88,540.506l0,0-.156,1.2-.027.007.157-1.205L0,556.065l50.745,8.289,1.071-8.208h0l.034-.054-1.078,8.263,47.646-63.212,0,0,71.663,14.4.25,67.221-.022,0L112.843,772.628l-.017.008-22.571,36.41,11.722-11.566L90.256,809.046l58.073-11.935-7.5-37.956,48.511-100.166,93.5-37.665,36.253-60.078,61.132-44.557h0l1.841-.315-1.828.313,123.259,20.7h0L620.815,482.9l-17.859,82.808.008,0h-.006l-55.366,3.2L533.1,640.4l46.618-31.074,0,0,77-33.544,61.452-93.988-2.564.017,0,0,2.554-.017.241-4.191,34.895-2.546,94.033,53.968h0l.011-.006-.006.02,56.294-25.862-5.976-124.51v0L883.12,333.022l68.937-20.262h0l.025-.031-.017.032ZM316.769,387.466v-.012l0,.01Zm.013-.008,0,0,0-.006h0l.01.006Zm580.868-8.8,0,.008,0-.012Z"/></svg>