<svg xmlns="http://www.w3.org/2000/svg" viewBox="0 0 1000 1000"><path d="M238.078,601.01a68.05,68.05,0,1,0,68.05,68.05A68.05,68.05,0,0,0,238.078,601.01Zm0,122.376A54.326,54.326,0,1,1,292.4,669.06,54.326,54.326,0,0,1,238.078,723.386Zm25.733-54.326a25.733,25.733,0,1,1-25.733-25.733A25.733,25.733,0,0,1,263.811,669.06Zm724.075,71.351h0a17.35,17.35,0,0,1-8.106-5.519,152.766,152.766,0,0,0-1.638-20,17.349,17.349,0,0,1,6.731-6.585h0c16.77-9.244,8.768-34.836-10.28-32.88h0a17.4,17.4,0,0,1-8.716-1.319,151.218,151.218,0,0,0-10.458-18.92,17.452,17.452,0,0,1,3.365-7.859h0c11.561-15.265-6.159-35.39-22.765-25.856h0a17.552,17.552,0,0,1-7.715,2.347,152.1,152.1,0,0,0-16.062-12.3l48.08-73.419V498.078L865.4,409.608s-52.538-43.056-196.716-43.056c0-62.9-2.287-77.771-2.287-77.771l37.741-29.736V199.573l-78.605,78.606V359.69l-30.254.482c-6.5-87.156-25.9-141.308-41.126-171.494,19.336-7.8,36.373-38.082,23.035-46.29-126.95-80.059-393.431-42.317-393.431-42.317-1.894,39.77,38.268,59.142,52.154,64.636-14.285,30.117-36.13,94.365-51.9,223.567C62.2,411.879,10.886,499.372,8.69,503.211A17.215,17.215,0,1,0,38.581,520.3,142.4,142.4,0,0,1,51.1,503.1l8.072,5.046c-8.3,7.981-11.34,21.434-2.565,32.849h0a24.378,24.378,0,0,1,5.014,12.338A210.8,210.8,0,0,0,47.5,578.383,24.443,24.443,0,0,1,34.757,580.5h0c-26.7-2.546-37.644,33.377-14.064,46.152h0a24.469,24.469,0,0,1,9.111,8.43,212,212,0,0,0-2.685,29.926,24.477,24.477,0,0,1-10.32,6.628h0c-25.424,8.533-20.814,45.8,5.924,47.883h0a24.5,24.5,0,0,1,11.391,3.764A209.36,209.36,0,0,0,44.1,752.219,24.5,24.5,0,0,1,37.46,762.2h0c-19.755,18.136-.385,50.308,24.887,41.333h0a24.473,24.473,0,0,1,12.172-1.158,212.31,212.31,0,0,0,20.618,21.892,24.464,24.464,0,0,1-1.966,12.261h0c-10.671,24.6,20.11,46.115,39.547,27.638h0a24.435,24.435,0,0,1,11.293-6.185,209.778,209.778,0,0,0,26.694,11.1,24.393,24.393,0,0,1,3.592,12.685h0c.258,26.817,37.128,33.949,47.369,9.164h0a24.316,24.316,0,0,1,8.886-11.008c2.5.088,5.006.148,7.527.148,6.439,0,12.806-.3,19.1-.869a24.3,24.3,0,0,1,9.634,10.9h0c11.143,24.393,47.727,15.912,47-10.9h0a24.216,24.216,0,0,1,4.49-14.937A209.956,209.956,0,0,0,339.9,853.913a24.207,24.207,0,0,1,14.82,6.176h0c20.1,17.751,50.073-4.876,38.506-29.071h0A24.148,24.148,0,0,1,391.7,813.7q7.079-7.515,13.409-15.7a24.148,24.148,0,0,1,17.7-1.085h0c25.584,8.041,43.761-24.82,23.353-42.219h0a24.112,24.112,0,0,1-8.594-16.733q2.906-8.414,5.112-17.137a24.1,24.1,0,0,1,16.644-9.321h0a23.74,23.74,0,0,0,20.589-16.711H605.806a222.936,222.936,0,0,0-4.763,26.6,17.214,17.214,0,1,0,34.2,3.987,193.925,193.925,0,0,1,6.112-30.585h23.183a17.112,17.112,0,0,0,8.1,10.047h0a17.4,17.4,0,0,1,6.312,6.253,152.135,152.135,0,0,0-2.229,20.884,17.35,17.35,0,0,1-7.81,4.886h0c-18.325,5.555-15.819,32.252,3.22,34.3h0a17.335,17.335,0,0,1,9.052,3.694,150.3,150.3,0,0,0,6.013,18.565,17.339,17.339,0,0,1-5.444,8.511h0c-14.482,12.528-1.334,35.9,16.892,30.024h0a17.315,17.315,0,0,1,10.82-.026,152.5,152.5,0,0,0,11.837,13.279,17.287,17.287,0,0,1-1.352,10.944h0c-8.134,17.335,13.383,33.336,27.644,20.557h0a17.216,17.216,0,0,1,10.743-4.456,151.071,151.071,0,0,0,14.836,6.726,17.213,17.213,0,0,1,3.726,11.17h0c-.38,19.145,25.784,25.011,33.615,7.537h0a17.21,17.21,0,0,1,8.445-8.668c3.065.185,6.147.308,9.259.308,2.093,0,4.169-.074,6.241-.158a17.218,17.218,0,0,1,8.293,8.876h0c7.439,17.645,33.728,12.362,33.774-6.787h0a17.216,17.216,0,0,1,4.1-11.237,150.767,150.767,0,0,0,14.548-6.266,17.206,17.206,0,0,1,10.953,4.718h0c13.973,13.093,35.84-2.426,28.093-19.938a17.277,17.277,0,0,1-.984-11.513,152.452,152.452,0,0,0,11.511-12.315,17.287,17.287,0,0,1,11.311.111h0c18.091,6.277,31.755-16.794,17.556-29.641h0A17.316,17.316,0,0,1,968.214,796a150.581,150.581,0,0,0,6.038-17.514,17.35,17.35,0,0,1,9.653-3.86h0C1002.984,773.006,1006.084,746.372,987.886,740.411Zm-713.741-574h83.527c-14.894,32.826-41.765,105.481-53.878,222.489a266.518,266.518,0,0,0-58.281-6.39c-8.826,0-17.582.365-26.22,1.037C238.9,229.719,267.007,177.555,274.145,166.406Zm-36.067,607.3A104.648,104.648,0,1,1,342.726,669.06,104.648,104.648,0,0,1,238.078,773.708ZM568.606,606.157l-50.082.36c-8.263-65.334-76.055-172.822-188.99-210.467,8.057-80.9,23.489-139.577,35.359-175.235,9.065-27.23,17.4-45.295,22-54.4,81.058.275,114.893,8.753,132.962,15.588,11.715,17.393,40.733,70.459,49.054,178.587l-15.169.242-18.614,28.527-26.655-15.148,14.147-19.327a13.165,13.165,0,0,0-21.246-15.552l-45.747,62.5a13.164,13.164,0,1,0,21.245,15.552L492.814,395.6l27.895,15.854-9.859,15.108s6.862,53.966,46.891,86.187c36.6,0,37.742,7.059,37.742,7.059Zm259.6,218.924A87.393,87.393,0,1,1,915.6,737.689,87.392,87.392,0,0,1,828.21,825.081Zm23.546-87.392a23.546,23.546,0,1,1-23.546-23.547A23.545,23.545,0,0,1,851.756,737.689Z"/></svg>