<svg xmlns="http://www.w3.org/2000/svg" viewBox="0 0 1000 1000"><path d="M500.496 5c272.968 0 494.507 221.54 494.507 495.002 0 270.495-218.572 495.001-495.001 495.001C229.506 995.003 5 776.431 5 500.002 5 229.506 223.572 5 500.496 5zM103.901 686.43c0 1.979 0 1.979 2.967 3.957h64.286c11.869 0 15.825 2.967 22.748 11.868 113.736 180 359.012 227.473 527.144 99.89 128.572-95.934 176.045-225.495 143.407-381.759C826.871 231.484 636.98 103.901 445.111 135.55 217.638 175.11 80.165 407.529 156.32 624.123c.99 5.934.99 11.868-3.956 18.791-15.824 12.857-32.637 28.682-48.462 43.517zm97.913-116.703C164.23 407.53 266.1 245.33 425.33 201.814c172.09-46.484 350.112 63.296 384.728 238.352 30.66 156.265-59.341 306.595-208.682 358.023-138.462 49.451-298.683-15.824-368.903-142.418-3.956-9.89 0-12.857 4.945-17.802 63.297-63.297 125.605-123.627 187.913-185.935 21.758-21.758 45.495-46.483 67.253-69.23 1.978 0 2.967-1.979 4.945-3.957v202.748c5.934-1.978 7.912-1.978 7.912-4.945 18.792-14.835 33.627-32.637 49.451-47.472 3.956-4.946 6.923-9.89 6.923-14.836v-280.88C443.133 349.177 324.452 467.86 206.76 585.552c-1.978-5.935-4.945-10.88-4.945-15.825zm221.54 196.814c1.977-1.978 3.955-5.934 6.922-7.912 71.21-70.22 142.418-142.418 212.638-212.638 45.495-44.506 88.022-88.022 130.55-131.54 3.956-2.966 7.912-8.9 5.934-13.845-5.934-17.803-15.824-32.638-21.758-51.429-1.978 0-4.945 0-4.945-2.967-90 90.99-180 182.968-270.001 270V414.453c-19.78 19.78-37.583 35.604-52.418 53.407-4.945 3.956-6.923 10.879-6.923 16.813v270.99zm401.539-483.628c7.912 16.813 19.78 32.637 26.703 47.473 17.803-16.814 33.627-32.638 49.451-47.473z"/></svg>