<svg xmlns="http://www.w3.org/2000/svg" width="1000" height="1000">
  <path d="M500.496 5C223.572 5 5 229.506 5 500.002c0 276.43 224.506 495.001 495.002 495.001 276.43 0 495.001-224.506 495.001-495.001C995.003 226.539 773.464 5 500.496 5zM372.913 869.398c158.243-28.68 260.111-115.714 308.573-270.99H436.21c-13.846 0-25.714-2.966-25.714-14.835 0-7.912 10.879-16.813 27.692-16.813h232.419c10.879 0 19.78-1.978 19.78-17.802-2.967-25.715-2.967-53.407-2.967-79.121 0-11.868-1.978-14.836-14.835-14.836H438.188c-19.78 0-27.692-2.967-27.692-12.857 0-15.824 5.934-17.802 27.692-17.802h240.33c-16.813-75.165-56.373-135.495-111.758-182.968-56.374-48.461-122.638-77.143-193.847-89.01 185.935 0 324.397 85.054 374.837 254.176 5.934 13.846 10.879 17.802 24.725 17.802h70.22c35.605 0 35.605 30.66-4.945 30.66h-76.154V566.76h81.1c36.593 0 32.637 31.649 0 31.649H766.54c-10.88 0-12.857 2.967-15.824 10.879-44.506 135.495-131.54 220.55-269.012 254.176-37.583 8.902-71.21 8.902-108.792 5.934z" style="fill:#000;fill-opacity:1;fill-rule:nonzero;stroke:none;"/>
</svg>
