<svg xmlns="http://www.w3.org/2000/svg" viewBox="0 0 1000 1000"><path d="M258.845 838.249c-34.269 0-54.576-13.962-63.46-46.962C170 712.595 148.422 636.441 123.037 557.75 83.692 429.557 46.884 301.365 6.27 174.443c0-5.077-1.27-7.616-1.27-11.423 5.077 0 10.154-1.27 15.23-1.27h130.731c12.692 0 16.5 2.539 21.577 15.231 30.461 105.346 62.192 211.961 92.654 319.845 11.423 30.462 21.576 62.193 30.461 97.731 16.5-34.27 27.923-64.73 41.885-95.192 16.5-35.538 30.461-69.808 45.692-102.807 21.577-50.77 62.192-77.423 118.038-77.423 53.307 1.269 92.653 29.192 112.961 78.692 27.923 63.461 53.308 129.46 82.5 196.73 11.423-33 19.038-60.923 27.923-88.846 1.27-3.808 8.885-7.615 12.692-7.615 48.23-1.27 97.73-1.27 148.5-1.27 1.269 0 2.538 1.27 5.077 2.539-11.423 34.27-21.577 69.807-31.731 106.615-20.308 62.192-39.346 125.654-59.654 187.846-8.884 30.461-29.192 44.423-59.653 44.423h-83.77c-27.922 0-46.96-13.962-57.115-40.616-30.461-71.076-59.653-144.692-90.115-218.307-3.807-7.615-6.346-15.23-11.423-25.384-17.769 45.692-36.807 88.846-53.307 132-15.231 39.345-30.462 77.422-45.693 116.768-10.153 22.846-29.192 35.539-55.846 35.539zm493.73-423.922h17.77c43.153 0 87.576-1.27 126.922 0 16.5 0 21.577-3.808 25.384-17.77 13.962-48.23 29.193-95.192 44.423-143.422 10.154-30.462 19.039-59.654 27.923-91.385H843.96c-11.423 0-16.5 3.808-19.038 13.962-15.23 49.5-30.462 99-44.423 147.23-10.154 29.193-17.77 59.654-27.923 91.385z"/></svg>