<svg xmlns="http://www.w3.org/2000/svg" viewBox="0 0 1000 1000"><path d="m908.181 815.72-83.44-72.164 66.527-204.09h-1.128c9.02 0 18.041-3.382 27.062-12.402 6.765-6.766 11.275-16.914 11.275-28.19 0-11.275-4.51-19.168-11.275-27.061-9.02-9.02-18.041-12.403-27.062-12.403h1.128l-58.634-175.9c3.383-3.384 9.02-7.894 10.148-12.404 14.659-27.062-5.638-57.506-33.827-57.506-7.893 0-13.53 2.255-22.551 6.765L634.182 109.864c11.276-18.041-10.148-50.74-36.082-50.74-15.786 0-32.7 5.637-39.465 25.933h-184.92c-2.256-5.637-5.638-11.275-12.404-18.04-6.765-6.766-15.786-7.894-23.679-7.894-21.424 0-39.465 19.169-39.465 39.465 0 3.383 1.128 6.766 1.128 6.766l1.128 3.382-153.35 111.63c-2.255-2.256-6.765-4.51-9.02-5.638-4.51 0-9.02-1.128-12.403-1.128-11.276 0-20.297 2.255-27.062 11.276-10.148 6.765-13.53 16.913-13.53 27.061 0 6.766 1.127 13.531 5.637 19.169 2.255 5.638 7.893 11.276 13.53 13.53l2.256 1.128h-5.638L43.337 459.41c-9.02 0-19.168 3.382-27.061 11.275C8.383 478.578 5 486.471 5 497.747c0 12.403 4.51 21.424 11.276 28.189 7.893 9.02 18.04 12.403 27.061 12.403l58.634 177.028c-7.893 4.51-16.914 16.914-16.914 32.7 0 19.168 19.169 38.337 40.593 38.337 3.382 0 7.893-1.128 12.403-2.255l9.02-3.383 153.35 109.374-1.128 3.383c0 1.127-1.128 4.51-1.128 7.893 0 20.296 18.041 39.465 39.465 39.465 16.914 0 31.572-11.276 36.082-25.934h184.921c3.383 6.765 7.893 13.53 12.404 16.913 6.765 5.638 15.786 9.02 27.061 9.02 20.296 0 38.337-20.296 38.337-39.464v-1.128l-1.127-6.765-1.128-3.383 174.773-126.287 83.44 71.036c-11.276 11.276-10.148 43.975 9.02 63.144 20.297 20.296 50.741 23.679 76.675 0 11.276-10.148 16.914-23.679 16.914-38.337 0-13.531-5.638-27.062-16.914-37.21-11.275-12.403-23.679-16.913-37.21-16.913-12.403 0-23.678 3.382-32.699 10.148zM68.144 530.447l7.893-6.765c3.382-3.383 4.51-7.893 5.638-12.403h23.678c2.256 5.637 4.51 11.275 7.893 14.658 3.383 4.51 10.149 9.02 15.786 12.403h-2.255l-11.275 142.074zm0-62.016 47.358-148.839 11.275 143.201c-3.382 2.255-10.148 6.766-13.53 10.148-3.383 4.51-5.638 10.148-7.894 13.531H81.675c-1.128-3.383-2.256-6.765-5.638-10.148-2.255-3.383-5.638-5.638-7.893-7.893zm71.036 243.555 13.531-165.753 64.272 122.905c-3.383 3.383-6.766 5.638-9.021 10.148-2.255 5.638-2.255 11.276-2.255 15.786v4.51l-52.996 21.424c-1.127-2.255-2.255-3.383-4.51-5.638zm0-425.093 9.021-3.383c2.255-1.127 3.383-3.383 5.638-5.638l51.868 21.424v4.51c0 4.51 0 11.276 2.255 16.914 2.255 2.255 5.638 5.638 9.02 10.148L152.26 454.899zm22.552 472.45 1.127-3.382c0-1.128 1.128-3.383 1.128-6.766v-4.51l52.996-22.551c2.255 4.51 5.637 5.638 10.148 7.893 5.638 3.382 12.403 4.51 18.04 4.51h2.256l62.016 130.798zm0-518.68L309.443 134.67l-62.016 130.798h-1.128c-5.638 0-13.53 1.128-19.168 3.383-3.383 2.255-7.893 4.51-9.02 7.893l-54.124-22.552v-3.382c0-3.383-1.128-6.766-1.128-7.893zm9.02 285.274 5.638-5.638 2.255-9.02h121.778c0 7.893 2.255 13.53 10.148 15.786L247.427 657.86h-7.893zm0-52.996 68.782-130.797 6.765 1.127 3.383-1.127 60.889 129.67c-4.51 2.255-10.148 10.148-10.148 14.658H178.645l-2.255-6.765zm101.481 252.575 3.383-7.893 3.383-4.51 149.966 19.169c0 2.255 1.128 4.51 2.255 6.765 1.128 2.255 2.255 4.51 4.51 6.766l-13.53 16.913-74.42 101.481-2.255-2.255H334.25zm0-57.506 60.889-129.67c1.128 1.128 10.148 1.128 11.276 0l92.46 158.987-4.51 9.02-148.839-19.168c0-3.383-3.383-6.765-5.638-11.276-1.127-3.382-4.51-5.637-5.638-7.893zm0-336.014c1.128-2.256 4.51-6.766 5.638-10.149 2.255-2.255 5.638-5.637 5.638-9.02l148.839-20.296 4.51 7.893-92.46 160.114c-2.256-2.255-7.893-2.255-11.276 0zm0-56.379 62.017-138.69h3.382c2.255 0 4.51 0 7.893-1.128l2.255-1.128 87.95 118.395c-2.255 1.127-3.382 3.383-4.51 7.893-1.127 1.127-1.127 3.383-2.255 5.638L279 286.892l-3.383-6.766zm94.716 249.192c1.128-1.127 6.765-10.148 6.765-13.53h184.921c0 3.382 1.128 5.638 4.51 7.893l3.383 5.637-91.333 161.243-9.02-1.128-4.51 1.128v2.255zm0-50.74 93.588-161.242 5.638 1.127 9.02-1.127 91.333 161.242-3.382 6.765c-3.383 2.255-4.51 3.383-4.51 5.638H373.713c2.255-1.127-3.382-11.275-6.765-12.403zm2.255 404.796L454.9 760.47c2.255 1.128 3.383 1.128 5.638 1.128 2.255 1.127 9.02 1.127 13.53 0 2.256 0 2.256 0 4.511-1.128l85.695 118.394c-1.127 2.256-2.255 3.383-2.255 4.51l-3.383 5.639h-184.92l-2.256-5.638c0-1.128-1.127-3.383-2.255-4.51zm0-758.852 4.51-9.02h184.921c0 4.51 4.51 9.02 5.638 9.02l-87.95 118.394-18.041 2.256zm127.415 180.41 2.255-4.51 3.383-2.255 147.711 19.169c1.128 3.383 1.128 6.765 3.383 9.02 4.51 4.51 6.765 7.893 9.02 10.149l-62.016 128.542-3.382-1.127-6.766 1.127h-1.127zm1.128 398.032L589.08 538.34l6.765 1.128 3.495-.902 63.031 129.444c-2.255 2.256-5.637 4.51-6.765 7.893-3.383 4.51-4.51 7.893-4.51 11.276l-148.839 19.169-1.128-4.51h-1.127zm1.127 47.358 3.383-5.638c1.128-3.383 1.128-5.638 2.255-7.893l148.839-19.169 4.51 4.51 4.51 6.766-63.143 135.308-2.255 2.255h-7.893l-3.383 2.255zm1.128-492.747 85.695-118.395 3.383 1.128c2.255 1.127 6.765 2.255 11.275 0l62.016 139.818-4.51 4.51-4.51 6.766-148.839-20.296c1.128-4.51-1.127-12.404-4.51-13.531zm124.032 273.999 4.51-5.638c3.383-2.255 4.51-5.638 5.638-10.148h122.905l2.255 9.02c1.128 2.255 2.255 3.383 4.51 4.51l-69.909 133.053h-7.893zm0-55.251 60.889-129.67 4.51 1.127 3.383-1.127h2.255l68.782 129.67c-2.256 2.255-4.51 5.638-4.51 7.893l-3.383 6.765H634.182zm3.383-336.015 144.328 104.864-2.255 3.382v10.148l-51.868 22.552c-3.382-2.255-6.765-5.638-11.275-7.893-4.51-2.255-12.404-3.383-16.914-3.383h-3.383zm.116 728.54 58.517-129.802h3.383c6.765 0 21.424-2.255 30.444-10.148l63.144 27.061zm90.09-195.201L783.02 547.36l12.403 180.41-67.654-28.189 1.128-3.382v-1.128c0-5.638-1.128-10.148-3.383-14.658-3.382-5.638-6.765-7.893-7.893-11.276zm0-338.27c2.254-4.51 4.51-7.893 7.892-10.148 2.255-5.638 3.383-12.403 3.383-16.914v-1.127l-1.128-3.383 52.996-21.424c2.255 4.51 6.765 10.148 12.403 10.148l-11.275 165.753zm90.205 204.09c4.51-2.256 10.148-5.638 13.53-10.149 4.51-2.255 5.638-6.765 6.766-13.53h24.806c1.128 4.51 1.128 9.02 4.51 12.403 2.256 2.255 5.638 4.51 9.021 6.765l-48.485 149.967zm0-73.292 10.148-142.074 48.485 149.967c-3.383 1.127-6.765 3.382-9.02 6.765-2.256 3.383-3.383 7.893-4.51 10.148h-23.68c-1.127-5.638-2.255-10.148-6.765-14.658-5.638-5.638-10.148-7.893-14.658-10.148z"/></svg>