<svg xmlns="http://www.w3.org/2000/svg" viewBox="0 0 1000 1000"><path d="M468.297 664.217c8.182 0 20.455-5.113 28.637-9.204v-8.182c-28.637 3.068-58.296 3.068-86.933 8.182-105.34 20.454-207.614 56.25-315 94.091-28.637 8.182-57.274 8.182-90.001 12.273v-4.091c12.273-11.25 20.455-20.455 37.841-31.705-9.205 0-17.386 0-25.568-5.114 98.182-50.113 192.273-97.159 290.455-146.25-23.522 0-40.909-5.114-57.273-5.114v-4.09c40.91-25.569 77.728-49.092 118.637-72.614 86.932-54.205 176.933-110.455 265.91-160.57 57.273-28.636 103.296-66.477 151.364-98.181 54.205-40.91 95.114-43.978 147.274 0 20.454 17.386 37.84 31.704 61.364 49.09-11.25 3.069-20.455 8.183-28.637 12.273-56.25 16.364-76.705 57.273-98.182 107.387-7.16 28.637-20.455 55.228-35.796 84.887-17.386 31.705-46.023 52.16-78.75 69.546-35.796 20.454-77.728 40.909-118.637 61.363-40.909 25.569-45 69.546-20.454 102.273 20.454 28.637 46.022 52.16 82.84 66.478 7.16 0 15.342 8.182 24.546 11.25h-119.66c5.114-3.068 12.274-11.25 20.455-20.455-15.34-11.25-28.636-25.568-43.977-36.818-20.455-12.273-32.727-32.727-40.91-53.182 0-12.273-8.181-20.455-20.454-17.386h-49.09z"/></svg>