<svg xmlns="http://www.w3.org/2000/svg" viewBox="0 0 1000 1000"><path d="M500,0C223.858,0,0,223.858,0,500s223.858,500,500,500,500-223.858,500-500S776.142,0,500,0ZM379.365,784.4a30.894,30.894,0,1,1,30.7-30.893A30.8,30.8,0,0,1,379.365,784.4ZM563.724,444.36a93.418,93.418,0,0,0-28.864-19.711,85.981,85.981,0,0,0-35.1-7.3,87.214,87.214,0,0,0-35.25,7.151A92.591,92.591,0,0,0,416.06,473.41a88.945,88.945,0,0,0-7.106,35.327V652.093a29.688,29.688,0,0,1-8.85,21.751,29.309,29.309,0,0,1-21.615,8.9,28.976,28.976,0,0,1-21.322-8.9,29.7,29.7,0,0,1-8.847-21.751V246.258a29.7,29.7,0,0,1,8.847-21.754,29.987,29.987,0,0,1,42.649,0,30.747,30.747,0,0,1,9.138,21.754V386.4q38.582-30.078,90.8-30.074A143.067,143.067,0,0,1,557.635,368.3a158.491,158.491,0,0,1,48.3,32.554,153.66,153.66,0,0,1,33.07,48.466,146.691,146.691,0,0,1,12.187,59.417V652.093a30.741,30.741,0,0,1-9.138,21.751,29.987,29.987,0,0,1-42.649,0,29.7,29.7,0,0,1-8.846-21.751V508.737a87.5,87.5,0,0,0-7.255-35.33A94,94,0,0,0,563.724,444.36ZM620.983,784.4a30.894,30.894,0,1,1,30.7-30.893A30.8,30.8,0,0,1,620.983,784.4Z"/></svg>