<svg xmlns="http://www.w3.org/2000/svg" width="1000" height="1000">
  <path d="M484.932 886.585C319.158 622.275 171.932 379.991 5 107.565c23.185 0 30.14-8.114 45.21-8.114h210.985c28.982 0 44.052 8.115 61.44 30.14C426.97 303.48 533.62 469.254 637.954 636.187c10.434 15.07 26.663 37.096 10.434 53.326-47.53 68.396-84.626 127.518-128.678 197.073-9.274 16.23-18.548 20.867-34.777 0zm122.88-779.02c22.026-8.114 40.575-8.114 46.37-8.114H955.59c17.389 0 24.344 8.115 39.415 8.115 0 13.91-6.956 30.14-15.07 37.096-51.008 92.74-113.607 197.073-175.048 280.54-68.397-106.652-126.36-210.985-197.074-317.636z" style="fill:#000;fill-opacity:1;fill-rule:nonzero;stroke:none;"/>
</svg>
