<svg xmlns="http://www.w3.org/2000/svg" width="1000" height="1000">
  <path d="M492.525 61.916C467.229 83.763 90.087 735.712 86.637 762.158c31.046 0 57.492 4.6 88.537 0 18.397 0 34.494-8.049 48.292-17.247 27.596-14.948 51.742-36.794 77.038-52.892 121.882-98.885 252.961-194.32 381.741-297.804 21.847-13.798 21.847-13.798 4.6-41.394-48.293-74.738-102.334-150.626-151.777-227.664-11.498-19.547-25.296-41.394-42.543-63.24zM5 243.588c0 127.63 5.75 261.01 27.596 441.532 3.45 0 8.048-5.749 8.048-5.749C95.836 589.685 144.13 501.149 198.17 412.612c6.9-10.348 6.9-24.146-4.6-32.195-21.846-16.097-49.441-34.495-71.288-49.442C86.637 305.679 40.644 273.484 5 243.588zm27.596 666.897c3.45 17.248 8.048 27.596 25.296 27.596h858.917c34.495 0 34.495-6.899 41.394-31.045v-48.293c0-18.397-17.248-27.595-49.443-27.595-228.814 0-849.718 1.15-850.868 0-21.847 0-25.296 10.348-25.296 33.344zm303.553-148.327c8.049 4.6 8.049 4.6 12.648 4.6h581.81c16.098 0 27.596-12.649 27.596-26.446 0-55.192 3.45-108.084 6.899-155.226 12.648-91.986 18.397-182.822 29.895-275.958v-54.041C773.081 429.86 553.465 593.134 336.15 762.158z" style="fill:#000;fill-opacity:1;fill-rule:nonzero;stroke:none;"/>
</svg>
