<svg xmlns="http://www.w3.org/2000/svg" width="1000" height="1000">
  <path d="M500.496 995.003c275.935 0 494.507-224.506 494.507-495.496C995.003 226.54 773.464 5 500.496 5 223.572 5 5 229.506 5 499.507c0 276.924 224.506 495.496 495.496 495.496zM279.946 738.85V626.1c0-2.967 0-2.967 2.967-2.967h169.121c2.968 0 3.957.989 3.957 2.967v51.429c0 4.945 0 4.945 3.956 4.945h107.802c2.967 0 3.956-.99 3.956-4.945V567.75c0-3.957 0-3.957-3.956-3.957-75.165 0-150.33 0-225.495.99-2.967 0-5.934-1.979-6.923-1.979-17.802-19.78-35.605-37.582-54.396-54.396-.989-1.978-.989-3.956-.989-5.934V275.001c0-1.978 0-3.956.989-4.945 18.791-18.791 36.594-36.594 54.396-53.407.989-1.978.989-3.956 2.967-4.945 0-.989.989-.989 1.978-.989H687.42c3.956 0 4.945.989 6.923 2.967 17.802 17.802 36.593 35.605 53.407 54.396 1.978.989 2.967 2.967 2.967 4.945V384.78c0 2.968 0 2.968-4.945 2.968H576.65c-2.967 0-2.967 0-2.967-2.968v-52.417c0-2.967 0-2.967-3.956-2.967h-109.78c-3.956 0-3.956 0-3.956 2.967v109.78c0 4.945 0 4.945 4.945 4.945h224.506c2.967 0 5.934 0 6.923 1.978 17.802 18.792 35.604 35.605 53.407 53.407 1.978 1.978 1.978 3.956 1.978 6.923V737.86c0 2.967 0 3.956-1.978 5.934-17.803 17.802-35.605 36.593-54.396 53.406-.99 1.978-2.967 2.967-5.934 2.967H341.265c-1.978 0-3.956-.989-4.945-2.967-18.791-16.813-36.594-35.604-55.385-53.406-.989-1.978-.989-2.967-.989-4.945z" style="fill:#000;fill-opacity:1;fill-rule:nonzero;stroke:none;"/>
</svg>
