<svg xmlns="http://www.w3.org/2000/svg" viewBox="0 0 1000 1000"><path d="M5 500.002v.395-.395c.099-89.506 22.55-172.682 67.253-249.726 44.209-74.473 103.55-133.814 178.023-178.023C327.419 27.45 410.694 5 500.002 5c89.308 0 172.583 22.45 249.726 67.253C824.2 116.462 883.54 175.803 927.75 250.276c44.803 77.143 67.253 160.418 67.253 249.726 0 89.308-22.45 172.583-67.253 249.726C883.541 824.2 824.2 883.54 749.728 927.75c-77.143 44.803-160.418 67.253-249.726 67.253-89.308 0-172.583-22.45-249.726-67.253-74.473-44.209-133.814-103.55-178.023-178.022C27.55 672.684 5.099 589.508 5 500.002zm272.968 8.406c2.967 31.649 16.813 56.374 43.517 71.21 49.45 30.659 116.703 8.9 137.473-47.473 2.967-11.869 2.967-25.715 2.967-39.561 0-25.714 27.692-38.572 50.44-27.692 2.966.989 5.933 1.978 8.9 3.956 41.54 20.769 89.012 9.89 116.704-26.704 27.693-35.604 23.737-86.044-6.923-117.692-30.66-31.649-80.11-37.583-116.704-13.847-30.66 19.78-43.516 48.462-43.516 84.067.989 7.912-2.967 17.802-8.901 23.736-12.858 12.857-27.693 14.835-44.506 5.934-29.67-17.802-60.33-17.802-90.99-1.978-28.68 14.835-45.494 40.55-48.461 74.176zm6.923 185.935c-25.714 49.45 3.956 109.78 61.319 126.594 53.407 18.791 115.715-28.682 115.715-89.012 0-8.9 0-17.802 4.945-26.703 11.868-12.857 28.681-19.78 45.494-10.88 13.847 4.946 24.726 10.88 38.572 13.847 28.681 2.967 53.407-3.956 75.165-20.77 19.78-18.79 29.67-38.57 32.637-66.263 0-4.945-2.967-11.868 0-18.791 2.967-22.748 29.67-35.605 50.44-22.748 10.88 6.923 23.737 10.88 35.605 12.857 28.681 3.957 54.395-3.956 73.187-21.758 28.681-21.758 34.615-46.484 32.637-80.11-4.945-44.506-46.483-81.1-93.956-78.132-38.572 0-73.187 23.736-86.044 58.352-3.956 12.857-4.945 25.714-4.945 39.56 0 11.868-4.946 21.759-15.825 27.693-11.868 8.9-23.736 8.9-37.582 0-15.824-7.912-30.66-11.868-49.45-11.868-35.605 1.978-64.287 16.813-80.111 47.472-10.88 16.813-11.868 32.638-11.868 50.44 0 5.934 0 9.89-2.967 14.835-7.912 19.78-30.66 25.715-50.44 15.824-48.462-30.66-108.792-11.868-132.528 39.56zm5.934-471.76c-23.736 41.539-16.813 84.066 10.88 111.759 30.659 30.66 78.131 38.571 115.714 17.802 4.945-2.967 7.912-4.945 14.835-2.967 7.912.989 16.813-8.901 11.868-14.835-1.978-5.934-.989-11.868 1.978-17.803 1.978-5.934 5.934-11.868 7.912-17.802 1.979-5.934 5.935-11.868 12.858-14.835 5.934-.989 6.923-5.934 6.923-11.868-.99-5.934-1.978-10.88-7.912-11.868-5.934 0-6.923-2.967-9.89-7.912-1.978-8.902-7.913-18.792-11.869-29.67-.989-3.957-.989-3.957 0-9.891 4.945-5.934 3.956-11.868-.989-15.824-4.945-3.956-8.9-5.934-17.802-1.978-1.978 1.978-4.945 1.978-6.923 1.978-9.89-3.956-29.67-10.88-37.583-14.835-3.956-15.825-11.868-14.836-18.79-13.847-6.924 0-5.935 8.901-7.913 13.847 0 2.967-17.802 8.9-33.626 16.813-1.978 0-2.967 2.967-7.913 0-7.912-3.956-11.868-3.956-17.802 0-11.868 9.89 0 18.791-3.956 23.736zm18.791 0c-2.967 3.956 2.967 16.813 11.869 13.846 2.967-2.967 6.923-5.934 10.879-10.879.989-.989.989-3.956 0-6.923-4.945-3.956-13.846-4.945-22.748 3.956zm8.902-15.824c5.934 3.956 13.846 5.934 19.78 0 .989-1.978 3.956-3.956 5.934-3.956 9.89 1.978 9.89-5.934 12.857-9.89-6.923 0-32.637 9.89-38.571 13.846zm38.571 0c0 5.934 0 11.868 1.978 18.791 0 1.978 2.967 2.967 3.956 2.967 1.978 1.978 2.967 1.978 5.934 1.978 11.868-2.967 13.846-12.857 11.868-17.802 0-5.934-5.934-17.802-8.9-17.802-2.968 0-6.924 0-8.902 1.978-2.967 1.978-5.934 5.934-5.934 9.89zm22.747-15.824c2.967 3.956 13.847 9.89 19.78 13.846 8.902 5.934 12.858 1.978 18.792 0-11.868-5.934-24.725-9.89-38.572-15.824zm2.967 54.395c.99 6.924 3.957 11.869 7.913 13.847 3.956 1.978 13.846.989 19.78.989 8.901-3.956-1.978-38.572-16.813-31.649h-.99c-11.868 3.956-9.89 4.945-9.89 16.813zm23.737-19.78c3.956 2.967 5.934 5.934 9.89 8.901 1.978 2.967 6.923 2.967 8.901-.989 2.967-2.967 2.967-7.912 3.956-11.868 0-4.945-7.912-8.901-17.802-5.934-4.945.989-6.923 5.934-4.945 9.89zm5.934 49.45c0 5.935 3.956 8.902 7.912 8.902h10.88c3.955.989 6.922 0 10.878-.989 5.934-4.945 6.923-9.89 5.934-13.846-3.956-3.956-10.879-8.901-15.824-7.912-2.967 1.978-8.901 1.978-11.868 1.978-3.956-1.978-7.912 1.978-7.912 5.934zm22.747 47.474h1.978c4.945-11.869 10.88-25.715 16.813-37.583h-1.978c-7.912 3.956-13.846 4.945-11.868 11.868 0 1.978-1.978 4.945-2.967 6.923-5.934 3.956-4.945 11.868-1.978 18.792zm1.978-79.122c.99 1.978.99 4.945.99 5.935 1.977 7.912 4.944 10.879 15.823 11.868-5.934-12.858-11.868-26.704-16.813-39.56-2.967 6.922-7.912 14.834 0 21.757z"/></svg>