<svg xmlns="http://www.w3.org/2000/svg" viewBox="0 0 1000 1000"><path d="M987.973,512.3C986.9,609.637,952.678,709.252,883.48,796.44c-44.472,56.035-99.044,100.151-162.524,132.871-17.92,9.237-37.321,15.746-56.363,22.621-24.437,8.822-48.367,19.418-74.506,22.822-10.772,1.4-21.137,4.33-32.464,2.34-7.868-1.383-16.376,1.223-24.617,1.534-11,.415-22.022.1-33.019.528-11.784.457-23.6,2.487-35.308,1.884-15.746-.811-31.636-2.364-47.02-5.67-15.87-3.411-31.234-9.219-46.768-14.139-12.776-4.046-25.216-10.48-38.265-12.062-28.388-3.441-52.411-17.358-74.2-32.919-22.357-15.968-44.75-32.31-66.929-48.637-20.168-14.846-38.19-31.431-53.392-50.613-18.927-23.882-36.172-49.232-52.59-74.941C49.909,686.3,31.121,624.292,22.543,559.243A468.186,468.186,0,0,1,33.37,380.166Q67.328,247.953,165.647,153.309C237.788,83.829,323.693,40.748,422.43,23.963c86.346-14.678,170.829-5.982,252.725,24.495a472.657,472.657,0,0,1,145.494,86.649q100.228,86.852,142.807,212.251C980.088,396.275,987.878,446.78,987.973,512.3Zm-755.02-16.148c1.241,150.872,120.489,263.855,262.978,263.331,152.841-.562,264.114-123.78,262.333-264.7-1.927-152.41-126.59-262.051-265.883-260.28C352.432,236.282,233.976,349.482,232.953,496.156Zm733.755-19.24c-1.045-27.233-3.811-52.857-10.65-79.182-6.676,1.62-12.317,2.826-17.866,4.361q-45.206,12.51-90.359,25.209c-6.847,1.939-15.993,2.713-19.49,7.428-3.057,4.122.262,13.04.906,19.825,1.061,11.172,2.237,22.334,3.475,34.586ZM53.777,387.408c-7.96,17.732-15.483,72.819-11.853,86.256,38.725,3.025,77.691,7.784,116.508,10.027,3.232-22.464,6.2-43.076,9.344-64.946ZM482.285,38.178c.632,8.157,1.13,15.24,1.738,22.314,2.648,30.8,5.46,61.584,7.886,92.4.49,6.231,3.2,8.057,9.057,8.275,13.03.485,26.041,1.52,39.051,2.46,4.324.313,8.62,1.021,13.881,1.666,5.144-41.362,10.161-81.712,15.285-122.912C539.961,37.937,511.826,35.794,482.285,38.178ZM786.608,326.5l24.947,51.928,120.154-57.7a401.4,401.4,0,0,0-37.9-71.365ZM189.063,356.767l33.005-56.984L125.432,230.25c-17.187,23.853-32.115,47.7-43.427,74.858ZM43.505,559.755c.669,6.4.7,11.548,1.809,16.451C49.647,595.281,54.249,614.3,58.9,633.3c2.443,9.971,3.54,10.542,13.477,7.845q43.766-11.876,87.5-23.865c6.185-1.7,12.267-3.777,18.611-5.748-5.5-21.092-10.734-41.205-16.249-62.376ZM817.468,598.2l129.7,35.764c7.513-26.327,13.914-50.928,16.181-77.69L829.746,544.339C825.507,562.938,821.7,579.632,817.468,598.2ZM248.4,112.566c-24.258,16.686-46.566,32.977-66.764,53.6l83.219,85.2,50.944-39.6Zm415.23,92.079A15.247,15.247,0,0,0,665.725,202q24.26-53.453,48.5-106.916c2.034-4.463.785-7.2-3.313-9.143-7.447-3.523-14.765-7.374-22.4-10.434-14.876-5.962-29.932-11.473-46.186-17.654-10.841,41.692-21.248,81.716-31.679,121.834ZM142.718,791.068,242.26,719.18,205.836,669.1,95.652,722.092C111.746,745.677,126.744,767.658,142.718,791.068ZM321.546,72.4l50.226,110.847,59.888-17.492c-10.181-39.281-20.185-77.877-30.733-118.571ZM917.171,706.116l-120.032-57.8-28.2,46.2,107.88,77.106C892.59,750.6,905.848,729.972,917.171,706.116ZM200.429,847.9c21.228,17.957,42.111,33.309,65.764,46.743,23.109-34.032,45.75-67.374,68.731-101.219L285.64,760.486ZM753.846,278.829c30.022-30.747,60.125-61.577,90.9-93.1-17.216-17.066-32.632-33.871-51.715-47.184a804.232,804.232,0,0,0-79.33,97.942ZM768.6,877.809l58.613-47.82L734.5,734.875l-39.915,34.359ZM387.23,816.166,335.676,929.507l74.292,21.606c10.78-41.368,21.1-80.981,31.564-121.128Zm213.881,1.36c10.723,41.076,21.342,81.759,32.459,124.346l70.076-26.563c-18.512-40.807-36.131-79.644-53.766-118.516Zm-51.8,12.584c-14.819.941-28.125,1.948-41.448,2.585-11.96.571-12.286.875-13.228,13.044-1.8,23.289-3.843,46.559-5.715,69.843-1.117,13.9-2.1,27.8-3.183,42.211,4.091.528,6.756,1.25,9.389,1.151,18.875-.7,37.737-1.741,56.615-2.3,6.873-.2,8.69-2.954,8.07-9.643-2.794-30.1-5.1-60.237-7.678-90.354C551.4,848.163,550.337,839.709,549.306,830.11Z"/><path d="M607.34,687.626l-75.37-121.8c4.993-5.365,10.1-9.958,14.124-15.364a80.918,80.918,0,0,0,14.937-35.857c.794-4.926,2.435-8.216,8.394-8.179,43.356.267,86.714.335,130.072.5a5.626,5.626,0,0,1,1.871.729C712.5,571.158,676.142,652.258,607.34,687.626Z"/><path d="M287.71,507.756c3.1-.307,6.423-.916,9.75-.923q59.793-.128,119.586-.067c10.226.017,10.311.2,11.391,9.979,1.86,16.832,9.052,30.787,22.044,41.727,2.335,1.966,4.489,4.144,7.6,7.04L382.348,687.641C310.649,649.927,278.907,570.589,287.71,507.756Z"/><path d="M396.823,319.183c57.189-41.517,140.4-43.281,202.073-.432l-71.522,124.74c-21.471-9.466-42.952-7.807-65.039-.378Z"/><path d="M494.458,553.925a49.413,49.413,0,0,1-49.081-49.446c-.081-27.347,22.4-49.737,50-49.8,27.385-.059,48.863,22.36,48.624,50.753C543.77,532.991,522.315,553.99,494.458,553.925Z"/></svg>