<svg xmlns="http://www.w3.org/2000/svg" width="1000" height="1000">
  <path d="M227.143 341.018V70.688c0-58.109-10.106-64.425-58.109-65.688-53.055 0-70.74 0-70.74 65.688v888.048c0 21.475 6.316 35.37 27.79 35.37 42.95 0 93.48 7.58 93.48-21.474 0-31.58 7.579-257.698 7.579-323.386 0-168.01 155.376-300.648 315.806-271.594 113.69 13.896 221.065 114.954 227.381 228.644 6.316 101.058 6.316 208.433 6.316 308.228 0 79.583 0 79.583 82.11 79.583 27.791 0 42.95-13.896 42.95-44.213 0-106.111 0-205.906-7.58-320.86 0-69.477-16.421-123.796-44.212-174.325-130.113-233.697-360.02-262.751-622.771-113.69z" style="fill:#000;fill-opacity:1;fill-rule:nonzero;stroke:none;"/>
</svg>
