<?xml version="1.0" encoding="utf-8"?>
<!-- Generator: Adobe Illustrator 26.0.1, SVG Export Plug-In . SVG Version: 6.00 Build 0)  -->
<svg version="1.1" id="Layer_1" xmlns="http://www.w3.org/2000/svg" xmlns:xlink="http://www.w3.org/1999/xlink" x="0px" y="0px"
	 viewBox="0 0 1000 1000" style="enable-background:new 0 0 1000 1000;" xml:space="preserve">
<g>
	<path d="M500,0C224.3,0,0,224.3,0,500s224.3,500,500,500s500-224.3,500-500S775.7,0,500,0z M500,938.1
		C258.4,938.1,61.9,741.6,61.9,500C61.9,258.4,258.4,61.9,500,61.9S938.1,258.4,938.1,500C938.1,741.6,741.6,938.1,500,938.1z"/>
	<polygon points="631.7,398.1 631.7,322.4 469,230.4 399.8,230.4 399.8,748.8 461.7,748.8 461.7,297.3 569.8,358.5 569.8,381 
		501.7,494.8 598.4,748.8 664.6,748.8 570.2,500.8 	"/>
</g>
</svg>
