<svg xmlns="http://www.w3.org/2000/svg" width="1000" height="1000">
  <path d="M5 500.002v.395-.395c.099-89.506 22.55-172.682 67.253-249.726 44.209-74.473 103.55-133.814 178.023-178.023C327.419 27.45 410.694 5 500.002 5c89.308 0 172.583 22.45 249.726 67.253C824.2 116.462 883.54 175.803 927.75 250.276c44.803 77.143 67.253 160.418 67.253 249.726 0 89.308-22.45 172.583-67.253 249.726C883.541 824.2 824.2 883.54 749.728 927.75c-77.143 44.803-160.418 67.253-249.726 67.253-89.308 0-172.583-22.45-249.726-67.253-74.473-44.209-133.814-103.55-178.023-178.022C27.55 672.684 5.099 589.508 5 500.002zM133.572 627.09c26.703 7.912 68.242 19.78 96.923 26.703-2.967 7.912-2.967 14.836-5.934 21.759-2.967 12.857-6.923 26.703-8.901 41.538-.989 6.923-3.956 16.814 5.934 20.77 10.88 3.956 26.704 5.934 40.55 9.89 5.934-28.682 13.846-53.407 22.747-83.077 10.88 5.934 22.747 8.9 33.627 12.857-6.924 28.681-11.869 52.417-19.78 77.143 19.78 6.923 34.615 12.857 53.406 9.89 6.923-24.725 13.846-49.45 19.78-76.154 6.923 1.978 10.88 1.978 15.825 1.978 25.714 1.978 55.384 4.945 83.077 1.978 33.626-5.934 59.34-30.66 72.198-62.308 20.77-53.407 13.846-97.912-37.583-127.583 51.429-34.615 78.132-75.165 45.495-131.539-13.846-22.747-61.319-53.407-85.055-60.33 6.923-28.681 10.879-52.417 17.802-78.132-12.857-2.967-35.605-11.868-46.484-14.835 0 0-6.923 21.758-23.736 80.11-12.857-2.967-24.725-5.934-36.594-7.912 5.934-26.703 10.88-52.418 18.792-80.11-19.78-4.945-33.627-7.912-50.44-10.88-7.912 28.682-15.824 52.419-22.747 79.122-30.66-8.901-63.297-14.835-97.913-24.725-3.956 20.769-6.923 36.593-12.857 53.406 15.824 3.956 24.725 7.912 36.594 11.869 18.79 8.9 23.736 15.824 18.79 35.604-7.911 33.627-14.834 65.275-22.747 98.901-11.868 35.605-19.78 71.21-28.68 109.781-6.924 16.813-10.88 20.77-27.693 17.802-5.934-.989-30.66-9.89-30.66-9.89-1.978 3.956-2.967 6.923-23.736 56.374zm167.143-23.736c7.912-33.627 17.803-66.264 25.715-99.89 33.626 2.966 69.23 10.878 95.934 30.659 6.923 4.945 13.846 8.9 17.802 15.824 15.825 29.67 5.934 63.297-30.66 68.242-37.582 4.945-72.197-1.978-108.79-14.835zm38.572-159.232c9.89-30.66 15.824-61.319 24.725-91.978 32.638 5.934 63.297 13.846 86.044 33.626 23.737 20.77 16.814 56.374-13.846 67.253-23.736 8.902-45.494 3.957-67.253-.989-9.89-1.978-17.802-4.945-29.67-7.912zm241.32 77.143c-8.902 28.682-6.924 28.682 21.758 37.583 30.66 6.923 59.34 14.835 90.989 23.736-8.901 40.55-19.78 81.1-31.648 120.66 18.79 6.923 32.637 9.89 50.44 13.846 11.867-41.538 22.747-81.099 34.615-120.66 39.56 11.869 79.12 21.759 119.67 30.66 4.946-15.824 8.902-32.638 13.847-49.45-40.55-9.89-79.121-22.748-119.671-32.638 11.868-41.539 18.791-76.154 31.648-119.671l-50.44-13.846c-11.868 40.55-23.736 79.121-33.626 117.693-7.912-.99-16.813-2.967-22.747-4.946-26.704-5.934-52.418-12.857-77.143-18.79-19.78-5.935-22.748-2.968-27.693 15.823z" style="fill:#000;fill-opacity:1;fill-rule:nonzero;stroke:none;"/>
</svg>
