<svg width="1000" height="1000" viewBox="0 0 1000 1000" fill="none" xmlns="http://www.w3.org/2000/svg">
<path fill-rule="evenodd" clip-rule="evenodd" d="M500 995C773.381 995 995 773.381 995 500C995 226.619 773.381 5 500 5C226.619 5 5 226.619 5 500C5 773.381 226.619 995 500 995ZM201.835 285.731L347.567 140H416.825C398.068 150.822 336.023 228.016 320.152 285.731H201.835ZM487.526 140V285.731H347.567C357.426 255.671 392.585 184.441 454.34 140H487.526ZM515.663 285.731H657.066C624.168 207.238 570.733 155.872 548.128 140H515.663V285.731ZM799.19 285.731H684.48C666.444 242.445 633.835 182.709 587.086 140H652.015L799.19 285.731ZM316.544 714.268H201.835L349.009 860H413.939C367.19 817.291 334.581 757.555 316.544 714.268ZM343.959 714.268H485.362V860H452.897C430.292 844.128 376.857 792.761 343.959 714.268ZM513.498 714.268L513.498 860H546.685C608.44 815.559 643.599 744.329 653.458 714.269L513.498 714.268ZM653.458 860L799.19 714.269H680.873C665.001 771.984 602.957 849.178 584.2 860H653.458ZM616.159 434.656C616.159 444.059 614.915 452.909 612.426 461.206C610.213 469.226 607.033 477.107 602.885 484.851C598.736 492.318 593.897 499.785 588.366 507.252C583.111 514.442 577.58 521.909 571.772 529.652L511.207 607.226H612.426V650.783H453.961V605.566L539.001 498.125C547.297 487.063 553.935 476.554 558.913 466.598C563.891 456.366 566.38 446.272 566.38 436.316C566.38 424.701 563.752 414.883 558.498 406.863C553.243 398.843 545.223 394.833 534.438 394.833C524.758 394.833 516.738 398.428 510.378 405.618C504.017 412.809 499.869 423.18 497.933 436.731L451.057 432.167C454.652 405.342 464.055 385.153 479.265 371.602C494.476 358.051 513.558 351.276 536.512 351.276C549.233 351.276 560.434 353.35 570.113 357.498C580.069 361.646 588.365 367.454 595.003 374.921C601.917 382.388 607.171 391.238 610.766 401.47C614.362 411.703 616.159 422.765 616.159 434.656ZM355.607 650.783L356.437 425.115H355.192L296.287 650.783H257.293L199.631 425.115H198.387L199.216 650.783H154V357.083H220.788L277.204 571.965H278.864L334.036 357.083H404.142V650.783H355.607ZM721.941 508.081L800.343 650.783H858.005L766.327 492.318L852.612 357.083H796.61L721.941 484.436H720.696V357.083H670.917V650.783H720.696V508.081H721.941Z" fill="black"/>
</svg>
