<svg xmlns="http://www.w3.org/2000/svg" viewBox="0 0 1000 1000"><path d="M5 500.496C5 225.55 226.54 5 500.496 5c272.968 0 494.507 222.528 494.507 494.507 0 274.946-222.528 495.496-494.507 495.496C225.55 995.003 5 772.475 5 500.496zm296.704 292.748h181.979c2.967 18.792 2.967 31.649 4.945 45.495h63.297c0-16.813 1.978-29.67 5.934-45.495h161.21V675.552H446.1c69.231-68.242 132.528-132.528 194.836-194.836-60.33-53.407-120.66-103.847-180.99-152.308 2.968-4.945 2.968-8.901 4.946-11.869H707.2V199.836H557.86c-3.956-21.759-5.934-34.616-8.901-50.44h-60.33c-1.978 17.802-4.945 33.627-6.923 51.429h-180c0 29.67-2.968 62.308 0 86.044-2.968 24.725 8.9 41.539 26.703 59.34 52.417 42.529 104.835 87.034 158.242 134.507-13.846 9.89-21.758 20.77-31.648 31.648-45.495 43.517-90 89.012-131.54 133.517-7.912 7.912-18.79 18.792-18.79 31.649-2.968 37.582-2.968 74.176-2.968 115.714z"/></svg>