<svg xmlns="http://www.w3.org/2000/svg" width="1000" height="1000">
  <path d="M934.719 274.869v452.28c0 18.741-4.998 28.737-18.741 36.233-132.436 72.465-263.622 152.426-396.058 227.39-9.995 4.997-28.736 6.246-38.73 0-133.686-74.964-264.872-152.427-399.807-231.138-7.496-3.748-14.993-17.492-14.993-28.736-2.498-154.925 0-306.102 0-461.027 0-8.745 7.497-23.738 17.492-29.985 129.937-81.21 266.12-154.925 399.806-231.138 8.746-4.997 26.237-4.997 34.983 0 133.685 76.213 268.62 148.678 397.307 227.39 16.242 9.995 18.741 19.99 18.741 38.731zM120.114 683.421c2.5 2.498 3.749 2.498 7.497 4.997 12.494-18.74 18.74-37.482 31.235-52.474 22.489-32.484 31.234-69.966 28.736-107.448-1.25-62.47 0-126.189 0-186.16 0-21.24 4.997-31.235 21.24-41.23C282.535 256.128 355 212.4 433.711 173.668c4.998-2.499 11.245-4.997 17.492-8.746 68.716 118.693 136.184 234.886 202.401 351.08-3.748 1.25-6.247 3.748-7.496 3.748H537.412c-49.976 0-64.969 13.743-76.213 64.969h311.099c-98.702-174.915-198.654-344.833-294.857-516-118.692 67.467-232.387 132.436-344.833 199.903-7.496 3.748-12.494 19.99-12.494 31.235zm24.988 43.728c3.748 3.749 7.497 7.497 9.995 8.746 109.947 63.72 214.896 132.436 328.59 189.908 7.497 3.748 23.74 2.499 34.984-1.25 107.448-61.22 214.896-124.939 321.094-188.658 4.998-1.25 12.494-3.748 18.741-4.997-4.998-3.749-6.247-6.247-7.496-9.995-19.99 0-41.23 2.498-58.722 0-38.731-3.749-72.465 8.745-104.949 28.736-54.973 33.733-113.695 63.719-168.668 96.203-11.245 3.748-27.487 3.748-34.983 0a11364.688 11364.688 0 0 1-236.136-134.935c-3.748-1.249-6.246-6.247-8.745-9.995 67.467-117.443 133.685-233.636 203.65-352.329 21.24 34.983 41.23 67.467 59.972 101.201 23.738 42.48 42.48 49.976 97.452 32.484-52.474-87.457-103.7-177.414-159.922-271.118-98.702 174.915-198.653 346.082-294.857 516zm137.434-43.728c12.493 2.498 18.74 2.498 23.738 2.498 181.162 0 363.574 2.5 545.985 2.5 24.988 0 27.487-13.744 27.487-32.485V301.106c0-19.99-6.247-31.235-26.238-39.98-101.2-59.971-207.399-119.942-313.597-181.162-6.247-3.749-13.744-6.247-19.99-8.746 6.246 23.738 18.74 41.23 27.486 58.721 17.491 33.734 41.23 57.472 73.714 74.964 54.973 29.985 107.448 62.47 163.67 92.455 17.492 9.995 24.989 21.24 24.989 44.978v248.63c0 7.496-2.5 16.242-3.749 22.489H398.73c23.739-43.73 46.228-81.21 68.717-119.942 4.997-8.746 7.496-19.99 4.997-27.487-6.247-18.74-17.491-34.983-32.484-59.97-52.474 97.452-103.7 184.91-157.423 277.365z" style="fill:#000;fill-opacity:1;fill-rule:nonzero;stroke:none;"/>
</svg>
