<svg xmlns="http://www.w3.org/2000/svg" width="1000" height="1000">
  <path d="M500.496 5C223.572 5 5 229.506 5 500.002c0 276.43 224.506 495.001 495.002 495.001 276.43 0 495.001-224.506 495.001-495.001C995.003 226.539 773.464 5 500.496 5zM172.143 404.562V271.045c0-14.835 6.924-21.758 24.726-21.758h609.233c17.802 0 23.736 6.923 23.736 23.736V406.54c0 15.824-5.934 22.747-22.747 22.747H609.288c-13.846 0-16.814 4.945-16.814 18.791v398.573c0 16.813-7.912 24.725-26.703 24.725h-130.55c-16.813 0-24.725-7.912-24.725-24.725V594.453c0-11.869 3.956-21.759 11.868-29.67 41.539-43.518 84.066-86.045 126.594-129.562 1.978-1.978 1.978-2.967 3.956-5.934H197.858c-18.791 0-25.715-6.923-25.715-24.725z" style="fill:#000;fill-opacity:1;fill-rule:nonzero;stroke:none;"/>
</svg>
