<svg xmlns="http://www.w3.org/2000/svg" viewBox="0 0 1000 1000"><path d="M490.503 51.663c188.74-15.432 308.632 30.863 432.085 170.934-24.928 27.302-48.67 49.856-70.036 73.597-15.432 17.806-29.676 15.432-49.856 2.374-40.36-28.489-83.093-61.726-129.388-80.719-127.014-51.043-271.834-21.367-360.862 87.842-14.245 16.618-23.741 37.985-41.547 65.287h91.403c23.74 0 30.863 11.87 30.863 33.238 2.374 22.553-4.748 37.985-30.863 37.985h-89.029c-15.432 0-27.302 4.748-24.928 22.554 0 33.237 0 66.475 2.374 97.338 0 8.31 16.619 18.993 23.741 21.367h85.467c28.49 0 35.612 16.618 35.612 36.798 0 22.554-7.122 37.986-36.799 35.612-20.18-1.188-41.546 0-71.222 0 13.057 20.18 22.553 36.798 33.237 48.668 85.467 98.525 193.489 115.144 313.38 96.151 91.403-14.244 157.878-62.913 193.489-147.194 13.058-27.302 9.496-33.237-20.18-33.237-45.108-1.187-93.777-1.187-138.884-1.187-26.115 1.187-36.799-11.87-36.799-35.611 2.374-21.367 2.374-40.36 0-59.353 0-29.676 10.684-41.546 40.36-41.546h280.143c21.367 0 35.611 7.122 42.734 26.115v46.295c-2.374 117.517-55.792 212.481-140.072 290.826-71.223 70.036-159.064 99.712-258.776 104.46-183.992 9.497-331.186-54.604-422.589-218.416-33.237-61.727-41.547-75.971-131.762-75.971C13.309 661.805 5 642.812 5 619.07c0-24.928 10.684-37.985 39.173-35.611h62.913v-74.784c0-65.288 0-66.475-61.726-66.475C21.619 442.2 5 436.265 5 410.15c0-28.49 13.058-41.547 41.547-39.173 53.417 4.748 75.971 0 92.59-39.172 68.848-168.56 169.747-258.776 351.366-280.142z"/></svg>