<svg xmlns="http://www.w3.org/2000/svg" width="1000" height="1000">
  <path d="m498.47 995.003-10.226-2.272c-11.364-5.682-17.045-17.045-17.045-28.408 0-14.773 9.09-26.136 22.726-26.136 2.273 0 2.273-2.273 2.273-3.409v-65.907c0-1.136-2.273-1.136-3.409-3.409-3.409-7.954-11.363-6.817-20.454-11.363-2.272-1.136-1.136-1.136-3.409 0l-77.27 40.908c-1.136 0-1.136 2.272 0 3.409 12.5 12.5-5.681 31.817-22.726 37.498-15.909 5.682-34.09-9.09-36.362-24.999-2.273-15.908 10.226-34.09 28.408-34.09 9.09 0 14.772 2.273 22.726 10.228 2.273 2.272 2.273 1.136 4.545 0l76.134-40.908c2.273-1.136 2.273-2.273 0-4.545-2.273-2.273-1.136-9.09 0-13.636 1.136-3.41-1.136-2.273-3.41-3.41l-80.678-28.407c-2.273-1.137-4.545 0-4.545 2.272 0 11.364-17.045 12.5-30.68 11.364-10.228-1.137-20.455-11.364-21.591-22.727-1.136-15.908 7.954-31.817 22.726-34.09 18.182-2.272 34.09 10.227 34.09 27.272 0 2.273 0 4.546 2.273 6.818 0 0 1.136 0 3.409 1.137l78.406 26.135h2.273l5.681-7.954 5.682-3.41c2.272-2.272 3.409-4.545 2.272-6.817l-23.862-54.544-40.908-94.314c-1.136-2.273-2.273-2.273-3.409-2.273-15.908 0-28.408-5.682-31.817-15.909-6.818-19.317 3.409-38.634 23.863-40.907 17.045-2.273 32.953 9.09 32.953 27.272 0 10.226-3.409 15.908-11.363 23.862-2.273 2.273-2.273 2.273-2.273 3.41l62.498 144.312 2.273 1.137v-1.137l-2.273-144.313V570.02c0-2.273 0-3.41-1.136-3.41-12.5 0-18.181-12.499-26.136-20.453-2.272-2.273-2.272-1.136-3.409-1.136l-101.132 22.726-92.042 22.727c-2.273 0-3.41 1.136-3.41 3.408l-2.272 7.955c-2.273 0 0 2.272 0 2.272l70.452 48.862 12.5 7.954c2.272 1.137 1.136 2.273 3.408 0 18.182-18.18 45.453-5.681 48.862 15.909 2.273 17.045-7.954 32.953-24.999 35.226-15.908 2.273-27.272-7.954-34.09-23.863-2.272-5.681 2.273-10.227 2.273-15.908 0-1.137 2.273-1.137 0-3.41l-82.951-56.815c-2.273-1.137-1.137 0-3.41 0-5.68 0-7.954 7.954-13.635 9.09v2.273l3.409 23.863 5.681 43.18 7.955 46.59 7.954 45.452 2.273 10.227c0 2.272 0 2.272 2.272 2.272 9.09 0 17.045 5.682 23.863 13.636 12.5 14.773 0 40.908-20.454 45.453-17.045 3.41-31.817-7.954-35.226-26.135-2.272-13.636 4.545-31.817 18.181-31.817 1.137 0 1.137 0 1.137-1.137l-7.955-42.043-5.681-45.453-7.954-46.59-5.682-35.226v-2.272l-11.363-2.273-2.273 2.273-35.226 72.724c-1.136 3.41-2.273 2.273 0 3.41 12.5 5.681 13.636 18.18 9.09 29.544-4.545 12.5-9.09 20.454-21.59 22.726-17.044 3.41-32.953-7.954-35.225-26.135-2.273-18.181 10.226-32.954 28.408-32.954l6.818 1.137c2.272 0 2.272 0 2.272-1.137l37.499-72.724c1.136-2.273 0-2.273-2.273-4.545-7.954-7.955-11.363-13.636-13.636-23.863H98.485c-1.136 0-3.409 0-3.409 2.272 0 13.636-15.908 21.59-29.544 21.59-13.636 0-26.136-10.226-27.272-23.862-1.136-15.909 7.954-29.545 25-35.226 13.635-4.545 29.544 7.954 31.816 23.863l2.273 2.272h87.497l4.545-6.818c0-5.681 5.682-9.09 5.682-13.636 0-1.136 4.545-1.136 2.272-3.409l-55.68-71.588c-1.136-1.136-1.136 0-3.409 0-19.317 0-37.498-1.136-40.907-21.59-2.273-14.772 7.954-30.68 24.999-32.953 15.908-2.273 32.953 7.954 34.09 21.59 1.136 10.227 0 15.908-6.818 23.863l-1.137 3.409 5.682 5.681 48.862 65.907c1.136 2.273 2.272 1.136 4.545 1.136 5.682 0 9.09-3.409 14.772-3.409 2.273 0 2.273 0 2.273-2.272l13.636-76.134 13.636-67.043c1.136-4.545 0-4.545-3.41-5.682-12.499-4.545-18.18-18.18-15.908-31.817 2.273-12.5 11.363-21.59 26.136-23.862 17.044-2.273 32.953 11.363 32.953 29.544 0 13.636-11.363 29.544-27.272 29.544-2.272 0-4.545 0-4.545 2.273l-13.636 84.088-11.363 61.361s0 2.273 2.272 2.273l11.364 7.954 15.908-14.772 64.77-52.27s2.273-2.274 0-4.546c-13.635-13.636 3.41-38.635 23.863-40.908 17.045-2.272 32.954 10.227 32.954 27.272 0 19.317-15.909 31.817-32.954 31.817-6.818 0-10.227-4.545-13.636-5.682l-2.272-2.272-80.68 67.043 9.092-2.273 157.948-37.499 27.272-5.681c2.273 0 2.273-2.273 2.273-2.273 0-7.954 0-13.636 5.681-19.317 2.273-2.273 0-4.546 0-4.546l-53.407-60.225-119.314-142.04c-2.272-2.273-2.272-2.273-4.545-2.273-11.363 0-22.726 2.273-32.953-7.954-2.273-2.272-2.273 0-4.546 2.273L195.073 322.3l-21.59 18.182-2.273 1.136c7.954 18.181-1.137 37.499-19.318 42.044-18.18 4.545-31.817-7.954-35.226-26.136-2.272-13.635 7.955-30.68 27.272-30.68 7.954 0 13.636 0 19.318 5.681 2.272 2.273 2.272 1.137 4.545 0l70.452-57.952c0-3.409-1.137-6.818-1.137-11.363l-2.272-3.41c0-2.272 0-2.272-2.273-2.272l-29.544-4.545-27.272-3.41s-2.273 0-2.273 2.273c0 15.909-17.044 19.318-29.544 19.318-13.636 0-24.999-10.227-27.272-23.863-2.272-17.045 7.955-32.953 25-35.226 15.908-2.272 34.09 10.227 34.09 26.136 0 1.136 0 1.136 2.272 1.136l38.635 6.818 18.18 1.136c2.273 0 2.273 0 2.273-1.136l3.41-7.954c0-2.273 2.272-2.273 0-4.546l-72.725-64.77-37.499-32.953c-2.272-2.273-2.272-2.273-3.409 0-10.227 19.317-43.18 0-47.725-21.59-3.41-18.182 11.363-34.09 29.544-34.09 15.909 0 29.544 11.363 29.544 26.135 0 5.682-2.272 11.363-2.272 17.045 0 2.273-2.273 2.273 0 4.545l56.816 51.135 53.407 48.862c2.273 2.272 2.273 2.272 4.545 0l3.41-2.273c2.272-2.273 0-2.273 0-3.409l-31.818-102.269c-1.136-2.273-1.136-4.545-3.409-4.545-15.908 0-29.544-9.09-31.817-25-2.272-13.635 7.955-28.407 20.454-31.816 17.045-4.546 35.226 5.681 38.635 23.862 2.273 13.636-5.682 21.59-13.636 29.545-2.272 2.272-2.272 2.272-2.272 3.409l34.09 102.269c1.136 2.272 1.136 4.545 3.408 2.272h5.682c2.272 0 1.136 0 2.272-2.272l12.5-43.18 21.59-76.134c1.136-2.273 0-4.545-2.273-4.545-12.5 0-15.908-15.909-15.908-27.272 0-13.636 7.954-21.59 19.317-26.135 18.182-6.818 37.499 4.545 39.772 23.862 2.272 18.181-11.364 34.09-29.545 34.09-2.272 0-3.409 0-3.409 1.136l-31.817 120.45c-1.136 3.41 0 3.41 3.41 5.682l5.68-5.682 126.133-163.63c1.136-2.273 2.272-1.136 0-3.409-15.909-15.908-1.137-45.453 21.59-47.725 18.18-2.273 34.09 12.5 34.09 29.544 0 18.181-15.91 31.817-34.09 29.544l-9.09-3.409c-2.273 0-3.41-1.136-4.546 1.137l-129.54 165.903c-2.273 2.272-2.273 3.409 0 5.681 4.544 4.546 5.68 7.955 5.68 13.636 0 2.273 2.273 2.273 4.546 2.273l36.362-2.273 26.136-1.136 35.226-2.273 7.954-2.272s2.273 0 2.273-2.273c0-13.636 13.636-22.727 27.271-22.727 15.909 0 27.272 9.091 29.545 25 2.272 15.908-7.954 29.544-21.59 31.817-13.636 2.272-35.226-2.273-35.226-18.182 0-2.272 0-3.409-4.546-3.409l-35.226 1.137-23.862 2.272-36.363 2.273-7.954 2.273c-2.273 0-2.273 0-2.273 1.136l-2.272 6.818c0 1.136-1.137 2.273 2.272 3.409l45.453 23.863 140.904 76.133c2.273 1.137 2.273 0 4.546-1.136 12.5-5.682 19.317-12.5 31.817-7.954 9.09 3.409 17.044 11.363 19.317 22.726 4.545 20.454-13.636 37.499-34.09 34.09-14.772-2.273-22.726-18.181-22.726-35.226 0-2.273 0-3.41-2.273-4.545L313.25 284.802l-2.273-2.273v2.273L476.88 480.249c1.137 1.137 1.137 0 3.41 0h35.225c2.273 0 3.41 2.273 4.546 0L690.509 279.12l2.273-2.272c2.272-2.273 2.272-5.682-2.273-7.955h-1.136l-42.044 7.955-64.77 13.635c-1.137 0-3.41 2.273-3.41 4.546 0 13.636-10.226 23.862-21.59 27.271-18.18 5.682-35.226-7.954-37.498-24.999-2.273-14.772 7.954-28.408 19.317-31.817 13.636-4.545 37.499 0 37.499 15.909 0 1.136 2.272 1.136 4.545 1.136L687.1 259.803c2.273 0 2.273 0 2.273-2.273l1.136-7.954c0-3.41 1.136-4.545-1.136-5.682L541.65 174.58l-34.09-17.045c-1.136 0-3.409 0-3.409 1.136 0 12.5-19.317 12.5-29.544 10.227-13.636-3.409-19.318-11.363-23.863-23.863-5.682-17.045 12.5-35.226 29.544-35.226 20.454 0 29.545 18.181 29.545 35.226 0 2.273 0 3.41 2.272 4.545l180.676 86.361c3.409 1.136 4.545 2.273 4.545 0 3.409-5.682 4.545-5.682 1.136-10.227L582.558 64.355c-1.136-2.272-1.136-3.409-3.409-2.272-18.18 9.09-35.226-3.41-39.77-21.59-4.546-17.045 7.953-32.954 26.135-35.226 15.908-2.273 32.953 10.226 32.953 28.408 0 6.818-2.273 13.635-7.954 19.317-2.273 2.273-2.273 3.41 0 5.682l98.86 137.495 17.045 26.135c1.136 2.273 2.272 3.41 4.545 1.136 2.272-2.272 4.545 0 3.409-3.409l-9.09-47.725-14.773-68.18v-5.681c0-2.273-3.409-1.136-6.818-2.273-12.5-4.545-21.59-11.363-23.863-23.862-3.409-15.909 7.955-27.272 19.318-32.954 15.908-7.954 34.09 5.682 39.771 25 3.409 12.499-5.682 19.317-15.908 29.544-2.273 2.272-2.273 2.272-2.273 4.545l18.181 89.77 3.409 29.544c0 2.272 2.273 2.272 4.545 2.272l5.682 2.273c2.273 0 2.273 0 3.409-2.273l26.135-67.043 15.909-37.498c1.136-1.137 0-3.41-2.273-5.682-7.954-7.954-11.363-15.908-10.227-27.272 1.137-12.5 7.955-20.453 20.454-23.862 17.045-4.546 35.226 5.681 37.499 23.862 2.272 19.318-14.772 32.954-31.817 32.954-2.273 0-3.41 0-4.546 2.272l-43.18 104.542c0 1.136 0 3.41 2.273 3.41l3.409 4.544 14.772-12.5 110.223-89.769c2.273-1.136 3.41-2.272 1.137-6.818-7.955-17.044 4.545-36.362 23.862-40.907 18.181-4.545 31.817 11.363 32.954 29.544 1.136 18.181-14.773 29.545-32.954 29.545-5.681 0-10.227-2.273-13.636-5.682-2.272-2.273-4.545 0-4.545 0L757.552 235.94l2.273 11.363h4.545l38.635-3.409 34.09-4.545c1.136 0 1.136-1.136 1.136-1.136 2.273-12.5 7.954-20.454 20.454-23.863 17.045-4.545 32.953 5.681 38.635 23.863 4.545 13.635-7.955 29.544-22.727 32.953-14.772 3.409-34.09-5.682-34.09-19.318 0-2.272-2.272-2.272-3.408-2.272l-53.408 5.681-18.18 2.273c-3.41 0-3.41 0-3.41 3.41l-4.545 10.226c0 2.273 0 2.273 2.273 3.409l67.043 45.453 18.18 13.636c2.273 1.136 1.137 0 3.41-1.137 10.227-4.545 18.18-10.227 29.544-4.545 11.363 5.682 18.181 12.5 18.181 23.863 0 18.181-14.772 35.226-31.817 31.817-15.908-3.41-26.135-13.636-26.135-28.408 0-3.41 2.273-6.818 2.273-11.363 0-2.273 0-2.273-2.273-3.41l-84.088-59.088c-5.682 3.409-10.227 5.681-13.636 7.954l-2.272 1.136c-3.41 0-3.41 2.273-3.41 4.546l3.41 31.817 5.681 32.953 2.273 29.544 3.409 25c0 2.272 2.272 2.272 4.545 2.272 5.682 0 11.363 4.545 17.045 7.954 10.227 5.682 10.227 19.318 6.818 29.545-3.41 11.363-12.5 18.181-23.863 19.317-15.908 1.137-31.817-7.954-34.09-24.999-2.272-13.636 6.818-29.544 18.182-29.544 2.272 0 2.272-2.273 2.272-4.545l-4.545-35.226-3.41-32.954-4.544-29.544-1.137-21.59c0-2.273-2.272-2.273-4.545-2.273-5.682 0-5.682-2.273-7.954 4.545l-62.498 159.085v2.273l3.409 3.41c7.954 7.953 12.5 18.18 10.227 29.543-2.273 11.364-11.363 19.318-23.863 21.59-15.908 3.41-32.953-7.954-35.226-26.135-2.272-17.045 11.363-32.953 29.545-32.953 5.681 0 6.817 0 7.954-3.41l56.816-144.312v-2.273l-96.587 112.496-67.043 77.27c-1.137 1.136 0 3.41 0 5.682 0 7.954 6.817 11.363 6.817 19.317 0 2.273 1.137 2.273 3.41 2.273l180.675 43.18 7.954 2.273h4.545c11.363 0 13.636-14.772 25-15.909 7.954-1.136 15.908 5.682 23.862 5.682 2.273 0 2.273 2.272 4.545 0l78.407-76.134c2.272-2.272 0-2.272 0-4.545 0-23.863 2.272-42.044 24.999-45.453 13.636-2.273 28.408 12.5 29.544 26.135 1.136 15.909-7.954 30.681-23.863 32.954-6.818 1.136-13.636 0-21.59-3.41-2.272-1.135-1.136-2.272-3.409 0l-78.406 76.134c-2.273 2.273-2.273 2.273 0 4.546l3.409 13.636c0 2.272 2.273 2.272 4.545 2.272h94.315l3.409-6.818c4.545-11.363 15.908-19.317 27.272-19.317 19.317 0 32.953 10.227 28.408 35.226-2.273 14.772-13.636 23.863-28.408 23.863-13.636 0-29.545-7.955-29.545-21.59 0-2.273-1.136-2.273-3.409-2.273h-94.314c-2.273 10.227-7.955 18.181-15.909 23.863v2.272l37.499 74.997c1.136 2.273 2.272 1.137 3.409 1.137l7.954-1.137c20.454 1.137 29.544 17.045 28.408 32.954-1.136 18.181-18.181 29.544-36.362 26.135-11.364-2.272-19.318-10.227-21.59-22.726-2.273-11.363 0-19.318 10.226-29.545 2.273-2.272 1.137-1.136 0-3.409l-23.862-45.452-13.636-27.272-2.273-2.273h-7.954c-1.136 0-3.41 2.273-3.41 4.545l-3.408 30.681-6.818 45.453-3.409 45.453-5.682 45.453c0 2.272 0 3.409 1.137 3.409 12.5 0 18.18 15.908 18.18 28.408 0 14.772-10.226 27.272-24.998 29.544-22.727 3.41-37.499-18.18-31.817-37.498 3.409-12.5 11.363-21.59 23.863-21.59 1.136 0 3.409 0 3.409-2.273l4.545-31.817 5.681-45.453 3.41-43.18 7.954-48.862c0-2.273 0-2.273-2.273-2.273-9.09 0-13.636-11.363-21.59-19.317-2.273-2.273-1.136-2.273-3.41-2.273l-115.904 26.135c-5.682 1.137-5.682 1.137-7.954 7.955-4.545 14.772-18.181 29.544-35.226 24.999-15.909-4.545-22.727-19.318-21.59-35.226 1.136-11.363 11.363-21.59 24.999-23.863 11.363-2.273 29.544 2.273 29.544 15.909 0 2.272 2.273 2.272 4.545 2.272l99.997-21.59 19.317-5.682h-2.272l-84.088-22.726-102.27-22.726c-2.272 0-4.544 0-4.544 1.136 0 12.5-13.636 20.454-22.727 20.454-2.273 0-4.545 1.136-4.545 3.409v42.044l2.272 131.813v52.27l10.227 6.819 1.137-2.273L625.739 696.15c2.272-2.272 2.272-3.409 0-3.409-7.955 0-3.41-12.5-3.41-15.908 0-20.454 15.91-31.817 32.954-29.544 15.909 2.272 28.408 15.908 26.135 30.68-3.409 21.59-29.544 39.772-45.452 23.863-2.273-2.273-1.137-2.273-3.41 0l-101.132 102.27c-4.545 4.544-5.682 5.68-1.136 7.953 2.272 1.137 1.136 3.41 3.409 2.273l70.452-26.135c2.272-1.137 2.272-1.137 2.272-3.41l2.273-10.226c2.272-15.909 15.908-22.727 32.953-21.59 15.909 1.136 27.272 18.18 23.863 35.226-2.273 12.5-11.363 20.453-23.863 21.59-11.363 1.136-21.59-3.41-29.544-11.364-2.273-2.272-1.137-3.409-3.41-2.272l-12.499 6.818-59.088 19.317c-1.137 0-1.137 2.273-1.137 3.41 0 6.817-2.272 10.226-2.272 15.908 0 2.272 0 3.409 2.272 4.545l74.997 40.908h3.41c5.681-7.955 13.635-10.227 23.862-10.227 19.318 0 29.545 18.18 27.272 34.09-2.273 15.908-19.318 29.544-35.226 24.998-18.181-5.681-21.59-21.59-21.59-37.498 0-1.137 0-2.273-2.273-3.41L531.424 854.1c-1.136 0-3.41-2.272-3.41 0 0 6.818-12.499 11.363-21.59 11.363-2.272 0-2.272 2.273-2.272 3.41v65.906c0 1.136-1.136 2.273 2.273 3.41 13.636 3.408 23.863 11.362 23.863 26.135 0 11.363-6.818 22.726-18.182 28.408l-10.226 2.272z" style="fill:#000;fill-opacity:1;fill-rule:nonzero;stroke:none;"/>
</svg>
