<svg xmlns="http://www.w3.org/2000/svg" viewBox="0 0 1000 1000"><path d="M427.54 5c39.857 68.143 82.285 135 122.143 204.43 119.572 208.286 240.43 412.715 360.001 622.288 20.572 36 45 72 65.572 108 23.143 39.857 14.143 55.286-32.143 55.286H220.538c-46.286 0-55.286-15.429-33.428-55.286 28.285-51.429 60.428-99 87.429-150.43 11.571-21.856 25.714-28.285 50.143-27 70.714 3.858 142.715 1.287 213.43 1.287 42.428 0 54-20.572 32.142-56.572-39.857-65.572-75.857-132.43-114.429-199.287-25.714-45-46.286-45-72-1.285-36 60.428-69.43 122.143-102.858 182.572-12.857 23.143-27 32.143-51.429 30.857-56.571-2.571-111.857 0-168.429 0-51.429 0-60.429-16.714-34.714-59.143 109.286-181.286 216-362.573 321.43-546.43C368.396 78.285 391.539 42.285 414.682 5z"/></svg>