<svg xmlns="http://www.w3.org/2000/svg" viewBox="0 0 1000 1000"><path d="M500.496 5C223.572 5 5 229.506 5 500.002c0 276.43 224.506 495.001 495.002 495.001 276.43 0 495.001-224.506 495.001-495.001C995.003 226.539 773.464 5 500.496 5zM73.242 512.364c0-14.835 9.89-80.11 90.99-87.033 3.955 0 5.933-2.967 5.933-5.934 19.78-74.176 57.363-138.462 114.726-186.924 64.286-54.396 136.484-81.099 219.561-83.077 30.66-.989 60.33 1.978 89.012 10.88 4.945.988 8.9 0 11.868-5.935 10.879-13.846 24.725-23.736 42.527-30.66 84.067-27.692 157.254 53.407 122.638 131.54-2.967 4.945-2.967 7.912 1.978 12.857 33.627 38.571 58.352 82.088 74.176 132.528 8.901 28.681 11.868 57.363 13.846 87.033 0 99.89-27.692 183.957-97.912 256.155-3.956 4.945-4.945 7.912-.99 13.846 38.573 67.253-5.933 147.363-91.977 147.363-25.715 0-62.308-22.747-79.122-54.396-2.967-4.945-4.945-5.934-9.89-4.945-53.406 10.88-105.824 8.901-158.242-3.956-112.748-31.648-191.869-102.857-237.363-212.638-2.967-6.923-4.945-9.89-11.869-9.89-34.615.989-60.33-12.857-80.11-39.56-16.813-21.759-19.78-40.55-19.78-67.254zm117.693-92.967c-2.967 3.956-.99 6.923 4.945 8.901 35.604 10.88 59.34 34.616 68.242 71.21 9.89 36.593-.99 69.23-28.682 94.945-8.9 8.9-19.78 13.846-31.648 22.747-1.978.989-2.967.989-1.978 4.945C258.188 767.53 412.474 854.563 565.77 827.86c15.824-1.978 15.824-1.978 15.824-17.802-3.956-67.253 66.264-117.693 128.572-93.957 12.857 3.956 22.748 11.868 34.616 17.803 48.461-44.506 105.824-137.473 95.934-262.09-6.923-74.175-34.615-137.472-83.077-192.857-1.978 0-2.967 0-2.967.989l-1.978.989c-21.759 22.747-48.462 33.626-80.11 30.66-60.33-3.957-102.858-67.254-83.078-125.605.99-5.935 0-8.902-4.945-10.88-46.483-8.9-91.978-9.89-137.473-.989-54.395 10.88-102.857 34.616-147.363 70.22-55.385 46.484-90 103.847-108.791 175.056zm222.528 81.1c0-54.397 45.495-97.913 97.912-97.913 53.407.989 95.935 43.516 95.935 97.912 0 54.396-42.528 96.924-96.924 96.924-52.417 0-96.923-43.517-96.923-96.924z"/></svg>