<svg xmlns="http://www.w3.org/2000/svg" viewBox="0 0 1000 1000"><path d="M306.534,434.059v45.427c33.815-55.921,79.28-98.02,136.65-127.845q-.953-1.833-1.906-3.667l-27.165,4.834-1.626-4.751,74.064-30.042c-11.332-30.526-21.45-63.022-18.634-103.571,6.833,8.173,10.753,12.281,14.014,16.858,20.9,29.343,47.642,51.522,82.023,62.541,49.661,15.916,90.124,44.364,122.685,84.681,1.749,2.166,4.056,3.882,7.914,7.511,4.509-7.545,8.438-14.119,12.363-20.689,16.8,9.894,29.4,54.725,19.414,72.8-4.438,8.033-13.456,16.525-21.8,18.337-5.386,1.17-14.515-8.449-19.78-14.992-5.245-6.518-7.58-15.324-11.5-22.969-24.507-47.8-54.141-63.226-107.808-56.211-4.462.583-8.9,1.368-15.29-.77l20.736-16.609c-33.74-7.971-79.99,17.975-93.4,53.956,34.571-9.152,68.015-10.869,103.471,1.655l-28.245,24.818,1.151,4.394c46.841-8.548,87.807,1.013,122.511,37.167-36.286,9.138-66.064,26.445-91.181,51.6-69.156,69.262-32.519,162.939,28.327,202.386,5.321,3.449,14.587,3.716,21.041,1.927,14.614-4.053,28.615-10.314,48.209-17.688L655.638,749.4c44.528-21,79.19-50.633,109.4-86.125l4.425,2.348c-3.683,8.669-7.116,17.456-11.117,25.976-4.271,9.1-9.078,17.939-11.987,27.534,70.551-68.12,104.885-148.754,82.345-248.916l6.389-1.84c15.932,24.211,31.864,48.422,49.163,74.712,15.656-58.91,13.367-115.2-3.919-171.059-17.351-56.075-51.022-101.766-94.194-141.2l3.573-5.339,80.7,35.014c-1.221-18.175-1.655-35.432-3.728-52.49-2.124-17.482-5.853-34.768-9.728-57.01,7.012,6.46,11.562,9.967,15.3,14.195,71.985,81.479,116.212,175.364,125.488,284.4,15.671,184.222-50.535,334.632-194.587,448.087-155.91,122.795-381.21,133.955-551.676,31.677-28.821-17.292-54.585-39.631-82.129-59.119-13.261-9.383-16.392-22.982-17.543-37.429C139.6,679.468,195.965,551.509,297.565,440.405,299,438.838,301.087,437.871,306.534,434.059ZM500,499.208l-3.552-3.038c-13.751,10.566-28.814,19.818-40.995,31.959-29.744,29.647-51.735,65.11-47.994,108.171,6.785,78.1,41.171,142.9,106.864,187.773,21.37,14.6,46.516,23.669,69.936,35.268q1.221-2.353,2.443-4.708c-56.093-41.341-103.511-89.395-119.021-160.365C452.637,625.416,456.961,559.131,500,499.208ZM103.112,780.887c10.247-97.631,43.142-187.149,95.7-269.818,3.29-5.175,4.892-13.242,3.651-19.209-26.38-126.875,17.592-227.1,115.284-307.327,4.952-4.066,9.468-8.663,14.186-13.013l-1.873-5.085-64.948,3.324c60.738-77.931,136.067-131,223.7-168.047-148.2-7.468-352.7,88.442-444.959,293.6C-5.474,404.989-12.78,518.786,19.878,634.721c16.042,56.947,42.1,108.954,79.043,160.436C101.335,787.088,102.781,784.046,103.112,780.887ZM703.159,506.706l5.362-9.079c1.6,6.439,2.775,11.177,4.569,18.4,12.257-17.212,12.493-32.775,6.453-48.592l-37.636,9.294ZM614.04,392.131c-4.2,1.325-7.26,6.3-10.843,9.6,3.369,3.05,6.248,7.415,10.205,8.891,10,3.732,20.482,6.164,32.042,9.481C647.1,400.668,631.651,386.582,614.04,392.131Z"/></svg>