<svg xmlns="http://www.w3.org/2000/svg" width="1000" height="1000">
  <path d="M296.747 5c21.87 10.291 45.025 23.155 68.18 33.447 64.32 30.873 128.64 63.034 192.961 93.907 95.195 45.025 189.102 88.763 284.297 133.787 5.145 2.573 7.718 7.718 7.718 14.15-1.286 42.452 0 83.617 0 127.355 0 5.146-2.573 9.005-6.432 11.578-45.024 18.01-88.762 37.305-132.5 57.888-32.16 15.437-64.32 32.16-97.767 48.883-91.335 47.598-183.957 93.908-276.578 138.933-1.286 2.572-2.573 3.859-6.432 5.145C454.976 730.534 579.757 789.71 704.539 850.17V559.442c0-7.718 1.286-12.864 7.718-12.864 43.738-20.583 87.476-39.879 129.928-57.888 2.572 0 3.859-1.287 6.432-1.287 0 2.573 1.286 5.146 1.286 7.719v429.66c0 5.146-1.286 7.719-6.432 9.005-43.738 20.583-87.476 39.879-131.214 59.175-6.432 3.859-10.29 1.286-14.15 0-101.626-48.884-203.253-96.48-302.306-144.078-70.753-34.733-144.078-70.752-217.403-105.485-9.005-5.146-15.437-6.433-24.442-11.578-2.573-1.287-3.86-2.573-3.86-9.005v-132.5c0-6.432 2.574-7.719 5.146-10.291 64.32-30.874 127.355-61.748 192.962-92.622 57.888-29.587 115.777-57.888 173.665-84.903 1.286-1.286 3.86-2.573 9.005-5.145-9.005-2.573-16.724-9.005-23.156-11.578-48.883-23.155-100.34-47.597-151.796-72.039-64.32-32.16-132.5-63.034-200.68-96.48-3.859-1.287-5.145-5.146-5.145-10.292v-132.5c0-5.146 1.286-7.718 6.432-9.005 43.738-20.582 87.476-37.306 129.927-57.888C291.602 6.286 291.602 5 294.175 5z" style="fill:#000;fill-opacity:1;fill-rule:nonzero;stroke:none;"/>
</svg>
