<svg xmlns="http://www.w3.org/2000/svg" width="1000" height="1000">
  <path d="M795.978 815.145V187.411c0-9.757-2.168-17.346-10.841-22.767C692.982 113.688 599.744 59.479 508.674 7.439c-4.337-3.252-11.926-3.252-16.263 0-93.238 54.209-185.393 106.249-279.715 159.373-4.337 3.253-8.674 7.59-8.674 16.263v635.323c0 5.42 4.337 9.757 8.674 15.178 94.322 49.872 186.477 105.164 279.715 159.373 5.421 3.252 11.926 2.168 16.263 0 91.07-54.209 184.308-107.333 276.463-159.373 8.673-5.42 10.841-9.758 10.841-18.431zm-546.42-22.768v-254.78c31.44 18.432 57.46 33.61 86.733 52.04 53.124 29.273 104.08 58.546 156.12 87.819 5.421 4.336 11.926 2.168 18.431 0 79.144-44.451 157.204-89.986 236.349-136.606 0-1.084 2.168-1.084 4.336-1.084 0 3.253 2.169 5.421 2.169 11.926v238.517c0 8.673-2.169 13.01-8.674 15.178-79.144 45.536-155.036 91.07-232.012 135.522-8.673 7.589-15.178 5.42-22.767 0-76.976-44.451-156.12-89.986-233.096-135.522-5.421-2.168-7.59-6.505-7.59-13.01zm0-332.84V224.274c69.386 40.114 135.52 78.06 205.991 119.259-70.47 40.114-136.605 79.144-205.992 116.006zm20.599 39.03c70.47-40.113 138.773-78.06 209.244-117.09V618.91c-70.47-41.198-138.773-79.144-209.244-120.342zm0-313.324c16.262-7.59 32.525-18.43 48.787-27.104 56.377-33.61 114.922-63.966 171.299-98.66 6.505-5.42 10.842-5.42 18.43-2.168 27.105 16.263 225.508 129.016 223.34 127.932-24.936 13.01-46.62 28.188-68.303 39.03-52.04 29.273-102.996 57.461-155.036 87.818-4.337 1.084-10.842 4.336-14.095 1.084-72.639-40.114-144.194-83.481-215.75-123.595-2.167-2.169-4.336-2.169-8.672-4.337zM523.852 618.91V381.478c70.471 39.03 137.69 76.976 208.16 117.09-70.47 41.198-137.689 79.144-208.16 120.342zm20.6-275.378c68.302-41.199 136.605-79.145 207.075-119.259v235.265c-68.302-36.862-138.773-75.892-207.076-116.006z" style="fill:#000;fill-opacity:1;fill-rule:nonzero;stroke:none;"/>
</svg>
