<svg xmlns="http://www.w3.org/2000/svg" width="1000" height="1000">
  <path d="M749.728 72.253C672.585 27.45 589.508 5 500.496 5c-89.703 0-173.077 22.45-250.22 67.253-74.473 44.209-133.814 103.55-178.023 178.023C27.451 327.419 5 410.694 5 500.002c0 89.308 22.45 172.583 67.253 249.726C116.462 824.2 175.803 883.54 250.276 927.75c77.143 44.803 160.418 67.253 249.726 67.253 89.308 0 172.583-22.45 249.726-67.253C824.2 883.541 883.54 824.2 927.75 749.728c44.803-77.143 67.253-160.418 67.253-249.726 0-89.308-22.45-172.583-67.253-249.726-44.209-74.473-103.55-133.814-178.022-178.023zM190.935 648.848V389.727c0-74.177 19.78-80.11 58.352-103.847 66.263-36.593 137.473-81.1 205.715-118.682 31.648-13.846 47.472-16.813 81.099 0 132.528 76.154 112.747 51.43 252.198 142.418 14.836 7.912 29.67 24.726 29.67 54.396V668.63c0 22.747-14.834 39.56-29.67 47.472-57.363 34.616-118.681 66.264-168.132 95.935-8.901 5.934-17.802 14.835-32.638 15.824-13.846 0-12.857-24.725-12.857-39.56v-153.3c0-38.571 7.912-38.571 45.495-38.571 42.528 0 46.484.989 94.945 0-65.275-108.791-132.528-206.703-207.692-310.55-73.187 103.847-139.45 202.748-206.704 311.54 53.407 0 43.517-.99 81.1-.99 52.417 0 52.417 5.935 52.417 43.517 2.967 48.462 4.945 77.143 4.945 124.616 0 23.736 6.923 62.308-18.791 62.308-32.637-12.857-143.407-87.033-185.935-110.77-28.681-24.725-43.516-32.637-43.516-67.253z" style="fill:#000;fill-opacity:1;fill-rule:nonzero;stroke:none;"/>
</svg>
