<svg xmlns="http://www.w3.org/2000/svg" width="1000" height="1000">
  <path d="M500.496 5C223.572 5 5 229.506 5 500.002c0 276.43 224.506 495.001 495.002 495.001 276.43 0 495.001-224.506 495.001-495.001C995.003 226.539 773.464 5 500.496 5zM116.76 559.837c-4.945-37.583-1.978-75.165 0-114.726 1.978-4.945 11.868-17.802 18.79-17.802h283.848c2.967 0 5.934 1.978 9.89 3.956-1.978 20.77-3.956 39.56-8.901 58.352-2.967 6.923-16.813 15.824-26.703 15.824-61.32 1.978-120.66 1.978-180.001 0-19.78 0-24.725 5.934-23.736 23.737C205.77 647.859 266.1 731.925 374.89 782.365c5.934 2.967 12.858 4.945 24.726 7.912 6.923-39.56 14.835-75.165 20.769-111.758 25.714-149.341 51.429-298.683 79.121-448.024 3.956-15.824 14.835-30.66 25.715-41.538 16.813-15.825 37.582-24.726 53.406-39.56 17.803-12.858 30.66-12.858 49.451-6.924 168.132 62.308 271.979 229.451 251.21 405.496-.99 20.77-8.901 31.648-34.616 31.648-87.033-1.978-175.055 0-263.078 0-26.703 0-28.681-3.956-22.747-33.626 9.89-53.407.989-45.495 55.385-45.495h165.165c16.813 0 24.726-5.934 22.748-22.747-10.88-118.682-89.012-224.506-207.693-263.078-1.978-1.978-5.935 0-10.88 0-7.912 41.539-14.835 83.077-23.736 125.605-25.714 149.341-51.429 298.682-77.143 447.034 0 3.956-1.978 11.868-4.945 14.836-29.67 20.769-60.33 43.516-90 63.296-4.946 3.956-16.814 0-23.737-2.967C224.562 808.08 141.484 708.19 116.76 559.837z" style="fill:#000;fill-opacity:1;fill-rule:nonzero;stroke:none;"/>
</svg>
