<svg xmlns="http://www.w3.org/2000/svg" width="1000" height="1000">
  <path d="M5 500.496c0 271.98 220.55 494.507 495.496 494.507 271.98 0 494.507-220.55 494.507-495.496C995.003 227.528 773.464 5 500.496 5 226.54 5 5 225.55 5 500.496zm78.132-140.44c-.989-3.956.99-5.934 6.923-5.934h53.407c17.802 0 34.615 0 52.418-.989 6.923 0 8.9 2.967 10.879 8.901 1.978 8.901 3.956 17.802 4.945 28.682.989 3.956-.989 5.934-6.923 5.934-6.923 0-12.857 1.978-19.78 0-7.913 0-7.913 2.967-6.924 8.9 6.924 33.627 10.88 66.265 16.814 97.913 9.89 59.341 20.769 117.693 31.648 175.056 0 5.934-.989 6.923-6.923 6.923h-34.615c-6.924 0-7.913-2.967-9.89-8.901-8.902-52.418-17.803-105.825-28.682-157.254-5.934-38.571-11.868-75.165-19.78-111.758 0-8.901-3.956-10.88-11.868-10.88-5.935 1.979-11.869 0-19.78 0-3.957 0-4.946-1.977-6.924-5.933-1.978-10.88-3.956-19.78-4.945-30.66zm140.44 5.934c-1.978-7.912 1.978-11.868 10.88-11.868h71.208c9.89 0 14.836 1.978 15.825 13.846 11.868 46.484 22.747 94.946 34.615 143.407 11.868 53.407 24.725 106.814 35.605 161.21 1.978 2.967 1.978 5.934 1.978 7.912 0 1.978-1.978 4.945-2.967 4.945h-39.561c-4.945 0-4.945-3.956-6.923-6.923-4.945-23.737-10.88-49.451-16.813-73.187-1.978-8.901-2.967-16.814-4.945-25.715-.99-3.956-1.978-4.945-8.902-4.945-17.802-1.978-17.802-1.978-14.835 15.824a1349.199 1349.199 0 0 0 11.868 85.056c1.978 9.89 1.978 9.89-9.89 9.89h-31.648c-4.945 0-7.912-.99-7.912-6.923-5.934-42.528-10.88-83.077-15.825-124.616-6.923-58.352-14.835-114.726-19.78-172.089 0-4.945-1.978-10.879-1.978-15.824zm51.429 38.572c4.945 38.571 10.88 78.132 13.846 115.714.99 8.902 3.956 11.869 11.868 9.89 4.945-.988 11.868 3.957 9.89-6.923-8.9-38.571-17.802-80.11-28.681-120.66 0-1.977-1.978-2.966-3.956-5.933-1.978 2.967-2.967 5.934-2.967 7.912zm95.934-14.835c0-9.89 1.978-18.792 0-27.693 0-5.934 2.967-8.901 9.89-7.912H486.65c4.945-.989 7.912 1.978 7.912 5.934 0 10.88-.989 19.78 0 29.67 0 4.946-2.967 6.924-8.901 6.924h-20.77c-4.944 0-5.933 2.967-5.933 7.912v269.012c0 11.868 0 11.868-12.858 11.868h-29.67c-5.934 0-8.901-.99-8.901-8.901V405.55c0-5.934-.99-8.901-8.901-8.901-6.923 1.978-12.857 0-19.78 0-5.935 0-7.913-1.978-7.913-6.923zm122.638 288.792c.99-42.528 2.967-83.077 5.934-123.627 1.978-39.56 3.956-77.143 5.934-114.726.99-25.714 2.967-49.45 4.945-74.176.99-7.912 3.956-11.868 12.858-11.868h71.209c9.89 0 12.857 1.978 14.835 13.846 1.978 23.737 2.967 48.462 3.956 74.176 1.978 43.517 4.945 87.034 6.923 130.55 1.978 34.616 3.956 71.21 5.934 105.825 0 5.934-1.978 6.923-7.912 6.923h-34.616c-4.945 0-6.923-.99-6.923-6.923-1.978-31.649-3.956-63.297-3.956-94.946-.989-7.912-2.967-8.9-10.879-8.9-17.802 0-14.835-1.979-15.824 14.834-1.978 28.682-1.978 57.363-2.967 87.034 0 5.934-.99 8.9-10.88 8.9h-30.659c-6.923 0-9.89-.988-7.912-6.922zm55.385-159.232c0 10.88 0 10.88 12.857 10.88 6.923 0 7.912-1.978 7.912-9.89-.989-17.803-.989-37.583-2.967-55.385-.989-20.77-.989-38.572-2.967-55.385-1.978-4.945 2.967-10.88-3.956-10.88s-4.945 5.935-4.945 10.88a18854.953 18854.953 0 0 0-5.934 109.78zm90 159.232c7.912-38.572 13.846-77.143 21.758-115.715 8.902-52.418 17.803-105.824 26.704-157.253 1.978-6.923-.99-8.901-6.923-8.901h-19.78c-5.935 0-7.913-1.978-5.935-5.934.99-10.88 1.978-19.78 3.956-30.66 1.978-3.956 3.957-5.934 8.902-5.934h106.813c6.923-.989 8.901 1.978 8.901 7.912-3.956 8.901-5.934 19.78-6.923 28.682 0 3.956-2.967 5.934-7.912 5.934h-20.77c-5.933 0-8.9 2.967-8.9 8.9-15.825 89.012-31.649 180.001-48.462 270.002-.99 9.89-.99 9.89-11.868 9.89H645.88c-4.945 0-7.912-.99-6.923-6.923zm105.825-36.594c1.978-14.835 3.956-27.692 7.912-41.538 13.846-80.11 26.703-158.243 39.56-238.353 1.978-5.934 5.934-8.901 10.88-8.901 10.879.989 22.747.989 33.626.989 5.934-.989 6.923 1.978 5.934 5.934-5.934 38.572-11.868 74.176-19.78 109.78-8.901 55.386-17.802 109.781-28.682 165.166-1.978 4.945 1.978 6.923 5.935 6.923 15.824 0 15.824 0 16.813-10.879 16.813-90 31.648-180 48.461-269.012 0-5.934 2.967-8.901 8.902-8.901 11.868.989 22.747.989 33.626.989 4.945-.989 6.923 1.978 4.945 7.912-8.901 51.429-17.802 102.858-24.725 153.297-7.912 39.56-14.835 79.122-20.77 119.671-4.945 21.758-15.824 38.572-36.593 46.484-10.88 3.956-22.747 3.956-32.638 5.934v-1.978h-14.835c-27.692 0-42.527-17.802-38.571-43.517z" style="fill:#000;fill-opacity:1;fill-rule:nonzero;stroke:none;"/>
</svg>
