<svg xmlns="http://www.w3.org/2000/svg" viewBox="0 0 1000 1000"><path d="M226.896 688.327H22.069C7.276 688.327 5 682.637 5 671.258V327.604c0-12.517 2.276-15.93 17.069-15.93h168.413c73.966 0 101.276 26.171 101.276 79.654v27.31c0 27.31-11.38 47.793-27.31 50.07 42.103 9.103 60.31 35.275 60.31 88.757v44.38c0 59.172-27.31 86.482-97.862 86.482zM125.62 601.845h64.862c15.931 0 19.345-11.38 19.345-26.173v-18.207c0-14.793-3.414-20.482-19.345-20.482H125.62zm0-146.793H170c12.517 0 20.482-4.552 20.482-19.345v-14.793c0-13.655-7.965-22.758-20.482-22.758h-44.38zm225.31-63.724v-63.724c0-12.517 5.69-15.93 20.483-15.93H646.79c15.931 0 21.62 3.413 21.62 15.93v63.724c0 15.931-5.689 18.207-21.62 18.207h-73.965v261.723c0 11.38-2.276 17.07-22.759 17.07h-85.344c-10.242 0-18.207-5.69-18.207-17.07V409.535h-75.103c-14.793 0-20.483-2.276-20.483-18.207zm350.482 279.93v-86.482c0-89.897 37.551-104.69 85.344-118.345l70.552-26.172c10.241 0 15.93-4.552 15.93-19.345 0-11.38-5.689-11.38-15.93-11.38H744.653c-17.069 0-20.483-2.275-20.483-18.206v-63.724c0-12.517 3.414-15.93 20.483-15.93h154.758c60.31 0 95.586 27.31 95.586 85.344v48.93c0 58.035-35.276 81.931-84.207 96.724l-70.551 20.483c-11.38 1.138-17.069 1.138-17.069 12.517v14.793h151.344c14.794 0 20.483 6.828 20.483 17.07v63.723c0 11.38-5.69 17.07-20.483 17.07H724.17c-11.379 0-22.758-5.69-22.758-17.07z"/></svg>