<svg xmlns="http://www.w3.org/2000/svg" viewBox="0 0 1000 1000"><path d="M500.68 995H100.872c25.838-38.077 54.396-73.434 84.314-107.431 54.395-76.154 115.59-150.948 168.626-221.662 44.876-47.597 87.033-103.352 126.47-153.668 4.08 0 4.08-4.08 9.519-14.959h-383.49c9.52-14.959 13.6-24.478 20.4-35.357 93.832-119.67 189.024-233.901 284.216-353.571 29.918-29.918 50.316-65.275 78.874-95.193C493.881 7.72 504.76 5 515.639 5h375.33c-131.91 163.188-261.1 323.655-390.289 488.202h398.448c-25.838 33.997-50.316 65.274-70.714 93.832-63.915 78.874-129.19 159.107-193.105 240.7C589.073 887.57 545.556 941.965 500.68 995z"/></svg>