<?xml version="1.0" encoding="UTF-8"?><svg id="a" xmlns="http://www.w3.org/2000/svg" viewBox="0 0 1000 1000"><polygon points="782.452 707.084 598.354 613.564 447.04 680.552 782.452 849.518 933.765 783.949 933.765 422.268 782.452 489.256 782.452 707.084"/><polygon points="217.548 285.551 401.646 378.292 552.96 312.723 217.548 142.338 66.235 207.907 66.235 569.588 217.548 502.601 217.548 285.551"/><polygon points="211.514 708.141 931.377 369.641 931.377 355.963 933.765 214.367 792.673 142.338 641.359 209.326 788.486 283.715 68.623 622.215 68.623 635.893 66.235 777.489 207.327 849.518 358.641 782.53 211.514 708.141"/><polygon points="500 153.118 552.96 181.522 679.054 96.033 500 0 320.946 96.033 447.04 181.522 500 153.118"/><polygon points="500 846.882 447.04 818.478 320.946 903.967 500 1000 679.054 903.967 552.96 818.478 500 846.882"/></svg>