<svg xmlns="http://www.w3.org/2000/svg" viewBox="0 0 1000 1000"><path d="M486.047,784.045l-8.863-5.909c.985-.985.985-1.97,1.97-2.954h49.24c-2.954,3.939-3.939,6.893-6.893,9.848-2.955-1.97-4.924-2.955-6.894-4.924-.985-.985-1.97-.985-1.97-1.97-.985,2.954-2.954,4.924-3.939,6.894-4.924,6.893-4.924,5.909-9.848,0S492.941,779.121,486.047,784.045ZM320.6,563.448c.985-3.94.985-9.849,1.97-14.773,0-5.908,3.939-7.878,8.863-6.893,3.94.985,7.879,1.969,10.833,2.954,19.7,9.848,39.393,21.666,60.074,30.529,12.8,5.909,21.665,16.742,30.529,27.575l2.954,5.909c1.97,3.939.985,7.878-3.939,8.863a69.75,69.75,0,0,1-13.787.985c-27.575-3.939-54.165-9.848-78.785-23.636a13.622,13.622,0,0,0-3.939-2.954C325.523,586.1,317.645,578.22,320.6,563.448Zm371.274,3.939c1.969,10.833-3.94,17.726-11.818,23.635-19.7,12.8-41.362,20.681-64.013,24.62-9.848.985-19.7,2.955-30.529,2.955-11.817,0-14.772-5.909-6.893-15.757,8.863-10.833,18.711-21.666,31.513-28.56,19.7-8.863,39.393-20.681,59.089-29.544A41.724,41.724,0,0,1,681.04,540.8c4.924-.985,7.878,1.97,8.863,7.878A109.062,109.062,0,0,1,691.873,567.387Zm-184.16,155.6v22.65c.985.985,3.939.985,4.924,2.955,6.894,13.787,19.7,6.893,31.514,6.893,7.879.985,13.788-1.969,22.651-2.954-1.97,5.909-1.97,10.833-2.955,15.757a3.44,3.44,0,0,1-.984,1.97c-9.848,4.924-8.864,14.772-14.773,22.65-6.893-9.848-.984-19.7-3.939-28.559H460.442a267.587,267.587,0,0,1-.984,27.574H456.5a92.944,92.944,0,0,1-2.954-8.863c-2.955-3.939-1.97-10.833-9.848-11.818a3.435,3.435,0,0,1-.985-1.969,107.619,107.619,0,0,0-7.879-14.772v-5.909c7.879,1.969,14.772,4.924,22.651,5.909,9.848.984,20.681,1.969,30.529,1.969,1.97,0,2.954-3.939,4.924-4.924,10.833-5.909,6.894-14.772,7.879-23.635,0-3.94-1.97-5.909-4.924-6.894a96.02,96.02,0,0,0-10.833-4.924c-24.621-12.8-28.56-36.438-25.6-57.119.984-13.787,8.863-17.727,19.7-16.742H525.44c15.757,0,24.62,7.879,23.635,22.651C549.075,687.534,544.151,711.169,507.713,722.987Zm-302.336-65c-.985,15.757,2.954,32.5,10.833,48.256,13.787,29.544,34.468,52.2,58.1,73.861,41.362,35.453,87.648,63.027,139.843,83.708s103.405,22.651,156.585,7.879c50.225-14.772,95.527-37.423,136.889-68.937,30.529-23.635,59.088-51.21,77.8-85.678,10.833-18.712,17.726-39.393,15.757-60.074a314.188,314.188,0,0,0-6.894-53.179c-5.909-36.438-16.742-71.891-33.484-105.375a29.972,29.972,0,0,1-.984-20.681c7.878-29.544,16.741-57.119,24.62-86.663,8.863-34.469,14.772-68.937,13.787-105.375-.985-18.711-4.924-37.423-14.772-54.164-2.954-4.924-4.924-4.924-9.848-4.924-31.514,4.924-57.119,18.711-79.77,37.422-26.59,20.681-49.24,46.286-69.921,72.876-2.955,5.909-6.894,6.894-13.788,4.924-25.605-8.863-51.21-12.8-77.8-15.757-44.317-2.954-88.633.985-130.98,14.773-7.879,2.954-12.8,1.969-17.727-3.94a561.793,561.793,0,0,0-80.754-79.769c-16.742-12.8-33.484-24.621-53.18-30.529-14.772-2.955-20.681,0-27.575,12.8-.984,1.97-1.969,3.939-1.969,5.909-1.97,13.787-6.894,26.59-5.909,41.362a740.505,740.505,0,0,0,4.924,80.754c3.939,36.438,11.818,72.876,24.62,106.36,4.924,10.833,4.924,19.7,0,30.529C223.1,552.615,207.346,602.84,205.377,657.989Zm298.4,238.324c-127.04-2.954-233.4-47.271-319.078-139.843-52.195-58.1-85.679-126.055-95.527-203.855C71.443,396.03,130.531,271.944,256.587,180.357a385.851,385.851,0,0,1,183.174-71.892C573.7,89.754,693.842,124.222,794.293,216.794c66.967,61.059,108.329,135.9,121.131,225.522,15.757,103.405-6.893,196.962-68.936,281.655C779.521,817.528,685.964,871.693,572.711,890.4a99.2,99.2,0,0,1-24.621,2.955C533.318,895.328,518.546,895.328,503.774,896.313ZM499.835,5.06C224.088,5.06,6.445,228.612,6.445,497.465c0,275.747,223.552,493.39,493.39,493.39,274.762,0,492.405-223.552,492.405-493.39C992.24,225.658,771.642,5.06,499.835,5.06Z"/></svg>