<?xml version="1.0" encoding="UTF-8"?><svg id="a" xmlns="http://www.w3.org/2000/svg" viewBox="0 0 1000 1000"><path d="M500,0C223.858,0,0,223.858,0,500s223.858,500,500,500,500-223.858,500-500S776.142,0,500,0Zm-216.484,109.612c1.574-.262,3.141-.388,4.686-.388,13.628,0,25.644,9.846,27.948,23.729l61.006,367.453,5.518,33.238,14.773,88.979c2.567,15.458-7.884,30.068-23.341,32.635-1.573,.261-3.138,.387-4.681,.387-13.626,0-25.649-9.844-27.953-23.728l-16.416-98.875-2.233-13.45-62.649-377.347c-2.567-15.457,7.884-30.068,23.341-32.634Zm309.35,587.289c17.443,0,31.583,14.14,31.583,31.583s-14.14,31.583-31.583,31.583-31.583-14.14-31.583-31.583,14.14-31.583,31.583-31.583Zm-12.481-69.63c0-17.443,14.14-31.583,31.583-31.583s31.583,14.14,31.583,31.583-14.14,31.583-31.583,31.583-31.583-14.14-31.583-31.583Zm-43.593-39.567c-17.443,0-31.583-14.14-31.583-31.583s14.14-31.583,31.583-31.583,31.583,14.14,31.583,31.583-14.14,31.583-31.583,31.583Zm-21.567,43.107c17.443,0,31.583,14.14,31.583,31.583s-14.14,31.583-31.583,31.583-31.583-14.14-31.583-31.583,14.14-31.583,31.583-31.583Zm-20.334,102.445c17.443,0,31.583,14.14,31.583,31.583s-14.14,31.583-31.583,31.583-31.583-14.14-31.583-31.583,14.14-31.583,31.583-31.583Zm-56.69-108.909c-17.443,0-31.583-14.14-31.583-31.583s14.14-31.583,31.583-31.583,31.583,14.14,31.583,31.583-14.14,31.583-31.583,31.583Zm-19.718,38.047c17.443,0,31.583,14.14,31.583,31.583s-14.14,31.583-31.583,31.583-31.583-14.14-31.583-31.583,14.14-31.583,31.583-31.583Zm89.807,228.382c-128.087,0-231.922-103.835-231.922-231.922,0-49.51,15.524-95.388,41.956-133.055l16.173,97.411c-2.355,11.605-3.569,23.531-3.569,35.644,0,47.375,18.449,91.915,51.949,125.415,33.499,33.499,78.039,51.949,125.415,51.949s91.915-18.449,125.415-51.949c33.499-33.499,51.948-78.039,51.948-125.415s-18.449-91.915-51.948-125.415c-33.499-33.499-78.039-51.948-125.415-51.948-45.257,0-87.919,16.847-120.848,47.556l-10.217-61.54c37.288-25.59,82.424-40.576,131.065-40.576,128.087,0,231.922,103.835,231.922,231.922s-103.835,231.922-231.922,231.922Z"/></svg>