<svg xmlns="http://www.w3.org/2000/svg" viewBox="0 0 1000 1000"><path d="M499.507 995.003h.99c89.01 0 172.088-22.45 249.23-67.253 74.474-44.209 133.814-103.55 178.023-178.022 44.803-77.143 67.253-160.418 67.253-249.726 0-89.308-22.45-172.583-67.253-249.726-44.209-74.473-103.55-133.814-178.022-178.023C672.585 27.45 589.31 5 500.002 5c-89.308 0-172.583 22.45-249.726 67.253-74.473 44.209-133.814 103.55-178.023 178.023C27.451 327.419 5 410.694 5 500.002c0 89.308 22.45 172.583 67.253 249.726C116.462 824.2 175.803 883.54 250.276 927.75c77.143 44.803 160.22 67.253 249.231 67.253zM123.682 439.177C161.264 215.66 374.892 86.1 574.672 122.693 467.86 272.033 362.034 420.386 256.21 568.738h211.649c-20.77 101.869-37.583 201.759-56.374 301.65-171.1-37.583-321.43-216.595-287.803-431.21zm313.517 436.156c106.814-150.33 212.638-295.716 319.452-446.046H548.958c16.813-99.89 32.637-201.759 51.429-299.671 112.747 30.66 197.802 90.99 249.231 191.869 70.22 148.352 58.352 288.792-44.505 417.364-95.935 125.604-249.232 160.22-367.914 136.484z"/></svg>