<?xml version="1.0" encoding="UTF-8"?><svg id="a" xmlns="http://www.w3.org/2000/svg" viewBox="0 0 1000 1000"><path d="M527.643,235.552c.316,16.134-13.574,29.339-29.714,28.875-15.186-.436-28.626-14.011-28.253-28.702,.468-18.43,14.754-29.178,30.147-28.004,20.199-.871,27.576,15.361,27.82,27.831Zm437.929,745.806H34.428c-27.057,0-44.451-28.72-31.917-52.698L468.083,37.973c13.473-25.775,50.362-25.775,63.835,0l465.572,890.687c12.534,23.979-4.861,52.698-31.917,52.698Zm-76.995-108.373c-2.948-6.237-6.083-12.409-9.518-18.389-30.453-53.006-60.912-106.009-91.525-158.922-42.13-72.819-84.481-145.51-126.57-218.352-25.65-44.391-50.981-88.965-76.464-133.452-8.984-15.684-17.772-31.487-27.106-46.961-3.587-5.945-3.725-10.937,.672-16.182,.839-1,1.43-2.205,2.178-3.286,14.993-21.662,17.935-44.661,7.904-69.214-9.526-23.317-27.023-37.891-50.862-44.092-20.601-5.359-39.868-.883-58.582,9.878-31.097,17.881-46.905,63.905-23.258,99.74,15.07,22.838,36.038,36.014,63.891,36.74,5.53,.144,9.417,2.245,12.205,6.827,1.537,2.527,3.2,4.98,4.672,7.543,39.618,68.964,79.143,137.982,118.846,206.897,29.694,51.541,59.685,102.911,89.414,154.433,30.554,52.951,60.959,105.988,91.39,159.01,1.727,3.009,3.095,6.223,5.453,11.016-179.828,.564-357.843,1.136-535.858,1.67-34.518,.104-69.037,.072-103.556,.029-1.178-.002-2.355-.808-4.734-1.68,1.506-3.379,2.377-5.833,3.631-8.071,19.604-34.976,39.172-69.973,58.926-104.865,18.942-33.46,38.183-66.75,57.117-100.214,17.472-30.88,34.641-61.93,52.071-92.833,17.594-31.195,35.266-62.347,53.099-93.406,3.28-5.713,4.88-11.608,3.744-17.922-1.647-9.151-6-17.019-15.081-20.417-9.28-3.472-17.541-.585-23.858,6.984-3.14,3.761-6.081,7.778-8.521,12.019-13.269,23.063-26.297,46.265-39.515,69.358-21.383,37.359-42.911,74.636-64.265,112.012-34.076,59.646-68.064,119.343-102.08,179.024-13.021,22.845-25.607,45.951-39.161,68.474-9.521,15.821-3.36,33.112,12.352,39.002,5.361,2.01,11.404,3.082,17.137,3.087,107.181,.102,214.361-.007,321.542-.101,127.236-.112,254.472-.236,381.708-.425,8.205-.012,16.49-.021,24.596-1.1,16.927-2.251,25.3-18.342,17.964-33.86Zm-319.421-316.275c-1.419,8.903-1.432,8.567-7.565,8.815-8.153,.33-16.51,.265-24.38,2.093-25.922,6.018-51.669,12.793-77.471,19.323-6.859,1.736-12.534,4.857-16.668,11.198-3.903,5.987-8.77,11.474-13.853,16.539-11.494,11.453-25.977,15.996-41.856,17.285-15.389,1.25-30.765,2.764-46.092,4.619-9.768,1.182-12.335,4.003-10.06,12.76,3.543,13.639,8.21,26.998,12.715,40.37,1.76,5.224,6.073,7.532,11.561,7.565,2.959,.018,5.917,.074,8.876,.074,45.041,.005,90.085,.24,135.122-.189,9.312-.089,15.12,3.042,20.235,10.667,11.349,16.917,23.474,33.316,35.407,49.837,2.18,3.018,4.947,5.613,8.307,9.37,3.903-5.51,6.826-9.791,9.907-13.957,7.422-10.036,14.624-20.255,22.468-29.954,7.464-9.23,7.86-9.043,1.342-18.327-15.485-22.057-31.177-43.971-46.527-66.122-4.17-6.018-9.396-8.794-16.57-8.665-7.559,.136-15.125,.115-22.683-.042-5.754-.12-10.738,.959-15.509,4.813-6.583,5.318-15.621,4.181-20.381-1.567-4.985-6.02-4.769-13.55,.535-18.67,5.583-5.39,13.725-5.414,20.212,1.012,3.972,3.934,8.193,4.893,13.295,4.859,9.862-.066,19.73,.293,29.586,.059,5.829-.138,9.983,1.865,13.282,6.709,5.549,8.146,11.475,16.035,17.242,24.033,11.534,15.995,22.933,32.091,34.67,47.936,4.659,6.29,5.877,5.895,11.646,1.074,14.864-12.42,29.939-24.588,44.868-36.931,2.642-2.184,4.986-4.729,8.038-7.654-3.926-4.176-7.301-7.281-10.104-10.836-9.341-11.85-19.199-23.381-27.547-35.909-19.271-28.923-31.943-61.051-43.442-93.657-1.093-3.098-1.913-6.346-3.419-9.232-3.409-6.533-10.672-7.295-15.337-1.658-1.432,1.73-2.225,3.996-3.261,6.043-6.373,12.594-12.78,25.171-19.032,37.825-.764,1.546-.663,3.519-1.048,5.803,8.065,.923,15.448,1.769,23.493,2.69Zm-15.422,214.838c-13.377-18.715-26.589-37.554-39.488-56.6-4.713-6.959-10.513-10.038-18.915-9.998-43.064,.204-86.13,.064-129.195,.163-3.438,.008-6.875,.915-12.363,1.696,2.334,4.877,3.365,7.998,5.161,10.588,3.929,5.667,7.919,11.355,12.481,16.506,6.911,7.802,15.432,12.979,25.973,14.919,24.292,4.471,48.726,7.949,73.431,7.104,11.201-.383,17.372,3.999,22.511,13.433,10.685,19.619,22.304,38.731,33.624,58.002,1.413,2.406,3.34,4.511,6.125,8.213,2.323-4.54,4.082-7.507,5.411-10.657,5.487-13.009,10.436-26.264,16.436-39.028,2.62-5.573,2.281-9.484-1.191-14.341Z"/></svg>