<svg xmlns="http://www.w3.org/2000/svg" viewBox="0 0 1000 1000"><path d="M5 500.002v.395-.395c.099-89.506 22.55-172.682 67.253-249.726 44.209-74.473 103.55-133.814 178.023-178.023C327.419 27.45 410.694 5 500.002 5c89.308 0 172.583 22.45 249.726 67.253C824.2 116.462 883.54 175.803 927.75 250.276c44.803 77.143 67.253 160.418 67.253 249.726 0 89.308-22.45 172.583-67.253 249.726C883.541 824.2 824.2 883.54 749.728 927.75c-77.143 44.803-160.418 67.253-249.726 67.253-89.308 0-172.583-22.45-249.726-67.253-74.473-44.209-133.814-103.55-178.023-178.022C27.55 672.684 5.099 589.508 5 500.002zm109.78 10.384c4.946 5.934 9.89 11.868 14.836 18.792 66.264 72.198 130.55 142.418 195.825 213.627 1.978 1.978 1.978 2.967 3.956 5.934 57.363-63.297 115.714-123.627 172.088-186.924 60.33 63.297 117.693 123.627 177.034 184.946 1.978-.99 3.956-1.978 4.945-3.956 68.242-72.198 133.517-146.374 201.759-220.55 3.956-2.968 7.912-8.902 10.879-13.847v-2.967c-2.967-12.857-9.89-20.77-16.813-28.681-65.275-71.21-129.561-139.451-193.847-209.671-1.978-1.978-2.967-3.956-4.945-6.923-61.32 64.286-118.682 126.594-180.99 192.857-55.385-64.285-112.747-126.593-170.11-190.88-1.978.99-3.956 2.968-3.956 4.946-65.275 70.22-133.517 142.418-198.792 214.616-4.945 4.945-8.901 10.879-11.868 16.813zm105.825 7.912L327.42 631.046c1.978.989 2.967 2.967 4.945 3.956 40.55-43.517 79.12-87.033 120.66-131.539-41.54-43.516-80.11-86.044-122.638-131.539-38.572 40.55-74.176 79.121-109.78 119.671-7.913 6.923-7.913 16.813 0 26.703zm334.287-12.857c42.528 43.517 83.077 84.066 123.627 125.605 9.89-7.912 19.78-13.846 27.692-23.736 24.725-26.704 50.44-53.407 73.187-80.11 13.846-15.825 13.846-30.66 0-45.495-26.703-30.66-53.407-58.352-80.11-88.022-6.923-6.924-15.824-11.869-21.758-20.77-40.55 44.506-83.077 90-122.638 132.528z"/></svg>