<svg xmlns="http://www.w3.org/2000/svg" viewBox="0 0 1000 1000"><path d="M428.025 263.627c4.812-7.217 4.812-13.232 8.42-16.84H784.09V78.376H568.767c-3.61-31.275-6.015-48.116-12.03-73.377h-86.61c-2.405 26.464-7.217 50.522-9.623 76.987H201.877c0 40.899-3.609 87.813 0 121.494-3.609 36.088 12.03 60.146 37.29 86.61 75.784 60.146 151.568 122.698 228.555 192.467-18.044 13.232-31.276 28.87-46.914 44.508-63.755 62.552-126.306 128.712-186.452 192.467-13.232 12.029-27.667 25.26-27.667 44.508-4.812 55.334-4.812 107.06-4.812 167.205H462.91c4.812 26.464 4.812 45.71 7.217 63.755h92.625c0-22.856 2.406-42.103 6.015-63.755h230.96v-169.61H409.982l279.076-279.077c-85.407-76.987-174.423-147.959-261.033-218.93z"/></svg>