<svg xmlns="http://www.w3.org/2000/svg" viewBox="0 0 1000 1000"><path d="M500,995c273.38,0,495-221.62,495-495S773.38,5,500,5,5,226.62,5,500,226.62,995,500,995ZM201,285.73,346.73,140H416c-18.76,10.82-80.8,88-96.67,145.73ZM486.69,140V285.73h-140c9.86-30.06,45-101.29,106.78-145.73Zm28.14,145.73h141.4C623.33,207.24,569.9,155.87,547.29,140H514.83Zm283.52,0H683.65c-18-43.28-50.65-103-97.4-145.73h64.93ZM315.71,714.27H201L348.17,860H413.1C366.36,817.29,333.74,757.55,315.71,714.27Zm27.41,0H484.53V860H452.06C429.46,844.13,376,792.76,343.12,714.27Zm169.54,0V860h33.19c61.75-44.44,96.91-115.67,106.77-145.73ZM652.62,860,798.35,714.27H680C664.17,772,602.12,849.18,583.36,860ZM396.81,608.54q7.51-21.57,7.51-48.3,0-27.66-7-47.83-6.57-20.16-18.29-32.83a67.26,67.26,0,0,0-26.73-19.22,77.46,77.46,0,0,0-31.41-6.57,59.41,59.41,0,0,0-16,2.35,33.1,33.1,0,0,0-13.13,7l-.47-.47,67.53-126.61H297.4L231.75,464.58A284.37,284.37,0,0,0,212.52,511a175.51,175.51,0,0,0-7,50.65q0,26.26,7,47.36,7.5,21.11,20.63,35.64a90.76,90.76,0,0,0,31.42,22.51,105.36,105.36,0,0,0,40.33,7.5,104,104,0,0,0,39.86-7.5,90.67,90.67,0,0,0,31.42-22.51A110.18,110.18,0,0,0,396.81,608.54Zm-57.21-96.6q11.26,18.77,11.26,47.83,0,30.48-12.19,49.71-11.73,18.75-33.3,18.76T271.61,610q-12.19-18.76-12.2-49.24A102.58,102.58,0,0,1,262.7,534a68.54,68.54,0,0,1,9.38-21.1,46,46,0,0,1,14.53-14.54,36.14,36.14,0,0,1,19.23-5.16Q328.36,493.18,339.6,511.94ZM722.26,413l-.94,255.11h54.86v-332H696.93L634.57,579h-1.88L568.91,336.09h-75.5v332h51.12L543.59,413H545L610.18,668.1h44.08L720.85,413Z" fill-rule="evenodd"/></svg>