<svg xmlns="http://www.w3.org/2000/svg" viewBox="0 0 1000 1000"><path d="M500.496 5C223.572 5 5 229.506 5 500.002c0 276.43 224.506 495.001 495.002 495.001 276.43 0 495.001-224.506 495.001-495.001C995.003 226.539 773.464 5 500.496 5zM146.43 694.343v-23.736c7.912-9.89 10.88-20.77 17.802-24.726 9.89-5.934 12.857-12.857 12.857-26.703V382.803c0-15.824 0-30.659-16.813-39.56-5.934-2.967-5.934-9.89-13.846-16.813v-23.737c20.77-33.626 41.539-41.538 72.198-23.736 2.967 3.956 13.846 3.956 16.813 0 72.198-40.55 143.407-83.077 218.572-123.627 3.957-3.956 10.88-9.89 10.88-16.813 0-20.77 9.89-33.627 27.692-41.539h26.703c20.77 7.912 31.649 20.77 31.649 41.539 2.967 2.967 5.934 10.88 9.89 12.857 71.21 44.506 146.374 87.033 221.54 131.539 3.955 0 13.845 1.978 17.802 0 23.736-21.758 57.362-10.88 68.241 19.78v23.737c-3.956 6.923-6.923 16.813-17.802 19.78-9.89 9.89-9.89 16.813-9.89 30.66 0 78.131 0 157.253-3.956 235.385 0 13.846 0 27.692 17.802 37.582 6.923 3.956 9.89 13.847 13.846 20.77v23.736c-17.802 30.66-33.626 38.572-65.274 24.725-6.924-3.956-12.858-3.956-16.814 0-75.165 44.506-150.33 85.056-225.495 129.561-6.923 3.956-9.89 9.89-9.89 13.846 2.967 23.737-10.88 40.55-31.649 50.44h-26.703c-17.802-9.89-27.692-26.703-27.692-47.473 0-6.923-6.923-12.857-10.88-16.813-75.165-44.505-146.374-85.055-221.539-129.56-6.923-3.957-13.846-3.957-20.769 0-30.66 13.846-47.473 5.933-65.275-24.726zm55.385-68.242c0 17.802 16.813 27.692 30.66 17.802 72.197-52.418 143.406-99.89 215.604-151.319 3.956-2.967 9.89-9.89 9.89-16.813 0-20.77 9.89-37.583 26.704-44.506 7.912-5.934 10.88-13.846 10.88-23.736v-211.65c0-19.78-16.814-30.659-33.627-19.78-72.198 40.55-143.407 82.089-215.606 122.638-6.923 3.956-6.923 13.846-13.846 20.77-6.923 9.89-10.879 23.736-20.769 29.67-6.923 6.923-9.89 13.846-9.89 23.736V496.54zm41.538 75.165c75.166 41.539 150.33 86.044 224.507 126.594 6.923 3.956 13.846 3.956 20.769 3.956h34.615c9.89 0 19.78 0 27.693-3.956 71.209-40.55 146.374-85.055 221.54-126.594 6.922-6.923 9.89-12.857 17.801-20.77-7.912-9.89-10.879-16.813-13.846-19.78-75.165-48.461-148.352-95.934-219.561-144.396-5.934-2.967-16.813-2.967-19.78 0-20.77 10.88-41.539 10.88-58.352-2.967-6.923-2.967-13.846-2.967-20.77 0-72.197 51.43-143.407 98.902-214.616 147.363-13.846 13.847-13.846 29.67 0 40.55zm275.935-293.737c0 9.89 3.956 17.802 9.89 19.78 21.759 10.88 31.649 27.692 31.649 52.418-3.956 9.89 0 12.857 9.89 19.78 72.198 47.473 144.396 95.935 215.605 140.44 3.956 3.956 13.847 5.934 19.78 3.956 3.957-3.956 10.88-13.846 10.88-20.77V369.947c0-6.923-6.923-13.846-10.88-20.77-5.933-8.9-13.846-15.823-19.78-25.713-6.923-10.88-9.89-20.77-16.813-24.726C697.31 258.187 628.08 216.65 556.87 176.1c-19.78-10.879-37.583-2.967-37.583 23.737z"/></svg>