<svg xmlns="http://www.w3.org/2000/svg" width="1000" height="1000">
  <path d="M500.496 5c272.968 0 494.507 221.54 494.507 495.002 0 270.495-218.572 495.001-495.001 495.001C229.506 995.003 5 776.431 5 500.002 5 229.506 223.572 5 500.496 5zM295.77 710.167c0 11.868 3.956 15.824 15.824 15.824H437.2c-3.956 19.78-7.912 36.594-7.912 55.385 0 4.945 0 12.857 3.956 12.857 14.835 0 30.66 0 47.473-3.956 3.956 0 7.912-14.835 7.912-27.692 7.912-36.594 7.912-36.594 47.473-36.594 93.956-7.912 146.374-51.428 162.198-139.45 11.868-66.265-19.78-112.748-85.055-121.65-43.517-8.9-88.022-3.955-132.528-8.9-51.429 0-90-16.814-76.154-60.33 6.923-38.572 38.571-52.418 95.934-52.418 69.231-2.967 133.517 0 201.76-2.967 3.955 0 20.768-3.956 20.768-8.901 1.978-15.825 7.913-30.66 7.913-51.429h-141.43c3.957-20.77 3.957-36.594 7.913-57.363 3.956-6.923 0-12.857-11.869-12.857-39.56-1.978-43.516 0-51.428 41.539-3.956 24.725-10.88 28.681-24.726 28.681-20.769 0-36.593 3.956-57.363 7.912-47.472 7.912-88.022 36.594-103.846 84.066-27.692 77.143 8.901 135.495 85.055 144.396 43.517 4.945 84.066 3.956 127.583 3.956 38.572 0 76.154 12.858 76.154 49.451 5.934 47.473-26.703 84.066-76.154 92.967H345.221c-45.495 0-45.495 2.968-49.45 47.473z" style="fill:#000;fill-opacity:1;fill-rule:nonzero;stroke:none;"/>
</svg>
