<?xml version="1.0" encoding="utf-8"?>
<!-- Generator: Adobe Illustrator 26.0.1, SVG Export Plug-In . SVG Version: 6.00 Build 0)  -->
<svg version="1.1" id="Layer_1" xmlns="http://www.w3.org/2000/svg" xmlns:xlink="http://www.w3.org/1999/xlink" x="0px" y="0px"
	 viewBox="0 0 1000 1000" style="enable-background:new 0 0 1000 1000;" xml:space="preserve">
<g>
	<ellipse cx="500" cy="500" rx="75.5" ry="168.8"/>
	<path d="M500.5,5C223.6,5,5,229.5,5,499.5C5,773.5,226.5,995,499.5,995C776.4,995,995,770.5,995,499.5C995,223.6,770.5,5,500.5,5z
		 M500,877.5c-203.6,0-369.5-161.2-377.2-362.9c-0.2-4.8-0.3-9.7-0.3-14.6s0.1-9.8,0.3-14.6c7.7-201.7,173.6-362.9,377.2-362.9
		c208.5,0,377.5,169,377.5,377.5S708.5,877.5,500,877.5z"/>
</g>
</svg>
