<svg xmlns="http://www.w3.org/2000/svg" width="1000" height="1000">
  <path d="M5 406.203h549.087c42.449 0 49.295 6.847 49.295 47.926v108.174c0 32.863-10.954 45.187-45.187 45.187h-115.02c-31.494 0-43.818-12.324-43.818-45.187v-83.527h-90.373c0 41.079-5.477 83.527 0 119.128 6.846 62.988 64.357 104.067 125.975 108.175H567.78c80.789-4.108 135.56-69.834 130.083-135.56V443.174c5.477-68.464-53.402-135.56-130.083-135.56H7.74L5 303.506c2.74-45.186 0-94.481 2.74-139.668C25.54 73.465 106.327 6.37 202.178 6.37h101.328v223.195h95.85V6.37H800.56c95.85 0 179.378 78.05 190.332 169.793 4.108 20.54 4.108 36.97 4.108 57.51v554.564c0 102.697-62.987 179.378-165.684 205.394H196.702C95.374 993.63 5 901.888 5 800.56V426.743z" style="fill:#000;fill-opacity:1;fill-rule:nonzero;stroke:none;"/>
</svg>
