<svg xmlns="http://www.w3.org/2000/svg" viewBox="0 0 1000 1000"><path d="M275.627 272.866c6.904 5.523 9.666 11.046 12.427 13.808 67.657 63.514 132.553 132.552 198.829 197.447 15.188 13.808 15.188 13.808 28.995 0A73921.247 73921.247 0 0 1 981.192 18.807c2.762-5.523 5.523-8.284 8.285-11.046V5c-237.49 88.368-476.36 176.736-713.85 267.866zM10.523 995h5.523c233.347-88.369 470.837-176.737 711.088-265.105l-13.808-13.807c-63.515-69.038-131.171-132.553-200.21-200.21-11.045-13.807-11.045-13.807-26.233 0-154.645 156.025-310.67 312.05-465.314 468.076z"/></svg>