<svg xmlns="http://www.w3.org/2000/svg" width="1000" height="1000">
  <path d="M5 500.496C5 225.55 226.54 5 500.496 5c272.968 0 494.507 222.528 494.507 494.507 0 274.946-222.528 495.496-494.507 495.496C225.55 995.003 5 772.475 5 500.496zm214.616-199.78c-9.89 39.56 4.945 70.22 32.638 96.923C323.463 468.848 393.683 536.1 466.87 610.277c-40.55 36.593-76.154 69.23-109.78 106.813-18.792 17.803-42.529 30.66-64.287 7.912-24.725-23.736-15.824-45.494 5.934-67.253 33.627-26.703 64.286-57.362 96.924-85.055l-51.43-48.462c-29.67 30.66-58.35 62.308-89.01 92.968-47.473 46.483-52.418 107.802-8.902 151.319 42.528 43.517 103.847 40.55 153.298-7.912 32.637-35.605 67.253-72.198 103.846-113.737 37.583 38.572 68.242 66.264 93.957 96.924l28.681 28.681c45.495 36.594 103.846 32.638 140.44-3.956 40.55-39.56 42.528-100.88 3.956-139.451-36.593-42.528-77.143-80.11-118.682-123.627 35.605-36.593 72.198-71.209 105.825-103.846 49.45-49.451 55.385-110.77 8.901-153.298-42.528-46.483-103.846-39.56-152.308 9.89-33.627 32.638-67.253 70.22-107.803 112.748-24.725-26.703-39.56-48.461-58.352-67.253-21.758-21.758-40.55-40.55-60.33-57.363-61.318-56.373-154.286-25.714-168.132 54.396zm66.264 36.593c-24.725-28.682 31.649-75.165 58.352-46.484 41.539 34.616 76.154 78.132 116.704 112.748-18.792 18.791-36.594 34.615-55.385 49.45-36.594-32.637-79.121-72.198-119.67-115.714zm162.198 165.165c15.825-15.824 33.627-29.67 45.495-39.56 56.374-52.418 110.77-106.814 163.187-162.199 20.77-21.758 45.495-30.66 67.253-9.89 21.759 24.725 9.89 46.484-8.9 68.242-37.583 34.616-70.22 66.264-107.803 103.847-14.835-16.814-22.748-25.715-38.572-37.583-11.868 12.857-27.692 25.714-46.484 46.484 27.693 23.736 58.352 52.417 85.056 79.12 37.582 37.583 73.187 73.188 109.78 110.77 18.792 17.803 28.682 39.561 6.923 61.32-21.758 20.769-43.516 14.835-65.275-5.935-32.637-34.615-68.242-68.242-108.791-104.835 16.813-18.792 28.681-30.66 42.527-44.506-13.846-12.857-26.703-24.725-45.494-41.538-4.945 6.923-22.747 22.747-40.55 36.593-17.802-16.813-27.692-29.67-58.352-60.33z" style="fill:#000;fill-opacity:1;fill-rule:nonzero;stroke:none;"/>
</svg>
