<svg xmlns="http://www.w3.org/2000/svg" width="1000" height="1000">
  <path d="M995.002 232.265c-18.698 14.298-38.496 27.497-53.894 40.696C775.026 74.982 504.456 47.485 308.678 165.172 129.398 275.16 7.31 525.932 119.498 785.504c-20.897 5.5-40.695 17.598-63.792 25.297-18.698-38.496-32.997-78.091-37.396-118.787-38.496-186.98 6.599-351.96 134.185-490.546C351.573-21.807 712.333-40.505 943.307 173.971c19.798 15.399 32.997 34.097 51.695 50.595zm-812.81 459.75c-58.294-186.98 32.996-388.258 206.777-470.749 186.979-89.09 378.358-16.498 482.846 108.888-19.798 13.199-36.296 27.497-54.994 41.796-125.386-125.387-269.47-161.683-427.852-65.993C274.58 374.149 215.188 514.934 243.785 643.62c25.297 131.985 140.784 256.27 311.265 260.67v72.593c-128.685 1.1-311.265-83.591-372.858-284.869zm144.084-116.588c2.2-98.989 70.392-189.179 163.881-221.075 98.99-29.697 201.278 10.998 255.172 76.991-18.698 16.498-38.495 30.797-58.293 46.195-37.396-40.696-81.391-63.793-137.485-56.094-41.795 4.4-75.892 17.598-103.389 48.395-53.894 63.793-57.193 152.883 0 214.476 32.997 35.196 73.692 51.694 122.087 51.694 45.095 0 85.79-20.897 116.587-54.994 16.498 19.798 32.996 38.496 47.295 58.294-58.294 63.793-156.183 91.29-248.573 61.593-91.29-35.196-157.282-125.386-157.282-225.475z" style="fill:#000;fill-opacity:1;fill-rule:nonzero;stroke:none;"/>
</svg>
