<svg xmlns="http://www.w3.org/2000/svg" viewBox="0 0 1000 1000"><path d="M279.257 385.676c9.73 8.513 13.378 15.81 13.378 27.973 0 17.027-3.649 23.108-13.378 30.405L472.635 793.11c15.81-15.811 35.27-10.946 47.433 0L707.365 455c-20.676-10.946-24.324-26.757-24.324-43.784 0-10.946 3.648-25.54 24.324-34.054L499.392 5h-8.514zM53.04 137.568l17.027 373.378c0 51.081 14.595 93.649 32.838 141.081L219.662 455c-18.243-10.946-29.19-24.324-29.19-41.351 0-19.46 10.947-27.973 29.19-36.487L60.338 102.297c-7.298 10.946-7.298 18.244-7.298 35.27zM84.662 95l153.243 270h24.325L472.635 5C316.96 5 184.392 36.622 84.662 95zm27.973 580.136c15.81 27.973 29.19 57.162 45 75.405 32.838 3.649 131.351 32.838 290.676 69.324 0 0 0-9.73 10.946-20.675L262.23 455c-4.865 9.73-9.73 9.73-19.46 9.73h-4.865zm60.81 108.243c35.271 36.486 69.325 68.108 115.541 97.297l180 114.325h13.379V880.676c-13.379 0-34.054-18.243-34.054-36.486-131.352-34.054-218.92-51.081-274.865-60.811zM323.04 455l145.946-90v-93.649c0-17.027 3.65-26.756 21.892-26.756 19.46 0 29.19 9.73 29.19 26.756v93.65L657.5 455l-15.81 38.918-121.622-49.865V545l31.621 26.757v24.324l-60.81-14.594-59.595 14.594v-24.324L468.986 545V444.054l-127.702 37.703zm176.352 540h20.676l177.567-114.324c41.352-29.189 88.784-60.81 114.325-108.243L549.257 844.19c-9.73 18.243-21.892 36.486-49.865 36.486zM520.068 5 721.96 365h29.189L898.31 95C801.014 36.622 669.662 14.73 520.068 5zm19.459 794.19c0 10.946 0 20.675 9.73 20.675l289.46-69.324c8.513-18.243 29.189-47.432 30.405-68.108L751.149 464.73h-29.19zM766.96 377.162c7.297 8.514 18.243 15.811 19.46 36.487 0 23.108-9.73 27.973-18.244 35.27l113.108 211.622c17.027-48.649 36.487-98.514 36.487-149.595l29.189-373.378c0-12.163-12.162-24.325-19.46-35.27z"/></svg>