<svg xmlns="http://www.w3.org/2000/svg" width="1000" height="1000">
  <path d="M5 500.496C5 225.55 226.54 5 500.496 5c272.968 0 494.507 222.528 494.507 494.507 0 274.946-222.528 495.496-494.507 495.496C225.55 995.003 5 772.475 5 500.496zM146.429 617.2c0 10.879 9.89 25.714 13.846 25.714 24.726 0 54.396 0 81.1-11.868 7.912-2.967 12.857-25.714 15.824-39.56V475.77c0-20.77 7.912-43.517 29.67-50.44 35.605-6.923 39.56-31.648 39.56-61.319V345.22c-3.955-42.528-18.79-53.407-57.362-42.528-32.638 6.923-61.32 13.846-90.99 21.759-21.758 3.956-31.648 14.835-31.648 35.604zm126.594 108.79c1.978 20.77 13.846 35.605 34.615 32.638 40.55-7.912 84.067-19.78 123.627-32.638 25.715-6.923 29.67-47.472 4.945-58.351-36.593-13.847-36.593-39.561-36.593-72.198V471.815c0-16.814-3.956-32.638-3.956-53.407-32.638 6.923-58.352 10.88-84.067 13.846-28.681 6.923-38.571 25.715-38.571 55.385v176.044zm140.44-149.34c0 77.142 10.88 84.065 83.077 62.307h2.967c25.715-3.956 33.627-18.791 33.627-43.516V479.727c0-24.726 5.934-47.473 35.604-54.396 21.758-6.923 28.682-20.77 25.715-43.517V336.32c-3.957-29.67-14.836-41.539-47.473-36.594-28.682 6.923-62.308 13.846-90 20.77-36.594 10.879-43.517 18.79-43.517 57.362V487.64zm133.517 98.9c0 17.803 0 35.605 2.967 50.44 0 20.77 11.868 35.605 33.626 32.638 43.517-7.912 82.089-19.78 121.65-32.638 11.867-3.956 19.78-21.758 19.78-32.637 0-10.88-11.869-22.747-19.78-25.714-31.65-9.89-39.561-36.594-39.561-65.275V468.848c0-13.847-2.967-29.67-2.967-46.484-29.67 2.967-50.44 6.923-72.199 9.89-28.68 6.923-43.516 25.715-43.516 55.385zm138.462-65.274c0 35.604 12.857 43.516 49.45 40.55 31.649-7.913 61.32-19.781 93.957-25.715 26.703-4.945 31.648-22.747 31.648-44.506v-118.68c0-39.561 3.956-84.067 0-122.638 0-36.594-12.857-44.506-45.494-36.594-33.627 3.956-64.286 13.846-97.913 21.759-22.747 6.923-31.648 20.769-31.648 43.516 0 79.121-4.945 162.199 0 242.309z" style="fill:#000;fill-opacity:1;fill-rule:nonzero;stroke:none;"/>
</svg>
