<?xml version="1.0" encoding="UTF-8"?><svg id="a" xmlns="http://www.w3.org/2000/svg" viewBox="0 0 1000 1000"><path d="M500,0c-127.942,0-244.282,48.46-332.712,127.504l36.357,36.357c15.859,15.859,15.859,41.571,0,57.43s-41.571,15.859-57.43,0l-35.162-35.162C41.703,271.961,0,381.06,0,500c0,276.143,223.857,500,500,500,118.94,0,228.039-41.703,313.87-111.052l-41.045-41.043c-15.859-15.859-15.859-41.573,0-57.432,15.859-15.859,41.573-15.859,57.432,0l42.238,42.24c79.044-88.43,127.504-204.771,127.504-332.712C1000,223.857,776.143,0,500,0Zm-143.399,384.401c-27.753,27.753-72.598,27.905-100.165,.339s-27.415-72.411,.339-100.165c27.753-27.755,72.6-27.907,100.167-.341s27.415,72.413-.341,100.167Zm209.37,463.816l-100.893,100.891c-15.753,15.753-41.293,15.753-57.044,0-15.753-15.751-15.753-41.291,0-57.042l100.893-100.893c15.751-15.753,41.291-15.753,57.044,0s15.751,41.291,0,57.044Zm.699-263.9c-15.859,15.859-41.571,15.859-57.43,0l-99.44-99.438c-15.859-15.859-15.859-41.573,0-57.432,15.859-15.859,41.573-15.859,57.432,0l99.438,99.44c15.859,15.859,15.859,41.571,0,57.43Zm1.766-464.617l-100.891,100.893c-15.753,15.751-41.293,15.751-57.044,0-15.753-15.753-15.753-41.293,0-57.044l100.893-100.893c15.751-15.753,41.291-15.753,57.042,0,15.753,15.753,15.753,41.291,0,57.044Zm151.19,627.727c-27.753,27.753-72.598,27.905-100.165,.339s-27.415-72.411,.339-100.165c27.753-27.755,72.6-27.907,100.167-.341,27.566,27.566,27.415,72.413-.341,100.167Z"/></svg>