<svg xmlns="http://www.w3.org/2000/svg" viewBox="0 0 1000 1000"><path d="M5 500.496c0-90 22.747-173.077 67.253-250.22 44.506-74.177 103.846-133.517 178.023-178.023C327.419 27.747 410.496 5 500.496 5c89.011 0 172.089 22.747 249.232 67.253 74.176 44.506 133.517 103.846 178.022 178.023 44.506 77.143 67.253 160.22 67.253 249.231 0 90-22.747 173.078-67.253 250.22-44.505 74.177-103.846 133.518-178.022 178.023-77.143 44.506-160.22 67.253-249.232 67.253-90 0-173.077-22.747-250.22-67.253-74.177-44.505-133.517-103.846-178.023-178.022C27.747 672.585 5 589.508 5 500.496zm201.759 251.21H325.44v-3.956c19.78-81.1 36.593-161.21 55.384-243.298v-1.978c5.935 4.945 66.264 74.176 89.012 102.858 16.813 17.802 29.67 34.615 47.472 51.428 0-1.978 116.704-142.418 124.616-152.308l2.967-1.978c0 .99 31.649 136.484 40.55 171.1 5.934 26.703 12.857 50.44 16.813 74.176 2.967 3.956 2.967 3.956 6.923 3.956H816.98c0-3.956-111.759-479.672-114.726-482.64-30.66 40.55-63.297 77.144-94.945 118.683-28.682 36.593-59.341 77.143-93.957 116.703v-1.978c-39.56-48.462-81.099-98.901-117.692-146.374-26.704-29.67-68.242-81.1-74.176-87.033-2.967 9.89-18.792 85.055-26.704 113.736-16.813 68.242-34.615 138.462-51.429 205.715-8.9 53.407-22.747 104.836-36.593 159.232zm174.066-499.452c0 19.78 17.803 33.626 31.649 50.44 20.77 25.714 33.626 44.505 57.363 60.33 16.813 11.867 39.56 4.944 53.407-8.902 9.89-10.88 24.725-23.736 33.626-34.615 13.846-12.858 30.66-24.726 50.44-40.55 11.868-8.901 84.066-60.33 84.066-60.33l4.945-3.956c1.978-2.967-.989-6.923-6.923-2.967-28.682 15.824-214.616 136.484-179.012 121.649-6.923 2.967-10.879 2.967-13.846 0-5.934-7.912-9.89-13.846-16.813-20.77-48.462-55.384-64.286-77.143-80.11-77.143-9.89 0-18.792 9.89-18.792 16.814z"/></svg>