<svg xmlns="http://www.w3.org/2000/svg" width="1000" height="1000">
  <path d="M500.496 5C223.572 5 5 229.506 5 500.002c0 276.43 224.506 495.001 495.002 495.001 276.43 0 495.001-224.506 495.001-495.001C995.003 226.539 773.464 5 500.496 5zM151.374 514.342v-19.78c.99-4.945 1.978-10.88 1.978-14.835 2.967-35.605 11.868-69.231 25.715-101.869 11.868-28.681 27.692-54.395 46.483-78.132 27.693-36.593 61.32-65.275 100.88-88.022 37.582-21.758 77.143-35.605 118.681-41.539 14.836-2.967 28.682-2.967 43.517-3.956h11.868c5.934 0 7.912 3.956 7.912 10.88 0 3.956-3.956 6.923-9.89 6.923-8.901 0-17.802 0-26.703.989-23.737.989-46.484 3.956-69.231 11.868-20.77 4.945-42.528 14.835-61.32 25.714-19.78 9.89-37.582 22.747-54.395 35.605-24.725 21.758-45.495 45.494-62.308 74.176-23.736 35.604-39.56 73.187-47.473 114.725-3.956 16.814-3.956 33.627-5.934 50.44 0 3.956-.989 8.901-.989 13.846s-1.978 7.912-7.912 9.89c-2.967.99-5.934-1.978-9.89-6.923zm17.802 100.88c-6.923-23.737-6.923-48.462 5.934-71.21 9.89-20.769 26.704-35.604 48.462-43.516 5.934-.989 6.923-5.934 10.88-9.89 7.911-10.88 18.79-17.802 31.648-23.736 25.714-10.88 50.44-15.825 77.143-12.858 21.758.99 43.517 5.935 63.297 12.858 18.791 5.934 36.593 14.835 56.374 21.758 27.692 8.901 56.373 15.824 88.022 13.846 34.615-1.978 66.264-12.857 92.967-35.604 18.792-15.825 33.627-33.627 40.55-56.374 8.901-27.693 4.945-53.407-10.88-78.132-3.955-6.923-8.9-11.868-12.857-17.803 0-.989-3.956-1.978-4.945-.989-32.637 5.935-62.307 0-92.967-10.879-10.88-3.956-21.758-8.9-30.66-16.813-5.933-5.934-5.933-10.88-.988-17.802 9.89-10.88 21.758-18.791 33.626-25.715 16.813-7.912 32.638-15.824 50.44-18.79 7.912-.99 16.813-.99 24.725-.99 1.978-4.945 3.956-13.846 6.923-20.77 6.923-11.867 13.846-22.747 19.78-32.637 11.869-15.824 26.704-28.681 42.528-39.56 8.901-5.934 17.802-9.89 26.704-8.901 6.923 0 8.9.989 9.89 6.923 4.945 10.879 4.945 21.758 3.956 32.637-1.978 28.682-6.923 57.363-19.78 82.088-.99 2.967-2.968 5.934-2.968 8.902 0 1.978 3.956 3.956 5.935 5.934 21.758 21.758 41.538 44.505 58.351 70.22 15.825 25.714 28.682 53.406 37.583 83.077 7.912 26.703 13.846 54.396 13.846 81.099 0 .989.99 1.978.99 2.967v34.616c0 5.934-.99 9.89-.99 15.824-2.967 35.604-11.868 72.198-28.681 105.824-5.934 14.836-13.846 28.682-21.759 42.528-.989.989-.989 3.956 0 5.934 14.836 28.681 24.726 58.352 33.627 89.011 3.956 6.923 0 12.857-4.945 18.792-3.956 4.945-9.89 4.945-17.802 1.978-4.946-1.978-10.88-2.967-15.825-4.945-22.747-8.902-46.483-14.836-69.23-23.737 0 0-1.979 0-3.957.99-18.791 15.823-41.538 30.659-64.286 42.527-31.648 13.846-64.286 24.725-98.901 28.681-24.725 4.945-49.45 5.934-75.165 4.945-25.715-1.978-51.429-6.923-77.143-14.835-20.77-5.934-39.56-13.846-59.341-23.736C316.54 807.09 295.77 793.244 275 777.42c-27.693-25.714-53.407-53.407-72.198-86.044-14.835-23.736-27.693-48.462-33.627-76.154zm15.825-8.901c6.923 26.703 17.802 51.428 32.637 74.176 17.802 30.66 40.55 58.352 68.242 81.099 17.802 13.846 34.616 27.692 54.396 36.593 25.714 14.836 54.396 25.715 83.077 31.649 19.78 5.934 39.56 8.901 59.34 8.901 15.825.989 33.627 0 49.452-.989 21.758-1.978 43.516-7.912 65.275-13.846 23.736-6.923 47.472-17.802 69.23-31.649 10.88-5.934 19.78-12.857 30.66-19.78-7.912-2.967-13.846-4.945-18.791-8.901-2.967-.99-4.945-1.978-6.923 0-3.956 3.956-6.923 4.945-10.88 6.923-25.714 12.857-52.417 21.758-81.099 26.703-24.725 5.935-49.45 9.89-75.165 9.89-13.846 0-28.681 0-41.538-1.977-17.803-1.978-34.616-3.957-51.43-7.913-20.768-3.956-40.549-11.868-62.307-19.78-10.88-5.934-21.758-12.857-33.627-18.791-1.978-1.978-2.967-4.945-.989-7.912.99-3.956 4.946-3.956 7.913-1.978 15.824 6.923 28.681 14.835 43.516 21.758 34.616 14.835 72.198 21.758 108.792 22.747 20.77.99 40.55 0 60.33-1.978 18.79-1.978 39.56-5.934 58.352-9.89 17.802-3.956 35.604-11.868 52.417-18.791 5.934-.99 9.89-3.956 14.835-6.923-5.934-4.945-10.879-7.912-16.813-10.88-1.978-.988-3.956-2.966-5.934-.988-16.813 3.956-33.626 7.912-51.429 11.868-25.714 5.934-52.417 7.912-78.132 7.912-14.835 0-29.67 0-45.494-1.978-15.825-.99-33.627-2.967-49.451-5.934-38.572-8.901-74.176-22.747-107.803-43.517-13.846-8.9-28.681-19.78-42.527-29.67-2.967-1.978-3.956-7.912-.99-11.868 1.979-1.978 7.913-1.978 9.89 0 20.77 16.813 41.54 29.67 64.287 40.55 18.791 10.878 41.538 18.79 64.286 25.714 31.648 8.9 63.297 13.846 96.923 13.846 12.857 0 26.704-.99 40.55-.99 25.714-1.977 49.45-4.944 75.165-12.856 5.934-.99 9.89-2.967 15.824-3.956-6.923-8.902-12.857-16.814-18.791-24.726-.99-2.967-2.967-2.967-5.934-1.978-20.77 5.934-42.528 9.89-64.286 9.89-20.77 0-43.517 0-64.286-1.978-24.726-.989-50.44-6.923-75.165-13.846-23.737-6.923-47.473-15.824-68.242-29.67-17.803-11.869-36.594-25.715-55.385-39.561-1.978-.989-1.978-1.978-1.978-2.967 0-2.967 0-6.923 4.945-8.901.989 0 4.945 0 6.923 1.978 8.901 4.945 16.813 11.868 25.714 17.802 25.715 19.78 52.418 33.627 82.089 44.506 41.538 13.846 85.055 18.791 127.582 19.78 20.77.99 41.54-.989 61.32-3.956 4.944-2.967 10.879-3.956 16.813-5.934-2.967-5.934-5.934-10.88-8.902-15.824-.989-.99-2.967-2.967-3.956-2.967-16.813 0-33.626 0-49.45-.99-13.846-.988-28.682-1.977-41.539-2.966-18.791-3.956-36.593-8.902-55.385-12.858-19.78-5.934-40.55-14.835-58.352-24.725-21.758-12.857-41.538-27.692-61.318-43.517-.99-.989-.99-1.978-.99-3.956-.988-3.956 0-5.934 4.946-6.923 1.978-.989 4.945.99 6.923 1.978 3.956.99 5.934 3.956 8.9 5.934 18.792 11.869 35.605 25.715 54.397 36.594 27.692 14.835 56.373 24.725 87.033 30.66 28.681 5.933 58.352 6.922 88.022 7.911h13.846c-1.978-8.9-4.945-16.813-7.912-24.725 0 0-.989-1.978-1.978-1.978-20.77-.989-39.56-6.923-58.352-12.857-39.56-12.857-75.165-30.66-110.77-52.418-27.692-17.802-57.362-31.648-89.01-42.527-18.792-6.924-39.561-12.858-59.341-14.836-25.715-.989-44.506 7.912-60.33 25.715-14.835 20.769-17.802 43.516-11.868 68.242zm332.308-431.21c0-4.946 2.967-7.913 7.913-7.913h2.967c0-.989.989-.989.989-.989 2.967.99 6.923 1.978 10.879 4.945 1.978 1.978 1.978 5.934.989 8.901-.99 2.968-3.956 4.946-7.912 4.946-2.967 0-5.934 0-9.89-.99-3.957-.988-6.924-5.934-5.935-8.9zm7.913 395.605c0 8.901 5.934 14.835 13.846 14.835 8.9 0 13.846-4.945 13.846-13.846 0-6.923-5.934-13.846-12.857-13.846-7.912 0-14.835 6.923-14.835 12.857zm25.714-392.639c0-4.945 2.967-7.912 11.868-6.923 7.912 1.978 18.791 3.956 28.681 5.934 9.89 2.968 20.77 6.924 30.66 10.88 8.901 1.978 10.88 11.868 2.967 16.813-1.978.989-3.956 1.978-5.934.989-20.77-7.912-41.539-12.857-62.308-16.813-4.945-.99-6.923-3.956-5.934-10.88zm162.198 410.441c6.923 5.935 14.835 12.858 20.77 18.792 23.736-28.682 41.538-61.32 53.406-96.924 4.945-18.791 9.89-35.604 10.88-55.385 0-5.934.988-10.879 1.978-17.802 0-2.967.989-5.934 5.934-4.945 2.967 0 3.956 1.978 3.956 5.934 0 19.78-1.978 39.56-6.923 57.363-6.924 39.56-23.737 75.165-47.473 106.814-3.956 5.934-8.901 11.868-12.857 15.824 2.967 4.945 7.912 8.901 10.879 13.846 3.956-7.912 9.89-15.824 13.846-23.736 12.857-26.704 24.725-52.418 35.605-81.1 0-3.956 4.945-4.945 8.9-3.956 4.946 1.978 5.935 4.946 2.968 9.89-4.945 11.869-8.901 24.726-14.835 35.605a447.399 447.399 0 0 1-35.605 68.242c-2.967 6.923-2.967 7.912 1.978 12.857 7.912-10.879 13.846-21.758 21.758-32.637 1.978-2.967 5.934-4.945 8.901-2.967 1.978 1.978 2.968 4.945 0 8.9-6.923 11.87-13.846 23.737-21.758 35.605-.989.99-1.978 2.967-.989 3.956.99 4.946 3.956 8.902 5.934 13.847 34.616-59.341 50.44-121.65 44.506-187.913-4.945-69.231-29.67-131.539-73.187-185.935-.99.99-.99 1.978-.99 1.978.99.99.99 2.967.99 2.967 10.879 22.748 17.802 45.495 24.725 69.231 7.912 28.682 9.89 59.341 7.912 90-2.967 23.737-8.9 46.484-20.769 68.243-8.901 15.824-19.78 27.692-33.627 40.55-5.934 3.955-10.879 7.911-16.813 12.856z" style="fill:#000;fill-opacity:1;fill-rule:nonzero;stroke:none;"/>
</svg>
