<svg xmlns="http://www.w3.org/2000/svg" width="1000" height="1000">
  <path d="M500.496 5C223.572 5 5 229.506 5 500.002c0 276.43 224.506 495.001 495.002 495.001 276.43 0 495.001-224.506 495.001-495.001C995.003 226.539 773.464 5 500.496 5zM147.418 631.046c10.88-21.758 10.88-37.583 3.956-61.319-38.571-225.495 131.539-429.232 364.946-425.276 66.264 3.956 141.43 24.725 193.847 71.209 9.89 5.934 3.956 6.923 3.956 6.923-3.956 7.912-14.835 17.802-19.78 28.682-20.77-10.88-35.605-21.759-48.462-28.682-243.297-121.649-468.793 85.055-457.913 292.748 0 8.901 1.978 23.737 6.923 35.605 1.978 18.791 9.89 38.571 39.56 43.516 39.56 9.89 58.352 55.385 44.506 98.902-14.835 37.582-65.275 59.34-101.869 37.582-40.55-19.78-53.406-64.285-29.67-99.89zm29.67 35.605c0 14.835 17.803 29.67 30.66 29.67 21.758 0 31.648-9.89 31.648-34.616 0-14.835-9.89-25.714-31.648-25.714-19.78 0-30.66 10.88-30.66 30.66zm105.825 111.758c27.692-31.648 27.692-31.648 62.308-10.879 100.88 60.33 212.638 60.33 311.54 0 108.791-61.319 159.23-158.242 159.23-279.891 0-6.923-1.977-22.747-5.933-37.583-8.901-32.637-8.901-36.593-39.56-40.55-46.485-6.922-67.254-53.406-56.375-90.988 14.835-46.484 59.341-67.253 101.869-54.396 39.56 17.802 60.33 64.286 39.56 103.846-14.835 20.77-10.879 41.539-3.956 60.33 27.693 138.462-31.648 282.858-148.352 363.957-116.704 77.143-276.924 80.11-388.683 6.923-10.879-6.923-21.758-10.879-31.648-20.769zm5.934-192.858c-34.615-91.978-5.934-203.737 72.198-264.066 91.978-74.177 229.451-70.22 328.353 46.483-35.605 34.616-67.253 71.21-95.934 100.88-71.21-66.264-112.748-69.231-151.32-29.67-36.593 34.615-36.593 80.11-6.923 116.703 41.539 44.506 81.1 38.571 151.32-21.758 30.659 32.637 62.307 55.384 91.978 90.989 5.934 5.934 0 15.824-4.945 21.758-35.605 49.451-90.99 75.165-151.32 80.11-101.868 3.956-193.846-51.428-233.407-141.429zm67.253 23.737c53.407 72.198 166.154 96.923 237.364 52.417 40.55-29.67 34.615-30.659 10.879-61.318-3.956-.99-5.934-5.934-10.88-5.934-35.604 26.703-71.209 41.538-116.703 30.659-50.44-9.89-85.055-39.56-102.858-95.934-12.857-48.462 0-93.957 46.484-129.561 46.484-36.594 117.693-43.517 170.11 3.956.99 3.956.99 3.956 37.583-35.605-45.495-66.264-184.946-68.242-254.177 0-70.22 67.253-74.176 172.089-17.802 241.32zm403.518-271.98c2.967 18.792 10.88 25.715 31.648 30.66 16.814 0 24.726-14.835 24.726-30.66 0-18.79-10.88-29.67-24.726-29.67-20.769 0-31.648 10.88-31.648 29.67z" style="fill:#000;fill-opacity:1;fill-rule:nonzero;stroke:none;"/>
</svg>
