<svg xmlns="http://www.w3.org/2000/svg" viewBox="0 0 1000 1000"><path d="M500.496 995.003c275.935 0 494.507-224.506 494.507-495.496C995.003 226.54 773.464 5 500.496 5 223.572 5 5 229.506 5 499.507c0 276.924 224.506 495.496 495.496 495.496zm-338.243-290.77c-4.945-8.901-4.945-13.846 0-22.747A29208.39 29208.39 0 0 0 310.605 426.32c37.583-65.275 75.166-130.55 112.748-196.814 2.967-3.956 5.934-8.9 9.89-15.824a298713.097 298713.097 0 0 1 333.298 576.595c-22.747 0-42.528.99-62.308 0-3.956-.989-8.901-7.912-12.857-11.868-20.77-35.604-40.55-73.187-62.308-108.791-4.945-7.913-14.835-14.836-22.747-17.803-46.484-11.868-97.913-20.769-189.891-8.9 12.857-20.77 23.736-40.55 34.615-59.342 1.978-2.967 8.902-3.956 13.847-3.956 37.582 0 74.176.99 113.736 1.978-48.461-82.088-95.934-165.165-145.385-250.22-81.099 141.429-161.21 278.902-243.297 420.33-9.89-17.801-18.792-32.637-27.693-47.472zm52.418 87.033c73.187-128.572 145.385-253.187 219.561-379.781 11.868 18.791 21.759 36.593 30.66 53.407 1.978 3.956-.99 12.857-4.945 17.802-36.594 65.275-74.176 130.55-111.759 194.836-3.956 5.934-6.923 12.857-10.88 19.78 30.66-4.945 60.33-10.88 89.012-13.846 53.407-5.934 106.814-4.945 160.22 4.945 3.956.989 8.902 3.956 10.88 6.923 11.868 21.758 24.725 43.517 38.571 67.253-15.824-3.956-28.681-7.912-40.55-10.88-101.868-24.725-197.802-14.834-290.77 29.671-28.681 13.846-57.362 6.923-90 9.89zm251.21-598.353h71.209c17.802 32.637 35.604 66.264 54.395 97.912 75.166 129.561 149.342 259.122 224.507 388.683 5.934 9.89 6.923 17.802 0 28.681-8.901 12.857-15.824 26.704-26.704 44.506-107.802-187.913-215.605-373.848-323.407-559.782z"/></svg>