<svg xmlns="http://www.w3.org/2000/svg" width="1000" height="1000">
  <path d="M5 500.496c0 271.98 220.55 494.507 495.496 494.507 271.98 0 494.507-220.55 494.507-495.496C995.003 227.528 773.464 5 500.496 5 226.54 5 5 225.55 5 500.496zm132.528 144.396c2.967-24.725 21.758-47.472 46.484-47.472 14.835 0 20.769-5.935 23.736-14.836 46.484-70.22 92.967-137.473 136.484-207.693 3.956-3.956 6.923-6.923 9.89-12.857 4.945-6.923 4.945-12.857 0-21.758-11.868-18.791-9.89-42.528 8.901-58.352 12.857-14.835 37.583-18.791 55.385-8.901 17.802 11.868 30.66 30.66 24.725 54.396-2.967 9.89 0 14.835 8.901 24.725 24.726 18.791 49.451 39.56 74.177 61.319 2.967 0 4.945 2.967 8.9 6.923 43.517-28.681 86.045-55.385 128.573-83.077-1.978-5.934-1.978-15.824-1.978-20.77 0-22.747 10.879-38.571 29.67-47.472 21.758-5.934 43.517 3.956 55.385 18.791 12.857 18.791 15.824 43.517 0 58.352-11.868 8.901-9.89 21.758-5.934 34.615 18.79 64.286 36.593 128.572 54.395 192.858 0 2.967 3.956 5.934 3.956 8.901 1.979 8.901 8.902 14.836 17.803 18.792 21.758 5.934 34.615 26.703 34.615 49.45-2.967 20.77-17.802 39.56-40.55 43.517-20.769 4.945-42.527-6.923-51.428-28.681-3.956-3.957-6.923-5.935-6.923-12.858H547.969c-6.923 24.726-21.758 43.517-49.45 41.539-27.693 0-40.55-16.813-49.452-41.539H236.43c0 2.967-2.967 6.923-2.967 8.901-9.89 25.715-34.615 37.583-55.384 32.638-25.715-6.923-40.55-28.681-40.55-49.45zm91.978-18.791c3.956 5.934 6.923 8.901 6.923 14.835h212.638c6.924-8.901 8.902-17.802 15.825-27.692 5.934-5.934 5.934-11.868 5.934-21.759-8.901-27.692-18.792-54.395-24.726-79.12-2.967-6.924-2.967-12.858-5.934-17.803-71.209 42.528-139.45 85.055-210.66 131.539zm0-18.791c0 2.967 3.956 2.967 3.956 2.967 67.253-42.528 135.495-86.045 202.748-128.572-2.967-8.901-2.967-15.824-5.934-21.758-8.901-27.693-14.835-55.385-23.736-83.078 0-5.934-5.934-11.868-8.901-11.868-3.956 0-9.89 2.967-12.858 5.934-2.967 3.956-5.934 9.89-5.934 11.868-43.516 62.308-85.055 126.594-124.615 187.913-9.89 11.868-15.825 24.726-24.726 36.594zm203.737-252.2c9.89 34.616 18.791 71.21 31.649 107.803 20.769-11.869 39.56-23.737 61.319-36.594-31.649-24.725-61.32-49.45-90-74.176-2.968 0-2.968 2.967-2.968 2.967zm33.627 119.67c12.857 40.55 21.758 77.144 34.615 116.704 0 3.957 2.967 5.935 5.934 5.935s6.923-1.978 8.901-5.935c24.726-36.593 49.451-73.187 74.176-113.736-18.79-11.868-34.615-26.704-49.45-38.572-2.967-3.956-5.934-6.923-11.868-3.956-21.759 15.824-40.55 27.693-62.308 39.56zm77.143-48.46c18.791 14.834 34.615 27.691 53.407 42.527 23.736-39.56 51.428-77.143 73.187-119.671-43.517 25.714-86.045 49.45-126.594 77.143zm5.934 214.615h190.88c8.9 0 11.868-2.967 14.835-8.901 0-3.956 3.956-8.901 3.956-11.868-49.45-40.55-95.934-81.1-147.363-120.66-21.759 30.66-40.55 64.286-62.308 91.978-8.901 15.825-14.835 31.649 0 49.451zm71.209-153.297c2.967 2.967 2.967 6.923 5.934 9.89 43.517 32.638 89.011 70.22 132.528 106.814 2.967 2.967 5.934 2.967 8.901 2.967 2.967-2.967 2.967-5.934 2.967-11.868-21.758-74.177-43.517-147.364-64.286-220.55 0-3.957-3.956-6.924-5.934-12.858-28.681 42.528-55.385 86.044-80.11 125.605z" style="fill:#000;fill-opacity:1;fill-rule:nonzero;stroke:none;"/>
</svg>
