<svg xmlns="http://www.w3.org/2000/svg" width="1000" height="1000">
  <path d="M749.728 73.242c74.473 43.517 133.517 102.56 177.033 177.034 45.495 77.143 68.242 160.517 68.242 250.22 0 89.704-22.747 172.78-68.242 249.232C883.245 824.2 824.201 883.54 749.728 927.75c-77.143 44.803-160.517 67.253-250.22 67.253-89.704 0-172.782-22.45-249.232-67.253-74.473-44.209-133.814-103.55-178.023-178.022C27.451 673.277 5 590.2 5 500.496c0-89.703 22.45-173.077 67.253-250.22 44.209-74.473 103.55-133.517 178.023-177.034C326.726 27.747 409.804 5 499.507 5c89.704 0 173.078 22.747 250.22 68.242zM182.034 555.881 275 647.859h129.56L626.1 426.32h56.374l41.538 41.539v53.406l-40.55 40.55h-63.296L596.43 537.09c-1.978-1.978-4.253-2.967-6.924-2.967-2.67 0-5.241.989-7.912 2.967L527.2 591.485v127.583c0 2.67 1.186 4.945 3.461 6.923 2.275 1.978 4.747 2.967 7.418 2.967h66.264c2.67 0 4.945-.989 6.923-2.967 1.978-1.978 2.967-4.252 2.967-6.923l.989-52.417c0-5.242 1.681-9.594 4.945-12.858 3.264-3.263 7.615-4.945 12.857-4.945h86.044l91.979-91.978V432.254l-92.968-92.967H590.496L367.968 560.826h-57.363l-41.538-40.55V467.86l41.538-41.539h54.396l28.682 28.681c1.978 2.67 4.648 3.957 7.912 3.957 3.263 0 5.934-1.286 7.912-3.957l46.484-46.483c1.978-1.978 2.967-4.45 2.967-7.418 0-2.967-.99-5.44-2.967-7.417l-55.385-54.396H275l-92.967 91.978z" style="fill:#000;fill-opacity:1;fill-rule:nonzero;stroke:none;"/>
</svg>
