<?xml version="1.0" encoding="utf-8"?>
<!-- Generator: Adobe Illustrator 26.0.1, SVG Export Plug-In . SVG Version: 6.00 Build 0)  -->
<svg version="1.1" id="Layer_1" xmlns="http://www.w3.org/2000/svg" xmlns:xlink="http://www.w3.org/1999/xlink" x="0px" y="0px"
	 viewBox="0 0 1000 1000" style="enable-background:new 0 0 1000 1000;" xml:space="preserve">
<g>
	<path d="M816.3,489c-87.4,0.2-87.4,0-121.4,89.7c-28.6-66.7-52.5-123.9-77.6-180.5c-23.6-53.3-64.1-84.2-124-82.8
		c-57.6,1.4-96.3,31.1-118.9,83.8c-24.4,56.8-50.5,112.8-81,180.7c-10-29.1-16.9-47.4-22.7-66.2c-32.8-107.6-65-215.5-98.5-322.9
		c-3.6-11.5-13.8-29.4-21.8-29.8c-49.3-2.8-98.8-1.4-150.4-1.4c1.6,15.5,1.2,23.8,3.5,31.2c60.8,196.9,121.4,393.9,183.9,590.2
		c5.6,17.5,20.7,37.3,36.8,45.1c76.8,37.7,160,3.4,191-74.6c24.7-62.3,50.8-124.2,80.5-196.6c27.9,66.6,51.3,122.6,74.7,178.6
		c43.4,104.1,46,105.4,160,100.9c38.7-1.5,63.5-17.2,74.9-55.8c21-71.5,44.9-142.2,66.3-213.6C894.8,487.4,907.8,488.8,816.3,489z"
		/>
	<path d="M846.6,159.9c-9.4,0.5-22.7,14.6-26.2,25.1c-22,65.4-41.5,131.6-62.3,197.4c-6.6,20.8-0.4,31.2,22.2,31
		c38.1-0.2,76.2,1.1,114.2-0.9c10-0.5,25.4-8.7,28.2-16.8c26.3-76.3,50.4-153.3,77.3-237C943.7,158.7,895.1,157.4,846.6,159.9z"/>
</g>
</svg>
