<svg xmlns="http://www.w3.org/2000/svg" viewBox="0 0 1000 1000"><path d="M500.496 5c272.968 0 494.507 221.54 494.507 495.002 0 270.495-218.572 495.001-495.001 495.001C229.506 995.003 5 776.431 5 500.002 5 229.506 223.572 5 500.496 5zM107.857 485.66c-4.945 43.518 12.858 82.09 51.43 112.749 32.637 22.747 71.208 31.648 107.802 36.593 49.45 5.934 85.055 34.616 98.901 86.044 0 2.967 1.978 7.912 2.967 10.88 1.978 5.934 1.978 9.89 2.967 15.824 25.715-6.923 32.638-13.846 28.682-31.649-21.759-65.275-58.352-97.912-118.682-109.78-8.901-1.978-18.791-3.956-27.692-5.934-20.77-4.945-40.55-8.902-59.341-17.803-41.539-23.736-64.286-66.264-53.407-105.824 7.912-22.748 22.747-38.572 45.495-53.407 9.89-7.912 18.79-12.857 25.714-13.846-9.89-25.715-12.857-29.67-27.692-24.726-46.484 26.704-72.198 59.341-77.144 100.88zm81.1 196.815c-11.869 58.352 33.626 119.67 93.956 129.56 34.616 5.935 65.275 2.968 93.956-13.846 20.77-11.868 40.55-22.747 60.33-36.593 27.693-18.791 53.407-30.66 85.055-23.736 8.902 1.978 17.803 6.923 26.704 10.879 8.901 4.945 16.813 8.9 24.725 10.879 1.978.989 2.967 1.978 5.934 2.967 3.956.989 4.945.989 5.934 3.956 8.902-8.901 12.858-15.824 7.913-21.758 0-.99 0-1.978-.99-3.956-2.967-3.956-7.912-11.869-15.824-14.836-55.385-28.681-111.758-24.725-164.176 9.89-14.835 11.869-24.725 18.792-40.55 27.693-27.692 15.824-57.363 20.77-87.033 14.835-48.462-9.89-74.176-60.33-57.363-113.736 6.923-21.759 4.945-23.737-26.703-31.649-1.978 11.868-4.945 21.758-7.912 31.649-1.978 5.934-2.967 12.857-3.956 17.802zM191.924 275c-8.901 38.571 0 79.121 25.714 119.67 2.967 5.935 6.923 9.89 9.89 14.836 5.934 9.89 13.846 17.802 20.77 26.703 24.725 39.56 26.703 76.154 4.945 117.693-2.967 3.956-4.945 7.912-7.913 10.88-2.967 5.933-6.923 11.867-7.912 14.834 25.715 14.836 33.627 13.846 44.506-7.912 28.681-57.363 22.747-112.747-15.824-163.187-22.748-29.67-35.605-54.396-40.55-84.066-11.868-50.44 15.824-94.946 63.297-102.858 17.802-4.945 38.572 0 59.341 2.967 8.901 3.956 17.802-.989 21.758-10.879 1.978-9.89-2.967-13.846-14.835-19.78-1.978-.99-5.934-1.978-8.901-2.967-2.967-.99-6.923-1.978-10.88-3.956C268.079 174.12 208.738 209.726 191.925 275zm65.275 90c5.934 28.682 12.857 35.605 34.615 28.682 65.275-20.77 103.847-63.297 111.759-130.55 4.945-40.55 15.824-69.231 34.615-93.957 23.737-27.692 58.352-37.582 91.979-26.703 23.736 5.934 43.516 24.725 56.373 51.429 6.924 11.868 14.836 13.846 24.726 7.912l11.868-11.868c-24.725-51.43-56.374-78.132-99.89-84.067-46.484-5.934-84.067 8.902-120.66 54.396-18.792 26.704-31.649 62.308-32.638 98.902-6.923 52.417-38.571 90-87.033 103.846-2.967 0-6.923.99-9.89 1.978-4.945 0-9.89.99-15.824 0zm131.539 438.134c8.9 51.428 59.34 92.967 111.758 95.934 49.45 0 86.044-23.736 111.759-71.21 20.77-31.648 25.714-62.307 29.67-96.923 6.923-47.472 39.56-82.088 88.022-92.967 2.968-1.978 5.935-1.978 8.902-2.967 4.945-.989 10.879-1.978 14.835-4.945-6.923-22.747-17.802-29.67-37.583-23.736-52.417 15.824-83.077 44.505-97.912 87.033-5.934 16.813-8.901 31.648-11.868 46.484-1.978 5.934-2.967 10.879-3.956 17.802-6.923 30.66-15.825 56.374-35.605 79.121-36.593 36.594-93.956 36.594-125.605-2.967-8.9-10.88-12.857-18.791-19.78-30.66-4.945-8.9-13.846-9.89-20.77-3.956-.988.99-1.977 1.978-2.966 1.978-3.956 1.979-4.945 1.979-8.901 1.979zm33.626-571.65c-12.857 28.68-12.857 33.626 10.88 43.516 55.384 27.692 109.78 26.703 162.198-8.901 6.923-5.934 13.846-10.88 20.769-14.835 4.945-2.968 10.879-6.924 14.835-10.88 26.703-16.813 53.407-23.736 83.077-21.758 56.374 11.868 84.066 62.308 66.264 119.67-3.956 8.902-7.912 21.76 9.89 25.715 15.825 4.945 18.792-5.934 21.759-12.857 0-1.978.989-3.956 1.978-3.956 1.978-3.956 1.978-7.912 2.967-10.88 0-2.966.989-6.922 1.978-9.89 14.835-80.11-51.429-149.34-135.495-141.428-36.594 4.945-68.242 20.769-107.803 50.44-41.538 31.648-82.088 37.582-124.616 13.846-4.945-2.968-9.89-6.924-15.824-8.902-3.956-3.956-8.9-6.923-12.857-8.9zm190.88 62.307c25.714 62.308 67.253 96.924 134.506 102.858 35.604 5.934 63.297 16.813 84.066 32.637 48.462 37.583 47.473 95.934 2.967 140.44-4.945 4.945-10.88 6.923-17.802 9.89-6.923 2.967-11.868 8.901-18.792 13.846 6.924 22.748 13.847 26.704 31.649 15.825 7.912-2.967 13.846-7.912 18.791-11.868 3.956-2.968 6.923-5.935 10.88-7.913 54.395-45.494 57.362-123.626 8.9-173.077-25.714-26.703-65.274-42.528-116.703-51.429-67.253-11.868-96.924-35.604-109.78-97.912 0-1.978-1.979-4.945-2.968-6.923-.989-.99-.989-1.978-.989-2.967-28.681.989-35.604 9.89-24.725 36.593zm35.604 479.672c-13.846 19.78-10.879 30.66 7.912 33.627 4.945 2.967 7.913 2.967 12.858 2.967 91.978 21.758 163.187-45.495 147.363-138.462-6.923-39.561-26.704-71.21-51.429-100.88-27.692-36.593-31.648-74.176-12.857-115.715 4.945-10.879 10.879-22.747 20.77-36.593-24.726-14.835-36.594-12.857-46.485 10.88-28.681 57.362-22.747 111.758 17.803 162.197 13.846 22.748 26.703 43.517 35.604 68.242 26.704 66.264-17.802 127.583-88.022 121.65-8.901 0-16.813-1.979-26.703-4.946-4.946-.989-10.88-1.978-16.814-2.967z"/></svg>