<svg xmlns="http://www.w3.org/2000/svg" width="1000" height="1000">
  <path d="M168.702 238.98c-12.933-19.989-12.933-19.989 19.988-27.043 42.328-9.407 85.832-15.285 125.808-24.692l176.367-29.394-4.703 837.153C385.045 741.036 274.522 489.42 168.702 238.98zM279.225 67.316c-4.703-15.285-4.703-17.636 14.11-22.34C356.826 29.691 422.67 19.11 486.162 7.352c3.527-1.176 4.703-1.176 7.055-2.352l-2.352 125.808c-170.488 30.57-172.84 29.395-172.84 27.043zm230.452 925.336 17.637-834.801c55.262 9.406 134.039 21.164 168.136 29.394 35.273 8.23 77.601 12.934 116.402 24.692 31.746 7.054 31.746 7.054 21.164 27.043-81.129 189.3-157.554 378.6-241.034 567.9zm17.637-866.547 2.352-116.402c59.964 10.582 116.401 22.34 172.839 30.57 24.691 9.407 24.691 9.407 17.636 31.746-7.054 23.516-21.164 49.383-34.097 74.074z" style="fill:#000;fill-opacity:1;fill-rule:nonzero;stroke:none;"/>
</svg>
