<svg xmlns="http://www.w3.org/2000/svg" viewBox="0 0 1000 1000"><path d="M182.012 848.331V584.08c72.069 48.046 231.379 134.023 231.379 155.517v236.436c0 10.115-231.379-113.793-231.379-127.7zm0-622.067c112.529 67.011 231.379 139.08 231.379 146.666v242.758c0 18.966-22.759 2.529-55.632-17.701L183.276 495.573zm50.575-83.448C318.563 92.24 428.563 25.23 456.379 5c31.61 17.701 179.54 102.414 236.436 137.816L461.437 275.574zm273.102 852.181 1.265-255.401 1.264-17.701c98.62-58.161 208.62-123.908 309.77-179.54v270.574c0 5.057-152.989 94.827-312.299 182.068zm1.265-364.137 1.264-274.367c74.598-39.195 154.253-87.24 230.114-130.23 0 262.989 2.53 268.046-3.793 270.575-75.862 42.988-147.93 87.241-227.585 134.022z"/></svg>