<svg xmlns="http://www.w3.org/2000/svg" width="1000" height="1000">
  <path d="M500.496 5C223.572 5 5 229.506 5 500.002c0 276.43 224.506 495.001 495.002 495.001 276.43 0 495.001-224.506 495.001-495.001C995.003 226.539 773.464 5 500.496 5zM175.11 576.65V536.1c1.978-13.846 4.946-27.692 7.913-40.549 12.857-45.495 32.637-87.033 57.362-128.572 39.561-66.264 85.056-130.55 134.506-191.869 6.923-7.912 13.847-16.813 21.759-24.725 4.945-7.912 13.846-8.901 20.769-4.945 6.923 5.934 8.901 14.835 1.978 22.747-21.758 28.682-44.506 57.363-67.253 85.056-43.517 58.351-85.055 119.67-114.726 186.923-12.857 26.704-24.725 53.407-28.681 83.077-6.923 37.583-2.967 73.188 6.923 106.814 34.616 114.726 109.78 188.902 226.484 217.583 95.935 23.736 183.957.99 261.1-61.319 59.341-48.461 94.945-110.77 107.803-185.934 6.923-44.506 2.967-87.034-13.847-127.583-21.758-55.385-51.428-105.825-84.066-155.276-33.626-51.428-72.198-98.9-111.758-147.363-5.934-8.9-5.934-17.802.989-22.747 5.934-5.934 15.824-4.945 22.747 2.967 42.528 52.418 85.055 105.825 121.649 164.176 31.648 47.473 58.352 93.957 78.132 146.375 24.725 58.351 24.725 119.67 7.912 179.011-14.835 57.363-42.528 104.836-83.077 146.374-74.176 74.176-174.067 111.759-284.836 96.924-146.374-19.78-263.078-133.517-285.825-278.902-1.979-9.89-2.968-19.78-3.957-27.693zm66.264 7.912c-6.923-42.527 1.978-81.099 18.792-119.67 23.736-56.374 56.374-107.803 93.956-157.254 27.692-36.593 57.363-72.198 86.044-109.78 2.967-1.978 6.923-4.945 11.868-6.923 6.924-2.967 12.858 0 16.814 6.923 2.967 5.934.989 11.868-2.967 17.802-29.67 36.594-61.32 73.187-89.012 111.759-34.615 47.472-66.264 96.923-90 149.34-23.736 56.375-22.747 111.76 1.978 166.155 36.594 84.066 101.869 133.517 192.858 146.374 96.923 12.858 192.858-38.571 240.33-124.615 19.78-35.605 29.67-74.177 27.693-113.737 0-27.693-7.912-52.418-17.802-77.143-22.748-53.407-55.385-103.847-90.99-150.33-28.681-35.605-57.363-71.21-85.055-106.814-7.912-8.901-7.912-16.813 0-22.747 4.945-5.934 14.835-5.934 20.77 2.967 26.703 32.637 55.384 65.275 81.098 99.89 33.627 42.528 64.286 88.022 88.023 135.495 15.824 31.649 28.681 64.286 33.626 98.902 1.978 7.912 1.978 14.835 1.978 26.703-3.956 97.912-48.461 175.056-136.484 227.473-97.912 59.341-230.44 45.495-315.495-32.637-49.451-45.495-79.121-100.88-88.023-168.133zm77.144 41.539c-21.759-49.45-19.78-97.912 2.967-146.374 17.802-41.539 40.55-77.143 66.264-112.748 34.615-46.483 71.209-90.99 110.77-131.539 3.955-4.945 6.922-8.9 12.856-14.835 3.956 7.912 8.901 11.868 13.847 17.802 35.604 39.56 71.209 81.1 103.846 124.616 27.692 36.594 52.418 75.165 71.21 117.693 29.67 67.253 19.78 129.56-20.77 187.913-44.506 62.307-108.792 93.956-184.946 87.033-85.055-7.912-143.407-53.407-176.044-129.561zm16.813-54.396c10.879 88.022 87.033 153.297 185.934 153.297 44.506-.989 90.99-22.747 126.594-65.275 22.748-26.703 35.605-61.318 38.572-95.934 2.967-28.681-5.934-55.385-18.791-81.1-22.748-47.472-51.43-88.021-84.067-129.56-22.747-26.703-45.494-54.396-68.242-81.1-2.967-2.966-4.945-5.933-9.89-.988-23.736 29.67-49.45 58.352-72.198 88.022-32.637 39.56-61.319 82.088-84.066 128.572-10.88 25.714-17.802 54.396-13.846 84.066z" style="fill:#000;fill-opacity:1;fill-rule:nonzero;stroke:none;"/>
</svg>
