<svg xmlns="http://www.w3.org/2000/svg" viewBox="0 0 1000 1000"><path d="M500.496 5C223.572 5 5 229.506 5 500.002c0 276.43 224.506 495.001 495.002 495.001 276.43 0 495.001-224.506 495.001-495.001C995.003 226.539 773.464 5 500.496 5zM253.243 654.782c2.967 34.616 16.813 67.253 28.681 100.88-114.726-96.924-153.297-368.903 71.209-502.42-7.912-7.912-11.868-10.879-18.791-14.835 22.747-6.923 44.505-19.78 66.264-27.692v-3.956c-21.759-13.846-47.473-25.714-71.21-35.605-25.714-10.879-47.472-25.714-65.274-45.494 0-3.956 1.978-6.923 5.934-10.88 45.494 30.66 92.967 56.374 149.341 71.21-33.626-21.759-62.308-48.462-78.132-86.045l3.956-3.956c3.956 3.956 11.868 6.923 13.846 10.88 33.627 38.571 72.198 60.33 116.704 79.12 21.758 6.924 48.462 10.88 74.176 13.847 10.879 3.956 17.802 6.923 25.714 14.835 10.88 23.736 25.715 27.692 49.451 27.692h35.604c11.869-3.956 19.78 0 22.748 10.88-14.835 17.802-18.791 43.516-44.506 58.351 3.956-10.879 7.912-17.802 10.88-29.67-10.88 3.956-18.792 11.868-28.682 14.835 3.956-6.923 3.956-14.835 7.912-22.747-14.835 3.956-27.692 11.868-38.572 15.824V267.09c-22.747-5.934-58.351 3.956-69.23 18.791-12.858 10.88-8.902 21.758 2.967 30.66 10.879 7.912 21.758 11.868 36.593 7.912 2.967-3.956 10.88-7.913 18.791-7.913 0 7.913 0 14.836-3.956 22.748 10.88 0 21.759 0 30.66-3.956-4.945 22.747-30.66 43.516-60.33 51.429 0-3.957 3.956-7.913 3.956-15.825 6.923-21.758 2.967-24.725-21.758-28.681-27.693 0-57.363 6.923-82.089 10.879-10.879 4.945-21.758 4.945-33.626 4.945v-4.945c14.835-6.923 33.626-10.88 51.429-17.802-21.759-6.923-51.43-6.923-67.253 3.956-29.67 18.791-47.473 47.473-67.253 77.143-25.715 48.462-33.627 100.88-17.803 156.264 14.836 66.264 58.352 116.704 123.627 146.374 73.187 36.594 148.352 32.638 214.616-11.868 60.33-45.495 96.924-99.89 100.88-178.022 0-26.704 0-53.407-10.88-75.166-3.955-7.912-7.911-14.835-15.824-17.802-32.637-19.78-51.428-45.494-63.297-78.132-2.967-15.824-13.846-26.703-31.648-33.626 31.648-7.913 58.352 10.879 85.055 21.758 0-3.956 3.956-3.956 3.956-3.956-3.956-6.923-3.956-13.846-7.912-25.715 13.846 7.913 25.715 14.836 33.627 25.715 13.846 17.802 25.714 40.55 25.714 63.297 0 7.912 3.956 10.879 3.956 14.835 29.67 59.34 36.594 118.682 26.704 182.968-3.957 22.747-15.825 44.505-22.748 62.308-45.494 90-116.704 138.462-213.627 149.34-13.846 0-28.681 3.957-42.528 6.924 20.77 0 46.484 3.956 73.188 7.912-7.913 2.967-18.792 6.923-26.704 6.923H466.87c-74.175-14.835-132.527-58.352-178.022-122.638-14.835-17.802-24.725-41.538-35.604-59.34z"/></svg>