<?xml version="1.0" encoding="utf-8"?>
<!-- Generator: Adobe Illustrator 26.2.1, SVG Export Plug-In . SVG Version: 6.00 Build 0)  -->
<svg version="1.1" id="a" xmlns="http://www.w3.org/2000/svg" xmlns:xlink="http://www.w3.org/1999/xlink" x="0px" y="0px"
	 viewBox="0 0 1000 1000" style="enable-background:new 0 0 1000 1000;" xml:space="preserve">
<path d="M500,0C223.9,0,0,223.9,0,500s223.9,500,500,500s500-223.9,500-500S776.1,0,500,0z M437.6,370.5L437.6,370.5l0,383.4
	c0,37.6-30.7,68.3-68.3,68.3c-25.6,0-48-14.3-59.7-35.3c-5.5-9.8-8.6-21.1-8.6-33.1V246.1c0-37.6,30.7-68.3,68.3-68.3c0,0,0,0,0.1,0
	c37.5,0,68.3,30.8,68.3,68.3V370.5z M769.1,424.1L769.1,424.1c-0.2,0-0.3,0-0.5,0h0c-15.1,0-29.7,4.2-42.5,12.2l-96,60.2
	L449.6,378.4V246.1c0-13.4-3.3-26-9.1-37L769.1,424.1z M805,562.2L805,562.2l-22.6,14.1l-12.2,7.7L440.7,790.6
	c5.7-11,8.9-23.5,8.9-36.7V623.7l180.3-113l5.6-3.5l5.6-3.5l91.3-57.2c11.2-7,23.7-10.4,36.1-10.4h0c9.5,0,19,2,27.7,5.8
	c12.1,5.3,22.9,14.2,30.4,26.2C846.6,499.9,836.9,542.3,805,562.2z"/>
</svg>
