<svg xmlns="http://www.w3.org/2000/svg" viewBox="0 0 1000 1000"><path d="M741.745 564.6c-20.334 0-35.02 5.649-42.927 16.945-10.167 12.426-14.685 29.371-20.334 49.705-12.426 42.926-36.148 72.297-63.26 94.89-22.593 21.464-53.094 30.5-88.113 32.76l124.262-464.286c6.778 12.426 14.685 25.982 22.593 41.797 11.296 20.334 18.074 36.149 28.241 46.316 9.037 7.907 22.593 13.556 39.538 13.556 15.815 0 25.982-7.908 38.408-20.334 13.556-13.556 16.945-29.371 16.945-46.316 0-30.5-11.297-65.52-32.76-99.41-19.204-31.63-46.316-56.482-76.816-79.075l27.111-98.28c0-7.907 0-14.685-3.389-23.722-4.518-6.778-12.426-12.426-20.333-12.426-5.649-2.26-11.297-2.26-15.816 0-5.648 2.26-7.907 3.389-13.555 7.908-3.39 3.389-5.649 7.907-6.778 13.555l-21.464 84.724c-20.333-7.907-38.408-13.556-57.612-14.685l16.945-65.52c2.26-7.908 0-16.945-3.389-23.723-4.519-6.778-10.167-12.426-16.945-13.555-9.037-1.13-16.944 0-23.722 3.389-9.038 3.388-14.686 10.166-14.686 19.204l-20.334 73.427c-42.926 0-82.464 10.167-119.742 27.111-39.538 16.945-73.428 45.186-102.799 77.946-30.5 35.02-51.963 74.557-67.779 123.132-14.685 46.316-23.722 100.539-23.722 162.67 0 36.149 2.26 72.297 9.037 106.187 5.648 32.76 14.685 64.39 27.112 92.631 14.685 29.371 28.24 56.483 46.315 79.076 12.426 18.074 28.241 32.76 42.927 46.315l-33.89 131.04c-2.259 6.778 0 14.685 3.39 22.593 4.518 7.907 10.166 11.296 20.333 13.555 1.13 0 3.389 1.13 6.778 1.13 15.815 0 25.982-6.778 29.37-22.593l29.372-109.576c14.685 6.778 30.5 12.426 47.445 16.945h2.26c1.129 0 3.388 2.26 6.777 2.26l-23.722 83.593c-2.26 9.037-2.26 19.204 1.13 23.723 6.777 6.778 12.425 12.426 19.203 14.685 3.39 0 4.519 1.13 7.908 1.13 15.815 0 24.852-6.778 29.37-23.723l25.983-92.63c9.037 0 19.204 3.388 28.241 3.388 47.445 0 86.983-10.167 120.873-25.982 36.148-15.815 65.52-39.538 88.112-66.65 23.723-25.981 38.408-53.093 50.834-82.464 10.167-27.111 15.816-54.223 15.816-76.816 0-19.204-6.778-35.02-19.204-46.316-14.686-12.426-23.723-19.204-39.538-19.204zM338.46 499.08c0-86.982 14.685-155.891 51.964-202.207 25.982-33.89 55.352-59.871 89.242-66.65L367.831 658.362c-3.39-3.389-5.649-7.907-5.649-11.296-14.685-40.668-23.722-89.243-23.722-147.984zm74.557 224.801 131.039-499.305c21.463 2.259 40.667 9.037 55.353 20.333l-132.17 506.084c-18.074-3.39-33.889-11.297-44.056-20.334z"/></svg>