<svg xmlns="http://www.w3.org/2000/svg" width="1000" height="1000">
  <path d="M460.334 7.77c6.895-9.194 27.582 5.747 48.27 26.434 29.88 24.135 59.762 24.135 83.897-5.747 10.344-10.343 14.94-10.343 24.135 0 10.344 9.195 26.434 24.135 34.479 34.479 10.343 9.194 20.687 24.135 29.88 29.881 16.09 0 29.882-10.343 40.226-16.09 8.045-6.895 18.388-10.343 28.732 10.344 11.493 19.538 19.538 35.628 29.881 54.016 10.344 25.284 13.792 29.881 44.822 25.284 24.135-3.448 31.03-14.94 39.076 14.941 4.597 24.135 4.597 43.673 10.343 67.808 0 16.09 10.344 26.433 24.135 26.433 40.225 3.448 44.822-3.448 44.822 33.33-4.597 20.687-10.343 39.075-14.94 58.613 0 26.433 24.135 37.926 44.822 44.822 13.791 5.746 13.791 16.09 9.194 29.881-9.194 16.09-19.538 34.479-29.881 49.42-13.792 28.731-13.792 28.731 10.343 55.165 22.986 18.389 27.583 27.583 13.792 37.926-21.837 32.18-71.256 63.21-54.017 85.047 21.837 34.479 29.882 39.076 10.344 54.017-13.792 5.746-73.554 41.374-74.704 43.672-13.79 5.747 0 34.479 5.747 50.569 4.597 13.791 0 19.538-13.792 24.135-62.06 0-83.897 16.09-94.24 70.106 0 18.389-47.121 19.538-64.36 13.791-34.48-5.746-58.614 4.598-64.36 40.225-5.747 18.389-16.09 18.389-29.882 13.792-18.388-9.195-44.822-19.538-68.957-29.882-9.194-3.448-13.791 0-24.135 10.344-11.493 10.343-19.538 24.135-29.881 34.478H463.78c-13.791-10.343-29.881-24.135-39.075-34.478-14.94-10.344-25.284-24.135-39.076-24.135-11.493 0-33.33 17.24-45.971 24.135-8.045 5.746-13.792 5.746-18.389-4.597-45.971-66.659-48.27-80.45-94.24-70.107-27.584 6.896-29.882 3.448-34.48-13.79-5.746-19.539-9.194-40.226-13.79-59.764-4.598-20.687-10.344-24.135-35.629-24.135h-24.135c-14.94 0-20.687-4.597-20.687-24.135v-40.224c0-54.017 5.747-50.569-43.672-64.36-14.941-4.597-20.687-14.94-14.941-28.732 4.597-16.09 10.344-35.628 14.94-49.42 8.046-31.03 8.046-41.374-29.88-64.36-22.986-10.343 0-24.134 19.537-58.613 29.881-45.971 29.881-45.971 0-80.45-17.24-22.985 21.836-54.016 64.36-78.15 13.791-13.792 10.343-21.837-10.344-54.017-10.343-10.344-5.746-20.687 16.09-29.882 3.448-1.149 59.763-21.836 72.405-34.478 10.344-10.344 5.747-29.881 5.747-50.568 0-13.792 4.597-18.389 20.687-18.389 24.135 0 79.3-6.896 82.748-10.344 11.493-9.194 11.493-25.284 14.94-39.075 3.449-13.792 8.046-27.583 25.285-20.687 24.135 5.746 43.673 10.343 63.21 16.09 25.285 4.597 25.285 4.597 40.225-16.09 4.598-8.045 14.941-24.135 20.688-34.479zM128.19 458.29c-20.687 31.03 40.225 4.596 20.687 48.27-5.747 19.537-10.344 44.821-16.09 64.359-4.597 10.343-4.597 17.24 10.343 19.538 25.285 4.597 25.285 4.597 25.285 29.881v58.614c0 43.672 39.075-5.747 44.822 29.88 4.597 22.987 13.791 39.077 19.538 58.614 14.94 51.718 27.582-26.433 52.867 20.687 10.343 13.792 25.284 29.882 35.627 49.42 33.33 33.329 26.434-32.18 54.017 0 20.687 14.94 34.478 24.135 52.867 39.075 34.478 27.583 16.09-24.135 50.568-14.94 19.538 4.597 40.225 14.94 59.763 20.687 13.791 3.447 18.388 3.447 24.135-10.344 5.746-19.538 11.493-29.881 29.881-24.135 18.389 4.597 40.225 4.597 58.614 8.045 16.09 0 16.09 0 16.09-18.388 0-19.538 0-25.285 18.388-29.882 19.538-5.746 40.225-5.746 59.763-10.343 19.538-9.195 19.538-9.195 10.343-24.135-10.343-13.792-5.746-25.284 9.195-29.882 20.687-9.194 34.478-24.135 55.165-34.478 19.538-9.194 19.538-9.194 4.597-25.284-14.94-10.344-14.94-18.389-4.597-28.732 13.792-13.792 29.881-34.479 43.673-49.42 14.94-14.94 14.94-14.94-5.747-24.135-13.79-10.343-13.79-14.94-8.045-29.88 8.045-20.688 18.389-39.076 28.733-59.764 9.194-19.537 9.194-19.537-10.344-25.284-18.389-8.045-18.389-8.045-18.389-24.135 0-18.388 4.598-40.225 8.045-58.613 8.045-44.822-25.284-1.15-37.926-45.972-5.746-18.388-5.746-37.926-10.343-58.613-5.747-19.538-5.747-24.135-24.135-13.791-16.09 10.343-20.687 0-24.135-10.344-11.493-19.538-21.837-39.076-29.882-54.016-10.343-19.538-10.343-24.135-26.433-10.344-13.792 10.344-24.135 10.344-33.33-5.746-10.343-13.792-25.284-28.732-39.075-43.673-16.09-14.94-16.09-14.94-25.284 5.747-10.344 9.194-20.687 9.194-28.732 4.597-21.837-10.344-35.628-20.687-56.315-28.732-18.389-10.344-18.389-10.344-24.135 8.045-5.747 16.09-13.792 20.687-29.881 16.09-13.792-5.747-34.479-10.344-54.017-16.09-18.388-4.598-24.135-4.598-24.135 16.09 0 13.79-4.597 19.537-20.687 24.134-19.538 0-43.673 0-62.061 5.747-21.836 4.597-21.836 4.597-16.09 24.135 4.597 14.94 4.597 18.388-10.344 24.135-58.613 17.239-82.748 19.538-67.807 50.568 8.045 13.792 8.045 19.538-5.747 29.882-51.717 47.12-78.151 45.97-50.568 62.06 16.09 10.344 16.09 20.688 5.746 34.48-9.194 16.09-24.135 35.627-34.478 56.314zm152.854 166.645c13.792-17.239 26.434-28.732 34.479-34.478 10.343-9.195 16.09-9.195 24.135 0 45.971 33.329 68.957 34.478 94.241 14.94 26.434-22.985 29.881-44.822 5.746-58.613-48.27-20.687-50.568-16.09-99.987-40.225-58.614-29.881-67.808-82.748-48.27-133.317 10.343-25.284 29.881-47.12 54.016-59.762 44.822-24.135 118.376-24.135 173.542 5.746 21.836 16.09 13.791 28.732-4.597 48.27-16.09 20.687-29.882 31.03-59.763 16.09-14.94-10.344-43.673-17.24-62.061-6.896-29.882 17.24-31.03 52.867-2.299 65.51 13.792 5.746 34.479 10.343 49.42 16.09 93.091 29.88 154.003 126.42 58.613 201.124-24.135 19.538-64.36 29.881-108.033 29.881-34.478 0-68.957-10.343-104.584-29.881-18.389-10.344-18.389-18.389-4.598-34.479zm247.096 78.151c4.597-24.134 10.344-43.672 14.94-67.807 4.598-14.94 9.195-20.687 25.285-14.94 13.792 4.596 34.479 10.343 52.867 14.94 16.09 4.597 20.687 9.194 16.09 24.135-4.597 24.135-10.343 49.419-16.09 74.703-2.298 12.642-4.597 13.792-18.388 9.194-20.687-5.746-42.524-13.791-64.36-19.537-12.642-3.448-14.94-6.896-10.344-20.688zm34.479-126.42c16.09-85.048 29.881-168.945 44.822-257.44 5.746-32.18 104.585-20.687 97.689 14.94-2.299 11.493-63.21 253.992-59.763 242.5-8.045 28.731-10.343 43.672-49.42 33.329-21.835-5.747-39.075-4.598-33.328-33.33z" style="fill:#000;fill-opacity:1;fill-rule:nonzero;stroke:none;"/>
</svg>
