<svg xmlns="http://www.w3.org/2000/svg" width="1000" height="1000">
  <path d="M507.208 271.976c59.866-63.192 129.71-109.754 220.617-99.777 137.47 0 267.179 116.406 267.179 254.984v338.132c0 48.78-15.521 68.734-54.323 68.734-45.454 0-58.757-19.955-58.757-68.734V475.963c0-48.78-4.435-88.69-41.02-133.035-79.82-93.125-240.571-64.3-273.83 64.3-9.978 42.128-9.978 89.799-9.978 137.47v220.617c0 48.78-12.195 68.734-54.323 68.734-45.453 0-58.757-19.955-58.757-73.169V456.008c0-113.08-80.93-184.032-190.684-167.403C172.402 300.8 123.623 365.1 119.19 475.963v289.352c0 48.78-11.087 68.734-49.889 68.734-53.214 0-64.3-19.955-64.3-68.734V440.487C5 336.276 81.495 227.63 172.403 187.72c116.405-41.02 213.965-25.498 304.872 58.757 4.434 4.435 15.52 16.63 29.933 25.499z" style="fill:#000;fill-opacity:1;fill-rule:nonzero;stroke:none;"/>
</svg>
