<svg xmlns="http://www.w3.org/2000/svg" width="1000" height="1000">
  <path d="M316.283 63.745C291.71 4.25 247.733 4.25 201.17 8.13c-27.161 5.174-33.628 18.108-27.161 37.509 10.347 60.79 21.988 112.526 27.161 172.023 0 130.633-5.173 257.387-5.173 384.14-6.467 69.844-11.641 134.515-11.641 204.358v85.365c5.174 38.802 27.162 59.497 71.137 55.616 20.695 0 42.683-11.64 63.377-16.814 31.042-11.64 31.042-15.52 16.814-42.682-6.467-11.64-6.467-21.988-6.467-32.335-5.173-27.162-10.347-51.736-12.934-86.658V623.789c50.443 20.695 50.443 20.695 50.443 59.497-3.88 80.191-3.88 165.556-3.88 252.214 0 37.509 20.694 59.496 58.203 59.496 27.161-5.173 55.616-16.814 81.484-27.161 5.174 0 12.934-16.814 12.934-25.868C490.893 870.83 485.72 795.812 485.72 719.5c0-47.856 0-47.856 50.443-58.203h3.88c144.861-27.161 269.028-151.328 285.842-296.19 27.162-234.106-178.49-408.715-399.661-347.925-37.51 10.347-76.311 28.455-109.94 46.562zm2.587 425.53V195.673c0-25.868 16.814-37.51 43.976-42.683 20.694 124.167 3.88 254.801 10.347 382.848-15.52-10.347-32.335-14.227-43.976-20.694-5.173-5.174-10.347-16.815-10.347-25.869zM485.72 145.23c0-29.748 5.173-34.922 33.628-29.748 111.232 15.52 178.49 93.125 178.49 206.944 0 50.443-7.76 107.353-42.683 152.622-33.628 50.443-87.951 72.43-139.688 81.484-16.814 0-24.574-3.88-24.574-20.694V195.673c0-16.815 0-29.749-5.174-50.443z" style="fill:#000;fill-opacity:1;fill-rule:nonzero;stroke:none"/>
</svg>
