<svg xmlns="http://www.w3.org/2000/svg" viewBox="0 0 1000 1000"><path d="M5 500.496c0 271.98 220.55 494.507 495.496 494.507 271.98 0 494.507-220.55 494.507-495.496C995.003 227.528 773.464 5 500.496 5 226.54 5 5 225.55 5 500.496zm55.385-69.23C75.22 315.55 165.22 146.428 370.935 73.241c158.243-40.55 247.254-21.758 385.716 60.33 29.67 16.813-14.835 38.571-44.506 21.758C472.804 6.978 155.33 143.462 105.88 431.265c-17.802 118.682 8.902 229.451 88.023 321.43 17.802 15.824-16.814 49.45-30.66 32.637-90-112.747-115.714-233.407-102.857-354.067zm120.66 424.286c48.461-60.33 127.582-141.429 193.846-207.693 31.649-30.66 31.649-30.66-3.956-58.352-21.758-12.857-38.571-29.67-57.363-44.505-8.9-7.912-8.9-12.857 0-16.813 45.495-21.759 83.078-43.517 123.627-66.264 10.88-4.945 11.868-7.913 0-17.803-23.736-16.813-29.67-23.736-47.472-35.604-14.836-11.868-14.836-11.868 0-21.758 97.912-54.396 207.693-107.803 433.188-221.54-11.868 17.803-69.231 77.143-203.737 221.54-13.846 12.857-13.846 15.824 0 25.714 20.77 18.791 43.517 36.593 65.275 53.407 18.791 12.857 18.791 18.79 0 26.703-38.572 17.802-74.176 39.56-114.726 57.363-17.802 10.879-17.802 13.846 0 26.703 18.791 12.857 35.605 22.748 49.45 34.616 13.847 8.9 9.891 15.824 0 18.791-71.208 34.616-137.472 70.22-207.692 104.836-42.528 22.747-232.418 122.637-230.44 120.66zm79.12 17.803c-8.9-4.946-8.9-12.858 5.935-21.759 12.857-8.9 25.714-8.9 43.516 0 149.342 84.066 353.079 61.32 481.65-72.198 143.407-144.396 153.298-368.902 31.649-530.111-16.813-21.759 10.879-48.462 29.67-26.704 175.056 231.43 99.89 559.782-172.088 681.431-129.561 63.297-273.957 44.506-420.331-30.66z"/></svg>