<svg xmlns="http://www.w3.org/2000/svg" viewBox="0 0 1000 1000"><path d="M5 500.496c0 271.98 220.55 494.507 495.496 494.507 271.98 0 494.507-220.55 494.507-495.496C995.003 227.528 773.464 5 500.496 5 226.54 5 5 225.55 5 500.496zm323.408 339.232v-713.08c-1.978-12.856 4.945-20.769 22.747-20.769h71.209c19.78 0 26.703 7.913 26.703 20.77-2.967 9.89 0 16.813 0 18.791v682.42c0 34.615-2.967 34.615-38.571 34.615h-59.341c-17.802 0-24.725-7.912-22.747-22.747zm139.45-427.254c0-20.77 6.924-24.725 25.715-24.725 22.747 0 24.725 3.956 24.725 24.725 0 23.736-1.978 25.714-24.725 25.714-21.758 0-25.714-1.978-25.714-25.714zm75.166-75.165c0-19.78 4.945-20.77 26.703-20.77 17.802 0 25.715.99 25.715 25.715-2.967 19.78-7.913 20.77-25.715 20.77-21.758 0-26.703-.99-26.703-25.715zm68.242 499.452c0-18.791 6.923-22.747 25.714-22.747 21.758 3.956 26.704 6.923 26.704 25.714 0 18.791-6.924 22.747-26.704 22.747-22.747 0-25.714-7.912-25.714-25.714zm0-68.242c0-23.736 2.967-25.714 25.714-25.714 21.758 0 26.704 1.978 26.704 25.714 0 22.747-4.946 25.714-26.704 25.714-22.747 0-25.714-2.967-25.714-25.714zm0-68.242c0-25.714 2.967-25.714 47.472-25.714 5.935 35.604 4.946 42.527-13.846 45.494-22.747 3.956-33.626 0-33.626-19.78zm0-72.198c0-24.725 2.967-28.681 25.714-28.681 21.758 0 26.704 3.956 26.704 28.681 0 20.77-4.946 24.725-26.704 24.725-18.791 0-25.714-5.934-25.714-24.725zm0-76.154c0-19.78 2.967-23.736 25.714-23.736 21.758 0 26.704 3.956 26.704 26.703s-4.946 28.681-26.704 28.681c-22.747 0-25.714-10.879-25.714-31.648zm0-70.22c0-17.802 6.923-24.725 25.714-18.791 21.758 0 26.704.989 26.704 20.769 0 18.791-6.924 23.736-30.66 23.736-18.791 0-21.758-6.923-21.758-25.714zm0-69.231c0-20.77 2.967-24.725 25.714-24.725 21.758 0 26.704 3.956 26.704 24.725 0 23.736-6.924 25.714-30.66 25.714-18.791 0-21.758-1.978-21.758-25.714zm0-70.22c0-24.726 6.923-25.715 25.714-25.715 21.758 0 26.704.99 26.704 20.77 0 24.725-4.946 25.714-26.704 25.714-22.747 0-25.714-.989-25.714-20.77zm71.209 422.309c.989-19.78 6.923-21.758 27.692-21.758 18.791 0 24.726 1.978 24.726 25.714 0 22.747-5.935 25.714-26.704 25.714-24.725 0-25.714-6.923-25.714-29.67zm0-136.484c.989-24.725 6.923-28.681 27.692-28.681 18.791 0 24.726 9.89 24.726 29.67s-5.935 23.736-24.726 23.736c-20.77 0-27.692-3.956-27.692-24.725zm0-76.154c.989-19.78 6.923-23.736 27.692-23.736 18.791 0 24.726 3.956 24.726 26.703s-5.935 28.681-26.704 28.681c-24.725 0-25.714-10.879-25.714-31.648zm0-68.242c.989-19.78 6.923-20.77 27.692-20.77 18.791 0 24.726.99 24.726 20.77 0 18.791-5.935 23.736-26.704 23.736-18.791 0-25.714-4.945-25.714-23.736zm0-71.21c0-20.768.989-24.724 25.714-24.724 20.77 0 26.704 3.956 26.704 24.725 0 23.736-5.935 25.714-24.726 25.714-20.77 0-26.703-1.978-27.692-25.714zm.989 427.255c0-21.758 5.934-25.714 26.703-25.714 18.791 3.956 24.726 6.923 24.726 25.714 0 18.791-5.935 22.747-26.704 22.747-18.791 0-25.714-3.956-24.725-22.747z"/></svg>