<svg xmlns="http://www.w3.org/2000/svg" width="1000" height="1000">
  <path d="M352.503 637.47V355.454c0-11.8 0-11.8-10.62-11.8h-51.92c-24.779 0-38.939-14.16-38.939-37.759v-30.68c0-20.06 16.52-34.219 35.4-34.219h34.22c21.239 0 33.039 16.52 33.039 34.22v54.279c0 10.62 0 10.62 11.8 10.62h50.739c22.42 0 33.04 10.62 33.04 35.399v18.88c2.36 27.14 22.419 47.199 48.378 50.739 20.06 2.36 44.84-16.52 48.38-40.12 1.18-8.26 1.18-20.06 1.18-29.499 0-21.24 10.62-35.4 33.039-35.4h59c11.799 0 11.799 0 11.799-12.98v-50.738c0-16.52 7.08-29.5 23.6-34.22 1.18 0 4.72-1.18 9.44-1.18h35.399c18.88 0 34.22 14.16 35.4 30.68v38.939c-1.18 24.78-21.24 33.04-37.76 33.04h-51.92c-10.62 0-10.62 0-10.62 10.62v60.178c0 5.9-2.36 10.62-3.54 15.34-3.54 10.62-11.799 15.34-23.599 15.34s-23.6 0-36.58 2.36c-18.879 1.18-36.579 20.06-40.118 38.94-1.18 21.239 7.08 38.939 25.96 51.918 9.439 3.54 17.699 4.72 28.319 4.72h18.88c20.059 0 30.679 11.8 30.679 30.68v61.359c0 12.98 0 12.98 12.98 12.98h50.739c22.42 0 36.58 12.98 36.58 36.579v34.22c0 15.34-14.16 31.859-33.04 31.859h-40.12c-14.16 0-27.14-11.8-29.5-25.96-1.18-9.44-1.18-15.34-1.18-22.42V661.07c0-10.62 0-10.62-10.619-10.62H577.88c-15.34 0-31.86-12.98-30.68-29.499 0-15.34 2.36-28.32-2.36-42.48-7.08-16.52-25.959-31.859-46.019-33.039-20.06 0-34.22 9.44-42.479 27.14-4.72 9.44-7.08 17.7-7.08 28.32v20.059c0 18.88-12.98 29.5-28.32 29.5h-55.458c-11.8 0-11.8 0-11.8 10.62v50.739c0 24.78-11.8 38.939-34.22 38.939h-33.04c-21.239 0-35.399-14.16-35.399-35.4V682.31c1.18-21.24 14.16-34.22 35.4-34.22h56.639c8.26 0 9.44 0 9.44-10.62zM5.588 500.592c0-12.98 10.62-20.06 20.06-20.06 11.8 0 18.88 7.08 18.88 20.06 0 10.62-8.26 18.88-18.88 18.88-12.98 0-20.06-8.26-20.06-18.88zm83.779 154.577c0-15.34 14.16-31.86 33.04-31.86s31.859 14.16 31.859 31.86c0 20.06-12.98 35.4-31.86 35.4s-33.039-15.34-33.039-35.4zm0-311.515c0-20.06 14.16-33.039 34.22-34.219 15.34 0 34.219 14.16 30.679 34.22 0 21.24-11.8 34.219-31.86 34.219-16.52 0-35.399-16.52-33.039-34.22zm55.46 493.232c0-11.8 8.259-21.24 20.059-21.24 12.98 0 17.7 9.44 17.7 21.24 0 11.8-5.9 18.88-17.7 18.88-10.62 0-20.06-10.62-20.06-18.88zm0-672.589c0-9.44 8.259-18.88 17.699-18.88 14.16 0 22.42 8.26 22.42 18.88s-8.26 20.06-20.06 20.06c-11.8 0-20.06-9.44-20.06-20.06zm8.259 353.995v-37.76c0-17.7 12.98-31.86 31.86-33.04h35.399c15.34 0 28.32 11.8 30.68 29.5 1.18 14.16 1.18 33.04 0 48.38-2.36 12.98-10.62 20.06-23.6 21.24-17.7 2.36-34.22 2.36-49.56 0-15.34-1.18-24.779-12.98-24.779-28.32zm156.937 359.894c0-18.88 15.34-34.22 35.4-34.22 16.52 0 31.86 15.34 31.86 34.22 0 20.06-14.16 33.04-31.86 33.04-20.06 1.18-35.4-15.34-35.4-33.04zm0-756.368c0-18.88 14.16-30.68 35.4-34.22 17.7 0 31.86 16.52 31.86 35.4s-15.34 33.04-34.22 33.04c-17.7 0-33.04-15.34-33.04-34.22zm139.238 695.009v-34.22c0-17.7 14.16-31.86 34.22-31.86h30.68c21.239 0 35.399 11.8 35.399 33.04v31.86c0 20.06-11.8 33.04-33.04 35.4h-33.04c-20.06-2.36-34.219-15.34-34.219-34.22zm0-601.79v-33.04c0-17.7 14.16-30.68 30.68-30.68h37.76c17.699 0 31.859 10.62 31.859 30.68v35.4c0 20.06-14.16 34.219-33.04 34.219h-29.5c-23.6 0-37.759-14.16-37.759-36.58zm30.68 758.727c0-8.26 9.44-18.88 18.88-18.88 12.98 0 20.059 10.62 20.059 18.88 0 11.8-8.26 21.24-20.06 21.24-11.8-1.18-18.88-8.26-18.88-21.24zm0-948.704c0-10.62 9.44-20.06 18.88-20.06 11.8 0 20.059 9.44 20.059 20.06s-8.26 20.06-16.52 20.06c-12.98 0-22.42-8.26-22.42-20.06zm143.957 853.126c-2.36-21.24 15.34-33.04 30.68-34.22 21.24 0 35.4 15.34 35.4 34.22 0 17.7-14.16 33.04-34.22 33.04-18.88 0-31.86-15.34-31.86-33.04zm0-756.368c0-18.88 12.98-34.22 31.86-34.22 20.06 0 34.22 15.34 34.22 34.22 0 20.06-14.16 34.22-35.4 34.22-18.88 0-30.68-14.16-30.68-34.22zm123.898 401.194v-47.2c0-15.34 17.7-28.32 30.68-28.32h17.7c8.26 0 16.52 0 23.6 1.18 17.699 3.54 24.779 14.16 28.319 35.4v34.22c-3.54 12.98-11.8 27.14-27.14 28.32-16.52 2.36-31.86 0-48.38 0-11.799 0-22.419-12.98-24.779-23.6zm68.44 312.694c0-10.62 7.08-20.06 17.699-20.06 10.62 0 21.24 9.44 21.24 20.06 0 9.44-10.62 20.06-18.88 20.06-11.8 0-20.06-8.26-20.06-20.06zm0-673.769c0-8.26 7.08-16.52 20.059-16.52 8.26 0 18.88 9.44 18.88 18.88 0 12.98-10.62 20.06-18.88 20.06-12.98 0-20.06-9.44-20.06-22.42zm27.139 493.232c0-17.7 15.34-31.86 35.4-31.86 16.519 0 33.039 16.52 33.039 34.22s-16.52 33.04-33.04 33.04c-20.06 0-35.4-15.34-35.4-35.4zm0-312.694c0-17.7 15.34-33.04 31.86-33.04 20.059 0 36.579 15.34 35.399 34.22 1.18 17.7-15.34 34.219-34.22 34.219-20.06-2.36-33.04-15.34-33.04-35.4zm110.918 160.477c0-15.34 8.26-22.42 18.88-22.42s20.06 9.44 21.24 18.88c0 11.8-9.44 20.06-21.24 20.06-10.62 0-18.88-8.26-18.88-16.52z" style="fill:#000;fill-opacity:1;fill-rule:nonzero;stroke:none;"/>
</svg>
