<svg xmlns="http://www.w3.org/2000/svg" viewBox="0 0 1000 1000"><path d="M490.877,548.325c-22.552,0-40.2-18.63-40.2-41.182a40.8,40.8,0,0,1,41.182-41.182c21.572,0,40.2,18.63,40.2,41.182C531.078,530.675,513.429,548.325,490.877,548.325ZM409.494,353.2c48.045-33.337,116.681-35.3,167.668,0L518.331,457.136c-18.63-8.824-36.279-6.863-53.928-.98ZM319.286,510.084a27.156,27.156,0,0,1,8.824-.98h99.033c7.844,0,7.844,0,8.825,7.844,1.961,14.708,7.844,25.494,18.629,35.3,1.961.98,3.922,2.941,6.864,5.883L398.708,658.143C338.9,626.766,312.422,562.052,319.286,510.084Zm264.74,148.059L522.253,558.13c2.942-4.9,7.844-8.825,11.766-13.727,5.884-7.845,10.786-17.65,11.767-28.435,0-4.9,1.961-7.845,6.863-7.845,35.3.981,71.578.981,107.857.981l.981.98C671.292,562.052,640.9,628.727,584.026,658.143ZM535.981,775.805c-11.767.981-22.552,1.961-34.319,2.942-9.8,0-9.8,0-10.785,10.785-1.961,18.63-2.942,37.26-4.9,57.851-.98,10.786-1.961,21.572-2.942,34.318,3.923,0,5.884.981,8.825.981,15.688-.981,30.4-1.961,46.085-1.961,5.883-.981,7.844-1.961,6.863-7.844-1.961-25.494-4.9-50.007-5.883-74.52C537.942,790.513,536.961,784.63,535.981,775.805Zm43.142-9.8c7.845,34.318,17.65,66.675,26.474,102.955L663.448,846.4c-14.708-33.338-29.416-65.7-44.123-98.052ZM402.63,764.039l-43.143,94.13,61.773,17.649c8.824-33.337,17.649-66.675,25.493-100.013Zm314.747,51.967,49.026-40.2-77.461-78.441L655.6,725.8ZM704.63,320.844c24.513-25.493,50.987-50.987,75.5-77.461-13.727-13.727-26.474-27.454-42.162-38.24-24.513,24.513-46.085,51.967-66.676,80.4ZM247.708,790.513a430.088,430.088,0,0,0,54.909,39.221c18.63-28.435,37.26-55.89,55.889-84.325l-40.2-26.474ZM839.942,673.831l-99.033-48.045-23.532,38.24L806.6,727.76A331.678,331.678,0,0,0,839.942,673.831ZM347.721,149.253,388.9,241.422,438.909,227.7c-8.825-32.357-16.669-64.714-25.493-99.033ZM199.662,743.448l83.344-58.831L251.63,642.455l-90.208,44.123C174.169,706.188,186.916,724.818,199.662,743.448ZM630.11,259.071a2.108,2.108,0,0,0,1.961-1.961c12.747-29.415,27.455-58.831,40.2-88.246,1.961-3.922.98-5.883-2.942-7.845-5.883-2.941-11.766-5.883-18.63-7.844-11.766-4.9-24.513-9.805-37.259-14.707-9.806,34.318-17.65,67.655-26.474,100.013Zm-342.2-75.5a307.852,307.852,0,0,0-55.89,44.124l68.637,69.617,42.162-32.357ZM757.578,584.6l107.857,29.415c5.883-21.571,10.786-42.162,12.747-64.714l-110.8-9.8C764.442,555.188,760.519,568.916,757.578,584.6Zm-639.3-31.377c.981,4.9.981,8.825,1.961,12.747,2.942,15.688,6.864,31.377,9.8,47.065,2.942,8.825,3.923,8.825,11.767,6.864,24.513-6.864,48.045-13.728,72.558-19.611a96.3,96.3,0,0,0,15.688-4.9c-4.9-17.65-9.805-34.319-13.727-51.968Zm120.6-167.669,27.455-48.045-80.4-57.851c-13.727,20.591-26.474,40.2-35.3,62.754Zm493.2-25.493,20.591,42.162,99.033-47.065c-7.844-20.591-18.63-40.2-31.377-59.811ZM481.071,121.8c0,5.883.981,11.766.981,18.63,1.961,24.513,4.9,50.006,5.883,76.48.981,4.9,3.922,5.883,8.825,5.883l32.357,2.942c2.941,0,5.883.98,10.786.98,4.9-34.318,8.824-67.656,12.746-101.974C528.136,121.8,504.6,119.838,481.071,121.8ZM126.123,410.071c-5.883,14.708-11.766,59.812-9.805,71.578l97.072,8.825c1.961-19.61,4.9-36.279,6.863-53.929Zm755,74.52A365.286,365.286,0,0,0,872.3,418.9c-5.883.981-10.786,2.942-14.708,2.942-24.513,6.863-50.007,14.707-75.5,21.571-4.9.981-12.747,1.961-15.688,5.883-1.961,3.922,0,10.786.98,16.669.981,8.825,1.961,18.63,2.942,28.435ZM274.182,500.279C276.143,624.8,374.2,717.955,491.857,717.955c126.487-.981,218.656-101.974,216.7-218.656C707.571,372.812,603.636,282.6,488.916,284.565,373.214,285.545,276.143,379.675,274.182,500.279Zm624.591,12.747c-.981,81.383-29.416,162.766-86.286,234.344-36.279,48.046-82.364,84.325-135.312,110.8-13.727,7.844-30.4,12.747-46.084,18.63-19.61,7.844-39.221,15.688-60.792,18.63-8.825.98-18.63,3.922-27.455,1.961-6.863-.981-12.747.98-19.61,1.961H495.779c-9.805.98-19.61,1.961-29.415.98-13.728,0-26.474-.98-39.221-4.9-12.747-1.961-25.494-6.864-39.221-10.786-9.805-3.922-20.591-8.825-31.377-10.786-22.551-1.961-42.162-13.727-60.792-26.474-18.63-13.727-37.259-26.474-54.909-40.2-16.669-11.766-31.376-26.474-44.123-42.163A702.7,702.7,0,0,1,152.6,703.247c-29.415-46.085-44.123-97.072-51.967-151-6.864-50.007-2.942-99.033,8.825-148.059,19.61-72.558,55.889-135.311,109.818-187.279C278.1,159.058,349.682,123.76,431.065,110.032c71.578-12.746,141.2-4.9,208.851,19.611,44.123,16.669,84.324,41.182,120.6,71.578,54.91,48.045,95.111,106.876,117.663,175.513C891.909,416.935,897.792,459.1,898.773,513.026ZM6.5,502.24C6.5,771.883,225.156,992.5,497.74,992.5,767.383,992.5,988,773.844,988,501.26,988,231.617,768.364,11,497.74,11,226.136,11,6.5,229.656,6.5,502.24Z"/></svg>