<svg xmlns="http://www.w3.org/2000/svg" width="1000" height="1000">
  <path d="M874.403 935.756H127.048c-18.08 0-28.93-6.027-38.573-24.108-25.314-40.984-49.422-79.558-77.146-119.336-8.438-16.876-8.438-27.725 0-43.395C133.075 523.505 258.438 301.71 391.033 81.12c7.233-12.055 16.876-16.876 30.135-16.876H570.64c14.465 0 22.903 4.821 31.341 18.081 107.282 168.757 200.098 342.337 302.558 515.916l83.174 141.033c7.232 12.054 10.848 20.492 2.41 34.957-22.903 44.6-48.216 89.2-72.324 135.006-9.644 20.492-20.492 26.519-43.395 26.519zM95.708 800.75c10.848 18.08 18.08 31.34 25.313 44.6 9.643 18.081 22.903 25.314 44.6 25.314h662.976c0-2.411 2.411-4.822 2.411-7.233-83.173-139.828-169.963-282.066-257.958-426.715-8.438 15.67-15.67 26.519-22.903 37.367-15.67 20.492-13.26 38.574 0 59.066 43.395 74.735 87.995 153.087 133.801 229.028 7.232 12.054 12.054 22.902 20.492 38.573zm0-66.298h497.834c-13.26-22.903-22.903-44.6-33.751-60.27-7.233-7.233-18.081-13.26-25.314-13.26H250c-7.232 0-15.67-2.41-30.135-4.822 100.049-174.784 198.893-349.569 298.942-527.97h-54.244c-20.492-2.41-31.34 7.233-40.984 26.52L136.691 656.1c-14.464 25.314-27.724 51.833-40.983 78.352zM325.94 595.83c25.314 0 43.395 2.41 61.476 0 10.849-1.205 22.903-8.438 26.519-19.287 34.957-51.832 65.092-106.076 97.638-159.114 18.081-33.751 38.573-68.708 61.476-106.076 107.282 175.99 208.536 349.57 312.202 525.56 12.054-22.904 20.492-39.78 32.546-59.066 7.232-10.849 7.232-22.903-2.411-36.162L611.623 220.947c-10.848-19.286-24.108-36.162-38.573-59.065-81.968 144.65-160.32 285.682-247.109 433.948zm154.293-1.205h31.34c-4.821-10.85-9.643-18.082-13.26-26.52-7.232 8.438-13.259 15.67-18.08 26.52z" style="fill:#000;fill-opacity:1;fill-rule:nonzero;stroke:none;"/>
</svg>
