<svg xmlns="http://www.w3.org/2000/svg" width="1000" height="1000">
  <path d="M500.496 5C223.572 5 5 229.506 5 500.002c0 276.43 224.506 495.001 495.002 495.001 276.43 0 495.001-224.506 495.001-495.001C995.003 226.539 773.464 5 500.496 5zM176.1 537.09c-24.725-24.726-24.725-52.418 0-77.143 23.737-24.726 55.385-38.572 87.034-46.484 31.648-6.923 42.527-13.846 49.45 17.802-6.923 3.956-17.802 6.923-24.725 10.88-24.725 9.89-52.418 17.802-77.143 30.659-24.725 14.835-24.725 36.593 0 53.407 45.495 27.692 98.901 39.56 148.352 45.494 17.802 3.956 37.583 6.923 59.341 11.868-45.495-82.088-84.066-159.231-105.825-244.286 9.89-2.967 18.792-3.956 31.649-6.923 3.956 13.846 10.88 28.681 14.835 42.527 2.967 10.88 5.934 13.847 17.802 13.847 16.814-2.968 34.616-2.968 52.418-6.924 6.923 0 16.813-6.923 21.758-13.846 37.583-56.374 80.11-108.791 136.484-152.308 17.803-9.89 34.616-20.77 53.407-24.725 30.66-9.89 63.297 3.956 70.22 39.56 3.956 26.704 2.967 85.055-6.923 112.748-7.912 31.648-10.879 31.648-38.571 20.77 10.879-50.44 13.846-52.419 13.846-123.628-2.967-17.802-17.803-24.725-32.638-17.802-16.813 7.912-34.615 17.802-44.505 24.725-46.484 36.594-82.089 78.133-113.737 123.627 0 3.956 0 3.956-2.967 6.923 45.495 3.956 89.011 3.956 130.55 7.912 42.527 2.968 85.055 13.847 129.56 20.77-2.966 10.879-6.922 17.802-9.89 24.725-2.966 3.956-9.89 6.923-14.835 6.923-12.857-2.967-30.66-10.879-41.538-6.923-10.88 6.923-13.846 22.747-20.77 38.572-11.868 21.758-11.868 39.56 0 56.374 37.583 78.132 68.242 166.154 52.418 236.374-6.923 38.571-34.615 56.374-70.22 46.484-46.483-14.836-78.132-46.484-109.78-79.122-5.934-3.956 13.846-29.67 13.846-30.659 47.473 45.495 54.396 56.374 98.901 74.176 17.803 5.934 32.638 0 35.605-21.758 0-24.726 0-49.45-2.967-74.176-10.88-49.451-29.67-90.99-49.451-140.44-46.484 77.143-95.934 151.319-159.231 211.649-6.923-6.923-9.89-10.88-13.846-18.792-2.968-2.967-2.968-9.89 0-12.857 6.923-9.89 16.813-17.802 24.725-24.725 6.923-6.923 6.923-14.835 0-21.758-32.638-41.539-46.484-56.374-89.011-59.341-52.418-2.967-104.836-14.835-154.287-35.605-21.758-9.89-46.483-24.725-59.34-38.571zm111.76-261.1c0-21.758 14.834-35.605 35.604-35.605 16.813 0 31.648 13.847 31.648 35.605 0 17.802-17.802 32.637-35.604 32.637-16.814 0-31.649-14.835-31.649-32.637zm14.834 450.99c2.967-31.648 9.89-66.264 16.814-98.901 13.846 1.978 20.769 4.945 32.637 4.945-3.956 30.66-14.835 59.34-14.835 87.033 0 28.682 6.923 56.374 14.835 89.012-37.583 0-49.45-39.561-49.45-82.089zm16.814-514.287c14.835-21.758 32.637-27.692 57.362-24.725 49.451 13.846 81.1 49.45 115.715 84.066-6.923 6.923-13.846 17.802-21.758 24.725-41.539-45.494-87.034-81.099-151.32-84.066zm53.406 560.771c0-18.791 16.814-35.604 35.605-35.604 17.802 0 28.681 15.824 30.66 35.604 0 17.802-12.858 35.605-30.66 35.605-18.791 0-35.605-17.803-35.605-35.605zm3.956-349.122c34.616 80.11 77.143 159.231 133.517 228.462 52.418-74.176 98.902-148.352 130.55-232.418-88.022-6.923-177.033-9.89-264.067 3.956zm74.176 73.187c0-34.615 24.726-59.34 59.341-59.34 31.649 0 59.341 28.68 56.374 59.34 0 31.649-28.681 61.319-60.33 61.319-30.66 0-55.385-29.67-55.385-61.319zm253.188 68.242c59.341-14.835 115.715-31.648 148.352-92.967 9.89 14.835 9.89 28.681 3.956 43.516-6.923 12.858-18.791 27.693-28.681 34.616-32.638 24.725-70.22 35.604-112.748 45.495-3.956-9.89-6.923-20.77-10.879-30.66zm59.341-117.693c-2.967-20.769 14.835-34.615 31.648-34.615 21.759 0 36.594 13.846 32.638 34.615 0 18.792-14.835 31.649-32.638 31.649-16.813 0-31.648-12.857-31.648-31.649z" style="fill:#000;fill-opacity:1;fill-rule:nonzero;stroke:none;"/>
</svg>
