<svg xmlns="http://www.w3.org/2000/svg" viewBox="0 0 1000 1000"><path d="M802.567 308.145c-37.096 35.937-73.033 70.715-111.288 108.97-61.44-62.6-125.2-126.359-187.8-190.118-63.758 64.919-127.517 128.678-190.117 191.277L200.914 305.827C299.451 207.29 400.306 106.435 501.161 6.739c98.537 99.696 199.392 199.392 301.406 301.406zM5 501.741c37.096-35.937 73.033-73.033 110.13-108.97 34.777 34.777 70.714 71.874 105.491 106.651l-108.97 108.97zm197.073 191.277c34.778-33.619 71.874-69.555 110.13-107.81 60.28 61.44 124.04 125.199 186.64 188.958 66.077-64.919 128.677-129.837 192.436-192.437 38.255 39.415 74.192 75.352 110.13 110.13-99.697 100.855-200.552 200.55-301.407 301.406-98.537-98.537-198.233-199.392-297.929-300.247zM393.35 500.582 500.002 393.93c35.937 35.937 71.874 71.874 106.651 107.81-33.618 34.778-69.555 69.556-106.651 106.652-35.937-35.937-70.715-71.874-106.652-107.81zm384.873 0c35.937-37.097 73.033-73.034 108.97-108.97l107.81 107.81-108.97 108.97c-34.777-34.777-70.714-71.874-107.81-107.81z"/></svg>