<svg xmlns="http://www.w3.org/2000/svg" viewBox="0 0 1000 1000"><path d="M500.496 5C223.572 5 5 229.506 5 500.002c0 276.43 224.506 495.001 495.002 495.001 276.43 0 495.001-224.506 495.001-495.001C995.003 226.539 773.464 5 500.496 5zM142.473 612.255c-25.714-82.088-25.714-164.177 8.901-244.287 62.308-156.264 179.012-238.352 344.177-244.286C639.947 121.704 751.706 185 831.816 312.583c3.956 3.956 6.923 7.913 7.912 16.814H712.145c-12.857 0-14.835 0-23.736-8.901-53.407-53.407-113.737-77.144-183.957-77.144-139.45 0-240.33 103.847-256.154 225.496-11.869 55.384 1.978 92.967 28.68 165.165h-108.79c-12.858 0-20.77-2.967-25.715-21.758zm34.615 79.12c-6.923-12.856-12.857-12.856 12.858-12.856h92.967c8.901 0 24.725 3.956 33.627 12.857 73.187 64.286 175.055 83.077 270.99 51.429 90-29.67 148.352-95.935 170.11-190.88 7.912-53.407 4.945-100.88-18.791-149.341-11.869-30.66 0-25.715 39.56-25.715h61.32c21.757 0 21.757 0 26.702 23.737 20.77 76.154 20.77 156.264-8.9 230.44-58.353 142.418-190.88 246.265-336.266 246.265-149.34 0-271.978-62.308-344.177-185.935z"/></svg>