<svg xmlns="http://www.w3.org/2000/svg" viewBox="0 0 1000 1000"><path d="M498.763 742.57c13.216-21.146 112.338-222.032 129.519-256.394 29.075-58.152 56.83-116.303 84.583-173.133 37.006-70.046 67.403-140.091 104.408-210.137 14.538-27.754 27.754-55.508 42.292-84.584 3.965-6.608 6.608-11.895 15.86-11.895 31.719 0 95.156-3.965 103.086 1.322-159.916 327.762-325.119 660.81-485.035 987.25-27.754-63.437-60.794-124.232-108.373-218.067-30.397-63.437-62.116-128.197-89.87-191.635-18.503-38.327-37.005-76.654-56.83-113.66L161.75 306.436c-17.18-37.005-34.362-74.01-52.864-107.051L45.447 59.292 24.3 15.68c-5.286-6.61-2.642-10.574 3.966-10.574h767.861c10.573 0 15.86 0 25.111 1.321-13.216 25.111-23.789 43.614-37.005 67.403-17.181 25.11-26.433 29.076-54.187 29.076-178.418-1.322-359.48 0-537.9 0h-5.286c-14.538 0-14.538 2.643-5.286 14.537 7.93 23.79 22.467 47.579 33.04 70.046 9.252 17.181 15.86 34.363 23.79 51.544 10.572 21.146 25.11 22.467 47.578 22.467 66.08-1.321 132.162-1.321 199.565-1.321h187.67c18.502 0 18.502 0 11.894 15.859-11.894 22.468-26.432 47.578-38.327 71.368-3.965 5.286-10.573 7.93-18.502 7.93H315.057c-14.537 0-14.537 2.642-9.25 14.537 17.18 38.327 37.004 74.01 56.829 111.016 18.502 37.006 37.005 72.69 55.508 108.373 25.11 44.935 44.935 87.227 70.046 132.162 1.321 5.287 5.286 13.216 10.573 21.146z"/></svg>