<svg xmlns="http://www.w3.org/2000/svg" viewBox="0 0 1000 1000"><path d="M5 500.496c0 271.98 220.55 494.507 495.496 494.507 271.98 0 494.507-220.55 494.507-495.496C995.003 227.528 773.464 5 500.496 5 226.54 5 5 225.55 5 500.496zm146.374 62.308c-5.934-18.791 0-34.615 15.824-42.528 33.627-15.824 61.32 8.902 61.32 42.528 0 11.868-7.913 25.714-17.803 41.539 74.176 0 134.506 0 190.88-29.67 64.286-33.627 61.319-177.034 0-211.65-51.429-30.66-107.803-25.714-169.122-30.66-25.714 0-3.956 25.715-3.956 43.517 0 21.759-7.912 34.616-17.802 43.517-8.901 4.945-35.605 4.945-43.517 0-7.912-8.901-15.824-25.714-15.824-43.517 0-21.758 3.956-46.483 12.857-73.187 2.967-15.824 10.88-25.714 15.825-25.714 79.12-4.945 156.264-4.945 225.495 29.67 47.472 17.803 83.077 56.374 90.99 106.814 7.911 27.692 21.757 31.648 43.516 31.648h90.99c61.318 0 95.933 25.715 111.758 86.045 9.89 31.648 14.835 31.648 38.571 4.945 26.704-21.759 52.418-21.759 79.121-12.858 20.77 7.913 38.572 39.561 38.572 61.32 0 24.725-21.758 55.384-46.484 55.384-23.736 5.934-84.066-16.813-94.945-16.813-15.824.989-10.88 62.308-10.88 90 0 18.791-7.911 29.67-24.725 29.67-52.417 0-102.857 0-152.308-2.966-51.429 0-85.055-39.561-90.99-86.045 0-49.45 35.605-87.033 88.023-90.989 24.725-4.945 52.418-4.945 76.154-4.945 13.846 0 26.704 0 40.55-3.956 0-33.627-9.89-48.462-40.55-52.418-38.571-3.956-81.099-3.956-119.67 0-8.902 0-18.792 12.857-21.759 18.791-26.703 89.012-91.978 123.627-174.066 133.517-47.473 4.945-90 4.945-133.517 7.912-26.704 0-34.616-7.912-34.616-34.615 0-22.747-3.956-42.528-7.912-64.286zm388.683 86.044c0 25.715 17.802 39.56 34.615 39.56h90.99c17.802 0 26.703-9.89 26.703-26.703 2.967-38.571-4.945-42.527-38.572-42.527-72.198 0-113.736-9.89-113.736 29.67zm290.77-44.505c22.747 0 34.615-33.627 2.967-41.539-22.747 0-19.78 41.539-2.967 41.539z"/></svg>