<svg xmlns="http://www.w3.org/2000/svg" width="1000" height="1000">
  <path d="M499.507 995.003h.99c89.01 0 172.088-22.45 249.23-67.253 74.474-44.209 133.814-103.55 178.023-178.022 44.803-77.143 67.253-160.418 67.253-249.726 0-89.308-22.45-172.583-67.253-249.726-44.209-74.473-103.55-133.814-178.022-178.023C672.585 27.45 589.31 5 500.002 5c-89.308 0-172.583 22.45-249.726 67.253-74.473 44.209-133.814 103.55-178.023 178.023C27.451 327.419 5 410.694 5 500.002c0 89.308 22.45 172.583 67.253 249.726C116.462 824.2 175.803 883.54 250.276 927.75c77.143 44.803 160.22 67.253 249.231 67.253zM202.803 500.002c0-53.704 13.55-103.65 40.55-149.836 26.406-44.802 62.01-80.407 106.813-106.814 46.187-27 96.132-40.55 149.836-40.55 53.703 0 103.648 13.55 149.835 40.55 44.803 26.407 80.407 62.012 106.814 106.814 27 46.187 40.55 96.132 40.55 149.836 0 53.703-13.55 103.648-40.55 149.835-26.407 44.803-62.011 80.407-106.814 106.814-45.989 26.901-95.934 40.45-149.835 40.55-53.902-.1-103.847-13.649-149.836-40.55-44.802-26.407-80.407-62.011-106.814-106.814-27-46.187-40.55-96.132-40.55-149.835zm47.473 0c0 45.198 11.175 86.835 33.626 125.11 22.45 38.275 52.715 68.539 90.99 90.99 38.274 22.45 79.813 33.626 124.615 33.626 45.495 0 87.33-11.176 125.605-33.627 38.275-22.45 68.539-52.714 90.99-90.989 22.45-38.275 33.626-79.912 33.626-125.11 0-45.198-11.176-86.836-33.627-125.11-22.45-38.276-52.714-68.54-90.989-90.99-38.275-22.45-79.912-33.626-125.11-33.626-45.198 0-86.836 11.175-125.11 33.626-38.276 22.45-68.54 52.714-90.99 90.99-22.45 38.274-33.626 79.912-33.626 125.11z" style="fill:#000;fill-opacity:1;fill-rule:nonzero;stroke:none;"/>
</svg>
