<svg xmlns="http://www.w3.org/2000/svg" viewBox="0 0 1000 1000"><path d="M5 500.496c0 271.98 220.55 494.507 495.496 494.507 271.98 0 494.507-220.55 494.507-495.496C995.003 227.528 773.464 5 500.496 5 226.54 5 5 225.55 5 500.496zm211.65 246.265v-.99c51.428-84.066 102.857-168.132 153.296-254.176 4.945-3.956 3.956-8.901 1.978-14.835-19.78-47.473-38.571-93.957-58.352-139.451-.989-4.945-2.967-9.89-5.934-17.802 55.385 57.362 111.759 113.736 166.155 169.121-84.066 86.044-171.1 171.1-257.144 258.133zm35.604-549.892c22.747 13.846 47.472 28.681 72.198 43.516 60.33 36.594 121.648 74.176 180 109.781 5.934 3.956 10.88 1.978 14.835 0 49.451-19.78 100.88-40.55 149.342-60.33 1.978 0 3.956-1.978 5.934-1.978-56.374 56.374-110.77 110.77-166.155 164.176zm91.978 490.55 166.154-166.154c83.078 86.045 170.11 172.089 256.155 257.144-9.89-4.945-19.78-11.868-29.67-15.824-76.155-46.484-151.32-92.967-225.496-137.473-2.967-.99-6.923-2.967-7.912-.99-54.396 21.76-108.791 41.54-159.231 63.298zm198.792-199.78c85.055-86.044 172.088-173.078 259.122-260.11-25.715 41.538-50.44 82.087-75.166 122.637-26.703 43.517-54.395 89.011-81.099 133.517-2.967 4.945-2.967 7.912-.989 12.857 20.77 49.45 40.55 100.88 62.308 150.33 0 2.967 0 4.945 1.978 7.912-56.374-57.362-110.77-113.736-166.154-167.143z"/></svg>