<svg xmlns="http://www.w3.org/2000/svg" width="1000" height="1000">
  <path d="M87.773 408.659c7.658 4.376 10.94 6.564 14.221 9.845 89.702 90.796 180.498 182.686 266.919 275.67 39.38 39.381 78.762 77.669 118.144 117.05 8.751 8.751 14.22 8.751 22.972 0 75.481-77.669 154.244-156.432 230.819-237.382 53.602-51.415 107.204-107.205 158.619-158.62 4.376-2.187 6.564-6.563 14.221-8.75v149.867c0 7.658-7.657 17.503-9.845 24.066-87.514 87.515-171.747 177.217-259.26 265.825-41.57 45.945-87.515 87.514-129.084 132.365-3.282 6.563-5.47 9.845-14.221 16.409-2.188-6.564-8.752-9.846-12.034-13.127-106.11-110.487-216.597-224.255-325.99-333.648-22.972-22.973-45.945-44.851-64.541-70.011-6.564-4.376-10.94-9.846-10.94-16.41-3.281-50.32 0-97.359 0-146.585zm36.1-22.973c91.89-92.983 181.592-187.061 274.576-276.763 29.536-29.536 59.072-61.26 88.608-89.702 2.187-4.376 8.751-8.751 12.033-14.221 6.563 5.47 13.127 9.845 16.409 16.409 92.983 94.078 187.061 187.061 281.139 284.42 26.254 26.255 51.414 52.51 77.669 79.857 9.845 7.658 9.845 14.222 0 22.973-49.227 49.227-94.078 97.36-140.023 142.21-74.387 74.387-143.304 148.774-218.785 224.255-16.41 15.315-16.41 15.315-32.818 3.282C366.725 654.792 247.487 532.273 127.155 408.66c-9.846-5.47-13.127-12.033-3.282-22.973zm67.823 22.973c29.536 29.536 57.979 57.978 87.515 88.608 54.696 59.072 110.486 112.674 165.182 167.37 19.691 19.691 36.1 39.382 54.697 59.073 10.94-9.846 16.409-17.503 22.972-26.254 92.984-94.078 187.062-191.438 284.421-284.421 9.846-9.846 9.846-16.41 0-29.536-97.36-96.266-193.625-193.625-287.703-290.985-19.69-19.69-19.69-19.69-38.287 0-54.696 59.072-111.58 112.675-165.183 171.747-42.663 37.193-82.044 79.856-123.614 121.425-5.47 7.658-9.845 14.222 0 22.973zM505.653 609.94V178.934c6.564 7.658 13.127 10.94 16.41 14.221 57.977 61.26 120.331 123.614 180.497 187.062 14.221 13.127 14.221 13.127-3.282 28.442-56.884 61.26-119.238 123.614-177.216 184.874-6.563 7.657-9.845 9.845-16.409 16.408zm45.945-115.956c3.282-4.375 3.282-4.375 5.47-4.375 28.442-29.536 55.79-56.885 85.326-86.42 8.752-6.564 2.188-12.034 0-17.504-20.784-17.502-36.1-33.911-51.414-51.414-14.221-12.033-27.349-24.066-39.382-38.288z" style="fill:#000;fill-opacity:1;fill-rule:nonzero;stroke:none;"/>
</svg>
