<svg width="1000" height="1000" viewBox="0 0 1000 1000" fill="none" xmlns="http://www.w3.org/2000/svg">
<path fill-rule="evenodd" clip-rule="evenodd" d="M500 995C773.381 995 995 773.381 995 500C995 226.619 773.381 5 500 5C226.619 5 5 226.619 5 500C5 773.381 226.619 995 500 995ZM201 714.268H315.71C333.746 757.555 366.355 817.291 413.104 860H348.175L201 714.268ZM484.527 714.268H343.124C376.022 792.761 429.457 844.128 452.062 860H484.527V714.268ZM512.664 860L512.664 714.268L652.623 714.269C642.764 744.329 607.605 815.559 545.85 860H512.664ZM798.355 714.269L652.623 860H583.365C602.122 849.178 664.167 771.984 680.038 714.269H798.355ZM346.731 140L201 285.731H319.317C335.188 228.016 397.232 150.822 415.99 140H346.731ZM486.691 285.731V140H453.505C391.75 184.441 356.591 255.671 346.731 285.731H486.691ZM656.23 285.731H514.828V140H547.293C569.898 155.872 623.333 207.238 656.23 285.731ZM683.645 285.731H798.355L651.18 140H586.251C633 182.709 665.609 242.445 683.645 285.731ZM632.32 378.292C650.765 378.292 666.083 385.639 678.276 400.332L709.225 360.004C700.159 349.374 688.905 341.402 675.462 336.088C662.332 330.461 647.326 327.647 630.444 327.647C618.877 327.647 607.466 329.679 596.211 333.743C584.957 337.495 574.797 343.435 565.73 351.563C556.977 359.691 549.787 370.008 544.159 382.513C538.845 394.705 536.187 409.398 536.187 426.593C536.187 440.348 537.907 452.228 541.346 462.232C545.097 471.924 549.943 480.521 555.883 488.024C562.135 495.214 569.169 501.467 576.985 506.781C585.113 512.096 593.71 516.942 602.777 521.318C617.157 528.509 629.037 536.324 638.416 544.765C647.795 553.206 652.484 564.617 652.484 578.998C652.484 593.691 648.576 605.102 640.76 613.23C632.945 621.358 623.097 625.423 611.217 625.423C600.588 625.423 590.115 622.922 579.799 617.919C569.795 612.917 561.197 606.04 554.007 597.286L523.526 638.553C532.905 649.495 545.41 658.561 561.041 665.751C576.672 672.942 593.71 676.537 612.155 676.537C624.973 676.537 637.165 674.348 648.732 669.972C660.3 665.595 670.304 659.186 678.745 650.745C687.498 641.992 694.376 631.362 699.378 618.857C704.692 606.352 707.35 591.972 707.35 575.715C707.35 561.647 705.161 549.455 700.785 539.138C696.408 528.821 690.781 519.911 683.903 512.408C677.025 504.905 669.366 498.497 660.925 493.182C652.484 487.867 644.199 483.178 636.071 479.114C622.316 472.236 611.217 465.046 602.777 457.543C594.336 449.727 590.115 438.785 590.115 424.717C590.115 416.589 591.209 409.555 593.398 403.615C595.899 397.675 599.181 392.829 603.245 389.078C607.31 385.326 611.843 382.669 616.845 381.106C621.847 379.23 627.005 378.292 632.32 378.292ZM306.151 336.088V668.096H459.494V617.919H360.079V519.911H447.771V473.956H360.079V385.795H454.805V336.088H306.151Z" fill="black"/>
</svg>
