<svg xmlns="http://www.w3.org/2000/svg" width="1000" height="1000">
  <path d="M73.803 250.273c43.32-73.9 101.93-132.51 177.103-177.104C328.628 27.301 410.172 5.64 501.91 5.64c87.914 0 172.007 21.66 249.729 67.53 73.899 43.32 132.509 101.93 177.103 177.103 45.869 76.448 66.255 160.54 66.255 249.729 0 89.189-21.66 173.281-66.255 251.003-42.046 73.9-101.93 132.51-177.103 177.104-76.448 45.869-161.815 66.255-249.73 66.255-91.737 0-173.28-21.66-251.003-66.255-73.9-42.046-132.509-101.93-177.103-177.104C27.933 673.283 5 589.191 5 501.276c0-90.463 22.934-173.281 68.803-251.003zm5.096 251.003c0 76.448 19.112 147.799 58.61 212.78 38.224 62.432 85.367 113.397 149.073 150.347 66.255 38.223 137.606 57.335 215.328 57.335 76.447 0 146.524-17.837 211.505-57.335 63.706-38.224 114.671-85.367 150.347-150.347 36.95-67.53 59.884-136.332 59.884-214.054 0-76.448-20.386-147.799-59.884-214.053-36.95-62.433-85.367-112.124-150.347-150.348-64.98-38.223-135.058-57.335-211.505-57.335-77.722 0-149.073 19.112-215.328 57.335-63.707 36.95-113.397 86.641-149.073 150.348-38.224 67.528-58.61 137.605-58.61 215.327z" style="fill:#000;fill-opacity:1;fill-rule:nonzero;stroke:none;"/>
</svg>
