<svg xmlns="http://www.w3.org/2000/svg" viewBox="0 0 1000 1000"><path d="M460.921,714.117c-16.3-5.123-31.074-13.431-45.636-22.162-1.075-.645-2.252-1.12-3.5-1.734-23.7,36.017-27.563,75.81-24.329,117.124-13.62-43.3-10.047-84.76,13-124.639-1.749-1.225-3.228-2.283-4.729-3.308-6.875-4.7-6.993-4.84-13.67.5-5.136,4.1-11.212,7.8-14.658,13.117-13.637,21.026-22.538,44.1-25.52,69.1-2.077,17.407-.966,34.585,7.154,50.64,13.624,26.938,44.722,39.156,75,35,9.521-1.307,18.457-4.443,26-10.631,8.605-7.063,12.126-16.165,11.1-27.355-1.249-13.56-3.091-27.21-2.614-40.748.589-16.71,3.258-33.351,5.141-50.009C463.939,716.511,463.591,714.956,460.921,714.117Z"/><path d="M900.515,629.73c-1.471-10.187-2.205-20.534-4.44-30.547-1.914-8.58-4.209-17.019-6.823-25.34l0-.056-.028-.043a376.983,376.983,0,0,0-26.124-61.97,530.508,530.508,0,0,0-47.98-74.884,6.775,6.775,0,0,1-1.422-4.43c1.158-9.056,1.873-18.259,4.109-27.064,2.837-11.175,8.242-20.969,20.024-25.506,2.668-1.027,5.091-2.689,8-4.26-10.833-8.744-21.884-15.331-36.738-14.154,9-22.79,9.869-46.273,8.05-71.169l-21.881,17.265c-1.009-3.248-1.719-5.746-2.559-8.2-6.323-18.461-12.045-37.159-19.164-55.309-7.076-18.038-14.3-36.048-22.066-53.805l-.007-.041-.02-.021q-4.533-10.37-9.328-20.61c-9.716-20.64-21-40.6-32.533-60.309q-4.515-7.713-9.462-15.094l0-.008-.008-.009c-12.753-19.026-27.753-36.272-45.9-50.75-4.954-3.953-10.512-6.859-17.336-7.154-12.022-.52-21.1,5.331-29.223,12.932-14.882,13.931-25.822,30.948-34.908,48.936-12.042,23.84-22.962,48.247-34.171,72-9.343-1.534-19.53-3.99-29.841-4.728a127.688,127.688,0,0,0-55.4,8.677,6.4,6.4,0,0,1-3.976-.181c-3.841-1.287-7.533-3.735-11.411-4.026-5.291-.4-6.729-3.784-8.294-7.543A398.2,398.2,0,0,0,395.021,97.2C384.505,81.129,373.212,65.641,357.884,54l-.023-.038h-.028A96.217,96.217,0,0,0,349.55,48.3c-14.8-8.974-30.1-11.3-45.668-1.818-11.047,6.726-19.311,16.412-26.533,26.857-21.187,30.641-36.187,64.479-50.014,98.863-6.369,15.836-12.579,31.751-18.283,47.835-6.573,18.536-12.524,37.293-18.714,55.965-3.1,9.358-6.138,18.738-9.29,28.373l-21.538-11.75a269.005,269.005,0,0,0,8.27,74.427,39.758,39.758,0,0,0-27.151,7.8c-2.856,2.063-2.074,3.025-.6,5.4,4.377,7.028,9.528,13.919,12.139,21.622,3.787,11.17,5.542,23.021,8.3,34.549,2.07,8.642,2.794,16.941-4.178,23.993a18.183,18.183,0,0,0-2.924,3.917c-9.643,17.383-20.215,34.34-28.539,52.336-7.127,15.408-12.3,31.826-17.119,48.158-3.2,10.872-4.479,22.346-6.192,33.614-1.311,8.621-1.956,17.342-3.015,27.111l13.028-10.815c-5.3,19.453-7.107,38.674-7.858,57.933a153.81,153.81,0,0,0,1.976,30.038c2.328,14.595,4.99,29.241,9.026,43.434,6.466,22.736,17.531,43.315,31.2,62.713,10.757,15.266,23.631,28.88,33.039,45.242,10.593,18.422,23.349,35.647,27.91,57.744,5.033-2.592,10.086-4.386,14.119-7.5,3.941-3.045,6.841-7.438,10.155-11.19,7.82,11.075,23.121,25.012,41.526,36.924a220.162,220.162,0,0,0,50.2,23.841c18.086,6.035,46.446,10.557,53.531,8.389H488.5q.213.727.427,1.454a329.639,329.639,0,0,0,60.972-4.775h.014l.009,0c42.986-7.63,82.886-24.818,118.788-54.8,3.283,15.254,11.314,27.537,25.895,35.883,2.122-15.591,9.213-28.379,17.765-40.324a216.063,216.063,0,0,1,19.145-23.35c11.322-11.874,22.985-23.465,35.08-34.547,11.559-10.592,24.213-19.99,35.741-30.613a256.264,256.264,0,0,0,29.074-31.639l.009-.007v-.007a248.132,248.132,0,0,0,17.333-25.514,190.055,190.055,0,0,0,24.314-66.731l14.8,25.729,1.458.275c3.39-13.441,6.881-26.858,10.111-40.338,1.041-4.344,1.394-8.852,2.061-13.285V632.735A18.036,18.036,0,0,1,900.515,629.73ZM501.589,437.913c8.948-4.9,21.729-5.633,32.254-1.675-6.486,4.952-8.831,11.1-5.259,18.621,2.206,4.644,6.924,6.82,12.515,6.2,6.065-.669,8.879-3.961,11.226-13.129,12.771,11.838,10.621,30.09-4.516,38.323-17.983,9.782-45.608,1.826-55.568-16C485.373,457.961,489.208,444.693,501.589,437.913ZM269.767,285.285s-49.694,51.952-59.859,40.658c-5.647-7.341,0-28.235,0-28.235s47.435-180.46,103.906-221.929C331.32,63.92,349.39,141.85,349.39,141.85s6.777,67.2-22.023,83.011c-4.518,3.953-24.214,1.694-17.472-19.765-27.14,11.859-19.8,47.436-19.8,47.436s-11.294-12.424-24.847-8.471C278.8,253.661,269.767,285.285,269.767,285.285Zm30.8,155.063c9.852-3.408,19.057-3.419,27.88,1.5,10.426,5.809,13.732,17.326,8.222,27.881-8.065,15.453-31.064,21.927-46,12.951-10.978-6.6-13.411-18.736-5.674-30.73,1.907,5.46,5.065,9.458,10.59,8.6a13.683,13.683,0,0,0,8.643-5.409C307.535,449.824,305.368,444.648,300.568,440.348ZM591,636.22c-1.385,10.149-5.724,18.931-13.314,27.741,2.941-12.567,5.94-23.793,2.778-36.534-1.679,7.032-2.819,13.067-4.565,18.922-16.206,54.343-48.667,94.679-101.55,117.234-2.632,1.122-3.485,2.523-3.3,5.207.808,11.944.894,23.972,2.376,35.828,2.771,22.174-5.829,39.221-25.879,49.111-42.119,20.775-112.178.5-118.427-66.306-1.54-16.472.475-32.519,4.363-48.479a10.631,10.631,0,0,0-1.045-6.746c-4.842-9.449-9.937-18.771-15.1-28.051a17.582,17.582,0,0,0-4.481-5.618c-9.117-6.747-16.863-14.741-21.712-25.016-11.151-23.629-17.8-48.406-16.673-74.75,1.049-24.5,9.543-46.067,26.776-63.886,25.811-26.686,56.324-42.706,94.373-40.973,18.238.831,34.634,7.29,49.163,18.677-2.809-.873-5.6-1.8-8.432-2.605-3.039-.862-6.105-1.629-9.17-2.395C370.086,493.31,323.239,524.492,301.1,554.844c-12.57,17.233-15.851,37.074-14.444,57.855,1.168,17.258,5.93,33.723,12.454,49.653,5.985,14.613,16,25.635,30.754,31.719,2.388.985,6.272,1.1,8.283-.208,14.357-9.313,28.439-19.052,42.486-28.832,1.018-.708,1.524-2.822,1.488-4.263-.2-7.818-.454-15.647-1.164-23.429-.135-1.482-2.14-3.415-3.72-4.049-16.178-6.49-29.567-16.565-39.69-30.75-7.094-9.94-10.87-20.973-8.874-33.366,3.184-19.766,15.81-31.983,38.108-35.89a114.863,114.863,0,0,1,56.236,3.891c28.092,9.232,38.181,35.01,23.911,61.131-10.571,19.352-28.339,29.31-48.782,35.291-1.575.461-3.18.819-5.195,1.333.45,8.807.785,17.439,1.436,26.047a6.135,6.135,0,0,0,2.535,3.883c19.422,13.488,39.414,25.921,61.341,35.134,13.914,5.846,26.932,5.159,40.289-1.582,29.077-14.675,48.829-37.9,62.44-66.892,2.609-5.557,4.476-11.459,6.974-17.073,1.242-2.792.467-4.44-1.541-6.46-12.682-12.755-22.872-27.222-29.55-44.026-.366-.923-.707-1.859-.985-2.811-.073-.251.133-.583.216-.893,15.644,15.861,31.471,31.519,46.819,47.634C590.353,615.689,592.448,625.62,591,636.22ZM752.872,325.943c-10.165,11.294-59.859-40.658-59.859-40.658s-9.035-31.624,4.517-41.224c-13.552-3.953-24.847,8.471-24.847,8.471s7.342-35.577-19.8-47.436c6.742,21.459-12.953,23.718-17.471,19.765-28.8-15.812-22.024-83.011-22.024-83.011s18.071-77.93,35.577-66.071c56.47,41.469,103.906,221.929,103.906,221.929S758.519,318.6,752.872,325.943Z"/></svg>