<svg xmlns="http://www.w3.org/2000/svg" viewBox="0 0 1000 1000"><path d="M572.602 940.18V184.679c66.733 0 133.465-5.959 200.197 0 45.282 0 70.307 28.6 76.265 76.265 0 63.157-21.45 102.481-71.499 125.123-39.324 15.491-77.457 23.833-115.59 44.09 5.959 38.133 9.534 76.266 21.45 114.399 67.924-3.575 127.506-22.642 182.322-54.816 79.84-44.091 125.123-109.631 127.506-206.155 13.108-121.548-47.666-204.963-171.597-220.454-16.683-5.958-32.174-5.958-48.857-5.958H452.246c-7.15 0-13.108 5.958-23.833 5.958v749.545c-71.498 0-145.38 5.958-215.687 0-29.792 0-51.241-22.641-57.2-58.39-9.533-47.667 5.959-104.866 57.2-131.082 26.216-17.875 53.624-21.45 89.373-34.558 8.341-5.958 25.024-9.533 38.133-15.49-5.959-38.134-13.109-76.266-15.492-127.507-64.349 22.641-117.973 32.174-175.172 53.624C63.77 544.555 11.338 617.245 5.38 717.343-.579 844.85 63.77 930.648 191.276 940.181c119.164 5.958 247.862 0 368.218 0z"/></svg>