<?xml version="1.0" encoding="utf-8"?>
<!-- Generator: Adobe Illustrator 26.0.1, SVG Export Plug-In . SVG Version: 6.00 Build 0)  -->
<svg version="1.1" id="Layer_1" xmlns="http://www.w3.org/2000/svg" xmlns:xlink="http://www.w3.org/1999/xlink" x="0px" y="0px"
	 viewBox="0 0 1000 1000" style="enable-background:new 0 0 1000 1000;" xml:space="preserve">
<g id="_x33_oMgXu.tif">
	<g>
		<path d="M583.3,895.3c-12.6-2-25.2-4.2-36.9-9.5c-36.4-16.2-72.7-32.5-109.1-48.6c-46.6-20.8-93.3-41.5-140-62.2
			c-41.8-18.6-83.6-37.1-125.3-55.7c-44.9-20-89.6-40.3-134.6-60.1c-40.1-17.6-47.7-70-13.1-98.3c7.8-6.4,17.3-9.6,26.3-13.7
			c50.4-22.7,100.8-45.1,151.2-67.9c4.2-1.9,7.5-1.6,11.3,0.1c28.9,12.9,57.8,25.7,86.6,38.6c50.6,22.5,101.3,45.1,151.9,67.6
			c27,12,53.9,24.1,81,35.8c42,18.1,83.6,16.4,125-2.8c44.2-20.5,88.7-40.5,133.1-60.8c3-1.4,5.7-1.4,8.7,0
			c54.7,24.7,109.5,49.2,164.1,74.1c35.2,16,45.4,59,21.8,89.5c-7.8,10.1-18.7,15.4-29.9,20.4c-47.6,21.5-95.1,43-142.6,64.6
			c-58.6,26.6-117.2,53.3-175.9,79.7c-9.9,4.5-20.5,7-31.4,8.2c-1.7,0.2-3.3,0.7-5,1C594.7,895.3,589,895.3,583.3,895.3z"/>
		<path d="M419.2,105c20.4-0.1,38.8,8.2,57.2,16.6c77.9,35.2,155.9,70.4,233.9,105.6c56.4,25.5,112.8,51,169.3,76.5
			c28.1,12.7,56.4,25.1,84.4,38.1c38,17.7,45.8,66.8,15.5,95.5c-6.9,6.5-15.5,10.3-24,14.2c-55.9,25.3-111.8,50.6-167.6,75.9
			c-50.1,22.7-100.1,45.9-150.4,68.1c-33.2,14.7-66.2,11.6-99-3.2c-75.6-34-151.4-67.5-227.1-101.1
			c-56.6-25.2-113.1-50.4-169.7-75.5c-32.5-14.5-65-29.2-97.7-43.2C24,363.9,8.5,351.5,3.6,329.7c-6.3-28.4,5.6-54.7,32.8-67
			c66.7-30.1,133.4-60,200.2-89.9c43.6-19.6,87.2-39.1,130.9-58.7C382.2,107.5,399.6,103.7,419.2,105z"/>
	</g>
</g>
</svg>
