<svg xmlns="http://www.w3.org/2000/svg" width="1000" height="1000">
  <path d="M460.175 89.712c17.7 15.173 42.988 39.196 75.861 72.07l37.931 37.93c8.85 8.85 17.701 12.644 27.816 15.172 11.38 2.53 20.23 1.265 29.08-3.793 12.644-5.057 20.23-15.172 22.76-30.344 2.528-13.908 0-26.552-8.851-36.667-31.61-35.402-65.747-65.747-99.885-94.827l-6.322-7.586-29.08-25.288c-12.644-7.586-25.288-7.586-37.931-1.264-10.115 2.529-16.437 8.85-21.494 18.965-5.058 8.85-6.322 18.966-3.794 30.345 2.53 10.115 6.322 18.966 13.909 25.287zM7.532 740.86c0 11.38 3.793 21.494 11.38 30.345 7.585 8.85 18.965 12.643 30.344 12.643 12.644 0 22.759-5.057 30.345-12.643 8.85-8.85 12.643-18.966 12.643-30.345 0-11.38-3.793-21.494-12.643-30.345-8.85-8.85-17.701-12.643-30.345-12.643-11.38 0-21.494 3.793-30.345 12.643-8.85 8.85-11.379 18.966-11.379 30.345zm0-470.343c0 11.379 3.793 21.494 11.38 30.344 8.85 10.115 18.965 12.644 30.344 12.644 12.644 0 22.759-3.793 30.345-12.644 8.85-10.115 12.643-18.965 12.643-30.344 0-11.38-3.793-21.495-12.643-30.345-7.586-7.586-17.701-12.644-30.345-12.644-11.38 0-21.494 5.058-30.345 12.644-8.85 7.586-11.379 18.965-11.379 30.345zm5.057 240.229c0 11.38 3.794 21.494 11.38 30.345 7.586 8.85 16.437 13.908 26.551 13.908 11.38 0 21.495-1.265 30.345-7.587 6.322-5.057 12.644-12.643 24.023-24.023l11.38-11.379c8.85-8.85 20.23-22.758 39.195-40.46 26.551-24.022 42.988-45.517 54.367-59.425 7.587-11.379 8.85-22.758 5.058-34.138-3.793-12.643-10.115-21.494-21.494-27.816-11.38-6.321-22.759-7.586-35.403-3.793-13.908 10.115-29.08 22.759-45.517 39.196-8.85 8.85-22.758 24.023-40.46 44.252-20.23 24.023-36.666 40.46-48.045 51.84-7.586 7.586-11.38 16.436-11.38 29.08zm99.885-356.551c-1.264 13.908 1.265 25.287 8.85 34.138 36.667 42.988 70.805 74.597 97.357 92.298 3.793 2.53 7.586 7.587 15.172 15.173 8.85 8.85 16.437 15.172 21.494 17.7 8.851 6.323 17.702 8.851 27.816 7.587 11.38 0 20.23-5.057 27.817-13.908 7.586-8.85 10.114-18.965 11.379-30.345 1.264-11.379-3.793-20.23-12.644-27.816l-41.724-41.724c-31.609-31.609-55.632-54.367-70.804-70.804-8.85-10.115-20.23-15.172-32.874-18.966-12.643-3.793-24.023-1.264-34.138 6.322-10.115 7.586-16.436 16.437-17.7 30.345zm6.322 706.78c2.529 8.85 7.586 16.436 16.437 21.494 8.85 5.057 17.7 8.85 27.816 7.586 11.38-1.264 18.965-3.793 25.287-11.38 36.667-42.988 70.805-70.804 91.034-96.09l15.173-15.173c10.115-10.115 16.437-16.437 20.23-21.494 5.057-8.851 7.586-18.966 6.321-27.816-1.264-10.115-3.793-18.966-11.379-25.288-8.85-7.586-16.437-12.643-25.287-13.908-10.115-1.264-18.966 0-27.816 5.058-13.908 12.643-32.874 31.609-58.16 59.425-18.966 21.494-35.403 35.402-45.518 45.517l-1.264 1.264c-13.908 13.908-22.759 24.023-26.552 30.345-8.85 13.908-10.115 26.552-6.322 40.46zm5.058-244.023c0 11.38 3.793 21.495 12.643 29.08 10.115 8.851 18.966 12.644 30.345 12.644 11.38 0 21.494-3.793 30.345-12.643 8.85-8.85 12.643-17.701 12.643-29.08 0-12.644-3.793-22.76-12.643-31.61-8.85-8.85-18.966-12.643-30.345-12.643-11.38 0-21.494 5.057-30.345 12.643-10.115 8.85-12.643 18.966-12.643 31.61zm92.298-565.17c0 12.643 5.058 22.758 12.644 30.344 8.85 8.85 18.965 12.644 30.345 12.644 11.379 0 21.494-3.793 30.344-12.644 7.586-7.586 12.644-17.7 12.644-30.345 0-11.379-5.058-21.494-12.644-30.344-8.85-10.115-18.965-12.644-30.344-12.644-11.38 0-21.495 3.793-30.345 12.644-8.85 8.85-12.644 18.965-12.644 30.344zm12.644 900.227c0 12.644 3.793 22.759 12.643 30.345 8.851 7.586 17.702 12.643 29.08 12.643 12.644 0 22.76-3.793 30.346-12.643 7.586-8.85 12.643-17.701 12.643-30.345 0-11.38-3.793-21.494-12.643-30.345-8.851-8.85-17.702-12.643-30.345-12.643-11.38 0-21.494 3.793-29.08 12.643-8.851 10.115-12.644 18.966-12.644 30.345zm112.528-786.435c0 12.644 3.793 22.759 12.644 30.345 8.85 7.586 17.701 13.908 29.08 13.908 12.644 0 22.759-5.057 30.345-13.908 7.586-8.85 12.644-17.701 12.644-30.345 0-11.379-3.793-21.494-12.644-30.344-7.586-7.587-17.701-11.38-30.345-11.38-11.379 0-21.494 3.793-29.08 11.38-8.85 8.85-12.644 18.965-12.644 30.344zm3.793 653.677c-2.528 15.172 0 27.816 8.85 37.93 34.139 37.932 67.012 67.012 96.093 91.035 3.793 2.529 8.85 7.586 15.172 15.172 10.115 8.85 16.437 15.173 22.759 20.23 7.586 5.058 16.436 7.586 26.551 6.322 11.38-1.264 21.494-5.058 27.816-13.908 6.322-10.115 11.38-20.23 11.38-31.61 0-11.378-3.794-21.493-11.38-29.08-25.287-25.287-64.482-60.69-113.793-110v-1.264c-8.85-8.85-17.7-13.908-29.08-17.7-11.38-3.794-21.494-2.53-31.61 2.528-12.643 6.322-20.229 15.172-22.758 30.345zm228.85 15.172c0 12.644 3.793 22.759 11.38 30.345 8.85 8.85 18.965 12.643 30.344 12.643 12.644 0 22.759-3.793 30.345-12.643 7.586-8.85 12.644-17.701 12.644-30.345 0-11.38-3.793-21.494-12.644-30.345-8.85-8.85-17.701-12.643-30.345-12.643-11.379 0-21.494 3.793-30.344 12.643-8.851 8.85-11.38 18.966-11.38 30.345zM677.645 732.01c1.265 10.114 7.586 18.965 15.173 25.287 13.908 12.643 34.137 32.873 61.953 59.425 25.288 24.023 42.989 41.724 55.632 54.368 6.322 6.321 15.173 11.379 25.288 12.643 10.115 1.265 18.965 1.265 27.816-2.528 8.85-3.794 15.172-10.115 18.965-17.702 3.793-8.85 6.322-17.7 5.058-27.816-1.265-8.85-5.058-16.436-10.115-24.022-15.173-22.759-46.782-45.518-85.977-82.184-20.23-18.966-35.402-31.61-45.517-40.46-6.322-5.057-11.38-8.85-18.966-8.85-8.85 0-16.436 1.264-24.023 3.793-8.85 2.528-16.436 8.85-20.23 18.965-3.792 10.115-6.321 18.966-5.057 29.08zm1.265-458.965c-1.265 8.85 0 18.966 5.057 26.552 5.057 7.586 10.115 15.172 18.965 18.965 8.851 3.793 17.702 3.793 27.817 2.53 10.114-1.265 17.7-6.323 24.022-13.909v-1.264c45.518-46.782 79.655-82.184 103.678-106.207 8.85-8.85 15.173-17.701 18.966-26.552 5.057-12.643 6.322-24.022 2.529-34.137-3.794-12.644-11.38-21.495-25.288-25.288-13.908-3.793-26.551-3.793-36.666 1.265-20.23 17.7-48.046 45.517-83.448 84.712l-45.518 50.575c-5.057 6.322-8.85 12.643-10.114 22.758zm6.321-225.057c0 11.38 3.793 22.759 12.644 30.345 10.115 8.85 18.966 12.644 30.345 12.644 11.38 0 21.494-3.793 30.345-12.644 8.85-8.85 12.643-18.965 12.643-30.345 0-11.379-3.793-21.494-12.643-30.344C749.714 8.794 739.599 5 728.22 5c-11.38 0-21.494 5.057-30.345 12.644-10.115 8.85-12.644 18.965-12.644 30.344zm10.115 904.021c0 12.644 5.058 22.759 12.644 30.345 8.85 8.85 18.965 12.643 30.345 12.643 11.379 0 22.758-3.793 30.344-12.643 7.587-8.85 12.644-17.701 12.644-30.345 0-11.38-3.793-21.494-12.644-30.345-8.85-8.85-18.965-12.643-30.344-12.643-11.38 0-21.495 3.793-30.345 12.643-8.85 8.85-12.644 18.966-12.644 30.345zm87.241-331.264c1.265 10.115 6.322 18.966 15.173 25.288 8.85 6.322 17.7 10.115 29.08 10.115 11.38 0 20.23-2.529 27.816-10.115 35.402-35.402 61.954-68.276 89.77-96.092l15.172-15.172c10.115-10.115 16.437-16.437 20.23-22.759 6.322-7.586 8.85-17.701 7.586-26.552-1.264-10.114-5.057-18.965-12.643-26.551-7.586-7.586-16.437-11.38-26.552-12.644-10.115-1.264-18.965 0-26.551 5.058-12.644 10.115-30.345 27.816-51.84 51.839-17.7 18.965-31.609 34.137-41.723 42.988l-12.644 11.38c-11.38 12.643-20.23 21.493-24.023 27.815-7.586 12.644-10.115 24.023-8.85 35.402zm7.587-237.7c0 11.38 3.793 22.759 12.643 30.345 8.85 7.586 17.701 12.643 29.08 12.643 12.644 0 22.76-3.793 30.345-12.643 7.587-8.85 12.644-18.966 12.644-30.345 0-11.38-3.793-21.494-12.644-30.345-7.586-7.586-17.7-12.643-30.344-12.643-11.38 0-21.495 5.057-29.08 12.643-8.851 8.85-12.644 18.966-12.644 30.345zm116.321 346.436c0 12.643 3.793 22.758 12.644 30.345 8.85 7.586 17.7 12.643 30.345 12.643 11.379 0 21.494-3.793 29.08-12.643 7.586-8.851 12.644-17.702 12.644-30.345 0-11.38-3.794-21.494-12.644-29.08-8.85-7.587-17.701-12.644-29.08-12.644-12.644 0-22.759 3.793-30.345 12.643-7.586 8.851-12.644 17.702-12.644 29.08zm0-469.08c0 12.644 3.793 21.495 12.644 30.345 8.85 8.85 17.7 12.644 30.345 12.644 11.379 0 21.494-3.793 30.344-12.644 8.85-8.85 12.644-17.7 12.644-30.344 0-11.38-3.793-21.495-12.644-30.345-8.85-8.85-18.965-12.644-30.344-12.644-12.644 0-22.759 3.793-30.345 12.644-8.85 10.115-12.644 18.965-12.644 30.345z" style="fill:#000;fill-opacity:1;fill-rule:nonzero;stroke:none;"/>
</svg>
