<svg xmlns="http://www.w3.org/2000/svg" viewBox="0 0 1000 1000"><path d="M586.558,699.091v93.715c0,2.994-1.62,5.769-4.229,7.24l-82.701,46.652-81.227-46.618c-2.575-1.478-4.175-4.24-4.175-7.21v-93.779c0-2.982,1.61-5.75,4.219-7.234l81.185-46.626,82.726,46.635c2.592,1.475,4.202,4.243,4.202,7.225Zm-168.157-390.941l81.227,46.618,82.701-46.652c2.609-1.471,4.229-4.246,4.229-7.24v-93.714c0-2.982-1.61-5.751-4.202-7.226l-82.726-46.634-81.185,46.625c-2.609,1.484-4.219,4.253-4.219,7.235v93.779c0,2.97,1.6,5.732,4.175,7.21Zm-21.475,278.949c-13.488-7.847-21.867-22.416-21.867-38.02v-98.507c0-14.417,7.728-27.901,20.167-35.189l54.514-31.641,28.144,16.474c2.792,1.634,4.436,4.542,4.397,7.777-.039,3.235-1.752,6.103-4.583,7.669l-61.564,33.527c-1.66,.919-2.692,2.669-2.692,4.566v25.862c0,.225,.183,.408,.408,.408h172.3c.225,0,.408-.183,.408-.408v-27.88c0-.698-.374-1.351-.977-1.704l-194.064-113.503c-10.157-5.988-16.458-17.016-16.458-28.791v-81.997l-175.465,101.116v346.283l173.899,100.326v-76.889c0-14.927,7.999-28.888,20.876-36.436l65.21-38.226-62.653-34.817Zm603.074-87.1c0,276.142-223.858,500-500,500S0,776.142,0,500,223.858,0,500,0s500,223.858,500,500Zm-160.427-19.975h-184.082v40.733h144.916v152.379l-174.682,100.349v-78.34c0-14.544-7.837-28.073-20.454-35.308l-187.955-107.787c-2.818-1.642-4.569-4.687-4.569-7.949v-22.129c0-.67,.545-1.215,1.215-1.215h172.165c.67,0,1.215,.545,1.215,1.215v20.918c0,4.005-2.137,7.754-5.58,9.795l-59.369,32.524c-2.998,1.708-4.822,4.912-4.762,8.362,.06,3.411,1.955,6.518,4.953,8.134l25.046,14.466,2.288-1.192c.378-.197,31.403-15.1,55.547-29.898,21.08-12.92,23.015-33.882,21.044-43.668v-82.538c0-31.687-18.84-42.1-21.306-43.326l-65.643-37.41c10.915-6.352,33.128-19.165,56.306-31.858,33.119-18.137,30.58-42.624,29.859-46.859v-74.499l175.074,99.989v59.155h38.383v-80.265L499.604,108,160.427,304.198v391.603l339.178,196.199,337.616-194.84,2.351-1.356v-215.779Zm-29.766,31.333h-144.916v-21.933h165.282v200.951l-330.562,190.768-329.784-190.765V309.62L499.612,118.855l330.169,190.378v65.434h-19.583v-55.211l-193.874-110.726v91.13l-.008,.484,.115,.511c.178,.86,4.028,21.242-25.08,37.182-32.588,17.846-63.274,35.926-63.58,36.107l-6.983,4.118,79.893,45.53,.33,.171c.657,.316,16.096,8.048,16.096,34.912v83.557l.115,.511c.047,.21,4.497,21.15-16.672,34.125-20.451,12.534-44.196,23.909-52.696,28.38l-20.64-11.922-.187-.139,59.393-32.538,.073-.041c6.32-3.719,10.247-10.583,10.247-17.916v-20.918c0-5.853-4.762-10.615-10.615-10.615h-172.165c-5.853,0-10.615,4.762-10.615,10.615v22.129c0,6.595,3.54,12.753,9.266,16.087l187.982,107.803c9.703,5.564,15.73,15.969,15.73,27.153v94.581l193.482-111.149v-167.219Zm-404.98-210.418c0,6.327,3.409,12.214,8.896,15.363l85.867,49.28,87.359-49.28c5.557-3.135,9.01-9.047,9.01-15.428v-93.714c0-6.354-3.431-12.254-8.97-15.405l-87.401-49.27-85.807,49.28c-5.523,3.142-8.954,9.042-8.954,15.396v93.779Zm-5.704,367.312l79.416-46.554-76.924-42.746c-10.582-6.176-17.155-17.618-17.155-29.873v-98.507c0-11.094,5.946-21.47,15.519-27.079l49.764-28.858,22.615,13.239-60.776,33.092c-4.651,2.574-7.54,7.475-7.54,12.79v25.862c0,5.408,4.4,9.808,9.808,9.808h172.3c5.408,0,9.808-4.4,9.808-9.808v-27.88c0-4.025-2.158-7.787-5.632-9.818l-194.049-113.494c-7.289-4.298-11.817-12.223-11.817-20.685v-98.262l-194.265,111.949v357.145l192.699,111.172v-93.165c0-11.605,6.219-22.459,16.23-28.327Zm196.836,30.839c0-6.355-3.431-12.253-8.97-15.404l-87.401-49.271-85.807,49.28c-5.523,3.142-8.954,9.04-8.954,15.395v93.779c0,6.327,3.409,12.214,8.896,15.363l85.867,49.28,87.359-49.28c5.557-3.135,9.01-9.047,9.01-15.427v-93.715Z"/></svg>