<svg xmlns="http://www.w3.org/2000/svg" viewBox="0 0 1000 1000"><path d="M995.002 436.327c-32.24 29.016-60.182 55.884-85.975 84.9-72.004 69.855-138.635 136.486-205.265 205.266-27.942 24.718-55.884 37.614-88.125 26.867-11.821 0-24.718-6.448-32.24-11.822-25.793-22.568-42.988-47.286-65.557-72.004 0-1.075 3.225-3.224 7.523-8.597 93.498-92.424 184.847-185.921 279.42-278.345 42.987-40.838 92.423-40.838 135.41 0 16.12 17.195 34.39 34.39 54.81 53.735zM9.512 447.074c-4.298-5.374-7.522-10.747 0-19.345 18.27-15.045 33.316-33.315 48.362-47.286 35.464-36.54 85.975-38.689 120.365-4.299 98.871 96.722 196.668 194.519 296.614 292.315 0 1.075 2.15 1.075 2.15 1.075-23.644 24.718-42.988 49.436-65.557 68.78-36.54 29.017-83.825 25.793-118.215-8.597-49.436-48.361-95.648-97.797-147.233-146.158-42.987-44.062-88.124-91.348-136.485-136.485zm199.893-194.52c-10.747-8.597-10.747-15.045 0-25.792 8.597-7.522 24.718-21.493 31.166-29.016 26.867-23.643 42.987-17.195 68.78 8.597 26.867 24.718 50.51 50.51 78.452 75.229 30.091 30.09 56.959 60.182 87.05 89.199 7.523 9.672 9.672 11.821 2.15 19.344-8.598 9.672-19.345 19.344-26.868 24.718-12.896 7.523-24.718 15.046-38.689 21.494-11.821-6.448-26.867-13.971-36.54-21.494-55.883-52.66-110.692-107.469-165.501-162.278zM336.218 96.726l23.643-16.12c10.747-9.673 24.718-9.673 32.24 0 33.316 27.942 63.408 58.033 92.424 88.124l4.299 5.374c-4.299 20.419-38.689 32.24-54.81 20.419-32.24-33.316-61.257-65.556-97.796-97.797zm48.361 724.34c-5.373-8.597-5.373-13.97 0-21.493 17.195-15.046 36.54-34.39 52.66-48.361 16.12-19.345 37.614-24.718 60.182-24.718 20.42 0 42.988 5.373 55.884 20.419 18.27 18.27 35.465 37.614 54.81 52.66 4.298 7.522 7.522 12.896 0 19.344-33.316 35.465-67.706 67.705-102.096 102.095-8.598 7.523-12.896 7.523-21.494 0-31.166-34.39-63.407-66.63-99.946-99.946zm47.286-348.199c-6.448-7.523-6.448-10.747 0-17.195 10.747-8.597 18.27-16.12 25.793-25.792 32.24-29.017 54.809-20.42 74.153 0 10.747 9.672 18.27 17.195 25.793 25.792 10.747 9.672 6.448 12.896-2.15 22.569-15.045 19.344-38.688 38.688-49.435 49.435-8.598 6.448-12.896 6.448-17.195 0-20.42-19.344-38.689-35.464-56.959-54.809zm25.793-252.552c26.867-36.54 51.585-36.54 74.153 0-8.597 10.747-19.344 19.345-32.24 29.017-4.299 3.224-4.299 3.224-8.598 0-11.821-9.672-20.419-18.27-33.315-29.017zm48.36-46.211c0-2.15-1.074-3.224 3.225-7.523 31.166-31.166 59.108-58.033 88.124-85.975 10.747-9.673 23.644-9.673 36.54 0l20.419 16.12c-35.465 32.24-65.556 64.481-98.871 97.797-12.897 11.821-45.137-2.15-49.436-20.42zm9.673 216.012c-6.448-7.523-6.448-9.672 0-16.12 55.884-55.884 111.768-113.917 168.726-169.801 22.569-20.42 53.735-20.42 74.154 0 8.597 9.672 17.195 19.344 25.792 26.867 6.448 6.448 6.448 8.598 0 15.046-54.809 61.257-111.767 116.066-171.95 170.875-16.12 15.046-24.718 25.793-32.24 19.345-13.972-6.448-26.868-13.971-35.465-19.345-12.897-7.523-21.494-17.195-29.017-26.867z"/></svg>