<svg xmlns="http://www.w3.org/2000/svg" width="1000" height="1000">
  <path d="M5 500.496c0 271.98 220.55 494.507 495.496 494.507 271.98 0 494.507-220.55 494.507-495.496C995.003 227.528 773.464 5 500.496 5 226.54 5 5 225.55 5 500.496zm88.022 128.572c51.429-28.681 100.88-58.352 153.297-88.022v177.033c-50.44-29.67-101.868-59.34-153.297-89.011zm75.165-139.451V316.539c13.847 7.913 27.693 15.825 40.55 23.737 35.604 19.78 69.231 39.56 104.835 59.34 1.978 1.979 3.957 1.979 5.935 1.979 11.868-5.934 25.714-13.846 38.571-21.759-42.528-25.714-84.066-49.45-125.605-73.187 51.429-30.66 100.88-58.352 151.32-88.022 1.978 3.956 1.978 7.912 1.978 11.868v51.429c0 7.912 1.978 11.868 9.89 15.824 23.736 12.857 47.472 26.704 73.187 40.55 1.978 1.978 7.912 1.978 11.868 1.978 17.802-9.89 34.615-19.78 50.44-29.67 1.978-1.979 3.956-1.979 7.912-3.957-42.528-24.725-84.066-48.461-129.561-74.176 11.868-7.912 19.78-13.846 29.67-17.802 37.583-23.736 76.154-45.495 113.737-67.253 7.912-4.945 15.824-4.945 23.736 0 75.165 43.517 149.341 87.033 224.507 130.55 25.714 13.846 48.461 26.703 74.176 42.528v1.978c0 3.956-1.978 9.89-1.978 15.824v324.396c0 9.89-1.978 15.825-11.869 21.759-42.527 25.714-88.022 51.429-131.539 77.143-7.912 3.956-13.846 3.956-21.758 0-66.264-41.539-135.495-81.1-203.737-120.66-27.692-15.824-55.385-30.66-83.077-46.483-3.956-1.979-5.934-3.957-9.89-5.935 7.912-5.934 13.846-9.89 19.78-13.846 41.539-23.736 83.077-47.472 123.627-71.209 7.912-3.956 9.89-7.912 9.89-17.802V340.276c0-21.758-1.978-25.715-23.736-31.649v175.056a280.67 280.67 0 0 1-30.66-17.802c-17.802-8.901-33.626-16.814-49.45-26.704-5.934-3.956-11.869-3.956-17.803 0-17.802 9.89-35.604 19.78-51.428 28.682-1.978 1.978-3.956 1.978-5.934 1.978 0-3.956-1.979-7.912-1.979-8.901v-47.473c0-19.78-1.978-21.758-23.736-29.67v175.055c-8.901-3.956-16.813-7.912-24.725-11.868-41.539-23.737-83.077-49.45-124.616-73.187-3.956-1.978-9.89-1.978-12.857 0-9.89 3.956-19.78 9.89-29.67 15.824zM347.2 794.233V640.936c0-3.956 1.978-7.912 1.978-11.868 3.956 1.978 7.912 1.978 10.88 3.956 33.626 19.78 69.23 39.56 102.857 59.34 3.956 1.979 11.868 3.957 15.824 1.979 15.824-9.89 31.648-19.78 50.44-29.67v171.099c-3.956 0-5.934-1.978-7.913-1.978-34.615-19.78-70.22-41.539-105.824-59.34-3.956-2.968-9.89-.99-15.824 0-13.846 7.911-27.693 17.801-41.539 25.713-2.967 1.979-4.945 1.979-8.901 5.935-1.978-5.935-1.978-9.89-1.978-11.869zm217.583 87.034V704.233c51.429 29.67 100.88 59.34 153.297 88.022-52.417 31.649-101.868 59.341-153.297 89.012z" style="fill:#000;fill-opacity:1;fill-rule:nonzero;stroke:none;"/>
</svg>
