<svg xmlns="http://www.w3.org/2000/svg" viewBox="0 0 1000 1000"><path d="M489.426,284.844c-61.836-1.963-115.82,21.593-161.951,60.854-36.316,29.445-64.78,69.688-72.632,115.819C245.027,528.26,267.6,590.1,312.752,641.135c87.355,97.17,230.657,113.856,333.717,35.335,90.3-67.725,113.856-145.265,74.595-238.509C678.859,337.846,598.374,289.751,489.426,284.844ZM119.393,436c26.5-108.949,64.78-175.692,142.32-235.565,98.152-75.577,209.064-94.226,328.809-67.725,126.616,28.464,219.86,101.1,267.955,225.75C883.014,423.238,884,491.944,873.2,559.669,852.587,698.063,777.01,798.178,650.4,856.087,576.781,892.4,432.5,880.625,395.2,875.718,268.584,843.328,177.3,770.7,131.171,646.042,111.541,596.967,109.578,475.258,119.393,436ZM7.5,502.741C7.5,772.658,226.379,993.5,499.241,993.5,769.158,993.5,990,774.621,990,501.759,990,231.842,770.14,11,499.241,11,227.36,11,7.5,229.879,7.5,502.741Z"/></svg>