<svg xmlns="http://www.w3.org/2000/svg" width="1000" height="1000">
  <path d="M500.496 5C223.572 5 5 229.506 5 500.002c0 276.43 224.506 495.001 495.002 495.001 276.43 0 495.001-224.506 495.001-495.001C995.003 226.539 773.464 5 500.496 5zM106.868 542.035v-94.946h13.847c9.89-1.978 15.824 2.967 15.824 13.847 0 22.747 0 47.472-2.967 71.209 0 2.967-4.945 7.912-10.88 9.89-4.944 2.967-9.89 0-15.824 0zm37.583 2.967V439.177c0-10.879 1.978-15.824 14.835-15.824 14.835 1.978 16.813-5.934 19.78-15.824 17.803-58.352 47.473-111.759 90-154.286 53.408-52.418 116.705-82.089 187.914-95.935 106.813-17.802 196.813 13.846 275.935 80.11 48.461 42.528 80.11 92.968 98.901 151.32 4.945 18.79 10.88 34.615 31.648 39.56 1.978 0 4.945 5.934 4.945 8.901v112.748c0 5.934-4.945 10.879-10.879 14.835-12.857 1.978-17.802 9.89-20.769 20.77-15.824 50.44-39.56 97.912-76.154 137.472-51.429 56.374-111.759 90-185.935 103.847-37.582 4.945-74.176 7.912-111.758 10.879-10.88 1.978-15.825-2.967-15.825-12.857V455c0-9.89 4.945-15.824 15.825-15.824h219.56c11.869 0 13.847 2.967 13.847 15.824v50.44c0 15.824 0 15.824-16.813 15.824H549.947c-18.791 0-18.791 0-18.791 18.792v45.494c0 9.89 2.967 12.858 13.846 12.858h97.912c10.88 0 13.846 2.967 13.846 12.857v53.407c0 10.879-5.934 12.857-13.846 12.857H546.98c-12.857 0-15.824 5.934-15.824 16.813v47.473c0 7.912 2.967 9.89 13.846 9.89 113.736-20.77 206.704-110.77 220.55-230.44 15.824-119.671-71.209-262.09-220.55-283.848-122.638-13.846-238.353 55.385-278.902 170.11-37.583 111.76-23.737 219.562 42.527 318.463 15.825 20.77 34.616 42.528 52.418 63.297l5.934 5.934v4.945c-26.703-10.879-50.44-23.736-72.198-42.527-57.363-44.506-94.945-105.825-112.747-178.023-2.967-9.89-7.913-14.835-19.78-14.835-15.825 1.978-17.803-6.923-17.803-19.78zm734.838-12.857v-74.176c0-4.946 1.978-10.88 10.879-10.88h12.857v94.946h-12.857c-5.934 0-10.88-1.978-10.88-9.89z" style="fill:#000;fill-opacity:1;fill-rule:nonzero;stroke:none;"/>
</svg>
