<svg xmlns="http://www.w3.org/2000/svg" viewBox="0 0 1000 1000"><path d="M785.95 110.727c136.966 14.418 209.054 48.058 209.054 176.615v144.175c0 79.297-28.835 129.758-108.132 148.981-49.26 14.418-111.735 14.418-169.406 14.418-28.835 0-36.043 14.417-43.252 34.842-7.209 43.253-21.626 49.26-57.67 43.253-28.835-6.008-21.627-28.835-21.627-50.462v-27.633c-21.626 0-48.058-3.605-64.878 0-8.41 0-10.814 21.626-13.217 34.842-2.402 14.418-7.208 31.238-21.626 43.253-7.209 4.806-48.058 4.806-57.67-4.806-4.806-7.209-4.806-73.29-4.806-67.282-38.447 0-79.296 1.202-85.304 28.835-21.626 93.714-44.454 187.428-57.67 279.94-8.41 37.246-14.417 43.253-50.461 43.253H95.11c7.208-28.835 100.922-482.987 122.549-586.313 6.007-27.633 14.417-43.252 43.252-43.252h147.78c-13.216 50.461-19.223 93.714-25.23 135.765h340.013c70.886 0 91.31-20.425 91.31-92.513v-72.087c0-28.836-7.208-34.843-39.647-34.843H5V252.5c33.64-43.252 62.476-84.102 98.52-120.146 6.007-7.208 6.007-7.208 34.842-7.208h362.841c28.836 0 50.462-6.008 50.462-42.052 0-28.835 21.626-36.043 43.252-36.043 30.037 0 36.044 7.208 36.044 36.043v36.044h64.88c2.402-40.85 3.604-64.879 57.67-64.879 30.036 0 32.439 30.037 32.439 42.051z"/></svg>