<svg xmlns="http://www.w3.org/2000/svg" viewBox="0 0 1000 1000"><path d="M5 500.496c0 271.98 220.55 494.507 495.496 494.507 271.98 0 494.507-220.55 494.507-495.496C995.003 227.528 773.464 5 500.496 5 226.54 5 5 225.55 5 500.496zm135.495 204.726V327.42c0-29.67 23.736-52.418 52.418-52.418h629.013c25.714 4.945 40.55 25.714 40.55 52.418 0 126.593 2.966 255.165 0 381.76 0 31.648-19.78 52.417-49.451 52.417H196.869c-28.682 0-47.473-13.846-53.407-37.583-2.967-5.934-2.967-12.857-2.967-18.79zm29.67 5.934c0 12.857 11.869 21.759 22.748 24.726h33.626c4.945 0 10.88 0 16.813-2.967-5.934-33.627-40.55-67.253-73.187-71.21 0 17.803-1.978 35.605 0 49.451zm0-339.232c34.616-3.956 67.253-35.604 73.187-71.209-20.769 0-38.571-2.967-58.351 3.956-9.89 0-14.836 7.912-14.836 15.825zM325.441 517.31c0-100.88 79.12-178.022 179.011-178.022 99.89 0 176.045 79.121 176.045 178.022 0 105.825-84.066 177.034-179.012 180.001-98.901-2.967-178.022-79.121-176.044-180zm35.604 0c0 75.165 56.374 144.396 143.407 141.43 87.033 0 141.43-73.188 141.43-141.43 0-75.165-67.254-143.407-144.397-140.44-76.154-2.967-140.44 65.275-140.44 140.44zm123.627 12.858v-76.155c0-8.9 1.978-14.835 11.868-14.835 4.945 0 10.88 5.934 10.88 14.835v44.506c0 18.791 0 18.791 21.758 18.791h34.615c11.868 0 14.835 3.956 14.835 12.858 1.978 7.912-2.967 14.835-14.835 14.835h-71.209c-5.934 0-7.912-8.901-7.912-14.835zm278.902 205.715c15.824 0 34.615 0 52.418-2.967 7.912 0 17.802-6.924 20.769-14.836 1.978-18.791 0-36.593 0-56.374-28.681 3.957-68.242 32.638-73.187 74.177zm0-431.21c4.945 34.615 37.583 63.296 73.187 67.252v-51.428c-2.967-14.836-12.857-19.78-27.692-19.78h-33.627c-6.923 0-9.89 0-11.868 3.955z"/></svg>