<svg xmlns="http://www.w3.org/2000/svg" viewBox="0 0 1000 1000"><path d="M5 500.496c0 271.98 220.55 494.507 495.496 494.507 271.98 0 494.507-220.55 494.507-495.496C995.003 227.528 773.464 5 500.496 5 226.54 5 5 225.55 5 500.496zm96.923-39.56c8.902-72.198 31.649-132.528 72.198-193.847 5.935-8.901 8.902-18.792 22.748-15.824 15.824 0 25.714 15.824 15.824 29.67-6.923 9.89-12.857 15.824-15.824 26.703-85.055 126.594-75.165 292.749 15.824 414.397 3.956 1.978 3.956 4.945 6.923 8.901 6.923 8.902 2.967 19.78-2.967 25.715-10.88 3.956-19.78 3.956-26.703 0-2.967-2.967-6.923-5.934-6.923-9.89-65.275-85.056-93.957-178.023-81.1-285.825zm65.275 0c5.934-26.704 9.89-52.418 19.78-76.155 45.495-117.692 130.55-187.912 251.21-214.616 17.803-2.967 35.605-7.912 35.605 15.825 0 13.846-6.923 19.78-19.78 22.747-25.715 3.956-48.462 10.88-71.21 19.78-97.912 49.45-157.253 124.616-173.077 228.463 0 3.956-3.956 5.934-3.956 9.89-2.967 12.857-8.901 18.79-22.747 16.813-8.902 0-18.792-9.89-15.825-22.747zm3.956 103.846v-9.89c0-12.857 5.934-22.747 15.825-22.747 9.89 0 18.79 6.923 22.747 16.813 6.923 21.758 9.89 44.505 19.78 67.253 42.528 98.901 117.693 157.253 221.54 180 38.571 6.924 29.67 38.572-6.924 38.572-8.9-2.967-26.703-5.934-42.527-12.857-123.627-41.539-201.76-126.594-230.44-257.144zm61.32-68.242C235.44 350.166 356.1 228.517 506.43 228.517c153.297 0 273.957 124.616 273.957 274.946 0 149.341-123.627 270.001-273.957 270.001-153.297 0-276.924-123.627-273.957-276.924zm9.89-276.924c-6.924-6.923-6.924-19.78 2.966-26.703 9.89-9.89 19.78-15.825 29.67-25.715 68.243-46.483 149.342-69.23 248.244-69.23 74.176 0 155.275 26.703 227.473 81.098 3.956 0 6.923 3.957 9.89 6.924 6.923 6.923 9.89 19.78 0 26.703-5.934 9.89-16.813 9.89-25.714 2.967-12.858-9.89-29.67-18.791-42.528-29.67-130.55-74.176-296.704-65.275-414.397 29.67-2.967 3.956-6.923 6.923-9.89 6.923-8.901 5.934-19.78 2.967-25.715-2.967zm5.934 596.376c-5.935-5.934-5.935-16.814 0-26.704 6.923-5.934 16.813-8.9 26.703-2.967 2.967 0 6.923 2.967 6.923 5.934 71.209 49.451 149.341 80.11 234.396 76.154 85.056 0 96.924-14.835 214.616-79.12 23.737-7.913 37.583 18.79 23.737 32.637-89.011 56.374-141.43 81.099-248.243 85.055-89.011-2.967-170.11-26.703-241.32-78.132-2.966-2.967-9.89-9.89-16.812-12.857zm22.747-316.485c0 130.55 104.835 234.397 235.385 234.397 127.583 0 231.43-103.847 235.386-234.397 3.956-124.616-107.803-228.462-235.386-228.462-123.627 0-235.385 94.945-235.385 228.462zm124.616 69.231v-49.45c2.967-10.88 9.89-19.78 19.78-15.825 12.857 0 19.78 4.945 19.78 15.824v49.451c0 11.868-10.879 18.791-19.78 18.791-9.89 0-16.813-6.923-19.78-18.79zm75.165-3.956V462.914c0-12.858 6.923-18.792 15.824-22.748 9.89 0 16.813 3.956 19.78 9.89 2.967 6.924 2.967 10.88 2.967 16.814v97.912c0 12.857-5.934 22.747-19.78 22.747-8.901 0-18.791-6.923-18.791-22.747zm52.417 254.177c0-8.901 5.935-19.78 18.792-19.78 42.527-6.924 85.055-18.792 123.627-45.495 19.78-13.846 35.604-29.67 53.406-42.528 2.967-2.967 5.934-6.923 8.901-6.923 6.924-5.934 19.78-5.934 26.704 0 5.934 6.923 9.89 19.78 0 26.703-60.33 55.385-143.407 107.803-208.682 107.803-13.846 0-22.747-9.89-22.747-19.78zm0-635.936c2.968-9.89 8.902-15.825 24.726-15.825 40.55 2.967 79.121 15.825 117.693 34.616 35.604 20.77 65.274 42.527 91.978 72.198 6.923 6.923 8.901 13.846 8.901 19.78-5.934 15.824-22.747 22.747-35.605 9.89l-29.67-29.67c-41.539-35.605-115.715-61.319-159.231-68.242-12.857-3.956-18.791-12.857-18.791-22.747zm22.748 387.693V384.781c1.978-9.89 8.901-15.824 19.78-15.824 8.901 0 18.791 5.934 18.791 19.78v181.98c-2.967 9.89-9.89 16.812-18.79 16.812-10.88 0-17.803-6.923-19.781-16.813z"/></svg>