<svg xmlns="http://www.w3.org/2000/svg" viewBox="0 0 1000 1000"><path d="M5 500.496c0 271.98 220.55 494.507 495.496 494.507 271.98 0 494.507-220.55 494.507-495.496C995.003 227.528 773.464 5 500.496 5 226.54 5 5 225.55 5 500.496zm217.583 179.012V392.694c0-73.187 34.616-126.594 103.847-156.265 13.846-3.956 23.736-13.846 32.637-29.67 38.572-57.363 91.978-82.088 166.155-71.21 48.461 8.902 100.879 17.803 149.34 29.671 74.177 13.846 121.65 67.253 132.529 145.385 3.956 23.737 3.956 53.407 0 76.154 0 10.88-4.945 24.726-14.836 29.67-34.615 28.682-68.242 57.364-101.868 88.023-3.956 4.945-24.725 8.901-29.67 4.945-9.89-4.945-13.847-19.78-13.847-28.681V416.43c-4.945-59.34-39.56-96.923-92.967-105.825-49.45-11.868-91.978-20.769-141.43-29.67-18.79 0-28.68 4.945-28.68 24.725v285.825c0 58.352 37.582 96.924 96.923 106.814 44.506 10.88 92.967 19.78 136.484 28.681 19.78 5.935 29.67-3.956 29.67-22.747v-78.132c0-15.824 8.901-29.67 18.792-40.55 29.67-28.681 62.307-51.428 91.978-81.099 8.901-5.934 24.725-9.89 34.615-5.934 9.89 5.934 14.836 19.78 14.836 28.682 3.956 36.593 3.956 69.23 0 103.846-4.945 67.253-44.506 115.715-102.858 140.44-8.901 4.945-24.725 8.901-29.67 19.78C636.98 858.52 573.683 878.3 495.55 868.41c-44.506-4.945-91.978-13.846-141.429-23.736-82.088-19.78-131.539-78.132-131.539-165.165zm49.45-48.462c0 23.736 0 43.517 3.957 67.253 4.945 48.462 34.615 78.132 78.132 92.967 58.352 9.89 117.693 18.792 171.1 28.682 33.626 4.945 62.307-4.945 91.978-39.56-13.846-3.957-24.725-3.957-29.67-3.957-33.627-9.89-67.254-13.846-101.869-20.77-105.825-17.801-155.275-76.153-155.275-183.956V334.342c0-9.89 0-19.78-3.956-39.56-9.89 10.878-20.77 15.823-24.726 24.725-25.714 23.736-29.67 53.406-29.67 87.033zm140.44-403.518c13.847 4.945 24.726 4.945 29.671 4.945 38.572 8.901 78.132 12.857 116.704 24.726 78.132 13.846 120.66 62.308 136.484 135.495 4.945 9.89 4.945 18.79 4.945 28.681 48.462-18.791 57.363-39.56 57.363-87.033 0-59.341-33.627-101.869-87.033-117.693-53.407-9.89-106.814-18.791-166.155-28.681-32.637-4.945-62.308 4.945-91.978 39.56zm291.76 476.705c39.56-10.88 62.308-73.187 49.45-118.682-53.406 19.78-74.175 69.231-49.45 118.682z"/></svg>