<svg xmlns="http://www.w3.org/2000/svg" viewBox="0 0 1000 1000"><path d="M691.562 340.112c9.648 45.83-6.03 75.981-47.036 94.072-26.533 12.06-53.066 24.12-79.6 33.77-9.648 4.823-12.06 9.647-9.648 21.708 8.443 57.89 20.503 115.78 24.121 174.877 4.824 83.217 2.412 166.435 2.412 250.858v75.981c2.412 0 3.618 1.206 4.824 1.206 9.649-16.884 20.503-32.563 28.946-50.654 28.945-61.508 56.684-124.223 83.217-186.937 16.885-37.388 34.975-74.775 34.975-116.987-1.206-96.484-2.412-191.762 1.206-288.246 1.207-74.775-8.442-147.138-38.593-215.882-26.533-60.303-65.127-103.72-130.253-120.605C510.654-1.2 453.97 3.624 402.11 25.333c-36.181 14.473-63.92 37.388-82.011 69.951-34.976 62.715-54.273 131.46-54.273 202.616-1.206 114.575-1.206 226.737 0 340.106 0 21.709 4.825 43.418 13.267 63.92 26.533 63.921 55.478 125.43 83.217 189.35 14.473 31.357 28.946 62.715 44.624 94.072 2.412 3.618 8.443 6.03 12.06 9.648 1.207-4.824 3.619-9.648 3.619-14.472-1.206-62.715-3.618-126.635-4.824-190.556-1.206-96.484 1.206-190.556 22.915-283.421 7.236-30.152 7.236-30.152-21.71-44.624-22.914-10.855-47.035-19.297-72.362-31.357-34.976-16.885-50.654-59.097-37.388-89.248 45.83 19.297 90.454 38.594 136.284 57.89 13.266 4.825 19.297 16.885 19.297 32.564-2.413 27.739-6.03 55.478-10.855 82.011-4.824 28.945-3.618 55.478 18.09 79.6 16.885 18.09 33.77 20.502 51.86 3.617 16.886-15.678 27.74-33.77 25.328-57.89l-10.855-94.072c-3.618-28.945 3.619-43.418 32.564-54.272 25.327-9.648 50.654-20.503 75.98-31.357 15.68-4.824 30.152-12.06 44.625-19.297z"/></svg>