<svg xmlns="http://www.w3.org/2000/svg" viewBox="0 0 1000 1000"><path d="M216.507,519.312c0-124.578-13.616-305.658-24.508-423.43,19.061-24.508,45.61-53.1,66.715-72.16l6.126,2.042c14.3,148.4,17.7,320.636,17.7,479.253,0,41.527-1.361,82.372-4.765,112.324-2.041,37.442-20.422,66.033-59.9,109.6l-8.851-4.765c6.807-42.886,7.489-91.22,7.489-136.15Zm-36.762,314.51c0-10.21,23.828-23.826,47.654-23.826,8.169,0,16.337.68,21.1,2.042,7.489,2.041,14.3,11.574,21.784,26.549h1.362c10.892-12.934,21.784-26.549,21.784-44.248s-15.657-33.359-42.886-33.359c-27.911,0-59.908,17.02-82.372,38.8-19.063,17.7-32,41.527-32,59.907,0,29.273,21.1,49.7,53.1,59.226v2.042c-11.572,4.085-25.188,14.977-31.315,22.466l-16.337,28.591,1.362,2.041c49.693-22.464,108.921-40.162,177-51.057a330.244,330.244,0,0,0,26.549-46.29v-2.043c-23.146,1.362-46.29,2.723-69.436,2.723C236.929,877.39,179.745,866.5,179.745,833.822ZM410.337,546.877c-48.8,0-83.654,36.25-83.654,87.84,0,50.192,33.46,87.837,82.259,87.837,51.589,0,83.657-37.645,83.657-87.837C492.6,583.127,459.136,546.877,410.337,546.877ZM818.286,374.991c-45.61-56.5-107.559-106.877-162.7-140.915l-5.447.68c-15.657,25.187-34.718,60.587-34.718,77.606,0,8.169,5.445,17.019,21.785,25.188,48.333,24.508,100.07,61.269,138.873,102.794,40.166,44.25,63.991,92.584,63.991,129.344,0,5.447-4.765,11.574-13.615,16.339-49.694,27.911-94.624,44.248-147.723,44.248-85.1,0-109.6-46.29-111.644-104.836h-26.55a303.817,303.817,0,0,0-3.4,49.7c0,100.752,53.1,143.639,130.705,143.639,63.991,0,128.662-27.229,189.249-63.309,17.7-36.762,28.593-76.927,28.593-119.134C885.682,479.147,859.813,426.731,818.286,374.991Z"/></svg>