<svg xmlns="http://www.w3.org/2000/svg" viewBox="0 0 1000 1000"><path d="M654.645 334.6c31.885 0 34.542 3.985 29.228 29.227-15.942 77.054-38.527 154.108-59.783 231.162 0 6.643-3.986 14.614-10.629 14.614-3.985 0-10.628-3.986-15.942-7.971-61.112-69.083-128.866-131.524-179.35-207.25-5.314-7.97-9.3-14.613-9.3-26.57 0 0 9.3-6.642 15.943-6.642 77.054-10.628 155.436-19.928 229.833-26.57zM5 521.92l10.628-112.924c3.986-55.797 27.9-14.613 37.199 46.499 6.642 38.527-18.6 54.469-37.199 77.054C10.314 535.206 5 543.177 5 521.92zm6.643 87.683C5 594.989 5 580.375 11.643 569.747c15.942-15.942 26.57-29.227 37.198-45.17 7.971-6.642 18.6-15.942 22.585 3.986L94.011 657.43c6.643 23.914 10.628 49.155 11.957 81.04 0 0 0 3.985-1.329 6.642-3.985 0-7.971-2.657-7.971-6.642-29.227-41.184-58.455-85.025-85.025-128.866zm22.585-271.018c-3.986-17.27 0-33.213 11.956-45.17l98.31-90.339c18.6-21.256 22.585-9.3 13.286 10.628-10.628 33.213-22.585 62.44-31.885 91.668l-43.84 108.939c-6.643 15.942-13.286 18.599-18.6 0-10.628-25.242-17.27-50.484-29.227-75.726zm59.783 196.62c0-10.628 1.328-25.241 15.942-10.628L250.776 657.43c6.643 2.657 10.628 14.614 14.614 21.257-3.986 9.3-7.971 15.942-14.614 22.584-26.57 26.57-55.798 46.498-83.697 73.069-19.927 14.614-30.556 10.628-34.541-9.3zm2.657-102.295c13.285-34.542 26.57-71.74 38.527-108.939 11.957-37.198 27.899-69.083 41.184-110.267 17.27-47.826 22.585-45.17 51.812-10.628 37.199 39.856 73.069 81.04 107.61 120.895 17.27 22.585 13.285 29.228-11.956 39.856l-200.607 82.368c-3.985 2.657-13.285 2.657-17.27 2.657-9.3 0-11.957-9.3-9.3-15.942zm9.3 66.426c-9.3-14.614-5.314-25.242 13.285-31.885l134.18-57.126c25.242-5.314 51.812-15.942 82.368-27.899 10.628-6.642 17.27-2.657 17.27 15.942l-10.627 47.827c-18.6 59.783-33.213 123.552-51.812 184.664-2.657 18.6-14.614 22.585-29.228 9.3zm67.754 293.602c27.899-27.899 61.112-54.47 91.668-79.711 6.642-6.643 10.628-6.643 22.585-11.957 6.642 5.314 17.27 15.943 25.241 25.242 25.242 39.856 55.798 81.04 81.04 120.895l21.256 33.213c11.957 11.957 0 18.6-11.956 14.614-75.726-25.242-150.123-46.498-223.191-73.069-18.6-6.642-22.585-18.599-6.643-29.227zm31.884 73.069c-19.927-14.614-15.942-25.242 11.957-14.614l182.007 66.426c14.614 6.642 27.899 10.628 3.986 25.242l-42.513 25.241c-7.971 6.643-26.57 11.957-43.841-2.657zm29.228-681.53c-17.27-25.242-17.27-31.884 15.942-37.199 77.054-17.27 152.78-35.87 233.82-50.483h6.642c15.942-3.986 18.599 2.657 10.628 18.599-6.643 14.614-17.27 31.884-29.227 50.484l-82.369 143.48c-13.285 22.584-25.241 22.584-41.184 2.657-35.87-43.841-77.054-86.354-114.252-127.538zm22.585-75.726c25.241-22.584 55.797-45.17 85.025-70.411 3.985-3.986 10.628-6.643 18.599-14.614 10.628-10.628 25.242-14.613 38.527-7.97 29.227 14.613 57.126 29.227 82.368 41.183 13.285 6.643 25.242 14.614-5.314 22.585L265.39 120.708c-14.614 0-18.6-3.985-7.971-11.957zm51.812 534.065c3.985-22.585 10.628-41.184 14.614-59.784 14.613-61.112 29.227-120.895 47.826-178.021 3.986-18.6 14.614-18.6 25.242-3.986l187.321 212.563c2.657 6.643 6.643 14.614 2.657 17.27 0 3.986-10.628 9.3-14.614 9.3-81.04 9.3-159.422 17.271-241.79 25.242h-2.657c-18.6 0-18.6-11.956-18.6-22.584zm18.6 74.397c-14.615-19.928-7.972-29.228 14.613-35.87l237.804-21.257c3.986 0 10.629 0 14.614 5.314l-3.985 13.286c-41.184 69.083-79.711 134.18-118.238 201.934-10.629 18.6-21.257 18.6-31.885 3.986-37.198-59.783-74.397-115.581-112.924-167.393zm71.739 251.09 15.942-10.629c27.9-18.599 54.47-21.256 83.697-2.657l37.198 19.928c7.971 6.643 11.957 15.942-3.985 15.942-47.827 0-89.01-3.985-128.866-6.642-18.6 0-15.943-6.643-3.986-15.943zM408.87 316l47.826-87.682c19.928-33.213 42.513-69.083 61.112-107.61 14.614-21.256 25.242-21.256 41.184 0 31.885 51.812 69.083 104.953 104.953 155.437l3.986 3.985c15.942 25.242 11.956 31.885-19.928 35.87-71.74 9.3-146.137 15.942-223.191 25.242h-6.643c-18.599-2.657-21.256-6.643-9.3-25.242zM443.41 9.113c78.383 3.985 91.668 2.657 147.466 6.642 10.628 0 19.927 1.329 15.942 7.971l-11.957 10.628c-39.855 29.228-51.812 37.199-118.238 0-10.628-6.642-53.14-25.241-33.213-25.241zm47.827 879.478c15.942-26.57 29.227-47.826 41.184-74.397 26.57-39.855 51.812-85.025 74.397-123.552 10.628-18.599 25.242-22.585 38.527-2.657 41.184 41.184 77.054 89.01 116.91 134.18 11.956 14.614 11.956 25.242-6.643 29.228-79.711 18.6-160.75 37.198-241.79 50.484-18.6 3.985-31.885 1.328-22.585-13.286zm26.57 58.455c-14.614-9.3-14.614-21.256 2.657-26.57 38.527-6.643 70.412-13.285 103.625-21.256l108.938-22.585c13.285 0 13.285 10.628 7.971 14.613L632.061 980.26c-7.971 6.643-14.614 10.628-22.585 6.643-7.971-1.329-74.397-31.885-91.668-39.856zm58.455-875.493c3.985-7.971 7.971-10.628 14.614-14.614l43.84-22.585c13.286-7.97 33.214-7.97 49.156 7.972 66.426 55.797 103.624 89.01 119.566 104.952-42.512 0-55.797-9.3-208.577-61.111-7.971-3.986-22.585-9.3-18.6-14.614zm3.985 47.827c-7.97-14.614 0-25.242 6.643-19.928 22.585 11.956 45.17 18.6 70.411 27.899l152.78 54.469c22.585 5.314 26.57 13.285 7.971 27.899L731.7 286.773c-19.927 15.942-29.227 11.956-42.512-6.643-34.542-51.812-73.069-107.61-108.939-160.75zm62.44 490.223c5.315-26.57 11.957-51.813 14.614-74.397l45.17-163.408c5.314-21.256 11.957-25.242 30.556-10.628l147.465 134.18c19.928 17.27 18.6 29.228-6.642 37.199-66.426 29.227-135.509 50.483-197.95 81.04-7.97 3.985-11.956 6.642-18.599 3.985-2.657 0-11.956-3.986-14.613-7.971zm18.6 66.426c-15.942-18.6-15.942-29.228 6.643-41.185 69.083-25.241 139.494-55.797 208.577-81.04 18.6-6.642 22.585-2.656 22.585 11.958-7.971 17.27-15.942 39.855-22.585 58.454l-66.426 175.365c-9.3 25.242-18.6 25.242-39.855 3.985zm70.411 248.432c9.3-9.3 18.6-17.27 27.9-25.241 10.627-7.972 21.256-18.6 29.227-22.585 17.27-7.971 23.913 10.628 14.613 14.613-22.584 15.943-47.826 27.9-70.411 41.184-5.314 3.986-7.971-1.328-1.329-7.97zm9.3-583.219c-13.285-13.285-13.285-25.242 0-38.527l87.682-77.054c18.6-17.27 29.228-11.957 33.213 9.3 26.57 144.808 38.527 220.534 41.184 236.476 2.657 19.928-7.97 14.613-18.599 5.314-47.827-46.498-95.653-90.34-143.48-135.509zm85.025 506.165 47.827-47.826c7.971-7.971 21.256-6.643 17.27-3.986-17.27 22.585-33.212 45.17-51.812 63.769-3.985 5.314-26.57 1.329-13.285-11.957zm10.628-62.44 77.054-201.935c2.657-7.97 10.629-17.27 14.614-6.642 14.614 33.213 25.242 66.426 34.542 102.296 3.985 6.642-5.314 18.599-11.957 25.241-34.542 34.542-66.426 62.44-99.639 91.668-13.285 9.3-22.585 7.971-14.614-10.628zm50.484-516.793c-2.657-21.257 7.971-17.271 15.942-3.986l77.054 122.224c11.957 14.613 11.957 27.899 1.329 41.184-9.3 18.599-21.256 30.556-34.542 46.498-11.956 10.628-21.256 10.628-22.584-2.657-1.329 0-37.199-203.263-37.199-203.263zm59.783 293.602c-11.956-27.899-7.97-47.827 10.629-67.754 2.657-3.986 7.97-9.3 27.898-31.885 6.643-7.97 10.629-6.642 9.3 14.614-6.643 47.827-13.285 89.01-14.614 132.852-2.657 11.956-10.628 19.927-19.927 0-2.657-14.614-6.643-31.885-13.286-47.827z"/></svg>