<svg xmlns="http://www.w3.org/2000/svg" width="1000" height="1000">
  <path d="M5 558.698V440.376h16.283c13.026-3.256 19.54 3.257 19.54 16.283 0 29.31 0 59.704-3.257 89.013 0 3.256-6.513 9.77-13.027 13.026-6.513 3.257-13.026 0-19.539 0zm45.592 3.257V430.606c0-14.111 3.257-20.624 19.54-20.624 17.368 3.256 20.624-6.514 23.88-19.54 22.797-72.73 58.62-138.947 111.81-191.052 66.217-66.217 145.46-103.125 234.473-119.407 132.434-22.796 244.242 16.282 343.025 98.782 59.704 53.19 98.783 116.151 122.664 188.881 6.513 22.796 13.026 42.336 39.079 48.849 3.257 0 6.513 7.598 6.513 10.855v141.118c0 6.513-6.513 13.026-13.026 17.368-16.283 3.257-22.796 13.027-26.053 26.053-19.54 62.96-49.934 121.578-95.526 171.512-62.96 69.474-138.947 111.81-231.216 129.178-46.678 6.513-92.27 9.77-138.947 13.026-13.026 3.256-19.54-3.257-19.54-16.283V450.146c0-13.026 6.514-19.54 19.54-19.54H720.36c14.111 0 17.368 3.257 17.368 19.54v62.96c0 19.54 0 19.54-20.625 19.54H555.36c-22.796 0-22.796 0-22.796 22.796v56.447c0 13.026 3.257 16.283 16.283 16.283h122.664c13.026 0 16.283 3.256 16.283 16.282v66.217c0 13.027-6.513 16.283-16.283 16.283H552.104c-16.283 0-19.54 6.513-19.54 20.625v58.618c0 9.77 3.257 13.027 16.283 13.027 142.204-26.053 257.269-137.862 274.637-286.578 19.54-148.717-89.013-326.743-274.637-353.88-151.973-16.284-296.348 69.473-346.282 211.676-46.677 138.947-29.309 273.552 53.19 396.216 19.54 26.053 42.336 53.19 65.132 79.243 3.257 3.257 3.257 3.257 7.599 6.513v6.513c-33.651-13.026-62.96-29.309-90.099-53.19-71.644-55.362-118.322-131.348-141.118-220.361-3.256-13.027-9.77-19.54-23.881-19.54-19.54 3.257-22.796-7.598-22.796-23.881zm914.01-16.283v-92.27c0-6.513 3.257-13.026 14.112-13.026h16.283v118.322h-16.283c-7.599 0-14.112-3.256-14.112-13.026z" style="fill:#000;fill-opacity:1;fill-rule:nonzero;stroke:none;"/>
</svg>
