<svg xmlns="http://www.w3.org/2000/svg" viewBox="0 0 1000 1000"><path d="M500.496 5C223.572 5 5 229.506 5 500.002c0 276.43 224.506 495.001 495.002 495.001 276.43 0 495.001-224.506 495.001-495.001C995.003 226.539 773.464 5 500.496 5zM120.715 531.156c-12.858-20.77-10.88-38.572 0-59.341 57.363-95.935 111.758-192.858 168.132-288.792 11.868-21.759 24.725-26.704 47.473-26.704 111.758 0 224.506.99 336.265 0 21.758 0 36.593 8.901 47.472 26.704 56.374 98.901 111.759 197.802 171.1 295.715 9.89 16.813 7.912 31.648 0 47.473-57.363 95.934-112.748 190.88-166.155 287.803-14.835 25.714-31.648 34.615-59.34 32.637h-331.32c-20.77 0-33.627-3.956-45.495-23.736-56.374-98.902-110.77-195.825-168.132-291.76zm47.472-29.67c52.418 50.439 100.88 91.977 150.33 136.483 6.924 6.923 25.715 11.868 28.682 9.89 11.868-7.912 22.747-20.769 22.747-31.648 1.978-79.121 1.978-155.275 0-233.408 0-8.9-6.923-24.725-15.824-27.692-6.923-3.956-23.736 2.967-30.66 6.923-34.615 31.649-68.241 63.297-101.868 91.978-17.802 15.825-33.626 29.67-53.407 47.473zm31.649-66.265c86.044-49.45 129.56-110.77 140.44-185.934 0-5.935-5.934-16.814-11.868-34.616-46.484 75.165-86.045 146.374-128.572 220.55zm1.978 139.451c40.55 70.22 80.11 140.44 121.649 207.693 1.978 0 5.934-2.967 6.923-2.967 0-5.934 3.956-15.824-.99-20.77-17.802-21.757-21.758-46.483-12.856-76.153 1.978-5.934 0-14.835-4.946-20.77-32.637-29.67-69.23-60.33-102.857-90.989-2.967 2.967-4.945 2.967-6.923 3.956zm136.484 137.473c0 27.693 22.747 46.484 48.462 46.484 23.736-.99 44.505-23.736 44.505-50.44-2.967-27.692-20.77-46.484-47.473-46.484-29.67 3.957-47.472 23.737-45.494 50.44zm8.9-412.419c.001 19.78 22.748 39.56 45.496 39.56 21.758-1.977 38.571-19.78 38.571-44.505-2.967-25.714-18.791-37.582-43.516-37.582-21.759 0-40.55 20.769-40.55 42.527zm2.968-83.077c8.901 2.967 17.802 10.88 27.692 15.824 18.792 5.934 38.572 12.857 57.363 19.78 8.901 1.979 17.802 6.924 23.737 4.946 52.417-16.814 103.846-31.649 153.297-47.473v-4.945H354.122c-1.978 4.945-1.978 5.934-3.956 11.868zm1.978 576.595c1.978 0 1.978 1.978 1.978 4.945h240.33v-4.945c-44.505-15.824-90-29.67-135.494-45.494-3.956 0-12.858 0-16.814 3.956-17.802 23.736-43.516 31.648-72.198 30.66-6.923 0-10.879 5.933-17.802 10.878zm44.506-181.978c0 38.571 36.593 58.352 67.253 39.56 60.33-33.626 118.681-69.23 179.011-101.868 29.67-17.802 31.649-75.165 0-92.967-60.33-32.638-118.681-69.231-179.011-102.858-30.66-17.802-67.253 0-67.253 38.572v107.802zm70.22-283.847 201.759 115.714c15.824 10.88 44.505-11.868 47.472-31.648-13.846-58.352-25.714-121.649-41.538-181.979 0-3.956-12.857-9.89-16.814-9.89-63.296 18.791-125.604 39.56-188.901 62.308-20.77 5.934-20.77 35.604-1.978 45.495zm1.978 349.122c-20.77 10.879-20.77 40.55 2.967 48.461 62.308 24.726 127.583 44.506 196.814 70.22 15.824-71.209 31.648-136.484 44.505-203.737 4.945-22.747-28.681-39.56-51.428-27.692-65.275 36.594-127.583 74.176-192.858 112.748zM686.43 503.463c1.978 29.67 23.736 50.44 54.396 50.44 26.703 0 50.44-20.77 50.44-50.44 1.977-29.67-22.748-53.407-50.44-56.374-27.693 0-54.396 26.704-54.396 56.374zm19.78 231.43c2.967 0 3.956 1.978 6.923 1.978 39.56-71.21 83.077-145.386 125.605-217.584-4.945-1.978-6.923-4.945-8.901-6.923-2.967 4.945-11.868 6.923-12.857 11.868-14.835 28.682-33.627 49.451-68.242 55.385-4.945 1.978-10.88 13.846-12.857 20.77-10.88 44.505-19.78 89.01-29.67 134.506zm9.89-465.826c1.978 48.461 1.978 95.934 24.726 133.517 17.802 36.593 60.33 58.352 90.989 86.044 1.978 0 4.945-3.956 4.945-3.956-40.55-71.21-80.11-141.43-120.66-215.605z"/></svg>