<svg xmlns="http://www.w3.org/2000/svg" viewBox="0 0 1000 1000"><path d="M45.7 277.104c2.288-34.315 4.576-70.916 8.007-106.374 1.144-18.301 5.72-35.458 27.452-38.89 20.588-3.431 30.882 10.295 38.889 26.308C171.519 259.947 224.134 360.6 274.462 462.4c8.006 14.87 16.013 20.589 32.026 20.589a22037.723 22037.723 0 0 1 388.894 0c16.013 0 25.164-5.72 32.026-20.589C778.88 360.601 831.495 258.803 884.11 157.004c8.006-16.013 17.157-28.595 36.601-25.164 19.445 3.432 25.164 17.157 27.452 33.17 24.02 229.906-20.589 440.366-168.14 623.374-72.06 88.073-162.42 154.414-264.218 203.598-9.15 4.575-22.877 3.431-32.027 0C229.853 863.876 85.734 659.134 52.564 376.615c-3.432-33.17-4.576-65.197-6.863-99.511zm64.054-3.432C82.302 481.845 248.154 806.685 424.3 883.32 319.07 678.58 214.984 477.27 109.754 273.672zm66.34-149.838c0-18.301 10.295-26.308 26.308-32.027 94.936-27.451 188.728-57.19 283.664-84.641 10.294-3.432 21.732-2.288 30.882 0 93.792 27.451 186.44 56.046 280.233 84.641 16.013 4.575 27.45 12.582 28.595 28.595 0 25.164-19.445 36.602-45.753 29.74-51.47-16.014-101.798-30.883-153.27-46.897-34.314-10.294-69.772-21.732-105.23-30.882-13.725-3.432-29.738-3.432-42.32 0-85.786 25.163-171.571 51.47-256.213 76.634-27.45 8.007-46.896-2.287-46.896-25.163zm141.832 422.064c61.766 118.955 121.244 234.48 183.009 354.58 62.91-121.244 122.387-236.768 183.009-354.58zm263.075 336.278c1.144 0 3.432-1.143 4.576-1.143 8.006-4.576 16.013-9.15 22.876-14.87C765.154 751.783 853.227 597.37 884.11 407.497c6.863-42.32 8.006-84.641 12.582-126.962-8.007 1.144-9.15 2.288-10.295 4.575a144944.052 144944.052 0 0 0-304.252 591.347c-1.144 2.288-1.144 4.576-1.144 5.72z"
    style="fill:#000;fill-opacity:1;fill-rule:nonzero;stroke:none"/></svg>