<svg xmlns="http://www.w3.org/2000/svg" width="1000" height="1000">
  <path d="M92.38 724.44c-41.075-82.151-60.99-194.175-51.032-281.304 9.957-63.48 28.628-121.981 57.256-179.238 24.894-51.032 63.48-93.352 103.31-130.694 34.852-33.607 79.662-62.235 124.47-80.905 58.502-23.65 118.248-42.32 177.994-47.3 31.117 0 60.99 0 92.108 4.98 82.15 11.202 151.854 52.277 225.291 89.618 4.98 2.49 4.98 3.735 0 8.713-57.256 78.417-114.513 158.078-174.258 236.494-2.49 7.468-3.734 7.468-8.713 1.245-34.852-22.405-77.172-34.852-118.247-29.873-48.544 6.224-88.374 22.405-121.981 54.767-38.586 42.32-56.012 94.598-51.033 149.365 6.223 74.682 51.033 125.715 118.247 154.343 117.002 49.788 180.482 14.936 209.11 12.447 47.299 13.692 82.15 16.181 118.247-2.49 2.49 2.49 8.713 4.98 11.202 8.713 43.565 26.14 85.885 56.012 128.205 83.396 4.979 6.223 4.979 7.468 2.49 11.202-6.224 4.979-11.203 12.447-17.427 18.67-19.915 28.629-43.564 53.523-69.703 75.928-52.278 44.809-110.779 73.437-176.748 92.108-120.736 33.607-237.739 26.139-347.273-26.14-59.745-28.627-113.268-68.458-159.322-118.246-27.383-33.607-52.277-65.97-72.193-105.8zm552.65-352.252c-1.245-1.245-1.245-6.224 0-6.224 23.649-27.383 44.809-54.767 70.947-79.66 21.16-27.384 44.81-49.789 65.97-75.928l68.458-82.15c0-1.245 6.224-1.245 7.469-1.245 3.734 4.979 7.468 7.468 11.202 12.447l4.979 2.49-4.979 2.489c-14.936 16.181-28.628 31.117-42.32 47.299-23.65 23.649-49.788 49.788-72.193 75.927-29.873 27.383-54.767 58.5-83.395 85.884l-18.67 17.426c-3.735 2.49-4.98 3.734-7.469 1.245zm8.712 41.075c-1.245-3.734 2.49-4.979 4.979-7.468l98.332-60.99c51.032-31.118 103.31-63.48 155.588-94.598 9.957-11.203 19.915-14.937 28.628-21.16 4.979-3.734 7.468-1.245 9.958 1.244 1.244 6.224 3.734 11.203 9.957 17.426v2.49c-16.181 4.979-31.117 13.691-47.299 23.65-44.809 27.383-92.108 51.032-136.917 78.415-38.586 18.671-75.927 41.076-114.513 60.991-1.245 2.49-3.734 4.979-8.713 0z" style="fill:#000;fill-opacity:1;fill-rule:nonzero;stroke:none"/>
</svg>
