<svg xmlns="http://www.w3.org/2000/svg" viewBox="0 0 1000 1000"><path d="M437.641,510.084V118.045a62.352,62.352,0,0,1,124.7,0V299.709a311.434,311.434,0,0,0,55.716-51.741V118.045a118.068,118.068,0,0,0-236.135,0v291.79A117.948,117.948,0,0,0,437.641,510.084Z"/><path d="M110.1,411.244,362.839,557.139a118.024,118.024,0,0,0,114.709,1.883l-339.6-196a62.341,62.341,0,1,1,62.345-107.976l157.358,90.832a310.375,310.375,0,0,0-16.95-74.1L228.156,206.8A118.041,118.041,0,1,0,110.1,411.244Z"/><path d="M460.093,451.062,799.68,255.027A62.341,62.341,0,1,1,862.024,363L704.665,453.835a311.068,311.068,0,0,0,72.681,22.378l112.543-64.969A118.041,118.041,0,1,0,771.829,206.8L519.086,352.7A117.91,117.91,0,0,0,460.093,451.062Z"/><path d="M539.892,548.953,200.306,744.973A62.341,62.341,0,1,1,137.961,637L295.32,546.165a311.068,311.068,0,0,0-72.681-22.378L110.1,588.756a118.048,118.048,0,1,0,118.06,204.458L480.9,647.319A117.91,117.91,0,0,0,539.892,548.953Z"/><path d="M889.9,588.771,637.16,442.876a118.022,118.022,0,0,0-114.708-1.884L862.039,637a62.341,62.341,0,1,1-62.345,107.976L642.336,654.14a310.372,310.372,0,0,0,16.95,74.105l112.543,64.969A118.045,118.045,0,1,0,889.9,588.771Z"/><path d="M562.329,489.931V881.97a62.344,62.344,0,0,1-124.688,0V700.305a311.507,311.507,0,0,0-55.716,51.741V881.97a118.06,118.06,0,0,0,236.12-.015V590.18A117.947,117.947,0,0,0,562.329,489.931Z"/></svg>