<svg xmlns="http://www.w3.org/2000/svg" viewBox="0 0 1000 1000"><path d="M500.496 5c272.968 0 494.507 221.54 494.507 495.002 0 270.495-218.572 495.001-495.001 495.001C229.506 995.003 5 776.431 5 500.002 5 229.506 223.572 5 500.496 5zM284.891 210.715h254.177c104.835 0 164.176 54.396 159.231 143.407 0 67.253-59.34 128.572-128.572 128.572H395.661c79.12 139.45 163.187 274.946 248.242 412.419 12.857-10.88 35.605-21.758 50.44-32.638-61.319-106.813-124.616-210.66-190.88-318.462 101.869 0 194.836-6.923 241.32-115.715 25.714-60.33 20.769-128.572-10.88-186.924-46.483-74.176-114.725-96.923-210.66-96.923H284.892z"/></svg>