<svg xmlns="http://www.w3.org/2000/svg" viewBox="0 0 1000 1000"><path d="M874.005 821.218 552.592 499.805c60.342-59.11 120.684-119.452 182.257-182.257V595.86c22.167 22.167 41.87 41.87 65.268 66.5 0-11.084 1.231-18.472 1.231-27.093V267.058c0-22.166-4.925-38.175-27.092-46.796-20.935-8.62-35.712-6.157-51.721 9.852-66.5 67.73-134.23 136.693-203.192 204.423-6.158 6.158-9.852 13.547-14.778 20.935-2.463 0-7.389 1.232-9.852 2.463-4.926-8.62-8.62-17.24-14.777-23.398-66.5-67.73-135.462-135.46-201.96-203.192-14.778-16.009-28.325-20.934-50.491-12.314-20.935 8.62-28.324 20.935-28.324 43.101a30581.214 30581.214 0 0 1 0 475.346c0 23.398 8.62 35.713 29.556 43.101 20.934 8.62 33.25 3.695 49.258-11.083 65.268-68.962 132.999-135.461 200.73-203.192 6.157-7.389 11.082-14.777 14.777-19.703 112.063 112.063 219.2 219.2 327.57 326.338-149.008 144.082-447.022 182.257-656.372-8.62-204.423-187.183-214.275-507.364-19.703-709.324 190.877-198.267 513.521-199.498 706.861-2.463 197.035 200.729 177.332 502.438 22.167 668.686zM266.892 680.83V320.01c60.342 60.342 121.915 120.684 179.794 179.794-59.11 59.11-120.684 119.452-179.794 181.026z"/></svg>