<svg xmlns="http://www.w3.org/2000/svg" viewBox="0 0 1000 1000"><path d="M659.214,767.393q0,22.581,15.552,38.241a52.723,52.723,0,0,0,74.981,0q15.551-15.66,16.066-38.241V515.36q0-55.44-21.426-104.46a270.139,270.139,0,0,0-58.14-85.207,278.668,278.668,0,0,0-84.919-57.233,251.508,251.508,0,0,0-101.755-21.046q-91.809,0-159.64,52.872V53.9q-.51-22.59-16.066-38.247a52.722,52.722,0,0,0-74.98,0q-15.55,15.66-15.554,38.247V767.393q0,22.581,15.554,38.241a50.947,50.947,0,0,0,37.486,15.653q22.45,0,38-15.653t15.56-38.241V515.36a156.357,156.357,0,0,1,12.494-62.107A162.779,162.779,0,0,1,437.6,367.266a153.336,153.336,0,0,1,61.973-12.573,151.15,151.15,0,0,1,61.714,12.834,163.513,163.513,0,0,1,85.173,85.719,153.839,153.839,0,0,1,12.754,62.114Z"/><ellipse cx="287.913" cy="945.687" rx="53.967" ry="54.313"/><path d="M712.7,891.374a54.314,54.314,0,1,0,53.967,54.313A54.143,54.143,0,0,0,712.7,891.374Z"/></svg>