<svg xmlns="http://www.w3.org/2000/svg" viewBox="0 0 1000 1000"><path d="M5 500.496C5 225.55 226.54 5 500.496 5c272.968 0 494.507 222.528 494.507 494.507 0 274.946-222.528 495.496-494.507 495.496C225.55 995.003 5 772.475 5 500.496zm229.451 273.957c0 3.956 11.868 18.791 19.78 18.791h141.43c23.736 0 28.681-6.923 28.681-27.692 0-52.418-8.901-103.847 39.56-144.396 11.869-7.912 12.858-4.945 19.78 3.956 32.638 47.473 64.287 99.89 95.935 153.297 7.912 10.88 20.77 14.835 28.682 14.835h209.67c-22.747-32.637-142.417-229.45-193.846-313.517-6.923-6.923-3.956-18.791 0-26.704 24.725-37.582 52.418-68.242 75.165-100.879 38.572-44.506 73.187-89.011 113.737-136.484h-200.77c-11.868 0-23.737 6.923-32.638 15.824-27.692 31.649-51.428 68.242-80.11 103.847-23.736 28.681-47.473 62.308-75.165 96.923V236.43c0-8.9-4.945-20.769-15.824-20.769H251.265c-8.902 0-16.814 6.923-16.814 15.824a16561.624 16561.624 0 0 0 0 542.97z"/></svg>