<svg xmlns="http://www.w3.org/2000/svg" width="1000" height="1000">
  <path d="M291.563 521.225v322.67c1.082 18.408 9.745 35.733 24.904 45.478l187.322 102.865c14.077 7.58 24.905-1.083 24.905-18.407V642.497L300.225 526.64c-2.166-1.083-5.414-3.249-8.662-5.414zm0-51.974c0 5.414 1.082 8.662 3.248 11.91 3.248 8.663 9.745 16.242 18.407 21.656l374.646 192.737c11.91 5.414 20.572-1.083 20.572-15.16V446.513c0-15.159-7.579-29.235-20.572-36.814L574.17 351.227l113.693-58.47c12.993-8.663 20.572-21.656 20.572-36.816V22.06c0-14.076-8.662-20.573-20.572-15.159l-345.41 177.577c-21.656 11.911-36.815 19.49-44.395 32.484-3.248 3.248-6.496 8.662-6.496 16.242z" style="fill:#000;fill-opacity:1;fill-rule:nonzero;stroke:none;"/>
</svg>
