<svg xmlns="http://www.w3.org/2000/svg" viewBox="0 0 1000 1000"><path d="M386.205,404.042c0,2.963-.988,4.938-.988,5.926v234.04c0,6.913,2.963,8.888,9.875,10.863,27.651,5.925,54.314,12.837,80.976,18.762,22.713,4.938,44.438,9.875,67.151,14.813V439.593C490.881,427.743,439.53,415.893,386.205,404.042ZM743.684,692.4c-36.538-9.875-72.088-17.775-110.6-26.663V796.085c-37.526-8.888-74.064-17.775-111.589-26.663V899.774c-14.813-3.95-27.65-5.925-40.488-9.875-20.738-4.938-40.488-9.876-61.226-13.826-8.887-1.975-10.862-6.912-10.862-15.8V742.759c-23.7-5.925-46.414-11.85-69.126-16.787-13.825-4.938-33.576-3.951-40.488-12.838s-2.963-26.663-2.963-41.476V297.391c37.526,8.888,74.064,16.788,111.589,26.663V192.715c39.5,9.875,75.051,17.775,113.564,27.65V89.026c37.525,7.9,74.063,15.8,110.6,22.713v17.775c0,32.588.988,65.176,0,97.764,0,12.837,4.938,16.787,15.8,19.75,29.625,7.9,58.263,15.8,86.9,23.7,6.912,1.975,9.875,3.95,9.875,12.838V685.484A26.043,26.043,0,0,1,743.684,692.4ZM750.6,73.226C673.571,28.788,590.62,6.075,501.744,6.075c-89.864,0-172.815,22.713-249.841,67.151Q140.809,139.883,74.151,250.978C29.713,328,7,410.955,7,499.831,7,589.7,29.713,672.646,74.151,749.672Q140.808,860.767,251.9,927.424c77.026,44.438,159.977,67.151,249.841,67.151,88.876,0,171.827-22.713,248.853-67.151q111.094-66.657,177.752-177.752C972.787,672.646,995.5,589.7,995.5,499.831c0-88.876-22.713-171.827-67.151-248.853Q861.692,139.883,750.6,73.226Z"/></svg>