<svg xmlns="http://www.w3.org/2000/svg" width="1000" height="1000">
  <path d="M992.692 371.922c5.528 5.529 2.211 13.269-22.115 36.49-35.383 39.806-68.555 79.612-105.044 122.735-43.124 49.758-85.141 105.044-129.37 154.802-35.384 44.23-72.978 87.353-108.362 130.476-22.114 28.749-46.44 60.815-71.872 89.564-14.374 14.374-29.855 32.066-43.123 47.546-11.058 14.375-18.798 11.058-26.538 0-27.643-33.172-53.075-65.238-81.824-98.41-43.123-46.44-82.93-97.304-127.158-143.744-30.96-43.124-67.45-86.247-105.045-130.476-27.643-35.383-59.709-71.872-92.88-107.256-22.115-29.854-44.23-54.18-68.556-79.612-7.74-9.952-7.74-17.692 0-29.855 14.375-27.643 32.066-57.498 46.44-85.14L126.908 155.2c17.691-35.384 39.806-70.767 60.815-105.045 4.422-5.528 9.951-9.951 22.114-9.951 147.062 0 296.335-3.317 440.08-3.317h140.427c7.74 0 14.375 7.74 17.692 13.268 36.489 61.921 69.66 123.842 105.044 189.08 25.432 43.123 54.18 85.141 79.613 132.687zm-887.9-47.546c-11.057 19.903-7.74 22.115 14.374 22.115h176.917c13.269 0 21.009-2.212 25.432-14.375 14.374-27.643 27.643-53.075 47.546-82.93 19.903-39.806 45.335-79.612 67.45-121.63 9.95-18.797 7.74-22.114-14.375-22.114-50.864 0-97.304 0-148.168-3.317-27.643 0-46.44 3.317-61.92 35.383-35.384 61.92-71.873 127.159-107.256 186.868zm22.114 109.467c17.692 22.115 35.384 39.806 53.075 60.815 7.74 11.057 14.375 18.797 22.115 28.749 4.423 5.529 4.423 7.74 9.952-2.211 18.797-33.172 39.806-65.238 58.603-105.045-50.863 0-98.41-2.211-140.427-2.211-15.48 0-11.058 12.163-3.318 19.903zm143.745 166.965c14.375 17.692 33.172 35.383 46.44 53.075 54.181 68.555 111.68 137.11 166.966 205.665 6.634 7.74 14.374 11.058 24.326 0-4.423 5.529 101.727-120.524 112.784-133.793 35.383-43.123 75.19-89.564 114.996-137.11 6.634-9.952 6.634-17.692 4.423-25.432-29.855-46.44-55.287-93.987-84.036-139.321-3.317-4.423-11.057-12.163-17.691-12.163h-137.11l-137.111 4.422c-17.692 0-17.692 0-25.432 9.952-22.114 39.806-47.546 79.612-68.555 114.996-14.374 25.431-18.797 33.172 0 59.709zm116.102-254.317H610.11c-4.423-9.952-4.423-17.692-6.635-22.115-5.528-9.952-95.092-165.86-105.044-176.916-9.951 17.691-54.18 86.246-84.035 144.85-9.952 18.797-17.692 32.066-27.643 54.18zM573.62 145.248c32.066 61.92 69.66 126.053 105.044 191.291 4.423 7.74 14.374 9.952 22.114 9.952 27.644 4.422 57.498 0 89.564 0h87.353c21.009 0 24.326 0 14.374-22.115-39.806-67.45-76.295-137.11-116.101-204.56-7.74-11.057-17.692-14.374-28.75-14.374H595.736c-44.229 0-44.229 0-22.114 39.806zm149.273 270.903c19.903 35.384 38.7 67.45 59.71 100.622 7.74 9.951 13.268 4.423 22.114-3.318 17.691-19.903 57.498-70.766 75.19-97.304z" style="fill:#000;fill-opacity:1;fill-rule:nonzero;stroke:none;"/>
</svg>
