<svg xmlns="http://www.w3.org/2000/svg" viewBox="0 0 1000 1000"><path d="M500,0C223.858,0,0,223.858,0,500s223.858,500,500,500,500-223.858,500-500S776.142,0,500,0Zm327.037,827.037c-87.355,87.355-203.499,135.463-327.037,135.463s-239.682-48.108-327.037-135.463c-87.355-87.354-135.463-203.499-135.463-327.037s48.109-239.682,135.463-327.037S376.462,37.5,500,37.5s239.682,48.108,327.037,135.463,135.463,203.499,135.463,327.037-48.109,239.682-135.463,327.037ZM500,155c-190.538,0-345,154.462-345,345s154.462,345,345,345,345-154.462,345-345S690.538,155,500,155Zm0,32.5c76.863,0,149.476,27.582,206.579,78.031l-206.579,208.861-206.579-208.861c57.103-50.449,129.716-78.031,206.579-78.031ZM187.5,500c0-79.198,29.28-153.886,82.691-211.741l206.954,209.241-209.338,211.651c-51.904-57.485-80.306-131.133-80.306-209.151Zm312.5,312.5c-78.047,0-151.722-28.423-209.216-80.364l209.216-211.528,209.216,211.528c-57.494,51.941-131.169,80.364-209.216,80.364Zm232.194-103.349l-209.338-211.651,206.954-209.241c53.41,57.855,82.691,132.543,82.691,211.741,0,78.017-28.403,151.666-80.306,209.151Z"/></svg>