<?xml version="1.0" encoding="UTF-8"?><svg id="a" xmlns="http://www.w3.org/2000/svg" viewBox="0 0 1000 1000"><path d="m356.586,407.534c-16.141,0-29.974,4.71-41.502,14.127-11.24,9.417-19.311,23.83-24.21,43.236-5.188,19.121-10.377,42.523-15.563,70.206-1.153,5.707-1.729,11.7-1.729,17.978,0,26.256,13.835,39.384,41.502,39.384,16.139,0,29.829-4.71,41.069-14.127,11.528-9.417,19.742-23.83,24.64-43.235,6.631-26.827,11.675-50.229,15.133-70.206,1.153-5.993,1.731-12.129,1.731-18.408,0-25.97-13.692-38.956-41.071-38.956Z"/><path d="m719.067,416.524c-4.899-4.567-13.257-6.85-25.075-6.85h-51.877l-16.427,76.627h49.713c12.108,0,22.627-3.282,31.56-9.846,9.224-6.564,15.276-15.982,18.158-28.253.865-4.852,1.298-9.132,1.298-12.843,0-8.276-2.449-14.554-7.35-18.835Z"/><path d="m500,0C223.858,0,0,223.858,0,500s223.858,500,500,500,500-223.858,500-500S776.142,0,500,0Zm-23.662,463.613c-4.325,25.399-9.511,50.086-15.565,74.057-10.087,39.099-27.522,68.352-52.309,87.758-24.787,19.121-57.929,28.681-99.43,28.681-34.299,0-62.397-7.99-84.302-23.973-21.615-16.266-32.423-39.383-32.423-69.35,0-6.278.721-13.983,2.162-23.117,3.747-20.547,9.079-45.233,15.994-74.057,19.599-78.482,70.179-117.724,151.744-117.724,22.191,0,42.077,3.711,59.658,11.13,17.582,7.135,31.415,17.98,41.504,32.535,10.085,14.269,15.129,31.392,15.129,51.37,0,5.994-.719,13.556-2.16,22.689Zm328.76-14.555c-7.205,32.82-21.76,57.077-43.663,72.775-21.615,15.696-51.301,23.543-89.057,23.543h-58.363l-19.885,93.752c-.576,3.139-2.163,5.707-4.756,7.706-2.594,1.997-5.331,2.996-8.213,2.996h-58.794c-3.172,0-5.621-.999-7.35-2.996-1.441-2.284-1.874-4.852-1.298-7.706l59.659-278.255c.578-3.139,2.162-5.708,4.756-7.706,2.594-1.998,5.333-2.997,8.215-2.997h114.992c31.992,0,57.643,6.565,76.954,19.693,19.599,13.127,29.398,32.106,29.398,56.934,0,7.135-.865,14.555-2.594,22.261Z"/></svg>