<svg xmlns="http://www.w3.org/2000/svg" width="1000" height="1000">
  <path d="M500.496 5C223.572 5 5 229.506 5 500.002c0 276.43 224.506 495.001 495.002 495.001 276.43 0 495.001-224.506 495.001-495.001C995.003 226.539 773.464 5 500.496 5zM171.154 681.486V326.43c0-13.847 4.945-18.792 18.792-27.693 102.857-56.374 200.77-117.692 302.638-174.066 14.835-8.901 19.78-8.901 33.627 0 97.912 56.374 200.77 117.692 303.627 174.066 8.901 8.901 13.846 13.846 13.846 27.693v355.056c0 13.846-4.945 18.791-13.846 22.747-102.858 60.33-205.715 121.649-309.562 178.023-3.956 4.945-17.802 4.945-27.692 0-101.868-56.374-199.78-117.693-302.638-173.078-13.847-8.901-18.792-18.791-18.792-27.692zm32.638-23.737c46.484-23.736 89.011-46.483 130.55-74.176 0 0 5.934 0 5.934-5.934 22.747-36.593 40.55-74.176 64.286-115.714-64.286-37.583-130.55-74.176-200.77-116.704zm13.846 32.638c93.956 51.429 182.968 101.868 274.946 154.286V709.178c-3.956-8.901-8.901-13.846-12.857-18.791-42.528-22.747-79.121-47.473-121.649-70.22-3.956-4.945-13.846-4.945-17.802 0-37.583 19.78-80.11 42.527-122.638 70.22zm0-372.859c70.22 41.54 136.484 78.133 205.715 115.715 22.747-37.582 41.539-74.176 65.275-111.758 0 0 3.956-3.957 3.956-8.902v-149.34c-91.978 51.428-180.99 101.868-274.946 154.285zM380.825 597.42c37.583 17.802 70.22 42.527 107.803 60.33V532.144c-37.583 22.747-70.22 41.538-107.803 65.275zm14.836-52.418h4.945c22.747-12.857 45.494-27.693 74.176-41.539-13.846-8.9-28.682-17.802-42.528-23.736-13.846 23.736-22.747 42.527-36.593 65.275zm55.384-92.968c13.847 4.946 23.737 13.847 37.583 23.737v-92.968c-13.846 22.748-23.736 45.495-37.583 69.231zm69.231 392.64c94.946-52.419 182.968-102.858 276.924-154.287-41.538-27.693-80.11-50.44-121.648-70.22-4.945-4.945-14.836-4.945-17.803 0-42.527 22.747-80.11 47.473-122.637 70.22-4.945 4.945-8.901 9.89-8.901 13.846-5.935 46.484-5.935 93.956-5.935 140.44zm0-551.87c0 5.933 0 14.834 5.935 24.724 23.736 37.583 46.483 78.133 70.22 115.715 64.285-37.582 130.55-74.176 200.77-115.715-93.957-52.417-181.98-102.857-276.925-159.23zm5.935 364.945c36.593-17.802 70.22-42.527 112.747-60.33-42.527-23.736-76.154-42.527-112.747-65.274zm0-181.978c14.835-9.89 27.692-18.791 42.527-23.737-14.835-23.736-27.692-46.483-42.527-69.23zm14.835 27.692c27.692 13.846 49.45 28.682 78.132 46.484v-4.945c-8.901-22.748-22.747-41.539-36.594-65.275-13.846 5.934-28.681 14.835-41.538 23.736zm69.23-41.538c22.748 37.582 42.528 73.187 65.276 111.758 0 3.956 4.945 9.89 9.89 13.846 41.538 23.737 83.077 46.484 125.605 70.22V345.221c-65.275 42.528-135.495 79.121-200.77 116.704z" style="fill:#000;fill-opacity:1;fill-rule:nonzero;stroke:none;"/>
</svg>
