<svg xmlns="http://www.w3.org/2000/svg" width="1000" height="1000">
  <path d="M500.496 5C223.572 5 5 229.506 5 500.002c0 276.43 224.506 495.001 495.002 495.001 276.43 0 495.001-224.506 495.001-495.001C995.003 226.539 773.464 5 500.496 5zM151.374 280.935H285.88c2.967 20.77 8.901 28.681 30.66 28.681h354.067c23.736 0 29.67-7.912 35.604-28.681H828.85c6.923 0 9.89 0 6.923 7.912-1.978 3.956-2.967 5.934-6.923 12.857-27.692 40.55-51.429 82.088-76.154 128.572-2.967 9.89-13.846 13.846-22.748 13.846h-49.45c-5.934 0-12.857 0-15.824 5.934-10.88 12.858-21.759 34.616-31.649 50.44-3.956 4.945 2.967 4.945 2.967 4.945h73.187c-2.967 5.934-8.9 14.835-10.879 16.813-123.627 210.66-59.34 101.869-202.748 354.068-48.462-83.078-146.374-252.2-206.704-351.1-12.857-18.792-12.857-18.792-6.923-19.78h76.154c-11.868-20.77-17.802-35.605-27.692-49.451-7.912-10.88-9.89-11.869-21.759-11.869h-43.516c-13.846 0-23.737-3.956-31.649-17.802-11.868-23.736-26.703-51.429-44.505-76.154-10.88-23.736-23.737-45.495-37.583-69.231zm137.473 87.033c69.231 113.737 134.506 230.44 198.792 342.2h2.967c0-43.517 0-87.034-2.967-136.485 0-2.967-1.978-9.89-5.934-15.824-17.802-35.605-37.583-73.187-58.352-107.803-6.923-14.835-17.802-28.681-35.604-34.615-29.67-17.802-65.275-34.616-95.935-50.44 0 2.967 0 2.967-2.967 2.967zm5.934-11.868c37.583 21.758 73.187 41.539 107.803 59.34 6.923 2.968 17.802 2.968 22.747 2.968h138.462c5.934 0 16.813 0 25.714-2.967 32.638-20.77 67.253-37.583 102.858-54.396V356.1zm204.726 359.012C566.76 598.41 633.024 481.705 698.3 367.968c-33.626 12.857-65.275 29.67-96.923 47.473-16.814 5.934-26.704 19.78-34.616 34.615-18.791 37.583-41.538 70.22-56.374 102.858-8.9 10.88-10.879 20.77-10.879 31.648V697.31z" style="fill:#000;fill-opacity:1;fill-rule:nonzero;stroke:none;"/>
</svg>
