<svg xmlns="http://www.w3.org/2000/svg" width="1000" height="1000">
  <path d="M500.496 995.003c275.935 0 494.507-224.506 494.507-495.496C995.003 226.54 773.464 5 500.496 5 223.572 5 5 229.506 5 499.507c0 276.924 224.506 495.496 495.496 495.496zM222.583 551.925c0-17.802 13.846-31.649 30.66-31.649h515.276c16.813 0 30.66 13.847 30.66 31.649 0 16.813-13.847 30.66-30.66 30.66H620.167l-88.022 231.429c-4.945 12.857-17.803 20.769-31.649 19.78-11.868.989-24.725-6.923-29.67-19.78l-88.023-231.43h-129.56c-16.814 0-30.66-13.846-30.66-30.66zm0-120.66c0-16.813 13.846-31.648 30.66-31.648h60.33l-64.286-169.122c-5.935-15.824 1.978-34.615 17.802-40.55 16.813-5.933 34.615 2.968 40.55 17.803l73.186 191.869h241.32l72.198-191.87c5.934-14.834 23.736-23.735 40.55-17.801 15.824 5.934 23.736 24.725 17.802 40.55l-64.286 169.12h80.11c16.813 0 30.66 14.836 30.66 31.65 0 16.812-13.847 30.659-30.66 30.659H253.243c-16.814 0-30.66-13.847-30.66-30.66zm227.473 151.32 50.44 136.483 52.418-136.484z" style="fill:#000;fill-opacity:1;fill-rule:nonzero;stroke:none;"/>
</svg>
