<?xml version="1.0" encoding="UTF-8"?><svg id="a" xmlns="http://www.w3.org/2000/svg" viewBox="0 0 1000 1000"><path d="m988.737,896.442c-.996-2.349-1.977-4.705-2.959-7.062-6.635-15.923-13.495-32.388-24.772-46.588-1.3-1.637-2.232-3.803-3.219-6.097-.814-1.894-1.657-3.851-2.791-5.728-.911-1.506-1.817-3.014-2.725-4.525-4.734-7.879-9.629-16.028-15.122-23.649-3.511-4.872-7.432-9.476-11.224-13.928-3.149-3.698-6.406-7.522-9.345-11.413-15.422-20.417-35.686-37.014-65.705-53.812-2.096-1.172-4.249-2.252-6.332-3.295-6.766-3.389-13.157-6.591-17.432-12.742-4.311-6.204-4.57-6.576.504-12.086,11.326-12.301,21.693-24.722,24.113-41.401,1.198-8.261.147-16.874-1.136-25.705-.595-4.102-.682-6.118.989-8.219,2.754-3.462,5.496-7.011,8.148-10.443,2.41-3.121,4.821-6.242,7.267-9.334,10.841-13.705,11.278-28.865,1.232-42.687-1.972-2.714-1.451-3.597-.36-4.926,5.819-7.091,11.6-14.021,17.181-20.596.856-1.009,1.817-1.978,2.834-3.004,1.545-1.557,3.142-3.169,4.521-5.077,15.291-21.178,14.065-38.968-4.1-59.486-4.448-5.025-9.402-11.279-12.408-19.563-4.998-13.768-14.568-23.965-25.64-34.93-2.606-2.581-3.104-3.501-3.17-3.82.07-.178.564-1.033,3.058-3.387,22.102-20.856,30.899-47.019,26.15-77.763-.708-4.581-.614-9.537-.524-14.328l.034-1.886c.05-3.065.224-6.217.393-9.265.23-4.153.468-8.447.409-12.732l-.005-.31q-.053-3.626,2.077-4.162c3.007-.757,5.401-3.093,6.568-6.409,1.467-4.168.72-8.951-1.949-12.483-4.939-6.534-10.642-12.258-16.494-16.551-5.593-4.104-11.611-7.664-17.432-11.106-3.082-1.823-6.268-3.708-9.319-5.633-.963-.608-1.894-1.605-2.315-2.483-14.756-30.712-40.3-49.336-65.707-64.888-2.186-1.338-2.987-2.475-3.728-5.293-1.505-5.723-3.744-13.118-7.738-19.548-10.512-16.925-21.537-33.901-32.199-50.318-3.052-4.699-6.103-9.397-9.148-14.101-9.651-14.913-24.411-22.839-38.683-30.504-1.375-.739-2.752-1.478-4.124-2.223-16.878-9.168-33.238-13.085-50.029-11.987-5.978.393-12.181.26-18.177.131-6.963-.149-14.16-.304-21.276.337-15.6,1.404-27.748,10.702-37.573,19.612-7.877,7.142-17.033,13.322-25.889,19.297l-.723.488c-.832-.081-2.343-.633-2.786-1.054-21.368-25.816-47.163-39.9-78.816-43.007-24.572-2.411-56.964-4.516-89.61.662-8.178,1.298-15.807,5.069-23.186,8.717-1.091.54-2.178,1.077-3.261,1.603-13.039,6.333-27.809,14.224-38.071,27.756-1.4,1.847-2.826,3.689-4.254,5.534-6.584,8.503-13.393,17.297-18.084,27.12-6.881,14.409-16.778,26.026-27.256,38.325-2.539,2.98-5.164,6.062-7.71,9.151-4.257,5.165-8.644,10.388-12.887,15.439-19.762,23.526-40.196,47.854-55.371,75.585-14.063,25.699-27.837,52.093-41.157,77.619-4.526,8.671-9.051,17.343-13.595,26.004-2.629,5.012-5.293,10.008-7.956,15.005-7.747,14.534-15.758,29.562-22.794,44.792-9.298,20.128-18.942,41.677-25.711,64.369-.959,3.214-1.932,6.423-2.906,9.631-5.331,17.57-10.844,35.739-13.669,54.399-1.756,11.602-3.292,23.415-4.777,34.84-1.206,9.28-2.453,18.874-3.809,28.28-.914,6.339-2.043,12.786-3.134,19.02-1.17,6.681-2.379,13.59-3.341,20.448-.722,5.146-1.09,10.361-1.447,15.405-.267,3.768-.542,7.663-.962,11.438-1.379,12.404-2.852,25.012-4.278,37.206-1.184,10.125-2.367,20.251-3.512,30.383-.433,3.83-.691,7.572-.989,11.903-.143,2.077-.294,4.265-.476,6.615-.015.19-.015.382,0,.572,2.13,28.495,7.198,51.222,15.95,71.521.965,2.24,1.901,4.565,2.806,6.815,1.719,4.273,3.496,8.693,5.635,12.934,8.795,17.427,21.112,32.405,36.609,44.515,8.43,6.587,18.097,11.598,27.446,16.443,2.871,1.489,5.839,3.028,8.701,4.577,8.746,4.735,17.337,9.271,26.285,12.732,10.998,4.255,22.321,8.112,33.27,11.843,4.283,1.458,8.565,2.917,12.837,4.402.809.281,1.565.392,2.172.48.276.041.654.096.778.14,15.776,6.028,32.387,8.493,48.452,10.876,3.859.572,7.716,1.145,11.561,1.765,13.25,2.137,27.408,3.532,43.283,4.268,25.481,1.179,55.533,2.403,85.233,2.537,8.455.063,16.93-1.091,25.122-2.187,4.303-.574,8.752-1.168,13.095-1.575l4.63-.442c8.628-.828,17.551-1.685,26.265-1.842,10.798-.198,21.8-.15,32.441-.107,8.89.038,18.084.075,27.139-.027,4.808-.055,9.623-.052,14.444-.053,15.115-.006,30.728.004,45.996-1.746,10.507-1.204,20.742-4.579,30.64-7.842,3.948-1.302,8.031-2.648,12.029-3.819,2.235-.654,4.357-1.503,6.408-2.326,1.66-.664,3.227-1.292,4.815-1.808,10.842-3.524,19.227-10.645,27.19-23.093.436-.681,1.389-1.392,2.412-2.09.658.808,1.229,1.584,1.371,2.161,2.874,11.713,11.572,17.227,19.983,22.56l1.028.652c12.045,7.662,24.199,15.622,35.953,23.321,4.639,3.039,9.278,6.076,13.923,9.105,13.461,8.779,29.526,13.728,49.11,15.135,6.456.464,12.91.982,19.365,1.5,14.541,1.167,29.579,2.374,44.433,2.911,2.625.095,5.253.203,7.88.309,7.651.314,15.386.63,23.152.63,16.646,0,33.434-1.453,49.861-7.51,5.747-2.118,11.746-4.003,17.548-5.825,8.319-2.614,16.922-5.317,25.134-8.806,10.236-4.347,20.553-10.463,29.837-17.684,12.615-9.811,18.617-20.177,9.578-41.503Zm-109.555-411.051c.695-1.784,1.401-3.598,2.117-5.407,9.014,11.831,8.371,23.6-1.86,36.652-1.063,1.356-2.293,2.637-3.593,3.994-.879.916-1.757,1.832-2.597,2.78-1.834,2.072-3.644,4.163-5.456,6.254-3.312,3.825-6.738,7.781-10.226,11.509-6.1,6.519-12.237,12.732-18.239,18.465-1.631,1.559-3.443,2.975-5.361,4.475-2.609,2.04-5.306,4.148-7.648,6.73-6.552,7.219-14.913,10.749-27.112,11.443-30.403,1.732-61.84,3.517-93.495,1.406-8.335-.556-16.781-.423-24.949-.299-8.872.136-18.045.281-26.895-.48-22.289-1.908-45.976-4.197-68.984-9.28-25.264-5.579-51.053-8.698-78.838-9.537-16.886-.508-35.562-3.484-57.097-9.095-11.862-3.092-23.71-7.385-35.168-11.538-8.995-3.26-18.297-6.63-27.644-9.442-12.713-3.824-25.858-7.779-36.191-16.919-1.859-1.643-4.078-3.607-6.902-4.23-2.283-.502-4.556-.352-6.559-.215-.741.049-1.481.102-2.214.113-1.146.02-2.22.558-2.92,1.465s-.951,2.083-.68,3.196c.136.556.225,1.284.321,2.053.28,2.264.63,5.083,2.701,6.981,9.081,8.319,19.055,16.766,32.303,20.675,3.37.995,6.752,1.954,10.135,2.912,7.899,2.239,16.068,4.552,23.871,7.307,4.008,1.414,8.007,2.861,12.005,4.305,21.558,7.796,43.851,15.855,67.412,18.774,9.692,1.2,20.4,1.948,32.735,2.285,16.982.464,36.229.989,54.583,5.465,15.742,3.838,29.961,7.177,44.574,9.156,32.244,4.365,66.611,6.089,105.062,5.255,5.376-.11,10.917.183,16.278.47,5.525.298,11.239.612,16.92.477,8.044-.178,16.176-.7,24.039-1.204,6.704-.431,13.636-.876,20.431-1.101,21.193-.698,36.493-7.088,48.149-20.108,3.174-3.547,7.254-6.451,11.573-9.526,1-.712,2.017-1.436,3.036-2.177,4.046,7.088,3.453,15.719-1.813,22.415-1.701,2.161-3.438,4.297-5.174,6.432-2.833,3.484-5.763,7.086-8.51,10.779-15.89,21.358-36.007,30.849-61.481,29.003-10.944-.792-21.058-1.183-30.637-1.183-3.541,0-7.007.054-10.417.161-11.679.365-23.524,1.015-34.979,1.645-15.616.858-31.765,1.745-47.613,1.911-18.099.194-36.567-.623-54.426-1.41-6.956-.306-14.147-.622-21.227-.876-1.891-.068-3.86-.447-5.946-.848-.728-.14-1.454-.28-2.181-.407-5.908-1.037-11.811-2.101-17.714-3.164-12.357-2.225-25.134-4.526-37.758-6.549-16.392-2.626-32.294-5.638-46.645-13.534-6.876-3.785-14.049-7.183-20.985-10.47-4.427-2.097-9.006-4.267-13.429-6.501-16.208-8.186-32.632-16.633-48.516-24.803l-8.309-4.273c-1.341-.69-2.658-1.473-4.052-2.302-2.491-1.481-5.066-3.014-7.95-4.083-21.917-8.132-40.294-21.678-55.379-33.856-2.404-1.942-4.669-5.565-6.058-9.691-1.751-5.202-.891-10.702,2.245-14.353,2.361-2.748,5.571-3.927,9.043-3.319,9.073,1.589,18.374,3.761,27.644,6.459,7.642,2.223,15.383,4.68,22.87,7.057,12.14,3.855,24.694,7.84,37.298,10.978,19.996,4.979,40.573,8.82,60.473,12.534l7.259,1.357c29.052,5.449,59.094,11.084,89.566,15.884,21.511,3.389,43.032,5.409,59.379,6.789,17.523,1.481,35.355,2.505,52.599,3.495,5.844.335,11.688.671,17.53,1.024,4.083.247,8.166.522,12.25.797,11.814.794,24.031,1.615,36.108,1.726,12.909.124,26.746-.61,41.098-2.166,18.561-2.012,39.599-4.293,57.378-18.056,11.425-8.846,20.791-20.488,29.476-36.641,4.523-8.414,8.004-17.353,11.37-25.998ZM533.741,78.749c9.258-6.573,19.051-13.74,27.937-21.605,10.893-9.64,23.124-14.292,37.511-14.208,3.891.021,7.896.239,11.77.45,5.405.294,10.993.596,16.562.398,1.171-.042,2.334-.063,3.482-.063,14.78,0,27.653,3.506,39.263,10.68,2.189,1.352,4.487,2.401,6.709,3.416,2.706,1.235,5.262,2.402,7.347,3.981,1.53,1.16,3.098,2.306,4.672,3.457,6.291,4.601,12.796,9.359,16.991,15.213,11.233,15.679,21.773,32.318,31.966,48.41,3.028,4.781,6.056,9.561,9.106,14.325.712,1.113,1.351,2.324,1.963,3.601-1.045-.364-2.084-.727-3.117-1.087-7.979-2.783-15.515-5.412-23.227-7.811-35.089-10.916-71.578-12.104-108.455-3.529-4.828,1.122-9.579,2.617-14.174,4.062-4.429,1.394-9.009,2.834-13.525,3.889-3.941.922-7.752.852-9.483-.169-6.297-3.722-12.481-8.011-18.461-12.159-3.942-2.734-8.018-5.561-12.13-8.231-2.223-1.443-3.151-2.855-3.971-6.044-2.258-8.774-5.431-20.266-9.973-31.335-1.514-3.69-1.306-3.838,1.237-5.643Zm100.909,782.367c-.052.603-.173,1.28-.301,1.998-.315,1.772-.673,3.78-.248,5.908,1.996,10.005-1.883,17.546-8.32,25.79-6.028,7.721-11.775,13.395-20.226,15.996-1.438.442-2.811.966-4.139,1.473-1.395.533-2.714,1.036-4.03,1.42-4.227,1.232-8.471,2.655-12.576,4.03-9.662,3.24-18.789,6.298-28.197,7.293-16.822,1.776-34.2,1.9-51.005,2.019-5.209.037-10.417.074-15.617.157-8.952.142-18.075.107-26.899.07-4-.016-8.064-.033-12.148-.033-4.758,0-9.543.023-14.291.095-9.961.151-20.02.911-29.748,1.645l-.46.036c-6.619.5-13.331,1.106-19.821,1.692-12.256,1.107-24.93,2.252-37.37,2.71-9.114.339-18.521-.351-27.621-1.016-3.708-.27-7.543-.551-11.328-.76-3.881-.215-7.762-.42-11.643-.625-12.147-.641-24.708-1.303-37.013-2.269-26.354-2.068-54.205-7.296-85.143-15.983-27.171-7.628-52.207-19.396-81.439-34.717-23.59-12.364-40.986-30.391-51.708-53.583-6.673-14.433-11.465-27.665-14.648-40.451-4.354-17.489-8.365-38.349-5.094-60.468,2.245-15.186,3.878-30.681,5.458-45.666.721-6.842,1.467-13.917,2.26-20.859.533-4.665,1.045-9.331,1.557-13.998,1.283-11.697,2.61-23.792,4.257-35.612,2.575-18.478,5.603-37.228,8.531-55.362l.924-5.723c.538-3.336,1.057-6.676,1.575-10.018,1.778-11.457,3.617-23.304,6.246-34.693,1.32-5.72,3.345-11.489,5.303-17.067,2.058-5.864,4.186-11.927,5.601-18.156,4.599-20.247,13.561-39.277,22.229-57.681.952-2.022,1.904-4.043,2.85-6.065,11.668-24.938,24.685-49.801,37.273-73.846l3.369-6.436c10.76-20.569,23.605-44.806,37.287-68.617,10.431-18.153,21.671-37.343,34.296-54.883,7.91-10.988,17.111-21.441,26.009-31.55,4.049-4.6,8.237-9.357,12.267-14.123,2.18-2.578,4.387-5.126,6.591-7.671,10.096-11.659,20.534-23.716,28.057-38.356,10.156-19.765,23.823-41.71,48.189-54.617,13.926-7.377,30.78-14.942,50.338-14.767l4.607.03c18.973.123,38.59.25,57.766,1.445,40.033,2.496,68.309,22.596,84.04,59.741,2.085,4.923,3.519,10.385,4.808,15.558.044.173.075.325.098.458-.128-.012-.273-.03-.438-.056-2.25-.358-4.484-.509-6.644-.656-1.842-.125-3.581-.243-5.289-.478-27.885-3.851-60.956-7.094-94.802-1.951-16.972,2.578-36.208,5.501-52.344,17.62-12.054,9.053-23.63,18.548-34.343,27.46-2.056,1.71-2.506,4.315-2.867,6.408-.118.682-.229,1.326-.369,1.803-.308,1.044-.15,2.17.434,3.088s1.537,1.54,2.612,1.705c.549.083,1.258.279,2.01.487,2.328.642,5.229,1.443,7.729-.089,5.406-3.312,10.367-7.313,15.166-11.181l.79-.637c1.964-1.582,3.903-3.2,5.841-4.817,9.241-7.711,17.969-14.994,29.254-18.473,21.35-6.581,41.943-9.6,61.214-8.989,18.681.598,37.696,2.499,56.086,4.336,5.789.579,11.577,1.157,17.365,1.698,2.49.233,5.436,1.262,8.518,2.975,15.135,8.409,27.06,16.83,37.531,26.5,23.176,21.405,38.011,49.301,50.087,73.816-11.526-12.192-24.657-17.893-40.1-17.438-5.097.153-10.32.107-15.371.064-2.958-.026-5.911-.048-8.874-.039l-12.465.044c-15.007.05-30.526.101-45.794.249l-13.103.123c-23.051.212-46.887.43-70.336,1.006-8.84.217-19.229.77-29.261,3.217-13.347,3.256-27.148,6.623-37.821,17.478-3.036,3.088-6.077,6.171-9.117,9.254-5.328,5.403-10.657,10.805-15.96,16.232-3.481,3.563-6.236,6.535-8.673,9.354-7.072,8.181-9.156,23.489-4.288,31.499,6.264,10.309,15.659,8.417,23.207,6.897l1.458-.291c.825-.162,2.274.109,3.687.689,5.766,2.369,11.613,4.843,17.268,7.236,9.85,4.168,20.036,8.478,30.204,12.41,8.283,3.203,16.989,7.142,24.538,14.216,7.289,6.83,13.976,12.761,22.002,16.177,15.744,6.703,32.239,11.83,48.191,16.789,12.403,3.856,27.094,8.209,42.012,11.266,28.406,5.822,61.762,9.655,93.802-6.058,1.4-.686,3.072-1.3,5.261-1.934,4.51-1.305,9.85-2.818,15.252-4.145.1.007.499.069.769.212,1.333.703,2.185,1.871,2.334,3.204.153,1.361-.445,2.698-1.686,3.764-20.513,17.628-34.665,19.173-44.707,18.555l-9.99-.614c-17.381-1.062-35.354-2.16-52.974-3.65l-7.755-.65c-20.146-1.681-40.977-3.42-61.195-6.485-9.951-1.508-20.68-5.244-31.028-10.802-5.757-3.093-10.777-7.656-16.091-12.488-2.269-2.062-4.614-4.195-7.017-6.197-2.047-1.706-4.073-3.441-6.099-5.177-4.912-4.207-9.99-8.557-15.358-12.451-2.577-1.87-5.748-.953-8.545-.142-.846.244-1.719.498-2.367.604-1.17.193-2.18.925-2.728,1.977-.548,1.051-.57,2.298-.059,3.368.284.595.549,1.273.83,1.991.75,1.917,1.6,4.09,3.279,5.848,1.784,1.869,3.789,3.355,5.727,4.791,1.317.977,2.562,1.899,3.68,2.896,3.138,2.798,6.268,5.77,9.296,8.645,6.146,5.835,12.5,11.867,19.481,17.01,13.391,9.866,29.594,15.756,49.534,18.005,4.299.485,8.597.978,12.896,1.47,33.002,3.781,67.127,7.691,101.095,8.048,4.466.047,9.061.6,13.927,1.186.078.01.156.019.235.028-3.244,3.591-6.233,6.9-9.253,10.182-12.568,13.657-24.37,22.276-37.141,27.125-4.604,1.748-10.061,3.72-15.638,5.1-7.693,1.903-14.957,5.064-21.981,8.122-10.759,4.683-20.922,9.106-32.428,9.329-2.99.059-4.705,2.611-6.084,4.662-.396.589-.806,1.198-1.128,1.573-.66.768-.984,1.77-.898,2.779.087,1.009.576,1.942,1.357,2.587.333.274.774.736,1.201,1.183,1.526,1.597,3.435,3.598,6.205,3.43l1.663-.09c6.105-.328,12.418-.666,18.378-2.627,7.054-2.321,14.064-5.023,20.844-7.636,7.207-2.777,14.659-5.65,22.076-8.024,14.205-4.548,28.992-10.35,40.893-21.906,4.802-4.664,9.539-9.519,14.119-14.215,5.433-5.571,11.052-11.331,16.763-16.748,4.415-4.188,9.642-7.875,14.696-11.44l2.565-1.815c2.798-1.989,5.767-3.911,8.639-5.77,3.679-2.381,7.484-4.843,11.096-7.548,6.265-4.692,9.463-11.664,8.774-19.126-.721-7.815-5.522-14.638-12.842-18.253-1.765-.871-2.272-1.378-2.396-1.53l-1.386-3.382c-3.481-8.484-7.081-17.256-9.91-26.039-7.501-23.286-22.902-39.854-47.081-50.651-12.903-5.761-26.495-12.243-38.472-20.583-23.274-16.206-47.129-23.387-72.946-21.948-27.912,1.554-57.563,3.839-86.236,13.009-21.861,6.991-37.01,17.649-47.674,33.54-.399.595-.794,1.202-1.192,1.812-1.815,2.787-3.53,5.42-5.666,6.983-1.167.854-3.213,1.219-5.387,1.599-.435-1.591-.795-3.068-.623-4.132.441-2.742,1.781-5.66,3.413-7.437,9.023-9.821,18.787-20.248,29.046-29.962,4.493-4.255,9.761-7.729,14.832-9.781,17.99-7.277,34.611-10.06,50.819-8.487,8.313.802,16.74.348,24.886-.09,4.302-.232,8.749-.471,13.07-.515,4.783-.049,9.626-.274,14.31-.491,16.946-.785,32.952-1.528,48.482,5.156,2.756,1.187,5.582,2.144,8.314,3.07,2.066.7,4.016,1.36,5.948,2.115,1.367.534,2.736,1.06,4.106,1.586,11.664,4.48,22.681,8.711,31.506,17.154l7.653,7.329c14.846,14.221,30.197,28.927,45.584,43.105,10.416,9.599,16.368,21.132,18.198,35.258.053.409.092.836.133,1.27.231,2.461.547,5.833,3.194,7.918,1.639,1.29,3.756,1.759,6.301,1.394,3.083-.444,4.769-1.967,5.64-3.166,2.224-3.063,1.543-6.998,1.092-9.602l-.048-.282c-.843-4.908-2.111-9.743-3.337-14.419-.152-.579-.303-1.157-.453-1.735.658.15,1.355.12,2.009-.096,1.053-.347,1.9-1.139,2.316-2.166.287-.709.659-1.46,1.053-2.255,1.015-2.048,2.165-4.369,2.334-7.021.39-6.141.292-12.452-.291-18.758-1.09-11.805-3.394-24.085-12.783-33.934l-1.223-1.28c-3.792-3.969-7.713-8.072-11.033-12.393-.757-.985-1.02-3.362-1.233-5.272l-.058-.517c-.206-1.811-.191-3.784-.177-5.873.033-4.442.066-9.034-2.025-13.043-8.895-17.056-18.925-34.516-30.664-53.377-3.377-5.427-7.713-10.196-11.907-14.807-.682-.751-1.374-1.511-2.064-2.278,48.851-18.838,99.74-17.346,147.503,4.392,46.5,21.165,66.179,42.988,77.274,60.627-20.809-2.915-41.552-1.167-61.078.898-14.138,1.495-25.049,4.694-34.338,10.064l-.166.096c-2.951,1.705-9.863,5.696-5.835,13.125,3.591,6.629,9.831,3.797,12.495,2.588.359-.163.716-.325,1.067-.473,1.505-.635,3.002-1.325,4.501-2.018,3.798-1.754,7.385-3.411,11.02-4.095,24.541-4.612,49.377-5.569,73.821-2.85,8.94.995,16.074,3.188,22.137,6.837-4.496-.993-9.119-1.378-13.633-1.753-1.848-.153-3.693-.307-5.516-.502-23.491-2.519-47.781-5.123-72.313-.799-24.424,4.306-46.101,17.234-64.428,38.426-1.837,2.125-1.548,4.921-1.314,7.169.069.67.141,1.364.133,1.848-.018,1.034.388,2.03,1.125,2.755.737.726,1.747,1.114,2.773,1.081.614-.021,1.23-.027,1.847-.033,1.743-.018,3.546-.036,5.42-.347,2.058-.341,3.262-1.897,3.982-2.828.131-.169.256-.339.388-.482,20.662-22.467,45.937-33.38,75.105-32.441,11.09.358,22.39,1.163,33.316,1.942,7.091.506,14.424,1.028,21.656,1.426,8.636.474,16.825,3.552,26.552,9.978l.135.089c.495.327,1.475.973,1.857,1.368,1.554,6.635,2.836,13.817,2.51,22.019-1.143-1.634-2.168-3.181-3.057-4.747-9.121-16.057-21.252-24.342-37.087-25.327l-1.864-.117c-15.45-.965-31.425-1.962-47.188-1.581-11.123.268-21.946,1.059-32.071,7.702l-2.594,1.698c-15.329,10.023-31.179,20.387-41.121,37.654-.741,1.288-2.093,2.513-3.525,3.811-1.319,1.197-2.683,2.433-3.873,3.956-1.941,2.483-4.061,4.988-6.112,7.41-5.451,6.439-11.088,13.098-14.723,20.826-4.82,10.249-5.707,17.852-2.795,23.927,2.834,5.909,8.992,9.829,19.377,12.337,14.573,3.518,29.801,5.374,47.924,5.841,6.154.158,12.427.46,18.493.752,19.081.918,38.813,1.868,58.535-1.412,20.919-3.479,37.273-12.85,49.997-28.648.1-.124.201-.247.302-.371-1.078,5.028-3.257,9.224-5.457,12.853-12.717,20.975-23.028,30.494-47.253,27.846-.379-.041-.765-.089-1.154-.137-2.466-.308-5.261-.654-7.949.295-2.328.823-3.882,2.682-5.131,4.176-.43.514-.837,1.001-1.214,1.377-.732.731-1.132,1.73-1.105,2.763.026,1.034.476,2.012,1.243,2.704.349.315.742.746,1.158,1.203,1.263,1.387,2.836,3.113,5.174,3.717,2.79.72,5.554.689,8.225.652.683-.009,1.365-.018,2.04-.011,4.118.035,8.238.031,12.527.025-4.301,4.442-10.215,5.342-17.569,5.969-1.662.142-3.379.125-5.2.106-2.438-.026-4.954-.05-7.524.315-3.25.464-6.723,3.9-7.147,7.07-.382,2.863,1.801,5.7,2.242,6.239,1.268,1.55,2.679,2.388,4.191,2.488.968.065,1.938.134,2.908.204,12.499.899,25.421,1.825,36.928-7.432,3.19-2.566,6.369-5.144,9.785-7.913l2.317-1.878.031.034c2.338,2.497,5.267,5.625,8.177,8.772,13.226,14.303,17.182,30.393,11.759,47.824-6.556,21.076-17.484,38.506-32.479,51.807-5.889,5.223-13.898,9.457-21.975,11.616-28.744,7.686-58.604,7.479-86.729,6.606-13.937-.432-28.136-1.64-41.868-2.808-14.122-1.202-28.725-2.445-43.164-2.86-33.723-.968-67.559-6.167-100.281-11.194-4.363-.67-8.725-1.34-13.089-2-12.806-1.94-25.745-4.939-38.259-7.837-7.28-1.688-14.808-3.431-22.269-4.961-5.967-1.222-12.051-2.252-17.934-3.247-9.273-1.57-18.862-3.192-28.001-5.585-12.673-3.319-25.451-7.259-37.81-11.07-9.216-2.842-18.745-5.781-28.201-8.453-11.035-3.119-22.287-5.271-32.803-7.132-8.846-1.567-15.882.347-20.911,5.683-6.57,6.971-10.036,16.746-9.508,26.82.512,9.788,4.814,18.851,11.803,24.865,8.194,7.051,18.011,15.099,28.695,21.333,14.331,8.36,29.223,16.228,43.624,23.839,5.666,2.995,11.333,5.989,16.979,9.018,1.116.599,2.223,1.063,3.294,1.511.674.282,1.35.563,2.008.879,4.69,2.251,9.388,4.488,14.086,6.726,11.127,5.299,22.631,10.779,33.834,16.358,27.446,13.668,50.633,24.254,78.215,25.894l1.741.102c10.85.639,22.07,1.3,31.871,4.697,14.492,5.023,29.048,5.05,43.125,5.079,3.159.006,6.322.011,9.488.072,1.869.037,3.86.126,6.086.276,27.829,1.879,59.372,4.007,90.798,1.35,28.121-2.38,51.55-4.008,75.66-1.599,21.512,2.153,40.758-3.552,58.834-17.425.139-.107.284-.211.434-.317.101.595.177,1.152.222,1.7,1.035,12.912-2.997,24.705-12.327,36.053-1.057,1.286-2.13,2.754-3.168,4.173-1.811,2.478-5.58,7.634-7.221,7.698-2.964.095-8.08-5.044-11.471-8.461-.492-.495-.973-.979-1.44-1.445-13.092-13.007-29.342-15.385-48.295-7.067-13.618,5.977-26.219,13.24-37.454,21.587-8.006,5.947-15.493,12.712-22.734,19.254-5.593,5.052-11.376,10.276-17.297,15.024-6.068,4.867-12.88,9.195-19.467,13.38-2.265,1.438-4.588,2.914-6.89,4.417-.298-.242-.601-.49-.909-.743-2.518-2.061-5.371-4.397-8.741-5.941-15.972-7.324-32.625-3.425-46.885,10.972-7.547,7.62-9.996,17.377-6.897,27.474,2.767,9.011,7.121,16.87,12.261,22.133,10.534,10.784,20.004,22.519,28.949,35.876,5.433,8.11,7.439,16.506,6.505,27.221Zm3.416-586.002c6.227,5.886,9.615,11.78,10.355,18.02.772,6.502.967,13.254,1.116,19.833-2.907-3.465-5.933-6.95-9.235-10.156-5.472-5.313-11.185-10.528-16.709-15.571-8.555-7.81-17.402-15.886-25.41-24.386-11.779-12.505-24.228-21.459-37.819-27.169,3.389-.012,6.726-.022,10.027-.022,6.497,0,12.853.037,19.187.166,6.182.126,11.862,2.851,17.364,8.332,3.308,3.296,6.592,6.619,9.876,9.941,6.88,6.96,13.994,14.157,21.247,21.012Zm-83.979,49.262c-.523-5.015-2.87-9.537-5.14-13.911-.825-1.59-1.607-3.094-2.289-4.596,2.073-.125,4.178-.26,6.282-.395,8.574-.55,17.44-1.12,26.116-1.216l.126-.002c6.943-.079,12.94-.145,18.456,4.537,12.493,10.604,17.464,24.888,22.727,40.011,1.924,5.53,3.914,11.246,6.294,16.738.252.581.295.939.297,1.106-.205.102-.755.301-1.965.288-.085-.001-.171-.002-.256-.002-3.606,0-6.989,1.116-10.711,2.464-2.617.948-5.179,2.043-7.656,3.103-3.863,1.651-7.511,3.211-11.289,4.23-14.158,3.819-29.482,4.45-46.846,1.927-1.755-.255-3.512-.504-5.293-.755,9.754-14.337,13.401-31.887,11.146-53.526Zm.029-35.472c-11.018.706-21.423,1.373-31.895,1.04-15.06-.479-30.49-.882-46.131-.882-26.197,0-52.993,1.131-79.692,4.935l-1.695.241c-10.512,1.491-21.382,3.033-31.417,6.875-4.81,1.842-7.867,1.283-12.072-.961,8.546-14.38,19.076-23.049,34.632-28.667,28.414-10.263,59.388-14.713,100.467-14.403,14.256.105,28.039,4.548,43.38,13.984,7.921,4.872,16.065,9.638,23.941,14.247,1.86,1.088,3.721,2.177,5.579,3.268-1.715.106-3.415.215-5.096.323Zm-28.213,45.854c-.091,8.676-5.864,13.881-15.444,13.92-6.556.025-11.321-3.894-11.473-9.326-.072-2.552,1.268-5.447,3.676-7.942,3.262-3.381,7.942-5.501,12.216-5.534.04,0,.08,0,.12,0,3.438,0,6.552,1.149,8.559,3.16,1.557,1.562,2.368,3.54,2.345,5.722Zm-60.106,6.022c.087-.004.187-.007.293-.007.513,0,1.198.072,1.542.414.453.449.689,1.538.632,2.915-.151,3.645-1.499,3.936-3.387,3.949-2.391.042-3.52-.496-3.765-3.517.265-1.611,1.121-3.573,4.684-3.754Zm-5.628-18.801h-.014c-1.33,0-2.564-.488-3.386-1.342-.448-.465-.973-1.248-.93-2.337.037-.952.945-2.633,2.398-3.797.87-.697,1.553-.897,1.816-.897.024,0,.044.002.061.005,4.964.908,5.004,3.057,5.029,4.34.022,1.162-.551,1.997-1.036,2.493-.951.971-2.386,1.531-3.938,1.535Zm-28.547-14.998l-13.73,22.957c-7.554-5.946-16.685-8.995-25.557-11.959-4.301-1.437-8.695-2.905-12.888-4.706l52.175-6.292Zm372.98,6.376c3.908,1.467,7.896,2.999,11.63,4.77,4.558,2.16,9.124,4.607,13.54,6.973,3.517,1.884,7.153,3.833,10.809,5.653,2.815,1.4,5.713,2.598,8.516,3.755,2.143.885,4.361,1.801,6.458,2.778,1.4.652,1.79,1.209,1.812,1.312.028.133-.114.909-1.318,2.285-4.631,5.29-8.462,9.553-12.055,13.415-10.3,11.074-22.64,17.084-38.416,18.606,11.904-19.185,11.583-38.782-.976-59.547Zm47.991,4.165c-10.115-5.274-20.574-10.728-31.036-15.795-4.805-2.326-12.053-5.522-19.49-6.402-10.278-1.214-20.744-1.796-30.865-2.357-3.73-.207-7.459-.414-11.184-.652-5.577-.356-11.157-.67-16.736-.983.024-.015.047-.029.071-.044,5.277-3.236,10.261-6.292,15.436-7.294,10.4-2.013,20.904-3.02,31.427-3.02,10.039,0,20.096.916,30.11,2.749,10.803,1.977,16.975,5.823,21.303,13.276,3.243,5.584,7.31,10.643,11.242,15.536,2.185,2.718,4.443,5.529,6.489,8.349.056.078.112.16.165.245-2.312-1.2-4.621-2.405-6.931-3.609Zm-64.242,24.86c-.001,7.736-3.175,9.31-8.296,9.341-.045,0-.091,0-.136,0-6.225,0-9.019-2.672-9.057-8.651-.021-3.352,1.04-6.421,2.839-8.21.997-.991,2.071-1.465,3.296-1.473,10.234.125,11.354,2.974,11.353,8.992Zm-53.825,11.101c1.824-.013,2.732-.02,3.138,2.744-.049.048-.099.097-.148.146-.915.903-2.297,2.267-3.203,2.463-.971.211-1.294-.047-1.398-.133-.456-.368-.917-1.411-.919-2.915-.002-1.612.349-2.288,2.53-2.304Zm-4.632-26.297c-.296-.278-.601-.565-.917-.858.26-.231.511-.458.757-.678,1.918-1.724,3.444-3.095,4.767-3.565.228.047.853.328,1.478,1.04.63.717.811,1.356.797,1.538-.784,1.878-2.683,4.031-4.238,4.878-.709-.542-1.797-1.562-2.643-2.356Zm-32.944,42.591l-.352-.09c-4.988-1.28-9.311-2.39-13.346-3.935-.498-.569-1.18-2.241-1.148-3.064.352-8.998,5.911-15.66,11.795-22.713.968-1.16,1.934-2.318,2.874-3.484,1.055-1.306,2.208-2.55,3.456-3.791-3.85,11.921-6.198,23.854-3.28,37.077Zm-14.535,411.329c-3.136-.339-6.409-.941-9.833-1.807-5.755-1.453-9.99-4.793-11.621-9.162-1.507-4.041-.668-8.66,2.364-13.004,3.069-4.397,10.083-8.343,15.01-8.442h.064c2.793,0,6.97,3.623,10.331,6.539,1.158,1.004,2.356,2.042,3.525,2.974.836.666.875,1.202.888,1.377.053.714-.408,1.669-1.232,2.553-.91.974-1.968,1.9-3.088,2.878-1.805,1.578-3.673,3.209-5.21,5.302-1.517,2.066-1.565,4.58-1.603,6.602-.014.675-.025,1.313-.088,1.824-.101.826.075,1.658.493,2.367Zm291.079,143.709c-3.111,2.9-6.779,5.584-10.901,7.977-18.853,10.956-36.971,18.45-55.39,22.913-19.642,4.758-43.161,9.286-68.678,6.787-15.49-1.518-31.265-2.321-46.521-3.096-10.375-.529-21.103-1.074-31.614-1.84-16.539-1.204-30.088-5.412-41.422-12.868-6.031-3.967-12.072-7.917-18.112-11.869-11.064-7.239-22.505-14.723-33.687-22.173-.552-.368-1.128-.739-1.714-1.116-2.536-1.631-5.692-3.661-6.448-5.539-2.959-7.349-5.277-15.757-6.889-24.989-.864-4.952-.875-10.714-.034-17.613,2.709-22.21-9.097-37.525-20.514-52.338-2.004-2.599-4.076-5.287-6.011-7.947-3.129-4.298-6.682-8.279-10.117-12.128-3.111-3.485-6.327-7.09-9.108-10.815-1.663-2.228-6.672-9.989-1.311-16.347,7.672-9.1,14.764-12.388,23.003-10.681,7.357,1.533,14.964,8.235,15.072,13.28.382,17.815,11.628,29.611,31.666,33.216,4.41.793,7.378,1.391,8.421,2.436,1.061,1.064,1.702,3.986,2.631,8.672.466,2.35.671,4.316.625,6.012-.403,15.224,5.552,28.487,17.699,39.419,11.173,10.058,23.089,20.52,38.639,33.921,11.838,10.202,25.396,14.807,40.297,13.674.843-.066,1.243.009,1.387.047.083.14.279.55.515,1.595,2.697,11.906,10.989,19.271,23.348,20.739,1.799.214,3.6.452,5.402.69,10.454,1.386,21.234,2.814,31.946-.504.26.501.513.998.763,1.489,1.56,3.058,3.034,5.946,5.269,8.415,4.391,4.85,11.591,7.704,20.275,8.035,10.787.411,21.624-3.242,28.269-9.541,5.992-5.677,11.473-11.959,16.774-18.034l.432-.496c9.151-10.486,16.01-18.666,22.238-26.52,1.646-2.077,1.77-4.707,1.87-6.82.034-.733.067-1.425.153-1.973.172-1.101-.151-2.221-.883-3.062-.731-.839-1.799-1.36-2.912-1.291-.643.005-1.308-.029-1.971-.065-2.008-.11-4.281-.236-6.514.63-2.59,1.001-4.419,3.174-5.888,4.92l-.614.724c-2.574,2.981-5.16,5.952-7.745,8.924-7.71,8.859-15.682,18.019-23.206,27.329-5.267,6.518-11.999,9.008-21.828,8.061-4.894-.47-6.959-1.733-7.891-4.824l-.455-1.484c-1.91-6.161-2.655-9.293,1.261-13.131,8.667-8.492,17.173-17.394,25.399-26.004,4.044-4.233,8.088-8.466,12.164-12.667,2.207-2.273,8.068-8.311,1.891-14.41-1.828-1.804-3.829-2.671-5.931-2.614-3.449.114-5.734,2.69-7.403,4.572-.267.301-.527.594-.782.864-5.205,5.488-10.394,11.146-15.413,16.617-3.092,3.37-6.183,6.741-9.295,10.093-1.954,2.105-4.043,4.208-6.063,6.242-4.427,4.459-9.005,9.07-12.811,14.293-3.308,4.54-6.13,6.216-10.058,5.973-9.742-.601-19.693-1.705-29.05-2.783-.248-.061-.977-.552-1.284-1.003-3.938-5.772-4.67-9.953-2.527-14.433,10.233-21.398,21.122-41.606,41.698-53.708.75-.441,1.481-1.026,2.232-1.789,1.889-1.916,4.478-4.541,4.323-8.089-.061-1.379-.594-3.417-2.793-5.29-3.295-2.801-9.457-1.021-11.764.222-22.349,12.057-34.344,32.317-45.647,53.776-5.056,9.597-5.358,10.174-15.916,8.625-15.053-2.203-26.072-11.106-35.731-28.866-1.169-2.149-1.229-6.645-.114-8.589,4.913-8.566,11.053-16.62,16.956-24.049,2.148-2.701,5.266-5.061,8.341-6.311,26.401-10.723,48.438-28.325,69.75-45.347,2.178-1.74,4.357-3.481,6.54-5.214,2.232-1.771,2.597-4.638,2.89-6.94.096-.757.187-1.473.32-1.999.279-1.106.042-2.278-.643-3.188-.686-.912-1.747-1.463-2.887-1.501-.6-.021-1.343-.129-2.13-.243-2.291-.333-5.142-.747-7.569.717-4.892,2.954-9.378,6.521-13.716,9.969l-1.808,1.436c-1.792,1.416-3.579,2.858-5.354,4.305.719-1.19,1.446-2.372,2.182-3.538,3.034-4.804,2.16-9.137-2.597-12.879-9.324-7.335-19.978-9.848-30.103-11.47-13.047-2.095-24.691,1.222-35.6,10.134-4.55,3.716-9.365,7.326-14.021,10.817-4.548,3.409-9.251,6.934-13.765,10.599-4.983,4.046-10.32,6.783-16.166,8.239,5.854-4.018,9.553-9.399,10.596-15.555,1.316-7.771-1.783-15.742-8.725-22.446-1.703-1.643-3.586-2.912-5.406-4.14-.846-.571-1.694-1.14-2.509-1.746-.133-.099-.266-.2-.398-.302,1.127-1.041,2.207-2.051,3.254-3.09,17.737-17.609,37.533-35.292,62.066-45.363,7.374-3.026,12.909-4.602,17.654-4.602,6.332,0,11.262,2.802,17.291,8.7,1.635,1.6,3.384,3.008,5.075,4.369,1.743,1.403,3.39,2.728,4.836,4.19,3.822,3.861,6.843,7.377,9.235,10.749,5.469,7.709,11.905,15.476,21.88,20.072,5.646,2.601,11.204,5.87,16.579,9.03,2.897,1.705,5.893,3.466,8.903,5.126,25.668,14.158,43.619,37.155,60.978,59.396,3.403,4.358,6.921,8.866,10.446,13.242,9.838,12.213,17.266,26.632,24.633,41.569,6.093,12.355,11.386,25.442,16.505,38.097,1.798,4.446,3.596,8.89,5.43,13.316,2.135,5.151.943,9.735-3.646,14.013Zm-269.195-104.183l-3.051-22.821c11.278-2.525,20.215-9.322,28.887-15.918l.338-.257c2.973-2.261,5.937-4.534,8.901-6.807,5.538-4.248,11.264-8.64,16.949-12.864,4.084-3.035,7.878-4.999,12.664-4.999h.115c-19.075,23.953-41.301,43.472-64.802,63.665Zm81.218-59.11c1.026-1.479,1.686-2.073,2.515-2.073.564,0,1.205.275,2.094.731,1.988,1.024,2.401,2.117,1.525,4.035-5.54,12.123-14.221,23.062-25.803,32.512-2.227,1.818-5.036,3.154-8.008,4.57-3.323,1.582-6.76,3.218-9.732,5.703-12.624,10.557-21.867,24.04-27.519,40.131-1.264-1.004-2.561-2.077-3.728-3.18-2.874-2.717-5.761-5.447-6.303-6.572.55-.994,3.136-3.251,5.642-5.437l6.862-5.999c22.165-19.362,45.084-39.381,62.456-64.423Z"/></svg>