<svg xmlns="http://www.w3.org/2000/svg" viewBox="0 0 1000 1000"><path d="M678.628,372.159a262.213,262.213,0,0,0-88.51-68.543c18.637-8.137,44.43-21.272,55.738-35.636,34.832,18.961,52.607,33.761,59.1,43.136C690.3,324.185,682.443,352.737,678.628,372.159Zm30.56,167.12c0,127.089-103.395,230.484-230.485,230.484S248.216,666.368,248.216,539.279,351.612,308.791,478.7,308.791,709.188,412.187,709.188,539.279Zm-138.26-50.367c-99.036-1.139-92.206,30.735-150.262,31.873s-63.748-20.49-107-7.968-41.019,26.46-41.019,26.46c0,113.8,92.257,206.061,206.061,206.061s206.06-92.257,206.06-206.061C684.763,539.277,669.964,490.05,570.928,488.912ZM1000,499.169c.459,276.143-223.026,500.372-499.168,500.83S.459,776.973,0,500.831,223.027.459,499.169,0,999.541,223.027,1000,499.169ZM782.015,333.52c-.679-40.476-55.892-84.588-60.708-88.359a248.316,248.316,0,0,0-39.723-27.976c-31.716-17.767-58.2-21.782-78.723-11.931-13.468,6.465-22.156,16.123-25.814,28.705-6.16,21.17,4.489,43.868,8.74,51.707-6.916,3.119-13.649,5.877-19.5,8.065a259.479,259.479,0,0,0-87.58-15.178c-143.764,0-260.724,116.961-260.724,260.726S334.939,800,478.7,800,739.425,683.04,739.425,539.279A259.211,259.211,0,0,0,693.767,392.1c.8-6.487,2.07-13.856,3.734-21.32,9.05,3.6,22.812,7.931,36.775,7.93,11.02,0,22.149-2.7,31.123-10.6C776.652,358.783,782.242,347.144,782.015,333.52Zm-72.071-74.212-.5-.415c-17.13-15.33-68.279-51.9-98.735-37.283-8.741,4.2-14.056,9.894-16.244,17.418-4.432,15.232,4.988,33.861,7.663,38.692a168.338,168.338,0,0,0,18.47-11.081c2.584-5.45,6.658-11.46,12.783-14.266,3.794-1.742,9.892-2.966,17.4,1.073,47.961,25.81,72.278,47.63,72.278,64.856,0,15.616-10.179,22.693-17.346,24.9-1.245,3.124-2.42,6.466-3.515,9.934,13.916,5.868,38.416,12.619,51.42,1.186,7.1-5.894,10.391-12.542,10.255-20.5C763.417,306.6,724.791,270.8,709.944,259.308Z"/></svg>