<svg xmlns="http://www.w3.org/2000/svg" viewBox="0 0 1000 1000"><path d="M500.496 5C223.572 5 5 229.506 5 500.002c0 276.43 224.506 495.001 495.002 495.001 276.43 0 495.001-224.506 495.001-495.001C995.003 226.539 773.464 5 500.496 5zM122.693 622.145v-74.176h147.363c-5.934-24.726-9.89-39.56-16.813-64.286H128.627v-80.11c33.626 0 66.264-.99 99.89-.99-8.9-32.637-16.813-64.285-23.736-96.923 43.517-1.978 80.11 0 102.857 0 5.934 0 85.056 256.155 85.056 268.023 4.945.99 56.373-181.978 73.187-238.352 7.912-22.748 7.912-22.748 33.626-22.748h90c36.594 0 31.649 0 40.55 32.638 24.725 72.198 50.44 154.286 72.198 235.385 25.714-81.099 50.44-163.187 75.165-235.385 15.824-42.528 7.912-32.638 48.462-32.638h65.275c-1.978 17.803-4.945 22.748-7.912 32.638-32.638 113.737-72.198 235.385-105.825 351.1-11.868 39.56-16.813 32.637-49.45 32.637h-58.352c-37.583 0-39.561-6.923-48.462-32.637-16.813-74.176-31.649-139.451-56.374-212.638-3.956-19.78-8.901-34.616-17.802-58.352-22.747 75.165-47.473 131.539-66.264 213.627-14.835 52.418-12.857 90-46.484 90h-76.154c-22.747 0-26.703-6.923-33.626-24.725-8.902-27.692-17.803-53.407-31.649-82.088z"/></svg>