<svg xmlns="http://www.w3.org/2000/svg" width="1000" height="1000">
  <path d="M235.732 823.437c-2.294-3.44-238.56-486.296-230.532-492.03l83.726-37.849c0-3.44 2.293 0 5.734 0l30.967 69.962c1.147 1.147 5.735 1.147 5.735-2.293 0-67.669 37.848-123.868 102.076-154.835C445.62 83.67 539.668 512.62 622.246 641.076c94.048 164.01 278.703 11.47 181.214-150.247 1.147-5.735-131.896-269.527-125.015-274.115l83.726-40.142c9.175-2.294 228.238 487.443 232.825 489.737 0 3.44 0 3.44-2.293 3.44l-82.58 38.996c-9.174 4.588-33.26-74.55-43.582-73.403-2.294 68.815-24.086 122.72-100.93 158.275C555.724 910.604 458.235 486.241 380.245 363.52c-42.437-73.403-86.02-91.754-144.513-63.08-175.48 69.962 49.318 365.869 84.872 479.414 0 2.294 0 2.294-1.146 3.441l-82.58 40.142z" style="fill:#000;fill-opacity:1;fill-rule:nonzero;stroke:none;"/>
</svg>
