<svg xmlns="http://www.w3.org/2000/svg" width="1000" height="1000">
  <path d="M5 500.496c0 271.98 220.55 494.507 495.496 494.507 271.98 0 494.507-220.55 494.507-495.496C995.003 227.528 773.464 5 500.496 5 226.54 5 5 225.55 5 500.496zm92.967-52.418c17.803-160.22 134.506-294.726 287.804-340.22 207.693-51.43 411.43 33.626 496.485 245.275 23.736 63.297 35.604 140.44 19.78 217.583-37.583 215.605-247.254 364.946-462.859 329.342-218.572-33.627-368.902-230.44-341.21-451.98zm89.012-100.88c-51.43 92.968-53.407 235.386 23.736 346.156 59.34 87.033 188.902 163.187 258.133 149.341V610.277c-9.89 3.956-15.825 7.912-21.759 11.868-25.714 13.846-49.45 27.692-75.165 41.539-15.824 7.912-30.66 3.956-38.571-9.89-5.934-13.847-3.956-29.671 9.89-37.583 2.967-3.956 6.923-5.934 10.879-7.912 41.539-23.737 83.077-47.473 124.616-73.187 13.846-7.912 27.692-7.912 41.538 0 39.561 27.692 81.1 53.406 122.638 79.12 3.956 3.957 9.89 5.935 11.868 9.89 9.89 7.913 11.869 17.803 7.913 29.671-3.957 9.89-11.869 17.803-23.737 17.803-7.912 0-17.802-1.978-23.736-5.934-23.737-13.847-47.473-29.67-71.21-43.517-3.955-3.956-7.911-5.934-13.845-7.912v228.462c98.901 3.956 221.539-74.176 274.946-177.033 57.362-102.858 57.362-209.671 9.89-318.463-65.275 37.582-130.55 73.187-195.825 112.748 17.802 7.912 31.648 15.824 45.495 23.736 15.824 7.912 29.67 15.824 45.494 23.736 15.824 9.89 21.759 27.693 13.846 41.539-7.912 15.824-25.714 19.78-41.538 9.89-45.495-23.736-90.99-47.473-136.484-73.187-11.868-5.934-17.802-13.846-17.802-27.692V299.726c0-3.956 1.978-9.89 1.978-13.846 5.934-13.846 19.78-19.78 33.626-15.824 13.846 1.978 23.736 11.868 23.736 27.692v110.77c67.253-37.583 132.528-75.165 197.803-112.748-75.165-96.923-170.11-148.352-290.77-146.374-116.704 1.978-208.682 53.407-279.891 146.374 67.253 37.583 131.539 75.165 198.792 114.726V297.748c0-17.802 11.868-27.692 27.692-29.67 15.825 0 27.693 9.89 29.67 27.692 1.979 3.956 1.979 9.89 1.979 15.824v144.397c0 13.846-3.956 23.736-15.824 29.67-45.495 23.736-92.968 49.45-137.473 73.187-17.803 9.89-33.627 5.934-43.517-9.89-7.912-15.824-1.978-31.649 15.824-41.539 25.715-13.846 51.429-27.692 76.154-41.538 3.956-1.978 7.912-3.956 13.846-7.912-66.264-37.583-131.538-73.188-194.835-110.77z" style="fill:#000;fill-opacity:1;fill-rule:nonzero;stroke:none;"/>
</svg>
