<svg xmlns="http://www.w3.org/2000/svg" width="1000" height="1000">
  <path d="M182.378 926.845c88.976-79.357 195.988-115.429 317.428-115.429 120.238 0 228.453 36.072 319.833 115.429 216.429-181.56 234.464-495.38 43.286-698.583-195.988-206.809-533.857-206.809-727.44 0C-55.693 431.464-34.05 750.095 182.378 926.845zm138.274-372.738c3.607-94.988 80.56-169.535 179.154-169.535 98.596 0 177.953 76.952 177.953 173.142 3.607 94.988-79.357 177.953-177.953 175.548-98.595 0-182.761-80.56-179.154-179.155z" style="fill:#000;fill-opacity:1;fill-rule:nonzero;stroke:none;"/>
</svg>
