<svg xmlns="http://www.w3.org/2000/svg" viewBox="0 0 1000 1000"><path d="M500.496 995.003c275.935 0 494.507-224.506 494.507-495.496C995.003 226.54 773.464 5 500.496 5 223.572 5 5 229.506 5 499.507c0 276.924 224.506 495.496 495.496 495.496zM115.77 542.035c-22.748-22.748-22.748-57.363 0-80.11L461.925 115.77c21.758-22.748 57.362-22.748 80.11 0L888.19 461.925c22.747 22.747 22.747 57.362 0 80.11L542.035 888.19c-22.748 22.747-58.352 22.747-80.11 0zm144.396-31.649c1.978 2.967 2.967 3.956 3.956 4.945 2.967 1.978 5.934 1.978 7.912 1.978 7.912-1.978 15.824-3.956 22.747-7.912 5.934-2.967 11.868-6.923 17.802-2.967 10.88 6.923 22.748 4.945 34.616 2.967 3.956-1.978 7.912-2.967 11.868-1.978 3.956 0 7.912 1.978 11.868 2.967 6.923 3.956 11.868 4.945 19.78 6.923 6.924 0 12.858-1.978 19.78-2.967 6.924-2.967 14.836-4.945 18.792-10.879 4.945-7.912 9.89-5.934 16.813-3.956 6.923 2.967 14.836 5.934 22.748 5.934 6.923 0 13.846-2.967 21.758-5.934 2.967-.989 4.945-1.978 8.901-1.978 2.967.99 6.923 1.978 7.912 4.945 3.956 2.967 7.912 3.956 11.868 4.945 3.956 0 7.913 0 11.869-1.978 3.956-1.978 6.923-2.967 10.879-1.978 3.956 0 7.912 1.978 11.868 2.967 6.923 3.956 14.835 4.945 22.747 4.945 7.912 0 15.824-1.978 23.737-4.945 1.978-2.967 5.934-3.956 9.89-3.956 3.956 0 7.912.99 10.879 3.956 3.956 2.967 8.901 3.956 14.835 3.956 4.945 0 9.89-.989 13.846-4.945 9.89-6.923 15.825-5.934 24.726 0 13.846 4.945 26.703 9.89 41.538 15.824 5.934-3.956 13.846-6.923 15.825-10.879 1.978-7.912-3.957-11.868-10.88-14.835-12.857-3.956-26.703-8.901-39.56-9.89-32.638-3.956-65.275-6.923-98.902-10.88-64.286-3.955-129.56-3.955-194.835 1.979-28.682.989-59.341 1.978-88.023 7.912-11.868.989-23.736 6.923-33.626 12.857-2.967.99-3.956 3.956-5.934 5.934zm32.637-56.374c0 15.825 2.967 18.792 17.802 16.814h3.956c19.78-1.978 37.583-4.945 57.363-7.912 3.956 0 7.912-.99 10.88-1.978 3.956-2.967 6.923-5.935 7.912-7.913 7.912-13.846 30.659-15.824 36.593-2.967 6.923 10.88 13.846 8.902 21.758 8.902 44.506 0 90 1.978 135.495 2.967 8.902 0 17.803 0 25.715-6.924 7.912-5.934 19.78-3.956 26.703 5.935.99 1.978 4.945 4.945 7.912 5.934 20.77 3.956 40.55 6.923 61.32 10.879 6.922.989 9.89-2.967 9.89-8.901-2.968-14.836-5.935-27.693-7.913-42.528-5.934-23.736-19.78-42.528-39.56-56.374-26.704-19.78-58.352-29.67-90.99-33.626-26.703-3.956-51.428-4.945-71.209-5.934-47.472 1.978-87.033 3.956-124.616 16.813-18.79 6.923-37.582 15.824-53.406 28.681-21.759 21.759-32.638 47.473-35.605 78.132zm1.978 134.506c0 5.934.99 13.847 3.956 20.77 17.803 38.571 51.429 54.396 90.99 58.352 31.648 3.956 63.296 3.956 95.934 5.934v-.99c16.813 0 33.626.99 51.429 0 44.505-2.966 90.989-3.955 132.528-24.725 26.703-13.846 43.516-38.571 42.527-67.253 0-7.912-3.956-10.879-10.879-9.89-6.923 1.978-12.857 2.967-19.78 3.956-52.418 9.89-106.814 13.846-160.22 13.846-18.792 0-33.627 1.978-45.495 17.803-1.978 2.967-5.934 5.934-8.901 6.923-9.89 7.912-17.803 6.923-25.715-2.967-3.956-3.956-6.923-8.901-9.89-12.857-.989-7.913-5.934-8.902-11.868-8.902-19.78-1.978-37.583-1.978-56.374-2.967-20.77-.989-40.55-3.956-60.33-4.945-2.967 0-7.912 4.945-7.912 7.912zm0-35.604c0 9.89 1.978 15.824 9.89 15.824 37.583 1.978 74.176 4.945 110.77 7.912v-2.967h31.648c66.264-2.967 131.54-4.945 197.803-7.912 18.792-.989 36.594-3.956 53.407-7.912 7.912-.989 14.835-7.912 13.846-14.835-1.978-8.901-7.912-7.912-14.835-7.912-32.637 3.956-67.253 6.923-99.89 10.879-68.242 6.923-138.462 4.945-206.704 2.967-28.682-1.978-56.374-3.956-86.045-5.934-4.945 0-9.89 1.978-9.89 9.89zm84.066-186.924c0-3.956 8.902-9.89 16.814-9.89 2.967 0 3.956 3.956 6.923 5.934L385.77 375.88v-.989c-2.968-3.956-5.935-6.923-6.924-8.9zm42.528 0c1.978-1.978 4.945-5.934 7.912-5.934 4.945 1.978 12.857 0 12.857 7.912.99 2.967-3.956 5.934-7.912 9.89zm35.605-13.846c0-8.901 7.912-8.901 12.857-8.901 4.945 0 11.868.989 8.9 6.923-.988 3.956-8.9 5.934-15.823 11.868-3.956-3.956-5.934-7.912-5.934-9.89zm29.67 13.846c2.967-2.967 4.945-5.934 7.912-7.912 0 0 .99-1.978 2.967-1.978h1.978c3.956 1.978 6.923 2.967 10.88 3.956-2.968 3.956-4.946 6.923-8.902 9.89-1.978.99-2.967.99-6.923.99zm39.56-17.802 12.858-7.912 11.868 7.912c-3.956 2.967-5.934 7.912-8.901 7.912-6.923-.989-11.868-3.956-15.824-7.912zm27.693 19.78c.989-1.978 3.956-4.945 4.945-5.934 2.967-1.978 3.956-2.967 6.923-2.967 3.956-2.967 8.901-.989 8.901 3.956 1.978 2.967-3.956 6.923-5.934 8.901-1.978 1.978-3.956 0-7.912 1.978zm48.462-9.89c3.956-2.967 7.912-2.967 11.868-2.967 2.967 0 6.923 2.967 9.89 4.945.989 1.978 3.956 3.956 1.978 5.934-.989 1.978-1.978 3.956-4.945 3.956-7.912.99-14.835-2.967-18.791-11.868z"/></svg>