<svg xmlns="http://www.w3.org/2000/svg" width="1000" height="1000">
  <path d="M836.745 428.234c3.68-2.453 9.814-8.587 12.267-12.267 13.495-6.134 23.309-17.175 33.123-30.67 14.721-12.267 24.535-26.988 31.896-47.843 11.04-20.855 14.72-44.164 14.72-66.245 0-31.896-9.813-71.153-30.668-104.275-22.082-34.35-50.297-62.565-88.327-83.42-41.71-23.309-83.42-41.71-132.49-41.71H247.899v279.702H4.999v120.223h242.9V599.98H4.999v121.45h242.9v236.765h399.924c62.565 0 121.45-12.268 172.974-36.803 52.75-25.762 95.687-53.978 126.356-94.461 34.35-45.39 47.844-98.141 47.844-159.48 0-55.203-14.721-105.5-39.256-143.53-20.855-31.896-44.164-55.205-78.513-74.833-14.721-8.587-29.442-15.948-40.483-20.855zm-425.687 379.07V530.055h224.498c72.379 0 123.903 13.495 159.479 41.71 34.35 26.99 50.297 61.338 50.297 107.955 0 41.71-22.082 71.153-66.245 94.461-39.257 20.855-85.874 33.123-142.305 33.123zm0-381.523V168.16h198.736c26.988 0 52.75 8.587 73.605 14.72 28.216 8.588 47.844 20.856 62.565 40.484 15.948 20.855 25.762 44.163 25.762 69.925s-7.36 53.978-26.989 73.606c-17.174 17.175-34.349 35.576-61.338 44.163-23.308 7.361-50.297 14.722-77.286 14.722z" style="fill:#000;fill-opacity:1;fill-rule:nonzero;stroke:none;"/>
</svg>
