<svg width="1000" height="1000" viewBox="0 0 1000 1000" fill="none" xmlns="http://www.w3.org/2000/svg">
<rect width="1000" height="1000" fill="white"/>
<path fill-rule="evenodd" clip-rule="evenodd" d="M995 500C995 773.381 773.381 995 500 995C226.619 995 5 773.381 5 500C5 226.619 226.619 5 500 5C773.381 5 995 226.619 995 500ZM625.202 198.63L375.43 198.369L198.63 374.798L198.369 624.57L374.798 801.37L624.57 801.631L801.37 625.202L801.631 375.43L625.202 198.63ZM844 357.933L642.788 156.299L357.933 156L156.299 357.212L156 642.067L357.212 843.701L642.067 844L843.701 642.788L844 357.933ZM419.507 609.796C413.511 610.83 407.411 611.347 401.208 611.347C393.971 611.347 386.734 610.52 379.497 608.866C372.467 607.418 365.747 604.73 359.337 600.802C353.134 596.873 347.861 592.014 343.519 586.224C339.177 580.228 336.075 573.715 334.214 566.685C332.56 559.448 331.733 552.211 331.733 544.974V444.793C331.733 438.59 332.25 432.491 333.284 426.494C334.524 420.498 336.592 414.812 339.487 409.436C342.588 404.06 346.414 399.304 350.963 395.168C355.512 391.033 360.578 387.725 366.16 385.243C371.95 382.555 377.843 380.798 383.839 379.971C389.836 378.937 395.935 378.42 402.138 378.42C410.823 378.42 419.404 379.454 427.881 381.522C436.359 383.589 444.009 387.415 450.833 392.997C457.656 398.373 462.826 405.093 466.341 413.158C470.063 421.222 471.923 429.596 471.923 438.28H433.774C433.774 433.111 432.224 428.459 429.122 424.323C426.02 419.981 421.988 416.983 417.026 415.329C412.063 413.674 407.101 412.847 402.138 412.847C397.796 412.847 393.557 413.468 389.422 414.708C385.287 415.949 381.668 418.12 378.567 421.222C375.465 424.323 373.191 427.942 371.743 432.077C370.503 436.212 369.882 440.451 369.882 444.793V544.974C369.882 549.109 370.503 553.245 371.743 557.38C372.984 561.515 375.155 565.134 378.256 568.235C381.358 571.337 384.873 573.611 388.802 575.059C392.937 576.299 397.073 576.92 401.208 576.92C405.55 576.92 409.789 576.299 413.924 575.059C418.06 573.611 421.782 571.44 425.09 568.546C428.398 565.651 430.569 562.136 431.603 558C432.637 553.658 433.154 549.316 433.154 544.974V516.129H402.759L402.759 481.702H471.303V544.974C471.303 551.177 470.89 557.38 470.062 563.583C469.442 569.579 467.581 575.369 464.48 580.952C461.585 586.535 457.76 591.394 453.004 595.529C448.248 599.458 442.976 602.559 437.186 604.834C431.603 607.108 425.71 608.762 419.507 609.796ZM650.006 608.866H523.152V380.901H650.006V415.329H561.612V470.846L629.536 470.847L629.536 505.274H561.612V574.439H650.006L650.006 608.866Z" fill="black"/>
</svg>
