<svg xmlns="http://www.w3.org/2000/svg" viewBox="0 0 1000 1000"><path d="M939.915 835.128c-22.62-2.154-25.85-28.004-25.85-67.857-4.309-154.024-4.309-313.433-4.309-476.074-11.848 6.463-20.464 14.002-28.004 20.465-21.542 18.31-46.315 35.544-70.011 51.7-56.009 44.161-115.249 85.09-174.489 128.174-15.079 10.771-19.387 23.696-19.387 50.623v235.883c0 39.853-3.232 57.086-29.082 57.086h-25.85c-39.852 0-33.39-47.392-33.39-67.857v-255.27c0-31.236 12.925-54.932 42.007-75.396 65.702-46.315 129.25-96.939 193.876-146.485 46.315-35.544 94.784-72.165 141.099-107.709 24.773-17.233 45.238-24.773 64.625-8.617 23.696 18.31 23.696 35.544 23.696 54.932v555.779c1.078 32.313-3.23 47.392-23.696 50.623zM5 772.657V228.726c0-20.465 11.848-44.16 26.927-52.777C49.161 165.178 69.625 164.1 94.4 182.41c56.008 45.238 112.017 87.244 169.103 130.328 59.24 44.16 118.48 89.399 176.643 134.636 22.619 20.465 31.235 29.082 31.235 51.7v278.967c0 18.31 0 57.086-32.312 57.086H419.68c-43.084 0-35.544-39.852-35.544-62.471V533.543c0-11.848-2.154-24.773-9.694-31.236-72.165-53.854-126.02-93.707-166.949-124.942-65.702-49.547-98.015-74.32-115.249-87.245v477.151c0 20.465 6.463 67.857-37.698 67.857h-18.31C5 835.128 5 796.353 5 772.657z"/></svg>
