<svg xmlns="http://www.w3.org/2000/svg" viewBox="0 0 1000 1000"><path d="M220.266 685.555H24.06c-14.575 0-19.06-8.97-19.06-20.181V334.626c0-15.697 4.485-20.181 19.06-20.181h161.45c67.27 0 97.542 24.666 97.542 78.482v24.666c0 28.03-10.09 48.21-30.272 53.817 43.726 4.484 63.908 28.03 63.908 82.967v43.726c0 57.18-29.151 87.452-96.422 87.452zm-104.27-87.452h69.514c13.454 0 19.06-11.212 19.06-20.181v-23.545c0-11.212-5.606-21.302-19.06-21.302h-69.513zm0-142.39h44.848c15.696 0 20.181-5.606 20.181-19.06v-14.575c0-15.697-4.485-20.181-20.181-20.181h-44.847zm258.993 209.66V334.627c0-15.697 4.485-20.181 20.181-20.181h228.72c8.97 0 14.576 4.484 14.576 20.181v58.301c0 13.454-5.606 17.94-14.576 17.94H492.713v54.937h87.451c14.576 0 19.06 5.606 19.06 19.06v58.301c0 15.697-4.484 20.181-19.06 20.181h-87.451v102.028c0 11.211-4.485 20.18-19.06 20.18H395.17c-15.696 0-20.181-8.969-20.181-20.18zm302.718 0v-53.816c0-33.635 4.485-43.726 20.181-62.786l39.241-59.422-39.24-52.696c-15.697-25.787-20.182-34.756-20.182-62.786v-39.241c0-15.697 4.485-20.181 20.181-20.181h78.483c8.97 0 17.938 4.484 17.938 20.181v53.817l25.788 33.635c4.484 4.485 4.484 10.09 13.454 10.09h4.484c5.606 0 10.091-5.605 10.091-10.09l24.666-33.635c4.485-5.606 4.485-14.576 4.485-21.303v-32.514c0-15.697 5.606-20.181 19.06-20.181h78.482c8.97 0 20.181 4.484 20.181 20.181v39.241c0 28.03-4.484 37-20.18 62.786l-43.727 52.696 43.726 59.422c15.697 19.06 20.181 29.15 20.181 62.786v53.817c0 11.211-11.211 20.18-20.18 20.18h-78.483c-13.454 0-19.06-8.969-19.06-20.18v-53.817c0-4.485 0-13.454-4.485-17.939l-20.181-34.756c-4.485-4.485-8.97-4.485-14.576-4.485h-4.484c-8.97 0-8.97 0-13.454 4.485l-25.788 34.756c-4.484 4.485-4.484 13.454-4.484 17.939v53.817c0 11.211-4.485 20.18-13.454 20.18h-78.483c-15.696 0-20.181-8.969-20.181-20.18z"/></svg>