<svg xmlns="http://www.w3.org/2000/svg" viewBox="0 0 1000 1000"><path d="M947.098 994.966h-173.26c-7.22 0-15.882-17.326-24.545-25.989C635.23 818.82 516.835 672.991 404.216 532.94c-15.882-25.99-15.882-41.872 0-66.417 112.62-138.608 231.014-290.21 345.077-437.481 0-7.22 17.326-23.101 24.545-23.101h173.26c-67.86 80.854-115.507 144.383-173.26 219.462-56.31 75.08-122.726 160.266-181.923 241.12-23.102 24.545-23.102 40.428 0 66.417 108.287 145.827 222.35 285.879 329.194 428.818 10.106 7.22 10.106 15.882 25.989 33.208zM53.365 909.78V55.031c0-43.315 5.775-49.09 37.54-49.09 114.063 0 99.624-17.326 99.624 96.736V935.77c0 59.197 0 59.197-56.31 59.197-92.405 0-80.854 4.332-80.854-85.186z"/></svg>