<svg xmlns="http://www.w3.org/2000/svg" width="1000" height="1000">
  <path d="M884.029 376.638v344.798l-384.027 221.95-384.026-221.95V278.567l384.026-221.95L795.248 226.95l44.39-25.809L500.003 5 71.586 252.759v494.485l428.416 247.76 428.417-247.76V350.83zM328.636 721.436V506.712h213.692c20.646-1.033 40.26-9.291 53.68-22.711 14.454-14.453 22.712-34.067 22.712-54.714 0-10.323-2.064-19.614-5.161-28.905-4.13-9.291-10.324-17.55-17.55-24.776-6.194-7.226-15.485-12.388-23.744-16.517-9.29-4.13-19.614-6.194-29.937-6.194H328.636v-65.037h213.692c38.196 0 74.328 15.485 100.136 41.293 26.84 26.84 42.325 62.972 42.325 100.136 0 28.905-9.29 56.778-25.808 80.522-14.453 22.711-36.132 40.26-60.907 50.584-24.776 7.226-50.585 11.356-76.393 11.356h-129.04v149.687zm221.95-106.33c22.712-1.032 45.423-5.161 67.102-13.42l65.037 114.589h-74.328zm289.053-310.73 44.39 24.775 44.39-24.776V252.76l-44.39-25.808-44.39 25.808z" style="fill:#000;fill-opacity:1;fill-rule:nonzero;stroke:none;"/>
</svg>
