<svg xmlns="http://www.w3.org/2000/svg" viewBox="0 0 1000 1000"><path d="M500.496 5C223.572 5 5 229.506 5 500.002c0 276.43 224.506 495.001 495.002 495.001 276.43 0 495.001-224.506 495.001-495.001C995.003 226.539 773.464 5 500.496 5zM263.133 838.739c1.978-21.758 5.934-35.604 8.9-52.418 27.693-158.242 57.364-315.495 83.078-471.76 1.978-11.868 8.901-13.846 15.824-13.846h83.078c14.835 0 17.802 1.978 14.835 13.846-8.901 48.462-14.836 94.946-25.715 143.408 0 10.879 3.956 15.824 13.847 15.824h144.396c9.89 0 12.857-2.967 16.813-14.835 7.912-49.451 16.813-98.902 28.681-147.364 0-8.9 1.978-13.846 6.923-20.769 37.583-30.66 78.133-66.264 117.693-96.923 3.956 0 3.956-2.967 8.901-5.934-2.967 20.769-4.945 34.615-8.9 52.417-27.693 157.254-56.375 314.507-84.067 470.771 0 15.824-6.923 18.791-18.791 18.791H585.55c-13.846 0-17.802-2.967-13.846-18.79 8.901-42.528 17.802-83.078 23.737-125.606 1.978-5.934 1.978-9.89 1.978-18.79H441.155c-12.857 0-17.802 1.977-17.802 12.856-9.89 45.495-16.813 91.979-25.714 137.473 0 5.934-1.978 12.857-8.901 17.803-39.561 34.615-80.11 65.274-119.671 99.89 0 0-3.956 0-5.934 3.956z"/></svg>