<svg xmlns="http://www.w3.org/2000/svg" width="1000" height="1000">
  <path d="M500.496 995.003c275.935 0 494.507-224.506 494.507-495.496C995.003 226.54 773.464 5 500.496 5 223.572 5 5 229.506 5 499.507c0 276.924 224.506 495.496 495.496 495.496zm-300.66-436.155c33.626-17.802 64.286-33.626 98.901-52.418-33.626-17.802-65.275-34.615-98.901-52.418 5.934-6.923 10.879-12.857 15.824-20.769 30.66 16.813 61.319 32.638 93.956 51.429v-100.88h25.715v100.88c34.615-17.802 64.286-34.616 96.923-51.429 3.956 5.934 7.912 12.857 11.868 19.78-30.66 17.803-61.319 34.616-94.945 53.407 32.637 18.791 63.297 35.605 94.945 52.418-3.956 6.923-6.923 13.846-11.868 20.77-31.648-16.814-62.308-33.627-94.945-51.43v99.891h-25.715v-100.88c-33.626 18.792-64.285 34.616-95.934 52.418-4.945-6.923-9.89-13.846-15.824-20.769zm366.924 43.517c39.56-21.759 78.132-43.517 117.693-64.286 4.945 6.923 8.901 12.857 13.846 20.769-39.56 21.758-78.132 43.517-118.682 65.275-4.945-7.912-8.9-13.846-12.857-21.758zm127.583-72.198V401.595h19.78v128.572zm16.813 28.681c4.945-7.912 8.901-13.846 12.857-20.77 39.561 20.77 79.122 42.528 119.671 64.287-4.945 7.912-8.901 13.846-13.846 21.758z" style="fill:#000;fill-opacity:1;fill-rule:nonzero;stroke:none;"/>
</svg>
