<svg xmlns="http://www.w3.org/2000/svg" viewBox="0 0 1000 1000"><path d="M500.496 5C223.572 5 5 229.506 5 500.002c0 276.43 224.506 495.001 495.002 495.001 276.43 0 495.001-224.506 495.001-495.001C995.003 226.539 773.464 5 500.496 5zM76.21 500.496c0-235.385 188.902-425.276 423.298-425.276 231.43 0 421.32 189.89 421.32 425.276 0 231.43-189.89 424.287-421.32 424.287-234.396 0-423.298-189.89-423.298-424.287zm86.044-2.967c0 186.924 150.33 338.243 337.254 338.243 183.957 0 335.276-151.32 335.276-335.276 0-182.968-151.32-334.287-335.276-334.287-186.924 0-337.254 146.374-337.254 331.32zm29.67-2.967c16.814-44.506 35.605-89.011 52.418-130.55 11.869-31.648 35.605-44.505 68.242-34.615 57.363 11.868 110.77 23.736 167.144 37.582 35.604 11.868 44.506 29.67 29.67 65.275-17.802 41.539-36.593 84.066-53.406 127.583-11.869 27.692-32.638 47.473-66.264 38.572-15.825-2.967-29.67-5.935-47.473-10.88-41.539-9.89-79.121-19.78-120.66-30.659-36.593-11.868-44.506-28.681-29.67-62.308zm86.045-6.923c-2.967 9.89 0 19.78 8.901 20.77 25.714 7.911 52.418 12.856 80.11 21.758 10.88 0 16.813-5.935 22.748-17.803 8.9-24.725 21.758-50.44 33.626-74.176 4.945-11.868 0-20.77-11.868-23.736-23.736-5.934-51.429-11.868-77.143-17.802-9.89-3.956-17.802 3.956-21.759 11.868-11.868 26.703-22.747 53.407-34.615 79.121zm180 127.583c33.627-76.154 66.265-153.297 98.902-230.44 23.736 7.912 50.44 15.824 76.154 20.769-13.846 34.615-28.681 75.165-47.473 113.736 3.956-1.978 54.396-32.637 133.517-84.066 8.901-5.934 13.847-6.923 27.693-2.967 26.703 5.934 43.516 11.868 73.187 17.802a18267.97 18267.97 0 0 0-108.792 69.231c24.726 10.88 55.385 24.726 40.55 61.32-10.88 32.637-22.748 66.263-37.583 97.912-26.703-5.934-50.44-11.868-78.132-17.803 8.901-23.736 15.824-39.56 23.736-65.274 7.913-19.78 6.924-23.737-11.868-27.693-19.78-3.956-43.516-10.879-63.297-15.824-9.89-3.956-12.857 0-15.824 7.912-9.89 23.736-20.77 50.44-29.67 75.165-26.704-7.912-55.385-11.868-81.1-19.78z"/></svg>