<svg xmlns="http://www.w3.org/2000/svg" viewBox="0 0 1000 1000"><path d="M398.962 837.974h222.211c97.773-13.968 165.071-97.773 165.071-196.816-3.809-92.693-81.265-170.15-187.927-170.15-63.488-7.618-132.056 0-199.355 0-63.488-7.618-119.359-54.6-119.359-119.359-8.888-63.489 41.903-128.247 101.583-128.247h217.131v-58.41h-229.83c-85.074 0-167.61 111.74-152.373 214.592 16.508 83.806 83.806 148.564 165.072 151.104h217.131c68.568 0 120.63 55.87 120.63 119.359 0 67.298-52.062 120.629-120.63 128.247H398.962zM63.742 288.16C40.884 463.39 136.118 624.651 299.92 672.903c99.042 29.205 198.085 7.618 298.397 12.698v-60.95H402.772c-156.183 0-276.812-126.977-276.812-280.62 0-152.374 120.63-271.733 276.812-271.733H751.96V5H398.962c-166.34 7.619-314.904 124.438-335.22 283.16zm182.847 703.457h12.698c118.09 0 238.718 7.619 352.998 0 161.262-5.08 292.049-123.169 322.523-278.081 26.666-162.532-59.68-313.635-203.164-374.585-110.47-40.633-222.211-21.586-332.682-29.204v69.837h173.96c25.395 0 62.219 0 88.884 7.619 137.136 33.014 222.211 161.262 208.244 306.016-12.698 130.787-129.518 233.64-261.574 233.64H246.589z"/></svg>