<svg xmlns="http://www.w3.org/2000/svg" viewBox="0 0 1000 1000"><path d="M5 500.496C5 225.55 226.54 5 500.496 5c272.968 0 494.507 222.528 494.507 494.507 0 274.946-222.528 495.496-494.507 495.496C225.55 995.003 5 772.475 5 500.496zm219.561 1.978c2.967 143.407 95.935 258.133 240.33 278.902 90.001 11.868 168.133-14.835 237.364-78.132C543.024 547.97 390.715 396.65 224.561 238.407zm105.825-219.561c78.132 81.1 149.34 162.198 227.473 240.33 75.165 78.133 153.297 153.298 238.352 234.397 0-107.803 4.946-204.726-3.956-300.66-8.9-113.737-78.132-191.87-185.934-228.463-104.836-35.604-197.803-10.879-275.935 54.396z"/></svg>