<svg xmlns="http://www.w3.org/2000/svg" viewBox="0 0 1000 1000"><path d="M60.656 404.404c0 98.214 26.19 176.785 78.571 234.404 39.286 43.214 89.047 70.714 153.214 91.666 36.667 11.786 72.024 14.405 110 14.405v64.167H283.274v87.737h119.167v98.214h189.88v-98.214h123.095v-87.737H592.321v-64.167c57.62 0 112.619-7.857 161.071-30.119 55-24.88 99.524-55 130.952-102.143 35.357-52.38 55-115.237 55-191.19V5h-189.88v411.19c0 34.047-5.238 62.856-17.024 87.737-9.167 19.643-20.952 37.976-37.976 51.072-14.405 10.476-30.12 20.952-45.833 24.88-13.096 5.239-26.19 10.477-37.977 10.477h-18.333V5h-188.57v585.356h-15.715c-14.405-3.929-26.19-7.857-39.286-11.786-17.023-5.238-31.428-14.405-44.523-26.19-15.715-14.405-28.81-30.12-36.667-49.762-10.476-24.881-17.024-51.072-17.024-85.12V5H60.656z"/></svg>