<svg xmlns="http://www.w3.org/2000/svg" viewBox="0 0 1000 1000"><path d="M777.93,482.47a22.38,22.38,0,0,1-9.37,8.46,27.56,27.56,0,0,1-12.25,2.87H722.16V422.47h34.15a27.7,27.7,0,0,1,12.25,2.87,22.84,22.84,0,0,1,9.37,8.31,33.5,33.5,0,0,1,4.68,11.79,68.27,68.27,0,0,1,1.21,12.7,65.8,65.8,0,0,1-1.21,12.54A35.07,35.07,0,0,1,777.93,482.47Zm-371.18-33q-1.67-6.79-3.17-13.45-1.51,6.66-3.17,13.45T397.23,463l-16.92,68h46.54l-16.62-68Q408.42,456.33,406.75,449.52ZM995,500c0,273.38-221.62,495-495,495S5,773.38,5,500,226.62,5,500,5,995,226.62,995,500ZM298.7,577.53H210.14V388.92H172.65V611.08h126Zm186.19,33.55L425,388.92H382.12L322.27,611.08h38.39l11.48-46.55H435l11.49,46.55ZM653.24,388.92h-39L577.68,479l-36.27-90.07h-39L558.94,519.8v91.28h37.48V519.8ZM827.35,611.08l-51.69-85.54a59.61,59.61,0,0,0,20.1-9.22,55.28,55.28,0,0,0,15.11-15.87,58.63,58.63,0,0,0,8-20.4,116,116,0,0,0,.15-43.37,60.17,60.17,0,0,0-7.55-19.95,55.9,55.9,0,0,0-14.36-16,52,52,0,0,0-19.35-9.22,90.7,90.7,0,0,0-21.46-2.57H685V611.08h37.18V527.35H737l50.17,83.73Z"/></svg>