<?xml version="1.0" encoding="utf-8"?>
<!-- Generator: Adobe Illustrator 26.0.1, SVG Export Plug-In . SVG Version: 6.00 Build 0)  -->
<svg version="1.1" id="Layer_1" xmlns="http://www.w3.org/2000/svg" xmlns:xlink="http://www.w3.org/1999/xlink" x="0px" y="0px"
	 viewBox="0 0 1000 1000" style="enable-background:new 0 0 1000 1000;" xml:space="preserve">
<path d="M499.9,47h0.1h0.1c31,16,91.5,46.6,162,79.1c74.8,34.5,160.5,74.8,200.3,93.6c2.9,71.1,5.3,285.1-61.8,425.1
	c-38.8,80.9-89,153.2-145.3,208.8c-50.4,50-103.9,85.2-155.3,102.3c-51.4-17-104.9-52.3-155.3-102.2
	c-56.2-55.7-106.5-128-145.3-208.8c-67-139.7-64.7-354-61.8-425.1c39.8-18.8,125.5-59.1,200.3-93.6c70.5-32.5,130.9-63.1,162-79.1
	V47z M500.1,0l-3,1.6c-20.4,10.7-90.8,47.2-176.7,86.8C218.1,135.5,97.1,192.8,97.1,192.8s-22.3,289,64.5,470.2
	C246.3,839.6,375,962.4,495.4,998.6c0,0,3.1,1.8,4.6,1.4c1.5,0.4,4.6-1.4,4.6-1.4C625,962.4,753.8,839.6,838.4,663
	c86.8-181.2,64.5-470.2,64.5-470.2S782.1,135.5,679.7,88.4C593.9,48.6,523.4,12.1,503,1.4L500.1,0z"/>
<path d="M825.9,243c0,0-97.8-47.7-180.5-86.9c-69.5-33-126.4-63.4-142.9-72.3l-2.4-1.3l-2.4,1.3c-16.5,8.9-73.4,39.3-142.9,72.3
	C272,195.4,174.2,243,174.2,243s-18.1,240.6,52.2,391.5c68.5,147.1,172.6,249.4,269.9,279.4c0,0,2.5,1.5,3.7,1.1
	c1.2,0.4,3.7-1.1,3.7-1.1c97.4-30.1,201.5-132.4,270-279.5C844,483.6,825.9,243,825.9,243z M735.7,616.9
	c-10.3,22.2-21.8,43.9-34.5,64.9c-11.8,0-33.9,0.8-33.9,0.8l-59.4,96.2l9.4,12.4c-38.3,38.4-78.5,66-117.2,79.9
	c-39-14-79.6-41.8-118.2-80.9l8.6-11.4L331,682.6c0,0-20-0.7-32.1-0.8c-12.6-21-24.1-42.7-34.5-64.9
	c-52.5-112.7-51.8-284.9-49.5-347.3c33.7-16.3,99.8-48.5,157.9-75.9c33.2-15.8,63.7-31,88.3-43.6l38.9,54.6l38.9-54.6
	c24.6,12.6,55.1,27.9,88.4,43.6c58.1,27.6,124.2,59.6,157.9,76C787.5,332,788.3,503.9,735.7,616.9z"/>
<path d="M267.8,243.9h180.8l87.8,184.3L605.2,305c0,0,1.9-37.7-7.6-47.8c-9.5-10.1-15.8-13.2-15.8-13.2H719L574.9,526.3l2.5,177.4
	l32.2,56.6l-209.8,3.1l44.9-50.3V522L316.5,300.5C316.5,300.5,301.9,259,267.8,243.9z"/>
</svg>
