<svg xmlns="http://www.w3.org/2000/svg" width="1000" height="1000">
  <path d="M5 500.496c0 271.98 220.55 494.507 495.496 494.507 271.98 0 494.507-220.55 494.507-495.496C995.003 227.528 773.464 5 500.496 5 226.54 5 5 225.55 5 500.496zm105.825 13.846c-18.792-8.9 0-19.78 16.813-48.461 24.725-38.572 24.725-38.572 0-67.253-14.835-18.792 17.802-44.506 53.407-65.275 11.868-10.88 8.9-17.803-8.902-44.506-8.9-8.901-4.945-18.791 13.847-24.725 2.967-.99 49.45-18.792 60.33-28.682 7.912-8.9 4.945-25.714 4.945-42.527 0-11.868 2.967-14.836 16.813-14.836 19.78 0 66.264-5.934 69.23-8.9 8.902-7.913 8.902-20.77 11.869-32.638 2.967-11.868 6.923-22.747 20.77-16.813 20.769 3.956 36.593 7.912 53.406 12.857 20.77 3.956 20.77 3.956 32.638-12.857 3.956-6.923 12.857-20.77 17.802-28.682 5.934-7.912 22.747 3.956 40.55 21.759 24.725 19.78 49.45 19.78 69.23-4.946 8.901-8.9 12.858-8.9 19.78 0 8.902 7.913 22.748 19.78 28.682 28.682 8.901 7.912 17.802 19.78 25.714 24.725 12.858 0 24.726-8.9 32.638-12.857 6.923-5.934 15.824-8.901 24.725 7.912 8.901 16.813 15.825 29.67 24.726 45.495 8.9 20.77 10.879 24.725 37.582 20.77 19.78-2.968 25.715-12.858 31.649 12.856 3.956 19.78 3.956 35.605 8.9 56.374 0 12.857 8.902 21.758 19.781 21.758 33.627 0 37.583-2.967 37.583 27.693-3.956 16.813-8.902 32.637-11.869 48.462 0 22.747 19.78 31.648 36.594 37.582 11.868 4.945 11.868 13.846 7.912 24.725-7.912 13.847-15.824 28.682-24.725 41.539-11.868 23.736-11.868 23.736 8.9 45.495 18.792 15.824 22.748 22.747 10.88 31.648-17.802 26.704-59.34 52.418-44.506 71.21 17.803 28.68 24.726 32.637 7.912 44.505-10.879 4.945-60.33 34.615-61.318 36.593-11.869 4.945 0 28.682 3.956 41.539 3.956 11.868 0 16.813-10.88 20.77-51.428 0-70.22 12.856-79.12 58.351 0 14.835-38.572 15.824-53.407 10.88-28.682-3.957-48.462 3.955-53.407 33.626-4.945 15.824-12.857 15.824-24.726 11.868-14.835-7.912-37.582-16.813-57.362-24.725-7.913-2.967-11.869 0-19.78 7.912-9.89 8.9-16.814 20.769-24.726 28.681h-8.901c-11.868-7.912-24.726-19.78-32.638-28.681-12.857-7.912-20.769-19.78-32.637-19.78-9.89 0-27.693 14.835-38.572 19.78-5.934 4.945-10.879 4.945-14.835-2.967-38.571-56.374-40.55-67.253-78.132-58.352-23.736 4.945-25.714 1.978-28.681-11.868-4.946-16.814-7.913-33.627-11.869-49.451-3.956-17.802-8.9-20.77-29.67-20.77h-19.78c-12.858 0-17.803-3.955-17.803-19.78v-33.626c0-44.506 4.945-42.528-36.593-53.407-11.868-2.967-16.813-12.857-11.868-23.736 3.956-13.846 8.9-29.67 11.868-41.539 6.923-25.714 6.923-34.615-24.725-53.407zm86.044-48.461c-16.813 25.714 33.626 3.956 17.802 39.56-4.945 16.813-8.901 37.583-13.846 53.407-3.956 8.901-3.956 14.835 8.901 16.813 20.77 3.956 20.77 3.956 20.77 24.726v48.461c0 36.594 32.637-3.956 37.582 25.715 3.956 18.79 11.868 31.648 15.824 48.461 9.89 43.517 23.736-21.758 44.506 16.814 8.9 11.868 20.769 24.725 29.67 41.538 27.693 27.693 21.758-26.703 44.506 0 17.802 11.868 28.681 19.78 44.505 32.638 28.682 22.747 12.858-20.77 41.539-12.858 16.813 3.957 33.626 12.858 50.44 17.803 10.879 2.967 14.835 2.967 19.78-8.901 4.945-16.814 9.89-24.726 24.725-19.78 15.825 2.966 33.627 2.966 48.462 5.933 13.846 0 13.846 0 13.846-14.835 0-16.813 0-20.77 14.835-24.725 16.814-4.945 33.627-4.945 50.44-8.901 15.824-7.912 15.824-7.912 7.912-19.78-7.912-11.869-3.956-21.759 7.912-24.726 17.803-7.912 28.682-20.77 46.484-28.681 15.824-6.923 15.824-7.912 3.956-21.759-12.857-7.912-12.857-14.835-3.956-23.736 11.868-11.868 24.725-28.681 35.605-40.55 12.857-12.857 12.857-12.857-3.956-20.769-11.869-8.901-11.869-11.868-6.924-24.725 6.924-16.813 14.836-32.638 23.737-49.451 8.9-16.813 7.912-16.813-8.901-21.758-14.836-5.934-14.836-5.934-14.836-19.78 0-14.836 3.957-33.627 6.924-48.462 5.934-37.583-21.759-.99-31.649-38.572-4.945-14.835-4.945-31.648-8.901-48.462-4.945-16.813-4.945-20.769-19.78-11.868-13.847 8.901-17.803 0-20.77-8.9-8.9-15.825-17.802-31.65-24.725-44.506-8.901-15.825-8.901-19.78-21.758-8.902-11.868 8.902-19.78 8.902-27.693-4.945-8.9-10.879-20.769-23.736-32.637-35.604-13.846-12.857-13.846-12.857-20.77 4.945-8.9 6.923-17.802 6.923-23.736 2.967-18.791-7.912-29.67-16.813-47.472-23.736-14.836-7.913-14.836-7.913-19.78 6.923-4.946 13.846-11.869 16.813-24.726 13.846-11.868-4.945-28.682-8.901-45.495-13.846-14.835-3.956-19.78-3.956-19.78 13.846 0 10.879-3.956 15.824-17.802 19.78-15.825 0-35.605 0-51.43 4.945-17.801 3.956-17.801 3.956-12.856 19.78 3.956 12.858 3.956 14.836-8.901 19.78-48.462 14.836-69.231 16.814-56.374 42.528 6.923 11.869 6.923 15.825-4.945 24.726-42.528 39.56-65.275 38.571-41.539 51.429 12.857 8.9 12.857 17.802 3.956 28.68-6.923 13.847-19.78 29.671-28.681 47.474zm127.583 138.462c11.868-14.836 21.758-23.737 28.681-28.682 8.901-7.912 13.846-7.912 19.78 0 38.572 27.693 57.363 28.682 79.121 12.857 21.759-19.78 24.726-37.582 3.957-49.45-39.561-16.814-41.54-12.857-83.078-33.627-48.461-24.725-55.384-68.242-39.56-110.77 7.912-20.769 24.725-39.56 44.505-49.45 37.583-19.78 98.902-19.78 144.396 4.945 18.792 12.857 11.869 23.736-3.956 39.56-12.857 17.803-24.725 25.715-49.45 13.847-12.857-8.901-36.594-14.835-51.429-5.934-24.725 14.835-25.714 43.516-1.978 54.395 10.88 4.946 28.681 8.902 40.55 13.847 78.132 24.725 128.571 104.835 49.45 167.143-19.78 15.824-53.407 24.725-90 24.725-28.681 0-57.363-8.9-87.033-24.725-15.825-8.901-15.825-15.824-3.956-28.681zm205.715 65.275c3.956-20.77 8.9-36.594 12.857-56.374 2.967-12.857 6.923-17.802 20.77-12.857 10.878 3.956 28.68 8.9 43.516 12.857 13.846 3.956 17.802 6.923 13.846 19.78-3.956 19.78-8.901 41.539-13.846 62.308-1.978 9.89-3.956 10.88-14.835 7.912-17.803-4.945-35.605-11.868-53.407-16.813-10.88-2.967-12.857-5.934-8.901-16.813zm28.681-105.825c13.846-70.22 24.725-140.44 37.583-213.627 4.945-26.703 87.033-17.802 81.099 11.868-1.978 9.89-52.418 211.65-49.451 201.76-6.923 24.724-8.901 36.593-41.539 27.691-17.802-4.945-32.637-2.967-27.692-27.692z" style="fill:#000;fill-opacity:1;fill-rule:nonzero;stroke:none;"/>
</svg>
