<svg xmlns="http://www.w3.org/2000/svg" width="1000" height="1000">
  <path d="M5 580.91v-25.148c17.494-13.12 36.082-10.934 55.763-9.84h521.543c21.868 0 36.082 14.214 50.296 28.428 36.081 31.708 71.07 63.416 106.058 95.124 6.56 5.467 13.12 6.56 21.867 6.56 38.269 0 76.537 1.094 114.806 1.094 18.587 0 36.081-1.094 55.762-1.094 14.214 0 29.521 1.094 41.549 10.934 28.428 20.774 29.52 63.416 1.093 85.284-32.802 29.521-66.696 55.762-99.498 84.19-9.84 6.56-18.587 14.214-29.521 21.868-14.214 8.747-29.521 9.84-43.735 9.84-41.549 0-83.098-1.093-123.553-1.093-17.494 0-31.708 1.093-49.202 1.093-10.934 0-22.96-1.093-31.708-9.84-8.747-5.467-9.84-15.307-6.56-25.148 4.373-12.027 15.307-15.307 25.148-17.494h192.435c7.654 0 15.307-1.093 22.96-7.654 34.99-29.52 69.977-57.949 107.152-88.564l5.467-7.653c-4.373-2.187-7.653-5.467-10.934-5.467H759.434c-21.868 0-41.549-8.747-55.763-21.868-21.867-21.867-45.922-39.362-66.696-60.136-17.494-13.12-31.708-27.334-47.015-41.548-6.56-4.374-13.12-8.747-21.868-8.747H39.988c-14.214 0-26.24-3.28-34.988-13.121zm77.63-134.486c-3.28-10.934-3.28-20.774 4.374-27.335 5.467-4.373 12.027-7.653 18.587-7.653h94.031c31.708 0 62.323 1.093 91.844 0 14.214 0 26.241 12.027 26.241 24.054 0 14.214-9.84 22.961-24.054 25.148-10.934 1.093-20.774 0-30.615 0h-155.26c-12.027 0-20.774-5.467-25.148-14.214zm44.829 262.412c0-10.934 12.027-25.148 22.96-25.148h120.273c20.774 0 31.708 16.4 27.335 33.895-1.094 10.934-15.308 18.587-27.335 18.587-39.362 0-79.817 0-121.365-1.093-12.028 0-24.055-12.027-21.868-26.241zM228.05 295.537c-1.093-21.868 6.56-30.615 26.241-30.615h44.829c13.12 0 22.961 8.747 24.054 22.961 0 8.748-7.653 24.055-20.774 26.242-19.68 0-39.362 0-57.95-2.187-8.746 0-14.213-8.747-16.4-16.4zm55.763 564.186c2.186-9.84 14.214-21.868 24.054-24.055h47.015c13.121 0 24.055 10.934 26.242 24.055 2.186 10.933-8.747 24.054-20.775 27.334-3.28 1.093-6.56 1.093-10.933 1.093H315.52c-18.588 0-31.708-12.027-31.708-28.427zm47.015-716.166c0-14.214 9.84-25.148 24.054-25.148h112.619c14.214 0 22.96 8.747 24.054 21.868 1.094 13.12-6.56 25.148-20.774 26.241-21.868 2.187-44.829 2.187-67.79 2.187-16.4 0-31.708-2.187-45.922-2.187-16.4 0-26.241-8.747-26.241-22.961zm30.615 565.279c0-12.027 9.84-25.148 24.054-25.148h47.016c16.4 0 24.054 13.12 24.054 27.335 0 12.027-9.84 24.054-24.054 24.054h-47.016c-16.4 0-24.054-13.12-24.054-26.241zm16.4-279.906c1.094-8.747 14.214-17.494 21.868-17.494h87.47c8.748 0 18.588 6.56 21.868 17.494 3.28 10.934 0 21.867-10.933 26.241-5.467 3.28-9.84 5.467-16.401 5.467H406.27c-17.494 0-30.614-13.12-28.428-31.708zm1.094-132.3c-3.28-10.933-1.094-19.68 9.84-26.24 4.374-3.28 8.747-5.468 14.214-5.468H583.4c10.934 0 20.775 5.467 24.055 15.308 4.373 8.747 1.093 21.867-7.654 28.428-3.28 3.28-9.84 5.467-13.12 5.467H402.99c-10.934 0-19.68-7.654-24.054-17.494zm52.482 563.093c1.094-13.121 10.934-24.055 25.148-24.055h41.549c18.587 0 28.428 8.747 28.428 26.241 0 14.214-10.934 26.241-27.335 26.241h-3.28v-1.093c-14.214 0-28.428 1.093-42.642 0-14.214-2.187-21.868-13.12-21.868-27.334zm74.35-150.887c0-12.027 10.934-25.148 25.148-25.148h48.109c12.027 0 25.148 13.12 25.148 25.148 0 16.4-10.934 26.24-27.335 26.24h-43.735c-16.4 0-24.055-9.84-27.335-26.24zm48.11-565.279c0-14.214 10.933-25.148 26.24-25.148h45.922c14.214 0 24.055 12.027 24.055 22.961 0 16.4-9.84 25.148-24.055 25.148-14.214 0-31.708 2.187-45.922 2.187-15.307 0-26.24-10.934-26.24-25.148zm18.587 286.466c-4.374-9.84 0-15.307 6.56-21.867 18.587-20.775 39.362-39.362 60.136-59.043 10.934-12.027 24.054-21.868 36.082-32.802l37.175-38.268c16.4-14.214 36.081-17.494 56.855-16.4h136.673c9.84 0 19.681 0 29.522-1.094 3.28 0 5.466 0 9.84-2.187-6.56-5.467-10.934-13.12-17.494-16.4l-98.405-73.257c-5.466-3.28-14.213-6.56-18.587-6.56H745.22c-10.934 0-20.774-4.374-25.148-17.495-3.28-9.84 0-22.96 10.934-28.428 4.374-1.093 9.84-4.373 16.4-4.373 25.149 0 51.39 0 76.538 1.093 12.027 2.187 20.774 6.56 31.708 14.214 33.895 24.055 68.883 49.202 101.684 74.35 9.84 8.747 19.681 19.681 28.428 28.428 15.308 18.588 12.027 55.763-13.12 72.163-12.028 7.654-22.961 9.84-38.269 9.84H763.808c-10.934 0-16.401 4.374-22.961 9.841-41.549 38.269-84.191 76.537-123.553 118.086-16.4 12.027-38.268 9.84-44.828-9.84z" style="fill:#000;fill-opacity:1;fill-rule:nonzero;stroke:none;"/>
</svg>
