<svg xmlns="http://www.w3.org/2000/svg" viewBox="0 0 1000 1000"><path d="M5 500.496C5 225.55 226.54 5 500.496 5c272.968 0 494.507 222.528 494.507 494.507 0 274.946-222.528 495.496-494.507 495.496C225.55 995.003 5 772.475 5 500.496zm99.89 182.968c.99.989 1.978 1.978 4.946 2.967 1.978.989 2.967 2.967 2.967 4.945v42.528h10.879v-44.506c0-2.967 0-3.956 3.956-4.945 7.912-7.912 17.802-14.835 27.692-21.759 34.616-24.725 69.231-48.461 103.847-75.165 0 0 3.956-.989 3.956-1.978v.99c-22.748 42.527-42.528 85.055-65.275 128.571 1.978 1.978 5.934 3.956 9.89 4.945 22.747-45.494 46.484-90.989 70.22-136.484 15.824 43.517 30.66 86.045 47.473 128.572 3.956-1.978 7.912-1.978 9.89-2.967-13.846-42.527-29.67-84.066-45.495-125.605 66.264 12.858 131.539 24.726 198.792 38.572-22.747 25.714-45.495 51.429-68.242 76.154 2.967 1.978 4.945 3.956 8.901 6.923 22.747-25.714 45.495-50.44 68.242-76.154 21.758 26.703 44.506 53.407 68.242 79.121 2.967-3.956 5.934-5.934 7.912-7.912-23.736-26.703-46.483-53.407-71.209-81.1 18.791-2.966 36.594-4.944 53.407-8.9 17.802-3.956 34.615-7.912 52.418-9.89 16.813-3.956 33.626-7.913 51.428-10.88 17.803-2.967 34.616-5.934 52.418-10.879-.989 3.956-1.978 3.956-1.978 4.945-9.89 17.803-19.78 36.594-31.648 56.374-12.857 19.78-26.704 42.528-39.56 62.308-1.979.99-1.979 1.978-1.979 4.945h89.011c1.978 0 5.935-1.978 5.935-3.956 8.9-13.846 16.813-27.692 23.736-42.528.989-.989 2.967-.989 2.967-1.978 10.88 20.77 22.747 41.539 32.637 61.32 2.967-.99 6.923-2.968 9.89-4.946-10.879-23.736-24.725-45.494-35.604-69.23 3.956-7.913 8.901-16.814 12.857-26.704.99.989 2.967.989 2.967 2.967 28.682 20.77 58.352 42.528 87.033 63.297 2.968.989 2.968 1.978 2.968 4.945v43.517h11.868V687.42c0-.99.989-2.967 1.978-4.945-.99 0-1.978-.99-2.967-2.967.989-.99 1.978-1.978 2.967-1.978-.99-1.978-1.978-2.967-1.978-3.956-24.726-39.56-48.462-79.121-71.21-116.704-1.977-4.945-1.977-4.945-.988-7.912 6.923-16.813 14.835-32.638 20.769-51.429 13.846-39.56 25.714-80.11 27.692-123.627.99-21.758 0-42.527-4.945-64.286-5.934-22.747-16.813-42.527-33.626-58.351-4.945-5.935-12.857-10.88-19.78-15.825-13.847-4.945-26.704-7.912-40.55-8.9-19.78-1.979-37.583.988-56.374 5.933-20.77 7.912-40.55 16.814-59.34 29.67-.99 0-.99.99-1.979.99 1.978 0 2.967 0 4.945-.99 16.814-7.911 34.616-16.813 53.407-21.758 13.846-5.934 30.66-7.912 43.517-5.934 19.78 2.967 33.626 11.868 41.538 30.66 6.923 14.835 7.912 28.681 7.912 43.516 0 17.803-1.978 34.616-3.956 53.407-8.9 41.539-20.769 82.088-36.593 121.649v2.967c-1.978-.99-2.967-1.978-3.956-2.967-45.495-27.692-90.99-56.374-137.473-84.066-8.901-4.945-4.945-4.945-16.813-4.945H399.617c-2.967 0-5.934 0-8.901 2.967-8.902 5.934-16.814 10.879-26.704 15.824-47.472 29.67-95.934 59.34-141.429 89.011-1.978 0-4.945.99-4.945 2.967-36.593 58.352-75.165 116.704-112.748 177.034zm23.737-14.835c0-.1.198-.396.395-.792 6.726-11.967 87.825-140.835 93.561-146.572 14.835 14.836 30.66 30.66 44.506 45.495v1.978c-44.506 32.638-91.979 65.275-137.473 98.902 0 0-.297 0-.594.197-.197.1-.395.297-.395.792zm102.857-154.287c73.187-19.78 144.396-37.582 216.594-56.373l.99.989c-56.374 34.615-111.76 69.23-168.133 102.857-16.813-15.824-32.637-31.648-49.45-47.473zm22.748-17.802c0-1.978 0-2.967 1.978-2.967 44.505-27.692 90.989-55.385 136.484-84.066.989-1.978 3.956-1.978 6.923-.99 22.747 10.88 46.483 20.77 69.23 30.66.99 0 2.968 0 3.957.99-73.187 18.79-147.363 37.582-218.572 56.373zm35.604 74.176v-.989h1.978c66.264-40.55 132.528-82.088 197.803-121.649h.989v162.199c-67.253-11.868-133.517-25.715-200.77-39.56zM424.342 407.53c47.473-.99 93.956-.99 142.418-.99v.99c-9.89 2.967-18.791 6.923-27.692 10.879-13.846 5.934-28.682 10.88-41.539 16.813-.989.99-4.945.99-6.923 0-20.77-9.89-42.528-17.802-65.275-27.692zm78.132 200.77V451.045c67.253 38.572 133.517 78.133 197.803 117.693 0 0 .99.99 2.967.99-67.253 13.845-133.517 24.725-200.77 38.57zm3.956-404.507c18.792 21.758 38.572 43.516 59.341 64.286 8.901-5.934 16.813-11.868 25.714-18.791-12.857-25.715-24.725-51.43-36.593-78.133-16.813 10.88-32.638 20.77-48.462 32.638zm8.901 236.374v-.989h3.956c24.726-11.868 50.44-21.758 76.155-31.648 3.956-.99 5.934-.99 10.879.989 44.505 26.703 89.011 55.385 133.517 83.077l1.978 1.978c-74.176-17.802-150.33-34.615-226.485-53.407zm24.726 18.792v-.99c69.23 16.814 137.473 32.638 205.715 49.451-8.901 19.78-17.803 38.572-26.704 58.352-60.33-35.604-119.67-72.198-179.011-106.813zm4.945-168.133c10.879 15.824 22.747 30.66 33.626 44.506 22.748-20.77 46.484-39.56 70.22-60.33-7.912-8.901-16.813-17.802-24.725-27.693-8.901 3.957-77.143 41.54-79.121 43.517zm56.374 39.56c12.857 26.704 25.714 52.418 37.582 78.133 16.813-9.89 33.627-22.748 47.473-32.638-18.791-21.758-37.583-43.516-58.352-65.275-8.901 6.923-17.802 13.847-26.703 19.78zm182.967 279.892c6.923-15.825 13.846-29.67 19.78-44.506 2.968 2.967 58.352 96.923 60.33 102.858-27.692-19.78-54.395-39.561-80.11-58.352z"/></svg>