<svg xmlns="http://www.w3.org/2000/svg" viewBox="0 0 1000 1000"><path d="M422.295 992.852C183.235 962.334 49.717 681.31 141.272 480.398h3.815v16.53c0 33.062 0 69.938 7.63 104.272 20.345 77.567 54.678 142.419 118.258 195.826 50.864 41.963 109.357 75.024 178.024 86.469 129.703 21.617 244.147-13.988 335.702-118.259 19.074-19.074 34.333-47.05 49.592-69.938 2.544-2.543 2.544-8.901 8.902-12.716h6.358s5.086 3.815 5.086 10.173c-5.086 10.173-8.901 21.617-11.444 33.061-66.123 160.222-212.357 287.382-420.9 267.036zm-94.098-483.208c0-2.543-6.358-12.716 0-15.259 11.444-82.654 77.567-153.863 160.221-160.221 73.753-8.901 133.518 19.074 176.753 77.567 12.716 17.803 24.16 20.346 39.42 20.346h101.727c15.26 0 24.16 3.815 30.519 17.802 6.358 16.531 12.716 36.877 17.802 57.222-8.901 0-11.444 2.543-17.802 2.543H674.072c-13.988 0-16.53-2.543-20.346-12.716-78.839-119.53-251.776-111.9-320.443 5.087zm160.221-357.319C521.48 9.905 677.887-38.415 798.688 48.054c129.704 94.098 91.556 217.443 48.321 265.764 8.902-30.518 0-76.296-137.332-148.777-132.247-61.037-221.259-12.716-221.259-12.716z"
    style="fill:#000;fill-opacity:1;fill-rule:nonzero;stroke:none"/></svg>