<svg xmlns="http://www.w3.org/2000/svg" width="1000" height="1000">
  <path d="M113.628 389.748c21.136 0 36.988-4.227 52.84-7.398 35.931-4.227 64.465 7.398 88.771 35.931 40.159 44.386 40.159 112.021 7.398 155.35-31.704 45.443-83.487 61.295-127.873 40.159-57.067-23.25-88.771-80.317-68.692-140.555 7.398-34.874 0-54.954-32.76-71.862-50.727 88.77-31.705 189.167 44.385 249.405 68.692 47.556 160.633 36.988 217.7-28.534 64.465-71.862 64.465-183.883-4.227-253.632-60.237-59.181-144.781-66.579-210.303-15.852 13.739 15.852 21.136 29.59 32.761 36.988zM326.045 679.31h61.294c36.988-72.92 68.692-145.838 103.567-216.644 8.454 7.398 8.454 10.568 13.738 14.795 3.17 12.682 12.682 25.363 20.08 40.159 20.079 45.442 20.079 45.442 80.316 32.76-36.988-72.919-69.749-144.781-108.85-232.496C435.952 441.53 384.169 557.778 326.045 679.31zm254.689-48.613c4.227 41.216 27.477 57.068 67.635 48.613h28.534c44.385 11.625 72.919-7.397 96.168-48.613 16.91-27.476 36.988-51.783 61.295-80.316 23.25 36.988 47.556 63.408 67.635 91.941 20.08 40.159 52.84 45.443 92.998 32.761-40.158-61.294-84.544-117.305-125.759-176.486-11.625 15.852-24.306 27.477-34.874 44.386-16.909-12.682-28.534-25.363-40.159-35.931-44.385 56.01-84.544 112.02-129.986 164.86-34.874-58.123-34.874-58.123-83.487-41.215zm83.487-305.415c45.442 60.238 85.6 113.078 133.157 177.542 12.681-25.363 23.25-36.988 32.76-53.896-24.306-34.875-49.669-59.181-64.464-87.715-25.363-35.931-51.783-51.783-101.453-35.931zm165.918 123.646c14.795 21.136 27.476 36.988 39.101 49.67C914.683 438.36 954.841 382.35 995 325.282c-49.67-20.08-76.09 0-100.397 35.931-15.852 31.704-41.215 57.067-64.464 87.715z" style="fill:#000;fill-opacity:1;fill-rule:nonzero;stroke:none"/>
</svg>
