<svg xmlns="http://www.w3.org/2000/svg" viewBox="0 0 1000 1000"><path d="M479.49 995c-20.512-2.735-39.656-2.735-60.167-8.205-36.92-6.837-75.207-19.143-112.127-28.715-2.735-2.735-2.735-2.735-4.102-8.204 6.837 2.734 10.94 2.734 17.776 2.734 56.064 6.837 113.495 5.47 169.558-4.102 9.572-2.735 17.777 0 27.348 0 57.431 10.94 114.862 10.94 173.66 4.102 0 0 1.368 0 4.103 2.735-23.246 6.837-46.492 16.409-71.105 21.879-28.716 8.204-64.268 12.306-94.351 17.776h-9.572zM5 530.083v-60.166c5.47-32.818 9.572-65.635 17.776-97.086 0-8.204 2.735-15.041 8.205-24.613 6.837 72.473-2.735 139.475-23.246 207.845 0-9.571-2.735-16.408-2.735-25.98zm9.572 76.574c-1.367-17.776 0-35.552 4.102-53.328 2.735-23.246 9.572-46.492 13.674-69.738 0-4.102 2.735-6.837 5.47-10.94h2.735c1.367 9.573 4.102 21.88 6.837 31.451 36.92 161.354 129.903 284.42 269.378 371.934 6.837 2.735 8.205 6.837 13.674 12.306 2.735 6.837 6.837 9.572 13.674 6.837 2.735 0 8.205 0 13.674 2.735 35.553 12.307 72.473 27.348 110.76 41.022 2.735 0 2.735 0 5.47 4.103-15.042 2.734-27.349 5.47-39.655 5.47-50.594 1.367-99.82 1.367-146.312-9.573-12.307 0-21.879-4.102-32.818-9.571C129.434 855.525 47.39 748.867 14.572 606.657zm25.98-183.232v-95.718c0-9.572 1.368-16.409 4.103-23.246C97.984 185.497 184.13 97.983 303.095 46.022c20.51-6.837 41.021-9.572 64.267-9.572 62.9-5.47 125.801 0 188.702 15.042 1.367 2.734 6.837 2.734 10.939 4.102-34.185 5.47-67.003 8.204-95.718 12.306-94.351 20.512-177.763 60.166-252.97 123.067-4.102 4.102-15.041 6.837-20.511 9.572-4.102 1.367-6.837 6.837-9.572 9.571-1.367 4.103-4.102 9.572-6.837 15.042C121.23 281.215 77.473 348.218 47.39 423.425c-2.735 1.368-2.735 4.103-5.47 9.572-1.367-5.47-1.367-8.204-1.367-9.572zm6.838 56.064c0-6.837 2.735-15.042 2.735-21.879 0-2.734 1.367-5.47 0-5.47-8.205-15.04 1.367-24.612 8.204-34.184 28.715-72.473 71.105-134.006 125.801-188.702 30.083-9.572 39.655-41.022 64.268-57.43 27.348-10.94 49.226-30.084 76.575-43.758 27.348-12.306 54.696-24.613 82.044-34.185 27.348-8.204 56.063-15.041 83.411-20.51 27.348-5.47 54.696-8.205 86.147-9.573 5.47 1.368 13.674 4.102 19.143 8.205 1.368 0 6.837 1.367 9.572 1.367 9.572-5.47 17.776 0 27.348 2.735 120.332 51.961 214.683 135.373 281.685 251.602 0 17.776 12.307 27.348 20.511 39.655 9.572 16.409 16.41 35.552 19.144 53.329 4.102 9.571 1.367 23.245 0 36.92-8.204 62.9-30.083 128.535-61.533 188.701-5.47 9.572-8.205 20.511-23.246 25.98-1.367 0-4.102 5.47-4.102 10.94-2.735 4.102-2.735 12.307-5.47 16.409-87.514 123.066-205.11 202.375-351.422 237.928h-15.042c-43.757-9.572-88.881-24.613-128.536-45.124-4.102-2.735-10.939-6.837-15.041-12.307-2.735-1.367-6.837-4.102-9.572-4.102-6.837-5.47-16.409-5.47-25.98-9.572C171.823 776.215 80.206 647.679 47.39 479.489zm82.044 20.51C132.169 705.11 294.89 870.567 500 869.2c206.478 0 369.199-164.089 369.199-369.2 2.735-192.803-153.15-369.198-370.566-369.198-214.683 0-369.2 177.762-369.2 369.199zm205.11 0c0-92.983 75.208-166.822 164.089-166.822 94.35 0 165.456 73.84 165.456 166.823s-73.84 165.456-165.456 165.456c-91.616 0-164.089-75.207-164.089-165.456zm17.777-471.753c5.47-2.735 8.204-4.102 10.939-4.102 30.083-5.47 62.9-12.307 95.718-17.777 4.102 0 6.837 0 12.307-1.367h58.798c30.083 4.102 60.166 9.572 86.146 13.674 53.33 12.307 102.556 32.818 144.945 65.635-15.041-5.47-32.817-10.939-47.859-12.306-30.083-6.837-58.798-8.205-88.881-13.674-5.47 0-9.572-2.735-15.042-4.103-2.734 0-6.837-2.734-9.571-2.734-6.837 0-17.777 0-24.614-2.735-72.472-20.511-140.842-24.613-214.682-20.511zm51.96 392.445c0 21.878 16.41 39.654 39.656 39.654 21.878 0 39.654-17.776 39.654-39.654 0-23.246-17.776-39.655-39.654-39.655-23.246-2.735-39.655 16.409-39.655 39.655zm121.7 522.348v-4.103c1.367-1.367 6.837-1.367 10.94-4.102 136.74-36.92 246.132-113.494 328.176-229.724 4.102-5.47 9.572-8.204 13.674-12.306 2.735-5.47 5.47-9.572 8.204-15.042 2.735-5.47 2.735-10.939 5.47-15.041 34.185-61.533 58.798-131.27 68.37-202.376 4.102-2.735 4.102-2.735 4.102-9.572 1.368 6.837 4.102 9.572 4.102 10.94 5.47 38.287 15.042 75.207 16.41 112.127 2.734 15.041-1.368 32.817-6.838 46.491-36.92 136.74-116.229 240.663-236.56 311.768-10.94 5.47-20.512 6.837-30.083 10.94-57.431 9.571-116.23 9.571-175.028 2.734-4.102 0-6.837-2.734-10.94-2.734zM632.638 67.9v-2.734c16.41 2.734 34.185 2.734 50.594 8.204 32.818 8.205 62.9 15.042 95.718 24.613 10.94 2.735 20.511 9.572 30.083 17.777 65.636 51.96 112.127 113.494 144.945 191.436 1.367 6.837 4.102 16.409 4.102 23.246v69.737c-6.837-16.408-21.878-32.817-19.143-54.696 0-1.367-2.735-6.837-4.103-9.571-5.47-5.47-13.674-9.572-16.408-17.777-65.636-110.76-159.987-192.804-278.95-244.765-2.736-1.367-5.47-1.367-6.838-5.47zm333.647 359.628c-1.368-6.837 0-13.674 0-23.246 0-19.144 0-36.92 2.734-56.064 2.735 2.735 2.735 5.47 5.47 6.837 10.94 39.655 16.409 79.31 19.144 121.7 0 5.469 0 10.938 1.367 13.673v19.144c-1.367 6.837-1.367 13.674-4.102 20.51-6.837-32.817-16.409-68.37-24.613-102.554z"
    style="fill:#000;fill-opacity:1;fill-rule:nonzero;stroke:none"/></svg>