<svg xmlns="http://www.w3.org/2000/svg" viewBox="0 0 1000 1000"><path d="M826.286,680.572H949.143C951.429,396,790.286,212,605.714,188c4.572-5.714,8-12,11.429-19.429q7.714-18.857,8.571-36c2.857-24-2.857-42.857-17.143-48.571-13.714-5.714-31.428,3.428-46.857,21.143v-3.429C561.714,52.571,538.857,12,510.286,12s-51.429,40-51.429,89.714A62.049,62.049,0,0,0,459.429,112c-17.143-22.857-40-34.857-56-27.429-20,9.715-22.858,45.715-5.715,81.143a162.558,162.558,0,0,0,13.143,21.143c-220,34.286-345.143,208-361.143,493.715H172.571c13.143-235.429,134.857-369.143,337.715-369.143C692,311.429,828,439.429,826.286,680.572Z"/><path d="M437.143,554.857V475.429c0-17.715-18.286-32-40.572-32S356,457.714,356,475.429v79.428c0,17.714,18.286,32,40.571,32S437.143,572.571,437.143,554.857Z"/><path d="M568.571,475.429v79.428c0,17.714,16.572,32,37.715,32,20.571,0,37.714-14.286,37.714-32V475.429c0-17.715-17.143-32-37.714-32S568.571,457.714,568.571,475.429Z"/><path d="M183.429,778.857a115.862,115.862,0,0,0-38.286-25.714,121.371,121.371,0,0,0-47.429-9.714H0v244H97.714a120.913,120.913,0,0,0,47.429-9.143,118.794,118.794,0,0,0,38.286-25.714,121.167,121.167,0,0,0,34.857-86.286,113.352,113.352,0,0,0-9.143-48.572C203.429,803.429,194.286,790.286,183.429,778.857ZM145.714,893.714a87.414,87.414,0,0,1-12,22.857c-5.143,6.286-10.857,11.429-18.285,14.858a49.626,49.626,0,0,1-22.286,5.714H56v-144H93.143a43.21,43.21,0,0,1,22.286,5.714,67.422,67.422,0,0,1,18.285,15.429c5.143,6.285,9.143,14.285,12,22.857a93.509,93.509,0,0,1,4.572,28.571A87.149,87.149,0,0,1,145.714,893.714Z"/><path d="M452.572,778.857a122.428,122.428,0,0,0-86.286-35.428,123.762,123.762,0,0,0-86.857,35.428,118.25,118.25,0,0,0-25.715,38.857,123.449,123.449,0,0,0,0,96,121.322,121.322,0,0,0,25.715,38.857C302.286,975.428,333.714,988,366.286,988a122.484,122.484,0,0,0,112-170.286C472.572,803.429,463.429,790.286,452.572,778.857ZM420,893.714c-3.429,9.143-7.428,16.572-13.143,22.857s-12,11.429-20,14.858a59.629,59.629,0,0,1-24.571,5.714,51.829,51.829,0,0,1-24.571-5.714,63.014,63.014,0,0,1-20-14.858,70.16,70.16,0,0,1-13.143-22.857c-3.429-9.143-4.572-18.857-4.572-28.571a93.511,93.511,0,0,1,4.572-28.572C308,827.429,312,820,317.715,813.714s12-11.428,20-14.857,16-5.714,24.571-5.714a51.832,51.832,0,0,1,24.571,5.714,63.026,63.026,0,0,1,20,14.857c5.715,6.286,9.715,13.715,13.143,22.857a93.51,93.51,0,0,1,4.571,28.572A66.845,66.845,0,0,1,420,893.714Z"/><path d="M696,778.857a115.862,115.862,0,0,0-38.286-25.714,121.37,121.37,0,0,0-47.428-9.714H512.571v244h97.715a120.912,120.912,0,0,0,47.428-9.143A118.794,118.794,0,0,0,696,952.572a121.167,121.167,0,0,0,34.857-86.286,113.337,113.337,0,0,0-9.143-48.572C716,803.429,706.857,790.286,696,778.857ZM658.286,893.714a87.414,87.414,0,0,1-12,22.857C641.143,922.857,635.429,928,628,931.429a49.622,49.622,0,0,1-22.286,5.714H568.571v-144h37.143A43.207,43.207,0,0,1,628,798.857a67.426,67.426,0,0,1,18.286,15.429c5.143,6.285,9.143,14.285,12,22.857a93.509,93.509,0,0,1,4.571,28.571C662.286,876,661.143,885.143,658.286,893.714Z"/><path d="M990.286,817.714c-5.715-14.285-14.857-27.428-25.715-38.857a122.424,122.424,0,0,0-86.285-35.428,123.766,123.766,0,0,0-86.858,35.428,118.248,118.248,0,0,0-25.714,38.857,114.1,114.1,0,0,0-9.143,48,123.729,123.729,0,0,0,9.143,48,121.336,121.336,0,0,0,25.714,38.857C814.286,975.428,845.714,988,878.286,988A121.991,121.991,0,0,0,1000,865.714C1000,848.571,997.143,832.572,990.286,817.714Zm-57.714,76c-3.429,9.143-7.429,16.572-13.143,22.857s-12,11.429-20,14.858a59.634,59.634,0,0,1-24.572,5.714,51.834,51.834,0,0,1-24.571-5.714,63.025,63.025,0,0,1-20-14.858,70.178,70.178,0,0,1-13.143-22.857c-3.428-9.143-4.571-18.857-4.571-28.571a93.51,93.51,0,0,1,4.571-28.572c3.429-9.142,7.429-16.571,13.143-22.857a63.037,63.037,0,0,1,20-14.857,59.617,59.617,0,0,1,24.571-5.714c9.143,0,17.143,1.714,24.572,5.714,8,3.429,14.285,8.572,20,14.857s9.714,13.715,13.143,22.857,4.571,18.286,4.571,28.572A66.876,66.876,0,0,1,932.572,893.714Z"/></svg>