<svg xmlns="http://www.w3.org/2000/svg" viewBox="0 0 1000 1000"><path d="M502.897 5.772C697.77-7.543 885.382 153.44 942.27 330.158c58.1 177.928 33.892 337.7-73.834 479.317-209.398 274.76-613.67 234.816-774.653-56.89C-32.098 525.033 24.791 244.22 224.506 96.553c78.676-62.941 169.455-90.78 278.39-90.78zM97.414 552.87c24.208 199.715 177.929 370.38 401.852 370.38 226.344 0 410.324-188.821 410.324-433.32-6.052-114.989-50.837-211.82-131.933-296.548-153.72-165.824-439.374-153.72-582.2 21.787C115.57 319.264 80.468 428.2 97.413 552.87zm164.614 104.094c24.208-26.63 42.364-43.575 68.993-76.255 18.156-15.735 31.47-37.523 48.416-55.678 10.893-12.104 10.893-30.26 0-44.785-33.892-42.364-70.203-81.097-104.094-121.04-6.052-4.841-16.946-21.787-10.894-29.05 6.052-2.42 16.946 10.894 22.997 16.946 44.785 45.995 91.99 90.78 136.775 136.775 12.104 10.894 18.156 24.208 0 41.154-44.784 45.995-96.831 90.78-148.878 136.774-6.052 6.052-6.052 6.052-10.894 6.052 0 0-6.052-3.631-2.42-10.893zm70.203 89.569c-4.841-7.262 9.683-15.735 24.208-27.84 44.785-45.994 85.938-90.779 130.723-137.984 4.841-6.052 15.735-9.683 21.787-6.052 53.257 59.31 104.094 107.725 150.089 167.034 0 0 0 15.735-6.052 10.894-14.525-13.314-123.46-107.725-133.144-118.619-16.945-18.156-24.207-12.104-38.732 0-38.733 33.891-79.886 66.572-114.988 100.463-9.683 7.262-16.945 12.104-27.839 18.156 0 0-6.052-1.21-6.052-6.052zm13.314-478.106s-6.052-8.473 0-12.104c3.632-2.421 10.894 3.63 16.946 12.104 31.47 27.839 66.572 55.678 101.673 90.78 35.102 33.89 35.102 33.89 68.993 0 32.68-29.05 62.94-56.89 98.042-84.728 9.683-6.052 21.787-18.156 31.47-24.208 0 0 16.946-2.421 6.052 6.052-15.735 21.787-33.891 39.943-50.837 56.888-35.101 41.154-62.94 73.834-98.042 107.726-10.893 10.893-27.839 16.945-38.732 7.262-44.785-53.258-90.78-108.936-135.565-159.772zM565.837 489.93c52.047-52.047 111.357-102.884 159.773-153.72 6.052-3.631 19.366 0 13.314 10.893-30.26 36.312-58.099 73.835-91.99 108.936-45.995 52.047-50.837 33.891 0 96.832 30.26 27.839 50.837 62.94 78.676 90.78 13.314 9.682 19.366 18.155 13.314 29.049-9.683 4.841-16.946-4.842-16.946-4.842-53.257-52.047-104.094-102.883-150.089-148.878-6.052-6.052-13.314-21.788-6.052-29.05z"
    style="fill:#000;fill-opacity:1;fill-rule:nonzero;stroke:none"/></svg>