<svg xmlns="http://www.w3.org/2000/svg" viewBox="0 0 1000 1000"><path d="M524.437 609.667c-11.088-3.696-11.088-4.928-16.016-6.16-64.066-27.104-123.203-57.905-173.717-103.49-39.425-35.73-65.297-77.618-62.833-133.06 1.232-17.248 4.928-30.8 13.552-49.28-27.104-17.25-48.049-39.426-65.297-66.53 8.624-9.857 22.176-13.553 32.032-19.713-9.856 6.16-16.016 11.088-32.032 19.713-24.641 8.624-50.514 19.712-76.386 28.336-23.409 7.393-48.05 13.553-72.69 16.017-3.696 0-8.624 1.232-13.552-1.232-3.696-3.696 0-8.624 4.928-13.553 45.585-83.778 109.65-152.771 194.66-199.588 16.017-9.857 35.73-12.32 54.21-12.32 8.624 0 11.088-1.233 22.176 0 3.696 0 3.696 1.231 4.928 1.231-1.232 0-1.232-2.464-2.464-3.696 80.082-29.569 162.628-32.033 247.638-24.64 70.226 9.856 137.988 27.104 199.59 66.53 8.623 3.695 14.784 9.855 23.408 14.784-3.696 1.232-6.16 2.464-6.16 1.232 0 1.232 1.232 1.232 6.16 1.232 64.065 49.28 112.115 108.418 144.147 183.572 51.746 118.275 57.906 236.55 19.713 358.52-9.856 30.802-14.785 39.426-52.977 43.122-7.393 14.784-16.017 30.8-24.641 45.585 12.32-4.928 27.105-8.624 34.497 0 6.16 8.624-7.392 17.248-12.32 27.105-44.354 67.761-101.027 119.506-168.789 160.163-29.568 17.249-59.137 28.337-92.402 4.929-2.464 0-2.464-1.232-3.696-1.232l-1.232-1.232s-1.232 1.232-1.232 2.464c-44.353 23.408-83.778 9.856-119.507-19.713-43.121-33.265-73.922-75.154-93.634-126.899-20.945-59.137-3.696-118.275 49.281-158.932 13.552-9.856 25.873-20.944 39.425-29.569 2.71-1.97 7.269-1.108 12.197.616 4.066 1.356 8.501 3.204 12.444 4.313-5.545-1.356-8.748-2.71-12.444-4.313-2.834-1.355-6.037-2.71-10.965-4.312zM6.984 550.53C.824 485.232 9.45 422.399 26.697 360.797c1.232-7.392 3.696-12.32 9.856-16.016 32.033 36.96 65.298 76.386 96.098 115.81 46.818 60.37 87.475 124.436 124.436 190.965 23.408 46.818 41.889 94.867 49.28 146.612 7.393 52.977 2.465 102.258-1.231 151.54-1.232 14.784-12.32 11.088-19.713 8.624-29.569-11.088-55.441-28.337-81.314-46.817C84.602 821.577 20.537 699.605 6.984 550.53z"/></svg>