<svg width="1000" height="1000" viewBox="0 0 1000 1000" fill="none" xmlns="http://www.w3.org/2000/svg">
<path fill-rule="evenodd" clip-rule="evenodd" d="M500 995C773.381 995 995 773.381 995 500C995 226.619 773.381 5 500 5C226.619 5 5 226.619 5 500C5 773.381 226.619 995 500 995ZM201 285.731L346.731 140H415.99C397.232 150.822 335.188 228.016 319.317 285.731H201ZM486.691 140V285.731H346.731C356.591 255.671 391.75 184.441 453.505 140H486.691ZM514.828 285.731H656.23C623.333 207.238 569.898 155.872 547.293 140H514.828V285.731ZM798.355 285.731H683.645C665.609 242.445 633 182.709 586.251 140H651.18L798.355 285.731ZM315.709 714.268H201L348.174 860H413.104C366.355 817.291 333.745 757.555 315.709 714.268ZM343.124 714.268H484.527V860H452.062C429.457 844.128 376.022 792.761 343.124 714.268ZM512.663 714.268L512.663 860H545.85C607.605 815.559 642.764 744.329 652.623 714.269L512.663 714.268ZM652.623 860L798.355 714.269H680.038C664.166 771.984 602.122 849.178 583.365 860H652.623ZM396.813 608.542C401.815 594.161 404.316 578.061 404.316 560.241C404.316 541.796 401.971 525.852 397.282 512.409C392.905 498.966 386.809 488.025 378.993 479.584C371.49 470.83 362.581 464.421 352.264 460.357C342.26 455.981 331.787 453.792 320.845 453.792C315.843 453.792 310.529 454.574 304.901 456.137C299.587 457.7 295.21 460.045 291.771 463.171L291.302 462.702L358.829 336.089H297.398L231.747 464.578C223.931 479.584 217.523 495.059 212.521 511.003C207.831 526.634 205.486 543.516 205.486 561.648C205.486 579.155 207.831 594.942 212.521 609.011C217.523 623.079 224.4 634.958 233.154 644.65C241.907 654.341 252.38 661.844 264.573 667.159C276.765 672.161 290.208 674.662 304.901 674.662C319.282 674.662 332.569 672.161 344.761 667.159C356.953 661.844 367.426 654.341 376.18 644.65C384.933 634.646 391.811 622.61 396.813 608.542ZM339.603 511.94C347.106 524.445 350.857 540.389 350.857 559.772C350.857 580.093 346.793 596.662 338.665 609.48C330.849 621.985 319.751 628.237 305.37 628.237C290.989 628.237 279.735 622.141 271.607 609.948C263.478 597.443 259.414 581.031 259.414 560.71C259.414 551.019 260.509 542.109 262.697 533.981C264.885 525.852 268.012 518.818 272.076 512.878C276.14 506.626 280.985 501.78 286.613 498.341C292.24 494.902 298.649 493.183 305.839 493.183C320.845 493.183 332.1 499.435 339.603 511.94ZM722.256 412.995L721.318 668.097H776.184V336.089H696.933L634.565 578.999H632.689L568.913 336.089H493.414V668.097H544.529L543.591 412.995H544.997L610.18 668.097H654.26L720.849 412.995H722.256Z" fill="black"/>
</svg>
