<?xml version="1.0" encoding="utf-8"?>
<!-- Generator: Adobe Illustrator 26.0.1, SVG Export Plug-In . SVG Version: 6.00 Build 0)  -->
<svg version="1.1" xmlns="http://www.w3.org/2000/svg" xmlns:xlink="http://www.w3.org/1999/xlink" x="0px" y="0px"
	 viewBox="0 0 1000 1000" style="enable-background:new 0 0 1000 1000;" xml:space="preserve">
<g id="Layer_1">
</g>
<g id="Layer_3">
</g>
<g id="Layer_2">
	<g>
		<rect x="835.3" y="457.5" width="164.7" height="411.8"/>
		<path d="M998.9,242.5l-139.6,60.6c-14.9,6.9-25.2,21.7-25.2,37.8v66.4h1.1l146.4-64.1c10.3-4.6,18.3-14.9,18.3-27.5v-73.2H998.9z"
			/>
		<path d="M584.7,196.7c-167-117.8-399.2-77.8-517.1,89.2S-10.1,685.2,156.9,803c80.1,56.1,179.6,78.9,275.7,62.9l-59.5-131.6
			c-125.8,0-228.8-103-227.7-229.9c-1.1-17.2,1.1-33.2,4.6-49.2c27.5-123.5,148.7-201.3,272.3-173.9
			c105.2,22.9,179.6,115.5,179.6,223.1c0,13.7-1.1,28.6-4.6,42.3l76.6,167C791.8,546.8,751.8,314.5,584.7,196.7z"/>
		<polygon points="396,629.1 503.5,869.4 675.1,869.4 566.4,629.1 		"/>
	</g>
</g>
</svg>
