<svg xmlns="http://www.w3.org/2000/svg" width="1000" height="1000">
  <path d="M5 500.496C5 225.55 226.54 5 500.496 5c272.968 0 494.507 222.528 494.507 494.507 0 274.946-222.528 495.496-494.507 495.496C225.55 995.003 5 772.475 5 500.496zm313.518-207.693c0 163.188 0 321.43 2.967 480.661 0 51.429 35.604 78.132 90.989 82.088h180c78.133 0 108.792-30.66 111.76-112.747V292.803H600.386v461.87h-180v-461.87zm0-31.648h134.505v462.858h116.704V256.21H698.3V155.33H318.518z" style="fill:#000;fill-opacity:1;fill-rule:nonzero;stroke:none;"/>
</svg>
