<svg xmlns="http://www.w3.org/2000/svg" width="1000" height="1000">
  <path d="M500.496 5C223.572 5 5 229.506 5 500.002c0 276.43 224.506 495.001 495.002 495.001 276.43 0 495.001-224.506 495.001-495.001C995.003 226.539 773.464 5 500.496 5zM214.671 653.793c19.78-11.868 36.594-22.747 52.418-34.615 4.945-3.956 10.879-9.89 10.879-13.846.989-43.517 0-86.045 0-130.55-19.78 10.879-38.572 22.747-57.363 33.626-9.89-26.703-5.934-43.516 18.791-53.407 34.616-14.835 49.451-38.571 43.517-76.154-.989-15.824-3.956-26.703-18.791-34.615-5.934-3.956-10.88-9.89-18.792-13.846-26.703-10.88-28.68-29.67-20.769-57.363 5.934 1.978 9.89 5.934 14.835 9.89 82.089 55.385 166.155 111.759 248.243 168.132 15.824 9.89 24.725 10.88 40.55 1.978 84.066-53.406 168.132-104.835 254.176-159.23 3.956-1.979 8.901-5.935 17.803-8.902 0 13.846 0 22.747-3.957 34.616 0 3.956-2.967 8.9-6.923 10.879-13.846 9.89-29.67 17.802-42.527 27.692-6.923 2.967-10.88 11.868-12.857 20.77-.99 3.955 0 8.9 0 15.824-4.946 31.648 5.934 50.44 34.615 66.264 31.649 16.813 27.692 18.79 24.725 58.351-18.79-10.879-38.571-21.758-57.362-35.604-1.978 4.945-2.967 6.923-2.967 11.868 0 35.605 0 72.198-1.978 108.792-1.979 12.857 1.978 20.769 12.857 26.703 17.802 10.88 34.615 24.725 56.374 37.583-91.979 57.362-182.968 116.703-271.98 174.066-9.89-26.703-4.944-43.517 15.825-55.385 60.33-37.582 120.66-74.176 179.011-110.77 3.956-.988 7.913-4.944 12.858-9.89-10.88-6.923-20.77-15.824-29.67-20.769-5.935-1.978-13.847 0-17.803 4.945-57.363 34.616-112.748 71.21-170.11 109.78-10.88 7.913-19.78 7.913-31.649-1.977-52.418-36.594-105.825-73.187-159.231-111.759-23.737-15.824-26.704-15.824-51.43 8.901 6.924 3.956 12.858 8.902 18.792 12.858 54.396 38.571 106.814 76.154 162.199 112.747 17.802 11.868 24.725 22.748 20.769 43.517-.99 4.945 0 9.89 0 19.78-89.011-65.275-174.067-127.583-263.078-190.88zm102.858-71.209c0 5.934 3.956 11.869 9.89 15.825A8634.367 8634.367 0 0 0 493.573 717.09c4.945 3.956 14.835 3.956 18.791 0 57.363-36.593 113.737-73.187 170.11-111.758 3.957-3.956 9.89-10.88 9.89-16.814.99-51.428.99-102.857 3.957-152.308v-45.494c-24.725 10.879-35.605 24.725-35.605 49.45.99 39.56 0 79.121-2.967 119.671 0 4.945-5.934 13.846-10.879 17.802-42.527 29.67-87.033 57.363-130.55 87.034-8.9 6.923-14.835 6.923-22.747-1.979-43.517-29.67-88.022-58.351-130.55-89.01-4.945-4.946-8.901-13.847-8.901-18.792V426.32c1.978-22.747-6.923-35.604-32.637-40.55v4.946c-1.978 64.285-3.956 128.571-3.956 191.868zm40.55-279.89V196.868l4.944 1.978c25.715 10.879 38.572 28.681 32.638 57.363-.99 9.89 0 18.79 0 28.681 0 17.802 9.89 22.747 23.736 13.846 26.703-17.802 55.385-32.637 79.121-50.44 9.89-5.934 15.824-5.934 25.715 0 24.725 17.803 49.45 34.616 76.154 52.418 13.846 10.88 25.714 4.945 25.714-13.846.989-13.846.989-26.703 0-40.55 0-14.835 3.956-24.725 16.813-30.659 7.912-3.956 11.868-6.923 21.759-12.857v12.857c0 21.758-2.968 42.528 0 61.319 4.945 32.637-8.902 51.429-37.583 67.253-36.594 20.77-72.198 45.495-107.803 71.209-7.912 4.945-13.846 4.945-21.758-2.967-41.538-28.682-84.066-59.341-127.583-88.022-8.9-4.945-11.868-11.869-11.868-21.759zm33.626 238.352c0 2.967 3.956 8.9 7.912 11.868 32.637 22.747 63.297 43.517 95.934 66.264 5.934 1.978 12.857 1.978 18.791 0 33.627-20.77 63.297-41.539 95.935-62.308 4.945-3.956 8.9-12.857 8.9-19.78 2.968-24.726 2.968-51.43 2.968-78.132 1.978-5.935 0-11.869 0-18.792-34.616 20.77-67.253 37.583-95.934 58.352-14.836 9.89-24.726 9.89-38.572 0-28.681-21.758-60.33-41.538-89.011-61.319-2.967 0-3.956 0-6.923 2.967zM446.1 327.419c20.77 14.835 40.55 27.692 59.341 39.56 1.978 1.978 5.934 1.978 6.923 0 19.78-11.868 38.572-22.747 61.32-38.571-20.77-15.825-39.561-25.715-59.342-40.55-1.978-.989-6.923-.989-8.9 0-18.792 12.857-38.572 24.725-59.342 39.56z" style="fill:#000;fill-opacity:1;fill-rule:nonzero;stroke:none;"/>
</svg>
