<svg xmlns="http://www.w3.org/2000/svg" width="1000" height="1000">
  <path d="M5 500.496c0 271.98 220.55 494.507 495.496 494.507 271.98 0 494.507-220.55 494.507-495.496C995.003 227.528 773.464 5 500.496 5 226.54 5 5 225.55 5 500.496zm230.44-67.253c0-155.275 115.715-275.935 265.056-275.935 153.297 0 276.924 116.704 276.924 270.99 0 149.341-117.693 273.957-268.023 273.957-153.297 0-273.957-120.66-273.957-269.012zm36.594 381.76c4.945-49.451-4.945-41.539 45.495-46.484h390.66c28.682 0 28.682 0 28.682 29.67-2.967 45.495 5.934 36.594-40.55 36.594H296.759c-14.835 4.945-24.725-2.967-24.725-19.78zm24.725-386.705c0 111.759 91.979 207.693 206.704 207.693 112.748 0 208.682-91.978 208.682-202.748 0-116.704-90.99-212.638-208.682-212.638-110.77 0-202.748 90.99-206.704 207.693z" style="fill:#000;fill-opacity:1;fill-rule:nonzero;stroke:none;"/>
</svg>
