<svg xmlns="http://www.w3.org/2000/svg" width="1000" height="1000">
  <path d="M320.666 667.08c-1.247-72.317 64.837-118.45 130.92-93.513 13.716 4.987 29.925 7.48 46.134 7.48 72.317 1.248 137.154-41.146 168.325-109.723 24.938-63.59 97.255-86.033 153.364-47.38 24.937 16.209 52.368 21.196 82.292 13.715 44.887-7.48 76.059-48.627 79.8-92.267 6.233-49.874-23.691-91.02-68.578-108.477-43.64-14.962-93.514 0-118.451 38.653-37.406 54.862-115.958 59.849-160.845 13.715-37.406-41.146-83.54-59.849-138.4-59.849-56.11 0-91.021-52.368-73.565-105.983 2.493-9.974 4.987-17.456 4.987-29.924 1.247-39.9-31.171-78.552-76.058-84.786C306.95 5 269.545 32.43 260.817 77.318c-9.975 43.64 16.21 86.033 59.85 97.254 58.601 16.21 77.304 77.306 42.392 127.18-29.924 37.406-42.393 81.046-32.418 132.167 11.222 64.836-49.874 120.945-115.958 105.982-8.728-3.74-16.209-4.987-22.443-4.987-77.305-3.74-143.388 57.355-145.882 134.66 0 78.552 61.096 143.389 139.648 139.648 78.552 0 140.894-64.836 134.66-142.141zM17.68 345.393c3.74 57.355 53.615 103.489 112.217 103.489 56.109-3.74 102.242-51.121 102.242-109.723-2.493-58.603-49.874-104.736-108.476-104.736-59.85 2.493-105.983 48.627-105.983 110.97zM345.603 841.64c0 83.54 68.577 153.363 152.117 153.363 84.786-4.987 150.87-69.824 153.363-153.363 0-83.54-68.577-154.61-153.363-154.61-83.54 0-152.117 71.07-152.117 154.61zM575.025 92.28c0 46.134 37.406 84.786 86.033 84.786 46.134 0 83.54-38.652 83.54-84.786 0-49.874-37.406-87.28-83.54-87.28-51.121 0-86.033 39.9-86.033 87.28zm109.723 583.529c-2.493 76.058 59.85 139.648 137.154 139.648 77.306 0 140.895-61.096 140.895-137.155 2.494-76.058-61.096-142.141-138.4-142.141-76.059 0-139.649 61.096-139.649 139.648z" style="fill:#000;fill-opacity:1;fill-rule:nonzero;stroke:none;"/>
</svg>
