<svg xmlns="http://www.w3.org/2000/svg" width="1000" height="1000">
  <path d="M500.496 995.003c275.935 0 494.507-224.506 494.507-495.496C995.003 226.54 773.464 5 500.496 5 223.572 5 5 229.506 5 499.507c0 276.924 224.506 495.496 495.496 495.496zM238.407 757.64c8.902-24.725 16.814-39.56 41.539-43.517 70.22-10.879 138.462-30.66 197.803-68.242 34.615-20.769 65.275-45.494 92.967-72.198 27.693-24.725 41.539-56.374 35.605-97.912 12.857 23.736 18.791 44.505 9.89 69.23-9.89 33.627-33.627 59.342-60.33 82.089-70.22 57.363-152.308 93.956-239.341 114.726-24.726 5.934-48.462 9.89-78.133 15.824zm20.77 12.857c8.9-.989 16.813-4.945 23.736-6.923 90-20.77 179.012-48.462 254.177-100.88 51.428-35.604 88.022-78.132 98.901-145.385 10.88 34.616 7.912 64.286-9.89 93.957-40.55 59.34-94.945 102.857-161.21 130.55-49.45 20.769-105.824 33.626-157.253 49.45-18.79 6.923-33.626-2.967-48.461-20.769zm6.923-68.242c6.923-21.758 14.835-35.604 35.604-39.56 82.088-16.814 158.243-53.407 226.485-104.836 14.835-11.868 27.692-26.703 38.571-40.55 14.835-20.769 22.747-44.505 14.835-69.23 18.792 17.802 19.78 51.428 6.923 80.11-18.79 37.582-51.428 63.296-85.055 86.044-64.286 43.516-136.484 70.22-214.616 83.077-5.934 1.978-12.857 1.978-22.747 4.945zm43.516 109.78c.99-.988.99-3.955 3.956-5.933 93.957-14.836 181.98-49.451 260.111-108.792 23.737-16.813 44.506-40.55 62.308-65.275 31.649-50.44 22.747-100.88-5.934-149.341-4.945-5.934-10.88-12.857-13.846-19.78 70.22 58.351 82.088 130.55 27.692 203.737-34.615 51.428-85.055 84.066-140.44 105.824-51.429 21.758-105.824 36.594-159.231 51.429-9.89 2.967-22.747-5.934-34.616-11.868zm21.759-445.056c26.703-57.363 72.198-94.945 127.583-124.616 59.34-33.626 123.626-53.406 190.88-69.23 16.813-2.968 24.725 4.944 32.637 14.835-46.484 14.835-92.968 27.692-138.462 43.516-55.385 20.77-103.847 53.407-148.352 91.979-61.32 55.384-71.21 125.604-24.726 194.835 1.978 5.934 5.934 9.89 8.901 16.814-48.461-37.583-79.12-104.836-48.461-168.133zm27.692 105.825c-11.868-27.693-5.934-58.352 13.846-88.023 58.352-81.099 139.451-126.593 228.463-154.286 28.681-10.879 56.373-14.835 83.077-23.736 21.758-5.934 37.582 0 52.418 20.77-39.561 9.89-75.165 20.768-111.759 30.659-55.385 16.813-109.78 38.571-157.253 72.198-28.682 20.769-54.396 46.483-77.143 75.165-13.847 19.78-20.77 45.494-31.649 67.253zm21.758-20.77c17.803-48.461 54.396-79.12 96.924-106.813 83.077-56.374 174.066-87.033 270.99-102.858 2.967 0 5.934 0 8.9.99-5.933 21.758-14.834 36.593-41.538 41.538-72.198 11.868-141.429 31.648-205.715 70.22-39.56 24.725-76.154 50.44-102.857 90-12.857 21.759-21.758 46.484-15.824 79.121-14.836-26.703-20.77-47.472-10.88-72.198zm26.704 19.78c18.791-26.703 41.538-51.428 67.253-72.197 71.209-57.363 155.275-87.034 245.275-101.869h10.88c-7.913 20.77-17.803 33.627-38.572 38.572-83.077 15.824-158.242 53.407-225.495 106.813-34.616 25.715-60.33 59.341-51.43 108.792-17.801-20.77-24.724-54.396-7.911-80.11z" style="fill:#000;fill-opacity:1;fill-rule:nonzero;stroke:none;"/>
</svg>
