<svg xmlns="http://www.w3.org/2000/svg" width="1000" height="1000">
  <path d="M447.739 574.573h103.345l-51.673 91.601zM4.999 600.41c0-43.451 12.919-84.555 32.883-124.483 19.965-38.755 51.673-72.811 91.601-104.52L197.597 55.5l139.75 217.26c51.673-12.92 106.869-19.965 163.239-19.965 56.37 0 111.565 7.046 163.237 19.964L803.574 55.5l70.462 315.907c37.58 31.709 66.94 65.765 89.253 104.52 22.313 39.928 31.708 81.032 31.708 124.483 0 61.068-22.313 118.612-66.94 172.633-43.451 52.847-102.17 93.95-177.33 123.31C672.044 926.885 591.012 944.5 501.76 944.5c-90.427 0-174.982-15.267-251.316-48.15-72.811-31.707-133.879-70.462-177.33-123.309C28.486 719.022 5 661.477 5 600.41zm187.9-83.38h32.883l106.868-92.776h-59.893zm166.762-14.093 138.576 240.747L641.51 504.111l-34.056-21.139-32.883 54.021h-150.32l-29.36-54.021zm310.034-78.683 106.868 92.776h34.057l-82.206-92.776z" style="fill:#000;fill-opacity:1;fill-rule:nonzero;stroke:none;"/>
</svg>
