<svg xmlns="http://www.w3.org/2000/svg" viewBox="0 0 1000 1000"><path d="M529.605 246.25c-22.044-14.695-42.862-28.166-58.782-41.637-26.942-29.39-26.942-64.905-6.123-86.948 22.043-22.043 58.781-22.043 85.723 0 48.985 57.558 97.97 106.542 150.629 162.875 19.594 23.268 24.492 56.333 0 79.6-52.659 57.558-101.644 113.89-157.977 164.1-19.594 20.819-56.332 20.819-78.375 0-20.819-20.819-20.819-57.557 6.123-79.6 22.043-20.82 44.086-42.862 58.782-62.456-51.435-14.696-100.42-7.348-143.281 19.594-93.072 42.861-148.18 150.628-142.057 249.823 13.471 113.89 84.5 199.613 191.042 221.656 157.976 42.862 314.728-79.6 314.728-242.475V46.637C750.037 18.471 768.406 5 806.369 5c36.739 0 51.434 13.47 51.434 35.514v590.268c0 170.223-121.237 319.627-285.337 356.365-192.265 41.637-384.531-86.948-421.27-277.989-48.985-242.475 106.542-442.089 356.365-449.437h7.348c14.696-1.224 22.043-6.123 14.696-13.47z"/></svg>