<svg xmlns="http://www.w3.org/2000/svg" width="1000" height="1000">
  <path d="M500.496 995.003c275.935 0 494.507-224.506 494.507-495.496C995.003 226.54 773.464 5 500.496 5 223.572 5 5 229.506 5 499.507c0 276.924 224.506 495.496 495.496 495.496zM210.715 435.221c73.187-37.582 233.407-2.967 295.715 150.33 5.934-15.824 9.89-28.681 13.846-40.55 21.759-57.362 39.561-114.725 63.297-169.12 18.792-48.462 48.462-91.979 90.99-124.616 38.571-27.693 80.11-38.572 125.605-39.561-3.957 21.758-6.924 42.528-10.88 63.297-5.934 27.692-10.879 56.374-18.79 84.066-12.858 44.506-45.496 71.21-85.056 90.99-29.67 14.835-60.33 23.736-94.946 19.78-3.956 0-8.9 3.956-11.868 6.923-18.791 24.725-27.692 53.407-35.604 83.077-11.868 45.495-11.868 92.967-8.901 137.473 1.978 24.725 7.912 48.462 11.868 72.198 4.945 23.736 0 39.56-19.78 49.45-12.858 6.924-27.693 5.935-40.55 0-15.824-6.922-22.747-17.802-20.77-34.615 3.957-24.725 8.902-49.45 10.88-73.187 1.978-36.593 5.934-73.187 4.945-108.791-.99-36.594-17.802-68.242-47.473-90.99-5.934 7.912-10.879 15.825-16.813 21.759-28.681 31.648-76.154 33.626-109.78 4.945-15.825-10.88-27.693-25.715-40.55-39.56-18.792-21.76-36.594-42.529-55.385-63.298z" style="fill:#000;fill-opacity:1;fill-rule:nonzero;stroke:none;"/>
</svg>
