<svg xmlns="http://www.w3.org/2000/svg" width="1000" height="1000">
  <path d="M5 500.496c0 89.011 22.747 172.089 67.253 249.232 44.506 74.176 103.846 133.517 178.023 178.022 77.143 44.506 160.22 67.253 250.22 67.253 89.011 0 172.089-22.747 249.232-67.253 74.176-44.505 133.517-103.846 178.022-178.022 44.506-77.143 67.253-160.22 67.253-250.22 0-89.012-22.747-172.09-67.253-249.232-44.505-74.177-103.846-133.517-178.022-178.023C672.585 27.747 589.508 5 500.496 5c-90 0-173.077 22.747-250.22 67.253-74.177 44.506-133.517 103.846-178.023 178.023C27.747 327.419 5 410.496 5 500.496zm116.704 48.462a1783.224 1783.224 0 0 1 0-102.858c0-5.934 6.923-15.824 11.868-16.813 41.538-8.901 81.099-15.824 125.605-24.725v184.945c-41.539-7.912-83.078-14.835-122.638-23.736-5.934 0-14.835-10.88-14.835-16.813zm6.923-164.177c24.725-45.494 47.472-90 70.22-135.494 3.956.989 6.923 3.956 9.89 5.934 14.835 36.593 30.66 72.198 44.506 112.747-39.561 7.912-77.144 15.824-115.715 22.748-2.967-1.978-5.934-4.946-8.901-5.935zm2.967 231.43c1.978-2.967 4.945-5.934 5.934-8.901 37.582 5.934 74.176 11.868 116.704 18.791-16.814 41.539-30.66 79.121-45.495 114.726-2.967.989-5.934 2.967-7.912 3.956-23.737-42.528-46.484-86.045-69.231-128.572zM237.418 767.53c16.814-44.506 32.638-80.11 48.462-122.638 25.714 25.715 47.473 48.462 71.21 74.176-36.594 15.825-74.177 29.67-119.672 48.462zm3.956-530.112c2.967-2.967 4.945-3.956 7.913-6.923 35.604 13.846 71.209 29.67 107.802 44.506-23.736 25.714-46.484 46.484-71.209 72.198-15.824-38.572-29.67-74.176-44.506-109.78zm18.792-48.461c44.505-22.748 87.033-47.473 140.44-74.176-8.901 48.461-14.835 86.044-21.759 128.571-39.56-15.824-77.143-29.67-113.736-44.505-1.978-3.956-2.967-6.923-4.945-9.89zm1.978 617.145c0-2.967.989-6.924 2.967-9.89 36.593-13.847 74.176-29.671 113.736-45.495 8.902 41.538 15.825 78.132 22.748 115.714-2.967 2.967-3.956 5.935-6.923 7.913-44.506-22.748-89.012-45.495-132.528-68.242zm41.538-225.496V414.452c52.418 27.692 103.847 53.407 164.177 83.077-60.33 29.67-110.77 54.396-164.177 83.077zm7.912 35.605c48.462-24.726 95.935-48.462 143.408-71.21 2.967.99 3.956 2.968 4.945 3.957-22.748 47.473-46.484 93.956-71.21 144.396-26.703-26.703-51.428-50.44-77.143-77.143zm1.978-237.364c26.704-25.714 51.43-49.45 77.144-75.165 22.747 46.484 46.483 93.957 69.23 141.43-.988.988-1.977 2.966-3.955 3.955-47.473-22.747-93.957-47.472-142.419-70.22zm100.88-129.56c8.901-43.517 14.835-82.089 22.747-120.66 1.978-6.923 12.857-12.857 20.77-17.803.989-1.978 1.978 0 3.956 0 35.604 0 71.209.99 108.791 2.968 9.89 42.527 19.78 87.033 30.66 135.495h-93.957zm2.967 498.463h182.968c-6.923 39.56-13.847 80.11-22.748 119.67-1.978 5.935-11.868 14.836-18.791 15.825-22.747 2.967-45.495 2.967-67.253 1.978-51.429-1.978-51.429-1.978-59.34-50.44-4.946-26.703-8.902-55.385-14.836-87.033zm6.923-44.506c27.692-55.385 54.396-106.813 83.077-165.165 29.67 58.352 55.385 107.802 84.066 165.165zm0-412.419h167.143c-28.68 56.374-54.395 107.803-84.066 165.166-28.681-57.363-54.396-108.792-83.077-165.166zM548.958 497.53c58.352-29.67 111.758-57.363 167.143-84.066v168.132c-55.385-28.681-108.791-55.384-167.143-84.066zm5.934 51.429c.989-.99 2.967-2.967 3.956-5.934 47.473 24.725 93.956 47.472 145.385 73.187-27.692 24.725-53.407 45.494-81.1 68.242-21.757-41.539-44.505-88.022-68.241-135.495zm0-103.847c23.736-47.472 46.484-94.945 71.209-143.407 24.725 27.693 47.473 51.429 73.187 79.121-44.506 20.77-91.978 45.495-138.462 69.231-1.978-1.978-2.967-3.956-5.934-4.945zm58.352-323.407c55.385 14.835 99.89 38.571 144.396 74.176-42.528 15.824-80.11 31.648-119.67 47.472-8.902-41.538-15.825-78.132-24.726-121.648zM617.2 866.43c5.934-35.604 11.868-73.187 18.791-115.714 41.539 15.824 79.121 31.648 117.693 45.494 0 2.967.989 5.935.989 8.902-42.528 22.747-86.044 45.494-128.572 68.242-2.967-.99-5.934-3.957-8.901-6.924zM657.75 275c39.56-15.824 77.143-30.66 119.67-47.473-16.813 42.528-31.648 80.11-47.473 118.682-25.714-24.725-46.483-45.495-72.198-71.21zm.988 444.067c25.715-22.747 48.462-44.505 73.188-67.253 12.857 32.638 28.68 70.22 47.472 115.715-46.483-18.791-82.088-32.637-120.66-48.462zm96.924-131.539V404.562c43.516 6.923 83.077 14.835 123.627 22.747 6.923 0 13.846 9.89 13.846 17.802 2.967 25.715 1.978 52.418 3.956 80.11 2.967 32.638-16.813 42.528-45.495 46.484-31.648 4.945-62.308 9.89-95.934 15.824zm5.934 38.572c41.539-8.901 79.121-15.824 115.715-22.747 2.967 2.967 5.934 3.956 8.9 6.923L817.97 743.794c-2.967 0-7.912-1.978-10.88-1.978-13.846-36.594-27.692-74.176-45.494-115.715zm0-258.133c17.802-44.505 31.648-80.11 50.44-125.605 26.703 49.451 49.45 91.979 72.198 135.495-1.978 2.967-3.956 5.934-6.923 7.912-36.594-4.945-74.176-10.879-115.715-17.802z" style="fill:#000;fill-opacity:1;fill-rule:nonzero;stroke:none;"/>
</svg>
