<svg xmlns="http://www.w3.org/2000/svg" viewBox="0 0 1000 1000"><path d="m894.114 5-12.98 79.059c-42.48 239.536-86.139 479.072-128.618 717.428 0 23.6-10.62 28.32-28.32 28.32H597.938c-22.42 0-27.14-4.72-22.42-28.32 14.16-64.899 27.14-126.258 36.58-191.157 3.54-9.44 3.54-15.34 3.54-29.5H377.282c-18.88 0-27.14 3.54-27.14 20.06-14.16 69.62-24.78 140.418-38.939 210.037 0 8.26-3.54 18.88-14.16 27.14-60.179 51.919-121.538 99.118-181.717 151.037 0 0-5.9 0-9.44 5.9 3.54-31.86 9.44-53.1 14.16-79.059 42.48-240.716 87.319-480.252 126.258-718.608 3.54-17.7 14.16-21.24 24.78-21.24h126.258c22.42 0 27.14 3.54 22.42 21.24-14.16 73.159-22.42 143.958-38.94 218.296 0 16.52 5.9 24.78 21.24 24.78h219.476c15.34 0 18.88-4.72 24.78-22.42 12.98-76.698 25.96-151.037 44.839-225.376 0-12.98 2.36-20.06 10.62-30.68C758.416 114.738 819.775 60.46 881.134 13.26c4.72 0 4.72-3.54 12.98-8.26z"/></svg>