<svg xmlns="http://www.w3.org/2000/svg" width="1000" height="1000">
  <path d="M319.208 120.33c-11.222 2.495-21.197 2.495-33.665 9.976-17.456 7.48-23.69 29.924-17.456 51.12 9.975 16.21 36.159 19.95 56.108 16.21 14.963-9.975 19.95-32.418 9.975-52.368 0-9.975-9.975-14.962-14.962-24.937zM5 562.966c0 19.95 13.715 36.159 34.912 36.159 22.443-3.74 38.653-21.197 38.653-41.146 0-19.95-16.21-31.172-38.653-31.172C18.715 526.806 5 541.768 5 562.965zm0-142.142c0 32.419 21.197 59.85 57.355 59.85 27.431 0 53.615-34.913 53.615-59.85 0-29.924-26.184-52.368-57.355-52.368C26.197 368.455 5 385.911 5 420.823zm34.912 269.321c0 24.937 18.703 43.64 43.64 43.64s42.393-18.703 47.38-43.64c0-27.43-22.443-48.627-47.38-48.627-21.197 0-43.64 21.196-43.64 48.627zm34.912-392.76c0 18.703 19.95 41.147 41.146 41.147 14.962 0 36.159-22.444 36.159-41.146 0-14.963-17.456-31.172-36.159-31.172-26.184 0-37.405 16.21-41.146 31.172zm33.665 496.25c0 4.987 11.222 19.95 22.443 26.183 16.21 4.988 37.406-11.221 37.406-26.184 0-17.456-16.209-32.418-33.665-32.418-14.962 0-26.184 11.222-26.184 32.418zm0-239.397c0 36.159 32.418 62.343 68.577 62.343 32.418-7.481 63.59-33.665 63.59-69.824 0-31.172-31.172-57.356-67.33-57.356-42.394 0-68.578 26.184-64.837 64.837zm53.615 138.401c0 32.418 21.196 53.615 53.615 53.615 33.665 0 54.861-14.962 54.861-47.38 7.482-24.938-21.196-57.356-52.368-57.356-27.43-6.234-56.108 21.196-56.108 51.121zm11.222-286.777c31.171 7.481 44.886-48.627 3.74-57.355-32.418-8.728-43.64 41.146-3.74 57.355zm3.74 456.35c0 36.158 32.418 61.095 68.577 61.095 32.419 0 62.343-29.924 62.343-61.095 0-37.406-29.924-68.578-67.33-68.578s-63.59 31.172-63.59 68.578zm0-602.232c0 22.443 26.184 41.146 47.38 41.146 24.938 7.481 53.616-18.703 46.134-47.38 0-24.938-21.196-39.9-46.133-39.9-26.184 0-47.38 18.703-47.38 46.134zm6.234-103.49c-6.234 16.21 14.963 31.172 32.419 24.938 42.393 0 28.677-51.121-12.469-51.121-4.987 0-19.95 14.962-19.95 26.184zm34.912 240.644c-8.728 8.728-8.728 28.678 6.235 34.912 32.418 13.715 32.418 36.159 32.418 63.59 0 42.393 28.678 67.33 72.318 67.33 36.158-4.987 68.577-36.159 68.577-73.565 0-43.64-42.393-83.539-86.033-72.317-18.703 3.74-33.665 8.728-41.147-16.21 0 0-2.493-3.74-2.493-9.974-18.703-11.222-33.665-11.222-49.875 6.234zm49.875-58.602c0 14.962 16.209 37.405 29.924 29.924 9.975 0 21.197-8.728 41.147-24.937-27.431-14.962-34.912-27.43-46.134-27.43-8.728 0-22.444 17.455-24.937 22.443zm43.64-271.815c-26.184 21.197-3.74 36.159 7.48 53.615 9.976-7.481 24.938-7.481 31.172-17.456 14.962-9.975 14.962-23.69 0-39.9-11.221-12.468-26.184-6.234-38.652 3.741zm7.48 679.537c0 37.406 24.938 56.108 57.356 56.108 31.172 0 51.121-26.184 51.121-56.108 0-31.172-19.95-53.615-51.12-53.615-32.42 0-57.356 22.443-57.356 53.615zm0-122.192c4.988 22.443 19.95 43.64 42.394 43.64 14.962 0 36.159-21.197 36.159-43.64 0-18.703-14.963-28.678-36.16-28.678-27.43-4.987-42.392 9.975-42.392 28.678zm0-352.86c0 39.899 24.938 67.33 63.59 67.33 29.925 4.987 66.084-29.925 66.084-63.59 7.481-29.924-26.184-61.096-62.343-61.096-31.171-6.234-62.343 18.703-67.33 57.356zm19.95 593.503c0 22.444 22.444 37.406 43.64 37.406 14.963 0 29.925-18.703 29.925-37.406 0-21.196-14.962-37.405-36.159-37.405-21.196-2.494-37.405 16.209-37.405 37.405zm37.406-726.917c0 27.43 21.197 49.874 46.134 49.874 21.196 0 41.146-27.43 41.146-52.368 0-26.184-24.937-47.38-51.121-47.38-19.95 4.987-36.159 24.937-36.159 49.874zm16.21 826.666c0 36.159 51.12 36.159 51.12-4.988 0-39.9-53.614-24.937-51.12 4.988zm14.962-401.488c0 36.159 19.95 68.577 56.108 68.577 33.665 3.74 73.565-32.418 73.565-62.343 0-31.171-29.925-63.59-61.096-67.33-32.419 0-63.59 24.937-68.577 61.096zm0-142.142c0 39.9 26.184 59.85 56.108 59.85 33.665-6.235 52.368-27.431 52.368-59.85 0-29.924-18.703-54.861-52.368-52.368-36.159 0-56.108 22.444-56.108 52.368zm36.158 422.685c0 39.9 27.431 58.602 63.59 58.602 34.912 0 66.084-24.937 66.084-62.343 0-31.171-31.172-56.108-66.084-56.108-43.64 0-63.59 18.702-63.59 59.849zm16.21-138.401c0 19.95 19.95 41.146 47.38 41.146 26.184 0 46.134-14.962 46.134-41.146 0-27.431-19.95-42.394-46.134-48.628-27.43 0-47.38 21.197-47.38 48.628zm16.209-654.6c0 21.197 21.196 42.393 46.133 47.38 27.431 0 48.628-14.962 51.122-47.38 0-21.197-19.95-34.912-46.134-42.393-26.184 0-47.38 14.962-51.121 42.393zm21.196 150.87c0 48.627 18.703 64.836 61.096 64.836s63.59-16.209 63.59-58.602-21.197-62.343-63.59-62.343c-36.159 0-61.096 19.95-61.096 56.109zm14.963 132.166c0 19.95 21.196 42.393 41.146 42.393 17.456 0 32.418-22.443 32.418-42.393 0-22.443-12.468-32.418-36.159-32.418-22.443 0-37.405 9.975-37.405 32.418zm21.196 615.947c0 27.431 16.21 42.394 37.406 42.394 21.196 0 36.159-19.95 36.159-37.406 0-14.962-21.197-34.912-42.393-34.912-14.963 0-31.172 8.728-31.172 29.924zm16.21-460.09c0 22.444 8.727 31.172 29.924 31.172 27.43 6.234 42.393-11.222 42.393-31.172 0-21.196-14.962-36.158-36.159-36.158-21.196 0-36.159 14.962-36.159 36.158zm14.962 130.92c6.234 36.16 29.924 63.59 67.33 57.356 37.405 0 69.824-31.172 62.343-61.096 0-33.665-31.172-58.602-67.33-58.602-34.913 0-62.343 24.937-62.343 62.342zm6.234 129.673c-6.234 18.703 2.494 33.666 21.196 26.184 8.728 0 19.95-3.74 24.937-7.48 4.988-22.444-4.987-37.406-22.443-37.406-8.728 0-21.196 9.974-23.69 18.702zm29.924 114.711c0 28.678 31.172 58.602 62.343 58.602 26.184 0 47.38-24.937 47.38-58.602 0-29.924-21.196-51.12-52.367-51.12-36.16 0-57.356 21.196-57.356 51.12zm21.197-478.793c0 52.368 19.95 74.812 72.318 74.812 42.393 0 73.564-34.912 73.564-74.812-3.74-37.405-39.9-74.811-73.564-74.811-44.887 0-72.318 32.418-72.318 74.811zm0-314.207c19.95 36.158 52.368 31.17 52.368-4.988 0-16.209-11.222-22.443-24.937-22.443-17.456 0-27.431 12.468-27.431 27.43zm47.38 674.549c0 26.184 24.938 56.108 58.603 56.108 23.69 0 56.108-26.184 56.108-56.108 0-27.431-27.43-53.615-56.108-53.615-26.184 0-53.615 26.184-58.603 53.615zm19.95-225.681c0 21.196 16.21 37.406 38.653 42.393 17.456 0 36.159-21.197 36.159-42.393 0-14.962-12.469-31.172-34.912-31.172-23.69 0-39.9 12.469-39.9 31.172zm0-260.593c0 27.43 21.197 48.627 53.615 41.146 21.197 0 41.146-18.703 41.146-47.38-4.987-24.938-27.43-39.9-54.861-39.9-18.703 0-39.9 18.703-39.9 46.134zm16.21-137.154c0 22.443 14.962 37.405 37.405 42.393 21.197 0 41.146-14.963 41.146-34.912 0-21.197-19.95-42.393-41.146-42.393-14.962 4.987-37.406 21.196-37.406 34.912zm22.443 512.458c0 17.456 1.247 27.43 23.69 32.418 16.21 0 37.406-21.197 32.418-32.418-4.987-14.963-19.95-26.184-27.43-29.925-27.431 3.74-28.678 14.962-28.678 29.925zm17.456 229.421c0 22.444 11.221 37.406 33.665 37.406 21.196 0 41.146-18.703 41.146-37.406 0-21.196-19.95-37.405-36.159-37.405-19.95 0-38.652 16.209-38.652 37.405zm33.665-411.462c0 21.196 14.962 36.158 41.146 36.158 31.172 0 46.134-8.728 46.134-43.64 0-24.937-14.962-44.886-46.134-44.886-19.95 0-41.146 19.95-41.146 52.368zM794.26 172.7c0 14.962 9.975 24.937 26.184 24.937 17.456 0 31.172-6.234 31.172-24.937 0-16.21-9.975-27.43-26.184-27.43-14.963 0-31.172 4.986-31.172 27.43zm16.21 124.686c6.234 31.171 34.911 56.108 68.576 56.108 36.16 0 61.096-24.937 61.096-56.108 6.235-37.406-24.937-64.837-67.33-64.837-34.912 0-62.343 21.197-62.343 64.837zm6.234 280.542c0 21.197 13.715 38.653 34.912 31.172 27.43 0 37.405-9.975 37.405-31.172 0-19.95-22.443-39.9-37.405-39.9-21.197 0-34.912 19.95-34.912 39.9zm13.715 120.945c0 32.419 21.197 47.38 58.602 47.38 29.925 0 57.356-21.196 51.121-53.614 0-24.937-31.171-57.355-57.355-57.355-24.937 0-52.368 32.418-52.368 63.59zm14.962 109.724c0 16.209 14.962 26.184 33.665 26.184 27.431 0 38.653-42.393 0-51.121-18.703 0-27.43 9.974-33.665 24.937zm37.406-312.961c0 24.937 26.184 51.12 57.355 51.12 32.419-4.987 47.38-19.949 54.862-57.355 0-28.677-22.443-51.12-54.862-51.12-34.912-6.235-61.096 22.443-57.355 57.355zm52.368 109.723c0 14.962 11.222 26.184 24.937 26.184 22.443 0 27.43-14.962 27.43-32.418 0-16.21-4.987-23.69-27.43-23.69-13.715 0-24.937 7.48-24.937 29.924zm0-225.68c0 17.455 11.222 26.183 32.418 26.183 14.962 0 19.95-8.728 19.95-29.925 0-16.209-12.469-27.43-27.431-27.43-19.95 0-24.937 17.456-24.937 31.171z" style="fill:#000;fill-opacity:1;fill-rule:nonzero;stroke:none;"/>
</svg>
