<svg xmlns="http://www.w3.org/2000/svg" viewBox="0 0 1000 1000"><path d="M500.496 5C223.572 5 5 229.506 5 500.002c0 276.43 224.506 495.001 495.002 495.001 276.43 0 495.001-224.506 495.001-495.001C995.003 226.539 773.464 5 500.496 5zM245.33 797.2V659.727c52.418-39.56 101.869-76.154 154.287-114.725 15.824-7.912 27.692-12.857 43.516 0 15.825 7.912 31.649 15.824 46.484 22.747 28.681 15.824 57.363 12.857 83.077-6.923 68.242-54.396 135.495-111.759 203.737-171.1 3.956-3.956 12.857-7.912 14.835-10.879 21.759 28.682 32.638 89.012 32.638 129.561 0 155.276-125.605 285.825-281.87 289.781h-270.99c-9.89 0-17.801-.989-25.714-.989zm0-200.77V212.694h317.474c63.297 0 143.407 45.495 193.847 101.868 6.923 8.902 6.923 16.814 0 24.726-71.21 57.363-142.418 122.638-217.583 181.978-3.956 2.967-20.77 2.967-28.682 0-14.835-7.912-30.66-14.835-51.428-22.747-28.682-20.77-54.396-17.802-83.078 1.978-43.516 31.649-87.033 64.286-130.55 95.935z"/></svg>