<svg xmlns="http://www.w3.org/2000/svg" width="1000" height="1000">
  <path d="M5 500.496C5 225.55 226.54 5 500.496 5c272.968 0 494.507 222.528 494.507 494.507 0 274.946-222.528 495.496-494.507 495.496C225.55 995.003 5 772.475 5 500.496zm167.143 171.1c0 9.89 2.967 13.846 9.89 16.813 104.836 60.33 208.683 119.67 312.53 180.99 7.911 4.945 11.867 1.977 19.78 0 102.857-61.32 207.692-120.66 310.55-180.99 5.934-2.967 10.879-6.923 10.879-13.846V310.605c0-7.912-4.945-11.868-8.901-13.846C722.035 235.44 617.2 176.1 514.342 114.781c-7.912-3.957-11.868-3.957-19.78 0-103.846 61.318-207.693 120.66-312.528 181.978-6.924 1.978-9.89 5.934-9.89 16.813v179.012zm68.242-41.539V344.232c0-5.934 1.978-11.868 9.89-15.824 82.089-47.473 164.177-92.968 244.287-140.44 7.912-4.945 11.868-4.945 19.78 0 81.1 47.472 161.21 92.967 242.309 140.44 6.923 3.956 10.879 9.89 10.879 15.824v280.88c0 10.88-3.956 14.835-10.88 19.78-81.098 46.484-163.186 93.957-242.308 140.44-7.912 2.967-11.868 2.967-19.78 0-80.11-46.483-162.198-93.956-244.286-142.418-7.913-2.967-9.89-6.923-9.89-12.857zm57.363-32.637c0 3.956 6.923 10.879 8.901 12.857 64.286 36.593 124.616 73.187 187.913 109.78 7.912 1.978 11.868 1.978 19.78-2.967 54.396-28.681 109.781-61.319 161.21-93.956 41.538-20.77 33.626-11.868 33.626-59.34 1.978-5.935-1.978-9.891-8.9-14.836C607.31 496.54 514.341 445.11 423.352 391.705c-4.945-1.978-8.901-3.956-13.846-5.935 31.648-17.802 61.319-37.582 90.99-53.406 1.977 0 7.911 0 9.89 3.956 41.538 21.758 81.098 45.494 121.648 67.253 4.945 1.978 6.923 5.934 6.923 14.835v65.275c0 3.956 1.978 8.901 3.956 10.88 19.78 11.867 44.506 24.724 66.264 38.57v-159.23c0-5.935-4.945-7.913-8.9-10.88-61.32-36.593-122.639-73.187-185.936-109.78-7.912-4.946-13.846-4.946-21.758 0-53.407 33.626-110.77 67.253-168.132 97.912-19.78 11.868-31.649 22.747-26.704 48.462 2.967 7.912 2.967 12.857 11.868 18.79 91.979 51.43 188.902 106.814 281.87 158.243 3.956 1.978 5.934 4.945 13.846 9.89-34.616 16.814-64.286 34.616-96.924 53.407-1.978 0-7.912 0-9.89-1.978-41.538-22.747-82.088-45.495-120.66-70.22-4.945-3.956-6.923-9.89-6.923-13.846-2.967-17.802-2.967-39.56 0-59.34 0-15.825-4.945-24.726-18.791-31.65-17.802-9.89-33.626-17.802-51.429-29.67-2.967 3.956-2.967 3.956-2.967 6.923z" style="fill:#000;fill-opacity:1;fill-rule:nonzero;stroke:none;"/>
</svg>
