<svg xmlns="http://www.w3.org/2000/svg" width="1000" height="1000">
  <path d="M500.496 5C223.572 5 5 229.506 5 500.002c0 276.43 224.506 495.001 495.002 495.001 276.43 0 495.001-224.506 495.001-495.001C995.003 226.539 773.464 5 500.496 5zM181.045 685.442v-361.98c0-72.197 51.428-126.593 125.604-136.483 66.264-8.902 129.561 41.538 146.374 107.802 1.979 12.857 1.979 25.715 1.979 38.572v128.572c0 9.89 3.956 13.846 14.835 13.846 18.791 0 37.582-.99 60.33-.99 9.89 0 11.868-5.933 11.868-12.856V323.463c0-57.363 29.67-98.902 82.088-122.638 52.418-24.726 102.857-13.846 146.374 24.725 30.66 22.747 43.517 57.363 43.517 97.913v364.946c0 68.242-57.363 129.56-127.583 131.539-74.176 2.967-136.484-47.473-144.396-118.682-1.978-50.44 0-100.88 0-150.33-1.978-21.758-1.978-21.758-24.726-21.758-13.846 2.967-30.659 2.967-47.472 2.967-9.89 0-14.835 1.978-14.835 15.824v134.506c0 68.242-47.473 124.616-113.737 137.473-85.055 11.868-160.22-50.44-160.22-134.506zm57.362 2.967c3.956 44.506 39.56 78.132 81.1 75.165 44.505-1.978 78.132-36.594 78.132-81.1.989-17.801 0-40.549 0-61.318v-70.22c0-4.945 0-11.868-8.901-7.912-34.616 10.879-69.231 17.802-99.89 30.66-26.704 13.845-46.485 38.57-50.44 71.208-2.968 14.835-2.968 30.66 0 43.517zm0-151.32h3.956c43.517-27.692 93.957-41.538 144.397-52.417 10.879 0 11.868-5.934 11.868-15.824-.99-50.44 0-100.88-.99-150.33 0-35.605-24.725-67.253-59.34-74.177-52.418-12.857-99.89 26.704-99.89 79.122-2.968 68.242-2.968 135.495 0 202.748zm359.013 152.31c2.967 24.725 12.857 43.517 31.648 60.33 26.703 16.813 56.374 19.78 84.066 6.923 29.67-16.813 44.506-42.528 44.506-74.176V468.848h-3.956c-44.506 29.67-94.946 44.505-146.374 53.406-4.945.99-9.89 6.924-9.89 11.869zm0-223.517h9.89c34.615-6.923 69.23-13.847 101.868-33.627 33.627-18.791 54.396-47.473 48.462-89.011v-24.725c0-42.528-36.594-77.144-78.132-77.144-43.517 0-79.121 31.649-82.088 74.176v136.484z" style="fill:#000;fill-opacity:1;fill-rule:nonzero;stroke:none;"/>
</svg>
