<svg xmlns="http://www.w3.org/2000/svg" viewBox="0 0 1000 1000"><path d="M749.728 72.253C824.2 116.462 883.54 175.803 927.75 250.276c44.803 77.143 67.253 160.418 67.253 249.726 0 89.308-22.45 172.583-67.253 249.726C883.541 824.2 824.2 883.54 749.728 927.75c-77.143 44.803-160.418 67.253-249.726 67.253-89.308 0-172.583-22.45-249.726-67.253-74.473-44.209-133.814-103.55-178.023-178.022C27.451 672.585 5 589.31 5 500.002c0-89.308 22.45-172.583 67.253-249.726 44.209-74.473 103.55-133.814 178.023-178.023C327.419 27.45 410.793 5 500.496 5c89.011 0 172.089 22.45 249.232 67.253zM190.935 536.1c0 59.34 16.516 113.044 49.45 161.209 30.363 44.209 71.21 78.824 122.638 103.846 50.143 25.023 102.561 37.583 157.253 37.583 53.407 0 103.847-14.538 151.32-43.517 47.472-28.978 85.352-68.242 113.736-117.692 29.67-51.429 44.506-107.506 44.506-168.133 0-60.626-17.11-118.385-51.429-173.077-32.34-52.121-74.967-94.154-128.077-126.1-53.11-31.945-107.605-47.967-163.682-47.967-31.648 0-62.011 3.264-90.99 9.89-25.021 5.242-48.758 13.154-71.208 23.737-18.495 7.912-35.308 17.11-50.44 27.692-11.868 7.912-22.055 16.121-30.66 24.725l-9.89 9.89 7.912-5.933c19.78-13.154 36.89-23.44 51.43-30.66 26.406-13.154 54.692-22.747 85.054-28.681 38.275-7.22 75.165-8.21 110.77-2.967 31.648 4.648 66.956 14.835 105.825 30.66 27 11.867 53.11 30.362 78.132 55.384 28.384 28.385 50.143 60.626 65.275 96.923 17.802 42.825 25.022 87.825 21.758 135-3.264 47.177-18.099 89.803-44.506 128.078-24.428 34.912-55.385 62.308-92.967 82.088-36.89 19.088-74.868 28.385-113.737 27.693-36.297 0-69.527-7.912-99.89-23.737-27.693-14.538-50.934-34.12-69.726-58.846-18.79-24.725-31.154-51.231-37.088-79.616-8.604-38.275-4.945-73.483 10.88-105.824 11.868-25.715 30.362-47.77 55.384-66.264 14.539-10.583 31.45-17.605 50.934-21.264 19.484-3.66 38.374-2.77 56.869 2.473 20.472 5.241 37.582 15.131 51.429 29.67 18.494 19.088 27.395 40.846 26.703 65.275 0 16.516-3.956 30.66-11.868 42.528-5.934 9.197-13.55 16.516-22.748 21.758-11.868 6.626-25.022 8.604-39.56 5.934-9.89-1.286-17.802-5.637-23.736-12.857-3.264-4.649-5.935-10.583-7.913-17.802v-8.902c4.649 3.956 10.088 6.924 16.32 8.902 6.23 1.978 13.153 2.175 20.768.494 7.616-1.681 13.154-6.626 16.814-14.835s3.758-16.022.494-23.242c-1.978-5.934-5.934-11.571-11.868-16.813-7.22-5.934-15.527-9.594-24.725-10.88-11.176-1.285-22.748 1.286-34.616 7.913-17.11 9.89-27.989 25.022-32.637 45.494-2.67 14.539-2.67 29.374 0 44.506 3.263 12.56 10.582 25.418 21.758 38.572 14.539 15.824 32.835 26.703 54.89 32.637 22.055 5.934 46.682 4.945 73.682-2.967 21.758-7.22 38.571-16.517 50.44-27.692 15.132-13.154 27.989-31.649 38.571-55.385 14.539-32.341 19.78-65.572 15.824-99.89-3.956-28.979-16.022-56.374-36.099-82.089-20.077-25.714-45.296-46.681-75.66-62.802-30.362-16.121-61.318-24.528-92.967-25.22-34.912-.692-71.209 7.912-108.791 25.714-42.824 19.78-77.44 48.165-103.847 85.055-30.362 42.825-45.494 92.968-45.494 150.33z"/></svg>