<?xml version="1.0" encoding="utf-8"?>
<!-- Generator: Adobe Illustrator 26.0.1, SVG Export Plug-In . SVG Version: 6.00 Build 0)  -->
<svg version="1.1" id="Layer_1" xmlns="http://www.w3.org/2000/svg" xmlns:xlink="http://www.w3.org/1999/xlink" x="0px" y="0px"
	 viewBox="0 0 1000 1000" style="enable-background:new 0 0 1000 1000;" xml:space="preserve">
<style type="text/css">
	.st0{fill:#FFFFFF;}
</style>
<rect class="st0" width="32" height="32"/>
<g>
	<polygon points="373.1,683 309.4,631.1 279.8,683 	"/>
	<polygon points="492.5,605.1 377.1,512.7 317,617.9 396.9,683 492.5,683 	"/>
	<polygon points="507.5,761 586.2,698 507.5,698 	"/>
	<polygon points="372.7,490 500,267.3 627.3,490 721.2,414.9 500,237.9 278.8,414.9 	"/>
	<polygon points="684.1,619.7 500,297.6 384.6,499.5 507.5,597.9 507.5,683 605,683 	"/>
	<polygon points="492.5,698 415.3,698 492.5,760.9 	"/>
	<path d="M740.1,259.9c-62.4-62.4-144.7-97.5-232.6-99.4v64.1l233.2,186.6v182.4l-37.2,29.8l42.6,74.6H610.3L500,786.3L391.5,698
		H253.9l43.7-76.5l-38.3-31.2V411.3l233.2-186.6v-64.1c-87.9,1.9-170.2,37-232.6,99.4C195.8,324,160.4,409.3,160.4,500
		c0,90.7,35.3,176,99.5,240.1c64.1,64.1,149.4,99.5,240.1,99.5s176-35.3,240.1-99.5c64.1-64.1,99.5-149.4,99.5-240.1
		S804.2,324,740.1,259.9z"/>
	<polygon points="274.3,430.5 274.3,583.2 305.2,608.3 365.2,503.2 	"/>
	<path d="M500.5,5C223.6,5,5,229.5,5,499.5C5,773.5,226.5,995,499.5,995C776.4,995,995,770.5,995,499.5C995,223.6,770.5,5,500.5,5z
		 M750.7,750.7c-67,67-156,103.9-250.7,103.9c-94.7,0-183.8-36.9-250.7-103.9c-67-67-103.9-156-103.9-250.7s36.9-183.8,103.9-250.7
		s156-103.9,250.7-103.9s183.8,36.9,250.7,103.9s103.9,156,103.9,250.7C854.6,594.7,817.7,683.8,750.7,750.7z"/>
	<polygon points="691.6,632.9 629,683 720.2,683 	"/>
	<polygon points="725.7,430.5 634.8,503.2 695.9,610.2 725.7,586.4 	"/>
</g>
</svg>
