<svg xmlns="http://www.w3.org/2000/svg" viewBox="0 0 1000 1000"><path d="M5 500.496c0 271.98 220.55 494.507 495.496 494.507 271.98 0 494.507-220.55 494.507-495.496C995.003 227.528 773.464 5 500.496 5 226.54 5 5 225.55 5 500.496zm90.99 20.77v-27.693c0-10.88.988-22.747 1.977-33.626v-2.967h.99c0 7.912 0 15.824.988 24.725.99 17.802 1.978 36.593 2.967 54.396v14.835c.99 1.978 0 2.967-1.978 2.967-1.978.989-1.978-.99-1.978-1.978-.989-10.88-1.978-20.77-2.967-30.66zm5.933-74.177c-1.978-13.846 0-25.714 3.956-38.571 3.957-16.813 8.902-33.627 13.847-49.45 0-.99.989-1.979.989-3.957 4.945 3.956 7.912 6.923 11.868 10.88 8.901 8.9 17.802 17.801 26.703 25.714 1.978 1.978 1.978 2.967.99 4.945-3.957 6.923-1.979 14.835 4.944 19.78.99 1.978.99 2.967.99 3.956-18.792 43.517-36.594 87.033-54.396 130.55 0 .989-.99 1.978-.99 2.967-1.978.989-3.956 0-3.956-1.978v-11.868c-.989-13.846-1.978-27.693-1.978-41.539-.989-17.802-1.978-34.615-2.967-51.429zm2.967 139.451c4.946-.989 9.89-1.978 12.858-5.934.989 0 1.978 0 2.967.99 11.868 6.922 22.747 13.846 33.626 21.758 31.649 19.78 63.297 39.56 94.946 60.33 1.978.989 2.967 1.978 1.978 4.945 0 3.956 0 6.923.989 10.879 0 .989.989 1.978-.99 3.956-20.769 15.824-40.549 31.648-61.318 48.461l-14.836 11.869c-34.615-47.473-58.351-99.89-70.22-157.254zm9.89-33.626c18.792-43.517 36.594-86.044 54.396-129.561.99-1.978 1.978-3.956 3.956-2.967 6.924 0 11.869-1.978 14.836-7.912 1.978-1.978 2.967-1.978 3.956-.99 30.66 7.913 60.33 16.814 90 25.715 1.978.99 3.956 1.978 6.923 1.978s3.956 1.978 3.956 4.945c-.989.99 0 .99 0 1.978.99 3.956-1.978 5.934-4.945 7.912l-94.945 59.341-71.21 44.506c-1.977.989-2.966 1.978-4.944 0-.99-.989-2.967-1.978-1.978-4.945zm6.924 20.77c0-1.979.989-4.946 0-7.913-.99-1.978 0-3.956 1.978-4.945 14.835-8.901 28.681-17.802 43.516-26.703 32.638-20.77 65.275-41.539 98.902-61.32 6.923-4.944 14.835-9.89 22.747-14.834.99 0 .99-.99 2.967-.99-.989 7.913-1.978 14.836-2.967 21.759-.989 13.846-.989 26.703.99 40.55.988 10.879 0 22.747-2.968 34.615-5.934 32.637-11.868 66.264-17.802 99.89-.99 1.978-1.978 2.967-3.956 2.967-2.967.99-5.934 1.978-7.912 3.956-1.978.99-3.956.99-5.934 0-11.869-7.912-24.726-15.824-37.583-24.725-28.681-17.802-58.352-36.593-87.033-55.385-.99-.989-1.978-1.978-2.967-1.978-1.978-.989-2.967-1.978-1.978-4.945zm1.978-224.507 20.769-47.473 2.967-2.967 32.638-17.802c3.956-1.978 6.923 0 6.923 3.956-1.978 8.901-2.967 17.802-3.956 27.692-1.978 16.814-3.956 33.627-4.945 49.451-.99 7.912-1.979 14.835-2.968 22.747 0 1.979-.989 2.968-2.967 3.957-1.978 0-3.956 0-4.945.989-1.978 1.978-3.956.989-4.945-.99-9.89-8.9-19.78-17.802-28.681-27.692-2.967-2.967-5.934-4.945-8.901-7.912-1.978-1.978-1.978-2.967-.99-3.956zm26.703-56.374v-.989c5.934-9.89 12.857-20.77 19.78-31.648 3.956 3.956 6.923 5.934 9.89 9.89 1.979 1.978.99 5.934-1.977 7.912-7.913 3.956-15.825 8.901-23.737 12.857-1.978.99-2.967.99-3.956 1.978zm23.736-36.593c-.989 0 0-.99 0-.99 1.978-2.966 3.956-4.944 5.935-7.912 3.956-3.956 6.923-8.9 10.879-13.846 0 0 .989 0 .989.99 0 3.955-.99 8.9-.99 12.856-.988 3.957-.988 8.902-1.977 12.858 0 1.978-4.945 5.934-5.934 5.934-2.967-2.967-5.935-6.923-8.902-9.89zm4.946 128.571c.989-10.879 1.978-21.758 3.956-33.626 1.978-16.813 3.956-33.627 4.945-49.45.989-5.935 1.978-10.88 1.978-15.825 0-.989.989-2.967 1.978-2.967s1.978.989 2.967 1.978c6.923 9.89 14.835 19.78 21.758 29.67 21.758 31.649 44.506 63.297 67.253 94.946l11.868 17.802c0 .99.99 1.978.99 1.978 0 4.945-2.968 7.912-6.924 5.934-31.648-8.9-63.297-17.802-95.934-27.692-1.978 0-2.967-1.978-2.967-3.956 0-6.923-3.956-11.868-9.89-13.846-1.978-.99-2.968-1.978-1.978-4.946zm.989 364.947c-1.979-2.967-1.979-3.956 0-4.945 24.725-19.78 48.461-38.572 73.187-58.352.989-.99 1.978-1.978 3.956-.99 1.978 1.979 4.945 1.979 3.956 5.935-8.901 36.593-17.803 73.187-25.715 108.791-.989 1.979-.989 3.957-1.978 5.935-2.967-1.978-4.945-3.956-7.912-6.924-16.813-14.835-31.648-31.648-45.494-49.45zm12.857-489.562c.989-5.934 1.978-12.858 1.978-19.78.989-2.968.989-4.946.989-7.913 0-2.967.989-5.934 3.956-8.9 20.77-22.748 43.516-42.528 68.242-60.33.989 0 .989 0 .989-.99 0 .99.989.99.989.99-10.88 13.845-20.77 27.692-31.649 41.538-13.846 18.791-27.692 36.593-41.538 55.385 0 .989 0 .989-.99.989 0 .989-.988.989-1.977 1.978 0-.99-.99-1.978-.99-2.967zm4.945 19.78c.989-.99 2.967-.99 3.956-.99 2.967.99 5.934 1.979 8.901 1.979 49.45 13.846 98.901 26.703 147.363 40.55 1.978 0 3.956.989 5.934 1.978-31.648 26.703-53.407 60.33-65.275 100.879-2.967-3.956-5.934-7.912-7.912-10.88-30.66-42.527-60.33-84.065-90-126.593-.99-.989-1.978-1.978-1.978-3.956-.99-.989-.99-2.967-.99-2.967zm1.978-9.89c-.99-4.945 0-6.923 1.978-9.89 25.714-33.627 50.44-68.242 76.154-101.869 1.978-2.967 5.934-4.945 8.901-6.923 15.824-10.88 33.627-19.78 51.429-27.692 3.956-.99 3.956-.99 4.945 2.967 13.846 56.374 26.703 113.736 40.55 170.11.988.99.988 1.978.988 2.967 1.979 8.901 2.968 5.934-4.945 11.868-2.967 1.978-5.934 4.945-9.89 6.924-.989.989-1.978.989-1.978 1.978-5.934-1.978-10.879-2.968-15.824-4.946-48.462-12.857-95.934-25.714-143.407-38.571h-1.978c-3.956-.99-5.934-2.967-6.923-6.923zm37.582 538.024c.99-3.956.99-7.913 1.978-10.88 8.902-34.615 16.814-69.23 24.726-104.835.989-1.978 1.978-3.956 4.945-3.956.989 0 2.967 0 4.945-.99 1.978-.988 2.967-.988 4.945.99 11.868 13.846 23.736 27.692 35.604 40.55 10.88 11.868 21.759 23.736 31.649 35.604 15.824 17.802 31.648 35.604 47.473 52.418 9.89 11.868 20.769 23.736 31.648 35.604 6.923 7.912 14.835 16.813 21.758 24.726 2.967 2.967 0 4.945-.989 6.923 0 1.978-1.978.989-2.967.989-38.571-6.923-77.143-14.835-115.714-20.77-11.869-1.978-21.759-7.912-31.649-13.846-19.78-10.879-38.571-24.725-56.374-38.571-.989-.99-1.978-2.967-1.978-3.956zm34.616-154.287c2.967-12.857 4.945-26.703 7.912-39.56l11.868-65.275v-.99c6.923 35.605 20.77 67.254 42.528 96.924-.99 0-1.978.99-2.967.99-15.825 5.933-31.649 11.867-47.473 18.79-1.978 0-2.967 0-3.956-1.978-.989-.989-2.967-2.967-4.945-3.956-1.978-.989-2.967-1.978-2.967-4.945zm8.901 31.649c-.989-.99-.989-1.978 0-2.967 0-.99.989-2.967.989-2.967.989-.99.989-1.978 1.978-1.978l17.802 2.967c31.649 5.934 63.297 11.868 95.935 17.802 3.956 0 7.912 2.967 11.868 4.945 23.736 9.89 47.473 16.813 72.198 18.791 15.824 1.978 30.66.99 46.484 0 6.923 0 13.846 1.978 19.78 2.967 12.857 1.978 25.714 3.956 38.571 6.923 2.967 0 3.956.99 3.956 2.968s.99 4.945 1.979 5.934c.989 1.978.989 3.956 0 4.945-7.913 8.9-15.825 16.813-22.748 24.725-18.791 19.78-37.582 40.55-55.385 60.33-10.879 11.868-21.758 22.747-32.637 34.615-2.967 3.956-5.934 6.924-8.901 9.89-1.978 1.979-2.967 1.979-3.956.99-4.945-2.967-9.89-2.967-14.836 0-1.978.989-2.967 0-3.956-.99l-50.44-56.373c-11.867-13.846-23.736-26.704-35.604-40.55-13.846-15.824-27.692-31.648-41.538-46.484-10.88-11.868-20.77-23.736-31.649-35.604-2.967-3.956-6.923-6.923-9.89-10.88zm1.978-13.846c0-1.978.989-2.967 2.967-3.956 15.824-5.935 32.638-12.858 48.462-18.792 1.978-.989 2.967-.989 4.945.99 13.846 15.824 29.67 29.67 47.473 40.549.989.989.989.989 1.978.989 0 .989-.99.989-.99.989-11.868-1.978-24.725-3.956-36.593-6.923-21.758-2.967-42.528-6.923-63.297-10.88-1.978 0-3.956 0-4.945-2.966zm50.44 197.802h3.956c.989 0 1.978.99 3.956.99 32.637 5.934 66.264 11.868 98.901 17.802 2.967.989 4.945 1.978 4.945 4.945.99 2.967 2.967 5.934 3.956 8.901-40.55-4.945-79.12-15.824-115.714-32.638zm12.857-745.716c-.99-1.978 0-2.967 1.978-3.956 12.857-3.956 25.714-8.901 39.56-12.858.99-.989 2.968-.989 4.946 0 25.714 9.89 52.417 20.77 78.132 31.649 1.978.989 2.967 1.978 1.978 3.956 0 4.945.989 9.89 4.945 12.857 1.978 1.978 1.978 2.967.989 4.945l-17.802 35.605c-14.836 28.681-30.66 57.363-45.495 87.033v.989c-2.967 8.901-9.89 13.846-18.791 17.802-1.978.99-3.956 1.978-6.923 2.967 0-1.978-.99-2.967-.99-3.956-8.9-36.593-16.813-72.198-25.714-107.802-5.934-22.748-10.879-45.495-16.813-69.231zm51.429-19.78c2.967-.99 4.945-1.979 7.912-1.979 16.813-3.956 33.626-5.934 49.45-9.89 1.979 0 2.968.99 3.957 2.967 6.923 10.88 12.857 22.748 19.78 33.627 0 .989 0 2.967-.99 3.956-2.966 3.956-2.966 3.956-7.911 1.978-22.748-9.89-46.484-19.78-70.22-28.682 0-.989-.99-.989-1.978-1.978zm17.802 186.923c3.956-6.923 7.912-14.835 11.868-21.758 15.824-31.649 31.649-62.308 47.473-92.968 2.967-4.945 4.945-9.89 7.912-14.835 0-.989.989-1.978 2.967-.989h3.956c3.956-.989 4.945.99 6.923 3.956 10.88 25.715 22.747 51.429 34.616 77.143l14.835 32.638c0 .989.989 1.978.989 3.956-45.495-7.912-89.011-3.956-130.55 13.846-.99 0-.99 0-.99-.989zm46.484-198.792c3.956-.989 5.934-.989 8.9-.989 3.957 0 8.902-.989 12.858-.989h23.736c-4.945 11.868-8.9 23.737-13.846 36.594 0 0-.989.989-1.978.989-1.978.989-4.945.989-6.923.989-.99 0-1.978-.99-2.967-1.978-4.945-8.901-9.89-17.803-15.824-27.693-.99-1.978-1.978-3.956-3.956-6.923zm11.868 810.003s.989-1.978.989-2.967c.989-.99 1.978-.99 1.978-.99 6.923 1.979 12.857 4.946 19.78 6.924v.989c-2.967 0-5.934 0-8.901-.989h-9.89c-1.978 0-2.967-.989-3.956-2.967zm.989-19.78c-.99-1.978-.99-2.967.989-4.945 4.945-4.945 9.89-10.88 14.835-16.814 20.77-21.758 41.539-43.516 61.319-66.264 11.868-12.857 23.736-24.725 35.604-37.582 2.967-2.967 4.945-5.934 7.913-8.901.989-.99 1.978-.99 3.956 0 2.967.989 6.923 1.978 10.879.989 1.978-.99 2.967 0 3.956 1.978 13.846 24.725 27.692 50.44 42.527 75.165 6.924 13.846 14.836 26.703 22.748 40.55.989 2.966.989 3.955-1.978 4.944-31.649 12.858-64.286 22.748-98.902 28.682-17.802 2.967-35.604 4.945-53.406 4.945-2.968 0-5.935.989-8.902.989v.989c-4.945-.989-8.9-1.978-12.857-2.967-7.912-2.967-14.835-5.934-22.747-7.912-2.967-.99-3.956-2.967-3.956-5.934 0-1.978 0-4.945-1.978-7.912zm22.747-755.607c4.945-11.868 8.901-24.726 13.846-36.594h14.836c3.956 0 7.912 0 11.868.99 26.703.988 52.417 5.933 78.132 12.856 8.901 1.978 18.791 4.945 28.681 7.913 1.978.989 2.967 1.978 3.956 3.956 8.901 18.79 17.803 37.582 27.693 56.373.989 1.978.989 2.967-.99 4.945-.988 1.978-1.977 2.968-2.966 4.946-.99 1.978-1.978 2.967-3.956 1.978-23.737-4.946-46.484-10.88-70.22-15.825-29.67-6.923-58.352-13.846-88.023-20.769-.989 0-1.978-.989-2.967-.989-.989-.989-1.978-1.978-1.978-2.967 0-4.945-2.967-9.89-6.923-12.857-1.978-.99-1.978-1.978-.989-3.956zm1.978 34.615c-.989-1.978-1.978-3.956.99-4.945.988-.989 1.977-1.978 1.977-3.956 1.978-1.978 2.967-2.967 5.934-1.978 53.407 12.857 106.814 25.714 160.22 37.583 1.979.989 2.968.989 2.968 3.956.989.989 1.978 2.967 2.967 4.945 0 .989.989.989.989 1.978l-1.978 1.978-78.132 78.132-7.913 7.912c-.989.99-1.978.99-3.956.99-9.89-2.968-18.79-5.935-28.681-8.902-1.978 0-2.967-1.978-3.956-2.967-11.868-26.703-24.725-53.407-36.594-80.11-4.945-11.868-9.89-22.748-14.835-34.616zm46.484 558.793c11.868-2.967 22.747-5.934 34.615-8.9 2.967-.99 5.934-2.968 8.901-3.957 1.978-.989 2.967 0 3.957 1.978.989 1.978 1.978 4.945 3.956 7.912 0 .99 0 1.978-.99 2.967-1.977 1.978-2.966 3.956-3.956 5.934-.989 1.978-2.967 1.978-4.945 1.978-10.879-1.978-22.747-3.956-33.626-5.934-2.967-.989-4.945-.989-7.912-1.978zm44.505-430.22c.99-.99 1.978-1.979 1.978-2.968 24.726-23.736 48.462-48.462 73.188-72.198l11.868-11.868c.989 0 1.978-.99 2.967 0 6.923 1.978 12.857.989 17.802-2.967 1.978-1.978 2.967-.99 4.945 0l59.341 23.736c22.747 8.901 45.495 18.791 68.242 27.693 1.978.989 3.956 1.978 3.956 3.956 0 2.967-.989 3.956-2.967 3.956-37.583 6.923-74.176 13.846-110.77 20.769-34.615 6.923-70.22 13.846-104.835 19.78-1.978.99-3.956 0-5.934-.989-5.934-1.978-11.868-4.945-17.803-7.912 0 0-.989-.989-1.978-.989zm5.935 417.363c0-.989.989-2.967.989-2.967 5.934-2.967 11.868-5.934 18.79-8.901-1.977 6.923-3.955 13.846-6.922 19.78-.99 2.967-3.956.99-5.934 1.978-.99 0-1.978-.989-2.967-1.978-.99-1.978-1.978-4.945-3.956-7.912zm17.802 9.89c2.967-8.9 5.934-16.813 8.9-24.725 0-1.978 1.979-2.967 2.968-3.956 13.846-8.901 26.703-18.791 37.583-30.66 20.769-21.758 35.604-47.472 45.494-75.165 0-1.978.99-2.967 1.978-5.934 3.956 4.945 6.923 9.89 10.88 13.846 31.648 40.55 63.296 80.11 93.956 120.66.989.99 1.978 1.978.989 3.956-.99.99-1.978 2.967-2.967 4.945 0 1.978-1.978 1.978-2.967 1.978-16.814.99-32.638.99-49.451 1.978-14.835.99-29.67.99-44.506 1.978-14.835 0-29.67.99-44.505 1.978-15.825 0-31.649.99-47.473 1.978-.989 0-2.967-.989-2.967-1.978-2.967-2.967-4.945-5.934-6.923-8.9zm3.956 32.638c-.99-1.978-1.978-3.956 0-5.934 1.978-1.978 2.967-4.945 3.956-6.923.989-1.978.989-2.967 2.967-2.967h15.824c12.857-.99 25.715-.99 38.572-1.979 15.824 0 30.66-.989 45.494-1.978 14.836 0 30.66-.989 45.495-.989 12.857-.989 24.725-.989 37.583-1.978h2.967c1.978 0 2.967 0 2.967 1.978.989 3.957 3.956 6.924 6.923 8.902 1.978.989 1.978 1.978 1.978 3.956l-8.901 29.67c0 1.978-1.978 3.956-3.956 5.934-34.616 37.583-75.165 67.253-121.65 89.011-3.955 1.978-3.955 1.978-5.933-1.978-13.846-24.725-28.682-50.44-42.528-75.165-6.923-12.857-14.835-26.703-21.758-39.56zm1.978-445.057v-.989c1.978-.989 3.956-.989 5.934-1.978 49.45-8.9 99.89-18.791 149.341-27.692 18.791-3.956 37.583-7.912 56.374-10.88 1.978-.988 2.967 0 3.956 1.979 2.967 3.956 6.923 6.923 11.868 7.912 1.978.989 2.967 1.978 2.967 3.956 2.967 30.66 6.923 61.319 9.89 91.978l5.934 53.407c.99 1.978 0 3.956-1.978 3.956-.989 0-1.978.99-2.967.99-4.945 4.944-10.879 3.955-16.813.988-52.418-21.758-104.835-44.506-157.253-66.264-5.934-2.967-9.89-6.923-14.835-11.868-13.847-17.802-31.649-32.638-50.44-44.506-.99-.989-1.978-.989-1.978-.989zm33.626-186.923v-2.967c8.902 3.956 16.814 6.923 24.726 9.89 13.846 6.923 26.703 13.846 39.56 19.78 1.978.989 2.967 1.978.99 4.945-.99 3.956-.99 7.912.988 10.88.99 1.977 0 2.966-1.978 4.944-4.945 2.967-9.89 6.923-14.835 10.88-1.978.988-2.967 1.977-3.956 0-4.945-3.957-9.89-4.946-15.824-3.957-1.978.99-2.967.99-3.956-.989-7.912-17.802-16.813-35.604-25.715-53.406zM685.442 365c50.44 21.759 101.868 43.517 152.308 64.286v.99h-6.923c-24.725 0-50.44 0-76.154.988H717.09c-1.978 0-3.956-.989-3.956-2.967-5.934-21.758-14.835-41.539-26.703-60.33-.99-.989-.99-1.978-.99-2.967zm17.802-173.077v-8.901c0-.99 0-1.978.99-2.968 5.933-4.945 11.867-8.9 17.801-12.857.99-.989 1.978-.989 2.967 0 4.945 1.978 9.89 1.978 14.836 0 1.978-1.978 2.967-.989 3.956 0l23.736 20.77 50.44 44.505c4.945 3.956 9.89 7.912 14.835 12.857 1.978.99 2.967 1.978 3.956 2.967l-.989.99c-.989 0-1.978-.99-2.967-.99-42.528-17.802-85.055-34.615-127.583-52.417-1.978-.99-2.967-.99-1.978-3.956zm9.89 376.814c1.978-7.912 1.978-7.912 10.88-7.912h125.604c1.978 0 3.956-.989 2.967 2.967-.989 6.923-1.978 14.835-2.967 22.747-5.934 35.605-11.868 70.22-16.813 105.825-.989 3.956-.989 7.912-1.978 12.857 0 1.978-.99 2.967-2.967 2.967-.99 0-1.978 0-2.967.99-2.967 1.977-4.945 0-6.923-2.968-34.616-43.517-69.231-88.022-103.847-131.539-.989-1.978-1.978-3.956-.989-5.934zm30.66-405.496.989-.989c27.692 17.802 51.428 39.56 73.187 63.297v.99c-24.726-20.77-49.451-42.528-74.176-63.298zm76.154 602.31c1.978-7.912 3.956-15.824 6.923-23.736 0-.99.989-.99 1.978-.99.989-.988 2.967-.988 3.956-.988 1.978 0 2.967 0 3.956 1.978.989.989.989 2.967 0 3.956-5.934 6.923-10.88 13.846-15.824 20.769zm14.835-59.34c.989-9.891 2.967-18.792 3.956-28.682 5.934-34.616 10.88-70.22 16.813-104.836 0-2.967.99-6.923.99-9.89.988-1.978.988-1.978 2.966-1.978h15.825c5.934-2.967 8.9.989 11.868 5.934 4.945 7.912 10.879 15.824 16.813 23.736.989.99.989 3.957.989 4.946-5.934 25.714-13.846 50.44-24.725 74.176-6.923 16.813-15.825 33.626-25.715 49.45-1.978 2.967-3.956 3.956-7.912 2.967 0 0-.989-.989-.989-1.978-1.978-4.945-4.945-8.9-9.89-10.879-.989 0-.989-1.978-.989-2.967zm4.945 32.637c0-.99 0-1.978.99-2.967.988-1.978 2.966-4.946 3.955-7.913.99-1.978 2.967-1.978 4.945-.989-2.967 3.956-5.934 8.902-8.9 12.858 0 0-.99 0-.99-.99zM854.563 275c2.967 3.956 4.945 8.901 7.912 12.857 8.902 15.824 16.814 31.649 23.737 49.45 0 1.979.989 3.957 0 6.924-3.956 25.714-8.901 51.429-13.846 77.143 0 .989 0 1.978-.99 2.967h-.988c-4.946-49.45-10.88-98.901-15.825-149.341zm21.759 151.32c-.99 0 0-1.979 0-2.968 2.967-15.824 4.945-31.648 7.912-47.473 1.978-7.912 2.967-15.824 4.945-24.725 0-.989 0-1.978.989-2.967h.989c2.967 12.857 6.923 25.714 9.89 37.582 2.967 9.89 3.956 18.792 5.934 28.682.99 2.967 0 4.945-2.967 5.934-3.956 2.967-7.912 4.945-11.868 7.912-6.923 3.956-10.88 1.978-15.824-1.978zm11.868 134.505s0-.989.989-.989h19.78c.99 0 1.978 1.978 1.978 1.978-.989 7.912-2.967 15.824-3.956 24.725h-.989c-5.934-7.912-11.868-16.813-17.802-25.714zm8.9-130.55v-.989c3.957-1.978 6.924-3.956 10.88-5.934h.99c.988 6.923.988 6.923-4.946 6.923z"/></svg>