<svg xmlns="http://www.w3.org/2000/svg" width="1000" height="1000">
  <path d="M500.496 5C223.572 5 5 229.506 5 500.002c0 276.43 224.506 495.001 495.002 495.001 276.43 0 495.001-224.506 495.001-495.001C995.003 226.539 773.464 5 500.496 5zM171.154 528.189c0-.99 47.473-115.715 33.627-151.32 0-11.868 0-27.692 13.846-37.582 15.824-30.66 34.616-57.363 55.385-78.132 13.846-10.88 21.758-10.88 41.538-10.88 5.935 0 19.78 0 27.693-7.912 10.879-13.846 33.626-19.78 55.385-28.681 2.967 0 11.868-6.923 18.791-12.857 14.835-12.857 28.681-27.693 47.473-27.693h82.088c19.78 0 34.615 8.902 40.55 22.748 15.824 10.879 19.78 17.802 34.615 26.703 20.77 0 39.56 12.857 60.33 27.693 0 0 7.912-7.913 14.835-7.913 26.703 0 41.539 26.704 60.33 39.561 20.77 26.703 35.604 57.363 54.396 83.077 6.923 5.934 0 34.616-3.956 53.407 10.879 28.681 3.956 62.308 3.956 94.945 6.923 8.901 13.846 14.836 21.758 28.682 6.923 27.692-7.912 56.374-14.835 88.022-6.923 8.901-6.923 15.824-10.88 21.758-8.9 12.858-29.67 26.704-43.516 26.704-12.857 13.846-25.714 27.692-33.626 40.55-6.924 7.911-6.924 7.911-6.924 14.835-6.923 31.648-26.703 53.406-62.307 61.318-18.792 14.836-47.473 26.704-74.177 33.627-13.846 5.934-22.747 0-31.648-6.923-21.758-11.868-50.44-11.868-69.231 0-21.758 12.857-40.55 12.857-62.308 6.923-54.396-17.802-100.88-40.55-123.627-70.22l-4.945-2.967c4.945-28.682-14.835-43.517-29.67-56.374l-5.934-6.923c-32.638-5.934-47.473-27.692-61.32-53.407-11.867-34.615-27.692-69.23-27.692-110.77zm69.231 31.648c0 22.747 6.924 38.572 12.858 57.363 6.923 12.857 20.769 21.758 34.615 34.615 18.791 19.78 63.297 82.089 66.264 82.089 15.824 5.934 28.681 11.868 44.506 21.758 18.791 2.967 40.55 9.89 59.34 18.791 6.924 0 13.847-8.901 28.682-8.901h80.11c14.835 0 20.77 0 36.594-6.923 18.79-2.967 39.56-18.791 58.351-24.725 12.858-1.979 28.682-34.616 35.605-47.473 19.78-21.758 33.627-47.473 54.396-63.297 5.934 0 5.934-5.934 5.934-5.934l12.857-66.264c0-15.824-5.934-22.747-5.934-37.583 0-32.637 5.934-60.33-6.923-87.033-5.934-7.912-5.934-13.846 0-20.77 0-36.593-48.462-107.802-87.033-107.802-3.956 0-62.308-39.56-75.165-43.516-13.847-3.956-28.682-3.956-36.594-11.869-18.791-19.78-80.11-19.78-100.88-6.923-11.868 14.836-18.79 14.836-33.626 18.792-22.747 6.923-32.637 14.835-54.396 21.758-6.923 5.934-18.791 21.758-34.615 25.714-28.682 0-34.616 27.693-54.396 43.517-20.77 19.78-14.835 54.396-27.692 81.1-5.935 26.702 0 54.395-12.858 77.142-5.934 18.791 0 38.572 0 56.374zm122.638-17.802c-70.22-40.55-53.407-149.341 28.682-192.858 43.516-19.78 94.945 0 113.736 43.517 28.682 60.33 6.923 120.66-40.55 149.34-32.637 17.803-66.263 17.803-101.868 0zM376.87 686.43c-28.681-35.605-21.758-40.55 0-47.473 47.473-8.901 101.869 32.638 94.946 67.253-18.792 27.693-46.484 9.89-61.32 0-11.867-9.89-18.79-7.912-33.626-19.78zm179.012-56.374c10.88-38.572 39.56-60.33 73.187-79.121 30.66-15.824 59.34-13.846 81.1 18.791 13.845 43.517-17.803 85.055-59.342 116.704-21.758 12.857-47.472 12.857-77.143 0-17.802-7.912-28.681-33.627-17.802-56.374zm25.714-321.43c47.473-18.79 135.495 84.067 115.715 103.847-44.506 44.506-59.34 1.978-109.78-54.396-13.847-17.802-16.814-40.55-5.935-49.45z" style="fill:#000;fill-opacity:1;fill-rule:nonzero;stroke:none;"/>
</svg>
