<svg xmlns="http://www.w3.org/2000/svg" viewBox="0 0 1000 1000"><path d="M778.712 429.912c31.759 27.378 52.566 47.09 81.04 71.183-24.093 26.283-49.281 47.091-81.04 70.089 31.759 27.378 52.566 52.566 74.469 70.088C733.81 762.832 619.917 880.012 498.358 995c-117.18-114.989-232.169-232.168-352.633-358.108 21.902-17.522 44.9-38.33 71.183-65.708-26.283-22.998-49.28-43.806-76.659-70.089 31.759-24.093 55.852-43.805 82.135-71.183-31.759-24.093-54.757-49.281-76.66-66.803C266.19 240.454 381.179 124.369 498.359 5 613.347 124.37 733.81 240.454 853.18 364.204c-17.522 16.427-42.71 41.615-74.47 65.708zm-566.184 211.36c95.276 97.467 193.838 196.03 285.83 293.496 94.181-97.467 196.028-196.029 290.21-293.496-9.856-9.856-24.093-21.902-33.95-38.33-85.42 86.516-171.935 168.651-256.26 256.262-81.04-87.61-166.46-169.746-250.786-250.786-9.856 10.952-25.188 22.998-35.044 32.854zm0-140.177c9.856 9.856 25.188 26.283 35.044 37.235 7.666-10.952 24.093-27.379 39.425-37.235-15.332-14.236-25.188-24.093-39.425-39.425-9.856 15.332-25.188 25.189-35.044 39.425zm0-144.557c9.856 7.666 25.188 24.093 35.044 44.9 84.325-86.515 169.746-168.65 256.261-256.261 84.326 87.61 165.365 165.365 250.786 250.786 9.856-15.332 24.093-25.189 33.949-39.425-94.182-95.277-196.029-190.553-290.21-286.925-96.372 96.372-190.554 191.648-285.83 286.925zm70.088 214.646c74.47 70.088 145.653 146.748 221.217 216.836 71.184-70.088 137.987-140.177 214.646-216.836-10.951-10.952-24.093-22.998-38.33-39.425-60.232 60.232-121.559 120.465-186.172 179.602-55.852-59.137-114.989-119.37-178.507-179.602-7.666 16.427-21.902 28.473-32.854 39.425zm4.38-141.272c10.952 10.951 20.808 27.378 35.045 42.71 59.137-66.803 122.655-120.465 181.792-180.697C558.59 352.157 619.917 412.39 680.15 466.05c14.236-8.761 25.188-25.188 38.33-36.14-76.66-73.373-150.034-143.462-214.647-213.55-75.564 70.088-146.748 146.748-216.836 213.55zm70.09 65.708c49.28 52.566 95.276 102.942 141.272 145.652 49.28-42.71 100.752-93.086 143.462-140.177-42.71-50.376-94.181-99.657-137.987-144.557-51.471 49.28-101.847 94.181-146.748 139.082zm355.918 0c16.427 15.331 30.663 31.758 41.615 42.71 9.856-10.952 24.093-20.808 38.33-37.235-14.237-14.236-28.474-24.093-38.33-39.424-15.332 15.331-31.76 25.188-41.615 33.949z"/></svg>