<svg xmlns="http://www.w3.org/2000/svg" width="1000" height="1000">
  <path d="M501.854 6.246C779.4 11.202 996.23 229.272 994.991 503.1c-4.956 281.261-224.265 490.658-493.137 490.658C220.593 993.758 5 773.21 5 500.622 6.24 219.36 229.266 9.962 501.854 6.246zM63.235 490.709c-6.195 249.047 193.29 447.293 438.62 447.293 237.895-1.24 437.38-188.334 437.38-437.38 0-241.613-195.768-442.337-448.532-437.38C257.764 68.196 68.191 252.813 63.235 490.708zM236.7 565.051c-11.151-87.971 65.67-169.748 151.163-169.748 9.912 0 9.912-2.478 9.912-9.912v-33.454c0-9.912 0-13.63-9.912-13.63h-116.47V259.01h457.205v76.82c-7.434 2.479-8.673 2.479-13.63 2.479h-101.6c-8.673 0-11.152 3.717-11.152 13.629v33.454c0 7.434 2.479 9.912 9.913 9.912h116.47v84.255H602.215v128.86c0 9.912 4.957 11.151 11.152 11.151h115.23v83.016H602.216v56.995c0 19.825 0 19.825-18.585 19.825h-55.757v-63.19c0-12.391 0-14.87-13.63-13.63H483.27c-8.673 0-8.673 0-9.912 8.673v55.757c0 8.673-2.479 12.39-12.39 12.39h-52.04c-7.435 0-11.152-3.717-11.152-9.912v-56.996c0-8.673 0-9.912-9.912-9.912-79.298-2.478-140.011-60.713-151.163-137.534zm84.255-14.868c0 34.693 24.78 60.713 64.43 69.386 12.39 0 12.39-1.239 12.39-14.868V494.426c0-18.585 0-18.585-18.585-14.868-40.889 7.434-58.235 35.932-58.235 70.625zm152.402 58.235c0 9.912 1.239 11.151 9.912 11.151h33.454c8.673 0 11.151-1.239 11.151-11.151V489.47c0-8.673 0-9.912-9.912-9.912h-34.693c-8.673 0-9.912 1.239-9.912 9.912zm0-213.115h48.322c3.717 0 6.195-7.434 6.195-8.673v-37.17c0-7.434-2.478-11.151-9.912-11.151H482.03c-3.717 0-8.673 7.434-8.673 8.673-2.479 16.107 0 32.215 0 48.322z" style="fill:#000;fill-opacity:1;fill-rule:nonzero;stroke:none;"/>
</svg>
