<svg xmlns="http://www.w3.org/2000/svg" viewBox="0 0 1000 1000"><path d="M635.268 338.963c20.514 9.91 29.432 27.45 26.757 52.522-3.27 27.054-15.559 49.054-36.667 65.9-21.108 16.848-45.288 25.271-72.342 25.271H394.458l8.919-50.54h131.801l11.892-62.433H416.26l7.928-40.63h148.648c27.054 0 47.865 3.27 62.432 9.91zM5 499.998c0-89.486 22.495-172.927 67.387-250.224 43.604-74.621 102.766-133.783 177.387-177.387C327.071 27.495 410.61 5 500.494 5c89.189 0 172.432 22.495 249.729 67.387 74.621 43.604 133.783 102.766 177.386 177.387 44.892 77.297 67.388 160.738 67.388 250.224 0 89.487-22.496 172.928-67.388 250.225-43.603 74.621-102.765 133.783-177.386 177.387-77.297 44.891-160.738 67.387-250.225 67.387-89.486 0-172.927-22.496-250.224-67.387-74.621-43.604-133.783-102.766-177.387-177.387C27.495 672.926 5 589.485 5 499.998zm242.792 259.144h93.153l36.666-188.288H515.36c54.801 0 101.08-8.919 138.738-26.757 60.153-27.747 94.144-76.306 102.072-145.675 5.946-46.279-.991-81.955-20.811-107.027-16.55-21.108-43.604-35.675-81.261-43.603-27.054-5.946-65.703-8.919-115.946-8.919H348.873l-24.775 130.81h-54.504l-11.892 62.433h53.513z"/></svg>