<svg xmlns="http://www.w3.org/2000/svg" width="1000" height="1000">
  <path d="M500.496 5C223.572 5 5 229.506 5 500.002c0 276.43 224.506 495.001 495.002 495.001 276.43 0 495.001-224.506 495.001-495.001C995.003 226.539 773.464 5 500.496 5zM278.957 721.046c6.923-8.9 17.802-10.879 28.681-3.956 20.77 17.803 48.462 30.66 75.165 41.539 60.33 20.77 123.627 20.77 183.957 6.923 43.517-8.901 84.066-26.703 123.627-48.462 10.88-6.923 21.758-4.945 28.681 3.956 6.923 10.88 4.945 24.726-6.923 30.66-23.736 11.868-46.483 24.725-70.22 33.626-50.44 21.759-99.89 31.649-159.231 31.649-68.242-.99-134.506-18.792-194.836-62.308-1.978-1.978-5.934-2.967-6.923-4.945-8.901-7.912-8.901-19.78-1.978-28.682zm13.846-472.749c0-24.725 21.758-48.461 48.462-48.461 24.725 0 46.484 21.758 46.484 48.461 0 26.704-19.78 48.462-46.484 48.462-26.704-1.978-46.484-21.758-48.462-48.462zm12.857 165.166c-4.945-23.736 1.978-43.517 21.759-52.418 13.846-6.923 35.604-4.945 49.45 6.923 3.956 5.934 7.912 14.835 10.88 19.78 8.9 32.638 15.824 61.32 25.714 91.979 0 4.945.989 8.901 6.923 13.846 6.923-15.824 10.88-33.626 15.824-50.44 4.945-19.78 12.857-37.582 17.802-57.363 6.924-18.79 21.759-28.68 43.517-28.68 18.791 0 35.605 9.89 40.55 28.68 12.857 32.638 21.758 63.297 32.637 94.946 1.978 1.978 4.945 5.934 6.923 7.912 3.956-18.791 8.901-37.583 12.857-56.374 2.968-13.846 4.946-27.692 8.902-42.527 6.923-22.748 28.681-35.605 51.428-32.638 21.759 5.934 35.605 27.692 32.638 50.44-16.813 62.308-32.638 123.627-45.495 187.913-8.901 46.483-22.747 86.044-53.407 86.044-20.769 1.978-35.604-8.901-42.527-32.638-12.857-35.604-26.704-73.187-41.539-110.77 0-2.966-1.978-6.922-1.978-10.878h-.989c-5.934 19.78-12.857 41.538-19.78 59.34-7.912 23.737-14.835 44.506-21.758 64.286-4.946 21.759-21.759 30.66-41.54 30.66-17.801 0-33.626-10.88-37.582-30.66-24.725-78.132-46.483-159.231-71.209-237.363zm296.705-149.341c-15.825-8.901-15.825-28.682 0-37.583 19.78-9.89 37.582-20.77 57.362-31.648 8.902-3.956 14.836-1.978 19.78 4.945 5.935 6.923 1.979 14.835-6.922 19.78L626.1 246.32c13.846 7.913 37.583 21.759 51.429 28.682 7.912 5.934 5.934 12.857 1.978 16.813-4.945 6.923-13.846 6.923-21.759 2.967-8.9-4.945-13.846-6.923-20.769-10.879-12.857-6.923-23.736-11.868-34.615-19.78z" style="fill:#000;fill-opacity:1;fill-rule:nonzero;stroke:none;"/>
</svg>
