<svg id="Layer_1" data-name="Layer 1" xmlns="http://www.w3.org/2000/svg" viewBox="0 0 1000 1000"><path d="M726.71,178.85c-4.64,0-9.55.05-14.78.17-60,1.35-138.09,10.53-220,25.85s-158,35-214.44,55.43c-78,28.24-80.17,44-80.15,44.12s7.76,14,90.68,12.15c60-1.35,138.09-10.53,220-25.85s158-35,214.44-55.43c77.43-28,80.13-43.75,80.15-44.12C802.48,190.86,795.25,178.85,726.71,178.85Z"/><path d="M726.71,683.26c-4.64,0-9.55,0-14.77.17-60,1.35-138.09,10.53-220,25.85s-158,35-214.44,55.42c-78,28.25-80.17,44-80.15,44.13s7.76,14,90.68,12.15c60-1.35,138.09-10.53,220-25.85s158-35,214.43-55.42c77.43-28.05,80.14-43.76,80.16-44.13C802.48,695.27,795.27,683.26,726.71,683.26Z"/><path d="M500,0C223.9,0,0,223.9,0,500s223.9,500,500,500,500-223.9,500-500S776.1,0,500,0ZM730.23,756.13c-57.46,21-135.19,41.13-218.87,56.79s-163.45,25-224.6,26.19q-7.12.14-13.64.14c-79,0-91.32-15.3-93.53-27.1-2.33-12.45,4.49-32.61,90.18-63.87,57.46-21,135.19-41.13,218.87-56.79s163.45-25,224.6-26.19c91.21-1.84,104.84,14.51,107.17,27h0C822.74,704.7,815.92,724.87,730.23,756.13ZM347.47,499.67A154.34,154.34,0,1,1,501.81,654,154.34,154.34,0,0,1,347.47,499.67ZM730.23,251.72c-57.46,21-135.19,41.13-218.87,56.79s-163.45,25-224.6,26.19q-7.12.14-13.64.14c-79,0-91.32-15.3-93.53-27.1-2.33-12.45,4.49-32.61,90.18-63.87,57.46-21,135.19-41.13,218.87-56.79s163.45-25,224.6-26.19c91.18-1.82,104.84,14.51,107.17,27S815.92,220.46,730.23,251.72Z"/></svg>