<svg xmlns="http://www.w3.org/2000/svg" width="1000" height="1000">
  <path d="M71.791 366.418 504.65 640.004h1.284l441.849-280.008v-1.285L509.787 79.987h-1.285L71.792 365.133zM5.001 475.596v-96.334c0-7.706 2.568-15.413 7.706-20.55l1.284-1.285 8.992-6.422 471.39-306.982c10.276-5.138 21.836-5.138 30.827 0l455.977 290.284c14.13 8.99 17.983 28.258 8.991 42.386-2.568 2.57-5.137 6.423-8.99 8.992L521.346 675.969c-10.276 5.138-21.836 5.138-32.111 0L43.534 394.676h-1.285v80.92c0 12.844 6.422 24.404 17.982 30.826l439.28 280.009h1.285L949.066 500c11.56-7.707 25.69-6.422 35.965 2.569 6.422 6.422 10.275 15.413 8.99 24.404v83.49c0 25.688-11.56 48.808-33.395 61.652l-439.28 283.862c-5.137 2.57-10.275 3.854-16.697 3.854-5.138 0-11.56-1.285-15.413-5.138L24.267 656.703v-1.285l20.551-30.827h1.284L504.65 920.013h1.284L941.36 640.004c8.99-6.422 15.413-16.697 15.413-28.257v-69.36s0-1.285-1.284-1.285v1.285L516.209 821.11c-10.276 6.422-23.12 6.422-32.111 0L39.68 538.533C17.845 525.69 5 501.284 5 475.596z" style="fill:#000;fill-opacity:1;fill-rule:nonzero;stroke:none;"/>
</svg>
