<svg xmlns="http://www.w3.org/2000/svg" width="1000" height="1000">
  <path d="M5 500.002v-.396.396c.099 89.505 22.55 172.682 67.253 249.726C116.462 824.2 175.803 883.54 250.276 927.75c77.143 44.803 160.418 67.253 249.726 67.253 89.308 0 172.583-22.45 249.726-67.253C824.2 883.541 883.54 824.2 927.75 749.728c44.803-77.143 67.253-160.418 67.253-249.726 0-89.308-22.45-172.583-67.253-249.726-44.209-74.473-103.55-133.814-178.022-178.023C672.585 27.45 589.31 5 500.002 5c-89.308 0-172.583 22.45-249.726 67.253-74.473 44.209-133.814 103.55-178.023 178.023C27.55 327.32 5.099 410.496 5 500.002zm120.66-63.792c0-23.736 8.9-68.242 24.725-68.242h58.352c9.89 0 14.835 2.967 10.88 14.835-.99 12.858-3.957 24.726-7.913 38.572-2.967 7.912-7.912 14.835-20.77 14.835zm41.538 260.111v-16.813c22.748-97.913 48.462-196.814 69.231-294.727 0-13.846 9.89-16.813 17.803-16.813H486.65c12.857 0 16.813 2.967 12.857 16.813-23.736 103.847-45.494 207.693-73.187 311.54h-74.176c0-8.901 0-13.846 1.978-22.747 17.802-73.187 35.605-148.353 51.429-221.54 2.967-15.824 2.967-15.824-14.835-15.824-58.352 0-80.11-7.912-83.078 15.824-10.879 50.44-24.725 103.847-36.593 154.287-6.923 29.67-14.835 58.352-22.747 90zm327.364-215.605c4.945-31.649 12.857-59.341 20.77-90 0-5.935 2.966-7.913 4.944-17.803 2.968 5.934 5.935 9.89 5.935 11.868 19.78 44.506 38.571 90 58.351 132.528 2.967 3.956 2.967 12.858 2.967 19.78-7.912 36.594-15.824 73.188-25.714 108.792 0 2.967-1.978 4.945-4.945 8.901-5.934-18.79-10.88-28.681-16.813-43.516-23.737-48.462-51.429-107.803-45.495-130.55zm74.176 215.605c0-8.901 2.967-16.813 3.956-24.725 23.737-96.924 44.506-190.88 65.275-286.815 2.967-11.868 7.912-16.813 19.78-16.813 39.561 0 78.133 0 117.693 2.967 16.813 0 36.594 1.978 50.44 7.912 28.681 8.902 47.473 28.682 50.44 57.363 0 7.912 5.934 6.923 14.835 9.89 15.824 8.901 11.868 40.55-19.78 36.594-50.44 38.571-33.627 22.747-51.43 38.571l3.957 3.956c18.791 7.913 32.637 21.759 39.56 44.506 26.704 0 23.737 40.55 12.858 40.55-7.913 0-19.78 10.879-21.759 15.824-16.813 45.495-87.033 70.22-149.34 70.22zm99.89-95.934c-7.912 35.604-10.879 30.659 21.759 30.659 30.66 0 52.418.989 73.187-16.813 11.868-7.912 14.835-21.759 11.868-35.605-3.956-24.725-35.604-22.747-89.011-22.747-10.88 0-10.88 13.846-17.802 44.506zm31.65-139.451c-6.924 25.714-19.781 35.604 21.757 35.604h4.945c32.638 0 63.297-10.88 56.374-47.473-2.967-15.824-22.747-19.78-40.55-19.78-40.549 0-31.648-.989-42.527 31.649z" style="fill:#000;fill-opacity:1;fill-rule:nonzero;stroke:none;"/>
</svg>
