<svg xmlns="http://www.w3.org/2000/svg" viewBox="0 0 1000 1000"><path d="M500,5C226.6,5,5,226.6,5,500S226.6,995,500,995,995,773.4,995,500,773.4,5,500,5ZM346.7,140H416c-18.8,10.8-80.8,88-96.7,145.7H201ZM301.5,520.8V668H245.7V336h55.8V470.6h99.4V336.1h55.8v332H400.9V520.8ZM348.2,860,201,714.3H315.7c18,43.3,50.6,103,97.4,145.7Zm136.3,0H452c-22.6-15.9-76-67.2-108.9-145.7H484.5Zm2.2-574.3h-140c9.9-30.1,45-101.3,106.8-145.7h33.2ZM514.8,140h32.5c22.6,15.9,76,67.2,108.9,145.7H514.8Zm93.3,409.5c2.8,14.7,7,27.7,12.7,38.9,5.6,10.9,12.7,19.5,21.1,25.8,8.8,6.3,19.1,9.4,31,9.4a83.11,83.11,0,0,0,20.2-2.3c6.3-1.9,11.3-4.2,15-7V528.5H667.8V479.7h91.4V648a121,121,0,0,1-36.1,19.7c-13.8,5-30.3,7.5-49.7,7.5q-29.55,0-53-12.2-23.4-12.6-39.9-35.6-15.9-22.95-24.9-54.9-8.4-31.95-8.4-70.8,0-37.95,8.4-69.9c5.6-21.3,13.8-39.5,24.4-54.9,10.6-15.6,23.4-27.7,38.5-36.1,15-8.8,31.9-13.1,50.6-13.1q29.55,0,51.1,10.8A90.19,90.19,0,0,1,755.4,368L723,407.4q-18.75-27.15-50.6-27.2a49.87,49.87,0,0,0-30.5,9.8c-8.4,6.6-15.5,15.5-21.1,26.7-5.6,10.9-9.8,23.8-12.7,38.5a247.91,247.91,0,0,0-4.2,46.4A262,262,0,0,0,608.1,549.5ZM545.8,860H512.6V714.3h140C642.8,744.3,607.6,815.6,545.8,860Zm106.8,0H583.3c18.8-10.8,80.8-88,96.7-145.7H798.3Zm31-574.3c-18-43.3-50.6-103-97.4-145.7h64.9L798.3,285.7Z" fill-rule="evenodd"/></svg>