<svg xmlns="http://www.w3.org/2000/svg" viewBox="0 0 1000 1000"><path d="M389.861 668.34H194.614V413.017l212.77 212.77c-10.014 13.767-15.02 28.786-17.523 42.553zm-195.247 42.554H389.86c2.503 15.02 7.51 28.787 17.522 41.302L268.457 891.122c-21.277-25.031-38.799-52.566-51.315-81.353-13.767-32.54-21.277-65.082-22.528-98.875zm0-361.708V5l284.11 254.072v320.406c-11.265 2.503-25.032 8.76-38.8 16.27L299.747 456.822c-56.322-56.321-91.366-92.617-105.133-107.636zM298.495 921.16l138.926-138.926c12.516 7.51 26.283 13.768 41.303 16.271v196.499c-32.542-1.252-66.335-8.761-97.624-22.529-30.038-12.515-57.573-30.038-82.605-51.315zm221.53 73.844V798.505c13.768-2.503 28.787-7.51 43.806-16.27l136.423 137.674c-25.032 22.528-52.566 38.799-82.604 52.566-30.039 13.768-63.831 20.026-97.624 22.529zm0-415.526V384.23c33.794 1.252 66.335 8.761 97.625 21.277 30.038 12.516 57.572 30.038 82.604 52.567L562.58 597c-13.768-8.761-27.535-15.02-42.554-17.522zm71.341 47.56 138.926-138.926c21.277 25.032 38.8 52.567 51.315 82.605 13.768 32.54 21.277 65.082 22.529 97.623H608.888c-2.503-16.27-8.76-30.038-17.522-41.302zm2.503 121.404c7.51-10.013 12.516-23.78 15.02-37.548h196.498c-1.251 32.541-8.76 63.831-21.277 93.869-12.515 31.29-30.038 58.825-51.315 83.856z"/></svg>