<svg xmlns="http://www.w3.org/2000/svg" viewBox="0 0 1000 1000"><path d="M831.3 31.727V686.53c0 16.704-3.342 28.954-17.819 38.976-94.657 86.862-193.768 173.724-290.652 259.472-16.704 13.363-24.5 13.363-42.317 0-100.225-90.203-199.337-177.064-299.562-263.926-4.454-8.909-7.795-17.818-7.795-25.613-4.454-221.609-4.454-447.672-4.454-668.167C168.7 10.568 176.496 5 189.859 5h619.168c18.931 0 22.272 10.023 22.272 26.727zm-619.17 632.53c0 17.819 0 26.728 12.25 38.977 86.862 77.953 178.178 155.906 265.04 234.972 8.908 7.796 16.704 7.796 25.613 0 86.861-82.407 177.064-161.473 265.04-239.426 7.794-7.795 12.249-16.704 12.249-25.613V75.157c0-21.158-7.795-26.726-26.727-26.726H237.744c-22.272 0-25.613 5.568-25.613 26.727V369.15zm60.135-533.419c0-16.704 8.91-21.159 22.273-21.159 46.771 4.455 90.202 4.455 133.633 0 17.818 0 22.272 8.91 22.272 21.16V344.65c33.408-22.272 64.59-38.976 94.657-61.248 4.455-4.455 8.909-13.363 8.909-21.159 4.454-43.43 4.454-86.861 0-131.406 0-12.25 4.454-21.159 22.272-21.159h133.634c16.704 0 21.158 4.455 21.158 21.16v507.806c0 8.909-4.454 16.704-12.25 21.158-64.589 61.249-130.292 116.93-199.336 178.178-13.363 13.364-21.159 13.364-35.636 0-67.93-56.794-133.633-116.929-198.222-173.723-4.455-8.909-10.023-16.704-10.023-25.613-3.34-168.155-3.34-337.424-3.34-507.807zm43.431 494.443c0 13.364 4.455 13.364 17.818 13.364h60.135c17.818 4.454 22.272-3.341 22.272-17.818v-203.79c-35.635 22.271-65.703 38.976-95.77 61.248-4.455 4.454-4.455 8.909-4.455 16.704zm0-194.881c34.522-21.16 61.249-38.977 91.316-56.795 4.455-4.454 8.91-12.25 8.91-21.158V169.814c0-12.25-4.455-16.704-17.819-16.704H337.97c-17.817 0-22.272 4.455-22.272 22.273V369.15zm52.34 247.221c43.43 37.863 86.862 77.953 125.838 112.475 4.454 4.454 16.704 0 21.159-4.455 26.726-21.158 51.226-47.885 82.407-70.157 12.25-12.25 26.726-24.5 38.976-37.863zm82.407-52.34c0 4.455 8.909 13.364 12.25 13.364 26.727 4.454 52.34 0 79.066 0 3.341 0 12.25-8.91 12.25-13.364 4.454-43.43 0-91.316 0-142.542-34.522 21.159-64.59 38.977-94.657 60.135-4.454 4.455-8.909 10.023-8.909 17.818zm0-125.838c82.407-51.226 154.792-99.111 233.859-150.337 3.34 0 7.795-10.023 7.795-18.931v-160.36c0-12.25-4.455-16.705-16.704-16.705h-60.135c-17.818 0-22.273 8.91-22.273 22.273v103.565c0 16.705-8.909 30.068-26.726 43.431-33.409 16.704-64.59 38.977-99.112 65.703-7.795 3.341-16.704 7.796-16.704 16.704zm142.542 121.384c0 17.818 4.455 17.818 16.705 17.818h56.794c21.158 4.454 25.613-3.341 25.613-22.272V417.036c0-4.454 0-12.25-4.455-21.158-28.954 21.158-60.135 38.976-85.748 55.68-4.454 4.455-8.909 13.363-8.909 22.272z"/></svg>