<svg xmlns="http://www.w3.org/2000/svg" width="1000" height="1000">
  <path d="M986.104 423.688c37.65 177.664-54.123 452.984-336.503 547.11-235.317 80.009-508.284-44.71-605.94-280.026-100.01-243.553 4.706-518.873 240.022-634.178 240.023-120.012 491.812-10.59 589.469 123.54-17.65 21.18-31.768 16.473-49.417 0-81.184-83.537-183.547-127.07-297.675-127.07-198.843-2.353-355.329 114.128-418.864 282.38-94.127 250.612 45.887 512.99 302.382 580.055 283.556 75.302 557.7-150.602 543.581-448.278-2.353-37.65-2.353-37.65 32.945-43.533zm-865.966-36.475c10.59-32.944 50.593-56.476 82.361-42.357 40.004 9.413 54.123 51.77 42.357 89.42-4.706 9.413-2.353 21.18 0 30.592 34.121 56.476 67.065 112.952 103.54 171.781 16.472 27.062 31.767 27.062 47.063 1.177 36.474-51.77 70.595-104.716 107.069-156.486 4.706-8.236 7.06-23.532 4.706-34.12-7.06-30.592 0-60.007 22.355-75.302 22.355-17.649 56.476-17.649 78.831-2.353 23.532 17.648 31.768 47.063 23.532 77.654-2.353 10.59 0 22.355 5.883 28.238 9.413 22.355 22.355 41.18 35.297 57.653 16.473 20.002 38.828 22.355 54.123 0 44.71-57.653 87.067-114.129 125.895-172.958 4.706-10.59 4.706-28.238 2.353-38.827-2.353-40.004 15.295-71.772 51.77-78.831 34.12-7.06 65.888 10.589 78.83 44.71 9.413 38.827-15.295 78.831-54.122 82.36-22.355 2.354-35.298 10.59-44.71 27.062-37.651 54.123-77.655 104.716-115.306 158.839-4.706 12.942-7.059 30.591-4.706 40.004 8.236 47.063-20.002 87.067-65.889 87.067-43.533 0-76.477-40.004-63.535-81.184 7.06-21.179 2.353-32.945-8.236-49.417-15.296-15.295-23.532-30.591-34.121-48.24-11.766-20.002-36.474-20.002-48.24 0-40.004 54.123-76.478 109.423-112.952 163.545-4.706 8.236-4.706 23.532-2.353 29.415 7.06 34.12 0 60.006-25.885 80.008-23.532 12.942-55.3 12.942-75.301 0-22.355-20.002-31.768-48.24-22.355-80.008 2.353-11.766 2.353-29.415-3.53-37.65-34.121-57.653-67.065-115.306-102.363-169.429-3.53-8.236-14.119-16.472-25.885-16.472-43.533-8.236-65.888-43.534-56.476-85.89z" style="fill:#000;fill-opacity:1;fill-rule:nonzero;stroke:none;"/>
</svg>
