<svg xmlns="http://www.w3.org/2000/svg" width="1000" height="1000">
  <path d="M500.496 995.003c275.935 0 494.507-224.506 494.507-495.496C995.003 226.54 773.464 5 500.496 5 223.572 5 5 229.506 5 499.507c0 276.924 224.506 495.496 495.496 495.496zm-320.44-756.596H315.55c9.89 0 11.869 0 11.869 5.934h.989L506.43 590.496l177.034-346.155.989-.989c.989-3.956 3.956-5.934 11.868-5.934h137.473L521.265 847.64v.99c-1.978 5.933-6.923 8.9-13.846 8.9h-.989c-6.923 0-12.857-2.967-13.846-8.9v-.99z" style="fill:#000;fill-opacity:1;fill-rule:nonzero;stroke:none;"/>
</svg>
