<svg xmlns="http://www.w3.org/2000/svg" width="1000" height="1000">
  <path d="M919.544 5.247c12.313 3.694 32.012 34.475 38.169 60.33 17.237 73.875 0 125.587-51.712 200.692-22.163 32.013-55.406 67.719-93.574 115.737l-9.85 12.312-43.094 51.712c-14.774 17.237-23.393 29.55-28.318 36.937-7.387 11.081-16.006 14.775-19.7 14.775-55.405 0-92.343 6.156-102.192 27.087-4.925 9.85 34.474 12.313 60.33 12.313h23.394l-72.643 102.192c-49.25 68.95-76.337 102.193-81.262 103.424H516.93c-67.718 0-118.199-1.231-150.211 4.925-27.087 4.925-56.637 17.237-76.337 39.4l-8.618 8.618c114.505 11.081 167.448 13.544 307.809 14.775l-12.313 6.156c-40.63 19.7-107.117 29.55-164.985 24.625-45.556-3.694-83.724-4.925-118.199-8.619l-33.243-3.693c7.387 13.543 9.85 23.393 18.468 33.243 22.162 25.856 45.556 40.63 86.187 54.174 14.775 4.925 19.7 6.157 18.468 7.388 0 0-4.925 0-19.7-1.231-27.087-1.232-62.793-9.85-87.417-20.931-24.625-11.082-33.244-23.394-51.712-48.019-3.694-6.156-7.388 7.388 1.231 27.088 9.85 23.393 20.931 36.937 44.325 51.711 17.237 14.775 23.393 20.931 22.162 22.163-1.231 1.231-9.85-2.463-25.856-8.619-17.237-6.156-30.781-12.312-44.325-19.7-17.237-9.85-28.318-16.006-33.243-22.162-4.925 8.619-18.469 27.087-48.018 56.637-25.856 25.856-40.631 38.168-41.862 33.243-1.232-1.231 1.23-6.156 7.387-14.775l19.7-27.087c29.55-35.706 44.324-48.018 34.474-81.261-9.85-34.475-28.318-8.619-45.555 23.393l-7.388 11.081-3.693-9.85c-6.157-25.856-2.463-40.63 17.237-66.486L78.61 783.389c-23.394-20.931-34.475-32.012-34.475-33.244-7.387-6.156-9.85-9.85-7.387-13.543 2.462-3.694 11.08-1.231 28.318 6.156 30.781 13.544 43.093 27.087 68.95 50.48l19.7 17.238-23.394-70.18-14.775-32.013c-9.85-20.93-11.081-33.243-8.619-33.243 1.231 0 8.619 4.925 19.7 20.931 9.85 13.544 19.7 24.625 28.318 38.168l22.163 34.475 9.85 22.162-1.232-30.78c0-23.394 0-43.094 3.694-57.869 3.694-16.006 6.156-32.012 12.312-49.25 4.925-13.543 8.619-20.93 13.544-19.699 3.694 0 7.387 11.081 8.619 22.162 4.924 19.7 9.85 34.475 14.774 45.556 17.238 38.168 27.088 54.174 33.244 48.018 2.462-1.231 6.156-12.312 7.387-34.474 1.231-23.394 4.925-51.712 2.463-83.724-2.463-28.319-6.157-56.637-8.619-86.187l-2.462-33.243c28.318-29.55 43.093-43.094 44.324-41.862 1.231 1.23 2.463 16.006 2.463 44.324 0 28.318 1.23 46.787 1.23 56.637 0 14.775 11.082 56.637 17.238 56.637 3.694 0 16.006-25.856 20.931-44.325 4.925-18.468 9.85-39.4 13.544-60.33l17.237-109.58 39.4-36.937c25.856-24.625 43.093-34.475 43.093-34.475 1.231 0 2.462 6.156 3.694 22.162 1.23 17.237 4.925 33.244 16.006 48.018l3.693 4.925c14.775-12.312 22.163-43.093 28.319-96.036 2.462-20.931 3.693-34.475 6.156-38.168 2.462-3.694 24.625-24.625 70.18-61.562 39.4-32.012 77.568-60.33 114.505-89.88 30.781-24.625 71.412-50.481 123.124-81.262 51.712-30.781 78.8-46.787 83.724-44.325zM370.413 699.665l91.111-91.112c66.487-66.487 113.274-119.43 142.824-155.136 29.55-35.705 73.874-88.649 128.048-166.216l71.412-103.424C696.69 301.975 615.428 393.087 561.254 457.11c-33.243 39.4-76.336 91.112-125.586 156.367z" style="fill:#000;fill-opacity:1;fill-rule:nonzero;stroke:none;"/>
</svg>
