<svg xmlns="http://www.w3.org/2000/svg" viewBox="0 0 1000 1000"><path d="M775.806 969.709h56.244c48.987 0 48.987 0 56.244-47.173 65.316-326.578 116.117-526.154 105.23-662.228C949.982-10.026 599.817-44.498 365.77 115.162c-21.772 5.443-38.101 0-38.101-23.586v-25.4c0-23.587-9.072-30.844-23.586-30.844H231.51c-48.987 0-48.987 0-56.244 47.172-48.987 239.491-96.16 488.054-143.332 727.544-7.257 39.915-16.329 81.645-23.586 128.817-9.072 30.844 0 41.73 30.843 41.73h65.316c47.173 0 47.173 0 63.501-48.987 34.473-161.475 54.43-322.95 87.088-471.724 39.915-199.576 194.133-321.135 393.708-295.735 127.003 14.515 190.504 85.273 183.247 205.019 0 67.13-54.43 368.307-96.16 553.368-9.07 39.916-9.07 47.173 39.916 47.173z"/></svg>