<svg xmlns="http://www.w3.org/2000/svg" width="1000" height="1000">
  <path d="M500.496 5c272.968 0 494.507 221.54 494.507 495.002 0 270.495-218.572 495.001-495.001 495.001C229.506 995.003 5 776.431 5 500.002 5 229.506 223.572 5 500.496 5zM106.868 557.859l5.935 4.945c77.143 77.143 152.308 147.363 228.462 219.561 9.89 7.912 12.857 9.89 23.736 9.89 14.835 0 14.835-.989-.989-29.67-27.692-56.374-46.483-93.956-76.154-143.407-22.747-45.495-32.637-56.374-18.791-75.165 22.747-31.649 67.253-95.935 90-122.638-32.637-39.56-65.275-66.264-99.89-104.836-47.473 82.089-101.869 164.177-152.309 241.32zm219.562 15.824c37.582 66.264 71.209 136.484 103.846 202.748 4.945 11.868 16.813 15.824 26.704 15.824h93.956c5.934 0 16.813 0 21.758-9.89 38.572-76.154 77.143-147.363 114.726-219.561-60.33-87.033-119.67-175.055-181.979-263.078-21.758 22.748-95.934 137.473-174.066 246.265-8.901 16.813-8.901 16.813-4.945 27.692zM627.09 788.3c29.67 0 29.67 0 43.517-11.868 72.198-66.264 143.407-131.539 214.616-202.748 4.945-3.956 10.879-10.879 15.824-15.824-55.385-82.088-103.847-159.231-158.242-241.32-33.627 38.572-66.264 71.21-92.968 104.836 31.649 42.528 59.341 92.967 92.968 141.429-39.56 77.143-76.154 147.363-115.715 225.495z" style="fill:#000;fill-opacity:1;fill-rule:nonzero;stroke:none;"/>
</svg>
