<svg xmlns="http://www.w3.org/2000/svg" viewBox="0 0 1000 1000"><path d="M5 500.496c0 271.98 220.55 494.507 495.496 494.507 271.98 0 494.507-220.55 494.507-495.496C995.003 227.528 773.464 5 500.496 5 226.54 5 5 225.55 5 500.496zM191.924 797.2V178.077h255.165v61.32c2.967.988 4.945.988 6.923.988h119.671c9.89 0 16.813 2.967 22.748 8.902 13.846 12.857 27.692 24.725 41.538 35.604 10.88 10.88 22.747 22.747 36.594 32.637 11.868 11.869 24.725 21.759 35.604 32.638 3.956 3.956 5.934 5.934 10.88 8.901.988.99.988 1.978 2.966 1.978-21.758-39.56-44.505-79.121-67.253-120.66h72.198c4.946 0 4.946 0 4.946 6.923v121.65c0 4.944 0 8.9-.99 12.856 0 .99-1.978 1.978-2.967 2.967h-261.1c-4.944 0-5.933 0-5.933 5.935 0 16.813.989 34.615.989 53.406 0 1.978.989 2.967 3.956 2.967.989 1.978 1.978 1.978 2.967 2.967 13.846 11.869 26.703 23.737 40.55 35.605 9.89 8.901 19.78 17.802 28.68 25.714 12.858 10.88 24.726 21.759 36.594 32.638 7.912 7.912 16.814 14.835 25.715 21.758.989.99 1.978 1.978 2.967 1.978l.989-.989c-22.748-38.571-45.495-79.121-68.242-119.67h191.868c4.946 0 3.957 100.879 3.957 136.483 0 6.923 0 6.923-6.924 6.923H443.133c-3.956 0-4.945 0-4.945 5.935v40.55c0 3.955.99 9.89 0 14.834 0 3.956.99 4.945 3.956 4.945h128.572c6.923 0 12.857.99 19.78.99.99 0 1.979.988 2.968 1.977 12.857 9.89 23.736 21.759 36.593 32.638 15.824 12.857 30.66 26.703 46.484 39.56 11.868 11.869 23.736 21.759 35.604 33.627 2.967 1.978 7.912 4.945 11.868 8.901h.99c-22.748-39.56-44.506-77.143-67.254-117.693h148.353c4.945 0 4.945 0 4.945 4.945V797.2zm.989-73.187c0 1.978 1.978 3.956 1.978 4.945 7.912 5.935 13.846 11.869 20.77 16.814 8.9 8.9 17.801 16.813 26.702 24.725 1.978 1.978 3.956 2.967 5.935 3.956v-.989c-18.792-31.648-36.594-64.286-54.396-95.934 0 .989-.99.989-.99.989zm0-420.33c0 6.922.989 11.867 5.934 16.813 15.824 11.868 30.66 25.714 45.494 38.571l3.957 3.956c0-.989 0-.989.989-.989-18.792-32.637-36.594-65.275-55.385-97.912h-.99v5.934zm37.582 139.45c-1.978 1.978-.989 2.967.99 5.934 2.966 2.967 5.933 4.945 8.9 7.913 11.869 10.879 23.737 21.758 38.572 33.626 13.846 13.846 28.681 25.714 44.506 39.56 11.868 10.88 23.736 21.759 36.593 32.638 2.967 1.978 4.945 3.956 6.923 5.934l.99-.989C333.352 507.42 298.736 446.1 263.132 385.77c0 .99-.99.99-.99 1.979-10.878 18.79-21.758 36.593-31.648 55.384zm117.693 206.704c-.99 1.978 0 3.956 1.978 5.934 3.956 2.967 5.934 4.945 8.901 6.923 10.88 9.89 20.77 18.792 30.66 27.693 9.89 7.912 18.79 16.813 27.692 23.736 12.857 11.868 24.725 21.759 37.583 32.638 7.912 8.9 17.802 16.813 27.692 25.714.989.99 2.967 1.978 2.967 1.978h.989c-34.616-61.319-69.231-122.638-103.847-181.979-1.978.99-1.978 1.978-2.967 1.978-9.89 18.792-20.769 37.583-31.648 55.385zm.989-413.408c-1.978 2.967-.989 3.956.989 6.923 1.978 1.978 2.967 1.978 3.956 2.967 5.934 4.946 12.857 11.869 19.78 16.814 10.88 8.9 19.78 17.802 28.682 26.703 11.868 10.88 24.725 20.77 36.593 31.649 12.857 10.879 24.726 22.747 37.583 33.626 3.956 1.978 6.923 4.945 8.9 7.912.99-.989.99-.989 1.979-.989-34.616-61.319-70.22-122.638-105.825-183.957-1.978 5.935-3.956 8.902-5.934 13.847-8.9 13.846-17.802 28.681-26.703 44.505z"/></svg>