<svg xmlns="http://www.w3.org/2000/svg" viewBox="0 0 1000 1000"><path d="M676.422 959.04c-82.377 34.948-190.964 43.685-274.589 23.715-26.21-6.24-39.94-24.963-34.947-46.18 7.489-22.467 22.466-27.46 48.677-24.963 73.64 14.977 138.542 11.233 200.949-8.737C781.265 850.453 881.115 739.37 911.07 573.368c41.189-225.911-102.346-441.837-329.506-486.77C345.668 40.418 117.26 203.922 83.56 441.067c-7.488 53.67-4.992 106.09 8.737 161.008 6.241 24.963-2.496 51.174-22.466 57.414-47.429 9.985-53.67-51.173-63.655-117.324-9.985-161.009 43.685-298.303 158.513-404.394C257.05 52.898 365.638 6.718 490.45 6.718c309.536 0 555.417 285.821 495.507 575.387-37.444 180.98-139.79 304.544-309.536 376.935zM125.997 468.526c6.24-131.054 77.384-239.641 193.46-297.055 134.798-67.4 272.092-62.407 395.657 24.962 29.955 21.218 58.662 51.174 83.625 79.88 19.97 23.715 19.97 44.933 0 61.159-18.722 16.226-37.444 9.985-57.414-16.226-46.181-61.158-104.843-97.354-173.49-113.58-121.069-28.707-254.619 21.219-319.521 119.82-72.392 109.836-66.151 257.116 13.729 354.47 79.88 97.354 179.73 134.798 295.807 111.083 112.331-22.466 188.467-91.113 227.16-205.941 0-1.248 1.247-3.745 2.496-7.489 4.992-13.73 14.977-41.188 46.18-41.188 31.204 4.992 37.444 29.955 21.219 66.15-73.64 244.634-356.966 345.733-567.9 200.95-103.594-71.144-161.008-187.22-161.008-336.995zm175.986-72.392c-3.744-24.963 18.722-38.692 48.677-36.196 12.481 0 16.226-3.744 16.226-18.722-2.496-27.459 13.73-48.677 37.444-48.677 23.714 0 39.94 16.226 39.94 46.181 0 8.737 0 13.73 1.248 18.722h121.069c7.488 0 14.977 1.248 19.97 2.496 24.962 2.497 38.692 16.226 37.444 37.444 0 21.218-16.226 34.948-37.444 34.948-24.963 1.248-113.58 1.248-134.798 1.248-6.241 0-7.49 1.248-7.49 9.985v38.692a826.106 826.106 0 0 0 0 78.632c2.497 54.918 58.663 83.625 103.596 52.422 8.737-3.745 37.444-36.196 68.647-2.497 13.73 18.722 11.233 41.189-9.985 58.662-42.437 34.948-92.362 44.933-146.031 26.211-56.166-19.97-93.61-69.895-96.106-131.053 0-39.94 0-77.385 2.496-113.58 0-17.474-2.496-18.722-12.481-17.474h-6.241c-28.707-1.248-46.18-13.73-46.18-37.444z"/></svg>