<svg xmlns="http://www.w3.org/2000/svg" width="1000" height="1000">
  <path d="M563.432 363.653v-179.03H919.12c20.155 5.928 35.569 14.227 47.425 23.712 14.227 13.042 20.155 32.012 28.455 48.611v321.306c0 3.557-4.743 3.557-4.743 7.114-5.928 37.94-30.826 60.467-71.137 64.024-10.671 3.556-20.156 3.556-30.827 3.556v162.432c-37.94-52.168-77.066-103.15-112.635-151.76-7.113-8.3-13.041-10.672-23.712-10.672H563.432V477.473c-52.168 11.857-105.521 27.27-155.318 42.683v-198c54.54 11.856 103.15 27.27 155.318 41.497zM5 575.88V256.946c4.743-2.371 4.743-5.928 4.743-10.67 10.67-27.27 27.27-45.054 56.91-55.725 4.743-2.371 10.67-2.371 14.228-5.928h449.353v129.233c-54.539-15.413-107.892-27.27-160.06-41.497v292.85c52.168-15.412 105.521-29.64 160.06-41.496V649.39c-8.3 0-14.227 3.556-23.712 3.556H238.569c-10.67 0-16.598 2.372-23.712 10.671-34.383 46.24-66.395 92.48-101.964 138.719 0 2.371-4.743 7.113-10.671 10.67v-160.06c-9.485 0-15.413-3.556-21.341-3.556-35.57-3.557-55.725-26.084-67.581-56.91-3.557-7.114-3.557-10.671-8.3-16.6z" style="fill:#000;fill-opacity:1;fill-rule:nonzero;stroke:none;"/>
</svg>
