<svg xmlns="http://www.w3.org/2000/svg" viewBox="0 0 1000 1000"><path d="M500.496 5C223.572 5 5 229.506 5 500.002c0 276.43 224.506 495.001 495.002 495.001 276.43 0 495.001-224.506 495.001-495.001C995.003 226.539 773.464 5 500.496 5zM106.868 511.375c0-57.363 55.385-110.77 111.76-110.77 58.35 0 109.78 53.407 109.78 110.77 0 58.352-46.484 109.78-109.78 109.78-56.375 0-111.76-47.472-111.76-109.78zm69.231 0c0 24.726 19.78 41.539 42.528 41.539 24.725 0 42.528-16.813 42.528-41.539 0-22.747-17.803-42.527-42.528-42.527-22.747 0-42.528 24.725-42.528 42.527zm162.199 14.836c-9.89-19.78-4.945-32.638 10.879-44.506 17.802-8.901 34.615-3.956 42.528 11.868 4.945 7.912 13.846 17.802 18.79 26.703 24.726-39.56 26.704-43.516 57.364-98.901 14.835-25.714 48.461-25.714 63.297 0 4.945 5.934 51.428 81.1 61.319 98.901 0 0 58.351-93.956 58.351-94.945 19.78-29.67 44.506-29.67 63.297 0 18.792 33.627 38.572 63.297 56.374 100.88 29.67-44.506 54.396-88.023 77.143-130.55 4.945-8.902 10.88-19.78 15.824-24.726 8.902-12.857 28.682-17.802 43.517-8.9 12.857 8.9 16.813 24.724 7.912 38.57-12.857 28.682-28.681 58.353-42.527 81.1-24.726 38.571-42.528 73.187-68.242 110.77-25.715 41.538-46.484 41.538-67.253 0-13.847-27.693-34.616-56.374-51.43-94.946-20.768 33.627-38.57 67.253-54.395 94.945-8.901 15.825-17.802 28.682-38.572 28.682-16.813 0-26.703-12.857-37.582-28.682-13.846-27.692-34.616-61.318-52.418-94.945-5.934 9.89-60.33 101.869-63.297 105.825-17.802 22.747-42.527 22.747-55.385 0-16.813-24.726-29.67-53.407-45.494-77.143z"/></svg>