<svg xmlns="http://www.w3.org/2000/svg" viewBox="0 0 1000 1000"><path d="M289,2,87,204H251C273,124,359,17,385,2ZM483,204V2H437C351.4,63.6,302.7,162.3,289,204Zm39,0H718C672.4,95.2,598.3,24,567,2H522Zm234,0H915L711,2H621C685.8,61.2,731,144,756,204Zm-43,796L915,798H751c-22,80-108,187-134,202ZM519,798v202h46c85.6-61.6,134.3-160.3,148-202Zm-39,0H284c45.6,108.8,119.7,180,151,202h45Zm-234,0H87l204,202h90C316.2,940.8,271,858,246,798Zm118.1-64V529.9H226.3V734H149V273.8h77.4V460.4H364.2V273.8h77.4V734Zm496.4-28c-13.9,11.3-30.5,20.4-50,27.3-19.1,6.9-42,10.4-68.9,10.4q-41,0-73.4-16.9-32.55-17.55-55.2-49.4c-14.7-21.2-26.2-46.6-34.5-76q-11.7-44.25-11.7-98.2,0-52.65,11.7-96.9t33.8-76q22.05-32.55,53.3-50.1,31.2-18.15,70.2-18.2,41,0,70.8,14.9a124.61,124.61,0,0,1,48.8,41l-44.8,54.6q-26-37.65-70.2-37.7c-16,0-30.1,4.6-42.2,13.6-11.7,9.1-21.5,21.5-29.2,37.1-7.8,15.2-13.6,32.9-17.5,53.3a342.06,342.06,0,0,0-5.8,64.4,359.62,359.62,0,0,0,5.8,66.3c3.9,20.4,9.8,38.4,17.5,54q11.7,22.8,29.2,35.8c12.1,8.7,26.4,13,42.9,13a114,114,0,0,0,28-3.2c8.7-2.6,15.6-5.8,20.8-9.8v-119H734V472.7H860.8V706Z"/></svg>