<svg xmlns="http://www.w3.org/2000/svg" viewBox="0 0 1000 1000"><path d="M500.496 5C223.572 5 5 229.506 5 500.002c0 276.43 224.506 495.001 495.002 495.001 276.43 0 495.001-224.506 495.001-495.001C995.003 226.539 773.464 5 500.496 5zM185.99 552.914V364.012c0-57.363 28.681-102.857 77.143-128.572 49.45-32.637 98.901-61.319 152.308-92.967 55.385-35.605 117.693-35.605 175.055 0 49.451 31.648 98.902 57.363 145.386 87.033 57.362 31.649 86.044 80.11 83.077 145.385v178.023c0 57.363-22.748 102.857-72.198 129.56C677.53 725.992 609.288 758.63 545 798.19c-6.922 2.967-11.867 11.869-11.867 17.803v57.363c0 11.868-3.956 20.769-14.836 20.769-43.516 0-46.483 0-46.483-40.55 0-32.637-.99-52.418-33.627-67.253-64.286-30.66-121.648-69.23-180.99-103.846-47.472-26.704-71.208-72.198-71.208-129.561zm55.384-109.78c0 22.747 5.934 34.615 21.759 42.527 49.45 30.66 98.901 63.297 149.34 95.934 2.968 2.967 13.847 10.88 13.847 17.803 0 7.912 0 23.736-6.923 30.659-6.923 6.923-23.736 6.923-34.616 0-41.538-25.714-126.593-82.088-141.429-88.022-5.934 42.527 10.88 77.143 42.528 94.945 56.374 31.649 113.737 66.264 169.122 95.935 4.945 3.956 9.89 7.912 15.824 7.912 3.956-3.956 3.956-3.956 3.956-7.912v-151.32c0-8.9-5.934-15.824-9.89-15.824-42.528-23.736-62.308-56.374-62.308-102.857 0-7.913-6.923-19.78-9.89-23.737-44.506-29.67-87.034-57.363-129.561-83.077-8.901-3.956-10.88-7.912-19.78-10.88 0 6.924-1.979 13.847-1.979 22.748 0 25.715 1.978 52.418 0 75.165zm28.682-148.353c54.396 34.616 99.89 64.286 149.341 95.935 11.868 5.934 18.791 5.934 29.67 0 34.616-22.748 73.187-22.748 106.814 0 10.88 5.934 19.78 5.934 31.648 0 53.407-38.572 132.528-84.067 151.32-95.935-38.572-22.747-67.253-42.527-98.902-56.374-3.956 0-10.879 2.967-14.835 2.967-22.747 15.825-43.517 26.704-61.319 39.561-25.714 16.813-54.396 32.637-77.143 51.429-21.758 12.857-27.692 10.879-44.506-6.923-10.879-15.825-7.912-27.693 12.858-38.572 13.846-11.868 28.68-18.791 40.55-29.67 26.702-15.825 56.373-34.616 82.087-54.396-39.56-34.616-82.088-41.539-120.66-17.802-57.362 29.67-108.791 64.286-167.143 95.934-8.901 1.978-11.868 5.934-19.78 13.846zM456.98 469.837c0 27.692 23.736 46.483 45.494 46.483 23.737 0 42.528-18.79 42.528-46.483 0-21.759-15.824-41.539-42.528-41.539-27.692 0-45.494 19.78-45.494 41.539zm76.154 256.154c0 3.956 4.945 6.924 4.945 14.836 6.923-3.956 9.89-3.956 13.846-7.912 53.407-29.67 110.77-61.32 164.176-95.935 33.627-17.802 49.451-44.506 49.451-84.066-3.956-61.319-3.956-124.616-3.956-184.946v-26.703c-52.418 37.582-106.814 68.242-156.264 101.868-2.967 4.945-2.967 11.868-2.967 14.836 2.967 45.494-14.836 81.099-54.396 100.879-9.89 6.923-14.835 13.846-14.835 25.714z"/></svg>