<svg xmlns="http://www.w3.org/2000/svg" viewBox="0 0 1000 1000"><path d="M690.084,728.61l-.27,43.551a6.817,6.817,0,0,1-6.783,6.817l-186.22-.371A272.512,272.512,0,0,1,361.738,270.181l-.194,89.481a28.033,28.033,0,0,0,.7,9.184,23.748,23.748,0,0,0,4.432,8.16,20.243,20.243,0,0,0,7.485,5.431,20.136,20.136,0,0,0,17.669-.029,23.46,23.46,0,0,0,7.467-5.457,20.163,20.163,0,0,0,4.4-7.831,17.008,17.008,0,0,0,.666-9.187l.156-109.9a272.614,272.614,0,0,1,93.424-16.146A268.636,268.636,0,0,1,660.466,288.4a6.971,6.971,0,0,1,.7,10.546l-126.9,116.912a96.906,96.906,0,0,0-36.713-7.425A99.646,99.646,0,0,0,456.791,417,96.226,96.226,0,0,0,423.527,441.9a100.725,100.725,0,0,0-19.986,36.439,95.4,95.4,0,0,0-2.992,41.511,97.157,97.157,0,0,0,82.715,83.222,94.674,94.674,0,0,0,41.453-3.133L687.356,723.174A7.1,7.1,0,0,1,690.084,728.61ZM575.971,564.129l73.206,55.489a196.274,196.274,0,0,0-.432-227.538l-68.2,61.805a96.425,96.425,0,0,1-4.574,110.244Zm-77.98-96.157a40.439,40.439,0,0,0-21.4,6.5,39.463,39.463,0,0,0-14.241,17.375,37.895,37.895,0,0,0,8.222,41.837A41.416,41.416,0,0,0,490.3,544.2a35.483,35.483,0,0,0,22.084-2.078A39.445,39.445,0,0,0,529.7,527.8a40.578,40.578,0,0,0,6.421-21.446,38.308,38.308,0,0,0-38.126-38.381ZM1000,499.169c.459,276.143-223.026,500.372-499.168,500.83S.459,776.973,0,500.831,223.027.459,499.169,0,999.541,223.027,1000,499.169ZM748.691,824.8l-.2-122.824a14.361,14.361,0,0,0-5.456-11.218l-44.164-33.476a258.766,258.766,0,0,0-4.317-307.806l-1.059.957,50.257-47.2a13.568,13.568,0,0,0,.307-19.395l-11.572-11.549a329.788,329.788,0,0,0-224.1-97.615l.266-45.932a28.046,28.046,0,0,0-.7-9.185,23.771,23.771,0,0,0-4.432-8.159,20.265,20.265,0,0,0-7.485-5.431,20.138,20.138,0,0,0-17.67.029,23.5,23.5,0,0,0-7.466,5.456,20.083,20.083,0,0,0-4.405,7.833,17.008,17.008,0,0,0-.666,9.187l-.26,47.294a322.334,322.334,0,0,0-59.45,11.666l.241-58.861a28.02,28.02,0,0,0-.692-9.185,23.793,23.793,0,0,0-4.432-8.158,20.267,20.267,0,0,0-7.485-5.432,20.143,20.143,0,0,0-17.67.03,23.54,23.54,0,0,0-7.47,5.456,20.123,20.123,0,0,0-4.4,7.833,16.969,16.969,0,0,0-.666,9.187l-.894,75.194a331.732,331.732,0,0,0,129.5,634.323l242.971.616A13.642,13.642,0,0,0,748.691,824.8Z"/></svg>