<svg xmlns="http://www.w3.org/2000/svg" width="1000" height="1000">
  <path d="M5 799.737c0 4.251 0 4.251 6.377 8.503 93.535 0 482.554-171.126 624.982-245.529C732.02 510.63 828.743 457.485 915.9 384.145c22.321-22.32 47.83-47.83 65.9-75.465 74.402-107.353-182.818-116.919-342.252-116.919-169 8.503-341.19 39.327-507 87.158-8.504 0-13.818 5.314-21.259 8.503v7.44c145.617 0 264.661 1.063 331.623 5.314 108.416 12.755 212.58 40.39 150.931 114.793-57.396 62.71-201.95 154.12-324.182 227.46C226.082 669 70.899 757.22 5 799.736z" style="fill:#000;fill-opacity:1;fill-rule:nonzero;stroke:none;"/>
</svg>
