<svg xmlns="http://www.w3.org/2000/svg" width="1000" height="1000">
  <path d="M500.496 995.003c275.935 0 494.507-224.506 494.507-495.496C995.003 226.54 773.464 5 500.496 5 223.572 5 5 229.506 5 499.507c0 276.924 224.506 495.496 495.496 495.496zm-346.155-330.33c25.715-41.54 50.44-85.056 74.176-127.583 39.56-67.253 80.11-135.495 118.682-203.737 17.802-31.649 41.539-45.495 77.143-44.506 45.495.99 90.99 0 136.484 0h16.813v136.484h2.967c9.89-16.813 19.78-32.637 29.67-49.45 9.89-16.814 18.792-34.616 29.671-51.43 13.846-22.747 34.616-35.604 62.308-35.604h150.33c10.88 0 14.835 1.978 14.835 13.846a2374.05 2374.05 0 0 0 0 118.682c0 11.868-4.945 13.846-14.835 13.846-31.648-.989-63.297 0-94.945-.989-8.901 0-13.846 2.967-17.802 10.88-55.385 96.923-110.77 192.857-166.155 288.792-9.89 17.802-9.89 17.802-28.681 7.912-32.638-19.78-67.253-38.572-99.89-57.363-9.89-4.945-9.89-8.901-3.957-16.813 41.539-72.198 82.088-143.408 123.627-214.617 2.967-4.945 5.934-9.89 8.901-17.802H557.86c-24.725 0-50.44.99-74.176-.989-19.78-.989-28.681 6.923-37.583 21.759-53.406 94.945-108.791 188.901-163.187 283.847-1.978 2.967-4.945 6.923-7.912 10.879-24.725-13.846-48.462-28.682-74.176-41.539-12.857-7.912-26.704-16.813-40.55-23.736-11.868-4.945-11.868-10.88-5.934-20.77zm7.912-241.32c.99-41.539.99-82.088 0-123.627 0-8.9 3.956-10.879 12.857-10.879h124.616c8.901 0 11.868 3.956 10.88 10.88-3.957 41.538-20.77 75.164-52.418 101.868-23.737 20.769-51.43 31.648-83.078 33.626-9.89 0-12.857-2.967-12.857-11.868z" style="fill:#000;fill-opacity:1;fill-rule:nonzero;stroke:none;"/>
</svg>
