<svg xmlns="http://www.w3.org/2000/svg" viewBox="0 0 1000 1000"><path d="M5 500.002v-.396.396c.099 89.505 22.55 172.682 67.253 249.726C116.462 824.2 175.803 883.54 250.276 927.75c77.143 44.803 160.418 67.253 249.726 67.253 89.308 0 172.583-22.45 249.726-67.253C824.2 883.541 883.54 824.2 927.75 749.728c44.803-77.143 67.253-160.418 67.253-249.726 0-89.308-22.45-172.583-67.253-249.726-44.209-74.473-103.55-133.814-178.022-178.023C672.585 27.45 589.31 5 500.002 5c-89.308 0-172.583 22.45-249.726 67.253-74.473 44.209-133.814 103.55-178.023 178.023C27.55 327.32 5.099 410.496 5 500.002zm163.187-141.924c15.825-51.429 43.517-61.319 110.77-100.88-9.89 43.517-12.857 49.451 2.967 81.1 43.517 62.308 87.033 127.583 129.56 189.89 17.803 22.748 34.616 49.451 49.452 72.199 26.703 34.615 61.318 34.615 85.055 0C646.87 456.98 754.673 343.243 731.926 270.056c83.077 22.747 145.385 88.022 88.022 172.088-69.231 100.88-134.506 201.76-204.726 297.694-14.835 22.747-30.66 46.483-47.473 68.242-13.846 19.78-29.67 38.571-57.363 38.571-29.67 4.945-53.406-9.89-68.242-33.626-38.571-58.352-82.088-115.715-119.67-174.067-43.517-61.319-86.045-123.627-127.583-184.946-19.78-26.703-38.572-57.362-26.704-95.934zm176.045-100.88c0-21.758 11.868-33.626 31.648-46.483 23.737-11.868 49.451-25.714 78.133-38.572 30.659-17.802 62.307-17.802 94.945-2.967 27.692 15.825 54.396 29.67 81.099 46.484 27.692 14.835 39.56 41.539 19.78 68.242-38.571 58.352-77.143 116.704-120.66 170.11-12.857 23.737-37.582 23.737-56.373 0-30.66-42.527-61.32-88.022-92.968-130.55-6.923-11.868-14.835-23.736-19.78-34.615-6.923-8.901-9.89-18.791-15.824-31.648z"/></svg>