<svg xmlns="http://www.w3.org/2000/svg" width="1000" height="1000">
  <path d="M5 500.496C5 225.55 226.54 5 500.496 5c272.968 0 494.507 222.528 494.507 494.507 0 274.946-222.528 495.496-494.507 495.496C225.55 995.003 5 772.475 5 500.496zm134.506-3.956c0 29.67 29.67 59.34 60.33 59.34 22.747 0 33.626-10.878 53.407-22.746 9.89-6.923 18.79-29.67 18.79-36.594 0-41.539-29.67-73.187-72.197-73.187-30.66 0-60.33 31.648-60.33 73.187zm93.956-244.286c-10.879 17.802 0 52.417 19.78 70.22 9.89 11.868 29.671 18.79 41.54 18.79 17.801 0 36.593-6.922 48.46-18.79 40.55-31.649 11.87-111.759-48.46-111.759-22.748 0-52.419 10.88-61.32 41.539zm8.901 507.364c29.67 29.67 70.22 29.67 89.012 0 69.23-61.319-27.693-159.231-89.012-93.956-23.736 29.67-27.692 57.362 0 93.956zm59.341-245.276h82.088v-40.55h-82.088zm22.748 100.88 71.209 71.209L455 615.22c-29.67-10.878-52.417-40.549-59.34-70.22zm6.923-244.287 64.286 64.286c21.758-37.582 41.538-62.308 71.209-71.209l-64.286-59.34zm82.088 125.605c0 48.462 53.407 89.011 102.857 89.011 48.462 0 89.012-40.55 89.012-89.01 0-52.419-40.55-93.957-89.012-93.957-49.45 0-102.857 41.538-102.857 93.956zm30.66 322.419c0 29.67 30.659 59.34 72.197 59.34 29.67 0 59.341-29.67 59.341-59.34 0-41.539-23.736-71.21-59.34-71.21-41.54 0-72.199 29.671-72.199 71.21zm0-639.893c0 42.528 30.659 61.32 72.197 61.32 29.67 0 59.341-18.792 59.341-61.32 0-38.571-27.692-70.22-59.34-70.22-41.54 0-72.199 29.67-72.199 70.22zM496.54 718.08h38.572v-84.066H496.54zm0-354.067h38.572v-82.088H496.54zm68.242 251.21 63.297 61.319 68.242-72.198-68.242-59.341c-10.88 29.67-29.67 59.34-63.297 70.22zm0-244.287c22.747 0 59.341 42.528 71.21 73.187l60.329-73.187-68.242-66.264zm71.21 143.407h82.087v-40.55h-82.088zm40.549 172.089c-10.88 19.78-10.88 50.44 11.868 73.187 7.912 6.923 29.67 17.802 40.55 17.802 52.417 0 78.132-44.505 61.318-90.99-24.725-66.263-94.945-46.483-113.736 0zm11.868-363.957c19.78 18.79 49.45 30.659 72.198 18.79 44.506-21.757 53.407-97.912 0-119.67-62.308-29.67-129.56 48.462-72.198 100.88zm49.45 180.99c11.869 22.747 41.54 41.538 59.341 41.538 22.748 0 41.54-11.868 53.407-18.791 10.88-11.869 17.802-29.67 17.802-52.418 0-18.792-17.802-50.44-40.55-61.32-48.46-15.823-109.78 49.452-90 90.99z" style="fill:#000;fill-opacity:1;fill-rule:nonzero;stroke:none;"/>
</svg>
