<svg xmlns="http://www.w3.org/2000/svg" width="1000" height="1000">
  <path d="M5 500.496C5 225.55 226.54 5 500.496 5c272.968 0 494.507 222.528 494.507 494.507 0 274.946-222.528 495.496-494.507 495.496C225.55 995.003 5 772.475 5 500.496zm90.99 34.616h51.428c0 103.846 74.176 210.66 176.045 269.012 3.956 1.978 116.703-111.76 110.77-114.726-57.364-19.78-103.847-62.308-129.562-128.572-10.879-41.539-10.879-41.539 31.649-52.418L190.935 325.441c-34.616 73.187-58.352 114.725-94.946 209.67zm106.813-230.44L306.649 426.32c1.978-4.945 4.945-10.88 8.901-16.813 38.572-78.132 142.42-154.287 172.09-84.067l148.352-157.254c-65.275-25.714-121.649-47.472-174.066-69.23-1.978 18.79-2.967 32.637-4.945 43.516-.99 2.967-22.748 10.88-42.528 15.824-95.934 23.737-166.154 74.176-211.65 146.374zM345.22 816.98c12.857 5.934 25.714 10.879 38.571 15.824l145.386 57.363c5.934-49.45 5.934-41.539 52.417-51.429 110.77-30.66 185.935-90 233.408-182.968l-120.66-91.978c0 1.978-.989 5.934-1.978 7.912-25.714 57.363-68.242 98.902-131.539 120.66-36.593 15.824-41.539 9.89-52.418-26.703zm201.76-520.221c8.901 1.978 17.802 6.923 29.67 12.857 58.352 25.715 93.957 62.308 115.715 120.66 15.824 41.539 9.89 41.539-31.649 52.418 6.924 5.934 166.155 146.374 173.078 130.55 22.747-51.429 45.495-87.033 68.242-151.32h-47.473c-20.769-108.791-58.352-209.67-192.857-279.89z" style="fill:#000;fill-opacity:1;fill-rule:nonzero;stroke:none;"/>
</svg>
