<svg xmlns="http://www.w3.org/2000/svg" width="1000" height="1000">
  <path d="M776.681 92.002c72.413 42.15 143.745 84.301 218.32 125.371-74.575 44.312-143.745 85.382-218.32 127.533zM5 633.476c75.655-44.312 143.745-86.463 219.4-128.614v255.066C151.987 716.696 80.655 674.546 5 633.476zm0-416.103c75.655-41.07 143.745-83.22 219.4-125.371v252.904C148.745 302.756 80.655 261.686 5 217.373zm246.42 542.555V504.862c75.654 42.151 148.067 84.302 222.641 128.614-74.574 41.07-146.987 83.22-222.642 126.452zm0-415.022V89.84c75.654 44.313 148.067 86.463 222.641 127.533-74.574 44.312-146.987 85.382-222.642 127.533zm14.05 437.718c75.655-41.07 148.067-83.22 219.4-127.532v255.065c-71.333-43.231-143.745-82.14-219.4-127.533zm0-411.78c75.655-45.392 148.067-87.543 219.4-128.613v252.904c-71.333-42.15-143.745-83.22-219.4-124.29zm250.742 539.313V655.092c71.332 44.312 143.745 86.463 218.319 127.532-74.574 45.393-146.987 84.302-218.32 127.533zm0-415.022V242.231c71.332 41.07 143.745 83.22 218.319 128.614-74.574 41.07-146.987 82.14-218.32 124.29zm9.727 138.34c75.655-44.311 148.068-86.462 221.561-128.613v255.066c-73.493-43.232-145.906-85.382-221.561-126.452zm0-416.102c75.655-41.07 148.068-83.22 219.4-127.533v255.066c-71.332-42.15-143.745-83.22-219.4-127.533zm250.742 542.555V504.862c72.413 42.151 143.745 84.302 218.32 128.614-74.575 41.07-143.745 83.22-218.32 126.452z" style="fill:#000;fill-opacity:1;fill-rule:nonzero;stroke:none;"/>
</svg>
