<?xml version="1.0" encoding="UTF-8"?><svg id="a" xmlns="http://www.w3.org/2000/svg" viewBox="0 0 1000 1000"><path d="M500,0C223.858,0,0,223.858,0,500s223.858,500,500,500,500-223.858,500-500S776.142,0,500,0ZM195.357,430.405l-.005-.011c-14.039-31.532,.142-68.475,31.674-82.514l342.585-152.529c31.532-14.039,68.475,.142,82.513,31.674l.005,.011c14.039,31.532-.142,68.475-31.674,82.514l-342.585,152.529c-31.532,14.039-68.475-.142-82.514-31.674Zm19.162,196.712l-.005-.011c-14.039-31.532,.142-68.475,31.674-82.514l228.398-101.689c31.532-14.039,68.475,.142,82.514,31.674l.005,.011c14.039,31.532-.142,68.475-31.674,82.514l-228.398,101.689c-31.532,14.039-68.475-.142-82.514-31.674Zm558.451,25.012l-342.585,152.529c-31.532,14.039-68.475-.142-82.513-31.674l-.005-.011c-14.039-31.532,.142-68.475,31.674-82.514l342.585-152.529c31.532-14.039,68.475,.142,82.513,31.674l.005,.011c14.039,31.532-.142,68.475-31.674,82.513Z"/></svg>