<svg xmlns="http://www.w3.org/2000/svg" width="1000" height="1000">
  <path d="M990.311 500.67c0 275.967-215.683 494.33-491.65 494.33C228.05 995 9.689 772.62 9.689 496.651c0-269.27 222.382-491.65 492.99-491.65C774.63 5 990.312 227.38 990.312 500.67zM86.05 514.066c4.019 124.588 52.246 227.74 146.022 306.78 65.642 53.586 140.663 84.398 225.06 92.436 5.36-4.02 5.36-4.02 5.36-8.038V839.6c0-58.945-8.039-49.567 48.226-54.926 22.774 0 25.454 10.718 25.454 28.133v100.474c170.135-8.038 387.158-163.437 383.14-423.33-4.02-210.324-203.627-419.309-377.782-400.554 0 0-5.358 0-5.358 5.359v68.322c0 57.605 10.717 45.548-48.228 50.906-20.094 0-25.453-10.717-25.453-26.793V84.04C285.657 94.757 72.653 258.194 86.05 514.066zm207.645 144.682c0-41.529 0-41.529 45.549-41.529H502.68c58.944 0 113.87 0 172.814-2.679 22.774 0 30.812 6.698 30.812 30.812 0 48.227 2.68 42.869-45.548 42.869H324.506c-30.812 0-30.812 0-30.812-29.473zm0-148.7c4.02-50.907-4.018-44.209 48.228-48.228h333.572c30.812 0 30.812 0 30.812 30.812 0 48.227 2.68 45.548-45.548 45.548H498.661c-58.945 0-116.55-4.019-178.174 0-17.415 0-26.793-4.019-26.793-28.132zm0-150.041c0-53.586-4.018-49.567 48.228-49.567h333.572c22.774 0 30.812 4.019 30.812 32.152-5.359 48.227 2.68 40.189-45.548 42.868H502.68c-62.964 0-124.588-2.679-182.193 0-22.774 0-26.793-9.377-26.793-25.453z" style="fill:#000;fill-opacity:1;fill-rule:nonzero;stroke:none;"/>
</svg>
