<svg xmlns="http://www.w3.org/2000/svg" viewBox="0 0 1000 1000"><path d="M5 500.496C5 225.55 226.54 5 500.496 5c272.968 0 494.507 222.528 494.507 494.507 0 274.946-222.528 495.496-494.507 495.496C225.55 995.003 5 772.475 5 500.496zm191.869 174.067c-7.912 19.78-4.945 29.67 8.9 39.56 96.924 62.308 191.87 128.572 286.815 188.902 3.956 4.945 13.846 11.868 18.791 11.868s14.836-6.923 19.78-11.868c93.957-60.33 188.902-126.594 285.826-188.902 14.835-9.89 19.78-19.78 8.9-39.56-27.692-52.418-53.406-104.836-81.098-154.287-10.88-16.813-10.88-30.659 0-44.505 27.692-54.396 53.406-106.814 81.099-156.264 5.934-19.78 5.934-29.67-8.901-39.561-96.924-60.33-191.869-127.583-285.825-187.913-14.836-11.868-24.726-11.868-38.572 0-94.945 60.33-189.89 127.583-286.814 187.913-13.846 9.89-16.813 19.78-8.901 39.56 27.692 47.473 53.407 101.869 81.099 156.265 4.945 13.846 10.88 27.692 0 44.505-27.692 49.451-53.407 101.869-81.1 154.287zm59.34-12.858c16.814-33.626 35.605-72.198 55.385-111.758 0 5.934 4.946 5.934 4.946 5.934 41.538 86.044 86.044 172.088 133.516 260.11-5.934 4.946-12.857-1.977-12.857-1.977-59.34-37.583-114.725-77.143-173.077-113.737-13.846-10.88-19.78-18.791-7.912-38.572zm7.913-309.561c-24.726-46.484-24.726-38.572 18.791-66.264 48.462-32.637 94.945-66.264 137.473-97.912 9.89-6.923 12.857-6.923 18.791-12.858 10.88-6.923 4.945 5.935 4.945 5.935-41.538 86.044-86.044 171.099-132.528 266.044-19.78-38.571-33.626-65.275-47.472-94.945zm86.044 168.132c-4.945-11.868-4.945-30.659 0-39.56 9.89-21.758 151.32-310.55 161.21-325.386 19.78 38.572 38.57 78.132 57.362 111.759 34.616 69.23 65.275 135.495 98.902 202.748 9.89 19.78 9.89 33.626 4.945 50.44-52.418 96.923-99.89 196.813-146.374 293.737-6.924 13.846-9.89 14.835-14.836 21.758-4.945-6.923-7.912-12.857-14.835-21.758-46.484-96.924-98.9-196.814-146.374-293.738zm222.528 293.738c45.495-86.045 85.055-172.089 133.517-267.034 23.736 48.462 43.517 86.044 60.33 127.583 3.956 7.912-2.967 14.835-6.923 19.78-59.34 42.528-121.649 82.088-180.99 121.649 0 0-5.934 0-5.934-1.978zm0-632.97s-11.868-21.758 5.934-5.934c19.78 12.858 39.56 25.715 55.385 38.572 38.572 27.692 83.077 59.34 125.605 81.1 12.857 10.878 12.857 18.79 6.923 33.626-16.813 38.571-36.594 74.176-60.33 118.681-48.462-94.945-88.022-180-133.517-266.044z"/></svg>