<svg width="1000" height="1000" viewBox="0 0 1000 1000" fill="none" xmlns="http://www.w3.org/2000/svg">
<path d="M289 2L87 204H251C273 124 359 17 385 2H289Z" fill="black"/>
<path d="M483 204V2H437C351.4 63.6 302.667 162.333 289 204H483Z" fill="black"/>
<path d="M522 204H718C672.4 95.2 598.333 24 567 2H522V204Z" fill="black"/>
<path d="M756 204H915L711 2H621C685.8 61.2 731 144 756 204Z" fill="black"/>
<path d="M713 1000L915 798L751 798C729 878 643 985 617 1000L713 1000Z" fill="black"/>
<path d="M519 798L519 1000L565 1000C650.6 938.4 699.333 839.667 713 798L519 798Z" fill="black"/>
<path d="M480 798L284 798C329.6 906.8 403.667 978 435 1000L480 1000L480 798Z" fill="black"/>
<path d="M246 798L87 798L291 1000L381 1000C316.2 940.8 271 858 246 798Z" fill="black"/>
<path d="M300.145 710.002L301.295 397.202H299.57L217.92 710.002H163.87L83.9453 397.202H82.2203L83.3703 710.002H20.6953V302.902H113.27L191.47 600.752H193.77L270.245 302.902H367.42V710.002H300.145Z" fill="black"/>
<path d="M661.299 410.427C661.299 423.46 659.574 435.727 656.124 447.227C653.058 458.343 648.649 469.268 642.899 480.002C637.149 490.352 630.441 500.702 622.774 511.052C615.491 521.018 607.824 531.368 599.774 542.102L515.824 649.627H656.124V710.002H436.474V647.327L554.349 498.402C565.849 483.068 575.049 468.502 581.949 454.702C588.849 440.518 592.299 426.527 592.299 412.727C592.299 396.627 588.658 383.018 581.374 371.902C574.091 360.785 562.974 355.227 548.024 355.227C534.608 355.227 523.491 360.21 514.674 370.177C505.858 380.143 500.108 394.518 497.424 413.302L432.449 406.977C437.433 369.793 450.466 341.81 471.549 323.027C492.633 304.243 519.083 294.852 550.899 294.852C568.533 294.852 584.058 297.727 597.474 303.477C611.274 309.227 622.774 317.277 631.974 327.627C641.558 337.977 648.841 350.243 653.824 364.427C658.808 378.61 661.299 393.943 661.299 410.427Z" fill="black"/>
<path d="M916.599 710.002L807.924 512.202H806.199V710.002H737.199V302.902H806.199V479.427H807.924L911.424 302.902H989.049L869.449 490.352L996.524 710.002H916.599Z" fill="black"/>
</svg>
