<svg xmlns="http://www.w3.org/2000/svg" width="1000" height="1000">
  <path d="M5 500.496c0 271.98 220.55 494.507 495.496 494.507 271.98 0 494.507-220.55 494.507-495.496C995.003 227.528 773.464 5 500.496 5 226.54 5 5 225.55 5 500.496zm256.155 113.737V186.979c0-6.923 0-6.923 7.912-6.923h484.617c5.934 0 5.934 0 5.934 6.923 0 137.473 0 274.946.989 412.419 0 26.703-1.978 50.44-7.912 78.132-10.88 42.527-30.66 80.11-62.308 112.747-26.703 28.682-59.34 49.451-95.934 64.286-26.704 8.901-53.407 14.835-82.089 15.825-67.253.988-124.615-22.748-173.077-70.22-26.704-25.715-47.473-57.363-60.33-92.968-11.868-29.67-17.802-60.33-17.802-92.967zm87.033 23.736c0 19.78 3.956 39.56 13.846 56.374 15.824 39.56 46.484 66.264 86.044 82.088 5.934 1.978 11.869 4.945 18.792 5.934V259.177c0-4.945-.99-5.934-5.934-5.934H354.122c-2.967 0-5.934.989-5.934 4.945zm204.726 144.396h5.934c28.681-7.912 52.418-22.747 73.187-44.505 28.681-30.66 41.539-65.275 39.56-106.814v-370.88c0-6.923 0-6.923-6.922-6.923H560.826c-7.912 0-7.912 0-7.912 5.934v515.276z" style="fill:#000;fill-opacity:1;fill-rule:nonzero;stroke:none;"/>
</svg>
