<svg xmlns="http://www.w3.org/2000/svg" viewBox="0 0 1000 1000"><path d="M658.724 995.004h-324.98v-275.48c0-15.065-5.38-26.902-17.217-38.739-21.522-16.141-36.587-32.283-62.413-58.109 18.293-15.065 34.435-30.13 49.5-45.196l16.141-16.141c1.076-1.076 9.685-10.761 10.761-11.837 4.305-6.457 3.228-12.913 3.228-19.37V250.35c0-21.522 9.685-9.685 9.685-10.761 50.577 48.424 99 95.772 152.805 145.272 51.653-51.652 102.229-94.696 153.881-151.729 9.685 26.902 8.609 36.587 8.609 43.044v253.957c0 9.685 5.38 23.674 12.913 30.13 8.609 10.762 18.294 21.523 30.13 33.36 10.761 10.76 21.522 21.521 32.283 33.358-22.598 20.446-46.272 43.044-66.717 63.49-5.38 4.304-8.61 12.913-8.61 21.522zm-439.045-853.34c31.206-15.066 62.413-31.207 93.62-47.349C368.179 66.337 438.125 31.902 496.234 5l16.142 6.456c26.902 12.914 45.195 22.598 68.87 33.36 82.858 43.043 171.098 89.315 199.076 97.924-4.304 4.304-112.99 61.337-105.457 57.032-52.728 25.827-104.38 52.729-157.109 76.403-12.913 6.456-27.978 9.685-38.74 5.38-24.75-12.913-50.576-26.902-76.402-39.815-53.804-27.978-109.761-57.033-161.413-82.859-7.533-5.38-17.218-8.609-21.522-17.218zm81.783 2.152 32.282 17.217c29.055 15.065 57.033 29.055 87.164 46.272 10.76 6.457 20.445 11.837 27.978 17.217 16.141 10.761 27.978 16.142 47.348 16.142 15.065 0 33.359-10.761 50.576-20.446 8.61-5.38 17.218-9.685 24.75-13.99 25.827-13.988 49.5-25.825 73.175-38.738 15.065-7.533 30.13-15.066 45.195-23.674-31.206-16.142-61.337-30.13-91.467-44.12C566.18 83.555 527.44 63.109 494.082 45.89l-7.533 4.305c-37.663 21.522-76.402 39.815-116.217 59.185-22.598 11.837-45.196 22.598-68.87 34.435zm17.217 482.088c3.228 3.229 6.457 7.533 8.609 10.761 1.076 0 1.076 1.076 1.076 1.076 2.152-2.152 3.228-4.304 4.304-5.38 10.761-9.685 16.142-13.99 22.598-21.522 16.142-12.913 21.522-18.293 19.37 2.152v304.534c46.272-44.12 90.391-88.24 135.587-133.435 53.805-53.805 107.61-108.685 164.642-161.414-3.228-4.304-7.532-7.533-10.76-10.76l-5.381-6.457-43.044 39.815 2.152-313.142c-45.195 43.043-88.24 86.087-131.283 130.207-54.88 54.88-109.761 109.76-167.87 163.565zm60.261-124.826c27.979-32.283 55.957-59.185 79.631-78.555-17.218-17.217-31.207-33.359-46.272-49.5-10.76-11.837-22.598-24.75-33.359-36.587zm14.41 454.036c65.651-1.002 142.161-1.002 210.493-1.002 13.99 0 13.99-3.228 13.99-18.293V749.655c0-1.076 0-2.152-1.077-4.305-1.076-1.076-1.076-2.152-1.076-4.304-34.435 34.435-67.793 65.642-100.076 97.924-40.461 38.31-80.815 77.694-122.244 116.11z"/></svg>