<svg xmlns="http://www.w3.org/2000/svg" width="1000" height="1000">
  <path d="M925.315 833.408H82.152c-39.678 0-63.926-19.84-71.641-51.803C5 773.89 5 765.073 5 756.255V239.336c0-40.78 33.065-72.743 72.743-72.743H937.44c35.27 8.817 55.108 36.371 55.108 72.743 0 173.041 5.511 349.39 0 522.43 0 44.087-26.452 71.642-67.232 71.642zM42.474 623.995c0 8.817 3.306 13.226 3.306 19.839 4.41 0 13.226 5.51 16.533 5.51 35.27 7.716 63.926 26.453 92.583 51.803 19.839 23.145 31.963 51.802 39.678 80.458 3.306 12.124 8.817 15.43 20.941 15.43h568.722c12.123 0 20.94-3.306 24.247-15.43 0-7.715 4.41-19.839 7.716-28.656 24.247-56.21 63.926-88.174 124.545-103.604 12.124-5.511 16.533-8.818 16.533-20.942V371.597c0-11.022-4.409-19.84-16.533-19.84-67.232-16.532-112.421-60.619-132.26-128.953-7.716-19.84-7.716-19.84-24.248-19.84H218.822c-15.43 0-15.43-4.408-24.248 19.84-19.84 68.334-63.926 109.115-128.954 128.954-19.84 3.306-23.146 3.306-23.146 23.145zm3.306 141.078c0 16.532 16.533 28.656 31.963 31.963h45.19c7.715 0 15.43 0 23.145-3.307-7.715-45.189-55.108-92.582-100.298-96.99 0 24.247-3.306 48.495 0 68.334zm0-465.117c48.496-5.511 92.583-48.496 100.298-96.992-28.656 0-51.802-4.408-80.458 4.41-12.124 0-19.84 12.123-19.84 23.145zM258.5 499.449c0-138.874 109.115-243.58 245.785-243.58 135.567 0 240.273 108.013 240.273 243.58 0 144.385-115.728 241.376-245.784 245.785-135.568-4.409-243.58-108.013-240.274-245.785zm48.495 0c0 101.4 76.05 197.29 197.29 192.88 119.034 0 191.778-100.297 191.778-192.88 0-103.604-91.48-196.187-197.29-191.778-103.604-4.409-191.778 88.174-191.778 191.778zm168.633 16.533V412.377c0-12.124 3.307-19.839 16.533-19.839 6.613 0 15.43 7.715 15.43 19.84v60.619c0 26.452 0 26.452 28.657 26.452h48.495c15.43 0 19.84 5.511 19.84 16.533 3.306 12.124-4.41 20.941-19.84 20.941h-96.991c-8.817 0-12.124-12.124-12.124-20.941zM856.98 797.036c23.146 0 48.496 0 71.641-3.307 12.124 0 24.248-8.817 28.657-19.839 3.306-25.35 0-49.598 0-77.152-39.678 4.409-92.583 44.087-100.298 100.298zm0-589.663c7.715 48.496 51.802 87.072 100.298 92.583v-69.437c-4.409-19.84-16.533-27.555-36.372-27.555h-47.393c-8.818 0-13.226 0-16.533 4.41z" style="fill:#000;fill-opacity:1;fill-rule:nonzero;stroke:none;"/>
</svg>
