<svg xmlns="http://www.w3.org/2000/svg" width="1000" height="1000">
  <path d="M500.496 5C223.572 5 5 229.506 5 500.002c0 276.43 224.506 495.001 495.002 495.001 276.43 0 495.001-224.506 495.001-495.001C995.003 226.539 773.464 5 500.496 5zM117.748 346.21c0-29.67 24.725-58.352 59.34-56.374 25.715.99 47.473 21.758 51.43 48.462 2.966 28.681-15.825 56.374-47.473 60.33-30.66 6.923-63.297-20.77-63.297-52.418zm16.813 152.308c0-21.758 18.791-41.538 39.56-41.538 23.737 0 40.55 19.78 40.55 41.538 0 22.747-17.802 40.55-40.55 40.55-20.769 0-39.56-17.803-39.56-40.55zm13.846 125.605c0-15.824 10.88-27.692 25.714-27.692 14.836 0 27.693 11.868 27.693 27.692 0 14.835-11.868 27.692-27.693 27.692-14.835 0-25.714-12.857-25.714-27.692zm12.857 98.901c0-7.912 5.934-13.846 12.857-13.846 8.902 0 13.847 5.934 13.847 13.846s-6.923 13.847-13.847 13.847c-6.923 0-12.857-5.935-12.857-13.847zM284.891 426.32c0-31.648 24.725-56.374 54.396-57.363 30.66 0 54.396 25.715 54.396 57.363 0 29.67-23.737 54.396-54.396 54.396-29.67 0-54.396-24.726-54.396-54.396zm0-164.176c0-30.66 24.725-55.385 54.396-55.385 30.66 0 54.396 24.725 54.396 55.385 0 29.67-23.737 55.384-54.396 55.384-29.67 0-54.396-25.714-54.396-55.384zm12.857 319.451c0-23.736 18.792-40.55 41.539-40.55 21.758.99 39.56 17.803 39.56 40.55 0 21.759-17.802 41.539-40.55 41.539-21.757 0-40.549-19.78-40.549-41.539zm13.846 124.616c0-14.835 11.869-25.714 27.693-25.714 13.846 0 26.703 11.868 26.703 27.692 0 14.835-12.857 25.715-27.692 25.715s-26.704-10.88-26.704-27.693zm13.847 98.902c0-6.924 4.945-13.847 13.846-13.847 6.923 0 12.857 6.923 12.857 13.847 0 7.912-5.934 13.846-12.857 13.846-8.901 0-13.846-5.934-13.846-13.846zm121.648-296.705c0-29.67 25.715-56.374 56.374-55.385 31.649 0 53.407 23.737 55.385 55.385 0 29.67-24.725 56.374-55.385 55.385-31.648 0-55.385-24.725-56.374-55.385zm0-164.176c0-29.67 25.715-54.396 56.374-54.396 30.66 0 55.385 24.725 55.385 54.396 0 35.604-30.66 56.374-55.385 55.385-25.714.989-56.374-17.803-56.374-55.385zM448.08 185c-2.968-32.638 21.758-58.352 49.45-61.32 37.583-1.977 61.319 23.737 61.319 55.385 0 28.682-20.77 50.44-47.473 53.407-31.648 4.945-60.33-16.813-63.297-47.472zm15.824 476.704c0-21.758 18.79-39.56 40.55-39.56 21.758.989 40.549 17.802 40.549 39.56 0 22.748-17.802 40.55-40.55 40.55-21.758 0-40.55-17.802-40.55-40.55zm12.857 128.572c0-13.846 12.857-28.681 27.692-28.681 15.824 0 26.704 14.835 26.704 28.681 0 13.847-10.88 26.704-26.704 27.693-14.835 0-27.692-13.846-27.692-27.693zm13.846 98.902c0-6.923 6.923-13.846 13.846-13.846 7.912-.99 13.846 6.923 13.846 13.846s-5.934 13.846-13.846 13.846c-6.923 0-13.846-6.923-13.846-13.846zM615.222 426.32c0-31.648 23.736-56.374 53.407-57.363 31.648 0 55.384 25.715 55.384 57.363 0 29.67-23.736 54.396-53.406 54.396-31.649 0-55.385-24.726-55.385-54.396zm0-165.165c0-29.67 24.725-54.396 55.385-54.396 29.67.989 53.406 24.725 53.406 56.374 0 29.67-24.725 54.395-55.384 54.395-29.67 0-53.407-25.714-53.407-56.373zm12.857 320.44c0-23.736 16.813-40.55 40.55-40.55 21.758.99 39.56 17.803 39.56 40.55 0 21.759-17.802 41.539-40.55 41.539-22.747 0-39.56-19.78-39.56-41.539zm13.846 124.616c0-14.835 10.88-25.714 25.715-25.714 15.824 0 27.692 11.868 27.692 25.714 0 16.813-11.868 27.693-27.692 27.693-14.836 0-25.715-10.88-25.715-27.693zm11.868 98.902c.99-6.924 6.923-13.847 14.836-13.847 7.912 1.978 11.868 6.923 11.868 14.836 0 6.923-4.945 12.857-12.857 12.857-6.924 0-13.847-6.923-13.847-13.846zM778.41 344.232c0-29.67 24.726-54.396 56.374-54.396 27.692 0 54.396 24.725 53.407 54.396 0 31.648-25.715 55.385-55.385 55.385-31.648 0-54.396-24.726-54.396-55.385zm15.824 154.286c0-22.747 16.814-41.538 40.55-41.538 21.758 0 40.55 19.78 40.55 41.538 0 22.747-18.792 40.55-40.55 40.55-23.736 0-40.55-17.803-40.55-40.55zm12.858 125.605c0-15.824 10.879-27.692 27.692-27.692 13.846 0 26.703 11.868 26.703 27.692 0 14.835-12.857 27.692-26.703 27.692-16.813 0-27.692-12.857-27.692-27.692zm12.857 98.901c0-7.912 5.934-13.846 14.835-13.846 5.934 0 12.857 5.934 12.857 13.846s-6.923 13.847-12.857 13.847c-7.912 0-14.835-5.935-14.835-13.847z" style="fill:#000;fill-opacity:1;fill-rule:nonzero;stroke:none;"/>
</svg>
