<svg xmlns="http://www.w3.org/2000/svg" width="1000" height="1000">
  <path d="m822.034 151.717-134.377-2.742C620.468 240.845 564.25 316.26 509.402 408.13c117.922 5.485 128.892 24.682 175.512-53.476 64.446-89.128 94.613-138.49 137.12-202.937zM130.954 258.67c-15.084 126.15 60.331 255.042 202.935 290.693 53.477 12.34 161.801 12.34 250.928 12.34 105.582 0 167.286 65.818 167.286 150.832 0 90.498-49.363 163.172-167.286 163.172-261.897 0-379.82-10.97-405.872 0-69.931 37.022-57.59 116.55 12.34 116.55C333.89 992.258 469.637 995 609.5 995c194.71-8.227 308.518-205.678 242.7-381.191-47.99-146.717-233.102-174.141-456.606-174.141-75.416 0-135.748-54.848-135.748-131.635 0-89.127 20.568-164.543 100.097-178.255 154.945 0 344.17-5.484 478.546 0 5.485-9.598 8.227-13.711 13.712-24.681C885.108 43.393 852.2 5 804.208 5H380.51C244.762 15.97 139.18 118.809 130.953 258.67zm64.445 578.643c108.324 10.97 124.779 2.743 138.49-19.196 46.62-67.189 100.097-142.604 153.574-220.762 8.227-13.712-91.87-23.31-106.953-8.227-60.332 75.415-133.006 164.543-185.11 248.185z" style="fill:#000;fill-opacity:1;fill-rule:nonzero;stroke:none;"/>
</svg>
