<?xml version="1.0" encoding="utf-8"?>
<!-- Generator: Adobe Illustrator 26.0.1, SVG Export Plug-In . SVG Version: 6.00 Build 0)  -->
<svg version="1.1" id="Layer_1" xmlns="http://www.w3.org/2000/svg" xmlns:xlink="http://www.w3.org/1999/xlink" x="0px" y="0px"
	 viewBox="0 0 1000 1000" style="enable-background:new 0 0 1000 1000;" xml:space="preserve">
<style type="text/css">
	.st0{fill-rule:evenodd;clip-rule:evenodd;}
</style>
<path class="st0" d="M385.9,7.6h-94.7L91.8,206.9h161.8C275.3,128,360.2,22.4,385.9,7.6z M908.8,206.9L707.5,7.6h-88.8
	C682.7,66,727.3,147.7,752,206.9H908.8z M91.8,793.1l201.3,199.3h88.8C318,934,273.4,852.3,248.7,793.1H91.8z M565.4,7.6H521v199.3
	h193.4C669.5,99.6,596.4,29.3,565.4,7.6z M482.6,206.9V7.6h-45.4c-84.5,60.8-132.6,158.2-146,199.3L482.6,206.9L482.6,206.9z
	 M518.1,793.1v199.3h45.4c84.5-60.8,132.6-158.2,146-199.3H518.1z M435.2,992.4h44.4V793.1H286.2
	C331.2,900.4,404.3,970.7,435.2,992.4z M614.8,992.4h94.7l199.3-199.3H747C725.3,872,640.4,977.6,614.8,992.4z M247.9,319.8H318
	l98.7,279.5c-1.7-14.7-3.3-29.4-4.8-44.1c-1.5-14.7-2.6-29.4-3.3-44.1c-0.7-14.7-1-29.4-1-44.1V319.8h61.6v368.1h-70.1l-98.7-279.5
	c1.7,14.7,3.3,29.4,4.8,44.1c1.5,14.7,2.6,29.4,3.3,44.1c0.7,14.7,1,29.4,1,44.1v147.2h-61.6V319.8z M609.7,688.1
	c-11.5-2.5-22.4-6.9-32.6-13.3c-10.2-6.3-18.8-14.3-25.8-23.8c-7-9.5-11.9-20-14.8-31.6c-2.8-11.5-4.3-23.1-4.3-34.8V423
	c0-10,0.9-19.9,2.8-29.5c1.8-9.7,5.2-18.9,10-27.5c4.8-8.7,10.9-16.4,18.3-23c7.3-6.7,15.6-12.1,24.8-16.3c9.2-4.2,18.6-7,28.3-8.5
	c9.7-1.5,19.5-2.3,29.5-2.3c14,0,27.9,1.7,41.6,5c13.7,3.3,26,9.4,37.1,18.3c11,8.9,19.4,19.8,25.3,32.8c5.8,13,8.8,26.5,8.8,40.6
	h-61.6c0-8.3-2.5-15.9-7.5-22.8c-5-6.8-11.5-11.6-19.5-14.3c-8-2.7-16-4-24-4c-7,0-13.9,1-20.5,3c-6.7,2-12.5,5.5-17.5,10.5
	c-5,5-8.6,10.9-10.8,17.5c-2.2,6.7-3.3,13.5-3.3,20.5v161.8c0,6.7,1,13.4,3,20c2,6.7,5.5,12.5,10.5,17.5c5,5,10.8,8.6,17.3,10.8
	c6.5,2.2,13.1,3.3,19.8,3.3c7,0,13.9-1.1,20.5-3.3c6.7-2.2,12.7-5.6,18-10.3c5.3-4.7,8.8-10.4,10.5-17.3c1.7-6.8,2.5-13.8,2.5-20.8
	v-46.6H647v-55.6h110.7v102.2c0,10-0.6,20-1.8,29.8c-1.2,9.9-4.2,19.3-9,28.3c-4.8,9-11.1,16.8-18.8,23.3
	c-7.7,6.5-16.1,11.6-25.3,15.3c-9.2,3.7-18.7,6.3-28.5,8c-9.9,1.7-19.8,2.5-29.8,2.5C632.8,691.9,621.2,690.7,609.7,688.1z"/>
</svg>
