<svg xmlns="http://www.w3.org/2000/svg" viewBox="0 0 1000 1000"><path d="M507.93,175.875H699.75c5.9,0,6.886,1.967,8.854,3.934,19.673,19.674,41.315,39.348,59.021,60.006,1.968.984,3.935,3.935,3.935,5.9V370.646c0,2.952,0,2.952-5.9,2.952H576.788c-2.951,0-2.951,0-2.951-2.952V312.608c0-3.934,0-3.934-4.918-3.934H446.94c-3.934,0-3.934,0-3.934,3.934V434.587c0,4.918,0,4.918,4.918,4.918H698.767c2.951,0,6.885,0,7.869,2.951,18.69,20.658,39.348,39.348,59.022,59.022,1.967,2.951,1.967,3.935,1.967,7.87V764.125c0,2.951,0,3.935-1.967,5.9-19.674,20.658-40.332,40.332-60.006,60.006a8.929,8.929,0,0,1-6.885,2.951H315.125c-2.951,0-3.935-.984-4.918-2.951-21.642-19.674-41.316-39.348-62.957-60.006a8.864,8.864,0,0,1-.984-4.918V639.2c0-2.951,0-2.951,3.935-2.951H438.087c3.935,0,4.919,0,4.919,2.951V696.25c0,5.9,0,5.9,3.934,5.9H567.935c2.951,0,3.935-.984,3.935-5.9V574.272c0-3.935,0-3.935-3.935-3.935H316.109c-3.935,0-5.9-.984-7.87-.984a594.889,594.889,0,0,0-60.989-60.989,16.736,16.736,0,0,1-.984-6.886V247.684c0-1.967,0-3.934.984-4.918,21.641-20.658,41.315-41.315,60.989-60,1.968-1.968,1.968-3.935,3.935-4.919,0-1.967,0-1.967,1.967-1.967H507.93ZM746.968,73.57C670.239,29.3,587.609,6.679,499.076,6.679,409.56,6.679,326.929,29.3,250.2,73.57q-110.665,66.4-177.065,177.066C28.87,327.364,6.245,409.994,6.245,498.527c0,89.516,22.625,172.147,66.891,248.875q66.4,110.665,177.065,177.065c76.728,44.267,159.359,66.892,248.875,66.892,88.533,0,171.163-22.625,247.892-66.892q110.666-66.4,177.065-177.065c44.266-76.728,66.891-159.359,66.891-248.875,0-88.533-22.625-171.163-66.891-247.891Q857.634,139.969,746.968,73.57Z"/></svg>