<svg xmlns="http://www.w3.org/2000/svg" viewBox="0 0 1000 1000"><path d="M328.81 444.175c-14.029-16.366-25.719-33.901-40.915-47.929-61.957-87.674-128.589-171.841-196.39-256.008-15.197-17.535-37.408-23.38-54.943-17.535C13.182 129.717 5 140.238 5 167.125 5 388.063 7.338 611.34 5 831.109c0 42.084 36.238 56.112 64.294 44.422 16.366-7.014 22.21-19.873 31.563-31.563 74.815-92.35 147.292-185.869 219.77-279.388 2.337-2.338 4.675-4.676 8.182-7.014 7.014 4.676 11.69 10.521 14.028 15.197 38.577 47.929 78.322 97.026 113.392 146.124 21.042 25.717 63.125 32.731 87.674 0 36.238-51.436 77.153-100.533 116.899-150.8 2.338-3.507 7.013-8.183 11.69-10.52 3.506 4.675 9.351 10.52 12.858 17.534 37.408 43.253 71.309 90.012 107.547 132.096 36.239 49.097 75.984 99.364 114.56 148.461 15.198 19.873 33.902 26.887 56.112 22.21 22.211-9.351 30.394-19.872 30.394-49.097V323.77c0-52.604 2.338-107.547 0-158.982 0-12.86-2.338-24.55-11.69-32.732-21.042-17.535-54.942-15.197-72.477 8.183-68.97 86.505-135.603 170.672-202.235 258.346-10.52 15.197-22.21 29.225-37.408 45.59-7.013-8.182-11.69-14.027-14.027-21.041-37.408-44.422-75.985-94.688-115.73-143.786-21.042-28.055-60.787-24.548-80.66 0-21.042 26.887-44.422 54.943-64.295 80.66-21.041 28.056-43.252 56.112-66.632 84.168zM100.856 734.084V264.15c4.676 7.014 7.014 9.352 11.69 15.196 53.773 70.14 111.053 139.11 164.827 211.587 8.183 8.183 8.183 11.69 0 19.873-53.774 71.308-107.547 141.447-162.49 210.418-7.013 7.014-9.351 10.52-11.69 12.859zm275.88-225.615c-2.337-2.338-2.337-12.859 0-15.197 36.24-43.252 70.14-87.674 102.872-129.757 4.675-5.845 15.196-9.352 19.872-14.028 9.352 4.676 14.028 8.183 19.873 14.028 35.07 42.083 70.14 86.505 101.702 129.757 2.338 2.338 2.338 12.859 0 15.197-31.563 43.252-66.632 86.505-104.04 133.265-8.183 10.52-25.718 10.52-35.07-3.507-35.07-43.253-68.97-86.506-105.208-129.758zm346.02 2.338c-7.013-8.183-7.013-11.69 0-17.535C777.7 420.795 834.982 349.487 889.924 277.01c2.338-3.506 5.845-5.844 11.69-12.858v469.933c-3.507 0-3.507 2.337-5.845 2.337-3.507-2.337-5.845-8.182-8.183-12.858-54.942-71.309-109.885-143.786-164.827-212.756z"/></svg>