<svg width="33" height="32" viewBox="0 0 33 32" fill="none" xmlns="http://www.w3.org/2000/svg">
<g clip-path="url(#clip0_3393:12169)">
<path fill-rule="evenodd" clip-rule="evenodd" d="M16.4338 31.84C25.1819 31.84 32.2738 24.7482 32.2738 16C32.2738 7.25178 25.1819 0.159973 16.4338 0.159973C7.68556 0.159973 0.59375 7.25178 0.59375 16C0.59375 24.7482 7.68556 31.84 16.4338 31.84ZM6.86471 9.14333L11.5281 4.47992H13.7444C13.1441 4.82622 11.1587 7.29644 10.6508 9.14333H6.86471ZM16.0068 4.47992V9.14333H11.5281C11.8436 8.18141 12.9687 5.90203 14.9449 4.47992H16.0068ZM16.9072 9.14333H21.4321C20.3794 6.63155 18.6694 4.98782 17.9461 4.47992H16.9072V9.14333ZM25.9801 9.14333H22.3094C21.7322 7.75816 20.6887 5.84662 19.1927 4.47992H21.2705L25.9801 9.14333ZM10.5355 22.8565H6.8648L11.5744 27.5199H13.6521C12.1561 26.1532 11.1127 24.2417 10.5355 22.8565ZM11.4128 22.8565H15.9377L15.9377 27.5199L14.8988 27.5199C14.1754 27.012 12.4655 25.3683 11.4128 22.8565ZM16.838 22.8565V27.5199H17.9C19.8762 26.0978 21.0012 23.8184 21.3167 22.8565L16.838 22.8565ZM21.3167 27.5199L25.9801 22.8565H22.194C21.6861 24.7034 19.7007 27.1736 19.1005 27.5199H21.3167ZM9.5605 20.096C9.9125 20.096 10.2565 20.052 10.5925 19.964C10.9365 19.876 11.2445 19.716 11.5165 19.484C11.7885 19.252 11.9925 18.972 12.1285 18.644C12.2725 18.308 12.3445 17.968 12.3445 17.624C12.3445 17.328 12.2885 17.044 12.1765 16.772C12.0725 16.5 11.9205 16.256 11.7205 16.04C11.5205 15.824 11.2925 15.64 11.0365 15.488C10.7885 15.336 10.5285 15.208 10.2565 15.104C9.9925 14.992 9.7205 14.888 9.4405 14.792C9.1685 14.688 8.9285 14.524 8.7205 14.3C8.5125 14.076 8.4085 13.82 8.4085 13.532C8.4085 13.372 8.4365 13.22 8.4925 13.076C8.5485 12.932 8.6325 12.808 8.7445 12.704C8.8645 12.6 9.0005 12.528 9.1525 12.488C9.3045 12.44 9.4565 12.416 9.6085 12.416C9.8005 12.416 9.9885 12.448 10.1725 12.512C10.3565 12.576 10.5005 12.692 10.6045 12.86C10.7165 13.028 10.7765 13.208 10.7845 13.4H12.2605C12.2605 13.064 12.1925 12.744 12.0565 12.44C11.9205 12.128 11.7205 11.864 11.4565 11.648C11.2005 11.432 10.9085 11.284 10.5805 11.204C10.2605 11.124 9.9365 11.084 9.6085 11.084C9.2645 11.084 8.9245 11.132 8.5885 11.228C8.2605 11.316 7.9645 11.48 7.7005 11.72C7.4445 11.952 7.2485 12.232 7.1125 12.56C6.9845 12.88 6.9205 13.212 6.9205 13.556C6.9205 13.844 6.9725 14.128 7.0765 14.408C7.1885 14.68 7.3445 14.924 7.5445 15.14C7.7445 15.356 7.9685 15.54 8.2165 15.692C8.4645 15.836 8.7245 15.964 8.9965 16.076L9.8125 16.388C10.0845 16.492 10.3245 16.656 10.5325 16.88C10.7485 17.104 10.8565 17.36 10.8565 17.648C10.8565 17.864 10.7965 18.068 10.6765 18.26C10.5565 18.444 10.3925 18.576 10.1845 18.656C9.9845 18.728 9.7765 18.764 9.5605 18.764C9.3605 18.764 9.1605 18.732 8.9605 18.668C8.7685 18.604 8.6085 18.488 8.4805 18.32C8.3605 18.152 8.2965 17.964 8.2885 17.756H6.8125C6.8125 18.1 6.8845 18.432 7.0285 18.752C7.1725 19.064 7.3805 19.328 7.6525 19.544C7.9245 19.752 8.2245 19.896 8.5525 19.976C8.8885 20.056 9.2245 20.096 9.5605 20.096ZM14.0866 20H18.9106V18.668H17.2426V12.512H18.9106V11.18H14.0866V12.512H15.7546V18.668H14.0866V20ZM26.1606 20H21.1566V11.18H22.6446V18.668H26.1606V20Z" fill="black"/>
</g>
<defs>
<clipPath id="clip0_3393:12169">
<rect width="32" height="32" fill="white" transform="translate(0.441406)"/>
</clipPath>
</defs>
</svg>
