<?xml version="1.0" encoding="UTF-8"?><svg id="a" xmlns="http://www.w3.org/2000/svg" viewBox="0 0 1000 1000"><path d="M500,0C223.858,0,0,223.858,0,500s223.858,500,500,500,500-223.858,500-500S776.142,0,500,0Zm75.465,94.499l63.417,16.838-28.774,108.368-63.417-16.839,28.774-108.368Zm-151.023,824.462l-63.417-16.838,28.774-108.368,63.417,16.839-28.774,108.368Zm250.301-158.944l-452.181-120.063,16.838-63.417,452.181,120.063-16.839,63.417Zm43.181-162.757l-452.181-120.063,16.839-63.417,452.181,120.063-16.839,63.417Zm44.466-167.466l-452.181-120.063,16.838-63.417,452.181,120.063-16.838,63.417Z"/></svg>