<svg xmlns="http://www.w3.org/2000/svg" width="1000" height="1000">
  <path d="M500.496 995.003c275.935 0 494.507-224.506 494.507-495.496C995.003 226.54 773.464 5 500.496 5 223.572 5 5 229.506 5 499.507c0 276.924 224.506 495.496 495.496 495.496zM102.912 501.485C101.923 275.001 277.968 98.956 500.496 95.99 727.97 95 902.036 276.98 905.003 499.507c.989 219.561-179.012 404.507-398.573 405.496-221.539 0-403.518-173.078-403.518-403.518zm35.605-.989c0 205.715 162.198 368.902 364.946 368.902C708.19 868.41 869.4 706.211 868.41 500.496c0-204.726-161.209-368.902-365.935-368.902-201.759 0-364.946 165.165-363.957 368.902zm61.319-131.539c48.462-123.627 170.11-206.704 300.66-207.693 10.88 27.693 8.901 33.627-14.835 36.594-115.715 7.912-196.814 67.253-249.232 169.121-2.967 2.967-4.945 7.912-9.89 13.846-9.89-3.956-18.791-6.923-26.703-11.868zm51.429 50.44C285.88 303.682 394.672 223.572 506.43 233.462c0 9.89-.989 17.803-.989 27.693-111.758 9.89-190.88 62.308-220.55 170.11-30.66 104.836 5.934 192.858 92.967 260.11-1.978 3.957-4.945 8.902-6.923 11.87-2.967 3.955-5.934 8.9-9.89 11.867-95.934-53.407-144.396-183.956-109.78-295.715zm60.33 22.747c23.736-87.033 107.802-150.33 193.846-143.407 5.934 24.726-3.956 29.67-24.725 33.627-80.11 11.868-135.495 74.176-139.451 152.308-.99 83.077 46.484 148.352 127.583 167.143 89.011 21.759 180.99-38.571 197.803-132.528.989-4.945.989-13.846 1.978-21.758 9.89-1.978 18.79-1.978 30.659-1.978 5.934 44.506-10.88 79.121-32.637 111.759-56.374 78.132-160.22 105.824-246.265 65.275-88.022-41.539-131.539-137.473-108.792-230.44zm127.582 55.385c.99-28.681.99-51.429 3.956-76.154 2.967-25.714 12.858-34.615 34.616-21.758 40.55 25.714 81.099 52.417 121.649 78.132 16.813 10.879 17.802 26.703.989 37.582-40.55 27.693-82.089 55.385-123.627 80.11-19.78 11.869-30.66 2.968-32.638-19.78-3.956-26.703-3.956-54.396-4.945-78.132zm11.868 326.375c-4.945-27.693 8.902-31.649 30.66-29.67 87.033 6.922 165.165-18.792 226.484-78.133 94.946-91.978 119.67-201.759 77.143-327.363-7.912-19.78-9.89-33.627 16.814-36.594 53.406 73.187 48.461 218.572-10.88 314.507-73.187 120.66-202.748 180-340.22 157.253zm95.935-97.913c104.835-28.681 173.077-91.978 186.924-201.759 11.868-110.77-36.594-188.901-136.484-243.297 3.956-10.88 8.9-19.78 11.868-29.67C720.058 295.77 785.332 415.44 766.54 540.057 751.706 647.859 652.804 746.76 551.925 754.673c-1.978-8.901-3.956-17.802-4.945-28.682z" style="fill:#000;fill-opacity:1;fill-rule:nonzero;stroke:none;"/>
</svg>
