<svg xmlns="http://www.w3.org/2000/svg" width="1000" height="1000">
  <path d="M5 500.496c0 271.98 220.55 494.507 495.496 494.507 271.98 0 494.507-220.55 494.507-495.496C995.003 227.528 773.464 5 500.496 5 226.54 5 5 225.55 5 500.496zm147.363 188.902c98.902-174.067 203.737-351.1 308.573-528.134 15.824 22.748 25.714 45.495 42.527 73.187 13.846-27.692 24.726-50.44 40.55-73.187 104.835 177.034 204.726 354.067 304.616 531.1h-84.066c10.88 20.77 22.747 43.518 38.572 73.188l-609.233 2.967c12.857-26.703 27.692-48.462 37.582-76.154H155.33c-2.967 0-2.967 0-2.967-2.967zm61.319-35.605h30.66c10.879 0 15.824 0 18.79-6.923 48.462-86.044 92.968-161.21 151.32-258.132 20.77-34.616 38.571-70.22 57.363-99.89 12.857-22.748 9.89-30.66-15.824-54.397-80.11 142.418-161.21 280.88-242.309 419.342zm41.539 77.143h485.606c-3.956-7.912-7.912-14.835-10.88-22.747-5.934-14.835-12.857-15.824-26.703-15.824H290.825c-3.956 0-15.824-2.967-15.824 2.967-5.934 13.846-11.868 24.725-19.78 35.604zm46.483-77.143H698.3c-64.286-115.714-130.55-232.418-194.836-346.155-69.23 113.737-135.495 230.44-201.759 346.155zM528.19 279.946c5.934 12.857 8.9 15.824 15.824 31.648 58.352 98.902 116.703 198.792 173.077 299.672 8.901 15.824 14.836 31.648 23.737 42.527h45.494c-79.12-138.462-160.22-280.88-242.308-423.298-6.923 10.88-9.89 21.759-15.824 30.66-3.956 7.912-3.956 11.868 0 18.791z" style="fill:#000;fill-opacity:1;fill-rule:nonzero;stroke:none;"/>
</svg>
