<svg xmlns="http://www.w3.org/2000/svg" viewBox="0 0 1000 1000"><path d="M5 500.496c0 271.98 220.55 494.507 495.496 494.507 271.98 0 494.507-220.55 494.507-495.496C995.003 227.528 773.464 5 500.496 5 226.54 5 5 225.55 5 500.496zm121.649 124.616V382.803c0-8.9 4.945-10.879 16.813-10.879h123.627c49.45 0 72.198 15.825 72.198 55.385v17.802c0 19.78-6.923 34.616-21.758 38.572 31.648 4.945 49.45 21.758 49.45 57.363v35.604c0 41.539-23.736 60.33-77.143 60.33H143.462c-11.868 0-16.813-3.956-16.813-11.868zm89.011-50.44h51.429c7.912 0 12.857-4.945 12.857-12.857v-15.824c0-10.88-4.945-17.802-12.857-17.802H215.66zm0-99.89h32.638c9.89 0 13.846-4.945 13.846-16.813v-9.89c0-8.902-3.956-15.825-13.846-15.825H215.66zm188.902 87.033V445.111c0-49.45 30.66-73.187 94.945-73.187h95.935c7.912 0 12.857 1.978 12.857 10.88v45.494c0 10.88-4.945 12.857-12.857 12.857H516.32c-16.813 0-22.747 6.923-22.747 19.78v88.023c0 12.857 5.934 16.813 22.747 16.813h79.122c8.9 1.978 12.857 3.956 12.857 14.835v44.506c0 7.912-4.945 11.868-12.857 11.868h-95.935c-64.286 0-94.945-22.747-94.945-75.165zm245.275 5.934V382.803c0-8.9 3.956-10.879 12.858-10.879h63.296c8.902 0 9.89 1.978 9.89 10.88v171.099c0 7.912 6.924 15.824 35.605 15.824 26.703 0 31.649-7.912 31.649-15.824v-171.1c0-8.9.989-10.879 12.857-10.879h60.33c8.9 0 13.846 1.978 13.846 10.88v184.945c0 46.484-24.726 74.176-118.682 74.176-99.89 0-121.649-27.692-121.649-74.176z"/></svg>