<svg xmlns="http://www.w3.org/2000/svg" viewBox="0 0 1000 1000"><path d="M592.58 5h180.703c10.7 13.077 8.321 23.777-1.19 34.476-42.797 46.365-84.406 93.918-123.638 141.471-23.777 23.777-46.364 51.12-67.763 77.274 3.566 5.945 4.755 9.511 10.7 13.078 65.385 74.896 133.148 150.981 202.1 224.689 5.945 5.944 13.078 11.888 19.022 17.832v21.4c-5.944 7.132-16.644 13.077-22.588 21.398-34.476 35.665-65.386 72.52-98.673 111.75-20.21 24.966-41.609 51.12-64.197 74.897 10.7 13.077 21.4 23.777 29.721 34.476 22.588 24.966 46.364 48.742 67.763 74.897 4.756 4.755 7.133 14.266 10.7 21.399-9.51 4.755-16.644 8.322-24.966 8.322-39.231 1.188-79.651 1.188-117.694 1.188-24.965 0-52.309 5.945-66.575-23.776-9.51 11.888-17.832 19.021-23.776 24.965-28.532 33.288-54.687 64.197-84.407 95.107-4.756 5.944-13.078 14.266-17.833 14.266-58.253 1.189-111.75 1.189-167.625 0-16.644 0-19.022-8.322-11.889-19.021 1.19-4.756 4.756-8.322 5.944-11.889 41.61-45.175 80.841-91.54 121.261-136.716 22.588-28.532 46.365-54.686 70.142-82.029-4.756-5.944-7.133-13.077-13.078-16.644-67.763-76.085-136.715-152.17-205.668-227.067-15.455-22.588-15.455-23.776 0-42.798 34.476-39.231 66.575-77.274 101.051-116.505 22.588-26.155 46.365-52.309 70.141-80.841-10.7-11.888-19.021-22.588-28.532-32.098-20.21-23.777-42.798-47.554-64.197-71.33-5.944-10.7-9.51-19.022-15.455-28.532 10.7-1.19 21.4-8.322 30.91-8.322 36.854-2.378 76.085 0 117.695 0 21.399 0 46.364-4.756 63.008 23.776C516.495 95.351 554.537 51.364 592.58 5zM386.912 476.967c45.176 51.12 89.162 99.862 134.338 149.793 30.91-34.477 59.442-67.764 89.163-102.24-43.987-49.931-89.163-98.673-134.339-147.415-30.91 34.476-59.441 66.574-89.162 99.862z"/></svg>