<svg xmlns="http://www.w3.org/2000/svg" viewBox="0 0 1000 1000"><path d="M500.496 5C223.572 5 5 229.506 5 500.002c0 276.43 224.506 495.001 495.002 495.001 276.43 0 495.001-224.506 495.001-495.001C995.003 226.539 773.464 5 500.496 5zM166.21 584.562c14.836-105.824 97.913-187.912 201.76-204.726 15.823-1.978 15.823-3.956 17.802-17.802 15.824-90 65.274-154.286 150.33-187.913 143.407-51.428 290.77 28.682 324.396 174.067 4.945 24.725 4.945 56.374 1.978 83.077-13.846 104.836-96.923 189.89-200.77 204.726-15.824 2.967-15.824 2.967-19.78 20.77-19.78 99.89-78.132 164.176-175.055 193.846-131.54 40.55-270.99-50.44-297.694-182.967-3.956-31.649-7.912-46.484-2.967-83.078zm43.517 0c0 8.901 1.978 12.858 8.901 12.858h151.32c9.89 0 11.867-3.957 11.867-12.858V431.265c0-6.923-1.978-8.901-9.89-6.923-80.11 9.89-149.34 80.11-162.198 160.22zm1.978 70.22c15.824 90 97.912 160.22 189.89 160.22 96.924 0 179.012-66.263 195.826-158.242 3.956-16.813 1.978-16.813-13.847-16.813h-360.99c-12.857 0-12.857 0-10.879 14.835zm214.616-70.22c0 8.901 3.956 12.858 11.868 12.858h152.308c6.924 0 10.88-3.957 10.88-12.858V431.265c0-8.901-3.956-10.879-10.88-10.879H438.188c-7.912 0-11.868 1.978-11.868 10.88zm3.956-223.517c-2.967 12.857-2.967 14.835 13.846 14.835h361.98c12.857 0 13.846-1.978 12.857-13.846-18.791-91.978-98.902-160.22-190.88-160.22-97.912-1.978-178.023 64.286-197.803 159.231zm215.605 223.517c0 8.901 3.956 9.89 11.868 8.901 79.122-11.868 150.33-83.077 161.21-162.198.989-8.901-1.978-10.879-10.88-10.879H657.75c-7.912 0-11.868 1.978-11.868 10.88z"/></svg>