<svg width="32" height="32" viewBox="0 0 32 32" fill="none" xmlns="http://www.w3.org/2000/svg">
<path d="M9.24525 0.0640259L2.78125 6.52803H8.02925C8.73325 3.96803 11.4852 0.544026 12.3172 0.0640259H9.24525Z" fill="black"/>
<path d="M15.4532 6.52803V0.0640259H13.9812C11.242 2.03523 9.68258 5.19469 9.24525 6.52803H15.4532Z" fill="black"/>
<path d="M16.7012 6.52803H22.9732C21.514 3.04643 19.1439 0.768026 18.1412 0.0640259H16.7012V6.52803Z" fill="black"/>
<path d="M24.1892 6.52803H29.2772L22.7492 0.0640259H19.8692C21.9428 1.95843 23.3892 4.60803 24.1892 6.52803Z" fill="black"/>
<path d="M22.8133 32L29.2773 25.536L24.0293 25.536C23.3253 28.096 20.5733 31.52 19.7413 32L22.8133 32Z" fill="black"/>
<path d="M16.6053 25.536L16.6053 32L18.0773 32C20.8165 30.0288 22.376 26.8693 22.8133 25.536L16.6053 25.536Z" fill="black"/>
<path d="M15.3573 25.536L9.08535 25.536C10.5445 29.0176 12.9147 31.296 13.9173 32L15.3573 32L15.3573 25.536Z" fill="black"/>
<path d="M7.86935 25.536L2.78135 25.536L9.30935 32L12.1893 32C10.1157 30.1056 8.66935 27.456 7.86935 25.536Z" fill="black"/>
<path d="M3.77344 22H10.3174V20.224H5.75744V16.656H9.26144V14.88H5.75744V12.016H10.3174V10.24H3.77344V22Z" fill="black"/>
<path d="M12.4642 22H15.9202C16.2509 22 16.5762 21.9733 16.8962 21.92C17.2269 21.8667 17.5415 21.7707 17.8402 21.632C18.1389 21.4827 18.4109 21.296 18.6562 21.072C18.9015 20.848 19.0989 20.5867 19.2482 20.288C19.4082 19.9893 19.5149 19.68 19.5682 19.36C19.6322 19.0293 19.6642 18.6987 19.6642 18.368V13.872C19.6642 13.5413 19.6322 13.216 19.5682 12.896C19.5149 12.5653 19.4082 12.2507 19.2482 11.952C19.0989 11.6533 18.9015 11.392 18.6562 11.168C18.4109 10.944 18.1389 10.7627 17.8402 10.624C17.5415 10.4747 17.2269 10.3733 16.8962 10.32C16.5762 10.2667 16.2509 10.24 15.9202 10.24H12.4642V22ZM14.4322 20.224V12.016H15.9202C16.1655 12.016 16.4055 12.0533 16.6402 12.128C16.8749 12.2027 17.0722 12.3307 17.2322 12.512C17.4029 12.6933 17.5202 12.9067 17.5842 13.152C17.6589 13.3867 17.6962 13.6267 17.6962 13.872V18.368C17.6962 18.6133 17.6589 18.8533 17.5842 19.088C17.5202 19.3227 17.4029 19.536 17.2322 19.728C17.0722 19.9093 16.8749 20.0373 16.6402 20.112C16.4055 20.1867 16.1655 20.224 15.9202 20.224H14.4322Z" fill="black"/>
<path d="M21.9389 22H23.9229V17.568H25.4589C25.8109 17.568 26.1576 17.5413 26.4989 17.488C26.8509 17.424 27.1869 17.3173 27.5069 17.168C27.8269 17.008 28.1043 16.8 28.3389 16.544C28.5843 16.2773 28.7549 15.9733 28.8509 15.632C28.9576 15.2907 29.0109 14.9493 29.0109 14.608V13.2C29.0109 12.8587 28.9576 12.5173 28.8509 12.176C28.7549 11.8347 28.5843 11.536 28.3389 11.28C28.1043 11.0133 27.8269 10.8053 27.5069 10.656C27.1869 10.496 26.8509 10.3893 26.4989 10.336C26.1576 10.272 25.8109 10.24 25.4589 10.24H21.9389V22ZM23.9229 15.792V12.016H25.4589C25.6509 12.016 25.8376 12.0373 26.0189 12.08C26.2003 12.112 26.3709 12.176 26.5309 12.272C26.7016 12.368 26.8296 12.5013 26.9149 12.672C27.0003 12.8427 27.0429 13.0187 27.0429 13.2V14.608C27.0429 14.7893 27.0003 14.9653 26.9149 15.136C26.8296 15.3067 26.7016 15.44 26.5309 15.536C26.3709 15.632 26.2003 15.7013 26.0189 15.744C25.8376 15.776 25.6509 15.792 25.4589 15.792H23.9229Z" fill="black"/>
</svg>
