<svg xmlns="http://www.w3.org/2000/svg" width="1000" height="1000">
  <path d="M243.29 666.921c-36.837 0-57.558-21.872-69.07-48.349-4.604-31.081 11.512-63.314 42.593-73.675 58.71-26.476 122.024-47.197 185.338-73.674 111.664-42.594 216.42-85.187 328.083-127.78 47.198-14.965 84.035 0 95.547 42.593 4.604 32.233-11.512 58.71-48.35 74.826-116.267 41.442-232.535 89.791-348.803 136.99-52.954 16.115-105.907 36.836-158.86 58.709-10.361 4.604-20.722 4.604-26.478 10.36zM174.22 862.62c5.756 31.081 32.233 47.197 69.07 47.197 0 0 10.36 0 21.872-4.604 63.315-21.872 120.873-42.593 179.582-69.07 110.513-36.838 222.176-79.43 338.444-122.024 31.081-16.116 47.197-42.593 42.593-69.07-11.512-41.442-48.35-63.314-89.791-47.198-117.42 42.593-233.687 85.186-349.955 132.384-57.558 20.721-110.512 42.593-169.222 63.314-31.081 10.361-47.197 36.838-42.593 69.07zm0-793.155c0 36.838 26.477 57.559 69.07 63.315h191.094c36.837 0 63.314-26.477 67.919-63.315C502.303 31.477 475.826 5 434.384 5H238.686c-37.989 0-64.466 26.477-64.466 64.465zm5.756 259.013c-10.36 26.477-5.756 47.198 16.116 63.314 20.721 20.721 42.594 20.721 69.07 10.36 105.908-36.837 210.664-79.43 316.571-116.267 69.07-26.477 138.14-52.954 201.455-79.43 31.081-10.361 47.197-36.838 42.593-69.07-5.756-26.478-32.233-47.199-69.07-47.199-16.117 5.756-36.838 10.36-58.71 20.721-157.71 58.71-311.966 116.268-470.827 174.978-20.721 5.756-41.442 16.116-47.198 42.593zM497.698 931.69c0 36.837 26.477 63.314 69.07 63.314h195.699c36.837 0 63.314-26.477 63.314-63.314 0-32.233-26.477-58.71-63.314-58.71H566.768c-37.988 0-64.465 20.721-69.07 58.71z" style="fill:#000;fill-opacity:1;fill-rule:nonzero;stroke:none;"/>
</svg>
