<svg xmlns="http://www.w3.org/2000/svg" viewBox="0 0 1000 1000"><path d="M500.496 5C223.572 5 5 229.506 5 500.002c0 276.43 224.506 495.001 495.002 495.001 276.43 0 495.001-224.506 495.001-495.001C995.003 226.539 773.464 5 500.496 5zM258.188 726.98V563.793c1.978-55.385 3.956-108.792 1.978-164.176-3.956-131.54 100.88-230.44 196.814-257.144 114.725-34.616 238.352 6.923 305.605 103.846 112.748 165.166 21.758 389.672-173.078 427.255-23.736 5.934-27.692 13.846-29.67 35.604-1.978 44.506-1.978 88.022-30.66 123.627-34.615 43.517-79.12 61.319-132.527 55.385-89.012-11.868-138.462-71.21-138.462-161.21zm89.011-337.253c-.99 120.66 0 244.286 1.978 364.946 0 11.868 3.956 23.736 9.89 32.637 11.868 22.748 37.583 31.649 61.319 24.726 24.725-7.912 40.55-26.704 40.55-57.363.989-114.726.989-227.473 2.967-343.188 0-9.89 0-21.758 2.967-31.649 6.923-37.582 47.472-61.318 87.033-51.428 35.604 9.89 57.363 51.428 45.495 87.033-11.869 37.582-41.539 51.429-79.122 49.45-7.912 33.627-14.835 65.276-21.758 96.924-3.956 16.813 3.956 20.77 17.802 21.758 104.836 10.88 195.825-68.242 204.726-176.044 7.912-98.902-74.176-192.858-175.055-196.814-105.825-5.934-196.814 74.176-198.792 179.012z"/></svg>