<svg xmlns="http://www.w3.org/2000/svg" width="1000" height="1000">
  <path d="M358.173 23.343c253.872-61.027 500.42 41.498 604.165 299.03 28.073 76.894 43.94 170.876 23.19 264.857-45.16 261.194-300.251 443.054-562.666 400.335C158.006 946.067-25.075 705.622 9.1 438.325 31.07 243.039 172.652 78.267 358.173 23.343zM117.728 315.05C54.26 427.34 51.819 600.656 145.8 736.135c73.232 104.966 229.46 198.947 313.678 180.64V636.05c-12.205 2.441-18.308 7.323-25.631 12.206-32.955 18.308-61.027 32.954-91.54 51.262-20.75 9.764-36.617 4.882-47.601-12.205-6.103-15.867-4.883-36.616 13.426-46.38 3.661-3.662 7.323-4.883 12.205-8.544 50.042-29.293 100.084-58.586 151.346-89.1 17.088-8.543 34.175-8.543 50.042 0 48.822 32.955 98.864 63.468 148.905 95.202 4.883 4.882 13.426 7.324 14.647 12.206 12.205 10.984 14.646 21.97 9.764 36.616-4.882 12.205-13.426 21.97-28.072 21.97-9.764 0-21.97-3.662-29.293-7.324l-86.658-53.703c-4.882-4.883-9.764-7.324-15.867-9.765v278.282c119.613 4.883 268.518-90.32 333.206-214.814 69.57-125.715 69.57-255.092 13.426-386.91-79.335 46.38-161.11 89.1-239.225 136.7 21.97 9.765 39.057 19.529 54.924 28.073 19.529 10.985 36.616 20.749 56.145 29.293 18.308 12.205 26.852 34.175 15.867 51.262-9.764 18.308-30.514 24.41-51.263 12.205-53.703-29.292-108.627-58.585-164.772-90.32-14.646-7.322-20.749-15.866-20.749-32.954V256.465c0-4.882 2.441-12.206 2.441-15.867 6.103-17.088 23.19-24.41 40.278-19.529 15.867 2.441 29.293 15.867 29.293 32.955v135.48c80.555-46.381 159.89-91.541 240.445-137.921C753.627 134.41 637.676 72.164 489.991 74.605c-140.361 2.441-252.65 65.909-339.309 176.978 81.776 46.38 161.111 91.54 241.666 140.361v-137.92c0-20.75 14.647-32.955 32.955-35.396 20.749 0 34.175 12.206 36.616 32.955 2.441 4.882 2.441 13.426 2.441 20.749v174.536c0 17.088-4.882 28.073-18.308 35.396-56.145 29.293-113.51 61.027-168.434 90.32-20.749 12.205-40.278 6.102-53.703-12.206-7.324-19.529-1.221-39.057 20.749-51.262 30.513-15.867 63.468-34.175 92.76-51.263 4.883-1.22 9.765-3.662 17.088-8.544-81.776-45.16-161.11-87.878-236.784-134.259z" style="fill:#000;fill-opacity:1;fill-rule:nonzero;stroke:none;"/>
</svg>
