<svg xmlns="http://www.w3.org/2000/svg" viewBox="0 0 1000 1000"><path d="M916.501 99.855c16.355-1.09 33.8-4.361 53.426-4.361h25.077L802.018 804.197c-5.451 20.716-14.174 39.251-27.257 54.516-14.174 16.354-26.168 29.438-42.523 37.07-8.722 4.362-21.806 6.542-40.341 7.632-13.084 1.09-29.439 1.09-45.793 1.09h-22.897L286.301 441.124l-97.038 363.074c-6.542 25.077-17.445 46.883-31.62 61.058-9.812 9.812-21.805 17.445-39.25 27.257-7.633 4.362-20.716 8.723-42.523 10.903-11.993 1.09-29.438 1.09-46.883 1.09H5l192.985-706.522c7.632-27.257 18.536-49.064 35.98-66.509 13.084-13.083 27.258-21.806 43.613-29.438 9.813-4.361 31.62-5.452 61.058-6.542l40.341 1.09 337.997 460.112 98.128-364.164c2.18-7.632 4.361-16.355 10.903-25.077 14.174-19.626 23.987-38.161 39.251-50.155 11.994-7.632 28.349-16.354 51.245-17.445zm-596.4 221.334 332.545 457.93 30.528-92.676L345.177 219.79z"/></svg>