<svg xmlns="http://www.w3.org/2000/svg" viewBox="0 0 1000 1000"><path d="M500.496 5C223.572 5 5 229.506 5 500.002c0 276.43 224.506 495.001 495.002 495.001 276.43 0 495.001-224.506 495.001-495.001C995.003 226.539 773.464 5 500.496 5zM175.11 460.936c0-21.759 8.902-21.759 63.297-21.759-15.824-63.297-32.637-123.627-47.472-185.934h61.319c17.802 0 22.747 43.516 49.45 153.297 5.934 32.637 5.934 32.637 36.594 32.637h68.242c16.813 0 20.77-10.879 26.703-22.747 10.88-46.484 25.715-94.945 36.594-141.43 4.945-21.757 4.945-21.757 32.637-21.757 63.297 0 48.462-5.935 63.297 48.461 8.901 36.594 20.77 74.176 30.66 114.726 4.945 15.824 8.9 22.747 25.714 22.747 29.67-.989 53.407 0 79.121 0 21.758 0 21.758-6.923 27.692-27.692 8.902-41.539 19.78-84.066 30.66-131.54 4.945-26.702 4.945-26.702 37.582-26.702h41.54c-14.836 62.307-32.638 120.66-46.485 183.956h30.66c25.714 0 25.714 1.978 25.714 25.715 0 22.747 0 27.692-25.714 27.692h-16.813c-30.66 0-36.594 0-36.594 42.528h58.352c20.77 0 20.77 0 20.77 25.714 0 21.758 0 27.692-25.715 27.692h-47.473c-26.703 0-26.703 0-31.648 19.78-11.868 48.462-20.77 90.001-37.583 130.55-9.89 27.693-4.945 27.693-30.66 27.693-53.406 0-43.516 10.88-58.351-47.473-11.868-36.593-20.77-73.187-30.66-110.77-4.945-14.835-10.879-19.78-27.692-19.78h-94.945c-14.836 0-19.78 4.945-24.726 19.78-11.868 43.517-22.747 84.067-32.637 127.584-5.934 30.659-10.88 30.659-41.539 30.659-48.461 0-42.527 4.945-54.396-41.539-8.9-37.582-18.79-79.12-30.659-116.703-4.945-14.836-10.88-19.78-27.692-19.78h-51.43c-20.768 0-20.768-5.935-20.768-21.759 0-31.648 0-31.648 31.648-31.648h40.55s6.923 0 6.923-5.934v-19.78c0-17.803-10.88-16.814-25.715-16.814h-39.56c-15.825 0-18.792-3.956-18.792-29.67zm147.364 28.681c0 27.692 5.934 38.572 15.824 38.572h58.352c4.945 0 9.89-21.759 9.89-38.572zm20.769 96.923c4.945 25.715 10.879 48.462 21.758 73.187 4.945-21.758 13.846-47.472 19.78-73.187zm120.66-59.34h94.945c-4.945-36.594-4.945-36.594-40.55-36.594h-26.703c-16.813 0-27.692 5.934-27.692 16.813zm21.758-94.946h52.418c-2.967-5.934-21.759-67.253-25.715-79.121-9.89 27.692-16.813 53.407-26.703 79.121zm136.484 58.352c0 27.692 5.934 38.572 16.813 38.572h57.363c4.945 0 9.89-21.759 9.89-38.572zm21.758 95.934c5.934 25.715 10.88 51.43 19.78 79.122 2.968-5.935 16.814-55.385 21.759-79.122z"/></svg>