<svg xmlns="http://www.w3.org/2000/svg" viewBox="0 0 1000 1000"><path d="M346.847,390.36l-72.071,72.073,72.071,72.072c84.213,84.583,222.093,84.583,306.306,0l72.071-72.072-72.071-72.074C568.94,305.777,431.06,305.777,346.847,390.36ZM603.6,462.432A103.6,103.6,0,1,1,500,358.829,103.6,103.6,0,0,1,603.6,462.432Zm-148.649,0A45.045,45.045,0,1,1,500,507.477,45.045,45.045,0,0,1,454.955,462.432ZM500.3,5C226.9,5,5.3,226.6,5.3,500s221.6,495,495,495,495-221.6,495-495S773.7,5,500.3,5ZM500,795.766,166.667,462.57l198.2-198.336h270.27l198.2,198.336Z"/></svg>