<svg xmlns="http://www.w3.org/2000/svg" viewBox="0 0 1000 1000"><path d="M5 500.496c0 271.98 220.55 494.507 495.496 494.507 271.98 0 494.507-220.55 494.507-495.496C995.003 227.528 773.464 5 500.496 5 226.54 5 5 225.55 5 500.496zm119.67 252.199c65.276-180.99 129.562-362.968 193.848-545.936h.989c.989 13.846 2.967 28.681 3.956 42.528 1.978 15.824 3.956 32.637 5.934 49.45.989 15.824 1.978 31.649 4.945 46.484 1.978 20.77 3.956 41.539 4.945 61.319 1.978 16.813 2.967 32.637 4.945 49.45.989 15.825 3.956 31.649 4.945 47.473 1.978 13.846 2.967 25.715 3.956 36.594 0 3.956-.989 8.9-2.967 9.89-51.429 47.473-101.868 93.956-152.308 140.44-22.748 19.78-45.495 40.55-67.253 61.319 0 .989-2.967.989-5.934.989zm197.804-541.98h.989c1.978 5.934 3.956 9.89 5.934 15.824 30.66 85.055 61.319 171.1 90.989 255.166 1.978 5.934.989 6.923-1.978 10.879-19.78 15.824-38.572 31.648-58.352 47.473-.989 1.978-1.978 2.967-4.945 3.956-10.88-110.77-21.758-222.528-32.637-333.298zm.989-7.912v-.99c12.857 10.88 24.725 21.76 36.593 32.638 42.528 36.594 85.055 74.176 128.572 110.77 11.868 10.88 11.868 10.88 11.868 26.703 0 14.836 0 29.67-.989 44.506 0 2.967-1.978 6.923-2.967 8.901-22.747 19.78-46.484 38.572-68.242 58.352-.989.989-2.967.989-4.945 3.956-32.637-95.934-67.253-190.88-99.89-284.836zM356.1 546.98c21.758-18.791 45.495-37.583 67.253-57.363 25.714 67.253 48.462 133.517 73.187 198.792v1.978c-47.473-48.462-93.956-95.934-140.44-143.407zm71.21-52.418c-2.968-4.945-1.979-6.923 2.966-9.89 21.758-17.802 41.539-36.594 63.297-54.396 2.967-1.978 2.967-2.967 5.934-3.956v261.1c-1.978-1.978-2.967-3.956-2.967-6.923-22.747-62.308-47.473-124.616-69.23-185.935zm74.175-78.132c0-17.802 0-36.594.99-55.385 0-2.967.988-6.923 2.966-7.912C546.98 315.55 587.53 280.935 628.08 245.33c15.824-13.846 30.66-25.714 45.495-39.56.989-.99 2.967-1.978 3.956-2.967 0 .989 0 .989.989.989L577.639 485.66c-7.912-6.923-15.824-11.868-23.736-18.791-15.824-13.847-31.649-27.693-48.462-41.539-2.967-1.978-3.956-4.945-3.956-8.901zm.99 270.99V425.33c7.911 5.934 14.834 11.868 21.758 18.791 15.824 12.858 31.648 26.704 48.461 40.55 2.967 2.967 3.956 4.945 1.978 7.912-22.747 64.286-46.483 126.594-69.23 188.902-.99 2.967-1.979 4.945-2.968 5.934zm1.977 2.967c24.726-67.253 49.45-133.517 73.187-200.77 23.737 19.78 45.495 38.572 68.242 57.363-47.472 47.473-93.956 96.923-140.44 144.396 0-.99-.989-.99-.989-.99zm76.154-207.693c17.803-47.473 34.616-94.945 51.43-140.44 13.845-39.56 27.691-81.1 42.527-121.649 0-.989 1.978-2.967 2.967-4.945h.989c-10.88 109.78-21.759 218.572-32.638 329.342-2.967-2.967-4.945-4.945-7.912-5.934-17.802-16.814-36.593-31.649-54.396-46.484-2.967-3.956-3.956-4.945-2.967-9.89zm68.242 55.385c2.967-24.726 4.945-50.44 7.912-75.165 1.978-27.693 5.935-53.407 8.902-80.11l5.934-71.21c2.967-26.703 5.934-54.395 8.9-80.11 0-9.89.99-16.813 1.979-25.714h1.978c63.297 181.979 126.594 365.935 191.869 546.925 0 .989-1.978.989-1.978.989l-3.956-3.956c-58.352-52.418-116.704-105.825-175.056-159.232-13.846-12.857-28.681-26.703-42.528-40.55-4.945-3.955-4.945-7.911-3.956-11.867z"/></svg>