<svg xmlns="http://www.w3.org/2000/svg" viewBox="0 0 1000 1000"><path d="M5 500.496c0 271.98 220.55 494.507 495.496 494.507 271.98 0 494.507-220.55 494.507-495.496C995.003 227.528 773.464 5 500.496 5 226.54 5 5 225.55 5 500.496zm81.1 34.616c0-287.804 173.077-461.87 455.935-461.87 53.407-.99 266.045 41.539 345.166 262.089 6.923 13.846 6.923 26.703 0 40.55C846.65 486.65 781.376 556.87 678.519 608.298c20.769-48.462 29.67-66.264 29.67-122.638-3.956-119.67-116.704-212.638-233.407-192.858-86.044 12.857-152.308 76.154-172.089 159.231-20.769 87.034 15.825 173.078 89.012 219.562 46.483 33.626 96.923 39.56 150.33 33.626C688.409 688.41 804.124 618.19 887.2 498.518c11.868-14.835 25.714-47.473 33.626-39.56 0 277.913-170.11 461.87-455.935 461.87-180 0-378.793-208.683-378.793-385.716z"/></svg>