<svg xmlns="http://www.w3.org/2000/svg" viewBox="0 0 1000 1000"><path d="M5 500.002v.395-.395c.099-89.506 22.55-172.682 67.253-249.726 44.209-74.473 103.55-133.814 178.023-178.023C327.419 27.45 410.694 5 500.002 5c89.308 0 172.583 22.45 249.726 67.253C824.2 116.462 883.54 175.803 927.75 250.276c44.803 77.143 67.253 160.418 67.253 249.726 0 89.308-22.45 172.583-67.253 249.726C883.541 824.2 824.2 883.54 749.728 927.75c-77.143 44.803-160.418 67.253-249.726 67.253-89.308 0-172.583-22.45-249.726-67.253-74.473-44.209-133.814-103.55-178.023-178.022C27.55 672.684 5.099 589.508 5 500.002zM313.572 737.86c0 9.89 160.22 95.934 160.22 89.01V661.706c0-14.835-109.78-74.176-160.22-106.813zm0-432.2.99 187.913 121.648 71.21c22.748 12.856 37.583 23.735 37.583 11.867V406.54c0-4.945-81.1-54.396-160.22-100.88zm35.605-57.363 158.242 91.979 161.21-91.979c-39.561-25.714-143.407-84.066-164.177-95.934-19.78 13.846-95.934 59.341-155.275 95.934zm188.902 591.431c110.77-60.33 217.583-122.638 217.583-126.594V529.178c-70.22 38.571-147.363 80.11-215.605 120.66l-.99 11.867zm.989-253.188c55.385-31.648 105.824-62.308 158.242-92.967 2.967-.989 1.978-10.88 1.978-12.857V305.66c-51.429 29.67-107.803 63.297-159.231 90.99z"/></svg>