<svg xmlns="http://www.w3.org/2000/svg" viewBox="0 0 1000 1000"><path d="M229.227 677.119c109.738-14.266 218.379-20.85 333.604-38.409 55.966-9.876 108.64-25.24 149.244-71.33 152.536-159.12-50.48-316.045-340.188-332.506 100.959-27.435 345.675-34.019 471.874 27.434 179.97 89.986 130.588 265.567 25.24 345.676-85.596 59.258-181.068 84.498-280.93 99.861-181.068 16.461-290.806-16.46-358.844-30.726zM6.458 508.122c-9.876-69.135 31.825-103.154 82.304-148.147-84.498 104.252-55.966 183.263 25.24 273.248-50.48-30.726-102.057-65.842-107.544-125.101zm92.18 80.109c-60.355-74.622-54.869-160.218 15.364-230.45 86.693-80.11 224.963-116.323 333.604-95.473 86.693 15.364 171.191 40.604 240.327 95.473 61.453 50.48 71.33 126.198 25.24 181.068-15.364-54.87-59.26-61.454-109.739-75.72-117.42-35.116-357.746-23.045-430.174 9.877-59.258 25.24-79.011 50.48-74.621 115.225zm15.364-36.214c0-117.42 577.223-114.128 577.223-8.779 0 40.603-61.454 59.259-87.79 68.038 19.752-40.603 9.876-52.675-25.24-62.551-54.87-16.46-105.35-25.24-159.121-29.63-82.304-6.584-249.106 2.195-305.072 32.922zm159.12 155.828c228.256 34.02 407.129 35.117 560.762-54.869 89.986-44.992 145.952-127.296 145.952-227.158 43.895 127.297-8.779 272.15-141.562 322.63-184.36 71.33-379.694 28.532-565.152-40.603z"/></svg>