<svg xmlns="http://www.w3.org/2000/svg" viewBox="0 0 1000 1000"><path d="M749.728 72.253C824.2 116.462 883.54 175.803 927.75 250.276c44.803 77.143 67.253 160.418 67.253 249.726 0 89.308-22.45 172.583-67.253 249.726C883.541 824.2 824.2 883.54 749.728 927.75c-77.143 44.803-160.418 67.253-249.726 67.253-89.308 0-172.583-22.45-249.726-67.253-74.473-44.209-133.814-103.55-178.023-178.022C27.451 672.585 5 589.31 5 500.002c0-89.308 22.45-172.583 67.253-249.726 44.209-74.473 103.55-133.814 178.023-178.023C327.419 27.45 410.793 5 500.496 5c89.011 0 172.089 22.45 249.232 67.253zM192.913 652.804c0 7.22 2.472 13.55 7.417 18.792 4.945 5.241 11.374 7.912 19.286 7.912 7.22 0 13.55-2.67 18.791-7.912 5.242-5.242 7.912-11.572 7.912-18.792 0-7.22-2.67-13.55-7.912-18.79-5.241-5.243-11.67-7.913-19.285-7.913-7.616 0-13.847 2.67-18.792 7.912-4.945 5.242-7.417 11.572-7.417 18.791zm0-294.231c0 7.615 2.472 14.044 7.417 19.285 4.945 5.242 11.176 7.912 18.792 7.912 7.615 0 14.044-2.67 19.285-7.912 5.242-5.241 7.912-11.571 7.912-18.79 0-7.913-2.67-14.54-7.912-19.781-5.241-5.242-11.571-7.912-18.79-7.912-7.913 0-14.342 2.67-19.287 7.912-4.945 5.242-7.417 11.67-7.417 19.286zm2.967 149.835c0 7.22 2.274 13.649 6.923 19.286 4.648 5.637 10.187 8.703 16.813 9.396 6.627.692 13.154-1.286 19.78-5.934 3.264-2.67 7.913-7.616 13.847-14.836l6.923-6.923c5.241-5.934 13.55-14.538 24.725-25.714 15.824-15.824 27-27.99 33.627-36.594 4.648-6.626 5.934-13.648 3.956-21.263-1.978-7.616-6.429-13.55-13.352-17.803-6.923-4.252-14.34-5.143-22.253-2.472-9.198 6.626-18.791 14.835-28.681 24.725-5.242 5.934-13.55 15.132-24.726 27.693-13.154 15.131-23.44 26.01-30.66 32.637-4.648 4.648-6.922 10.582-6.922 17.802zm61.813-222.528c-.989 8.604 1.187 15.528 6.429 20.77 25.022 25.714 45.198 45.197 60.33 58.351 1.978 1.286 5.241 4.253 9.89 8.901 5.242 5.934 9.593 9.89 12.857 11.868 5.934 3.264 11.868 4.649 17.802 3.957 6.627 0 12.165-2.77 16.813-8.407 4.649-5.637 6.924-12.066 6.924-19.286 0-7.22-2.275-13.154-6.924-17.802L310.605 275c-5.241-6.627-11.868-10.681-19.78-12.363-7.912-1.681-15.132-.494-21.758 3.462-6.627 4.648-10.385 11.176-11.374 19.78zm4.45 441.1c1.979 9.198 8.21 15.33 18.792 18.297 10.582 2.967 19.088 1.187 25.714-5.44 24.429-25.021 43.22-45.197 56.374-60.33 1.978-2.67 4.945-5.933 8.901-9.89 5.934-5.934 10.187-10.582 12.857-13.846 3.264-5.241 4.253-11.175 2.968-17.802 0-9.198-4.649-16.12-13.847-20.77-9.197-4.648-17.802-4.648-25.714 0-8.604 7.913-20.77 20.078-36.594 36.594-12.56 13.154-22.055 23.044-28.681 29.67-8.604 8.605-14.143 15.133-16.813 19.781-5.242 7.912-6.627 15.824-3.956 23.736zm2.968-152.308c0 7.22 2.67 13.55 7.912 18.791 5.242 5.242 11.67 7.913 19.286 7.913 7.615 0 13.846-2.67 18.79-7.913 4.946-5.241 7.419-11.571 7.419-18.79 0-7.22-2.473-13.55-7.418-18.792-4.945-5.242-11.176-7.912-18.791-7.912-7.616 0-14.044 2.67-19.286 7.912-5.242 5.242-7.912 11.571-7.912 18.791zm58.352-353.078c0 7.22 2.472 13.55 7.417 18.791 4.945 5.242 11.176 7.912 18.791 7.912 7.616 0 14.044-2.67 19.286-7.912 5.242-5.241 7.912-11.571 7.912-18.79 0-7.22-2.67-13.55-7.912-18.792-5.242-5.242-11.571-7.912-18.791-7.912-7.912 0-14.34 2.67-19.286 7.912-4.945 5.242-7.417 11.571-7.417 18.791zm6.923 563.244c0 7.615 2.67 14.044 7.912 19.286 5.242 5.241 11.571 7.912 18.791 7.912 7.22 0 13.55-2.67 18.791-7.912 5.242-5.242 7.912-11.67 7.912-19.286 0-7.616-2.67-14.044-7.912-19.286-5.241-5.242-11.571-7.912-18.79-7.912-7.22 0-13.55 2.67-18.792 7.912-5.242 5.242-7.912 11.67-7.912 19.286zm70.22-492.035c0 7.22 2.67 13.55 7.912 18.791 5.242 5.242 11.571 7.913 18.791 7.913 7.22 0 13.55-2.67 18.791-7.913 5.242-5.241 7.913-11.571 7.913-18.79 0-7.22-2.67-13.55-7.913-18.792-5.241-5.242-11.571-7.912-18.79-7.912-7.22 0-13.55 2.67-18.792 7.912-5.242 5.242-7.912 11.571-7.912 18.791zm2.967 409.452c-1.978 9.198 0 16.813 5.934 22.747 21.758 23.044 41.538 42.231 59.34 57.363 2.671 1.978 5.935 5.242 9.89 9.89 5.935 5.934 10.583 9.89 13.847 11.869 5.242 3.956 10.88 5.241 16.813 3.956 7.22 0 13.154-2.77 17.803-8.407 4.648-5.637 6.923-12.066 6.923-19.286 0-7.22-2.67-13.55-7.912-18.791-15.825-14.539-39.561-37.583-71.21-69.231-4.648-5.242-10.384-8.901-17.307-10.88-6.923-1.977-13.352-1.285-19.286 1.979-7.912 3.264-12.857 9.593-14.835 18.791zm62.308-482.639c-1.286 10.583 1.978 19.088 9.89 25.714 10.582 9.198 26.01 24.033 46.483 44.506l24.726 23.736c4.648 5.242 10.187 8.704 16.813 10.385 6.626 1.681 12.857.791 18.791-2.472 7.22-3.264 11.869-9.594 13.847-18.792 1.978-9.198 0-17.11-5.935-23.736-19.78-20.473-40.55-40.253-62.307-59.34l-3.956-3.957c-7.913-7.912-14.143-13.154-18.792-15.824-7.912-4.649-15.527-5.242-22.747-1.978-9.89 3.956-15.528 11.176-16.813 21.758zm80.11 492.035c0 7.615 2.67 13.846 7.912 18.791s11.571 7.418 18.791 7.418c7.22 0 13.55-2.473 18.791-7.418 5.242-4.945 7.913-11.176 7.913-18.791 0-7.616-2.67-14.044-7.913-19.286-5.241-5.242-11.571-7.912-18.79-7.912-7.22 0-13.55 2.67-18.792 7.912-5.242 5.242-7.912 11.67-7.912 19.286zm65.275-73.682c-1.286 10.583 1.681 18.791 8.9 24.725 8.605 7.913 21.463 20.473 38.572 37.583l35.605 33.627c5.934 6.626 14.044 9.593 24.23 8.9 10.188-.692 17.012-5.241 20.276-13.846 2.67-5.241 3.758-10.879 3.461-16.813-.297-5.934-2.472-10.879-6.428-14.835-11.176-11.868-28.979-28.978-53.407-51.429l-28.682-25.714c-6.626-5.934-15.527-7.22-26.703-3.956-9.198 3.956-14.539 11.176-15.824 21.758zm.494-269.506c1.682 9.593 6.429 16.022 14.341 19.286 5.934 2.67 11.868 3.263 17.802 1.978 5.934-1.286 10.88-4.253 14.835-8.902h.99c28.384-29.67 49.747-51.725 64.285-66.264 13.847-13.153 18.1-26.01 12.858-38.571-1.286-7.912-6.231-13.154-14.836-15.824-8.604-2.67-16.516-2.275-23.736.989-12.56 10.582-29.67 28.384-51.429 53.406-12.56 13.847-22.055 24.033-28.681 30.66-5.934 5.934-8.11 13.648-6.429 23.242zm4.45-148.847c0 7.22 2.671 13.55 7.913 18.791 5.242 5.242 11.571 7.912 18.791 7.912 7.22 0 13.55-2.67 18.792-7.912 5.241-5.241 7.912-11.571 7.912-18.79 0-7.22-2.67-13.55-7.912-18.792-5.242-5.242-11.572-7.912-18.792-7.912-7.22 0-13.55 2.67-18.791 7.912-5.242 5.242-7.912 11.571-7.912 18.791zm6.924 565.222c0 7.615 2.472 14.044 7.418 19.286 4.945 5.241 11.373 7.912 19.285 7.912 7.22 0 13.55-2.67 18.792-7.912 5.241-5.242 7.912-11.67 7.912-19.286 0-7.616-2.67-14.044-7.912-19.286-5.242-5.242-11.67-7.912-19.286-7.912-7.616 0-13.846 2.67-18.791 7.912-4.946 5.242-7.418 11.67-7.418 19.286zm53.901-207.693c.99 6.923 4.154 12.362 9.396 16.318 5.242 3.957 11.176 6.132 17.802 6.43 6.627.296 12.165-1.781 16.813-6.43 23.044-21.758 42.231-41.835 57.363-60.33l8.901-8.9v-.99c5.934-5.241 10.187-9.593 12.858-12.857 3.263-5.934 4.648-11.868 3.956-17.802 0-9.89-4.748-17.11-14.341-21.758-9.594-4.649-18.297-3.956-26.209 1.978-7.912 5.934-18.791 16.12-32.637 30.66v.988c-11.176 11.868-19.78 20.77-25.715 26.704l-7.912 7.912c-7.22 7.22-12.165 12.857-14.835 16.813-4.649 7.22-6.429 14.34-5.44 21.264zm4.45-147.858c0 7.22 2.671 13.55 7.913 18.791 5.242 5.242 11.571 7.912 18.791 7.912 7.22 0 13.55-2.67 18.791-7.912 5.242-5.241 7.913-11.571 7.913-18.79 0-7.22-2.67-13.55-7.913-18.792-5.241-5.242-11.571-7.912-18.79-7.912-7.22 0-13.55 2.67-18.792 7.912-5.242 5.242-7.912 11.571-7.912 18.791zm72.199 216.594c0 7.22 2.67 13.55 7.912 18.792 5.242 5.241 11.571 7.912 18.791 7.912 7.22 0 13.55-2.67 18.791-7.912 5.242-5.242 7.913-11.572 7.913-18.792 0-7.22-2.67-13.55-7.913-18.791-5.241-5.242-11.571-7.912-18.79-7.912-7.22 0-13.55 2.67-18.792 7.912-5.242 5.242-7.912 11.571-7.912 18.791zm0-294.232c0 7.616 2.67 14.044 7.912 19.286 5.242 5.242 11.571 7.912 18.791 7.912 7.912 0 14.34-2.67 19.286-7.912 4.945-5.242 7.418-11.67 7.418-19.286 0-7.615-2.473-13.846-7.418-18.79-4.945-4.946-11.176-7.418-18.791-7.418-7.616 0-14.044 2.472-19.286 7.417-5.242 4.945-7.912 11.176-7.912 18.791z"/></svg>