<svg xmlns="http://www.w3.org/2000/svg" width="1000" height="1000">
  <path d="M5 500.496C5 225.55 226.54 5 500.496 5c272.968 0 494.507 222.528 494.507 494.507 0 274.946-222.528 495.496-494.507 495.496C225.55 995.003 5 772.475 5 500.496zm181.979 289.781c32.637 11.869 56.373 0 73.187-21.758 21.758-28.681 48.461-37.583 87.033-35.604 24.725 2.967 52.418 2.967 81.1 2.967 21.757 0 39.56-9.89 56.373-25.715 45.495-44.505 90-90 135.495-135.495 52.418-50.44 106.813-100.88 157.253-154.286 71.21-78.132 30.66-200.77-70.22-223.517-53.407-9.89-94.945 9.89-132.528 46.483-86.044 83.078-168.132 172.089-256.154 252.2-38.572 33.626-57.363 71.208-50.44 120.659 12.857 75.165-18.791 136.484-81.1 174.066zm121.648-123.626c-23.736-74.177-7.912-112.748 52.418-161.21 13.846 100.88 10.88 107.803-52.418 161.21zm30.66 31.648c38.571-61.319 88.022-78.132 157.253-53.407-33.626 70.22-96.923 56.374-157.253 53.407zm60.33-123.627c-18.792-85.055-6.923-117.692 61.319-163.187 15.824 88.022 4.945 117.693-61.32 163.187zm32.637 31.649c33.627-73.187 97.913-68.242 163.188-62.308-43.517 66.264-86.045 83.077-163.188 62.308zm61.32-124.616c-14.836-72.198-2.968-137.473 68.241-172.089 17.802 82.089 6.923 115.715-68.242 172.089zm36.593 28.681c44.505-67.253 65.275-76.154 168.132-67.253-36.593 64.286-82.088 83.078-168.132 67.253zm65.275-129.56v-99.891c0-6.923 4.945-16.813 9.89-20.77 30.66-34.615 88.022-40.549 129.56-13.846 38.572 27.693 57.363 78.133 36.594 120.66-10.88 30.66-31.648 48.462-67.253 48.462h-72.198c-8.901 0-7.912-5.934-2.967-11.868 14.835-16.814 35.605-33.627 52.418-54.396 8.9-6.923 16.813-29.67 14.835-32.638-17.802-20.769-27.692 0-36.594 9.89-19.78 17.803-36.593 40.55-54.395 60.33-4.945 4.946-10.88.99-9.89-5.934z" style="fill:#000;fill-opacity:1;fill-rule:nonzero;stroke:none;"/>
</svg>
