<?xml version="1.0" encoding="utf-8"?>
<!-- Generator: Adobe Illustrator 26.0.1, SVG Export Plug-In . SVG Version: 6.00 Build 0)  -->
<svg version="1.1" id="Layer_1" xmlns="http://www.w3.org/2000/svg" xmlns:xlink="http://www.w3.org/1999/xlink" x="0px" y="0px"
	 viewBox="0 0 1000 1000" style="enable-background:new 0 0 1000 1000;" xml:space="preserve">
<path d="M500.5,5C223.6,5,5,229.5,5,499.5C5,773.5,226.5,995,499.5,995C776.4,995,995,770.5,995,499.5C995,223.6,770.5,5,500.5,5z
	 M768.5,547.1c-15.5,51.6-32.7,102.7-47.9,154.4c-8.2,27.9-26.2,39.2-54.1,40.3c-82.4,3.2-84.3,2.3-115.7-72.9
	c-16.9-40.5-33.9-81-54-129.1c-21.5,52.4-40.3,97-58.2,142.1c-22.4,56.3-82.5,81.2-138,53.9c-11.6-5.7-22.5-20-26.6-32.6
	c-45.2-141.9-89-284.3-132.9-426.6c-1.7-5.4-1.3-11.4-2.5-22.6c37.3,0,73.1-1,108.7,1c5.8,0.3,13.2,13.2,15.8,21.6
	c24.2,77.6,47.5,155.6,71.2,233.4c4.1,13.5,9.1,26.8,16.4,47.8c22.1-49.1,40.9-89.6,58.5-130.6c16.4-38,44.4-59.5,86-60.5
	c43.3-1,72.6,21.3,89.6,59.8c18.1,40.9,35.4,82.3,56.1,130.5c24.6-64.8,24.6-64.7,87.7-64.9C794.8,491.9,785.4,490.9,768.5,547.1z
	 M805.5,424.7c-2,5.9-13.2,11.8-20.4,12.1c-27.5,1.4-55,0.5-82.5,0.6c-16.3,0.1-20.8-7.4-16-22.4c15-47.6,29.1-95.4,45-142.7
	c2.6-7.6,12.1-17.8,18.9-18.2c35-1.8,70.2-0.9,110.9-0.9C841.9,313.8,824.5,369.5,805.5,424.7z"/>
</svg>
