<svg xmlns="http://www.w3.org/2000/svg" viewBox="0 0 1000 1000"><path d="M5 500.002v-.396.396c.099 89.505 22.55 172.682 67.253 249.726C116.462 824.2 175.803 883.54 250.276 927.75c77.143 44.803 160.418 67.253 249.726 67.253 89.308 0 172.583-22.45 249.726-67.253C824.2 883.541 883.54 824.2 927.75 749.728c44.803-77.143 67.253-160.418 67.253-249.726 0-89.308-22.45-172.583-67.253-249.726-44.209-74.473-103.55-133.814-178.022-178.023C672.585 27.45 589.31 5 500.002 5c-89.308 0-172.583 22.45-249.726 67.253-74.473 44.209-133.814 103.55-178.023 178.023C27.55 327.32 5.099 410.496 5 500.002zm106.814-1.484c.989-205.715 166.154-396.595 400.55-395.606 223.518 1.978 391.65 187.913 390.661 398.573.989 215.605-179.012 397.584-400.55 393.628-214.617-.99-393.629-180-390.661-396.595zm59.34 68.242c2.967 21.758 12.858 43.517 20.77 65.275 10.879 32.638 29.67 61.319 51.428 88.022 6.924 7.912 7.913 7.912 13.847 1.978 33.626-33.626 72.198-48.461 115.714-56.373 3.956-.99 5.934 0 8.901 1.978 12.858 10.879 26.704 23.736 39.561 34.615v2.967c-13.846.99-27.692 2.967-40.55 3.956-30.659 5.934-58.351 17.802-80.11 41.539-12.857 15.824-12.857 15.824 3.956 26.703.99.99 1.978 2.967 4.945 2.967 1.978.99 4.945.99 4.945.99 7.913-3.957 14.836-2.968 21.759-.99 55.385 15.824 111.758 33.627 166.154 49.45 4.945.99 7.912 5.935 12.857 8.902 1.978 1.978 5.934 4.945 6.923 4.945 18.792.99 22.748-2.967 21.759-21.758-4.945-32.638-21.759-57.363-45.495-77.143-25.714-21.759-53.407-42.528-77.143-63.297-33.626-25.715-61.319-57.363-81.1-92.968-20.768-32.637-31.648-71.209-25.714-110.77 7.913-61.318 40.55-105.824 97.913-135.494 45.495-22.747 95.934-32.638 149.341-36.594 23.736-3.956 50.44-4.945 75.165-7.912 32.638-5.934 61.319-19.78 80.11-49.45 10.88-13.847 9.89-13.847-3.956-24.726-5.934-2.967-10.879-6.923-17.802-2.967-3.956.99-8.901 0-13.846 0-56.374-17.802-111.759-33.626-168.133-50.44-4.945-2.967-6.923-4.945-11.868-7.912-2.967-.989-7.912-4.945-12.857-4.945-3.956 0-8.901 0-13.846.99-5.934 0-7.912 3.955-7.912 7.911 1.978 10.88 1.978 21.759 4.945 32.638 5.934 29.67 23.736 51.429 45.494 70.22 8.902 4.945 17.803 13.846 26.704 21.758-.99 0-.99.99-2.967.99-16.813 2.966-33.627 5.933-50.44 7.911-1.978.99-5.934 0-8.901-1.978-32.638-33.626-59.341-71.209-67.253-118.682-.99-6.923-4.945-7.912-9.89-6.923-10.88 3.956-20.77 6.923-30.66 11.869-72.198 31.648-128.572 81.099-167.143 150.33-40.55 73.187-52.418 151.319-35.605 232.418zm183.957 188.902c2.967-5.934 7.912-9.89 14.835-9.89 1.978 0 3.956 1.978 7.912 1.978 35.605 10.879 72.198 21.758 107.803 32.637h2.967c5.934 1.978 10.88 8.901 9.89 15.824-3.956 8.902-9.89 11.869-17.802 9.89-13.846-4.945-27.693-6.923-41.539-11.868-22.747-6.923-45.494-13.846-69.23-20.769-2.968-.989-5.935-.989-6.924-1.978-6.923-3.956-9.89-8.901-7.912-15.824zm31.649-195.825c15.824 34.615 40.55 64.286 70.22 89.011 24.725 21.759 53.406 43.517 78.132 66.264 31.648 29.67 55.384 65.275 64.286 109.78 1.978 6.924 6.923 4.946 10.879 2.968 62.308-18.791 113.736-51.429 156.264-100.88 55.385-66.264 84.066-141.429 86.044-232.418-1.978-13.846-2.967-32.637-6.923-53.407-5.934-42.527-22.747-85.055-45.494-121.648-7.913-13.847-18.792-24.726-26.704-36.594-1.978-4.945-5.934-6.923-9.89-2.967-26.703 31.648-62.308 49.45-99.89 57.363-39.561 7.912-78.133 12.857-115.715 17.802-37.583 3.956-71.21 14.835-103.847 31.648-63.297 36.594-88.022 107.803-57.362 173.078zm20.769-88.022c0-7.912 4.945-9.89 13.846-9.89 5.934.989 14.835 3.956 22.747 4.945 50.44 14.835 100.88 31.648 150.33 45.494 1.979.99 3.957.99 4.946.99 7.912 2.966 10.879 8.9 9.89 16.813-1.978 7.912-7.912 10.879-16.814 7.912-20.769-6.923-41.538-11.868-63.296-17.803-37.583-11.868-74.176-21.758-111.759-33.626-8.901-1.978-11.868-6.923-9.89-14.835zm18.791 58.352c-2.967-3.956 0-9.89.99-13.847 2.966-2.967 8.9-3.956 13.845-3.956 7.912.99 15.825 3.956 24.726 7.912 28.681 8.902 58.352 15.825 90 24.726 5.934 2.967 9.89 6.923 10.88 14.835 0 9.89-8.902 13.846-17.803 11.868-19.78-5.934-38.572-11.868-58.352-18.791-18.791-3.956-35.604-8.901-54.396-14.835-4.945-1.978-8.9-3.956-9.89-7.912zm23.736-87.034c-.989-9.89 2.967-14.835 13.847-14.835 1.978 0 6.923 1.978 8.9 1.978 34.616 10.88 68.243 19.78 103.847 31.649 11.868 1.978 16.814 8.9 13.846 17.802-1.978 6.923-9.89 10.879-20.769 5.934-35.604-10.88-74.176-19.78-107.802-30.66-6.923-1.978-11.869-4.945-11.869-11.868zm36.594 211.65c21.758-8.902 43.517-15.825 64.286-24.726 42.528-15.824 72.198-45.495 84.066-91.978 10.88-38.572 2.967-74.176-18.791-107.803-10.88-17.802-27.693-35.604-41.539-53.407-.989-2.967-2.967-3.956-4.945-7.912 10.88 0 20.77-1.978 29.67-3.956 6.924 0 14.836-.989 19.78-.989 5.935-.989 10.88 0 15.825 4.945 25.714 30.66 49.45 62.308 60.33 103.847 17.802 75.165-16.813 150.33-86.044 187.912-21.759 12.858-46.484 20.77-71.21 26.704-2.966.989-7.911.989-8.9 0-13.847-9.89-27.693-22.747-42.528-32.638zm30.66-445.057c-.99-8.901 4.944-15.824 16.813-15.824 1.978 0 4.945 1.978 9.89 1.978 34.615 10.879 66.264 19.78 99.89 30.66 1.978 0 4.945 0 6.923 1.977 8.901 2.967 12.858 9.89 8.901 16.813-.989 6.924-8.9 10.88-16.813 6.924-19.78-3.957-41.538-9.89-62.308-15.825-15.824-4.945-32.637-11.868-50.44-15.824-5.933-.989-9.89-4.945-12.857-10.88z"/></svg>