<svg xmlns="http://www.w3.org/2000/svg" viewBox="0 0 1000 1000"><path d="M501.14 995C772.593 995 995 772.592 995 498.86 995 226.267 772.592 5 501.14 5 227.409 5 5 226.267 5 498.86 5 772.592 227.408 995 501.14 995zM12.985 498.86c0-268.03 217.846-487.017 488.157-487.017 268.03 0 485.876 218.987 485.876 487.017 0 270.31-217.846 488.157-485.876 488.157-270.311 0-488.157-217.846-488.157-488.157zM182.926 663.1c-1.14 86.681 114.056 148.271 191.613 140.287 96.947-7.983 165.38-79.838 164.24-172.223 0-13.687-1.14-35.357 4.562-37.638 49.044-29.655 59.309-84.401 88.963-126.602 11.406-18.249 37.639-34.216 58.169-37.638 47.903-6.843 86.682 20.53 103.79 68.433 14.827 41.06 12.546 83.26-21.67 115.196-30.795 30.795-79.84 26.233-124.32-2.281-6.844-4.562-13.688-10.265-26.234-20.53 3.422 61.59 33.076 95.806 86.682 104.93 42.2 5.704 98.088-33.075 112.915-71.854 14.827-38.779 26.233-88.963 0-156.256-23.951-58.168-54.746-94.666-117.477-102.65-62.73-6.843-103.79 28.514-134.585 79.84-11.406 18.248-17.108 42.2-25.092 63.87-4.562 13.687-9.125 29.654-15.968 52.466-22.811-21.671-37.638-36.498-53.606-51.325 54.747-83.26 47.903-153.975-12.546-199.597-68.433-49.044-160.818-36.498-217.846 29.654 12.546 22.811 26.233 44.482 35.357 57.028 45.622-15.968 79.84-36.498 119.758-39.92 39.92-4.562 72.996 38.78 70.715 75.277-2.281 44.482-37.638 45.622-69.574 49.044-5.703 0-11.406 1.14-19.39 2.28 5.703 25.093 10.266 47.904 13.687 67.294 71.855 12.546 85.542 21.67 92.385 57.027 4.562 41.06-17.108 86.682-65.011 102.65-35.358 11.406-79.84 14.827-116.337 7.984-43.34-10.265-82.12-35.357-123.18-54.747zm260.047-427.708c37.638 93.525 184.77 128.882 274.873 58.168-12.546-18.249-23.952-36.498-37.638-59.309-76.417 52.466-151.694 60.45-237.235 1.14zm67.292-34.217c18.249 15.968 31.936 29.655 47.903 43.341 17.109-19.39 29.655-31.935 43.341-47.903-15.967-15.968-26.232-29.654-45.622-49.044-15.967 19.39-28.514 33.076-45.622 53.606z"/></svg>