<svg xmlns="http://www.w3.org/2000/svg" viewBox="0 0 1000 1000"><path d="M811.308 655.043c-96.766-160.428-196.08-304.305-306.851-457.094-106.953 152.79-204.992 296.666-304.305 458.368 80.214 0 66.208-1.274 119.684-1.274 77.668 0 77.668 8.913 77.668 64.936 3.82 70.028 7.64 148.97 7.64 216.451 0 36.924 8.912 58.57-28.012 58.57-48.383-19.1-211.358-129.872-273.747-164.25-43.29-35.65-64.935-47.11-64.935-98.039V350.738c0-109.499 29.284-119.685 85.307-152.789 98.04-54.75 202.446-120.958 303.032-175.708 48.383-20.371 71.301-25.464 120.958 0 194.806 110.773 165.522 76.395 371.787 208.812 20.372 12.733 42.017 36.924 42.017 81.488v449.455c0 33.104-21.645 57.296-42.017 68.755-85.307 49.656-175.708 98.04-248.282 142.603-14.006 7.64-26.739 21.645-48.384 21.645-20.372 0-19.098-36.924-19.098-58.569V711.066c0-56.023 11.459-56.023 67.482-56.023 62.388 0 68.755 1.274 140.056 0z"/></svg>
