<svg xmlns="http://www.w3.org/2000/svg" width="1000" height="1000">
  <path d="M5 855.927c10.607-34.178 16.5-62.464 27.107-97.82 45.964 5.892 63.642-27.108 74.25-67.18 10.607-51.856 28.285-102.535 41.25-148.499H21.5c4.714-29.464 10.607-51.857 16.5-78.964h123.75c49.5-161.464 50.678-195.642 93.106-264 50.679-78.963 153.214-78.963 205.071 0 28.286 58.93 50.678 121.393 68.357 183.857 29.464 102.536 51.857 198 74.25 300.535 11.785 51.857 42.428 88.393 62.464 47.143 16.5-47.143 28.285-91.928 38.893-132 29.464-102.535 45.964-199.178 74.25-295.82 30.642-87.214 80.142-160.285 160.285-160.285h56.57c-11.785 34.178-17.678 63.642-22.392 91.928 0 5.893-11.786 11.786-17.678 11.786-22.393 0-38.893 16.5-50.679 38.892-17.678 57.75-34.178 120.214-51.857 177.964h124.928c-4.714 22.393-4.714 49.5-16.5 71.893 0 7.071-10.607 7.071-17.678 7.071h-73.071c-29.465 0-40.072 10.607-44.786 38.893-12.964 45.964-22.393 97.821-40.071 142.607-12.964 29.464-22.393 57.75-40.072 80.142-51.857 74.25-155.57 74.25-200.356 0-28.286-45.964-50.679-102.535-68.357-160.285-28.286-113.143-56.571-227.464-83.678-335.892-8.25-17.678-12.965-34.178-17.679-44.786-12.964-16.5-22.393-16.5-35.357 0-10.607 22.393-22.393 44.786-28.286 75.429-28.285 113.142-56.57 227.463-84.856 340.606-5.893 29.464-16.5 56.571-29.465 78.964C152.321 848.856 112.25 866.534 5 855.927z" style="fill:#000;fill-opacity:1;fill-rule:nonzero;stroke:none;"/>
</svg>
