<svg xmlns="http://www.w3.org/2000/svg" viewBox="0 0 1000 1000"><path d="M5.597 501.186C5.597 230.539 219.266 5 498.222 5c282.517 0 496.185 225.539 496.185 498.56 0 270.646-219.603 491.437-492.624 491.437-276.582 0-496.186-219.604-496.186-493.811zm52.23 0h112.77c11.87 0 14.244-5.936 14.244-15.432l3.561-55.791c-18.992-9.497-99.711-27.302-123.452-26.115-5.936 29.676-13.058 60.54-7.123 97.338zm24.928 153.129c13.058 32.05 22.554 64.1 46.295 87.841 35.612-22.554 71.223-45.108 104.46-67.662-13.057-22.553-24.928-42.733-33.237-65.287-37.986 11.87-73.597 26.115-109.208 39.172-2.374 1.187-5.936 2.375-8.31 5.936zm43.921-396.474c35.611 22.554 70.036 47.482 106.834 67.662 16.619-18.993 28.49-36.799 41.547-54.605-29.676-30.863-56.978-58.165-87.842-89.028-22.553 21.367-41.546 46.295-60.539 75.971zM227.575 857.3c28.49 17.805 55.791 34.424 86.654 52.23 21.367-39.173 36.799-75.971 54.605-116.33-20.18-11.871-42.734-22.555-61.727-36.8-26.115 34.425-51.043 66.475-79.532 100.9zm86.654-762.084c21.367 36.798 33.238 74.783 56.979 110.395 22.554-8.31 43.92-16.619 66.474-22.554-8.309-42.734-16.618-81.906-26.115-124.64-35.611 10.683-67.661 17.806-97.338 36.799zm53.418 243.344c0 22.554 0 47.482 1.187 72.41 0 9.496 4.748 15.432 15.431 17.806 16.619 0 34.425 0 53.417-2.374 8.31 0 14.245-4.749 14.245-15.432v-13.057h64.1c18.993 1.187 37.986 7.122 52.23 18.992 9.497 7.123 17.806 11.87 29.677 11.87h52.23c4.748 0 11.87-4.747 18.992-4.747-9.496-46.295-68.848-89.029-116.33-98.525-55.791-11.87-111.583-2.374-167.374-4.749-11.87 0-17.805 4.749-17.805 17.806zm1.187 183.992c2.374 16.62 3.56 17.806 22.554 18.993h11.87c8.31 0 14.245 0 20.18-1.187 24.928-2.374 32.05-16.618 24.928-39.172-3.561-4.749-3.561-13.058-2.374-17.806 3.56-21.367-3.561-33.237-24.928-35.612-9.497-1.187-21.367-1.187-33.238-1.187-11.87 0-18.992 5.936-18.992 17.806zm2.374 55.792c-2.374 27.302-3.561 55.79 1.187 84.28 5.935 1.187 8.31 2.374 13.057 2.374 43.921 0 87.842 1.187 130.575-1.187 59.353-4.748 132.95-36.798 149.568-96.15h-45.107c-23.741 0-51.043-2.375-72.41 15.43-2.374 2.375-9.497 3.562-15.432 3.562-24.928 1.187-53.417 0-79.532 0-4.748-8.31-4.748-18.993-16.619-18.993h-51.043c-7.122 1.187-14.244 7.123-14.244 10.684zm22.554-98.525c0 3.56 1.187 5.935 3.56 5.935h20.18c2.375 0 4.749-2.374 4.749-5.935v-4.748c0-2.375-2.374-4.749-4.748-4.749h-20.18c-2.374 0-3.561 2.374-3.561 4.749zm1.187 34.424c0 1.187 2.374 4.748 4.748 4.748h20.18c2.374 0 4.748-3.56 4.748-4.748v-5.935c0-2.374-2.374-4.748-4.748-4.748h-20.18c-2.374 0-4.748 2.374-4.748 4.748zm68.848 413.092c0 5.936 2.374 11.871 2.374 17.806 35.612 5.935 65.288 5.935 99.712-3.56-4.748-34.425-7.122-66.476-13.057-96.152-3.561-26.115-4.748-26.115-30.863-23.74h-28.49c-16.618 1.186-18.992 1.186-20.18 18.992-2.373 29.676-5.934 56.978-9.496 86.654zm21.367-461.76c0 17.805 0 36.798 1.187 54.603 0 5.936 3.561 11.87 4.748 21.367 18.993 0 37.986 0 56.979-1.187 9.496 0 17.805-14.244-1.187-18.993-7.123-2.374-14.245-1.187-18.993-1.187-4.748 0-11.87-1.187-16.619-4.748v-4.748l11.87-3.561h18.993c5.936 0 11.87-3.561 10.684-11.87 0-10.684-4.748-11.871-13.058-11.871h-17.805c-5.936 0-8.31-3.561-13.058-5.935 4.748-3.561 7.122-5.936 13.058-7.123h23.74c5.936 0 13.058-2.374 14.245-10.683 0-10.683-8.31-13.058-14.244-13.058h-40.36c-15.432 0-20.18 2.375-20.18 18.993zm62.914-287.266c22.554 8.31 46.295 14.244 68.848 21.367 16.62-37.986 33.238-77.158 47.482-115.144-21.367-14.244-75.97-29.676-99.712-24.928zm51.043 289.64c3.56 3.56 10.683 3.56 16.618 4.747 1.187 7.123 1.187 13.058 1.187 18.993 1.187 13.058 0 27.302 1.187 37.986 2.375 18.992 23.741 13.057 23.741-16.619v-39.172c10.684-2.375 15.432-2.375 20.18-5.936 3.561-1.187 7.123-5.935 7.123-8.309 0-4.748-4.749-10.683-8.31-11.87h-60.54c-3.56 0-16.618 13.057-1.186 20.18zm53.417 318.128c21.367 36.798 36.798 74.784 60.54 106.834 28.488-11.87 62.913-35.611 80.718-58.165l-81.906-92.59c-22.554 15.432-41.546 30.863-59.352 43.92zm59.352-530.61c17.806 18.993 32.05 36.798 49.856 54.604 34.425-22.554 66.475-48.669 103.273-72.41-23.74-30.863-42.733-53.417-71.223-75.97-27.302 33.236-55.79 61.726-81.906 93.776zm68.849 402.409c36.798 18.993 72.41 39.172 110.395 61.726 17.806-32.05 32.05-59.352 37.986-96.15-39.173-9.497-79.532-22.554-118.705-35.612-10.683 26.115-18.993 46.295-29.676 70.036zm29.676-249.28c3.561 24.928 7.122 46.295 11.87 70.036 40.36 0 80.72-1.187 122.266-5.936 2.374-36.798-3.56-66.474-16.618-99.711z"/></svg>