<svg xmlns="http://www.w3.org/2000/svg" width="1000" height="1000">
  <path d="M426.367 168.558c0-63.833-52.786-116.618-121.529-111.708-82.247 7.366-130.121 94.522-88.384 166.949 4.91 8.593 6.137 15.958 4.91 24.55-2.455 1.228-2.455 2.456-2.455 4.911-12.276 54.013-38.055 98.205-83.474 131.35-2.456 3.682-6.138 4.91-11.049 4.91-30.689-1.228-57.695 7.365-81.019 25.778-35.599 31.917-47.874 81.02-30.689 126.439 17.186 41.737 58.923 71.199 106.798 71.199 13.503-1.228 22.096 2.455 30.69 11.048v1.227c40.509 35.6 65.06 79.792 72.425 132.577 0 6.138-1.227 11.048-4.91 14.73-13.503 24.552-19.64 50.33-13.503 81.02 11.048 54.012 61.378 96.977 122.756 89.612 61.378-7.366 104.343-60.15 99.433-121.529-3.683-54.013-47.875-96.977-103.116-103.115-9.82 0-15.958-2.455-23.323-7.365-50.33-36.827-77.337-87.157-84.702-147.308 0-3.683 0-7.365 1.228-8.593 18.413-38.054 18.413-74.881-1.228-110.48v-19.641c8.593-55.24 36.827-103.115 83.474-137.487 4.91-3.683 11.048-7.366 19.641-6.138 2.455 0 6.138 0 8.593-1.228 56.468-6.137 99.433-55.24 99.433-111.708zm-38.055 342.49c6.138 61.378 57.696 105.57 120.301 100.66 3.683 0 7.366 1.228 11.048 3.683 46.648 36.827 72.426 83.474 79.792 141.17 0 6.137 0 8.592-1.228 12.275-12.275 19.64-19.64 41.737-19.64 63.833 1.227 61.378 51.557 110.48 112.935 111.708 7.365-1.227 15.958-1.227 24.551-3.682 77.337-17.186 112.936-104.343 71.199-169.404-3.683-6.138-4.91-11.048-3.683-17.186 2.455-9.82 3.683-19.64 6.138-29.461 15.958-44.193 40.51-79.792 79.791-108.026 3.683-3.682 8.593-3.682 12.276-3.682 7.365 0 14.73-1.228 22.096-2.456 60.15-12.275 99.433-68.743 89.612-127.666-8.593-61.378-65.06-101.888-123.984-94.522-82.246 8.593-125.21 99.432-83.474 168.176 2.455 7.365 3.683 9.82 2.455 15.958-3.682 31.917-14.73 58.923-31.916 85.93-12.276 22.095-30.69 41.736-51.558 56.467-7.365 6.138-9.82 6.138-19.64 0v-1.227c-52.786-34.372-81.02-83.475-90.84-142.397 0-6.138 0-11.049 3.682-15.959 7.366-15.958 14.731-34.372 14.731-55.24 1.228-67.516-57.695-119.074-126.439-111.708-60.15 7.365-104.343 61.378-98.205 122.756zm191.5-342.49c-1.228 62.606 50.33 112.936 114.163 112.936 60.15 0 110.48-51.558 110.48-111.708 0-62.606-50.33-114.163-110.48-114.163-63.833 0-114.163 50.33-114.163 112.935z" style="fill:#000;fill-opacity:1;fill-rule:nonzero;stroke:none;"/>
</svg>
