<svg xmlns="http://www.w3.org/2000/svg" viewBox="0 0 1000 1000"><path d="M500,5C226.62,5,5,226.62,5,500S226.62,995,500,995,995,773.38,995,500,773.38,5,500,5ZM346.94,141H416.2c-18.76,10.82-80.8,88-96.67,145.73H201.21ZM177,351.08h69.69l58.87,224.23h1.73l57.57-224.23H438V657.55l-50.59-.04.87-235.48h-1.3L325.47,657.55H284.78L224.62,422.07h-1.3l.86,235.48H177ZM348.39,861,201.21,715.27H315.92C334,758.55,366.57,818.29,413.32,861Zm136.35,0H452.27c-22.6-15.87-76.04-67.24-108.94-145.73H484.74Zm2.16-574.27h-140C356.8,256.67,392,185.44,453.72,141H486.9ZM651.39,141,798.53,286.73H683.86c-18-43.28-50.65-103-97.4-145.73ZM515,141h32.5c22.61,15.87,76.04,67.24,108.9,145.73H515ZM500,351.08H637.18V397H549.74v81.38h80.94V520.8H549.74v90.47h91.77v46.31L500,657.51ZM546.06,861H512.87V715.27H652.83C643,745.33,607.82,816.56,546.06,861Zm106.77,0H583.58c18.75-10.82,80.8-88,96.67-145.73H798.57Zm74.6-428.12q-.01,19.47,11.69,30.3,11.681,10.38,30.73,19.91,11.26,5.651,22.94,13A103.854,103.854,0,0,1,814,513.84a85.582,85.582,0,0,1,15.58,24.73q6.06,14.269,6.06,33.76-.01,22.51-7.36,39.82a86.426,86.426,0,0,1-19,29.44,77.428,77.428,0,0,1-27.7,17.74,94.391,94.391,0,0,1-33.77,6.06,111.5,111.5,0,0,1-47.18-10Q679,645.43,666,630.28l28.1-38.04a72.469,72.469,0,0,0,23.81,19,65.925,65.925,0,0,0,29,6.92q16.451.011,27.27-11.25T785,575.31q0-19.89-13-31.6t-32.89-21.64a211.915,211.915,0,0,1-23.81-13.42,100.785,100.785,0,0,1-19.48-17.32,91.1,91.1,0,0,1-13.42-23.81q-4.76-13.89-4.76-32.89-.01-23.809,7.36-40.69,7.819-17.321,19.94-28.61a79.428,79.428,0,0,1,28.14-16.45,92.449,92.449,0,0,1,31.6-5.63q23.37,0,41.55,7.79a78,78,0,0,1,31.17,22.08l-28.57,37.23Q791.94,390,766.41,390a40.411,40.411,0,0,0-14.29,2.64A32.8,32.8,0,0,0,739.57,400a38,38,0,0,0-9.14,13.4A56.324,56.324,0,0,0,727.43,432.88Z"/></svg>