<svg xmlns="http://www.w3.org/2000/svg" viewBox="0 0 1000 1000"><path d="M990.234 924.188c-1.362-1.361-2.724-5.447-5.447-6.808-20.427-21.789-43.576-44.939-69.45-69.45-25.873-25.874-51.747-50.385-74.897-76.259-25.873-23.15-50.385-50.385-72.173-72.173-25.873-24.512-50.385-51.747-74.897-76.259-23.15-21.788-46.3-46.3-68.088-69.45-4.085-2.723-8.17-2.723-12.256 0-20.426 21.789-39.49 40.853-58.555 59.918-4.086 4.085-4.086 9.532 0 10.894 21.788 21.788 44.938 44.938 68.088 69.45 34.044 35.406 70.811 69.45 104.855 104.855 27.235 25.874 54.47 54.47 80.344 77.62 35.406 38.13 72.173 72.174 106.217 111.665 5.447 5.447 13.618 5.447 16.341 0 10.895-13.618 23.15-21.788 34.044-35.406 9.533-8.17 16.342-17.703 25.874-28.597zM7.043 75.812c1.362 1.361 1.362 1.361 2.723 4.085 29.96 29.959 61.28 61.279 93.962 91.238 29.959 32.682 64.003 64.003 95.323 98.047 23.15 24.511 51.747 53.108 76.259 78.982 32.682 32.682 65.364 64.002 95.323 95.323 4.085 4.085 8.17 5.447 10.894 0 20.426-20.427 40.853-39.491 61.28-59.918 5.446-2.723 4.084-6.808 0-9.532-16.342-17.703-32.683-31.32-47.662-47.662-17.703-17.702-38.13-35.405-55.833-55.832-28.597-25.873-53.108-54.47-78.982-80.344-32.682-28.597-64.002-61.279-92.6-92.6-24.511-21.787-42.214-40.852-64.002-62.64C94.195 25.426 86.025 15.894 76.493 5 50.619 29.512 27.469 52.662 7.043 75.812zm5.447 855.185c8.17 6.809 16.341 16.341 23.15 23.15L76.493 995l27.235-27.235 66.726-66.727c24.512-24.511 46.3-46.3 69.45-70.811l54.47-54.47c12.256-12.256 25.874-25.874 39.491-38.13 13.618-16.341 28.597-28.597 43.577-43.576 19.064-17.703 36.767-38.13 54.47-55.832 16.341-14.98 17.703-14.98 1.362-29.96v-2.723l-54.47-54.47c-9.533 10.894-19.065 23.15-29.96 31.32-24.511 25.874-47.66 47.662-72.173 72.174-35.405 36.767-72.173 73.535-106.217 107.579-28.597 27.235-54.47 53.109-80.344 78.982-23.15 25.873-51.747 54.47-77.62 81.706-4.085 1.361-4.085 5.447 0 8.17zm420.784-426.23c20.426 19.064 39.49 39.49 61.28 58.555 1.36 5.447 4.084 6.809 9.531 1.362 17.703-16.342 36.768-35.406 55.833-57.194 1.361 0 2.723-4.086 8.17-5.447-1.362-1.362-1.362-5.447-5.447-5.447-20.426-19.065-36.767-38.13-55.832-58.556-6.809-4.085-10.894-4.085-16.341 0-19.065 20.426-38.13 39.49-57.194 58.556-1.362 1.361-1.362 6.808 0 8.17zm117.111-126.645c23.15 23.15 42.215 44.938 62.641 65.365 4.086 5.447 8.17 5.447 14.98 0 25.873-28.597 54.47-54.47 84.429-84.43a2882.053 2882.053 0 0 1 91.238-91.237c16.34-16.341 32.682-34.044 44.938-50.385 17.703-14.98 34.044-29.96 50.385-46.3 10.894-13.618 28.597-27.235 42.215-40.853 14.979-17.703 34.044-36.768 51.746-53.109-21.788-20.426-42.214-42.214-62.64-61.279-2.724-8.17-8.171-8.17-12.256 0-40.853 40.853-83.068 81.706-125.282 123.92-21.789 21.788-43.577 44.938-65.365 66.727-25.873 25.873-51.747 50.385-80.344 78.982-17.703 17.703-36.767 36.767-57.194 55.832-13.617 13.617-28.597 27.235-39.49 36.767z"/></svg>