<svg xmlns="http://www.w3.org/2000/svg" width="1000" height="1000">
  <path d="M5 500.002v.395-.395c.099-89.506 22.55-172.682 67.253-249.726 44.209-74.473 103.55-133.814 178.023-178.023C327.419 27.45 410.694 5 500.002 5c89.308 0 172.583 22.45 249.726 67.253C824.2 116.462 883.54 175.803 927.75 250.276c44.803 77.143 67.253 160.418 67.253 249.726 0 89.308-22.45 172.583-67.253 249.726C883.541 824.2 824.2 883.54 749.728 927.75c-77.143 44.803-160.418 67.253-249.726 67.253-89.308 0-172.583-22.45-249.726-67.253-74.473-44.209-133.814-103.55-178.023-178.022C27.55 672.684 5.099 589.508 5 500.002zm130.55 26.209c5.934 90 43.517 167.143 106.813 232.418 3.956-12.857 5.935-21.758 9.89-31.649 3.957-6.923 1.979-12.857-3.955-18.79-71.21-88.023-91.979-186.925-64.286-296.705C195.88 365 218.627 323.463 250.276 285.88c1.978-1.978 3.956-6.923 3.956-8.901-3.956-12.857-7.913-24.725-11.869-37.583-77.143 81.1-113.736 174.067-106.813 286.815zm97.912 7.912c4.945 50.44 25.715 95.934 58.352 134.506 1.978 1.978 6.923 3.956 8.901 3.956 7.912-1.978 12.857-4.945 18.792-6.923-86.045-110.77-86.045-221.54 0-334.287-1.978 0-5.935-1.978-8.902-1.978-15.824-5.934-15.824-5.934-24.725 7.912-45.495 57.363-62.308 123.627-52.418 196.814zm22.748-286.815c4.945 36.594 33.626 67.253 71.209 74.177 6.923 1.978 8.9 3.956 8.9 11.868v330.33c0 6.924-1.977 10.88-8.9 10.88-5.934 1.978-13.847 3.956-18.792 7.912-45.494 18.791-66.264 71.209-47.472 117.692 18.791 43.517 69.23 66.264 116.703 49.451 44.506-15.824 69.231-66.264 54.396-112.747-1.978-7.913 0-11.869 5.934-14.836 86.045-49.45 172.089-99.89 258.133-148.352 11.868-7.912 22.747-15.824 35.605-20.77 37.582 46.485 91.978 44.507 126.593 20.77 37.583-26.703 48.462-77.143 27.693-116.703-20.77-39.561-67.253-58.352-108.792-45.495-22.747 7.912-39.56 22.747-50.44 43.516-14.835 26.704-14.835 52.418-3.956 81.1-100.88 58.351-202.748 115.714-303.627 174.066-16.813-20.77-37.583-31.648-64.286-37.582v-341.21c0-7.912 3.956-7.912 9.89-9.89 37.583-8.902 61.32-31.649 69.231-69.231 6.923-37.583-3.956-69.231-33.626-91.979-30.66-22.747-64.286-23.736-97.913-6.923-33.626 18.791-52.417 56.374-46.483 93.956zm16.813-13.846c0-39.56 31.648-71.209 71.209-73.187 39.56 0 71.209 30.66 73.187 69.231 3.956 35.605-26.703 72.198-62.308 73.187v-42.527c0-1.978 3.956-3.956 5.934-5.934 8.901-6.924 12.857-18.792 8.901-29.67-2.967-11.869-12.857-16.814-23.736-16.814-11.868 0-20.77 4.945-24.725 16.813-3.956 10.88 0 22.747 8.9 29.67 1.979 3.957 5.935 7.913 5.935 10.88v36.593s0 .99-1.978.99c-31.649 0-61.32-33.627-61.32-69.232zm2.967 514.288c5.934-27.693 32.637-52.418 60.33-54.396v43.517c0 1.978-3.956 3.956-5.934 4.945-10.88 9.89-14.836 20.769-8.901 34.615 3.956 8.901 14.835 16.813 27.692 14.835 13.846-1.978 20.77-11.868 22.747-26.703 0-1.978 1.978-5.934 3.956-5.934 10.88-6.923 24.726-14.835 35.605-19.78 12.857 18.79 7.912 54.395-12.857 75.165-22.748 23.736-58.352 29.67-87.034 14.835-29.67-14.835-42.527-49.45-35.604-81.1zm79.121-12.857v-41.54c20.77 1.979 35.605 10.88 47.473 26.704-13.846 6.923-24.726 14.836-35.605 21.759-5.934 1.978-11.868 0-11.868-6.923zm16.813-236.375c0 69.231 56.374 127.583 127.583 127.583 69.231 0 125.605-56.374 125.605-127.583 0-69.23-56.374-125.605-125.605-125.605-71.209 0-127.583 56.374-127.583 125.605zm31.649 352.09c85.055 26.703 204.726 17.801 306.594-54.397 71.21-50.44 117.693-119.67 142.418-203.737-10.879 1.978-20.769 4.946-31.648 6.924-7.912 0-11.868 3.956-13.846 11.868-37.583 96.923-106.814 165.165-205.715 198.792-52.418 18.79-106.814 20.769-161.21 10.879-3.956 0-7.912 0-9.89 1.978-8.901 7.912-16.813 18.791-26.703 27.692zm1.978-703.19c5.934 7.912 15.824 14.835 20.77 24.725 3.955 4.945 9.89 4.945 14.834 4.945 81.1-14.835 156.265-1.978 225.496 41.54 65.275 39.56 112.747 95.933 140.44 167.142 0 3.957 3.956 8.902 5.934 10.88 12.857 3.956 26.703 5.934 37.582 7.912C807.091 216.649 597.42 89.066 405.551 147.418zm39.56 589.453c0 4.945 1.978 10.879 1.978 14.835-1.978 8.9 3.956 10.879 12.858 12.857 45.494 5.934 90 1.978 135.495-14.835 73.187-29.67 125.604-81.1 154.286-155.275.989-1.979.989-7.913 0-9.89-5.934-5.935-11.868-8.902-15.824-12.858C679.508 701.266 584.562 757.64 445.11 736.871zm0-476.705c139.451-18.792 234.397 37.582 288.793 167.143 3.956-3.956 7.912-7.912 11.868-9.89 4.945-3.956 6.923-6.923 3.956-14.835-17.802-46.484-45.495-84.066-85.055-116.704-61.32-46.484-131.54-63.297-209.671-52.418-1.979 0-5.935 3.956-7.913 5.934-1.978 5.934-1.978 12.858-1.978 20.77zM739.838 526.21c-12.858-22.748-7.912-67.253 29.67-90 34.616-20.77 77.143-8.902 97.912 24.725 20.77 33.626 10.88 78.132-22.747 98.901-31.648 20.77-76.154 11.868-94.945-18.791 12.857-4.945 23.736-12.857 37.582-19.78.99 0 4.945 0 6.923.988 10.88 3.957 24.726 1.978 31.649-4.945 7.912-9.89 7.912-22.747 1.978-32.637-4.945-8.901-16.813-14.835-25.714-12.857-13.847 3.956-20.77 11.868-22.748 24.725 0 3.956-1.978 6.923-5.934 8.901-10.879 7.912-22.747 13.846-33.626 20.77z" style="fill:#000;fill-opacity:1;fill-rule:nonzero;stroke:none;"/>
</svg>
