<svg xmlns="http://www.w3.org/2000/svg" viewBox="0 0 1000 1000"><path d="M469.868 27.587c-47.207 4.842-70.205 24.208-104.097 47.207-33.892 22.998-56.89 22.998-101.676 22.998-121.043 0-142.83 70.205-170.67 203.352-13.316 95.624-35.103 137.989-58.101 194.879-53.26 141.62-42.365 251.769 81.098 318.343 122.254 62.942 169.46 104.096 215.457 125.884 90.782 45.996 182.774 45.996 261.452-21.788 91.993-81.098 171.881-170.67 296.555-206.983 96.835-27.84 125.885-147.672 90.782-226.35-22.998-58.1-22.998-113.78-12.104-171.881 22.998-79.888-21.788-135.568-112.57-159.777C753.108 132.894 650.221 119.58 559.44 51.795c-24.208-16.946-56.89-24.208-89.571-24.208zm-251.77 479.33c0-158.567 113.78-273.557 273.557-273.557 158.566 0 238.455 114.99 250.559 273.557 0 147.672-137.989 262.663-262.663 250.558-162.197-13.314-272.346-113.78-261.453-250.558z"/></svg>