<svg xmlns="http://www.w3.org/2000/svg" width="1000" height="1000">
  <path d="M500.496 995.003c89.011 0 172.089-22.747 249.232-67.253 74.176-44.505 133.517-103.846 178.022-178.022 44.506-77.143 67.253-160.22 67.253-250.22 0-89.012-22.747-172.09-67.253-249.232-44.505-74.177-103.846-133.517-178.022-178.023C672.585 27.747 589.508 5 500.496 5c-90 0-173.077 22.747-250.22 67.253-74.177 44.506-133.517 103.846-178.023 178.023C27.945 327.122 5.198 409.902 5 499.507v.99c.198 89.604 22.945 172.384 67.253 249.23 44.506 74.177 103.846 133.518 178.023 178.023 77.143 44.506 160.22 67.253 250.22 67.253zM154.341 381.814l58.352-26.703c0-1.978 1.978 0 3.956 0l21.758 49.45c.99.99 3.956.99 3.956-1.977 0-47.473 26.704-86.045 71.21-107.803C461.924 208.737 528.188 508.408 585.55 598.41c66.264 114.725 194.836 7.912 126.594-104.836.99-3.956-91.978-188.902-87.033-191.869l58.352-27.692c6.923-1.978 160.22 340.22 163.187 342.199 0 1.978 0 1.978-1.978 1.978l-57.362 27.69c-6.923 2.967-23.736-52.418-30.66-51.428-1.977 48.461-16.812 86.044-70.22 110.77-147.362 82.087-215.604-214.617-270-300.661-29.67-51.429-60.33-64.286-100.88-44.506-122.637 49.45 34.616 256.155 59.341 335.276 0 1.978 0 1.978-.989 2.967L316.54 725.99h-.99c-1.978-1.978-167.143-340.22-161.209-344.177z" style="fill:#000;fill-opacity:1;fill-rule:nonzero;stroke:none;"/>
</svg>
