<svg xmlns="http://www.w3.org/2000/svg" width="1000" height="1000">
  <path d="M5 500.496c0 271.98 220.55 494.507 495.496 494.507 271.98 0 494.507-220.55 494.507-495.496C995.003 227.528 773.464 5 500.496 5 226.54 5 5 225.55 5 500.496zm146.374-67.253c2.967-6.923 9.89-11.868 18.791-16.813 104.836-42.528 214.616-82.088 319.452-128.572 78.132-34.615 153.297-71.209 226.484-108.792 5.934-3.956 11.868-6.923 21.759-8.9 9.89-4.946 18.79 1.977 18.79 13.846-2.966 6.923-2.966 9.89-4.944 16.813-16.813 43.516-35.605 87.033-51.429 129.56-6.923 12.858-11.868 22.748-24.725 24.726-77.143 31.649-155.276 61.319-231.43 90-3.956 3.956-5.934 3.956-9.89 3.956-8.9 4.945-14.835 11.869-8.9 21.759 2.966 11.868 12.856 11.868 21.757 7.912 20.77-5.934 39.561-14.835 62.308-19.78 46.484-18.792 89.012-35.605 133.517-50.44 7.912-2.967 17.802-5.934 23.737 0 2.967 2.967 2.967 14.835 2.967 21.758-12.858 42.528-21.759 84.066-33.627 123.627-3.956 11.868-9.89 21.758-24.725 24.725-12.857 5.934-22.748 11.868-34.616 15.825-12.857 1.978-18.791 11.868-14.835 24.725.99 14.835 12.857 210.66 12.857 194.836 0 9.89 1.978 21.758-10.879 21.758-5.934 0-14.835-5.934-20.77-11.868-28.68-33.627-56.373-68.242-85.054-101.869-85.056-102.857-182.968-195.824-293.738-270-5.934-2.968-12.857-16.814-12.857-18.792z" style="fill:#000;fill-opacity:1;fill-rule:nonzero;stroke:none;"/>
</svg>
