<svg xmlns="http://www.w3.org/2000/svg" viewBox="0 0 1000 1000"><path d="M20.286 645.712C82.303 541.65 145.37 438.64 203.182 331.426c13.664-25.226 26.278-51.505 45.198-77.783 47.3-77.782 139.799-81.987 187.1-3.153 16.817 24.176 58.862 95.652 60.964 103.01 5.256-7.358 33.636-57.812 59.914-103.01 44.147-78.834 148.208-78.834 197.611 0 73.578 129.288 151.361 260.678 224.94 391.017 44.147 78.834-7.358 167.128-95.652 167.128h-374.2c-130.338 0-260.677-6.306-396.272-6.306-78.834 6.306-136.646-81.988-92.499-156.617zm324.797 3.153c-44.147 74.63 13.664 162.924 92.499 157.668H454.4c-71.477-5.255-119.828-87.243-79.886-157.668 59.914-106.163 124.033-208.122 182.895-313.234 14.716-26.278 26.278-52.556 45.199-78.834 21.022-33.636 50.453-54.658 81.987-58.863-40.994-7.358-84.09 13.665-111.419 58.863-18.92 26.278-30.482 52.556-45.198 78.834-58.863 105.112-120.879 208.122-182.895 313.234z"/></svg>