<svg xmlns="http://www.w3.org/2000/svg" viewBox="0 0 1000 1000"><path d="M500.496 5C223.572 5 5 229.506 5 500.002c0 276.43 224.506 495.001 495.002 495.001 276.43 0 495.001-224.506 495.001-495.001C995.003 226.539 773.464 5 500.496 5zM177.088 781.376c7.913-2.967 11.869-6.923 14.836-10.879 75.165-57.363 150.33-108.792 229.451-161.21 7.912-6.922 13.846-6.922 25.714 0 38.572 25.715 75.165 52.418 108.792 78.133 7.912 3.956 11.868 8.901 18.791 10.879 0-6.923 4.945-10.88 4.945-18.791V586.54c0-14.835 2.967-26.703 13.847-33.626 48.461-33.627 101.868-71.21 150.33-105.825 3.956-2.967 7.912-6.923 14.835-10.879H601.376c-21.759 0-21.759-2.967-21.759-25.714V268.078h-7.912c-10.879 22.747-30.66 28.681-52.418 28.681-84.066-2.967-161.209-2.967-243.297 0-19.78 0-30.66-5.934-38.572-21.758l-14.835-14.835c2.967-2.967 2.967-2.967 2.967-7.912h428.243C781.376 260.166 845.663 365 826.871 463.903c-3.956 36.593-11.868 70.22-19.78 107.802-25.715 104.836-125.605 198.792-235.386 209.671-7.912 3.956-15.824 3.956-22.747 3.956H199.836c-7.912 0-14.835-3.956-22.748-3.956zM275.99 327.42h250.22c-6.923 10.879-14.835 22.747-26.703 34.615-2.967 2.967-10.879 2.967-13.846 2.967H320.496c-11.869 0-19.78-2.967-26.704-11.868-3.956-6.923-11.868-14.835-17.802-25.714zm47.473 72.198c0-3.956 3.956-3.956 3.956-3.956h150.33c-11.868 10.879-18.791 22.747-30.66 33.626-3.956 3.956-6.923 3.956-14.835 3.956h-67.253c-11.868 0-14.835-3.956-22.747-11.868-2.967-7.912-11.868-14.835-18.791-21.758z"/></svg>