<?xml version="1.0" encoding="utf-8"?>
<!-- Generator: Adobe Illustrator 26.0.1, SVG Export Plug-In . SVG Version: 6.00 Build 0)  -->
<svg version="1.1" id="Layer_1" xmlns="http://www.w3.org/2000/svg" xmlns:xlink="http://www.w3.org/1999/xlink" x="0px" y="0px"
	 viewBox="0 0 1000 1000" style="enable-background:new 0 0 1000 1000;" xml:space="preserve">
<path d="M500.3,5C226.9,5,5.3,226.6,5.3,500s221.6,495,495,495s495-221.6,495-495S773.7,5,500.3,5z M348.4,142.6h68.8
	c-18.6,10.8-80.2,87.4-96,144.7H203.8L348.4,142.6z M434.3,476.5V370.4h43.1v257.3h-43.1v-112h-68.6v112h-43.1V370.4h43.1v106.1
	H434.3z M349.9,857.4L203.8,712.7h113.9c17.9,43,50.3,102.3,96.7,144.7H349.9z M485.3,857.4h-32.2c-22.5-15.8-75.5-66.8-108.2-144.7
	h140.4V857.4z M487.4,287.3H348.5c9.8-29.9,44.7-100.6,106-144.7h32.9V287.3z M650.7,142.6l146.1,144.7H682.9
	c-17.9-43-50.3-102.3-96.7-144.7H650.7z M681.8,442.5v113.1c0,8.4-1,16.7-3,24.9c-2,8.2-5.5,15.6-10.7,22.2
	c-5.1,6.7-11.3,12.1-18.6,16.5c-7.2,4.3-14.9,7.3-23.1,8.9c-8.2,1.6-16.5,2.5-24.9,2.5c-8.4,0-16.7-0.8-24.9-2.5
	c-8.2-1.6-15.9-4.6-23.1-8.9c-7.2-4.3-13.4-9.8-18.6-16.5c-5.1-6.7-8.7-14.1-10.7-22.2c-2-8.2-3-16.5-3-24.9V442.5
	c0-8.4,1-16.7,3-24.9c2-8.2,5.5-15.6,10.7-22.2c5.1-6.7,11.3-12.1,18.6-16.5c7.2-4.3,14.9-7.3,23.1-8.9c8.2-1.6,16.5-2.5,24.9-2.5
	c8.4,0,16.7,0.8,24.9,2.5c8.2,1.6,15.9,4.6,23.1,8.9c7.2,4.3,13.4,9.8,18.6,16.5c5.1,6.7,8.7,14.1,10.7,22.2
	C680.8,425.8,681.8,434.1,681.8,442.5z M515.4,142.6h32.2c22.4,15.8,75.5,66.8,108.2,144.7H515.4V142.6z M546.1,857.4h-32.9V712.7
	h138.9C642.3,742.6,607.4,813.3,546.1,857.4z M652.2,857.4h-68.8c18.6-10.8,80.2-87.4,96-144.7h117.5L652.2,857.4z M636.4,428
	c1.5,4.8,2.3,9.6,2.3,14.5v113.1c0,4.9-0.8,9.7-2.3,14.4c-1.5,4.7-4.1,8.8-7.7,12.3c-3.6,3.5-7.8,6-12.6,7.4
	c-4.8,1.4-9.6,2.1-14.5,2.1c-4.9,0-9.7-0.7-14.5-2.1c-4.8-1.4-9-3.9-12.6-7.4c-3.6-3.5-6.2-7.6-7.7-12.3c-1.5-4.7-2.3-9.5-2.3-14.4
	V442.5c0-4.9,0.8-9.7,2.3-14.5c1.5-4.8,4.1-8.9,7.7-12.3c3.6-3.4,7.8-5.8,12.6-7.2c4.8-1.4,9.6-2.1,14.5-2.1c4.9,0,9.7,0.7,14.5,2.1
	c4.8,1.4,9,3.8,12.6,7.2C632.4,419.1,634.9,423.2,636.4,428z"/>
</svg>
