<?xml version="1.0" encoding="UTF-8"?><svg id="a" xmlns="http://www.w3.org/2000/svg" viewBox="0 0 1000 1000"><path d="M500,0C223.858,0,0,223.858,0,500s223.858,500,500,500,500-223.857,500-500S776.142,0,500,0Zm12.848,136.863c78.48,2.722,156.198,30.731,219.945,84.03l-405.202,405.205,185.257-489.234ZM137.433,477.045L421.781,192.697,218.488,729.57c-59.612-72.891-86.605-163.524-81.056-252.525Zm129.881,301.822l232.716-232.716,232.681,232.681c-134.427,112.402-330.934,112.402-465.397,.035Zm511.643-46.288l-232.681-232.681,232.716-232.716c112.404,134.463,112.367,330.97-.035,465.397Z"/></svg>