<svg xmlns="http://www.w3.org/2000/svg" width="1000" height="1000">
  <path d="M499.715 5c8.046 1.15 191.965 188.517 340.25 336.801 48.278 47.13 96.557 101.156 148.284 147.135 6.897 9.196 6.897 13.794 0 21.84-157.48 160.93-318.41 319.56-479.339 478.19-6.896 8.046-10.345 8.046-19.54 0-158.63-158.63-318.41-320.709-475.89-478.19-9.197-9.195-9.197-12.644 0-24.139 157.48-155.181 317.26-316.11 475.89-474.74C493.966 8.448 496.265 5 499.714 5zM152.568 498.132c113.8 2.3 42.531 1.15 197.713 1.15 4.597 0 6.896-1.15 12.644-4.598 43.68-42.531 85.062-85.063 126.444-126.444 10.346-10.346 10.346-10.346 21.84 0 40.233 37.933 80.465 80.464 119.548 118.397 10.345 11.495 14.943 12.645 27.588 12.645h178.17c12.645 0 11.496-2.3 0-13.794L514.659 163.63c-14.943-16.093-12.644-16.093-29.887 0-294.27 294.27-329.904 325.306-332.203 334.502z" style="fill:#000;fill-opacity:1;fill-rule:nonzero;stroke:none;"/>
</svg>
