<svg xmlns="http://www.w3.org/2000/svg" viewBox="0 0 1000 1000"><path d="M661.706 408.516c18.79 30.66 27.692 62.308 27.692 96.924 0 34.615-8.901 66.264-25.714 94.945-16.814 28.681-39.561 51.429-68.242 68.242-28.682 16.813-60.33 25.714-94.946 25.714-34.615 0-65.275-8.9-93.956-25.714-28.682-16.813-51.429-39.56-68.242-68.242-16.813-28.681-25.715-61.319-25.715-95.934 0-34.616 8.902-66.264 27.693-95.935l2.967-5.934 17.802 17.802c-3.956 4.946-6.923 10.88-8.901 15.825-7.912 18.791-5.934 36.593 2.967 54.395 8.901 18.792 21.758 30.66 40.55 37.583 10.879 3.956 22.747 4.945 33.626 3.956 10.88-.989 21.758-4.945 31.649-11.868l39.56 40.55 46.484-46.484c2.967 2.967 7.912 4.945 13.846 7.912 18.791 5.934 36.594 4.945 54.396-3.956 16.813-7.912 27.692-20.77 35.604-39.56 3.956-9.89 4.945-20.77 3.956-31.65-.989-10.878-4.945-20.768-10.879-29.67l13.846-14.835zM5 457.967l2.967 10.88c.99 6.922 3.956 14.834 8.901 24.725 9.89 18.79 23.737 35.604 41.539 51.428 31.648 27.693 73.187 50.44 123.627 64.286 38.571 10.88 82.088 18.791 129.56 21.759l18.792.989-10.88-14.836c-23.736-36.593-35.604-76.154-35.604-119.67 0-9.89.989-19.78 1.978-28.682l.99-10.879zm341.21-82.088 155.275 156.264 153.297-153.297-5.934-5.934c-18.791-21.759-41.538-38.572-67.253-50.44-25.714-11.868-53.406-16.813-82.088-16.813-28.681 0-55.385 4.945-80.11 15.824-25.714 10.88-49.45 25.714-67.253 47.473zm24.725 0c16.814-16.813 36.594-29.67 59.341-38.572 21.758-8.9 44.506-12.857 69.231-12.857 24.726 0 48.462 4.945 71.21 13.846 22.747 8.901 42.527 22.748 59.34 39.56L501.485 506.43zm2.967 89.011c0-8.901 2.967-16.813 7.912-23.736l53.407 53.407c-6.923 5.934-13.846 8.9-22.747 7.912-10.88 0-19.78-3.956-26.703-10.88-7.913-7.912-11.869-15.824-11.869-26.703zm195.825 26.704 53.407-53.407c4.945 6.923 6.923 13.846 6.923 21.758 0 10.88-3.956 19.78-10.88 26.703-7.911 7.913-16.812 11.869-27.692 11.869-7.912 0-14.835-1.978-21.758-6.923zm100.88 140.44 18.79-.99c47.474-2.967 90.99-10.879 129.562-21.758 51.429-14.835 92.967-36.593 123.627-64.286 17.802-15.824 31.648-32.637 40.55-51.428 4.944-9.89 8.9-17.803 9.89-24.726l1.977-10.879h-280.88l.99 10.88c.988 8.9 1.977 18.79 1.977 28.68 0 43.517-11.868 83.078-36.593 119.671z"/></svg>