<svg xmlns="http://www.w3.org/2000/svg" viewBox="0 0 1000 1000"><path d="M509.66 5h18.11c4.83 0 9.659 0 14.488 1.207 32.598 1.208 63.988 8.452 94.17 15.695 10.867 2.415 22.94 6.037 35.013 9.659 2.415 1.207 3.622 2.415 4.83 4.83 10.865 22.938 21.731 45.877 33.804 68.816 1.208 1.208 1.208 2.415-1.207 4.83l-3.622 7.244c-1.207 1.207-1.207 2.414-4.83 1.207-28.975-4.83-55.536-13.28-85.719-19.317-36.22-7.244-70.024-16.903-105.037-25.354-1.207 0-2.414-1.207-4.829-1.207-1.207-1.208-2.414-1.208-2.414-2.415 0-6.036-3.622-12.073-7.244-15.695-3.622-1.207-3.622-2.415-2.415-6.037 6.037-13.28 10.866-28.975 16.903-43.463zM6.21 527.769V495.17c0-14.488 1.207-28.976 2.415-42.256V450.5H9.83c0 9.659 0 18.11 1.207 28.976 1.208 21.732 3.622 44.67 3.622 66.402v18.11c1.208 1.207 0 2.415-2.414 2.415-2.415 2.414-2.415-1.208-2.415-1.208zm8.451-89.342c-3.622-16.902 0-32.597 3.622-47.085 4.83-21.732 10.866-41.05 16.903-60.366 0-1.208 1.207-2.415 1.207-4.83l13.28 13.281c10.866 10.866 21.732 21.732 33.805 30.183 1.208 3.622 1.208 4.83 0 7.244-3.622 8.451-1.207 16.902 7.244 24.146 1.208 2.415 1.208 2.415 1.208 3.622-22.94 54.33-44.671 106.244-66.403 159.366 0 1.207-1.207 1.207-1.207 2.415-2.415 2.414-4.83 0-4.83-1.208v-14.487c-1.207-16.903-2.414-33.805-2.414-50.708-1.207-21.731-2.415-41.048-2.415-61.573zm2.415 169.025c6.036-1.208 12.073-3.622 15.695-8.452 1.207 0 2.415 0 3.622 1.208l41.049 26.56c38.634 24.147 76.06 48.293 114.695 73.647 2.415 1.207 3.622 3.622 2.415 6.037 0 4.829 0 7.244 1.207 13.28 0 1.207 1.207 2.415-1.207 4.83-25.354 19.317-49.5 37.426-74.854 59.158L102.794 797c-42.256-57.95-71.231-120.731-85.72-189.548zm12.073-42.257c22.94-51.914 43.463-103.829 66.402-155.744 0-3.621 1.208-6.036 3.622-4.829 8.452 0 15.696-1.207 19.318-8.451 1.207-3.622 2.414-3.622 3.621-2.415 37.427 9.659 73.647 21.732 109.866 32.598 1.208 1.207 4.83 1.207 8.452 1.207s3.622 2.415 3.622 7.244v2.415c1.207 3.622-1.208 6.036-4.83 9.658l-115.902 72.44c-27.769 16.902-56.744 33.804-85.72 53.121-2.414 1.208-3.622 2.415-6.036 0-1.208-1.207-3.622-2.414-2.415-7.244zm8.451 25.354v-8.451c-1.207-3.622 0-6.037 2.415-6.037 18.11-10.866 33.805-22.939 53.122-33.805 38.634-22.939 78.476-49.5 119.524-73.646l27.769-18.11h3.622l-3.622 25.354c-1.208 16.902-1.208 32.598 1.207 49.5 1.207 13.28 0 27.768-3.622 41.049-7.244 41.049-15.695 80.89-21.732 121.939-1.207 3.622-2.414 3.622-4.829 3.622-3.622 1.207-7.244 2.414-9.659 4.83-2.414 1.206-4.829 1.206-7.243 0-14.488-9.66-30.183-19.318-45.879-28.977C114.868 646.086 78.648 621.94 43.636 599c-1.207 0-2.415-1.207-3.622-1.207-2.415-1.207-3.622-2.415-2.415-7.244zm2.415-271.646c8.451-18.11 16.902-38.635 25.354-56.744l3.622-4.83c13.28-6.036 26.56-14.487 38.634-20.524 6.036-3.622 9.658 0 9.658 4.83-2.414 10.865-3.622 21.731-6.036 33.804-2.415 19.317-4.83 39.842-4.83 60.366l-3.622 26.561c0 2.415-1.207 3.622-4.829 4.83-2.415 0-3.622 0-4.83 1.207-2.414 1.207-6.036 1.207-7.243-1.208-12.073-10.866-24.146-21.731-33.805-32.597-3.622-4.83-7.244-7.244-10.866-10.866-3.622-1.207-3.622-3.622-1.207-4.83zm31.39-67.61v-1.207c8.451-12.074 15.695-25.354 24.146-38.635 6.037 4.83 9.659 7.244 12.074 10.866 2.414 3.622 1.207 8.451-1.208 9.659-10.866 6.036-20.524 10.866-28.975 16.902-3.622 1.208-4.83 1.208-6.037 2.415zm30.183-44.67c-2.415 0 0-1.208 0-1.208 2.415-3.622 4.83-6.037 6.037-9.659 6.036-4.83 9.658-10.866 13.28-16.902 0 0 1.207 0 1.207 1.207 0 4.83-1.207 10.866-1.207 15.695-1.207 4.83-1.207 10.866-2.414 15.695 0 2.415-4.83 7.244-7.244 7.244-3.622-3.622-6.037-9.658-9.659-12.073zm4.83 155.743c1.207-13.28 2.414-26.56 4.829-39.841 3.622-21.732 6.036-42.257 7.244-60.366 0-7.244 1.207-13.28 1.207-19.317 0-1.208 1.207-3.622 2.414-3.622 1.208 0 3.622 1.207 4.83 2.414l25.353 36.22c26.561 37.427 54.33 76.06 80.89 114.695 6.037 7.244 10.867 13.28 15.696 21.732 0 1.207 1.207 1.207 1.207 1.207 0 7.244-4.83 10.866-8.451 8.451-38.634-10.866-77.268-21.731-115.903-33.805-3.622 0-4.829-2.414-4.829-4.829 0-8.451-3.622-15.695-12.073-16.902-2.415-1.208-2.415-2.415-2.415-6.037zm1.207 443.086c-1.208-4.83-1.208-6.037 0-7.244l89.341-71.232c2.415-1.207 2.415-1.207 4.83-1.207 2.414 3.622 6.036 3.622 4.829 8.451-10.866 44.67-21.732 88.134-30.183 131.598-1.208 2.414-1.208 4.829-3.622 7.244-3.622-2.415-6.037-4.83-8.451-8.452-21.732-18.11-38.635-37.427-56.744-59.158zm15.695-594c2.414-7.245 3.622-15.696 3.622-24.147 1.207-3.622 1.207-6.037 1.207-9.659 0-2.414 1.207-7.243 3.622-10.865 25.354-26.561 53.122-50.708 83.305-72.44 1.207 0 1.207 0 1.207-1.207 0 1.208 1.208 1.208 1.208 1.208-13.28 15.695-25.354 33.804-38.635 49.5-15.695 22.939-33.804 44.67-49.5 67.61 0 1.207 0 1.207-1.207 1.207 0 1.207-1.207 1.207-2.415 2.414 0-1.207-2.414-2.414-2.414-3.622zm6.036 22.938c1.208-1.207 3.622-1.207 4.83-1.207 4.829 1.207 7.244 3.622 10.866 3.622 60.365 16.902 120.731 31.39 179.89 49.5 1.207 0 3.622 1.207 6.036 2.415-38.634 31.39-63.987 72.439-78.475 121.939-3.622-6.037-8.451-9.659-9.659-13.28-37.427-51.915-73.646-102.623-109.866-154.537-1.207 0-2.414-1.208-2.414-3.622-1.208-1.208-1.208-4.83-1.208-4.83zm2.415-12.073c-1.207-4.83 0-7.244 2.415-10.866 31.39-41.048 61.573-83.305 92.963-124.353 2.415-3.622 6.037-4.83 10.866-7.244 18.11-13.28 41.049-24.147 62.78-33.805 3.622-1.208 3.622-1.208 4.83 2.414 18.11 68.818 32.597 138.842 49.5 206.452 1.207 1.207 1.207 2.414 1.207 3.622 3.622 10.866 3.622 7.244-6.036 15.695-2.415 2.415-7.244 4.83-12.074 7.244-1.207 1.207-1.207 1.207-1.207 2.414-8.451-2.414-13.28-3.622-20.524-6.036-59.159-14.488-115.903-31.39-173.854-45.878h-1.207c-6.037-1.208-8.452-3.622-9.659-9.659zm45.878 651.952c1.207-3.622 1.207-8.451 2.415-12.073 10.866-42.256 20.524-83.305 28.975-126.769 2.415-2.414 3.622-4.829 7.244-4.829 1.208 0 3.622 0 4.83-1.207 3.621-2.415 4.829-2.415 7.243 1.207 14.488 16.902 27.769 32.598 42.257 49.5 13.28 14.488 27.768 27.768 39.841 42.256 18.11 21.732 37.427 43.464 56.744 63.988 12.073 14.488 25.354 28.976 37.427 43.463 9.658 9.659 19.317 20.525 26.56 28.976 4.83 4.83 0 7.244-1.206 8.451 0 2.415-2.415 1.208-2.415 1.208-47.086-8.452-92.964-16.903-140.049-24.147-14.488-2.414-26.561-10.866-38.634-16.902-24.146-13.28-47.086-30.183-68.817-47.086-1.208-1.207-2.415-3.622-2.415-6.036zm42.256-185.927c2.415-15.695 6.037-31.39 9.659-48.293 3.622-26.56 9.658-51.914 14.488-78.475v-1.208c8.45 42.256 24.146 82.098 50.707 117.11-1.207 0-2.415 2.415-3.622 2.415-18.11 6.036-37.427 13.28-57.951 21.731-1.208 0-2.415 0-3.622-2.414-1.208-1.208-3.622-3.622-7.244-4.83-1.207-1.207-2.415-2.414-2.415-6.036zm10.866 37.427c-1.207 0-1.207-1.208 0-2.415 0-1.207 1.207-3.622 1.207-3.622 1.208-1.207 1.208-2.414 1.208-2.414l22.939 3.621c37.427 6.037 76.06 14.488 115.902 21.732 4.83 0 9.659 3.622 14.488 6.037 28.976 10.866 56.744 20.524 88.134 22.939 18.11 1.207 36.22 0 56.744 0 7.244 0 15.695 1.207 22.94 2.414 15.694 3.622 31.39 6.037 45.877 9.659 3.622 0 6.037 0 6.037 2.415 0 2.414 1.207 7.244 2.415 8.45 1.207 1.208 1.207 3.623 0 4.83-9.659 10.866-19.318 20.525-27.769 30.183-22.939 24.146-45.878 49.5-67.61 73.646l-38.634 41.05c-3.622 6.036-8.45 9.658-12.073 12.072-1.207 2.415-2.415 2.415-3.622 1.208-7.244-2.415-12.073-2.415-19.317 0-1.207 1.207-2.415 0-3.622-1.208l-61.573-67.61-43.464-48.292c-16.902-20.524-32.597-39.842-50.707-56.744-13.28-14.488-24.146-28.976-37.427-44.67-3.622-3.623-9.658-7.245-12.073-13.281zm2.415-15.695c0-2.415 0-3.622 3.622-4.83 19.317-7.244 39.841-15.695 57.95-22.939 3.623-1.207 4.83-1.207 7.245 1.208 15.695 20.524 35.012 36.22 57.951 49.5 0 1.207 0 1.207 1.207 1.207 0 1.207-1.207 1.207-1.207 1.207-14.488-2.414-30.183-4.829-44.67-9.658-25.354-2.415-50.708-7.244-76.062-12.073-2.414 0-6.036 0-6.036-3.622zM293.55 950.33h6.036c1.208 0 2.415 1.207 3.622 1.207 39.842 6.037 80.89 14.488 120.732 20.525 3.622 2.414 4.83 3.622 4.83 7.243 1.207 2.415 4.828 6.037 6.036 10.866-49.5-7.244-96.586-20.524-141.256-39.841zm16.902-904.281c-2.415-2.415 0-3.622 2.415-4.83 14.488-4.829 30.183-10.865 47.085-16.902h6.037c31.39 12.073 62.78 25.354 95.378 39.842 1.207 1.207 2.414 2.414 1.207 4.829 0 4.83 1.207 12.073 6.037 14.488 3.622 2.414 3.622 3.622 2.414 7.244-8.45 14.487-15.695 27.768-21.731 42.256-19.317 35.012-37.427 70.024-55.537 106.244v1.207c-3.622 10.866-12.073 15.695-21.732 21.732l-9.658 3.622c0-2.415-1.208-3.622-1.208-4.83l-31.39-131.597zm61.573-24.147c3.622-1.207 6.037-2.414 9.659-2.414 20.524-4.83 41.049-7.244 59.158-12.073 2.415 0 4.83 1.207 6.037 3.622l24.146 41.048c0 1.208 0 3.622-2.414 4.83-3.622 3.622-3.622 3.622-8.452 2.414-28.975-12.073-56.743-24.146-85.72-35.012 0-1.207-1.206-1.207-2.414-2.415zm21.732 228.184v-1.208c4.83-8.451 9.659-18.11 13.28-27.768 20.525-37.427 39.842-74.854 57.952-112.28 3.622-4.83 7.244-12.074 9.658-16.903 0-1.207 1.208-2.415 3.622-1.207h6.037c3.622-1.208 4.83 1.207 7.244 3.622 13.28 32.597 28.975 62.78 42.256 94.17l18.11 39.842c0 1.207 1.207 2.414 1.207 3.622-55.537-9.659-107.451-3.622-159.366 18.11zM450.502 7.415c3.622-1.208 7.244-1.208 10.866-1.208L475.856 5h28.975c-6.036 14.488-9.658 28.976-16.902 43.463 0 0-1.208 1.208-2.415 1.208-1.207 2.414-6.036 2.414-8.451 2.414-1.207 0-2.415-2.414-2.415-3.622-7.244-10.865-12.073-20.524-20.524-32.597-1.207-1.207-2.415-4.83-3.622-8.451zm13.28 982.756s1.208-2.414 1.208-4.829c1.207-1.207 2.414-1.207 2.414-1.207l24.147 8.451v1.207c-3.622 0-6.037 0-10.866-1.207h-12.073c-2.415 0-3.622-1.207-4.83-2.415zm1.208-24.146c-1.208-2.415-1.208-3.622 1.207-7.244 7.244-4.83 12.073-13.28 19.317-19.317 24.146-26.561 49.5-53.122 73.647-80.89 14.487-15.695 28.975-28.976 42.256-45.878l10.866-9.659c0-2.415 1.207-2.415 3.621 0 4.83 1.207 8.452 2.415 14.488 1.207 2.415-1.207 3.622 0 4.83 2.415l50.707 90.549c8.451 16.902 18.11 32.597 27.768 48.293 2.415 4.829 2.415 6.036-2.414 7.243-38.635 14.488-77.269 26.561-120.732 35.013-20.525 2.414-42.256 4.829-63.988 4.829-3.622 0-6.037 1.207-10.866 1.207v1.208l-15.695-3.622c-9.659-2.415-16.902-7.244-26.561-9.659-4.83-1.207-6.037-2.415-6.037-6.037 0-3.621 0-7.243-2.414-9.658zm31.39-874.098c-1.207-2.415-3.622-6.037 1.207-7.244 0-1.207 1.208-2.415 1.208-3.622 2.414-2.415 3.622-3.622 8.45-2.415 63.989 15.696 127.977 30.183 193.172 44.671 3.622 2.415 3.622 2.415 3.622 4.83 1.207 1.207 2.414 3.621 3.622 6.036 0 1.207 1.207 1.207 1.207 3.622l-96.585 95.378c-2.415 3.622-6.037 7.244-10.866 9.659-1.208 1.207-1.208 1.207-3.622 1.207-12.073-2.415-22.94-6.037-35.013-10.866-2.414 0-3.621-1.207-4.829-2.415l-44.67-97.792c-4.83-14.488-12.074-27.769-16.903-41.05zm55.537 677.305c13.28-3.622 26.56-8.451 42.256-10.866 3.622-1.207 6.036-3.622 9.658-4.829 3.622-2.415 4.83 0 6.037 2.415l3.622 9.658c0 1.208 0 2.415-1.207 3.622l-3.622 6.037c-1.208 3.622-4.83 3.622-7.244 3.622-12.074-3.622-26.561-6.037-39.842-7.244-3.622-1.208-7.244-1.208-9.658-2.415zm54.329-522.768c1.207-1.208 2.415-2.415 2.415-3.622 28.975-27.769 59.158-57.952 88.134-86.927 4.829-3.622 9.658-9.659 14.488-14.488 1.207 0 2.414-1.207 4.829 0 7.244 2.415 14.488 1.207 20.524-2.415 1.208-3.622 2.415-1.207 6.037 0l72.439 27.769c26.56 10.865 54.33 22.939 82.098 33.804 1.207 1.208 4.829 2.415 4.829 4.83 0 2.414-1.208 3.622-3.622 3.622-44.67 9.658-90.549 18.11-135.22 25.353-41.049 8.452-83.305 18.11-126.768 24.147-1.207 2.414-3.622 0-6.037-1.208-7.244-2.414-15.695-4.829-21.731-8.45 0 0-1.208-2.415-2.415-2.415zm6.037 507.073c0-2.415 1.207-4.83 1.207-4.83 8.451-2.414 14.488-6.036 22.939-10.865-1.207 9.658-3.622 18.11-8.451 24.146-1.208 4.83-4.83 1.208-6.037 3.622-1.207 0-2.415-2.414-3.622-3.622zm22.939 14.488v-2.415c2.414-10.866 7.243-20.524 10.865-30.183 0-2.414 1.208-3.622 2.415-4.829 16.902-10.866 32.598-22.939 45.878-37.427 25.354-25.354 43.464-57.951 55.537-91.756 0-2.415 0-2.415 1.207-6.037 6.037 4.83 9.659 12.074 14.488 15.696 38.634 49.5 76.06 97.792 113.488 147.292 1.207 1.208 2.414 1.208 1.207 3.622-1.207 1.208-2.415 4.83-3.622 7.244 0 2.415-2.415 2.415-3.622 2.415-19.317 0-39.841 0-60.366 1.207-16.902 1.207-35.012 1.207-53.122 2.415-18.11 0-36.22 2.414-54.329 3.622-19.317 0-37.427 1.207-57.951 2.414-1.208 0-2.415-1.207-2.415-2.414-4.83-4.83-7.244-7.244-9.658-10.866zm3.622 37.427c-1.208-2.415-2.415-6.037 0-8.452 3.621-2.414 4.829-4.829 6.036-8.45 1.207-2.415 1.207-3.623 2.415-3.623h20.524c14.488-1.207 30.183-1.207 45.878-1.207 19.317 0 36.22-1.207 55.537-2.415 16.902 0 37.427-1.207 54.33-1.207l45.877-2.415h3.622c3.622 0 3.622 0 3.622 2.415 1.207 3.622 4.83 7.244 8.451 10.866 3.622 1.207 3.622 2.415 3.622 3.622l-12.073 36.22c0 2.414-2.415 4.829-4.83 8.45-41.048 44.671-90.548 80.89-147.292 106.245-4.83 2.414-4.83 2.414-7.244-1.208-16.902-30.183-35.012-61.573-51.915-91.756zm3.621-539.671v-1.208l6.037-2.414 182.305-33.805c22.94-6.037 45.878-9.659 67.61-13.28 2.414-1.208 3.622 0 4.83 2.414 3.621 3.622 7.243 8.451 14.487 9.658 2.415 1.208 3.622 2.415 3.622 4.83 2.415 36.22 8.451 73.646 12.073 111.073 1.207 21.732 4.83 43.463 7.244 63.988 1.207 3.622 0 6.036-2.415 6.036-2.414 0-3.622 1.208-4.829 1.208-4.83 4.829-12.073 3.622-19.317 1.207-62.78-26.56-127.976-54.33-190.756-79.683-7.244-4.83-12.073-9.658-18.11-15.695-16.902-20.524-37.427-39.842-60.366-54.33zm39.842-228.183v-2.415l30.183 12.073 48.293 24.146c1.207 0 2.414 1.208 0 6.037 0 4.83 0 8.451 1.207 13.28 1.207 2.415 0 3.623-1.207 4.83-6.037 3.622-12.074 9.658-18.11 13.28-3.622 1.208-4.83 2.415-4.83 0-6.036-3.622-12.073-4.829-19.317-3.622-2.414 0-2.414 0-4.829-1.207zM720.94 338.22c61.573 26.56 123.147 53.122 184.72 77.268v1.207h-8.451c-30.183 0-61.574 0-91.757 1.208h-45.878c-2.414 0-4.829-1.208-4.829-2.415-7.244-26.56-18.11-50.707-32.598-73.646-1.207-1.208-1.207-2.415-1.207-3.622zm21.732-210.074v-10.865s0-1.208 1.207-2.415c6.037-7.244 14.488-10.866 21.732-16.903 1.207-1.207 2.415-1.207 3.622 0 4.83 3.622 12.073 3.622 16.902 0 2.415-2.414 4.83-1.207 6.037 0l27.768 25.354c21.732 18.11 41.049 36.22 61.573 54.33 7.244 4.829 12.074 9.658 16.903 15.695 3.622 1.207 4.83 2.414 6.036 3.622h-6.036c-50.708-21.732-102.622-42.257-153.33-63.988-2.414-1.208-3.621-1.208-2.414-4.83zm12.073 457.574c2.415-9.659 2.415-9.659 13.28-9.659H920.15c1.207 0 3.622-1.207 2.414 2.415-1.207 9.659-1.207 19.317-2.414 28.976-7.244 42.256-14.488 84.512-21.732 127.975 0 3.622 0 9.659-1.207 14.488 0 3.622-1.208 4.83-3.622 4.83-1.208 0-2.415 0-3.622 1.207-3.622 2.414-6.037 0-8.452-4.83-41.048-51.914-84.512-105.036-125.56-158.158-1.208-3.622-2.415-4.83-1.208-7.244zm37.427-491.378 1.207-1.208c33.805 21.732 61.573 47.086 88.134 76.061v1.208c-28.975-25.354-60.366-51.915-89.341-76.061zm91.756 729.22c2.415-8.452 4.83-18.11 8.451-28.976h2.415c1.207-1.207 3.622-1.207 3.622-1.207 3.622 0 4.83 0 6.036 1.207 1.208 1.207 1.208 3.622 0 4.83-7.243 8.45-13.28 18.109-19.317 25.353zm18.11-72.44c1.207-12.073 3.622-21.731 4.83-33.804l20.523-127.976c0-2.415 1.208-7.244 1.208-12.073 1.207-1.208 1.207-1.208 3.622-1.208h19.317c6.036-3.622 10.866 0 14.488 7.244 4.829 9.659 13.28 18.11 19.317 27.769 2.414 1.207 2.414 4.829 2.414 7.243-8.45 30.183-18.11 61.574-31.39 89.342-8.451 19.317-18.11 41.049-30.183 60.366-3.622 3.622-4.83 3.622-9.658 3.622 0 0-1.208-1.207-1.208-2.415-2.414-7.244-6.036-10.866-12.073-13.28-1.207 0-1.207-2.415-1.207-4.83zm6.036 41.05c0-1.208 0-3.623 1.208-4.83l4.829-8.451c1.207-3.622 3.622-3.622 6.037-1.208-3.622 4.83-7.244 9.659-10.866 15.696 0 0-1.208 0-1.208-1.208zm18.11-562.61c3.622 3.621 6.037 10.865 8.451 14.487 10.866 20.524 21.732 38.634 30.183 60.366 0 2.414 1.208 6.036 0 8.451-6.036 31.39-10.866 62.78-18.11 92.964 0 1.207 0 3.621-1.207 4.829zm26.561 183.511c-1.207 0 0-2.414 0-3.622 3.622-19.317 4.83-39.841 9.659-57.95 2.414-9.66 3.622-19.318 6.036-28.976v-4.83h1.208c4.829 16.903 9.658 31.39 12.073 45.878 3.622 12.074 6.036 22.94 8.451 35.013 1.207 3.622 0 4.829-4.83 6.036l-14.487 10.866c-7.244 3.622-13.28 1.207-18.11-2.415zm14.488 162.988s0-1.207 1.207-1.207h22.94c1.207 0 2.414 1.207 2.414 1.207l-3.622 31.39h-1.207c-8.452-9.658-14.488-20.524-21.732-31.39zM978.1 416.695v-1.207c3.622-1.207 7.244-3.622 13.28-6.037 1.208 7.244 1.208 7.244-6.036 7.244z"/></svg>