<svg xmlns="http://www.w3.org/2000/svg" viewBox="0 0 1000 1000"><path d="M436.244 115.828H188.37V5h375.386v501.705c0 36.943-2.384 75.077-10.726 110.828-13.108 56.01-46.476 98.911-92.952 131.087-44.093 33.368-95.336 57.202-144.196 79.844-9.533 4.767-20.259 10.725-30.984 13.109-1.192 1.191-4.767 1.191-5.958-1.192-25.026-29.792-45.285-63.16-59.585-98.911-1.192-1.192 0-1.192 0-2.383 8.341-4.767 16.683-7.15 25.025-11.917 40.518-19.068 82.227-36.943 120.362-61.969 32.176-21.45 57.201-48.86 65.543-88.185 2.384-19.068 5.959-36.943 5.959-56.01 1.191-133.47 0-266.94 1.191-400.411 0-1.192-1.191-2.384-1.191-4.767zm-59.585 812.739c3.575-1.192 7.15-3.575 10.725-4.767 51.243-26.217 102.486-51.243 150.154-83.419 41.71-27.41 77.46-61.968 102.486-107.253 22.643-39.326 34.56-82.227 39.326-128.703 3.575-27.41 5.959-56.01 5.959-83.42V5h125.128c0 3.575 1.192 7.15 1.192 9.534v549.373c0 64.352-9.534 127.512-34.56 185.905-29.792 71.502-79.843 127.512-143.003 171.605-40.518 27.409-84.61 51.243-129.895 72.693-2.384 1.192-5.959 1.192-7.15 0-39.327-20.259-78.653-42.901-117.979-63.16z"
    style="fill:#000;fill-opacity:1;fill-rule:nonzero;stroke:none"/></svg>