<svg xmlns="http://www.w3.org/2000/svg" width="1000" height="1000">
  <path d="M230.418 93.109c160.338-110.9 355.417-117.582 510.411-17.37 12.025 8.017 28.06 18.706 44.093 28.06-5.344 8.016-8.017 12.025-10.69 14.697-29.394 32.068-60.126 58.79-92.194 90.858-8.017 8.017-12.025 8.017-22.714 2.673-105.557-57.455-212.449-57.455-320.678 0-10.689 5.344-18.706 5.344-26.723-2.673-26.723-32.067-54.782-58.79-85.514-86.85-12.025-16.034-6.68-18.706 4.009-29.395zm-208.44 6.68c4.008-44.092 34.74-78.832 82.841-78.832 42.757 0 78.833 34.74 78.833 78.833 0 41.42-40.084 77.497-78.833 77.497-42.757 0-82.841-36.076-82.841-77.497zm4.008 793.677c0-42.757 36.076-77.497 78.833-77.497s78.833 34.74 78.833 77.497c0 44.093-32.067 80.169-78.833 80.169-42.757 0-78.833-36.076-78.833-80.17zm8.017-542.48c16.034-42.756 38.749-81.505 62.8-122.925 2.672-16.034 12.025-16.034 24.05-2.673 26.723 30.732 58.791 60.127 85.514 90.859 13.362 6.68 13.362 10.69 4.009 22.714-58.791 106.893-58.791 212.45 0 319.341 9.353 12.026 9.353 18.707-4.009 26.724-26.723 28.059-58.79 58.79-85.514 86.85-12.025 10.689-16.034 9.353-24.05-4.009-88.187-109.565-116.246-296.626-62.8-416.88zm136.288 455.63c5.345-6.681 13.361-12.026 21.378-18.707 6.681 6.681 18.707 12.026 18.707 18.707 0 9.353-12.026 17.37-14.698 22.714h-9.353c-2.673-5.344-16.034-13.361-16.034-22.714zm0-617.304c0-6.68 13.361-14.698 16.034-24.05h12.025c4.009 9.352 12.026 17.37 12.026 24.05-4.009 9.353-14.698 20.042-18.707 20.042-8.017 0-21.378-10.689-21.378-20.042zm40.085 704.154c12.025-6.681 16.033-16.034 22.714-24.051 24.051-26.723 52.11-50.774 78.833-77.497 8.017-9.353 16.034-10.69 26.723-4.009 108.229 62.8 215.121 58.791 320.678 0 6.68-5.344 14.697-5.344 20.042 0 34.74 30.732 70.816 65.472 105.556 101.548L764.88 909.5c-193.743 130.943-339.383 100.211-554.504-16.034zM222.4 757.178c4.008-9.353 10.69-17.37 20.042-20.042 6.681 0 14.698 6.68 24.051 16.033v5.345c-9.353 5.345-17.37 13.362-24.05 17.37-12.026 0-20.043-8.017-20.043-18.706zm0-515.756c4.008-8.017 16.034-16.034 20.042-20.042 6.681 0 14.698 12.025 24.051 14.698v9.353c-9.353 6.68-17.37 16.033-24.05 16.033-12.026 0-22.715-9.353-20.043-20.042zm54.782 463.646c0-9.353 8.017-20.042 14.698-20.042 9.353 0 20.042 10.689 20.042 20.042 0 4.008-8.017 14.698-10.689 24.05h-10.69c-5.344-9.352-17.37-16.033-13.36-24.05zm0-412.872c-4.008-6.68 8.017-16.034 13.362-22.715 1.336 0 6.68 0 10.69 2.673 2.671 4.008 10.688 16.034 10.688 20.042 0 6.68-10.689 16.034-20.042 20.042-1.336-4.008-14.698-13.361-14.698-20.042zm50.774 360.762c0-5.345 8.017-14.698 10.69-22.715h14.697c2.672 8.017 10.69 17.37 10.69 22.715C368.041 666.319 356.015 673 343.99 673c-8.017-2.672-16.034-12.025-16.034-20.042zm0-309.988c0-4.009 8.017-16.034 16.034-16.034 12.025-4.008 24.05 5.345 20.042 16.034 0 8.017-8.017 16.034-10.689 24.05h-14.698c-2.672-8.016-10.689-16.033-10.689-24.05zm50.774 260.55c0-8.017 12.025-21.378 17.37-21.378 6.68 0 16.034 8.017 22.715 13.361v10.69c-6.681 5.344-16.034 17.37-18.706 12.025-9.354 0-21.379-6.681-21.379-14.698zm0-209.776c0-2.673 12.025-14.698 21.379-14.698 6.68 0 14.697 6.68 18.706 14.698v9.353c-6.681 1.336-16.034 10.69-22.715 10.69-5.345 0-17.37-10.69-17.37-20.043zm52.11 157.666c0-8.017 8.017-14.698 12.026-24.05h10.689c5.344 9.352 16.034 16.033 13.361 24.05 0 8.017-13.361 10.69-20.042 20.042-4.008-9.353-16.034-16.033-16.034-20.042zm0-105.556c0-4.009 8.017-13.362 12.026-18.706h10.689c5.344 5.344 16.034 14.697 13.361 18.706 0 8.017-13.361 16.034-17.37 22.714-6.68-6.68-18.706-14.697-18.706-22.714zm52.11 54.782c0-8.017 10.69-20.042 18.706-20.042 4.009 0 16.034 12.025 16.034 16.034 4.009 6.68-8.017 16.034-12.025 22.714h-9.353c-6.681-4.008-13.362-10.689-13.362-18.706zm50.774 50.774c2.672-8.017 12.025-18.706 20.042-18.706 2.673 0 14.698 5.345 22.715 10.69v12.025c-8.017 4.008-17.37 16.033-22.715 12.025-8.017 0-17.37-12.025-20.042-16.034zm0-105.556c0-4.009 12.025-16.034 20.042-16.034 2.673 0 14.698 12.025 14.698 18.706 4.009 5.345-9.353 13.362-12.025 20.042h-8.017c-8.017-6.68-14.698-14.697-14.698-22.714zm49.438 157.666c9.353-8.017 12.025-21.378 20.042-21.378 8.017 0 16.034 8.017 24.05 17.37v6.68c-8.016 5.345-16.033 17.37-24.05 12.026-8.017 0-14.698-12.026-20.042-14.698zm0-205.768c5.344-6.68 12.025-18.706 20.042-18.706 8.017 0 16.034 6.68 24.05 12.025v12.026c-8.016 1.336-16.033 10.69-24.05 10.69s-14.698-10.69-20.042-16.035zm52.11 255.206c4.008-5.345 10.69-18.706 18.706-18.706 9.353 0 20.042 13.361 20.042 18.706 0 8.017-10.689 17.37-14.697 24.05h-8.017c-8.017-6.68-16.034-18.706-16.034-24.05zm0-309.988c0-10.69 8.017-20.042 18.706-16.034 9.353 0 16.034 8.017 20.042 16.034 0 8.017-8.017 16.034-14.697 24.05h-8.017c-5.345-8.016-16.034-16.033-16.034-24.05zm52.11 362.098c0-9.353 10.69-16.034 16.034-22.715h6.68c6.681 6.681 16.034 13.362 16.034 22.715 0 8.017-12.025 18.706-20.042 14.698-8.017 0-18.706-10.69-18.706-14.698zm0-412.872c2.672-6.68 10.69-16.034 18.706-16.034 8.017 0 20.042 12.026 20.042 16.034 0 6.68-12.025 16.034-16.034 24.05h-6.68c-5.345-8.016-16.034-17.37-16.034-24.05zm50.774-50.774c0-8.017 12.025-16.034 14.697-24.05h8.017c8.017 8.016 16.034 16.033 16.034 24.05 2.673 10.69-8.017 22.715-20.042 20.042-6.68 0-16.034-13.361-18.706-20.042zm2.672 515.756c0-9.353 12.025-20.042 16.034-20.042 8.017 0 20.042 10.689 20.042 20.042 0 6.68-8.017 14.698-16.034 24.05h-8.017c-2.672-9.352-14.697-17.37-12.025-24.05zm46.765-98.876c60.127-106.892 60.127-212.448 0-319.34-8.016-12.026-8.016-16.034 0-26.724 33.404-26.723 60.127-56.118 92.195-86.85 6.68-13.361 14.698-13.361 28.06 2.673 93.53 130.943 110.9 305.98 48.101 448.948-13.362 32.067-34.74 60.127-48.102 90.858-5.344 4.009-9.353 8.017-13.361 14.698-8.017-1.336-10.69-6.68-14.698-10.69-29.395-28.059-58.79-58.79-86.85-86.85-13.361-8.016-13.361-14.697-5.345-26.723zm5.345 148.314c-5.345-6.681 6.68-14.698 10.69-24.051h12.025c5.344 9.353 12.025 17.37 12.025 24.05 0 9.354-12.025 20.043-18.706 20.043-5.345 0-16.034-10.69-16.034-20.042zm0-617.304c0-6.68 10.69-12.025 16.034-18.706 6.68 6.68 18.706 12.025 18.706 18.706 0 9.353-6.68 16.034-12.025 22.715h-12.026c-4.008-6.681-16.034-13.362-10.689-22.715zm22.715 704.154c5.344-42.757 40.084-77.497 82.841-77.497 38.749 0 78.833 34.74 78.833 77.497 0 44.093-34.74 80.169-78.833 80.169-48.101 0-82.841-36.076-82.841-80.17zm5.344-793.676c0-44.093 34.74-78.833 77.497-78.833 44.093 4.008 78.833 38.748 78.833 82.841 0 42.757-34.74 78.833-78.833 78.833-42.757 0-82.841-41.42-77.497-82.841z" style="fill:#000;fill-opacity:1;fill-rule:nonzero;stroke:none;"/>
</svg>
