<svg xmlns="http://www.w3.org/2000/svg" width="1000" height="1000">
  <path d="M43.51 995.004h125.383c23.51 0 23.51 0 24.815-19.591 7.837-56.161 32.652-103.18 82.283-134.526 28.734-14.366 57.467-31.345 90.12-43.1 33.957-16.979 70.527-28.734 105.791-44.407 2.612 1.307 5.224 3.919 5.224 3.919 14.367 28.733 30.04 53.549 47.02 79.67 23.508 50.937 41.793 101.874 43.1 155.423 0 1.306 0 1.306 2.612 2.612h143.668c0-2.612 1.306-2.612 1.306-3.918-1.306-44.407-11.755-88.813-24.816-130.607-16.978-52.243-45.712-99.262-73.14-144.975-1.306-3.918-3.918-9.142-6.53-11.754 2.612-1.306 6.53-2.613 9.142-5.225 53.55-24.815 103.18-47.018 155.423-75.752 99.262-56.161 164.566-138.444 178.932-261.215 9.143-73.14-5.224-142.362-45.712-205.053-1.306-1.306-5.224-3.919-6.53-9.143h53.549V5H623.407c-50.937 0-96.65 9.143-144.975 28.734-84.894 35.264-147.586 95.343-175.013 185.462-22.204 73.14-22.204 147.587 0 220.727 16.979 66.61 50.936 126.689 90.119 181.544 2.612 2.612 5.224 6.53 6.53 9.142-7.836 5.225-15.673 7.837-22.203 10.45-60.08 19.59-118.853 45.712-175.014 82.282-77.059 47.018-126.69 112.322-147.587 203.747-2.612 23.51-7.836 44.407-11.754 67.916zM435.332 331.52c1.306-48.325 16.979-94.038 48.325-131.914 27.427-30.04 62.691-45.713 105.792-53.549 57.467-7.836 108.404 6.53 155.423 41.794 44.406 35.264 65.303 84.895 65.303 151.505 3.919 53.549-26.121 100.568-70.528 142.362-36.57 27.428-73.14 44.407-112.322 62.692-26.122 10.448-56.161 22.203-82.283 31.345-3.918 2.613-6.53 3.919-10.448-1.306-31.346-48.324-62.692-95.343-80.977-152.81-11.755-28.734-18.285-56.162-18.285-90.12z" style="fill:#000;fill-opacity:1;fill-rule:nonzero;stroke:none;"/>
</svg>
