<svg xmlns="http://www.w3.org/2000/svg" width="1000" height="1000">
  <path d="M703.445 980.05c-126.016 29.277-248.213 16.548-361.5-47.096-98.012-54.735-171.84-136.2-215.118-239.303-14.001-36.914-22.912-77.646-33.095-115.833 0-44.55-6.364-89.102-3.818-133.653 1.273-35.64 12.729-71.282 21.639-106.923 1.273 0 3.818-2.545 5.091-7.637 26.73-76.373 71.282-140.017 131.108-196.024 75.1-68.736 162.93-109.469 259.669-123.47 64.917-7.638 127.288-7.638 190.933 6.364 67.463 17.82 128.561 45.824 183.295 86.556 36.914 28.004 38.187 59.826 6.365 90.375-87.83 89.102-174.386 175.659-260.942 259.67-31.822 31.821-31.822 59.825 0 92.92 89.102 86.556 178.204 175.658 267.306 263.488 21.64 24.184 21.64 57.28-3.818 78.919-57.28 44.55-117.106 75.1-187.115 91.647z" style="fill:#000;fill-opacity:1;fill-rule:nonzero;stroke:none;"/>
</svg>
