<svg xmlns="http://www.w3.org/2000/svg" width="1000" height="1000">
  <path d="M955.537 381.371c0-14.997 3.749-27.495 0-32.494-29.995-59.988-62.488-121.226-93.732-178.715-1.25-9.998-12.498-18.747-19.997-22.496-76.235-44.991-149.97-92.482-226.206-137.474-16.247-2.5-28.745-8.748-46.241-2.5-96.232 14.998-187.464 29.995-278.697 47.492-11.248 3.749-27.495 8.748-38.742 18.746-66.238 69.987-131.225 133.724-194.963 207.46-7.499 11.248-16.247 32.494-18.747 47.491-3.749 82.484-8.748 168.718-12.497 256.201 0 9.998 3.75 27.495 8.748 36.243 24.995 54.99 48.74 112.479 76.236 168.718 7.498 12.497 14.997 27.495 21.246 36.243 67.487 43.741 127.475 88.733 191.213 137.473 11.248 6.25 28.744 11.248 38.742 11.248 79.985 6.25 158.72 14.997 237.455 19.997 9.998 0 27.495-5 38.742-11.248 64.988-36.243 127.476-76.236 191.214-116.228 12.497-9.998 23.745-19.996 31.244-32.494 37.493-63.738 71.236-127.475 109.979-197.462 3.75-3.75 3.75-16.247 3.75-23.745-3.75-1.25-6.25-1.25-12.499-7.499-29.994 27.495-33.743 69.987-56.239 101.23-21.246 32.494-43.741 71.237-63.738 109.98-47.49-38.743-88.733-69.987-88.733-129.976v-367.43c0-14.996 7.499-27.494 12.498-44.99 63.738 38.742 121.227 69.986 189.964 106.23zM75.705 388.87c-7.498-74.986-7.498-81.235 72.486-123.727 0 12.498 0 21.246-3.749 23.746-13.747 59.988-33.743 119.977-57.489 188.714-3.75-38.743-4.999-66.238-11.248-88.733zM105.7 603.828c4.999 0 7.498-3.749 7.498-3.749 47.491 41.242 88.733 87.483 138.724 136.224-37.493 18.746-68.737 34.993-107.48 51.24-13.747-66.237-26.245-128.725-38.742-183.715zm24.995-179.965c17.496-57.489 37.493-116.228 54.99-173.717 46.24 0 73.735 14.997 73.735 54.99V702.56c-32.494-29.995-57.489-49.99-81.234-77.486-91.233-94.981-91.233-61.238-47.491-201.211zm29.994 389.925c119.977-66.237 106.23-51.24 136.224 43.742 7.498 17.497 11.248 36.243 11.248 57.489-44.992-32.494-93.732-62.488-147.472-101.23zm44.991-592.386c12.498-47.491 37.493-81.235 63.738-116.228 9.998-6.249 33.744-16.247 42.492-8.748 43.742 2.5 86.233 13.747 134.974 22.495-11.248 28.745-18.746 49.99-29.994 67.487-23.746 58.74-34.993 62.489-93.732 58.74-11.248 0-18.747-5-28.745-5-27.494-7.498-58.738-12.497-88.733-18.746zm84.984 59.988c71.236-22.495 107.48-16.247 149.971 39.993 41.242 54.99 83.734 117.477 123.727 171.217 7.498 4.999 27.494 14.997 34.993 11.248 8.748-6.25 16.247-18.747 9.998-31.244 0-48.741-1.25-98.731-1.25-151.221 0-46.242 1.25-51.24 49.99-51.24 22.496 0 39.993 4.998 66.238 4.998v446.165c-66.237 26.245-104.98 14.997-144.972-33.744-47.491-58.738-89.983-118.727-137.474-179.965-1.25-9.998-22.496-14.997-29.994-11.248-8.748 1.25-13.748 22.496-13.748 29.994 2.5 52.49 5 107.48 5 156.22 3.749 48.741-2.5 51.24-44.992 51.24h-61.238c-16.247-42.491-17.497-387.425-6.249-452.413zm6.249 481.158h103.73c-14.997 54.99-34.993 104.98-52.49 161.22-19.996-61.24-36.243-106.23-51.24-161.22zM361.9 72.68c54.99-13.747 99.981-19.996 152.471-29.994-41.242 56.24-64.987 59.989-152.47 29.994zm8.749 867.334c22.495-59.988 36.243-112.478 57.489-168.718l158.72 136.224c-78.736 13.748-139.974 21.246-216.21 32.494zm64.987-237.454c-4.999-43.742-4.999-88.733 5-133.725 71.236 88.733 178.715 162.469 158.719 313.69-53.74-47.49-99.98-79.985-141.223-122.476-16.247-14.998-22.496-38.743-22.496-57.49zm37.493-558.643c113.728 73.736 118.727 176.216 98.731 298.692-9.998-16.247-22.495-22.495-28.744-33.743-22.496-27.495-43.742-54.99-67.487-79.985-63.738-73.736-58.74-96.231-2.5-184.964zm28.745-17.497H730.58c3.75 13.747 7.498 21.246 3.75 28.744-9.999 31.244 11.247 72.487-27.496 84.984-38.742 9.998-87.483 9.998-119.977-18.746-29.994-27.495-52.49-58.739-84.983-94.982zm29.994-39.992c47.49-63.738 76.235-63.738 163.718 9.998h-152.47c-5 0-8.749-7.499-11.248-9.998zm94.982 679.87c76.235-13.748 133.724 0 182.465 68.736-56.24 21.246-111.229 39.993-176.217 62.488-2.5-49.99-2.5-88.733-6.248-131.225zm139.973-618.632c46.241 59.988 86.233 111.229 126.226 166.218 0 3.75-3.75 3.75-3.75 6.249l-111.228-61.238c-39.993-26.245-21.246-64.988-11.248-111.23z" style="fill:#000;fill-opacity:1;fill-rule:nonzero;stroke:none;"/>
</svg>
