<svg xmlns="http://www.w3.org/2000/svg" viewBox="0 0 1000 1000"><path d="M698.33,474.521v51.955h184.841v194.361l-222.809,127.997v-99.924c0-18.55-9.996-35.807-26.089-45.036l-239.739-137.484c-3.595-2.094-5.828-5.978-5.828-10.139v-28.226c0-.855,.695-1.549,1.55-1.549h219.598c.855,0,1.549,.695,1.549,1.549v26.681c0,5.108-2.726,9.89-7.118,12.493l-75.726,41.484c-3.824,2.179-6.151,6.265-6.074,10.666,.077,4.351,2.494,8.313,6.318,10.375l31.946,18.452,2.918-1.52c.482-.251,40.055-19.26,70.851-38.136,26.888-16.48,29.356-43.217,26.841-55.699v-105.278c0-40.417-24.031-53.699-27.176-55.262l-83.728-47.716c13.922-8.102,42.255-24.445,71.819-40.636,42.243-23.133,39.005-54.367,38.085-59.769v-95.025l223.308,127.537v75.452h48.958v-102.378L499.496,0,66.872,250.253v499.493l432.625,250.254,430.633-248.52,2.998-1.73V474.521h-234.798Zm222.809,268.305l-421.635,243.326L78.862,742.83V257.169L499.505,13.846l421.134,242.829v83.462h-24.979v-70.422l-247.288-141.232v116.237l-.011,.618,.146,.652c.227,1.097,5.138,27.094-31.99,47.426-41.567,22.763-80.706,45.824-81.096,46.055l-8.906,5.252,101.904,58.074,.422,.219c.838,.403,20.531,10.265,20.531,44.53v106.577l.147,.652c.06,.268,5.736,26.977-21.265,43.526-26.085,15.987-56.373,30.496-67.214,36.199l-26.327-15.207-.238-.178,75.757-41.502,.093-.053c8.061-4.743,13.07-13.499,13.07-22.852v-26.681c0-7.465-6.074-13.539-13.539-13.539h-219.598c-7.466,0-13.54,6.074-13.54,13.539v28.226c0,8.412,4.516,16.266,11.818,20.519l239.773,137.504c12.376,7.097,20.064,20.368,20.064,34.634v120.639l246.788-141.772v-213.29h-184.841v-27.976h210.819v256.315ZM389.951,265.693l109.524,62.857,111.428-62.857c7.089-3.999,11.492-11.539,11.492-19.678V126.482c0-8.105-4.376-15.63-11.441-19.649l-111.481-62.845-109.448,62.857c-7.044,4.008-11.42,11.533-11.42,19.637v119.616c0,8.07,4.348,15.579,11.347,19.596Zm.643-139.212c0-3.804,2.054-7.336,5.381-9.228l103.553-59.471,105.518,59.483c3.306,1.881,5.36,5.413,5.36,9.217v119.534c0,3.82-2.067,7.358-5.394,9.235l-105.486,59.505-103.606-59.461c-3.285-1.885-5.326-5.409-5.326-9.197V126.482Zm220.36,607.813l-111.481-62.845-109.448,62.857c-7.045,4.007-11.421,11.531-11.421,19.636v119.616c0,8.07,4.348,15.578,11.347,19.595l109.524,62.857,111.428-62.857c7.089-3.999,11.492-11.539,11.492-19.677v-119.534c0-8.105-4.376-15.629-11.441-19.648Zm-.548,139.182c0,3.819-2.067,7.358-5.394,9.235l-105.486,59.505-103.606-59.462c-3.285-1.885-5.326-5.408-5.326-9.196v-119.616c0-3.803,2.053-7.335,5.381-9.227l103.553-59.471,105.518,59.483c3.306,1.881,5.36,5.412,5.36,9.216v119.534Zm-235.898-272.773c-13.498-7.877-21.881-22.472-21.881-38.103v-125.647c0-14.151,7.585-27.386,19.795-34.539l63.475-36.809,28.846,16.886-77.521,42.209c-5.932,3.283-9.617,9.534-9.617,16.314v32.987c0,6.898,5.612,12.51,12.51,12.51h219.77c6.898,0,12.51-5.612,12.51-12.51v-35.562c0-5.134-2.753-9.933-7.183-12.523l-247.512-144.763c-9.297-5.482-15.073-15.591-15.073-26.384v-125.334L104.839,272.228v455.542l245.789,141.801v-118.833c0-14.802,7.932-28.646,20.701-36.131l101.296-59.381-98.117-54.523Zm-9.242,103.56c-16.424,9.627-26.628,27.435-26.628,46.475v98.073l-221.81-127.967V279.156l223.808-128.974v104.587c0,15.018,8.037,29.085,20.992,36.723l247.531,144.774c.769,.449,1.246,1.282,1.246,2.173v35.562c0,.287-.233,.52-.52,.52h-219.77c-.287,0-.52-.233-.52-.52v-32.987c0-2.42,1.316-4.651,3.433-5.824l78.525-42.765c3.611-1.998,5.797-5.655,5.846-9.782,.05-4.126-2.047-7.835-5.608-9.919l-35.898-21.013-69.533,40.358c-15.867,9.296-25.724,26.495-25.724,44.884v125.647c0,19.904,10.687,38.486,27.891,48.495l79.914,44.409-83.176,48.758Z"/></svg>