<svg xmlns="http://www.w3.org/2000/svg" viewBox="0 0 1000 1000"><path d="M751.38 992.157c-29.054-10.105-56.844-20.211-87.161-29.054-5.053-1.263-112.427-37.896-112.427-37.896-8.842-2.526-16.421-10.106-16.421-18.948 0-8.843 7.579-18.949 16.421-18.949 26.528-6.316 54.319-16.421 79.583-24 27.79-8.843 53.055-17.686 80.846-25.265 6.316 0 12.632 1.263 18.948 1.263 3.79 2.527 8.843 2.527 12.632 3.79V205.174c-31.58 10.106-56.845-3.79-79.582-17.685-24.001-12.632-37.897-16.422-60.635-26.527-13.895-6.316-31.58-15.159-45.475-22.738-8.843-3.79-18.949-12.632-20.212-24.001 0-8.843 5.053-15.159 17.685-20.212 32.844-12.632 64.424-27.79 98.53-40.423 25.265-8.842 49.266-18.948 73.267-27.79 31.58-16.422 45.476-16.422 59.371-1.263 12.633 8.842 41.687 27.79 85.9 56.844 15.158 10.106 27.79 17.685 40.422 25.265 20.211 16.421 27.79 27.79 27.79 51.791v723.823c0 24-11.368 40.423-35.37 49.265-22.737 8.843-44.212 20.211-64.423 31.58-24.001 8.843-45.476 18.949-68.214 29.054-5.053 3.79-12.632 3.79-21.475 0zM59.14 886.047V153.382c0-18.948 7.579-30.317 21.474-40.422 31.58-20.212 63.161-42.95 92.215-64.424 18.948-13.896 36.633-26.528 55.581-39.16 8.843-7.58 15.159-3.79 20.212 0 48.002 25.264 101.057 45.476 150.322 65.687l48.003 22.738c22.737 7.58 22.737 25.264 0 39.16-40.423 17.685-77.057 36.633-116.216 56.844-12.632 5.053-26.528 11.37-40.423 17.685-5.053 3.79-25.264-1.263-34.107-5.052v635.397c45.476-2.527 85.899 12.632 125.058 25.264 21.475 10.106 44.213 16.422 68.214 22.738 0 0 11.369 7.58 13.895 16.422 2.527 11.369-2.526 16.422-17.685 21.474-18.948 7.58-39.16 13.896-56.844 18.949-31.58 8.842-107.374 32.843-122.532 40.423-5.053 2.526-10.106 5.052-20.212 5.052h-16.421c-24.002-10.105-48.003-20.211-72.004-29.054-21.474-11.369-45.475-20.211-69.477-29.054-21.474-11.368-29.053-26.527-29.053-48.002zm36.633-3.79c0 7.58 0 12.633 1.263 16.422 16.422 5.053 34.107 12.633 48.002 20.212 22.738 12.632 48.002 20.211 72.003 31.58V61.168c-21.474 16.422-41.686 29.054-64.424 44.212-15.158 11.37-31.58 20.212-45.475 31.58-6.316 3.79-11.37 12.633-11.37 21.475V336.55zM256.2 950.472c7.58-2.526 13.895-5.053 21.475-7.58 39.16-12.631 75.793-24 111.163-35.37-26.528-10.105-55.582-17.684-80.846-25.263-17.685-5.053-34.107-5.053-51.792-5.053zm0-797.089c0 17.685 12.632 27.791 25.264 20.212 29.054-11.369 56.845-22.738 88.425-40.423 11.37-6.316 24.002-11.369 35.37-18.948-24-8.843-48.002-17.685-70.74-27.79-25.264-8.843-50.528-20.212-78.319-31.581zm334.752-36.633c3.79 1.263 7.58 1.263 11.369 2.527 41.686 13.895 75.793 39.16 109.9 54.318 12.632 3.79 31.58-3.79 31.58-10.106V54.852c-27.79 11.369-53.055 22.738-79.582 31.58-25.265 8.843-48.003 18.948-73.267 30.317zm24.001 789.51c-8.842 3.79 104.847 39.16 128.848 48.002v-53.055c0-22.738-11.369-31.58-32.843-24.001-32.844 6.316-63.161 16.422-96.005 29.054zm165.481 44.212c7.58-3.79 16.422-7.58 24.001-11.369 29.054-11.369 56.845-21.474 84.636-36.633 12.632-3.79 12.632-3.79 12.632-18.948V163.488c0-20.211-3.79-21.474-3.79-20.211-30.317-24.001-64.424-45.476-98.53-70.74l-18.949-11.37z"/></svg>