<svg xmlns="http://www.w3.org/2000/svg" viewBox="0 0 1000 1000"><path d="M500,0C223.858,0,0,223.858,0,500s223.858,500,500,500,500-223.858,500-500S776.142,0,500,0Zm-88.629,738.92c-2.217,18.968-11.13,36.446-25.061,49.152-13.93,12.706-31.917,19.76-50.574,19.835-18.978,.352-37.373-6.725-51.428-19.783-14.056-13.061-22.713-31.12-24.205-50.492h-1.399V433.067h153.506l-.839,305.853Zm349.4,15.125c-1.102,8.713-3.918,17.103-8.279,24.669-4.361,7.566-10.173,14.147-17.087,19.349-6.917,5.199-14.789,8.912-23.147,10.907-8.354,1.998-17.019,2.243-25.468,.714-8.449-1.529-16.51-4.792-23.691-9.6-7.184-4.805-13.338-11.05-18.097-18.361l-175.172-243.309c-6.943-9.818-11.128-21.39-12.106-33.467-.975-12.077,1.294-24.197,6.565-35.048,5.271-10.851,13.342-20.018,23.339-26.509,9.994-6.491,21.536-10.059,33.369-10.315h48.934c6.565,.287,13.123-.755,19.297-3.069,6.17-2.314,11.836-5.854,16.67-10.415,4.831-4.561,8.736-10.055,11.487-16.165,2.754-6.111,4.303-12.717,4.554-19.441v-12.308c-.274-14.141-5.809-27.642-15.473-37.749s-22.729-16.058-36.534-16.638H258.862v-62.688c.074-17.286,6.814-33.842,18.754-46.065,11.94-12.223,28.112-19.124,44.997-19.199h220.333c23.209,0,95.347-1.86,150.152,49.521,17.195,16.715,30.716,36.988,39.657,59.47,8.944,22.482,13.107,46.657,12.211,70.915,0,80.292-32.016,126.235-58.999,150.567-14.681,13.296-31.527,23.857-49.771,31.201l110.867,153.858h.14c5.391,6.832,9.375,14.714,11.705,23.166,2.334,8.452,2.966,17.302,1.865,26.012Z"/></svg>