<?xml version="1.0" encoding="utf-8"?>
<!-- Generator: Adobe Illustrator 26.0.1, SVG Export Plug-In . SVG Version: 6.00 Build 0)  -->
<svg version="1.1" id="Layer_1" xmlns="http://www.w3.org/2000/svg" xmlns:xlink="http://www.w3.org/1999/xlink" x="0px" y="0px"
	 viewBox="0 0 1000 1000" style="enable-background:new 0 0 1000 1000;" xml:space="preserve">
<path d="M318.4,509l7,25.9h-49.7l7-25.9c9.3-34.3,15.3-62.1,17.9-83.3C303.1,447,309.1,474.7,318.4,509z M679,585.9
	c3.7,2.2,7.8,3.7,12.1,4.5c4.3,0.8,8.6,1.2,12.8,1.2c4.2,0,8.5-0.4,12.8-1.2c4.3-0.8,8.3-2.3,12.1-4.5c3.7-2.2,6.7-5.3,8.9-9.1
	c2.2-3.9,3.3-7.9,3.3-12.1c0-15.9-12.4-31.2-37.1-45.9c-24.7,14.7-37.1,30-37.1,45.9c0,4.2,1.1,8.2,3.3,12.1
	C672.3,580.6,675.2,583.6,679,585.9z M703.8,475.4c20.5-12.6,30.8-26.7,30.8-42.4c0-4.9-1.4-9.6-4.2-14.2c-2.8-4.6-6.7-7.8-11.6-9.6
	c-4.9-1.9-9.9-2.8-15.1-2.8c-5.1,0-10.2,0.9-15.1,2.8c-4.9,1.9-8.8,5.1-11.6,9.6c-2.8,4.5-4.2,9.3-4.2,14.2
	C673,448.7,683.3,462.8,703.8,475.4z M995.3,500c0,273.4-221.6,495-495,495S5.3,773.4,5.3,500S226.9,5,500.3,5
	S995.3,226.6,995.3,500z M586.2,142.6c46.4,42.4,78.8,101.7,96.7,144.7h113.9L650.7,142.6H586.2z M667.1,496.8
	c-28.9,18.7-43.4,41.3-43.4,67.9c0,9.8,2.1,19.3,6.3,28.4c4.2,9.1,10.3,16.6,18.4,22.4c8.1,5.8,16.9,9.8,26.4,11.9
	c9.6,2.1,19.3,3.2,29.1,3.2c9.8,0,19.5-1.1,29.1-3.2c9.6-2.1,18.4-6.1,26.4-11.9c8.1-5.8,14.2-13.3,18.6-22.4
	c4.3-9.1,6.5-18.6,6.5-28.4c0-26.6-14.6-49.2-43.8-67.9c24.7-17.5,37.1-38.6,37.1-63.4c0-9.3-1.8-18.4-5.4-27.3
	c-3.6-8.9-9-16.3-16.3-22.4c-7.2-6.1-15.4-10.3-24.5-12.6c-9.1-2.3-18.3-3.5-27.7-3.5c-9.3,0-18.6,1.2-27.7,3.5
	c-9.1,2.3-17.3,6.5-24.5,12.6c-7.2,6.1-12.7,13.5-16.3,22.4c-3.6,8.9-5.4,18-5.4,27.3C630,458.2,642.3,479.3,667.1,496.8z
	 M515.4,287.3h140.4c-32.7-77.9-85.8-128.9-108.2-144.7h-32.2V287.3z M348.5,287.3h138.9V142.6h-32.9
	C393.2,186.7,358.3,257.4,348.5,287.3z M325.4,370.4h-49.7l-69.3,257.3h44.5l14.4-53.9h70.7l14.4,53.9h44.5L325.4,370.4z
	 M203.8,287.3h117.4c15.8-57.3,77.4-133.9,96-144.7h-68.8L203.8,287.3z M414.4,857.4C368,815,335.6,755.7,317.7,712.7H203.8
	l146.1,144.7H414.4z M485.3,712.7H344.9c32.7,77.9,85.7,128.9,108.2,144.7h32.2V712.7z M502.9,630.5c10.3,0,20.5-1.3,30.6-3.9
	c10.2-2.6,19.3-7.2,27.3-13.8c8.1-6.7,14.2-14.8,18.4-24.5c4.2-9.7,6.3-19.7,6.3-29.9c0-8.9-1.7-17.5-5.1-25.9
	c-3.4-8.4-8.3-15.8-14.7-22.1c-6.4-6.3-13.6-11.3-21.5-15.1c7-3.7,13.2-8.6,18.7-14.7c5.5-6.1,9.7-12.9,12.6-20.5
	c2.9-7.6,4.4-15.5,4.4-23.6c0-9.6-1.9-19-5.8-28.2c-3.9-9.2-9.5-17-17-23.5c-7.5-6.4-15.9-10.9-25.4-13.5
	c-9.5-2.6-19.1-3.9-28.9-3.9c-9.3,0-18.7,1.2-28,3.5c-9.3,2.3-17.7,6.6-25.2,12.8c-7.5,6.2-13.1,13.7-17,22.6
	c-3.9,8.9-5.8,18.1-5.8,27.7H470c0-5.4,1.6-10.4,4.7-15.1c3.2-4.7,7.3-7.9,12.4-9.8c5.1-1.9,10.4-2.8,15.8-2.8
	c4.4,0,8.7,0.6,12.8,1.8c4.1,1.2,7.8,3.2,11,6c3.3,2.8,5.7,6.2,7.4,10.3c1.6,4.1,2.5,8.3,2.5,12.8c0,6.1-1.5,11.9-4.4,17.5
	c-2.9,5.6-6.9,10.2-12.1,13.7c-5.1,3.5-10.8,5.7-17,6.7c-6.2,0.9-12.3,1.4-18.4,1.4v39.2c6.8,0,13.5,0.5,20.1,1.4
	c6.7,0.9,12.8,3.3,18.6,7c5.7,3.7,10.3,8.6,13.7,14.7c3.4,6.1,5.1,12.5,5.1,19.3c0,4.7-1,9.3-3,14c-2,4.7-4.9,8.5-8.8,11.6
	c-3.9,3-8.2,5.1-13,6.3c-4.8,1.2-9.6,1.8-14.5,1.8c-6.1,0-12-0.9-17.9-2.8c-5.8-1.9-10.7-5.3-14.5-10.3c-3.9-5-5.9-10.6-6.1-16.6
	h-43.1c0,10,2.2,19.7,6.5,29.1c4.3,9.3,10.5,17.1,18.6,23.3c8.1,6.2,17,10.4,26.8,12.8S492.9,630.5,502.9,630.5z M652.1,712.7H513.2
	v144.7h32.9C607.4,813.3,642.3,742.6,652.1,712.7z M796.9,712.7H679.4c-15.8,57.3-77.4,133.9-96,144.7h68.8L796.9,712.7z"/>
</svg>
