<svg xmlns="http://www.w3.org/2000/svg" viewBox="0 0 1000 1000"><path d="M500.496 995.003c275.935 0 494.507-224.506 494.507-495.496C995.003 226.54 773.464 5 500.496 5 223.572 5 5 229.506 5 499.507c0 276.924 224.506 495.496 495.496 495.496zM112.803 446.1c11.868-79.12 45.494-147.363 98.901-205.715 55.385-61.319 124.616-99.89 204.726-117.692 81.1-17.803 161.21-10.88 239.341 20.769 68.242 28.681 124.616 73.187 168.133 133.517 2.967 4.945 2.967 6.923 0 9.89-36.594 32.638-71.21 65.275-106.814 96.923-34.615 31.649-70.22 64.286-104.835 96.924-36.594 32.637-75.165 67.253-111.759 100.88 0 0-.989 0-2.967 1.977-.989-1.978-2.967-4.945-5.934-6.923-23.736-25.714-48.462-51.428-73.187-77.143-1.978-2.967-1.978-4.945.989-6.923 46.484-42.528 91.978-85.055 138.462-127.583l89.011-80.11c.99-1.978 2.967-2.967 5.934-4.945-2.967-1.978-4.945-3.956-6.923-4.945-30.66-19.78-65.275-32.638-101.868-38.572-58.352-8.9-114.726 0-166.155 28.682-68.242 34.615-113.736 89.011-135.495 163.187-16.813 56.374-12.857 112.748 8.902 167.144 5.934 12.857 11.868 24.725 18.79 36.593l20.77 29.67c.99 1.979 2.967 3.957 3.956 5.935 7.912 7.912 14.835 15.824 22.748 22.747 5.934 5.934 11.868 10.88 18.79 16.813 6.924 3.956 13.847 9.89 21.76 13.846 9.89 5.934 18.79 10.88 27.692 15.825 8.9 2.967 16.813 6.923 25.714 10.879 3.956 1.978 7.912 1.978 11.868 2.967 12.857 2.967 24.725 5.934 36.594 8.9 13.846.99 27.692 1.979 40.55 2.968 10.878 0 20.768-.99 31.648-.99 13.846-1.977 25.714-4.944 39.56-6.922 12.857-4.945 25.715-8.901 38.572-13.846 9.89-4.945 20.77-10.88 30.66-15.825 8.9-5.934 18.79-11.868 27.692-17.802 6.923-6.923 13.846-12.857 20.769-17.802l5.934-5.934c3.956-3.956 8.901-8.901 12.857-13.846 5.934-6.924 10.88-13.847 16.813-19.78 1.978-5.935 5.935-10.88 9.89-16.814 0-1.978 1.979-2.967 2.968-4.945 0-.989.989-1.978 1.978-2.967.989-1.978.989-2.967 1.978-3.956l.989-.99c0-.988.989-1.977.989-2.966.989-.99.989-1.978.989-3.956l2.967-2.967c0-1.978.989-2.967.989-3.956.989-1.978 1.978-3.956 2.967-4.945.989-1.978.989-2.967 1.978-3.956 1.978-7.913 4.945-16.814 8.901-25.715v-.989c.989-.989.989-1.978.989-3.956 0-.989.989-1.978.989-1.978 0-2.967.989-5.934.989-8.901 0 0 .989-.99.989-1.978.989-5.934 1.978-12.857 3.956-19.78v-5.934c.99-1.978.99-4.946.99-5.935 0-.989 0-1.978.988-2.967 0-6.923.99-14.835.99-21.758 7.911-5.934 14.834-13.846 21.757-20.77l62.308-56.373c7.912-6.923 15.825-13.846 24.726-21.758.989 4.945.989 8.9 2.967 12.857 5.934 23.736 8.9 48.462 8.9 72.198 1.979 20.77.99 40.55-1.977 60.33-2.967 15.824-4.945 30.66-8.901 46.483-.99 8.902-3.956 16.814-6.923 25.715-5.934 19.78-14.836 39.56-24.726 58.352-1.978 3.956-3.956 5.934-5.934 9.89-2.967 5.934-6.923 12.857-10.879 17.802-8.901 13.846-18.791 26.703-27.692 38.572-.99 0-1.978.989-1.978.989-3.956 5.934-7.913 10.879-11.869 15.824-8.9 7.912-16.813 14.835-24.725 21.758l-35.604 29.67c-2.968 1.979-5.935 3.957-7.913 5.935-15.824 8.9-31.648 17.802-48.461 27.692-14.835 5.934-29.67 12.857-44.506 18.791-4.945 1.978-9.89 2.967-14.835 3.956-9.89 2.967-20.77 5.934-30.66 7.913-10.879 2.967-22.747 4.945-34.615 5.934-7.912.989-16.813 1.978-25.714 1.978h-1.978c-9.89.989-19.78.989-29.67.989-18.792-1.978-38.572-3.956-58.353-4.945-23.736-3.956-46.483-8.902-67.253-18.792-12.857-3.956-24.725-8.9-37.582-13.846-5.934-3.956-12.857-6.923-19.78-10.879-14.836-9.89-29.671-18.791-43.517-27.692-9.89-7.913-19.78-16.814-29.67-24.726-8.902-9.89-18.792-18.791-28.682-28.681-9.89-12.857-19.78-24.726-29.67-36.594-8.902-12.857-16.814-25.714-24.726-38.571-3.956-5.934-5.934-11.868-8.901-17.803-9.89-19.78-16.813-40.55-23.736-61.318-12.857-50.44-16.814-100.88-9.89-152.309z"/></svg>