<?xml version="1.0" encoding="UTF-8"?><svg id="a" xmlns="http://www.w3.org/2000/svg" viewBox="0 0 1000 1000"><path d="M556.857,419.319c-5.482-30.408,13.991-49.951,26.43-70.454,7.601-12.546,27.849-13.52,42.142-4.458,20.663,13.023,21.953,38.395,18.333,56.124-5.662,27.686-18.979,55.055-34.685,78.859-11.976,18.178-29.937,16.392-42.311-5.496-10.255-18.141-4.641-38.514-9.908-54.576Zm-123.596,45.877c12.806-.942,22.401-5.121,28.428-19.811,10.097-24.531,22.915-47.691,16.919-76.514,1.368-17.069,2.824-34.747-7.169-51.701-15.018-25.491-33.813-23.327-50.713-5.4-30.298,32.123-35.286,92.593-15.545,133.581,6.258,13.04,13.94,20.88,28.081,19.845Zm258.209,21.622c-7.053-6.766-23.011,5.792-29.737,17.348-6.393,10.947-5.332,23.493,4.051,30.575,15.774,11.869,6.111,21.885,2.675,34.668-18.169,68.208-69.647,98.317-131.888,112.249-43.575,9.787-89.12-3.484-123.246-26.893-37.004-25.403-59.47-68.47-79.708-110.42-14.6-30.222-26.594-55.746,11.646-77.152,12.623-7.067,20.203-19.814,13.712-35.723-6.689-16.395-21.755-17.25-35.334-14.778-17.354,3.434-35.365,.621-50.846-7.936-11.102-5.846-23.919-9.576-34.589,2.474-10.673,12.05-2.844,23.586,.164,35.489,4.477,17.63,23.425,27.57,23.456,47.991,.082,57.642,21.608,104.611,57.436,151.736,43.33,57.019,95.397,85.311,163.01,99.629,27.073,5.727,48.222-9.511,80.117-2.184,50.764,1.786,87.387-39.022,123.447-72.849,36.065-33.822,36.11-95.214,84.512-123.672,15.43-9.079,14.871-26.729,7.88-41.566-19.82-41.88-60.506,6.139-86.758-18.985Zm296.387,.547c.031,10.727,.361,21.541,.147,32.186-.378,18.559-2.381,36.812-10.507,54.398-22.633,48.992-41.823,99.372-63.054,149.064-21.459,50.2-62.326,86.73-92.274,130.934-12.504,18.477-35.007,21.346-50.86,35.458-70.637,62.879-154.52,101.014-248.202,107.616-74.333,5.231-150.588,7.691-220.528-29.155-10.986-5.778-23.541-9.226-35.766-11.802-86.394-18.257-131.16-86.499-177.249-151.008-14.073-19.679-31.782-37.673-40.503-62.137-20.153-56.508-23.919-115.933-34.476-174.357,.677-23.341-3.899-45.231-6.921-68.338-3.668-28.1,7.499-51.689,17.56-76.946,9.663-24.069,11-48.828,17.924-73.591,1.8-6.371,4.212-12.809,8.786-17.613,31.554-33.213,44.701-80.969,72.685-118.063,13.754-18.46,28.783-35.935,44.98-52.296,44.949-45.034,100.766-74.895,149.927-113.854,18.42-14.575,39.645-11.325,59.106-17.546C445.605,8.855,516.022-5.835,585.206,2.253c73.588,8.599,146.226,31.596,212.992,65.057,22.748,11.407,43.203,34.863,60.018,55.317,42.235,51.404,95.809,99.804,109.255,166.099,7.383,36.499,19.924,71.808,24.647,108.951l-.068-.15c3.752,29.765-4.308,59.973-4.192,89.839Zm-119.353,26.142c15.283-90.705-5.665-179.105-67.015-259.414-70.553-92.494-159.576-130.559-269.827-136.932-29.184-1.684-51.571,16.888-80.512,18.784-73.128,4.839-126.931,50.564-177.974,98.568-39.645,37.258-75.89,78.658-97.462,127.82-15.512,35.376-34.096,69.562-39.053,112.006-5.335,46.749,20.55,92.181-.378,137.655-2.381,5.265-.034,14.843,3.535,20.127,40.999,60.844,53.255,136.351,127.312,181.467,59.27,36.102,117.003,59.49,182.285,70.307,31.387,6.435,57.984-14.908,84.879-15.452,68.882-1.388,118.67-37.935,171.533-73.427,100.65-67.579,144.211-171.35,162.742-281.355l-.065-.152Z"/></svg>