<svg xmlns="http://www.w3.org/2000/svg" width="1000" height="1000">
  <path d="M5 500.496c0 271.98 220.55 494.507 495.496 494.507 271.98 0 494.507-220.55 494.507-495.496C995.003 227.528 773.464 5 500.496 5 226.54 5 5 225.55 5 500.496zm134.506 181.979V308.627c0-20.769 5.934-34.615 26.703-41.538C270.056 204.78 372.913 142.473 476.76 80.165c21.76-5.934 35.605-5.934 56.375 0 103.846 62.308 207.693 124.616 310.55 180 20.77 13.847 26.704 35.605 26.704 62.309v353.078c0 20.769-5.935 33.626-20.77 47.472-108.791 62.308-212.638 118.682-316.484 180.001-20.77 14.835-34.616 14.835-56.374 0-103.847-61.319-206.704-117.693-310.55-180-20.77-13.847-26.704-20.77-26.704-40.55zm33.626-19.78c0 12.857 7.913 26.703 12.858 26.703 35.604 19.78 71.209 40.55 105.824 60.33V239.396c-43.516 20.77-70.22 34.616-105.824 56.374-4.945 4.945-12.858 20.77-12.858 26.704zm159.232 87.033c0 14.835 6.923 29.67 12.857 35.604 49.45 26.704 96.923 48.462 140.44 76.154 4.945 6.923 26.703 6.923 32.637 6.923 47.473-26.703 96.924-56.373 146.375-83.077-111.76-172.088-222.529-338.243-325.386-504.397-6.923 0-6.923 0-6.923 6.923zm0-538.024C450.056 384.781 560.826 556.87 670.607 729.947c7.912-13.846 7.912-13.846 7.912-20.769V232.473c0-5.934-13.846-27.692-21.759-27.692-41.538-27.693-90.989-54.396-130.55-83.077-13.846 0-27.692-6.923-35.604 0-48.462 28.681-103.846 55.384-158.242 90zm378.792 538.024c35.605-19.78 70.22-33.627 98.902-53.407 19.78-6.923 19.78-20.77 19.78-33.627V329.397c0-12.858 0-28.682-6.923-28.682-34.616-19.78-69.231-40.55-111.759-68.242z" style="fill:#000;fill-opacity:1;fill-rule:nonzero;stroke:none;"/>
</svg>
