<svg xmlns="http://www.w3.org/2000/svg" width="1000" height="1000">
  <path d="M500.496 5C223.572 5 5 229.506 5 500.002c0 276.43 224.506 495.001 495.002 495.001 276.43 0 495.001-224.506 495.001-495.001C995.003 226.539 773.464 5 500.496 5zm-231.43 339.232c11.869-92.967 84.067-157.253 178.023-157.253h268.023c13.846 0 39.56 11.868 46.484 23.736 0 13.846-6.923 40.55-20.77 53.407-43.516 66.264-90.989 133.517-143.406 203.737 12.857 6.923 26.703 6.923 32.637 6.923 85.055 26.703 144.396 113.736 131.539 197.803-6.923 98.901-84.066 163.187-177.034 170.11H320.496c-19.78-6.923-39.561-12.857-46.484-23.736-4.945-14.835 0-41.539 6.923-53.407 45.495-60.33 86.044-119.67 132.528-177.034 6.923-7.912 6.923-20.769 12.857-27.692-12.857-6.923-20.77-13.846-32.637-13.846-87.034-32.638-137.473-118.682-124.616-202.748zm84.067 32.637c7.912 51.43 47.473 90.99 93.956 90.99 18.792 0 44.506 0 49.451-6.923 47.473-58.352 93.956-122.638 139.451-189.891-72.198 0-139.45 0-202.748 6.923-46.483 0-86.044 52.418-80.11 98.901zm40.55 374.837c80.11 0 143.407 6.923 216.594 0 39.56-5.934 73.187-52.418 67.253-105.825 0-44.505-41.539-85.055-87.034-85.055-19.78-6.923-53.406-6.923-59.34 6.923-51.43 58.352-90.99 117.693-137.473 183.957z" style="fill:#000;fill-opacity:1;fill-rule:nonzero;stroke:none;"/>
</svg>
