<?xml version="1.0" encoding="UTF-8"?><svg id="a" xmlns="http://www.w3.org/2000/svg" viewBox="0 0 1000 1000"><path d="M628.21,525.737l-127.181,294.133-130.496-294.133h257.677ZM349.848,40.315c34.967,12.341,164.55,53.479,176.891,60.909,12.341,7.43-117.242,19.309-232.427,25.48-50.617,2.712-83.689-6.899-104.932-18.516-1.012,.804-2.014,1.62-3.019,2.432l59.517,134.15c11.667,1.98,22.89,4.973,31.98,9.461,35.574,17.562,88.445,8.228,84.332,24.682-4.114,16.455-82.275,10.284-82.275,10.284,0,0-4.689,1.912-12.204,4.781l11.567,26.072h437.871l23.664-54.728c-43.129,16.782-83.47,29.121-82.433,17.704,28.908-13.009,66.702-38.716,103.571-66.59l47.288-109.362C724.144,40.016,616.747,0,500,0c-60.621,0-118.72,10.794-172.487,30.555,6.293,3.424,13.749,6.729,22.335,9.76Zm332.614,359.953H314.867l37.415,84.332h293.716l36.464-84.332Zm317.305,84.332c-1.104-36.412-6.106-71.839-14.593-105.89-18.068-3.507-47.952-8.62-62.47-7.238-21.613,2.057-48.353,12.341-77.149,4.114,0,0-9.683-29.087,115.896-68.432-11.884-28.398-26.324-55.456-43.012-80.91-21.366-4.548-44.632-8.447-61.089-8.279l-120.437,266.636h262.854ZM117.421,241.163c13.163,1.355,24.821,1.735,34.123,1.712l-31.089-68.362c-13.352,15.554-25.756,31.942-37.141,49.067,9.672,8.752,21.426,16.277,34.107,17.583Zm600.91,284.574l-214.22,474.263c265.653-2.144,481.952-211.413,495.265-474.263h-281.045ZM186.158,318.987c-9.644,1.722-17.944,2.325-23.485,1.063-26.739-6.093-41.137,16.455-90.502,51.422-28.249,20.01-52.441,45.395-67.982,63.462-2.122,16.321-3.447,32.891-3.955,49.666H261.473l-75.315-165.613Zm94.023,206.75H.624c13.313,262.841,229.596,472.104,495.237,474.263l-215.679-474.263Z"/></svg>