<svg xmlns="http://www.w3.org/2000/svg" width="1000" height="1000">
  <path d="M729.326 366.502H480.834c-14.539 0-14.539 0-14.539-13.218V102.149h263.03zM5 501.322v-3.966c5.287-2.644 7.93-5.287 10.574-7.93l167.864-167.864c1.322-1.322 3.965-6.61 6.609-7.931C252.17 377.076 314.292 437.877 375.093 500L190.047 685.046c-5.287-3.965-6.61-6.609-10.574-11.896C123.959 617.636 68.445 562.122 12.93 507.93c-1.321-2.643-5.287-3.965-7.93-6.609zM466.295 897.85V645.393c0-13.217 0-13.217 14.54-13.217h235.273c13.218 0 13.218 0 13.218 13.217V897.85zm263.03-280.214V366.502H995v263.03h-11.896c-79.306 0-161.255 0-239.239 2.644-10.574 0-14.54-3.966-14.54-14.54z" style="fill:#000;fill-opacity:1;fill-rule:nonzero;stroke:none;"/>
</svg>
