<?xml version="1.0" encoding="utf-8"?>
<!-- Generator: Adobe Illustrator 26.0.1, SVG Export Plug-In . SVG Version: 6.00 Build 0)  -->
<svg version="1.1" id="Layer_1" xmlns="http://www.w3.org/2000/svg" xmlns:xlink="http://www.w3.org/1999/xlink" x="0px" y="0px"
	 viewBox="0 0 1000 1000" style="enable-background:new 0 0 1000 1000;" xml:space="preserve">
<g>
	<path d="M799,532.6l-0.3,0.5c-0.1-0.2-0.2-0.4-0.2-0.4L516.3,1000l276-192.6c16.4-11,29.9-25.8,39.3-43.2
		c25.5-53.2,26.2-115,1.9-168.7C823.5,574.3,799,532.6,799,532.6z"/>
	<path d="M168.5,235.9c-25.5,53.2-26.2,115-1.9,168.7c9.6,21.1,34.3,62.9,34.3,62.9L483.8,0l-276,192.7
		C191.4,203.7,177.9,218.5,168.5,235.9z"/>
	<path d="M99,357.5c-2.3-14.9-2.3-30,0-44.8c-4.2,7.8-12.4,23.7-12.4,23.7c-16.3,33.3-27.5,68.9-33,105.6
		c-3.2,38.8-2.8,77.8,1,116.5C60.9,649,106,732.3,178.2,787.2L483.4,1000c0,0-191-275.2-352.1-549.1C115,422,104.1,390.3,99,357.5z"
		/>
	<path d="M948,477.9c-0.5-12.1-1.3-24.3-2.5-36.4c-6.3-90.5-51.3-173.8-123.5-228.7L516.6,0c0,0,190.9,275.2,352.1,549.1
		c16.3,28.9,27.2,60.6,32.2,93.4c2.3,14.9,2.3,30,0,44.8c4.2-7.8,12.4-23.7,12.4-23.7c16.3-33.3,27.5-68.9,33-105.6
		C948.5,531.3,949.1,504.6,948,477.9z"/>
</g>
</svg>
