<svg xmlns="http://www.w3.org/2000/svg" width="1000" height="1000">
  <path d="M576.878 690.94c26.376-42.705 10.048-94.2-33.912-118.065-41.448-22.608-91.688-8.792-118.064 30.144l-1.256 1.256C388.478 668.331 315.63 709.78 241.526 709.78c-74.105 0-143.185-37.68-182.12-100.48-36.425-59.033-41.449-138.161-2.513-204.73 37.68-65.311 106.76-101.735 182.12-104.247 74.105-2.512 143.185 37.68 182.121 101.736 22.608 36.424 75.36 52.752 120.576 27.632 41.448-22.608 54.008-77.872 30.144-116.808-38.936-64.057-38.936-138.16-2.512-202.217C649.727-30.006 853.2-28.75 933.583 105.642c84.153 140.672-18.84 307.72-178.352 307.72-47.728 0-86.664 40.193-86.664 86.665 0 47.728 43.96 86.664 89.176 86.664 75.36 0 146.952 36.424 183.376 100.48 37.68 61.545 38.936 140.673 2.512 203.473-37.68 65.312-102.992 101.736-180.864 104.248-75.36 2.512-149.464-40.192-183.377-101.736-33.912-61.544-42.704-136.904-2.512-202.216z" style="fill:#000;fill-opacity:1;fill-rule:nonzero;stroke:non"/>
</svg>
