<svg xmlns="http://www.w3.org/2000/svg" viewBox="0 0 1000 1000"><path d="M155.11 671.036V216.58c8.76 4.38 13.14 7.665 13.14 7.665 87.606 88.702 177.403 177.403 265.009 265.01 14.236 9.855 7.666 18.616 0 28.471-26.282 25.187-53.659 48.184-75.56 74.466-48.184 48.183-61.325 106.222-48.184 171.927 13.141 79.94 79.94 141.265 159.882 150.026 87.606 14.236 167.547-25.187 202.59-100.747 40.517-75.56 26.281-164.262-29.568-225.587-24.092-21.901-45.993-40.518-67.895-62.42-7.665-7.665-12.046-17.52-26.282-30.661 8.76-5.476 18.617-9.856 26.282-13.141 27.377-30.662 58.04-58.04 84.321-88.702 17.521-14.236 17.521-36.137 0-48.183-13.14-18.616-33.947-18.616-52.564 0-18.616 17.521-39.422 39.423-62.42 56.944-13.14 17.521-26.28 30.662-44.897 49.279-7.666-9.856-13.141-14.236-17.522-18.617C370.84 321.706 264.617 216.58 159.49 110.356l-17.52-17.521c-27.378-15.331-52.565 0-58.04 25.187-4.38 9.855-4.38 13.14-4.38 21.901 0 176.308 0 359.186 4.38 535.494 0 14.236-4.38 22.996-21.902 30.662C17.13 733.456-3.677 786.019 8.37 834.203c13.14 49.279 58.039 79.94 111.698 79.94 48.183 4.381 93.081-25.186 105.127-79.94 17.521-48.183-4.38-100.747-48.183-122.649-17.522-8.76-21.902-21.901-21.902-40.518zm-75.561 133.6c0-18.616 18.616-36.138 40.518-40.518 21.901 0 39.422 17.521 39.422 40.518 0 21.901-22.996 39.423-39.422 39.423-21.902 0-40.518-17.522-40.518-39.423zm318.668-142.36c26.281-40.518 65.704-70.085 100.747-110.603 36.137 40.518 75.56 76.655 107.317 116.078 30.663 43.803 18.617 110.603-31.757 148.93-43.803 35.043-110.603 35.043-154.406-3.284-44.898-35.043-56.944-101.843-21.901-151.121zm371.231-493.88c-13.14 48.183 8.76 100.747 53.659 127.028 17.521 8.761 21.901 17.522 21.901 36.138-4.38 87.606 0 180.688 0 268.294v283.626c3.286 21.901 18.617 35.042 35.043 30.662 20.806 0 35.042-13.141 35.042-30.662v-551.92c0-15.331 5.476-27.377 18.617-36.138 48.183-26.281 70.085-74.465 58.039-127.029-14.236-50.373-58.04-85.416-111.698-85.416-49.279 0-93.082 35.043-110.603 85.416zm71.18 29.567c0-21.902 17.521-39.423 39.423-39.423 20.806 0 40.518 17.52 40.518 39.423 0 22.996-19.712 36.137-40.518 40.517-21.902 0-39.423-17.52-39.423-40.517z"/></svg>