<svg xmlns="http://www.w3.org/2000/svg" width="1000" height="1000">
  <path d="M5 500.496c0 271.98 220.55 494.507 495.496 494.507 271.98 0 494.507-220.55 494.507-495.496C995.003 227.528 773.464 5 500.496 5 226.54 5 5 225.55 5 500.496zM105.88 677.53c0-13.846 0-30.66 10.879-41.539 26.703-39.56 26.703-39.56 0-78.132-14.836-17.802-14.836-40.55 0-58.352 11.868-20.77 36.593-25.714 56.373-12.857 32.638 25.714 25.715 53.407 9.89 71.209-27.692 35.604-27.692 42.528 1.979 78.132 13.846 10.88 17.802 30.66 4.945 49.45-6.923 16.814-23.737 23.737-42.528 23.737-18.791-5.934-35.604-11.868-41.539-31.648zm119.67 57.363c0-63.297 57.363-44.506 12.857-109.781-24.725-24.725-18.79-54.396.99-72.198 22.747-11.868 52.417-6.923 67.252 14.835 13.847 21.758 10.88 38.572-7.912 57.363-24.725 29.67-24.725 38.572 6.923 72.198 24.726 38.572-1.978 79.121-43.516 79.121-22.748-2.967-36.594-20.77-36.594-41.538zm115.715 52.417c0-22.747 20.77-43.516 47.473-43.516 23.736 0 43.516 20.769 43.516 43.516 0 29.67-19.78 47.473-43.516 47.473-26.704 0-47.473-17.802-47.473-47.473zm0-405.496c0-23.736 20.77-45.494 47.473-45.494 23.736 0 43.516 21.758 43.516 45.494 0 25.715-19.78 48.462-43.516 48.462-26.704 0-47.473-22.747-47.473-48.462zm4.945 295.716c-9.89-22.748-4.945-40.55 6.923-54.396 25.714-29.67 25.714-40.55 0-73.187-16.813-22.747-16.813-46.484 4.945-65.275 17.802-17.802 43.517-17.802 56.374 0 22.747 14.835 22.747 41.539 5.934 65.275-24.725 38.571-24.725 38.571 0 75.165 11.868 11.868 16.813 29.67 8.901 46.484-8.901 19.78-21.758 30.66-40.55 30.66-16.813 0-35.604-10.88-42.527-24.726zm111.759 25.714c3.956-5.934 10.879-11.868 16.813-17.802 16.813-18.791 11.868-35.605 0-49.45-29.67-29.671-29.67-53.408 0-83.078 11.868-12.857 16.813-30.66 0-49.45-5.934-6.924-12.857-16.814-16.813-24.726-15.825-29.67 9.89-66.264 40.55-66.264 48.46 0 59.34 58.352 22.746 87.033-11.868 22.747-11.868 40.55 3.957 53.407 27.692 29.67 27.692 53.407 0 83.077-15.825 13.846-15.825 30.66 3.956 55.385 17.802 17.802 21.758 38.571 11.868 54.396-11.868 27.692-42.528 35.604-66.264 22.747-19.78-12.857-29.67-42.528-16.813-65.275zm0-387.694c3.956-4.945 3.956-7.912 9.89-11.868 23.736-30.66 23.736-36.593 0-71.209-16.814-20.769-16.814-43.516 0-61.319 12.857-12.857 29.67-17.802 43.516-12.857 28.682 8.901 46.484 47.473 22.748 74.176-29.67 35.605-29.67 35.605 0 75.165 18.79 25.715 12.857 56.374-12.858 70.22-22.747 9.89-40.55 3.956-53.406-6.923-16.814-18.791-16.814-37.582-9.89-55.385zm106.813 471.76c0-22.747 17.802-43.516 42.528-43.516 27.692 0 53.406 20.769 53.406 43.516 0 29.67-22.747 47.473-46.483 47.473-25.715 0-48.462-17.802-49.45-47.473zm0-405.496c.99-23.736 17.802-45.494 49.45-45.494 23.737 0 46.484 21.758 46.484 45.494-5.934 25.715-25.714 48.462-53.406 48.462-24.726 0-42.528-22.747-42.528-48.462zm5.934 248.243c5.934-4.945 10.88-11.868 17.802-17.802 11.869-18.792 11.869-31.649 0-49.451-5.934-9.89-6.923-12.857-11.868-16.813-16.813-19.78-11.868-42.528 4.945-59.341 14.836-15.824 36.594-19.78 56.374-7.912 16.813 12.857 24.726 38.571 11.868 61.319 0 .989-1.978 5.934-5.934 9.89-25.714 30.66-25.714 43.516 0 73.187 10.88 13.846 18.792 31.648 10.88 48.462-6.924 17.802-24.726 30.66-40.55 30.66-37.583 0-61.32-38.573-43.517-72.199zm113.737-54.396c7.912-17.802 19.78-29.67 37.582-29.67 37.583 0 62.308 35.604 46.484 66.264-35.604 49.45-33.626 49.45-4.945 85.055 7.912 17.802 12.857 32.637 4.945 48.462-8.901 18.791-22.747 27.692-39.56 27.692-18.792 0-31.649-8.901-40.55-27.692-8.901-15.825-8.901-30.66 3.956-48.462l4.945-5.934c24.725-24.725 24.725-36.594 0-66.264-12.857-12.857-22.747-28.681-12.857-49.45zm116.704-66.264c9.89-17.802 23.736-24.725 41.538-24.725 38.572 0 60.33 37.582 42.528 65.275-3.956 7.912-11.868 17.802-16.814 20.77-12.857 17.801-12.857 35.604 0 52.417 20.77 29.67 33.627 49.45 4.946 79.121-17.803 12.857-48.462 12.857-62.308-4.945-17.803-17.802-17.803-42.528 0-61.319 25.714-35.604 25.714-39.56 0-78.132-12.858-16.813-17.803-31.648-9.89-48.462z" style="fill:#000;fill-opacity:1;fill-rule:nonzero;stroke:none;"/>
</svg>
