<svg xmlns="http://www.w3.org/2000/svg" viewBox="0 0 1000 1000"><path d="M139.633,312.911L340.253,0,41.143,299.11c-24.842,24.892-13.149,67.425,20.953,76.032l158.538,40.149c-14.153,22.258-30.187,50.312-42.658,80.047-11.392,27.251-20.903,58.467-21.856,89.332-.954,31.642,7.152,65.543,33.901,92.293,40.199,40.199,69.382,54.201,92.694,65.418l5.119,2.459c10.84,5.27,18.845,9.586,27.352,16.386,8.582,6.85,18.995,17.339,32.37,35.758,2.384,3.237,4.868,6.7,7.503,10.338l.05,.1,.025,.025c29.183,40.5,75.003,104.061,134.098,146.243,32.997,23.562,72.143,42.056,116.884,45.669,45.343,3.664,92.694-8.231,140.873-39.271,46.171-29.735,76.584-62.858,90.887-101.426,14.429-38.844,10.163-76.91-.326-111.439-9.611-31.617-25.62-63.887-40.576-93.974l-2.81-5.671c-16.361-32.972-31.793-64.841-42.056-98.215-20.049-65.142-6.449-93.372,2.108-104.563,5.24-6.818,12.242-12.076,20.25-15.206,.174-.071,.35-.138,.527-.201l.953-.226,1.606-.502,7.101-2.334,18.694-6.173c38.297-12.592,76.531-25.372,114.701-38.342,7.98-2.76,14.905-5.169,20.049-7.051,2.509-.928,4.918-1.832,6.901-2.635,2.287-.937,4.523-1.992,6.7-3.162l.075-.025c.602-.351,4.718-2.61,8.732-6.65,16.135-16.11,10.966-35.858,10.439-37.891l-.025-.1c-1.37-5.425-3.848-10.509-7.277-14.93-1.319-1.738-2.7-3.429-4.14-5.069-3.331-3.781-6.728-7.503-10.188-11.166-4.893-5.219-99.996-101.552-179.893-182.502C733.008,73.809,696.64,36.938,660.315,.025c.678,.703,51.842,81.201,102.48,160.897,49.634,78.065,98.767,155.377,99.419,156.029-8.707,2.936-17.841,6.022-27,9.034-25.091,8.361-50.201,16.667-75.33,24.917l-5.997,1.982-.853,.251c-7.204,2.2-14.179,5.091-20.827,8.632-16.024,8.53-30.025,20.409-41.052,34.829-28.305,37.012-40.224,93.848-14.905,176.104,12.396,40.325,30.614,77.538,46.799,110.134l1.581,3.187c16.06,32.42,29.359,59.17,36.962,84.263,7.603,24.993,8.105,43.988,1.882,60.776-6.323,17.063-21.982,38.142-59.471,62.281-35.406,22.835-65.644,28.983-91.49,26.9-26.423-2.133-52.068-13.224-77.161-31.141-47.853-34.152-86.245-87.224-116.507-129.029l-7.076-9.786c-16.511-22.684-31.668-38.794-47.025-51.065-15.457-12.346-29.735-19.698-42.257-25.771l-5.37-2.61c-20.551-9.836-40.274-19.322-70.963-50.011-7.076-7.076-11.192-17.239-10.69-33.725,.502-17.239,6.173-38.242,15.733-61.077,19.071-45.519,49.333-88.278,61.428-104.412,19.723-26.348,5.671-63.486-25.294-71.315l-147.698-37.389Zm334.592,324.504s-61.177,0-101.953-37.514c-40.776-37.539,0-112.593,0-112.593,0,0,11.894,7.528,56.936,60.048,45.017,52.52,45.017,90.059,45.017,90.059Z"/></svg>