<svg xmlns="http://www.w3.org/2000/svg" viewBox="0 0 1000 1000"><path d="M500,0C223.858,0,0,223.858,0,500s223.858,500,500,500,500-223.858,500-500S776.142,0,500,0Zm291.892,384.061l30.593,162.62c.824,4.374-4.507,7.179-7.646,4.022l-95.799-96.392c-2.267-2.285-2.252-5.976,.038-8.236l65.194-64.393c2.574-2.546,6.95-1.183,7.621,2.378Zm-106.712-134.51c43.949-8.448,85.379,20.605,93.826,64.553l5.23,31.123-82.928,82.082c-2.491,2.466-6.511,2.431-8.959-.073l-102.498-104.846c-2.433-2.486-2.393-6.473,.083-8.916l58.002-57.196,37.245-6.727Zm-227.726,202.76c-1.763-1.79-1.745-4.66,.028-6.435l105.835-105.835c1.793-1.795,4.703-1.785,6.486,.02l106.049,107.608c1.77,1.793,1.755,4.68-.035,6.456l-106.418,105.522c-1.798,1.78-4.7,1.765-6.476-.045l-105.469-107.289Zm6.516,128.587c0,16.374-13.268,29.646-29.641,29.646s-29.644-13.273-29.644-29.646,13.273-29.639,29.644-29.639,29.641,13.268,29.641,29.639Zm-116.534-322.583c6.975-29.936,32.946-51.345,62.14-57.238l58.673-11.841c25.93-5.234,61.691,6.885,75.933,26.066,13.285,17.027,17.654,28.993,19.083,35.357,.643,2.867-1.26,5.682-4.148,6.212l-24.16,4.412c-2.476,.452-4.904-.929-5.81-3.274-1.785-4.63-5.516-12.516-12.283-20.037-10.463-11.335-29.684-17.596-43.12-14.885l-59.579,12.205c-10.014,2.021-17.91,8.266-24.69,16.243-5.773,6.787-10.275,15.912-10.943,24.798l.354,11.244c-.208,2.81-2.242,5.152-4.994,5.753l-24.647,5.383c-2.81,.615-5.484-1.464-5.579-4.336-.264-8.246-.141-24.125,3.771-36.062Zm-12.271,58.487l249.711-47.979c4.876-.937,8.02,5.007,4.505,8.51l-148.986,148.428c-2.526,2.518-6.619,2.498-9.12-.043l-98.752-100.439c-2.82-2.867-1.306-7.721,2.642-8.477Zm-102.833,19.751l63.436-11.088,116.492,118.48c2.699,2.742,2.654,7.156-.1,9.848l-104.469,102.077c-2.742,2.677-7.131,2.634-9.82-.1l-131.152-133.551c-4.053-41.262,24.136-77.698,65.614-85.665Zm-23.64,308.238l-30.755-160.074c-1.004-5.22,5.371-8.565,9.094-4.776l94.67,96.404c2.066,2.102,2.046,5.476-.04,7.56l-63.915,63.674c-3.044,3.033-8.243,1.431-9.055-2.79Zm235.622,108.248l-127.507,24.502c-43.954,8.442-86.824-21.951-95.267-65.899l-5.383-25.541,83.216-83.179c1.981-1.981,5.203-1.966,7.169,.035l140.087,142.663c2.466,2.511,1.14,6.757-2.315,7.42Zm217.988-42.738l-178.276,34.317-28.075-28.165c-1.991-1.999-1.986-5.228,.008-7.219l106.074-105.8c2.014-2.006,5.273-1.986,7.259,.048l95.739,98.102c2.888,2.958,1.328,7.937-2.729,8.718Zm107.349-21.109l-66.71,12.821-114.069-116.04c-2.25-2.29-2.24-5.966,.025-8.241l103.837-104.377c2.3-2.31,6.039-2.303,8.326,.02l132.584,134.553c.884,38.924-24.552,73.688-63.993,81.264Z"/></svg>