<svg xmlns="http://www.w3.org/2000/svg" viewBox="0 0 1000 1000"><path d="M892.719,499.461c0-215.405-174.62-390.025-390.025-390.025S112.669,284.056,112.669,499.461s174.62,390.025,390.025,390.025,390.025-174.62,390.025-390.025Zm-235.512,200.798c-38.673,46.961-81.428,49.226-114.353,51.089v76.877h-81.681v-76.877c-31.078-3.725-73.225-20.814-102.101-44.283-28.876-23.459-41.703-57.982-42.202-94.227h76.5c2.019,19.517,9.997,36.485,23.936,50.882,12.731,13.171,36.577,18.691,58.841,22.925,53.092,2.723,89.837-6.894,105.295-22.228,15.448-15.334,18.587-31.267,18.587-52.646,0-49.313-65.344-65.344-92.571-74.874-27.227-9.529-112.991-14.975-166.521-83.674-14.12-18.121-22.037-41.352-22.037-71.095,0-37.639,14.307-68.764,42.933-93.399,28.615-24.624,66.74-38.336,100.699-41.123v-71.465h83.042v71.465c14.709,3.256,49.415,15.922,75.762,37.987,26.335,22.075,50.843,55.27,50.843,108.363h-78.959c-2.541-16.26-8.795-45.221-23.141-57.176-40.84-34.034-104.823-20.42-129.328-8.168-18.377,9.189-36.756,26.334-36.756,50.032,0,62.959,46.574,65.804,72.202,73.85,69.378,21.781,102.478,35.076,122.723,42.899,21.016,8.135,38.754,21.03,53.192,38.684,14.438,17.665,30.959,52.939,30.959,83.14,0,22.303-6.807,59.899-25.866,83.042ZM123.525,321.908l-75.745-30.915c21.254-46.305,49.369-88.804,83.044-126.199l57.866,57.866c-26.158,29.651-48.177,63.032-65.166,99.248Zm94.155-129.008l-57.804-57.804c36.334-34.199,77.782-63.022,123.078-85.203l31.301,75.691c-35.368,17.861-67.847,40.595-96.575,67.316ZM84.454,482.444H2.694c1.791-53.563,11.999-104.991,29.348-153.006l75.742,30.914c-13.54,38.438-21.623,79.441-23.329,122.092ZM773.048,179.887c-29.755-25.198-63.063-46.327-99.086-62.5l32.408-75.009c45.541,20.324,87.487,47.25,124.619,79.568l-57.941,57.941ZM352.238,108.729l-31.237-75.538C363.2,16.735,408.182,5.845,455.047,1.417V83.564c-35.837,4.061-70.3,12.64-102.809,25.166ZM100.88,617.15l-76.673,28.831c-10.286-33.631-17.122-68.768-20.099-104.999H86.129c2.578,26.175,7.577,51.635,14.752,76.168ZM635.234,102.284c-38.38-12.802-79.227-20.213-121.649-21.296V-.707c53.918,1.152,105.736,10.83,154.159,27.747l-32.509,75.245Zm168.172,105.994l57.779-57.779c40.512,41.611,73.839,90.249,97.982,143.914l-76.679,28.833c-19.857-42.725-46.704-81.536-79.082-114.968Zm-23.911,605.186l57.866,57.866c-39.479,35.553-84.645,64.913-133.974,86.54l-31.239-75.542c39.347-17.441,75.498-40.766,107.347-68.864Zm102.652-137.058l75.741,30.913c-22.843,49.942-53.662,95.47-90.829,134.959l-57.804-57.804c29.59-31.812,54.282-68.23,72.891-108.069Zm37.112-135.425h82.02c-3.659,44.532-13.148,87.41-27.706,127.871l-75.745-30.915c10.805-30.833,18.118-63.304,21.432-96.956Zm-21.159-179.224l76.52-28.773c16.579,46.997,26.328,97.214,28.074,149.46h-81.76c-1.685-42.131-9.591-82.655-22.834-120.686ZM183.12,769.815l-57.941,57.941c-36.525-41.966-66.164-90.08-87.166-142.584l76.513-28.771c16.81,41.536,40.089,79.753,68.594,113.414Zm450.243,127.43l31.304,75.7c-47.539,16.259-98.304,25.557-151.082,26.684v-81.695c41.736-1.066,81.941-8.266,119.778-20.688Zm-421.851-97.073c27.561,26.693,58.77,49.639,92.823,67.997l-32.506,75.238c-43.506-22.671-83.264-51.544-118.096-85.456l57.779-57.779Zm130.355,85.869c35.516,14.793,73.508,24.821,113.18,29.317v82.146c-51.165-4.834-100.087-17.371-145.592-36.444l32.412-75.02Z"/></svg>