<svg xmlns="http://www.w3.org/2000/svg" viewBox="0 0 1000 1000"><path d="M398.964 624.536V995H566.01c29.637 0 29.637 0 29.637-36.373 0-115.854-2.695-224.972 5.388-340.827 0-22.901 2.695-43.108 22.902-67.357C741.138 383.397 848.91 217.7 959.375 49.306l28.29-43.109H777.511c-13.471-2.694-94.3 106.425-137.409 180.518C595.647 254.072 549.844 326.817 500 399.563c-57.928-102.383-129.326-189.947-180.518-292.33C276.374 27.752 269.638 6.197 252.125 6.197c-36.373-2.694-196.683 0-239.791 0C25.805 19.67 25.805 35.835 36.582 42.57 151.09 217.7 266.944 383.397 377.41 558.526c12.125 14.819 21.555 44.456 21.555 66.01z"/></svg>