<svg width="33" height="32" viewBox="0 0 33 32" fill="none" xmlns="http://www.w3.org/2000/svg">
<g clip-path="url(#clip0_3393:12115)">
<path fill-rule="evenodd" clip-rule="evenodd" d="M16.4338 31.84C25.1819 31.84 32.2738 24.7482 32.2738 16C32.2738 7.25178 25.1819 0.159973 16.4338 0.159973C7.68556 0.159973 0.59375 7.25178 0.59375 16C0.59375 24.7482 7.68556 31.84 16.4338 31.84ZM6.86471 9.14333L11.5281 4.47992H13.7444C13.1441 4.82622 11.1587 7.29644 10.6508 9.14333H6.86471ZM16.0068 4.47992V9.14333H11.5281C11.8436 8.18141 12.9687 5.90203 14.9449 4.47992H16.0068ZM16.9072 9.14333H21.4321C20.3794 6.63155 18.6694 4.98782 17.9461 4.47992H16.9072V9.14333ZM25.9801 9.14333H22.3094C21.7322 7.75816 20.6887 5.84662 19.1927 4.47992H21.2705L25.9801 9.14333ZM10.5355 22.8565H6.8648L11.5744 27.5199H13.6521C12.1561 26.1532 11.1127 24.2417 10.5355 22.8565ZM11.4128 22.8565H15.9377L15.9377 27.5199L14.8988 27.5199C14.1754 27.012 12.4655 25.3683 11.4128 22.8565ZM16.838 22.8565V27.5199H17.9C19.8762 26.0978 21.0012 23.8184 21.3167 22.8565L16.838 22.8565ZM21.3167 27.5199L25.9801 22.8565H22.194C21.6861 24.7034 19.7007 27.1736 19.1005 27.5199H21.3167ZM16.4396 20.096C16.6796 20.096 16.9156 20.076 17.1476 20.036C17.3876 19.996 17.6156 19.932 17.8316 19.844C18.0556 19.756 18.2596 19.636 18.4436 19.484C18.6276 19.324 18.7756 19.136 18.8876 18.92C19.0076 18.704 19.0796 18.48 19.1036 18.248C19.1356 18.008 19.1516 17.768 19.1516 17.528V15.08H16.4996V16.412H17.6756V17.528C17.6756 17.696 17.6556 17.864 17.6156 18.032C17.5756 18.192 17.4916 18.328 17.3636 18.44C17.2356 18.552 17.0916 18.636 16.9316 18.692C16.7716 18.74 16.6076 18.764 16.4396 18.764C16.2796 18.764 16.1196 18.74 15.9596 18.692C15.8076 18.636 15.6716 18.548 15.5516 18.428C15.4316 18.308 15.3476 18.168 15.2996 18.008C15.2516 17.848 15.2276 17.688 15.2276 17.528V13.652C15.2276 13.484 15.2516 13.32 15.2996 13.16C15.3556 13 15.4436 12.86 15.5636 12.74C15.6836 12.62 15.8236 12.536 15.9836 12.488C16.1436 12.44 16.3076 12.416 16.4756 12.416C16.6676 12.416 16.8596 12.448 17.0516 12.512C17.2436 12.576 17.3996 12.692 17.5196 12.86C17.6396 13.02 17.6996 13.2 17.6996 13.4H19.1756C19.1756 13.064 19.1036 12.74 18.9596 12.428C18.8236 12.116 18.6236 11.856 18.3596 11.648C18.0956 11.432 17.7996 11.284 17.4716 11.204C17.1436 11.124 16.8116 11.084 16.4756 11.084C16.2356 11.084 15.9996 11.104 15.7676 11.144C15.5356 11.176 15.3076 11.244 15.0836 11.348C14.8676 11.444 14.6716 11.572 14.4956 11.732C14.3196 11.892 14.1716 12.076 14.0516 12.284C13.9396 12.492 13.8596 12.712 13.8116 12.944C13.7716 13.176 13.7516 13.412 13.7516 13.652V17.528C13.7516 17.808 13.7836 18.088 13.8476 18.368C13.9196 18.64 14.0396 18.892 14.2076 19.124C14.3756 19.348 14.5796 19.536 14.8196 19.688C15.0676 19.84 15.3276 19.944 15.5996 20C15.8796 20.064 16.1596 20.096 16.4396 20.096ZM6.60954 20H8.09754V18.236C8.09754 17.78 8.08554 17.328 8.06154 16.88C8.04554 16.424 8.00554 15.972 7.94154 15.524C7.87754 15.076 7.80954 14.632 7.73754 14.192C7.67354 13.744 7.62554 13.292 7.59354 12.836L9.11754 17.348H10.0535L11.5775 12.836C11.5455 13.292 11.4935 13.744 11.4215 14.192C11.3575 14.632 11.2935 15.076 11.2295 15.524C11.1735 15.972 11.1335 16.424 11.1095 16.88C11.0855 17.328 11.0735 17.78 11.0735 18.236V20H12.5615V11.18H11.2055L9.58554 15.98L7.96554 11.18H6.60954V20ZM24.3857 19.976C24.0577 20.056 23.7257 20.096 23.3897 20.096C23.1497 20.096 22.9097 20.076 22.6697 20.036C22.4377 20.004 22.2137 19.94 21.9977 19.844C21.7817 19.74 21.5857 19.608 21.4097 19.448C21.2337 19.288 21.0857 19.104 20.9657 18.896C20.8537 18.688 20.7737 18.468 20.7257 18.236C20.6857 18.004 20.6657 17.768 20.6657 17.528V13.652C20.6657 13.412 20.6857 13.176 20.7257 12.944C20.7737 12.712 20.8537 12.492 20.9657 12.284C21.0857 12.076 21.2337 11.892 21.4097 11.732C21.5857 11.572 21.7817 11.444 21.9977 11.348C22.2137 11.244 22.4377 11.176 22.6697 11.144C22.9097 11.104 23.1497 11.084 23.3897 11.084C23.7257 11.084 24.0577 11.124 24.3857 11.204C24.7137 11.284 25.0097 11.432 25.2737 11.648C25.5377 11.856 25.7377 12.116 25.8737 12.428C26.0177 12.74 26.0897 13.064 26.0897 13.4H24.6137C24.6137 13.2 24.5537 13.02 24.4337 12.86C24.3137 12.692 24.1577 12.576 23.9657 12.512C23.7737 12.448 23.5817 12.416 23.3897 12.416C23.2217 12.416 23.0577 12.44 22.8977 12.488C22.7377 12.536 22.5977 12.62 22.4777 12.74C22.3577 12.86 22.2697 13 22.2137 13.16C22.1657 13.32 22.1417 13.484 22.1417 13.652V17.528C22.1417 17.696 22.1657 17.86 22.2137 18.02C22.2697 18.18 22.3577 18.32 22.4777 18.44C22.5977 18.56 22.7377 18.644 22.8977 18.692C23.0577 18.74 23.2217 18.764 23.3897 18.764C23.5817 18.764 23.7737 18.732 23.9657 18.668C24.1577 18.604 24.3137 18.488 24.4337 18.32C24.5537 18.152 24.6137 17.972 24.6137 17.78H26.0897C26.0897 18.116 26.0177 18.44 25.8737 18.752C25.7377 19.064 25.5377 19.328 25.2737 19.544C25.0097 19.752 24.7137 19.896 24.3857 19.976Z" fill="black"/>
</g>
<defs>
<clipPath id="clip0_3393:12115">
<rect width="32" height="32" fill="white" transform="translate(0.441406)"/>
</clipPath>
</defs>
</svg>
