<svg xmlns="http://www.w3.org/2000/svg" viewBox="0 0 1000 1000"><path d="M275.49 389.744v76.948l65.463-47.088zM5.595 498.85c4.594 96.472 415.75 497.292 494.996 496.144 79.245-2.297 489.253-385.89 493.847-493.847C997.884 393.189 571.798 7.299 498.295 5.003 424.792 3.854-.146 402.377 5.596 498.85zm228.548 173.42V377.11c0-55.127 32.158-52.83 47.088-44.79 0 0 199.836 107.957 194.093 132.075-5.742 22.97-14.93 26.415-29.86 22.97-14.93-2.297-48.237-32.158-48.237-32.158l-88.433 86.136v78.097c0 44.791 13.782 32.158 20.673 20.673l350.287-352.584c76.948-75.8 91.878 28.712 89.582 89.582v199.835c0 132.076-63.167 118.294-95.324 95.324l-56.276-52.83s-71.206-65.463-71.206-78.097c0-11.484 14.93-17.227 14.93-17.227 14.93 0 31.01 10.337 86.136 65.464 55.128 55.127 64.315 22.97 62.018 0V449.465c0-88.433-35.602-73.503-52.83-53.979-99.918 113.7-312.387 339.95-360.623 339.95-47.088 0-60.87-41.344-62.018-63.166z"/></svg>