<svg xmlns="http://www.w3.org/2000/svg" width="1000" height="1000">
  <path d="M524.635 993.082c-195.868 0-355.416-81.72-450.108-243.862-9.08-15.566-16.862-15.566 15.566-15.566h121.931c11.675 0 32.429 5.188 44.103 15.566 95.989 84.314 229.594 108.96 355.417 70.045 118.04-36.32 191.977-127.12 220.514-250.348 11.674-71.343 7.783-133.606-23.349-197.165-15.566-40.212 0-32.429 53.183-32.429h77.828c29.835 0 29.835 0 35.023 29.834 28.537 101.177 28.537 203.651-10.377 302.234-73.937 188.086-250.348 321.691-439.73 321.691zM29.127 648.042C-4.598 539.083-4.598 431.42 39.505 326.353 125.115 123.998 274.287 15.038 490.91 7.255 678.995.769 826.87 87.678 929.343 253.712c6.486 5.188 9.08 11.674 10.377 23.348H774.984c-18.16 0-22.052 0-32.429-11.674-66.154-75.234-150.468-101.177-241.268-101.177-180.303 0-312.611 134.903-335.96 295.748-12.971 72.64 3.892 120.634 38.914 215.326H62.853c-16.863 0-28.537-3.892-33.726-27.24z" style="fill:#000;fill-opacity:1;fill-rule:nonzero;stroke:none;"/>
</svg>
