<svg xmlns="http://www.w3.org/2000/svg" viewBox="0 0 1000 1000"><path d="M500.496 5C223.572 5 5 229.506 5 500.002c0 276.43 224.506 495.001 495.002 495.001 276.43 0 495.001-224.506 495.001-495.001C995.003 226.539 773.464 5 500.496 5zM145.44 703.244c-9.89-15.824-5.934-40.55 10.88-52.418 11.867-7.912 11.867-15.824 11.867-28.681V379.836c0-11.868 0-20.769-11.868-25.714-16.813-15.824-20.77-36.594-10.879-55.385 10.88-16.813 31.648-26.703 52.418-16.813 10.879 5.934 19.78.989 28.681-2.967 71.21-45.495 141.43-83.077 212.638-127.583 12.857-4.945 17.803-9.89 17.803-25.714 0-20.77 18.79-33.627 31.648-41.539 7.912-3.956 16.813-3.956 26.703 0 19.78 7.912 34.616 23.736 34.616 49.45 0 7.913 5.934 12.858 9.89 15.825 74.176 42.528 149.341 89.011 224.506 132.528 2.967.989 11.868.989 13.846.989 31.649-12.857 50.44-.989 66.264 21.758 5.935 7.912 7.913 16.814 0 25.715-4.945 7.912-13.846 15.824-20.769 26.703-.989 4.945-7.912 10.88-7.912 17.802v254.177c0 5.934 1.978 10.88 6.923 16.813 7.912 7.912 13.846 13.846 21.758 22.748 5.935 9.89 3.956 18.79 0 26.703-20.769 30.66-28.681 33.626-63.296 21.758-4.946 0-13.847 0-16.814 3.956-75.165 42.528-150.33 87.034-225.495 129.561-6.923 6.923-11.868 14.835-11.868 20.77-4.945 23.736-20.77 41.538-42.528 41.538-23.736 0-41.538-17.802-44.505-41.539 0-12.857-4.945-13.846-13.847-20.769-73.187-42.527-148.352-87.033-219.56-125.605-8.902-7.912-17.803-8.9-28.682-3.956-20.77 7.912-41.539 0-52.418-17.802zm47.473-83.077c0 9.89 4.945 22.747 15.824 30.66 8.901 6.922 12.857 20.769 14.835 28.68 32.638 38.572 40.55 33.627 91.978 65.276 17.803 7.912 17.803 7.912 17.803-9.89V555.88c0-22.747 1.978-33.627 21.758-43.517 21.758-7.912 21.758-11.868 0-19.78-19.78-8.901-21.758-22.747-21.758-43.517V267.09c0-17.802-2.967-20.77-17.803-11.868-25.714 16.813-51.428 32.637-77.143 46.483-8.9 4.945-11.868 10.88-14.835 23.737-1.978 7.912-8.901 19.78-17.802 28.681-7.912 4.945-12.857 13.846-12.857 21.758 4.945 44.506 0 85.056 0 124.616zm167.143 132.528c0 10.879 4.945 18.791 16.813 25.714 25.715 13.846 54.396 31.649 80.11 49.45 11.869 5.935 18.792 5.935 28.682 0 10.88-2.966 23.736-2.966 34.615 1.979 10.88 3.956 14.836 3.956 23.737-1.978 31.648-17.802 61.319-35.605 90-51.429 12.857-5.934 12.857-12.857 12.857-25.714V573.683c3.956-23.736-3.956-36.593-24.725-47.472-13.846-3.957-23.736-8.902-33.627 0-9.89 6.923-17.802 11.868-28.681 15.824-9.89 4.945-12.857 11.868-15.824 23.736-1.978 21.758-17.802 33.627-39.56 33.627-20.77 3.956-41.54-11.869-41.54-32.638-2.966-16.813-10.879-20.77-23.736-28.681-7.912-4.945-12.857-7.912-20.769-13.847-21.758-7.912-58.352 8.902-58.352 34.616zm0-407.474c0 34.615 0 66.264 2.967 100.88 0 4.944 0 17.802 4.945 20.769 25.715 19.78 34.616 19.78 63.297 4.945 19.78-14.835 26.704-12.857 31.649-34.616 0-23.736 20.769-33.626 41.538-33.626 21.759.989 37.583 13.846 39.56 37.582 2.968 6.923 2.968 9.89 2.968 12.857 17.802 9.89 34.615 23.737 54.396 29.67 11.868 2.968 25.714-11.867 41.538-16.812 3.956-2.967 3.956-12.858 3.956-15.825V244.341c0-5.934-3.956-13.846-11.868-18.79-26.703-20.77-59.34-36.594-90.99-54.397-5.933-3.956-10.878-3.956-17.801 0-16.814 7.912-29.67 7.912-45.495 0-4.945-3.956-12.857-3.956-20.77 0-28.68 17.803-57.362 33.627-87.033 53.407-9.89 5.934-12.857 8.901-12.857 24.726 2.967 32.637 0 63.296 0 95.934zM437.2 504.452c5.934 7.912 38.572 17.802 46.484 17.802 10.88-4.945 21.758-5.934 34.615-4.945 14.836 4.945 41.539-.989 49.451-8.9 2.967-3.957 2.967-3.957 2.967-7.913l-2.967-1.978c-7.912-9.89-34.615-17.802-47.473-14.835-10.879 2.967-23.736 2.967-36.593 0-7.912-2.967-40.55 4.945-46.484 14.835zm209.671-11.868c-15.824 7.912-15.824 11.868 3.956 19.78 20.77 9.89 23.737 20.77 23.737 41.539v179.012c0 17.802 0 19.78 16.813 11.868 22.747-15.825 46.484-28.682 69.23-44.506 11.87-4.945 19.781-12.857 19.781-25.714 3.956-8.901 7.912-20.77 17.802-25.715 7.913-5.934 11.869-11.868 11.869-24.725V387.749c0-17.803 0-28.682-16.814-36.594-4.945-4.945-8.9-12.857-8.9-17.802 0-23.737-16.814-31.649-35.605-39.56-17.802-11.869-36.594-23.737-54.396-35.605-19.78-8.901-19.78-8.901-19.78 11.868v179.011c0 20.77-2.967 34.616-27.693 43.517z"/></svg>