<svg xmlns="http://www.w3.org/2000/svg" width="1000" height="1000">
  <path d="M499.068 994.996c-6.854-4.57-13.708-10.281-18.277-17.135-123.37-121.085-244.455-242.17-365.54-364.397-34.269-33.127-67.396-66.254-100.523-99.38-11.423-11.424-11.423-18.278 0-29.7l469.49-469.49c11.423-14.85 20.561-11.423 31.984 0a90962.921 90962.921 0 0 0 469.49 469.49c10.28 10.28 11.423 15.992 0 28.557-157.64 156.496-312.993 312.993-470.632 469.49-5.712 4.568-9.139 7.995-15.992 12.565zM128.959 564.345c13.708 31.985 33.127 60.542 54.831 84.53 28.558 35.412 61.685 62.828 91.385 93.67 11.423 12.566 19.42 12.566 31.985 2.285 38.838-36.554 83.388-66.254 134.792-81.104 11.423-4.57 23.989-5.712 42.266-9.139-7.997 10.281-9.139 14.85-12.566 19.42-68.538 95.954-66.254 186.196 12.566 275.296 10.28 12.566 18.277 14.85 30.842 0 75.392-82.246 82.246-179.342 14.85-270.727-3.427-6.854-6.854-11.423-11.423-19.42 2.285-1.142 6.854-3.426 7.996-3.426 5.712 2.284 11.423 2.284 13.708 3.427 59.4 12.565 109.661 45.692 153.07 85.673 11.422 10.28 18.276 10.28 28.557-2.285 29.7-30.842 61.685-60.542 91.385-89.1 92.527-94.812 92.527-214.754 0-308.424-28.558-31.984-60.543-60.542-90.243-91.384-11.423-12.566-18.277-12.566-31.984 0-41.124 39.98-87.958 70.823-146.216 82.246-6.854 2.285-15.992 2.285-28.558 4.57 36.554-51.405 66.254-100.524 59.4-162.209-5.711-58.258-35.411-103.95-76.534-147.358-43.408 45.693-71.966 93.67-76.535 154.212-4.57 58.258 25.13 107.377 61.685 156.496-12.566-1.142-22.847-1.142-30.843-5.711-49.12-9.139-91.385-35.412-130.223-67.396-33.127-28.558-35.412-28.558-63.97 2.284-28.557 27.416-57.115 55.973-83.388 84.531-51.404 61.685-79.962 130.223-46.835 209.043zm77.677 81.104c83.389-98.239 83.389-194.193 5.712-290.147 2.285-1.142 3.427-3.427 4.57-4.569 14.85 3.427 31.984 5.711 46.834 11.423 68.538 23.989 122.227 70.823 169.062 124.512 4.569 4.569 4.569 17.134 2.284 21.704-54.83 63.969-117.658 115.373-203.33 135.935-4.57 0-11.424 0-25.132 1.142zM564.18 509.514c-2.284-5.712-2.284-14.85 0-19.42 55.973-66.253 118.8-118.8 204.474-138.219h17.134c-77.677 138.22-77.677 147.358 0 293.574-10.28-1.142-17.134-1.142-25.13-2.285-82.247-21.704-141.647-73.108-196.478-133.65z" style="fill:#000;fill-opacity:1;fill-rule:nonzero;stroke:none;"/>
</svg>
