<svg xmlns="http://www.w3.org/2000/svg" viewBox="0 0 32 32">
	<path
		d="M9.2.1L2.8 6.5H8c.7-2.6 3.5-6 4.3-6.5H9.2zm6.3 6.4V.1H14c-2.7 2-4.3 5.1-4.7 6.5h6.2zm1.2 0H23C21.5 3 19.2.7 18.2 0h-1.4v6.5zm7.5 0h5.1L22.8 0h-2.9c2 2 3.5 4.6 4.3 6.5zM22.8 32l6.5-6.5H24c-.7 2.6-3.5 6-4.3 6.5h3.1zm-6.2-6.5V32h1.5c2.7-2 4.3-5.1 4.7-6.5h-6.2zm-1.2 0H9.1c1.5 3.5 3.8 5.8 4.8 6.5h1.4v-6.5zm-7.5 0H2.8L9.3 32h2.9c-2.1-1.9-3.5-4.5-4.3-6.5zM2.8 22h2v-2.4-1.8c0-.6-.1-1.2-.2-1.8l-.3-1.8c-.1-.6-.1-1.2-.2-1.8l2 6h1.2l2-6c0 .6-.1 1.2-.2 1.8 0 .6 0 1.2-.1 1.8-.1.6-.1 1.2-.2 1.8V22h2V10.2H8.9l-2.2 6.4-2.2-6.4H2.8V22zm12.8-1.6c-.2 0-.5 0-.7-.1-.2-.1-.4-.2-.5-.4-.1-.2-.2-.4-.2-.7h-2c0 .4.1.8.2 1.2.1.4.4.7.6 1 .3.3.6.5 1 .6.4.1.8.2 1.2.2h1.2c.4-.1.8-.2 1.1-.4.4-.2.6-.4.9-.8.2-.3.4-.7.5-1.1.1-.4.1-.8.1-1.2v-8.5h-4.2V12H17v6.7c0 .2 0 .4-.1.6 0 .2-.1.4-.3.6-.1.2-.3.3-.5.4-.1 0-.3.1-.5.1zm6.3 1.6h2v-4.4h1.5c.4 0 .7 0 1-.1.4-.1.7-.2 1-.3.3-.2.6-.4.8-.6.2-.3.4-.6.5-.9.1-.3.2-.7.2-1v-1.4c0-.3-.1-.7-.2-1-.1-.3-.3-.6-.5-.9-.2-.3-.5-.5-.8-.6-.3-.2-.7-.3-1-.3-.3-.1-.7-.1-1-.1h-3.5V22zm2-6.2V12h1.5c.2 0 .4 0 .6.1.2 0 .4.1.5.2.2.1.3.2.4.4s.1.3.1.5v1.4c0 .2 0 .4-.1.5s-.2.3-.4.4c-.2.1-.3.2-.5.2h-2.1z" />
</svg>