<svg xmlns="http://www.w3.org/2000/svg" width="1000" height="1000">
  <path d="M500.496 995.003c275.935 0 494.507-224.506 494.507-495.496C995.003 226.54 773.464 5 500.496 5 223.572 5 5 229.506 5 499.507c0 276.924 224.506 495.496 495.496 495.496zM291.814 719.068c0-35.604.99-70.22 0-105.824 0-9.89 3.956-13.846 12.857-16.813 44.506-13.847 89.012-28.682 132.528-43.517 3.956-1.978 9.89-2.967 14.835-6.923h-10.879c-46.483-2.967-91.978-4.945-136.484-5.934-8.9 0-12.857-2.967-12.857-10.88 0-39.56.99-79.12 0-118.681 0-9.89 5.934-10.88 12.857-13.846 39.56-13.847 79.121-28.682 117.693-42.528 1.978-.989 2.967-2.967 7.912-3.956-39.56-2.967-76.154-5.934-112.747-8.901h-5.935c-18.79-.99-19.78-.99-19.78-20.77 0-35.604.99-72.198 0-106.813 0-11.868 3.956-15.824 13.846-13.846 75.165 0 149.342-1.978 224.507 0 20.769 0 41.538 4.945 64.286 7.912v3.956c-16.814 8.901-33.627 16.813-52.418 26.703v2.967c28.681 0 56.374 2.967 83.077 0 28.681-2.967 53.407-.989 73.187 19.78 21.758 21.759 41.539 40.55 60.33 62.309 7.912 7.912 7.912 13.846-3.956 19.78-41.539 20.77-86.044 44.506-127.583 67.253v2.967c29.67-3.956 57.363-8.901 87.033-12.857 22.748-3.956 44.506-7.912 66.264-12.857 9.89-2.968 13.846 0 16.813 8.9 13.847 39.561 20.77 78.133 17.803 119.671-.99 3.956-4.945 10.88-10.88 13.847-46.483 25.714-93.956 49.45-142.418 73.187-3.956 2.967-9.89 3.956-13.846 6.923v2.967c50.44-5.934 99.89-9.89 150.33-15.824 1.979 1.978 2.968 1.978 2.968 2.967-10.88 22.747-20.77 45.494-33.627 66.264-49.45 76.154-119.67 120.66-209.671 135.495-9.89.989-19.78 1.978-30.66 1.978H300.716c-1.978 0-1.978-.99-5.934-1.978 53.407-16.814 105.825-32.638 156.264-49.451v-2.967c-2.967 0-3.956-.99-6.923-.99-43.516-2.966-87.033-4.944-132.528-7.911-19.78-.99-19.78-1.978-19.78-21.759z" style="fill:#000;fill-opacity:1;fill-rule:nonzero;stroke:none;"/>
</svg>
