<svg xmlns="http://www.w3.org/2000/svg" viewBox="0 0 1000 1000"><path d="M361.217,482.386c-7.781-7.781-7.781-20.394,0-28.175l92.993-92.993c7.781-7.781,20.394-7.781,28.175,0s7.781,20.394,0,28.175l-92.993,92.993c-7.781,7.781-20.394,7.781-28.175,0Zm258.546-130.324l-267.7,267.7c-7.781,7.781-7.781,20.394,0,28.175,7.781,7.781,20.394,7.781,28.175,0l267.7-267.7h0c7.781-7.782,7.781-20.394,0-28.175-7.781-7.781-20.394-7.781-28.175,0Zm-10.57,164.137l-92.993,92.993c-7.781,7.781-7.781,20.394,0,28.175,7.782,7.781,20.394,7.781,28.175,0l92.993-92.993h0c7.781-7.781,7.781-20.394,0-28.175-7.771-7.781-20.394-7.781-28.175,0Zm390.808-16.199c0,276.142-223.858,500-500,500S0,776.142,0,500,223.858,0,500,0s500,223.858,500,500Zm-141.339,0c0-198.083-160.578-358.661-358.661-358.661S141.339,301.917,141.339,500s160.578,358.661,358.661,358.661,358.661-160.578,358.661-358.661Z"/></svg>