<svg xmlns="http://www.w3.org/2000/svg" viewBox="0 0 1000 1000"><path d="M500.496 5C223.572 5 5 229.506 5 500.002c0 276.43 224.506 495.001 495.002 495.001 276.43 0 495.001-224.506 495.001-495.001C995.003 226.539 773.464 5 500.496 5zm-311.54 245.276c0-2.968 6.924-8.902 12.858-8.902H537.09c-8.901 5.934-10.88 11.869-14.836 14.836-35.604 35.604-48.461 87.033-25.714 133.517 34.616 79.12 69.231 158.242 102.858 237.363 7.912 9.89 7.912 19.78 0 31.648-27.693 59.341-56.374 124.616-84.067 186.924 0 5.934-3.956 11.868-9.89 25.714-8.9-22.747-18.791-42.527-24.725-57.362-60.33-129.561-117.693-260.111-174.067-388.683-18.79-39.56-38.571-73.187-56.373-110.77-10.88-18.79-25.715-39.56-50.44-39.56-16.813-1.978-10.88-14.835-10.88-24.725zm342.2 129.56c-31.649-59.34 15.824-123.626 73.187-132.528 15.824-2.967 31.648-2.967 47.472-2.967h152.309c5.934 0 14.835-2.967 16.813 11.869 0 12.857-5.934 16.813-14.835 16.813-15.825 1.978-27.693 8.901-33.627 24.725-19.78 29.67-36.593 57.363-47.473 86.044-31.648 59.341-57.362 123.627-86.044 185.935-2.967 6.923-5.934 12.857-12.857 25.715-18.791-41.54-34.616-76.155-51.429-113.737-14.835-35.605-27.692-66.264-43.516-101.869z"/></svg>