<svg xmlns="http://www.w3.org/2000/svg" viewBox="0 0 1000 1000"><path d="M5 123.929v752.727c0 45.585 90 60.78 90-8.182 0-123.896 3.507-248.96 3.507-372.857 0-123.896-2.338-248.961 3.506-371.688 2.338-61.948-93.506-53.767-97.013 0zM305.39 762.11c0 61.948 91.169 66.623 91.169-7.013V296.916c0-67.793-91.17-65.455-91.17-9.35zM602.273 631.2c0 39.74 7.013 66.624 47.922 66.624 33.896 0 42.078-25.714 42.078-66.623V412.63c0-40.909-18.701-59.61-40.909-59.61-32.727 0-49.09 18.701-49.09 67.792zm299.221 248.962c0 58.441 93.507 59.61 93.507 0V118.084c0-57.272-93.507-56.103-93.507 0z"/></svg>