<svg xmlns="http://www.w3.org/2000/svg" width="1000" height="1000">
  <path d="M5 500.496c0 271.98 220.55 494.507 495.496 494.507 271.98 0 494.507-220.55 494.507-495.496C995.003 227.528 773.464 5 500.496 5 226.54 5 5 225.55 5 500.496zm158.242-3.956c134.506-134.506 270.99-270.99 409.452-408.463 2.967 2.967 9.89 7.912 14.835 12.857 61.32 61.32 121.65 121.65 181.98 183.957 7.911 6.923 12.856 18.791 12.856 28.681.99 122.638.99 244.287 0 366.925 0 9.89-2.967 21.758-9.89 28.681-64.286 65.275-128.572 129.561-193.847 194.836-1.978 1.978-4.945 2.967-4.945 2.967-137.473-137.473-274.946-273.957-410.44-410.44zm52.418 3.956c48.462 49.45 98.901 99.89 154.286 154.286 51.429-156.264 101.869-309.561 152.308-458.902C420.386 296.76 317.53 398.628 215.66 500.496zm206.704 114.726c6.923-4.945 8.901-4.945 10.88-6.923 67.252-67.253 135.494-135.495 201.758-202.748 4.945-4.945 8.901-14.835 6.923-19.78-22.747-69.232-45.494-137.474-68.242-206.705-2.967.99-4.945.99-6.923.99-47.473 143.407-94.945 286.814-144.396 435.166zm6.923 55.385H737.86c-26.704-78.133-52.418-154.287-77.144-229.452-78.132 77.143-154.286 152.308-231.429 229.452zm4.945 41.538c45.495 46.484 91.979 93.957 135.495 138.462 46.484-44.505 92.968-90 143.407-138.462zm181.979-524.177c20.77 61.319 39.56 117.692 57.363 171.1 20.769-18.792 40.55-37.583 57.363-53.408-36.594-38.571-74.177-75.165-114.726-117.692zm79.121 238.352c13.846 37.583 25.714 77.143 38.572 114.726 1.978 5.934 3.956 9.89 6.923 14.835.989 0 1.978 0 2.967-.99V357.09c-1.978-.989-3.956-.989-5.934-2.967-10.88 12.857-21.759 25.714-33.627 36.594-12.857 10.879-13.846 20.769-8.901 35.604z" style="fill:#000;fill-opacity:1;fill-rule:nonzero;stroke:none;"/>
</svg>
