<svg xmlns="http://www.w3.org/2000/svg" width="1000" height="1000">
  <path d="M500.496 995.003c275.935 0 494.507-224.506 494.507-495.496C995.003 226.54 773.464 5 500.496 5 223.572 5 5 229.506 5 499.507c0 276.924 224.506 495.496 495.496 495.496zM127.638 569.727V497.53c38.571 0 75.165-1.978 112.747 1.978 12.858.99 26.704 14.835 35.605 26.704 35.604 46.483 70.22 95.934 106.813 147.363C431.265 562.804 477.75 455 526.211 348.188c14.835-35.605 34.615-69.231 51.428-102.858h240.33c-1.977 22.748-2.966 45.495-3.955 72.198-55.385 0-108.792 1.979-163.188-.989-24.725 0-37.582 7.913-47.472 31.649-55.385 130.55-112.748 261.1-171.1 391.65-7.912 15.824-23.736 39.56-37.582 39.56-15.825 0-35.605-16.813-46.484-32.637-36.594-45.495-71.21-92.968-103.847-142.418-17.802-26.704-36.593-38.572-67.253-34.616-15.824 1.978-31.648 0-49.45 0z" style="fill:#000;fill-opacity:1;fill-rule:nonzero;stroke:none;"/>
</svg>
