<?xml version="1.0" encoding="utf-8"?>
<!-- Generator: Adobe Illustrator 26.0.1, SVG Export Plug-In . SVG Version: 6.00 Build 0)  -->
<svg version="1.1" xmlns="http://www.w3.org/2000/svg" xmlns:xlink="http://www.w3.org/1999/xlink" x="0px" y="0px"
	 viewBox="0 0 1000 1000" style="enable-background:new 0 0 1000 1000;" xml:space="preserve">
<g id="Layer_1">
	<g>
		<path d="M500.5,5C223.6,5,5,229.5,5,499.5C5,773.5,226.5,995,499.5,995C776.4,995,995,770.5,995,499.5C995,223.6,770.5,5,500.5,5z
			 M750.9,750.9C684.4,817.5,594.1,854.8,500,854.8s-184.4-37.4-250.9-103.9C182.5,684.4,145.2,594.1,145.2,500
			s37.4-184.4,103.9-250.9c66.5-66.5,156.8-103.9,250.9-103.9s184.4,37.4,250.9,103.9c66.5,66.5,103.9,156.8,103.9,250.9
			S817.5,684.4,750.9,750.9z"/>
		<path d="M822.6,519.4c-8.4-9.8-41.3-24.9-76.1-35.8c4.4-24.3,7.8-49.2,4-73.5c-4.1-37.5-16.9-48.9-55.5-39.3
			c-5.7,1.3-11.9,3.2-18.3,5.6c-4.5-7.3-8.8-14.2-13-20.2c-40.6-59.1-130.5-173.7-166.7-173.7c-28.8-1.5-40.9,7.3-65.7,21.5
			c-26,14.9-41.5,28.5-69.9,46.6c-4,2.6-8.1,5.1-12.1,7.7c-8.3,5.2-16.3,10.9-23.9,17.2c-3.2,2.6-6.1,5.5-8.8,8.6
			c-0.7,0.9-1.9,2.4-2.7,3.9c-8.6-2.3-26.4,2.5-26.4,2.5s-11.4-25.6-19.7-24.4v0c-8.3,1.2-6.8,28.2-6.8,28.2s-27.3,2-29.1,8.6
			c-1.8,6.6,24.5,17.8,24.5,17.8s-6.9,27.2-0.8,30.4c6,3.1,24.6-17.7,24.6-17.7s24.3,15.1,28.6,10.1c4.3-5-9.3-29-9.3-29
			s12.3-9.2,17.1-16.9c1,1,2,1.9,3.1,2.8c10.4,7,21.4,13.2,32.8,18.4c0.1,0-19.2,34.9-30.9,55.9c-4.8-1.6-9.4-3-13.8-4
			c-38.6-9.6-51.5,1.8-55.5,39.3c-3.8,24.2-0.4,49,4,73.1c-41.3,12.7-72.8,30-76.8,36.2c-5.7,8.8,26.5,17,54.6,21.4
			c4.8,0.8,12.6,1.5,22.8,2.2c-2.7,12.4-4.1,25-4.1,37.8c0,14.1,1.7,27.9,4.9,41.3c-13.9,2.4-27.6,6.1-40.8,11.2l0,0
			c-1.2,0.4-2.3,1.2-2.9,2.3s-0.8,2.5-0.5,3.7c0.4,1.3,1.2,2.3,2.3,3c1.1,0.6,2.5,0.8,3.7,0.5c13.2-5.1,26.8-8.8,40.7-11.1
			c2.9,9.8,6.7,19.3,11.2,28.5c-1.4,0.4-2.9,0.8-4.3,1.3h0c-11.6,3.5-24.1,8.2-33.3,16.6c-4.7,4.3,2.3,11.3,7,7
			c7.5-7,19.3-11.2,29.6-14.2c1.9-0.6,3.8-1.1,5.7-1.6c4.5,8.1,9.6,15.9,15.2,23.4c-1.3,0.8-2.6,1.6-3.9,2.5
			c-9.1,5.6-17.1,12.8-23.7,21.3c-0.7,1.1-0.8,2.5-0.5,3.7c0.3,1.3,1.1,2.3,2.3,3c1.1,0.6,2.5,0.8,3.7,0.5c1.3-0.3,2.3-1.1,3-2.2
			c5.5-7.7,13.5-13.6,21.3-18.7c1.3-0.8,2.6-1.6,3.9-2.4c45.1,54.2,120.1,89.8,205,89.8c85.3,0,160.7-35.8,205.7-90.5
			c1.6,0.9,3.1,1.8,4.7,2.8c8.1,5.1,16.1,11.2,21.8,19c0.7,1.1,1.8,1.9,3,2.2c1.3,0.3,2.6,0.2,3.7-0.5c1.1-0.7,1.9-1.8,2.3-3
			c0.3-1.3,0.1-2.6-0.5-3.7c-7.5-10.3-17.7-18.3-28.7-24.8c5.5-7.4,10.4-15,14.8-22.9c2.3,0.6,4.6,1.2,6.9,2
			c5.7,1.6,11.3,3.7,16.7,6.2c4.7,2,9,4.8,12.8,8.1c4.7,4.3,11.6-2.6,7-7c-9.1-8.4-21.6-13.1-33.2-16.6c-1.8-0.6-3.7-1.1-5.5-1.6
			c4.5-9.2,8.2-18.7,11-28.5c14.4,2.3,28.5,6,42.1,11.3c1.3,0.3,2.6,0.2,3.8-0.5c1.1-0.6,2-1.7,2.3-3c0.3-1.2,0.1-2.6-0.5-3.7
			c-0.6-1.1-1.7-1.9-2.9-2.3c-13.7-5.3-27.8-9.1-42.2-11.4c3.1-13.2,4.8-26.8,4.8-40.8c0-13.6-1.6-27.1-4.6-40.3
			c5.7-0.6,10.6-1.2,14.4-1.9C796.1,532.7,830.5,528.6,822.6,519.4z M349.4,628.7c-28.7-16-31.1-63.1-31.1-63.1s50-3.3,79.3,9.6
			v-0.1c43.8,19.3,49.2,63.1,49.2,63.1S383.5,647.6,349.4,628.7z M504.4,677.8c-7.9,0-14.4-2.8-14.4-6.3c0-3.6,6.5-6.3,14.4-6.3
			c8,0,14.4,2.8,14.4,6.3C518.8,675,512.4,677.8,504.4,677.8z M657.7,628.7c-34.1,18.9-97.4,9.6-97.4,9.6v-0.2
			c0,0,5.4-43.7,49.2-62.8c29.3-12.9,79.3-9.6,79.3-9.6S686.4,612.8,657.7,628.7z"/>
	</g>
</g>
<g id="Layer_2">
</g>
</svg>
