<svg xmlns="http://www.w3.org/2000/svg" width="1000" height="1000">
  <path d="M5 500.496c0 271.98 220.55 494.507 495.496 494.507 271.98 0 494.507-220.55 494.507-495.496C995.003 227.528 773.464 5 500.496 5 226.54 5 5 225.55 5 500.496zm145.385 45.495v-74.176h511.32c59.341 0 109.781-41.539 114.726-95.935 8.901-69.23-40.55-129.56-109.78-129.56H410.496v-75.166H666.65c114.725 0 197.802 96.924 183.956 209.671-9.89 77.144-27.692 87.034-65.275 119.671 14.836 28.682 40.55 54.396 50.44 83.077 55.385 119.671-30.66 255.166-163.187 260.111h-262.09v-74.176h251.21c69.231 0 119.671-51.429 119.671-115.715 0-60.33-50.44-107.802-119.67-107.802H183.023z" style="fill:#000;fill-opacity:1;fill-rule:nonzero;stroke:none;"/>
</svg>
