<svg xmlns="http://www.w3.org/2000/svg" viewBox="0 0 1000 1000"><path d="M499.07 995c5.886 0 17.658-8.24 23.544-14.125 111.83-71.808 224.84-150.678 340.202-224.84 17.658-11.772 23.543-23.543 10.595-47.087-32.961-62.39-63.568-124.78-96.528-183.639-12.95-20.011-12.95-36.492 0-52.972 32.96-64.745 63.567-127.135 96.528-185.993 7.063-23.544 7.063-35.315-10.595-47.087C747.453 167.45 634.445 87.402 522.614 15.595c-17.658-14.126-29.43-14.126-45.91 0-113.008 71.807-226.017 151.855-341.38 223.662-16.48 11.772-20.011 23.543-10.594 47.087 32.96 56.504 63.567 121.248 96.528 185.993 5.886 16.48 12.949 32.96 0 52.972-32.96 58.859-63.567 121.25-96.528 183.64-9.417 23.543-5.886 35.314 10.595 47.086 115.362 74.162 228.37 153.032 341.379 224.84C481.413 986.76 493.184 995 499.07 995zM195.36 693.646c20.012-40.024 42.378-85.934 65.922-133.02 0 7.063 5.886 7.063 5.886 7.063C316.608 670.1 369.58 772.515 426.086 877.284c-7.063 5.885-15.304-2.355-15.304-2.355-70.63-44.732-136.551-91.82-206.004-135.374-16.48-12.95-23.544-22.367-9.418-45.91zm9.418-368.455c-29.43-55.327-29.43-45.91 22.366-78.87 57.681-38.847 113.008-78.87 163.627-116.54 11.771-8.24 15.303-8.24 22.366-15.303 12.949-8.24 5.886 7.063 5.886 7.063-49.442 102.414-102.414 203.65-157.741 316.659-23.544-45.91-40.024-77.693-56.504-113.009zM307.19 525.31c-5.885-14.127-5.885-36.493 0-47.087 11.772-25.898 180.108-369.632 191.88-387.29 23.543 45.91 45.909 92.997 68.275 133.02 41.201 82.403 77.693 161.273 117.717 241.32 11.772 23.544 11.772 40.025 5.886 60.036-62.39 115.363-118.894 234.257-174.221 349.62-8.24 16.48-11.772 17.658-17.658 25.898-5.886-8.24-9.417-15.303-17.657-25.898-55.327-115.363-117.717-234.257-174.222-349.62zm264.864 349.62c54.15-102.415 101.237-204.829 158.918-317.837 28.252 57.681 51.795 102.414 71.807 151.855 4.709 9.417-3.531 17.658-8.24 23.544-70.63 50.618-144.792 97.705-215.422 144.792 0 0-7.063 0-7.063-2.355zm0-753.39s-14.126-25.898 7.063-7.063c23.543 15.303 47.087 30.606 65.921 45.91 45.91 32.96 98.883 70.63 149.501 96.528 15.303 12.948 15.303 22.366 8.24 40.023-20.012 45.91-43.555 88.288-71.807 141.26-57.68-113.008-104.767-214.243-158.917-316.658z"/></svg>