<svg xmlns="http://www.w3.org/2000/svg" viewBox="0 0 1000 1000"><path d="M503.639 599.114v317.867c-54.596 0-101.912 0-150.441-3.64-10.92 0-24.265-9.706-33.97-20.625C218.528 799.297 125.11 698.6 24.411 599.114c-9.706-8.493-16.985-27.904-16.985-40.037C5 411.063 7.427 267.902 5 119.887c0-25.477 9.706-37.61 36.397-36.396h4.853c81.287-12.133 144.375 14.558 197.757 77.646 64.301 77.647 138.308 144.375 208.676 214.742 13.346 8.493 23.051 21.839 42.463 35.184V83.491c59.448 0 104.338-1.214 156.507 0 9.706 0 21.838 10.919 27.904 20.624 100.699 97.059 195.33 194.118 292.39 293.603 13.345 10.919 23.05 32.757 23.05 48.529V875.73c0 31.544-9.705 37.61-38.823 41.25-84.926 10.919-144.374-15.772-202.61-78.86-59.448-78.86-133.455-140.735-203.822-211.103-10.92-9.705-23.052-20.624-31.545-30.33-4.852 2.426-10.919 2.426-14.558 2.426z"/></svg>