<svg xmlns="http://www.w3.org/2000/svg" viewBox="0 0 1000 1000"><path d="M539.128 5h4.968c75.772 44.718 152.787 90.678 228.558 134.154 44.718 24.843 89.436 52.17 135.396 77.014-44.718 44.718-78.256 49.686-127.943 21.117-68.319-38.508-135.395-78.257-202.472-116.764-26.086-14.906-43.476-34.78-39.75-64.592 2.485-17.39 1.243-34.78 1.243-50.929zM50.958 714.275v-424.82c52.17 11.18 78.256 38.507 78.256 90.678 0 78.257-3.727 157.755 1.242 234.77 0 39.748-13.664 65.834-50.929 81.982-7.453 2.484-17.39 7.453-28.57 17.39zm40.991 70.803c31.054-39.749 77.014-47.202 116.763-24.843 70.804 40.992 144.091 81.983 216.137 124.217 34.78 19.874 45.96 58.381 29.812 110.552-121.732-69.561-240.98-139.122-362.712-209.926zm0-567.668c7.453-3.727 14.906-8.695 21.117-13.664C218.65 142.88 324.234 82.014 431.06 21.148c6.21-4.968 12.42-9.937 18.632-16.148h9.937c1.243 91.92 1.243 91.92-78.256 136.638-52.17 32.296-105.584 62.108-160.239 94.404-52.17 28.57-79.498 24.844-129.185-18.632zm105.584 408.672c7.453-37.265 40.991-63.35 78.256-52.171 54.655 12.421 94.405-21.117 139.122-39.75 3.727 0 3.727-7.452 4.97-12.421 0 0-1.243-1.242-1.243-3.727 0-32.296-8.695-58.381-44.718-69.56-29.812-7.454-54.655-27.328-85.71-18.633-52.17 12.421-90.677-13.664-90.677-60.866-1.242-34.78 17.39-62.108 52.17-69.561 29.813-6.211 65.835 7.453 73.288 40.991 12.422 49.687 57.14 67.077 91.92 95.647 1.243 1.242 3.727 1.242 6.211 2.484 14.906 2.484 62.108-37.265 60.866-53.413 0-17.39-1.242-32.296-3.726-49.687-2.485-23.6-8.695-42.233-27.328-59.623-14.906-18.633-26.085-42.234-14.906-67.077 7.453-23.601 24.844-40.992 52.171-44.718 27.328-4.969 52.171 9.937 67.077 32.296 13.664 23.601 13.664 53.413-6.21 75.772-38.508 34.78-31.055 81.983-36.024 124.216-1.242 4.97 7.453 9.938 9.938 12.422 12.421 9.937 26.085 16.148 37.265 23.601 7.453 1.242 18.632 3.727 23.6 0 23.602-13.664 47.203-31.054 68.32-48.444 7.453-7.453 12.421-21.117 17.39-31.054 9.937-29.812 24.843-50.929 58.382-55.898 39.749-3.726 70.803 24.844 73.287 65.835 1.242 39.75-27.327 74.53-67.077 67.077-50.928-8.695-91.92 8.695-134.153 29.812-12.422 6.21-19.875 9.937-17.39 27.327 0 13.664-4.97 29.812-8.696 48.445 33.539 13.663 63.35 29.812 96.89 39.749 11.179 4.969 28.569 2.484 43.475 0 50.928-8.695 90.678 24.843 86.951 70.803-2.484 29.812-23.6 52.171-52.17 57.14-32.297 6.21-65.835-6.211-73.288-40.992-16.148-57.14-67.077-73.287-106.826-104.341-13.664-8.696-55.898 19.874-53.413 34.78 0 26.086 0 50.929 6.21 75.772 3.727 19.875 13.664 42.234 27.328 58.382 23.601 34.78 21.117 73.287-8.695 95.646-28.57 23.601-69.561 18.633-94.404-9.937-18.633-24.843-16.149-62.108 7.453-86.951 37.264-42.234 28.57-93.163 29.811-141.607 0-16.148-44.717-33.538-58.381-22.359-26.086 17.39-50.929 34.78-74.53 55.897-11.18 7.453-17.39 23.602-22.359 37.265-14.906 36.023-49.686 55.898-84.467 47.203-33.538-11.18-54.655-42.234-45.96-75.772zm346.563 368.922c-16.148-62.108-6.21-88.194 43.476-118.005l197.504-115.522c45.96-24.843 78.256-19.874 119.248 22.36-120.49 69.56-239.738 140.364-360.228 211.167zm326.69-354.016V357.774c0-21.116 8.695-36.022 27.327-44.718 16.148-8.695 32.296-16.148 50.929-26.085v428.546c-24.844-16.148-45.96-24.843-60.866-38.507-8.696-8.695-17.39-23.6-17.39-36.022z"/></svg>