<svg width="32" height="32" viewBox="0 0 32 32" fill="none" xmlns="http://www.w3.org/2000/svg">
<path d="M9.24525 0.0640259L2.78125 6.52803H8.02925C8.73325 3.96803 11.4852 0.544026 12.3172 0.0640259H9.24525Z" fill="black"/>
<path d="M15.4532 6.52803V0.0640259H13.9812C11.242 2.03523 9.68258 5.19469 9.24525 6.52803H15.4532Z" fill="black"/>
<path d="M16.7012 6.52803H22.9732C21.514 3.04643 19.1439 0.768026 18.1412 0.0640259H16.7012V6.52803Z" fill="black"/>
<path d="M24.1892 6.52803H29.2772L22.7492 0.0640259H19.8692C21.9428 1.95843 23.3892 4.60803 24.1892 6.52803Z" fill="black"/>
<path d="M22.8133 32L29.2773 25.536L24.0293 25.536C23.3253 28.096 20.5733 31.52 19.7413 32L22.8133 32Z" fill="black"/>
<path d="M16.6053 25.536L16.6053 32L18.0773 32C20.8165 30.0288 22.376 26.8693 22.8133 25.536L16.6053 25.536Z" fill="black"/>
<path d="M15.3573 25.536L9.08535 25.536C10.5445 29.0176 12.9147 31.296 13.9173 32L15.3573 32L15.3573 25.536Z" fill="black"/>
<path d="M7.86935 25.536L2.78135 25.536L9.30935 32L12.1893 32C10.1157 30.1056 8.66935 27.456 7.86935 25.536Z" fill="black"/>
<path d="M3.24219 22H6.82619C7.22085 22 7.60485 21.9627 7.97819 21.888C8.36219 21.8133 8.72485 21.68 9.06619 21.488C9.40752 21.2853 9.69552 21.0293 9.93019 20.72C10.1649 20.4 10.3302 20.0533 10.4262 19.68C10.5222 19.296 10.5702 18.9067 10.5702 18.512C10.5702 17.2427 10.0155 16.3573 8.90619 15.856C9.68485 15.3547 10.0742 14.576 10.0742 13.52C10.0742 13.168 10.0369 12.8213 9.96219 12.48C9.88752 12.1387 9.75419 11.8187 9.56219 11.52C9.37019 11.2213 9.12485 10.976 8.82619 10.784C8.53819 10.5813 8.21819 10.4427 7.86619 10.368C7.52485 10.2827 7.17819 10.24 6.82619 10.24H3.24219V22ZM6.82619 15.024H5.21019V12.016H6.82619C7.01819 12.016 7.19952 12.0533 7.37019 12.128C7.55152 12.2027 7.69552 12.3147 7.80219 12.464C7.91952 12.6133 7.99952 12.784 8.04219 12.976C8.08485 13.1573 8.10619 13.3387 8.10619 13.52C8.10619 13.712 8.08485 13.8987 8.04219 14.08C7.99952 14.2613 7.91952 14.432 7.80219 14.592C7.69552 14.7413 7.55152 14.8533 7.37019 14.928C7.19952 14.992 7.01819 15.024 6.82619 15.024ZM5.21019 20.224V16.816H6.82619C7.06085 16.816 7.29019 16.848 7.51419 16.912C7.74885 16.976 7.95152 17.088 8.12219 17.248C8.29285 17.408 8.41552 17.6 8.49019 17.824C8.56485 18.048 8.60219 18.2773 8.60219 18.512C8.60219 18.7467 8.56485 18.976 8.49019 19.2C8.41552 19.424 8.29285 19.6213 8.12219 19.792C7.95152 19.952 7.74885 20.064 7.51419 20.128C7.29019 20.192 7.06085 20.224 6.82619 20.224H5.21019Z" fill="black"/>
<path d="M15.9969 22.128C16.3703 22.128 16.7383 22.0907 17.1009 22.016C17.4743 21.9413 17.8209 21.8027 18.1409 21.6C18.4609 21.3973 18.7276 21.1413 18.9409 20.832C19.1649 20.5227 19.3196 20.1867 19.4049 19.824C19.4903 19.4507 19.5329 19.0773 19.5329 18.704V10.24H17.5649V18.704C17.5649 18.9173 17.5329 19.1307 17.4689 19.344C17.4156 19.5467 17.3143 19.7333 17.1649 19.904C17.0156 20.064 16.8343 20.1813 16.6209 20.256C16.4183 20.32 16.2103 20.352 15.9969 20.352C15.7836 20.352 15.5703 20.32 15.3569 20.256C15.1543 20.1813 14.9783 20.064 14.8289 19.904C14.6796 19.7333 14.5729 19.5467 14.5089 19.344C14.4556 19.1307 14.4289 18.9173 14.4289 18.704V10.24H12.4609V18.704C12.4609 19.0773 12.5036 19.4507 12.5889 19.824C12.6743 20.1867 12.8236 20.5227 13.0369 20.832C13.2609 21.1413 13.5329 21.3973 13.8529 21.6C14.1729 21.8027 14.5143 21.9413 14.8769 22.016C15.2503 22.0907 15.6236 22.128 15.9969 22.128Z" fill="black"/>
<path d="M25.1837 22.128C25.653 22.128 26.1117 22.0693 26.5597 21.952C27.0184 21.8347 27.429 21.6213 27.7917 21.312C28.1544 21.0027 28.4264 20.6293 28.6077 20.192C28.7997 19.744 28.8957 19.2907 28.8957 18.832C28.8957 18.4373 28.821 18.0587 28.6717 17.696C28.533 17.3333 28.3304 17.008 28.0637 16.72C27.797 16.432 27.493 16.1867 27.1517 15.984C26.821 15.7813 26.4744 15.6107 26.1117 15.472C25.7597 15.3227 25.397 15.184 25.0237 15.056C24.661 14.9173 24.341 14.6987 24.0637 14.4C23.7864 14.1013 23.6477 13.76 23.6477 13.376C23.6477 13.1627 23.685 12.96 23.7597 12.768C23.8344 12.576 23.9464 12.4107 24.0957 12.272C24.2557 12.1333 24.437 12.0373 24.6397 11.984C24.8424 11.92 25.045 11.888 25.2477 11.888C25.5037 11.888 25.7544 11.9307 25.9997 12.016C26.245 12.1013 26.437 12.256 26.5757 12.48C26.725 12.704 26.805 12.944 26.8157 13.2H28.7837C28.7837 12.752 28.693 12.3253 28.5117 11.92C28.3304 11.504 28.0637 11.152 27.7117 10.864C27.3704 10.576 26.981 10.3787 26.5437 10.272C26.117 10.1653 25.685 10.112 25.2477 10.112C24.789 10.112 24.3357 10.176 23.8877 10.304C23.4504 10.4213 23.0557 10.64 22.7037 10.96C22.3624 11.2693 22.101 11.6427 21.9197 12.08C21.749 12.5067 21.6637 12.9493 21.6637 13.408C21.6637 13.792 21.733 14.1707 21.8717 14.544C22.021 14.9067 22.229 15.232 22.4957 15.52C22.7624 15.808 23.061 16.0533 23.3917 16.256C23.7224 16.448 24.069 16.6187 24.4317 16.768C24.7944 16.9067 25.157 17.0453 25.5197 17.184C25.8824 17.3227 26.2024 17.5413 26.4797 17.84C26.7677 18.1387 26.9117 18.48 26.9117 18.864C26.9117 19.152 26.8317 19.424 26.6717 19.68C26.5117 19.9253 26.293 20.1013 26.0157 20.208C25.749 20.304 25.4717 20.352 25.1837 20.352C24.917 20.352 24.6504 20.3093 24.3837 20.224C24.1277 20.1387 23.9144 19.984 23.7437 19.76C23.5837 19.536 23.4984 19.2853 23.4877 19.008H21.5197C21.5197 19.4667 21.6157 19.9093 21.8077 20.336C21.9997 20.752 22.277 21.104 22.6397 21.392C23.0024 21.6693 23.4024 21.8613 23.8397 21.968C24.2877 22.0747 24.7357 22.128 25.1837 22.128Z" fill="black"/>
</svg>
