<svg xmlns="http://www.w3.org/2000/svg" viewBox="0 0 1000 1000"><path d="M5 500.496c0 271.98 220.55 494.507 495.496 494.507 271.98 0 494.507-220.55 494.507-495.496C995.003 227.528 773.464 5 500.496 5 226.54 5 5 225.55 5 500.496zm133.517-155.275c27.692-15.824 49.45-32.638 78.132-48.462 7.912 32.638 7.912 63.297 7.912 95.935-7.912-3.956-11.868-3.956-19.78-7.913-54.396 215.606 23.736 389.672 228.462 437.145 117.693 29.67 217.583-3.956 301.65-84.066 32.637-27.693 28.681-27.693 63.296-7.913 3.957 3.957 7.913 7.913 12.858 11.869-18.792 25.714-39.56 43.516-63.297 63.297-54.396 42.527-113.737 70.22-180 79.12-111.76 12.858-217.584-8.9-307.584-87.033-141.43-116.703-157.254-253.187-105.825-441.1-3.956-1.978-7.912-1.978-15.824-10.88zm58.352-66.264c71.209-88.022 157.253-142.418 267.034-154.286 170.11-11.868 299.671 54.395 386.704 204.726 62.308 117.692 46.484 274.946-3.956 354.067-15.824-7.912-27.692-15.824-39.56-23.737-8.902-6.923-8.902-11.868-4.945-19.78 40.55-85.055 39.56-189.89 0-268.023-54.396-113.736-143.408-177.033-267.034-188.901-89.012-7.913-169.122 20.769-235.386 75.165-19.78 16.813-35.604 30.66-52.417 50.44-14.836-11.869-30.66-19.78-50.44-29.671zm141.429 425.276V350.166c0-35.605 10.879-57.363 47.473-57.363 136.483 0 198.791-9.89 244.286 19.78 24.725 12.858 34.616 32.638 38.572 55.385 7.912 44.506 7.912 87.033-34.616 114.726v8.901c45.495 23.736 60.33 60.33 55.385 116.704-8.901 71.209-59.341 101.868-121.649 105.824-50.44 7.912-103.846 3.956-154.286 3.956h-59.34c-11.87 0-15.825-3.956-15.825-13.846zm90.99-79.121c0 10.88 3.955 14.835 16.812 14.835 12.858-.989 88.023-.989 100.88-3.956 36.593-1.978 50.44-23.736 46.484-59.34-3.957-26.704-17.803-42.528-46.484-42.528-34.616-3.956-71.21-3.956-104.836-3.956-8.9 0-12.857 7.912-12.857 15.824zm0-182.968c0 8.901 3.955 12.857 12.856 12.857H546.98c28.681-3.956 36.593-20.769 36.593-46.483 0-37.583-44.505-40.55-91.978-40.55H446.1c-12.857 0-16.813 3.956-16.813 16.813z"/></svg>