<svg width="1000" height="1000" viewBox="0 0 1000 1000" fill="none" xmlns="http://www.w3.org/2000/svg">
<path d="M289 2L87 204H251C273 124 359 17 385 2H289Z" fill="black"/>
<path d="M483 204V2H437C351.4 63.6 302.667 162.333 289 204H483Z" fill="black"/>
<path d="M522 204H718C672.4 95.2 598.333 24 567 2H522V204Z" fill="black"/>
<path d="M756 204H915L711 2H621C685.8 61.2 731 144 756 204Z" fill="black"/>
<path d="M713 1000L915 798L751 798C729 878 643 985 617 1000L713 1000Z" fill="black"/>
<path d="M519 798L519 1000L565 1000C650.6 938.4 699.333 839.667 713 798L519 798Z" fill="black"/>
<path d="M480 798L284 798C329.6 906.8 403.667 978 435 1000L480 1000L480 798Z" fill="black"/>
<path d="M246 798L87 798L291 1000L381 1000C316.2 940.8 271 858 246 798Z" fill="black"/>
<path d="M450.069 584.5C450.069 609.2 446.602 631.516 439.669 651.45C432.735 670.95 423.202 687.633 411.069 701.5C398.935 714.933 384.419 725.333 367.519 732.7C350.619 739.633 332.202 743.1 312.269 743.1C291.902 743.1 273.269 739.633 256.369 732.7C239.469 725.333 224.952 714.933 212.819 701.5C200.685 688.066 191.152 671.6 184.219 652.1C177.719 632.6 174.469 610.716 174.469 586.45C174.469 561.316 177.719 537.916 184.219 516.25C191.152 494.15 200.035 472.7 210.869 451.9L301.869 273.8H387.019L293.419 449.3L294.069 449.95C298.835 445.616 304.902 442.366 312.269 440.2C320.069 438.033 327.435 436.95 334.369 436.95C349.535 436.95 364.052 439.983 377.919 446.05C392.219 451.683 404.569 460.566 414.969 472.7C425.802 484.4 434.252 499.566 440.319 518.2C446.819 536.833 450.069 558.933 450.069 584.5ZM375.969 583.85C375.969 556.983 370.769 534.883 360.369 517.55C349.969 500.216 334.369 491.55 313.569 491.55C303.602 491.55 294.719 493.933 286.919 498.7C279.119 503.466 272.402 510.183 266.769 518.85C261.135 527.083 256.802 536.833 253.769 548.1C250.735 559.366 249.219 571.716 249.219 585.15C249.219 613.316 254.852 636.066 266.119 653.4C277.385 670.3 292.985 678.75 312.919 678.75C332.852 678.75 348.235 670.083 359.069 652.75C370.335 634.983 375.969 612.016 375.969 583.85Z" fill="black"/>
<path d="M840.719 684.6C828.585 702.8 812.985 717.533 793.919 728.8C775.285 740.066 751.669 745.7 723.069 745.7C697.069 745.7 673.452 739.633 652.219 727.5C631.419 715.366 613.652 698.683 598.919 677.45C584.619 655.783 573.352 630.216 565.119 600.75C557.319 571.283 553.419 539 553.419 503.9C553.419 468.8 557.319 436.516 565.119 407.05C573.352 377.15 584.835 351.583 599.569 330.35C614.302 308.683 632.069 292 652.869 280.3C674.102 268.166 697.502 262.1 723.069 262.1C749.502 262.1 772.685 267.083 792.619 277.05C812.552 286.583 828.802 300.45 841.369 318.65L796.519 373.25C778.752 347.683 755.785 334.9 727.619 334.9C712.019 334.9 698.369 339.45 686.669 348.55C674.969 357.216 665.219 369.133 657.419 384.3C649.619 399.466 643.769 417.45 639.869 438.25C635.969 458.616 634.019 480.5 634.019 503.9C634.019 526.866 635.969 548.75 639.869 569.55C643.769 589.916 649.619 607.683 657.419 622.85C665.219 638.016 674.969 650.15 686.669 659.25C698.802 667.916 712.885 672.25 728.919 672.25C744.085 672.25 757.085 668.35 767.919 660.55C779.185 652.75 788.502 643.216 795.869 631.95L840.719 684.6Z" fill="black"/>
</svg>
