<svg xmlns="http://www.w3.org/2000/svg" width="1000" height="1000">
  <path d="M500.496 5c272.968 0 494.507 221.54 494.507 495.002 0 270.495-218.572 495.001-495.001 495.001C229.506 995.003 5 776.431 5 500.002 5 229.506 223.572 5 500.496 5zM228.517 799.178h552.86V718.08h-552.86zm0-163.187h101.869V439.177c0-11.868-.99-22.747 0-33.626 1.978-12.857 6.923-25.715 11.868-36.594 11.868-20.77 37.582-31.648 66.264-27.692 23.736 3.956 39.56 19.78 43.516 45.495 1.979 8.9 1.979 18.79 1.979 29.67 1.978 68.242 1.978 136.484 1.978 206.704v12.857h99.89V416.43c0-14.835 1.978-29.67 10.88-42.528 10.878-23.736 34.615-34.615 65.274-32.637 23.736 1.978 41.539 16.813 46.484 43.516.989 10.88 2.967 20.77 2.967 31.649v219.56h99.89V388.738c0-36.594-12.857-72.199-36.593-99.89-49.451-58.353-162.199-58.353-209.671 1.977 0 2.967-2.967 2.967-4.945 4.945-23.737-32.637-56.374-50.44-94.946-50.44-41.538 0-76.154 10.88-104.835 43.517V256.21H228.517z" style="fill:#000;fill-opacity:1;fill-rule:nonzero;stroke:none;"/>
</svg>
