<svg xmlns="http://www.w3.org/2000/svg" viewBox="0 0 1000 1000"><path d="M5 500.496C5 225.55 226.54 5 500.496 5c272.968 0 494.507 222.528 494.507 494.507 0 274.946-222.528 495.496-494.507 495.496C225.55 995.003 5 772.475 5 500.496zm123.627-200.77c-9.89 33.627 28.681 62.308 119.67 121.649 43.517 29.67 87.034 75.165 109.781 126.594 30.66 96.923 73.187 186.924 104.836 276.924 10.879 21.758 21.758 41.538 46.483 41.538 27.693 0 38.572-19.78 50.44-41.538 1.978-2.967 102.858-266.045 108.792-280.88 16.813-53.407 50.44-89.012 96.923-116.704 62.308-43.517 141.43-91.978 127.583-127.583-12.857-30.66-39.56-31.648-73.187-31.648H214.67c-32.637 0-75.165-6.923-86.044 31.648zm38.571 31.649c-25.714-16.814-18.79-42.528 19.78-42.528H466.87c6.923 0 13.846 2.967 6.923 10.88C427.309 346.21 377.858 400.605 330.386 455c-58.352-42.527-111.759-81.099-163.188-123.626zM346.21 462.914c53.407-46.484 95.934-93.957 148.352-151.32v259.122c-52.418-37.582-94.945-69.23-148.352-107.802zm15.824 54.395c-7.912-17.802-3.956-20.769 10.88-11.868 35.604 27.693 74.175 53.407 111.758 86.044 9.89 6.924 15.824 10.88 15.824 14.836v213.627c0 11.868-3.956 13.846-10.879 4.945-42.528-105.825-85.055-206.704-127.583-307.584zm159.231 307.584V618.189c0-11.868 10.88-26.704 15.825-31.649 37.582-27.692 73.187-53.406 123.626-73.187-42.527 104.836-86.044 210.66-128.571 311.54 0 0-10.88 8.901-10.88 0zm4.946-254.177v-251.21c0-13.846 5.934-4.945 10.879 0 42.527 49.451 90 96.924 138.462 143.408-53.407 38.571-95.935 70.22-149.341 107.802zm10.879-275.935c-4.945-5.934 42.527-5.934 58.352-5.934h216.594c92.967 0 73.187 12.857-19.78 90-30.66 21.759-64.287 48.462-100.88 76.154-47.473-54.395-95.934-108.791-154.286-160.22z"/></svg>