<svg xmlns="http://www.w3.org/2000/svg" width="1000" height="1000">
  <path d="M561.545 685.037c-1.093 5.463-2.186 8.74-2.186 13.11-2.185 4.37-4.37 9.834-6.555 16.389 0 2.185-2.185 2.185-4.37 2.185-9.833-4.37-19.666-8.74-28.406-13.11-28.407-12.019-56.813-25.13-86.312-38.24-25.128-12.018-50.257-24.036-76.478-34.961-17.48-7.648-34.962-15.296-52.442-24.037-9.833-4.37-20.759-8.74-30.592-13.11-3.278-2.185-3.278-3.278-1.092-5.463l13.11-22.943c1.093 0 1.093-1.093 2.185-2.186-4.37 0-7.648 0-10.925-1.092-25.129-1.093-49.165-5.463-72.108-13.11-13.111-4.37-25.13-8.741-37.147-13.111-30.592-10.926-56.813-29.5-81.941-50.257-21.851-18.574-38.24-41.517-52.443-67.739-12.018-22.943-21.85-48.072-26.22-74.293-4.371-24.036-3.279-48.072 3.277-72.108 5.463-18.573 13.11-36.054 24.036-51.35 15.296-22.943 33.869-42.61 57.905-57.905 17.48-10.926 37.147-19.666 56.813-26.221 25.128-6.556 50.257-9.833 75.385-8.74 38.24 0 74.294 8.74 107.07 24.035 24.036 9.833 46.98 21.851 67.738 38.24 17.481 13.11 33.87 26.22 45.887 43.702 8.74 12.018 16.389 24.036 22.944 37.146 13.11 26.222 26.221 52.443 38.24 78.664 6.554 15.296 12.017 29.499 17.48 44.794 2.185 3.278 2.185 4.37 6.555 2.185 16.388-6.555 32.777-13.11 50.257-18.573 20.759-6.555 41.517-13.11 63.368-18.573 17.481-3.278 33.87-7.648 51.35-9.833a236.4 236.4 0 0 1 39.332 0c28.406 2.185 54.627 9.833 80.848 18.573 25.13 9.833 48.073 21.851 69.924 38.24 21.85 15.295 40.424 32.776 57.905 53.534 10.925 15.296 21.85 30.592 30.591 48.072 10.926 21.851 17.48 45.888 19.666 71.016 2.185 24.036 0 48.072-7.648 72.108-6.555 21.851-17.48 43.702-33.869 61.183-19.666 24.036-45.887 42.61-74.293 54.628-15.296 6.555-30.592 12.018-45.887 15.295-10.926 2.185-22.944 3.278-33.87 3.278-30.59 2.185-61.182-1.093-90.68-9.833-13.111-3.278-27.315-7.648-39.333-14.203-19.666-9.833-38.239-19.666-55.72-31.684-16.388-12.018-31.684-22.944-44.794-37.147zM105.952 364.92c5.462 14.203 12.018 28.406 20.758 39.332 10.925 14.203 21.851 27.314 37.147 36.054 18.573 12.018 38.239 21.851 58.997 28.406 17.481 5.463 37.147 9.833 57.905 9.833 12.018 1.093 27.314-2.185 40.425-6.555 14.203-2.185 28.406-6.555 42.61-10.926 26.22-9.833 52.442-19.665 77.57-29.498 3.278-1.093 3.278-3.278 3.278-5.463-6.555-17.48-13.11-34.962-19.666-51.35-5.463-10.925-10.926-21.85-16.388-33.869-8.74-20.758-18.574-40.424-31.684-57.905-6.556-8.74-12.018-17.48-19.666-24.036-10.926-8.74-24.036-17.48-36.054-24.036-29.5-18.574-62.276-28.407-98.33-26.221-21.85 2.185-42.61 6.555-62.275 17.48-26.221 15.296-45.887 37.147-54.627 67.738-8.74 24.036-6.556 48.073 0 71.016zm134.383 356.171v-8.74c0-21.851 4.37-44.795 9.833-66.646 1.093-4.37 1.093-4.37 5.463-2.185 20.758 8.74 41.517 18.573 62.275 28.406 34.962 15.296 69.923 30.592 104.885 46.98 25.128 10.926 50.257 21.851 75.386 33.869 8.74 3.278 17.48 7.648 26.22 12.018 4.371 2.185 4.371 2.185 1.093 6.555-7.647 9.833-14.203 19.666-22.943 28.407-7.648 10.925-18.573 18.573-27.314 28.406-2.185 2.185-4.37 2.185-8.74 1.092-32.777-15.295-65.553-29.498-98.33-44.794-21.85-9.833-43.702-19.666-66.645-30.591-18.573-7.648-37.147-16.389-56.813-24.036-3.277-2.186-4.37-4.37-4.37-8.74zm9.833 73.2c-1.092-1.092 0-2.184 0-3.277 3.278 1.093 6.555 2.185 9.833 4.37l75.386 32.777c26.221 12.018 52.442 24.036 79.756 36.054 1.093 1.093 2.185 1.093 3.278 2.185-1.093 1.093-2.185 2.185-3.278 2.185-34.962 18.574-72.108 31.684-110.347 41.517-3.278 1.093-6.556 3.278-8.74 2.185-2.186 0-2.186-4.37-3.279-7.648-15.295-26.22-27.313-54.627-34.961-83.033-3.278-8.74-5.463-17.481-7.648-27.314zm126.736-249.1c45.887 20.758 91.774 41.517 136.568 62.275 0-1.093 0-1.093 1.093-1.093l-6.555-13.11-22.944-55.72c0-1.093-1.092-2.185-3.278-3.278-8.74-4.37-17.48-7.648-27.313-12.018-2.185-1.092-5.463-1.092-7.648 0-21.851 6.555-43.702 14.203-65.553 20.759-1.093 1.092-2.185 1.092-4.37 2.185zm138.753-355.079c0-56.812 48.073-102.7 104.885-102.7 55.72 0 103.792 44.795 103.792 104.885 0 57.905-45.887 102.7-103.792 103.793-58.997 0-104.885-48.073-104.885-105.978zm43.702 296.081c8.74 22.944 15.296 44.795 24.037 66.646 10.925 26.22 24.036 51.35 39.331 74.293 8.74 12.018 17.481 24.036 30.592 32.776 14.203 9.833 27.313 18.574 42.61 25.129 28.405 12.018 56.812 19.666 87.403 16.388 25.129-2.185 49.165-9.833 69.923-24.036 31.684-22.943 46.98-53.535 48.072-91.774 0-19.666-4.37-38.24-12.018-54.627-8.74-17.481-19.666-32.777-32.776-45.887-14.203-14.204-29.499-26.222-48.072-32.777-13.11-6.555-26.222-10.925-40.425-15.296-13.11-4.37-26.22-6.555-40.424-6.555-9.833 0-20.758 2.185-31.684 4.37-21.85 4.37-42.61 9.833-64.46 17.481-22.944 8.74-45.887 17.48-67.738 25.129-6.556 2.185-6.556 3.277-4.37 8.74z" style="fill:#000;fill-opacity:1;fill-rule:nonzero;stroke:none;"/>
</svg>
