<?xml version="1.0" encoding="utf-8"?>
<!-- Generator: Adobe Illustrator 26.0.1, SVG Export Plug-In . SVG Version: 6.00 Build 0)  -->
<svg version="1.1" id="Layer_1" xmlns="http://www.w3.org/2000/svg" xmlns:xlink="http://www.w3.org/1999/xlink" x="0px" y="0px"
	 viewBox="0 0 1000 1000" style="enable-background:new 0 0 1000 1000;" xml:space="preserve">
<g>
	<path d="M362.2,121l0.5-0.5c0.5-1,48.5-72.5-42.8-74.1c-23.5,0.5-46.9,6.3-67.8,17.7C238.6,72,225.5,80.9,213,89.7
		C152,133,102.5,190.4,67,256.1l-4.2,8.3v0.5C96.2,274.9,300.6,211.3,362.2,121z"/>
	<path d="M237,605.5c-9.4-16.2-56.3-91.8-91.3-137.7c-36-48.5-78.2-91.8-114.7-139.8C-8.6,435-10.2,551.8,25.8,659.8
		c16.7,49.5,40.7,96,72,137.7c42.8,57.4,96.5,104.3,158.5,139.2c31.8,17.7,42.8,17.2,48,16.7c6.3-9.9,11-126.7,6.3-156.5
		C305.9,767.2,296.5,705.7,237,605.5z"/>
	<path d="M831.5,135.1c-30.2-24.5-82.9-25.6-100.1-25.6C587.5,113.7,260.5,226.4,281.9,388c14.6,112.6,177.3,184.1,231,207.6
		c3.7,1.6,394.8,155.4,452.7,92.8C988.5,630.6,1000,569,1000,507C1000,364.6,939,229,831.5,135.1z"/>
	<path d="M930.6,734.9C885.8,739.5,681.4,824,657.9,907c-12,42.8,34.9,57.9,77.7,37.5c84.5-46.9,154.4-116.8,200.8-201.8
		C938.5,738,936.4,734.3,930.6,734.9z"/>
</g>
</svg>
