<svg xmlns="http://www.w3.org/2000/svg" width="1000" height="1000">
  <path d="M365.628 201.04v-95.813c-2.337-30.38 4.674-43.233 31.548-53.749 28.043-10.516 60.76-26.874 88.803-44.4 7.01 0 19.863-4.675 30.38 0 37.39 17.526 70.106 33.884 109.833 54.916 5.843 5.843 12.853 12.853 12.853 25.706v91.14c0 9.347 0 14.02 5.843 26.874 29.21-17.527 54.917-26.875 80.623-44.401 33.885-21.033 65.433-25.706 99.318-3.506 21.032 21.032 49.075 30.38 80.623 43.233 5.842 4.674 8.179 11.684 8.179 19.863V442.91c0 9.347-8.18 17.526-12.853 22.2-22.2 15.19-37.39 22.2-63.096 35.054 21.032 12.853 36.222 21.032 60.76 28.043 12.852 10.516 15.189 19.863 15.189 32.716v216.163c0 12.853-2.337 23.37-15.19 25.706-35.053 17.527-71.275 39.727-105.16 52.58-8.18 4.674-21.032 4.674-28.043 0-45.57-18.695-80.623-35.053-120.35-54.917-5.843 7.01-5.843 15.19-5.843 19.864v80.623c5.843 22.2-2.336 39.727-28.042 47.906-31.549 12.853-59.591 31.548-92.308 44.401-7.01 2.337-25.706 2.337-32.716 0-39.728-12.853-73.613-37.39-107.498-52.58-8.179-4.674-15.19-17.527-15.19-25.706V800.454c-12.853 2.337-23.369 7.01-36.221 12.853-29.212 15.19-54.918 29.211-88.803 46.738-5.842 2.337-18.695 2.337-21.032 0-38.559-17.527-73.612-39.727-112.17-57.254-7.011-2.337-18.696-15.19-18.696-25.706V560.922c0-8.18 11.685-22.2 18.695-26.874 18.695-12.853 38.559-21.032 65.433-33.885-24.537-12.853-44.4-19.864-59.59-31.548-18.696-8.18-24.538-12.853-24.538-28.043V225.577c0-12.853 5.842-19.863 18.695-24.537 33.885-19.864 73.612-39.727 106.33-56.086 12.852-9.347 26.873-4.674 39.726 3.506 28.043 17.526 63.097 30.38 93.476 46.738 5.842 5.842 12.853 5.842 21.032 5.842zm-80.623 299.123c29.212 15.19 52.58 25.706 78.286 40.895v-80.623c-25.705 14.022-49.074 26.875-78.286 39.728zm354.04 40.895c32.717-15.19 52.58-28.042 80.623-40.895-28.042-12.853-47.906-25.706-80.623-39.728z" style="fill:#000;fill-opacity:1;fill-rule:nonzero;stroke:none;"/>
</svg>
