<svg xmlns="http://www.w3.org/2000/svg" width="1000" height="1000">
  <path d="M581.897 831.549c-186.64 0-338.503-151.863-335.025-339.662 3.478-179.684 150.703-326.91 335.025-326.91 187.8 0 335.025 150.703 335.025 335.025 0 183.162-151.863 331.547-335.025 331.547zM86.895 447.835c11.593-88.103 33.618-165.773 88.103-235.328 9.274-11.593 11.593-23.185 27.823-19.708 19.707 0 32.459 19.708 19.707 34.778-8.115 13.911-15.07 19.707-19.707 33.618-104.333 155.34-91.582 358.21 19.707 506.595 4.637 3.478 4.637 6.955 8.115 11.592 9.274 10.434 4.637 24.345-3.478 31.3-12.752 4.637-24.344 4.637-32.46 0-3.477-3.478-8.114-6.955-8.114-11.592-79.989-104.333-115.926-217.94-99.696-351.255zm79.989 0c5.796-31.3 11.592-63.759 24.344-92.74 55.644-142.588 159.977-229.532 307.203-261.992 22.025-4.637 42.892-9.274 42.892 18.548 0 17.39-8.115 25.504-24.344 28.982-30.141 4.637-57.963 11.592-85.785 24.344C309.472 224.1 238.757 315.68 217.89 444.357c0 3.478-3.478 6.956-3.478 11.593-3.478 15.07-11.592 23.185-27.822 19.708-11.593 0-23.185-10.434-19.707-27.823zm4.637 128.678V563.76c0-16.23 6.955-27.822 19.707-27.822 11.593 0 23.185 8.115 26.663 20.866 9.274 26.663 12.752 54.485 25.503 82.307 56.804 118.244 143.748 192.437 270.107 220.259 47.53 8.115 37.096 47.53-6.956 47.53-12.751-3.478-32.459-9.275-52.166-16.23-151.863-51.007-246.921-155.34-282.858-314.158zm86.944-424.288c-8.115-6.955-8.115-23.185 4.637-31.3 11.592-12.751 22.026-19.707 35.937-32.459C382.505 32.822 482.2 5 601.604 5c91.581 0 191.277 32.46 279.38 99.696 4.638 0 8.116 3.478 12.753 6.955 9.274 6.956 11.592 25.504 0 33.619-8.115 10.433-20.867 10.433-32.46 3.478-16.23-10.434-34.777-23.186-52.166-37.097-159.977-90.421-364.006-78.829-506.595 37.097-3.477 3.477-8.114 6.955-11.592 6.955-11.593 9.274-24.344 5.796-32.46-3.478zm8.115 731.49c-8.115-9.274-8.115-20.866 0-32.459 8.114-8.115 18.548-11.592 32.459-4.637 3.477 0 8.114 4.637 8.114 8.115 88.104 60.281 182.004 97.377 287.496 92.74 103.173 0 119.403-17.388 261.991-96.218 28.982-10.433 46.37 22.026 28.982 39.415-107.81 69.555-171.57 98.536-303.725 104.333-107.81-4.637-207.507-32.46-296.77-97.378-2.318-2.318-10.433-10.433-18.547-13.91zm27.822-388.35c0 159.977 127.518 287.495 287.495 287.495 155.34 0 282.858-127.518 288.654-287.495 4.637-151.863-133.314-278.221-288.654-278.221-150.703 0-287.495 114.766-287.495 278.22zm150.703 85.785v-61.44c5.796-11.593 13.91-24.345 24.344-19.708 17.389 0 24.345 8.115 24.345 19.707v61.44c0 13.912-11.593 22.027-24.345 22.027-10.433 0-18.548-8.115-24.344-22.026zm92.74-4.637v-125.2c0-16.23 9.274-23.185 19.708-27.822 12.751 0 20.866 4.637 24.344 11.593 3.478 9.274 3.478 12.751 3.478 20.866v120.563c0 15.07-6.956 26.663-24.345 26.663-10.433 0-23.185-8.115-23.185-26.663zm63.76 310.68c0-12.752 8.114-24.344 23.184-24.344 52.167-8.115 105.493-23.185 153.022-55.645 24.344-16.23 44.052-35.936 63.76-52.166 4.636-3.478 8.114-8.115 11.592-8.115 8.114-8.115 24.344-8.115 32.459 0 8.115 8.115 11.592 24.345 0 32.46-74.193 67.236-175.048 132.154-256.196 132.154-15.07 0-27.822-13.91-27.822-24.344zm0-779.02c3.477-11.592 12.751-19.707 31.3-19.707 49.847 4.637 97.377 19.708 144.906 42.893 44.052 24.344 78.83 53.326 111.289 88.103 8.114 8.115 11.592 17.389 11.592 24.345-6.955 20.866-27.822 28.98-44.052 12.751l-34.777-37.096c-52.167-44.052-143.748-74.192-197.074-82.307-15.07-5.796-23.185-16.23-23.185-28.981zm27.821 475.295V355.095c3.478-11.593 12.752-19.707 24.345-19.707 12.752 0 23.185 8.114 23.185 24.344v223.736c-3.478 11.593-10.433 19.708-23.185 19.708-11.593 0-20.867-8.115-24.345-19.708z" style="fill:#000;fill-opacity:1;fill-rule:nonzero;stroke:none;"/>
</svg>
