<svg xmlns="http://www.w3.org/2000/svg" width="1000" height="1000">
  <path d="M500.496 5C223.572 5 5 229.506 5 500.002c0 276.43 224.506 495.001 495.002 495.001 276.43 0 495.001-224.506 495.001-495.001C995.003 226.539 773.464 5 500.496 5zM200.825 664.673c93.956-164.177 189.89-328.353 284.836-492.53 1.978-1.978 1.978-3.956 3.956-9.89l2.967 2.967v11.868c0 77.144 1.978 154.287 0 232.419 0 5.934-2.967 16.813-4.945 22.747-13.846 25.715-30.66 49.45-44.506 76.154-2.967 3.956-2.967 5.934-7.912 13.846h134.506c-2.967-4.945-4.945-9.89-4.945-13.846-15.824-26.703-30.66-51.428-45.495-78.132-.989-3.956-3.956-11.868-3.956-18.791V159.286c3.956 8.901 7.913 10.88 9.89 14.835 93.957 165.166 186.924 326.375 283.848 490.552 8.9 16.813 7.912 16.813-9.89 26.703-92.968 46.484-189.891 93.956-285.826 140.44-6.923 4.945-14.835 7.912-23.736 2.967-93.956-49.45-187.913-96.923-281.87-143.407-13.845-9.89-13.845-11.868-6.922-26.703zm51.429 21.758c56.373 25.714 112.747 54.396 170.11 80.11 0 0 0-1.978.99-1.978-30.66-26.703-60.33-52.418-90.99-78.132-2.967-2.967-4.945-2.967-6.923-2.967-23.737-1.978-47.473 0-73.187 0zm95.934-30.66c-.989 4.945 0 6.923 2.967 11.869 35.605 30.659 68.242 61.318 101.868 91.978 8.902 6.923 17.803 15.824 26.704 22.747h2.967c-23.736-77.143-44.506-153.297-68.242-232.418-2.967 2.967-4.945 3.956-4.945 3.956-18.791 33.626-40.55 66.264-61.319 101.868zm91.978-102.857c23.737 82.088 47.473 161.21 70.22 247.253 50.44-45.494 95.935-86.044 146.374-129.56-73.187-41.539-143.407-81.1-213.627-120.66 0 2.967-2.967 2.967-2.967 2.967zM588.518 766.54c56.374-25.714 112.748-54.396 169.122-80.11-23.736-4.945-47.473-4.945-70.22-2.967-5.934 0-7.912 0-9.89 2.967-30.66 25.714-61.32 51.429-89.012 78.132z" style="fill:#000;fill-opacity:1;fill-rule:nonzero;stroke:none;"/>
</svg>
