<?xml version="1.0" encoding="utf-8"?>
<!-- Generator: Adobe Illustrator 26.0.1, SVG Export Plug-In . SVG Version: 6.00 Build 0)  -->
<svg version="1.1" id="Layer_1" xmlns="http://www.w3.org/2000/svg" xmlns:xlink="http://www.w3.org/1999/xlink" x="0px" y="0px"
	 viewBox="0 0 1000 1000" style="enable-background:new 0 0 1000 1000;" xml:space="preserve">
<path d="M500.3,5C226.9,5,5.3,226.6,5.3,500s221.6,495,495,495s495-221.6,495-495S773.7,5,500.3,5z M650.7,142.6l146.1,144.7H682.9
	c-17.9-43-50.3-102.3-96.7-144.7H650.7z M667.1,569.9c1.5,4.7,4,8.8,7.5,12.3c3.5,3.5,7.6,6,12.3,7.4c4.7,1.4,9.5,2.1,14.4,2.1
	c5.6,0,11.2-0.9,16.8-2.8c5.6-1.9,10.2-5.2,13.7-10.2c3.5-4.9,5.3-10.2,5.3-15.8H780c0,9.8-2,19.3-6.1,28.4
	c-4.1,9.1-10,16.7-17.7,22.9c-7.7,6.2-16.3,10.4-25.9,12.8c-9.6,2.3-19.3,3.5-29.1,3.5c-7,0-13.9-0.5-20.8-1.6
	c-6.9-1.1-13.5-3-19.8-6c-6.3-2.9-12-6.7-17.2-11.4c-5.1-4.7-9.4-10-12.8-16.1c-3.4-6.1-5.7-12.5-7-19.3c-1.3-6.8-1.9-13.7-1.9-20.7
	V442.5c0-7,0.6-13.9,1.9-20.7c1.3-6.8,3.6-13.2,7-19.3c3.4-6.1,7.6-11.4,12.8-16.1c5.1-4.7,10.9-8.5,17.2-11.4
	c6.3-2.9,12.9-4.9,19.8-6c6.9-1,13.8-1.6,20.8-1.6c9.8,0,19.5,1.2,29.1,3.5c9.6,2.3,18.2,6.6,25.9,12.8c7.7,6.2,13.6,13.8,17.7,22.9
	c4.1,9.1,6.1,18.6,6.1,28.4H737c0-5.8-1.8-11.1-5.3-15.9c-3.5-4.8-8.1-8.1-13.7-10c-5.6-1.9-11.2-2.8-16.8-2.8
	c-4.9,0-9.7,0.7-14.4,2.1c-4.7,1.4-8.8,3.9-12.3,7.4c-3.5,3.5-6,7.6-7.5,12.3c-1.5,4.7-2.3,9.5-2.3,14.4v113.1
	C664.8,560.5,665.6,565.3,667.1,569.9z M515.4,142.6h32.2c22.4,15.8,75.5,66.8,108.2,144.7H515.4V142.6z M454.5,142.6h32.9v144.7
	H348.5C358.3,257.4,393.2,186.7,454.5,142.6z M312.4,550.3H285l-44.5-131.6c0.9,13.3,2.4,26.4,4.4,39.4c2,13,3.9,26,5.8,39
	c1.9,13.1,3.1,26.2,3.7,39.4c0.6,13.2,0.9,26.4,0.9,39.7v51.5h-43.4V370.4h39.6l47.3,140l47.3-140h39.6v257.3h-43.4v-51.5
	c0-13.3,0.4-26.5,1.1-39.7c0.7-13.2,1.9-26.3,3.7-39.4c1.8-13.1,3.6-26.1,5.6-39c2-13,3.4-26.1,4.4-39.4L312.4,550.3z M348.4,142.6
	h68.8c-18.6,10.8-80.2,87.4-96,144.7H203.8L348.4,142.6z M349.9,857.4L203.8,712.7h113.9c17.9,43,50.3,102.3,96.7,144.7H349.9z
	 M485.3,857.4h-32.2c-22.5-15.8-75.5-66.8-108.2-144.7h140.4V857.4z M498.6,630.5c-8.2,0-16.3-0.9-24.3-2.6
	c-8.1-1.8-15.6-4.8-22.8-9.3c-7.1-4.4-13.1-10-18-16.6c-4.9-6.7-8.3-14-10.3-22.1c-2-8.1-3-16.2-3-24.3V442.5c0-7,0.6-13.9,1.9-20.7
	c1.3-6.8,3.6-13.2,7-19.3c3.4-6.1,7.6-11.4,12.8-16.1c5.1-4.7,10.9-8.5,17.3-11.4c6.4-2.9,13-4.9,19.8-6c6.8-1,13.7-1.6,20.7-1.6
	c9.8,0,19.5,1.2,29.1,3.5c9.6,2.3,18.2,6.6,25.9,12.8c7.7,6.2,13.6,13.8,17.7,22.9c4.1,9.1,6.1,18.6,6.1,28.4h-43.1
	c0-5.8-1.8-11.1-5.2-15.9c-3.5-4.8-8.1-8.1-13.7-10c-5.6-1.9-11.2-2.8-16.8-2.8c-4.9,0-9.7,0.7-14.4,2.1c-4.7,1.4-8.8,3.9-12.3,7.4
	c-3.5,3.5-6,7.6-7.5,12.3c-1.5,4.7-2.3,9.5-2.3,14.4v113.1c0,4.7,0.7,9.3,2.1,14c1.4,4.7,3.9,8.8,7.4,12.3c3.5,3.5,7.5,6,12.1,7.5
	c4.6,1.5,9.2,2.3,13.8,2.3c4.9,0,9.7-0.8,14.4-2.3c4.7-1.5,8.9-3.9,12.6-7.2c3.7-3.3,6.2-7.3,7.4-12.1c1.2-4.8,1.8-9.6,1.8-14.5V523
	h-34.3v-38.9h77.4v71.4c0,7-0.4,13.9-1.2,20.8c-0.8,6.9-2.9,13.5-6.3,19.8c-3.4,6.3-7.8,11.7-13.1,16.3c-5.4,4.5-11.3,8.1-17.7,10.7
	c-6.4,2.6-13.1,4.4-20,5.6C512.5,629.9,505.6,630.5,498.6,630.5z M546.1,857.4h-32.9V712.7h138.9
	C642.3,742.6,607.4,813.3,546.1,857.4z M652.2,857.4h-68.8c18.6-10.8,80.2-87.4,96-144.7h117.5L652.2,857.4z"/>
</svg>
