<svg xmlns="http://www.w3.org/2000/svg" width="1000" height="1000">
  <path d="M5 629.396v-39.42c6.758 0 10.136-3.378 13.515-3.378h174.573c18.02 0 33.788 13.515 34.915 29.283h122.764c7.884 0 15.768 4.505 25.904 6.757 34.915 14.642 73.208 27.031 111.502 42.799 2.252 0 3.378 0 7.884 2.253 18.02 10.136 38.293 12.389 57.44 10.136h114.88c16.894 0 32.662 10.136 42.798 22.526 5.632 9.01 10.137 22.525 14.642 34.914 0 0 7.884 0 10.136-2.252 18.02-2.253 28.157-6.758 46.178-12.39 41.672-12.389 83.344-27.03 126.143-37.167 16.894-2.252 28.157-5.631 40.546-5.631 28.157 2.253 46.177 24.778 46.177 48.43v42.798c0 14.642-18.02 22.526-38.293 34.915-1.127 0-147.543 76.587-146.416 76.587-24.778 12.389-50.683 24.778-74.335 38.293-28.156 12.39-52.935 28.157-78.839 39.42l-55.187 31.536h-87.85l-36.04-14.642c-54.062-20.273-106.997-38.293-159.932-56.314-13.515-5.631-25.905-13.515-38.294-15.768-16.894-2.252-32.662 0-51.808 0-6.758 23.652-19.147 30.41-39.42 30.41H5v-40.546h183.583V629.396zm58.566 234.266v-20.273c-1.126-7.884 3.38-10.137 10.137-14.642 29.283-1.126 29.283 0 29.283 25.904v16.895h-30.41c-5.63 0-9.01-4.506-9.01-7.884zm64.198 7.884v-38.294c9.01-4.505 19.147-4.505 32.662 0 14.642 5.632 5.632 19.147 9.01 30.41 0 7.884-9.01 7.884-13.515 7.884zm100.239-10.137h59.692c4.505 0 6.758 0 10.137 2.253 27.03 7.884 55.187 16.894 83.344 27.03 49.557 14.642 96.86 36.041 146.416 48.43 15.768 5.632 36.041 2.253 54.062 5.632 3.378 0 13.515-3.38 16.894-5.632 25.904-12.389 47.303-28.157 70.955-39.42l135.153-70.955c40.546-19.147 77.713-39.42 119.386-59.693 6.757-1.126 15.768-7.884 22.525-13.515 6.758-3.379 9.01-9.01 4.505-20.273-4.505-10.136-9.01-12.389-16.894-12.389l-32.662 10.137c-25.904 9.01-48.43 15.767-72.082 22.525-38.293 13.515-72.081 24.778-108.122 37.167-16.894 6.758-36.041 14.642-52.935 19.147-15.768 3.379-30.41 3.379-47.304 3.379h-132.9c-15.768 0-20.273 2.252-25.905 18.02v10.137h-34.914a10.094 10.094 0 0 1-10.137-10.137c-2.252-25.904 13.515-59.693 42.799-64.198 7.884 0 18.02-1.126 25.904-1.126h170.068c3.379 0 10.136 0 13.515-6.758 5.631-9.01 9.01-16.894 3.379-28.156-4.505-6.758-9.01-12.39-23.652-12.39-37.167 0-75.46-2.252-112.628 0-25.904 0-48.43-4.505-68.702-12.389-37.168-14.641-73.208-28.156-111.502-42.798-5.631-3.379-13.515-3.379-18.02-3.379H228.003zm48.43-306.347c0-34.915 0-66.45 6.757-102.491 2.253-6.758 2.253-10.137 4.505-15.768 6.758-30.41 16.895-60.82 32.662-87.85 7.884-13.515 16.895-23.652 22.526-33.788 20.273-22.526 38.293-46.177 64.198-63.072 14.641-10.136 29.283-20.273 48.43-22.525 6.757 0 9.01-2.253 9.01-10.137v-10.136c0-13.515 0-24.778 13.515-33.788 4.505-4.505 4.505-10.137 0-18.02-13.515-23.653-25.904-52.936-41.672-78.84-4.505-9.01-5.632-19.147-5.632-32.662 70.956-32.662 83.345-51.809 141.911-15.768 3.38 1.126 6.758 1.126 9.01 0 32.663-16.894 63.072-30.41 91.229-9.01 12.389 9.01 24.778 14.641 40.546 21.399 4.505 1.126 4.505 3.379 7.884 12.39 0 10.136 0 22.525-7.884 34.914-20.273 31.535-22.526 45.05-34.915 85.597 14.642 9.01 13.516 28.157 13.516 43.924 0 7.884 1.126 10.137 5.631 12.39 38.293 16.894 74.334 39.42 102.491 73.207 19.147 25.905 36.041 49.557 45.051 82.219 20.273 45.05 30.41 91.228 30.41 141.91v158.805h-39.42c-3.379-2.252-3.379-4.505-3.379-4.505-3.379-58.566-3.379-118.259-7.884-175.699 0-45.05-27.03-130.648-49.556-156.552-15.768-25.905-41.672-46.178-67.576-58.567-14.642-7.884-34.915-12.389-50.683-23.651-11.263-7.884-24.778-7.884-39.42-7.884h-66.45c-21.4 0-40.546 0-63.071 7.884-36.041 13.515-66.45 31.535-92.355 56.313-19.147 20.273-32.662 46.178-42.799 74.335-14.641 39.42-28.157 81.092-28.157 122.764 0 23.652-1.126 42.798-1.126 67.576 0 1.127 0 4.506-3.379 10.137h-40.546c-2.252-15.768-3.378-28.157-3.378-45.051zm109.248 21.4c22.526-85.598 46.178-170.069 69.83-253.413h129.521c29.284 2.252 45.051 28.157 34.915 57.44-7.884 25.904-43.925 61.945-60.819 61.945v2.253c20.273 0 40.546 21.399 39.42 52.935-9.01 43.925-39.42 67.576-81.092 74.334-19.147 2.253-42.799 2.253-65.324 4.505zm45.051-34.915c-1.126 2.252-3.378 14.641 1.127 14.641 24.778-1.126 50.682 0 76.587-5.631 29.283-2.253 47.303-20.273 55.187-50.683 2.253-9.01 0-18.02-4.505-25.904-7.884-14.642-21.4-16.894-34.915-16.894-18.02-2.253-41.672 0-59.692-2.253-9.01 0-14.642 4.505-18.02 12.39-3.38 25.904-12.39 49.555-15.769 74.334zm27.031-106.997c32.662-2.252 59.693 2.253 88.976-5.631 43.925-13.515 61.945-86.723 6.758-86.723H482.54c-7.884 31.535-14.641 58.566-24.778 92.354zm30.41-362.66c12.389 28.156 27.03 54.06 38.293 77.712 3.379 7.884 10.136 12.39 16.894 12.39h66.45c10.137 1.126 14.642-4.506 18.02-12.39l31.537-61.945c4.505-5.631 6.757-10.136 6.757-15.768-18.02-14.641-33.788-20.273-58.566 0-19.147 7.884-41.672 12.39-69.83-2.252-27.03-18.02-41.671-6.758-49.555 2.252zm113.754 457.267c0-12.389 0-25.904 2.252-36.04 5.631-33.789 16.894-60.82 42.799-82.219 30.41-21.399 77.713-27.03 125.016-11.262-2.252 4.505-2.252 11.262-2.252 19.146-12.39 0-22.526-2.252-33.789-4.505-34.914-4.505-63.071 4.505-83.344 31.536-14.642 21.4-22.526 48.43-18.02 74.334 5.63 21.4 22.525 34.915 43.924 36.041 14.642 0 32.662-1.126 47.304-5.631 2.253 0 7.884 0 10.136-2.253 0 20.273-4.505 25.905-22.525 28.157-25.904 1.126-47.304 5.631-73.208-4.505-20.273-7.884-32.662-23.652-38.293-42.799zm25.904 215.12c2.252-11.263 6.758-15.769 19.147-15.769 10.136 0 16.894 4.506 16.894 15.768 0 10.137-6.758 16.894-18.02 16.894-11.263 0-18.021-6.757-18.021-16.894zm275.938 11.262c-10.137-15.768 5.631-21.4 20.273-23.652 7.884-1.126 12.389 6.758 12.389 13.516 0 9.01-2.253 12.389-12.39 15.767-6.757 3.38-15.767 0-20.272-5.63z" style="fill:#000;fill-opacity:1;fill-rule:nonzero;stroke:none;"/>
</svg>
