<svg xmlns="http://www.w3.org/2000/svg" viewBox="0 0 1000 1000"><path d="M289,2,87,204H251C273,124,359,17,385,2ZM483,204V2H437C351.4,63.6,302.7,162.3,289,204Zm39,0H718C672.4,95.2,598.3,24,567,2H522Zm234,0H915L711,2H621C685.8,61.2,731,144,756,204Zm-43,796L915,798H751c-22,80-108,187-134,202ZM519,798v202h46c85.6-61.6,134.3-160.3,148-202Zm-39,0H284c45.6,108.8,119.7,180,151,202h45Zm-234,0H87l204,202h90C316.2,940.8,271,858,246,798Zm101.5-88,1.1-312.8H347L265.3,710H211.2L131.3,397.2h-1.7L130.7,710H68.1V302.9h92.6l78.2,297.8h2.3l76.5-297.8h97.2V710ZM732.3,596.1q0,32.25-10.9,54a103.63,103.63,0,0,1-27,35.1,100.06,100.06,0,0,1-36.8,19,145,145,0,0,1-39.7,5.8H497.1V302.9H605.2a168,168,0,0,1,37.9,4.6A99.28,99.28,0,0,1,679.9,323c11.1,7.3,20.3,17.6,27.6,31q10.95,19.5,10.9,51.2,0,37.95-16.1,59.8c-10.7,14.6-23.2,24.7-37.4,30.5v1.1a84.26,84.26,0,0,1,23,9.8,75,75,0,0,1,21.8,19.5c6.5,8,11.9,18,16.1,29.9C730.2,567.4,732.3,580.8,732.3,596.1ZM656.4,416.2c0-10.4-1.7-19-5.2-25.9a41.91,41.91,0,0,0-12.7-17.2,42.55,42.55,0,0,0-17.8-9.8,79.9,79.9,0,0,0-21.3-2.9h-38V473.7h39.1a71.31,71.31,0,0,0,20.1-2.9,48.65,48.65,0,0,0,17.8-10.4,46.93,46.93,0,0,0,12.7-17.8C654.7,435.3,656.4,426.5,656.4,416.2Zm9.8,174.2c0-11.9-1.9-21.9-5.8-29.9a58.72,58.72,0,0,0-35-31.6,72.6,72.6,0,0,0-21.9-3.5h-42V652.5h43.7a75.27,75.27,0,0,0,23.6-3.5,56.25,56.25,0,0,0,19-11.5A52.7,52.7,0,0,0,661,618C664.4,610.3,666.2,601.1,666.2,590.4ZM897,361.5V710H829.2V361.5H752.7V302.9H973.5v58.6Z"/></svg>