<svg xmlns="http://www.w3.org/2000/svg" viewBox="0 0 1000 1000"><path d="M994.997 88.602v736.062c0 44.468-77.234 84.255-142.766 81.914-37.446 0-52.66-3.51-66.702-38.616-4.68-11.703-8.191-21.064-16.383-38.617-8.191 16.383-15.212 26.914-29.255 38.617-23.404 30.425-31.595 43.297-66.702 40.957-25.744-2.34-53.83-2.34-77.234 0-38.616 2.34-52.659-5.851-69.042-40.957-4.68-9.362-8.191-21.064-16.383-36.277-9.361 14.043-15.213 19.894-17.553 29.255-17.553 32.766-42.127 47.979-79.574 47.979-30.426 0-59.68 0-92.447 2.34-28.085 1.17-44.468-4.68-63.191-32.766-7.021-14.042-21.064-23.404-30.425-39.787-8.192 8.192-9.362 12.873-9.362 16.383-16.383 39.787-33.936 53.83-79.574 53.83H97.446C45.957 912.429 5 877.323 5 824.664V128.389c0-39.787 0-39.787 36.276-39.787 304.255 0 607.339 1.17 912.764 1.17 12.872 0 28.085 0 40.957-1.17zM69.36 768.494l10.532 44.468c1.17 4.68 9.362 11.702 15.213 11.702 38.617 4.68 73.723 4.68 98.297-32.766 9.362-12.872 17.554-25.745 25.745-36.277 9.362-11.702 17.553-22.234 31.596-36.276 7.021 24.574 10.532 40.957 21.063 59.68 4.681 21.064 18.724 38.618 43.298 43.298 99.468 21.064 138.085 4.681 195.425-78.404 3.51-5.85 8.192-12.872 15.213-21.063 9.362 21.063 10.532 37.446 18.723 53.83 9.362 23.403 22.234 45.637 47.979 47.978 66.702 9.361 125.212 2.34 161.489-64.362 7.021-8.191 10.532-16.383 16.383-25.744 3.51-1.17 8.191-4.681 11.702-8.192 14.042 25.745 22.234 55 36.276 77.234 19.894 30.425 46.809 37.447 73.723 10.532 10.532-10.532 19.894-31.596 19.894-47.979 0-260.956 4.68-416.594-2.34-473.934-22.234 17.553-37.447 30.425-53.83 44.467-94.787 98.298-195.425 195.425-293.723 292.553-12.872 15.213-29.255 29.255-47.978 37.447-12.872 3.51-30.426 3.51-42.128-1.17-21.063-14.043-39.787-32.767-57.34-51.49-33.936-32.766-311.276-320.637-338.19-354.573C60 267.644 67.02 750.94 69.36 768.493zm15.213-600.318c14.042 17.553 28.085 37.447 44.468 56.17 66.702 67.872 134.574 134.574 203.616 203.617 47.979 45.638 95.958 94.787 145.106 141.595 17.553 17.553 26.915 14.043 44.468 0 118.191-117.02 234.042-232.872 347.553-348.722 14.042-12.873 24.574-26.915 35.106-43.298 8.191-14.043 4.68-19.894-10.532-22.234-17.553-1.17-33.936-1.17-51.49-1.17-182.552 0-359.254 1.17-540.636 1.17-60.851 0-121.702 0-182.553 2.34-11.702 0-21.064 0-29.255 2.34-1.17 2.341-4.68 3.511-5.851 8.192zm238.723 99.468c0-23.404 19.893-46.808 43.297-46.808 24.575 0 47.979 23.404 47.979 45.638 0 23.404-21.064 44.468-44.468 44.468-24.574 0-44.468-18.723-46.808-43.298zm277.34 0c-2.341-23.404 18.723-46.808 43.297-46.808 24.574 0 46.808 23.404 46.808 46.808 0 24.575-22.234 43.298-46.808 43.298-24.574 0-43.298-18.724-43.298-43.298z"/></svg>