<svg xmlns="http://www.w3.org/2000/svg" width="1000" height="1000">
  <path d="M666.751 576.121c-18.769 72.396-109.934 122-190.373 109.934-96.528-13.406-172.945-96.527-166.242-197.077 6.703-96.527 88.483-176.967 190.374-176.967h439.736c38.88 0 57.649 12.066 50.945 54.967 0 84.462 12.066 178.308-12.066 262.77C925.5 818.78 759.257 966.253 563.521 991.726c-272.154 30.835-514.814-159.539-552.352-427.67C-33.073 270.45 201.542 5 500.509 5h490.682c6.704 49.604-12.066 87.143-44.242 122-33.516 37.539-77.758 61.67-134.066 61.67h-305.67c-152.835 0-281.539 103.231-312.374 256.067-30.835 159.538 81.78 331.143 246.682 361.978 206.461 37.538 383.428-127.363 366-336.506 0-6.703-18.77-18.77-25.473-18.77H507.213c-37.539 0-58.99 25.473-58.99 61.671 0 32.176 21.451 57.649 58.99 57.649h127.363c13.406 0 20.11 0 32.175 5.362z" style="fill:#000;fill-opacity:1;fill-rule:nonzero;stroke:none;"/>
</svg>
