<svg xmlns="http://www.w3.org/2000/svg" width="1000" height="1000">
  <path d="M994.735 388.072c0-55.034-19.142-92.122-50.249-116.05C847.58 193.061 751.868 114.1 653.765 38.727 611.89 2.835 561.643-3.146 509.002 14.8 395.345 56.673 282.885 93.761 170.424 134.438 112.998 155.973 78.303 196.65 66.34 257.666 46 367.733 30.447 478.997 10.109 587.868c-14.357 58.623 3.589 102.89 49.051 141.174 90.926 80.158 186.637 153.138 283.544 232.1 40.677 33.498 90.925 41.873 144.763 26.32 111.264-40.678 228.51-82.551 339.774-120.835 58.623-21.535 93.318-62.213 104.085-124.425 13.16-75.372 25.124-154.334 37.088-228.51 7.179-46.659 17.946-88.532 26.32-125.62zM346.293 438.32c-10.767-13.16-3.589-53.837 11.964-61.016 53.837-26.32 90.925-63.408 129.21-105.282 8.375-2.392 21.535-2.392 35.891-2.392-3.589 31.106-3.589 61.015-7.178 98.103h137.585c-8.375 27.517-14.357 50.249-21.535 72.98H503.02c-25.124 56.23-28.713 108.871-35.892 163.905-4.785 19.142 7.179 33.499 28.714 33.499h99.3c-9.571 28.713-13.16 52.64-20.339 83.747h-93.318c-82.55 0-123.228-51.445-111.264-133.996 3.59-45.462 17.946-90.925 25.124-142.37-21.535-4.785-32.302-4.785-49.052-7.178z" style="fill:#000;fill-opacity:1;fill-rule:nonzero;stroke:none;"/>
</svg>
