<svg xmlns="http://www.w3.org/2000/svg" viewBox="0 0 1000 1000"><path d="M500.496 5C223.572 5 5 229.506 5 500.002c0 276.43 224.506 495.001 495.002 495.001 276.43 0 495.001-224.506 495.001-495.001C995.003 226.539 773.464 5 500.496 5zM81.154 628.079c-13.846-36.594 27.692-91.978 77.143-77.143 27.693 9.89 41.539 34.615 38.572 65.275-1.978 26.703-22.748 48.462-50.44 52.418-28.681 3.956-56.374-13.847-65.275-40.55zm123.627-106.814c-21.758-37.582-.99-87.033 50.44-91.978 49.45 0 57.362-6.923 57.362-53.407 0-36.593 27.693-65.275 62.308-65.275 35.605 0 59.341 27.693 59.341 64.286 0 41.539 11.868 56.374 61.32 56.374 30.659.99 55.384 22.747 57.362 51.429 3.956 33.626-14.835 58.352-46.484 65.275-28.681 5.934-59.34-10.88-69.23-39.56-4.946-12.858-2.968-31.65-5.935-42.528-5.934-30.66-26.703-34.616-58.352-34.616-42.527-1.978-55.384 12.857-57.363 57.363 0 58.352-73.187 84.066-110.77 32.637zM554.892 628.08c-9.89-32.637 7.912-67.253 40.55-75.165 22.747-5.934 36.593-4.945 48.461-7.912 25.715-4.945 26.704-26.704 26.704-56.374 1.978-32.637 27.692-56.374 60.33-57.363 48.461 0 58.351-5.934 58.351-61.319 1.978-30.66 26.704-57.363 57.363-59.34 30.66 0 56.374 19.78 61.32 50.44 4.944 37.582-19.781 68.241-57.364 70.22-10.879 0-21.758 0-32.637 2.966-24.726 4.945-26.704 27.693-26.704 54.396-1.978 43.517-32.637 55.385-80.11 62.308-26.703 4.945-40.55 20.77-40.55 58.352 0 30.66-19.78 53.406-48.461 59.34-30.66 3.957-58.352-11.868-67.253-40.549z"/></svg>