<svg xmlns="http://www.w3.org/2000/svg" viewBox="0 0 1000 1000"><path d="M657.258,306.452l161.29-189.516c20.161,20.161,44.355,40.323,60.484,60.484l-189.516,161.29c-8.065-12.097-20.161-20.161-32.258-32.258Zm92.742,193.548h245.968c0-32.258-4.032-60.484-8.065-88.71l-241.935,44.355c4.032,16.129,4.032,28.226,4.032,44.355Zm-250,250c-137.097,0-250-112.903-250-250s112.903-250,250-250V0C221.774,0,4.032,221.774,4.032,500s221.774,500,495.968,500c145.161,0,286.29-64.516,379.032-177.419l-189.516-161.29c-44.355,56.452-116.935,88.71-189.516,88.71Zm217.742-125l213.71,125c12.097-28.226,28.226-52.419,36.29-80.645l-233.871-84.677c-4.032,16.129-12.097,28.226-16.129,40.323Z"/></svg>