<svg xmlns="http://www.w3.org/2000/svg" viewBox="0 0 1000 1000"><path d="M5 499.507c0 90 22.747 173.078 67.253 250.22 44.506 74.177 103.846 133.518 178.023 178.023 77.143 44.506 160.22 67.253 250.22 67.253 89.011 0 172.089-22.747 249.232-67.253 74.176-44.505 133.517-103.846 178.022-178.022 44.506-77.143 67.253-160.22 67.253-250.22 0-89.012-22.747-172.09-67.253-249.232-44.505-74.177-103.846-133.517-178.022-178.023C672.585 27.747 589.508 5 500.496 5c-90 0-173.077 22.747-250.22 67.253-74.177 44.506-133.517 103.846-178.023 178.023C27.747 327.419 5 410.496 5 499.507zm146.374 64.286c-14.835-54.396-7.912-110.77 6.923-165.165 16.813-60.33 47.473-112.748 91.979-156.265 46.483-45.494 100.879-77.143 163.187-91.978 28.681-6.923 59.34-10.88 90-10.88 53.407 0 103.847 11.87 151.32 33.627 47.472 21.759 87.033 55.385 123.626 94.946 20.77 22.747 36.594 50.44 50.44 78.132 2.967 1.978-209.671 64.286-216.594 67.253 2.967-9.89 2.967-20.77 1.978-31.649-3.956-10.879-7.912-20.769-10.88-28.681-8.9-14.835-20.769-25.714-35.604-32.637-20.77-8.902-52.418-11.869-87.033-3.957l-22.747-76.154-46.484 11.869 21.758 75.165-37.582 8.9-19.78-75.164-44.506 12.857 18.791 74.176-90 22.747 9.89 50.44 26.703-9.89c14.835-3.956 23.737-1.978 28.682 0 2.967 2.967 6.923 5.934 6.923 9.89 2.967 1.978 4.945 4.945 5.934 11.868l11.868 47.473 79.121-21.758-18.791-69.231c8.901-3.957 20.77-6.924 27.692-9.89 17.803-4.946 29.67-4.946 42.528-4.946h6.923c8.901 0 17.802 3.956 24.725 9.89 7.912 2.968 12.858 9.89 15.825 18.792 2.967 17.802.989 29.67-10.88 39.56-11.868 11.868-26.703 20.77-44.505 25.715zm13.846 51.429 279.891-90c20.77-7.913 59.341-16.814 84.067-16.814 28.681 0 52.417 7.912 55.384 30.66 2.967 9.89 2.967 19.78-.989 28.681-.989 6.923-5.934 9.89-11.868 16.813-11.868 10.88-28.681 18.792-51.429 26.704l-50.44 13.846-20.769-81.1-77.143 24.726 14.836 56.374c.989 6.923.989 11.868-.99 14.835-1.978 3.956-6.923 6.923-17.802 9.89l-25.714 6.923 3.956 57.363 90.99-22.747 19.78 74.176 47.472-12.857-20.77-74.176 36.594-7.912 17.803 74.176 46.483-12.858-16.813-74.176 27.693-10.879h1.978c26.703-9.89 48.461-23.736 61.318-42.527 11.869-12.858 18.792-26.704 18.792-43.517.989-12.857 0-28.681-3.956-44.506-7.912-30.66-19.78-47.472-40.55-57.362l212.638-64.286 3.956 14.835c32.638 122.638-2.967 254.176-94.945 342.199-46.484 44.505-100.88 76.154-163.188 91.978-62.307 15.824-125.604 14.835-186.923-1.978-60.33-16.813-112.748-47.473-156.264-92.967-37.583-39.56-65.275-83.077-83.078-133.517z"/></svg>