<svg xmlns="http://www.w3.org/2000/svg" viewBox="0 0 1000 1000"><path d="M500.496 995.003c275.935 0 494.507-224.506 494.507-495.496C995.003 226.54 773.464 5 500.496 5 223.572 5 5 229.506 5 499.507c0 276.924 224.506 495.496 495.496 495.496zM161.264 765.552v-170.11c31.649 1.978 63.297-4.946 93.957 4.945 39.56 10.879 63.297 52.417 57.362 92.967-6.923 43.517-41.538 72.198-84.066 72.198-21.758.989-43.516 0-67.253 0zm40.55-209.671c3.956-26.703 5.934-53.407 9.89-79.121 8.901-52.418 25.714-101.869 55.385-145.385 39.56-63.297 97.912-100.88 170.11-115.715 1.978 0 4.945 0 6.923-.989l.99-.989c-4.946-12.857-9.89-24.725-12.858-37.583-1.978-4.945-.989-10.879.99-16.813 2.966-16.813 14.834-22.747 30.659-13.846 4.945 2.967 9.89 6.923 15.824 10.88.989-4.946.989-9.891 1.978-15.825 3.956-12.857 7.912-25.714 14.835-36.594 9.89-14.835 28.682-14.835 38.572 0 7.912 10.88 9.89 22.748 14.835 35.605 1.978 4.945 1.978 8.901 2.967 14.835 2.967-2.967 5.934-5.934 8.901-7.912 15.824-9.89 31.649-2.967 31.649 16.813 0 16.813-3.957 33.627-6.924 52.418 14.836 4.945 32.638 9.89 49.451 17.802 90 38.572 141.43 109.78 165.166 201.76 3.956 17.801 7.912 36.593 9.89 54.395 1.978 21.758 1.978 42.528 3.956 65.275h-84.067c-1.978-16.813-1.978-34.616-4.945-52.418-9.89-72.198-40.55-132.528-105.824-169.121-44.506-24.726-91.978-30.66-141.43-27.693-36.593 3.956-72.197 15.825-101.868 38.572-35.604 27.692-58.351 64.286-70.22 106.813-8.9 28.682-11.868 59.341-17.802 90-.989 3.957-.989 9.89-1.978 14.836zm.989 75.165c0 32.637 0 61.319.989 90.99 0 1.977 2.967 5.933 3.956 6.922 25.714 6.924 50.44-6.923 59.34-30.659 7.913-26.703-2.966-56.374-25.714-63.297-10.879-3.956-23.736-2.967-38.571-3.956zm125.605 49.45c-.99-48.46 37.582-85.054 85.055-86.043 48.462 0 85.055 36.593 86.044 86.044 0 48.461-36.593 85.055-85.055 85.055-48.462.989-86.044-36.594-86.044-85.055zm42.527 0c0 26.704 17.803 47.473 42.528 47.473 24.725.99 42.528-20.769 42.528-47.472 0-27.693-18.792-48.462-41.54-48.462-24.724 0-42.527 19.78-43.516 48.462zm60.33-205.714c-.989-13.846-.989-28.682 0-43.517 0-8.901 5.934-15.824 16.813-15.824 9.89.989 15.825 7.912 16.814 16.813v42.528c-.99 9.89-7.912 16.813-17.803 16.813-9.89 0-15.824-6.923-15.824-16.813zm90.99 290.77v-170.11c1.978 0 5.934-.99 8.9-.99 25.715.99 52.418-.989 77.144 3.957 43.516 6.923 70.22 48.461 64.286 92.967-3.956 42.528-39.56 74.176-82.089 74.176-22.747.989-45.494 0-68.242 0zm36.593-291.76c-.989-12.856-.989-27.692 0-40.549 0-9.89 6.923-17.802 16.813-17.802 8.901 0 15.824 7.912 16.814 17.802v19.78c0 6.924.989 14.836 0 21.759-.99 8.9-6.924 15.824-16.814 16.813-8.9 0-16.813-6.923-16.813-17.802zm4.945 246.265c0 1.978 1.978 6.923 3.956 7.912 17.802 7.913 46.484-2.967 55.385-21.758 9.89-18.791 9.89-38.571-2.967-56.374-11.868-18.791-30.66-18.791-49.45-17.802-2.968 0-6.924 5.934-6.924 8.901v39.56zm122.638-39.56c0-49.451 37.582-86.044 86.044-86.044 48.462 0 85.055 37.582 85.055 86.044 0 48.461-37.582 86.044-86.044 85.055-48.462 0-85.055-36.594-85.055-85.055zm43.516.989c0 27.692 17.803 47.472 41.54 46.483 24.724 0 42.527-19.78 42.527-47.472 0-27.693-17.803-48.462-42.528-48.462-24.725.99-42.528 21.758-41.539 49.45z"/></svg>