<svg xmlns="http://www.w3.org/2000/svg" viewBox="0 0 1000 1000"><path d="M613.68 764.11c37.644 53.957 115.443 40.154 120.462-21.332V109.093h3.765c31.37 25.096 62.74 47.683 91.602 75.29 45.173 42.663 91.602 90.346 117.953 148.068 13.803 23.842 21.332 51.448 31.37 75.29h-6.274c-8.784-3.765-20.077-8.784-32.625-15.059-21.332-8.783-42.664 0-55.212 20.078-25.097 52.702-10.039 140.54 3.764 194.497 5.02 27.606 16.313 36.39 45.174 25.096 10.038-2.51 21.332-10.038 35.135-15.058 1.255-2.51 1.255-2.51 7.529-5.019-10.039 50.193-26.352 95.367-48.938 138.03-89.093 191.988-244.69 244.69-470.558 244.69-10.039 0-15.058-6.274-17.568-15.057-33.88-84.073-112.934-111.68-287.354-239.671-28.86-18.822-55.212-27.606-85.328 15.058-5.019-15.058-11.293-27.606-15.057-42.664-27.606-72.78-35.135-148.07-27.606-223.358 10.038-82.818 40.154-159.363 82.818-229.633 45.173-75.289 101.64-140.54 171.91-193.242C351.422 9.962 434.24-3.841 522.077 9.962c37.645 8.784 70.27 20.077 106.66 36.39-21.332 20.077-21.332 45.173-21.332 70.27V334.96c-76.544-37.645-151.833-43.919-228.377-6.274-47.683 21.332-85.328 55.212-110.424 100.385-53.958 95.367-38.9 210.81 31.37 289.864 71.526 76.545 197.007 111.68 313.706 45.174zM384.046 567.102c-10.038-38.9 12.548-90.348 47.683-112.934 35.135-25.097 85.328-25.097 121.718 0 63.996 41.409 46.428 198.261-41.41 205.79-56.466 5.02-117.952-37.644-127.99-92.856zm72.78-387.74c-12.548 22.587-1.255 36.39 26.351 36.39 18.822-3.765 42.664-6.274 63.996-11.294 22.587-5.019 3.764-22.586-13.803-45.173-28.861-25.097-60.232-13.803-76.544 20.077z"/></svg>
<svg xmlns="http://www.w3.org/2000/svg" viewBox="0 0 1000 1000"><path d="M613.68 764.11c37.644 53.957 115.443 40.154 120.462-21.332V109.093h3.765c31.37 25.096 62.74 47.683 91.602 75.29 45.173 42.663 91.602 90.346 117.953 148.068 13.803 23.842 21.332 51.448 31.37 75.29h-6.274c-8.784-3.765-20.077-8.784-32.625-15.059-21.332-8.783-42.664 0-55.212 20.078-25.097 52.702-10.039 140.54 3.764 194.497 5.02 27.606 16.313 36.39 45.174 25.096 10.038-2.51 21.332-10.038 35.135-15.058 1.255-2.51 1.255-2.51 7.529-5.019-10.039 50.193-26.352 95.367-48.938 138.03-89.093 191.988-244.69 244.69-470.558 244.69-10.039 0-15.058-6.274-17.568-15.057-33.88-84.073-112.934-111.68-287.354-239.671-28.86-18.822-55.212-27.606-85.328 15.058-5.019-15.058-11.293-27.606-15.057-42.664-27.606-72.78-35.135-148.07-27.606-223.358 10.038-82.818 40.154-159.363 82.818-229.633 45.173-75.289 101.64-140.54 171.91-193.242C351.422 9.962 434.24-3.841 522.077 9.962c37.645 8.784 70.27 20.077 106.66 36.39-21.332 20.077-21.332 45.173-21.332 70.27V334.96c-76.544-37.645-151.833-43.919-228.377-6.274-47.683 21.332-85.328 55.212-110.424 100.385-53.958 95.367-38.9 210.81 31.37 289.864 71.526 76.545 197.007 111.68 313.706 45.174zM384.046 567.102c-10.038-38.9 12.548-90.348 47.683-112.934 35.135-25.097 85.328-25.097 121.718 0 63.996 41.409 46.428 198.261-41.41 205.79-56.466 5.02-117.952-37.644-127.99-92.856zm72.78-387.74c-12.548 22.587-1.255 36.39 26.351 36.39 18.822-3.765 42.664-6.274 63.996-11.294 22.587-5.019 3.764-22.586-13.803-45.173-28.861-25.097-60.232-13.803-76.544 20.077z"/></svg>
<svg xmlns="http://www.w3.org/2000/svg" viewBox="0 0 1000 1000"><path d="M613.68 764.11c37.644 53.957 115.443 40.154 120.462-21.332V109.093h3.765c31.37 25.096 62.74 47.683 91.602 75.29 45.173 42.663 91.602 90.346 117.953 148.068 13.803 23.842 21.332 51.448 31.37 75.29h-6.274c-8.784-3.765-20.077-8.784-32.625-15.059-21.332-8.783-42.664 0-55.212 20.078-25.097 52.702-10.039 140.54 3.764 194.497 5.02 27.606 16.313 36.39 45.174 25.096 10.038-2.51 21.332-10.038 35.135-15.058 1.255-2.51 1.255-2.51 7.529-5.019-10.039 50.193-26.352 95.367-48.938 138.03-89.093 191.988-244.69 244.69-470.558 244.69-10.039 0-15.058-6.274-17.568-15.057-33.88-84.073-112.934-111.68-287.354-239.671-28.86-18.822-55.212-27.606-85.328 15.058-5.019-15.058-11.293-27.606-15.057-42.664-27.606-72.78-35.135-148.07-27.606-223.358 10.038-82.818 40.154-159.363 82.818-229.633 45.173-75.289 101.64-140.54 171.91-193.242C351.422 9.962 434.24-3.841 522.077 9.962c37.645 8.784 70.27 20.077 106.66 36.39-21.332 20.077-21.332 45.173-21.332 70.27V334.96c-76.544-37.645-151.833-43.919-228.377-6.274-47.683 21.332-85.328 55.212-110.424 100.385-53.958 95.367-38.9 210.81 31.37 289.864 71.526 76.545 197.007 111.68 313.706 45.174zM384.046 567.102c-10.038-38.9 12.548-90.348 47.683-112.934 35.135-25.097 85.328-25.097 121.718 0 63.996 41.409 46.428 198.261-41.41 205.79-56.466 5.02-117.952-37.644-127.99-92.856zm72.78-387.74c-12.548 22.587-1.255 36.39 26.351 36.39 18.822-3.765 42.664-6.274 63.996-11.294 22.587-5.019 3.764-22.586-13.803-45.173-28.861-25.097-60.232-13.803-76.544 20.077z"/></svg>