<?xml version="1.0" encoding="utf-8"?>
<!-- Generator: Adobe Illustrator 26.0.1, SVG Export Plug-In . SVG Version: 6.00 Build 0)  -->
<svg version="1.1" id="Layer_1" xmlns="http://www.w3.org/2000/svg" xmlns:xlink="http://www.w3.org/1999/xlink" x="0px" y="0px"
	 viewBox="0 0 1000 1000" style="enable-background:new 0 0 1000 1000;" xml:space="preserve">
<path d="M500.3,5C226.9,5,5.3,226.6,5.3,500s221.6,495,495,495s495-221.6,495-495S773.7,5,500.3,5z M650.7,142.6l146.1,144.7H682.9
	c-17.9-43-50.3-102.3-96.7-144.7H650.7z M789.9,627.7h-45.5l-40.6-84.4l-40.3,84.4h-45.9l64.8-128.8l-64.8-128.5h45.9l40.3,84.4
	l40.6-84.4h45.5l-64.8,128.5L789.9,627.7z M515.4,142.6h32.2c22.4,15.8,75.5,66.8,108.2,144.7H515.4V142.6z M454.5,142.6h32.9v144.7
	H348.5C358.3,257.4,393.2,186.7,454.5,142.6z M265.7,569.9c1.5,4.7,4,8.8,7.5,12.3c3.5,3.5,7.6,6,12.3,7.4c4.7,1.4,9.5,2.1,14.4,2.1
	c5.6,0,11.2-0.9,16.8-2.8c5.6-1.9,10.2-5.2,13.7-10.2c3.5-4.9,5.3-10.2,5.3-15.8h43.1c0,9.8-2,19.3-6.1,28.4
	c-4.1,9.1-10,16.7-17.7,22.9c-7.7,6.2-16.3,10.4-25.9,12.8c-9.6,2.3-19.3,3.5-29.1,3.5c-7,0-13.9-0.5-20.8-1.6
	c-6.9-1.1-13.5-3-19.8-6c-6.3-2.9-12-6.7-17.2-11.4c-5.1-4.7-9.4-10-12.8-16.1c-3.4-6.1-5.7-12.5-7-19.3c-1.3-6.8-1.9-13.7-1.9-20.7
	V442.5c0-7,0.6-13.9,1.9-20.7c1.3-6.8,3.6-13.2,7-19.3c3.4-6.1,7.6-11.4,12.8-16.1c5.1-4.7,10.9-8.5,17.2-11.4
	c6.3-2.9,12.9-4.9,19.8-6c6.9-1,13.8-1.6,20.8-1.6c9.8,0,19.5,1.2,29.1,3.5c9.6,2.3,18.2,6.6,25.9,12.8c7.7,6.2,13.6,13.8,17.7,22.9
	c4.1,9.1,6.1,18.6,6.1,28.4h-43.1c0-5.8-1.8-11.1-5.3-15.9c-3.5-4.8-8.1-8.1-13.7-10c-5.6-1.9-11.2-2.8-16.8-2.8
	c-4.9,0-9.7,0.7-14.4,2.1c-4.7,1.4-8.8,3.9-12.3,7.4c-3.5,3.5-6,7.6-7.5,12.3c-1.5,4.7-2.3,9.5-2.3,14.4v113.1
	C263.5,560.5,264.2,565.3,265.7,569.9z M348.4,142.6h68.8c-18.6,10.8-80.2,87.4-96,144.7H203.8L348.4,142.6z M349.9,857.4
	L203.8,712.7h113.9c17.9,43,50.3,102.3,96.7,144.7H349.9z M485.3,857.4h-32.2c-22.5-15.8-75.5-66.8-108.2-144.7h140.4V857.4z
	 M472.3,627c-9.7-2.3-18.5-6.6-26.4-12.8c-7.9-6.2-14-13.9-18.2-23.1c-4.2-9.2-6.3-18.8-6.3-28.9h43.1c0.2,6.1,2.2,11.6,5.8,16.5
	c3.6,4.9,8.3,8.3,14,10.2c5.7,1.9,11.5,2.8,17.3,2.8c6.3,0,12.4-1.1,18.4-3.3c6-2.2,10.7-6.1,14.2-11.6c3.5-5.5,5.3-11.4,5.3-17.7
	c0-8.4-3.1-15.9-9.3-22.4c-6.2-6.5-13.2-11.3-21.2-14.4c-7.9-3-15.9-6.1-23.8-9.3c-7.9-3.2-15.5-6.9-22.8-11.2
	c-7.2-4.3-13.8-9.6-19.6-15.9c-5.8-6.3-10.3-13.5-13.5-21.5c-3.2-8.1-4.7-16.3-4.7-24.7c0-10,1.9-19.8,5.8-29.2
	c3.9-9.5,9.6-17.6,17.2-24.5c7.6-6.9,16.2-11.7,25.9-14.4c9.7-2.7,19.5-4,29.6-4c9.6,0,19.1,1.2,28.5,3.5c9.5,2.3,18,6.7,25.6,13
	c7.6,6.3,13.4,13.9,17.3,22.9c4,9,6,18.4,6,28.2h-43.1c-0.2-5.6-1.9-10.9-5.1-15.8c-3.2-4.9-7.4-8.3-12.8-10.2
	c-5.4-1.9-10.9-2.8-16.5-2.8c-4.4,0-8.9,0.6-13.3,1.9c-4.4,1.3-8.3,3.4-11.7,6.5c-3.4,3-5.9,6.7-7.5,10.9c-1.6,4.2-2.5,8.6-2.5,13.3
	c0,8.4,3,15.9,9.1,22.4c6.1,6.5,13.1,11.3,21.2,14.2c8.1,2.9,16,6,23.8,9.1c7.8,3.2,15.4,6.9,22.8,11.4c7.4,4.4,13.9,9.8,19.8,16.1
	c5.8,6.3,10.3,13.4,13.5,21.4c3.2,7.9,4.7,16.2,4.7,24.9c0,10-2,19.9-6.1,29.6c-4.1,9.7-10.1,17.9-18,24.7
	c-7.9,6.8-16.9,11.4-26.8,14c-9.9,2.6-20,3.9-30.3,3.9C491.7,630.5,482,629.3,472.3,627z M546.1,857.4h-32.9V712.7h138.9
	C642.3,742.6,607.4,813.3,546.1,857.4z M652.2,857.4h-68.8c18.6-10.8,80.2-87.4,96-144.7h117.5L652.2,857.4z"/>
</svg>
