<svg xmlns="http://www.w3.org/2000/svg" width="1000" height="1000">
  <path d="M500.496 995.003c275.935 0 494.507-224.506 494.507-495.496C995.003 226.54 773.464 5 500.496 5 223.572 5 5 229.506 5 499.507c0 276.924 224.506 495.496 495.496 495.496zM124.671 409.507c15.824-89.011 67.253-164.177 154.286-221.54 0-7.912 4.945-14.835 13.846-14.835 19.78 0 19.78 29.67 0 30.66-2.967-.99-4.945-.99-6.923-2.967-82.088 55.385-130.55 125.605-146.374 210.66-11.868 69.23-8.901 126.594 6.923 178.022 15.824 2.967 13.846 28.682-3.956 29.67-15.824-.988-19.78-18.79-9.89-26.703-17.802-52.417-19.78-112.747-7.912-182.967zM158.297 527.2c-12.857-6.924-9.89-28.682 6.923-29.67 15.825.988 19.78 21.757 7.912 28.68 24.726 120.66 79.122 203.737 161.21 247.254 79.12 42.528 162.198 53.407 246.264 33.627 0-7.913 4.945-14.836 14.836-14.836 18.79 0 18.79 29.67 0 30.66-2.967 0-4.946-.99-6.924-.99-29.67 6.924-59.34 9.89-89.01 9.89-58.353 0-115.716-15.823-172.09-44.505-87.033-45.494-144.395-133.517-169.12-260.11zm14.835 174.066c-19.78 0-19.78-29.67 0-29.67 12.858 0 16.814 12.857 12.858 21.758 44.505 86.044 134.506 145.385 245.275 166.154 1.978-3.956 6.923-6.923 12.857-6.923 19.78.99 19.78 28.682 0 29.67-6.923 0-10.879-2.966-12.857-7.911-116.704-19.78-210.66-83.078-258.133-173.078zm51.43-82.088c-18.792-1.978-18.792-31.649.988-31.649 13.846 0 17.802 14.836 12.857 24.726 83.078 146.374 231.43 200.77 371.87 136.484-.99-7.912 3.956-16.814 14.835-16.814 20.77 0 20.77 29.67 0 29.67h-3.956c-42.528 19.781-86.044 29.671-128.572 29.671-105.824 0-204.726-62.308-268.023-172.088zm.988-294.726c-19.78 0-19.78-29.67 0-29.67C328.408 175.11 427.31 141.483 585.551 170.164c1.978-1.978 4.945-3.956 9.89-3.956 18.792 0 18.792 29.67 0 29.67-8.9 0-13.846-5.933-14.835-12.856-151.319-25.715-243.297 5.934-342.199 118.681 4.945 7.912.99 22.748-12.857 22.748zm13.846 21.758c67.254-101.87 172.089-156.264 282.858-146.374 105.825 8.9 196.814 78.132 243.298 184.945 14.835 3.957 13.846 29.67-3.956 29.67-14.835 0-19.78-15.823-10.88-25.713-44.505-100.88-129.56-165.166-229.45-174.067-104.836-9.89-204.726 42.528-269.012 137.473 6.923 9.89 1.978 25.714-11.869 25.714-18.79 0-18.79-29.67-.989-31.648zm25.715 103.846c52.418-280.88 463.847-252.198 472.749 36.594 0 129.56-106.814 234.396-237.364 234.396-115.715 0-212.638-82.088-233.407-189.89-1.978-9.89 4.945-18.792 14.835-18.792 6.923 0 11.868 4.945 13.846 11.868 18.791 94.946 102.858 165.166 204.726 165.166 113.737 0 207.693-90 207.693-202.748-6.923-252.199-367.913-275.935-413.408-32.638-2.967 19.78-31.648 15.825-29.67-3.956zm70.22 49.451c-3.956-73.187 39.56-161.21 148.352-178.022 66.264-8.902 131.539 24.725 167.143 82.088 1.978 4.945 2.967 9.89.99 14.835-.99 5.934-4.946 8.901-9.89 10.88-8.902 3.955-18.792.988-23.737-5.935-29.67-50.44-84.066-74.176-140.44-61.319-45.495 7.912-96.924 43.517-104.836 112.748-2.967 38.571 6.923 75.165 33.627 102.857 24.725 27.693 60.33 44.506 96.923 44.506 58.352 0 107.803-36.594 126.594-90.99 1.978-9.89 12.857-14.835 21.758-12.857 4.945.99 10.88 3.956 12.858 9.89 2.967 3.957 2.967 8.902 1.978 13.847-.99 2.967-1.978 6.923-3.956 9.89-26.704 65.275-88.023 108.791-159.232 108.791-108.791-2.967-163.187-86.044-168.132-161.209zm63.297-348.133c-19.78 0-19.78-30.66 0-31.648 2.967 0 6.923.989 8.9 1.978 119.672-17.803 220.551-.99 298.683 56.373C784.343 236.43 835.772 305.66 859.508 386.76c11.869 5.935 8.901 27.693-7.912 27.693-15.824 0-18.791-20.77-8.9-27.693-21.76-75.165-71.21-141.429-146.375-195.824-73.187-53.407-168.132-72.198-282.858-53.407 0 6.923-4.945 13.846-14.835 13.846zm166.154 730.882c-19.78-.99-19.78-28.682 0-29.67 3.956 0 6.923.988 9.89 2.966 99.89-23.736 180-80.11 225.496-155.275 26.703-45.495 58.351-113.737 59.34-181.979-11.868-5.934-8.9-27.692 6.923-27.692 16.814 0 19.78 20.77 8.902 27.692-.99 73.187-33.627 142.418-61.32 188.902-47.472 79.121-130.55 137.473-233.407 162.198-.989 6.924-5.934 12.858-15.824 12.858zm136.484-625.057c-19.78-.99-19.78-31.649 0-31.649 8.901 0 13.846 7.912 13.846 15.824 105.825 86.045 139.451 208.682 96.924 361.98 4.945 8.9.989 22.747-12.858 22.747-19.78 0-20.769-28.681-.989-29.67 39.561-146.375 9.89-258.133-90-341.21-1.978.989-3.956 1.978-6.923 1.978z" style="fill:#000;fill-opacity:1;fill-rule:nonzero;stroke:none;"/>
</svg>
