<svg xmlns="http://www.w3.org/2000/svg" viewBox="0 0 1000 1000"><path d="M500.3,5C226.9,5,5.3,226.6,5.3,500s221.6,495,495,495,495-221.6,495-495S773.7,5,500.3,5ZM824.753,601.724c-23.12,116.15-118.074,198.318-241.761,210.624-171.969,17.11-335.58-85.46-394.19-247.124-75.587-208.489,83.034-404.988,303.912-376.705,43.378,5.554,84.929,16.281,122.37,40.745-7.25-1.958-14.522-3.835-21.746-5.885-56.344-15.988-112.846-17.9-168.171,2.766-114.92,42.935-173.416,166.642-131.78,283.272,44.632,125.024,136.1,192.576,267.544,206.126,119.63,12.331,221.545-63.307,243.475-180.952a212.4,212.4,0,0,0-12.026-120.35C799.052,563.858,740.56,657.8,626.192,671.59c62.524-84.133,83.989-173.309,37.773-267.937-44.89-91.912-125.293-136.78-224.7-157.208,10.473-3.586,20.687-8.743,31.458-10.522,133.007-21.964,244.3,15.686,312.105,142.244C820.983,449.385,840.649,521.86,824.753,601.724Z"/></svg>