<svg xmlns="http://www.w3.org/2000/svg" viewBox="0 0 1000 1000"><path d="M521.167 5h18.454c21.71 13.026 40.164 26.053 60.79 37.993 59.703 34.737 119.407 68.388 180.196 103.125 24.967 16.283 37.993 36.908 37.993 66.217-1.085 83.585 0 162.828 0 244.243 0 6.513 0 10.855-1.085 16.282-1.086 8.685-10.855 15.198-21.71 14.112-6.514-2.17-13.027-7.598-18.454-10.855-74.901-41.25-149.803-87.927-225.79-131.348-28.223-16.283-42.335-39.08-42.335-71.645 2.171-78.157 2.171-155.23 0-232.302 0-15.197 4.343-26.052 11.941-35.822zM181.398 476.117v-281.15c8.685-26.053 24.968-42.336 49.935-55.362 67.302-37.993 135.69-78.158 201.907-117.237 10.855-4.342 18.454-11.94 26.052-17.368h18.454c9.77 9.77 11.941 20.625 11.941 34.737a8519.615 8519.615 0 0 0 0 235.558c0 31.48-11.94 55.362-40.164 71.645-78.158 42.335-151.974 89.013-227.96 132.434-21.71 13.026-27.138 11.94-40.165-3.257zm15.198 90.098 2.17-1.085c15.198 8.684 30.395 15.197 45.593 23.881 78.157 45.592 154.144 89.013 230.13 134.605 15.198 9.77 26.053 8.684 40.165-1.085 91.184-52.105 183.453-106.382 274.637-159.572 4.342-4.342 8.685-6.513 13.027-8.684 1.085 0 3.256 2.17 3.256 3.256-102.039 145.46-204.078 288.75-307.203 437.466-102.039-145.46-200.822-286.578-301.775-428.782zm5.427-39.078c8.685-8.685 15.198-17.369 26.053-23.882 79.243-47.763 161.743-92.27 240.986-138.947 8.684-5.427 18.454-6.513 30.395-11.94 11.94 5.427 24.967 9.77 34.736 16.282L754.555 492.4c9.77 7.599 21.71 11.94 32.565 19.54 15.198 10.854 15.198 19.539-3.256 30.394L651.43 620.492c-36.908 23.881-75.987 46.677-112.894 67.302-23.882 16.283-48.849 16.283-74.902 0-78.157-46.678-158.486-91.184-235.558-135.69-10.855-7.6-17.368-17.369-26.053-24.967zm2.171-121.579c-2.17 29.31 16.283 40.164 39.08 29.31 26.052-14.113 42.335-35.823 44.506-66.218 3.256-23.881-16.283-35.822-39.08-27.138-26.052 7.599-44.506 40.165-44.506 64.046zm89.013-143.289c0 24.967 15.198 35.822 36.908 28.224 26.053-8.685 46.678-43.421 46.678-67.303 0-23.881-16.283-35.822-37.994-27.138-22.796 8.684-45.592 40.164-45.592 66.217zm87.928-143.29c1.085 23.882 16.283 33.652 37.993 27.139 26.053-8.684 47.763-40.164 47.763-66.217 0-24.967-15.197-36.908-39.079-29.309-24.967 10.855-46.677 41.25-46.677 68.388zM529.85 273.125c0 24.967 24.967 59.704 49.934 66.217 18.454 5.428 33.652-4.342 33.652-26.052 0-23.882-24.967-57.533-48.849-66.217-19.54-5.428-34.737 3.256-34.737 26.052zm187.796-95.526c0 26.053 21.71 57.533 46.677 66.217 19.54 5.428 33.652-4.342 32.566-24.967 0-26.053-21.71-56.447-45.592-66.217-20.625-8.684-34.737 1.086-33.651 24.967z"/></svg>