<svg xmlns="http://www.w3.org/2000/svg" viewBox="0 0 1000 1000"><path d="M320.227,544.21a71.827,71.827,0,1,0,71.826,71.826A71.827,71.827,0,0,0,320.227,544.21Zm0,118.533a46.707,46.707,0,1,1,46.707-46.707A46.707,46.707,0,0,1,320.227,662.743ZM565.536,513.6l-18.447,59.267-34.375.247c-5.671-44.843-52.2-118.618-129.715-144.456,5.53-55.524,16.122-95.8,24.269-120.275a280.709,280.709,0,0,1,15.1-37.337c55.636.189,78.858,6.008,91.26,10.7,8.041,11.937,27.958,48.36,33.669,122.575l-10.411.166-12.776,19.58-18.3-10.4,9.711-13.266a9.036,9.036,0,0,0-14.583-10.674l-31.4,42.9A9.036,9.036,0,1,0,484.123,443.3l10.945-14.952,19.146,10.881-6.767,10.37s4.71,37.04,32.184,59.155C564.751,508.75,565.536,513.6,565.536,513.6ZM320.227,578.749a37.287,37.287,0,1,0,37.287,37.287A37.287,37.287,0,0,0,320.227,578.749Zm0,54.95a17.663,17.663,0,1,1,17.662-17.663A17.662,17.662,0,0,1,320.227,633.7Zm405.044-30.541a59.983,59.983,0,1,0,59.983,59.982A59.982,59.982,0,0,0,725.271,603.158Zm0,76.144a16.162,16.162,0,1,1,16.161-16.162A16.161,16.161,0,0,1,725.271,679.3ZM325.33,419.356c-6.058,0-12.067.25-18,.712,13.457-105.578,32.748-141.382,37.648-149.034h57.33c-10.223,22.53-28.666,72.4-36.98,152.708A182.935,182.935,0,0,0,325.33,419.356ZM499.169,0C223.027.459-.458,224.688,0,500.831S224.688,1000.458,500.831,1000,1000.458,775.312,1000,499.169,775.312-.458,499.169,0ZM832.134,688.5h0a11.906,11.906,0,0,0-6.626,2.65,103.454,103.454,0,0,1-4.144,12.021,11.881,11.881,0,0,0,3.7,6.3h0c9.746,8.818.367,24.653-12.049,20.344h0a11.864,11.864,0,0,0-7.764-.075,104.51,104.51,0,0,1-7.9,8.452,11.864,11.864,0,0,0,.676,7.9c5.317,12.02-9.692,22.671-19.283,13.685h0a11.813,11.813,0,0,0-7.518-3.239,103.31,103.31,0,0,1-9.985,4.3,11.815,11.815,0,0,0-2.81,7.713h0c-.032,13.143-18.075,16.769-23.182,4.658h0a11.817,11.817,0,0,0-5.691-6.092c-1.423.058-2.847.108-4.284.108-2.136,0-4.251-.084-6.355-.211a11.819,11.819,0,0,0-5.8,5.949h0c-5.374,11.994-23.333,7.968-23.072-5.173h0a11.816,11.816,0,0,0-2.557-7.667,103.252,103.252,0,0,1-10.183-4.616,11.817,11.817,0,0,0-7.374,3.059h0c-9.788,8.771-24.556-2.212-18.973-14.11h0a11.874,11.874,0,0,0,.928-7.512,104.719,104.719,0,0,1-8.125-9.114,11.879,11.879,0,0,0-7.426.018h0c-12.509,4.031-21.534-12.009-11.594-20.608h0a11.9,11.9,0,0,0,3.736-5.842,103.194,103.194,0,0,1-4.127-12.742,11.894,11.894,0,0,0-6.213-2.535h0c-13.067-1.406-14.787-19.729-2.21-23.542h0a11.922,11.922,0,0,0,5.361-3.354,104.466,104.466,0,0,1,1.529-14.334,11.933,11.933,0,0,0-4.332-4.292h0a11.74,11.74,0,0,1-5.557-6.9H597.018a133.065,133.065,0,0,0-4.2,20.992A11.817,11.817,0,0,1,581.1,665.14a11.971,11.971,0,0,1-1.383-.082,11.814,11.814,0,0,1-10.367-13.1,153.093,153.093,0,0,1,3.269-18.255h-86.4a16.3,16.3,0,0,1-14.132,11.469h0a16.548,16.548,0,0,0-11.424,6.4q-1.509,5.983-3.508,11.762a16.548,16.548,0,0,0,5.9,11.485h0c14.008,11.942,1.532,34.5-16.028,28.977h0a16.58,16.58,0,0,0-12.151.745q-4.341,5.615-9.2,10.779a16.574,16.574,0,0,0,1.044,11.884h0c7.939,16.607-12.632,32.137-26.429,19.953h0a16.617,16.617,0,0,0-10.172-4.239,144.123,144.123,0,0,1-14.821,7.11,16.613,16.613,0,0,0-3.082,10.252h0c.5,18.4-24.611,24.221-32.26,7.478h0a16.675,16.675,0,0,0-6.612-7.482c-4.319.388-8.689.6-13.108.6-1.73,0-3.451-.041-5.166-.1a16.689,16.689,0,0,0-6.1,7.556h0c-7.029,17.012-32.335,12.117-32.513-6.289h0a16.75,16.75,0,0,0-2.465-8.707,143.924,143.924,0,0,1-18.322-7.622,16.774,16.774,0,0,0-7.751,4.246h0c-13.341,12.682-34.468-2.083-27.144-18.97h0a16.781,16.781,0,0,0,1.35-8.415,145.672,145.672,0,0,1-14.151-15.026,16.786,16.786,0,0,0-8.355.795h0c-17.345,6.16-30.641-15.922-17.081-28.37h0a16.818,16.818,0,0,0,4.555-6.85,143.694,143.694,0,0,1-6.852-19.859,16.816,16.816,0,0,0-7.819-2.584h0c-18.352-1.428-21.516-27.008-4.066-32.865h0a16.8,16.8,0,0,0,7.084-4.549,145.461,145.461,0,0,1,1.843-20.54,16.788,16.788,0,0,0-6.254-5.786h0c-16.184-8.769-8.67-33.425,9.654-31.677h0a16.778,16.778,0,0,0,8.745-1.454,144.763,144.763,0,0,1,9.7-17.2,16.731,16.731,0,0,0-3.441-8.468h0c-6.023-7.835-3.938-17.069,1.76-22.546l-5.54-3.464a97.816,97.816,0,0,0-8.595,11.808A11.816,11.816,0,1,1,162.784,502.2c1.507-2.635,36.728-62.687,120.329-78.888,10.825-88.68,25.819-132.777,35.624-153.448-9.531-3.771-37.1-17.067-35.8-44.364,0,0,182.9-25.9,270.036,29.045,9.155,5.633-2.539,26.417-15.81,31.771,10.451,20.719,23.763,57.887,28.227,117.708l20.765-.331V347.75L640.11,293.8v40.82l-25.9,20.409s1.57,10.205,1.57,53.38c98.959,0,135.019,29.552,135.019,29.552l65.154,60.722v27.474l-33,50.392a104.274,104.274,0,0,1,11.024,8.442,12.05,12.05,0,0,0,5.3-1.611h0c11.4-6.544,23.559,7.269,15.625,17.746h0a11.981,11.981,0,0,0-2.31,5.394,103.8,103.8,0,0,1,7.178,12.987,11.95,11.95,0,0,0,5.982.9h0c13.074-1.343,18.567,16.223,7.056,22.567h0a11.914,11.914,0,0,0-4.62,4.52,104.782,104.782,0,0,1,1.124,13.724,11.909,11.909,0,0,0,5.564,3.788h0C847.356,669.1,845.229,687.381,832.134,688.5Z"/></svg>