<svg xmlns="http://www.w3.org/2000/svg" viewBox="0 0 1000 1000"><path d="M749.728 72.253C824.2 116.462 883.54 175.803 927.75 250.276c44.803 77.143 67.253 160.418 67.253 249.726 0 89.308-22.45 172.583-67.253 249.726C883.541 824.2 824.2 883.54 749.728 927.75c-77.143 44.803-160.418 67.253-249.726 67.253-89.308 0-172.583-22.45-249.726-67.253-74.473-44.209-133.814-103.55-178.023-178.022C27.451 672.585 5 589.31 5 500.002c0-89.308 22.45-172.583 67.253-249.726 44.209-74.473 103.55-133.814 178.023-178.023C327.419 27.45 410.496 5 499.507 5c89.704 0 173.078 22.45 250.22 67.253zm-475.716 652.75h49.45V274.011h-49.45zm60.33 0h48.461V359.066L550.936 455v-56.373L334.342 274.012zM356.1 274.011 550.936 386.76v-57.363l-96.924-55.385zm92.967 450.99h76.155l-76.155-44.505zm0-56.373 96.924 56.373h97.912L449.067 612.255zm0-68.242 216.595 124.615v-450.99H617.2v365.935l-168.133-96.923zm25.715-326.375 76.154 43.516v-43.516zm201.759 450.99h49.45v-450.99h-49.45z"/></svg>