<svg xmlns="http://www.w3.org/2000/svg" width="1000" height="1000">
  <path d="M5 500.496c0 271.98 220.55 494.507 495.496 494.507 271.98 0 494.507-220.55 494.507-495.496C995.003 227.528 773.464 5 500.496 5 226.54 5 5 225.55 5 500.496zm123.627-59.34c0-12.858 9.89-22.748 21.758-22.748 12.857 0 22.747 9.89 22.747 22.747 0 11.868-9.89 21.759-22.747 21.759-11.868.989-21.758-8.902-21.758-21.759zm8.9-86.045c0-14.835 12.858-28.681 27.693-27.692 15.825 0 28.682 12.857 28.682 28.681 0 15.824-13.846 29.67-28.682 28.681-16.813 0-27.692-12.857-27.692-29.67zm10.88 150.33c0-8.9 6.923-16.813 15.824-16.813s15.825 7.912 15.825 16.813c-.99 7.912-6.924 14.835-15.825 14.835-8.9 0-15.824-6.923-15.824-14.835zm26.703 43.517c-.989-3.956 3.957-9.89 8.902-9.89 5.934 0 9.89 3.956 9.89 8.9 0 6.924-3.956 9.891-9.89 9.891-4.945 0-8.902-2.967-8.902-8.901zm15.825-265.056c0-19.78 16.813-35.605 36.593-35.605 18.791.99 33.627 15.825 33.627 35.605 0 19.78-14.836 35.605-34.616 35.605-18.791 0-35.604-15.825-35.604-35.605zm42.527 124.616c0-36.594 30.66-66.264 68.242-68.242 35.605 0 66.264 29.67 66.264 67.253 0 37.582-29.67 67.253-66.264 67.253-36.593 0-68.242-29.67-68.242-66.264zm9.89 164.176c0-29.67 25.715-54.396 55.385-54.396 29.67 0 53.407 24.726 53.407 54.396 0 30.66-24.725 55.385-54.396 55.385-28.681 0-54.396-24.725-54.396-55.385zm30.66-333.298c0-21.758 17.802-39.56 40.55-39.56 22.747 0 41.538 19.78 41.538 42.527 0 21.759-19.78 41.539-42.528 41.539-21.758-1.978-41.538-20.77-39.56-44.506zm10.879 459.892c0-26.703 20.77-48.462 47.473-48.462 25.714-.989 48.461 21.759 48.461 48.462 0 25.714-20.769 48.462-47.472 48.462-27.693 0-48.462-22.748-48.462-48.462zm65.275 98.901c0-21.758 17.802-40.55 40.55-40.55 23.736 0 42.527 18.792 42.527 40.55 0 24.726-18.791 42.528-42.527 42.528-22.748 0-40.55-17.802-40.55-42.528zm32.637-553.848c0-25.714 20.77-47.472 48.462-47.472 25.715 0 46.484 21.758 46.484 48.461 0 25.715-20.77 48.462-46.484 48.462-27.692 0-48.462-21.758-48.462-49.45zm56.374 606.266c0-19.78 14.836-34.615 35.605-34.615 18.791 0 34.615 16.813 34.615 34.615 0 19.78-15.824 34.616-36.593 34.616-18.791 0-34.616-15.825-33.627-34.616zm28.682-137.473c0-36.593 29.67-65.275 66.264-65.275 37.582 0 67.253 28.682 67.253 65.275 0 37.583-29.67 67.253-66.264 67.253-37.583.99-67.253-29.67-67.253-67.253zm33.626-431.21c0-29.67 23.737-53.407 54.396-53.407 29.67 0 52.418 24.726 53.407 53.407 0 29.67-23.737 54.396-53.407 54.396-30.66 0-54.396-22.748-54.396-54.396zm37.583 582.53c0-15.825 11.868-28.682 27.692-28.682s29.67 12.857 29.67 28.681c0 15.825-12.857 28.682-29.67 28.682-15.824 0-27.692-12.857-27.692-28.682zm69.23-682.42c0-5.935 3.957-9.89 8.902-9.89 4.945 0 8.901 3.955 8.901 9.89 0 3.956-3.956 7.912-8.901 7.912s-8.901-3.956-8.901-7.912zm16.814 650.771c0-12.857 9.89-22.747 22.747-22.747 11.868 0 21.759 9.89 21.759 22.747 0 10.88-9.89 20.77-21.759 20.77-12.857 0-22.747-9.89-22.747-20.77zm0-198.792c0-29.67 24.725-53.407 52.418-53.407 30.66 0 55.385 23.737 55.385 53.407 0 29.67-24.726 53.407-55.385 53.407-27.693 0-52.418-24.726-52.418-53.407zm.989-261.1c0-37.582 29.67-67.253 67.253-67.253 36.593 0 66.264 29.67 66.264 67.253s-29.67 67.253-66.264 67.253c-37.583 0-67.253-31.648-67.253-67.253zm24.725-189.89c0-7.913 6.923-13.847 14.836-13.847 8.9 0 14.835 5.934 14.835 15.825 0 7.912-5.934 14.835-14.835 14.835-7.913 0-14.836-7.912-14.836-16.813zM677.53 786.32c0-8.9 8.9-14.835 16.813-14.835 8.901 0 15.824 6.923 14.835 15.824 0 8.901-6.923 14.836-15.824 14.836-6.923 0-15.824-7.913-15.824-15.825zm29.67-584.507c0-11.868 9.89-21.758 21.758-21.758 10.88 0 20.77 9.89 20.77 21.758 0 12.857-9.89 22.747-20.77 20.77-11.868 0-21.758-9.891-21.758-20.77zm4.945 543.958c0-3.956 3.956-9.89 7.912-9.89 5.934 0 9.89 5.934 9.89 9.89 0 5.934-3.956 8.9-9.89 8.9-3.956.99-7.912-2.966-7.912-8.9zm10.88-204.726c0-25.715 22.747-47.473 48.461-47.473 26.703 0 46.484 21.758 46.484 48.462 0 26.703-22.748 46.483-48.462 46.483-25.714 0-46.484-20.769-46.484-47.472zm46.483-286.814c0-14.836 10.88-26.704 26.703-26.704 15.825 0 28.682 11.868 28.682 27.693-.99 15.824-13.846 28.681-28.682 28.681-15.824 0-26.703-12.857-26.703-29.67zM788.3 440.166c0-22.747 16.814-39.56 39.56-41.538 22.748 0 41.54 18.79 41.54 41.538 0 23.737-18.792 40.55-40.55 40.55-23.736 0-40.55-16.813-40.55-40.55zm7.912-96.923c0-18.791 15.825-35.605 34.616-35.605 19.78 0 35.604 16.814 35.604 35.605 0 18.791-15.824 34.615-35.604 34.615-18.791 0-34.616-15.824-34.616-34.615z" style="fill:#000;fill-opacity:1;fill-rule:nonzero;stroke:none;"/>
</svg>
