<svg xmlns="http://www.w3.org/2000/svg" viewBox="0 0 1000 1000"><path d="M500.496 5C223.572 5 5 229.506 5 500.002c0 276.43 224.506 495.001 495.002 495.001 276.43 0 495.001-224.506 495.001-495.001C995.003 226.539 773.464 5 500.496 5zM114.781 566.76V452.034c0-22.747 10.879-27.692 26.703-27.692h110.77c20.769 0 26.703 4.945 26.703 27.692v109.781c0 22.747-5.934 27.692-21.758 27.692H141.484c-15.824 0-26.703-4.945-26.703-22.747zm191.868-225.495V237.418c0-22.747 10.88-34.615 33.627-34.615h444.067c22.748 0 31.649 7.912 31.649 34.615v103.847c0 17.802-8.901 28.681-31.649 28.681H340.276c-22.747 0-33.627-5.934-33.627-28.681zm3.956 389.671c0-82.088 0-82.088 84.067-82.088 82.088 0 77.143 2.967 77.143 78.132 0 80.11 0 80.11-77.143 80.11-84.067 0-84.067 0-84.067-76.154zm0-169.121v-109.78c0-22.748 11.869-27.693 33.627-27.693h301.65c22.747 0 28.68 0 28.68 27.692v109.781c0 22.747-5.933 27.692-28.68 27.692H340.275c-17.802 0-29.67-4.945-29.67-27.692z"/></svg>