<svg width="1000" height="1000" viewBox="0 0 1000 1000" fill="none" xmlns="http://www.w3.org/2000/svg">
<path d="M289 2L87 204H251C273 124 359 17 385 2H289Z" fill="black"/>
<path d="M483 204V2H437C351.4 63.6 302.667 162.333 289 204H483Z" fill="black"/>
<path d="M522 204H718C672.4 95.2 598.333 24 567 2H522V204Z" fill="black"/>
<path d="M756 204H915L711 2H621C685.8 61.2 731 144 756 204Z" fill="black"/>
<path d="M713 1000L915 798L751 798C729 878 643 985 617 1000L713 1000Z" fill="black"/>
<path d="M519 798L519 1000L565 1000C650.6 938.4 699.333 839.667 713 798L519 798Z" fill="black"/>
<path d="M480 798L284 798C329.6 906.8 403.667 978 435 1000L480 1000L480 798Z" fill="black"/>
<path d="M246 798L87 798L291 1000L381 1000C316.2 940.8 271 858 246 798Z" fill="black"/>
<path d="M269.555 734.001L138.905 409.001H136.955L138.255 734.001H68.0547V273.801H157.105L286.455 600.751H288.405L287.755 273.801H355.355V734.001H269.555Z" fill="black"/>
<path d="M500.914 734.001V273.801H578.914V734.001H500.914Z" fill="black"/>
<path d="M865.351 557.851V734.001H788.651V557.851L673.601 273.801H758.101L827.001 479.201L828.951 477.901L899.151 273.801H981.701L865.351 557.851Z" fill="black"/>
</svg>
