<svg xmlns="http://www.w3.org/2000/svg" width="1000" height="1000">
  <path d="M600.418 601.009v356.778H392.494v-357.96c-73.246-2.362-138.222-10.632-197.291-23.627-60.25-12.996-107.506-25.99-139.403-43.712C21.54 513.586 5 494.684 5 475.782c0-21.265 17.72-41.349 50.8-57.888 31.897-16.54 79.152-31.897 139.403-44.893 59.07-12.995 124.045-18.902 197.291-24.809v-98.055H112.506V42.214H882.77v207.923H600.42v98.055c73.245 5.907 141.765 10.633 202.016 24.81 60.25 14.176 107.506 27.171 140.585 43.71 33.078 16.54 51.98 37.805 51.98 59.07 0 18.902-17.72 37.804-51.98 56.706-34.26 18.903-80.335 33.08-140.585 44.893-60.25 11.814-128.771 21.265-202.017 23.628zM61.707 452.154c0 17.721 21.264 30.716 59.069 42.53 40.167 12.995 90.966 22.446 158.305 30.716 68.52 8.27 141.767 11.814 220.92 11.814 80.334 0 153.58-3.544 220.918-11.814 67.34-8.27 120.502-17.72 159.487-30.716 40.167-12.995 59.07-24.809 59.07-42.53 0-12.995-15.358-24.809-44.893-36.623-28.353-11.814-69.702-18.902-120.501-27.172-53.163-8.27-109.87-14.176-173.664-15.358v119.32c-33.079 1.182-68.52 2.363-100.418 2.363-35.441 0-74.427-1.181-106.324-2.363l-1.182-119.32c-62.613 2.363-119.32 7.089-168.938 15.358-51.98 8.27-90.966 18.903-119.32 27.172-29.534 8.27-42.53 23.628-42.53 36.623z" style="fill:#000;fill-opacity:1;fill-rule:nonzero;stroke:none;"/>
</svg>
