<svg xmlns="http://www.w3.org/2000/svg" width="1000" height="1000">
  <path d="M945.199 646.472V499.229c0-171.38 10.862-252.244-97.76-317.417C760.542 132.33 676.058 79.225 587.954 28.535c-60.346-31.38-117.07-31.38-175.002 0-90.518 55.518-181.036 103.794-270.348 156.898C81.052 225.26 54.5 284.399 54.5 354.4v287.244c0 76.036 31.38 133.967 92.932 175.002 90.518 53.104 175.002 103.794 265.52 152.07 51.897 31.38 111.035 36.208 170.174 6.035 89.311-54.31 183.45-109.829 272.761-166.553 57.932-35 84.484-90.518 89.312-161.726zM304.33 726.128c18.104-25.345 31.38-49.483 76.035-35 49.484 18.103 82.07-16.897 82.07-76.036 2.414-107.415 2.414-214.83 2.414-317.417V233.71h67.587v194.313c0 92.931 27.759 114.656 120.69 92.931 14.484 13.276 27.76 21.725 41.036 35-49.484 50.691-67.587 55.519-155.692 37.415-6.034 66.38-19.31 132.76-95.345 160.519-49.484 19.31-92.932 13.276-138.795-27.759z" style="fill:#000;fill-opacity:1;fill-rule:nonzero;stroke:none;"/>
</svg>
