<svg xmlns="http://www.w3.org/2000/svg" width="1000" height="1000">
  <path d="M5 500.496c0 271.98 220.55 494.507 495.496 494.507 271.98 0 494.507-220.55 494.507-495.496C995.003 227.528 773.464 5 500.496 5 226.54 5 5 225.55 5 500.496zm119.67-180.99c0-25.714 16.814-49.45 46.484-49.45 51.43-.99 100.88-.99 149.342-.99 32.637 0 54.395 33.627 43.516 66.265-6.923 20.77-23.736 32.637-45.494 32.637H173.132c-30.659-1.978-46.483-21.758-48.461-48.461zm168.133 172.089c9.89-15.824 24.726-22.747 42.528-22.747h244.286c18.792 0 34.616 0 53.407.989 20.77.989 35.605 21.758 35.605 43.516 1.978 25.715-8.902 43.517-35.605 51.43-5.934.988-9.89.988-14.835.988H335.33c-16.813 0-30.66-6.923-40.55-21.758-10.879-15.824-9.89-34.616-1.978-52.418zm159.231 229.451c-.989-34.615 19.78-57.363 51.43-57.363 49.45 1.979 99.89 0 149.34 0 58.352 0 111.759-35.604 133.517-90.989 19.78-50.44 14.836-96.923-14.835-140.44-27.692-41.538-67.253-64.286-118.682-64.286H496.54c-24.725 0-44.506-21.758-44.506-45.494-1.978-19.78 2.968-35.605 18.792-45.495 7.912-4.945 17.802-6.923 25.714-6.923 53.407 0 108.792-.99 163.187 0 51.43.989 97.913 17.802 139.451 50.44 38.572 29.67 65.275 66.263 81.1 109.78 11.868 32.638 18.79 66.264 17.802 100.88-5.934 61.318-29.67 116.703-73.187 160.22-32.638 32.637-70.22 55.385-115.715 65.275-21.758 3.956-45.494 5.934-69.23 7.912H494.561c-22.747 0-41.539-19.78-42.528-43.517z" style="fill:#000;fill-opacity:1;fill-rule:nonzero;stroke:none;"/>
</svg>
