<svg xmlns="http://www.w3.org/2000/svg" viewBox="0 0 1000 1000"><path d="M541.343 802.758v-59.221c30.17 0 87.156-26.817 115.09-61.456 59.222-79.334 22.348-178.781-62.573-206.716-157.55-41.343-173.194-42.46-178.78-63.69-7.822-58.105 16.76-87.156 86.038-87.156 33.521 0 69.277 12.29 80.451 52.516 5.587 11.174 12.291 17.879 22.348 17.879h40.225c17.879 0 23.465-11.174 17.879-30.17-5.587-33.521-27.935-61.456-63.691-87.156-31.287-18.995-56.987-12.29-56.987-33.521v-45.813c0-16.76-6.704-21.23-23.465-21.23h-22.347c-31.287 0-34.64 4.47-34.64 25.7v53.634c-31.286 0-73.746 25.7-97.211 46.93-53.635 49.165-49.165 179.899 45.812 211.185 150.847 37.991 169.842 27.935 184.368 73.748 4.47 36.873-12.29 70.395-45.812 81.569-63.691 21.23-144.143-2.235-144.143-61.456 0-16.761-13.408-20.113-23.465-20.113h-41.343c-20.113 0-29.052 17.878-22.347 41.343 20.112 70.395 78.216 113.973 144.142 113.973v59.221c0 15.643 3.352 27.935 23.465 27.935h26.817c23.465 0 30.17-5.587 30.17-27.935zM5 503.3c7.822 188.837 103.917 369.853 329.628 460.36 23.465 8.94 41.343 13.41 41.343-5.586 0-17.878-1.118-27.935-1.118-55.869 0-15.643-18.995-18.996-35.756-24.582-155.316-68.16-272.641-241.355-243.589-432.427 22.348-149.73 111.738-252.529 250.294-316.22 22.347-10.056 34.638-8.938 34.638-40.225 0-54.752 1.118-64.808-45.812-51.4C137.968 106.63 10.587 295.467 5 503.3zm617.912 432.426c0 33.522 11.174 39.109 44.695 27.935C864.267 894.383 995 710.015 995 503.3c0-216.772-140.79-398.906-345.27-471.536-15.644-8.939-26.818 2.235-26.818 22.348v34.639c0 24.582 21.23 29.052 44.695 40.226 144.143 63.69 259.233 219.007 241.355 414.548-20.113 173.195-103.917 259.233-264.82 339.684-23.465 8.94-21.23 24.583-21.23 52.517z"/></svg>