<svg width="33" height="32" viewBox="0 0 33 32" fill="none" xmlns="http://www.w3.org/2000/svg">
<g clip-path="url(#clip0_3393:12133)">
<path fill-rule="evenodd" clip-rule="evenodd" d="M16.4338 31.84C25.1819 31.84 32.2738 24.7482 32.2738 16C32.2738 7.25178 25.1819 0.159973 16.4338 0.159973C7.68556 0.159973 0.59375 7.25178 0.59375 16C0.59375 24.7482 7.68556 31.84 16.4338 31.84ZM6.86471 9.14333L11.5281 4.47992H13.7444C13.1441 4.82622 11.1587 7.29644 10.6508 9.14333H6.86471ZM16.0068 4.47992V9.14333H11.5281C11.8436 8.18141 12.9687 5.90203 14.9449 4.47992H16.0068ZM16.9072 9.14333H21.4321C20.3794 6.63155 18.6694 4.98782 17.9461 4.47992H16.9072V9.14333ZM25.9801 9.14333H22.3094C21.7322 7.75816 20.6887 5.84662 19.1927 4.47992H21.2705L25.9801 9.14333ZM10.5355 22.8565H6.8648L11.5744 27.5199H13.6521C12.1561 26.1532 11.1127 24.2417 10.5355 22.8565ZM11.4128 22.8565H15.9377L15.9377 27.5199L14.8988 27.5199C14.1754 27.012 12.4655 25.3683 11.4128 22.8565ZM16.838 22.8565V27.5199H17.9C19.8762 26.0978 21.0012 23.8184 21.3167 22.8565L16.838 22.8565ZM21.3167 27.5199L25.9801 22.8565H22.194C21.6861 24.7034 19.7007 27.1736 19.1005 27.5199H21.3167ZM24.3857 19.976C24.0577 20.056 23.7257 20.096 23.3897 20.096C23.1497 20.096 22.9097 20.076 22.6697 20.036C22.4377 20.004 22.2137 19.94 21.9977 19.844C21.7817 19.74 21.5857 19.608 21.4097 19.448C21.2337 19.288 21.0857 19.104 20.9657 18.896C20.8537 18.688 20.7737 18.468 20.7257 18.236C20.6857 18.004 20.6657 17.768 20.6657 17.528V13.652C20.6657 13.412 20.6857 13.176 20.7257 12.944C20.7737 12.712 20.8537 12.492 20.9657 12.284C21.0857 12.076 21.2337 11.892 21.4097 11.732C21.5857 11.572 21.7817 11.444 21.9977 11.348C22.2137 11.244 22.4377 11.176 22.6697 11.144C22.9097 11.104 23.1497 11.084 23.3897 11.084C23.7257 11.084 24.0577 11.124 24.3857 11.204C24.7137 11.284 25.0097 11.432 25.2737 11.648C25.5377 11.856 25.7377 12.116 25.8737 12.428C26.0177 12.74 26.0897 13.064 26.0897 13.4H24.6137C24.6137 13.2 24.5537 13.02 24.4337 12.86C24.3137 12.692 24.1577 12.576 23.9657 12.512C23.7737 12.448 23.5817 12.416 23.3897 12.416C23.2217 12.416 23.0577 12.44 22.8977 12.488C22.7377 12.536 22.5977 12.62 22.4777 12.74C22.3577 12.86 22.2697 13 22.2137 13.16C22.1657 13.32 22.1417 13.484 22.1417 13.652V17.528C22.1417 17.696 22.1657 17.86 22.2137 18.02C22.2697 18.18 22.3577 18.32 22.4777 18.44C22.5977 18.56 22.7377 18.644 22.8977 18.692C23.0577 18.74 23.2217 18.764 23.3897 18.764C23.5817 18.764 23.7737 18.732 23.9657 18.668C24.1577 18.604 24.3137 18.488 24.4337 18.32C24.5537 18.152 24.6137 17.972 24.6137 17.78H26.0897C26.0897 18.116 26.0177 18.44 25.8737 18.752C25.7377 19.064 25.5377 19.328 25.2737 19.544C25.0097 19.752 24.7137 19.896 24.3857 19.976ZM6.93359 20H8.40959V16.16H10.7616V20H12.2376V11.18H10.7616V14.816H8.40959V11.18H6.93359V20ZM13.8477 20H15.3237V16.676H15.8997L17.9037 20H19.4997L17.4597 16.616C17.7077 16.56 17.9477 16.476 18.1797 16.364C18.4117 16.244 18.6117 16.084 18.7797 15.884C18.9557 15.684 19.0757 15.46 19.1397 15.212C19.2117 14.964 19.2477 14.712 19.2477 14.456V13.4C19.2477 13.144 19.2117 12.892 19.1397 12.644C19.0677 12.396 18.9477 12.172 18.7797 11.972C18.6117 11.772 18.4117 11.612 18.1797 11.492C17.9477 11.372 17.7037 11.292 17.4477 11.252C17.1917 11.204 16.9357 11.18 16.6797 11.18H13.8477V20ZM15.3237 15.344V12.512H16.6797C16.8157 12.512 16.9477 12.528 17.0757 12.56C17.2117 12.584 17.3317 12.636 17.4357 12.716C17.5477 12.796 17.6317 12.9 17.6877 13.028C17.7437 13.148 17.7717 13.272 17.7717 13.4V14.456C17.7717 14.584 17.7437 14.712 17.6877 14.84C17.6317 14.96 17.5477 15.06 17.4357 15.14C17.3317 15.22 17.2117 15.276 17.0757 15.308C16.9477 15.332 16.8157 15.344 16.6797 15.344H15.3237Z" fill="black"/>
</g>
<defs>
<clipPath id="clip0_3393:12133">
<rect width="32" height="32" fill="white" transform="translate(0.441406)"/>
</clipPath>
</defs>
</svg>
