<svg xmlns="http://www.w3.org/2000/svg" width="1000" height="1000">
  <path d="M500.496 5C223.572 5 5 229.506 5 500.002c0 276.43 224.506 495.001 495.002 495.001 276.43 0 495.001-224.506 495.001-495.001C995.003 226.539 773.464 5 500.496 5zM96.978 509.397c1.978-1.978 1.978-4.945 1.978-6.923 0-26.703 11.869-47.473 28.682-66.264 23.736-28.681 56.374-49.45 89.011-67.253 68.242-35.604 140.44-59.34 215.605-70.22 49.45-6.923 100.88-2.967 151.32 0 45.494 1.978 90 8.901 134.505 24.726 67.253 22.747 117.693 61.318 155.276 119.67 1.978 2.967 4.945 6.923 8.9 8.901 15.825 14.836 22.748 34.616 25.715 54.396 1.978 11.868-4.945 23.737-15.824 32.638-13.846 11.868-25.715 24.725-29.67 44.505 0 2.967-2.968 6.923-4.946 7.912-7.912 10.88-10.879 22.748-7.912 34.616 0 .989-.989 4.945-4.945 6.923-1.978.99-4.945.99-6.923.99-8.901 0-13.846 3.955-13.846 12.856-1.978 6.923-8.901 9.89-15.824 11.868-2.967 1.978-7.912 1.978-11.869 1.978-8.9.99-14.835 4.946-17.802 14.836-3.956 8.9-10.879 13.846-20.77 13.846-5.933 0-8.9 1.978-12.856 0-14.836-4.945-29.67 1.978-45.495 4.945-1.978 0-3.956 1.978-3.956 2.967-4.945 10.88-13.846 15.824-25.714 12.857-15.825-6.923-28.682-3.956-43.517 4.945-8.901 2.967-17.802 8.901-26.703 11.868-2.967 1.978-9.89 3.956-13.847 1.978-14.835-3.956-26.703 2.967-40.55 6.924-11.867 4.945-25.714 9.89-37.582 11.868-7.912 1.978-16.813-1.978-23.736-1.978-4.945-.99-8.901-.99-11.868 0-8.901 1.978-17.802 6.923-23.737 8.9-11.868 3.957-24.725 1.979-32.637-6.922-3.956-4.945-6.923-4.945-12.857-1.978-6.923 3.956-13.846 6.923-20.77 10.879-13.846 5.934-26.703 5.934-42.527-1.978-7.912-6.923-18.791-8.901-27.693-9.89-8.9-3.956-17.802-3.956-26.703-5.934-11.868-.99-20.77-7.913-27.692-18.792-6.923-11.868-15.825-16.813-29.67-13.846-19.781 1.978-33.627-2.967-43.517-17.802-1.978-3.956-5.934-5.934-9.89-6.923-8.902-3.956-16.814-6.923-23.737-12.857-12.857-9.89-15.824-23.737-12.857-39.561 0-3.956 0-5.934-4.945-7.912-13.846-8.901-18.791-20.77-13.846-36.594 1.978-6.923 3.956-11.868-2.967-14.835-7.913-5.934-7.913-12.857-4.945-25.714-.99-.99-2.968-2.967-6.924-2.967-13.846-6.923-16.813-19.78-6.923-31.649zm39.56 81.1c-3.955 9.89.99 14.835 9.891 16.813 13.846 4.945 13.846 4.945 10.88 18.791-1.979.989-1.979 2.967-1.979 6.923-1.978 11.868 1.978 21.758 13.846 27.692 4.945 2.968 12.858 4.946 17.803 7.913 3.956 0 6.923 1.978 8.9 5.934 4.946 13.846 17.803 16.813 31.65 14.835 18.79-2.967 31.648 3.956 42.527 18.791 7.912 11.868 18.791 15.824 30.66 16.813 16.813 1.978 35.604 3.956 51.428 15.825 6.923 4.945 13.846 4.945 20.77 1.978 8.9-4.945 17.802-10.88 26.703-13.847 9.89-3.956 18.791-3.956 25.714 4.946 8.901 6.923 15.824 6.923 22.747 3.956 9.89-3.956 17.803-8.902 26.704-10.88 3.956-1.978 10.879-1.978 11.868 1.978 8.901 4.946 15.824 4.946 24.725 1.978 14.836-3.956 28.682-10.879 44.506-15.824 6.923-1.978 14.835-3.956 21.758-3.956 9.89 1.978 16.814 0 25.715-4.945 4.945-1.978 7.912-2.967 13.846-6.923 18.791-7.912 35.604-14.835 56.374-5.934h2.967c-4.945-8.901 0-11.868 6.923-13.846 8.9-1.978 18.791-3.956 27.692-4.945 8.901 0 14.835-1.978 21.759-1.978 4.945-1.978 10.879 0 17.802 1.978 6.923 0 9.89-1.978 11.868-8.901 2.967-8.902 8.901-13.847 16.813-17.803 6.923-.989 13.846-2.967 20.77-4.945 4.945 0 6.923-1.978 6.923-6.923 0-2.967 2.967-8.901 4.945-9.89 2.967-2.967 8.9-4.945 11.868-4.945 4.945-1.978 6.923-2.967 8.901-8.901 0-6.923 2.967-13.846 4.945-20.77 3.956-6.923 8.901-11.868 10.88-18.79 4.944-9.891 6.922-19.781 10.878-29.671-9.89-1.978-23.736-3.956-35.604-5.934-54.396-11.868-107.803-25.715-163.188-36.594a443.054 443.054 0 0 0-120.66-7.912c-49.45.989-93.956 20.77-138.461 43.517-28.682 14.835-56.374 29.67-87.034 43.516-48.461 20.77-95.934 20.77-143.407-1.978-6.923-2.967-15.824-6.923-26.703-11.868-2.967 8.901-6.923 17.802-7.912 24.725zm45.496-47.473c1.978 7.912 4.945 13.846 10.879 13.846 7.912 0 9.89-5.934 9.89-12.857-1.978-9.89 1.978-18.791 6.923-25.715 18.791-37.582 49.45-61.318 86.044-80.11 16.813-8.9 33.627-18.791 47.473-32.637 8.901-9.89 11.868-9.89 22.747-1.978 0 1.978-1.978 1.978-1.978 1.978-45.494 30.66-56.374 75.165-54.396 124.616 0 5.934 1.978 8.9 5.934 10.879 6.924 0 9.89-3.956 9.89-10.88 1.979-.988 1.979-4.945 1.979-8.9 0-7.913 0-18.792 1.978-28.682 6.923-39.56 27.692-68.242 66.264-82.088 19.78-6.923 40.55-9.89 60.33-13.846 27.692-6.923 55.384-9.89 82.088-14.836 6.923-1.978 17.802-1.978 20.769-12.857 3.956 1.978 6.923 3.956 10.88 5.934-13.847 6.923-27.693 11.868-38.572 18.792-30.66 16.813-52.418 42.527-77.143 66.264-2.968 5.934-2.968 13.846-2.968 19.78 0 2.967 4.946 6.923 7.913 6.923 1.978 0 6.923-3.956 8.9-6.923 3.957-3.956 3.957-8.901 6.924-12.857a315.434 315.434 0 0 0 25.714-25.715c21.758-21.758 48.462-44.505 81.1-49.45 14.835-2.967 29.67-2.967 47.472-4.946h68.242c3.956 0 8.901-1.978 13.846-3.956 3.956 0 6.923-.989 9.89-.989 4.945.99 9.89.99 11.869-5.934 3.956-4.945-1.978-7.912-6.924-11.868-9.89-6.923-19.78-12.857-30.659-19.78-2.967-1.978-4.945-4.945-7.912-6.923-5.934-3.956-10.88-3.956-13.846 1.978-5.934 4.945 0 7.912 2.967 11.868 6.923 4.945 11.868 10.88 18.791 16.813-.989 0-.989.99-.989 2.967H587.529c-3.956-4.945-7.912-9.89-12.857-13.846-4.945-2.967-10.879-5.934-17.802-7.912-27.692-16.813-56.374-25.714-89.011-30.66-4.945 0-11.868 0-13.846 6.924 0 7.912 4.945 9.89 11.868 9.89 6.923 1.978 13.846 3.956 20.769 3.956 19.78 4.945 37.583 11.868 55.385 21.758-8.901 2.967-15.824 6.923-24.726 7.912-24.725 3.956-51.428 6.923-76.154 12.857-20.769 2.967-41.538 7.913-59.34 13.847-5.935-5.934-10.88-8.902-15.825-12.858-24.725-9.89-50.44-13.846-75.165-16.813-8.901 0-19.78 1.978-27.692 2.967-3.956 0-6.923 5.934-6.923 8.901 0 4.945 4.945 6.923 9.89 6.923 8.9-1.978 17.802-1.978 25.714 0 13.846 0 25.715 3.957 37.583 4.946-1.978 5.934-4.945 8.9-6.923 10.879-16.814 9.89-33.627 22.747-51.43 31.648-24.725 15.824-47.472 33.627-64.285 57.363-12.857 14.835-24.725 31.648-24.725 53.407zm213.627 57.363c0-18.792 15.824-32.638 34.615-32.638 20.77-1.978 35.605 13.846 35.605 32.638 0 17.802-14.836 32.637-33.627 32.637-20.77 0-36.593-13.846-36.593-32.637zm133.517 17.802c-2.967-10.88-.99-15.824 10.879-17.802 20.769-2.967 41.538-6.924 61.319-8.902 11.868-.989 15.824 1.978 15.824 13.847-1.978 21.758-20.77 39.56-44.506 39.56-18.791 0-36.593-10.879-43.516-26.703zm55.384-149.341c2.967 3.956 7.913 3.956 11.869 0 2.967-1.978 4.945-4.945 6.923-6.923C610.277 455 617.2 446.1 626.1 439.177c36.594-22.747 80.11-36.593 127.583-33.626 8.901 0 17.802 3.956 25.714 4.945-14.835 6.923-30.66 12.857-44.505 18.791-19.78 9.89-33.627 27.693-47.473 44.506-5.934 5.934-1.978 12.857 4.945 12.857 4.945.989 9.89 0 13.846-6.923 16.813-27.693 42.528-41.539 73.187-48.462 16.813-3.956 34.616-5.934 44.506 13.846 3.956 4.945 8.901 4.945 11.868.99 5.934-2.968 5.934-7.913 1.978-11.869-4.945-10.879-15.824-17.802-25.714-19.78-6.923-1.978-10.88-4.945-11.868-11.868-1.979-12.857-8.902-20.77-20.77-27.693-4.945-3.956-11.868-5.934-16.813 0-1.978.99-1.978 7.912-1.978 13.847h-1.978c-52.418-5.935-100.88 7.912-143.407 36.593-11.868 6.923-22.748 20.77-30.66 33.627-.989.989-.989 7.912 0 9.89zm65.275 91.978c0-16.813 14.836-31.648 35.605-31.648 18.791 0 34.615 14.835 34.615 33.626 0 16.813-15.824 32.638-36.593 30.66-18.791 0-33.627-13.847-33.627-32.638z" style="fill:#000;fill-opacity:1;fill-rule:nonzero;stroke:none;"/>
</svg>
