<svg xmlns="http://www.w3.org/2000/svg" width="1000" height="1000">
  <path d="M5 500.496c0 271.98 220.55 494.507 495.496 494.507 271.98 0 494.507-220.55 494.507-495.496C995.003 227.528 773.464 5 500.496 5 226.54 5 5 225.55 5 500.496zm278.902 219.561c-10.88-65.275.99-123.626 45.495-172.088l10.879-11.868c2.967-2.967 9.89-5.934 14.835 0 6.923 4.945 10.88 10.879 15.824 14.835 5.934 5.934 5.934 10.879 0 14.835-15.824 16.813-27.692 36.594-34.615 59.341-24.726 63.297-13.846 120.66 30.66 173.077 31.648 36.594 72.197 54.396 117.692 59.341h19.78c49.45 0 95.935-18.791 130.55-55.384 25.714-26.704 43.517-62.308 47.473-101.869 4.945-45.495-10.88-86.044-39.56-122.638-.99-3.956-4.946-7.912-7.913-9.89-3.956-5.934-3.956-11.868 1.978-16.813.99-3.956 5.934-8.901 10.88-12.857 8.9-6.923 11.867-10.88 19.78 0 11.868 16.813 22.747 29.67 33.626 44.505 20.77 28.682 24.725 65.275 24.725 100.88 0 52.418-17.802 102.857-52.417 143.407-35.605 42.527-77.143 67.253-131.54 75.165-69.23 9.89-129.56-3.956-183.956-49.45-41.538-34.616-65.275-80.11-74.176-132.529zm3.956-263.077v-11.87c0-7.912 4.945-13.846 16.813-13.846h165.166c10.879 0 10.879 0 10.879-10.879V186.979c0-8.902 0-8.902-7.912-8.902H304.67c-11.868 0-16.813-3.956-16.813-15.824v-13.846c0-10.88 4.945-14.835 12.857-14.835h400.551c13.846 0 17.802 3.956 17.802 16.813v14.835c0 8.901-3.956 12.857-14.835 12.857H527.2c-5.935 0-6.924 2.968-6.924 6.924v235.385c0 10.88 0 10.88 9.89 10.88h173.078c11.868 0 15.824 5.933 15.824 17.801v13.847c0 10.879-3.956 14.835-14.835 14.835h-170.11c-5.934 0-6.923.989-6.923 7.912V617.2c0 1.978.989 7.912 4.945 8.901 29.67 6.923 43.516 40.55 39.56 70.22-3.956 28.681-26.703 54.396-55.385 60.33-33.626 6.923-68.242-13.846-78.132-47.473-9.89-32.637 4.945-69.23 35.605-84.066 8.9-.99 10.879-6.923 10.879-13.846a1330.059 1330.059 0 0 1 0-125.605c0-6.923-1.978-7.912-10.88-7.912H306.65c-13.846 0-18.79-2.967-18.79-20.77zm181.979 231.429c0 18.791 14.835 32.637 34.615 32.637 15.824 0 29.67-13.846 29.67-32.637 0-17.802-12.857-33.627-29.67-33.627-19.78 0-34.615 15.825-34.615 33.627z" style="fill:#000;fill-opacity:1;fill-rule:nonzero;stroke:none;"/>
</svg>
