<svg xmlns="http://www.w3.org/2000/svg" width="1000" height="1000">
  <path d="M504.342 183.646v165h-4.962c-3.722-4.963-12.406-9.925-17.368-14.888-16.128-18.608-31.015-34.736-48.384-50.864-1.24-1.24-3.721-8.684-3.721-12.406V5c3.721 2.481 8.684 4.962 13.646 9.925 81.88 69.473 161.278 145.15 243.157 214.623 8.685 9.925 13.647 14.887 22.331 19.85 2.481 4.962 4.963 11.165 4.963 13.646v437.932c0 8.684 3.721 17.368 3.721 24.812 0 1.24-3.721 4.962-3.721 7.443-115.376-96.767-231.992-191.052-347.368-290.3-3.722 7.444-3.722 9.925-3.722 11.166v244.397c0 2.482 3.722 8.685 4.963 11.166 40.94 34.737 79.398 69.473 121.578 102.97l3.722 3.721V641.427h2.481c3.722 3.722 8.684 6.203 12.406 11.165l64.511 54.587c2.482 2.48 3.722 8.684 3.722 11.165v271.69c0 1.242-1.24 1.242-1.24 4.963h-2.482l-119.097-102.97c-43.421-37.217-86.842-73.195-129.022-110.413-9.925-11.165-23.572-21.09-34.737-32.255-4.962-2.481-7.444-7.444-7.444-16.128V265.526C396.41 363.533 513.027 460.3 629.643 557.066c2.481-3.722 2.481-7.443 2.481-11.165V301.503c0-2.481-2.481-9.925-6.203-12.406-37.218-34.737-76.917-68.233-117.857-102.97-2.48 0-2.48 0-3.722-2.48z" style="fill:#000;fill-opacity:1;fill-rule:nonzero;stroke:none"/>
</svg>
