<svg xmlns="http://www.w3.org/2000/svg" viewBox="0 0 1000 1000"><path d="M503.1,15.015c266.6,2.167,482.521,220.736,481.059,484.3-1.54,277.631-233.835,490.626-498.746,482.457C230.22,973.9,9.994,756.317,17.346,481.568,24.145,227.494,243.362,12.905,503.1,15.015Zm21.343,917.59C704.684,933.9,944.268,773.9,938.479,489.5c-5.2-255.419-214.056-437.155-452.3-428.871-254.64,8.853-450.3,229.3-420.117,497.2C88.44,756.473,302.9,954.447,477.58,930.738V622.179c-17.991-9.624-35.224-16.636-49.97-27.138-45.955-32.73-61.284-96.238-37.169-148.051,23.784-51.1,79.3-78.877,133.948-67.009,55.678,12.091,91.583,52.321,98.329,110.171,5.593,47.964-26.056,99.914-76.188,120.175-18,7.274-23.828,15.858-23.392,35.44,1.664,74.581,1.073,149.213,1.292,223.826C524.49,889.931,524.44,910.27,524.44,932.605Zm52.312-434.263c-.23-41.714-34.839-75.968-76.493-75.712-41.814.257-76.222,34.764-76.181,76.4.039,40.294,36.5,76.416,76.827,76.105C542.186,574.817,576.981,539.588,576.752,498.342Z"/><path d="M174.886,459.487c-15.863-.2-31.431-15.332-31.88-31-.486-16.931,16.413-33.431,33.43-32.643,16.231.752,30.267,16.08,29.823,32.569C205.817,444.86,190.847,459.686,174.886,459.487Z"/><path d="M741.748,467.5c-.536,16.705-14.935,30.907-31.235,30.805a30.8,30.8,0,0,1-30.7-30.774c-.2-18.942,14.411-33.529,32.415-32.367A31.4,31.4,0,0,1,741.748,467.5Z"/><path d="M847.386,427.882c-.129,17.676-13.02,31.185-30.007,31.448-15.5.24-31.418-14.822-32.115-30.394-.743-16.609,15.928-33.386,32.783-32.993C834.954,396.337,847.517,410.013,847.386,427.882Z"/><path d="M280.426,435.068c16.291-.6,31.31,13.2,32.286,29.669,1.052,17.752-13.886,33.619-31.612,33.576-16.634-.04-30.219-13.981-30.378-31.174C250.566,450.24,264.061,435.67,280.426,435.068Z"/></svg>