<?xml version="1.0" encoding="UTF-8"?><svg id="a" xmlns="http://www.w3.org/2000/svg" viewBox="0 0 1000 1000"><path d="M795.673,339.875v263.272l-150.284-234.878-57.836,97.178,19.411,30.169h0l133.69,206.856-34.359,19.837-130.741-208.306-8.676-13.819-66.878,112.371,105.435,167.986-96.27,55.582c-5.671,3.274-12.658,3.274-18.328,0l-120.689-69.69,258.68-431.288-111.211-1.27-232.895,382.216-31.259-18.047,225.76-364.607-49.237-.562c-37.485-.428-72.562,18.428-92.882,49.929l-132.775,205.829v-248.759c0-6.548,3.493-12.599,9.164-15.873L490.836,163.877c5.671-3.274,12.658-3.274,18.328,0l277.344,160.125c5.671,3.274,9.164,9.325,9.164,15.873Zm204.327,160.125c0,276.142-223.858,500-500,500S0,776.142,0,500,223.858,0,500,0s500,223.858,500,500Zm-151.012-154.607c0-29.01-15.477-55.816-40.6-70.321L540.6,120.464c-25.123-14.505-56.076-14.505-81.2,0L191.612,275.072c-25.123,14.505-40.6,41.311-40.6,70.321v309.215c0,4.943,.483,9.813,1.353,14.578,4.235,23.201,18.404,43.71,39.247,55.743l33.299,19.225,.002-.003,31.595,18.242-.002,.003,86.209,49.773,116.684,67.368c25.123,14.505,56.077,14.505,81.2,0l267.788-154.607c25.123-14.505,40.6-41.311,40.6-70.321V345.393Z"/></svg>