<svg xmlns="http://www.w3.org/2000/svg" viewBox="0 0 1000 1000"><path d="M5 500.496c0 271.98 220.55 494.507 495.496 494.507 271.98 0 494.507-220.55 494.507-495.496C995.003 227.528 773.464 5 500.496 5 226.54 5 5 225.55 5 500.496zm130.55-43.516c-5.934-7.913-5.934-13.847 0-22.748 10.879-20.77 23.736-43.516 34.615-63.297l52.418-92.967c13.846-26.703 29.67-53.407 45.495-79.121 2.967-3.956 7.912-6.923 16.813-6.923 109.78 0 221.54-2.967 329.342-2.967h104.835c5.934 0 10.88 5.934 13.847 9.89 32.637 42.527 51.428 92.967 78.132 141.429 18.79 32.637 40.55 64.286 59.34 99.89 4.946 3.956 1.979 9.89-15.824 26.704-26.703 30.66-51.428 60.33-79.12 91.978-32.638 37.583-63.298 79.121-96.924 116.704-26.704 32.637-54.396 65.275-81.1 96.923-17.802 20.77-34.615 45.495-53.406 67.253-10.88 10.88-22.748 23.736-32.638 35.605-7.912 10.879-13.846 7.912-19.78 0-20.77-24.726-39.56-48.462-61.319-73.187-31.648-35.605-62.308-73.188-94.945-107.803-23.737-32.638-50.44-65.275-79.121-97.912-19.78-26.704-44.506-53.407-69.231-80.11-16.814-22.748-32.638-40.55-51.43-59.341zm70.22-52.418c-8.901 14.835-4.945 16.813 10.88 16.813h132.527c9.89 0 15.824-1.978 18.791-10.88 10.88-20.768 20.77-39.56 35.605-62.307 14.835-29.67 34.615-59.34 50.44-90.99 6.923-13.846 5.934-16.813-9.89-16.813-38.572 0-73.188 0-111.76-1.978-20.769 0-34.615 1.978-45.494 25.715-26.703 46.483-54.396 95.934-81.1 140.44zm16.813 82.088c13.846 15.824 26.704 29.67 39.56 45.495 5.935 7.912 10.88 13.846 16.814 21.758 2.967 3.956 2.967 4.945 7.912-1.978 13.846-24.725 29.67-49.45 43.517-79.121-38.572 0-74.176-.99-104.836-.99-11.868 0-8.9 8.902-2.967 14.836zm107.803 124.616c10.879 12.857 24.725 26.703 34.615 39.56 39.56 51.43 83.077 103.847 124.616 154.287 4.945 5.934 10.88 7.912 18.791 0-3.956 3.956 76.154-90 84.066-99.89 26.704-32.638 56.374-67.254 86.045-102.858 4.945-7.912 4.945-13.847 3.956-18.792-22.748-35.604-41.539-70.22-63.297-104.835-2.967-2.967-7.912-8.901-12.857-8.901H503.463l-102.857 2.967c-12.857 0-12.857 0-18.792 7.912-16.813 29.67-35.604 59.34-51.428 86.044-10.88 18.791-13.846 24.725 0 44.506zm87.033-189.891h167.143c-3.956-7.912-3.956-13.846-4.945-16.813-3.956-7.912-71.209-124.616-79.12-132.528-6.924 12.857-40.55 64.286-62.309 108.791-6.923 13.847-13.846 23.737-20.769 40.55zm139.451-151.32c25.714 45.495 54.396 93.957 79.121 143.408 2.967 5.934 10.88 7.912 15.824 7.912 20.77 2.967 43.517 0 67.253 0h65.275c15.825 0 18.792 0 10.88-16.813-29.671-50.44-57.363-102.858-87.034-153.297-5.934-7.913-12.857-10.88-20.77-10.88H573.684c-33.626 0-33.626 0-16.813 29.67zm111.759 202.749c14.835 26.703 28.681 50.44 44.505 75.165 5.934 7.912 9.89 3.956 16.813-1.978 12.858-14.835 43.517-53.407 56.374-73.187z"/></svg>