<svg xmlns="http://www.w3.org/2000/svg" viewBox="0 0 1000 1000"><path d="M500.496 5c272.968 0 494.507 221.54 494.507 495.002 0 270.495-218.572 495.001-495.001 495.001C229.506 995.003 5 776.431 5 500.002 5 229.506 223.572 5 500.496 5zM213.682 213.682c0 44.506 9.89 84.066 29.67 122.638 27.693 56.374 70.22 100.88 126.594 128.572 43.517 22.747 91.979 33.626 140.44 32.637 50.44-1.978 97.913-17.802 139.451-42.528 51.43-30.659 88.023-72.198 111.759-127.582 18.791-33.627 27.692-73.187 27.692-113.737 0-4.945 0-4.945-4.945-4.945h-74.176c-8.9 0-8.9 0-8.9 7.912-2.968 54.396-24.726 101.869-65.276 137.473-22.747 23.736-50.44 38.572-83.077 48.462-54.396 12.857-103.847 5.934-153.297-21.759-32.638-20.769-59.341-49.45-78.132-85.055-10.88-25.714-18.792-54.396-20.77-82.088 0-4.945 0-6.923-4.945-4.945h-77.143c-4.945 0-4.945 0-4.945 4.945zm1.978 425.276c0 2.967 1.978 4.945 4.945 4.945h561.76c2.967 0 4.945-1.978 4.945-4.945v-84.066c0-5.934 0-5.934-6.923-5.934H220.605c-4.945 0-4.945 0-4.945 5.934zm216.594 121.649c0 40.55 35.605 72.198 71.21 68.242 34.615 3.956 68.241-29.67 68.241-67.253 0-40.55-31.648-70.22-68.242-70.22-39.56 0-71.209 31.648-71.209 69.23zm0-483.628c0 39.56 31.649 69.23 71.21 69.23 36.593 0 68.241-29.67 68.241-69.23 0-38.572-30.66-68.242-68.242-68.242-39.56 0-71.209 29.67-71.209 68.242z"/></svg>