<svg xmlns="http://www.w3.org/2000/svg" width="1000" height="1000">
  <path d="M500.496 995.003c275.935 0 494.507-224.506 494.507-495.496C995.003 226.54 773.464 5 500.496 5 223.572 5 5 229.506 5 499.507c0 276.924 224.506 495.496 495.496 495.496zM283.902 264.122v-75.165h255.166v340.22c0 25.715-1.978 51.43-6.923 75.166-8.901 38.571-31.649 67.253-63.297 90-30.66 21.758-64.286 38.572-97.913 53.407-6.923 2.967-13.846 6.923-20.769 8.9-.989.99-3.956.99-4.945 0-16.813-20.768-30.66-43.516-39.56-68.241-.99 0 0 0 0-.99 4.944-2.966 10.879-5.933 16.813-8.9 27.692-11.868 55.384-24.726 82.088-41.539 20.77-14.835 38.571-32.637 43.516-59.34 1.978-12.858 3.956-25.715 3.956-38.572.99-90 0-180.99.99-271.98 0 0-.99-.988-.99-2.966zm128.572 551.87c1.978-.99 3.956-2.967 6.923-2.967 34.615-17.803 69.231-35.605 101.868-56.374 27.693-19.78 52.418-42.528 69.231-73.187 15.825-26.704 23.737-56.374 26.704-88.022 1.978-17.803 3.956-37.583 3.956-56.374V188.957h85.055c0 2.967.99 4.945.99 5.934v373.847c0 43.517-6.924 86.044-23.737 125.605-19.78 48.462-54.396 86.044-96.924 115.715-27.692 19.78-57.362 35.604-88.022 50.44-.989.988-3.956.988-4.945 0-26.703-13.847-53.407-28.682-80.11-43.517 0 0 0-.99-.99-.99z" style="fill:#000;fill-opacity:1;fill-rule:nonzero;stroke:none;"/>
</svg>
