<svg width="1000" height="1000" viewBox="0 0 1000 1000" fill="none" xmlns="http://www.w3.org/2000/svg">
<path fill-rule="evenodd" clip-rule="evenodd" d="M500 995C773.381 995 995 773.381 995 500C995 226.619 773.381 5 500 5C226.619 5 5 226.619 5 500C5 773.381 226.619 995 500 995ZM201 285.731L346.731 140H415.99C397.232 150.822 335.188 228.016 319.317 285.731H201ZM486.691 140V285.731H346.731C356.591 255.671 391.75 184.441 453.505 140H486.691ZM514.828 285.731H656.23C623.333 207.238 569.898 155.872 547.293 140H514.828V285.731ZM798.355 285.731H683.645C665.609 242.445 633 182.709 586.251 140H651.18L798.355 285.731ZM315.709 714.268H201L348.174 860H413.104C366.355 817.291 333.745 757.555 315.709 714.268ZM343.124 714.268H484.527V860H452.062C429.457 844.128 376.022 792.761 343.124 714.268ZM512.663 714.268L512.663 860H545.85C607.605 815.559 642.764 744.329 652.623 714.269L512.663 714.268ZM652.623 860L798.355 714.269H680.038C664.166 771.984 602.122 849.178 583.365 860H652.623ZM363.117 526.478L414.7 668.097H473.786L414.231 515.223C420.171 513.66 426.111 510.846 432.051 506.782C438.303 502.405 443.93 496.778 448.932 489.9C453.934 483.023 457.998 474.738 461.125 465.047C464.564 455.043 466.283 443.632 466.283 430.814C466.283 414.245 463.938 400.021 459.249 388.141C454.56 376.261 447.994 366.413 439.554 358.598C431.425 350.782 421.578 345.155 410.01 341.716C398.443 337.964 385.782 336.089 372.026 336.089H277.301V668.097H331.698V526.478H363.117ZM406.728 408.774C409.542 415.339 410.948 423.624 410.948 433.628C410.948 450.822 406.415 463.796 397.349 472.55C388.596 480.991 377.341 485.211 363.586 485.211H331.698V382.983H363.586C369.213 382.983 374.84 383.764 380.467 385.327C386.095 386.89 391.097 389.548 395.473 393.299C400.163 397.051 403.914 402.209 406.728 408.774ZM732.966 478.646C738.28 465.828 740.938 450.979 740.938 434.097C740.938 415.339 737.968 399.708 732.028 387.203C726.401 374.698 719.054 364.694 709.988 357.191C701.234 349.375 691.23 343.904 679.976 340.778C668.721 337.652 657.779 336.089 647.15 336.089H555.238V668.097H610.573V534.918H649.964C661.531 534.918 672.785 532.886 683.727 528.822C694.669 524.758 704.361 518.506 712.801 510.065C721.242 501.624 727.964 491.151 732.966 478.646ZM674.818 395.644C683.258 403.772 687.479 416.746 687.479 434.566C687.479 452.385 683.258 465.985 674.818 475.363C666.377 484.429 655.591 488.962 642.461 488.962H610.573V383.451H642.461C655.591 383.451 666.377 387.516 674.818 395.644Z" fill="black"/>
</svg>
