<svg xmlns="http://www.w3.org/2000/svg" width="1000" height="1000">
  <path d="m331.086 149.61 9.86 8.765c30.675 42.725 61.35 82.165 93.12 122.7L690.42 622.88l94.215 123.795c7.67 8.764 5.478 12.05 0 16.433l-108.457 83.26c-8.765 6.574-12.051 6.574-19.72-2.19-79.974-109.554-163.234-219.107-244.304-327.565-66.827-85.452-128.177-170.903-193.91-253.068-10.954-17.529-10.954-17.529 3.288-28.484 33.961-25.197 64.636-51.49 95.31-76.687 6.574-3.287 9.86-3.287 14.243-8.765zm-75.592 556.531c-6.573-9.86-6.573-16.433 2.191-21.91 37.248-25.198 71.21-53.682 105.171-79.974 3.287-2.192 6.573-2.192 10.956-5.478 3.286 3.286 6.573 5.478 9.86 9.86 47.107 64.636 96.406 125.986 144.61 189.527 21.91 31.77 44.917 60.254 67.923 90.93 5.477 8.763 5.477 14.241-3.287 23.005-33.961 26.293-66.827 50.395-101.884 76.688-7.67 8.764-14.242 8.764-21.911-3.287a30974.783 30974.783 0 0 0-213.629-279.36zm144.61-593.779c-5.477-7.668-5.477-14.242 2.191-19.72 38.344-25.197 71.21-51.49 105.172-79.973 4.382-2.191 8.764-2.191 12.05-7.669 2.192 5.478 8.765 7.669 10.956 10.955L658.65 186.858l85.452 110.65c5.477 8.764 5.477 14.241-2.191 19.719-37.248 25.197-71.21 53.681-106.267 82.165-7.669 5.478-14.242 3.286-19.72-2.191-71.21-97.503-142.419-190.623-215.82-284.839z" style="fill:#000;fill-opacity:1;fill-rule:nonzero;stroke:none;"/>
</svg>
