<svg xmlns="http://www.w3.org/2000/svg" viewBox="0 0 1000 1000"><path d="M533.354,132.751C637.21,154.512,721.285,246.5,731.176,352.334c0,.989-1.978,1.978-4.946,6.923-18.793-7.913-39.564-15.825-59.346-23.738-48.467-19.783-97.922-26.706-148.367-9.891-15.826,5.934-32.64,14.836-45.5,25.716-59.346,52.423-74.183,127.6-44.51,208.7,35.608,99.9,114.737,138.475,212.659,149.355,82.1,8.9,148.366-25.717,206.724-79.129,28.684-26.706,55.39-56.379,83.085-85.063-7.913,69.238-106.824,181.007-196.833,214.637,40.554,6.924,64.292-2.968,183.975-76.162-5.935,12.859-7.913,20.772-13.848,25.717-60.336,62.314-133.53,97.922-221.561,100.889-61.324,2.968-120.671-2.967-175.072-30.662-18.793-9.891-16.815,12.858-26.706,7.913-12.858-4.946-24.728-10.88-36.6-16.815C341.467,718.3,282.12,633.241,254.425,524.439c-3.957-15.826-3.957-32.641-5.935-55.391-30.662,76.162-9.891,143.421,8.9,210.681-69.237-95.944-78.139-195.844-20.771-309.592-9.891,6.924-12.859,7.913-14.837,9.892A73.813,73.813,0,0,0,214.86,391.9c-25.716,45.5-47.477,91.987-56.379,144.41-14.836,87.042,7.913,162.214,64.292,227.5,23.739,27.7,53.412,51.434,81.107,76.162,5.935,5.934,11.87,11.869,22.75,21.76-95.944-37.586-199.8-158.257-214.637-285.853-5.935,32.641-5.935,57.369.989,83.086,4.946,23.738,7.913,48.466,9.891,73.194a388.975,388.975,0,0,1-50.444-154.3c-.989-12.859-.989-99.9,0-108.8C84.3,328.6,150.568,224.738,280.142,165.392,319.706,146.6,440.378,113.958,533.354,132.751ZM500.713,5.156C223.762,5.156,5.169,229.684,5.169,499.711c0,276.951,224.528,495.544,495.544,495.544,275.962,0,494.555-224.528,494.555-495.544C995.268,226.717,773.708,5.156,500.713,5.156Z"/></svg>