<svg xmlns="http://www.w3.org/2000/svg" width="1000" height="1000">
  <path d="M5 807.332V192.669c0-6.326 4.217-10.543 10.543-10.543h192.939c133.897 0 227.73 42.172 227.73 185.558 0 90.671-47.443 149.712-123.354 176.07-7.38 2.109-8.434 7.38-5.271 13.706l145.495 247.763c4.217 7.38 1.054 12.652-7.38 12.652h-89.617c-5.271 0-10.543-3.163-12.652-7.38L208.482 566.948c-2.109-4.217-7.38-7.38-12.652-7.38h-83.29c-6.326 0-10.544 4.217-10.544 10.543v237.22c0 6.325-4.217 10.543-10.543 10.543h-75.91C9.217 817.875 5 813.657 5 807.332zm96.996-340.543c0 6.326 4.218 10.544 10.544 10.544h88.562c91.725 0 141.277-35.847 141.277-109.649 0-81.182-49.552-111.756-141.277-111.756H112.54c-6.326 0-10.544 4.217-10.544 10.543zm443.865 340.543V192.669c0-6.326 4.217-10.543 10.543-10.543h101.214c5.271 0 10.543 3.163 12.651 8.434l93.834 294.153c3.163 10.543 10.543 10.543 13.706 0l85.4-294.153c2.108-5.271 5.27-8.434 11.597-8.434h109.648c6.326 0 10.543 4.217 10.543 10.543v614.663c0 6.325-4.217 10.543-10.543 10.543h-63.259c-6.326 0-10.543-4.218-10.543-10.543v-481.82c0-9.489-8.434-9.489-11.597-1.054l-98.051 312.075c-2.109 5.272-7.38 8.435-12.652 8.435H746.18c-5.272 0-10.543-3.163-12.652-8.435L638.64 325.512c-2.108-8.435-12.652-7.38-12.652 2.109 1.055 62.204 4.218 150.766 4.218 200.318v279.393c0 6.325-4.218 10.543-10.543 10.543h-63.259c-6.326 0-10.543-4.218-10.543-10.543z" style="fill:#000;fill-opacity:1;fill-rule:nonzero;stroke:none;"/>
</svg>
