<svg xmlns="http://www.w3.org/2000/svg" viewBox="0 0 1000 1000"><path d="M501.364 6.452c274.334 0 498.673 224.339 493.545 508.928C989.78 776.895 764.16 994.824 492.39 993.542 225.747 992.261-3.72 764.076 5.254 478.204 12.946 224.381 229.594 6.452 501.364 6.452zM48.84 502.56c0 249.978 208.956 448.678 452.524 443.55 239.722-5.128 453.805-198.7 447.395-453.805-6.41-235.877-194.854-443.55-452.523-443.55-246.132 0-447.396 196.136-447.396 453.805zm152.55-37.176 16.666-56.405 39.74-120.502c5.128-15.383 10.255-17.947 19.229-17.947 66.66 0 133.321 2.564 202.546 2.564 35.894 0 67.942-14.102 97.427-30.767 20.51-11.537 32.048-25.639 48.713-32.048l5.128 3.845-34.612 56.406h205.11c19.229 0 19.229 2.564 12.819 23.075l-47.432 156.396c-5.127 15.383-8.973 15.383-19.229 15.383H637.25c-28.203 0-41.022 8.973-47.432 34.612l-69.224 289.718c-2.564 11.537-3.846 15.383-17.948 15.383h-198.7l-12.819-3.846 39.74-115.374c-26.92 12.82-53.841 35.894-78.198 53.841l-2.564-5.128 30.767-48.713 83.325-123.066c7.692-11.537 14.102-24.357 17.948-39.74l15.383-57.687zm43.586-35.894h85.89l-41.022-20.511 143.577-97.427-115.374-3.846c-41.022-1.282-28.203-3.846-42.304 32.048l-7.692 19.23zm105.12 334.585h117.937c15.383 0 19.23-5.128 21.793-14.101l21.793-85.89 26.92-108.965-6.409 3.846-139.731 106.4c-33.33 25.64-29.485 56.406-42.304 98.71zm8.973-142.295c83.326-56.405 156.396-116.656 237.158-175.625l-94.863-37.176c-16.666-6.41-10.256-14.102-8.974-26.92 1.282-8.974 10.256-17.948 14.101-23.076l41.022-60.25-5.128-5.128-167.933 111.528 17.947 7.692 64.097 37.176c11.537 6.41 16.665 10.255 8.973 20.51l-64.096 88.454zM552.64 391.033l67.943 21.793c30.766 10.255 67.942 19.229 102.554 19.229 3.846 0 16.666-2.564 17.948-7.692l34.612-112.81H606.482c-2.564 0-3.846 0-6.41 5.127z"/></svg>