<svg xmlns="http://www.w3.org/2000/svg" width="1000" height="1000">
  <path d="M5 494.197c45.264-76.6 90.527-154.361 133.47-229.8 10.445-12.768 15.088-24.374 25.533-38.301 9.285 4.642 15.088 9.285 20.891 13.927 77.761 78.922 159.004 156.683 241.407 239.086 15.088 19.73 15.088 29.015 0 42.943-77.76 80.082-159.003 154.36-236.764 234.443-20.891 17.409-20.891 17.409-40.622-4.643C103.652 670.61 54.906 587.046 5 508.124zm241.407 429.426c11.606-10.446 16.248-19.73 20.89-26.694 76.6-67.316 145.077-135.792 217.035-206.589 10.445-9.285 20.89-19.73 30.176-4.642 76.6 75.44 149.718 154.36 222.837 227.48 4.642 0 4.642 4.642 4.642 10.445zm11.606-847.246H746.63c-9.285 10.446-11.606 20.891-16.249 25.534-76.6 68.476-145.076 138.112-220.516 207.749-9.285 9.285-15.088 19.73-27.854 4.642-76.6-74.279-143.916-149.718-219.356-221.676-4.642-5.803-4.642-11.606-4.642-16.249zm322.65 445.675c-25.534-18.57-25.534-18.57 0-42.943 78.92-82.403 156.682-160.164 237.924-239.086 4.643-4.642 9.285-9.285 19.73-18.57C891.707 314.303 941.613 403.67 995 494.197v13.927c-48.745 78.922-94.01 156.683-141.594 239.086-20.891 31.336-20.891 31.336-45.264 4.642-77.76-75.44-154.361-149.718-227.48-229.8z" style="fill:#000;fill-opacity:1;fill-rule:nonzero;stroke:none;"/>
</svg>
