<svg xmlns="http://www.w3.org/2000/svg" width="1000" height="1000">
  <path d="M16.973 714.676C24.15 622.565 76.785 388.1 131.813 142.87 144.97 44.778 228.707-7.856 320.818 7.695c177.044 37.083 351.696 69.382 527.544 110.054 104.074 25.121 149.53 104.074 130.391 206.95-32.299 174.652-71.775 350.5-110.055 534.722-20.336 104.074-106.465 154.316-210.539 129.195-160.297-34.691-324.182-70.579-486.871-105.27-88.523-19.14-154.316-86.13-154.316-168.67zM51.664 675.2c-20.336 98.092 15.551 163.885 114.84 184.221 167.474 29.906 331.36 69.382 501.226 104.074 94.504 25.12 161.493-20.337 180.633-119.625 25.121-114.84 43.065-234.464 69.382-349.303 14.355-72.971 34.692-138.765 39.477-187.811 4.785-76.56-33.495-139.96-83.738-154.316C799.317 133.3 572.031 87.843 339.96 34.012 235.886 12.48 180.86 51.956 152.15 157.225 115.065 331.877 81.57 499.351 51.664 675.2zm172.26 34.69c22.728-49.045 180.632-190.202 284.706-313.416 14.355-13.158 20.336-19.14 39.476-40.672l-218.913-49.046c-27.514-7.177-33.495-14.355-27.514-34.691 19.14-96.896 8.374-89.718 96.896-70.579 118.428 25.122 228.483 51.439 339.734 70.579 27.513 2.392 44.26 26.317 29.906 40.672-98.092 101.681-233.268 240.446-284.706 291.884-15.552 13.159-19.14 19.14-23.925 29.906 38.28 14.355 69.382 20.336 94.503 28.71 39.476 7.178 78.952 20.336 118.428 26.317 26.318 4.785 31.103 20.337 26.318 39.477-20.337 95.7-14.355 78.952-96.896 64.597-96.896-15.551-330.164-63.401-378.014-83.737z" style="fill:#000;fill-opacity:1;fill-rule:nonzero;stroke:none;"/>
</svg>
