<svg xmlns="http://www.w3.org/2000/svg" viewBox="0 0 1000 1000"><path d="M23.097 124.76v-4.26h21.29c57.484 0 109.645 0 167.129-3.193 18.096 0 25.548 7.451 30.87 20.226 83.032 150.096 168.193 300.192 252.29 449.224 4.258 14.903 11.71 24.484 17.032 36.193 25.548-48.967 48.968-92.612 70.258-141.58 57.484-114.967 113.903-227.806 167.128-343.837 8.517-12.775 12.775-20.226 30.871-20.226 57.484 3.193 119.226 3.193 180.968 3.193h17.032c5.322 0 5.322 4.258 5.322 4.258-5.322 4.258-14.903 12.775-19.16 12.775-12.775 6.387-26.614 6.387-38.323 10.645-54.29 18.096-71.323 43.645-71.323 91.548 4.258 142.644 8.516 287.418 8.516 427.934 0 30.87 5.323 56.42 5.323 87.29 0 70.258 21.29 95.806 92.613 109.645 13.838 4.258 22.354 10.645 34.064 12.774l-4.258 5.322H643.708v-5.322c4.258-2.13 12.774-8.516 21.29-8.516 89.419-25.548 96.87-39.387 96.87-132-4.257-180.967-7.451-359.805-7.451-541.837v-12.774c-9.58 4.258-9.58 9.58-14.903 12.774C670.321 336.596 598.998 481.37 528.74 622.95c-4.258 13.839-4.258 21.29 3.194 34.065 20.226 37.258 41.516 75.58 57.484 111.774 5.322 4.258 5.322 8.516 5.322 18.096-5.322-5.322-12.774-5.322-15.968-9.58-26.612-26.613-67.064-40.452-102.193-44.71-9.58 0-22.355-3.193-26.613-12.774-92.612-171.387-185.225-342.773-282.096-512.03 0 0 0-3.194-5.322-3.194v12.774c-4.258 168.193-8.516 336.386-8.516 502.45-4.258 22.355 0 42.58 4.258 61.742 9.58 47.903 36.193 74.516 84.096 83.032 13.84 0 26.613 4.258 40.452 10.645v7.451H5v-5.322c5.323-2.13 13.839-8.516 18.097-8.516 70.258-12.774 106.451-51.097 109.645-136.258 4.258-168.193 9.58-333.192 12.774-501.385 0-44.71-21.29-70.258-60.678-83.032-12.774-4.258-29.806-4.258-45.774-10.645-7.451 0-10.645-8.517-15.967-12.775z"/></svg>