<svg xmlns="http://www.w3.org/2000/svg" width="1000" height="1000">
  <path d="M499.507 995.003h.99c89.01 0 172.088-22.45 249.23-67.253 74.474-44.209 133.814-103.55 178.023-178.022 44.803-77.143 67.253-160.418 67.253-249.726 0-89.308-22.45-172.583-67.253-249.726-44.209-74.473-103.55-133.814-178.022-178.023C672.585 27.45 589.31 5 500.002 5c-89.308 0-172.583 22.45-249.726 67.253-74.473 44.209-133.814 103.55-178.023 178.023C27.451 327.419 5 410.694 5 500.002c0 89.308 22.45 172.583 67.253 249.726C116.462 824.2 175.803 883.54 250.276 927.75c77.143 44.803 160.22 67.253 249.231 67.253zM283.902 309.616c0-7.912 4.945-13.846 8.901-13.846 7.912 0 10.88 5.934 10.88 13.846 0 6.923-3.957 11.869-10.88 11.869-5.934 0-8.901-3.957-8.901-11.869zm24.725 33.627c0-8.901 0-11.868 5.934-18.791 5.935-4.945 6.924-18.792 3.957-24.726-3.957-5.934-3.957-3.956 1.978-11.868 11.868-14.835 119.67-127.583 130.55-136.484 12.857-9.89 15.824-8.901 15.824 6.923 0 120.66.989 183.957 1.978 232.419 0 10.879-2.967 15.824-9.89 20.769-12.858 9.89-12.858 24.725 0 35.604 7.912 5.934 9.89 9.89 9.89 17.803 0 111.758-.99 223.517 3.956 334.286 0 23.737 0 33.627-.99 43.517 0 6.923-12.856-10.88-14.834-15.824-5.935-4.945-93.957-129.561-96.924-134.506 2.967-11.868 0-19.78-3.956-25.714-2.967-2.968-3.956-3.957-9.89-6.924-5.934-15.824-37.583-298.682-37.583-316.484zm13.847 337.254c0-7.912 4.945-12.857 13.846-12.857 6.923 0 9.89 6.923 9.89 12.857 0 9.89-4.945 13.846-12.857 13.846-5.934 0-10.88-5.934-10.88-13.846zm141.429-559.782c0-6.923 5.934-11.869 9.89-11.869 6.923 0 11.868 4.946 11.868 11.869 0 7.912-3.956 13.846-10.88 13.846-6.922 0-10.878-4.945-10.878-13.846zm4.945 306.594c0-8.901 6.923-12.857 11.868-12.857 7.912 0 12.857 3.956 12.857 14.835 0 7.912-5.934 12.857-11.868 12.857-6.923 0-12.857-3.956-12.857-14.835zm2.967 442.09c0-7.913 2.967-12.858 8.9-12.858 7.913 0 12.858 4.945 12.858 12.857 0 6.924-5.934 10.88-12.857 10.88-3.956 0-8.901-5.934-8.901-10.88zm21.758-720.003c0-4.945-1.978-18.791 4.945-18.791 7.912 0 193.847 131.539 216.594 153.297 11.868 11.868 9.89 8.901-.989 13.846-38.571 19.78-134.506 63.297-180.99 86.044-1.977.99-23.736 10.88-29.67 12.858-7.912 3.956-6.923 5.934-6.923-6.923v-8.902c-2.967-78.132-2.967-154.286-2.967-231.429zm.99 694.288V541.046c0-28.682 0-66.264.988-81.1.99-3.955 187.913 185.935 198.792 196.814.989.99 16.813 19.78 20.77 26.704 2.966 2.967-6.924 20.77-16.814 27.692-27.692 23.737-157.253 125.605-181.979 144.396-10.879 11.868-21.758.99-21.758-11.868zM508.407 437.2c-4.945-4.945-.989-12.857 3.956-15.824 48.462-18.791 172.089-78.132 208.682-96.923 11.869-5.934 18.792 0 18.792 12.857 0 32.637-9.89 315.495-10.88 315.495-23.736-23.736-184.945-175.055-220.55-215.605zm214.616 253.188c0-7.912 4.945-12.857 10.88-12.857 8.9 0 11.868 5.934 11.868 12.857 0 8.901-3.956 13.846-13.846 13.846-4.946 0-8.902-4.945-8.902-13.846zm8.902-387.694c0-4.945 1.978-9.89 9.89-9.89 6.923 0 10.879 4.945 10.879 9.89 0 7.912-3.956 11.868-10.88 11.868-6.922 0-9.89-5.934-9.89-11.868z" style="fill:#000;fill-opacity:1;fill-rule:nonzero;stroke:none;"/>
</svg>
