<svg xmlns="http://www.w3.org/2000/svg" width="1000" height="1000">
  <path d="M500.496 5C223.572 5 5 229.506 5 500.002c0 276.43 224.506 495.001 495.002 495.001 276.43 0 495.001-224.506 495.001-495.001C995.003 226.539 773.464 5 500.496 5zM177.088 356.1c-5.934-39.56 10.88-65.275 46.484-82.088 183.957-84.066 366.924-84.066 549.892-4.945 35.605 14.835 55.385 41.538 52.418 94.945-10.88 129.561-63.297 260.11-160.22 369.892-37.583 34.615-75.166 68.242-114.726 99.89-29.67 26.703-66.264 23.736-98.902 0C289.836 717.09 197.858 556.87 177.088 356.1zm207.693 234.396c0 20.77 8.902 24.726 25.715 24.726 81.099-7.912 157.253-26.704 228.462-72.198 12.857-8.901 22.748-16.813 39.56-29.67-56.373-85.056-127.582-149.342-220.55-189.891-5.934 0-14.835 2.967-16.813 9.89-47.472 83.077-66.264 167.143-56.374 257.143z" style="fill:#000;fill-opacity:1;fill-rule:nonzero;stroke:none;"/>
</svg>
