<?xml version="1.0" encoding="utf-8"?>
<!-- Generator: Adobe Illustrator 26.0.1, SVG Export Plug-In . SVG Version: 6.00 Build 0)  -->
<svg version="1.1" xmlns="http://www.w3.org/2000/svg" xmlns:xlink="http://www.w3.org/1999/xlink" x="0px" y="0px"
	 viewBox="0 0 1000 1000" style="enable-background:new 0 0 1000 1000;" xml:space="preserve">
<g id="Layer_1">
</g>
<g id="Layer_3">
</g>
<g id="Layer_2">
	<path d="M853.6,146.4C759.1,52,633.6,0,500,0S240.9,52,146.4,146.4S0,366.4,0,500s52,259.1,146.4,353.6
		C240.9,948,366.4,1000,500,1000c133.6,0,259.1-52,353.6-146.4C948,759.1,1000,633.6,1000,500C1000,366.4,948,240.9,853.6,146.4z
		 M648.1,758.1H510.6V638L337.3,499.3L500,214.6l259.6,454.2L648.1,758.1z M770.2,687.4l40.4,70.6H682L770.2,687.4z M241.9,666.3
		L326.7,518l162.7,130.3v109.8H354.6L241.9,666.3z M321.1,758.1H189.5l41.8-73.1L321.1,758.1z M181.8,402l128.1,102.6l-84.7,148.2
		l-43.5-35.4V402z M489.4,779.3v88.6l-108.8-88.6H489.4z M510.6,779.3h111l-111,88.8V779.3z M690.1,504.6L818.2,402v219.9
		l-41.9,33.5L690.1,504.6z M679.4,485.9L500,171.9l-179.4,314L188.1,380L500,130.4L811.9,380L679.4,485.9z M838.6,838.6
		C748.1,929,627.9,978.8,500,978.8S251.9,929,161.4,838.6C71,748.1,21.2,627.9,21.2,500c0-127.9,49.8-248.1,140.2-338.6
		C249.4,73.5,365.5,24,489.4,21.3v90.4L160.6,374.9v252.5l54,44l-61.7,107.9h194.1l152.9,124.5l155.6-124.5h191.6L786.9,674l52.5-42
		V374.9L510.6,111.7V21.3c123.9,2.7,240,52.2,328,140.1C929,251.9,978.8,372.1,978.8,500S929,748.1,838.6,838.6z"/>
</g>
</svg>
