<svg xmlns="http://www.w3.org/2000/svg" viewBox="0 0 1000 1000"><path d="M703.167 60.196c62.241 36.405 109.216 82.206 144.448 144.448 35.23 61.067 54.02 129.18 54.02 201.992 0 72.811-17.615 140.925-54.02 203.167-35.232 59.893-82.207 108.042-144.448 144.448-62.242 36.405-129.181 54.02-201.993 54.02-50.498 0-96.298-7.046-142.099-23.487-43.452-15.267-84.555-42.277-119.786-71.637v281.85H98.364V406.636c0-72.811 18.79-140.925 55.196-201.992 36.405-62.242 83.38-109.217 144.448-144.448C360.249 23.79 428.363 5 501.174 5c72.812 0 139.75 18.79 201.993 55.196zm-463.878 346.44c0 48.15 10.57 92.775 34.057 131.53 23.487 38.754 56.37 71.637 96.298 93.95 39.93 22.313 84.555 35.23 131.53 35.23 46.975 0 90.427-10.569 130.356-35.23 39.929-24.662 71.637-54.022 96.298-93.95 23.488-37.58 35.232-83.38 35.232-131.53 0-46.975-12.918-90.427-35.231-129.181-23.488-41.103-55.196-72.811-96.3-97.473-38.754-23.488-83.38-35.232-130.355-35.232-48.149 0-91.6 12.919-131.53 35.232-39.928 22.313-71.636 56.37-95.124 97.473-22.313 38.754-35.231 82.206-35.231 129.18z"/></svg>