<svg xmlns="http://www.w3.org/2000/svg" width="1000" height="1000">
  <path d="M419.219 80.857c7.402-57.982 59.215-93.758 124.6-66.618 17.271 13.57 32.075 30.842 34.542 53.048 0 24.673 13.57 30.841 32.076 41.944 57.982 34.543 120.899 69.086 181.348 104.862 13.57 8.636 23.44 8.636 40.711 4.935 25.907-13.57 54.282-9.87 75.254 8.635 44.412 30.842 40.71 97.46 4.935 124.6-12.337 8.636-17.272 18.505-17.272 34.543V613.8c0 13.57 4.935 22.206 17.272 30.842 30.841 27.14 35.776 71.553 17.27 102.394-17.27 34.543-65.383 53.048-97.459 34.543-13.57-7.402-27.14-3.701-40.71 0-60.45 41.944-128.302 76.487-189.985 115.964-12.337 4.935-18.505 13.57-23.44 27.141-7.402 44.412-34.542 70.319-78.954 70.319-38.244 0-69.085-25.907-80.188-70.319 0-13.57-8.636-22.206-22.206-32.075-61.684-34.543-128.302-69.086-189.985-106.095-13.57-8.636-22.206-8.636-37.01-4.935-30.841 13.57-56.748 9.87-83.89-12.337-33.308-39.477-33.308-69.085 9.87-129.535 4.935-8.635 12.337-17.271 12.337-25.907V386.806c0-8.636-3.701-16.038-7.402-25.907-32.075-23.44-45.646-56.749-40.711-87.59 13.57-54.281 57.982-71.553 120.9-54.281 3.7 3.7 12.336 3.7 20.971 0 66.618-40.711 133.236-75.254 199.854-114.731 4.935-6.169 12.337-12.337 17.272-23.44zM82.428 311.552c8.636 35.777 44.412 54.282 80.188 40.711 13.57-4.934 27.14-4.934 39.477 0 35.777 20.973 70.32 44.412 112.264 67.852 8.636 2.467 12.337 7.402 3.701 20.972-32.075 39.478-37.01 78.955-14.804 128.301 6.168 9.87 0 17.272-6.168 22.206-32.076 18.505-59.216 30.842-85.123 48.113-18.505 8.636-30.842 13.57-54.281 4.935-22.206-8.636-53.048 3.701-71.553 27.14-12.337 18.506-12.337 53.048 0 71.553 18.505 25.907 45.646 34.543 76.487 25.907 27.14-8.635 35.776-30.841 44.412-53.047 0-13.57 4.935-22.206 17.271-30.842 35.777-19.739 75.254-40.711 111.03-62.917 4.935-4.935 13.57-4.935 22.206-4.935 23.44 9.87 49.347 13.57 75.254 9.87 28.374-4.935 45.645 12.336 45.645 38.243v162.844c0 16.038-4.934 25.907-17.27 38.244-24.674 13.57-28.375 44.412-18.506 71.552 8.636 27.141 35.776 39.478 56.749 39.478 30.841 0 53.047-18.505 61.683-44.412 9.87-25.907 0-48.113-20.972-66.618-4.935-8.636-13.57-17.272-13.57-25.907V664.38c0-6.169 3.7-16.038 8.635-19.739 17.271-4.935 35.776-13.57 56.749-4.935 23.44 4.935 45.645 4.935 66.618-3.7 14.804-4.935 23.44-4.935 35.776 0 28.374 17.27 49.346 29.607 76.487 43.178 18.505 11.103 25.907 23.44 25.907 41.944 8.636 39.478 53.048 60.45 90.058 43.179 30.841-13.57 43.178-43.179 34.542-78.955-13.57-32.075-44.412-49.347-80.188-37.01-18.505 4.935-35.776 0-51.814-8.636-18.505-12.336-40.71-25.907-64.15-34.542-13.57-8.636-17.272-18.505-17.272-35.777 8.636-20.972 0-49.346-13.57-67.851-12.337-12.337-20.972-29.608-30.842-43.178-8.635-17.272-8.635-22.206 9.87-30.842 38.243-22.206 80.188-43.178 118.431-71.553 18.505-8.635 30.842-13.57 49.347-3.7 23.44 13.57 45.646 3.7 61.683-14.805 18.505-16.037 27.14-33.309 18.505-60.45-8.635-32.074-34.542-54.28-67.851-49.346-30.842 0-51.814 23.44-56.749 57.982 0 8.636-4.935 18.505-12.337 25.907-48.113 25.907-94.992 54.282-143.105 80.189-8.635 4.934-16.037 4.934-25.907-4.935-17.271-16.038-39.477-25.907-67.851-30.842-17.272 0-20.973-13.57-20.973-30.841v-151.74c0-16.038 3.701-29.608 17.272-43.178 27.14-20.973 27.14-62.917 3.7-88.824-25.906-27.14-69.085-27.14-96.225 0-20.972 22.206-18.505 70.319 9.87 93.758 12.336 8.636 17.27 22.206 17.27 38.244v164.077c0 9.87-4.934 18.505-9.869 23.44-17.271 12.337-35.776 25.907-54.281 35.776-17.271 4.935-33.31 4.935-51.814-4.934-39.477-20.973-81.422-44.412-115.965-66.618-27.14-13.57-39.477-25.907-44.412-51.814-8.635-33.31-44.411-50.58-75.253-45.646C86.129 240 70.09 277.01 82.428 311.553zm39.477 396.007c0-9.87 9.87-17.271 17.272-17.271 13.57 0 18.505 7.402 18.505 17.27 0 8.637-3.701 18.506-18.505 18.506-8.636 0-17.272-4.935-17.272-18.505zm0-413.278c0-8.636 9.87-17.271 17.272-17.271 17.27-3.701 18.505 4.934 18.505 17.271 0 23.44-35.777 18.505-35.777 0zm213.424 249.2c-17.271-49.346 9.87-102.394 57.983-111.03 25.907-9.869 49.346-17.27 75.253-30.841 13.57-9.87 30.842-14.804 49.347-17.271 48.113 2.467 92.525 35.776 109.796 78.954 4.935 12.337 13.57 25.907 23.44 38.244 22.206 23.44 30.841 55.515 12.336 81.422-17.271 27.14-43.178 34.542-80.188 27.14-7.402-4.934-17.271-4.934-25.907 0-30.842 3.701-66.618 3.701-96.226-9.869-9.87-3.7-24.673-3.7-30.841-3.7-41.945 8.635-81.422-13.571-94.993-53.049zm146.806 371.334c4.935-7.402 12.337-17.272 17.272-17.272 9.87 0 13.57 9.87 22.206 13.57v8.636c-8.636 4.935-12.337 8.636-22.206 13.57-8.636 0-17.272-8.635-17.272-18.504zm0-829.023c0-13.57 8.636-18.505 17.272-18.505 13.57 0 18.505 4.934 18.505 18.505 0 7.402-8.636 18.505-18.505 18.505-8.636 0-17.272-11.103-17.272-18.505zm358.997 621.767c0-13.57 8.636-17.271 17.271-17.271 11.103 0 18.505 12.336 18.505 17.27 0 8.637-7.402 13.571-12.336 22.207h-11.103c-3.701-8.636-7.402-13.57-12.337-22.206zm3.701-418.213c0-6.168 8.636-12.336 13.57-12.336 9.87 0 17.272 4.934 18.505 14.804-1.233 7.402-2.467 11.103-13.57 16.037-9.87 2.468-18.505-3.7-18.505-18.505z" style="fill:#000;fill-opacity:1;fill-rule:nonzero;stroke:none;"/>
</svg>
