<svg xmlns="http://www.w3.org/2000/svg" viewBox="0 0 1000 1000"><path d="M5 146.076v711.597c0 13.364 6.682 30.068 25.613 30.068 55.681 0 116.93 0 177.065-5.568 48.999 0 80.18-40.09 83.52-90.203V540.294c0-40.09-8.908-55.68-43.43-67.93-8.91-5.568-8.91-11.136 0-21.159 28.954-18.931 40.09-50.112 40.09-82.407 0-54.567 0-108.02-5.568-163.7 0-55.681-31.182-89.09-89.09-89.09-48.998-5.568-106.906-5.568-155.905-5.568C11.682 110.44 5 119.35 5 146.076zm81.294 37.863c0-4.455 0-7.796 5.568-7.796 40.09 0 85.748 3.341 85.748 28.954 0 64.59 5.568 129.18 0 195.996 0 31.181-24.5 40.09-55.68 26.727-4.455 0-7.796-11.137-7.796-22.273 0-55.68 3.341-121.383 3.341-181.518 0-18.932 0-44.545-31.181-40.09zm27.84 316.265h24.5c53.453 0 50.112 84.635 38.976 190.428v86.861c0 5.568-5.568 21.16-10.022 21.16-14.477 4.453-28.954 4.453-45.658 4.453-4.455 0-4.455-11.136-4.455-20.045V561.454c0-21.159 0-38.977-3.34-61.249zM433.741 853.22c0 24.5 5.568 34.522 30.067 34.522h45.658c18.932 0 28.954-3.34 28.954-24.5V540.295c0-27.84 5.568-33.408 35.636-33.408h43.43c16.705 0 21.16-11.136 21.16-24.5v-36.749c0-13.363-10.023-23.386-21.16-23.386h-59.02c-14.478 0-20.046-5.568-20.046-21.158 5.568-51.226 5.568-106.907 5.568-161.474-5.568-60.135-5.568-60.135 54.567-60.135 50.113 4.455 54.567 0 50.113-48.999 0-11.136-4.455-20.045-20.045-20.045H463.808c-24.5 0-30.067 5.568-30.067 30.068zm301.788-703.802c0 21.158 8.91 30.067 38.977 30.067 36.749 0 40.09 4.455 40.09 41.204v606.918c0 54.567 0 54.567 54.567 60.135h5.568c40.09 5.568 44.544 0 44.544-40.09 0-104.68 0-200.45-4.454-307.357-3.341-194.882 4.454-275.062 4.454-319.606 0-31.181 12.25-36.75 40.09-36.75 25.613 0 35.636-4.454 35.636-24.499 0-40.09-5.568-41.203-35.636-43.43-59.021-5.569-119.156-5.569-184.86-5.569-24.499 0-38.976 14.477-38.976 38.977z"/></svg>
