<svg xmlns="http://www.w3.org/2000/svg" width="1000" height="1000">
  <path d="M92.935 826.185c0-17.654 7.723-27.585 22.067-33.102 9.93-2.206 15.447-7.723 18.757-16.55 7.724-17.654 16.55-33.101 23.171-50.755 7.724-13.24 15.447-25.378 8.827-44.135-5.517-15.447 2.207-28.688 16.55-35.308 12.138-4.414 18.758-11.034 23.171-22.068l16.551-34.204c2.207-6.62 4.414-13.24 2.207-20.964-2.207-16.55 4.413-28.688 16.55-37.515 7.724-4.413 14.344-11.033 18.758-18.757 14.344-29.791 28.687-59.582 41.928-90.477 4.413-6.62 4.413-16.55 4.413-24.274-1.103-15.447 2.207-26.48 16.55-35.308 6.621-5.517 13.241-14.343 17.655-22.067 43.031-88.27 84.96-176.54 127.991-263.706 5.517-9.93 6.62-16.55 2.207-26.48-6.62-15.448-1.104-31.999 11.033-39.722 11.034-7.724 26.481-7.724 35.308 0 14.344 7.723 18.758 24.274 13.24 39.721-4.413 9.93-3.31 16.55 1.104 26.481l129.095 265.913c2.206 6.62 9.93 14.343 15.447 17.654 14.344 9.93 22.067 22.067 17.654 39.721-1.104 7.724 0 15.447 2.207 22.067 14.343 30.895 30.894 60.686 45.238 90.477 4.413 7.724 11.034 14.344 17.654 19.86 9.93 6.62 16.55 17.655 15.447 29.792-2.207 30.894 16.55 50.755 27.584 76.132 3.31 3.31 9.93 5.517 14.344 7.724 14.344 6.62 23.17 22.067 16.55 39.721-4.413 11.034-2.206 19.861 2.207 28.688 9.93 15.447 17.654 30.894 24.275 47.445 6.62 14.344 14.343 29.791 33.1 35.308 12.138 4.413 17.655 23.17 14.345 35.308-3.31 14.344-16.551 25.377-29.791 25.377-13.24 1.104-29.792-8.827-31.998-22.067-3.31-12.137-11.034-17.654-19.861-25.378a1414.234 1414.234 0 0 0-56.272-40.824c-13.24-9.93-35.308-9.93-47.445 1.103L538.697 953.072c-3.31 4.414-5.517 12.137-7.724 17.654C525.456 985.07 511.113 995 497.872 995c-13.24-1.103-24.274-12.137-29.791-27.584-2.207-5.517-5.517-11.034-9.93-16.55-59.582-58.48-118.061-118.061-177.643-176.54-13.24-14.344-34.205-15.447-50.755-4.413-16.55 11.033-30.895 23.17-47.445 34.204-12.137 9.93-25.378 17.654-28.688 35.308-3.31 14.344-20.964 20.964-34.205 18.757-15.447-3.31-26.48-16.55-26.48-31.997zm15.447-1.104c0 11.034 6.62 16.55 16.55 17.654 7.724 1.103 18.758-7.724 17.654-17.654 0-9.93-6.62-16.55-16.55-17.654-11.034 1.104-16.55 6.62-17.654 17.654zm54.065-46.341c2.207 1.103 3.31 2.206 4.413 2.206 18.758-13.24 38.618-26.48 56.272-39.721 9.93-8.827 6.62-17.654-2.206-27.584-9.93-7.724-19.861-7.724-25.378 0-11.034 22.067-22.067 44.134-33.101 65.099zm16.55-103.717c0 11.033 8.828 17.654 19.861 17.654 8.827 0 17.654-7.724 16.55-18.758-2.206-9.93-8.826-15.447-18.757-16.55-8.826 3.31-17.653 8.827-17.653 17.654zm50.756-36.412c-6.62 13.24-1.104 43.032 8.827 54.066 7.723 9.93 17.654 4.413 26.48 7.723 12.138 2.207 23.171 1.103 26.481-9.93 4.414-9.93 7.724-24.274 3.31-33.101-11.033-22.068-26.48-43.032-39.72-62.893-4.414 2.207-5.518 2.207-5.518 4.414-6.62 12.137-14.343 25.377-19.86 39.721zm9.93-76.132c1.103 11.033 8.827 16.55 17.654 15.447 11.034 0 15.447-6.62 15.447-16.55 0-9.931-7.723-18.758-16.55-18.758-9.93 0-16.551 9.93-16.551 19.86zM245.2 730.19c-1.104 9.93 4.413 16.55 14.344 18.757 8.827 2.207 18.757-6.62 19.86-16.55 0-7.724-7.723-17.654-16.55-17.654-11.034 0-17.654 4.413-17.654 15.447zm33.1-191.986c26.48 0 47.445 0 69.512-1.103 9.93 0 14.344-7.724 11.034-15.447-1.103-9.93-3.31-19.86-6.62-27.584-5.517-20.964-12.137-39.722-17.654-60.686h-4.414c-17.653 33.101-34.204 67.306-51.858 104.82zm7.724 55.17c9.93 14.343 19.86 31.997 33.1 45.237 6.621 6.62 22.068 12.137 33.102 11.034 15.447-3.31 34.204-36.411 31.998-52.962-1.104-2.207-3.31-7.723-5.517-8.827-16.55-9.93-31.998-29.79-50.755-20.964h-26.481c-15.447 1.104-22.068 13.24-15.447 26.481zm15.447 126.887c-12.137 9.93-11.034 23.17 1.103 37.514 48.549 46.342 95.994 94.89 143.439 141.232 3.31 4.414 7.723 6.62 12.137 9.93 0 0 1.103 0 1.103-1.103-1.103-2.207-1.103-4.413-2.207-5.517-39.721-58.479-77.236-116.957-115.854-176.54-11.034-16.55-24.274-17.653-39.721-5.516zm11.034-38.618c0 11.034 6.62 15.447 17.653 15.447 11.034 0 16.551-5.517 15.448-16.55 0-12.138-5.517-17.655-16.55-17.655-11.035 1.104-16.551 6.62-16.551 18.758zm7.723-290.187c2.207 11.034 7.724 16.55 15.447 16.55 12.137 0 20.964-8.826 19.861-18.757 0-8.827-7.724-16.55-16.55-16.55-9.93 0-18.758 8.827-18.758 18.757zm38.618-26.48h86.063c17.654 1.102 29.791-2.208 37.515-17.655-3.31-5.517-6.62-12.137-12.137-19.86-5.517 7.723-11.034 13.24-15.448 18.757-1.103-2.207-3.31-2.207-5.516-3.31 7.723-12.137 15.447-23.171 22.067-35.308-1.103 0-1.103-2.207-2.207-2.207-9.93 8.827-19.86 18.757-31.997 26.48 0-1.102-1.104-2.206-2.207-4.413 7.723-17.653 25.377-27.584 41.928-38.618 0-1.103-1.103-2.206-1.103-3.31l-52.962 27.585c11.033-22.068 30.894-31.998 51.858-38.618-22.067-5.517-40.825 7.723-60.685 16.55 9.93-22.067 31.998-23.17 49.651-31.998v-2.206h-44.134v-5.517c19.86-15.447 40.824-5.517 61.788 1.103l1.104-4.413c-14.344-6.62-29.791-13.24-48.549-19.861 19.861-8.827 31.998 3.31 50.756 6.62-9.93-9.93-15.448-16.55-22.068-23.17 1.103-2.207 1.103-3.31 2.207-4.414 5.517 4.413 12.137 6.62 17.654 9.93 0-4.413-1.104-7.723-1.104-11.033 12.138 12.137 23.171 0 35.308 0v7.723c5.517-1.103 11.034-4.413 16.55-5.517 2.208 1.104 2.208 3.31 3.311 4.414-8.827 6.62-15.447 15.447-22.067 22.067 15.447-4.413 28.687-14.344 44.134-9.93 1.104 1.103 1.104 3.31 1.104 4.413l-38.618 16.55c47.445-3.31 47.445-3.31 59.582 11.035H533.18c44.135 22.067 44.135 22.067 52.962 37.514-22.068-13.24-39.722-24.274-61.79-19.86 19.862 7.723 40.826 16.55 50.756 39.721-17.654-11.034-33.101-26.48-59.582-25.378 22.067 9.93 38.618 19.861 47.445 40.825-2.207 1.104-3.31 1.104-4.414 2.207-8.827-6.62-16.55-15.447-26.48-22.067l-1.104 1.103 16.55 31.998c-1.103 1.103-3.31 1.103-4.413 3.31-5.517-5.517-9.93-11.034-16.55-18.758-4.414 8.827-6.62 14.344-12.137 22.068 7.723 5.517 16.55 14.344 24.274 15.447 31.998 1.103 65.099 0 100.407 0L502.285 79.202h-4.413c-45.238 94.89-91.58 188.676-139.025 285.773zm5.517 346.458L431.67 815.15l26.48 35.308 1.104-1.104c-17.654-56.272-34.205-111.44-49.652-165.505-8.827-33.102-13.24-34.205-37.514-12.138-13.24 9.93-15.448 26.481-7.724 39.722zm2.207-268.12c5.517 18.758 13.24 44.135 19.86 68.41 2.207 3.31 4.414 5.516 5.517 8.827 20.964 18.757 45.239 19.86 70.616 16.55-34.204-31.998-66.202-63.995-95.993-93.787zm1.103 109.234c0 9.93 7.724 18.758 16.55 18.758 8.828 0 17.655-8.827 17.655-18.758 0-8.827-5.517-15.447-15.448-17.654-8.827-1.103-18.757 7.724-18.757 17.654zm2.207-155.575c37.515 40.825 76.133 78.34 114.75 115.854 1.104-1.103 2.207-1.103 5.517-2.207 0-25.377 0-50.755-2.206-77.236 0-29.79-12.137-41.928-41.928-41.928H386.43c-3.31 0-8.827 1.103-13.24 1.103-1.103 1.104-3.31 2.207-3.31 4.414zm22.067 227.294c1.104 11.034 6.62 16.551 17.654 17.654 8.827 0 16.55-6.62 16.55-17.654 0-7.723-5.516-15.447-14.343-16.55-9.93-1.103-19.86 8.827-19.86 16.55zm16.55-46.341c-1.102 2.207 3.311 11.034 5.518 13.24 5.517 2.207 14.344 2.207 17.654 0 9.93-5.517 20.964-13.24 28.687-18.757 0-1.103 0-3.31-1.103-5.517-11.034 0-24.274 0-35.308 1.104-5.517 0-12.137 5.516-15.447 9.93zm25.378 86.063c7.724 30.894 17.654 57.375 25.378 84.96 8.827 30.894 17.654 61.788 28.688 95.993v-254.88c-1.104 0-2.207-1.102-3.31-1.102-14.344 14.343-43.032 17.654-44.135 46.341 0 3.31-3.31 5.517-4.414 8.827-6.62 6.62-5.517 13.24-2.207 19.86zm48.549 297.91c0 11.034 7.723 15.447 18.757 15.447 8.827 0 15.447-4.413 15.447-15.447 0-8.827-5.517-16.55-15.447-16.55-11.034-1.104-18.757 7.723-18.757 16.55zm0-409.35c0 9.93 7.723 16.55 16.55 18.757 8.827 0 19.861-8.827 17.654-18.758-1.103-9.93-6.62-15.447-14.344-17.654-11.033-1.103-19.86 7.724-19.86 17.654zm0-175.437c0 11.034 7.723 16.55 15.447 16.55 12.137 0 18.757-6.62 18.757-16.55 0-7.723-7.723-14.344-17.654-14.344-8.827 0-16.55 6.62-16.55 14.344zm0-338.735c0 8.827 8.827 17.654 18.757 17.654 7.724 0 17.654-9.93 15.447-19.86-1.103-8.828-7.723-14.345-17.654-14.345-8.827 1.104-16.55 5.517-16.55 16.551zm28.687 796.634h3.31c1.104-3.31 2.207-4.413 2.207-7.723 14.344-46.342 26.481-90.477 40.825-134.611 5.517-19.861 11.034-37.515 1.103-61.79-11.033-22.067-27.584-28.687-47.445-43.03zm0-325.494c20.965-11.034 111.441-104.82 115.854-118.061-29.79 0-61.788-2.207-90.476 1.103-8.827 0-23.17 13.24-23.17 23.171-3.31 29.791-2.208 61.789-2.208 93.787zm22.068 28.687c14.344 0 27.584 2.207 40.825-1.103 14.343-4.413 30.894-13.24 36.41-24.274 11.035-22.068 16.551-47.445 23.172-72.823-33.101 33.102-67.306 65.1-100.407 98.2zm4.413 371.837c0 1.103 1.104 1.103 1.104 3.31 3.31-2.207 4.413-3.31 5.517-5.517 52.961-49.652 101.51-101.51 153.368-153.369 11.034-11.033 11.034-24.274 0-34.204-14.344-12.137-27.584-11.034-38.618 4.413-39.721 61.79-81.65 123.578-121.37 185.367zm1.104-60.686c4.413-2.206 7.723-2.206 7.723-4.413 29.791-44.135 59.582-90.477 88.27-133.508 3.31-5.517 3.31-15.447 3.31-22.068 0-15.447-12.137-20.964-22.067-27.584-13.24-8.827-17.654-6.62-22.068 7.724-9.93 31.997-18.757 60.685-28.687 89.373-7.724 28.687-16.55 59.582-26.481 90.476zm0-276.946c9.93 6.62 19.86 15.447 30.894 20.964 2.207 2.207 12.137 0 16.55-3.31 2.207-2.207 3.31-9.93 2.207-13.24-1.103-4.414-6.62-8.827-12.137-8.827-12.137-1.104-23.17 0-35.308 0 0 1.103-2.206 3.31-2.206 4.413zm33.1 50.755c-1.102 11.034 4.414 17.654 15.448 18.757 11.034 2.207 18.757-6.62 18.757-16.55 0-11.034-5.516-16.55-16.55-18.757-8.827 1.103-17.654 5.516-17.654 16.55zm26.482-70.616c-1.104 9.93 6.62 18.758 16.55 18.758 11.034-2.207 16.551-7.724 17.654-16.55 1.104-11.035-7.723-19.862-18.757-20.965-8.827 1.103-15.447 6.62-15.447 18.757zm18.757 40.825c-2.207 5.517 3.31 15.447 4.414 25.378 1.103 1.103 1.103 3.31 1.103 5.516 2.207 15.448 15.447 22.068 26.48 25.378 7.725 2.207 23.172-3.31 29.792-9.93 13.24-15.448 24.274-33.101 34.204-49.652 5.517-9.93-1.103-20.964-13.24-22.067-6.62-1.104-15.447 0-22.067 0v-1.104c-11.034 0-22.068-1.103-29.791 2.207-11.034 4.413-23.171 13.24-30.895 24.274zm22.068-71.72c-4.414 9.931 4.413 15.448 14.343 16.551h38.618c7.724 0 16.551-1.103 28.688-1.103-19.86-37.515-36.411-71.72-54.065-109.234zm5.516-129.094c0 9.93 8.827 16.551 17.654 15.448 9.93-2.207 15.448-8.827 15.448-18.758 0-8.827-7.724-16.55-17.654-16.55s-16.55 9.93-15.448 19.86zm6.62 287.98c0 9.93 7.724 16.551 18.758 16.551 8.827 0 16.55-6.62 16.55-16.55 1.104-11.034-7.723-16.551-16.55-17.655-11.034 0-16.55 6.62-18.757 17.654zm49.652-22.067c-6.62 13.24 2.207 33.101 14.344 38.618 8.827 6.62 40.825 4.413 46.342-5.517 6.62-12.137 15.447-28.688 12.137-40.825-4.414-19.86-16.55-37.514-24.274-56.272h-5.517c-14.344 22.068-28.688 41.929-43.032 63.996zm19.861 73.926c1.103 8.827 8.827 16.55 17.654 15.447 8.827 0 16.55-5.517 17.654-16.55-1.103-11.034-6.62-16.551-16.55-16.551-11.034 0-18.758 6.62-18.758 17.654zm3.31-169.92c2.207 11.034 8.827 16.551 19.86 15.448 8.828 0 16.551-6.62 14.345-16.55 0-9.931-7.724-18.758-15.447-18.758-9.93 1.103-19.861 12.137-18.758 19.86zm50.755 177.644c18.758 13.24 37.515 27.584 55.169 40.824 2.207-1.103 3.31-2.206 4.413-4.413-9.93-19.86-18.757-41.928-29.79-61.789-5.518-8.827-15.448-8.827-24.275-2.207-11.034 6.62-13.24 19.86-5.517 27.585zm9.93-65.1c0 11.034 6.62 17.655 16.551 17.655 11.034 0 16.55-5.517 19.86-19.861-5.516-4.414-11.033-11.034-18.756-14.344-7.724-3.31-17.654 7.724-17.654 16.55zm72.823 148.956c-1.103 11.033 6.62 18.757 16.55 18.757 9.931 0 17.655-6.62 17.655-17.654-1.104-8.827-5.517-16.55-16.55-17.654-9.931 0-16.551 6.62-17.655 16.55z" style="fill:#000;fill-opacity:1;fill-rule:nonzero;stroke:none;"/>
</svg>
