<svg xmlns="http://www.w3.org/2000/svg" viewBox="0 0 1000 1000"><path d="M979.25 598.463c-37.802 22.05-67.203 22.05-112.356 52.503-68.254 29.401-126.007 29.401-185.86-14.701-52.503-51.453-82.955-96.606-127.057-142.808-43.053-65.104-74.554-123.907-126.007-170.11-103.956-97.655-294.017-81.904-373.821 13.651C-26.706 450.404-4.654 598.463 97.2 695.068c99.756 84.005 269.865 59.853 345.47-44.102 36.752-52.503 52.502-96.606-14.701-126.008-40.953 99.756-121.807 193.211-261.465 126.008C85.651 598.463 54.15 480.856 112.952 397.9c53.553-74.554 174.31-91.355 254.114-16.8 40.953 42.002 201.611 243.613 282.466 313.967 107.106 96.605 289.816 46.203 329.718-96.605zm-381.17-90.305c61.953-171.16 171.159-218.413 313.967-138.608 15.75 11.55 45.152 11.55 82.954 11.55-53.553-139.657-258.314-184.81-396.922-28.351-44.102 54.603-44.102 97.655 0 155.409z"/></svg>