<?xml version="1.0" encoding="UTF-8"?><svg id="a" xmlns="http://www.w3.org/2000/svg" viewBox="0 0 1000 1000"><path d="M500,0C223.858,0,0,223.858,0,500s223.858,500,500,500,500-223.858,500-500S776.142,0,500,0Zm-129.474,214.396l108.529-133.282c11.424-13.328,32.368-13.328,43.793,0l108.529,133.282c7.616,11.424,7.616,26.656,0,36.176l-108.529,133.282c-11.424,13.328-32.369,13.328-43.793,0l-108.529-133.282c-7.616-11.424-7.616-26.656,0-36.176Zm-59.025,378.901l-108.529-133.282c-7.616-11.424-7.616-26.656,0-36.176l108.529-133.282c11.424-13.328,32.368-13.328,43.793,0l108.529,133.282c7.616,11.424,7.616,26.656,0,36.176l-108.529,133.282c-11.424,13.328-32.368,13.328-43.793,0Zm319.876,192.307l-108.529,133.282c-11.424,13.328-32.369,13.328-43.793,0l-108.529-133.282c-7.616-11.424-7.616-26.656,0-36.177l108.529-133.282c11.424-13.328,32.368-13.328,43.793,0l108.529,133.282c7.616,9.52,7.616,24.752,0,36.177Zm165.65-325.588l-108.529,133.282c-11.424,13.328-32.368,13.328-43.793,0l-108.53-133.282c-7.616-11.424-7.616-26.656,0-36.176l108.53-133.282c11.424-13.328,32.368-13.328,43.793,0l108.529,133.282c7.616,11.424,7.616,26.656,0,36.176Z"/></svg>