<svg width="1000" height="1000" viewBox="0 0 1000 1000" fill="none" xmlns="http://www.w3.org/2000/svg">
<path fill-rule="evenodd" clip-rule="evenodd" d="M500 995C773.381 995 995 773.381 995 500C995 226.619 773.381 5 500 5C226.619 5 5 226.619 5 500C5 773.381 226.619 995 500 995ZM203.145 286.731L348.876 141H418.135C399.377 151.822 337.333 229.016 321.462 286.731H203.145ZM488.836 141V286.731H348.876C358.736 256.671 393.894 185.441 455.65 141H488.836ZM516.973 286.731H658.375C625.478 208.238 572.043 156.872 549.438 141H516.973V286.731ZM800.5 286.731H685.79C667.754 243.445 635.145 183.709 588.395 141H653.325L800.5 286.731ZM317.854 715.268H203.145L350.319 861H415.249C368.5 818.291 335.89 758.555 317.854 715.268ZM345.269 715.268H486.672V861H454.207C431.602 845.128 378.167 793.761 345.269 715.268ZM514.808 715.268L514.808 861H547.995C609.75 816.559 644.908 745.329 654.768 715.269L514.808 715.268ZM654.768 861L800.5 715.269H682.183C666.311 772.984 604.267 850.178 585.51 861H654.768ZM309.597 651.78L226.216 444.366H224.972L225.802 651.78H181V358.081H237.832L320.383 566.74H321.627L321.212 358.081H364.355V651.78H309.597ZM553.491 651.78L475.088 509.079H473.844V651.78H424.064V358.081H473.844V485.434H475.088L549.758 358.081H605.76L519.475 493.315L611.152 651.78H553.491ZM803.332 613.616C822.967 587.897 832.785 551.807 832.785 505.346C832.785 458.885 822.967 422.794 803.332 397.075C783.973 371.079 755.488 358.081 717.877 358.081H644.037V651.78H717.462C755.35 651.78 783.973 639.059 803.332 613.616ZM778.027 459.714C781.346 472.712 783.005 487.923 783.005 505.346C783.005 522.492 781.346 537.564 778.027 550.562C774.985 563.283 770.56 573.931 764.753 582.504C758.945 591.077 752.031 597.576 744.011 602.001C735.991 606.149 727.28 608.223 717.877 608.223H694.232V401.638H717.877C727.28 401.638 735.991 403.851 744.011 408.275C752.031 412.424 758.945 418.784 764.753 427.358C770.56 435.931 774.985 446.716 778.027 459.714Z" fill="black"/>
</svg>
