<svg xmlns="http://www.w3.org/2000/svg" viewBox="0 0 1000 1000"><path d="M444.49 663.374c-180.136 2.266-330.815-147.28-329.682-329.682 0-183.534 147.28-328.549 329.682-328.549 183.534 0 330.814 148.414 329.681 331.948 0 181.268-148.413 328.549-329.681 326.283zM224.702 333.692c-1.133 120.09 97.431 218.655 217.522 218.655 120.09 2.266 220.92-97.432 220.92-218.655 1.133-120.09-98.564-219.788-218.654-219.788-122.357 0-220.921 100.83-219.788 219.788zM444.49 938.675c0-13.595 4.531-28.323 15.86-38.52 73.64-73.64 146.148-147.28 218.655-220.92 22.659-21.526 56.647-21.526 79.305 0 22.659 22.658 22.659 57.78 0 80.438-46.45 46.45-95.166 94.033-141.616 141.616-26.057 24.924-50.981 50.981-77.039 75.906-19.26 19.26-45.317 22.658-66.842 11.329-18.127-11.33-28.323-27.19-28.323-49.849zM774.17 58.391c0-30.59 24.925-55.514 55.514-53.248 30.589 2.266 55.513 22.659 55.513 53.248s-24.924 56.646-55.513 55.513c-30.59-1.133-55.514-24.924-55.514-55.513z"/></svg>