<svg xmlns="http://www.w3.org/2000/svg" width="1000" height="1000">
  <path d="M871.665 7.984c1.193 44.159-4.774 91.898-19.096 139.638-22.676 88.318-81.157 156.346-159.927 207.666-72.803 51.32-149.186 89.512-216.021 137.251-134.864 88.318-239.891 196.926-260.18 362.82-3.58 40.579 7.16 75.19 9.547 110.995 2.387 4.773 2.387 9.547 2.387 28.643-10.741-14.322-17.902-16.709-25.063-20.29-77.576-81.156-97.866-212.44-47.74-319.853 46.547-96.673 115.769-173.056 208.86-230.343 68.03-41.772 136.058-88.318 204.087-130.09C680.707 228.779 773.8 133.3 843.021 29.466c7.161-8.354 11.935-15.515 21.483-23.87 0 0 5.967-2.386 7.16 2.388zM258.213 845.81c3.58-31.03 20.289-59.674 46.546-77.576 45.352-47.74 107.413-78.77 171.862-105.027 83.544-31.03 162.314-59.674 247.051-85.931l26.257-8.355c-5.967 17.903-8.354 31.031-17.902 38.192-48.933 85.931-126.51 138.445-225.57 151.573-83.543 15.515-164.7 36.998-237.503 84.737 0 0-8.354 1.194-10.741 2.387zm2.387 84.738c22.676-41.772 46.546-64.448 88.318-77.577 51.32-14.322 100.252-26.256 151.572-35.804 35.805-10.742 75.19-29.837 109.801-40.579 7.161-3.58 15.515-3.58 25.063-8.354-8.354 28.643-22.676 57.287-45.352 69.222-38.192 22.676-69.222 42.966-110.994 51.32-66.836 21.483-137.251 16.709-205.28 41.772 0 0-3.58 2.387-13.128 0zm53.706-232.73c17.903-20.29 27.45-45.352 42.966-63.255 62.061-68.028 139.638-114.574 213.634-164.7 85.931-52.514 179.023-97.867 247.052-174.25 0 0 2.387-1.193 14.322-4.774-4.774 21.483-2.387 42.966-2.387 64.448-3.58 96.673-60.868 173.056-151.573 202.893-89.512 34.611-184.99 57.287-270.922 99.06l-64.448 38.191c-4.774 1.194-14.322 3.58-21.483 7.161z" style="fill:#000;fill-opacity:1;fill-rule:nonzero;stroke:none;"/>
</svg>
