<svg xmlns="http://www.w3.org/2000/svg" viewBox="0 0 1000 1000"><path d="m832.365 161.632 137.53 182.282-215.027 100.42-56.759-211.754zM5 341.732l498.82 595.964L995 341.731 840.006 145.26 689.377 62.305H333.545L178.55 145.258zm33.837-7.641 145.17-172.459L329.18 232.58l-78.59 210.662zm15.281 41.477L250.59 486.902l198.655 342.735zm153.903-225.943 125.524-63.307h355.832l112.426 62.216-133.164 65.49H333.545zm56.759 317.63 81.863-232.492h321.996l66.582 232.492-231.4 421.323zM376.114 608.06h82.955v62.216h26.196V608.06h32.745v62.216h25.105l2.183-62.216c104.785 0 137.53-98.236 48.026-140.805 67.674-28.38 38.203-120.066-48.026-125.524v-46.935H518.01v46.935h-32.745v-46.935h-26.196v46.935h-82.955v48.027h33.837c14.19 0 14.19 0 14.19 15.28v157.178s0 10.916-14.19 10.916h-33.837zm109.15-34.928v-70.949c18.556 0 92.78-1.091 92.78 28.38 0 42.569-74.224 42.569-92.78 42.569zm0-118.975v-64.4c18.556 0 79.681-3.274 79.681 31.655 0 42.568-61.125 32.745-79.68 32.745zm68.766 382.029 196.472-349.284 160.452-86.23z"/></svg>