<svg xmlns="http://www.w3.org/2000/svg" width="1000" height="1000">
  <path d="M500.496 5C223.572 5 5 229.506 5 500.002c0 276.43 224.506 495.001 495.002 495.001 276.43 0 495.001-224.506 495.001-495.001C995.003 226.539 773.464 5 500.496 5zM215.66 615.222c0-82.088 2.967-167.144 0-248.243 0-25.714 6.923-42.527 31.649-56.374 81.099-43.516 161.209-90 242.308-137.473 10.88-5.934 21.758-5.934 33.627 0 84.066 49.451 166.154 97.913 250.22 145.386 12.857 6.923 18.791 16.813 18.791 30.659-1.978 42.528 0 83.077-1.978 128.572 0 7.912-5.934 18.791-15.824 24.725-31.648 20.77-63.297 39.56-93.956 57.363-8.901 3.956-16.813 8.901-29.67 17.802 41.538 21.759 77.142 42.528 113.736 63.297 17.802 10.88 23.736 19.78 23.736 38.572 3.956 34.615 5.934 64.286-1.978 142.418-41.538-23.737-79.12-42.528-112.747-66.264-19.78-11.868-34.616-11.868-53.407 0-32.638 20.77-69.231 42.527-102.858 62.308-5.934 3.956-16.813 3.956-22.747 0-88.022-50.44-176.044-99.89-262.089-153.297-4.945-1.979-11.868-10.88-13.846-16.814-2.967-10.879-2.967-22.747-2.967-32.637zm152.308-59.341c0 7.912 4.945 16.813 10.88 21.758 37.582 23.737 76.154 47.473 115.714 72.198 3.956 1.978 10.88 3.956 15.824 1.978 37.583-22.747 75.165-44.505 112.748-66.264 14.835-7.912 20.77-18.79 20.77-33.626v-57.363c0-21.758 1.977-41.539 0-63.297-1.979-8.901-8.902-19.78-16.814-25.714-35.605-21.759-74.176-44.506-109.78-64.286-5.935-2.967-18.792-2.967-23.737-1.978-38.571 21.758-77.143 42.527-112.748 66.264-7.912 3.956-12.857 14.835-12.857 23.736-1.978 41.539-1.978 84.066 0 126.594z" style="fill:#000;fill-opacity:1;fill-rule:nonzero;stroke:none;"/>
</svg>
