<svg xmlns="http://www.w3.org/2000/svg" width="1000" height="1000">
  <path d="M337.644 414.473v10.436c0 60.01 2.609 118.715 0 177.42 0 19.568 9.131 35.222 26.09 43.05 61.315 36.527 123.933 73.054 186.551 108.277 15.655 9.132 30.005 7.828 46.964-1.304 37.832-20.873 76.969-44.355 114.8-66.532 22.178-10.437 41.746-9.132 57.4 7.827 28.701 27.395 54.792 54.791 80.883 80.882 23.482 23.482 19.568 56.096-6.523 73.055-57.4 31.31-113.496 63.923-172.2 96.537-23.482 15.654-48.269 28.7-71.75 43.05-18.264 10.436-35.224 10.436-53.487 0-122.628-71.75-246.56-143.5-369.188-212.642-6.523-3.914-11.741-9.132-18.264-11.74-15.654-9.133-24.786-22.178-24.786-41.747V539.71c0-6.523 2.609-9.132 7.827-11.741 62.618-36.527 126.541-74.36 191.769-110.887 0 0 1.305-1.304 3.914-2.609zm-203.51 70.446v-9.132c0-65.228 1.304-133.064 0-199.596 0-16.96 9.132-32.614 24.786-40.441 84.796-49.573 166.983-96.537 251.778-144.806 44.355-27.395 88.71-52.182 134.37-76.968 18.263-11.741 36.527-11.741 56.095-1.305 79.577 46.964 159.155 92.624 238.733 138.283 28.7 15.654 33.918 48.268 9.132 73.055l-79.578 79.577c-16.96 16.96-35.223 20.873-56.096 7.828-37.832-20.873-76.968-43.05-114.8-65.228-18.264-10.436-35.223-10.436-52.182 1.305L143.266 482.31c-1.305 0-5.219 1.304-9.132 2.609z" style="fill:#000;fill-opacity:1;fill-rule:nonzero;stroke:none;"/>
</svg>
