<?xml version="1.0" encoding="UTF-8"?><svg id="a" xmlns="http://www.w3.org/2000/svg" viewBox="0 0 1000 1000"><path d="M500,0C223.859,0,0,223.859,0,500s223.859,500,500,500,500-223.859,500-500S776.141,0,500,0ZM218.285,695.645l-24.196,21.589c-7.17,6.393-18.411,5-23.655-3.047-43.817-67.185-67.676-148.508-63.054-235.511,10.687-201.147,174.447-363.025,375.693-371.512,101.471-4.279,195,30.14,267.039,89.678,7.423,6.135,7.57,17.494,.385,23.901l-24.222,21.61c-5.735,5.12-14.32,5.337-20.315,.526-61.758-49.587-141.632-77.494-228.019-71.829-164.335,10.778-296.659,143.516-306.953,307.886h.007c-4.539,72.437,14.517,140.266,50.146,196.638,4.097,6.478,2.864,14.965-2.856,20.071Zm149.642-195.869c0-5.504,.245-10.826,.497-16.134h-52.584c-9.502,0-15.671-10.021-11.385-18.508l18.115-24.454c2.172-4.292,6.576-7.003,11.387-7.003h41.289c6.737-28.494,18.094-53.508,34.404-74.832,27.906-36.205,64.657-54.44,110.532-54.44,50.273,0,88.529,23.802,114.762,71.184,3.6,6.505,.708,14.727-6.093,17.731l-28.424,12.549c-5.924,2.62-13.004,.448-16.149-5.217-14.033-25.272-35.917-40.699-64.097-40.699-36.989-.582-65.735,28.831-79.503,73.724h94.139c9.503,0,15.673,10.028,11.387,18.51l-18.116,24.453c-2.17,4.293-6.576,7.003-11.387,7.003h-84.565c-.288,5.287-.442,10.651-.386,16.134,0,5.532,.182,10.896,.476,16.156h102.592c9.503,0,15.673,10.021,11.387,18.508l-18.116,24.453c-2.17,4.293-6.576,7.003-11.387,7.003h-75.931c3.859,12.423,8.928,23.761,15.302,33.922,16.302,26.246,37.584,39.236,64.11,39.236,29.299,0,51.478-17.262,64.825-44.348,3.018-6.113,10.356-8.718,16.582-5.939l28.278,12.633c6.632,2.963,9.517,10.903,6.226,17.374-25.847,50.84-64.559,76.372-115.911,76.372-72.332,1.093-126.316-51.758-145.062-129.258h-59.286c-9.503,0-15.673-10.028-11.387-18.508l18.116-24.453,.013,.006c2.17-4.292,6.576-7.002,11.387-7.002h34.258c-.231-5.322-.364-10.701-.294-16.156Zm149.005,393.047c-101.477,4.279-195.006-30.133-267.052-89.679-7.422-6.134-7.57-17.493-.385-23.9l24.215-21.61c5.736-5.12,14.321-5.337,20.316-.526,61.764,49.587,141.631,77.494,228.018,71.829,164.335-10.778,296.66-143.508,306.96-307.871,4.545-72.438-14.517-140.273-50.146-196.646-4.097-6.478-2.864-14.966,2.856-20.071l24.196-21.589c7.17-6.394,18.411-4.993,23.655,3.046h-.006c43.809,67.172,67.667,148.495,63.053,235.491-10.673,201.149-174.434,363.032-375.68,371.527Z" fill-rule="evenodd"/></svg>