<svg xmlns="http://www.w3.org/2000/svg" width="1000" height="1000">
  <path d="M929.319 252.202v495.597l-431.11 247.202L70.682 747.799V252.202L498.209 5zM105.314 723.915 498.209 949.62 889.91 723.915V272.503L498.21 46.797 105.314 272.503zm69.264-189.88 114.644-84.789 99.12 64.488v113.45l76.43 72.847v34.632l-72.848 68.07h-62.099zM289.222 390.73l39.41-171.966h337.96L708.39 390.73zm99.12 26.273h219.734l-35.826 96.73 10.748 107.48H414.614l11.942-107.48zm144.5 317.66V700.03l75.234-72.847v-113.45l100.314-65.682 112.256 85.983-152.86 267.503h-62.098z" style="fill:#000;fill-opacity:1;fill-rule:nonzero;stroke:none;"/>
</svg>
