<svg xmlns="http://www.w3.org/2000/svg" width="1000" height="1000">
  <path d="M958.41 688.409c-24.43 60.033-59.54 113.241-105.33 159.726-45.792 46.483-98.704 82.286-158.737 107.308-62.011 26.406-126.594 39.56-193.847 39.56-89.703 0-173.077-22.45-250.22-67.253-74.473-43.516-133.814-102.857-178.023-178.022C27.451 673.277 5 590.2 5 500.496v-5.934L297.748 688.41h135.495c17.11 0 31.945-6.132 44.506-18.297 12.56-12.165 18.791-27 18.791-44.506 0-17.505-6.23-32.44-18.791-45-12.56-12.56-27.396-18.791-44.506-18.791h-97.912L25.769 357.089c20.473-67.945 53.902-128.572 100.385-181.979 46.484-53.406 101.67-94.945 165.66-124.615C357.781 20.132 427.31 5 500.496 5c67.253 0 131.836 13.154 193.847 39.56 60.033 25.715 112.945 61.616 158.737 107.803 45.791 46.187 80.901 99.198 105.33 159.231H803.135c-17.11 0-31.946 6.231-44.506 18.792-12.56 12.56-18.791 27.494-18.791 45 0 17.505 6.23 32.34 18.79 44.505 12.561 12.165 27.397 18.297 44.507 18.297h188.901c1.978 21.066 2.967 41.836 2.967 62.308 0 20.473-.989 40.846-2.967 61.319H828.85l-377.804-250.22H312.583c-17.11 0-31.945 6.23-44.505 18.79-12.56 12.561-18.791 27.495-18.791 45 0 17.506 6.23 32.342 18.79 44.506 12.561 12.165 27.397 18.297 44.506 18.297h100.88l376.814 250.22z" style="fill:#000;fill-opacity:1;fill-rule:nonzero;stroke:none;"/>
</svg>
