<svg xmlns="http://www.w3.org/2000/svg" width="1000" height="1000">
  <path d="M336.192 613.18c-36.134 90.336-131.287 271.005-140.923 381.816 4.818-115.629 18.067-225.235 46.974-334.841 28.908-112.015 66.246-218.008 119.242-322.796-91.539 4.817-260.164 38.542-345.68 136.104 10.84-31.316 30.11-59.019 52.996-80.7 62.632-59.018 131.286-103.583 208.372-127.672 44.565-14.454 148.149-38.543 151.762-45.77 33.725-68.654 93.948-116.833 156.58-158.99 42.157-28.906 83.109-48.178 134.9-54.2 71.064-7.227 126.47 20.476 171.034 74.677-65.04-18.067-77.085-27.703-158.989 12.044-60.223 28.907-101.175 69.86-149.353 121.651l55.405 2.41c84.313 3.613 161.398 22.884 233.666 69.858 51.792 32.52 112.015 78.29 112.015 142.127v4.818c-49.383-43.361-112.015-57.815-174.647-72.268-84.313-19.272-171.034-26.498-258.96-30.112l-51.792-2.409c-12.044 0-15.658 2.41-19.271 8.432-56.61 95.152-105.993 180.67-143.331 275.822zm222.825 105.994c2.41-67.45 51.792-124.06 120.447-124.06 68.654 0 120.446 59.019 120.446 126.469 0 68.654-54.2 122.855-120.446 122.855-68.655 0-124.06-54.201-120.447-125.264z" style="fill:#000;fill-opacity:1;fill-rule:nonzero;stroke:none;"/>
</svg>
