<svg xmlns="http://www.w3.org/2000/svg" viewBox="0 0 1000 1000"><path d="M500.496 995.003c275.935 0 494.507-224.506 494.507-495.496C995.003 226.54 773.464 5 500.496 5 223.572 5 5 229.506 5 499.507c0 276.924 224.506 495.496 495.496 495.496zm-381.76-380.77c-29.67-102.858-17.802-211.65 32.638-305.606 67.253-123.626 191.869-200.77 333.298-207.693h10.88c12.856 0 30.659 4.945 45.494 29.67 9.89 16.814 13.846 39.561 10.879 60.33-2.967 9.89-2.967 23.737-2.967 36.594 0 42.528 14.835 81.1 25.714 103.847l8.901 16.813c13.847 20.77 30.66 39.56 50.44 53.407l35.605 20.769c22.747 13.846 45.494 21.758 72.198 24.725h.989c8.9.99 18.79.99 28.681.99 17.802 0 39.56-1.979 55.385-7.913 3.956 0 11.868-1.978 20.77-1.978 8.9 0 19.78.99 27.692 7.912 6.923 2.967 20.769 12.858 20.769 30.66 3.956 71.209-13.846 147.363-48.462 216.594-51.429 93.956-135.495 162.198-238.352 191.869-35.605 10.879-73.187 16.813-109.78 16.813-66.265 0-130.55-17.802-189.892-49.45-91.978-50.44-160.22-135.496-190.88-238.353zm29.671-8.901c26.703 96.923 90 175.055 176.045 219.56 85.055 48.463 182.967 59.342 276.924 31.65 53.406-14.836 100.88-42.528 141.429-79.122-13.847-3.956-26.704-13.846-30.66-28.681-3.956-10.88-3.956-25.715 0-42.528v-.989l-17.802-2.967c0-.989.989-.989.989-2.967l22.747-87.033c-2.967-7.912-8.9-14.835-15.824-16.813-3.956 0-7.912 0-11.868 1.978-15.824 10.879-27.692 17.802-37.583 19.78-24.725 32.637-59.34 57.363-98.901 69.23-49.45 15.825-100.88 8.902-144.396-14.834-90.99-52.418-124.616-168.133-75.165-260.111 14.835-26.704 36.593-50.44 61.319-66.264-9.89-2.967-19.78-6.923-26.704-9.89-28.681-17.803-48.461-39.56-57.363-64.286-11.868-26.704-14.835-54.396-8.9-81.1 0 0 .988-.988.988-1.977-51.428 32.637-94.945 79.12-125.605 135.495-47.472 86.044-58.351 186.923-29.67 281.869zm40.55-190.88c0-11.868 8.9-19.78 19.78-19.78s19.78 7.912 19.78 19.78c0 10.88-8.9 17.802-19.78 17.802s-19.78-6.923-19.78-17.802zM342.254 777.42c0-18.791 14.835-33.626 33.626-33.626 17.803 0 32.638 14.835 32.638 33.626 0 18.791-14.835 34.616-32.638 34.616-18.79 0-33.626-15.825-33.626-34.616zm18.791-351.1c-42.527 77.143-13.846 176.045 64.286 218.572 35.605 20.77 79.121 24.726 119.67 12.857 40.55-11.868 76.155-39.56 94.946-75.165 2.967-3.956 2.967-6.923 4.945-9.89 3.956-8.9 7.912-18.791 9.89-28.681v-.99c.99-5.933 1.978-9.89 2.967-14.834 4.946-28.682.99-58.352-9.89-83.078l-4.945-16.813c-8.9-12.857-17.802-26.703-29.67-38.571-27.693-24.726-62.308-41.54-97.913-46.484-60.33-4.945-123.626 24.725-154.286 83.077zm117.693 335.276c0-10.88 7.912-19.78 18.791-19.78 10.88 0 19.78 8.9 19.78 19.78s-8.9 19.78-19.78 19.78c-10.879 0-18.791-8.9-18.791-19.78z"/></svg>