<svg xmlns="http://www.w3.org/2000/svg" viewBox="0 0 1000 1000"><path d="M5 500.496c0 271.98 220.55 494.507 495.496 494.507 271.98 0 494.507-220.55 494.507-495.496C995.003 227.528 773.464 5 500.496 5 226.54 5 5 225.55 5 500.496zm166.154 99.89v-198.79c2.967-33.627 3.956-63.297 10.88-96.924 10.879-71.209 57.362-115.714 131.538-126.594 39.561-6.923 80.11-9.89 119.671-9.89 72.198-2.967 140.44 0 210.66 2.967 28.682 0 58.352 4.945 86.044 12.858 63.297 17.802 95.935 66.264 105.825 131.538 5.934 26.704 7.912 54.396 7.912 83.078 3.956 75.165 0 151.319 0 227.473v19.78c-1.978 2.967-1.978 2.967-3.956 2.967-46.484-81.099-89.011-158.242-134.506-237.363h-2.967c-1.978 4.945-1.978 9.89-1.978 11.868 0 59.34 0 116.704 1.978 175.056 0 11.868-3.956 19.78-14.835 27.692-56.374 30.66-111.759 63.297-167.144 96.923-6.923 4.945-14.835 4.945-24.725 0-48.462-30.66-98.901-61.319-150.33-89.01-3.956-1.979-7.912-5.935-11.868-5.935 37.582 72.198 78.132 139.451 117.692 210.66-.989 2.967-3.956 2.967-3.956 2.967-48.461 0-93.956 0-139.45-9.89-76.155-17.802-118.682-61.319-128.572-139.451-4.946-30.66-7.913-60.33-7.913-91.978zm152.309-21.758h3.956c3.956-4.945 5.934-10.879 5.934-17.802 0-42.528 1.978-87.033 0-129.56 0-17.803 3.956-29.671 21.758-37.583 7.912-1.978 13.846-7.913 20.77-9.89 40.549-25.715 82.088-48.462 123.626-71.21-5.934 7.913-11.868 17.803-19.78 25.715-14.835 27.692-28.682 53.407-42.528 80.11-33.626 53.407-64.286 107.803-92.967 160.22-10.88 19.78-2.967 31.649 18.791 35.605h296.704c17.803-5.934 22.748-17.802 13.847-33.627-47.473-86.044-95.935-169.121-143.407-252.198-6.924-15.825-16.814-18.792-32.638-15.825 7.912-4.945 12.857-4.945 19.78-2.967 54.396 30.66 103.847 60.33 155.276 91.979 6.923 1.978 9.89 9.89 12.857 16.813 1.978 2.967 1.978 7.912 4.945 15.824 9.89-22.747 4.945-35.604-10.88-46.483-53.406-29.67-105.824-59.341-156.263-90-9.89-5.935-17.803-5.935-27.693 0-53.407 30.659-106.813 62.307-160.22 93.956-9.89 3.956-11.868 11.868-11.868 24.725v151.32zm24.725 21.759c53.407-91.979 106.814-183.957 159.231-277.913 56.374 93.956 108.792 185.934 165.166 277.913z"/></svg>