<?xml version="1.0" encoding="UTF-8"?><svg id="a" xmlns="http://www.w3.org/2000/svg" viewBox="0 0 1000 1000"><path d="M500,0C223.859,0,0,223.859,0,500s223.859,500,500,500,500-223.859,500-500S776.141,0,500,0ZM255.277,179.083c178.699-134.204,432.033-99.038,566.953,78.942h-77.507c-7.894,0-15.788-2.87-21.529-9.329l-28.707-32.295c-4.306-4.306-10.765-7.176-17.224-7.176h-1.435c-6.459,0-12.2,2.87-16.507,7.176l-34.447,35.882c-4.306,4.306-10.048,7.178-17.224,5.741H176.335c22.964-30.141,49.517-56.695,78.942-78.942ZM118.92,367.828H507.176c12.2,0,24.401-5.024,32.295-14.353l24.401-27.99,2.154-2.152c10.046-7.894,23.682-7.176,32.295,2.152l28.706,32.295c5.741,5.741,13.635,9.33,21.531,9.33h71.048v.717h161.475c10.764,31.577,17.942,65.307,20.812,99.038h-299.266c-7.894,0-15.788-3.589-21.529-10.048l-28.707-32.295c-4.305-5.024-10.764-7.894-17.223-7.894h-1.436c-6.459,0-12.2,2.87-16.505,7.176l-34.449,35.882c-4.305,4.306-10.764,7.178-17.223,7.178H98.109c2.87-33.731,10.048-67.461,20.812-99.038Zm656.662,424.857c-162.91,152.862-419.116,144.966-570.542-17.224h1.435c12.2,0,23.683-5.024,31.577-14.354l25.118-27.988,1.437-1.435c9.329-8.613,23.682-7.894,32.295,1.435l28.706,32.295c5.024,5.741,12.918,9.33,21.531,9.33v-.717h447.104c-6.459,6.459-12.2,12.918-18.659,18.659Zm87.555-116.98H456.94c-7.894,0-15.788-3.589-21.529-10.048l-28.707-32.295c-4.306-5.024-10.765-7.894-17.224-7.894h-1.435c-6.459,0-12.2,2.87-16.505,7.176l-34.449,35.884c-5.024,4.305-10.765,7.176-17.224,7.176H136.862c-15.07-32.295-26.553-66.026-33.012-100.473H364.361c12.2,0,23.683-5.024,31.577-14.353l25.118-27.99,2.154-2.152c10.046-7.894,23.683-7.176,32.295,2.152l28.706,32.295c5.024,6.459,12.919,10.048,21.531,10.048h390.408c-6.459,35.166-17.942,68.896-33.012,100.473Z" fill-rule="evenodd"/></svg>