<svg width="33" height="32" viewBox="0 0 33 32" fill="none" xmlns="http://www.w3.org/2000/svg">
<g clip-path="url(#clip0_3393:12187)">
<path fill-rule="evenodd" clip-rule="evenodd" d="M16.4338 31.84C25.1819 31.84 32.2738 24.7482 32.2738 16C32.2738 7.25178 25.1819 0.159973 16.4338 0.159973C7.68556 0.159973 0.59375 7.25178 0.59375 16C0.59375 24.7482 7.68556 31.84 16.4338 31.84ZM6.86471 9.14333L11.5281 4.47992H13.7444C13.1441 4.82622 11.1587 7.29644 10.6508 9.14333H6.86471ZM16.0068 4.47992V9.14333H11.5281C11.8436 8.18141 12.9687 5.90203 14.9449 4.47992H16.0068ZM16.9072 9.14333H21.4321C20.3794 6.63155 18.6694 4.98782 17.9461 4.47992H16.9072V9.14333ZM25.9801 9.14333H22.3094C21.7322 7.75816 20.6887 5.84662 19.1927 4.47992H21.2705L25.9801 9.14333ZM10.5355 22.8565H6.8648L11.5744 27.5199H13.6521C12.1561 26.1532 11.1127 24.2417 10.5355 22.8565ZM11.4128 22.8565H15.9377L15.9377 27.5199L14.8988 27.5199C14.1754 27.012 12.4655 25.3683 11.4128 22.8565ZM16.838 22.8565V27.5199H17.9C19.8762 26.0978 21.0012 23.8184 21.3167 22.8565L16.838 22.8565ZM21.3167 27.5199L25.9801 22.8565H22.194C21.6861 24.7034 19.7007 27.1736 19.1005 27.5199H21.3167ZM24.4217 19.964C24.0857 20.052 23.7417 20.096 23.3897 20.096C23.0537 20.096 22.7177 20.056 22.3817 19.976C22.0537 19.896 21.7537 19.752 21.4817 19.544C21.2097 19.328 21.0017 19.064 20.8577 18.752C20.7137 18.432 20.6417 18.1 20.6417 17.756H22.1177C22.1257 17.964 22.1897 18.152 22.3097 18.32C22.4377 18.488 22.5977 18.604 22.7897 18.668C22.9897 18.732 23.1897 18.764 23.3897 18.764C23.6057 18.764 23.8137 18.728 24.0137 18.656C24.2217 18.576 24.3857 18.444 24.5057 18.26C24.6257 18.068 24.6857 17.864 24.6857 17.648C24.6857 17.36 24.5777 17.104 24.3617 16.88C24.1537 16.656 23.9137 16.492 23.6417 16.388L22.8257 16.076C22.5537 15.964 22.2937 15.836 22.0457 15.692C21.7977 15.54 21.5737 15.356 21.3737 15.14C21.1737 14.924 21.0177 14.68 20.9057 14.408C20.8017 14.128 20.7497 13.844 20.7497 13.556C20.7497 13.212 20.8137 12.88 20.9417 12.56C21.0777 12.232 21.2737 11.952 21.5297 11.72C21.7937 11.48 22.0897 11.316 22.4177 11.228C22.7537 11.132 23.0937 11.084 23.4377 11.084C23.7657 11.084 24.0897 11.124 24.4097 11.204C24.7377 11.284 25.0297 11.432 25.2857 11.648C25.5497 11.864 25.7497 12.128 25.8857 12.44C26.0217 12.744 26.0897 13.064 26.0897 13.4H24.6137C24.6057 13.208 24.5457 13.028 24.4337 12.86C24.3297 12.692 24.1857 12.576 24.0017 12.512C23.8177 12.448 23.6297 12.416 23.4377 12.416C23.2857 12.416 23.1337 12.44 22.9817 12.488C22.8297 12.528 22.6937 12.6 22.5737 12.704C22.4617 12.808 22.3777 12.932 22.3217 13.076C22.2657 13.22 22.2377 13.372 22.2377 13.532C22.2377 13.82 22.3417 14.076 22.5497 14.3C22.7577 14.524 22.9977 14.688 23.2697 14.792C23.5497 14.888 23.8217 14.992 24.0857 15.104C24.3577 15.208 24.6177 15.336 24.8657 15.488C25.1217 15.64 25.3497 15.824 25.5497 16.04C25.7497 16.256 25.9017 16.5 26.0057 16.772C26.1177 17.044 26.1737 17.328 26.1737 17.624C26.1737 17.968 26.1017 18.308 25.9577 18.644C25.8217 18.972 25.6177 19.252 25.3457 19.484C25.0737 19.716 24.7657 19.876 24.4217 19.964ZM6.93359 20H9.62159C9.91759 20 10.2056 19.972 10.4856 19.916C10.7736 19.86 11.0456 19.76 11.3016 19.616C11.5576 19.464 11.7736 19.272 11.9496 19.04C12.1256 18.8 12.2496 18.54 12.3216 18.26C12.3936 17.972 12.4296 17.68 12.4296 17.384C12.4296 16.432 12.0136 15.768 11.1816 15.392C11.7656 15.016 12.0576 14.432 12.0576 13.64C12.0576 13.376 12.0296 13.116 11.9736 12.86C11.9176 12.604 11.8176 12.364 11.6736 12.14C11.5296 11.916 11.3456 11.732 11.1216 11.588C10.9056 11.436 10.6656 11.332 10.4016 11.276C10.1456 11.212 9.88559 11.18 9.62159 11.18H6.93359V20ZM9.62159 14.768H8.40959V12.512H9.62159C9.76559 12.512 9.90159 12.54 10.0296 12.596C10.1656 12.652 10.2736 12.736 10.3536 12.848C10.4416 12.96 10.5016 13.088 10.5336 13.232C10.5656 13.368 10.5816 13.504 10.5816 13.64C10.5816 13.784 10.5656 13.924 10.5336 14.06C10.5016 14.196 10.4416 14.324 10.3536 14.444C10.2736 14.556 10.1656 14.64 10.0296 14.696C9.90159 14.744 9.76559 14.768 9.62159 14.768ZM8.40959 18.668V16.112H9.62159C9.79759 16.112 9.96959 16.136 10.1376 16.184C10.3136 16.232 10.4656 16.316 10.5936 16.436C10.7216 16.556 10.8136 16.7 10.8696 16.868C10.9256 17.036 10.9536 17.208 10.9536 17.384C10.9536 17.56 10.9256 17.732 10.8696 17.9C10.8136 18.068 10.7216 18.216 10.5936 18.344C10.4656 18.464 10.3136 18.548 10.1376 18.596C9.96959 18.644 9.79759 18.668 9.62159 18.668H8.40959ZM16.4997 20.096C16.7797 20.096 17.0557 20.068 17.3277 20.012C17.6077 19.956 17.8677 19.852 18.1077 19.7C18.3477 19.548 18.5477 19.356 18.7077 19.124C18.8757 18.892 18.9917 18.64 19.0557 18.368C19.1197 18.088 19.1517 17.808 19.1517 17.528V11.18H17.6757V17.528C17.6757 17.688 17.6517 17.848 17.6037 18.008C17.5637 18.16 17.4877 18.3 17.3757 18.428C17.2637 18.548 17.1277 18.636 16.9677 18.692C16.8157 18.74 16.6597 18.764 16.4997 18.764C16.3397 18.764 16.1797 18.74 16.0197 18.692C15.8677 18.636 15.7357 18.548 15.6237 18.428C15.5117 18.3 15.4317 18.16 15.3837 18.008C15.3437 17.848 15.3237 17.688 15.3237 17.528V11.18H13.8477V17.528C13.8477 17.808 13.8797 18.088 13.9437 18.368C14.0077 18.64 14.1197 18.892 14.2797 19.124C14.4477 19.356 14.6517 19.548 14.8917 19.7C15.1317 19.852 15.3877 19.956 15.6597 20.012C15.9397 20.068 16.2197 20.096 16.4997 20.096Z" fill="black"/>
</g>
<defs>
<clipPath id="clip0_3393:12187">
<rect width="32" height="32" fill="white" transform="translate(0.441406)"/>
</clipPath>
</defs>
</svg>
