<svg xmlns="http://www.w3.org/2000/svg" width="1000" height="1000">
  <path d="M834.7 310.3c-11.873-5.938-25.232-7.422-38.59 2.968-13.358 8.905-23.748 7.42-37.107-2.969-26.716-13.358-53.433-28.2-77.18-41.56-13.36-10.389-26.718-11.873-41.56-2.968-26.717 16.327-54.918 32.654-83.119 47.497-13.358 7.42-23.748 8.905-35.622 0-13.358-8.906-28.2-10.39-41.559 0-13.358 11.874-25.232 7.42-40.075-2.969-25.232-16.327-54.918-29.685-83.118-47.496-10.39-5.937-19.296-5.937-32.654 0-22.264 13.358-44.528 23.748-66.792 37.106-17.81 13.359-40.075 29.685-63.823 7.422-4.453-2.969-16.327 2.968-25.232 5.937 2.968 7.42 4.453 16.326 5.937 23.748 2.968 2.968 8.905 2.968 10.39 4.452 16.326 7.422 20.78 19.296 19.295 38.591 0 25.233 1.484 51.95 0 78.666-2.969 26.716 8.906 38.59 28.2 50.465 23.749 10.39 47.497 26.716 72.73 38.59 13.358 5.937 22.263 16.327 19.295 32.654-1.484 17.811 4.453 28.2 20.78 35.622 16.326 8.906 20.78 19.296 17.81 37.107 0 31.17 2.97 59.37 0 89.055 0 16.327 5.938 26.717 20.78 34.138 17.811 10.39 34.138 20.78 51.95 31.17 25.232 13.358 53.433 22.263 47.495 60.854 0 4.453 10.39 13.358 19.296 13.358 4.453 2.969 10.39-7.42 14.842-13.358 1.485-4.453 1.485-10.39 1.485-17.811 0-41.56 2.968-86.087 2.968-126.162 0-20.78 7.421-31.17 23.748-40.075 37.107-22.264 71.245-43.043 108.351-65.307 14.843-10.39 22.264-20.78 22.264-38.591 0-43.043 1.484-87.571 1.484-127.646 0-20.78 5.937-32.654 22.264-40.075 38.59-22.264 77.182-48.98 115.772-71.245 13.359-5.937 19.296-16.326 19.296-31.169zM5 590.823V427.555c40.075 10.39 40.075 13.359 40.075 48.98 0 26.718 4.453 56.403 0 83.12 0 14.842 5.937 26.716 20.78 32.653 29.685 16.327 57.886 34.138 94.992 54.918V359.28c-22.263 13.358-47.496 22.263-65.307 37.106-26.717 17.811-46.012 16.327-71.244-5.937 35.622-22.264 66.791-41.56 103.898-59.37 23.748-11.874 38.59-31.17 35.622-62.34-2.969-38.59 0-75.696 0-115.771 37.106 11.874 40.075 13.358 40.075 48.98v80.15c87.571-47.496 169.205-93.508 253.808-143.973-40.075-22.264-74.213-44.528-111.32-63.823-4.452-2.968-13.358 1.484-19.295 5.937-26.716 13.358-53.433 29.685-77.181 44.528-32.654 17.81-32.654 17.81-65.307-10.39 50.464-28.2 94.992-56.402 145.457-83.118 7.421-4.453 22.264 0 31.17 4.452 38.59 22.264 77.18 40.075 115.771 63.823 16.327 11.874 29.686 11.874 46.012 0 38.591-19.295 75.698-40.075 109.836-62.338 17.81-10.39 32.653-10.39 48.98-1.485 41.56 28.201 89.056 51.95 130.615 78.666-23.748 26.717-29.685 28.2-60.855 10.39-29.685-16.327-60.854-34.138-94.992-54.918-35.623 22.264-72.729 44.528-115.772 68.276 20.78 10.39 35.622 22.264 51.949 31.17 28.2 13.358 56.401 29.685 83.118 47.496 17.811 10.39 31.17 10.39 47.496-1.484 28.201-17.812 54.918-34.138 83.119-50.465 8.905-4.453 17.81-10.39 28.2-16.327v161.784c47.497 25.232 92.025 50.465 138.037 77.181-23.748 26.717-43.044 26.717-66.792 8.906-20.78-14.843-43.043-23.748-66.792-38.59v157.33c53.434-29.685 100.93-60.854 154.363-92.023v23.748c1.485 44.528 0 90.54 1.485 135.067 0 16.327-5.938 26.717-22.264 37.107-35.623 22.264-72.729 43.043-109.835 62.339-19.296 11.874-28.201 22.263-28.201 46.012 2.968 41.559 0 83.118 2.968 123.193 0 19.295-5.937 34.138-25.232 41.56-41.56 26.716-89.056 53.432-135.068 78.665v-181.08c-46.012 25.233-87.57 50.465-133.583 78.666 26.717 13.358 46.012 25.232 68.276 37.107 32.654 19.295 32.654 19.295 26.717 63.823-46.012-26.717-93.509-50.465-139.52-77.182-44.528 23.748-89.056 50.465-139.52 78.666v-44.528c1.483-29.685 1.483-57.886 2.968-86.087 0-20.78-5.937-31.17-25.233-43.043-35.622-16.327-69.76-38.591-108.35-59.37l-23.749-11.875c0 43.044-1.484 83.119 0 120.225 0 7.421 11.874 16.327 17.811 19.296 23.748 14.842 48.98 26.716 72.729 43.043 32.654 16.327 32.654 17.811 25.232 60.855-22.264-10.39-43.043-23.749-65.307-34.138-23.748-16.327-47.496-29.685-71.244-43.044-16.327-7.421-22.264-19.295-22.264-37.106 1.484-44.528 0-87.571 1.484-130.615 0-20.78-5.937-31.17-20.78-40.075-40.075-20.78-77.181-43.043-115.772-65.307C15.39 613.088 5 604.182 5 590.824zm198.891-48.98c0 44.527 0 83.118 1.484 120.224 0 4.453 2.969 13.359 7.422 14.843 34.137 20.78 66.791 38.59 108.35 60.854v-118.74c0-4.453-8.905-14.843-14.842-17.811-29.685-20.78-62.34-37.107-102.414-59.37zm158.816 26.716V446.85c0-14.842 5.937-26.716 19.295-32.653 34.138-22.264 69.76-44.528 105.382-62.339 17.811-11.874 34.138-2.968 34.138 17.811 1.484 29.686 1.484 57.886 0 89.056-2.968 22.264 4.453 37.106 26.717 48.98 25.232 11.874 51.949 28.201 75.697 41.56 8.906 7.42 14.843 19.295 14.843 29.685 0 13.358-16.327 17.81-28.201 11.874-28.201-19.296-59.37-34.138-87.572-51.95-16.326-10.389-29.685-13.358-46.012 0-31.169 17.812-59.37 32.654-84.602 48.981-20.78 10.39-35.622 2.969-29.685-19.295zm20.78-338.41c41.558 23.747 78.665 46.011 115.771 68.275 40.075-22.264 77.182-44.528 121.71-66.792-44.528-26.716-83.119-48.98-121.71-68.275-38.59 19.295-75.697 41.559-115.772 66.791z" style="fill:#000;fill-opacity:1;fill-rule:nonzero;stroke:none;"/>
</svg>
