<svg xmlns="http://www.w3.org/2000/svg" viewBox="0 0 1000 1000"><path d="M155.155 471.574V349.296c0-28.57-5.714-29.713-23.999-29.713h-94.85c-11.429 0-22.856-6.856-28.57-13.713-6.857-3.428 0-13.713 11.427-28.57 41.14-46.854 87.995-94.85 135.992-141.705 18.284-17.142 28.57-17.142 46.854 0 52.568 46.854 100.565 94.851 147.42 141.705 28.569 28.57 28.569 28.57 53.71 6.857 35.426-35.426 63.996-66.281 99.422-94.851 17.142-11.428 35.427-17.142 60.568-17.142 135.991-6.857 269.697 0 411.402 0 25.142 0 26.284 30.855 8 41.14-46.854 39.998-95.994 81.138-149.705 124.564-86.852 76.566-175.989 147.42-263.983 222.843-13.714 5.714-17.142 23.998-17.142 41.14V814.41c0 18.285-13.713 44.569-18.284 62.853-13.714-11.428-35.427-27.427-47.997-38.854-93.709-87.995-188.56-182.846-290.268-271.983-28.57-28.57-45.711-52.568-39.997-94.851zM88.873 277.3c25.142 0 49.14 6.857 60.568-5.714 11.428-11.427 5.714-41.14 11.428-63.996 0-11.427 0-11.427-11.428 0-18.285 22.856-42.283 45.712-60.568 63.996zm118.85 236.557c46.854 41.14 89.137 77.71 124.563 113.135 42.283 35.427 42.283 35.427 77.71 3.429C551.7 513.857 692.264 401.864 827.112 284.157c30.855-23.998 52.568-42.283 83.423-66.281 0-4.572 0-4.572-5.714-4.572-106.278 0-219.414-5.714-330.264 0-19.428 0-36.57 4.572-47.997 17.142-94.851 82.28-182.846 166.847-271.983 247.984-17.142 10.285-27.427 23.999-46.854 35.427zm0-45.712c42.283-43.425 83.423-84.566 124.563-118.85 6.857-7.999 0-19.427-6.856-25.14-34.284-39.998-75.424-75.424-117.707-124.564zm205.701 228.557c30.855 29.713 60.568 60.568 84.566 89.137 4.571 0 4.571-6.856 4.571-6.856V613.279c-86.851 76.567-62.853 58.282-89.137 83.423z"/></svg>