<svg xmlns="http://www.w3.org/2000/svg" width="1000" height="1000">
  <path d="M548.877 642.647h174.564c30.258 0 70.99-18.62 81.464-40.731 70.989-100.084 122.194-215.296 181.546-315.38 22.112-40.731 0-70.99-51.205-81.463H292.85c-52.37 0-84.955-12.801-111.721-64.007-22.112-40.731-115.213-48.878-155.944-30.258-32.586 18.62-23.276 75.645 10.473 81.464 64.007 12.801 81.464 41.895 104.739 94.264 18.62 40.732 40.732 91.937 70.99 140.815 122.194 256.028 69.825 215.296 337.49 215.296zM311.47 798.591c0 59.352 40.731 100.084 104.738 100.084 61.68 0 91.937-29.094 91.937-93.101 0-59.352-40.731-100.084-91.937-100.084-64.007 0-104.738 40.732-104.738 93.101zm308.396 6.983c0 52.37 39.568 93.1 103.575 93.1 59.352 0 100.084-40.73 100.084-100.083 0-52.369-40.732-93.1-100.084-93.1-52.369 0-103.575 40.731-103.575 100.083z" style="fill:#000;fill-opacity:1;fill-rule:nonzero;stroke:none;"/>
</svg>
