<?xml version="1.0" encoding="UTF-8"?><svg id="a" xmlns="http://www.w3.org/2000/svg" viewBox="0 0 1000 1000"><path d="M502.008,736.948c40.161,0,80.321-12.048,120.482-32.128,112.45-64.257,152.61-212.851,88.353-325.301-64.257-112.45-212.851-152.61-325.301-88.353-56.225,32.129-92.37,84.337-112.45,144.578-16.064,60.241-8.032,124.498,24.096,180.723,40.161,80.321,120.482,120.482,204.819,120.482Zm-156.627-277.108c12.048-40.161,36.145-76.305,76.305-96.385,24.096-16.064,52.209-20.08,80.321-20.08,56.225,0,108.434,28.112,140.562,80.321,44.177,76.305,16.064,176.707-60.241,220.884-76.305,44.177-176.707,16.064-220.884-60.241-20.08-40.161-28.112-84.337-16.064-124.498Zm421.687-116.466c-32.129-52.209-40.161-112.45-24.096-176.707,8.032-28.112,20.08-56.225,40.161-80.321,24.096,16.064,40.161,32.128,60.241,48.193-12.048,16.064-24.096,32.128-28.112,52.209-12.048,40.161-4.016,80.321,16.064,116.466,24.096,36.145,56.225,60.241,96.385,72.289,20.08,4.016,40.161,8.032,60.241,4.016,4.016,28.112,8.032,52.209,12.048,76.305-12.048,4.016-20.08,4.016-32.128,4.016-20.08,0-40.161-4.016-60.241-8.032-60.241-16.064-108.434-56.225-140.562-108.434Zm232.932,200.803c-4.016,28.112-8.032,52.209-12.048,76.305-20.08-4.016-40.161,0-60.241,4.016-40.161,12.048-76.305,36.145-96.386,72.289-20.08,36.145-28.112,76.305-16.064,116.466,8.032,20.08,16.064,36.145,28.112,52.209-20.08,16.064-40.161,32.129-60.241,48.193-16.064-24.096-32.128-48.193-40.161-80.321-16.064-60.241-8.032-124.498,24.096-176.707,32.128-56.225,80.321-92.37,140.562-108.434,32.128-8.032,60.241-12.048,92.369-4.016Zm-285.141,409.638c-24.096,12.048-48.193,20.08-72.289,28.112-24.096-56.225-80.321-96.385-144.578-96.385s-116.466,40.161-136.546,96.385c-24.096-8.032-48.193-16.064-72.289-28.112,32.129-84.337,116.466-144.578,212.851-144.578s176.707,60.241,212.851,144.578ZM277.108,46.185c24.096-12.048,48.193-20.08,72.289-28.112,24.096,56.225,80.321,96.385,144.578,96.385s120.482-40.161,144.578-96.385c28.112,8.032,48.193,16.064,72.289,28.112-32.128,84.337-116.466,144.578-212.851,144.578s-176.707-60.241-220.884-144.578Zm-44.177,610.442c48.193,80.321,36.145,184.739-16.064,261.044-24.096-16.064-40.161-32.129-60.241-48.193,36.145-48.193,44.177-116.466,12.048-172.691-24.096-36.145-56.225-60.241-96.386-72.289-12.048-4.016-28.112-4.016-40.161-4.016H12.048c-4.016-28.112-8.032-52.209-12.048-76.305,32.129-4.016,60.241-4.016,92.369,4.016,60.241,16.064,108.434,56.225,140.562,108.434Zm24.096-489.96c16.064,60.241,8.032,124.498-24.096,176.707-32.128,56.225-80.321,92.369-140.562,108.434-20.08,8.032-40.161,8.032-60.241,8.032-12.048,0-20.08-4.016-32.129-4.016,4.016-28.112,8.032-52.209,12.048-76.305,20.08,4.016,40.161,0,60.241-4.016,40.161-12.048,76.305-36.145,96.386-72.289,20.08-36.145,28.112-76.305,16.064-116.466-8.032-20.08-16.064-36.145-28.112-52.209,16.064-16.064,36.145-32.128,60.241-48.193,16.064,24.096,32.128,48.193,40.161,80.321Z" fill="#1a1a1d"/></svg>