<svg xmlns="http://www.w3.org/2000/svg" viewBox="0 0 1000 1000"><path d="M173.3 988.483C86.305 962.007 42.178 872.492 81.262 798.106c35.301-78.168 126.078-105.906 199.203-61.778 30.258 16.39 64.3 7.564 76.907-22.694 2.522-6.304 2.522-12.608 2.522-21.434 0-26.476 2.521-51.691 18.911-75.646 23.955-47.91 66.822-69.343 121.035-70.604 26.476 0 50.431 5.043 75.647 16.39 20.172 12.608 39.084 12.608 55.474 0 16.39-8.825 23.955-25.215 23.955-41.605 0-22.694 1.26-39.085 7.564-60.518 18.912-51.692 71.865-86.993 128.6-88.254 71.864-3.783 134.903 51.692 141.207 118.513 3.782 50.431-5.043 86.994-47.91 121.035-27.737 27.737-66.82 37.823-110.948 32.78-17.651-3.782-36.563-8.826-54.214-18.912-30.258-20.172-69.342 0-75.646 32.78-3.783 11.347 0 22.694 0 28.998-3.783 40.345-18.912 71.865-47.91 99.602-34.04 25.215-70.603 36.562-114.73 31.52-20.173-5.044-36.563-13.87-56.736-20.173-25.215-13.869-50.43-3.783-69.342 15.13-6.304 15.128-6.304 26.475-6.304 41.605 0 90.776-94.559 162.64-175.249 133.642zM71.175 516.953V498.04c3.783-49.17 27.738-88.255 73.126-110.949 45.388-23.955 90.776-23.955 136.164 3.782 25.215 12.608 46.648 11.347 68.082-8.825 8.825-10.086 13.868-23.955 11.347-36.563 0-52.952 21.433-95.819 66.82-126.077 54.214-35.302 129.861-26.477 175.25 21.433 47.909 47.91 52.952 123.556 12.607 176.509-42.867 56.735-114.73 71.864-177.77 40.345-5.043-2.522-8.825-3.783-12.608-6.304-34.04-15.13-75.646 3.782-75.646 42.866 0 20.173 0 41.606-5.043 59.257-31.52 84.472-133.643 118.513-208.029 71.864-40.345-23.955-60.517-60.517-64.3-108.427zM88.827 87.026c6.304-7.565-10.086-21.433 6.304-35.302 11.347-6.304 16.39-6.304 26.477 0 7.564 3.782 8.825 0 12.607 0 25.216-11.347 51.692-22.694 51.692-25.215 2.522-7.565 1.261-21.434 11.347-21.434 10.087 0 22.694-2.521 28.998 21.434 11.347 5.043 40.345 16.39 55.474 21.433 3.783 0 6.304 0 10.087-2.522 13.868-7.564 20.172-2.521 27.737 2.522 7.564 6.304 7.564 13.868 1.26 23.955-1.26 8.825-1.26 10.086 0 15.129 6.304 15.13 16.39 31.52 18.912 45.388 3.783 6.304 5.043 11.347 13.869 11.347 8.825 1.26 10.086 8.825 12.608 18.912 0 8.825-2.522 15.129-11.347 16.39-10.087 5.043-15.13 13.868-17.651 23.954-5.043 8.826-10.087 16.39-13.869 25.216-3.782 10.086-5.043 17.65-2.521 26.476 6.303 10.087-6.304 25.216-16.39 22.694-12.608-2.521-16.39 0-23.955 5.044-55.475 31.519-127.339 18.911-173.988-26.477-41.605-42.866-52.952-107.166-17.65-168.944zm28.998 0c-3.782 5.043 3.783 23.955 17.651 20.172 5.043-5.043 11.347-8.825 17.651-15.129V81.984c-7.565-7.565-22.694-8.826-35.302 5.043zm12.608-23.955c10.086 5.043 22.694 8.826 30.259-1.26 1.26-1.261 7.564-5.044 8.825-5.044 16.39 3.783 16.39-8.825 20.173-13.868-10.087 0-49.17 13.868-59.257 20.172zm59.257-1.26c0 10.086 0 20.172 3.782 30.258 0 1.26 3.782 3.782 5.043 3.782 2.522 2.522 5.043 2.522 8.826 2.522 17.65-3.782 21.433-18.912 18.911-27.737 0-8.826-10.086-25.216-13.868-25.216-5.043 0-11.347 0-13.869 2.522-3.782 3.782-8.825 8.825-8.825 13.868zm35.301-23.955c3.783 7.564 18.912 16.39 27.738 22.694 13.868 7.564 20.172 2.521 28.997 0-16.39-8.826-37.823-15.13-56.735-23.955zm3.783 83.21c2.521 11.348 5.043 17.652 11.347 20.173 6.304 3.783 21.433 2.522 30.258 2.522 12.608-6.304-3.782-57.996-26.476-47.91h-1.26c-16.39 5.043-13.87 7.565-13.87 25.216zm36.562-28.997c5.043 3.782 7.565 7.565 13.869 12.608 2.521 3.782 8.825 3.782 12.608-2.522 5.043-3.782 5.043-10.086 6.304-17.65 0-7.565-11.347-13.87-26.477-8.826-6.304 1.26-10.086 8.825-6.304 16.39zm7.565 73.125c0 10.086 6.304 13.869 12.608 13.869h16.39c5.043 1.26 10.086 0 16.39-1.261 8.825-6.304 8.825-13.869 8.825-21.433-6.303-6.304-16.39-12.608-22.694-11.347-6.303 2.521-16.39 2.521-18.911 2.521-6.304-2.521-12.608 2.522-12.608 8.826zm34.041 73.125h3.782c7.565-18.911 16.39-39.084 26.477-57.996h-5.043c-11.347 6.304-20.173 7.565-17.651 18.912 0 3.782-2.522 7.565-3.783 10.086-8.825 6.304-6.304 17.651-3.782 28.998zm3.782-119.774c1.261 2.522 1.261 7.565 1.261 8.826 2.522 11.347 7.565 16.39 25.216 17.65-10.087-18.911-18.912-40.344-26.477-60.517-5.043 11.347-12.607 22.694 0 34.041z"/></svg>