<svg xmlns="http://www.w3.org/2000/svg" width="1000" height="1000">
  <path d="M5 558.825c0-24.07 25.274-57.767 56.564-61.378 38.512-6.017 73.413 16.85 79.43 56.564 4.814 26.477-4.814 48.14-25.273 64.989-45.732 36.104-110.72 7.22-110.72-60.175zm10.832-215.424c0-54.157 44.529-96.279 97.482-95.075 56.564 0 97.483 43.325 97.483 97.482-2.407 55.36-48.14 97.483-97.483 95.076-52.953 2.407-97.482-42.122-97.482-97.483zm45.732 426.035c0-57.768 44.53-99.89 101.093-99.89 56.564 0 101.093 44.53 99.89 99.89 1.203 55.36-44.53 101.092-101.093 101.092-52.954-1.203-99.89-42.122-99.89-101.092zm125.163-606.558c0-27.68 21.663-54.157 51.75-54.157 27.68 0 54.157 22.866 54.157 52.954 0 27.68-21.663 51.75-50.547 51.75-28.883 3.61-52.953-20.46-55.36-50.547zm69.802 216.628c0-2.407 1.204-2.407 1.204-2.407 24.07-14.442 49.343-28.884 73.412-42.122 1.204-2.407 3.61-2.407 4.814 0 26.477 13.238 49.343 27.68 74.617 44.529 2.406 0 3.61 3.61 3.61 4.814v256.342c0 8.425 0 7.221-7.22 10.832-22.867 13.238-45.733 25.273-71.007 39.715 0 0-1.203 1.203-3.61 1.203v-258.75c0-4.813-1.204-8.424-3.61-9.627-24.07-15.646-46.937-26.477-69.803-40.919-1.203-3.61-1.203-3.61-2.407-3.61zm74.616 524.72c0-12.035 6.018-19.256 18.053-18.052 12.035 1.203 16.849 8.424 16.849 18.052s-9.628 18.052-16.85 18.052c-12.034-1.203-18.052-8.424-18.052-18.052zm83.041-836.423C419 52.157 431.035 37.715 446.68 37.715h10.832c16.848 0 31.29 15.646 33.697 33.698 2.407 13.238-3.61 31.29-16.849 37.308-15.645 10.832-32.494 8.425-44.529-1.203-14.442-8.425-20.459-24.07-15.645-39.715zm1.203 311.703c0-2.407 2.407-2.407 3.61-3.61 12.036-7.222 26.478-15.646 38.513-22.867 13.238-8.424 33.697-24.07 40.918-18.052 14.442 8.424 28.884 18.052 43.326 25.273 8.424 7.22 19.255 12.035 26.476 16.849 4.814 2.407 6.018 6.017 6.018 8.424v258.75c0 3.61-1.204 4.814-6.018 6.017-22.866 14.442-48.14 26.477-73.412 40.919l-1.204 1.203v-258.75c0-8.424 0-8.424-6.017-9.627-24.07-15.646-46.936-28.884-68.6-40.919-1.203-3.61-1.203-3.61-3.61-3.61zm123.96 537.958c8.424-9.627 19.255-10.83 28.883-7.22 33.698 9.627 14.442 67.395-22.866 48.14-13.238-8.425-16.849-28.885-6.017-40.92zm37.308-537.958c2.407-2.407 3.61-3.61 7.22-4.814 21.663-13.239 44.53-26.477 66.192-39.715 3.61-2.407 4.814-2.407 7.221 0 25.274 13.238 48.14 27.68 73.413 42.122 3.61 2.407 3.61 6.017 3.61 8.424v256.343c0 6.017-2.406 7.22-4.813 8.424-14.442 9.628-30.088 19.256-45.733 26.477-9.628 4.814-18.052 10.831-26.477 14.442-1.203 0-2.407 1.203-3.61 1.203V432.46c0-3.61-2.407-7.22-3.61-7.22-24.07-14.443-45.733-27.68-69.803-42.123-1.203 0-2.407-3.61-3.61-3.61zm63.785-271.988c0-16.85 14.441-33.698 33.697-33.698s33.698 15.645 33.698 33.698c0 19.255-14.442 33.697-33.698 34.9-18.052 0-33.697-15.645-33.697-34.9zm90.261 747.365c0-22.866 16.849-40.918 40.919-40.918 22.866 0 39.715 16.848 39.715 40.918 0 21.663-16.85 37.308-39.715 39.715-21.663 0-40.919-18.052-40.919-39.715zm97.483-605.354c0-13.238 9.627-24.07 25.273-24.07 14.442 0 24.07 10.832 24.07 24.07 0 14.442-9.628 24.07-24.07 24.07-13.239 0-25.273-7.221-25.273-24.07zm27.68 428.442c0-27.68 24.07-50.547 54.157-49.343 27.68 0 49.343 22.866 49.343 49.343 0 28.883-24.07 52.953-51.75 51.75-27.68 1.203-51.75-22.867-51.75-51.75zm38.511-256.343c9.628-13.239 21.663-18.052 36.105-20.46 20.46-1.203 34.901 3.611 49.343 15.646 21.663 22.866 22.866 72.21-14.442 92.668-21.663 13.239-51.75 8.425-68.599-10.831-19.256-20.46-21.662-54.157-2.407-77.023z" style="fill:#000;fill-opacity:1;fill-rule:nonzero;stroke:none;"/>
</svg>
