<svg xmlns="http://www.w3.org/2000/svg" viewBox="0 0 1000 1000"><path d="M5 500.496c0-90 22.747-173.077 67.253-250.22 44.506-74.177 103.846-133.517 178.023-178.023C327.419 27.747 410.496 5 500.496 5c89.011 0 172.089 22.747 249.232 67.253 74.176 44.506 133.517 103.846 178.022 178.023 44.506 77.143 67.253 160.22 67.253 249.231 0 90-22.747 173.078-67.253 250.22-44.505 74.177-103.846 133.518-178.022 178.023-77.143 44.506-160.22 67.253-249.232 67.253-90 0-173.077-22.747-250.22-67.253-74.177-44.505-133.517-103.846-178.023-178.022C27.747 672.585 5 589.508 5 500.496zm266.045-66.264c0 60.33 22.747 111.759 79.121 145.385 91.978 53.407 189.89 23.737 271.979-4.945v61.32c0 12.856-3.956 17.801-17.802 17.801H515.33c-19.78 0-19.78 13.847-19.78 28.682 0 13.846 0 27.692 19.78 27.692h89.012c13.846 0 17.802 4.945 17.802 19.78v55.385c0 71.21 14.835 62.308 51.429 62.308 25.714 0 33.626-.989 33.626-19.78v-97.913c0-8.9 0-23.736 13.846-23.736 21.759 0 21.759-47.473 4.945-47.473-18.79-4.945-13.846-22.747-13.846-36.593v-371.87c0-66.263 0-66.263-60.33-66.263-23.736 0-29.67 8.9-29.67 27.692v259.122c0 23.736-8.901 33.626-27.692 42.527-36.594 13.847-70.22 23.737-112.748 18.792-65.275-4.945-112.748-37.583-121.649-103.847-4.945-60.33-2.967-113.737-4.945-182.968 0-70.22 9.89-55.384-56.374-61.318-23.736 0-27.692 5.934-27.692 27.692z"/></svg>