<svg xmlns="http://www.w3.org/2000/svg" viewBox="0 0 1000 1000"><path d="M697.2,598.828l-5.776-2.322c-22.776-9.168-32.354-12.539-35.623-9.456a18.705,18.705,0,0,1-29.538-22.015c.514-1.027.905-1.85,1.213-2.528v-.164l-2.261-3.844c-2.055-3.721-4.913-7.873-8.222-12.662A256.142,256.142,0,0,1,571.61,437.963a18.5,18.5,0,0,1,.925-9.62,363.755,363.755,0,0,0,15.827-55.89,149.725,149.725,0,0,1-158.728-73.465c-.883-1.439-1.911-3.083-2.9-4.645a143.1,143.1,0,0,0-17.554,15.519L320.362,413.44l-6.043,11.244c87.586,114.431,148.409,193.405,181.915,233.94a188.23,188.23,0,0,0,65.533,24.851h11.8a18.687,18.687,0,0,1,5.6,1.057l125.4,1c16.649-.884,32.559-2.22,45.221-3.618a4.36,4.36,0,0,0,3.577-2.713C764.932,648.1,743.411,617.307,697.2,598.828ZM527.208,560.795a18.724,18.724,0,0,1-16.545,10.037l-.041.1a18.709,18.709,0,0,1-15.4-8.058l-44.666-64.5a18.705,18.705,0,0,1,13.073-29.23l12.97-1.583-27.914-40.453a18.724,18.724,0,0,1,30.833-21.254l45.468,65.777a18.725,18.725,0,0,1-13.114,29.209l-12.909,1.583,27.072,39.055A18.727,18.727,0,0,1,527.208,560.795ZM500,0C223.858,0,0,223.858,0,500s223.858,500,500,500,500-223.858,500-500S776.142,0,500,0ZM788.427,692.375a41.541,41.541,0,0,1-34.512,26.866c-13.258,1.336-29.949,2.755-48.593,3.7l-140.536-1.274c-1.77-.23-3.533-.489-5.294-.761H343.59a18.726,18.726,0,0,1,0-37.431H468.232q-12.347-14.9-29.619-36.748c-.375.022-.746.057-1.126.057H287.309a18.706,18.706,0,0,1,0-37.411H409.4q-13.086-16.884-28.059-36.425a18.869,18.869,0,0,1-2.231.145H240.423a18.706,18.706,0,0,1,0-37.411H352.906q-13.352-17.564-27.883-36.794H217.709a18.705,18.705,0,1,1,0-37.41h79.112c-3.756-4.994-7.545-10.033-11.4-15.17a35.973,35.973,0,0,1-4.111-39.178l7.01-13.074a17.543,17.543,0,0,1,2.281-3.35l90.834-105.88c38.274-40.042,54.821-30.834,60.227-27.894a57.771,57.771,0,0,1,19.816,22.611A112.417,112.417,0,0,0,581.97,335.7a37.72,37.72,0,0,1,38.685,5.015,27.278,27.278,0,0,1,6.269,25.222,329.964,329.964,0,0,1-17.6,70.813,221.28,221.28,0,0,0,38.726,88.388c3.823,5.673,7.112,10.647,9.6,15.046l1.789,3.042a54.815,54.815,0,0,1,3.021,5.53,160.059,160.059,0,0,1,42.92,13.176l5.714,2.281C777.2,590.668,807.564,640.987,788.427,692.375ZM843.5,617.41a18.536,18.536,0,1,1-35.067-12.025,326.151,326.151,0,1,0-165.265,187.4A18.509,18.509,0,1,1,659.5,826.005,362.917,362.917,0,1,1,843.5,617.41Z"/></svg>