<svg xmlns="http://www.w3.org/2000/svg" viewBox="0 0 1000 1000"><path d="M675.106 587.364v92.823c0 17.801-6.358 26.702-27.974 26.702H516.163c-30.516 0-30.516 19.073-30.516 41.96 0 20.345 0 39.418 30.516 39.418h130.969c21.616 0 27.974 8.901 27.974 31.789v81.378c0 108.081 22.887 92.823 76.292 92.823 39.418 0 50.862-1.272 50.862-29.246V820.056c0-13.987 0-36.875 21.616-36.875 31.788 0 31.788-71.206 7.629-71.206-29.245-5.086-21.616-31.788-21.616-54.676v-554.39C809.889 5 809.889 5 718.338 5c-34.332 0-43.232 13.987-43.232 41.96v385.277c0 36.874-13.987 49.59-40.69 63.577-55.947 21.616-105.537 35.603-167.843 27.974-99.18-6.358-170.386-54.677-183.101-155.128-6.358-89.008-2.543-169.115-6.358-273.38 0-104.267 13.987-82.65-83.921-90.28-36.875 0-41.961 7.63-41.961 41.96v330.6c0 91.551 34.332 167.844 118.253 217.434 137.326 78.835 283.553 35.603 405.62-7.63z"/></svg>