<svg xmlns="http://www.w3.org/2000/svg" width="1000" height="1000">
  <path d="M854.926 864.022H995c0-9.478-6.319-17.904-6.319-22.117-72.67-207.479-151.66-417.064-223.277-625.596-40.02-89.52-5.266-80.042-115.85-80.042-67.405 0-67.405 0-93.735 64.244-57.925 163.245-113.744 329.65-179.042 491.841 0 9.479-9.48 21.064-14.745 26.33H214.585c68.458-201.16 137.968-385.468 209.585-582.415H289.362c-16.851 0-27.383 8.425-31.596 22.117C179.83 389.033 94.521 612.309 12.372 841.905c0 4.213 0 12.639-7.372 22.117h456.032c6.32 0 15.798-9.478 20.01-22.117 11.586-31.596 26.33-71.617 37.916-108.479 4.212-10.531 10.531-14.744 27.383-14.744h222.223c16.851 0 21.064 4.213 27.383 18.957 10.532 37.915 25.277 72.67 41.074 108.479 0 8.426 11.586 17.904 17.905 17.904zm-272.777-297c24.223-68.457 46.34-137.968 72.67-215.904 30.543 77.936 51.607 147.447 78.99 215.904z" style="fill:#000;fill-opacity:1;fill-rule:nonzero;stroke:none;"/>
</svg>
