<svg xmlns="http://www.w3.org/2000/svg" width="1000" height="1000">
  <path d="M202.378 994.997c0-7.471 16.188-77.207 21.17-92.15l22.415-113.32 23.66-99.623c7.472-28.642 13.698-58.528 19.924-87.17 2.49-16.188 6.227-32.377 9.963-48.566 7.471-32.377 14.943-64.754 21.17-98.377 3.735-24.905 11.207-51.056 17.433-75.962 4.981-17.434 8.717-34.868 12.453-52.302L368 249.075c1.245 14.943 3.736 31.132 7.472 44.83 1.245 12.453 2.49 24.905 4.98 37.358 1.246 6.227 1.246 12.453 2.491 18.68 2.49 8.716 3.736 18.679 4.981 27.396 1.246 4.98 1.246 9.962 2.491 13.698 2.49 13.698 4.981 27.396 6.226 42.34 3.736 12.452 4.982 24.905 6.227 37.358 2.49 7.471 3.736 14.943 4.98 22.415l3.737 21.17 8.717 53.546c1.245 12.453 2.49 24.906 4.98 37.359 1.246 4.98 1.246 9.962 2.491 13.698l3.736 18.68c0 4.98 1.246 11.207 2.49 16.188 2.491 17.434 4.982 33.622 8.718 51.056 1.245 4.981 1.245 9.962 2.49 16.189 1.246 8.717 2.49 18.679 4.981 28.641l6.227 42.34c1.245 6.226 2.49 12.453 2.49 18.679 0 0-32.377 23.66-48.566 34.868-28.64 19.924-56.037 39.849-84.679 61.018-7.471 6.227-16.188 12.453-23.66 17.434-32.377 23.66-66 47.321-99.622 70.981zM372.98 245.34l16.189 36.113L569.735 688.66c31.132 69.735 32.378 70.98 52.302 120.792h-24.906c-12.452 0-24.905 0-37.358-1.246h-37.358c-14.944 0-31.132 0-46.076-1.245l-8.717-1.245c0-1.245-9.962-63.51-9.962-62.264-1.245-4.981-1.245-9.962-2.49-16.189-1.246-8.717-2.491-18.679-4.982-27.396l-8.717-52.302c-2.49-17.434-4.98-36.113-8.716-52.301-1.246-6.227-2.491-11.208-2.491-16.19-2.49-8.716-3.736-18.678-4.981-27.395l-8.717-54.793c-2.49-7.471-3.736-14.943-4.981-22.415l-3.736-21.17c-2.49-11.207-3.736-22.414-4.981-34.867-1.245-4.981-1.245-9.962-2.49-14.943l-8.718-53.548-8.717-49.81zm6.226-9.962c17.434 1.245 34.868 2.49 53.548 6.226 13.698 2.49 27.396 4.981 39.848 6.227l38.604 3.735 23.66 3.736c6.227 1.246 13.699 2.49 21.17 2.49l39.85 4.982c13.697 2.49 26.15 4.981 39.848 6.226-1.245 0 47.32 6.227 48.566 6.227 8.717 1.245 16.189 2.49 23.66 4.98 0 13.699-7.471 52.303-8.717 68.491l-4.98 28.642c-1.246 13.698-3.737 27.396-6.227 41.094-1.245 16.188-3.736 29.887-6.227 43.585l-4.98 34.867-4.982 27.397c-1.245 14.943-2.49 28.641-6.226 41.094l-3.736 38.604-4.981 29.886-4.981 37.359-7.472 44.83c-1.245 14.943-3.736 31.132-6.226 46.075l-4.981 36.113c0 2.49-1.246 3.736-1.246 6.227-58.528-134.49-122.037-273.962-184.301-413.433zm.155-20.187c12.423-21.032 24.751-40.956 34.713-62.002l2.49-2.49 139.472-54.793C489.041 139.74 383.94 209.85 379.332 215.203zm2.336 8.98c31.132-22.416 62.264-42.34 93.396-62.265L582.188 89.68h3.736c18.68 9.962 74.717 34.868 83.434 38.604L500 181.83c-41.095 13.698-78.453 28.641-118.302 42.34zm12.453 2.49L676.829 137l3.736 18.679c6.227 24.905 12.453 48.566 16.189 73.471l9.962 41.095-41.094-6.227-36.113-4.98c-6.227-1.246-12.453-2.491-19.925-2.491l-19.924-3.736-33.623-4.981-34.868-3.736c-3.735 0-7.471-1.246-11.207-1.246-6.227-1.245-12.453-2.49-18.68-2.49l-31.131-3.736c-6.227 0-23.66-3.736-66-9.962zm23.66-87.17 2.49-7.471c4.982-12.453 8.718-24.906 12.454-38.604 0-1.245 31.132-3.736 39.848-3.736 13.699 0 79.698-2.49 83.434-2.49-14.943 6.226-41.094 14.943-66 24.905-23.66 9.962-47.32 18.68-72.226 27.396zm19.925-57.283 34.867-37.358 1.246-1.245c1.245-1.246 1.245-1.246 2.49-1.246l84.68 36.114h-21.17c-2.491 0-31.132 2.49-41.095 2.49-1.245 0-47.32 1.245-61.018 1.245zm46.075-46.075 58.528-27.396L597.13 68.51c3.736 7.472 9.963 13.698 16.19 19.925l7.47 7.471zM557.282 5h54.793c2.49 0 3.736 0 4.98 1.245 9.963 9.963 18.68 21.17 27.397 31.132 1.245 0 4.981 3.736 7.472 6.227-6.227-2.49-12.453-4.981-19.925-8.717zm4.982 11.208 38.603 14.943c13.698 6.226 38.604 16.189 46.076 19.924L639.47 73.49c-4.981 16.189-4.981 17.434-8.717 22.415zm75.962 85.924 16.188-46.076c2.49 9.963 3.736 16.19 6.227 24.906l9.962 37.358zm11.207 661.243 68.49-473.206c18.68 23.66 42.34 56.038 43.585 54.792-4.98 22.415-11.207 43.585-17.434 66l-18.679 66-66 244.075c-3.735 16.188-4.98 27.396-9.962 42.34zm12.453-712.3 36.113 7.472 99.622 32.377-56.037 14.944c-26.151 7.471-49.811 13.698-59.774 14.943 0 1.245-1.245-6.226-1.245-6.226l-3.736-12.453c-1.245-3.736-8.717-27.396-14.943-51.057z" style="fill:#000;fill-opacity:1;fill-rule:nonzero;stroke:none;"/>
</svg>
