<svg xmlns="http://www.w3.org/2000/svg" viewBox="0 0 1000 1000"><path d="M136.783 5h726.434c15.744 0 15.744 0 15.744 16.868v709.566c0 12.37-4.498 16.868-11.246 22.49-86.587 57.35-170.925 113.576-256.388 168.677-30.362 22.49-62.973 42.732-94.459 65.222-14.619 10.12-20.241 8.996-34.86 0-91.085-64.097-183.295-123.696-276.63-186.669-23.614-15.743-48.354-31.486-73.093-49.479-8.996-3.373-11.245-7.871-11.245-20.24V19.618C121.04 5 122.165 5 136.783 5zm71.969 680.33c0 10.12 2.249 15.742 12.37 23.614 89.96 57.35 182.17 120.323 272.131 178.797 5.623 4.498 8.996 4.498 13.494 0 93.335-60.723 183.296-121.447 274.381-181.046 8.996-5.623 12.37-11.245 12.37-21.366-2.25-96.708 0-192.291 0-286.75V108.455c-2.25-12.37-2.25-14.619-13.494-14.619H221.122c-10.121 0-12.37 2.25-12.37 12.37v262.011c0 10.12 2.249 13.494 12.37 13.494 24.739-1.124 51.727 0 75.342-1.124 14.618 0 14.618 0 14.618-12.37v-147.31c0-19.118 5.623-26.99 23.615-26.99H526.99c29.237 0 53.976 3.374 78.715 17.993 82.09 35.984 102.33 147.311 38.234 201.288-5.623 4.498-3.374 7.871 0 13.494 12.37 15.743 29.237 30.362 34.86 46.105 37.108 80.964-19.117 190.042-122.572 194.54-74.218 1.125-148.436 0-222.653 0-16.868 0-22.49-6.747-22.49-24.74V481.794c0-8.996-3.374-13.494-12.37-13.494-25.864 2.249-49.479 0-74.218 0-15.743 0-15.743 2.249-15.743 15.743zm194.54-118.074c0 10.12 3.374 13.494 12.37 13.494 20.241-1.125 41.607 0 60.724 0v-1.125c19.116 0 35.984 1.125 55.1 0 8.997 0 14.62 0 20.242-2.249 48.354-10.12 52.852-58.474 34.86-84.338-13.494-17.992-37.11-22.49-57.35-22.49-39.358-2.25-74.218 0-113.576-2.25-8.996 0-12.37 4.499-12.37 13.495 2.25 28.113 2.25 58.474 0 85.463zm0-196.79c0 7.872 3.374 11.245 12.37 11.245 20.241-1.124 39.358 0 58.475 0v-1.124c15.743 0 32.61 1.124 49.478 0 10.12 0 17.992 0 28.113-2.25 19.117-4.497 32.61-19.116 34.86-34.86 2.249-23.614-2.25-42.73-21.366-50.602-8.996-6.747-22.49-10.12-33.735-11.245H415.662c-8.996 0-12.37 1.124-12.37 11.245 2.25 24.74 2.25 52.852 0 77.591z"/></svg>