<svg xmlns="http://www.w3.org/2000/svg" viewBox="0 0 1000 1000"><path d="M173.55 242.993v512.22c59.158-62.044 111.102-125.53 170.26-187.574 2.885 4.329 10.1 7.215 12.985 14.429 25.972 25.972 53.386 50.5 79.358 77.915 10.1 5.772 10.1 14.429 2.886 23.086-56.272 66.372-112.544 131.301-167.373 196.23-23.086 25.972-41.844 53.387-64.93 76.473C143.25 1019.258 42.25 1000.5 11.95 916.814c-2.886-11.543-2.886-24.529-2.886-33.186-2.886-256.83-2.886-512.22 0-763.279 0-60.6 43.286-109.658 101.001-113.987C166.336.591 209.622 20.791 248.58 64.077c187.573 229.417 380.918 457.39 571.377 688.25l5.771 5.771V237.222c-2.885 5.771-8.657 8.657-14.428 15.871-44.73 53.387-93.787 105.33-139.959 157.273-10.1 10.1-15.871 12.986-25.972 4.329-25.971-30.3-51.943-56.272-79.357-82.244-8.658-7.214-8.658-14.428-2.886-20.2 79.358-92.344 154.387-180.359 233.745-269.817C856.029-22.496 959.915.591 985.887 84.277c7.215 11.543 7.215 21.643 7.215 36.072v763.28c0 60.6-49.058 108.215-112.544 111.1-51.944 2.886-93.787-17.314-126.973-59.157-190.46-230.86-379.475-455.948-567.049-682.479-4.328-2.885-7.214-7.214-12.986-10.1z"/></svg>