<svg width="1000" height="1000" viewBox="0 0 1000 1000" fill="none" xmlns="http://www.w3.org/2000/svg">
<path d="M289 2L87 204H251C273 124 359 17 385 2H289Z" fill="black"/>
<path d="M483 204V2H437C351.4 63.6 302.667 162.333 289 204H483Z" fill="black"/>
<path d="M522 204H718C672.4 95.2 598.333 24 567 2H522V204Z" fill="black"/>
<path d="M756 204H915L711 2H621C685.8 61.2 731 144 756 204Z" fill="black"/>
<path d="M713 1000L915 798L751 798C729 878 643 985 617 1000L713 1000Z" fill="black"/>
<path d="M519 798L519 1000L565 1000C650.6 938.4 699.333 839.667 713 798L519 798Z" fill="black"/>
<path d="M480 798L284 798C329.6 906.8 403.667 978 435 1000L480 1000L480 798Z" fill="black"/>
<path d="M246 798L87 798L291 1000L381 1000C316.2 940.8 271 858 246 798Z" fill="black"/>
<path d="M364.113 734V529.9H226.313V734H148.963V273.8H226.313V460.35H364.113V273.8H441.463V734H364.113Z" fill="black"/>
<path d="M860.55 706.05C846.684 717.316 830 726.416 810.5 733.35C791.434 740.283 768.467 743.75 741.6 743.75C714.3 743.75 689.817 738.116 668.15 726.85C646.484 715.15 628.067 698.683 612.9 677.45C598.167 656.216 586.684 630.866 578.45 601.4C570.65 571.933 566.75 539.216 566.75 503.25C566.75 468.15 570.65 435.866 578.45 406.4C586.25 376.933 597.517 351.583 612.25 330.35C626.984 308.683 644.75 292 665.55 280.3C686.35 268.166 709.75 262.1 735.75 262.1C763.05 262.1 786.667 267.083 806.6 277.05C826.534 286.583 842.784 300.233 855.35 318L810.5 372.6C793.167 347.466 769.767 334.9 740.3 334.9C724.267 334.9 710.184 339.45 698.05 348.55C686.35 357.65 676.6 370 668.8 385.6C661 400.766 655.15 418.533 651.25 438.9C647.35 459.266 645.4 480.716 645.4 503.25C645.4 526.65 647.35 548.75 651.25 569.55C655.15 589.916 661 607.9 668.8 623.5C676.6 638.666 686.35 650.583 698.05 659.25C710.184 667.916 724.484 672.25 740.95 672.25C751.35 672.25 760.667 671.166 768.9 669C777.567 666.4 784.5 663.15 789.7 659.25V540.3H733.8V472.7H860.55V706.05Z" fill="black"/>
</svg>
