<svg xmlns="http://www.w3.org/2000/svg" width="1000" height="1000">
  <path d="M329.272 323.697c64.015-22.038 86.053-13.642 104.943 43.026 27.285 61.916 49.323 125.931 86.052 197.292 10.495-23.087 48.274-126.98 77.658-190.995 27.285-62.965 33.581-71.36 111.239-56.669 0 15.741-5.247 20.989-6.297 28.335-43.026 105.991-83.954 213.033-133.277 317.975-17.84 31.483-85.003 34.631-98.646 6.297-35.68-80.806-86.052-204.638-141.672-345.261zM5 569.262c0-61.916 15.741-76.608 77.657-76.608 74.51 0 135.376-2.098 135.376-49.323 0-33.581-22.038-49.323-49.323-49.323H70.064c15.742-72.41 50.373-96.547 132.228-77.657 59.817 13.643 93.399 43.026 99.695 93.399 11.544 62.965-18.89 128.03-72.41 147.969 15.741 40.927 36.73 83.954 56.669 132.227h-90.25c-20.99-17.84-32.533-38.829-43.027-77.657-5.247-35.68-34.631-43.027-70.312-43.027zm690.521-5.247c0-56.669 13.643-71.36 70.312-71.36h91.3c27.285 0 49.323-19.94 49.323-49.324 0-33.581-22.038-49.323-49.323-49.323h-91.3c7.346-70.311 13.642-83.953 77.657-83.953 71.361 0 130.129 27.285 146.92 99.695 14.692 54.57-6.297 104.942-56.67 138.524-6.296 3.148-6.296 3.148-12.592 9.445 12.593 40.927 35.68 83.954 55.619 132.227h-92.35c-4.197 0-14.691 0-20.988-20.988-12.593-34.631-19.939-77.658-49.323-99.696-17.84-12.593-68.212 0-111.239 0 0 0-7.346 0-7.346-5.247z" style="fill:#000;fill-opacity:1;fill-rule:nonzero;stroke:none;"/>
</svg>
