<svg xmlns="http://www.w3.org/2000/svg" viewBox="0 0 1000 1000"><path d="M499.169,0C223.027.459-.458,224.688,0,500.831S224.688,1000.458,500.831,1000,1000.458,775.312,1000,499.169,775.312-.458,499.169,0Zm-274.7,601.214a83.227,83.227,0,0,1,0-117.7L542.054,165.925l11.379,11.38a81.728,81.728,0,0,1,0,115.58L234.784,611.534ZM335.329,712.078a83.227,83.227,0,0,1,0-117.7L652.917,276.788l11.379,11.38a81.728,81.728,0,0,1,0,115.58L345.647,722.4ZM775.974,515.426,457.325,834.075l-10.318-10.319a83.227,83.227,0,0,1,0-117.7L764.594,388.466l11.38,11.38A81.727,81.727,0,0,1,775.974,515.426Z"/></svg>