<svg xmlns="http://www.w3.org/2000/svg" width="1000" height="1000">
  <path d="M500.496 5C223.572 5 5 229.506 5 500.002c0 276.43 224.506 495.001 495.002 495.001 276.43 0 495.001-224.506 495.001-495.001C995.003 226.539 773.464 5 500.496 5zM90.056 536.1c-5.935-47.472 0-68.241 2.966-107.802 37.583-177.033 140.44-290.77 311.54-339.232 21.758-5.934 41.538-7.912 62.308-7.912v202.748c0 15.824-4.945 24.725-20.77 20.77h-65.275c-13.846 0-21.758 7.911-21.758 20.769a6390.206 6390.206 0 0 1 0 337.253c0 11.869 7.912 19.78 21.758 19.78h60.33c20.77 0 25.715 3.957 25.715 24.726v199.781H446.1c-163.187 0-348.133-185.935-356.045-370.88zm451.979 370.881c0-65.275 2.967-133.517 2.967-199.78-2.967-20.77 4.945-28.682 21.758-32.638 86.044-24.726 140.44-95.935 140.44-182.968 0-84.066-54.396-154.286-140.44-179.012-16.813-3.956-24.725-12.857-21.758-33.626 0-66.264-2.967-132.528-2.967-197.803h11.868c7.912 0 12.857 0 21.758 2.967 165.166 29.67 298.683 154.286 335.276 320.44 15.824 69.232 10.88 94.946 4.945 141.43-20.77 173.077-155.275 315.495-324.397 353.078-16.813 3.956-37.582 7.912-49.45 7.912z" style="fill:#000;fill-opacity:1;fill-rule:nonzero;stroke:none;"/>
</svg>
