<svg xmlns="http://www.w3.org/2000/svg" viewBox="0 0 1000 1000"><path d="M336.238 242.74c11.37 44.214 59.372 120.008 80.847 227.384 11.37 54.319 17.686 98.532 17.686 131.376 16.422 8.843 37.897 12.633 64.425 12.633 27.791 0 48.003-3.79 64.425-12.633 0-32.844 6.316-77.057 17.685-131.376 5.053-21.476 79.585-222.33 84.638-242.542 3.79-16.422 1.263-32.845-2.527-48.003-10.106-42.95-54.32-101.06-144.01-169.275-6.315-5.053-26.527-8.842-39.16 0-94.743 63.162-140.22 126.324-145.272 169.275-2.527 20.211-3.79 42.95 1.263 63.161zM34.324 500.441c2.526 29.055 5.053 56.846 10.106 84.637 3.79 18.949 7.58 37.898 13.895 53.056l8.843 20.212c2.527 2.527 5.053 3.79 11.37 1.263 10.105-3.79 25.264-13.895 41.686-30.317 24.002-24.002 56.846-48.003 72.005-82.11 13.895-31.582 17.685-73.269 36.634-79.585 13.895-2.526 34.107-1.263 49.266 12.632 21.475 17.686 37.897 34.108 51.793 50.53 6.316 7.58 13.895 17.685 21.475 32.844l3.79 7.58c3.79 7.58 16.422 16.422 32.844 24.001l29.054 6.316c-2.526-21.475-7.58-44.213-13.895-69.478-12.633-53.056-29.055-94.743-49.267-125.06-24.001-35.371-45.476-58.11-63.162-73.268-40.423-36.634-74.53-41.687-126.324-41.687-22.738 0-39.16 2.526-50.53 6.316-16.421 6.316-31.58 16.422-45.476 34.107-10.106 10.106-16.422 25.265-24.001 40.424l-5.053 21.475-5.053 26.528c-2.527 24.002-2.527 49.267 0 79.584zm174.327 265.28c-3.79 16.423-2.527 30.318 2.526 40.424 6.317 12.633 15.16 21.475 30.318 24.002 27.791 5.053 48.003 2.526 60.636-7.58l2.526-1.263c6.316-5.053 13.896-10.106 17.685-15.159 3.79-5.053 11.37-12.632 20.212-26.528 10.106-16.422 21.475-34.107 31.581-58.109l13.896-31.58-45.477-20.213-18.948 29.055c-13.896 21.475-26.528 32.844-31.581 36.634-6.317 3.79-8.843 6.316-13.896 6.316-17.685 0-29.054-16.422-42.95-36.634-1.263-2.526-2.527-3.79-3.79-3.79s-2.526 1.264-2.526 3.79c-10.106 22.738-16.422 44.213-20.212 60.636zm144.01-121.27c44.213 24.001 92.216 34.107 146.535 34.107 54.32 0 102.322-10.106 147.799-34.107-3.79-15.16-5.053-22.739-5.053-22.739-1.263-1.263-1.263-5.053-2.527-11.369-41.686 21.475-88.426 32.844-140.22 32.844-51.792 0-97.269-11.369-138.955-32.844l-2.527 10.106c-1.263 3.79-2.526 11.37-5.053 24.002zm17.685 180.643c0 29.054 37.897 83.374 74.53 120.008 21.476 21.475 34.108 36.633 41.688 44.213 8.842 7.58 16.422 7.58 26.528 0 7.579-7.58 22.738-21.475 41.686-44.213 24.002-29.055 45.477-51.793 55.583-72.005l3.79-7.58c10.106-16.422 13.895-31.58 13.895-39.16 1.264-15.159-3.79-34.107-17.685-56.846-12.632-20.212-22.738-40.423-34.107-53.056l-12.633-15.159c-32.844 5.053-54.32 5.053-64.425 5.053-10.106 0-32.844 0-64.425-5.053-11.37 10.106-26.528 34.108-46.74 68.215-13.896 22.739-18.949 41.687-17.685 55.583zM582.57 601.5c10.106-2.526 17.685-3.79 27.791-6.316 18.949-7.58 30.318-16.422 32.844-24.001l3.79-5.053c6.316-12.633 11.37-22.739 18.949-34.108 12.632-16.422 30.317-34.107 54.319-51.793 8.842-6.316 18.948-11.369 27.791-12.632 6.316-1.263 13.896-1.263 20.212 0 27.791 16.422 12.632 29.055 37.897 79.584 17.685 35.37 45.477 61.899 72.005 82.11 18.948 13.896 31.58 27.792 41.687 30.318 5.053 1.264 6.316 1.264 8.842 0l2.527-1.263 8.842-20.212c6.317-15.158 10.106-34.107 13.896-53.056 5.053-27.79 10.106-55.582 12.632-85.9 3.79-51.793-2.526-130.114-35.37-166.748-13.896-17.685-29.055-27.79-46.74-34.107-10.106-3.79-26.528-5.053-50.53-6.316-29.054-1.263-50.53 0-65.688 6.316-25.265 10.106-45.477 22.738-59.372 35.37-17.686 16.423-39.16 39.161-64.426 73.269-15.158 20.211-25.264 46.74-36.634 80.847-8.842 25.265-13.895 50.53-18.948 78.32zm27.791 88.427 15.159 31.581c10.106 24.002 20.212 42.95 31.58 58.11 8.844 12.632 15.16 21.474 20.213 26.527 5.053 5.053 10.106 10.106 17.685 16.422 18.949 17.686 78.32 16.422 96.006-16.422 6.316-12.632 2.527-22.738 0-39.16-2.526-17.686-10.106-39.16-20.212-61.899-1.263-2.526-2.526-3.79-3.79-3.79-1.263 0-2.526 1.264-3.79 3.79-7.579 8.843-7.579 11.37-15.158 18.949-11.37 11.369-20.212 24.001-39.16 12.632-6.317-3.79-17.686-16.422-32.845-37.897l-18.948-29.055z"/></svg>