<svg xmlns="http://www.w3.org/2000/svg" viewBox="0 0 1000 1000"><path d="M5 500.496c0 271.98 220.55 494.507 495.496 494.507 271.98 0 494.507-220.55 494.507-495.496C995.003 227.528 773.464 5 500.496 5 226.54 5 5 225.55 5 500.496zm124.616-66.264h3.956c4.945 3.956 8.901 7.912 11.868 12.857 20.77 34.616 40.55 67.253 60.33 103.847 6.923 10.879 12.857 19.78 2.967 34.615-15.824 32.638-6.923 72.198 20.77 98.902 28.68 25.714 68.241 32.637 103.846 12.857 11.868-7.912 18.791-7.912 32.637-3.956 10.88 3.956 26.704 10.88 38.572 16.813 7.912 0 10.879 6.923 10.879 19.78 0 34.616 0 34.616-33.627 39.561-32.637 3.956-65.274 3.956-95.934-4.945-63.297-10.88-107.803-47.473-136.484-102.858-30.66-76.154-30.66-151.319-19.78-227.473zm19.78-46.483c0-49.451 16.813-88.023 43.517-128.572 45.494-55.385 104.835-90.99 173.077-115.715h6.923c-6.923 19.78-20.769 35.604-27.692 52.418-11.868 23.736-23.736 46.483-36.594 71.209-6.923 7.912-10.879 11.868-26.703 15.824-15.824 4.945-32.637 8.901-48.462 19.78-47.472 39.56-43.516 111.759 11.868 144.396 25.715 14.836 24.726 40.55 27.693 63.297 4.945 19.78 0 23.737-14.835 30.66-24.726 13.846-24.726 13.846-45.495-6.923-30.66-43.517-59.34-91.979-63.297-146.374zm69.231 233.407c0-39.56 30.66-66.264 70.22-70.22 36.594 0 67.253 30.66 67.253 70.22 0 36.593-26.703 68.242-67.253 68.242-39.56 0-70.22-31.649-70.22-68.242zm3.956-250.22c0-36.594 30.66-68.243 66.264-68.243 36.594 0 67.253 31.649 67.253 68.242 0 40.55-30.66 71.21-67.253 71.21-35.604 0-66.264-30.66-66.264-71.21zm47.473 425.275c0-2.967 0-2.967 2.967-6.923 48.462 0 95.934 0 142.418-4.945 9.89 0 16.813 8.901 20.77 15.824 19.78 24.726 44.505 36.594 75.164 36.594 48.462-3.956 84.067-40.55 84.067-83.077 0-20.77 4.945-32.638 19.78-39.56 12.857-9.89 20.77-16.814 28.681-29.671 7.912-2.967 10.88-2.967 19.78 0 31.649 25.714 31.649 15.824 16.814 52.418-12.857 32.637-28.682 63.296-52.418 88.022-43.517 51.429-99.89 67.253-164.176 64.286-75.165-12.857-134.506-48.462-193.847-92.968zm59.34-537.034c19.781-51.43 47.473-99.89 95.935-126.594 83.077-55.385 195.825-19.78 301.65 50.44 11.868 9.89 28.68 20.769 4.945 20.769-44.506 0-88.023 0-131.54 3.956-11.868 0-19.78-3.956-28.68-15.824-43.517-52.418-123.628-43.517-146.375 19.78-6.923 16.813-9.89 23.736-9.89 36.593 0 10.88-2.967 18.792-10.88 26.704-11.867 12.857-22.747 20.77-35.604 32.637-6.923 7.912-12.857 7.912-23.736 0-28.681-15.824-28.681-19.78-15.824-48.461zm102.858-10.88c0-40.55 31.649-73.187 68.242-73.187 40.55 0 71.21 32.638 71.21 67.253 0 40.55-30.66 73.187-67.254 73.187-40.55 0-72.198-32.637-72.198-67.253zm8.901 500.442c0-38.572 30.66-67.253 67.253-67.253 35.605 0 66.264 28.681 66.264 67.253 0 40.55-26.703 68.242-66.264 68.242-40.55 0-67.253-32.638-67.253-68.242zm154.287-485.606c0-3.956 0-11.868 4.945-20.77 0-3.956 6.923-10.879 10.879-10.879 59.34-11.868 115.714-11.868 172.088 16.813 35.605 18.792 63.297 51.43 83.077 90 20.77 57.364 27.693 112.748 20.77 172.09 0 15.824-3.956 30.659-3.956 56.373-8.901-8.901-8.901-8.901-12.857-11.868-19.78-36.594-43.517-77.143-67.253-116.704-3.957-7.912-3.957-15.824 0-23.736 15.824-39.56 7.912-80.11-19.78-102.858-28.682-28.681-68.243-32.637-102.858-11.868-9.89 2.967-16.813 7.912-32.638 0-11.868-3.956-23.736-7.912-36.593-11.868-10.88-4.945-15.824-12.857-15.824-24.725zm44.505 589.452c-2.967.99 71.21-131.539 67.253-131.539 3.956-6.923 11.868-10.879 24.726-10.879 38.571-5.934 71.209-32.637 79.12-69.23 7.913-36.594-7.911-74.177-44.505-93.957-11.868-8.901-18.791-16.813-18.791-28.682-3.956-10.879-3.956-27.692-7.912-40.55 0-10.878 0-18.79 10.879-22.747 29.67-16.813 29.67-16.813 48.461 6.924 23.737 31.648 44.506 64.286 55.385 99.89 19.78 63.297 4.945 119.67-35.604 171.1-44.506 60.33-103.847 91.978-171.1 119.67zm14.835-231.43c0-35.604 32.638-66.263 68.242-66.263 40.55 0 68.242 26.703 68.242 66.264 0 40.55-31.648 72.198-68.242 72.198-35.604-3.956-68.242-35.605-68.242-72.198zm0-246.264c0-40.55 32.638-72.198 72.198-67.253 36.594 0 68.242 30.66 68.242 67.253 0 36.594-31.648 67.253-72.198 67.253-35.604 0-68.242-30.66-68.242-67.253z"/></svg>