<svg xmlns="http://www.w3.org/2000/svg" width="1000" height="1000">
  <path d="M5 500.496c0 271.98 220.55 494.507 495.496 494.507 271.98 0 494.507-220.55 494.507-495.496C995.003 227.528 773.464 5 500.496 5 226.54 5 5 225.55 5 500.496zm181.979 203.737c12.857-92.967 28.681-188.902 41.538-286.814 8.901-47.473 15.824-94.945 24.726-141.43 6.923-38.57 21.758-54.395 51.428-19.78 63.297 66.265 129.561 129.561 192.858 195.825 0 0 6.923 4.946 7.912 9.89 40.55-44.505 76.154-76.154 117.693-114.725 32.637-35.605 61.319-67.253 94.945-95.934 25.715-21.759 38.572-18.792 42.528 12.857 24.725 150.33 49.45 297.693 72.198 446.045 6.923 42.528-9.89 52.418-52.418 39.56-83.077-23.736-170.11-53.406-253.187-82.087-9.89 0-22.748-4.946-39.561 0-82.088 28.681-167.143 52.417-254.177 82.088-41.538 12.857-59.34 2.967-46.483-45.495zm50.44-7.912c63.296-20.77 121.648-39.56 179.011-56.374 7.912-14.835-51.429-32.637-10.88-71.209 20.77-24.725 45.495-46.484 69.232-70.22-65.275-59.34-121.649-112.748-182.968-176.044C275.99 446.1 257.2 568.738 237.418 696.32zm216.593-110.77c38.572 25.715 73.188 25.715 104.836 0-18.791-15.824-31.648-33.626-48.462-41.538-17.802 12.857-35.604 25.714-56.374 41.538zm86.045-87.033c22.747 23.736 48.461 45.495 69.23 63.297 36.594 37.583 36.594 49.45-11.867 78.132 58.351 16.813 113.736 34.616 176.044 56.374-16.813-127.583-32.637-250.22-51.429-368.902-61.319 58.351-118.681 112.747-181.978 171.1z" style="fill:#000;fill-opacity:1;fill-rule:nonzero;stroke:none;"/>
</svg>
