<svg xmlns="http://www.w3.org/2000/svg" viewBox="0 0 1000 1000"><path d="M906.305,499.978c.041-78.46-22.769-155.235-65.643-220.945l159.331-159.345L880.333,0l-159.23,159.345c-134.295-87.577-307.638-87.577-441.933,0L119.696,0,.007,119.689l159.345,159.331c-87.577,134.295-87.577,307.638,0,441.933L.007,880.311l119.689,119.689,159.345-159.345c134.295,87.578,307.638,87.577,441.933,0l159.345,159.345,119.674-119.689-159.331-159.215c42.906-65.759,65.718-142.598,65.643-221.117Zm-643.323,0c-.232-130.909,105.703-237.219,236.612-237.451,130.909-.232,237.219,105.703,237.451,236.612,.06,33.63-7.038,66.887-20.82,97.563l-156.352-156.568-119.732,119.717,156.41,156.366c-119.155,53.578-259.183,.417-312.762-118.738-13.783-30.653-20.876-63.892-20.807-97.502Z"/></svg>