<svg xmlns="http://www.w3.org/2000/svg" viewBox="0 0 1000 1000"><path d="M500,995c273.4,0,495-221.6,495-495S773.4,5,500,5,5,226.6,5,500,226.6,995,500,995ZM201,285.7,346.7,140H416c-18.8,10.8-80.8,88-96.7,145.7ZM486.7,140V285.7h-140c9.9-30.1,45-101.3,106.8-145.7Zm28.1,145.7H656.2C623.3,207.2,569.9,155.8,547.3,140H514.8V285.7Zm283.6,0H683.6c-18-43.3-50.6-103-97.4-145.7h64.9ZM315.7,714.3H201L348.2,860h64.9C366.4,817.3,333.7,757.6,315.7,714.3Zm27.4,0H484.5V860H452C429.5,844.1,376,792.8,343.1,714.3Zm169.6,0V860h33.2c61.8-44.4,96.9-115.7,106.8-145.7ZM652.6,860,798.3,714.3H680C664.2,772,602.1,849.2,583.4,860ZM453.1,608.5q7.5-21.6,7.5-48.3c0-18.4-2.3-34.4-7-47.8-4.4-13.4-10.5-24.4-18.3-32.8a66.2,66.2,0,0,0-26.7-19.2,77.25,77.25,0,0,0-31.4-6.6,61.69,61.69,0,0,0-15.9,2.3,33.49,33.49,0,0,0-13.1,7l-.5-.5L415.2,336H353.8L288.1,464.5a287.28,287.28,0,0,0-19.2,46.4,174.83,174.83,0,0,0-7,50.6c0,17.5,2.3,33.3,7,47.4,5,14.1,11.9,25.9,20.6,35.6A90.55,90.55,0,0,0,320.9,667a110.95,110.95,0,0,0,80.2,0,89.63,89.63,0,0,0,31.4-22.5C441.3,634.6,448.1,622.6,453.1,608.5Zm-57.2-96.6c7.5,12.5,11.3,28.4,11.3,47.8q0,30.45-12.2,49.7c-7.8,12.5-18.9,18.8-33.3,18.8s-25.6-6.1-33.8-18.3q-12.15-18.75-12.2-49.2A101.7,101.7,0,0,1,319,534a68,68,0,0,1,9.4-21.1,45.58,45.58,0,0,1,14.5-14.5,36.32,36.32,0,0,1,19.2-5.2C377.2,493.2,388.4,499.4,395.9,511.9Zm281.4,85.9,16.4,70.3h58.6l-81.1-332H599.5L517,668.1h56.3l16.9-70.3ZM633.2,389.1h1.9l35.2,164.6H597.1Z" fill-rule="evenodd"/></svg>