<svg xmlns="http://www.w3.org/2000/svg" viewBox="0 0 1000 1000"><path d="M749.968 72.185C824.366 116.35 883.647 175.631 927.81 250.03c44.758 77.066 67.186 160.356 67.186 249.97 0 89.613-22.428 172.903-67.186 249.969-44.164 74.397-103.445 133.679-177.843 177.843-77.066 44.758-160.356 67.186-249.97 67.186-89.613 0-172.903-22.428-249.969-67.186-74.398-44.164-133.68-103.446-177.844-177.843C27.428 672.902 5 589.612 5 499.998c0-89.613 22.428-172.903 67.185-249.969C116.35 175.631 175.631 116.35 250.03 72.185 327.095 27.428 410.385 5 500 5c89.613 0 172.903 22.428 249.969 67.185zM234.22 348.831c.988 31.617 4.94 63.233 10.868 93.862 1.976 6.916 3.952 13.832 4.94 20.749 8.892 22.724 23.713 40.508 44.461 53.353 20.748 12.844 42.485 20.748 66.197 20.748 21.737 0 41.497-5.928 60.27-16.796 18.772-10.868 32.604-25.689 43.473-43.473 10.868-17.785 15.808-37.545 15.808-58.293v-.988c0-28.653 6.916-55.33 20.748-80.03 13.833-24.7 33.593-43.473 58.294-57.305-19.76-2.964-39.521-3.952-59.282-3.952-45.449 0-89.91 5.928-134.37 16.796-44.461 10.868-85.958 27.665-126.467 48.413-1.976.988-2.964 1.976-3.952 2.964s-.988 2.964-.988 3.952zm47.425 207.484c22.724 50.39 51.377 95.838 87.934 137.335 36.556 41.497 73.113 82.006 121.526 105.719 1.976.988 4.94 1.976 8.892 1.976 3.952 0 6.916-.988 8.893-1.976 26.676-12.845 48.413-33.593 70.149-52.366 4.94-4.94 10.868-9.88 15.808-14.82 16.797-21.736 24.7-46.437 24.7-73.113 0-20.749-4.94-39.521-15.808-58.294-10.868-18.772-24.7-32.604-42.484-43.473l-3.952-2.964c-17.785-8.892-36.557-13.832-57.306-13.832-20.748 0-39.52 4.94-57.305 14.82l-4.94 1.976c-23.712 12.845-49.401 19.76-77.066 19.76-27.664 0-54.34-6.915-79.041-20.748zm238.113-138.322c0 20.748 4.94 40.508 15.808 58.293 10.868 17.784 23.713 33.592 42.485 44.46l3.952 1.977c23.713 14.82 42.485 33.592 56.317 57.305 13.833 24.7 20.749 50.389 20.749 78.054 32.604-45.45 58.293-94.85 77.065-148.204 18.773-52.365 27.665-106.706 29.64-161.047 0-.988 0-2.964-.987-3.952-.988-.988-1.976-1.976-3.952-2.964-26.677-13.832-54.341-25.689-82.994-35.569l-19.76-5.928c-6.917-.988-12.845-1.976-18.773-1.976-20.748 0-40.509 4.94-59.281 15.808-18.772 10.869-32.605 24.7-43.473 42.485-10.868 18.773-16.796 38.533-16.796 60.27z"/></svg>