<svg xmlns="http://www.w3.org/2000/svg" width="1000" height="1000">
  <path d="M500.496 5c272.968 0 494.507 221.54 494.507 495.002 0 270.495-218.572 495.001-495.001 495.001C229.506 995.003 5 776.431 5 500.002 5 229.506 223.572 5 500.496 5zm-279.89 797.146h2.966c139.451-53.407 281.87-105.825 425.276-158.243l-8.9-8.9c-37.583-40.55-78.133-79.122-119.672-119.672-5.934-7.912-5.934-7.912-14.835 0-92.967 93.957-185.934 186.924-278.902 279.891-.989 1.978-2.967 3.956-5.934 6.924zm158.241-432.2c3.956 3.956 5.934 6.923 6.924 8.901 40.55 37.583 79.12 79.122 119.67 117.693 8.901 7.912 8.901 7.912 16.813 0 92.968-92.967 185.935-186.924 277.914-277.913 1.978-3.956 3.956-4.945 4.945-6.923v-1.978c-141.43 53.407-284.837 105.824-426.266 160.22z" style="fill:#000;fill-opacity:1;fill-rule:nonzero;stroke:none;"/>
</svg>
