<svg xmlns="http://www.w3.org/2000/svg" viewBox="0 0 1000 1000"><path d="M13.507 582.44c0-47.852 0-47.852 45.725-47.852h59.549s9.57 0 9.57-8.507v-29.774c0-25.521-15.95-23.394-37.218-23.394H32.648C8.19 472.913 5 466.533 5 429.314c0-30.838 13.824-30.838 92.513-30.838-22.33-94.64-46.788-181.836-69.119-275.413h90.387c26.584 0 32.965 64.866 73.373 226.498 7.443 48.915 7.443 48.915 53.168 48.915h99.957c24.458 0 30.838-17.014 39.345-34.027 15.95-69.12 38.282-140.366 53.169-207.358 7.443-34.028 8.507-34.028 48.915-34.028 91.45 0 71.246-7.444 91.45 73.373 12.76 53.168 31.901 107.4 45.725 168.013 7.444 22.33 13.824 34.027 37.218 34.027 44.662-3.19 78.69 0 118.035 0 31.9 0 31.9-11.697 40.408-40.408 12.76-62.739 28.71-126.541 44.661-195.66 8.507-39.345 8.507-39.345 54.232-39.345h62.74c-23.395 93.577-47.852 178.647-69.12 270.097h44.662C995 393.16 995 398.476 995 432.504c0 32.965 0 40.409-38.281 40.409h-23.394c-46.789 0-55.296 0-55.296 61.675h86.133c30.838 0 30.838 0 30.838 38.282 0 32.964 0 41.471-38.281 41.471h-70.183c-38.281 0-38.281 0-45.725 28.711-18.077 71.246-29.774 132.922-54.232 192.47-14.887 40.409-7.443 40.409-46.788 40.409-78.69 0-63.803 15.95-86.133-69.12-15.951-56.358-29.775-109.527-43.599-163.759-8.507-20.204-17.014-28.71-40.408-28.71H430.35c-22.33 0-29.774 8.506-38.281 28.71-15.95 63.803-31.901 124.415-46.789 187.154-8.507 45.725-17.014 45.725-60.612 45.725-72.31 0-63.802 6.38-79.753-61.676-12.76-55.295-28.71-116.97-45.725-171.203-7.443-20.204-15.95-28.71-40.408-28.71h-75.5c-29.774 0-29.774-8.508-29.774-31.902zm207.358-110.59c0 40.407 8.507 56.358 24.457 56.358h84.007c7.443 0 15.95-32.965 15.95-56.359zm29.774 142.491c9.57 37.218 18.078 71.246 34.028 106.337 6.38-30.837 20.204-69.119 27.648-106.337zm179.71-88.26h139.302c-8.507-53.168-8.507-53.168-60.612-53.168h-39.345c-23.394 0-39.345 8.507-39.345 23.394zM462.25 386.78h75.5c-4.254-7.443-30.838-97.83-38.282-115.907-12.76 40.408-23.394 78.69-37.218 115.907zm198.851 86.134c0 40.408 9.57 55.295 26.584 55.295h84.007c7.444 0 14.887-31.901 14.887-55.295zm32.965 141.428c8.507 37.218 17.014 75.5 28.71 115.908 4.254-9.57 24.458-81.88 31.902-115.908z"/></svg>