<svg xmlns="http://www.w3.org/2000/svg" width="1000" height="1000">
  <path d="M461.248 914.488v-457.5c0-23.75-10-42.499-42.5-42.499H98.75c-35 0-43.75 18.75-43.75 42.5v361.249c8.75 96.25 71.25 158.75 163.75 158.75H400c42.5 0 61.25-18.75 61.25-62.5zM5 269.489c0 51.25 40 85 83.75 85h321.249c32.5 0 51.25-17.5 51.25-51.25 0-28.75 0-42.5 36.25-42.5 32.5 0 32.5 25 32.5 42.5 0 42.5 18.75 51.25 51.25 51.25h318.748c61.25 0 95-33.75 95-80 0-41.25-33.75-65-95-65-75 0-100 3.75-138.75-10 0-8.75 2.5-8.75 10-17.5 32.5-60 32.5-93.75-10-138.749-41.25-33.75-92.5-23.75-137.499 18.75-33.75 32.5-62.5 68.75-85 103.75-36.25 48.75-52.5 48.75-87.5 0-32.5-43.75-75-85-120-122.5-25-23.75-61.25-23.75-93.749 0-36.25 26.25-56.25 60-43.75 97.5 7.5 13.75 17.5 32.5 32.5 58.75-21.25 7.5-33.75 12.5-67.5 10-82.5 0-153.75-8.75-153.75 60zm254.999-138.75c-8.75-16.25-6.25-27.5 0-36.25 18.75-11.25 37.5-6.25 46.25 0 32.5 27.5 61.25 55 93.75 96.25-61.25 8.75-118.75-17.5-140-60zm270 794.999c0 32.5 8.75 51.25 51.25 51.25h179.999c103.75 0 163.75-62.5 163.75-163.75 8.75-121.25 0-236.25 8.75-356.25 0-23.75-15-42.499-51.25-42.499h-311.25c-32.5 0-41.25 18.75-41.25 51.25zm60-734.998c33.749-36.25 49.999-68.75 86.249-96.25 6.25-6.25 33.75-20 52.5 0 10 22.5 0 46.25-8.75 55-37.5 32.5-70 60-130 41.25z" style="fill:#000;fill-opacity:1;fill-rule:nonzero;stroke:no"/>
</svg>
