<svg xmlns="http://www.w3.org/2000/svg" viewBox="0 0 1000 1000"><path d="M5 500.496c0 273.957 221.54 494.507 495.496 494.507 273.957 0 494.507-221.539 494.507-495.496C995.003 226.54 772.475 5 500.496 5 225.55 5 5 226.54 5 500.496zm202.748-24.725c49.45-78.132 96.923-162.199 141.429-240.33 3.956-8.902 8.901-13.847 11.868-21.759 17.802 25.714 31.649 48.462 44.506 70.22 35.604 65.275 74.176 131.539 114.725 196.814 3.957 8.901 3.957 17.802 0 30.66-49.45 84.066-96.923 167.143-145.385 250.22-4.945 4.945-4.945 8.901-8.9 13.846-4.946-4.945-7.913-8.901-12.858-17.802-48.462-79.121-95.934-162.198-140.44-241.32-8.901-13.846-13.846-26.703-4.945-40.55zm229.451 299.671c47.473-79.121 91.979-158.242 135.495-232.418 0-4.945 8.901-8.901 12.857-8.901 26.704-4.945 47.473 0 79.122 0-17.803 29.67-35.605 61.319-52.418 91.978-26.704 47.473-53.407 88.022-75.165 135.495-7.912 8.901-16.814 13.846-30.66 13.846zm3.956-556.815v-4.945h74.176c4.945 0 13.847 4.945 16.814 7.912 44.505 80.11 88.022 154.286 132.528 233.407v8.902c-26.704 0-52.418 0-79.122-4.945-3.956 0-8.9-3.957-12.857-7.913-43.516-75.165-88.022-154.286-131.539-232.418zm153.298 556.815c29.67-48.462 56.373-92.967 79.12-140.44 25.715-39.56 47.473-79.121 70.22-118.682 8.902-13.846 12.858-26.703 0-43.516-44.505-80.11-92.967-159.232-135.494-237.364-4.945-4.945-4.945-13.846-13.846-21.758h88.022c3.956 0 8.9 7.912 12.857 12.857 48.462 87.033 95.934 171.1 144.396 254.177 4.945 8.901 4.945 21.758 0 26.703-48.462 88.023-95.934 171.1-148.352 254.177 0 4.945-8.901 13.846-17.802 13.846z"/></svg>