<svg xmlns="http://www.w3.org/2000/svg" viewBox="0 0 1000 1000"><path d="M13.655 525.143c-13.713-17.142-9.142-30.855 0-46.853 69.708-122.275 140.559-239.98 207.981-361.11 3.428-1.143 3.428-3.429 5.714-5.714 5.714 9.142 10.285 17.14 14.856 23.997 22.855 34.283 43.424 75.422 63.994 113.133 4.57 6.857 4.57 13.713 0 23.998-42.282 70.85-84.564 141.701-122.275 212.552-9.142 10.285-9.142 20.57-1.143 29.712 52.567 60.566 83.421 138.273 119.99 211.41 4.57 9.142 5.713 13.713 0 22.855-26.284 42.281-47.996 83.42-71.994 127.988 0 3.428-3.428 5.714-5.714 6.857-19.427-29.712-36.568-57.138-54.852-87.992C121.074 712.554 71.935 627.99 26.225 541.14c-3.428-6.856-6.857-11.427-12.57-15.998zM260.49 929.678c5.713-15.999 11.427-28.57 17.141-36.568 75.422-126.846 148.558-255.977 221.694-380.538 5.714-6.856 5.714-14.855 0-21.712C423.904 356.015 345.054 221.17 268.49 85.182c0-3.428-2.286-5.714-4.571-14.856h470.815c11.427 0 17.141 3.429 22.855 14.856C827.296 224.598 913.003 356.015 990.71 490.86c5.714 6.857 5.714 14.856 0 21.712C889.005 633.704 834.152 783.405 757.588 921.68c-5.714 5.713-11.428 7.999-18.284 7.999zm260.548-155.415c3.428 3.428 5.714 3.428 5.714 3.428h130.274c2.285 0 9.142-5.713 9.142-9.142l151.986-259.405c1.143-5.714 1.143-11.427 0-14.856-50.281-86.849-100.562-172.556-149.7-258.262-4.572-8-9.143-12.57-17.142-10.285H521.038c3.428 4.571 5.714 10.285 7.999 12.57 47.996 83.421 100.562 162.271 143.987 250.264 4.571 9.142 4.571 14.855 0 23.997-37.71 74.28-83.421 142.845-122.275 215.981-10.284 13.713-19.426 31.997-29.711 45.71z"/></svg>