<svg xmlns="http://www.w3.org/2000/svg" viewBox="0 0 1000 1000"><path d="M5 500.496C5 225.55 226.54 5 500.496 5c272.968 0 494.507 222.528 494.507 494.507 0 274.946-222.528 495.496-494.507 495.496C225.55 995.003 5 772.475 5 500.496zM159.286 637.97c0 32.638 13.846 60.33 46.484 79.121 80.11 51.429 164.176 97.913 243.297 145.385 37.583 18.792 70.22 18.792 107.803 0 79.121-47.472 159.231-93.956 238.352-140.44 32.638-18.79 51.43-51.428 51.43-93.956V352.144c0-37.583-18.792-70.22-51.43-89.011-79.12-46.484-159.23-89.012-238.352-135.495-37.583-23.737-70.22-23.737-107.803 0-79.12 41.538-154.286 89.011-233.407 130.55-37.583 23.736-56.374 56.373-56.374 98.901zm84.066-112.748h18.792c0-8.9 0-18.79 4.945-32.637 18.791 0 18.791 0 27.692 8.901 4.945 4.945 8.901 9.89 13.846 14.835 12.858 13.847 23.737 15.825 42.528 10.88-13.846-8.902-23.736-20.77-37.583-34.616 32.638-4.945 32.638-4.945 32.638-32.637V455c0-18.79-4.945-23.736-23.736-23.736h-79.122zm23.737-75.165h51.429c3.956 23.737-1.978 23.737-20.77 23.737-36.593 0-30.66-4.945-30.66-23.737zm125.605 80.11c4.945 0 9.89-.988 18.79-.988v-65.275c-7.911-7.913 56.375 48.461 66.265 56.373 8.901 4.946 13.846 9.89 27.692 4.946 0-32.638 0-61.32-4.945-93.957h-18.791v66.264c-20.77-19.78-46.484-41.539-65.275-56.374-8.901-4.945-13.846-13.846-23.736-4.945v89.011zm140.44-80.11h42.527c3.956 29.67 0 51.43 4.945 80.11 3.956 0 8.901-.988 18.792-.988v-79.122c13.846 0 27.692 0 41.538-3.956v-14.835h-97.912c-13.846 0-13.846 9.89-9.89 18.791zm140.44 80.11h80.11c22.747 0 29.67-38.571 13.846-47.472 8.901-24.725 7.912-51.429-13.846-51.429h-80.11zm18.791-18.79V487.64h47.473c13.846 0 13.846 0 13.846 23.736zm0-37.583v-23.737h56.374c3.956 13.847 4.945 23.737-8.901 23.737z"/></svg>