<svg xmlns="http://www.w3.org/2000/svg" viewBox="0 0 1000 1000"><path d="M391.392 55.835v894.689c0 44.48-3.813 44.48-50.835 44.48h-77.523c-24.146 0-33.042-10.167-29.23-29.23V31.688C229.992 13.896 238.888 5 263.034 5h94.044c24.147 0 34.314 8.896 34.314 26.688-3.813 12.709 0 21.605 0 24.147zm24.146 349.488c0-26.689 8.896-33.043 34.314-33.043 29.23 0 31.771 6.354 31.771 33.043 0 31.771-2.542 34.313-31.771 34.313-29.23 0-34.314-2.542-34.314-34.313zm99.128-97.857c0-25.417 5.083-27.96 34.313-27.96 24.146 0 33.043 2.543 33.043 34.314-3.813 25.418-8.897 26.688-33.043 26.688-29.23 0-34.313-1.27-34.313-33.042zm88.96 653.225c0-24.147 8.896-29.23 34.314-29.23 27.959 5.083 34.313 8.896 34.313 34.313 0 24.147-10.167 29.23-34.313 29.23-30.501 0-34.314-10.167-34.314-34.313zm0-87.69c0-31.772 3.813-35.584 34.314-35.584 27.959 0 34.313 3.812 34.313 35.584 0 27.96-6.354 33.043-34.313 33.043-30.501 0-34.314-5.084-34.314-33.043zm0-90.231c0-33.043 3.813-33.043 62.273-33.043 7.625 45.751 6.354 54.647-19.063 58.46-29.23 5.083-43.21 0-43.21-25.417zm0-94.044c0-33.043 3.813-38.126 34.314-38.126 27.959 0 34.313 5.083 34.313 38.126 0 25.417-6.354 31.771-34.313 31.771-25.418 0-34.314-7.625-34.314-31.771zm0-100.399c0-25.417 3.813-31.771 34.314-31.771 27.959 0 34.313 6.354 34.313 35.584 0 29.23-6.354 38.126-34.313 38.126-30.501 0-34.314-15.25-34.314-41.939zm0-92.773c0-22.876 8.896-31.772 34.314-22.876 27.959 0 34.313 0 34.313 25.418 0 25.417-10.167 33.042-40.668 33.042-24.146 0-27.959-10.167-27.959-35.584zm0-90.231c0-26.689 3.813-33.043 34.314-33.043 27.959 0 34.313 6.354 34.313 33.043 0 31.771-10.167 34.313-40.668 34.313-24.146 0-27.959-2.542-27.959-34.313zm0-91.503c0-31.771 8.896-34.313 34.314-34.313 27.959 0 34.313 2.542 34.313 27.959 0 31.772-6.354 33.042-34.313 33.042-30.501 0-34.314-1.27-34.314-26.688zM696.4 866.647c1.271-25.418 8.896-29.23 36.856-29.23 24.146 0 31.771 3.812 31.771 35.584 0 27.96-7.625 33.043-34.313 33.043-33.043 0-34.314-10.167-34.314-39.397zm0-177.921c1.271-33.043 8.896-38.126 36.856-38.126 24.146 0 31.771 12.708 31.771 39.396 0 24.147-7.625 30.501-31.771 30.501-27.96 0-36.856-6.354-36.856-31.771zm0-100.399c1.271-25.417 8.896-31.771 36.856-31.771 24.146 0 31.771 6.354 31.771 35.584 0 29.23-7.625 38.126-34.313 38.126-33.043 0-34.314-15.25-34.314-41.939zm0-90.231c1.271-25.418 8.896-25.418 36.856-25.418 24.146 0 31.771 0 31.771 25.418 0 25.417-7.625 33.042-34.313 33.042-25.418 0-34.314-7.625-34.314-33.042zm0-92.773c0-26.689 1.271-33.043 34.314-33.043 26.688 0 34.313 6.354 34.313 33.043 0 31.771-7.625 34.313-31.771 34.313-27.96 0-35.585-2.542-36.856-34.313zm1.271 560.451c0-29.23 7.625-34.313 35.585-34.313 24.146 5.083 31.771 8.896 31.771 34.313 0 24.147-7.625 29.23-34.313 29.23-25.418 0-34.314-5.083-33.043-29.23zm7.625-218.589c17.793 6.355 50.835-13.98 59.731 16.522 5.084 8.896 0 34.313-8.896 40.667-10.167 3.813-35.584 8.896-48.293 0-16.521-8.896-11.438-31.771-2.542-57.189z"/></svg>