<svg xmlns="http://www.w3.org/2000/svg" viewBox="0 0 1000 1000"><path d="M547.314 899.089c-316.572 0-657.127-87.537-504.836-225.438 44.368-34.775 95.93-51.563 151.09-65.952 41.97-13.19 81.542-20.386 118.715-20.386 100.728 16.788 202.654 20.386 300.983 10.792 26.381-4.796 51.563-10.792 77.944-10.792 23.983 0 44.368 4.797 69.55 10.792 57.559 9.594 112.719 23.983 163.083 55.16 16.788 9.594 33.575 22.784 47.965 40.771C1086.925 803.158 746.37 890.695 547.314 899.09zM127.616 480.59c-29.978-21.584-29.978-56.36 0-83.94 34.775-29.978 76.745-44.367 117.516-55.16 34.774-9.593 67.151-15.588 101.926-23.982 14.39 0 26.381-2.399 45.567 0 67.152 8.394 134.304 8.394 206.252 0 55.16-5.996 110.32 9.593 164.281 23.982 29.979 10.793 58.758 25.182 85.14 37.174 5.995 3.597 16.787 10.792 25.18 17.987 26.382 27.58 26.382 57.558 0 83.94-31.177 28.778-65.952 41.969-103.125 56.359-89.935 26.38-182.268 34.774-273.403 34.774-94.732 0-190.663-8.393-286.593-41.97-27.58-9.592-57.559-28.779-82.74-49.164zm97.13-244.624c-27.58-22.783-27.58-53.96 3.598-71.948 26.38-16.788 57.558-32.377 87.537-40.77 112.718-31.178 230.234-26.381 344.152-5.996 39.571 5.996 71.948 20.385 106.723 40.77 37.173 26.381 37.173 57.559 0 85.14-45.567 27.58-92.334 37.172-139.1 43.168-40.77 8.394-86.338 10.792-112.719 10.792-92.333 0-171.476-5.995-243.424-33.576-16.788-7.194-32.377-17.987-46.767-27.58z"/></svg>