<svg xmlns="http://www.w3.org/2000/svg" width="1000" height="1000">
  <path d="M500.496 5c272.968 0 494.507 221.54 494.507 495.002 0 270.495-218.572 495.001-495.001 495.001C229.506 995.003 5 776.431 5 500.002 5 229.506 223.572 5 500.496 5zM203.792 356.1c-17.802 122.638 50.44 235.385 166.154 270.001 69.231 20.77 138.462 5.934 209.671 8.901v-43.517H442.144c-109.78 0-194.836-88.022-194.836-196.813 0-106.814 85.056-191.87 194.836-191.87H687.42V156.32H439.177c-116.703 5.934-221.539 88.022-235.385 199.781zm106.813 63.297c11.869 59.34 59.341 104.835 116.704 106.814h152.308c48.462 0 85.056 39.56 85.056 84.066 0 46.483-36.594 84.066-85.056 90h-140.44v42.528h156.265c69.23-10.88 116.703-69.231 116.703-139.451-2.967-65.275-57.363-119.671-132.528-119.671-44.505-4.945-92.967 0-140.44 0-44.505-4.945-84.066-37.583-84.066-83.077-5.934-44.506 29.67-90 72.198-90h152.308v-41.54H417.42c-59.34 0-117.693 78.133-106.814 150.331zm21.759 431.21h8.9c83.078 0 167.144 4.945 248.243 0 112.748-3.956 205.715-87.033 227.474-195.825 17.802-113.736-42.528-220.55-143.407-263.077-78.132-28.682-156.265-14.836-234.397-20.77v48.462h122.638c17.802 0 43.517 0 62.308 5.934 96.923 22.747 156.264 112.748 147.363 215.605-8.901 90.99-91.978 160.22-184.946 164.177H332.364z" style="fill:#000;fill-opacity:1;fill-rule:nonzero;stroke:none;"/>
</svg>
