<?xml version="1.0" encoding="utf-8"?>
<!-- Generator: Adobe Illustrator 26.0.1, SVG Export Plug-In . SVG Version: 6.00 Build 0)  -->
<svg version="1.1" id="Layer_1" xmlns="http://www.w3.org/2000/svg" xmlns:xlink="http://www.w3.org/1999/xlink" x="0px" y="0px"
	 viewBox="0 0 1000 1000" style="enable-background:new 0 0 1000 1000;" xml:space="preserve">
<path d="M500.5,0C220.8,0,0,226.8,0,500c0,279.2,226.8,500,500,500c279.2,0,500-226.8,500-500C1000,223.8,776.2,0,500.5,0z
	 M210.8,344.2l2.8-5.5c23.5-43.5,56.2-81.4,96.6-110.1c8.3-5.9,16.9-11.7,25.9-16.9c13.8-7.6,29.3-11.4,44.9-11.7
	c60.4,1,28.6,48.3,28.3,49l-0.3,0.3c-40.7,59.7-176,101.8-198,95.2V344.2z M370.5,799.9c-3.5,0.3-10.7,0.7-31.7-11
	c-41.1-23.1-76.6-54.2-104.9-92.1c-20.7-27.6-36.6-58.3-47.6-91.1c-23.8-71.4-22.8-148.7,3.5-219.4c24.2,31.7,52.1,60.4,75.9,92.5
	c23.1,30.4,54.2,80.4,60.4,91.1c39.3,66.2,45.5,107,48.6,126.6C377.8,716.1,374.7,793.4,370.5,799.9z M788.7,660.5
	C758,716.8,711.7,763,655.9,794.1c-28.3,13.5-59.3,3.5-51.4-24.8c15.5-54.9,150.8-110.7,180.4-113.9
	C788.7,655,790.1,657.4,788.7,660.5z M808,624.7c-38.3,41.4-297.1-60.4-299.5-61.4c-35.5-15.5-143.2-62.8-152.8-137.3
	c-14.1-107,202.2-181.5,297.4-184.2c11.4,0,46.2,0.7,66.2,16.9c71.1,62.1,111.4,151.8,111.4,246C830.8,545.7,823.2,586.4,808,624.7z
	"/>
</svg>
