<svg xmlns="http://www.w3.org/2000/svg" viewBox="0 0 1000 1000"><path d="M345.23,498.36a36.139,36.139,0,0,1,19.23-5.16q22.541-.019,33.76,18.74,11.25,18.769,11.25,47.83,0,30.48-12.19,49.71Q385.57,628.23,364,628.24T330.22,610Q318,591.19,318,560.71A102.976,102.976,0,0,1,321.31,534a68.774,68.774,0,0,1,9.38-21.1A45.985,45.985,0,0,1,345.23,498.36ZM995,500c0,273.38-221.62,495-495,495S5,773.38,5,500,226.62,5,500,5,995,226.62,995,500ZM201,285.73H319.33C335.2,228,397.24,150.82,416,140H346.73ZM349.95,462.67l67.53-126.61H356L290.36,464.58A285.205,285.205,0,0,0,271.14,511a175.512,175.512,0,0,0-7,50.65q0,26.25,7,47.36,7.5,21.11,20.63,35.64a90.683,90.683,0,0,0,31.42,22.51,105.334,105.334,0,0,0,40.33,7.5,104,104,0,0,0,39.86-7.5,90.763,90.763,0,0,0,31.42-22.51,110.172,110.172,0,0,0,20.63-36.11h0q7.5-21.57,7.5-48.3,0-27.679-7-47.83-6.57-20.16-18.29-32.83a67.252,67.252,0,0,0-26.73-19.22,77.524,77.524,0,0,0-31.42-6.57,59.4,59.4,0,0,0-15.94,2.35,32.905,32.905,0,0,0-13.13,7ZM413.1,860c-46.74-42.71-79.36-102.45-97.39-145.73H201L348.17,860Zm71.43-145.73H343.12C376,792.76,429.46,844.13,452.06,860h32.47ZM486.69,140H453.47c-61.78,44.44-96.92,115.67-106.78,145.73h140Zm28.14,145.73h141.4C623.33,207.24,569.9,155.87,547.29,140H514.83Zm80.81,216.35a252.109,252.109,0,0,1,4.22-47.36q4.23-22.51,12.67-38.92t21.1-25.8a46.686,46.686,0,0,1,29.54-9.85q30.48,0,49.71,27.66l32.35-39.38a88.3,88.3,0,0,0-35.17-30q-21.57-10.789-50.17-10.78a100.213,100.213,0,0,0-50.65,13.13q-22.5,12.66-38.45,36.11-15.94,23-24.86,55.33-8.43,31.89-8.44,69.87T545.93,572q8.93,31.89,24.39,55.34a120.712,120.712,0,0,0,38.45,36.11q23,13.129,51.12,13.13,30.95-.041,51.11-12.24a102.924,102.924,0,0,0,33.77-31.88l-32.36-38a74.6,74.6,0,0,1-20.17,20.64q-11.719,8.43-28.13,8.44-17.359,0-30.48-9.38-12.66-9.851-21.1-26.26t-12.67-38.45A257.111,257.111,0,0,1,595.64,502.08Zm56.98,212.19H512.66V860h33.19C607.6,815.56,642.76,744.33,652.62,714.27Zm145.73,0H680C664.17,772,602.12,849.18,583.36,860h69.26Zm0-428.54L651.18,140H586.25c46.75,42.73,79.4,102.45,97.4,145.73Z"/></svg>