<svg xmlns="http://www.w3.org/2000/svg" width="1000" height="1000">
  <path d="M500.496 5C223.572 5 5 229.506 5 500.002c0 276.43 224.506 495.001 495.002 495.001 276.43 0 495.001-224.506 495.001-495.001C995.003 226.539 773.464 5 500.496 5zM116.76 532.145c-32.638-32.638-32.638-66.264 0-97.913 26.703-25.714 58.351-38.571 90-50.44 62.308-23.736 126.594-31.648 190.88-41.538 1.978 0 5.934-3.956 7.912-8.901 3.956-6.923 5.934-14.835 9.89-22.748 5.934-15.824 12.857-32.637 21.758-47.472 20.77-41.539 49.451-63.297 89.012-63.297 13.846 0 37.582 0 42.527 28.681 1.978 20.77-18.791 41.539-42.527 41.539-8.902 0-17.803-.99-24.726-4.945-21.758-7.912-22.747-7.912-28.681 16.813-2.967 11.868-5.934 24.725-8.901 38.572-.99 5.934-1.978 10.879-3.956 15.824 1.978.989 3.956.989 5.934.989 9.89 1.978 19.78 2.967 27.692 2.967 42.528.989 88.022 1.978 132.528 1.978.989 0 6.923-3.956 7.912-6.923 6.923-12.857 12.857-24.726 17.802-37.583 6.923-15.824 13.847-32.637 21.759-47.472 19.78-31.649 45.494-49.451 77.143-50.44 29.67-.99 48.461 10.879 47.472 32.637 0 21.759-25.714 40.55-49.45 37.583-3.956 0-8.901-1.978-11.868-2.967-.99-.99-2.967-.99-3.956-1.978-24.726-8.901-23.737-8.901-29.67 15.824-2.968 8.901-4.946 16.813-6.924 25.714-2.967 14.836-6.923 28.682-9.89 44.506 6.923 1.978 12.857 2.967 19.78 3.956 15.824 4.945 32.638 7.912 47.473 13.846 29.67 9.89 57.363 20.77 86.044 34.616 18.791 8.9 34.616 16.813 49.45 29.67 62.309 62.308 1.979 130.55-145.384 166.155-24.726 5.934-49.451 8.9-74.176 14.835 3.956-.99-26.704 3.956-45.495 8.9-19.78 2.968-24.725 3.957-33.627 25.715-12.857 37.583-27.692 82.088-70.22 103.847-9.89 4.945-19.78 8.9-37.582 14.835-22.747 3.956-39.56-6.923-44.506-27.692-5.934-20.77 4.945-38.572 26.704-45.495 14.835-3.956 31.648-1.978 42.527 3.956 15.825 5.934 18.792 5.934 22.748-7.912 2.967-8.901 4.945-19.78 5.934-28.682.989-10.879 3.956-20.769 6.923-31.648-9.89 0-78.132-6.923-166.155-6.923-.989 0-5.934 4.945-8.9 9.89-4.946 9.89-9.89 20.77-14.836 31.649-8.901 18.79-17.802 39.56-28.681 58.351-13.847 23.737-37.583 38.572-69.231 44.506-25.715.989-39.56-1.978-43.517-20.77-2.967-14.835.989-34.615 9.89-42.527 11.868-10.88 32.638-13.846 48.462-9.89 28.681 9.89 27.692 10.88 33.626-17.802 4.945-20.77 7.912-41.539 11.868-63.297-6.923-.99-14.835-2.967-22.747-3.956-18.791-2.967-37.582-6.923-55.385-13.846-39.56-10.88-100.88-43.517-120.66-63.297zm22.747-42.528c3.956 32.637 33.626 41.539 60.33 53.407 21.758 12.857 47.472 18.791 74.176 23.736 10.879 2.967 23.736 5.934 35.604 8.901 13.847 4.945 16.814 1.978 18.792-11.868 4.945-24.725 13.846-48.462 22.747-72.198 2.967-7.912 4.945-16.813 8.901-24.725 4.945-18.792 10.88-36.594 17.802-56.374 2.967-8.901 6.923-18.791 10.88-28.682-13.847 2.967-26.704 4.945-40.55 6.924-43.517 5.934-84.066 12.857-125.605 27.692-29.67 10.88-56.374 19.78-74.176 44.506-4.945 6.923-9.89 19.78-8.901 28.681zm245.275 97.912c53.407 1.978 104.836 3.956 158.243 4.945 6.923 0 8.9-.989 11.868-12.857 13.846-46.483 26.703-91.978 41.539-136.484 3.956-11.868 7.912-24.725 11.868-36.593 2.967-9.89 5.934-17.802 9.89-27.693h-13.846c-25.715 0-50.44-1.978-76.154-1.978-17.803 0-70.22-3.956-80.11-.989-21.759 76.154-62.308 211.65-63.298 211.65zm230.44-.989c10.88-.989 21.76-1.978 32.638-3.956 19.78-1.978 37.583-3.956 55.385-7.912 85.055-18.791 133.517-45.494 154.286-69.23 6.923-7.913 9.89-20.77 6.923-27.693-2.967-31.649-31.648-41.539-56.373-53.407-24.726-11.868-51.43-18.791-78.133-25.714-11.868-2.967-22.747-5.934-33.626-9.89-14.835-2.968-20.77 0-23.736 14.835-4.945 23.736-12.858 50.44-24.726 81.099-6.923 25.714-15.824 51.429-25.714 79.121-2.967 7.912-3.956 14.835-6.923 22.747z" style="fill:#000;fill-opacity:1;fill-rule:nonzero;stroke:none;"/>
</svg>
