<svg xmlns="http://www.w3.org/2000/svg" width="1000" height="1000">
  <path d="M431.718 535.153c31.44 2.62 60.259 1.31 89.078-7.86C628.213 493.234 700.26 421.186 730.39 311.15c13.1-48.469 7.86-98.248-27.51-138.856-26.199-30.13-61.568-48.469-99.557-56.329-39.299-7.86-79.907-7.86-120.516-5.24-41.919 2.62-82.528 13.1-120.517 30.13-51.088 23.579-87.767 64.188-115.276 111.346-15.72 26.2-32.75 52.399-48.47 77.288-11.789 18.34-27.508 31.44-48.468 37.989-17.03 5.24-34.059 2.62-51.088-1.31-23.58-5.24-35.37-28.82-36.68-57.638-1.31-31.44 11.79-58.949 26.2-85.148 27.51-49.778 69.428-85.147 113.967-116.587 64.188-44.538 133.616-72.047 208.284-89.077 49.778-11.79 100.867-14.41 150.646-11.79 74.667 3.93 146.715 20.96 209.594 62.879 58.948 39.298 98.247 96.937 108.726 170.295 10.48 69.428-5.24 132.306-44.538 191.254-39.3 57.639-93.008 103.487-154.576 137.546-57.638 31.44-116.587 55.019-179.465 68.118-6.55 1.31-10.48 3.93-9.17 10.48 13.1 64.188 41.92 121.827 78.598 176.845 5.24 7.86 10.48 13.1 15.72 18.34 23.58 23.579 48.468 32.749 79.908 32.749 62.878 0 117.896-24.89 162.435-65.499 11.79-10.48 22.27-24.889 35.369-35.369 9.17-7.86 17.03-17.03 27.51-23.579 10.479-6.55 24.888-3.93 35.368 5.24s11.79 19.65 10.48 32.749c-2.62 20.96-14.41 40.609-28.82 55.018-56.328 56.329-117.896 104.797-196.494 127.067-36.679 10.48-75.978 17.03-113.967 7.86-32.749-7.86-57.638-24.89-82.527-47.16-41.919-36.678-69.428-83.837-93.008-134.925-22.269-47.159-32.749-95.628-56.328-142.786-1.31-2.62-2.62-7.86-3.93-14.41-3.93 5.24-6.55 10.48-7.86 14.41-17.03 49.778-34.059 95.627-52.398 144.096-15.72 40.609-31.44 81.217-52.399 117.896-14.41 24.89-31.439 47.159-53.708 64.189-28.82 22.269-72.048 20.959-94.317-3.93-17.03-18.34-18.34-39.3-15.72-62.879 2.62-22.269 11.79-41.918 22.27-61.568C177.585 719.858 252.252 588.862 324.3 457.865c27.51-49.778 60.259-98.247 95.628-142.785 10.48-13.1 23.579-24.89 37.988-35.37 5.24-3.93 13.1-6.55 20.96-9.17 26.2-9.169 47.159 19.65 40.609 49.78-6.55 30.129-18.34 58.948-30.13 85.147-18.339 40.609-40.608 78.598-53.708 119.207-1.31 3.93-2.62 5.24-3.93 10.48z" style="fill:#000;fill-opacity:1;fill-rule:nonzero;stroke:none;"/>
</svg>
