<svg xmlns="http://www.w3.org/2000/svg" viewBox="0 0 1000 1000"><path d="M500,995c273.38,0,495-221.62,495-495S773.38,5,500,5,5,226.62,5,500,226.62,995,500,995ZM201,285.73,346.73,140H416c-18.76,10.82-80.8,88-96.67,145.73ZM486.69,140V285.73h-140c9.86-30.06,45-101.29,106.78-145.73Zm28.14,145.73h141.4C623.33,207.24,569.9,155.87,547.29,140H514.83Zm283.52,0H683.65c-18-43.28-50.65-103-97.4-145.73h64.93ZM315.71,714.27H201L348.17,860H413.1C366.36,817.29,333.74,757.55,315.71,714.27Zm27.41,0H484.53V860H452.06C429.46,844.13,376,792.76,343.12,714.27Zm169.54,0V860h33.19c61.75-44.44,96.91-115.67,106.77-145.73ZM652.62,860,798.35,714.27H680C664.17,772,602.12,849.18,583.36,860ZM434.36,608.54q7.51-21.57,7.51-48.3,0-27.66-7-47.83-6.56-20.16-18.28-32.83a67.4,67.4,0,0,0-26.73-19.22,77.55,77.55,0,0,0-31.42-6.57,59.41,59.41,0,0,0-15.95,2.35,33.1,33.1,0,0,0-13.13,7l-.47-.47,67.53-126.61H335L269.3,464.58A284.37,284.37,0,0,0,250.07,511a175.51,175.51,0,0,0-7,50.65q0,26.26,7,47.36,7.5,21.11,20.63,35.64a90.76,90.76,0,0,0,31.42,22.51,105.36,105.36,0,0,0,40.33,7.5,104,104,0,0,0,39.86-7.5,90.58,90.58,0,0,0,31.42-22.51A110.18,110.18,0,0,0,434.36,608.54Zm-57.21-96.6q11.27,18.77,11.26,47.83,0,30.48-12.19,49.71-11.73,18.75-33.3,18.76T309.16,610Q297,591.19,297,560.71A102.59,102.59,0,0,1,300.25,534a68.54,68.54,0,0,1,9.38-21.1,46.12,46.12,0,0,1,14.53-14.54,36.14,36.14,0,0,1,19.23-5.16Q365.91,493.18,377.15,511.94Zm204.93-78.31L676.34,668.1h61.9v-332H689.47L689.94,572h-1.41L595.21,336.09H531v332h50.64l-.94-234.47Z" fill-rule="evenodd"/></svg>