<svg xmlns="http://www.w3.org/2000/svg" viewBox="0 0 1000 1000"><path d="M288,2.8,86,204.8H250c22-80,108-187,134-202Zm194,202V2.8H436c-85.6,61.6-134.3,160.3-148,202Zm39,0H717C671.4,96,597.3,24.8,566,2.8H521Zm234,0H914L710,2.8H620C684.8,62,730,144.8,755,204.8Zm-43,796,202-202H750c-22,80-108,187-134,202Zm-194-202v202h46c85.6-61.6,134.3-160.3,148-202Zm-39,0H283c45.6,108.8,119.7,180,151,202h45Zm-234,0H86l204,202h90C315.2,941.6,270,858.8,245,798.8Zm201.4-94.9q-20.85,17-50.1,27.3c-19.1,6.9-42,10.4-68.9,10.4q-40.95,0-73.5-16.9-32.55-17.55-55.2-49.4c-14.7-21.2-26.2-46.6-34.4-76q-11.7-44.25-11.7-98.2,0-52.65,11.7-96.9t33.8-76q22.05-32.55,53.3-50.1,31.2-18.15,70.2-18.2,40.95,0,70.9,14.9a124.61,124.61,0,0,1,48.8,41l-44.9,54.6q-25.95-37.65-70.2-37.7c-16,0-30.1,4.6-42.2,13.6-11.7,9.1-21.5,21.5-29.2,37.1-7.8,15.2-13.7,32.9-17.6,53.3a342.06,342.06,0,0,0-5.8,64.4,359.62,359.62,0,0,0,5.8,66.3q5.85,30.6,17.6,54,11.7,22.8,29.2,35.8c12.1,8.7,26.4,13,42.9,13a112.62,112.62,0,0,0,27.9-3.2c8.7-2.6,15.6-5.8,20.8-9.8v-119H319.7V470.6H446.5l-.1,233.3Zm402.2-21.4a142.46,142.46,0,0,1-46.8,44.2q-27.9,16.95-70.8,16.9-39,0-70.9-18.2-31.2-18.15-53.3-50c-14.3-21.7-25.6-47.2-33.8-76.7q-11.7-44.25-11.7-96.9T573,404.9q12.3-44.85,34.5-76.7,22.05-32.55,53.3-50.1Q692.6,260,731,259.9q39.6,0,69.5,14.9a122.82,122.82,0,0,1,48.8,41.6L804.4,371c-17.8-25.6-40.7-38.4-68.9-38.4a65.68,65.68,0,0,0-41,13.6c-11.7,8.7-21.5,20.6-29.2,35.8s-13.7,33.2-17.5,54a348.66,348.66,0,0,0-5.9,65.6,354.12,354.12,0,0,0,5.9,65.6c3.9,20.4,9.8,38.1,17.5,53.3s17.5,27.3,29.2,36.4c12.1,8.7,26.2,13,42.2,13q22.8,0,39-11.7a103,103,0,0,0,28-28.6Z"/></svg>