<svg xmlns="http://www.w3.org/2000/svg" viewBox="0 0 1000 1000"><path d="M500,995c273.38,0,495-221.62,495-495S773.38,5,500,5,5,226.62,5,500,226.62,995,500,995ZM201.84,285.73,347.57,140h69.26c-18.76,10.82-80.81,88-96.68,145.73ZM487.53,140V285.73h-140c9.86-30.06,45-101.29,106.77-145.73Zm28.13,145.73H657.07C624.17,207.24,570.73,155.87,548.13,140H515.66Zm283.53,0H684.48c-18-43.28-50.64-103-97.39-145.73H652ZM316.54,714.27H201.84L349,860h64.93C367.19,817.29,334.58,757.55,316.54,714.27Zm27.42,0h141.4V860H452.9C430.29,844.13,376.86,792.76,344,714.27Zm169.54,0V860h33.18c61.76-44.44,96.92-115.67,106.78-145.73ZM653.46,860,799.19,714.27H680.87C665,772,603,849.18,584.2,860Zm-37.3-425.34a92.29,92.29,0,0,1-3.73,26.55,115.23,115.23,0,0,1-9.54,23.64,204.29,204.29,0,0,1-14.52,22.4q-7.89,10.79-16.6,22.4l-60.56,77.58H612.43v43.55H454V605.57l85-107.45a209,209,0,0,0,19.91-31.52q7.47-15.35,7.47-30.28,0-17.43-7.88-29.46t-24.06-12a30.75,30.75,0,0,0-24.06,10.79q-9.54,10.78-12.45,31.11l-46.87-4.56q5.38-40.25,28.21-60.57t57.24-20.32q19.08,0,33.6,6.22A67.38,67.38,0,0,1,595,374.92a75.33,75.33,0,0,1,15.77,26.55A99.59,99.59,0,0,1,616.16,434.66ZM355.61,650.78l.83-225.67h-1.25l-58.9,225.67h-39L199.63,425.11h-1.24l.83,225.67H154V357.08h66.79L277.2,572h1.66L334,357.08h70.1v293.7Zm366.33-142.7,78.4,142.7H858L766.33,492.32l86.28-135.24h-56L721.94,484.44H720.7V357.08H670.92v293.7H720.7V508.08Z" fill-rule="evenodd"/></svg>