<svg xmlns="http://www.w3.org/2000/svg" width="1000" height="1000">
  <path d="M500.496 5C223.572 5 5 229.506 5 500.002c0 276.43 224.506 495.001 495.002 495.001 276.43 0 495.001-224.506 495.001-495.001C995.003 226.539 773.464 5 500.496 5zM318.518 795.222v-63.297c0-8.9 1.978-9.89 9.89-8.9 15.824 5.933 28.681 8.9 41.538 11.868.99 1.978 2.967 1.978 6.923 3.956-18.79 22.747-37.582 44.505-54.395 64.286h-1.978c0-2.968-1.978-4.946-1.978-7.913zm0-114.725v-42.528c0-8.901 3.956-10.879 9.89-5.934 16.813 10.88 15.824 6.923 7.912 26.703-2.967 6.924-5.934 14.836-9.89 23.737l-3.956 3.956h-1.978c0-2.967-1.978-3.956-1.978-5.934zm0-269.012v-42.528c0-9.89 1.978-11.868 11.868-9.89.989 0 4.945 0 5.934 1.978 13.846.99 13.846.99 8.9 10.88-6.922 15.824-13.845 28.68-18.79 42.527-.99.989-2.967 2.967-3.956 5.934l-1.978-.989c0-1.978-1.978-4.945-1.978-7.912zm0-89.011V295.77c0-3.956 3.956-5.934 7.912-3.956 8.9.99 14.835.99 25.714 3.956-12.857 13.846-20.77 25.715-29.67 36.594 0-.99-1.978-.99-1.978-.99 0-3.955-1.978-4.944-1.978-8.9zm0-144.397c0-.989 4.945-4.945 6.923-4.945h81.099c1.978 0 2.967 1.978 7.912 3.956-11.868 7.913-19.78 16.814-27.692 22.748-13.847 9.89-26.704 19.78-38.572 30.66-3.956 3.955-8.901 2.966-11.868-1.979-4.945-10.879-10.88-21.758-15.824-33.626-1.978-4.945-1.978-11.868-1.978-16.814zm1.978 532.09c7.912-21.758 15.824-41.538 24.725-63.297h2.967c9.89 28.682 19.78 57.363 30.66 83.077-1.979 1.978-1.979 1.978-3.957 1.978-16.813-5.934-33.626-8.9-51.428-13.846-.99-.989-4.945-5.934-2.967-7.912zm0-100.88c15.824-14.834 34.615-29.67 50.44-43.516 1.977 0 1.977 1.978 3.955 1.978-1.978 3.956-1.978 4.945-3.956 8.901-5.934 15.824-13.846 34.616-22.747 52.418-.989 8.901-3.956 8.901-11.868 2.967-4.945-2.967-7.912-4.945-12.857-7.912-5.934-4.945-5.934-11.868-2.967-14.835zm0-8.9c0-2.967-1.978-5.934 0-7.913 1.978-6.923 4.945-12.857 5.934-19.78 6.923-13.846 11.868-27.692 18.79-41.538 2.968-9.89 4.946-9.89 11.87-1.978 5.933 4.945 12.856 12.857 19.78 18.79 1.977 1.979 1.977 6.924 0 7.913-16.814 15.824-35.605 28.681-51.43 41.539 0 .989-1.977.989-4.944 2.967zm0-31.649v-93.956s1.978 0 1.978-1.978c.989 1.978 2.967 3.956 2.967 7.912 5.934 8.901 9.89 18.791 15.824 29.67 3.956 4.945 3.956 9.89 0 15.825-4.945 10.879-9.89 24.725-14.835 36.593-.99 2.967-2.967 4.945-3.956 8.901 0-2.967-1.978-2.967-1.978-2.967zm0-113.737c24.725 6.924 47.472 12.858 72.198 21.759-7.913 6.923-12.858 11.868-19.78 16.813-6.924 3.956-10.88 8.901-17.803 14.835-2.967 2.967-6.923 4.945-9.89 0-6.923-16.813-14.835-29.67-22.747-46.483 0-1.978 0-3.956-1.978-6.924zm0-16.813c10.879-23.736 20.769-47.472 31.648-72.198 2.967.99 4.945 2.967 4.945 4.945 5.934 8.901 12.857 19.78 19.78 29.67 1.978 2.968 1.978 5.935-3.956 7.913-14.835 10.879-31.648 19.78-47.472 29.67zm0-93.956c7.912-12.857 18.79-26.704 29.67-38.572h2.967v9.89c0 10.88-.989 21.759-.989 33.627 0 4.945-1.978 6.923-6.923 6.923-6.923 0-13.846-1.978-19.78-1.978-6.923-.989-7.912-6.923-4.945-9.89zm0-76.154c4.945-6.923 10.879-15.824 17.802-21.759l.989 1.978c4.945 11.869 8.901 22.748 12.857 35.605 0 3.956-3.956 5.934-6.923 5.934-6.923-1.978-13.846-3.956-21.758-5.934-4.945-.989-7.913-9.89-2.967-15.824zm0-11.868v-44.506s1.978-1.978 2.967-1.978c1.978 4.945 4.945 9.89 7.912 15.824 6.923 12.857 4.945 22.747-10.88 30.66zm1.978 562.749c3.956-2.967 8.9-5.934 13.846-9.89 13.846-5.934 26.703-12.858 40.55-19.78 2.966-1.979 6.922-1.979 7.911-1.979 15.825 12.857 33.627 23.737 51.43 35.605 0 1.978 0 1.978 3.955 4.945-42.527-.99-78.132-2.967-116.703-4.945 0-1.978-.99-3.956-.99-3.956zm0-9.89c18.79-21.759 37.582-42.528 54.395-62.308 1.978 0 1.978 0 2.967.989v33.626c0 1.978-2.967 2.967-4.945 2.967-14.835 8.901-29.67 16.813-46.483 24.726zm.989-359.013v-2.967c11.868-8.9 24.725-16.813 38.571-23.736 2.967-2.967 7.912-5.934 12.857-7.912 1.978-.99 6.923 0 6.923 1.978 4.946 15.824 9.89 34.615 12.858 54.396-24.726-6.923-47.473-14.835-71.21-21.759zM345.22 246.32c0-1.978 2.967-4.945 4.945-4.945h73.187s.99 0 3.956 1.978c-24.725 16.814-45.495 30.66-70.22 48.462-3.956-17.802-8.901-31.648-11.868-45.495zm4.945 392.64c9.89-26.704 22.747-51.43 33.626-78.133h2.968c2.967 4.945 4.945 10.88 7.912 16.813 4.945 7.912 9.89 16.814 14.835 25.715 0 .989 0 7.912-.99 7.912-18.79 9.89-35.604 18.791-53.406 27.692zm1.978-404.508c7.912-7.912 15.824-14.835 22.747-21.758 12.858-8.901 25.715-18.791 39.56-30.66 6.924-4.945 8.902-3.956 9.891 2.968 2.967 14.835 6.923 29.67 9.89 43.516 1.978 4.945 1.978 7.912-4.945 7.912h-71.209c-.989 0-2.967-1.978-5.934-1.978zm2.967 419.342c-1.978-6.923 0-9.89 4.945-12.857 12.857-4.945 24.725-11.868 37.583-18.791 2.967-.99 6.923-2.967 11.868-4.945l1.978 1.978c-8.901 34.615-18.791 69.23-26.704 103.846h-2.967c-1.978-2.967-2.967-4.945-2.967-5.934-8.9-21.758-15.824-41.538-23.736-63.297zm0-132.528c-1.978-.989-1.978-4.945 0-5.934 10.88-10.879 23.736-20.769 36.594-30.66 0 0 .989 1.979 2.967 1.979-4.945 19.78-7.912 37.582-10.88 58.352 0 0-1.978.989-3.956.989zm2.967-160.22c0-1.978 6.923-7.912 9.89-11.868 1.978 0 2.967 0 2.967 1.978 1.978 10.88 3.956 22.747 5.934 34.615-1.978 0-1.978 1.979-3.956 1.979-4.945-8.902-10.879-16.814-14.835-26.704zm0-9.89v-33.627s1.978-1.978 3.956-1.978c.99 8.902 5.934 16.814 5.934 24.726 0 3.956-4.945 6.923-7.912 10.879zm4.945-41.539c1.978 0 2.967-1.978 2.967-1.978 13.846 11.869 26.704 23.737 40.55 34.616l-1.978 1.978c-6.923 0-12.857-1.978-19.78-1.978-5.935-1.978-11.869-4.945-13.847-12.857-.989-6.923-4.945-13.847-7.912-19.78zm0-13.846c13.846-2.967 24.726-3.956 34.616-5.934 11.868-1.978 25.714-3.956 36.593-5.934 8.901-.989 10.88 0 6.923 7.912-6.923 15.824-13.846 30.66-19.78 45.495-1.978 4.945-2.967 7.912-7.912 2.967-15.824-12.857-29.67-24.726-43.517-37.583-1.978-1.978-3.956-2.967-6.923-6.923zm9.89-9.89c8.901-6.923 14.836-11.868 23.737-15.824 11.868-6.923 22.747-15.824 32.637-21.759 8.901-4.945 8.901-3.956 10.88 3.957.988 5.934 2.966 12.857 4.944 17.802 0 2.967-3.956 7.912-4.945 7.912-21.758 4.945-43.516 7.912-65.275 11.868-1.978-1.978-1.978-3.956-1.978-3.956zm5.934 75.165c-1.978-15.824-1.978-15.824 13.847-13.846 4.945 1.978 9.89 1.978 15.824 3.956.989 0 2.967 2.967 2.967 4.945-8.901 12.857-16.813 26.703-24.725 39.56-1.979-1.977-1.979-1.977-2.968-1.977-1.978-10.88-3.956-21.759-4.945-32.638zm5.934 412.42v-31.65c0-1.977 2.968-2.966 4.946-4.944 12.857-4.946 28.681-10.88 41.538-14.836.99 0 .99 0 6.923.99-18.791 18.79-33.626 34.615-50.44 51.428-.988 0-.988-.989-2.967-.989zm1.979-362.97c19.78 4.946 37.582 8.902 58.351 12.858-15.824 16.813-28.681 30.66-42.527 44.506h-2.967c-4.945-17.803-7.912-37.583-12.857-57.363zm.989 314.507c8.9-33.626 16.813-66.264 26.703-99.89 0 0 0-.99 3.956-2.967.989 2.967.989 4.945 2.967 7.912 5.934 23.736 12.857 48.462 21.758 72.198 1.978 5.934 1.978 9.89-6.923 12.857-12.857 2.967-27.692 9.89-41.538 14.835-4.945 1.978-7.912 1.978-6.923-4.945zm0-180c4.945-20.77 8.9-38.572 11.868-58.352h.989c1.978-1.978 1.978-2.967 3.956-2.967 1.978 2.967 3.956 5.934 6.923 9.89 9.89 10.88 17.802 22.747 28.681 32.638 2.967 4.945.99 6.923-1.978 7.912-14.835 5.934-29.67 8.9-43.516 13.846-1.978 0-6.923-2.967-6.923-2.967zm1.978-144.396c7.912-14.836 16.813-28.682 26.703-43.517h2.967c7.912 19.78 14.835 39.56 25.714 62.308-6.923-1.978-12.857-1.978-15.824-3.956-10.879-.99-22.747-4.945-34.615-8.901-1.978 0-4.945-4.945-4.945-5.934zm1.978 160.22c0-1.978.989-7.912.989-7.912 15.824-4.945 30.659-7.912 45.494-12.857 0 0 1.978 0 4.945 1.978-8.9 18.791-16.813 39.56-24.725 58.352h-3.956c-2.967-2.967-4.945-7.913-7.912-12.858-5.934-7.912-9.89-18.79-14.835-26.703zm.989 215.605c15.824-15.824 30.659-31.648 43.516-47.473 1.978-2.967 4.945-2.967 6.923-3.956 1.978 3.956 2.967 4.945 2.967 6.923v82.089c0 1.978-.989 4.945-.989 6.923-3.956 0-4.945 0-6.923-1.978-14.835-9.89-29.67-18.792-43.516-29.67-7.912-4.946-7.912-5.935-1.978-12.858zm15.824-294.726v-2.967c36.593 2.967 72.198 4.945 106.813 7.912 1.978 0 1.978 1.978 1.978 2.967-1.978 1.978-2.967 1.978-4.945 1.978-19.78 10.88-37.582 24.725-58.352 34.616-2.967 1.978-7.912 1.978-8.9 0-12.858-14.836-25.715-29.67-36.594-44.506zm0-9.89c0-1.978.989-3.956 2.967-4.945 9.89-11.869 19.78-21.759 29.67-33.627 3.956-4.945 7.912-5.934 14.836-.989 16.813 12.857 34.615 25.715 53.406 39.56.99.99 4.945 4.946 5.934 6.924l-.989 1.978c-18.79 0-36.593-1.978-53.406-1.978-15.825-1.978-31.649-1.978-46.484-3.956-2.967 0-4.945-1.978-5.934-2.967zm10.879 140.44c7.912 1.978 14.835 1.978 23.736 3.956 0 0 1.978 2.967 1.978 4.945v62.308h-3.956c-6.923-23.737-13.846-45.495-21.758-71.21zm3.956-258.133c-1.978-.989-1.978-6.923 0-8.901 3.956-13.846 10.88-27.693 17.802-40.55 0-1.978 1.978-1.978 1.978-3.956h1.978v99.89l-1.978.99c-1.978-2.967-2.967-4.945-2.967-5.934-7.912-12.858-12.857-26.704-16.813-41.539zm2.967 236.374c4.945-8.9 7.912-18.79 13.846-29.67 0-1.978.99-2.967 2.967-4.945 1.978 1.978 1.978 2.967 1.978 4.945v43.517c0 4.945-1.978 6.923-6.923 6.923-18.791-3.956-18.791-3.956-11.868-20.77zm4.945-395.605c-4.945-21.759-4.945-21.759 17.802-21.759h39.561s0 1.978 1.978 1.978c-15.824 18.792-31.648 36.594-47.473 55.385h-1.978c-2.967-12.857-6.923-23.736-9.89-35.604zm13.846 54.396c.99-.99.99-.99 2.967-.99 10.88 7.913 24.726 16.814 36.594 24.726v2.967c-11.868 1.978-21.758 1.978-31.649 0-1.978 0-1.978-1.978-1.978-1.978-2.967-7.912-4.945-15.824-5.934-24.725zm3.956-5.935c0-1.978 0-3.956 1.978-3.956 18.792-2.967 36.594-5.934 58.352-7.912-1.978 4.945-1.978 7.912-2.967 11.868-1.978 8.902-4.945 17.803-8.9 26.704 0 .989-4.946 2.967-4.946 2.967-14.835-9.89-28.681-20.77-43.517-29.67zm0-11.868c14.836-18.791 30.66-34.615 44.506-53.407h3.956c3.956 15.825 8.901 28.682 11.868 43.517 0 .99-2.967 4.945-4.945 4.945-16.813 3.956-34.615 4.945-53.407 7.912 0-.989-1.978-.989-1.978-2.967zm3.956 582.53c-3.956-4.945-4.945-77.143 0-88.023.99 2.967 2.968 3.956 2.968 5.934 6.923 11.869 13.846 22.748 19.78 34.616 0 1.978 1.978 4.945 0 7.912-5.934 11.868-12.857 25.714-19.78 38.572-1.979 0-1.979.989-2.968.989zm0-95.935c.99-.989.99-.989.99-2.967 15.824 1.978 31.648 2.967 48.461 2.967-4.945 11.868-9.89 21.759-14.835 31.649 0 1.978 0 1.978-1.978 2.967-.99 3.956-2.967 4.945-5.934 8.9-1.978-3.955-3.956-4.944-4.945-8.9-8.901-10.88-13.846-22.748-21.759-34.616zm2.968 102.858c7.912-12.857 14.835-27.693 23.736-42.528.989-1.978 4.945-1.978 5.934-1.978 21.758 12.857 42.528 28.682 64.286 41.539 0 0 0 .989 1.978 2.967-4.945 1.978-7.912 1.978-12.857 1.978-26.704 1.978-51.429 4.945-78.132 6.923-4.945 0-6.924-2.967-4.945-8.901zm1.978-393.628c4.945-1.978 5.934-1.978 7.912-1.978h38.571c2.967 0 5.934 2.967 7.912 4.945 2.967 12.857 7.912 26.704 11.869 39.56 0 1.979 0 2.968-1.979 6.924-20.769-16.813-41.538-31.649-64.285-49.45zm4.945 101.869c2.967-.99 2.967-2.967 3.956-4.946 18.79-8.9 35.604-21.758 53.406-30.659 4.946-4.945 7.913-3.956 11.869 2.967 1.978 9.89 4.945 18.791 8.9 26.703.99 4.946.99 7.913-4.944 7.913h-70.22s0-1.978-2.967-1.978zm22.747 236.374c6.923-15.824 12.857-28.681 21.758-42.528 0-.989 2.967-2.967 2.967-.989 30.66 2.967 60.33 7.912 88.023 12.858 0 0 1.978 1.978 3.956 4.945-38.572 7.912-77.143 17.802-114.726 26.703 0 0 0-.989-1.978-.989zm11.868 5.934v-1.978c6.923-2.967 14.835-3.956 21.758-5.934 30.66-8.901 62.308-15.824 91.979-21.758 6.923-1.978 8.9 0 8.9 4.945.99 16.813 2.968 34.615 2.968 51.428 0 7.913-1.978 9.89-9.89 6.924-36.594-9.89-72.198-20.77-108.792-30.66-1.978 0-5.934-.989-6.923-2.967zm4.945-497.474c1.978-8.901 4.945-19.78 7.912-30.66 1.978 0 3.956 0 3.956.99 2.967 11.868 5.934 23.736 9.89 34.615 0 1.978-3.956 4.945-4.945 4.945-4.945-.989-9.89-2.967-14.835-4.945 0-.99-1.978-2.967-1.978-4.945zm0-93.956c0-1.979 3.956-6.924 4.945-6.924 22.748 3.956 47.473 4.945 71.21 8.902 1.977 0 1.977.989 2.966 2.967-15.824 9.89-31.648 18.79-47.472 27.692-5.934 3.956-9.89 4.945-13.847 8.901-4.945.99-5.934 0-7.912-3.956-2.967-12.857-5.934-26.703-9.89-37.582zm3.956 603.298c0-1.978.99-1.978.99-3.956 34.615 9.89 68.241 18.791 102.857 28.682v2.967c-2.967 0-4.945 1.978-7.912 2.967-6.923 1.978-15.825 1.978-21.759 3.956-9.89 2.967-18.79.989-28.681-3.956-10.88-8.901-26.703-17.803-39.56-26.704-1.979-.989-4.946-2.967-5.935-3.956zm8.901-551.87c14.836 1.978 26.704 4.945 38.572 7.912.989 0 2.967 3.956 2.967 4.945-7.912 11.869-15.824 23.737-24.725 36.594-1.978-1.978-3.956-1.978-3.956-1.978-3.956-13.846-7.913-30.66-12.858-47.473zm1.978 195.825c34.616 12.857 68.242 24.725 100.88 35.605v1.978c-1.978 1.978-2.967 2.967-4.945 2.967-24.726 3.956-49.45 8.9-76.154 12.857-2.967.989-6.923 0-8.901-5.934-2.967-12.857-5.935-27.693-8.902-41.539-1.978-.989 0-2.967-1.978-5.934zm2.967-3.956v-2.967c6.924-5.934 13.847-13.846 21.759-18.791 1.978-.99 6.923-.99 7.912-.99 20.77 16.814 41.538 32.638 63.297 51.43l1.978 2.966c-33.627-9.89-65.275-21.758-94.946-31.648zm3.957-194.836v-5.934c19.78-9.89 39.56-20.77 57.362-32.637l1.978.989c-6.923 13.846-12.857 26.703-17.802 40.55-1.978 1.977-3.956 2.966-5.934 2.966-10.88-.989-22.747-3.956-35.604-5.934zm3.956 489.562v-2.967c1.978 0 3.956-1.978 7.912-1.978 2.967-.989 7.912-.989 10.879-2.967 21.758-7.912 34.615 9.89 50.44 15.824v3.956c-23.737-3.956-45.495-7.912-69.231-11.868zm5.934-226.484c1.978 0 1.978-1.978 2.967-1.978 30.66 9.89 61.319 20.77 91.978 31.648v1.978c-3.956.99-7.912.99-8.901 2.968-21.758 1.978-41.539 2.967-63.297 4.945-6.923 0-9.89-1.978-12.857-9.89-1.978-9.89-6.923-19.78-9.89-29.671zm7.912-218.572c4.945-6.923 7.912-11.868 12.857-18.791 1.978 0 3.956 1.978 3.956 1.978-1.978 14.835-3.956 31.648-6.923 48.461h-2.967c-18.791-12.857-18.791-12.857-6.923-31.648zm3.956 215.605v-3.956c.989 0 3.956-.99 5.934-.99 24.725-4.944 50.44-8.9 75.165-13.845 5.934 0 9.89 0 9.89 6.923 2.967 14.835 5.934 27.692 9.89 43.516l-1.978.99c-33.626-10.88-66.264-21.759-98.901-32.638zm5.934-100.88c9.89-20.769 18.791-42.527 28.681-63.296 0 0 .99 0 2.967-1.978 1.978 1.978 1.978 4.945 2.967 6.923 8.902 21.758 16.814 44.505 24.726 66.264 3.956 4.945 1.978 7.912-3.956 5.934-17.803-.99-33.627-4.945-50.44-5.934-2.967-1.978-6.923-2.967-4.945-7.912zm4.945 148.353c26.703-2.967 53.407-4.945 80.11-7.912 0 .989.99 2.967.99 2.967-2.968 1.978-4.946 4.945-5.935 5.934-11.868 8.9-21.758 17.802-31.648 23.736-1.978 1.978-4.945 2.967-6.923 1.978-11.869-6.923-22.748-14.835-34.616-22.747 0 0 0-2.967-1.978-3.956zm0-231.43c1.978-14.835 4.945-28.681 6.923-41.538l3.956-1.978c.99 4.945 2.967 9.89 2.967 12.857 2.967 8.901 4.945 15.824 5.934 23.736 3.956 11.868 3.956 11.868-8.9 11.868h-5.935c-1.978-1.978-4.945-3.956-4.945-4.945zm1.978 12.857c0-6.923 8.901-3.956 12.857-3.956 4.945 0 4.945 3.956 3.956 7.913-1.978 5.934-4.945 12.857-7.912 18.79h-3.956c-1.978-5.933-4.945-13.845-4.945-22.747zm.989 86.045c1.978 0 1.978-1.978 1.978-1.978 1.978 0 3.956-.99 5.934-.99 13.846 2.968 29.67 4.946 42.528 7.913 2.967 0 5.934 1.978 7.912 5.934 4.945 10.879 8.901 23.736 11.868 37.582 1.978 1.978 0 1.978 0 5.935-24.725-19.78-46.484-35.605-70.22-54.396zm8.901 300.66c11.868-8.901 20.77-15.824 33.627-23.736 0 0 4.945 1.978 4.945 2.967 2.967 15.824 5.934 29.67 8.9 45.494l-.988.99c-14.835-7.913-29.67-16.814-46.484-25.715zm0-455.936c-.989-4.945 0-8.9 6.923-9.89 22.748-3.956 44.506-7.912 67.253-12.857h6.923c0 .99.99.99.99 2.967-20.77 23.737-42.528 49.45-65.276 77.143-1.978-4.945-3.956-5.934-3.956-7.912-4.945-16.813-7.912-32.637-12.857-49.45zm2.967-13.846v-5.934c6.923-13.846 11.868-26.703 17.802-38.571 1.978-1.978 7.913-2.967 7.913-2.967 17.802 9.89 34.615 19.78 50.44 27.692 0 1.978 0 1.978 1.977 4.945-26.703 5.934-51.428 10.88-78.132 14.835zm14.835 76.154c21.759-26.703 43.517-50.44 64.286-76.154 1.978 0 1.978 1.978 3.956 1.978-6.923 33.627-12.857 66.264-19.78 102.858-16.813-9.89-31.648-17.802-48.462-28.682zm2.967 11.869 1.978-.99c1.979 0 3.957.99 5.935.99 10.879 4.945 20.769 11.868 31.648 16.813.989.989 3.956 4.945 3.956 5.934-2.967 15.824-7.912 29.67-12.857 45.495 0 1.978-1.978 1.978-3.956 2.967-8.901-22.748-17.802-48.462-26.704-71.21zm10.88 245.275c6.923-4.945 10.879-8.901 15.824-12.857 10.879-6.923 18.791-14.835 28.681-21.758 1.978-1.978 5.934-1.978 5.934 0 18.792 27.692 35.605 54.395 53.407 83.077v4.945c-34.615-16.813-67.253-35.605-103.846-53.407zm2.967 9.89 1.978-.989c27.692 13.846 56.373 27.693 86.044 42.528 0 1.978-.99 1.978-.99 2.967h-5.933c-19.78-2.967-37.583-4.945-57.363-7.912-5.934-1.978-10.88-2.967-11.868-7.912-3.956-8.901-6.923-15.825-9.89-21.759 0-1.978-1.978-4.945-1.978-6.923zm6.923 90.99c2.967-14.836 5.934-29.67 7.912-44.506 23.736 21.758 45.495 43.517 68.242 64.286-3.956 0-4.945 1.978-6.923 0-19.78-4.945-41.539-9.89-63.297-14.835-.99 0-5.934-2.967-5.934-4.945zm.989 16.813c-.99-7.912 3.956-6.923 8.9-6.923 21.76 4.945 41.54 9.89 62.309 16.813 1.978 0 3.956 1.978 7.912 1.978v2.967s-2.967 1.978-3.956 1.978c-19.78 9.89-38.572 19.78-56.374 29.67-4.945 1.979-6.923 0-8.901-5.934-2.967-12.857-5.934-26.703-9.89-40.55zm11.868-286.814c5.934-14.836 8.901-31.649 13.846-47.473h2.967c4.945 7.912 10.88 14.835 15.824 22.747 7.913 9.89 12.858 19.78 18.792 29.67 2.967 4.946 1.978 6.924-2.967 6.924-15.825-1.978-28.682-3.956-41.539-4.945-2.967 0-6.923-4.945-6.923-6.923zm1.978 351.1c0-4.945 1.978-7.912 6.923-5.934 18.791 7.912 39.56 16.813 59.34 22.747 0 1.978 1.979 1.978 4.946 4.945-23.736 11.868-43.517 23.736-66.264 34.616-.989-2.967-.989-4.946-.989-7.913-1.978-16.813-1.978-31.648-3.956-48.461zm0-334.287c-1.978-4.945 1.978-4.945 4.945-4.945 11.868 0 20.77.989 33.627 3.956 2.967 0 7.912.989 13.846.989-12.857 16.813-24.726 29.67-37.583 42.528h-2.967c-3.956-14.836-7.912-27.693-11.868-42.528zm4.945 203.737h6.923c18.791 2.967 40.55 5.934 62.308 9.89 12.857.989 12.857.989 9.89 14.835-.989 11.868-4.945 24.726-7.912 38.572 0 .989-1.978 3.956-1.978 3.956-22.747-20.77-46.484-43.517-69.231-67.253zm1.978 119.67v-3.955l14.835-8.902c14.835-7.912 29.67-13.846 43.517-20.769 4.945-2.967 7.912-2.967 7.912 1.978.989 18.791.989 37.583 2.967 56.374 0 0-1.978 0-1.978 1.978-22.747-8.901-44.506-18.791-67.253-26.703zm9.89-266.044s.99 0 .99-.99c15.823 6.924 29.67 11.869 47.472 17.803-13.846 11.868-25.714 20.77-35.605 30.66-1.978 0-3.956-1.979-3.956-1.979-2.967-15.824-5.934-29.67-8.9-45.494zm0-143.407c5.934-34.616 12.857-66.264 19.78-97.913l1.979-.989c.989 2.967 2.967 3.956 4.945 5.934 5.934 12.858 13.846 26.704 22.747 39.56 0 1.979 0 6.924-.99 7.913-13.845 15.824-28.68 28.681-42.527 43.517-.989 0-2.967 0-5.934 1.978zm.99 17.802c-.99-1.978-.99-6.923 0-7.912 15.823-14.835 29.67-29.67 43.516-44.506.989-1.978 3.956-1.978 4.945-2.967h3.956c.989 20.77 5.934 40.55 3.956 62.308 0 16.813-7.912 33.627-14.835 51.429-2.967-1.978-4.945-3.956-4.945-4.945-10.88-16.814-24.726-34.616-36.594-53.407zm12.856 185.935c0-1.978 2.967-1.978 2.967-3.956.99 0 4.946 0 5.935 1.978 21.758 2.967 41.538 8.9 63.296 13.846 4.946 0 5.935 2.967 4.946 7.912-4.946 21.758-9.89 41.538-15.825 63.297 0 .989-.989.989-2.967 5.934-20.769-29.67-37.582-61.319-58.352-89.011zm2.967-11.869c7.913-4.945 13.847-10.879 20.77-16.813 18.791-12.857 13.846-12.857 26.703 3.956 5.934 7.912 12.857 14.835 18.791 22.748.99 1.978 2.967 2.967 4.945 4.945-1.978.989-1.978.989-1.978 3.956-23.736-5.934-46.483-10.88-68.242-15.825 0-.989 0-.989-.989-2.967zM703.244 707.2c-1.978-4.945 0-6.923 4.945-6.923 8.901 1.978 19.78 3.956 29.67 4.945 4.946 0 5.935 2.967 2.968 6.923-9.89 13.846-19.78 29.67-29.67 42.528 0 1.978-1.979 1.978-4.946 2.967 0-4.945-1.978-5.934-1.978-9.89 0-12.857-.989-27.693-.989-40.55zm4.945-16.813c14.835-19.78 27.693-38.572 42.528-58.352 0 0 1.978 0 5.934-1.978-3.956 23.736-5.934 45.495-8.901 67.253 0 1.978-4.945 2.967-6.923 2.967-9.89 0-19.78-.989-28.682-2.967-3.956-1.978-7.912-3.956-3.956-6.923zm0-12.857v-6.923c2.967-10.88 3.956-21.759 7.912-31.649 0-2.967 4.945-8.901 8.901-9.89 7.913-3.956 15.825-4.945 23.737-7.912 0 .989 1.978.989 1.978 2.967-12.857 18.791-25.715 35.604-39.56 54.396-1.979 0-2.968-.99-2.968-.99zm10.88-53.407c6.922-20.77 11.867-42.528 16.813-65.275h2.967c4.945 13.846 9.89 25.714 13.846 38.572 4.945 16.813 4.945 16.813-11.868 21.758-6.923 1.978-12.858 2.967-17.803 4.945z" style="fill:#000;fill-opacity:1;fill-rule:nonzero;stroke:none;"/>
</svg>
