<svg xmlns="http://www.w3.org/2000/svg" viewBox="0 0 1000 1000"><path d="M500.496 995.003c275.935 0 494.507-224.506 494.507-495.496C995.003 226.54 773.464 5 500.496 5 223.572 5 5 229.506 5 499.507c0 276.924 224.506 495.496 495.496 495.496zM79.176 500.496c.99-227.473 188.902-413.408 418.353-413.408 230.44.99 416.375 186.924 416.375 417.364 0 229.452-186.924 415.386-417.364 415.386-231.43-.989-417.364-186.923-417.364-419.342zm38.572 1.978c0 208.682 169.121 378.793 378.792 378.793 208.682.989 379.782-168.133 379.782-375.826.989-209.67-170.11-379.781-378.793-379.781-208.682 0-379.781 169.121-379.781 376.814zm180 156.264c9.89-8.9 17.802-14.835 25.715-21.758 11.868 10.88 23.736 21.758 34.615 32.638 42.528 36.593 90.99 55.384 148.352 50.44 8.901 0 19.78-1.979 29.67-4.946 28.682-9.89 51.43-27.692 54.396-60.33 4.946-30.66-16.813-48.461-42.527-61.319-32.638-15.824-66.264-28.68-98.902-43.516-27.692-14.835-57.362-27.693-82.088-47.473-76.154-58.352-65.275-176.044 21.759-218.572 89.01-42.528 176.044-34.615 256.154 26.703 16.814 11.869 30.66 26.704 47.473 41.539-7.912 8.901-14.835 16.813-20.77 24.725-15.824-13.846-29.67-28.681-44.505-41.538-35.605-28.682-75.165-42.528-119.67-44.506-7.913 0-16.814 0-24.726.99-34.616 5.933-60.33 25.713-65.275 52.417-4.945 32.637 12.857 54.396 38.572 68.242 32.637 17.802 67.253 31.648 100.879 48.462 26.703 11.868 53.407 24.725 78.132 39.56 84.066 51.429 81.1 169.122-6.923 219.561-92.967 52.418-215.605 40.55-295.715-30.66-10.88-9.89-21.759-19.78-34.616-30.659zm76.154-193.846c19.78 19.78 45.495 34.615 70.22 46.483 35.605 18.792 76.154 31.649 112.748 49.451 63.297 30.66 77.143 63.297 55.385 131.539 69.23-45.495 70.22-120.66 3.956-163.187-30.66-20.77-68.242-32.638-101.869-50.44-31.648-15.824-64.286-30.66-92.967-49.45-34.615-24.726-43.517-60.33-30.66-100.88.99-3.956 1.979-8.901 3.957-15.825-53.407 34.616-62.308 107.803-20.77 152.309z"/></svg>