<svg xmlns="http://www.w3.org/2000/svg" width="1000" height="1000">
  <path d="M850.106 722.955c-17.742-10.645-33.119-24.839-46.13-31.935-8.279-2.366-21.29 0-27.204 7.096-87.526 54.409-172.687 110-260.214 167.957-16.559 13.01-29.57 13.01-48.494-2.366-79.247-55.591-162.043-111.182-242.473-170.322-36.666-24.839-41.398-24.839-79.247 13.01 10.645 5.915 20.108 14.194 28.387 18.926 82.796 59.14 163.225 117.096 248.386 172.687 27.205 18.925 37.85 35.484 31.936 67.42-2.366 7.096 0 15.376 0 29.57-136.021-99.355-266.128-195.162-402.15-290.968 29.57-18.924 55.592-35.484 79.248-53.225 8.28-5.914 16.559-15.377 16.559-21.29 2.365-66.237 0-131.29 0-199.893-29.57 16.56-57.957 34.301-87.527 50.86-14.193-40.214-8.28-66.236 29.57-80.43 52.043-23.655 75.699-59.139 66.236-117.096-2.365-23.656-5.914-41.398-29.57-53.225-8.28-5.914-16.559-15.377-28.387-21.29-40.215-16.56-43.763-44.947-31.935-87.527 9.462 3.548 15.376 9.462 23.656 15.376 125.376 85.161 254.3 170.322 379.676 256.666 23.656 15.376 37.85 17.742 61.505 3.548 127.742-81.612 256.666-160.86 389.14-243.655 4.73-2.366 13.01-8.28 26.02-13.01 0 20.107 0 34.3-4.73 52.042 0 5.914-4.732 14.194-10.646 16.56-21.29 15.376-46.129 27.203-66.236 42.58-9.462 4.73-15.376 18.924-18.925 31.935-2.365 5.914 0 14.194 0 23.656-8.28 48.494 9.463 78.064 53.226 101.72 47.311 26.022 42.58 29.57 37.85 89.892-29.57-17.742-59.14-34.3-87.527-55.59-3.549 8.279-5.914 11.827-5.914 18.924 0 54.408 0 110-2.366 165.59-3.548 20.108 2.366 31.936 20.107 41.398 27.205 16.56 53.226 37.85 85.161 56.775-140.752 88.709-279.138 178.601-415.16 266.128-15.376-40.215-8.28-66.237 23.656-83.978l274.408-169.14c5.914-2.365 11.828-8.28 20.108-15.376zM210.215 595.213c0 8.28 5.914 17.742 15.376 23.656 83.978 61.505 167.957 121.828 253.118 180.967 8.28 5.914 23.656 5.914 29.57 0 87.526-55.59 172.687-111.182 260.214-170.322 5.914-5.914 14.193-16.559 14.193-26.021 2.366-78.064 2.366-157.311 5.914-233.01V301.88c-37.849 15.376-54.408 36.666-54.408 74.516 2.365 61.505 0 121.827-4.731 183.333 0 8.28-8.28 21.29-16.56 27.204-63.87 46.129-132.472 87.526-198.708 133.655-14.194 9.463-23.656 9.463-35.484-3.548-66.237-46.129-133.656-89.892-198.71-136.021-8.279-7.097-14.193-21.29-14.193-29.57V355.106c2.366-34.3-10.645-53.225-49.677-61.505v8.28c-3.549 98.172-5.914 196.343-5.914 293.332zM271.72 165.86V5L280 8.548c39.032 16.56 57.956 42.58 49.677 87.527-2.366 14.193 0 28.387 0 43.763 0 26.022 15.376 34.301 35.484 20.108 41.397-26.022 85.16-49.678 121.827-76.882 15.377-8.28 23.656-8.28 39.032 0 37.85 27.204 75.7 53.226 115.914 80.43 21.29 16.56 39.032 8.28 39.032-21.29 2.366-21.29 2.366-40.215 0-61.505 0-23.656 5.914-37.85 26.022-47.312 11.828-5.914 17.742-10.645 33.118-18.925v18.925c0 33.118-3.549 65.054 0 94.623 8.28 48.495-13.01 78.065-56.774 101.72-55.591 31.936-111.183 69.785-164.408 108.817-13.011 8.28-21.29 8.28-34.301-4.73-63.871-42.581-127.742-89.893-195.161-133.656-13.01-8.28-17.742-17.742-17.742-34.301zm52.043 365.483c0 4.73 5.914 13.01 11.828 17.741 49.677 34.301 96.989 66.237 146.666 101.72 8.28 2.366 20.108 2.366 28.387 0 50.86-31.935 96.99-63.87 146.666-95.806 8.28-5.914 14.194-18.924 14.194-29.57 3.548-37.849 3.548-79.246 3.548-119.461 3.549-9.463 0-18.925 0-29.57-52.043 31.935-102.903 57.957-145.483 89.892-23.656 14.193-39.032 14.193-59.14 0-44.946-34.301-93.44-63.87-137.204-93.44-3.548 0-5.914 0-9.462 3.548zm82.795-327.634c31.936 23.656 61.506 43.763 91.075 61.505 2.366 2.366 8.28 2.366 10.646 0 29.57-17.742 57.956-35.483 93.44-59.14-31.935-23.655-61.505-40.214-91.075-61.505-2.365-2.365-10.645-2.365-13.01 0-29.57 18.925-59.14 37.85-91.076 59.14z" style="fill:#000;fill-opacity:1;fill-rule:nonzero;stroke:none;"/>
</svg>
