<svg xmlns="http://www.w3.org/2000/svg" viewBox="0 0 1000 1000"><path d="M5 500.496C5 225.55 226.54 5 500.496 5c272.968 0 494.507 222.528 494.507 494.507 0 274.946-222.528 495.496-494.507 495.496C225.55 995.003 5 772.475 5 500.496zm90-10.879c6.923 1.978 11.868 5.934 16.814 5.934a14670.783 14670.783 0 0 0 222.528 75.165c8.9 3.956 15.824 9.89 19.78 18.791 49.45 101.869 100.88 204.726 151.32 306.595.988 2.967 1.977 3.956 3.955 6.923 2.967-3.956 2.967-7.912 4.945-10.88 24.726-75.164 50.44-148.351 75.165-222.527 3.957-13.847 11.869-21.759 22.748-27.693 101.868-49.45 201.759-98.901 303.627-149.341 2.967-.989 4.945-1.978 6.923-2.967-1.978-1.978-3.956-1.978-4.945-2.967-14.835-4.945-27.692-7.912-40.55-13.846-64.285-22.748-129.56-42.528-191.868-65.275-10.88-3.956-15.824-7.912-21.758-16.813-12.858-30.66-29.67-62.308-44.506-92.968-35.605-72.198-71.21-143.407-106.814-214.616 0-.989-1.978-2.967-2.967-7.912-2.967 6.923-4.945 10.88-5.934 13.846-23.736 75.165-51.429 150.33-75.165 224.506-2.967 9.89-9.89 16.814-17.802 20.77-102.858 49.45-204.726 100.88-307.584 151.319-1.978.989-2.967 1.978-7.912 3.956zm75.165-4.945c80.11-38.572 159.232-77.143 240.33-117.693-21.757 60.33-41.538 118.682-61.318 179.012-59.34-19.78-119.67-40.55-179.012-61.32zM383.792 536.1c43.517-128.572 86.045-257.144 130.55-386.705 41.539 88.022 85.056 173.078 126.594 259.122-86.044 41.538-171.1 84.066-257.144 127.583zm1.979 53.406c61.318 20.77 119.67 39.561 180 61.32-19.78 58.351-40.55 117.692-61.319 178.022-39.56-79.121-78.132-158.242-118.681-239.342zm11.868-27.692c2.967-2.967 3.956-2.967 4.945-2.967 82.088-41.539 164.176-80.11 247.253-122.638 6.923-3.956 15.825-3.956 23.737-.989 55.384 18.791 109.78 37.583 167.143 55.385 1.978.989 3.956 1.978 6.923 4.945-2.967.99-4.945 1.978-6.923 2.967-82.088 40.55-165.165 79.121-246.264 120.66-6.924 3.956-16.814 4.945-23.737 2.967a8189.67 8189.67 0 0 0-166.154-57.363c-1.978 0-2.967-.989-6.923-2.967z"/></svg>