<?xml version="1.0" encoding="UTF-8"?><svg id="a" xmlns="http://www.w3.org/2000/svg" viewBox="0 0 1000 1000"><path d="M500,0L66.987,250v500l433.013,250,433.013-250V250L500,0Zm402.278,732.255l-402.278,232.255L97.722,732.255V267.745L500,35.489l402.278,232.255v464.51ZM475.932,214.355v353.708c-47.568,9.916-83.046,52.782-81.461,103.649,1.656,53.155,44.518,96.709,97.643,99.155,58.836,2.709,107.389-44.19,107.389-102.429,0-49.423-34.969-90.672-81.512-100.374v-224.431h102.541v-42.058h-102.541v-70.701h117.924v-42.058h-134.442c-14.106,0-25.54,11.435-25.54,25.54Zm27.597,393.948c28.047,2.972,50.594,25.52,53.567,53.567,4.079,38.493-28.209,70.781-66.702,66.702-28.047-2.972-50.595-25.52-53.567-53.567-4.079-38.493,28.209-70.781,66.702-66.702Z"/></svg>