<svg xmlns="http://www.w3.org/2000/svg" viewBox="0 0 1000 1000"><path d="M361.715 642.984c29.03 6.967 58.06 15.096 84.769 24.385 32.514 9.29 33.675 11.613 24.386 45.288-3.484 18.58-10.451 35.998-15.096 54.578-4.645 20.902-16.257 26.708-34.837 20.902-22.063-8.129-45.288-10.451-68.512-18.58-18.58-5.806-29.03 0-30.192 16.257-17.418 73.157-27.87 63.867 44.127 82.447 65.028 19.74 62.706 6.967 42.965 78.963-16.257 54.577-16.257 54.577-74.318 38.32-78.963-20.902-67.351-9.29-49.933-87.091 3.484-13.935 6.967-25.547 12.774-40.643l-75.48-23.225c-34.837-10.45-38.32-12.773-27.87-48.77 23.225-81.286 42.966-160.25 66.19-241.535 6.968-25.547 5.807-44.127-16.257-65.029C95.795 312.035 181.725 55.405 403.52 10.118c148.635-30.192 305.4 76.64 329.786 229.922 15.096 92.897-11.612 176.505-75.48 245.018-16.257 15.095-20.902 29.03-15.095 51.093 13.934 35.998 17.418 65.029 27.869 101.027 10.45 27.869 18.58 31.353 41.804 20.902 24.386-4.645 44.126-10.451 68.512-15.096 15.096-3.484 24.386 0 25.547 15.096 6.967 23.224 13.935 46.449 22.063 69.673 4.645 20.902-4.645 30.192-23.224 35.998-31.353 5.806-56.9 15.096-85.93 24.386-2.323 4.644-2.323 4.644-2.323 5.806 0 19.74 6.967 35.998 9.29 55.738-31.353 9.29-80.125 26.708-110.317 34.837-5.806 0-8.128-20.902-13.934-32.514-16.257-58.061-30.192-112.639-45.288-170.7-16.257-63.867-33.675-128.896-54.577-195.085-8.129-34.837-8.129-34.837 24.385-54.578 58.061-32.514 88.253-82.446 88.253-146.314-2.322-65.028-34.836-114.96-95.22-140.508-58.061-25.546-116.122-20.902-167.216 20.902-88.253 70.835-73.157 212.504 26.708 265.92 33.676 19.741 33.676 19.741 24.386 54.578-12.774 52.255-27.87 102.187-41.804 156.765z"/></svg>