<svg xmlns="http://www.w3.org/2000/svg" viewBox="0 0 1000 1000"><path d="M500,995c273.38,0,495-221.62,495-495S773.38,5,500,5,5,226.62,5,500,226.62,995,500,995ZM201,285.73,346.73,140H416c-18.76,10.82-80.8,88-96.67,145.73ZM486.69,140V285.73h-140c9.86-30.06,45-101.29,106.78-145.73Zm28.14,145.73h141.4C623.33,207.24,569.9,155.87,547.29,140H514.83Zm283.52,0H683.65c-18-43.28-50.65-103-97.4-145.73h64.93ZM315.71,714.27H201L348.17,860H413.1C366.36,817.29,333.74,757.55,315.71,714.27Zm27.41,0H484.53V860H452.06C429.46,844.13,376,792.76,343.12,714.27Zm169.54,0V860h33.19c61.75-44.44,96.91-115.67,106.77-145.73ZM652.62,860,798.35,714.27H680C664.17,772,602.12,849.18,583.36,860Zm-5.19-481.71q27.68,0,46,22l31-40.33a84.32,84.32,0,0,0-33.77-23.91q-19.7-8.44-45-8.44a100.25,100.25,0,0,0-34.23,6.09,86,86,0,0,0-30.48,17.82q-13.12,12.19-21.57,30.95-8,18.28-8,44.08,0,20.64,5.16,35.64A98.43,98.43,0,0,0,571,488a109.35,109.35,0,0,0,21.11,18.76,227.53,227.53,0,0,0,25.79,14.54q21.57,10.78,35.64,23.45T667.59,579q0,22-11.72,34.23t-29.54,12.19a71.37,71.37,0,0,1-31.42-7.5,78.5,78.5,0,0,1-25.79-20.63l-30.48,41.26q14.07,16.41,37.51,27.2a120.84,120.84,0,0,0,51.12,10.79A102.38,102.38,0,0,0,663.84,670a83.86,83.86,0,0,0,30-19.23,93.62,93.62,0,0,0,20.63-31.88q8-18.76,8-43.14,0-21.11-6.56-36.58A92.69,92.69,0,0,0,699,512.41a112.14,112.14,0,0,0-23-19.23q-12.67-8-24.86-14.07-20.62-10.31-33.29-21.57-12.66-11.71-12.66-32.82a61.07,61.07,0,0,1,3.28-21.11,41,41,0,0,1,9.85-14.53,35.39,35.39,0,0,1,13.6-8A43.62,43.62,0,0,1,647.43,378.29Zm-181,230.25q7.5-21.57,7.5-48.3,0-27.68-7-47.83-6.57-20.16-18.29-32.83a67.26,67.26,0,0,0-26.73-19.22,77.51,77.51,0,0,0-31.42-6.57,59.4,59.4,0,0,0-15.94,2.35,33,33,0,0,0-13.13,7l-.47-.47,67.53-126.61H367L301.36,464.58A284.37,284.37,0,0,0,282.13,511a175.51,175.51,0,0,0-7,50.65q0,26.25,7,47.36,7.5,21.11,20.63,35.64a90.76,90.76,0,0,0,31.42,22.51,105.33,105.33,0,0,0,40.33,7.5,104,104,0,0,0,39.86-7.5,90.76,90.76,0,0,0,31.42-22.51A110.18,110.18,0,0,0,466.42,608.54Zm-57.21-96.6q11.25,18.77,11.25,47.83,0,30.48-12.19,49.71Q396.55,628.23,375,628.24T341.21,610Q329,591.19,329,560.71A103,103,0,0,1,332.3,534a68.78,68.78,0,0,1,9.38-21.1,46,46,0,0,1,14.54-14.54,36.14,36.14,0,0,1,19.23-5.16Q398,493.18,409.21,511.94Z" fill-rule="evenodd"/></svg>