<svg xmlns="http://www.w3.org/2000/svg" viewBox="0 0 1000 1000"><path d="M603.726 406.057c37.336-37.335 56.606-85.51 56.606-138.503 0-45.766-15.657-89.124-44.562-125.255L728.981 29.088 703.69 5 590.478 118.211c-34.927-28.905-78.284-45.766-125.255-45.766-107.19 1.204-193.905 87.92-193.905 196.313 0 50.584 20.475 99.964 56.606 137.3 32.518 32.517 74.672 51.787 119.233 56.605v143.32c-44.561 3.614-87.919 24.088-119.233 56.606-75.876 75.876-75.876 198.722 0 275.803 37.336 36.13 85.51 56.605 137.3 56.605 51.787 0 102.371-20.474 138.502-56.605 37.336-37.336 56.606-85.511 56.606-138.504 0-51.788-19.27-101.167-56.606-137.299-32.518-32.518-74.671-52.992-120.437-56.605V462.663c45.766-3.613 89.124-24.088 120.437-56.606zm-297.48 393.831c0-42.153 16.86-83.102 46.97-112.007 30.11-31.313 69.854-46.97 112.007-46.97 43.358 0 83.102 15.657 113.211 46.97 30.11 30.11 46.971 69.854 46.971 112.007 0 42.153-16.861 83.102-46.97 113.212-30.11 30.11-69.854 45.766-113.212 45.766-42.153 0-81.898-15.657-112.007-45.766-30.11-31.314-46.97-69.854-46.97-113.212zm0-531.13c0-42.153 16.86-83.102 46.97-113.211 30.11-30.11 69.854-45.766 112.007-45.766 43.358-1.205 83.102 15.657 113.211 45.766 30.11 30.11 46.971 69.854 46.971 113.211 0 42.154-16.861 83.102-46.97 112.007-30.11 31.314-69.854 46.971-113.212 46.971-42.153 0-81.898-16.861-112.007-46.97-30.11-30.11-46.97-69.854-46.97-112.008z"/></svg>