<svg xmlns="http://www.w3.org/2000/svg" width="1000" height="1000">
  <path d="M5 500.496c0 271.98 220.55 494.507 495.496 494.507 271.98 0 494.507-220.55 494.507-495.496C995.003 227.528 773.464 5 500.496 5 226.54 5 5 225.55 5 500.496zm96.923 19.78c-4.945-49.45 7.913-95.934 35.605-140.44 29.67-39.56 74.176-69.23 122.638-83.077 94.945-18.791 201.759 17.802 245.275 140.44h402.53v44.506H518.297v42.527H907.97v39.561H505.441c-26.703 91.978-124.616 158.242-215.605 148.352-44.506-7.912-86.044-24.725-103.846-42.527-22.748-18.792-48.462-39.561-61.32-68.242-9.89-24.726-22.747-54.396-22.747-81.1zm126.594-17.802c0 44.506 36.594 79.121 81.1 79.121 38.571 0 78.132-34.615 78.132-79.12 0-62.309-85.056-105.825-136.484-56.375-13.847 16.814-22.748 31.649-22.748 56.374z" style="fill:#000;fill-opacity:1;fill-rule:nonzero;stroke:none;"/>
</svg>
