<svg xmlns="http://www.w3.org/2000/svg" viewBox="0 0 1000 1000"><path d="M994.997 338.953v197.604l-144.251 144.25H713.41c-7.904 0-14.82 2.965-19.76 7.905-4.94 4.94-7.905 11.856-7.905 19.76v82.006c0 4.94-1.976 8.892-4.94 11.856-2.964 2.964-6.916 4.94-11.856 4.94H565.208c-4.94 0-8.892-1.976-11.857-4.94-2.964-2.964-4.94-6.916-4.94-11.856v-199.58l85.958-85.958c2.964-2.964 6.916-3.952 11.856-3.952 3.952 0 7.905 1.976 10.869 4.94l37.544 37.545h98.802l64.222-64.221v-82.994l-66.198-66.197h-87.933L353.77 679.82H150.24L5 534.58V338.954l145.239-145.24h198.592l86.946 85.959c2.964 2.964 3.952 6.916 3.952 10.868 0 4.94-1.976 8.892-4.94 11.856l-73.114 73.114c-2.964 3.952-5.928 5.928-10.868 5.928s-9.88-1.976-12.844-4.94l-45.449-45.45h-84.97l-65.21 64.222v82.994l64.222 64.221h90.898l349.76-349.76H848.77z"/></svg>