<svg xmlns="http://www.w3.org/2000/svg" viewBox="0 0 1000 1000"><path d="M995 820.774V182.138c0-18.312-3.433-18.312-19.456-16.023-10.3 2.289-22.89 5.722-34.335 8.011-96.14 16.023-191.133 34.336-284.983 52.648-68.67 11.445-138.486 24.034-207.156 37.768l-116.74 24.035c-8.012 0-11.445 5.723-11.445 13.734V690.3c0 21.746 0 21.746 19.456 26.324l132.763 24.034c74.393 13.734 151.076 29.758 226.613 43.492 92.705 18.312 183.122 34.335 275.827 52.647 16.023 2.29 19.457 2.29 19.457-16.023zM5 906.612c0 14.879 0 14.879 18.312 12.59 68.67-12.59 138.486-26.324 207.156-40.058 104.15-18.312 208.301-36.624 311.307-58.37 5.722 0 11.445-2.29 13.734-5.723v-2.289c-2.29 0-8.012-2.289-10.3-2.289-56.082-11.445-112.163-21.745-170.532-32.046-24.035-5.722-48.07-13.734-74.394-8.011-61.803 13.734-122.462 24.034-186.555 36.624-16.023 3.433-16.023 3.433-16.023-12.59V192.438h10.3c56.082 11.445 114.452 24.035 172.822 34.336 16.023 3.433 35.48 5.722 51.503 3.433 70.96-10.3 140.774-24.034 212.878-37.769 4.578 0 8.012-2.289 10.301-4.578v-5.722c-2.29 0-8.012-2.29-10.3-2.29-16.024-3.433-29.758-5.722-45.781-8.01-74.393-13.735-148.786-27.469-223.18-43.492L23.313 81.42C5 77.987 5 77.987 5 97.444z"/></svg>