<svg xmlns="http://www.w3.org/2000/svg" width="1000" height="1000">
  <path d="M260.513 802.35 127.65 988.357c-2.214 3.322-6.643 6.643-12.179 6.643-4.428 0-7.75-4.428-9.964-8.857-2.215-4.429-2.215-8.858 1.107-13.286l132.862-187.115c1.107-2.214 4.429-4.428 7.75-4.428 4.43 0 6.644-1.108 9.965 2.214 3.322 3.322 4.429 4.429 6.643 9.965 1.107 3.321-1.107 5.536-3.321 8.857zm-65.324 158.328c-1.107-3.322 0-6.644 2.214-9.965l74.181-102.968c2.215-3.322 4.43-4.429 7.75-5.536 4.43-1.107 7.751 0 11.073 2.214 2.214 2.215 3.321 4.429 4.428 7.75 1.108 3.322 0 7.75-2.214 11.072l-73.074 101.861c-2.215 3.322-6.643 6.643-9.965 6.643-3.321 0-6.643 0-8.857-3.321-2.215-4.429-4.43-4.429-5.536-7.75zm6.643-532.556c6.643-11.072 16.608-24.358 27.68-37.645 23.25-28.786 48.716-50.93 76.395-64.216 19.93-9.965 40.966-17.715 66.431-24.358 17.715-4.43 36.537-8.858 55.36-9.965l24.358-1.107 57.573-97.432c15.5-25.466 29.894-47.61 45.395-65.324 27.68-32.109 62.002-57.574 100.754-78.61 22.143-12.18 46.501-21.037 73.074-28.787 22.143-6.643 45.394-8.858 68.645-13.286 15.5-3.322 32.109-2.215 48.716-2.215h18.823l7.75 25.465c6.643 22.144 12.179 43.18 15.5 65.324 4.43 31.001 7.75 58.681 7.75 85.254 0 75.288-26.572 145.04-79.717 210.365l-83.038 100.753c5.535 11.072 9.964 23.251 14.393 39.86 8.857 32.107 12.179 66.43 6.643 99.646-4.429 24.358-12.179 48.716-22.144 73.074-6.643 15.5-17.715 32.108-27.68 46.502l-12.178 18.822-3.322-28.787c-2.214-21.036-8.857-35.43-11.072-47.609-2.214-9.965-14.393-27.68-29.894-48.716l-23.25-31.001-4.43 6.643c-6.642 4.429-11.071 7.75-15.5 11.072-6.643 4.428-14.393 6.643-21.036 6.643-6.644 0-19.93-5.536-37.645-15.5l-5.536 7.75c-19.929 28.786-42.073 53.144-65.324 71.967-23.25 18.822-47.608 31-69.752 35.43-22.144 4.428-39.859 3.321-54.252-6.644-14.394-9.964-22.144-26.572-24.358-48.716-2.215-23.25 1.107-49.823 9.964-78.61 8.858-28.787 24.358-59.788 45.395-86.36l7.75-9.965c-18.822-16.608-29.894-28.787-29.894-37.644 0-7.75 0-16.608 2.215-25.466l5.536-8.857-12.18-5.536c-11.071-3.321-19.929-5.536-31-7.75-13.287-2.215-27.68-5.536-38.752-5.536-16.608 0-36.537 1.107-57.574 5.536zm178.257 205.936c2.214 15.5 7.75 27.68 18.822 35.43 8.857 6.643 22.143 8.857 36.537 6.643 14.393-2.214 31.001-8.857 47.609-21.036 15.5-11.072 31-26.573 43.18-44.288l2.214-1.107c-8.857-5.536-19.929-15.5-38.751-28.787l-73.074-52.037-2.215 1.107c-12.179 17.715-21.036 34.322-28.787 54.252-7.75 18.822-7.75 35.43-5.535 49.823zm210.365-395.265c0 25.465 8.857 46.502 26.572 65.324 17.715 18.822 38.752 26.572 64.217 26.572 26.572 0 47.609-9.964 65.324-26.572 18.822-17.715 27.68-39.859 27.68-65.324 0-24.358-9.965-46.502-27.68-64.217-18.822-18.822-38.752-26.572-65.324-26.572-25.465 0-45.395 7.75-64.217 26.572-17.715 17.715-26.572 39.86-26.572 64.217z" style="fill:#000;fill-opacity:1;fill-rule:nonzero;stroke:none;"/>
</svg>
