<svg xmlns="http://www.w3.org/2000/svg" viewBox="0 0 1000 1000"><path d="M5 500.496c0 271.98 220.55 494.507 495.496 494.507 271.98 0 494.507-220.55 494.507-495.496C995.003 227.528 773.464 5 500.496 5 226.54 5 5 225.55 5 500.496zm118.682 140.44c-10.88-42.527-9.89-86.044 0-129.56 15.824-66.265 48.461-123.627 94.945-173.078 76.154-83.077 170.11-135.495 280.88-158.243 36.594-6.923 73.187-9.89 110.77-8.9 60.33 2.966 116.703 17.802 169.121 50.44 59.341 36.593 97.913 90 113.737 158.241 10.879 48.462 6.923 96.924-7.912 144.396-17.803 58.352-49.451 109.781-90.99 154.287-70.22 75.165-156.264 123.627-256.154 149.34-39.56 9.891-75.165 13.847-112.748 13.847-59.34 0-115.715-9.89-168.132-37.582-67.253-34.616-113.737-88.023-133.517-163.188zm93.956-114.725c.99 8.9.99 22.747 2.967 36.593 8.901 56.374 32.638 104.836 73.187 145.385 69.231 68.242 153.297 93.957 248.243 80.11 72.198-10.879 133.517-42.527 181.978-96.923 63.297-68.242 90-148.352 76.155-241.32-7.913-56.373-32.638-104.835-72.199-144.396-71.209-70.22-158.242-93.956-255.165-78.132-67.253 10.88-123.627 41.539-171.1 90-54.395 56.374-83.077 124.616-84.066 208.683zm178.023 133.516V354.122c0-5.934.989-11.868 6.923-14.835 4.945-.99 7.912 0 11.868 1.978 56.374 34.615 112.748 69.23 168.132 102.857 28.682 17.803 56.374 34.616 85.056 51.43 9.89 6.922 9.89 16.812 0 22.746-84.067 51.43-168.133 101.869-252.2 153.298-4.944 2.967-8.9 3.956-13.845.989s-5.934-7.912-5.934-12.858z"/></svg>