<?xml version="1.0" encoding="UTF-8"?><svg id="a" xmlns="http://www.w3.org/2000/svg" viewBox="0 0 1000 1000"><path d="M424.93,505.953l-82.808,22.188c1.404-24.752,26.258-37.127,46.001-37.127s32.905,6.581,36.807,14.939Zm121.137-14.939c-21.808,0-46.067,13.162-46.067,39.486s24.259,39.486,46.067,39.486,46.067-13.162,46.067-39.486-24.259-39.486-46.067-39.486Zm453.933,8.986c0,276.143-223.858,500-500,500S0,776.143,0,500,223.858,0,500,0s500,223.858,500,500Zm-710.591-87.958h-26.324v78.972h-78.972v-78.972h-26.324v184.268h26.324v-78.972h78.972v78.972h26.324v-184.268Zm60.435,141.282l110.357-29.62c-3.089-33.153-39.173-59.015-72.078-59.015-46.067,0-72.391,29.464-72.391,65.81s26.324,65.81,72.391,65.81c32.905,0,65.385-22.454,71.13-52.34l-32.304,8.656c-8.828,11.573-24.366,17.36-38.826,17.36-14.166,0-29.366-5.554-38.279-16.661Zm258.747,12.605c6.477-10.228,9.867-22.385,9.867-35.429,0-36.345-26.324-65.81-72.391-65.81s-72.391,29.464-72.391,65.81,26.324,65.81,72.391,65.81c17.373,0,31.939-4.191,43.343-11.361,1.734,3.5,2.714,7.192,2.724,11.361-.133,14.424-11.869,26.324-26.324,26.324h-71.934l-7.038,26.267,78.972,.057c28.997,0,52.518-23.441,52.647-52.408-.05-11.361-3.7-22.04-9.866-30.62Zm62.515-101.239h-26.324v131.62h26.324v-131.62Zm0-26.324c0-7.269-5.893-13.162-13.162-13.162s-13.162,5.893-13.162,13.162,5.893,13.162,13.162,13.162,13.162-5.893,13.162-13.162Zm171.106,111.877l-25.733-6.895c-6.542,17.536-29.798,26.638-46.657,26.638-22.626,0-46.067-13.162-46.067-39.486s23.441-39.486,46.067-39.486c16.86,0,40.087,8.421,46.643,25.933l25.736-6.896c-8.003-26.507-39.475-45.36-72.379-45.36-46.067,0-72.391,29.464-72.391,65.81s26.324,65.81,72.391,65.81c32.905,0,64.4-19.54,72.391-46.067Zm0-302.725l-92.134,92.134-26.324-26.324-65.81,65.81v32.905l65.81-65.81,26.324,26.324,92.134-125.039Z"/></svg>