<svg xmlns="http://www.w3.org/2000/svg" viewBox="0 0 1000 1000"><path d="M356.22,498.36a36.139,36.139,0,0,1,19.23-5.16q22.55-.019,33.76,18.74h.01q11.25,18.769,11.25,47.83,0,30.48-12.19,49.71Q396.55,628.23,375,628.24T341.21,610Q329,591.19,329,560.71A103.02,103.02,0,0,1,332.3,534a68.774,68.774,0,0,1,9.38-21.1A45.985,45.985,0,0,1,356.22,498.36ZM995,500c0,273.38-221.62,495-495,495S5,773.38,5,500,226.62,5,500,5,995,226.62,995,500ZM201,285.73H319.33C335.2,228,397.24,150.82,416,140H346.73ZM360.95,462.67l67.53-126.61H367L301.36,464.58A284.43,284.43,0,0,0,282.13,511a175.512,175.512,0,0,0-7,50.65q0,26.25,7,47.36,7.5,21.11,20.63,35.64a90.763,90.763,0,0,0,31.42,22.51,105.334,105.334,0,0,0,40.33,7.5,104,104,0,0,0,39.86-7.5,90.763,90.763,0,0,0,31.42-22.51,110.172,110.172,0,0,0,20.63-36.11h.01q7.5-21.57,7.5-48.3,0-27.679-7-47.83-6.57-20.16-18.29-32.83a67.252,67.252,0,0,0-26.73-19.22,77.524,77.524,0,0,0-31.42-6.57,59.4,59.4,0,0,0-15.94,2.35,33,33,0,0,0-13.13,7ZM413.1,860c-46.74-42.71-79.36-102.45-97.39-145.73H201L348.17,860Zm71.43-145.73H343.12C376,792.76,429.46,844.13,452.06,860h32.47ZM486.69,140H453.47c-61.78,44.44-96.92,115.67-106.78,145.73h140Zm28.14,145.73h141.4C623.33,207.24,569.9,155.87,547.29,140H514.83Zm90.36,138.99a61.084,61.084,0,0,1,3.28-21.11,40.993,40.993,0,0,1,9.85-14.53,35.39,35.39,0,0,1,13.6-8,43.626,43.626,0,0,1,15.51-2.79q27.68,0,46,22l31-40.33a84.314,84.314,0,0,0-33.77-23.91q-19.7-8.44-45-8.44a100.254,100.254,0,0,0-34.23,6.09,86,86,0,0,0-30.48,17.82q-13.121,12.191-21.57,30.95-8,18.28-8,44.08,0,20.64,5.16,35.64A98.419,98.419,0,0,0,571,488a109.343,109.343,0,0,0,21.11,18.76A227.679,227.679,0,0,0,617.9,521.3q21.57,10.781,35.64,23.45T667.59,579q0,22-11.72,34.23t-29.54,12.19a71.38,71.38,0,0,1-31.42-7.5,78.5,78.5,0,0,1-25.79-20.63l-30.48,41.26q14.07,16.41,37.51,27.2a120.847,120.847,0,0,0,51.12,10.79A102.386,102.386,0,0,0,663.84,670a83.866,83.866,0,0,0,30-19.23,93.632,93.632,0,0,0,20.63-31.88q8-18.76,8-43.14,0-21.11-6.56-36.58A92.7,92.7,0,0,0,699,512.41a112.12,112.12,0,0,0-23-19.23,282.885,282.885,0,0,0-24.86-14.07q-20.62-10.309-33.29-21.57Q605.19,445.83,605.19,424.72Zm47.43,289.55H512.66V860h33.19C607.6,815.56,642.76,744.33,652.62,714.27Zm145.73,0H680C664.17,772,602.12,849.18,583.36,860h69.26Zm0-428.54L651.18,140H586.25c46.75,42.73,79.4,102.45,97.4,145.73Z"/></svg>