<svg xmlns="http://www.w3.org/2000/svg" viewBox="0 0 1000 1000"><path d="M348,339.7l-123.15-76H624.41l123.15,76ZM252.44,660.31l123.15,76H775.12L652,660.31ZM995,500c0,273.38-221.62,495-495,495S5,773.38,5,500,226.62,5,500,5,995,226.62,995,500ZM178.83,262l160,98.78a11.44,11.44,0,0,0,6,1.69H787.63a11.38,11.38,0,0,0,6-21.05l-160-98.79a11.61,11.61,0,0,0-6-1.69H184.8a11.38,11.38,0,0,0-6,21.06ZM561.07,450.61a69.27,69.27,0,0,0-48.77-19.93h-.73a69.74,69.74,0,0,0,.69,139.47h.7a69.73,69.73,0,0,0,48.11-119.54ZM821.17,738l-160-98.8a11.57,11.57,0,0,0-6-1.69H212.36a11.38,11.38,0,0,0-6,21.06l160,98.78a11.35,11.35,0,0,0,6,1.69H815.19a11.37,11.37,0,0,0,6-21Z"/></svg>