<svg xmlns="http://www.w3.org/2000/svg" width="1000" height="1000">
  <path d="M500.496 5C223.572 5 5 229.506 5 500.002c0 276.43 224.506 495.001 495.002 495.001 276.43 0 495.001-224.506 495.001-495.001C995.003 226.539 773.464 5 500.496 5zm-370.88 452.969c0-22.748 4.945-44.506 13.846-66.264 8.901-20.77 22.747-38.572 40.55-55.385 22.747-20.77 49.45-39.56 78.132-53.407 25.714-12.857 53.406-22.747 82.088-29.67 25.714-5.935 50.44-10.88 77.143-12.858 24.725-1.978 50.44-2.967 74.176 0 4.945.99 7.912.99 10.88.99 1.977 0 1.977 0 2.966.988-45.494 2.967-89.011 12.858-131.539 28.682-36.593 13.846-71.209 32.637-103.846 54.396-29.67 19.78-57.363 44.505-81.1 69.23-20.769 21.759-39.56 44.506-56.373 69.232-.99 1.978-2.967 5.934-4.945 7.912 0-3.956-1.978-8.901-1.978-13.846zm5.934 167.143c-.99-10.88-.99-21.758 1.978-31.649 4.945-14.835 13.846-25.714 26.703-34.615 10.88-7.912 22.748-12.857 37.583-10.88 12.857 0 23.736 4.946 33.626 12.858 11.869 8.901 20.77 19.78 27.693 31.648 15.824 27.693 33.626 50.44 53.407 74.177 24.725 26.703 51.428 51.428 84.066 71.209 22.747 13.846 48.461 24.725 74.176 33.626 17.802 5.934 36.593 9.89 55.385 11.868 21.758 3.956 43.516 4.945 64.286 3.956 26.703-.989 52.417-5.934 77.143-11.868 21.758-4.945 42.527-12.857 62.308-19.78 25.714-8.901 48.461-22.747 72.198-36.594 19.78-11.868 37.582-26.703 53.406-45.494h.99c-2.968 4.945-4.946 9.89-8.902 14.835-12.857 24.725-29.67 48.462-48.461 70.22-15.825 18.791-33.627 36.593-53.407 51.429-23.737 17.802-49.45 35.604-77.143 47.472-27.693 11.868-55.385 22.748-85.056 29.67-32.637 7.913-64.285 8.902-95.934 7.913-38.572-.99-76.154-7.912-111.759-19.78-39.56-12.858-76.154-34.616-108.791-57.363-22.747-15.824-42.528-34.616-59.341-54.396-27.692-29.67-48.462-64.286-66.264-99.89-5.934-11.869-8.901-24.726-9.89-38.572zm15.824-300.66c3.956-7.913 7.912-14.836 12.857-22.748 9.89-18.791 21.759-36.593 34.616-51.428 18.791-23.737 39.56-44.506 64.286-63.297 17.802-13.847 37.582-27.693 58.352-38.572 26.703-13.846 55.384-24.725 86.044-32.637 19.78-5.935 41.538-8.902 62.308-10.88 22.747-1.978 45.494-1.978 69.23 0 21.759.99 43.517 3.956 64.287 9.89 26.703 7.913 53.406 16.814 77.143 28.682 40.55 19.78 78.132 44.506 108.791 79.121 19.78 21.758 38.572 44.506 53.407 70.22 9.89 13.846 17.802 29.67 24.725 46.484 5.935 14.835 9.89 31.648 8.902 49.45-.99 25.715-14.836 44.506-38.572 55.385-9.89 5.934-20.77 7.912-32.637 6.923-11.869-1.978-19.78-6.923-28.682-11.868-10.879-8.9-19.78-18.791-27.692-30.66-18.792-32.637-40.55-63.296-67.253-89.01-28.682-31.649-61.32-56.374-99.89-75.166-26.704-12.857-55.385-20.769-85.056-27.692-17.802-3.956-37.582-4.945-57.363-4.945-24.725-.989-48.461.989-74.176 4.945-29.67 5.934-58.352 14.835-85.055 25.714-28.681 11.869-55.385 23.737-81.1 40.55-16.812 11.868-33.626 24.725-46.483 41.539zm172.089 175.055c0-99.89 81.099-182.968 181.978-182.968 99.89 0 181.979 82.089 182.968 180.99.989 101.869-83.077 183.957-182.968 183.957-100.88 0-181.978-81.1-181.978-181.979zM399.617 608.3c0 1.978 0 1.978 1.978 1.978h19.78c2.967 0 2.967.989 2.967 3.956v8.9c0 1.979.99 3.957 2.967 3.957h33.627c.989 0 1.978-1.978 1.978-3.956v-9.89c0-2.967 0-2.967 2.967-2.967h50.44c1.977 0 2.966.989 2.966 2.967v10.879c0 .989 0 2.967 1.978 2.967h33.627c.989 0 2.967-1.978 2.967-2.967v-11.868c0-1.978 0-2.967 1.978-2.967 3.956-.99 8.901-1.978 11.868-4.945 25.715-10.88 38.572-29.67 40.55-56.374 0-12.857-1.978-24.726-8.901-35.605-2.967-3.956-5.934-8.9-9.89-12.857 0-.989.989-.989.989-1.978 7.912-8.901 13.846-18.791 15.824-29.67 2.967-12.858 1.978-24.726-1.978-36.594-4.945-12.857-12.857-22.747-23.737-30.66-6.923-5.933-15.824-9.89-24.725-10.878-1.978-.99-1.978-.99-1.978-3.957v-11.868c0-1.978-1.978-1.978-2.967-1.978h-33.627c-1.978 0-1.978 0-1.978 1.978v10.88c0 1.977 0 1.977-2.967 1.977h-51.428c-.99 0-1.978 0-1.978-1.978v-10.879c0-1.978-.99-1.978-1.978-1.978H426.32c-.989 0-1.978.99-1.978 1.978v10.88c0 1.977-.989 1.977-2.967 1.977h-19.78c-1.978 0-1.978 1.979-1.978 2.968v33.626c0 1.978 0 1.978 1.978 1.978h20.769c1.978 0 1.978.99 1.978 3.956v140.44c0 1.978 0 2.967-2.967 1.978h-19.78c-1.978 0-1.978.99-1.978 2.967zm63.297-39.56v-48.463c0-1.978.989-1.978 1.978-1.978h84.066c10.879.99 20.77 7.913 23.736 19.78 2.967 10.88-.989 22.748-9.89 27.693-3.956 4.945-9.89 5.934-16.813 5.934h-80.11c-2.967 0-2.967 0-2.967-2.967zm0-90.99v-48.462c0-3.956 0-3.956 2.967-3.956h82.088c10.879 0 20.77 7.912 24.725 17.802 2.967 10.88 0 22.748-8.9 30.66-3.957 4.945-10.88 5.934-15.825 5.934H465.88c-1.978 0-2.967 0-2.967-1.978zm39.56 278.902c78.132-6.923 149.341-29.67 215.605-72.198 64.286-41.539 119.671-93.957 162.199-159.231.989 9.89.989 18.79 0 27.692-1.978 29.67-9.89 56.374-27.693 80.11-8.9 11.868-18.791 21.758-29.67 31.649-26.704 24.725-56.374 43.516-90.99 58.351-31.648 13.847-65.274 23.737-99.89 29.67-33.626 5.935-68.242 7.913-101.868 5.935-8.902 0-16.814-.99-25.715-.99-.989-.988-.989-.988-1.978-.988z" style="fill:#000;fill-opacity:1;fill-rule:nonzero;stroke:none;"/>
</svg>
