<svg xmlns="http://www.w3.org/2000/svg" width="1000" height="1000">
  <path d="M233.778 461.529c-36.933-2.052-71.814-2.052-105.669-2.052 11.285-31.803 29.752-84.125 54.373-135.42 3.078-11.285 3.078-11.285 20.519-11.285h63.606c34.881 0 33.855-11.285 48.218-40.01 20.518-50.27 41.036-96.436 63.606-152.861 7.182-15.39 8.208-16.415 28.726-16.415h90.28c29.751-1.026 61.555-1.026 91.306-1.026 11.285 0 12.31 1.026 19.492 16.415 9.233 24.621 22.57 51.295 35.907 75.917l35.907 77.97c18.466 36.932 25.648 40.01 54.373 40.01h65.659c7.18 0 10.259 0 12.31 7.181 21.545 42.062 38.985 85.15 57.451 131.317h-117.98l9.234 13.336c10.259 15.39 35.907 91.306 46.166 116.954 10.259 19.492 21.544 17.44 40.01 17.44h71.814c12.311 0 18.467 1.027 19.492 3.078 4.104 12.311 15.39 41.037 29.752 68.736 8.207 23.596 17.44 47.192 26.673 65.659H885.231c10.26 29.751 23.596 59.502 35.907 90.28 9.233 22.57 19.492 47.192 29.751 70.788H763.148c-26.674 0-24.622-1.026-31.803-23.596-18.467-52.322-32.83-89.255-58.477-137.472H303.54c-4.104 23.596-47.192 121.057-66.684 161.068H57.32c3.078-11.285 7.182-21.545 11.285-32.83 15.39-37.958 27.7-74.891 46.166-128.238H5c14.363-32.83 28.725-66.685 37.959-92.332l11.285-28.726c5.13-14.363 7.181-16.414 33.855-16.414 35.907 0 55.399 1.026 66.684 1.026 17.44 1.025 27.7 2.051 34.88-12.311 7.182-18.467 10.26-32.83 18.467-54.374 8.208-20.518 17.44-44.114 25.648-71.813zm137.472 130.29h245.193l-49.244-119.005c-23.596-55.4-45.14-114.902-73.866-180.56C444.09 408.18 408.183 498.46 371.25 591.818z" style="fill:#000;fill-opacity:1;fill-rule:nonzero;stroke:none;"/>
</svg>
