<svg xmlns="http://www.w3.org/2000/svg" width="1000" height="1000">
  <path d="M342.51 739.566c40.258 59.872 105.292 64.001 153.808 52.646 52.646-17.548 98.066-70.194 98.066-122.84 5.162-103.227 0-203.358 0-305.553 0-41.29 15.484-76.388 52.646-98.065 5.161-4.13 5.161-8.259 9.29-8.259-42.323-48.516-99.098-65.033-155.873-48.516-56.775 21.677-97.033 74.323-97.033 131.098 0 96.001-4.13 190.97 0 282.843 0 50.581-8.258 90.84-60.904 116.646zM16.312 558.92c32 92.904 139.357 147.615 236.39 123.872 85.679-25.806 154.84-119.743 134.195-197.163-40.258 27.87-81.549 37.161-121.808 3.096-28.903-18.58-37.161-60.904-28.903-88.775 16.516-52.646 55.742-68.13 106.324-68.13-33.033-21.678-65.033-17.549-99.098 0-52.646 27.871-68.13 68.13-64.001 124.905-4.13-28.904-13.42-56.775-4.13-81.55 4.13-23.742 20.646-48.516 33.033-73.29-37.161 5.16-74.323 24.774-93.936 57.806-17.549 33.033-23.743 68.13-37.162 93.937-11.355-40.259 8.258-86.71 37.162-135.228C24.57 359.69-16.721 466.014 16.312 558.92zm593.556-76.388c-10.322 87.743 61.937 182.712 151.744 200.26 106.324 18.581 203.358-42.323 228.132-143.485 23.742-103.228-37.162-196.132-98.066-216.777 44.388 85.678 33.033 94.969 33.033 131.098-28.903-98.066-73.291-146.583-134.195-151.744 48.517 77.42 52.646 115.615 23.742 158.97 8.258-56.775-9.29-101.163-48.517-124.905-32-21.678-74.323-25.807-101.162-4.129 48.516 4.13 83.614 19.613 97.033 65.033 12.387 30.968 4.13 69.162-27.871 91.872-42.323 34.065-81.55 24.775-123.873-6.193z" style="fill:#000;fill-opacity:1;fill-rule:nonzero;stroke:none;"/>
</svg>
