<svg xmlns="http://www.w3.org/2000/svg" viewBox="0 0 1000 1000"><path d="M5 500.496c0-90 22.747-173.077 67.253-250.22 44.506-74.177 103.846-133.517 178.023-178.023C327.419 27.747 410.496 5 500.496 5c89.011 0 172.089 22.747 249.232 67.253 74.176 44.506 133.517 103.846 178.022 178.023 44.506 77.143 67.253 160.22 67.253 249.231 0 90-22.747 173.078-67.253 250.22-44.505 74.177-103.846 133.518-178.022 178.023-77.143 44.506-160.22 67.253-249.232 67.253-90 0-173.077-22.747-250.22-67.253-74.177-44.505-133.517-103.846-178.023-178.022C27.747 672.585 5 589.508 5 500.496zm116.704-109.78c0 26.703 25.714 45.494 49.45 45.494h107.803c-15.824 87.033-22.747 101.869-39.56 180-5.935 26.704-13.847 51.43 15.824 61.32 33.626 8.9 64.286-2.967 77.143-43.517 8.9-40.55 20.769-83.077 30.66-122.638 2.966-15.824 9.89-34.615 15.823-47.472 14.836-23.737 33.627-39.561 61.32-36.594 24.725 0 36.593 17.802 36.593 36.594 0 7.912-22.747 94.945-34.616 142.418-1.978 12.857-7.912 24.725-4.945 40.55 0 14.834 11.868 30.659 27.693 33.626 31.648 5.934 58.352-6.923 67.253-40.55 15.824-58.352 31.648-113.736 46.483-172.088 10.88-29.67 31.649-45.495 71.21-40.55 27.692 3.956 37.582 26.703 27.692 61.319-14.835 46.484-30.66 92.967-39.56 142.418-3.957 30.66 11.867 49.45 42.527 49.45 72.198 3.957 160.22 0 169.121 0 25.715-2.966 40.55-27.692 40.55-55.384-1.978-24.725-24.726-43.517-52.418-43.517h-86.044c0-6.923 18.791-75.165 21.758-86.044 8.901-25.714 14.835-53.407 11.868-80.11-4.945-24.725-14.835-47.473-36.593-62.308-24.726-18.791-56.374-21.758-83.077-18.791-36.594 5.934-67.253 25.714-92.968 49.45l-2.967 2.968c-19.78-33.627-43.516-52.418-81.099-52.418-36.594-2.967-67.253 9.89-89.011 36.593-4.945-14.835-16.814-30.66-36.594-33.626H165.22c-27.692 0-43.516 28.681-43.516 53.407z"/></svg>