<svg xmlns="http://www.w3.org/2000/svg" width="1000" height="1000">
  <path d="M5 500.496c0 271.98 220.55 494.507 495.496 494.507 271.98 0 494.507-220.55 494.507-495.496C995.003 227.528 773.464 5 500.496 5 226.54 5 5 225.55 5 500.496zm113.737 170.11c-2.967-34.615 10.879-64.285 36.593-86.044 1.978-1.978 1.978-2.967 1.978-3.956-7.912-31.648-10.879-64.286-9.89-97.912 1.978-42.528 10.88-85.055 26.703-123.627 21.759-52.418 54.396-98.901 96.924-135.495 45.495-39.56 97.912-67.253 158.242-82.088 22.747-3.956 44.506-7.912 68.242-8.901h26.704c14.835.989 27.692 1.978 40.55 4.945 30.659 2.967 61.318 11.868 89.01 24.725 38.572 14.835 71.21 36.594 101.869 64.286 2.967.99 3.956.99 5.934.99 17.802-5.935 36.593-6.924 54.396-3.957 41.538 9.89 70.22 42.528 78.132 84.066 1.978 3.956 1.978 7.912 2.967 11.869v9.89c-.99 4.945-.99 7.912-2.967 11.868-3.956 20.77-12.857 40.55-28.682 55.385-2.967.989-2.967 2.967-.989 4.945 7.913 34.615 12.858 69.23 11.869 104.835-2.967 67.253-19.78 129.561-56.374 184.946-45.495 70.22-106.814 119.67-181.979 148.352-27.692 9.89-56.374 16.813-85.055 18.791-27.692 3.956-55.385 3.956-83.077 0-71.21-7.912-135.495-33.626-189.891-81.099-7.912-3.956-13.846-10.879-19.78-15.824-2.967-1.978-2.967-2.967-5.934-1.978-39.561 14.835-83.078 2.967-110.77-28.682-13.846-17.802-23.736-36.593-24.725-60.33zm18.79 18.792c12.858 41.538 57.364 68.242 99.891 58.352 7.912-.99 15.825-4.945 22.748-7.912 8.9 7.912 16.813 15.824 24.725 23.736 30.66 25.714 63.297 45.495 99.89 59.34 32.638 11.869 65.275 20.77 99.89 22.748 30.66.99 61.32 0 90.99-5.934 50.44-9.89 96.924-29.67 137.473-60.33 59.341-41.538 100.88-96.923 124.616-165.165 16.813-46.484 22.747-92.968 19.78-142.418-2.967-23.737-6.923-48.462-13.846-71.21-.989-3.955-.989-5.933 1.978-6.922 30.66-22.748 42.528-63.297 28.682-97.913-16.814-50.44-73.187-72.198-121.65-48.462-.988.99-1.977.99-3.955 0-5.934-6.923-11.868-11.868-19.78-18.79-32.638-27.693-70.22-47.473-111.76-60.33-41.538-13.847-85.054-18.792-128.571-17.803-20.77 2.967-40.55 5.934-61.319 10.88-37.582 8.9-75.165 24.725-107.802 47.472-48.462 31.648-87.034 73.187-114.726 124.616-31.649 57.363-45.495 121.648-41.539 185.934 1.978 23.737 5.934 46.484 10.88 67.253 0 2.967 0 3.956-1.979 4.945-32.637 21.759-46.483 61.32-34.615 97.913zm24.726-25.715c0-31.648 26.704-58.351 58.352-58.351 31.649 0 56.374 24.725 56.374 58.351 1.978 31.649-24.725 56.374-56.374 56.374-31.648 0-58.352-24.725-58.352-56.374zm46.484-86.044c-31.649-117.692 8.901-270.99 147.363-350.11 129.56-74.177 281.87-40.55 367.913 44.505-2.967 3.956-6.923 9.89-8.9 13.846-23.737 49.45 3.955 108.792 57.362 121.649 10.88 3.956 21.758 3.956 33.627 1.978 1.978-.99 3.956 0 4.945 2.967 7.912 32.637 11.868 67.253 10.879 101.868-2.967 53.407-18.791 102.858-47.473 149.341-25.714 40.55-59.34 75.166-100.88 99.89-34.615 22.748-74.175 37.583-115.714 42.529-20.77 3.956-42.528 4.945-64.286 3.956-55.385-2.967-107.802-20.77-155.275-51.43-17.802-10.878-33.627-23.735-47.473-38.57-1.978-.99-1.978-.99-2.967-1.979 22.747-30.66 26.703-64.286 6.923-97.912-18.791-33.627-49.45-46.484-86.044-42.528zm160.22-63.297c3.956 40.55 24.726 75.165 60.33 98.902.99.989.99 2.967.99 3.956v59.34h36.593c1.978 0 2.967 0 2.967-3.955v-39.56c22.747 6.922 46.483 6.922 70.22.988v42.528h35.604c2.967 0 2.967 0 2.967-3.956v-51.43s0-2.966.99-2.966c6.922-3.956 13.846-8.901 19.78-12.857v23.736h51.428V376.869h-51.428v11.869c-5.934-4.946-10.88-7.913-16.814-11.869-2.967-.989-3.956-2.967-3.956-5.934V326.43c0-.99 0-2.967-1.978-2.967h-33.626c-2.967 0-2.967 0-2.967 2.967v32.637c-11.868-1.978-23.737-3.956-35.605-1.978-11.868 0-22.747.99-34.615 3.956v-37.582h-39.56v52.417c0 1.978 0 2.967-.99 4.945-46.484 32.638-66.264 76.155-60.33 133.517zm53.407-17.802c-.989-47.473 37.583-89.011 87.033-89.011 50.44-.99 91.979 39.56 91.979 88.022 0 47.473-37.583 90-88.023 90.99-52.417 0-91.978-41.54-90.989-90zm314.507-173.077c0-31.649 24.725-56.374 55.384-56.374 32.638 0 58.352 24.725 58.352 56.374 0 31.648-25.714 58.351-58.352 58.351-30.659 0-55.384-26.703-55.384-58.351z" style="fill:#000;fill-opacity:1;fill-rule:nonzero;stroke:none;"/>
</svg>
