<svg id="Layer_1" data-name="Layer 1" xmlns="http://www.w3.org/2000/svg" viewBox="0 0 944.64 999.07"><circle cx="474.98" cy="499.06" r="227.26"/><path d="M165.93,256.8c-116.26,0-134.47-22.52-137.72-39.89-3.43-18.33,6.6-48,132.78-94.06C245.6,92,360.05,62.29,483.27,39.23S723.94,2.49,814,.67C948.25-2,968.36,22,971.79,40.36s-6.6,48-132.78,94.06C754.4,165.28,640,195,516.73,218S276.06,254.78,186,256.59Q175.51,256.82,165.93,256.8ZM833.83,27.11c-6.84,0-14.07.08-21.76.25-88.31,2-203.34,15.51-323.9,38.06S255.47,117,172.42,147c-114.84,41.59-118,64.76-118,65s11.44,20.64,133.54,17.89c88.3-2,203.33-15.51,323.9-38.06s232.7-51.55,315.75-81.63c114-41.29,118-64.42,118-65C945.39,44.79,934.75,27.11,833.83,27.11Z" transform="translate(-27.68 -0.47)"/><path d="M165.92,999.53C49.67,999.54,31.46,977,28.21,959.64c-3.43-18.33,6.6-48,132.78-94.06C245.6,834.71,360.05,805,483.27,782S723.94,745.22,814,743.4c134.3-2.7,154.37,21.36,157.8,39.69h0c3.43,18.33-6.6,48-132.78,94.06C754.4,908,640,937.71,516.73,960.76S276.06,997.51,186,999.33Q175.51,999.54,165.92,999.53ZM833.83,769.84c-6.84,0-14.07.08-21.76.25-88.3,2-203.33,15.51-323.9,38.06s-232.7,51.55-315.75,81.62c-114.84,41.59-118,64.76-118,65s11.43,20.61,133.53,17.89c88.31-2,203.34-15.51,323.91-38.07S744.52,883,827.57,853c114-41.29,118-64.43,118-65C945.39,787.53,934.78,769.84,833.83,769.84Z" transform="translate(-27.68 -0.47)"/></svg>