<?xml version="1.0" encoding="utf-8"?>
<!-- Generator: Adobe Illustrator 26.0.1, SVG Export Plug-In . SVG Version: 6.00 Build 0)  -->
<svg version="1.1" xmlns="http://www.w3.org/2000/svg" xmlns:xlink="http://www.w3.org/1999/xlink" x="0px" y="0px"
	 viewBox="0 0 1000 1000" style="enable-background:new 0 0 1000 1000;" xml:space="preserve">
<g id="Layer_1">
</g>
<g id="Layer_3">
</g>
<g id="Layer_2">
	<g>
		<path d="M500,0C223.9,0,0,223.9,0,500s223.9,500,500,500s500-223.9,500-500S776.1,0,500,0z M750,593.8h-41.4l16.7,48.4l16.7,48.2
			l6.3,18.2l0,0c5.6,16.3-3,34.1-19.3,39.7c-16.3,5.6-34.1-3-39.7-19.3l-6.3-18.2l-16.7-48.2c-6.9-20-15-43.5-23.8-68.8h-285
			c-8.7,25.3-16.8,48.8-23.8,68.8l-16.7,48.2l-6.3,18.2c-5.6,16.3-23.4,25-39.7,19.3c-16.3-5.6-25-23.4-19.3-39.7l6.3-18.2
			l16.7-48.2l16.7-48.4H250c-17.3,0-31.2-14-31.2-31.2s14-31.2,31.2-31.2h63h66.1h241.8H687h63c17.3,0,31.2,14,31.2,31.2
			S767.3,593.8,750,593.8z M750,468.8h-84.5h-66.1H400.7h-66.1H250c-17.3,0-31.2-14-31.2-31.2s14-31.2,31.2-31.2h106.1
			c26.2-76,48-139.3,51.7-150.5c6.7-20.1,17.6-37.7,34.3-50.3c16.8-12.6,36.8-18,57.8-18c21,0,41,5.3,57.8,18
			c16.7,12.5,27.6,30.2,34.3,50.3c3.8,11.3,25.5,74.5,51.7,150.5H750c17.3,0,31.2,14,31.2,31.2S767.3,468.8,750,468.8z"/>
		<path d="M520.3,255.5c-4-3-10.1-5.5-20.3-5.5c-10.3,0-16.3,2.5-20.3,5.5c-4.1,3.1-8.8,8.8-12.5,20c-3.5,10.5-21.9,64-44.9,130.7
			h155.6c-23-66.7-41.4-120.2-44.9-130.7C529.1,264.3,524.5,258.6,520.3,255.5z"/>
		<path d="M251.7,708.5"/>
	</g>
</g>
</svg>
