<svg width="33" height="32" viewBox="0 0 33 32" fill="none" xmlns="http://www.w3.org/2000/svg">
<g clip-path="url(#clip0_3393:12178)">
<path fill-rule="evenodd" clip-rule="evenodd" d="M16.4338 31.84C25.1819 31.84 32.2738 24.7482 32.2738 16C32.2738 7.25178 25.1819 0.159973 16.4338 0.159973C7.68556 0.159973 0.59375 7.25178 0.59375 16C0.59375 24.7482 7.68556 31.84 16.4338 31.84ZM6.86471 9.14333L11.5281 4.47992H13.7444C13.1441 4.82622 11.1587 7.29644 10.6508 9.14333H6.86471ZM16.0068 4.47992V9.14333H11.5281C11.8436 8.18141 12.9687 5.90203 14.9449 4.47992H16.0068ZM16.9072 9.14333H21.4321C20.3794 6.63155 18.6694 4.98782 17.9461 4.47992H16.9072V9.14333ZM25.9801 9.14333H22.3094C21.7322 7.75816 20.6887 5.84662 19.1927 4.47992H21.2705L25.9801 9.14333ZM10.5355 22.8565H6.8648L11.5744 27.5199H13.6521C12.1561 26.1532 11.1127 24.2417 10.5355 22.8565ZM11.4128 22.8565H15.9377L15.9377 27.5199L14.8988 27.5199C14.1754 27.012 12.4655 25.3683 11.4128 22.8565ZM16.838 22.8565V27.5199H17.9C19.8762 26.0978 21.0012 23.8184 21.3167 22.8565L16.838 22.8565ZM21.3167 27.5199L25.9801 22.8565H22.194C21.6861 24.7034 19.7007 27.1736 19.1005 27.5199H21.3167ZM6.60938 20H8.09737V18.236C8.09737 17.78 8.08537 17.328 8.06138 16.88C8.04537 16.424 8.00537 15.972 7.94137 15.524C7.87738 15.076 7.80937 14.632 7.73738 14.192C7.67338 13.744 7.62537 13.292 7.59338 12.836L9.11738 17.348H10.0534L11.5774 12.836C11.5454 13.292 11.4934 13.744 11.4214 14.192C11.3574 14.632 11.2934 15.076 11.2294 15.524C11.1734 15.972 11.1334 16.424 11.1094 16.88C11.0854 17.328 11.0734 17.78 11.0734 18.236V20H12.5614V11.18H11.2054L9.58537 15.98L7.96537 11.18H6.60938V20ZM16.1634 18.764C15.9874 18.764 15.8114 18.732 15.6354 18.668C15.4674 18.596 15.3354 18.484 15.2394 18.332C15.1514 18.172 15.1074 18 15.1074 17.816H13.6194C13.6194 18.112 13.6714 18.404 13.7754 18.692C13.8874 18.972 14.0474 19.22 14.2554 19.436C14.4714 19.644 14.7194 19.8 14.9994 19.904C15.2794 20.008 15.5674 20.068 15.8634 20.084C16.1594 20.108 16.4514 20.096 16.7394 20.048C17.0354 20.008 17.3154 19.916 17.5794 19.772C17.8434 19.628 18.0634 19.436 18.2394 19.196C18.4234 18.956 18.5474 18.692 18.6114 18.404C18.6834 18.116 18.7194 17.824 18.7194 17.528V11.18H15.5634V12.512H17.2434V17.528C17.2434 17.68 17.2234 17.832 17.1834 17.984C17.1514 18.136 17.0834 18.276 16.9794 18.404C16.8834 18.532 16.7594 18.624 16.6074 18.68C16.4634 18.736 16.3154 18.764 16.1634 18.764ZM22.4415 20H20.9535V11.18H23.5935C23.8575 11.18 24.1175 11.204 24.3735 11.252C24.6375 11.292 24.8895 11.372 25.1295 11.492C25.3695 11.604 25.5775 11.76 25.7535 11.96C25.9375 12.152 26.0655 12.376 26.1375 12.632C26.2175 12.888 26.2575 13.144 26.2575 13.4V14.456C26.2575 14.712 26.2175 14.968 26.1375 15.224C26.0655 15.48 25.9375 15.708 25.7535 15.908C25.5775 16.1 25.3695 16.256 25.1295 16.376C24.8895 16.488 24.6375 16.568 24.3735 16.616C24.1175 16.656 23.8575 16.676 23.5935 16.676H22.4415V20ZM22.4415 12.512V15.344H23.5935C23.7375 15.344 23.8775 15.332 24.0135 15.308C24.1495 15.276 24.2775 15.224 24.3975 15.152C24.5255 15.08 24.6215 14.98 24.6855 14.852C24.7495 14.724 24.7815 14.592 24.7815 14.456V13.4C24.7815 13.264 24.7495 13.132 24.6855 13.004C24.6215 12.876 24.5255 12.776 24.3975 12.704C24.2775 12.632 24.1495 12.584 24.0135 12.56C23.8775 12.528 23.7375 12.512 23.5935 12.512H22.4415Z" fill="black"/>
</g>
<defs>
<clipPath id="clip0_3393:12178">
<rect width="32" height="32" fill="white" transform="translate(0.441406)"/>
</clipPath>
</defs>
</svg>
