<svg xmlns="http://www.w3.org/2000/svg" width="1000" height="1000">
  <path d="M239.304 496.21c-42.484 0-86.255-10.3-122.302-37.335-37.334-28.323-64.37-59.22-83.68-99.129-2.575-12.874-3.862-24.46-9.012-38.622C3.712 264.48 6.287 205.26 5 144.752c0-1.287 1.287-5.15 1.287-6.437 0-2.574 2.575-3.862 9.012-5.15C96.404 116.43 165.923 62.36 248.316 41.762c84.967-20.598 166.073-32.184 251.04-32.184 36.047 0 73.381 2.574 110.716 7.724-46.346 25.748-82.393 63.082-108.14 108.14-25.749 46.346-39.91 96.555-39.91 148.05v1.287c0 38.622-10.299 74.669-28.322 109.428-18.024 34.76-46.346 60.508-79.818 81.106-2.575 1.287-5.15 2.575-5.15 3.862-34.76 18.023-70.806 27.035-109.428 27.035zM93.83 533.542c45.059 24.46 93.98 37.334 145.475 37.334 52.783 0 99.129-14.16 145.475-37.334l7.724-3.862c33.472-16.736 66.944-28.322 106.853-28.322 39.91 0 73.381 10.299 108.14 28.322l2.576 1.287s0 1.288 3.862 2.575c34.76 19.311 59.22 47.634 79.818 81.106 20.598 33.472 29.61 70.806 29.61 109.428 0 24.46-3.862 48.92-11.587 72.093-7.724 23.173-20.598 42.484-36.047 63.082-9.011 10.3-18.023 18.024-28.322 28.323-41.197 36.047-86.255 66.944-131.314 99.129-2.574 0-6.437 1.287-6.437 2.574 0 2.575-3.862 0-10.299 0-6.437 0-11.586 0-15.448-2.574-86.255-56.645-160.924-121.015-226.58-198.258-66.945-78.53-123.59-162.21-163.499-254.903zM537.979 273.49v-2.575c0-38.621 9.012-74.668 30.897-110.715 19.311-32.185 46.346-59.22 79.818-78.53 34.76-20.599 72.094-30.898 112.003-30.898 10.299 0 23.173 2.575 33.472 3.862 12.874 2.575 24.46 6.437 37.334 10.3 54.07 16.735 108.14 37.334 154.487 68.23 3.862 2.576 6.437 2.576 6.437 2.576 0 1.287 1.287 1.287 1.287 1.287 0 2.575 1.287 6.437 1.287 7.724 0 102.991-20.598 203.408-56.645 303.824-34.76 97.841-79.818 187.958-140.325 272.926-1.287-51.496-14.161-100.416-39.909-145.475-25.748-43.771-60.507-81.105-105.566-106.853l-7.724-3.862c-34.76-20.598-59.22-47.634-79.818-81.106-20.598-33.472-27.035-70.806-27.035-110.715z" style="fill:#000;fill-opacity:1;fill-rule:nonzero;stroke:none;"/>
</svg>
