<svg xmlns="http://www.w3.org/2000/svg" width="1000" height="1000">
  <path d="M500.496 995.003c275.935 0 494.507-224.506 494.507-495.496C995.003 226.54 773.464 5 500.496 5 223.572 5 5 229.506 5 499.507c0 276.924 224.506 495.496 495.496 495.496zM276.98 759.618c-1.978-51.429-2.967-104.836 1.978-157.253 11.868-129.561 120.66-223.518 252.199-219.562 28.681 0 57.362 7.913 85.055 18.792 6.923 2.967 7.912 6.923 6.923 12.857-9.89 35.604-30.66 61.319-64.286 75.165-3.956.989-7.912.989-10.88 0-87.032-16.813-166.154 47.473-166.154 136.484v127.583c30.66 0 60.33 0 89.012-.99 20.769 0 42.527 1.979 63.297-.988 66.264-7.912 113.736-60.33 114.725-126.594 0-5.934 2.967-10.88 8.901-13.846 29.67-18.792 55.385-42.528 76.155-72.198 0-.99 1.978-3.956 3.956-4.945 0-.99.989-.99.989-.99 7.912 18.792 12.857 38.572 13.846 58.352 5.934 74.177-11.868 138.462-63.297 191.87-45.495 48.46-101.869 73.186-169.122 74.175H381.814c-56.373 0-102.857-40.55-104.835-97.912zm0-444.068v-60.33c0-59.34 45.495-105.824 103.846-105.824 51.43 0 102.858-1.978 155.276 1.978 128.572 7.912 220.55 117.693 217.583 236.375-.99 93.956-41.539 165.165-123.627 210.66-70.22 37.582-143.407 34.615-216.594 1.978-.99-.99-1.978-.99-4.945-1.978 11.868-39.561 36.593-66.264 75.165-80.11 1.978-1.979 5.934-.99 9.89 0 72.198 13.846 140.44-29.671 153.297-100.88 18.792-99.89-56.374-166.154-132.528-163.187-39.56 1.978-81.099 0-120.66 0h-11.868v134.506c0 3.956-.989 7.912-3.956 8.9-31.648 20.77-58.351 46.484-79.12 77.144-.99.989-1.979.989-2.968 1.978-9.89-22.748-15.824-46.484-17.802-70.22-.99-29.67-.99-60.33-.99-90.99z" style="fill:#000;fill-opacity:1;fill-rule:nonzero;stroke:none;"/>
</svg>
