<svg xmlns="http://www.w3.org/2000/svg" width="1000" height="1000">
  <path d="M500.496 5C223.572 5 5 229.506 5 500.002c0 276.43 224.506 495.001 495.002 495.001 276.43 0 495.001-224.506 495.001-495.001C995.003 226.539 773.464 5 500.496 5zM148.407 720.057V455.99c0-7.912.99-15.824 5.934-23.736 2.967-6.923 9.89-8.901 14.835-11.868 5.934-2.967 10.88-3.956 15.825-3.956h155.275v52.418H202.803v233.407H486.65v52.418H187.968c-15.825 0-26.704-5.934-34.616-17.802-3.956-4.946-3.956-11.869-4.945-16.814zM413.463 567.75V307.64c0-6.924 2.967-15.825 5.934-21.759 5.934-7.912 12.857-13.846 23.736-13.846h23.737V416.43h105.824c11.868 0 22.748 3.956 31.649 10.88 6.923 6.922 6.923 16.812 7.912 25.713v261.1c0 7.912-.99 15.824-5.934 22.748-6.923 10.879-16.814 15.824-28.682 16.813-5.934.989-11.868 0-17.802 0V468.848H466.87v87.033h22.747v53.407c-10.88 0-19.78-.99-28.681 0-9.89 0-19.78 0-27.693-4.945-5.934-3.956-10.879-6.923-13.846-13.847-4.945-6.923-5.934-13.846-5.934-22.747zm124.616-244.286v-51.43H847.64c4.945 0 9.89 1.979 13.846 3.957 4.945 4.945 9.89 8.901 12.858 14.835 0 4.945 1.978 10.88 1.978 16.813v264.067c0 12.857-4.945 23.737-15.825 31.649-5.934 1.978-12.857 4.945-18.79 4.945-52.419.989-103.847.989-154.287.989-.99 0-2.967-.99-3.956-.99v-52.417h138.462V323.463z" style="fill:#000;fill-opacity:1;fill-rule:nonzero;stroke:none;"/>
</svg>
