<svg xmlns="http://www.w3.org/2000/svg" width="1000" height="1000">
  <path d="M53.79 367.079h162.347c8.05 0 16.1 9.392 18.784 13.417 55.01 89.894 112.704 183.814 167.714 273.709 4.025 5.367 8.05 9.392 9.392 16.1 6.708-6.708 8.05-10.733 8.05-13.417 115.387-197.231 232.116-395.805 344.82-591.695 17.443-30.86 38.91-55.01 76.478-59.035 34.884-5.367 64.402 8.05 85.87 37.568 21.467 29.518 25.492 61.719 8.05 95.262-25.493 46.96-52.327 96.603-81.845 143.563-12.075 21.467-28.176 44.276-40.251 68.427-5.367 9.392-9.392 21.467-9.392 29.518v594.378C807.832 995 807.832 995 782.34 995H628.043c-10.734 0-17.443-1.342-17.443-17.442V729.34c0-4.025 0-6.709-4.025-12.075-2.683 5.366-4.025 8.05-8.05 12.075-37.568 64.402-76.478 131.488-114.046 197.232-5.366 8.05-13.417 12.075-25.492 12.075H398.61c-13.417 4.025-21.468-4.025-29.518-14.759-34.884-61.719-72.452-120.754-110.02-181.131-1.342-1.342-6.709-8.05-10.734-17.442v252.242c0 17.442 0 17.442-21.467 17.442H53.79z" style="fill:#000;fill-opacity:1;fill-rule:nonzero;stroke:none;"/>
</svg>
