<svg xmlns="http://www.w3.org/2000/svg" viewBox="0 0 1000 1000"><path d="M515.489,10.32H800.864c7.819,0,9.122,2.606,11.728,5.213,29.971,29.971,61.245,58.638,88.61,89.912,2.606,1.3,5.212,5.213,5.212,7.819V298.3c0,5.212,0,5.212-9.121,5.212H618.432c-5.212,0-5.212,0-5.212-5.212v-86c0-5.212,0-5.212-6.515-5.212H425.576c-6.515,0-6.515,0-6.515,5.212V393.427c0,7.819,0,7.819,7.818,7.819H798.258c5.212,0,10.425,0,11.728,3.909,28.668,29.971,58.639,58.639,87.307,87.306,3.909,3.91,3.909,6.516,3.909,11.728V882.084c0,3.909,0,6.515-3.909,9.121-28.668,29.971-58.639,59.942-88.61,88.61-2.606,2.606-5.213,3.909-10.425,3.909H230.113q-5.863,0-7.818-3.909c-31.274-28.668-61.245-58.639-92.519-88.61-1.3-2.606-1.3-5.212-1.3-7.818V697.046c0-5.213,0-5.213,5.212-5.213h278.86c5.212,0,6.516,1.3,6.516,5.213v84.7c0,7.819,0,7.819,6.515,7.819H604.1c5.212,0,6.515-1.3,6.515-7.819V600.617c0-6.515,0-6.515-6.515-6.515-123.793,0-248.89,0-372.683,1.3-5.212,0-9.121-2.606-11.727-2.606a975.851,975.851,0,0,0-89.913-89.913c-1.3-3.909-1.3-6.515-1.3-10.425V117.173c0-3.909,0-6.515,1.3-7.818,31.274-31.274,61.245-61.245,89.913-88.61,2.606-3.909,2.606-6.516,5.212-7.819,0-2.606,1.3-2.606,3.909-2.606H515.489Z"/></svg>