<svg xmlns="http://www.w3.org/2000/svg" width="1000" height="1000">
  <path d="M856.103 994.997H230.287c-32.868 0-38.127-3.944-38.127-36.812v-227.45c0-30.239-6.574-40.757-32.868-40.757-65.737 0-57.849 6.574-57.849-60.478v-10.517c0-70.996-7.888-67.052 57.849-67.052 26.294 0 32.868-3.944 32.868-32.869V507.23c0-67.052 0-67.052-56.534-67.052-30.239 0-34.183-3.944-34.183-28.924v-92.032c1.315-21.035 46.016-17.091 70.996-17.091 19.721 0 19.721-14.462 19.721-27.61V41.813C192.16 16.833 197.419 5 230.287 5h132.789c32.868 0 35.498 5.259 36.813 36.813V274.52c0 23.666 9.203 27.61 34.183 27.61h161.713c32.868 0 39.442 10.518 39.442 43.386v65.737c0 24.98-6.574 28.924-32.869 28.924H434.072c-21.036 0-34.183 7.889-34.183 34.183 0 77.57 0 77.57 80.199 77.57h122.27c22.35 0 32.869 9.203 32.869 34.183v77.57c0 21.035-6.574 26.294-32.869 26.294H441.96c-28.924 0-42.071 6.574-42.071 40.757 0 92.032 0 92.032 90.716 92.032h365.498c32.868 0 46.015 2.63 42.071 32.868v102.55c3.944 32.868-13.147 36.813-42.071 36.813z" style="fill:#000;fill-opacity:1;fill-rule:nonzero;stroke:none;"/>
</svg>
