<svg xmlns="http://www.w3.org/2000/svg" viewBox="0 0 1000 1000"><path d="M342.9,498.4a36.324,36.324,0,0,1,19.2-5.2c15.1,0,26.3,6.2,33.8,18.7s11.3,28.4,11.3,47.8q0,30.45-12.2,49.7c-7.8,12.5-18.9,18.8-33.3,18.8s-25.6-6.1-33.8-18.3q-12.15-18.75-12.2-49.2A101.691,101.691,0,0,1,319,534a67.994,67.994,0,0,1,9.4-21.1A45.574,45.574,0,0,1,342.9,498.4ZM635.1,389.1h-1.9L597.1,553.7h73.2ZM995,500c0,273.4-221.6,495-495,495S5,773.4,5,500,226.6,5,500,5,995,226.6,995,500ZM201,285.7H319.3C335.2,228,397.2,150.8,416,140H346.7ZM347.7,462.6,415.2,336H353.8L288.1,464.5a287.285,287.285,0,0,0-19.2,46.4,174.821,174.821,0,0,0-7,50.6c0,17.5,2.3,33.3,7,47.4,5,14.1,11.9,25.9,20.6,35.6A90.55,90.55,0,0,0,320.9,667a110.951,110.951,0,0,0,80.2,0,89.636,89.636,0,0,0,31.4-22.5c8.8-9.9,15.6-21.9,20.6-36q7.5-21.6,7.5-48.3c0-18.4-2.3-34.4-7-47.8-4.4-13.4-10.5-24.4-18.3-32.8a66.2,66.2,0,0,0-26.7-19.2,77.254,77.254,0,0,0-31.4-6.6,61.693,61.693,0,0,0-15.9,2.3,33.49,33.49,0,0,0-13.1,7ZM413.1,860c-46.7-42.7-79.4-102.4-97.4-145.7H201L348.2,860Zm71.4-145.7H343.1C376,792.8,429.5,844.1,452,860h32.5ZM486.7,140H453.5c-61.8,44.4-96.9,115.6-106.8,145.7h140Zm28.1,145.7H656.2C623.3,207.2,569.9,155.8,547.3,140H514.8Zm84.7,50.4L517,668.1h56.3l16.9-70.3h87.1l16.4,70.3h58.6l-81.1-332Zm53.2,378.2h-140V860h33.2C607.7,815.6,642.8,744.3,652.7,714.3Zm145.6,0H680C664.2,772,602.1,849.2,583.4,860h69.2Zm.1-428.6L651.1,140H586.2c46.8,42.7,79.4,102.4,97.4,145.7Z"/></svg>