<svg xmlns="http://www.w3.org/2000/svg" width="1000" height="1000">
  <path d="M889.27 371.31v501.941H110.727V374.515c0-20.291 0-20.291-20.291-20.291H5c18.155-77.961 33.107-152.718 52.33-227.475h887.473c14.951 74.757 34.175 149.514 50.194 227.475H904.22c-13.884-2.136-19.224 4.271-14.952 17.087zM42.378 323.254h83.3c18.156 0 19.223 3.204 19.223 18.155-1.067 46.99 0 90.777 0 138.835 0 8.543 3.204 16.019 16.02 16.019h90.776c12.816 0 16.02-4.272 16.02-16.02V169.468c0-10.68-3.204-14.951-16.02-14.951-53.398 0-106.796 4.271-159.125 0-17.088 0-21.36 6.407-21.36 20.29-8.543 32.04-13.883 67.282-20.29 98.253-3.205 16.02-6.409 32.039-8.544 50.194zm102.523 499.804c0 9.612 6.408 12.816 16.02 12.816h90.776c12.816 0 16.02-6.408 16.02-16.02-3.204-46.99 0-89.708 0-138.834V546.456c0-10.68-3.204-18.155-16.02-18.155-30.97 5.34-58.737 0-90.776 0-9.612 0-16.02 5.34-16.02 18.155zm165.534-444.27c0 7.475 3.204 16.019 9.612 22.427 21.359 27.767 43.786 53.398 63.01 82.233 5.339 8.543 12.815 12.815 25.63 12.815H564.61c2.136 0 9.612 0 19.223-4.272-48.058-55.534-91.844-108.932-135.63-168.737h126.019c11.747 0 18.155-2.136 18.155-14.952-4.272-43.786-4.272-89.708 0-138.834 0-8.544-6.408-14.951-17.088-14.951H325.387c-11.747 0-14.951 4.271-14.951 14.95zm3.204 453.882h342.814V628.69c4.272-33.107-4.272-61.942-29.903-87.573-5.34-5.34-13.883-12.815-24.563-12.815H422.572c41.65 55.534 75.825 100.388 116.407 151.65h-22.427c-50.194 0-103.592 0-152.718-4.272-14.952 0-22.427 5.34-24.563 23.495-3.204 27.767-8.544 58.738-16.02 89.708-3.203 14.952-5.34 27.767-9.611 43.787zm317.183-522.232c0 10.68 7.476 12.816 16.02 12.816h60.873c11.748 0 16.02 3.204 16.02 16.02V475.97c0 16.02 3.203 20.291 16.019 20.291h102.524c11.747 0 13.883-4.272 13.883-16.02V345.68c0-22.427 0-22.427 20.292-22.427h81.164c-10.68-55.534-18.155-104.66-32.038-160.194 0-2.136-5.34-8.543-11.748-8.543h-266.99c-8.543 0-16.019 4.271-16.019 14.95 5.34 49.127 5.34 95.05 0 140.971zm92.913 509.416c0 12.816 5.34 16.02 16.019 16.02 33.107-3.204 67.281-3.204 102.524 0 9.612 0 13.883-3.204 13.883-16.02V546.456c0-12.815-2.136-18.155-13.883-18.155-35.243 0-66.213 5.34-100.388 0-12.816 0-18.155 7.475-18.155 23.495z" style="fill:#000;fill-opacity:1;fill-rule:nonzero;stroke:none;"/>
</svg>
