<svg xmlns="http://www.w3.org/2000/svg" width="1000" height="1000">
  <path d="M502.752 995.002c268.4-1.1 489.499-227.7 488.399-496.099-4.4-272.8-216.7-494.999-495-493.899-272.799 3.3-488.398 218.9-487.298 496.099 1.1 281.6 223.3 493.899 493.899 493.899zm-449.9-494.999c-1.1-249.7 198-450.999 445.5-450.999 250.8 0 447.699 200.2 447.699 450.999 1.1 251.9-195.8 449.899-446.6 450.999-248.599 0-446.598-199.1-446.598-450.999zm74.8-160.6c9.9 5.5 20.9 8.8 33 14.3 6.6-7.7 8.8-13.2 12.1-17.6 63.8-124.3 163.9-196.9 304.7-206.8 29.7-3.3 31.9-9.9 18.7-44-159.5 1.1-309.1 102.3-368.5 254.1zm63.8 61.6c-42.9 136.4 16.5 295.9 134.2 361.9 4.4-4.4 7.7-9.9 12.1-15.4 2.2-3.3 5.5-8.8 7.7-14.3-106.7-81.4-150.7-189.2-113.3-317.9 36.3-132 133.1-195.8 269.5-207.9 0-12.1 1.1-22 1.1-34.1-136.4-12.1-269.5 85.8-311.3 227.7zm73.7 27.5c-28.6 113.3 25.3 231 133.1 281.6 104.5 49.5 232.1 16.5 300.3-79.2 27.5-39.6 47.3-82.5 40.7-137.5-14.3 1.1-25.3 1.1-37.4 3.3-1.1 9.9-1.1 19.8-2.2 26.4-20.9 114.4-133.1 189.2-243.1 161.7-99-23.1-157.3-102.3-155.1-204.6 4.4-94.6 72.6-171.6 170.5-185.9 25.3-4.4 37.4-11 29.7-40.7-104.5-8.8-207.9 68.2-236.5 174.9zm155.1 68.2c2.2 28.6 2.2 62.7 6.6 95.7 2.2 27.5 15.4 38.5 39.6 24.2 51.7-30.8 102.3-64.9 151.8-97.9 19.8-14.3 18.7-33-1.1-46.2-49.5-31.9-99-64.9-149.6-95.7-26.4-15.4-38.5-5.5-41.8 26.4-3.3 29.7-3.3 58.3-5.5 93.5zm15.4 399.3c168.3 27.5 326.7-45.1 415.8-192.5 72.599-117.7 79.199-295.9 13.2-385-31.9 3.3-29.7 20.9-19.8 45.1 51.699 152.9 20.9 288.2-94.6 400.4-75.9 72.6-170.5 103.4-277.2 95.7-26.4-2.2-44 2.2-37.4 36.3zm116.6-119.9c2.2 13.2 4.4 24.2 6.6 35.2 123.2-9.9 244.2-130.9 262.9-262.9 23.1-152.9-57.2-299.2-192.5-353.1-4.4 12.1-9.9 23.1-14.3 36.3 122.1 66 181.5 161.7 166.1 297-16.5 134.2-100.1 212.3-228.8 247.5z" style="fill:#000;fill-opacity:1;fill-rule:nonzero;stroke:n"/>
</svg>
