<svg xmlns="http://www.w3.org/2000/svg" viewBox="0 0 1000 1000"><path d="M5 500.496C5 225.55 226.54 5 500.496 5c272.968 0 494.507 222.528 494.507 494.507 0 274.946-222.528 495.496-494.507 495.496C225.55 995.003 5 772.475 5 500.496zm273.957 255.166c0 14.835 1.978 24.725 1.978 45.494 34.615-17.802 61.319-37.582 92.967-47.472 30.66-13.846 40.55-31.649 37.583-62.308V318.518c0-13.847 2.967-27.693 2.967-44.506 65.275 34.615 119.67 69.23 184.946 103.846-17.803 8.901-26.704 13.847-37.583 19.78-106.813 58.352-108.792 58.352-102.857 178.023 2.967 16.813 13.846 33.627 27.692 44.506 47.473 34.615 94.945 67.253 143.407 99.89 48.462 29.67 92.967 60.33 143.407 94.946 0-40.55 0-73.187 2.967-102.858 0-30.66-9.89-48.462-32.637-61.319-51.429-34.615-102.858-71.209-162.199-112.747 24.726-13.847 45.495-20.77 61.32-31.649 103.846-50.44 103.846-50.44 100.879-167.143 0-23.737-10.88-36.594-31.649-48.462-69.23-32.637-137.473-71.209-205.715-107.802-94.945-54.396-94.945-54.396-194.836-3.957-25.714 13.847-32.637 29.67-32.637 61.32 1.978 171.099 0 345.165 0 515.276z"/></svg>