<svg xmlns="http://www.w3.org/2000/svg" width="1000" height="1000">
  <path d="M749.115 72.944c76.353 42.706 134.588 104.824 177.294 177.294 45.294 77.647 68.588 160.47 68.588 252.352v491.764H500.645c-90.588 0-174.705-23.294-249.764-64.706-77.647-42.706-134.588-106.117-177.293-177.294C27 674.707 5 589.296 5 502.59c0-91.882 22-174.705 68.588-252.352 42.705-72.47 100.94-133.294 177.293-177.294C325.94 30.24 410.057 5.65 500.645 5.65c89.294 0 172.118 24.589 248.47 67.294zM130.53 498.708c0 66 16.823 129.411 51.764 186.352s75.059 99.647 130.706 132c58.235 33.647 119.058 49.176 186.352 49.176 54.353 0 106.118-10.353 155.294-33.647 46.588-22 88-54.352 121.647-94.47v130.706h90.588V546.59H547.234v90.588h190.234c-24.588 42.706-58.235 75.059-98.352 100.941-41.412 27.176-90.588 38.823-141.059 38.823-49.176 0-97.058-14.235-139.764-38.823s-73.765-58.235-99.647-99.647c-25.882-41.411-34.941-88-34.941-139.764 0-49.176 10.353-94.47 34.941-138.47 23.294-42.706 59.53-75.059 99.647-99.647 41.411-25.882 90.588-36.235 141.058-36.235 44 0 81.53 9.058 120.353 27.176 37.53 18.118 69.882 45.294 95.764 77.647 25.883 32.353 42.706 68.588 53.059 108.706h91.882c-9.059-55.647-31.059-108.706-63.411-155.294-32.353-46.588-78.941-81.53-130.706-110-51.765-28.47-107.411-40.117-166.94-40.117-67.295 0-128.118 16.823-186.353 50.47-55.647 32.353-98.353 76.353-130.706 130.706-34.94 58.235-51.764 119.058-51.764 185.058z" style="fill:#000;fill-opacity:1;fill-rule:nonzero;stroke:none;"/>
</svg>
