<svg xmlns="http://www.w3.org/2000/svg" width="1000" height="1000">
  <path d="M5 500.496c0 271.98 220.55 494.507 495.496 494.507 271.98 0 494.507-220.55 494.507-495.496C995.003 227.528 773.464 5 500.496 5 226.54 5 5 225.55 5 500.496zm179.012 236.375V621.156c0-10.88 3.956-20.77 10.879-27.693 98.901-131.538 201.759-261.1 303.627-392.638 3.956-3.956 3.956-7.912 10.88-14.835 19.78 23.736 36.593 46.483 49.45 66.264 86.044 109.78 172.089 222.528 258.133 331.32 7.912 9.89 13.846 23.736 13.846 37.582v108.791c-3.956 0-3.956 0-5.934 3.957-103.847-133.517-209.671-265.056-315.496-401.54C400.606 468.848 293.792 600.387 184.012 736.87zm239.341-166.155c0-43.516 35.605-79.121 79.121-79.121 43.517 0 76.154 35.605 76.154 79.121 0 43.517-36.593 80.11-80.11 76.154-39.56 0-75.165-32.637-75.165-76.154z" style="fill:#000;fill-opacity:1;fill-rule:nonzero;stroke:none;"/>
</svg>
