<svg xmlns="http://www.w3.org/2000/svg" viewBox="0 0 1000 1000"><path d="M500.496 5C223.572 5 5 229.506 5 500.002c0 276.43 224.506 495.001 495.002 495.001 276.43 0 495.001-224.506 495.001-495.001C995.003 226.539 773.464 5 500.496 5zM253.243 182.034h96.923c5.934 0 12.857 5.934 14.835 11.868 72.198 110.77 70.22 109.78 146.374 229.451 26.704-43.517 103.847-146.374 165.166-233.407 4.945-4.945 9.89-7.912 18.791-7.912h94.945C712.145 292.804 636.98 404.562 558.848 516.32h136.484v91.98H558.848v245.275h-96.923V608.3H326.43v-88.023h135.495c-69.231-115.714-138.462-227.473-208.682-338.242z"/></svg>