<?xml version="1.0" encoding="utf-8"?>
<!-- Generator: Adobe Illustrator 26.0.1, SVG Export Plug-In . SVG Version: 6.00 Build 0)  -->
<svg version="1.1" id="Layer_1" xmlns="http://www.w3.org/2000/svg" xmlns:xlink="http://www.w3.org/1999/xlink" x="0px" y="0px"
	 viewBox="0 0 1000 1000" style="enable-background:new 0 0 1000 1000;" xml:space="preserve">
<path d="M500.3,5C226.9,5,5.3,226.6,5.3,500s221.6,495,495,495s495-221.6,495-495S773.7,5,500.3,5z M348.4,142.6h68.8
	c-18.6,10.8-80.2,87.4-96,144.7H203.8L348.4,142.6z M369,569.4c1.3,4.5,3.6,8.6,6.8,12.3c3.3,3.6,7.2,6.2,11.7,7.7
	c4.6,1.5,9.2,2.3,13.8,2.3c4.7,0,9.3-0.8,13.8-2.3c4.6-1.5,8.5-4.1,11.7-7.7c3.3-3.6,5.5-7.7,6.8-12.3c1.3-4.6,1.9-9.2,1.9-13.8
	V370.4h43.1v185.2c0,8.2-0.9,16.3-2.8,24.3c-1.9,8.1-5.2,15.5-10,22.2c-4.8,6.8-10.7,12.4-17.7,16.8c-7,4.4-14.5,7.5-22.6,9.1
	c-8.1,1.6-16.2,2.5-24.3,2.5c-8.2,0-16.3-0.8-24.3-2.5c-8.1-1.6-15.6-4.7-22.6-9.1c-7-4.4-12.9-10-17.7-16.8
	c-4.8-6.8-8.1-14.2-10-22.2c-1.9-8.1-2.8-16.2-2.8-24.3V370.4h43.1v185.2C367.1,560.3,367.7,564.9,369,569.4z M349.9,857.4
	L203.8,712.7h113.9c17.9,43,50.3,102.3,96.7,144.7H349.9z M485.3,857.4h-32.2c-22.5-15.8-75.5-66.8-108.2-144.7h140.4V857.4z
	 M487.4,287.3H348.5c9.8-29.9,44.7-100.6,106-144.7h32.9V287.3z M650.7,142.6l146.1,144.7H682.9c-17.9-43-50.3-102.3-96.7-144.7
	H650.7z M689.1,627.7h-45.5L603,543.3l-40.3,84.4h-45.9l64.8-128.8l-64.8-128.5h45.9l40.3,84.4l40.6-84.4h45.5l-64.8,128.5
	L689.1,627.7z M515.4,142.6h32.2c22.4,15.8,75.5,66.8,108.2,144.7H515.4V142.6z M546.1,857.4h-32.9V712.7h138.9
	C642.3,742.6,607.4,813.3,546.1,857.4z M652.2,857.4h-68.8c18.6-10.8,80.2-87.4,96-144.7h117.5L652.2,857.4z"/>
</svg>
