<svg width="1000" height="1000" viewBox="0 0 1000 1000" fill="none" xmlns="http://www.w3.org/2000/svg">
<path fill-rule="evenodd" clip-rule="evenodd" d="M500 995C773.381 995 995 773.381 995 500C995 226.619 773.381 5 500 5C226.619 5 5 226.619 5 500C5 773.381 226.619 995 500 995ZM201 285.731L346.731 140H415.99C397.232 150.822 335.188 228.016 319.317 285.731H201ZM486.691 140V285.731H346.731C356.591 255.671 391.75 184.441 453.505 140H486.691ZM514.828 285.731H656.23C623.333 207.238 569.898 155.872 547.293 140H514.828V285.731ZM798.355 285.731H683.645C665.609 242.445 633 182.709 586.251 140H651.18L798.355 285.731ZM315.709 714.268H201L348.174 860H413.104C366.355 817.291 333.745 757.555 315.709 714.268ZM343.124 714.268H484.527V860H452.062C429.457 844.128 376.022 792.761 343.124 714.268ZM512.663 714.268L512.663 860H545.85C607.605 815.559 642.764 744.329 652.623 714.269L512.663 714.268ZM652.623 860L798.355 714.269H680.038C664.166 771.984 602.122 849.178 583.365 860H652.623ZM602.766 656.841C617.459 664.344 633.872 668.096 652.004 668.096H787.059V619.795L727.972 620.733V618.857C733.912 614.793 739.539 608.697 744.854 600.569C750.481 592.441 755.327 582.906 759.391 571.964C763.768 561.022 767.05 549.142 769.239 536.324C771.74 523.507 772.99 510.533 772.99 497.403C772.99 472.392 770.177 449.571 764.549 428.938C758.922 407.992 750.95 390.016 740.634 375.01C730.317 360.004 717.812 348.437 703.119 340.308C688.425 331.867 672.012 327.647 653.88 327.647C635.748 327.647 619.179 331.867 604.173 340.308C589.479 348.437 576.818 360.004 566.189 375.01C555.872 390.016 547.9 408.148 542.273 429.407C536.646 450.665 533.832 474.112 533.832 499.747C533.832 526.008 536.489 549.611 541.804 570.557C547.431 591.19 555.403 608.853 565.72 623.547C576.036 637.928 588.385 649.026 602.766 656.841ZM711.091 453.322C713.904 467.703 715.311 483.178 715.311 499.747C715.311 515.378 714.06 530.384 711.56 544.765C709.058 558.833 705.151 571.338 699.836 582.28C694.834 592.91 688.425 601.507 680.61 608.072C673.107 614.324 664.353 617.451 654.349 617.451C644.345 617.451 635.435 614.481 627.62 608.541C620.117 602.288 613.708 594.004 608.393 583.687C603.079 573.058 599.014 560.553 596.201 546.172C593.387 531.791 591.98 516.316 591.98 499.747C591.98 483.178 593.231 467.703 595.732 453.322C598.545 438.942 602.61 426.593 607.924 416.276C613.239 405.647 619.648 397.362 627.151 391.423C634.966 385.17 643.876 382.044 653.88 382.044C663.572 382.044 672.169 385.17 679.672 391.423C687.487 397.362 694.052 405.647 699.367 416.276C704.682 426.593 708.59 438.942 711.091 453.322ZM287.2 433.627L381.457 668.096H443.356V336.088H394.587L395.056 571.964H393.649L300.33 336.088H236.086V668.096H286.731L285.793 433.627H287.2Z" fill="black"/>
</svg>
