<svg xmlns="http://www.w3.org/2000/svg" viewBox="0 0 1000 1000"><path d="M5 500.496c0 89.011 22.747 172.089 67.253 249.232 44.506 74.176 103.846 133.517 178.023 178.022 77.143 44.506 160.22 67.253 250.22 67.253 89.011 0 172.089-22.747 249.232-67.253 74.176-44.505 133.517-103.846 178.022-178.022 44.506-77.143 67.253-160.22 67.253-250.22 0-89.012-22.747-172.09-67.253-249.232-44.505-74.177-103.846-133.517-178.022-178.023C672.585 27.747 589.508 5 500.496 5c-90 0-173.077 22.747-250.22 67.253-74.177 44.506-133.517 103.846-178.023 178.023C27.747 327.419 5 410.496 5 500.496zm132.528-271.979c0-15.824 5.934-26.703 22.747-26.703 15.824 0 22.748 10.879 22.748 26.703 0 11.868-11.869 22.748-22.748 22.748-16.813 0-22.747-5.935-22.747-22.748zm45.495 111.759c0-21.758 17.802-44.506 46.483-44.506 27.693 0 46.484 16.813 46.484 44.506 0 27.692-15.824 50.44-43.517 50.44-28.681 0-49.45-22.748-49.45-50.44zm38.571 227.473c-6.923-33.626-10.879-67.253 0-99.89 4.945-33.627 32.638-56.374 72.198-49.451 32.638 0 54.396 27.692 60.33 60.33v27.692c-5.934 77.143 61.319 150.33 138.462 160.22 93.956 5.935 166.154-43.516 189.89-127.582 20.77-104.836-67.252-204.726-162.198-198.792-63.296 5.934-104.835 19.78-132.527 5.934-33.627-22.747-39.561-94.945 5.934-117.693 159.23-75.165 393.627 24.726 420.33 239.342 22.748 166.154-93.956 298.682-238.352 326.374-16.813 5.934-39.56 5.934-60.33 5.934-133.517 4.946-261.1-89.01-293.737-232.418zm22.747-332.309c0-22.747 15.825-33.626 38.572-33.626 20.77 0 32.637 15.824 32.637 38.571 0 22.748-16.813 33.627-32.637 33.627-22.747 0-38.572-16.813-38.572-38.572z"/></svg>