<svg xmlns="http://www.w3.org/2000/svg" width="1000" height="1000">
  <path d="M66.045 731.564v-457.75c0-19.261 5.665-23.793 23.793-36.257 132.567-73.648 259.467-150.695 390.9-223.21 19.262-12.463 23.794-12.463 43.056 0 126.901 72.515 258.334 149.562 390.9 223.21 12.464 12.464 19.262 16.996 19.262 36.258v457.75c0 16.995-6.798 23.793-19.262 29.459-132.566 78.18-263.999 157.493-397.698 228.874-5.665 6.799-23.794 6.799-36.257 0-131.434-71.381-258.334-150.694-390.9-222.076-18.13-12.464-23.794-23.794-23.794-36.258zm41.922-30.592c60.051-30.592 114.438-60.051 167.69-96.309 0 0 6.799 0 6.799-5.665 30.592-48.72 54.386-96.308 83.845-150.695-83.845-48.72-167.69-96.308-258.334-150.694zm16.996 43.056C246.198 808.61 360.636 875.46 480.739 942.31V767.82c-5.666-12.463-11.33-19.261-16.996-23.793-54.386-30.592-103.107-61.185-157.493-90.644-5.665-6.798-16.996-6.798-23.794 0-47.588 23.794-101.974 54.386-157.493 90.644zm0-482.677c90.643 54.386 175.622 103.107 265.132 150.695 30.592-47.588 55.52-96.309 84.978-145.03 0 0 5.666-5.665 5.666-12.463V63.068c-120.103 65.717-234.54 131.434-355.776 198.283zm211.879 361.441c48.72 23.794 90.644 54.386 138.231 78.18V538.947c-47.587 29.46-89.51 54.386-138.231 83.845zm18.129-66.85h5.665c29.459-16.995 60.051-36.257 96.309-53.252-16.996-12.464-36.258-23.794-54.386-30.593-16.996 30.593-29.46 54.386-47.588 83.846zm72.514-120.102c18.13 5.665 29.46 18.129 47.588 30.592V345.196c-18.128 30.593-29.459 60.052-47.587 90.644zm89.511 506.47c121.236-66.849 235.673-133.699 355.776-198.282-53.253-36.258-103.107-66.85-156.36-90.644-6.799-6.798-18.129-6.798-23.794 0-54.386 29.46-101.974 60.052-157.493 90.644-5.666 4.532-11.33 11.33-11.33 16.996-6.799 60.05-6.799 121.235-6.799 181.287zm0-711.551c0 6.798 0 19.262 6.798 30.592 30.592 47.588 60.052 103.107 90.644 150.695 83.845-47.588 167.69-96.309 258.334-150.695-120.103-66.85-234.54-132.566-355.776-205.08zm6.798 470.213c47.588-23.794 90.644-54.386 145.03-78.18-54.386-29.459-97.442-54.386-145.03-83.845zm0-234.54c18.129-12.463 36.258-24.927 54.386-30.592-18.128-30.592-36.257-60.051-54.386-90.644zm18.129 36.258c36.257 16.995 65.716 36.257 101.974 60.05v-6.797c-12.464-29.46-29.46-53.253-48.721-83.846-16.996 6.799-35.124 18.129-53.253 30.593zm89.51-54.387c30.593 47.588 54.387 95.176 84.979 145.03 0 5.665 5.665 11.33 12.463 16.996 53.253 30.592 107.64 60.051 162.025 90.643V297.61c-83.845 54.386-174.488 101.974-259.467 150.694z" style="fill:#000;fill-opacity:1;fill-rule:nonzero;stroke:none;"/>
</svg>
