<svg xmlns="http://www.w3.org/2000/svg" width="1000" height="1000">
  <path d="M933.672 271.463v451.153c0 20.302-2.256 32.709-21.43 43.988-128.578 73.312-261.669 148.88-389.12 223.32-16.918 6.768-25.941 6.768-41.731 0-131.963-74.44-265.053-150.008-393.632-225.576-15.79-9.023-21.43-21.43-21.43-36.092 3.384-150.009 3.384-305.657 0-456.793 0-14.663 5.64-27.07 16.918-33.837C216.337 162.058 349.428 86.49 481.391 10.921c15.79-7.895 24.813-7.895 41.731 0C655.085 86.49 787.047 166.57 920.138 242.138c13.534 6.767 13.534 18.046 13.534 29.325zM96.782 718.105c33.837-19.174 60.906-37.22 89.103-54.139 15.79-6.767 23.685-16.918 23.685-38.348 0-74.44-4.511-150.008 0-225.577 3.384-45.115-10.15-71.056-51.882-87.975-21.43-5.639-39.476-18.046-60.906-30.452zm11.279 24.813c128.579 72.185 252.646 144.37 377.841 216.554V827.51c0-2.256-4.511-12.407-12.407-12.407C394.543 769.987 314.464 726 236.64 680.885c-4.512-5.64-16.919-5.64-20.302 0-32.709 18.046-68.801 37.22-108.277 62.033zm2.256-486.118c37.22 22.558 73.312 40.604 109.404 60.906 3.384 0 12.407 0 19.174-5.64 80.08-43.987 159.032-89.102 234.6-135.346 7.896-3.383 12.407-10.15 15.79-14.662V36.863C360.708 113.559 236.64 185.743 110.318 256.8zm218.81 163.543c5.639 51.883 0 104.894 5.639 153.393 0 7.895 6.767 19.174 10.15 25.941 49.627 25.941 93.615 53.01 144.37 81.208 11.279 7.895 16.918 7.895 29.325 0 48.499-23.686 95.87-46.244 140.985-69.93 18.046-6.766 34.965-11.278 51.883-3.383 27.07 3.384 41.732 27.07 43.987 49.627 0 31.58-10.15 53.01-36.092 65.417-49.627 25.942-98.126 51.883-152.264 71.057-43.988 19.174-64.29 40.604-54.139 90.23 3.384 22.558 0 49.628 0 75.569 5.64 0 10.151-4.511 14.663-4.511 122.94-71.057 244.75-142.114 367.69-215.426 10.151-2.256 13.535-13.535 13.535-21.43V570.352c0-38.348 3.383-36.092-34.965-36.092H544.552c-28.197 0-47.371-16.919-47.371-43.988 0-21.43 19.174-41.732 47.371-41.732h345.133c15.79 0 19.174-6.767 19.174-22.557v-138.73c0-15.79-3.384-22.558-15.79-30.453-99.254-56.394-196.253-115.044-295.506-170.31-25.942-15.79-53.01-30.453-81.208-49.627v113.916c0 15.79 2.256 22.558 16.918 28.197 60.906 32.709 126.323 63.162 186.101 92.487 33.837 15.79 49.627 53.01 30.453 85.719-14.662 30.453-53.01 39.476-86.847 24.813-48.5-24.813-98.126-48.499-144.37-69.929-5.639-3.383-21.43-3.383-29.324 0-45.116 28.198-94.743 55.267-139.858 81.208-11.279 6.767-20.302 15.79-20.302 27.07z" style="fill:#000;fill-opacity:1;fill-rule:nonzero;stroke:none;"/>
</svg>
