<svg xmlns="http://www.w3.org/2000/svg" viewBox="0 0 1000 1000"><path d="M808.538 833.56V526.181c0-45.237-15.08-75.395-59.156-105.553-91.633-52.196-180.947-104.392-271.42-156.589-28.998-16.238-37.118-38.277-37.118-68.435V51.775c0-44.076 22.039-59.155 67.275-35.957 113.672 67.275 233.144 134.55 345.656 201.826 30.157 15.079 37.117 38.277 37.117 67.275v473.246c0 38.277-20.879 60.316-82.354 75.394zm-699.43-148.47V570.258c6.96-52.196 31.318-66.115 75.395-44.076 113.672 67.275 225.024 134.55 337.535 202.985 31.318 15.079 46.397 37.117 46.397 67.275v150.79c0 45.236-30.158 59.155-75.394 38.277-44.077-24.359-91.634-52.197-135.71-83.514-59.156-37.118-127.592-75.395-187.907-112.512-37.118-23.199-60.316-60.316-60.316-104.393zm172.828-211.105V299.998c0-35.958 23.198-52.196 60.315-28.998 120.632 66.115 241.263 134.55 354.935 202.985 28.998 15.08 35.957 35.958 35.957 67.275v315.498c0 22.038-6.96 38.277-22.038 45.237-23.199 15.078-45.237 23.198-61.476 31.317H635.71V818.481c0-74.235-13.919-119.472-82.354-157.75-83.514-37.116-164.708-90.473-241.262-142.669-22.039-8.12-30.158-22.038-30.158-44.077z"/></svg>