<svg xmlns="http://www.w3.org/2000/svg" viewBox="0 0 1000 1000"><path d="M698.877 409.102c0-45.96-19.406-81.706-71.494-81.706H370.008c-52.088 0-70.471 18.383-70.471 76.6 0 15.32 7.149 173.625 7.149 174.647-63.323 31.661-132.773 28.597-140.944-39.832 0-54.13 0-106.218 6.128-158.306 0-53.11 11.235-100.09 52.088-129.71 35.747-29.618 75.579-40.852 122.56-40.852h305.377c33.704 0 70.472 11.234 99.07 29.618 22.469 11.235 40.853 28.597 52.087 51.067 6.128 13.277 6.128 18.384 0 31.66-11.234 16.342-75.578 74.558-104.175 86.814zM42.16 689.968C-21.16 658.306 4.372 564.344 59.524 515.32c0 34.725 10.213 78.643 40.853 91.92 46.981 24.512 94.984 30.64 147.072 24.512 140.943-17.363 268.61-63.323 392.19-134.816 64.344-35.746 117.453-70.471 169.541-122.56 48.003-50.044 70.472-96.004 69.45-153.199 0-40.853-51.066-48.002-52.087-63.322 41.874 0 81.706 5.106 117.453 18.384 46.981 16.341 58.216 58.216 46.981 104.175-12.256 73.536-101.112 138.901-199.16 216.522C685.6 568.43 569.168 625.624 446.609 661.37c-64.344 23.491-134.815 39.832-199.16 52.088-75.578 8.17-139.921 6.128-205.287-23.49zm392.191 23.49c134.816-46.98 264.525-111.325 387.084-193.031 5.107 53.11 0 93.962-24.512 127.666-23.49 36.768-64.344 53.11-111.325 65.365 23.49 29.619 41.875 53.11 59.237 75.579 13.278 23.49 36.768 53.109 6.128 53.109H645.767c-6.128 0-18.384-11.235-23.49-17.363-23.49-29.618-40.853-58.216-64.344-86.813-21.448-30.64-46.981-24.512-123.58-24.512z"/></svg>