<svg xmlns="http://www.w3.org/2000/svg" viewBox="0 0 1000 1000"><path d="M5 500.496c0-90 22.747-173.077 67.253-250.22 44.506-74.177 103.846-133.517 178.023-178.023C327.419 27.747 410.496 5 500.496 5c89.011 0 172.089 22.747 249.232 67.253 74.176 44.506 133.517 103.846 178.022 178.023 44.506 77.143 67.253 160.22 67.253 249.231 0 90-22.747 173.078-67.253 250.22-44.505 74.177-103.846 133.518-178.022 178.023-77.143 44.506-160.22 67.253-249.232 67.253-90 0-173.077-22.747-250.22-67.253-74.177-44.505-133.517-103.846-178.023-178.022C27.747 672.585 5 589.508 5 500.496zm302.638-23.736c0 17.802 0 35.604 1.978 51.429 1.978 19.78 6.924 37.582 12.858 55.384 10.879 23.737 26.703 43.517 47.472 60.33 49.451 40.55 132.528 43.517 210.66 37.583 1.978 0 3.956-2.967 3.956-4.945 4.945-10.88 6.923-24.726 6.923-35.605 0-7.912-.989-19.78-8.9-19.78-43.517 4.945-98.902 5.934-141.43-13.846-20.769-9.89-36.593-19.78-49.45-34.616-21.759-28.681-34.616-73.187-28.682-102.857 0-1.978-2.967-4.945-2.967-4.945-10.879-10.88-10.879-8.901-41.538-55.385-6.924 22.747-10.88 44.505-10.88 67.253zm14.836 281.869c0 1.978 0 1.978 2.967 4.945l19.78 18.791c24.725 22.748 53.407 40.55 84.066 51.429 53.407 16.813 116.704 8.901 164.177-14.835 31.648-15.824 56.373-36.594 74.176-65.275 17.802-29.67 26.703-61.32 27.692-97.913 0-17.802 0-32.637-3.956-50.44-6.923-32.637-19.78-64.285-44.506-89.01-14.835-12.858-30.66-25.715-48.461-35.605-17.803-12.857-37.583-22.747-60.33-30.66-17.803-5.934-35.605-15.824-51.429-24.725-12.857-5.934-23.736-15.824-34.616-23.736-13.846-13.846-24.725-29.67-29.67-47.473-3.956-15.824-6.923-30.66-3.956-46.484 15.824-83.077 107.803-109.78 190.88-62.308 6.923 3.957 12.857 8.902 17.802 13.847 1.978 1.978 4.945 1.978 6.923 1.978l48.462-49.451c0-9.89-59.341-44.506-84.066-52.418-17.803-4.945-35.605-8.9-53.407-8.9-17.802-2.968-35.605 0-53.407 1.977-26.703 6.923-53.407 14.835-76.154 30.66-32.638 20.769-55.385 49.45-66.264 85.055-10.88 28.681-12.857 59.34-8.901 89.011 2.967 28.681 13.846 52.418 29.67 75.165 13.846 19.78 30.66 32.638 48.462 46.484 23.736 17.802 48.462 28.681 75.165 39.56 13.846 4.945 26.703 10.88 40.55 17.803 14.835 8.9 33.626 17.802 46.483 30.66 13.847 13.845 21.759 27.692 28.682 43.516 6.923 23.736 8.9 45.494 2.967 71.209-6.923 32.637-24.726 56.374-54.396 72.198-23.736 10.879-48.462 15.824-75.165 15.824-29.67 0-63.297-21.758-86.044-42.528-8.901-8.9-15.825-12.857-19.78-21.758-5.935 1.978-54.396 51.429-54.396 53.407zm119.67-415.386c0 1.978 0 1.978 5.934 1.978h18.792c18.791-1.978 35.604 0 56.374 1.978 17.802 1.978 37.582 9.89 55.384 16.813 14.836 7.912 28.682 16.813 39.56 30.66 21.76 27.692 31.65 52.417 31.65 92.967 0 0 0 2.967.988 2.967 9.89 3.956 18.792 10.88 25.715 18.791.989 0 22.846 30.956 23.736 33.429v-3.758c8.901-56.374 2.967-110.77-17.802-156.265-10.88-18.79-21.759-35.604-39.56-51.428-17.803-11.868-37.583-23.737-58.353-30.66-23.736-6.923-46.483-10.879-71.209-10.879-23.736 0-46.483 2.967-71.209 6.923-10.879 1.978-5.934 7.912 0 46.484z"/></svg>