<svg xmlns="http://www.w3.org/2000/svg" viewBox="0 0 1000 1000"><path d="M500.496 5C223.572 5 5 229.506 5 500.002c0 276.43 224.506 495.001 495.002 495.001 276.43 0 495.001-224.506 495.001-495.001C995.003 226.539 773.464 5 500.496 5zM107.857 505.441c-5.934-197.803 149.342-401.54 401.54-401.54 223.518-5.934 398.573 178.023 398.573 401.54 0 244.287-209.671 393.628-398.573 399.562-212.638 7.912-416.375-203.737-401.54-399.562zm114.726 5.934c163.188 19.78 244.287 129.561 286.814 283.847 25.715-160.22 114.726-264.066 283.847-283.847-169.121-25.714-258.132-128.572-283.847-289.78-34.615 161.208-117.692 270-286.814 289.78z"/></svg>