<?xml version="1.0" encoding="utf-8"?>
<!-- Generator: Adobe Illustrator 26.0.1, SVG Export Plug-In . SVG Version: 6.00 Build 0)  -->
<svg version="1.1" id="Layer_1" xmlns="http://www.w3.org/2000/svg" xmlns:xlink="http://www.w3.org/1999/xlink" x="0px" y="0px"
	 viewBox="0 0 1000 1000" style="enable-background:new 0 0 1000 1000;" xml:space="preserve">
<g>
	<path d="M998.8,466.1C980.1,190.6,741.6-17.6,466.1,1.2c-137.2,9.3-257.7,73.2-341.8,169.1l0,0l-0.2-0.2c-0.6,0.8-1.1,1.6-1.7,2.3
		C38.8,268.7-8.2,396.7,1.2,533.9c0.9,13.1,2.4,25.9,4.3,38.7c0,0,0,0,0,0c0.1,0.6,0.2,1.2,0.3,1.7c1.3,8.4,2.7,16.8,4.4,25
		c0,0,0,0,0,0c0,0.2,0.1,0.3,0.1,0.5c1.5,7.5,3.2,14.9,5,22.2c0,0,0,0,0,0c0,0,0,0,0,0C73,852.4,288.7,1015.5,533.9,998.8
		C809.4,980.1,1017.6,741.6,998.8,466.1z M890,473.5c2.3,33.9,0.2,67.1-5.9,99.1c-0.1-0.2-0.1-0.4-0.2-0.6v0
		c-36.2-88.6-108-152.6-171-187.9c12.8-150.1-38.2-213.4-95.8-223.7c-1.6-0.3-3.1-0.6-4.7-0.8c-45.8-5.9-87.6,26.5-93.5,72.2
		c-5.9,45.8,26.5,87.6,72.2,93.5c4,0.5,7.9,0.6,11.8,0.6c0.3,5.1,0.4,10.5,0.5,16.1c-53.3-13.2-103.1-15.8-148.6-11.7
		c-17,1.1-34,3.3-50.9,6.4c5.7-50.7,24.7-107.6,61.6-149.3c35.7-40.3,88.7-63.3,146.6-57.4c11,1.1,22.7,3.8,33.2,7.4
		c0.5,0.2,1,0.3,1.5,0.5c0,0,0,0,0,0C780.9,192.4,879.5,319.6,890,473.5z M541.5,549.8c0,0.1-0.1,0.1-0.1,0.2
		c-11.9,17.2-26.1,34.2-42.8,50.6c-25-26.6-45-55.2-60.2-84.8c-0.8-1.6-1.6-3.1-2.4-4.7c0-0.1-0.1-0.1-0.1-0.2
		c-8.9-18.9-16.5-39.7-22.4-62.4c35.5-8.4,70.4-11.4,103.6-9.8c1.8,0.1,3.5,0.2,5.3,0.3c0.1,0,0.1,0,0.2,0
		c20.8,1.7,42.6,5.5,65.1,11.7c-10.5,34.9-25.3,66.6-43.3,94.6C543.4,546.9,542.5,548.4,541.5,549.8z M370.6,131.2
		c-0.1,0.1-0.2,0.2-0.3,0.4l0,0c-58.6,75.7-78.1,169.7-77.2,241.9c-136.4,64-165.7,139.7-145.8,194.8c0.5,1.5,1.1,3,1.7,4.5
		c17.8,42.6,66.7,62.6,109.3,44.8c42.6-17.8,62.6-66.7,44.8-109.3c-1.6-3.7-3.4-7.2-5.4-10.6c4.3-2.8,8.9-5.6,13.9-8.5
		c15.2,52.8,37.7,97.4,64,134.7c9.5,14.1,19.8,27.7,31,40.8c-46.7,20.4-105.6,32.4-160.1,21.3c-52.7-10.8-99.2-45.2-123-98.2
		c-4.5-10.1-8-21.5-10.2-32.4c-1.4-9.5-2.5-19.1-3.2-28.9C97.8,347.4,208.9,188,370.6,131.2z M526.5,890
		c-106.4,7.2-205.8-29-280.9-93.5c94.8,12.9,186-17.2,248.1-54.1c123.7,86.2,204,73.7,241.7,28.9c1-1.2,2.1-2.4,3-3.7
		c28-36.7,20.9-89.1-15.8-117c-36.7-28-89.1-20.9-117,15.8c-2.4,3.2-4.5,6.6-6.4,10c-4.5-2.3-9.3-4.9-14.2-7.7
		c38.1-39.6,65.3-81.5,84.5-122.9c7.5-15.3,14.2-31.1,19.9-47.3c41.1,30.3,80.9,75.2,98.6,128c17,51,10.5,108.5-23.6,155.7
		c-6.5,8.9-14.6,17.7-23,25.1c-0.1,0.1-0.2,0.2-0.4,0.3C681.4,854.4,607.7,884.5,526.5,890z"/>
</g>
</svg>
