<svg xmlns="http://www.w3.org/2000/svg" viewBox="0 0 1000 1000"><path d="M857.471 738.185H574.014c-9.449 33.595-30.446 59.84-68.24 56.691-38.844 0-56.691-23.096-68.24-56.691H141.48c0 4.2-4.199 9.448-4.199 12.598-13.648 34.645-47.243 51.442-76.638 44.093C25.997 785.428 5 756.032 5 726.636c4.2-34.644 29.396-65.09 64.04-65.09 20.997 0 29.396-8.398 33.595-20.996 64.04-97.636 128.08-191.071 188.972-288.707 5.249-5.249 9.448-9.448 13.648-17.847 7.348-8.399 7.348-16.797 0-29.396-16.798-26.246-13.648-59.84 12.598-80.837 17.847-20.997 51.442-26.246 76.638-12.598 25.196 15.747 43.044 41.993 33.595 75.588-3.15 13.648 0 20.997 12.598 34.645 34.645 25.196 68.24 54.592 102.884 85.037 4.2 0 7.35 4.2 12.599 8.399 59.84-38.844 119.681-75.589 178.473-114.433-3.15-8.399-3.15-22.047-3.15-29.395 0-30.446 15.748-52.493 41.994-65.09 29.395-8.4 59.84 5.249 76.638 26.245 16.798 25.197 20.997 59.841 0 80.838-16.797 12.598-13.648 29.396-8.399 47.243l75.589 267.71c0 4.199 5.25 8.398 5.25 12.598 3.149 12.598 12.597 20.996 25.195 26.246C977.153 674.145 995 703.54 995 735.036c-4.2 28.345-25.196 54.591-55.641 59.84-29.396 7.35-58.792-9.448-72.44-38.844-4.199-5.25-9.448-8.399-9.448-17.847zm-725.44-37.794c5.249 8.398 9.448 12.598 9.448 20.996h296.056c8.398-12.598 11.548-25.196 20.996-38.844 8.4-8.398 8.4-15.747 8.4-29.395-12.599-38.844-26.247-75.589-34.646-110.234-4.199-9.448-4.199-17.847-7.349-25.196-98.685 59.841-194.22 118.632-292.905 182.673zm0-26.246c0 5.249 5.249 5.249 5.249 5.249 93.436-59.841 188.971-119.682 282.407-179.523-4.2-11.548-4.2-20.997-8.399-29.396-12.598-38.844-20.996-76.638-33.594-115.482 0-8.399-8.4-15.748-12.599-15.748-5.249 0-13.647 3.15-17.847 7.35-4.2 5.248-8.399 13.647-8.399 16.797-59.84 86.087-117.582 175.323-172.173 260.36-13.648 16.798-22.047 34.645-34.645 50.393zm283.457-348.548c12.598 47.243 25.196 97.636 43.043 149.078 29.396-16.798 55.642-33.595 85.037-51.443-43.043-33.594-85.037-68.24-123.88-101.834-4.2 0-4.2 4.2-4.2 4.2zm46.193 165.875c17.847 55.642 30.445 107.084 47.243 161.676 0 5.249 5.249 8.398 8.398 8.398 4.2 0 9.449-3.15 12.599-8.398 34.644-51.443 68.24-101.835 102.884-157.476-25.196-16.798-47.243-37.795-68.24-54.592-4.2-5.25-8.398-9.449-16.797-5.25-30.446 22.047-55.642 38.845-86.087 55.642zm107.084-68.24c26.246 20.997 47.243 38.845 73.489 59.841 33.594-54.591 71.389-107.083 101.834-165.874-59.84 34.644-119.682 68.24-175.323 106.034zm8.398 298.155h264.56c12.598 0 15.748-4.199 20.997-12.598 0-5.249 4.2-12.598 4.2-16.797-68.24-55.642-132.28-111.283-203.67-166.925-30.445 43.044-55.641 89.237-86.087 128.08-12.598 20.998-20.996 43.044 0 68.24zm98.685-212.068c3.15 3.15 3.15 8.4 8.4 12.599 59.84 46.193 122.83 97.635 182.672 148.027 4.199 4.2 8.398 4.2 13.647 4.2 3.15-4.2 3.15-7.35 3.15-15.748-29.396-102.885-59.84-204.72-89.236-306.554 0-5.249-5.25-9.448-8.4-17.847-38.843 59.84-76.638 119.682-110.233 175.323z"/></svg>