<svg xmlns="http://www.w3.org/2000/svg" viewBox="0 0 1000 1000"><path d="M5 500.496c0 271.98 220.55 494.507 495.496 494.507 271.98 0 494.507-220.55 494.507-495.496C995.003 227.528 773.464 5 500.496 5 226.54 5 5 225.55 5 500.496zm129.56 270.99v-27.692h126.595V561.815H134.56v-27.692c3.956 0 6.923-1.978 8.901-1.978h120.66c12.857 0 23.736 8.9 23.736 19.78h85.055c5.934 0 10.88 3.956 17.803 4.945 24.725 9.89 50.44 18.791 77.143 29.67 1.978 0 1.978 0 5.934 1.978 11.868 6.924 25.714 7.913 39.56 6.924h79.122c11.868 0 22.747 6.923 29.67 14.835 3.956 6.923 6.923 15.824 9.89 24.725 0 0 4.945 0 6.923-1.978 12.857-.989 19.78-4.945 31.649-7.912 28.681-6.923 57.362-18.791 87.033-25.714 11.868-1.978 19.78-3.956 28.681-3.956 18.792.989 31.649 16.813 31.649 32.637v29.67c0 10.88-12.857 15.825-26.704 24.726-.989 0-101.868 52.418-100.88 52.418 18.792 0-34.615 17.802-51.428 26.703-19.78 8.901-36.593 19.78-54.396 26.703l-38.571 21.759h-60.33l-24.725-9.89c-37.583-13.847-74.176-25.715-110.77-38.572-8.901-3.956-17.802-8.901-25.714-10.88-11.869-1.977-22.748 0-36.594 0-3.956 15.825-12.857 20.77-26.703 20.77zm40.55-48.462v-13.846c-.989-4.945 1.978-6.923 6.924-9.89 19.78-.989 19.78 0 19.78 17.802v11.868h-20.77c-3.956 0-5.934-2.967-5.934-5.934zm43.517 5.934v-26.703c6.923-2.967 13.846-2.967 22.747 0 9.89 3.956 3.956 13.846 6.924 20.77 0 5.933-6.924 5.933-9.89 5.933zm69.231-6.923h41.539c2.967 0 4.945 0 6.923.99 18.791 5.933 38.571 11.868 57.363 18.79 34.615 10.88 67.253 24.726 101.868 33.627 10.88 3.956 24.725 1.978 36.594 3.956 2.967 0 9.89-1.978 11.868-3.956 17.802-8.901 32.637-19.78 49.45-26.703l92.968-49.451c26.703-13.846 53.407-26.703 82.088-41.539 4.945 0 10.88-4.945 15.824-8.9 4.945-1.979 5.934-5.935 2.967-13.847-2.967-6.923-5.934-8.901-11.868-8.901l-21.758 6.923c-17.802 6.923-33.627 10.88-50.44 15.824-25.714 8.901-49.45 16.814-74.176 25.715-11.868 4.945-24.725 9.89-36.594 12.857-10.879 2.967-20.769 2.967-32.637 2.967h-91.978c-10.88 0-13.846.989-17.803 11.868v6.923H426.32c-3.956 0-6.923-2.967-6.923-6.923-1.978-17.802 8.901-40.55 28.681-44.506h135.495c2.967 0 6.923 0 9.89-4.945 3.957-5.934 5.935-11.868 1.979-19.78-2.967-4.945-5.935-7.912-16.814-7.912-24.725 0-51.428-1.978-77.143 0-17.802 0-33.626-3.956-47.472-8.901-25.715-9.89-50.44-19.78-77.144-29.67-3.956-1.979-8.9-1.979-12.857-1.979h-76.154zm33.627-211.649c0-23.736 0-45.494 4.945-71.209 1.978-3.956 1.978-6.923 2.967-10.879 4.945-20.77 11.868-41.538 22.747-60.33 4.945-8.9 11.868-15.824 15.824-23.736 13.846-14.835 25.715-31.649 43.517-43.517 10.879-6.923 20.77-13.846 33.626-14.835 4.945 0 6.923-1.978 6.923-6.923v-6.923c0-9.89 0-17.802 8.902-23.737 2.967-2.967 2.967-6.923 0-12.857-8.902-15.824-17.803-36.593-28.682-54.395-2.967-5.935-3.956-12.858-3.956-21.759 48.462-22.747 57.363-36.593 97.913-10.879h5.934c25.714 0 43.516-21.758 63.297-6.923 8.9 6.923 16.813 9.89 27.692 14.835 2.967.99 2.967 2.967 5.934 8.901 0 6.923 0 15.825-5.934 23.737-13.846 21.758-14.835 31.648-23.736 59.34 9.89 5.935 8.9 19.78 8.9 30.66 0 4.945.99 6.923 3.957 7.912 26.703 11.868 51.429 27.692 71.209 50.44 12.857 17.802 24.725 34.615 30.66 57.363 13.845 30.659 21.758 63.297 21.758 97.912v109.78h-27.693c-1.978-1.977-1.978-2.966-1.978-2.966-2.967-40.55-2.967-82.089-5.934-121.65 0-31.648-18.791-90-33.626-107.802-10.88-17.802-29.67-32.637-47.473-40.55-10.88-4.944-23.736-8.9-34.616-16.813-7.912-5.934-16.813-4.945-27.692-4.945h-45.495c-14.835 0-27.692 0-43.516 4.945-24.726 9.89-45.495 21.759-63.297 39.561-13.846 13.846-22.748 31.648-29.67 50.44-9.89 27.692-19.78 56.374-19.78 85.055 0 16.813-.99 29.67-.99 46.484 0 .989 0 2.967-1.978 6.923h-27.692c-1.978-10.88-2.967-18.792-2.967-30.66zm75.165 14.836c15.824-59.341 32.637-117.693 48.461-175.056h90c19.781 1.978 30.66 19.78 23.737 39.56-5.934 17.803-30.66 42.528-41.539 42.528v1.978c13.847 0 27.693 14.835 26.704 36.594-5.934 30.66-26.704 46.483-56.374 51.428-12.857 1.978-28.681.99-44.506 2.967zm31.648-23.737c-.989.99-1.978 9.89.99 9.89 16.812-.989 34.615 0 52.417-3.956 20.77-1.978 31.648-13.846 38.571-35.604 1.978-5.934 0-11.868-2.967-17.803-5.934-9.89-14.835-10.879-24.725-10.879-11.868-1.978-28.681 0-40.55-1.978-6.923 0-10.879 2.967-12.857 8.901-1.978 17.803-8.9 33.627-10.879 51.43zm18.791-74.176c22.748-1.978 40.55.99 61.32-3.956 30.659-9.89 42.527-60.33 4.944-60.33h-49.45c-4.945 21.758-9.89 40.55-16.814 64.286zm20.77-250.22c8.9 18.79 18.791 36.593 26.703 53.406 1.978 4.945 6.923 8.901 11.868 8.901h45.495c6.923 0 9.89-3.956 12.857-8.9l21.758-42.528c2.967-3.956 3.956-6.923 3.956-10.88-11.868-10.879-22.747-14.835-40.55 0-12.856 4.946-28.68 7.913-47.472-1.978-18.791-12.857-28.681-4.945-34.615 1.978zm78.132 315.495c0-8.901 0-17.802 1.978-24.725 3.956-23.737 11.868-42.528 29.67-57.363 20.77-14.835 53.407-18.791 86.045-7.912-.99 3.956-.99 7.912-.99 13.846-8.9 0-15.824-1.978-23.736-2.967-23.736-2.967-43.516 2.967-57.363 21.758-9.89 14.835-15.824 33.627-12.857 51.429 3.956 14.835 15.824 23.736 30.66 24.725 9.89 0 22.747-.989 32.637-3.956 1.978 0 4.945 0 6.923-1.978 0 13.846-2.967 17.802-15.824 19.78-17.802.99-32.638 4.946-50.44-2.967-13.846-5.934-22.747-16.813-26.703-29.67zm18.791 148.352c.99-7.912 3.956-10.879 12.857-10.879 6.923 0 11.868 2.967 11.868 10.88 0 6.922-4.945 11.867-12.857 11.867-7.912 0-11.868-4.945-11.868-11.868zm189.89 7.912c-6.922-10.879 3.957-14.835 13.847-16.813 5.934 0 8.901 4.945 8.901 9.89 0 5.934-1.978 8.901-8.9 10.88-3.957 1.977-10.88 0-13.847-3.957z"/></svg>