<svg xmlns="http://www.w3.org/2000/svg" viewBox="0 0 1000 1000"><path d="M492.582,453.946,503.07,575.608l-41.952-75.724-39.75,18.669L415.915,392.7l36.918,77.193ZM1000,500c0,276.142-223.858,500-500,500S0,776.142,0,500,223.858,0,500,0,1000,223.858,1000,500ZM139.553,476.915h95.232a12.271,12.271,0,1,0,0-24.437H139.553a12.271,12.271,0,0,0,0,24.437Zm147.568,28.108.105-.105H181.506a12.271,12.271,0,1,0,0,24.542H287.121a12.271,12.271,0,1,0,0-24.437Zm-67.648,52.44A12.167,12.167,0,0,0,207.2,569.524v.106A12.276,12.276,0,0,0,219.473,581.9H314.7a12.271,12.271,0,0,0,0-24.438Zm-74.466-27.9h4.825a12.271,12.271,0,1,0,0-24.542h-4.825a12.271,12.271,0,1,0,0,24.542Zm5.349,104.776H355.923a12.165,12.165,0,0,0,12.166-12.166v-.1A12.164,12.164,0,0,0,355.923,609.9H150.356a12.271,12.271,0,0,0,0,24.437ZM746.5,608.435c-37.547-15.1-56.006-23.807-71.424-9.439,7.866-15.627,4.72-16.571-1.888-28.108-13.11-23.179-47.93-61.145-59.887-133.513a385.925,385.925,0,0,0,20.976-84.534s7.342-20.976-24.751-10.488a360.879,360.879,0,0,1-62.929,30.73c-39.96-4.72-98.588-33.562-120.193-78.241,0,0,18.039-37.653,2.307-46.358-10.488-5.978-43.211,27.689-43.211,27.689L279.464,399.827l-8.18,15.208a19.4,19.4,0,0,0,1.573,20.976c28.108,37.443,138.862,185.01,202,263.042-180.5,1.468-278.04,29.156-208.818,38.8,56.635,7.867,185.953,5.559,283.178,5.244a262.675,262.675,0,0,0,34.506,7.552L746.5,752.227c20.976-1.154,40.274-2.727,55.482-4.4a26.957,26.957,0,0,0,22.235-17.2C841.731,683.74,814.147,635.5,746.5,608.435Z"/></svg>