<svg xmlns="http://www.w3.org/2000/svg" viewBox="0 0 1000 1000"><path d="M5 705.523V32.506c0-10.89 13.068-10.89 26.137-10.89 55.54 0 114.347-1.09 173.155 0 132.86 0 239.585 62.074 239.585 194.935 0 32.67-5.445 66.43-19.602 98.012-10.89 21.78-66.431 88.211-66.431 88.211-4.356 5.445 3.267 18.514 86.033 233.051 5.445 18.514 11.98 37.027 20.691 54.452 6.535 17.424 0 25.047-19.602 25.047h-78.41c-8.712 0-15.246-1.089-19.602-10.89-16.336-47.917-34.849-93.656-49.006-139.395-17.425-40.294-29.404-82.766-45.74-121.971-3.266-10.89-3.266-10.89-14.157-10.89H132.416c-9.801 0-9.801 0-9.801 8.712v252.654c0 19.602-4.356 21.78-23.959 21.78h-66.43c-13.069 0-20.692-1.089-27.226-9.801zm117.615-378.98c0 6.534 2.178 8.712 7.623 8.712 16.335 0 34.849 1.089 51.184 0 18.513 0 34.849-2.178 53.362-2.178 23.959-6.535 45.74-18.514 64.253-35.938 29.403-31.582 31.581-67.52 23.958-103.458-4.356-17.424-11.979-28.314-23.958-40.294-18.514-19.602-40.294-26.136-64.253-31.581-34.849-2.178-70.786-1.09-108.902-2.178-5.445 0-3.267 2.178-3.267 8.712zm392.049 633.812V282.98c0-13.068 5.445-17.424 18.513-17.424h64.252c13.069 0 18.514 4.356 18.514 16.335v41.383c67.52-83.855 208.004-83.855 288.591-17.424 108.903 88.21 120.882 298.393 28.315 399.672-42.472 50.095-95.834 80.588-162.265 82.766-35.937 2.178-70.786-2.178-104.546-17.424-16.335-9.802-46.828-30.493-50.095-38.116v226.517c0 16.335-3.267 19.602-18.514 19.602h-64.252c-13.068 0-18.513-4.356-18.513-18.513zm98.012-450.856c0 70.786 22.87 124.148 65.341 157.908 59.897 46.828 135.04 34.849 181.867-26.136 23.959-26.137 35.938-57.719 38.116-92.568 7.624-60.985-6.534-118.703-54.45-165.531-22.87-22.87-54.452-34.85-86.034-34.85-41.383 0-75.143 19.603-102.368 52.274-28.315 32.67-42.472 75.143-42.472 108.903z"/></svg>