<svg xmlns="http://www.w3.org/2000/svg" width="1000" height="1000">
  <path d="M500.496 5c272.968 0 494.507 221.54 494.507 495.002 0 270.495-218.572 495.001-495.001 495.001C229.506 995.003 5 776.431 5 500.002 5 229.506 223.572 5 500.496 5zM222.583 748.739c-11.868 10.879-8.901 31.648 6.923 46.483 13.846 13.847 34.616 16.814 45.495 5.934l60.33-60.33c25.714-23.736 41.538-40.549 44.505-43.516l70.22-71.209c49.451 20.77 110.77 9.89 151.32-30.66 40.55-39.56 49.45-99.89 29.67-149.34l80.11-81.1c58.352 90 47.473 214.616-34.615 295.715-50.44 51.43-119.671 74.177-186.924 69.231-16.813-.989-29.67 9.89-32.637 37.583-.99 17.802 12.857 33.626 30.659 35.605 86.044 2.967 174.066-26.704 239.341-92.968 110.77-109.78 123.627-278.902 36.594-397.584l49.45-48.461c11.869-12.857 9.89-33.627-4.944-48.462-14.836-13.846-36.594-16.813-47.473-3.956-93.956 92.967-93.956 92.967-94.945 94.945l-81.1 80.11c-54.395-40.55-130.55-34.615-179.011 13.847-48.462 49.45-52.418 125.605-13.846 180l-61.32 61.32c-52.417-72.199-67.252-177.034-17.802-259.123 51.43-89.01 144.397-127.582 233.408-116.703 18.791 2.967 34.615-10.88 36.593-29.67.99-21.759-13.846-40.55-35.604-42.528-89.011-9.89-180 19.78-248.243 87.033-111.758 112.748-118.681 290.77-19.78 411.43zm233.408-203.737c-25.715-25.715-25.715-68.242 0-93.957 26.703-24.725 68.242-24.725 92.967 0 27.692 25.715 27.692 68.242 0 93.957-24.725 25.714-66.264 25.714-92.967 0z" style="fill:#000;fill-opacity:1;fill-rule:nonzero;stroke:none;"/>
</svg>
