<svg xmlns="http://www.w3.org/2000/svg" width="1000" height="1000">
  <path d="M500.002 995.003c276.43 0 495.001-224.506 495.001-495.001C995.003 226.539 773.464 5 500.496 5 223.572 5 5 229.506 5 500.002c0 276.43 224.506 495.001 495.002 495.001zm-313.023-371.87V576.65h86.044v46.484c0 20.77 9.89 41.539 30.66 62.308v-150.33H186.978V246.319l204.726-60.33v91.979l-118.682 35.604v135.495h118.682v394.617L365 831.816c-82.088-42.528-178.022-110.77-178.022-208.682zM416.43 852.586V176.1l93.956-27.692L598.41 176.1v91.979l-88.023-27.693-5.934 1.978v206.704h91.979v86.045h-91.979v351.1l-24.725-8.901c-10.88-3.956-29.67-9.89-52.418-20.77zm117.693 35.605v-90l11.868-3.957c102.857-37.582 204.726-102.857 204.726-165.165V576.65h84.066v52.418c0 146.374-213.627 229.451-277.913 250.22zm89.01-161.21V184.012l208.683 65.275V537.09H709.178v125.604s-27.692 35.605-86.044 64.286zm88.023-277.913h37.583V313.572l-37.583-12.857z" style="fill:#000;fill-opacity:1;fill-rule:nonzero;stroke:none;"/>
</svg>
