<?xml version="1.0" encoding="utf-8"?>
<!-- Generator: Adobe Illustrator 26.0.1, SVG Export Plug-In . SVG Version: 6.00 Build 0)  -->
<svg version="1.1" id="Layer_1" xmlns="http://www.w3.org/2000/svg" xmlns:xlink="http://www.w3.org/1999/xlink" x="0px" y="0px"
	 viewBox="0 0 1000 1000" style="enable-background:new 0 0 1000 1000;" xml:space="preserve">
<path d="M500.5,5C223.6,5,5,229.5,5,499.5v0C5,773.5,226.5,995,499.5,995C776.4,995,995,770.5,995,499.5C995,223.6,770.5,5,500.5,5z
	 M132.6,311.9c52.8-23.9,105.7-47.5,158.6-71.3c34.6-15.5,69.1-31,103.7-46.5c11.6-5.2,25.4-8.2,41-7.2c16.1-0.1,30.7,6.5,45.4,13.1
	c61.8,27.9,123.6,55.8,185.3,83.7c44.7,20.2,89.4,40.4,134.1,60.6c22.3,10.1,44.7,19.9,66.9,30.2c30.1,14,36.3,52.9,12.3,75.7
	c-5.5,5.2-12.3,8.2-19,11.2c-44.3,20.1-88.6,40.1-132.8,60.2c-39.7,18-79.3,36.4-119.2,54c-26.3,11.6-52.5,9.2-78.5-2.5
	c-59.9-27-120-53.5-180-80.2c-44.8-19.9-89.6-39.9-134.5-59.8c-25.8-11.5-51.5-23.1-77.5-34.2c-15.7-6.7-28-16.5-31.8-33.8
	C101.6,342.5,111,321.7,132.6,311.9z M884.6,675.4c-6.1,8-14.8,12.2-23.7,16.2c-37.7,17-75.4,34.1-113,51.2
	C701.4,763.9,655,785,608.5,806c-7.9,3.6-16.3,5.5-24.9,6.5c-1.3,0.1-2.6,0.5-4,0.8c-4.5,0-9.1,0-13.6,0c-10-1.6-19.9-3.4-29.3-7.5
	c-28.8-12.9-57.6-25.7-86.5-38.6c-37-16.4-73.9-32.9-110.9-49.3c-33.1-14.7-66.2-29.4-99.3-44.1c-35.6-15.9-71-32-106.7-47.6
	c-31.8-13.9-37.8-55.5-10.4-77.9c6.2-5,13.7-7.6,20.8-10.9c39.9-18,79.9-35.8,119.8-53.8c3.3-1.5,5.9-1.3,9,0.1
	c22.9,10.2,45.8,20.4,68.7,30.6c40.1,17.9,80.3,35.7,120.4,53.5c21.4,9.5,42.7,19.1,64.2,28.4c33.3,14.4,66.3,13,99-2.2
	c35.1-16.3,70.3-32.1,105.5-48.2c2.4-1.1,4.5-1.1,6.9,0c43.3,19.6,86.8,39,130,58.7C895.1,617.2,903.3,651.2,884.6,675.4z"/>
</svg>
