<svg xmlns="http://www.w3.org/2000/svg" viewBox="0 0 1000 1000"><path d="m117.58 942.191 75.44-133.47 76.6 133.47zM5 775.063l292.474-517.632L383.36 407.15 89.725 924.782zm207.75 0 84.724-150.879 85.885 150.88-85.885 149.718zm111.418 167.128 85.885-152.04h584.948l-85.885 152.04zm0-334.255h170.61l85.885 150.879h-170.61zm0-33.658 85.885-150.88h169.45l-84.725 150.88zm0-365.592 76.6-134.631 76.6 134.63zm2.321 32.497h168.289l85.885 150.879h-170.61zM428.623 57.806h171.77l291.314 516.472h-170.61zm94.01 533.881 85.885-150.88 85.885 150.88-85.885 149.719zm114.9 167.128 83.564-150.88h170.61l-85.886 150.88zm206.589 0 75.44-133.47L995 758.815z"/></svg>