<svg xmlns="http://www.w3.org/2000/svg" width="1000" height="1000">
  <path d="M5 500.496c0-90 22.747-173.077 67.253-250.22 44.506-74.177 103.846-133.517 178.023-178.023C327.419 27.747 410.496 5 500.496 5c89.011 0 172.089 22.747 249.232 67.253 74.176 44.506 133.517 103.846 178.022 178.023 44.506 77.143 67.253 160.22 67.253 249.231 0 90-22.747 173.078-67.253 250.22-44.505 74.177-103.846 133.518-178.022 178.023-77.143 44.506-160.22 67.253-249.232 67.253-90 0-173.077-22.747-250.22-67.253-74.177-44.505-133.517-103.846-178.023-178.022C27.747 672.585 5 589.508 5 500.496zm96.923 70.22c25.715 165.166 120.66 270.001 273.957 328.353 5.934 2.967 12.858 0 18.792 0-1.978-2.967-5.934-9.89-8.901-12.857-56.374-45.495-77.144-106.814-56.374-175.056 22.747-60.33 43.516-119.67 63.297-183.956 7.912-25.715 19.78-56.374 30.659-89.012 29.67 45.495 55.385 89.012 82.088 132.528 30.66-43.516 57.363-87.033 83.077-129.56 3.957 2.966 3.957 6.922 6.924 9.89 26.703 88.022 57.362 171.099 88.022 257.143 21.758 71.21 2.967 132.528-54.396 178.023-6.923 2.967-6.923 9.89-9.89 12.857 2.967 0 9.89 2.967 16.813 0 47.473-12.857 93.956-40.55 133.517-73.187 160.22-131.54 196.814-363.957 84.066-540.991-3.956-3.956-6.923-9.89-12.857-12.857 0 0 0 2.967-3.956 2.967 3.956 5.934 5.934 9.89 5.934 15.824 53.407 110.77 53.407 221.54 3.956 331.32-5.934 15.824-16.813 25.714-34.615 25.714-17.803 0-29.67-5.934-35.605-22.747-50.44-93.956-96.923-187.913-150.33-280.88-3.956-6.923-3.956-16.813-3.956-25.714 3.956-17.803 9.89-33.627 13.846-54.396-43.516 54.396-87.033 106.813-130.55 164.176-42.527-57.363-86.044-109.78-125.605-164.176 0 20.769 5.935 36.593 8.902 58.352 3.956 4.945 3.956 10.879 0 17.802-49.451 97.912-95.935 192.858-150.33 288.792-8.902 15.824-25.715 21.758-42.528 18.791-16.813-2.967-27.693-12.857-34.616-28.681-48.461-109.78-48.461-218.572 6.923-328.353 2.967-5.934 2.967-9.89 7.912-15.824 0 0-4.945-2.967-7.912-2.967-2.967 5.934-6.923 8.901-9.89 12.857-52.418 90-77.143 183.957-56.374 285.825zM437.2 171.154c15.824-43.516 39.56-64.286 72.198-64.286 32.638 1.978 60.33 8.902 62.308 60.33 22.748-49.45 18.791-73.187-19.78-92.967-24.725-14.835-67.253-15.824-94.945 4.945-28.682 22.747-37.583 64.286-19.78 91.978z" style="fill:#000;fill-opacity:1;fill-rule:nonzero;stroke:none;"/>
</svg>
