<svg xmlns="http://www.w3.org/2000/svg" viewBox="0 0 1000 1000"><path d="M5 500.496c0 271.98 220.55 494.507 495.496 494.507 271.98 0 494.507-220.55 494.507-495.496C995.003 227.528 773.464 5 500.496 5 226.54 5 5 225.55 5 500.496zm238.352-328.353c0-12.857 5.935-16.813 15.825-16.813h474.727c13.846 0 16.813 6.923 16.813 20.77v500.44c0 13.847-2.967 22.748-13.846 30.66-72.198 66.264-148.353 132.528-223.518 197.803-11.868 10.88-17.802 10.88-31.648 0-77.143-69.231-153.297-135.495-229.451-201.759-2.967-6.923-5.935-12.857-5.935-19.78-2.967-169.122-2.967-342.2-2.967-511.32zm33.627 487.584c0 13.847 0 20.77 8.901 30.66 66.264 59.34 135.495 118.682 203.737 179.011 5.934 5.935 11.868 5.935 18.791 0 66.264-63.296 135.495-123.626 202.748-182.967 5.934-5.934 9.89-12.857 9.89-19.78V208.737c0-15.824-5.934-20.77-21.758-20.77H295.77c-16.813 0-18.791 4.946-18.791 20.77v225.495zm45.495-408.462c0-12.858 5.934-15.825 16.813-15.825 35.604 2.967 69.23 2.967 102.857 0 12.858 0 16.814 6.923 16.814 15.825v163.187c25.714-16.813 49.45-28.682 72.198-46.484 3.956-2.967 6.923-9.89 6.923-15.824 2.967-32.637 2.967-66.264 0-100.88 0-8.9 2.967-15.824 17.802-15.824h101.868c12.858 0 16.814 2.967 16.814 15.825v389.671c0 5.934-3.956 11.868-9.89 15.824-49.451 46.484-99.89 89.012-152.309 136.484-10.879 9.89-16.813 9.89-27.692 0-52.418-43.516-102.858-90-152.308-133.517-3.956-6.923-6.923-12.857-6.923-18.79-2.967-129.562-2.967-259.123-2.967-389.672zm32.637 378.792c0 10.88 3.956 10.88 14.835 10.88h45.495c13.846 2.966 16.813-2.968 16.813-14.836V470.826c-27.692 16.813-50.44 29.67-73.187 46.483-3.956 3.956-3.956 6.923-3.956 12.858zm0-149.341c26.703-16.813 47.473-29.67 70.22-43.517 3.956-2.967 6.923-8.9 6.923-15.824v-140.44c0-8.901-2.967-11.868-12.857-11.868h-46.484c-13.846 0-17.802 2.967-17.802 16.813v148.352zm41.539 188.902c32.637 29.67 66.264 60.33 94.945 87.033 3.956 2.967 13.846 0 16.813-3.956 20.77-15.824 39.56-36.594 63.297-53.407 9.89-8.901 19.78-18.791 29.67-29.67zm62.308-39.561c0 2.967 6.923 10.88 8.9 10.88 21.759 2.966 40.55 0 61.32 0 1.978 0 8.9-7.913 8.9-10.88 2.968-32.637 0-70.22 0-108.792-25.714 15.825-48.461 29.67-72.197 45.495-2.967 3.956-6.923 7.912-6.923 13.846zm0-96.923c63.296-38.572 118.681-75.165 179.011-114.726 2.967 0 5.934-6.923 5.934-13.846V280.935c0-8.901-2.967-11.868-12.857-11.868h-46.484c-12.857 0-16.813 5.934-16.813 16.813v79.121c0 12.857-6.923 22.748-19.78 32.638-25.715 13.846-50.44 30.66-76.154 50.44-5.934 2.966-12.857 6.922-12.857 12.857zM567.749 626.1c0 14.835 3.956 14.835 13.846 14.835h42.528c16.813 2.967 19.78-2.967 19.78-17.802V470.826c0-3.956 0-9.89-2.967-15.825-22.747 15.825-46.483 28.682-66.264 42.528-2.967 2.967-6.923 8.901-6.923 16.813z"/></svg>