<svg xmlns="http://www.w3.org/2000/svg" viewBox="0 0 1000 1000"><path d="M7.423 542.199 5 520.389v-41.196l2.423-16.962H115.26v75.121H59.524zm9.693 70.275c0-4.847 13.329-4.847 55.736-4.847h54.524l7.27 13.328c2.423 15.752 30.29 69.064 42.407 92.085 58.159 84.815 142.973 145.397 244.751 165.994 12.116 3.635 41.196 3.635 61.794 4.847 72.698 2.423 123.587-7.27 184.169-36.35 44.83-23.02 73.91-44.83 107.836-82.39 39.984-41.196 73.91-95.72 86.026-141.762l4.847-15.752h117.529l-9.693 24.233c-10.905 47.254-35.138 94.508-61.794 140.55-72.698 110.26-187.804 186.593-313.815 212.037-159.936 32.714-323.507-18.175-438.613-126.01-50.889-50.89-87.238-101.778-116.317-161.148-8.482-25.445-26.657-76.334-26.657-84.815zm0-220.519v-9.693c7.27-19.386 23.022-66.64 37.561-96.93 29.08-54.525 72.699-117.53 121.164-153.879C257.021 57.543 352.741 19.983 463 6.654c18.174-1.211 60.582-1.211 86.026 0 147.82 18.175 279.889 98.143 363.492 220.519 24.233 41.195 50.889 98.142 64.217 145.396l7.27 19.386h-117.53l-4.846-14.54c-12.116-48.465-46.042-99.354-86.026-142.973-56.947-59.37-118.741-93.296-198.71-111.47-39.983-7.27-112.682-7.27-150.242-2.424-31.503 10.905-72.699 20.598-98.143 37.561-50.89 23.021-102.99 67.852-139.339 115.106-19.386 24.233-47.254 76.333-54.524 104.2l-7.27 14.54zM389.09 589.453c0-15.752 0-18.175 2.423-24.233 4.847-2.423 53.312-2.423 58.159 0 0 6.058 2.423 8.481 2.423 14.54 0 23.02 10.905 30.29 31.503 32.714 26.656 2.423 42.407-2.423 53.312-7.27 7.27-6.058 7.27-8.481 10.904-27.868 0-32.714-8.481-39.984-64.216-46.042-54.524-7.27-71.487-13.328-87.238-38.772-7.27-15.752-7.27-18.175-7.27-58.16 0-42.407 2.423-47.253 7.27-55.735 13.328-24.232 41.195-42.407 67.851-42.407h9.693v-20.598c0-13.328 0-25.444 2.424-29.08 4.846-1.21 43.619-1.21 47.254 0 0 3.636 2.423 15.752 2.423 29.08v20.598h8.481c18.175 0 37.561 8.482 47.254 24.233 13.328 12.116 23.022 29.08 25.445 58.159 0 24.232 0 24.232-33.926 24.232-29.08 0-33.926-3.635-33.926-20.598 0-9.693-2.423-14.54-8.481-21.809-4.847-6.058-7.27-6.058-25.445-8.482-42.407 0-53.312 4.847-53.312 42.408 0 30.29 4.847 33.926 58.159 39.984 44.83 2.423 63.005 13.328 79.968 25.444 16.963 18.175 19.386 31.503 19.386 77.545-2.423 35.138-2.423 37.561-10.905 52.1-12.116 23.022-26.656 33.927-61.793 38.773h-10.905v19.386c0 30.291-2.423 30.291-26.656 30.291-10.905 0-19.386 0-23.021-3.634 0-1.212-2.424-14.54-2.424-24.233l-1.211-21.81-18.175-3.635c-16.963-1.211-33.926-9.693-44.83-23.02-14.54-14.54-18.175-26.657-20.598-52.101zm493.137-47.254v-81.18h54.524c63.005 0 58.158-6.058 58.158 38.772 0 47.254 4.847 42.408-58.158 42.408z"/></svg>