<svg xmlns="http://www.w3.org/2000/svg" width="1000" height="1000">
  <path d="M500.496 5C223.572 5 5 229.506 5 500.002c0 276.43 224.506 495.001 495.002 495.001 276.43 0 495.001-224.506 495.001-495.001C995.003 226.539 773.464 5 500.496 5zM148.407 274.012c16.813 0 20.77-4.945 31.649-4.945h148.352c20.769 0 30.66 4.945 43.516 20.77 73.187 121.648 147.363 238.352 220.55 356.044 7.913 9.89 18.792 25.715 7.913 36.594-33.627 48.461-59.341 90-90.99 138.462-5.934 11.868-12.857 14.835-23.736 0C368.957 635.99 266.1 465.88 148.407 274.012zm423.298 0c15.824-4.945 28.682-4.945 32.638-4.945h211.649c11.868 0 16.813 4.945 27.692 4.945 0 9.89-4.945 21.758-10.879 26.703-35.605 64.286-79.121 138.462-122.638 196.814-48.461-75.165-89.011-148.352-138.462-223.517z" style="fill:#000;fill-opacity:1;fill-rule:nonzero;stroke:none;"/>
</svg>
