<svg xmlns="http://www.w3.org/2000/svg" width="1000" height="1000">
  <path d="M5 500.496c0-90 22.747-173.077 67.253-250.22 44.506-74.177 103.846-133.517 178.023-178.023C327.419 27.747 410.496 5 500.496 5c89.011 0 172.089 22.747 249.232 67.253 74.176 44.506 133.517 103.846 178.022 178.023 44.506 77.143 67.253 160.22 67.253 249.231 0 90-22.747 173.078-67.253 250.22-44.505 74.177-103.846 133.518-178.022 178.023-77.143 44.506-160.22 67.253-249.232 67.253-90 0-173.077-22.747-250.22-67.253-74.177-44.505-133.517-103.846-178.023-178.022C27.747 672.585 5 589.508 5 500.496zm255.166 278.902c0 13.846 3.956 21.758 16.813 21.758 27.692 0 59.34 4.946 59.34-12.857 0-18.791 4.946-160.22 4.946-201.759 0-105.824 96.923-188.901 196.814-171.1 71.209 9.891 138.462 72.199 143.407 144.397 3.956 62.308 3.956 129.56 3.956 191.869 0 49.45 0 49.45 50.44 49.45 18.79 0 26.703-7.912 26.703-26.703 0-67.253 0-129.56-3.956-200.77 0-44.505-10.88-78.132-27.692-108.791-81.1-147.364-225.496-165.166-389.672-71.21v-170.11c0-35.604-5.934-39.56-36.594-41.538-33.626 0-44.505 0-44.505 41.538v546.925z" style="fill:#000;fill-opacity:1;fill-rule:nonzero;stroke:none;"/>
</svg>
