<svg xmlns="http://www.w3.org/2000/svg" width="1000" height="1000">
  <path d="M121.716 111.749c55.08-1.312 86.554 23.605 141.633 56.39 70.817 44.589 144.256 85.243 216.385 129.831 59.013 30.163 115.405 66.883 177.041 98.357 66.883 45.9 76.063 157.37 0 204.581-52.457 32.786-417.031 246.547-458.997 270.153-47.21 23.605-95.733 23.605-139.01-3.934C29.916 847.455 5 822.538 5 787.13V216.662c0-60.325 44.588-95.733 116.716-104.913zm257.038 77.373c15.737-11.802 28.851-20.982 40.654-28.85 61.637-36.72 166.55-55.08 253.104-45.9C852.177 140.6 1017.416 333.379 992.5 537.96c-23.607 241.301-264.908 401.295-497.03 329.167-40.654-13.115-76.063-28.852-108.848-56.391 13.114-11.803 81.308-49.834 121.962-72.129 49.834-27.54 103.602-60.325 152.125-89.176 119.339-76.062 121.962-224.253 6.557-292.447-72.128-44.588-148.19-87.865-220.319-128.519-19.671-11.803-39.343-23.606-68.194-39.343z" style="fill:#000;fill-opacity:1;fill-rule:nonzero;stroke:none;"/>
</svg>
