<svg xmlns="http://www.w3.org/2000/svg" width="1000" height="1000">
  <path d="M5 500.496c0 271.98 220.55 494.507 495.496 494.507 271.98 0 494.507-220.55 494.507-495.496C995.003 227.528 773.464 5 500.496 5 226.54 5 5 225.55 5 500.496zm152.308 260.11c0-14.834 5.934-22.746 18.791-27.691 7.913-1.979 12.858-6.924 15.825-13.847 6.923-14.835 13.846-28.681 19.78-43.516 6.923-10.88 12.857-21.759 7.912-37.583-4.945-11.868.99-23.736 13.846-29.67 8.901-2.967 14.836-8.901 18.792-18.792 4.945-8.9 8.9-19.78 13.846-28.681 1.978-5.934 3.956-11.868 1.978-17.802-1.978-13.846 3.956-23.737 13.846-31.649 6.923-2.967 12.857-8.9 15.824-15.824 12.857-25.714 24.726-50.44 36.594-77.143 2.967-5.934 2.967-12.857 2.967-19.78 0-12.858 1.978-22.748 13.846-29.67 5.934-4.946 10.88-12.858 14.835-18.792 36.594-75.165 72.198-150.33 108.792-223.517 3.956-8.901 4.945-13.846.989-22.748-4.945-12.857-.99-26.703 9.89-32.637 8.901-6.923 22.747-6.923 29.67 0 12.858 5.934 16.814 19.78 11.869 32.637-3.957 8.902-2.967 13.847.989 22.748 36.593 74.176 72.198 149.34 108.791 225.495 1.978 4.945 8.901 11.868 13.846 14.835 11.869 7.912 18.792 18.791 14.836 33.627-.99 6.923 0 11.868 1.978 17.802 11.868 26.703 24.725 51.429 37.582 77.143 3.956 6.923 8.901 12.857 14.835 16.813 8.901 5.934 13.847 14.836 12.858 24.726-1.979 26.703 14.835 43.516 23.736 65.275 2.967 2.967 8.901 4.945 12.857 5.934 11.868 5.934 19.78 18.791 13.846 33.626-3.956 8.901-1.978 16.813 1.978 24.726 6.923 12.857 13.846 25.714 19.78 39.56 4.946 12.857 11.869 25.714 27.693 30.66 10.88 3.956 15.824 18.79 12.857 28.681-2.967 12.857-14.835 21.758-25.714 21.758-10.88.99-25.715-6.923-27.693-18.791-1.978-9.89-7.912-14.835-15.824-21.758-15.824-10.88-32.637-22.748-47.473-33.627-11.868-7.912-30.659-7.912-40.55.99C636.98 764.562 585.552 816.98 534.124 867.42c-1.978 3.956-3.956 10.88-5.934 15.825-4.945 11.868-16.814 19.78-28.682 19.78-10.879 0-20.77-9.89-24.725-22.747-1.978-4.945-4.945-9.89-8.901-14.836-49.451-48.461-99.89-99.89-149.341-148.352-11.869-11.868-29.67-12.857-43.517-3.956-13.846 9.89-26.704 19.78-39.56 29.67-10.88 6.924-21.759 13.847-24.726 28.682-2.967 12.857-17.802 17.802-28.681 15.824-13.847-2.967-22.748-13.846-22.748-26.703zm12.857-.988c0 8.901 5.934 13.846 13.847 14.835 6.923.99 15.824-6.923 15.824-14.835 0-8.901-5.934-13.846-14.835-14.835-8.902.989-13.847 4.945-14.836 14.835zm46.484-38.572c1.978.99 2.967 1.978 2.967 1.978 15.824-11.868 32.638-22.747 47.473-34.615 8.9-6.923 5.934-14.835-1.978-22.747-7.912-6.924-16.813-6.924-21.759 0-8.9 18.79-17.802 37.582-26.703 55.384zm13.846-88.022c0 8.901 6.923 13.846 15.824 13.846 7.913 0 14.836-5.934 13.847-14.835-.99-7.912-6.923-12.857-15.825-13.846-6.923 2.967-13.846 7.912-13.846 14.835zm42.528-30.66c-5.934 10.88-.99 35.605 6.923 44.506 6.923 8.901 15.824 3.956 22.747 6.923 10.88 1.978 19.78.99 22.748-7.912 3.956-8.9 6.923-19.78 2.967-27.692-9.89-18.791-22.748-36.594-33.627-53.407-3.956 1.978-4.945 1.978-4.945 3.956-5.934 9.89-11.868 20.77-16.813 33.627zm7.912-65.274c.989 9.89 7.912 13.846 15.824 12.857 8.901 0 12.857-4.945 12.857-13.846 0-7.912-6.923-14.836-13.846-14.836-8.9 0-14.835 7.913-14.835 15.825zm4.945 142.418c-.989 7.912 3.956 13.846 11.868 15.824 7.912 1.978 16.813-5.934 17.802-13.846 0-6.923-6.923-14.835-14.835-14.835-8.9 0-14.835 2.967-14.835 12.857zm28.681-162.199c22.748 0 39.561 0 58.352-.989 7.912 0 11.868-6.923 8.901-12.857-.989-8.9-2.967-16.813-4.945-23.736-4.945-17.802-10.879-33.627-15.824-51.429h-3.956c-13.846 27.692-27.692 57.363-42.528 89.011zm5.935 46.484c8.9 11.868 16.813 26.703 27.692 38.572 5.934 4.945 18.791 9.89 28.681 8.9 12.858-2.966 28.682-30.659 26.704-44.505-.99-1.978-2.967-6.923-4.945-7.912-13.847-8.901-26.704-25.714-42.528-17.802h-21.758c-13.846.989-18.792 10.879-13.846 22.747zm13.846 106.814c-10.88 8.9-9.89 19.78.989 32.637 40.55 39.56 81.099 80.11 120.66 119.67 1.978 2.968 5.934 4.946 9.89 7.913 0 0 .989 0 .989-.99-.99-1.977-.99-3.955-1.978-4.944-32.638-49.45-65.275-98.902-97.913-149.341-9.89-13.847-20.77-14.836-32.637-4.945zm8.9-32.638c0 8.901 4.946 12.857 13.847 12.857 9.89 0 14.835-3.956 13.846-13.846 0-9.89-4.945-13.846-13.846-13.846-9.89.989-13.846 4.945-13.846 14.835zm5.935-245.275c1.978 9.89 6.923 14.835 12.857 14.835 10.88 0 17.802-7.912 16.813-15.824 0-7.913-5.934-14.836-13.846-14.836s-15.824 7.912-15.824 15.825zm32.637-21.759h73.188c14.835.99 24.725-1.978 31.648-15.824-2.967-3.956-5.934-9.89-10.88-16.813-3.955 6.923-8.9 11.868-12.856 15.824-.99-1.978-2.967-1.978-4.945-1.978 6.923-10.88 13.846-19.78 18.79-30.66-.988 0-.988-1.977-1.977-1.977-7.912 7.912-16.813 15.824-25.715 22.747 0-.99-.989-1.978-1.978-3.956 6.924-14.835 20.77-23.737 34.616-32.638 0-.989-.99-1.978-.99-2.967-14.834 7.912-28.68 15.825-44.505 23.737 9.89-18.792 25.715-26.704 43.517-32.638-18.791-3.956-33.627 6.923-50.44 13.846 7.912-17.802 26.704-18.79 41.539-26.703v-1.978h-36.594v-4.945c16.813-12.857 33.627-3.956 51.429.989 0-.99.989-1.978.989-2.967-11.868-5.934-25.714-11.868-40.55-17.802 15.825-6.924 26.704 2.967 42.528 5.934-8.901-7.912-13.846-13.847-18.791-19.78.989-1.979.989-2.968 1.978-3.957 3.956 3.956 9.89 5.934 14.835 8.901 0-3.956-.989-6.923-.989-9.89 9.89 10.88 19.78 0 29.67 0v6.923c4.945-.989 9.89-3.956 14.836-4.945 1.978.99 1.978 2.967 2.967 3.956-7.912 5.934-13.847 12.858-18.792 18.792 12.858-3.956 23.737-11.869 37.583-7.912.989.989.989 1.978.989 2.967-10.88 4.945-22.747 9.89-33.627 14.835 40.55-2.967 40.55-2.967 50.44 8.9h-39.56c37.582 18.792 37.582 18.792 43.516 31.65-17.802-10.88-32.637-19.78-51.429-16.814 16.814 6.923 34.616 13.846 43.517 33.627-14.835-9.89-28.681-22.748-51.429-21.759 19.78 7.912 33.627 16.814 40.55 34.616-.99.989-1.978.989-2.967 1.978-7.912-5.934-14.835-12.857-22.747-18.791l-.99.989c4.946 8.9 8.902 17.802 13.847 27.692-.99 0-2.967 0-3.956 1.978-3.956-3.956-7.912-8.901-13.846-15.824-3.957 7.912-5.935 12.857-9.89 18.791 5.933 4.945 13.846 12.857 19.78 13.846 27.692.99 55.384 0 85.055 0-39.56-82.088-77.143-162.198-115.715-242.308h-3.956c-38.571 80.11-77.143 160.22-117.693 242.308zm4.946 292.748c18.79 28.682 37.582 58.352 57.362 87.034 7.912 10.879 13.847 19.78 21.759 30.66l.989-.99c-13.847-47.472-28.682-93.956-41.539-140.44-7.912-27.692-10.88-28.681-31.648-9.89-11.869 7.912-13.847 21.758-6.923 33.626zm1.978-227.473c4.945 15.824 10.879 37.583 16.813 58.352 1.978 2.967 3.956 4.945 4.945 7.912 17.802 15.824 38.571 16.813 59.34 13.846-28.68-26.703-55.384-54.395-81.098-80.11zm.989 92.968c0 7.912 6.923 15.824 13.846 15.824 7.912 0 14.835-7.912 14.835-15.824 0-6.924-3.956-12.858-12.857-14.836-7.912-.989-15.824 6.923-15.824 14.836zm1.978-131.54c31.648 33.627 64.286 66.265 96.923 97.913.989-.989 1.978-.989 4.945-1.978 0-21.758 0-43.517-1.978-65.275 0-24.725-10.88-35.604-35.604-35.604h-50.44c-2.967 0-7.912.989-10.88.989-.988.989-2.966 1.978-2.966 3.956zm18.79 191.87c.99 9.89 5.935 14.835 14.836 15.824 7.912 0 13.846-5.934 13.846-15.825 0-5.934-3.956-12.857-11.868-13.846-8.901-.989-16.813 7.912-16.813 13.846zm13.847-39.561c-.989 1.978 2.967 9.89 4.945 11.868 4.945 1.978 11.868 1.978 14.835 0 8.901-4.945 16.814-11.868 23.737-15.824 0-.99 0-2.967-.99-4.945-9.89 0-19.78 0-29.67.989-3.956 0-9.89 4.945-12.857 7.912zm21.758 74.176c6.923 24.725 13.847 47.473 20.77 71.209 7.912 26.703 14.835 51.429 24.725 81.1V560.825c-.989 0-1.978-.989-2.967-.989-12.857 11.868-35.605 14.835-36.594 39.56 0 2.968-2.967 4.946-3.956 7.913-5.934 4.945-4.945 10.879-1.978 16.813zm40.55 251.21c0 8.9 6.923 12.857 15.824 12.857 7.912 0 12.857-3.956 12.857-12.857 0-7.913-3.956-13.847-12.857-13.847-8.9-.989-15.824 5.934-15.824 13.847zm0-346.155c0 7.912 6.923 13.846 13.846 15.824 7.912 0 16.813-7.912 14.835-15.824-.989-7.913-4.945-12.858-11.868-14.836-8.9-.989-16.813 6.923-16.813 14.836zm0-148.353c0 9.89 6.923 13.847 12.857 13.847 10.88 0 15.824-4.945 15.824-13.847 0-6.923-5.934-11.868-14.835-11.868-6.923 0-13.846 4.945-13.846 11.868zm0-286.814c0 6.923 7.912 14.835 15.824 14.835 6.923 0 14.835-8.9 12.857-16.813-.989-7.912-5.934-12.857-14.835-12.857-6.923.99-13.846 4.945-13.846 14.835zm24.725 673.519h2.967c0-2.967.99-2.967.99-5.934 12.857-38.572 22.747-76.154 35.604-114.726 3.956-15.824 8.901-30.66.989-51.428-9.89-18.792-23.736-24.726-40.55-36.594zm0-274.946c17.803-8.901 93.957-88.022 97.913-99.89-25.715 0-52.418-.99-76.154.989-7.912 0-19.78 11.868-19.78 18.79-2.968 25.715-1.979 53.408-1.979 80.111zm18.792 24.725c11.868 0 23.736 1.978 34.615-.989 10.88-3.956 25.714-10.879 29.67-20.769 9.89-18.791 14.836-40.55 19.78-62.308-27.692 28.682-56.373 56.374-84.065 84.066zm3.956 317.474c2.967-1.978 3.956-2.967 4.945-4.945 44.505-42.528 86.044-85.055 130.55-129.561 8.9-9.89 8.9-20.77 0-29.67-12.858-9.89-23.737-8.902-33.627 3.956-33.626 52.417-68.242 104.835-101.868 157.253zm0-54.396c3.956-1.978 6.923-1.978 6.923-3.956 25.714-36.593 50.44-76.154 74.176-112.748 2.967-4.945 2.967-13.846 2.967-18.79 0-12.858-9.89-17.803-18.791-22.748-10.88-7.912-14.836-5.934-18.792 5.934-7.912 26.703-14.835 51.429-23.736 76.154-5.934 23.736-13.846 49.45-22.747 76.154zm0-234.396c8.9 4.945 17.802 12.857 26.703 17.802 1.978 1.978 9.89 0 12.857-2.967 1.978-1.978 2.967-8.901 1.978-11.868-.989-2.967-4.945-6.923-8.9-6.923-10.88-.99-19.781 0-30.66 0 0 .989-1.978 2.967-1.978 3.956zm28.681 42.527c-.989 9.89 3.956 15.825 11.868 16.814 9.89 1.978 16.813-5.934 16.813-14.836 0-8.9-4.945-13.846-14.835-15.824-6.923.99-13.846 4.945-13.846 13.846zm21.758-59.34c-.989 7.912 5.934 15.824 13.847 15.824 9.89-1.978 13.846-6.923 14.835-14.835.989-7.913-5.934-15.825-15.824-16.814-6.924.99-12.858 5.934-12.858 15.825zm15.825 34.615c-1.978 4.945 2.967 12.857 3.956 21.758.989.99.989 1.978.989 3.956 1.978 13.847 12.857 18.792 22.747 21.759 5.934 1.978 19.78-2.967 24.725-7.912 11.869-13.847 20.77-28.682 28.682-42.528 4.945-8.901-.99-17.802-9.89-18.791-5.934-.99-13.847 0-19.78 0v-.99c-8.902 0-18.792-.988-24.726 1.979-9.89 3.956-19.78 10.879-26.703 20.77zm18.79-60.33c-3.955 7.912 3.957 12.857 12.858 13.846h32.638c6.923 0 13.846-.989 23.736-.989-16.813-31.648-30.66-61.319-45.495-92.967-8.9 27.692-15.824 53.407-23.736 80.11zm4.946-109.78c0 8.9 7.912 14.835 14.835 13.846 8.901-1.978 12.857-7.912 12.857-15.824 0-7.913-5.934-14.836-14.835-14.836-7.912 0-13.846 8.901-12.857 16.814zm5.934 243.297c0 8.901 5.934 13.846 15.824 13.846 6.923 0 13.846-4.945 13.846-13.846.99-8.901-6.923-12.857-13.846-13.846-9.89 0-13.846 4.945-15.824 13.846zm41.539-17.802c-4.945 10.879 1.978 27.692 11.868 31.648 7.912 5.934 34.615 3.956 39.56-3.956 5.934-10.879 12.858-23.736 9.89-34.615-2.967-16.813-13.846-31.649-20.769-47.473h-3.956c-12.857 18.791-24.725 35.605-36.593 54.396zm16.813 62.308c.989 6.923 6.923 13.846 14.835 12.857 7.912 0 13.846-4.945 14.835-13.846-.989-9.89-5.934-13.846-13.846-13.846-9.89 0-15.824 4.945-15.824 14.835zm2.967-144.396c.989 9.89 6.923 13.846 16.813 12.857 6.923 0 13.846-4.945 11.868-13.846 0-7.912-6.923-14.836-12.857-14.836-8.901.99-16.813 8.902-15.824 15.825zm42.528 150.33c16.813 11.868 32.637 23.736 47.472 35.604 1.978-.989 2.967-1.978 3.956-3.956-8.9-16.813-15.824-35.604-25.714-52.417-4.945-7.913-12.857-7.913-20.77-1.978-8.9 4.945-10.879 16.813-4.944 22.747zm8.9-54.396c0 8.901 5.935 13.846 13.847 13.846 9.89 0 13.846-3.956 16.813-15.824-3.956-3.956-8.901-8.901-15.824-11.868-6.923-2.967-14.835 6.923-14.835 13.846zm61.32 125.605c-.99 8.901 4.945 15.824 13.846 15.824 8.9 0 14.835-5.934 14.835-14.835-.989-7.912-3.956-13.846-13.846-14.835-8.901 0-13.846 4.945-14.835 13.846z" style="fill:#000;fill-opacity:1;fill-rule:nonzero;stroke:none;"/>
</svg>
