<svg id="Layer_1" data-name="Layer 1" xmlns="http://www.w3.org/2000/svg" viewBox="0 0 1000 1000"><path d="M987.28,545.24V495.52H1000s-.43-61-.41-92.08c0-15.62.06-31.23,0-46.84-.05-10.64-6.57-18.45-16.92-20.23-316-.69-632.15,0-948.2-.23a20.22,20.22,0,0,0-22.29,20.78c.24,46.34.07,92.43.09,138.8H0v49.54H12.25c0,32.82.11,65.37-.05,98.16a19.8,19.8,0,0,0,8.32,16.86c4.19,3.18,9.12,3.68,14.23,3.68q471.79-.06,943.6,0c13.21-.16,21.19-8,21.22-21.31-.35-32.61-.73-97.38-.73-97.38Zm-25.45-49.86-11.56.13v49.74l11.37,0V626h-912V545.22H37V495.78H49.16V373.62H961.83Z"/><path d="M297.79,545.36l.39,39.77H347V544.94H335.05V496.46c3.62-1.61,5.3.07,6.58,2.86,7.08,15.41,14.17,30.59,21.53,45.92H375.3l18.79,40.27c5.84,0,11.6,0,17.35,0,2.73,0,4.11-1.49,5.14-3.8,5.6-12.07,10.63-23,16.17-35.51h-12a8.39,8.39,0,0,1,.18-2.22q6.93-15.19,13.92-30.36c2.25-4.89,4.57-9.74,6.83-14.62,1.36-2.91,3.26-4.15,7.05-1.86v48h13.43v39.93h48.45V545.33l-12.16-.8V496.12l12.1-.64V414.79H441.58q-18.22,41-36.45,81.95l-1.54,0c-12.74-27.13-24-54.93-36.69-81.8H297.66v81H285.27l.22,48.94Zm162.86-60.55.84.17V495.6l-6.44.58C457.26,491.71,459,488.26,460.65,484.81ZM347.13,486l.88-.41c1.55,3.11,3.1,6.22,5.09,10.23h-6Z"/><path d="M98.22,545.24v39.87h49.35V545.2c13.39,0,25.9-.09,38.41,0a19.81,19.81,0,0,1,17,9.24c6.2,9.5,11.09,20.61,15.7,30.73h62c-6.32-13.82-12.37-27-18.44-40.29H250.38c-4-4.76-7.1-9.28-11.06-12.77s-8.76-5.83-13.43-8.84c14.23-4.93,25.22-14.06,32.19-27.75h12.21a12.48,12.48,0,0,0,.87-1.34c3.86-9.17,3.89-18.63,2.41-28.29-2.48-16.09-9.23-29.5-23.15-38.79-13.46-9-28.66-12.19-44.35-12.39-36.08,0-72.21-1.05-108.25.42v80.27l-12.59.09s.44,33.15.44,49.72Zm49.47-84a23.19,23.19,0,0,1,3.73-.59c15.38,0,30.77,0,46.16.19,10.29.15,18.63,8.75,18.22,18.37-.38,8.65-8.59,16.16-18.45,16.43-16.84.3-32.52,0-49.66.08Z"/><path d="M538,585.15h48.47V545.73a16.17,16.17,0,0,1,2.84-.64c12.52,0,25,0,37.57.18,18.22.32,23.76,27.28,31.71,40h61.57c-6.27-13.8-12.27-27-18.31-40.33H689.06c-5.62-9.78-12.91-17.36-23.79-21a10.17,10.17,0,0,1,1.27-.83c12.64-4.86,22.61-12.84,29.46-24.68,3.23-4,9.27-2.42,14-2.65,5.62-12.4,4.54-24.45,1.81-36.3-3.93-17.1-13.8-29.72-30.08-37.07a88.83,88.83,0,0,0-36.38-7.73c-35.94.15-71.86-.87-107.77.4V495.7H525.17v49.62H538Zm48.56-124.06c16.71-1.11,33.45,0,50.19-.3,6.92,0,12.21,3.16,16.09,8.66,7.43,10.17-1.25,24.72-13.67,25.93-17.31.3-34.64.15-52.61.15Z"/><path d="M746.26,544.93H733.42V585.2h50.69V545a59.47,59.47,0,0,1,7.65.06c4.5.63,7.74-1.32,10.73-4.32,6.25-6.26,12.25-11.89,19.1-17.72,5.69,7.44,11.9,13.62,16.93,21.63l-11.86.61c9.56,13.15,20.41,25,30.38,37.84,1.86,2.32,4.12,2.4,6.69,2.4,20.68,0,40.69,0,61.46,0L891.7,545h13.63l-41-49.21c-7.6-.54-15.94,2.48-19.26-8.19L923,414.72h-71.6l-66.31,64.53-1.2-.52V415.05H733.27v80.79h13Z"/></svg>