<?xml version="1.0" encoding="UTF-8"?><svg id="a" xmlns="http://www.w3.org/2000/svg" viewBox="0 0 1000 1000"><path d="M500,0C223.859,0,0,223.859,0,500s223.859,500,500,500,500-223.859,500-500S776.141,0,500,0Zm131.91,911.774c-1.791-.555-36.268-11.834-18.287-52.7,18.456-41.945,48.656-127.512,48.656-127.512,0,0-5.033-26.845,36.912-28.522,41.945-1.678,84.309-2.937,91.439-5.873,7.131-2.936,15.52-11.744,15.1-26.006-.419-14.261-5.872-42.364-3.775-46.559,2.097-4.195,15.52-14.261,15.52-14.261,0,0-4.614-13.842-15.52-13.003,0,0,21.811-22.65,18.036-33.975,0,0-15.939-4.614-14.261-23.07,0,0,39.848-20.972,39.848-31.878,0-15.389-74.662-35.234-81.792-70.048-7.131-34.814,13.422-42.783-7.131-85.567-20.553-42.784-39.848-63.337-39.848-63.337,0,0,6.082-12.164,1.049-20.343s-24.538-32.717-47.817-38.379c-23.28-5.663-33.346-10.067-75.501-14.471-42.155-4.404-95.634-15.1-117.655-16.988-22.021-1.887-75.5,11.325-85.567,20.763s-49.705,44.671-65.434,49.075c-15.729,4.404-35.863,17.617-38.379,25.796-2.517,8.179-6.921,22.021-18.875,27.054-11.954,5.033-50.333,35.233-57.883,46.559-7.55,11.325-5.663,16.358-14.471,20.134-8.809,3.775-37.121,14.471-39.638,29.571-2.517,15.1,5.663,37.121,8.179,47.188,2.517,10.066,8.179,27.054,1.258,39.637-6.921,12.583-15.729,43.413-5.033,57.255,10.696,13.842,38.38,30.83,49.075,31.458,10.696,.629,0,30.2,7.55,39.638,7.55,9.438,37.121,44.671,45.93,49.705,8.808,5.033,6.921,32.088,11.325,39.009,4.404,6.921,87.455,60.401,93.117,53.48,3.562-4.353,11.097-7.954,16.205-10.031,3.629-9.817,8.314-22.088,13.829-35.62-2.813-2.49-31.266-28.441-37.48-65.002-6.538-38.469,14.082-74.059,14.082-74.059,0,0,31.221,26.779,37.759,65.247,3.079,18.116,.122,35.541-3.856,48.964,9.662-21.997,20.843-45.07,32.652-64.865-9.441-9.962-26.86-31.515-31.562-59.177-6.538-38.468,14.082-74.059,14.082-74.059,0,0,31.221,26.779,37.759,65.248,2.418,14.226,1.113,28.047-1.482,39.831l34.627-48.792c-3.334-5.39-21.687-36.924-17.762-72.226,4.311-38.781,33.938-67.314,33.938-67.314,0,0,22.636,34.344,18.324,73.125-1.197,10.765-4.373,20.696-8.296,29.491l14.796-20.849c2.445-15.023,10.204-48.139,33.295-74.362,30.865-35.052,77.429-44.497,77.429-44.497,0,0-3.477,47.385-34.341,82.437-24.373,27.679-58.446,39.356-71.739,43.058l-22.584,31.822c11.464-8.544,26.46-17.258,44.079-21.731,41.463-10.526,81.545,6.425,81.545,6.425,0,0-27.142,34.017-68.605,44.544-31.336,7.956-61.854,.223-74.906-4.032l-40.338,56.839c-.428,.604-.854,1.246-1.281,1.862,12.014-10.386,30.317-23.095,52.928-28.835,41.462-10.526,81.544,6.425,81.544,6.425,0,0-27.142,34.018-68.605,44.544-32.499,8.251-64.057-.358-76.223-4.475-.248,.454-.425,.771-.425,.771,0,0-.252-.222-.611-.546-13.324,22.584-25.822,49.346-36.159,73.747,11.873-10.74,31.231-25.008,55.597-31.194,41.463-10.526,81.545,6.425,81.545,6.425,0,0-27.142,34.017-68.605,44.543-31.455,7.986-62.073,.168-75.041-4.077-12.643,31.249-20.743,55.401-20.913,55.911l-.338-.113c-7.536,28.362-21.482,72.276-41.257,99.486l-7.48,8.488c-150.79-64.463-256.503-214.054-256.503-388.417,0-233.25,189.087-422.337,422.337-422.337s422.337,189.087,422.337,422.337c0,187.169-121.8,345.797-290.427,401.211Z" fill-rule="evenodd"/></svg>