<svg xmlns="http://www.w3.org/2000/svg" width="1000" height="1000">
  <path d="M500.496 5C223.572 5 5 229.506 5 500.002c0 276.43 224.506 495.001 495.002 495.001 276.43 0 495.001-224.506 495.001-495.001C995.003 226.539 773.464 5 500.496 5zm-370.88 473.738c4.945-66.264 60.33-109.78 129.56-103.847 35.605 3.956 64.287 17.803 86.045 41.539 23.736 25.714 60.33 21.758 82.088 7.912 22.747-18.791 30.66-54.396 12.857-78.132-3.956-7.912-12.857-16.813-16.813-22.747-50.44-53.407-50.44-126.594 3.956-177.034 36.594-32.637 83.077-40.55 131.539-17.802 41.539 17.802 64.286 52.418 70.22 95.934 3.956 41.539-9.89 76.154-40.55 102.858-23.736 20.769-25.714 51.428-14.835 74.176 22.748 40.55 71.21 45.494 104.836 10.879 90-95.935 183.956-37.583 207.693 49.45 24.725 90.99-36.594 194.836-162.199 141.43-18.79-6.923-34.615-23.737-53.406-37.583-18.792-14.835-47.473-18.791-70.22-7.912-26.704 17.802-37.583 45.495-26.704 72.198 8.901 17.802 22.748 27.692 32.638 48.462 41.538 47.472 34.615 118.681-13.847 160.22-104.835 83.077-240.33-14.835-190.88-135.495 7.913-14.835 17.803-32.637 34.616-45.495 21.759-23.736 21.759-61.318 0-84.066-22.747-26.703-57.363-26.703-87.033-3.956-3.956 3.956-11.868 9.89-17.802 17.802-87.034 74.176-201.76 2.967-201.76-108.791zm52.418 14.835c0 41.539 32.637 72.198 71.209 72.198 37.582 0 70.22-32.637 70.22-72.198 0-36.593-32.638-65.275-70.22-65.275-38.572 0-71.21 32.638-71.21 65.275zm21.758 3.956c0-28.681 22.747-46.484 49.45-46.484 24.726 0 47.473 17.803 47.473 42.528 0 27.692-22.747 49.45-47.472 49.45-26.704 0-49.451-17.802-49.451-45.494zm236.374-260.11c0 36.593 29.67 70.22 66.264 70.22 36.594 0 72.198-33.627 72.198-70.22 0-36.594-31.648-72.199-68.242-72.199-40.55 0-70.22 31.649-70.22 72.198zm1.978 511.32c0 36.593 35.605 72.198 72.198 72.198 32.638 0 70.22-31.649 68.242-68.242 0-40.55-31.648-72.198-68.242-72.198-40.55 0-72.198 31.648-72.198 68.242zm15.825-515.277c0-22.747 25.714-46.483 48.461-46.483 29.67 0 48.462 23.736 48.462 50.44 0 28.68-18.791 48.461-48.462 48.461-24.725 0-48.461-22.747-48.461-52.418zm5.934 515.277c0-26.704 23.736-45.495 50.44-45.495 26.703 0 44.505 18.791 44.505 45.495 3.956 26.703-17.802 48.461-44.506 48.461-30.66 0-50.44-17.802-50.44-48.461zM697.31 491.595c0 37.583 30.66 70.22 71.21 70.22 37.582 0 70.22-32.637 70.22-70.22 0-34.615-32.638-67.253-70.221-71.209-38.572 0-67.253 30.66-71.209 71.209zm22.747 0c0-26.703 21.759-49.45 48.462-49.45 25.714 0 47.473 22.747 47.473 49.45 0 24.725-17.803 43.517-47.473 43.517-26.703 3.956-48.462-20.77-48.462-43.517z" style="fill:#000;fill-opacity:1;fill-rule:nonzero;stroke:none;"/>
</svg>
