<?xml version="1.0" encoding="utf-8"?>
<!-- Generator: Adobe Illustrator 26.0.1, SVG Export Plug-In . SVG Version: 6.00 Build 0)  -->
<svg version="1.1" xmlns="http://www.w3.org/2000/svg" xmlns:xlink="http://www.w3.org/1999/xlink" x="0px" y="0px"
	 viewBox="0 0 1000 1000" style="enable-background:new 0 0 1000 1000;" xml:space="preserve">
<g id="Layer_1">
</g>
<g id="Layer_3">
</g>
<g id="Layer_2">
	<g>
		<circle cx="500" cy="500" r="230"/>
		<path d="M960.7,305.4c-25.2-59.5-61.2-113-107.1-158.9c-45.9-45.9-99.4-82-158.9-107.1C633,13.2,567.5,0,500,0v35.6
			c124,0,240.7,48.3,328.4,136c87.7,87.7,136,204.3,136,328.4c0,124-48.3,240.7-136,328.4S624,964.4,500,964.4
			s-240.7-48.3-328.4-136S35.6,624,35.6,500c0-53.2,8.9-105.4,26.5-155c15.1-42.6,36.2-82.5,62.9-119c13.6,8.2,29.5,13,46.6,13
			c49.7,0,90.2-40.5,90.2-90.2c0-49.8-40.5-90.2-90.2-90.2c-49.8,0-90.2,40.5-90.2,90.2c0,19.8,6.4,38.1,17.3,53
			C68.8,241.9,45.2,286,28.5,333.1C9.6,386.6,0,442.7,0,500c0,67.5,13.2,133,39.3,194.6c25.2,59.5,61.2,113,107.1,158.9
			c45.9,45.9,99.4,82,158.9,107.1C367,986.8,432.5,1000,500,1000s133-13.2,194.6-39.3c59.5-25.2,113-61.2,158.9-107.1
			c45.9-45.9,82-99.4,107.1-158.9C986.8,633,1000,567.5,1000,500S986.8,367,960.7,305.4z M171.6,94.1c30.1,0,54.6,24.5,54.6,54.6
			s-24.5,54.6-54.6,54.6S117,178.9,117,148.7S141.5,94.1,171.6,94.1z"/>
	</g>
</g>
</svg>
