<svg xmlns="http://www.w3.org/2000/svg" viewBox="0 0 1000 1000"><path d="M130.5,540V468a3.674,3.674,0,0,0,1-3c10-86,44-159,104-220,68-67,150-104,246-109,16,0,16,0,16,16V296c0,8,2,11,11,12,53,3,96,24,132,62,41,44,58,96,51,155-5,49-25,90-62,123-33,32-75,48-120,52-11,1-12,6-12,13V872h-13c-14-2-28-3-42-5-147-27-245-111-295-250C139.5,592,135.5,566,130.5,540Zm365-36V320c0-5,0-14-9-11-22,5-45,8-66,16-78,32-127,115-117,204,11,89,89,165,177,169,15,0,15,0,15-14Zm279,304c-20,62-93,83-139,41-31-27-38-75-16-110,23-37,69-50,109-32C765.5,725,786.5,768,774.5,808Zm3-586c0,48-37,85-84,85-47,1-85-37-85-84a85.582,85.582,0,0,1,84-86C739.5,136,777.5,175,777.5,222Zm-27-152c-77-44-161-67-250-67-90,0-174,23-251,67-75,45-134,105-179,179-45,78-68,161-68,250,0,91,23,174,68,252,45,74,104,134,179,179,77,44,161,67,251,67,89,0,173-23,250-67,75-45,135-105,179-179,45-78,68-161,68-251s-23-173-68-251C885.5,175,825.5,115,750.5,70Z"/></svg>