<svg xmlns="http://www.w3.org/2000/svg" viewBox="0 0 1000 1000"><path d="M206.948 5c36.176 8.441 72.351 19.294 106.115 28.94 2.412 1.206 6.03 7.236 7.235 12.059 1.206 7.235 0 15.676 0 24.117v804.303a1473.315 1473.315 0 0 0 48.234-7.235c94.057-21.706 172.437-66.322 226.7-147.114 44.617-65.116 65.116-138.673 74.763-215.848 2.412-15.676 3.618-31.352 7.235-48.234-36.175-10.852-71.145-20.5-106.115-30.146-42.205-10.853-84.41-21.705-125.408-33.764-4.824-2.411-13.265-8.44-13.265-12.058-1.206-36.176 0-69.94 0-108.527 22.911 6.03 42.205 12.059 63.91 16.882l278.552 75.969c12.059 3.617 16.882 6.029 18.088 20.5 1.206 107.32-15.676 212.229-56.675 311.109-59.087 137.467-161.584 227.906-305.08 270.11-72.352 22.912-147.114 28.94-224.289 28.94zm225.494 173.643c-1.206-34.97 0-68.734 0-108.527 92.85 24.117 182.084 49.44 272.523 73.557-10.853 37.381-20.5 72.351-31.352 109.732-45.823-13.264-89.233-24.117-133.85-36.175-31.352-8.441-61.498-16.882-94.056-26.529-4.824-1.206-13.265-7.235-13.265-12.058z"/></svg>