<svg xmlns="http://www.w3.org/2000/svg" viewBox="0 0 1000 1000"><path d="M5 500.496C5 225.55 226.54 5 500.496 5c272.968 0 494.507 222.528 494.507 494.507 0 274.946-222.528 495.496-494.507 495.496C225.55 995.003 5 772.475 5 500.496zm238.352 223.517c-8.9 67.253 105.825 75.165 135.495 11.869l21.759-77.144H646.87l22.748 77.144c7.912 38.571 34.615 46.483 67.253 46.483 37.582 0 63.297-34.615 44.505-90.99l-67.253-180.989h45.495c33.626 0 35.604-21.758 35.604-31.648 0-12.857-9.89-22.748-35.604-22.748h-55.385l-12.857-35.604h68.242c48.462 0 44.506-54.396 0-54.396h-90l-55.385-136.484c-21.758-46.483-49.45-67.253-90-67.253-42.528 0-65.275 13.846-90.99 67.253L378.847 365.99h-90c-22.747 0-36.593 9.89-36.593 32.638 0 12.857 13.846 21.758 36.593 21.758H356.1l-12.857 35.604h-69.231c-11.868 0-18.791 9.89-21.758 22.748-1.978 12.857 0 31.648 21.758 31.648h46.484l-68.242 180.99c-3.956 10.88-8.902 22.747-8.902 32.637zM446.1 533.133l78.133-248.242 78.132 248.243z"/></svg>