<svg xmlns="http://www.w3.org/2000/svg" viewBox="0 0 1000 1000"><path d="M305.408 270.822C187.722 317.277 84.489 379.217 5 498.967c65.037 104.265 186.852 186.852 300.408 230.21-72.263-59.876-121.815-136.268-121.815-230.21 0-91.877 49.552-169.302 121.815-228.145zm-19.615 234.34c0-7.227 7.227-13.421 15.485-13.421h376.8c7.227 0 15.485 6.194 15.485 13.42 0 9.291-9.29 15.485-15.485 15.485h-376.8c-8.258 0-15.485-6.194-15.485-15.485zm60.908 70.197c0-8.258 8.259-15.485 15.485-15.485H617.17c7.226 0 15.485 7.227 15.485 15.485 0 8.26-8.259 15.485-15.485 15.485H362.186c-7.226 0-15.485-7.226-15.485-15.485zm2.065-141.429c0-8.258 8.258-15.485 15.484-15.485h265.31c7.226 0 15.485 7.227 15.485 15.485 0 8.259-8.259 13.42-15.485 13.42H364.25c-7.226 0-15.484-5.161-15.484-13.42zm53.68 212.66c0-9.29 8.26-15.485 15.486-15.485h149.687c9.291 0 15.485 6.194 15.485 15.485 0 8.259-6.194 13.42-15.485 13.42H417.932c-7.227 0-15.485-5.161-15.485-13.42zm12.389-282.858c0-7.226 8.258-15.485 15.485-15.485h149.687c9.291 0 15.485 8.259 15.485 15.485 0 8.259-6.194 16.517-15.485 16.517H430.32c-7.227 0-15.485-8.258-15.485-16.517zm280.793 365.444c105.298-39.228 227.112-116.653 299.375-230.209-85.683-118.718-190.98-185.82-299.375-228.145 71.23 58.843 122.847 136.268 122.847 228.145 0 93.942-51.616 170.334-122.847 230.21z"/></svg>