<?xml version="1.0" encoding="utf-8"?>
<!-- Generator: Adobe Illustrator 26.0.1, SVG Export Plug-In . SVG Version: 6.00 Build 0)  -->
<svg version="1.1" id="Layer_1" xmlns="http://www.w3.org/2000/svg" xmlns:xlink="http://www.w3.org/1999/xlink" x="0px" y="0px"
	 viewBox="0 0 1000 1000" style="enable-background:new 0 0 1000 1000;" xml:space="preserve">
<path d="M299.8,475.1h-35.4v-65.8h35.4c4.2,0,8.2,0.8,12.1,2.5c3.9,1.6,7,4.1,9.5,7.4c2.5,3.3,4.1,6.9,5.1,11
	c0.9,4.1,1.4,8.1,1.4,12.1c0,4.2-0.5,8.3-1.4,12.3c-0.9,4-2.6,7.6-5.1,11c-2.5,3.4-5.6,5.8-9.5,7.4C308,474.3,304,475.1,299.8,475.1
	z M328.1,523.7c-3.7-3.5-8.1-6-13.1-7.4c-5-1.4-10.1-2.1-15.2-2.1h-35.4v74.6h35.4c5.1,0,10.2-0.7,15.2-2.1c5-1.4,9.4-3.9,13.1-7.5
	c3.7-3.6,6.4-7.9,8.1-12.8c1.6-4.9,2.5-9.9,2.5-15.1c0-5.1-0.8-10.2-2.5-15.1C334.5,531.4,331.8,527.2,328.1,523.7z M995.3,500
	c0,273.4-221.6,495-495,495S5.3,773.4,5.3,500S226.9,5,500.3,5S995.3,226.6,995.3,500z M586.2,142.6
	c46.4,42.4,78.8,101.7,96.7,144.7h113.9L650.7,142.6H586.2z M739.1,559.1c0,6.3-1.8,12.2-5.3,17.7c-3.5,5.5-8.2,9.3-14.2,11.6
	c-6,2.2-12.1,3.3-18.4,3.3c-5.8,0-11.6-0.9-17.3-2.8c-5.7-1.9-10.4-5.2-14-10.2c-3.6-4.9-5.5-10.4-5.8-16.5h-43.1
	c0,10,2.1,19.7,6.3,28.9c4.2,9.2,10.3,16.9,18.2,23.1c7.9,6.2,16.7,10.4,26.4,12.8c9.7,2.3,19.4,3.5,29.2,3.5
	c10.3,0,20.4-1.3,30.3-3.9c9.9-2.6,18.8-7.2,26.8-14c7.9-6.8,13.9-15,18-24.7c4.1-9.7,6.1-19.5,6.1-29.6c0-8.6-1.6-16.9-4.7-24.9
	c-3.2-7.9-7.6-15.1-13.5-21.4c-5.8-6.3-12.4-11.7-19.8-16.1c-7.4-4.4-14.9-8.2-22.8-11.4c-7.8-3.2-15.8-6.2-23.8-9.1
	c-8.1-2.9-15.1-7.6-21.2-14.2c-6.1-6.5-9.1-14-9.1-22.4c0-4.7,0.8-9.1,2.5-13.3c1.6-4.2,4.1-7.8,7.5-10.9c3.4-3,7.3-5.2,11.7-6.5
	c4.4-1.3,8.9-1.9,13.3-1.9c5.6,0,11.1,0.9,16.5,2.8c5.4,1.9,9.6,5.3,12.8,10.2c3.2,4.9,4.8,10.2,5.1,15.8H780c0-9.8-2-19.2-5.9-28.2
	c-4-9-9.7-16.6-17.3-22.9c-7.6-6.3-16.1-10.6-25.6-13c-9.5-2.3-19-3.5-28.5-3.5c-10,0-19.9,1.3-29.6,4c-9.7,2.7-18.3,7.5-25.9,14.4
	c-7.6,6.9-13.3,15.1-17.2,24.5c-3.9,9.5-5.8,19.2-5.8,29.2c0,8.4,1.6,16.6,4.7,24.7c3.2,8.1,7.6,15.2,13.5,21.5
	c5.8,6.3,12.4,11.6,19.6,15.9c7.2,4.3,14.8,8.1,22.8,11.2c7.9,3.2,15.9,6.2,23.8,9.3c7.9,3,15,7.8,21.2,14.4
	C736,543.2,739.1,550.7,739.1,559.1z M515.4,287.3h140.4c-32.7-77.9-85.8-128.9-108.2-144.7h-32.2V287.3z M348.5,287.3h138.9V142.6
	h-32.9C393.2,186.7,358.3,257.4,348.5,287.3z M345.3,493.3c17-11,25.6-28,25.6-51.1c0-7.7-0.8-15.3-2.5-22.8
	c-1.6-7.5-4.6-14.5-8.8-21c-4.2-6.5-9.5-12-15.9-16.3c-6.4-4.3-13.4-7.4-21-9.1c-7.6-1.8-15.2-2.6-22.9-2.6h-78.4v257.3h78.4
	c8.6,0,17.1-0.8,25.4-2.5c8.3-1.6,16.2-4.6,23.6-8.9c7.5-4.3,13.8-9.9,18.9-16.8c5.1-6.9,8.8-14.5,10.9-22.8
	c2.1-8.3,3.2-16.7,3.2-25.4C381.7,523.6,369.5,504.2,345.3,493.3z M203.8,287.3h117.4c15.8-57.3,77.4-133.9,96-144.7h-68.8
	L203.8,287.3z M414.4,857.4C368,815,335.6,755.7,317.7,712.7H203.8l146.1,144.7H414.4z M485.3,712.7H344.9
	c32.7,77.9,85.7,128.9,108.2,144.7h32.2V712.7z M500.3,630.5c8.2,0,16.3-0.8,24.3-2.5s15.6-4.7,22.6-9.1c7-4.4,12.9-10,17.7-16.8
	c4.8-6.8,8.1-14.2,10-22.2c1.9-8.1,2.8-16.2,2.8-24.3V370.4h-43.1v185.2c0,4.7-0.6,9.3-1.9,13.8c-1.3,4.5-3.6,8.6-6.8,12.3
	c-3.3,3.6-7.2,6.2-11.7,7.7c-4.5,1.5-9.2,2.3-13.8,2.3c-4.7,0-9.3-0.8-13.8-2.3c-4.6-1.5-8.5-4.1-11.7-7.7
	c-3.3-3.6-5.5-7.7-6.8-12.3c-1.3-4.6-1.9-9.2-1.9-13.8V370.4H423v185.2c0,8.2,0.9,16.3,2.8,24.3c1.9,8.1,5.2,15.5,10,22.2
	c4.8,6.8,10.7,12.4,17.7,16.8c7,4.4,14.5,7.5,22.6,9.1C484,629.7,492.2,630.5,500.3,630.5z M652.1,712.7H513.2v144.7h32.9
	C607.4,813.3,642.3,742.6,652.1,712.7z M796.9,712.7H679.4c-15.8,57.3-77.4,133.9-96,144.7h68.8L796.9,712.7z"/>
</svg>
