<svg xmlns="http://www.w3.org/2000/svg" width="1000" height="1000">
  <path d="M5 500.496c0 271.98 220.55 494.507 495.496 494.507 271.98 0 494.507-220.55 494.507-495.496C995.003 227.528 773.464 5 500.496 5 226.54 5 5 225.55 5 500.496zm212.638 179.012v-351.1c0-37.583 27.692-59.341 72.198-65.275 33.627-.99 52.418 14.835 87.033 34.615 43.517 27.693 89.012 52.418 133.517 80.11 35.605 18.792 70.22 41.539 108.792 61.32 40.55 27.692 46.484 96.923 0 125.604-32.638 19.78-257.144 151.32-282.858 166.154-29.67 14.836-59.341 14.836-86.044-1.978-17.803-12.857-32.638-27.692-32.638-49.45zm230.44-368.903c8.902-6.923 17.803-12.857 24.726-17.802 37.582-21.758 102.857-33.626 156.264-27.692 109.78 15.824 211.65 134.506 196.814 261.1-14.835 148.352-163.187 247.253-306.595 202.747-24.725-7.912-46.483-17.802-66.264-34.615 7.913-7.912 49.451-30.66 74.177-44.506 31.648-16.813 64.285-37.582 93.956-55.385 74.176-46.483 75.165-138.462 3.956-180-44.506-27.693-90.99-54.396-135.495-79.121-11.868-6.923-23.736-14.835-41.539-24.726z" style="fill:#000;fill-opacity:1;fill-rule:nonzero;stroke:none;"/>
</svg>
