<svg xmlns="http://www.w3.org/2000/svg" viewBox="0 0 1000 1000"><path d="M500.496 5C223.572 5 5 229.506 5 500.002c0 276.43 224.506 495.001 495.002 495.001 276.43 0 495.001-224.506 495.001-495.001C995.003 226.539 773.464 5 500.496 5zM105.88 537.09c0-270.99 149.342-437.145 402.53-437.145 257.143 0 393.627 185.935 393.627 437.145 0 108.791-37.583 157.253-84.066 217.583-6.923 6.923-15.824 13.846-22.748 13.846-36.593 1.978-74.176 5.934-110.77 8.901-56.373 0-112.747-2.967-165.165-28.681-46.483-18.792-88.022-52.418-102.857-102.858-18.791-64.286 8.901-133.517 68.242-161.21 56.374-27.691 124.616-8.9 165.165 46.485 0 2.967 1.978 2.967 1.978 5.934 19.78-8.901 35.605-18.792 53.407-27.693-2.967-2.967-2.967-5.934-5.934-8.9-47.473-77.144-142.418-109.781-226.484-77.144-84.066 33.627-140.44 127.583-121.649 213.627 16.813 90 74.176 142.418 156.264 174.067 67.253 26.703 139.451 26.703 210.66 20.769 5.934-1.978 12.858-1.978 18.792-1.978-1.978 1.978-5.934 5.934-9.89 5.934-42.528 1.978-84.067 9.89-123.627 6.923-80.11-4.945-152.309-31.648-211.65-88.022-59.34-58.352-80.11-155.275-46.483-236.375 45.495-108.791 146.374-150.33 270.99-116.703 8.901-19.78 14.835-35.605 24.725-53.407-150.33-64.286-317.473 20.77-366.924 174.066-39.56 130.55 37.582 303.628 198.792 348.133 43.516 11.869 90 18.792 136.484 18.792 2.967 0 6.923 1.978 8.9 5.934h-64.285c-3.956 0-9.89 0-12.857-3.956-33.627-5.934-71.21-11.868-104.836-24.726-118.681-43.516-196.814-161.209-192.858-281.869 1.978-134.506 107.803-252.198 238.353-273.957 15.824-3.956 34.615-3.956 50.44-5.934V246.32H516.32c-142.418 8.902-242.308 80.11-304.616 206.704-78.132 156.265-27.692 321.43 117.693 410.441 2.967 0 2.967 2.967 6.923 6.924-6.923 0-9.89-3.957-12.857-6.924C185.99 788.3 105.879 670.607 105.879 537.09z"/></svg>