<svg xmlns="http://www.w3.org/2000/svg" viewBox="0 0 1000 1000"><path d="M5 509.813V182.938C5 81.495 82.648 5.098 184.092 5.098h315.603c285.545 5.01 508.47 230.44 494.695 520.996-8.767 161.559-78.901 289.303-215.412 383.232-199.13 135.258-464.637 107.706-632.458-65.124C55.095 751.525 5 637.557 5 509.812zm217.916-98.94c3.757 31.31 20.038 53.854 41.329 61.368 33.814 0 50.096-12.524 60.115-40.076 6.262-5.01 11.271-16.282 17.533-27.553 63.872-91.425 189.111-107.706 275.526-37.572 87.668 71.386 91.425 200.383 16.282 276.779-80.154 92.677-239.207 81.405-303.08-47.591-21.29-33.815-50.095-43.834-76.395-28.805-27.553 16.281-37.572 43.834-17.534 76.396C291.797 769.058 432.065 832.93 563.567 801.62c136.51-26.3 232.945-146.53 232.945-283.04 0-210.402-212.907-356.932-408.28-274.274-20.039 5.01-37.572 15.028-57.61 26.3-6.262-11.272-6.262-17.534-6.262-21.29v-40.077c0-31.31-21.291-52.6-47.591-52.6s-50.096 15.028-50.096 50.095c-3.757 20.038-3.757 46.338-3.757 68.881zm200.383 101.445c0 43.833 37.571 77.648 76.396 77.648 40.076 0 75.143-33.815 75.143-77.648 0-40.077-28.805-73.892-71.386-73.892-42.582 0-80.153 33.815-80.153 73.892z"/></svg>