<svg xmlns="http://www.w3.org/2000/svg" viewBox="0 0 1000 1000"><path d="M630.87 955.76c-2.605 0-2.605-2.605-6.511-2.605-58.598-11.72-110.685-33.856-162.772-61.202-98.965-62.504-167.98-151.052-167.98-252.62-3.906-39.066 7.813-78.131 22.137-114.592C326.162 500 383.457 417.963 389.968 403.64c40.367-61.202 26.043-57.295-24.741-130.217l-79.433-114.59-53.389-75.526c-29.95 18.23-57.295 42.971-82.036 63.806C96.979 200.5 52.706 269.516 31.87 342.437 5.828 412.755-.683 493.49 9.734 569.015c10.418 75.526 39.065 145.843 83.34 212.254 41.669 59.9 100.266 114.59 164.073 151.051C87.864 804.708 9.734 617.195 72.238 424.474c20.835-50.784 44.274-96.36 80.735-139.332l54.691 82.037c3.907 2.604 6.511 10.417 6.511 18.23 0 2.604-2.604 9.115-6.51 14.324-26.044 31.252-48.181 72.921-61.203 110.684C72.238 722.671 267.564 937.53 477.213 973.99c39.065 6.51 110.685 14.324 147.146 3.906 3.906 0 3.906 0 6.51-3.906 0 0 0-2.604 3.907-2.604v-9.116c0-2.604-3.907-2.604-3.907-6.51zM365.226 37.73c0 2.604 3.906 2.604 3.906 6.51 2.605 0 2.605 2.605 6.511 2.605 58.598 11.72 110.685 33.856 162.771 61.202 105.476 62.504 167.98 151.052 167.98 252.62 3.907 39.066-7.813 78.131-22.137 114.592C673.841 500 616.546 582.037 610.035 596.36c-40.368 61.202-26.044 57.295 24.74 130.217l79.433 114.59 53.39 75.526c29.95-18.23 57.295-42.971 82.036-63.806 53.389-53.389 97.663-122.404 118.497-195.325 26.044-70.318 32.555-151.052 22.137-226.578-10.417-75.526-39.065-145.843-83.339-212.254-41.669-59.9-100.267-114.59-164.073-151.051 169.282 127.612 247.412 315.125 184.908 507.846-20.835 50.785-44.274 96.36-80.734 139.332l-54.692-82.037c-3.906-2.604-6.51-10.417-6.51-18.23 0-2.604 2.604-9.115 6.51-14.324 26.044-31.252 48.18-72.921 61.202-110.684C927.764 277.329 732.44 62.47 522.79 26.01c-39.066-6.51-110.685-14.324-147.146-3.906-3.906 0-3.906 0-6.51 3.906 0 0 0 2.604-3.907 2.604z"/></svg>