<svg xmlns="http://www.w3.org/2000/svg" width="1000" height="1000">
  <path d="M5 500.496c0 89.011 22.747 172.089 67.253 249.232 44.506 74.176 103.846 133.517 178.023 178.022 77.143 44.506 160.22 67.253 250.22 67.253 89.011 0 172.089-22.747 249.232-67.253 74.176-44.505 133.517-103.846 178.022-178.022 44.506-77.143 67.253-160.22 67.253-250.22 0-89.012-22.747-172.09-67.253-249.232-44.505-74.177-103.846-133.517-178.022-178.023C672.585 27.747 589.508 5 500.496 5c-90 0-173.077 22.747-250.22 67.253-74.177 44.506-133.517 103.846-178.023 178.023C27.747 327.419 5 410.496 5 500.496zm167.143 131.539V366.979c1.978-8.9 5.934-15.824 12.858-20.77l243.297-176.044c20.77-14.835 40.55-30.66 61.319-44.505 5.934-3.956 10.88-6.923 16.813-6.923 6.923 0 12.857 2.967 18.792 6.923 45.494 30.66 88.022 62.308 131.538 94.945l172.09 127.583c7.912 5.934 11.868 12.857 11.868 22.747v265.056c-1.978 7.912-7.912 12.857-13.846 16.813-99.89 74.176-199.781 146.374-300.66 218.572-4.946 3.957-8.902 7.913-15.825 7.913h-7.912c-3.956 0-6.923-1.978-10.879-3.956-1.978-1.978-3.956-3.957-5.934-3.957C385.771 797.2 284.89 725.002 185 652.804c-1.978-1.978-3.956-5.934-6.923-6.923zm23.737-19.78c0 1.978 5.934 6.923 9.89 6.923h61.319c1.978 0 2.967 0 1.978-1.978v-8.901c0-3.956 0-3.956-1.978-3.956h-54.396s-1.978 1.978-1.978-1.978v-31.649c0-.989 0-.989 1.978-.989h9.89s1.978 0 1.978-1.978v-11.868c0-.99-1.978-.99-1.978-.99h-18.791c-1.978.99-3.956 2.968-5.934 4.946-1.978 1.978-1.978 1.978-1.978 3.956zm0-194.836c0 1.978 0 1.978 1.978 1.978h46.483v.989c-4.945 3.956-10.879 7.912-18.79 11.868 3.955 2.967 9.89 4.945 13.845 8.901h.99c11.868-6.923 22.747-14.835 33.626-20.769v-14.835c0-.99 0-.99-1.978-.99h-74.176c-1.978 0-1.978 0-1.978.99zm22.747 89.011c0 1.978 1.978 1.978 1.978 1.978h12.857s1.978 0 1.978-1.978v-10.879l-1.978-1.978h-10.879c-1.978 0-3.956 1.978-3.956 1.978zm20.77-145.385c0 1.978 0 1.978.988 1.978h63.297c1.978 0 3.956 0 3.956-1.978-1.978-2.967-1.978-6.923-1.978-10.879 0-1.978 0-1.978-1.978-1.978h-63.297c-.989 0-.989 0-.989 1.978zm29.67 165.166c0 1.978.989 3.956.989 3.956 3.956-1.978 7.912-1.978 11.868 0 1.978 0 2.967-1.978 2.967-3.956v-44.506c0-1.978-.989-1.978-2.967-1.978h-11.868s-.99 0-.99 1.978zm12.857 165.165c0 1.978 0 1.978 1.978 1.978h36.594c1.978 0 1.978-1.978 1.978-1.978v-10.88c0-1.977 0-1.977-1.978-1.977h-36.594c-1.978 0-1.978 0-1.978 1.978zm16.813-127.583c0 1.978 1.978 1.978 2.967 1.978h63.297c1.978 0 1.978 0 1.978-1.978v-12.857s0-1.978-1.978-1.978h-64.286c-1.978 1.978-1.978 1.978-1.978 3.956zm2.967 50.44c0 .989 0 2.967 1.978 2.967 5.934 7.912 9.89 16.813 14.836 24.725l7.912 10.88c1.978 0 1.978 0 1.978-1.979 6.923-10.879 14.835-21.758 21.758-35.604 1.978 0 1.978-.99 1.978-.99v-22.747c-8.901 10.88-16.813 23.737-25.714 37.583-7.912-13.846-14.836-24.725-24.726-37.583zm5.934-196.814h1.978c10.88 6.923 21.759 16.813 33.627 23.736h25.714c-12.857-8.9-23.736-16.813-37.582-23.736l37.582-26.703h-23.736l-1.978 1.978-31.649 20.769c-1.978 0-1.978 1.978-3.956 3.956zm1.978 105.824h12.858c1.978 0 1.978 0 1.978-1.978 5.934-14.835 8.9-29.67 12.857-44.505 0-1.978 0-1.978 1.978-1.978h3.956c1.978-1.978 2.967 0 2.967 1.978 1.978 6.923 5.934 14.835 7.912 23.736l5.934 20.77c0 1.977.99 1.977.99 1.977h13.845v-1.978l-16.813-59.34c0-1.978-1.978-1.978-3.956-1.978h-23.736c-1.978 0-1.978 0-1.978 1.978-5.934 19.78-12.858 38.571-18.792 59.34zm6.924-162.198c0 1.978 1.978 1.978 1.978 1.978h12.857s1.978 0 1.978-1.978v-10.879c0-1.978-1.978-1.978-1.978-1.978h-12.857s-1.978 0-1.978 1.978zm5.934-55.385c3.956 3.956 7.912 5.934 10.879 7.912 0 .99 1.978.99 3.956 0l46.483-28.681 1.979-.989v-9.89c0-4.945 0-3.956-5.935-4.945-12.857 0-25.714.989-38.571.989-1.978 0-1.978 0-1.978 1.978v11.868c0 .989 0 .989 1.978.989H356.1zm22.747 427.255h12.857c1.978 0 1.978 0 1.978-1.979v-10.879c0-1.978 0-1.978-1.978-1.978H346.21c-.99 0-.99 0-.99 1.978zm4.945-42.528c0 .989 0 .989 1.978.989h83.077c1.978 0 3.956 0 3.956-.99-1.978-1.977 0-5.933 0-9.89 0-3.955 0-3.955-3.956-3.955h-55.385l39.561-25.715c-3.956-3.956-7.912-4.945-13.846-8.9l-.99 1.977-52.417 32.638c-1.978 0-1.978 1.978-1.978 1.978zm22.747 62.308c0 1.978 1.978 1.978 2.967 1.978h58.352c.99 0 .99 0 .99-1.978v-8.901c0-3.956 0-3.956-.99-3.956H375.88c-.989 0-2.967 0-2.967 1.978zm1.978-368.903c0 1.978 0 1.978 2.967 1.978h9.89c1.979 0 1.979 0 1.979-1.978v-33.626s0-1.978-1.978-1.978H375.88s-.989 1.978-.989 3.956zm10.88 85.056c0 1.978 0 1.978 1.978 1.978h32.637c1.978 0 1.978 0 1.978-1.978V455.99s0-1.978-1.978-1.978h-32.637c-1.978 0-1.978 1.979-1.978 1.979zm6.923 154.286h12.857c1.978 0 1.978-1.978 1.978-1.978v-12.857l-1.978-1.978h-10.88c-1.977 0-1.977 0-1.977 1.978zm3.956-309.562c0 .99 0 2.967 1.978 4.946l20.769 33.626c.989 0 .989 0 .989 1.978v-1.978l24.725-35.605v-1.978c0-4.945 0-8.9 1.978-14.835v-8.9h-1.978c-7.912 12.856-14.835 25.713-24.725 37.582-6.923-11.869-15.824-24.726-23.736-37.583zm8.9 269.012c0 1.978 0 1.978 1.979 1.978h11.868c.989 0 .989 0 .989-1.978V557.86c0-8.901 1.978-17.802 1.978-25.714v-5.934l1.978 1.978c9.89 16.813 20.77 33.626 31.649 48.461v1.978h5.934v-7.912c0-4.945 0-12.857-5.934-17.802l-33.627-54.396c0-1.978-1.978-1.978-2.967-1.978h-11.868c-1.978 0-1.978 0-1.978 1.978zm14.836-150.33c0 2.967 0 2.967 3.956 2.967h63.297c0-.989 1.978-.989 1.978-.989v-13.846l-1.978-.989h-65.275s-1.978.989-1.978 2.967zm9.89 348.133c4.945 11.868 10.88 20.77 16.813 30.66 0 .989 1.978.989 1.978.989h14.836c0-.99-1.978-2.967-1.978-2.967-5.934-9.89-9.89-18.792-14.836-28.682zm1.978-513.298c0 1.978 0 2.967 1.978 2.967 2.967-.99 6.923-.99 10.88-.99 1.977 0 1.977 0 1.977-1.977v-65.275h-12.857c-1.978 0-1.978 0-1.978 1.978zm10.88 105.824c0 2.967 1.977 8.901 5.933 10.88 1.978 1.977 1.978 1.977 2.967 1.977h43.517c4.945 0 8.901 0 12.857-5.934 0 0 1.978-1.978 1.978-3.956v-61.319c0-.989-1.978-.989-1.978-.989H496.54c-.989 0-.989 0-.989.99v54.395c0 1.978-1.978 1.978-3.956 1.978h-31.648c-1.978 0-1.978 0-1.978-1.978v-7.912c0-.989 0-.989-1.978-.989h-10.88s-1.978 0-1.978.99zm7.911 350.111c0 1.978 0 3.956.99 3.956h56.373s1.978 0 1.978 1.978v31.649c0 1.978 0 1.978-1.978 1.978h-7.912c-3.956 0-3.956 0-3.956 2.967v9.89c0 1.978 0 1.978 1.978 1.978h12.857c3.956 0 7.912 0 9.89-3.956l1.978-1.978c1.979 0 1.979-1.978 1.979-3.956v-40.55c0-5.934-1.979-8.9-5.935-12.857-1.978-1.978-3.956-1.978-3.956-1.978h-63.297c-.989 0-.989 0-.989 1.978zm14.836-34.615h.989c0 1.978 1.978 1.978 3.956 1.978l7.912-1.978c1.978 0 1.978 0 1.978-1.978v-54.396c0-1.978 0-1.978-1.978-1.978h-9.89c-2.967 0-2.967 0-2.967 3.956zm2.967-223.517c0 5.934 0 5.934 3.956 5.934h53.407c1.978 0 1.978 0 1.978 1.978v31.648c0 1.978 0 1.978-1.978 1.978h-8.902c-1.978 0-1.978 0-1.978 1.978v10.88c0 1.977 0 1.977 1.978 1.977h16.814c1.978 0 1.978 0 1.978-1.978l4.945-5.934c1.978 0 1.978-1.978 1.978-1.978v-42.527c0-6.923-4.945-14.836-12.857-14.836h-59.341c-1.978 0-1.978 1.978-1.978 3.957zm1.978-267.034c0 1.978 1.978 1.978 1.978 1.978h10.879c1.978 0 1.978 0 1.978-1.978v-6.923c0-1.978 0-1.978 1.978-1.978h31.648c1.978 0 1.978 0 1.978 1.978v29.67l1.978 6.923c0 1.978 0 1.978 1.979 1.978h8.9c3.957 0 3.957 0 3.957-3.956v-42.527c0-1.978-1.978-2.968-1.978-2.968l-3.956-3.956c-1.978-1.978-3.956-1.978-5.934-1.978h-42.528c-4.945 0-6.923 1.978-10.88 5.934 0 0-1.977.99-1.977 2.968zm1.978 90.99c0 1.977 0 1.977 1.978 1.977h10.879c1.978 0 1.978 0 1.978-1.978v-10.88c0-1.977 0-1.977-1.978-1.977h-10.88c-1.977 0-1.977 0-1.977 1.978zm1.978 254.176c0 1.978 1.978 3.956 1.978 3.956h10.879c3.956 0 3.956 0 3.956-3.956v-32.638c0-1.978-1.978-1.978-3.956-1.978h-10.88s-1.977 0-1.977 1.978zm6.923-307.584 18.791 29.67h14.835v-1.977l-16.813-27.693c0-1.978 0-1.978-1.978-1.978h-14.835zM496.54 617.2l1.978 1.978h84.066c2.967 0 2.967 0 2.967-3.956v-10.88c0-1.977 0-1.977-2.967-1.977h-56.373v-1.978c13.846-6.924 26.703-14.836 39.56-23.737-3.956-3.956-7.912-5.934-10.879-6.923-1.978-1.978-1.978-1.978-3.956 0l-16.813 10.88c-12.858 6.922-23.737 14.835-35.605 21.758-1.978 0-1.978 1.978-1.978 1.978zm1.978 228.462c0 1.978 0 1.978 1.978 1.978h10.88c1.977 0 1.977 0 1.977-1.978v-31.648c0-1.978 0-1.978-1.978-1.978h-12.857zm5.934-413.408c0 1.978 0 2.967 1.978 2.967 3.956-.989 6.923-.989 12.857-.989h1.978v-13.846l-1.978-.989H506.43c-1.978 0-1.978.989-1.978.989zm1.978 214.616 16.813 29.67h16.814c-1.978-.988-1.978-.988-1.978-2.966-3.956-9.89-9.89-18.792-14.836-26.704-1.978-.989-1.978-.989-3.956-.989H506.43zm27.693 164.177c0 .989 0 .989 1.978.989h10.879s1.978 0 1.978-.99v-11.868c0-1.978-1.978-1.978-1.978-1.978h-12.857zm6.923-471.76c0 1.978 0 1.978 1.978 1.978h11.868c.989 0 .989 0 .989-3.956v-55.385h1.978v1.978l31.648 47.473c1.978 1.978 1.978 3.956 5.935 3.956 1.978 0 1.978 0 1.978-1.978V314.56c-3.956-2.967-5.935-6.923-7.913-8.9-10.879-16.814-21.758-35.605-31.648-51.43-1.978 0-1.978-1.977-2.967-1.977h-11.868c-1.978 0-1.978 1.978-1.978 2.967zm1.978 213.627c0 1.978 0 1.978 1.978 1.978h10.879s1.978 0 1.978-1.978v-12.857h-14.835zm0-132.528c0 1.978 0 1.978 1.978 1.978h9.89c2.967 0 2.967 0 2.967-1.978v-45.495l-1.978-1.978h-10.88c-1.977 0-1.977 1.978-1.977 1.978zm12.857 285.825h13.846l.99-.989c1.977-3.956 1.977-7.912 1.977-11.868l11.868-34.616c0-1.978 0-1.978.99-1.978h3.955c1.978 0 3.957 1.978 3.957 3.956 3.956 14.836 6.923 27.693 12.857 42.528 0 1.978 0 2.967 1.978 2.967h10.879c1.978 0 1.978-.989 1.978-2.967l-16.813-57.363c-1.978-1.978-1.978-3.956-3.956-3.956-6.923 1.978-15.825 1.978-23.737 0-1.978 0-3.956 1.978-3.956 3.956-4.945 15.824-8.9 32.638-14.835 51.429 0 1.978-1.978 5.934-1.978 8.901zm9.89 65.275c0 1.978 1.978 1.978 1.978 1.978h44.506c1.978 0 1.978 0 1.978-1.978v-10.88c0-1.977 0-1.977-1.978-1.977h-16.813l1.978-1.978c8.9-5.934 18.79-10.88 27.692-18.791 3.956 0 5.934-1.978 8.901-2.967v-3.957l-8.901-5.934c-1.978-1.978-3.956-1.978-5.934 0l-8.901 5.934c-12.857 8.902-27.693 18.792-42.528 27.693-1.978 0-1.978 1.978-1.978 3.956zm3.956-532.09c0 .99.99.99.99.99h39.56c1.978 0 1.978 0 1.978-.99v-11.868c0-1.978 0-1.978-1.978-1.978h-39.56c-.99 0-.99 0-.99 1.978zm.99 300.66s0 .99 1.977 0h11.868c.99.99.99 0 .99 0v-13.845c0-.99 0-.99-.99-.99h-11.868c-1.978 0-1.978 0-1.978.99zm3.955-56.373c0 1.978 1.978 5.934 3.956 5.934 0 1.978 1.978 3.956 3.956 5.934h64.286c1.978 0 1.978 0 1.978-1.978v-7.912c0-5.934 0-5.934-2.967-5.934h-52.417c-1.979 0-3.957 0-3.957-.99V447.09c0-1.978 1.978-1.978 3.957-1.978h6.923c1.978 0 1.978 0 1.978-1.978v-10.879c0-1.978 0-1.978-1.978-1.978h-17.803l-5.934 4.945c0 1.978-1.978 3.956-1.978 5.934zm20.77-92.967c0 1.978 1.978 1.978 1.978 1.978h12.857s1.978 0 1.978-1.978v-10.88c0-1.978-1.978-1.978-1.978-1.978H597.42v1.978c-1.978 3.956-1.978 7.913-1.978 10.88zm3.956 198.791c0 1.978.989 1.978.989 1.978h11.868c1.978 0 1.978 0 1.978-1.978v-6.923c0-3.956 0-3.956 2.967-3.956h33.626v40.55c0 1.978 0 1.978 1.978 1.978h10.88s1.978 0 1.978-1.978v-46.484l-8.902-8.9H608.3s-1.978 0-1.978 1.977l-5.934 4.945s-.99 0-.99 1.978zm4.945-311.54c0 1.979 0 1.979 1.978 1.979h12.857V265.11H606.32c-1.978 0-1.978 0-1.978 1.978zm16.813 262.09c0 .989 0 .989 1.978.989h44.506c1.978 0 1.978 0 1.978-2.967v-9.89c0-1.978 0-1.978-1.978-1.978h-44.506c-1.978 0-1.978 0-1.978 1.978zm5.934-236.375c0 3.956 0 3.956 3.956 3.956h68.242c1.978 0 1.978 0 1.978-1.978v-10.879c0-1.978 0-1.978-1.978-1.978h-70.22c-1.978 0-1.978 0-1.978 1.978zm16.813 98.902c0 1.978 0 1.978 1.978 1.978h8.901c3.956 0 3.956 0 3.956-3.956 4.946-14.836 8.902-29.67 12.858-44.506 0 0 0-1.978 1.978-1.978h4.945c1.978 0 1.978 1.978 1.978 1.978 1.978 3.956 1.978 6.923 3.956 8.901 1.978 12.857 5.934 24.726 8.901 35.605 0 1.978 1.978 3.956 3.956 3.956h8.901c1.978 0 1.978 0 1.978-1.978l-16.813-57.363c-.99-3.956-.99-3.956-4.945-3.956h-24.726l-.989 1.978zm6.923 49.45h12.858c1.978 0 1.978 0 1.978-1.978v-10.879c0-1.978 0-1.978-1.978-1.978h-12.858zm3.956 236.375 21.759 34.615c1.978 0 1.978 1.978 1.978 1.978v-1.978l24.725-32.637v-26.703l-1.978 1.978-18.791 29.67-3.956 3.956c-8.901-12.857-16.813-23.736-23.737-37.583zm31.649-107.803c0 1.978 0 1.978 1.978 1.978h10.88c1.977 0 1.977 0 1.977-1.978v-50.44c0-1.977 0-1.977-1.978-1.977h-10.88c-1.977 0-1.977 0-1.977 1.978zm14.835-130.55c0 1.978 1.978 1.978 3.956 1.978h62.308c1.978 0 1.978 0 1.978-1.978v-10.879c0-1.978 0-1.978-1.978-1.978h-62.308c-1.978 0-3.956 0-3.956 1.978 1.978 3.956 0 7.912 0 10.88zm4.945 152.309c1.978 3.956 1.978 7.912 1.978 11.868 0 .989 0 .989 1.978.989h84.066s1.978 0 1.978-.99v-13.845h-60.33v-.99c13.847-7.912 26.704-16.813 41.54-24.725-5.935-3.956-9.891-6.923-12.858-8.9h-1.978l-54.396 33.626c0 .989-1.978.989-1.978 2.967zm16.813 63.297c0 1.978 0 1.978 1.978 1.978h10.88c1.978 0 1.978 0 1.978-1.978v-10.88c0-1.978 0-1.978-1.978-1.978h-10.88c-1.978 0-1.978 0-1.978 1.978zm12.858-250.221c0 1.978 0 1.978 1.978 1.978h11.868c.989 0 .989 0 .989-1.978v-10.88c0-1.977 0-1.977-.99-1.977H737.86c-1.978 0-1.978 0-1.978 1.978zm0-39.56c0 1.977 0 1.977 1.978 1.977h11.868c.989 0 .989 0 .989-1.978v-46.483c0-.99 0-.99-.99-.99H737.86c-1.978 0-1.978 0-1.978.99zm13.846 128.571c0 1.978 0 1.978.989 1.978h11.868c1.978 0 1.978-1.978 1.978-1.978v-8.9c0-1.979 0-1.979 1.978-1.979h30.66c1.977 0 3.956 1.978 3.956 2.967v61.319c0 1.978 0 1.978 1.978 1.978h8.9c1.979 0 1.979 0 1.979-1.978 0-6.923 1.978-14.835 1.978-21.758v-42.528c0-5.934-1.978-9.89-6.923-13.846 0 0-1.978-.99-3.956-.99h-40.55c-1.978 0-5.934 0-7.912.99-1.978 0-3.956 3.956-5.934 5.934-.99 0-.99 0-.99 1.978zm23.736-143.407 18.791 29.67s0 1.979 1.978 1.979h10.88c1.978 0 1.978 0 1.978-1.978-3.956-10.88-10.88-19.78-14.836-29.67-1.978 0-1.978-.99-1.978-.99h-16.813z" style="fill:#000;fill-opacity:1;fill-rule:nonzero;stroke:none;"/>
</svg>
