<svg xmlns="http://www.w3.org/2000/svg" width="1000" height="1000">
  <path d="M5 607.416v-24.87c29.391-27.13 29.391-27.13 63.305-5.652C203.958 659.416 339.61 739.678 473.004 822.2c21.478 13.565 38.435 11.305 58.783 0 123.218-76.87 249.828-153.74 373.046-231.74 13.565-7.914 27.13-18.088 41.827-26.001 19.217-15.826 30.521-2.26 40.695 10.174 12.435 15.826 4.522 26-7.913 35.044-13.565 10.174-29.391 21.478-47.478 31.652 18.087 13.565 36.174 23.74 49.74 35.044 13.565 10.174 13.565 21.478 0 31.652-26.001 15.827-49.74 33.914-74.61 49.74-92.696 56.522-186.523 111.914-281.48 168.436l-91.566 55.392c-26 15.826-45.218 9.043-65.566-20.348 145.827-88.175 290.524-176.35 438.612-264.524-13.565-20.348-26-26-47.479-13.565-109.653 67.826-220.436 134.522-330.09 203.48-21.478 13.565-40.695 13.565-61.043 0-114.175-68.958-227.22-136.784-339.133-205.741-41.827-23.74-82.523-49.74-124.349-73.48zm11.304 73.479c10.174-20.348 30.522-21.479 53.131-7.913 55.392 35.043 110.784 72.348 165.045 107.392 23.74 15.826 49.74 30.522 79.131 45.217-29.391 23.74-53.13 29.392-80.261 10.174-63.305-40.696-130.001-76.87-193.306-115.305-13.566-7.913-37.305-15.826-23.74-39.565zm2.261-255.48c-5.652-7.914-3.391-26 2.261-35.044 3.392-7.913 21.479-12.435 29.392-10.174 15.826 5.652 29.391 16.956 48.609 29.391-19.218 11.305-32.783 23.74-46.348 27.13-10.174 2.262-28.261-3.39-33.914-11.304zm13.566 104c-29.392-19.217-29.392-42.957 2.26-61.044 31.653-19.217 63.305-39.565 96.088-61.044-31.652-19.217-61.044-39.565-91.566-56.522-39.565-23.74-39.565-47.479 0-71.218C183.61 193.673 327.176 106.63 473.003 20.716c9.044-5.653 23.74-12.435 31.653-10.174 16.957 5.652 30.522 18.087 45.218 27.13-10.174 10.174-18.087 22.61-30.522 29.392-133.393 79.13-264.524 158.262-397.916 236.262-6.783 4.522-10.174 5.653-20.348 13.566 31.652 18.087 58.783 36.174 88.174 50.87 4.522 2.26 14.696-3.392 20.348-7.913 15.826-6.783 29.392-14.696 45.218-24.87 37.305-23.74 50.87-20.348 85.914 18.087l-83.653 52c1.13 4.522 3.391 6.783 5.652 7.914 80.262-46.349 160.523-96.088 241.915-144.697-2.26-2.261-2.26-4.522-4.522-7.913-13.565 7.913-27.13 13.565-39.565 21.478-42.957 27.13-53.131 26-91.566-15.826 38.435-21.479 75.74-47.479 115.305-64.435 15.826-6.783 42.957 3.39 61.044 13.565 19.218 10.174 33.913 10.174 50.87-2.261 33.913-21.478 68.957-40.696 104-63.305 14.697-9.043 28.262-11.304 45.219-1.13 71.217 45.217 143.566 85.913 214.784 128.87 7.913 6.783 15.826 10.174 21.478 15.826 18.087 15.827 18.087 33.914-2.26 47.48-19.218 13.564-37.305 26-56.523 37.304L547.613 601.764c-39.566 23.739-53.131 23.739-92.696-15.827 149.218-90.435 295.045-176.349 446.525-266.784l-20.348-15.827c-46.348-29.391-93.827-56.522-141.306-84.783-13.565-7.913-23.739-9.043-37.304-1.13-23.74 14.696-47.479 29.391-74.61 48.609l161.654 96.088c-33.913 35.043-49.74 37.304-87.044 13.565-37.305-21.479-74.61-42.957-111.914-66.696-11.305-7.913-21.479-9.044-33.914-1.13-22.608 14.695-48.609 30.521-75.74 48.608 53.132 33.914 104.002 66.696 154.871 98.349-31.652 37.305-45.217 39.565-82.522 15.826-33.913-21.478-66.696-41.826-100.61-65.566-19.217-14.695-35.043-11.304-54.26 0-61.045 37.305-122.089 74.61-185.393 110.784-32.783 19.217-48.61 15.826-76.87-20.348 22.608-13.565 45.217-27.13 68.956-42.957-19.217-7.913-68.957 18.087-104 49.74C250.306 593.85 399.525 684.286 547.613 774.72c-21.479 33.914-42.957 37.305-76.87 18.088-64.436-37.305-130.001-76.87-192.176-114.175-76.87-45.218-151.48-92.697-228.35-137.914-5.652-3.392-11.304-7.913-18.086-11.305zm108.522-214.784c7.913-5.652 13.566-11.305 21.479-14.696l306.35-183.132c37.304-21.478 55.392-19.217 90.435 18.087-72.348 42.957-143.566 85.914-218.175 131.132 23.739 15.826 42.957 29.391 63.305 45.218-26 31.652-41.827 35.043-72.349 15.826-2.26-2.261-6.782-4.522-10.174-7.913-21.478-19.218-45.218-19.218-66.696 0-5.652 3.391-12.435 5.652-18.087 10.174-45.218 27.13-53.13 24.87-96.088-14.696zm80.262 234.002c31.652-19.218 63.305-38.435 94.957-58.783 29.391-16.957 58.783-35.044 88.175-53.131 35.043-21.479 40.696-21.479 74.609 13.565-35.044 22.609-66.696 44.087-98.349 63.305-27.13 18.087-56.522 35.044-84.783 53.13-27.13 18.088-48.61 13.566-74.61-18.086zm223.828 137.914c29.391-18.087 57.652-35.044 87.044-50.87 50.87-33.913 104-65.566 157.131-96.088 19.218-14.696 39.566-18.087 61.044-6.782 32.783 22.608 64.436 41.826 98.349 61.043-21.479 31.653-44.087 36.175-71.218 18.088-11.304-7.914-23.74-18.088-37.305-21.479-11.304-4.522-27.13-5.652-37.304 0-61.044 35.044-119.827 70.088-180.871 107.392-37.305 23.74-39.566 23.74-76.87-11.304zm385.48-234.002c39.566-35.044 47.48-37.305 88.175-11.304 20.348 11.304 39.566 21.478 57.653 32.782 15.826 10.174 23.74 23.74 11.304 41.827-11.304 16.957-24.87 19.217-45.217 7.913-29.392-20.348-61.044-37.305-92.697-57.653-5.652-3.391-11.304-9.043-19.217-13.565z" style="fill:#000;fill-opacity:1;fill-rule:nonzero;stroke:none;"/>
</svg>
