<svg xmlns="http://www.w3.org/2000/svg" viewBox="0 0 1000 1000"><path d="M749.728 72.253C824.2 116.462 883.54 175.803 927.75 250.276c44.803 77.143 67.253 160.418 67.253 249.726 0 89.308-22.45 172.583-67.253 249.726C883.541 824.2 824.2 883.54 749.728 927.75c-77.143 44.803-160.418 67.253-249.726 67.253-89.308 0-172.583-22.45-249.726-67.253-74.473-44.209-133.814-103.55-178.023-178.022C27.451 672.585 5 589.31 5 500.002c0-89.308 22.45-172.583 67.253-249.726 44.209-74.473 103.55-133.814 178.023-178.023C327.419 27.45 410.496 5 499.507 5c89.704 0 173.078 22.45 250.22 67.253zM252.254 499.507c0 19.088 4.747 36.89 14.34 53.407 9.594 16.516 22.55 29.67 39.066 39.56 16.517 9.89 34.616 14.836 54.396 14.836s37.88-4.945 54.396-14.836c16.516-9.89 29.473-23.044 39.066-39.56 9.593-16.517 14.34-34.418 14.34-53.901 0-19.484-4.747-37.385-14.34-53.902-9.593-16.516-22.55-29.67-39.066-39.56-16.517-9.89-34.616-14.835-54.396-14.835s-37.88 4.945-54.396 14.835-29.472 23.044-39.066 39.56c-9.593 16.517-14.34 34.616-14.34 54.396zm71.209-261.594c0 19.483 4.747 37.582 14.34 54.396 9.594 16.813 22.55 29.967 39.066 39.56 16.517 9.594 34.616 14.34 54.396 14.34h.99c27.692 0 53.208 6.924 76.648 20.77 23.44 13.846 42.033 32.44 55.88 55.88 13.845 23.44 20.768 48.956 20.768 76.648 0 27.693-6.923 53.11-20.769 76.154-13.846 23.044-32.44 41.539-55.88 55.385-23.439 13.846-48.955 20.77-76.648 20.77-19.088 0-37.088 4.747-53.901 14.34-16.813 9.593-29.967 22.747-39.56 39.56-9.594 16.814-14.341 34.913-14.341 54.396 0 19.484 4.747 37.385 14.34 53.902 9.594 16.516 22.748 29.67 39.56 39.56 16.814 9.89 34.913 14.835 54.397 14.835 19.483 0 37.384-4.945 53.901-14.835 16.517-9.89 29.67-23.044 39.56-39.56 9.89-16.517 14.836-34.616 14.836-54.396 0-27.693 6.725-53.21 20.275-76.649 13.55-23.44 31.945-41.835 55.384-55.385 23.44-13.549 48.957-20.274 76.649-20.274 19.78 0 37.88-4.945 54.396-14.836 16.516-9.89 29.472-23.044 39.066-39.56 9.593-16.517 14.34-34.418 14.34-53.901 0-19.484-4.747-37.385-14.34-53.902-9.594-16.516-22.55-29.67-39.066-39.56-16.517-9.89-34.616-14.835-54.396-14.835h-.99c-27.691 0-53.208-6.726-76.648-20.275-23.44-13.55-42.033-31.945-55.879-55.385-13.846-23.44-20.77-48.956-20.77-76.649 0-19.78-4.747-37.879-14.34-54.395-9.593-16.517-22.55-29.67-39.066-39.561-16.517-9.89-34.616-14.835-54.396-14.835s-37.88 4.945-54.396 14.835-29.472 23.044-39.066 39.56c-9.593 16.517-14.34 34.418-14.34 53.902z"/></svg>