<svg xmlns="http://www.w3.org/2000/svg" width="1000" height="1000">
  <path d="m655.771 454.012 50.44 58.352h-20.77l-67.252-58.352zM5 500.496c0-89.703 22.45-173.077 67.253-250.22C115.77 175.803 175.11 116.462 250.276 72.253 326.726 27.45 409.804 5 499.507 5c89.704 0 173.078 22.45 250.22 67.253 74.474 44.209 133.814 103.55 178.023 178.023 44.803 77.143 67.253 160.517 67.253 250.22 0 89.704-22.45 172.78-67.253 249.232-44.209 75.165-103.55 134.506-178.022 178.022-77.143 44.803-160.517 67.253-250.22 67.253-89.704 0-172.782-22.45-249.232-67.253C175.11 884.234 115.77 824.893 72.253 749.728 27.451 673.277 5 590.2 5 500.496zm199.78 59.341c0 36.89 13.155 71.209 39.561 102.857 26.407 31.649 62.012 56.374 106.814 74.177 45.495 19.088 94.945 28.681 148.352 28.681 53.407 0 103.154-9.593 149.341-28.681 44.21-17.803 79.418-42.528 105.825-74.177 26.407-31.648 39.56-65.967 39.56-102.857 0-25.714-6.23-50.143-18.79-73.187-12.561-23.044-30.364-43.813-53.408-62.308L679.508 235.44 597.42 365.001c-31.649-7.22-64.286-10.879-97.913-10.879-33.626 0-65.967 3.66-96.923 10.88L319.507 235.44l-41.54 188.902c-23.043 18.495-41.043 39.264-53.9 62.308-12.858 23.044-19.286 47.473-19.286 73.187zm89.012-47.473 50.44-58.352h36.593l-66.264 58.352zm122.638-9.89 20.77-11.868 17.802 31.648h89.01l18.792-31.648 19.78 11.868-84.066 143.407zm51.429 43.517 30.66 53.407 31.648-53.407z" style="fill:#000;fill-opacity:1;fill-rule:nonzero;stroke:none;"/>
</svg>
