<svg xmlns="http://www.w3.org/2000/svg" width="1000" height="1000">
  <path d="M283.406 540.203c-41.208-91.462-64.325-155.787-90.457-239.208-9.045-26.132-13.066-40.203-42.213-40.203H5c40.203 123.624 81.411 222.122 122.62 345.746 49.248 141.716 49.248 141.716 223.126 141.716 36.183 0 50.254-8.04 65.33-50.254 26.132-67.34 52.264-131.665 76.386-215.086 37.188 94.477 61.31 144.73 90.457 215.086 15.076 32.162 33.167 42.213 56.284 42.213h131.665c-49.249-130.66-81.411-224.132-131.665-355.797-53.269-146.74-23.117-128.65-170.863-132.67-52.264 0-76.386 15.076-94.477 64.325-23.117 68.345-49.249 144.731-90.457 224.132zm472.386-65.33c0 65.33 32.162 130.66 58.294 185.94 6.03 12.06 15.076 23.116 15.076 23.116C873.386 558.294 937.711 398.487 995 260.792c-86.437-9.046-138.7-18.091-170.863 14.071-41.208 53.269-68.345 131.665-68.345 200.01z" style="fill:#000;fill-opacity:1;fill-rule:nonzero;stroke:none;"/>
</svg>
