<svg xmlns="http://www.w3.org/2000/svg" width="1000" height="1000">
  <path d="M500.496 5C223.572 5 5 229.506 5 500.002c0 276.43 224.506 495.001 495.002 495.001 276.43 0 495.001-224.506 495.001-495.001C995.003 226.539 773.464 5 500.496 5zM122.693 623.134c0-4.945 8.9-17.802 14.835-23.736 32.637-19.78 43.517-47.473 48.462-83.078 27.692-154.286 158.242-262.088 313.517-269.012 124.616-4.945 255.166 77.144 304.617 190.88 14.835 30.66 19.78 63.297 32.637 97.913 4.945 24.725 8.901 43.516 30.66 57.362 27.692 11.869 27.692 29.67 17.802 54.396-27.693 56.374-27.693 62.308-91.979 62.308h-592.42c-35.604 0-84.065-50.44-78.131-87.033zm160.22-110.77c-5.934 28.682 0 33.627 28.681 28.682 32.638-4.945 63.297-15.825 96.924-24.726 76.154-8.9 81.099-8.9 81.099-82.088 0-71.209-3.956-94.945-54.396-82.088-76.154 9.89-135.495 73.187-152.308 160.22zM527.2 486.65c0 14.835 10.879 25.714 24.725 25.714 49.45 12.858 106.813 23.737 155.275 28.682 19.78 4.945 24.726 0 24.726-24.726-4.946-78.132-91.979-164.176-173.078-170.11-20.77 0-31.648 5.934-31.648 25.714z" style="fill:#000;fill-opacity:1;fill-rule:nonzero;stroke:none;"/>
</svg>
