<svg xmlns="http://www.w3.org/2000/svg" viewBox="0 0 1000 1000"><path d="M907.005 316.691H501.236C582.87 206.246 647.696 117.41 718.526 6.963h-70.83c-54.022-8.404-81.633 10.804-102.042 45.619-52.821 81.634-106.844 153.664-160.866 225.694-18.008 27.611-38.416 27.611-64.827 27.611H131.482c-27.611 0-44.418 10.804-37.215 37.215v33.614c-7.203 48.02 9.604 56.424 45.619 56.424h134.456C214.317 523.177 149.49 603.61 94.267 684.044c0 0 0 10.805 9.604 10.805h388.962c-73.23 109.245-146.461 198.082-218.491 296.523h72.03c44.418 10.804 74.43-1.2 110.446-54.023 45.619-62.426 88.837-116.448 126.052-170.47 43.218-55.223 70.83-72.03 135.656-72.03h108.045c91.238 0 80.434 16.807 80.434-81.634 0-34.815 0-34.815-44.419-34.815h-144.06c62.426-91.238 126.053-174.072 188.479-261.709zM319.96 567.596c37.215-44.419 64.827-80.434 91.238-118.85 0-7.203 18.007-15.606 18.007-15.606H682.51c-34.814 54.022-72.03 90.037-99.641 126.052 0 8.404-9.604 8.404-16.807 8.404z"
    style="fill:#000;fill-opacity:1;fill-rule:nonzero;stroke:none"/></svg>