<svg xmlns="http://www.w3.org/2000/svg" viewBox="0 0 1000 1000"><path d="M998.625,466.483c-4.764-52.402-22.004-103.442-49.906-148.131-31.985-51.041-77.582-93.234-130.891-120.909-44.235-22.912-93.461-36.069-143.14-37.43-14.972-.681-29.717-.227-44.689-.454-66.239,.227-132.705-.227-198.945,.227-54.216-.454-108.66,0-162.876-.227-19.055,.227-36.295-1.361-54.897,3.856-29.263,8.166-54.443,29.036-67.827,56.485-16.333,32.666-14.518,73.272,4.764,104.35,15.652,25.634,41.967,44.008,71.457,49.679,11.569,2.495,22.685,1.815,34.254,2.042h122.044c8.62,.227,17.24-3.856,23.138-10.208,7.94-9.074,10.435-22.231,5.444-33.346-4.764-11.342-16.333-18.828-28.583-18.828-45.369-.227-90.739,0-136.108-.227-14.518-.227-28.356-7.486-36.522-19.509-10.435-14.518-11.115-35.161-1.361-50.133,8.166-13.157,22.458-21.324,37.883-21.55,56.939,0,113.877,0,170.816-.227,32.212,.227,63.971,13.157,86.429,36.069,22.004,21.55,34.934,51.721,36.295,82.345,1.134,29.263-8.62,58.753-26.768,81.665-22.458,28.356-57.619,46.05-93.915,46.504-58.3,.227-116.599,0-174.899,.227-42.874,.681-82.345,28.583-97.771,68.508-10.208,25.861-9.981,55.577,.681,81.211,12.023,29.49,37.657,52.855,68.054,61.929,10.662,3.403,21.777,4.764,33.12,4.764h134.293c14.972,0,27.902-10.889,30.397-25.634,2.949-14.291-5.444-28.81-18.601-34.254-5.444-2.268-12.023-2.495-17.921-2.495h-127.942c-9.528,0-18.828-2.268-26.541-7.713-14.064-9.301-22.004-26.314-20.189-42.874,1.588-15.879,12.023-30.171,26.541-36.749,7.713-3.63,15.879-4.083,24.273-4.31h164.691c26.314,.227,52.175,8.847,73.271,24.499,23.365,17.24,40.152,42.874,46.504,71.23,7.486,31.078,1.815,65.105-15.199,92.327-21.55,35.388-61.022,58.3-102.535,58.98H124.357c-26.995-.454-51.721-19.509-59.207-45.369-2.949-9.528-2.722-18.828-2.495-28.583V202.206c0-9.528,.907-18.828-4.31-27.448-6.352-10.889-19.282-17.014-31.759-14.972-13.157,1.815-24.499,12.93-26.087,26.087-.681,6.805-.454,13.611-.454,20.416v495.887c-.227,16.787,.227,33.346,5.444,49.453,12.25,41.059,46.504,74.179,88.017,84.841,19.963,5.444,38.564,3.856,58.98,4.083h510.179c43.555-.227,87.109-8.393,127.488-25.18,56.485-23.138,106.618-61.929,143.14-110.928,33.8-45.143,56.031-98.905,63.744-154.71,3.63-27.222,3.63-55.577,1.588-83.253Zm-482.957,34.254c2.268-2.495,4.764-4.537,7.713-6.579,39.244-29.036,65.559-73.952,72.591-122.27,19.509-.227,39.018,0,58.3,0,38.564,.454,76.221,19.282,99.586,49.906,20.87,26.768,30.397,62.156,25.634,95.729-2.949,22.231-11.796,43.328-25.634,61.022-22.912,30.171-59.661,48.999-97.544,49.906-20.189,.227-40.152,0-60.341,.227-2.495-13.838-5.671-27.448-10.662-40.379-13.384-35.388-38.11-66.466-69.642-87.563Zm396.301,117.734c-24.499,53.082-66.466,97.998-117.96,125.9-41.286,22.685-88.47,34.481-135.654,33.8-35.842,0-71.457,.227-107.299,0,22.004-25.634,36.295-54.216,43.328-87.336,21.324,.227,42.647,.227,63.971,0,29.717-.907,59.207-8.847,85.294-23.138,36.749-19.963,66.92-52.628,83.48-91.192,12.93-29.263,18.148-61.929,15.199-93.688-3.176-35.161-16.333-69.415-37.657-97.544-34.708-46.277-90.512-75.086-148.358-75.767h-62.156c-5.898-31.532-21.097-62.61-42.647-86.202,5.898-1.815,11.569-1.134,17.467-1.134h99.586c31.985,.907,63.744,7.032,93.461,18.828,43.101,16.787,81.665,44.462,111.155,79.85,33.8,40.152,55.577,90.058,62.156,142.006,6.805,52.855-.681,107.299-23.365,155.617Zm-245.448-83.026c15.879,.454,30.624-10.889,34.254-26.314,3.856-13.838-2.268-28.81-13.838-36.749-9.074-6.579-21.097-7.94-31.532-4.31-15.879,5.444-25.407,22.231-22.458,38.791,2.722,16.333,17.24,28.583,33.573,28.583Z"/></svg>