<svg xmlns="http://www.w3.org/2000/svg" width="1000" height="1000">
  <path d="M500.496 5C223.572 5 5 229.506 5 500.002c0 276.43 224.506 495.001 495.002 495.001 276.43 0 495.001-224.506 495.001-495.001C995.003 226.539 773.464 5 500.496 5zM185.99 703.244c-90-157.253-66.264-337.254 58.351-461.87 121.65-121.648 301.65-140.44 453.958-50.44 13.846 6.924 35.605 10.88 52.418 10.88 32.637 3.956 51.429 17.802 55.385 51.429 3.956 18.79 5.934 46.483 17.802 61.318C962.366 570.716 786.32 882.256 499.507 878.3c-62.308 3.956-87.033-5.934-190.88-54.396-17.802-6.923-37.582-12.857-56.373-12.857-33.627-3.956-46.484-18.792-51.43-55.385 0-16.813-3.955-38.572-14.834-52.418zm6.923-20.77c12.857 20.77 21.758 38.572 51.428 38.572 31.649-3.956 42.528 17.803 49.451 47.473 2.967 17.802 14.835 34.616 28.682 46.484 132.528 86.044 318.462 60.33 432.199-59.341 112.747-114.726 137.473-299.672 51.429-432.2-7.913-13.846-25.715-23.736-42.528-27.692-29.67-7.912-47.473-19.78-51.429-51.429 0-14.835-9.89-32.637-20.77-38.571-59.34-38.572-121.648-54.396-191.868-54.396-270 0-442.09 294.726-306.594 531.1zm31.648-177.033c0-157.253 111.759-271.979 273.957-271.979 166.155-3.956 281.87 108.792 281.87 271.98 0 163.187-115.715 276.923-275.936 280.88-161.21 0-279.89-117.693-279.89-280.88zm108.792-2.967c0 110.77 67.253 189.89 166.154 189.89C604.343 696.322 677.53 617.2 677.53 505.442c0-110.77-69.231-185.934-170.11-185.934-103.847 0-174.067 75.165-174.067 182.967zm82.088 0c0-46.483 39.56-82.088 89.011-82.088 50.44 0 85.055 39.56 85.055 90-.989 44.506-43.516 84.067-90 84.067-44.505 0-87.033-42.528-84.066-91.979z" style="fill:#000;fill-opacity:1;fill-rule:nonzero;stroke:none;"/>
</svg>
