<svg width="1000" height="1000" viewBox="0 0 1000 1000" fill="none" xmlns="http://www.w3.org/2000/svg">
<path fill-rule="evenodd" clip-rule="evenodd" d="M500 995C773.381 995 995 773.381 995 500C995 226.619 773.381 5 500 5C226.619 5 5 226.619 5 500C5 773.381 226.619 995 500 995ZM201.211 286.731L346.942 141H416.201C397.443 151.822 335.399 229.016 319.527 286.731H201.211ZM486.902 141V286.731H346.942C356.802 256.671 391.96 185.441 453.716 141H486.902ZM515.038 286.731H656.441C623.543 208.238 570.108 156.872 547.503 141H515.038V286.731ZM798.565 286.731H683.856C665.82 243.445 633.211 183.709 586.461 141H651.391L798.565 286.731ZM315.92 715.268H201.211L348.385 861H413.315C366.565 818.291 333.956 758.555 315.92 715.268ZM343.335 715.268H484.738V861H452.273C429.667 845.128 376.233 793.761 343.335 715.268ZM512.874 715.268L512.874 861H546.06C607.816 816.559 642.974 745.329 652.834 715.269L512.874 715.268ZM652.834 861L798.565 715.269H680.249C664.377 772.984 602.333 850.178 583.575 861H652.834ZM766.408 390.042C783.434 390.042 797.574 396.824 808.828 410.387L837.398 373.161C829.029 363.349 818.64 355.99 806.231 351.084C794.111 345.89 780.259 343.293 764.676 343.293C753.999 343.293 743.466 345.169 733.077 348.92C722.688 352.383 713.309 357.866 704.941 365.369C696.86 372.872 690.223 382.395 685.029 393.938C680.123 405.193 677.67 418.756 677.67 434.628C677.67 447.325 679.257 458.291 682.432 467.525C685.895 476.471 690.367 484.407 695.85 491.333C701.622 497.97 708.115 503.742 715.329 508.648C722.832 513.553 730.768 518.026 739.137 522.066C752.412 528.704 763.378 535.918 772.035 543.71C780.692 551.501 785.021 562.034 785.021 575.309C785.021 588.872 781.414 599.405 774.199 606.908C766.985 614.411 757.895 618.163 746.929 618.163C737.117 618.163 727.45 615.854 717.927 611.237C708.692 606.62 700.756 600.271 694.119 592.191L665.983 630.283C674.64 640.383 686.183 648.752 700.612 655.389C715.041 662.026 730.768 665.345 747.794 665.345C759.626 665.345 770.88 663.325 781.558 659.285C792.235 655.245 801.47 649.329 809.261 641.537C817.341 633.457 823.69 623.646 828.307 612.102C833.213 600.559 835.666 587.285 835.666 572.279C835.666 559.293 833.646 548.038 829.606 538.515C825.566 528.992 820.371 520.768 814.023 513.842C807.674 506.916 800.604 501 792.812 496.094C785.021 491.189 777.373 486.86 769.87 483.108C757.173 476.76 746.929 470.122 739.137 463.197C731.345 455.982 727.45 445.882 727.45 432.896C727.45 425.393 728.46 418.9 730.48 413.417C732.788 407.934 735.818 403.461 739.57 399.998C743.321 396.535 747.506 394.082 752.123 392.64C756.74 390.908 761.502 390.042 766.408 390.042ZM387.373 657.553L388.238 422.074H386.94L325.473 657.553H284.784L224.615 422.074H223.317L224.182 657.553H177V351.084H246.691L305.561 575.309H307.293L364.864 351.084H438.018V657.553H387.373ZM499.958 657.553V351.084H637.177V396.968H549.738V478.347H630.684V520.768H549.738V611.237H641.505V657.553H499.958Z" fill="black"/>
</svg>
