<svg xmlns="http://www.w3.org/2000/svg" viewBox="0 0 1000 1000"><path d="M5 500.496c0 271.98 220.55 494.507 495.496 494.507 271.98 0 494.507-220.55 494.507-495.496C995.003 227.528 773.464 5 500.496 5 226.54 5 5 225.55 5 500.496zm112.748 110.77V397.639l1.978-2.967c42.527 0 82.088-3.956 120.66 2.967 52.417 6.923 80.11 63.297 59.34 109.78-6.923 14.835-23.736 24.726-32.637 37.583 11.868 19.78 29.67 42.527 48.461 69.23h-61.318c-1.978 0-10.88-8.9-10.88-10.878-7.912-12.858-18.79-21.759-24.725-35.605-10.88-15.824-23.736-18.791-43.517-13.846v57.363zm57.362-103.847h38.572c21.758-4.945 29.67-14.835 32.637-30.66 0-15.823-7.912-29.67-23.736-31.648H175.11zm2.967 170.11v-46.483h52.418c4.945 1.978 4.945 1.978 4.945 4.945-6.923 22.747 7.912 29.67 24.726 39.56 78.132 46.484 157.253 91.979 236.374 136.485 8.901 2.967 15.824 8.9 20.77 0 84.066-48.462 164.176-92.968 245.275-139.451 13.846-9.89 20.77-15.825 16.813-30.66 0-1.978 3.956-8.9 3.956-10.879h51.429v57.363c0 3.956-8.901 10.879-12.857 13.846-64.286 35.605-127.583 71.21-187.913 107.803-41.539 22.747-80.11 41.538-116.704 64.286-8.9 6.923-15.824 6.923-20.769 0-101.868-59.341-203.737-116.704-304.616-175.056-8.901-4.945-13.847-10.88-13.847-21.758zm0-316.484v-40.55c0-3.956 7.913-11.868 13.847-13.846 62.308-36.593 123.626-72.198 185.934-107.802 39.561-24.726 77.144-45.495 113.737-69.231 9.89-2.967 20.77-2.967 29.67 2.967 98.902 55.385 200.77 115.714 300.66 174.066 9.891 4.945 12.858 9.89 12.858 21.759v32.637h-51.429c1.978-18.791-13.846-22.747-23.736-28.681-81.1-46.484-158.242-92.968-238.353-137.473-8.9-6.923-15.824-6.923-24.725 0-83.077 44.505-164.176 95.934-250.22 141.429-7.913 5.934-15.825 11.868-10.88 24.725zm142.419 253.188V394.672h103.846c12.857 0 25.714 5.934 39.56 13.846 32.638 16.813 35.605 68.242 2.968 84.066-2.967 0-2.967 3.956-6.923 3.956 6.923 1.978 9.89 5.934 11.868 5.934 19.78 10.88 29.67 23.737 29.67 42.528 3.956 22.747-1.978 42.527-21.758 52.418-15.824 5.934-36.594 7.912-52.418 13.846-7.912 2.967-16.813 2.967-23.736 2.967zM374.89 476.76h42.528c9.89 0 16.813-7.912 16.813-15.824 0-10.88-6.923-15.825-16.813-15.825H374.89zm2.967 88.022c16.814 0 32.638 0 49.451-2.967 9.89-2.967 15.824-9.89 15.824-18.791-3.956-10.88-8.9-16.813-18.79-16.813-13.847-3.957-29.671-3.957-46.485-3.957zm137.473 49.45v-219.56h56.374v164.176h97.913v44.506c1.978 0 1.978 0 6.923 1.978 0-1.978 1.978-4.945 1.978-7.912 15.824-29.67 35.604-54.396 51.428-84.067 8.902-5.934 8.902-14.835 0-20.769-15.824-29.67-32.637-54.396-48.461-81.1-2.967-6.922-4.945-10.878-9.89-16.812h58.351c2.968 0 10.88 5.934 13.847 9.89 13.846 20.769 25.714 40.55 39.56 58.352 11.868-17.803 26.704-35.605 35.605-51.43 6.923-13.845 15.824-20.768 32.637-16.812h42.528c-3.956 5.934-6.923 9.89-9.89 16.813-16.814 26.703-32.638 51.429-49.451 79.121-5.934 7.912-5.934 16.813 0 25.714 16.813 26.704 32.637 51.43 52.418 79.122 0 4.945 2.967 7.912 9.89 18.79h-60.33c-1.978-2.966-7.912-8.9-10.88-10.878-9.89-15.825-23.735-35.605-33.626-51.43-1.978-2.966-6.923-6.922-8.9-13.845-13.847 20.769-25.715 32.637-36.594 52.417-7.912 20.77-22.748 23.737-41.539 23.737-59.34-2.967-115.715 0-173.077 0z"/></svg>