<svg xmlns="http://www.w3.org/2000/svg" width="1000" height="1000">
  <path d="m427.663 818.688-7.124-24.933c-56.988-117.538-117.538-235.077-167.403-354.99-39.18-93.794-49.865-192.337-5.937-289.692 23.745-53.427 66.487-90.232 125.85-117.539-4.75 9.498-9.498 9.498-9.498 11.873-93.794 64.112-124.663 157.905-116.352 268.32 5.937 79.547 33.244 155.532 66.487 226.767 34.43 73.61 66.486 148.408 98.542 220.83 4.75 10.686 4.75 22.559 8.311 34.431 10.686 10.686 21.371 29.682 33.244 32.056 24.932 4.75 52.24 5.937 77.172 3.562 11.872 0 28.494-10.685 34.43-20.183 53.427-122.288 108.04-242.201 159.093-366.864 36.805-89.044 47.49-185.212 10.685-276.631C701.92 82.586 641.37 20.849 551.138 8.976 439.535-5.27 331.495 18.474 235.327 84.961 151.03 143.137 116.6 226.245 139.159 327.162c11.872 53.427 29.681 105.666 56.988 154.344C255.51 585.985 329.12 678.59 389.671 781.883c8.31 14.247 22.557 27.307 30.868 41.554 2.375-2.375 4.75-2.375 7.124-4.75zm-52.24-563.949c1.188-51.052 14.248-103.291 27.307-154.344 9.498-27.307 28.495-48.677 45.116-73.61-72.423 142.471-55.8 292.066-35.618 440.474 10.686 80.733 27.307 159.093 41.555 238.64 2.374 7.123 2.374 14.246 2.374 22.557h-4.749c-3.562-20.183-9.498-37.992-11.873-58.176-29.681-136.535-67.673-273.07-64.112-415.54zm41.555 616.188c3.561 28.495 3.561 55.802 3.561 83.109 0 24.932 14.247 39.18 35.618 39.18 28.494 2.374 59.363 2.374 86.67 0 24.933 0 36.805-16.623 36.805-39.18 2.375-24.933 2.375-46.304 2.375-71.236-2.375-39.18-2.375-39.18-43.929-39.18h-90.232c-22.558-3.561-30.868 7.124-30.868 27.307zM563.01 644.161c29.681-197.086 78.359-391.796 7.123-590.069 7.124 8.311 11.873 16.622 17.809 28.494 27.307 61.738 33.243 125.85 35.618 189.962 0 127.037-30.869 250.512-60.55 371.613zm4.749 176.901c2.374 0 4.749 2.375 9.498 2.375 10.685-11.873 17.809-24.933 27.307-36.805L744.66 572.925c32.056-56.989 68.862-111.603 93.794-173.34 27.307-53.427 36.805-113.977 22.558-175.715C830.144 112.268 747.036 58.841 641.37 33.91c7.123 7.123 17.809 14.247 27.307 20.183 62.925 39.18 99.73 103.292 108.04 179.276 8.311 71.236 0 142.472-27.307 205.397-46.303 108.04-100.917 210.145-150.782 315.81-8.31 21.371-18.996 43.93-30.868 66.487z" style="fill:#000;fill-opacity:1;fill-rule:nonzero;stroke:none;"/>
</svg>
