<svg xmlns="http://www.w3.org/2000/svg" width="1000" height="1000">
  <path d="M6.858 172.296V156.55l45.924 20.994c125.964 72.167 254.552 145.646 376.58 217.813 44.612 27.554 64.294 64.294 64.294 112.842v460.556c0 9.185-2.624 14.433-2.624 26.243-30.18-17.058-61.67-34.116-86.6-52.485-34.116-15.746-68.231-40.676-106.283-59.046-48.548-19.682-52.485-68.23-52.485-110.218 0-51.173 3.937-104.97 0-149.583 0-35.427-17.057-56.42-43.3-73.479-53.797-28.866-106.282-60.357-157.455-90.536-26.242-17.058-38.051-36.74-38.051-68.23-3.936-73.48 0-144.334 0-219.125zm11.809-39.364c34.115-17.058 64.294-36.74 94.473-53.797 35.427-15.746 65.606-39.364 98.41-56.421 34.114-22.306 65.605-17.058 95.784 0 51.173 24.93 97.097 56.421 146.958 85.288 36.74 17.057 65.606 17.057 97.097-3.937 49.861-30.179 102.346-56.421 152.207-85.288 24.93-18.37 56.421-18.37 82.663 0 59.046 35.428 124.652 68.23 183.698 106.282 5.248 0 9.185 5.249 17.057 14.434-34.115 17.057-64.294 32.803-94.472 51.173-97.098 59.045-200.755 115.466-299.165 175.824-9.185 3.936-17.057 7.873-30.179 15.746-43.3 22.306-85.288 22.306-128.588-3.937-64.294-38.051-127.276-77.415-192.882-111.53-68.23-36.74-132.524-76.103-196.819-116.78-9.184-2.624-17.057-7.872-26.242-17.057zm493.359 854.193V508.199c0-52.484 15.745-85.288 59.045-108.906 82.664-45.924 157.455-93.16 240.119-140.397 52.485-28.867 108.906-60.358 158.767-94.473 9.185 0 14.433-3.936 22.306-7.873 0 11.81 2.624 15.746 2.624 24.93V378.3c0 38.05-15.745 69.542-55.109 85.287-51.173 26.243-97.097 60.358-150.894 90.537-28.867 17.057-36.74 44.612-36.74 73.479v179.76c0 28.867-13.121 56.422-39.363 66.92-62.982 39.363-128.589 74.79-188.946 108.905-3.937 3.937-3.937 3.937-11.81 3.937z" style="fill:#000;fill-opacity:1;fill-rule:nonzero;stroke:none;"/>
</svg>
