<svg xmlns="http://www.w3.org/2000/svg" viewBox="0 0 1000 1000"><path d="M500 993.83C225.521 992.655 5 772.134 5 496.482 6.173 226.696 229.04 6.175 501.173 6.175c273.306 1.173 493.828 221.694 493.828 495 0 272.133-221.695 492.654-495 492.654zM50.747 498.828c0 247.5 200.58 449.254 449.253 449.254 247.5 1.173 450.427-199.408 450.427-445.735C951.6 253.675 748.673 51.92 501.173 51.92c-247.5 0-450.426 200.58-450.426 446.908zM264.23 684.16c11.73-10.557 21.114-17.595 30.498-25.806 14.076 12.903 28.151 25.806 41.054 38.709 50.439 43.4 107.915 65.687 175.948 59.822 10.557 0 23.46-2.346 35.19-5.865 34.016-11.73 60.995-32.844 64.514-71.552 5.865-36.363-19.94-57.477-50.438-72.725-38.709-18.768-78.59-34.017-117.299-51.612-32.844-17.595-68.033-32.843-97.358-56.303-90.32-69.206-77.417-208.792 25.806-259.23 105.569-50.439 208.791-41.055 303.803 31.67 19.941 14.076 36.363 31.671 56.304 49.266-9.384 10.557-17.595 19.94-24.633 29.325-18.768-16.422-35.19-34.017-52.784-49.266-42.228-34.016-89.147-50.438-141.932-52.784-9.384 0-19.94 0-29.325 1.173-41.054 7.038-71.552 30.497-77.417 62.168-5.865 38.709 15.25 64.514 45.747 80.936 38.708 21.114 79.763 37.536 119.644 57.476 31.671 14.076 63.342 29.325 92.666 46.92 99.704 60.995 96.185 200.58-8.21 260.403-110.261 62.168-255.712 48.092-350.723-36.363-12.903-11.73-25.806-23.46-41.055-36.362zm90.32-229.906c23.46 23.46 53.957 41.055 83.282 55.13 42.228 22.288 90.32 37.536 133.72 58.65 75.072 36.363 91.493 75.071 65.688 156.007 82.109-53.957 83.282-143.104 4.692-193.542-36.363-24.633-80.936-38.709-120.818-59.823-37.536-18.768-76.244-36.362-110.26-58.65-41.055-29.324-51.612-71.551-36.363-119.644 1.173-4.692 2.346-10.557 4.692-18.767-63.342 41.054-73.898 127.855-24.633 180.64z"/></svg>