<?xml version="1.0" encoding="utf-8"?>
<!-- Generator: Adobe Illustrator 26.0.1, SVG Export Plug-In . SVG Version: 6.00 Build 0)  -->
<svg version="1.1" id="Layer_1" xmlns="http://www.w3.org/2000/svg" xmlns:xlink="http://www.w3.org/1999/xlink" x="0px" y="0px"
	 viewBox="0 0 1000 1000" style="enable-background:new 0 0 1000 1000;" xml:space="preserve">
<style type="text/css">
	.st0{fill-rule:evenodd;clip-rule:evenodd;}
</style>
<path class="st0" d="M385.9,7.6h-94.7L91.8,206.9h161.8C275.3,128,360.2,22.4,385.9,7.6z M908.8,206.9L707.5,7.6h-88.8
	C682.7,66,727.3,147.7,752,206.9H908.8z M91.8,793.1l201.3,199.3h88.8C318,934,273.4,852.3,248.7,793.1H91.8z M565.4,7.6H521v199.3
	h193.4C669.5,99.6,596.4,29.3,565.4,7.6z M482.6,206.9V7.6h-45.4c-84.5,60.8-132.6,158.2-146,199.3L482.6,206.9L482.6,206.9z
	 M518.1,793.1v199.3h45.4c84.5-60.8,132.6-158.2,146-199.3H518.1z M435.2,992.4h44.4V793.1H286.2
	C331.2,900.4,404.3,970.7,435.2,992.4z M614.8,992.4h94.7l199.3-199.3H747C725.3,872,640.4,977.6,614.8,992.4z M176,319.8h71.1
	l99.2,368.1h-63.6l-20.5-77.1H160.9l-20.5,77.1H76.8L176,319.8z M247.1,555.2l-10-37.1c-13.4-49.1-21.9-88.8-25.5-119.2
	c-3.7,30.4-12.2,70.1-25.5,119.2l-10,37.1H247.1z M389.3,319.8h108.2c10.3,0,20.6,0.8,30.8,2.5c10.2,1.7,19.9,4.8,29.3,9.3
	c9.3,4.5,17.9,10.3,25.5,17.3c7.7,7,13.9,15.2,18.8,24.5c4.8,9.4,8.2,19.1,10,29.3c1.8,10.2,2.8,20.5,2.8,30.8v140.7
	c0,10.4-0.9,20.6-2.8,30.8c-1.8,10.2-5.2,20-10,29.3c-4.8,9.4-11.1,17.5-18.8,24.5c-7.7,7-16.2,12.8-25.5,17.3
	c-9.4,4.5-19.1,7.6-29.3,9.3c-10.2,1.7-20.5,2.5-30.8,2.5H389.3V319.8z M497.5,632.3c7.7,0,15.2-1.2,22.5-3.5
	c7.3-2.3,13.6-6.4,18.8-12.3c5.2-5.8,8.8-12.4,11-19.8c2.2-7.3,3.3-14.9,3.3-22.5V433.5c0-7.7-1.1-15.3-3.3-22.8
	c-2.2-7.5-5.8-14.1-11-19.8c-5.2-5.7-11.4-9.7-18.8-12c-7.3-2.3-14.9-3.5-22.5-3.5h-46.6v256.9H497.5z M752.9,688.4
	c-11.7-2.3-22.7-6.6-33.1-12.8c-10.4-6.2-19.2-14-26.5-23.5c-7.3-9.5-12.4-20.1-15.3-31.8c-2.8-11.7-4.3-23.5-4.3-35.6V423
	c0-12,1.4-23.9,4.3-35.6c2.8-11.7,7.9-22.3,15.3-31.8c7.3-9.5,16.2-17.4,26.5-23.5c10.3-6.2,21.4-10.4,33.1-12.8
	c11.7-2.3,23.5-3.5,35.6-3.5c12,0,23.9,1.2,35.6,3.5c11.7,2.3,22.7,6.6,33.1,12.8c10.3,6.2,19.2,14,26.5,23.5
	c7.3,9.5,12.4,20.1,15.3,31.8c2.8,11.7,4.3,23.5,4.3,35.6v161.8c0,12-1.4,23.9-4.3,35.6c-2.8,11.7-7.9,22.3-15.3,31.8
	c-7.3,9.5-16.2,17.4-26.5,23.5c-10.4,6.2-21.4,10.4-33.1,12.8c-11.7,2.3-23.5,3.5-35.6,3.5C776.5,691.9,764.6,690.7,752.9,688.4z
	 M809.3,633.3c6.8-2,12.8-5.5,18-10.5c5.2-5,8.8-10.8,11-17.5c2.2-6.7,3.3-13.5,3.3-20.5V423c0-7-1.1-13.9-3.3-20.8
	c-2.2-6.8-5.8-12.7-11-17.5c-5.2-4.8-11.2-8.3-18-10.3c-6.8-2-13.8-3-20.8-3s-13.9,1-20.8,3c-6.8,2-12.9,5.4-18,10.3
	c-5.2,4.8-8.9,10.7-11,17.5c-2.2,6.8-3.3,13.8-3.3,20.8v161.8c0,7,1.1,13.9,3.3,20.5c2.2,6.7,5.8,12.5,11,17.5
	c5.2,5,11.2,8.5,18,10.5c6.8,2,13.8,3,20.8,3S802.4,635.3,809.3,633.3z"/>
</svg>
