<?xml version="1.0" encoding="utf-8"?>
<!-- Generator: Adobe Illustrator 26.0.1, SVG Export Plug-In . SVG Version: 6.00 Build 0)  -->
<svg version="1.1" xmlns="http://www.w3.org/2000/svg" xmlns:xlink="http://www.w3.org/1999/xlink" x="0px" y="0px"
	 viewBox="0 0 1000 1000" style="enable-background:new 0 0 1000 1000;" xml:space="preserve">
<g id="Layer_1">
	<g>
		<path d="M511,473c8.5-22.4,4.6-44.2-7.8-48.7c-12.4-4.5-29.4,9.6-37.9,32c-8.5,22.4-4.6,44.2,7.8,48.7
			C485.6,509.6,502.5,495.5,511,473z"/>
		<path d="M417,424.3c-12.4-4.5-29.4,9.6-37.9,32c-8.5,22.4-4.6,44.2,7.8,48.7c12.4,4.5,29.4-9.6,37.9-32
			C433.3,450.6,429.4,428.8,417,424.3z"/>
		<path d="M500.5,5C223.6,5,5,229.5,5,499.5C5,773.5,226.5,995,499.5,995C776.4,995,995,770.5,995,499.5C995,223.6,770.5,5,500.5,5z
			 M260.8,267.9c66-68.6,158.1-108.3,254.1-108.3c110.4,0,214.9,51.9,280.2,139.7c0,0,15,21.2,15,43.6c0,39.1-32.7,71.2-72.5,71.2
			c-21.6,0-41.8-9.6-55.5-25.6c-0.7-0.6-1.3-1.3-2-1.9c-36.6-51.3-96.7-84.6-165.3-84.6c-54.2,0-105.2,20.5-143.7,59L172.6,555.7
			c-2-10.3-3.3-20.5-3.9-31.4C162.2,428.8,194.9,337.8,260.8,267.9z M398.7,796.7c3.3-11.5,2.6-25-3.3-35.9
			c-15-27.6-44.4-38.5-71.2-28.8l-11.8,4.5c-18.3,7-35.3-7.7-28.7-29.5c0,0,9.1-30.8-5.2-49.4c-17-22.4-39.8-24.4-70.6-16
			l-29.4,10.9c-31.4,12.8-37.2-13.5-27.4-23.1c0,0,156.1-153.2,220.1-216c17.6-17.3,37.2-33.3,58.1-46.8l2-1.3
			c24.2-16,52.3-25.6,81.7-26.3c84.9-0.6,155.5,62.2,164.6,142.3h-90.1c-0.7,0-2,0-2.6,0c-24.2,0.6-46.4,10.3-63.4,27.6
			c-17.6,17.9-26.8,41-26.1,66c1.3,44.9,39.8,82.7,86.2,87.2L428.1,813.4C415.7,825.6,394.1,813.4,398.7,796.7z M491.4,839.7
			c-11.1-0.6-21.6-1.9-32-3.8L626,672.4c7.8-7.7,10.5-19.9,5.9-30.1c-4.6-10.9-14.4-17.3-26.1-17.3h-14.4c-30,0-56.8-23.7-57.5-51.3
			c-0.7-14.1,4.6-28.2,15-38.5c10.5-10.3,24.2-16,39.2-16c0.7,0,0.7,0,1.3,0h209.7c17,0,32,7.7,42.5,20.5
			c10.5,12.8,13.7,30.1,10.5,46.2C810.2,744.2,658,850.6,491.4,839.7z"/>
	</g>
</g>
<g id="Layer_2">
</g>
</svg>
