<svg xmlns="http://www.w3.org/2000/svg" viewBox="0 0 1000 1000"><path d="M892.369 427.08H189.106c0-162.041 56.174-164.202 225.778-164.202 159.882 0 325.165 3.24 486.127 3.24 72.379 0 82.101-10.802 89.663-64.816 4.322-55.094-8.642-71.299-77.78-73.46-90.744-5.4-183.648-8.641-274.391-8.641-137.196 0-273.311 0-411.587 14.043C94.04 146.208 28.144 213.185 11.94 342.82c-10.803 109.108-7.562 214.976 0 324.084 16.204 129.634 75.62 194.45 204.173 203.093C438.65 880.8 662.269 880.8 889.128 880.8c47.532 0 109.108-10.803 101.546-81.021-7.562-65.897-66.977-62.656-109.108-62.656-192.29-2.161-380.259 3.24-571.469-7.562-119.911-2.161-117.75-48.613-117.75-157.721H895.61c46.452 0 99.385-7.562 99.385-76.7-4.32-70.219-55.094-68.058-102.626-68.058z"/></svg>