<svg xmlns="http://www.w3.org/2000/svg" viewBox="0 0 1000 1000"><path d="M500,0C223.858,0,0,223.858,0,500s223.858,500,500,500,500-223.858,500-500S776.142,0,500,0Zm13.772,606.049c12.899,0,24.886-14.501,24.886-30.614v-29.003c40.311-1.611,72.497-6.445,107.97-12.89,1.612,0,19.349,1.611,20.962,25.78v64.451c-49.985,11.279-106.42,17.724-167.693,17.724-172.53,0-316.036-51.56-345.06-119.233-3.225-9.668-4.837-17.724-4.837-25.78,0-16.113,6.45-30.614,17.737-45.115,46.76,54.783,173.718,95.065,320.449,96.676v27.391c0,17.724,12.687,30.614,25.586,30.614Zm-13.772,180.951c-194.266,0-350-65.778-350-144.391,0-16.043,8.028-33.691,22.477-48.13,49.771,54.548,178.211,94.656,329.128,94.656,59.404,0,117.202-6.417,166.972-17.648v35.296c0,12.835,11.239,24.065,24.083,24.065s24.083-11.23,24.083-24.065v-49.735c49.771-16.043,88.303-38.504,112.385-64.174,12.844,16.043,20.872,32.087,20.872,49.735,0,80.217-157.339,144.391-350,144.391Zm219.188-169.673v-80.563c1.612-6.445,3.225-16.113,12.899-19.335,12.899-4.834,24.186-9.668,33.861-14.501,43.536-22.558,59.66-40.282,66.11-49.949,11.287,14.501,19.349,30.614,17.737,48.338,0,9.668-1.612,17.724-4.837,25.78-16.124,37.059-61.272,67.673-125.77,90.231Zm125.985-232.268c-25.747,62.713-151.264,112.562-305.747,118.994,0-28.945,0-61.105,11.264-82.01,12.874-24.12,61.149-35.377,72.414-41.809,27.356-11.256,45.057-25.729,45.057-43.417,0-33.769-69.195-61.105-154.483-61.105s-154.483,27.336-154.483,61.105c0,9.648,4.828,17.688,12.874,25.729l4.828,4.824c4.828,3.216,11.264,6.432,17.701,9.648,19.31,11.256,62.759,27.337,74.023,38.593,17.701,17.688,19.31,57.889,19.31,86.834v1.608c-167.356-1.608-304.138-53.065-333.104-118.994-3.218-8.04-4.828-17.688-4.828-25.729,0-80.402,156.092-146.331,350.805-146.331,193.103,0,349.195,65.929,349.195,146.331,0,9.648-1.609,17.688-4.828,25.729Z"/></svg>
