<svg xmlns="http://www.w3.org/2000/svg" viewBox="0 0 1000 1000"><path d="M500.496 5C223.572 5 5 229.506 5 500.002c0 276.43 224.506 495.001 495.002 495.001 276.43 0 495.001-224.506 495.001-495.001C995.003 226.539 773.464 5 500.496 5zM152.363 557.859c0-13.846 12.857-25.714 26.704-25.714 14.835 0 26.703 10.879 26.703 25.714 0 14.835-11.868 26.703-26.703 27.692-13.847 0-26.704-12.857-26.704-27.692zm0-128.572c0-13.846 12.857-26.703 27.693-26.703 13.846 0 25.714 12.857 25.714 27.692-.99 13.846-12.857 25.714-26.703 25.714-13.847 0-26.704-12.857-26.704-26.703zM274.012 557.86c0-21.758 16.813-39.56 38.571-39.56 22.748 0 39.561 17.802 39.561 39.56 0 22.747-17.802 40.55-39.56 39.56-21.759 0-38.572-16.813-38.572-39.56zm0-128.572c0-20.77 16.813-39.56 38.571-39.56 22.748 0 39.561 18.79 39.561 39.56 0 21.758-16.813 40.55-39.56 40.55-20.77 0-38.572-18.792-38.572-40.55zm118.682 133.517c.989-29.67 23.736-53.407 54.395-53.407 28.682 0 52.418 24.726 52.418 54.396 0 28.681-24.725 52.418-53.407 52.418-30.66 0-53.406-23.737-53.406-53.407zm0-131.539c0-29.67 22.747-53.407 53.406-53.407 28.682 0 53.407 22.748 53.407 51.43 0 31.648-23.736 54.395-53.407 54.395-29.67.989-52.417-22.747-53.406-52.418zm13.846 263.078c0-21.758 17.802-39.56 39.56-39.56 21.759 0 39.56 18.79 39.56 40.549-.988 21.758-17.801 39.56-39.56 39.56-21.758 0-39.56-17.802-39.56-40.55zm0-397.584c0-20.77 16.813-39.56 39.56-39.56 21.759 0 38.572 17.802 39.56 39.56 0 21.759-17.801 39.56-39.56 39.56-21.758 0-39.56-17.801-39.56-39.56zm13.846 533.079c0-14.835 9.89-25.714 24.725-25.714 15.825-.99 27.693 10.879 28.682 25.714 0 14.835-13.846 26.703-27.693 26.703-14.835 0-25.714-11.868-25.714-26.703zm0-666.596c0-15.824 10.88-26.703 26.703-26.703 13.847 0 26.704 11.868 26.704 26.703 0 14.835-13.846 27.693-27.693 27.693-15.824 0-25.714-12.858-25.714-27.693zm100.88 400.551c0-30.66 24.725-54.396 53.406-54.396 29.67 0 54.396 23.737 54.396 53.407 0 28.681-24.725 53.407-54.396 53.407-28.681 0-53.407-23.737-53.407-52.418zm6.923-133.517c0-29.67 23.736-52.418 54.395-52.418 28.682 0 52.418 23.737 52.418 53.407 0 29.67-24.725 52.418-53.407 52.418-29.67 0-52.417-22.747-53.406-53.407zm7.912 265.056c0-22.747 17.802-40.55 38.571-40.55 22.748 0 39.56 17.803 39.56 40.55 0 22.747-17.801 39.56-39.56 39.56-21.758 0-38.571-17.802-38.571-39.56zm0-399.562c0-20.77 16.813-38.571 38.571-38.571 22.748 0 39.56 18.79 39.56 41.538 0 19.78-17.801 37.583-39.56 37.583-21.758 0-38.571-17.802-38.571-40.55zm11.868 534.068c0-14.835 11.868-25.714 26.703-25.714 14.835-.99 26.704 10.879 26.704 25.714 0 14.835-10.88 26.703-26.704 26.703-14.835 0-26.703-10.879-26.703-26.703zm0-666.596a26.592 26.592 0 0 1 26.703-26.703c15.824 0 26.704 11.868 26.704 26.703 0 14.835-11.869 27.693-26.704 27.693-14.835-.99-26.703-11.869-26.703-27.693zM670.607 557.86c0-21.758 18.79-39.56 40.55-39.56 21.758 0 38.57 17.802 38.57 39.56 0 22.747-17.801 40.55-39.56 39.56-20.77 0-39.56-17.802-39.56-39.56zm0-128.572c0-20.77 18.79-39.56 40.55-39.56 20.769 0 38.57 18.79 38.57 40.55-.988 20.768-18.79 39.56-39.56 39.56-20.77 0-39.56-19.78-39.56-40.55zM818.959 557.86c.989-14.835 11.868-25.714 27.692-25.714 13.846 0 25.715 10.879 25.715 25.714 0 14.835-10.88 26.703-25.715 27.692-14.835 0-27.692-12.857-27.692-27.692zm0-128.572c0-13.846 11.868-26.703 27.692-26.703 13.846 0 25.715 12.857 25.715 26.703 0 14.835-11.869 26.704-25.715 26.704-14.835 0-26.703-11.869-27.692-26.704z"/></svg>