<svg xmlns="http://www.w3.org/2000/svg" width="1000" height="1000">
  <path d="M129.4 395.632c-5.242-5.243-16.777-16.777-25.166-16.777-38.798-13.632-82.839 16.777-93.325 61.867-29.36 112.2 54.527 216.011 166.727 221.254 118.492 0 227.546-34.604 321.92-109.054 18.874 10.486 37.749 29.36 58.72 39.847 79.694 44.04 163.582 69.207 255.859 69.207 115.345 0 192.942-89.13 179.31-202.38-5.243-45.089-24.118-74.45-63.965-83.887-24.117-6.292-50.332 3.146-59.77 25.166h18.875c35.652 5.243 54.527 39.847 50.333 74.45-5.243 23.07-30.41 33.556-63.965 23.07-18.874-9.437-45.09-23.07-63.964-38.798-50.333-34.604-94.374-74.45-147.852-102.763-54.527-29.36-104.86-19.923-147.853 22.02-5.243 6.292-10.486 11.535-15.729 16.778-68.158-68.158-113.248-74.45-191.893-26.215-45.09 31.458-84.936 63.965-122.686 94.374-19.923 14.68-46.138 30.41-72.353 34.604-32.507 10.486-53.478-9.437-53.478-44.041 6.291-33.555 26.214-48.236 70.256-58.722z" style="fill:#000;fill-opacity:1;fill-rule:nonzero;stroke:none"/>
</svg>
