<?xml version="1.0" encoding="UTF-8"?><svg id="a" xmlns="http://www.w3.org/2000/svg" viewBox="0 0 1000 1000"><path d="M821.953,380.985c20.89,20.89,20.89,54.76,0,75.65-20.89,20.89-54.76,20.89-75.651,0-20.89-20.89-20.89-54.76,0-75.65,20.89-20.89,54.76-20.89,75.651,0Zm-255.32,198.582c-15.668,15.668-15.668,41.07,0,56.738,15.668,15.668,41.07,15.668,56.738,0,15.668-15.668,15.668-41.07,0-56.738-15.668-15.668-41.07-15.668-56.738,0Zm283.688-94.563c-15.668,15.668-15.668,41.07,0,56.738,15.668,15.668,41.071,15.668,56.738,0,15.668-15.668,15.668-41.07,0-56.738-15.668-15.668-41.07-15.668-56.738,0Zm-94.563,94.563c-15.668,15.668-15.668,41.07,0,56.738,15.668,15.668,41.07,15.668,56.738,0,15.668-15.668,15.668-41.07,0-56.738-15.668-15.668-41.07-15.668-56.738,0Zm236.407,9.456c-10.445-10.445-27.38-10.445-37.825,0-10.445,10.445-10.445,27.38,0,37.825,10.445,10.445,27.38,10.445,37.825,0,10.445-10.445,10.445-27.38,0-37.825Zm-132.388,94.563c-10.445,10.445-10.445,27.38,0,37.825,10.445,10.445,27.38,10.445,37.825,0,10.445-10.445,10.445-27.38,0-37.825-10.445-10.445-27.38-10.445-37.825,0Zm-208.038-208.039c-20.89,20.89-20.89,54.76,0,75.651,20.89,20.89,54.76,20.89,75.65,0,20.89-20.89,20.89-54.76,0-75.651-20.89-20.89-54.76-20.89-75.65,0Zm75.65-113.475c20.89-20.89,20.89-54.76,0-75.651-20.89-20.89-54.76-20.89-75.65,0-20.89,20.89-20.89,54.76,0,75.651,20.89,20.89,54.76,20.89,75.65,0Zm-94.563,94.563c20.89-20.89,20.89-54.76,0-75.65-20.89-20.89-54.76-20.89-75.651,0-20.89,20.89-20.89,54.76,0,75.65,20.89,20.89,54.76,20.89,75.651,0Zm-265.655-75.65c-20.89,20.89-20.89,54.76,0,75.65,20.89,20.89,54.76,20.89,75.651,0s20.89-54.76,0-75.65c-20.89-20.89-54.76-20.89-75.651,0Zm-179.669,198.582c-15.668,15.668-15.668,41.07,0,56.738,15.668,15.668,41.07,15.668,56.738,0,15.668-15.668,15.668-41.07,0-56.738-15.668-15.668-41.07-15.668-56.738,0Zm283.688-94.563c-15.668,15.668-15.668,41.07,0,56.738s41.071,15.668,56.738,0c15.668-15.668,15.668-41.07,0-56.738-15.668-15.668-41.07-15.668-56.738,0Zm-94.563,94.563c-15.668,15.668-15.668,41.07,0,56.738,15.668,15.668,41.07,15.668,56.738,0,15.668-15.668,15.668-41.07,0-56.738-15.668-15.668-41.07-15.668-56.738,0ZM7.834,589.024c-10.445,10.445-10.445,27.38,0,37.825,10.445,10.445,27.38,10.445,37.825,0,10.445-10.445,10.445-27.38,0-37.825s-27.38-10.445-37.825,0Zm94.563,94.563c-10.445,10.445-10.445,27.38,0,37.825s27.38,10.445,37.825,0c10.445-10.445,10.445-27.38,0-37.825-10.445-10.445-27.38-10.445-37.825,0Zm378.251,0c-10.445,10.445-10.445,27.38,0,37.825s27.38,10.445,37.825,0c10.445-10.445,10.445-27.38,0-37.825-10.445-10.445-27.38-10.445-37.825,0ZM92.94,485.005c-15.668,15.668-15.668,41.07,0,56.738,15.668,15.668,41.07,15.668,56.738,0,15.668-15.668,15.668-41.07,0-56.738-15.668-15.668-41.07-15.668-56.738,0Zm179.67-9.457c-20.89,20.89-20.89,54.76,0,75.651,20.89,20.89,54.76,20.89,75.65,0,20.89-20.89,20.89-54.76,0-75.651-20.89-20.89-54.76-20.89-75.65,0Zm75.65-113.475c20.89-20.89,20.89-54.76,0-75.651s-54.76-20.89-75.65,0c-20.89,20.89-20.89,54.76,0,75.651,20.89,20.89,54.76,20.89,75.65,0Zm-94.563,94.563c20.89-20.89,20.89-54.76,0-75.65-20.89-20.89-54.76-20.89-75.651,0-20.89,20.89-20.89,54.76,0,75.65s54.76,20.89,75.651,0Z"/></svg>