<svg xmlns="http://www.w3.org/2000/svg" width="1000" height="1000">
  <path d="M5 500.496c0-90 22.747-173.077 67.253-250.22 44.506-74.177 103.846-133.517 178.023-178.023C327.419 27.747 410.496 5 500.496 5c89.011 0 172.089 22.747 249.232 67.253 74.176 44.506 133.517 103.846 178.022 178.023 44.506 77.143 67.253 160.22 67.253 249.231 0 90-22.747 173.078-67.253 250.22-44.505 74.177-103.846 133.518-178.022 178.023-77.143 44.506-160.22 67.253-249.232 67.253-90 0-173.077-22.747-250.22-67.253-74.177-44.505-133.517-103.846-178.023-178.022C27.747 672.585 5 589.508 5 500.496zM118.737 375.88c1.978 46.484 41.538 83.078 87.033 83.078 46.484-1.978 83.077-39.561 83.077-87.034-1.978-46.483-39.56-83.077-87.033-83.077-46.484 1.978-83.077 38.572-83.077 87.033zm21.758 258.133c0 63.297 48.462 113.737 111.759 111.759 61.318 0 110.77-52.418 106.813-113.737-1.978-57.363 50.44-93.956 102.858-74.176 10.879 3.956 23.736 5.934 36.593 5.934 57.363 1.978 109.78-32.637 133.517-87.033 19.78-50.44 79.121-68.242 122.638-37.583 19.78 12.857 41.538 17.803 65.275 10.88 35.604-5.935 61.319-39.561 63.297-74.177 4.945-39.56-18.792-72.198-54.396-85.055-34.616-12.857-74.176 0-93.956 30.66-30.66 43.516-91.979 47.472-128.572 10.879-28.682-32.638-66.264-48.462-109.78-48.462-43.518 0-72.199-41.539-58.353-83.077 1.978-8.901 3.956-14.835 3.956-23.737 1.978-32.637-23.736-63.296-59.34-68.242-34.616-1.978-65.275 19.78-72.199 55.385-7.912 34.616 13.847 67.253 48.462 76.154 45.495 12.858 61.319 61.32 32.638 100.88-23.737 30.66-32.638 65.275-25.715 104.835 7.912 52.418-39.56 95.935-91.978 85.056-6.923-1.978-12.857-3.956-17.802-3.956-61.32-2.968-113.737 45.494-115.715 106.813zm238.352 137.473c0 65.275 54.396 120.66 119.671 120.66 68.242-2.967 120.66-55.385 122.638-120.66 0-67.253-54.396-122.638-122.638-122.638-65.275 0-119.67 55.385-119.67 122.638zm180.99-596.376c0 36.594 30.66 67.253 68.242 67.253 36.594 0 67.253-30.659 67.253-67.253 0-39.56-30.66-68.242-67.253-68.242-39.56 0-68.242 30.66-68.242 68.242zm88.022 462.86c-1.978 61.318 47.473 111.758 108.792 111.758s111.758-48.462 111.758-108.792c1.979-61.319-48.461-111.758-109.78-111.758-60.33 0-110.77 47.472-110.77 108.791z" style="fill:#000;fill-opacity:1;fill-rule:nonzero;stroke:none;"/>
</svg>
