<svg xmlns="http://www.w3.org/2000/svg" viewBox="0 0 1000 1000"><path d="M462.237,721.679c-.325,3.784.8,9.28-1.257,11.02-5.379,4.555-12.148,7.47-18.363,11.038-1.514-4.685-3.4-9.291-4.4-14.083-.553-2.673.414-5.653.648-8.5.729-8.864,1.871-19.263,13.4-17.325,5.025.844,8.647,10.032,12.906,15.431Zm-56.066,30.493c1.786-1.4,9.442-4.355,10.652-8.989,2.737-10.485,9.258-22.223-1.1-32.537-7.11-7.081-16.645-6-21.551,3.128a81.432,81.432,0,0,0-7.349,20.143C383.343,749.03,385.865,751.837,406.171,752.172Zm81.411,17.8c.6,10.1,2.526,21.6,14.8,19.981,5.768-.762,10.2-11.637,17.467-20.72-7.34-7.032-11.638-14.691-16.748-15.279C493.633,752.871,486.925,758.938,487.582,769.977ZM431.915,777.9c1.884,8.859,2.408,16.251,5.2,22.657,1.789,4.11,6.636,8.955,10.624,9.463,4.059.518,11.595-2.974,12.64-6.28,3.66-11.58,5.356-23.809,7.305-35.87.276-1.712-2.308-5.612-3.355-5.537-8.895.643-18.11.867-26.414,3.65C434.685,767.063,433.551,774.387,431.915,777.9Zm-45.556,46.631c1.526,3.954,7.066,8.117,11.281,8.718,3.4.486,9.683-3.42,10.958-6.789,3.844-10.162,7.09-20.869,8.348-31.623,2.593-22.167-5.981-28.608-26.425-18.985-5.865,2.76-8.606,12.157-11.828,17.063C381.718,806.133,382.966,815.745,386.359,824.529Zm-24.388-68.111c6.715-11.941,10.066-25.774,15.034-39.705-2.044-3.421-3.17-7.516-5.851-9.4-10.11-7.1-28.752,1.086-31.075,13.353-1.7,8.976-3.97,18-4.152,27.039-.09,4.483,3.636,12.656,6.184,12.878C348.814,761.17,359.683,760.488,361.971,756.418Zm-56.439,60.273c-.511,3.325-1.645,6.6-1.793,9.928-.642,14.428,6.2,21.363,20.689,21.329,22.741-.054,33.95-13.415,37.757-43.643-3.916-5.594-6.747-14.55-11.93-16.225C321.067,778.647,310.214,786.18,305.532,816.691ZM290.4,698.2c-16.075.241-24.746,8.032-27.405,27.3-3.871,28.046.81,55.175,11.592,83.428,3.405-1.563,6.266-1.946,7.447-3.558,17.432-23.808,32.127-49.08,35.255-79.077C319.309,706.9,309.917,697.909,290.4,698.2ZM214.047,430.967c-9.171,34.143-18.306,68.3-26.816,102.615-2.464,9.934-1.892,20,11.228,24.949,11.478-45.634,22.778-90.557,34.145-135.746C223.556,418.579,216.767,420.841,214.047,430.967Zm80-234.641c-15.437,33.468-31.152,66.807-46.715,100.218-1.612,3.458-5.1,8.3-3.936,10.367,3.357,5.963,7.734,13.671,13.39,15.5,9.458,3.057,8.9-6.4,8.474-12.188-1.582-21.587,9.225-38.355,19.02-56.247,12.952-23.66,23.312-48.739,34.786-73.208l-5.313-3.556C302.216,177.984,298.305,187.089,294.045,196.326ZM513.694,713.443c-2.87-5.192-4.633-12.8-8.971-14.788-3.311-1.518-12.321,2.818-14.411,6.832-2.805,5.387-2.46,13.163-1.351,19.545.616,3.545,5.979,9.235,8.423,8.861,4.789-.733,9.894-4.3,13.177-8.133,1.966-2.3.728-7.335.93-11.141Zm68.317-1.256c24.2-3.812,48.339-8.19,72.3-13.3,23.718-5.054,28.653-11.1,29.892-35.234,1.312-25.553,8.855-48.858,22.052-70.78,11.854-19.692,22.51-40.1,33.927-60.617-24-17-54.727-18.521-78.475-4.135-8.34,5.053-18.139,11.394-21.908,19.609-11.651,25.386-28.9,44.767-51.372,60.927-7.417,5.334-15.084,15.465-15.8,23.981-2.02,23.887-.787,48.087.088,72.13C572.813,707.491,579.227,712.625,582.011,712.187Zm239.3-207.463c6.543,2.587,12.446,6.793,18.592,10.223-10.96,20.578-23.13,24.075-42.689,16.215-27.581-11.083-55.219-22.741-83.847-30.324C674.32,490.5,635.581,512.5,616.73,547.827c-8.282,15.52-21.5,29.91-35.731,40.391-20.645,15.2-30.709,32.69-29.3,58.445,1.26,23.017.547,46.215-.605,69.267-.908,18.148-5.588,22.877-25.443,28.643,0-12.923-.274-24.948.058-36.956.643-23.219-5.047-27.785-27.977-24-15.826,2.613-32.1,2.659-47.823,5.694-15.943,3.078-31.145,4.531-47.779,3.141-23.6-1.974-48.452,6.463-71.395,2.5-20.727-3.58-41.48-8.011-62.17-12.041-10.153-1.978-18.021-7.428-28.609.849-2.474-3.377-4.868-6.125-6.688-9.211-11.007-18.665-29.531-25.942-50.316-21.39-6,1.314-13.056-1.5-19.484-3.034-3.18-.755-5.882-3.443-9.059-4.3-14.638-3.933-29.258-8.075-44.1-11.051-9.693-1.942-20.041-.883-29.582-3.243-9.616-2.378-18.6-7.322-31-12.436,8.874-10.676,16.506-20.979,25.29-30.182,16.268-17.039,33.243-33.4,49.863-50.106,20.61-20.715,26.784-42.092,12.292-66.5-18.3-30.817-12.416-57.288,7.7-82.451,33.048-41.343,50.6-89.708,61.281-140.024,7.81-36.79,14.724-73.47,30.436-107.735,3.8-8.286,10.1-17.1,17.67-21.684,29-17.551,59.436-24.164,91.143-5.649,7.872,4.6,16.245,8.345,24.439,12.379,26.863,13.229,54.238,16.414,83.949,9.185,43.873-10.673,88.471-11.2,133.147-3.334,49.584,8.725,77.432,39.144,88.783,86.776,10.972,46.038,8.295,92.618,6.441,139.281a435.579,435.579,0,0,0,1.96,61.9c2.358,22.813,14.567,37.939,37.719,45.692C755.475,477.91,788.287,491.67,821.309,504.724Zm-480.1-40.661c-3.1-18.965-11.855-35.212-28.424-45.526a166.371,166.371,0,0,0-80.242-25.267c-25.448-1.318-39.716,9.875-45.339,34.843-2.95,13.1-3.74,26.73-7.251,39.646-5.274,19.4-12.51,38.25-18.115,57.567-5.48,18.886-2.124,36.463,12.2,50.494,14.82,14.518,32.247,17.8,51.775,9.71,40.634-16.828,74.157-42.733,97.974-79.695C331.834,493.352,335.53,478.067,341.213,464.063Zm23.665-307.589c-31.7-20.211-81.754-10.412-94.438,28-11.986,36.295-28.991,69.859-47.633,103.045-15.188,27.039-4.1,51.431,25.7,61.056,8.977,2.9,18.776,3.256,29.056,4.917,16.057-3.288,32.468-6.736,48.917-9.994,23.518-4.658,37.887-20.168,42.631-42.094a938.572,938.572,0,0,0,15.647-98.1C386.69,185.336,381.738,167.224,364.878,156.474Zm261.393,82.233c-19.716-68.375-86.465-104.466-152-60.965-7.626,5.062-12.668,11.785-7.832,20.461,4.967,8.912,13.117,7.727,21.329,3.288,7.226-3.906,14.853-7.068,22.3-10.559l2.914,2.734c-32.475,47.345-65.887,94.4-46.449,158.193-15.617-1.778-19.456-8.91-20.37-18.193-2.305-23.414-4.654-46.809,2.3-70.009,1.905-6.359,3.368-13.383,2.613-19.818-.5-4.269-4.82-10.714-8.31-11.348-4.415-.8-11.283,2.019-14.252,5.62-3.713,4.5-4.748,11.325-6.57,17.259-7.8,25.406-4.623,51.216-3.733,77.146.738,21.494,10.162,36.191,28.674,44.344,27.16,11.961,55.969,17.66,85.715,13.773,22.194-2.9,42.09-12.068,54.582-31.422,12.211-18.921,22.962-38.847,33.415-58.822C630.83,280.841,632.364,259.84,626.271,238.707ZM974.483,207.58c-31.065-28.419-66.518-52.672-87.843-90.662-2.969-5.29-7.916-9.728-12.652-13.725C842.3,76.441,805.979,57.207,764.536,56.806c-47.333-.458-94.979,3.3-142,9.155-28.518,3.552-53.46,19.677-76.244,40.978,10.592,1.344,21.209,2.514,31.771,4.064,46.819,6.87,85.974,25.842,105.657,71.851,20.527,47.98,23.085,98.657,19.779,150.084-1.571,24.449-2.4,49.058-1.52,73.521,1.009,28.079,7.694,32.885,33.617,43.109,42.812,16.886,85,35.43,126.928,54.441,17.942,8.136,29.156,8.92,44.042-4.522,28.3-25.554,46.406-56.659,53.327-94.874,5.2-28.7,14.58-56.61,20.869-85.144,5.237-23.756,9.612-47.791,12.6-71.922C995.388,231.178,986.661,218.721,974.483,207.58ZM789.653,550.148c-31.7-15.575-27.13-16.021-44.38,13.708-20.4,35.154-42.655,69.644-42.81,113.053-.079,22.269-16,33.83-36.106,39.592a181.187,181.187,0,0,1-19.782,4.08c-36.785,6.216-74.136,9.775-102.379,39.635-7.124,7.532-15.308,12.128-17.784,23.806-4.1,19.311-15.945,26.054-34.22,19.359-9.85-3.608-13.484-.583-18.422,6.733-10.488,15.537-19.352,18.254-36.992,13.288-2.644-.745-5.411-1.053-8.264-1.591-1.778,3.092-3.165,5.583-4.626,8.032-13.217,22.148-26.239,24.948-46.56,9.031-8.345-6.537-10.378-.181-14.174,4.807-11.975,15.734-28.291,20.57-47.332,18.218-17.567-2.171-23.289-14.908-26.792-29.734-.317-1.341-1.219-2.544-2.4-4.921-10.259,4.724-22.451,4.7-23.4,19.784-.213,3.382-7.186,8.25-11.7,9.146-33.312,6.609-65.04,5.323-91.324-20.617-2.955-2.917-9.4-5.1-13.11-3.972-17.836,5.435-23.577,4.455-32.508-12.07-5.392-9.976-11.736-13.813-22.913-12.3-13.788,1.867-26.225-.239-36.6-11.955-3.492-3.943-12.7-2.826-19.294-4.021l-4.18,5.82c18.142,32.58,34.651,66.221,54.928,97.413,17.067,26.255,43.429,41.31,74.923,47.06,72.306,13.2,145.246,15.4,218.493,14.85,39.459-.295,77.4-6.275,113.9-21.59a80.175,80.175,0,0,1,25.137-6.049c40.267-2.727,80.561-5.631,120.891-6.634,24.158-.6,45.586-7.189,60.281-25.736,20.217-25.518,38.7-52.558,56.153-80.071,14.476-22.819,19.613-48.762,18.107-75.98-1.3-23.524-3.178-47.129-2.454-70.626.988-32.053.935-64.612,23.893-91.5C810.635,560.873,809.9,560.094,789.653,550.148ZM42.58,717.535c-3.1.548-7.025,4.064-8.04,7.158C32.8,730,33.031,735.954,32.057,745.256c1.418,5.427,3.238,14.215,6.228,22.587.778,2.177,5.1,3.525,8.032,4.215.809.191,3.573-3.344,3.615-5.21.319-14.262.547-28.553-.149-42.787C49.663,721.6,44.648,717.169,42.58,717.535Zm-6.769-28.917c3.35,1.207,9.875-.453,12.109-3.2,6.944-8.542,12.813-18.024,18.447-27.527,1.928-3.251,3.872-8.949,2.354-11.216-2.31-3.451-7.629-4.889-11.2-6.915-2.922.909-5.574.9-6.393,2.118C43,653.98,34.8,666.081,27.759,678.811,26.918,680.332,32.219,687.324,35.811,688.618ZM74.93,728.466c-2.136-.375-8.26,8.187-8.378,12.757a152.209,152.209,0,0,0,3.164,36.934c1.27,5.666,7.877,10.136,12.066,15.147,15.361-1.531,19.955-5.7,16.935-18.561-2.6-11.074-2.862-22.7-4.074-34.1C93.335,728.367,82.5,729.793,74.93,728.466ZM61.684,700.512c8.98.735,19.972,4.344,22.223,1.36,11.145-14.775,19.98-31.292,29.966-47.748C92.134,648.874,77.428,661.89,61.684,700.512Zm185.486.157c-4.441,5.306-9.373,10.28-13.238,15.976q-29.143,42.958-57.8,86.247c-11.044,16.623-8.792,28.747,10.143,34.7,16.553,5.2,34.788,5.713,52.371,6.707,9.407.532,11.76-5.894,11.261-15.666-1.564-30.631-1.983-61.339-2.045-92.019-.024-11.359,2.171-22.721,3.354-34.082Zm-92.642-34.362c-5.686-3.325-16.972-4.169-21.625-.656-9.177,6.93-16.55,17-22.752,26.959-11.351,18.235-7.969,24.217,16.3,26.943,1.558-1.068,5.994-2.841,8.535-6.094,6.783-8.681,12.794-17.969,19.031-27.072C158.586,679.716,162.941,671.226,154.528,666.307Zm48.641,4.208c-9.36-3.034-16.91-1.813-22.627,6.861-9.824,14.909-19.822,29.7-32.188,48.2,19.1,2.205,33.133,4.513,47.249,5.242,11.861.613,25.116-12.9,26.7-25.466C224.274,689.747,215.717,674.583,203.169,670.515Zm-34.577,76.16c-16.255-.716-32.465-2.476-53.606-4.195-.749,1.387-5.724,6.264-4.909,9.812,4.593,20,10.047,39.844,16.3,59.394,3.376,10.554,12,10.432,17.5,2.652,12.371-17.512,23.824-35.753,34.436-54.39C183.153,751.449,178.366,747.106,168.592,746.675Z"/></svg>