<svg xmlns="http://www.w3.org/2000/svg" width="1000" height="1000">
  <path d="M5 500.496C5 225.55 226.54 5 500.496 5c272.968 0 494.507 222.528 494.507 494.507 0 274.946-222.528 495.496-494.507 495.496C225.55 995.003 5 772.475 5 500.496zm106.814 19.78c106.813 102.858 226.484 166.155 361.979 185.935 11.868 22.747 20.77 38.572 34.615 62.308 12.857-23.736 21.759-43.517 33.627-62.308 135.495-16.813 250.22-83.077 359.012-185.935-104.836-98.901-218.572-162.198-350.111-184.945-14.835-22.748-25.714-42.528-44.506-72.198-8.9 15.824-15.824 26.703-20.77 39.56-12.856 25.715-29.67 36.594-54.395 42.528-84.066 12.857-158.242 53.407-230.44 102.857-28.682 23.737-56.374 46.484-89.011 72.198zm37.582 0c88.022-62.307 180-108.791 287.803-134.506-8.9 28.682-29.67 52.418 2.967 76.155 15.825-27.693 29.67-53.407 45.495-79.122 11.868-3.956 25.714-3.956 41.539-3.956 14.835 26.704 29.67 55.385 47.472 86.045 24.726-23.737 18.792-50.44 0-79.122 111.759 22.748 200.77 72.199 292.748 134.506-91.978 66.264-187.912 115.715-301.649 138.462 11.868-35.604 27.693-62.307 39.56-89.01 8.902-15.825 14.836-31.65 20.77-45.496 11.868-22.747 4.945-33.626-8.901-49.45-39.56 59.34-60.33 124.616-91.978 183.956-34.616 6.924-34.616 6.924-48.462-22.747-20.77-42.528-39.56-85.055-57.363-125.605-5.934-12.857-11.868-22.747-17.802-35.604-23.737 28.681-23.737 28.681-11.868 56.374 17.802 38.571 38.571 79.12 57.362 118.681-60.33 8.901-209.67-56.374-297.693-129.56z" style="fill:#000;fill-opacity:1;fill-rule:nonzero;stroke:none;"/>
</svg>
