<svg width="1000" height="1000" viewBox="0 0 1000 1000" fill="none" xmlns="http://www.w3.org/2000/svg">
<path fill-rule="evenodd" clip-rule="evenodd" d="M500 995C773.381 995 995 773.381 995 500C995 226.619 773.381 5 500 5C226.619 5 5 226.619 5 500C5 773.381 226.619 995 500 995ZM201 285.731L346.731 140H415.99C397.232 150.822 335.188 228.016 319.317 285.731H201ZM486.691 140V285.731H346.731C356.591 255.671 391.75 184.441 453.505 140H486.691ZM514.828 285.731H656.23C623.333 207.238 569.898 155.872 547.293 140H514.828V285.731ZM798.355 285.731H683.645C665.609 242.445 633 182.709 586.251 140H651.18L798.355 285.731ZM315.709 714.268H201L348.174 860H413.104C366.355 817.291 333.745 757.555 315.709 714.268ZM343.124 714.268H484.527V860H452.062C429.457 844.128 376.022 792.761 343.124 714.268ZM512.663 714.268L512.663 860H545.85C607.605 815.559 642.764 744.329 652.623 714.269L512.663 714.268ZM652.623 860L798.355 714.269H680.038C664.166 771.984 602.122 849.178 583.365 860H652.623ZM450.165 608.542C455.167 594.161 457.668 578.061 457.668 560.241C457.668 541.796 455.323 525.852 450.634 512.409C446.257 498.966 440.161 488.025 432.345 479.584C424.842 470.83 415.932 464.421 405.616 460.357C395.612 455.981 385.139 453.792 374.197 453.792C369.195 453.792 363.88 454.574 358.253 456.137C352.938 457.7 348.561 460.045 345.123 463.171L344.654 462.702L412.181 336.089H350.75L285.099 464.578C277.283 479.584 270.874 495.059 265.872 511.003C261.183 526.634 258.838 543.516 258.838 561.648C258.838 579.155 261.183 594.942 265.872 609.011C270.874 623.079 277.752 634.958 286.505 644.65C295.259 654.341 305.732 661.844 317.924 667.159C330.117 672.161 343.559 674.662 358.253 674.662C372.634 674.662 385.92 672.161 398.113 667.159C410.305 661.844 420.778 654.341 429.531 644.65C438.285 634.646 445.163 622.61 450.165 608.542ZM392.954 511.94C400.457 524.445 404.209 540.389 404.209 559.772C404.209 580.093 400.145 596.662 392.016 609.48C384.201 621.985 373.103 628.237 358.722 628.237C344.341 628.237 333.087 622.141 324.958 609.948C316.83 597.443 312.766 581.031 312.766 560.71C312.766 551.019 313.86 542.109 316.048 533.981C318.237 525.852 321.363 518.818 325.427 512.878C329.491 506.626 334.337 501.78 339.964 498.341C345.592 494.902 352 493.183 359.191 493.183C374.197 493.183 385.451 499.435 392.954 511.94ZM729.652 619.327C735.591 607.447 738.561 592.754 738.561 575.247C738.561 562.742 736.842 551.8 733.403 542.421C729.964 532.73 725.588 524.602 720.273 518.037C714.958 511.159 709.018 505.844 702.453 502.093C696.201 498.341 689.948 495.684 683.696 494.121V493.183C695.263 488.494 705.423 480.209 714.177 468.329C722.93 456.449 727.307 440.193 727.307 419.56C727.307 402.365 724.337 388.453 718.397 377.824C712.457 366.882 704.954 358.441 695.888 352.502C686.822 346.249 676.818 342.029 665.876 339.84C654.934 337.339 644.618 336.089 634.926 336.089H546.766V668.097H645.243C655.872 668.097 666.658 666.534 677.6 663.407C688.854 660.281 698.858 655.123 707.612 647.932C716.678 640.429 724.024 630.894 729.652 619.327ZM672.441 407.367C675.255 412.995 676.662 420.029 676.662 428.469C676.662 436.91 675.255 444.101 672.441 450.041C669.94 455.981 666.501 460.826 662.125 464.578C658.06 468.329 653.215 471.143 647.588 473.019C642.273 474.582 636.802 475.363 631.175 475.363H599.287V382.983H630.237C636.177 382.983 641.96 383.764 647.588 385.327C653.215 386.89 658.06 389.548 662.125 393.299C666.501 396.738 669.94 401.427 672.441 407.367ZM679.944 546.173C683.07 552.738 684.634 560.866 684.634 570.558C684.634 579.311 683.227 586.814 680.413 593.067C677.912 599.319 674.317 604.634 669.628 609.011C665.251 613.075 660.093 616.201 654.153 618.389C648.213 620.265 641.804 621.203 634.926 621.203H599.287V517.568H633.519C639.459 517.568 645.399 518.506 651.339 520.381C657.279 522.257 662.75 525.383 667.752 529.76C672.754 533.824 676.818 539.295 679.944 546.173Z" fill="black"/>
</svg>
