<svg xmlns="http://www.w3.org/2000/svg" viewBox="0 0 1000 1000"><path d="M5 994.41V5.587h990V994.41zm326.077-493.234c0 64.744 17.657 116.54 52.972 155.386 32.961 35.315 78.87 52.973 149.501 52.973 54.15 0 94.174-8.24 125.957-25.898v-81.225c-42.378 18.835-83.579 29.43-123.603 29.43-78.87 0-115.362-41.201-115.362-130.666 0-90.642 38.846-134.198 118.894-134.198 27.075 0 60.036 8.24 98.882 24.72l32.961-75.338c-40.024-18.835-84.756-28.252-134.197-28.252-62.39 0-113.009 17.657-151.855 56.504-35.316 35.315-54.15 87.11-54.15 156.564z"/></svg>