<svg width="1000" height="1000" viewBox="0 0 1000 1000" fill="none" xmlns="http://www.w3.org/2000/svg">
<path d="M289 2L87 204H251C273 124 359 17 385 2H289Z" fill="black"/>
<path d="M483 204V2H437C351.4 63.6 302.667 162.333 289 204H483Z" fill="black"/>
<path d="M522 204H718C672.4 95.2 598.333 24 567 2H522V204Z" fill="black"/>
<path d="M756 204H915L711 2H621C685.8 61.2 731 144 756 204Z" fill="black"/>
<path d="M713 1000L915 798L751 798C729 878 643 985 617 1000L713 1000Z" fill="black"/>
<path d="M519 798L519 1000L565 1000C650.6 938.4 699.333 839.667 713 798L519 798Z" fill="black"/>
<path d="M480 798L284 798C329.6 906.8 403.667 978 435 1000L480 1000L480 798Z" fill="black"/>
<path d="M246 798L87 798L291 1000L381 1000C316.2 940.8 271 858 246 798Z" fill="black"/>
<path d="M469.311 362.85C452.411 342.483 431.177 332.3 405.611 332.3C398.244 332.3 391.094 333.6 384.161 336.2C377.227 338.366 370.944 342.05 365.311 347.25C359.677 352.45 355.127 359.166 351.661 367.4C348.627 375.633 347.111 385.383 347.111 396.65C347.111 416.15 352.961 431.316 364.661 442.15C376.361 452.55 391.744 462.516 410.811 472.05C422.077 477.683 433.561 484.183 445.261 491.55C456.961 498.916 467.577 507.8 477.111 518.2C486.644 528.6 494.444 540.95 500.511 555.25C506.577 569.55 509.611 586.45 509.611 605.95C509.611 628.483 505.927 648.416 498.561 665.75C491.627 683.083 482.094 697.816 469.961 709.95C458.261 721.65 444.394 730.533 428.361 736.6C412.327 742.666 395.427 745.7 377.661 745.7C352.094 745.7 328.477 740.716 306.811 730.75C285.144 720.783 267.811 708.216 254.811 693.05L297.061 635.85C307.027 647.983 318.944 657.516 332.811 664.45C347.111 671.383 361.627 674.85 376.361 674.85C392.827 674.85 406.477 669.216 417.311 657.95C428.144 646.683 433.561 630.866 433.561 610.5C433.561 590.566 427.061 574.75 414.061 563.05C401.061 551.35 384.594 540.516 364.661 530.55C352.094 524.483 340.177 517.766 328.911 510.4C318.077 503.033 308.327 494.366 299.661 484.4C291.427 474 284.711 462.083 279.511 448.65C274.744 434.783 272.361 418.316 272.361 399.25C272.361 375.416 276.044 355.05 283.411 338.15C291.211 320.816 301.177 306.516 313.311 295.25C325.877 283.983 339.961 275.75 355.561 270.55C371.161 264.916 386.977 262.1 403.011 262.1C426.411 262.1 447.211 266 465.411 273.8C484.044 281.166 499.644 292.216 512.211 306.95L469.311 362.85Z" fill="black"/>
<path d="M632.603 734V273.8H710.603V734H632.603Z" fill="black"/>
</svg>
