<svg width="32" height="32" viewBox="0 0 32 32" fill="none" xmlns="http://www.w3.org/2000/svg">
<path d="M9.24525 0.0640259L2.78125 6.52803H8.02925C8.73325 3.96803 11.4852 0.544026 12.3172 0.0640259H9.24525Z" fill="black"/>
<path d="M15.4532 6.52803V0.0640259H13.9812C11.242 2.03523 9.68258 5.19469 9.24525 6.52803H15.4532Z" fill="black"/>
<path d="M16.7012 6.52803H22.9732C21.514 3.04643 19.1439 0.768026 18.1412 0.0640259H16.7012V6.52803Z" fill="black"/>
<path d="M24.1892 6.52803H29.2772L22.7492 0.0640259H19.8692C21.9428 1.95843 23.3892 4.60803 24.1892 6.52803Z" fill="black"/>
<path d="M22.8133 32L29.2773 25.536L24.0293 25.536C23.3253 28.096 20.5733 31.52 19.7413 32L22.8133 32Z" fill="black"/>
<path d="M16.6053 25.536L16.6053 32L18.0773 32C20.8165 30.0288 22.376 26.8693 22.8133 25.536L16.6053 25.536Z" fill="black"/>
<path d="M15.3573 25.536L9.08535 25.536C10.5445 29.0176 12.9147 31.296 13.9173 32L15.3573 32L15.3573 25.536Z" fill="black"/>
<path d="M7.86935 25.536L2.78135 25.536L9.30935 32L12.1893 32C10.1157 30.1056 8.66935 27.456 7.86935 25.536Z" fill="black"/>
<path d="M3.24219 22H5.21019V16.88H8.34619V22H10.3142V10.24H8.34619V15.088H5.21019V10.24H3.24219V22Z" fill="black"/>
<path d="M12.4609 22H14.4289V17.568H15.1969L17.8689 22H19.9969L17.2769 17.488C17.6076 17.4133 17.9276 17.3013 18.2369 17.152C18.5463 16.992 18.8129 16.7787 19.0369 16.512C19.2716 16.2453 19.4316 15.9467 19.5169 15.616C19.6129 15.2853 19.6609 14.9493 19.6609 14.608V13.2C19.6609 12.8587 19.6129 12.5227 19.5169 12.192C19.4209 11.8613 19.2609 11.5627 19.0369 11.296C18.8129 11.0293 18.5463 10.816 18.2369 10.656C17.9276 10.496 17.6023 10.3893 17.2609 10.336C16.9196 10.272 16.5783 10.24 16.2369 10.24H12.4609V22ZM14.4289 15.792V12.016H16.2369C16.4183 12.016 16.5943 12.0373 16.7649 12.08C16.9463 12.112 17.1063 12.1813 17.2449 12.288C17.3943 12.3947 17.5063 12.5333 17.5809 12.704C17.6556 12.864 17.6929 13.0293 17.6929 13.2V14.608C17.6929 14.7787 17.6556 14.9493 17.5809 15.12C17.5063 15.28 17.3943 15.4133 17.2449 15.52C17.1063 15.6267 16.9463 15.7013 16.7649 15.744C16.5943 15.776 16.4183 15.792 16.2369 15.792H14.4289Z" fill="black"/>
<path d="M25.1837 22.128C25.6317 22.128 26.0744 22.0747 26.5117 21.968C26.949 21.8613 27.3437 21.6693 27.6957 21.392C28.0477 21.104 28.3144 20.752 28.4957 20.336C28.6877 19.92 28.7837 19.488 28.7837 19.04H26.8157C26.8157 19.296 26.7357 19.536 26.5757 19.76C26.4157 19.984 26.2077 20.1387 25.9517 20.224C25.6957 20.3093 25.4397 20.352 25.1837 20.352C24.9597 20.352 24.741 20.32 24.5277 20.256C24.3144 20.192 24.1277 20.08 23.9677 19.92C23.8077 19.76 23.6904 19.5733 23.6157 19.36C23.5517 19.1467 23.5197 18.928 23.5197 18.704V13.536C23.5197 13.312 23.5517 13.0933 23.6157 12.88C23.6904 12.6667 23.8077 12.48 23.9677 12.32C24.1277 12.16 24.3144 12.048 24.5277 11.984C24.741 11.92 24.9597 11.888 25.1837 11.888C25.4397 11.888 25.6957 11.9307 25.9517 12.016C26.2077 12.1013 26.4157 12.256 26.5757 12.48C26.7357 12.6933 26.8157 12.9333 26.8157 13.2H28.7837C28.7837 12.752 28.6877 12.32 28.4957 11.904C28.3144 11.488 28.0477 11.1413 27.6957 10.864C27.3437 10.576 26.949 10.3787 26.5117 10.272C26.0744 10.1653 25.6317 10.112 25.1837 10.112C24.8637 10.112 24.5437 10.1387 24.2237 10.192C23.9144 10.2347 23.6157 10.3253 23.3277 10.464C23.0397 10.592 22.7784 10.7627 22.5437 10.976C22.309 11.1893 22.1117 11.4347 21.9517 11.712C21.8024 11.9893 21.6957 12.2827 21.6317 12.592C21.5784 12.9013 21.5517 13.216 21.5517 13.536V18.704C21.5517 19.024 21.5784 19.3387 21.6317 19.648C21.6957 19.9573 21.8024 20.2507 21.9517 20.528C22.1117 20.8053 22.309 21.0507 22.5437 21.264C22.7784 21.4773 23.0397 21.6533 23.3277 21.792C23.6157 21.92 23.9144 22.0053 24.2237 22.048C24.5437 22.1013 24.8637 22.128 25.1837 22.128Z" fill="black"/>
</svg>
