<svg xmlns="http://www.w3.org/2000/svg" viewBox="0 0 1000 1000"><path d="M610.222 497.996c-45.425 28.056-84.17 64.13-109.554 110.89-28.057 52.106-44.09 101.539-44.09 158.988 0 40.081-8.015 77.49-30.728 112.227-22.712 34.737-48.097 62.793-80.162 84.17C312.288 985.647 273.542 995 230.79 995c-40.08 0-78.825-13.36-112.226-30.73-36.073-18.704-61.458-48.096-82.834-84.17-20.04-33.4-29.393-72.145-29.393-112.226 0-41.417 10.688-78.826 29.393-113.563 20.04-38.745 48.097-64.13 82.834-82.834 33.4-18.704 72.145-30.728 112.226-30.728 57.45 0 108.219-13.36 157.652-41.417 45.425-25.385 84.17-64.13 112.227-110.89 28.056-46.762 42.753-101.54 42.753-157.653 0-41.417 8.016-80.162 30.729-113.562 21.376-32.065 46.76-61.458 80.161-81.498C689.048 14.352 725.121 5 769.211 5c40.08 0 78.825 9.352 112.226 30.729 33.4 21.376 60.121 48.097 81.498 81.498 21.376 33.4 30.729 72.145 30.729 113.562 0 40.081-9.353 80.162-30.73 112.227-22.712 34.737-48.096 62.793-81.497 84.17-32.065 20.04-72.146 29.393-112.227 29.393-57.45 0-110.89 12.024-158.988 41.417zM6.336 230.789c0-41.417 10.688-80.162 29.393-113.562 20.04-36.073 48.097-61.458 82.834-81.498C153.3 15.689 190.708 5 230.789 5c42.753 0 78.826 9.352 114.9 30.729 33.4 20.04 60.12 48.097 80.161 81.498 20.04 34.736 30.729 72.145 30.729 113.562 0 40.081-8.016 80.162-30.729 112.227-22.712 33.4-48.097 62.794-80.162 84.17-33.4 22.713-72.146 29.393-114.899 29.393-40.08 0-78.825-10.689-112.226-29.393-36.073-20.04-61.458-48.097-82.834-84.17C17.024 310.951 6.336 270.87 6.336 230.789zm157.652 537.085c0 17.369 4.008 34.737 18.704 46.761 16.033 12.025 29.393 18.705 48.097 18.705 20.04 0 34.737-5.344 49.434-18.705 12.024-10.688 21.376-29.392 21.376-46.76 0-18.705-10.688-36.074-21.376-46.762-14.697-14.696-29.393-21.377-49.434-21.377-18.704 0-34.736 8.017-48.097 21.377-13.36 13.36-18.704 28.057-18.704 46.761zm0-537.085c0 17.369 4.008 34.737 18.704 45.425 18.705 13.36 29.393 21.377 48.097 21.377 20.04 0 33.401-5.344 49.434-21.377 10.688-10.688 21.376-28.056 21.376-45.425 0-20.04-10.688-34.736-21.376-48.097-12.025-14.696-29.393-20.04-49.434-20.04-18.704 0-34.736 8.016-48.097 20.04-14.696 13.36-18.704 28.057-18.704 48.097zM543.42 767.874c0-41.417 8.016-78.826 30.729-113.563 21.376-32.064 46.76-64.13 80.161-82.834 33.401-18.704 70.81-30.728 114.9-30.728 40.08 0 78.825 10.688 112.226 30.728 33.4 20.04 60.121 45.426 81.498 82.834 20.04 36.073 30.729 72.146 30.729 113.563 0 40.081-9.353 77.49-30.73 112.227-21.376 36.073-48.096 62.793-81.497 84.17C849.372 984.31 809.29 995 769.21 995c-44.089 0-80.162-13.36-114.899-30.73-34.736-17.368-61.457-48.096-80.161-84.17-18.705-34.736-30.73-72.145-30.73-112.226zm156.316 0c0 17.369 6.68 34.737 20.04 46.761 16.032 13.36 28.057 18.705 49.433 18.705 18.705 0 32.065-4.008 48.097-18.705 12.025-10.688 18.705-29.392 18.705-46.76 0-18.705-8.016-36.074-18.705-46.762-16.032-16.032-29.392-21.377-49.433-21.377-20.04 0-33.4 8.017-48.097 21.377-14.696 13.36-20.04 28.057-20.04 46.761zm0-537.085c0 17.369 6.68 34.737 20.04 45.425 17.368 13.36 28.057 21.377 48.097 21.377 20.04 0 33.401-5.344 49.433-21.377 10.689-10.688 18.705-28.056 18.705-45.425 0-20.04-8.016-34.736-18.705-48.097-13.36-16.032-29.392-20.04-48.097-20.04-21.376 0-34.737 8.016-49.433 20.04-16.032 12.024-20.04 28.057-20.04 48.097z"/></svg>