<svg xmlns="http://www.w3.org/2000/svg" width="1000" height="1000">
  <path d="M368.977 306.066C324.922 357.463 44.859 717.244 5 795.913c16.783 2.098 40.908 2.098 53.495 2.098 296.846 0 593.691 4.196 888.439 0 53.495 0 59.788-9.44 31.467-56.642C854.628 527.39 694.143 260.962 649.04 200.124c-48.25 105.942-91.256 202.443-140.555 301.042-47.202-67.131-95.453-131.116-139.507-195.1zM92.06 750.81c34.614-38.81 58.74-68.18 91.256-102.795 16.783 37.761 28.321 67.131 44.055 102.795zm167.828-7.343c-80.768-111.186-70.278-130.066 82.865-209.785 45.103 24.126 41.957 53.495 12.587 86.012-34.615 38.81-65.034 81.816-95.452 123.773zm5.244-209.785c13.636-22.027 29.37-44.055 46.153-67.13 6.293-13.637 14.685-23.077 28.32-38.811 6.294 77.62 3.148 77.62-74.473 105.941zm18.88 220.274c41.958-57.69 77.621-105.941 119.578-160.485l86.012 96.501c-44.055 93.354-121.675 60.838-205.59 63.984zm93.355-354.536c48.25 78.67 138.458 134.262 112.235 245.448-54.544-70.278-165.73-114.332-112.235-245.448zm109.088 351.39c25.174-51.398 25.174-51.398 102.795 0zm40.908-65.034c43.006-47.201 80.767-92.305 121.675-142.653 48.25 70.278 93.355 134.262 139.507 204.54-100.696 25.174-174.121-16.783-261.182-61.887zm3.147-49.3c-14.685-58.739-9.44-83.913 102.794-292.649 25.175 125.87-3.146 221.323-102.794 292.65zm131.115-328.312c7.343 0 57.691 89.158 137.41 238.105-44.055-10.489-78.67-15.733-115.382-29.37-9.44-3.146-20.979-18.88-20.979-27.272-4.195-55.592-1.049-129.017-1.049-181.463zm19.93 241.252c178.317 31.468 147.898 12.587 130.067 184.61-47.202-67.13-86.012-123.772-130.067-184.61zm156.29 201.394c9.44-106.99 13.636-114.333 14.685-114.333 22.027 35.663 49.299 72.376 77.62 114.333z" style="fill:#000;fill-opacity:1;fill-rule:nonzero;stroke:none;"/>
</svg>
