<svg xmlns="http://www.w3.org/2000/svg" width="1000" height="1000">
  <path d="M5 500.496c0 271.98 220.55 494.507 495.496 494.507 271.98 0 494.507-220.55 494.507-495.496C995.003 227.528 773.464 5 500.496 5 226.54 5 5 225.55 5 500.496zm153.297-69.23c13.846-54.397 23.737-105.825 36.594-158.243h618.134c9.89 52.418 23.736 103.846 34.615 158.242h-63.297c-8.9-.989-12.857 2.967-10.879 11.868v349.122h-540.99V445.111c0-13.846 0-13.846-14.836-13.846zm26.704-20.77h58.351c11.869 0 12.858 1.978 12.858 12.857-.99 31.648 0 62.308 0 95.934 0 5.934 1.978 10.88 10.879 10.88h64.286c7.912 0 9.89-2.967 9.89-10.88V303.682c0-8.9-1.978-10.879-9.89-10.879-38.572 0-75.165 1.978-111.759 0-10.879 0-14.835 3.956-14.835 13.846-4.945 22.748-9.89 46.484-13.846 68.242-1.978 11.869-3.956 21.759-5.934 35.605zM256.21 757.64c0 6.923 4.945 8.901 10.879 8.901h64.286c7.912 0 9.89-4.945 9.89-10.88-1.978-32.637 0-62.307 0-95.934v-95.934c0-6.923-1.978-10.88-9.89-10.88-22.748 2.968-42.528 0-64.286 0-5.934 0-10.88 2.968-10.88 10.88zm115.714-308.573c0 4.945 1.978 10.88 5.934 14.836 15.825 19.78 30.66 37.582 44.506 56.373 2.967 6.924 7.912 9.89 16.813 9.89H547.97c1.978 0 6.923 0 12.857-2.966-32.637-38.572-63.297-76.155-93.956-116.704h88.022c7.912 0 12.857-2.967 12.857-10.88-2.967-30.659-2.967-62.307 0-95.934 0-6.923-4.945-10.879-11.868-10.879H381.814c-7.912 0-9.89 1.978-9.89 10.88zm1.978 315.496h238.353v-141.43c2.967-23.735-2.967-43.516-20.77-61.318-4.945-4.945-8.9-8.901-17.802-8.901H449.067c29.67 37.582 53.407 70.22 81.1 104.835H515.33c-35.604 0-72.198 0-106.813-2.967-9.89 0-14.835 4.945-16.813 15.825-2.967 19.78-5.934 41.538-10.88 63.297-2.967 10.879-4.945 19.78-6.923 30.659zm221.54-363.957c0 6.923 3.956 9.89 10.879 9.89h41.538c8.901 0 10.88 1.978 10.88 10.879v94.945c0 10.88 1.977 13.847 10.879 13.847h72.198c7.912 0 9.89-2.967 9.89-10.88v-93.956c0-14.835 0-14.835 13.846-14.835h56.374c-6.923-40.55-12.857-73.187-21.758-111.759 0-1.978-3.957-5.934-8.902-5.934H606.321c-6.923 0-10.88 1.978-10.88 10.88 1.979 33.626 1.979 65.274 0 96.923zm63.296 355.056c0 8.901 3.957 10.879 10.88 10.879 23.736-1.978 47.472-1.978 72.198 0 5.934 0 9.89-1.978 9.89-10.88V563.794c0-7.912-1.978-10.88-9.89-10.88-24.726 0-46.484 2.968-70.22 0-8.901 0-12.858 3.957-12.858 15.825z" style="fill:#000;fill-opacity:1;fill-rule:nonzero;stroke:none;"/>
</svg>
