<svg xmlns="http://www.w3.org/2000/svg" viewBox="0 0 1000 1000"><path d="M304.112 49.924C546.448-37.457 813.25 65.07 923.932 307.406v23.301h-90.875c-4.66 0-12.816-12.816-17.477-20.971-67.574-107.187-157.285-173.597-284.278-191.073-136.314-17.476-255.152 25.632-346.028 126.994-67.575 79.225-96.702 166.606-96.702 267.967 3.496 174.762 145.635 335.542 319.232 365.834 179.421 26.797 344.862-59.419 425.253-221.364 8.155-23.302 12.815-46.603 25.631-75.73H538.292c-24.466 0-29.127 0-29.127-30.292 0-38.448 0-38.448 43.108-38.448h442.73v68.74c-40.778 0-40.778 0-51.264 39.612-41.943 151.46-131.654 263.308-280.784 318.066C41.97 1181.213-262.115 285.27 304.112 49.924zM181.779 547.412c-25.632-147.965 65.244-292.435 209.713-341.368 135.15-41.943 288.94 26.797 341.368 118.838-18.641 5.825-31.457 10.486-44.273-6.99-79.225-85.051-179.422-111.848-288.939-80.39-106.022 33.786-170.101 110.681-188.742 213.208-29.127 186.412 116.507 322.726 264.472 322.726 107.187 0 187.577-45.438 243.501-136.314 13.981-15.146 20.971-19.806 39.613-12.815-23.302 76.895-136.314 195.732-302.92 180.586-128.159-9.32-251.657-113.012-273.793-257.481zm52.428 0c-23.301-118.838 41.943-237.676 157.285-279.619 92.042-38.447 221.365-9.32 266.803 57.089 0 5.825 0 5.825-3.495 10.486-12.816-4.66-38.448-10.486-51.264-17.477-89.71-54.758-186.412-50.098-269.132 19.807-87.381 69.904-96.702 223.694-17.476 305.25 82.72 92.04 219.034 100.196 309.91 27.962 10.486-12.816 17.476-23.302 31.457-36.118 12.816-12.816 17.476-17.476 38.448-10.485-12.816 54.758-109.518 129.323-213.21 129.323-123.498 0-223.694-87.38-249.326-206.218zm274.958-108.353c0-48.933 0-48.933 47.768-48.933h438.07v68.74H531.301c-12.816 0-22.137-3.496-22.137-19.807z"/></svg>