<svg xmlns="http://www.w3.org/2000/svg" viewBox="0 0 1000 1000"><path d="M500.496 5C223.572 5 5 229.506 5 500.002c0 276.43 224.506 495.001 495.002 495.001 276.43 0 495.001-224.506 495.001-495.001C995.003 226.539 773.464 5 500.496 5zM85.11 500.496c.99-239.341 190.88-417.364 421.32-421.32 237.364 4.945 421.32 189.89 420.331 423.298-3.956 238.353-190.88 417.364-419.342 417.364-239.341 0-422.309-187.913-422.309-419.342zm49.45-8.901c-5.933 211.65 164.177 380.77 371.87 380.77 203.737-1.977 371.87-160.22 371.87-371.869 0-205.715-165.166-376.814-380.77-372.858-197.804 4.945-359.013 162.198-362.97 363.957zm148.353 64.286c-9.89-75.165 54.396-144.396 127.583-144.396 7.912-.99 8.901-2.967 8.901-8.901v-28.682c0-7.912-.989-11.868-8.901-11.868h-98.902v-67.253h388.683v65.275c-4.945 1.978-6.923 1.978-12.857 1.978h-84.066c-7.912 0-9.89 3.956-9.89 11.868v28.682c0 5.934 1.978 8.9 7.912 8.9 30.66-.988 59.34-.988 86.044-.988 5.934 0 7.912.989 12.857.989v71.209H593.464v109.78c0 7.913 2.967 9.89 9.89 9.89h96.923v69.232H593.464v48.461c0 16.814 0 16.814-16.814 16.814h-47.472v-53.407c0-10.88 0-11.868-11.869-11.868h-25.714c-6.923 0-6.923 0-7.912 6.923v47.472c0 8.902-1.978 10.88-9.89 10.88h-45.495c-6.923 0-8.901-1.978-8.901-7.913v-48.461c0-7.912-.989-8.901-8.901-8.901-66.264-1.978-119.67-51.43-127.583-115.715zm70.22-13.846c0 29.67 21.758 52.418 54.396 60.33 10.879 0 11.868-1.978 11.868-13.847v-92.967c0-16.813-.989-16.813-15.824-12.857-35.605 4.945-50.44 30.66-50.44 59.34zm130.55 50.44c0 7.912.989 9.89 7.912 9.89h28.681c6.924 0 8.902-1.978 8.902-9.89v-101.87c0-6.923 0-7.912-8.902-7.912h-28.681c-6.923-.99-7.912.989-7.912 7.912zm0-181.98c13.846 0 27.692.99 40.55 0 2.967 0 4.945-5.933 4.945-6.922v-31.649c0-5.934-1.978-9.89-8.902-9.89h-30.659c-2.967 0-5.934 5.934-5.934 6.923-1.978 14.835 0 27.693 0 41.539z"/></svg>