<svg xmlns="http://www.w3.org/2000/svg" width="1000" height="1000">
  <path d="M847.891 722.65c47.711 45.06 98.073 92.771 147.109 140.482-41.085 42.41-79.518 83.494-120.603 125.904-50.361-50.362-100.722-98.073-149.759-144.458-151.084 87.47-300.843 86.144-453.252-3.976-47.711 49.036-92.771 98.072-143.133 149.759C85.843 949.277 46.085 910.843 5 871.084c3.976-5.301 6.627-9.277 11.928-14.578 41.084-42.41 82.169-84.82 121.928-127.23 9.277-9.276 10.602-15.903 3.976-26.505-75.543-140.482-74.217-280.964 3.975-420.12 6.627-10.603 5.302-15.904-2.65-22.53-43.735-41.085-84.82-80.844-128.554-123.254C54.036 94.457 95.12 53.373 136.205 10.964c47.71 46.385 95.422 92.77 140.482 136.506 152.41-86.145 302.168-86.145 453.253 2.65 43.735-45.06 88.795-91.445 133.855-140.482 42.41 41.085 83.494 79.518 125.904 119.278-27.832 30.481-54.338 58.313-83.494 87.47-15.904 17.228-31.808 33.132-47.711 50.36-2.65 3.977-5.301 14.58-1.326 18.555 78.193 144.458 75.543 288.915-6.626 429.397 0 2.651 0 3.976-2.65 7.952zM251.506 494.698c-1.325 135.181 110 249.157 246.506 250.482 136.506 1.326 250.482-110 251.807-246.506 1.325-136.506-110-249.156-243.855-250.481-140.482-2.651-251.807 107.349-254.458 246.505z" style="fill:#000;fill-opacity:1;fill-rule:nonzero;stroke:none"/>
</svg>
