<svg xmlns="http://www.w3.org/2000/svg" viewBox="0 0 1000 1000"><path d="M618.22 995v-41.48c1.382-4.148 34.566-4.148 69.133-4.148 51.16 0 33.185-38.715 26.271-64.986-42.863-117.528 4.148 13.827-237.821-681.663-70.517 192.193-156.243 449.372-229.525 663.688-12.444 59.455 16.592 87.109 100.935 87.109V995H22.283v-38.715l9.679-2.765c84.344-9.679 120.293-69.134 145.182-138.268C276.697 559.455 387.31 273.24 491.012 13.296L535.258 5s306.956 847.584 305.573 847.584c26.27 58.073 58.073 91.257 120.293 100.936 6.914 0 16.592 0 16.592 8.296V995z"/></svg>