<svg xmlns="http://www.w3.org/2000/svg" width="1000" height="1000">
  <path d="M421.264 185.05v93.605c0 16.519-18.72 22.025-28.632 9.911-33.037-41.846-73.782-44.049-114.528-44.049-92.503 0-151.969 129.945-151.969 254.384 0 118.932 57.264 247.776 151.97 247.776 57.263 0 100.211-15.417 118.932-42.948 7.709-12.113 24.227-6.607 24.227 8.81v94.705c0 3.304-2.202 6.608-5.506 9.912-44.05 34.138-89.2 50.656-137.654 50.656C118.426 867.812 5 723.552 5 498.901c0-190.513 95.807-376.62 278.61-376.62 42.948 0 137.654 34.138 137.654 62.77zm90.3 451.504c-1.1-5.506 3.304-6.607 7.71-6.607h100.211c7.709 0 8.81 1.101 9.911 3.304 38.543 95.806 72.681 129.944 132.147 129.944 62.77 0 112.326-50.656 112.326-115.629 0-71.58-63.872-104.616-137.654-138.754-82.592-38.543-173.994-81.491-173.994-198.221 0-89.2 58.365-159.678 161.88-188.31V41.89c0-3.303 2.203-5.506 5.507-5.506h90.3c3.304 0 5.507 2.203 5.507 5.506v79.289c69.377 11.012 146.463 75.984 166.285 172.892 1.101 5.507-1.101 12.114-3.304 12.114H882.678c-6.607 0-7.708 1.101-7.708-1.101-14.316-45.15-53.96-73.783-100.212-73.783-49.555 0-88.098 34.138-88.098 79.289 0 47.353 34.138 67.175 101.313 99.11 132.147 61.669 207.03 113.427 207.03 237.865 0 106.82-72.68 203.728-169.588 225.752v84.795c0 3.303-2.203 5.506-5.507 5.506h-90.3c-3.304 0-5.506-2.203-5.506-5.506v-79.289c-129.945-27.53-188.31-92.503-212.537-242.27z" style="fill:#000;fill-opacity:1;fill-rule:nonzero;stroke:none;"/>
</svg>
