<svg xmlns="http://www.w3.org/2000/svg" width="1000" height="1000">
  <path d="M500.496 995.003c275.935 0 494.507-224.506 494.507-495.496C995.003 226.54 773.464 5 500.496 5 223.572 5 5 229.506 5 499.507c0 276.924 224.506 495.496 495.496 495.496zm-390.66-381.76c-28.682-139.45 4.945-263.077 99.89-366.924C359.067 79.176 629.068 65.33 801.156 225.55c14.836 11.868 24.726 25.715 38.572 38.572v4.945c-13.846 10.879-28.681 20.77-39.56 30.66-124.616-148.353-327.364-168.133-473.738-81.1C192.913 301.704 101.923 488.628 185 682.475c-14.835 4.945-30.659 13.846-47.472 18.791-13.846-27.692-24.725-57.363-27.692-88.022zm122.637 0c-43.516-139.45 24.726-290.77 154.287-352.088 139.45-67.253 282.858-12.858 360.99 81.099-14.835 9.89-26.704 20.77-40.55 31.648-94.945-93.956-201.759-120.66-320.44-49.45-86.045 51.428-129.561 156.264-108.792 253.187 19.78 97.913 105.824 190.88 233.407 193.847v54.396c-95.934.989-233.407-62.308-278.902-212.638zm107.803-87.032c1.978-74.177 52.418-141.43 122.638-165.166 74.176-22.747 149.34 7.912 190.88 57.363-14.836 12.857-29.671 22.747-43.517 34.615-28.682-30.659-61.32-47.472-102.858-42.527-31.648 2.967-57.363 13.846-78.132 36.593-39.56 47.473-42.527 113.737 0 160.22 24.726 25.715 55.385 38.572 90.99 38.572 34.615 0 65.274-15.824 88.022-41.538 11.868 15.824 24.725 28.681 34.615 44.505-43.516 47.473-116.703 68.242-184.945 45.495-68.242-25.714-117.693-92.967-117.693-168.132z" style="fill:#000;fill-opacity:1;fill-rule:nonzero;stroke:none;"/>
</svg>
