<svg xmlns="http://www.w3.org/2000/svg" width="1000" height="1000">
  <path d="M105.665 739.093V353.696c0-98.167 46.054-169.672 138.161-209.666 19.391-6.06 32.722-18.179 44.842-39.994C341.993 27.684 412.286-6.25 512.877 8.293c64.233 12.12 135.737 24.239 201.182 39.994 98.167 16.967 162.4 89.684 175.731 193.91 6.06 32.723 6.06 72.717 0 103.015 0 15.756-6.06 33.935-19.39 39.994-46.055 38.782-90.896 77.565-135.738 118.77-7.272 4.848-33.934 12.12-39.994 4.848-13.331-4.847-19.391-25.45-19.391-36.358v-87.26c-6.06-79.988-52.114-129.677-124.83-143.009-66.657-13.33-122.406-26.662-189.063-38.782-25.45 0-38.782 6.06-38.782 32.723v384.185c0 78.776 50.902 129.677 129.678 143.009 60.597 15.755 124.83 26.662 183.003 39.994 26.662 7.271 39.994-7.272 39.994-31.51V667.587c0-21.814 10.907-39.994 25.45-55.749 39.995-37.57 84.836-69.08 123.618-107.862 12.12-7.272 32.723-13.332 46.054-7.272 13.332 7.272 19.391 25.45 19.391 38.782 6.06 47.266 6.06 92.107 0 138.161-6.06 89.684-59.385 155.129-138.16 187.85-10.908 7.273-32.723 13.332-37.571 27.876-52.114 90.895-136.95 116.346-241.176 101.803-60.597-4.848-124.83-18.18-190.275-30.299C171.11 934.215 105.665 855.44 105.665 739.093zm65.445-65.445c0 31.51 0 59.385 6.06 89.684 7.271 65.445 46.053 105.439 105.438 126.042 78.776 12.119 157.552 25.45 230.269 37.57 44.842 7.271 82.412-7.272 122.406-52.114-19.391-6.06-32.723-6.06-39.994-6.06-44.842-13.33-89.684-18.179-136.95-27.874-141.797-24.239-207.241-101.803-207.241-247.236V274.92c0-13.332 0-25.45-7.272-53.326-10.907 14.544-26.663 20.603-32.722 33.935-33.935 31.51-39.994 71.504-39.994 116.346zm190.274-541.737c16.967 6.06 32.723 6.06 38.782 6.06 52.114 12.119 105.44 18.179 157.553 32.722 104.226 19.391 161.188 84.836 183.003 183.003 6.06 13.331 6.06 25.45 6.06 38.782 65.444-25.45 77.563-53.325 77.563-117.558 0-78.776-44.841-136.95-117.558-157.552-71.504-13.332-143.009-24.24-222.997-38.783-43.63-6.06-83.624 7.272-122.406 53.326zM751.63 771.815c54.537-14.543 84.836-98.167 66.657-159.976-71.505 27.875-99.38 93.32-66.657 159.976z" style="fill:#000;fill-opacity:1;fill-rule:nonzero;stroke:none;"/>
</svg>
