<svg xmlns="http://www.w3.org/2000/svg" width="1000" height="1000">
  <path d="M500.496 5C223.572 5 5 229.506 5 500.002c0 276.43 224.506 495.001 495.002 495.001 276.43 0 495.001-224.506 495.001-495.001C995.003 226.539 773.464 5 500.496 5zM148.407 541.046c-26.703-27.693-26.703-54.396 0-81.1 102.858-102.857 204.726-210.66 312.529-312.528 25.714-28.681 57.362-33.626 84.066 0 76.154 72.198 152.308 148.352 223.517 224.506 38.572 34.616 74.176 73.187 107.803 109.78 10.879 11.869 12.857 23.737 0 35.605-7.913 7.913-15.825 18.792-22.748 25.715C750.717 645.88 643.904 750.717 540.057 856.54c-27.693 27.693-50.44 23.737-79.121-7.912-107.803-102.857-209.671-205.715-312.529-307.583zm18.791-50.44c9.89 11.868 64.286 37.583 130.55 68.242 14.835 7.912 25.715 4.945 37.583-6.923 41.538-42.528 84.066-81.1 125.605-121.649 29.67-30.66 53.406-30.66 84.066 0 40.55 40.55 83.077 83.077 125.605 121.649 6.923 6.923 18.79 14.835 26.703 11.868 46.484-22.747 94.945-46.484 145.385-73.187-74.176-66.264-119.67-111.759-318.462-317.474-21.759-21.758-21.759-21.758-45.495 0-108.792 110.77-306.595 307.584-311.54 317.474z" style="fill:#000;fill-opacity:1;fill-rule:nonzero;stroke:none;"/>
</svg>
