<?xml version="1.0" encoding="utf-8"?>
<!-- Generator: Adobe Illustrator 26.0.1, SVG Export Plug-In . SVG Version: 6.00 Build 0)  -->
<svg version="1.1" id="Layer_1" xmlns="http://www.w3.org/2000/svg" xmlns:xlink="http://www.w3.org/1999/xlink" x="0px" y="0px"
	 viewBox="0 0 1000 1000" style="enable-background:new 0 0 1000 1000;" xml:space="preserve">
<style type="text/css">
	.st0{fill-rule:evenodd;clip-rule:evenodd;}
</style>
<path class="st0" d="M385.9,7.6h-94.7L91.8,206.9h161.8C275.3,128,360.2,22.4,385.9,7.6z M908.8,206.9L707.5,7.6h-88.8
	C682.7,66,727.3,147.7,752,206.9H908.8z M91.8,793.1l201.3,199.3h88.8C318,934,273.4,852.3,248.7,793.1H91.8z M565.4,7.6H521v199.3
	h193.4C669.5,99.6,596.4,29.3,565.4,7.6z M482.6,206.9V7.6h-45.4c-84.5,60.8-132.6,158.2-146,199.3L482.6,206.9L482.6,206.9z
	 M518.1,793.1v199.3h45.4c84.5-60.8,132.6-158.2,146-199.3H518.1z M435.2,992.4h44.4V793.1H286.2
	C331.2,900.4,404.3,970.7,435.2,992.4z M614.8,992.4h94.7l199.3-199.3H747C725.3,872,640.4,977.6,614.8,992.4z M97.2,319.8h56.6
	l67.6,200.3l67.6-200.3h56.6v368.1h-62.1v-73.6c0-19,0.5-38,1.5-56.8c1-18.9,2.8-37.6,5.3-56.3c2.5-18.7,5.2-37.3,8-55.8
	c2.8-18.5,4.9-37.3,6.3-56.3L241,577.2h-39.1l-63.6-188.3c1.3,19,3.4,37.8,6.3,56.3c2.8,18.5,5.6,37.1,8.3,55.8
	c2.7,18.7,4.4,37.5,5.3,56.3c0.8,18.9,1.3,37.8,1.3,56.8v73.6H97.2V319.8z M514.7,632.8c6.2-2.3,11.3-6.2,15.5-11.5
	c4.2-5.3,7-11.2,8.5-17.5c1.5-6.3,2.3-12.7,2.3-19V375.4h-70.1v-55.6h131.7v264.9c0,12.4-1.4,24.5-4.3,36.6c-2.8,12-8,23-15.5,33.1
	s-16.8,18-27.8,24c-11,6-22.6,9.9-34.8,11.8c-12.2,1.8-24.5,2.3-36.8,1.5c-12.4-0.8-24.4-3.4-36.1-7.8c-11.7-4.3-22-10.9-30.8-19.8
	c-8.9-8.8-15.5-19.2-20-31.1c-4.5-11.8-6.8-24-6.8-36.3h62.1c0,7.7,1.9,14.8,5.8,21.3c3.8,6.5,9.3,11.2,16.5,14
	c7.2,2.8,14.4,4.3,21.8,4.3C502.2,636.3,508.5,635.1,514.7,632.8z M695.7,319.8h110.2c11,0,22,0.9,32.8,2.8
	c10.8,1.8,21.3,5.2,31.3,10c10,4.8,18.8,11.4,26.3,19.5c7.5,8.2,12.8,17.6,16,28.3c3.2,10.7,4.8,21.4,4.8,32.1v44.1
	c0,10.7-1.6,21.4-4.8,32.1c-3.2,10.7-8.5,20.1-16,28.3c-7.5,8.2-16.3,14.7-26.3,19.5c-10,4.8-20.5,8.2-31.3,10
	c-10.9,1.8-21.8,2.8-32.8,2.8h-48.1v138.7h-62.1V319.8z M805.9,493.6c6,0,11.8-0.6,17.5-1.8c5.7-1.2,11.1-3.3,16.3-6.3
	c5.2-3,9.1-7.2,11.8-12.5c2.7-5.3,4-10.8,4-16.5v-44.1c0-5.7-1.3-11.2-4-16.5c-2.7-5.3-6.6-9.5-11.8-12.5c-5.2-3-10.6-5.1-16.3-6.3
	c-5.7-1.2-11.5-1.8-17.5-1.8h-48.1v118.2H805.9z"/>
</svg>
