<svg xmlns="http://www.w3.org/2000/svg" width="1000" height="1000">
  <path d="M500.496 5C223.572 5 5 229.506 5 500.002c0 276.43 224.506 495.001 495.002 495.001 276.43 0 495.001-224.506 495.001-495.001C995.003 226.539 773.464 5 500.496 5zM127.638 421.375c0-3.956 4.945-8.901 4.945-12.857 23.736 23.736 41.538 46.483 65.275 65.275 55.385 50.44 130.55 74.176 200.77 92.967 79.12 23.736 157.253 41.539 236.374 65.275 26.704 8.901 55.385 21.758 83.077 41.539 43.517 28.681 46.484 65.275 18.792 107.802-17.803 31.649-60.33 60.33-101.869 73.187-168.132 56.374-344.177 0-442.09-139.45-65.274-88.023-85.055-185.935-65.274-293.738zM244.34 263.133c0-26.704 12.858-46.484 32.638-63.297 36.593-37.583 79.121-57.363 129.56-66.264 121.65-21.758 228.463-4.945 325.387 74.176 112.747 92.967 160.22 213.627 137.473 362.968 0 8.901-2.968 11.868-6.924 23.736-41.538-70.22-95.934-95.934-172.088-130.55-88.022-39.56-163.187-67.252-246.265-88.022-37.582-14.835-112.747-24.725-148.352-41.538-33.626-25.715-51.429-33.627-51.429-71.21z" style="fill:#000;fill-opacity:1;fill-rule:nonzero;stroke:none;"/>
</svg>
