<svg xmlns="http://www.w3.org/2000/svg" viewBox="0 0 1000 1000"><path d="M738.7,428a48.268,48.268,0,0,1,2.3,14.5V555.6a47.14,47.14,0,0,1-2.3,14.4,29.5,29.5,0,0,1-7.7,12.3,29.882,29.882,0,0,1-12.6,7.4,51.11,51.11,0,0,1-29,0,29.882,29.882,0,0,1-12.6-7.4,29.5,29.5,0,0,1-7.7-12.3,47.14,47.14,0,0,1-2.3-14.4V442.5a48.268,48.268,0,0,1,2.3-14.5,28.3,28.3,0,0,1,7.7-12.3,30.542,30.542,0,0,1,12.6-7.2,51.11,51.11,0,0,1,29,0,30.542,30.542,0,0,1,12.6,7.2A29.246,29.246,0,0,1,738.7,428ZM529.3,577.9a36.3,36.3,0,0,0,7.7-13.8,56.442,56.442,0,0,0,2.3-15.8V449.9A58.225,58.225,0,0,0,537,434a34.872,34.872,0,0,0-7.7-13.8,29.055,29.055,0,0,0-13.1-8.4,50.191,50.191,0,0,0-15.8-2.5H467.8V588.9h32.6a52.723,52.723,0,0,0,15.8-2.5A29.256,29.256,0,0,0,529.3,577.9Zm466-77.9c0,273.4-221.6,495-495,495S5.3,773.4,5.3,500,226.9,5,500.3,5,995.3,226.6,995.3,500ZM586.2,142.6C632.6,185,665,244.3,682.9,287.3H796.8L650.7,142.6ZM781,417.7a57.261,57.261,0,0,0-10.7-22.2A65.387,65.387,0,0,0,751.7,379a71.493,71.493,0,0,0-23.1-8.9,129.8,129.8,0,0,0-24.9-2.5,122.294,122.294,0,0,0-24.9,2.5,71.493,71.493,0,0,0-23.1,8.9,66.578,66.578,0,0,0-18.6,16.5,60.172,60.172,0,0,0-10.7,22.2,104.713,104.713,0,0,0-3,24.9V555.7a104.713,104.713,0,0,0,3,24.9,57.261,57.261,0,0,0,10.7,22.2,65.387,65.387,0,0,0,18.6,16.5,71.493,71.493,0,0,0,23.1,8.9,129.8,129.8,0,0,0,24.9,2.5,122.294,122.294,0,0,0,24.9-2.5,71.493,71.493,0,0,0,23.1-8.9,66.578,66.578,0,0,0,18.6-16.5A60.172,60.172,0,0,0,781,580.6a104.713,104.713,0,0,0,3-24.9V442.5A103.277,103.277,0,0,0,781,417.7ZM515.4,287.3H655.8C623.1,209.4,570,158.4,547.6,142.6H515.4Zm-166.9,0H487.4V142.6H454.5C393.2,186.7,358.3,257.4,348.5,287.3Zm-23.1,83.1H275.7L206.4,627.7h44.5l14.4-53.9H336l14.4,53.9h44.5ZM203.8,287.3H321.2c15.8-57.3,77.4-133.9,96-144.7H348.4ZM414.4,857.4C368,815,335.6,755.7,317.7,712.7H203.8L349.9,857.4Zm70.9-144.7H344.9c32.7,77.9,85.7,128.9,108.2,144.7h32.2Zm15.2-85.3v.3a129.082,129.082,0,0,0,21.5-1.8,75.31,75.31,0,0,0,20.5-6.5,77.244,77.244,0,0,0,17.9-12.1,59.937,59.937,0,0,0,13.1-17.2,72.119,72.119,0,0,0,7-20.5,119.352,119.352,0,0,0,1.9-21.5V449.7a119.352,119.352,0,0,0-1.9-21.5,73.188,73.188,0,0,0-7-20.5,63.269,63.269,0,0,0-13.1-17.2,75.185,75.185,0,0,0-17.9-12.1,74.233,74.233,0,0,0-20.5-6.5,129.082,129.082,0,0,0-21.5-1.8H424.9V627.4Zm151.6,85.3H513.2V857.4h32.9C607.4,813.3,642.3,742.6,652.1,712.7Zm144.8,0H679.4c-15.8,57.3-77.4,133.9-96,144.7h68.8Zm-496.3-287c-2.6,21.2-8.5,49-17.9,83.3l-7,25.9h49.7l-7-25.9C309.1,474.7,303.1,447,300.6,425.7Z"/></svg>