<svg xmlns="http://www.w3.org/2000/svg" viewBox="0 0 1000 1000"><path d="M376.287 416.237c-57.288 58.39-112.373 113.475-168.56 169.661 26.441 26.44 84.831 15.424 110.17-8.814 48.475-48.474 94.746-98.05 143.22-148.728C411.541 340.22 295.863 284.034 202.22 308.27c-80.425 22.035-141.018 91.44-148.73 168.56-7.712 87.033 34.153 165.253 112.373 201.61 76.017 36.355 166.356 23.135 228.051-37.458l247.881-244.577c73.814-70.508 193.899-51.78 240.17 38.56 29.746 58.39 14.322 134.407-36.356 176.271-55.085 46.271-132.203 48.475-188.39 5.508-17.627-14.322-33.05-29.745-50.678-46.27 11.017-12.12 22.034-22.035 36.356-38.56 12.119 14.322 20.932 28.644 33.05 39.661 33.052 33.05 81.526 38.56 121.187 16.525 38.56-19.83 59.492-62.796 51.78-104.66-7.712-44.068-44.068-78.221-91.44-82.628-33.052-5.508-61.696 7.712-85.933 31.95-81.525 81.525-163.05 163.05-246.78 242.372-125.593 121.187-337.118 77.119-401.016-82.627-42.967-102.457-9.916-221.44 77.118-286.44 93.644-68.306 224.746-68.306 309.576 5.508 41.865 38.56 76.017 82.627 114.577 125.593-28.644 29.746-63.899 65-98.051 100.254-24.237 23.136-47.373 46.272-71.61 69.407-55.085 51.78-138.814 53.983-198.305 5.509-57.29-46.271-70.51-124.491-31.95-187.288 53.983-91.441 182.882-95.848 251.187-8.814zM169.168 550.644c42.966-46.271 85.932-91.44 130-137.712-40.762-28.644-96.949-9.915-125.593 23.135-27.542 35.255-30.847 83.73-4.407 114.577zm369.068-185.085c66.102-88.136 166.356-126.695 269.915-102.458C910.61 287.34 987.728 378.78 994.338 479.034c7.712 110.17-52.882 208.22-153.136 247.88-109.068 41.865-224.746 7.713-301.864-89.236 11.017-11.017 20.932-19.83 35.254-36.356 12.119 13.22 20.932 29.745 34.153 40.762 62.796 57.289 135.508 72.712 214.83 40.763 78.22-31.949 120.085-93.644 124.492-177.373 6.61-76.017-45.17-152.034-117.882-185.084-74.915-34.153-164.152-17.628-223.644 38.559-11.017 11.017-20.932 24.237-33.05 39.66-14.323-14.321-24.238-23.135-35.255-33.05z"/></svg>