<svg xmlns="http://www.w3.org/2000/svg" viewBox="0 0 1000 1000"><path d="M5 500.496c0 271.98 220.55 494.507 495.496 494.507 271.98 0 494.507-220.55 494.507-495.496C995.003 227.528 773.464 5 500.496 5 226.54 5 5 225.55 5 500.496zm167.143 91.978V243.352c14.836-10.879 20.77 0 26.704 5.935 97.912 66.263 193.847 137.472 290.77 206.703 12.857 9.89 23.736 9.89 36.594 0 16.813-12.857 37.582-26.703 56.373-39.56 77.143-56.374 157.254-112.748 234.397-167.143 5.934-5.935 11.868-12.858 22.747-5.935v349.122c-22.747 19.78-46.484 37.583-73.187 53.407-3.956 3.956-9.89 3.956-12.857 7.912-3.956-7.912-7.912-10.879-7.912-17.802V429.287c-5.934 3.956-11.868 7.912-15.825 10.88-50.44 36.593-102.857 72.197-153.297 106.813-9.89 8.9-15.824 15.824-15.824 29.67 2.967 66.264 0 129.561 2.967 195.825 0 12.857-7.912 23.736-20.77 33.627-43.516 29.67-29.67 29.67-73.186 0-9.89-9.89-15.824-20.77-15.824-33.627V576.65c0-10.879-3.957-20.77-14.836-27.692-52.417-36.594-102.857-72.198-157.253-108.792-1.978-2.967-5.934-6.923-11.868-10.879-3.956 10.88-3.956 16.813-3.956 23.736v182.968c0 2.967-2.967 9.89-2.967 17.802-6.923-3.956-13.846-3.956-16.814-7.912-23.736-15.824-47.472-33.626-74.176-53.407z"/></svg>