<svg xmlns="http://www.w3.org/2000/svg" width="1000" height="1000">
  <path d="M481.396 9.545c10.802-4.801 28.807-7.202 42.01 0 0 0 46.811 21.605 51.613 24.006 92.422 55.213 186.045 110.427 282.068 168.04 49.212 30.008 74.418 68.417 74.418 126.031 4.801 111.628 4.801 229.256 0 342.084 0 55.213-19.205 93.622-63.615 123.63-19.205 10.802-31.208 19.204-55.214 32.407-81.62 44.411-160.839 93.623-237.657 138.034-3.601 2.4-22.806 13.203-51.613 27.607-13.203 7.201-31.208 2.4-48.012-3.601-13.203-4.801-43.21-19.205-62.415-30.008-68.416-38.409-132.032-76.818-194.447-112.827-30.007-19.205-63.615-38.41-93.623-57.614-38.41-24.006-60.014-62.415-60.014-111.627V324.022c0-40.81 10.802-68.417 40.81-92.423 24.005-19.205 32.407-30.007 51.612-42.01 44.41-26.406 93.623-57.614 138.034-81.62 62.415-33.608 117.628-67.216 186.045-98.424zM201.728 642.1c0 19.204 16.804 33.608 36.009 33.608 19.204 0 32.407-19.205 32.407-33.608 0-21.605-13.203-34.809-32.407-34.809-19.205 0-36.01 13.204-36.01 34.809zm19.205-249.66c6.001 57.613 0 106.825 6.001 164.44 0 9.601 0 31.207 10.803 31.207 7.201 0 13.203-16.804 13.203-31.208V387.637c36.009 19.205 68.416 30.007 104.425 49.212-6.001 8.402-10.802 13.203-16.804 19.205-24.006 38.409-49.212 76.818-70.817 112.827-6.002 4.801-7.202 13.203-13.203 19.205 10.802 4.8 12.003 6.001 20.405 12.003 30.007-44.411 55.213-81.62 82.82-120.03 6.001 27.607 6.001 52.813 6.001 82.82 0 10.803-6.001 13.204-14.403 19.205-16.804 9.603-37.21 14.404-67.217 26.407 6.002 10.802 4.802 12.003 7.202 22.805 30.007-10.802 55.214-19.204 85.22-30.007 8.403 10.803 15.605 15.604 32.409 32.408 10.802 8.402 19.204 16.804 30.007 31.207-30.007-3.6-54.013-8.402-79.22-14.403-19.204-4.801-38.409-8.402-51.612-13.203-10.802 0-16.804 1.2-16.804 8.402-1.2 13.203 4.801 19.204 16.804 19.204 19.205 4.802 32.408 4.802 51.613 10.803 40.81 10.803 74.418 19.205 112.827 24.006 10.803 30.007 16.804 55.213 16.804 82.82-16.804-6.002-25.206-14.404-38.41-19.205-50.411-30.007-99.623-57.614-148.835-87.621-19.205-6.001-19.205-6.001-30.007 10.803 6.001 2.4 12.002 6.001 16.804 8.402 57.614 34.808 111.627 68.416 169.24 103.225 31.208 14.403 55.214 8.402 80.42-4.801 38.41-25.207 81.62-49.212 120.03-74.419 10.802-4.8 19.204-13.203 25.205-19.204 0-13.203-6.001-30.007-8.402-43.21 1.2 0-160.839 18.004-159.638 18.004-16.804 0-26.407-4.801-32.408-9.603-30.007-22.805-55.214-46.811-79.22-72.017-8.401-4.801-8.401-16.804-8.401-24.006V450.052c0-10.802 0-19.204 8.402-30.007 24.005-24.006 49.212-49.212 73.217-70.817 12.003-10.803 25.206-16.804 38.41-16.804 49.212 0 91.222 2.4 134.432 6.001h27.607c10.803 0 19.205 4.801 25.206-10.803 4.801-8.402-8.402-14.403-14.403-19.204-34.809-19.205-68.417-38.41-104.426-63.616-7.201-6.001-19.204-13.203-26.406-13.203-16.804 19.205-16.804 19.205 4.801 32.408 19.205 10.803 38.41 25.206 63.615 38.41 0 0 7.202 6 13.204 10.802-49.212-4.801-87.622-4.801-130.832-4.801V274.81c-19.205-4.802-24.006 1.2-25.206 14.403-6.002 13.203-10.803 21.605-30.007 24.006-49.212 10.803-102.025 25.206-151.237 36.009-4.801 0-13.203 1.2-18.005 0-1.2-3.601 4.802-6.002 4.802-6.002 51.612-34.808 111.627-62.415 164.44-98.424-2.401-6.001-2.401-8.402-8.403-19.204-3.6-3.601-10.802 2.4-16.804 6.001-51.612 32.408-111.627 68.417-164.44 96.023-24.005 15.604-40.81 34.809-40.81 64.816zm74.418-10.803c0-4.802 4.8-4.802 4.8-4.802 44.412-14.403 87.622-25.206 132.033-27.606-8.402 19.204-38.41 46.811-63.616 62.415-19.204-10.803-48.011-19.205-73.217-30.007zm172.842-166.84c0 21.604 13.203 36.008 26.406 36.008 19.205 0 36.009-15.604 36.009-36.009 0-13.203-10.803-30.007-36.009-27.607-19.205 2.4-26.406 14.404-26.406 27.607zm38.409 484.917c49.212-4.801 98.424-10.803 145.235-13.203 4.801 0 4.801 2.4 4.801 2.4-43.21 30.007-93.622 55.214-136.833 85.22-8.402-25.205-13.203-44.41-13.203-74.417zm188.446-38.41c0 19.205 10.802 33.609 30.007 33.609 19.205 0 36.009-8.402 36.009-30.008 0-19.204-16.804-34.808-36.009-34.808-13.203 0-30.007 15.604-30.007 31.207zm21.605-318.077c0 8.402 8.402 14.404 19.205 14.404 6.001 0 14.403-6.002 14.403-14.404 0-10.802-8.402-19.204-19.205-19.204-10.802 0-14.403 8.402-14.403 19.204z" style="fill:#000;fill-opacity:1;fill-rule:nonzero;stroke:none;"/>
</svg>
