<svg xmlns="http://www.w3.org/2000/svg" viewBox="0 0 1000 1000"><path d="M500.375,798.511h-1.037c-164.71,2.034-299.882-129.842-301.915-294.552S327.265,204.076,491.976,202.043q3.514-.043,7.03,0c164.631-.135,298.2,133.215,298.336,297.846a298.074,298.074,0,0,1-15.384,94.77L915.969,774.662C1067.714,544.5,1004.146,234.9,773.984,83.158S234.225-5.019,82.479,225.142-5.7,764.9,224.464,916.647A499.169,499.169,0,0,0,637.289,979.6c-5.143-5.475-136.872-181.252-136.872-181.252Z"/><path d="M735.961,643.639l-6.1-8.3c-1.493-1.908-3.484-4.147-5.557-6.553a203.712,203.712,0,0,0-15.264-15.263c-2.364-2.115-4.894-4.148-7.59-6.512l-4.148-3.4-4.147-3.318q-4.563-3.36-9.581-6.719c-39.527-25.8-81.958-38.49-133.1-38.49H419.911S634.635,842.435,687.724,914.77A176.143,176.143,0,0,0,707.84,938c.954.913,1.95,1.867,2.986,2.78,2.365,2.115,4.895,4.147,7.591,6.553l4.147,3.4,4.148,3.318q4.562,3.36,9.581,6.719A238.077,238.077,0,0,0,869.474,999.3H1000Z"/></svg>