<?xml version="1.0" encoding="utf-8"?>
<!-- Generator: Adobe Illustrator 26.0.1, SVG Export Plug-In . SVG Version: 6.00 Build 0)  -->
<svg version="1.1" id="Layer_1" xmlns="http://www.w3.org/2000/svg" xmlns:xlink="http://www.w3.org/1999/xlink" x="0px" y="0px"
	 viewBox="0 0 1000 1000" style="enable-background:new 0 0 1000 1000;" xml:space="preserve">
<g>
	<path d="M454.1,511.8c11.3,22,26.3,43.3,44.9,63.1c12.4-12.2,23-24.9,31.9-37.7c0,0,0.1-0.1,0.1-0.1c0.8-1.1,1.4-2.2,2.2-3.3
		c13.4-20.8,24.4-44.4,32.3-70.5c-16.8-4.6-33-7.4-48.5-8.7c0,0-0.1,0-0.1,0c-1.3-0.1-2.6-0.1-3.9-0.2c-24.8-1.2-50.7,1.1-77.2,7.3
		c4.4,16.9,10,32.3,16.7,46.4c0,0,0,0.1,0.1,0.1C452.9,509.5,453.5,510.6,454.1,511.8z"/>
	<path d="M430.4,622.7c-8.3-9.7-16-19.9-23-30.4c-19.5-27.8-36.3-61-47.6-100.3c-3.7,2.1-7.1,4.3-10.3,6.4c1.5,2.5,2.9,5.1,4,7.9
		c13.2,31.7-1.7,68.1-33.4,81.4c-31.7,13.3-68.1-1.7-81.4-33.4c-0.5-1.1-0.9-2.2-1.3-3.3c-14.8-41,7-97.4,108.6-145.1
		c-0.7-53.8,13.9-123.8,57.5-180.1l0,0c0.1-0.1,0.1-0.2,0.2-0.3c-120.4,42.3-203.1,161-194.1,294.4c0.5,7.3,1.3,14.4,2.3,21.5
		c1.6,8.1,4.3,16.7,7.6,24.2c17.7,39.5,52.4,65.1,91.6,73.1C351.8,646.8,395.6,637.9,430.4,622.7z"/>
	<path d="M641,498.8c-4.3,12.1-9.2,23.8-14.8,35.2c-14.3,30.8-34.5,62-62.9,91.5c3.7,2.1,7.2,4,10.6,5.7c1.4-2.5,3-5,4.8-7.4
		c20.8-27.3,59.8-32.6,87.2-11.8c27.3,20.8,32.6,59.8,11.8,87.1c-0.7,1-1.5,1.9-2.3,2.8c-28.1,33.3-87.9,42.6-180-21.5
		c-46.3,27.5-114.2,49.9-184.8,40.3c55.9,48,130,75,209.2,69.6c60.4-4.1,115.3-26.5,159.7-61.4c0.1-0.1,0.2-0.2,0.3-0.2
		c6.2-5.5,12.3-12,17.1-18.7c25.4-35.1,30.2-77.9,17.5-115.9C701.2,554.9,671.6,521.4,641,498.8z"/>
	<path d="M609.4,230.3C609.3,230.3,609.3,230.3,609.4,230.3c-0.4-0.1-0.8-0.2-1.1-0.3c-7.8-2.6-16.6-4.6-24.7-5.5
		c-43.1-4.4-82.6,12.8-109.1,42.8c-27.5,31-41.6,73.4-45.9,111.1c12.6-2.4,25.2-3.9,37.9-4.8c33.8-3,70.9-1.1,110.6,8.7
		c0-4.2-0.2-8.2-0.3-12c-2.9,0-5.9-0.1-8.8-0.4c-34.1-4.4-58.1-35.5-53.8-69.6c4.4-34.1,35.5-58.1,69.6-53.8
		c1.2,0.1,2.4,0.3,3.5,0.6c42.9,7.7,80.8,54.8,71.3,166.5c47,26.3,100.3,73.9,127.3,139.9v0c0.1,0.1,0.1,0.3,0.2,0.4
		c4.5-23.8,6.1-48.5,4.4-73.8C782.6,365.7,709.1,271,609.4,230.3z"/>
	<path d="M500.5,5C223.6,5,5,229.5,5,499.5C5,773.5,226.5,995,499.5,995C776.4,995,995,770.5,995,499.5C995,223.6,770.5,5,500.5,5z
		 M525.3,871.4c-182.6,12.4-343.2-109-386.2-280.5c0,0,0,0,0,0c0,0,0,0,0,0c-1.4-5.5-2.6-11-3.8-16.6c0-0.1,0-0.2-0.1-0.3
		c0,0,0,0,0,0c-1.2-6.2-2.3-12.4-3.3-18.6c-0.1-0.4-0.1-0.9-0.2-1.3c0,0,0,0,0,0c-1.4-9.5-2.5-19.1-3.2-28.8
		c-6.9-102.2,28-197.5,90.2-269.2c0.4-0.6,0.8-1.2,1.2-1.7l0.2,0.1l0,0c62.6-71.3,152.3-118.9,254.5-125.9
		c205.1-14,382.7,141,396.7,346.2C885.4,679.9,730.4,857.5,525.3,871.4z"/>
</g>
</svg>
