<svg xmlns="http://www.w3.org/2000/svg" width="1000" height="1000">
  <path d="M500.496 5C223.572 5 5 229.506 5 500.002c0 276.43 224.506 495.001 495.002 495.001 276.43 0 495.001-224.506 495.001-495.001C995.003 226.539 773.464 5 500.496 5zM147.418 451.045c24.725-83.077 134.506-136.484 191.869-113.736v-33.627c0-92.967 74.176-166.154 162.198-166.154 81.1 0 155.275 59.34 166.155 144.396 3.956 32.637-10.88 55.385 16.813 55.385 72.198-7.912 127.583 21.758 164.176 85.055 62.308 102.858-17.802 242.309-138.462 242.309-11.868 0-25.714 0-34.615 4.945-7.912 1.978-3.956 20.769-3.956 33.626-3.956 109.78-102.858 183.957-206.704 158.242-76.154-18.79-135.495-96.923-125.605-178.022 0-13.846-3.956-18.791-17.802-18.791-36.594 4.945-70.22-2.968-102.858-21.759-67.253-44.505-96.923-113.736-71.209-191.869zm195.825-107.802c7.912 18.791 14.835 34.615 22.747 44.506 22.748 41.538 54.396 70.22 98.902 75.165-18.792-59.341-70.22-114.726-121.65-119.671zm3.956 318.462c47.473-3.956 102.857-63.296 114.726-118.681-55.385 14.835-118.682 78.132-114.726 118.681zm117.693-126.593c18.79 0 52.417.989 74.176.989v-67.253c0-6.923 0-2.967 29.67-13.847 62.308-26.703 85.055-62.307 96.924-111.758-41.539 0-99.89 52.418-111.76 86.044-14.834 39.56-8.9 39.56-67.252 36.594-5.934 0-14.835-1.978-21.758-2.967zm74.176.989c14.835 25.714 22.747 48.461 37.582 70.22 21.759 29.67 51.429 44.505 85.055 55.384-7.912-59.34-61.318-107.802-122.637-125.604z" style="fill:#000;fill-opacity:1;fill-rule:nonzero;stroke:none;"/>
</svg>
