<svg xmlns="http://www.w3.org/2000/svg" width="1000" height="1000">
  <path d="M500.496 995.003c275.935 0 494.507-224.506 494.507-495.496C995.003 226.54 773.464 5 500.496 5 223.572 5 5 229.506 5 499.507c0 276.924 224.506 495.496 495.496 495.496zM175.11 344.232c1.978-24.725 2.967-50.44 5.935-76.154.989-12.857 3.956-25.715 19.78-27.693 13.846-2.967 21.758 6.923 27.692 18.792 36.594 72.198 74.176 144.396 109.78 217.583 5.935 9.89 11.869 14.835 22.748 14.835 93.957-.989 185.935-.989 277.913 0 11.868 0 18.791-4.945 22.748-14.835 37.582-73.187 75.165-145.385 112.747-218.572 4.945-11.869 11.868-20.77 25.715-17.803 13.846 1.978 17.802 11.869 19.78 23.737 16.813 164.176-14.835 314.506-120.66 445.056-51.429 63.297-115.715 110.77-187.913 145.385-6.923 3.956-16.813 2.967-23.736 0-180.99-90.99-283.847-237.363-307.583-439.122-2.968-23.736-2.968-46.484-4.946-71.21zm45.495-2.967c-19.78 149.341 98.902 380.77 224.506 436.155-75.165-146.374-149.34-290.77-224.506-436.155zm47.473-106.814c0-12.857 7.912-18.791 18.791-22.747 68.242-19.78 134.506-40.55 202.748-60.33 7.912-2.967 15.824-1.978 21.758 0 67.253 19.78 133.517 39.56 200.77 60.33 10.88 2.967 19.78 8.901 20.77 20.77 0 17.802-14.836 25.714-33.627 20.769-36.593-10.88-72.198-21.759-108.792-33.627-24.725-6.923-50.44-15.824-75.165-21.758-9.89-2.967-21.758-2.967-30.66 0-61.318 17.802-122.637 36.593-182.967 54.396-19.78 5.934-33.626-.99-33.626-17.803zm101.868 301.65c43.517 85.055 86.045 167.143 130.55 253.187 44.506-86.044 87.033-169.121 130.55-253.187zM557.86 776.43c.989 0 1.978-.989 2.967-.989 5.934-2.967 11.868-5.934 16.813-10.879 111.759-81.1 174.067-191.869 196.814-327.364 4.945-30.66 4.945-60.33 8.901-90.99-5.934.99-6.923 1.979-7.912 3.957-72.198 140.44-145.385 281.869-216.594 422.31-.989 1.977-.989 2.966-.989 3.955z" style="fill:#000;fill-opacity:1;fill-rule:nonzero;stroke:none;"/>
</svg>
