<?xml version="1.0" encoding="UTF-8"?><svg id="a" xmlns="http://www.w3.org/2000/svg" viewBox="0 0 1000 1000"><path d="M989.497,574.883v39.179c0,11.71-9.492,21.202-21.202,21.202H41.903c-11.71,0-21.202-9.492-21.202-21.202v-39.179c0-11.71,9.492-21.202,21.202-21.202H968.295c11.71,0,21.202,9.492,21.202,21.202ZM10.872,475.633c-10.232-13.572-13.435-30.689-8.787-46.999C32.584,321.749,142.162,73.107,500.002,73.107s467.403,248.643,497.909,355.543c4.656,16.295,1.445,33.427-8.794,46.984-10.316,13.678-26.063,21.529-43.195,21.529H54.083c-17.14,0-32.887-7.851-43.21-21.529Zm37.315-28.148c.829,1.095,2.693,2.936,5.896,2.936H945.922c3.195,0,5.067-1.841,5.888-2.936,.959-1.263,1.917-3.332,1.156-6.01-27.6-96.706-126.969-321.629-452.964-321.629S74.623,344.77,47.031,441.461c-.768,2.693,.205,4.762,1.156,6.025Zm941.31,264.268v34.249c0,98.273-76.196,179.399-169.863,180.86l-3.96,.03H174.49c-48.323,0-90.616-16.402-122.32-47.44-26.474-25.911-41.662-63.659-41.662-103.568v-64.131c0-12.902,10.084-23.37,22.53-23.37h116.737c12.446,0,22.53,10.468,22.53,23.37v62.594c0,5.204,2.267,10.118,6.211,13.48,2.29,1.948,7.136,5.006,14.125,3.576,7.554-1.552,13.252-9.646,13.252-18.836v-60.814c0-12.902,10.084-23.37,22.53-23.37h76.704c12.444,0,22.528,10.468,22.528,23.37v32.104c0,3.043,1.371,5.873,3.756,7.76,1.685,1.339,4.502,2.754,8.513,1.613,3.741-1.035,6.573-5.569,6.573-10.529v-30.947c0-12.902,10.084-23.37,22.528-23.37H966.968c12.438,0,22.53,10.468,22.53,23.37Zm-45.059,23.37H391.552v7.577c0,26.231-16.434,49.129-39.96,55.687-16.7,4.656-34.059,1.126-47.619-9.692-13.583-10.818-21.377-27.159-21.377-44.838v-8.733h-31.647v37.444c0,31.556-20.825,58.76-49.53,64.679-18.342,3.819-37.13-1.065-51.497-13.298-14.412-12.278-22.676-30.354-22.676-49.601v-39.224H55.566v40.761c0,27.098,10.032,52.446,27.531,69.578,23.511,23.02,54.26,34.69,91.392,34.69l644.528-.03c69.129-1.08,125.421-61.24,125.421-134.12v-10.879Z"/></svg>