<?xml version="1.0" encoding="utf-8"?>
<!-- Generator: Adobe Illustrator 26.0.1, SVG Export Plug-In . SVG Version: 6.00 Build 0)  -->
<svg version="1.1" id="Layer_1" xmlns="http://www.w3.org/2000/svg" xmlns:xlink="http://www.w3.org/1999/xlink" x="0px" y="0px"
	 viewBox="0 0 1000 1000" style="enable-background:new 0 0 1000 1000;" xml:space="preserve">
<style type="text/css">
	.st0{fill-rule:evenodd;clip-rule:evenodd;}
</style>
<path class="st0" d="M385.9,7.6h-94.7L91.8,206.9h161.8C275.3,128,360.2,22.4,385.9,7.6z M908.8,206.9L707.5,7.6h-88.8
	C682.7,66,727.3,147.7,752,206.9H908.8z M91.8,793.1l201.3,199.3h88.8C318,934,273.4,852.3,248.7,793.1H91.8z M565.4,7.6H521v199.3
	h193.4C669.5,99.6,596.4,29.3,565.4,7.6z M482.6,206.9V7.6h-45.4c-84.5,60.8-132.6,158.2-146,199.3L482.6,206.9L482.6,206.9z
	 M518.1,793.1v199.3h45.4c84.5-60.8,132.6-158.2,146-199.3H518.1z M435.2,992.4h44.4V793.1H286.2
	C331.2,900.4,404.3,970.7,435.2,992.4z M614.8,992.4h94.7l199.3-199.3H747C725.3,872,640.4,977.6,614.8,992.4z M110.8,319.8h61.6
	v151.8h98.2V319.8h61.6v368.1h-61.6V527.6h-98.2v160.3h-61.6V319.8z M399.2,319.8h118.2c10.7,0,21.4,0.9,32.1,2.8
	c10.7,1.8,20.9,5.3,30.6,10.3c9.7,5,18,11.7,25,20c7,8.4,12,17.7,15,28c3,10.4,4.5,20.9,4.5,31.6v44.1c0,10.7-1.4,21.2-4.3,31.6
	c-2.8,10.4-7.8,19.7-15,28c-7.2,8.4-15.6,14.9-25.3,19.8c-9.7,4.8-19.7,8.4-30,10.8l85.1,141.2h-66.6l-83.6-138.7h-24v138.7h-61.6
	V319.8z M517.4,493.6c5.7,0,11.3-0.6,16.8-1.8c5.5-1.2,10.5-3.4,15-6.8c4.5-3.3,7.9-7.6,10.3-12.8c2.3-5.2,3.5-10.4,3.5-15.8v-44.1
	c0-5.3-1.2-10.6-3.5-15.8c-2.3-5.2-5.8-9.4-10.3-12.8c-4.5-3.3-9.5-5.6-15-6.8c-5.5-1.2-11.1-1.8-16.8-1.8h-56.6v118.2H517.4z
	 M767.6,689.7c-9.9-1.5-19.3-4.3-28.3-8.5c-9-4.2-17.2-9.6-24.5-16.3c-7.3-6.7-13.4-14.4-18.3-23c-4.8-8.7-8.2-17.9-10-27.5
	c-1.8-9.7-2.8-19.5-2.8-29.5V423c0-10,0.9-19.9,2.8-29.5c1.8-9.7,5.2-18.9,10-27.5c4.8-8.7,10.9-16.4,18.3-23
	c7.3-6.7,15.5-12.1,24.5-16.3c9-4.2,18.4-7,28.3-8.5c9.8-1.5,19.8-2.3,29.8-2.3c14,0,27.9,1.7,41.6,5c13.7,3.3,26,9.4,37.1,18.3
	c11,8.9,19.4,19.8,25.3,32.8c5.8,13,8.8,26.5,8.8,40.6h-61.6c0-8.3-2.5-15.9-7.5-22.8c-5-6.8-11.5-11.6-19.5-14.3c-8-2.7-16-4-24-4
	c-7,0-13.9,1-20.5,3c-6.7,2-12.5,5.5-17.5,10.5c-5,5-8.6,10.9-10.8,17.5c-2.2,6.7-3.3,13.5-3.3,20.5v161.8c0,7,1.1,13.9,3.3,20.5
	c2.2,6.7,5.8,12.5,10.8,17.5s10.8,8.5,17.5,10.5c6.7,2,13.5,3,20.5,3c8,0,16-1.3,24-4c8-2.7,14.5-7.5,19.5-14.5
	c5-7,7.5-14.5,7.5-22.5h61.6c0,14-2.9,27.5-8.8,40.6c-5.8,13-14.3,24-25.3,32.8c-11,8.9-23.4,14.9-37.1,18.3
	c-13.7,3.3-27.5,5-41.6,5C787.4,691.9,777.5,691.2,767.6,689.7z"/>
</svg>
