<svg xmlns="http://www.w3.org/2000/svg" viewBox="0 0 1000 1000"><path d="M5 500.496c0 271.98 220.55 494.507 495.496 494.507 271.98 0 494.507-220.55 494.507-495.496C995.003 227.528 773.464 5 500.496 5 226.54 5 5 225.55 5 500.496zm159.231-145.385c-2.967-3.956-.989-6.923 8.901-6.923h190.88c10.88 0 13.846 0 13.846 12.857v61.319H222.583c-12.857 0-20.77-2.967-26.703-12.857-8.901-19.78-22.748-39.56-31.649-54.396zm70.22 111.759h187.913V279.946h312.529c-13.847 19.78-26.704 42.528-39.561 61.319-2.967 6.923-13.846 9.89-19.78 9.89H517.309v119.67h186.924v71.21H517.31v123.627h291.76c-22.748 25.714-45.495 48.461-65.275 74.176h-321.43V542.035H293.792c-5.934 0-13.846 0-15.824-2.967-13.846-21.759-26.703-45.495-43.517-72.198z"/></svg>