<svg xmlns="http://www.w3.org/2000/svg" viewBox="0 0 1000 1000"><path d="M501.289 995C223.576 995 3.72 767.43 5.006 496.144 6.29 227.432 226.147 5.005 506.43 5.005 771.287 6.29 995 227.432 995 501.288c-2.571 272.57-223.713 493.711-493.711 493.711zm-398.57-704.568c-81 151.713-59.142 320.14 1.286 420.426 6.429-3.857 12.857-10.286 20.571-14.143-1.285-2.571-1.285-3.857-2.57-7.714-54-113.142-63-231.427-12.858-347.14 64.285-150.429 178.713-237.857 339.427-258.428 18-5.143 32.142-10.286 34.714-29.571l3.857-1.286C359.86 50.005 190.148 123.29 102.719 290.432zm14.143 448.712c59.143 101.57 203.142 214.713 393.427 212.141 173.57-3.857 311.14-110.57 370.283-212.141-7.714-3.858-14.143-10.286-23.143-12.858l-2.571 1.286c-3.857 1.286-3.857 1.286-5.143 3.857C749.43 876.714 613.145 939.714 440.86 916.571c-113.142-14.143-206.998-69.428-277.712-159.428-9-18-21.857-32.142-46.286-18zm6.429-21.857c78.428-12.858 156.856-28.286 233.998-41.143-11.57-14.143-18-27-28.285-39.857 25.714-5.143 48.857-7.714 75.857-11.571-12.857-16.715-23.143-33.429-36-48.857 42.428-25.714 86.142-50.143 126-72v-2.571c-75.858 14.143-153 28.285-231.428 42.428 10.285 15.429 19.285 27 28.285 38.571-27 5.143-50.142 9-77.142 12.857 14.143 15.429 25.714 33.429 37.285 50.143-43.714 23.143-84.856 48.857-128.57 69.428zm156.856-194.142c65.571-12.857 133.714-21.857 200.57-37.286V370.146h-1.285c-9 1.285-20.572 1.285-32.143 2.571-20.571 0-28.286-7.714-21.857-28.285 5.143-11.572 7.714-25.715 15.428-41.143-7.714 2.571-10.285 2.571-15.428 2.571-3.857 0-11.571 0-14.143-2.571-6.428-2.572-10.286-2.572-15.428 0-56.571 33.428-95.143 79.714-113.143 142.713-5.142 24.429-6.428 50.143-2.571 77.143zm79.714 124.713c2.571 7.715 6.428 10.286 9 14.143 2.571 6.429 6.428 9 5.143 14.143-2.572 6.428 1.285 10.286 7.714 12.857 51.428 33.428 111.856 39.857 174.856 25.714 25.714-6.428 51.428-16.714 73.285-33.428l-2.571-2.572c-42.428-50.142-84.857-99-126-150.427-6.428-5.143-10.285-5.143-12.856 0-23.143 11.571-45 23.142-66.857 37.285-10.286 5.143-16.714 10.286-28.286 14.143 7.714 11.571 18 21.857 25.714 32.143 6.429 12.857 2.572 24.428-7.714 29.57-3.857 0-10.286 1.287-14.143 1.287-10.285 2.57-23.142 3.857-37.285 5.142zm59.142-357.426c14.143-1.286 32.143-3.857 47.572-5.143-7.715 21.857-18 47.571-25.715 69.428 20.572-1.286 38.572-1.286 60.429-2.571v142.713l1.285 1.286c25.714-73.285 51.429-145.285 77.143-222.427-18 1.285-33.429 3.857-48.857 5.142 10.286-24.428 18-46.285 29.571-69.428-21.857 1.286-41.143 5.143-63 5.143V68.005h-2.57c-23.144 72-50.144 146.57-75.858 222.427zm83.571 213.427c48.857 57.857 100.285 119.57 154.285 178.713 5.143-14.142 10.286-29.57 16.714-43.714 18 19.286 34.714 39.857 50.143 59.143 7.714-19.286 15.428-38.571 24.428-55.285 43.714 25.714 84.857 51.428 128.571 74.57v-2.57c-51.428-57.858-101.57-117-156.856-178.714-3.857 15.428-10.286 32.143-18 43.714-14.143-19.286-33.429-37.286-46.286-57.857-9 18-18 33.428-28.285 55.285-41.143-27-84.857-51.428-124.714-75.856zM512.86 50.005c1.286 3.857 1.286 9 3.857 11.571v9c-2.571 6.428 2.571 7.714 7.714 7.714 86.143 7.714 163.285 34.714 228.856 87.428 106.714 78.428 162 186.428 167.142 314.998 3.857 73.286-10.286 140.143-41.143 201.856-2.571 6.429-2.571 10.286 0 11.572 5.143 5.143 10.286 12.857 16.715 19.285 70.713-131.142 78.428-316.283-24.429-466.711C785.43 122.004 664.573 59.005 512.86 50.005zm10.286 435.854c-3.858 3.857 0 6.429 5.142 10.286 12.858 9 30.857 19.286 43.714 27 18 7.714 33.429 19.285 48.857 28.285 6.429-14.142 11.572-25.714 16.715-36 6.428-14.142 20.57-14.142 29.57-5.142 5.144 5.143 10.286 11.571 14.144 15.428 3.857 5.143 10.285 14.143 16.714 20.571 3.857-10.285 10.285-18 18-24.428 2.571-2.571 3.857-6.428 3.857-11.571 3.857-56.571-11.572-108-51.429-153-20.57-25.714-47.57-46.285-78.428-59.142v3.857c-23.142 63-45 122.142-66.856 183.856z"/></svg>