<svg xmlns="http://www.w3.org/2000/svg" width="1000" height="1000">
  <path d="M448.857 37.003c22.063-65.028 202.051-25.547 314.689 69.673 126.572 87.09 196.245 204.373 211.34 353.009 23.225 236.887-124.25 425.004-291.464 496.999-61.544 31.353-124.25 38.32-188.116 38.32-32.514 0-54.577-16.257-62.706-48.771-6.967-30.192 0-45.287 16.257-61.544 13.935-16.257 31.353-16.257 46.449-16.257 31.352 0 48.77-6.968 70.834-13.935 157.925-33.675 284.497-181.15 276.368-346.042 0-55.738-8.128-55.738-55.738-63.866-95.22 0-189.278 0-275.207 8.128-23.225 0-35.998 0-55.739 13.935-15.095 18.58-19.74 27.869-15.095 63.867 6.967 24.385 22.063 39.48 54.577 39.48h150.957c52.255 0 61.545 16.258 29.03 62.706-46.448 78.963-147.473 118.444-242.693 95.22-94.058-24.386-156.764-110.315-163.73-204.374-9.29-94.058 38.32-164.892 109.153-212.502 77.801-47.61 157.925-39.481 235.726 8.129 15.096 6.967 32.514 17.418 54.577 23.224 23.225 4.645 55.739 0 70.834-23.224 6.968-22.063 6.968-55.738-22.063-77.802-92.897-90.574-148.635-51.093-221.791-88.252-59.222-29.03-69.673-53.416-46.449-116.121zM22.692 508.455c0-30.191 41.804-63.866 63.867-63.866 32.514 0 62.705 40.642 62.705 63.866 0 31.353-30.191 61.545-62.705 61.545-30.192 0-63.867-39.481-63.867-61.545zm63.867 212.502c0-39.48 24.385-62.705 55.738-62.705 39.481 0 62.705 23.224 62.705 53.416 0 31.353-23.224 63.866-55.738 63.866-38.32 0-62.705-24.385-62.705-54.577zm0-415.714c0-33.675 24.385-56.9 62.705-56.9 32.514 0 55.738 23.225 55.738 56.9 0 27.87-23.224 53.416-62.705 53.416-31.353 0-55.738-25.547-55.738-53.416zm150.957 563.189c0-30.192 31.353-54.577 61.545-47.61 30.191 0 62.705 24.385 56.9 55.738 0 31.353-26.709 54.577-63.868 54.577-32.514 0-54.577-30.191-54.577-62.705zm0-722.275c0-32.514 22.063-62.705 54.577-62.705 30.192 0 63.867 23.224 63.867 54.577 5.806 31.352-26.708 63.866-56.9 63.866-39.48 0-61.544-23.224-61.544-55.738z" style="fill:#000;fill-opacity:1;fill-rule:nonzero;stroke:none;"/>
</svg>
