<svg xmlns="http://www.w3.org/2000/svg" viewBox="0 0 1000 1000"><path d="M626.005 164.841c0 7.59-11.383-2.53-11.383-2.53-50.591-49.325-96.123-92.328-139.125-134.065-17.707-18.972-24.031-21.502-45.532 0C292.104 162.312 158.038 293.849 20.177 429.18 8.794 444.357 5 462.064 5 472.182v481.88c0 21.501 3.794 32.884 35.413 32.884h810.722c26.56 0 31.62-6.324 31.62-32.884V703.636c0-27.825 10.118-45.532 30.354-65.768 18.972-18.972 40.473-46.797 65.769-65.768 21.5-21.502 21.5-30.355 0-50.592-25.296-20.236-46.797-40.472-73.357-69.562-12.648-17.707-22.766-34.15-22.766-54.386V138.281c0-25.295-5.06-30.355-31.62-30.355H690.51c-58.18 0-58.18 0-64.504 56.915zM72.033 840.232V513.92c0-30.355 1.264-48.062 20.236-61.974C201.04 341.91 313.605 230.61 427.435 116.78c11.383-8.854 13.913-12.648 26.56-20.237 53.12 49.327 103.712 97.388 150.509 146.715 10.118 11.383 21.501 35.413 21.501 50.59 16.442 130.273-21.501 239.043-125.213 323.784-79.68 63.238-179.598 88.534-283.31 69.562-30.355-6.324-30.355-6.324-30.355 26.56V889.56c0 27.825-12.647 31.619-35.413 31.619-98.653 0-79.681 10.118-79.681-80.946zM251.63 889.56V784.582c0-18.972 3.794-27.825 26.56-27.825 99.918 0 187.187-32.884 266.868-89.8 94.859-79.68 145.45-173.274 154.303-290.898 0-55.65-7.589-115.095-7.589-163.156 0-48.062 0-48.062 45.532-48.062h49.327c22.766 0 31.619 11.383 31.619 37.944v204.894c-6.324 36.678 7.589 58.18 32.884 86.004 12.648 7.589 24.031 20.237 31.62 27.825 22.766 20.237 30.354 30.355 0 50.592-53.121 39.208-73.357 86.004-64.504 151.773 7.589 54.385 0 108.77 0 165.686 0 20.236-8.853 31.619-39.208 31.619H284.515c-32.884 0-32.884-3.794-32.884-31.62z"/></svg>