<svg width="1000" height="1000" viewBox="0 0 1000 1000" fill="none" xmlns="http://www.w3.org/2000/svg">
<path d="M289 2L87 204H251C273 124 359 17 385 2H289Z" fill="black"/>
<path d="M483 204V2H437C351.4 63.6 302.667 162.333 289 204H483Z" fill="black"/>
<path d="M522 204H718C672.4 95.2 598.333 24 567 2H522V204Z" fill="black"/>
<path d="M756 204H915L711 2H621C685.8 61.2 731 144 756 204Z" fill="black"/>
<path d="M713 1000L915 798L751 798C729 878 643 985 617 1000L713 1000Z" fill="black"/>
<path d="M519 798L519 1000L565 1000C650.6 938.4 699.333 839.667 713 798L519 798Z" fill="black"/>
<path d="M480 798L284 798C329.6 906.8 403.667 978 435 1000L480 1000L480 798Z" fill="black"/>
<path d="M246 798L87 798L291 1000L381 1000C316.2 940.8 271 858 246 798Z" fill="black"/>
<path d="M420.87 584.501C420.87 609.201 417.403 631.517 410.47 651.451C403.536 670.951 394.003 687.634 381.87 701.501C369.736 714.934 355.22 725.334 338.32 732.701C321.42 739.634 303.003 743.101 283.07 743.101C262.703 743.101 244.07 739.634 227.17 732.701C210.27 725.334 195.753 714.934 183.62 701.501C171.486 688.067 161.953 671.601 155.02 652.101C148.52 632.601 145.27 610.717 145.27 586.451C145.27 561.317 148.52 537.917 155.02 516.251C161.953 494.151 170.836 472.701 181.67 451.901L272.67 273.801H357.82L264.22 449.301L264.87 449.951C269.636 445.617 275.703 442.367 283.07 440.201C290.87 438.034 298.236 436.951 305.17 436.951C320.336 436.951 334.853 439.984 348.72 446.051C363.02 451.684 375.37 460.567 385.77 472.701C396.603 484.401 405.053 499.567 411.12 518.201C417.62 536.834 420.87 558.934 420.87 584.501ZM346.77 583.851C346.77 556.984 341.57 534.884 331.17 517.551C320.77 500.217 305.17 491.551 284.37 491.551C274.403 491.551 265.52 493.934 257.72 498.701C249.92 503.467 243.203 510.184 237.57 518.851C231.936 527.084 227.603 536.834 224.57 548.101C221.536 559.367 220.02 571.717 220.02 585.151C220.02 613.317 225.653 636.067 236.92 653.401C248.186 670.301 263.786 678.751 283.72 678.751C303.653 678.751 319.036 670.084 329.87 652.751C341.136 634.984 346.77 612.017 346.77 583.851Z" fill="black"/>
<path d="M745.87 734.001L615.22 409.001H613.27L614.57 734.001H544.37V273.801H633.419L762.77 600.751H764.72L764.07 273.801H831.669V734.001H745.87Z" fill="black"/>
</svg>
