<?xml version="1.0" encoding="utf-8"?>
<!-- Generator: Adobe Illustrator 26.0.1, SVG Export Plug-In . SVG Version: 6.00 Build 0)  -->
<svg version="1.1" id="Layer_1" xmlns="http://www.w3.org/2000/svg" xmlns:xlink="http://www.w3.org/1999/xlink" x="0px" y="0px"
	 viewBox="0 0 1000 1000" style="enable-background:new 0 0 1000 1000;" xml:space="preserve">
<path d="M500,3.1C226.4,3.1,4.6,225.6,4.6,500S226.4,996.9,500,996.9c273.6,0,495.4-222.5,495.4-496.9S773.6,3.1,500,3.1z
	 M681.4,759.9c-15.6,26.1-38.5,46.8-68.7,62.3c-30.2,15.4-65.8,23.1-106.9,23.1c-40.1,0-76-6.6-107.7-20
	c-31.7-13.3-57.2-33-76.5-59.1c-18.7-26.1-28.6-57.5-29.7-94.2H434c2.1,20.8,9.1,36.7,21.1,47.9c12,10.6,27.6,16,46.8,16
	c19.8,0,35.4-4.5,46.8-13.6c11.4-9.6,17.2-22.6,17.2-39.1c0-13.8-4.7-25.3-14.1-34.3c-8.8-9-20-16.5-33.6-22.3
	c-13-5.9-31.7-12.5-56.2-20c-35.4-11.2-64.3-22.3-86.6-33.5c-22.4-11.2-41.6-27.7-57.8-49.5c-16.1-21.8-24.2-50.3-24.2-85.4
	c0-52.1,18.5-92.9,55.4-122.1c36.9-29.8,85.1-44.7,144.4-44.7c60.4,0,109,14.9,146,44.7c36.9,29.3,56.7,70.2,59.3,122.9H554.2
	c-1-18.1-7.5-32.2-19.5-42.3c-12-10.6-27.3-16-46-16c-16.1,0-29.1,4.5-39,13.6c-9.9,8.5-14.8,21-14.8,37.5c0,18.1,8.3,32.2,25,42.3
	c16.7,10.1,42.7,21,78.1,32.7c35.4,12.2,64,24,85.9,35.1c22.4,11.2,41.6,27.4,57.8,48.7c16.1,21.3,24.2,48.7,24.2,82.2
	C705.6,704.8,697.5,733.8,681.4,759.9z M715.5,241.6h-431v-84.5h431V241.6z"/>
</svg>
