<svg xmlns="http://www.w3.org/2000/svg" viewBox="0 0 1000 1000"><path d="M500.496 5C223.572 5 5 229.506 5 500.002c0 276.43 224.506 495.001 495.002 495.001 276.43 0 495.001-224.506 495.001-495.001C995.003 226.539 773.464 5 500.496 5zM166.21 651.815c-1.978-99.89 0-198.792 0-297.693 0-20.77 6.923-38.572 20.77-57.363v409.452c-13.847-16.813-20.77-33.626-20.77-54.396zm55.385 63.297V288.847c0-17.802 5.934-25.714 24.725-27.692v482.639c-22.747-5.934-24.725-7.912-24.725-28.682zm56.374 32.638c1.978-162.199 1.978-326.375 0-490.551 0-16.814 6.923-26.704 23.736-29.67v550.88c-14.835-2.967-23.736-10.879-23.736-30.66zm59.34 31.648V224.561c0-17.802 5.935-26.703 22.748-31.648v618.134c-16.813-2.967-22.747-13.847-22.747-31.649zm56.375-590.441c0-16.814 8.9-24.726 25.714-29.67v683.408c-23.736-5.934-23.736-5.934-23.736-28.681 0-207.693 0-416.375-1.978-625.057zm58.351 656.705V157.308c0-16.813 5.935-26.703 23.737-29.67V877.31c-17.802-4.945-23.737-13.847-23.737-31.649zm56.374 24.725c0-250.22 1.978-501.43 1.978-750.661 0-4.945 6.923-5.934 18.792 0 27.692 14.835 55.384 28.681 82.088 42.527 65.275 37.583 129.56 76.154 193.847 113.737 33.626 17.802 49.45 46.484 49.45 82.088V646.87c0 36.594-15.824 63.297-47.472 80.11-84.067 49.451-166.155 96.924-249.232 145.386-13.846 8.9-28.681 14.835-45.495 9.89-1.978-2.967-3.956-7.912-3.956-11.868z"/></svg>