<?xml version="1.0" encoding="utf-8"?>
<!-- Generator: Adobe Illustrator 26.0.1, SVG Export Plug-In . SVG Version: 6.00 Build 0)  -->
<svg version="1.1" xmlns="http://www.w3.org/2000/svg" xmlns:xlink="http://www.w3.org/1999/xlink" x="0px" y="0px"
	 viewBox="0 0 1000 1000" style="enable-background:new 0 0 1000 1000;" xml:space="preserve">
<g id="Layer_1">
	<g>
		<path d="M500.5,5C223.6,5,5,229.5,5,499.5C5,773.5,226.5,995,499.5,995C776.4,995,995,770.5,995,499.5C995,223.6,770.5,5,500.5,5z
			 M740.5,657.4c0,7.8-1.8,15.5-5.1,22.6c-3.4,7-8.3,13.2-14.4,18.1L524.4,856.4c-6.9,5.6-15.5,8.6-24.4,8.6c-8.9,0-17.5-3-24.4-8.6
			L279,698.1c-6.1-4.9-11-11.1-14.4-18.1c-3.4-7-5.1-14.8-5.1-22.6V239.2c0-13.8,5.5-27.1,15.2-36.9c9.8-9.8,23-15.3,36.8-15.3h377
			c13.8,0,27,5.5,36.8,15.3c9.8,9.8,15.2,23,15.2,36.9V657.4z"/>
		<path d="M610.6,473.9c13.8,0,27-5.5,36.7-15.3c9.7-9.8,15.2-23,15.2-36.8V317.4c0-13.8-5.5-27.1-15.2-36.9
			c-9.8-9.8-23-15.3-36.8-15.3h-221c-13.8,0-27,5.5-36.8,15.3c-9.8,9.8-15.2,23-15.2,36.9V620c0,7.8,1.8,15.5,5.1,22.6
			c3.4,7,8.3,13.2,14.4,18.1l80.5,64.8c1,0.8,2.1,1.3,3.3,1.4c1.2,0.1,2.5-0.1,3.6-0.6c1.1-0.5,2-1.4,2.7-2.4c0.7-1,1-2.3,1-3.5
			v-214c0-1.7,0.7-3.4,1.9-4.6c1.2-1.2,2.9-1.9,4.6-1.9h58.5c10.3,0,20.3,4.1,27.6,11.5c7.3,7.3,11.4,17.3,11.4,27.7v181.4
			c0,1.2,0.3,2.4,1,3.5c0.7,1,1.6,1.9,2.7,2.4c1.1,0.5,2.3,0.7,3.6,0.6c1.2-0.1,2.4-0.6,3.3-1.4l80.5-64.8
			c6.1-4.9,11-11.1,14.4-18.1c3.4-7,5.1-14.8,5.1-22.6v-94c0-13.8-5.5-27.1-15.2-36.9C637.6,479.4,624.4,473.9,610.6,473.9z
			 M552,408.7c0,10.4-4.1,20.3-11.4,27.7c-7.3,7.3-17.2,11.5-27.6,11.5h-58.5c-1.7,0-3.4-0.7-4.6-1.9c-1.2-1.2-1.9-2.9-1.9-4.6
			V323.9c0-1.7,0.7-3.4,1.9-4.6c1.2-1.2,2.9-1.9,4.6-1.9h91c1.7,0,3.4,0.7,4.6,1.9c1.2,1.2,1.9,2.9,1.9,4.6V408.7z"/>
	</g>
</g>
<g id="Layer_2">
</g>
</svg>
