<svg xmlns="http://www.w3.org/2000/svg" viewBox="0 0 1000 1000"><path d="M5 500.496c0 89.011 22.747 172.089 67.253 249.232 44.506 74.176 103.846 133.517 178.023 178.022 77.143 44.506 160.22 67.253 250.22 67.253 89.011 0 172.089-22.747 249.232-67.253 74.176-44.505 133.517-103.846 178.022-178.022 44.506-77.143 67.253-160.22 67.253-250.22 0-89.012-22.747-172.09-67.253-249.232-44.505-74.177-103.846-133.517-178.022-178.023C672.585 27.747 589.508 5 500.496 5c-90 0-173.077 22.747-250.22 67.253-74.177 44.506-133.517 103.846-178.023 178.023C27.747 327.419 5 410.496 5 500.496zm249.232-8.901c-3.956-6.923-1.978-13.846 4.945-17.802 10.879-4.945 15.824-22.748 31.648-13.846 12.857 6.923 11.868 6.923 19.78-1.978 5.935-5.935 11.869-10.88 16.814-13.847 8.9-9.89 8.9-11.868-1.978-18.791-21.759-13.846-37.583-31.648-48.462-57.363-19.78-41.538-21.758-84.066-2.967-127.583 13.846-35.604 42.528-52.417 80.11-59.34 1.978-1.979 3.956-1.979 5.934-1.979h24.725c28.682 3.957 55.385 16.814 79.122 32.638 41.538 28.681 70.22 68.242 83.077 116.704 4.945 17.802 14.835 33.626 28.681 46.483 17.803 18.792 35.605 36.594 57.363 46.484 26.703 14.835 54.396 16.813 83.077 9.89 1.978-1.978 4.945-1.978 6.923-3.956.99 1.978.99 3.956.99 3.956 0 17.802 2.966 33.627 2.966 52.418-2.967 13.846-8.9 22.747-23.736 26.703-11.868 4.945-25.714 8.901-37.582 13.846-12.858 5.935-21.759 14.836-25.715 29.67-4.945 19.781-21.758 35.605-38.571 46.485-18.792 9.89-36.594 8.9-54.396-1.978-3.956-1.978-4.945-3.957-7.912-3.957-6.923 6.924-11.868 14.836-16.814 23.737-7.912 8.901-5.934 15.824 2.968 26.703 1.978-3.956 1.978-8.9 3.956-11.868.989 0 2.967 0 4.945.99 4.945 6.922 12.857 8.9 21.758 8.9 5.934 1.978 10.88 5.934 12.857 10.88 12.857 23.736 20.77 46.483 32.638 70.22.989 4.944 2.967 14.835 2.967 21.758 0 1.978-1.978 6.923-2.967 8.9-3.956 0-9.89-1.977-11.869-3.955-7.912-10.88-17.802-22.748-24.725-35.605-2.967-5.934-5.934-14.835-6.923-21.758 0-4.945-3.956-6.923-7.912-4.945-4.945 2.967-10.88 4.945-17.802 8.901 1.978-12.857-2.967-14.835-9.89-12.857-9.89 0-14.836-4.945-18.792-12.857-3.956-6.923-6.923-13.847-8.9-21.759-5.935-9.89-6.924-9.89-19.781-8.9-8.901 3.955-17.802 5.933-26.704 7.911-15.824.99-32.637.99-50.44.99 1.979 2.966 2.968 3.955 4.946 3.955 3.956 1.978 6.923 1.978 9.89 1.978 6.923 0 15.824-2.967 19.78 0 4.945 3.956 6.923 12.858 7.912 17.803 8.901 19.78 18.792 37.582 25.715 57.362 1.978 3.957 0 7.913 0 12.858-5.934-.99-10.88-.99-13.847-3.956-3.956-3.956-7.912-8.902-11.868-11.869-4.945-8.9-10.879-16.813-15.824-23.736-6.923 3.956-10.88 3.956-15.824-3.956 0-.989-3.956-2.967-7.912-2.967-18.792-5.934-27.693-21.758-33.627-37.583-4.945-16.813-12.857-29.67-26.703-38.571-25.715-13.846-36.594-39.56-37.583-66.264-1.978-14.835-3.956-23.736-21.758-26.703-14.835-3.957-23.736-12.858-25.714-28.682 0-3.956-.99-4.945-.99-7.912zm26.703-170.11c1.978 13.846 12.857 26.703 24.725 28.681 17.803 1.978 30.66-7.912 39.56-30.66 1.979 1.979 4.946 1.979 7.913 2.968 20.77 3.956 44.506-4.946 55.385-26.704 10.879-17.802 8.901-46.483-8.901-59.34-14.836-8.902-21.759-19.781-19.78-37.583 1.977-5.934-3.957-8.901-9.89-8.901-39.561-1.978-69.232 15.824-86.045 52.417-4.945 13.847-4.945 19.78 6.923 28.682 7.912 4.945 14.835 10.879 22.747 14.835-22.747 5.934-32.637 19.78-32.637 35.605zm6.923-3.957c0-10.879 8.901-19.78 19.78-19.78 10.88 0 17.803 7.912 17.803 17.802 0 10.88-8.901 19.78-19.78 19.78-8.902 0-17.803-6.922-17.803-17.802zm34.616-41.538c0-15.824 10.879-26.703 26.703-28.682 13.846 0 24.725 12.858 24.725 27.693 0 13.846-11.868 26.703-26.703 26.703-13.846 0-24.725-10.879-24.725-25.714zm170.11 450.001s1.978-1.978 1.978-2.967c1.978.99 4.945.99 7.912 2.967 20.77 22.748 42.528 46.484 64.286 69.231v3.956c-27.692-20.769-50.44-46.483-74.176-73.187zm125.605-34.615c36.593 32.637 69.23 68.242 100.88 106.813-14.836-5.934-101.87-97.912-100.88-106.813zm13.846-81.1c.99-.988 2.967-2.966 4.945-6.922 22.747 25.714 44.506 49.45 66.264 72.198 0 1.978 0 1.978-1.978 1.978-21.758-23.737-43.517-47.473-66.264-70.22 0 1.978-1.978 1.978-2.967 2.967zm56.374-109.78c23.736-8.901 35.604-36.593 23.736-56.374-8.9 16.814-15.824 36.594-23.736 56.374zm15.824 30.66c11.868 0 95.935 90 101.869 102.857-36.594-32.637-70.22-66.264-101.869-102.857zm29.67 146.374c3.957 1.978 4.946 1.978 6.924 2.967 30.66 34.615 61.319 67.253 91.978 101.868.989 0 .989 0 .989 2.967-19.78-14.835-97.912-96.923-99.89-107.802z"/></svg>