<svg xmlns="http://www.w3.org/2000/svg" width="1000" height="1000">
  <path d="M5 500.496c0 271.98 220.55 494.507 495.496 494.507 271.98 0 494.507-220.55 494.507-495.496C995.003 227.528 773.464 5 500.496 5 226.54 5 5 225.55 5 500.496zm172.088 255.166v-2.967c1.979-2.967 7.913-6.923 10.88-6.923 47.472-8.901 71.209-35.605 74.176-90.99 2.967-113.736 5.934-225.495 8.9-339.232 0-29.67-14.834-47.472-41.538-56.373-8.9-2.967-20.769-2.967-29.67-5.934-5.934 0-8.901-5.935-11.868-8.902v-2.967h14.835c38.571 0 74.176 0 112.747-2.967 11.869 0 17.803 5.934 20.77 14.836C391.705 354.122 450.056 455 506.43 555.88c1.978 9.89 7.912 15.824 10.88 24.725 17.802-33.626 33.626-62.308 47.472-95.934 39.56-77.143 77.143-154.286 112.748-231.43 5.934-8.9 8.9-14.835 20.769-14.835 39.56 2.967 80.11 2.967 121.649 2.967h12.857c2.967 0 2.967 2.967 2.967 2.967-2.967 2.967-9.89 8.902-12.857 8.902-8.901 2.967-17.802 2.967-26.704 5.934-35.604 12.857-47.472 29.67-47.472 63.297 2.967 94.945 5.934 192.857 5.934 286.814 0 21.758 2.967 38.571 2.967 59.34 0 47.473 14.835 66.265 62.308 74.177 9.89 2.967 15.824 6.923 23.736 9.89l-2.967 2.967H607.31v-2.967c2.967-2.967 7.912-6.923 13.846-6.923 59.34-17.803 65.275-26.704 65.275-88.023-2.967-122.637-5.934-243.297-5.934-365.935v-8.901c-5.934 2.967-5.934 5.934-8.901 8.901-47.473 94.945-94.946 192.858-142.418 288.792-2.967 7.912-2.967 13.846 2.967 22.748 12.857 24.725 27.692 51.428 38.571 75.165 2.967 2.967 2.967 5.934 2.967 10.879-2.967-2.967-8.9-2.967-11.868-4.945-16.813-18.791-44.506-26.704-67.253-29.67-6.923 0-15.824-3.957-18.791-9.89-62.308-114.726-123.627-230.441-189.89-344.178 0 0 0-2.967-2.968-2.967v8.901c-2.967 113.737-5.934 225.496-5.934 338.243-2.967 14.835 0 29.67 2.967 41.539 5.934 32.637 24.725 50.44 56.374 56.374 8.9 0 18.791 2.967 26.703 6.923v5.934z" style="fill:#000;fill-opacity:1;fill-rule:nonzero;stroke:none;"/>
</svg>
