<svg xmlns="http://www.w3.org/2000/svg" viewBox="0 0 1000 1000"><path d="M52.421 712.323V289.54c0-22.317 6.2-37.195 26.037-52.073C211.119 163.078 342.54 84.969 477.683 10.579c13.638-7.439 33.475-7.439 47.113 0C658.698 83.73 786.4 163.08 920.302 242.427c18.597 9.919 27.276 24.797 27.276 43.394v421.542c0 24.797-8.679 38.435-27.276 52.073-133.902 71.91-262.844 148.78-390.546 228.129-18.598 9.919-34.716 9.919-52.073 0-136.382-78.11-275.242-152.5-402.945-231.848-16.118-9.919-22.317-23.557-22.317-43.394zm39.675-4.96c38.434-22.316 75.63-40.914 109.105-60.751 61.991-33.476 61.991-17.358 33.475-91.748-9.919-18.597-18.597-27.276-38.435-22.316-28.516 3.719-47.113-11.159-58.272-33.476-7.439-23.557-22.317-29.756-45.873-29.756zm0-283.92c0 8.678 0 23.556 4.959 23.556 11.158 0 22.317 0 33.475-4.96 3.72-3.719 7.44-13.637 13.639-18.597 16.117-18.597 27.276-24.796 47.113-14.877 33.475 8.678 33.475 8.678 54.553-29.756-54.553-26.037-101.666-55.793-153.74-85.549 0 49.594-6.198 85.549 0 130.182zm16.117 308.717c26.037 13.638 52.073 27.276 74.39 42.154h8.68c9.918-3.72 33.474-37.195 29.755-50.833V670.17c-34.715 14.878-71.91 37.194-112.825 61.991zm2.48-464.936c42.154 22.317 80.59 42.154 119.024 64.471-4.96-18.597-8.679-30.996-8.679-45.874 3.72-26.036-4.96-43.394-24.797-58.272 0-3.72-9.918-3.72-13.638-3.72-22.317 9.92-44.634 24.797-71.91 43.395zm38.435 202.092c14.878 39.675 18.597 44.634 61.991 39.675 18.598 0 27.277 4.959 38.435 23.556 3.72 14.878 7.439 22.317 13.638 33.476h4.96v-22.317c0-26.036 0-52.073 3.719-78.11 4.96-23.556 0-37.194-18.597-57.031-14.878 38.434-42.155 29.755-66.951 19.837-8.68 0-18.598 3.72-22.317 9.918-11.159 8.68-14.878 23.557-14.878 30.996zm66.95 323.596c85.549 52.073 171.097 101.666 261.605 153.739 8.679-57.033 3.72-68.191-29.756-96.707-4.96-8.679-13.638-18.598-13.638-23.557 13.638-42.154-6.2-66.95-42.155-80.589-4.959 0-4.959-4.96-11.158-8.679-12.398-11.158-32.236-13.638-45.874 0-19.837 22.317-44.634 33.476-78.109 28.516-18.597-6.199-27.276 8.68-40.914 27.277zm0-588.92c13.639 19.838 29.757 29.757 52.073 29.757 14.878-6.2 38.435-6.2 42.155 3.719 32.235 33.475 61.991 38.435 95.467 4.96 3.72-4.96 8.678-4.96 14.878-8.68 18.597-6.199 22.316-18.597 18.597-37.194-4.96-22.317-4.96-33.476 18.597-49.594 28.517-13.638 37.195-61.991 19.838-99.186-85.549 52.073-171.097 104.146-261.604 156.219zm29.757 89.268c0 11.159 7.439 19.838 17.357 29.756 4.96 8.68 8.679 19.838 19.837 29.756 3.72 3.72 7.44 12.398 18.598 18.598 4.96 0 13.638-9.919 18.597-18.598 3.72-24.796 19.838-39.674 42.155-43.394 13.638 0 29.755-4.96 24.796-23.557-58.272-6.199-58.272-6.199-76.87-26.036-8.678-7.439-47.113-17.358-57.031-7.439-7.44 7.439-7.44 27.276-7.44 40.914zm3.719 447.579c0 4.96 52.073 0 57.032-8.679 17.358-13.638 35.955-38.435 65.711-19.837v-8.679c-23.557-23.557-43.394-48.353-65.71-65.711-16.119-16.118-19.838-4.96-23.558 2.48-11.158 14.878-26.036 26.036-29.755 44.634-7.44 13.638-7.44 38.434-3.72 55.792zm107.865-290.12c-28.516 76.87 11.159 178.535 96.707 200.852 12.398 3.72 23.557-4.96 23.557-13.638 0-38.435 0-71.91 3.72-110.345 0-6.199-3.72-9.918-8.68-13.638-38.434-19.837-76.869-38.435-115.304-63.231zm23.557-37.195c33.475 24.796 73.15 43.394 105.386 66.95 4.959 0 13.638 3.72 19.837 0 38.435-23.556 74.39-42.154 112.824-66.95-55.792-81.829-190.933-75.63-238.047 0zm33.475 312.437c0 11.158 0 11.158 6.2 11.158 0 0 0 3.72 4.959 3.72 32.235 11.158 40.914 33.475 32.235 68.19v2.48c-3.72 19.837 3.72 26.037 23.557 26.037v-85.549c0-6.199-3.72-11.158-8.679-11.158zm6.2-466.176c7.439 26.036 27.276 16.118 45.873 16.118 11.159-4.96 19.838-8.68 19.838-16.118v-92.987c-4.96 0-8.68-3.72-8.68-3.72-11.158 8.68-19.837 18.598-16.117 22.317 11.158 38.435-3.72 63.231-40.914 71.91zm90.507-163.658c0 26.037 3.72 42.155 33.476 55.793 2.48 0 18.597 14.878 13.638 19.837-11.159 43.394 8.678 61.992 42.154 76.87 3.72 0 3.72 3.719 9.918 8.678 14.878 9.919 42.155 9.919 55.793-4.959 16.118-18.597 38.435-24.797 63.231-18.597 22.317 0 38.435-9.92 52.073-29.756C689.694 151.92 604.145 99.847 514.878 47.774c0 18.598 0 33.475-3.72 48.353zm3.72 845.564c3.72 0 3.72 4.96 3.72 4.96 91.746-48.354 177.295-101.666 267.802-153.74-18.597-18.597-34.715-33.475-57.032-27.276-13.638 0-33.475 0-43.394-9.918-33.475-37.195-60.752-32.236-94.227 0-6.2 3.72-6.2 3.72-11.158 3.72-17.358 11.158-22.317 19.837-17.358 38.434 7.439 28.516 0 47.114-23.557 63.231-9.918 3.72-21.077 13.638-24.796 22.317zm0-100.426c24.796-3.72 29.756-14.878 24.796-32.235-6.199-34.716 0-57.033 37.195-68.191 0 0 3.72-3.72 8.679-3.72 0-4.959-4.96-4.959-4.96-11.158-17.357 6.2-40.914 11.158-61.99 14.878 0 0-3.72 4.96-3.72 11.158zm0-308.717c0 33.475 3.72 70.67 3.72 105.385 0 13.638 11.158 17.358 26.036 13.638 59.511-14.878 107.865-74.39 107.865-137.62 0-14.879 0-29.757-3.72-38.436 0-18.597-11.158-24.796-23.557-13.638-33.475 13.638-61.991 32.236-95.466 47.114-4.96 4.96-14.878 18.597-14.878 23.557zm0-272.763c0 7.439 3.72 11.158 14.878 11.158 3.72 4.96 14.878 4.96 17.357 4.96 19.837 3.72 29.756 0 33.476-18.598-40.915-4.959-55.793-29.756-40.915-71.91 0-3.72-9.918-18.597-14.878-22.317h-9.918zm95.466 29.756c4.96 3.72 8.68 14.878 19.838 19.837 0 0 2.48 3.72 7.439 3.72 24.796 0 39.674 9.918 39.674 33.475 0 6.2 4.96 9.919 4.96 9.919 3.72 4.959 13.638 14.878 18.597 8.678 3.72 0 14.878-3.719 17.358-8.678 11.158-13.638 16.117-28.516 24.796-43.394 4.96-8.68 13.638-19.838 13.638-19.838 0-35.955-4.959-40.914-33.475-40.914-18.597-3.72-33.475 7.439-45.874 18.597-14.878 14.878-24.796 18.598-44.634 14.878-2.48-6.199-13.638 0-22.317 3.72zm14.878 422.782c27.277-13.638 45.874-4.96 60.752 13.638 0 6.2 3.72 11.158 9.919 11.158 19.837 3.72 38.434 3.72 52.073 0 3.72 0 8.678-24.796 8.678-38.434 0-4.96-8.678-13.638-13.638-18.598-8.679-13.638-13.638-28.516-24.796-39.674-2.48-2.48-17.358-7.44-22.317-2.48-24.797 22.317-47.114 47.114-70.67 74.39zM729.368 442.04c0 42.154 4.96 79.349 4.96 123.983 8.678-11.159 13.638-22.317 17.357-33.475 4.96-18.598 16.118-23.557 34.715-18.598 33.476 3.72 48.354-11.158 60.752-38.435 6.2-13.638 6.2-24.796-4.96-28.516-7.438-8.679-13.637-23.557-33.475-18.597-22.317 9.918-47.113 18.597-65.71-23.557-4.96 18.597-13.639 27.276-13.639 37.195zm18.598 152.499c-4.96 13.638-4.96 27.276 13.638 38.435 19.837 4.959 39.674 18.597 58.272 27.276l85.548 43.394v-23.557c0-66.95 3.72-132.662 0-195.893 0-3.72-11.159-14.878-14.878-14.878-23.557 0-28.516 22.317-37.195 33.476-6.199 14.878-14.878 29.755-33.475 29.755-33.476-11.158-52.073 3.72-63.232 44.634 0 2.48-8.678 7.44-8.678 17.358zm13.638-199.613c6.199 9.919 9.918 28.516 33.475 18.598 28.516-14.878 47.114-8.679 66.95 18.597 0 6.2 4.96 9.919 9.92 9.919 18.597 14.878 33.475 4.96 33.475-13.638 3.72-29.756 0-57.032 0-85.548V293.26c-43.394 29.756-85.548 53.313-128.942 78.11-8.68 4.959-24.797 7.439-14.878 23.556zm9.918 275.243c4.96 18.597 4.96 37.194 4.96 55.792 0 19.837 28.516 53.313 38.434 48.353 23.557-14.878 47.114-28.516 75.63-42.154-43.394-24.797-81.829-47.113-119.024-61.991zm0-342.193c33.476-18.598 70.67-38.435 115.305-68.191-29.756-11.159-48.354-22.317-66.951-35.955-4.96 0-14.878 0-18.598 3.72-14.878 14.877-24.796 29.755-24.796 52.072 0 13.638-4.96 33.476-4.96 48.354z"/></svg>