<svg xmlns="http://www.w3.org/2000/svg" viewBox="0 0 1000 1000"><path d="M5 500.496c0 271.98 220.55 494.507 495.496 494.507 271.98 0 494.507-220.55 494.507-495.496C995.003 227.528 773.464 5 500.496 5 226.54 5 5 225.55 5 500.496zM148.407 688.41V312.583c0-18.79 7.912-25.714 18.791-33.626 47.473-25.714 91.979-55.385 140.44-81.1 14.836-10.878 25.715-7.911 43.517 0 44.506 29.671 92.967 55.386 136.484 81.1 10.88 7.912 22.747 7.912 37.583 0 47.472-29.67 95.934-58.352 147.363-85.055 6.923-6.923 17.802-6.923 25.714-3.956 51.429 30.66 99.89 59.34 150.33 89.01 11.868 7.913 19.78 14.836 19.78 29.671-3.956 125.605-3.956 254.177 0 379.782 0 14.835-3.956 22.747-19.78 29.67-46.483 25.715-98.901 55.385-147.363 84.067-10.88 7.912-21.758 7.912-32.637 0-47.473-28.682-95.935-55.385-143.407-84.067-14.836-6.923-22.748-6.923-37.583 0-47.473 28.682-94.945 55.385-143.407 84.067-10.88 7.912-21.758 7.912-32.638 0-48.461-28.682-96.923-58.352-144.396-84.067-14.835-6.923-18.79-14.835-18.79-29.67zm209.671-109.78c0 13.845 6.923 24.725 20.77 30.659 56.373 32.637 112.747 66.264 173.077 96.923 39.56 22.747 81.1 47.473 119.67 73.187 10.88 2.967 16.814 2.967 27.693 0 42.528-25.714 90.99-52.418 137.473-84.066 4.945-2.967 8.901-8.901 8.901-16.813 2.967-115.715 2.967-232.419 0-350.111 0-5.934-6.923-16.814-13.846-23.737-41.539-25.714-90-51.428-136.484-79.12-6.923-3.957-12.857-3.957-23.736 0-42.528 27.692-90 53.406-136.484 79.12-3.956 3.956-6.923 6.923-12.858 10.88 8.902 2.967 12.858 6.923 15.825 8.9 43.516 27.693 87.033 51.43 130.55 74.177 9.89 6.923 13.846 16.813 13.846 27.692v166.154c-106.814-63.296-213.627-123.626-320.44-186.923v22.747c0 51.429 0 100.88-3.957 150.33z"/></svg>