<?xml version="1.0" encoding="UTF-8"?><svg id="a" xmlns="http://www.w3.org/2000/svg" viewBox="0 0 1000 1000"><path d="M314.776,106.039c0-20.729-5.114-40.276-14.104-57.492l509.799,333.605c-.257-.002-.514-.012-.771-.012h-.002c-23.365,.001-46.163,6.552-65.932,18.944l-148.971,93.384-280.02-183.241V106.039ZM899.825,450.389h0c-11.682-18.636-28.315-32.377-47.149-40.619-13.527-5.919-28.188-9.007-42.975-9.007h-.006c-19.216,.001-38.643,5.197-56.036,16.101l-141.708,88.831-8.685,5.444-8.685,5.444-279.804,175.397v201.981c0,20.535-5.022,39.907-13.854,57.005l511.344-320.54,19.009-11.916,35.025-21.956c49.415-30.976,64.502-96.751,33.525-146.166ZM190.219,.003c-.035,0-.07-.003-.105-.003h0c-58.322,0-106.039,47.717-106.039,106.039V893.961c0,18.591,4.865,36.093,13.361,51.327,18.155,32.556,52.948,54.712,92.679,54.712h0c58.321,0,106.039-47.718,106.039-106.039V106.039C296.153,47.753,248.492,.06,190.219,.003Z"/></svg>