<svg xmlns="http://www.w3.org/2000/svg" viewBox="0 0 1000 1000"><path d="M731.079,767.656C652.92,832.191,563.231,867.5,464.386,881.031,363.019,894.906,268.719,924.1,191.671,995.4c-1.648,1.526-3.929,2.366-7.756,4.6-1.7-4.531-4.55-8.484-4.436-12.349,1.464-49.506.39-99.339,6.008-148.394,5.093-44.484,37.494-73.286,73.017-96.765,66.114-43.7,141.243-63.235,217.847-77.176,39.284-7.15,79.3-10.251,118.968-15.329a19.561,19.561,0,0,0,12.294-6.183c-30.343-4.239-60.866-7.479-90.994-12.91-79.712-14.37-154.728-40.626-218.121-93.169-54.647-45.3-92.272-102.05-99.273-173.58-5.591-57.114,20.365-103.574,63.81-140.083,66.363-55.769,146.232-80.4,228.731-98.8,97.173-21.681,194.279-43.711,282.305-92.976C789.488,23.654,803.274,12.1,820.524,0c-3.8,76.812-24.212,144.054-77.667,198.254-73.618,74.644-167.023,109.2-266.882,129.589-32.8,6.7-66.213,10.389-101.929,15.85,59.562,17.83,116.888,33.251,173.011,52.236,68.448,23.155,135.836,49.046,191,98.8C813,562.321,825.28,689.876,731.079,767.656Zm-1.73-333.194c44.029-46.428,73.9-153.26,50.229-212.952C721.039,280.828,650.651,321.024,578.8,351.965Z"/></svg>