<svg xmlns="http://www.w3.org/2000/svg" width="1000" height="1000">
  <path d="M5 500.496c0 271.98 220.55 494.507 495.496 494.507 271.98 0 494.507-220.55 494.507-495.496C995.003 227.528 773.464 5 500.496 5 226.54 5 5 225.55 5 500.496zm221.54 253.188V275c0-31.649 13.845-44.506 40.549-44.506 129.56 0 259.122 0 388.682 3.956 90 0 166.155 60.33 160.22 152.309 0 73.187-45.494 99.89-121.648 120.66 203.737 87.032 167.143 270-52.418 285.824-77.143 3.956-155.275 3.956-228.462 3.956H270.056c-29.67 0-43.517-12.857-43.517-43.516zm153.296-94.946c0 13.847 7.913 21.759 24.726 21.759 149.34 0 260.11 7.912 260.11-55.385 0-44.506-46.483-57.363-95.934-57.363H460.936c-22.748 0-29.67-7.912-29.67-28.681V485.66c0-21.758 6.922-29.67 29.67-29.67 116.703-3.957 194.835 11.868 194.835-52.418 0-39.56-30.659-50.44-82.088-50.44H404.562c-20.77 0-24.726 6.923-24.726 24.725z" style="fill:#000;fill-opacity:1;fill-rule:nonzero;stroke:none;"/>
</svg>
