<svg xmlns="http://www.w3.org/2000/svg" width="1000" height="1000">
  <path d="M5 500.496C5 225.55 226.54 5 500.496 5c272.968 0 494.507 222.528 494.507 494.507 0 274.946-222.528 495.496-494.507 495.496C225.55 995.003 5 772.475 5 500.496zm101.868-66.264h38.572v-35.604h-38.572zm2.968 161.21H275v-37.583H148.407c2.967-13.846 2.967-22.747 2.967-36.594 25.714 0 51.429 0 78.132-2.967 2.967-13.846 2.967-22.747 2.967-36.593H109.836zm209.67 0h122.638c2.967-12.858 5.934-22.748 8.901-35.605 12.858 0 22.748-1.978 35.605-5.934v-72.198H319.507zm0-161.21H486.65v-35.604H319.507zm41.54 90h81.098v29.67h-77.143c0-9.89 0-18.79-3.956-29.67zm171.099-125.604c0 12.857 2.967 26.703 2.967 35.604h164.176v-35.604zm2.967 196.814h122.637c3.957-15.825 3.957-28.682 3.957-37.583h37.582v-76.154H535.112zm42.527-37.583v-33.627h77.143c2.967 10.88 2.967 22.748 6.923 33.627zm167.144-36.594h125.605c0 15.825-1.979 25.715-5.935 36.594H787.31c0 14.835 0 27.692 2.967 37.583h119.671V479.727H744.783zm0-84.066h125.605c0-15.824 0-25.714-1.979-38.571H744.783z" style="fill:#000;fill-opacity:1;fill-rule:nonzero;stroke:none;"/>
</svg>
