<?xml version="1.0" encoding="utf-8"?>
<!-- Generator: Adobe Illustrator 26.0.1, SVG Export Plug-In . SVG Version: 6.00 Build 0)  -->
<svg version="1.1" id="Layer_1" xmlns="http://www.w3.org/2000/svg" xmlns:xlink="http://www.w3.org/1999/xlink" x="0px" y="0px"
	 viewBox="0 0 1000 1000" style="enable-background:new 0 0 1000 1000;" xml:space="preserve">
<style type="text/css">
	.st0{fill-rule:evenodd;clip-rule:evenodd;}
</style>
<path class="st0" d="M385.9,7.6h-94.7L91.8,206.9h161.8C275.3,128,360.2,22.4,385.9,7.6z M908.8,206.9L707.5,7.6h-88.8
	C682.7,66,727.3,147.7,752,206.9H908.8z M91.8,793.1l201.3,199.3h88.8C318,934,273.4,852.3,248.7,793.1H91.8z M565.4,7.6H521v199.3
	h193.4C669.5,99.6,596.4,29.3,565.4,7.6z M482.6,206.9V7.6h-45.4c-84.5,60.8-132.6,158.2-146,199.3L482.6,206.9L482.6,206.9z
	 M518.1,793.1v199.3h45.4c84.5-60.8,132.6-158.2,146-199.3H518.1z M435.2,992.4h44.4V793.1H286.2
	C331.2,900.4,404.3,970.7,435.2,992.4z M614.8,992.4h94.7l199.3-199.3H747C725.3,872,640.4,977.6,614.8,992.4z M245.1,319.8h70.1
	l98.7,279.5c-1.7-14.7-3.3-29.4-4.8-44.1c-1.5-14.7-2.6-29.4-3.3-44.1c-0.7-14.7-1-29.4-1-44.1V319.8h61.6v368.1h-70.1l-98.7-279.5
	c1.7,14.7,3.3,29.4,4.8,44.1c1.5,14.7,2.6,29.4,3.3,44.1c0.7,14.7,1,29.4,1,44.1v147.2h-61.6V319.8z M533.6,319.8h70.1l98.7,279.5
	c-1.7-14.7-3.3-29.4-4.8-44.1c-1.5-14.7-2.6-29.4-3.3-44.1c-0.7-14.7-1-29.4-1-44.1V319.8h61.6v368.1h-70.1l-98.7-279.5
	c1.7,14.7,3.3,29.4,4.8,44.1c1.5,14.7,2.6,29.4,3.3,44.1c0.7,14.7,1,29.4,1,44.1v147.2h-61.6V319.8z"/>
</svg>
