<?xml version="1.0" encoding="UTF-8"?><svg id="a" xmlns="http://www.w3.org/2000/svg" viewBox="0 0 1000 1000"><path d="M500,0C223.858,0,0,223.858,0,500s223.858,500,500,500,500-223.858,500-500S776.142,0,500,0Zm-82.88,850.885c-148.354,0-268.618-120.264-268.618-268.618s120.264-268.618,268.618-268.618c5.752,0,11.455,.202,17.117,.558-69.55,28.861-118.47,97.417-118.47,177.408,0,106.042,85.964,192.005,192.005,192.005,79.991,0,148.547-48.92,177.408-118.47,.356,5.662,.558,11.365,.558,17.117,0,148.353-120.264,268.618-268.618,268.618Zm137.411,29.497c112.625-52,190.79-165.921,190.79-298.115,0-181.261-146.941-328.202-328.202-328.202-131.548,0-244.999,77.406-297.346,189.144,28.326-183.278,186.758-323.591,377.969-323.591,211.239,0,382.483,171.243,382.483,382.483,0,191.941-141.389,350.845-325.695,378.28Z"/></svg>