<svg xmlns="http://www.w3.org/2000/svg" viewBox="0 0 1000 1000"><path d="M500.496 5C223.572 5 5 229.506 5 500.002c0 276.43 224.506 495.001 495.002 495.001 276.43 0 495.001-224.506 495.001-495.001C995.003 226.539 773.464 5 500.496 5zM292.803 314.561c-8.901-12.857-8.901-12.857 1.978-21.758 26.704-18.791 50.44-39.56 74.176-58.352 3.956-2.967 6.923-2.967 10.88-6.923l6.923 6.923c23.736 32.638 47.472 62.308 72.198 93.957l195.824 261.1c23.737 31.648 47.473 63.296 72.198 95.934 5.935 5.934 3.957 8.9 0 11.868-28.681 22.747-55.384 42.528-83.077 64.286-6.923 3.956-8.9 3.956-15.824-1.978-60.33-84.066-123.627-168.133-186.924-251.21-50.44-65.275-97.912-130.55-148.352-193.847zm28.682 339.232c-4.945-7.912-4.945-11.868 1.978-16.813 27.692-18.791 54.395-40.55 80.11-61.319 1.978-.989 4.945-.989 8.9-3.956l6.924 6.923c36.594 50.44 74.176 96.924 110.77 145.385 17.802 24.726 34.615 46.484 52.417 70.22 3.956 5.934 3.956 10.88-1.978 16.814-26.703 20.769-52.417 39.56-78.132 59.34-6.923 5.935-10.879 5.935-17.802-2.967-54.396-71.209-108.792-143.407-163.187-213.627zm110.77-454.946c-4.946-5.934-4.946-10.88 1.977-14.835 28.682-19.78 54.396-39.561 81.1-61.32 1.977-1.977 5.933-1.977 8.9-5.933 1.979 3.956 5.935 5.934 7.913 8.9l97.912 130.55c21.758 28.682 43.517 56.374 65.275 85.056 4.945 5.934 4.945 10.879-1.978 14.835-27.692 18.791-54.396 40.55-80.11 63.297-6.923 3.956-10.88 1.978-15.824-1.978-54.396-75.165-108.792-146.374-165.166-218.572z"/></svg>