<svg xmlns="http://www.w3.org/2000/svg" viewBox="0 0 1000 1000"><path d="M500,0C223.858,0,0,223.858,0,500s223.858,500,500,500,500-223.858,500-500S776.142,0,500,0ZM124.03,448.928c0-138.43,112.219-250.649,250.649-250.649s250.649,112.219,250.649,250.649-112.217,250.649-250.649,250.649-250.649-112.219-250.649-250.649Zm501.288,352.774c-78.675,0-148.871-36.258-194.825-92.964,16.252-3.476,32.159-8.472,47.609-15.007,31.64-13.382,60.052-32.537,84.447-56.933,24.395-24.395,43.55-52.808,56.933-84.447,13.858-32.765,20.885-67.561,20.885-103.423s-7.027-70.658-20.885-103.423c-6.45-15.25-14.255-29.742-23.327-43.404,9.569-1.109,19.297-1.698,29.163-1.698,138.431,0,250.652,112.219,250.652,250.651s-112.221,250.648-250.652,250.648Z"/></svg>