<svg xmlns="http://www.w3.org/2000/svg" width="1000" height="1000">
  <path d="M5 500.496c0 271.98 220.55 494.507 495.496 494.507 271.98 0 494.507-220.55 494.507-495.496C995.003 227.528 773.464 5 500.496 5 226.54 5 5 225.55 5 500.496zm78.132-11.868C89.066 274.012 272.034 78.187 507.42 84.121c224.507-5.934 417.364 182.968 417.364 417.364 0 231.43-186.923 421.32-422.309 421.32-222.528 0-426.265-186.923-419.342-434.177zm55.385 40.55c5.934 3.956 9.89 7.912 13.846 10.879 2.967 0 10.88-2.967 13.846-2.967v-17.803c-7.912-2.967-10.879-2.967-17.802-5.934-3.956 5.934-6.923 10.88-9.89 15.825zm0-37.583c2.967 3.956 5.934 7.912 9.89 9.89 6.923 0 9.89-1.978 17.802-1.978v-18.791c-7.912 0-10.879-2.967-13.846-2.967-7.912 2.967-10.879 7.912-13.846 13.846zm5.934 73.187c3.956 6.923 7.912 10.88 10.88 13.846 7.911-2.967 10.878-2.967 12.856-6.923 0-6.923 0-14.835-1.978-17.802-2.967 0-10.879-2.967-13.846-2.967-3.956 5.934-7.912 8.901-7.912 13.846zm0-114.726c0 6.924 3.956 10.88 7.912 14.836h15.824v-16.814c-4.945-3.956-9.89-7.912-12.857-7.912-2.967 3.956-6.923 7.912-10.879 9.89zm7.912 155.276c2.967 2.967 10.88 2.967 13.846 7.912 6.923-4.945 9.89-7.912 12.858-7.912 0-7.912-2.968-9.89-2.968-16.814h-17.802c-2.967 6.924-5.934 8.902-5.934 16.814zm0-192.858c2.967 5.934 2.967 13.846 5.934 19.78 7.912-2.967 9.89-2.967 17.802-5.934 0-1.978 0-7.912 2.968-13.846-5.935-2.967-10.88-6.923-12.858-6.923-2.967 0-10.879 3.956-13.846 6.923zm13.846 228.462c1.978 2.967 9.89 5.934 12.858 5.934 3.956-2.967 7.912-5.934 11.868-10.879 0-2.967-3.956-6.923-3.956-12.857h-20.77zm0-252.198h16.814c0-2.968 3.956-7.913 3.956-14.836-3.956-1.978-10.88-6.923-13.847-9.89-9.89 9.89-9.89 9.89-6.923 24.726zm9.89-51.43c0 4.946 2.968 12.858 2.968 15.825 7.912 4.945 11.868 4.945 16.813 4.945 7.912-10.88 4.945-17.802-4.945-28.681-3.956 3.956-11.868 7.912-14.836 7.912zm2.968 337.255c7.912 3.956 11.868 6.923 16.813 6.923 4.945-2.967 7.912-6.923 10.879-13.846-2.967-2.967-5.934-6.924-10.88-12.858-2.966 1.978-4.944 1.978-12.856 1.978 0 7.913-3.956 14.836-3.956 17.803zm16.813-352.09c7.912 3.957 10.879 3.957 14.835 3.957 6.923-3.956 6.923-5.934 13.846-11.869-6.923-4.945-9.89-9.89-13.846-15.824-6.923 2.967-9.89 5.934-14.835 5.934zm4.945 385.716c2.967 0 9.89 3.956 13.846 3.956 2.967-3.956 5.934-8.9 9.89-13.846-6.923-9.89-13.846-9.89-23.736-5.934zm19.78 32.638c6.923 2.967 10.88 2.967 17.802 2.967 3.956-7.912 5.934-10.88 5.934-12.858-1.978-7.912-5.934-10.879-9.89-14.835-2.967 0-9.89 3.956-13.846 6.923zm0-451.98c3.956 1.978 10.88 1.978 17.802 7.912 3.956-5.934 5.934-11.868 8.902-14.835-2.968-7.912-4.946-10.88-8.902-14.835-6.923 0-10.879 3.956-17.802 3.956zm3.956 227.473c38.572-16.813 71.21-30.66 106.814-48.461-7.912-6.923-12.857-13.847-16.814-17.803 5.935-17.802 19.78-20.769 38.572-17.802 8.901 4.945 18.791 7.912 29.67 7.912h16.814c0-13.846-5.934-13.846-16.814-13.846-10.879 0-23.736 0-34.615-7.912 6.923-1.978 10.88-1.978 13.846-1.978 9.89 0 20.77 1.978 31.649 1.978 9.89 5.934 13.846-5.934 16.813-12.857 2.967-6.923 0-13.846-2.967-16.813-13.846-10.88-24.726-21.759-35.605-30.66 18.792 5.934 27.693 22.747 49.451 27.692 1.978-11.868-2.967-13.846-7.912-18.79-9.89-5.935-19.78-13.847-30.66-19.781-12.857-9.89-12.857-20.77-12.857-37.583 15.825 0 23.737 2.967 33.627 16.814 3.956 6.923 9.89 13.846 17.802 23.736 1.978 2.967 7.912 10.88 9.89 13.846h10.88v-10.879s-3.957 0-3.957-2.967c-6.923-9.89-14.835-20.77-24.725-29.67 4.945 0 4.945-5.935 4.945-5.935 10.88 11.869 19.78 22.748 27.692 32.638 2.967 5.934 9.89 10.88 15.825 5.934 13.846-2.967 18.79-5.934 13.846-23.736v-38.572c4.945 10.88 6.923 18.791 6.923 29.67 0 8.902 0 19.78 14.835 21.759v-19.78c0-9.89-3.956-20.77-3.956-31.649-3.956-12.857 0-26.703 8.901-37.582 18.791 13.846 22.748 17.802 18.791 37.582-2.967 10.88-2.967 21.758-7.912 31.649-2.967 14.835-2.967 17.802 11.869 19.78 0-4.945 0-15.824 1.978-21.758 0-10.88 4.945-18.792 7.912-29.67 0 0 2.967 0 2.967 5.933 0 7.912 0 23.737-2.967 36.594 0 13.846 2.967 16.813 16.813 19.78 6.923 4.945 13.846-2.967 17.802-10.88 6.923-4.944 14.835-12.856 19.78-21.757 0 0 4.946-5.935 7.913-5.935-7.913 14.836-18.792 25.715-24.726 35.605-2.967 7.912-6.923 10.88 0 13.846 3.956 2.967 11.868 0 11.868-2.967 4.945-10.879 12.858-20.77 17.803-27.692 11.868-18.792 22.747-23.737 43.516-23.737 0 16.814-4.945 27.693-12.857 32.638-15.824 10.879-24.725 18.791-35.604 29.67-2.967 0-7.913 5.934-10.88 8.901 7.913 7.913 10.88 4.945 15.825 0 7.912-2.967 11.868-8.9 18.79-13.846 3.957-2.967 6.924-2.967 11.87-2.967-4.946 7.912-7.913 7.912-11.87 9.89-3.955 3.956-6.922 6.923-12.856 11.868-7.912 5.935-7.912 12.858-5.934 26.704 5.934 11.868 11.868 5.934 18.79 5.934 6.924 0 13.847-1.978 19.781-1.978h24.726c-19.78 12.857-40.55 1.978-57.363 20.77 5.934 6.922 12.857 6.922 24.725 2.966 7.912 0 21.758-2.967 32.638-7.912 13.846-2.967 27.692 4.945 34.615 17.802-6.923 3.956-10.88 10.88-20.77 17.803 20.77 7.912 37.583 12.857 56.375 20.769 19.78 6.923 32.637 19.78 54.395 27.692 0-121.648-52.417-211.649-155.275-266.044-107.802-51.43-211.649-40.55-303.627 31.648-76.154 58.352-110.77 136.484-106.814 234.396zm2.967 37.583c185.935-105.825 372.859-105.825 555.826-2.967h3.956c0-4.945 0-10.88-3.956-10.88-6.923-6.922-9.89-10.878-17.802-12.856-40.55-21.759-81.1-38.572-127.583-49.451-61.319-16.813-124.616-20.77-188.902-12.857-58.351 4.945-114.725 23.736-169.121 48.461-13.846 5.934-32.638 15.825-45.495 26.704-6.923 3.956-9.89 5.934-6.923 13.846zm6.923 30.66c179.012-103.847 360.002-103.847 541.98-5.935 2.967-10.879 0-10.879-7.912-13.846-71.209-40.55-151.32-65.275-233.407-69.23-76.154-3.957-152.309 5.933-220.55 37.582-28.682 10.879-48.462 23.736-76.155 34.615-6.923 3.956-10.879 7.912-3.956 16.813zm9.89 166.154c0 3.956 0 9.89 2.968 17.802 4.945 0 10.879 0 15.824 2.967 2.967-7.912 6.923-10.88 8.9-16.813-1.977-3.956-5.933-7.912-13.845-10.88-2.967 2.968-10.88 2.968-13.847 6.924zm0-134.506c84.067-44.506 166.155-76.154 263.078-76.154 92.968 0 179.012 27.692 258.133 73.187 7.912-7.912 7.912-9.89 0-15.824-1.978-1.978-9.89-4.946-12.857-8.902-52.418-23.736-106.814-44.505-166.155-51.428-27.692-7.912-59.34-9.89-86.044-7.912-54.396 0-109.78 10.879-162.198 30.659-31.649 11.868-58.352 24.725-86.044 37.583-7.913 5.934-9.89 5.934-7.913 18.79zm0-355.056c7.913 0 10.88 2.967 13.847 2.967 7.912-2.967 11.868-2.967 13.846-5.934-1.978-13.847-8.901-18.792-24.725-13.847 0 5.935-2.968 8.902-2.968 16.814zm13.847 382.748c7.912-2.967 13.846-7.912 21.758-10.879 40.55-19.78 90-37.582 138.462-51.429 62.308-13.846 122.638-9.89 183.957 2.967 50.44 10.88 94.945 28.682 135.495 48.462 3.956 2.967 10.879 7.912 14.835 7.912 0 0 2.967-4.945 6.923-4.945 0-2.967-3.956-6.923-3.956-6.923-2.967-1.978-6.923-1.978-6.923-1.978-36.594-21.758-75.165-38.572-115.715-48.462-43.517-10.879-84.066-18.791-125.605-18.791-40.55 0-78.132 7.912-121.648 18.791-40.55 9.89-82.089 26.704-119.671 48.462-2.967 1.978-10.88 5.934-7.912 16.813zm13.846 135.495c0 2.967 3.956 4.945 3.956 12.857h17.802c0-7.912 1.978-9.89 1.978-12.857-1.978-7.912-4.945-10.879-12.857-15.824-2.967 4.945-6.923 10.88-10.88 15.824zm0-541.98c7.912 1.978 10.879 6.923 18.791 6.923 2.967-4.945 4.945-6.923 10.88-10.879-5.935-7.912-5.935-10.879-7.913-13.846h-13.846c-3.956 2.967-3.956 10.88-7.912 17.802zm23.736 561.76c5.934 6.924 7.912 10.88 10.88 16.814 7.911 0 11.868-3.956 16.813-3.956 0-1.978 4.945-9.89 4.945-12.858-7.912-3.956-9.89-6.923-13.847-10.879-7.912 3.956-10.879 6.923-18.79 10.88zm7.912-586.485c2.967 1.978 6.923 6.923 14.836 9.89 1.978-2.967 4.945-7.912 12.857-9.89-2.967-2.967-2.967-6.923-7.912-13.846-2.967 0-8.902 0-12.858-3.956-3.956 6.923-6.923 10.879-6.923 17.802zm27.693 607.255c2.967 2.967 6.923 10.879 6.923 13.846 6.923 0 9.89 0 16.813-2.967 0-7.912 3.956-10.88 3.956-18.791-5.934 0-10.879-1.978-13.846-5.934-2.967 5.934-10.88 9.89-13.846 13.846zm2.967-627.035c3.956 5.934 7.912 8.9 10.879 12.857 9.89-3.956 16.813-10.88 13.846-23.736-5.934 0-10.879-4.946-16.813-4.946-3.956 4.946-3.956 9.89-7.912 15.825zm35.604 481.65c1.978 9.89 4.945 20.769 9.89 33.626 5.935 22.747 23.737 35.605 38.572 52.418 4.945 2.967 10.88 0 12.857-1.978 2.967-3.956 2.967-7.912 2.967-11.868 3.956-5.934 7.912-13.846 16.813-10.88-4.945 14.836-4.945 22.748 0 24.726 7.913 2.967 15.825 2.967 21.759 0 2.967-1.978 2.967-9.89 2.967-13.846 4.945-5.934 10.879-13.846 21.758-10.88l-3.956 4.946c-3.956 9.89-3.956 17.802 3.956 22.747 4.945 4.945 15.824-2.967 20.77-8.901 2.966-3.956 2.966-7.912 2.966-10.88 3.957-7.911 10.88-10.878 16.814-7.911-10.88 14.835-10.88 14.835-2.967 22.747 10.879 9.89 21.758 9.89 26.703-7.912 3.956-14.835 3.956-14.835 16.813-14.835v4.945c-5.934 2.967-5.934 9.89-1.978 17.802 1.978 4.945 9.89 4.945 17.803 0 5.934-3.956 7.912-11.868 15.824-14.835 17.802-20.77 27.692-40.55 27.692-69.231 2.967-6.923 0-13.847-9.89-17.803-10.88-4.945-19.78-12.857-33.626-15.824-59.341-21.758-118.682-21.758-173.078 0-17.802 2.967-30.66 13.846-46.484 19.78-4.945 3.957-4.945 6.924-4.945 13.847zm0-497.475c4.945 4.946 9.89 7.913 12.857 9.89 2.968 0 10.88-1.977 14.836-1.977v-17.803c-6.923 0-11.868-3.956-17.803-3.956-4.945 3.956-7.912 7.912-9.89 13.846zm33.627-13.846c3.956 3.956 6.923 10.88 9.89 13.846 7.912 0 9.89-2.967 17.802-2.967v-16.813c-12.857-10.879-17.802 3.956-27.692 5.934zm6.923 521.21c7.912 0 12.857-2.966 18.791-5.933 4.945 2.967 8.901 5.934 16.813 9.89 0 3.956-3.956 9.89-7.912 17.802h-16.813c-2.967-7.912-7.912-13.846-10.88-21.758zm31.648-530.11c0 6.922 3.956 8.9 6.923 12.856h17.803v-16.813c-4.945-3.956-7.912-6.923-15.825-10.88-1.978 6.924-4.945 10.88-8.9 14.836zm38.572-7.913c0 7.912 1.978 14.835 1.978 16.813 14.835 0 19.78-1.978 24.725-16.813-6.923-2.967-9.89-6.923-13.846-10.88-6.923 3.957-10.88 7.913-12.857 10.88zm8.901 525.167c3.956-3.956 10.88-6.923 12.857-6.923 7.912 0 15.824 2.967 18.791 6.923 0 2.967-2.967 9.89-2.967 16.813H497.53c-3.956-6.923-3.956-13.846-7.912-16.813zm23.736-525.167c4.945 10.88 7.912 20.77 21.759 16.813 2.967-1.978 2.967-8.9 5.934-16.813-2.967-2.967-8.901-6.923-13.846-10.88-5.935 3.957-8.902 7.913-13.847 10.88zm38.572 3.956c4.945 3.956 4.945 10.88 4.945 16.813h15.824c3.956-3.956 3.956-9.89 5.934-12.857 0 0-1.978 0-1.978 2.967-3.956-6.923-6.923-13.846-10.879-17.802-3.956 3.956-6.923 6.923-13.846 10.88zm13.846 534.068c3.956 0 10.88-2.967 20.77-5.934 2.966 2.967 7.912 5.934 13.846 9.89-2.967 3.956-10.88 9.89 0 19.78-10.88-1.978-15.825-1.978-23.737-1.978zm23.736-513.299c4.946 2.967 10.88 2.967 18.792 5.934 0-5.934 1.978-9.89 5.934-13.846-3.956-5.934-11.868-8.9-13.846-12.857-2.967 0-5.934 3.956-10.88 3.956zm31.649 13.847c6.923 0 11.868 0 16.813 1.978 2.967-4.945 7.912-9.89 10.88-12.858-2.968-2.967-7.913-10.879-10.88-12.857-4.945 1.978-9.89 1.978-12.857 5.934-3.956 3.956-3.956 9.89-3.956 17.803zm31.648 630.99c0 6.924 0 9.89 1.978 17.803 13.847 1.978 18.792-2.967 24.726-13.846-2.967-3.956-10.88-7.912-13.846-9.89-5.935 1.978-10.88 1.978-12.858 5.934zm6.923-621.1c5.935 3.956 8.902 6.923 13.847 6.923 5.934-2.967 10.879-6.923 12.857-8.901-1.978-7.912-1.978-10.88-6.923-18.792-2.967 2.967-10.88 2.967-16.813 7.913 0 2.967 0 10.879-2.968 12.857zm24.726 604.287c0 6.924 1.978 10.88 1.978 16.814h19.78v-5.934c5.934-3.956 5.934-7.912 5.934-10.88-14.835-10.879-14.835-10.879-27.692 0zm8.901-584.507c6.923 4.945 10.88 7.912 12.857 10.88 5.934-2.968 10.88-5.935 15.824-10.88-4.945-4.945-4.945-8.901-7.912-15.824h-13.846c-2.967 6.923-2.967 10.879-6.923 15.824zm20.77 564.727c0 2.967 0 8.901 2.966 12.857h18.792c1.978-7.912 1.978-9.89 5.934-17.802-5.934 0-9.89-2.967-13.847-5.934-5.934 2.967-10.879 5.934-13.846 10.88zm7.911-541.98c5.934 1.978 9.89 6.923 13.847 9.89 5.934-2.967 8.9-2.967 12.857-7.912 0-5.934-3.956-8.9-3.956-16.813h-12.857c-3.957 2.967-6.924 10.88-9.89 14.835zm19.78 521.21c0 1.979 2.968 4.946 2.968 12.858 7.912 0 14.835-2.967 18.791-2.967 1.978-7.912 1.978-9.89 1.978-17.802-5.934-3.956-9.89-3.956-12.857-6.923-7.912 2.967-7.912 10.879-10.88 14.835zm10.88-500.44c2.967 2.967 6.923 5.934 10.879 12.857 1.978 0 4.945-3.956 12.857-6.923 0-5.934-2.967-10.88-2.967-13.846-13.846-5.935-20.77 2.967-20.77 7.912zm10.879 472.748c1.978 1.979 4.945 9.89 9.89 12.858 5.934 0 9.89 0 16.813-2.967v-20.77c-2.967 0-10.879 0-13.846-3.956-2.967 6.923-7.912 9.89-12.857 14.835zm15.824-456.924c-5.934 14.835-5.934 14.835 3.956 27.692 6.923-2.967 9.89-4.945 17.803-10.879v-12.857c-7.913 0-13.847-3.956-21.759-3.956zm7.912 429.232c2.967 4.945 5.934 8.901 9.89 12.857 6.924-3.956 9.89-3.956 17.803-7.912-2.967-4.945-2.967-9.89-2.967-15.824-4.945 0-10.88-3.956-14.836-7.912-3.956 7.912-6.923 13.846-9.89 18.791zm5.934-388.683c3.956 7.913 7.913 11.869 10.88 18.792 7.912-3.956 10.879-3.956 12.857-6.923 0-5.934 0-11.869 3.956-16.814-5.934 0-8.901-4.945-16.813-4.945-2.967 4.945-6.924 7.912-10.88 9.89zm10.88 357.035c7.912 2.967 10.879 9.89 12.857 12.857 3.956-2.967 10.879-5.934 14.835-5.934-3.956-21.759-3.956-21.759-19.78-21.759 0 3.956-4.945 7.913-7.912 14.836zm7.912-324.397c2.967 5.934 4.945 10.88 8.9 16.813 3.957-2.967 10.88-2.967 12.858-2.967 0-7.912 5.934-13.846 5.934-20.77-7.912 0-11.868 0-18.791-2.966-3.956 2.967-5.934 4.945-8.901 9.89zm12.857 275.935c-3.956 12.857-3.956 23.736 8.901 28.681 5.934-4.945 10.88-4.945 15.824-7.912-4.945-7.912-4.945-14.835-7.912-16.813-7.912 0-9.89-3.956-16.813-3.956zm0-242.309c2.967 4.945 6.923 10.88 8.901 13.847 5.934 0 10.88 0 15.824-2.967 2.967-2.967 2.967-10.88 2.967-17.803-12.857-1.978-12.857-1.978-27.692 6.923zm8.901 224.507c5.934 2.967 7.912 7.912 15.824 13.846 2.967-5.934 5.934-10.88 9.89-13.846-3.956-7.912-3.956-9.89-6.923-16.814h-12.857c-5.934 6.924-5.934 14.836-5.934 16.814zm0-176.045h21.758c3.956-2.967 7.912-10.88 7.912-12.857-7.912-6.923-10.879-10.88-18.79-14.835-2.968 10.879-4.946 16.813-10.88 27.692zm7.912 142.418c2.967 3.956 10.88 6.923 13.846 6.923 3.956-2.967 7.912-6.923 13.847-10.879-2.968-7.912-5.935-10.879-5.935-16.813-7.912 2.967-13.846 2.967-21.758 5.934zm0-121.649c0 3.956 0 10.88 2.967 14.836 4.945 2.967 10.88 2.967 18.791 4.945 0-4.945 2.967-12.857 5.935-15.825-2.968-5.934-5.935-9.89-9.89-13.846-6.924 3.956-9.89 7.912-17.803 9.89zm2.967 87.034c4.945 2.967 10.88 2.967 18.791 6.923 2.967-6.923 5.935-10.88 8.902-14.835-2.967-4.946-5.935-9.89-8.902-12.858-3.956 0-7.912 0-10.879 2.967-2.967 7.913-7.912 9.89-7.912 17.803zm0-56.374c4.945 10.879 4.945 24.725 21.758 24.725 0-3.956 2.968-9.89 5.935-13.846-2.967-2.967-5.935-10.88-8.902-13.846-3.956 0-10.879 2.967-18.79 2.967z" style="fill:#000;fill-opacity:1;fill-rule:nonzero;stroke:none;"/>
</svg>
