<svg xmlns="http://www.w3.org/2000/svg" viewBox="0 0 1000 1000"><path d="M195.945 691.752c-2.37-7.108-5.923-9.477-9.477-17.769-41.46 24.876-82.92 48.567-125.564 74.628v-7.107c-1.184-4.739 1.185-5.923 4.738-8.292 29.614-20.138 62.782-36.722 94.766-54.49 127.933-71.074 255.866-146.887 383.799-222.699 114.903-68.705 229.805-133.856 348.262-200.191l18.953-10.661c2.37 0 3.554-1.185 7.107 0 5.923 3.553 9.477 7.107 17.769 9.476 2.37 1.185 3.554 3.554 3.554 4.738v20.138c0 3.554-1.185 7.107-4.739 8.292-40.275 23.691-79.366 47.383-122.01 71.074-60.413 33.168-120.826 68.705-181.238 105.426-1.185 1.185-2.37 1.185-4.739 2.37l-10.66-17.77zm-135.04-24.876c0-2.37-1.185-5.923 0-9.477l3.553-3.553c40.275-22.507 79.366-45.014 117.272-68.705 126.748-79.366 260.604-150.44 390.906-225.068 88.843-50.936 180.054-103.057 267.712-155.178 4.738-1.184 7.108-1.184 9.477 0 13.03 8.292 28.43 17.769 41.46 23.692 1.184 0 1.184 1.184 3.553 2.369-88.842 50.936-177.685 104.242-267.712 155.178-4.738-5.923-7.107-11.846-10.66-17.769-139.78 81.735-280.743 163.47-420.521 242.836l-9.477-16.584c-41.46 24.876-82.92 48.568-125.564 72.259zm0-79.366v-9.477c0-1.184 2.368-2.369 3.553-3.553 42.644-24.876 85.288-49.752 129.117-75.812C332.17 416.933 473.133 339.936 611.727 258.2c52.12-30.799 105.426-60.413 159.916-92.396 2.37-2.37 4.739-2.37 10.661 0 13.03 9.476 28.43 16.584 45.014 24.876-91.212 54.49-180.054 104.241-267.712 155.178-5.923-4.739-8.292-10.661-11.846-16.584-117.272 67.52-234.543 136.225-351.815 202.56-2.37-5.922-5.923-11.845-9.477-16.583zm0-159.916v-9.477s2.368-2.369 3.553-2.369c36.721-22.507 73.443-45.013 110.164-66.336 151.625-87.657 305.618-176.5 459.612-265.342h7.107c16.584 9.476 30.799 18.953 46.198 27.245L417.46 267.677c-3.554-4.738-5.924-11.845-9.477-16.584-72.259 40.276-140.964 80.55-212.037 122.01l-9.477-17.768zm0-80.55c0-2.37-1.185-5.924 0-8.293l3.553-3.553c43.829-26.06 88.842-53.306 131.487-76.997 124.379-68.705 245.205-140.963 368.4-210.853 3.553-3.554 5.922-3.554 9.476 0 15.4 7.108 29.614 14.215 43.829 24.876-90.027 52.12-178.87 104.242-268.897 155.178-2.369-4.738-7.107-11.846-9.476-17.768l-143.332 82.92c-2.37-5.924-5.923-11.846-9.477-16.585-41.46 23.692-82.92 47.383-125.564 71.074zm0-78.182V258.2c0-1.185 2.368-2.37 3.553-3.554 27.245-16.584 56.859-33.168 86.473-49.752L495.64 5.888c3.553-1.184 4.738-1.184 9.476 0l39.09 23.692c1.185 1.184 2.37 1.184 4.739 3.553L280.049 187.127c-2.37-5.923-5.923-9.477-10.661-16.584-24.876 14.215-49.752 29.614-73.443 41.46-2.37-5.923-5.923-9.477-9.477-16.584-41.46 26.06-82.92 49.752-125.564 73.443zm1.184 239.282c-3.554-9.476-2.37-11.846 4.738-15.4C208.975 409.826 351.123 330.46 493.27 247.54l209.67-122.01c3.553-2.37 5.922-2.37 8.292 0 14.214 7.107 27.245 15.399 42.644 23.69 1.184 0 1.184 0 1.184 1.185-88.842 53.306-178.869 104.242-267.711 157.548l-10.661-17.769C384.29 344.674 290.71 397.98 195.945 452.47c-2.37-5.923-5.923-10.662-9.477-16.584-41.46 23.69-82.92 47.382-124.38 72.258zm43.829 280.742c277.188-159.916 554.376-319.833 832.75-479.749 1.184 0 1.184 1.185 1.184 1.185v50.936c0 3.554-2.37 5.923-3.554 5.923-73.443 42.644-144.517 84.104-217.96 125.564-29.614 18.953-58.044 35.537-90.027 52.12-1.185 0-1.185 1.185-3.554 2.37-3.553-7.108-7.107-11.846-9.476-16.584-139.779 79.366-280.742 161.1-419.336 242.836-3.554-8.292-7.108-13.03-10.662-17.769-1.184 1.185-3.553 1.185-3.553 2.37-21.322 9.476-39.09 21.322-58.044 34.352-8.292 5.923-13.03 3.554-17.768-3.554zm68.704 40.275C429.304 683.46 682.801 535.39 939.852 388.503v55.675s-2.37 2.369-3.554 2.369c-27.245 15.4-52.12 28.43-76.997 45.013l-228.62 132.672c-1.186 1.184-3.555 2.369-5.924 3.553l-9.476-18.953c-116.088 68.705-232.175 133.856-349.447 201.376-4.738-4.738-7.107-9.476-9.477-14.214-1.184 0-2.369 1.184-3.553 2.369-20.138 9.476-42.645 21.322-61.598 31.983-9.476 7.107-9.476 7.107-16.584-1.185zm68.705 41.46L939.852 467.87v50.936c0 4.738-1.185 7.108-3.554 9.477-49.752 27.245-99.504 55.674-145.702 82.92l-161.1 93.58c-1.185 1.185-2.37 1.185-4.739 2.37-3.553-7.108-5.923-11.847-9.476-17.77-92.396 53.306-185.977 108.98-280.742 162.286-3.554-5.923-5.923-11.846-9.477-17.768-3.554 3.553-7.107 4.738-11.845 5.922-16.584 10.662-35.537 20.138-53.306 33.168-4.738 2.37-11.846 1.185-16.584-2.369zm68.705 40.275C521.7 788.886 730.184 668.06 939.852 547.235v55.674c0 2.37-2.37 3.554-3.554 4.739L629.495 782.963c-1.184 1.185-2.369 2.37-4.738 3.554-3.553-7.107-7.107-10.661-9.476-16.584-71.074 39.09-140.964 80.55-210.853 122.01-4.738-5.923-7.107-11.845-10.661-17.768-1.185 0-1.185 1.184-2.37 1.184-20.137 14.215-41.459 24.876-62.781 36.722-8.292 4.738-7.108 4.738-16.584-1.185zm68.705 39.091c187.161-107.795 373.138-214.406 559.115-322.202v55.675c0 1.184-2.37 1.184-3.554 2.369-33.168 21.322-65.151 37.906-100.688 56.86-67.52 40.274-137.41 80.55-206.115 122.01-1.184 0-2.369 1.184-4.738 2.368-3.553-7.107-7.107-13.03-9.476-17.768-47.383 26.06-94.766 54.49-142.148 82.92-2.37-7.108-5.923-11.846-9.477-17.769-2.369 0-3.553 1.185-5.922 2.37-18.954 11.845-39.091 22.506-59.229 35.536-7.107 3.554-7.107 3.554-17.768-2.369zm68.705 41.46c164.654-95.95 325.755-189.53 490.41-284.296 0 15.4-1.185 33.168 0 48.567 0 5.923-2.37 9.477-9.477 14.215L630.68 944.064c-2.37 0-3.554 2.37-5.923 3.554-3.553-8.292-7.107-13.03-9.476-17.769-23.692 13.03-48.567 27.245-71.074 41.46-4.738-5.923-7.108-10.66-13.03-17.768l-10.662 7.107c-18.953 10.661-35.536 21.322-53.305 30.799-8.292 4.738-8.292 4.738-17.768 0z"/></svg>