<svg xmlns="http://www.w3.org/2000/svg" width="1000" height="1000">
  <path d="M933.575 578.283v69.854c0 196.313-285.437 307.116-372.152 336.02l-30.11 10.84V874.56l16.862-6.022c137.299-49.38 273.393-136.095 273.393-220.401v-69.854zm-867.15 61.423v-61.423h115.62v61.423c0 27.7 13.248 56.606 40.948 84.307V522.882H66.424V136.277l274.598-80.693V178.43L182.044 225.4v181.862h158.978v528.72l-36.131-16.86C195.293 863.72 66.424 770.983 66.424 639.706zm308.32 308.32V41.132L500 5l118.029 36.13v122.847l-118.03-36.132-8.43 2.41v277.006h124.05v115.62H491.57v469.707l-33.722-12.044c-13.249-4.818-38.54-13.248-69.854-27.7zM651.75 779.415V51.97l279.415 86.715V525.29h-165V692.7s-36.13 48.175-114.415 86.715zm116.825-372.152h50.583V225.4l-50.583-16.861z" style="fill:#000;fill-opacity:1;fill-rule:nonzero;stroke:none;"/>
</svg>
