<svg xmlns="http://www.w3.org/2000/svg" viewBox="0 0 1000 1000"><path d="M359.43,498.36a36.075,36.075,0,0,1,19.22-5.16q22.52-.019,33.77,18.74h-.01q11.25,18.769,11.25,47.83,0,30.48-12.19,49.71-11.73,18.75-33.3,18.76T344.42,610q-12.19-18.76-12.19-49.24A102.565,102.565,0,0,1,335.51,534a68.774,68.774,0,0,1,9.38-21.1A45.945,45.945,0,0,1,359.43,498.36ZM995,500c0,273.38-221.62,495-495,495S5,773.38,5,500,226.62,5,500,5,995,226.62,995,500ZM201,285.73H319.33C335.2,228,397.24,150.82,416,140H346.73ZM364.09,462.67l67.52-126.61h-61.4L304.56,464.58A285.249,285.249,0,0,0,285.33,511a175.512,175.512,0,0,0-7,50.65q0,26.25,7,47.36,7.511,21.11,20.64,35.64a90.569,90.569,0,0,0,31.42,22.51,105.261,105.261,0,0,0,40.32,7.5,104.092,104.092,0,0,0,39.87-7.5A90.639,90.639,0,0,0,449,644.65q13.13-15,20.63-36.11h-.01q7.5-21.57,7.5-48.3,0-27.679-7-47.83-6.57-20.16-18.29-32.83a67.4,67.4,0,0,0-26.73-19.22,77.561,77.561,0,0,0-31.42-6.57,59.472,59.472,0,0,0-16,2.35,32.988,32.988,0,0,0-13.13,7ZM413.1,860c-46.74-42.71-79.36-102.45-97.39-145.73H201L348.17,860Zm71.43-145.73H343.12C376,792.76,429.46,844.13,452.06,860h32.47ZM486.69,140H453.47c-61.78,44.44-96.92,115.67-106.78,145.73h140Zm28.14,145.73h141.4C623.33,207.24,569.9,155.87,547.29,140H514.83ZM620.16,474V385.8h94.72V336.09H566.23v332H719.57V617.92H620.16v-98h87.69V474Zm32.46,240.27H512.66V860h33.19C607.6,815.56,642.76,744.33,652.62,714.27Zm145.73,0H680C664.17,772,602.12,849.18,583.36,860h69.26Zm0-428.54L651.18,140H586.25c46.75,42.73,79.4,102.45,97.4,145.73Z"/></svg>