<svg xmlns="http://www.w3.org/2000/svg" viewBox="0 0 1000 1000"><path d="M608.775,304.3V116.088C427.788,240.4,201.1,417.733,23.766,415.9,7.313,415.9,0,423.217,0,437.842v376.6C0,830.9,7.313,836.38,23.766,836.38c113.168,1.143,242.059-61.329,367.459-139.146V450.64C459.876,403.27,533.685,351.006,608.775,304.3Z"/><path d="M976.234,165.448C862.07,164.306,733.648,226.618,608.775,304.3V551.188c-68.5,47.268-142.4,99.411-217.55,146.046V883.912C572.212,759.6,798.9,582.267,976.234,585.923c16.453,0,23.766-7.313,23.766-21.938v-376.6C1000,170.932,992.687,165.448,976.234,165.448Z"/></svg>