<svg xmlns="http://www.w3.org/2000/svg" width="1000" height="1000">
  <path d="M500.496 995.003c275.935 0 494.507-224.506 494.507-495.496C995.003 226.54 773.464 5 500.496 5 223.572 5 5 229.506 5 499.507c0 276.924 224.506 495.496 495.496 495.496zM106.868 555.881c-4.945-37.583-3.956-99.89 4.946-135.495 11.868-53.407 29.67-92.967 56.373-135.495 57.363-85.055 147.363-149.341 246.265-171.1 11.868-1.977 23.736-4.945 25.714-3.956 6.923-.989 7.912 0 7.912 8.902 0 10.879-.989 11.868-13.846 24.725-40.55 40.55-66.264 108.792-66.264 172.088 0 40.55 8.901 72.199 31.649 116.704 12.857 25.715 14.835 35.605 9.89 35.605-1.978 0-13.846 6.923-24.726 15.824-68.241 44.506-103.846 100.88-114.725 187.913-8.901 65.275 11.868 134.506 52.418 173.077 6.923 6.923 11.868 11.868 11.868 13.846 0 12.857-47.473-13.846-88.023-48.461C167.2 743.794 118.737 655.77 106.87 555.88zm306.595 161.21c-.99-34.616 2.967-62.309 15.824-99.891 19.78-55.385 67.253-106.814 111.759-124.616 5.934-1.978 11.868-3.956 11.868-6.923l-9.89-7.912c-15.824-9.89-38.572-36.594-46.484-52.418-17.802-28.681-29.67-75.165-29.67-114.726 0-21.758 5.934-56.373 12.857-78.132 12.857-40.55 38.571-68.242 65.275-75.165 25.714-5.934 46.483-.989 65.275 17.802 17.802 15.825 24.725 35.605 24.725 70.22 0 33.627-10.879 67.253-25.714 87.034-9.89 12.857-8.901 19.78 4.945 29.67 20.77 12.857 35.604 11.868 51.429-2.967 22.747-18.791 34.615-59.34 32.637-104.835-.989-36.594-12.857-70.22-34.615-100.88-3.957-5.934-6.924-12.857-6.924-14.835 0-4.945 8.902-3.956 27.693 7.912 108.791 59.34 182.967 158.242 205.715 272.968 3.956 22.747 6.923 36.594 6.923 83.077 0 44.506-5.934 75.165-21.758 122.638-37.583 114.726-131.54 209.671-244.287 250.22-44.506 16.814-118.682 29.671-118.682 20.77 0-2.967 3.956-4.945 14.836-8.901 56.373-12.857 113.736-59.341 145.385-112.748 3.956-8.901 3.956-10.88 2.967-13.846-2.967-3.956-4.945-1.978-18.792 12.857-32.637 32.638-69.23 49.45-116.703 54.396-40.55 3.956-75.165-4.945-94.946-23.736-22.747-26.704-30.66-45.495-31.648-87.034z" style="fill:#000;fill-opacity:1;fill-rule:nonzero;stroke:none;"/>
</svg>
