<svg xmlns="http://www.w3.org/2000/svg" width="1000" height="1000">
  <path d="M5 500.496c0 271.98 220.55 494.507 495.496 494.507 271.98 0 494.507-220.55 494.507-495.496C995.003 227.528 773.464 5 500.496 5 226.54 5 5 225.55 5 500.496zm203.737 15.824c-3.956-97.912 0-191.868 0-289.78 0-19.781 7.912-23.737 23.736-23.737H788.3c19.78 0 23.737 7.912 23.737 23.736-3.956 54.396 0 109.78 0 160.22 0 66.264 0 129.561-7.912 191.87-11.869 149.34-168.133 273.956-281.87 289.78-35.604 4.946-71.209-7.912-101.868-23.736-85.055-44.506-156.264-105.824-187.913-195.825-14.835-42.527-19.78-90-23.736-132.528zm70.22 22.748c7.912 117.692 70.22 192.857 172.088 239.341 23.737 10.88 51.43 15.824 79.122 11.868 82.088-15.824 191.868-101.868 207.693-211.649 0-15.824 0-27.692-15.825-39.56-89.01-67.253-180.99-132.528-267.033-199.781-7.913-2.967-11.869-10.88-14.836-14.835 22.748-3.956 49.451-10.88 74.176 7.912l70.22 54.396c51.43 39.56 101.869 74.176 153.298 117.692 2.967-7.912 2.967-11.868 2.967-15.824V296.759c0-11.868-6.923-15.824-18.792-15.824H294.781c-15.824 0-15.824 7.912-15.824 19.78v62.308c-3.956 11.868 3.956 19.78 11.868 27.693 54.396 43.516 108.792 84.066 164.177 125.604l187.912 140.44c7.912 3.956 11.868 11.869 11.868 19.78 0 15.825-22.747 27.693-38.571 15.825-90.99-68.242-180-141.43-273.957-207.693-19.78-15.824-39.56-31.649-63.297-46.484z" style="fill:#000;fill-opacity:1;fill-rule:nonzero;stroke:none;"/>
</svg>
