<svg xmlns="http://www.w3.org/2000/svg" width="1000" height="1000">
  <path d="M5 500.496c0 271.98 220.55 494.507 495.496 494.507 123.528 0 228.462-41.538 314.507-116.703-34.616-122.638-60.528-245.078-95.935-364.947-15.824 65.275-36.593 124.616-49.45 189.891-3.956 20.77-15.825 26.703-36.594 26.703h-71.209c-26.703 4.946-37.582-10.879-42.528-32.637-16.813-53.407-33.626-112.748-49.45-171.1-3.956 19.78-10.88 35.605-15.824 52.418-10.88 42.528-20.77 86.045-30.66 131.54-6.923 13.845-12.857 19.78-29.67 19.78h-85.056c-22.747 0-26.703-5.935-32.637-26.704-48.462-157.253-101.869-318.463-151.32-481.65-4.252-13.055-7.911-23.736-9.89-32.637C45.55 274.012 5 382.21 5 500.497zm191.783-392.025-.013-.02C248 268.473 299.726 428.496 345.22 588.518h12.858c15.824-75.165 31.649-145.385 48.462-216.594 3.956-19.78 9.89-29.67 36.593-29.67 22.748 3.956 42.528 3.956 65.275 0 15.824 0 20.77 3.956 26.704 26.703 15.824 68.242 33.626 134.506 49.45 203.737 0 5.934 5.934 11.868 5.934 22.748 3.956-22.748 9.89-33.627 13.847-43.517 16.813-65.275 33.626-124.616 49.45-182.968 5.934-16.813 11.869-26.703 31.649-26.703 26.703 3.956 49.45 0 76.154 3.956 6.923 0 22.747 5.934 22.747 15.824 41.539 142.418 78.132 278.902 121.649 422.31 56.374-81.1 89.011-179.012 89.011-284.837C995.003 227.528 773.464 5 500.496 5 385.968 5 282.913 46.539 196.77 108.45z" style="fill:#000;fill-opacity:1;fill-rule:nonzero;stroke:none;"/>
</svg>
