<svg xmlns="http://www.w3.org/2000/svg" viewBox="0 0 1000 1000"><path d="M141.053 994.092h247.273c68.213 0 142.111 4.263 211.745-5.685C729.392 977.038 837.397 914.51 895.662 799.4c86.688-186.166 89.53-372.33 17.053-559.917-28.422-81.003-89.53-144.953-164.848-187.586-52.581-28.423-115.11-44.055-171.954-44.055C436.643 5 301.639 5 162.37 5c-18.474 0-21.317 2.842-21.317 18.474V454.07H35.891v52.581c0 39.791 0 39.791 39.791 39.791h65.371zM276.06 873.297V546.442h255.8c15.631 0 18.474-1.42 18.474-19.895V468.28c0-9.947-2.843-14.21-18.475-14.21h-255.8V125.793h17.054c76.74 0 154.9-2.842 231.64 0 38.37 0 81.004 8.527 117.953 19.896 71.055 18.474 113.688 72.476 146.374 140.69 31.264 62.528 34.106 132.163 34.106 200.376 0 72.476-2.842 140.69-32.685 208.903-35.528 110.846-110.847 170.533-227.377 174.796-95.215 5.685-184.745 2.842-281.38 5.685 0 0-4.263-2.843-5.684-2.843z"/></svg>