<?xml version="1.0" encoding="UTF-8"?><svg id="a" xmlns="http://www.w3.org/2000/svg" viewBox="0 0 1000 1000"><path d="M764.014,318.118l-238.885-137.31c-7.568-4.398-16.164-6.717-24.917-6.724-8.797,.004-17.438,2.308-25.071,6.685l-239.733,138.406c-7.619,4.373-13.937,10.699-18.298,18.325-4.394,7.604-6.731,16.218-6.792,25l-.482,275.607c.022,8.82,2.325,17.484,6.689,25.148,4.442,7.633,10.788,13.979,18.421,18.421l238.936,137.336c7.591,4.349,16.188,6.632,24.936,6.632,8.813,.02,17.475-2.309,25.089-6.744l239.733-138.349c7.582-4.407,13.888-10.715,18.292-18.299,4.388-7.606,6.729-16.219,6.789-25l.112-82.177,.375-193.376c-.026-8.836-2.326-17.517-6.69-25.199-4.479-7.621-10.855-13.953-18.504-18.382Zm-392.656,84.885l-.019,261.758-53.559-30.924c-7.603-4.422-13.924-10.746-18.344-18.35-4.401-7.612-6.727-16.249-6.74-25.041l.109-181.014c.016-8.774,2.32-17.394,6.688-25.003,4.417-7.627,10.741-13.973,18.35-18.421l156.913-90.523c7.59-4.418,16.218-6.735,25-6.711,8.806-.026,17.465,2.278,25.09,6.682l18.992,10.916v148.027l-84.798,19.989v-101.487l-87.683,50.103Zm335.306,187.385c-.017,8.798-2.336,17.44-6.734,25.061-4.417,7.596-10.745,13.903-18.356,18.295l-156.869,90.603c-7.609,4.368-16.226,6.673-25,6.685l-.07-.019c-8.773-.014-17.39-2.319-25-6.685l-15.574-9.014v-174.573l84.798-21.376v130.763l87.593-50.055V337.027l50.18,28.948c7.637,4.365,13.959,10.706,18.298,18.356,4.44,7.606,6.778,16.254,6.785,25.061l-.051,180.995ZM500,0C223.858,0,0,223.858,0,500s223.858,500,500,500,500-223.858,500-500S776.142,0,500,0Zm358.317,706.812c-4.421,7.607-10.75,13.931-18.356,18.35l-314.896,181.799c-7.613,4.408-16.255,6.731-25.051,6.737-8.812-.007-17.463-2.329-25.09-6.744l-314.9-181.738c-7.601-4.411-13.912-10.741-18.299-18.357-4.394-7.615-6.713-16.25-6.734-25.041l.058-363.618c-.002-8.789,2.3-17.421,6.682-25.039,4.385-7.615,10.696-13.943,18.299-18.35L474.93,92.986c7.642-4.371,16.287-6.675,25.09-6.685,8.785,.016,17.42,2.32,25.045,6.685l314.896,181.826c7.599,4.401,13.928,10.705,18.356,18.296,4.349,7.646,6.658,16.288,6.691,25.087l-.059,363.618c.026,8.771-2.263,17.394-6.632,25Z"/></svg>