<svg xmlns="http://www.w3.org/2000/svg" width="1000" height="1000">
  <path d="M10.915 286.8c0-37.051 30.699-74.102 75.16-70.926 32.817 1.058 60.34 28.582 64.574 61.398 5.293 35.993-20.113 71.985-59.281 77.278-40.227 7.41-80.453-26.465-80.453-67.75zm20.113 193.723c0-27.523 24.348-51.871 51.871-51.871 29.641 0 51.871 24.348 51.871 51.871 0 28.582-23.289 51.871-51.87 51.871-27.524 0-51.872-23.289-51.872-51.871zM49.024 641.43c0-20.113 14.82-35.992 33.875-35.992 17.996 0 34.934 15.879 34.934 35.992 0 17.996-15.879 33.875-34.934 33.875s-33.875-15.879-33.875-33.875zm16.938 124.914c0-10.586 7.41-17.996 16.937-17.996 10.586 0 16.938 7.41 16.938 17.996 0 9.528-8.469 16.938-16.938 16.938-9.527 0-16.937-7.41-16.937-16.938zm156.672-377.919c0-39.168 30.7-69.867 68.809-70.926 40.227 0 69.867 31.758 69.867 70.926 0 39.168-29.64 69.867-68.808 69.867-39.169 0-69.868-30.699-69.868-69.867zm0-207.485c0-39.168 30.7-70.926 69.868-70.926 39.168 0 68.808 30.7 68.808 70.926 0 38.11-29.64 69.867-68.808 69.867-39.169 0-69.868-31.758-69.868-69.867zm16.938 405.443c0-29.64 23.289-51.871 51.87-51.871 28.583 1.058 50.814 23.289 50.814 51.87 0 28.583-22.23 51.872-51.872 51.872-27.523 0-50.812-23.29-50.812-51.871zm17.996 158.79c0-19.055 13.762-33.876 33.875-33.876 19.055 0 33.875 15.88 33.875 35.993 0 19.054-14.82 32.816-34.934 32.816-19.054 0-32.816-13.762-32.816-34.934zm16.937 125.973c0-9.528 6.352-17.997 16.938-17.997 9.527 0 16.938 8.47 16.938 17.997s-7.41 17.996-16.938 17.996c-10.586 0-16.938-8.47-16.938-17.996zM430.12 494.285c0-38.11 31.758-71.985 69.868-70.926 40.226 0 68.809 29.64 70.926 70.926 0 37.05-31.758 70.926-70.926 68.809-39.168 0-68.81-30.7-69.868-68.81zm0-209.603c0-37.05 31.758-69.867 69.868-69.867 39.168 0 70.926 32.817 70.926 69.867 0 45.52-38.11 71.985-70.926 70.927-31.758 1.058-69.868-23.29-69.868-70.927zm1.059-202.192c-5.293-41.285 26.465-74.101 61.398-77.277 47.637-3.176 78.337 29.64 78.337 69.867 0 35.992-26.465 63.516-60.34 68.809-40.227 5.293-76.22-22.23-79.395-61.399zm19.055 605.518c0-27.523 23.289-50.813 50.812-50.813 28.582 1.06 52.93 23.29 52.93 50.813 0 29.64-23.289 51.871-52.93 51.871-27.523 0-50.812-22.23-50.812-51.87zm16.937 163.024c0-17.996 15.88-34.934 33.875-34.934 20.114 0 34.934 16.938 34.934 35.993 0 16.937-14.82 32.816-34.934 33.875-17.996 0-33.875-16.938-33.875-34.934zm16.938 125.973c0-8.468 8.468-17.996 16.937-17.996 10.586-1.058 17.996 9.528 17.996 17.996 0 9.528-7.41 17.997-17.996 17.997-8.469 0-16.937-8.47-16.937-17.997zm157.73-588.58c0-39.168 30.7-69.867 68.81-70.926 40.226 0 70.926 31.758 70.926 70.926 0 39.168-30.7 69.867-68.81 69.867-40.226 0-70.925-30.699-70.925-69.867zm0-208.544c0-39.168 31.759-69.867 70.927-69.867 38.11 1.058 68.809 31.758 68.809 71.985 0 38.109-32.817 68.808-70.926 68.808-38.11 0-68.81-31.758-68.81-70.926zm16.938 406.502c0-29.64 22.23-51.871 51.872-51.871 27.523 1.058 49.754 23.289 49.754 51.87 0 28.583-22.23 51.872-50.813 51.872-28.582 0-50.813-23.29-50.813-51.871zm16.938 158.79c0-19.055 14.82-33.876 33.875-33.876 20.113 0 33.875 15.88 33.875 33.875 0 21.172-13.762 34.934-33.875 34.934-19.055 0-33.875-13.762-33.875-34.934zm15.879 125.973c1.058-9.528 8.469-17.997 19.055-17.997 9.527 2.118 15.879 8.47 15.879 19.055 0 8.469-7.41 16.938-16.938 16.938-9.527-1.059-17.996-9.528-17.996-17.996zm157.73-586.464c0-37.05 31.759-69.867 71.986-69.867 35.992 1.059 68.808 32.817 67.75 69.867 0 41.286-31.758 70.927-70.926 70.927-39.168 0-68.81-31.758-68.81-70.927zm20.114 195.841c0-28.582 22.23-51.871 51.872-51.871 28.582 0 51.87 24.348 51.87 51.871 0 28.582-24.347 51.871-51.87 51.871-29.641 0-51.872-23.289-51.872-51.871zm16.938 160.907c0-20.113 14.82-35.992 34.934-35.992 17.996 0 33.875 15.879 33.875 35.992 0 17.996-15.88 33.875-33.875 33.875-21.172 0-34.934-15.879-34.934-33.875zm16.937 124.914c0-10.586 7.41-17.996 17.997-17.996 8.468 0 16.937 7.41 16.937 17.996 0 9.528-8.469 16.938-16.937 16.938-9.528 0-17.997-7.41-17.997-16.938z" style="fill:#000;fill-opacity:1;fill-rule:nonzero;stroke:none"/>
</svg>
