<?xml version="1.0" encoding="utf-8"?>
<!-- Generator: Adobe Illustrator 26.0.1, SVG Export Plug-In . SVG Version: 6.00 Build 0)  -->
<svg version="1.1" id="Layer_1" xmlns="http://www.w3.org/2000/svg" xmlns:xlink="http://www.w3.org/1999/xlink" x="0px" y="0px"
	 viewBox="0 0 1000 1000" style="enable-background:new 0 0 1000 1000;" xml:space="preserve">
<path d="M500.3,5C226.9,5,5.3,226.6,5.3,500s221.6,495,495,495s495-221.6,495-495S773.7,5,500.3,5z M650.7,142.6l146.1,144.7H682.9
	c-17.9-43-50.3-102.3-96.7-144.7H650.7z M669.6,569.4c1.3,4.5,3.6,8.6,6.8,12.3c3.3,3.6,7.2,6.2,11.7,7.7c4.6,1.5,9.2,2.3,13.8,2.3
	c4.7,0,9.3-0.8,13.8-2.3c4.6-1.5,8.5-4.1,11.7-7.7c3.3-3.6,5.5-7.7,6.8-12.3c1.3-4.6,1.9-9.2,1.9-13.8V370.4h43.1v185.2
	c0,8.2-0.9,16.3-2.8,24.3c-1.9,8.1-5.2,15.5-10,22.2c-4.8,6.8-10.7,12.4-17.7,16.8c-7,4.4-14.5,7.5-22.6,9.1
	c-8.1,1.6-16.2,2.5-24.3,2.5c-8.2,0-16.3-0.8-24.3-2.5c-8.1-1.6-15.6-4.7-22.6-9.1c-7-4.4-12.9-10-17.7-16.8
	c-4.8-6.8-8.1-14.2-10-22.2c-1.9-8.1-2.8-16.2-2.8-24.3V370.4h43.1v185.2C667.6,560.3,668.3,564.9,669.6,569.4z M515.4,142.6h32.2
	c22.4,15.8,75.5,66.8,108.2,144.7H515.4V142.6z M454.5,142.6h32.9v144.7H348.5C358.3,257.4,393.2,186.7,454.5,142.6z M326.5,536.7
	c-6.2-6.5-13.2-11.3-21.2-14.4c-7.9-3-15.9-6.1-23.8-9.3c-7.9-3.2-15.5-6.9-22.8-11.2c-7.2-4.3-13.8-9.6-19.6-15.9
	c-5.8-6.3-10.3-13.5-13.5-21.5c-3.2-8.1-4.7-16.3-4.7-24.7c0-10,1.9-19.8,5.8-29.2c3.9-9.5,9.6-17.6,17.2-24.5
	c7.6-6.9,16.2-11.7,25.9-14.4c9.7-2.7,19.5-4,29.6-4c9.6,0,19.1,1.2,28.5,3.5c9.5,2.3,18,6.7,25.6,13c7.6,6.3,13.4,13.9,17.3,22.9
	c4,9,6,18.4,6,28.2h-43.1c-0.2-5.6-1.9-10.9-5.1-15.8c-3.2-4.9-7.4-8.3-12.8-10.2c-5.4-1.9-10.9-2.8-16.5-2.8
	c-4.4,0-8.9,0.6-13.3,1.9c-4.4,1.3-8.3,3.4-11.7,6.5c-3.4,3-5.9,6.7-7.5,10.9c-1.6,4.2-2.5,8.6-2.5,13.3c0,8.4,3,15.9,9.1,22.4
	c6.1,6.5,13.1,11.3,21.2,14.2c8.1,2.9,16,6,23.8,9.1c7.8,3.2,15.4,6.9,22.8,11.4c7.4,4.4,13.9,9.8,19.8,16.1
	c5.8,6.3,10.3,13.4,13.5,21.4c3.2,7.9,4.7,16.2,4.7,24.9c0,10-2,19.9-6.1,29.6c-4.1,9.7-10.1,17.9-18,24.7
	c-7.9,6.8-16.9,11.4-26.8,14c-9.9,2.6-20,3.9-30.3,3.9c-9.8,0-19.5-1.2-29.2-3.5c-9.7-2.3-18.5-6.6-26.4-12.8
	c-7.9-6.2-14-13.9-18.2-23.1c-4.2-9.2-6.3-18.8-6.3-28.9h43.1c0.2,6.1,2.2,11.6,5.8,16.5c3.6,4.9,8.3,8.3,14,10.2
	c5.7,1.9,11.5,2.8,17.3,2.8c6.3,0,12.4-1.1,18.4-3.3c6-2.2,10.7-6.1,14.2-11.6c3.5-5.5,5.3-11.4,5.3-17.7
	C335.8,550.7,332.7,543.2,326.5,536.7z M348.4,142.6h68.8c-18.6,10.8-80.2,87.4-96,144.7H203.8L348.4,142.6z M349.9,857.4
	L203.8,712.7h113.9c17.9,43,50.3,102.3,96.7,144.7H349.9z M485.3,857.4h-32.2c-22.5-15.8-75.5-66.8-108.2-144.7h140.4V857.4z
	 M498.6,630.5c-8.2,0-16.3-0.9-24.3-2.6c-8.1-1.8-15.6-4.8-22.8-9.3c-7.1-4.4-13.1-10-18-16.6c-4.9-6.7-8.3-14-10.3-22.1
	c-2-8.1-3-16.2-3-24.3V442.5c0-7,0.6-13.9,1.9-20.7c1.3-6.8,3.6-13.2,7-19.3c3.4-6.1,7.6-11.4,12.8-16.1c5.1-4.7,10.9-8.5,17.3-11.4
	c6.4-2.9,13-4.9,19.8-6c6.8-1,13.7-1.6,20.7-1.6c9.8,0,19.5,1.2,29.1,3.5c9.6,2.3,18.2,6.6,25.9,12.8c7.7,6.2,13.6,13.8,17.7,22.9
	c4.1,9.1,6.1,18.6,6.1,28.4h-43.1c0-5.8-1.8-11.1-5.2-15.9c-3.5-4.8-8.1-8.1-13.7-10c-5.6-1.9-11.2-2.8-16.8-2.8
	c-4.9,0-9.7,0.7-14.4,2.1c-4.7,1.4-8.8,3.9-12.3,7.4c-3.5,3.5-6,7.6-7.5,12.3c-1.5,4.7-2.3,9.5-2.3,14.4v113.1c0,4.7,0.7,9.3,2.1,14
	c1.4,4.7,3.9,8.8,7.4,12.3c3.5,3.5,7.5,6,12.1,7.5c4.6,1.5,9.2,2.3,13.8,2.3c4.9,0,9.7-0.8,14.4-2.3c4.7-1.5,8.9-3.9,12.6-7.2
	c3.7-3.3,6.2-7.3,7.4-12.1c1.2-4.8,1.8-9.6,1.8-14.5V523h-34.3v-38.9h77.4v71.4c0,7-0.4,13.9-1.2,20.8c-0.8,6.9-2.9,13.5-6.3,19.8
	c-3.4,6.3-7.8,11.7-13.1,16.3c-5.4,4.5-11.3,8.1-17.7,10.7c-6.4,2.6-13.1,4.4-20,5.6C512.5,629.9,505.6,630.5,498.6,630.5z
	 M546.1,857.4h-32.9V712.7h138.9C642.3,742.6,607.4,813.3,546.1,857.4z M652.2,857.4h-68.8c18.6-10.8,80.2-87.4,96-144.7h117.5
	L652.2,857.4z"/>
</svg>
