<svg xmlns="http://www.w3.org/2000/svg" viewBox="0 0 1000 1000"><path d="M500,0C223.858,0,0,223.858,0,500s223.858,500,500,500,500-223.858,500-500S776.142,0,500,0Zm-193.474,436.167l129.639-129.639c10.847-10.847,28.431-10.847,39.278,0,10.847,10.847,10.847,28.431,0,39.278l-129.639,129.639c-10.847,10.847-28.431,10.847-39.278,0-10.847-10.847-10.847-28.431,0-39.278Zm384.974,125.694l-129.639,129.639c-10.847,10.847-28.43,10.847-39.278,0-10.847-10.847-10.847-28.431,0-39.278l129.639-129.639c10.847-10.847,28.445-10.847,39.278,0,10.847,10.847,10.847,28.431,0,39.278Zm14.736-228.819l-373.194,373.194c-10.847,10.847-28.431,10.847-39.278,0-10.847-10.847-10.847-28.431,0-39.278l373.194-373.194c10.847-10.847,28.431-10.847,39.278,0s10.847,28.43,0,39.278Z"/></svg>