<?xml version="1.0" encoding="UTF-8"?><svg id="a" xmlns="http://www.w3.org/2000/svg" viewBox="0 0 1000 1000"><path d="M440.349,439.065l-69.681,16.452-47.151,58.609,65.987,25.542c-.425,11.227,3.064,22.965,9.903,33.587l-27.376,29.989,28.332,25.864,27.36-29.972c17.393,9.403,36.421,11.455,52.117,6.76l-8.013,4.63,20.754,64.855,58.291-54.677,13.353-63.57c178.073-157.75,144.2-261.303,144.2-261.303-151.943-11.613-268.077,143.233-268.077,143.233Zm107.424,52.231c-22.449,0-40.647-18.198-40.647-40.647s18.198-40.647,40.647-40.647,40.647,18.198,40.647,40.647-18.198,40.647-40.647,40.647ZM500,0C223.858,0,0,223.858,0,500s223.858,500,500,500,500-223.858,500-500S776.142,0,500,0Zm322.449,822.449c-86.129,86.129-200.644,133.563-322.449,133.563-109.298,0-212.711-38.217-295.028-108.289l159.282-147.125-13.102-14.184-160.684,148.42c-4.292-3.975-8.537-8.016-12.699-12.172l196.683-181.672-13.101-14.184-196.942,181.911c-4.47-4.85-8.822-9.782-13.058-14.79l159.191-147.041-13.101-14.184-158.286,146.205c-61.711-79.507-95.166-176.633-95.166-278.907,0-121.805,47.433-236.32,133.563-322.449C263.68,91.422,378.195,43.988,500,43.988s236.32,47.433,322.449,133.563c86.129,86.129,133.563,200.644,133.563,322.449s-47.434,236.32-133.563,322.449Z"/></svg>