<svg xmlns="http://www.w3.org/2000/svg" viewBox="0 0 1000 1000"><path d="M840.156 633.646v309.523c0 32.581-18.797 51.378-42.607 51.378-21.303 0-40.1-18.797-40.1-48.872-2.506-33.835 0-67.67-2.506-100.25 0-20.05-12.532-31.329-32.582-31.329-16.29 0-27.568 11.278-27.568 31.329v27.568c0 12.532 0 21.304-5.013 30.076-7.519 23.809-20.05 32.58-42.606 32.58-25.063-1.252-33.835-12.53-37.594-38.846 0-15.038 0-33.835-1.253-48.872 0-18.797-11.279-36.341-35.088-33.835-16.29 0-26.316 11.278-30.075 31.329 0 3.759 0 8.771-2.506 16.29-5.013 23.81-18.797 36.341-40.1 36.341-21.304 0-33.835-12.531-42.607-36.34 0-12.532 0-16.291-2.506-25.063-3.76-15.038-16.291-20.05-32.582-20.05-13.784 0-23.81 7.518-25.062 25.062 0 7.519 0 21.303-5.013 32.582 0 15.037-2.506 28.822-6.265 40.1-8.772 20.05-25.063 21.303-41.354 21.303-18.797-1.253-32.581-13.785-32.581-32.581-1.253-17.544 0-37.594-1.253-55.138-2.506-22.557-18.797-33.835-35.088-31.328-20.05 5.012-28.822 16.29-32.581 32.58v105.264c-3.76 23.81-17.544 40.1-40.1 40.1-21.304 3.76-37.594-16.29-42.607-40.1-2.506-8.772 0-18.797 0-31.328 0-187.97-2.506-378.446 0-566.415 0-166.666 102.757-296.992 260.651-340.851C600.808-33.02 797.55 88.534 830.13 272.744c7.52 27.569 10.026 60.15 10.026 85.213zm-515.037-308.27c0 32.581 23.81 63.91 52.632 63.91s52.631-32.582 52.631-68.923c0-35.088-21.303-56.39-55.138-56.39-30.075 0-50.125 23.809-50.125 61.403zm130.326 119.047c7.519 30.075 23.81 42.606 51.378 42.606 21.303-2.506 33.835-12.53 40.1-42.606zM568.226 319.11c0 33.834 23.81 66.416 53.885 70.175 27.569 0 52.631-23.81 56.39-56.39 2.507-36.341-21.302-68.923-52.63-72.682-25.063 0-53.885 27.569-57.645 58.897z"/></svg>