<svg xmlns="http://www.w3.org/2000/svg" viewBox="0 0 1000 1000"><path d="M5 500.496C5 225.55 226.54 5 500.496 5c272.968 0 494.507 222.528 494.507 494.507 0 274.946-222.528 495.496-494.507 495.496C225.55 995.003 5 772.475 5 500.496zm126.594 31.649c12.857 32.637 45.494 55.384 82.088 55.384 9.89-.989 16.813.99 23.736 7.913v.989c30.66 27.692 49.451 61.318 55.385 101.868 0 4.945-.989 8.901-3.956 11.868-9.89 18.791-14.835 38.572-9.89 61.32 7.912 41.538 46.484 75.164 93.956 69.23 47.473-5.934 80.11-46.484 76.154-92.967-2.967-41.539-36.593-75.165-79.12-79.121-6.924 0-11.869-1.978-17.803-5.935-38.572-28.68-59.34-67.252-65.275-113.736 0-1.978 0-4.945.99-5.934 14.834-29.67 14.834-57.363-.99-85.055v-14.836c6.923-42.527 28.681-79.12 64.286-105.824 3.956-2.967 8.901-5.934 14.835-4.945 1.978 0 4.945 0 6.923-.99 43.517-4.944 76.154-42.527 76.154-86.044 0-48.461-40.55-89.01-92.967-85.055-63.297 4.945-99.89 72.198-68.242 127.583 3.956 6.923 4.945 12.857 3.956 18.791-1.978.99-1.978 1.978-1.978 3.956-8.901 41.539-28.681 75.165-64.286 100.88-1.978 2.967-3.956 3.956-7.912 3.956-23.736-.99-44.506 5.934-62.308 19.78-27.692 24.726-36.593 62.308-23.736 96.924zm288.792-23.737c4.945 47.473 44.506 81.1 91.978 78.132 2.967 0 5.934.99 8.901 1.978 35.605 28.682 55.385 64.286 61.32 108.792 0 4.945 0 6.923-.99 9.89-9.89 14.835-14.835 31.649-14.835 48.462.99 47.473 39.56 85.055 86.044 86.044 5.934-.989 12.858-.989 18.792-2.967 59.34-12.857 87.033-80.11 55.384-129.56-2.967-4.946-3.956-8.902-2.967-13.847 1.978-6.923 2.967-14.835 4.945-22.747 11.869-33.627 30.66-61.32 61.32-83.078 1.977-1.978 5.933-1.978 8.9-1.978 5.935 0 11.869-.989 16.814-1.978 46.483-9.89 77.143-53.406 69.23-98.901-6.922-46.484-50.439-78.132-94.945-72.198-63.297 6.923-96.923 76.154-64.286 129.56 1.978 4.946 2.967 6.924 1.978 11.869-2.967 24.725-11.868 45.495-24.725 66.264-9.89 16.813-23.736 31.648-39.56 43.517-5.935 3.956-7.913 3.956-14.836 0v-.99c-40.55-26.703-62.308-64.285-70.22-109.78 0-4.945 0-7.912 2.967-11.868 5.934-12.857 10.88-26.704 10.88-42.528.989-52.418-44.506-91.978-96.924-86.044-46.484 5.934-80.11 47.473-75.165 93.956zM567.749 245.33c-.989 48.462 38.572 87.034 87.033 87.034 46.484 0 85.056-39.56 85.056-86.045 0-47.472-38.572-87.033-85.056-87.033-48.461 0-87.033 38.572-87.033 86.044z"/></svg>