<svg xmlns="http://www.w3.org/2000/svg" viewBox="0 0 1000 1000"><path d="m452.47 986.889 3.479-52.167c0-4.636-2.319-9.274-6.956-9.274-64.918 0-139.11-10.433-209.825-46.37-2.319-1.159-3.478-3.477-3.478-6.955l6.956-79.989c0-5.796 5.796-9.274 12.752-5.796 68.396 33.618 139.11 57.963 200.55 61.44 5.797 0 8.115-3.477 8.115-8.114l26.663-300.247c0-3.478-1.159-6.956-3.477-8.115-126.36-62.6-190.118-127.518-179.685-251.559 3.478-48.688 27.822-98.536 70.715-137.95 42.892-37.097 90.421-56.804 148.384-66.078 3.478-1.16 5.796-4.637 5.796-6.956l4.638-55.644c0-5.797 3.477-8.115 6.955-8.115h33.618c4.637 0 8.115 4.637 8.115 9.274l-3.478 52.166c0 3.478 3.478 8.115 8.115 8.115 53.326 0 105.492 18.548 168.092 37.096 3.478 0 5.796 5.797 5.796 8.115l-6.955 78.83c0 6.955-6.956 10.433-12.752 8.114-57.963-26.663-112.448-42.892-161.136-52.166-5.797-1.16-10.434 3.478-10.434 6.955L548.69 452.472c0 1.16 1.16 4.637 2.319 5.797 111.288 83.466 194.754 119.403 182.003 233.01-5.797 57.963-27.823 107.81-74.193 156.5-31.3 38.255-81.148 67.236-144.907 76.51-4.637 1.16-6.955 3.478-6.955 5.797l-5.796 59.121c0 4.638-2.319 5.797-5.797 5.797h-34.777c-5.797 0-8.115-4.637-8.115-8.115zM406.1 279.743c-2.318 30.141 4.638 59.122 13.912 77.67 13.91 17.39 38.255 34.778 68.396 52.167 6.955 4.637 13.91 1.16 13.91-5.796l19.708-229.533c0-6.955-4.637-11.592-11.592-9.274-61.44 22.026-98.537 59.122-104.333 114.766zm110.13 543.691c0 8.115 5.796 12.752 13.911 9.274 61.44-31.3 97.377-67.237 102.014-121.722 5.797-57.962-19.707-88.103-82.307-128.677-6.955-4.637-13.91-1.16-13.91 6.956z"/></svg>