<svg xmlns="http://www.w3.org/2000/svg" width="1000" height="1000">
  <path d="M500.496 5C223.572 5 5 229.506 5 500.002c0 276.43 224.506 495.001 495.002 495.001 276.43 0 495.001-224.506 495.001-495.001C995.003 226.539 773.464 5 500.496 5zM205.77 718.08V464.891c7.912-2.967 15.824-4.945 21.758-4.945 57.363-2.967 105.825-24.726 149.341-52.418 62.308-37.583 122.638-81.1 184.946-119.67 4.945-4.946 10.88-7.913 18.791-12.858 0 1.978 2.967 1.978 2.967 1.978v97.912c7.912-1.978 13.847-4.945 15.825-7.912 27.692-13.846 52.417-26.703 76.154-37.582 38.571-19.78 76.154-32.638 119.67-32.638 13.847 0 21.759 4.945 21.759 21.759v222.528c0 15.824-7.912 18.791-23.737 21.758-13.846 0-27.692 2.967-41.538 4.945-43.517 8.901-81.1 27.693-116.704 49.45-57.363 37.583-116.704 79.122-174.066 116.705-1.978 2.967-7.913 5.934-15.825 10.879V641.925c-32.637 15.824-57.362 32.638-84.066 45.495-38.571 19.78-76.154 32.637-119.67 35.604-10.88 2.967-24.726 5.934-35.605-4.945z" style="fill:#000;fill-opacity:1;fill-rule:nonzero;stroke:none;"/>
</svg>
