<svg xmlns="http://www.w3.org/2000/svg" width="1000" height="1000">
  <path d="M994.636 245.014c-9.394 198.62-96.625 397.238-244.247 563.649C694.024 861 636.317 911.998 575.926 961.653c-46.97 38.918-100.651 34.892-150.306 0C176.005 785.848 37.777 538.917 6.91 234.278c-9.394-60.39 16.104-100.651 71.127-126.15 277.798-128.833 558.28-128.833 836.078-6.71 55.023 24.157 84.547 63.075 80.521 143.596zM322.285 591.255c0 30.867 14.762 36.235 40.26 36.235 123.466-10.736 238.88-40.26 347.583-108.704 20.13-14.762 34.893-25.498 60.391-45.628-85.889-130.176-194.593-228.144-335.505-288.534-9.394 0-22.814 4.026-26.84 14.762-71.127 126.15-100.651 253.641-85.89 391.87z" style="fill:#000;fill-opacity:1;fill-rule:nonzero;stroke:none;"/>
</svg>
