<svg xmlns="http://www.w3.org/2000/svg" width="1000" height="1000">
  <path d="M559.914 799.209c96.92-58.994 195.946-115.882 292.865-173.822 10.534-5.268 17.909-16.856 17.909-27.39V403.105c0-11.588-7.375-23.176-17.91-28.444-51.62-33.71-110.614-65.315-167.5-96.919-11.589-13.695-22.124-7.374-40.033 0-50.566 31.604-102.186 63.208-161.18 90.598-10.535 11.589-16.856 16.856-16.856 34.765v189.624c0 10.535-5.267 22.123-11.588 27.39-34.764 25.284-73.743 46.353-113.774 69.53v-361.34c0-5.268 10.534-22.123 17.908-28.444 95.866-57.94 192.785-108.507 285.49-168.555 17.91-4.214 28.444-4.214 46.353 0 91.652 60.048 189.624 110.614 286.543 168.555 6.321 6.32 16.856 23.176 16.856 32.658v333.949c0 11.588-6.32 29.497-16.856 33.711-96.919 58.994-194.891 114.828-292.864 167.501-5.267 6.321-16.855 9.482-22.123 6.321-41.085-18.962-81.117-41.085-120.095-65.315 5.267-4.214 9.481-9.481 16.855-9.481zM8.95 666.472c-5.267-109.56-5.267-223.335 0-338.163 0-5.268 4.214-22.123 11.589-22.123 97.972-64.262 201.212-122.203 298.131-179.09 10.535 0 17.91-5.267 23.176 0 40.032 17.91 79.01 40.032 120.096 67.422-16.856 7.374-28.444 18.963-41.085 23.176-91.652 52.674-176.983 105.347-269.688 156.967-9.481 5.268-15.802 16.856-15.802 33.711v189.625c0 10.534 10.534 22.122 15.802 27.39 58.994 35.818 109.56 64.261 167.501 97.972 10.535 12.642 23.177 6.321 33.711 0 58.994-33.71 109.56-62.154 162.234-90.598 15.802-12.642 22.123-24.23 22.123-40.032V403.105c0-6.32 6.32-17.91 11.588-23.176 33.711-25.284 73.743-47.406 114.828-70.583V671.74c0 6.321-6.32 24.23-17.909 24.23L352.381 867.684c-10.534 6.321-27.39 6.321-38.978 0-99.026-58.994-189.624-108.507-286.544-167.501C13.164 695.969 8.95 678.06 8.95 666.472z" style="fill:#000;fill-opacity:1;fill-rule:nonzero;stroke:none;"/>
</svg>
