<svg xmlns="http://www.w3.org/2000/svg" width="1000" height="1000">
  <path d="M500.496 5C223.572 5 5 229.506 5 500.002c0 276.43 224.506 495.001 495.002 495.001 276.43 0 495.001-224.506 495.001-495.001C995.003 226.539 773.464 5 500.496 5zM153.352 597.42c45.495-76.155 92.967-152.309 134.506-231.43 9.89-18.791 19.78-37.582 33.627-57.363 34.615-57.362 102.857-60.33 137.473-1.978 12.857 17.803 43.516 70.22 45.494 76.154 3.956-5.934 24.726-43.516 44.506-76.154 31.648-58.352 108.791-58.352 145.385 0 54.396 94.946 111.759 191.87 166.154 287.803 32.638 57.363-5.934 123.627-71.209 123.627H513.353c-95.934 0-191.868-4.945-291.759-4.945-58.352 4.945-100.88-60.33-68.242-115.714zm239.342 2.967c-31.649 54.395 9.89 119.67 68.242 115.714h12.857c-53.407-3.956-89.012-64.286-59.341-115.714 44.506-78.133 90-154.287 134.506-231.43 10.879-18.791 19.78-38.571 33.626-58.352 15.825-24.725 37.583-39.56 60.33-42.527-29.67-5.934-62.308 9.89-82.088 42.527-13.846 19.78-22.747 39.561-33.626 58.352-44.506 77.143-89.012 153.297-134.506 231.43z" style="fill:#000;fill-opacity:1;fill-rule:nonzero;stroke:none;"/>
</svg>
