<svg xmlns="http://www.w3.org/2000/svg" width="1000" height="1000">
  <path d="M500.496 5C223.572 5 5 229.506 5 500.002c0 276.43 224.506 495.001 495.002 495.001 276.43 0 495.001-224.506 495.001-495.001C995.003 226.539 773.464 5 500.496 5zM187.968 676.54V509.398c0-12.857.989-25.714 12.857-38.571 90.99-86.045 171.1-166.155 253.187-254.177 22.748-21.758 44.506-21.758 76.155-12.857 39.56 15.824 79.12 31.648 116.703 46.484 54.396 18.79 99.89 32.637 142.418 50.44 14.836 6.922 21.759 19.78 21.759 33.626v175.055c0 11.868-6.923 24.726-13.847 32.638-76.154 69.23-232.418 233.407-252.198 253.187-32.638 30.66-46.484 24.726-78.132 11.869-51.43-18.792-96.924-33.627-143.407-51.43-39.561-13.845-78.133-24.725-116.704-45.494-10.88-7.912-18.791-19.78-18.791-33.626zm38.571-175.055c17.802 6.923 23.737 12.857 39.56 19.78 72.199 27.693 143.408 52.418 205.716 78.133 22.747 6.923 33.626 0 46.483-10.88 18.792-20.769 33.627-34.615 51.43-54.395 66.263-63.297 123.626-122.638 188.9-187.913 6.924-6.923 6.924-11.868-7.911-18.791-20.77-8.901-196.814-66.264-239.342-82.089-13.846-6.923-14.835-2.967-24.725 6.924-79.121 78.132-156.264 153.297-233.407 224.506zm157.253-62.308c77.144-42.527 180.99 19.78 110.77 63.297-81.1 42.528-186.924-31.648-110.77-63.297zm128.572-118.681c66.264-19.78 155.276 29.67 103.847 64.285-105.825 63.297-201.76-30.659-103.847-64.285z" style="fill:#000;fill-opacity:1;fill-rule:nonzero;stroke:none;"/>
</svg>
