<svg xmlns="http://www.w3.org/2000/svg" viewBox="0 0 1000 1000"><path d="M535.26 5c-35.468 42.807-62.375 90.506-96.621 133.313-8.561 12.23-55.038 6.115-69.714-8.561-48.923-40.361-42.807-55.038 6.115-81.945 36.692-22.015 55.038-31.8 84.391-42.807zM42.37 671.566V455.085s0-26.907 8.561-40.361c25.684 34.246 61.153 55.038 80.722 83.168 8.561 6.115 8.561 20.792 8.561 28.13-14.677 47.7-8.561 90.506 20.792 130.867 6.115 6.116 6.115 20.792 0 35.469-11.007 28.13-20.792 55.038-35.469 83.168-13.453 26.907-19.568 26.907-34.245 6.115C64.385 747.396 42.37 713.15 42.37 671.566zm22.015-283.75c-28.13-35.468-28.13-110.074 6.115-139.428 6.115-3.669 11.007-6.115 20.792-6.115h83.168c75.83 2.446 117.413-9.784 145.543 55.038 6.116 20.792-28.13 124.751-40.36 139.428H258.85c-28.13 6.115-57.484 12.23-78.276 26.907-13.454 13.454-25.684 13.454-40.36 0-20.793-26.907-48.923-55.037-75.83-75.83zm35.468-179.789s3.67-8.561 12.23-12.23c12.231-11.008 30.577-20.792 48.923-30.577 40.361-20.792 75.83-41.583 118.637-61.152 12.23-8.562 19.569-8.562 34.245 6.115 26.907 34.245 20.792 34.245 0 68.491-22.015 41.584-45.253 35.469-83.168 35.469-41.584 0-88.06 0-130.867-6.116zm55.038 582.175c12.23-22.015 25.684-48.922 34.245-69.714 6.116-22.015 12.231-22.015 35.47-22.015 25.683 8.562 46.475 8.562 74.606 8.562 6.115 0 18.345-2.446 26.907 0 48.922 19.569 97.844 40.36 146.767 61.152 11.007 6.116 14.676 13.454 12.23 28.13 0 26.908 8.562 48.923 23.238 69.715 7.339 8.561 6.116 14.677 6.116 20.792-6.116 34.246-14.677 62.376-29.354 95.398-3.669 8.562-6.115 14.677-24.461 12.231-19.569-2.446-36.692-12.23-50.145-18.346-75.83-48.922-160.22-95.398-243.389-139.428-20.792-13.454-26.907-19.57-12.23-46.477zm171.228-368.14c8.561-28.13 14.676-55.037 28.13-77.052 6.115-8.562 14.677-20.792 20.792-20.792 8.561 0 20.792 8.561 29.353 14.677 0 6.115 6.116 13.453 6.116 19.568C444.755 477.1 479 595.736 514.47 713.15c3.669 13.454 1.223 24.461 6.115 42.807-55.038-29.353-102.737-42.807-151.66-69.714-20.791-8.562-8.56-14.677 0-23.238 41.585-46.477 48.923-110.076 14.677-158.998-14.676-20.792-29.353-34.245-48.922-46.476-14.676-14.677-14.676-20.792-8.561-35.469zM438.64 345.01c-14.677-41.584 20.792-75.83 61.153-67.268 35.469 6.115 69.714 12.23 97.844 19.569 11.008 4.892 20.792 6.115 26.908 12.23 12.23 26.907 20.792 42.807 34.245 63.6 8.562 11.007 6.116 14.676 0 29.352-25.684 101.514-61.153 214.035-89.283 324.11-6.115 20.793-8.561 23.239-14.677 14.677-6.115-14.676-6.115-20.792-12.23-34.245-34.246-118.637-69.714-237.273-103.96-362.025zm34.246-122.306c-24.462-35.469-7.339-72.16 20.792-106.406 20.792-20.792 41.584-55.037 61.152-81.945 8.562-14.676 23.238-14.676 35.47-8.561 28.13 14.677 42.806 28.13 48.921 63.599 6.116 34.246 19.57 75.83 34.246 110.075 6.115 20.792-2.446 23.238-14.677 35.469-13.453 13.453-25.684 28.13-40.36 34.245-40.362-6.115-83.168-14.676-118.637-20.792-14.677-6.115-15.9-12.23-26.907-25.684zm47.699 753.403c8.561-26.907 14.677-48.922 22.015-69.714 12.23-25.684 24.461-24.461 41.584-25.684 40.36-6.116 68.491 0 103.96 19.569 0 0 14.676 6.115 0 14.676-48.923 26.908-97.845 55.038-145.544 75.83-13.454 6.115-22.015 6.115-22.015-14.677zm77.052-234.827c0-14.676 6.116-20.792 6.116-28.13 29.353-96.622 55.037-200.581 84.39-298.426 3.67-12.23 14.677-20.792 20.793-26.907 6.115 6.115 13.453 14.676 19.568 20.792 29.354 19.569 55.038 64.822 20.792 95.398-6.115 8.562 0 35.469 0 48.922v29.354zm20.792 40.361c0-6.115 6.116-9.784 14.677-19.569 46.476-55.037 89.283-105.183 138.205-160.22 12.231-13.454 33.023-13.454 47.7 0 34.245 41.584 69.714 84.39 103.96 124.752 14.676 14.676 12.23 26.907 0 35.468-14.677 13.454-34.246 34.246-48.923 48.922-41.584 30.577-81.945 58.707-116.19 69.715-20.792 6.115-35.469 6.115-48.922 0-14.677-14.677-29.354-23.238-41.584-29.354-28.13-15.9-42.807-40.36-48.923-69.714zm55.038-698.365h6.115c8.562 0 14.677 3.669 29.354 12.23 55.037 28.13 103.96 63.6 158.997 89.283 9.784 6.116 20.792 14.677 28.13 23.238 12.23 12.231 12.23 20.792-7.338 26.908-11.008 1.223-17.123 1.223-35.469 7.338-75.83 20.792-75.83 20.792-130.867-13.454-7.338-8.561-13.453-8.561-13.453-14.676-14.677-41.584-20.792-84.391-35.47-130.867zm84.39 304.54c-8.56-8.56-2.445-14.676 0-20.791 6.116-22.015 13.454-34.246 25.685-57.484 6.115-12.23 12.23-15.9 20.792-19.569 34.246-12.23 69.714-20.792 103.96-35.468 23.238 0 29.353 8.561 35.468 23.238 7.339 19.569 9.785 37.914 13.454 61.153 2.446 13.453-6.115 28.13-19.569 40.36-20.792 29.354-48.922 57.484-69.714 84.391-20.792 28.13-41.584 28.13-63.599 0-20.792-20.792-33.023-48.922-46.476-75.83zm89.284 194.467c14.677-29.354 6.115-62.376 35.469-90.506 25.684-30.577 40.36-48.923 61.152-69.715 0 0 9.785-12.23 7.339 0v276.411h-7.339l-20.791-20.792c-61.153-61.153-81.945-85.614-75.83-95.398z"/></svg>