<svg xmlns="http://www.w3.org/2000/svg" viewBox="0 0 1000 1000"><path d="M507.997 982.754C277.364 979.094 82.12 835.1 23.547 630.094-44.788 392.14 80.9 146.864 315.193 52.904c286.765-114.706 611.358 58.573 671.152 358.76 53.692 269.682-148.874 540.583-427.097 564.988-17.084 2.441-40.269 2.441-51.251 6.102zM47.953 501.965c0 239.174 202.565 436.859 451.502 436.859 251.376 0 453.942-197.685 453.942-440.52 0-240.394-206.226-440.52-453.942-439.299-248.937 1.22-451.502 198.905-451.502 442.96zm200.125 1.22c0 133.01 112.265 237.954 250.156 237.954 58.574 0 109.825-18.304 154.975-53.692 12.203-9.762 29.287-20.745 40.27-6.101 13.423 19.524-3.661 29.286-13.424 37.828-120.807 95.182-296.527 80.539-401.47-31.727-100.063-107.384-97.622-270.901 4.88-378.285 103.724-109.825 279.444-123.248 396.59-30.507 8.542 7.321 18.305 19.524 18.305 28.066 0 19.524-21.965 24.406-39.05 7.322-47.59-35.388-102.502-56.133-161.076-56.133-139.111 0-250.156 109.825-250.156 245.275zM703.24 394.581c0-23.185 20.744-45.15 43.93-45.15 25.625-2.44 48.81 18.304 45.15 45.15 0 24.405-18.304 41.49-41.49 41.49-26.846 0-47.59-14.644-47.59-41.49zm19.524-3.661c0 19.524 10.983 28.066 24.406 28.066 15.863 0 26.846-13.423 26.846-26.846 0-15.863-10.983-25.625-23.186-25.625-17.083 0-28.066 10.982-28.066 24.405z"/></svg>