<svg xmlns="http://www.w3.org/2000/svg" width="1000" height="1000">
  <path d="M500.496 5C223.572 5 5 229.506 5 500.002c0 276.43 224.506 495.001 495.002 495.001 276.43 0 495.001-224.506 495.001-495.001C995.003 226.539 773.464 5 500.496 5zM212.693 635.991V503.463c16.813 11.868 31.648 23.737 43.517 31.649 79.12 59.34 157.253 118.681 237.363 178.022 7.912 5.934 10.88 10.88 10.88 21.759v133.516c-4.946-2.967-8.902-5.934-14.836-7.912-86.044-68.242-174.067-133.517-265.056-200.77-7.912-5.934-11.868-11.868-11.868-23.736zm0-290.77V211.704c34.615 25.714 62.308 48.462 93.956 71.209C416.43 365.001 527.2 448.078 637.97 531.156c50.44 37.582 101.869 73.187 149.341 110.77 5.934 5.933 8.901 11.867 8.901 17.801v135.495c-16.813-11.868-31.648-22.747-48.461-34.615C592.475 641.925 436.21 527.2 281.924 406.54c-19.78-12.857-37.583-23.737-57.363-38.572-7.912-4.945-11.868-10.879-11.868-22.747zm291.76-73.187V138.517c25.714 19.78 48.46 36.593 71.208 51.429 70.22 54.395 141.43 107.802 211.65 161.209 5.933 1.978 8.9 7.912 8.9 13.846v138.462c-16.813-10.879-31.648-21.758-48.461-33.626-76.154-59.341-155.275-118.682-232.419-176.045-7.912-4.945-10.879-10.879-10.879-21.758z" style="fill:#000;fill-opacity:1;fill-rule:nonzero;stroke:none;"/>
</svg>
