<svg xmlns="http://www.w3.org/2000/svg" viewBox="0 0 1000 1000"><path d="M430.31,518.436a27.228,27.228,0,0,1,0-36.872,23.308,23.308,0,0,1,17.747-7.5q17.748,0,34.425,25.856-16.832,26.013-34.118,26.01A24.281,24.281,0,0,1,430.31,518.436Zm121.48,7.5a24.04,24.04,0,0,0,17.9-7.344,26.248,26.248,0,0,0,7.191-18.666,25.575,25.575,0,0,0-7.344-18.359,23.491,23.491,0,0,0-17.9-7.5q-17.137,0-34.119,25.856Q534.5,525.936,551.79,525.933ZM1000,500c0,276.143-223.858,500-500,500S0,776.143,0,500,223.858,0,500,0,1000,223.858,1000,500ZM866.254,326.752c-13-4.389-26.022-4.651-39.316-4.76-39.881-.327-59.836,30.869-63.962,67.733-.736,6.579,2.949,14.086,5.971,20.518,2.461,5.241,6.981,9.514,10.327,13.876,24.578,12.356,32.016,12.534,56.747,1.56,9.454-13.521,9.454-13.521,7.3-25.807-10.08,4.7-20.095,6.342-31.991-2.068l-7.576-21.935L817.7,361.446c10.38,0,17.369-1.338,23.531.346,7.36,2.011,15.467,5.18,20.626,10.428a44.826,44.826,0,0,1,12.542,28.5c1.55,20.75-6.571,37.3-20.978,52.026l-29.14,9.293c-13.626-3.479-26.381-6.748-39.142-9.989-12.776-3.245-25.559-6.463-36.7-9.279-37.413,9.293-47.358,14.353-56.8,28.416-11.5,17.121-12.15,48.71-.6,60.873l5.723-.266c3.977,9,7.8,18.733,12.5,28.025,6.945,13.717,6.809,26.64-1.9,38.724-14.172,10.659-27.232,11-40.228-1.848-3.685-13.727,3.2-20.794,15.871-24.3a5.223,5.223,0,0,0-.091-1.051c-20.473-8.763-25.76-5.939-35.55,18.991,7.076,24.1,13.447,31.832,31.085,37.739,23.741,7.951,52.563-.6,69.42-20.07,8.4-23.26-6.235-40.206-13.811-58.117-2.074-14.409,1.18-26.964,7.3-39.108,6.3-12.506,18.369-16.967,30.038-21.384,11.618-4.4,23.478-9.99,39.63-5.476l-18.9,8.226a182.844,182.844,0,0,0,54.351,1.953c24.985-2.779,45.2-12.357,59.425-32.66A403.354,403.354,0,0,0,875.7,341.333q-2.835-6.7-5.917-13.311C868.628,327.583,867.455,327.157,866.254,326.752ZM388.083,499.617q0,24.94,15.606,40.7,15.6,15.606,40.238,15.6,31.974,0,56.914-32.741,23.409,32.9,55.845,32.894,24.326,0,39.626-15.758,15.606-15.756,15.605-40.238,0-24.786-15.605-40.392-15.3-15.756-40.085-15.758-33.357,0-56.915,32.588-24.177-32.589-55.385-32.588-24.327,0-40.086,15.758T388.083,499.617Zm20.765-132.879-.042,0c-10.886-.448-22.329-2.96-33.538,3.248-1.615,8.918-.295,17.33,1.677,25.514A162.327,162.327,0,0,1,408.848,366.738ZM641.876,422.89c.013-.061.03-.121.042-.182,4.073-19.553,12.968-35.293,30.615-46.307,10.75-6.71,18.2-17.224,21.11-32.908-28.171,11.869-55.9,18.941-87.243,16.938,1.276-5.09,2-7.99,3.037-12.118a214.937,214.937,0,0,1-38.212,6.771A162.147,162.147,0,0,1,641.876,422.89Zm67.693-119.538c-1.8-4.242-3.456-8.147-4.235-9.982l-33,28.38C689.328,319.685,700.559,314.574,709.569,303.352Zm30.017,46.562c29.873-45.667,69.5-56.558,115.837-49.81q-8.083-14.335-17.3-27.989-2.8-4.147-5.711-8.23a52.259,52.259,0,0,0-5.28-1.415c-9.147-1.909-18.742-1.672-28.367-2.386-.756-15.2.683-29.848-5.245-43.03q-2.6-2.693-5.236-5.342-11.1-11.1-23.057-21.343c9.868,37.3,5.369,70.881-16.837,100.577C750.564,311.736,739.467,329.029,739.586,349.914ZM101.834,411.779c6.135,13.625,12.911,26.489,20.447,37.547,18.167,10.6,39.7,8.307,51.5,27.936-1.659,13.825,4.485,26.641,12.4,39.3,5.56,8.894,8.923,19.137,13.657,28.582,2.552,5.093,4.956,10.989,13.337,9.961q-2.794-32.051-5.608-64.294c8.534,10.385,11.1,21.905,10.744,34.237-.36,12.351-.485,24.7,6.827,35.986l16.551-24.448c7.163-18.045.3-44.067,16.192-65.337,22.167,7.151,25.027-15.83,38.346-25.385l13.1,1.5a23.432,23.432,0,0,0,4.079-3.41c5.364-6.735,10.359-13.771,15.85-20.4,15.407-18.6,26.143-38.492,19.406-64.2l-9.26-8.855-2.438,22.092-1.669-.024c-1.739-10.257-3.478-20.514-5.26-31.027l-9.309-2.329-11.551-19.632-3.553.891v62.759c-4.724-2-7.422-2.545-9.286-4.09-2.482-2.06-4.316-4.9-7.474-8.649,1.344-24.25,2.731-49.29,4.14-74.711L278.847,286.2V255.549c-6.2-8.9-6.947-19.759-17.007-26.347-9.4,9.887-9.809,22.64-13.042,34.223-3.25-11.585-2.384-11.425.733-28.339,2.031-11.017,3.5-21,17.178-24.272.394,9.1,4.973,16.111,12.17,21.814,6.568,5.205,12.676,10.99,19.976,17.387,3.491-6.353,8.859-11.825,9.281-17.654,1.617-22.331,16.67-38.611,24.5-59.98l20.523-5.922v33.255L363.8,220.561l7.374-12.6c4.185.041,4.542,26.9.745,45.956-17.034-5.322-19.98-21.772-28.034-34.424-.976,1.853-2.563,3.5-2.637,5.212-1.552,35.841,3.413,70.116,28.53,97.878,9.757,10.784,23.272,16.441,39.27,19.082-5.773-7.786-10.511-14.021-15.006-20.427-.582-.829.093-2.541.206-4.137,11.163,8.163,21.7,17.026,33.324,24.124a102.562,102.562,0,0,0,15.385,7.7,161.049,161.049,0,0,1,56.967-10.377,130.9,130.9,0,0,1-16.206-12c9.208-.469,14.933-.648,20.64-1.071,20.415-1.513,36.98-11.274,48.869-27.024,16.943-22.445,15.889-52.025-7.255-69.542-20.488-10.29-37.238-8.589-50.074,10.248-4.428,16.836,6.679,25.643,18.24,33.9-.1,13.322-10.171,14.339-16.653,16.535-31.9-1.022-52.376-16.023-62.982-43.156-8.743-22.368-4.9-40.369,10.885-56.907.5,11.272-.494,21.052,1.745,30.025,2.166,8.68,7.663,16.529,11.849,25.053l14.356-31.429c18.029-11.655,35.565-18.685,54.609-14.836,16.811,3.4,35.3,8.166,45.754,22.273,21.732,29.338,33.247,60.974-5.42,107.652,19.315,1.67,31.238-12.976,48.349-21.987.856,2.077,1.829,4.436,2.565,6.22,54.214-7.1,91.846-69.876,68.088-113.414-10.845,13.294-18.4,29.2-33.64,39.74,2.225-24.535,4.32-47.621,6.54-72.1,15,1.882,29.262,4.5,39.6,17.893l25.51-7.119,5.8,4.629c-2.876-8.506-5.653-16.629-8.974-24.077A408.557,408.557,0,0,0,341.333,124.3q-13.566,5.737-26.74,12.481c-10.466,6.288-21.059,12.625-31.931,18.805l.274-.767q-5.466,3.444-10.821,7.054a410.063,410.063,0,0,0-89.329,82c-2.243,39.4-4.429,78.592-6.852,117.761-.147,2.388-2.31,4.651-3.577,7.053l-15.536,4.733c-.982-1.906-2.506-3.522-2.565-5.189-.491-13.96-.336-27.951-1.152-41.887-.53-9.041-2.359-18.006-3.974-29.663l-3.758,2.022a404.918,404.918,0,0,0-36.694,86.394c5.99,15.5,11.9,30.792,17.816,46.086-12.949-8.243-15.182-22.369-21.075-34.309Q103.484,404.29,101.834,411.779Zm2.7,187.9c20.544,14.676,37.983,30.593,59.665,40.323-8.915-10.068-18.869-18.758-28.9-27.362-4.951-4.247-7.674-8.551-1.517-15.038,34.242,24.891,73.248,42.782,91.053,83.189h17.089c15.867-16.894,32.229-34.313,49.349-52.54-1.953-27.549,23.149-29.227,41.371-39.751l18.434,11.214c-1.1,5.176-1.871,8.834-2.842,13.416,14.4,1.456,28.559,4.519,43.385,6.53A161.031,161.031,0,0,1,338.552,500c0-3.343.114-6.66.314-9.953a40.828,40.828,0,0,1-4.546,2.739c-1.96,10.7-3.911,21.354-6.419,35.046l-18.5-22.307L287.245,519.75v30.534l-12.9,17.872c-13.149,1.106-19.223,10.089-24.607,20-6.884,12.673-13.881,25.285-22.466,40.9-16.816-9.9-29.346-20.874-36.956-35.436-11.946-22.861-21.617-46.9-32.49-70.337-3.032-6.536-6.9-12.682-10.12-18.517l-22.076-7.323L118.578,511.1l-14.862-6.211-11.122-20.61Q92.3,492.115,92.3,500A408.117,408.117,0,0,0,104.534,599.682ZM310.326,705.236l-12.35,21.931c1.3,8.787,2.892,19.6,5.181,35.117L322.43,738.5l9.047,7.332c26.544-31.218,33.583-67.776,37.66-106.217-12.24-3.78-20.108,4.311-27.972,8.461l-12.6,21.736-28.839,2.118c-25.527,4.293-34.6,30.828-53.084,45.866L221.4,706.088c2.251,25.2,23.6,22.386,36.959,31.835C274.281,722.983,290.547,712.275,310.326,705.236Zm-69.64,46.289c-9.147,3.947-12.609,10.018-8.359,22.693l16.633-1.577V756.45Zm-76.139-52.871c9.853,1.418,17.776,9.975,29.448,10.725-2.592-9.09-4.7-16.469-6.839-23.98l-68.35-40.411q2.621,6.877,5.494,13.68,5.77,13.641,12.557,26.886l4.185,1.262-1.926,3.083q2.2,4.167,4.495,8.284C151.171,697.956,157.947,697.705,164.547,698.654ZM278.6,784.724l-15.08-2.969-21.027,21.222-16.134-6.484c-11.481-13.105-12.8-27.733-14.708-42.72a182.842,182.842,0,0,0-34.162-4.337,409.475,409.475,0,0,0,76.25,75.512c7.15-1,13.422-4.738,19.167-9.38C281.933,808.275,284.284,798.087,278.6,784.724ZM337.34,834c.685-5.439,1.323-10.509,1.977-15.7l15.3-7.438L377.725,755.8c-2.573-.786-3.965-1.749-4.924-1.425-19.646,6.629-38.054,16.009-53.97,29.139-14.326,11.818-26.608,25.689-33.619,43.655a58.337,58.337,0,0,0-3.925,16.974,408.545,408.545,0,0,0,39.818,22.332c-.425-1.015-.843-2.1-1.253-3.253L331.306,852.9l13.373,7.235c2.472,7,1.775,12.556-2.957,15.723q11.273,4.755,22.756,8.8l4.32-3.91c3.425-30.5,3.105-30.9-23.044-40.772C342.85,838.888,340.507,836.3,337.34,834ZM383.1,661.693c7.863,18.309,7.961,18.367,30.493,17.164l9.584,13.759c14.256-23.1,13.213-37.863-2.839-46.463C403.813,637.3,392.805,641.892,383.1,661.693Zm221.922,119.7c-9.91-26.084-29.859-41.625-54.974-51.465-22.837-8.947-57.5-.7-73.748,25.023-12.353,47.078,3.725,71.953,44.04,64.453L530.8,801.518c-3.249-7.922-5.744-14.008-8.817-21.5l13.861-12.246,18.287,16.59v27.864c-9.787,22.4-25.239,32.123-48.921,32.463-3.469-.7-9.46-1.432-15.165-3.127-13.892-4.127-25.422-11.978-32.772-24.606-11.871-20.4-15.655-42.612-10.027-65.474,11.96-48.587,47.248-75.55,90.929-92.873,14.473-5.74,30.9-6.64,46.478-9.491,23.282-4.26,36.926-20.225,35.83-41.661a161.616,161.616,0,0,1-167.319,47.084c9.622,17.831,6.144,34.553-7.615,50.832-9.014,10.665-17.419,21.864-25.76,33.073-24.3,32.65-36.308,68.35-30.426,109.834,2.707,19.093,8.6,35.511,18.406,48.985a412.906,412.906,0,0,0,178.912,1.244C613.315,863.111,621.21,824,605.023,781.39ZM730.55,806.6c-1.323-38.475-30.776-66.393-66.808-68.3-12.422-.658-24.735-4.324-36.977-7.143-12.875-2.965-20.086-12.572-24.714-23.966-2.464-6.066-2.531-13.069-4.645-19.323-1.99-5.886-5.248-11.344-7.19-15.407-14.484-3.753-25.126-2.435-34.4,7.478-3.1,12.212-3.4,24.378,7.164,36.164,19.219,9.042,38.546,19.973,54.009,37.466,15.977,18.073,21.525,39.852,28.807,62.523,3.5-11.255,6.993-22.51,11.535-37.128.542-.434,3.627-2.994,6.813-5.421,1.579-1.2,3.343-2.164,4.839-3.117,21-1.954,29.784,2.512,33.185,16.717,4.324,18.061-1.93,28.084-24.231,37.914,1.231,15.216,1.511,30.326-3.483,43.556a408.035,408.035,0,0,0,52.992-30.192A116.632,116.632,0,0,0,730.55,806.6ZM858.82,693.757c-7.9,5.6-12.313,9-17,11.939-33.3,20.938-67.4,25.038-102.951,5.281-5.42-3.012-12.109-3.739-17.149-5.212-15.994,15.507-15.78,18.225,1.863,35.221,8.735,1.153,18.544,3.837,28.2,3.364,11.713-.573,23.251-4.13,34.952-5.78,7.211-1.017,14.93-1.862,19.666,8.13-.568,3.053-1.384,7.436-2.141,11.51-8.588,5.262-16.691,9.762-24.3,14.985-16.306,11.2-21.71,23.865-16.945,38.329q13.119-11.09,25.269-23.235a411.022,411.022,0,0,0,49.839-60.4q2.365-3.5,4.653-7.055-.055-.5-.114-1.007c.99-1.183,1.957-2.292,2.9-3.365Q852.554,705.325,858.82,693.757Zm-35.6-176.292c-13.679,1.479-25.953,3.872-37.184,11.547-9.454,12.84-14.594,26.711-10.274,42.821h5.159c.9,14.559,8.662,23.293,24.784,25.142,1.753-3.9,3.252-7.232,4.78-10.632L798.27,576c.589-12.074.589-12.074,9.914-21.389,27.1-6.119,46.412,22.3,34.268,48.434-12.378,26.642-33.773,40.324-60.293,47.135-34.115,8.761-68.4,7.33-101.928-3.756-23.839-7.883-44.507-5.6-61.26,17.644-.253,4.156-.608,9.978-.981,16.113h6.79c.877,5.677,1.779,11.512,2.46,15.914,5.694,6.591,10.448,12.092,15.924,18.428l24.541-5.637c12.674-12.292,10.835-23.167,3.247-34.139l9.72-8.445,63.656,16.66-4.788,5.687c44.306,13.436,76.808,2.5,98.732-36.06,1.384-2.435,1.973-5.323,2.856-7.79H827.666c11.787-13.205,22.748-25.359,33.563-37.642,8.231-9.349,10.664-21.165,12.1-32.849C876.455,548.88,853.392,514.2,823.218,517.465Zm72.65,80.595a45.388,45.388,0,0,1-3.84,3.039c-13.5,9.562-16.439,21.019-11.992,35.968,2.147-2.039,4.191-4.047,6.177-6.017Q891.751,614.745,895.868,598.06Zm7.514-38.333A412.5,412.5,0,0,0,907.7,500c0-.218,0-.435,0-.652a68.132,68.132,0,0,0-17.024,35.425c3.647,7.023,7.821,14.546,11.525,22.294C902.625,557.959,903.015,558.845,903.382,559.727Z"/></svg>