<svg xmlns="http://www.w3.org/2000/svg" viewBox="0 0 1000 1000"><path d="M5 500.002v-.396.396c.099 89.505 22.55 172.682 67.253 249.726C116.462 824.2 175.803 883.54 250.276 927.75c77.143 44.803 160.418 67.253 249.726 67.253 89.308 0 172.583-22.45 249.726-67.253C824.2 883.541 883.54 824.2 927.75 749.728c44.803-77.143 67.253-160.418 67.253-249.726 0-89.308-22.45-172.583-67.253-249.726-44.209-74.473-103.55-133.814-178.022-178.023C672.585 27.45 589.31 5 500.002 5c-89.308 0-172.583 22.45-249.726 67.253-74.473 44.209-133.814 103.55-178.023 178.023C27.55 327.32 5.099 410.496 5 500.002zm80.11-24.231h4.945c3.956 42.527 8.901 87.033 12.857 125.605-3.956 3.956-3.956 3.956-8.9 3.956-24.726-42.528-16.814-87.034-8.902-129.561zm4.945-21.759c3.956-43.516 12.857-78.132 39.56-103.846-18.79 29.67-8.9 73.187-39.56 103.846zm20.77 195.825c18.79 20.77 35.604 42.528 57.362 69.231-26.703 0-52.417-30.66-57.362-69.23zm9.89-87.033c17.802 38.572 47.472 73.187 39.56 121.649-36.593-13.846-57.363-74.176-39.56-121.649zm0-13.846c-30.66-34.616-21.759-107.803 12.857-138.462 4.945 87.033 4.945 113.736-12.857 138.462zm17.802-151.32c-17.802-25.714 15.824-82.088 64.286-108.79-21.758 42.527-34.616 83.076-64.286 108.79zm2.967 134.507c4.945-17.803 8.901-38.572 12.857-60.33h9.89c0 3.956 0 12.857 3.956 15.824 0 17.802 0 36.593 8.901 48.462 12.858 17.802 7.913 38.571 7.913 57.362-3.956 7.913-7.913 16.814-12.858 16.814-7.912 0-17.802-4.945-17.802-8.901-12.857-21.759-20.77-42.528-12.857-69.231zm8.901-83.078c0-16.813-3.956-33.626 3.956-46.483 9.89-22.748 26.704-40.55 40.55-61.32 0 0 3.956 0 7.912-3.955-3.956 34.615-12.857 65.275-17.802 94.945 0 8.901-7.913 16.813-12.858 16.813-3.956 4.945-21.758 0-21.758 0zm21.758 179.012c17.803 38.572 56.374 60.33 61.32 99.89-43.517 11.869-61.32-35.604-61.32-99.89zm22.748-182.968c3.956-3.956 7.912-12.857 7.912-17.802 4.945-16.813 12.857-16.813 25.714-16.813 4.945 16.813 12.857 34.615 17.802 46.484 8.902 14.835-12.857 79.12-25.714 87.033-4.945 0-21.758-2.967-21.758-7.912-13.846-30.66-30.66-60.33-3.956-90.99zm3.956 152.309c0-8.902 0-22.748 3.956-30.66h17.802c7.912 16.813 25.714 34.616 29.67 52.418 8.902 16.813 4.946 38.571 4.946 61.319 0 0-17.803 3.956-21.759 0-25.714-13.846-43.516-52.418-34.615-83.077zm11.868-225.496c-2.967-17.802 4.945-34.615 22.747-48.461 12.857-11.869 25.715-25.715 43.517-42.528 2.967 42.528-4.945 78.132-35.605 107.803-3.956 3.956-12.857 3.956-20.769 8.9-4.945-8.9-9.89-17.802-9.89-25.714zm30.66 172.089c8.9-15.824 13.846-38.572 17.802-56.374 4.945-15.824 7.912-20.77 17.802-15.824 12.857 29.67 20.77 52.417 29.67 77.143 8.901 13.846-3.956 52.418-16.813 61.319-3.956 0-9.89 2.967-12.857 0-21.758 0-43.517-43.517-35.605-66.264zm13.846-102.858c-4.945-13.846-8.902-30.66 0-43.516 3.956-17.803 21.758-35.605 34.615-52.418 0-3.956 7.912-3.956 12.857-7.912 3.956 21.758 7.912 42.527 12.857 60.33 4.946 12.857-20.769 56.373-38.571 56.373-9.89 0-17.802-8.9-21.758-12.857zm16.813 229.452c4.945-12.858 0-26.704 0-38.572 4.945 0 4.945-3.956 4.945-3.956 8.901 3.956 12.857 7.912 20.77 12.857 8.9 16.813 22.747 33.627 30.659 47.473 4.945 3.956 7.912 8.901 7.912 11.868-2.967 9.89-2.967 27.692-7.912 27.692-7.912 2.967-21.759 2.967-30.66 0-25.714-12.857-30.66-30.659-25.714-57.362zm25.714-198.792c0-4.945 0-8.901 4.945-14.835 7.912-11.869 21.759-29.67 33.627-46.484 22.747-7.912 27.692 12.857 40.55 30.66 20.769 30.659 7.911 56.373-4.946 87.033-4.945 7.912-17.802 15.824-30.66 15.824-7.911 0-20.768-7.912-25.714-15.824-8.9-17.803-12.857-34.616-17.802-56.374zm17.802 133.517c8.902-11.869 8.902-25.715 12.858-38.572h25.714c9.89 16.813 22.747 34.616 35.605 52.418 7.912 8.901 3.956 47.473-7.913 55.385-14.835 13.846-30.659 9.89-48.461-7.912-4.945-4.946-8.901-12.858-12.857-16.814-9.89-13.846-17.803-26.703-4.946-44.505zm12.858-273.957c12.857-15.825 30.66-33.627 48.461-50.44h7.912c8.902 34.615 26.704 64.286-2.967 98.901-14.835 12.858-35.604 22.748-48.461 12.858-8.901-12.858-17.803-47.473-4.945-61.32zM384.78 536.1c8.902-21.759 17.803-42.528 22.748-64.286h20.77c13.845 25.714 25.713 52.417 38.57 72.198 4.946 14.835-7.911 53.407-24.725 61.319-13.846 13.846-30.66 7.912-44.505-3.956-20.77-21.759-25.715-38.572-12.858-65.275zm8.902-147.363c3.956-8.902 13.846-21.759 17.802-29.67 3.956-17.803 11.868-27.693 24.725-21.76 14.835 21.76 26.704 38.572 26.704 60.33 3.956 12.858-3.956 29.671-11.869 47.473-14.835 11.869-35.604 11.869-48.461 3.956-20.77-11.868-25.715-38.571-8.901-60.33zm3.956 295.715c9.89-17.802 13.846-34.616 17.802-52.418h16.813c13.846 17.802 26.704 38.572 39.56 56.374 0 8.901 0 21.758-4.944 30.66-7.912 16.813-30.66 20.769-46.484 8.9-22.747-8.9-26.703-27.692-22.747-43.516zm56.373-56.374c0-4.945 0-8.901 4.946-14.835 7.912-15.824 17.802-33.627 30.659-50.44h25.714c7.912 16.813 22.748 38.572 30.66 56.374 7.912 12.857-7.912 47.473-26.704 61.319-11.868 7.912-29.67 7.912-42.527-9.89-9.89-12.858-13.846-26.704-22.748-42.528zm0-156.264c0-4.945 0-8.901 4.946-14.835 7.912-11.869 17.802-29.67 30.659-46.484h25.714c7.912 16.813 22.748 34.615 30.66 46.484 17.802 22.747-17.802 84.066-43.517 84.066-9.89 0-21.758-4.945-25.714-12.857-9.89-17.803-17.802-34.616-22.748-56.374zm12.858-95.935c-7.912-16.813-12.857-34.615 4.945-56.373 8.9-7.913 12.857-26.704 20.77-38.572h17.801c8.901 16.813 22.748 34.615 30.66 50.44 8.9 13.846-2.967 53.406-21.759 61.319-16.813 9.89-38.571 0-52.417-16.814zm66.264 329.342c-4.945-4.945 0-12.857 4.945-16.813 7.912-17.802 19.78-38.572 29.67-56.374h20.77c5.934 17.802 13.846 38.572 18.79 56.374 2.968 8.901 0 21.758-4.944 26.703-13.847 15.824-30.66 24.726-48.462 15.824-7.912-2.967-15.824-15.824-20.77-25.714zm12.857-320.44c3.956-8.902 7.912-12.858 7.912-22.748 3.956-7.912 3.956-16.813 3.956-20.77 21.758-9.89 30.66 0 36.594 17.803 2.967 7.912 12.857 20.77 20.769 29.67 7.912 17.803 7.912 38.572-7.912 56.374-12.857 11.869-30.66 11.869-49.451 3.956-19.78-16.813-24.725-42.527-11.868-64.286zm3.956 143.407c7.912-17.803 13.846-34.616 21.758-56.374h22.748c12.857 29.67 24.725 56.374 33.626 82.088 4.945 8.901-12.857 43.517-30.66 51.429-12.857 13.846-33.626 7.912-43.516-7.912-20.77-22.748-20.77-43.517-3.956-69.231zm60.33-212.639c8.9-8.9 8.9-22.747 12.857-34.615h9.89c12.857 16.813 30.66 34.615 42.528 50.44 13.846 13.846 8.9 48.461-3.956 57.363-12.858 13.846-35.605 8.9-48.462-8.902-12.857-20.769-28.681-38.571-12.857-64.286zm4.945 346.155c-4.945-17.802-12.857-38.571 7.912-56.373 12.857-7.912 17.802-25.715 25.714-38.572h26.704c3.956 16.813 13.846 30.66 17.802 46.484 3.956 5.934 3.956 9.89 3.956 14.835-12.857 15.824-25.714 33.626-43.517 52.418-12.857 11.868-30.66 3.956-38.571-18.792zm0-194.835v-9.89c7.912-11.869 20.77-29.67 30.66-46.484h20.769c12.857 16.813 26.703 34.615 35.604 52.418 3.956 0 3.956 8.9 3.956 8.9-8.901 21.759-12.857 42.528-26.703 64.287-7.912 17.802-30.66 17.802-38.572 0-12.857-21.759-17.802-42.528-25.714-69.231zm60.33 221.539c8.9-13.846 21.758-34.616 34.615-47.473 3.956-8.901 9.89-8.901 17.802-12.857 4.946 25.714 4.946 42.528 7.913 64.286 0 17.802-38.572 43.517-56.374 38.571-12.857-2.967-15.824-25.714-3.956-42.527zm17.802-129.561c0-4.945 0-9.89 3.956-14.835 4.945-15.824 12.857-38.572 22.747-56.374 0-7.912 7.912-11.868 7.912-15.824 4.946 3.956 12.858 7.912 12.858 15.824 9.89 17.802 12.857 40.55 21.758 61.319 8.901 17.802-17.802 61.319-39.56 61.319-2.968 0-12.858-4.945-16.814-8.901-8.901-12.858-8.901-26.704-12.857-42.528zm0-179.012c3.956-12.857 3.956-25.714 3.956-48.461 8.901 9.89 16.813 13.846 22.747 18.791 7.912 11.868 20.77 29.67 30.66 47.473 7.912 12.857 2.967 47.472-9.89 51.428-17.803 13.847-30.66 0-38.572-11.868-12.857-18.791-22.747-34.615-8.901-57.363zm34.615-98.901c25.715 30.66 64.286 47.473 69.231 90.99 0 7.911-4.945 20.769-7.912 25.714-8.9 0-22.747-4.945-26.703-8.901-29.67-26.704-39.56-60.33-34.616-107.803zm16.814 362.968c0-11.868 8.9-20.77 13.846-33.626 7.912-12.857 16.813-30.66 25.714-43.517h16.814c3.956 16.813 13.846 30.66 8.9 46.484 0 18.791-8.9 36.593-20.769 48.461-8.9 8.902-22.747 12.858-35.604 22.748-2.967-13.846-8.901-26.704-8.901-40.55zm17.802-198.792c8.901-7.912 8.901-21.758 8.901-34.615h17.802c11.869 16.813 20.77 34.615 30.66 52.418 7.912 12.857-4.945 69.23-18.791 81.099-8.902 4.945-20.77 4.945-25.715-7.912-12.857-30.66-30.66-56.374-12.857-90.99zm8.901 285.825c0-46.483 48.462-64.285 56.374-102.857 0 69.231-7.912 102.857-56.374 102.857zm29.67-389.671 3.957-3.956c17.802 24.725 34.615 47.472 48.461 73.187 4.945 4.945 4.945 12.857 4.945 16.813-4.945 9.89-8.9 17.802-12.857 26.703-9.89-4.945-17.802-8.9-25.714-16.813-9.89-18.791-18.791-34.615-14.835-57.363 4.945-12.857 0-25.714-3.956-38.571zm0-48.462c38.572 8.901 78.133 74.176 65.275 104.836-30.659-25.715-43.516-66.264-65.274-104.836zm21.759 308.573c-2.967-21.759 0-38.572 0-60.33 4.945-12.857 8.901-22.748 12.857-35.605 0-11.868 0-20.77 3.956-33.626h5.934c3.956 3.956 3.956 7.912 7.912 15.824 4.945 17.802 12.857 40.55 12.857 61.319-4.945 17.802-12.857 39.56-20.769 61.319-9.89 8.9-22.747 2.967-22.747-8.901zm12.857 117.692c22.747-26.703 40.55-52.417 56.374-75.165 0 36.594-25.715 71.21-56.374 75.165zm9.89-34.615c-9.89-48.462 20.77-79.121 38.572-117.693 12.857 56.374-4.945 99.89-38.572 117.693zm24.726-273.957c36.593 34.615 39.56 103.846 13.846 138.462-22.748-43.517-25.715-91.978-13.846-138.462zm0-65.275c30.659 30.66 39.56 65.275 44.505 108.791-35.604-30.659-22.747-78.132-44.505-108.791zm30.659 260.11c5.934-42.527 8.901-87.033 8.901-129.56 17.802 42.527 21.758 87.033 0 129.56z"/></svg>