<svg xmlns="http://www.w3.org/2000/svg" width="1000" height="1000">
  <path d="M19.526 874.39c11.222-5.61 13.466-4.488 24.687-11.22 7.855-4.49 15.71-8.978 21.32-16.832C194.577 625.28 321.377 404.222 449.3 182.04c10.1-13.465 17.954-29.175 24.687-42.64 4.488-12.344 1.122-25.809 5.61-38.152 2.245-12.344 5.61-22.443 14.588-30.298 8.977-4.488 30.297-4.488 38.152 0 8.977 7.855 10.1 17.954 12.343 31.42 4.489 14.587 0 30.297 8.977 41.518 75.183 134.655 152.609 267.065 230.035 401.72L952.01 835.116c4.488 10.1 12.343 20.199 21.32 26.931 37.03 21.32 24.687 62.84-22.443 69.572-5.61-6.733-24.686-20.198-44.884-20.198h-803.44c-17.954 0-24.686 12.343-43.762 20.198-15.71 0-24.687 4.488-40.397-7.855-20.198-17.954-15.71-41.519 1.122-49.373zm63.961-30.297c-23.564 38.152-14.587 51.618 31.42 51.618h787.73c39.274 0 53.861-22.442 32.54-57.228-132.41-228.913-264.82-460.07-397.23-690.105-5.611-8.977-17.954-21.32-25.81-19.076-8.976 0-21.32 10.099-26.93 20.198-31.42 51.618-60.595 105.48-92.014 158.22C289.958 485.013 185.6 665.675 83.487 844.092zm206.47-84.159c75.183-131.288 148.12-258.088 225.547-392.742 76.305 134.654 151.487 260.332 227.791 392.742z" style="fill:#000;fill-opacity:1;fill-rule:nonzero;stroke:none;"/>
</svg>
