<svg xmlns="http://www.w3.org/2000/svg" viewBox="0 0 1000 1000"><path d="M624.272 428.077c18.333 12.692 39.487 12.692 49.36 12.692C800.553 478.846 890.81 610 871.066 738.333 862.605 887.82 744.144 983.718 604.529 995H206.836c-31.025-11.282-60.64-21.154-70.512-36.667-7.052-21.154 0-62.051 9.871-80.385C215.298 787.692 277.35 696.025 346.452 610c11.282-11.282 11.282-29.616 19.743-40.898-19.743-9.871-29.615-19.743-49.359-19.743-129.743-50.77-207.307-180.513-187.564-307.436C146.195 102.308 256.195 5 397.221 5h403.333c21.154 0 62.051 16.923 70.513 36.667 0 21.153-8.462 60.64-29.615 78.974-66.282 100.128-136.795 201.667-217.18 307.436zM256.195 291.282c9.872 77.564 70.513 136.795 141.026 136.795 29.615 0 66.282 0 74.743-9.872 70.513-88.846 142.436-184.744 211.539-286.282-110 0-211.539 0-307.436 9.872-70.513 0-129.743 78.974-119.872 149.487zm60.641 565.513c119.872 0 217.18 9.871 325.77 0 62.05-9.872 111.41-78.975 101.538-160.77 0-66.282-60.641-126.923-129.744-126.923-29.615-9.871-80.384-9.871-90.256 11.282-77.564 87.436-138.205 176.282-207.308 276.41z"/></svg>