<svg xmlns="http://www.w3.org/2000/svg" viewBox="0 0 1000 1000"><path d="M5 500.496c0 271.98 220.55 494.507 495.496 494.507 271.98 0 494.507-220.55 494.507-495.496C995.003 227.528 773.464 5 500.496 5 226.54 5 5 225.55 5 500.496zm116.704 6.923c0-23.736 32.637-50.44 50.44-50.44 25.714 0 50.44 31.649 50.44 50.44 0 24.726-24.726 49.451-50.44 49.451-23.737 0-50.44-31.649-50.44-49.45zm50.44 169.122c0-31.649 19.78-49.451 44.505-49.451 31.649 0 50.44 17.802 50.44 42.528 0 24.725-18.791 50.44-44.506 50.44-30.66 0-50.44-18.792-50.44-43.517zm0-331.32c0-26.703 19.78-45.495 50.44-45.495 25.714 0 44.505 18.792 44.505 45.495 0 22.747-18.791 42.528-50.44 42.528-24.725 0-44.506-19.78-44.506-42.528zm120.66 449.012c0-23.736 24.725-43.516 48.46-37.582 24.726 0 50.44 18.791 45.496 44.505 0 24.726-20.77 43.517-50.44 43.517-26.704 0-43.517-24.725-43.517-50.44zm0-575.606c0-25.714 16.812-49.45 43.516-49.45 23.736 0 50.44 17.802 50.44 43.516 4.945 24.725-20.77 50.44-45.495 50.44-31.649 0-48.462-18.792-48.462-44.506zm24.725 300.66c-7.913-75.165 30.659-131.538 87.033-169.121 62.308-37.583 125.605-31.648 187.912 6.923 11.869 4.945 25.715 13.846 43.517 17.802 18.791 3.956 44.506 0 56.374-17.802 5.934-17.802 5.934-44.506-17.802-62.308-74.176-72.198-118.682-40.55-177.034-70.22-46.484-23.736-55.385-42.527-36.593-92.967 17.802-51.429 161.209-19.78 251.21 55.385 100.879 69.23 156.263 163.187 168.132 281.869 18.79 188.901-98.902 338.243-232.419 395.605-49.45 24.726-98.901 30.66-150.33 30.66-25.714 0-43.516-12.857-49.45-38.572-5.935-24.725 0-36.593 12.857-49.45 10.879-12.858 24.725-12.858 36.593-12.858 25.715 0 39.56-5.934 56.374-10.879 126.594-26.703 227.473-144.396 220.55-275.935 0-44.505-5.934-44.505-44.506-50.44-75.165 0-150.33 0-218.572 5.935-18.79 0-28.681 0-44.505 10.879-12.857 14.835-15.825 22.747-12.857 51.428 5.934 18.792 17.802 31.649 43.516 31.649h120.66c41.538 0 49.45 12.857 22.747 49.45-36.593 63.298-116.703 94.946-192.858 76.155-75.165-19.78-124.615-88.023-130.55-163.188z"/></svg>