<?xml version="1.0" encoding="UTF-8"?><svg id="a" xmlns="http://www.w3.org/2000/svg" viewBox="0 0 1000 1000"><path d="M922.504,933.363c-78.796,42.976-179.076,14.327-222.056-57.303l-200.157-341.94-195.991,341.94c-42.976,78.791-143.26,107.445-222.052,57.303C3.457,890.382-25.197,790.102,24.945,711.306L353.559,137.985c1.867-3.847,4.201-7.406,6.366-11.105l1.683-2.938c.756-1.382,1.806-2.474,2.619-3.808,8.766-14.594,19.753-27.39,32.532-38.416,2.282-2.011,4.608-3.86,6.986-5.727,6.143-4.717,12.613-8.897,19.438-12.709,4.044-2.295,8.001-4.595,12.22-6.51,6.186-2.789,12.722-4.84,19.328-6.868,4.363-1.316,8.552-2.99,13.024-3.917,11.957-2.623,24.321-4.293,37.236-4.293,5.181,0,9.911,1.106,14.908,1.583,.372,.039,.748,.004,1.115,.048,.389,.057,.774,.127,1.163,.192,42.513,4.669,77.882,25.69,102.501,56.267,.061,.07,.127,.127,.188,.197,5.845,6.466,11.022,13.291,15.665,20.535,.813,1.22,1.823,2.182,2.614,3.428l4.787,8.35c.621,1.185,1.403,2.278,1.994,3.48l329.882,575.534c42.976,78.796,14.327,179.075-57.303,222.056Z"/></svg>