<svg xmlns="http://www.w3.org/2000/svg" width="1000" height="1000">
  <path d="M386.08 893.225c34.695-34.697 68.235-69.393 102.931-104.09V995c-34.696-34.696-68.236-69.392-102.932-101.775zM5.576 512.722v-1.156H211.44v1.156c0 1.157-1.156 1.157-1.156 2.313-34.697 33.54-68.236 65.923-101.776 99.463-33.54-34.696-68.236-68.236-102.932-101.776zm0-23.13c34.696-34.697 69.392-68.237 102.932-102.933 33.54 34.696 68.236 68.236 102.932 102.932zM124.7 631.845c35.852-34.696 68.236-68.236 102.932-102.932v205.864h-1.157c-33.54-33.54-65.923-67.08-99.462-101.775-1.157 0-1.157-1.157-2.313-1.157zm0-261.379c34.696-33.54 68.236-68.236 102.932-102.932V473.4zm126.063 363.155V528.914c2.313 1.156 99.462 98.306 101.775 102.932-34.696 33.54-67.079 67.08-101.775 101.776zm0-261.379V267.535c34.696 34.696 67.08 69.393 101.775 101.776-34.696 34.696-67.079 68.236-101.775 102.932zm16.191 300.701c2.313 0 198.926-1.156 204.708 0-33.54 34.697-68.236 68.236-101.775 102.933zm0-21.974v-1.157c33.54-34.696 68.236-67.079 102.933-101.775 33.54 34.696 68.236 68.236 102.932 101.775-1.157 1.157-2.313 1.157-2.313 1.157H271.58zm0-499.626h204.708a4222.322 4222.322 0 0 0-101.775 101.775c-33.54-34.696-68.236-68.236-102.933-101.775zm0-23.131c34.697-34.697 69.393-69.393 102.933-101.776l101.775 101.776zm119.124-120.28C420.775 74.392 453.16 40.852 489.011 5v205.865c-34.696-33.54-68.236-68.236-102.932-102.933zM512.142 995c-1.156-2.313-1.156-201.238 0-204.708 33.54 34.697 68.236 68.236 101.776 102.933-33.54 33.54-68.236 67.08-101.776 101.775zm0-784.135V6.157c2.313 1.156 99.463 99.462 101.776 101.775-33.54 34.697-68.236 69.393-101.776 102.933zm16.192 562.08h204.708c-33.54 34.696-68.236 68.235-101.776 102.932zm0-21.975c34.696-34.696 69.393-68.236 102.932-101.776 32.383 33.54 67.08 67.08 101.776 101.776zm0-499.626h205.865c-34.697 34.696-69.393 67.079-102.933 101.775-33.54-34.696-68.236-68.236-102.932-101.775zm0-23.131c34.696-34.697 69.393-69.393 102.932-101.776l101.776 101.776zm119.124 403.633c34.696-34.696 68.236-69.392 102.932-104.089v207.021c-34.696-34.696-68.236-69.392-102.932-102.932zm0-261.379c34.696-33.54 68.236-68.236 102.932-102.932v204.708c0 1.157 0 1.157-1.156 1.157l-2.314-2.313c-33.54-33.54-65.922-67.08-99.462-100.62zm124.906 363.155V528.914h1.157c1.157 0 1.157 1.156 2.313 1.156 33.54 33.54 67.08 68.236 99.463 100.62-33.54 34.696-68.236 68.236-102.933 102.932zm0-261.379V267.535L874.14 369.311c-32.383 34.696-67.08 68.236-101.776 102.932zm17.349 39.323h1.156c-1.156 1.156-1.156 1.156-1.156 0zm0-21.975c33.54-35.852 68.236-68.236 101.775-102.932 33.54 34.696 68.236 68.236 102.933 102.932zm1.156 21.975h203.552c-34.697 34.696-69.393 68.236-101.776 102.932-34.696-34.696-68.236-68.236-101.776-102.932z" style="fill:#000;fill-opacity:1;fill-rule:nonzero;stroke:none;"/>
</svg>
