<?xml version="1.0" encoding="utf-8"?>
<!-- Generator: Adobe Illustrator 26.0.1, SVG Export Plug-In . SVG Version: 6.00 Build 0)  -->
<svg version="1.1" id="Layer_1" xmlns="http://www.w3.org/2000/svg" xmlns:xlink="http://www.w3.org/1999/xlink" x="0px" y="0px"
	 viewBox="0 0 1000 1000" style="enable-background:new 0 0 1000 1000;" xml:space="preserve">
<style type="text/css">
	.st0{fill:#FFFFFF;}
</style>
<rect class="st0" width="32" height="32"/>
<g>
	<path d="M561,710c-2.5,0.2-4.3,2.5-4,5c1,10.3-6.1,19.9-15.5,21.6h-2.5c-0.2,0-0.3,0.1-0.5,0.1c-0.2,0-0.3,0-0.5,0
		c-5.5,1.2-11.4,0.5-16.9-2.2c-7.3-2.5-12.2-9-12.8-16.5c0.1-1.3,0.1-2.6,0-4c0-0.1-0.1-0.2-0.1-0.4v-5
		c17.2-2.4,30.7-15.4,30.7-24.9c0-10.6-16.4-13.7-36.2-13.7s-36.2,3.6-36.2,14.2c0,10,14.5,23,32.7,24.6v5.4c0,0.2,0.1,0.3,0.1,0.4
		c-0.1,1-0.1,2.1-0.1,3.1c-0.8,7.4-5.7,13.9-13.1,16.8c-4.7,2.3-10,3-15.1,2.2c-0.7-0.4-1.5-0.7-2.3-0.7l-1.5,0.1
		c-10.2-1.9-17.2-11-16.3-21.3c0.2-2.5-1.6-4.7-4.1-4.9c-2.5-0.2-4.7,1.6-4.9,4.1c-1.2,15,9,28.3,24.5,31.1h0.6
		c0.3,0.1,0.5,0.3,0.8,0.4c2.4,0.5,4.9,0.8,7.3,0.8c5.2,0,10.3-1.1,14.7-3.3c5.9-2.3,10.7-6.3,13.9-11.2c3.3,5.1,8.1,9.1,14,11.1
		c6.7,3.3,14.3,4.2,21.5,2.8l3.1-0.1c14.8-2.7,25.2-16.6,23.7-31.6C565.7,711.5,563.4,709.7,561,710z M502.4,685.6
		c-8.5,0-15.4-3.4-15.4-5.8c0-2.4,6.9-2,15.4-2s15.5-0.6,15.5,1.9C517.8,682.2,510.9,685.6,502.4,685.6z"/>
	<path d="M500.5,5C223.6,5,5,229.5,5,499.5C5,773.5,226.5,995,499.5,995C776.4,995,995,770.5,995,499.5C995,223.6,770.5,5,500.5,5z
		 M759.5,705.7l-0.3,0.1c-7.2,85.8-107.2,154.7-260.4,154.6c-143.1-4-243.3-63.4-250.5-149.5c-0.6-8.5-0.3-17,0.5-25.4
		c13.9-2,33.1-2,45.5,0c17.2,2.8,29.7,10.9,41.9,18.7c5.5,3.5,11.2,7,17.1,10.1c-0.2,2.5-0.3,4.9-0.3,7.4v5.2l0.3,5
		c0.5,6.8,1.4,13.5,2.7,20.2c1.3,6.6,3,13.2,5.1,19.7c1.1,2.8,2.2,6,3.4,9.1c1.2,3.1,2.6,6.2,4.3,9.1c-1.3-2.9-2.4-5.9-3.3-9.1
		c-0.9-3.2-1.6-6.4-2.3-9.7c-1.3-6.5-2.3-13.1-2.8-19.7c-0.4-6.5-0.4-13.1,0-19.7v-4.9l0.5-4.9c0.2-1.4,0.4-2.7,0.6-4.1
		c2.5,0.7,5,1.2,7.4,1.2c13.9,0,26.1-10.9,33.5-17.6c27.3-26.8,63.5-42,101.7-42.7c36.5-0.6,67.7,13.3,103.3,45.7
		c8.8,8.9,21,14,33.5,14c0.1,0,0.1,0,0.2,0l2.3-0.3c1.4-0.4,2.7-0.9,4.1-1.4c0.6,4.2,1,8.4,1,12.6c-0.1,6.4-0.4,13-1,19.5
		c-0.6,6.5-1.6,12.9-3,19.3c-0.7,3.3-1.4,6.4-2.4,9.5c-0.9,3.1-2,6.1-3.4,9.1c1.7-2.9,3.2-5.9,4.3-9.1c1.3-2.8,2.3-5.9,3.4-9.1
		c2-6.3,3.7-12.7,5-19.2c1.4-6.5,2.4-13.1,3.2-19.7c0.6-5.3,0.6-10.6,0.3-15.9c6.2-2.9,12.1-6.7,17.2-11.3
		c22-14.6,56.7-22.2,86.6-19.4C759.7,690.7,760,698.2,759.5,705.7z M665.3,650.8c-4.9-5-10.7-9-17-11.8c-6.5-2.8-13.3-4.8-20.3-5.8
		c-2-0.3-4-0.4-6.1-0.5c0.4-2.6,0.7-5.3,0.7-8.1c0-17.4-9-31.9-20.9-35.1l-29,21.7c-1.2,4.3-1.8,8.8-1.8,13.3
		c0,19.7,11.7,35.7,25.9,35.7c4.2,0,8.1-1.5,11.6-4c7.5,6.8,14.7,13.9,21.2,21.7c4,4.8,7.4,9.9,10.4,15.4c1,1.9,1.9,4,2.7,6
		c-0.9,0.3-1.8,0.7-2.7,1c-7.3-0.3-14.4-3.4-19.9-8.9c-39.6-36.1-74.3-51.3-116.1-50.7c-43,0.8-83.5,17.8-113.9,47.6
		c-10,9-18,14.5-24.4,11.9c0.7-2,1.4-4,2.3-5.9c2.6-5.7,6-11,9.9-15.9c6.5-7.9,13.8-15.2,21.5-22c3.4,2.4,7.3,3.8,11.4,3.8
		c14.3,0,25.9-15.9,25.9-35.7c-0.1-4.5-0.8-8.9-2.1-13.1l-28.9-21.9c-11.7,3.3-20.7,17.8-20.7,35.1c0,2.8,0.3,5.6,0.7,8.2
		c-1.8,0.2-3.6,0.3-5.5,0.6c-6.6,1.4-12.9,3.9-18.7,7.2c-3,1.5-5.8,3.2-8.4,5.3c-2.6,2-4.9,4.2-7.1,6.7c-4.2,4.7-7.5,10.2-9.8,16.1
		c4.9-7.6,11.9-13.7,20.1-17.6c2.6-1.2,5.3-2.2,8.2-2.9c5.5-1.3,11.3-1.8,16.9-1.4c1.8,0.1,3.5,0.4,5.2,0.6
		c-6.9,7.6-13.4,15.6-19.2,24.1c-3.9,5.9-7.1,12.3-9.5,19c-0.6,1.6-0.9,3.3-1.4,4.9c-3.5-2-6.9-4.2-10.5-6.5
		c-13.1-8.4-27.9-17.9-48.8-21.3c-12.9-2.1-30.9-2.3-45.9-0.7c4.9-25.5,13.8-50.1,26.1-73l2.6,1.7l1.5,0.8c2.1,0.9,4.1,1.8,6.4,2.9
		l9.3,4.2l5.3-2.1c27.4-10.6,55.9-18.6,84.6-23.7c37.7-6.3,76.2-9.4,114.4-9.4h1.1c39.3,0,78.1,3.2,115.3,9.4
		c28.9,5.2,57.4,13.2,84.8,23.8l5.8,2.2l19.2-11c12,22.7,21.1,46.8,26.7,71.9c-32.6-1.6-69.2,7.3-92.8,23.2l-1.1,0.9
		c-2.7,2.5-5.8,4.7-9,6.6c-0.7-2.1-1.3-4.3-2.1-6.4c-2.7-6.4-6-12.4-9.9-18.1c-5.9-8.7-12.5-16.7-19.5-24.5c2.5-0.4,4.9-0.7,7.4-0.9
		c6.1-0.4,12.2,0,18.1,1.3c6.1,1.3,11.9,3.7,17,7.2c5.4,3.6,10,8.2,13.6,13.6C673.7,661.3,670,655.6,665.3,650.8z M598.5,619.9
		c0,7-4.2,12.8-9.1,12.8c-4.9,0-9.1-5.8-9.1-12.8c0-7.1,4.2-12.9,9.1-12.9C594.4,607.1,598.5,613,598.5,619.9z M409,619.9
		c0-7,4.2-12.9,9.1-12.9c4.9,0,9.1,5.8,9.1,12.9c0,7-4.1,12.8-9.1,12.8S409,626.9,409,619.9z M807.3,453L807.3,453
		c-12.7,18-27.8,34.1-44.9,48c-8.6,7-18,13-28.1,17.7l-5.3,2l-2.8,14.6c3.6,2.2,6.8,4.2,9.3,5.8l1.9,1.3l0.1,2.3
		c0.3,6.1,0.3,10.9,0.3,15.6c0,2,0,4,0,6.1l-30.6,17.6c-27.7-10.5-56.6-18.5-85.9-23.8c-38.3-6.4-78.1-9.6-118.4-9.7h-1.1
		c-39.2,0-78.7,3.3-117.5,9.7c-29.3,5.3-58.3,13.3-86.2,24l-2.5-1.1c-2-0.9-3.9-1.8-5.9-2.7l-22-14.8c0-3,0-5.8-0.1-8.8
		c-0.1-3.6-0.1-7.3-0.1-11.8v-2.5l2.1-1.3c2.8-1.8,5.9-3.8,9.3-5.8l-2.6-13c-0.2,0-0.4,0-0.5-0.1c-3.6-0.9-6.9-2.1-10.1-3.5
		C255.5,514,246,508,237.4,501c-17-13.8-32.1-29.9-44.8-47.9c-51-73.9-35.6-175,35.1-230.3c2.9-2.3,6.5-3.4,10.3-3
		c3.8,0.4,7.1,2.2,9.5,5.1c2.8,3.4,3.8,8,2.8,12.2c-10.2,44.1-5.4,80.9,14.4,109.5c21.3,30.5,64.4,59.1,92.9,62l-0.3-1.9l6.5,2.1
		l1.9,0c10.8-10.9,23.2-19.9,36.9-26.8c19.1-10.1,40.5-15.9,62.1-17.2l2.2-22.1l2.1-1.1c9.8-5.5,21-8.4,32.2-8.5h1.5
		c11.3,0.1,22.5,3,32.4,8.5l2.1,1.1l2.3,22.4c20.3,1.6,40.3,7.3,58.2,17c13.6,6.7,25.9,15.6,36.6,26.4l2.8,0.1c0.2,0,0.5,0,0.7,0
		l5.4-1.7l-0.3,1.4c27.9-3.3,71.6-32.1,92.4-61.9c19.8-28.2,24.6-63.9,14.5-109.2c-1.9-7.4,2.7-15.1,10.3-17c4.4-1.1,9.1,0,12.5,2.9
		C843,278.2,858.3,379.3,807.3,453z"/>
</g>
</svg>
