<svg xmlns="http://www.w3.org/2000/svg" viewBox="0 0 1000 1000"><path d="M504.654 5 63.748 457.54v-1.163L9.07 506.4l17.45 22.104h1.164c58.167 54.677 190.788 133.784 262.915 153.56 65.147 15.124 143.091 24.431 214.055 24.431 58.167 0 110.517 0 168.685-17.45 115.17-29.084 202.421-65.147 297.815-160.541l19.777-20.94zM62.584 506.4l442.07-438.58L935.09 506.4c-86.087 67.474-162.867 117.498-276.875 141.928-55.84 18.613-95.394 18.613-153.561 18.613-247.792 0-315.266-75.617-438.58-158.214zm57.004 15.124h79.107c145.418 0 280.366 36.063 401.353 111.68l13.96 1.164h1.163c62.82-8.144 141.928-38.39 229.179-86.087l19.777-22.104C748.956 471.5 604.7 433.11 494.184 433.11c-98.884 0-204.748 23.267-298.979 67.474zm196.605-39.554c80.27-26.757 350.166 1.163 460.683 51.187-53.514 34.9-102.374 51.187-161.705 55.84-93.067-53.513-190.788-88.413-298.978-107.027zm24.43 349.003 164.031 164.03 208.238-205.91c30.247-26.758 39.554-43.044 63.984-103.538-144.254 115.17-198.931 129.13-392.046 145.418zm97.72 37.227c67.474-9.307 146.582-25.594 210.565-59.33L504.654 938z"/></svg>