<svg xmlns="http://www.w3.org/2000/svg" viewBox="0 0 1000 1000"><path d="M5 500.496c0 271.98 220.55 494.507 495.496 494.507 271.98 0 494.507-220.55 494.507-495.496C995.003 227.528 773.464 5 500.496 5 226.54 5 5 225.55 5 500.496zm138.462 151.32V362.033c0-33.626 8.901-56.374 33.626-76.154 19.78-15.824 26.704-24.725 42.528-34.615 36.594-21.759 77.143-47.473 113.737-67.253 51.428-27.693 96.923-55.385 153.297-81.1 8.901-3.956 23.736-5.934 34.615 0 0 0 38.572 17.803 42.528 19.78 76.154 45.495 153.297 90.99 232.418 138.463 40.55 24.725 61.32 56.373 61.32 103.846 3.955 91.979 3.955 188.902 0 281.87 0 45.494-15.825 77.142-52.418 101.868-15.825 8.9-25.715 15.824-45.495 26.703-67.253 36.594-132.528 77.143-195.825 113.737-2.967 1.978-18.791 10.879-42.528 22.747-10.879 5.934-25.714 1.978-39.56-2.967-10.88-3.956-35.605-15.824-51.429-24.725-56.374-31.649-108.791-63.297-160.22-92.968-24.726-15.824-52.418-31.648-77.143-47.472-31.649-19.78-49.451-51.43-49.451-91.979zm112.748-27.693c0 15.824 13.846 27.692 29.67 27.692 15.824 0 26.703-15.824 26.703-27.692 0-17.802-10.879-28.681-26.703-28.681s-29.67 10.879-29.67 28.68zm15.824-205.715c4.945 47.473 0 88.022 4.945 135.495 0 7.912 0 25.714 8.901 25.714 5.934 0 10.88-13.846 10.88-25.714V414.452c29.67 15.824 56.373 24.725 86.043 40.55-4.945 6.923-8.9 10.879-13.846 15.824-19.78 31.648-40.55 63.297-58.352 92.967-4.945 3.956-5.934 10.88-10.879 15.824 8.901 3.956 9.89 4.945 16.814 9.89 24.725-36.593 45.494-67.253 68.241-98.901 4.946 22.747 4.946 43.517 4.946 68.242 0 8.901-4.946 10.88-11.869 15.824-13.846 7.912-30.66 11.868-55.384 21.759 4.945 8.9 3.956 9.89 5.934 18.79 24.725-8.9 45.494-15.823 70.22-24.725 6.923 8.902 12.857 12.858 26.703 26.704 8.901 6.923 15.824 13.846 24.725 25.714-24.725-2.967-44.505-6.923-65.275-11.868-15.824-3.956-31.648-6.923-42.527-10.88-8.901 0-13.846.99-13.846 6.924-.99 10.88 3.956 15.824 13.846 15.824 15.824 3.956 26.703 3.956 42.527 8.901 33.627 8.901 61.32 15.825 92.968 19.78 8.901 24.726 13.846 45.495 13.846 68.243-13.846-4.945-20.77-11.869-31.648-15.825-41.539-24.725-82.089-47.472-122.638-72.198-15.824-4.945-15.824-4.945-24.726 8.901 4.946 1.978 9.89 4.946 13.847 6.924 47.472 28.681 91.978 56.373 139.45 85.055 25.715 11.868 45.495 6.923 66.265-3.956 31.648-20.77 67.253-40.55 98.901-61.32 8.901-3.955 15.824-10.878 20.77-15.823 0-10.88-4.946-24.726-6.924-35.605.99 0-132.528 14.835-131.539 14.835-13.846 0-21.758-3.956-26.703-7.912-24.725-18.791-45.495-38.571-65.275-59.34-6.923-3.957-6.923-13.847-6.923-19.78V465.88c0-8.901 0-15.825 6.923-24.726 19.78-19.78 40.55-40.55 60.33-58.352 9.89-8.9 20.77-13.846 31.648-13.846 40.55 0 75.165 1.978 110.77 4.945h22.747c8.901 0 15.825 3.956 20.77-8.9 3.956-6.924-6.924-11.869-11.869-15.825-28.681-15.824-56.373-31.649-86.044-52.418-5.934-4.945-15.824-10.879-21.758-10.879-13.846 15.824-13.846 15.824 3.956 26.703 15.824 8.902 31.648 20.77 52.418 31.649 0 0 5.934 4.945 10.879 8.901-40.55-3.956-72.198-3.956-107.803-3.956v-27.692c-15.824-3.957-19.78.989-20.769 11.868-4.945 10.879-8.901 17.802-24.725 19.78-40.55 8.901-84.067 20.77-124.616 29.67-3.956 0-10.88.99-14.835 0-.99-2.967 3.956-4.945 3.956-4.945 42.527-28.681 91.978-51.428 135.495-81.099-1.978-4.945-1.978-6.923-6.923-15.824-2.968-2.967-8.902 1.978-13.847 4.945-42.527 26.703-91.978 56.374-135.495 79.121-19.78 12.857-33.626 28.682-33.626 53.407zm61.319-8.901c0-3.956 3.956-3.956 3.956-3.956 36.593-11.868 72.198-20.77 108.791-22.748-6.923 15.825-31.648 38.572-52.417 51.43-15.825-8.902-39.561-15.825-60.33-24.726zM475.77 272.034c0 17.802 10.879 29.67 21.758 29.67 15.824 0 29.67-12.857 29.67-29.67 0-10.88-8.9-24.726-29.67-22.747-15.824 1.978-21.758 11.868-21.758 22.747zm31.648 399.562c40.55-3.956 81.1-8.902 119.671-10.88 3.956 0 3.956 1.978 3.956 1.978-35.604 24.726-77.143 45.495-112.748 70.22-6.923-20.769-10.879-36.593-10.879-61.318zm155.276-31.649c0 15.824 8.9 27.693 24.725 27.693 15.824 0 29.67-6.924 29.67-24.726 0-15.824-13.846-28.681-29.67-28.681-10.88 0-24.725 12.857-24.725 25.714zm17.802-262.089c0 6.923 6.923 11.869 15.824 11.869 4.945 0 11.868-4.946 11.868-11.869 0-8.9-6.923-15.824-15.824-15.824s-11.868 6.923-11.868 15.824z"/></svg>