<svg xmlns="http://www.w3.org/2000/svg" width="1000" height="1000">
  <path d="M995 820.474v117.077c0 24.647-44.674 63.16-84.727 50.835-58.538-20.026-121.698-20.026-187.938-50.835C485.1 812.77 441.967 879.012 249.407 683.37c-13.864-13.864-26.188-24.647-32.35-38.512-38.512-84.726-97.05-150.967-150.967-220.289-24.648-33.89-36.972-73.943-55.458-103.212-13.864-29.269 0-47.755 18.486-58.538 26.188-21.567 50.836-40.053 77.024-58.538 44.674-26.189 98.591-52.377 143.265-84.727 50.836-33.89 103.212-58.538 167.912-72.403 40.053-12.323 78.565-20.026 118.618-33.89 32.35-10.783 63.16 0 83.186 33.89 33.89 32.35 63.16 64.7 92.428 97.05 36.972 60.08 77.024 110.915 113.996 169.454C888.707 416.868 974.974 671.047 995 820.474zM39.902 301.332c283.448-7.703 417.47-43.134 455.982-93.97L599.096 68.72c16.946-23.107-127.86 106.293-211.046 135.563z" style="fill:#000;fill-opacity:1;fill-rule:nonzero;stroke:none;"/>
</svg>
