<svg xmlns="http://www.w3.org/2000/svg" width="1000" height="1000">
  <path d="M500.496 5c272.968 0 494.507 221.54 494.507 495.002 0 270.495-218.572 495.001-495.001 495.001C229.506 995.003 5 776.431 5 500.002 5 229.506 223.572 5 500.496 5zM66.32 478.738c3.956 6.923 3.956 10.879 8.901 15.824 3.956 0 14.835 5.934 19.78 5.934s16.814 4.945 24.726 4.945c-13.847 10.88-24.726 14.835-33.627 19.78-15.824 15.825-15.824 15.825-10.879 30.66 14.835-3.956 30.66-18.791 44.506-26.703 20.769-11.869 36.593-18.792 55.384-18.792-2.967 18.792-2.967 41.539-8.9 62.308 0 9.89-2.968 13.846-14.836 13.846-8.901 0-21.758-3.956-31.648-3.956-7.912 0-19.78 0-29.67 3.956-14.836 5.934-14.836 5.934-3.957 19.78h19.78c19.78 0 23.737 16.814 13.847 32.638-2.967 9.89-7.912 14.835-7.912 16.813-11.869 8.902-11.869 21.759 4.945 30.66 16.813-28.682 50.44-66.264 86.044-89.011 9.89-4.946 19.78-4.946 31.648 3.956 15.825 11.868 30.66 15.824 43.517 24.725 5.934 5.934 13.846 12.857 20.77 17.802-6.924 0-11.869 4.945-14.836 4.945-23.736 6.923-49.45 15.825-81.1 22.748-19.78 8.9-39.56 20.769-60.329 39.56-16.813 12.857-16.813 12.857 0 26.704 20.77-9.89 32.637-20.77 49.45-26.704 14.836-2.967 27.693-2.967 30.66 5.934 5.934 10.88-2.967 20.77-19.78 31.649-5.934 3.956-19.78 3.956-27.693 8.9-2.967 5.935-8.9 10.88-11.868 15.825l8.901 5.934c34.616-10.879 34.616-10.879 34.616 25.715-3.956 13.846 0 19.78 15.824 24.725 3.956-2.967 9.89-28.682 20.77-66.264 14.835-52.418 55.384-83.077 126.593-83.077 18.792 0 39.56 11.868 50.44 30.66 4.945 12.856 8.901 26.703 8.901 37.582 10.88 65.275.99 121.648-34.615 170.11 43.516 21.758 176.044 21.758 213.627 0-12.857-21.758-22.748-37.582-33.627-59.34-12.857-50.44-12.857-106.814 0-157.254 10.88-46.484 42.528-58.352 87.033-48.462 78.133 17.803 120.66 88.023 100.88 171.1 0 4.945-5.934 14.835-5.934 24.725 25.714-13.846 37.582-30.66 37.582-56.374 0-13.846-6.923-35.604 8.902-44.505 15.824 3.956 24.725 14.835 30.659 24.725 21.758-20.77 21.758-24.725 5.934-40.55-11.868-4.945-14.835-8.9-27.692-21.758 15.824-13.846 37.582-8.9 52.417-2.967 15.825 2.967 18.792 0 18.792-15.824-11.868-11.868-27.693-14.835-55.385-14.835-61.319-18.792-134.506-45.495-75.165-45.495 34.615 0 66.264-14.835 96.923-39.56 20.77-16.814 40.55-15.825 61.32-5.935 2.966 5.934 9.89 5.934 9.89 5.934 19.78-19.78-9.89-30.659-15.825-46.483 7.912 0 25.714-10.88 25.714-25.715-2.967 0-9.89-3.956-16.813 0-17.802 4.946-33.626 17.803-54.396 25.715-20.769 7.912-31.648 9.89-40.55-16.813-6.922-12.858-6.922-28.682 5.935-39.561 2.967-10.88 24.725-14.835 39.56-10.88 6.924 6.924 9.89 6.924 15.825 10.88h33.626c21.758 0 21.758-3.956 16.813-23.736h-16.813c-31.648 0-22.747-25.715 6.923-51.43 0-3.955 6.923-13.845 0-20.768 0 0-9.89-2.967-15.824-2.967-8.901 9.89-24.725 19.78-33.626 29.67-21.759 23.736-46.484 32.637-74.177 45.495h-24.725c9.89-33.627 14.835-55.385 21.758-85.056 39.561-5.934 80.11-11.868 116.704-37.582-5.934-8.901-9.89-13.846-14.835-18.791-15.824 4.945-31.649 9.89-40.55 13.846 3.956-18.791 8.901-31.649 15.825-45.495 8.9-18.791 2.967-18.791-11.869-35.604-3.956 8.9-9.89 16.813-9.89 21.758-15.824 45.495-52.418 72.198-96.923 75.165-18.791 5.934-28.682-2.967-24.726-24.725 5.935-15.825 11.869-31.649 12.858-50.44 11.868-21.758 26.703-32.638 53.406-32.638 13.847 6.924 29.67-3.956 39.561-13.846 5.934-5.934 5.934-11.868-5.934-15.824-15.824 9.89-24.725 20.77-49.45 9.89 3.955-9.89 15.823-19.78 18.79-32.637 5.935-11.868 0-15.825-9.89-19.78-14.835 24.725-34.615 42.527-47.472 68.241-15.825 23.737-32.638 32.638-67.253 45.495-10.88 3.956-14.836 7.912-24.726 9.89-17.802 0-23.736 0-20.769-14.835 2.967-16.813 5.934-29.67 10.88-40.55 13.845-43.516 39.56-68.242 90-64.286 15.824 0 39.56-10.879 39.56-26.703-10.88-8.901-27.692 17.802-49.45 0 5.933-3.956 5.933-8.901 5.933-8.901 3.956-10.88 9.89-14.835 0-21.758-.989 0-11.868 0-21.758 10.879-13.846 15.824-24.725 10.879-33.626-10.88-3.956-14.835-8.902-27.692-16.814-32.637l-7.912 29.67c-5.934 20.77-1.978 47.473-5.934 60.33-10.879 24.726-26.703 48.462-42.527 75.166h-2.967c-24.726-22.748-23.737-64.286 0-105.825 8.9-19.78 18.79-35.604 28.68-50.44 5.935-4.945 5.935-16.813 5.935-22.747-25.714 0-18.791 27.692-34.615 27.692-27.693-4.945-17.803-42.527-52.418-42.527 8.9 20.77 15.824 37.582 24.725 52.418 5.934 15.824 5.934 19.78 0 30.659-8.901 22.747-15.824 35.604-15.824 56.374-3.956 17.802-12.857 27.692-38.572 33.626V206.76c0-12.857 4.945-28.682 4.945-49.45V74.23c0-14.835-4.945-14.835-23.736-14.835v42.527c0 3.956-8.901 15.825-15.824 18.792-4.945 0-14.835-8.901-20.77-14.836-6.923-10.879-6.923-18.79-8.9-34.615 0 0-7.913-5.934-10.88-5.934l-5.934 5.934c-3.956 2.967-3.956 8.901-3.956 16.813 0 23.737 12.857 43.517 35.605 59.341 21.758 9.89 24.725 30.66 21.758 51.429-11.868 38.571-17.802 84.066-21.758 125.605l-5.934 4.945c-25.715-31.649-40.55-63.297-49.451-91.979-6.923-26.703-10.88-43.516-20.77-69.23v-30.66c3.957-9.89 9.89-25.714 9.89-35.605 0-9.89 3.957-27.692-9.89-27.692-14.835 0-9.89 17.802-9.89 27.692-4.945 18.792-16.813 29.67-36.593 18.792-8.901-1.978-21.758-2.967-25.715-8.901-13.846-5.935-25.714 0-34.615 15.824 17.802 0 61.319 25.714 84.066 54.396 12.857 11.868 16.813 20.769 12.857 34.615 0 20.77-4.945 25.714-21.758 20.77-14.835-4.946-30.66-10.88-45.495-16.814-20.769-3.956-33.626-17.802-38.571-38.571l-15.824-30.66s-9.89 0-14.836-3.956v17.802c0 2.967 0 2.967 4.945 8.901 0 3.956 5.935 14.836 0 19.78-4.945 4.946-14.835 4.946-23.736 4.946h-16.813c-14.835-4.945-27.693 3.956-30.66 17.802 10.88 0 19.78 3.956 24.726 3.956 37.582 5.934 68.242 16.813 101.868 21.758 3.956 3.956 13.846 10.88 13.846 14.836 3.957 30.66 3.957 67.253 9.89 96.923-14.835 0-23.736-2.967-38.571-10.88-34.615-8.9-64.286-29.67-81.1-64.285-10.878-12.857-19.78-25.714-30.659-32.638-15.824-13.846-20.769-8.9-25.714 10.88 19.78 8.9 28.681 35.604 41.539 62.308-24.726 9.89-52.418-5.935-71.21-15.825-4.944 2.967-10.879 15.825-16.813 20.77 29.67 26.703 56.374 26.703 88.023 26.703 8.9-7.912 14.835-7.912 24.725-7.912 15.824 7.912 30.66 16.813 52.418 25.714-62.308 21.759-118.682 24.726-170.11-8.9-15.825 20.768-15.825 20.768 0 30.659 4.944 2.967 10.878 9.89 16.813 15.824-5.935 13.846-16.814 13.846-25.715 20.77-10.879 0-15.824 4.944-15.824 11.867 0 8.901 15.824 8.901 19.78 8.901 15.824-3.956 26.704-8.9 39.56-15.824 21.76-11.868 45.495-17.802 77.144-21.758 5.934 0 15.824 3.956 15.824 9.89 15.824 8.901 26.704 23.736 37.583 37.583C202.803 474.782 151.374 485.66 95 474.782H79.176c-3.956 0-8.901 0-12.857 3.956zm130.55 88.022c-4.945-37.582 15.824-66.264 46.483-72.198 30.66-8.901 59.341-15.824 89.012-8.901 25.714 3.956 46.483 8.901 56.374 39.56-13.847 3.957-26.704 3.957-35.605 3.957-50.44-3.957-99.89 7.912-146.374 32.637-3.956 4.945-3.956 4.945-9.89 4.945zm46.483-156.264c21.759-9.89 34.616-16.813 48.462-26.704 10.88 0 15.824 0 20.77 6.924 29.67 19.78 45.494 38.571 62.307 75.165-16.813-7.912-25.714-12.858-36.593-17.803h-25.715c-34.615 9.89-47.472-18.79-69.23-37.582zm9.89 166.154c54.396-14.835 104.836-14.835 156.265 15.824-14.835 21.759-30.66 30.66-56.374 30.66-36.593-8.901-69.231-21.758-99.89-46.484zm79.122-314.506c42.527 16.813 66.264 41.538 88.022 72.198 31.648 40.55 50.44 86.044 62.308 135.495 0 8.9 2.967 24.725 0 40.55-6.923 18.79-21.758 18.79-30.66 9.89-13.846-9.89-16.813-19.78-16.813-30.66-14.835-41.539-36.593-69.231-60.33-98.901-4.945 0-12.857-6.924-12.857-9.89-19.78-37.583-23.736-77.144-29.67-118.682zm169.121 62.308c0-36.594 13.846-62.308 47.473-82.089 25.714 50.44 12.857 148.353-29.67 172.089-21.759-23.736-17.803-54.396-17.803-90zm69.231 145.385c-8.9-69.231 40.55-131.54 122.638-156.265 3.956 37.583-8.901 67.253-35.605 87.034-30.659 19.78-56.373 43.516-87.033 69.23zm3.956 112.747c0-26.703 10.88-57.363 26.704-82.088 36.593-56.374 91.978-93.956 155.275-116.704 0 0 9.89-2.967 5.934 6.924-5.934 36.593-21.758 62.307-44.506 84.066-8.9 3.956-15.824 10.879-24.725 10.879-24.725 19.78-45.495 39.56-51.429 70.22 0 5.934-3.956 10.88-3.956 16.813-20.77 3.956-42.527 9.89-63.297 9.89zm102.858 0c0-57.363 37.582-88.022 85.055-72.198 9.89 5.934 15.824 9.89 19.78 14.835 11.868 15.825 20.77 36.594 29.67 51.43-44.505 29.67-88.022 15.823-134.505 5.933z" style="fill:#000;fill-opacity:1;fill-rule:nonzero;stroke:none;"/>
</svg>
