<svg xmlns="http://www.w3.org/2000/svg" viewBox="0 0 1000 1000"><path d="M500.496 5C223.572 5 5 229.506 5 500.002c0 276.43 224.506 495.001 495.002 495.001 276.43 0 495.001-224.506 495.001-495.001C995.003 226.539 773.464 5 500.496 5zM165.22 594.452C116.76 426.32 205.77 253.243 371.924 185.99c203.737-80.11 432.2 41.538 473.738 254.176 38.572 190.88-104.835 381.76-301.65 399.562-12.856 1.978-28.68 1.978-36.593 3.956-163.187-1.978-300.66-103.846-342.199-249.231zm16.814-90.989c0 170.11 143.407 309.562 320.44 309.562 177.034 0 320.44-139.451 320.44-311.54 0-170.11-145.384-311.54-320.44-310.55-177.033 0-320.44 140.44-320.44 312.528zm141.429.99c1.978 93.956 80.11 169.12 177.033 169.12 41.539 0 78.132-13.846 109.78-38.57 8.902-6.924 20.77-14.836 28.682-3.957 9.89 13.846-1.978 20.77-9.89 26.703-85.055 67.253-209.671 57.363-283.847-22.747-69.231-77.143-68.242-191.869 3.956-267.034 73.187-78.132 197.803-88.022 279.891-21.758 6.923 4.945 12.857 13.846 12.857 19.78 0 13.846-14.835 16.813-27.692 4.945-33.627-24.725-72.198-39.56-113.737-39.56-97.912 0-177.033 78.132-177.033 173.077zm322.418-76.155c0-16.813 14.835-31.648 31.649-31.648 16.813-1.978 33.626 12.857 31.648 31.648 0 16.813-13.846 29.67-29.67 29.67-18.792 0-33.627-10.879-33.627-29.67zm13.846-2.967c0 13.846 7.913 19.78 17.803 19.78 10.879 0 17.802-8.9 17.802-18.79 0-10.88-6.923-17.803-15.824-17.803-11.868 0-19.78 7.912-19.78 16.813z"/></svg>