<svg xmlns="http://www.w3.org/2000/svg" width="1000" height="1000">
  <path d="M653.142 518.77c3.26 3.953 6.916 10.177 10.868 18.773 7.904 15.117 12.844 30.332 14.82 45.449 1.976 21.045-1.284 40.509-9.88 58.293-22.428 42.782-61.554 64.222-117.575 64.222H321.167V397.244h241.077c2.667 0 5.137.79 7.41 2.47 2.272 1.68 3.754 4.15 4.446 7.41 1.976 5.928.988 10.869-2.964 14.82-5.237 5.237-27.368 24.405-66.198 57.306l-22.724 19.76 92.874 87.934c.692 2.668.198 5.237-1.482 7.904-1.68 2.668-3.755 4.644-6.422 5.928-2.668 1.285-6.916 1.976-12.845 1.976H419.97V421.945h-53.353v234.16H554.34c27.665 0 49.105-10.176 64.222-30.628 6.62-9.189 9.88-21.44 9.88-36.557 0-16.5-4.94-29.344-14.82-38.533l-51.377-49.4c26.38-23.022 41.793-36.854 46.437-41.498 9.188-8.595 15.314-19.068 18.278-31.616 2.964-12.548 2.47-24.7-1.482-36.557-4.644-13.832-12.647-25.195-24.207-34.087-11.56-8.892-24.502-13.338-39.026-13.338H423.92V294.49h147.215c17.093 0 33.296 4.94 48.413 14.82 10.572 6.62 20.057 14.82 28.652 24.7 9.88 11.165 17.488 23.713 22.725 37.546 4.644 11.856 6.916 22.032 6.916 30.628 0 17.093-3.656 35.273-10.868 54.341-5.237 13.833-9.88 23.416-13.832 28.653l-12.845 16.796zM5 499.999c0-89.613 22.428-172.903 67.185-249.969C116.35 175.631 175.631 116.35 250.03 72.185 327.095 27.428 410.385 5 500 5c89.613 0 172.903 22.428 249.969 67.185C824.366 116.35 883.647 175.631 927.81 250.03c44.758 77.066 67.186 160.356 67.186 249.97 0 89.613-22.428 172.903-67.186 249.969-44.164 74.397-103.445 133.679-177.843 177.843-77.066 44.758-160.356 67.186-249.97 67.186-89.613 0-172.903-22.428-249.969-67.186-74.398-44.164-133.68-103.446-177.844-177.843C27.428 672.902 5 589.612 5 499.998zM266.825 758.86h284.55c28.95 0 55.33-4.94 79.042-14.82 37.545-15.117 66.197-41.201 85.958-78.054 19.069-36.853 22.033-77.066 8.892-120.539-4.644-15.116-11.165-29.937-19.76-44.46 17.784-32.902 26.676-65.902 26.676-98.803 0-16.5-3.952-33.79-11.856-51.87-7.904-18.082-18.08-35.076-30.629-50.884-16.5-19.069-34.778-33.593-54.835-43.473-20.057-9.88-41.3-14.82-63.727-14.82H369.58V343.89H266.825z" style="fill:#000;fill-opacity:1;fill-rule:nonzero;stroke:none;"/>
</svg>
