<svg xmlns="http://www.w3.org/2000/svg" viewBox="0 0 1000 1000"><path d="M5 500.496c0 89.011 22.747 172.089 67.253 249.232 44.506 74.176 103.846 133.517 178.023 178.022 77.143 44.506 160.22 67.253 250.22 67.253 89.011 0 172.089-22.747 249.232-67.253 74.176-44.505 133.517-103.846 178.022-178.022 44.506-77.143 67.253-160.22 67.253-250.22 0-89.012-22.747-172.09-67.253-249.232-44.505-74.177-103.846-133.517-178.022-178.023C672.585 27.747 589.508 5 500.496 5c-90 0-173.077 22.747-250.22 67.253-74.177 44.506-133.517 103.846-178.023 178.023C27.747 327.419 5 410.496 5 500.496zm102.857 24.726C99.945 269.067 297.748 85.11 547.97 110.825c204.726 21.758 343.188 215.605 343.188 387.693 0 190.88-108.792 355.056-318.463 392.639-75.165 11.868-148.352 5.934-214.616-20.77-157.253-68.241-250.22-210.66-250.22-345.165zm101.869-26.704c0 161.21 123.627 296.704 290.77 296.704 171.1 1.978 288.792-137.473 291.76-290.77 0-170.11-128.572-292.748-289.782-292.748-159.231-1.978-292.748 128.572-292.748 286.814zm107.803-40.55c1.978-23.736 1.978-48.461 1.978-75.165 0-16.813 0-16.813 18.79-16.813h325.387c18.79 0 20.769 0 20.769 21.759 0 25.714-1.978 46.483 0 70.22 0 13.846-3.956 18.79-17.802 18.79-33.627-1.977-63.297 0-96.924-1.977-13.846 0-17.802 4.945-15.824 17.802v210.66c0 18.791-1.978 21.758-21.758 21.758h-72.198c-13.847 0-15.825-6.923-15.825-19.78V496.54c0-19.78-2.967-19.78-21.758-19.78-29.67 0-56.374-1.978-86.044 0-10.88 0-18.791-4.945-18.791-18.791z"/></svg>