<svg xmlns="http://www.w3.org/2000/svg" viewBox="0 0 1000 1000"><path d="M5 500.496c0 271.98 220.55 494.507 495.496 494.507 271.98 0 494.507-220.55 494.507-495.496C995.003 227.528 773.464 5 500.496 5 226.54 5 5 225.55 5 500.496zm82.088 31.649v-78.133c0-2.967.99-4.945 3.956-6.923l240.33-94.945c.99-.989 1.979-.989 3.957-1.978v84.066c0 3.956-.99 5.934-4.945 6.923l-151.32 50.44c-.988 0-1.978.989-4.945 1.978 12.858 3.956 24.726 7.912 36.594 11.868 39.56 13.846 79.121 26.704 119.67 40.55 3.957.989 4.946 2.967 4.946 6.923v84.066c-1.978-.989-3.956-.989-4.945-1.978-79.121-31.648-158.243-63.297-238.353-94.945-3.956-.99-4.945-2.967-4.945-7.912zM356.1 732.915c5.934-10.88 10.88-21.759 15.824-32.638 45.495-93.956 90-187.913 135.495-282.858L575.661 275c.99-2.967 2.967-4.945 6.923-4.945 22.748.989 44.506.989 67.253.989h4.945c-.989 1.978-.989 3.956-1.978 4.945l-130.55 272.968c-28.68 59.34-57.362 119.67-86.044 179.011-.989 3.956-2.967 4.946-6.923 4.946h-66.264zm327.364-95.935v-84.066c0-3.956.989-5.934 4.945-6.923 49.45-16.813 99.89-33.627 150.33-49.45 1.978-.99 2.967-1.979 5.934-2.968-13.846-3.956-26.703-8.901-39.56-12.857C766.54 467.859 726.98 455 688.409 442.144c-3.956-1.978-4.945-2.967-4.945-7.912v-83.077c1.978 0 3.956.989 5.934 1.978 79.121 30.66 158.242 62.308 236.374 93.956 4.945 1.978 5.934 3.956 5.934 7.912v78.133c0 3.956-.989 5.934-4.945 6.923-79.12 31.648-158.242 63.297-237.363 93.956z"/></svg>