<svg xmlns="http://www.w3.org/2000/svg" width="1000" height="1000">
  <path d="M500.496 5c272.968 0 494.507 221.54 494.507 495.002 0 270.495-218.572 495.001-495.001 495.001C229.506 995.003 5 776.431 5 500.002 5 229.506 223.572 5 500.496 5zM116.76 515.331c-.99 36.594 4.945 69.231 15.824 103.847 0 2.967 6.923 3.956 8.901 3.956 3.956 0 5.934-.99 8.901-3.956 25.714-19.78 36.594-48.462 46.484-76.154 2.967-1.978-.99-8.901-2.967-10.88-23.737-5.933-50.44-12.857-74.176-21.758-2.967 2.967-2.967 4.945-2.967 4.945zm4.945-72.198c0 5.934 0 10.88 7.912 12.858 33.626 6.923 64.286 13.846 95.934 21.758 8.901 1.978 15.824-1.978 19.78-7.912 2.968-6.923 4.946-10.88 5.935-15.825 15.824-45.494 33.626-89.01 48.461-134.505 2.967-3.957 2.967-5.935 5.934-12.858 0 12.858 0 21.759 2.967 32.638 0 2.967 1.978 5.934 3.956 5.934 15.825 0 12.858 10.88 15.825 22.747 1.978 7.912 1.978 16.813 3.956 25.715 8.9 18.79 8.9 39.56 1.978 60.33-5.934 10.879-10.88 21.758-16.813 32.637-6.924 15.824-6.924 15.824 7.912 19.78 50.44 12.857 98.901 23.737 148.352 36.594 3.956 1.978 7.912 3.956 14.835 6.923-3.956 4.945-8.901 10.879-10.88 14.835 3.957 5.934 1.979 5.934 0 21.758-3.955 21.759-27.692 32.638-50.439 25.715-49.45-16.813-98.901-31.649-149.341-47.473-16.813-6.923-16.813-3.956-27.692 8.901-15.825 17.802-32.638 36.594-53.407 49.45-13.846 13.847-33.627 19.781-53.407 30.66 8.901 17.803 19.78 36.594 29.67 54.396C225.55 777.42 290.825 827.86 375.88 850.607c61.32 17.802 123.627 17.802 183.957 4.945 74.176-14.835 141.43-43.516 198.792-97.912 86.044-84.066 131.539-186.924 127.583-309.562-2.967-48.461-19.78-91.978-44.506-132.528-1.978-6.923-5.934-6.923-9.89-1.978-10.88 7.913-23.736 14.836-34.616 18.792-30.659 10.879-59.34 15.824-90 10.879-9.89 0-14.835 4.945-18.791 12.857-8.901 25.714-19.78 54.396-30.66 80.11-7.912 24.726-18.79 46.484-28.681 70.22-7.912 19.78-30.66 32.638-51.429 19.78-10.879-6.923-21.758-12.857-32.637-19.78 12.857-26.703 23.736-52.418 37.582-78.132 9.89-23.736 18.792-47.473 31.649-72.198 1.978-5.934 0-10.88-7.912-12.857-8.901-.99-15.825-3.956-23.737-5.934-22.747-4.945-41.538-12.857-52.417-30.66-11.869-12.857-17.803-25.714-30.66-36.593-1.978-2.967-1.978-6.923-4.945-10.88 4.945 0 9.89 0 10.88 1.979h4.944c1.978 0 1.978-1.978 1.978-1.978-10.879-12.858-23.736-25.715-34.615-37.583 8.901 1.978 19.78 6.923 29.67 11.868 41.539 12.857 83.077 27.693 124.616 40.55 7.912 3.956 17.802 1.978 20.77-8.901 13.846-25.715 26.703-51.429 39.56-78.132 1.978-5.934 1.978-10.88-3.956-12.858-38.572-20.769-80.11-36.593-123.627-41.538-90.99-9.89-176.044 8.901-252.199 59.34-58.351 38.572-112.747 82.089-147.363 145.386-19.78 31.648-35.604 67.253-43.516 105.824zM245.33 702.255c12.858 3.956 23.737 10.88 36.594 14.835 48.462 14.835 100.88 14.835 150.33 8.901 92.968-12.857 180-46.483 254.177-103.846 60.33-46.484 105.824-105.825 118.682-180.99 2.967-1.978 2.967-4.945 4.945-7.912 1.978 5.934 3.956 7.912 5.934 12.857 28.681 84.067 9.89 153.298-56.374 214.616-45.495 42.528-99.89 71.21-158.242 92.968-76.154 26.703-151.32 41.538-230.44 41.538-10.88 0-21.759-1.978-29.671-14.835 5.934 0 12.857 0 16.813-2.967h17.802v-1.978c-4.945-1.978-5.934-4.945-8.9-4.945-19.781 2.967-36.594-2.967-54.397-13.846-23.736-15.824-48.461-33.627-67.253-54.396zm165.166 78.132c14.835-4.945 34.615 9.89 47.473-4.945-7.913-5.934-41.54-4.945-47.473 4.945zm290.77-93.956c0 2.967 2.967 3.956 2.967 3.956 9.89-5.934 20.77-13.846 31.649-21.758l-3.956-3.956c-11.869 6.923-19.78 14.835-30.66 21.758zm15.824-414.397c-4.945 8.901 0 15.824 7.912 16.813 19.78 4.945 39.561 6.923 59.341 11.868 10.88-2.967 20.77-2.967 29.67-6.923 8.902-2.967 11.869-5.934 4.946-12.857l-65.275-65.275c-6.923-4.945-10.88-4.945-12.857 4.945-6.923 15.824-15.825 33.627-23.737 51.429z" style="fill:#000;fill-opacity:1;fill-rule:nonzero;stroke:none;"/>
</svg>
