<svg xmlns="http://www.w3.org/2000/svg" width="1000" height="1000">
  <path d="M500.002 995.003c276.43 0 495.001-224.506 495.001-495.001C995.003 226.539 773.464 5 500.496 5 223.572 5 5 229.506 5 500.002c0 276.43 224.506 495.001 495.002 495.001zM99.945 503.463c0-221.539 179.012-400.55 400.551-400.55 221.54 0 401.54 179.011 401.54 400.55 0 221.54-180 401.54-401.54 401.54-221.539 0-400.55-180-400.55-401.54zm208.682 231.43h90.99V549.947h201.759v184.946h91.978v-461.87h-91.978v184.946h-201.76V273.023h-90.989z" style="fill:#000;fill-opacity:1;fill-rule:nonzero;stroke:none;"/>
</svg>
