<svg xmlns="http://www.w3.org/2000/svg" viewBox="0 0 1000 1000"><path d="M20.105 378.595c31.735 31.735 55.536 60.825 87.27 85.948 71.404 66.115 170.575 97.85 263.135 121.65 103.138 30.413 206.276 55.536 309.414 85.949 35.702 11.9 72.726 29.09 109.75 54.213 55.536 38.347 60.825 85.949 23.8 141.485-22.478 40.99-78.014 79.337-133.55 96.526-219.499 74.048-450.898 0-579.16-182.475C14.816 665.531-11.63 537.27 14.816 395.785c0-5.29 5.289-10.579 5.289-17.19zm148.096-190.409c0-34.379 17.19-60.825 42.313-83.304 48.924-48.924 103.138-74.047 170.574-85.948 158.674-29.09 298.836-6.611 427.098 96.527 146.773 121.65 208.92 280.324 179.83 476.022 0 11.9-3.967 15.867-9.256 31.734-55.536-92.56-125.617-126.939-226.11-171.896-115.039-51.57-214.21-87.271-322.637-115.039-48.925-19.834-148.096-31.735-195.698-55.536-43.635-31.735-66.114-43.635-66.114-92.56z"/></svg>