<?xml version="1.0" encoding="UTF-8"?><svg id="a" xmlns="http://www.w3.org/2000/svg" viewBox="0 0 1000 1000"><path d="M926.548,801.646c-57.514,81.15-140.821,134.689-235.221,159.141-1.747,.811-3.49,1.627-5.248,2.42v-1.07c-141.5,35.04-306.805,5.617-446.7-93.352C3.724,702.141-70.637,402.023,73.538,198.467,217.712-5.089,525.052-35.315,760.707,131.328c2.942,2.14,5.885,4.28,8.827,6.42-3.991-2.693-8.015-5.29-12.053-7.843-146.908-92.892-324.096-93.817-448.257-11.593-33.473,22.167-63.104,50.355-87.232,84.435-117.693,166.376-59.917,409.787,129.73,544.065,80.792,57.204,172.309,85.21,259.874,85.656,117.981,.6,228.787-48.851,296.495-144.502,2.648-3.735,5.208-7.509,7.679-11.319,10.901-16.81,20.018-34.352,27.523-52.407,3.602-8.667,6.818-17.453,9.653-26.345,1.143-3.586,2.228-7.186,3.248-10.803,7.756-27.516,11.981-55.909,12.751-84.628,.133-4.962,.19-9.932,.12-14.91-1.004-70.973-22.618-143.238-62.683-208.17l.005,.008-.005-.008c1.187,2.083,3.823,6.877,7.228,14.065l.025,.054c3.4,7.182,7.562,16.743,11.808,28.371,.029,.081,.059,.166,.088,.247,2.525,6.93,5.079,14.586,7.518,22.908,.649,2.216,1.288,4.492,1.918,6.8,.567,2.077,1.129,4.177,1.677,6.327,.615,2.412,1.211,4.882,1.797,7.383,.516,2.208,1.025,4.438,1.514,6.714,.074,.346,.145,.701,.218,1.049,.615,2.904,1.211,5.853,1.775,8.862,.01,.054,.019,.108,.029,.162,.935,5.003,1.795,10.148,2.558,15.429,.368,2.542,.705,5.127,1.027,7.731,.354,2.863,.687,5.753,.98,8.689,.288,2.882,.535,5.809,.759,8.759,.648,8.525,1.032,17.316,1.07,26.366,.022,5.153-.08,10.395-.287,15.704-.201,5.148-.502,10.358-.939,15.642-.017,.201-.039,.405-.056,.605-.308,3.64-.679,7.314-1.106,11.015-.147,1.273-.306,2.552-.468,3.832-.618,4.886-1.346,9.822-2.188,14.806-.311,1.843-.64,3.692-.983,5.547-.535,2.885-1.106,5.784-1.72,8.699-.288,1.366-.585,2.736-.891,4.109-.87,3.901-1.797,7.821-2.817,11.77-1.003,3.882-2.098,7.791-3.252,11.716-1.602,5.448-3.335,10.932-5.245,16.458-55.637,161.026-241.271,197.671-241.271,197.671,0,0-1.035,1.045-2.906,2.873,65.386-71.428,105.085-165.031,105.085-262.333,0-205.831-176.375-374.537-400.198-390.146,.906,.051,1.797,.097,2.716,.153,0,0,156.138-82.729,376.962,19.998,63.238,43.26,115.541,99.117,152.567,163.451,99.45,160.314,108.255,355.223,5.174,500.778Z"/></svg>