<svg xmlns="http://www.w3.org/2000/svg" viewBox="0 0 1000 1000"><path d="M5 500.496c0 271.98 220.55 494.507 495.496 494.507 271.98 0 494.507-220.55 494.507-495.496C995.003 227.528 773.464 5 500.496 5 226.54 5 5 225.55 5 500.496zm231.43-96.923c-40.55-58.352-18.792-137.473 43.516-173.078 61.319-29.67 135.495-3.956 164.176 61.32 11.869 23.735 11.869 53.406 4.945 84.065-13.846 49.451-28.681 92.968-37.582 137.473-2.967 10.88-6.923 15.825 0 26.704 27.692 44.505 58.352 88.022 92.967 137.473 35.605-49.451 70.22-92.968 98.902-137.473 3.956-4.945 3.956-12.857 0-26.704-14.836-48.461-28.682-97.912-39.56-142.418-13.847-55.385 10.878-109.78 56.373-140.44 48.462-22.747 107.802-13.846 141.429 25.715 40.55 40.55 45.495 97.912 17.802 147.363-31.648 39.56-61.319 80.11-91.978 123.627-7.912 12.857-9.89 26.703-4.945 35.604 20.77 65.275 40.55 131.539 56.374 198.792 3.956 16.813 8.9 30.66-15.825 35.604-28.681 3.956-40.55 0-45.494-18.79-13.846-56.375-29.67-105.825-48.462-159.232-3.956 5.934-84.066 115.715-105.824 147.363-13.847 20.77-19.78 20.77-34.616 0-55.385-79.121-91.978-132.528-106.814-147.363-17.802 48.462-31.648 98.901-45.494 147.363-4.945 25.714-11.868 29.67-39.56 30.66-25.715 0-30.66-9.89-25.715-35.605 20.77-62.308 39.56-133.517 53.407-198.792 6.923-19.78 0-27.692-4.945-40.55-27.693-38.571-57.363-79.12-83.078-118.681zm55.384-39.56c18.791 30.659 39.56 61.318 63.297 95.934 8.901-39.561 21.758-74.177 30.66-110.77 4.945-24.725-3.957-47.473-26.704-57.363-17.802-11.868-43.517-4.945-62.308 9.89-16.813 18.792-20.77 38.572-4.945 62.308zm332.309-14.836c9.89 36.593 18.791 71.209 30.66 110.77 22.747-34.616 48.461-65.275 68.241-95.935 9.89-18.791 9.89-43.516-9.89-62.308-13.846-17.802-39.56-21.758-58.352-9.89-20.769 9.89-34.615 32.638-30.659 57.363z"/></svg>