<svg xmlns="http://www.w3.org/2000/svg" viewBox="0 0 1000 1000"><path d="M500.496 5c272.968 0 494.507 221.54 494.507 495.002 0 270.495-218.572 495.001-495.001 495.001C229.506 995.003 5 776.431 5 500.002 5 229.506 223.572 5 500.496 5zM302.693 510.386c0 24.726.99 48.462 4.945 71.21 4.945 21.758 9.89 42.527 18.792 61.318 9.89 19.78 18.79 37.583 31.648 53.407 7.912 11.868 18.791 21.758 28.682 30.66l-23.737 87.033c-.989 4.945 0 9.89 2.967 15.824 1.978 4.945 6.923 6.923 12.857 8.901.99 0 2.967.99 4.945.99 10.88 0 16.814-4.946 19.78-15.825l19.781-73.187c9.89 4.945 19.78 8.9 31.649 11.868h.989c.989 0 2.967.989 4.945.989l-15.825 56.374c-1.978 5.934-1.978 11.868.99 15.824 3.955 4.945 7.911 7.912 12.857 9.89h4.945c10.879 0 15.824-4.945 19.78-14.835l16.813-62.308c5.934 0 12.857 1.978 19.78 1.978 30.66 0 57.363-6.923 80.11-17.802 23.737-9.89 43.517-25.715 59.341-43.517 14.836-17.802 24.726-35.604 32.638-55.385 7.912-17.802 10.88-35.604 10.88-51.428 0-12.858-3.957-23.737-11.87-30.66-9.89-8.901-16.812-12.857-26.702-12.857-13.847 0-23.737 3.956-28.682 10.88-6.923 7.911-9.89 19.78-13.846 33.626-8.901 28.681-23.736 47.472-41.539 63.297-15.824 13.846-36.593 20.769-60.33 21.758l84.067-310.55c3.956 8.9 8.9 17.802 14.835 27.692 7.912 13.846 12.857 24.725 18.791 31.648 5.934 5.934 14.835 8.901 26.704 8.901 9.89 0 17.802-4.945 25.714-12.857 8.901-8.901 10.88-19.78 10.88-31.648 0-19.78-7.913-43.517-21.76-66.264-12.856-21.759-30.659-37.583-51.428-52.418l17.802-66.264c0-4.945 0-9.89-1.978-14.835-2.967-4.945-7.912-8.901-12.857-8.901-3.956-.99-8.901-.99-10.88 0-3.955.989-5.933 1.978-8.9 4.945-2.967 2.967-3.956 4.945-4.945 8.9l-14.836 56.375c-12.857-4.945-24.725-8.901-38.571-9.89l11.868-42.528c1.978-5.934 0-11.868-1.978-16.813-2.967-3.956-6.923-7.912-11.868-8.901-5.934-.99-10.88 0-15.824 2.967-4.945 1.978-9.89 5.934-9.89 12.857l-13.847 48.462c-27.692 0-54.395 6.923-79.12 17.802-26.704 11.868-49.452 30.66-69.232 52.418-19.78 23.736-34.615 49.45-45.494 82.088-9.89 31.648-14.836 67.253-14.836 108.791zm92.968 4.945c0-58.351 8.9-104.835 33.626-135.495 17.802-22.747 37.583-39.56 60.33-44.505l-75.165 285.825c-1.978-1.978-3.956-4.945-3.956-6.923-9.89-27.693-14.835-60.33-14.835-98.902zm49.45 149.342 87.034-333.298c14.835 1.978 27.692 5.934 37.582 13.846l-89.011 338.243c-10.88-2.967-21.758-7.912-29.67-13.846-2.968-1.978-3.957-2.967-5.935-4.945z"/></svg>