<svg xmlns="http://www.w3.org/2000/svg" viewBox="0 0 1000 1000"><path d="M500.496 5C223.572 5 5 229.506 5 500.002c0 276.43 224.506 495.001 495.002 495.001 276.43 0 495.001-224.506 495.001-495.001C995.003 226.539 773.464 5 500.496 5zM161.264 634.013c1.978-87.033 0-171.1 0-259.122 0-44.505 14.835-74.176 50.44-95.934 84.066-53.407 167.143-100.88 254.177-150.33 30.66-16.813 61.319-12.857 92.967 0 66.264 40.55 135.495 80.11 200.77 119.67 17.802 7.913 39.56 21.759 57.363 30.66 31.648 21.758 44.505 51.429 44.505 91.978v271.98c0 48.46-17.802 82.087-57.362 104.835-78.133 44.505-157.254 86.044-231.43 130.55-40.55 22.747-80.11 22.747-120.66 4.945-73.187-44.506-152.308-87.034-227.473-135.495-44.505-22.748-63.297-61.32-63.297-113.737zm37.583 3.956c0 30.66 12.857 57.363 39.56 70.22 79.122 48.462 158.243 92.967 236.375 135.495 25.714 16.813 52.418 12.857 79.12 0 76.155-47.473 153.298-91.978 228.463-135.495 25.715-12.857 34.616-34.615 34.616-61.319V374.891c4.945-30.66-8.901-53.406-39.56-70.22-74.177-42.527-147.364-87.033-223.518-131.539-26.703-12.857-53.407-17.802-79.121 0-74.176 44.506-153.297 89.012-231.43 131.54-26.703 16.813-44.505 43.516-44.505 73.186zm75.165-39.56V414.452c0-26.703 12.857-48.462 38.571-66.264 48.462-26.703 96.924-52.418 143.408-82.088 36.593-21.759 67.252-26.704 102.857 0 48.462 29.67 100.88 55.385 153.297 86.044 21.759 13.846 34.616 35.605 34.616 62.308V607.31c0 21.758-7.912 43.516-29.67 52.417-57.364 35.605-118.682 70.22-180.99 104.836-16.814 9.89-35.605 9.89-53.407 0-56.374-34.616-112.748-64.286-170.11-99.89-25.715-13.847-38.572-35.605-38.572-66.264zm33.626-3.957c0 21.759 9.89 39.561 31.649 52.418 48.462 26.704 94.945 53.407 143.407 83.077 17.802 7.913 36.593 7.913 53.407 0 54.395-29.67 106.813-61.318 158.242-91.978 12.857-8.901 17.802-21.758 17.802-39.56V418.408c0-17.802-4.945-30.66-17.802-40.55-56.374-29.67-108.792-60.33-167.143-89.01-7.913-9.891-26.704-9.891-34.616 0-53.407 28.68-109.78 59.34-166.154 89.01-13.847 9.89-18.792 18.792-18.792 36.594v92.967c0 30.66 4.945 57.363 0 87.034zm80.11-87.033v-22.747c3.957-33.627 8.902-53.407 38.572-66.264 21.758-13.846 39.56-21.758 56.374-35.605 17.802-7.912 36.593-7.912 53.407 0 22.747 13.847 49.45 25.715 71.209 39.561 22.747 12.857 26.703 26.703 26.703 49.45v44.506c0 65.275-22.747 74.176-61.319 99.89-45.494 30.66-80.11 26.704-124.616-4.944-42.527-26.704-58.351-43.517-60.33-103.847zm26.704-4.945c-1.978 45.495 0 62.308 37.582 82.088 45.495 30.66 66.264 31.649 115.715 5.934 35.605-18.79 39.56-39.56 43.517-69.23 5.934-53.407-16.813-80.11-61.32-106.814-56.373-23.736-57.362-6.923-88.021 7.912-40.55 25.714-44.506 41.539-47.473 80.11z"/></svg>