<svg xmlns="http://www.w3.org/2000/svg" viewBox="0 0 1000 1000"><path d="M411.841,32h14.776c1.4.921.222,1.689-.216,2.386Q412.141,57.1,397.834,79.792c-.452.717-.852,1.466-1.276,2.2,3.316-1.329,6.287-3.005,9.324-4.549,42.511-21.625,87.72-33.591,135.139-37.426a359.5,359.5,0,0,1,73.948,1.777,383.073,383.073,0,0,1,85.738,21.124c43.261,16.043,82.687,38.952,119.38,66.745,2.329,1.764,4.62,3.578,7.158,5.547-13.861-1.267-27.319-2.628-40.8-3.69-13.457-1.061-26.938-1.823-40.409-2.715a1.412,1.412,0,0,0,.848,1.116,354.456,354.456,0,0,1,59.4,33.685c66.623,46.147,117.2,105.621,149.037,180.473,21.441,50.417,31.716,103.255,33.333,157.891.067,2.279.309,4.553.469,6.829v18.225c-.12.8-.307,1.6-.349,2.4-.572,11.059-1.1,22.121-1.7,33.179-.154,2.856-.526,5.7-.857,9.175l-31.711-38.74a5.428,5.428,0,0,0-.267,2.754c.592,6.12,1.414,12.228,1.745,18.363a325.154,325.154,0,0,1-5.456,78.362c-10.209,53.769-31.853,102.633-63.59,147.107-25.747,36.08-56.737,67.1-91.506,94.442-2.686,2.113-5.423,4.162-7.893,6.054l12.428-66.381-.868-.251c-.327.438-.676.862-.979,1.316-26.075,39.036-59.113,71.026-98.347,96.628a305.681,305.681,0,0,1-112.4,45.183c-4.169.771-8.33,1.586-12.5,2.381h-1.97c.765-.74,1.515-1.5,2.3-2.217A421.6,421.6,0,0,0,615.7,914.136c.374-.456.664-.98,1.38-2.051A190.663,190.663,0,0,1,581.657,928.4c-26.251,9.208-53.355,14.06-81.068,15.918-32.446,2.176-64.605-.235-96.572-5.768a502.426,502.426,0,0,1-59.267-14.115c-6.726-2.027-13.41-4.194-20.113-6.3a3.288,3.288,0,0,1,2.17-.192c8.994,1.364,17.948,3.132,26.989,4.016a260.962,260.962,0,0,0,80.059-4.212c57.233-12.159,105.755-39.473,142.758-85.082,45.439-56.006,60.633-119.789,44.094-190.239-10.923-46.526-36.047-84.741-71.959-116-4.125-3.591-8.462-6.94-12.808-10.489-.833,1.057-1.444,1.818-2.041,2.591q-17.622,22.787-35.242,45.575c-7.534,9.741-14.914,19.582-20.534,30.61-5.217,10.236-8.091,20.964-6.523,32.523a74.956,74.956,0,0,1-1,26.167c-3.66,16.9-12.493,30.538-25.5,41.87-16.086,14.018-31.761,28.5-47.689,42.706a48.763,48.763,0,0,1-7.943,5.767c-10.689,6.194-22.445,8.011-34.59,7.858-4.508-.056-9.018-.383-13.517-.71-7.7-.56-14.645,1.2-20.619,6.274-3.062,2.605-6.059,5.313-9.317,7.652a26.775,26.775,0,0,1-7.486,3.993c-7.692,2.369-15.6,1.734-23.44.782-18.8-2.283-36.885-7.534-54.891-13.194A26.969,26.969,0,0,1,211.4,746.045a82.069,82.069,0,0,1-4.815-7.135c-11.761-20.5-19.414-42.574-25.321-65.359a29.95,29.95,0,0,1,1.437-19.912c1.761-4.148,3.316-8.4,5.34-12.416,7.454-14.787,15.163-29.447,22.558-44.263,2.144-4.3,4.321-8.816,5.166-13.473,2.281-12.576,3.97-25.266,5.679-37.94,2.5-18.528,4.842-37.078,7.2-55.626q3.144-24.771,6.171-49.559c.877-7.089,1.707-14.17.447-21.32-1.523-8.642-5.291-16.347-9.8-23.723a44.827,44.827,0,0,1-6.742-25.526c.352-10.252,2.66-20.136,5.364-29.944.58-2.1.158-3.136-1.661-4.326-6.247-4.086-12.448-8.256-18.484-12.645q-91.078-66.235-182.064-132.6C15.694,185.766,9.948,180.659,4,175.828v-2.956c3.259-2.037,6.655-1.856,10.128-.65,18.5,6.421,37.048,12.7,55.493,19.279q63.681,22.7,127.284,45.617c.712.255,1.448.444,2.565.782-8.639-27.217-11.037-54.393-4.729-81.958a145.694,145.694,0,0,1,39.527-71.606c6.374,23.735,12.9,46.871,21.727,69.387.418-.278.6-.332.646-.441.378-1,.735-2,1.09-3,7.073-20.014,16.572-38.745,29.784-55.44,28.465-35.967,66.067-55.471,111.158-61.353C403.052,32.915,407.451,32.492,411.841,32ZM267.587,458.841l-.663.221c-.132.8-.295,1.594-.391,2.4-2.032,17.019-3.934,34.054-6.114,51.054-2.785,21.714-5.925,43.383-8.659,65.1-1.779,14.132-5.2,27.669-12.26,40.169-2.78,4.923-5.279,10.006-7.832,15.054-5.032,9.946-9.975,19.937-15.036,29.868a10.861,10.861,0,0,0-.667,8.96c3.839,11.15,7.3,22.438,11.444,33.471,2.5,6.646,5.978,12.923,9.051,19.35a7.245,7.245,0,0,0,5.1,4.165q16.8,4.2,33.533,8.685a21.422,21.422,0,0,0,17.867-3.038,110.558,110.558,0,0,0,13.375-10.344c7.745-6.968,15.36-14.1,22.724-21.468,7.049-7.053,12.652-15.224,14.918-25.083,1.555-6.769,2.371-13.721,3.267-20.624,1.286-9.919,2.231-19.882,3.53-29.8q2.131-16.262,17.72-21.833a56.2,56.2,0,0,1,22.7-3.441c2.877.185,5.739.618,8.608.938l-.058.63c-7.954.665-15.747,2.01-23.085,5.337,3.146.217,6.277-.018,9.363.257,14.924,1.33,23.8,10.755,25.379,25.652a14.412,14.412,0,0,1-2.972,10.916,89.418,89.418,0,0,1-9.961,10.1c-3.818,3.341-8.22,6.02-12,9.4-18.045,16.1-34.3,33.927-49.766,52.484-.605.725-1.142,1.506-1.749,2.312,10.26,0,20.247.129,30.229-.046a20.84,20.84,0,0,0,16.419-7.651,50.112,50.112,0,0,1,4.994-4.745q20.93-19.076,41.886-38.12a37.771,37.771,0,0,0,9.23-12.616c5.674-12.582,7.108-25.319,1.413-38.328-7.571-17.293-20-30-36.524-38.895a33.721,33.721,0,0,0-23.017-3.725c-9.551,1.781-19.261,2.712-29.025,6.753,1.048-1.507,1.655-2.445,2.325-3.334,8.948-11.883,20.7-19.713,34.861-24.022a4.287,4.287,0,0,0,3.223-2.9c5.293-14.824,10.488-29.689,16.106-44.39q10.44-27.322,21.534-54.393c4.552-11.08,5.042-11.318,16.512-14.8q13.985-4.251,28.155-7.876c5.082-1.3,8.2-3.928,10.29-8.938,11.076-26.547,22.458-52.967,33.864-79.375a9.37,9.37,0,0,0,.224-7.724q-16.287-40.612-32.553-81.234a8.684,8.684,0,0,0-.68-1.122c-25.5,17.666-53.541,25.061-84.331,21.609a12.7,12.7,0,0,1,2.743-1.7c4.065-2.121,8.3-3.985,12.158-6.429,17.173-10.867,30.625-25.557,42.887-41.578,13.7-17.9,19.625-38.151,19.471-60.394-.134-19.406-4.231-38.068-11.1-56.16-.531-1.4-1.159-2.756-1.873-4.441-.812,1.179-1.371,1.979-1.917,2.786-8.639,12.778-17.23,25.588-25.923,38.328-24.371,35.721-48.8,71.405-75.247,105.641-5.608,7.26-11.869,14.018-17.9,20.947-2.877,3.306-6.6,4-10.761,3.056-6.764-1.533-11.264-6.089-15.246-11.347-.524-.692-1.02-1.4-1.716-2.364-.41.945-.691,1.513-.907,2.1-10.811,29.635-21.688,59.245-32.38,88.922-3.276,9.094-6.339,18.313-6.955,28.077-1.218,19.313,3.39,37.206,13.1,53.909a108.777,108.777,0,0,1,7.131,14.548c6.409,16.186,7.272,32.549.388,48.852-1.719,4.068-4.021,7.89-6.055,11.825C289.292,488.477,277.889,473.908,267.587,458.841Zm172.7,96.047c.371-.679.967-1.749,1.544-2.829,10.517-19.7,21.57-39.08,34-57.642,6.486-9.684,13.144-19.248,21.414-27.565a12.11,12.11,0,0,1,9.838-3.962,147.234,147.234,0,0,0,37.728-2.41c31.447-6.537,55.021-23.5,69.32-52.565a129.353,129.353,0,0,0,13.252-54.581c.718-30.09-7.344-57.872-22.723-83.627-.478-.8-.929-1.616-1.468-2.557.5,0,.68-.053.8.008.95.482,1.9.966,2.83,1.485a125.606,125.606,0,0,1,29.135,22.89c26.839,27.838,42.034,61.431,48.809,99.175a15.322,15.322,0,0,0,2.543,6.451,327.229,327.229,0,0,1,42.37,72.994A305.927,305.927,0,0,1,751.45,552.1c.678,5.667,2.623,10.191,6.58,14.058.7.687,1.337,1.445,2,2.173,4.144,4.548,8.388,9.009,12.4,13.67a19.972,19.972,0,0,1,4.926,14.012,404.77,404.77,0,0,1-4.308,51.461,17.477,17.477,0,0,1-7.961,12.635c-2.713,1.832-5.609,3.391-8.386,5.131q-6.042,3.786-12.025,7.663c-2.021,1.3-3.008,3.241-3.794,5.518-3.93,11.376-7.439,22.949-12.187,33.983-21.056,48.947-53.256,89.395-94.767,122.588-.62.5-1.2,1.035-1.807,1.554a2.647,2.647,0,0,0,1.84-.3c6.266-3.4,12.6-6.691,18.773-10.256a329.6,329.6,0,0,0,103.389-93C793.438,681.432,814.6,623.86,819.1,560.324a327.334,327.334,0,0,0-4.227-79.938c-6.534-37.256-18.719-72.564-37.667-105.27-46.941-81.024-115.354-134.533-206-159.1a335.661,335.661,0,0,0-44.911-8.575,4.68,4.68,0,0,0-5.212,2.39c-4.322,6.476-8.982,12.731-13.644,18.973a3.475,3.475,0,0,0-.621,3.924c6.226,15.521,12.435,31.049,18.5,46.634q11.9,30.584,23.491,61.282a9.615,9.615,0,0,1,.179,6.148c-4.989,13.783-10.205,27.485-15.486,41.16a4.075,4.075,0,0,1-2.8,2.145q-11.614,1.242-23.272,2.041a3.393,3.393,0,0,0-3.417,2.389c-4.617,10.95-9.551,21.77-13.94,32.809A16.68,16.68,0,0,1,478.427,437.9c-10.625,3.07-21.194,6.339-31.861,9.254-4.809,1.314-8.251,3.7-9.724,8.608-.4,1.323-1.189,2.521-1.688,3.82q-17.634,45.89-35.234,91.792a12.593,12.593,0,0,0-.386,1.434c6.771-.242,13.478-.931,20.133-.594C426.414,552.558,433.109,553.914,440.283,554.888ZM688.758,412.852l-.415.265c.277,5.733.656,11.462.814,17.2a395.159,395.159,0,0,1-6.965,84.717,8.725,8.725,0,0,0,1.008,6.282,221.589,221.589,0,0,1,26.577,89.93,249.277,249.277,0,0,1-3.476,66.193c-10.562,56.214-35.221,105.483-73.377,148.041-.561.626-1.1,1.276-1.643,1.914a2.79,2.79,0,0,0,1.634-.7c49.08-39.674,83.117-89.55,101.336-150.029,1.874-6.219,5.212-10.617,10.694-13.673,2.077-1.158,4.215-2.214,6.251-3.439,4.214-2.534,8.479-5,12.5-7.817a7.037,7.037,0,0,0,2.563-4.194c2.621-15.3,3.649-30.764,4.734-46.242.611-8.723-2.3-15.1-8.785-20.359a29.918,29.918,0,0,1-2.73-2.487c-3.181-3.313-6.435-6.566-9.454-10.023a20.2,20.2,0,0,1-5.256-10.666c-.754-5.69-1.456-11.392-2.4-17.051a296.518,296.518,0,0,0-45.5-116.206C694.254,420.565,691.465,416.736,688.758,412.852ZM128.769,239.294l-.263.449c.453.332.893.686,1.362.993,36.724,24.026,74.009,47.14,112.191,68.782a79.228,79.228,0,0,0,12.072,5.388c3.075,1.115,6.17.687,8.49-2.117a16.837,16.837,0,0,0,.909-19.548,21.931,21.931,0,0,0-10.823-8.116Q203.89,266.941,155.1,248.68C146.367,245.431,137.548,242.416,128.769,239.294ZM358.59,672.328c2.057-2.174,3.734-3.906,5.367-5.679,7.233-7.853,14.684-15.429,24.051-20.849a18.4,18.4,0,0,0,4.925-4.378c4.645-5.767,3.232-13.307-3.105-17.114a23.86,23.86,0,0,0-13.455-3.089c-4.552.158-7.669,2.5-9.018,6.708a73.6,73.6,0,0,0-2.806,11.9c-1.036,7.2-1.46,14.5-2.581,21.687C361.427,664.989,359.884,668.3,358.59,672.328Z"/><path d="M410.166,293.3c-5.615,16.209-11.23,32.417-16.914,48.828,1.26.374,2.73.771,4.175,1.244,22.974,7.528,32.244,37.049,16.8,54.9-5.359,6.2-12,11.42-18.587,16.4a213.861,213.861,0,0,1-49.368,28.271c-1.063.427-2.128.868-3.225,1.192-3.5,1.034-6.485,2.125-8.448,6-2.33,4.6-8.723,5.957-14.478,4.114-8.081-2.589-12.432-8.764-15.066-16.351-3-8.643-3.016-17.563-1.808-26.5.568-4.2,1.475-8.357,2.229-12.533l.647-.086c.247.791.461,1.595.746,2.373,1.748,4.761,3.484,9.528,5.292,14.267a20.618,20.618,0,0,0,1.713,3.261c3.8,6.27,6.354,6.681,10.624.825,10.1-13.846,20.183-27.72,29.679-41.978,18.138-27.231,35.861-54.739,53.757-82.131.519-.795,1.051-1.582,1.577-2.373Zm-24.62,65.091-41.821,71.623c1.132-.442,1.585-.578,2-.787a200.794,200.794,0,0,0,32.652-20.091c6.986-5.378,13.531-11.22,18.59-18.518,2.934-4.233,4.67-8.886,3.652-14.139C398.941,367.806,392.8,362.838,385.546,358.392Z"/><path d="M402.453,231.634l53.527-79.118.639.2c2.384,18.009,1.725,35.724-9.886,50.856-11.14,14.516-25.109,25.434-43.725,28.7Z"/><path d="M267.989,615.76q-3.012,15-6.032,30.044a7.487,7.487,0,0,0,1.234.281c9.651.16,12.778,8.114,11.418,15.322-1.986,10.528-8.162,18.363-17.5,23.407-8.252,4.458-15.914.5-17.992-8.858a15.24,15.24,0,0,1,1.241-10.988q13.407-24.456,26.841-48.9c.118-.214.223-.434.335-.651Z"/></svg>