<?xml version="1.0" encoding="UTF-8"?><svg id="a" xmlns="http://www.w3.org/2000/svg" viewBox="0 0 1000 1000"><path d="M500,0C223.858,0,0,223.858,0,500s223.858,500,500,500,500-223.857,500-500S776.142,0,500,0Zm-129.137,474.31v206.083h-103.456v-206.497c.146-68.42,27.419-133.991,75.839-182.333s114.033-75.511,182.455-75.547v103.456c-41.055,.036-80.417,16.361-109.447,45.391s-45.355,68.392-45.391,109.447Zm361.73,51.658c-.092,68.509-27.39,134.178-75.893,182.563-48.502,48.387-114.235,75.528-182.746,75.454v-103.454c41.067,.054,80.476-16.193,109.573-45.172,29.097-28.981,45.5-68.324,45.61-109.39v-206.497h103.456v206.497Z"/></svg>