<svg xmlns="http://www.w3.org/2000/svg" width="1000" height="1000">
  <path d="m621.855 795.485-18.941 7.577c-13.89 5.05-29.044 8.84-42.934 11.365-22.73 3.788-41.671 7.576-59.35 7.576-16.415 0-36.62-2.525-56.824-7.576-13.89-3.789-29.043-7.577-42.933-12.628l-18.942-6.314 77.028-98.495V559.35c-8.839-6.314-16.415-15.153-21.466-25.255-5.051-11.365-7.577-21.467-7.577-32.832 0-20.204 7.577-37.883 20.204-51.773 13.89-15.153 31.569-21.467 50.51-21.467 21.467 0 36.62 6.314 51.773 21.467 13.89 13.89 21.467 31.569 21.467 51.773 0 12.628-2.525 22.73-8.84 34.095-5.05 10.102-11.364 18.94-21.466 25.255v130.063zM5.63 500c0-89.655 21.467-171.734 65.663-248.763 44.197-75.765 104.81-135.114 178.049-178.048C326.37 27.729 410.975 5 498.105 5 587.76 5 671.102 27.73 748.13 73.189c74.502 44.196 133.852 103.546 178.048 178.048 45.46 77.029 68.189 159.108 68.189 248.763 0 89.656-22.73 171.735-68.189 248.763-44.196 75.766-102.283 133.852-178.048 179.312C672.365 973.534 587.76 995 498.105 995c-87.13 0-171.735-23.993-248.763-66.926-75.765-41.671-132.59-104.81-178.049-179.312C25.834 672.998 5.63 589.656 5.63 500zm30.306 0c0 84.605 22.73 161.633 65.663 233.61 40.409 66.926 95.97 123.75 165.422 165.421 70.714 41.671 149.005 61.875 231.084 61.875 84.605 0 161.633-21.467 233.61-61.875S857.99 801.8 898.399 733.611c41.67-70.715 60.612-149.006 60.612-233.61 0-77.029-17.679-149.006-53.036-217.195-34.094-64.4-82.08-119.962-145.217-160.37-64.4-41.67-130.064-70.714-207.092-80.816v15.153c7.577 1.263 10.102 3.788 15.153 8.84 3.788 3.788 5.051 8.839 5.051 15.152 0 6.314-2.525 11.365-6.314 15.153-6.313 6.314-8.839 7.577-16.415 7.577-6.314 0-10.102-1.263-16.416-7.577-3.788-3.788-6.314-8.839-6.314-15.153 0-6.313 1.263-11.364 5.051-15.153 5.051-5.05 8.84-7.576 13.89-8.839V40.357c-12.627-1.263-23.992-1.263-39.145-1.263v51.773c7.576 2.526 16.416 5.051 21.467 12.628 5.05 7.576 10.102 16.416 10.102 25.255 0 10.102-5.051 17.679-11.365 23.992-8.84 8.84-16.416 11.365-27.78 11.365-10.103 0-16.416-2.525-25.256-11.365-6.314-6.313-11.365-13.89-11.365-23.992 0-8.84 2.526-17.679 8.84-25.255 6.314-7.577 13.89-10.102 22.73-12.628V39.094c-15.154 0-26.519 0-39.146 1.263v16.416c3.788 1.263 10.102 3.788 12.627 8.84 2.526 5.05 6.314 8.839 6.314 15.152 0 6.314-2.525 11.365-6.314 15.153-6.313 6.314-11.364 7.577-17.678 7.577s-11.365-3.788-15.153-7.577c-5.051-5.05-6.314-8.839-6.314-15.153 0-6.313 1.263-11.364 5.051-15.153 5.051-5.05 6.314-7.576 13.89-8.839V40.357c-75.765 10.102-146.48 35.357-210.88 79.554-60.612 41.67-109.86 95.97-145.217 161.633C56.14 349.732 35.936 421.709 35.936 500zm30.306-1.262c0-78.291 20.204-150.268 60.613-218.457 37.882-64.4 90.918-117.437 157.844-155.32L429.916 334.58v75.766H340.26v-60.613l-73.24-103.546-16.415 13.89c-13.89 11.365-23.993 22.73-35.357 35.358-15.154 17.678-25.256 32.832-32.832 49.247-6.314 13.89-12.628 32.832-17.679 55.562l-7.576 44.196-2.526 18.941h246.238c-5.051 12.628-7.577 23.993-7.577 37.883 0 15.153 2.526 31.569 8.84 45.46 6.313 13.89 16.415 26.517 27.78 35.356v92.182L273.334 868.725c-51.773-31.569-93.444-73.24-130.064-122.487-36.62-47.985-58.086-104.809-69.451-166.684h84.604c2.526 11.365 5.052 23.992 11.365 36.62 12.628 25.255 18.942 47.985 27.78 64.4 8.84 16.416 22.73 30.307 39.146 49.248l22.73 25.255 83.342-99.758V542.934H68.768c-1.263-13.89-2.526-27.78-2.526-44.196zm239.924 387.666 13.89-17.679h44.197v27.78H326.37c-5.051-3.788-12.628-6.313-20.204-10.101zm7.576-776.595c29.044-13.89 59.35-23.993 88.393-31.57l97.233 146.48 99.757-145.216c30.306 7.576 60.613 17.678 87.13 31.568l-142.69 210.88v79.554c-13.891-7.576-27.782-10.102-42.935-10.102-12.627 0-27.78 2.526-41.67 10.102v-77.028zm16.416 747.551 30.306-35.357 3.789 1.263v34.094zm45.46 56.824v-5.05h54.298v17.678c-18.941-3.788-36.62-6.314-54.298-12.628zm0-17.678h54.298v-27.78h-54.298zm0-39.146v-29.043c17.678 6.314 35.357 11.365 54.298 16.416v12.627zM436.23 79.503c0 5.05 2.525 8.839 3.788 11.364 2.526 3.789 8.84 3.789 11.365 3.789 5.05 0 7.576-1.263 10.102-3.789 5.051-5.05 6.314-6.313 6.314-11.364 0-3.789-1.263-7.577-6.314-10.102-3.788-2.526-5.051-3.789-8.84-3.789-3.788 0-8.839 0-12.627 3.789-2.525 2.525-3.788 6.313-3.788 10.102zm3.788 848.572v-18.942h54.299v22.73zm0-31.57h54.299v-27.78h-54.299zm0-39.145v-10.102c17.679 5.051 36.62 5.051 54.299 6.314v3.788zm36.62-729.873c0 6.314 1.263 12.628 7.577 18.942 5.05 5.05 10.102 6.313 16.415 6.313 7.577 0 15.153-1.262 18.942-6.313 5.05-6.314 7.576-12.628 7.576-18.942 0-6.313-1.263-13.89-7.576-17.678-6.314-3.789-11.365-7.577-18.942-7.577-6.313 0-12.627 1.263-16.415 7.577-3.789 6.314-7.577 11.365-7.577 17.678zm29.043 804.376v-22.73h53.036v18.942zm0-35.357h53.036v-27.78h-53.036zm0-39.146v-3.788c16.416 0 34.095-1.263 53.036-5.051v8.84zm29.044-777.857c0 5.05 1.263 8.839 6.314 11.364 3.788 2.526 6.313 3.789 10.102 3.789 3.788 0 8.839-1.263 11.364-3.789 2.526-2.525 3.789-6.313 3.789-11.364 0-3.789-1.263-7.577-3.789-10.102-3.788-3.789-7.576-3.789-11.364-3.789-3.789 0-6.314 0-10.102 3.789-5.051 5.05-6.314 6.313-6.314 10.102zm35.357 847.309v-17.679h53.036v5.051c-17.679 6.314-35.357 8.84-53.036 12.628zm0-30.306h53.036v-27.78h-53.036zm0-39.146v-11.365c17.679-5.05 35.357-11.364 53.036-17.678v29.043zm3.788-183.1v-92.18c11.365-8.84 22.73-21.467 27.78-35.358 5.052-13.89 8.84-30.306 8.84-45.459 0-13.89-2.525-25.255-7.576-37.883H849.15l-2.525-18.94c-2.526-16.417-5.052-31.57-8.84-44.197-6.314-22.73-11.365-41.671-17.678-55.562-7.577-16.415-16.416-31.569-31.57-49.247a467.026 467.026 0 0 0-35.356-35.357l-16.416-13.89-73.24 103.545v60.613H573.87v-75.766l143.954-207.092c65.664 37.883 116.174 89.656 152.794 154.057C909.763 350.995 931.23 421.709 931.23 500c0 15.153 0 29.044-1.263 42.934H661v112.385l83.342 99.758 21.467-25.255c17.679-18.941 29.044-34.094 40.408-49.248 8.84-11.364 12.628-27.78 20.204-44.196 5.051-11.365 8.84-23.992 15.154-39.145l3.788-17.679h78.29c-11.364 60.612-34.094 113.648-68.188 164.158-34.095 50.51-77.028 90.919-127.539 123.75zm60.613 222.246v-27.78h42.933l13.89 17.678-20.204 10.102zm0-39.146v-34.094l6.313-1.263 29.044 35.357z" style="fill:#000;fill-opacity:1;fill-rule:nonzero;stroke:none;"/>
</svg>
