<svg xmlns="http://www.w3.org/2000/svg" width="1000" height="1000">
  <path d="M500.496 5C223.572 5 5 229.506 5 500.002c0 276.43 224.506 495.001 495.002 495.001 276.43 0 495.001-224.506 495.001-495.001C995.003 226.539 773.464 5 500.496 5zM195.88 463.903h6.923c65.275 96.923 127.583 190.88 192.858 284.836-6.923 4.945-13.847 7.912-21.759 7.912-15.824 7.912-33.626 10.879-50.44 15.824-41.538 9.89-37.582 18.791-64.285-23.736-33.627-60.33-48.462-125.605-56.374-187.913-2.967-30.66-2.967-64.286-6.923-96.923zm44.505 0c22.748-86.045 68.242-160.22 129.561-225.496 25.715-26.703 52.418-50.44 79.121-76.154 3.956 10.88 6.924 18.792 6.924 22.748 42.527 167.143 79.12 329.341 122.637 496.485 2.967 14.835 0 18.791-16.813 21.758-45.495 16.813-89.011 26.703-134.506 38.572-11.868 3.956-18.791 3.956-23.736-6.923-53.407-80.11-106.814-156.265-159.232-235.386-7.912-10.879-7.912-17.802-3.956-35.604zm54.396 330.33c8.901 0 13.846-2.967 21.759-6.923 23.736-6.923 50.44-11.868 77.143-19.78 1.978 0 14.835 0 17.802 4.945 25.714 36.594 49.45 74.176 75.165 113.737v7.912c-75.165-7.912-136.484-41.539-191.869-99.89zm127.583-33.626c11.868-3.956 18.791-6.923 30.66-11.868 36.593-6.923 75.165-18.792 114.725-28.682 21.758-4.945 29.67 1.978 25.715 25.715-6.924 18.791-11.869 36.593-18.792 56.374-6.923 23.736-14.835 50.44-21.758 72.198-4.945 19.78-40.55 22.747-50.44 11.868-26.703-39.56-53.407-80.11-75.165-118.682-4.945 0-4.945-2.967-4.945-6.923zm30.66-655.717c2.967 0 2.967 0 7.912-3.956 11.868 7.912 18.79 14.836 28.681 19.78 81.1 64.287 152.308 137.474 201.759 224.507 6.923 9.89 6.923 25.714 6.923 32.637-29.67 103.847-59.34 200.77-90.99 298.683 0 9.89-2.966 11.868-2.966 16.813h-6.923c-49.451-193.847-94.946-389.672-144.397-588.464zm114.724 774.4c6.923-33.627 18.791-70.22 29.67-106.814 0 2.967 2.968 2.967 2.968 2.967 6.923 23.736 15.824 50.44 19.78 77.143 0 1.978-3.956 10.88-7.912 10.88-11.868 8.9-25.715 10.879-41.539 17.802 0-1.978-2.967-1.978-2.967-1.978zm44.506-159.232c3.956-6.923 7.912-16.813 14.835-16.813 52.418-14.835 105.825-29.67 159.231-43.517h11.868c-37.582 79.122-86.044 142.419-163.187 192.858-7.912-23.736-10.879-46.483-14.835-65.275-7.912-22.747-19.78-45.494-7.912-67.253zm7.912-26.703c33.626-121.649 66.264-236.374 99.89-346.155 5.934-1.978 5.934-1.978 9.89-1.978 0 6.923 2.968 17.802 6.924 25.714 30.659 84.066 41.538 166.155 30.659 257.144-3.956 14.835-6.923 26.703-27.692 31.648-35.605 6.924-75.165 16.814-119.671 33.627z" style="fill:#000;fill-opacity:1;fill-rule:nonzero;stroke:none;"/>
</svg>
