<?xml version="1.0" encoding="utf-8"?>
<!-- Generator: Adobe Illustrator 26.0.1, SVG Export Plug-In . SVG Version: 6.00 Build 0)  -->
<svg version="1.1" id="Layer_1" xmlns="http://www.w3.org/2000/svg" xmlns:xlink="http://www.w3.org/1999/xlink" x="0px" y="0px"
	 viewBox="0 0 1000 1000" style="enable-background:new 0 0 1000 1000;" xml:space="preserve">
<path d="M500.5,5C223.6,5,5,229.5,5,499.5C5,773.5,226.5,995,499.5,995C776.4,995,995,770.5,995,499.5C995,223.6,770.5,5,500.5,5z
	 M241.2,730.9C183.2,686.8,147,619.8,141.9,547c-3.1-31.1-3.4-62.5-0.8-93.7c4.4-29.5,13.4-58.1,26.5-84.9c0,0,6.6-12.8,9.9-19.1
	c-1.8,11.9-1.8,24.1,0,36.1c4.1,26.4,12.9,51.8,26,75.1C333.1,680.7,486.7,902,486.7,902L241.2,730.9z M259.6,473.9
	c0,0-19.9-33.6-27.6-50.6c-19.5-43.2-19-92.9,1.5-135.7c7.5-14,18.4-25.9,31.6-34.8L487,98L259.6,473.9z M766.6,712.4
	c-7.5,14-18.4,25.9-31.6,34.8L513.1,902L740,526.3c0,0,0.1,0.1,0.2,0.3l0.2-0.4c0,0,19.7,33.6,27.6,50.6
	C787.6,620,787,669.6,766.6,712.4z M832.3,631.5c0,0-6.6,12.8-9.9,19.1c1.8-11.9,1.8-24.1,0-36.1c-4.1-26.4-12.8-51.8-25.9-75.1
	C666.8,319.3,513.4,98,513.4,98l245.4,171.1c58.1,44.1,94.3,111.1,99.3,183.8c1,9.7,1.6,19.5,2,29.2c0.9,21.5,0.4,43-1.3,64.4
	C854.4,576.1,845.4,604.8,832.3,631.5z"/>
</svg>
