<svg xmlns="http://www.w3.org/2000/svg" viewBox="0 0 1000 1000"><path d="M627.151 461.172c-95.803-90.827-151.792-95.803-205.293-41.059-48.524 46.036-48.524 109.49-8.71 158.014 55.99 62.21 109.49 53.5 205.294-28.617 42.302 43.547 85.85 74.652 125.664 124.42 7.465 7.465 0 21.152-6.221 28.617-49.768 67.187-124.42 102.024-206.537 109.49-138.107 4.976-263.77-69.676-318.516-192.852-47.28-125.664-7.465-277.456 98.292-359.573 125.664-100.78 312.294-95.804 446.668 62.21-48.524 48.523-90.827 98.291-130.641 139.35zM21.226 681.395c14.93-28.616 14.93-51.012 4.976-83.361-52.256-307.317 179.165-583.53 496.436-579.797 92.071 6.22 194.095 34.837 265.015 98.292 12.442 6.22 4.977 9.953 4.977 9.953-4.977 8.71-19.908 22.396-27.373 37.326-27.372-14.93-47.28-29.86-67.187-38.57C368.357-40.241 61.04 240.948 75.97 523.382c0 11.198 3.733 32.35 8.71 49.768 4.977 24.884 13.686 51.012 54.745 58.477 53.5 12.442 79.628 74.652 62.21 134.374-21.152 51.012-90.827 80.873-140.595 51.012-54.745-27.372-72.164-87.094-39.814-135.618zM61.04 729.92c0 19.907 23.64 39.815 42.303 39.815 29.86 0 43.547-13.687 43.547-47.28 0-19.907-13.686-34.838-43.547-34.838-27.373 0-42.303 14.93-42.303 42.303zm144.327 151.793c37.326-44.792 37.326-44.792 85.85-14.93 135.618 80.872 288.654 80.872 423.028 0 148.06-82.118 216.49-214.003 216.49-380.726 0-9.954-2.488-31.105-8.709-52.256-12.442-43.547-12.442-48.524-53.5-54.745-62.21-8.71-90.827-72.164-75.896-123.176 18.663-63.454 80.873-92.07 138.106-73.408 53.5 23.64 80.873 87.094 53.5 139.35-19.907 28.617-14.93 57.234-4.976 83.362 38.57 187.874-42.303 384.458-201.56 495.192-159.258 104.512-376.993 109.49-528.786 8.709-14.93-8.71-29.86-14.93-43.547-27.372zm99.536-228.933c72.164 97.047 226.445 131.885 322.248 69.675 55.989-39.814 48.524-41.059 14.93-82.117-4.976-3.733-7.465-8.71-14.93-8.71-47.28 36.082-95.803 55.99-158.013 42.303-68.431-14.93-115.711-54.745-139.35-130.64-18.664-67.188 0-129.398 63.453-177.921 60.966-48.524 159.258-58.478 230.177 6.22 2.489 4.977 2.489 4.977 52.257-49.767-62.21-89.583-251.329-92.071-345.888 0-95.803 92.07-100.78 235.153-24.884 330.957zm548.692-373.26c4.977 27.372 14.93 37.326 43.547 42.303 23.64 0 33.594-19.908 33.594-42.303 0-23.64-13.686-38.57-33.594-38.57-28.616 0-43.547 14.93-43.547 38.57z"
    style="fill:#000;fill-opacity:1;fill-rule:nonzero;stroke:none"/></svg>