<svg xmlns="http://www.w3.org/2000/svg" viewBox="0 0 1000 1000"><path d="M994.998 964.102H5V35.898h989.998zM99.66 632.788c3.945 48.646 22.35 92.032 55.22 144.622 36.812 61.792 98.605 78.884 160.397 55.219 61.793-30.24 115.697-61.793 178.805-101.235 9.203-6.574 21.035-14.462 9.203-36.813-18.407-61.793-34.183-114.382-64.422-177.49 0 0-7.889-18.406-24.98-7.888-44.701 15.777-81.514 49.96-131.474 77.57-28.924 13.147-13.147 36.812 0 53.904 15.777 9.203 28.924 5.259 63.107-17.092 15.777-6.573 31.554-23.665 52.59 0 15.777 39.442 15.777 70.996 0 78.885-28.924 22.35-52.59 28.924-92.032 46.015-14.462 7.889-36.812 0-52.59-7.888-92.031-61.793-78.884-206.414 9.204-261.633 36.812-23.665 68.366-39.442 114.382-61.793 21.036-15.776 21.036-32.868 7.888-52.589-15.776-24.98-32.868-17.092-39.442-9.203-46.016 28.924-99.92 53.904-145.936 84.143-61.792 39.442-99.92 94.661-99.92 193.266zm394.422-268.206c-9.204 82.828 21.035 152.51 73.625 215.617 17.092 19.721 53.904 43.386 80.199 43.386C762.288 632.788 879.3 517.092 879.3 384.303c0-52.59-15.777-124.9-70.996-178.804-17.092-18.407-31.554-35.498-70.996-44.701-107.808-9.204-243.226 98.605-243.226 203.784zm81.513-9.203c0-46.016 15.777-69.681 53.905-95.976 84.143-40.757 172.23 39.442 172.23 134.103 0 105.18-102.55 188.008-172.23 123.586-35.498-44.702-53.905-99.92-53.905-161.713z"/></svg>