<svg xmlns="http://www.w3.org/2000/svg" viewBox="0 0 1000 1000"><path d="M289,2,87,204H251C273,124,359,17,385,2ZM483,204V2H437C351.4,63.6,302.7,162.3,289,204Zm39,0H718C672.4,95.2,598.3,24,567,2H522Zm234,0H915L711,2H621C685.8,61.2,731,144,756,204Zm-43,796L915,798H751c-22,80-108,187-134,202ZM519,798v202h46c85.6-61.6,134.3-160.3,148-202Zm-39,0H284c45.6,108.8,119.7,180,151,202h45Zm-234,0H87l204,202h90C316.2,940.8,271,858,246,798Zm54.1-88,1.2-312.8h-1.7L217.9,710H163.8L83.9,397.2H82.2L83.4,710H20.7V302.9h92.6l78.2,297.9h2.3l76.5-297.9h97.2V710ZM661.3,410.4a125.91,125.91,0,0,1-5.2,36.8A165.53,165.53,0,0,1,642.9,480a301.43,301.43,0,0,1-20.1,31c-7.3,10-15,20.3-23,31l-84,107.5H656.1V710H436.5V647.3L554.4,498.4A288.08,288.08,0,0,0,582,454.7c6.9-14.2,10.4-28.2,10.4-42,0-16.1-3.6-29.7-10.9-40.8s-18.4-16.7-33.4-16.7q-20.1,0-33.3,15c-8.8,10-14.6,24.3-17.2,43.1l-65-6.3q7.5-55.8,39.1-83.9T551,294.9c17.6,0,33.2,2.9,46.6,8.6,13.8,5.8,25.3,13.8,34.5,24.2a102.21,102.21,0,0,1,21.8,36.8A138.93,138.93,0,0,1,661.3,410.4ZM916.6,710,807.9,512.2h-1.7V710h-69V302.9h69V479.4h1.7L911.4,302.9H989L869.4,490.4,996.5,710Z"/></svg>