<svg xmlns="http://www.w3.org/2000/svg" viewBox="0 0 1000 1000"><path d="M114.09,729.106a128.941,128.941,0,0,1-42.025-16.362A115.956,115.956,0,0,1,38.7,682.268a112.826,112.826,0,0,1-19.248-41.062A189.529,189.529,0,0,1,14,596.294V389.055a188.275,188.275,0,0,1,5.453-45.233A113.188,113.188,0,0,1,38.7,303.08,116.254,116.254,0,0,1,72.065,272.6a129.432,129.432,0,0,1,42.025-16.361,232.231,232.231,0,0,1,45.554-4.491,224.366,224.366,0,0,1,53.253,6.416,123.528,123.528,0,0,1,47.8,23.419,107.807,107.807,0,0,1,32.4,42.024,128.81,128.81,0,0,1,10.907,51.971H225.088a48.314,48.314,0,0,0-9.624-29.194A49.916,49.916,0,0,0,190.441,328.1a96.964,96.964,0,0,0-30.8-5.133A84.862,84.862,0,0,0,125,330.348a46.99,46.99,0,0,0-24.381,24.06,81.837,81.837,0,0,0-7.7,34.647V596.294a79.67,79.67,0,0,0,7.7,34.325A48.563,48.563,0,0,0,125,654.679a81.757,81.757,0,0,0,34.647,7.7,96.712,96.712,0,0,0,30.8-5.133,49.2,49.2,0,0,0,25.023-18.607q9.624-13.473,9.624-28.872h78.917a128.805,128.805,0,0,1-10.907,51.97,107.73,107.73,0,0,1-32.4,42.025,123.263,123.263,0,0,1-47.8,23.419,224.366,224.366,0,0,1-53.253,6.416A232.231,232.231,0,0,1,114.09,729.106Z"/><path d="M372.272,256.885H451.19V451.291H576.943V256.885H655.86V728.464H576.943V523.15H451.19V728.464H372.272Z"/><path d="M725.585,256.885H988V328.1H805.143V442.95H945.655v71.218H805.143v214.3H725.585Z"/></svg>