<svg xmlns="http://www.w3.org/2000/svg" width="1000" height="1000">
  <path d="M500.496 995.003c275.935 0 494.507-224.506 494.507-495.496C995.003 226.54 773.464 5 500.496 5 223.572 5 5 229.506 5 499.507c0 276.924 224.506 495.496 495.496 495.496zM113.792 661.705c-6.924-9.89 2.967-13.846 18.79-14.835 9.891-.989 19.781-1.978 24.726-5.934V397.64c.99-9.89.99-16.814-5.934-23.737-10.879-8.9-9.89-23.736 1.978-30.66 20.77-12.856 45.495 8.902 32.638 26.704-8.902 13.846-7.913 25.715-7.913 39.56v233.408c26.704 4.945 52.418 1.978 79.122-1.978 6.923-.989 12.857-1.978 19.78-2.967V434.232c0-14.835 1.978-25.714-8.901-35.604-8.901-9.89-7.912-22.748 1.978-34.616 8.901-7.912 23.736-7.912 36.593 0 8.901 8.901 9.89 23.737 1.978 34.616-11.868 9.89-11.868 20.769-11.868 35.604v197.803c37.583-1.978 67.253-14.835 96.924-31.648 2.967-2.967 4.945-8.902 4.945-15.825v-120.66c-.99-3.955-2.967-7.912-5.934-12.857-.99-1.978-2.967-3.956-3.956-5.934-10.88-16.813-9.89-33.626 2.967-41.538 9.89-9.89 25.714-9.89 36.593 0 10.88 13.846 10.88 30.66 0 42.527-9.89 5.934-10.879 14.836-10.879 25.715.989 25.714 0 50.44 0 76.154v33.626c21.758-12.857 35.604-28.681 50.44-45.494 0-.99.989-1.978.989-2.967.989-3.956 1.978-8.902 1.978-11.869 0-24.725 7.912-36.593 28.681-39.56 12.857-2.967 18.791-10.88 27.693-20.77 57.362-59.34 123.626-90.989 201.758-97.912 26.704-1.978 54.396-2.967 81.1-2.967 17.802-.989 35.604-.989 53.406-1.978 49.451 0 42.528 14.835-12.857 29.67v21.759c-.989 44.505-.989 90.99 0 136.484v74.176c0 10.879-.989 20.77 5.934 29.67 8.901 9.89 7.912 24.726-4.945 29.67-8.9 2.968-21.758 1.979-28.681-1.977-8.901-8.901-8.901-17.803-1.978-30.66 4.945-6.923 8.9-15.824 8.9-22.747v-231.43c-.988-1.977-.988-4.944-.988-7.912-31.649-2.967-61.319-2.967-89.011 0-8.902.99-9.89 5.935-9.89 14.836V597.42c0 11.868 0 20.769 8.9 27.692 9.89 11.868 7.913 25.714-3.955 37.582-10.88 6.924-20.77 6.924-29.67 0-12.858-10.879-14.836-22.747-6.924-36.593.989-1.978 1.978-3.956 2.967-4.945 2.967-5.934 5.934-9.89 5.934-13.846V389.727c-31.648 4.945-59.34 15.824-86.044 27.692-8.901 4.945-11.868 9.89-11.868 19.78v116.704c0 4.945 1.978 8.901 4.945 13.846.989 2.967 1.978 5.934 3.956 8.901 11.868 16.813 10.879 28.682-2.967 40.55-10.88 9.89-24.726 9.89-38.572-.99-9.89-11.867-6.923-29.67 5.934-44.505 3.956-4.945 6.923-9.89 6.923-11.868V438.188c-24.725 16.813-41.538 35.605-57.362 55.385-.99.99 0 3.956 0 8.901.989 1.978.989 4.945.989 6.923 0 20.77-9.89 32.638-29.67 34.616-9.89.989-18.792 5.934-25.715 14.835-55.385 64.286-129.561 97.912-223.517 104.836-19.78.989-37.583 1.978-52.418 2.967-70.22 3.956-82.088 3.956-88.022-4.946z" style="fill:#000;fill-opacity:1;fill-rule:nonzero;stroke:none;"/>
</svg>
