<svg xmlns="http://www.w3.org/2000/svg" width="1000" height="1000">
  <path d="M500.496 5C223.572 5 5 229.506 5 500.002c0 276.43 224.506 495.001 495.002 495.001 276.43 0 495.001-224.506 495.001-495.001C995.003 226.539 773.464 5 500.496 5zM79.176 444.122c0-11.868 187.913-11.868 187.913 0 0 9.89-11.868 7.912-19.78 7.912h-43.517c-13.846 0-19.78 2.967-19.78 18.792v101.868c0 20.77-3.956 24.726-10.88 24.726-4.945 0-7.912-.99-7.912-24.726V470.826c0-15.825-7.912-18.792-23.736-18.792h-39.56c-7.913 0-22.748 2.967-22.748-7.912zm223.517 131.54V467.858c0-23.737 7.912-32.638 30.66-32.638h109.78c24.726 0 31.649 8.901 31.649 27.693v19.78c0 35.604-3.956 43.517-42.528 43.517h-19.78c16.813 15.824 34.615 35.604 50.44 49.45 4.945 5.934 18.79 13.846 7.912 21.759-11.868 6.923-35.605-21.759-77.143-63.297-10.88-9.89-13.847-27.693 6.923-27.693h34.615c15.824 0 17.802-2.967 20.77-18.791v-16.813c0-15.825-4.946-18.792-23.737-18.792h-90.99c-15.823 0-18.79 2.967-18.79 18.792V575.66c0 28.682-19.78 29.67-19.78 0zm214.616-5.935a641.994 641.994 0 0 1 0-106.813c0-13.847 12.858-27.693 27.693-27.693h109.78c16.814 0 27.693 13.846 27.693 27.693v106.813c0 19.78-10.88 30.66-31.649 30.66H545.002c-14.835 0-27.693-10.88-27.693-30.66zm16.814-7.912c0 13.846 7.912 19.78 23.736 19.78h89.011c12.857 0 20.77-8.9 20.77-19.78v-90.99c0-10.878-7.913-18.79-23.737-18.79H557.86c-15.824 0-23.736 7.912-23.736 18.79zm191.868-71.209v-41.539c0-4.945.99-13.846 11.869-13.846 7.912 0 7.912 8.901 7.912 13.846v38.572c0 10.88 6.923 18.791 19.78 18.791h94.945c13.847 0 18.792-7.912 18.792-18.791v-40.55c0-14.835 19.78-16.813 19.78-.989v55.385c0 21.758-27.692 21.758-47.473 21.758-27.692 0-27.692 0-27.692 30.66v27.692c0 7.912 0 15.825-7.912 15.825-8.901 0-10.88-7.913-10.88-12.858v-42.527c0-12.857-4.944-18.792-20.769-18.792h-22.747c-23.736 0-35.605-7.912-35.605-32.637z" style="fill:#000;fill-opacity:1;fill-rule:nonzero;stroke:none;"/>
</svg>
