<?xml version="1.0" encoding="UTF-8"?><svg id="a" xmlns="http://www.w3.org/2000/svg" viewBox="0 0 1000 1000"><path d="M500,0C223.858,0,0,223.858,0,500s223.858,500,500,500,500-223.857,500-500S776.142,0,500,0Zm.359,171.634c68.068,0,131.218,21.019,183.967,56.096,.714,.238,1.417,.415,2.132,.667,5.03,3.593,10.06,7.185,15.089,10.778,2.048,1.593,3.934,3.187,5.861,4.78-16.913,6.765-40.273,7.443-61.272,7.443l-4.048-.004-3.772-.004c-33.916,0-67.769-5.427-103.493-16.591l-2.094-.654h-1.409c-.135-.049-.274-.101-.417-.152-.496-.178-1.014-.362-1.57-.548-12.871-4.025-24.22-8.191-33.993-12.466-28.355-12.066-58.482-24.423-89.41-35.362,29.905-9.048,61.708-13.984,94.427-13.984Zm-258.669,124.305c35.926-45.986,84.068-81.912,140.113-103.468,.677,.221,1.342,.476,2.019,.699,36.66,12.094,72.601,26.866,105.76,40.976,11.497,5.029,23.711,9.341,35.208,12.933,2.155,.718,3.593,1.437,5.748,1.437,34.489,10.778,70.416,17.244,107.779,17.244,2.495,0,5.112,.008,7.82,.008,23.025,0,52.8-.575,73.374-11.504l.002,.002c1.437,1.437,2.873,2.872,5.028,4.309,22.993,22.993,43.83,48.86,59.638,76.882,2.155,4.311,5.03,8.622,7.185,12.933,14.396,27.54,24.905,56.746,30.71,88.036-3.418-2.733-6.638-4.939-8.76-6.354l-.165-.11-.171-.101c-19.699-11.617-43.597-17.264-73.062-17.264-7.843,0-15.91,.396-24.662,1.21-58.889,4.807-115.642,25.086-170.526,44.698-11.749,4.198-23.478,8.39-35.208,12.426l-.45,.155-.426,.213c-2.167,1.084-3.8,1.618-5.752,2.131-25.7-8.075-51.469-16.649-76.418-24.977-18.448-6.157-37.524-12.525-56.117-18.522-29.939-9.849-73.344-22.532-117.408-25.052,71.731-15.126,143.561-31.156,215.797-43.555,97.001-16.526,209.091-37.363,311.122-26.585-40.498-41.689-97.299-54.377-152.323-54.379-77.746-.003-151.958,25.321-171.733,29.949-36.645,8.622-175.32,51.734-257.232,57.482,11.496-25.867,25.867-49.579,43.112-71.853Zm-70.416,204.062c0-24.43,2.874-48.86,7.904-71.853,.718-2.874,1.437-5.749,2.156-8.622,4.311-1.437,7.904-2.155,12.215-3.593,7.509-1.596,15.108-2.702,22.76-3.421,4.497-.422,9.017-.655,13.546-.804h.025c1.259-.042,2.521-.057,3.782-.085,1.383-.023,2.762-.092,4.147-.092,.502,0,1.007,.045,1.509,.048,2.288,.014,4.582,.153,6.873,.221,2.799,.091,5.594,.1,8.398,.278h.004c3.797,.241,7.596,.643,11.394,1.04,7.788,.796,15.567,1.821,23.317,3.154h.008c2.496,.431,4.976,.947,7.464,1.419,2.848,.547,5.7,1.057,8.535,1.663h0c.294,.063,.584,.139,.877,.202,9.664,2.084,19.237,4.48,28.669,7.093,.197,.054,.397,.103,.594,.157h0c.882,.245,1.762,.489,2.642,.739h.001c.354,.1,.699,.21,1.053,.31,5.068,1.444,10.094,2.933,15.063,4.472l.007,.002c4.69,1.453,9.348,2.931,13.934,4.439,44.549,14.371,89.816,30.178,135.802,44.549-2.874,.719-5.748,2.155-8.622,2.874-.348,.058-.708,.128-1.057,.186-.203,.101-.381,.228-.381,.532-54.608,17.245-109.934,33.052-165.979,44.549-25.27,5.245-51.166,10.805-77.072,10.805-13.134,0-26.276-1.431-39.33-5.057-13.652-3.593-27.304-10.059-39.519-19.4,0-5.029-.719-10.778-.719-15.807Zm137.776,267.16c-1.204-.876-2.409-1.752-3.613-2.628-2.957-2.15-5.913-4.3-8.869-6.45h0c-1.048-.762-2.096-1.525-3.144-2.287,1.437,.718,2.874,.718,4.311,1.437,.888,.219,1.792,.36,2.683,.566h0c7.81,1.808,15.708,3.201,23.688,4.172,6.594,.803,13.248,1.282,19.933,1.573-10.42,.193-19.908,.978-28.141,2.419l-6.846,1.198Zm269.629,52.135c-2.156,.449-4.311,.808-6.466,1.167h0c-11.835,2.589-24.061,4.58-36.559,5.928h-.002c-.019,.003-.038,.003-.057,.005-5.864,.632-11.787,1.124-17.762,1.457-6.016,.329-12.08,.513-18.191,.513-4.661,0-9.287-.123-13.89-.321-1.248-.053-2.485-.143-3.729-.21-3.462-.189-6.913-.415-10.343-.711-1.224-.104-2.442-.224-3.661-.342-3.637-.354-7.256-.759-10.856-1.228-.873-.113-1.748-.22-2.619-.34-4.456-.615-8.891-1.297-13.291-2.078h-.008c-5.818-1.035-11.58-2.23-17.301-3.535-.849-.193-1.693-.398-2.54-.597-5.579-1.315-11.124-2.723-16.606-4.29-6.467-2.156-12.933-4.311-18.682-6.467-4.732-1.809-9.364-3.774-13.989-5.75-2.575-1.1-5.091-2.295-7.634-3.448-1.294-.579-2.592-1.151-3.874-1.749h-.001c-1.586-.741-3.171-1.486-4.744-2.248l-.007-.003c-1.367-.663-2.715-1.36-4.066-2.051-5.333-2.67-10.59-5.478-15.77-8.424-1.392-.772-2.787-1.537-4.16-2.345l-.005-.003-.004-.002c-4.977-2.93-9.898-5.966-14.726-9.184,8.429-1.475,18.839-2.394,31.659-2.395,28.208,0,68.151,4.475,124.358,17.234l14.943,3.465c-.13,.029,1.951,.428,1.821,.457,27.942,6.459,59.442,15.05,95.23,25.786-2.156,.718-4.311,1.258-6.466,1.707Zm95.125-40.34c-1.138,.704-2.291,1.382-3.435,2.077l-.012,.007c-2.417,1.47-4.839,2.934-7.296,4.336h0c-1.568,.896-3.158,1.753-4.742,2.621l-.012,.007c-5.952,3.263-12.005,6.346-18.167,9.233l-.005,.003c-1.879,.88-3.765,1.747-5.661,2.593h-.003c-2.468,1.102-4.957,2.159-7.455,3.201-1.55,.653-3.099,1.31-4.664,1.936l-.008,.003c-1.958,.784-3.935,1.529-5.91,2.278l-.024,.009c-2.103,.798-4.201,1.609-6.323,2.368h-.004c-4.112,1.472-8.253,2.883-12.433,4.21h0l-10.44-3.132c-30.787-9.236-57.55-16.623-81.4-22.487,6.132-1.512,12.434-3.195,18.979-5.12,52.29-13.829,91.329-20.9,119.14-20.901,18.43,0,31.927,3.104,41.091,9.404-3.682,2.543-7.43,4.98-11.217,7.352Zm40.049-48.12l-22.963,36.083-1.799-1.237c-10.442-7.179-25.213-10.669-45.158-10.669-28.007,0-66.45,6.718-120.981,21.14-11.749,3.452-22.757,6.198-32.989,8.28-44.675-10.77-83.254-17.431-115.104-19.886-.794-.061-.746-1.199,.049-1.243,31.991-1.776,64.421-7.915,95.992-15.413,21.556-5.029,43.112-11.496,63.23-16.526,37.363-10.059,74.726-22.274,112.809-32.334,21.479-6.041,46.063-13.838,68.54-12.513,4.113,1.978,7.48,4.676,9.328,8.464,.552,1.663,1.046,3.205,1.538,5.139,.482,2.524-.936,6.9-2.368,11.199-2.72,6.733-5.943,12.945-10.124,19.515Zm47.331-31.804c-10.778,14.371-22.274,27.304-35.208,39.519,5.03-7.904,8.622-15.089,11.496-22.274,2.155-6.467,4.311-12.933,2.874-19.4-.719-2.874-1.437-5.03-2.156-7.185-7.714-17.458-28.738-22.299-49.971-22.299-16.344,0-32.812,2.867-43.437,5.055-49.578,10.059-98.438,22.274-147.298,33.77-98.438,23.712-160.231,43.112-209.091,45.268-31.615-26.586-58.201-59.638-78.319-97.001,20.119-2.874,44.549-7.185,73.29-15.089,81.193-20.837,160.95-46.704,242.143-66.105,56.119-13.361,119.403-29.506,180.075-29.508,20.894,0,41.471,1.913,61.35,6.515,21.556,5.029,38.8,15.807,51.734,30.897-10.778,43.83-30.897,83.349-57.482,117.838Zm65.386-160.231c-4.63,.842-9.506,1.191-14.485,1.191-3.52,0-7.092-.174-10.663-.472-100.064-6.433-197.282-29.23-293.072-57.759-.507-.151-1.017-.29-1.524-.442-.718,0-2.155-.718-2.874-.718,2.874-.718,5.03-1.437,7.904-2.874,.739-.254,1.478-.517,2.218-.772l.022-.008c24.049-8.314,48.106-17.23,72.333-25.495,.296-.101,.59-.204,.885-.305,3.48-1.185,6.966-2.346,10.454-3.499,.773-.256,1.545-.519,2.318-.773,3.204-1.051,6.415-2.072,9.626-3.089,1.034-.328,2.066-.667,3.101-.99,3.01-.941,6.028-1.846,9.046-2.75,1.232-.369,2.461-.754,3.694-1.117,2.833-.833,5.675-1.623,8.515-2.418,1.42-.397,2.836-.815,4.258-1.202,2.737-.745,5.482-1.44,8.226-2.144,1.521-.39,3.038-.805,4.562-1.182,2.7-.668,5.41-1.28,8.117-1.904,1.575-.363,3.145-.754,4.722-1.101,2.711-.596,5.432-1.128,8.151-1.674,1.58-.318,3.155-.668,4.738-.968,2.709-.514,5.431-.954,8.149-1.414,1.606-.271,3.207-.579,4.817-.831,2.916-.456,5.847-.83,8.775-1.217,1.414-.187,2.822-.415,4.24-.586,4.351-.523,8.716-.968,13.094-1.325,3.885-.361,7.826-.653,11.804-.856,1.32-.068,2.663-.061,3.991-.108,2.673-.095,5.341-.208,8.036-.21,.056,0,.111-.004,.166-.004,3.52,0,7.051,.117,10.583,.301,1.03,.054,2.058,.139,3.087,.21,2.694,.185,5.382,.436,8.065,.748,1.084,.126,2.169,.246,3.249,.394,3.446,.472,6.879,1.034,10.277,1.749,.162,.034,.328,.054,.491,.089,3.516,.753,6.985,1.693,10.42,2.737,1,.304,1.986,.653,2.977,.984,2.55,.85,5.067,1.794,7.553,2.827,.992,.412,1.988,.812,2.969,1.255,3.312,1.496,6.58,3.11,9.742,4.975,4.004,2.67,9.828,6.634,14.673,11.783,.371,.395,.777,.742,1.135,1.151,.718,7.185,1.437,12.933,2.155,18.682,.719,10.778,1.437,20.837,1.437,31.615,0,13.652-.718,26.586-2.156,39.519Z"/></svg>