<svg xmlns="http://www.w3.org/2000/svg" width="1000" height="1000">
  <path d="M916.649 457.77c0 68.66-11.444 122.443-30.897 178.515-18.31 54.928-49.206 105.279-91.547 141.897-68.66 58.361-148.763 66.372-218.567 12.588-25.175-19.454-44.629-42.34-59.505-65.227-60.65-89.258-83.536-183.093-76.67-287.227 0-21.742 10.299-45.773 22.886-64.082 19.454-38.908 56.073-38.908 76.67 0 11.444 22.886 19.454 45.773 21.743 72.092 4.577 61.794-2.289 125.877-29.753 183.093-12.587 34.33-8.01 57.217 14.876 83.537l4.578 5.721c14.876 17.165 21.742 17.165 30.897-5.721 41.196-83.537 60.65-175.083 56.072-266.63 0-57.216-19.454-107.567-61.794-148.763-44.629-38.907-108.711-38.907-155.629 0-29.753 29.753-50.35 72.093-57.217 113.29-12.587 97.267 3.433 188.814 42.34 275.783 22.887 57.217 57.217 111 106.424 152.196 99.556 84.68 232.299 84.68 328.423 0 45.773-36.619 80.103-85.825 104.134-139.608 60.65-141.897 67.515-288.372 18.309-433.702-16.02-57.216-45.773-106.423-83.536-152.196-16.02-18.31-18.31-18.31-42.34-11.443-11.444 8.01-18.31 11.443-29.753 16.02-20.598 11.444-20.598 13.732-4.577 27.464 16.02 18.31 30.897 33.186 41.196 56.073 53.783 76.67 73.237 165.928 73.237 256.33zM6.906 526.43c11.443 92.69 38.907 179.66 97.268 256.33 51.495 72.093 120.154 119.01 216.278 119.01 45.773 2.289 88.114-11.443 125.877-34.33 22.886-12.587 22.886-19.453 9.154-35.474-5.721-6.866-13.732-11.443-16.02-19.454-16.021-17.165-16.021-17.165-40.052-8.01-33.186 16.02-70.948 22.887-105.278 16.02-54.928-11.443-97.269-42.34-127.021-84.68C111.04 663.75 88.153 576.78 83.576 484.09c0-37.763-2.289-37.763-37.763-22.886-49.206 22.886-41.196 19.453-38.907 65.227z" style="fill:#000;fill-opacity:1;fill-rule:nonzero;stroke:none;"/>
</svg>
