<svg xmlns="http://www.w3.org/2000/svg" viewBox="0 0 1000 1000"><path d="M500.496 276.979c40.253 0 77.341 10.088 111.264 30.165 33.923 20.077 61.022 47.176 81.1 81.099 20.076 33.923 30.164 71.209 30.164 111.759s-10.088 77.835-30.165 111.758c-20.077 33.923-47.176 61.022-81.099 81.1-33.923 20.076-71.209 30.164-111.758 30.164-40.55 0-77.836-10.088-111.759-30.165-33.923-20.077-61.022-47.176-81.1-81.099-20.076-33.923-30.164-71.209-30.164-111.758 0-40.55 10.088-77.836 30.165-111.759 20.077-33.923 47.176-61.022 81.099-81.1 33.923-20.076 71.407-30.164 112.253-30.164zM5 500.002c0-89.308 22.45-172.583 67.253-249.726 44.209-74.473 103.55-133.814 178.023-178.023C327.419 27.45 410.793 5 500.496 5c89.011 0 172.089 22.45 249.232 67.253C824.2 116.462 883.54 175.803 927.75 250.276c44.803 77.143 67.253 160.418 67.253 249.726 0 89.308-22.45 172.583-67.253 249.726C883.541 824.2 824.2 883.54 749.728 927.75c-77.143 44.803-160.418 67.253-249.726 67.253-89.308 0-172.583-22.45-249.726-67.253-74.473-44.209-133.814-103.55-178.023-178.022C27.451 672.585 5 589.31 5 500.002zm188.902 0c0 55.088 13.846 106.615 41.538 154.78 27 46.187 63.594 82.78 109.78 109.781 48.166 27.692 99.891 41.539 155.276 41.539 54.693 0 106.121-13.847 154.286-41.539 46.187-27 82.78-63.594 109.781-109.78 27.692-48.166 41.539-99.693 41.539-154.781 0-55.088-13.847-106.616-41.539-154.781-27-46.187-63.594-82.78-109.78-109.78-48.166-27.693-99.693-41.54-154.781-41.54-55.088 0-106.616 13.847-154.781 41.54-46.187 27-82.78 63.593-109.78 109.78-27.693 48.165-41.54 99.693-41.54 154.78zm26.703 278.407h95.935c-38.869-25.714-70.913-58.055-95.935-96.923zm0-459.891c25.714-39.561 58.352-72.199 97.913-97.913h-97.913zm460.88-97.913c38.869 25.714 70.913 57.66 95.935 95.934v-95.934zm1.979 557.804h93.956v-94.945c-25.022 38.275-56.374 69.923-93.956 94.945z"/></svg>