<svg xmlns="http://www.w3.org/2000/svg" viewBox="0 0 1000 1000"><path d="M784.635,739.756l-130.9-30.972v154.77l-133.115-31.8V986.134c-17.322-3.941-32.687-7.278-47.972-10.95-23.986-5.764-47.768-12.507-71.94-17.313-11.156-2.218-13.236-7.434-13.144-17.5.423-46.181.186-92.369.186-140.483-27.847-6.816-55.258-13.423-82.612-20.258-16.566-4.139-39.2-3.667-47.826-14.364-8.564-10.616-3.521-32.634-3.538-49.653q-.22-211.243-.083-422.488v-21.6l133.326,31.455V148.342l133.3,31.74V25.222L652.969,51.8V72.616c0,38.7.829,77.429-.419,116.09-.481,14.925,4.686,20.094,18.468,23.5,34.335,8.479,68.156,19.017,102.328,28.19,8.27,2.219,12.687,4.889,12.667,14.763q-.489,238.656-.307,477.314C785.706,734.038,785.262,735.607,784.635,739.756ZM360.8,398.637c-.675,3.762-1.2,5.327-1.2,6.891-.059,92.329.028,184.659-.258,276.987-.027,8.776,3.107,11.861,11.515,13.651,32.475,6.912,64.751,14.756,97.122,22.162,25.818,5.906,51.666,11.68,78.417,17.719v-294.8Z"/></svg>