<svg xmlns="http://www.w3.org/2000/svg" viewBox="0 0 1000 1000"><path d="M654.845,309.5c-2,2-4,3-5,5-53-53-106-105-160-158a12.05,12.05,0,0,0,5-5C548.845,204.5,601.845,256.5,654.845,309.5Zm-266-61c-2-1-3-3-5-5-8,7-17,13-24,21-26,29-50,59-77,88-31,33-64,65-96,97-6,6-13,13-3,22,27,28,55,56,84,82,3,4,16,4,19,1,35-34,70-69,110-110-20-18-41-35-59-53-27-27-27-68,0-95C353.845,279.5,371.845,264.5,388.845,248.5Zm273,80c5,31-7,59-34,80a191.978,191.978,0,0,0-14,15c-11,12-19,12-31,0-40-42-82-83-124-125-5-5-11-10-17-15,0,1-1,1-1,2,91,90,181,180,269,267,31-29,64-60,93-88C755.845,418.5,708.845,373.5,661.845,328.5Zm-169,216c-22-20-43-40-65-60-8-7-15-15-23-23a7.808,7.808,0,0,1-4,4c25,25,49,50,74,74,4,4,12,4,18,5-34,33-67,66-101,98-14,14-13,25,1,38,25,24,50,50,75,74,11,12,12,21,1,34-47,54-64,68-49,98,4-39,12-58,49-89,40-39,81-77,121-115,6-6,11-13,21-24-10-7-19-13-26-20C553.845,607.5,523.845,575.5,492.845,544.5Zm10-415c38-35,84-85,104-67,19,13,37,31,53,47,98,96,195,193,291,290,13,13,21,29,31,43,19,21,4,45-26,75-130,130-262,260-392,391-30,29-55,63-83,43-19-10-41-28-51-39-4-7-10-14-16-21q-186-183-371-368c-44-43-44-80-1-124,98-98,195-195,293-292a191.978,191.978,0,0,1,15-14c30-24,65-23,94,4,11,10,22,20,32,32C484.845,139.5,491.845,138.5,502.845,129.5Z"/></svg>