<svg xmlns="http://www.w3.org/2000/svg" viewBox="0 0 1000 1000"><path d="M270.444 589.475H183.67v-89.058h81.065c19.41-84.49 10.276-98.192-76.498-82.207 0 27.402-1.142 54.805-4.567 82.207H18.114c-5.709-7.992-7.993-12.56-7.993-15.985-12.559-71.93-5.708-74.214 62.798-74.214 26.26 0 51.38-2.284 75.356 0 26.26 0 38.82-12.56 35.395-37.679 0-14.843 0-28.544-3.425-45.67-26.26 0-51.38-3.426-78.782-5.71v-86.773h168.981v-82.208c-19.41-2.283-37.678-2.283-54.805-2.283-20.551 0-31.969-9.134-31.969-30.828 3.425-19.41 3.425-38.82 3.425-57.088 14.843-2.284 26.261-4.567 36.537-4.567 107.326 0 213.51-4.567 320.836 0 105.043 4.567 200.951 31.97 283.158 97.05 135.87 108.468 188.392 253.472 159.848 421.312-25.12 166.698-123.311 277.45-282.017 335.68-50.237 15.984-105.042 27.402-163.272 29.685-105.043 5.709-213.51 3.425-321.978 0-9.135 0-18.269 0-31.97-2.283-1.142-17.127-4.567-31.97-4.567-51.38 0-23.977-9.134-36.536-30.828-34.253-18.268 0-37.678-2.283-53.663-2.283v-12.56c-5.709-68.506-5.709-68.506 59.372-74.215 6.85 0 10.276-2.283 25.119-5.708v-83.35h92.483v86.775h81.066v-81.066c-28.545-3.425-58.23-3.425-81.066-5.708-1.142-27.403-5.709-52.522-5.709-85.633zM10.121 938.855c0-21.693-3.425-43.386 0-66.222 0-7.992 15.985-19.41 22.836-21.693 21.693-1.142 44.529 0 66.222 0v87.916zm91.342-272.882c-10.276-78.782-7.993-85.632 82.207-71.93v81.065h-76.498c-2.284-2.284-5.71-6.851-5.71-9.135zm264.89-324.261c-9.134 58.23-4.567 62.797 53.663 66.222 30.827 2.284 33.111 18.268 33.111 44.529v262.606c0 13.702 2.284 29.686 2.284 43.388 117.601 26.26 235.203-17.127 290.008-103.901 59.372-92.483 58.23-226.07-3.425-313.986-60.514-81.066-182.683-126.736-284.3-101.617 0 2.283-2.283 6.85-2.283 7.992-2.284 26.26 2.283 54.805-11.418 68.506-13.701 14.843-45.67 7.992-73.073 14.843-1.142 4.567-4.567 7.992-4.567 11.418z"/></svg>