<svg xmlns="http://www.w3.org/2000/svg" width="1000" height="1000">
  <path d="M555.663 157.35h-201.5c0-1.05-89.204 156.371-98.65 174.212-6.297 10.495-3.148 14.693 9.446 14.693h193.103zM12.035 827.963c-3.148 4.198-14.692 14.693 1.05 14.693 37.78-1.05 109.145-1.05 192.054-1.05l95.502-188.905H122.23c-6.298 0-12.595 0-16.792 9.445C73.954 716.72 42.47 773.391 12.035 827.963zm129.086-255.022c-10.495 20.99-9.446 22.04 12.593 22.04h178.41l95.503-187.857h-178.41c-8.396 0-12.594 0-17.842 7.347-29.385 52.473-61.919 107.046-90.254 158.47zm89.205 268.665c59.82-1.049 126.986-1.049 185.757-1.049L517.882 652.7H325.828zM332.125 594.98l95.502-187.856c-1.05 4.198-95.502 187.856-95.502 187.856zm25.187 0c62.969 0 133.283-1.05 193.103-1.05l100.75-186.806h-199.4zm87.107 245.577h188.905c10.495 0 18.89-3.148 22.039-12.594 30.434-51.424 58.77-104.947 89.205-158.47 7.346-12.594 6.297-16.792-9.445-16.792H547.267zm39.88-494.302h189.954L782.35 157.35H581.9zm91.304 247.676H761.36c9.445 0 13.643-3.149 16.791-10.495 31.484-52.474 61.92-109.145 92.354-163.718 5.247-8.396 3.148-12.594-9.445-12.594H674.253zm126.986-247.676c92.354-1.05 154.273-1.05 175.262-1.05 10.495 0 14.693-1.05 18.89-9.445 30.435-54.573 59.82-108.096 91.305-160.57 5.247-7.346 12.594-17.84 0-17.84h-180.51z" style="fill:#000;fill-opacity:1;fill-rule:nonzero;stroke:none;"/>
</svg>
