<svg xmlns="http://www.w3.org/2000/svg" width="1000" height="1000">
  <path d="M916.08 211.395c157.6 231.696 62.334 613.935-201.118 737.428-138.782 65.863-305.791 59.982-437.517-9.409C8.113 801.808-75.39 448.971 98.675 206.69 245.69 2.045 566.77-56.76 776.12 76.14c50.573 32.932 94.09 72.92 129.373 121.141 1.176 1.176 2.352 3.529 3.529 5.88H752.598c-4.704 0-7.056 1.177-9.409 4.705-3.528 4.705-8.232 9.41-11.76 15.29l-74.096 98.794c-30.58 39.988-59.983 79.977-90.562 119.965C529.135 492.488 491.5 543.06 452.687 594.81c-3.528 3.528-7.056 8.232-10.585 14.113V467.789c0-85.857-1.176-171.713 0-257.57 0-5.88-1.176-7.057-7.057-7.057H285.678c-4.704 0-7.057 1.176-9.409 4.704-16.466 27.051-31.755 52.926-48.221 78.8-3.528 5.881-7.057 11.762-11.761 18.819h77.624c4.704 0 5.88 1.176 5.88 5.88-1.176 4.705 0 9.41 0 14.114v482.21c0 8.232 0 8.232 8.233 8.232h169.362c4.704 0 7.057-1.176 9.409-5.88 14.113-19.994 29.403-41.164 43.516-61.159 28.227-39.988 56.454-81.152 84.681-121.14 23.523-34.108 47.045-68.215 70.567-101.147 23.523-34.107 47.045-68.215 70.568-101.146 18.818-27.05 37.636-54.102 56.454-79.976 24.698-35.284 49.397-70.568 74.095-107.027 8.233-10.585 15.29-22.347 23.523-34.108 2.352 3.528 4.704 4.705 5.88 7.057z" style="fill:#000;fill-opacity:1;fill-rule:nonzero;stroke:none;"/>
</svg>
