<svg xmlns="http://www.w3.org/2000/svg" viewBox="0 0 1000 1000"><path d="M236.99 383.486c4.414 1.103 8.827 3.31 11.034 6.62 19.86 17.654 39.721 35.308 57.375 54.065 28.687 25.377 57.375 52.961 82.752 79.442 12.137 8.827 12.137 15.447 0 26.48-40.824 43.032-81.649 87.166-122.473 129.094-3.31 4.414-9.93 7.724-13.24 5.517-4.414-1.103-7.724-6.62-9.93-12.137-1.104-8.827-3.31-16.55-3.31-26.48-2.207-7.724-5.518-11.034-14.344-12.138L99.07 617.4c-17.654-2.207-23.17-11.034-12.137-26.48 38.618-61.79 77.236-124.68 114.75-187.572 8.827-15.447 19.86-18.758 35.308-19.86zM6.389 452.998c-3.31-11.034-1.104-14.344 11.033-18.757a12964.205 12964.205 0 0 1 158.885-50.755c3.31-2.207 8.826 0 12.137 0 0 3.31 0 7.724-2.207 12.137-37.514 60.685-73.925 121.37-111.44 178.745-2.206 5.517-7.723 9.93-13.24 16.55-5.517-6.62-11.034-11.033-11.034-14.343-9.93-26.481-19.86-52.962-28.687-79.443-4.414-14.343-9.93-28.687-15.447-44.134zm27.584-81.649c9.93-19.86 20.964-39.721 33.1-57.375 12.138-20.964 23.171-44.134 36.412-63.995 4.413-8.827 12.137-16.55 19.86-19.86 43.031-26.481 89.373-52.962 134.61-77.236l9.93-7.723c6.62-4.414 13.241-2.207 22.068 4.413 4.413 4.414 8.827 11.034 4.413 19.86-3.31 8.828-8.827 18.758-13.24 27.585-16.55 35.307-35.308 70.615-50.755 108.13-3.31 6.62-8.827 9.93-15.447 13.24-13.24 2.206-22.067 12.137-25.377 24.274-1.103 6.62-6.62 12.137-16.55 15.447-37.515 13.24-73.926 26.48-111.44 41.927l-11.034 1.104c-16.55 0-26.48-16.55-16.55-29.79zm221.776-57.375c0-3.31-2.207-8.827 0-11.033 17.654-38.618 34.204-77.236 50.754-114.75 8.827-23.17 19.86-45.238 28.688-66.202 5.517-12.137 12.137-16.55 25.377-16.55 56.272-2.207 112.543-5.517 167.711-6.62 2.207 0 2.207-2.207 2.207-2.207 5.517 3.31 9.93 6.62 13.24 13.24 3.31 5.517-3.31 11.034-6.62 14.344-13.24 7.723-25.377 16.55-40.824 28.687-73.926 50.755-150.058 104.82-226.19 155.574-2.206 2.207-2.206 2.207-4.413 3.31-3.31 0-6.62 0-9.93 2.207zm2.206 47.445c1.104-6.62 6.62-8.827 13.24-8.827a17361.707 17361.707 0 0 0 331.01-59.582h3.31c4.413 2.207 11.033 2.207 14.343 3.31-1.103 5.517-1.103 9.93-6.62 14.344-39.72 44.135-82.752 89.373-124.68 134.61-22.067 20.964-40.824 44.135-62.891 66.202-3.31 3.31-6.62 5.517-12.137 8.827l-9.93-8.827c-30.895-28.687-60.686-57.375-91.58-87.166-17.654-16.55-34.204-30.894-49.651-46.34-3.31-5.518-8.827-8.828-4.414-16.551zm15.447 374.04c-12.136-13.24-12.136-24.274 0-35.308 41.928-44.134 82.753-90.476 126.887-134.61 9.93-11.034 19.86-11.034 30.894 0 49.652 48.548 97.096 97.096 145.644 144.54 14.344 13.24 11.034 28.688-7.723 37.515-23.17 12.137-48.548 25.377-73.926 35.307-8.827 5.517-18.757 6.62-28.687 8.827-33.1 1.104-68.409 1.104-105.923 3.31-16.55 6.62-29.79-5.516-43.031-18.757-14.344-15.447-29.79-27.584-44.134-40.824zm1.104-404.934c2.207-2.207 3.31-6.62 6.62-7.724 52.961-36.41 103.716-72.822 155.574-109.233 44.135-28.687 88.27-59.581 131.3-89.372 13.24-8.827 16.55-7.724 23.17 4.413 15.448 36.411 31.998 71.719 47.446 107.026 2.206 2.207 2.206 5.517 2.206 6.62 0 8.828-14.343 27.585-22.067 28.688-93.786 15.447-185.365 34.204-278.047 49.651-18.758 3.31-37.515 7.724-57.375 11.034-2.207 0-5.517-1.103-8.827-1.103zm164.4 215.155c-12.136-9.93-9.93-12.137 0-22.067 56.272-60.685 113.647-120.266 169.919-180.951 7.723-7.724 14.343-15.447 20.964-24.274 4.413-1.104 7.723-3.31 11.033-4.414 1.104 3.31 3.31 6.62 3.31 8.827l-9.93 104.82c-5.517 46.34-11.034 92.682-15.447 137.92-6.62 39.72-9.93 80.545-15.447 119.163 0 3.31-1.103 9.93-3.31 9.93-3.31 0-8.827-2.206-9.93-4.413-52.962-47.445-101.51-95.993-151.161-144.54zm169.919-418.174c-2.207-3.31 0-8.827 0-14.344 3.31 0 9.93 0 13.24 2.207 67.305 34.204 132.404 67.305 199.709 100.406 3.31 2.207 5.517 7.723 8.827 11.034-3.31 2.206-6.62 5.516-12.137 6.62-35.308 7.723-70.616 14.343-108.13 20.964-2.207 1.103-5.517 1.103-8.827 1.103-3.31-1.103-6.62-1.103-8.827-5.517-7.723-7.723-16.55-11.033-26.48-12.137-3.31-2.207-8.827-5.517-11.034-8.827-16.55-34.204-29.79-68.408-46.341-101.51zm7.723 677.465v-24.274c0-13.24 2.207-28.688 2.207-40.825 0-7.723 4.413-14.344 9.93-17.654l179.848-115.853c6.62-4.413 13.24-4.413 22.068-3.31 9.93 2.207 16.55 0 25.377 2.207 4.413 0 13.24 0 17.654 3.31 23.17 18.757 44.134 37.514 67.305 57.375 13.24 12.137 13.24 22.067-3.31 34.204-69.512 45.238-136.817 89.373-206.329 135.714-8.827 5.517-12.137 14.343-12.137 25.377 1.103 6.62 1.103 16.55 1.103 23.17 0 8.828-5.516 15.448-12.137 17.655-8.827 3.31-13.24 0-18.757-5.517-23.17-27.584-47.444-52.962-69.512-81.65-1.103-2.206-3.31-6.62-3.31-9.93zm6.62-120.267c3.31-28.687 6.62-57.375 11.034-86.062 9.93-68.409 19.86-137.92 28.688-205.226 3.31-22.067 4.413-44.134 7.723-65.098 2.207-4.414 4.414-7.724 5.517-11.034 3.31 1.104 6.62 3.31 8.827 6.62 43.03 71.72 86.062 142.334 127.99 212.95 2.207 4.413 2.207 12.136 2.207 17.653-2.207 6.62-3.31 13.24-5.517 19.86-1.104 5.518-3.31 12.138-6.62 13.241l-161.091 104.82c-3.31 2.206-9.93 2.206-15.447 2.206-1.104 0-3.31-7.723-3.31-9.93zm78.34-370.73c-12.138-18.757-3.31-39.72 17.653-43.03 39.721-8.828 81.649-15.448 121.37-23.172h6.62v-2.206c6.62 4.413 13.24 8.827 17.654 13.24l86.062 127.99c4.414 9.93 3.31 20.964-4.413 29.79-11.034 15.448-23.17 31.998-33.101 47.446-15.447 18.757-28.688 37.514-44.135 57.374-4.413 7.724-9.93 12.137-19.86 14.344-11.034 0-18.757-5.517-25.378-15.447-23.17-40.824-47.444-79.442-72.821-120.266-15.448-28.688-34.205-57.375-49.652-86.063zm176.537 247.153c-4.413-8.826-2.206-18.757 3.31-25.377 19.86-28.687 41.928-54.065 60.685-82.752 6.62-7.724 9.93-11.034 18.757-8.827 6.62 1.103 9.93 6.62 9.93 13.24 7.724 43.032 16.551 83.856 24.275 126.887 0 3.31 0 5.517-2.207 8.827-3.31 16.55-8.827 34.204-12.137 49.651-6.62 14.344-16.55 19.86-28.687 7.724-22.068-16.55-44.135-36.411-66.202-56.272-6.62-4.413-7.724-11.033-6.62-20.964 0-3.31 0-8.826-1.104-12.137z"/></svg>