<svg xmlns="http://www.w3.org/2000/svg" width="1000" height="1000">
  <path d="M70.095 5c15.997 15.997 34.279 31.993 46.847 44.562 70.843 77.698 140.542 153.11 207.957 231.951 28.565 22.853 49.132 51.418 75.412 78.84 17.14 20.568 17.14 42.278 0 62.845-17.139 20.567-42.277 28.565-66.271 31.993-27.423 3.428-35.422 12.569-38.85 39.992-1.142 35.42-10.283 66.271-27.422 99.407-10.284 19.425-20.567 44.562-10.284 65.13 10.284 17.139 25.138 31.993 36.564 41.134 9.14 11.426 20.567 18.281 30.85 26.28 20.568 20.567 23.996 54.845 2.286 79.983-30.85 35.421-71.985 46.847-118.832 54.846-2.286 0-10.284-3.428-10.284-3.428-17.14-27.423-34.278-55.989-45.705-86.84-15.996-44.561-9.14-86.838 22.853-125.687 9.14-13.711 17.139-25.138 27.423-37.706 28.565-34.279 44.562-73.128 49.132-118.833 3.428-21.71 13.712-37.706 22.852-54.845 7.999-15.997 11.427-26.28 0-42.277-30.85-59.416-93.694-167.965-93.694-178.248 3.428 4.57 6.856 10.283 11.426 13.711 34.279 53.703 69.7 108.549 102.836 159.967 19.424 25.137 34.278 30.85 59.416 20.567 21.71-5.713 25.137-15.997 11.426-33.136-27.423-34.279-54.846-70.842-83.411-105.12-69.7-83.412-138.257-158.825-198.816-244.52-5.713-8-10.283-13.712-13.711-20.568zm117.69 707.28c0 6.855 0 14.854 4.57 18.282 0 5.713 3.428 9.14 5.713 12.568 4.57-3.427 10.284-6.855 13.712-11.426 3.427-12.569-5.714-19.424-23.995-19.424zm137.114 137.114c2.285-7.999 4.57-11.426 9.14-15.997 50.276-38.849 101.693-65.129 164.537-61.701 65.13 3.428 113.12 38.849 122.26 103.978 2.286 17.14 5.713 34.278 9.141 53.703 11.426 37.706 28.566 46.847 70.843 43.42 7.998 0 17.139-3.428 28.565-3.428-25.138 28.565-76.555 36.563-102.836 6.855-12.568-13.711-23.995-34.278-36.563-51.418-15.997-23.994-26.28-49.132-42.277-66.271-15.997-17.14-36.564-25.138-59.416-17.14-20.567 3.428-36.564 23.995-31.993 41.135 3.427 21.71 23.994 34.278 45.704 34.278 13.712-3.428 25.138-12.569 25.138-26.28 0-17.14-7.999-25.138-21.71-28.565-13.711-3.428-20.567 3.427-28.565 20.567-5.713-12.57 0-28.566 18.281-31.994 12.57-1.142 35.422 3.428 41.135 19.425 11.426 12.569 11.426 38.849-4.57 51.418-15.997 20.567-46.848 23.995-75.413 7.998-10.284-7.998-22.853-19.425-35.422-28.565-20.567-25.138-46.847-42.277-78.84-46.848-7.998 0-14.854-3.428-17.14-4.57zm44.562-604.445c-3.428-30.85 4.57-34.278 27.422-22.852 47.99 11.426 33.136 22.852 83.411 158.824-7.998 3.428-12.568 6.856-20.567 3.428-26.28-7.999-45.704-27.423-59.416-47.99-20.567-27.423-30.85-59.416-30.85-91.41zm17.139-50.275c26.28-12.568 58.273 0 84.554 15.997 23.994 17.14 44.562 34.278 60.558 54.846 11.426 7.998 21.71 11.426 35.421 11.426 70.843-14.854 133.687 0 188.532 35.42 11.426 4.571 17.14 17.14 17.14 28.566 0 15.997-1.143 35.421-1.143 54.846 0 6.856 1.142 12.569 1.142 20.567 20.567 0 38.85-33.136 38.85-52.56 28.565 12.568 62.843 79.983 54.845 103.978-3.428 0-3.428-3.428-5.713-3.428-20.567-28.566-53.703-33.136-84.554-37.706-41.134-5.714-83.41-10.284-123.402-18.282-39.992-7.999-62.844-36.564-89.125-65.13-20.567-26.28-41.134-52.56-61.7-77.697-28.566-35.422-62.845-58.274-108.55-70.843zm10.283 311.935c-3.427-20.567 11.427-44.562 31.994-47.99h22.852c19.425 3.428 34.279 14.854 33.136 36.564 0 35.42-28.565 35.42-51.418 35.42-25.137 0-36.564-6.855-36.564-23.994zm28.566-28.566c3.428 4.57 10.283 11.426 18.282 17.14l15.996-17.14c-7.998-2.285-13.711-10.283-15.996-10.283-7.999 0-10.284 7.998-18.282 10.283zm34.278 261.66c7.999-7.999 11.427-9.141 17.14-12.57 30.85-7.998 62.844-14.853 93.694-26.28 15.997-2.285 25.138-2.285 39.992-4.57 51.418-19.424 74.27-59.416 61.701-113.119v-21.71c36.564 38.85 31.993 98.265-2.285 134.83-20.567 15.996-46.847 26.28-70.842 30.85-45.705 4.57-91.41 9.14-131.401 15.996-3.428 0-3.428-3.427-7.999-3.427zm147.398-313.077c0-7.999 5.713-13.712 13.711-7.999 43.42 30.85 92.552 28.566 142.827 39.992 43.42 10.283 90.267 19.424 126.83 59.416 44.563 45.705 54.846 103.978 12.57 178.248-11.426-57.13-55.989-78.84-101.693-99.408-37.707-17.139-76.556-35.42-116.547-51.417-26.28-14.854-54.846-35.421-67.415-67.415-6.855-13.711-6.855-34.278-10.283-51.417zm105.12 181.676c1.143-25.138 5.714-25.138 27.423-13.712 27.423 17.14 59.417 34.279 91.41 51.418 102.835 69.7 75.413 212.527-7.998 262.802-3.428 1.142-11.427 4.57-19.425 7.998 0-65.129 30.85-38.849-2.285-114.262-20.567-38.848-45.705-71.984-69.7-106.263-13.711-28.565-22.852-57.13-19.424-87.981zm9.142-342.785v-3.428c10.283 3.428 22.852 7.998 34.278 11.426 26.28 6.856 25.138-14.854 28.566-54.846 6.855 26.28 6.855 51.418 17.139 71.985 10.283 21.71 30.85 34.279 45.704 54.846v4.57c-1.142-1.37-39.991-25.137-39.991-25.137-4.57 10.055-15.883 47.533-18.282 55.874V345.5c0-30.85-21.71-55.988-67.414-79.983zM788.8 380.92v-.114c-.571 2.056-.686 2.4 0 .114z" style="fill:#000;fill-opacity:1;fill-rule:nonzero;stroke:none;"/>
</svg>
