<svg xmlns="http://www.w3.org/2000/svg" width="1000" height="1000">
  <path d="M5 500.496c0 271.98 220.55 494.507 495.496 494.507 271.98 0 494.507-220.55 494.507-495.496C995.003 227.528 773.464 5 500.496 5 226.54 5 5 225.55 5 500.496zm113.737.99c3.956-211.65 174.066-381.76 381.76-385.716 228.461-2.967 398.572 187.912 391.649 385.715 6.923 202.748-163.188 387.694-384.727 387.694-214.616 0-388.682-177.034-388.682-387.694zm27.692 81.098c13.846 61.32 40.55 115.715 82.088 159.232 2.967 3.956 12.857 7.912 16.813 7.912 16.814-7.912 20.77-20.77 6.924-34.616-2.967-2.967-6.924-10.879-6.924-12.857-68.242-89.011-85.055-190.88-54.395-296.704 12.857-44.506 37.582-85.055 65.275-119.671 9.89-6.923 5.934-12.857 0-20.77-3.956-5.933-6.923-8.9-10.88-16.813-5.934 3.957-9.89 7.913-13.846 10.88-81.099 90.989-108.791 200.77-85.055 323.407zm51.429-54.395c3.956 16.813 3.956 37.582 9.89 58.351 27.692 121.65 150.33 219.562 275.935 227.474 14.835 0 16.813-3.956 16.813-16.814 0-13.846-5.934-17.802-16.813-17.802-132.528-12.857-234.396-114.725-252.199-234.396 0-10.88 0-16.813-2.967-23.737-3.956-13.846-13.846-9.89-24.725-9.89-9.89 0-9.89 9.89-5.934 16.814zm0-54.396c0 12.857 3.956 16.813 16.813 19.78 13.846 0 13.846-8.901 16.813-19.78C245.33 337.309 351.155 235.44 483.683 225.55c16.813 0 16.813-10.879 16.813-20.77 0-14.834-9.89-14.834-16.813-14.834-81.1 3.956-170.11 56.373-221.54 120.66-37.582 47.472-60.33 101.868-64.285 163.187zm51.429 27.692c-3.957 138.462 111.758 261.1 258.132 261.1 142.418 0 263.078-118.682 259.122-261.1 3.956-133.517-116.704-263.078-266.045-259.122-136.484 3.956-251.21 118.682-251.21 259.122zm9.89-263.078c2.967 17.803 23.736 20.77 33.626 9.89 126.594-105.824 309.562-101.868 429.232 3.957 16.814 12.857 20.77-3.957 31.649-5.935 5.934-7.912 1.978-14.835-3.956-20.769-68.242-58.352-149.341-89.011-249.232-92.967-1.978 0-16.813 3.956-26.703 3.956-81.1 5.934-149.341 40.55-211.65 90.99 0 0-2.966 7.911-2.966 10.878zm2.967 520.222c-5.934 7.912-5.934 14.835 3.956 20.77 78.132 66.263 164.176 95.934 265.056 89.01 79.12-3.956 147.363-30.659 207.693-78.132 24.725-20.769 24.725-20.769-3.956-44.505-151.32 118.681-302.639 116.703-455.936 0-6.923 3.956-8.901 10.879-16.813 12.857zm255.165 41.538c0 13.847 10.88 13.847 17.803 13.847 146.374-13.847 268.023-132.528 282.858-282.858 0-6.924 5.934-16.814-10.88-19.78-13.846 0-19.78 2.966-23.736 19.78 0 17.802-2.967 34.615-10.879 51.428-37.582 115.715-118.682 180-241.32 196.814-13.846 3.956-13.846 10.88-13.846 20.77zm0-595.386c0 9.89 0 20.77 13.847 20.77 23.736 1.977 52.417 5.933 75.165 16.812 101.868 40.55 164.176 118.682 177.033 231.43 3.956 16.813 9.89 19.78 23.737 16.813 16.813 0 10.879-9.89 10.879-20.77-3.956-16.813-6.923-33.626-10.88-51.428-30.659-122.638-146.374-217.583-271.978-228.462-9.89 0-17.803 0-17.803 14.835zm238.353 514.287c-12.857 16.814 3.956 20.77 10.879 26.704 5.934 10.879 13.846 3.956 20.77-3.956 90.989-115.715 111.758-240.33 57.362-380.77-13.846-40.55-37.582-78.133-72.198-112.749-1.978 3.957-5.934 7.913-5.934 10.88C749.728 275 749.728 275 763.574 293.792c26.703 29.67 43.517 64.286 56.374 101.869 35.604 118.681 18.791 227.473-64.286 323.407z" style="fill:#000;fill-opacity:1;fill-rule:nonzero;stroke:none;"/>
</svg>
