<svg xmlns="http://www.w3.org/2000/svg" viewBox="0 0 1000 1000"><path d="M586.946 517.39c40.574 0 73.033 32.46 73.033 73.034 0 39.414-32.459 73.033-73.033 73.033s-74.192-31.3-74.192-71.874c0-41.733 33.618-74.192 74.192-74.192zM5 584.629c0-19.708 17.389-35.937 37.096-35.937 20.867 0 37.096 15.07 37.096 35.937 0 20.866-16.23 35.936-37.096 37.096C22.39 621.724 5 605.494 5 584.628zM5 407.26c0-19.707 17.389-37.096 38.255-37.096 19.708 0 35.937 17.39 35.937 38.256-1.159 18.548-18.548 35.937-37.096 35.937C22.39 444.358 5 425.81 5 407.26zm166.933 177.367c0-31.3 23.185-54.485 54.485-54.485 30.14 0 53.325 24.344 53.325 54.485 0 30.14-24.344 54.485-53.325 53.325-31.3 0-54.485-23.185-54.485-53.325zm0-177.367c0-28.98 23.185-55.644 54.485-55.644 30.14 0 53.325 26.663 53.325 55.644 0 28.982-23.185 55.645-53.325 55.645-30.14 0-54.485-26.663-54.485-55.645zm163.455 183.163c1.159-40.574 32.459-73.033 74.192-73.033 40.574 0 73.033 33.618 73.033 75.351 0 39.415-33.618 70.715-74.192 70.715-41.733 0-73.033-31.3-73.033-73.033zm0-180.844c0-40.574 31.3-73.033 73.033-73.033 39.414 0 74.192 31.3 74.192 70.714 0 42.893-32.459 75.352-74.192 75.352-40.574 1.16-71.874-32.46-73.033-73.033zm19.707 361.688c0-28.982 24.344-53.326 53.326-53.326 31.3 0 55.644 25.503 55.644 55.644-1.16 28.981-24.344 53.326-55.644 53.326-28.982 0-53.326-24.345-53.326-55.644zm0-547.169c0-27.822 23.185-53.326 53.326-53.326 31.3 0 54.485 24.345 55.644 53.326 0 30.14-24.344 55.644-55.644 55.644-28.982 0-53.326-24.344-53.326-55.644zm18.548 733.809c0-20.867 13.911-34.778 33.619-34.778 22.025-1.16 38.255 13.911 39.414 34.778 0 19.707-18.548 37.096-38.255 37.096-19.708 0-34.778-17.389-34.778-37.096zm0-916.971C373.643 20.07 388.713 5 409.58 5c19.707 0 37.096 16.23 37.096 35.937 0 20.866-18.548 37.096-38.255 37.096-20.867 0-34.778-16.23-34.778-37.096zM522.028 408.42c0-40.574 32.459-71.874 74.192-71.874 40.574 0 73.033 32.46 73.033 73.033 0 40.574-34.777 73.033-74.192 73.033-40.574 0-71.874-32.46-73.033-74.192zm10.433 365.165c0-31.3 24.344-55.644 54.485-55.644 30.14 0 53.326 24.344 53.326 55.644 0 30.14-24.345 53.326-53.326 53.326-31.3 0-54.485-24.345-54.485-53.326zm0-550.646c0-27.822 23.185-52.167 54.485-52.167 30.14 0 53.326 25.504 53.326 55.645 0 28.981-24.345 53.325-53.326 53.325-31.3 0-54.485-24.344-54.485-56.803zm17.389 734.968c0-20.867 16.23-34.778 37.096-34.778 19.707-1.16 35.937 13.911 35.937 34.778 0 19.707-15.07 37.096-35.937 37.096-20.867 0-37.096-16.23-37.096-37.096zm0-916.971C549.85 21.23 566.08 5 586.946 5c20.867 0 35.937 16.23 35.937 35.937 0 20.866-16.23 37.096-35.937 37.096-20.867-1.16-37.096-15.07-37.096-37.096zm168.092 543.69c0-31.3 25.503-54.484 55.644-54.484 30.14 0 53.326 24.344 53.326 54.485 0 30.14-24.345 54.485-54.485 53.325-28.982 0-54.485-24.344-54.485-53.325zm0-177.365c0-28.982 25.503-55.645 55.644-55.645 28.981 0 53.326 26.663 53.326 56.804-1.16 27.822-25.504 54.485-54.485 54.485-28.982 0-54.485-27.822-54.485-55.645zM921.97 584.627c1.159-20.867 17.389-35.937 38.255-35.937 19.708 0 34.778 15.07 34.778 35.937 0 20.866-13.911 35.936-34.778 37.096-19.707 0-38.255-16.23-38.255-37.096zm0-177.367c0-19.707 17.389-37.096 38.255-37.096 19.708 0 34.778 17.39 34.778 37.096 0 19.708-15.07 37.097-34.778 37.097-19.707 0-37.096-17.39-38.255-37.097z"/></svg>