<svg xmlns="http://www.w3.org/2000/svg" viewBox="0 0 1000 1000"><path d="M500.496 5C223.572 5 5 229.506 5 500.002c0 276.43 224.506 495.001 495.002 495.001 276.43 0 495.001-224.506 495.001-495.001C995.003 226.539 773.464 5 500.496 5zM234.451 794.233V757.64c0-2.967.99-6.923 2.967-8.901 0 0 195.825-270.99 199.781-276.924.99-1.978 3.956-4.945 6.923-9.89H266.1c-4.945 0-6.923-2.967-6.923-6.924v-52.417c0-3.956 1.978-6.923 6.923-6.923h274.946s9.89-.99 9.89 9.89v28.681c0 4.945-.99 6.923-1.978 8.901-116.704 161.21-184.946 257.144-206.704 286.814h209.67c3.957 0 6.924 2.968 6.924 6.924v52.417c0 4.945-2.967 7.912-6.923 7.912-104.836 0-206.704-2.967-310.55-2.967zm352.09-223.517v-66.264c0-3.956.988-7.912 4.944-10.879 8.902-4.945 39.561-23.736 48.462-28.681v-240.33c0-4.946 1.978-7.913 6.923-7.913h70.22c3.956 0 6.923 2.967 6.923 7.912v198.792c0 2.967 36.594-23.736 57.363-37.583l.99 61.32c0 11.868-.99 13.846-5.935 16.813-8.901 5.934-16.813 9.89-39.56 22.747l-12.858 8.901c0 107.21 0 222.627 1.978 232.418 0 5.935 4.945 9.89 11.869 9.89h9.89c11.868 0 13.846 12.858 15.824 35.605l2.967 12.857c.989 14.835-12.857 19.78-35.605 19.78-47.472 0-71.209-11.868-83.077-43.516-4.945-12.857-7.912-25.714-7.912-42.528v-180.99c-18.791 9.89-34.615 19.781-53.407 31.65zm137.472-75.165c-.989 0 0-1.978 0-1.978z"/></svg>