<svg xmlns="http://www.w3.org/2000/svg" width="1000" height="1000">
  <path d="M500.496 5C223.572 5 5 229.506 5 500.002c0 276.43 224.506 495.001 495.002 495.001 276.43 0 495.001-224.506 495.001-495.001C995.003 226.539 773.464 5 500.496 5zM110.825 522.254V476.76c9.89-90 67.252-143.407 159.23-122.638 39.561 8.901 67.254 43.517 72.199 82.088 0 7.912 0 15.824-11.868 15.824-27.693 0-32.638 0-39.56-22.747-11.869-19.78-23.737-25.714-46.485-31.648-27.692-3.956-48.461 0-63.296 22.747-19.78 31.648-19.78 68.242-14.836 98.901 0 10.88 2.967 23.737 6.923 35.605 11.869 26.703 30.66 37.582 58.352 37.582 27.693 0 42.528-10.879 54.396-34.615 16.813-30.66 20.77-30.66 51.429-23.736 7.912 47.472-39.56 98.901-92.968 101.868-71.209 4.945-133.516-48.462-133.516-113.737zM356.1 354.122c20.77 0 36.594-2.967 51.429 0 9.89 0 12.857 8.901 15.824 15.824 19.78 50.44 35.605 101.869 56.374 152.308 2.967 7.913 4.945 13.847 10.879 23.737 3.956-6.923 3.956-11.868 6.923-18.791 14.835-50.44 35.605-100.88 50.44-153.298 4.945-15.824 11.868-22.747 32.637-22.747h29.67c-41.538 120.66-81.098 238.352-124.615 352.09h-2.967C439.177 589.506 396.65 471.814 356.1 354.121zm83.077 8.901c-3.956-11.868-3.956-11.868 0-16.813 15.825-14.835 27.693-29.67 43.517-50.44 17.802 20.77 34.615 35.605 50.44 50.44 3.956 4.945 3.956 7.912 3.956 11.868-15.825 47.473-36.594 93.956-51.43 141.43 0 0-.988 0-2.966-3.957-15.824-48.462-32.638-90-43.517-132.528zm203.737 229.451V373.902c0-22.747 0-22.747 23.737-22.747 54.395 2.967 33.626-7.912 66.264 38.572 26.703 42.527 59.34 87.033 85.055 129.56 3.956 4.945 3.956 7.913 12.857 14.836v-160.22c0-15.825 2.967-22.748 18.791-22.748 11.868 0 26.704 1.978 39.56 2.967v274.946c-15.823 0-35.604 3.956-51.428 0-6.923 0-15.824-8.901-19.78-16.813-34.616-51.429-70.22-102.858-99.89-152.308-4.946-7.913-8.902-12.858-17.803-18.792V608.3c0 14.835-2.967 19.78-17.802 20.769-51.429 0-39.56 0-39.56-36.594z" style="fill:#000;fill-opacity:1;fill-rule:nonzero;stroke:none;"/>
</svg>
