<svg xmlns="http://www.w3.org/2000/svg" width="1000" height="1000">
  <path d="M500.496 5C223.572 5 5 229.506 5 500.002c0 276.43 224.506 495.001 495.002 495.001 276.43 0 495.001-224.506 495.001-495.001C995.003 226.539 773.464 5 500.496 5zM165.22 724.013C299.726 559.837 435.221 396.65 576.65 229.506c8.901 17.802 11.868 33.627 18.792 48.462 27.692 91.978 59.34 184.946 89.01 275.935 6.924 31.648 6.924 31.648 37.583 24.725 51.43-14.835 105.825-27.692 155.276-42.527h14.835c-26.704 34.615-49.45 64.286-74.176 91.978-21.759 31.648-44.506 58.352-68.242 89.011-10.88 9.89-19.78 14.835-34.616 14.835-15.824 0-19.78-14.835-23.736-23.736-40.55-102.857-81.1-209.67-122.638-315.495 0-2.967-2.967-6.924-2.967-9.89C454.013 488.627 346.21 597.42 238.407 704.233c33.627-6.924 70.22-17.803 103.847-26.704 92.967-21.759 181.979-45.495 268.023-69.231 4.945-2.967 12.857-2.967 16.813-2.967 7.912 2.967 10.88 6.923 19.78 9.89-3.956 9.89-8.9 16.813-16.813 16.813-34.615 10.88-72.198 20.77-105.824 27.692-104.836 22.748-207.693 44.506-309.562 67.253-14.835 4.945-30.66 4.945-45.495 4.945-3.956-4.945-3.956-4.945-3.956-7.912zm541.98-91.978c7.912 20.77 11.868 34.616 18.791 57.363 23.737-29.67 39.561-57.363 58.352-84.066l-3.956-4.945c-23.736 4.945-41.538 7.912-61.319 14.835-3.956 0-11.868 12.857-11.868 16.813z" style="fill:#000;fill-opacity:1;fill-rule:nonzero;stroke:none;"/>
</svg>
