<svg xmlns="http://www.w3.org/2000/svg" width="1000" height="1000">
  <path d="M5 500.496c0 271.98 220.55 494.507 495.496 494.507 271.98 0 494.507-220.55 494.507-495.496C995.003 227.528 773.464 5 500.496 5 226.54 5 5 225.55 5 500.496zm253.188-239.341c0-1.978 10.879-8.901 13.846-8.901 37.582-3.957 72.198 0 110.77 0 13.846-3.957 13.846 3.956 13.846 12.857 0 108.791 0 220.55 3.956 331.32 0 27.692 4.945 60.33 15.824 87.033 20.77 42.527 71.209 59.34 128.572 46.483 43.516-6.923 79.121-44.505 79.121-90.989 2.967-62.308 2.967-125.605 2.967-185.935V314.561c57.363 46.484 91.978 42.528 142.418 0v304.617c0 129.56-88.022 226.484-214.616 238.352-70.22 6.923-132.528 0-189.89-37.582-66.265-35.605-103.847-96.924-103.847-169.122-2.967-128.572-2.967-256.154-2.967-389.671zm365.935-58.352c2.967-38.572 36.593-68.242 72.198-68.242 39.56 0 73.187 33.626 73.187 68.242 0 42.527-33.626 74.176-73.187 74.176-39.56-4.945-72.198-31.649-72.198-74.176z" style="fill:#000;fill-opacity:1;fill-rule:nonzero;stroke:none;"/>
</svg>
