<svg xmlns="http://www.w3.org/2000/svg" viewBox="0 0 1000 1000"><path d="M5 500.496c0 271.98 220.55 494.507 495.496 494.507 271.98 0 494.507-220.55 494.507-495.496C995.003 227.528 773.464 5 500.496 5 226.54 5 5 225.55 5 500.496zm166.154-236.374c30.66-4.945 57.363-4.945 87.034 1.978 89.011 15.824 159.231 63.297 199.78 148.352 6.924 13.846 9.89 29.67 13.847 45.495.989 4.945 6.923 6.923 7.912 6.923 18.791 1.978 39.56 0 57.363 0 36.593-171.1 215.605-220.55 303.627-197.803-7.912 19.78-17.802 39.56-26.703 60.33-2.967 4.945-8.901 4.945-13.846 4.945-72.199 3.956-130.55 30.66-167.144 96.923-5.934 8.901-9.89 21.758-16.813 37.583h83.077c-10.88 24.725-20.77 47.472-29.67 67.253-2.967 4.945-6.923 4.945-10.88 4.945h-38.571c3.956 26.703 15.824 47.472 31.648 66.264 40.55 43.516 90 64.286 148.353 66.264 6.923 0 10.879.989 15.824 9.89 6.923 19.78 16.813 37.582 24.725 59.34-19.78 0-38.571 2.968-59.34 0-99.891-7.911-177.034-52.417-224.507-145.384-8.901-13.847-12.857-31.649-17.802-46.484-1.978-6.923-4.945-9.89-10.88-9.89h-52.417c-.99 0-2.967 5.934-3.956 9.89-27.693 99.89-97.913 158.242-192.858 183.957-30.66 6.923-61.319 4.945-90.99 6.923h-13.846c9.89-22.748 18.792-45.495 29.67-65.275 0-2.967 6.924-4.945 11.87-4.945 81.098-7.913 143.406-46.484 168.131-127.583-26.703-2.967-53.406-2.967-81.099-4.945 11.868-23.737 22.748-50.44 30.66-71.21 2.967-.988 4.945-.988 9.89-.988h43.517c-12.858-42.528-32.638-75.165-65.275-96.924-32.638-24.725-68.242-35.604-105.825-35.604-11.868 0-16.813-4.945-19.78-12.857-7.912-21.759-16.813-36.594-24.726-57.363z"/></svg>