<svg width="1000" height="1000" viewBox="0 0 1000 1000" fill="none" xmlns="http://www.w3.org/2000/svg">
<path d="M289 2L87 204H251C273 124 359 17 385 2H289Z" fill="black"/>
<path d="M483 204V2H437C351.4 63.6 302.667 162.333 289 204H483Z" fill="black"/>
<path d="M522 204H718C672.4 95.2 598.333 24 567 2H522V204Z" fill="black"/>
<path d="M756 204H915L711 2H621C685.8 61.2 731 144 756 204Z" fill="black"/>
<path d="M713 1000L915 798L751 798C729 878 643 985 617 1000L713 1000Z" fill="black"/>
<path d="M519 798L519 1000L565 1000C650.6 938.4 699.333 839.667 713 798L519 798Z" fill="black"/>
<path d="M480 798L284 798C329.6 906.8 403.667 978 435 1000L480 1000L480 798Z" fill="black"/>
<path d="M246 798L87 798L291 1000L381 1000C316.2 940.8 271 858 246 798Z" fill="black"/>
<path d="M469.747 584.5C469.747 609.2 466.28 631.516 459.346 651.45C452.413 670.95 442.88 687.633 430.747 701.5C418.613 714.933 404.096 725.333 387.196 732.7C370.296 739.633 351.88 743.1 331.946 743.1C311.58 743.1 292.946 739.633 276.046 732.7C259.146 725.333 244.63 714.933 232.496 701.5C220.363 688.066 210.83 671.6 203.896 652.1C197.396 632.6 194.146 610.716 194.146 586.45C194.146 561.316 197.396 537.916 203.896 516.25C210.83 494.15 219.713 472.7 230.546 451.9L321.546 273.8H406.696L313.097 449.3L313.747 449.95C318.513 445.616 324.58 442.366 331.946 440.2C339.746 438.033 347.113 436.95 354.046 436.95C369.213 436.95 383.73 439.983 397.596 446.05C411.896 451.683 424.246 460.566 434.646 472.7C445.48 484.4 453.93 499.566 459.997 518.2C466.497 536.833 469.747 558.933 469.747 584.5ZM395.646 583.85C395.646 556.983 390.447 534.883 380.046 517.55C369.646 500.216 354.046 491.55 333.246 491.55C323.28 491.55 314.396 493.933 306.596 498.7C298.796 503.466 292.08 510.183 286.446 518.85C280.813 527.083 276.48 536.833 273.446 548.1C270.413 559.366 268.896 571.716 268.896 585.15C268.896 613.316 274.53 636.066 285.796 653.4C297.063 670.3 312.663 678.75 332.597 678.75C352.53 678.75 367.913 670.083 378.747 652.75C390.013 634.983 395.646 612.016 395.646 583.85Z" fill="black"/>
<path d="M593.246 734V273.8H799.297V342.7H667.996V464.9H789.547V528.6H667.996V664.45H805.797V734H593.246Z" fill="black"/>
</svg>
