<svg xmlns="http://www.w3.org/2000/svg" viewBox="0 0 1000 1000"><path d="M194.587 157.844c96.585-28.77 170.564 13.357 223.994 106.86 5.137 8.219 2.055 13.356-3.083 17.466l-72.952 42.128c-6.165 3.082-13.357 2.055-16.44-5.138-20.55-41.1-53.43-60.622-87.336-60.622-47.265 0-79.117 32.88-79.117 73.98 0 42.127 29.797 58.567 90.419 88.364 32.88 16.44 63.704 29.797 87.337 46.237 66.787 44.182 99.666 93.502 99.666 168.508 0 91.447-75.006 189.059-157.206 203.444-79.117 19.522-220.91-27.743-274.34-189.059-2.055-7.192 2.055-13.357 9.247-14.385l81.172-14.384c6.165-1.028 11.303 1.027 13.358 8.22 27.742 81.171 62.677 109.941 117.134 109.941 57.54 0 100.694-45.21 100.694-103.777 0-65.759-57.54-94.529-123.3-125.353-72.951-33.908-155.15-75.007-155.15-177.757 0-84.254 54.457-147.958 145.903-174.673zM545.99 626.38c0-2.055 3.083-5.137 6.165-5.137h93.502c7.193 0 8.22 1.027 9.248 3.082 35.962 89.392 67.814 120.217 123.299 120.217 58.567 0 103.776-47.265 103.776-107.887 0-65.76-58.567-96.584-127.409-128.436-77.062-35.963-162.343-76.035-162.343-183.921 0-83.227 54.457-148.987 151.04-175.701V73.59c0-3.083 2.056-5.138 5.138-5.138h83.227c4.11 0 6.165 2.055 6.165 5.138v73.979c63.704 10.275 139.739 69.87 154.124 160.289 1.027 6.165-1.028 11.302-3.083 11.302H890.2c-5.137 0-6.165 1.028-6.165-1.027-14.385-42.128-50.347-67.815-94.53-67.815-45.209 0-81.17 31.852-81.17 73.98 0 43.154 30.824 61.65 94.528 91.446 123.3 56.512 192.141 105.832 192.141 220.911 0 99.667-66.787 190.086-157.206 210.636v79.117c0 3.082-2.055 5.137-6.165 5.137h-83.227c-3.082 0-5.137-2.055-5.137-5.137v-73.98c-121.244-25.687-174.674-86.31-197.279-226.048z"/></svg>