<svg xmlns="http://www.w3.org/2000/svg" width="1000" height="1000">
  <path d="M748.628 928.884H252.499c-25.993-45.205-51.986-89.28-76.849-134.485-50.856-87.02-101.712-175.171-153.698-263.322-4.52-9.04-9.041-19.212-16.952-29.383v-3.39c1.13-1.13 3.39-2.26 4.52-5.651 10.172-16.952 20.343-33.904 30.514-53.116 31.644-56.507 65.548-114.144 98.322-170.65 38.424-64.418 75.719-129.966 114.143-197.774h496.129l117.534 203.424c36.164 62.157 71.198 124.315 107.363 184.212 6.78 13.561 14.691 27.123 21.472 39.555v3.39c-1.13 2.26-2.26 3.39-2.26 5.65-41.815 71.199-83.63 143.528-125.445 213.596-39.555 70.068-79.11 137.876-118.664 207.944zm-542.464-423.8c46.335 81.37 93.8 163.87 142.397 245.24 2.26 5.65 4.52 7.91 12.431 7.91h281.403c4.52 0 9.041-2.26 11.302-6.78 47.465-81.37 94.931-163.87 142.397-244.11 2.26-5.65 2.26-9.04 0-12.43l-38.425-68.939c-36.164-58.767-70.068-118.664-103.972-179.691-2.26-3.39-5.65-4.52-10.171-4.52-96.062 0-189.863 0-284.794-1.13-6.78 0-9.041 2.26-12.432 5.65-22.602 39.554-44.075 79.11-67.808 118.664-22.602 44.075-48.595 85.89-72.328 129.965-4.52 3.39-4.52 5.65 0 10.171z" style="fill:#000;fill-opacity:1;fill-rule:nonzero;stroke:none;"/>
</svg>
