<svg xmlns="http://www.w3.org/2000/svg" viewBox="0 0 1000 1000"><path d="M249.16 64.775c27.96 40.118 48.628 76.59 69.295 109.414 54.707 99.689 114.277 204.24 176.278 303.928 7.294 14.589 7.294 27.962 0 47.413-75.374 131.297-148.317 258.947-224.907 386.597-6.078 8.51-6.078 14.588-13.373 23.098-7.294-8.51-12.157-14.588-19.45-27.961C162.842 784.477 88.684 656.827 19.39 534.04c-13.373-21.883-20.668-41.334-7.295-63.217 76.59-120.356 150.749-250.437 218.829-370.792 6.078-14.589 13.372-23.099 18.235-35.256zm117.923 870.45c74.159-122.787 142.239-245.574 209.103-359.85 0-8.51 14.588-14.59 20.667-14.59 41.334-8.51 72.943 0 121.571 0-26.745 46.198-54.707 96.042-80.237 142.24-41.334 74.158-82.668 136.159-116.708 209.102-12.157 14.588-26.746 23.098-47.413 23.098zm6.079-861.94v-8.51h115.493c6.078 0 20.667 8.51 25.53 12.157C583.48 202.151 650.345 316.428 718.425 438v14.588c-40.12 0-80.238 0-121.572-7.294-6.079 0-13.373-7.294-20.667-12.157-66.864-116.708-134.944-238.28-203.024-359.851zm237.064 861.94c46.197-76.59 87.531-144.67 121.571-218.828 40.119-59.57 74.159-121.571 109.414-182.357 13.373-21.883 20.667-41.334 0-68.08-69.295-124.003-143.454-245.574-209.102-365.93-7.295-8.51-7.295-23.098-21.883-35.255h136.16c6.078 0 13.373 12.157 20.667 20.667C841.21 220.386 915.37 350.467 989.528 478.117c7.295 14.589 7.295 34.04 0 41.335-74.158 137.375-148.317 265.025-229.77 392.675 0 8.51-13.372 23.098-27.96 23.098z"/></svg>