<svg xmlns="http://www.w3.org/2000/svg" viewBox="0 0 33 32">
	<path
		d="M16.4 31.8c8.7 0 15.8-7.1 15.8-15.8C32.2 7.3 25.1.2 16.4.2 7.7.2.6 7.3.6 16c0 8.7 7.1 15.8 15.8 15.8zM6.9 9.1l4.7-4.7h2.2c-.6.3-2.6 2.8-3.1 4.7H6.9zM16 4.5v4.7h-4.5c.3-1 1.4-3.2 3.4-4.7H16zm.9 4.6h4.5c-1.1-2.5-2.8-4.2-3.5-4.7h-1v4.7zm9.1 0h-3.7c-.6-1.4-1.6-3.3-3.1-4.7h2.1L26 9.1zM10.5 22.9H6.9l4.7 4.7h2.1c-1.5-1.4-2.6-3.4-3.2-4.7zm.9 0h4.5v4.7h-1c-.7-.6-2.4-2.2-3.5-4.7zm5.4 0v4.7h1.1c2-1.4 3.1-3.7 3.4-4.7h-4.5zm4.5 4.6l4.7-4.7h-3.8c-.5 1.8-2.5 4.3-3.1 4.7h2.2zM13.6 21c-.3.1-.6.1-.9.1s-.6 0-.9-.1c-.3-.1-.6-.2-.8-.3-.3-.2-.5-.4-.7-.6-.2-.3-.3-.5-.4-.8-.1-.3-.1-.6-.1-.9v-6.9h1.6v6.9c0 .2 0 .3.1.5s.1.3.3.5c.1.1.3.2.4.3.2.1.3.1.5.1s.3 0 .5-.1.3-.2.4-.3c.1-.1.2-.3.2-.5.1-.2.1-.3.1-.5v-6.9h1.6v6.9c0 .3 0 .6-.1.9-.1.3-.2.6-.4.8-.2.3-.4.5-.6.6-.2.1-.4.3-.8.3zm5.1 0H17l2.4-4.8-2.4-4.8h1.7l1.5 3.1 1.5-3.1h1.7L21 16.2l2.4 4.8h-1.7l-1.5-3.1-1.5 3.1z"
		fill-rule="evenodd" clip-rule="evenodd" />
</svg>