<svg xmlns="http://www.w3.org/2000/svg" viewBox="0 0 1000 1000"><path d="M846.5 537.595c0 264.418-144.114 457.406-483.722 457.406-22.557 0-52.633 0-76.443-5.013v-447.38l-120.304 42.608c-8.772 3.76-12.531-1.254-12.531-10.026v-55.139c0-6.266 2.506-11.279 10.025-15.038l122.81-45.114v-73.937L166.031 428.57c-8.772 3.76-12.531 0-12.531-8.772v-57.646c0-6.266 2.506-13.785 10.025-16.291l122.81-43.86V16.277C286.335 10.013 291.348 5 300.12 5h104.013a11.232 11.232 0 0 1 11.278 11.278V258.14l253.14-90.228c8.772-3.759 13.784 1.254 13.784 10.026v53.886c0 5.013-5.012 11.278-11.278 12.532L415.41 337.089v78.95l248.127-90.229c7.519-2.506 13.785 1.253 13.785 8.772v52.633c0 6.266-3.76 11.279-10.026 13.785L415.41 494.988v388.48c164.165-8.771 315.798-100.252 315.798-345.873 0-8.772 6.266-12.531 12.531-12.531h92.735c5.012 0 10.025 5.012 10.025 12.531z"/></svg>