<svg xmlns="http://www.w3.org/2000/svg" width="1000" height="1000">
  <path d="M5 500.496c0 89.011 22.747 172.089 67.253 249.232 44.506 74.176 103.846 133.517 178.023 178.022 77.143 44.506 160.22 67.253 250.22 67.253 89.011 0 172.089-22.747 249.232-67.253 74.176-44.505 133.517-103.846 178.022-178.022 44.506-77.143 67.253-160.22 67.253-250.22 0-89.012-22.747-172.09-67.253-249.232-44.505-74.177-103.846-133.517-178.022-178.023C672.585 27.747 589.508 5 500.496 5c-90 0-173.077 22.747-250.22 67.253-74.177 44.506-133.517 103.846-178.023 178.023C27.747 327.419 5 410.496 5 500.496zm233.407-200.77c-9.89-15.824-9.89-15.824 15.825-21.758 33.626-7.912 68.242-11.868 99.89-18.791l140.44-23.737-3.956 663.629c-80.11-201.759-168.132-400.55-252.199-599.343zm88.023-136.484c-3.956-11.868-3.956-13.846 10.879-16.813 51.429-9.89 102.857-20.77 153.297-30.66 2.967-.988 3.956-.988 4.945-.988l-.989 98.901C359.067 238.407 357.09 237.418 357.09 235.44zm182.967 733.849c0 .989 13.846-660.662 13.846-661.65 43.517 7.911 105.825 16.813 132.528 23.736 28.682 6.923 62.308 9.89 92.968 18.79 24.725 5.935 24.725 5.935 16.813 21.76-64.286 150.33-124.616 299.67-190.88 450zm13.846-686.376 1.979-92.967c47.472 8.9 91.978 17.802 136.483 24.725 19.78 6.923 19.78 6.923 13.847 24.725-5.934 18.792-16.814 39.56-26.704 59.341z" style="fill:#000;fill-opacity:1;fill-rule:nonzero;stroke:none;"/>
</svg>
