<svg xmlns="http://www.w3.org/2000/svg" viewBox="0 0 1000 1000"><path d="M356.655 686.011c6.188 54.656 28.875 54.656 66 54.656 94.875-18.562 191.812-6.187 284.624 37.125 28.875 6.188 42.281 2.063 58.781-23.719 39.187-59.812 74.25-117.562 111.375-176.343 54.656-85.593 96.937-160.874 117.562-206.25-154.687 72.188-299.062 135.094-418.686-45.374-12.375 43.312-23.719 67.031-11.344 81.469 78.375 85.593 154.687 115.5 281.53 90.75-40.218 70.124-84.562 138.186-127.874 207.28-116.531-41.25-237.187-46.406-361.968-19.594zM5 373.543c0-1.03 222.75 380.53 223.78 380.53 28.875 36.094 52.594 36.094 84.563 0-20.625-33-43.313-68.062-66-104.156-29.906-49.5-63.937-102.093-99-153.655h5.157c7.218 2.062 14.437 3.093 22.687 3.093 84.562 18.563 162.937-1.03 228.937-58.78 27.843-26.813 51.562-55.688 75.28-85.594 11.344-15.469 24.75-31.969 37.126-46.406 23.718-31.969 17.53-63.937-19.594-89.719-17.531 24.75-36.094 50.531-54.656 75.281-80.437 115.5-149.53 177.375-283.593 133.031C112.25 412.731 59.657 398.293 5 373.543z"/></svg>