<svg xmlns="http://www.w3.org/2000/svg" viewBox="0 0 1000 1000"><path d="M551.578 597.631c0-6.998 2.333-12.83 6.998-18.663 4.666-5.832 11.665-6.998 19.83-6.998 5.832 0 12.83 2.333 17.496 6.998 5.832 5.833 8.165 11.665 8.165 18.663 0 6.999-2.333 13.997-8.165 18.663-5.832 4.666-11.664 8.165-17.496 8.165-8.165 0-13.997-2.333-19.83-8.165-4.665-4.666-6.998-11.664-6.998-18.663zM5.69 548.641c-2.333-17.496 1.167-31.493 11.664-46.657 10.498-13.997 23.329-22.162 39.659-24.495 16.33-2.332 32.66 1.167 46.657 10.498 13.997 9.332 22.162 24.495 24.495 40.825 2.333 17.497-1.167 32.66-10.498 46.657-10.498 15.164-23.329 22.162-40.825 24.495-16.33 2.333-32.66-1.166-45.49-10.498-15.164-10.498-23.329-24.495-25.662-40.825zM89.674 337.52c-1.167-13.998 2.333-27.995 11.664-38.492 10.498-11.665 20.996-17.497 36.16-19.83 13.996-2.333 27.993 2.333 39.658 11.665 11.664 9.33 17.496 20.995 18.662 36.159 1.167 13.997-3.499 27.994-12.83 39.658-8.165 10.498-19.83 17.497-34.993 18.663-13.997 1.166-27.994-2.333-39.658-11.664-10.498-8.165-17.497-20.996-18.663-36.16zm48.99 122.474c-2.333-13.997 1.166-25.661 8.165-37.325 6.998-11.665 19.829-17.497 33.826-19.83 13.997-2.333 26.828 1.167 37.326 9.332 11.664 9.331 18.662 19.829 19.829 32.66 1.166 12.83-1.167 26.827-9.332 37.325-8.165 11.664-18.662 18.663-32.66 20.996-13.997 2.333-25.66-1.167-37.325-10.498-11.664-9.331-17.497-18.663-19.83-32.66zm60.654-295.105c3.499-11.665 9.331-20.996 19.829-27.994 10.498-6.999 22.162-8.165 33.826-5.833 12.83 3.5 22.162 11.665 29.16 22.162 7 9.332 7 20.996 5.833 33.827-1.166 11.664-10.498 20.995-22.162 27.994-10.498 5.832-20.996 8.165-33.826 4.666-11.665-3.5-20.996-10.498-26.828-20.996-5.832-9.331-9.332-20.996-5.832-33.826zm17.496 124.807c-1.166-12.83 2.333-23.328 10.498-31.493 9.331-9.332 17.496-15.164 27.994-16.33 12.83-1.167 23.329-1.167 33.826 9.331 8.165 8.165 13.997 16.33 15.164 29.16 1.166 11.665-2.333 22.163-10.498 31.494-8.165 9.332-16.33 15.164-29.16 16.33-11.665 1.167-22.163-2.333-31.494-10.498s-15.164-17.496-16.33-27.994zm11.664 381.421c0-6.999 3.5-10.498 8.165-15.164 4.666-4.665 11.665-6.998 16.33-5.832 6.999 1.167 11.664 3.5 17.497 9.332 4.665 4.665 5.832 9.331 5.832 16.33 0 6.998-3.5 11.664-9.332 16.33-4.665 3.499-10.497 5.832-16.33 5.832-6.998 0-12.83-3.5-16.33-8.165-4.665-5.832-5.832-11.664-5.832-18.663zm1.167-66.486c0-5.832 2.333-10.498 6.998-12.83 4.666-2.334 9.332-5.833 15.164-4.667 5.832 1.167 10.498 2.333 13.997 5.833 4.666 4.665 5.832 10.497 4.666 15.163-1.167 6.999-3.5 11.664-6.999 15.164-4.666 4.665-9.331 4.665-13.997 4.665-5.832 0-10.498-3.499-15.164-8.165-3.499-3.499-4.665-9.331-4.665-15.163zm12.83 142.304c1.167-9.332 4.666-16.33 10.498-22.162 8.165-8.165 16.33-9.332 25.662-8.165 9.331 1.166 16.33 4.665 22.162 11.664 6.998 8.165 9.331 13.997 8.165 23.328-1.167 9.332-4.666 17.497-11.665 23.329-8.165 6.998-15.163 9.331-24.495 8.165-9.33-1.167-17.496-5.832-22.162-11.665-5.832-6.998-9.331-15.163-8.165-24.494zm2.333-197.126c1.167-5.832 2.333-9.332 6.999-13.997 3.5-3.5 6.998-5.832 12.83-4.666 5.833 1.166 9.332 3.5 12.831 6.999 4.666 4.665 4.666 9.331 4.666 13.997 0 4.665-2.333 9.331-6.999 12.83-4.665 3.5-9.331 4.666-13.997 4.666-4.665 0-9.331-2.333-11.664-6.999-2.333-4.665-5.832-8.164-4.666-12.83zm16.33-138.805c-2.333-11.664 1.167-23.328 9.332-33.826 8.165-10.498 17.496-16.33 30.327-18.663 12.83-2.333 24.495 1.167 33.826 8.165 9.331 6.999 17.496 17.497 19.83 30.327 2.332 12.83-1.167 24.495-9.332 34.993-8.165 10.498-17.497 16.33-30.327 17.496-12.83 1.167-24.495 0-33.827-6.998-10.497-8.165-17.496-18.663-19.829-31.494zm19.83 418.747c1.166-9.332 4.665-18.663 11.664-24.495 8.165-6.999 17.496-9.332 27.994-8.165 9.331 1.166 16.33 4.666 24.495 12.83 6.998 7 9.331 16.33 9.331 26.828 0 9.332-5.832 17.497-13.997 23.329-9.331 5.832-15.163 10.498-25.661 9.331-10.498-1.166-18.663-4.666-25.662-12.83-6.998-8.165-9.331-16.33-8.165-26.828zm32.66-681.192c2.332-9.332 8.164-17.497 16.33-23.329 8.164-5.832 18.662-6.998 27.993-3.499 9.332 1.166 17.497 6.999 22.163 16.33 4.665 9.331 6.998 16.33 4.665 26.828-2.333 10.498-8.165 18.662-17.496 23.328-8.165 3.5-17.497 5.832-26.828 3.5-9.331-2.333-16.33-7-22.162-15.164-5.832-8.165-6.999-18.663-4.666-27.994zm1.166 458.405c-2.333-6.999-1.167-13.997 2.333-18.663 3.499-5.832 8.165-9.332 13.997-10.498 6.998-1.166 12.83-1.166 18.662 2.333 6.999 3.5 10.498 8.165 11.665 13.997 1.166 6.999 0 12.83-2.333 18.663-3.5 5.832-8.165 9.331-15.164 11.664-6.998 2.333-12.83 1.166-18.662-2.333-4.666-3.5-8.165-9.331-10.498-15.163zm2.333-69.986c-1.167-5.832-1.167-11.664 2.332-17.496 2.333-4.666 6.999-6.999 12.831-9.332 6.999-2.332 12.83 0 17.496 2.333 5.833 3.5 9.332 6.999 10.498 13.997 1.167 5.832 1.167 11.665-2.333 17.497-3.499 4.665-8.165 8.165-13.997 10.498-5.832 2.332-11.664 0-17.496-2.333-4.666-2.333-8.165-8.165-9.331-15.164zm12.83 146.97c-2.333-6.999-1.166-15.164 2.333-20.996 3.5-5.832 9.332-10.498 17.496-12.83 8.165-2.334 13.998-1.167 20.996 3.499 5.832 3.499 10.498 9.331 12.83 16.33 2.334 8.165 1.167 15.163-3.498 22.162-4.666 6.998-9.332 9.331-16.33 11.664-6.999 2.333-13.998 1.166-20.996-2.333-6.999-3.5-10.498-9.331-12.83-17.496zm0-411.748c-1.166-10.498 1.167-20.996 9.332-29.16 8.165-8.166 16.33-13.998 26.827-15.164 10.498-1.167 20.996 2.332 30.327 9.331 6.999 6.999 11.665 16.33 12.831 25.661 1.167 11.665-2.333 22.162-9.331 30.327-6.999 8.165-15.164 12.831-25.662 13.998-11.664 1.166-20.995-1.167-29.16-8.165-9.332-8.165-13.997-15.164-15.164-26.828zm11.665 640.367c1.166-12.83 5.832-22.162 16.33-30.327 9.33-6.999 19.829-11.664 32.66-10.498 11.664 1.166 22.161 5.832 30.326 13.997 9.332 9.331 11.665 20.996 10.498 33.826-1.166 11.665-5.832 20.996-16.33 31.494-8.165 8.165-19.829 10.498-32.66 9.331-12.83-1.166-22.162-5.832-30.327-15.163-8.165-9.332-11.664-20.996-10.497-32.66zm22.162-142.304c-3.5-10.498-1.167-20.996 3.499-31.493 4.666-9.332 15.163-15.164 25.661-17.497 9.332-2.333 19.83-2.333 30.327 3.5 9.332 5.832 15.164 12.83 17.497 24.494 2.332 10.498 2.332 20.996-4.666 30.327-5.832 6.999-11.664 15.164-23.329 18.663-10.497 3.5-19.829 1.167-29.16-4.665-10.498-5.833-16.33-13.998-19.83-23.329zm18.662-384.92c-1.166-9.331 1.167-16.33 5.832-23.329 5.833-8.165 11.665-12.83 22.163-13.997 8.165-1.166 16.33 1.167 24.494 5.832 6.999 4.666 10.498 12.831 11.665 20.996 1.166 8.165-1.167 16.33-5.832 24.495-4.666 8.165-11.665 10.498-20.996 12.83-9.331 2.334-17.496-1.166-23.329-4.665-8.165-4.666-12.83-12.83-13.997-22.162zm9.332 127.14c-3.5-6.998-1.167-13.997 2.333-20.995 3.499-5.833 8.165-9.332 15.163-11.665 6.999-2.333 13.997-2.333 20.996 1.167 4.665 2.333 9.331 8.165 12.83 15.163 1.167 6.999 1.167 13.997-2.332 20.996-3.5 5.832-8.165 10.498-15.164 11.664-6.998 1.167-13.997 1.167-20.996-1.166-6.998-2.333-9.331-9.332-12.83-15.164zm16.33 79.317c-2.333-8.165-2.333-15.163 1.166-22.162 3.5-6.999 9.332-11.664 17.497-15.163 8.164-3.5 13.997 0 20.995 2.332 6.999 2.333 12.83 9.332 15.164 17.497 2.333 6.998 1.166 13.997-2.333 19.829-4.666 8.165-9.332 12.83-17.497 15.163-6.998 2.333-12.83 2.333-19.829-1.166-8.165-3.5-12.83-9.331-15.163-16.33zm1.166-437.41c2.333-8.164 8.165-15.163 16.33-19.828 8.165-4.666 15.164-6.999 24.495-4.666 9.331 2.333 16.33 8.165 20.996 16.33 3.499 6.998 5.832 15.163 3.499 24.495-2.333 9.331-6.999 16.33-15.164 19.829-8.165 3.5-16.33 6.999-24.495 4.666-9.33-2.333-16.33-6.999-20.995-15.164-4.666-8.165-6.999-16.33-4.666-25.661zm20.996 702.188c-3.5-11.664-1.167-22.162 4.665-32.66 5.833-10.497 13.998-16.33 25.662-19.829 10.498-3.499 22.162-1.166 32.66 4.666 10.498 5.832 16.33 13.997 19.829 25.661 3.5 11.665 1.166 22.162-4.666 33.827-4.665 9.331-13.997 15.163-25.661 18.663-11.664 3.499-22.162 2.332-32.66-3.5-10.498-5.832-16.33-15.163-19.83-26.828zm5.832-585.545c-1.167-6.998 0-12.83 5.832-19.829 4.666-5.832 11.664-9.331 19.83-9.331 6.998 0 12.83 0 19.828 5.832 5.833 4.666 9.332 11.664 10.498 18.663 1.167 8.165-1.166 15.163-5.832 20.995-5.832 6.999-11.664 9.332-18.663 10.498-8.165 1.167-15.163-2.333-20.995-6.998-5.832-4.666-9.332-11.665-10.498-19.83zM446.6 674.615c-2.333-9.331-2.333-16.33 1.166-24.495 4.666-9.331 11.664-13.997 19.83-17.496 8.164-3.5 16.33-1.166 24.494 2.333 8.165 3.5 13.997 11.664 15.164 19.829 1.166 9.331 2.333 16.33 0 24.495-2.333 8.165-10.498 13.997-19.83 16.33-9.33 2.333-16.33 2.333-24.494-1.167-8.165-3.499-13.997-10.497-16.33-19.829zm31.493-285.774c-1.166-6.998 1.167-15.163 5.832-19.829 6.999-6.999 11.665-11.664 18.663-12.83 6.999 0 13.997 0 20.996 5.831 5.832 4.666 10.498 10.498 11.664 18.663 1.166 6.999 0 13.997-4.666 20.996-4.665 6.998-11.664 9.331-19.829 10.498-6.998 1.166-13.997 2.333-20.996-3.5-5.832-4.665-10.497-11.664-11.664-19.829zm18.663-213.455c1.166-6.999 5.832-11.665 10.498-15.164 5.832-3.5 11.664-4.666 17.496-3.5 6.999 1.167 11.664 4.666 15.164 10.499 3.499 5.832 4.665 12.83 3.499 18.662-1.166 5.832-4.666 10.498-10.498 13.997-5.832 3.5-11.664 4.666-18.663 2.333-6.998-2.333-10.497-4.665-13.997-10.498-3.499-4.665-4.665-10.497-3.499-16.33zm10.498 584.378c-3.5-12.83-2.333-24.495 2.333-36.159 4.665-11.664 15.163-19.83 29.16-22.162 11.665-2.333 23.329-3.5 34.993 1.166 11.664 4.666 19.83 16.33 22.162 29.161 2.333 10.498 3.5 23.329-2.333 34.993-5.832 10.498-15.163 18.663-26.828 22.162-12.83 3.5-24.494 3.5-36.159-2.333-11.664-5.832-19.829-13.997-23.328-26.828zm8.165-465.403c-1.167-6.999 0-12.83 5.832-18.663 4.666-4.666 10.498-8.165 17.496-9.331 5.832-1.167 11.665 1.166 16.33 5.832 5.832 4.665 9.332 10.498 9.332 17.496 0 5.832-1.167 11.664-5.833 16.33-4.665 4.666-9.33 9.331-15.163 9.331-6.999 0-12.83-1.166-18.663-5.832-4.666-3.499-8.165-9.331-9.331-15.163zm4.665 642.7c-3.499-13.997-1.166-26.828 5.833-39.659 6.998-12.83 18.662-20.995 32.66-24.495 15.163-3.499 27.994-2.332 40.824 5.833 12.831 8.165 19.83 17.496 24.495 32.66 3.5 12.83 1.167 26.827-6.998 39.658-5.832 12.83-16.33 20.996-31.494 24.495-13.997 3.5-26.828 2.333-40.825-5.832-12.83-6.999-20.995-17.497-24.495-32.66zM557.41 412.17c-1.166-5.832 0-12.831 4.666-18.663 5.832-6.999 10.498-10.498 17.496-11.664 6.999-1.167 13.997 1.166 19.83 5.832 5.831 4.666 9.33 9.331 10.497 17.496 1.167 5.832-1.166 11.664-4.666 18.663-3.499 6.999-10.497 9.331-18.662 10.498-5.832 1.166-12.831 0-18.663-4.666-5.832-4.666-9.332-10.498-10.498-17.496zm1.166-206.457c1.167-5.833 4.666-9.332 9.332-12.831 4.666-3.5 10.498-3.5 16.33-1.167 4.666 1.167 9.331 4.666 11.664 9.332 3.5 5.832 3.5 10.498 2.333 16.33-1.167 4.666-4.666 9.331-9.331 11.664-4.666 2.333-9.332 3.5-15.164 1.166-5.832-2.332-10.498-3.499-12.83-8.164-3.5-5.833-3.5-10.498-2.334-16.33zm18.663 123.64c0-6.998 1.167-11.664 3.5-17.496 2.332-5.832 9.33-8.165 16.33-8.165 5.832 0 11.664 1.167 16.33 4.666 4.665 4.666 6.998 9.331 8.164 16.33 1.167 5.832-1.166 11.664-4.665 15.163-4.666 4.666-8.165 8.165-15.164 8.165-6.998 0-11.664-1.166-17.496-4.665-4.666-3.5-6.999-8.165-6.999-13.997zm25.662-83.982c1.166-5.832 4.665-9.331 9.331-11.664 4.666-2.333 8.165-2.333 12.83-1.167 5.833 1.167 10.499 4.666 12.831 9.332 2.333 4.665 3.5 9.331 2.333 13.997-1.166 5.832-4.665 8.165-9.331 10.498-4.666 2.332-10.498 3.499-13.997 2.332-5.832-2.332-9.332-4.665-11.665-8.164-2.332-4.666-3.499-9.332-2.332-15.164zm3.499 594.877c-3.5-13.998-3.5-26.828 2.333-38.492 5.832-12.831 15.163-22.163 29.16-25.662 13.997-3.5 25.662-2.333 38.492 3.5 12.831 5.832 19.83 16.33 24.495 30.326 4.666 12.831 3.5 25.662-2.333 37.326-5.832 12.83-16.33 20.996-29.16 25.661-13.997 4.666-26.828 2.333-39.659-3.499-12.83-5.832-19.829-16.33-23.328-29.16zm2.333-296.272c0-8.165 2.333-15.164 8.165-20.996 4.665-4.666 11.664-8.165 19.829-8.165 8.165 0 15.163 3.5 19.83 8.165 5.831 5.832 8.164 12.83 8.164 20.996 0 8.165-3.5 13.997-8.165 18.662-5.832 5.833-11.664 9.332-19.83 9.332-8.164 0-15.163-3.5-19.828-9.332-5.832-6.998-8.165-10.497-8.165-18.662zm11.664 117.809c-2.333-5.833-2.333-11.665 0-17.497 2.333-5.832 5.832-10.498 11.664-12.83 5.832-2.333 11.664-2.333 17.497 0 4.665 2.332 9.331 5.832 11.664 11.664s2.333 11.664 0 17.496c-2.333 4.666-5.832 9.332-10.498 11.664-5.832 2.333-11.664 3.5-17.496 1.167-6.999-2.333-10.498-6.999-12.831-11.664zm33.826-195.96c0-9.331 3.5-17.496 9.332-22.162 8.165-5.832 13.997-10.498 23.328-10.498 8.165 0 15.164 3.5 22.162 10.498 5.832 5.832 10.498 12.83 10.498 22.162 0 9.332-3.5 16.33-10.498 22.162-6.998 5.832-13.997 10.498-22.162 10.498-9.331 0-16.33-3.5-23.328-10.498-5.832-5.832-9.332-12.83-9.332-22.162zm5.832-381.42c0-16.33 5.833-31.494 18.663-43.158 12.83-11.665 26.828-18.663 44.324-18.663 16.33 0 31.494 6.998 43.158 18.663 12.83 12.83 18.663 26.827 18.663 43.157 0 18.663-5.832 32.66-18.663 44.325-12.83 11.664-26.828 18.662-43.158 18.662-17.496 0-32.66-5.832-44.324-18.662-11.664-12.831-18.663-25.662-18.663-44.325zm12.831 277.608c0-13.997 4.666-25.66 13.997-33.826 9.332-8.165 19.83-13.997 32.66-13.997 12.83 0 23.329 4.666 32.66 13.997 9.331 9.332 12.83 19.83 12.83 32.66 0 11.664-3.499 23.329-12.83 32.66-10.498 10.498-19.83 15.163-32.66 15.163-12.83 0-22.162-4.665-32.66-15.163-9.331-9.331-13.997-19.83-13.997-31.494zm3.5 347.595c0-4.666 0-8.165 4.665-12.83 3.5-3.5 8.165-5.833 11.664-7 5.832-2.332 10.498 0 15.164 4.666 3.5 3.5 5.832 6.999 6.998 12.831 1.167 4.666-1.166 10.498-5.832 13.997-4.665 3.5-8.165 5.832-12.83 5.832-5.833 1.167-9.332 1.167-13.998-3.499-3.499-3.5-5.832-8.165-5.832-13.997zm2.332-81.65c-2.333-4.665-2.333-11.664 0-17.496 2.333-6.999 6.999-11.664 11.664-13.997 5.833-2.333 12.831-3.5 18.663-1.167 6.999 2.333 11.665 6.999 13.997 13.997 2.333 6.999 3.5 12.831 1.167 18.663-2.333 5.832-6.999 10.498-13.997 12.83-6.999 2.334-12.831 3.5-18.663 0a23.106 23.106 0 0 1-12.83-12.83zm8.165-394.251c0-13.997 3.5-25.662 13.997-36.16 10.498-10.497 22.162-13.997 34.993-13.997 15.164 0 26.828 4.666 36.16 13.998 10.497 10.497 15.163 22.162 15.163 36.159s-4.666 25.661-15.164 34.992c-10.498 9.332-20.995 15.164-36.159 15.164-12.83 0-24.495-4.666-34.993-15.164-10.498-10.497-13.997-20.995-13.997-34.992zm41.991 671.86c-5.832-16.33-2.332-32.66 4.666-47.823 6.999-15.164 19.83-25.661 36.16-30.327s31.493-4.666 47.823 3.5c16.33 8.164 24.495 19.828 30.327 37.325 4.665 15.163 4.665 30.327-3.5 46.657-8.164 15.163-19.829 25.661-37.325 31.493-15.164 4.666-31.494 3.5-46.657-4.666-15.164-8.164-25.661-20.995-31.494-36.159zm1.167-212.289c0-5.832 1.166-10.498 4.666-15.163 3.499-4.666 8.165-6.999 13.997-8.165 5.832-1.167 10.498 1.166 15.163 5.832 3.5 3.499 5.832 9.331 6.999 15.163 1.166 4.666-1.167 10.498-5.832 13.997-3.5 2.333-6.999 5.832-12.831 5.832-5.832 1.167-10.498 0-15.164-4.665-4.665-4.666-6.998-6.999-6.998-12.831zm2.333-117.809c-3.5-6.998-2.333-13.997 0-20.995 2.333-6.999 8.165-12.831 15.163-15.164 6.999-2.333 13.997-3.5 19.83-1.166 8.164 3.499 12.83 8.165 16.33 15.163 3.499 5.832 2.332 12.83 0 20.996-2.333 6.998-7 13.997-15.164 15.163-5.832 1.167-12.83 2.333-20.996 1.167-6.998-1.167-11.664-8.165-15.163-15.164zm34.992-107.31c3.5-10.499 11.665-17.497 22.163-22.163 10.497-4.666 19.829-3.5 30.327 0 10.497 3.5 17.496 10.498 22.162 20.996 4.665 10.497 4.665 19.829 1.166 30.327-3.5 10.498-10.498 17.496-20.996 22.162-10.497 4.665-20.995 4.665-30.327 0-9.331-4.666-18.662-9.332-23.328-19.83-4.666-10.497-4.666-19.829-1.167-31.493zm16.33 190.126c0-6.998 2.333-12.83 5.833-17.496 4.665-5.832 10.497-8.165 15.163-8.165 6.999 0 12.83 1.166 17.496 5.832 5.833 5.832 8.165 9.331 9.332 16.33 1.166 6.999-1.167 11.664-5.832 16.33-4.666 4.666-10.498 8.165-17.497 8.165-5.832 0-11.664-1.166-16.33-4.666-5.832-3.499-8.165-10.498-8.165-16.33zm22.163-261.279c-4.666-10.498-4.666-22.162 0-32.66 4.665-11.664 12.83-19.829 23.328-24.495 10.498-4.665 22.162-3.499 32.66 0 10.498 3.5 18.663 11.665 23.328 23.329 4.666 10.498 5.833 20.996 1.167 32.66-4.666 11.664-11.664 18.663-22.162 23.328-11.665 4.666-22.162 5.832-32.66 1.167-11.664-4.666-19.83-11.665-25.661-23.329zm8.164-163.3c4.666-12.83 15.164-23.328 27.995-29.16 13.997-5.832 27.994-5.832 40.825-1.166 13.997 4.665 24.494 15.163 29.16 27.994 4.666 13.997 6.999 27.994 1.167 41.991-5.833 13.997-13.998 24.495-27.995 29.16-12.83 4.667-26.827 5.833-40.824 1.167-12.831-4.665-23.329-13.997-29.161-27.994-5.832-12.83-6.999-26.828-1.167-41.991zm13.998 366.258c-1.167-8.165 0-16.33 8.165-24.495 5.832-5.832 12.83-10.498 23.328-11.664 9.331-1.167 16.33 2.333 23.329 8.165 8.165 6.998 11.664 15.163 11.664 23.328 0 9.332-1.167 17.497-8.165 24.495-6.999 6.999-13.997 10.498-23.329 10.498-9.331 0-17.496-1.166-24.495-6.998-6.998-5.833-9.331-13.998-10.497-23.329zm47.823-76.984c0-9.331 2.333-18.663 9.331-26.828 6.999-8.165 15.164-11.664 24.495-12.83 10.498-1.167 19.83 1.166 27.994 9.331 6.999 6.999 10.498 15.164 11.665 25.661 1.166 9.332-2.333 17.497-8.165 25.662-5.832 9.331-15.164 10.498-25.662 11.664-9.331 1.166-18.662-1.166-26.827-6.999-9.332-5.832-12.831-15.163-12.831-25.66zm29.16-100.312c-1.166-12.831 2.333-23.329 9.332-33.827 6.999-10.498 19.83-15.163 31.493-15.163 12.831 0 24.495 3.499 33.827 11.664 10.498 9.331 13.997 18.663 15.163 30.327 1.167 12.83-3.499 24.495-11.664 32.66-8.165 8.165-17.496 15.163-30.327 16.33-11.664 1.166-23.328-3.5-32.66-11.664-10.498-9.332-13.997-17.497-15.163-30.327z"/></svg>