<svg xmlns="http://www.w3.org/2000/svg" width="1000" height="1000">
  <path d="M500.496 5C223.572 5 5 229.506 5 500.002c0 276.43 224.506 495.001 495.002 495.001 276.43 0 495.001-224.506 495.001-495.001C995.003 226.539 773.464 5 500.496 5zM297.748 719.068c17.802-61.319 32.638-120.66 50.44-182.967 4.945-18.792 3.956-32.638-11.868-48.462-112.748-127.583-47.473-321.43 119.67-356.045 112.748-22.748 231.43 58.352 250.221 174.066 11.868 70.22-8.901 134.506-57.363 185.935-11.868 11.868-15.824 21.758-10.879 38.572 9.89 27.692 12.857 49.45 20.77 77.143 7.912 20.769 13.846 23.736 31.648 15.824 18.791-3.956 33.626-7.912 52.418-11.868 10.879-2.967 17.802 0 18.791 11.868 4.945 16.813 10.88 34.615 16.813 52.418 3.956 15.824-3.956 22.747-17.802 26.703-23.736 4.945-42.528 11.868-65.275 18.791-.989 3.956-.989 3.956-.989 4.945 0 14.836 4.945 26.704 6.923 41.539-23.736 6.923-61.319 20.77-84.066 26.703-3.956 0-5.934-15.824-9.89-24.725-12.857-43.517-23.737-85.055-34.616-129.56-12.857-48.463-25.714-96.924-41.538-147.364-5.934-26.703-5.934-26.703 18.79-41.539 43.518-24.725 66.265-62.307 66.265-110.77-.99-49.45-25.715-87.032-72.198-106.813-43.517-18.791-88.022-15.824-126.594 15.825-66.264 54.395-55.385 161.209 20.77 201.758 25.714 14.836 25.714 14.836 17.802 41.539-8.902 39.56-20.77 77.143-31.649 118.682 22.747 4.945 44.506 11.868 64.286 18.791 24.725 6.923 25.714 8.901 18.791 33.627-2.967 14.835-7.912 27.692-11.868 41.538-2.967 15.824-11.868 20.77-25.714 15.824-16.814-5.934-34.616-7.912-52.418-13.846-13.846-4.945-21.758 0-22.747 11.868-12.858 55.385-20.77 48.462 33.626 63.297 49.45 14.835 47.473 4.945 32.638 59.341-12.858 41.539-12.858 41.539-56.374 28.682-60.33-15.825-51.429-6.924-37.583-65.275 1.978-10.88 4.945-19.78 9.89-30.66-22.747-7.912-40.55-12.857-57.362-17.802-26.704-7.912-29.67-9.89-21.759-37.583z" style="fill:#000;fill-opacity:1;fill-rule:nonzero;stroke:none;"/>
</svg>
