<svg xmlns="http://www.w3.org/2000/svg" viewBox="0 0 1000 1000"><path d="M5 500.496C5 225.55 226.54 5 500.496 5c272.968 0 494.507 222.528 494.507 494.507 0 274.946-222.528 495.496-494.507 495.496C225.55 995.003 5 772.475 5 500.496zm157.253 225.495c0 28.682 25.715 38.572 44.506 30.66 11.868-4.945 14.835-13.846 21.758-21.758 51.429-64.286 100.88-127.583 151.32-192.858 1.977-.99 2.966-2.967 5.934-4.945 3.956 3.956 7.912 7.912 8.9 10.879 26.704 32.637 55.385 67.253 79.122 100.88 13.846 17.802 42.527 21.758 60.33 0 24.725-35.605 53.406-70.22 80.11-103.847 1.978-2.967 4.945-5.934 8.9-7.912 1.979 3.956 5.935 7.912 7.913 11.868 25.714 29.67 49.45 62.308 74.176 90.99 25.714 34.615 53.407 69.23 79.121 102.857 10.88 13.846 23.737 18.79 39.56 15.824 14.836-6.923 19.781-13.846 19.781-34.616V375.88c0-35.604 1.978-74.176 0-109.78 0-7.912-.989-15.824-6.923-21.759-14.835-11.868-38.572-10.879-50.44 5.935-47.472 59.34-93.956 116.703-139.45 177.033-7.913 10.88-15.825 20.77-25.715 31.649-4.945-5.935-7.912-8.902-9.89-13.847-25.715-30.66-52.418-66.264-80.11-99.89-14.836-18.791-41.539-16.813-55.385 0-13.846 18.791-30.66 38.571-44.506 56.374-13.846 19.78-29.67 37.582-45.494 57.363-9.89-10.88-17.803-22.748-27.693-32.638-43.517-60.33-90-118.682-136.484-176.044-9.89-12.858-25.714-16.814-37.582-12.858-15.825 4.945-21.759 12.858-21.759 30.66 0 153.297 1.978 306.594 0 457.913zm66.264-67.253V335.331c2.967 4.945 4.945 6.923 7.912 9.89 37.583 48.462 76.154 95.934 113.737 146.374 5.934 5.934 5.934 7.912 0 13.846-37.583 49.45-74.176 97.913-112.748 145.385-3.956 3.956-5.934 6.923-6.923 7.912zm190.88-155.275c-1.978-1.978-1.978-8.9 0-9.89 23.736-29.67 48.462-60.33 70.22-90 2.967-3.956 9.89-6.923 13.846-9.89 6.923 2.967 9.89 5.934 12.857 9.89 24.726 29.67 48.462 60.33 71.21 90 .988.99.988 7.912 0 9.89-22.748 29.67-46.484 59.341-72.199 91.979-4.945 7.912-16.813 7.912-23.736-2.968-23.736-29.67-48.462-59.34-72.198-89.01zm237.363 1.978c-3.956-5.934-3.956-7.912 0-11.868 38.572-50.44 77.144-99.89 115.715-150.33 1.978-.99 3.956-2.967 7.912-7.912v323.407c-1.978 0-1.978 1.978-3.956 1.978-1.978-1.978-3.956-5.934-5.934-8.9-37.582-48.462-75.165-98.902-113.737-146.375z"/></svg>