<svg xmlns="http://www.w3.org/2000/svg" width="1000" height="1000">
  <path d="M500.496 995.003c275.935 0 494.507-224.506 494.507-495.496C995.003 226.54 773.464 5 500.496 5 223.572 5 5 229.506 5 499.507c0 276.924 224.506 495.496 495.496 495.496zM156.32 758.63c-14.835-12.857-10.879-29.67.99-35.605 7.911-3.956 9.89-2.967 17.801-7.912 5.935-2.967 11.869-6.923 15.825-11.868 92.967-160.22 184.945-320.44 277.913-481.65 6.923-9.89 12.857-20.77 17.802-30.66 2.967-8.9.989-18.79 3.956-27.692 1.978-8.9 3.956-16.813 10.88-21.758 5.933-3.956 21.757-3.956 27.692 0 5.934 4.945 6.923 12.857 8.9 22.747 2.968 9.89 0 21.759 5.935 29.67 54.396 97.913 110.77 193.848 167.143 290.77 40.55 70.22 81.1 140.441 121.649 209.672 2.967 7.912 8.901 14.835 15.824 19.78 26.704 15.824 17.802 45.495-16.813 50.44-3.956-4.945-17.802-14.835-32.638-14.835h-581.54c-12.857 0-17.802 8.9-31.648 14.835-11.869 0-17.803 2.967-29.67-5.934zm47.473-57.363c-16.813 27.692-10.88 37.583 22.747 37.583H797.2c28.682 0 38.572-16.814 23.737-41.539-95.935-166.154-191.869-333.298-287.803-500.441-3.956-5.934-12.858-14.835-18.792-13.846-6.923 0-15.824 7.912-19.78 14.835-22.747 37.582-43.517 76.154-66.264 114.725-75.165 128.572-150.33 259.122-224.506 388.683zm149.341-61.319C407.529 545.002 460.936 453.023 516.32 356.1c55.385 96.923 109.781 187.913 165.166 283.847z" style="fill:#000;fill-opacity:1;fill-rule:nonzero;stroke:none;"/>
</svg>
