<svg xmlns="http://www.w3.org/2000/svg" viewBox="0 0 1000 1000"><path d="M500.496 5C223.572 5 5 229.506 5 500.002c0 276.43 224.506 495.001 495.002 495.001 276.43 0 495.001-224.506 495.001-495.001C995.003 226.539 773.464 5 500.496 5zM156.32 460.936c-2.967-52.418 0-101.869 0-153.298V295.77c11.868 5.934 23.737 11.868 31.649 14.835 89.01 51.43 179.011 101.869 265.055 153.298 30.66 18.79 44.506 44.505 44.506 78.132v322.418c0 6.923-1.978 10.88-1.978 18.792-20.77-11.869-42.528-23.737-60.33-36.594-23.736-10.879-48.461-28.681-74.176-40.55-34.615-13.846-37.582-48.461-37.582-78.132 0-35.604 2.967-73.187 0-104.835 0-24.725-11.869-39.56-29.67-51.429-38.572-20.77-75.166-42.527-110.77-63.297-17.803-11.868-26.704-25.714-26.704-47.472zm8.901-180.99c22.748-12.857 44.506-25.714 65.275-38.572 24.726-10.879 46.484-27.692 69.231-39.56 23.737-14.835 45.495-10.88 67.253 0 36.594 17.802 68.242 39.56 103.847 60.33 24.725 11.868 44.505 11.868 67.253-2.967 35.604-20.77 72.198-39.56 106.813-59.341 17.803-12.857 39.56-12.857 57.363 0 42.528 23.736 87.033 47.472 128.572 74.176 3.956 0 6.923 2.967 12.857 9.89-23.736 11.868-45.495 23.736-66.264 35.605-68.242 42.527-140.44 81.099-209.67 122.637-6.924 3.956-11.869 5.934-20.77 11.868-31.649 15.825-60.33 15.825-90.99-1.978-44.505-27.692-89.01-54.395-134.505-79.12-48.462-25.715-92.968-53.407-138.462-82.089-5.935-.989-11.869-5.934-17.803-10.879zM510.386 878.3V542.035c0-36.594 10.88-59.341 41.539-76.154 58.352-32.638 110.77-65.275 168.132-98.902 36.594-19.78 76.154-41.538 110.77-65.275 6.923 0 10.88-2.967 16.813-5.934 0 7.912.99 11.868.99 17.802v138.462c0 26.704-10.88 48.462-38.572 59.341-35.605 17.803-68.242 42.528-105.825 63.297-19.78 11.868-25.714 30.66-25.714 51.429v126.594c0 19.78-8.901 39.56-27.693 46.483-43.516 27.693-90 52.418-131.539 76.155-3.956 2.967-3.956 2.967-8.9 2.967z"/></svg>