<svg xmlns="http://www.w3.org/2000/svg" viewBox="0 0 1000 1000"><path d="M181.978 890.382h191.994c61.138-258.495 114.768-521.28 174.833-782.993H388.988c-35.395 181.268-67.573 358.246-105.114 539.514-11.798-11.798-15.016-20.379-15.016-31.105-34.323-152.308-61.138-307.834-91.17-461.215-5.363-20.38-23.598-47.194-37.541-47.194-40.759-2.145-85.808-2.145-135.147-2.145C63.993 369.102 121.913 637.25 181.978 890.382zm392.569-152.308C588.491 854.986 682.879 906.47 811.59 892.527c107.26-13.943 167.325-80.444 167.325-203.792H855.566c-20.379 49.339-23.597 112.622-95.46 98.678-43.977-8.58-67.574-81.517-48.267-181.268h283.165c-7.509-56.848-7.509-108.332-16.09-157.671-19.306-109.405-78.299-165.18-186.63-166.252-113.695-4.29-203.793 49.339-217.737 152.308-13.944 100.824-19.307 205.938 0 303.544zM711.839 521.41c-9.653-86.88 12.871-133.002 63.283-137.292 52.557-4.29 70.791 36.468 70.791 137.292z"/></svg>