<svg xmlns="http://www.w3.org/2000/svg" viewBox="0 0 1000 1000"><path d="M324.834 995c30.872-67.114 59.06-138.254 92.616-205.368 6.712-9.396 16.108-16.107 20.134-16.107h124.832c4.026 0 9.395-4.027 18.791 16.107 34.9 67.114 64.43 138.254 97.986 205.368zM18.796 666.143V313.126c53.69 24.16 150.334 63.087 208.052 92.617 5.369 4.026 14.765 20.134 14.765 26.845 5.369 41.61 5.369 81.879 0 120.805 0 10.738-5.37 20.134-14.765 22.818-60.403 30.872-123.49 60.402-186.576 84.563-4.027 5.37-10.738 5.37-21.476 5.37zm24.16-404.023C119.466 180.24 191.95 94.336 268.458 9.773h6.711c9.396 65.77 22.82 135.569 36.242 197.313 9.396 41.61 9.396 64.43-10.738 95.302-45.638 60.402-25.504 68.456-73.825 48.322-55.033-30.873-112.751-53.691-167.784-79.195-5.37-5.369-9.396-5.369-16.108-9.395zm10.739 477.848c-10.739-10.738-13.423-20.134 5.369-29.53 60.402-26.845 123.489-52.348 182.549-83.22 20.134-5.37 28.187 0 38.926 13.422 24.16 30.872 48.321 59.06 79.194 95.302 10.738 8.053 14.765 25.503 5.369 37.583-29.53 64.43-60.403 124.831-89.933 187.918 0 6.712-5.369 9.396-6.71 14.765-32.215-34.899-56.376-63.087-85.906-93.959-42.953-49.664-83.221-92.617-128.858-142.28zm585.23 40.268c-6.711-18.791-6.711-36.24 6.711-51.006 24.161-29.53 48.322-57.718 75.168-92.617 8.053-14.765 24.16-14.765 38.926-9.396 57.717 30.873 123.489 56.376 182.548 83.221 13.423 9.396 18.792 14.765 8.054 25.504-72.483 79.194-143.623 157.045-221.475 240.266 0 2.685-83.22-183.891-89.932-195.972zm55.033-616.102c16.107-49.664 26.846-103.355 34.9-154.361 0 0 0-10.739 10.737 0 59.06 69.798 118.12 139.596 177.18 202.683 14.765 14.765 28.188 29.53 44.295 49.664-16.107 4.026-29.53 14.765-41.61 20.134-52.349 24.16-107.382 46.98-159.73 72.482-14.765 10.739-24.161 6.712-34.9-8.053-53.69-60.403-53.69-97.986-30.872-182.55zm65.772 383.89c-5.37-33.557-5.37-73.825 0-115.436 0-6.711 4.026-22.819 14.765-22.819 63.086-29.53 126.173-59.06 190.602-89.932 5.37-2.684 10.738-2.684 16.107-2.684v354.36c-30.872-13.423-61.744-24.161-84.563-34.9-38.926-20.134-79.194-38.925-118.12-60.402-8.053-2.684-18.791-17.45-18.791-28.188z"/></svg>