<svg xmlns="http://www.w3.org/2000/svg" width="1000" height="1000">
  <path d="M5 500.496c0 271.98 220.55 494.507 495.496 494.507 271.98 0 494.507-220.55 494.507-495.496C995.003 227.528 773.464 5 500.496 5 226.54 5 5 225.55 5 500.496zm144.396 211.65v-261.1c0-5.935 0-9.89 7.912-9.89h102.858v267.033c0 13.846 0 13.846-14.836 13.846h-86.044c-7.912 0-9.89-.989-9.89-9.89zm0-315.496v-84.067c0-5.934 1.978-9.89 9.89-9.89h91.979c5.934 0 8.9 3.956 8.9 9.89v84.067c0 5.934-2.966 9.89-10.878 7.912h-90c-7.913 1.978-9.89-1.978-9.89-7.912zm132.528 324.396a20560.752 20560.752 0 0 1 207.693-207.693c-69.231-70.22-136.484-137.473-207.693-208.682h169.121c3.957 0 10.88 3.956 12.858 5.934 34.615 35.605 69.23 69.231 103.846 103.847 3.956 2.967 5.934 6.923 12.857 9.89 4.945-4.945 8.901-11.868 15.825-17.802 32.637-32.638 62.307-65.275 95.934-95.935 2.967-3.956 9.89-5.934 13.846-5.934 53.407-1.978 105.825-1.978 156.264-1.978 4.945 0 6.924 1.978 10.88 1.978-69.231 69.231-138.462 136.484-207.693 205.715 71.209 71.21 138.462 140.44 210.66 211.65H708.189c-5.934 0-12.857-.99-15.824-4.946-37.583-34.615-72.198-71.209-106.814-106.813-4.945-5.934-9.89-7.912-15.824 0-34.615 35.604-69.23 68.242-101.868 101.868-8.901 6.923-14.836 9.89-24.726 9.89H283.902s0-.989-1.978-.989z" style="fill:#000;fill-opacity:1;fill-rule:nonzero;stroke:none;"/>
</svg>
