<svg xmlns="http://www.w3.org/2000/svg" width="1000" height="1000">
  <path d="M5 500.002v.395-.395c.099-89.506 22.55-172.682 67.253-249.726 44.209-74.473 103.55-133.814 178.023-178.023C327.419 27.45 410.694 5 500.002 5c89.308 0 172.583 22.45 249.726 67.253C824.2 116.462 883.54 175.803 927.75 250.276c44.803 77.143 67.253 160.418 67.253 249.726 0 89.308-22.45 172.583-67.253 249.726C883.541 824.2 824.2 883.54 749.728 927.75c-77.143 44.803-160.418 67.253-249.726 67.253-89.308 0-172.583-22.45-249.726-67.253-74.473-44.209-133.814-103.55-178.023-178.022C27.55 672.684 5.099 589.508 5 500.002zm92.967 159.725c16.814 24.726 31.649 23.737 49.451-3.956 9.89-8.9 12.857-17.802 17.802-21.758 8.901 8.901 12.857 12.857 15.825 21.758C285.88 860.497 548.958 927.751 716.1 791.266c109.78-81.099 157.254-190.88 148.352-324.396 0-18.792 8.902-38.572 11.869-51.43 13.846-25.713 24.725-46.483 39.56-68.241v-7.912c-20.77-25.715-39.56-20.77-56.374 4.945-2.967 7.912-7.912 16.813-15.824 24.725-3.956-7.912-8.901-16.813-12.857-24.725C727.969 139.506 486.65 77.198 291.814 209.726 185.99 292.803 138.517 402.584 147.418 538.079c0 15.824-8.901 32.637-15.824 49.45-8.901 22.748-21.758 44.506-33.627 64.286zm96.924-168.132c0 9.89-.99 20.77 11.868 8.901 111.759-90 231.43-131.539 370.88-139.45 4.945 0 9.89 0 13.846-4.946 0-3.956-3.956-8.901-8.9-11.868-20.77-21.758-42.528-41.539-67.254-68.242-12.857-9.89 0-19.78 8.902-29.67 6.923-6.924 10.879-15.825 25.714-4.946 41.538 44.506 86.044 85.056 129.56 132.528 3.957 3.956 3.957 15.825 0 20.77-34.615 37.582-72.197 77.143-108.79 109.78-4.946 4.945-13.847 7.912-18.792 4.945-27.692-13.846-27.692-26.703-6.923-46.483 4.945-5.934 6.923-9.89 11.868-14.836 8.901-10.879 20.77-23.736 30.66-37.582-16.814 0-30.66 0-47.473 4.945-121.649 12.857-228.463 51.429-314.507 138.462-18.791 16.813-23.736 30.66-14.835 52.418 47.473 120.66 160.22 205.715 295.715 205.715 59.341 0 112.748-13.847 163.188-46.484 92.967-59.34 140.44-143.407 148.352-253.188 0-24.725 0-24.725-16.813-11.868-105.825 90.99-230.44 131.539-366.925 137.473-3.956 4.945-6.923 4.945-11.868 4.945 0 3.956 4.945 8.901 4.945 12.857 24.725 24.726 44.506 46.484 71.21 68.242 10.878 15.825 0 24.726-8.902 32.638-8.901 8.901-17.802 13.846-29.67 4.945-41.539-47.473-85.056-89.011-126.594-129.561-4.945-5.934-4.945-21.758 0-25.714 32.637-39.56 72.198-72.198 109.78-110.77 4.945-3.956 12.858-3.956 16.814-3.956 25.714 12.857 29.67 28.681 7.912 49.45-3.956 4.946-7.912 7.913-11.868 12.858-12.858 12.857-21.759 26.703-28.682 33.626 10.88 0 28.682 3.956 44.506 0 119.67-16.813 227.473-53.406 316.484-139.45 16.814-15.825 21.759-32.638 12.858-53.407-71.21-184.946-291.76-266.045-459.892-155.276-93.956 53.407-141.43 142.418-146.374 252.199z" style="fill:#000;fill-opacity:1;fill-rule:nonzero;stroke:none;"/>
</svg>
