<svg xmlns="http://www.w3.org/2000/svg" width="1000" height="1000">
  <path d="M948.872 278.975c0 98.58 0 192.039-10.242 284.217-17.924 221.485-249.65 405.842-418.644 430.167-53.771 7.681-106.262-12.803-151.07-35.847C242.17 892.219 135.907 801.32 89.818 666.893c-21.764-64.013-30.726-133.147-35.847-195.88-6.401-144.668 0-284.216 0-430.166C53.972 11.401 66.774 5 89.819 5h824.486c29.446 0 34.567 11.522 34.567 35.847-5.121 79.376 0 162.593 0 238.128zM158.952 504.3c11.523 174.116 101.141 290.619 254.772 355.912 35.847 15.363 76.816 21.764 116.504 16.643 122.904-23.044 285.497-151.07 309.822-313.663 0-24.325 0-40.968-24.325-58.892-131.866-97.3-267.574-197.16-395.6-297.02-11.522-3.84-17.923-15.362-21.764-20.483 33.287-6.402 72.975-19.204 110.102 10.242l103.701 81.936C687.7 339.147 763.234 387.797 840.05 453.09c3.84-11.522 3.84-17.923 3.84-23.044V144.548c0-17.924-10.241-24.325-28.165-24.325H181.998c-23.045 0-23.045 12.803-23.045 30.726v92.179c-6.401 16.643 6.401 28.166 17.924 40.968 80.656 64.013 160.032 125.465 243.248 186.918l279.097 207.402c11.522 6.4 16.643 17.923 16.643 30.726 0 21.764-33.287 40.968-56.331 21.764C530.228 622.084 390.68 522.224 253.692 423.644c-30.726-24.325-60.172-46.089-94.74-69.134z" style="fill:#000;fill-opacity:1;fill-rule:nonzero;stroke:none;"/>
</svg>
