<?xml version="1.0" encoding="utf-8"?>
<!-- Generator: Adobe Illustrator 26.0.1, SVG Export Plug-In . SVG Version: 6.00 Build 0)  -->
<svg version="1.1" id="Layer_1" xmlns="http://www.w3.org/2000/svg" xmlns:xlink="http://www.w3.org/1999/xlink" x="0px" y="0px"
	 viewBox="0 0 1000 1000" style="enable-background:new 0 0 1000 1000;" xml:space="preserve">
<style type="text/css">
	.st0{fill:#FFFFFF;}
</style>
<rect class="st0" width="32" height="32"/>
<path d="M500.5,5C223.6,5,5,229.5,5,499.5C5,773.5,226.5,995,499.5,995C776.4,995,995,770.5,995,499.5C995,223.6,770.5,5,500.5,5z
	 M801.1,425H650.5v-75h-75.3v-75H424.7v75h-75.3v299.7h75.3v75h150.5v-75h75.3V575h150.7v149.9h-75.4v75H575.2v75H424.6v-75H274.2
	v-75h-75.3V275.1h75.3v-75h150.6v-75h150.5v75h150.6v75h75.4V425z"/>
</svg>
