<svg xmlns="http://www.w3.org/2000/svg" viewBox="0 0 1000 1000"><path d="M500,5C226.62,5,5,226.62,5,500S226.62,995,500,995,995,773.38,995,500,773.38,5,500,5ZM650.85,140,798.02,285.73H683.31c-18-43.28-50.64-103-97.39-145.73ZM514.5,140H547c22.57,15.87,76,67.24,108.9,145.73H514.5Zm-168.1,0h69.26c-18.76,10.82-80.8,88-96.68,145.73H200.67ZM187,336.1h64.24L344.56,572H346l-.47-235.87H394.3v332l-61.93-.03L238.11,433.63h-1.4l.94,234.47H187ZM347.84,860,200.67,714.27H315.38C333.41,757.55,366,817.29,412.77,860Zm136.36,0H451.73c-22.61-15.87-76.04-67.24-108.94-145.73H484.2Zm2.16-574.27h-140c9.86-30.06,45-101.29,106.77-145.73h33.23ZM499.28,668.1v-332h56.28v332ZM545.52,860H512.33V714.27H652.29C642.43,744.33,607.27,815.56,545.52,860Zm106.77,0H583c18.79-10.82,80.83-88,96.71-145.73H798ZM762.2,541V668.1H706.83V541.02l-83-204.93h61l49.71,148.18,1.4-.94,50.65-147.26h59.55Z"/></svg>