<svg width="1000" height="1000" viewBox="0 0 1000 1000" fill="none" xmlns="http://www.w3.org/2000/svg">
<path d="M289 2L87 204H251C273 124 359 17 385 2H289Z" fill="black"/>
<path d="M483 204V2H437C351.4 63.6 302.667 162.333 289 204H483Z" fill="black"/>
<path d="M522 204H718C672.4 95.2 598.333 24 567 2H522V204Z" fill="black"/>
<path d="M756 204H915L711 2H621C685.8 61.2 731 144 756 204Z" fill="black"/>
<path d="M713 1000L915 798L751 798C729 878 643 985 617 1000L713 1000Z" fill="black"/>
<path d="M519 798L519 1000L565 1000C650.6 938.4 699.333 839.667 713 798L519 798Z" fill="black"/>
<path d="M480 798L284 798C329.6 906.8 403.667 978 435 1000L480 1000L480 798Z" fill="black"/>
<path d="M246 798L87 798L291 1000L381 1000C316.2 940.8 271 858 246 798Z" fill="black"/>
<path d="M383.212 734.001L311.712 537.701H268.162V734.001H192.762V273.801H324.062C343.128 273.801 360.678 276.401 376.712 281.601C392.745 286.367 406.395 294.167 417.662 305.001C429.362 315.834 438.462 329.484 444.962 345.951C451.462 362.417 454.712 382.134 454.712 405.101C454.712 422.867 452.328 438.684 447.562 452.551C443.228 465.984 437.595 477.467 430.662 487.001C423.728 496.534 415.928 504.334 407.262 510.401C399.028 516.034 390.795 519.934 382.562 522.101L465.112 734.001H383.212ZM378.012 409.001C378.012 395.134 376.062 383.651 372.162 374.551C368.262 365.451 363.062 358.301 356.562 353.101C350.495 347.901 343.562 344.217 335.762 342.051C327.962 339.884 320.162 338.801 312.362 338.801H268.162V480.501H312.362C331.428 480.501 347.028 474.651 359.162 462.951C371.728 450.817 378.012 432.834 378.012 409.001Z" fill="black"/>
<path d="M835.414 409.651C835.414 433.051 831.73 453.634 824.364 471.401C817.43 488.734 808.114 503.251 796.414 514.951C784.714 526.651 771.28 535.317 756.114 540.951C740.947 546.584 725.347 549.401 709.314 549.401H654.714V734.001H578.014V273.801H705.414C720.147 273.801 735.314 275.967 750.914 280.301C766.514 284.634 780.38 292.217 792.514 303.051C805.08 313.451 815.264 327.317 823.064 344.651C831.297 361.984 835.414 383.651 835.414 409.651ZM761.314 410.301C761.314 385.601 755.464 367.617 743.764 356.351C732.064 345.084 717.114 339.451 698.914 339.451H654.714V485.701H698.914C717.114 485.701 732.064 479.417 743.764 466.851C755.464 453.851 761.314 435.001 761.314 410.301Z" fill="black"/>
</svg>
