<svg xmlns="http://www.w3.org/2000/svg" viewBox="0 0 1000 1000"><path d="M256.21 612.255c-28.682 0-53.407-24.726-53.407-53.407v-61.319h105.824v61.319c0 28.681-23.736 53.407-52.417 53.407zM5 500.002c0 276.43 224.506 495.001 495.002 495.001 276.43 0 495.001-224.506 495.001-495.001C995.003 226.539 773.464 5 500.496 5 223.572 5 5 229.506 5 500.002zm118.682-2.473v-39.56c0-21.759 17.802-39.561 39.56-39.561 22.748 0 39.56 17.802 39.56 39.56v39.561zm184.945 0V376.87c0-21.758 18.792-40.55 40.55-40.55 22.747 0 41.539 18.792 41.539 40.55v120.66zm82.089 181.979V497.529h128.571v181.979c0 35.604-28.681 65.275-65.275 65.275-34.615 0-63.296-29.67-63.296-65.275zm128.571-181.979V318.518c0-34.616 28.682-62.308 62.308-62.308 34.616 0 63.297 27.692 63.297 62.308v179.011zm125.605 144.396V497.53h80.11v144.396c0 21.759-16.813 40.55-39.56 40.55-22.747 0-40.55-18.792-40.55-40.55zm80.11-144.396V367.97c0-20.77 16.814-35.605 36.594-35.605 20.77 0 36.593 14.835 36.593 35.604V497.53h77.144v39.56c0 22.748-16.814 39.561-40.55 39.561-21.758 0-38.572-16.813-38.572-39.56v-39.56z"/></svg>