<svg xmlns="http://www.w3.org/2000/svg" viewBox="0 0 1000 1000"><path d="M500,0C224.3,0,0,224.3,0,500.005s224.3,500,500,500S1000,775.7,1000,500.005,775.7,0,500,0Zm0,961.466c-254.452,0-461.461-207.009-461.461-461.461S245.543,38.534,500,38.534,961.466,245.552,961.466,500.005,754.448,961.466,500,961.466Zm71.8-586.836,127.144,5.264v49.137L571.753,434.1l86.185,93.623-34.755,34.747L531.161,477.5,527,683.374l74.275,5.433V734.57l-75.427,5.722L524.4,811.728H475.267l-1.392-71.541-74.646-5.668V688.757l73.535-5.379-4.01-205.973-92.182,84.86-34.745-34.75L428.172,434,301.03,428.733V379.6l127.189-5.072L342.039,280.9l34.747-34.745L470.3,332.5l5.263-127.141H524.7l5.074,127.184L623.4,246.37l34.743,34.742Z"/></svg>