<svg xmlns="http://www.w3.org/2000/svg" viewBox="0 0 1000 1000"><path d="M13.736 588.328c-12.408-62.039-9.926-116.634 0-183.636C57.164 224.778 161.39 101.941 330.136 36.18c8.686-3.722 8.686-2.481 8.686 6.204v174.95c0 2.482-3.723 9.927-8.686 11.168-84.373 57.076-135.245 132.764-148.894 233.267-12.408 131.523 35.983 235.75 148.894 311.437 6.204 4.963 8.686 7.445 8.686 14.89v172.469c0 6.204-2.482 6.204-8.686 6.204-172.469-70.725-279.176-194.804-316.4-378.44zm379.68 385.884a50867.086 50867.086 0 0 0 0-615.429c0-8.685 2.482-11.167 9.927-12.408 65.761-31.02 130.282-31.02 194.803 0 8.685 1.241 9.926 3.723 9.926 12.408v615.43c0 8.685-1.24 12.407-9.926 12.407-68.243 11.167-126.56 11.167-193.563 0-8.685 0-11.167-3.722-11.167-12.408zm0-784.176c1.241-54.594 0-109.189 1.241-163.783 0-2.482 3.722-7.445 8.686-7.445C488.957.196 532.384 1.438 598.146 16.327c8.685 2.481 9.926 4.963 9.926 12.407v161.302c0 7.445 0 7.445-9.926 7.445-64.521-22.334-129.042-22.334-194.803 0-7.445 0-9.927 0-9.927-7.445zm270.491 770.528v-173.71c0-6.204 3.723-8.686 7.445-13.649 102.985-68.243 153.857-163.783 150.135-286.621-6.204-111.67-58.317-196.044-150.135-256.843-6.204-4.963-7.445-9.926-7.445-14.889V43.624c0-9.926 0-11.167 9.927-7.445C905.86 131.72 1031.18 351.34 985.27 598.254c-38.464 177.433-142.69 301.511-313.918 367.273-6.204 1.24-7.445 1.24-7.445-4.963z"/></svg>