<svg xmlns="http://www.w3.org/2000/svg" width="1000" height="1000">
  <path d="M5 500.496c0 271.98 220.55 494.507 495.496 494.507 271.98 0 494.507-220.55 494.507-495.496C995.003 227.528 773.464 5 500.496 5 226.54 5 5 225.55 5 500.496zm194.836 185.935V403.573c0-33.627 11.868-59.341 41.538-80.11 72.198-47.473 145.386-91.979 215.606-143.408 29.67-21.758 63.296-22.747 96.923 0l215.605 143.408c29.67 19.78 42.528 46.483 42.528 80.11v286.814c0 51.429-34.616 84.066-84.067 84.066H698.3c-59.34-20.77-101.868-58.352-113.737-121.649-9.89-24.725-9.89-42.527 15.825-59.34 33.626-28.682 42.527-68.243 25.714-110.77-12.857-36.594-46.484-66.264-89.011-66.264h-97.913c-24.725 0-42.527 16.813-42.527 42.528v303.627c0 3.956 0 8.901 4.945 11.868H287.858c-58.352 0-88.022-29.67-88.022-88.022z" style="fill:#000;fill-opacity:1;fill-rule:nonzero;stroke:none;"/>
</svg>
