<svg xmlns="http://www.w3.org/2000/svg" width="1000" height="1000">
  <path d="M440.838 96.48h7.347c22.038 14.692 37.78 35.681 54.571 56.67 48.275 58.77 94.452 116.49 142.727 174.21 10.494 15.742 25.187 26.237 39.879 38.83 0 1.05 2.099 3.149 2.099 4.198 7.346 32.533 23.088 60.869 36.73 93.402 5.248 7.346 5.248 12.593-2.098 18.89-2.099 5.247-4.198 7.346-5.247 10.495-15.742-18.89-34.632-29.385-57.72-38.83-1.05 0-1.05 2.099-1.05 2.099 3.148 1.05 8.396 7.346 12.594 8.395 16.79 8.396 29.384 22.039 39.879 34.632 1.05 2.1 0 9.445 0 11.544-3.148 4.198-4.198 7.347-7.346 10.495-17.841-6.297-36.731-8.396-57.72-8.396-10.495 0-22.039-2.099-32.534-2.099-2.098 0-2.098 2.1-2.098 2.1 12.593 2.098 22.038 3.148 32.533 3.148 20.989 0 38.83 3.148 56.67 16.791-4.197 14.692-11.544 28.335-14.692 41.978-3.148 3.149-4.198 3.149-8.396 5.248-6.296 4.197-15.742 9.445-22.038 12.593 15.742-2.099 30.434-3.148 39.88-20.99 5.246-19.939 15.74-38.829 23.087-56.67 11.544-25.187 22.039-47.225 38.83-67.165 13.643-10.495 25.187-16.791 41.978-13.643 27.286 6.297 41.979 30.434 35.682 58.77-6.297 28.335-18.89 55.62-33.583 83.956-14.692 26.237-30.434 52.473-45.126 80.808-4.198 6.297-4.198 13.643-6.297 19.94l2.099 2.099c7.346-15.742 13.643-33.583 20.989-50.374 6.297 37.78-3.148 71.363-20.99 102.847 13.644-12.594 24.138-29.385 27.287-47.226 3.148-19.94 6.296-38.83 6.296-56.67 0-8.396 0-15.742 6.297-23.088 3.148-4.198 7.346-11.544 11.544-15.742 9.445 4.198 17.84 8.395 19.94 18.89 5.247 20.989 14.692 27.286 36.73 29.385 3.15 0 6.298 5.247 8.396 7.346 14.693 18.89 23.089 41.978 28.336 65.066 3.148 3.149 3.148 5.248 3.148 7.346l2.1 2.1c3.147-22.04-2.1-44.078-27.287-83.957 5.248-3.149 8.396-7.346 14.693-12.594 25.187 22.039 30.434 22.039 44.077 23.088-9.445-8.395-22.039-16.791-31.484-23.088-5.247-3.148-6.297-7.346-5.247-16.791 3.148-3.148 3.148-8.396 5.247-15.742 0-27.286 0-51.423 1.05-75.56 0-4.199 2.098-9.446 3.148-13.644 4.198-5.247 12.593-11.544 15.742-18.89 0 0-2.1 0-2.1-2.099-8.395 6.297-11.543 9.445-16.79 15.742 0-3.148 0-3.148-1.05-3.148 3.148-10.495 4.198-19.94 8.396-29.385h-2.1l-5.246 9.445c-1.05-9.445-3.149-20.99-6.297-30.434h-1.05c0 16.791 1.05 37.78 0 56.67 0 32.534 0 61.918-6.296 93.402-1.05 25.187-26.237 39.88-51.424 29.385-3.148 0-5.247-6.297-7.346-9.445-7.346-26.237-9.445-52.473 0-79.759 6.297-14.692 10.495-31.484 10.495-46.176 3.148-18.89-6.297-36.731-23.088-49.325-9.446-6.296-10.495-11.544-2.1-22.038 0 0 0-1.05 2.1-3.149-3.149 2.1-5.248 2.1-10.495 3.149 0-6.297-2.099-16.792-4.198-29.385 16.791 19.94 37.78 19.94 57.72 25.187 15.742 0 27.286 4.198 35.682 17.84 23.088 27.287 48.275 57.72 70.313 86.056 13.643 17.841 20.99 40.93 25.187 65.067 3.149 32.533 5.248 62.967 0 94.45-2.099 12.594-8.395 23.089-15.741 35.682-26.237 38.83-47.226 82.907-57.72 129.083-13.644 35.682-35.682 53.523-69.265 58.77-51.423 10.495-103.896 6.297-151.122-22.039-48.275-28.335-56.67-88.154-15.741-128.033 5.247-6.297 8.395-10.495 13.643-14.693 14.692 8.396 26.236 14.693 39.879 20.99 0 0 0-2.1 4.198-2.1-6.297-3.148-7.346-4.197-9.445-6.296-23.088-13.643-43.028-30.434-57.72-51.424-19.94-27.285-19.94-49.324-2.1-76.61 2.1-4.198 6.297-11.544 7.347-14.692-1.05 0-1.05 0-3.149-2.1-8.395 16.792-18.89 31.484-27.286 45.127 0 0-2.098-1.05-4.197-5.247-4.198-8.396-8.396-17.84-11.544-25.187-29.385-67.165-75.561-118.589-131.182-163.715-40.93-36.731-80.809-75.561-120.688-109.144-13.643-12.593-28.335-25.187-41.978-40.929-6.297-6.296-15.742-16.79-23.088-28.335-6.297-12.593-6.297-27.286 0-32.533 11.544-11.544 23.088-14.692 38.83-7.346 8.395 3.148 18.89 9.445 25.186 15.742 40.93 46.176 90.254 77.66 135.38 116.49 28.336 17.84 54.572 34.631 81.858 49.324 12.594 8.395 27.286 0 33.583-14.693-3.149 2.1-6.297 4.198-10.495 5.248-1.05 3.148-5.247 5.247-5.247 5.247-24.138-27.286-48.275-53.522-69.264-80.808-41.979-54.572-79.759-108.094-119.638-161.617-1.05-4.197-3.149-9.445-5.248-12.593-13.643-29.385-7.346-45.127 20.99-59.82zM6.363 801.715c-3.148-23.088 0-47.226 1.05-69.264 6.296-37.78 22.038-73.462 49.324-99.699 8.396-12.593 19.94-27.285 31.484-38.83 35.681-30.434 60.868-67.165 85.006-103.896 15.742-18.89 31.484-39.88 50.374-56.67 40.929-36.731 82.907-70.314 114.39-114.391 0-1.05 3.149-1.05 5.248-5.248 20.99 19.94 38.83 39.88 57.72 56.671-22.039 32.533-44.077 57.72-86.055 40.929 11.544 10.495 32.533 14.692 45.126 7.346 16.792-7.346 31.484-15.742 46.176-25.187 2.1-2.099 6.297-4.198 7.347-5.247 22.038 16.791 41.978 35.681 64.016 54.572-12.593 5.247-22.038 13.643-30.434 22.038-10.494 8.396-22.038 13.643-25.187 28.336 3.149-3.149 8.396-10.495 14.693-14.693 5.247-5.247 11.544-9.445 23.088-5.247 9.445 3.148 20.989 3.148 29.384 1.05 20.99-1.05 28.336 13.642 36.731 27.285 6.297 13.643 5.248 23.088-2.098 35.682-13.643 14.692-29.385 24.137-46.177 29.385-15.741 5.247-29.384 11.544-40.928 16.79-14.693 6.298-23.088 17.842-27.286 32.534 15.742-17.84 37.78-31.484 64.017-38.83-4.198 12.594-4.198 23.088-9.445 28.336-16.792 24.137-33.583 47.225-51.424 70.313-16.791 18.89-35.681 33.583-50.374 50.374-28.335 36.731-69.264 55.621-109.143 65.066-13.643 4.198-22.039 6.297-34.632 10.495-9.446 3.148-15.742 8.396-16.792 22.039 3.149-2.1 6.297-5.248 7.346-5.248l2.1 3.149c0 17.84-9.446 30.434-25.188 41.978-31.483 16.791-61.918 16.791-95.5 11.544-5.247-3.148-13.643-5.247-20.99-5.247-35.68-6.297-58.769-33.583-62.967-68.215zm285.453-253.969c12.593 8.396 32.533 4.198 41.978-8.395-14.693 2.099-27.286 5.247-41.978 8.395zm104.945-288.6c16.792-15.742 31.484-32.533 47.226-48.275 0 0 0 1.05 3.148 3.148 12.594 19.94 26.237 36.731 39.88 57.72-8.396 13.643-19.94 24.138-29.385 37.78-20.99-16.79-41.979-33.582-60.869-50.373zm89.204 74.511c13.643-8.396 23.088-14.692 34.632-19.94 11.544 17.841 30.434 36.731 45.127 55.622-4.198 4.198-9.445 6.296-13.643 13.643-23.088-16.792-43.028-32.534-66.116-49.325zm20.99-183.655c7.345-8.395 16.79-13.643 25.186-19.94 13.643-9.445 30.434-3.148 36.731 9.446 5.248 13.643 7.346 26.236 0 39.879-6.297 7.346-12.593 15.742-17.84 25.187-15.742-19.94-28.336-35.682-44.078-54.572zm89.203 109.144c23.088-9.445 47.226-19.94 70.314-31.484 4.198 0 10.494 0 14.692 6.297 9.445 7.346 13.643 27.286 1.05 39.88-4.198 6.296-9.446 11.543-15.742 14.691-8.396 8.396-18.89 13.643-29.385 20.99-11.544-16.792-24.138-30.435-40.929-50.374zM690.61 347.3c-2.099-33.583 29.385-54.572 62.968-38.83 16.791 7.346 32.533 18.89 37.78 38.83 6.297 26.237 7.346 53.522 11.544 81.858-30.434-1.05-53.522 8.395-69.264 34.632-23.088-35.682-38.83-74.512-43.028-116.49zm65.067 417.684c22.038 23.088 72.412 32.533 87.105 16.791-30.435 3.149-57.72-3.148-87.105-16.791zm13.643-25.187c15.741-6.297 33.582-43.028 29.384-59.819-10.494 17.84-20.989 39.88-29.384 59.819zm37.78-156.37c1.05-3.147 1.05-5.246 5.247-8.395 3.149 5.248 5.248 9.445 7.346 14.693 0 0 0 1.05-2.098 1.05-2.1-1.05-5.248-4.199-10.495-7.347z" style="fill:#000;fill-opacity:1;fill-rule:nonzero;stroke:none;"/>
</svg>
