<svg xmlns="http://www.w3.org/2000/svg" viewBox="0 0 1000 1000"><path d="M456.98 541.539h-65.275L139.506 374.395H47.528c-11.869 0-21.759 3.956-29.67 11.869C8.955 395.164 5 405.054 5 415.934c0 11.868 3.956 21.758 12.857 29.67 8.901 7.913 17.802 12.858 29.67 12.858h67.254l252.198 167.143h90c11.869 0 21.759-3.956 30.66-12.857 7.912-7.912 11.868-17.802 11.868-29.67 0-10.88-3.956-20.77-11.868-29.671-7.912-8.901-18.791-11.868-30.66-11.868zM5 583.077c0 11.869 3.956 21.759 12.857 29.67 8.901 7.913 17.802 12.858 29.67 12.858h81.1c11.868 0 21.758-3.956 30.66-12.857 7.911-7.912 11.867-17.802 11.867-29.67 0-10.88-3.956-20.77-11.868-29.671-7.912-8.901-18.791-11.868-30.66-11.868H47.529c-11.869 0-21.759 3.956-29.67 11.868C8.955 562.308 5 572.198 5 583.077zm329.342-167.143c0 11.868 3.956 21.758 12.857 29.67 8.901 7.913 17.802 12.858 29.67 12.858h67.253l252.199 167.143h133.517c11.868 0 21.758-3.956 30.66-12.857 7.911-7.912 11.868-17.802 11.868-29.67 0-10.88-3.957-20.77-11.869-29.671s-18.79-11.868-30.66-11.868H722.036L469.837 374.395h-92.968c-11.868 0-21.758 3.956-29.67 11.869-8.901 8.9-12.857 18.79-12.857 29.67zm328.353 0c0 11.868 3.956 21.758 12.857 29.67 8.9 7.913 17.802 12.858 29.67 12.858h205.715V500c0 11.868 3.956 21.759 12.857 29.67 8.901 7.913 17.803 12.858 28.682 12.858 11.868 0 21.758-3.956 30.66-12.857 7.911-7.912 11.867-17.803 11.867-29.67V374.394h-289.78c-11.869 0-21.76 3.956-29.671 11.869-8.901 8.9-12.857 18.79-12.857 29.67z"/></svg>