<svg xmlns="http://www.w3.org/2000/svg" viewBox="0 0 1000 1000"><path d="M500,5C226.62,5,5,226.62,5,500S226.62,995,500,995,995,773.38,995,500,773.38,5,500,5ZM773.93,773.36c-72,72.4-167.76,112.27-269.6,112.27C394.8,885.63,294.9,848.72,223,781.7c-70-65.3-108.6-154-108.66-249.69l.7-3.08a385.42,385.42,0,0,1,60.41-136.08C247.84,289.55,365.14,228,489.56,228h1.55c8.58,0,16.41.27,23.64.67a353.1,353.1,0,0,1,52.16,6.8l.06,0c2.56.65,5.1,1.35,7.62,2.08l1.36.4q3.64,1.08,7.23,2.26l1.44.48q3.66,1.23,7.25,2.56l.65.25c2.31.87,4.59,1.77,6.86,2.71l1.1.44q3.46,1.45,6.88,3l1.38.63q3.42,1.57,6.77,3.25l.92.47c2.17,1.09,4.32,2.22,6.45,3.37l.71.38c2.21,1.21,4.39,2.46,6.55,3.73l1.24.73q3.2,1.9,6.31,3.9l1,.66c2.12,1.37,4.22,2.76,6.29,4.19l.17.12c2.11,1.46,4.17,2.95,6.22,4.47l1,.77q3,2.22,5.85,4.52l1,.81q3,2.4,5.87,4.87l.2.18q2.85,2.46,5.62,5c.27.24.54.48.8.73,1.82,1.68,3.6,3.39,5.37,5.12l.94.94q2.67,2.64,5.25,5.36l.49.53q2.52,2.67,4.95,5.43l.53.59q2.46,2.81,4.85,5.69l.84,1q2.36,2.88,4.62,5.82l.61.81q2.26,3,4.44,6l.21.29q2.21,3.11,4.3,6.26c.24.36.48.71.71,1.07,1.36,2.06,2.68,4.13,4,6.23.21.35.42.71.64,1.06,1.33,2.18,2.64,4.38,3.9,6.61l0,0c1.25,2.22,2.47,4.47,3.66,6.73l.57,1.07q1.7,3.27,3.3,6.6l.6,1.25c1.07,2.27,2.13,4.55,3.13,6.85l.27.62c1,2.22,1.9,4.46,2.8,6.71l.4,1c.91,2.3,1.77,4.62,2.61,6.95l.51,1.4c.82,2.34,1.62,4.68,2.37,7,.12.35.22.71.33,1.06.73,2.3,1.42,4.6,2.07,6.93.08.25.15.5.22.76.68,2.41,1.31,4.85,1.91,7.29l.36,1.48c.58,2.41,1.12,4.82,1.63,7.25l.09.45a262.28,262.28,0,0,0-60.92-88.24C632.93,285.35,565,258.25,493,258.25c-110.61,0-209.9,68.72-249.62,171.86-.25.4-.48.8-.71,1.19l-.92,1.54c-.29.5-.56,1-.84,1.49s-.59,1-.87,1.54-.53,1-.79,1.48-.55,1-.82,1.54l-.75,1.5c-.26.51-.52,1-.77,1.53l-.71,1.5c-.24.5-.48,1-.71,1.52s-.45,1-.68,1.52-.45,1-.66,1.5-.43,1-.64,1.53-.42,1-.61,1.49-.41,1-.61,1.54l-.57,1.47c-.19.52-.38,1-.56,1.55s-.36,1-.53,1.46-.36,1-.53,1.55l-.49,1.44c-.17.52-.33,1-.49,1.56s-.31,1-.45,1.43-.31,1-.46,1.55-.28,1-.41,1.43-.29,1-.43,1.56-.25.93-.37,1.4-.27,1-.4,1.56-.23.93-.34,1.39-.24,1-.36,1.55-.21.92-.31,1.38-.22,1-.33,1.56-.2.9-.29,1.35l-.3,1.56c-.08.44-.17.89-.25,1.33s-.18,1-.27,1.55-.16.89-.23,1.32-.17,1-.25,1.57-.13.85-.2,1.28-.15,1.05-.22,1.58-.12.83-.17,1.24-.13,1-.2,1.54l-.15,1.26c-.06.51-.12,1-.17,1.53s-.1.83-.14,1.24l-.15,1.56c0,.39-.08.79-.11,1.18s-.09,1.05-.13,1.58c0,.37-.07.75-.1,1.12,0,.54-.07,1.07-.11,1.6,0,.36,0,.72-.07,1.08,0,.53-.07,1.06-.1,1.59l-.06,1.05c0,.53-.05,1-.07,1.56,0,.35,0,.7-.05,1.05s0,1-.05,1.47,0,.73,0,1.1c0,.52,0,1,0,1.55,0,.32,0,.65,0,1,0,.66,0,1.31,0,2,0,.17,0,.35,0,.52,0,.63,0,1.25,0,1.87,0,.19,0,.39,0,.58v2.4c0,85.35,34.9,166.08,98.29,227.32a335.18,335.18,0,0,0,104.62,68.73,326.23,326.23,0,0,0,125.76,25.22c37,0,72.92-6.16,109.89-18.84l.23-.09A382.07,382.07,0,0,0,834.86,693l1.66-2.22A385,385,0,0,1,773.93,773.36Zm106.8-246.68a349,349,0,0,1-65.27,151.79q-2,2.61-4,5.17t-3.91,4.93A357.9,357.9,0,0,1,651.84,800c-34.36,11.77-67.7,17.5-101.91,17.5a302,302,0,0,1-116.45-23.37,310.83,310.83,0,0,1-97.08-63.78c-.34-.32-.67-.66-1-1q-2-2-4-4l-1.56-1.6q-1.68-1.72-3.35-3.48c-.59-.62-1.17-1.25-1.76-1.88q-1.54-1.66-3.08-3.35l-1.71-1.9c-1.07-1.2-2.12-2.42-3.17-3.63l-1.42-1.64c-1.5-1.76-3-3.54-4.43-5.32l-.28-.36c-1.35-1.67-2.69-3.36-4-5-.47-.6-.92-1.21-1.38-1.81q-1.41-1.85-2.79-3.7c-.51-.7-1-1.39-1.52-2.09q-1.31-1.79-2.56-3.58c-.49-.7-1-1.4-1.47-2.1q-1.33-1.93-2.64-3.89l-1.2-1.79c-1.24-1.89-2.46-3.78-3.65-5.69-.18-.28-.35-.56-.52-.84q-1.53-2.48-3-5l-1.19-2q-1.12-1.91-2.21-3.84c-.43-.76-.86-1.53-1.28-2.3-.69-1.24-1.36-2.49-2-3.75-.4-.76-.81-1.51-1.21-2.28-.71-1.36-1.4-2.73-2.09-4.1-.32-.64-.65-1.28-1-1.93q-1.47-3-2.87-6c-.19-.4-.36-.79-.54-1.19-.75-1.64-1.5-3.29-2.22-4.95l-.95-2.22c-.56-1.33-1.12-2.66-1.67-4-.33-.81-.66-1.63-1-2.44q-.78-2-1.53-3.93l-.91-2.4c-.53-1.45-1.05-2.91-1.57-4.37l-.69-2q-1.08-3.12-2.08-6.29c-.15-.46-.29-.93-.43-1.4-.53-1.66-1-3.34-1.53-5l-.66-2.32c-.39-1.4-.78-2.79-1.15-4.19-.22-.83-.44-1.67-.65-2.5-.36-1.39-.7-2.78-1-4.17-.19-.8-.39-1.61-.58-2.41-.36-1.57-.7-3.14-1-4.71-.13-.62-.27-1.24-.4-1.86-.45-2.18-.88-4.36-1.28-6.56l-.24-1.42c-.31-1.74-.61-3.48-.88-5.23-.12-.77-.23-1.54-.35-2.31s-.28-1.82-.41-2.74a.49.49,0,0,0,0,.11,260.86,260.86,0,0,0,67.38,105.39C367.07,714.64,435,741.75,507,741.75c113.31,0,214.75-72.13,252.43-179.49a270.45,270.45,0,0,0-87.87-301.82,266.22,266.22,0,0,0-98.95-48.52l-.59-.14c-19.37-3.89-44.12-7.89-80.79-8h-1.65c-132.31,0-257,65.39-333.93,175.17q-2.73,3.9-5.37,7.85c-.49.73-1,1.48-1.44,2.21q-1.89,2.87-3.74,5.74c-.58.92-1.14,1.86-1.72,2.78-1.09,1.75-2.19,3.5-3.26,5.27l-1.82,3.09c-1,1.69-2,3.36-3,5.06-.63,1.09-1.23,2.19-1.84,3.29-.92,1.64-1.85,3.28-2.75,4.94-.62,1.15-1.22,2.31-1.83,3.46-.86,1.62-1.73,3.24-2.57,4.87-.61,1.2-1.19,2.4-1.79,3.6-.81,1.61-1.62,3.21-2.4,4.82-.6,1.25-1.18,2.51-1.77,3.76-.75,1.58-1.5,3.16-2.23,4.74l-.18.39A381.9,381.9,0,0,1,226.07,226.64c72-72.4,167.76-112.27,269.59-112.27C605.2,114.37,705.1,151.28,777,218.3,847,283.65,885.63,372.41,885.63,468.22c0,5.12-.13,10.53-.38,16.06A349.57,349.57,0,0,1,880.73,526.68Z"/></svg>