<svg xmlns="http://www.w3.org/2000/svg" viewBox="0 0 1000 1000"><path d="M500.496 995.003c275.935 0 494.507-224.506 494.507-495.496C995.003 226.54 773.464 5 500.496 5 223.572 5 5 229.506 5 499.507c0 276.924 224.506 495.496 495.496 495.496zM187.968 178.077H275c7.912 34.616 16.813 70.22 24.725 106.814 21.759 100.88 42.528 200.77 65.275 300.66 1.978 9.89-.989 13.847-9.89 17.803-21.758 9.89-44.506 16.813-70.22 16.813-6.923 0-9.89-2.967-11.868-9.89-24.725-126.594-50.44-253.188-75.165-380.77-3.956-17.803-7.912-34.616-9.89-51.43zm103.846 523.19c-.989-5.935.99-6.924 7.912-9.891 17.803-3.956 35.605-8.901 53.407-13.846 1.978-.99 2.967-1.978 5.934-2.967 9.89-2.967 11.868-1.978 12.857 9.89 0 6.923 1.978 14.835 1.978 21.758l.99-.989 8.9-29.67c.99-2.967 2.968-6.923 5.935-6.923 17.802-3.956 37.582-6.924 59.34-10.88-1.978 6.924-3.956 10.88-4.945 14.836-10.879 39.56-22.747 77.143-33.626 116.703-1.978 5.934-4.945 7.912-11.868 7.912h-78.132c-7.913 0-9.89-1.978-11.869-8.9-4.945-29.671-10.879-57.364-16.813-87.034zm120.66-125.606c0-1.978.989-4.945.989-7.912 17.802-58.352 35.604-115.715 52.418-173.077.989-5.934 3.956-6.923 9.89-6.923h37.582c5.934 0 8.901 1.978 10.88 6.923 15.824 52.417 32.637 103.846 48.461 156.264 2.967 7.912 4.945 15.824 8.901 25.714-9.89-2.967-15.824-3.956-22.747-4.945-12.857-1.978-25.714-4.945-39.56-4.945-7.913 0-12.858-2.967-15.825-12.857-1.978-13.846-6.923-27.692-11.868-42.528-2.967 4.945-2.967 9.89-3.956 13.847-3.956 10.879-5.934 22.747-8.901 32.637-.99 3.956-3.956 7.912-6.923 8.901-18.792 1.978-37.583 4.945-59.341 8.901zm125.605 82.088c10.879.99 21.758 1.978 33.626 3.956 9.89.99 18.791 3.957 29.67 4.946 5.935.989 10.88 3.956 11.869 9.89 2.967 10.879 5.934 19.78 8.9 29.67 1.979 0 1.979-.989 2.968-.989v-23.736c0-6.923 2.967-8.901 8.901-6.923 19.78 5.934 40.55 10.879 61.319 16.813 2.967.989 5.934 4.945 4.945 7.912-6.923 30.66-12.857 61.319-19.78 90.99-.99 2.966-4.945 6.922-6.923 6.922H586.54c-5.934 0-6.923-3.956-8.9-7.912-8.902-28.681-18.792-57.363-25.715-85.055-5.934-12.857-8.901-23.736-11.868-36.593-.99-2.967-.99-4.946-1.978-9.89zm95.934-70.22c11.868-68.242 24.725-138.462 36.594-207.693 10.879-67.253 22.747-135.495 34.615-201.759h26.704c1.978 0 4.945.99 6.923.99 18.79 0 37.582.989 55.384 1.978 4.945 0 8.902.989 12.858 1.978v3.956c-1.978 11.868-4.945 24.725-7.913 36.593-26.703 127.583-53.406 257.144-80.11 386.705-1.978 9.89-2.967 11.868-13.846 7.912-19.78-3.956-40.55-7.912-61.319-12.857-11.868-3.956-12.857-4.945-9.89-17.803z"/></svg>