<svg xmlns="http://www.w3.org/2000/svg" width="1000" height="1000">
  <path d="M502.303 995.004h-6.907c0-1.151-1.151-1.151-1.151-1.151-8.059-1.152-13.814-4.605-18.419-8.059-35.686-19.57-70.221-40.29-105.907-59.86-39.14-24.175-79.43-47.198-119.722-70.221-54.105-32.233-110.512-65.617-164.617-96.699-3.453-1.15-5.756-2.302-9.209-5.755-4.605-3.454-8.058-8.059-8.058-13.814V405.606c0-4.605 0-9.21 2.302-12.663 4.605-10.36 13.814-18.418 26.477-18.418 10.36 0 21.872 8.058 24.174 18.418 2.303 3.454 3.454 8.058 3.454 11.512v299.303c0 5.756 3.453 10.361 9.21 13.814l29.93 18.42 69.07 40.29c44.895 26.477 88.64 51.803 132.384 78.28 39.14 21.872 75.977 42.593 112.814 66.767 4.605 2.302 11.512 4.605 17.268 5.756 8.058 1.151 16.116 0 21.872-3.454 8.058-4.604 17.268-9.209 25.326-14.965 57.558-32.232 112.814-66.767 170.372-99 34.535-20.721 67.92-41.442 103.605-62.163 13.814-8.058 28.78-17.268 43.745-25.326 8.058-4.605 10.36-10.36 10.36-20.72V409.06c0-4.605 0-8.059 2.303-11.512 3.453-13.814 13.814-23.023 27.628-23.023s25.325 8.058 29.93 21.872l1.151 5.756v338.443s0 2.302-1.151 2.302c0 5.756-4.605 10.36-9.21 14.965l-50.65 27.628L747.5 856.864c-40.29 24.174-82.884 47.198-123.174 71.372l-105.908 61.012c-2.302 1.151-6.907 3.453-11.511 4.605-2.303 0-3.454 0-4.605 1.15zm-417.874-690.7c-17.267-24.175-13.814-58.71 8.058-81.733 4.605-6.907 11.512-11.512 18.419-16.117L325.023 72.92c18.419-10.36 36.837-23.024 55.256-33.384 28.78-17.268 57.558-28.78 88.64-31.082C480.431 6.151 490.791 6.151 502.303 5c40.29 0 78.28 10.36 113.965 31.081 12.663 8.059 25.326 16.117 37.989 23.024 72.523 44.895 145.047 89.79 216.42 136.989 11.511 4.604 20.72 12.663 28.779 19.57 12.662 14.965 19.57 29.93 23.023 48.349 3.453 28.779-8.058 49.5-27.628 66.767l-24.175 13.814c-63.314 39.14-126.628 78.28-189.942 116.268-13.814 8.058-25.326 19.57-34.535 33.384-8.058 12.663-16.117 26.477-23.024 40.29-28.779 46.048-56.407 90.943-82.884 138.14-5.755 9.21-10.36 18.42-14.965 26.478-4.604 8.058-11.511 10.36-18.418 12.663-12.663 1.15-21.873-2.303-28.78-12.663l-16.116-27.628c-26.477-46.047-52.954-92.094-79.43-136.99-6.908-9.208-11.512-20.72-17.268-31.08-4.605-9.21-11.512-18.42-18.419-26.477-4.604-5.756-9.21-10.361-16.116-13.814L112.057 330.78c-10.36-8.058-19.57-14.965-27.628-26.477zm89.791-40.291c3.454 16.116 12.663 28.779 26.477 35.686 29.93 18.418 58.71 37.988 88.64 54.105 28.78 19.57 58.71 39.14 88.64 57.558 17.267 9.21 28.779 24.174 37.988 40.29 20.721 39.14 42.593 78.28 62.163 117.42 2.303 2.302 3.454 5.756 6.907 10.36 4.605 5.756 10.36 10.36 18.419 9.21 8.058-1.151 12.663-4.605 17.268-12.663l72.523-134.687c8.058-13.814 18.419-26.477 34.535-34.535 57.558-35.686 112.814-71.372 170.373-107.058 6.907-2.303 12.663-6.907 17.267-13.814 17.268-18.419 18.419-44.896 4.605-65.617-4.605-6.907-12.663-13.814-20.721-19.57-67.919-41.442-135.838-84.035-204.908-125.477-28.779-18.419-58.71-28.779-92.093-28.779-6.907 2.302-14.965 2.302-20.721 2.302-25.326 3.454-49.5 12.663-71.373 26.477-61.011 36.837-120.872 73.675-181.884 111.663-10.36 5.756-19.57 12.663-31.081 18.42-18.42 13.813-27.628 35.685-23.024 58.709z" style="fill:#000;fill-opacity:1;fill-rule:nonzero;stroke:none;"/>
</svg>
