<svg xmlns="http://www.w3.org/2000/svg" viewBox="0 0 1000 1000"><path d="M501.485 197.858c20.473 0 39.264 5.143 56.374 15.33 17.11 10.186 30.857 24.23 41.044 42.033 10.187 17.802 15.33 37.088 15.33 57.857 0 20.77-5.143 39.857-15.33 57.363-10.187 17.505-23.934 31.45-41.044 42.033-17.11 10.582-35.901 15.824-56.374 15.824-20.472 0-39.264-5.242-56.374-15.824-17.11-10.583-30.66-24.528-40.55-42.033-9.89-17.506-14.834-36.594-14.834-57.363 0-20.77 4.945-40.055 14.835-57.857 9.89-17.803 23.44-31.847 40.55-42.034 17.11-10.186 35.9-15.33 56.373-15.33zM5 500.002c0-89.308 22.45-172.583 67.253-249.726 44.209-74.473 103.55-133.814 178.023-178.023C327.419 27.45 410.793 5 500.496 5c89.011 0 172.089 22.45 249.232 67.253C824.2 116.462 883.54 175.803 927.75 250.276c44.803 77.143 67.253 160.418 67.253 249.726 0 89.308-22.45 172.583-67.253 249.726C883.541 824.2 824.2 883.54 749.728 927.75c-77.143 44.803-160.418 67.253-249.726 67.253-89.308 0-172.583-22.45-249.726-67.253-74.473-44.209-133.814-103.55-178.023-178.022C27.451 672.585 5 589.31 5 500.002zm350.111 212.143c0 27 6.626 51.923 19.78 74.67 13.154 22.748 30.956 40.847 53.407 54.397 22.45 13.55 46.78 20.274 73.187 20.274 26.407 0 50.737-6.725 73.187-20.274 22.45-13.55 40.253-31.649 53.407-54.396 13.154-22.748 19.78-47.67 19.78-74.67 0-25.023-5.637-48.265-16.813-69.726-11.176-21.462-26.703-39.264-46.484-53.407-19.78-14.143-41.835-22.55-66.264-25.22V460.936c24.43-2.67 46.484-10.88 66.264-24.726 19.78-13.846 35.308-31.648 46.484-53.407 11.176-21.758 16.813-45.198 16.813-70.22 0-34.912-10.879-66.264-32.637-93.956l82.088-82.088-23.736-23.736-82.089 82.088c-26.406-21.066-56.373-31.649-90-31.649-26.407 0-50.736 6.726-73.187 20.275-22.45 13.55-40.253 31.649-53.407 54.396-13.154 22.747-19.78 47.67-19.78 74.67 0 25.022 5.637 48.462 16.813 70.22 11.176 21.759 26.704 39.561 46.484 53.407 19.78 13.846 41.835 22.055 66.264 24.726v102.857c-24.429 2.67-46.484 11.077-66.264 25.22-19.78 14.143-35.308 31.945-46.484 53.407-11.176 21.461-16.813 44.703-16.813 69.725zm34.616 0c0-20.472 4.945-39.56 14.835-57.363 9.89-17.802 23.44-31.846 40.55-42.033 17.11-10.187 35.9-15.33 56.373-15.33s39.264 5.143 56.374 15.33c17.11 10.187 30.857 24.231 41.044 42.033 10.187 17.803 15.33 37.088 15.33 57.858 0 20.769-5.143 39.857-15.33 57.363-10.187 17.505-23.934 31.351-41.044 41.538-17.11 10.187-35.901 15.33-56.374 15.33-20.472 0-39.264-5.143-56.374-15.33-17.11-10.187-30.66-24.033-40.55-41.538-9.89-17.506-14.834-36.792-14.834-57.858z"/></svg>