<svg xmlns="http://www.w3.org/2000/svg" width="1000" height="1000">
  <path d="M493.255 735.985c63.821 67.503 115.37 111.687 162.008 164.462l47.866 49.094c77.322 62.594 175.509 55.23 238.103-7.364 67.503-66.276 72.412-170.6 6.136-236.876-62.594-72.412-132.552-137.46-202.51-208.646 60.14-62.594 122.734-122.734 180.418-177.963 83.459-83.46 94.505-186.555 15.956-260.195-73.64-78.55-176.736-68.73-258.968 17.183-58.912 56.457-114.142 119.05-182.872 190.236-42.957-45.411-67.504-82.231-100.642-114.142-34.365-36.82-67.503-68.73-101.868-98.186C192.558-40.917 35.46 11.858 9.686 146.865c-14.728 66.276 11.046 119.051 56.457 165.69C187.65 434.06 306.7 549.43 431.888 673.39c-67.503 62.594-130.097 117.824-186.554 181.645-33.138 31.91-74.868 51.548-109.233 14.728-44.184-41.73-29.456-78.55 8.591-114.142 57.685-45.411 109.233-98.187 166.918-146.053l-89.596-81.004c-51.548 52.776-98.186 104.324-148.507 155.872-83.459 81.004-90.823 185.327-18.41 257.74 72.413 74.867 177.963 69.958 261.422-13.501 56.457-58.912 115.37-120.279 176.736-192.691zM123.828 210.686c-42.957-50.32 51.548-128.87 98.186-78.55 69.958 56.458 128.87 130.098 200.056 191.465-31.911 31.91-62.594 57.684-94.505 83.458-62.594-55.23-135.007-123.96-203.737-196.373zm273.695 278.605c28.229-25.774 58.912-50.32 79.777-66.276 94.504-89.595 187.782-181.645 276.15-276.15 36.82-35.593 78.549-51.548 114.142-14.728 36.82 39.275 17.182 78.55-14.728 114.142C790.27 305.19 735.04 359.193 671.218 423.015c-25.774-28.229-40.502-42.957-66.276-63.822-22.092 22.092-47.866 45.412-79.776 78.55 46.638 41.73 98.186 90.822 146.052 133.78l185.328 190.236c31.91 29.456 47.866 66.276 11.046 103.096-35.593 35.592-73.64 24.546-110.46-9.819-54.003-60.14-116.597-115.37-185.328-177.963l73.64-77.322c-24.546-18.41-45.411-40.502-77.322-68.73-9.818 11.045-40.502 36.82-68.73 62.593-33.138-29.456-49.094-51.548-101.869-104.323z" style="fill:#000;fill-opacity:1;fill-rule:nonzero;stroke:none;"/>
</svg>
