<svg xmlns="http://www.w3.org/2000/svg" width="1000" height="1000">
  <path d="M5 500.496C5 225.55 226.54 5 500.496 5c272.968 0 494.507 222.528 494.507 494.507 0 274.946-222.528 495.496-494.507 495.496C225.55 995.003 5 772.475 5 500.496zm179.012-288.792c.989 0 .989 0 1.978 1.978 19.78 19.78 39.56 40.55 62.308 60.33 18.79 20.77 40.55 41.538 62.307 63.297 14.836 15.824 33.627 34.615 49.451 52.418 20.77 20.769 42.528 41.538 62.308 62.307 1.978 2.967 5.934 2.967 6.923 0 12.857-13.846 26.704-25.714 39.56-39.56 3.957-1.978 2.968-3.956 0-5.934-9.89-11.868-20.769-20.77-30.659-30.66-11.868-11.868-24.725-23.736-36.593-37.582-17.803-16.813-34.616-35.605-51.429-52.418-21.758-18.791-41.539-40.55-61.319-60.33-15.824-13.846-26.703-26.703-40.55-41.538-6.923-5.935-11.868-11.869-18.79-18.792-16.814 15.825-31.65 30.66-45.495 46.484zm3.956 559.782c4.945 3.956 9.89 10.88 14.835 14.835 8.901 7.912 17.802 17.803 26.703 26.704l18.792-18.792 42.527-42.527c15.824-15.824 30.66-30.66 45.495-46.484 11.868-11.868 23.736-23.736 36.593-35.604 6.923-7.913 16.814-16.814 25.715-25.715 7.912-9.89 18.791-18.791 27.692-27.692 12.857-11.868 24.725-25.715 36.594-36.594 10.879-10.879 11.868-9.89 0-19.78v-1.978c-10.88-11.868-21.759-22.747-34.616-35.605-6.923 6.924-12.857 14.836-20.77 20.77-15.823 16.813-30.659 30.66-46.483 47.472-23.736 22.748-47.473 47.473-70.22 70.22-18.791 17.803-35.604 34.616-52.418 51.43-14.835 16.812-33.626 35.604-50.44 53.406-2.966.989-2.966 3.956 0 5.934zm274.946-279.891c13.846 12.857 26.703 25.714 40.55 38.572.988 3.956 2.966 3.956 5.933.989 11.868-10.88 23.737-23.737 36.594-36.594.989-.989 1.978-3.956 5.934-4.945-.99-.989-.99-2.967-3.956-2.967-12.857-12.857-23.736-25.714-36.594-38.572-3.956-2.967-6.923-2.967-10.879 0-11.868 12.858-24.725 25.715-37.582 38.572zm77.143-82.088c14.835 14.835 27.692 28.681 41.538 42.527 1.978 2.967 4.945 2.967 8.901 0 16.814-18.79 36.594-36.593 55.385-55.384 19.78-20.77 39.56-40.55 60.33-60.33 10.88-10.88 20.77-21.759 28.682-32.638 11.868-9.89 22.747-18.791 33.626-29.67 6.923-9.89 17.802-17.802 27.692-27.693 9.89-11.868 21.759-23.736 33.627-34.615-14.835-12.857-27.692-27.692-41.539-39.56-1.978-5.935-4.945-5.935-7.912 0-26.703 26.703-54.396 53.406-82.088 81.099-13.846 14.835-27.692 28.681-42.528 43.516-16.813 16.813-33.626 33.627-52.417 51.429-11.869 11.868-24.726 24.725-37.583 36.593-8.901 8.902-18.791 18.792-25.714 24.726zm2.967 161.21c13.846 14.834 28.681 29.67 44.505 45.494l68.242 68.242c17.803 16.813 35.605 35.604 52.418 51.429 23.737 24.725 47.473 47.472 70.22 72.198 2.967 3.956 7.912 3.956 9.89 0 7.912-7.913 14.836-13.847 22.748-22.748 5.934-5.934 10.879-11.868 16.813-18.791-.99-.989-1.978-3.956-2.967-4.945-13.846-13.846-28.682-29.67-45.495-45.495-16.813-16.813-33.626-32.637-49.45-49.45-17.803-14.836-33.627-32.638-47.473-47.473-16.813-15.824-32.638-33.627-49.45-50.44-14.836-12.857-29.671-28.681-44.507-44.506-1.978-1.978-4.945-1.978-6.923 0l-38.571 38.572c-2.967 2.967-2.967 5.934 0 7.912z" style="fill:#000;fill-opacity:1;fill-rule:nonzero;stroke:none;"/>
</svg>
