<svg xmlns="http://www.w3.org/2000/svg" width="1000" height="1000">
  <path d="M5 500.496C5 225.55 226.54 5 500.496 5c272.968 0 494.507 222.528 494.507 494.507 0 274.946-222.528 495.496-494.507 495.496C225.55 995.003 5 772.475 5 500.496zm97.912-21.758c-4.945 86.044 17.803 167.143 62.308 239.341 56.374 88.023 134.506 147.363 233.408 177.034 6.923 1.978 16.813 1.978 23.736 0 12.857-3.956 22.747-18.791 19.78-31.649 0-13.846-7.912-26.703-23.736-31.648-60.33-15.824-111.759-47.473-154.286-90.99-63.297-67.252-95.935-148.352-98.902-240.33 0-18.791 13.847-31.648 30.66-31.648 15.824-1.978 28.681 10.879 31.648 28.681 1.978 17.802 1.978 33.627 4.945 51.429 22.748 111.758 88.023 186.924 199.781 222.528 17.802 7.912 34.616-1.978 41.539-17.802 6.923-18.791-2.967-35.605-21.759-43.517-17.802-5.934-25.714-21.758-19.78-38.571 2.967-15.825 17.802-23.737 36.594-19.78 36.593 8.9 74.176 6.922 106.813-11.869 45.495-21.758 76.154-60.33 87.034-109.78 2.967-20.77 17.802-32.638 36.593-27.693 16.813 2.967 25.714 20.77 22.747 40.55-10.879 51.429-36.593 93.956-78.132 127.583-23.736 17.802-49.45 30.66-79.12 39.56-16.814 3.956-23.737 16.813-23.737 33.627 1.978 14.835 12.857 27.692 27.692 29.67 4.945 0 12.857 0 17.802-1.978 18.792 0 33.627 12.857 31.649 31.649 0 15.824-9.89 23.736-22.747 28.68-23.737 9.891-30.66 35.605-13.847 54.397 10.88 10.879 23.737 10.879 38.572 6.923 212.638-61.32 337.254-284.836 279.891-501.43-1.978-5.935-4.945-12.858-9.89-18.792-9.89-8.9-26.704-8.9-38.572-1.978-12.857 7.912-15.824 22.748-12.857 38.572 7.912 27.692 11.868 57.363 11.868 87.033 0 76.154-22.747 143.407-66.264 204.726-28.681 39.56-60.33 70.22-101.868 93.956-17.802 10.88-40.55 1.978-45.495-17.802-3.956-12.857 1.978-26.703 15.824-35.604 55.385-34.616 94.946-83.078 118.682-143.407 22.747-57.363 23.736-116.704 8.901-176.045-5.934-17.802-21.758-26.703-38.571-21.758-16.814 3.956-25.715 18.791-24.726 36.593 0 3.956 1.978 9.89 1.978 13.846-1.978 17.803-17.802 30.66-36.593 27.693-14.835-4.945-19.78-17.802-23.737-30.66-27.692-86.044-115.714-129.56-200.77-102.857-18.79 5.934-33.626-.99-41.538-18.791-4.945-13.847 4.945-33.627 20.77-38.572 29.67-10.88 61.318-13.846 93.956-10.88 50.44 5.935 94.945 27.693 128.571 62.309 5.935 5.934 15.825 9.89 22.748 9.89 12.857 1.978 23.736-3.956 29.67-16.813 4.945-12.857 4.945-25.715-5.934-36.594-6.923-8.9-10.879-20.77-6.923-33.626 6.923-21.759 32.638-25.715 49.45-10.88 18.792 15.825 46.484 9.89 53.408-12.857 4.945-12.857 0-25.714-7.913-34.615-94.945-90-204.726-129.561-334.286-116.704-92.968 10.88-170.11 52.418-236.375 116.704-14.835 13.846-14.835 34.615-1.978 47.473 12.857 12.857 31.649 12.857 46.484-1.978 88.022-83.078 189.89-114.726 309.561-91.979 35.605 5.934 68.242 18.791 97.913 36.594 12.857 7.912 17.802 16.813 15.824 29.67 0 12.857-5.934 22.747-19.78 27.693-11.869 2.967-19.78 0-27.693-4.946-108.791-59.34-245.275-41.538-331.32 45.495-15.824 14.835-17.802 33.627-4.945 47.473 12.858 12.857 31.649 12.857 48.462 0 8.901-6.923 18.791-10.88 29.67-4.945 10.88 3.956 17.803 10.879 19.78 23.736 2.968 11.868-2.966 20.77-10.878 27.692-62.308 68.242-58.352 171.1 10.879 232.419 12.857 10.879 15.824 31.648 2.967 44.505-11.868 12.858-30.66 12.858-43.517 1.979-47.472-44.506-73.187-97.913-73.187-162.199 0-22.747 2.967-42.527 7.912-65.275 2.967-21.758-13.846-40.55-35.604-36.593-14.835.989-23.737 8.9-27.693 23.736-6.923 20.77-27.692 28.681-45.494 16.813-9.89-5.934-15.825-18.791-13.847-31.648 3.957-21.758-4.945-38.572-24.725-41.539-17.802-3.956-31.648 6.923-37.582 28.682-5.934 25.714-11.869 54.395-11.869 82.088zm312.529 17.802c0-51.429 42.528-95.934 93.956-94.945 49.451 0 92.968 43.516 92.968 95.934-2.967 52.418-43.517 94.945-94.946 92.967-52.417 0-93.956-41.538-91.978-93.956z" style="fill:#000;fill-opacity:1;fill-rule:nonzero;stroke:none;"/>
</svg>
