<svg xmlns="http://www.w3.org/2000/svg" width="1000" height="1000">
  <path d="M28.67 500V344.99c0-10.334 2.067-21.702 7.234-29.97 22.735-41.335 46.503-82.671 70.271-124.007 2.067-6.2 8.268-11.368 13.435-15.501 95.073-54.77 189.112-109.541 283.152-163.278C409.996 7.067 418.263 5 426.53 5h146.744c8.267 0 17.567 3.1 25.835 7.234 90.94 53.737 181.879 107.474 271.785 161.21 8.267 4.134 14.467 10.335 17.567 17.569 25.836 42.37 49.604 84.739 73.372 127.108 3.1 6.2 6.2 16.535 6.2 23.768 1.034 104.374 2.067 207.714 3.1 312.088 1.034 11.368-2.066 21.702-8.266 32.036-24.802 41.336-48.57 81.638-74.406 122.975-3.1 7.233-10.334 13.434-18.6 18.6-89.907 53.738-180.846 106.441-273.853 159.145-7.233 4.134-18.6 8.267-28.935 8.267-47.536 0-95.073 0-142.61-1.033-8.267 0-16.534-3.1-23.768-6.2-89.906-52.704-180.845-106.441-270.751-160.178-7.234-5.167-15.501-12.401-19.635-20.668-23.768-39.27-46.503-79.572-69.238-119.875-5.167-9.3-8.267-20.668-8.267-31.002-2.067-52.704 0-105.407 0-156.044zm11.368-148.81c0 36.17 0 72.338 1.033 108.507 0 9.301 1.033 16.535 1.033 28.936 44.437-24.802 82.673-48.57 122.975-71.305 11.368-6.2 14.468-12.401 14.468-24.802 2.067-45.47 3.1-89.906 3.1-135.376 0-2.066-1.033-6.2-3.1-10.334-44.436 28.936-86.806 56.837-131.242 82.673-8.267 6.2-8.267 12.4-8.267 21.701zm2.066 187.046c0 40.303 1.034 81.639 1.034 122.975 0 6.2 4.133 12.4 6.2 17.568 17.568 32.035 37.203 65.104 55.804 96.106 2.067 4.134 5.167 6.2 7.234 10.334 1.033-46.503 0-93.006-1.034-137.442 0-5.167-1.033-10.334-4.133-12.401-19.635-35.136-40.303-69.238-62.004-106.44-2.067 6.2-3.1 7.233-3.1 9.3zm0-36.17c26.869 44.437 52.704 86.807 78.539 131.243 46.503-25.835 93.006-50.637 138.476-77.505-26.868-45.47-52.704-89.906-79.572-134.343-45.47 26.869-90.94 53.737-137.443 80.606zm10.334-192.212c0 1.033 1.034 2.067 2.067 2.067 20.668-12.401 40.303-23.769 59.938-37.203 23.768-14.467 51.67-27.902 70.271-47.536 18.601-19.635 29.969-47.537 44.436-72.339 6.2-12.4 12.401-23.768 18.602-35.135-9.301 0-15.501 4.133-20.668 7.234-24.802 14.467-48.57 28.935-72.339 41.336-24.801 12.4-42.37 29.968-54.77 54.77-15.501 29.969-33.069 57.87-47.537 86.806zm71.305 350.324c1.034 47.536 1.034 93.006 2.067 140.542 0 9.301 5.167 14.468 12.4 17.568 26.87 15.501 52.704 32.036 79.573 46.503 13.434 9.301 25.835 16.535 39.27 23.769V744.917c0-4.134-4.134-8.268-8.268-11.368-40.303-25.835-81.639-52.703-122.975-78.538-1.033 4.133-2.067 5.167-2.067 5.167zm6.2-17.568c44.437 29.968 87.84 56.837 132.276 84.739 44.437-25.835 88.873-52.704 135.376-79.572-5.167-4.134-9.3-6.2-11.367-9.3-36.17-20.669-71.305-42.37-107.474-65.105-10.334-6.2-17.568-6.2-27.902 0-36.17 20.668-72.338 40.302-107.474 59.937-5.167 3.1-8.267 5.167-13.434 9.3zm60.971-238.716c0 3.1 4.134 9.3 9.301 12.4 39.27 23.769 80.605 46.504 122.975 70.272 2.067-4.134 2.067-7.234 2.067-8.267-2.067-48.57-3.1-96.107-3.1-144.677 0-9.3-5.167-12.4-11.368-16.534-36.169-20.668-71.305-43.403-105.407-65.105-3.1-1.033-7.234-1.033-10.334-2.066-1.033 52.703-4.134 102.306-4.134 153.977zm5.167-169.479c43.403 26.869 87.84 52.704 131.243 80.606 27.902-46.503 53.737-91.973 81.638-137.443-46.503-23.768-91.972-47.536-139.509-73.371-23.768 44.436-48.57 85.772-73.372 130.208zm7.234 202.548c20.668 36.169 40.303 71.304 62.004 106.44 6.2 9.3 14.468 16.534 23.769 22.735 20.668 13.434 42.37 25.835 65.104 40.303 12.4 7.233 25.835 14.467 39.27 23.768-19.635-42.37-41.337-82.672-63.038-122.975-3.1-4.134-5.167-7.234-9.3-8.267-38.237-21.702-76.473-43.403-113.675-64.071-1.034 1.033-2.067 1.033-4.134 2.067zm69.238 455.73H423.43c3.1-51.67 4.134-101.273 5.167-151.91H272.553zm7.234-795.72c46.503 23.768 88.873 46.503 132.276 69.238 4.133 1.033 10.334 1.033 14.467 0 42.37-21.702 84.74-44.436 132.276-68.205-48.57-25.835-93.006-50.636-137.443-75.438-4.133-3.1-13.434 0-18.601 2.067-34.102 19.634-68.205 39.269-101.273 58.904-6.2 4.133-12.401 7.233-21.702 13.434zm10.334 628.309c1.034 1.033 1.034 2.067 1.034 2.067H420.33c2.067 0 6.2 1.033 7.234 0 7.234-1.034 13.434-4.134 19.634-7.234 33.07-17.568 65.105-38.236 98.174-56.837 3.1-2.067 7.233-4.134 9.3-7.234-25.835-2.067-51.67-1.033-78.538-4.134-44.437-4.133-84.74 7.234-120.909 34.103-20.668 13.434-44.436 26.868-65.104 39.269zm3.1 184.98c5.167 2.066 10.334 6.2 15.501 9.3 29.97 17.568 59.938 35.135 88.873 52.703 11.367 7.234 22.735 11.368 36.17 11.368 34.101-1.034 67.17 0 100.24 0 6.2 0 12.4-1.034 18.6-1.034-40.302-27.902-80.605-51.67-119.874-75.438-3.1-2.067-8.267-2.067-11.368-2.067H295.288c-2.067 1.034-2.067 2.067-2.067 5.167zm40.303-577.673c1.033 45.47 1.033 91.973 3.1 139.51 3.1-2.068 6.2-3.101 6.2-5.168l65.105-108.507c2.067-5.167 4.134-10.334 4.134-14.468V203.413c-2.067 0-3.1 0-4.134-1.033-23.768 40.303-47.536 78.539-71.305 118.841-2.067 3.1-3.1 7.234-3.1 11.368zm11.367 178.779c22.735 38.235 43.403 78.538 65.105 116.774 5.167 9.3 10.334 14.468 21.701 13.434h66.138v1.034h69.238c9.3 0 15.501-1.034 19.635-10.334 23.768-41.336 45.47-81.64 69.238-121.942 4.133-8.267 4.133-14.468 0-21.701-23.768-39.27-45.47-78.539-68.205-118.842-4.133-8.267-10.334-11.367-20.668-11.367-43.403 0-87.84-1.034-132.275-2.067-10.335 0-14.468 5.167-19.635 12.4-22.735 40.304-46.503 78.54-70.272 117.809-5.167 8.267-5.167 15.5 0 24.802zm78.54-172.579c3.1 0 5.166 0 5.166-1.033 40.303-21.702 80.606-43.403 119.875-67.171 4.133-2.067 8.267-9.301 8.267-14.468 2.067-22.735 3.1-43.403 3.1-66.138v-78.538c-43.403 21.701-85.772 43.402-128.142 66.137-4.133 1.034-8.267 9.301-8.267 14.468-1.033 22.735 0 44.436 0 66.138zm14.467 548.737h3.1c44.436-22.735 87.84-46.503 130.209-70.271 4.133-2.067 7.234-7.234 7.234-12.401 0-47.537-1.034-95.073-2.067-142.61-3.1 0-5.167 0-6.2 1.034-41.337 22.735-81.64 46.503-121.942 70.271-4.134 4.134-8.267 11.368-8.267 17.568-1.034 28.935-2.067 57.87-2.067 86.806zm3.1-868.058c1.033 1.033 4.134 3.1 5.167 3.1 40.303 21.701 79.572 45.47 120.908 67.171 5.167 4.134 13.434 5.167 19.635 5.167 33.069-1.033 68.204-1.033 102.307-3.1 5.167 0 9.3-1.034 18.601-2.067-42.37-24.802-81.639-47.536-119.875-70.271-4.133-2.067-9.3-3.1-14.467-3.1H444.098c-2.067 1.033-2.067 2.066-3.1 3.1zm4.134 881.492c47.536 27.902 90.939 54.77 136.409 81.64 46.503-26.87 90.94-52.704 138.476-81.64-42.37-24.801-82.672-47.536-120.908-70.27-10.334-6.201-16.535-6.201-26.869-1.034-38.236 21.701-76.472 42.37-114.708 63.037-4.133 2.067-7.233 5.167-12.4 8.267zm3.1-560.104c0 3.1 2.067 4.134 2.067 6.2h120.908c9.3 0 17.568-2.066 24.801-6.2 34.103-17.568 66.138-36.17 100.24-53.737 5.168-3.1 9.301-6.2 15.502-10.334-39.27 0-74.405 0-110.575-1.033-24.801 0-47.536 5.167-70.271 18.6-25.835 16.535-54.77 32.036-82.672 46.504zm118.841-77.505h164.311c-2.067-54.77-5.167-107.474-7.234-157.077H575.34c-3.1 53.736-5.167 104.373-8.267 157.077zm21.702 524.969c1.033 0 4.133 0 5.167 2.066 22.734-40.302 43.403-80.605 66.137-118.841 2.067-5.167 2.067-11.367 2.067-17.568 0-38.236 0-75.438 2.067-113.674 0-4.134-2.067-8.267-3.1-11.368-24.802 39.27-47.537 79.572-70.272 119.875-2.066 2.067-2.066 6.2-2.066 8.267zm5.167 26.868c46.503 25.835 89.906 52.704 136.409 78.539 23.768-45.47 47.536-87.84 72.338-131.243-46.503-28.935-88.873-56.837-134.342-83.705-25.835 46.503-49.604 89.906-74.405 136.409zm3.1-460.898c44.436 26.869 86.806 52.704 129.175 77.505 4.134 2.067 9.3 2.067 12.401 0 42.37-21.701 86.806-45.47 132.276-70.27-34.103-21.702-67.172-41.337-97.14-62.005-36.17-22.735-36.17-22.735-73.372-2.067-34.102 18.601-68.204 37.203-103.34 56.837zm7.234 19.635c20.668 39.27 42.37 74.405 62.004 110.574 2.067 3.1 4.133 6.2 7.234 9.3 40.302 24.802 81.638 48.57 121.941 73.372l2.067-2.067c-19.635-36.169-40.303-71.304-60.97-107.473-3.101-5.167-9.301-10.334-15.502-14.468-33.069-20.668-67.171-41.336-101.273-62.004-5.167-1.034-8.268-4.134-15.501-7.234zm69.238 285.22c0 8.266 5.167 12.4 11.367 16.534 24.802 15.5 50.637 29.968 75.439 46.503 13.434 7.234 26.868 16.534 43.402 26.868 3.1-52.703 5.167-100.24 6.2-148.81 0-5.167-6.2-12.4-11.367-16.534-29.968-18.602-59.937-36.17-89.906-54.77l-31.002-18.602c-1.033 2.067-3.1 3.1-3.1 4.134 0 47.536 0 97.14-1.033 144.676zM736.55 108.34c1.034 43.403 3.1 86.806 3.1 128.142 0 21.702 5.167 38.236 27.902 47.537 5.167 1.033 10.334 6.2 15.501 8.267l89.906 55.804V198.246c0-8.267-4.133-14.467-12.4-18.6-37.203-20.669-73.372-42.37-109.541-64.072-5.167-2.067-8.267-4.133-14.468-7.234zm6.2 334.823c25.836 46.503 49.604 90.94 74.406 134.342 47.536-27.902 91.973-53.737 136.409-81.639-24.802-42.37-48.57-83.705-73.372-126.075-47.536 24.802-90.94 48.57-137.442 73.372zm8.268 435.063c2.067 2.066 3.1 2.066 4.133 3.1 34.103-19.635 67.172-40.303 102.307-58.904 12.401-7.234 20.668-16.535 27.902-28.935 17.568-28.936 35.136-56.838 52.704-85.773l8.267-20.668c-45.47 26.869-85.772 50.637-126.075 74.405-4.134 1.033-6.2 5.167-9.3 8.267-19.635 36.17-39.27 72.339-59.938 108.508zm65.104-131.243c3.1 0 5.167 0 6.2-1.033 42.37-24.802 85.773-49.603 129.176-73.372 8.267-5.167 8.267-11.367 8.267-20.668V510.334c-4.133 1.034-6.2 1.034-8.267 2.067-40.303 23.768-80.605 47.536-119.875 71.305-9.3 5.167-9.3 11.367-10.334 19.634-1.033 38.236-4.133 76.472-5.167 115.742-1.033 8.267 0 18.6 0 27.901zm69.238-527.035c0 40.303 1.034 78.538 1.034 118.841 1.033 15.501 6.2 29.969 14.467 43.403 13.435 19.635 23.769 41.336 37.203 63.038 6.2 9.3 10.334 19.634 17.568 27.902h3.1v-25.835c0-29.97-2.067-59.938-1.034-89.907 0-17.567-4.133-33.068-12.4-46.503-16.535-25.835-31.002-53.737-47.537-81.639-3.1-4.133-6.2-10.334-10.334-16.534-1.033 3.1-2.067 6.2-2.067 7.234z" style="fill:#000;fill-opacity:1;fill-rule:nonzero;stroke:none"/>
</svg>
