<?xml version="1.0" encoding="utf-8"?>
<!-- Generator: Adobe Illustrator 26.0.1, SVG Export Plug-In . SVG Version: 6.00 Build 0)  -->
<svg version="1.1" id="Layer_1" xmlns="http://www.w3.org/2000/svg" xmlns:xlink="http://www.w3.org/1999/xlink" x="0px" y="0px"
	 viewBox="0 0 1000 1000" style="enable-background:new 0 0 1000 1000;" xml:space="preserve">
<g>
	<path d="M590.19,754.83h-17.75l-1.85,2.78c-1.54,2.62-1.85,2.78-3.39,2.47c-0.93-0.15-10.96-0.31-22.38-0.31h-20.68l-4.48-6.94
		l-4.63-6.94l-3.4-0.31l-3.4-0.31l-0.15-16.2l-0.15-16.2l3.7-1.39c12.81-4.48,26.85-14.35,34.57-24.23
		c3.86-5.4,6.94-11.42,8.95-17.75c1.39-4.63,2.31-16.2,2.31-29.63c0-9.41-1.08-13.27-4.78-18.21c-3.24-4.32-5.86-6.33-11.57-9.1
		c-3.15-1.52-6.6-2.32-10.1-2.33l-33.15-0.12l-33.15,0.12c-3.5,0.01-6.95,0.81-10.1,2.33c-5.71,2.78-8.33,4.78-11.57,9.1
		c-3.7,4.94-4.78,8.8-4.78,18.21c0,13.43,0.93,25,2.31,29.63c2.01,6.33,5.09,12.35,8.95,17.75c7.72,9.88,21.76,19.75,34.57,24.23
		l3.7,1.39l-0.15,16.2l-0.15,16.2l-3.4,0.31l-3.4,0.31l-4.63,6.94l-4.48,6.94h-20.68c-11.42,0-21.45,0.15-22.38,0.31
		c-1.54,0.31-1.85,0.15-3.39-2.47l-1.85-2.78h-17.75c-13.27-0.62-17.28-0.31-17.28,0.15s1.85,7.87,4.17,16.67
		c2.31,8.8,4.17,15.9,4.17,16.2c1.7,0.15,3.24,0.31,4.94,0.15h4.94l6.79,16.05c3.7,8.8,7.1,16.98,7.56,18.21l0.93,2.16l3.24-5.25
		l3.24-5.25v-42.75l1.23,0.31c2.62,0.62,21.3,3.09,29.48,3.86c12.96,1.3,25.95,1.99,38.93,2.07c12.98-0.08,25.97-0.77,38.93-2.07
		c8.18-0.77,26.85-3.24,29.48-3.86l1.23-0.31v42.75l3.24,5.25l3.24,5.25l0.93-2.16c0.46-1.23,3.86-9.41,7.56-18.21l6.79-16.05h4.94
		c1.7,0.15,3.24,0,4.94-0.15c0-0.31,1.85-7.41,4.17-16.2c2.31-8.8,4.17-16.2,4.17-16.67S603.46,754.21,590.19,754.83z"/>
	<path d="M532.32,786.47l-34.45-0.13l-34.45,0.13l-0.15,4.17c-0.15,4.94-0.31,4.78,6.48,8.64c2.93,1.7,4.94,2.47,5.4,2.16
		c0.46-0.15,2.62-2.01,4.94-3.7l4.17-3.4l4.32,4.63c5.29,5.72,7.71,8.38,9.3,9.63c1.59-1.25,4.01-3.91,9.3-9.63l4.32-4.63l4.17,3.4
		c2.31,1.7,4.48,3.55,4.94,3.7c0.46,0.31,2.47-0.46,5.4-2.16c6.79-3.86,6.64-3.7,6.48-8.64L532.32,786.47z"/>
	<path d="M927.52,607.62c-0.15-3.09-0.46-7.72-0.77-12.35c-0.31-6.94-0.93-16.67-1.39-21.45c-6.64-70.06-24.54-127.31-58.49-187.96
		c-1.39-2.31-2.62-4.63-3.39-6.48c-0.31-0.46-0.46-0.93-0.62-1.23c4.78-14.35,24.38-74.38,39.97-143.06
		c21.14-93.21,34.57-202.16-6.48-234.88c0,0-70.99-5.25-166.05,87.96c-25.77,25.77-49.38,53.7-70.37,83.49l-6.64-2.16
		c-38.27-12.5-77.93-20.22-117.9-22.84c-12.04-0.93-56.94-0.93-71.6,0c-44.29,2.93-78.24,9.57-116.82,22.99
		c-1.54,0.62-2.93,1.08-4.32,1.54c-21.76-29.63-45.99-57.41-72.68-82.87C171.04-5.34,97.43,0.06,97.43,0.06
		c-43.52,33.8-28.7,147.68-6.17,243.98c14.81,63.73,33.02,119.75,39.81,139.97c-0.46,1.08-1.08,2.31-1.7,3.4
		C93.56,459.96,74.13,529.91,69.4,604.27c-2.82,16-4.32,32.34-4.32,48.96C65.08,844.75,258.91,1000,498,1000
		s432.92-155.25,432.92-346.77C930.92,637.41,930.08,622.88,927.52,607.62z M876.43,98.96c0,0.01,0,0.01,0,0.02
		c14.35,82.41-41.36,226.85-41.36,226.85c-23.3-41.51-54.63-78.24-91.97-107.87C807.34,97.63,864.08,97.43,876.43,98.96z
		 M635.85,370.43c6.17-38.58,44.75-43.21,55.56-41.67c10.8,1.54,54.01,16.98,46.3,49.38c-7.72,32.41-18.52,26.23-24.69,27.78
		c-6.17,1.54-33.95,0-33.95,0S629.68,409.01,635.85,370.43z M601.44,533.39c3.24-11.57,13.73-24.23,30.09-36.11
		c8.33-6.02,42.13-26.54,57.87-35.19c25.93-14.2,46.91-22.69,61.11-24.69c4.48-0.62,9.88-0.77,11.57,0
		c2.78,1.08,5.86,9.26,7.1,19.14c0.62,5.25,0.31,28.39-0.46,32.56c-0.46,2.47-7.72,9.88-14.97,15.28
		c-21.3,15.59-59.41,30.09-98.15,37.04c-22.07,4.01-44.14,4.63-50.77,1.39C600.51,540.64,599.9,538.94,601.44,533.39z
		 M302.67,187.55C302.67,187.55,302.67,187.56,302.67,187.55C302.67,187.56,302.67,187.56,302.67,187.55
		C302.67,187.56,302.67,187.55,302.67,187.55z M271.66,370.43c6.17-38.58,44.75-43.21,55.56-41.67c10.8,1.54,54.01,16.98,46.3,49.38
		s-18.52,26.23-24.69,27.78c-6.17,1.54-33.95,0-33.95,0S265.48,409.01,271.66,370.43z M350.05,483.24
		c28.39,16.98,39.04,25.31,47.22,36.73c5.56,7.1,9.26,17.13,7.87,20.22c-0.93,1.85-5.56,3.86-10.8,4.63
		c-5.25,0.77-21.3,0.31-30.4-0.77c-32.72-4.32-67.44-14.35-92.75-26.7c-14.2-6.94-24.38-13.89-31.94-21.45l-4.32-4.48l-0.46-5.86
		c-0.77-10.19-0.62-26.23,0.62-31.94c0.77-4.78,2.47-9.41,4.78-13.58c1.23-1.54,1.23-1.54,6.79-1.54c6.79,0,12.5,1.08,21.76,4.01
		C287.4,448.36,315.64,462.56,350.05,483.24z M117.34,99.13c0.01-0.06,0.02-0.12,0.04-0.18c13.03-1.52,71.58-1.41,138.08,119
		c0.15,0,0.31-0.15,0.31-0.15c0.08-0.01,0.16-0.02,0.25-0.03c-0.08,0.06-0.16,0.12-0.25,0.19c0,0-0.15,0.15-0.31,0.15
		c-29.17,22.38-66.51,57.87-95.22,107.72C160.24,325.83,102.52,181.54,117.34,99.13z M922.9,640.1c-2.6,17.6-8.11,35.21-16.84,54.96
		c-1.22,2.76-10.41,19.14-12.71,22.66c-0.77,1.07-1.53,2.3-1.99,3.52c0,0.31-0.31,0.61-0.61,0.61c-0.31,0-0.61,0.46-0.61,0.77
		c0,0.31-0.31,0.77-0.61,0.77c-0.31,0-0.46,0.31-0.31,0.61c0.15,0.31,0,0.77-0.46,0.92c-0.61,0.15-0.77,0.46-0.61,0.77
		c0.15,0.31-0.15,0.61-0.61,0.77c-0.46,0.15-0.77,0.61-0.61,0.77c0.31,0.31-0.15,0.77-0.61,1.07c-0.61,0.31-0.92,0.61-0.61,0.61
		c1.07,0-13.01,18.98-22.5,30c-13.17,15-27.25,29.09-42.25,42.4c-95.52,82.97-238.96,139.76-336.17,133.18
		c-93.23-6.43-216.31-62.15-307.08-139.31c-55.42-47.15-90.78-95.22-102.26-138.85c-3.67-13.93-4.29-24.49-3.06-46.69
		c0-0.6,0.21-3.06,0.36-4.96c42.81-5.68,150.07-9.63,231.02,77.48c0,0,54.94-145.06,203.09-145.06s179.78,145.06,179.78,145.06
		c94.82-78.27,196.69-78.48,236.89-74.92c0.21,2.77,0.4,5.07,0.47,5.31C924.59,616.22,923.82,631.68,922.9,640.1z"/>
</g>
</svg>
