<svg xmlns="http://www.w3.org/2000/svg" viewBox="0 0 1000 1000"><path d="M478.707,11.473s-3.567-8.259-11.826-5.068L2.66,476.046l373-97.982Z"/><path d="M308.082,629.778l65.04-229.753L2.66,500S221.08,647.516,259.935,663.565,308.082,629.778,308.082,629.778Z"/><path d="M224.458,671.167,11.6,533.387,465.192,989.611,362.141,828.278C300.479,717.625,224.458,671.167,224.458,671.167Z"/><path d="M368.9,692.284c-48.146,13.515-29.563,58.283-29.563,58.283L502.66,1000l97.681-371.911Z"/><path d="M980.446,523.348,617.234,622.176,518.407,1000,989.738,533.387C994.806,522.309,980.446,523.348,980.446,523.348Z"/><path d="M685.653,356.947l-64.2,240.733L990.821,492.94,743.091,346.811S700.857,321.47,685.653,356.947Z"/><path d="M640.04,329.072,395.083,391.579,324.13,644.138c-.844,36.321,39.7,27.874,39.7,27.874l244.957-70.953,66.73-255.093C669.6,319.147,640.04,329.072,640.04,329.072Z"/><path d="M655.245,308.8s27.874-15.2,0-51.525L506.581,6.322,401.841,375.53Z"/><path d="M759.985,338.042,997.34,472.668,525.164,0l106.43,190.926S675.517,292.108,759.985,338.042Z"/></svg>