<svg xmlns="http://www.w3.org/2000/svg" width="1000" height="1000">
  <path d="M245.825 811.429H56.48c-16.83 0-24.194-7.364-24.194-25.246v-43.129c2.104-24.194 2.104-27.35 29.454-27.35h175.67c27.35-2.103 42.076-17.882 42.076-43.128 0-23.142-14.726-41.025-42.076-44.18-28.402-1.052-59.96 0-88.361 0-38.921 0-75.738-13.675-102.036-42.077-36.817-38.921-50.492-82.05-36.817-135.697 17.882-50.492 53.648-85.206 104.14-96.777 19.986-5.26 37.869-7.363 57.855-7.363h150.424c34.713 0 34.713 2.104 34.713 36.817v30.505c0 30.506 0 30.506-31.557 30.506-50.492 4.208-102.036 0-155.684 0h-24.194c-27.35 4.208-41.025 18.935-41.025 44.18 0 25.247 13.675 41.025 41.025 43.13 29.454 2.103 61.011 3.155 89.413 0 63.115 0 106.244 32.609 130.438 85.204C406.768 724.12 325.77 811.43 245.825 811.43zm151.476-27.35V653.641c0-41.024 1.052-85.205 1.052-126.23 0-25.246 1.052-28.401 28.402-28.401h44.18c24.194 0 26.298 3.155 26.298 26.298v260.875c0 17.882-5.26 25.246-24.194 25.246h-48.388c-25.246 0-27.35-2.104-27.35-27.35zm0-386.053c0-51.544 0-51.544 51.544-51.544 48.388 0 48.388 0 48.388 51.544 0 52.596 4.208 50.492-51.544 50.492-49.44 0-48.388 2.104-48.388-50.492zm104.14-49.44c39.973 0 70.478-2.104 100.984 0 10.519 0 21.038 12.623 27.35 22.09 4.207 7.363 64.167 105.192 70.478 117.815 2.104 2.103 4.208 0 6.312-3.156 16.83-25.246 34.713-30.506 59.959-27.35 19.986 2.104 41.024 2.104 69.426 2.104-8.415 14.727-9.467 24.194-14.727 30.505-14.726 23.143-27.35 46.285-41.024 69.427-14.727 15.779-10.52 27.35 0 46.284 35.765 54.7 69.426 109.4 104.14 165.151 5.259 9.467 11.57 21.038 18.934 37.87-18.935 2.103-34.713 2.103-49.44 2.103-78.894 0-54.7 11.571-95.725-53.648l-35.765-57.855c-5.26-11.571-10.519-19.987-19.986-31.558-21.038 36.817-41.025 66.271-58.907 98.88-33.662 52.596-18.935 44.18-76.79 44.18h-63.115c7.363-12.622 10.519-22.09 17.882-32.609 37.87-54.7 70.479-115.71 106.244-172.514 12.623-19.986 9.467-35.765 0-51.544-36.817-62.063-75.738-122.022-111.503-178.825-5.26-8.416-7.364-14.727-14.727-27.35zm284.017 41.024c1.052-22.09 15.779-43.128 38.921-43.128 24.194 0 38.921-12.623 49.44-31.558 5.26-9.467 10.52-15.778 16.83-24.194 10.52-14.727 17.883-29.453 12.624-49.44-5.26-25.246 11.571-49.44 35.765-52.596 29.454-5.26 53.648 12.623 55.752 41.025 2.103 23.142-16.831 49.44-44.18 49.44-13.676 0-22.091 6.312-31.558 15.779-10.52 17.883-26.298 33.661-34.714 53.648-5.26 8.415-7.363 18.934-7.363 29.453-12.623 54.7 31.557 85.206 54.7 120.97 5.26 6.312 18.934 6.312 29.453 11.572 22.09 7.363 35.765 29.453 33.662 49.44-4.208 23.142-25.246 41.025-47.337 41.025-30.505-3.156-51.544-30.506-42.076-61.012 4.207-16.83 3.155-26.297-7.364-35.765-8.415-13.675-15.778-22.09-24.194-34.713-11.57-18.934-25.246-36.817-55.751-36.817-18.935 0-32.61-23.142-32.61-43.129zm25.246 0c2.104 10.52 4.208 21.039 19.987 21.039 17.882 0 21.038-10.52 21.038-21.039 2.104-11.57-6.312-18.934-18.935-18.934-11.57 0-25.246 7.363-22.09 18.934zM928.52 234.98c-1.052 12.623 8.415 17.882 21.038 17.882 8.416 0 24.194-14.727 19.987-25.246-5.26-13.675-10.52-16.83-22.09-13.675-8.416 2.104-17.883 7.364-18.935 21.039zm1.052 321.886c0 11.571 9.467 18.935 21.038 16.83 12.623 0 23.142-6.31 18.935-18.934-1.052-10.519-8.416-18.934-15.78-19.986-18.934 2.104-25.245 7.363-24.193 22.09z" style="fill:#000;fill-opacity:1;fill-rule:nonzero;stroke:none;"/>
</svg>
