<svg xmlns="http://www.w3.org/2000/svg" width="1000" height="1000">
  <path d="M500.496 5C223.572 5 5 229.506 5 500.002c0 276.43 224.506 495.001 495.002 495.001 276.43 0 495.001-224.506 495.001-495.001C995.003 226.539 773.464 5 500.496 5zM122.693 520.276c-10.88-24.725 7.912-39.56 23.736-49.45 20.77-12.857 43.517-27.693 72.198-15.825 27.692 11.869 58.352 20.77 88.022 33.627 4.945 2.967 14.836 5.934 20.77 7.912-15.825 6.923-135.495 54.396-135.495 54.396-26.704 9.89-50.44 9.89-69.231-30.66zm72.198 58.352c23.736-9.89 48.461-17.802 72.198-27.692 9.89-2.967 9.89 2.967 12.857 12.857 4.945 38.572 20.77 71.21 49.45 97.912 46.484 45.495 102.858 57.363 162.199 51.43 123.627-17.803 226.484-116.704 240.33-237.364 9.89-69.231-8.9-131.54-65.274-177.034-48.462-35.604-102.858-41.538-159.232-33.626-101.868 22.747-171.1 82.088-213.627 175.055-2.967 9.89-8.9 11.868-16.813 9.89-17.802-9.89-39.56-15.824-61.319-24.725 1.978-3.956 4.945-5.934 12.857-12.857 95.935-80.11 191.869-161.21 287.803-242.309 44.506-36.593 87.034-29.67 122.638 14.836 63.297 78.132 126.594 156.264 189.89 237.363 10.88 11.868 23.737 27.692 29.671 41.539 11.869 32.637 0 63.297-26.703 87.033-33.627 27.692-69.231 54.396-102.858 84.066-75.165 63.297-152.308 129.561-230.44 194.836-32.637 27.692-75.165 27.692-104.835-5.934-39.56-44.506-75.165-90-113.737-138.462-24.725-31.649-51.429-65.275-79.121-97.913-2.967-2.967-2.967-2.967-5.934-8.9zm134.506 35.605c2.967-9.89 32.637-5.934 43.516-39.56 20.77-54.397 41.539-110.77 62.308-168.133 2.967-4.945 2.967-14.835-5.934-17.802-11.868-5.935-14.835-17.803-8.901-32.638 8.901-14.835 24.725-23.736 42.528-23.736h44.505c8.901 1.978 17.803-2.967 23.737-12.857 11.868-20.77 50.44-27.693 53.406 3.956 0 5.934 6.923 8.9 9.89 8.9 48.462 4.946 69.232 50.44 51.43 92.968-6.924 14.835-12.858 26.703-20.77 38.572-6.923 6.923-6.923 11.868 0 17.802 13.846 20.77 17.802 42.527 10.88 66.264-17.803 57.363-77.144 98.901-137.474 98.901-14.835 0-30.66 0-38.571 17.803-6.924 17.802-48.462 20.769-48.462-5.935 0-7.912-5.934-11.868-12.857-11.868h-50.44c-20.77-2.967-23.736-14.835-18.791-32.637zm102.857-39.56c-2.967 9.89 0 12.856 9.89 12.856h86.045c20.769 0 42.527-15.824 45.494-33.626 5.934-17.802-2.967-33.627-20.77-33.627-30.659-1.978-58.35-1.978-87.032 0-5.934 0-12.858 3.956-15.825 9.89-4.945 14.836-11.868 30.66-17.802 44.506zm41.539-113.737c27.692 0 51.429 0 75.165-2.967 17.802 0 30.66-11.869 35.604-27.693 12.858-23.736 0-38.571-23.736-38.571h-50.44c-5.934 0-11.868 3.956-15.824 6.923-4.945 17.802-10.88 38.571-20.77 62.308z" style="fill:#000;fill-opacity:1;fill-rule:nonzero;stroke:none;"/>
</svg>
