<svg xmlns="http://www.w3.org/2000/svg" viewBox="0 0 1000 1000"><path d="M5 500.496c0 271.98 220.55 494.507 495.496 494.507 271.98 0 494.507-220.55 494.507-495.496C995.003 227.528 773.464 5 500.496 5 226.54 5 5 225.55 5 500.496zM137.528 637.97V462.914s0-21.759 6.923-32.638c20.77 27.693 49.45 44.506 65.275 67.253 6.923 4.945 6.923 16.813 6.923 22.747-11.868 38.572-6.923 73.187 16.813 105.825 4.945 4.945 4.945 16.813 0 28.681-8.9 22.748-16.813 44.506-28.681 67.253-10.88 21.759-15.824 21.759-27.693 4.945-21.758-27.692-39.56-55.384-39.56-89.01zm17.802-229.451c-22.747-28.682-22.747-89.011 4.945-112.748 4.945-2.967 8.901-4.945 16.813-4.945h67.253c61.32 1.978 94.946-7.912 117.693 44.506 4.945 16.813-22.747 100.88-32.637 112.747h-16.814c-22.747 4.945-46.483 9.89-63.296 21.759-10.88 10.879-20.77 10.879-32.638 0-16.813-21.759-39.56-44.506-61.319-61.32zm28.682-145.385s2.967-6.923 9.89-9.89c9.89-8.902 24.725-16.814 39.56-24.726 32.638-16.813 61.32-33.626 95.935-49.45 9.89-6.924 15.824-6.924 27.692 4.945 21.758 27.692 16.813 27.692 0 55.384-17.802 33.627-36.593 28.682-67.253 28.682-33.626 0-71.209 0-105.824-4.945zm44.505 470.77c9.89-17.802 20.77-39.56 27.693-56.373 4.945-17.803 9.89-17.803 28.681-17.803 20.77 6.924 37.583 6.924 60.33 6.924 4.945 0 14.835-1.978 21.758 0 39.56 15.824 79.121 32.637 118.682 49.45 8.901 4.945 11.868 10.88 9.89 22.748 0 21.758 6.923 39.56 18.791 56.373 5.934 6.924 4.945 11.869 4.945 16.814-4.945 27.692-11.868 50.44-23.736 77.143-2.967 6.923-4.945 11.868-19.78 9.89-15.824-1.978-29.67-9.89-40.55-14.835-61.319-39.56-129.56-77.143-196.814-112.748-16.813-10.88-21.758-15.824-9.89-37.582zM366.98 436.21c6.923-22.747 11.868-44.505 22.748-62.308 4.945-6.923 11.868-16.813 16.813-16.813 6.923 0 16.813 6.923 23.736 11.868 0 4.945 4.945 10.88 4.945 15.824 27.693 95.935 55.385 191.87 84.066 286.815 2.967 10.879.99 19.78 4.946 34.615-44.506-23.736-83.078-34.615-122.638-56.374-16.814-6.923-6.923-11.868 0-18.791 33.626-37.583 39.56-89.011 11.868-128.572-11.868-16.813-23.736-27.692-39.56-37.582-11.869-11.869-11.869-16.814-6.924-28.682zm34.616-236.374c-39.56-32.638-34.616-44.506 4.945-66.264 29.67-17.802 44.505-25.715 68.242-34.616H536.1c-28.682 34.616-50.44 73.187-78.132 107.803-6.924 9.89-44.506 4.945-56.374-6.923zm56.374 174.066c-11.869-33.626 16.813-61.319 49.45-54.395 28.682 4.945 56.374 9.89 79.121 15.824 8.902 3.956 16.814 4.945 21.759 9.89 9.89 21.758 16.813 34.615 27.692 51.429 6.923 8.9 4.945 11.868 0 23.736-20.77 82.088-49.45 173.077-72.198 262.089-4.945 16.813-6.923 18.791-11.868 11.868-4.945-11.868-4.945-16.813-9.89-27.692-27.693-95.935-56.374-191.87-84.066-292.749zm27.692-98.901c-19.78-28.682-5.934-58.352 16.813-86.044 16.813-16.814 33.627-44.506 49.45-66.264 6.924-11.868 18.792-11.868 28.682-6.923 22.748 11.868 34.616 22.747 39.56 51.428 4.946 27.693 15.825 61.32 27.693 89.012 4.945 16.813-1.978 18.79-11.868 28.681-10.879 10.88-20.77 22.747-32.637 27.692-32.638-4.945-67.253-11.868-95.935-16.813-11.868-4.945-12.857-9.89-21.758-20.77zm38.572 609.233c6.923-21.759 11.868-39.56 17.802-56.374 9.89-20.77 19.78-19.78 33.626-20.77 32.638-4.944 55.385 0 84.066 15.825 0 0 11.869 4.945 0 11.868-39.56 21.758-79.12 44.506-117.692 61.319-10.88 4.945-17.802 4.945-17.802-11.868zm62.307-189.891c0-11.868 4.945-16.813 4.945-22.747 23.737-78.133 44.506-162.199 68.242-241.32 2.968-9.89 11.869-16.813 16.814-21.758 4.945 4.945 10.879 11.868 15.824 16.813 23.736 15.824 44.506 52.418 16.813 77.143-4.945 6.923 0 28.682 0 39.56v23.737zm16.814 32.637c0-4.945 4.945-7.912 11.868-15.824 37.582-44.505 72.198-85.055 111.758-129.56 9.89-10.88 26.704-10.88 38.572 0 27.692 33.626 56.374 68.241 84.066 100.879 11.868 11.868 9.89 21.758 0 28.681-11.868 10.88-27.692 27.693-39.56 39.56-33.627 24.726-66.264 47.473-93.957 56.375-16.813 4.945-28.681 4.945-39.56 0-11.868-11.869-23.737-18.792-33.627-23.737-22.747-12.857-34.615-32.637-39.56-56.374zm44.505-564.727h4.945c6.923 0 11.869 2.967 23.737 9.89 44.505 22.748 84.066 51.43 128.572 72.198 7.912 4.946 16.813 11.869 22.747 18.792 9.89 9.89 9.89 16.813-5.934 21.758-8.901.989-13.846.989-28.682 5.934-61.318 16.813-61.318 16.813-105.824-10.879-5.934-6.923-10.88-6.923-10.88-11.868-11.867-33.627-16.813-68.242-28.68-105.825zm68.242 246.265c-6.923-6.923-1.978-11.868 0-16.813 4.945-17.803 10.88-27.693 20.77-46.484 4.945-9.89 9.89-12.857 16.813-15.824 27.692-9.89 56.374-16.814 84.066-28.682 18.791 0 23.736 6.923 28.681 18.792 5.935 15.824 7.913 30.659 10.88 49.45 1.978 10.88-4.945 22.748-15.825 32.638-16.813 23.736-39.56 46.483-56.373 68.242-16.814 22.747-33.627 22.747-51.43 0-16.812-16.814-26.703-39.56-37.582-61.32zM788.3 565.77c11.869-23.736 4.945-50.44 28.682-73.187 20.769-24.725 32.637-39.56 49.45-56.374 0 0 7.913-9.89 5.935 0v223.517h-5.935l-16.813-16.813c-49.45-49.45-66.264-69.23-61.319-77.143z"/></svg>