<svg xmlns="http://www.w3.org/2000/svg" width="1000" height="1000">
  <path d="M500.496 5C223.572 5 5 229.506 5 500.002c0 276.43 224.506 495.001 495.002 495.001 276.43 0 495.001-224.506 495.001-495.001C995.003 226.539 773.464 5 500.496 5zm-370.88 582.53V345.22c0-31.648 34.615-55.384 58.352-55.384h341.21v97.913c-41.539-10.88-82.089-20.77-121.65-31.649v223.517c39.561-11.868 80.111-22.747 121.65-31.648v94.945c-5.934 0-10.88 2.967-17.803 2.967H307.638c-7.912 0-12.857 1.978-17.802 7.912-26.703 35.605-50.44 70.22-78.132 105.825 0 1.978-2.967 4.945-7.912 7.912V643.903c-6.923 0-11.868-.989-15.824-.989-46.484-2.967-58.352-25.714-58.352-55.385zm306.594-42.528v-150.33c41.539 8.9 79.121 20.769 118.682 31.648V289.836h270c40.55 0 52.419 12.857 57.364 55.385v244.286c0 32.638-37.583 56.374-81.1 56.374v123.627c-28.68-39.56-58.351-78.132-85.055-115.715-5.934-5.934-9.89-7.912-17.802-7.912H554.892V512.364c-39.56 8.901-80.11 20.77-118.682 32.638z" style="fill:#000;fill-opacity:1;fill-rule:nonzero;stroke:none;"/>
</svg>
