<svg xmlns="http://www.w3.org/2000/svg" width="1000" height="1000">
  <path d="M590.402 439.277 690.516 624.49c83.846-42.549 120.138-161.435 68.829-251.538l-148.92-262.8c-42.549-98.863-160.183-128.897-262.8-86.349-112.63 63.823-128.898 178.955-43.8 349.15l22.525-12.515c88.852-53.811 215.246-11.263 264.052 78.84zM243.756 624.49l140.16 264.052c51.309 96.36 163.937 133.903 265.303 85.097 91.355-46.303 127.646-167.692 82.595-255.292l-41.298-93.857-27.531 12.514c-85.097 46.303-205.235 8.76-247.783-80.091l-111.378-183.96c-87.6 55.062-111.377 166.44-60.068 251.537z" style="fill:#000;fill-opacity:1;fill-rule:nonzero;stroke:none;"/>
</svg>
