<svg xmlns="http://www.w3.org/2000/svg" viewBox="0 0 1000 1000"><path d="M500.496 995.003c275.935 0 494.507-224.506 494.507-495.496C995.003 226.54 773.464 5 500.496 5 223.572 5 5 229.506 5 499.507c0 276.924 224.506 495.496 495.496 495.496zM107.857 499.507v-4.945c0-.989.99-1.978.99-3.956.989-2.967.989-5.934.989-9.89 1.978-7.912 6.923-13.846 12.857-19.78.989-.99.989-.99 2.967-1.978-1.978-.99-3.956-.99-4.945-.99-5.934-1.977-8.901-4.945-9.89-10.879 0-.989 0-.989.989-1.978 0-3.956 0-6.923.989-10.879 1.978-10.879 3.956-22.747 6.923-33.626 2.967-12.857 6.923-26.704 10.879-38.572 4.945-13.846 8.9-24.725 15.824-36.593.99-1.978 1.978-4.945 3.956-5.934 3.956-3.957 5.934-9.89 6.923-15.825.99-2.967 1.978-5.934 2.967-6.923 3.956-6.923 6.923-11.868 9.89-17.802 6.923-9.89 12.858-19.78 19.78-28.681 7.913-7.913 13.847-16.814 20.77-24.726 12.857-14.835 27.692-27.692 41.539-39.56 10.879-8.902 21.758-16.814 33.626-24.726 11.868-5.934 22.747-13.846 34.616-19.78 3.956-2.967 6.923-4.945 10.879-6.923 0-.99.989-2.967 1.978-3.956.989.989.989 2.967.989 4.945 6.923-3.956 12.857-6.923 17.802-9.89 6.923-2.967 11.868-6.923 19.78-9.89 6.923-1.978 13.847-1.978 21.759 1.978 3.956 2.967 7.912 5.934 9.89 8.9 0 .99 1.978 1.979 2.967 2.968 0-1.978 1.978-2.967 1.978-3.956 3.956-7.912 7.912-14.835 13.846-20.77 10.88-6.923 22.747-8.9 33.627-2.967 6.923 2.967 11.868 8.902 16.813 13.847 0 .989 2.967 2.967 3.956 4.945.989 0 .989-.99.989-1.978 1.978-4.945 4.945-10.88 6.923-15.825 2.967-5.934 7.912-8.9 13.846-9.89 0-.989.99-.989 1.978-.989h22.747c.99 0 2.968.99 5.935.99 6.923.988 11.868 4.944 14.835 11.867 2.967 5.935 4.945 10.88 4.945 17.803-.99 12.857-4.945 22.747-16.813 28.681-2.967 1.978-5.934 3.956-8.901 3.956-8.902 1.978-16.814.99-24.726-1.978-4.945-3.956-9.89-7.912-14.835-12.857 0-.99-.99-1.978-1.978-3.956-.99 1.978-.99 3.956-1.978 4.945-.99 6.923-3.956 13.846-7.912 17.802-1.978 2.967-3.956 4.945-6.923 6.923-1.978.99-1.978 2.967-3.956 4.945.989.99 1.978.99 1.978 1.978 4.945 2.967 9.89 3.956 14.835 6.924 3.956 1.978 5.934 5.934 7.912 8.9 4.945 6.924 6.923 13.847 6.923 20.77 0 7.912-2.967 14.835-8.901 20.77-4.945 5.933-11.868 9.89-20.77 11.867-7.911.99-13.846 0-20.769-4.945-6.923-2.967-10.879-8.9-15.824-13.846-.989 0-.989-.989-1.978-.989 0 .99 0 1.978-.989 2.967-.989 10.88-6.923 20.77-16.813 27.693-1.978 0-2.967.989-3.956 2.967h3.956c5.934 2.967 12.857 5.934 17.802 9.89 6.923 5.934 9.89 11.868 11.868 20.769 2.967 15.824-6.923 31.649-21.758 37.583-10.88 2.967-19.78 2.967-28.681-3.956-3.957-2.968-8.902-6.924-13.847-11.869 0 0 0-.989-.989-1.978h-.989c0 .99 0 1.978-.989 2.967-1.978 11.869-7.912 21.759-18.791 27.693-.989 0-1.978.989-2.967 1.978 1.978.989 3.956.989 4.945 1.978 6.923 1.978 11.868 4.945 17.802 7.912 4.945 4.945 9.89 11.868 9.89 18.791.99 4.945 1.978 9.89 0 13.846 0 5.935-2.967 9.89-6.923 14.836-1.978 3.956-7.912 7.912-12.857 10.879-4.945.989-9.89 2.967-15.824 2.967-5.934 0-11.868-1.978-16.813-4.945-5.934-3.956-8.901-7.912-12.858-12.857-.989-.99-.989-1.978-1.978-1.978-.989 2.967-.989 5.934-1.978 7.912-1.978 9.89-7.912 17.802-15.824 22.747-.989 0-1.978.989-2.967 1.978 1.978.989 3.956 1.978 5.934 1.978 3.956 1.978 6.923 3.956 10.88 5.934 3.955 1.978 7.912 6.923 9.89 10.88 2.967 6.922 4.945 12.856 5.934 19.78 0 5.934-1.978 10.879-3.956 15.824-6.924 10.879-17.803 16.813-29.67 16.813-5.935.99-10.88-.989-15.825-3.956-5.934-1.978-10.88-7.912-14.835-12.857l-2.967-2.967c-.99 2.967-1.978 4.945-2.967 7.912-2.967 9.89-7.913 17.802-17.803 23.736 0 0-.989.99-1.978.99 2.967 1.977 6.923 1.977 7.912 2.966 6.924 2.967 11.869 5.934 16.814 9.89 4.945 4.946 7.912 9.89 8.9 17.803 1.979 8.9 0 17.802-4.944 24.725-5.934 7.912-12.857 12.857-22.748 15.824-8.9.99-15.824-.989-21.758-5.934-5.934-2.967-10.88-7.912-14.835-12.857-.99 0-1.978 0-1.978-.989h-.99v.989c-.988 8.901-4.944 15.824-10.878 21.758-1.978 2.967-5.934 5.934-9.89 7.912 0 .99-.99.99-2.968.99 1.979.988 2.968.988 2.968.988 3.956 1.978 8.9 3.957 12.857 5.935 7.912 2.967 13.846 9.89 17.802 17.802.989 4.945.989 9.89.989 14.835 0 10.88-4.945 18.791-12.857 24.725-6.923 4.945-12.857 6.923-18.791 6.923-9.89.99-16.814-.989-22.748-6.923-3.956-2.967-6.923-5.934-8.9-9.89-1.979-.989-1.979-1.978-2.968-2.967-.989.99-1.978 1.978-1.978 2.967-.989 1.978-.989 3.956-.989 5.934h-2.967c0-1.978-.99-4.945-1.978-6.923-3.956-9.89-7.912-19.78-10.88-29.67v-1.978c0-.99.99-.99 1.979 0 0 .989.989 1.978.989 2.967 3.956 3.956 6.923 5.934 9.89 10.879.989-.989.989-1.978 1.978-2.967 5.934-7.912 10.88-16.813 17.802-24.725.99-1.978.99-2.967-.989-2.967-7.912-4.946-17.802-9.89-26.703-14.836l-.99-.989c-.988 2.967-1.977 7.912-4.944 10.88-4.945-17.803-8.901-34.616-13.846-52.418 4.945 3.956 9.89 8.9 14.835 12.857 1.978-.99 2.967-2.967 2.967-4.945 4.945-5.934 7.912-10.88 10.879-16.813 1.978-.99 1.978-.99-.99-1.978-4.944-4.946-11.867-7.913-19.78-11.869-.988-1.978-1.977-1.978-1.977 0-1.978 2.967-2.967 3.956-3.956 5.934-.99 1.978-1.978 2.967-1.978 3.957-1.978-5.935-1.978-9.89-1.978-15.825-.99-2.967-.99-6.923-.99-9.89zm46.484-121.649c0 1.978 0 1.978.99 2.967 2.966 2.967 4.944 4.945 7.911 6.924 1.978 0 2.967 1.978 3.956 2.967 2.967-4.946 6.923-10.88 9.89-14.836.99-.989.99-1.978 0-1.978-4.945-2.967-8.9-5.934-14.835-7.912-1.978 3.956-4.945 7.912-7.912 11.868zm5.934 311.54c0-1.978.99-3.956.99-4.945.988-1.978.988-3.956 2.966-4.945 5.934-6.923 13.847-10.88 22.748-12.857 6.923-.99 13.846 0 20.769 3.956 3.956 1.978 8.901 5.934 12.857 10.879 1.978 5.934 3.956 9.89 3.956 19.78-.989 8.901-3.956 18.791-13.846 25.714-5.934 3.956-11.868 4.945-18.791 4.945-3.956-.989-8.901-3.956-11.868-7.912-1.979-2.967-4.946-6.923-7.913-11.868-2.967-4.945-5.934-9.89-9.89-14.835-1.978-1.978-1.978-5.934-1.978-7.912zm2.967-240.33c-.989.988-.989.988.99 2.966 3.955 2.967 5.933 5.935 10.878 7.913 1.978 1.978 4.946 3.956 6.924 5.934 5.934-6.923 8.9-13.847 14.835-20.77.989-.989 0-1.978-.99-1.978-.988-.989-1.977-1.978-2.966-1.978-4.945-2.967-9.89-4.945-14.836-8.9-2.967-.99-2.967-.99-3.956.988-3.956 4.945-6.923 10.88-10.879 15.824zm8.901 72.197c8.902 6.924 17.803 12.858 25.715 18.792 2.967-3.956 17.802-25.715 17.802-28.682-1.978 0-3.956-.989-4.945-1.978-6.923-3.956-12.857-6.923-19.78-9.89-1.978-1.978-1.978-1.978-3.956 0-3.956 5.934-6.923 11.868-11.869 17.802-.989 1.978-1.978 1.978-2.967 3.956zm19.78 221.54 8.902-2.967c5.934-.99 10.879-.99 17.802.989 7.912 2.967 12.857 9.89 15.824 17.802 2.967 6.923 1.978 13.846 0 21.758 0 1.978-.989 3.956-1.978 6.923-13.846-15.824-26.703-28.681-40.55-44.505zm20.77-445.057c2.967 1.978 5.934 3.956 7.912 5.934 0 .99.99 1.978 2.967 2.967 3.956-5.934 6.923-9.89 10.88-15.824-3.957-2.967-8.902-3.956-12.858-5.934-.989-.989-.989 0-1.978.989-2.967 1.978-4.945 4.945-6.923 8.901-.989 1.978-.989 1.978 0 2.967zm.989 316.485c0-16.813 12.857-32.638 34.616-32.638 19.78 0 32.637 17.803 32.637 33.627 0 18.791-15.824 33.626-34.616 33.626-16.813 0-32.637-14.835-32.637-34.615zm6.923-246.265c5.934 3.956 11.868 8.901 16.813 11.868.99 0 .99.99.99.99 4.944-6.924 10.879-14.836 14.835-22.748-6.924-2.967-12.858-6.923-20.77-10.88h-.989c-2.967 6.924-7.912 11.87-10.879 17.803-.989 1.978 0 1.978 0 2.967zm7.912 69.231c7.912 6.923 15.824 12.857 23.737 19.78.989 0 .989 0 .989-.988 6.923-7.913 11.868-16.814 17.802-25.715 0-.989 0-1.978-.99-2.967-7.911-3.956-15.823-8.901-23.736-12.857-1.978-.99-1.978-.99-3.956.989l-11.868 17.802c0 1.978-.989 2.967-1.978 3.956zm1.978 245.276c0-15.824 14.835-29.67 32.638-28.682 16.813 0 28.681 13.847 29.67 31.649.99 17.802-15.824 31.648-31.648 31.648-18.792 0-31.649-15.824-30.66-34.615zm15.824 73.187c0-14.835 12.858-29.67 29.67-29.67 17.803 0 29.671 14.835 29.671 30.659 0 16.813-13.846 28.681-30.66 28.681-14.834 0-29.67-12.857-28.68-29.67zm18.792 58.352c5.934-10.88 14.835-16.814 26.703-15.825 10.88.99 19.78 4.946 23.736 15.825 4.946 9.89 4.946 19.78-3.956 29.67-3.956-.989-7.912-3.956-11.868-6.923-9.89-5.934-19.78-12.857-28.681-18.791-1.978-1.978-3.956-2.967-5.934-3.956zm.989-603.3c4.945 3.957 8.9 7.913 13.846 11.87 2.967-5.935 6.923-11.869 10.88-16.814-4.946-1.978-9.891-4.945-13.847-7.912-1.978 0-1.978 0-2.967.989-1.978 2.967-2.967 5.934-4.945 6.923-.99 1.978-1.978 3.956-2.967 4.945zm3.956 319.453c0-17.803 13.846-32.638 33.626-31.649 17.803 0 31.649 13.846 31.649 30.66.989 18.79-12.857 35.604-31.649 35.604-17.802 0-33.626-14.835-33.626-34.615zm6.923-246.265c0 .989.989.989 1.978.989 2.967 2.967 6.923 5.934 10.88 9.89 1.977.99 1.977 1.978 3.955 2.967 5.934-7.912 9.89-14.835 15.824-21.758-.989-.99-.989-.99-.989-1.978-6.923-2.967-12.857-6.923-18.79-9.89-.99 0-1.979 0-1.979.989-1.978.989-2.967 1.978-3.956 4.945-2.967 3.956-3.956 6.923-6.923 9.89-.99 1.978-.99 2.967 0 3.956zm7.912 68.242.99.989c5.933 4.945 13.845 10.88 19.78 16.813.988 0 2.966 1.978 3.955 1.978.99-.989 1.978-1.978 1.978-2.967 4.946-7.912 9.89-14.835 14.836-22.747 1.978-1.978 1.978-1.978 0-2.967-.99 0-1.978-.99-1.978-.99-5.934-3.955-12.858-6.922-18.792-10.878-1.978 0-3.956-1.978-4.945-2.967-4.945 8.9-10.879 16.813-15.824 23.736zm.99 245.276c1.977-12.858 7.911-20.77 19.78-25.715 3.955-1.978 7.911-1.978 11.868-1.978 14.835 0 26.703 9.89 29.67 22.747 3.956 11.869.989 22.748-6.923 30.66-5.934 6.923-12.857 8.901-19.78 8.901-1.978.99-1.978 0-3.956 0-5.935.99-11.869-.989-16.814-3.956-3.956-1.978-5.934-4.945-7.912-7.912-4.945-7.912-6.923-14.835-5.934-22.747zm15.823 73.187c0-17.803 14.836-29.67 30.66-29.67 16.813.988 29.67 14.834 29.67 30.659 0 14.835-11.868 29.67-29.67 29.67-18.792 0-30.66-12.857-30.66-30.66zm16.814 70.22c0-16.814 11.868-27.693 26.703-27.693 16.813 0 28.681 12.857 28.681 27.693-.989 16.813-11.868 28.681-28.681 28.681-12.857 0-27.692-11.868-26.703-28.681zM326.43 446.1c0-18.79 15.824-32.637 34.615-32.637 18.791 0 32.638 14.835 32.638 34.615 0 18.792-15.825 31.649-31.649 31.649-18.791 0-35.604-13.846-35.604-33.627zm4.945-248.242c5.934 4.945 11.868 10.879 19.78 14.835 4.945-7.912 10.88-14.835 14.835-22.747-6.923-3.956-13.846-7.912-21.758-12.858-3.956 7.913-8.901 13.847-12.857 20.77zm2.967 614.178c0-14.836 12.857-26.704 26.703-26.704 11.868 0 25.715 9.89 25.715 26.704 0 14.835-12.858 25.714-25.715 25.714-13.846 0-27.692-10.88-26.703-25.714zm7.912-542.97c6.923 5.935 12.857 10.88 19.78 17.803.99 0 1.978 0 2.967.99 6.923-9.891 12.857-17.803 18.791-28.682-8.9-3.956-17.802-9.89-26.703-13.847-2.967 1.978-4.945 5.935-6.923 9.89-2.967 2.968-5.934 6.924-7.912 11.869-.99 0-.99.989 0 1.978zm2.967 260.112c-5.934-14.836-.99-29.67 10.88-38.572 10.878-7.912 25.713-7.912 36.593 0 7.912 5.934 10.879 12.857 12.857 22.747v3.956c-.99 11.869-4.945 21.759-16.813 28.682-16.814 7.912-36.594 1.978-43.517-16.813zm11.868 338.242c2.967-4.945 6.923-8.9 14.835-8.9 5.934-.99 11.868.988 17.803 4.944 3.956 3.956 5.934 7.912 6.923 13.847 0 .989.989 1.978.989 3.956-2.967 0-37.583-11.869-40.55-13.847zm0-279.89c0-17.803 14.835-30.66 30.66-29.671 15.824 0 30.659 11.868 29.67 28.681.989 14.836-11.868 31.649-29.67 30.66-15.825 0-30.66-13.846-30.66-29.67zm16.813 70.22c0-14.836 11.869-28.682 28.682-28.682 14.835 0 27.692 11.868 27.692 27.692.99 15.825-12.857 29.67-27.692 27.693-14.835.989-28.682-9.89-28.682-26.704zm8.901-293.738c0-17.802 13.847-35.604 33.627-35.604 17.802 0 32.637 16.813 32.637 33.626.99 16.813-14.835 34.616-32.637 33.627-18.791.989-32.638-13.847-33.627-31.649zm9.89 355.056c.99-6.923 4.946-11.868 10.88-14.835 2.967-1.978 6.923-2.967 10.879-2.967 8.901 0 16.813 2.967 22.747 9.89 3.956 3.956 5.934 8.901 5.934 14.835 0 9.89-3.956 17.803-11.868 23.737-4.945 1.978-8.901 3.956-13.846 3.956-9.89-.99-17.802-3.956-23.736-12.857-3.956-6.923-3.956-14.836-.99-21.759zm5.935-287.803c0-17.802 13.846-30.66 31.648-30.66 18.791-.988 31.649 14.836 31.649 31.65 0 17.801-14.836 30.659-31.649 30.659-17.802 0-31.648-13.847-31.648-31.649zm0-245.275h1.978c5.934 5.934 11.868 9.89 17.802 15.824.989.989 1.978.989 3.956 2.967 5.934-9.89 11.868-18.791 18.791-28.682-9.89-5.934-18.791-9.89-28.681-15.824v.99c-4.945 6.922-9.89 14.834-13.846 20.769-.99 1.978-.99 1.978 0 3.956zm7.912 610.221c0-12.857 9.89-23.736 23.736-23.736 12.857.99 23.737 9.89 23.737 24.725 0 13.847-8.902 24.726-23.737 24.726-13.846 0-25.714-10.88-23.736-25.715zm7.912-293.737c-.99-17.802 14.835-30.66 28.681-30.66 16.814 0 29.67 12.858 29.67 30.66 0 16.813-12.856 30.66-29.67 29.67-14.835 0-28.681-10.879-28.681-29.67zm7.912 364.946c0-9.89 9.89-21.758 21.758-21.758 12.858 0 22.748 10.88 22.748 21.758 0 11.869-8.901 22.748-21.759 22.748-13.846 0-22.747-11.868-22.747-22.748zm8.901-294.726c0-13.846 11.868-27.692 27.693-27.692 14.835.989 28.681 12.857 28.681 27.692-.989 15.824-12.857 28.682-28.681 28.682-15.825 0-28.682-11.869-27.693-28.682zm7.912-294.726c0-18.791 14.836-32.638 32.638-32.638 18.791 0 34.615 14.836 32.637 34.616-.989 16.813-12.857 30.66-32.637 30.66-20.77 0-33.627-15.825-32.638-32.638zM446.1 646.87c-.989-5.934.99-12.857 4.945-17.802 3.957-6.923 10.88-10.88 17.803-11.868h3.956c9.89 0 20.77 5.934 24.725 16.813 2.967 6.923 2.967 14.835-1.978 21.758a19.591 19.591 0 0 1-10.88 10.88c-7.911 3.956-15.823 3.956-23.735 0-7.913-3.957-13.847-10.88-14.836-19.78zm7.913-299.671c0-16.813 13.846-29.67 32.637-29.67 16.813 0 31.648 13.846 30.66 31.648 0 16.813-13.847 30.66-32.638 30.66-16.813-.99-31.649-13.847-30.66-32.638zm7.912 365.935c0-11.868 10.879-24.725 24.725-23.736 11.868.989 24.725 9.89 23.736 23.736 0 12.857-9.89 25.715-24.725 24.726-12.857-.99-23.736-9.89-23.736-24.726zm8.9-294.726c-.988-15.824 12.858-30.66 29.671-30.66 15.824 0 30.66 12.858 30.66 30.66 0 15.824-12.858 30.66-30.66 30.66-16.813 0-30.66-13.847-29.67-30.66zm7.913 363.957c0-10.879 11.868-20.77 21.758-20.77 12.857 0 23.737 9.891 22.748 22.748 0 11.868-10.88 20.77-22.748 20.77-9.89 0-22.747-9.89-21.758-22.748zm6.923-293.737c0-14.835 12.857-28.681 28.681-28.681 17.803.989 29.67 14.835 28.682 29.67-.99 15.824-11.868 27.692-28.682 27.692-17.802 0-28.681-14.835-28.681-28.681zm7.912-296.704c1.978-19.78 19.78-33.627 37.583-31.649 19.78 1.978 32.637 18.791 30.66 35.605-1.979 19.78-17.803 31.648-35.605 30.66-20.77 0-32.638-17.803-32.638-34.616zm1.978 661.65c0-10.879 9.89-19.78 18.791-19.78 11.869 0 19.78 10.88 19.78 20.77 0 12.856-9.89 19.78-19.78 18.79-8.9.99-18.79-6.923-18.79-19.78zm6.923-293.737c0-11.868 8.901-23.736 21.759-26.703 10.879-1.978 19.78 2.967 27.692 11.868 2.967 4.945 2.967 11.868 1.978 18.791 0 5.934-4.945 12.857-9.89 16.813-4.945 3.956-9.89 4.945-13.846 4.945-16.814 0-27.693-12.857-27.693-25.714zm7.912-295.715c0-19.78 14.836-32.638 33.627-32.638 17.802 0 30.66 15.824 30.66 32.638 0 14.835-12.858 32.637-32.638 31.648-17.802 0-31.649-13.846-31.649-31.648zm8.901 363.957c0-4.945 1.978-7.912 3.956-12.857 2.968-4.945 8.902-8.901 15.825-9.89 5.934-1.978 12.857 0 17.802 3.956 4.945 2.967 7.912 7.912 8.901 13.846.99 1.978.99 4.945 1.978 6.923 0 11.868-8.901 20.77-18.791 22.747-4.945.99-8.901.99-13.846-.989-8.901-2.967-16.814-11.868-15.825-23.736zm6.924-292.748c-.99-17.803 12.857-30.66 28.681-30.66 15.824 0 30.66 10.88 31.648 28.682 0 14.835-11.868 30.66-28.681 30.66-18.791.988-31.648-12.858-31.648-28.682zm8.9 363.957c0-10.88 9.89-22.747 21.759-22.747 12.857 0 22.747 11.868 22.747 22.747 0 11.868-10.879 21.758-22.747 21.758-10.88 0-22.747-8.9-21.758-21.758zm6.924-296.704c.989-14.835 12.857-25.715 29.67-25.715 12.857 0 26.704 10.88 26.704 27.693 0 13.846-11.869 28.681-26.704 27.692-16.813 0-29.67-13.846-29.67-29.67zm9.89 367.913c0-11.868 7.912-19.78 19.78-19.78 10.88 0 19.78 7.912 19.78 18.791 0 12.857-9.89 20.77-19.78 19.78-9.89.99-19.78-6.923-19.78-18.791zm0-668.574c.989-4.945 1.978-5.934 6.923-5.934 3.956 0 6.923 1.978 10.88 1.978 7.911 1.978 15.823 2.967 24.725 4.945 4.945.99 9.89 1.978 15.824 2.967.989 0 2.967.99 3.956 1.978 2.967.99 4.945 3.957 3.956 6.924-.99 2.967-1.978 5.934-3.956 8.9-2.967 6.924-8.901 12.858-15.824 15.825-3.956 1.978-9.89 3.956-13.847 3.956-12.857 0-22.747-6.923-29.67-16.813-3.956-7.912-5.934-15.825-2.967-24.726zm5.934 372.859c0-12.857 10.88-26.704 26.703-26.704 13.847 0 26.704 10.88 26.704 25.715 0 13.846-9.89 26.703-26.704 26.703-14.835 0-26.703-11.868-26.703-25.714zm8.901-295.716c0-19.78 16.813-32.637 31.649-32.637 19.78.989 32.637 15.824 32.637 31.648 0 18.792-14.835 32.638-32.637 32.638-17.803 0-30.66-14.835-31.649-31.649zm.99 659.673c.988-7.912 7.911-15.824 16.812-15.824 10.88 0 17.803 8.9 17.803 17.802 0 7.912-7.912 15.824-17.803 15.824-8.9 0-16.813-8.9-16.813-17.802zm6.922-292.748c0-13.846 9.89-25.715 23.737-25.715 11.868 0 24.725 8.902 25.714 23.737 0 14.835-10.88 25.714-24.725 25.714-10.88 0-24.726-9.89-24.726-23.736zm7.912-296.704c0-14.836 11.869-29.67 30.66-29.67 15.824 0 29.67 12.856 29.67 30.659-.989 16.813-13.846 29.67-29.67 29.67-17.802 0-30.66-13.846-30.66-30.66zm8.901 365.935c0-12.857 9.89-22.748 21.759-22.748 11.868 0 21.758 9.89 21.758 22.748 0 12.857-9.89 22.747-21.758 21.758-10.88 0-22.748-8.901-21.759-21.758zm6.924-295.715c0-14.836 13.846-27.693 28.681-27.693 14.835.99 27.692 11.868 27.692 28.682 0 16.813-12.857 27.692-27.692 27.692-14.835-.99-28.681-11.868-28.681-28.681zm7.912 365.935c0-12.857 9.89-19.78 21.758-19.78 11.868.989 18.791 10.879 17.802 19.78.99 11.868-8.9 19.78-19.78 19.78-10.88-.989-19.78-7.912-19.78-19.78zm7.912-294.726c0-12.858 10.879-27.693 27.692-26.704 12.857 0 25.715 9.89 25.715 26.704 0 12.857-11.869 27.692-26.704 26.703-13.846-1.978-26.703-10.88-26.703-26.703zm10.879 364.946c-.989-8.901 6.923-16.813 16.813-16.813 6.923-.99 15.824 5.934 15.824 16.813 0 8.901-6.923 16.813-15.824 16.813-9.89 0-16.813-7.912-16.813-16.813zm3.956-644.838c12.857 3.957 24.725 8.902 35.605 13.847-12.858 5.934-29.67.989-35.605-13.847zm1.978 350.112c0-12.858 9.89-24.726 23.736-24.726 12.858.99 25.715 10.88 24.726 23.737 0 13.846-10.88 26.703-24.726 25.714-9.89.989-23.736-8.901-23.736-24.725zm7.912-295.716c0-19.78 15.824-29.67 28.682-29.67 16.813 0 30.659 10.879 30.659 29.67 0 16.814-12.857 30.66-30.66 30.66-15.824 0-28.68-12.857-28.68-30.66zm3.956 654.728c.99-1.978 1.978-4.945 3.956-5.934 6.923-1.978 11.868-1.978 17.803.989 3.956 2.967 7.912 11.868 1.978 17.802-1.978 3.956-5.935 6.923-11.869 5.934-8.9.989-15.824-8.901-11.868-18.791zm3.956-288.792c0-11.869 10.88-22.748 22.748-21.759 10.879 0 22.747 9.89 21.758 21.759.989 11.868-10.88 21.758-22.747 21.758-11.869 0-21.759-10.88-21.759-21.758zm7.912-295.716c0-14.835 11.869-27.692 28.682-27.692s27.692 12.857 27.692 27.692c0 15.825-12.857 29.67-28.681 28.682-16.813 0-27.693-12.857-27.693-28.682zm9.89 365.936c-.988-11.869 9.89-19.78 19.78-19.78 10.88 0 18.792 8.9 18.792 19.78 0 8.9-7.912 19.78-19.78 18.79-8.901 0-18.791-6.922-18.791-18.79zm5.935-294.727c-.99-13.846 11.868-26.703 25.714-26.703 12.857 0 26.703 10.88 26.703 25.714.99 13.847-10.879 27.693-25.714 27.693-12.857.989-26.703-11.868-26.703-26.704zm9.89 363.958c0-7.913 5.934-15.825 15.824-15.825 11.868 0 18.791 9.89 17.802 16.814 0 8.9-8.9 16.813-16.813 16.813-8.901 0-16.813-7.912-16.813-17.802zm5.934-294.727c0-11.868 9.89-25.714 25.714-24.725 13.846 0 23.737 11.868 23.737 25.714 0 11.869-10.88 23.737-24.726 23.737-15.824 0-25.714-12.857-24.725-24.726zm10.879 364.947c-.989-7.912 6.923-13.847 13.846-13.847 7.912.99 13.846 5.935 13.846 13.847 0 5.934-5.934 13.846-13.846 13.846s-14.835-7.912-13.846-13.846zm5.934-294.727c0-8.9 7.912-21.758 22.747-21.758 10.88 0 21.759 8.901 21.759 21.758 0 11.869-9.89 22.748-21.759 22.748-12.857 0-22.747-10.88-22.747-22.748zm8.901-296.704c13.846 7.912 26.704 16.813 39.56 26.703-7.911 5.935-20.769 4.946-29.67-1.978-8.9-6.923-12.857-18.79-9.89-24.725zm4.945 670.552V808.08c1.978-5.934 7.912-7.913 11.868-5.934 1.978.989 3.957 2.967 4.946 3.956 2.967 3.956 1.978 7.912 0 10.879-2.968 1.978-4.946 2.967-6.924 3.956-.989.989-1.978.989-2.967.989-1.978.989-3.956 0-4.945 0zm1.978-298.683c-.989-5.934 0-11.868 3.956-15.824 4.945-5.934 10.88-7.912 18.792-7.912 7.912.99 15.824 6.923 16.813 15.824.989.99.989 1.978.989 3.956 0 7.912-6.923 16.814-16.813 18.792-2.967.989-6.923 0-9.89 0-6.924-2.967-11.869-7.912-13.847-14.836zm6.923-298.682c0-14.835 11.869-26.703 27.693-26.703 13.846 0 26.703 10.879 26.703 25.714 0 14.835-13.846 26.703-26.703 25.714-13.846.99-27.693-10.879-27.693-24.725zm9.89 364.946c0-10.879 9.89-17.802 17.803-17.802 9.89 0 16.813 8.901 16.813 17.802 0 7.913-5.934 15.825-16.813 15.825-9.89 0-16.813-7.912-17.802-15.825zm7.913-294.726c0-11.868 8.9-25.714 22.747-25.714 13.846 0 26.703 10.879 25.714 25.714 0 11.868-9.89 24.725-24.725 24.725-11.868 0-23.736-10.879-23.736-24.725zm9.89 363.957c0-7.912 5.934-13.846 12.857-13.846 7.912-.989 14.835 6.923 13.846 13.846 0 7.913-4.945 13.847-12.857 13.847-8.901 0-13.846-7.913-13.846-13.847zm5.934-294.726c0-12.857 9.89-22.747 22.747-22.747 11.868 0 21.759 10.879 21.759 22.747s-8.902 22.747-22.748 22.747c-10.879 0-22.747-9.89-21.758-22.747zm12.857 363.957c0-1.978 1.978-4.945 3.956-4.945.99 0 1.978-.989 3.956-.989h5.934c.99 1.978 1.978 5.934 1.978 8.901 0 2.967-.989 4.946-3.956 6.924-3.956.989-6.923 1.978-9.89 2.967 0-4.945-.989-8.902-1.978-12.858zm3.956-293.737c-.989-7.912 6.923-19.78 19.78-18.791 10.88 0 19.78 6.923 19.78 19.78 0 12.857-8.9 18.791-19.78 19.78-12.857 0-19.78-9.89-19.78-20.769zm16.813 70.22c0-9.89 6.924-16.813 16.814-16.813 8.9.989 16.813 5.934 16.813 16.813 0 9.89-6.923 16.813-16.813 16.813-11.869 0-16.814-7.912-16.814-16.813zm16.814 70.22c-.99-7.912 5.934-13.846 13.846-13.846 6.923 0 12.857 5.934 12.857 13.846 0 5.934-4.945 14.835-12.857 13.846-7.912 0-13.846-5.934-13.846-13.846zm5.934-287.803c-2.967-6.923 0-13.846 2.967-18.791 3.956-5.934 7.912-8.901 14.835-9.89 2.967 3.956 4.945 8.9 7.912 11.868 3.956 5.934 5.934 11.868 9.89 17.802 2.967 2.967 1.978 7.912-1.978 10.88-5.934 4.944-13.846 5.933-22.747.988-4.945-.989-9.89-5.934-10.88-12.857zm10.879 351.1c3.956 0 7.912-.989 10.879-.989 3.956-.989 5.934.99 5.934 3.956 1.978 2.967 1.978 4.945 2.967 8.901 0 .99-.989.99-1.978.99-2.967.988-5.934 1.977-7.912 1.977-2.967 0-4.945-.989-6.923-3.956-.99-1.978-.99-3.956-1.978-5.934-.99-.989-.99-2.967-.99-4.945zm4.945-288.792c0-9.89 7.912-19.78 19.78-19.78 12.857.989 19.78 9.89 18.792 19.78 0 9.89-6.924 20.77-18.792 20.77-11.868 0-19.78-9.89-19.78-20.77zm16.813 72.198c-.989-8.901 7.912-16.813 16.813-16.813 8.902-.99 16.814 5.934 16.814 14.835.989 9.89-5.934 18.791-15.825 18.791-8.9 0-16.813-6.923-17.802-16.813zm17.802 69.231c0-7.912 5.935-13.846 12.858-13.846 7.912 0 15.824 5.934 15.824 13.846-.99 8.901-6.923 14.835-14.835 13.846-7.912 0-13.847-3.956-13.847-13.846zm18.792 75.165c-2.967-3.956-2.967-6.923 0-9.89 1.978-.99 2.967-1.978 4.945-2.967 2.967-.99 4.945-.99 6.923-1.978 1.978-.99 5.934.989 5.934 2.967v7.912c.989 7.912-5.934 9.89-11.868 8.901-2.967-.989-3.956-1.978-5.934-4.945z"/></svg>