<svg xmlns="http://www.w3.org/2000/svg" viewBox="0 0 1000 1000"><path d="M274.02 656.741c-8.357-2.09-17.76-4.179-27.163-5.223-22.984-4.18-45.968-8.358-66.863-16.716-48.058-13.582-121.19-52.237-145.219-76.266-39.7-38.655-39.7-79.4 0-118.056 31.342-31.342 69.998-45.968 108.653-60.595 75.221-30.297 152.532-38.655 229.843-50.147 2.09 0 7.313-5.224 9.402-11.492 4.18-8.358 7.314-17.76 11.493-27.163 7.313-18.806 15.67-38.656 26.118-57.461 25.074-50.148 60.595-75.221 107.608-75.221 16.716 0 45.969 0 51.192 34.476 2.09 25.074-21.939 49.103-51.192 50.147-10.447 0-20.895-2.089-29.252-6.268-26.119-9.403-26.119-9.403-34.477 19.85-4.179 14.626-7.313 30.298-11.492 47.013-1.045 6.269-2.09 12.537-4.179 18.806 2.09 1.044 4.179 1.044 6.268 1.044 12.537 2.09 24.03 3.135 34.477 3.135 51.192 2.09 105.519 3.134 158.8 3.134 2.09 0 8.358-5.224 10.448-8.358 7.313-15.671 14.626-30.297 20.895-45.969 8.357-18.805 16.715-38.655 26.118-56.416 24.029-38.655 55.371-59.55 92.982-61.64 35.521-2.089 58.505 13.582 57.46 39.7 0 26.12-31.342 49.104-59.55 45.97-5.223-1.045-10.447-3.135-14.626-4.18-1.045-1.044-3.134-1.044-4.179-2.089-30.297-10.447-29.253-10.447-36.566 18.805-3.134 10.448-5.224 20.895-7.313 31.343l-12.537 53.281c8.358 2.09 15.671 4.18 24.03 5.224 18.804 5.224 38.654 9.403 57.46 16.716 35.52 11.492 68.953 25.074 103.43 40.745 24.028 10.447 41.789 20.894 59.55 36.566 75.22 75.22 2.089 156.71-175.517 199.545-29.253 7.313-59.55 12.537-88.803 18.805l-30.297 6.269-15.671 2.09c-2.09 1.044-5.224 1.044-9.403 2.089-22.984 0-29.253 4.178-40.745 31.342-15.671 44.924-33.432 98.205-84.624 125.368-11.492 6.269-24.029 10.448-44.924 16.716-27.163 5.224-48.058-7.313-53.281-32.387-7.314-25.073 5.223-47.013 31.342-55.37 17.76-4.18 38.655-2.09 52.237 5.223 18.805 7.313 21.94 6.268 27.163-9.403 3.134-11.492 5.224-24.029 7.313-35.52 2.09-12.538 4.18-25.075 7.313-37.612l-22.984-3.134c-4.179-1.045-8.358-1.045-13.582-2.09-55.37-2.089-109.697-3.133-162.979-3.133-1.045 0-7.313 6.268-10.447 11.492l-18.806 38.655c-10.447 22.984-20.894 47.013-34.476 69.998-16.716 29.252-44.924 47.013-83.58 53.281-30.297 2.09-47.013-2.09-52.236-24.029-4.18-17.76 1.044-41.79 12.537-51.192 14.626-11.492 38.655-16.716 58.505-12.537 34.476 12.537 33.432 13.582 39.7-20.895 6.269-25.073 10.448-50.147 14.627-76.266zM61.939 507.344c3.135 38.655 40.745 50.147 72.087 64.773 27.164 14.627 57.461 21.94 89.848 28.208 13.582 3.135 28.208 7.314 42.834 10.448 16.716 6.268 20.895 3.134 22.985-13.582 6.268-30.297 16.715-59.55 27.163-87.758 3.134-9.403 6.268-19.85 10.447-29.253 6.269-22.984 13.582-44.923 21.94-67.908l12.537-34.476c-16.716 3.134-31.343 5.224-48.058 7.313-52.237 5.224-101.34 15.671-151.488 33.432-36.566 13.581-67.908 24.029-89.847 54.326-6.269 8.358-11.492 24.03-10.448 34.477zM354.465 638.98v-14.627c4.18 1.045 4.18 1.045 3.135 1.045h1.358c-1.463 4.493-3.03 9.09-4.493 13.582zm4.475-13.539c64.27 2.047 125.491 4.136 189.847 5.18 7.313 1.046 10.447-1.044 13.582-14.625 16.716-56.416 33.431-110.743 50.147-165.07 4.18-14.626 9.403-29.252 14.627-43.878l11.492-33.432h-16.716c-30.298-1.045-60.595-2.09-90.893-2.09-21.94 0-85.668-5.223-97.16-1.044-24.865 87.549-45.969 166.531-74.908 254.916zm276.56-1.088c13.582-2.089 26.119-3.134 38.656-5.223 24.029-2.09 45.968-4.18 66.863-9.403 102.385-26.118 162.98-53.282 187.009-83.58 7.313-9.402 11.492-25.073 8.357-33.43-4.178-37.611-38.655-50.148-68.952-64.775-29.253-13.581-61.64-21.94-94.027-30.297-13.582-4.179-27.163-7.313-40.745-11.492-17.76-4.18-24.029 0-28.208 16.716-6.268 29.252-15.67 61.64-29.252 98.205-9.403 31.342-19.85 62.685-31.343 96.116z"/></svg>