<svg xmlns="http://www.w3.org/2000/svg" width="1000" height="1000">
  <path d="M600.371 5c124.616 0 263.077 149.538 265.847 297.692C867.602 419 813.602 509 713.91 568.538c-48.462 26.308-98.308 41.539-156.462 37.385H330.371c-30.461 0-30.461 0-30.461 30.462v289.384c0 52.616 0 69.231-56.77 69.231-47.076 0-45.692-54-45.692-62.308-1.384-58.154-1.384-80.307-1.384-137.077V568.538c0-47.076 20.769-65.076 62.307-65.076h299.077c130.154 0 218.77-101.077 202.154-232.616-13.846-84.461-98.308-162-191.077-163.384-99.692-2.77-199.384-4.154-300.461 1.384C197.448 110.231 183.602 53.462 204.37 5zM133.756 298.538v-19.384c0-18 8.308-26.308 26.308-26.308h164.769c51.23 0 102.461-1.384 156.461 0 30.462 0 52.616 23.539 52.616 49.846 4.154 29.077-19.385 52.616-49.846 52.616-54 2.769-112.154 1.384-166.154 1.384H194.68c-42.924 0-60.924-19.384-60.924-58.154z" style="fill:#000;fill-opacity:1;fill-rule:nonzero;stroke:none;"/>
</svg>
