<svg xmlns="http://www.w3.org/2000/svg" width="1000" height="1000">
  <path d="M5 500.496c0 271.98 220.55 494.507 495.496 494.507 271.98 0 494.507-220.55 494.507-495.496C995.003 227.528 773.464 5 500.496 5 226.54 5 5 225.55 5 500.496zm93.956-10.879C98.956 266.1 285.88 85.11 510.386 85.11c236.375 0 410.441 202.748 410.441 416.375-5.934 225.495-185.934 404.507-410.44 404.507-230.441-4.945-411.43-184.946-411.43-416.375zm28.682 6.923c-4.945 190.88 152.308 348.133 349.122 348.133 196.814 0 355.056-153.297 355.056-348.133 0-191.869-158.242-349.122-349.122-355.056-196.814 0-355.056 158.242-355.056 355.056z" style="fill:#000;fill-opacity:1;fill-rule:nonzero;stroke:none;"/>
</svg>
