<svg xmlns="http://www.w3.org/2000/svg" viewBox="0 0 1000 1000"><path d="M500.496 5C223.572 5 5 229.506 5 500.002c0 276.43 224.506 495.001 495.002 495.001 276.43 0 495.001-224.506 495.001-495.001C995.003 226.539 773.464 5 500.496 5zm-210.66 635.936c0-79.121 15.824-135.495 81.1-194.836 18.79-15.824 35.604-33.626 50.439-54.395 43.517-52.418 64.286-113.737 69.231-181.98v-56.373c14.835 0 55.385 56.374 69.231 78.132 45.495 67.253 74.176 171.1 19.78 239.342-17.802 18.791-33.626 37.582-50.44 55.385-75.164 70.22-122.637 154.286-148.352 252.198-7.912 15.824-7.912 18.791-15.824 11.868-42.527-39.56-75.165-104.835-75.165-149.34zM446.1 834.783c-10.879-2.967-5.934-13.846 0-13.846 18.792-2.967 24.726-17.802 26.704-34.616 1.978-45.494 25.714-81.099 54.396-115.714 23.736-28.682 53.406-54.396 78.132-84.067 49.45-53.406 52.417-58.351 86.044-140.44 27.692 27.693 47.473 95.935 47.473 171.1-.99 63.297-20.77 118.682-65.275 163.187-48.462 48.462-109.78 73.187-178.023 64.286-16.813-1.978-33.626-5.934-49.45-9.89z"/></svg>