<svg xmlns="http://www.w3.org/2000/svg" width="1000" height="1000">
  <path d="M5 500.496C5 225.55 226.54 5 500.496 5c272.968 0 494.507 222.528 494.507 494.507 0 274.946-222.528 495.496-494.507 495.496C225.55 995.003 5 772.475 5 500.496zm97.912-32.637c-23.736 93.956 45.495 180 139.451 183.956 97.913 0 187.913-28.681 266.045-90 15.825 7.912 31.649 23.736 48.462 32.637 66.264 36.594 135.495 57.363 212.638 57.363 95.934 0 160.22-74.176 148.352-168.132-3.956-36.594-19.78-61.319-52.418-68.242-20.769-5.934-41.538 1.978-50.44 19.78h16.814c28.681 4.945 44.506 32.638 41.539 62.308-4.946 18.791-25.715 27.693-53.407 18.791-15.824-7.912-37.583-18.79-53.407-32.637-41.539-27.692-77.143-61.319-122.638-85.055-45.494-24.726-87.033-16.814-122.638 18.79-3.956 4.946-7.912 8.902-12.857 13.847-56.374-57.363-93.956-62.308-159.231-21.758-37.583 25.714-70.22 53.407-101.869 78.132-15.824 11.868-37.582 25.714-59.34 28.681-27.693 8.901-44.506-7.912-44.506-36.593 4.945-27.693 21.758-39.56 58.352-48.462-4.945-4.945-13.846-13.846-20.77-13.846-32.637-10.88-69.23 13.846-78.132 50.44z" style="fill:#000;fill-opacity:1;fill-rule:nonzero;stroke:none;"/>
</svg>
