<svg xmlns="http://www.w3.org/2000/svg" width="1000" height="1000">
  <path d="M995.003 498.753c0 112.394-92.413 206.055-202.308 201.06-111.145 0-206.055-88.666-206.055-201.06 4.996-109.895 92.413-202.308 206.055-202.308 109.895 0 202.308 92.413 202.308 202.308zM12.186 767.248c-21.23-86.168 53.699-178.58 144.862-179.829 44.957 0 97.408 34.967 139.867 47.455 67.436 28.723 123.633-18.732 147.36-64.938 11.24-19.981 36.216-34.967 59.944-34.967 43.708 0 74.928 53.699 39.962 96.159-14.986 16.234-33.718 23.727-56.197 18.732-22.479-2.498-43.709-7.493-63.69-7.493-47.455 0-88.665 38.713-107.398 94.91-11.239 29.971-22.478 62.44-42.46 92.412-27.473 44.957-89.914 63.69-141.115 56.197-67.436-11.24-108.647-67.436-121.135-118.638zm12.488-429.592c-57.446-103.651 18.732-222.289 127.379-222.289 101.154-6.244 131.125 66.187 183.576 181.078 23.727 49.953 68.684 57.446 122.383 49.953 22.479-2.498 41.211-14.986 66.188-4.995 19.98 8.741 36.215 27.474 36.215 53.699 0 71.182-73.68 82.421-121.135 12.488-38.713-57.446-88.666-66.187-149.858-46.206-19.98 7.493-38.713 18.732-56.196 27.474-72.431 43.708-167.341 23.727-208.552-51.202zM430.538 893.38c0-57.446 41.211-102.403 94.91-102.403 57.446 3.746 98.657 42.46 98.657 98.656 3.746 57.446-48.704 98.657-98.657 98.657-48.703 0-94.91-43.709-94.91-94.91zm0-786.754c0-49.952 46.207-94.91 98.657-94.91 57.445 0 98.656 44.958 94.91 99.906 0 54.948-41.211 98.656-98.657 98.656-53.699 0-94.91-47.455-94.91-103.652z" style="fill:#000;fill-opacity:1;fill-rule:nonzero;stroke:none;"/>
</svg>
