<svg xmlns="http://www.w3.org/2000/svg" viewBox="0 0 1000 1000"><path d="M5 500.496C5 225.55 226.54 5 500.496 5c272.968 0 494.507 222.528 494.507 494.507 0 274.946-222.528 495.496-494.507 495.496C225.55 995.003 5 772.475 5 500.496zm99.89 27.693c0 2.967 5.935 12.857 8.902 12.857 8.9 2.967 19.78 2.967 27.692 2.967h127.583c41.538 0 41.538 0 53.407-40.55 2.967-8.9 4.945-17.802 11.868-36.593 15.824 80.11 28.681 149.34 41.538 216.594 27.693 10.879 32.638-1.978 35.605-21.759 3.956-33.626 7.912-67.253 10.879-102.857 4.945-64.286 14.835-130.55 20.77-200.77 13.846 53.407 10.878 97.913 25.714 328.353 2.967 46.484 5.934 96.923 8.9 146.374 0 11.868 0 31.648 21.76 31.648 15.823-.989 20.768-40.55 24.725-71.209 12.857-78.132 22.747-156.264 33.626-242.308 5.934 31.648 13.846 72.198 16.813 80.11 2.967 12.857 17.802 19.78 27.693 5.934 5.934-5.934 11.868-14.835 17.802-24.725 12.857-20.77 24.725-42.528 37.582-68.242 37.583 0 72.198 2.967 108.792 0 15.824 0 27.692 2.967 43.517 14.835 21.758 22.747 53.406 19.78 68.242-2.967 15.824-17.802 15.824-39.56 0-58.352-19.78-22.747-42.528-24.725-65.275-5.934-18.792 14.835-34.616 18.791-51.43 18.791h-56.373c-62.308-2.967-73.187-2.967-102.857 48.462 0-2.967-2.967-7.912-2.967-11.868-6.924-49.45-13.847-99.89-18.792-149.341 0-11.869-2.967-21.759-18.79-21.759-11.87-2.967-19.781 6.923-19.781 18.792-2.967 18.79-4.945 37.582-7.912 56.373-6.923 55.385-15.825 115.715-22.748 171.1-7.912-12.857-11.868-24.725-11.868-37.583-9.89-117.692-15.824-236.374-21.758-351.1-2.967-31.648-5.934-62.308-8.901-96.923 0-8.901-3.956-20.77-18.792-20.77-12.857 0-18.79 11.869-18.79 20.77-6.924 60.33-11.869 118.682-19.781 177.033-7.912 69.231-14.835 137.473-19.78 206.704-15.825-27.692-33.627-125.604-41.539-150.33-2.967-11.868-22.747-11.868-27.692 0-7.913 16.813-29.67 100.88-37.583 140.44H148.407c-9.89 0-21.758 0-30.66 2.967-6.922 0-12.857 8.901-12.857 14.836z"/></svg>