<svg xmlns="http://www.w3.org/2000/svg" viewBox="0 0 1000 1000"><path d="M5 500.496c0 271.98 220.55 494.507 495.496 494.507 271.98 0 494.507-220.55 494.507-495.496C995.003 227.528 773.464 5 500.496 5 226.54 5 5 225.55 5 500.496zm268.023-49.45C328.408 326.43 410.496 215.66 491.595 106.867c8.901-11.868 15.824-10.879 23.736 0 68.242 75.166 178.023 244.287 224.507 349.123 79.12 181.978-8.901 358.023-198.792 387.693-83.077 13.846-156.265-11.868-216.594-67.253-92.968-79.121-108.792-199.78-51.43-325.386z"/></svg>