<svg xmlns="http://www.w3.org/2000/svg" viewBox="0 0 1000 1000"><path d="M438.879 40.436c37.044-39.513 75.323-44.452 112.366 0 98.784 92.61 197.568 192.628 292.647 292.647 49.392 44.453 95.08 96.314 139.532 144.471 14.818 14.818 16.052 29.635 0 44.453-9.878 11.113-19.757 24.696-30.87 35.809C819.196 691.174 679.664 827 545.072 967.768c-37.044 34.574-66.68 30.87-106.193-12.348-139.532-134.593-270.42-269.185-407.483-402.543-35.809-34.575-34.574-69.149 0-103.723C167.224 313.326 299.347 173.794 438.88 40.436zM57.327 487.433c12.348 16.052 83.966 49.391 169.167 90.14 19.757 9.878 34.574 6.174 49.392-9.879 51.861-56.8 108.662-104.957 162.993-159.288 40.748-40.749 71.618-40.749 112.366 0 54.332 54.33 108.663 108.662 162.994 159.288 8.643 9.879 24.695 19.757 34.574 16.053 60.505-30.87 124.714-61.74 190.158-96.314-96.314-85.201-150.645-149.41-414.891-413.657-28.4-28.4-28.4-28.4-60.505 0C321.573 219.482 63.501 476.319 57.327 487.433z"
    style="fill:#000;fill-opacity:1;fill-rule:nonzero;stroke:none"/></svg>