<svg xmlns="http://www.w3.org/2000/svg" width="1000" height="1000">
  <path d="M6.835 782.907V218.912c0-111.487 81.32-195.43 196.742-212.481 103.618-13.116 200.677 65.58 226.91 169.198 3.934 19.674 3.934 39.349 3.934 60.334v198.054c0 15.74 5.247 22.298 22.298 22.298 30.167 0 57.71-1.312 93.124-1.312 14.428 0 18.363-10.493 18.363-20.986V218.912c0-89.19 45.907-153.459 129.85-191.495C779.376-9.31 856.76 6.43 923.654 68.077c48.53 35.413 69.515 89.19 69.515 150.835V785.53c0 107.553-90.501 203.3-200.677 207.235-114.11 2.624-211.17-76.073-224.286-186.249-3.935-78.697 0-156.082 0-233.467-3.935-32.79-3.935-32.79-38.037-32.79-20.986 3.934-47.218 3.934-73.45 3.934-15.74 0-22.298 3.935-22.298 23.61v211.17c0 106.24-74.762 191.495-178.38 213.792C124.88 1011.128 6.836 914.07 6.836 782.907zm90.501 2.623c5.247 70.828 61.646 123.292 125.915 118.046 69.516-3.935 121.98-57.711 121.98-124.604 1.312-28.855 0-62.957 0-95.748V573.05c0-7.87 0-18.363-15.739-11.805-53.776 15.74-106.24 28.856-154.77 48.53-40.66 19.674-72.14 57.71-77.386 110.176-3.935 22.297-3.935 47.218 0 65.58zm0-233.467h6.558c66.893-43.284 145.59-64.27 222.975-81.32 18.362 0 19.674-9.182 19.674-26.233-1.312-77.385 0-154.77-1.312-233.467 0-53.777-38.036-103.618-93.124-114.11-81.32-19.675-154.77 41.97-154.77 121.98-3.936 104.929-3.936 212.481 0 316.099zm557.437 236.09c6.558 39.349 19.674 68.205 48.53 94.437 41.971 26.232 89.19 31.479 131.16 10.493 48.53-26.233 69.517-65.581 69.517-114.11V444.51h-5.247c-69.516 47.218-148.212 69.516-226.91 85.255-7.87 1.312-17.05 10.493-17.05 18.363zm0-347.578h17.05c53.777-9.18 107.553-20.985 157.394-52.464 53.777-27.544 85.255-73.45 74.763-139.031v-38.037c0-64.27-56.4-118.046-121.98-118.046-66.893 0-120.67 48.53-127.227 115.422z" style="fill:#000;fill-opacity:1;fill-rule:nonzero;stroke:none;"/>
</svg>
