<svg xmlns="http://www.w3.org/2000/svg" width="1000" height="1000">
  <path d="M73.598 748.24V251.76C214.744 170.823 355.89 88.898 499.998 5 643.12 87.911 784.267 169.835 926.4 251.76v496.48C786.24 829.177 645.093 911.102 500.986 995c-141.147-81.924-283.28-162.861-427.388-246.76zm56.261-31.585c123.38 72.054 245.773 142.134 370.14 214.187 124.366-72.053 246.76-142.133 372.113-214.187v-433.31C748.732 211.291 624.366 141.211 500 69.158c-125.354 72.053-248.734 144.107-370.14 214.187zm190.499-119.432c1.974 65.145 61.196 106.6 126.34 93.769 68.106-15.793 95.743-74.028 75.015-164.835H473.35c-.987 18.753-.987 34.546-1.975 50.339-1.974 39.481-19.74 60.209-50.339 57.248-35.533-2.961-45.403-26.65-45.403-58.236V406.725c0-60.21 5.922-67.119 67.118-76.99 6.91-13.818 15.793-27.636 23.69-43.429-74.029-27.637-143.121 10.858-146.082 82.911a2927.184 2927.184 0 0 0 0 228.006zm154.965-157.926h57.248c0-16.78.987-30.598 0-46.39-.987-31.586 6.91-57.249 44.417-57.249 35.533 0 46.39 24.676 46.39 56.261-.987 56.261 0 111.536 0 168.784 0 59.222-7.896 68.106-67.118 76.002-2.961 5.922-6.91 12.831-10.858 19.74-4.935 7.897-9.87 15.793-16.78 26.65 83.899 29.612 152.992-11.844 155.953-92.781 1.974-71.067.987-143.12 0-216.161-2.961-59.223-47.378-100.678-106.6-100.678-82.912 0-127.328 72.053-102.652 165.822z" style="fill:#000;fill-opacity:1;fill-rule:nonzero;stroke:none;"/>
</svg>
