<svg xmlns="http://www.w3.org/2000/svg" viewBox="0 0 1000 1000"><path d="M500,5C226.6,5,5,226.6,5,500S226.6,995,500,995,995,773.4,995,500,773.4,5,500,5Zm14.8,135h32.5c22.6,15.9,76,67.2,108.9,145.7H514.8ZM650.9,336.1v332H594.6v-332ZM453.5,140h33.2V285.7h-140C356.6,255.7,391.8,184.4,453.5,140Zm-106.8,0H416c-18.8,10.8-80.8,88-96.7,145.7H201Zm1.5,720L201,714.3H315.7c18,43.3,50.6,103,97.4,145.7Zm136.3,0H452c-22.6-15.9-76-67.2-108.9-145.7H484.5ZM401.3,457.5q12.6,11.25,33.3,21.6,12.15,6.15,24.9,14.1a113.4,113.4,0,0,1,23,19.2,92.82,92.82,0,0,1,16.9,26.7q6.6,15.45,6.6,36.6c0,16.3-2.7,30.6-8,43.1a94.88,94.88,0,0,1-20.6,31.9,84,84,0,0,1-30,19.2,102.33,102.33,0,0,1-36.6,6.6,120.67,120.67,0,0,1-51.1-10.8q-23.4-10.8-37.5-27.2l30.5-41.3a77.92,77.92,0,0,0,25.8,20.6,71.32,71.32,0,0,0,31.4,7.5c11.9,0,21.7-4.1,29.5-12.2s11.7-19.5,11.7-34.2q0-21.6-14.1-34.2c-9.4-8.4-21.3-16.3-35.6-23.4a229.29,229.29,0,0,1-25.8-14.5A107.68,107.68,0,0,1,354.5,488,98,98,0,0,1,340,462.2c-3.4-10-5.2-21.9-5.2-35.6,0-17.2,2.7-31.9,8-44.1,5.6-12.5,12.8-22.8,21.6-31a85.6,85.6,0,0,1,30.5-17.8,99.56,99.56,0,0,1,34.2-6.1q25.35,0,45,8.4a85.15,85.15,0,0,1,33.8,23.9l-31,40.3q-18.3-22.05-46-22a43.36,43.36,0,0,0-15.5,2.8,35.71,35.71,0,0,0-13.6,8,41.23,41.23,0,0,0-9.8,14.5,60.71,60.71,0,0,0-3.3,21.1C388.7,438.8,392.9,449.7,401.3,457.5ZM545.8,860H512.6V714.3h140C642.8,744.3,607.6,815.6,545.8,860Zm106.8,0H583.3c18.8-10.8,80.8-88,96.7-145.7H798.3Zm31-574.3c-18-43.3-50.6-103-97.4-145.7h64.9L798.3,285.7Z" fill-rule="evenodd"/></svg>