<svg xmlns="http://www.w3.org/2000/svg" viewBox="0 0 1000 1000"><path d="m551.238 501.026 86.188-148.776c17.442-25.652 54.38-30.782 92.344-30.782h194.948c40.016 0 81.058 21.547 67.72 53.355-191.871 339.62-254.46 454.538-264.72 461.72-5.13 4.105-10.26 9.235-17.443 12.313-9.235 2.052-25.651 9.234-36.938 9.234H404.513c-22.573 0-32.833-31.807-92.344-121.073 0-1.026-205.21-351.934-298.58-515.075-7.182-16.417-12.312-32.834-5.13-51.303 7.183-15.39 26.677-28.729 44.12-28.729h252.408c18.468 0 32.833 6.156 42.067 17.443 12.313 9.234 183.663 310.892 194.95 329.36 4.103 5.13 6.156 8.21 9.234 12.313z"/></svg>