<svg xmlns="http://www.w3.org/2000/svg" width="1000" height="1000">
  <path d="M500.496 5C223.572 5 5 229.506 5 500.002c0 276.43 224.506 495.001 495.002 495.001 276.43 0 495.001-224.506 495.001-495.001C995.003 226.539 773.464 5 500.496 5zM294.781 555.88c-1.978-3.955-2.967-75.164 0-76.153 2.967-2.967 28.682-.99 34.616-.99 0-.988-1.978-193.846-1.978-290.77v-5.933c92.967-1.978 185.934-1.978 279.89-1.978 70.22 0 143.408 54.395 168.133 123.626 21.758 65.275 9.89 137.473-37.582 189.891-20.77 22.747-46.484 40.55-76.155 52.418-21.758 5.934-41.538 9.89-64.285 9.89H401.595c.989 2.967.989 16.813.989 30.66H656.76c4.946 0 1.978 75.164-3.956 75.164-3.956 0-167.143.99-250.22 0V847.64c0 2.967 0 5.934-4.945 5.934h-64.286c-5.934 0-5.934-2.967-5.934-5.934V659.727v.99c0 .988-.99.988-.99.988-20.769 0-28.68.99-30.659-1.978-2.967-1.978-2.967-67.253.99-71.209.988-2.967 22.747-1.978 30.659-1.978v-29.67c-9.89 0-30.66 0-32.638-.99zm105.825-76.153h198.792c15.824 0 28.681-2.967 38.571-7.912 51.429-17.803 82.088-69.231 71.21-122.638-4.946-24.725-14.836-46.484-33.627-64.286-21.759-19.78-46.484-29.67-78.132-29.67H401.595c1.978 130.55-.99 216.594-.99 224.506zm0-224.506h.989zm1.978 406.484v-.989z" style="fill:#000;fill-opacity:1;fill-rule:nonzero;stroke:none;"/>
</svg>
