<?xml version="1.0" encoding="UTF-8"?><svg id="a" xmlns="http://www.w3.org/2000/svg" viewBox="0 0 1000 1000"><path d="m285.872,679.904H35.001v-80.287h250.871v80.287Zm0,12.888H35.001v80.287h250.871v-80.287Zm0-372.696H35.001v80.287h250.871v-80.287Zm0-93.174H35.001v80.287h250.871v-80.287ZM783.814,40.573H35.001v80.287h832.437l-83.624-80.287Zm-41.89,266.635h223.076v-80.287h-267.217c26.208,17.24,43.61,46.699,44.141,80.287ZM35.001,959.427h748.813l97.561-80.287H35.001v80.287ZM285.872,210.821h358.178c8.475,0,16.654,1.189,24.497,3.213h296.452l-83.624-80.286H35.001v80.286h250.871v-3.213Zm339.701,214.381h-339.701v-11.932H35.001v80.287h860.311l69.687-80.287h-288.329c-15.442,7.567-32.74,11.932-51.096,11.932Zm0,374.026h-339.701v-13.263H35.001v80.287h860.311l69.687-80.287h-285.568c-16.115,8.431-34.41,13.263-53.857,13.263Zm71.696-398.846h267.73v-80.287h-223.568c-3.147,32.582-19.76,61.162-44.162,80.287ZM35.001,506.444v80.287h250.871v-1.883h358.178c6.52,0,12.881.669,19.044,1.883h301.905l-69.687-80.287H35.001Zm706.855,173.46h223.143v-80.287h-269.407c27.05,16.798,45.27,46.344,46.264,80.287Zm-42.807,93.174h265.95v-80.287h-223.501c-2.755,32.345-18.675,60.915-42.449,80.287Z"/></svg>