<?xml version="1.0" encoding="utf-8"?>
<!-- Generator: Adobe Illustrator 26.0.1, SVG Export Plug-In . SVG Version: 6.00 Build 0)  -->
<svg version="1.1" xmlns="http://www.w3.org/2000/svg" xmlns:xlink="http://www.w3.org/1999/xlink" x="0px" y="0px"
	 viewBox="0 0 1000 1000" style="enable-background:new 0 0 1000 1000;" xml:space="preserve">
<style type="text/css">
	.st0{fill-rule:evenodd;clip-rule:evenodd;}
</style>
<g id="Layer_1">
</g>
<g id="Layer_3">
</g>
<g id="Layer_2">
	<g>
		<path class="st0" d="M567.1,192.3H432.9c-2.5,0-5,1-6.8,2.8c-1.8,1.8-2.8,4.2-2.8,6.8V375c0,2.5,1,5,2.8,6.8
			c1.8,1.8,4.2,2.8,6.8,2.8h86.3c15.3,0,29.9-6.1,40.7-16.9c10.8-10.8,16.8-25.5,16.8-40.8v-125c0-2.6-1-5-2.8-6.8
			C572.1,193.3,569.7,192.3,567.1,192.3z"/>
		<path class="st0" d="M832.3,22.5C817.9,8.1,798.4,0,778,0H222c-20.3,0-39.9,8.1-54.2,22.5c-14.4,14.4-22.5,34-22.5,54.4v616.9
			c0,11.5,2.6,22.9,7.6,33.3c5,10.4,12.2,19.5,21.2,26.7l290,233.5c10.2,8.2,22.9,12.7,36,12.7c13.1,0,25.8-4.5,36-12.7l290-233.5
			c9-7.2,16.2-16.3,21.2-26.7c5-10.4,7.6-21.8,7.6-33.3V76.9C854.7,56.5,846.7,37,832.3,22.5z M739.8,638.7
			c0,11.5-2.6,22.9-7.6,33.3c-5,10.4-12.2,19.5-21.2,26.7l-118.7,95.6c-1.4,1.1-3.1,1.8-4.9,2c-1.8,0.2-3.6-0.1-5.2-0.9
			c-1.6-0.8-3-2-4-3.5c-1-1.5-1.5-3.3-1.5-5.1V519.3c0-15.3-6.1-30-16.8-40.8c-10.8-10.8-25.4-16.9-40.7-16.9H433
			c-2.5,0-5,1-6.8,2.8c-1.8,1.8-2.8,4.2-2.8,6.8v315.6c0,1.8-0.5,3.6-1.5,5.1c-1,1.5-2.3,2.8-4,3.6c-1.6,0.8-3.5,1.1-5.3,0.9
			c-1.8-0.2-3.5-0.9-4.9-2.1l-118.7-95.6c-9-7.2-16.2-16.3-21.2-26.7c-5-10.4-7.6-21.8-7.6-33.3V192.3c0-20.4,8.1-40,22.5-54.4
			c14.4-14.4,33.9-22.5,54.2-22.5h326c20.3,0,39.9,8.1,54.2,22.5c14.4,14.4,22.5,34,22.5,54.4v153.9c0,20.4-8.1,39.9-22.4,54.3
			c-14.4,14.4-33.8,22.5-54.1,22.6c20.3,0,39.9,8.1,54.2,22.5c14.4,14.4,22.5,34,22.5,54.4V638.7z"/>
	</g>
</g>
</svg>
