<svg xmlns="http://www.w3.org/2000/svg" viewBox="0 0 1000 1000"><path d="M470.883 995h58.235c19.8-2.329 39.6-4.658 59.4-8.152 201.494-36.106 363.388-198 398.33-400.66 3.494-18.635 5.823-38.435 8.153-57.07v-58.235c-2.33-19.8-4.66-39.6-8.153-60.565-34.942-200.33-199.165-363.389-400.66-397.165-19.8-3.494-39.6-5.824-59.4-8.153h-51.247c-22.129 2.33-43.094 4.659-65.223 8.153C214.648 46.929 52.753 205.33 15.482 401c-4.658 19.8-5.823 40.765-9.317 60.565 0 3.494-1.165 5.824-1.165 9.318v58.235c1.165 15.141 3.494 30.282 5.824 46.588 15.14 97.836 55.906 182.86 122.294 256.236 80.365 87.353 179.365 139.764 297 158.4 13.976 1.164 26.788 3.494 40.765 4.659zm-121.13-225.953V226.294H722.46v3.494c-22.13 59.4-44.259 116.471-75.706 170.048-10.482 16.305-22.13 30.282-34.94 44.258-22.13 20.965-54.742 15.142-71.048 3.495-9.318-5.824-17.47-13.977-24.459-20.965-18.635-16.306-31.447-16.306-47.753 2.33-24.459 25.623-38.435 57.07-53.576 89.682-2.33 4.658-5.824 10.482-8.153 17.47H576.87c-5.824 15.141-12.812 27.953-18.635 41.93-1.165 2.329-8.153 4.658-11.647 4.658H396.34v186.353zm46.588-322.623c12.812-16.306 23.295-33.777 36.106-48.918 33.777-38.435 75.706-39.6 112.977-5.823 5.823 4.658 11.647 9.317 16.306 13.976 11.647 8.153 19.8 6.988 27.953-4.659 9.317-12.812 18.635-26.788 25.623-40.764 15.141-29.118 27.953-58.236 41.93-88.518H396.34z"/></svg>