<svg xmlns="http://www.w3.org/2000/svg" viewBox="0 0 1000 1000"><path d="M500.496 995.003c275.935 0 494.507-224.506 494.507-495.496C995.003 226.54 773.464 5 500.496 5 223.572 5 5 229.506 5 499.507c0 276.924 224.506 495.496 495.496 495.496zM58.406 525.221c0-9.89 6.924-16.813 15.825-16.813 9.89 0 16.813 7.912 16.813 16.813 0 8.902-7.912 16.814-16.813 16.814s-15.824-7.912-15.824-16.814zm30.66 144.397c0-9.89 6.923-16.814 15.824-17.803 8.902 0 16.814 7.912 16.814 16.814.989 8.9-6.923 15.824-15.825 16.813-8.9 0-16.813-6.923-16.813-15.824zm25.715-145.386c0-7.912 6.923-14.835 16.813-15.824h433.188c14.835 0 22.747 5.934 22.747 15.824 0 10.88-7.912 17.803-22.747 17.803H130.605c-8.901-.99-15.824-8.901-15.824-17.803zm31.648 144.397c0-8.902 4.945-14.836 13.846-15.825 2.967-.989 5.934-.989 8.901-.989h200.77c14.835 0 22.748 12.858 16.814 23.737-3.957 6.923-9.89 9.89-16.814 9.89h-199.78c-3.957 0-6.924 0-10.88-.99-7.912-.988-12.857-7.911-12.857-15.823zm33.627-72.198c0-8.902 7.912-15.825 16.813-15.825 8.9 0 16.813 7.912 15.824 16.814 0 8.9-6.923 15.824-15.824 15.824-9.89 0-16.813-6.923-16.813-16.813zm0-143.408c.989-9.89 7.912-15.824 16.813-15.824 9.89 0 16.813 7.912 15.824 16.813 0 8.902-7.912 15.825-16.813 15.825s-15.824-7.912-15.824-16.814zm57.362 143.408c0-8.902 5.934-14.836 15.825-15.825h532.09c8.9.99 15.824 7.912 15.824 16.814-.99 7.912-6.924 14.835-15.825 15.824h-532.09c-9.89-.99-15.824-7.912-15.824-16.813zm.99-147.364c1.977-4.945 6.922-8.9 11.868-11.868 2.967-.989 7.912 0 11.868 0H857.53c6.923.99 12.858 6.923 13.847 14.835 0 7.913-3.957 14.836-11.869 16.814-2.967.989-6.923.989-9.89.989h-591.43c-4.945 0-10.88-1.978-15.825-3.956-5.934-3.956-6.923-10.88-3.956-16.814zm50.44 352.09c6.922-6.924 17.801-6.924 23.735 0 6.924 7.912 5.935 18.79-1.978 24.725-1.978.989-3.956 1.978-5.934 3.956h-6.923c-1.978-1.978-4.945-2.967-6.923-4.945-7.912-5.934-8.901-16.813-1.978-23.737zm4.944-434.178c2.967-56.374 21.758-107.802 57.363-151.319 47.473-59.34 110.77-91.978 186.924-96.923 81.099-4.945 150.33 22.747 205.715 81.099 42.527 44.505 65.275 97.912 70.22 159.231 0 5.934.989 11.868.989 17.802 0 8.901-4.945 13.847-13.846 14.836H317.529c-21.759 0-24.726-2.967-23.737-24.726zm47.473 441.1c2.967-7.912 8.901-12.857 19.78-12.857h261.1c3.956 0 6.923 0 10.88.99 5.933 1.977 9.89 5.934 10.878 12.857 1.978 5.934 0 11.868-5.934 15.824-1.978 1.978-3.956 2.967-6.923 4.945H355.111c-.989-.99-1.978-1.978-2.967-1.978-8.901-5.934-12.857-11.868-10.88-19.78zm78.132-139.45c0-7.913 4.945-13.847 12.857-15.825 2.967-.989 5.934-.989 9.89-.989H869.4c9.89 0 17.802 2.967 22.747 11.868v9.89c-4.945 8.902-12.857 11.869-22.747 11.869H441.155c-2.967 0-5.934 0-8.9-.99-7.913-.988-13.847-8.9-12.858-15.823zm30.66 71.209c0-8.902 7.912-15.825 16.813-15.825 8.9 0 15.824 7.912 15.824 15.825.989 8.9-6.923 16.813-15.824 16.813-9.89 0-16.814-6.923-16.814-16.813zm56.373.989c0-10.88 7.912-16.814 20.77-16.814h268.022c8.902.99 14.836 7.912 14.836 16.814 0 7.912-5.934 14.835-13.847 15.824H527.2c-12.858 0-20.77-5.934-20.77-15.824z"/></svg>