<svg xmlns="http://www.w3.org/2000/svg" width="1000" height="1000">
  <path d="M500.496 5c272.968 0 494.507 221.54 494.507 495.002 0 270.495-218.572 495.001-495.001 495.001C229.506 995.003 5 776.431 5 500.002 5 229.506 223.572 5 500.496 5zM195.88 222.583c7.912 8.901 7.912 17.802 14.835 22.747 72.198 109.781 144.396 214.617 213.627 324.397 7.912 9.89 14.835 28.682 14.835 41.539v233.407h103.847c19.78 0 19.78 0 19.78-23.736 0-72.198-1.978-140.44 2.967-213.627 0-14.836 1.978-27.693 13.846-42.528 74.176-104.835 142.418-209.671 211.65-315.495l17.802-26.704H676.54c-7.912-1.978-59.341 66.264-86.045 113.737-27.692 42.527-56.373 88.022-88.022 133.517-36.593-64.286-82.088-119.671-113.736-183.957-26.704-49.45-31.649-63.297-41.54-63.297-23.735-1.978-124.615 0-151.318 0z" style="fill:#000;fill-opacity:1;fill-rule:nonzero;stroke:none;"/>
</svg>
