<svg xmlns="http://www.w3.org/2000/svg" width="1000" height="1000">
  <path d="M454.505 399.013c6.066 7.582 6.066 7.582 6.066 13.649C314.986 605.258 172.434 796.338 17.75 995h39.43c131.936-9.099 262.356-22.747 397.325-22.747 124.353-9.1 248.707 0 376.094 7.582 19.714 0 34.88-7.582 42.462-28.813 15.165-125.87 36.396-242.642 57.627-360.93 0-15.164 7.583-27.296 7.583-43.978C821.5 632.555 703.212 684.116 571.276 699.281c0-6.066-7.583-6.066-7.583-15.165 139.519-204.728 269.939-410.973 418.556-624.8h-34.88c-133.452 0-266.905 7.582-397.324 0-104.64 0-200.18-7.583-294.203-50.045C227.03 1.688 210.347 1.688 196.7 30.5 114.807 177.604 76.894 332.288 63.246 494.554v37.913c116.771-97.057 251.74-133.453 391.259-133.453z" style="fill:#000;fill-opacity:1;fill-rule:nonzero;stroke:none;"/>
</svg>
