<svg xmlns="http://www.w3.org/2000/svg" viewBox="0 0 1000 1000"><path d="M749.728 72.253C824.2 116.462 883.54 175.803 927.75 250.276c44.803 77.143 67.253 160.418 67.253 249.726 0 89.308-22.45 172.583-67.253 249.726C883.541 824.2 824.2 883.54 749.728 927.75c-77.143 44.803-160.418 67.253-249.726 67.253-89.308 0-172.583-22.45-249.726-67.253-74.473-44.209-133.814-103.55-178.023-178.022C27.451 672.585 5 589.31 5 500.002c0-89.308 22.45-172.583 67.253-249.726 44.209-74.473 103.55-133.814 178.023-178.023C327.419 27.45 410.793 5 500.496 5c89.011 0 172.089 22.45 249.232 67.253zM230.495 539.068c0 30.956 7.616 59.34 22.748 85.055 15.132 25.714 35.604 46.187 61.318 61.319 25.715 15.132 53.704 22.747 84.067 22.747h133.517l-90.99-79.121h-42.527c-24.429 0-45.297-8.703-62.803-26.209-17.505-17.505-26.209-38.571-26.209-63.297 0-24.725 8.704-45.791 26.21-63.297 17.505-17.505 38.373-26.209 62.802-26.209h133.517L350.166 291.814h-119.67l104.835 90.99c-30.956 13.153-56.176 33.923-75.66 62.307-19.483 28.385-29.176 59.638-29.176 93.957zm237.364 11.868 181.978 157.253h119.671L664.673 617.2c30.956-12.56 56.176-32.933 75.66-61.318 19.483-28.385 29.175-60.033 29.175-94.945 0-30.957-7.615-59.341-22.747-85.056-15.132-25.714-35.605-46.187-61.32-61.319-25.714-15.131-53.703-22.747-84.065-22.747H467.859l90.989 79.121h42.528c24.428 0 45.296 8.704 62.802 26.21 17.506 17.505 26.209 38.57 26.209 63.296 0 24.725-8.703 45.99-26.209 63.791-17.506 17.803-38.374 26.704-62.802 26.704z"/></svg>