<svg xmlns="http://www.w3.org/2000/svg" width="1000" height="1000">
  <path d="M5 500.496c0 271.98 220.55 494.507 495.496 494.507 271.98 0 494.507-220.55 494.507-495.496C995.003 227.528 773.464 5 500.496 5 226.54 5 5 225.55 5 500.496zM142.473 646.87l31.648-69.23 43.517 7.911c14.835 2.967 17.802 0 25.714-7.912l61.32-270c0-9.89 0-18.792-29.671-30.66l-39.56-9.89 20.769-59.341c-.99 0 118.681 30.66 118.681 29.67l21.759-100.88 61.319 8.902-21.759 100.88c7.912 0 29.67 11.868 37.583 11.868l31.648-98.902 47.473 16.813-17.802 100.88c79.12 20.77 130.55 60.33 117.692 129.56-7.912 48.462-38.571 79.122-78.132 92.968 61.32 29.67 78.132 69.231 61.32 139.451-31.65 86.044-108.792 98.902-209.672 77.143l-22.747 100.88-59.341-22.748 21.758-86.044c-9.89-12.857-31.648-12.857-52.418-12.857l-16.813 90.99-61.319-8.902 19.78-96.923c-13.846-2.967-21.758-4.945-37.582-11.868zm191.869-29.67 40.55-131.54c39.56 13.847 160.22 30.66 138.461 112.749-7.912 70.22-138.462 27.692-179.011 18.79zm48.461-179.012 31.649-122.638c29.67 13.847 138.462 21.759 120.66 90.99-7.912 71.209-120.66 31.648-152.309 31.648zm258.133 271.98c3.956-11.869 10.88-22.748 14.835-27.693l14.836 8.9c-3.956 4.946-8.901 11.87-12.858 24.726-7.912 26.704 7.913 47.473 32.638 54.396 26.703 8.901 49.45-3.956 57.363-27.692 2.967-12.858 1.978-20.77 1.978-27.693l15.824.99c1.978 5.933 1.978 19.78-1.978 35.604-10.88 35.604-41.539 52.418-79.121 40.55-36.594-9.89-55.385-42.528-43.517-82.089zm30.66-102.858c9.89-34.616 40.55-50.44 78.132-40.55 44.505 13.846 53.407 49.45 45.494 79.121-8.9 31.649-40.55 49.451-78.132 38.572-39.56-11.868-55.384-44.506-45.494-77.143zm15.824 4.945c-7.912 25.714 12.857 43.516 34.615 50.44 26.704 7.912 50.44-2.968 57.363-22.748 5.934-20.77-9.89-41.538-35.604-50.44-20.77-4.945-49.451-2.967-56.374 22.748zm10.879-88.023 4.945-18.79 24.725 4.944-.989-.989c-13.846-8.9-19.78-25.714-14.835-39.56 0-2.967.99-4.945.99-5.934l22.747 5.934c-1.978 1.978-3.956 3.956-4.946 6.923-3.956 14.835 4.946 28.681 19.78 37.582 2.968.99 6.924 1.978 9.89 3.956l63.298 17.803-5.934 20.769-82.088-23.736c-13.847-2.967-26.704-6.923-37.583-8.902zm34.616-126.593c11.868-39.56 48.461-39.56 71.209-33.627 3.956 1.978 5.934 2.967 8.9 3.956l-23.736 84.066c29.67 7.913 46.484-6.923 52.418-29.67 4.945-14.835 4.945-24.725 3.956-34.615l15.824.989c1.978 8.9 1.978 22.747-3.956 43.516-10.879 34.616-41.538 50.44-77.143 39.56-35.604-10.878-58.352-39.56-47.472-74.175zm15.824 4.945c-6.923 22.747 9.89 38.571 24.725 43.516l17.802-62.308c-13.846-4.945-36.593-4.945-42.527 18.792z" style="fill:#000;fill-opacity:1;fill-rule:nonzero;stroke:none;"/>
</svg>
