<svg xmlns="http://www.w3.org/2000/svg" viewBox="0 0 1000 1000"><path d="M496.078 931.482H99.216c-33.982 0-53.4-13.35-72.819-38.837-46.118-60.682-7.282-101.946 19.419-148.064 88.596-148.065 167.482-288.848 256.079-429.63 40.05-75.247 81.314-148.065 127.432-217.243 18.205-35.196 128.647-42.478 148.065 0 67.964 115.296 134.714 236.66 202.678 351.957C846.82 561.32 916 683.898 987.604 804.049c12.136 19.418 7.281 35.196 0 61.896-26.7 52.187-48.546 65.537-121.365 65.537-128.646-6.068-248.797 0-370.161 0zM275.194 737.299h449.049c-71.605-127.433-146.851-254.866-228.165-389.58-72.819 134.714-148.065 262.147-220.884 389.58z"/></svg>