<svg xmlns="http://www.w3.org/2000/svg" viewBox="0 0 1000 1000"><path d="M500.496 995.003c275.935 0 494.507-224.506 494.507-495.496C995.003 226.54 773.464 5 500.496 5 223.572 5 5 229.506 5 499.507c0 276.924 224.506 495.496 495.496 495.496zm-357.034-721.98c3.956 0 7.912-.99 10.88-.99h92.966c8.902 0 11.869 1.979 14.836 10.88 21.758 75.165 44.505 150.33 66.264 226.484 7.912 21.759 14.835 44.506 21.758 69.231 10.88-23.736 19.78-45.494 29.67-67.253 10.88-24.725 20.77-49.45 31.649-73.187 15.824-35.604 44.506-54.396 84.066-54.396 37.583.99 65.275 20.77 80.11 55.385 19.78 45.495 37.583 91.979 58.352 139.451 7.912-22.747 13.846-42.527 19.78-62.308.99-2.967 5.934-5.934 8.902-5.934 34.615-.989 69.23-.989 104.835-.989.99 0 1.978.99 3.956 1.978-7.912 24.726-14.835 49.451-22.747 75.165L707.2 720.057c-6.923 21.759-20.77 31.649-42.527 31.649h-59.341c-19.78 0-33.627-9.89-40.55-28.682-21.758-50.44-42.528-102.857-64.286-155.275-1.978-4.945-3.956-10.879-7.912-17.802-12.857 32.637-25.714 63.297-37.582 93.956-10.88 27.693-21.759 54.396-32.638 82.088-6.923 16.814-20.77 25.715-39.56 25.715h-59.341c-23.737 0-38.572-9.89-44.506-33.627-17.802-55.385-33.627-109.78-51.429-165.165-27.692-90.99-54.396-181.979-83.077-271.979 0-2.967-.989-4.945-.989-7.912zm530.112 178.022c6.923-22.747 12.857-43.516 19.78-64.286 9.89-34.615 20.77-69.23 31.648-104.835 1.978-6.923 4.945-9.89 12.858-9.89h107.802c-6.923 22.747-12.857 43.516-19.78 65.275-10.88 33.626-21.758 67.253-31.649 100.88-2.967 9.89-6.923 12.856-17.802 12.856-28.681-.989-59.34 0-90 0z"/></svg>