<?xml version="1.0" encoding="utf-8"?>
<!-- Generator: Adobe Illustrator 26.0.1, SVG Export Plug-In . SVG Version: 6.00 Build 0)  -->
<svg version="1.1" id="Layer_1" xmlns="http://www.w3.org/2000/svg" xmlns:xlink="http://www.w3.org/1999/xlink" x="0px" y="0px"
	 viewBox="0 0 1000 1000" style="enable-background:new 0 0 1000 1000;" xml:space="preserve">
<style type="text/css">
	.st0{fill-rule:evenodd;clip-rule:evenodd;}
</style>
<path class="st0" d="M385.9,7.6h-94.7L91.8,206.9h161.8C275.3,128,360.2,22.4,385.9,7.6z M908.8,206.9L707.5,7.6h-88.8
	C682.7,66,727.3,147.7,752,206.9H908.8z M91.8,793.1l201.3,199.3h88.8C318,934,273.4,852.3,248.7,793.1H91.8z M565.4,7.6H521v199.3
	h193.4C669.5,99.6,596.4,29.3,565.4,7.6z M482.6,206.9V7.6h-45.4c-84.5,60.8-132.6,158.2-146,199.3L482.6,206.9L482.6,206.9z
	 M518.1,793.1v199.3h45.4c84.5-60.8,132.6-158.2,146-199.3H518.1z M435.2,992.4h44.4V793.1H286.2
	C331.2,900.4,404.3,970.7,435.2,992.4z M614.8,992.4h94.7l199.3-199.3H747C725.3,872,640.4,977.6,614.8,992.4z M185.9,319.8H257
	l99.2,368.1h-63.6L272,610.8H170.9l-20.5,77.1H86.7L185.9,319.8z M257,555.2l-10-37.1c-13.4-49.1-21.9-88.8-25.5-119.2
	c-3.7,30.4-12.2,70.1-25.5,119.2l-10,37.1H257z M475.1,688.4c-11.5-2.3-22.3-6.7-32.3-13c-10-6.3-18.5-14.4-25.3-24
	c-6.8-9.7-11.6-20.3-14.3-31.8c-2.7-11.5-4-23.1-4-34.8V319.8h61.6v264.9c0,6.7,0.9,13.3,2.8,19.8c1.8,6.5,5.1,12.4,9.8,17.5
	c4.7,5.2,10.3,8.9,16.8,11c6.5,2.2,13.1,3.3,19.8,3.3c6.7,0,13.3-1.1,19.8-3.3c6.5-2.2,12.1-5.8,16.8-11c4.7-5.2,7.9-11,9.8-17.5
	c1.8-6.5,2.8-13.1,2.8-19.8V319.8h61.6v264.9c0,11.7-1.3,23.3-4,34.8c-2.7,11.5-7.4,22.1-14.3,31.8c-6.8,9.7-15.3,17.7-25.3,24
	c-10,6.3-20.8,10.7-32.3,13c-11.5,2.3-23.1,3.5-34.8,3.5C498.2,691.9,486.6,690.7,475.1,688.4z M695.7,319.8h110.2
	c11,0,22,0.9,32.8,2.8c10.8,1.8,21.3,5.2,31.3,10c10,4.8,18.8,11.4,26.3,19.5c7.5,8.2,12.8,17.6,16,28.3c3.2,10.7,4.8,21.4,4.8,32.1
	v44.1c0,10.7-1.6,21.4-4.8,32.1c-3.2,10.7-8.5,20.1-16,28.3c-7.5,8.2-16.3,14.7-26.3,19.5c-10,4.8-20.5,8.2-31.3,10
	c-10.9,1.8-21.8,2.8-32.8,2.8h-48.1v138.7h-62.1V319.8z M805.9,493.6c6,0,11.8-0.6,17.5-1.8c5.7-1.2,11.1-3.3,16.3-6.3
	c5.2-3,9.1-7.2,11.8-12.5c2.7-5.3,4-10.8,4-16.5v-44.1c0-5.7-1.3-11.2-4-16.5c-2.7-5.3-6.6-9.5-11.8-12.5c-5.2-3-10.6-5.1-16.3-6.3
	c-5.7-1.2-11.5-1.8-17.5-1.8h-48.1v118.2H805.9z"/>
</svg>
