<svg xmlns="http://www.w3.org/2000/svg" width="1000" height="1000">
  <path d="M492.594 6.852c49.376 76.533 93.815 158.005 140.723 240.71 25.923-16.047 56.783-30.86 81.471-44.438 22.22-16.048 22.22-16.048 37.033 6.172 29.626 56.783 58.017 107.394 92.58 162.942 4.938 11.11 4.938 18.517 0 29.626-18.515 25.923-34.563 51.846-51.845 77.768-7.406 9.876-3.703 18.517 0 29.626C859.215 622.825 922.17 733.922 987.594 845.02c0 7.407 4.938 12.344 7.406 22.22H734.54c-14.813 0-23.454 3.703-23.454 20.985 3.703 30.86 0 58.017 0 86.409 3.703 14.813-3.703 18.516-18.516 18.516H497.53c-12.344 0-18.516-3.703-22.22-14.813l-56.782-99.988c-3.704-7.406-14.813-16.047-22.22-16.047-102.456 0-208.616 4.938-312.307 4.938H5c3.703-7.407 8.64-14.813 8.64-18.516 40.736-70.362 76.534-137.02 116.036-204.913 8.64-13.579 8.64-20.985-4.938-27.157-30.86-16.048-59.252-33.33-93.816-51.846 8.641-11.11 12.345-22.22 18.517-33.33 29.626-48.141 60.486-96.283 88.877-148.129 7.407-11.11 14.813-14.813 30.86-14.813h98.754c7.407 0 18.516-3.703 20.985-11.11 67.893-114.8 129.614-232.07 196.272-346.87V6.852zm-391.31 517.22c3.703 0 3.703 3.703 8.64 3.703h415.999c3.703 0 11.11-3.704 16.047-7.407 20.985-37.032 44.439-74.065 65.424-111.097-7.406-3.703-11.11-3.703-14.813-3.703-135.786 0-272.806 3.703-409.826 3.703-8.64 0-18.516 7.406-22.22 16.047-17.28 24.689-32.094 54.314-50.61 83.94 0 3.704-4.938 11.11-8.641 14.813zm71.596 248.117h187.631c-32.095-60.487-62.955-114.8-92.581-174.053-33.33 59.252-66.658 113.566-95.05 174.053zm120.973-207.382c3.703 7.407 3.703 11.11 8.64 13.579C367.919 701.827 434.577 822.8 501.235 941.304c0 7.406 9.876 11.11 17.282 14.813H625.91c7.407 0 11.11-3.704 19.75-3.704-8.64-11.11-12.343-19.75-14.812-24.688-60.486-104.925-123.442-203.678-177.756-307.37-22.22-44.438-44.439-62.954-92.58-55.548-22.22 3.703-40.737 0-66.66 0zm98.753-196.272H592.58c-32.095-58.017-66.658-114.8-99.987-172.818-32.095 58.018-65.424 114.8-99.988 172.818zm125.91 276.51c0 22.219 18.516 44.438 29.626 64.189 12.344 18.516 19.75 33.329 29.626 50.61 3.703-9.875 8.641-14.812 12.344-17.281C656.771 630.23 720.96 520.368 792.556 409.27c12.344-18.516 12.344-28.392 0-48.142-14.813-19.751-22.22-40.736-32.094-59.252-8.641-9.876-16.048-22.22-23.454-35.798-7.407 9.875-11.11 13.578-11.11 18.516-59.252 98.753-118.504 198.74-177.756 298.728-11.11 20.985-29.626 44.44-29.626 61.721zm96.285 123.44h218.491c-37.032-59.251-70.362-114.8-107.394-177.755C690.1 653.685 651.833 709.234 614.8 768.486z" style="fill:#000;fill-opacity:1;fill-rule:nonzero;stroke:none;"/>
</svg>
