<svg xmlns="http://www.w3.org/2000/svg" viewBox="0 0 1000 1000"><path d="M749.728 72.253C824.2 116.462 883.54 175.803 927.75 250.276c44.803 77.143 67.253 160.418 67.253 249.726 0 89.308-22.45 172.583-67.253 249.726C883.541 824.2 824.2 883.54 749.728 927.75c-77.143 44.803-160.418 67.253-249.726 67.253-89.308 0-172.583-22.45-249.726-67.253-74.473-44.209-133.814-103.55-178.023-178.022C27.451 672.585 5 589.31 5 500.002c0-89.308 22.45-172.583 67.253-249.726 44.209-74.473 103.55-133.814 178.023-178.023C327.419 27.45 410.496 5 499.507 5c89.704 0 173.078 22.45 250.22 67.253zm-481.65 417.364c0 52.121 13.846 93.66 41.538 124.616 19.78 22.45 46.484 38.571 80.11 48.461 19.089 5.242 38.572 7.913 58.352 7.913v33.626H386.76v45.495h61.318v52.418h100.88v-52.418h64.286v-45.495h-64.286v-33.626c30.363 0 58.352-5.242 84.066-15.825 29.67-12.56 52.715-30.66 69.231-54.395 19.088-27.693 28.681-61.616 28.681-101.869V279.946h-99.89V496.54c0 21.758-4.253 39.857-12.857 54.396-6.627 11.868-15.824 21.066-27.693 27.692-8.604 3.956-18.098 6.923-28.68 8.901h-12.858V279.946h-100.88v307.583l-11.868-.989c-9.89-1.978-19.088-5.241-27.692-9.89-11.868-6.626-21.066-15.527-27.693-26.703-7.912-13.846-11.868-31.352-11.868-52.418V279.946h-100.88z"/></svg>