<svg xmlns="http://www.w3.org/2000/svg" viewBox="0 0 1000 1000"><path d="M5 500.496C5 225.55 226.54 5 500.496 5c272.968 0 494.507 222.528 494.507 494.507 0 274.946-222.528 495.496-494.507 495.496C225.55 995.003 5 772.475 5 500.496zm172.088 171.1c26.704-29.67 49.451-59.341 79.122-84.067 50.44-54.395 89.01-57.362 147.363-12.857 11.868-11.868 23.736-20.77 35.604-32.637-23.736-26.704-41.538-47.473-59.34-71.21-28.682-43.516-70.22-40.549-99.891 2.968-23.736 32.637-56.374 62.308-88.022 97.912-26.704-156.264 37.582-291.76 164.176-357.034 128.572-67.253 281.87-42.528 381.76 62.308 76.154 82.088 111.758 217.583 70.22 294.726-46.484-53.407-90.99-100.88-132.528-153.297-25.715-32.638-70.22-32.638-93.957 0-17.802 26.703-35.604 52.418-60.33 73.187-90.989 95.934-181.978 186.924-276.924 277.913 147.364 144.396 375.826 141.43 523.189 2.967 144.396-139.45 154.286-371.87 20.77-525.167C654.781 95.99 424.341 78.187 268.077 204.781 105.879 332.364 94.01 556.87 177.088 671.596zm141.43 88.022c32.637-24.725 64.285-48.462 90.989-75.165 57.363-54.396 111.758-109.78 169.121-166.155 26.704-26.703 73.187-26.703 99.89 0 41.54 35.605 80.11 75.165 115.715 108.792-71.209 180.99-297.693 246.265-475.715 132.528zm11.868-244.287c-26.704-.989-23.737-44.505 0-44.505 37.582 0 37.582 44.505 0 44.505zM626.1 470.826c-34.616-10.88-17.802-50.44 5.934-46.484 34.616 11.868 20.77 52.418-5.934 46.484z"/></svg>