<svg xmlns="http://www.w3.org/2000/svg" viewBox="0 0 1000 1000"><path d="M5 500.496C5 225.55 226.54 5 500.496 5c272.968 0 494.507 222.528 494.507 494.507 0 274.946-222.528 495.496-494.507 495.496C225.55 995.003 5 772.475 5 500.496zm258.133 344.177c113.736-100.88 211.649-219.561 326.374-329.342 27.693 32.638 55.385 61.32 89.012 89.012 27.692 32.637 54.396 65.275 90.99 93.956 0-11.868 4.944-15.824 4.944-24.725 0-145.385 0-292.749-4.945-439.123v-4.945c-3.956 0-3.956 0-10.88-2.967-68.241 76.154-146.373 154.286-222.527 235.386-45.495-48.462-90-92.968-134.506-138.462-44.506-48.462-90-93.957-138.462-136.484-8.901 39.56-8.901 617.145 0 657.694z"/></svg>