<svg xmlns="http://www.w3.org/2000/svg" viewBox="0 0 1000 1000"><path d="M500.496 995.003c275.935 0 494.507-224.506 494.507-495.496C995.003 226.54 773.464 5 500.496 5 223.572 5 5 229.506 5 499.507c0 276.924 224.506 495.496 495.496 495.496zM343.243 350.166c0-52.418 14.835-101.869 40.55-147.363 12.857-24.726 33.626-41.539 59.34-51.429 38.572-15.824 79.121-19.78 120.66-8.901 47.473 11.868 76.154 43.517 94.945 88.022 22.748 50.44 28.682 102.858 28.682 157.254-2.967 70.22-1.978 140.44-.99 211.649 0 30.659-13.845 57.362-25.714 85.055-19.78 46.483-39.56 91.978-61.318 136.484-5.934 13.846-13.847 24.725-20.77 37.582-.989 0-1.978-.989-3.956-.989v-55.384c0-61.32 1.978-122.638-.989-183.957-2.967-42.528-11.868-85.055-18.791-127.583-.99-8.901 0-12.857 7.912-15.824 19.78-6.923 39.56-16.813 58.352-24.726 29.67-13.846 41.539-35.604 33.626-68.242-9.89 4.945-20.769 9.89-31.648 13.847-18.791 6.923-37.583 14.835-56.374 22.747-20.77 7.912-25.714 17.802-23.736 39.56 2.967 22.748 5.934 45.495 7.912 69.232 1.978 16.813-4.945 29.67-18.791 41.538-12.858 11.868-24.726 10.88-37.583-1.978-14.835-17.802-15.824-37.582-12.857-58.352 2.967-19.78 5.934-40.55 7.912-60.33 0-10.879-4.945-19.78-14.835-23.736-32.638-13.846-65.275-27.692-98.902-41.539-9.89 21.759 1.978 51.43 27.693 64.286 17.802 8.902 35.604 15.825 52.418 23.737 20.769 9.89 20.769 9.89 15.824 31.648-15.824 68.242-17.803 137.473-16.813 207.693.989 46.484 2.967 92.968 3.956 139.451 0 3.956-1.978 6.923-2.967 9.89-2.968-1.978-6.924-3.956-8.902-5.934-10.879-23.736-21.758-46.483-32.637-69.23-19.78-46.484-41.539-91.98-61.319-138.463-4.945-14.835-8.901-31.648-8.901-46.483-.99-83.078-.99-165.166-.99-249.232z"/></svg>