<svg xmlns="http://www.w3.org/2000/svg" viewBox="0 0 1000 1000"><path d="M501.522 5v243.008c-137.576 15.43-225.007 83.574-248.151 221.15-16.715 110.575 45.001 207.007 135.004 254.58 90.003 43.716 221.15 30.858 300.868-63.002 64.287 50.144 127.29 105.432 190.292 156.862-12.858 12.858-23.144 27.001-33.43 37.287-77.146 73.288-168.434 120.861-273.866 135.005-259.723 37.287-496.302-133.72-554.162-379.3-60.43-264.865 104.147-532.303 370.298-594.02 23.144-5.142 48.86-7.714 74.574-10.285 1.286 0 2.572-1.286 5.143-1.286zM659.67 308.439c54.002-61.717 104.146-124.719 160.72-191.578 23.143 21.858 42.43 42.43 64.288 64.288C819.104 235.15 754.816 286.58 693.1 340.582c-10.286-11.571-20.572-21.857-33.43-32.143zm55.288 316.296c5.143-14.144 11.571-24.43 19.286-39.859 75.86 28.287 154.29 56.574 234.008 84.86-15.43 28.287-28.287 54.002-38.573 81.003-73.288-43.716-145.29-84.86-214.721-126.004zM744.53 456.3c79.717-15.43 160.72-28.287 244.294-42.43 1.286 16.714 5.143 34.715 5.143 50.144v27.001c1.286 7.715 0 7.715-6.429 7.715h-239.15c0-12.858-1.286-25.716-3.858-42.43z"/></svg>