<svg xmlns="http://www.w3.org/2000/svg" width="1000" height="1000">
  <path d="M818.302 464.904C748.106 406.811 676.7 343.877 590.771 277.312c85.93-76.248 152.494-134.34 219.06-196.065C774.731 44.94 751.736 18.313 739.633 5c-94.4 88.35-192.433 182.751-290.465 280.784l290.465 262.629c16.944-13.313 39.94-38.729 78.668-83.509zM181.698 535.1c76.248 62.934 139.182 113.766 229.952 190.013-73.826 71.406-145.233 135.55-211.798 193.644 30.257 35.098 53.252 58.093 70.196 76.247 99.243-94.401 192.434-182.751 295.307-275.942C462.482 628.29 364.45 539.94 270.048 460.063c-12.102 8.472-39.939 35.098-88.35 75.037zm134.34-123.448c96.823 88.35 194.855 173.07 297.728 267.47 13.313-14.523 39.939-45.99 71.406-72.616-98.032-93.191-196.064-182.751-294.096-275.942-16.944 18.154-44.78 43.57-75.037 81.088z" style="fill:#000;fill-opacity:1;fill-rule:nonzero;stroke:none;"/>
</svg>
