<svg xmlns="http://www.w3.org/2000/svg" width="1000" height="1000">
  <path d="M62.558 680.064H184.07c1.279-7.674 1.279-15.348 2.558-21.744 7.674-43.488 12.79-86.976 24.302-127.906 17.907-60.117 49.884-112.558 101.046-152.21 42.21-31.976 92.093-48.604 144.535-53.72 70.348-5.116 138.139 3.837 200.813 38.372 93.372 52.442 136.86 138.14 150.93 240.464 3.837 25.582 3.837 51.163 6.395 75.465h120.233c-2.559-31.976-2.559-62.674-6.396-93.372-2.558-25.58-7.674-51.162-14.07-76.744-33.255-131.743-106.162-232.79-234.069-287.79-24.302-11.511-49.883-17.906-70.348-25.58 3.837-25.582 10.232-49.884 10.232-74.187 0-28.14-23.023-38.372-46.046-23.023-3.837 2.558-7.675 6.395-12.79 10.233-1.28-7.675-1.28-14.07-3.838-20.465-6.395-17.907-10.233-35.814-20.465-51.163-14.07-20.465-40.93-20.465-55 0-10.232 15.349-15.349 34.535-21.744 52.442-1.28 7.674-1.28 15.348-2.558 23.023-8.954-6.395-15.349-11.512-23.023-16.628-21.744-11.512-38.372-3.837-43.489 20.465-2.558 7.674-3.837 16.628-1.279 24.302 5.117 17.907 11.512 34.535 17.907 52.442l-1.279 1.28c-2.558 1.278-6.395 1.278-8.953 2.557-103.605 20.465-185.465 74.186-243.023 163.72-42.21 62.675-65.232 133.024-78.023 207.21-5.116 37.092-8.953 74.185-14.07 112.557zM5 978.087c33.256 0 63.954 1.279 95.93 0 60.116 0 108.72-40.93 118.953-102.325 8.954-57.558-25.58-116.396-81.86-133.023C94.535 728.669 49.768 738.9 5 736.343zm58.837-190.581c20.465 1.279 39.651 0 55 5.116 31.977 10.233 47.326 52.442 35.814 89.535-11.512 34.535-47.325 53.72-83.14 43.488-2.557-1.279-6.395-6.395-6.395-8.953-1.279-42.21-1.279-83.14-1.279-129.186zm179.07 70.349c0 67.79 52.441 121.51 121.511 120.232 69.07 0 121.511-52.442 121.511-121.511-1.279-69.07-53.72-121.512-122.79-121.512-67.79 1.28-121.511 53.721-120.232 122.79zm60.116-1.28c1.279-39.65 26.86-67.79 61.395-67.79 33.256 0 60.116 29.419 60.116 67.79 0 38.373-25.581 69.07-61.395 67.791-34.535 0-60.116-29.418-60.116-67.79zm85.697-291.627c0 14.07 8.954 23.024 23.023 23.024 14.07 0 23.024-8.954 24.303-23.024v-61.395c-1.28-12.79-8.954-21.744-23.024-23.023-15.348 0-24.302 8.953-24.302 21.744-1.279 21.744-1.279 42.21 0 62.674zm129.186 413.139c33.256 0 65.232 1.279 97.209 0 61.395 0 111.279-44.767 117.674-104.884 7.675-63.953-30.697-122.79-92.093-133.023-35.814-6.395-72.906-3.837-110-5.116-3.837 0-8.953 1.28-12.79 1.28zm52.442-414.418c0 15.35 11.511 24.303 24.302 24.303 14.07-1.28 21.744-10.233 23.023-23.024 1.28-10.232 0-21.744 0-31.976v-28.14c-1.279-14.07-10.232-24.302-23.023-24.302-14.07 0-24.302 10.233-24.302 24.302-1.28 19.186-1.28 39.651 0 58.837zm7.674 349.185c-1.279-19.186 0-37.092 0-56.278s-1.279-37.093 0-56.28c0-3.837 5.116-11.511 8.954-11.511 26.86-1.279 53.72-2.558 70.348 24.302 17.907 25.582 19.186 53.721 5.116 80.581-12.79 26.86-53.72 42.21-79.302 30.698-2.558-1.279-5.116-7.674-5.116-11.512zm173.953-56.278c0 69.07 52.442 121.51 121.511 121.51 67.79 1.28 121.512-52.44 121.512-120.231 0-69.07-52.442-122.79-120.233-122.79-69.07 0-122.79 52.44-122.79 121.51zm61.395 2.558c-1.279-39.651 24.303-69.07 60.116-70.349 34.535 0 60.117 29.419 60.117 69.07 0 38.372-25.582 66.511-60.117 66.511-34.534 1.28-60.116-26.86-60.116-65.232z" style="fill:#000;fill-opacity:1;fill-rule:nonzero;stroke:none;"/>
</svg>
