<svg xmlns="http://www.w3.org/2000/svg" viewBox="0 0 1000 1000"><path d="M500.496 5C223.572 5 5 229.506 5 500.002c0 276.43 224.506 495.001 495.002 495.001 276.43 0 495.001-224.506 495.001-495.001C995.003 226.539 773.464 5 500.496 5zM233.462 725.002C85.11 520.276 200.825 231.484 448.078 185.001c17.803-1.978 35.605-3.956 52.418-4.945.99.989.99 3.956.99 4.945-61.32 15.824-113.737 46.483-154.287 95.934-78.132 98.901-111.759 208.682-73.187 331.32 21.758 70.22 68.242 121.649 142.418 138.462 68.242 13.846 124.616-12.857 167.143-65.275 83.078-102.858 71.21-258.133-22.747-349.122-3.956-2.967-7.912-3.956-8.901-7.912 31.648-9.89 58.352-.99 85.055 13.846 56.374 34.615 87.033 88.022 90.99 150.33 9.89 124.616-33.627 230.44-138.463 301.65-115.714 81.099-271.978 49.45-356.045-69.232zm56.374-175.055c-8.901-112.748 25.714-207.693 110.77-281.87 113.736-96.923 278.902-80.11 371.87 36.594 111.758 137.473 52.417 506.376-201.76 552.86-18.791 2.966-36.593 3.955-56.374 2.966 2.967-1.978 3.956-2.967 4.945-3.956 131.54-38.571 200.77-131.539 231.43-260.11 16.813-67.253 11.868-136.484-21.759-198.792-34.615-65.275-88.022-108.792-164.176-107.803-73.187 2.967-123.627 45.495-156.264 104.836-55.385 104.835-33.627 241.32 53.407 317.473.989.99.989 1.978 4.945 5.934-45.495 6.923-80.11-8.9-111.759-35.604-39.56-34.616-63.297-82.088-65.275-132.528z"/></svg>