<svg xmlns="http://www.w3.org/2000/svg" viewBox="0 0 1000 1000"><path d="M500.496 5C223.572 5 5 229.506 5 500.002c0 276.43 224.506 495.001 495.002 495.001 276.43 0 495.001-224.506 495.001-495.001C995.003 226.539 773.464 5 500.496 5zM162.253 531.156c-24.725-20.77-24.725-37.583 0-61.32C266.1 365.002 371.924 260.167 475.771 152.364c15.824-17.802 35.604-23.736 61.319 3.956l313.517 313.518c21.759 23.736 21.759 40.55 0 64.286-67.253 64.286-135.495 131.539-198.792 198.792-40.55 37.582-78.132 74.176-114.725 110.77-20.77 24.724-39.56 24.724-61.32 0-103.846-103.847-209.67-208.683-313.517-312.53zm86.045 0c21.758 20.769 43.516 39.56 62.307 61.318 17.803 18.792 39.561 18.792 57.363 0 22.748-21.758 43.517-40.55 62.308-64.285 19.78-17.803 17.802-38.572 1.978-52.418-20.77-21.759-41.538-46.484-67.253-68.242-14.835-15.824-36.593-11.868-52.418 2.967-20.769 18.791-42.527 43.516-64.285 65.275-17.803 15.824-14.836 36.593 0 55.385zm165.165 174.066c21.758 21.758 43.517 40.55 65.275 61.319 18.791 18.791 37.582 18.791 56.374 0 19.78-17.802 41.538-39.56 63.297-61.319 15.824-17.802 15.824-39.56 0-57.363-21.759-21.758-43.517-40.55-63.297-62.308-18.792-17.802-37.583-17.802-56.374 0-21.758 21.759-43.517 40.55-65.275 65.275-22.747 25.715-17.802 34.616 0 54.396zM589.507 528.19a1970.075 1970.075 0 0 1 64.286 64.285c18.792 18.792 36.594 18.792 55.385 0l64.286-64.285c15.824-15.825 15.824-34.616 0-52.418-20.77-21.759-42.527-46.484-68.242-68.242-14.835-15.824-32.637-11.868-51.429 2.967-20.769 21.758-42.527 43.516-64.286 65.275-20.769 20.77-16.813 34.615 0 52.418z"/></svg>