<svg xmlns="http://www.w3.org/2000/svg" viewBox="0 0 1000 1000"><path d="M991.826 499.999c0 270.345-220.845 494.998-489.921 494.998C229.02 994.997 8.175 772.883 8.175 500S229.021 5 501.905 5C770.98 5 991.826 227.115 991.826 499.999zm-883.382-2.539c0 217.038 176.423 393.46 393.46 393.46 214.5 0 390.923-176.422 390.923-390.921 0-213.23-176.423-388.384-390.922-388.384-217.038 0-393.461 170.077-393.461 385.845zm35.538-3.807c20.308-52.039 41.885-104.077 60.923-152.308 13.962-36.807 40.616-50.769 79.962-40.615 66 13.961 128.192 27.923 194.191 44.423 41.885 13.961 50.77 34.27 34.27 74.884-20.308 49.5-41.885 99-62.193 149.77-13.961 31.73-38.076 54.576-77.422 44.422l-54.577-12.692c-48.23-11.423-92.654-22.846-140.884-35.538-43.154-13.962-52.039-33-34.27-72.346zm99-8.885c-2.538 12.692 0 22.846 11.423 25.385 30.462 8.884 60.923 13.961 92.654 25.384 12.692 0 20.307-7.615 26.654-21.577 11.423-29.192 25.384-58.384 39.346-86.307 6.346-13.962 0-24.116-13.962-27.923-26.654-6.346-59.654-13.962-90.115-20.308-10.154-3.808-20.308 5.077-24.115 13.962-13.962 31.73-27.923 62.192-41.885 91.384zm210.692 149.769c39.346-88.846 76.154-178.961 114.23-269.076 27.923 10.153 59.654 19.038 90.115 24.115-16.5 40.615-34.269 88.846-55.846 132 5.077-1.27 63.462-36.808 156.115-96.462 8.885-7.615 16.5-8.884 31.731-5.077 30.462 7.616 49.5 15.231 85.038 21.577-43.153 27.923-81.23 52.039-126.922 79.962 29.192 13.961 64.73 29.192 48.23 71.076-13.961 39.346-27.923 78.692-44.423 115.5-31.73-7.615-58.384-15.23-91.384-21.577 11.423-27.923 19.038-45.692 27.923-76.154 8.885-22.846 7.615-26.653-13.962-31.73-22.846-5.077-50.769-12.692-73.615-19.039-11.423-3.807-15.23 0-19.038 10.154-10.154 27.923-22.846 58.385-34.27 87.577-31.73-8.885-63.46-13.962-93.922-22.846z"/></svg>