<?xml version="1.0" encoding="utf-8"?>
<!-- Generator: Adobe Illustrator 26.0.1, SVG Export Plug-In . SVG Version: 6.00 Build 0)  -->
<svg version="1.1" id="Layer_1" xmlns="http://www.w3.org/2000/svg" xmlns:xlink="http://www.w3.org/1999/xlink" x="0px" y="0px"
	 viewBox="0 0 1000 1000" style="enable-background:new 0 0 1000 1000;" xml:space="preserve">
<path d="M500.5,5C223.6,5,5,229.5,5,499.5C5,773.5,226.5,995,499.5,995C776.4,995,995,770.5,995,499.5C995,223.6,770.5,5,500.5,5z
	 M542.7,336.7l22.2-25.8l76.8-89.6h69.5L564.2,392.4c0,0-16.4-19.4-21.9-25.8C535,357.9,535.2,344.9,542.7,336.7z M358.1,221.3
	c0,0,123.1,147.3,167.6,192.9c7.1,7.1,5.8,16.5-0.6,24.1c-23.7,27.8-24.3,28.3-24.3,28.3L289,221.3H358.1z M458.2,663.3L436,689.2
	l-76.8,89.6h-69.5l146.9-171.1c0,0,16.4,19.4,21.9,25.8C465.9,642.1,465.7,655.1,458.2,663.3z M461,512.9
	c-59.8,69.3-228.1,265.8-228.1,265.8h-74.7l228.9-265.1c7.3-8.5,7.3-21.2,0-29.4L160,221.3h71.9l228.5,265.1
	C466.1,494.2,467.2,505.6,461,512.9z M641.7,778.7L486.6,597.8l-7.7-9.8c-7.3-8.5-7.1-21.6,0.4-29.9l289.2-336.9H840L549.2,553.7
	c-7.5,8.2-7.7,21.4-0.4,29.9l167.8,195.2H641.7z M773.8,778.7c0,0-125.2-146.2-167-194.9c-4.7-5.6-6.5-13.1-4.7-20.1
	c1.3-3.8,4.1-8,6.7-10.9l19.4-21.4l213.6,247.3H773.8z"/>
</svg>
