<svg xmlns="http://www.w3.org/2000/svg" viewBox="0 0 1000 1000"><path d="M713,1000,915,798H751c-22,80-108,187-134,202ZM519,798v202h46c85.6-61.6,134.3-160.3,148-202Zm-39,0H284c45.6,108.8,119.7,180,151,202h45Zm-234,0H87l204,202h90C316.2,940.8,271,858,246,798ZM289,2,87,204H251C273,124,359,17,385,2ZM483,204V2H437C351.4,63.6,302.7,162.3,289,204Zm39,0H718C672.4,95.2,598.3,24,567,2H522Zm234,0H915L711,2H621C685.8,61.2,731,144,756,204ZM232.8,734V273.8h206v68.9H307.5V464.9H429v63.7H307.5V664.5H445.3V734ZM748.6,362.9q-25.35-30.6-63.7-30.6a61,61,0,0,0-21.5,3.9,49.32,49.32,0,0,0-18.8,11,58.14,58.14,0,0,0-13.7,20.1c-3,8.2-4.5,18-4.5,29.2q0,29.25,17.5,45.5,17.55,15.6,46.2,29.9a367.66,367.66,0,0,1,34.4,19.5,155.54,155.54,0,0,1,31.9,26.7,131.1,131.1,0,0,1,23.4,37c6.1,14.3,9.1,31.2,9.1,50.7,0,22.5-3.7,42.5-11.1,59.8a129.77,129.77,0,0,1-28.6,44.2,115.49,115.49,0,0,1-41.6,26.6,141.07,141.07,0,0,1-50.7,9.1q-38.4,0-70.8-15c-21.7-10-39-22.5-52-37.7l42.2-57.2a108.94,108.94,0,0,0,35.8,28.6c14.3,6.9,28.8,10.4,43.5,10.4,16.5,0,30.1-5.6,41-16.9s16.2-27.1,16.2-47.5c0-19.9-6.5-35.8-19.5-47.5s-29.5-22.5-49.4-32.5a334.18,334.18,0,0,1-35.8-20.1,150.29,150.29,0,0,1-29.2-26,136.88,136.88,0,0,1-20.2-35.8c-4.8-13.9-7.1-30.3-7.1-49.4q0-35.7,11-61.1,11.7-25.95,29.9-42.9a118.81,118.81,0,0,1,42.2-24.7,139.37,139.37,0,0,1,47.4-8.4q35.1,0,62.4,11.7a117.21,117.21,0,0,1,46.8,33.2Z"/></svg>