<svg xmlns="http://www.w3.org/2000/svg" width="1000" height="1000">
  <path d="M500.496 5C223.572 5 5 229.506 5 500.002c0 276.43 224.506 495.001 495.002 495.001 276.43 0 495.001-224.506 495.001-495.001C995.003 226.539 773.464 5 500.496 5zM161.264 651.815v-150.33c0-52.418 1.978-102.857 0-153.297 0-31.649 13.846-56.374 41.539-74.176 87.033-48.462 174.066-100.88 258.133-151.32 29.67-17.802 56.373-17.802 86.044 0l257.144 151.32c28.681 16.813 44.505 42.527 43.516 76.154v301.65c0 35.604-15.824 60.33-47.472 77.142-86.045 45.495-165.166 97.913-250.221 147.364-30.66 17.802-59.341 18.79-92.967 0-83.078-46.484-165.166-98.902-249.232-146.375-31.649-17.802-46.484-42.527-46.484-78.132zm158.243-343.188c0 15.825 4.945 20.77 19.78 20.77h329.342c15.824 0 20.769-4.945 20.769-20.77 0-12.857-3.956-19.78-18.791-19.78h-331.32c-16.813 0-19.78 6.923-19.78 19.78zm2.967 306.595c0 28.681 7.912 55.385 27.692 77.143 25.714 35.604 59.34 52.418 100.88 53.407 3.956 0 5.934-.99 3.956-4.945-13.847-12.858-27.693-28.682-43.517-37.583-38.572-21.758-56.374-51.429-56.374-93.956v-109.78c0-46.485 0-46.485 44.506-46.485 15.824 0 20.769 5.935 20.769 19.78 0 46.484-1.978 92.968 0 141.43 2.967 75.165 63.297 135.495 133.517 133.517 74.176-1.978 133.517-60.33 133.517-138.462 0-56.374-1.978-113.737-1.978-168.133 0-13.846-2.967-18.791-16.813-18.791-30.66 0-59.341.989-90.99 0-16.813-1.978-21.758 4.945-21.758 21.758v167.144c0 31.648-13.846 57.363-38.572 78.132-7.912 8.901-16.813 8.901-26.703 0-23.736-20.77-37.583-46.484-37.583-77.143v-171.1c0-13.846-3.956-18.791-19.78-18.791-30.66 0-61.319.989-93.956 0-12.857 0-16.813 4.945-16.813 18.791zm226.484 94.945c36.593-37.582 42.527-81.099 40.55-124.616-1.979-38.571 0-76.154 0-113.736 0-11.868 3.956-17.803 17.802-17.803 56.374 0 45.494-6.923 45.494 45.495 2.967 37.583 0 77.143 0 114.726 0 54.396-45.494 97.912-103.846 95.934z" style="fill:#000;fill-opacity:1;fill-rule:nonzero;stroke:none;"/>
</svg>
