<svg xmlns="http://www.w3.org/2000/svg" viewBox="0 0 1000 1000"><path d="M145.32,0V1000h89.24V655.5H538.025l40.467-84.151h-325l3.053-6.839a916.452,916.452,0,0,1,92.823-165.453c27.277-36.111,48.895-51.5,60.945-51.5,23.165,0,33.343,5.456,57.363,27.684l9.689,8.753a138.016,138.016,0,0,0,102.919,42.137c75.806,0,147.051-107.56,238.652-334.324L830.986,61.6l18.157-46.9L854.68.041V0ZM580.406,341.693c-19.216,0-27.888-4.723-50.32-25.486l-9.974-9.038a146.975,146.975,0,0,0-109.678-44.05c-60.5,0-116.72,51.46-175.874,154.053V83.988H728.229C657.676,252.534,601.494,341.734,580.406,341.693Z"/></svg>