<svg xmlns="http://www.w3.org/2000/svg" width="1000" height="1000">
  <path d="M807.09 214.671c-21.758 21.758-44.505 43.517-66.263 62.308-69.231 70.22-141.43 141.429-210.66 211.649-7.913 6.923-7.913 11.868 0 19.78 91.978 90 181.978 179.012 269.011 270.001 1.979 1.978 4.946 3.956 9.89 5.934-4.944 3.956-7.911 3.956-9.89 3.956H530.167c-4.945 0-12.858-5.934-14.836-7.912L383.792 648.848c-1.978-1.978-3.956-1.978-6.923-4.945-45.494 46.484-91.978 92.968-140.44 138.462h-3.956V216.65c3.956 0 3.956 0 3.956-1.978 46.484 48.462 91.979 94.945 137.473 142.418 19.78-19.78 35.605-33.626 52.418-50.44 30.66-29.67 60.33-60.33 90.99-91.978 2.966-2.967 7.912-4.945 12.857-4.945h270.99l2.967 1.978c2.967 0 2.967 2.967 2.967 2.967zM5 499.507c0 276.924 224.506 495.496 495.496 495.496 275.935 0 494.507-224.506 494.507-495.496C995.003 226.54 773.464 5 500.496 5 223.572 5 5 229.506 5 499.507z" style="fill:#000;fill-opacity:1;fill-rule:nonzero;stroke:none;"/>
</svg>
