<?xml version="1.0" encoding="UTF-8"?><svg id="a" xmlns="http://www.w3.org/2000/svg" viewBox="0 0 1000 1000"><path d="M885.435,499.598l103.845,143.817c-40.456,135.383-136.319,247.32-263.87,308.116-249.269,118.309-548.118,12.651-666.427-236.618C-59.325,465.644,46.332,166.795,295.601,48.486c249.269-118.309,548.118-12.754,666.427,236.618h-164.128c-37.122-49.975-86.731-89.313-143.851-114.069-181.293-79.192-393.325,3.214-472.38,184.644-79.055,181.43,3.488,393.086,184.781,472.312,181.293,79.226,393.223-3.419,472.38-184.644l-105.555-143.817,105.555-143.851h150.656l-104.05,143.92Zm-375.135,.068l106.375,143.817h149.801l-102.99-143.817,102.99-143.851h-149.801l-106.375,143.851Z"/></svg>