<svg xmlns="http://www.w3.org/2000/svg" width="1000" height="1000">
  <path d="M5 498.745c1.26-275.84 224.198-495 500.037-493.74 269.541 1.26 491.22 227.977 489.96 496.259-2.518 272.06-225.457 493.74-493.739 493.74C224.16 993.743 5 773.323 5 498.743zm84.39-62.977C49.083 643.592 192.67 857.713 403.013 906.835c191.45 45.344 426.984-68.015 471.068-234.274H426.946c-22.672 0-41.565 2.52-60.458 17.634-26.45 18.893-60.458 12.595-80.61-11.336-20.153-23.931-22.673-57.939-2.52-80.61 20.153-28.97 52.9-31.49 83.13-17.634 16.374 7.557 32.748 13.855 50.381 13.855 148.626 2.519 301.03 2.519 450.915 2.519 12.596 0 25.191-3.779 37.786-3.779 56.68-217.9-86.908-447.136-311.106-500.037-234.274-55.42-437.06 98.244-482.403 263.244 6.297 0 13.855 1.26 20.152 1.26h467.29c12.595 0 26.45-7.558 39.045-13.856 30.229-17.633 65.496-12.595 86.908 12.596 18.893 23.931 17.634 57.939-2.519 81.87-20.152 23.931-55.42 30.229-84.389 11.336-15.114-11.336-30.229-13.855-50.381-13.855H125.916z" style="fill:#000;fill-opacity:1;fill-rule:nonzero;stroke:none;"/>
</svg>
