<?xml version="1.0" encoding="utf-8"?>
<!-- Generator: Adobe Illustrator 26.0.1, SVG Export Plug-In . SVG Version: 6.00 Build 0)  -->
<svg version="1.1" id="Layer_1" xmlns="http://www.w3.org/2000/svg" xmlns:xlink="http://www.w3.org/1999/xlink" x="0px" y="0px"
	 viewBox="0 0 1000 1000" style="enable-background:new 0 0 1000 1000;" xml:space="preserve">
<g>
	<path d="M678.5,259.5l-98.1,170.2l189.5-55.1c-7.2-18.9-19.4-45.4-36.7-67C716.2,286.5,694.4,270,678.5,259.5z"/>
	<path d="M500.5,5C223.6,5,5,229.5,5,499.5C5,773.5,226.5,995,499.5,995C776.4,995,995,770.5,995,499.5C995,223.6,770.5,5,500.5,5z
		 M489.9,820.2c-176.6,0-320.2-143.7-320.2-320.2c0-176.6,143.7-320.2,320.2-320.2c19.8,0,39.7,1.8,59.1,5.4
		c14.4,2.7,23.9,16.5,21.2,30.9c-2.7,14.4-16.5,23.9-30.9,21.2c-16.2-3-32.8-4.5-49.3-4.5c-147.3,0-267.2,119.9-267.2,267.2
		s119.9,267.2,267.2,267.2S757.1,647.3,757.1,500c0-14.6,11.9-26.5,26.5-26.5c14.6,0,26.5,11.9,26.5,26.5
		C810.2,676.6,666.5,820.2,489.9,820.2z M489.9,651.5c66.9,0,126.6-44.8,145.4-108.8c4.1-14,18.8-22.1,32.9-18
		c14,4.1,22.1,18.8,18,32.9c-25.3,86.5-106,147-196.3,147c-112.7,0-204.5-91.7-204.5-204.5s91.7-204.5,204.5-204.5
		c14.6,0,26.5,11.9,26.5,26.5c0,14.6-11.9,26.5-26.5,26.5c-83.5,0-151.5,67.9-151.5,151.5S406.4,651.5,489.9,651.5z M811.2,417.8
		L532,499c-2.4,0.7-4.9,1.1-7.4,1.1c-8,0-15.7-3.6-20.9-10.1c-6.7-8.5-7.5-20.2-2.1-29.6L646,209.7c7-12.2,22.3-16.7,34.8-10.5
		c2.3,1.1,55.9,28.2,93.7,75.1c37.7,46.8,54.2,108.6,54.9,111.3C833.1,399.6,825,413.8,811.2,417.8z"/>
</g>
</svg>
