<svg xmlns="http://www.w3.org/2000/svg" width="1000" height="1000">
  <path d="M500.496 5C223.572 5 5 229.506 5 500.002c0 276.43 224.506 495.001 495.002 495.001 276.43 0 495.001-224.506 495.001-495.496C995.003 226.54 773.464 5 500.496 5zM267.09 370.935c15.824-20.769 43.516-64.286 45.494-64.286h212.639c-38.572-56.373-64.286-71.209-182.968-71.209h-70.22c0-4.945 40.55-64.286 42.527-64.286h111.76c106.813 0 213.626-1.978 319.45-1.978h6.924c-1.978 4.945-22.748 36.594-37.583 60.33-1.978 2.967-4.945 4.945-9.89 4.945H592.475c14.835 22.748 29.67 44.506 34.615 72.198h125.605c-1.978 3.956-26.704 40.55-37.583 58.352-4.945 4.945-5.934 6.923-9.89 6.923l-76.154 1.978c-1.978 22.748-9.89 45.495-22.747 68.242-27.693 44.506-69.231 71.21-119.671 87.034-17.802 5.934-71.21 14.835-84.066 14.835 16.813 20.77 31.648 40.55 48.461 61.319C516.32 686.43 580.606 766.54 645.881 849.618c1.978 2.967 7.912 9.89 11.868 14.835h-15.824c-29.67 0-56.374 0-84.066.99-6.923 0-6.923 0-11.868-5.935-82.088-98.901-166.155-198.792-250.22-297.693-1.979-1.978-2.968-3.956-2.968-4.945v-59.34c20.77 0 40.55.988 63.297 0 41.539-1.979 82.088-8.902 118.682-31.65 36.593-20.769 55.385-51.428 55.385-94.945z" style="fill:#000;fill-opacity:1;fill-rule:nonzero;stroke:none;"/>
</svg>
