<svg xmlns="http://www.w3.org/2000/svg" viewBox="0 0 1000 1000"><path d="M500.496 5c272.968 0 494.507 221.54 494.507 495.002 0 270.495-218.572 495.001-495.001 495.001C229.506 995.003 5 776.431 5 500.002 5 229.506 223.572 5 500.496 5zM167.198 561.815c-2.967 4.945-4.945 8.901 1.978 13.846 86.045 47.473 185.935 10.88 225.496-84.066-10.88-6.923-20.77-9.89-31.649-12.857-83.077-31.649-164.176 5.934-195.825 83.077zm17.803 186.924c0 6.923.989 11.868 10.879 11.868 9.89-4.945 23.736-4.945 33.626-7.912 50.44-16.813 85.055-75.165 71.21-123.627-5.935 0-10.88.989-15.825.989-62.308 6.923-104.835 57.363-99.89 118.682zm104.835-389.672c24.725 35.605 53.407 63.297 91.978 79.121 87.034 41.539 179.012 15.824 244.287-39.56l4.945-1.978c-15.824-15.825-28.681-33.627-43.517-46.484-85.055-81.1-208.682-83.077-294.726-7.912-5.934 5.934-7.912 9.89-2.967 16.813zm84.066 505.386c6.923 4.945 9.89 6.923 17.803.99 89.01-57.363 121.648-166.155 83.077-263.078-11.868-28.682-24.726-53.407-44.506-75.165-13.846 7.912-26.703 19.78-38.571 29.67-90.99 85.055-98.902 216.594-17.803 307.583zm20.77-700.222c1.978 60.33 49.45 104.836 113.736 106.814h10.88c5.934 0 7.912-1.978 7.912-6.923-3.957-74.176-58.352-117.693-120.66-111.759-7.912 0-11.868 2.967-11.868 11.868zm124.615 528.134c.99 4.945.99 6.923 3.956 12.857 5.935 9.89 9.89 20.77 14.836 30.66 39.56 70.22 118.681 95.934 192.857 65.274 6.924-.989 7.913-4.945 6.924-11.868-6.924-15.824-12.858-33.626-23.737-47.472-50.44-73.187-138.462-75.165-194.836-49.451zm0-57.363c0 4.945.99 8.901 7.913 8.901 14.835 1.978 29.67 1.978 44.505 3.956h11.868c116.704-3.956 204.726-90.989 215.605-207.693 0-6.923-2.967-8.9-10.879-10.879-12.857-1.978-26.703-3.956-38.571-3.956-118.682-4.945-215.605 77.143-230.44 209.671zm40.55-415.386c0 70.22 50.44 119.67 98.901 139.451.99 1.978 6.924 0 6.924-.989 6.923-7.912 9.89-16.813 11.868-26.703 29.67-80.11-4.945-166.155-84.066-197.803-5.935-1.978-9.89-1.978-12.858 5.934-13.846 24.725-20.769 49.45-20.769 80.11zm123.627 439.122c47.472 54.396 133.517 52.418 173.077-8.9-45.494-52.418-130.55-51.43-173.077 8.9z"/></svg>