<svg xmlns="http://www.w3.org/2000/svg" viewBox="0 0 1000 1000"><path d="M500.496 5C223.572 5 5 229.506 5 500.002c0 276.43 224.506 495.001 495.002 495.001 276.43 0 495.001-224.506 495.001-495.001C995.003 226.539 773.464 5 500.496 5zM164.231 740.827c2.967-3.956 5.934-9.89 5.934-11.869 27.693-48.461 52.418-94.945 80.11-141.429 4.946-8.9 4.946-13.846-3.956-17.802-20.769-10.879-40.55-23.736-64.285-36.593 5.934-6.923 7.912-14.836 12.857-21.759 19.78-33.626 41.538-67.253 60.33-102.857 5.934-6.923 10.879-9.89 21.758-9.89h67.253c5.934 0 12.857-1.978 14.835-6.923 46.484-79.122 89.011-160.22 134.506-239.342v-1.978h5.934c33.627 53.407 63.297 108.792 95.935 165.165 17.802-10.879 38.571-20.769 55.384-29.67 15.825-10.88 15.825-10.88 25.715 3.956 20.769 38.572 40.55 73.187 63.297 111.759 3.956 6.923 3.956 12.857 0 20.769-11.869 16.813-22.748 34.616-35.605 52.418-4.945 6.923-1.978 12.857 0 20.77 46.484 78.131 89.011 154.285 134.506 229.45 0 5.934 2.967 8.902 4.945 15.825H664.673c-9.89 0-15.825 2.967-15.825 14.835 1.978 21.758 0 39.56 0 58.352 1.978 10.879-1.978 13.846-12.857 13.846H502.474c-8.9 0-12.857-2.967-15.824-9.89-12.857-22.748-25.714-46.484-38.572-69.231-2.967-4.945-9.89-10.88-14.835-10.88-70.22 0-144.396 2.968-214.616 2.968zm66.264-235.386c2.967 0 2.967 1.978 5.934 1.978h284.836c2.968 0 7.913-1.978 11.869-3.956l44.505-77.143c-4.945-1.978-7.912-1.978-9.89-1.978-93.956 0-186.924 1.978-281.869 1.978-4.945 0-11.868 5.934-14.835 10.88-11.868 17.801-22.747 37.582-34.616 58.351 0 1.978-2.967 7.912-5.934 9.89zm48.462 170.11h128.572c-21.758-41.538-42.528-79.12-63.297-119.67-21.758 40.55-45.495 78.132-65.275 119.67zm84.066-142.417c1.978 5.934 1.978 7.912 4.945 9.89a28328.762 28328.762 0 0 0 136.484 249.231c0 4.945 6.923 6.923 12.857 9.89h73.187c4.946 0 7.913-2.967 12.858-2.967-4.945-6.923-7.912-12.857-9.89-16.813-41.54-72.198-84.067-139.45-121.65-210.66-15.823-30.66-30.659-43.516-64.285-38.571-14.835 2.967-26.704 0-44.506 0zm67.253-134.506H567.75c-22.747-39.56-46.484-79.121-68.242-118.682-22.747 39.56-45.494 79.121-69.23 118.682zm87.033 189.89c0 14.836 11.869 30.66 19.78 44.506 7.913 11.868 13.847 21.758 20.77 34.616 1.978-6.924 4.945-9.89 7.912-12.858 45.495-76.154 90-151.319 138.462-228.462 8.901-11.868 8.901-18.791 0-32.637-8.901-12.858-14.835-27.693-21.758-40.55-5.934-6.923-10.88-15.824-15.824-24.725-4.945 6.923-7.913 8.9-7.913 12.857-40.55 67.253-81.099 136.484-121.648 204.726-7.912 14.835-19.78 30.66-19.78 42.527zm65.275 85.056h149.342c-24.726-40.55-47.473-79.121-73.188-121.65-24.725 42.529-50.44 81.1-76.154 121.65z"/></svg>