<svg xmlns="http://www.w3.org/2000/svg" width="1000" height="1000">
  <path d="M610.196 11.73c-11.8 58.997-26.22 119.304-40.642 184.856H793.74c-5.244 24.91-10.488 43.264-15.732 60.307-7.867 31.465-13.11 52.441-18.355 74.729-3.933 19.665-9.177 24.91-32.776 24.91H530.223c-3.933 27.53-11.8 55.062-18.354 83.905-13.11 64.24-27.532 131.103-41.953 194.032-2.622 19.666-2.622 38.02-2.622 57.686 0 22.287 13.11 31.464 36.708 36.709 14.422 5.244 26.221 5.244 45.886 5.244H704.59c0 17.043-1.311 28.842-5.244 45.886-7.866 36.708-14.422 70.795-22.288 102.26-6.555 15.732-10.488 19.665-22.287 19.665-81.284 0-167.812 3.933-243.852-3.933-52.44-6.555-102.26-28.842-131.103-79.973-19.665-32.775-19.665-69.484-9.177-107.504 2.622-13.11 72.107-342.179 74.729-353.978H148.713c15.733-55.063 24.91-107.504 36.71-159.945h197.965c7.866-55.064 23.598-102.26 31.464-154.702 6.556-30.154 3.934-30.154 40.642-30.154zM129.048 402.417h159.946c0 9.177-2.622 18.355-5.245 32.776-2.622 11.8-7.866 13.11-18.354 13.11h-69.484c-28.843-3.933-48.509-31.464-66.863-45.886zM283.75 905.852c-7.867-9.177-7.867-14.42 0-14.42 55.063 38.019 115.37 51.13 183.544 51.13H680.99c18.355 0 23.599-3.934 27.532-18.355 14.421-60.307 31.465-131.103 44.575-196.655l2.622 6.556c14.421 20.976 32.776 40.642 27.532 69.484-9.178 60.308-23.599 116.682-38.02 174.367 0 11.8-7.866 17.044-18.355 17.044-91.772-5.245-180.922 0-274.005-5.245-65.551-5.244-125.859-27.531-169.123-83.906zm224.186-217.63c-6.556-3.933-3.934-15.733 0-28.843 18.354-83.906 38.02-167.812 56.374-256.962h205.83c13.11 0 18.355-3.933 23.599-22.287 11.8-56.375 26.22-114.06 35.398-169.123 6.555-24.91 7.866-28.843 14.421-18.354 10.488 13.11 18.354 32.775 24.91 51.13 3.933 10.488 2.622 9.177 0 22.287-10.489 52.441-24.91 107.505-39.331 163.879-3.933 14.421-9.178 18.354-23.599 18.354H628.55c-18.354 0-27.531 5.244-30.153 24.91a3572.185 3572.185 0 0 1-39.331 186.166c-9.178 35.398-13.11 35.398-51.13 28.843zm120.614-559.81c2.622-14.421 28.843-128.48 28.843-123.237 47.197 43.264 31.465 89.15 19.665 136.347-2.622 9.178-34.086 13.11-41.953 9.178-6.555-5.245-7.866-11.8-6.555-22.288z" style="fill:#000;fill-opacity:1;fill-rule:nonzero;stroke:none;"/>
</svg>
