<svg xmlns="http://www.w3.org/2000/svg" viewBox="0 0 1000 1000"><polygon points="331.653 484.189 311.57 552.633 458.138 592.565 331.653 484.189"/><path d="M457.531,656.452l27.67-30.458L380.787,597.545A460.558,460.558,0,0,1,457.531,656.452Z"/><polygon points="356.469 472.348 499.825 595.186 640.574 472.348 356.469 472.348"/><polygon points="650.581 447.209 564.179 345.462 429 345.462 351.16 447.209 650.581 447.209"/><polygon points="402.935 338.174 312.019 299.935 333.379 429.089 402.935 338.174"/><path d="M500,0C223.858,0,0,223.858,0,500s223.858,500,500,500,500-223.858,500-500S776.142,0,500,0ZM716.185,567.19l-81.226,49.834a434.568,434.568,0,0,0-100.522,85.028L500.59,740.888l-32.25-36.929a434.637,434.637,0,0,0-104.4-87.23L281.111,567.19,312.857,459,279.8,259.112l145.534,61.211h142.25L720.2,259.609,686.933,459.142Z"/><path d="M542.87,656.732A460.405,460.405,0,0,1,619.4,597.081L514.615,625.953Z"/><polygon points="590.899 338.101 666.75 427.418 688.084 299.442 590.899 338.101"/><polygon points="541.012 592.606 686.197 552.6 667.21 482.459 541.012 592.606"/></svg>