<?xml version="1.0" encoding="utf-8"?>
<!-- Generator: Adobe Illustrator 26.0.1, SVG Export Plug-In . SVG Version: 6.00 Build 0)  -->
<svg version="1.1" xmlns="http://www.w3.org/2000/svg" xmlns:xlink="http://www.w3.org/1999/xlink" x="0px" y="0px"
	 viewBox="0 0 1000 1000" style="enable-background:new 0 0 1000 1000;" xml:space="preserve">
<g id="Layer_1">
</g>
<g id="Layer_3">
</g>
<g id="Layer_2">
	<g>
		<path d="M892.7,92.2h104.8L571.9,578.6c-11,12.1-11.3,31.3-0.6,43.7l245.5,285.5H707.3L480.3,643.1L469,628.8
			c-10.7-12.4-10.4-31.6,0.6-43.7L892.7,92.2z"/>
		<path d="M656.3,622.6c-6.9-8.1-9.4-19.2-6.9-29.3c1.9-5.5,6-11.7,9.8-16l28.3-31.3L1000,907.8h-99.5
			C900.5,907.8,717.3,693.9,656.3,622.6z"/>
		<path d="M109.2,907.8H0l334.9-387.9c10.7-12.4,10.7-31,0-43L2.5,92.2h105.1l334.3,387.9c8.5,11.4,10.1,28,0.9,38.8
			C355.4,620.3,109.2,907.8,109.2,907.8z"/>
		<path d="M292.4,92.2h-101l309.7,358.9c0,0,0.9-0.7,35.6-41.4c9.4-11.1,11.3-24.8,0.9-35.2C472.5,307.7,292.4,92.2,292.4,92.2z"/>
		<path d="M594,342.6l215-250.3H707.3l-112.4,131l-32.4,37.8c-11,12.1-11.3,31-0.6,43.7C570,314.2,594,342.6,594,342.6z"/>
		<path d="M407.3,657.4l-215,250.3H294l112.4-131l32.4-37.8c11-12.1,11.3-31,0.6-43.7C431.2,685.8,407.3,657.4,407.3,657.4z"/>
	</g>
</g>
</svg>
