<svg xmlns="http://www.w3.org/2000/svg" width="1000" height="1000">
  <path d="M559.47 8.505c-9.494 29.84-14.92 63.749-27.127 93.589-12.207 27.127-28.483 56.967-48.829 103.083 145.13-58.323 275.341-107.152 406.908-151.912 28.483-12.207 65.105-55.61 92.232 0 28.484 58.323 4.07 139.705-46.116 157.337-46.116 21.702-99.014 42.047-150.556 59.68-2.712 2.713-2.712 10.851-9.494 21.702 48.829 24.414 100.37 48.829 149.2 75.956 56.966 29.84 88.162 115.29 56.966 169.545-8.138 10.85-39.334 16.276-54.254 10.85-37.978-10.85-78.669-32.552-132.923-59.68 10.85 42.048 20.345 70.531 29.84 93.59 37.978 108.508 82.738 221.086 124.785 330.95 20.345 61.037 13.563 67.819-52.898 73.244-67.818 8.138-118.003-9.494-135.636-86.807-8.138-43.403-33.91-88.163-54.254-141.061C674.76 826.389 646.277 882 616.438 936.254c-23.059 47.472-135.636 73.243-172.258 40.69-8.138-10.85-8.138-36.621-2.713-52.897 16.277-36.622 33.91-71.887 54.255-123.429-28.484 5.426-40.691 8.138-56.967 10.85-118.003 46.117-236.007 92.233-354.01 134.28C19.64 968.806 8.79 963.381 8.79 896.92c-2.713-101.726-2.713-101.726 97.658-138.348 36.622-13.564 74.6-31.196 130.21-52.898-55.61-25.77-93.588-47.472-134.28-66.462-107.151-54.254-113.933-80.025-77.311-214.304 54.254 24.414 107.152 48.829 177.682 75.956-36.622-90.877-63.749-172.258-93.589-253.64-21.702-58.323-46.116-118.003-66.462-174.97C34.56 49.196 39.985 28.85 34.56 8.505h158.694c27.127 69.174 54.254 141.061 84.094 210.236h20.345c28.484-69.175 62.393-141.062 92.233-210.236zM370.938 466.954c4.069 66.462 55.61 151.912 93.588 151.912 61.037 0 154.625-56.967 154.625-96.301 0-58.324-59.68-151.912-96.301-151.912-65.105 2.712-154.625 56.967-151.912 96.301z" style="fill:#000;fill-opacity:1;fill-rule:nonzero;stroke:none;"/>
</svg>
