<svg xmlns="http://www.w3.org/2000/svg" width="1000" height="1000">
  <path d="M500.496 5C223.572 5 5 229.506 5 500.002c0 276.43 224.506 495.001 495.002 495.001 276.43 0 495.001-224.506 495.001-495.001C995.003 226.539 773.464 5 500.496 5zM110.825 501.485c0-209.67 174.066-388.682 385.715-388.682 223.517 0 402.529 170.11 399.562 394.616 0 214.616-176.045 389.672-390.66 389.672-215.606 0-394.617-175.056-394.617-395.606zm57.362 0c-3.956 184.946 148.353 342.2 331.32 342.2 189.89 0 342.2-152.31 342.2-336.266 0-188.901-148.353-337.254-336.266-337.254-184.945-3.956-337.254 148.353-337.254 331.32zm206.704 63.297c0-39.56 22.748-76.154 62.308-90 49.451-9.89 68.242-8.901 112.748-8.901 8.901-30.66 0-53.407-26.704-62.308-32.637-8.901-54.395 0-68.241 31.648h-71.21c0-26.703 13.847-49.45 35.605-62.308 44.506-36.593 130.55-36.593 175.056 0 23.736 17.803 36.593 39.56 36.593 66.264V587.53c0 17.803 4.945 35.605 8.901 54.396-21.758 0-45.494 4.945-63.297 0-8.9 0-12.857-12.857-22.747-18.791-30.66 23.736-67.253 32.637-107.803 23.736-39.56-8.9-71.209-45.494-71.209-82.088zm76.154-3.956c3.957 22.747 17.803 31.648 35.605 31.648 49.45 3.957 72.198-22.747 67.253-85.055-26.703 2.967-54.396 2.967-76.154 8.901-22.747 2.967-31.649 17.803-26.704 44.506z" style="fill:#000;fill-opacity:1;fill-rule:nonzero;stroke:none;"/>
</svg>
