<svg xmlns="http://www.w3.org/2000/svg" viewBox="0 0 1000 1000"><path d="M5 500.496C5 225.55 226.54 5 500.496 5c272.968 0 494.507 222.528 494.507 494.507 0 274.946-222.528 495.496-494.507 495.496C225.55 995.003 5 772.475 5 500.496zm161.21-139.45c-59.342 148.351-15.825 327.363 109.78 428.242 148.352 125.605 364.946 110.77 489.562-28.681 14.835-13.846 28.681-24.725 0-33.627-139.451 157.254-360.001 148.353-489.562 24.726-141.43-135.495-144.396-353.078-14.835-490.551 115.714-124.616 340.22-164.177 504.397 14.835 5.934 0 13.846-8.901 18.791-8.901-4.945-8.901-9.89-19.78-18.791-28.682-63.297-69.23-144.396-107.802-239.341-112.747-155.276-8.901-303.628 88.022-360.002 235.385zm47.472 129.56c12.857-12.857 22.747-22.747 22.747-31.648C267.09 261.155 496.54 155.33 660.716 275.99c9.89 2.967 22.748 0 32.638 0-82.088-82.088-202.748-100.88-306.594-53.407-106.814 47.473-179.012 153.297-173.078 268.023zm3.956 18.791c-19.78 106.814 72.198 217.583 144.396 261.1 109.78 56.374 245.276 41.539 326.375-47.473-8.901 0-17.802 0-27.693 3.956-170.11 119.671-390.66 14.836-424.287-177.033 0-15.824-9.89-24.726-18.79-40.55zm72.198 59.341c49.45 163.187 254.177 220.55 373.848 100.88 10.879-9.89 30.659-26.704 19.78-38.572-1.978-.989-8.901-4.945-8.901-4.945-130.55 100.88-234.397 100.88-316.485 8.901-72.198-81.1-68.242-204.726 9.89-283.847 86.045-81.1 195.825-72.198 302.639 24.725 3.956-4.945 12.857-7.912 15.824-7.912-2.967-12.857-11.868-25.714-22.747-34.615-72.199-72.198-181.98-86.045-272.968-29.67-91.979 54.395-133.517 164.176-100.88 265.055z"/></svg>