<svg xmlns="http://www.w3.org/2000/svg" viewBox="0 0 1000 1000"><path d="M556.445,517.776a186.707,186.707,0,0,0,30.841-4.215c-6.174,72.488-61.018,135.907-135.593,139.933-45.762,2.472-91.5-23.964-93.983-66.875-2.443-42.173,31.937-70.387,88.686-73.45,20.948-1.133,37.987.585,55.024,2.3S535.5,518.908,556.445,517.776Zm8.072-184.06c-78.719,4.389-136.606,73.575-143.124,152.651a191.57,191.57,0,0,1,32.553-4.6c22.112-1.231,40.1.641,58.08,2.515S548,488.033,570.1,486.8c59.906-3.342,96.194-34.121,93.619-80.131C661.1,359.859,612.821,331.019,564.517,333.716ZM1000,500c0,276.142-223.858,500-500,500S0,776.142,0,500,223.858,0,500,0,1000,223.858,1000,500Zm-141.854,0C858.146,301.993,697.8,141.474,500,141.474S141.854,301.993,141.854,500,302.2,858.526,500,858.526,858.146,698.008,858.146,500Z"/></svg>