<svg width="1000" height="1000" viewBox="0 0 1000 1000" fill="none" xmlns="http://www.w3.org/2000/svg">
<path fill-rule="evenodd" clip-rule="evenodd" d="M500 995C773.381 995 995 773.381 995 500C995 226.619 773.381 5 500 5C226.619 5 5 226.619 5 500C5 773.381 226.619 995 500 995ZM201 285.731L346.731 140H415.99C397.232 150.822 335.188 228.016 319.317 285.731H201ZM486.691 140V285.731H346.731C356.591 255.671 391.75 184.441 453.505 140H486.691ZM514.828 285.731H656.23C623.333 207.238 569.898 155.872 547.293 140H514.828V285.731ZM798.355 285.731H683.645C665.609 242.445 633 182.709 586.251 140H651.18L798.355 285.731ZM315.709 714.268H201L348.174 860H413.104C366.355 817.291 333.745 757.555 315.709 714.268ZM343.124 714.268H484.527V860H452.062C429.457 844.128 376.022 792.761 343.124 714.268ZM512.663 714.268L512.663 860H545.85C607.605 815.559 642.764 744.329 652.623 714.269L512.663 714.268ZM652.623 860L798.355 714.269H680.038C664.166 771.984 602.122 849.178 583.365 860H652.623ZM376.592 378.294C395.037 378.294 410.355 385.64 422.548 400.334L453.498 360.005C444.432 349.376 433.177 341.404 419.734 336.089C406.604 330.462 391.598 327.648 374.716 327.648C363.149 327.648 351.738 329.68 340.484 333.745C329.229 337.496 319.069 343.436 310.003 351.564C301.249 359.693 294.059 370.009 288.432 382.514C283.117 394.707 280.46 409.4 280.46 426.594C280.46 440.35 282.179 452.23 285.618 462.234C289.369 471.925 294.215 480.522 300.155 488.025C306.408 495.216 313.442 501.468 321.257 506.783C329.385 512.097 337.983 516.943 347.049 521.32C361.43 528.51 373.309 536.326 382.688 544.767C392.067 553.208 396.756 564.618 396.756 578.999C396.756 593.693 392.848 605.103 385.033 613.232C377.217 621.36 367.369 625.424 355.49 625.424C344.86 625.424 334.387 622.923 324.071 617.921C314.067 612.919 305.47 606.041 298.279 597.288L267.798 638.554C277.177 649.496 289.682 658.562 305.313 665.753C320.945 672.943 337.983 676.538 356.428 676.538C369.245 676.538 381.438 674.35 393.005 669.973C404.572 665.596 414.576 659.188 423.017 650.747C431.77 641.993 438.648 631.364 443.65 618.859C448.965 606.354 451.622 591.973 451.622 575.717C451.622 561.648 449.434 549.456 445.057 539.139C440.68 528.823 435.053 519.913 428.175 512.41C421.297 504.907 413.638 498.498 405.197 493.184C396.756 487.869 388.472 483.179 380.343 479.115C366.588 472.238 355.49 465.047 347.049 457.544C338.608 449.729 334.387 438.787 334.387 424.719C334.387 416.59 335.482 409.556 337.67 403.616C340.171 397.676 343.454 392.831 347.518 389.079C351.582 385.328 356.115 382.67 361.117 381.107C366.119 379.232 371.277 378.294 376.592 378.294ZM718.081 478.646C723.396 465.829 726.053 450.979 726.053 434.097C726.053 415.34 723.083 399.709 717.143 387.204C711.516 374.699 704.169 364.694 695.103 357.191C686.35 349.376 676.346 343.905 665.091 340.779C653.837 337.652 642.895 336.089 632.266 336.089H540.354V668.097H595.688V534.919H635.079C646.646 534.919 657.901 532.887 668.843 528.823C679.785 524.759 689.476 518.506 697.917 510.065C706.358 501.624 713.079 491.151 718.081 478.646ZM659.933 395.644C668.374 403.773 672.594 416.747 672.594 434.566C672.594 452.386 668.374 465.985 659.933 475.364C651.492 484.43 640.706 488.963 627.576 488.963H595.688V383.452H627.576C640.706 383.452 651.492 387.516 659.933 395.644Z" fill="black"/>
</svg>
