<svg xmlns="http://www.w3.org/2000/svg" viewBox="0 0 1000 1000"><path d="M5 500.496c0 271.98 220.55 494.507 495.496 494.507 271.98 0 494.507-220.55 494.507-495.496C995.003 227.528 773.464 5 500.496 5 226.54 5 5 225.55 5 500.496zm149.341 46.484c-.989-16.813 4.945-33.627 14.835-47.473 1.978-4.945 5.934-8.901 8.902-13.846 2.967-4.945 5.934-10.88 6.923-14.835.989-.99.989-1.978 0-3.956-1.978-6.923-3.956-14.836-3.956-22.748.989-2.967-.99-3.956-2.968-4.945-11.868-4.945-15.824-14.835-13.846-26.703 1.978-10.88 9.89-19.78 17.803-28.682 10.879-9.89 23.736-16.813 37.582-22.747 1.978 0 2.967-1.978 3.956-2.967 7.912-20.77 17.802-37.582 33.627-53.407 0 0 0-.989 1.978-.989.989 0 .989-.989 1.978-1.978l-12.857 1.978c-7.913 3.956-16.814 6.923-25.715 9.89-3.956.99-6.923 1.978-8.901-1.978-3.956-1.978-2.967-3.956-1.978-7.912 15.824-43.516 35.604-83.077 65.275-116.703 23.736-26.704 51.429-43.517 85.055-55.385 34.616-11.868 70.22-16.813 105.825-16.813h19.78c8.901-4.946 16.813-3.956 25.714 0 .99 0 2.967.989 3.956.989 9.89-.99 20.77-.99 30.66 1.978 6.923 1.978 11.868 5.934 16.813 10.879 5.934 7.912 4.945 16.813-3.956 22.747-3.956 2.967-8.901 4.945-12.857 6.923-1.978.99-3.956 2.967-3.956 6.923.989 5.934-2.967 11.868-6.923 16.814-1.978.989-1.978 2.967-1.978 4.945-2.967 5.934-5.934 12.857-10.88 17.802-10.879 10.879-13.846 25.714-12.857 38.571 10.88 0 20.77-.989 31.649-.989 11.868 0 22.747 3.956 30.66 12.858.988 0 .988.989 1.977.989 1.978 5.934 8.901 7.912 14.835 10.879 0 .989 1.979 0 3.957 0 15.824-6.923 31.648-3.956 41.538 10.879 3.956 5.934 9.89 5.934 13.846 0 1.978-4.945 3.956-7.912.99-12.857-2.968-7.912-1.979-15.824 2.966-22.748 1.978-2.967.99-2.967-.989-5.934-1.978-4.945-4.945-8.9-6.923-13.846-4.945-9.89-1.978-17.802 9.89-21.758 12.858-2.967 24.726 0 36.594 7.912 6.923 5.934 14.835 8.901 23.736 11.868 16.814 5.934 32.638 13.846 43.517 29.67 10.88 14.836 18.791 31.649 23.736 50.44 6.923 27.693 7.912 56.374 3.956 84.066 0 5.935 0 10.88-1.978 16.814-.989 3.956 0 6.923 2.967 9.89 9.89 13.846 12.858 29.67 15.825 45.495 1.978 12.857 4.945 23.736 5.934 35.604 1.978 19.78 1.978 38.572-3.956 57.363v1.978l14.835-8.901c1.978-2.967 4.945-3.956 8.9-.99 3.957 1.979 3.957 4.946 1.979 8.902-1.978 9.89-5.934 19.78-6.923 29.67-1.978 14.836 2.967 28.682 8.901 43.517 5.934 13.846 12.857 27.692 21.758 39.56 5.934 7.913 4.945 11.869-3.956 14.836-12.857 4.945-20.769 13.846-26.703 24.725-9.89 17.802-18.791 35.605-23.736 54.396-.99 4.945-.99 8.901-6.924 9.89-5.934.989-6.923-2.967-9.89-7.912l-19.78-39.56c-6.923 3.955-15.824 4.944-20.77 13.846-.988 2.967-3.955 4.945-4.944 6.923 5.934 5.934 13.846 9.89 18.79 15.824 9.891 9.89 13.847 22.747 14.836 37.582 0 23.737-5.934 44.506-23.736 62.308-10.88 10.88-23.737 17.803-38.572 15.825-5.934-.99-11.868-1.978-16.813-4.946-8.901-7.912-6.923-20.769 3.956-25.714 6.923-2.967 12.857-16.813 8.901-24.725l-7.912-4.945c-10.88-2.967-21.758-2.967-31.648.989-9.89 2.967-18.792 2.967-28.682 1.978-.989-.99-2.967 0-4.945.989-9.89 5.934-20.77 8.9-32.637 8.9-.99-.988-3.956 0-4.945.99-9.89 6.923-20.77 11.868-34.616 10.879 0 0-.989 0-2.967-.989-5.934-2.967-10.88-.989-17.802.989-13.846 4.945-30.66 7.912-45.495 2.967h-4.945c-22.747 7.912-44.506 3.956-65.275-10.88-.989 0-1.978-.988-4.945-.988-16.813.989-35.605-1.978-51.429-13.846v-.99c-8.9 13.847-16.813 14.836-29.67 4.946-6.923-4.945-10.88-11.868-14.835-19.78-1.978-3.957-4.945-7.913-8.902-8.902-17.802-4.945-27.692-17.802-31.648-33.626 0-1.978 0-3.956-.989-4.945-.989 0-3.956.989-4.945 1.978-9.89 9.89-19.78 9.89-27.692-1.978-8.902-11.868-11.869-24.726-11.869-38.572 0-2.967-.989-5.934-1.978-7.912-3.956-6.923-4.945-15.824-8.9-24.725 0-.99 0-1.978-.99-2.967-2.967 2.967-6.923 5.934-10.879 6.923-12.857 8.9-25.714 4.945-30.66-10.88-3.955-18.79-3.955-35.604 2.968-52.417 2.967-6.923 3.956-13.846 1.978-21.758-1.978-4.946 0-12.858 0-17.803 0-5.934-3.956-7.912-4.945-12.857 0-.989-1.978-.989-2.967 0-15.825 4.945-25.715-5.934-26.704-20.77zm13.846-5.934c0 3.956-.989 9.89 2.967 11.868 3.956.989 8.902-1.978 12.858-1.978.989-.99 1.978-3.956 1.978-5.934.989-4.945 2.967-10.88 2.967-14.835 0-10.88 1.978-20.77-1.978-32.638-1.978 2.967-2.967 4.945-4.945 6.923-6.924 10.88-12.858 21.759-13.847 36.594zm11.869-129.561c-3.957 9.89-.99 12.857 8.9 14.835 1.979.99 2.968 0 3.957-2.967 3.956-7.912 8.9-14.835 13.846-21.758 7.912-6.923 7.912-15.825 13.846-22.748l-.989-.989c-4.945 1.978-9.89 3.956-13.846 6.923-10.88 6.924-20.77 14.836-25.714 26.704zm16.813 231.43c-1.978 8.9-1.978 18.79 1.978 26.703 1.978 3.956 2.967 5.934 6.923 2.967 3.956-1.978 5.934-4.945 8.901-5.934 2.967-1.978 2.967-3.957 1.978-8.902-3.956-10.879-6.923-22.747-10.88-34.615 0-.99-1.977-1.978-1.977-2.967h-1.978c-.99 7.912-4.945 14.835-4.945 22.747zm0-157.254c-1.978 9.89 0 18.791 4.945 26.703 3.956 8.901 13.846 8.901 18.791 1.978 1.978-1.978 3.956-5.934 4.945-8.9l5.934-12.858c-.989 3.956-.989 8.901-1.978 12.857-1.978 2.967-1.978 6.923-2.967 8.901-3.956 7.912-8.9 11.869-16.813 11.869-3.956 0-5.934-.99-7.912-.99-8.901 14.836-7.912 30.66 3.956 43.517 0 1.978 3.956 2.967.989 4.945-4.945 17.802-.99 32.638 14.835 43.517 1.978 2.967 2.967 4.945.99 8.901-4.946 10.88-2.968 20.77 4.944 27.692l13.846 8.901c4.945 2.968 9.89.99 14.836-2.967-2.967 5.935-5.934 7.913-10.88 8.902-.989.989-1.978 1.978-1.978 4.945 3.957 16.813 9.89 32.637 30.66 36.593.989 1.978 1.978 2.967 1.978 4.945l1.978 10.88c2.967 4.944 5.934 7.912 11.868 7.912s12.857 0 14.835-6.924c2.967-3.956 3.956-8.9 3.956-12.857 3.956 6.923 2.967 20.77-6.923 25.715-.989.989-1.978 3.956-1.978 3.956 0 16.813 10.88 27.692 26.704 29.67 2.967.99 4.945 1.978 6.923 3.956.989 3.956 2.967 7.912 4.945 8.901 7.912 6.923 16.813 7.912 24.725 4.945 4.945-1.978 9.89-.989 13.846 4.945 8.902 10.88 20.77 12.858 33.627 13.847 14.835 0 15.824.989 12.857-14.836-.989-4.945-4.945-9.89-7.912-15.824 1.978.99 3.956 1.978 4.945 2.967 7.912 6.923 9.89 15.824 11.868 25.715 0 2.967 0 4.945 2.967 7.912 13.846 8.9 29.67 12.857 45.495 8.9 7.912-3.955 7.912-3.955 3.956-9.89-4.945-8.9-13.846-11.867-19.78-15.824-28.682-16.813-49.451-38.571-62.308-67.253-9.89-21.758-10.88-43.516 0-65.274 0-2.968 0-2.968-2.967-3.957-5.934-1.978-9.89-6.923-13.846-10.879-7.913-7.912-11.869-17.802-16.814-27.692-.989-1.978-.989-3.956-3.956-3.956l-20.77-2.967c-19.78-2.967-30.659-10.88-35.604-28.682 0-3.956-1.978-6.923-2.967-11.868-1.978-7.912-4.945-16.813-4.945-25.714.99-13.846 2.967-26.704 4.945-39.56.99-6.924 1.978-13.847 2.967-19.781h-.989c-.989 1.978-.989 3.956-1.978 5.934-4.945-5.934-8.9-10.88-5.934-17.802.99-.99.99-2.967.99-3.956l4.944-35.605c.99-7.912.99-7.912 9.89-7.912l.99-.989c0-2.967.989-7.912.989-11.868 3.956-17.802 5.934-35.605 7.912-54.396 0-4.945 2.967-5.934 8.9-5.934 21.76 0 43.517 5.934 67.254 8.901 1.978.99 3.956 0 4.945-2.967 9.89-12.857 22.747-21.758 40.55-22.747 1.977 0 2.966-.99 5.933-.99 17.803-11.867 35.605-12.856 55.385-2.966 6.923 2.967 12.857 7.912 18.792 11.868 0 0 0 .989-.99.989-.988-.989-2.966-1.978-4.945-2.967-21.758-15.824-46.483-18.791-68.242-1.978-.989.989-3.956.989-4.945 1.978-6.923 1.978-13.846 2.967-19.78 5.934-8.901 4.945-14.835 12.857-19.78 20.77 10.879 4.944 14.835 12.857 19.78 22.747 1.978-8.901 3.956-17.803 7.912-25.715 7.912-14.835 21.759-20.769 38.572-22.747-13.846 3.956-26.704 9.89-33.627 22.747 8.901 4.945 15.825 11.868 17.803 20.77.989.989 2.967 1.978 4.945 1.978 1.978 0 2.967-1.978 3.956-3.956 1.978-5.935 2.967-9.89 5.934-13.847.989-1.978.989-3.956.989-4.945 1.978-2.967 2.967-6.923 4.945-8.9 6.923-8.902 16.813-10.88 27.692-10.88-16.813 1.978-24.725 8.901-27.692 18.791 10.879 2.967 16.813 10.88 19.78 20.77h.99v-7.913c.988 1.978 2.966 4.946 4.944 8.902 2.967-2.967 5.934-6.924 8.901-8.902l.99 4.946c2.966-.99 4.944-3.957 6.922-3.957 15.825 2.968 31.649 3.957 46.484 6.924 4.945.989 5.934 1.978 5.934 6.923 0 5.934 6.923 14.835 12.857 16.813 2.967.989 6.924 2.967 4.945 7.912 0 2.967 1.979 4.945 4.946 5.934 1.978.99 2.967 2.967 1.978 3.956 0 19.78-1.978 40.55-2.967 60.33 0 1.978.989 2.967.989 5.934 1.978-1.978 3.956-1.978 5.934-3.956 5.934-3.956 11.868-9.89 16.813-14.835 8.901-6.923 18.791-11.868 30.66-10.88 4.944 0 8.9 0 10.878 3.957 0 .989.99 1.978 1.979 1.978 4.945 2.967 6.923 6.923 5.934 10.879-.99 7.912-1.978 14.835-3.956 20.77-1.978 4.944-1.978 9.89 1.978 14.834 2.967 3.957 7.912 5.935 12.857 2.967 0 0 .989-1.978 2.967-1.978 4.945.99 7.912-2.967 9.89-5.934 9.89-9.89 20.77-17.802 33.626-19.78 6.924-.989 15.825-2.967 20.77 5.934 0 .99.989.99.989.99 3.956.988 4.945 5.933 4.945 9.89-.99 7.911-.99 15.824-2.967 22.747 0 3.956 0 5.934 1.978 8.9 3.956.99 5.934 4.946 7.912 7.913 1.978 6.923 4.945 13.846 7.912 20.77 1.978 3.955 3.956 5.933 8.901 1.977 4.945-4.945 7.912-12.857 9.89-19.78 2.967-11.868 2.967-22.747 5.934-35.605.99-3.956 0-8.9 0-12.857-.989-.989-.989-.989-1.978-.989-7.912 5.934-13.846 13.846-21.758 19.78l-.989-.988c4.945-5.935 9.89-13.847 14.835-21.759 1.978-1.978 5.934-2.967 7.912-4.945 1.978 0 2.967-1.978 2.967-3.956 1.978-8.901-.989-18.791-3.956-26.703-1.978-5.934-6.923-6.923-10.879-2.967-3.956 3.956-6.923 7.912-8.9 12.857.988-4.945 3.955-8.901 6.922-13.846 3.956-5.934 9.89-5.934 13.846-.99.99 0 .99 0 1.978.99l.99-.99c-2.968-10.879-6.924-21.758-10.88-32.637-1.978-4.945-4.945-10.879-9.89-15.824-6.923-9.89-19.78-6.923-24.725 2.967-1.978 3.956-1.978 6.923-3.956 10.88l-1.978 10.878c-.99-8.9-.99-16.813 1.978-25.714 3.956-5.934 7.912-10.88 16.813-11.868h7.912c-6.923-8.901-11.868-16.814-18.791-23.737-.99-.989-2.967-1.978-5.934-.989-8.901 1.978-12.857 7.912-13.847 19.78-5.934-11.868 0-20.769 13.847-27.692 0-.989 0-1.978-.99-2.967-4.944-4.945-10.878-9.89-16.813-15.824l-10.879-5.934c-5.934-2.967-8.9 0-8.9 5.934 0 .989 0 2.967.988 3.956.99 3.956 1.978 7.912 2.967 12.857 0 1.978-.989 3.956-.989 4.945-.989 0-3.956 0-3.956-.989-2.967 0-3.956-1.978-4.945-2.967-3.956-1.978-7.912-5.934-11.868-8.9-3.956 11.867 0 22.746 0 33.626-3.956-8.902-8.901-18.792-7.912-29.67.989-9.891 6.923-12.858 15.824-8.902.989 1.978 1.978 2.967 3.956 3.956-.989-8.901-.989-17.802 9.89-19.78-9.89-6.923-19.78-14.835-31.648-16.813-1.978-.99-3.956-.99-6.923-.99-8.901.99-12.858 7.913-8.901 15.825 2.967 2.967 3.956 3.956 4.945 5.934.989 1.978 1.978 3.956 1.978 5.934-1.978.989-2.967.989-4.945.989h-13.847c-9.89 2.967-13.846 8.901-7.912 17.802v.99c-6.923-6.924-6.923-14.836 0-19.781 3.956-2.967 7.912-3.956 11.868-5.934.99 0 1.978-.99 2.967-.99-1.978-4.944-4.945-10.878-1.978-17.801 1.978-4.945 6.924-7.913 12.858-8.902-5.934-13.846-20.77-21.758-33.627-18.79-3.956.988-5.934 0-6.923-2.968-2.967-3.956-6.923-9.89-10.88-12.857-4.944-4.945-14.834-6.923-21.757.989l6.923 15.824c.989.99 2.967 3.956 3.956 4.945 8.9 5.934 12.857 13.846 17.802 21.759-4.945-4.945-9.89-11.869-16.813-15.825-5.934-5.934-12.857-4.945-19.78 0-6.924 3.956-6.924 4.945-1.979 11.869 3.956 5.934 5.934 10.879 5.934 15.824-6.923-8.901-14.835-17.802-17.802-27.693 1.978-.989 2.967-.989 4.945-.989 1.978-2.967 4.945-3.956 6.923-4.945 2.967-1.978 5.934-2.967 9.89-3.956-3.956-11.868-7.912-22.747-21.758-26.703-9.89-2.967-17.802.989-23.736 9.89-.99-3.956.989-5.934 4.945-8.901 1.978-1.978 4.945-2.967 7.912-3.956-7.912-13.846-38.571-12.857-57.363-4.945l4.945 14.835c6.923-.99 10.88.989 11.868 6.923 0 3.956-.989 8.901-1.978 12.857-.989 1.978-2.967 3.956-3.956 5.934l-2.967-15.824c-.989 1.978-3.956 3.956-5.934 6.923-2.967-9.89-7.912-19.78-9.89-29.67-6.923-26.704-3.956-53.407 15.824-75.165 1.978-2.967 2.967-4.945 3.956-7.912-9.89-2.968-11.868-3.957-13.846-7.913 8.901 4.945 16.813 3.956 21.759-3.956-5.935-2.967-9.89-5.934-15.825-8.9.99-.99.99-.99.99-1.979 2.966 1.978 4.944 3.956 6.922 4.945 2.967.99 5.935.99 7.913.99v-.99c-12.858-9.89-22.748-23.736-22.748-41.538-4.945 7.912-2.967 15.824-1.978 24.725-2.967-6.923-3.956-11.868-3.956-17.802 0-3.956-.989-4.945-3.956-3.956-2.967.989-4.945.989-5.934 2.967-2.967 1.978-4.945 4.945-7.912 6.923 0-.99 0-3.956.989-6.923-1.978 0-4.945-.99-5.934-.99h-5.934c-32.638 0-65.275 5.935-95.935 15.825-25.714 7.912-48.461 19.78-69.23 36.594-30.66 30.659-52.418 67.252-69.232 107.802 0 .791 0 1.583-.494 1.88l19.286-4.847c20.769-4.945 42.527-9.89 63.297-6.923 12.857 1.978 21.758 8.901 25.714 19.78v8.901c10.879-3.956 21.758-6.923 32.637-7.912 16.814-1.978 31.649 1.978 44.506 14.835 0 .99.989 2.967 2.967 3.957 1.978-2.968 4.945-5.935 6.923-6.924 10.88-8.9 20.77-16.813 34.616-19.78 15.824-2.967 24.725.99 31.648 14.835.99 2.967 1.978 4.945 3.956 7.912-5.934 1.978-10.879 0-13.846-5.934-2.967-5.934-8.901-8.9-14.835-7.912-5.934.99-11.868 2.967-16.814 5.934-10.879 4.945-21.758 12.858-29.67 22.748-.989.989-1.978 2.967-3.956 3.956h-.989l-1.978-4.945c-4.945-9.89-13.846-16.814-25.714-18.792-13.847-1.978-25.715 0-36.594 3.956l-24.725 8.902c0-1.978.989-2.967.989-3.956.989-5.935 1.978-9.89 1.978-14.836-.99-9.89-18.792-20.769-27.693-16.813-.989.99-.989.99-1.978.99-28.681 15.823-50.44 39.56-62.308 71.208-.989 1.978-.989 3.956-1.978 7.912 13.847 1.978 21.759-9.89 31.649-16.813-.99 2.967-2.967 4.945-3.956 7.912-2.967 6.923-5.934 13.846-9.89 21.758-2.967 9.89 0 13.847 8.9 18.792-8.9.989-12.856-3.956-13.845-10.88v-13.846c-7.913 3.956-14.836 2.967-21.759-.989-2.967 9.89-5.934 19.78-7.912 28.682 0 8.9 2.967 11.868 11.868 10.879 4.945 0 8.901 0 12.857-.99-5.934 4.946-12.857 8.902-19.78 7.913-6.923 0-10.879-4.945-13.846-10.88-3.956 5.935-7.912 9.891-9.89 14.836-6.923 12.857-6.923 27.692-.99 40.55 2.968 5.934 6.924 5.934 9.891 1.978 1.978-2.967 3.956-4.945 5.934-8.901 1.978-3.957 3.956-8.902 5.934-13.847.99 0 .99.99 1.978.99-2.967 7.911-3.956 16.813-7.912 24.725-1.978 3.956-5.934 7.912-12.857 6.923-2.967-.99-3.956.989-4.945 3.956zm36.593-194.836.495-.099c-.1.1-.297.1-.495.1zm18.792-12.857v-4.945c20.769-54.396 56.373-92.967 110.77-114.726 24.725-9.89 52.417-17.802 81.098-19.78 5.934-.99 13.847-.99 21.759-1.978h.989c7.912 0 7.912 0 7.912 8.901 0 3.956.989 8.901 1.978 12.857 0 3.956 0 5.934-2.967 7.912-50.44 33.627-93.957 65.275-124.616 115.715-.989 1.978-1.978 4.945-2.967 3.956-1.978 0-3.956-1.978-3.956-3.956-6.923-9.89-17.802-12.857-29.67-13.846-18.792-1.978-38.572 2.967-55.385 9.89zm.989 440.111c0 7.912 1.978 16.814 7.912 22.748 0 2.967.989 4.945 3.956 2.967 2.967-.99 5.934-6.923 4.945-8.901-4.945-5.935-10.88-11.869-16.813-17.803zm3.956-445.056c2.967-.99 3.956-1.978 4.945-1.978 14.835-3.956 29.67-7.912 44.505-7.912 15.825 0 29.67 3.956 39.56 18.791 15.825-26.703 32.638-50.44 55.386-71.209 20.769-20.77 43.516-36.594 69.23-49.45 0-6.924 0-12.858-.988-19.781h-4.945c-38.572 1.978-75.165 8.901-109.78 25.714-44.507 21.759-77.144 54.396-97.913 101.869zm7.912 180c4.945-4.945 7.912-11.868 9.89-16.813.989 3.956 2.967 8.901 8.901 11.868 6.923.99 10.88-2.967 13.846-6.923-2.967 9.89-13.846 10.88-22.747 2.967-2.967 1.978-6.923 5.934-9.89 8.901zm43.516 26.704 29.67 2.967v-.99l-1.977-1.977c1.978-.99 1.978-3.956 2.967-5.934 2.967-1.978 2.967-3.956 4.945-7.912 2.967-2.967 6.923-4.945 8.901-8.901 1.978-1.979 2.967-3.957 3.956-4.946l-.989-.989c-4.945 1.978-8.901 8.902-13.846 9.89 3.956-2.966 5.934-6.923 9.89-9.89-.989-.989-.989-.989-2.967-.989v-.989c7.912.99 14.835.99 23.736 1.978v-1.978c-19.78-2.967-38.571-4.945-59.34-8.9-.99 13.845-1.979 25.714-4.946 39.56zm3.956 82.088c.99 11.868 8.902 23.736 21.759 26.703 11.868 2.967 24.725 4.945 38.571 5.935v-7.913c-3.956-4.945-5.934-11.868-7.912-16.813-.989-2.967-.989-3.956-3.956-3.956l-14.835-1.978c-10.88-.989-21.758-2.967-32.638-3.956-.989 0-.989.989-.989 1.978zM356.1 293.792s0-2.967.99-3.956c15.823-33.626 39.56-61.319 66.263-87.033 14.835-13.846 33.627-23.737 51.429-33.627 2.967-1.978 4.945-.989 8.9 1.978l6.924 8.902c-6.923 7.912-14.835 16.813-21.758 25.714-20.77 26.703-39.56 56.374-49.451 90-.989 3.956-2.967 5.934-5.934 2.967-9.89-9.89-25.714-7.912-39.56-5.934-2.968 0-7.913 1.978-10.88 2.967-1.978 0-4.945-.989-6.923-1.978zm7.912-2.967c16.813-4.945 33.627-7.912 51.429 3.956 7.912-21.758 16.813-42.527 28.681-61.319 11.869-18.791 25.715-36.593 41.539-53.406-1.978-1.979-5.934-4.946-6.923-7.913-38.572 13.847-112.748 89.012-114.726 118.682zm8.901 243.298c-4.945 17.802-3.956 34.615 5.934 50.44.99 1.977.99 4.944.99 7.911-1.979 9.89 0 19.78 4.944 28.682 6.924 12.857 17.803 19.78 30.66 26.703l3.956-1.978c6.923-3.956 12.857-8.9 19.78-12.857 17.803-7.912 35.605-9.89 55.385-9.89h5.934v-20.77c-2.967-6.922-1.978-13.846 0-20.769 1.978-5.934.99-7.912-3.956-9.89-2.967-.989-3.956-3.956-3.956-7.912 0-7.912-.989-16.813-3.956-24.725-4.945 1.978-8.901 2.967-12.857 3.956-.99 0-.99 0-.99-.99 12.858-6.922 12.858-7.911 9.89-11.867-4.944 1.978-8.9 3.956-13.845 2.967 2.077-.693 3.758-1.88 5.538-2.572-9.099 1.385-18.099.198-26.308-4.351 0 .989 0 .989-.989 1.978 4.946 1.978 8.902 3.956 11.869 5.934-2.967 0-6.923-.99-11.869-2.967-3.956 11.868-.989 24.725 2.967 36.593-7.912-11.868-10.879-25.714-8.9-41.538h-7.913c2.967-.99 5.934-1.979 9.89-3.957l-20.769 2.968h3.956v1.978l-12.857-4.946c-5.934 11.869-3.956 24.726-.99 37.583-2.966-5.934-4.944-12.857-6.922-17.802-.99-2.967-.99-4.945-3.956-3.956-1.978.989-5.934 0-7.912 0V536.1c1.978 0 1.978 0 3.956-.99 1.78 0 2.769-.79 3.66-.988-9.792.89-17.605-2.077-26.408-8.901 0 0 0 .989-.989 1.978 1.978 2.967 5.934 4.945 8.901 6.923h-.989c-2.967-.99-6.923-2.967-8.9-5.934-.99 2.967-1.979 4.945-1.979 5.934zm3.956-29.67c0 2.966-.989 6.922 2.967 9.89.99-.99 2.967-1.979 3.956-2.968 4.946-5.934 9.89-11.868 17.803-11.868 9.89-2.967 13.846 0 11.868 9.89v.99c2.967-.99 6.923-5.935 5.934-8.902 0-.989-.989-.989-2.967-1.978 2.967-6.923 6.923-12.857 9.89-19.78.99-.99 1.978-2.967-.989-5.934-1.978-1.978-1.978-3.956-2.967-6.923-2.967-5.934 1.978-13.847 9.89-15.825 5.934-1.978 12.857.99 15.824 6.924 2.967 5.934.99 13.846-2.967 17.802-3.956 2.967-4.945 6.923-2.967 9.89 0 .989.99.989 1.978.989l.99-.99c-.99-3.955.988-6.922 3.955-8.9 1.978-.99 1.978-3.956 3.956-6.923 1.979-6.923.99-13.846-4.945-19.78 1.978 1.977 4.945 2.966 5.934 4.944 3.957 6.924 1.979 18.792-4.945 24.726-1.978 1.978-1.978 3.956-.989 6.923 1.978 5.934.99 12.857 0 17.802-.989 3.956-1.978 8.901.99 12.857 2.966-2.967 3.955-5.934 5.934-8.9 3.956-6.924 9.89-13.847 19.78-15.825 2.967 0 3.956-.989 3.956-3.956 0-4.945 1.978-6.923 5.934-9.89 1.978 0 3.956-3.956 4.945-4.945.989-6.923 1.978-12.857 2.967-19.78-.989 0-.989-.99-1.978-.99-2.967 2.968-4.945 6.924-6.923 9.89v-9.89c0-3.956 0-5.934-3.956-6.923l-19.78-1.978c-1.978 0-1.978-.989-3.956-.989v-.989c10.879.99 20.769 1.978 30.659 2.967.989-.989.989-.989.989-1.978-2.967-.989-4.945-1.978-7.912-1.978v-.989c3.956 0 7.912.99 12.857.99.99 0 .99 0 .99-.99L387.748 426.32c-2.968 26.703-6.924 52.418-10.88 78.132zm7.912 20.769c.99 0 3.957.989 6.924 1.978 1.978.989 5.934.989 7.912 0 1.978 0 1.978-3.957 2.967-5.935 0-4.945 1.978-9.89 2.967-15.824-7.912 0-18.791 9.89-20.77 19.78zm18.492 8.928c.102-.027.2-.027.3-.027zm1.289-125.632c1.978-2.967 4.945-5.934 7.912-6.923 2.967-2.967 5.934-5.934 9.89-8.901l-11.868-12.858c-7.912 8.902-10.88 21.759-5.934 28.682zm3.956 284.836c.989 6.923 1.978 14.835 4.945 22.747 8.901 29.67 27.692 50.44 53.407 65.275 25.714 14.835 53.406 20.77 82.088 22.748 33.626 1.978 67.253-3.957 98.901-16.814 36.594-14.835 67.253-38.571 91.979-69.23 8.9-10.88 17.802-21.759 24.725-33.627l-7.912 19.78c1.978-.989 4.945-.989 5.934-1.978 7.912-1.978 11.868 0 15.824 5.934l6.923 13.846c1.978 3.956 3.956 6.923 5.934 10.88 4.945-11.869 8.902-23.737 14.836-32.638 6.923-9.89 13.846-18.791 19.78-28.681-5.934-1.978-13.846-3.956-21.758-5.934-4.946-2.968-12.858-6.924-18.792-9.89 0-.99 0-.99 1.978-1.979 13.847 8.901 30.66 12.858 47.473 11.869-5.934-12.858-13.846-26.704-18.791-40.55-4.945-13.846-7.912-27.692-7.912-43.517-8.902 10.88-16.814 20.77-28.682 26.704 10.88-9.89 18.791-20.77 24.726-34.616-1.978 1.978-2.967 1.978-3.956 2.967-5.935 3.956-12.858 6.923-18.792 9.89-10.879 4.945-18.791 1.978-22.747-8.9-.99-2.968-3.956-6.924-4.945-10.88l-3.956-8.901c-7.912 16.813-8.901 18.791-14.835 23.736-5.935 3.956-20.77 3.956-24.726 0 20.77 1.978 34.616-9.89 29.67-25.714-4.944 4.945-11.868 5.934-19.78 3.956 6.923-1.978 13.847 0 18.792-8.901-19.78 2.967-39.561 2.967-53.407-13.846 2.967 9.89 10.879 15.824 17.802 20.769-5.934-1.978-11.868-5.934-16.813-9.89-4.945-2.967-3.956-1.978-7.912 1.978-.99.989-1.978 2.967-1.978 4.945-.99 4.945 0 8.901 0 12.857-4.945-3.956-5.934-11.868-4.945-20.77 1.978-3.955-1.978-3.955-3.956-5.933-3.956-1.978-5.935-1.978-7.913 1.978-3.956 7.912-12.857 11.868-20.769 8.9 11.868-3.955 18.791-11.867 14.835-21.757-5.934 5.934-13.846 4.945-22.747 4.945 17.802-3.956 17.802-3.956 18.791-7.912-8.9-.99-18.79-.99-28.681-1.978-8.901-.99-16.813-5.935-23.736-14.836-1.978 5.934 1.978 8.901 5.934 11.868 3.956 2.968 6.923 5.935 9.89 9.89-.99 0-.99.99-.99.99-4.944-4.945-11.867-8.902-17.801-12.858-5.935 2.967-7.913 9.89-5.935 21.759-1.978-2.967-1.978-5.934-2.967-8.901 0-1.978-.989-2.967-3.956-2.967-19.78 0-39.56 16.813-42.527 35.604 0 3.956-.99 5.934-3.956 5.934l-16.814 4.945c-.989 0-2.967.99-2.967 1.978-1.978 4.945-1.978 9.89-1.978 14.835 0 1.979-2.967 7.913 1.978 8.902l10.88 2.967c8.9 1.978 19.78 3.956 29.67 6.923 11.868 2.967 13.846 2.967 16.813-9.89.99-1.978.99-3.956.99-6.923 0-.99.988-1.979.988-1.979h.99c.988 3.957 1.977 8.902 1.977 12.858-.989 7.912-2.967 14.835-12.857 17.802 0 0 0 .989-.989 1.978v4.945c-1.978 5.934.99 12.857 3.956 16.813h-.989c-14.835-9.89-30.66-14.835-48.462-15.824-12.857 0-27.692 0-40.55 1.978-17.801 2.967-33.626 8.901-49.45 18.791-13.846 8.901-21.758 22.748-19.78 40.55zm13.846-176.045c5.934 3.956 10.88 1.978 15.824 0 .99 0 1.978-.989 1.978-1.978v-20.769c-6.923.99-15.824 10.88-17.802 22.747zm5.934-223.517c11.868-31.648 25.714-62.308 46.484-88.022 4.945-6.923 11.868-12.857 17.802-18.791 1.978-1.978 3.956-1.978 4.945.989-8.901 12.857-13.846 25.714-16.813 41.538-2.967 17.802 0 33.627 9.89 48.462 1.978 2.967 3.956 5.934 4.945 9.89.99 1.978 0 3.956 0 5.934h-6.923c-.989-.989-2.967-1.978-4.945-2.967-8.901-7.912-17.802-8.901-28.681-3.956-6.924 2.967-12.858 7.912-19.78 11.868h-5.935c0-.989-.989-2.967-.989-4.945zm5.934-.989c19.78-10.879 36.594-20.77 56.374-2.967-16.813-28.681-19.78-56.374-6.923-85.055-23.736 24.725-37.583 55.385-49.45 88.022zm2.967 112.748c2.967-1.978 5.934-3.956 7.912-5.934 2.967-1.978 4.945-5.934 9.89-7.912-4.945-3.956-7.912-8.902-10.879-12.858-7.912 6.923-10.879 20.77-6.923 26.704zm4.945 312.528c1.978-3.956 6.923-9.89 15.825-12.857 10.879-3.956 22.747-4.945 34.615-.989 16.813 3.956 31.649 12.857 43.517 23.736-9.89-3.956-19.78-8.9-30.66-11.868-8.9-2.967-17.802-6.923-28.681-7.912-11.868-.989-23.737.99-34.616 9.89zm14.836-193.847h16.813v-22.747c-8.901 1.978-16.813 13.846-16.813 22.747zm19.42 6.346c.755-.214 1.448-.411 2.338-.411-.791.197-1.583.296-2.374.395zm.36-126.016c5.934-4.945 10.879-9.89 17.802-15.824-3.956-3.957-6.923-7.913-10.88-12.858-8.9 9.89-10.878 22.748-6.922 28.682zm3.956 258.132c0-5.934 6.923-11.868 14.835-10.879 5.934 0 11.868 5.934 10.88 14.836-7.913-11.869-16.814-8.902-25.715-3.957zm8.901 146.375 6.923 9.89c0 1.978 1.978 1.978 3.956 2.967 2.967 1.978 4.945 1.978 7.912 2.967 9.89 0 18.792-2.967 28.682-5.934-15.825-2.967-31.649-5.934-47.473-9.89zm10.88-340.221 22.746 3.956c7.913.989 7.913 1.978 6.924 9.89-.99.989-.99.989-.99 1.978l-2.966 23.736 22.747 3.956c5.934.99 9.89 1.978 11.868 7.912 0 .99 2.868.99 3.956.99v.988c2.967-.989 6.923-1.978 10.88-2.967.988 0 1.977-1.978 1.977-1.978.99-3.956 2.967-7.912 0-11.868-6.923-9.89-11.868-18.791-18.791-28.681-.989-.99-2.967-2.967-3.956-2.967l-36.594-3.956c-6.923-.99-11.868-.99-17.802-2.967zm8.9-336.265c.99 10.879 7.912 17.802 15.825 25.714 6.923-9.89 18.79-13.846 28.68-19.78-8.9-11.868-29.67-11.868-44.505-5.934zm3.956 482.639c1.978 2.967 1.978 8.9 4.945 8.9 3.956 1.979 8.902 3.957 15.825 3.957 2.967 0 4.945-1.978 4.945-4.945.989-3.956-.99-5.934-3.956-6.923-6.923-.99-13.847-.99-19.78-2.967zm26.704 64.286c3.956-5.934 11.868-9.89 17.802-6.923 6.923 1.978 8.901 9.89 6.923 14.835-3.956-2.967-5.934-7.912-9.89-7.912-4.945-1.978-9.89 0-14.835 0zm15.824-169.122c3.758 0 8.407 4.45 8.901 10.88a72.135 72.135 0 0 1-8.901-10.88zm8.901-41.538c0 .989 0 .989.99 1.978l6.922 11.868c.99-1.978.99-2.967.99-3.956 1.977-14.835 3.955-28.682 5.933-42.528.99-7.912-2.967-11.868-7.912-16.813 0 .989 0 .989-.989 1.978-1.978 14.835-2.967 31.648-5.934 47.473zm29.67 155.275c0-3.956.99-7.912 2.968-10.88 3.956-5.933 9.89-8.9 15.824-10.878-3.956 3.956-6.923 6.923-9.89 10.879-1.978 1.978-1.978 2.967-2.967 4.945-.99 3.956-.99 5.934 3.956 5.934 12.857.989 25.714 1.978 39.56 3.956 19.78 3.956 38.572 7.912 57.363 10.88.99 1.977 1.978 1.977 4.945 1.977-2.967 0-3.956.99-4.945 0-2.967 0-3.956 1.978-3.956 4.945-6.923 12.857-16.813 21.759-29.67 23.737-15.825 2.967-29.67.989-42.528-6.924-8.901-5.934-12.857-14.835-14.835-24.725 0-3.956-1.978-5.934-4.945-5.934-5.934 0-10.88-.989-10.88-7.912zm13.847-110.77c7.912 7.912 26.703 11.869 33.626 7.912-.989-13.846 5.934-25.714 8.901-38.571-17.802-2.967-34.615 14.835-42.527 30.66zm8.9 120.66c.99 10.88 3.957 17.802 11.869 22.747 12.857 7.913 27.692 8.902 41.539 4.945h.989c-.99-1.978-1.978-2.967-2.967-3.956 3.956-5.934 2.967-8.9-5.934-11.868 0-.989.989-2.967.989-4.945-15.825-2.967-30.66-3.956-46.484-6.923zm41.54-418.353c4.945 10.88 10.879 20.77 16.813 31.648 7.912-.989 16.813-5.934 24.725-12.857-10.88-13.846-29.67-25.714-41.539-18.791zm1.977 75.165c6.924 6.923 11.869 12.758 18.693 17.703.395-.593 1.088-2.076 1.088-3.857 2.967-5.934 4.945-13.846 6.923-21.758.989-1.978.989-3.956 4.945-2.967 1.978 0 5.934-.99 8.901-1.978 1.978 0 4.945 0 4.945.989 0 3.956 3.956 6.923 4.945 11.868 5.934 12.857 6.923 29.67 5.934 43.517 0 4.945.99 6.923 4.945 6.923.99-.99.99-1.978.99-3.956 1.977-20.77-.99-40.55-12.858-59.341-.989-4.945-.989-4.945 2.967-6.923 3.956-.99 6.923-1.978 9.89-3.956 3.956-3.956 3.956-3.956 8.902 0 9.89 9.89 16.813 20.77 20.769 33.626 6.923 23.737 8.9 47.473 6.923 71.21v4.944c2.967 4.945 5.934 8.901 9.89 13.847h.99c0-5.935 0-10.88.988-14.836 1.978-24.725.99-48.461-4.945-72.198-4.945-16.813-12.857-33.626-23.736-47.472-3.956-5.934-10.88-9.89-18.792-13.847-.989 4.945-.989 8.902-.989 12.858-1.978-5.934-3.956-11.869-5.934-15.825-2.967-3.956-4.945-3.956-6.923 0-3.956 5.934-7.912 8.901-11.868 10.88 4.945-6.924 11.868-10.88 10.88-19.78-4.946 6.922-9.891 12.856-17.803 16.812-7.912 2.968-15.824 4.946-23.736 5.935 3.956 4.945 9.89 2.967 16.813 3.956-7.912 2.967-12.857 2.967-20.77.989 3.957 9.89 6.924 14.835 17.803 14.835-2.967 0-5.934.989-8.901.989-.99 0-1.978 1.978-2.967 2.967-2.967 4.945-5.934 10.88-8.902 13.846zm.99 503.408c.989.99 1.978.99 1.978 0a57.899 57.899 0 0 1 36.593 0c10.88 1.978 20.77 7.913 22.747 20.77 3.956 12.857 0 23.736-8.9 33.626-.99 1.978-3.957 2.967-4.946 5.934h1.978c11.868 0 20.77-5.934 28.682-14.835 11.868-12.857 14.835-29.67 13.846-46.484 0-19.78-12.857-35.604-32.638-38.571-1.978 0-2.967.989-4.945 1.978-14.835 12.857-31.648 25.714-50.44 33.626-1.977.99-2.966 2.967-3.956 3.956zm9.89-324.396c-.99-4.945 0-9.89 3.956-13.846 5.934-3.957 12.857-2.968 17.802.989 3.956-4.946 4.945-10.88 10.88-12.858-6.924 5.934-6.924 13.847-7.913 21.759-2.967-4.945-5.934-9.89-12.857-9.89-7.912 0-9.89 6.923-11.868 13.846zm7.81-161.282.102.072c-.396.396-.297.297-.1-.099zm1.09 6.006 31.65 18.792c0-16.814-.99-34.616-8.902-49.451-3.956 0-6.923 1.978-11.868 1.978-1.978 10.88-2.967 21.758-10.88 28.681zm16.814 226.485c9.89 5.934 20.77 5.934 32.637 5.934-2.967-13.846 3.957-25.715 7.913-40.55-6.924 0-12.858.99-17.803 4.945-9.89 5.934-17.802 14.836-22.747 25.715zm19.78-263.078c10.88 20.77 13.846 42.528 9.89 65.275 0 .989.99 2.967 1.978 3.956 5.935 6.923 11.869 12.857 18.792 19.78l4.945 4.945h1.978v-16.813c1.978-20.77-1.978-41.539-9.89-60.33-3.956-8.901-9.89-17.802-17.803-24.725-3.956 1.978-6.923 3.956-9.89 6.923z"/></svg>