<svg xmlns="http://www.w3.org/2000/svg" viewBox="0 0 1000 1000"><path d="M500.496 5c272.968 0 494.507 221.54 494.507 495.002 0 270.495-218.572 495.001-495.001 495.001C229.506 995.003 5 776.431 5 500.002 5 229.506 223.572 5 500.496 5zM165.22 461.925c-21.758 161.209 83.078 321.43 244.287 367.913 23.736 7.912 48.462 9.89 75.165 12.857 15.824 0 29.67-12.857 26.703-29.67 0-10.88-10.879-20.77-21.758-31.649-1.978-2.967-9.89-2.967-18.791-2.967-160.22-21.758-270.99-172.088-238.353-330.33 31.649-152.309 195.825-252.2 349.122-208.683 158.243 45.495 241.32 205.715 184.946 361.98-10.88 29.67-4.945 45.494 15.824 53.406 18.792 7.912 35.605-2.967 45.495-31.648 83.077-220.55-83.077-456.925-321.43-456.925-175.055 0-314.506 123.627-341.21 295.716zm126.594 31.648c-8.901 81.1 39.56 164.176 114.726 201.759 2.967 0 5.934 2.967 7.912 2.967 21.758 9.89 40.55 4.945 48.462-13.846 7.912-15.824 2.967-32.638-20.77-42.528-73.187-37.582-104.835-112.747-78.132-185.935 23.737-69.23 96.924-112.747 172.089-98.9 75.165 15.823 125.605 80.11 120.66 161.208 0 23.737 10.879 39.561 29.67 42.528 20.77 0 31.648-10.88 34.615-37.583 19.78-143.407-136.484-271.978-281.869-219.56-83.077 23.736-142.418 98.9-147.363 189.89zm230.44 195.825c4.946 10.879 15.825 18.791 23.737 24.725 16.813 7.912 96.923-32.637 126.594-75.165 2.967-7.912 0-29.67-7.912-34.615-7.913-8.901-29.67-10.88-37.583-2.967-26.703 23.736-56.374 42.527-89.011 53.406-15.825 5.934-23.737 21.759-15.825 34.616z"/></svg>