<svg xmlns="http://www.w3.org/2000/svg" width="1000" height="1000">
  <path d="M480.837 994.997c19.488-22.086 36.377-42.873 54.566-63.66 64.96-74.056 129.921-149.41 193.583-222.166 2.598-3.897 2.598-6.496 1.299-10.393-62.362-106.535-126.023-213.07-187.086-318.306-42.874-76.654-84.449-149.41-127.323-222.165-1.299-5.197-1.299-6.496 0-10.394C443.16 102.441 471.742 54.37 497.726 6.3c2.599 0 2.599 0 2.599-1.299 7.795 11.693 12.992 22.087 20.787 32.48C604.262 186.89 690.01 335 778.356 483.11c42.873 76.652 88.346 155.904 133.818 233.857 0 2.598 2.599 3.897 3.898 5.197v1.299c-1.3 1.299-3.898 1.299-5.197 3.897-35.079 41.575-70.157 79.252-105.236 120.827-41.575 49.37-83.15 97.44-127.323 146.81zM85.877 724.762c-2.598-2.598-2.598-3.898 0-9.094 94.842-159.803 188.385-322.204 281.928-484.606 3.898-9.094 10.394-16.89 15.59-27.283.001 1.3 2.6 1.3 2.6 3.898 28.582 45.472 55.865 93.543 79.251 140.314 3.898 3.898 3.898 7.796 0 10.394-63.661 113.031-128.622 224.763-196.18 339.094-3.898 2.598-3.898 5.196 0 9.094 40.275 42.874 77.952 85.748 116.928 129.921 2.599 2.598 6.496 3.898 10.394 3.898H540.6c-1.299 2.598-2.598 3.897-2.598 6.496-42.874 46.771-83.15 94.842-123.425 141.613-2.598 2.599-3.898 5.197-3.898 6.497h-85.747c-20.788-27.284-42.874-49.37-66.26-75.355-57.165-66.26-114.33-128.621-172.795-194.881z" style="fill:#000;fill-opacity:1;fill-rule:nonzero;stroke:none;"/>
</svg>
