<svg xmlns="http://www.w3.org/2000/svg" width="1000" height="1000">
  <path d="M508.514 994.39h-21.892c-27.973-27.972-54.73-62.026-82.703-88.783-8.513-3.649-18.243-8.514-24.324-3.649-38.919 7.298-74.19 17.027-109.46 24.325-19.459 6.08-23.107 3.648-30.405-14.595-7.297-36.486-17.027-72.973-29.189-104.595 0-7.297-10.946-19.46-18.243-19.46-31.622-10.945-68.108-21.891-100.946-27.972-24.325-6.081-27.973-9.73-20.676-40.135 8.514-31.622 17.027-69.325 27.973-105.811 0-3.649 0-12.162-3.649-12.162-27.973-35.27-62.027-64.46-90-92.433v-17.027c27.973-29.189 62.027-58.378 90-91.216 3.649-4.865 3.649-12.162 3.649-19.46-10.946-34.054-21.892-71.756-27.973-108.243-7.297-21.892-3.649-24.324 12.162-31.621 38.92-8.514 72.973-18.244 105.811-25.541 15.81-3.649 21.892-9.73 26.757-25.54 7.297-36.487 17.027-69.325 27.973-105.811 3.649-13.379 9.73-17.028 26.757-13.379 35.27 9.73 70.54 21.892 109.46 27.973 6.08 3.649 15.81 0 24.323-2.432 27.973-29.19 54.73-62.027 82.703-91.217h21.892c29.19 29.19 57.162 62.027 86.352 91.217 3.648 2.432 15.81 6.08 21.891 2.432 35.27-6.081 74.19-18.243 105.811-24.324 21.892-7.298 25.54-7.298 32.838 14.594 9.73 36.487 18.243 68.109 27.973 104.595 3.649 12.162 7.297 18.243 21.892 21.892 37.703 7.297 72.973 17.027 109.46 25.54 9.73 3.65 17.027 9.73 13.378 25.541-9.73 38.919-20.676 74.19-27.973 111.892-3.649 6.081 0 21.892 3.649 25.54 27.973 32.838 60.81 62.028 91.216 90v10.947c-30.405 29.189-63.243 57.162-91.216 91.216-3.649 4.865-7.298 13.378-3.649 20.676 7.297 36.486 18.243 72.973 27.973 109.46 3.649 23.107 0 26.756-17.027 32.837-37.703 6.081-71.757 17.027-109.46 27.973-7.297 0-14.594 12.162-18.243 19.46-9.73 35.27-18.243 68.108-27.973 104.594-3.648 10.946-7.297 20.676-21.892 18.243-37.702-10.946-75.405-20.675-113.108-27.973-6.081-4.865-21.892 0-25.54 3.649-29.19 26.757-57.163 60.81-86.352 88.784zM48.784 513.986c18.243 20.676 38.92 38.92 60.811 62.027 3.649-23.108 12.162-41.351 14.595-62.027zm21.892-60.81c42.568-8.514 47.433-12.163 31.622-30.406-10.946 14.594-23.108 24.324-31.622 30.405zm6.081 35.27h47.433c-2.433-12.163-2.433-15.811-6.081-21.892-15.811 3.648-26.757 9.73-41.352 17.027zM95 711.012l3.649 4.865c25.54-10.946 47.432-25.54 68.108-40.135-13.378-17.027-27.973-31.622-45-51.081-12.162 34.054-19.46 63.243-26.757 86.351zm0-422.027c7.298 24.324 14.595 52.297 26.757 83.919 17.027-18.243 31.622-35.27 45-48.649-20.676-14.594-42.567-27.973-64.46-40.135-3.648 0-3.648 0-7.297 4.865zm14.595 452.433c29.19 8.513 57.162 14.594 90 24.324-7.297-27.973-10.946-46.216-17.027-71.757-26.757 14.595-47.432 29.19-72.973 43.784zm0-477.974c25.54 13.379 46.216 30.406 72.973 42.568 6.081-25.54 9.73-46.216 17.027-72.973-32.838 12.162-60.81 18.243-86.351 26.757-3.649 0-3.649 3.648-3.649 3.648zm21.892 155.676c0 3.649 7.297 7.297 7.297 7.297 3.649 0 10.946-3.648 10.946-7.297 6.081-18.243 10.946-37.703 14.595-51.08 0-3.65-3.649-3.65-3.649-7.298-7.297 12.162-18.243 18.243-21.892 27.973-7.297 7.297-7.297 19.46-7.297 30.405zm10.946 126.487c-18.243 58.378-20.676 51.08 24.324 91.216-10.946-30.405-17.027-57.162-24.324-91.216zm18.243-75.406c0 13.379 0 18.244 14.595 18.244h90c10.946 0 18.243-8.514 18.243-18.244 4.865-19.46 4.865-32.838 8.514-51.08 0-3.65 6.08-7.298 9.73-10.947 3.648 0 7.297 3.649 9.729 7.298 4.865 3.648 7.297 10.945 12.162 14.594 7.297 14.595 14.595 29.19 25.54 49.865 20.676-38.919 42.568-71.757 57.163-103.378 3.649-8.514-7.297-21.892-14.595-29.19 0-6.08-8.513-6.08-12.162 0-63.243 25.54-126.486 57.163-190.946 82.703-18.243 7.297-24.324 20.676-27.973 40.135zm3.649 64.46c6.08 31.621 18.243 62.027 21.892 90 6.08 51.081 40.135 76.622 71.756 105.81 3.65-3.648 3.65-7.297 3.65-10.945 3.648-47.433 12.161-94.865 14.594-139.865 0-13.379 3.648-26.757 3.648-42.568 0-19.46 0-23.108-26.756-23.108h-74.19c-18.243 0-23.108 3.649-14.594 20.676zm14.594-126.487h9.73c58.378-29.189 120.406-53.513 177.568-83.919 3.648-3.648 8.513-14.594 3.648-18.243-13.378-32.838-31.621-60.81-53.513-97.297-32.838 32.838-63.243 68.108-93.649 97.297-34.054 25.54-30.405 66.892-43.784 102.162zm40.136 311.352c0 46.216 13.378 60.81 38.918 57.162 0-26.757-25.54-35.27-38.918-57.162zm0-448.784c13.378-15.811 34.054-37.703 51.08-51.081-38.918 0-54.73 13.378-51.08 51.08zm13.378-68.108c25.54-4.865 47.432-12.163 69.324-18.244-13.378-26.756-27.973-47.432-40.135-70.54l-3.649 4.865c-7.297 24.324-14.594 53.513-25.54 83.919zm3.649 600.81c3.648 14.595 7.297 32.839 10.945 46.217 6.082-46.216 6.082-46.216-10.945-46.216zm37.702 54.73h2.433c7.297-12.162 15.81-25.54 25.54-43.783h-21.892c-3.648 14.594-6.08 27.973-6.08 43.784zm9.73 38.92 4.865 4.864c23.108-8.513 52.297-15.81 81.486-23.108v-7.297c-9.73-9.73-24.324-25.54-38.919-35.27-3.648-3.649-12.162-3.649-12.162 0-13.378 17.027-23.108 38.919-35.27 60.81zm0-166.622c-3.649 29.189 12.162 43.784 32.838 57.162 21.892-34.054 40.135-64.46 58.378-97.297 4.865-6.082 0-18.244-8.513-21.892-9.73-9.73-27.973-18.244-38.92-27.973-3.648-3.649-8.513-10.946-8.513-15.811 0-3.649 8.514-7.297 12.162-7.297h75.406c-20.676-35.27-40.135-68.109-60.81-96.082-4.866-7.297-21.893-7.297-34.055-3.648-2.432 0-9.73 10.946-9.73 17.027-3.648 24.324-3.648 47.432-6.08 71.757-3.65 40.135-7.298 83.919-12.163 124.054zm12.162-604.46c6.081 10.946 9.73 20.676 15.811 27.973 12.162 21.892 15.81 21.892 26.757 0-14.595-10.946-26.757-20.676-40.135-27.973zm15.811 333.243c-6.081 29.19-2.432 29.19 15.81 24.325-3.648-7.298-8.513-13.379-15.81-24.325zm15.81-349.054c21.893 26.757 29.19 30.406 42.568 10.946-13.378-2.432-29.189-7.297-42.567-10.946zm18.244 673.784c-7.297 15.811-4.865 19.46 10.946 23.108 31.622 7.298 68.108 13.379 102.162 29.19 42.568 13.378 79.054-3.649 119.19-15.811 0 0 0-2.433-3.65-2.433-54.729-41.351-109.459-80.27-164.188-116.756-6.082-7.298-14.595-3.65-18.244 3.648-12.162 27.973-31.621 54.73-46.216 79.054zm0-571.622c14.595 29.19 34.054 58.379 46.216 87.568 7.298 6.081 14.595 6.081 21.892 2.432 14.595-6.08 30.406-13.378 45-18.243 6.081-3.649 13.379 0 19.46 0 0 4.865 0 12.162-3.649 18.243-9.73 18.244-15.81 35.27-30.405 58.379 42.567 0 75.405 0 111.892-2.433 9.73 0 18.243-17.027 25.54-26.756 0 0-7.297-14.595-15.81-18.244C515.81 276.823 462.296 241.553 410 206.282c-18.244-19.46-35.27-19.46-57.163-12.162-12.162 3.649-14.594 8.514-7.297 18.243zm17.027 620.271c25.54 38.919 51.081 42.568 85.135 20.676-30.405-7.298-55.946-14.595-85.135-20.676zm3.649-192.162c13.378 6.08 17.027 13.378 21.892 18.243 3.648-4.865 7.297-4.865 7.297-8.514 3.649 0 3.649-3.648 3.649-9.73zm3.648-126.487c15.811 26.757 34.054 58.379 51.082 90 7.297 9.73 15.81 13.379 26.756 13.379h104.595c7.297 0 13.378-7.298 21.892-13.379 17.027-27.973 36.486-58.378 49.865-90 3.648-8.513 3.648-19.46 0-25.54-13.379-29.19-32.838-58.379-49.865-92.433-8.514-10.946-14.595-14.595-25.54-14.595H447.702c-10.946 0-19.46 3.65-26.756 14.595-17.028 34.054-35.27 63.243-51.082 92.433-3.648 6.08-3.648 17.027 0 25.54zm13.379-360c4.865 0 8.513 3.649 15.81 3.649 14.595-3.65 32.838-7.298 48.65-10.946v-3.65c-15.812-2.432-26.757-6.08-41.352-9.729-2.433 0-10.946 3.649-18.243 3.649-2.433 3.649-2.433 9.73-4.865 17.027zm30.405 514.46c0 3.648 7.298 12.162 10.946 15.81 53.514 38.92 109.46 75.406 159.325 111.892 20.675 18.244 36.486 18.244 58.378 10.946 9.73-3.648 15.81-10.946 6.081-19.46-13.378-27.972-31.622-57.161-43.784-86.35-9.73-7.298-17.027-7.298-26.756-3.65-12.163 7.298-25.541 13.38-40.136 18.244-7.297 3.649-14.594 0-21.892 0 0-4.865 0-10.946 3.65-18.243 7.296-17.027 18.242-35.27 32.837-57.162-43.784 0-80.27 0-115.54 3.648-8.514 0-15.811 14.595-23.109 24.325zm0-336.892c3.649 3.648 7.298 9.73 10.946 19.459 7.297-13.378 12.162-23.108 15.811-30.405v-3.649c-12.162 3.649-19.46 7.297-26.757 14.595zm0-150.811c58.379 42.567 116.757 79.054 170.27 119.189 10.947 6.081 14.595 0 23.109-6.081 13.378-26.757 27.973-48.649 41.351-74.19 9.73-17.026 9.73-21.891-13.378-25.54-27.973-7.297-57.162-13.378-86.352-26.757-47.432-17.027-86.351-3.648-135 13.379zm3.649-70.54c23.108 8.513 41.351 10.945 57.162 15.81 3.649 0 12.162-4.865 12.162-7.297V53.039c-21.892 18.243-42.567 36.486-69.324 57.162zm3.649 775.946c23.108 25.54 43.783 43.783 65.675 65.675V882.5c0-3.649-8.513-7.297-12.162-7.297-15.81 3.648-34.054 7.297-53.513 10.946zm87.567 65.675c21.892-21.892 43.784-40.135 65.676-65.675l-54.73-10.946c-3.649-3.65-10.946 3.648-10.946 7.297zm0-837.973c0 4.865 7.297 15.81 10.946 12.162 18.243-4.865 36.487-7.297 54.73-15.81-21.892-20.677-43.784-38.92-65.676-60.812zm40.135 739.46c42.568 18.243 62.027 18.243 68.108-7.298-12.162-7.297-12.162-7.297-68.108 7.298zm0-706.622c29.19 7.297 55.946 14.594 82.703 20.675-24.324-37.702-40.135-41.351-82.703-20.675zm7.298 533.919c25.54-4.865 27.973-8.514 13.378-30.406-3.649 12.163-7.297 18.244-13.378 30.406zm35.27-59.595c-7.297 8.514 3.649 23.108 13.378 32.838 0 4.865 12.162 0 15.811 0 62.027-29.19 119.19-57.162 181.216-81.486 21.892-9.73 30.406-23.109 34.055-41.352 3.648-13.378 0-17.027-12.163-17.027h-93.648c-10.946 0-19.46 3.649-19.46 14.595-3.648 12.162-3.648 30.405-7.297 47.432 0 6.081-7.297 9.73-10.946 17.027-1.216-3.648-9.73-7.297-13.378-13.378-9.73-17.027-20.676-34.054-32.838-54.73-21.892 34.054-38.92 64.46-54.73 96.081zm0-239.595c23.108 37.703 36.486 69.325 57.162 98.514 3.649 8.514 23.108 8.514 34.054 3.649 4.865 0 9.73-10.946 9.73-17.027 7.297-62.027 10.946-125.27 18.243-186.082 0-20.675 4.865-42.567-18.243-57.162-13.378-7.297-17.027-7.297-23.108 2.433-17.027 25.54-30.406 54.73-48.649 80.27-6.081 10.946-3.649 18.243 7.297 25.54 14.595 6.082 24.325 15.811 37.703 26.757 6.081 2.433 6.081 9.73 13.379 18.244-7.298 0-13.379 4.864-20.676 4.864zm0-23.108h36.486c-10.946-7.297-17.027-10.946-23.108-20.675-6.08 9.73-6.08 13.378-13.378 20.675zm25.54 325.946c18.244 31.622 35.27 65.676 54.73 92.433 7.298 10.946 10.946 7.297 19.46 0 27.973-26.757 57.162-57.162 86.351-82.703 13.378-13.378 20.676-31.621 27.973-53.513 3.649-15.811 7.297-30.406 10.946-51.081-68.108 31.621-133.784 60.81-199.46 94.864zm3.65-558.243c18.242 14.594 31.62 27.973 48.648 41.351h6.08c15.812-20.675 24.325-41.351 40.136-64.46-4.865 0-4.865 0-8.513-3.648-24.325 7.297-54.73 14.595-86.352 26.757zm7.296 752.838c14.595 3.649 30.406 7.298 41.352 10.946-23.108-24.324-34.054-27.973-41.352-10.946zm30.406-32.838c10.946 12.163 24.324 19.46 34.054 25.54h3.649c-3.65-9.729-4.865-18.242-13.379-29.188-7.297-18.244-13.378-18.244-24.324 3.648zm13.378-328.378c3.649 7.297 7.298 13.378 10.946 19.46 4.865-8.514 9.73-19.46-3.648-23.109-3.65 0-3.65 3.649-7.298 3.649zm20.676 300.405c14.595 24.325 30.405 47.433 41.351 68.109h2.433c8.513-27.973 15.81-53.514 21.892-82.703 0 0 0-3.649-2.433-3.649-19.46 3.649-40.135 10.946-63.243 18.243zm0-633.649c18.243 6.081 26.757 6.081 26.757-12.162 0-10.946 3.648-25.54 7.297-35.27h-3.649c-12.162 13.378-19.46 26.757-30.405 47.432zm23.108 285.811c0 9.73 3.649 18.244 18.243 18.244h82.703c23.108 0 23.108-4.865 19.46-21.892-12.163-32.838-23.109-62.027-26.757-90-7.298-48.65-38.92-76.622-72.973-105.811 0 2.432-2.433 2.432-2.433 2.432-3.648 64.46-10.946 131.352-18.243 197.027zm7.297 310.136c38.92 0 54.73-14.595 57.163-57.163-18.244 18.244-40.136 38.92-57.163 57.163zm17.027-550.947c0 8.514 4.865 15.811 8.514 19.46 9.73 10.946 21.892 21.892 29.19 31.621 2.432 0 2.432 0 6.08-3.648-3.648-13.379-6.08-27.973-13.378-38.92-4.865-8.513-14.595-12.161-21.892-14.594 0 0-8.514 2.433-8.514 6.081zm8.514-79.054c-3.649 47.433-8.514 52.298 9.73 47.433-2.433-13.379-6.081-34.054-9.73-47.433zm46.216 615.406c34.054-9.73 62.027-15.81 98.514-27.973-29.19-14.595-53.514-29.19-80.27-43.784-7.298 25.54-10.947 43.784-18.244 71.757zm0-532.703c7.297 26.757 10.946 47.432 18.243 72.973 30.406-17.027 51.081-29.19 80.27-46.216-36.486-8.514-64.459-14.595-98.513-26.757zm34.054 442.703c19.46 14.595 45 29.19 75.406 47.432-10.946-35.27-17.027-64.46-30.406-98.513-13.378 19.46-27.973 34.054-45 51.081zm0-311.352c10.946 27.973 17.027 58.379 23.108 86.352 21.892-38.92 15.811-62.027-23.108-86.352zm0-40.135c17.027 13.379 31.622 34.054 45 48.649 13.379-31.622 19.46-59.595 30.406-96.081-30.406 19.46-55.946 32.838-75.406 47.432zm3.649 308.92c0 3.648 3.649 3.648 3.649 3.648 7.297-12.162 15.81-19.46 24.324-30.405 3.648-2.433 7.297-13.379 3.648-20.676 0-3.649-3.648-6.081-7.297-9.73-4.865 3.649-10.946 3.649-13.378 9.73zm35.27-111.893c6.081 3.65 10.946 13.379 14.595 9.73 14.594-2.432 25.54-6.08 40.135-13.378H869.73s0 3.648-2.433 3.648zm2.433-37.702h74.189c-19.46-17.027-36.487-36.487-57.162-57.163-4.865 18.244-13.379 40.136-17.027 57.163zm19.46 92.432c10.945-13.378 21.891-19.46 35.27-30.405-31.622 3.648-42.568 13.378-35.27 30.405z" style="fill:#000;fill-opacity:1;fill-rule:nonzero;stroke:none;"/>
</svg>
