<svg xmlns="http://www.w3.org/2000/svg" viewBox="0 0 1000 1000"><path d="M5 500.002v.395-.395c.099-89.506 22.55-172.682 67.253-249.726 44.209-74.473 103.55-133.814 178.023-178.023C327.419 27.45 410.694 5 500.002 5c89.308 0 172.583 22.45 249.726 67.253C824.2 116.462 883.54 175.803 927.75 250.276c44.803 77.143 67.253 160.418 67.253 249.726 0 89.308-22.45 172.583-67.253 249.726C883.541 824.2 824.2 883.54 749.728 927.75c-77.143 44.803-160.418 67.253-249.726 67.253-89.308 0-172.583-22.45-249.726-67.253-74.473-44.209-133.814-103.55-178.023-178.022C27.55 672.684 5.099 589.508 5 500.002zm83.077 6.428c24.726 24.726 52.418 49.45 77.143 78.132 2.967 0 2.967 8.901 2.967 11.869-8.9 30.659-15.824 62.307-24.725 90-5.934 24.725-2.967 27.692 18.791 33.626 27.693 5.934 58.352 15.825 86.045 24.726 5.934 0 15.824 9.89 15.824 15.824 8.9 27.692 18.791 58.352 24.725 89.011 5.934 15.824 8.901 18.791 24.725 12.857 30.66-5.934 61.32-15.824 92.968-21.758 5.934-2.967 14.835 0 21.758 2.967 24.725 24.725 46.484 52.418 71.21 77.143h17.801c24.726-24.725 49.451-52.418 74.176-77.143 2.968-2.967 15.825-5.934 21.759-2.967 31.648 5.934 65.275 15.824 95.934 24.725 12.857 2.967 15.824-5.934 18.791-15.824 8.902-30.66 15.825-58.352 24.726-89.011 2.967-5.934 8.901-15.824 15.824-15.824 30.66-8.901 61.319-18.792 91.978-24.726 15.825-5.934 18.792-8.9 15.825-27.692-8.902-30.66-18.792-62.308-24.726-92.967-2.967-5.935 0-14.836 2.967-18.792 24.726-27.692 52.418-52.417 77.143-77.143v-8.9c-24.725-24.726-52.417-49.452-77.143-77.144-2.967-2.967-5.934-15.824-2.967-21.758 5.934-31.649 15.824-62.308 24.726-95.935 2.967-12.857-2.967-18.791-11.869-21.758-31.648-5.934-62.307-15.824-92.967-21.758-12.857-2.967-15.824-8.902-18.791-18.792-8.901-30.66-15.824-58.352-24.726-89.011-5.934-18.791-8.9-18.791-27.692-12.857-27.692 5.934-59.34 15.824-90 21.758-5.934 2.967-15.824 0-18.792-2.967-24.725-24.725-49.45-52.418-74.176-77.143h-17.802c-24.725 24.725-46.484 52.418-71.209 77.143-6.923 2.967-15.824 5.934-21.758 2.967-31.649-5.934-62.308-15.824-92.968-24.725-12.857-2.967-18.79 0-21.758 11.868-8.901 31.648-18.791 59.34-24.725 90-2.967 12.857-8.901 18.792-21.759 21.759-27.692 5.934-58.351 15.824-90 21.758-14.835 5.934-17.802 8.901-11.868 27.692 5.934 30.66 15.824 62.308 24.725 92.968 0 5.934 0 11.868-2.967 15.824-24.725 27.692-52.417 52.418-77.143 77.143zm36.594 2.967c15.824 18.792 34.615 34.616 52.417 53.407 2.968-18.791 9.89-34.615 12.858-53.407zm18.791-49.45c36.594-8.902 40.55-11.869 27.692-27.693-8.9 12.857-18.79 21.758-27.692 27.693zm5.934 28.681h40.55c-2.967-9.89-2.967-12.857-5.934-18.791-12.858 2.967-21.759 8.9-34.616 14.835zm15.824 190.88 2.967 3.956c21.759-9.89 40.55-21.759 58.352-34.616-11.868-14.835-24.725-27.692-39.56-43.516-9.89 28.681-15.825 53.406-21.759 74.176zm0-360.99c5.934 20.769 11.868 45.494 21.759 71.209 14.835-15.825 27.692-28.682 39.56-40.55-17.802-12.857-36.593-24.725-55.385-34.616-2.967 0-2.967 0-5.934 3.957zm11.868 385.715c24.726 6.923 49.451 12.857 77.144 21.758-5.934-24.725-8.902-39.56-14.836-61.318-21.758 11.868-40.55 24.725-62.308 36.593zm0-407.474c21.759 11.868 40.55 24.726 62.308 36.594 5.934-21.759 8.902-39.56 14.836-61.32-27.693 8.902-52.418 14.836-74.176 21.76-2.968 0-2.968 2.966-2.968 2.966zm18.792 132.528c0 2.967 5.934 5.934 5.934 5.934 2.967 0 9.89-2.967 9.89-5.934 5.934-14.835 8.901-30.66 11.868-43.517 0-2.967-2.967-2.967-2.967-5.934-5.934 9.89-15.824 15.825-18.791 24.726-5.934 5.934-5.934 15.824-5.934 24.725zm8.9 108.792c-14.834 49.45-17.801 42.527 21.76 77.143-8.902-24.726-14.836-49.45-21.76-77.143zm15.825-65.275c0 11.868 0 15.824 12.857 15.824h77.143c8.902 0 14.836-6.923 14.836-15.824 3.956-15.824 3.956-27.693 6.923-43.517 0-2.967 5.934-5.934 8.9-8.901 2.968 0 5.935 2.967 8.902 5.934 3.956 2.967 6.923 8.901 9.89 12.857 5.934 11.868 11.868 24.726 21.758 42.528 17.803-33.627 36.594-61.319 49.451-89.011 2.967-6.924-6.923-18.792-12.857-24.726 0-3.956-8.901-3.956-11.868 0-52.418 21.759-105.825 49.45-161.21 71.21-15.824 5.933-21.758 17.802-24.725 33.626zm2.967 55.385c5.934 27.692 15.824 52.417 18.791 77.143 5.935 43.516 33.627 65.275 62.308 90 2.967-2.967 2.967-5.934 2.967-8.901 2.967-40.55 8.902-81.1 11.869-120.66 0-9.89 2.967-21.758 2.967-34.615 0-17.803 0-21.759-21.759-21.759H236.43c-15.824 0-18.79 3.956-12.857 18.792zm12.857-107.803h8.901c49.451-24.725 101.869-46.484 151.32-71.21 2.967-2.966 6.923-12.856 2.967-15.823-11.868-27.693-27.693-52.418-45.495-83.077-28.681 27.692-53.407 58.351-81.1 83.077-27.692 21.758-24.724 56.374-36.593 87.033zm33.627 266.045c0 39.56 12.857 52.418 34.615 49.45 0-24.725-21.758-31.648-34.615-49.45zm0-383.738 43.516-43.516c-33.626 0-46.483 12.857-43.516 43.516zm12.857-58.352c21.758-3.956 39.56-9.89 58.352-15.824-11.868-21.758-24.725-40.55-33.627-59.34l-2.967 3.955c-6.923 20.77-12.857 46.484-21.758 71.21zm2.967 513.299c2.967 11.868 5.934 27.692 8.901 39.56 5.934-39.56 5.934-39.56-8.9-39.56zm30.66 46.484h2.967c5.934-9.89 12.857-21.759 21.758-37.583h-18.791c-2.967 12.857-5.934 24.725-5.934 37.583zm8.9 33.626 3.957 2.967c20.769-5.934 45.494-11.868 70.22-18.791v-5.934c-8.901-8.901-20.77-21.759-33.627-30.66-2.967-2.967-8.9-2.967-8.9 0-12.858 14.835-21.76 33.627-31.65 52.418zm0-142.418c-2.966 24.725 9.89 37.583 28.682 49.45 17.802-30.659 33.627-55.384 49.45-83.077 2.968-6.923 0-15.824-6.922-18.79-8.901-8.902-24.726-15.825-33.627-24.726-2.967-2.967-5.934-8.901-5.934-12.857 0-2.967 5.934-5.934 8.901-5.934h65.275c-18.791-30.66-34.615-58.352-52.418-83.078-3.956-6.923-18.79-6.923-28.681-2.967-2.967 0-8.901 8.901-8.901 14.836-2.967 21.758-2.967 40.55-5.934 62.307-2.967 33.627-5.934 71.21-9.89 104.836zm9.89-516.266c5.935 8.902 8.902 18.792 14.836 24.726 9.89 18.791 12.857 18.791 21.758 0-11.868-9.89-21.758-18.791-33.626-24.726zm14.836 284.837c-5.934 24.725-2.967 24.725 12.857 20.769-2.967-5.934-5.934-11.868-12.857-20.77zm12.857-297.694c18.791 21.759 24.726 24.726 36.594 9.89-11.868-2.967-24.726-6.923-36.594-9.89zm15.824 575.607c-6.923 12.857-3.956 15.824 8.902 18.79 27.692 5.935 58.351 11.87 87.033 24.726 36.593 11.868 67.253-2.967 101.868-12.857 0 0 0-2.967-2.967-2.967-46.483-33.626-92.967-68.242-139.45-98.901-5.935-5.934-12.858-2.967-15.825 2.967-11.868 24.725-27.692 46.483-39.56 68.242zm0-488.573c11.869 24.725 27.693 49.45 39.561 74.176 5.934 5.934 12.857 5.934 18.791 2.967 12.857-5.934 24.726-11.868 37.583-15.825 5.934-2.967 11.868 0 17.802 0 0 3.957 0 9.89-2.967 15.825-8.901 15.824-14.835 30.66-27.692 49.45 37.582 0 65.275 0 95.934-2.967 8.901 0 15.824-12.857 21.758-21.758 0 0-5.934-11.868-12.857-15.824-42.527-30.66-89.011-61.32-132.528-91.979-15.824-15.824-30.66-15.824-49.45-9.89-9.89 2.967-12.858 6.923-5.935 15.825zm14.836 529.122c21.758 33.627 43.516 36.594 71.209 17.802-24.726-5.934-46.484-11.868-71.21-17.802zm2.967-164.176c9.89 5.934 12.857 11.868 18.79 15.824 2.968-3.956 5.935-3.956 5.935-6.923 2.967 0 2.967-2.967 2.967-8.901zm2.967-108.792c12.857 24.726 28.681 50.44 43.516 78.132 6.923 8.902 12.858 11.869 21.759 11.869h90c5.934 0 11.868-5.935 18.791-11.869 14.835-24.725 30.66-49.45 42.528-78.132 3.956-5.934 3.956-14.835 0-20.769-11.868-24.725-27.693-49.45-42.528-78.132-6.923-8.901-12.857-11.868-21.758-11.868h-87.033c-8.901 0-14.836 2.967-21.759 11.868-14.835 28.681-30.66 53.407-43.516 78.132-2.967 5.934-2.967 14.835 0 20.77zm9.89-305.605c5.934 0 8.901 2.967 14.835 2.967 12.857-2.967 28.681-5.934 40.55-8.901v-3.956c-11.869-2.967-21.759-5.934-33.627-8.901-2.967 0-9.89 2.967-15.824 2.967-2.967 2.967-2.967 9.89-5.934 15.824zm27.692 439.122c0 2.967 5.934 8.901 8.901 11.868 46.484 34.616 92.968 65.275 136.484 95.935 15.825 15.824 30.66 15.824 49.451 9.89 8.901-2.967 12.857-9.89 5.934-15.824-11.868-24.726-27.692-49.451-39.56-74.176-6.924-5.934-12.858-5.934-21.759-2.967-9.89 5.934-21.758 11.868-34.615 15.824-5.934 2.967-11.868 0-17.802 0 0-3.956 0-9.89 2.967-15.824 5.934-15.825 14.835-30.66 27.692-49.451-37.583 0-68.242 0-98.901 2.967-5.935 0-12.858 12.857-18.792 21.758zm0-287.803c2.967 2.967 5.934 8.901 8.901 15.824 6.923-9.89 9.89-18.791 12.858-24.725v-2.967c-8.902 2.967-15.825 5.934-21.759 11.868zm0-129.56c49.451 36.593 98.902 68.241 145.385 101.868 8.901 5.934 11.869 0 18.792-5.934 11.868-21.759 24.725-40.55 36.593-62.308 6.923-14.836 6.923-18.792-11.868-21.759-24.725-5.934-49.45-11.868-74.176-21.758-40.55-14.835-74.176-2.967-114.726 9.89zm2.967-59.342c18.792 6.923 34.616 9.89 49.451 12.857 2.967 0 9.89-2.967 9.89-5.934V116.76c-18.791 15.824-37.582 31.648-59.34 49.45zm2.967 662.64c18.792 20.77 37.583 36.593 56.374 55.385v-59.341c0-2.967-6.923-5.934-9.89-5.934-14.835 2.967-30.66 5.934-46.484 9.89zm74.176 55.385c18.792-18.792 37.583-34.616 56.374-55.385-15.824-3.956-31.648-6.923-46.483-9.89-2.967-2.967-9.89 2.967-9.89 5.934zm0-715.058c0 3.956 6.924 12.858 9.89 9.89 14.836-2.967 30.66-5.934 46.484-12.857-18.791-17.802-37.582-33.626-56.374-52.417zm34.616 630.991c36.593 15.825 52.418 15.825 58.352-5.934-11.868-5.934-11.868-5.934-58.352 5.934zm0-602.31c24.725 5.935 46.484 11.869 71.209 17.803-21.758-33.626-34.616-36.594-71.21-17.802zm5.934 453.958c21.758-2.967 24.725-5.934 11.868-24.725-2.967 9.89-5.934 15.824-11.868 24.725zm30.66-49.45c-5.935 6.923 2.966 18.79 9.89 27.692 0 3.956 11.868 0 14.835 0 52.418-24.725 101.868-49.45 155.275-70.22 17.802-6.923 24.725-18.791 27.692-34.615 2.967-11.869 0-15.825-9.89-15.825h-80.11c-8.901 0-15.824 3.956-15.824 12.857-2.967 11.869-2.967 27.693-5.934 40.55 0 5.934-5.934 8.901-8.901 14.835-2.967-2.967-9.89-5.934-12.857-11.868-8.902-12.857-17.803-27.692-27.693-46.484-18.791 30.66-33.626 55.385-46.484 83.078zm0-203.737c18.79 30.66 31.648 58.352 49.45 83.077 2.967 6.923 18.791 6.923 27.693 2.967 3.956 0 9.89-8.901 9.89-14.835 5.934-52.418 8.9-105.825 14.835-158.243 0-17.802 3.956-36.593-14.835-49.45-12.857-5.934-15.825-5.934-21.759 2.967-12.857 21.758-24.725 46.483-40.55 68.242-5.933 9.89-2.966 15.824 6.924 21.758 11.868 5.934 20.77 12.857 30.66 21.758 5.933 2.967 5.933 8.901 11.868 15.825-5.935 0-11.869 5.934-17.803 5.934zm0-21.759h31.648c-9.89-5.934-15.824-8.9-21.758-15.824-3.956 6.923-3.956 9.89-9.89 15.824zm21.758 277.913c15.824 28.682 30.66 56.374 46.483 81.1 5.935 8.9 8.902 5.934 15.825 0 24.725-24.726 49.45-49.451 74.176-71.21 11.868-12.857 17.802-27.692 24.725-46.483 2.967-12.857 5.934-24.726 8.901-43.517-58.352 27.693-114.725 52.418-170.11 80.11zm2.967-475.716c15.824 11.869 27.692 24.726 40.55 36.594h5.933c12.858-17.802 21.759-36.594 34.616-55.385-3.956 0-3.956 0-6.923-2.967-21.758 5.934-46.484 11.868-74.176 21.758zm6.923 642.86c11.868 2.967 24.725 6.923 33.626 9.89-18.79-21.758-27.692-24.725-33.626-9.89zm24.725-27.693c8.901 9.89 20.77 15.825 30.66 21.759h2.967c-2.967-8.901-5.934-15.825-12.857-24.726-5.935-15.824-11.869-15.824-20.77 2.967zm11.868-280.88 8.902 17.803c3.956-8.902 9.89-17.803-2.967-21.759-2.968 0-2.968 3.956-5.935 3.956zm18.792 256.155c11.868 21.758 24.725 40.55 33.626 59.34h2.967c6.923-24.724 12.857-46.483 18.791-71.208 0 0 0-2.967-2.967-2.967-15.824 2.967-33.626 8.9-52.417 14.835zm0-540.99c14.835 5.933 21.758 5.933 21.758-8.902 0-9.89 2.967-21.758 5.934-31.648h-2.967c-9.89 12.857-15.824 24.725-24.725 40.55zm18.791 244.286c0 8.9 2.967 15.824 14.835 15.824h71.21c18.79 0 18.79-3.956 15.823-18.791-9.89-27.693-18.79-52.418-21.758-77.143-5.934-40.55-34.615-65.275-62.308-90 0 2.966-2.967 2.966-2.967 2.966-2.967 55.385-8.9 111.759-14.835 167.144zm5.934 266.045c33.627 0 46.484-12.858 49.45-49.451-15.823 14.835-34.615 33.626-49.45 49.45zm14.835-469.782c0 5.934 3.956 11.868 6.923 14.835 8.901 9.89 17.803 18.791 24.726 27.692 2.967 0 2.967 0 5.934-2.967-2.967-11.868-5.934-24.725-12.857-33.626-2.967-5.934-11.869-9.89-17.803-12.857 0 0-6.923 2.967-6.923 6.923zm6.923-68.242c-2.967 39.56-6.923 43.516 8.901 39.56-2.967-11.868-5.934-27.692-8.9-39.56zm39.56 525.166c28.682-8.9 53.408-14.835 84.067-24.725-24.725-11.868-46.484-24.725-68.242-36.593-5.934 21.758-8.901 36.593-15.824 61.318zm0-453.957c6.924 21.758 9.891 39.56 15.825 61.319 24.726-14.835 43.517-24.726 68.242-39.56-30.66-6.924-55.385-12.858-84.066-21.76zm28.682 376.814c17.803 12.857 39.56 24.726 64.286 40.55-8.9-30.66-14.835-55.385-24.725-84.066-11.868 15.824-24.725 28.681-39.56 43.516zm0-266.045c8.901 24.726 14.836 49.451 20.77 74.177 18.79-33.627 12.857-52.418-20.77-74.177zm0-33.626c14.836 11.868 27.693 27.692 39.56 40.55 9.891-25.715 15.825-50.44 24.726-81.1-24.725 15.825-46.483 27.693-64.286 40.55zm2.967 263.078c0 2.967 2.967 2.967 2.967 2.967 5.935-9.89 14.836-15.824 21.759-24.726 2.967-2.967 5.934-12.857 2.967-18.79 0-2.968-2.967-5.935-5.934-8.902-3.956 2.967-9.89 2.967-12.857 8.901-2.968 12.857-5.935 27.693-8.902 40.55zm30.66-95.935c5.934 2.967 8.901 11.869 11.868 8.901 12.857-2.967 21.758-5.934 34.616-11.868H826.87s0 2.967-2.967 2.967zm2.967-31.648h62.308c-15.824-14.835-31.649-30.66-49.45-49.45-3.957 15.823-9.891 34.615-12.858 49.45zm15.824 78.132c8.901-9.89 17.802-15.824 30.66-24.725-27.693 2.967-37.583 11.868-30.66 24.725z"/></svg>