<svg width="1000" height="1000" viewBox="0 0 1000 1000" fill="none" xmlns="http://www.w3.org/2000/svg">
<path fill-rule="evenodd" clip-rule="evenodd" d="M500 995C773.381 995 995 773.381 995 500C995 226.619 773.381 5 500 5C226.619 5 5 226.619 5 500C5 773.381 226.619 995 500 995ZM201 285.731L346.731 140H415.99C397.232 150.822 335.188 228.016 319.317 285.731H201ZM486.691 140V285.731H346.731C356.591 255.671 391.75 184.441 453.505 140H486.691ZM514.828 285.731H656.23C623.333 207.238 569.898 155.872 547.293 140H514.828V285.731ZM798.355 285.731H683.645C665.609 242.445 633 182.709 586.251 140H651.18L798.355 285.731ZM315.709 714.268H201L348.174 860H413.104C366.355 817.291 333.745 757.555 315.709 714.268ZM343.124 714.268H484.527V860H452.062C429.457 844.128 376.022 792.761 343.124 714.268ZM512.663 714.268L512.663 860H545.85C607.605 815.559 642.764 744.329 652.623 714.269L512.663 714.268ZM652.623 860L798.355 714.269H680.038C664.166 771.984 602.122 849.178 583.365 860H652.623ZM711.002 664.344C724.757 656.216 736.012 645.587 744.765 632.457L712.408 594.473C707.094 602.601 700.372 609.479 692.244 615.106C684.428 620.733 675.05 623.547 664.108 623.547C652.541 623.547 642.38 620.421 633.627 614.168C625.186 607.603 618.152 598.849 612.525 587.908C606.897 576.966 602.677 564.148 599.863 549.455C597.05 534.449 595.643 518.661 595.643 502.092C595.643 485.21 597.05 469.423 599.863 454.729C602.677 439.723 606.897 426.749 612.525 415.807C618.152 404.865 625.186 396.268 633.627 390.016C642.068 383.451 651.915 380.168 663.17 380.168C683.49 380.168 700.06 389.391 712.877 407.835L745.234 368.445C736.168 355.314 724.444 345.31 710.064 338.433C695.683 331.242 678.957 327.647 659.887 327.647C641.442 327.647 624.561 332.024 609.242 340.777C594.236 349.218 581.418 361.254 570.789 376.885C560.16 392.204 551.875 410.649 545.935 432.22C540.308 453.479 537.495 476.769 537.495 502.092C537.495 527.415 540.308 550.705 545.935 571.964C551.875 593.222 560.003 611.667 570.32 627.298C580.949 642.617 593.767 654.653 608.773 663.407C624.092 672.16 641.13 676.537 659.887 676.537C680.521 676.537 697.559 672.473 711.002 664.344ZM455.43 608.541C460.432 594.16 462.933 578.06 462.933 560.24C462.933 541.795 460.589 525.851 455.899 512.409C451.523 498.966 445.426 488.024 437.611 479.583C430.108 470.829 421.198 464.421 410.881 460.356C400.877 455.98 390.404 453.791 379.462 453.791C374.46 453.791 369.146 454.573 363.519 456.136C358.204 457.699 353.827 460.044 350.388 463.17L349.919 462.701L417.446 336.088H356.016L290.364 464.577C282.549 479.583 276.14 495.058 271.138 511.002C266.448 526.633 264.104 543.515 264.104 561.647C264.104 579.154 266.448 594.942 271.138 609.01C276.14 623.078 283.018 634.958 291.771 644.649C300.525 654.34 310.997 661.843 323.19 667.158C335.382 672.16 348.825 674.661 363.519 674.661C377.899 674.661 391.186 672.16 403.378 667.158C415.571 661.843 426.044 654.34 434.797 644.649C443.551 634.645 450.428 622.609 455.43 608.541ZM398.22 511.94C405.723 524.445 409.474 540.388 409.474 559.771C409.474 580.092 405.41 596.661 397.282 609.479C389.466 621.984 378.368 628.236 363.987 628.236C349.607 628.236 338.352 622.14 330.224 609.948C322.096 597.443 318.032 581.03 318.032 560.709C318.032 551.018 319.126 542.108 321.314 533.98C323.503 525.851 326.629 518.817 330.693 512.877C334.757 506.625 339.603 501.779 345.23 498.34C350.857 494.902 357.266 493.182 364.456 493.182C379.462 493.182 390.717 499.435 398.22 511.94Z" fill="black"/>
</svg>
