<svg xmlns="http://www.w3.org/2000/svg" width="1000" height="1000">
  <path d="M5 500.002v-.396.396c.099 89.505 22.55 172.682 67.253 249.726C116.462 824.2 175.803 883.54 250.276 927.75c77.143 44.803 160.418 67.253 249.726 67.253 89.308 0 172.583-22.45 249.726-67.253C824.2 883.541 883.54 824.2 927.75 749.728c44.803-77.143 67.253-160.418 67.253-249.726 0-89.308-22.45-172.583-67.253-249.726-44.209-74.473-103.55-133.814-178.022-178.023C672.585 27.45 589.31 5 500.002 5c-89.308 0-172.583 22.45-249.726 67.253-74.473 44.209-133.814 103.55-178.023 178.023C27.55 327.32 5.099 410.496 5 500.002zm120.66-3.462v-1.978c.989-1.978 2.967-2.967 3.956-3.956 6.923-13.846 14.835-26.703 21.758-40.55 25.714-43.516 50.44-87.033 75.165-129.56 29.67-49.451 57.363-99.89 87.033-149.342h375.826c29.67 51.43 60.33 102.858 89.011 154.287 27.693 46.483 54.396 92.967 81.1 138.462 5.933 9.89 11.868 20.769 17.802 30.66v1.977c-.99 1.978-1.978 2.967-2.967 3.956-31.649 54.396-63.297 108.792-93.957 163.188-30.66 52.417-61.319 103.846-90.99 156.264H313.573c-18.79-33.627-39.56-67.253-58.351-101.869-38.572-65.275-77.144-132.528-115.715-198.792-3.956-7.912-8.901-14.835-13.846-22.747zm152.308 2.967c35.604 61.319 71.209 123.627 107.803 185.935 1.978 3.956 4.945 5.934 9.89 5.934h212.638c4.945 0 6.923-1.978 8.9-4.945 36.594-62.308 72.199-124.616 107.803-185.935 2.967-3.956 2.967-5.934 0-9.89-9.89-16.813-18.79-33.626-28.681-51.429-26.703-44.505-52.418-90-78.132-135.495-2.967-3.956-4.945-3.956-8.901-3.956-71.21 0-143.407 0-215.605-.989-3.956 0-6.923.99-8.902 4.945-16.813 29.67-33.626 59.341-51.428 90-17.803 32.638-37.583 64.287-55.385 96.924-2.967 3.956-2.967 4.945 0 8.901z" style="fill:#000;fill-opacity:1;fill-rule:nonzero;stroke:none;"/>
</svg>
