<svg xmlns="http://www.w3.org/2000/svg" width="1000" height="1000">
  <path d="M508.12 5c24.899 15.156 47.632 27.064 74.696 42.22 115.834 64.953 235.998 126.66 352.915 193.778 14.073 8.66 19.486 14.073 19.486 33.56v451.426c0 16.239-5.413 27.064-19.486 34.642C797.163 834.24 657.513 912.184 517.863 990.13c-12.99 6.495-24.899 6.495-38.972 0-137.485-77.945-274.97-152.641-412.455-229.503-17.321-7.578-21.651-18.403-21.651-34.642V274.557c0-19.486 7.577-24.899 21.65-35.724 137.486-74.697 270.64-150.476 409.208-223.007 7.578-4.33 11.908-7.578 17.321-10.826zM63.188 728.15c41.137-20.57 84.44-46.55 125.577-66.037 0-3.247 6.495-10.825 6.495-16.238V351.419c0-3.248-6.495-10.826-9.743-10.826-37.89-24.899-81.192-46.55-122.329-70.366zm5.413 19.486c11.908 3.247 16.238 5.412 22.734 8.66 129.907 71.449 261.979 142.898 391.886 216.512 14.073 7.578 21.651 7.578 31.394 0 130.99-73.614 265.227-145.063 396.217-216.512 3.247-3.248 8.66-5.413 20.568-14.073-44.384-21.651-83.357-41.138-122.329-66.036-11.908-4.33-18.403-4.33-29.229 3.247-83.357 46.55-173.21 96.348-257.649 145.063-14.073 7.578-29.229 7.578-46.55 0-83.357-48.715-168.88-96.348-256.566-142.898-10.826-5.412-21.652-9.743-33.56-2.165-35.724 21.651-66.036 37.89-100.678 57.376-4.33 3.248-6.495 5.413-16.238 10.826zm0-492.565c9.743 3.248 16.238 7.578 19.486 11.908 84.44 45.468 168.88 90.935 248.988 136.403 16.239 7.578 19.487 14.073 19.487 29.229v133.155c10.825-3.248 14.073-3.248 20.568-6.496 31.394-16.238 67.119-38.972 98.513-56.293 11.908-3.248 17.321-10.825 17.321-24.899-3.248-146.145-3.248-287.96-3.248-434.106V25.57c-140.732 77.944-279.3 152.64-421.115 229.502zM367.387 584.17c45.468 20.569 84.44 46.55 125.577 67.119 4.33 4.33 8.66 4.33 11.908 0 42.22-20.569 81.192-46.55 126.66-70.367-45.468-24.898-84.44-46.55-126.66-67.118 0-4.33-7.578-4.33-11.908 0-41.137 20.568-80.11 45.467-125.577 70.366zm140.733-99.595c0 3.247 3.247 11.908 3.247 11.908 42.22 23.816 85.523 46.55 126.66 69.284v-126.66c0-16.238 7.578-28.146 22.734-37.89 37.89-17.32 73.614-38.971 109.338-60.623 27.064-14.073 30.312-10.825 30.312 17.321v278.218c0 15.156 3.247 22.734 18.403 29.229 29.23 14.073 56.293 31.394 85.522 46.55 9.743 5.413 21.652 8.66 34.642 16.238V274.557c0-11.908-7.578-19.486-12.99-22.734C790.668 178.21 657.513 106.761 525.44 32.064c-7.578-2.165-10.826-2.165-17.321-6.495v4.33z" style="fill:#000;fill-opacity:1;fill-rule:nonzero;stroke:none;"/>
</svg>
