<svg xmlns="http://www.w3.org/2000/svg" viewBox="0 0 1000 1000"><path d="M747.503 160.533c-26.477 12.663-50.652 26.477-75.977 37.988-1.151 1.152-6.907 0-9.21-2.302-29.93-14.965-62.163-26.477-94.395-33.384-63.314-12.663-123.175-8.058-183.036 14.965-97.85 35.687-166.92 103.606-203.756 201.455-20.721 49.5-25.326 101.302-21.873 153.105 1.152 4.605 1.152 6.907 3.454 11.512C440.14 402.278 718.724 261.836 995.004 119.09v80.582c0 4.604 0 5.755-3.454 8.058-86.337 43.744-172.675 86.337-257.861 130.082-104.756 54.105-209.513 108.21-315.42 161.163-78.28 40.291-156.559 79.43-235.99 120.873L11.908 706.186c-1.151 2.303-3.454 2.303-4.605 3.454v-48.35c0-11.511-2.302-21.871 0-32.232 0-3.453 1.151-5.756 3.454-6.907 11.511-6.907 25.325-13.814 37.988-19.57 23.024-16.116 34.535-39.14 34.535-65.616v-65.617c2.303-48.349 16.117-97.85 35.687-143.896C152.349 256.08 203 196.22 267.466 152.475c51.803-34.535 107.059-56.407 168.07-65.617 49.5-8.058 97.85-8.058 147.35 2.303 58.71 12.662 112.814 34.535 161.163 70.22 1.151 0 1.151 1.152 3.454 1.152zM5 800.582c0-4.605 2.302-5.756 5.756-9.21 101.303-50.65 203.756-102.453 302.757-154.256 110.512-56.407 219.873-110.512 329.234-166.919 82.884-42.593 165.768-85.186 248.652-126.628l99-50.652c1.151-1.151 3.454-1.151 4.605-2.302v78.28c0 5.755 0 8.057-3.454 8.057-12.663 6.907-25.325 12.663-36.837 19.57-27.628 17.268-37.989 43.745-35.686 77.128 3.453 51.803-2.303 101.303-18.419 149.652-19.57 64.466-52.954 120.873-100.151 168.07-35.687 39.14-80.582 69.07-126.629 89.792-63.314 28.779-128.93 41.442-196.85 36.837-80.581-5.756-153.105-31.082-218.721-77.128-1.151 0-1.151-2.303-2.303-3.454 10.36-4.604 21.873-10.36 31.082-16.116 13.814-5.756 27.628-13.814 42.593-19.57 2.302-1.151 5.756-1.151 8.058 0 37.989 19.57 78.28 33.384 123.175 36.837 37.989 5.756 75.977 4.605 112.815-4.604 54.104-12.663 100.151-33.384 141.593-66.768C772.828 720 811.968 660.14 832.69 589.918c9.209-35.686 11.51-73.674 9.209-109.36 0-9.21 0-16.117-1.152-26.477L7.302 880.012v-9.209c0-23.023 0-47.198-2.302-70.221z"/></svg>