<svg xmlns="http://www.w3.org/2000/svg" viewBox="0 0 1000 1000"><path d="M500.894,112.89c-211.288,0-382.57,171.282-382.57,382.569s171.282,382.57,382.57,382.57,382.569-171.282,382.569-382.57S712.181,112.89,500.894,112.89Zm0,754.26c-205.28,0-371.691-166.411-371.691-371.691S295.614,123.768,500.894,123.768s371.69,166.412,371.69,371.691S706.173,867.15,500.894,867.15ZM500.3,5C226.9,5,5.3,226.6,5.3,500s221.6,495,495,495,495-221.6,495-495S773.7,5,500.3,5Zm.594,906.718C271,911.718,84.635,725.353,84.635,495.459S271,79.2,500.894,79.2,917.152,265.566,917.152,495.459,730.787,911.718,500.894,911.718Zm7.245-402.086H676.905v194.3c-17.766,19.985-41.081,34.418-71.059,44.411-28.868,11.1-61.067,15.545-96.6,15.545-63.288,0-115.471-19.985-157.662-61.066-32.2-29.978-52.184-66.619-59.956-108.81H266.1V560.706H288.3V541.83H266.1V508.522h26.647c6.662-38.861,25.537-74.389,55.515-104.368,16.655-16.655,34.419-29.978,54.4-38.86-4.442-8.883-8.883-17.764-11.1-27.756q-1.667-8.329-3.331-16.655V308.67c0-4.442,0-7.773,1.11-11.1,0-2.22,2.221-4.441,4.441-5.551a4.884,4.884,0,0,1,5.552,1.11,100.133,100.133,0,0,1,11.1,9.993c1.11,1.11,3.331,2.22,4.44,3.331,2.222,1.11,5.552,1.11,6.662-1.111a4.075,4.075,0,0,0,1.111-3.33V289.794c0-5.551,0-9.992,1.11-15.544a169.665,169.665,0,0,1,7.772-39.97c3.331-12.214,8.883-23.317,15.545-34.419,5.551-7.772,12.213-16.655,21.1-22.206,6.66-6.662,16.653-11.1,26.646-15.544,2.22,0,4.442-1.111,6.662-2.221,1.11,0,3.33,0,4.441,1.11a4.081,4.081,0,0,1,1.11,3.331c-1.11,3.331-1.11,5.552-2.221,8.883s-1.11,7.772-2.22,11.1c0,3.33-1.11,6.661-1.11,11.1v9.993c0,7.772,1.11,16.654,4.441,23.316,1.11,5.552,4.442,9.993,6.662,14.434a80.538,80.538,0,0,0,9.993,8.882,15.416,15.416,0,0,0,12.213,2.221,18.752,18.752,0,0,0,11.1-3.331,21.775,21.775,0,0,0,9.993-9.993c1.11-1.11,2.22-3.33,3.33-4.441a1.088,1.088,0,0,1,1.112-1.11c1.11-2.221,5.551-2.221,6.661,0s3.33,5.551,4.442,7.772c3.33,6.662,6.661,14.434,7.771,22.206,0,2.221,1.11,5.551,1.11,8.882v7.772c0,8.883-1.11,17.765-4.441,25.537,0,1.111-1.11,2.221,0,4.441,1.111,3.332,4.441,5.552,8.883,4.442,1.11,0,1.11-1.112,2.22-1.112a33.744,33.744,0,0,0,7.773-5.55,3.875,3.875,0,0,1,2.22-1.11,2.387,2.387,0,0,1,2.22,2.22v11.1c0,4.442-1.11,7.772-1.11,11.1q-4.995,11.659-9.993,23.316c32.2,11.105,58.846,29.978,82.162,55.516l-64.4,63.287C579.2,446.346,544.779,430.8,503.7,430.8c-35.528,0-65.507,12.213-88.824,35.529a115.248,115.248,0,0,0-27.757,43.3h34.419v33.309h-41.08v18.875h41.08v33.308H386.007c5.552,17.765,15.544,33.31,28.867,46.633,23.317,23.316,54.406,34.419,93.265,34.419,35.53,0,62.176-6.661,78.831-19.985V595.124H508.139Z"/></svg>