<svg xmlns="http://www.w3.org/2000/svg" width="1000" height="1000">
  <path d="M500.496 5C223.572 5 5 229.506 5 500.002c0 276.43 224.506 495.001 495.002 495.001 276.43 0 495.001-224.506 495.001-495.001C995.003 226.539 773.464 5 500.496 5zM183.023 535.112c-3.956-43.517 1.978-85.056 13.846-126.594.989-2.967.989-6.923 5.934-10.88 21.758 26.704 43.516 51.43 64.286 79.122 31.648 38.571 58.352 81.099 82.088 126.594 15.824 30.66 27.692 62.308 32.637 96.923 4.946 33.627.99 66.264-.989 99.89-.989 9.89-7.912 6.924-12.857 4.946-19.78-6.924-36.593-17.803-53.407-30.66-79.12-59.34-122.637-139.45-131.538-239.341zm34.615-170.11c-2.967-2.968 0-4.946.99-7.913 31.648-57.363 74.175-101.868 130.549-133.517 10.88-4.945 22.747-6.923 36.594-6.923 4.945 0 6.923-.989 13.846 0 2.967 0 2.967 0 3.956.989-.99-.989-1.978-1.978-1.978-2.967 53.407-19.78 107.802-21.758 164.176-15.824 46.484 5.934 92.967 17.802 132.528 43.516 4.945 1.978 9.89 6.924 14.835 9.89-.989 0-2.967.99-3.956.99.99 0 .99 0 3.956.989 43.517 31.648 76.154 72.198 96.924 120.66 34.615 79.12 37.582 158.242 12.857 239.34-6.923 18.792-10.88 25.715-36.594 27.693-3.956 9.89-8.9 19.78-14.835 30.66 7.912-3.956 17.802-5.934 21.758 0 3.956 4.945-3.956 11.868-7.912 16.813-27.692 44.506-66.264 80.11-111.758 106.813-19.78 10.88-39.56 18.792-61.32 2.967-.988 0-1.977 0-1.977-.989-.99 0-.99 0-.99-.989 0 .99-.988.99-.988 1.978-29.67 14.836-55.385 5.935-79.121-12.857-28.682-21.758-50.44-49.45-62.308-84.066-13.847-38.571-1.978-79.121 32.637-105.824 8.901-6.924 17.802-13.847 24.726-19.78 1.285-.297 2.67-.297 4.153-.199-.989-.197-1.978-.494-3.164-.79-5.935-3.957-5.935-3.957-10.88-5.935-40.55-16.813-80.11-37.582-113.736-68.242-25.715-22.747-43.517-51.429-41.539-88.022.99-11.868 1.978-20.77 8.901-32.638-17.802-11.868-32.637-26.703-43.516-43.516-16.814 5.934-33.627 11.868-51.43 18.791-14.834 3.956-30.659 7.912-46.483 10.88-2.967 0-6.923.988-8.9-1.979zm106.814-27.693c4.945-7.912 14.835-8.901 21.758-12.857-6.923 3.956-10.88 5.934-21.758 12.857zm203.942 239.117c4.245.224 9.19 1.708 13.64 3.191-5.933-1.681-8.208-1.978-13.648-3.165z" style="fill:#000;fill-opacity:1;fill-rule:nonzero;stroke:none;"/>
</svg>
