<?xml version="1.0" encoding="utf-8"?>
<!-- Generator: Adobe Illustrator 26.0.1, SVG Export Plug-In . SVG Version: 6.00 Build 0)  -->
<svg version="1.1" id="Layer_1" xmlns="http://www.w3.org/2000/svg" xmlns:xlink="http://www.w3.org/1999/xlink" x="0px" y="0px"
	 viewBox="0 0 1000 1000" style="enable-background:new 0 0 1000 1000;" xml:space="preserve">
<g>
	<path d="M484.8,270.7c22.2,0,40.1-18,40.1-40.1s-18-40.1-40.1-40.1c-170.7,0-309.5,138.8-309.5,309.5s138.9,309.5,309.5,309.5
		c136.6,0,258.8-91.5,297.1-222.5c6.2-21.3-6-43.6-27.2-49.8c-21.3-6.2-43.6,6-49.8,27.2c-28.4,97-118.9,164.8-220.1,164.8
		c-126.4,0-229.3-102.9-229.3-229.3S358.3,270.7,484.8,270.7z"/>
	<path d="M929.4,459.9c-22.2,0-40.1,18-40.1,40.1c0,223-181.5,404.5-404.5,404.5S80.2,723,80.2,500S261.7,95.5,484.8,95.5
		c25.1,0,50.2,2.3,74.7,6.9c21.8,4,42.7-10.3,46.8-32.1c4.1-21.8-10.3-42.7-32.1-46.8c-29.3-5.5-59.4-8.2-89.4-8.2
		C217.5,15.3,0,232.7,0,500c0,267.3,217.5,484.7,484.8,484.7c267.3,0,484.7-217.5,484.7-484.7C969.5,477.8,951.5,459.9,929.4,459.9z
		"/>
	<path d="M998.7,326.9c-1-3.9-26-97.5-83.1-168.4c-57.2-71-138.4-112-141.8-113.7c-19-9.5-42.1-2.5-52.7,15.9L502.5,439.9
		c-8.2,14.2-6.9,31.9,3.2,44.8c7.7,9.9,19.5,15.4,31.6,15.4c3.7,0,7.5-0.5,11.2-1.6l422.6-122.8C992,369.6,1004.2,348,998.7,326.9z
		 M621.8,393.6l148.5-257.7c24,15.9,57,40.9,82.8,73c26.3,32.6,44.6,72.7,55.6,101.4L621.8,393.6z"/>
</g>
</svg>
