<svg xmlns="http://www.w3.org/2000/svg" viewBox="0 0 1000 1000"><path d="M612.264 366.087 486.406 500l125.858 127.871c35.24 36.248 83.57 56.385 127.872 56.385 45.308 0 92.63-21.144 128.878-56.384 69.473-73.501 69.473-189.29 0-261.785-32.22-33.226-77.528-50.343-128.878-50.343-50.343 0-96.66 17.117-127.872 50.343zM78.627 683.25c-97.665-103.707-98.672-267.825 0-366.498 51.35-51.35 114.783-75.514 182.242-75.514 66.453 0 128.879 24.164 180.229 75.514l11.075 11.076-53.364 48.329-12.082-10.069h-1.007c-32.22-33.226-74.508-50.343-124.85-50.343-51.35 0-93.639 16.11-126.865 50.343-71.488 74.508-73.501 188.284 0 261.785 38.26 38.26 81.556 56.384 126.864 56.384 45.31 0 88.604-20.137 124.851-56.384l13.09-12.083 52.356 54.37-10.068 12.083v1.007c-52.357 49.336-113.776 75.515-180.229 75.515-67.46 0-129.885-25.172-182.242-75.515zM382.7 500l178.214-183.249c52.357-49.336 113.776-75.514 179.222-75.514 68.466 0 134.92 29.198 178.214 75.514 102.7 98.673 101.693 261.784 0 366.498-44.302 45.309-109.748 75.515-178.214 75.515-65.446 0-126.865-26.179-179.222-75.515z"/></svg>