<svg xmlns="http://www.w3.org/2000/svg" viewBox="0 0 1000 1000"><path d="M5 500.496c0 89.011 22.747 172.089 67.253 249.232 44.506 74.176 103.846 133.517 178.023 178.022 77.143 44.506 160.22 67.253 250.22 67.253 89.011 0 172.089-22.747 249.232-67.253 74.176-44.505 133.517-103.846 178.022-178.022 44.506-77.143 67.253-160.22 67.253-250.22 0-89.012-22.747-172.09-67.253-249.232-44.505-74.177-103.846-133.517-178.022-178.023C672.585 27.747 589.508 5 500.496 5c-90 0-173.077 22.747-250.22 67.253-74.177 44.506-133.517 103.846-178.023 178.023C27.747 327.419 5 410.496 5 500.496zm218.572-89.011c5.934-165.166 132.528-270.001 284.836-270.001 167.144 3.956 298.683 149.341 281.87 310.55-8.902 57.363-35.605 104.836-65.276 149.342-62.307 92.967-128.571 183.956-193.846 276.924-19.78 24.725-31.649 24.725-48.462 0-65.275-92.968-130.55-183.957-191.869-276.924-40.55-56.374-67.253-118.682-67.253-189.891zm53.407 4.945c-4.945 53.407 16.813 100.88 44.506 149.341 51.428 75.165 108.791 149.341 161.209 224.506 5.934 11.869 12.857 15.825 21.758 29.67 43.517-47.472 72.198-90.989 117.693-158.242 31.648-42.527 58.352-81.099 85.055-125.604 29.67-49.451 38.572-100.88 29.67-154.287-29.67-135.495-149.34-209.67-284.836-183.956C356.1 219.616 276.98 315.55 276.98 416.43zm51.429 62.308c0-13.846 4.945-22.747 17.802-26.704 56.374-5.934 88.022-11.868 136.484-11.868-11.868 13.846-58.352 80.11-79.121 104.836-7.912 11.868-21.759 15.824-35.605 4.945-21.758-18.791-34.615-44.506-39.56-71.21zm0-105.825c4.945-35.604 17.802-57.363 44.505-75.165 8.901-2.967 22.748-2.967 26.704 0 9.89 14.835 71.209 91.979 83.077 113.737-37.583-1.978-77.143-5.934-136.484-15.824-12.857-2.967-17.802-8.901-17.802-22.748zm123.626-95.934c-12.857-24.725 21.759-44.506 52.418-44.506 34.616 0 64.286 15.824 53.407 49.451-11.868 31.648-49.45 125.605-49.45 113.737-19.781-19.78-46.484-97.913-56.375-118.682zm4.946 288.792c12.857-34.615 31.648-91.978 47.472-116.704 15.824 20.77 21.759 44.506 53.407 116.704 10.88 32.638-3.956 48.462-49.45 48.462-41.54 0-71.21-12.857-51.43-48.462zm69.23-125.605c9.89 0 66.264 2.967 105.825 6.923 53.407 0 64.286 22.748 34.616 80.11-29.67 43.517-48.462 33.627-75.166 0-1.978-2.967-67.252-89.01-65.274-87.033zm4.946-32.637c2.967-1.978 38.571-55.385 75.165-104.836 11.868-11.868 25.714-11.868 38.571 0 21.759 17.803 40.55 39.56 40.55 70.22 0 8.901 0 22.748-13.846 22.748-53.407 4.945-124.616 11.868-140.44 11.868z"/></svg>