<svg xmlns="http://www.w3.org/2000/svg" viewBox="0 0 1000 1000"><path d="M765.5 154.886c-43.884 27.428-84.477 51.564-128.361 75.7-25.234 12.068-19.748 18.651-19.748 50.467 24.136-14.262 46.078-26.33 68.02-38.399 36.205-19.747 72.41-41.69 108.614-63.632 4.389-3.291 7.68-3.291 15.36 3.292 36.204 21.942 74.603 40.593 110.807 62.535 7.68 4.388 9.874 7.68 9.874 17.553v473.95c0 7.68-2.194 12.069-9.874 17.555C801.705 820.83 683.217 888.85 564.73 959.066c-17.554 9.874-36.205 19.748-53.759 31.816-8.776 5.485-14.262 5.485-21.942 0-50.467-31.816-100.934-60.341-152.498-89.963-76.797-46.079-156.886-88.866-234.78-134.944-31.817-17.554-31.817-17.554-31.817-53.759v-447.62c0-9.873 3.292-15.359 12.068-19.747 37.302-21.942 75.7-43.885 111.905-65.827 9.874-6.582 16.457-6.582 26.33 0 48.274 31.816 97.643 61.438 145.916 92.157 4.389 3.292 9.874 5.486 16.457 9.874 0-28.525 3.291-38.399-12.068-48.272-49.37-34.01-115.197-74.604-126.168-82.284 9.874-4.388 17.554-9.874 27.428-14.262C344.211 92.351 416.62 50.661 486.835 10.068c9.874-4.389 14.262-7.68 24.136-2.195 72.41 42.788 224.907 131.653 254.53 147.013zM123.692 710.022c75.7-48.272 107.517-66.923 166.76-102.03 9.875-5.486 7.68-9.875 7.68-14.263V407.22c0-7.68-2.194-12.069-9.873-17.554-26.331-14.263-52.662-28.525-80.09-44.982-6.582-5.485-12.067-3.29-16.456 0-19.748 12.069-39.496 20.845-58.147 32.914-7.68 5.485-9.874 9.874-9.874 19.748V695.76zm46.079 34.01c17.554 14.263 28.525 20.846 43.884 12.069 52.661-31.816 106.42-63.633 156.887-94.352 9.874-5.485 12.068-9.873 12.068-19.747V389.667c14.262 9.874 29.622 19.748 43.884 27.428 7.68 4.388 9.874 9.874 9.874 18.65V726.48c16.457-8.777 28.525-14.263 42.787-24.137 15.36-12.068 29.622-12.068 43.885 0 12.068 7.68 26.33 15.36 41.69 21.943V433.55c0-4.388 0-12.068 2.194-14.262 16.456-9.874 31.816-19.748 50.467-31.816v254.529c0 4.388 0 9.874 7.68 14.262 55.952 34.01 114.099 68.02 168.954 99.837 3.291 2.194 7.68 2.194 9.874 2.194 9.874-4.388 17.554-9.874 29.622-16.457-5.486-3.291-5.486-3.291-7.68-5.485-55.952-31.816-110.808-64.73-166.76-98.74-7.68-3.291-9.874-7.68-9.874-17.554V380.89c0-7.68 2.194-12.068 7.68-15.36 20.845-12.068 40.593-24.136 60.34-36.204 12.069-6.583 21.943-12.068 34.01-18.65-12.067-7.68-19.747-12.07-29.621-19.749-4.388-2.194-5.486-6.582-14.262 0-36.205 21.942-70.215 41.69-104.226 62.535-12.068 7.68-24.136 12.068-38.398 21.942V274.471c0-7.68-23.04 8.776-39.496 18.65-24.137 17.554-24.137 17.554-48.273 0-21.942-16.456-26.33-14.262-40.593-21.942V373.21c-5.485-2.194-7.68-2.194-9.874-4.388-43.884-24.137-87.768-51.564-128.361-75.7-5.486-2.195-9.874-4.389-14.263-4.389-9.874 4.388-19.748 12.068-31.816 18.65 4.388 5.486 9.874 7.68 14.262 9.875 24.137 15.36 48.273 29.622 75.7 46.078 2.195 2.194 6.583 9.874 6.583 14.263 2.195 83.38 2.195 165.663 0 244.655 0 5.485-2.194 12.068-6.582 15.36-94.351 58.146-61.438 35.107-172.246 106.419zm84.477 48.273c9.874 4.389 19.748 9.874 24.137 14.263 7.68 5.485 14.262 5.485 21.942 0 24.136-14.263 48.272-28.525 72.409-43.885 5.485-2.194 9.874-4.388 9.874-8.776v-36.205c-43.884 24.136-84.477 48.273-128.362 74.603zm182.12 38.399c18.65-9.874 36.205-18.65 52.661-28.525 7.68-5.485 12.068-5.485 19.748 0 16.457 9.874 36.205 18.651 55.953 30.72v-40.594c0-6.582-43.885-36.204-60.341-36.204-17.554-1.097-68.02 24.136-68.02 36.204zm0-631.934c0 5.486 2.194 12.068 6.583 14.263 17.553 9.874 34.01 19.748 51.564 29.621 4.388 2.195 9.874 2.195 14.262 0 16.457-9.873 31.816-17.553 48.273-26.33 2.194-3.291 7.68-7.68 7.68-9.874v-43.884c-21.943 12.068-39.496 21.942-55.953 31.816-7.68 4.388-12.068 4.388-17.554 0-16.456-9.874-36.204-19.748-54.855-29.622zm34.01 469.562v-333.52c8.777 4.388 18.651 14.262 28.525 14.262 9.874 0 19.748-7.68 31.816-12.068v329.132c-21.942-19.748-41.69-19.748-60.34 2.194zm147.013 80.089c0 5.486 5.485 9.874 7.68 12.068 26.33 17.554 52.66 31.816 82.283 46.079 2.194 2.194 7.68 2.194 9.874 2.194 9.874-4.389 18.65-12.068 28.524-16.457-42.787-26.33-84.477-50.467-128.361-77.894zm85.574-156.886c0 6.582 2.194 12.068 8.777 16.456 3.291 2.194 132.75 82.283 162.372 102.031 2.194-21.942 2.194-21.942 2.194-317.064 0-5.485-4.388-9.874-8.777-12.068-17.553-12.068-39.496-24.136-58.146-34.01-3.292-2.195-9.874-2.195-15.36 0-26.33 14.262-54.855 30.719-82.283 46.078-6.583 4.389-8.777 9.874-8.777 16.457z"/></svg>