<svg xmlns="http://www.w3.org/2000/svg" viewBox="0 0 1000 1000"><path d="M949.726 27.578c-4.855 9.71-4.855 14.566-8.497 25.49-24.277 64.334-52.195 127.453-76.472 191.787-9.71 18.207-16.993 33.987-36.415 37.629-114.1 46.125-228.2 89.823-342.301 132.308-6.07 4.855-9.71 4.855-14.566 4.855-13.352 9.71-23.063 19.421-13.352 32.773 3.641 16.994 18.207 16.994 30.346 12.139 32.773-9.71 60.691-20.635 93.465-29.132 69.188-29.132 132.308-52.195 197.855-75.258 12.138-4.855 26.704-8.497 37.629 0 2.428 3.642 2.428 23.063 2.428 32.774-19.422 61.905-32.774 123.81-49.768 182.075-4.855 19.421-14.566 33.987-36.415 38.843-19.421 7.283-33.987 15.78-52.195 21.849-18.207 3.641-26.704 19.421-21.849 36.415 1.214 23.063 19.422 314.383 19.422 290.106 0 14.566 2.427 32.774-15.78 32.774-8.497 0-21.85-8.497-31.56-18.208-42.484-49.767-82.54-100.748-125.025-150.515-128.666-154.157-271.899-291.32-436.98-401.78-8.497-4.855-19.422-24.276-19.422-27.918 4.855-8.497 15.78-16.994 29.132-24.277 155.371-63.12 318.025-122.597 473.396-191.786 116.528-50.98 226.987-105.603 336.232-161.44 8.497-4.855 18.208-9.71 32.774-12.138 13.352-6.07 27.918 2.428 27.918 20.635z"/></svg>