<svg xmlns="http://www.w3.org/2000/svg" width="1000" height="1000">
  <path d="M5 500.496C5 225.55 226.54 5 500.496 5c272.968 0 494.507 222.528 494.507 494.507 0 274.946-222.528 495.496-494.507 495.496C225.55 995.003 5 772.475 5 500.496zm179.012-48.462c120.66 119.671 242.308 239.342 361.979 360.99 22.747-23.736 43.516-45.494 69.23-70.22-121.648-119.67-242.308-240.33-362.967-361.979-23.737 25.715-47.473 46.484-68.242 71.21zM285.88 348.188c121.649 120.66 242.309 241.32 362.968 360.99 20.77-22.747 44.506-46.484 68.242-68.242-120.66-121.649-240.33-242.308-361.979-362.968-23.736 24.725-47.473 45.495-69.23 70.22zm101.869-100.88c119.67 120.66 240.33 241.32 360 360.99 24.726-23.736 47.473-47.472 71.21-67.252-120.66-121.649-242.309-242.309-361.98-361.98-22.747 20.77-45.494 43.517-69.23 68.242z" style="fill:#000;fill-opacity:1;fill-rule:nonzero;stroke:none;"/>
</svg>
