<svg xmlns="http://www.w3.org/2000/svg" viewBox="0 0 1000 1000"><path d="M5 500.496c0 271.98 220.55 494.507 495.496 494.507 271.98 0 494.507-220.55 494.507-495.496C995.003 227.528 773.464 5 500.496 5 226.54 5 5 225.55 5 500.496zm131.539 69.231c-9.89-64.286-9.89-50.44 46.484-53.407h49.45c4.945 20.77 4.945 39.56 7.912 53.407 27.693 141.43 150.33 230.44 290.77 220.55 144.397-8.9 252.2-130.55 258.133-270.99 0-131.538-118.681-280.88-240.33-280.88-43.517 0-36.594 0-36.594-39.56V134.56c182.968 0 351.1 142.418 370.88 331.32 27.693 220.55-121.648 401.54-331.32 425.276-215.604 20.77-388.682-126.594-415.385-321.43zm155.275-67.253V166.21c0-11.868 0-21.758 2.967-31.648h118.682v370.88c0 31.649 4.945 54.396 27.692 77.143 30.66 27.693 64.286 41.539 103.847 23.737 40.55-13.847 63.297-50.44 63.297-90 4.945-37.583-22.748-73.188-59.341-90.99-13.846-6.923-22.747-6.923-36.594-8.901V298.737c27.693-5.934 53.407 0 76.154 6.923 77.144 36.594 128.572 95.935 141.43 180.99 22.747 149.341-121.65 294.726-294.727 237.363-77.143-27.692-126.594-88.022-140.44-168.132-2.967-18.791-2.967-36.594-2.967-53.407zm220.55 74.176V452.034c36.594 0 64.286 26.704 64.286 64.286 0 39.56-27.692 66.264-64.286 60.33z"/></svg>