<svg xmlns="http://www.w3.org/2000/svg" viewBox="0 0 1000 1000"><path d="M500.496 5C223.572 5 5 229.506 5 500.002c0 276.43 224.506 495.001 495.002 495.001 276.43 0 495.001-224.506 495.001-495.001C995.003 226.539 773.464 5 500.496 5zM207.748 242.363c-2.967-4.945-1.978-6.923 1.978-6.923h499.452c-7.912 15.825-13.846 27.693-22.747 42.528-10.88 15.824-16.813 18.791-34.616 18.791-112.747-.989-225.495 0-338.243 0h-2.967c-9.89 0-9.89.99-3.956 8.901 4.945 14.836 14.836 29.67 21.759 44.506 4.945 10.88 8.9 20.77 13.846 31.648 6.923 12.858 16.813 14.836 30.66 14.836 40.549-1.978 83.077-1.978 125.604-1.978h117.693c11.868 0 11.868 0 7.912 10.879-7.912 13.846-16.813 29.67-23.736 44.505-2.967 3.956-6.923 5.935-12.858 5.935H390.716c-8.902 0-8.902.989-5.935 8.9 11.869 23.737 23.737 45.495 35.605 69.232 11.868 23.736 23.736 46.483 35.605 68.242 14.835 28.681 28.68 55.384 43.516 84.066.99 2.967 3.956 7.912 6.923 12.857 8.901-12.857 70.22-140.44 81.1-161.21 18.79-36.593 36.593-73.186 53.406-108.79 23.737-44.507 43.517-89.012 66.264-132.529 8.901-17.802 17.802-34.615 26.704-53.407 1.978-4.945 3.956-7.912 9.89-7.912 19.78 0 60.33-1.978 64.286.99-99.89 205.714-204.726 416.374-304.617 622.09-17.802-40.55-38.571-79.122-68.242-137.474-18.791-40.55-38.571-81.099-56.374-120.66-11.868-24.725-23.736-48.461-36.593-72.197-15.824-33.627-31.649-69.231-47.473-102.858-10.879-23.736-21.758-47.473-33.626-68.242-13.846-30.66-26.704-59.34-40.55-88.022-3.956-8.901-7.912-17.802-12.857-26.704z"/></svg>