<svg xmlns="http://www.w3.org/2000/svg" viewBox="0 0 1000 1000"><path d="M5 500.496c0 271.98 220.55 494.507 495.496 494.507 271.98 0 494.507-220.55 494.507-495.496C995.003 227.528 773.464 5 500.496 5 226.54 5 5 225.55 5 500.496zM123.682 375.88c-2.967-18.79-1.978-38.571 2.967-58.352 3.956-14.835 10.879-28.68 19.78-40.55 11.868-18.79 26.703-34.615 45.495-46.483 14.835-8.9 30.66-15.824 46.483-20.77 19.78-5.933 39.56-7.911 60.33-7.911 30.66 0 59.341 7.912 86.044 19.78 18.792 7.912 37.583 17.802 54.396 30.66 13.846 10.879 26.704 20.769 36.594 34.615 6.923 9.89 12.857 19.78 18.791 30.66 9.89 20.769 20.77 41.538 30.66 62.307 4.945 12.858 8.9 23.737 13.846 36.594.989 1.978.989 2.967 4.945 1.978 12.857-5.934 26.703-10.88 40.55-15.824l50.44-14.835c13.845-1.979 27.692-5.935 41.538-7.913h31.648c22.747 1.978 43.517 7.913 64.286 15.825 20.77 6.923 38.572 16.813 56.374 30.66 17.802 11.867 32.637 25.713 46.484 42.527 8.9 11.868 17.802 24.725 24.725 38.571 8.901 17.803 13.846 36.594 15.824 57.363 1.978 18.791 0 38.572-5.934 57.363-5.934 17.802-13.846 35.604-27.692 49.45-15.825 18.792-36.594 33.627-59.341 43.517-11.868 4.945-24.726 9.89-36.594 12.857-8.9.99-18.791 1.978-27.692 1.978-24.725 1.978-48.462-.989-72.198-7.912-10.88-1.978-21.758-5.934-31.649-10.879-15.824-7.912-30.659-15.824-44.505-25.714-13.846-9.89-25.715-18.791-36.594-29.67-1.978-1.979-2.967-3.957-4.945-4.946-.989 3.956-1.978 6.923-1.978 9.89-1.978 3.957-2.967 7.913-4.945 12.858 0 1.978-1.978 1.978-3.956 1.978-7.912-2.967-15.824-6.923-22.747-9.89-22.748-9.89-45.495-20.77-69.231-30.66-19.78-9.89-40.55-19.78-61.32-28.681-13.845-5.934-27.692-11.869-41.538-18.792-7.912-3.956-16.813-6.923-24.725-10.879-2.967-1.978-2.967-2.967-.99-3.956 2.968-6.923 6.924-12.857 9.89-18.791.99 0 .99-.99 1.979-1.978-2.967 0-5.934 0-8.901-.99-19.78-.988-39.56-3.955-57.363-9.89-10.88-3.955-20.77-6.922-29.67-10.878-24.726-8.902-45.495-23.737-66.264-40.55-17.803-14.835-30.66-32.637-41.539-54.396-9.89-17.802-17.802-38.571-21.758-59.34zm79.12 17.803c4.946 10.879 9.891 22.747 16.814 31.648 8.901 10.88 17.802 21.758 29.67 28.681 14.836 9.89 30.66 17.803 47.473 22.748 13.846 3.956 29.67 7.912 46.484 7.912 9.89.989 21.758-1.978 32.637-4.945 10.88-1.978 22.748-5.934 33.627-8.901 21.758-7.912 42.527-15.825 62.308-23.737 2.967-.989 2.967-2.967 2.967-4.945-4.945-13.846-10.88-27.692-15.824-40.55-3.956-8.9-8.902-17.802-12.858-27.692-6.923-16.813-14.835-32.637-25.714-46.483-4.945-6.923-9.89-13.847-15.824-18.792-8.901-6.923-18.791-13.846-28.682-19.78-23.736-14.835-50.44-22.747-79.12-20.77-17.803 1.979-34.616 4.946-50.44 13.847-20.77 12.857-36.594 29.67-43.517 54.396-6.923 19.78-4.945 38.571 0 57.363zm107.803 285.825v-6.923c0-17.803 3.956-36.594 7.913-53.407.989-3.956.989-3.956 4.945-1.978 15.824 6.923 32.637 14.835 49.45 22.747 28.682 11.868 56.374 24.726 84.067 37.583 20.769 8.9 40.55 17.802 60.33 26.703 7.912 2.967 14.835 6.923 21.758 9.89 2.967 1.978 2.967 1.978.989 5.934-6.923 7.912-11.868 15.825-18.792 22.748-5.934 7.912-14.835 14.835-21.758 22.747-1.978.989-3.956.989-6.923.989-26.703-12.857-52.418-23.736-79.121-36.594-17.802-7.912-35.605-15.824-53.407-24.725-14.835-5.934-29.67-12.857-45.495-18.791-2.967-1.978-3.956-3.956-3.956-6.923zm7.913 58.352c-.99-.99 0-1.978 0-1.978 2.967 0 4.945.989 7.912 2.967 20.769 8.9 40.55 17.802 60.33 26.703 21.758 8.901 42.527 18.791 64.285 28.681.99.99 1.978.99 2.967 1.978-.989.99-1.978.99-2.967.99-27.692 15.824-57.362 25.714-88.022 33.626-2.967.989-5.934 2.967-7.912 1.978-.989 0-.989-3.956-1.978-5.934-12.857-21.758-21.758-44.506-28.681-67.253-1.978-6.923-3.956-13.846-5.934-21.758zm101.868-199.781c36.594 16.813 74.176 33.626 109.78 50.44 0-.99 0-.99.99-.99-1.978-3.956-3.956-6.923-5.934-10.879l-17.803-44.505c0-.99-.989-1.978-2.967-2.967-6.923-2.967-13.846-5.935-21.758-9.89h-5.934c-17.802 5.934-35.605 11.868-52.418 16.813-.989.989-1.978.989-3.956 1.978zm111.759-284.836c0-45.495 38.571-82.089 84.066-82.089 44.505 0 83.077 35.605 83.077 84.067 0 46.483-36.593 82.088-83.077 83.077-47.473 0-84.066-38.572-84.066-85.055zm34.615 237.363c6.923 18.791 12.857 36.594 19.78 53.407 7.913 21.758 18.792 41.538 31.649 60.33 6.923 8.9 13.846 18.79 23.736 25.714 11.868 7.912 22.748 14.835 34.616 20.77 22.747 8.9 45.494 14.835 70.22 12.857 19.78-1.979 39.56-7.913 56.374-19.78 24.725-17.803 37.582-42.528 38.571-73.188 0-15.824-3.956-30.66-9.89-43.516-6.923-14.836-15.824-26.704-26.703-37.583-10.88-10.88-23.737-20.77-38.572-25.714-9.89-5.934-20.77-8.902-32.637-12.858-9.89-2.967-20.77-4.945-31.649-4.945-7.912 0-16.813 1.978-25.714 2.967-17.803 3.956-34.616 7.913-51.429 14.836-18.791 6.923-37.583 13.846-54.396 19.78-5.934 1.978-5.934 2.967-3.956 6.923z"/></svg>