<svg xmlns="http://www.w3.org/2000/svg" width="1000" height="1000">
  <path d="M5 500.496c0 271.98 220.55 494.507 495.496 494.507 271.98 0 494.507-220.55 494.507-495.496C995.003 227.528 773.464 5 500.496 5 226.54 5 5 225.55 5 500.496zm102.857-22.747c1.979-5.934 4.946-10.88 6.924-15.824.989-1.978 1.978-4.945 3.956-7.913 3.956-12.857 8.9-25.714 13.846-37.582l2.967-8.901L151.374 365c5.934-14.835 12.857-29.67 17.802-45.494.99-3.957 2.967-7.913 4.945-12.858 2.967-4.945 4.946-9.89 6.924-14.835 3.956-13.846 8.9-25.714 14.835-35.604 6.923-13.847 13.846-25.715 20.77-37.583l9.89-10.88 5.933-5.933c7.912-7.912 18.792-14.835 29.67-16.813 9.89-3.956 19.781-5.935 29.671-5.935 9.89-.989 20.77-.989 30.66-.989 20.769.99 39.56 4.946 64.286 13.847 14.835 7.912 30.659 18.79 47.472 30.66 6.923 4.944 11.868 9.89 18.791 15.823l6.924 8.901c7.912 8.902 14.835 16.814 20.769 25.715 7.912 9.89 14.835 21.758 20.77 35.604 5.933 13.847 10.878 28.682 14.834 42.528 1.978 5.934 2.967 15.824 2.967 25.714 0 3.956.99 7.912.99 10.88.988 3.956.988 6.923.988 9.89 0 6.923-.989 13.846-1.978 20.769 0 3.956-.989 7.912-.989 11.868l-5.934 21.758v.99c-.989 5.934-1.978 8.9-4.945 11.868-3.956 1.978-5.934 1.978-7.912.989-3.956 0-4.945-1.978-8.901-5.934-5.934-7.913-13.846-15.825-22.747-22.748-4.945-4.945-10.88-8.9-15.825-12.857-2.967-1.978-6.923-3.956-9.89-6.923-19.78-12.857-41.538-22.747-69.23-30.66-9.89-2.967-23.737-4.945-37.583-6.923-11.868-1.978-26.704-1.978-38.572-1.978h-.989l-44.505 5.934h-.99c-13.846 3.957-27.692 7.913-39.56 12.858-12.857 3.956-29.67 12.857-42.528 22.747-14.835 9.89-28.681 22.747-40.55 34.615-6.922 6.924-12.856 14.836-17.801 23.737zm1.979 117.693c-9.89-28.682-6.924-47.473 9.89-85.056 4.945-6.923 9.89-14.835 15.824-22.747 4.747-9.396 22.55-27 23.242-27.297 8.406-8.308 18.791-15.33 29.176-23.143 16.813-9.89 32.637-15.824 52.417-22.747l12.858-2.967c8.9-1.978 18.79-4.945 28.681-5.934 12.857-.99 26.703-.99 40.55-.99 25.714.99 50.44 6.924 75.165 15.825 18.791 8.901 35.604 18.791 49.45 31.648 5.934 4.946 12.858 10.88 17.803 15.825 2.967 2.967 4.945 4.945 6.923 12.857.989 2.967 0 4.945-3.956 6.923 0 0-57.363 18.791-58.352 19.78-13.846 4.945-26.704 11.868-40.55 20.77l-23.736 17.802c-2.967 3.956-5.934 6.923-9.89 10.879-1.978 1.978-4.945 4.945-6.923 7.912-4.945 4.945-9.89 10.88-13.847 16.813-1.978 1.978-3.956 3.956-5.934 6.923-6.923 8.902-13.846 21.759-19.78 31.649-21.758 44.506-24.725 72.198-28.681 113.737-.99 10.879 1.978 20.769 3.956 30.659 0 4.945.989 10.88 1.978 15.824 2.967 12.857 6.923 24.726 11.868 38.572 4.945 14.835 4.945 13.846.989 9.89-4.945-7.912-11.868-16.813-18.791-24.725l-17.803-23.737c-11.868-13.846-21.758-26.703-32.637-39.56l-34.616-45.495c-5.934-7.912-11.868-14.835-17.802-20.77-2.967-3.955-5.934-7.911-9.89-11.868-.989-1.978-2.967-2.967-3.956-4.945-2.967-3.956-4.945-6.923-6.923-10.879l-13.846-20.769c-5.934-13.846-11.868-27.692-12.857-30.66zm45.494-131.54c1.088-1.186 2.275-2.472 3.462-3.56.099-.099-.791.89-3.462 3.56zm132.528 258.133c1.978-17.802 5.934-34.615 8.901-49.45l11.868-32.638c12.858-29.67 21.759-43.516 41.539-66.264 4.945-4.945 9.89-8.9 14.835-12.857l14.835-11.868c.99 0 2.967-.99 3.956-1.978l24.726-15.824c6.923-3.956 13.846-6.924 22.747-9.89 4.945-1.979 9.89-3.957 16.813-4.946l10.88-2.967c17.802-6.923 24.725 0 15.824 17.803-4.945 11.868-7.912 25.714-10.88 38.571l-2.966 11.868c-1.978 14.836-1.978 29.67-1.978 45.495 1.978 17.802 5.934 36.594 10.879 59.34l15.824 36.594c8.901 16.814 19.78 32.638 29.67 47.473 7.913 9.89 14.836 16.813 23.737 25.714 5.934 5.935 11.868 10.88 18.791 15.825.989.989 2.967 1.978 4.945 3.956 12.857 9.89 25.714 16.813 38.572 20.769 14.835 8.901 57.362 19.78 69.23 19.78 7.913.99 2.968 1.978 0 1.978-4.944.99-74.175 8.901-85.055 10.88-8.9.989-70.22 8.9-78.132 10.879-1.978 0-4.945.989-7.912.989l-9.89.989c-3.956.989-6.923.989-9.89.989-2.967 0-5.934.989-8.901.989-1.978 0-18.792 2.967-28.682 3.956H406.54c-15.824 0-30.66-4.945-44.506-10.88l-5.934-3.955c-5.934-1.979-10.88-4.946-14.835-8.902-9.89-10.879-19.78-23.736-29.67-41.538-9.89-17.802-16.814-39.56-19.78-62.308-3.957-13.846-3.957-26.703-3.957-38.572zm34.616-576.595c3.956-.989 6.923-.989 12.857-.989 15.824-2.967 31.648-4.945 47.472-6.923 7.913-1.978 16.814-2.967 25.715-3.956l22.747-3.956c7.912-.99 16.813-1.978 24.726-3.956l24.725-2.967c8.901-1.978 17.802-2.967 26.703-4.945 8.901-.99 17.803-1.978 26.704-3.956 5.934-.99 11.868-1.978 17.802-1.978 2.967 0 5.934-.99 8.901-.99h41.539c.989.99 2.967.99 5.934.99 5.934 0 11.868 1.978 18.791 3.956 10.88 2.967 21.758 7.912 29.67 14.835l4.945 4.945c1.979 1.978 5.935 4.945 9.89 7.912 3.957 3.956 6.924 8.901 10.88 13.846.989 2.967 2.967 4.945 3.956 6.923 3.956 6.923 7.912 13.846 10.879 21.759l5.934 13.846 7.912 25.714c.99 5.934 1.978 11.868 3.956 16.813 1.978 12.858 1.978 23.737 1.978 35.605-1.978 25.714-7.912 48.462-15.824 68.242-2.967 9.89-7.912 21.758-12.857 32.637l-20.77 29.67-10.879 11.869-13.846 16.813c-11.868 9.89-24.725 19.78-39.56 28.682-16.814 7.912-32.638 14.835-53.407 18.79 0 0 0 .99-7.912.99-5.934 0-8.901-2.967-8.901-8.901 0-13.846 3.956-16.813 6.923-30.66.989-2.967.989-4.945 1.978-6.923 2.967-9.89 4.945-19.78 4.945-33.626V386.76c0-11.869-.99-22.748-2.967-33.627-1.978-13.846-4.945-25.714-8.901-39.56-9.89-25.715-20.77-47.473-34.616-67.254l-13.846-16.813-9.89-11.868c-12.857-14.835-25.715-24.725-37.583-31.648-26.703-18.792-57.363-30.66-90.989-35.605zm161.209 470.77v-19.78c0-2.967.989-4.945.989-6.923 1.978-7.912 9.89-42.527 12.857-48.461 1.978-4.945 4.945-5.934 10.88-4.945l36.593 36.593c2.967 1.978 5.934 3.956 8.9 6.923l5.935 3.956c5.934 4.945 12.857 8.901 18.791 12.858 10.88 4.945 19.78 8.9 29.67 13.846 20.77 8.9 37.583 12.857 55.386 14.835 55.384 6.923 101.868 0 137.473-16.813 17.802-8.901 23.736-10.88 36.593-19.78 8.901-5.935 18.791-13.847 25.714-20.77 2.967-2.967 26.704-26.703 31.649-33.626l5.736-6.726c-.89 1.286-1.978 5.044-4.747 10.682-3.956 7.912-6.923 15.824-10.88 23.736-2.966 8.901-5.933 16.813-8.9 23.736-3.956 7.912-6.923 15.825-9.89 22.748l-8.902 22.747-14.835 37.583c-7.912 20.769-17.802 49.45-23.736 58.351-2.967 7.913-5.934 14.836-9.89 21.759-6.923 13.846-15.825 27.692-25.715 41.538-5.934 8.901-14.835 18.792-23.736 24.726-7.912 3.956-15.824 6.923-24.725 8.9-7.913 1.979-31.649 4.946-43.517 4.946h-3.956c-2.967 0-25.715-1.978-34.616-4.945-10.879-1.978-22.747-5.934-33.626-10.88-2.967-.988-5.934-.988-7.912-1.977-12.857-6.923-23.737-13.847-35.605-22.748-5.934-3.956-12.857-10.879-19.78-17.802-1.978-1.978-3.956-3.956-6.923-5.934-3.956-2.967-6.923-6.923-10.88-10.88-3.955-3.955-6.922-8.9-10.878-13.845l-6.924-9.89c-4.945-7.913-9.89-15.825-13.846-26.704-7.912-14.835-13.846-32.637-17.802-55.385-3.956-11.868-4.945-22.747-4.945-31.648zm59.34-89.01c-2.966-6.924-2.966-9.89 3.957-13.847 2.967-.989 8.901-1.978 7.912-1.978 4.945-.989 9.89-2.967 13.846-3.956l49.45-19.78 31.65-21.758c5.933-4.945 9.89-9.89 16.813-15.825 11.868-7.912 21.758-20.769 29.67-31.648 5.934-8.901 10.88-17.802 15.824-26.703 8.901-15.825 15.824-31.649 21.759-49.451 3.956-10.88 6.923-20.77 6.923-28.682l1.978-10.879c0-2.967.989-5.934 1.978-9.89.989-7.912 0-14.835 0-21.758v-9.89c0-13.847-1.978-25.715-5.934-38.572-3.956-17.802-7.913-31.648-14.836-44.506l-5.934-13.846.99.99 2.966 3.955c1.978 1.978 3.956 4.945 5.934 7.912l7.913 8.902 13.846 15.824c.989.989 7.912 8.901 11.868 13.846.989 1.978 2.967 2.967 3.956 4.945 2.967 2.967 5.934 5.934 7.912 9.89 2.967 3.956 5.934 7.912 8.901 10.88l8.901 10.879c2.967 1.978 5.934 5.934 8.902 9.89 1.978 2.967 3.956 5.934 6.923 8.9 4.945 4.946 11.868 10.88 15.824 17.803 2.967 3.956 5.934 6.923 8.901 9.89l7.912 8.901c16.813 18.792 28.681 32.638 38.572 52.418 10.879 13.846 17.802 28.682 23.736 46.484 0-.99 2.967 6.923 2.967 11.868v24.725c-3.956 24.726-7.912 26.704-18.791 48.462-1.978 3.956-3.956 7.912-5.934 10.88l-15.825 20.768c-1.978 2.968-3.956 5.935-6.923 8.902-2.967 1.978-5.934 4.945-8.9 8.9l-18.792 12.858-.99.989c-6.922 5.934-16.812 10.88-26.702 15.824-11.869 6.923-24.726 10.88-37.583 14.835-48.462 11.869-72.198 15.825-125.605 1.978-3.956-.989-6.923-1.978-10.879-3.956-5.934-1.978-10.88-2.967-16.813-5.934-11.868-4.945-22.748-10.879-35.605-20.769-12.857-7.912-20.769-15.824-28.681-24.725-1.978-1.978-1.978-1.978-3.956-4.945z" style="fill:#000;fill-opacity:1;fill-rule:nonzero;stroke:none;"/>
</svg>
