<svg xmlns="http://www.w3.org/2000/svg" viewBox="0 0 1000 1000"><path d="M500,0C223.858,0,0,223.858,0,500s223.858,500,500,500,500-223.857,500-500S776.143,0,500,0ZM220.385,426.425c37.25,7.418,79.167,11.5,123.5,11.5,154.75,0,280.167-50.167,280.167-112.082,0-11.668-4.5-23-12.832-33.585a5.32,5.32,0,0,1,5.668-8.416c72.082,20.251,119.164,53.751,119.164,91.75,0,61.916-125.417,112.083-280.167,112.083-100.915,0-189.333-21.415-238.666-53.415A4.306,4.306,0,0,1,220.385,426.425Zm264.6,289.42c-117.917,0-221.332-25-278.916-62.418a4.979,4.979,0,0,1,3.668-9.082c43.5,8.582,92.5,13.417,144.334,13.417,180.832,0,327.414-58.585,327.414-130.917,0-13.668-5.25-26.835-15-39.25a6.243,6.243,0,0,1,6.668-9.835C757.4,501.427,812.482,540.6,812.4,584.927,812.4,657.177,665.815,715.845,484.982,715.845Z"/></svg>