<svg xmlns="http://www.w3.org/2000/svg" viewBox="0 0 1000 1000"><path d="M546.604 498.281v298.263c0 30.974 0 30.974 27.532 30.974 37.857 0 75.713-10.325 111.275-20.65 18.355-4.588 19.502-17.207 19.502-27.531V658.884c0-19.502-10.325-22.943-27.532-27.532-27.532-9.177-57.358-9.177-75.713-9.177-19.502 0-19.502-20.649-19.502-27.532 0-20.649 0-30.973 19.502-30.973 48.181 10.324 83.743 10.324 130.777 10.324 48.18 0 103.245 0 150.279-10.324 17.207 0 27.532 0 27.532 20.649 0 20.648 0 27.531-19.502 27.531-18.355 0-27.532 27.532-27.532 47.034v137.66c0 20.65 0 30.974-18.355 37.857-95.215 29.826-188.135 57.358-279.908 57.358-18.355 0-20.65 8.03-18.355 18.354v55.064c0 19.502-9.177 29.827-29.826 29.827-55.064 0-44.74 0-55.064-57.359 0-45.886 0-45.886-44.74-55.063C256.371 855.05 135.92 751.805 98.062 594.643c-17.207-96.362-9.177-196.165 37.857-281.056 55.064-103.244 139.954-158.308 251.23-185.84 55.063-6.883 72.27-3.442 74.565-37.857 0-19.502 1.147-29.826 0-55.064C461.714 15.324 466.303 5 500.718 5c37.856 2.294 43.592 10.324 45.886 57.358 0 55.064-9.177 45.887 45.887 45.887 84.89 0 157.161 19.502 243.199 47.034 17.207 10.324 17.207 18.354 17.207 37.856-8.03 37.857-8.03 82.596-17.207 130.777 0 17.207-10.325 17.207-27.532 17.207-10.325 0-27.532 0-27.532-17.207-2.294-12.619 0-10.325 0-20.649 6.883-44.74-20.65-82.596-65.389-102.098-48.18-18.354-95.214-27.532-150.278-27.532-18.355 0-27.532 9.178-27.532 27.532 9.177 102.098 9.177 197.313 9.177 297.116zM266.696 563.67c17.207 103.244 74.566 188.135 167.486 243.199 10.324 6.883 17.207 6.883 27.532 10.324V193.135c-94.068 25.238-138.807 59.653-177.81 158.309-27.533 74.566-27.533 139.954-17.208 212.226z"/></svg>