<svg xmlns="http://www.w3.org/2000/svg" width="1000" height="1000">
  <path d="M500.002 995.003c276.43 0 495.001-224.506 495.001-495.001C995.003 226.539 773.464 5 500.496 5 223.572 5 5 229.506 5 500.002c0 276.43 224.506 495.001 495.002 495.001zM251.265 525.221c68.242-115.714 136.484-230.44 204.726-346.155 13.846-23.736 27.692-46.483 42.527-69.23h7.912c25.715 42.527 52.418 86.044 78.132 129.56 76.154 131.54 152.309 264.067 229.452 395.606 12.857 22.747 27.692 45.495 41.538 68.242 13.847 25.714 8.901 35.605-19.78 35.605h-460.88c-28.682 0-34.616-9.89-19.78-34.616 17.801-32.637 37.582-64.286 55.384-96.923 6.923-12.858 15.824-16.814 30.66-16.814 45.494.99 90.989.99 135.494.99 27.693 0 35.605-12.858 21.759-35.605-23.737-42.528-48.462-85.055-73.187-126.594-16.814-28.681-29.67-28.681-45.495 0-22.747 38.572-44.506 76.154-66.264 115.715-6.923 13.846-16.813 19.78-32.638 18.791-35.604-.989-71.209 0-106.813 0-32.638 0-38.572-10.88-22.747-38.572z" style="fill:#000;fill-opacity:1;fill-rule:nonzero;stroke:none;"/>
</svg>
