<svg xmlns="http://www.w3.org/2000/svg" width="1000" height="1000">
  <path d="M500.496 5C223.572 5 5 229.506 5 500.002c0 276.43 224.506 495.001 495.002 495.001 276.43 0 495.001-224.506 495.001-495.001C995.003 226.539 773.464 5 500.496 5zM110.825 401.595c30.659-6.923 62.307-13.846 88.022-16.814 3.956-4.945 10.879 0 13.846 2.968 37.583 33.626 79.121 72.198 119.67 107.802-27.692-1.978-54.395-5.934-79.12-5.934-22.748-1.978-46.484-7.912-74.176-7.912-10.88 0-16.814-1.978-22.748-16.813-14.835-18.792-31.648-39.561-45.494-63.297zm45.494 306.594c16.813-27.692 33.627-51.429 50.44-75.165 2.967-3.956 5.934-3.956 12.857-3.956 51.429-1.978 101.869-5.934 158.242-8.901-3.956 2.967-7.912 6.923-7.912 8.901-37.582 32.637-75.165 62.308-111.758 92.967-4.945 2.967-10.88 6.923-13.847 6.923-31.648-6.923-59.34-13.846-88.022-20.769zm8.901-218.572c58.352 3.956 112.748 10.88 164.177 14.835 2.967 0 2.967 1.978 2.967 1.978-40.55 38.572-85.055 72.198-125.605 108.792-13.846-43.517-27.692-85.055-41.539-125.605zm47.473 130.55c45.495-38.572 86.044-73.187 126.594-106.814 0 0 3.956-2.967 6.923 0 27.692 3.956 58.352 9.89 89.011 16.814-16.813 28.681-34.615 51.428-51.429 76.154-3.956 3.956-5.934 5.934-9.89 5.934-52.417 2.967-102.857 2.967-150.33 7.912zm0-249.232c20.77-41.538 40.55-79.12 62.308-119.67 37.582 43.516 71.209 85.055 108.791 133.516-57.362-6.923-112.747-10.879-171.099-13.846zm6.923 8.901v-1.978c38.572 1.978 72.198 9.89 109.78 9.89 44.506-2.967 71.21 16.814 89.012 58.352 2.967 6.923 9.89 16.814 16.813 26.704-30.66 6.923-61.319 8.9-89.011 16.813-2.967 0-10.88 0-10.88-1.978-40.549-34.616-77.142-68.242-115.714-107.803zm38.572 352.09c40.55-34.616 85.055-70.22 128.572-108.792-2.968 57.363-8.902 112.748-12.858 174.066-41.538-23.736-79.12-40.55-115.714-65.275zm22.747-497.475c3.956-27.692 10.88-55.385 17.802-86.044 27.693 17.802 51.429 34.616 75.165 51.429 3.956 3.956 3.956 9.89 3.956 12.857 1.978 52.418 5.934 106.814 8.902 161.21-6.924-5.935-8.902-10.88-12.858-16.814-27.692-34.615-58.352-68.242-86.044-102.857-2.967-2.967-6.923-13.847-6.923-19.78zm102.857 555.826c2.968-54.395 7.913-106.813 12.858-161.209 0 0 0-5.934 3.956-5.934 24.725-16.813 51.428-34.616 79.12-51.429 2.968 34.616 8.902 61.32 13.847 91.979 1.978 2.967 0 6.923-4.945 10.879-34.615 36.593-67.253 78.132-101.868 115.714zm2.968 17.803c0-4.945 4.945-10.88 7.912-10.88 30.66-40.55 65.275-78.132 98.901-116.703 1.978 0 1.978 0 6.923-1.978-4.945 53.406-6.923 104.835-13.846 156.264 0 2.967-3.956 9.89-6.923 13.846-25.715 16.813-47.473 30.66-75.165 50.44-7.912-33.627-12.857-64.286-17.802-90.99zm0-598.354h4.945c33.626 41.539 68.242 82.088 101.868 123.627 1.978 0 1.978 6.923 1.978 9.89-6.923 27.692-12.857 58.352-18.791 88.022-24.726-17.802-51.429-34.615-76.154-51.429-3.956-1.978-3.956-5.934-3.956-8.9-1.978-51.43-4.945-105.825-9.89-161.21zm4.945-9.89c43.516-13.846 85.055-26.704 128.571-38.572-6.923 56.374-8.9 110.77-16.813 172.089-37.582-47.473-75.165-89.012-111.758-133.517zm101.868 641.87c6.923-55.385 9.89-109.78 17.802-171.1 35.605 48.462 70.22 90 108.792 132.529-41.539 13.846-83.077 27.692-126.594 38.571zm19.78-519.232c3.956-30.66 3.956-61.32 6.923-91.979 1.978-20.77 1.978-40.55 7.913-61.319 0-2.967 0-10.879 1.978-12.857 27.692-16.813 51.428-35.604 79.12-52.418 5.935 30.66 10.88 62.308 12.858 89.012 3.956 2.967 0 10.879-1.978 13.846-34.616 41.538-68.242 79.121-102.858 115.715zm6.923 331.32c1.978-26.704 9.89-55.385 16.814-82.089 24.725 16.813 50.44 34.616 75.165 51.429 0 3.956 2.967 5.934 2.967 13.846 4.945 51.429 6.923 102.858 10.879 153.297h-5.934c-10.88-9.89-21.758-23.736-32.638-37.582-22.747-27.693-42.527-50.44-65.275-78.132-1.978-3.956-4.945-12.858-1.978-20.77zm0-307.584c0-5.934 0-12.857 1.978-16.813 35.605-37.583 70.22-78.132 103.847-116.704h2.967c-2.967 48.462-6.923 92.967-8.901 138.462 0 22.747-10.88 36.594-32.638 45.495-16.813 11.868-33.626 22.747-53.406 34.615-3.956-29.67-11.869-57.363-13.847-85.055zm54.396 126.594c20.77-26.704 34.616-51.429 51.429-76.154 2.967-1.978 7.912-4.945 10.88-4.945 53.406-3.956 108.79-3.956 166.154-6.924-22.748 16.814-43.517 34.616-60.33 46.484-18.792 14.835-31.649 23.736-45.495 41.539-16.813 16.813-36.594 20.769-58.352 14.835-18.791-7.912-40.55-10.88-64.286-14.835zm3.956 57.363c26.704-6.924 50.44-8.902 77.143-12.858 7.913-3.956 17.803-3.956 21.759 0 41.538 33.627 78.132 71.21 122.638 109.781-37.583-3.956-68.242-3.956-97.913-6.923-21.758-4.945-41.539-4.945-63.297-7.912-1.978 0-9.89-1.978-12.857-5.934-16.813-24.726-30.66-47.473-47.473-76.154zm47.473 109.78v-10.879c12.857 14.835 20.77 27.692 29.67 37.583 24.726 28.681 46.484 52.417 65.275 79.12 10.88 6.924 14.836 16.814 10.88 31.65-7.913 22.746-10.88 47.472-16.814 77.142-27.692-19.78-51.428-37.582-76.154-54.396-1.978 0-4.945-5.934-4.945-9.89-4.945-50.44-4.945-98.901-7.912-150.33zm0-260.11c2.967-60.33 7.912-114.726 12.857-173.078a1016.866 1016.866 0 0 1 116.704 65.275c-44.506 33.626-86.044 68.242-129.561 107.802zm2.967 240.33c58.352 6.923 113.737 8.901 171.1 16.813-19.78 37.583-40.55 74.176-61.32 115.715-36.593-44.506-71.208-86.044-109.78-132.528zm4.945-235.386c18.791-16.813 35.605-30.659 53.407-44.505 9.89-10.88 27.692-20.77 36.593-34.616 24.726-30.66 56.374-33.626 90-19.78 12.858 2.967 26.704 5.934 43.517 8.901-16.813 24.726-33.626 48.462-50.44 73.187-3.955 2.967-6.922 5.934-9.89 5.934-54.395 3.956-106.813 5.934-163.187 10.88zm43.517 115.715c43.516-37.582 85.055-75.165 129.56-112.747 13.847 43.516 28.682 85.055 41.54 125.604-59.342-2.967-112.748-8.9-171.1-12.857zm2.967 5.934c23.736 3.956 40.55 3.956 58.352 6.923 33.626 0 64.286 3.956 98.901 7.912 5.934 1.978 13.846 6.924 16.813 12.858 16.814 20.769 30.66 44.505 48.462 68.242-31.648 7.912-59.34 12.857-86.044 17.802-5.934 0-13.846-4.945-16.813-7.912-40.55-30.66-79.122-67.253-119.671-105.825z" style="fill:#000;fill-opacity:1;fill-rule:nonzero;stroke:none;"/>
</svg>
