<svg xmlns="http://www.w3.org/2000/svg" viewBox="0 0 1000 1000"><path d="M5 500.496c0 271.98 220.55 494.507 495.496 494.507 271.98 0 494.507-220.55 494.507-495.496C995.003 227.528 773.464 5 500.496 5 226.54 5 5 225.55 5 500.496zm272.968 56.374c113.737-142.418 230.44-278.902 347.144-423.298 0 0 9.89-8.901 8.901-3.956L556.87 406.54c-6.923 20.77 0 34.615 27.692 34.615H747.75s6.923.99 0 6.923C625.112 585.551 502.474 714.123 371.924 844.673c0 0-9.89 3.956-5.934-7.912 33.627-83.077 68.242-171.1 102.858-266.045H283.902c-11.868 0-15.824-4.945-5.934-13.846z"/></svg>