<svg xmlns="http://www.w3.org/2000/svg" viewBox="0 0 1000 1000"><path d="M495.375 5h9.745c2.436 0 6.09 0 8.526 1.218 20.708 2.436 37.76 12.18 53.596 25.58 21.925 21.925 49.941 34.106 80.393 42.633 21.926 7.308 45.069 9.744 69.43 8.526 8.527-1.218 18.272-2.436 28.016-1.218 40.197 3.654 75.521 34.106 82.83 74.303 4.872 25.58 14.617 48.723 29.234 69.43 18.271 28.016 41.415 52.378 70.649 68.213 38.978 21.926 57.25 69.43 42.632 112.063-2.436 9.745-7.308 18.272-10.962 28.016-8.527 25.58-10.963 52.378-9.745 80.394 1.218 23.143 6.09 46.287 15.835 66.994 7.309 15.835 10.963 31.67 9.745 48.723-3.655 32.888-18.272 58.468-46.287 75.521-23.144 12.181-42.633 29.234-58.468 48.723-20.708 26.798-36.543 56.032-42.633 88.92-8.527 43.851-47.505 75.521-92.574 75.521-8.527 0-15.835-1.218-24.362-2.436-23.143-1.218-46.287 3.654-69.43 10.963-29.234 8.526-56.032 23.143-77.957 43.85-36.543 32.889-91.356 31.67-127.899-1.217-17.053-15.835-37.76-28.016-60.904-37.76-30.452-12.182-62.122-18.272-96.228-14.618-8.527 1.218-18.271 1.218-26.798 0-37.76-4.872-70.649-34.106-79.175-70.648-4.873-23.144-12.181-46.288-25.58-65.777-19.49-31.67-43.85-57.25-75.52-75.52-36.543-20.708-54.815-65.777-43.852-105.974 2.436-9.744 7.309-19.49 10.963-29.234 9.745-25.58 12.18-52.377 10.963-80.393 0-25.58-4.873-49.941-15.835-71.867-4.873-10.962-8.527-20.707-8.527-31.67-2.436-40.196 12.18-71.867 46.287-91.356 25.58-15.835 46.287-35.324 64.558-58.468 17.053-23.143 29.234-48.723 35.325-77.957 8.526-40.196 37.76-68.212 77.957-76.739 10.963-1.218 21.925 0 32.888 1.218 24.362 2.436 48.723-1.218 71.867-8.526 30.452-8.527 58.468-23.144 82.83-46.287 10.962-9.745 24.36-17.054 38.978-20.708C481.976 6.218 488.066 5 495.375 5zM179.892 403.312c2.436 13.4 8.527 24.362 15.835 35.325 8.527 9.744 15.835 19.489 23.144 28.015 20.707 23.144 36.542 48.724 47.505 77.958 12.18 30.452 19.49 63.34 18.271 96.228 0 20.707-1.218 41.415-2.436 62.122v13.399c2.436 34.106 29.234 54.814 63.34 47.505 12.181-2.436 25.58-7.308 37.76-12.18 31.67-13.4 63.34-24.362 98.665-25.58 38.979-1.219 75.521 1.218 112.064 15.835 17.053 7.308 34.106 14.617 52.377 20.707 14.617 4.872 30.452 4.872 45.069-3.654 18.271-9.745 25.58-26.798 26.798-47.505 0-15.835-1.218-31.67-2.436-46.287-2.437-26.798-1.219-52.378 4.872-77.958 8.526-35.324 20.707-68.212 41.415-97.446 12.18-15.835 25.58-30.452 37.76-46.287 4.872-7.309 10.963-14.617 14.617-21.926 8.527-19.489 8.527-37.76-6.09-54.813-6.09-9.745-15.835-14.617-26.798-18.271-10.963-3.655-21.926-7.309-34.106-9.745-24.362-6.09-48.724-12.18-70.649-24.362-35.324-19.489-66.994-43.85-91.356-76.739-13.399-17.053-24.362-36.542-36.542-54.813-3.655-6.09-8.527-10.963-13.4-15.835-17.052-17.053-40.196-20.708-59.685-8.527-8.527 4.872-15.835 10.963-21.926 19.49-6.09 9.744-13.399 19.489-19.489 29.233-18.271 31.67-40.197 58.468-68.212 79.176-25.58 19.489-53.596 35.324-84.048 43.85-15.835 4.873-31.67 8.527-46.287 12.181-13.399 3.655-26.798 7.309-37.76 17.053-13.4 10.963-20.708 25.58-18.272 43.851z"/></svg>