<svg xmlns="http://www.w3.org/2000/svg" width="1000" height="1000">
  <path d="M721.144 744.166h-227.22C363.177 741.627 259.087 635 256.549 501.713c-2.54-114.244 83.78-219.603 192.946-241.183 154.865-27.927 291.96 86.318 291.96 239.914v224.681c0 19.041 0 19.041-20.311 19.041zM6.479 538.526c-7.616-106.629 13.964-203.102 69.817-297.037 2.538-5.077 6.347-19.04 20.31-11.424 12.694 8.885 16.502 15.232 6.347 30.465-45.698 74.894-68.547 152.326-68.547 237.375 3.808 133.286 50.775 248.8 149.788 341.465 77.432 74.894 170.097 115.514 280.534 124.4 151.057 7.616 276.726-43.16 380.816-154.865 67.277-74.894 106.628-166.29 115.514-270.38 8.886-92.665-8.886-180.252-54.584-260.224-76.163-132.016-186.6-214.526-335.118-237.375C459.65 24.424 359.37 44.734 265.434 98.048c-24.118 13.964-24.118 13.964-39.35-11.424 24.118-12.694 46.967-26.657 68.546-39.351 68.547-30.465 140.902-44.428 218.335-41.89 116.783 2.54 220.873 41.89 307.191 118.053 82.51 71.086 138.363 158.674 161.212 264.033 35.543 157.403 1.27 300.844-99.012 423.975-83.78 106.628-194.216 166.29-328.771 180.253-157.404 16.502-294.498-30.466-407.473-143.441-85.049-85.049-128.208-187.87-139.633-309.73zM109.3 160.248c0-29.195 22.85-50.775 52.046-50.775 26.657 2.539 46.967 21.58 46.967 50.775 0 31.735-20.31 50.776-46.967 50.776-29.196 0-52.045-24.118-52.045-50.776zM359.37 467.44c-19.04 79.971 33.004 163.75 115.514 172.636 54.584 5.078 104.09 2.54 158.673 2.54 6.347 0 10.155-5.078 10.155-11.425V497.905c-3.808-63.47-43.159-119.322-101.55-134.555-77.433-26.657-165.02 24.119-182.792 104.09z" style="fill:#000;fill-opacity:1;fill-rule:nonzero;stroke:none;"/>
</svg>
