<svg xmlns="http://www.w3.org/2000/svg" width="1000" height="1000">
  <path d="M5 500.496C5 225.55 226.54 5 500.496 5c272.968 0 494.507 222.528 494.507 494.507 0 274.946-222.528 495.496-494.507 495.496C225.55 995.003 5 772.475 5 500.496zM149.396 738.85c8.901 35.604 40.55 57.362 78.132 57.362 33.627 2.967 65.275-18.79 75.165-57.362 11.868-33.627-3.956-71.21-34.615-87.034-12.857-5.934-15.824-15.824-15.824-28.681v-322.42c5.934 2.967 8.9 4.945 8.9 4.945 63.298 64.286 126.595 126.594 188.902 188.902 8.902 6.923 5.935 12.857 0 19.78-18.79 17.803-37.582 33.627-53.406 52.418-34.616 34.616-44.506 75.165-34.616 122.638 9.89 56.374 56.374 100.88 112.748 106.813 63.297 8.902 119.67-18.79 144.396-72.198 28.681-53.406 18.791-116.703-21.758-160.22-15.825-15.824-31.649-28.681-47.473-44.506-5.934-4.945-8.901-11.868-17.802-21.758l17.802-8.901c19.78-22.747 41.538-40.55 60.33-63.297 12.857-8.901 12.857-24.725 0-33.626-9.89-12.858-24.726-12.858-37.583 0-12.857 11.868-28.681 27.692-44.505 40.55-8.902 12.856-18.792 21.757-31.649 33.626-5.934-4.945-8.901-8.901-11.868-11.869-79.121-79.12-154.286-153.297-229.451-228.462-2.967-3.956-9.89-9.89-11.869-12.857-19.78-9.89-37.582 0-40.55 18.791-3.955 5.934-3.955 8.901-3.955 15.824 0 124.616 0 254.177 3.956 378.793 0 9.89-3.956 15.824-16.813 21.758-31.649 19.78-46.484 57.363-36.594 90.99zm49.45-21.759c0-11.868 12.858-24.725 28.682-27.692 15.824 0 27.693 11.868 27.693 27.692 0 15.825-15.825 28.682-27.693 28.682-15.824 0-28.681-12.857-28.681-28.682zm226.485-99.89c17.802-28.682 46.484-50.44 71.21-78.132 25.713 28.681 53.406 53.406 76.153 81.099 21.759 31.648 12.857 79.121-22.747 106.813-30.66 24.726-78.132 24.726-108.792-2.967-31.648-24.725-41.538-72.198-15.824-106.813zM688.41 266.1c-9.89 34.615 5.934 72.198 37.582 90.99 12.858 5.933 15.825 12.856 15.825 24.724-2.967 63.297 0 128.572 0 190.88v201.76c2.967 15.823 12.857 24.724 25.714 21.757 14.835 0 24.725-9.89 24.725-21.758V381.814c0-9.89 2.967-18.79 12.858-24.725 33.626-18.791 49.45-53.407 40.55-90.99-9.891-34.615-40.55-60.33-78.133-60.33-35.604 0-66.264 25.715-79.121 60.33zm50.44 21.758c0-15.824 12.857-28.681 28.681-28.681 14.835 0 27.692 12.857 27.692 28.681 0 15.824-12.857 24.725-27.692 28.681-15.824 0-28.681-12.857-28.681-28.68z" style="fill:#000;fill-opacity:1;fill-rule:nonzero;stroke:none;"/>
</svg>
