<svg xmlns="http://www.w3.org/2000/svg" width="1000" height="1000">
  <path d="M500.496 995.003c275.935 0 494.507-224.506 494.507-495.496C995.003 226.54 773.464 5 500.496 5 223.572 5 5 229.506 5 499.507c0 276.924 224.506 495.496 495.496 495.496zM102.912 499.507c0-219.561 178.023-397.584 397.584-397.584S898.08 279.946 898.08 499.507 720.057 897.091 500.496 897.091 102.912 719.068 102.912 499.507zm198.792 153.297c0 3.462 1.484 9.198 5.143 13.847.594.692 1.187 1.384 1.78 1.978 1.978 3.956 6.923 9.89 8.902 11.868 98.901 98.901 263.077 98.901 361.979-1.978 8.9-6.923 13.846-18.792 13.846-30.66 0-11.868-4.945-23.736-13.846-30.66-18.792-13.845-45.495-9.89-58.352 6.924-56.374 54.396-145.385 68.242-214.616 25.714l45.494-42.527c-25.714-11.868-45.494-34.616-56.373-58.352l-44.506 42.527-35.605 34.616c-8.9 6.923-13.846 16.813-13.846 26.703zm11.868-312.528c0 6.923 3.957 15.824 8.902 23.736 14.835 15.824 40.55 18.791 56.373 3.956 0-1.978 1.978-1.978 1.978-1.978l2.967-1.978c58.352-51.429 145.386-56.374 210.66-11.868l-44.505 42.528c25.714 10.879 44.506 34.615 56.374 58.351l87.033-82.088c4.945-4.945 6.923-8.9 4.945-18.791 0-6.923-2.967-14.835-6.923-18.791C641.926 275 571.706 244.34 495.55 244.34c-60.33 0-120.66 22.748-168.132 65.275-9.89 6.923-13.847 18.792-13.847 30.66zM416.43 502.474c0 44.506 39.56 84.066 84.066 84.066s84.066-39.56 84.066-84.066c0-45.494-36.593-85.055-84.066-85.055-48.462 0-84.066 39.56-84.066 85.055z" style="fill:#000;fill-opacity:1;fill-rule:nonzero;stroke:none;"/>
</svg>
