<?xml version="1.0" encoding="UTF-8"?><svg id="a" xmlns="http://www.w3.org/2000/svg" viewBox="0 0 1000 1000"><path d="M39.79,400.824c-16.324,6.962-29.588,16.925-39.79,28.808C31.028,207.067,207.051,31.041,429.617,.014c-12.529,10.876-22.387,24.491-28.806,39.79l-26.588,62.326c-52.248,122.373-149.73,219.844-272.108,272.079l-62.325,26.616Zm920.452,198.32l-62.356,26.617c-122.378,52.24-219.853,149.725-272.079,272.108l-26.617,62.295c-6.414,15.311-16.273,28.936-28.806,39.821,222.566-31.059,398.589-207.082,429.617-429.648-10.866,12.539-24.484,22.396-39.79,28.806h.031ZM625.807,102.13c52.233,122.373,149.706,219.846,272.079,272.079l62.325,26.616c16.324,6.962,29.559,16.925,39.79,28.808C968.972,207.067,792.949,31.041,570.383,.014c11.852,10.203,21.844,23.467,28.806,39.79l26.617,62.326Zm-251.582,795.74c-52.246-122.382-149.728-219.864-272.11-272.108l-62.325-26.617c-15.306-6.41-28.923-16.268-39.79-28.806,31.028,222.566,207.051,398.589,429.617,429.648-12.526-10.892-22.381-24.515-28.806-39.821l-26.586-62.295Zm321.74-335.935l30.727-13.114c43-18.365,43-79.339,0-97.704l-30.727-13.114c-60.31-25.738-108.352-73.77-134.104-134.074l-13.084-30.727c-18.365-43-79.369-43-97.733,0l-13.084,30.727c-25.751,60.304-73.794,108.336-134.104,134.074l-30.698,13.114c-43.03,18.365-43.03,79.339,0,97.704l30.698,13.114c60.319,25.74,108.363,73.784,134.104,134.104l13.084,30.698c18.365,43,79.369,43,97.733,0l13.084-30.698c25.74-60.319,73.784-108.363,134.104-134.104Z"/></svg>