<svg xmlns="http://www.w3.org/2000/svg" width="1000" height="1000">
  <path d="M5 500.496C5 225.55 226.54 5 500.496 5c272.968 0 494.507 222.528 494.507 494.507 0 274.946-222.528 495.496-494.507 495.496C225.55 995.003 5 772.475 5 500.496zm158.242 164.177c-3.956 90 41.539 149.34 130.55 157.253 84.066 3.956 174.067 0 259.122 0h8.901v-531.1c46.484 0 92.967-3.957 141.43 0 30.659 0 48.46 19.78 52.417 53.406 0 45.495-14.835 72.198-50.44 88.022-27.692 10.88-54.396 16.813-81.099 31.649 3.956 25.714 6.923 52.417 15.824 80.11 46.484-2.967 89.011-15.824 127.583-38.572 55.385-31.648 87.033-77.143 89.011-144.396 9.89-86.044-33.626-144.396-119.67-155.275-11.869-3.956-23.737-3.956-33.627-3.956H476.76c-4.945 0-8.901 3.956-15.824 3.956v526.155c-51.43 0-102.858 4.946-152.309 0-20.769 0-35.604-15.824-39.56-40.55-6.923-33.626 3.956-74.175 39.56-91.977 18.792-12.858 37.583-15.825 63.297-24.726 5.934-2.967 16.814-5.934 26.704-10.879-3.956-25.714-9.89-53.407-11.868-90-44.506 15.824-82.089 23.736-122.638 38.571-59.341 31.649-95.935 83.078-100.88 152.309z" style="fill:#000;fill-opacity:1;fill-rule:nonzero;stroke:none;"/>
</svg>
