<?xml version="1.0" encoding="UTF-8"?><svg id="a" xmlns="http://www.w3.org/2000/svg" viewBox="0 0 1000 1000"><path d="M730.769,524.039h19.231v192.308h-38.462v-192.308h19.231Zm0-57.692c-10.621,0-19.231,8.61-19.231,19.231s8.61,19.231,19.231,19.231,19.231-8.61,19.231-19.231-8.61-19.231-19.231-19.231Zm163.461,211.538c-33.059,0-67.308-19.231-67.308-57.692s34.249-57.692,67.308-57.692c24.633,0,58.571,12.304,68.15,37.89l37.603-10.076c-11.692-38.729-57.676-66.276-105.753-66.276-67.308,0-105.769,43.05-105.769,96.154s38.462,96.154,105.769,96.154c48.077,0,94.094-28.55,105.769-67.308l-37.599-10.074c-9.559,25.622-43.537,38.921-68.17,38.921Zm-221.154-57.692c0,19.059-4.954,36.822-14.417,51.765,9.009,12.536,14.343,28.14,14.416,44.739-.188,42.323-34.555,76.573-76.922,76.573l-115.385-.083,10.283-38.378h105.101c21.121,0,38.267-17.387,38.462-38.462-.014-6.091-1.446-11.485-3.979-16.599-16.663,10.476-37.945,16.599-63.328,16.599-67.308,0-105.769-43.05-105.769-96.154s38.462-96.154,105.769-96.154,105.769,43.05,105.769,96.154Zm-38.461,0c0-38.462-35.445-57.692-67.308-57.692s-67.308,19.231-67.308,57.692,35.445,57.692,67.308,57.692,67.308-19.231,67.308-57.692Zm-480.769-57.692H38.461v-115.385H0v269.231H38.461v-115.385h115.385v115.385h38.461V447.115h-38.461v115.385Zm288.004,47.764l-161.241,43.277c13.023,16.229,35.232,24.344,55.929,24.344,21.127,0,43.83-8.455,56.728-25.364l47.199-12.647c-8.394,43.666-55.85,76.473-103.927,76.473-67.308,0-105.769-43.05-105.769-96.154s38.461-96.154,105.769-96.154c48.077,0,100.799,37.786,105.312,86.226Zm-51.533-25.937c-5.701-12.211-24.932-21.827-53.778-21.827s-65.16,18.082-67.211,54.246l120.99-32.419Zm475.068-194.904l134.615-182.692-134.615,134.615-38.461-38.462-96.154,96.154v48.077l96.154-96.154,38.461,38.462Z"/></svg>