<?xml version="1.0" encoding="UTF-8"?><svg id="a" xmlns="http://www.w3.org/2000/svg" viewBox="0 0 1000 1000"><path d="M950.44,315.306c.095-46.663-24.813-89.802-65.271-113.049l-160.141-92.02L565.267,17.56c-40.362-23.413-90.174-23.413-130.536,0l-159.761,92.676L114.828,202.256c-40.458,23.247-65.364,66.386-65.268,113.049l.38,184.694-.38,184.695c-.096,46.663,24.81,89.802,65.268,113.048l160.142,92.02,159.761,92.678c40.362,23.413,90.174,23.413,130.536,0l159.761-92.678,160.141-92.02c40.458-23.246,65.366-66.385,65.271-113.048l-.381-184.695,.381-184.694Zm-252.928,46.601c-.004,2.892-1.157,5.66-3.199,7.706-2.044,2.043-4.812,3.195-7.704,3.199h-50.673c-4.334,.179-8.453,1.944-11.574,4.958-3.122,3.015-5.029,7.069-5.359,11.395v46.886c.548,3.84,2.323,7.402,5.063,10.152,2.74,2.752,6.294,4.539,10.136,5.1h52.276c2.892,0,5.666,1.151,7.71,3.195,2.046,2.046,3.195,4.818,3.195,7.71v213.691c-.004,2.889-1.157,5.66-3.199,7.703s-4.814,3.195-7.706,3.199h-56.703c-2.889-.004-5.66-1.154-7.703-3.199-2.046-2.043-3.195-4.814-3.199-7.703v-204.972l-.189,.186c.23-2.477-.038-4.975-.789-7.348-.75-2.372-1.967-4.571-3.579-6.467-3.241-3.567-7.755-5.721-12.565-5.995h-44.436c-4.811,.279-9.322,2.43-12.565,5.995-2.524,2.905-4.053,6.543-4.371,10.379v51.214c.003,1.433-.278,2.854-.824,4.177-.548,1.323-1.352,2.527-2.362,3.54-1.015,1.012-2.217,1.815-3.54,2.362-1.325,.548-2.744,.829-4.176,.826h-56.685c-1.433,.003-2.852-.278-4.176-.826-1.323-.547-2.526-1.35-3.54-2.362-1.013-1.013-1.815-2.217-2.362-3.54s-.827-2.744-.824-4.177v-47.964l-.207,.186c.279-2.427,.056-4.888-.657-7.226-.715-2.338-1.901-4.504-3.487-6.362-1.588-1.86-3.54-3.369-5.738-4.442-2.198-1.069-4.591-1.676-7.032-1.781h-44.456c-4.811,.279-9.322,2.43-12.564,5.995-2.527,2.904-4.052,6.543-4.351,10.379v208.222c-.004,2.889-1.154,5.66-3.199,7.703-2.043,2.046-4.814,3.195-7.703,3.199h-56.703c-2.892-.004-5.663-1.154-7.706-3.199-2.044-2.043-3.195-4.814-3.199-7.703v-213.56c0-2.892,1.149-5.666,3.195-7.71,2.044-2.046,4.818-3.195,7.71-3.195h52.276c3.998-.61,7.682-2.529,10.474-5.452,2.93-3.18,4.666-7.277,4.911-11.595v-41.823l-.207,.186c.233-2.477-.031-4.975-.778-7.347-.747-2.374-1.96-4.573-3.57-6.468-3.233-3.579-7.752-5.735-12.564-5.995h-50.412c-2.892-.004-5.663-1.157-7.706-3.199s-3.193-4.812-3.198-7.704v-56.704c.004-2.891,1.154-5.66,3.198-7.704,2.043-2.046,4.814-3.195,7.706-3.199h56.704c2.889,.004,5.66,1.154,7.703,3.199,2.044,2.044,3.193,4.814,3.198,7.704v52.28c.542,3.84,2.315,7.404,5.052,10.153,2.734,2.752,6.289,4.54,10.13,5.1h52.407c2.892,0,5.666,1.149,7.71,3.193,2.046,2.046,3.195,4.818,3.195,7.71v52.28c.539,3.84,2.312,7.404,5.049,10.153,2.737,2.752,6.292,4.54,10.13,5.099h47.889c4.143-.614,7.944-2.651,10.746-5.763,2.805-3.111,4.439-7.099,4.622-11.282v-50.542c0-2.892,1.149-5.666,3.195-7.71,2.044-2.046,4.818-3.195,7.71-3.195h52.277c4.145-.61,7.947-2.645,10.751-5.758s4.436-7.105,4.614-11.289v-50.561c.006-2.892,1.155-5.663,3.199-7.706,2.043-2.044,4.814-3.193,7.703-3.199h56.704c2.892,.006,5.66,1.155,7.704,3.199,2.043,2.043,3.195,4.814,3.199,7.706v56.703Z"/></svg>