<svg xmlns="http://www.w3.org/2000/svg" width="1000" height="1000">
  <path d="M990.265 660.623c-14.225 20.152-27.264 37.933-42.675 58.085-54.528 64.011-118.54 106.686-193.22 132.765-109.058 37.933-385.257 17.781-361.55-47.416 5.928-15.41 14.225-21.338 40.304-21.338 125.653 15.41 248.936-4.741 366.29-58.084 48.602-20.152 98.39-49.787 142.25-85.35 35.562-26.079 65.197-8.297 48.601 21.338zM26.53 463.845C75.132 287.22 187.745 175.792 363.185 130.746c34.377-8.297 41.49-7.112 49.788 15.41 4.741 8.299 0 18.967-11.855 29.636-17.78 8.298-32.005 18.966-50.972 28.45-138.692 94.832-232.34 219.3-280.941 382.886-3.556 10.668-4.742 43.86-29.635 43.86-47.416 0-40.304-82.979-13.04-167.143zm112.614 29.636c0-39.119 42.674-33.192 53.343 8.297 34.377 137.507 97.203 257.233 195.592 349.695 27.264 24.894 65.197 56.9 112.614 91.276 9.483 5.927 15.41 16.596 9.483 27.265-4.742 8.297-10.669 17.78-23.708 17.78-156.474-27.264-293.98-165.956-339.026-336.655-14.225-53.343-14.225-104.315-8.298-157.658zm96.018-445.713c54.528-20.152 88.905-35.562 157.659-35.562 129.209 0 225.227 40.304 310.576 114.984 42.674 33.192 78.237 77.052 101.945 126.839 14.225 26.079-13.04 46.23-45.046 22.522-78.236-66.382-160.03-122.096-259.603-149.36-78.237-26.08-156.474-35.563-240.638-35.563-41.489 0-56.9-23.708-24.893-43.86zM781.634 651.14c32.006-79.422 58.085-162.4 64.012-245.378 2.37-93.647-11.855-187.295-40.304-275.015-5.927-9.483-5.927-18.966-10.669-24.893-5.927-14.225 0-23.708 10.669-32.006 14.225-5.927 23.708 0 34.377 8.298 33.19 39.118 64.011 87.72 78.236 136.321 18.967 50.973 29.635 103.13 29.635 144.62 0 125.653-43.86 227.598-123.282 317.689C810.083 695 799.415 695 784.004 689.073c-8.297-8.297-14.224-18.966-2.37-37.933z" style="fill:#000;fill-opacity:1;fill-rule:nonzero;stroke:none;"/>
</svg>
