<svg xmlns="http://www.w3.org/2000/svg" viewBox="0 0 1000 1000"><path d="M745.9,182.956l-17.031-17.031L253.541,641.25a124.564,124.564,0,0,0,0,176.161l15.443,15.444L745.9,355.942A122.319,122.319,0,0,0,745.9,182.956Z"/><path d="M579.971,17.031,562.941,0,87.616,475.325a124.564,124.564,0,0,0,0,176.161l15.443,15.443L579.971,190.017A122.319,122.319,0,0,0,579.971,17.031Z"/><path d="M913.042,350.1l-17.031-17.031L420.687,808.4a124.564,124.564,0,0,0,0,176.161L436.13,1000,913.042,523.087A122.318,122.318,0,0,0,913.042,350.1Z"/></svg>