<svg xmlns="http://www.w3.org/2000/svg" viewBox="0 0 1000 1000"><path d="M501.17 71.543c45.53 77.052 88.727 154.105 133.09 229.99 7.005 9.339 9.34 22.181 9.34 33.856V609.74c-61.876-22.182-129.588-25.684-192.63-5.837-32.69 11.674-63.044 28.019-91.063 49.033V329.551c0-8.172 0-16.344 5.838-23.349 44.363-78.22 89.894-156.44 135.425-234.659zM5 926.122C87.89 782.525 171.947 638.928 256.004 495.33c2.335 143.598 1.167 287.195 0 430.792zm361.912-114.41c16.345-63.044 72.383-113.244 137.76-123.751 46.698-8.172 95.732 2.335 136.593 26.851 1.167 71.215-1.168 141.263 2.335 212.477-91.062 1.168-182.124 0-273.185-1.167-9.34-37.359-14.01-77.052-3.503-114.41zm378.256 116.745a26637.981 26637.981 0 0 1 0-431.96c85.225 142.43 166.947 287.195 249.836 431.96-82.89 0-166.946-1.168-249.836 0z"/></svg>