<svg xmlns="http://www.w3.org/2000/svg" viewBox="0 0 1000 1000"><path d="M932.03 295.89v417.688c0 24.097-6.885 39.014-25.244 56.227-128.52 73.44-250.154 139.994-372.936 212.286-25.245 17.213-41.31 17.213-66.555 0C344.514 909.8 222.88 843.244 100.097 769.805 76 752.592 67.967 744.56 67.967 721.61V279.825c0-24.098 8.033-41.31 32.13-49.342 122.782-73.44 244.417-146.88 367.198-220.32 25.245-6.884 41.31-6.884 66.555 0 122.782 73.44 244.416 146.88 366.05 212.287 25.245 16.065 32.13 42.457 32.13 73.44zm-823.9 401.623c0 16.065 9.18 32.13 14.917 32.13 42.457 22.95 84.915 48.194 125.077 71.144V198.353c-51.637 24.097-82.62 40.162-125.077 66.554-5.737 5.738-14.917 24.098-14.917 30.983zm188.189 103.274c0 17.212 8.032 35.572 14.917 42.457 58.522 30.983 114.75 57.375 166.387 89.505 5.737 8.032 30.982 8.032 37.867 8.032 56.227-30.982 114.75-66.554 173.272-97.537C556.8 638.99 425.986 442.77 304.352 246.547c-8.033 0-8.033 0-8.033 9.18zm0-635.712c138.847 204.254 269.66 407.36 399.328 612.762 9.18-17.212 9.18-17.212 9.18-25.245v-563.42c0-6.884-16.065-32.13-25.245-32.13-49.342-33.276-107.865-64.259-153.764-98.684-17.213 0-33.278-8.032-42.458 0-57.374 34.425-122.782 65.408-187.041 106.717zM743.84 800.787c42.458-22.95 82.62-40.162 117.045-63.112 22.95-8.033 22.95-24.097 22.95-40.162v-393.59c0-14.918 0-33.278-8.033-33.278-41.31-24.098-81.472-48.195-131.962-81.472z"/></svg>