<svg xmlns="http://www.w3.org/2000/svg" width="1000" height="1000">
  <path d="M500.496 5C223.572 5 5 229.506 5 500.002c0 276.43 224.506 495.001 495.002 495.001 276.43 0 495.001-224.506 495.001-495.001C995.003 226.539 773.464 5 500.496 5zM94.011 515.331c-7.912-54.395 25.715-82.088 66.264-117.692-68.242 83.077-45.494 146.374 19.78 217.583-40.55-23.737-81.099-52.418-86.044-99.89zm74.176 64.286c-48.461-59.34-44.505-127.583 11.869-183.956 69.23-63.297 179.011-91.979 266.044-76.154 69.231 12.857 136.484 32.637 191.87 76.154 48.46 40.55 56.373 100.88 19.78 144.396-12.858-43.517-47.473-48.462-88.023-60.33-92.967-27.693-284.836-17.802-342.199 7.912-47.472 20.77-63.297 40.55-59.34 91.978zm11.869-28.681c0-93.956 459.891-90.99 459.891-6.923 0 32.637-48.462 47.472-70.22 54.396 15.824-32.638 7.912-42.528-19.78-50.44-43.517-12.857-84.066-19.78-126.594-23.737-66.264-4.945-198.792 1.979-243.297 26.704zm91.978 99.89c87.033-11.868 174.066-16.813 266.045-30.66 44.505-7.911 86.044-20.768 118.681-57.362 121.65-126.594-40.55-251.21-270.99-265.056 80.11-21.758 274.946-26.703 375.826 21.759 143.407 72.198 103.846 211.649 19.78 275.935-68.242 47.472-143.407 67.252-223.517 79.12-144.396 13.847-231.43-12.857-285.825-23.736zm34.615 23.737c181.979 27.692 324.397 28.681 447.035-43.517 72.198-35.604 116.704-100.88 116.704-180.99C905.003 551.925 863.464 667.64 757.64 707.2c-147.363 57.363-302.638 22.747-450.99-32.637z" style="fill:#000;fill-opacity:1;fill-rule:nonzero;stroke:none;"/>
</svg>
