<svg xmlns="http://www.w3.org/2000/svg" width="1000" height="1000">
  <path d="M500.496 5C223.572 5 5 229.506 5 500.002c0 276.43 224.506 495.001 495.002 495.001 276.43 0 495.001-224.506 495.001-495.001C995.003 226.539 773.464 5 500.496 5zM224.561 290.825c0-14.835 4.945-21.758 20.77-20.77h2.967c46.483-6.922 83.077 7.913 113.736 44.506 36.594 44.506 79.121 83.078 119.67 123.627 7.913 4.945 13.847 11.868 24.726 20.77V270.056c33.627 0 60.33-.99 90 0 4.946 0 12.858 5.934 15.825 11.868 58.352 55.385 112.747 111.759 168.132 168.132 7.912 6.924 13.846 19.78 13.846 28.682V725.99c0 17.803-5.934 21.759-22.747 23.737-48.462 5.934-83.077-9.89-116.704-45.495-33.626-45.495-76.154-81.1-116.703-121.649-6.923-5.934-13.846-11.868-18.792-17.802-1.978 1.978-5.934 1.978-7.912 1.978v182.968c-31.648 0-58.352 0-86.044-1.978-6.923 0-14.835-5.934-20.77-11.868-57.362-54.396-111.758-111.76-169.12-169.122-5.935-4.945-9.89-15.824-9.89-23.736-.99-84.066 0-167.144-.99-252.199z" style="fill:#000;fill-opacity:1;fill-rule:nonzero;stroke:none;"/>
</svg>
