<svg xmlns="http://www.w3.org/2000/svg" viewBox="0 0 1000 1000"><path d="M500.496 5C223.572 5 5 229.506 5 500.002c0 276.43 224.506 495.001 495.002 495.001 276.43 0 495.001-224.506 495.001-495.001C995.003 226.539 773.464 5 500.496 5zM213.682 729.947c-29.67-38.571-4.945-64.285 11.868-93.956 55.385-92.967 105.825-181.979 161.21-270.99 25.714-47.473 51.428-92.967 80.11-136.484 11.868-22.747 82.088-27.692 93.956 0 42.528 72.198 85.055 148.352 127.583 221.54 42.527 70.22 86.044 147.363 131.539 223.517 7.912 12.857 3.956 22.747 0 39.56-17.802 32.638-30.66 40.55-77.143 40.55-81.1-2.967-157.254 0-233.408 0h-250.22c-21.759 0-33.627-7.912-45.495-23.737zm156.264-97.912h283.847c-45.494-81.1-92.967-161.21-144.396-246.265-45.494 85.056-93.956 165.166-139.45 246.265z"/></svg>