<svg xmlns="http://www.w3.org/2000/svg" viewBox="0 0 1000 1000"><path d="M926.592 251.533v499.52c-19.361 10.326-46.467 16.78-64.537 30.978-82.608 51.63-162.635 95.515-245.242 141.982-38.723 25.815-78.736 46.467-116.168 70.991C410.293 936.92 317.36 884 227.006 833.661c-51.63-27.106-101.969-58.084-153.599-82.608v-499.52c25.815-12.908 51.63-25.815 70.992-40.013C257.984 145.692 486.447 17.907 501.936 5c49.048 25.815 398.841 229.753 424.656 246.533zm-742.18 303.326s14.198 0 20.652 6.454c0-25.815 1.29-51.63 1.29-82.608 14.199 11.616 20.652 18.07 28.397 25.815 20.652 18.07 32.269 30.978 45.176 45.176 7.745 5.163 7.745 5.163 33.56 5.163v-104.55c0-3.873-3.873-10.327-14.199-10.327-7.744 0-11.616 6.454-11.616 10.326v64.538c-36.141-24.525-63.247-60.666-103.26-82.608zm161.343 6.454c3.873 0 19.362 1.29 27.106-1.291 12.908-25.815 16.78-24.524 42.595-24.524 14.198 0 32.268 0 40.013 14.198 5.163 11.617 12.907 9.035 30.978 9.035-18.07-38.722-38.723-74.863-56.793-112.295-7.745-14.198-25.815-14.198-33.56 0-21.942 49.048-30.977 60.665-50.339 114.877zm43.886-51.63c7.744-12.908 14.198-27.106 24.524-42.595 14.198 25.815 18.07 32.269 21.943 42.595zm111.004 406.585c11.617-6.453 18.07-6.453 25.815-10.326 101.97-59.374 206.52-118.748 311.07-181.995 24.525-12.908 32.27-27.106 32.27-46.467V316.07c0-30.978-10.327-27.105-85.19-77.445-5.163-6.453-19.361-12.907-37.432-19.36v382.06c0 40.014-37.432 68.41-98.097 95.516-40.013 19.361-85.19 45.176-122.62 70.991-14.2 7.745-25.816 14.199-25.816 33.56zm11.617-375.607c0 9.035 0 20.652 14.198 20.652 11.617 0 11.617-11.617 11.617-20.652v-61.956c40.013 25.815 86.48 82.608 96.806 82.608 5.163-37.432 20.652-129.075 0-129.075-12.907-1.291-18.07 68.41-18.07 82.608-20.652-14.199-38.723-36.141-72.282-68.41-6.454-6.454-32.27-11.617-32.27 0z"/></svg>