<svg xmlns="http://www.w3.org/2000/svg" viewBox="0 0 1000 1000"><path d="M500,0C223.858,0,0,223.858,0,500s223.858,500,500,500,500-223.858,500-500S776.142,0,500,0Zm-172.563,227.539c42.002-23.749,90.523-37.315,142.217-37.315,159.823,0,289.385,129.562,289.385,289.385,0,29.095-4.302,57.183-12.291,83.673-35.267-17.496-86.855-25.574-146.326-22.784-78.12,3.664-166.023,2.789-220.453-54.342-22.112-23.209-37.844-55.052-46.759-94.644-9.885-43.898-11.822-99.061-5.773-163.973Zm144.261,541.454h-1.913c-.044,0-.087,0-.13,0s-.087,0-.13,0h-1.445c-284.833,0-399.018-370.823-154.946-533.166-5.128,62.227-2.82,115.557,6.885,158.655,9.461,42.014,26.337,75.995,50.162,101.001,47.36,49.709,116.479,59.784,184.2,59.783,15.729,0,31.392-.543,46.678-1.26,57.946-2.72,107.725,5.086,140.914,22.004-21.674,50.828-59.039,97.527-105.992,132.227-25.007,18.481-51.993,33.098-80.21,43.445-27.624,10.13-55.879,15.945-84.071,17.311Zm75.157,0c4.538-1.433,9.063-2.962,13.57-4.615,29.425-10.79,57.55-26.02,83.592-45.266,48.577-35.9,87.324-84.203,109.995-136.856,96.879,62.716,96.978,186.738,96.978,186.738h-304.134Z"/></svg>