<svg xmlns="http://www.w3.org/2000/svg" viewBox="0 0 1000 1000"><path d="M500.496 5C223.572 5 5 229.506 5 500.002c0 276.43 224.506 495.001 495.002 495.001 276.43 0 495.001-224.506 495.001-495.001C995.003 226.539 773.464 5 500.496 5zM304.671 567.75v-39.561c0-3.957 1.978-7.913 6.923-9.89l87.034-31.65v-51.428l-85.056 30.66c-5.934 1.978-8.9-.99-8.9-6.923v-40.55c0-3.956 1.977-7.912 6.922-9.89l87.034-31.649V178.077c0-4.945 2.967-8.9 7.912-8.9h72.198c4.945 0 7.912 3.955 7.912 8.9V346.21l177.034-63.297c5.934-1.978 8.9.989 8.9 6.923v37.583c0 3.956-1.977 7.912-5.933 9.89L486.65 401.595v54.395l174.066-63.296c5.935-1.978 8.902.989 8.902 6.923v36.593c0 4.945-2.967 7.912-6.923 9.89L486.65 511.375v270.99c114.726-5.934 220.55-70.22 220.55-241.32 0-5.933 2.967-7.911 8.901-7.911h63.297c4.945 0 8.901 2.967 8.901 7.912 0 184.945-100.88 318.462-338.243 318.462-14.835 0-36.593 0-51.428-2.967v-311.54l-85.056 29.671c-5.934 1.978-8.9-.989-8.9-6.923z"/></svg>