<svg xmlns="http://www.w3.org/2000/svg" viewBox="0 0 1000 1000"><path d="M500.496 5C223.572 5 5 229.506 5 500.002c0 276.43 224.506 495.001 495.002 495.001 276.43 0 495.001-224.506 495.001-495.001C995.003 226.539 773.464 5 500.496 5zM133.572 735.882c10.879-9.89 16.813-20.77 20.77-30.66-57.364-90-14.836-186.924 67.252-221.54 0-11.867 4.945-22.746 0-33.626 0-23.736 4.945-47.472 25.715-53.406 10.879-30.66 14.835-61.32 25.714-86.045 35.604-95.934 112.748-147.363 213.627-147.363 58.352-2.967 114.726 10.88 161.21 44.506 54.395 37.582 94.945 83.077 108.79 149.341 0 1.978 1.979 4.945 0 8.901 0 23.737 15.825 33.627 30.66 50.44 1.978 4.945 9.89 4.945 12.858 4.945v60.33c-2.968 1.978-10.88 1.978-16.814 5.934 80.11 50.44 104.836 116.704 66.264 205.715 10.88 11.868 20.77 25.714 34.616 42.528h-60.33c-10.88 0-20.77 3.956-31.649 9.89-46.483 26.703-95.934 26.703-146.374 0-10.879-5.934-23.736-9.89-37.582-9.89H383.792c-10.879 0-21.758 3.956-30.659 9.89-50.44 26.703-101.868 26.703-155.275-3.956-6.923-1.978-12.857-1.978-21.759-1.978-10.879-3.956-25.714-3.956-42.527-3.956zm27.692-117.693c-3.956 54.396 43.517 107.802 106.814 102.857 51.429 0 107.802-35.604 107.802-105.824 2.967-61.32-40.55-107.803-101.868-107.803-73.187 0-116.704 60.33-112.748 110.77zm86.044-40.55c0-17.802 10.88-28.681 26.704-28.681 18.791 0 30.66 10.879 30.66 28.681 0 11.868-11.869 29.67-30.66 29.67-11.868 0-26.704-11.867-26.704-29.67zm0-105.824c3.957 0 3.957.989 3.957.989 30.659-.99 57.362 0 84.066 10.879h310.55c9.89 0 15.825-1.978 26.704-1.978 23.736-9.89 50.44-9.89 76.154-8.901 3.956 3.956 7.912 0 13.846 0v-42.528c-3.956-6.923-5.934-8.901-13.846-8.901-9.89-4.945-14.835 0-22.748 0-2.967-24.725-2.967-41.539-8.9-62.308-18.792-85.055-65.276-140.44-152.309-160.22-44.506-14.835-90.99-14.835-134.506-4.945-44.505 9.89-82.088 33.626-105.824 71.209-21.759 30.66-35.605 63.297-42.528 100.88-3.956 15.823-7.912 33.626-8.901 50.439-26.704 4.945-30.66 9.89-25.714 55.385zm128.572 37.582c9.89 9.89 16.814 18.792 27.693 28.682 62.308-18.792 127.583-14.836 190.88 0 6.923-9.89 13.846-18.792 22.747-28.682zm51.43-127.583c9.89 0 11.867-1.978 11.867-5.934v-80.11c-1.978-4.945-4.945-4.945-8.9-6.923v-19.78c8.9 0 20.768-.99 28.68-.99 3.957-.988 5.935-13.845 6.924-18.79h17.802c0 4.945 0 11.868 2.967 15.824h3.956l3.956-15.824h16.813c0 4.945 2.967 11.868 2.967 19.78 12.858 1.978 28.682 9.89 30.66 26.703 0 18.791-6.923 24.726-17.802 36.594 12.857 5.934 23.736 19.78 19.78 37.582-1.978 14.835-18.791 32.638-32.638 32.638-2.967 7.912-2.967 9.89-2.967 20.769h-16.813c0-6.923-1.978-12.857-3.956-20.77h-3.956c-2.967 7.913-2.967 13.847-2.967 20.77H465.88c-.99-6.923 0-20.77-6.923-20.77-8.902 0-19.78-2.966-28.682-2.966 0-6.923-2.967-9.89-2.967-17.803zm48.46-5.934h24.726c9.89.99 10.88-8.9 10.88-16.813 0-9.89-5.935-12.857-14.836-12.857h-20.77zm0-55.384c16.814 0 32.638 0 32.638-8.902 0-14.835-9.89-17.802-32.637-15.824zm141.43 290.77c0 61.319 50.44 109.78 110.77 109.78 61.318 0 109.78-48.461 105.824-98.901 3.956-57.363-44.506-114.726-114.726-118.682-53.406 0-101.868 50.44-101.868 107.803zm75.165-33.627c0-19.78 9.89-28.681 26.703-28.681 17.803 0 29.67 10.879 29.67 28.681-2.966 17.803-14.834 29.67-29.67 29.67-16.813 0-26.703-11.867-26.703-29.67z"/></svg>