<?xml version="1.0" encoding="utf-8"?>
<!-- Generator: Adobe Illustrator 26.0.1, SVG Export Plug-In . SVG Version: 6.00 Build 0)  -->
<svg version="1.1" id="Layer_1" xmlns="http://www.w3.org/2000/svg" xmlns:xlink="http://www.w3.org/1999/xlink" x="0px" y="0px"
	 viewBox="0 0 1000 1000" style="enable-background:new 0 0 1000 1000;" xml:space="preserve">
<path d="M500.5,5C223.6,5,5,229.5,5,499.5C5,773.5,226.5,995,499.5,995C776.4,995,995,770.5,995,499.5C995,223.6,770.5,5,500.5,5z
	 M798.8,681.3c-0.5,71.6-42.6,116.6-113.9,117.2c-148.2,1.2-296.5,0.4-444.7,0.8c-26.1,0.1-38.7-12.3-38.9-37.8
	c-0.7-72.8-4.4-80.1,73.2-78.5c81.4,1.6,162.9,0.5,244.3,0.6c11,0,22,0,33.1,0c0.9-3.2,1.9-6.4,2.8-9.6
	C503,639.5,451.4,605.1,392.9,566c15.2-1.2,21.9-2.3,28.6-2.3c105.4,0,210.9,0,316.3,0.4c43.1,0.2,60.5,17.9,61.1,60.8
	C799.1,643.7,798.9,662.5,798.8,681.3z M726,317.3c-82.4-1.2-164.8-0.2-247.2,0c-10,0-20,0.9-30,1.4c-0.8,2.6-1.7,5.2-2.5,7.8
	c51.3,34.5,102.7,68.9,161,108.1c-16.6,1.1-24.4,2.1-32.2,2.1c-104.3,0.2-208.6,0.4-312.9,0.3c-42.9,0-60.5-17.6-61.3-60.4
	c-0.4-19.8-0.4-39.6,0-59.4c1.3-68,39.1-113.4,106.5-114.7c152.2-2.9,304.5-1.2,456.7-0.9c22.2,0,34.9,12,34.9,35.2
	C799.1,313.6,806.3,318.5,726,317.3z"/>
</svg>
