<svg xmlns="http://www.w3.org/2000/svg" viewBox="0 0 1000 1000"><path d="M500.496 5C223.572 5 5 229.506 5 500.002c0 276.43 224.506 495.001 495.002 495.001 276.43 0 495.001-224.506 495.001-495.001C995.003 226.539 773.464 5 500.496 5zM64.341 545.99v-12.856c25.714-26.704 58.352-56.374 81.099-82.089 17.802-17.802 35.605-22.747 53.407-13.846 35.604 8.901 65.275 17.802 98.901 25.715 17.802 4.945 30.66 13.846 35.605 34.615 9.89 29.67 16.813 67.253 24.725 99.89 7.912 16.814 5.934 29.671-7.912 47.473-24.725 21.759-52.418 46.484-78.132 73.187-7.912 8.901-16.813 18.792-29.67 2.967-13.847-11.868 0-19.78 7.912-29.67 21.758-20.77 43.516-42.528 65.274-58.352 9.89-13.846 12.858-22.747 9.89-39.56-9.89-25.715-13.846-50.44-21.758-78.133-5.934-8.9-15.824-17.802-21.758-20.769-26.703-9.89-58.352-17.802-83.077-21.758-6.923 0-25.715 0-31.649 8.9-22.747 21.76-44.505 43.518-63.297 64.287-13.846 10.879-24.725 18.791-39.56 0zm116.704-148.35c10.879-3.956 17.802-6.923 20.769-6.923 32.637 2.967 62.308 11.868 91.978 20.769 17.802 8.901 34.616 3.956 49.45-13.846 10.88-14.836 32.638-33.627 50.44-51.43 7.913-10.878 7.913-16.812 7.913-31.648-13.846-28.681-21.759-58.351-25.715-90.989-2.967-7.912 0-21.758 3.956-23.736 13.847-7.912 26.704 0 26.704 12.857 12.857 38.572 21.758 73.187 30.66 111.759 2.966 18.79 0 29.67-13.847 39.56-25.714 26.704-57.363 56.374-80.11 82.088-9.89 4.945-14.835 4.945-17.802 8.901-21.759-3.956-39.56-8.9-61.32-13.846-21.758-7.912-43.516-12.857-69.23-20.769-2.967-4.945-9.89-13.846-13.846-22.747zm95.934 360.99c-12.857-12.857-4.945-21.758 4.945-31.649 24.725-25.714 51.429-50.44 76.154-72.198 7.912-9.89 17.802-13.846 26.703-18.79 49.451 12.856 91.979 21.757 134.506 40.549 7.913 0 12.858 7.912 17.803 14.835 11.868 39.56 19.78 83.077 28.681 121.649 3.956 9.89 0 17.802-8.901 26.703-19.78 27.692-46.484 57.363-72.198 82.088-13.846 9.89-21.758 21.759-34.616 9.89-12.857-18.79-4.945-27.692 7.913-34.615 20.769-23.736 42.527-38.572 61.318-60.33 7.913-9.89 12.858-23.736 7.913-34.615-1.978-27.693-11.869-53.407-20.77-84.067 0-8.9-7.912-16.813-17.802-19.78-30.66-9.89-60.33-18.791-90.99-21.758-3.955 0-17.802 2.967-24.725 7.912-22.747 21.758-44.505 42.527-66.264 68.242-8.9 8.9-18.79 13.846-29.67 5.934zm59.34-270.001c-2.966-15.824 0-29.67 10.88-37.583 28.681-30.659 54.396-57.362 87.033-87.033 10.88-12.857 20.77-17.802 36.594-12.857 39.56 12.857 84.066 21.758 120.66 34.615 8.9 0 17.802 7.913 21.758 11.869 14.835 48.461 27.692 96.923 39.56 145.385-2.967 5.934-2.967 13.846-11.868 21.758-31.648 28.681-62.308 62.308-94.945 92.967-4.945 3.956-18.791 8.902-26.704 3.956-40.55-6.923-79.12-16.813-117.692-28.68-16.814-5.935-28.682-13.847-35.605-29.671-7.912-38.572-18.791-78.132-29.67-114.726zm51.43 5.934c5.934 23.736 13.846 51.429 21.758 77.143 0 6.923 9.89 17.802 18.791 21.758 26.704 9.89 50.44 11.869 78.132 16.814 8.901 3.956 18.792 0 25.715-4.945 22.747-15.825 37.582-33.627 59.34-56.374 5.935-2.967 5.935-5.934 8.902-13.846V527.2c-8.902-32.638-12.858-72.199-30.66-93.957-20.77-21.758-59.34-21.758-90.99-30.66-1.977 0-1.977-4.944-1.977 0-9.89 0-18.791 0-21.758 3.957-20.77 21.758-39.561 39.56-61.32 61.319-5.933 8.9-8.9 16.813-5.933 26.703zm31.648-284.836c0-15.824 3.956-30.66 8.901-39.56 26.704-25.715 50.44-53.407 82.088-79.122 8.901-8.9 16.814-17.802 30.66-4.945 7.912 14.835 0 21.758-8.901 30.66l-65.275 65.275c-11.868 9.89-11.868 17.802-8.901 33.626 4.945 26.703 12.857 53.407 20.769 77.143 0 9.89 14.835 18.791 21.758 21.758 26.704 9.89 54.396 18.792 78.132 20.77 12.857 7.912 27.693 0 34.616-5.934 23.736-17.803 43.516-43.517 65.275-65.275 10.879-7.912 18.791-18.792 30.66-4.945 11.867 13.846 4.944 21.758-4.946 31.648-25.714 23.736-51.429 44.506-76.154 73.187-8.901 8.901-18.791 11.868-27.692 18.791-45.495-14.835-90-28.681-133.517-39.56-8.901 0-11.868-13.846-16.814-21.758-9.89-40.55-21.758-76.155-30.659-111.76zm126.594 469.782c0-2.967 2.967-17.803 8.901-21.759 29.67-30.659 58.352-60.33 88.022-86.044 6.923-6.923 24.726-6.923 31.649-6.923 39.56 6.923 78.132 20.77 113.736 28.681 12.858 3.957 21.759 9.89 15.825 20.77-2.967 12.857-12.858 12.857-24.726 8.9-30.66-3.955-61.319-12.856-90-19.78-14.835-5.933-28.682-5.933-39.56 6.924-17.803 16.813-36.594 34.615-52.418 51.428-12.858 14.836-12.858 26.704-9.89 44.506 9.89 30.66 18.79 60.33 25.714 95.935-3.956 6.923-6.923 15.824-12.857 15.824-8.902 0-15.825-4.945-21.759-12.857-12.857-38.572-21.758-84.067-32.637-125.605zm76.154-268.023c0-13.846 5.934-25.715 9.89-35.605 24.725-24.725 57.363-54.395 82.088-83.077 6.923-1.978 21.759-1.978 28.682-1.978 9.89 8.901 5.934 15.824-2.967 23.736-21.759 20.77-42.528 49.451-69.231 71.21-9.89 7.912-13.847 20.769-9.89 34.615 9.89 25.714 13.846 52.418 21.758 77.143 6.923 13.846 14.835 20.77 26.703 27.693 26.704 1.978 52.418 17.802 79.121 20.769 5.934 0 21.759-2.967 29.67-10.88 25.715-19.78 46.484-46.483 68.243-67.252 8.9-8.901 16.813-12.858 30.66-4.945 7.911 9.89 3.955 18.79-3.957 25.714-26.703 29.67-57.363 57.363-87.033 87.033-2.967 2.967-12.857 9.89-15.824 9.89-48.462-13.846-95.935-28.681-139.451-39.56-2.967 0-13.847-10.88-13.847-18.791-13.846-38.572-24.725-76.155-34.615-115.715z"/></svg>