<svg xmlns="http://www.w3.org/2000/svg" viewBox="0 0 1000 1000"><path d="M500,0C223.858,0,0,223.858,0,500s223.858,500,500,500,500-223.858,500-500S776.142,0,500,0Zm0,878.317c-208.939,0-378.317-169.378-378.317-378.317S291.061,121.683,500,121.683s378.317,169.378,378.317,378.317-169.378,378.317-378.317,378.317Zm-6.238-300.066c-3.413-4.13-3.017-15.504,2.55-10.67-1.103,3.954,3.692,7.956,.091,11.891,11.08,13.868,7.011-1.731,6.606-13.912,9.948,.607-.663,18.468,7.996,19,3.741-3.167-1.266-10.579,.271-15.435,11.884-10.847,3.575,19.715,10.89,18.43,1.526-5.443-3.618-16.28,1.758-18.55,3.056-.08,3.148,2.242,3.096,4.38-5.704,30.708,29.201-10.432,42.908-10.41,9.666-4.466,12.66,10.27,2.188,9.659-32.597,7.875-59.956,36.681-93.198,10.752-9.495-7.962-24.052-3.44-30.985-9.391-1.171-3.025,.092-4.361,7.473-5.854,10.64-2.176,28.029,20.441,38.357,10.111Zm34.873,86.712c1.042-1.85,2.265-3.613,4.734-2.878,5.388,3.377-1.702,7.032-4.734,2.878Zm31.912,30.913c-8.588-5.417-21.478-9.62-22.313-21.295-5.621-1.137-3.032-6.203,1.634-4.771-1.289,8.12,16.8,12.771,13.749,17.688,5.309,1.284,29.6,8.195,13.869,10.428-2.207,4.48-7.387,2.168-6.938-2.05Zm-145.775-323.786c-42.581,2.475-83.444,30.457-127.031,15.421-54.518-19.937-2.973-50.676,27.815-56.335,6.152-2.201,20.891-5.67,30.444-3.169,1.554,.041,3.189,.018,4.724,.12,24.307,1.83,55.861,16.551,68.214,33.697,9.45,2.597,2.737,10.756-4.165,10.266Zm48.331,326.299c-1.677,2.221-4.124,4.272-6.042,1.312,5.973-11.804,26.292-7.532,29.375-35.918,14.353-20.369-.472,35.042-23.332,34.606Zm60.335-67.886c5.007-.19,8.178,19.089,.711,14.561-2.022-4.143-7.04-11.822-.711-14.561Zm197.814-224.885c-5.979-1.867,.357-11.574-1.578-16.59-8.271-.494-6.97,12.877-8.053,19.636-5.182,7.731-8.627,3.028-5.81-3.879,.33-3.645,4.024-8.108-2.127-10.471-4.113,2.535-.658,8.565-3.473,10.376-2.762,.395-2.444-2.602-2.953-4.561-1.102-5.3-10.395-1.57-8.802,3.335-2.445,19.712-11.786,19.128-3.735,.017-.024-6.946-13.086-8.395,1.746-9.243,16.648-5.041,16.16,.051,31.234-9.979,8.785-3.967,15.061-9.497,23.77-11.615,6.548,2.759,.958,10.006-4.07,10.457-1.128,3.26-2.325,7.216-5.627,8.812-7.453-26.197-5.222,8.917-10.523,13.706Zm-27.716,6.579c.839-1.817-.516-5.792,3.401-4.63,3.843,1.394,.908,6.312,.181,9.051-5.412,6.444-8.173,.853-3.583-4.421Zm53.342-27.311c5.512,.093,2.179,8.09-1.25,7.79-4.006-.053-2.541-7.906,1.25-7.79Zm-394.256,14.054c6.934-7.275,22.579-9.882,32.544-15.402,22.16-2.009-29.82,23.078-32.544,15.402Zm329.568,151.676c30.943,6.974,19.521-23.576,10.269-41.938-.655-1.299-2.436-1.334-3.115,.303-5.748,13.849-22.425,32.841-7.154,41.636Zm5.908-5.784c-2.63,2.974-5.575-4.435-7.049-6.45,5.559-1.485,5.65,3.572,7.049,6.45ZM344.368,283.485c-4.206-10.768-10.95-19.113-15.557-29.285,4.798-2.372,9.277,7.435,11.231,11.335,3.234,2.624,14.551,27.61,4.326,17.95Zm370.18,210.921c18.1-3.742,4.176-32.938-4.185-48.285-1.095-2.512-3.343-1.335-4.084,.752-11.336,16.967-25.231,54.459,8.269,47.533Zm-9.138-5.52c-3.604,2.32-11.314-10.309-6.328-9.998,2.106,2.005,8.855,6.882,6.328,9.998Zm-43.968-8.744c7.381-9.635,27.756,36.782,1.396,33.09-19.938-3.627-7.624-22.664-1.396-33.09ZM248.289,344.584c-6.421-1.718-1.659-4.96-.553-6.87,24.154-35.052,69.3-54.788,111.455-46.089,13.641,3.819,31.457,11.591,38.103,23.954-35.838-25.63-84.105-29.586-119.832-.718-11.97,8.001-20.929,19.59-29.173,29.722Zm35.591-48.625c-4.099-.611-13.411-11.28-7.061-12.266,2.585,2.873,14.222,10.778,7.061,12.266Zm37.299,109.753c2.149,1.938,3.121,11.641-1.161,18.451-9.806,5.869-5.255-4.858-3.33-9.934,.904-5.561,2.097-8.138,3.204-8.725-5.053-1.131,2.097-4.367,12.361-6.765,10.482-1.802,4.482,6.822-2.47,7.066-3.946,.181-6.742,.128-8.604-.093Zm-29.204-113.358c-2.992-2.076-8.645-9.71-3.084-11.63,1.704,2.47,11.794,14.498,3.084,11.63Zm4.45-9.366c1.445-6.627,7.741,1.354,7.591,4.874-1.922,5.368-7.26-2.237-7.591-4.874Zm26.557-.086c-2.932-.573-6.586-8.614-2.093-8.562,3.064,.68,6.307,8.759,2.093,8.562Zm-9.807,.305c-4.28-.095-7.873-8.972-3.163-8.439,2.815,1.899,4.115,4.557,3.163,8.439Zm-74.343,348.409c4.254-.555,11.838,7.063,4.193,7.461-4.612,.947-11.337-7.645-4.193-7.461Zm8.413-135.757c3.268,.646,8.223,10.435,3.342,10.175-4.208-.258-8.486-9.147-3.342-10.175Zm-36.459-176.664c-1.657-3.273,2.693-5.005,3.895-1.626,4.892,8.652,12.322,14.536,20.911,19.159,10.561,16.414-26.547-11.387-24.805-17.533Zm17.387,186.808c-.156,6.306,6.896,8.455,7.753,14.054,4.046-.442,5.44,6.915,.956,4.059-4.676-4.61-17.186-12.168-12.078-19.235,1.357-.405,3.398-.055,3.369,1.122Zm84.11-100.526c-.651,4.506-1.416,15.199-7.021,14.981-1.895-4.461,1.076-16.836,7.021-14.981Zm29.006,3.324c3.173,2.124-.174,8.679-3.008,9.774-3.766-.969-.607-11.874,3.008-9.774Zm-75.653-100.567c-1.595,6.641-10.664-1.925-12.407-5.167,1.642-6.047,9.677,3.925,12.407,5.167Zm-23.023,14.963c7.742,10.254-9.795,.995-11.108-4.21-6.356,.046-13.516-18.418-4.625-12.276,3.134,7.661,8.454,12.687,15.733,16.486Zm21.056-33.01c1.151,.058,11.108,9.695,10.987,10.692-2.437,6.614-19.078-9.423-10.987-10.692Zm-9.132,25.439c-2.153,10.672-27.799-19.985-15.113-16.496,2.974,7.494,10.385,10.793,15.113,16.496Zm457.675,107.235c.363-3.755,9.193-7.302,9.879-2.9-.62,4.091-9.76,8.489-9.879,2.9Zm38.858-133.849c2.639-6.865,10.655-16.035,15.093-23.648,3.064,6.134-6.176,25.564-15.093,23.648Zm37.771-2.544c-6.242,14.316-14.524,30.196-29.251,36.714-3.821-2.466,1.748-5.118,4.119-5.195,7.859-3.548,24.312-48.272,25.133-31.519Zm-11.903-17.153c7.79,16.899-37.059,54.498-23.582,33.457,14.397-6.758,14.208-23.517,23.582-33.457Zm-15.072,230.891c5.516,1.336-1.37,11.605-5.947,12.357-5.57-.877,2.253-11.465,5.947-12.357Zm-190.759-234.213c6.229-3.925-1.074-9.788,3.628-13.254,7.905-12.913,19.242-19.309,35.591-22.042,19.284-5.58,41.504-8.983,60.027-7.52,14.226,5.905,31.425,4.099,44.555,8.321,.195,3.497,8.234,1.951,9.281,5.294,3.4,3.458,8.253-1.583,11.513,2.845,7.344,3.084,21.92,16.275,15.521,23.477-9.484-9.506-24.397-18.651-39.836-20.896-16.015-5.393-28.697-2.863-44.541,.61-6.363,5.435,2.818,17.231,3.55,24.535-6.974-2.941-10.142-13.573-10.403-21.717-13.797-5.659-10.641,5.802-7.873,15.069,12.805,14.036,1.237,16.535-3.413,.664-4.824-27.481-25.106-12.358-8.282,6.495,1.326,2.047,5.65,4.052,2.738,6.562-13.723,.648-10.32-24.985-19.35-27.549-19.5,3.443-37.68,14.532-54.535,27.356-5.779,7.511-16.818,11.695-15.88,20.459,10.842-.185,5.988,5.46-1.375,6.6-2.498,2.098,3.907,.516,2.78,3.182-9.341,2.807-11.427,17.136-13.194,26.719-.512,11.36,8.735,23.568,7.715,34.943,.63,11.666-1.148,23.418,1.458,35.035-.714,6.661-5.293,13.443-2.932,21.749,28.024,26.581,19.085,39.891-1.172,1.96,.099,13.104,.869,26.55,3.702,39.756-6.703,12.008-9.931,8.371-11.808-4.212,4.705-63.144-25.3-151.543,32.534-194.442Zm11.638,213.462c-6.679-7.864-14.435-16.842-15.627-27.72,10.899,5.608,35.79,58.733,15.627,27.72Zm-6.072,6.439c-4.97-10.58-22.269-25.092-22.731-35.846,4.987-3.387,5.257,5.044,8.265,7.713,2.769,5.681,24.341,25.246,14.466,28.134Zm-23.178-21.31c7.328,2.44,9.93,8.646,12.104,15.196-7.886-1.996-11.611-7.31-12.104-15.196Zm254.797-111.18c-1.806,5.602-9.073,12.379-10.044,5.679,1.193-4.22,5.154-3.393,10.044-5.679Zm-237.679-49.304c4.507,8.35,14.847,11.086,19.11,19.424,26.236-34.555,72.75-51.145,115.029-39.125,4.806,.067,3.051,5.903-1.143,4.042-47.87-13.797-91.841,12.9-120.418,49.578-1.976-5.011,3.351-8.226,3.143-12.799-6.954-5.6-21.249-15.154-19.702-23.909,1.844-1.143,3.026,1.134,3.981,2.788Zm227.466,241.113c7.021-9.207,5.308-27.789,14.464-33.057,7.101,3.467-17.116,54.952-14.464,33.057Zm-165.016-156.838c6.049,2.283,12.317,4.871,18.999,5.749,5.273,3.414,11.899-1.938,17.257,2.57-4.63,5.257-4.178,14.933-13.861,14.884-.242-3.982,5.795-6.015,4.595-11.021-3.985,3.086-28.995-6.415-29.03-11.367-2.863-1.982,1.689-3.964,2.04-.815Zm169.905-59.608c-2.804-7.571,8.234-8.781,4.353-3.741-.009,2.188,1.388,5.144,.113,6.952-8.353,14.366-14.129,9.393-4.465-3.211Zm15.97,205.201c-2.616-2.52,.346-3.377,1.674-4.847,5.819-9.055,4.122-20.589,4.698-30.845,7.112-19.922,9.001,44.307-6.372,35.692Zm-19.24-224.389c5.033,8.307-12.294,39.105-22.678,34.904,10.576-9.94,15.68-22.654,22.678-34.904Zm-24.249,203.179c-.842,3.683-5.329,20.742-9.512,11.644,2.694-4.257,2.214-11.213,9.512-11.644Zm2.961,26.501c7.392-5.292,6.086-16.077,12.844-21.278,7.287,4.367-4.846,19.639-8.951,25.122-4.669,6.511-12.23-.721-3.893-3.844Zm-12.517-202.683c11.539-12.627,21.091-24.3,25.94-40.816,.762-2.818,2.595-2.876,4.808-2.652-2.892,16.368-13.289,38.441-30.748,43.468Zm-181.265,130.584c-5.777-13.123-22.196-26.522-22.184-39.929,5.764,2.774,38.937,49.13,22.184,39.929Zm60.97-82.42c-15.709-3.11-35.284-17.443-51.013-12.565-4.383,4.356-14.06-.536-14.617-.524-5.231-1.336,12.391-28.909,19.959-29.945,4.283-6.723,32.202-23.687,39.337-19.895,.878-.845,4.323-.723,5.682,.071-3.791-2.534,5.659-4.546,2.927-1.236,24.159-11.294,66.904-3.17,84.578,17.214,2.404-.187,3.271,1,3.101,3.267,6.844-.723,5.515,5.388,8.035,9.638,0,.2,.001,.363,.002,.489l-.002-.488c2.503-.057,3.55,1.934,1.134,3.25,.514,8.3-11.545,12.885-17.471,18.637-25.035,17.02-52.512,17.365-81.652,12.088Zm-64.075,197.303c11.263-4.434,8.99-12.717,8.002-21.501-.193,2.574-.46,5.139-.063,6.6-7.617,4.176-3.418-10.039-4.369-14.015,2.399-1.067,3.595-.448,4.15,1.019,.021-.366,.049-.732,.087-1.097,7.864,4.341,9.53-2.043,10.594,9.403,5.546-10.019,5.736-23.689,2.083-33.667-4.228-.52-.31-5.906-2.858-9.355-12.236-9.759,.571-13.575,3.979-.955,19.519,18.083,8.804,69.544-18.541,74.562-6.621,.403-6.148-7.527-3.064-10.995Zm-5.393-248.991c-1.954,3.139-4.164,.484-5.986-.78-11.299-2.585-26.348-37.964-10.391-15.033,3.38,6.721,16.135,8.892,16.378,15.813Zm-24.128,.425c4.503,4.31,11.562,5.277,16.459,12.119-9.186-1.063-13.872-5.182-16.459-12.119Zm122.908,66.536c2.506,6.194-3.646,22.767-8.874,15.08,4.52-3.69,4.527-10.178,8.874-15.08Zm63.397-92.162c-2.668,8.179-19.622-16.543-28.825-16.168,6.058-11.973,23.363,10.161,28.825,16.168Zm-21.168-27.571c-5.01-1.415-8.28-10.681-2.792-10.991,3.201,2.777,3.133,6.502,2.792,10.991Zm-101.563-26.329c2.849,11.333,12.962,18.904,14.524,28.014-7.102,1.707-20.049-20.866-14.524-28.014Zm88.471,17.905c-3.536-.28-3.967-9.397,.375-8.637,3.097,.603,2.965,8.783-.375,8.637Zm-114.514-1.156c1.415,8.279,8.984,15.931,15.491,23.073,1.316,1.174,4.504,2.632,2.269,4.888-9.284,3.756-16.543-18.45-20.411-23.401-1.701-3.021,1.23-11.218,2.651-4.56Zm14.883-4.625c1.064,8.12,12.106,13.826,11.535,21.452-6.877,5.984-23.861-36.841-11.535-21.452Zm-25.545,25.272c-3.184-3.778-8.133-10.976-4.943-14.186,5.108,.241,7.304,8.987,4.943,14.186Zm111.481-28.529c1.445-10.59,6.559,1.72,6.466,5.715-.41,7.796-7.409-2.281-6.466-5.715Zm-13.807-8.97c4.062,1.853,10.189,14.539,4.625,14.749-2.998-2.515-8.849-13.345-4.625-14.749Zm-94.069,41.154c5.304,2.134,9.749,5.185,13.583,11.231-8.624-.067-11.036-5.823-13.583-11.231Zm-379.656,24.698c5.682,3.178,3.229,11.578,6.989,16.124,5.107,7.556,16.777,10.26,21.417,16.056-3.764,5.345-15.614-4.806-20.121-7.336-12.754-2.58-15.06-16.932-8.285-24.845Zm450.919,417.375c-8.202-1.664-11.992-9.639-19.136-12.141-28.653,28.524-88.512,6.84-120.316,.998-11.696,23.475-97.982,14.098-115.104,15.233-20.187,21.502-68.466,62.379-112.671,44.186,18.171-1.302,44.215-9.754,56.035-11.991,5.137-4.59,27.492-5.05,25.545-19-4.514,1.452-10.664,10.199-14.788,4.92-2.108-3.295,1.759-4.779,3.081-5.066,16.888-5.013,20.878-21.048,26.424-36.188,5.484,13.168-6.848,23.751-4.574,31.134,13.932-13.647,18.065-33.443,12.74-52.808,19.539-10.881-10.942,67.202,49.154,.203,7.986-11.373,2.109,9.261,3.824,14.163,43.886,.169,61.725-49.661,64.398-85.57,6.603-17.773,12.298,83.947,53.129,75.064,11.398,14.835,34.504,10.541,49.044,10.146,5.073-3.708,5.336-2.293,7.641,.381-1.525-4.623,17.903-4.57,16.785,3.772,4.905,3.478,12.908,7.282,14.01,12.937,5.642-.022,16.333,3.478,17.758,7.566,13.624,6.476-9.016,8.944-12.981,2.062Zm-.017,84.984c-2.672,0-5.343,0-8.015,0,2.067-3.009,2.368-9.386,6.998-8.273,4.152,1.044-.188,5.504,1.017,8.273Zm-62.643-118.622c3.519-2.168,7.891-1.738,11.646-3.891,18.688-7.216,13.54,3.396-.339,7.623-4.55,1.584-9.341,2.949-11.307-3.731Zm-45.463,71.138c.687,3.953-4.388,1.633-5.934,3.708-7.221,3.286-10.274-9.595-2.281-6.854,2.58,1.981,7.498-.978,8.215,3.146Zm92.974-102.609c-3.447-.762-6.639-9.835-2.278-10.411,3.895,.469,7.177,10.515,2.278,10.411Zm6.273,36.727c6.513,1.36,21.061,13.948,6.382,10.841-2.334-3.494-8.357-4.817-6.382-10.841Zm-119.589,64.115c1.501,6.187-6.304,9.444-7.703,2.179-.904-5.436,5.161-5.059,7.703-2.179Zm112.25-124.876c-6.43-3.996-17.853-3.385-20.515-11.488,5.889-1.225,30.998,6.415,20.515,11.488Zm-220.359,64.851c-7.64-.005,5.296-11.881,7.425-9.69,3.536,3.224-3.098,10.624-7.425,9.69Zm-32.528-62.101l-.101-.063c.066-.033,.088-.006,.101,.063Zm278.421-.508l-.09,.092c-.009-.068,.034-.083,.09-.092Zm-240.452,61.659c.063-.027,.082,.102,.002,.076-.002-.026,0-.051-.002-.076Zm-93.383-33.703c-.092-6.101,8.882-15.578,13.485-14.826,7.042,4.202-11.128,10.45-13.485,14.826Zm100.559,21.754c-2.065-.404-2.169-2.028-1.932-3.708,1.945-5.615,7.636,4.147,1.932,3.708Zm-65.347-42.243c-1.602,2.042-9.939,7.895-10.078,2.754,.81-3.93,9.497-9.039,10.078-2.754Zm-1.005-369.765c-6.084-7.584-9.327-20.646-15.15-31.731,7.479,4.791,21.375,26.283,15.15,31.731Zm20.158,363.185c.352-.154,.727-.461,1.046-.38-.35,.126-.698,.253-1.046,.38Zm308.121,93.808c-1.548-3.74-15.22-16.554-4.32-15.929,4.068,3.415,15.914,18.431,4.32,15.929Zm116.2-108.306c3.117,12.052-8.644,7.962-12.084,13.675-.609-10.284,11.123-15.057,10.59-29.002,9.842-3.291,3.542,11.669,1.494,15.327Zm19.18,22.866c-1.279-4.34-3.386-8.42-.758-12.04,2.872-12.042,6.681,10.381,.758,12.04Zm-32.354,40.907c1.581,4.822,3.096,14.128-4.672,12.687,2.301-4.021-3.641-17.332,4.672-12.687Zm-8.241,18.241c1.106,12.107-29.658,19.704-17.424,7.457,12.487,1.849,13.518-15.103,11.629-24.775,8.544-2.78,4.753,14.203,5.796,17.318Zm-98.172,84.497c1.426,4.299-4.502,4.943-7.067,7.029-1.745-4.564,2.431-5.92,7.067-7.029Zm141.724-229.466c-14.649,11.604-36.039,31.16-49.759,40.697-2.17,4.53-7.681,8.153-11.122,9.048,4.702,4.929-8.447,6.784-7.106,12.45-2.469,.499-2.977,3.408-1.774,5.153-6.512,5.807-9.823,14.045-13.632,22.373-22.587,13.872-2.233,16.829,5.198,30.487,1.164,6.261,6.942,41.384,1.365,32.874,6.815,23.533-11.756,.273-8.133-11.732,.212-2.827,.73-5.908-1.651-8.305,2.414-10.034-12.157-13.214-9.715-20.739-5.521,9.452-19.931-14.001-29.857-13.032-.629-3.77,4.392-3.666,7.171-2.762,3.469,.547,5.845,4.394,9.741,2.984,.141,.48-1.04,2.442,.935,2.427,2.407-3.686-11.167-11.863-16.204-13.122-7.912-4.663-37.885-19.002-42.51-12.402-7.316,2.24-11.611-10.662-20.232-11.658-7.123-7.615-68.615-17.285-57.835-24.919,18.316,4.996,36.53,9.958,55.173,15.565,10.549,4.135,15.883,14.343,28.186,14.171,19.338,6.33,42.67,9.092,56.996,25.632,14.14,4.079,24.264-29.623,34.516-38.941,12.286-13.284,24.483-30.377,44.218-42.639,9.503-3.792,29.442-33.796,26.033-13.609Zm-108.944,99.315c.066,.143-.156-.029,0,0h0Zm6.421,20.968c7.537-.354,9.699,5.604,12.57,10.722-6.216,.497-11.269-5.076-12.57-10.722Zm-6.407-20.967l-.015-.002c-.005-.01-.007-.017-.015-.031-.017-.005,.031,.032,.029,.033Zm-421.492,54.77c-.08-.987-.161-1.974-.241-2.961,5.12,5.836,6.716-22.838,10.673-27.932,13.837-13.186,15.272-37.05,34.318-46.677-1.656,1.558,2.783,3.241,3.28-.927,2.402-.192,2.93-3.421,5.127-3.106-5.952,4.845,5.678-1.032,12.946-4.295-.79,.38-1.571,.779-2.331,1.214,26.034-6.848,56.394-9.505,77.609-27.533-4.645-6.873-15.56,9.073-24.548,7.672-1.982-1.92-3.088-.848-3.108,1.349-22.146,2.853-43.113,9.797-64.713,14.017-.335-2.88,4.453-12.575-1.616-7.858-3.448,17.696-25.911,21.371-29.32,39.512-1.469,4.788-3.862,5.551-8,5.385-24.788,1.478-44.366-9.684-64.169-22.238-6.53-6.116-15.908-5.673-22.822-10.902-1.643-3.316-5.063-3.596-7.987-4.828-.544-2.621-2.953-2.273-4.782-3.226-.698-2.885-3.378-1.843-5.15-2.601-42.972-19.941,18.486,21.277,31.806,25.548,10.707,16.702-22.276,44.235-4.673,35.905,13.256-7.784,7.361-39.906,17.745-30.749,8.133-.627,11.258,8.631,17.747,12.127,6.974,4.473-4.498,40.607,3.304,30.695,5.91-8.06,2.987-19.215,8.763-26.481,16.526,5.472,27.069-4.21,17.059,17.347-1.967,8.393-6.663,13.549-8.484,22.019,.894,5.498-7.806,5.522-4.772,11.235-.569,7.868-14.478,10.518-18.611,17.214-.695,3.615,.107,4.464,1.537,4.077-10.204,10.179,6.937,31.881,2.22,13.336-2.817-19.986,30.737-13.646,31.194-36.333Zm70.471-87.673c-.452,.148-.901,.313-1.349,.481,.531-.209,.994-.378,1.349-.481Zm315.653,114.996c-4.592-.73-1.729-8.834-7.91-7.982-.421-4.405-7.707-3.633-2.093-8.735,2.579,.965,3.014,5.774,5.153,1.586,3.149,.36,9.695,11.76,3.922,7.611,4.302,4.509,12.197,9.169,12.178,16.624,1.282-5.286,10.474,4.26,12.75,.313-3.407-.108-7.752-3.584-7.771-8.138,6.737,1.92,12.476,5.265,19.928,3.509,.398,3.456-.567,6.422-2.829,8.094,7.176-1.704,16.244-3.322,17.865-8.055,17.282,8.426-40.608,32.271-51.194-4.826Zm6.342-64.565l-.068,.066c-.002-.049,.017-.075,.068-.066Zm4.822,70.663c.524,.43,1.049,.861,1.574,1.292-1.545,.769-1.668,.259-1.574-1.292Zm9.85,3.177c.056,.028-.147,.053-.138-.047,.061-.013,.22,.032,.138,.047Zm-16.397-84.797c5.325,17.89-3.996,8.769-8.34-1.682,.176-8.089,6.92-3.263,8.34,1.682Zm6.522,65.437l-.068,.087c-.007-.057,0-.1,.068-.087Zm-312.279-94.334c-2.179-7.596,12.804-10.876,17.757-8.218,3.262,6.125-13.661,5.63-17.757,8.218Zm54.181-317.999c1.914-7.745,8.407-17.017,11-27.617,2.533,8.987-1.708,28.798-11,27.617Zm-5.623,95.919c5.223,2.927,36.102,19.083,24.994,23.286-7.184-8.959-18.753-13.176-24.994-23.286Zm10.608-145.721c4.431,8.968-4.784,44.3-15.885,46.426,6.485-13.699,12.359-27.372,12.783-42.702,.059-1.815,.643-4.102,3.102-3.724Zm-38.23-11.058c7.081-18.532,11.328,41.729,1.907,41.794-5.218-10.888,4.526-28.471-1.907-41.794Zm38.201,146.678c8.394-.887,35.231,24.86,16.037,15.505-4.041-6.216-12.279-8.055-16.037-15.505Zm-150.264,236.237c3.277,1.993,10.545-1.871,10.261,4.025-.889,4.65-8.176,3.066-11.955,2.203-6.876-.737-4.906-9.247,1.694-6.228Zm153.264-191.692c10.045,18.48-33.419-25.045-39.63-27.579-18.93-25.868,33.414,22.147,39.63,27.579Zm-31.595-51.957c-.134,.014-.268,.028-.401,.042,3.912,.755,10.023,6.794,9.285,11.1-5.305-.539-7.615-6.166-12.356-7.226-.213-2.042,.263-3.185,1.129-3.672-.435,.045-.869,.092-1.304,.136,.92-2.975,2.112-3.339,3.647-.381Zm21.363,3.709c-4.995-3.837-9.481-8.276-15.084-11.06,6.663-4.7,27.288,13.867,15.084,11.06Zm-47.865-145.114c-2.739-4.708,2.863-6.405,4.035-1.557,2.95,8.534,8.872,25.617,2.457,31.724-8.746-4.722,.276-21.773-6.493-30.167Zm-102.51,232.92c-.588-13.295,18.117,2.339,4.753,3.808-2.566,.044-5.016-.716-4.753-3.808Zm91.934-214.976c-.153-4.476-12.733-31.651-3.277-24.71,5.686,7.565,5.789,15.927,3.277,24.71Zm-120.706,112.907c.985-9.478,13.899,4.359,4.856,5.261-3.205-.087-4.279-2.657-4.856-5.261Zm8.469,293.388c-8.816,4.474-5.887-2.759-6.47-6.491,8.566-4.224,5.959,2.687,6.47,6.491Zm-1.015-51.056c3.698-.476,8.243,5.883,2.508,5.969-4.255,.681-8.914-6.325-2.508-5.969Zm8.623-245.253c-15.75-16.829,19.909,5.027,26.043,1.285,3.191-2.803,2.781,1.207,3.884,3.026-2.107,5.969-6.354,25.948-14.408,19.955,14.061-18.86,3.341-21.718-15.519-24.265Zm9.642,34.273c.345-8.715,14.366,2.669,4.368,3.777-2.406-.059-3.921-1.598-4.368-3.777Zm-73.871-152.612c-2.289-6.002,9.92-8.203,13.16-11.989,2.58-4.523,6.454-11.806,11.353-14.29,.278-4.303,7.031-2.205,9.669-4.071,5.056-3.828,8.961-12.873,15.751-12.134,4.355,2.646,4.862-3.628,8.097-1.489,6.781,2.137,11.719-4.938,16.035-4.68,26.373-1.062,50.821-10.412,75.222,4.216,5.411,4.727,7.739-5.152,12.888-2.546,12.282-2.528,20.066,5.487,31.675,5.124,6.414-4.311,8.142-3.3,14.848,1.217,4.506,4.65,15.137-5.196,18.154,.932,2.827,2.708,9.148,1.373,8.933,5.927,.742,4.455,4.838,2.64,3.456,4.01,1.081,1.979,8.933,9.121,3.836,10.259-2.505,3.079-4,8.633-9.674,3.95-7.032-4.78-13.369,6.87-19.584-5.299-8.394,1.864-13.908-5.22-21.625-6.145-3.779,3.838-12.281,3.117-13.87-2.281-15.372-12.737-32.969,5.438-48.727-7.151-6.242-4.548-18.251,7.195-15.813-4.002-23.927,1.997-54.76-1.49-76.148,17.864-6.261,6.47-15.976,7.75-21.969,14.622-1.955,6.99-8.95,3.633-12.996,6.331-.388,1.378-1.327,2.175-2.67,1.626Zm242.136,68.717c.41,2.489-1.68,2.812-3.199,3.625-4.344-.428,1.216-9.044,3.199-3.625Zm.836-18.043c9.272-5.692-.614,16.577-6.164,12.301-.654-4.4,4.411-8.327,6.164-12.301Zm-2.984,50.561c5.095-1.676,6.354,4.475,10.261,4.466,6.801,11.793-8.275,2.442-10.261-4.466Zm8.746-31.414c-2.058-1.278-5.701-1.726-4.049-5.426,4.413-8.031,12.697,8.35,4.049,5.426Zm-222.847,383.345c-1.812,6.162-7.214,3.301-5.068-6.488,2.008-4.501-4.824-6.771-2.843-11.264,5.925-.854,7.597,3.216,9.959,7.851,4.843,1.347-.948,12.568-2.048,9.901Zm-16.599-196.947c.58,19.428-21.094-25.208-10.016-25.579,6.433,4.873,3.462,18.652,10.016,25.579Zm5.31,124.112c4.452,15.607-24.298-12.294-8.868-7.891,3.685,1.851,6.262,4.947,8.868,7.891Zm194.286-335.009c-2.644-1.052-1.439-3.661-.738-5.567,7.207-13.816,4.81-34.073,11.614-45.81,5.618,4.102-3.633,50.806-10.876,51.377Zm33.984,164.313c-14.251-1.391-33.365-23.706-45.351-33.785,2.412-6.08,4.53-.967,6.095,.425,11,12.627,31.183,20.178,39.255,33.36Zm-43.626-15.833c10.631,6.988,18.869,17.243,30.745,22.517,9.993,19.185-43.188-23.472-30.745-22.517Zm-1.224,65.208c-1.977,22.034,7.572,51.805,26.865,57.833-12.065,5.159-22.333-6.364-27.374-15.706-7.651-5.017-7.71-50.761,.51-42.127Zm77.577,29.314c2.874,.078,3.372,6.907,.361,7.008-3.478,.21-4.134-7.249-.361-7.008Zm-19.294-263.334c.687-8.334,15.478,6.959,7.364,8.333-4.514-.716-5.983-4.669-7.364-8.333Zm8.509,193.249c5.624,.372,1.616,6.49,4.096,8.473,1.313,8.183-8.481,3.337-6.977-2.177,.058-2.516-.672-6.531,2.881-6.296Zm-14.092-82.687c-6.144-9.563-16.378-14.461-24.696-22.672,.443-11.336,15.903,12.547,21.307,11.645,3.436,3.76,17.29,11.816,3.389,11.027Z"/></svg>