<svg xmlns="http://www.w3.org/2000/svg" viewBox="0 0 1000 1000"><path d="M5 500.002v.395-.395c.099-89.506 22.55-172.682 67.253-249.726 44.209-74.473 103.55-133.814 178.023-178.023C327.419 27.45 410.694 5 500.002 5c89.308 0 172.583 22.45 249.726 67.253C824.2 116.462 883.54 175.803 927.75 250.276c44.803 77.143 67.253 160.418 67.253 249.726 0 89.308-22.45 172.583-67.253 249.726C883.541 824.2 824.2 883.54 749.728 927.75c-77.143 44.803-160.418 67.253-249.726 67.253-89.308 0-172.583-22.45-249.726-67.253-74.473-44.209-133.814-103.55-178.023-178.022C27.55 672.684 5.099 589.508 5 500.002zm133.517-91.484c-14.835 63.297-15.824 112.747 2.967 177.033C185.99 737.86 287.858 829.838 444.122 863.464c28.682 6.924 76.154 11.869 97.913 0-50.44-60.33-97.913-121.648-145.385-185.934 50.44-37.583 97.912-75.165 145.385-112.748-33.627-44.506-64.286-85.055-97.913-128.572-47.472 40.55-94.945 78.132-146.374 114.726-16.813-54.396-13.846-104.836 9.89-156.264C345.221 316.539 413.463 275.99 501.485 266.1c-2.967-3.956-6.923-9.89-9.89-13.846-27.692-37.583-58.352-74.177-89.011-111.76-8.901-10.878-8.901-10.878-23.737-6.922-128.571 47.473-210.66 139.45-240.33 274.946zm336.265 3.956c33.626 43.516 67.253 84.066 101.868 125.605L719.068 425.33c37.583 91.978-13.846 265.056-200.77 281.87 16.814 30.659 62.308 84.065 98.902 129.56 6.923 9.89 13.846 9.89 23.736 6.923 125.605-51.429 211.65-142.418 241.32-274.946C927.75 302.693 752.695 105.88 491.595 105.88c-3.956 0-10.88 3.956-13.846 6.924 47.473 61.318 94.945 122.637 146.374 183.956-51.429 40.55-98.901 78.132-149.341 115.715zm40.55 2.967c40.549-30.66 78.132-57.363 115.714-88.022 23.736-16.814 26.703-34.616 5.934-58.352-33.626-43.517-64.286-85.055-97.912-125.605 94.945-6.923 255.165 75.165 305.605 238.352 57.363 192.858-54.396 376.815-210.66 431.21-20.77-27.692-40.55-54.395-61.319-82.088 126.594-54.395 194.836-124.615 186.924-258.132 0-16.814-2.967-33.627-6.923-47.473-6.923-30.66-30.66-40.55-57.363-19.78-37.583 30.66-75.165 61.319-115.715 90.99-20.769-26.704-40.55-54.397-64.286-81.1z"/></svg>