<svg xmlns="http://www.w3.org/2000/svg" viewBox="0 0 1000 1000"><path d="M500.496 5C223.572 5 5 229.506 5 500.002c0 276.43 224.506 495.001 495.002 495.001 276.43 0 495.001-224.506 495.001-495.001C995.003 226.539 773.464 5 500.496 5zM196.87 602.365c29.67-23.737 65.275-34.616 102.857-43.517 27.693-9.89 54.396-13.846 80.11-13.846 67.253 10.879 136.484 13.846 202.748 6.923 16.814-3.956 33.627-6.923 51.43-6.923 16.812 0 30.659 1.978 47.472 6.923 39.56 6.923 76.154 15.824 109.78 37.582 10.88 5.935 22.748 14.836 32.638 26.704 77.143 73.187-152.308 132.528-286.814 138.462-212.638 0-442.09-59.341-340.221-152.308zm58.352-129.561c-20.77-14.835-20.77-37.583 0-56.374 22.747-20.77 51.428-30.66 79.12-37.583 22.748-5.934 45.495-10.879 68.243-16.813 9.89 0 17.802-.989 30.66 0 45.494 5.934 90 5.934 139.45 0 36.594-2.967 74.176 6.923 110.77 16.813 19.78 6.923 39.56 16.814 56.374 25.715 4.945 1.978 11.868 5.934 17.802 11.868 17.802 18.791 17.802 37.582 0 56.374-20.77 18.791-44.506 27.692-69.231 37.582-60.33 17.803-122.638 23.737-183.957 23.737-64.286 0-129.56-5.934-193.847-28.682-18.79-5.934-38.571-19.78-55.384-32.637zm64.286-165.166c-17.803-14.835-17.803-36.593 2.967-48.461 17.802-10.88 39.56-21.759 59.34-27.693 76.155-20.77 154.287-17.802 232.419-3.956 25.714 3.956 47.473 13.846 71.209 27.693 24.725 17.802 24.725 38.571 0 57.362-30.66 17.803-62.308 24.726-93.957 29.67-26.703 4.946-57.362 6.924-75.165 6.924-62.308 0-116.703-3.956-165.165-22.747-10.88-4.945-20.77-11.869-31.648-18.792z"/></svg>