<svg xmlns="http://www.w3.org/2000/svg" viewBox="0 0 1000 1000"><path d="M463.022 5.265c260.296-7.1 453.152 128.965 514.676 364.414 60.342 282.777-84.005 532.424-351.4 605.78C291.463 1067.747 8.687 822.832 8.687 459.6c0-222.434 215.335-436.587 454.335-454.334zM54.83 496.278c0 244.915 199.955 444.87 447.236 444.87 246.098 0 446.053-198.772 446.053-442.504 0-244.915-202.321-446.053-449.602-446.053-241.366 0-443.687 202.321-443.687 443.687zm89.92-8.282c0-31.946 28.396-60.342 61.525-60.342 35.495 0 63.89 27.213 63.89 60.342-3.549 39.044-30.761 65.074-63.89 65.074-33.129 0-61.525-29.58-61.525-65.074zm221.252 201.138c1.183-5.916 8.282-21.297 13.015-31.946 4.733-15.38 11.832-17.747 26.03-15.38 22.48 7.098 49.692 13.014 72.173 17.747 39.044 9.465 65.074-9.466 67.44-46.144 3.55-22.48-7.099-43.777-23.663-55.608-22.48-18.931-48.51-37.862-75.723-54.426-42.594-26.03-66.257-65.074-73.356-117.133-10.648-81.639 46.143-132.515 136.064-132.515 36.678 0 69.807 4.733 99.386 18.93 18.93 10.65 18.93 16.565 7.099 49.694l-7.1 16.564c-4.732 9.465-2.366 16.564-17.747 11.832-26.03-4.733-50.876-10.649-80.455-15.381-21.297-3.55-35.495 2.366-40.228 15.38-10.648 23.664-8.282 46.144 5.916 59.159 14.198 10.648 93.47 69.807 92.287 68.623 60.341 47.327 79.272 111.218 55.609 184.574-11.832 36.678-39.045 60.342-84.005 72.173-53.242 14.198-104.118 8.282-160.91-17.747-10.649-8.282-14.198-16.565-11.832-28.396zM731.6 487.996c0-33.129 29.58-60.342 66.257-60.342 33.129 0 59.158 26.03 59.158 60.342 0 36.678-27.212 65.074-59.158 65.074-36.678 0-66.257-28.396-66.257-65.074z"/></svg>