<?xml version="1.0" encoding="utf-8"?>
<!-- Generator: Adobe Illustrator 26.0.1, SVG Export Plug-In . SVG Version: 6.00 Build 0)  -->
<svg version="1.1" id="Layer_1" xmlns="http://www.w3.org/2000/svg" xmlns:xlink="http://www.w3.org/1999/xlink" x="0px" y="0px"
	 viewBox="0 0 1000 1000" style="enable-background:new 0 0 1000 1000;" xml:space="preserve">
<path d="M527.8,485.9c-3.2,2.3-6.7,3.9-10.5,4.7c-3.8,0.8-7.8,1.2-11.7,1.2H466v-82.6h39.6c4,0,7.9,0.4,11.7,1.2
	c3.9,0.8,7.4,2.4,10.5,4.7c3.2,2.3,5.5,5.3,7.2,8.9c1.6,3.6,2.5,7.3,2.5,11V466c0,3.7-0.8,7.4-2.5,11
	C533.3,480.6,531,483.6,527.8,485.9z M995.3,500c0,273.4-221.6,495-495,495S5.3,773.4,5.3,500S226.9,5,500.3,5
	S995.3,226.6,995.3,500z M586.2,142.6c46.4,42.4,78.8,101.7,96.7,144.7h113.9L650.7,142.6H586.2z M664.8,555.6V442.5
	c0-4.9,0.8-9.7,2.3-14.4c1.5-4.7,4-8.8,7.5-12.3c3.5-3.5,7.6-6,12.3-7.4c4.7-1.4,9.5-2.1,14.4-2.1c5.6,0,11.2,0.9,16.8,2.8
	c5.6,1.9,10.2,5.2,13.7,10c3.5,4.8,5.3,10.1,5.3,15.9H780c0-9.8-2-19.3-6.1-28.4c-4.1-9.1-10-16.7-17.7-22.9
	c-7.7-6.2-16.3-10.4-25.9-12.8c-9.6-2.3-19.3-3.5-29.1-3.5c-7,0-13.9,0.5-20.8,1.6c-6.9,1.1-13.5,3-19.8,6
	c-6.3,2.9-12,6.7-17.2,11.4c-5.1,4.7-9.4,10-12.8,16.1c-3.4,6.1-5.7,12.5-7,19.3c-1.3,6.8-1.9,13.7-1.9,20.7v113.1
	c0,7,0.6,13.9,1.9,20.7c1.3,6.8,3.6,13.2,7,19.3c3.4,6.1,7.6,11.4,12.8,16.1c5.1,4.7,10.9,8.5,17.2,11.4c6.3,2.9,12.9,4.9,19.8,6
	c6.9,1,13.8,1.6,20.8,1.6c9.8,0,19.5-1.2,29.1-3.5c9.6-2.3,18.2-6.6,25.9-12.8c7.7-6.2,13.6-13.8,17.7-22.9
	c4.1-9.1,6.1-18.6,6.1-28.4H737c0,5.6-1.8,10.9-5.3,15.8c-3.5,4.9-8.1,8.3-13.7,10.2c-5.6,1.9-11.2,2.8-16.8,2.8
	c-4.9,0-9.7-0.7-14.4-2.1c-4.7-1.4-8.8-3.9-12.3-7.4c-3.5-3.5-6-7.6-7.5-12.3C665.6,565.3,664.8,560.5,664.8,555.6z M515.4,287.3
	h140.4c-32.7-77.9-85.8-128.9-108.2-144.7h-32.2V287.3z M348.5,287.3h138.9V142.6h-32.9C393.2,186.7,358.3,257.4,348.5,287.3z
	 M333,515.7v112h43.1V370.4H333v106.1h-68.6V370.4h-43.1v257.3h43.1v-112H333z M203.8,287.3h117.4c15.8-57.3,77.4-133.9,96-144.7
	h-68.8L203.8,287.3z M414.4,857.4C368,815,335.6,755.7,317.7,712.7H203.8l146.1,144.7H414.4z M485.3,712.7H344.9
	c32.7,77.9,85.7,128.9,108.2,144.7h32.2V712.7z M541.3,627.7h46.6L528.3,529c7.2-1.6,14.2-4.1,21-7.5c6.8-3.4,12.7-8,17.7-13.8
	c5-5.8,8.5-12.4,10.5-19.6c2-7.2,3-14.6,3-22.1v-30.8c0-7.5-1-14.8-3.2-22.1c-2.1-7.2-5.6-13.8-10.5-19.6
	c-4.9-5.8-10.7-10.5-17.5-14c-6.8-3.5-13.9-5.9-21.4-7.2c-7.5-1.3-14.9-1.9-22.4-1.9H423v257.3H466v-97h16.8L541.3,627.7z
	 M652.1,712.7H513.2v144.7h32.9C607.4,813.3,642.3,742.6,652.1,712.7z M796.9,712.7H679.4c-15.8,57.3-77.4,133.9-96,144.7h68.8
	L796.9,712.7z"/>
</svg>
