<svg xmlns="http://www.w3.org/2000/svg" viewBox="0 0 1000 1000"><path d="M500.496 5C223.572 5 5 229.506 5 500.002c0 276.43 224.506 495.001 495.002 495.001 276.43 0 495.001-224.506 495.001-495.001C995.003 226.539 773.464 5 500.496 5zM92.033 457.969c19.78-192.858 162.199-340.221 346.155-368.903 5.934-.989 10.88-.989 21.759-.989 0 37.583 0 76.154-1.978 115.715 0 4.945-10.88 9.89-16.814 10.879-92.967 26.703-160.22 83.077-200.77 166.154-56.373 112.748-23.736 247.254 77.144 330.331 35.604 31.649 76.154 55.385 123.626 66.264 14.836 2.967 18.792 10.88 18.792 24.726V907.97h-17.803c-30.66-9.89-65.275-16.813-94.945-28.681-169.122-70.22-272.968-239.342-255.166-421.32zM541.046 907.97V801.156c0-13.846 5.934-20.769 18.791-23.736 119.67-29.67 194.836-104.835 224.506-223.517 2.967-11.868 8.901-16.813 21.759-16.813 34.615 1.978 70.22 0 106.813 0v16.813c-1.978 6.923-4.945 13.846-4.945 19.78-34.615 177.034-150.33 295.715-327.364 329.342-7.912 1.978-15.824 2.967-21.758 4.945zm0-721.98c1.978-26.704 0-55.385 0-82.089 0-14.835 5.934-17.802 20.77-15.824 180 24.726 308.572 145.385 343.187 322.419.989 10.879 4.945 18.791 7.912 29.67v14.835H807.091c-13.847.99-19.78-3.956-22.748-18.79-31.648-114.726-103.846-189.892-219.56-219.562-17.803-4.945-24.726-11.868-23.737-30.66z"/></svg>