<svg xmlns="http://www.w3.org/2000/svg" viewBox="0 0 1000 1000"><path d="M434.346,913.835H574.005A370.555,370.555,0,0,1,434.346,913.835ZM669.407,117.187H568.1l-.983-.984,27.538-10.818V104.4H374.352v-1.967C422.544,86.7,472.7,80.8,522.863,82.764,574.005,84.731,623.181,95.549,669.407,117.187Zm-106.22.983L526.8,136.857v1.967h179c5.9,0,11.8.984,16.719,4.918,8.852,5.9,18.687,11.8,27.539,17.7a31.172,31.172,0,0,0,5.9,4.918h-274.4l15.736-11.8-.983-.983H272.066v-.984l2.95-2.95c18.687-9.835,36.391-19.67,55.077-29.506,2.951-1.967,5.9-2.95,8.852-1.967,73.764-.983,146.544-.983,220.308-.983C560.236,117.187,561.22,118.17,563.187,118.17ZM425.5,216.522l12.785-12.786H211.088l-.984-1.967c1.967-.983,2.951-2.95,4.918-4.917,10.819-8.852,20.654-17.7,31.473-26.555a11.167,11.167,0,0,1,7.868-2.951H479.588l-21.637,18.687V188H774.643c5.9,0,10.819,1.967,14.753,6.885l21.637,21.637c-2.951,0-4.918.983-7.868.983H436.313C432.379,217.505,429.429,216.522,425.5,216.522Zm0,0-16.72,19.67a3.048,3.048,0,0,1,.983,1.967h411.11c6.885,0,11.8,1.967,15.736,7.868,4.918,6.885,9.836,12.786,14.753,20.654H387.137l7.868-13.769H165.846a22.69,22.69,0,0,0,4.918-6.885c6.884-7.868,13.769-15.736,19.67-23.6,2.951-3.934,6.885-4.918,11.8-4.918h215.39C420.577,217.505,423.527,216.522,425.5,216.522Zm-38.358,50.159a207.51,207.51,0,0,0-13.769,21.638H383.2c157.363,0,314.726,0,472.088-.984,6.885,0,11.8,1.967,14.753,8.852s6.885,12.786,9.835,19.67c-2.95,0-5.9.984-7.868.984H364.516c-2.95,0-4.917-.984-6.884-.984l6.884-12.786H135.357c.984-2.95.984-4.917,1.967-5.9,4.918-8.851,9.835-16.719,14.753-25.571,2.95-3.934,5.9-4.918,9.835-4.918H387.137Zm-29.5,49.176L348.78,337.5H884.8c3.934,0,5.9.983,7.868,4.917A149.984,149.984,0,0,0,901.516,367H336a114.488,114.488,0,0,0,5.9-14.753H111.753c.983-1.967.983-3.934,1.967-5.9,3.934-7.868,6.884-15.736,10.818-23.6,1.967-4.918,3.935-6.885,9.836-6.885,21.637.984,42.291.984,63.928.984H348.78C351.731,316.841,354.681,315.857,357.632,315.857ZM336,367c-1.968,6.885-2.951,12.786-4.918,20.654H897.582c10.819,0,9.836-1.967,12.786,8.851a102.923,102.923,0,0,0,3.934,16.72v2.951H333.044c-3.934,0-6.885.983-10.819.983a64.668,64.668,0,0,0,3.934-14.752H96.016q2.952-11.8,5.9-20.654c5.9-17.7,1.967-14.753,19.67-14.753H336Zm-13.77,50.159c0,5.9-.983,12.786-1.967,19.671H918.236a283.986,283.986,0,0,0,3.934,28.522,48.28,48.28,0,0,1-10.818.983H316.324a84.9,84.9,0,0,1,.984-14.753H88.148v-7.868c.984-6.884,2.951-14.752,3.934-22.621,0-2.95,1.967-4.917,5.9-4.917H315.341C317.308,416.176,320.258,417.159,322.225,417.159Zm-5.9,49.176v20.654H922.17V516.5H314.357V501.742H84.214v-7.868c0-6.885.984-14.753.984-21.638,0-3.934,1.967-5.9,6.884-5.9H316.324Zm-1.967,50.16c.984,4.917.984,10.818,1.967,15.736,0,2.95.984,3.934,3.934,3.934H922.17c-1.967,10.819-2.95,19.67-3.934,29.5H319.275c1.967,6.885,1.967,12.786,3.934,17.7,0,.983,1.967,2.95,3.934,2.95H915.286c-2.951,9.835-4.918,19.671-7.868,29.506H330.093c1.967,5.9,3.934,11.8,5.9,16.719,0,1.967,1.967,2.951,3.934,2.951,1.967.984,4.917,0,6.884,0h554.7c-3.934,9.835-6.884,18.687-10.818,27.538,0,.984-1.967,1.967-3.934,1.967-1.967.984-4.918,0-6.885,0H347.8c3.934,6.885,5.9,12.786,8.851,18.687a7.512,7.512,0,0,0,4.918,1.967c1.967.984,4.918.984,7.868.984H879.879c-1.967,4.917-4.917,8.852-5.9,12.786-4.918,12.785-12.786,15.736-26.555,15.736H373.368a96.945,96.945,0,0,0,12.786,19.67c.983.984,2.95.984,3.934.984H850.374v1.967c-5.9,7.868-11.8,16.719-18.687,25.571-.984.984-2.951.984-3.934.984h-418l-.983,1.967c5.9,5.9,9.835,12.785,16.72,17.7,1.967,1.967,5.9,1.967,8.851,1.967H811.033c-1.967,1.967-1.967,3.934-3.934,4.918l-18.687,18.686c-3.934,3.934-7.868,4.918-12.786,4.918H457.951l-.984,1.967c7.868,5.9,15.736,12.786,23.6,18.687,1.967.983,5.9,0,8.852,0h265.55v1.967a13.59,13.59,0,0,1-3.935,2.95c-9.835,6.885-19.67,13.77-30.489,20.654-3.934,2.951-7.868,3.934-12.785,3.934H526.8v.984c3.934,1.967,7.868,4.917,11.8,6.884,15.736,9.836,32.456,13.77,51.143,12.786,24.588-.983,49.176,0,73.763,0,1.968,0,4.918,0,6.885.984-6.885,2.95-12.786,5.9-19.67,7.868-4.918,1.967-10.819,3.934-16.72,5.9-8.852,3.934-18.687,4.918-28.522.983-2.951-.983-5.9-.983-9.835-.983H380.253a44.551,44.551,0,0,1-15.737-2.951,435.963,435.963,0,0,1-65.9-29.5c-.984-.984-1.967-1.967-1.967-2.951H519.912v-1.967c-8.852-4.917-16.72-12.785-29.505-12.785-70.814.983-141.627,0-212.44.983-4.918,0-8.852-.983-12.786-4.917-11.8-7.869-22.621-16.72-33.439-25.572a21.442,21.442,0,0,1-4.918-3.934V814.5H452.049l.984-.984c-6.885-5.9-10.819-13.769-21.637-12.785H217.973c-5.9,0-10.819-1.967-14.753-6.885-7.868-8.851-16.72-18.687-24.588-27.538v-1.967H406.808c-2.951-4.918-5.9-7.868-8.852-11.8-.983-.983-2.951-.983-4.918-1.967H174.7c-5.9,0-9.835-.983-13.769-5.9-3.934-8.851-9.836-16.719-14.753-24.588a21.482,21.482,0,0,1-2.951-4.917h229.16a65.45,65.45,0,0,0-5.9-11.8,7.455,7.455,0,0,0-3.935-1.967H144.209c-7.868,0-11.8-1.967-14.753-8.852-2.951-8.852-7.868-17.7-11.8-27.539H346.813a55.418,55.418,0,0,0-3.934-11.8,7.456,7.456,0,0,0-3.934-1.967,19.211,19.211,0,0,0-6.885-.983H120.6c-8.851,0-9.835.983-11.8-7.868L99.951,615.83H330.093a102.1,102.1,0,0,0-2.95-11.8c-.984-.983-2.951-1.967-3.934-2.95H104.868c-8.852,0-8.852,1.967-10.819-8.852-1.967-8.851-2.95-16.72-4.917-26.555H318.291v-4.917c0-8.852-.983-8.852-8.851-8.852-70.814-.983-141.627-.983-212.44-.983-1.967,0-4.918.983-6.885,0-.983,0-2.95-1.967-2.95-2.951C86.181,537.148,85.2,527.313,85.2,516.5H314.357ZM7.5,501.742C7.5,772.209,226.824,993.5,500.242,993.5,770.709,993.5,992,774.176,992,500.758,992,230.291,771.692,9,500.242,9,227.808,9,7.5,228.324,7.5,501.742Z"/></svg>