<svg xmlns="http://www.w3.org/2000/svg" viewBox="0 0 1000 1000"><path d="M5 500.496c0 271.98 220.55 494.507 495.496 494.507 271.98 0 494.507-220.55 494.507-495.496C995.003 227.528 773.464 5 500.496 5 226.54 5 5 225.55 5 500.496zm107.803-8.901c5.934-11.868 10.879-26.703 19.78-34.615 110.77-114.726 224.506-226.485 336.265-338.243C493.573 95 526.21 95 552.914 122.693c38.571 37.582 74.176 73.187 111.759 109.78 34.615 35.605 69.23 72.198 105.824 106.814 20.77 21.758 20.77 37.582 0 60.33l-28.681 28.681c-16.814 16.813-34.616 16.813-51.43-1.978a10212.466 10212.466 0 0 0-146.373-146.374c-4.945-3.956-9.89-9.89-15.824-14.835-12.858-9.89-26.704-9.89-36.594 0-15.824 14.835-30.66 28.681-44.506 43.516-14.835 15.825-14.835 26.704 1.978 42.528 11.869 12.857 24.726 23.736 37.583 38.572 21.758 19.78 21.758 32.637 0 55.384-8.901 9.89-17.802 17.803-27.692 25.715-22.748 22.747-30.66 22.747-55.385 1.978-9.89-9.89-19.78-21.759-32.638-32.638-23.736-21.758-32.637-21.758-56.374 0-35.604 35.605-70.22 72.198-105.824 105.825-24.725 25.714-38.572 25.714-65.275 0-14.835-13.846-28.681-29.67-30.66-54.396zM244.34 645.881c-19.78-19.78-17.802-34.615 0-54.396 10.88-10.879 21.759-19.78 30.66-30.659 16.813-15.824 32.637-15.824 49.45 0 50.44 50.44 101.87 101.868 153.298 150.33 28.681 28.682 31.648 28.682 61.319 0 8.9-9.89 21.758-19.78 31.648-32.637 14.835-14.836 14.835-23.737 0-38.572L528.19 597.42c-18.792-18.792-16.814-32.638 1.978-52.418a448.305 448.305 0 0 1 30.659-30.66c17.802-16.813 34.616-16.813 52.418 1.978 13.846 13.847 26.703 26.704 41.538 37.583 13.847 14.835 24.726 17.802 37.583 2.967 39.56-39.56 78.132-75.165 116.704-114.726 23.736-25.714 38.571-25.714 65.275 0 14.835 14.836 25.714 30.66 25.714 55.385 2.967 16.813-7.912 28.682-19.78 41.539-54.396 52.417-107.803 106.813-163.188 162.198-55.385 54.396-109.78 109.78-164.176 165.165-18.791 17.803-39.56 26.704-63.297 17.803-9.89-5.934-22.747-14.836-30.66-21.759-57.362-57.362-111.758-111.758-167.143-170.11-16.813-15.824-32.637-29.67-47.473-46.484z"/></svg>