<svg xmlns="http://www.w3.org/2000/svg" width="1000" height="1000">
  <path d="M500.496 5C223.572 5 5 229.506 5 500.002c0 276.43 224.506 495.001 495.002 495.001 276.43 0 495.001-224.506 495.001-495.001C995.003 226.539 773.464 5 500.496 5zM144.451 619.178c-57.363-216.594 43.517-406.485 249.232-478.683 30.66-10.88 68.242-2.967 75.165 32.637 6.923 22.748-3.956 44.506-30.66 53.407-52.417 12.857-98.901 39.56-138.462 81.1-75.165 79.12-98.901 178.022-70.22 285.824 8.901 30.66 0 52.418-28.681 61.32-25.715 10.879-48.462-3.957-56.374-35.605zm85.055 99.89c8.901-17.802 25.715-27.692 48.462-22.747 176.044 116.704 300.66 152.308 437.144 8.901 27.693-22.747 55.385-22.747 72.198-3.956 21.759 17.802 17.803 43.517-3.956 70.22C706.211 847.64 614.233 888.19 506.43 888.19c-102.857 0-197.803-40.55-268.023-111.759-17.802-18.791-24.725-40.55-8.9-57.363zm195.825-206.704c0-44.505 35.605-80.11 81.1-80.11 43.516 0 80.11 35.605 80.11 80.11 0 41.539-36.594 81.1-80.11 81.1-41.54 0-81.1-35.605-81.1-81.1zm107.803-339.232c3.956-27.692 25.714-41.538 53.406-35.604 2.967 0 7.913 0 13.847 2.967 110.77 28.681 191.868 93.956 245.275 193.847 41.539 83.077 58.352 195.825 32.638 272.968-10.88 30.66-32.638 43.516-60.33 38.571-25.715-3.956-39.56-30.66-30.66-61.319 21.759-102.857 0-197.803-72.198-272.968-39.56-45.494-87.033-72.198-147.363-85.055-25.714-4.945-39.56-26.703-34.615-53.407z" style="fill:#000;fill-opacity:1;fill-rule:nonzero;stroke:none;"/>
</svg>
