<svg xmlns="http://www.w3.org/2000/svg" width="1000" height="1000">
  <path d="M954.903 991.543h-918.1C11.912 991.543 5 984.63 5 958.36V41.64C5 13.987 11.914 8.456 36.802 8.456h918.101c29.036 0 33.184 5.531 33.184 33.185 0 306.955 6.914 609.763 6.914 916.718 0 26.27-11.062 33.184-40.098 33.184zm-833.757-160.39c0 31.8 12.444 45.628 45.628 45.628 223.995 0 442.458-9.68 667.836 0 33.184 1.382 37.332-13.827 37.332-45.629 0-223.994 5.53-450.754 5.53-676.131 0-23.506-9.678-37.333-38.714-37.333H166.774c-45.628 0-45.628 6.914-45.628 45.629zm58.072-51.16V503.457c0-92.64 5.531-179.75 0-271.006 0-26.271 5.531-35.95 37.333-35.95h226.76c109.232 0 199.106 82.961 206.02 190.81 12.443 109.232-59.456 211.55-161.775 232.29-38.715 5.532-71.899 0-109.231 0-20.74 0-31.802 5.532-31.802 31.803 0 55.307 6.913 84.343 6.913 128.589 0 19.357-13.826 30.419-33.184 30.419H211.02c-26.27 0-31.802-11.062-31.802-30.42zm167.305-373.324c6.913 77.43-6.913 64.986 69.134 64.986 47.011 0 63.603-13.827 63.603-60.838 0-49.777-11.061-67.752-55.307-67.752-70.517 4.148-77.43-6.913-77.43 63.604zm77.43 378.855v-77.43c0-24.889 5.53-31.802 24.888-31.802h334.61c24.888 0 31.801 6.913 31.801 31.801v77.43c0 17.976-13.827 24.889-31.802 24.889H448.841c-19.357 0-24.888-6.913-24.888-24.888z" style="fill:#000;fill-opacity:1;fill-rule:nonzero;stroke:none;"/>
</svg>
