<svg xmlns="http://www.w3.org/2000/svg" viewBox="0 0 1000 1000"><path d="M500,0C223.858,0,0,223.858,0,500s223.858,500,500,500,500-223.858,500-500S776.142,0,500,0Zm257.431,754.341c-68.762,68.781-160.187,106.659-257.431,106.659s-188.669-37.878-257.431-106.659c-68.762-68.779-106.631-160.228-106.631-257.497s37.869-188.717,106.631-257.497,160.186-106.659,257.431-106.659c42.538,0,83.952,7.273,122.852,21.188-11.765,29.646-56.447,69.807-87.439,89.641-.825-12.252-3.976-18.362-8.673-29.253-1.528-2.227-3.055-4.455-4.855-7.079-2.87,4.654-5.112,9.04-8.043,12.903-9.678,12.76-22.193,22.299-35.758,30.549-17.133,10.42-35.071,19.168-54.006,25.826-5.64,2.341-11.433,4.371-16.888,7.082-13.802,6.86-23.734,17.214-27.896,32.448-.381,7.509-.541,14.932,4.067,21.55,4.894,7.028,9.826,10.059,22.58,13.278-10.605,2.534-20.523,2.325-28.65-4.684-9.002,7.52-17.365,15.033-26.289,21.806-8.083,6.135-17.118,10.816-27.276,12.6-6.301,1.106-12.654,1.516-17.137-4.586-4.489-4.672-4.079-10.271-3.025-15.991,.589-2.538,1.279-5.059,1.724-7.622,.222-1.282-.004-2.641-.028-3.966-3.978,2.81-8.154,5.383-11.886,8.489-4.9,4.078-9.452,8.575-14.153,12.891-8.592,9.368-16.229,19.421-22.077,30.76-2.669,8.203-5.339,16.406-8.008,24.609-.406,8.502-.811,17.003-1.217,25.505,.843,12.457,2.757,24.724,6.122,37.222,6.242-4.736,11.975-9.086,17.708-13.435h0c1.907,2.582,3.658,5.299,5.745,7.726,15.051,17.502,34.689,26.933,56.797,31.765,7.875,1.721,15.892,2.796,23.844,4.166-1.562-3.446-3.581-5.706-5.361-8.141-8.091-11.067-6.344-21.334,5.085-28.85,3.148-2.07,6.62-3.81,10.164-5.091,27.307-9.871,55.438-9.145,83.597-5.613,23.786,2.983,46.602,9.654,67.978,20.778,.402,.296,.805,.592,1.207,.888l-.068,.017c3.471,1.701,7.154,3.072,10.376,5.158,17.695,11.452,32.131,26.02,41.271,45.234,5.215,10.962,8.841,22.49,9.135,34.784,.17,7.086,.013,14.179,.003,21.269-8.855,7.226-17.532,14.722-28.595,19.389,2.512-7.517,5.468-14.35,7.064-21.487,6.932-30.989,.436-59.215-18.795-84.386-4.054-5.307-9.081-9.88-13.782-14.671-.667-.679-2.034-.671-3.077-.981,1.439,1.844,2.899,3.672,4.314,5.535,19.17,25.24,23.937,52.615,11.357,82.11-10.308,24.168-28.243,41.931-50.073,55.71-45.2,28.529-94.528,37.396-146.85,28.016-53.479-9.587-95.992-38.078-130.608-79.128-22.089-26.195-38.735-55.709-52.227-87.094-.201-.468-.482-.902-.784-1.327,.859,89.742,36.175,173.985,99.711,237.537,64.326,64.343,149.852,99.778,240.823,99.778s176.496-35.435,240.822-99.778c43.796-43.807,74.179-97.449,89.123-155.941-.582-6.05-1.074-12.11-1.833-18.138-5.699-45.246-22.367-86.014-50.059-122.259-14.548-19.042-31.303-35.839-50.735-49.915-.219-.159-.322-.477-.48-.721h0c-1.838-1.161-3.668-2.338-5.496-3.517-4.052-2.613-8.096-5.243-12.194-7.778-1.982-1.226-3.978-2.429-5.994-3.597-25.039-14.502-51.831-24.337-80.325-29.479-.571-.103-1.116-.353-1.673-.534-4.09-.495-8.18-.991-12.27-1.486,.041-.325,.081-.651,.122-.976,4.068,.301,8.136,.603,12.204,.904,31.133,1.901,61.077,8.953,89.848,20.943,7.566,3.153,14.96,6.719,23.512,10.582-4.132-7.103-7.744-13.313-11.356-19.523,.166-.242,.331-.485,.497-.727,8.414,4.432,16.923,8.692,25.222,13.328,21.214,11.851,41.19,25.565,60.27,40.603,.259,.204,.537,.384,.827,.548,.87,.492,1.851,.844,2.752,1.299-.455-1.114-.656-2.456-1.411-3.308-29.295-33.058-63.552-59.714-102.688-80.244-32.767-17.189-67.242-29.126-103.72-35.229-7.771-1.3-15.625-2.099-23.441-3.129-2.26,1.517-4.49,3.088-6.719,4.661-3.416,2.41-6.829,4.825-10.339,7.063-1.933,1.233-3.896,2.412-5.905,3.506-15.107,8.229-30.624,15.708-46.021,23.399-1.619,.809-3.573,.949-4.912,1.284,5.199-7.225,10.975-14.195,15.514-21.894,3.578-6.069,5.536-13.081,8.437-19.573,.676-1.514,2.007-3.244,3.458-3.829,35.798-14.42,64.507-37.925,87.891-68.294,2.2-2.857,4.141-5.913,6.202-8.877-.196-.186-.364-.396-.502-.629-7.495,2.204-14.989,4.409-23.441,6.894,8.92-10.16,16.855-20.74,23.875-31.739l11.78-20.561c8.053-15.769,14.405-32.359,19.075-49.846l1.149,.287c-1.589,15.435-2.737,30.933-4.917,46.285-.444,3.127-1.018,6.235-1.655,9.334,37.764,17.721,72.563,42.061,102.935,72.441,68.763,68.78,106.631,160.227,106.631,257.497s-37.869,188.718-106.631,257.497Zm-22.961-119.649c-.487-7.29-2.422-32.362-13.324-62.245-7.512-20.59-17.546-39.879-30.135-57.815-14.374-20.477-31.463-38.36-51.118-53.874-23.709-18.713-50.091-32.245-78.76-41.42-16.144-5.166-32.683-8.592-49.588-10.079-.616-.054-1.235-.081-1.855-.091-1.86-.029-3.734,.097-5.598,.11h0c-2.59-1.82-5.129-3.72-7.739-5.507-.87-.596-1.748-1.179-2.639-1.742-8.21-5.195-16.517-10.237-25.007-15.479,13.345,0,26.625-.642,39.823,.124,35.818,2.077,70.22,10.409,102.216,26.84,51.529,26.462,80.915,62.475,89.292,73.619,13.183,17.538,38.044,51.453,44.651,101.508,7.406,56.111-12.191,101.712-13.558,101.475-.937-.162,5.571-22.047,3.339-55.425Zm-125.657-30.066h0c1.433-1.972,2.818-3.981,4.307-5.909,6.61-8.562,11.618-17.866,13.53-28.65,.165-.93,.683-1.798,1.037-2.695,.423-.088,.846-.175,1.27-.263,2.8,8.054,5.957,16.005,8.314,24.187,3.456,11.994,4.926,24.383,4.008,36.819-1.613,21.835-7.943,42.251-18.834,61.401-10.543,18.538-24.011,34.59-39.643,48.824-14.616,13.31-30.803,24.483-48.309,33.832-19.85,10.601-40.539,18.972-62.52,23.547-13.909,2.895-28.12,4.643-42.284,5.902-10.256,.911-20.658,.196-30.994,.135-.944-.005-1.886-.522-2.828-.801,28.245,1.26,55.494-3.813,81.917-13.431,26.127-9.51,50.165-22.891,71.812-40.424,21.33-17.276,39.692-37.127,51.905-61.976,6.66-13.552,10.801-27.821,11.956-43.125,.977-12.939-1.092-25.166-4.643-37.373Zm-331.147-134.959c5.227-3.858,10.612-7.418,16.131-10.725,.179-.107,.354-.222,.532-.328,1.599-.952,3.217-1.87,4.839-2.779,.31-.174,.615-.359,.925-.531,1.395-.772,2.807-1.512,4.217-2.254,.549-.289,1.09-.593,1.642-.877,1.474-.76,2.965-1.487,4.455-2.215,.498-.243,.99-.501,1.49-.741,1.765-.846,3.546-1.663,5.333-2.466,.234-.105,.465-.219,.699-.323,2.025-.903,4.064-1.779,6.115-2.63,3.788-1.571,7.621-3.055,11.495-4.458,33.995-12.319,69.171-16.645,105.18-15.175,22.407,.915,44.516,3.979,66.378,8.905,1.409,.318,2.776,.828,4.162,1.249,4.284,5.872,8.688,11.661,12.805,17.647,2.419,3.518,4.383,7.349,6.552,11.039-.273,.286-.547,.573-.82,.859-2.4-.857-4.794-1.732-7.202-2.568-20.843-7.237-41.939-13.71-63.728-17.262-14.34-2.337-28.872-3.778-43.377-4.724-11.463-.748-23.069-.829-34.516,.044-17.282,1.319-34.327,4.416-51.045,9.301-16.37,4.783-31.909,11.431-47.012,19.241-1.632,.844-3.512,1.207-5.278,1.793l.028-.022Zm-1.562,1.143l.006-.005c.558-.411,1.117-.822,1.675-1.233-.56,.412-1.121,.825-1.682,1.237Zm2.066-48.831c.342-1.272,.684-2.544,1.023-3.818l.004-.004c.971-10.058,12.148-23.028,21.599-25.063,5.062-1.09,9.46,1.641,9.529,6.785,.058,4.27-1.22,8.558-1.906,12.838-.494,1.33-.989,2.66-1.423,3.828-1.243-1.838-2.063-4.185-3.699-5.154-1.665-.987-4.512-1.447-6.178-.685-4.924,2.253-9.642,5.038-14.172,8.022-1.415,.932-1.977,3.158-2.929,4.791-.616-.514-1.232-1.027-1.849-1.541Zm137.868-85.149c-2.342-6.609-.225-12.486,4.189-17.086,3.956-4.122,8.589-8.116,13.7-10.498,11.42-5.324,23.324-9.607,35.031-14.315,6.218-3.145,12.524-6.131,18.621-9.496,3.545-1.957,6.755-4.523,11.039-7.444-1.861,5.359-3.276,10.016-5.075,14.521-10.601,26.543-30.879,40.208-58.666,43.506-.778,.092-1.558,.17-2.339,.237-5.467,.465-11.003,.36-16.497,.576h-.003Zm-141.546,135.118c-.308,.222-.617,.444-.925,.665l-.003,.003,.003-.003c.308-.222,.617-.443,.925-.665Z"/></svg>
