<svg xmlns="http://www.w3.org/2000/svg" width="1000" height="1000">
  <path d="M500.496 5C223.572 5 5 229.506 5 500.002c0 276.43 224.506 495.001 495.002 495.001 276.43 0 495.001-224.506 495.001-495.001C995.003 226.539 773.464 5 500.496 5zM127.638 609.288c-8.901-27.693 3.956-42.528 34.615-42.528h86.045c21.758 0 34.615 8.901 43.516 27.692C347.2 724.014 498.518 772.476 618.19 698.3c37.582-20.77 68.242-51.429 87.033-91.978 5.934-11.869 2.967-24.726-5.934-33.627-12.857-5.934-22.747-5.934-34.615 0-2.967 5.934-8.902 11.868-11.869 18.791-59.34 101.869-197.802 119.671-277.913 36.594-49.45-52.418-64.286-117.693-39.56-184.946 27.692-68.242 79.12-108.791 153.297-110.77 74.176-6.922 129.56 23.737 167.143 89.012 8.902 18.791 24.726 24.725 36.594 14.835 15.824-5.934 18.791-20.77 9.89-39.56-21.758-40.55-56.374-73.187-98.901-95.935-120.66-58.352-263.078-5.934-314.507 117.693-5.934 17.802-14.835 24.725-37.582 24.725h-89.012c-30.66 0-43.516-12.857-34.615-46.483 61.319-181.979 176.044-278.902 404.507-278.902 163.187 0 354.067 168.132 354.067 368.902 0 237.363-130.55 403.518-422.31 403.518-140.44 0-294.726-132.528-336.264-280.88zm65.275 12.857c34.615 110.77 170.11 233.407 349.122 212.638 175.055-24.725 298.682-173.078 289.781-349.122-8.901-166.154-148.352-304.616-317.474-310.55-139.45-6.924-305.605 103.846-321.43 212.638h27.693c15.824 2.967 25.714-2.968 30.66-18.792 24.725-49.45 65.275-83.077 111.758-110.77 138.462-81.099 320.44-24.725 391.65 120.66 11.868 27.693 11.868 57.363-9.89 86.045-17.803 27.692-45.495 36.593-80.11 30.66-30.66-5.935-46.484-27.693-61.32-52.419-27.692-49.45-92.967-71.209-148.351-49.45-52.418 21.758-86.045 80.11-74.177 135.495 12.858 49.45 52.418 86.044 101.869 95.934 49.45 5.934 98.901-18.791 126.594-65.275 21.758-42.528 71.209-58.352 110.77-36.594 40.549 21.759 52.417 71.21 30.659 113.737-55.385 107.803-180.99 170.11-301.65 145.385-90-15.824-157.253-65.275-200.77-145.385-1.978-5.934-8.9-11.868-11.868-14.835z" style="fill:#000;fill-opacity:1;fill-rule:nonzero;stroke:none;"/>
</svg>
