<svg xmlns="http://www.w3.org/2000/svg" viewBox="0 0 1000 1000"><path d="M865.752,467.147v91.93c0,182.724-115.962,302.055-287.487,325.455v112.931h-138.158v-114.362c-182.707-28.683-305.828-165.506-305.828-383.212,0-216.199,124.531-353.488,305.828-381.146V-2.537h138.158V119.085c145.555,23.738,263.86,122.164,279.963,254.627h-181.854c-18.058-66.485-95.213-106.978-165.848-106.978-104.242,0-188.922,84.634-188.922,230.555,0,148.474,91.2,238.307,196.902,238.307,83.22,0,164.389-50.89,169.405-126.176l.456-11.4h-132.241v-130.873h309.625Z"/></svg>