<svg xmlns="http://www.w3.org/2000/svg" width="1000" height="1000">
  <path d="M5 500.496c0 271.98 220.55 494.507 495.496 494.507 271.98 0 494.507-220.55 494.507-495.496C995.003 227.528 773.464 5 500.496 5 226.54 5 5 225.55 5 500.496zm124.616 213.627V277.968c22.747-11.868 45.494-22.747 62.308-34.616 98.901-58.351 298.682-170.11 312.528-180.99 43.517 22.748 349.122 200.77 371.87 215.606v436.155c-17.803 9.89-40.55 14.835-56.374 27.693-73.187 44.505-142.418 83.077-214.616 123.626-34.616 22.748-69.231 40.55-101.869 62.308-79.12-50.44-160.22-96.923-239.341-141.429-44.506-22.747-89.012-50.44-134.506-72.198zm96.923-171.1s12.857 0 18.791 5.935c0-22.747.99-45.495.99-72.198 11.868 9.89 17.802 15.824 24.725 21.758 17.802 16.813 27.692 27.693 39.56 39.56 6.924 4.946 9.89 8.902 29.67 4.946v-90.99c0-3.956-3.955-9.89-12.856-9.89-6.923 0-9.89 5.934-9.89 9.89v56.374c-31.649-21.758-55.385-53.407-90.99-72.198zm141.43 5.935c3.955 0 9.89.989 16.812-.99 11.869-22.746 21.759-21.757 44.506-21.757 11.868 0 27.693 0 34.616 11.868 4.945 10.879 10.879 10.879 27.692 4.945-16.813-34.616-34.615-62.308-50.44-94.946-6.923-11.868-21.758-11.868-28.681 0-19.78 42.528-32.638 53.407-44.506 100.88zm38.57-45.495c5.935-16.813 12.858-22.747 17.803-32.637h4.945c4.945 9.89 11.868 15.824 17.802 32.637zm96.924 356.045c9.89-5.934 15.824-5.934 22.748-9.89 89.01-51.429 180-103.846 271.978-158.242 21.759-11.868 27.693-24.725 27.693-41.539V334.342c0-27.693-8.901-23.737-74.176-68.242-4.945-4.945-16.813-10.88-32.638-16.813v334.286c0 35.605-32.637 59.341-86.044 83.078-34.615 17.802-74.176 40.55-106.813 62.307-12.858 6.924-22.748 12.858-22.748 29.67zm9.89-328.352c0 6.923 0 17.802 12.858 17.802 9.89 0 9.89-10.88 9.89-17.802V476.76c34.615 21.758 76.154 72.198 85.055 72.198 11.868-33.627 8.901-112.748 0-112.748-16.813.99-6.923 59.341-15.824 72.198-6.923-4.945-6.923-4.945-12.858-9.89-15.824-17.802-33.626-34.615-50.44-50.44-5.933-5.934-28.68-5.934-28.68 0v28.682z" style="fill:#000;fill-opacity:1;fill-rule:nonzero;stroke:none;"/>
</svg>
