<svg xmlns="http://www.w3.org/2000/svg" width="1000" height="1000">
  <path d="M995 273.703v12.136c-1.104 6.619-1.104 11.032-3.31 16.548-4.413 26.477-16.549 50.748-35.303 70.606-3.31 1.103-3.31 3.31-1.103 5.516 9.929 45.232 15.445 88.257 14.341 134.592-3.31 84.947-25.373 163.276-71.709 234.985-57.367 89.36-135.695 152.243-232.778 188.65-34.2 12.135-70.606 22.064-108.115 24.27-35.303 3.31-70.606 3.31-103.702 0-91.567-11.032-174.308-44.128-242.707-103.702-9.93-5.516-18.755-14.342-24.271-19.858-4.413-3.31-5.516-4.413-8.826-3.31-49.644 18.755-107.012 4.413-141.211-36.406-17.652-23.167-29.787-45.23-30.89-76.12-3.31-45.232 13.238-82.742 46.335-110.322 2.206-2.206 2.206-3.31 2.206-4.413-9.929-40.819-14.342-82.74-13.238-123.56 3.31-56.264 14.341-109.218 35.302-158.863 27.58-67.296 68.4-125.766 123.56-173.205C255.845 100.5 324.245 66.3 399.263 47.544c29.787-6.619 57.368-9.929 87.154-11.032h34.2c19.858 1.103 35.303 2.207 51.851 4.413 39.716 5.516 78.328 16.548 114.734 31.993 48.542 20.961 90.464 48.542 127.973 83.845 4.413 1.103 5.516 1.103 8.826 1.103 22.064-8.826 46.335-9.93 69.503-4.413 51.85 9.929 89.36 52.954 98.186 104.805 2.206 6.62 2.206 11.032 3.31 15.445zM29.685 744.776c15.445 52.954 71.71 87.154 126.87 73.915 8.826-1.103 19.858-4.412 29.787-8.825 9.929 8.825 19.858 19.858 29.787 29.787 38.612 34.2 81.638 58.47 127.973 75.018 40.819 15.445 81.638 26.477 126.87 28.684 39.715 1.103 77.224 0 115.837-6.62C651.9 924.6 710.37 899.226 762.22 859.51c75.019-52.954 127.973-123.56 158.863-210.714 20.961-59.573 28.684-116.94 24.27-180.927-3.309-29.787-8.825-61.78-16.547-90.463-2.207-4.413-2.207-8.826 2.206-9.93 38.612-28.683 54.057-79.43 36.406-123.56-22.064-63.986-93.773-92.67-154.45-61.78-1.103 1.104-2.206 1.104-4.413 0l-25.374-24.27c-43.025-34.2-90.463-59.574-143.418-76.122C586.81 64.093 531.65 57.474 475.385 59.68c-25.374 3.31-50.748 6.619-78.328 12.135-47.438 12.135-94.877 30.89-136.799 60.677-60.677 40.819-110.321 92.67-145.624 158.863-39.716 73.915-58.47 155.553-51.851 237.19 2.206 29.788 5.516 58.471 13.238 84.948 0 4.413 0 5.517-3.31 6.62-40.818 27.58-58.47 77.225-43.025 124.663zm30.89-33.096c0-39.716 34.2-73.916 72.813-73.916 41.922 0 72.812 31.993 72.812 73.916 3.31 41.922-30.89 71.709-70.606 71.709-40.819 0-75.019-29.787-75.019-71.71zm58.47-109.219C79.332 453.527 130.08 257.155 306.594 157.866c165.483-94.877 358.545-51.851 468.867 55.16-3.31 5.517-8.826 12.136-11.033 18.755-29.786 62.883 5.517 136.799 72.813 155.553 13.238 4.413 27.58 4.413 43.025 2.207 2.206-1.103 4.413 0 5.516 3.31 11.032 41.922 16.548 84.947 14.342 129.076-3.31 67.296-24.27 132.385-59.574 189.753-33.096 52.954-76.122 95.98-129.076 127.973-45.232 28.683-94.876 47.438-146.727 54.057-26.478 5.516-54.058 6.62-81.638 5.516-71.71-4.413-137.902-25.374-198.579-66.193-22.064-14.342-43.025-29.787-60.677-49.644-2.206 0-2.206 0-3.31-1.104 28.684-39.715 33.097-83.844 8.826-124.663-24.27-44.129-62.883-59.574-110.321-55.16zm205.199-80.534c4.413 52.954 31.993 95.98 75.018 125.766 2.207 1.103 2.207 3.31 2.207 6.62v73.915h47.438c2.206 0 4.413 0 4.413-4.413v-50.748c28.683 8.826 58.47 8.826 88.257 1.103v54.058h45.232c4.413 0 4.413 0 4.413-4.413v-65.09s0-3.31 1.103-3.31l24.27-17.65v30.89h65.09v-322.14h-65.09v16.549c-7.722-6.62-13.238-11.032-20.96-16.549-3.31-1.103-4.413-3.31-4.413-7.722v-56.264c0-1.103 0-3.31-3.31-3.31h-43.025c-2.207 0-3.31 0-3.31 3.31 1.103 5.516 0 11.032 0 15.445v26.477c-14.342-3.31-29.787-5.516-45.232-3.31-14.342 0-28.683 1.104-43.025 6.62v-48.542h-51.85v66.193c0 3.31 0 4.413-2.207 6.62-58.47 41.922-83.844 98.186-75.018 169.895zm68.4-22.065c-1.104-60.676 46.334-112.528 110.32-112.528 63.987-2.206 115.838 49.645 115.838 111.425 1.103 60.677-47.438 113.631-111.425 114.734-66.192 0-115.837-51.85-114.734-113.63zm398.26-220.643c0-39.715 33.096-71.709 71.709-71.709 41.922 0 73.915 31.994 73.915 71.71 0 39.715-31.993 73.915-73.915 73.915-38.613 0-71.71-34.2-71.71-73.916z" style="fill:#000;fill-opacity:1;fill-rule:nonzero;stroke:none;"/>
</svg>
