<svg width="1000" height="1000" viewBox="0 0 1000 1000" fill="none" xmlns="http://www.w3.org/2000/svg">
<path fill-rule="evenodd" clip-rule="evenodd" d="M500 995C773.381 995 995 773.381 995 500C995 226.619 773.381 5 500 5C226.619 5 5 226.619 5 500C5 773.381 226.619 995 500 995ZM201 285.731L346.731 140H415.99C397.232 150.822 335.188 228.016 319.317 285.731H201ZM486.691 140V285.731H346.731C356.591 255.671 391.75 184.441 453.505 140H486.691ZM514.828 285.731H656.23C623.333 207.238 569.898 155.872 547.293 140H514.828V285.731ZM798.355 285.731H683.645C665.609 242.445 633 182.709 586.25 140H651.18L798.355 285.731ZM315.709 714.268H201L348.174 860H413.104C366.355 817.291 333.745 757.555 315.709 714.268ZM343.124 714.268H484.527V860H452.062C429.457 844.128 376.022 792.761 343.124 714.268ZM512.663 714.268V860H545.85C607.605 815.559 642.764 744.329 652.623 714.269L512.663 714.268ZM652.623 860L798.355 714.269H680.038C664.166 771.984 602.122 849.178 583.365 860H652.623ZM289.337 656.841C304.03 664.344 320.443 668.096 338.575 668.096H473.629V619.795L414.543 620.733V618.857C420.483 614.793 426.11 608.697 431.425 600.569C437.052 592.441 441.898 582.906 445.962 571.964C450.339 561.022 453.621 549.142 455.81 536.324C458.311 523.507 459.561 510.533 459.561 497.403C459.561 472.392 456.748 449.571 451.12 428.938C445.493 407.992 437.521 390.016 427.204 375.01C416.888 360.004 404.383 348.437 389.689 340.308C374.996 331.867 358.583 327.647 340.451 327.647C322.319 327.647 305.75 331.867 290.744 340.308C276.05 348.437 263.389 360.004 252.76 375.01C242.443 390.016 234.471 408.148 228.844 429.407C223.216 450.665 220.403 474.112 220.403 499.747C220.403 526.008 223.06 549.611 228.375 570.557C234.002 591.19 241.974 608.853 252.291 623.547C262.607 637.928 274.956 649.026 289.337 656.841ZM397.661 453.322C400.475 467.703 401.882 483.178 401.882 499.747C401.882 515.378 400.631 530.384 398.13 544.765C395.629 558.833 391.722 571.338 386.407 582.28C381.405 592.91 374.996 601.507 367.18 608.072C359.677 614.324 350.924 617.451 340.92 617.451C330.916 617.451 322.006 614.481 314.19 608.541C306.687 602.288 300.279 594.004 294.964 583.687C289.649 573.058 285.585 560.553 282.772 546.172C279.958 531.791 278.551 516.316 278.551 499.747C278.551 483.178 279.802 467.703 282.303 453.322C285.116 438.942 289.18 426.593 294.495 416.276C299.81 405.647 306.219 397.362 313.721 391.423C321.537 385.17 330.447 382.044 340.451 382.044C350.142 382.044 358.74 385.17 366.243 391.423C374.058 397.362 380.623 405.647 385.938 416.276C391.253 426.593 395.16 438.942 397.661 453.322ZM768.899 573.37C774.526 551.799 777.34 527.883 777.34 501.623C777.34 475.362 774.526 451.603 768.899 430.344C763.584 409.086 755.769 390.797 745.452 375.479C735.135 360.16 722.474 348.437 707.468 340.308C692.775 331.867 676.206 327.647 657.761 327.647C639.003 327.647 622.121 331.867 607.115 340.308C592.422 348.437 579.917 360.16 569.6 375.479C559.284 390.797 551.468 409.086 546.154 430.344C540.839 451.603 538.182 475.362 538.182 501.623C538.182 527.883 540.839 551.799 546.154 573.37C551.781 594.629 559.753 612.918 570.069 628.236C580.386 643.555 592.891 655.435 607.584 663.875C622.278 672.316 639.003 676.537 657.761 676.537C676.206 676.537 692.775 672.316 707.468 663.875C722.474 655.435 735.135 643.555 745.452 628.236C755.769 612.918 763.584 594.629 768.899 573.37ZM714.971 454.26C717.785 468.954 719.192 484.741 719.192 501.623C719.192 518.505 717.941 534.449 715.44 549.455C712.939 564.148 709.031 576.966 703.717 587.908C698.715 598.849 692.306 607.447 684.49 613.699C676.987 619.952 668.077 623.078 657.761 623.078C647.444 623.078 638.378 619.952 630.562 613.699C623.059 607.447 616.65 598.849 611.336 587.908C606.334 576.966 602.582 564.148 600.081 549.455C597.58 534.449 596.33 518.505 596.33 501.623C596.33 484.741 597.58 468.954 600.081 454.26C602.582 439.254 606.334 426.437 611.336 415.807C616.65 404.865 623.059 396.268 630.562 390.016C638.378 383.763 647.444 380.637 657.761 380.637C667.765 380.637 676.518 383.763 684.021 390.016C691.837 396.268 698.246 404.865 703.248 415.807C708.562 426.437 712.47 439.254 714.971 454.26Z" fill="black"/>
</svg>
