<svg xmlns="http://www.w3.org/2000/svg" viewBox="0 0 1000 1000"><path d="M500.496 995.003c275.935 0 494.507-224.506 494.507-495.496C995.003 226.54 773.464 5 500.496 5 223.572 5 5 229.506 5 499.507c0 276.924 224.506 495.496 495.496 495.496zM103.901 502.474c0-220.55 179.012-400.55 400.551-400.55 113.737 0 217.583 48.461 290.77 126.593H606.321c-8.901 0-17.803 4.945-21.759 11.868L471.815 453.023H329.397c-13.847 0-25.715 10.88-25.715 23.737v50.44c0 13.846 11.868 25.714 25.715 25.714h90.989l-59.34 111.759c-3.957 7.912-12.858 12.857-21.76 12.857H144.452c-24.725-52.418-40.55-111.759-40.55-175.056zM212.693 777.42h187.913c9.89 0 18.791-4.945 23.736-13.846l111.759-210.66h142.418c14.835 0 25.714-11.868 25.714-26.703V476.76c0-12.857-10.879-23.737-25.714-23.737h-90l58.351-111.758c4.945-7.912 11.868-13.846 21.759-13.846h194.835c25.715 53.406 40.55 112.747 40.55 175.055 0 220.55-179.012 399.562-399.562 399.562-114.725 0-217.583-48.462-291.759-124.616z"/></svg>