<svg xmlns="http://www.w3.org/2000/svg" viewBox="0 0 1000 1000"><path d="M83.771 822.544c-126.978-75.97-92.25-253.957 45.582-323.415-9.768-9.767-19.535-16.28-29.303-26.047-117.21-72.714-122.637-214.886-16.279-293.026 45.582-35.815 94.42-68.373 137.831-98.761 16.28-9.768 26.047-9.768 40.155 0 69.459 43.411 137.831 93.334 207.29 142.172 107.443 73.8 213.8 150.855 317.988 225.74 15.194 9.767 23.876 9.767 39.07 0 97.675-52.095 140.001-155.196 43.411-220.313-34.729-24.962-62.946-48.838-97.675-68.373-14.109-13.024-23.877-13.024-40.156 0l-107.443 72.714c-24.961 14.108-37.985 3.256-73.8-23.877-6.51-2.17 10.854-10.852 16.28-16.279 57.52-39.07 111.784-75.97 170.39-116.125 10.852-9.768 20.62-9.768 30.388 0 48.837 34.729 98.76 67.287 146.513 103.102 130.234 81.396 95.505 198.607-47.753 323.414 149.77 94.42 171.475 220.313 37.985 324.5-43.411 28.217-93.334 62.946-136.745 92.25-9.768 9.767-19.536 9.767-35.815 0-107.443-79.227-213.8-153.026-328.84-230.081-61.862-45.582-124.808-88.993-191.01-137.831-18.45-9.768-22.792-14.109-43.412 0-99.846 56.435-134.575 157.366-48.838 214.886 33.644 24.962 64.032 44.497 97.676 70.544 24.961 18.45 24.961 18.45 49.923 0 49.923-37.985 116.125-83.567 126.978-83.567 14.109 8.682 34.73 23.876 48.838 33.644-24.962 24.961-138.916 105.272-185.584 136.745-9.767 9.768-19.535 5.427-30.388 0-23.876-20.62-48.837-33.644-73.799-53.179-23.876-15.194-43.411-33.643-69.458-48.837zm30.388-412.408c15.194 9.767 30.388 23.876 48.838 34.729 20.62 14.109 20.62 14.109 45.582 0 53.178-40.156 106.357-73.8 160.622-113.955 31.473-14.109 32.558-2.17 73.799 26.047-68.373 47.752-132.405 96.59-200.778 142.172 15.194 9.768 24.962 18.45 35.815 28.217 91.164 64.032 183.413 126.979 276.747 191.01 59.69 44.497 118.296 83.567 176.901 128.064 9.768 4.341 20.62 9.767 35.815 0 34.729-23.876 79.225-54.264 111.784-79.226 64.032-48.838 60.776-135.66 0-180.157-13.024-11.938-28.218-19.535-44.497-29.303-23.876-19.535-23.876-19.535-47.752 0-55.35 33.644-108.529 73.8-162.793 106.358-4.341 5.427-20.62 16.28-24.961 10.853-18.45-10.853-32.559-15.194-48.838-33.644 69.458-49.923 132.404-93.334 201.863-142.172-10.853-9.767-20.62-16.28-23.877-20.62-68.372-48.838-137.83-98.761-210.545-143.258-84.652-62.946-168.219-121.551-250.7-181.242-19.535-9.768-29.303-9.768-45.582 0-32.559 26.047-72.714 49.923-107.443 79.226-57.52 44.496-57.52 133.49 0 176.9z"/></svg>