<svg width="32" height="32" viewBox="0 0 32 32" fill="none" xmlns="http://www.w3.org/2000/svg">
<path d="M9.24525 0.0639648L2.78125 6.52797H8.02925C8.73325 3.96797 11.4852 0.543965 12.3172 0.0639648H9.24525Z" fill="black"/>
<path d="M15.4532 6.52797V0.0639648H13.9812C11.242 2.03516 9.68258 5.19463 9.24525 6.52797H15.4532Z" fill="black"/>
<path d="M16.7012 6.52797H22.9732C21.514 3.04636 19.1439 0.767965 18.1412 0.0639648H16.7012V6.52797Z" fill="black"/>
<path d="M24.1892 6.52797H29.2772L22.7492 0.0639648H19.8692C21.9428 1.95836 23.3892 4.60797 24.1892 6.52797Z" fill="black"/>
<path d="M22.8133 31.9999L29.2773 25.5359L24.0293 25.5359C23.3253 28.0959 20.5733 31.5199 19.7413 31.9999L22.8133 31.9999Z" fill="black"/>
<path d="M16.6053 25.5359L16.6053 31.9999L18.0773 31.9999C20.8165 30.0287 22.376 26.8692 22.8133 25.5359L16.6053 25.5359Z" fill="black"/>
<path d="M15.3573 25.5359L9.08535 25.5359C10.5445 29.0175 12.9147 31.2959 13.9173 31.9999L15.3573 31.9999L15.3573 25.5359Z" fill="black"/>
<path d="M7.86935 25.5359L2.78135 25.5359L9.30935 31.9999L12.1893 31.9999C10.1157 30.1055 8.66935 27.4559 7.86935 25.5359Z" fill="black"/>
<path d="M6.74603 22.1281C7.21536 22.1281 7.67403 22.0694 8.12203 21.9521C8.5807 21.8347 8.99136 21.6214 9.35403 21.3121C9.7167 21.0027 9.9887 20.6294 10.17 20.1921C10.362 19.7441 10.458 19.2907 10.458 18.8321C10.458 18.4374 10.3834 18.0587 10.234 17.6961C10.0954 17.3334 9.8927 17.0081 9.62603 16.7201C9.35936 16.4321 9.05536 16.1867 8.71403 15.9841C8.38336 15.7814 8.0367 15.6107 7.67403 15.4721C7.32203 15.3227 6.95936 15.1841 6.58603 15.0561C6.22336 14.9174 5.90336 14.6987 5.62603 14.4001C5.3487 14.1014 5.21003 13.7601 5.21003 13.3761C5.21003 13.1627 5.24736 12.9601 5.32203 12.7681C5.3967 12.5761 5.5087 12.4107 5.65803 12.2721C5.81803 12.1334 5.99936 12.0374 6.20203 11.9841C6.4047 11.9201 6.60736 11.8881 6.81003 11.8881C7.06603 11.8881 7.3167 11.9307 7.56203 12.0161C7.80736 12.1014 7.99936 12.2561 8.13803 12.4801C8.28736 12.7041 8.36736 12.9441 8.37803 13.2001H10.346C10.346 12.7521 10.2554 12.3254 10.074 11.9201C9.8927 11.5041 9.62603 11.1521 9.27403 10.8641C8.9327 10.5761 8.54336 10.3787 8.10603 10.2721C7.67936 10.1654 7.24736 10.1121 6.81003 10.1121C6.35136 10.1121 5.89803 10.1761 5.45003 10.3041C5.0127 10.4214 4.61803 10.6401 4.26603 10.9601C3.9247 11.2694 3.66336 11.6427 3.48203 12.0801C3.31136 12.5067 3.22603 12.9494 3.22603 13.4081C3.22603 13.7921 3.29536 14.1707 3.43403 14.5441C3.58336 14.9067 3.79136 15.2321 4.05803 15.5201C4.3247 15.8081 4.62336 16.0534 4.95403 16.2561C5.2847 16.4481 5.63136 16.6187 5.99403 16.7681C6.3567 16.9067 6.71936 17.0454 7.08203 17.1841C7.4447 17.3227 7.7647 17.5414 8.04203 17.8401C8.33003 18.1387 8.47403 18.4801 8.47403 18.8641C8.47403 19.1521 8.39403 19.4241 8.23403 19.6801C8.07403 19.9254 7.85536 20.1014 7.57803 20.2081C7.31136 20.3041 7.03403 20.3521 6.74603 20.3521C6.47936 20.3521 6.2127 20.3094 5.94603 20.2241C5.69003 20.1387 5.4767 19.9841 5.30603 19.7601C5.14603 19.5361 5.0607 19.2854 5.05003 19.0081H3.08203C3.08203 19.4667 3.17803 19.9094 3.37003 20.3361C3.56203 20.7521 3.83936 21.1041 4.20203 21.3921C4.5647 21.6694 4.9647 21.8614 5.40203 21.9681C5.85003 22.0747 6.29803 22.1281 6.74603 22.1281Z" fill="black"/>
<path d="M15.9168 22.1281C16.2368 22.1281 16.5514 22.1014 16.8608 22.0481C17.1808 21.9947 17.4848 21.9094 17.7728 21.7921C18.0714 21.6747 18.3434 21.5147 18.5888 21.3121C18.8341 21.0987 19.0314 20.8481 19.1808 20.5601C19.3408 20.2721 19.4368 19.9734 19.4688 19.6641C19.5114 19.3441 19.5328 19.0241 19.5328 18.7041V15.4401H15.9968V17.2161H17.5648V18.7041C17.5648 18.9281 17.5381 19.1521 17.4848 19.3761C17.4314 19.5894 17.3194 19.7707 17.1488 19.9201C16.9781 20.0694 16.7861 20.1814 16.5728 20.2561C16.3594 20.3201 16.1408 20.3521 15.9168 20.3521C15.7034 20.3521 15.4901 20.3201 15.2768 20.2561C15.0741 20.1814 14.8928 20.0641 14.7328 19.9041C14.5728 19.7441 14.4608 19.5574 14.3968 19.3441C14.3328 19.1307 14.3008 18.9174 14.3008 18.7041V13.5361C14.3008 13.3121 14.3328 13.0934 14.3968 12.8801C14.4714 12.6667 14.5888 12.4801 14.7488 12.3201C14.9088 12.1601 15.0954 12.0481 15.3088 11.9841C15.5221 11.9201 15.7408 11.8881 15.9648 11.8881C16.2208 11.8881 16.4768 11.9307 16.7328 12.0161C16.9888 12.1014 17.1968 12.2561 17.3568 12.4801C17.5168 12.6934 17.5968 12.9334 17.5968 13.2001H19.5648C19.5648 12.7521 19.4688 12.3201 19.2768 11.9041C19.0954 11.4881 18.8288 11.1414 18.4768 10.8641C18.1248 10.5761 17.7301 10.3787 17.2928 10.2721C16.8554 10.1654 16.4128 10.1121 15.9648 10.1121C15.6448 10.1121 15.3301 10.1387 15.0208 10.1921C14.7114 10.2347 14.4074 10.3254 14.1088 10.4641C13.8208 10.5921 13.5594 10.7627 13.3248 10.9761C13.0901 11.1894 12.8928 11.4347 12.7328 11.7121C12.5834 11.9894 12.4768 12.2827 12.4128 12.5921C12.3594 12.9014 12.3328 13.2161 12.3328 13.5361V18.7041C12.3328 19.0774 12.3754 19.4507 12.4608 19.8241C12.5568 20.1867 12.7168 20.5227 12.9408 20.8321C13.1648 21.1307 13.4368 21.3814 13.7568 21.5841C14.0874 21.7867 14.4341 21.9254 14.7968 22.0001C15.1701 22.0854 15.5434 22.1281 15.9168 22.1281Z" fill="black"/>
<path d="M25.2155 22.1281C25.5889 22.1281 25.9569 22.0907 26.3195 22.0161C26.6929 21.9414 27.0395 21.8027 27.3595 21.6001C27.6795 21.3974 27.9462 21.1414 28.1595 20.8321C28.3835 20.5227 28.5382 20.1867 28.6235 19.8241C28.7089 19.4507 28.7515 19.0774 28.7515 18.7041V10.2401H26.7835V18.7041C26.7835 18.9174 26.7515 19.1307 26.6875 19.3441C26.6342 19.5467 26.5329 19.7334 26.3835 19.9041C26.2342 20.0641 26.0529 20.1814 25.8395 20.2561C25.6369 20.3201 25.4289 20.3521 25.2155 20.3521C25.0022 20.3521 24.7889 20.3201 24.5755 20.2561C24.3729 20.1814 24.1969 20.0641 24.0475 19.9041C23.8982 19.7334 23.7915 19.5467 23.7275 19.3441C23.6742 19.1307 23.6475 18.9174 23.6475 18.7041V10.2401H21.6795V18.7041C21.6795 19.0774 21.7222 19.4507 21.8075 19.8241C21.8929 20.1867 22.0422 20.5227 22.2555 20.8321C22.4795 21.1414 22.7515 21.3974 23.0715 21.6001C23.3915 21.8027 23.7329 21.9414 24.0955 22.0161C24.4689 22.0907 24.8422 22.1281 25.2155 22.1281Z" fill="black"/>
</svg>
