<svg xmlns="http://www.w3.org/2000/svg" width="1000" height="1000">
  <path d="M500.496 995.003c275.935 0 494.507-224.506 494.507-495.496C995.003 226.54 773.464 5 500.496 5 223.572 5 5 229.506 5 499.507c0 276.924 224.506 495.496 495.496 495.496zm-372.858-351.1V359.067c11.868-.989 22.747-2.967 35.604-2.967 1.978-26.703 1.978-51.429 1.978-77.143 12.857-.99 23.737-.99 37.583-1.978.989-12.857 1.978-23.736 2.967-36.594 12.857 0 23.736-.989 35.604-1.978.99-12.857 1.978-24.725 4.945-35.604 10.88-.99 22.748-2.967 33.627-4.945 1.978-11.868 1.978-22.748 2.967-36.594 25.714 0 50.44 0 74.176-.989 1.978-14.835 2.967-24.725 3.956-36.593h287.803c.99 11.868 1.978 22.747 3.956 37.582h75.165c.99 13.846.99 25.715 2.967 38.572 11.869 0 22.748 1.978 36.594 2.967 0 11.868.989 22.747 2.967 35.604 11.868.99 22.747 1.978 33.627 2.967.989 13.847 2.967 24.726 3.956 35.605 12.857.989 23.736.989 38.571 1.978V356.1c15.824 0 27.693 1.978 39.56 1.978v286.814c-11.867 2.967-23.736 2.967-37.582 2.967-4.945 25.715 1.978 53.407-2.967 78.132H808.08c-.99 13.847-2.967 25.715-3.956 36.594-6.924 0-12.858 1.978-17.803 1.978s-11.868.989-15.824.989c-1.978 7.912-1.978 12.857-1.978 18.791 0 4.945-.989 9.89-.989 18.792-13.846.989-24.725.989-36.594 2.967-1.978 12.857-1.978 22.747-2.967 36.593h-75.165c-1.978 14.835-1.978 26.703-2.967 39.56h-289.78c-.99-12.857-.99-24.725-2.968-39.56h-74.176c-.989-14.835-.989-25.714-2.967-36.593-11.868-1.978-25.714-2.967-36.594-2.967-.989-14.836-.989-25.715-1.978-37.583-12.857-.989-23.736-2.967-36.593-2.967 0-6.923 0-11.868-.99-17.802 0-4.945 0-10.88-.988-18.792-13.846-.989-25.715-.989-39.56-1.978v-75.165c-13.847-.989-25.715-3.956-35.605-4.945zm89.011-62.308h25.714V475.771H216.65c-1.978 35.604-1.978 70.22 0 105.824zm25.714 25.715h81.1v-24.726h-81.1zm0-131.54c34.616.99 71.21.99 106.814 0v-26.703c-37.583-.989-72.198-.989-106.814 0zm27.693 65.276c16.813 0 34.615.989 53.407 3.956v36.593h25.714v-67.253h-79.121zm53.407 41.538v-.989zm55.384 24.726h24.726v-62.308c23.736-2.967 44.505-3.956 67.253 0v62.308h25.714V449.067h-26.703v62.308h-68.242v-62.308h-22.748c-3.956 21.759-3.956 144.396 0 158.243zm146.375-94.946c7.912 3.956 15.824 4.945 22.747 6.923.989 7.913 1.978 14.836 2.967 21.759 22.747.989 44.506.989 66.264.989 0 16.813 1.978 27.692 1.978 40.55-29.67-.99-61.319-.99-92.967-.99v28.682h50.44c.988 8.9.988 16.813 1.977 23.736h24.726c3.956-10.88-3.956-25.714 12.857-26.703.989 0 2.967-5.934 2.967-7.912v-17.803h24.725v-40.55c-7.912-.988-14.835-1.977-21.758-2.966-1.978-7.912-2.967-14.836-4.945-25.715h-66.264c0-13.846-.99-25.714-.99-36.593h-24.724zm24.725-36.593c30.66.989 63.297.989 93.956 0v-26.704c-12.857-.989-24.725-.989-36.593-1.978-.99-11.868-3.956-17.802-4.945-25.714h-23.737c-.989 9.89-1.978 16.813-3.956 25.714-8.9.99-14.835 1.978-24.725 2.967zm123.627.989h53.406v130.55h26.704V475.77h51.429v-26.703h-131.54z" style="fill:#000;fill-opacity:1;fill-rule:nonzero;stroke:none;"/>
</svg>
