<?xml version="1.0" encoding="utf-8"?>
<!-- Generator: Adobe Illustrator 26.0.1, SVG Export Plug-In . SVG Version: 6.00 Build 0)  -->
<svg version="1.1" id="Layer_1" xmlns="http://www.w3.org/2000/svg" xmlns:xlink="http://www.w3.org/1999/xlink" x="0px" y="0px"
	 viewBox="0 0 1000 1000" style="enable-background:new 0 0 1000 1000;" xml:space="preserve">
<path d="M516.2,586.4c-5.1,1.6-10.4,2.5-15.8,2.5h-32.6V409.3h32.6c5.4,0,10.6,0.8,15.8,2.5c5.1,1.6,9.5,4.4,13.1,8.4
	c3.6,4,6.2,8.6,7.7,13.8c1.5,5.3,2.3,10.6,2.3,15.9v98.4c0,5.4-0.8,10.6-2.3,15.8c-1.5,5.1-4.1,9.7-7.7,13.8
	C525.7,581.9,521.3,584.8,516.2,586.4z M300.6,425.7c-2.6,21.2-8.5,49-17.9,83.3l-7,25.9h49.7l-7-25.9
	C309.1,474.7,303.1,447,300.6,425.7z M731,415.7c-3.6-3.4-7.8-5.8-12.6-7.2c-4.8-1.4-9.6-2.1-14.5-2.1s-9.7,0.7-14.5,2.1
	c-4.8,1.4-9,3.8-12.6,7.2c-3.6,3.4-6.2,7.5-7.7,12.3c-1.5,4.8-2.3,9.6-2.3,14.5v113.1c0,4.9,0.8,9.7,2.3,14.4
	c1.5,4.7,4.1,8.8,7.7,12.3c3.6,3.5,7.8,6,12.6,7.4c4.8,1.4,9.6,2.1,14.5,2.1s9.7-0.7,14.5-2.1c4.8-1.4,9-3.9,12.6-7.4
	c3.6-3.5,6.2-7.6,7.7-12.3c1.5-4.7,2.3-9.5,2.3-14.4V442.5c0-4.9-0.8-9.7-2.3-14.5C737.1,423.2,734.6,419.1,731,415.7z M995.3,500
	c0,273.4-221.6,495-495,495S5.3,773.4,5.3,500S226.9,5,500.3,5S995.3,226.6,995.3,500z M586.2,142.6
	c46.4,42.4,78.8,101.7,96.7,144.7h113.9L650.7,142.6H586.2z M781,417.7c-2-8.2-5.5-15.6-10.7-22.2c-5.1-6.7-11.3-12.1-18.6-16.5
	c-7.2-4.3-14.9-7.3-23.1-8.9c-8.2-1.6-16.5-2.5-24.9-2.5s-16.7,0.8-24.9,2.5c-8.2,1.6-15.9,4.6-23.1,8.9
	c-7.2,4.3-13.4,9.8-18.6,16.5c-5.1,6.7-8.7,14.1-10.7,22.2c-2,8.2-3,16.5-3,24.9v113.1c0,8.4,1,16.7,3,24.9
	c2,8.2,5.5,15.6,10.7,22.2c5.1,6.7,11.3,12.1,18.6,16.5c7.2,4.3,14.9,7.3,23.1,8.9c8.2,1.6,16.5,2.5,24.9,2.5s16.7-0.8,24.9-2.5
	c8.2-1.6,15.9-4.6,23.1-8.9c7.2-4.3,13.4-9.8,18.6-16.5c5.1-6.7,8.7-14.1,10.7-22.2c2-8.2,3-16.5,3-24.9V442.5
	C784,434.1,783,425.8,781,417.7z M515.4,287.3h140.4c-32.7-77.9-85.8-128.9-108.2-144.7h-32.2V287.3z M348.5,287.3h138.9V142.6
	h-32.9C393.2,186.7,358.3,257.4,348.5,287.3z M325.4,370.4h-49.7l-69.3,257.3h44.5l14.4-53.9h70.7l14.4,53.9h44.5L325.4,370.4z
	 M203.8,287.3h117.4c15.8-57.3,77.4-133.9,96-144.7h-68.8L203.8,287.3z M414.4,857.4C368,815,335.6,755.7,317.7,712.7H203.8
	l146.1,144.7H414.4z M485.3,712.7H344.9c32.7,77.9,85.7,128.9,108.2,144.7h32.2V712.7z M500.5,627.7c7.2,0,14.4-0.6,21.5-1.8
	c7.1-1.2,13.9-3.3,20.5-6.5c6.5-3.2,12.5-7.2,17.9-12.1c5.4-4.9,9.7-10.6,13.1-17.2c3.4-6.5,5.7-13.4,7-20.5
	c1.3-7.1,1.9-14.3,1.9-21.5v-98.4c0-7.2-0.6-14.4-1.9-21.5c-1.3-7.1-3.6-13.9-7-20.5c-3.4-6.5-7.8-12.3-13.1-17.2
	c-5.4-4.9-11.3-8.9-17.9-12.1c-6.5-3.2-13.4-5.3-20.5-6.5c-7.1-1.2-14.3-1.8-21.5-1.8h-75.6v257.3H500.5z M652.1,712.7H513.2v144.7
	h32.9C607.4,813.3,642.3,742.6,652.1,712.7z M796.9,712.7H679.4c-15.8,57.3-77.4,133.9-96,144.7h68.8L796.9,712.7z"/>
</svg>
