<svg xmlns="http://www.w3.org/2000/svg" width="1000" height="1000">
  <path d="M160.499 99.776h811.866c28.547 19.412 29.689 35.398 5.71 60.519L858.179 284.758c-10.277 11.42-20.554 13.703-34.256 13.703H46.313c-14.845 0-28.547-3.426-34.257-20.554-5.709-17.128 1.142-27.405 12.56-38.823l122.18-129.031c2.284-3.426 6.852-4.568 13.703-10.277zM12.056 449.187c-15.986-12.56-2.283-39.965 15.986-45.675 10.277-3.425 18.27-1.141 25.121-1.141h766.192c15.987 0 29.689 3.425 42.25 15.986L978.074 531.4c6.851 6.852 7.993 10.277 10.277 18.27 6.85 22.838 0 42.25-21.696 43.391H179.911c-15.987 0-27.405-1.142-41.108-14.844L25.76 466.315c-5.71-5.71-7.993-12.56-13.703-17.128zm5.71 397.37c45.674-43.391 84.498-89.066 131.314-135.883 4.568-4.567 19.412-6.85 30.83-6.85h783.32c14.845 2.283 22.838 6.85 27.405 21.695 3.426 11.418 5.71 21.695-6.85 34.256l-46.817 46.816c-26.263 26.263-50.242 46.817-75.364 73.08-13.702 14.844-26.262 20.553-42.249 20.553L53.163 896.8c-4.567 0-10.276 3.425-14.844 0-21.695-17.128-38.823-33.115-20.553-50.243z" style="fill:#000;fill-opacity:1;fill-rule:nonzero;stroke:none;"/>
</svg>
