<svg xmlns="http://www.w3.org/2000/svg" viewBox="0 0 1000 1000"><path d="M500.496 5C223.572 5 5 229.506 5 500.002c0 276.43 224.506 495.001 495.002 495.001 276.43 0 495.001-224.506 495.001-495.001C995.003 226.539 773.464 5 500.496 5zM166.21 699.288c-20.769-29.67-11.868-66.264 11.869-81.1 10.879-8.9 13.846-17.801 13.846-30.659-.99-60.33-.99-121.648 0-180.99 0-13.845-2.967-22.747-13.846-31.648-20.77-13.846-34.616-48.461-9.89-83.077 17.802-25.714 54.395-30.66 80.11-8.901 10.879 7.912 17.802 6.923 26.703 0 71.209-41.539 142.418-81.1 211.649-122.638 13.846-5.934 24.725-5.934 35.604 0 37.583 21.759 77.144 42.528 113.737 65.275 34.616 19.78 69.231 38.572 102.858 60.33 9.89 4.945 14.835 3.956 23.736-2.967 22.747-16.813 53.407-13.846 72.198 3.956 26.703 22.747 26.703 66.264-.989 90-11.868 8.901-15.824 17.803-15.824 31.649v181.978c0 11.869 3.956 18.792 13.846 26.704 26.703 15.824 29.67 62.308 8.901 83.077-18.791 25.714-52.418 31.648-80.11 10.88-7.912-6.924-12.857-6.924-21.758-.99-71.21 41.539-144.396 81.1-215.606 122.638-10.879 6.923-22.747 8.901-36.593.989-70.22-41.539-141.43-81.1-211.65-122.638-11.867-6.923-18.79-6.923-27.692.99-24.725 20.769-62.307 14.834-81.099-12.858zm67.253-115.715c0 13.847 4.945 25.715 18.792 37.583 15.824 10.88 23.736 29.67 19.78 50.44-1.978 12.857 2.967 19.78 14.835 24.725 55.385 30.66 109.78 65.275 164.176 95.934 12.858 7.912 27.693 14.836 44.506 23.737V646.87c0-8.9-4.945-23.736 8.901-23.736 12.857 0 11.868 14.835 11.868 25.714v142.418c0 6.923 0 13.847.99 22.748 7.912-3.956 14.835-6.923 19.78-7.912 63.297-37.583 125.605-73.187 187.912-109.781 10.88-5.934 13.847-10.88 11.869-22.747-1.978-22.748 2.967-41.539 21.758-55.385 9.89-8.901 12.857-17.802 12.857-28.682V392.694c-1.978-6.924-6.923-11.869-15.824-6.924-2.967.99-7.912 1.979-11.868 5.935-54.396 30.659-110.77 62.307-165.166 95.934-4.945 3.956-10.879 11.868-13.846 18.791-6.923 10.88-6.923 22.748-20.77 35.605-34.615 30.66-85.054 13.846-96.923-31.649-2.967-8.9-3.956-18.791-15.824-23.736-32.637-18.791-64.286-36.594-96.923-54.396-24.726-15.824-50.44-30.66-78.132-45.494-11.869-6.924-20.77-2.968-20.77 11.868-1.978 3.956 0 7.912 0 9.89 0 59.34 0 117.693-1.978 175.055zm53.407-285.825c-20.77 10.88-20.77 39.56 1.978 52.418 53.407 30.66 107.803 63.297 160.22 94.945 7.913 4.945 15.825 5.934 24.726.99 19.78-11.869 42.527-12.858 61.319 0 6.923 4.944 12.857 4.944 22.747 0 53.407-31.65 109.78-65.276 166.154-95.935 19.78-11.868 19.78-41.539 0-52.418-2.967-1.978-4.945-3.956-7.912-5.934-59.34-34.615-119.67-69.23-179.011-101.868-4.945-2.967-11.868-4.945-20.77-10.88v171.1c0 8.901 0 20.77-10.879 21.758-12.857 0-9.89-12.857-9.89-20.769V178.077c-5.934 3.957-10.88 4.946-14.835 6.924-64.286 37.582-130.55 74.176-193.847 112.747z"/></svg>