<svg xmlns="http://www.w3.org/2000/svg" viewBox="0 0 1000 1000"><path d="M498.169 947.002c-69.924-3.68-136.168 4.906-203.64-3.68-29.44-4.908-72.377-24.536-87.098-51.524-67.47-109.18-133.714-218.36-190.144-336.126-15.948-26.989-15.948-79.739-2.454-107.954 56.43-117.767 125.128-231.853 192.598-338.58 14.721-28.215 61.337-52.75 92.006-52.75 130.034 0 258.842-3.68 392.557-3.68 42.935 0 76.057 23.308 95.685 61.337 56.43 110.407 123.901 212.226 185.238 316.5 29.442 50.295 29.442 94.458 0 137.394-65.017 105.5-125.127 214.68-185.238 318.952-23.308 40.483-52.75 60.11-99.366 60.11-65.017-3.68-126.354 0-190.144 0z"/></svg>