<svg xmlns="http://www.w3.org/2000/svg" viewBox="0 0 1000 1000"><path d="M500.496 5C223.572 5 5 229.506 5 500.002c0 276.43 224.506 495.001 495.002 495.001 276.43 0 495.001-224.506 495.001-495.001C995.003 226.539 773.464 5 500.496 5zM132.583 742.805v-10.88c10.879-21.758 26.703-39.56 37.582-62.307 17.803-32.638 39.561-48.462 77.144-44.506h360.99c18.791 0 36.593-3.956 55.385-3.956h13.846v15.824c-9.89 17.802-21.759 36.594-36.594 55.385-21.758 32.637-54.396 50.44-90.99 50.44zm89.011-172.089c18.791-32.637 37.583-66.264 59.341-96.923C290.825 455 313.572 455 332.364 455H686.43c24.725 0 46.484-2.967 73.187-2.967 13.846-3.956 13.846 2.967 10.88 14.836-15.825 22.747-25.715 44.505-40.55 66.264-18.792 26.703-43.517 40.55-77.144 40.55H290.825c-18.791 0-31.648 0-47.473 3.955H225.55c0-3.956-3.956-3.956-3.956-6.923zm88.022-169.121c33.627-70.22 67.253-119.671 154.287-119.671h244.286c46.484 0 98.902-2.967 148.352-18.791H869.4V275c-12.858 25.714-28.682 48.462-43.517 74.176-22.747 37.583-52.418 55.385-95.935 55.385h-371.87c-14.835 0-29.67 0-44.506 3.956-3.956-3.956-3.956-6.923-3.956-6.923z"/></svg>