<svg xmlns="http://www.w3.org/2000/svg" width="1000" height="1000">
  <path d="M5 500.496c0 271.98 220.55 494.507 495.496 494.507 271.98 0 494.507-220.55 494.507-495.496C995.003 227.528 773.464 5 500.496 5 226.54 5 5 225.55 5 500.496zM164.231 657.75V312.583c25.715 11.869 48.462 21.759 69.231 32.638 42.528 21.758 58.352 29.67 85.056 46.484 21.758 12.857 21.758 22.747 21.758 37.582V546.98c0 8.9-5.934 14.835-12.857 19.78-50.44 32.638-103.847 58.352-163.188 90.99zm15.825 30.66c58.351-30.66 111.758-63.297 164.176-89.011 5.934-4.946 15.824-4.946 21.758 0 39.56 21.758 73.187 37.582 105.825 64.285 12.857 8.902 14.835 9.89 14.835 21.759v180C387.749 807.091 285.88 747.75 180.056 688.41zM185 279.946c33.627-21.758 299.67-175.056 301.65-175.056v175.056c0 15.824-1.978 25.714-14.835 32.637-35.605 19.78-66.264 37.583-99.89 54.396-5.935 1.978-15.825 9.89-27.693 1.978-52.418-23.736-105.825-56.374-159.231-89.011zm186.923 270.99V429.287c35.605 19.78 78.132 43.517 114.726 64.286v131.539c-39.56-18.791-72.198-40.55-110.77-63.297 0 0-3.956-3.956-3.956-10.88zm15.825-152.308c35.604-21.759 74.176-44.506 106.813-60.33 4.945-3.956 14.835-5.934 21.758-3.956 30.66 19.78 68.242 42.527 104.836 64.286-36.594 18.79-74.176 41.538-104.836 63.297-6.923 5.934-13.846 6.923-21.758 0-32.637-21.759-71.209-44.506-106.813-63.297zm132.527 466.814V688.41c0-14.835 4.946-24.725 15.825-30.66 37.582-18.79 70.22-36.593 100.88-58.351 9.89-4.946 21.757-4.946 31.648 0 48.461 25.714 100.88 58.351 159.23 89.01-104.835 59.342-199.78 118.683-307.583 177.034zm0-240.33V498.518c80.11-49.45 79.122-49.45 116.704-69.23v121.648c0 6.923-4.945 10.879-8.901 15.824-32.637 21.758-64.286 39.56-107.803 58.352zm0-345.166V104.89c15.825 4.945 6.924 0 32.638 15.825 90.99 55.384 180 101.868 270.99 156.264-64.286 46.484-82.088 54.396-155.275 91.978-9.89 7.912-14.836 7.912-24.726 0-37.582-18.791-70.22-40.55-101.868-56.374-16.813-9.89-21.759-16.813-21.759-32.637zm148.353 261.1V425.33c0-7.912 5.934-16.813 10.879-23.736 53.407-32.638 107.802-63.297 159.231-93.957V657.75c-76.154-49.45-76.154-47.472-153.297-84.066-10.88-11.868-16.813-15.824-16.813-32.637z" style="fill:#000;fill-opacity:1;fill-rule:nonzero;stroke:none;"/>
</svg>
