<svg xmlns="http://www.w3.org/2000/svg" width="1000" height="1000">
  <path d="M500.496 5C223.572 5 5 229.506 5 500.002c0 276.43 224.506 495.001 495.002 495.001 276.43 0 495.001-224.506 495.001-495.001C995.003 226.539 773.464 5 500.496 5zM105.88 599.398c86.045-147.364 174.067-295.716 258.133-443.079 2.967-1.978 4.945-3.956 12.857-11.868v661.65c-12.857-3.955-18.79-8.9-26.703-10.879-78.132-53.406-154.286-108.791-235.385-161.209-13.847-9.89-17.803-18.791-8.902-34.615zm281.87 195.824c52.417-48.461 105.824-96.923 158.242-145.385 18.791-18.791 34.615-34.615 54.396-50.44 10.879-8.9 13.846-18.79 3.956-32.637-17.803-34.615-34.616-67.253-55.385-104.835H907.97c2.967.989 2.967 3.956 4.945 3.956-174.066 112.747-348.133 223.517-521.21 336.265-.99-1.979-.99-4.946-3.956-6.924z" style="fill:#000;fill-opacity:1;fill-rule:nonzero;stroke:none;"/>
</svg>
