<?xml version="1.0" encoding="utf-8"?>
<!-- Generator: Adobe Illustrator 26.0.1, SVG Export Plug-In . SVG Version: 6.00 Build 0)  -->
<svg version="1.1" id="Layer_1" xmlns="http://www.w3.org/2000/svg" xmlns:xlink="http://www.w3.org/1999/xlink" x="0px" y="0px"
	 viewBox="0 0 1000 1000" style="enable-background:new 0 0 1000 1000;" xml:space="preserve">
<path d="M500.3,5C226.9,5,5.3,226.6,5.3,500s221.6,495,495,495s495-221.6,495-495S773.7,5,500.3,5z M650.7,142.6l146.1,144.7H682.9
	c-17.9-43-50.3-102.3-96.7-144.7H650.7z M789.5,627.7h-46.6l-58.5-97h-16.8v97h-43.1V370.4h82.6c7.5,0,14.9,0.6,22.4,1.9
	c7.5,1.3,14.6,3.7,21.4,7.2c6.8,3.5,12.6,8.2,17.5,14c4.9,5.8,8.4,12.4,10.5,19.6c2.1,7.2,3.2,14.6,3.2,22.1V466
	c0,7.5-1,14.8-3,22.1c-2,7.2-5.5,13.8-10.5,19.6c-5,5.8-10.9,10.4-17.7,13.8c-6.8,3.4-13.8,5.9-21,7.5L789.5,627.7z M515.4,142.6
	h32.2c22.4,15.8,75.5,66.8,108.2,144.7H515.4V142.6z M454.5,142.6h32.9v144.7H348.5C358.3,257.4,393.2,186.7,454.5,142.6z
	 M353,471.9v38.9h-76.7v78.1h99.8v38.9H232.9V370.4h143.2v38.9h-99.8v62.7H353z M348.4,142.6h68.8c-18.6,10.8-80.2,87.4-96,144.7
	H203.8L348.4,142.6z M349.9,857.4L203.8,712.7h113.9c17.9,43,50.3,102.3,96.7,144.7H349.9z M485.3,857.4h-32.2
	c-22.5-15.8-75.5-66.8-108.2-144.7h140.4V857.4z M466,515.7v112H423V370.4H466v106.1h68.6V370.4h43.1v257.3h-43.1v-112H466z
	 M546.1,857.4h-32.9V712.7h138.9C642.3,742.6,607.4,813.3,546.1,857.4z M652.2,857.4h-68.8c18.6-10.8,80.2-87.4,96-144.7h117.5
	L652.2,857.4z M736.6,424.1c1.6,3.6,2.5,7.3,2.5,11V466c0,3.7-0.8,7.4-2.5,11c-1.6,3.6-4,6.6-7.2,8.9c-3.2,2.3-6.7,3.9-10.5,4.7
	c-3.9,0.8-7.8,1.2-11.7,1.2h-39.6v-82.6h39.6c4,0,7.9,0.4,11.7,1.2c3.9,0.8,7.4,2.4,10.5,4.7C732.6,417.5,735,420.5,736.6,424.1z"/>
</svg>
