<svg xmlns="http://www.w3.org/2000/svg" width="1000" height="1000">
  <path d="M500.496 5C223.572 5 5 229.506 5 500.002c0 276.43 224.506 495.001 495.002 495.001 276.43 0 495.001-224.506 495.001-495.001C995.003 226.539 773.464 5 500.496 5zM194.891 725.991v-21.758c5.934-31.648 22.747-59.34 46.483-82.088 25.715-21.758 47.473-47.473 72.198-72.198 25.715-24.725 21.759-24.725 44.506 0 31.649 28.681 31.649 21.758 0 50.44-24.725 28.681-56.374 56.373-85.055 87.033-14.835 16.813-12.857 41.538 2.967 57.363 12.857 16.813 35.604 18.791 54.396 5.934 4.945-5.934 12.857-10.88 17.802-14.835 31.648-35.605 67.253-66.264 97.912-100.88 12.858-12.857 14.836-12.857 0-28.681-70.22-66.264-134.506-134.506-204.726-200.77-21.758-25.715-40.55-50.44-46.483-85.055v-22.748c5.934-23.736 11.868-45.494 31.648-65.275 18.791-18.791 42.528-28.681 68.242-34.615h22.748c34.615 5.934 58.351 25.714 85.055 50.44 27.692 31.648 62.308 63.296 93.956 94.945 8.901 8.901 15.824 11.868 25.714 0 23.737-25.715 49.451-50.44 75.166-76.154 27.692-27.693 55.384-63.297 102.857-69.231h22.747c23.737 5.934 49.451 15.824 68.242 37.582 18.792 18.792 25.715 40.55 31.649 62.308v22.748c-5.934 34.615-24.726 62.307-50.44 85.055-30.66 31.648-62.308 62.308-93.956 93.956-12.857 9.89-8.901 15.824 0 25.715 31.648 34.615 63.297 66.263 97.912 96.923 21.758 22.747 40.55 50.44 46.484 82.088v21.758c-5.934 24.726-12.857 46.484-31.649 66.264-18.79 18.792-44.505 28.682-68.242 34.616h-22.747c-34.615-5.934-62.308-25.715-84.066-50.44-31.649-31.648-63.297-63.297-93.957-94.945-9.89-8.901-16.813-8.901-25.714 0-31.648 31.648-66.264 63.297-97.912 97.912-22.748 21.758-46.484 41.539-81.1 47.473h-22.747c-27.692-5.934-49.45-15.824-71.209-34.616-16.813-19.78-22.747-41.538-28.681-66.264zm65.275-414.397c2.967 8.902 6.923 21.759 12.857 27.693 40.55 38.571 79.121 76.154 116.704 115.714 5.934 7.913 12.857 7.913 17.802 0 16.813-14.835 29.67-26.703 42.527-39.56 8.902-6.923 8.902-13.846 0-22.747-12.857-12.858-29.67-27.693-42.527-40.55-24.726-25.714-46.484-47.473-72.198-72.198-12.857-12.857-30.66-16.813-46.484-9.89-19.78 9.89-25.714 22.747-28.681 41.538zm194.836 190.88c-4.946 6.923-4.946 9.89 3.956 19.78 14.835 15.825 24.725 25.715 40.55 39.561 7.911 7.912 11.867 7.912 18.79 0 8.902-8.901 18.792-13.846 27.693-23.736 6.923-6.923 12.857-6.923 19.78 0 8.901 9.89 18.791 18.791 27.693 27.692 6.923 5.934 6.923 12.857 0 18.791-8.902 6.923-15.825 15.825-25.715 24.726-8.901 9.89-8.901 15.824 0 22.747 38.572 37.583 76.154 75.165 113.737 112.748 5.934 5.934 16.813 16.813 28.681 16.813 14.835-3.956 25.715-10.88 36.594-25.714 9.89-12.858 9.89-28.682 0-41.54-4.945-8.9-10.88-15.823-17.803-21.757-63.296-66.264-128.571-128.572-191.868-191.87-14.836-15.823-14.836-15.823 0-30.659 8.9-6.923 15.824-12.857 21.758-21.758 8.901-6.923 12.857-6.923 21.758 0 6.923 8.901 16.814 17.802 25.715 26.703 5.934 7.913 12.857 7.913 22.747 0 36.594-39.56 75.165-75.165 112.748-115.714 14.835-14.835 14.835-44.506 0-59.341-16.814-16.813-44.506-16.813-60.33 0-75.165 75.165-150.33 151.32-226.484 222.528z" style="fill:#000;fill-opacity:1;fill-rule:nonzero;stroke:none;"/>
</svg>
