<?xml version="1.0" encoding="utf-8"?>
<!-- Generator: Adobe Illustrator 26.0.1, SVG Export Plug-In . SVG Version: 6.00 Build 0)  -->
<svg version="1.1" id="Layer_1" xmlns="http://www.w3.org/2000/svg" xmlns:xlink="http://www.w3.org/1999/xlink" x="0px" y="0px"
	 viewBox="0 0 1000 1000" style="enable-background:new 0 0 1000 1000;" xml:space="preserve">
<g>
	<path d="M963,161.2c18.8,0,34.2-15.4,34.2-34.2v-0.2c0-18.8-15.4-34.2-34.2-34.2H36.9C18,92.6,2.6,108,2.6,126.8v0.2
		c0,18.8,15.4,34.2,34.2,34.2h428.7v715.1c0,17.2,14,31.1,31.1,31.1h6.8c17.2,0,31.1-14,31.1-31.1V161.2H963z"/>
	<path d="M360.7,229.9H34.3C15.5,229.9,0,245.3,0,264.2l0,0c0,18.8,15.4,34.3,34.3,34.3h287.9v233.2H69.8
		c-17.9,0-32.6,14.7-32.6,32.6v3.3c0,17.9,14.7,32.6,32.6,32.6h252.5v237.9H36.2c-18.8,0-34.2,15.4-34.2,34.2v0.2
		c0,18.8,15.4,34.2,34.2,34.2h324.6c13.1,0,24.5-7.5,30.3-18.4c3.6-5.7,5.7-12.5,5.7-19.8V268c0-7.7-2.4-15-6.5-20.9
		C384.3,236.8,373.2,229.9,360.7,229.9z"/>
	<path d="M965.7,298.4c18.8,0,34.3-15.4,34.3-34.3l0,0c0-18.8-15.4-34.3-34.3-34.3H639.3c-12.6,0-23.7,6.9-29.6,17.2
		c-4,6-6.5,13.2-6.5,20.9v600.5c0,7.2,2.1,14,5.7,19.8c5.7,10.9,17.2,18.4,30.3,18.4h324.6c18.8,0,34.2-15.4,34.2-34.2v-0.2
		c0-18.8-15.4-34.2-34.2-34.2h-286V600.1h252.5c17.9,0,32.6-14.7,32.6-32.6v-3.3c0-17.9-14.7-32.6-32.6-32.6H677.8V298.4H965.7z"/>
</g>
</svg>
