<svg xmlns="http://www.w3.org/2000/svg" viewBox="0 0 1000 1000"><path d="M500.3,5C226.9,5,5.3,226.6,5.3,500s221.6,495,495,495,495-221.6,495-495S773.7,5,500.3,5ZM653.867,308.822c-46.642,47.292-105.821,69.185-169.088,82.1-20.782,4.244-41.952,6.582-64.58,10.042,37.737,11.3,74.057,21.067,109.615,33.1,43.367,14.67,86.062,31.074,121.014,62.6,47.478,42.822,55.26,123.637-4.423,172.917-49.519,40.887-106.344,63.259-168.969,71.831C413.213,750.2,353.467,768.7,304.651,813.87c-1.044.967-2.489,1.5-4.913,2.916-1.08-2.871-2.883-5.375-2.811-7.824.928-31.365.247-62.938,3.806-94.018,3.227-28.184,23.755-46.432,46.262-61.308,41.888-27.686,89.488-40.064,138.022-48.9,24.889-4.529,50.243-6.494,75.374-9.712a12.388,12.388,0,0,0,7.79-3.917c-19.225-2.686-38.563-4.738-57.652-8.18-50.5-9.1-98.031-25.739-138.195-59.029-34.623-28.7-58.461-64.656-62.9-109.975-3.542-36.185,12.9-65.621,40.428-88.752,42.047-35.334,92.649-50.938,144.918-62.6,61.566-13.736,123.09-27.693,178.86-58.907,9.769-5.467,18.5-12.785,29.432-20.453C700.669,231.88,687.735,274.483,653.867,308.822Zm-8.558,149.655-95.381-52.268c45.52-19.6,90.116-45.07,127.205-82.652C692.129,361.375,673.205,429.062,645.309,458.477Z"/></svg>