<svg xmlns="http://www.w3.org/2000/svg" width="1000" height="1000">
  <path d="M10.219 5c3.913 7.826 194.347 659.998 288.26 975.65 1.304 7.826 5.217 14.347 15.652 14.347 41.739-2.608 83.478-2.608 127.826 0 10.434 0 15.652-6.521 16.956-18.26C550.217 668.91 641.521 361.086 732.825 50.652c6.522-14.348 7.827-26.087 14.348-45.652H595.87c-13.043 0-16.956 5.217-20.87 16.956-71.738 247.826-172.173 586.955-195.65 658.694 6.52 23.479-136.957-464.346-191.74-656.085C181.088 10.217 174.566 5 161.523 5H31.088zm516.52 987.389h344.347V831.954H611.521c-36.521 0-36.521 0-46.956 33.913-14.348 44.348-24.783 84.783-37.826 126.522zm74.348-253.043h269.999V586.738c0-13.044-6.522-13.044-14.348-13.044H683.26c-33.913 0-33.913 0-43.043 39.13-14.348 41.74-26.087 82.174-39.13 126.522zm75.652-260.869h194.347V320.651H731.521c-3.913 0-9.13 6.522-11.739 13.044-14.348 46.956-27.391 90-40.435 135.652-2.608 5.217-2.608 9.13-2.608 9.13zM902.39 992.389h87.391V831.954h-87.39zm0-253.043h87.391V578.912h-87.39zm0-260.869h87.391V320.651h-87.39z" style="fill:#000;fill-opacity:1;fill-rule:nonzero;stroke:none;"/>
</svg>
