<svg xmlns="http://www.w3.org/2000/svg" viewBox="0 0 1000 1000"><path d="M790.743,588.44l-7.87-3.142a220.473,220.473,0,0,0-59.112-18.147,75.981,75.981,0,0,0-4.162-7.616l-2.463-4.19c-3.426-6.058-7.955-12.91-13.221-20.723a304.754,304.754,0,0,1-53.337-121.736,454.523,454.523,0,0,0,24.234-97.53,37.568,37.568,0,0,0-8.635-34.737,51.949,51.949,0,0,0-53.281-6.908,154.831,154.831,0,0,1-165.957-77.345,79.55,79.55,0,0,0-27.291-31.141c-7.446-4.049-30.236-16.732-82.95,38.417L211.593,349.47a24.1,24.1,0,0,0-3.142,4.615l-9.654,18a49.542,49.542,0,0,0,5.662,53.96c5.313,7.076,10.531,14.016,15.7,20.894H111.2a25.763,25.763,0,1,0,0,51.525h147.8q20.024,26.5,38.4,50.676H142.487a25.763,25.763,0,1,0,0,51.525H333.5a25.954,25.954,0,0,0,3.072-.2q20.6,26.887,38.646,50.168H207.063a25.763,25.763,0,0,0,0,51.525H413.9c.524,0,1.035-.048,1.551-.078q23.793,30.088,40.794,50.612H284.578a25.791,25.791,0,0,0,0,51.554h297.36c2.426.374,4.854.732,7.29,1.048l193.56,1.755c25.678-1.3,48.666-3.256,66.927-5.1a57.217,57.217,0,0,0,47.533-37C923.605,694.18,881.79,624.876,790.743,588.44ZM848.95,746.81a6,6,0,0,1-4.926,3.737c-17.439,1.925-39.352,3.765-62.283,4.982L609.03,754.155a25.75,25.75,0,0,0-7.713-1.457H585.071a259.274,259.274,0,0,1-90.259-34.227c-46.146-55.829-129.917-164.6-250.548-322.2l8.323-15.486,122.33-142.658a197.264,197.264,0,0,1,24.177-21.374c1.359,2.152,2.775,4.416,3.992,6.4A206.215,206.215,0,0,0,621.7,324.33a500.9,500.9,0,0,1-21.8,76.977,25.478,25.478,0,0,0-1.273,13.249A352.772,352.772,0,0,0,661.137,563.13c4.558,6.6,8.494,12.316,11.325,17.44l3.114,5.294v.226c-.425.935-.963,2.067-1.671,3.483a25.763,25.763,0,0,0,40.683,30.32c4.5-4.246,17.694.4,49.062,13.023l7.955,3.2C835.248,661.566,864.889,703.976,848.95,746.81Zm124.142-85.1a25.529,25.529,0,0,1-48.3-16.562C994.148,442.41,910.658,218.914,725.369,111.3S304.582,41.931,162.86,202.638,12.65,601.776,142.586,772.153s362.119,225.264,554.591,131.1A25.493,25.493,0,0,1,719.684,949a499.844,499.844,0,1,1,253.408-287.3ZM535.863,557.129a25.79,25.79,0,0,1-21.176,40.427l-.057.142a25.766,25.766,0,0,1-21.2-11.1l-61.519-88.839A25.762,25.762,0,0,1,449.912,457.5l17.864-2.18L429.33,399.608A25.789,25.789,0,0,1,471.8,370.335l62.623,90.594a25.791,25.791,0,0,1-18.062,40.23l-17.779,2.179Z"/></svg>