<svg xmlns="http://www.w3.org/2000/svg" viewBox="0 0 1000 1000"><path d="M500.496 995.003c275.935 0 494.507-224.506 494.507-495.496C995.003 226.54 773.464 5 500.496 5 223.572 5 5 229.506 5 499.507c0 276.924 224.506 495.496 495.496 495.496zm-380.77-419.342c-34.616-83.077-7.912-180 63.297-233.407 76.154-55.385 182.967-55.385 252.198 4.945 34.616 30.66 62.308 67.253 93.957 101.868-23.737 24.726-52.418 53.407-80.11 82.089-19.78 18.79-38.572 37.582-58.352 56.373-45.495 42.528-113.737 44.506-162.199 4.945-46.483-37.582-57.363-101.868-25.714-153.297 43.516-74.176 149.341-78.132 204.726-6.923-46.484 47.473-91.979 92.968-137.473 138.462 21.758 21.758 69.23 12.857 90-6.923 39.56-39.56 77.143-80.11 116.704-121.649-40.55-72.198-134.506-117.692-210.66-97.912-66.264 17.802-115.715 74.176-121.649 137.473-6.923 71.209 27.692 134.506 91.978 164.176 61.32 29.67 135.495 18.792 185.935-30.66L624.123 416.43c60.33-58.352 158.242-42.528 195.825 30.66 24.725 48.461 11.868 109.78-29.67 144.395-44.506 37.583-107.803 39.561-153.298 3.957-14.835-10.88-26.703-23.737-41.538-37.583 8.9-9.89 17.802-17.802 29.67-31.648 9.89 11.868 16.813 23.736 26.703 32.637 27.693 26.703 67.253 31.648 98.902 13.846 31.648-16.813 49.45-51.429 42.527-86.044-5.934-35.605-35.604-63.297-74.176-67.253-27.692-3.956-50.44 6.923-70.22 26.703-66.264 66.264-133.517 132.528-201.759 197.803-101.868 98.902-274.946 62.308-327.363-68.242zm118.681-33.626c35.605-37.583 70.22-75.165 106.814-112.748-33.627-22.747-79.121-7.912-102.858 18.791-22.747 28.682-25.714 68.242-3.956 93.957zm301.65-151.32c53.407-72.197 135.495-102.857 220.55-83.077 83.077 19.78 146.374 93.957 151.32 176.045 6.922 90-42.528 170.11-124.617 201.759-89.011 34.615-183.956 6.923-246.264-72.198 8.9-8.901 16.813-16.813 28.681-29.67 9.89 10.879 16.813 23.736 27.693 32.637 51.428 47.472 110.77 59.34 175.055 33.626 64.286-25.714 97.913-76.154 101.869-144.396 4.945-62.308-36.594-124.616-95.935-151.319-61.319-27.692-134.506-14.835-182.967 31.648-8.902 8.902-16.814 19.78-26.704 31.649-11.868-10.88-19.78-18.791-28.681-26.703z"/></svg>