<svg xmlns="http://www.w3.org/2000/svg" width="1000" height="1000">
  <path d="M5 500.002v.395-.395c.099-89.506 22.55-172.682 67.253-249.726 44.209-74.473 103.55-133.814 178.023-178.023C327.419 27.45 410.694 5 500.002 5c89.308 0 172.583 22.45 249.726 67.253C824.2 116.462 883.54 175.803 927.75 250.276c44.803 77.143 67.253 160.418 67.253 249.726 0 89.308-22.45 172.583-67.253 249.726C883.541 824.2 824.2 883.54 749.728 927.75c-77.143 44.803-160.418 67.253-249.726 67.253-89.308 0-172.583-22.45-249.726-67.253-74.473-44.209-133.814-103.55-178.023-178.022C27.55 672.684 5.099 589.508 5 500.002zm178.023 13.351c3.956 2.967 5.934 6.923 8.9 11.869 31.65 58.351 67.254 113.736 98.902 173.077 10.88 20.77 22.747 39.56 36.594 60.33 1.978-1.978 2.967-2.967 2.967-4.945 16.813-30.66 33.626-58.352 49.45-87.033 3.956-6.924 3.956-9.89 0-16.814-27.692-47.472-54.395-94.945-82.088-143.407-3.956-6.923-3.956-12.857.99-19.78 26.703-48.462 55.384-96.923 84.065-145.385 2.968-5.934 2.968-11.868 0-15.824-15.824-24.726-29.67-52.418-44.505-77.144-2.967-4.945-5.934-9.89-8.901-16.813-1.978 1.978-1.978 2.967-3.956 4.945-47.473 82.089-92.968 163.188-142.418 245.276-5.935 9.89-8.902 19.78 0 31.648zM351.155 788.3H677.53c4.945 0 7.912-.989 11.868-4.945 52.418-92.967 111.759-181.978 159.231-277.913 2.967-5.934 2.967-10.879 0-14.835-53.407-91.978-105.824-183.957-159.231-276.924-3.956-6.923-6.923-8.901-14.835-8.901h-320.44c.988 4.945 2.966 6.923 2.966 8.901 51.429 92.967 104.836 184.946 156.264 276.924 3.956 3.956 3.956 8.901 0 14.835-49.45 84.066-98.901 172.089-149.34 258.133-4.946 5.934-8.902 14.835-12.858 24.725zm178.023-104.835c1.978 1.978 2.967 1.978 2.967 1.978h88.022c1.978 0 6.923-3.956 6.923-6.923l103.846-175.056c.99-4.945.99-8.9 0-11.868-34.615-58.352-67.252-117.693-101.868-175.056-2.967-4.945-6.923-7.912-11.868-6.923h-88.022c1.978 2.967 2.967 6.923 4.945 8.902 32.637 56.373 61.319 114.725 97.912 170.11 3.956 5.934 3.956 9.89 0 16.813-27.692 48.462-56.374 95.935-83.077 146.374-6.923 9.89-13.846 21.759-19.78 31.649z" style="fill:#000;fill-opacity:1;fill-rule:nonzero;stroke:none;"/>
</svg>
