<svg xmlns="http://www.w3.org/2000/svg" viewBox="0 0 1000 1000"><path d="M5 500.496C5 225.55 226.54 5 500.496 5c272.968 0 494.507 222.528 494.507 494.507 0 274.946-222.528 495.496-494.507 495.496C225.55 995.003 5 772.475 5 500.496zm88.022 12.857c1.978 25.715 5.934 51.43 17.803 74.176 34.615 71.21 94.945 103.847 169.121 109.781 27.692 3.956 56.374 0 84.066 0h4.945V617.2H295.77c-16.813 0-34.615-1.978-52.418-9.89-29.67-10.88-53.406-30.66-64.285-63.297-5.935-16.813-6.924-37.583-4.946-56.374 2.967-34.616 17.803-60.33 46.484-80.11 22.747-13.846 46.484-18.791 73.187-18.791 58.352-1.978 116.704 0 174.067 0 5.934 0 7.912-2.968 7.912-7.913v-67.253c0-5.934-1.978-6.923-8.901-6.923H294.78c-25.714 0-51.429 3.956-74.176 11.869-49.45 18.79-88.022 49.45-109.78 98.9-13.847 31.65-18.792 62.309-17.803 95.935zm183.957 29.67c0 4.946 1.978 6.924 6.923 6.924h110.77v141.429c0 4.945.989 7.912 7.912 7.912a359.754 359.754 0 0 1 65.275 0c6.923 0 7.912-2.967 7.912-7.912V475.77c0-5.934-.99-7.912-7.912-7.912H283.902c-4.945 0-6.923 1.978-6.923 7.912zM526.21 697.31H878.3V306.65H603.354v80.11H526.21zm77.143-310.55h.989zm.989 229.45V386.76h193.846v229.45z"/></svg>