<svg xmlns="http://www.w3.org/2000/svg" width="1000" height="1000">
  <path d="M500.496 5C223.572 5 5 229.506 5 500.002c0 276.43 224.506 495.001 495.002 495.001 276.43 0 495.001-224.506 495.001-495.001C995.003 226.539 773.464 5 500.496 5zM244.341 250.276c17.803 3.956 34.616 4.945 49.451 10.879 63.297 11.868 123.627 33.626 174.067 72.198 36.593 26.703 65.275 58.352 76.154 104.835 4.945 24.726 4.945 48.462-2.967 70.22-7.912 29.67-24.726 46.484-53.407 58.352-38.572-91.978-91.978-175.055-170.11-240.33-1.979 0-1.979 0-1.979 2.967 1.979.989 1.979 3.956 7.913 6.923 35.604 33.626 62.308 75.165 87.033 118.681 40.55 75.166 69.23 155.276 96.923 240.331 0 1.978 1.978 4.945 1.978 10.88 0 0 1.978 0 1.978 1.977 3.956-4.945 4.945-10.879 7.912-12.857 31.649-70.22 71.21-138.462 125.605-191.869 32.638-31.648 71.21-56.374 114.726-65.275 1.978 0 1.978 0 4.945-2.967-31.648-9.89-109.78 17.802-170.11 99.89-9.89-14.835-7.913-31.648 0-48.461 12.857-27.692 33.626-45.495 60.33-58.352 56.373-21.758 114.725-14.835 173.077 1.978-32.638 22.747-49.45 51.429-66.264 81.1-13.846 26.703-33.627 47.472-60.33 60.33-26.703 11.867-53.407 11.867-80.11 0-9.89-4.946-12.857-2.968-16.813 3.955-50.44 75.165-88.023 159.232-109.78 248.243 0 4.945-1.979 9.89-3.957 12.857 0 4.945-2.967 5.934-4.945 8.901-2.967-2.967-6.923-5.934-6.923-8.901-3.956-10.88-4.945-22.747-4.945-31.648-15.824-68.242-29.67-137.473-41.539-203.737-2.967-9.89-4.945-12.858-16.813-12.858-74.176 0-128.572-53.406-133.517-129.56-2.967-33.627-5.934-67.253-7.912-100.88-2.967-33.626-11.868-66.264-26.704-96.923 0-2.967 0-5.934-2.967-10.88z" style="fill:#000;fill-opacity:1;fill-rule:nonzero;stroke:none;"/>
</svg>
