<svg xmlns="http://www.w3.org/2000/svg" viewBox="0 0 1000 1000"><path d="M500.496 5C223.572 5 5 229.506 5 500.002c0 276.43 224.506 495.001 495.002 495.001 276.43 0 495.001-224.506 495.001-495.001C995.003 226.539 773.464 5 500.496 5zM252.254 831.816c16.813-25.714 36.593-48.462 56.373-71.21 34.616-48.46 75.165-97.912 109.781-144.395 29.67-31.649 56.374-67.253 82.088-100.88 2.967 0 2.967-2.967 6.923-8.9H256.21c6.924-10.88 8.902-16.814 12.858-23.737 62.308-79.121 124.616-153.297 185.935-231.43 19.78-19.78 33.626-42.527 52.417-62.307 2.967-3.956 9.89-5.934 16.814-5.934h245.275c-86.044 107.802-170.11 211.649-255.166 320.44h260.111c-15.824 21.759-31.648 42.528-45.495 61.32-41.538 51.428-84.066 103.846-126.593 157.252-30.66 38.572-58.352 75.165-88.023 109.78z"/></svg>