<?xml version="1.0" encoding="utf-8"?>
<!-- Generator: Adobe Illustrator 25.4.1, SVG Export Plug-In . SVG Version: 6.00 Build 0)  -->
<svg version="1.1" id="Layer_1" xmlns="http://www.w3.org/2000/svg" xmlns:xlink="http://www.w3.org/1999/xlink" x="0px" y="0px"
	 viewBox="0 0 32 32" style="enable-background:new 0 0 32 32;" xml:space="preserve">
<path d="M9.2,0.1L2.8,6.5H8c0.7-2.6,3.5-6,4.3-6.5H9.2z M15.5,6.5V0.1H14c-2.7,2-4.3,5.1-4.7,6.5H15.5z M16.7,6.5H23
	c-1.5-3.5-3.8-5.8-4.8-6.5h-1.4V6.5z M24.2,6.5h5.1l-6.5-6.5h-2.9C21.9,2,23.4,4.6,24.2,6.5z M22.8,32l6.5-6.5H24
	c-0.7,2.6-3.5,6-4.3,6.5H22.8z M16.6,25.5V32h1.5c2.7-2,4.3-5.1,4.7-6.5H16.6z M15.4,25.5H9.1c1.5,3.5,3.8,5.8,4.8,6.5h1.4V25.5z
	 M7.9,25.5H2.8L9.3,32h2.9C10.1,30.1,8.7,27.5,7.9,25.5z M2.8,22h2v-2.4c0-0.6,0-1.2,0-1.8c0-0.6-0.1-1.2-0.2-1.8s-0.2-1.2-0.3-1.8
	c-0.1-0.6-0.1-1.2-0.2-1.8l2,6h1.2l2-6c0,0.6-0.1,1.2-0.2,1.8C9.1,14.8,9.1,15.4,9,16c-0.1,0.6-0.1,1.2-0.2,1.8c0,0.6,0,1.2,0,1.8
	V22h2V10.2H8.9l-2.2,6.4l-2.2-6.4H2.8V22z M15.9,22.1c0.3,0,0.6,0,0.9-0.1c0.3-0.1,0.6-0.1,0.9-0.3c0.3-0.1,0.6-0.3,0.8-0.5
	c0.2-0.2,0.4-0.5,0.6-0.8c0.2-0.3,0.3-0.6,0.3-0.9c0-0.3,0.1-0.6,0.1-1v-3.3H16v1.8h1.6v1.5c0,0.2,0,0.4-0.1,0.7
	c-0.1,0.2-0.2,0.4-0.3,0.5c-0.2,0.1-0.4,0.3-0.6,0.3c-0.2,0.1-0.4,0.1-0.7,0.1c-0.2,0-0.4,0-0.6-0.1c-0.2-0.1-0.4-0.2-0.5-0.4
	s-0.3-0.3-0.3-0.6c-0.1-0.2-0.1-0.4-0.1-0.6v-5.2c0-0.2,0-0.4,0.1-0.7c0.1-0.2,0.2-0.4,0.4-0.6s0.3-0.3,0.6-0.3
	c0.2-0.1,0.4-0.1,0.7-0.1c0.3,0,0.5,0,0.8,0.1c0.3,0.1,0.5,0.2,0.6,0.5c0.2,0.2,0.2,0.5,0.2,0.7h2c0-0.4-0.1-0.9-0.3-1.3
	c-0.2-0.4-0.4-0.8-0.8-1c-0.4-0.3-0.7-0.5-1.2-0.6c-0.4-0.1-0.9-0.2-1.3-0.2c-0.3,0-0.6,0-0.9,0.1c-0.3,0-0.6,0.1-0.9,0.3
	c-0.3,0.1-0.5,0.3-0.8,0.5c-0.2,0.2-0.4,0.5-0.6,0.7c-0.1,0.3-0.3,0.6-0.3,0.9c-0.1,0.3-0.1,0.6-0.1,0.9v5.2c0,0.4,0,0.7,0.1,1.1
	c0.1,0.4,0.3,0.7,0.5,1c0.2,0.3,0.5,0.5,0.8,0.8c0.3,0.2,0.7,0.3,1,0.4C15.2,22.1,15.5,22.1,15.9,22.1z M25.2,22.1
	c0.4,0,0.9-0.1,1.3-0.2c0.4-0.1,0.8-0.3,1.2-0.6c0.4-0.3,0.6-0.6,0.8-1.1c0.2-0.4,0.3-0.8,0.3-1.3h-2c0,0.3-0.1,0.5-0.2,0.7
	c-0.2,0.2-0.4,0.4-0.6,0.5c-0.3,0.1-0.5,0.1-0.8,0.1c-0.2,0-0.4,0-0.7-0.1c-0.2-0.1-0.4-0.2-0.6-0.3s-0.3-0.3-0.4-0.6
	c-0.1-0.2-0.1-0.4-0.1-0.7v-5.2c0-0.2,0-0.4,0.1-0.7c0.1-0.2,0.2-0.4,0.4-0.6s0.3-0.3,0.6-0.3c0.2-0.1,0.4-0.1,0.7-0.1
	c0.3,0,0.5,0,0.8,0.1c0.3,0.1,0.5,0.2,0.6,0.5c0.2,0.2,0.2,0.5,0.2,0.7h2c0-0.4-0.1-0.9-0.3-1.3c-0.2-0.4-0.4-0.8-0.8-1
	c-0.4-0.3-0.7-0.5-1.2-0.6s-0.9-0.2-1.3-0.2c-0.3,0-0.6,0-1,0.1c-0.3,0-0.6,0.1-0.9,0.3c-0.3,0.1-0.5,0.3-0.8,0.5
	c-0.2,0.2-0.4,0.5-0.6,0.7c-0.1,0.3-0.3,0.6-0.3,0.9c-0.1,0.3-0.1,0.6-0.1,0.9v5.2c0,0.3,0,0.6,0.1,0.9c0.1,0.3,0.2,0.6,0.3,0.9
	c0.2,0.3,0.4,0.5,0.6,0.7c0.2,0.2,0.5,0.4,0.8,0.5c0.3,0.1,0.6,0.2,0.9,0.3C24.5,22.1,24.9,22.1,25.2,22.1z"/>
</svg>
