<?xml version="1.0" encoding="utf-8"?>
<!-- Generator: Adobe Illustrator 26.0.1, SVG Export Plug-In . SVG Version: 6.00 Build 0)  -->
<svg version="1.1" id="Layer_1" xmlns="http://www.w3.org/2000/svg" xmlns:xlink="http://www.w3.org/1999/xlink" x="0px" y="0px"
	 viewBox="0 0 1000 1000" style="enable-background:new 0 0 1000 1000;" xml:space="preserve">
<g>
	<path d="M619.2,240.1c-51.8-23.9-96.3-46.4-119.1-58.1H500H500v0.1c-22.8,11.8-67.2,34.2-119.1,58.1c-55,25.3-118,55-147.3,68.8
		c-2.1,52.3-3.8,209.8,45.4,312.6c28.5,59.5,65.5,112.6,106.8,153.6c37.1,36.7,76.4,62.6,114.2,75.1c37.8-12.6,77.2-38.5,114.2-75.3
		c41.4-40.9,78.3-94.1,106.8-153.6c49.3-102.9,47.6-260.3,45.4-312.6C737.2,295.1,674.2,265.5,619.2,240.1z M701.3,613.9
		C650.9,722,574.3,797.2,502.7,819.3c0,0-1.8,1.1-2.7,0.8c-0.9,0.3-2.7-0.8-2.7-0.8c-71.6-22.1-148.1-97.3-198.5-205.5
		c-51.6-111-38.4-287.9-38.4-287.9s71.9-35,132.7-63.9c51.1-24.2,93-46.6,105.1-53.1l1.8-1l1.8,1c12.1,6.5,54,28.9,105.1,53.1
		C667.7,291,739.6,326,739.6,326S752.9,503,701.3,613.9z"/>
	<path d="M593.6,289.8c-24.4-11.6-46.8-22.8-65-32.1L500,297.9l-28.6-40.1c-18.1,9.3-40.5,20.5-65,32.1
		c-25.7,12.2-53.5,25.6-77,36.9h132.7l64.6,135.5l50.6-90.6c0,0,1.4-27.8-5.6-35.1c-7-7.4-11.6-9.7-11.6-9.7H661L555.1,534.3
		l1.9,130.4l23.7,41.6l-154.3,2.3l33-37V531.1L365,368.3c0,0-10.7-30.5-35.7-41.6c-15.5,7.5-29.1,14.1-39,18.9
		c-1.6,45.9-2.1,172.5,36.4,255.3c7.6,16.3,16.1,32.3,25.4,47.7c8.9,0.1,23.6,0.6,23.6,0.6l43.7,70.8l-6.3,8.4
		c28.4,28.8,58.2,49.2,86.9,59.5c28.4-10.2,58-30.5,86.1-58.7l-6.9-9.1l43.7-70.8c0,0,16.3-0.6,25-0.6c9.3-15.5,17.7-31.4,25.3-47.7
		c38.7-83.1,38.1-209.5,36.4-255.3C685,333.6,636.3,310.1,593.6,289.8z"/>
	<path d="M500.5,5C223.6,5,5,229.5,5,499.5C5,773.5,226.5,995,499.5,995C776.4,995,995,770.5,995,499.5C995,223.6,770.5,5,500.5,5z
		 M748.8,634.8C686.6,764.7,591.9,855,503.4,881.6c0,0-2.2,1.3-3.4,1c-1.1,0.3-3.4-1-3.4-1C408.1,855,313.4,764.7,251.2,634.8
		c-63.9-133.2-47.4-345.7-47.4-345.7s89-42.1,164.2-76.8c63.2-29.1,115-56,129.9-63.8l2.2-1.2l2.2,1c15,7.9,66.8,34.7,129.9,63.9
		c75.3,34.7,164.2,76.8,164.2,76.8S812.7,501.6,748.8,634.8z"/>
</g>
</svg>
