<?xml version="1.0" encoding="UTF-8"?><svg id="a" xmlns="http://www.w3.org/2000/svg" viewBox="0 0 1000 1000"><path d="M500,0C223.858,0,0,223.858,0,500s223.858,500,500,500,500-223.858,500-500S776.142,0,500,0Zm-79.953,236.563c3.606-4.805,8.204-8.779,13.477-11.656,5.272-2.877,11.103-4.588,17.094-5.017,5.994-.43,12.005,.432,17.638,2.525,5.63,2.095,10.746,5.374,14.999,9.615,4.262,4.248,7.557,9.364,9.667,14.998,2.11,5.634,2.985,11.657,2.562,17.658-.423,6.002-2.128,11.844-5.006,17.128-2.876,5.284-6.859,9.887-11.671,13.497l-235.023,176.252,176.264-235.002Zm360.006,312.752c-.42,6.001-2.128,11.841-5.006,17.126-2.879,5.286-6.856,9.887-11.671,13.5l-235.023,176.251,176.267-235.002c3.606-4.807,8.198-8.782,13.477-11.657,5.272-2.877,11.1-4.588,17.094-5.017,5.988-.432,12.005,.431,17.635,2.527,5.63,2.095,10.749,5.373,14.999,9.614,4.262,4.25,7.56,9.366,9.67,14.998,2.11,5.634,2.982,11.657,2.559,17.66Zm10.373-271.313c-.313,9.067-2.488,17.972-6.387,26.162-3.898,8.192-9.437,15.495-16.275,21.456L209.533,790.465,674.333,232.283c5.964-6.851,13.27-12.402,21.471-16.309,8.201-3.906,17.117-6.084,26.193-6.398,9.076-.316,18.122,1.24,26.575,4.569,8.446,3.329,16.125,8.361,22.549,14.781,6.407,6.422,11.425,14.091,14.747,22.535,3.322,8.442,4.873,17.477,4.557,26.542Z"/></svg>