<svg xmlns="http://www.w3.org/2000/svg" width="1000" height="1000">
  <path d="M65.114 693.113V501.599c0-65.693 2.227-130.273 0-193.74 0-40.084 17.816-71.261 52.333-93.53C227.678 151.976 336.797 85.169 444.8 21.702c37.858-22.27 72.375-22.27 109.119 0l326.24 192.627c36.745 22.269 56.787 53.446 54.56 95.757v383.027c0 44.538-20.042 75.715-59.013 96.87-109.118 59.013-211.556 123.593-317.334 187.06-38.97 23.383-75.714 24.496-118.025 0-104.665-61.24-210.443-123.593-316.22-184.833-40.085-23.382-59.014-54.559-59.014-99.097zm200.422-435.36c0 20.043 6.68 26.723 25.61 26.723h417.543c20.043 0 25.61-6.68 25.61-26.723 0-16.701-4.454-25.609-23.383-25.609h-419.77c-21.157 0-25.61 8.908-25.61 25.61zm4.453 388.595c0 36.744 10.022 70.147 34.517 97.984 32.29 44.538 75.715 65.693 128.047 67.92 5.568 0 7.795-1.113 4.454-6.68-16.702-16.702-34.517-36.744-54.559-47.879-48.992-26.723-71.26-64.58-71.26-119.14v-139.18c0-59.013 0-59.013 56.785-59.013 18.929 0 25.61 7.794 25.61 25.609 0 59.013-2.227 118.026 0 179.266 3.34 94.643 80.168 171.471 169.244 169.244 94.644-2.227 169.245-76.828 169.245-175.925 0-71.261-2.227-143.635-2.227-212.67 0-17.815-3.34-24.495-21.156-24.495-38.97 0-75.714 2.227-115.799 0-21.155-2.227-27.836 6.68-27.836 27.836v211.556c0 41.197-16.702 73.488-47.878 99.097-11.135 12.248-22.27 12.248-34.517 0-27.837-27.836-47.879-57.9-47.879-96.87V425.885c0-17.816-4.453-24.496-24.496-24.496-38.97 0-77.941 2.227-119.139 0-16.702 0-21.156 6.68-21.156 24.496zm286.158 120.253c46.764-47.879 54.559-102.438 52.332-158.11-2.227-48.992 0-95.757 0-143.636 0-15.588 4.454-22.269 22.269-22.269 71.26 0 57.9-8.907 57.9 56.786 3.34 47.879 0 97.984 0 145.863 0 69.034-57.9 123.593-132.501 121.366z" style="fill:#000;fill-opacity:1;fill-rule:nonzero;stroke:none;"/>
</svg>
