<?xml version="1.0" encoding="UTF-8"?><svg id="a" xmlns="http://www.w3.org/2000/svg" viewBox="0 0 1000 1000"><path d="M153.765,235.237L550.972,5.943c13.71-7.924,30.564-7.924,44.274,0l250.173,144.393c25.156,14.464,29.684,48.928,9.182,69.555l-84.775,85.278c-14.087,14.213-36.098,17.106-53.456,7.044l-120.747-69.681c-13.961-8.05-31.193-8.05-45.154,0L131.628,486.793v-213.194c0-15.848,8.427-30.438,22.137-38.362ZM846.3,849.16l-251.179,144.897c-13.71,7.924-30.564,7.924-44.148,0l-397.208-229.294c-13.71-7.924-22.137-22.514-22.137-38.237v-193.447l204.641-118.609v193.824c0,15.848,8.427,30.438,22.137,38.237l192.566,111.188c13.71,7.924,30.564,7.924,44.148,0l121.879-70.31c17.357-10.062,39.243-7.169,53.33,7.044l85.026,85.026c20.628,20.628,16.1,55.091-9.056,69.681Z"/></svg>