<svg xmlns="http://www.w3.org/2000/svg" width="1000" height="1000">
  <path d="M500.496 995.003c275.935 0 494.507-224.506 494.507-495.496C995.003 226.54 773.464 5 500.496 5 223.572 5 5 229.506 5 499.507c0 276.924 224.506 495.496 495.496 495.496zM69.286 505.441c0-236.374 192.858-428.243 430.221-428.243 235.386 0 428.243 191.869 428.243 428.243 0 237.364-192.857 430.221-428.243 430.221-237.363 0-430.221-192.857-430.221-430.22zm6.923 0c0 234.397 188.902 423.298 423.298 423.298 232.419 0 421.32-188.901 421.32-423.298 0-232.418-188.901-422.309-421.32-422.309-234.396 0-423.298 189.89-423.298 422.31zM223.572 647.86c35.605 16.814 69.231 38.572 106.814 47.473 31.648 5.934 70.22 2.967 100.88-6.923 41.538-13.846 60.329-53.407 56.373-89.011-5.934-30.66-17.802-38.572-80.11-49.451-2.967-16.813-6.923-36.594-11.868-58.352 6.923-.989 11.868-1.978 16.813-1.978 27.692-2.967 58.352-3.956 60.33-42.528 1.978-31.648-26.704-69.23-61.32-65.275-34.615 2.967-64.285 20.77-103.846 34.616-7.912-10.88-19.78-29.67-30.66-49.45 49.452-57.364 129.562-68.243 188.903-25.715 52.417 39.56 58.352 100.88 10.879 173.077 13.846 12.858 26.703 25.715 46.483 44.506 5.935-19.78 9.89-33.626 13.847-45.495 6.923-18.79 11.868-39.56 21.758-55.384 26.703-44.506 62.308-75.166 116.704-69.231 54.395 6.923 81.099 38.571 101.868 89.01 22.748 58.353 12.857 101.87 0 135.496-12.857 33.626-61.319 67.253-97.912 62.308-46.484-7.912-72.198-37.583-75.165-90.99 10.879 8.901 16.813 13.847 22.747 17.803 38.572 24.725 81.1 28.681 107.803 1.978 29.67-27.693 31.648-64.286 18.79-99.89-14.834-41.54-48.46-65.276-90-59.342-17.802 2.967-40.55 16.814-50.44 32.638-25.714 36.593-34.615 84.066-77.142 109.78-4.945 1.978-3.956 20.77-3.956 32.638.989 80.11-58.352 142.418-142.418 149.341-67.253 6.923-167.144-46.484-166.155-121.649zm225.495-370.88c74.177 51.429 139.451 44.506 205.715-.99 11.869 19.781 21.759 35.605 32.638 51.43-78.132 61.319-205.715 30.66-238.353-50.44zm58.352-29.67c14.835-17.803 25.715-29.671 39.56-46.484 16.814 16.813 25.715 28.681 39.561 42.527-11.868 13.847-22.747 24.726-37.582 41.539-13.846-11.868-25.714-23.736-41.539-37.583z" style="fill:#000;fill-opacity:1;fill-rule:nonzero;stroke:none;"/>
</svg>
