<svg xmlns="http://www.w3.org/2000/svg" viewBox="0 0 1000 1000"><path d="M500,995c273.38,0,495-221.62,495-495S773.38,5,500,5,5,226.62,5,500,226.62,995,500,995ZM202,285.73,347.73,140H417c-18.76,10.82-80.8,88-96.67,145.73ZM487.69,140V285.73h-140c9.86-30.06,45-101.29,106.78-145.73Zm28.14,145.73h141.4C624.33,207.24,570.9,155.87,548.29,140H515.83Zm283.52,0H684.65c-18-43.28-50.65-103-97.4-145.73h64.93Zm-483,428.54H201.65L348.82,860h64.93C367,817.29,334.39,757.55,316.36,714.27Zm27.41,0h141.4V860H452.71C430.1,844.13,376.67,792.76,343.77,714.27Zm169.54,0V860h33.18c61.76-44.44,96.92-115.67,106.78-145.73ZM653.27,860,799,714.27H680.68C664.81,772,602.77,849.18,584,860ZM299.4,668.1,247.82,526.48H216.4V668.1H162v-332h94.73a122.6,122.6,0,0,1,38,5.62,71.06,71.06,0,0,1,29.54,16.89A79.09,79.09,0,0,1,344,388.14q7,17.82,7,42.67,0,19.23-5.16,34.24a87.66,87.66,0,0,1-12.19,24.85,72.08,72.08,0,0,1-16.88,16.88,57.46,57.46,0,0,1-17.82,8.44L358.48,668.1Zm-3.75-234.47q0-15-4.22-24.86a39.07,39.07,0,0,0-11.26-15.47,38.63,38.63,0,0,0-15-8A62.6,62.6,0,0,0,248.29,383H216.4V485.21h31.89q20.63,0,33.76-12.66Q295.64,459.43,295.65,433.63Zm224.54-49.71V668.1H464.86V383.92H402.49V336.09H582.56v47.83ZM754.61,668.1V541l83.93-204.92H779L728.34,483.33l-1.4.94L677.23,336.09h-61l83,204.92V668.1Z" fill-rule="evenodd"/></svg>