<svg xmlns="http://www.w3.org/2000/svg" viewBox="0 0 1000 1000"><path d="M846.567 187.907c31.977 94.65 14.07 200.813-55 277.557-31.976 34.535-69.07 60.116-112.557 76.744-31.977 10.232-61.396 14.07-93.372 14.07h-287.79c1.279 5.116 1.279 25.581 1.279 46.046h372.208c7.675 0 3.837 110-5.116 110-5.116 0-245.58 1.279-367.092 0v273.72c0 5.116 0 8.953-8.954 8.953h-93.371c-7.675 0-7.675-3.837-7.675-8.953v-273.72h-1.279c-31.977 0-42.21 1.279-46.046-1.28-3.838-5.116-3.838-99.766 0-106.162 3.837-2.558 34.534-2.558 47.325-2.558v-43.488c-15.349 0-47.325 0-48.604-2.558-2.559-3.838-3.838-110 0-111.28 2.558-3.836 42.209-1.278 49.883-1.278 0-1.28-1.279-283.953-1.279-428.487V6.279C325.987 5 460.29 5 598.428 5c103.605 0 212.325 80.581 248.14 182.907zM296.57 444.999h290.348c24.302 0 42.209-3.837 57.558-10.233 75.465-26.86 118.953-102.325 104.883-181.627-5.116-35.814-21.744-67.79-49.883-93.372-31.977-30.698-67.79-43.488-113.837-43.488h-287.79c1.279 190.58-1.28 317.208-1.28 328.72z"/></svg>