<svg xmlns="http://www.w3.org/2000/svg" viewBox="0 0 1000 1000"><path d="M500.496 5c272.968 0 494.507 221.54 494.507 495.002 0 270.495-218.572 495.001-495.001 495.001C229.506 995.003 5 776.431 5 500.002 5 229.506 223.572 5 500.496 5zM243.352 521.265c6.924 48.462 21.759 95.935 52.418 135.495 26.704 38.572 63.297 63.297 114.726 63.297 24.725 1.978 46.484-5.934 67.253-17.802 11.868-6.923 11.868-10.88 4.945-18.791-3.956-3.956-7.912-5.934-8.901-10.88-8.901-8.9-8.901-8.9-21.759-3.955-16.813 8.9-37.582 11.868-56.373 8.9-28.682-5.933-50.44-22.747-66.264-44.505-30.66-39.56-42.528-85.055-44.506-134.506 0-19.78-1.978-19.78-19.78-11.868-26.704 11.868-21.759 9.89-21.759 34.615zm189.891-61.318c-6.923 51.428 1.978 99.89 21.759 146.374 11.868 29.67 30.659 58.352 56.373 81.099 52.418 44.505 123.627 44.505 174.067 0 24.725-19.78 42.527-46.484 55.385-74.176 32.637-75.165 35.604-153.297 9.89-230.44-7.912-30.66-23.737-56.374-44.506-81.1-7.912-8.9-8.901-8.9-21.758-4.945-6.923 3.956-9.89 4.945-15.824 7.912-10.88 5.934-10.88 7.912-2.967 14.836 8.9 8.9 16.813 16.813 21.758 29.67 28.681 40.55 39.56 88.022 39.56 135.495 0 36.593-6.923 65.275-16.813 94.945-9.89 29.67-25.714 55.385-48.462 75.165-36.593 30.66-79.12 35.605-115.714 6.923-13.846-10.879-23.737-22.747-31.649-34.615-31.648-47.473-44.505-96.923-40.55-152.308 0-11.868 4.946-24.726 11.869-33.627 9.89-20.769 29.67-20.769 40.55 0 5.934 11.868 10.879 23.737 11.868 37.583 1.978 32.637-.99 67.253-15.825 96.923-6.923 17.802-4.945 30.66 7.913 44.506l1.978 2.967c7.912 9.89 11.868 9.89 15.824-2.967 22.747-44.506 32.637-92.967 30.66-141.43 0-29.67-10.88-57.362-32.638-79.12-23.737-20.77-58.352-20.77-83.077 0-15.825 15.824-26.704 38.571-29.67 60.33z"/></svg>