<svg xmlns="http://www.w3.org/2000/svg" width="1000" height="1000">
  <path d="M500.496 995.003c275.935 0 494.507-224.506 494.507-495.496C995.003 226.54 773.464 5 500.496 5 223.572 5 5 229.506 5 499.507c0 276.924 224.506 495.496 495.496 495.496zM80.166 480.716c-6.924-7.912-6.924-9.89 0-18.791 8.9-9.89 19.78-21.759 29.67-31.649 5.934-6.923 9.89-10.879 14.835-17.802 10.879-10.88 26.703-12.857 44.505-10.88 9.89 0 23.737 1.979 36.594 1.979 19.78 0 34.615-3.956 45.495-16.814 19.78-20.769 37.582-40.55 57.362-60.33 8.902-10.879 20.77-22.747 28.682-33.626 10.879-10.879 19.78-21.758 31.648-33.626 8.901-10.88 17.803-18.792 25.715-30.66 18.79-18.791 36.593-37.582 51.428-55.385 3.956-4.945 6.923-6.923 11.869-11.868 7.912-8.9 16.813-17.802 26.703-28.681 3.956-3.956 5.934-3.956 12.857 0 1.978 0 1.978 1.978 3.956 4.945 13.846 10.879 27.693 21.758 37.583 35.604 2.967 1.978 4.945 3.956 9.89 8.902-13.846 10.879-23.736 21.758-33.627 35.604-10.879 8.901-19.78 18.791-28.681 30.66-4.945 1.978-6.923 6.923-9.89 9.89-20.77 23.736-42.528 45.494-63.297 70.22-20.77 21.758-40.55 42.527-59.34 64.286-5.935 6.923-9.891 10.879-13.847 17.802-9.89 6.923-18.791 12.857-28.682 17.802-5.934 1.978-11.868 3.956-18.79 1.978-10.88-1.978-19.781-6.923-30.66-6.923-15.825-1.978-33.627-3.956-46.484 8.901-9.89 5.934-13.846 13.846-19.78 21.758-16.813 16.814-28.682 28.682-42.528 44.506-6.923 6.923-10.879 11.868-15.824 17.802-5.934 6.923-8.901 6.923-15.824 2.967-11.868-13.846-28.682-26.703-41.539-38.571zm120.659 107.802c-7.912-7.912-7.912-8.9 0-15.824 0-2.967.989-4.945 2.967-6.923 15.824-15.824 31.648-33.626 44.506-49.45 11.868-10.88 20.769-19.78 30.659-29.671 7.912-7.912 16.813-15.824 23.736-24.725 8.901-9.89 16.814-13.847 29.67-13.847 13.847 2.967 29.671 2.967 42.528 3.956 13.847 1.978 27.693-.989 38.572-5.934 17.802-10.879 28.681-28.681 44.506-42.527.989-3.956 5.934-6.923 7.912-10.88 20.769-21.758 42.527-46.483 63.297-69.23 9.89-10.88 19.78-19.78 28.681-30.66 17.802-17.802 32.637-34.615 50.44-52.418 0 0 1.978 0 1.978-3.956 8.9 7.912 17.802 13.847 24.725 22.748 8.901 6.923 18.791 15.824 29.67 24.725.99 1.978 2.968 6.923 0 8.901 0 1.978-2.966 3.956-2.966 6.923-10.88 9.89-21.759 21.759-33.627 33.627-21.758 24.725-43.517 47.472-66.264 72.198-5.934 8.9-14.835 17.802-24.725 26.703-5.934 5.934-12.857 13.846-19.78 21.758-17.803 24.726-42.528 26.704-69.232 20.77-7.912-3.956-16.813-3.956-27.692-6.923-8.901 0-20.77 4.945-27.692 10.879-19.78 19.78-38.572 42.527-57.363 62.308-7.912 8.9-17.802 17.802-23.737 26.703-15.824 18.791-32.637 33.627-47.472 51.429-3.956 3.956-8.901 8.901-12.857 14.835-4.946-2.967-8.902-5.934-10.88-8.901-12.857-9.89-26.703-23.736-39.56-36.594zm112.747 101.869c5.935-8.901 15.825-17.802 23.737-26.703 10.879-13.847 24.725-26.704 35.604-40.55 24.726-26.703 48.462-53.407 73.187-79.121 9.89-11.868 17.803-22.748 28.682-31.649 13.846-13.846 29.67-17.802 47.472-15.824 10.88 0 21.759 1.978 33.627 1.978 17.802 3.956 30.66-3.956 44.506-11.868 2.967-3.956 5.934-7.912 9.89-9.89 15.824-16.813 33.626-36.594 49.45-55.385h1.978c19.78-21.758 40.55-46.484 62.308-69.231 1.978-1.978 4.945-1.978 5.934-5.934 20.77 16.813 38.572 34.615 58.352 53.407-4.945 3.956-6.923 8.9-10.879 12.857-24.725 25.714-48.462 52.418-73.187 80.11-7.912 5.934-12.857 14.835-22.747 22.747-11.868 9.89-23.737 12.858-39.56 9.89-6.924-1.978-10.88-1.978-17.803-3.956-35.605-8.9-47.473-4.945-72.198 22.748-7.912 9.89-18.791 21.758-27.692 32.637-24.726 27.693-47.473 51.429-71.21 75.165-15.824 15.825-29.67 32.638-45.494 49.451-9.89 10.88-18.791 23.736-29.67 34.616-4.946 6.923-8.902 6.923-13.847 2.967-17.802-13.847-33.626-29.67-48.462-42.528 0-1.978-1.978-3.956-1.978-5.934zm119.671 109.78c8.901-13.846 19.78-23.736 28.682-34.615 14.835-15.824 28.681-30.66 44.505-46.484 18.792-20.769 37.583-42.527 57.363-64.286 9.89-8.9 15.824-17.802 24.725-26.703 19.78-21.758 42.528-45.495 64.286-69.231 12.858-14.835 28.682-14.835 49.451-12.857 14.835 0 32.638 3.956 50.44 0 15.824-1.978 28.681-13.846 37.582-24.726 2.967-1.978 3.956-5.934 5.934-8.9 15.825-15.825 31.649-33.627 45.495-48.462 2.967-1.978 4.945-3.956 8.901-6.923 5.934 6.923 14.835 13.846 21.759 19.78 11.868 9.89 20.769 17.802 29.67 26.703 5.934 3.956 5.934 6.923 1.978 12.857-15.824 15.825-29.67 29.67-44.506 45.495-11.868 10.88-24.725 12.857-38.571 12.857-6.923-1.978-12.857-1.978-18.791-4.945-13.847-3.956-26.704-3.956-38.572-1.978-5.934 0-12.857 1.978-15.824 6.923-14.835 13.846-28.682 29.67-41.539 44.506l-3.956 3.956c-20.77 22.747-42.528 44.506-62.308 67.253-27.692 28.681-53.407 57.363-78.132 86.044-19.78 22.747-39.56 44.506-60.33 66.264-1.978 0-3.956 1.978-3.956 1.978-8.901 8.901-8.901 8.901-17.802 0-13.846-9.89-26.704-23.736-39.56-34.615-2.968-3.956-5.935-6.923-6.924-9.89z" style="fill:#000;fill-opacity:1;fill-rule:nonzero;stroke:none;"/>
</svg>
