<svg xmlns="http://www.w3.org/2000/svg" viewBox="0 0 1000 1000"><path d="M48.74 130.75c26.67 0 45.872 2.134 405.387 23.47 41.606 0 84.278 6.4 124.817 6.4 19.203 0 30.938 5.335 42.673 22.404 35.204 70.41 80.01 135.485 119.482 208.028 60.809-50.14 125.884-94.946 190.96-142.953 22.402 50.14 44.805 98.147 62.941 150.42 0 0 0 2.134-4.267 2.134-22.403-2.134-50.14-13.868-78.944-19.203-2.134 9.602-3.2 17.07-3.2 28.804 0 42.673 0 70.41-4.268 109.882 0 14.935-6.4 20.27-20.27 27.737-129.083 52.274-252.833 106.681-382.984 158.955-118.416 50.14-238.966 106.68-361.649 156.82-13.868 7.469-21.336 7.469-13.868 0 13.868-13.868 29.87-22.402 42.672-33.07 115.216-91.746 235.765-183.492 356.315-272.037 13.868-13.869 17.069-23.47 13.868-38.405-23.47-83.211-46.94-161.089-70.41-244.3-3.2-14.935-13.868-17.069-26.67-22.403C302.64 216.095 168.223 178.756 28.47 142.485 15.668 138.218 15.668 138.218 5 130.75z"/></svg>