<svg xmlns="http://www.w3.org/2000/svg" viewBox="0 0 1000 1000"><path d="M785.21 327.85c24.066 20.785 44.85 41.568 68.915 64.54-5.469 4.375-8.75 9.845-13.126 15.314-29.535 30.629-57.976 62.351-87.51 95.168-8.752 6.563-15.315 17.502-26.254 26.253-14.22 12.033-28.44 16.408-47.037 12.033-8.75-2.188-13.126-2.188-21.877-4.376-41.568-10.939-55.788-5.47-85.323 27.347-9.845 12.033-22.972 25.16-33.91 38.286-28.441 32.816-55.788 61.257-84.23 89.698-18.595 18.596-35.003 39.38-53.6 59.07-12.032 13.126-22.971 28.44-36.098 41.567-5.469 7.658-9.844 7.658-16.408 3.282-20.784-16.408-39.38-35.004-57.975-50.319 0-3.281-2.188-5.469-2.188-7.657 7.657-10.939 18.596-20.783 28.44-31.722 13.127-16.408 29.535-31.723 42.662-48.131 29.535-31.723 57.976-63.445 87.51-94.074 10.94-14.22 20.784-27.347 33.91-38.286 16.41-16.408 35.005-20.783 55.789-18.596 13.126 0 26.253 2.188 40.473 2.188 20.784 4.376 36.099-4.375 52.507-14.22 4.375-4.376 7.657-8.751 12.032-10.94 18.596-20.783 40.474-43.754 59.07-66.726h2.188c24.065-25.16 48.13-54.694 74.384-82.041 2.188-2.188 5.47-2.188 7.657-7.657zM10.744 488.652c-7.657-9.845-7.657-12.032 0-22.971 10.939-10.939 24.065-25.16 35.004-37.192 7.657-8.751 12.033-13.127 18.596-20.784 12.033-13.126 31.723-15.314 52.506-13.126 12.033 0 28.441 2.187 43.756 2.187 22.971 0 40.473-4.375 53.6-20.783 24.065-24.066 44.849-48.131 68.914-71.103 10.94-13.126 24.066-27.347 33.91-40.473 13.127-13.127 24.066-26.254 38.287-39.38 9.844-13.127 20.783-22.972 30.628-37.192 21.878-21.878 42.662-44.85 61.258-65.633 4.375-5.47 7.657-8.751 13.126-14.22 9.845-10.94 20.784-20.784 31.723-33.91 5.47-5.47 7.657-5.47 16.408 0 2.188 0 2.188 2.187 4.375 5.469 16.409 13.126 32.817 26.253 44.85 42.661 3.281 2.188 5.469 4.376 10.938 10.939-16.408 12.033-27.347 25.16-39.38 41.567-13.126 10.94-24.065 22.972-33.91 37.192-6.563 2.188-8.75 7.658-12.032 10.94-25.16 28.44-50.319 54.693-75.478 84.228-25.16 26.253-48.13 50.319-71.102 76.572-6.564 8.75-10.94 13.126-16.409 20.783-10.938 8.752-21.877 15.315-33.91 21.878-6.563 2.188-14.22 4.376-21.878 2.188-13.126-2.188-24.065-8.751-37.192-8.751-18.596-2.188-39.38-4.376-54.694 10.939-12.032 7.657-16.408 16.408-24.065 26.253-19.69 19.69-33.91 33.91-50.319 52.506-8.75 8.751-13.126 14.22-18.596 21.878-7.657 7.657-10.938 7.657-19.69 3.281-14.22-16.408-33.91-31.722-49.224-45.943zM154.04 616.635c-8.75-8.75-8.75-10.938 0-18.596 0-3.281 2.188-6.563 4.376-8.75 18.596-18.597 37.192-39.38 52.506-57.976 14.22-13.127 25.16-24.066 37.192-36.098 8.751-8.751 19.69-18.596 27.347-29.535 10.939-10.939 20.784-16.408 36.098-16.408 16.408 3.281 35.004 3.281 50.319 5.469 16.408 2.188 32.816-2.188 45.943-7.657 20.784-13.127 33.91-33.91 52.506-50.319 2.188-4.375 7.657-8.75 9.845-13.126 25.16-26.253 50.319-55.788 75.478-82.041 12.033-13.127 22.971-24.066 33.91-37.192 20.784-20.784 39.38-41.568 60.164-62.352 0 0 2.187 0 2.187-4.375 10.94 8.75 21.878 16.408 29.535 27.347 10.94 7.657 22.972 18.596 35.004 29.535 2.188 2.187 4.376 7.657 0 9.845 0 2.187-3.281 4.375-3.281 8.75-13.127 12.033-26.253 25.16-39.38 39.38-26.253 29.535-52.506 56.882-79.853 86.417-6.564 10.939-17.502 20.784-28.441 31.723-7.657 7.657-16.408 16.408-24.066 26.253-20.783 29.535-50.318 31.722-82.04 24.065-9.846-4.375-20.784-4.375-33.911-7.657-9.845 0-24.065 5.47-32.816 13.127-22.972 22.971-45.943 50.318-67.821 73.29-9.845 10.938-20.784 21.877-28.441 31.722-18.596 22.972-38.286 40.474-56.882 61.258-4.375 5.469-9.845 10.938-15.314 18.596-5.47-4.376-9.845-7.658-13.127-10.94-15.314-12.032-31.722-28.44-47.037-43.755zm276.752 252.687c10.94-16.408 24.066-28.44 35.005-41.567 17.502-18.596 33.91-37.192 52.506-55.788 22.971-24.066 44.849-50.319 68.914-76.572 10.94-9.845 18.596-20.784 29.535-31.723 22.972-26.253 50.319-53.6 75.478-82.04 16.408-17.503 35.004-17.503 59.07-15.315 18.596 0 39.38 4.375 60.163 0 18.596-2.188 33.91-16.408 44.85-29.535 3.28-2.188 5.469-7.657 7.656-10.939 18.596-18.596 37.192-39.38 53.6-57.975 3.282-2.188 5.47-4.376 10.94-7.658 6.563 7.658 17.501 16.409 26.253 24.066 13.126 10.939 24.065 20.784 35.004 31.722 6.563 4.376 6.563 7.658 2.188 15.315-18.596 18.596-35.005 35.004-52.507 53.6-14.22 13.126-29.535 15.314-45.943 15.314-8.75-2.188-15.314-2.188-22.971-5.47-16.409-5.469-31.723-5.469-45.943-3.28-6.564 0-15.315 3.28-18.596 8.75-17.502 16.408-33.91 35.004-49.225 52.507l-5.47 5.469c-24.065 27.347-50.318 52.506-74.383 79.853-32.817 33.91-63.445 68.915-92.98 102.825-22.972 26.253-47.037 52.506-71.103 78.76-2.187 0-4.375 2.187-4.375 2.187-10.939 10.94-10.939 10.94-21.878 0-16.408-12.032-31.722-28.44-47.037-41.567-3.281-4.376-6.563-7.657-8.75-10.939z"/></svg>