<svg xmlns="http://www.w3.org/2000/svg" viewBox="0 0 1000 1000"><path d="M500.496 5C223.572 5 5 229.506 5 500.002c0 276.43 224.506 495.001 495.002 495.001 276.43 0 495.001-224.506 495.001-495.001C995.003 226.539 773.464 5 500.496 5zM258.188 204.78h94.945c5.934 0 12.857 4.946 14.835 10.88 71.21 108.792 69.231 107.803 143.407 225.495 26.704-42.527 101.869-143.407 162.199-228.462 5.934-5.934 9.89-7.912 18.791-7.912h92.967c-76.154 108.791-150.33 218.572-226.484 328.353h133.517v66.264H558.848v49.45h133.517v62.308H558.848V857.53c0 4.945-3.956 6.923-7.912 6.923h-80.11c-3.956 0-7.912-1.978-7.912-7.912V711.156H329.397v-62.308h133.517v-49.45H329.397V536.1h133.517C395.66 423.353 327.419 313.572 258.188 204.78z"/></svg>