<svg xmlns="http://www.w3.org/2000/svg" viewBox="0 0 1000 1000"><path d="M500.496 995.003c275.935 0 494.507-224.506 494.507-495.496C995.003 226.54 773.464 5 500.496 5 223.572 5 5 229.506 5 499.507c0 276.924 224.506 495.496 495.496 495.496zm-147.363-180.99V545.992c1.978 1.978 3.956 3.956 6.923 4.945l188.902 96.923v273.957c0 14.835-8.901 21.759-20.77 15.825l-154.286-86.045c-12.857-7.912-20.769-21.758-20.769-37.582zm0-310.55V306.65c0-5.934 1.978-9.89 4.945-12.857 5.934-10.879 18.791-17.802 36.594-27.692l286.814-147.363c9.89-3.956 17.802.989 17.802 12.857V326.43c-.989 11.868-6.923 23.736-17.802 29.67l-94.946 49.45 94.946 48.462c10.879 5.935 16.813 17.803 17.802 29.67V678.52c0 11.868-7.912 17.802-17.802 12.857l-311.54-160.22c-6.923-3.956-11.868-10.88-14.835-18.792-.989-1.978-1.978-4.945-1.978-8.9z"/></svg>