<svg xmlns="http://www.w3.org/2000/svg" width="1000" height="1000">
  <path d="M5 500.496c0 89.011 22.747 172.089 67.253 249.232 44.506 74.176 103.846 133.517 178.023 178.022 77.143 44.506 160.22 67.253 250.22 67.253 89.011 0 172.089-22.747 249.232-67.253 74.176-44.505 133.517-103.846 178.022-178.022 44.506-77.143 67.253-160.22 67.253-250.22 0-89.012-22.747-172.09-67.253-249.232-44.505-74.177-103.846-133.517-178.022-178.023C672.585 27.747 589.508 5 500.496 5c-90 0-173.077 22.747-250.22 67.253-74.177 44.506-133.517 103.846-178.023 178.023C27.747 327.419 5 410.496 5 500.496zm159.231 97.913v-86.045h686.376l2.967 2.967C776.431 598.41 698.3 682.475 619.178 764.563V612.255c0-8.901-1.978-13.846-10.88-13.846H170.166zm5.934-114.726c76.154-84.066 154.287-168.133 230.44-249.232h3.957v148.352c0 16.814 0 16.814 17.802 16.814h416.375c18.791 0 18.791 0 18.791 17.802v48.462c0 17.802 0 17.802-18.79 17.802H272.033z" style="fill:#000;fill-opacity:1;fill-rule:nonzero;stroke:none;"/>
</svg>
