<svg xmlns="http://www.w3.org/2000/svg" viewBox="0 0 1000 1000"><path d="M5 500.496C5 225.55 226.54 5 500.496 5c272.968 0 494.507 222.528 494.507 494.507 0 274.946-222.528 495.496-494.507 495.496C225.55 995.003 5 772.475 5 500.496zm107.803.99c12.857 19.78 23.736 40.549 35.604 61.318 23.736 43.517 49.45 86.044 74.176 130.55 1.978 2.967 3.956 5.934 7.912 5.934h95.935c2.967 0 4.945-.989 4.945-5.934v-71.21c0-4.944 0-4.944-4.945-5.933h-22.748c-4.945 0-8.9-.99-10.879-5.934-21.758-37.583-41.538-73.187-62.308-110.77-2.967-2.967-2.967-4.945 0-7.912 20.77-37.583 40.55-73.187 62.308-109.78 1.978-4.946 5.934-5.935 10.88-5.935h270.99v7.912c0 20.77 0 41.54.988 62.308 0 5.934-2.967 7.912-6.923 7.912 2.967 0-126.594-.989-126.594-.989v-62.307c0-4.946-.989-6.924-7.912-6.924h-86.044c-5.934 0-6.923 1.978-6.923 8.902v332.308c0 15.825-5.934 27.693-16.813 38.572-8.902 7.912-16.814 15.824-24.726 23.736-2.967 1.978-4.945 3.956-8.9 7.912h201.758c-30.66-25.714-56.374-51.428-52.418-93.956 3.956-1.978 6.923-1.978 8.901-1.978h336.265c5.934 0 8.901-.989 10.88-5.934 9.89-17.802 19.78-33.627 27.692-50.44 17.802-29.67 37.582-60.33 64.286-85.055 0-1.978 1.978-2.967 3.956-4.945-8.901-.99-15.824-1.978-20.77-1.978-38.571-1.978-76.154-1.978-113.736-1.978-3.956 0-4.945 0-7.912 3.956-6.923 19.78-14.835 38.571-22.748 55.385-1.978 6.923-5.934 7.912-12.857 7.912H688.41c-9.89 0-9.89 0-9.89-9.89V263.133c0-9.89 2.967-18.792 5.934-26.704 4.945-10.879 10.879-22.747 17.802-33.626.99-.99 1.978-4.945 1.978-7.912H548.958c3.956 6.923 25.714 52.417 28.681 88.022 0 7.912-1.978 8.901-7.912 8.901h-120.66c-6.923 0-8.9-.989-7.912-8.901 0-26.703 9.89-53.407 22.748-78.132 1.978-1.978 3.956-4.945 4.945-9.89H313.572c19.78 30.66 28.682 63.297 28.682 96.923h-109.78c-4.946 0-6.924.99-9.89 5.934-35.605 64.286-74.177 127.583-109.781 192.858-1.978 3.956-1.978 5.934 0 10.88zm329.341 111.758v-75.165h132.528v73.187c0 3.956-1.978 4.945-4.945 4.945h-120.66c-1.978 0-6.923-1.978-6.923-2.967zm84.067 181.978h200.77c-5.935-4.945-10.88-8.9-13.847-12.857-20.769-19.78-39.56-40.55-41.538-68.242 0-1.978-.99-4.945-3.956-4.945-28.682-1.978-55.385 0-84.067-1.978-2.967 0-3.956 2.967-3.956 6.923 0 14.835-6.923 29.67-14.835 40.55-7.912 8.901-15.824 16.813-24.725 27.692-2.967 3.956-7.912 7.912-13.846 12.857zm160.22-426.265c0 3.956 2.967 6.923 6.923 6.923 8.901-.989 16.813-.989 22.747 0 2.967 0 7.912.99 8.901 2.967 9.89 19.78 19.78 38.572 24.726 58.352.989 4.945 2.967 5.934 6.923 5.934 45.495 0 79.121 0 119.67-2.967 16.814 0 10.88-5.934 2.968-14.835-14.836-15.824-29.67-31.648-38.572-49.45-14.835-26.704-29.67-52.418-44.506-78.133-1.978-4.945-4.945-5.934-8.9-5.934h-93.957c-3.956 0-6.923.99-6.923 6.923z"/></svg>