<svg xmlns="http://www.w3.org/2000/svg" width="1000" height="1000">
  <path d="M967.669 660.603c-182.876 41.8-355.301 14.369-513.358-87.519C298.866 472.502 202.204 326.202 181.304 135.49 46.759 243.908-38.147 476.42 46.759 681.503 136.891 899.648 360.26 1022.436 594.08 989.78c176.344-24.818 367.058-197.244 373.589-329.176zM324.992 135.49c43.106 26.125 88.825 47.025 137.156 69.231 171.12 60.088 348.77 121.482 525.115 182.876v-14.369C953.3 250.44 878.843 149.857 770.424 80.626 635.88-5.587 489.58-16.037 339.36 38.826c-61.394 22.206-61.394 60.088-14.368 96.663z" style="fill:#000;fill-opacity:1;fill-rule:nonzero;stroke:none;"/>
</svg>
