<svg xmlns="http://www.w3.org/2000/svg" width="1000" height="1000">
  <path d="M994.952 499.843c-3.807 267.79-225.907 503.85-503.849 493.697C227.121 983.387 2.483 777.785 5.022 499.843 7.56 226.978 222.045 6.147 505.064 6.147c274.134 0 493.696 230.984 489.888 493.696zm-935.357 0c0 246.214 201.793 448.008 441.661 442.931 229.715 5.077 435.316-187.833 435.316-439.123 0-247.483-201.794-441.662-435.316-441.662-244.944 0-441.661 199.256-441.661 437.854zm121.837-144.682c19.037-5.076 30.46-3.807 44.42-3.807l-20.306-53.304c7.615-5.077 16.499-5.077 21.575-5.077H364.19c19.037 0 26.652 5.077 32.997 19.037 5.077 15.23 8.885 24.114 13.961 38.075h126.914c0 24.113-6.345 40.612-13.96 41.881-19.037 0-276.673 3.808-324.9 3.808-5.077-12.692-8.885-26.652-17.769-40.613zm31.729 64.726c-2.538-3.807 19.037-3.807 27.921-3.807H510.14c0 22.845-11.422 36.805-19.037 46.958H256.312c-24.114 0-24.114 0-34.267-24.113-1.27-3.808-3.808-8.884-8.884-19.038zm81.225 83.764c-2.538-3.808 12.691-3.808 19.037-3.808h151.028c12.691 0 12.691 8.884 21.575 19.037 5.077 6.346 10.154 15.23 15.23 22.845 36.805-85.033 74.88-164.988 111.685-248.752h118.03c22.844 0 43.15 0 65.995 5.077-8.884 20.306-15.23 32.997-22.844 52.035h36.805c-2.538 19.037-8.884 32.997-8.884 45.689H747.47c0 10.153-1.27 12.691-3.808 20.306 16.5 0 30.46 0 44.42 3.807-6.345 13.96-13.96 30.46-19.037 43.151-15.23 0-27.92 0-48.227 5.077-40.613 93.916-85.033 187.833-125.645 280.48H406.07c-36.805-78.687-74.879-163.72-111.684-244.944z" style="fill:#000;fill-opacity:1;fill-rule:nonzero;stroke:none;"/>
</svg>
