<?xml version="1.0" encoding="UTF-8"?><svg id="a" xmlns="http://www.w3.org/2000/svg" viewBox="0 0 1000 1000"><path d="M977.669,554.491c3.632,9.699,5.133,20.067,4.406,30.399-.722,10.33-3.663,20.382-8.618,29.481-4.955,9.099-11.802,17.02-20.09,23.239l-404.561,303.393,303.421-404.525c6.206-8.274,14.112-15.117,23.198-20.067,9.076-4.952,19.108-7.898,29.425-8.636,10.307-.743,20.665,.743,30.356,4.35,9.691,3.607,18.502,9.249,25.818,16.549,7.336,7.316,13.013,16.122,16.646,25.818ZM483.607,124.425c4.955-9.096,7.89-19.151,8.618-29.483,.727-10.33-.778-20.698-4.411-30.397-3.632-9.699-9.305-18.505-16.641-25.818-7.321-7.3-16.127-12.945-25.818-16.551-9.696-3.604-20.044-5.087-30.361-4.347-10.312,.738-20.349,3.683-29.425,8.636-9.076,4.952-16.992,11.792-23.198,20.064L58.957,451.054,463.518,147.659c8.282-6.214,15.14-14.138,20.09-23.234Zm508.479-52.254c-5.718-14.534-14.356-27.736-25.386-38.791-11.06-11.052-24.277-19.713-38.816-25.444-14.55-5.731-30.122-8.409-45.745-7.865-15.623,.542-30.971,4.291-45.089,11.014-14.117,6.725-26.693,16.282-36.959,28.074L0,999.997,960.921,199.829c11.772-10.261,21.306-22.832,28.016-36.934,6.71-14.099,10.454-29.427,10.994-45.035,.544-15.605-2.126-31.157-7.845-45.689Z"/></svg>