<?xml version="1.0" encoding="utf-8"?>
<!-- Generator: Adobe Illustrator 24.2.3, SVG Export Plug-In . SVG Version: 6.00 Build 0)  -->
<svg version="1.1" id="Layer_1" xmlns="http://www.w3.org/2000/svg" xmlns:xlink="http://www.w3.org/1999/xlink" x="0px" y="0px"
	 viewBox="0 0 1000 1000" style="enable-background:new 0 0 1000 1000;" xml:space="preserve">
<path d="M500,0C223.9,0,0,223.9,0,500s223.9,500,500,500s500-223.9,500-500S776.1,0,500,0z M179.4,693.1c-14.9,0-27-12.1-27-27
	s12.1-27,27-27s27,12.1,27,27S194.3,693.1,179.4,693.1z M179.4,527c-14.9,0-27-12.1-27-27s12.1-27,27-27s27,12.1,27,27
	S194.3,527,179.4,527z M179.4,360.9c-14.9,0-27-12.1-27-27c0-14.9,12.1-27,27-27s27,12.1,27,27C206.4,348.8,194.3,360.9,179.4,360.9
	z M337.8,801.3c-25.6,0-46.4-20.8-46.4-46.4c0-25.6,20.8-46.4,46.4-46.4c25.6,0,46.4,20.8,46.4,46.4
	C384.1,780.5,363.4,801.3,337.8,801.3z M337.8,546.4c20.3,0,36.7,16.4,36.7,36.7s-16.4,36.7-36.7,36.7c-20.3,0-36.7-16.4-36.7-36.7
	S317.5,546.4,337.8,546.4z M301.1,420.8c0-20.3,16.4-36.7,36.7-36.7c20.3,0,36.7,16.4,36.7,36.7c0,20.3-16.4,36.7-36.7,36.7
	C317.5,457.5,301.1,441.1,301.1,420.8z M337.8,295.3c-25.6,0-46.4-20.8-46.4-46.4c0-25.6,20.8-46.4,46.4-46.4
	c25.6,0,46.4,20.8,46.4,46.4C384.1,274.5,363.4,295.3,337.8,295.3z M500,894c-32,0-57.9-25.9-57.9-57.9s25.9-57.9,57.9-57.9
	c32,0,57.9,25.9,57.9,57.9S532,894,500,894z M500,380.3c-25.6,0-46.4-20.8-46.4-46.4s20.8-46.4,46.4-46.4s46.4,20.8,46.4,46.4
	S525.6,380.3,500,380.3z M536.7,500c0,20.3-16.4,36.7-36.7,36.7c-20.3,0-36.7-16.4-36.7-36.7s16.4-36.7,36.7-36.7
	C520.3,463.3,536.7,479.7,536.7,500z M500,619.8c25.6,0,46.4,20.8,46.4,46.4c0,25.6-20.8,46.4-46.4,46.4s-46.4-20.8-46.4-46.4
	C453.6,640.5,474.4,619.8,500,619.8z M500,221.9c-32,0-57.9-25.9-57.9-57.9c0-32,25.9-57.9,57.9-57.9c32,0,57.9,25.9,57.9,57.9
	C557.9,195.9,532,221.9,500,221.9z M644.9,811c-32,0-57.9-25.9-57.9-57.9s25.9-57.9,57.9-57.9s57.9,25.9,57.9,57.9
	S676.9,811,644.9,811z M644.9,534.8c25.6,0,46.4,20.8,46.4,46.4s-20.8,46.4-46.4,46.4c-25.6,0-46.4-20.8-46.4-46.4
	S619.3,534.8,644.9,534.8z M598.5,420.8c0-25.6,20.8-46.4,46.4-46.4c25.6,0,46.4,20.8,46.4,46.4s-20.8,46.4-46.4,46.4
	C619.3,467.2,598.5,446.4,598.5,420.8z M644.9,306.9c-32,0-57.9-25.9-57.9-57.9c0-32,25.9-57.9,57.9-57.9s57.9,25.9,57.9,57.9
	C702.8,280.9,676.9,306.9,644.9,306.9z M789.7,724c-32,0-57.9-25.9-57.9-57.9c0-32,25.9-57.9,57.9-57.9s57.9,25.9,57.9,57.9
	C847.7,698.1,821.7,724,789.7,724z M789.7,557.9c-32,0-57.9-25.9-57.9-57.9c0-32,25.9-57.9,57.9-57.9s57.9,25.9,57.9,57.9
	C847.7,532,821.7,557.9,789.7,557.9z M789.7,391.8c-32,0-57.9-25.9-57.9-57.9c0-32,25.9-57.9,57.9-57.9s57.9,25.9,57.9,57.9
	C847.7,365.9,821.7,391.8,789.7,391.8z"/>
</svg>
