<svg xmlns="http://www.w3.org/2000/svg" width="1000" height="1000">
  <path d="M394.651 313.664c4.312-38.802 9.7-78.681 17.246-117.483 7.544-42.036 19.4-84.071 31.257-125.029 30.179-87.304 76.525-90.537 113.172 4.312 20.478 58.203 47.424 195.087 47.424 243.59 29.102-12.935 58.203-24.79 85.149-36.647 5.389-3.233 10.778-9.7 12.934-15.09 9.7-24.79 31.257-32.334 53.891-19.4 7.545 4.31 17.246 4.31 24.79 2.155 57.125-10.778 82.993-20.479 122.873-11.856 26.946 4.311 36.646 21.557 24.79 44.191-30.18 65.748-99.16 116.406-195.087 198.32-6.467 7.546-14.012 12.935-23.712 20.48 6.467 4.31 14.011 11.856 23.712 16.167 61.436 47.425 122.872 93.771 170.297 155.208 9.7 15.09 19.4 29.1 24.79 44.19 9.7 22.635 0 39.88-24.79 44.192-32.335 9.7-66.826 2.155-95.927-7.545-59.28-17.245-118.561-40.958-176.764-61.437-7.545-2.155-17.245-7.544-24.79-9.7-7.545 39.88-9.7 76.526-17.245 115.328-9.7 42.035-19.401 84.07-32.335 126.106-4.312 14.012-11.856 29.101-19.401 44.191-24.79 36.646-51.736 36.646-76.526-3.234-12.934-30.179-17.245-40.957-34.49-90.537-2.156-7.545-9.701-15.09-14.012-19.401-19.401-15.09-22.635-34.49-12.934-53.892 5.389-8.622 7.544-9.7 7.544-17.245-2.155-32.335-7.544-66.825-11.856-101.316-60.358 12.934-214.488 98.083-297.48 80.837-26.947-6.467-36.647-23.712-24.79-50.658 7.544-20.479 19.4-37.724 34.49-54.97 46.346-53.89 103.471-100.237 162.752-142.273 6.467-4.311 11.856-9.7 19.4-14.011-26.945-22.635-53.89-45.27-84.07-64.67-2.156-2.156-9.7-4.312-14.012-4.312-26.945 0-39.88-12.933-42.035-36.646-2.156-7.545-5.39-15.09-9.7-20.479-17.246-19.4-34.491-36.646-49.58-56.047-9.701-12.934-15.09-22.634-19.402-36.646-20.478-52.814 56.048-58.203 120.717-37.724 67.904 20.479 134.73 44.191 203.71 68.981zM87.47 731.862c42.035 42.036 228.5-48.502 305.026-76.526 2.155-90.537 4.31-85.148-66.826-132.573-7.545-5.389-17.245-2.155-21.556 0-20.48 11.856-39.88 24.79-54.97 39.88-44.19 38.802-88.382 80.837-132.573 121.795-11.856 12.934-33.413 40.957-29.101 47.424zm0-472.09c2.155 24.79 38.802 68.982 63.592 93.772 7.544 7.545 12.934 11.856 24.79 7.545 22.634-5.39 46.346 11.856 44.19 31.257-5.388 22.634 9.701 30.179 22.635 39.88 14.012 11.856 29.102 21.556 44.191 31.257 26.946 20.478 26.946 20.478 53.892 3.233 11.856-7.545 24.79-15.09 36.646-24.79 4.311-2.156 9.7-9.7 9.7-15.09 2.156-26.945 5.39-51.736 5.39-80.837-78.682-34.49-157.364-71.137-243.59-86.226-17.245-2.156-57.125-9.7-61.436 0zm247.9 241.435c19.402 9.7 34.491 19.4 51.736 31.257v-63.592c-17.245 9.7-32.334 19.4-51.735 32.335zm76.527-3.234c4.31 51.736 2.155 51.736 44.19 76.526 44.192 24.79 42.036 21.557 86.227 0 34.49-17.245 35.568-33.413 38.802-68.981 0-56.047 2.155-53.892-36.646-78.682-32.335-24.79-59.281-21.556-90.538 0-32.335 17.246-44.191 36.647-42.035 71.137zm4.31 142.274c20.48-9.7 37.725-17.246 54.97-26.946-20.479-11.856-34.49-21.557-54.97-31.257zm0-223.111c20.48-9.7 37.725-19.401 54.97-32.335-20.479-9.7-34.49-17.245-54.97-26.946zm3.234 253.29c4.312 34.49 9.7 68.981 14.012 103.472 0 6.467 7.545 11.856 12.934 17.245 19.401 11.856 26.946 33.413 11.856 50.658-11.856 12.934-9.7 22.634-4.311 37.724 6.467 19.4 11.856 38.802 21.556 58.203 7.545 19.4 12.934 32.335 29.102 32.335 30.18-6.467 59.28-196.165 74.37-299.637-24.79-15.09-46.347-26.946-71.137-36.646-5.389-3.234-12.934-3.234-17.245-3.234-22.634 12.934-47.424 24.79-71.137 39.88zm0-339.517c23.713 12.934 48.503 24.79 71.137 36.647 4.311 3.233 11.856 3.233 17.245 0 24.79-11.856 46.347-23.713 71.137-36.647a1032.766 1032.766 0 0 0-9.7-80.837c-8.623-70.059-42.036-218.8-64.67-220.955-57.125 0-72.215 210.177-85.149 301.792zm19.401 170.298c0-34.491 26.946-61.437 59.28-61.437 34.491 0 61.437 26.946 61.437 58.203 0 34.49-26.946 61.436-59.28 61.436-34.491 0-61.437-26.945-61.437-58.202zM527.224 613.3c19.401 9.7 34.49 17.245 51.736 24.79 3.234 1.078 2.156-29.101 2.156-56.047-17.245 9.7-34.49 19.4-53.892 31.257zm0-225.267c19.401 9.7 36.647 19.401 56.047 31.258 0-21.557-2.155-38.802-2.155-61.437-19.401 9.7-34.49 20.479-53.892 30.18zm78.682 265.147c73.292 31.257 147.663 65.747 226.344 82.993 23.712 5.389 48.503 7.544 75.448 0-4.311-26.946-19.4-44.192-34.49-61.437-44.191-51.736-98.083-92.693-151.974-132.573-34.49-26.946-34.49-26.946-71.137-2.156-9.7 5.39-19.401 9.7-29.101 17.246-5.39 5.389-10.779 9.7-10.779 15.09-2.155 26.945-2.155 53.89-4.311 80.837zm2.156-307.182c-2.156 86.226-2.156 86.226 61.436 127.184 12.934 7.545 19.4 10.778 30.18 0 33.412-26.946 67.902-48.502 100.237-77.604 32.335-30.179 61.437-59.28 90.538-91.615 7.545-9.7 15.09-22.635 20.479-38.802-33.413-14.012-80.837-4.311-133.651 11.856-2.156 2.156-3.234 7.545-6.467 11.856-15.09 24.79-30.18 30.18-54.97 20.479-4.31-3.234-11.856-5.39-16.167-3.234-32.335 12.934-61.436 28.024-91.615 39.88zm5.389 186.465c14.011-11.856 29.101-21.557 48.502-31.257-17.245-12.934-34.49-22.635-48.502-32.335z" style="fill:#000;fill-opacity:1;fill-rule:nonzero;stroke:none;"/>
</svg>
