<svg xmlns="http://www.w3.org/2000/svg" viewBox="0 0 1000 1000"><path d="M289,2,87,204H251C273,124,359,17,385,2ZM483,204V2H437C351.4,63.6,302.7,162.3,289,204Zm39,0H718C672.4,95.2,598.3,24,567,2H522Zm234,0H915L711,2H621C685.8,61.2,731,144,756,204Zm-43,796L915,798H751c-22,80-108,187-134,202ZM519,798v202h46c85.6-61.6,134.3-160.3,148-202Zm-39,0H284c45.6,108.8,119.7,180,151,202h45Zm-234,0H87l204,202h90C316.2,940.8,271,858,246,798ZM469.7,584.5q0,37.05-10.4,67c-6.9,19.5-16.5,36.2-28.6,50a126.31,126.31,0,0,1-43.6,31.2,144.67,144.67,0,0,1-55.2,10.4q-30.6,0-55.9-10.4a125.92,125.92,0,0,1-43.5-31.2c-12.1-13.4-21.7-29.9-28.6-49.4q-9.75-29.25-9.8-65.6c0-25.1,3.2-48.5,9.8-70.2a390.72,390.72,0,0,1,26.7-64.4l91-178.1h85.2L313.2,449.3l.7.7a46.7,46.7,0,0,1,18.2-9.8,81.4,81.4,0,0,1,22.1-3.2,107.19,107.19,0,0,1,43.6,9.1,92.32,92.32,0,0,1,37,26.7q16.2,17.55,25.4,45.5Q469.65,546.05,469.7,584.5Zm-74.1-.7q0-40.35-15.6-66.3t-46.8-26a49.31,49.31,0,0,0-26.6,7.2,64.22,64.22,0,0,0-20.1,20.1,95.25,95.25,0,0,0-13,29.2,143.85,143.85,0,0,0-4.6,37.1q0,42.3,16.9,68.2,16.95,25.35,46.8,25.3t46.2-26C390,635,395.6,612,395.6,583.8ZM593.2,734V273.8H799.3v68.9H668V464.9H789.6v63.7H668V664.5H805.8V734Z"/></svg>