<svg xmlns="http://www.w3.org/2000/svg" width="1000" height="1000">
  <path d="M849.85 796.053V995c-2.708 0-2.708 0-2.708-2.707-144.812-98.797-289.624-196.24-435.789-297.744-2.707-5.414-5.414-10.827-5.414-18.948V486.128c-6.766-9.474 0-12.18 9.474-21.654 62.256-28.421 120.451-60.903 177.293-90.677 5.414-4.06 8.12-6.767 14.888-9.474-90.677-51.428-180-102.857-272.03-156.992v20.3c-2.707 211.128-2.707 423.61-2.707 634.737 0 9.474-5.414 16.241-16.24 24.361-50.076 25.715-100.151 54.136-151.58 82.557-2.707 0-8.12 4.06-14.887 4.06V113.947c0-5.413 6.767-16.24 12.18-18.947 54.136-28.421 104.21-54.135 158.346-83.91 12.18-8.12 18.948-8.12 28.421 0 144.812 81.203 290.978 163.76 435.79 242.256 12.18 8.12 14.887 16.24 14.887 28.42V459.06c0 14.887-2.707 20.3-14.887 24.361-64.963 35.188-129.925 73.083-198.948 105.564-2.706 2.707-6.767 6.767-13.533 10.827 32.48 21.654 60.902 43.308 89.323 64.962 63.609 43.309 128.571 86.617 188.12 131.279z" style="fill:#000;fill-opacity:1;fill-rule:nonzero;stroke:none;"/>
</svg>
