<svg xmlns="http://www.w3.org/2000/svg" viewBox="0 0 1000 1000"><path d="M743.37 322.797c0-22.405-15.276-37.681-33.607-37.681h-37.681c-18.331 0-31.57 9.166-39.718 24.442-16.294 31.57-31.57 59.067-49.902 89.62-6.11 13.239-15.276 18.33-28.515 18.33-15.276 0-24.442-5.091-30.552-20.367-9.166-28.516-22.405-56.013-34.626-84.528-5.092-18.331-15.276-34.626-36.663-37.681-21.386 0-27.497 19.35-37.68 34.626-58.05 112.024-117.117 223.03-176.185 334.037-6.11 10.184-12.22 19.35-15.276 25.46-9.166 25.46 6.11 45.828 31.57 48.884h42.774c15.276 0 25.46-8.148 30.552-21.387 18.331-33.607 34.626-65.178 52.957-95.73 6.11-15.276 15.276-25.46 33.607-25.46 16.295 4.073 22.405 13.239 28.516 28.515 12.22 31.57 22.405 62.123 34.625 92.675 6.11 15.276 11.203 25.46 30.553 28.515 15.276 0 28.515-10.184 33.607-25.46L737.26 338.073c3.055-7.129 3.055-12.22 6.11-15.276zM10.118 666c-13.24 25.46 0 48.883 30.552 51.939h18.332c21.386 0 42.773 0 56.012-21.387 61.104-121.19 126.282-241.362 188.405-358.479 9.166-12.22 9.166-28.515-3.055-37.68-6.11-9.167-18.331-12.222-27.497-12.222-65.178-3.055-59.068-6.11-87.583 45.828-58.05 112.025-117.117 220.995-175.166 332zm655.854 3.055c-12.221 27.497 3.055 48.884 33.607 48.884h115.08c16.294 0 27.497-8.148 31.57-23.424 5.092-16.294 0-31.57-15.276-37.68-32.589-18.332-66.196-33.608-96.748-48.884-19.35-10.184-34.626-4.074-42.773 15.276-10.184 15.276-15.276 30.552-25.46 45.828zm157.853-290.246c-6.11 11.203-3.056 23.424 10.184 33.608 8.147 12.22 23.423 15.276 35.644 5.092 37.68-23.424 75.362-45.829 112.024-71.289 12.221-8.147 15.277-23.423 12.221-36.662-2.036-15.276-15.276-24.442-30.552-24.442h-74.343c-9.166 3.055-21.387 9.166-24.442 15.276-15.276 25.46-28.516 49.902-40.736 78.417z"/></svg>