<?xml version="1.0" encoding="utf-8"?>
<!-- Generator: Adobe Illustrator 26.0.1, SVG Export Plug-In . SVG Version: 6.00 Build 0)  -->
<svg version="1.1" xmlns="http://www.w3.org/2000/svg" xmlns:xlink="http://www.w3.org/1999/xlink" x="0px" y="0px"
	 viewBox="0 0 1000 1000" style="enable-background:new 0 0 1000 1000;" xml:space="preserve">
<g id="Layer_1">
</g>
<g id="Layer_3">
</g>
<g id="Layer_2">
	<g>
		<g>
			<path d="M506.2,732.8c-11.2,0-20.3,3.8-20.3,8.8c0,4.9,9.1,8.9,20.3,8.9c11.2,0,20.3-4,20.3-8.9
				C526.5,736.8,517.4,732.8,506.2,732.8z"/>
			<path d="M654.2,606.1c-61.7,27-69.3,88.5-69.3,88.5v0.2c0,0,89.2,13.2,137.2-13.5c40.5-22.5,43.8-88.9,43.8-88.9
				S695.5,587.9,654.2,606.1z"/>
			<path d="M355.8,605.9v0.1C314.5,587.8,244,592.4,244,592.4s3.3,66.4,43.8,88.9c48,26.7,137.3,13.5,137.3,13.5
				S417.4,633.1,355.8,605.9z"/>
		</g>
		<path d="M853.6,146.4C759.8,52.7,632.6,0,500,0S240.2,52.7,146.4,146.4C52.7,240.2,0,367.4,0,500s52.7,259.8,146.4,353.6
			C240.2,947.3,367.4,1000,500,1000s259.8-52.7,353.6-146.4C947.3,759.8,1000,632.6,1000,500S947.3,240.2,853.6,146.4z M855.6,613.9
			c0,19.7-2.3,38.9-6.7,57.5c20.3,3.3,40.2,8.7,59.5,16.1c1.7,0.5,3.2,1.7,4.1,3.3c0.9,1.6,1.2,3.4,0.7,5.2
			c-0.5,1.8-1.7,3.3-3.3,4.2c-1.6,0.9-3.5,1.2-5.3,0.7c-19.2-7.4-39.1-12.7-59.3-15.9c-4.1,13.8-9.3,27.2-15.6,40.1
			c2.6,0.7,5.2,1.5,7.8,2.3c16.4,4.9,34,11.5,46.8,23.4c6.6,6.1-3.3,15.9-9.8,9.8c-5.4-4.7-11.5-8.5-18.1-11.4
			c-7.6-3.5-15.5-6.4-23.5-8.7c-3.2-1-6.5-1.9-9.7-2.7c-6.2,11.2-13.2,22-20.9,32.3c15.6,9.2,30,20.5,40.5,35
			c0.9,1.6,1.2,3.5,0.7,5.3c-0.5,1.8-1.6,3.3-3.2,4.2c-1.6,0.9-3.5,1.1-5.3,0.7c-1.8-0.5-3.3-1.6-4.2-3.2c-8-11-19.3-19.6-30.7-26.8
			c-2.2-1.4-4.4-2.7-6.6-4c-63.5,77.1-169.7,127.5-289.9,127.5c-119.6,0-225.3-50-288.9-126.5c-1.8,1.1-3.7,2.2-5.5,3.4
			c-11.1,7.1-22.3,15.5-30.1,26.3c-1,1.6-2.5,2.7-4.3,3.1c-1.8,0.5-3.7,0.2-5.3-0.7c-1.6-0.9-2.7-2.5-3.2-4.2
			c-0.5-1.8-0.2-3.7,0.7-5.3c9.2-11.9,20.5-22.1,33.3-30c1.8-1.2,3.7-2.3,5.5-3.5c-8-10.5-15.1-21.5-21.5-32.9
			c-2.7,0.7-5.4,1.5-8.1,2.3c-14.5,4.3-31.1,10.2-41.7,20.1c-6.6,6.1-16.4-3.7-9.8-9.8c12.9-11.9,30.5-18.4,46.9-23.4h0
			c2-0.6,4-1.2,6-1.8c-6.4-13-11.7-26.4-15.8-40.2c-19.6,3.2-38.8,8.4-57.4,15.6c-1.8,0.5-3.7,0.2-5.3-0.7c-1.6-0.9-2.8-2.4-3.3-4.2
			c-0.4-1.8-0.2-3.7,0.7-5.2c0.9-1.6,2.4-2.8,4.1-3.3l0,0c18.6-7.2,37.9-12.4,57.4-15.7c-4.5-18.8-6.9-38.3-6.9-58.2
			c0-18,2-35.8,5.7-53.2c-14.3-1-25.3-2-32.1-3.1c-39.6-6.2-85-17.7-77-30.2c5.6-8.8,50-33.2,108.2-51.1c-6.2-34-10.9-68.9-5.6-103
			c5.7-52.8,23.8-68.9,78.3-55.4c6.1,1.4,12.6,3.3,19.4,5.6c16.4-29.6,43.7-78.7,43.5-78.8c-16.1-7.3-31.5-16-46.2-25.9
			c-1.5-1.2-3-2.5-4.3-3.9c-6.8,10.8-24.1,23.8-24.1,23.8s19.2,33.8,13.1,40.8c-6.1,7-40.4-14.3-40.4-14.3s-26.1,29.4-34.7,25
			c-8.5-4.5,1.1-42.8,1.1-42.8s-37-15.7-34.5-25.1c2.5-9.3,41.1-12.2,41.1-12.2s-2.2-38,9.6-39.7v0c11.8-1.7,27.8,34.3,27.8,34.3
			s25.2-6.8,37.2-3.6c1.1-2,2.8-4.3,3.8-5.5c3.8-4.4,7.9-8.5,12.4-12.2c10.7-8.8,21.9-16.8,33.6-24.2c5.6-3.7,11.3-7.2,17-10.9
			c40-25.5,61.9-44.6,98.5-65.7c35-20.1,52-32.4,92.6-30.3c51,0,177.8,161.5,234.9,244.7c5.8,8.5,12,18.1,18.3,28.4
			c9.1-3.3,17.8-6.1,25.8-7.9c54.4-13.5,72.5,2.6,78.2,55.4c5.3,34.2,0.6,69.4-5.7,103.6c49,15.5,95.4,36.7,107.2,50.5
			c11.1,12.9-37.5,18.7-85.3,27c-5.4,0.9-12.2,1.8-20.3,2.7C853.3,575.7,855.5,594.7,855.6,613.9z"/>
	</g>
</g>
</svg>
