<svg xmlns="http://www.w3.org/2000/svg" viewBox="0 0 1000 1000"><path d="m879.09 696.183-6.272 65.23c0 18.816-11.29 36.378-33.869 58.957-11.29 11.29-17.562 23.834-20.07 37.633-3.764 17.562-12.545 38.887-23.835 38.887-22.579 0-41.395 0-58.957-21.325l42.65-48.923v-11.29l-53.94 11.29c-160.565 33.87-311.095 21.325-464.134-28.851-61.466-20.07-95.335-65.23-115.406-130.46 191.926 111.644 400.159 105.372 602.12 112.898l6.272-1.254c-17.562-23.834-45.16-50.177-62.721-66.484h16.307c33.87 2.508 70.248-20.071 99.1 8.78 6.271 6.273 15.052 0 21.324-6.272 11.29-11.29 17.562-7.526 28.852-18.816 6.272-6.272 16.307 0 22.58 0zM117.66 470.388c52.685 48.923 119.17 89.064 190.671 111.643 70.247 22.58 143.004 13.799 224.54 13.799l-16.307-31.36c22.58 0 42.65-5.018 58.958 0 22.58 7.526 35.123 6.272 46.413-5.018 6.272-6.272 15.053-12.544 26.343-12.544-11.29 37.632 0 65.23-37.633 102.862-6.272 6.272-6.272 12.544-12.544 23.834-21.325 37.632-27.597 41.395-58.957 16.307 6.272-11.29 11.29-16.307 17.561-22.58l-17.561-5.017H389.868c-81.537 0-158.056-26.343-227.05-72.756-42.65-28.852-57.702-58.958-45.158-119.17zm38.887-168.091c8.78 17.561 20.07 31.36 31.36 42.65 17.562 17.562 33.87 33.869 55.194 47.668 23.834 16.307 45.16 28.851 76.52 11.29 33.87-5.018 70.247 23.833 99.099-16.308 0 33.87 0 60.212-28.852 89.063-5.018 5.018-5.018 11.29-5.018 17.562 0 36.378-22.579 36.378-47.667 16.308l5.017-11.29c0-5.018 6.272-5.018 6.272-11.29v-6.272c-65.23 17.562-120.424-5.018-166.837-37.632-56.449-38.887-58.957-70.248-25.088-141.75zm48.922-89.064c17.562-17.562 26.343-31.36 42.65-47.668 35.124 70.248 100.353 81.537 159.311 96.59 37.632 10.036 77.774 23.834 114.152 23.834 11.29 0 18.816 1.255 28.851-12.544 5.018-6.272 20.071-11.29 31.36-11.29 22.58 0 40.142 6.272 55.195-8.78 6.272-6.273 11.29 0 16.307 0-5.017 32.614-12.544 57.702-31.36 80.282-5.018 6.272-6.272 17.562-11.29 22.58-23.834 23.833-25.088 26.342-46.413 11.29-7.527-5.018-18.816-11.29-31.36-11.29-110.389 0-250.884-22.58-322.385-99.1-15.053-16.307-22.58-26.342-5.018-43.904zM330.911 896.89c185.653 61.466 371.307 61.466 555.706 6.272-168.092 136.731-461.625 109.134-555.706-6.272zm28.851-748.887c-57.703-31.36-41.396-42.65 0-70.247 7.527-5.018 18.816-12.544 25.088-17.562 27.598 62.721 104.117 76.52 190.672 70.248l66.484-5.018c-5.018 17.562-5.018 33.87-11.29 51.431-5.018 13.799-15.053 31.36-26.343 47.668-11.29 17.562-22.58 6.272-40.141-5.018 6.272-6.272 11.29-17.562 22.58-28.851h-36.379c-58.957 0-132.968 5.017-183.144-36.379zM473.914 38.87c0-16.307 13.799-25.088 25.088-26.343C535.38 8.763 575.522 5 610.645 5l96.59 11.29c11.29 1.254 22.58 6.272 33.87 11.29 25.088 11.29 13.798 25.088-16.308 32.614-76.52 17.562-154.293 23.834-225.795 0-7.526-2.509-17.561-2.509-25.088-21.325zm85.3 0h94.081c-28.851-22.58-82.791-22.58-94.08 0z"/></svg>