<svg xmlns="http://www.w3.org/2000/svg" viewBox="0 0 1000 1000"><path d="M448.968 5h2.18c35.98 29.438 71.961 59.967 99.219 95.948 52.335 67.599 62.148 140.65 43.612 221.333l-13.083 44.703c-10.903 32.71-8.723 64.328 16.354 87.225 23.987 23.987 68.69 26.167 94.858 6.542 25.077-16.355 33.8-39.252 35.98-68.69 0-3.271 2.18-7.632 4.361-11.994 2.18 0 4.361 2.181 4.361 2.181 42.523 53.425 81.774 107.941 95.948 176.63 19.625 87.226 5.451 170.09-53.425 244.23-27.258 31.62-62.148 52.336-102.49 68.69-33.8 15.265-65.419 30.53-97.038 49.064-29.438 17.445-45.793 44.703-61.057 74.142h-7.632c-2.18 0-4.362-3.271-6.542-3.271-79.593-14.174-149.373-49.064-211.52-102.49-55.607-46.883-97.039-101.399-118.845-170.088-7.632-23.987-9.813-44.703-15.264-68.69v-42.522c2.18-6.542 2.18-11.994 2.18-21.806 2.181-45.794 15.265-92.677 38.161-133.019 26.168-45.793 59.968-80.683 93.767-119.934 33.8-37.07 73.051-71.96 106.85-113.392 31.62-38.161 51.246-82.864 51.246-136.29 0-26.167 0-51.244-2.181-78.502zM303.956 650.465c0 9.813 4.362 10.903 13.084 10.903h103.58c10.903 0 16.354 4.361 16.354 13.084-2.18 35.98-2.18 69.78-2.18 106.85 0 7.633 3.27 9.813 11.993 9.813h103.58c7.632 0 11.993-2.18 9.813-9.813v-104.67c0-15.264 0-15.264 14.174-15.264h104.67c8.722 0 13.084-1.09 10.903-10.903v-101.4c2.18-8.722-2.18-14.173-10.903-14.173H317.04c-8.722 0-13.084 2.18-13.084 14.174 2.181 32.71 2.181 67.6 0 101.399zM681.204 215.43c26.168-34.89 35.98-46.883 33.8-91.586 19.626 18.535 56.696 73.051 62.148 119.934 4.361 25.078-4.361 52.335-22.897 62.148-21.806 9.813-26.167 35.98-37.07 31.62-43.613-21.807-61.058-81.774-35.98-122.116z"/></svg>