<svg xmlns="http://www.w3.org/2000/svg" width="1000" height="1000">
  <path d="M500.496 5C223.572 5 5 229.506 5 500.002c0 276.43 224.506 495.001 495.002 495.001 276.43 0 495.001-224.506 495.001-495.001C995.003 226.539 773.464 5 500.496 5zM84.121 468.848C101.923 286.869 221.594 143.462 397.64 94.01c64.286-16.813 128.572-16.813 192.857-2.967 8.902 0 17.803 5.934 20.77 11.868 20.77 32.638 40.55 67.253 61.319 102.858 6.923 8.901 8.9 10.879 20.769 10.879 38.572 0 76.154 0 111.759 3.956 10.879 0 19.78 2.967 28.681 13.846 14.835 23.737 32.637 44.506 47.473 71.21 2.967 1.977 2.967 8.9 2.967 10.878-6.923 16.814-14.835 35.605-20.77 59.341-6.923-8.9-6.923-15.824-9.89-17.802-13.846-26.703-30.66-55.385-48.461-85.055-2.967-2.967-8.902-9.89-14.836-9.89h-89.01c5.933 21.758 13.845 39.56 18.79 59.34 8.901 44.506 13.847 90.99 22.748 135.496 0 4.945 2.967 10.879 5.934 16.813 14.835 20.77 14.835 41.538 0 61.319-2.967 2.967-5.934 8.9-5.934 13.846-5.934 68.242-19.78 129.56-41.539 190.88 0 3.956-2.967 6.923-2.967 8.9h65.275c26.703 2.968 41.539-8.9 55.385-30.659 29.67-44.505 50.44-94.945 65.275-150.33 7.912 20.77 16.813 40.55 25.714 61.319 2.967 1.978 0 8.901 0 11.868-20.77 55.385-49.45 102.858-87.033 146.374-3.956 5.934-11.868 8.901-17.802 8.901H689.398c-7.912 0-13.846 0-16.813 8.902 0 4.945-2.967 8.9-4.945 11.868-11.869 44.505-47.473 52.417-88.023 58.352 17.803-29.67 34.616-56.374 52.418-84.067-17.802-3.956-29.67-6.923-43.517-9.89-53.406-11.868-103.846-29.67-150.33-49.45-4.945-3.957-13.846-3.957-19.78-3.957-27.692 3.957-46.484-7.912-55.385-31.648-2.967-5.934-6.923-11.868-8.9-13.846-55.386-35.605-102.858-80.11-144.397-133.517-1.978 0-1.978-1.978-1.978-4.945-2.967 0-2.967 0-6.923 2.967-14.835 26.703-28.682 55.385-43.517 84.066-2.967 3.956-2.967 12.857 0 15.824 16.813 31.649 38.572 64.286 59.341 96.924 0 2.967 7.912 4.945 13.846 7.912h85.055c2.968 0 8.902 3.956 11.869 5.934 4.945 11.868 10.879 23.736 17.802 38.571-24.725 2.967-44.506 2.967-64.286 2.967-24.725 0-50.44-2.967-76.154-2.967-5.934 0-12.857-4.945-15.824-8.9C110.825 693.353 73.242 589.506 84.12 468.847zm50.44 99.89c13.846-20.77 25.714-37.582 37.582-56.374v-10.879c-11.868-17.802-23.736-38.571-37.582-59.34-5.934 43.516-5.934 85.055 0 126.593zm19.78-190.88c14.835 28.682 31.649 59.341 46.484 88.023h6.923c0-2.967 1.978-2.967 1.978-5.934 41.539-49.451 89.011-92.968 144.396-128.572 1.978-2.967 5.934-8.901 8.901-14.836 4.945-31.648 31.649-46.483 61.32-34.615 5.933 0 13.845 0 19.78-2.967 23.736-8.901 47.472-20.77 71.208-27.692 37.583-10.88 75.165-18.792 116.704-30.66-17.802-27.692-34.615-56.374-52.418-82.088-2.967-2.967-8.9-5.934-14.835-5.934-44.506-5.934-88.022-5.934-129.56 2.967-134.507 28.681-225.496 104.835-277.914 231.43-2.967 1.977-2.967 8.9-2.967 10.878zm79.121 129.561c41.539 51.429 87.034 95.935 140.44 131.54 2.967 2.966 8.901 2.966 14.836 2.966 32.637-11.868 58.351 2.967 65.275 34.616 1.978 6.923 4.945 11.868 10.879 14.835 55.384 27.692 114.725 44.506 176.044 53.407 8.901 2.967 10.88 0 10.88-8.901 23.736-56.374 37.582-114.726 41.538-177.034 0-4.945-3.956-10.88-5.934-13.846-26.704-22.748-28.682-59.341 0-79.121 5.934-2.967 8.901-7.912 5.934-14.836-3.956-58.351-17.802-114.725-34.616-169.121-6.923-11.868-11.868-14.835-24.725-11.868-57.363 8.9-113.737 25.714-169.121 52.418-5.934 1.978-8.901 8.9-10.88 13.846-9.89 27.692-32.637 39.56-59.34 32.637-5.934-1.978-11.869-1.978-14.836 0-55.384 37.583-104.835 82.088-146.374 138.462z" style="fill:#000;fill-opacity:1;fill-rule:nonzero;stroke:none;"/>
</svg>
