<?xml version="1.0" encoding="UTF-8"?><svg id="a" xmlns="http://www.w3.org/2000/svg" viewBox="0 0 1000 1000"><path d="M500,0C223.858,0,0,223.858,0,500s223.858,500,500,500,500-223.858,500-500S776.142,0,500,0Zm-193.708,605.939l-60.361,34.492-100.396-57.897V295.513l248.834-143.51,248.218,143.51v287.021l-99.78,57.897-73.911-43.115,99.78-57.281v-202.023l-174.307-100.396-174.923,100.396v202.023l100.396,57.897-13.55,8.007Zm299.34,242.058l-248.834-143.51V417.466l100.396-57.897,60.361,34.492,14.166,8.007-100.396,57.897v201.407l174.307,101.012,174.307-101.012v-201.407l-99.78-57.281,73.911-43.115,100.396,57.897v287.021l-248.833,143.51Z"/></svg>