<svg xmlns="http://www.w3.org/2000/svg" viewBox="0 0 33 32">
	<path
		d="M16.4 31.8c8.7 0 15.8-7.1 15.8-15.8C32.2 7.3 25.1.2 16.4.2 7.7.2.6 7.3.6 16c0 8.7 7.1 15.8 15.8 15.8zM6.9 9.1l4.7-4.7h2.2c-.6.3-2.6 2.8-3.1 4.7H6.9zM16 4.5v4.7h-4.5c.3-1 1.4-3.2 3.4-4.7H16zm.9 4.6h4.5c-1.1-2.5-2.8-4.2-3.5-4.7h-1v4.7zm9.1 0h-3.7c-.6-1.4-1.6-3.3-3.1-4.7h2.1L26 9.1zM10.5 22.9H6.9l4.7 4.7h2.1c-1.5-1.4-2.6-3.4-3.2-4.7zm.9 0h4.5v4.7h-1c-.7-.6-2.4-2.2-3.5-4.7zm5.4 0v4.7h1.1c2-1.4 3.1-3.7 3.4-4.7h-4.5zm4.5 4.6l4.7-4.7h-3.8c-.5 1.8-2.5 4.3-3.1 4.7h2.2zM7.3 20h4.9v-1.3H8.8V16h2.6v-1.3H8.8v-2.1h3.4v-1.3H7.3V20zm6.5 0h2.6c.2 0 .5 0 .7-.1.2 0 .5-.1.7-.2.2-.1.4-.3.6-.4.2-.2.3-.4.4-.6.1-.2.2-.5.2-.7 0-.2.1-.5.1-.7v-3.4c0-.2 0-.5-.1-.7 0-.2-.1-.5-.2-.7-.1-.2-.3-.4-.4-.6-.2-.2-.4-.3-.6-.4-.2-.1-.5-.2-.7-.2-.2 0-.5-.1-.7-.1h-2.6V20zm1.5-1.3v-6.2h1.1c.2 0 .4 0 .5.1.2.1.3.2.4.3.1.1.2.3.3.5.1.2.1.4.1.5v3.4c0 .2 0 .4-.1.5 0 .2-.1.3-.3.5-.1.1-.3.2-.4.3s-.4.1-.5.1h-1.1zm7.1 1.3H21v-8.8h2.6c.3 0 .5 0 .8.1.3 0 .5.1.8.2.2.1.4.3.6.5.2.2.3.4.4.7.1.3.1.5.1.8v1.1c0 .3 0 .5-.1.8-.1.3-.2.5-.4.7-.2.2-.4.3-.6.5-.2.1-.5.2-.8.2-.3 0-.5.1-.8.1h-1.2V20zm0-7.5v2.8H24c.1 0 .3-.1.4-.2l.3-.3c.1-.1.1-.3.1-.4v-1.1c0-.1 0-.3-.1-.4l-.3-.3c-.1-.1-.2-.1-.4-.1h-1.6z"
		fill-rule="evenodd" clip-rule="evenodd" />
</svg>