<svg xmlns="http://www.w3.org/2000/svg" viewBox="0 0 1000 1000"><path d="M500.496 995.003c275.935 0 494.507-224.506 494.507-495.496C995.003 226.54 773.464 5 500.496 5 223.572 5 5 229.506 5 499.507c0 276.924 224.506 495.496 495.496 495.496zM115.77 415.441c-1.978-32.638 9.89-58.352 37.582-74.176 20.77-12.857 37.583-28.682 52.418-47.473 13.846-18.791 23.736-39.56 28.681-63.297 6.923-32.637 30.66-55.385 63.297-62.308 8.901-.989 17.802 0 26.704.99 19.78 1.977 39.56-.99 58.351-6.924 24.726-6.923 47.473-18.791 67.253-37.582 8.902-7.912 19.78-13.847 31.649-16.814 4.945-.989 9.89-1.978 15.824-1.978h7.912c1.978 0 4.945 0 6.923.99 16.814 1.977 30.66 9.89 43.517 20.769 17.802 17.802 40.55 27.692 65.275 34.615 17.802 5.934 36.593 7.912 56.374 6.923 6.923-.989 14.835-1.978 22.747-.989 32.638 2.967 61.319 27.693 67.253 60.33 3.956 20.77 11.868 39.56 23.736 56.374 14.836 22.747 33.627 42.528 57.363 55.385 31.649 17.802 46.484 56.374 34.616 90.99-1.978 7.911-5.934 14.834-8.901 22.746-6.924 20.77-8.902 42.528-7.913 65.275.99 18.792 4.946 37.583 12.858 54.396 5.934 12.857 8.9 25.715 7.912 39.56-2.967 26.704-14.835 47.473-37.583 61.32-18.791 9.89-34.615 23.736-47.472 39.56-16.814 21.759-29.67 45.495-34.616 72.198-6.923 35.605-38.572 61.32-75.165 61.32-6.923 0-12.857-.99-19.78-1.979-18.792-.989-37.583 2.967-56.374 8.901-23.737 6.923-45.495 18.792-63.297 35.605-29.67 26.703-74.176 25.714-103.847-.99-13.846-12.856-30.659-22.747-49.45-30.659-24.726-9.89-50.44-14.835-78.132-11.868-6.924.99-14.836.99-21.759 0-30.66-3.956-57.363-27.692-64.286-57.363-3.956-18.791-9.89-37.582-20.769-53.406-15.824-25.715-35.604-46.484-61.319-61.32-29.67-16.813-44.506-53.406-35.604-86.044 1.978-7.912 5.934-15.824 8.9-23.736 7.913-20.77 9.89-42.528 8.902-65.275 0-20.77-3.956-40.55-12.857-58.352-3.956-8.9-6.923-16.813-6.923-25.714zm125.604 13.846c1.978 10.88 6.924 19.78 12.858 28.682 6.923 7.912 12.857 15.824 18.79 22.747 16.814 18.791 29.671 39.56 38.572 63.297 9.89 24.725 15.825 51.429 14.836 78.132 0 16.813-.99 33.626-1.978 50.44v10.879c1.978 27.692 23.736 44.505 51.428 38.571 9.89-1.978 20.77-5.934 30.66-9.89 25.714-10.879 51.429-19.78 80.11-20.77 31.648-.988 61.319.99 90.99 12.858 13.845 5.934 27.692 11.868 42.527 16.813 11.868 3.956 24.725 3.956 36.593-2.967 14.836-7.912 20.77-21.758 21.759-38.571 0-12.857-.99-25.715-1.978-37.583-1.978-21.758-.99-42.527 3.956-63.297 6.923-28.681 16.813-55.385 33.626-79.12 9.89-12.858 20.77-24.726 30.66-37.583 3.956-5.935 8.9-11.869 11.868-17.803 6.923-15.824 6.923-30.66-4.945-44.505-4.945-7.912-12.857-11.868-21.759-14.836-8.9-2.967-17.802-5.934-27.692-7.912-19.78-4.945-39.56-9.89-57.363-19.78-28.681-15.824-54.396-35.604-74.176-62.308-10.879-13.846-19.78-29.67-29.67-44.505-2.967-4.946-6.923-8.902-10.88-12.858-13.846-13.846-32.637-16.813-48.461-6.923-6.923 3.956-12.857 8.901-17.802 15.824-4.945 7.913-10.88 15.825-15.825 23.737-14.835 25.714-32.637 47.472-55.384 64.286-20.77 15.824-43.517 28.681-68.242 35.604-12.858 3.956-25.715 6.923-37.583 9.89-10.88 2.967-21.758 5.934-30.66 13.847-10.879 8.9-16.813 20.769-14.835 35.604z"/></svg>