<svg xmlns="http://www.w3.org/2000/svg" viewBox="0 0 1000 1000"><path d="M738.522 935.381h-118.31c43.775-85.183 93.465-163.268 138.423-248.451 14.197-18.93 14.197-34.31 0-53.24-49.69-89.915-104.113-178.648-153.803-268.564-9.465-18.93-24.845-29.577-43.775-29.577-104.113 0-209.408 5.915-312.338 0-18.93 0-34.31 10.648-44.958 29.578-43.775 75.718-84 144.338-123.043 218.873-4.732 4.732-14.197 14.197-18.93 24.845-16.563-24.845-30.76-49.69-46.14-75.718-14.197-23.662-14.197-43.775 0-68.62C85.45 346.197 154.07 221.97 223.874 98.929c15.38-24.845 35.493-34.31 63.887-34.31 134.874 4.732 273.296 4.732 411.72 0 34.309 0 54.422 15.38 73.351 44.958 68.62 127.775 144.339 250.817 217.69 375.043 7.1 10.648 4.733 21.295 0 29.577C917.172 643.155 841.453 772.113 768.1 896.34c-9.465 14.197-20.113 23.662-29.578 39.042zM96.1 662.085c-5.916-4.733 0-14.197 0-18.93 48.507-84 92.282-163.268 138.423-242.535 9.464-14.198 18.93-20.113 34.31-20.113h272.113c15.38 0 24.845 10.648 34.31 20.113 44.957 79.267 88.732 158.535 133.69 237.803 10.648 14.197 10.648 23.662 4.732 39.042-49.69 79.268-93.465 158.536-138.423 237.803-4.732 4.733-9.464 15.38-14.197 20.113H466.41c18.93-39.042 43.775-80.45 65.07-119.493 9.466-14.197 9.466-34.31 0-48.507-26.027-44.958-55.605-94.648-80.45-139.606-9.465-18.93-18.93-23.662-39.042-23.662H248.719c-18.93 0-34.31 4.732-44.958 23.662-15.38 29.577-34.31 59.155-49.69 89.915-4.733 4.733-9.465 15.38-18.93 24.846-15.38-29.578-29.577-50.874-39.042-80.451zm78.084 149.07c-4.732-14.197-9.464-24.845 0-39.042 20.113-34.31 40.226-69.803 60.339-104.113 9.464-15.38 18.93-20.112 34.31-20.112h124.225c14.197 0 23.662 4.732 29.578 20.112 18.93 34.31 39.042 69.803 57.971 104.113 10.648 14.197 10.648 24.845 0 39.042-23.662 39.043-43.774 79.268-68.62 124.226H253.452c-18.93-30.76-54.422-76.902-79.268-124.226z"
    style="fill:#000;fill-opacity:1;fill-rule:nonzero;stroke:none"/></svg>