<svg xmlns="http://www.w3.org/2000/svg" viewBox="0 0 1000 1000"><path d="M589.806 91.835V88.27c11.883-5.941 32.083-5.941 55.848 0 14.259 3.565 27.33 11.883 43.965 28.518 9.506 9.506 19.012 20.2 27.33 35.648v10.694c0 38.024-4.753 90.307-14.259 156.85-10.694 77.236-26.141 143.779-43.965 202.003-14.26 46.342-34.46 103.378-64.166 172.297-16.636 38.024-34.46 74.86-51.095 109.32-7.13-1.189-14.259-1.189-20.2-2.377 20.2-128.331 35.647-244.78 46.342-349.347 7.13-68.919 13.07-142.59 16.635-223.392 2.377-47.53 3.565-93.872 3.565-136.65zM5.185 493.465c-1.189-19.012 3.564-35.648 8.317-51.095 3.565-10.694 11.883-17.824 20.2-23.765 27.33 66.542 80.802 141.402 149.72 231.71 35.648 46.342 77.237 89.119 121.203 134.272 24.953 26.142 51.095 47.53 73.672 67.731-4.753 5.941-9.506 11.883-14.26 21.389-38.024-28.519-79.613-64.166-125.955-103.379-78.424-65.354-134.272-122.39-171.108-165.167-40.4-46.342-60.601-84.366-61.79-111.696zM34.89 377.016c0-17.824 3.565-33.271 11.882-46.342 9.506-14.259 20.2-26.142 36.836-35.648 13.071-7.13 24.954-11.882 38.024-16.635l3.565 8.318c15.448 36.836 21.389 74.86 34.46 108.13 23.765 59.414 49.906 122.391 81.99 186.557 28.517 57.036 62.977 111.696 99.813 163.98 22.577 32.082 43.965 60.6 64.165 84.365-5.94 3.565-11.882 7.13-16.635 10.694-22.577-16.635-45.154-40.4-71.295-66.542-43.966-43.965-85.555-86.742-122.39-131.896-74.86-91.496-123.58-171.109-149.72-237.651-4.754-8.318-8.319-17.824-10.695-27.33zm98.625-117.637c4.753-29.707 16.636-49.907 35.648-62.978 21.388-14.259 42.777-21.388 67.73-20.2v1.188c3.565 29.707 13.071 72.484 23.765 128.332 14.26 71.295 35.648 141.402 55.848 209.133 16.636 57.036 39.213 120.013 67.73 186.556 16.636 39.212 32.084 78.424 48.72 112.884-7.13 2.376-11.883 4.753-15.448 8.318-19.012-24.954-40.4-51.095-62.978-81.99-39.212-53.471-70.107-108.131-98.625-165.167-32.083-64.166-61.789-125.955-83.178-186.556-10.694-30.895-23.765-68.92-34.459-105.755v-8.318zm117.637-98.625c11.883-29.707 32.083-51.095 59.413-62.978 28.518-11.882 53.472-14.259 78.425-8.318v2.377c1.188 28.518 3.565 68.919 7.13 122.39 4.752 77.237 13.07 153.285 20.2 228.145 10.694 111.696 29.706 231.71 51.095 361.23-5.942 1.188-14.26 2.376-21.389 4.753-14.259-34.46-32.083-70.107-47.53-109.32-26.142-67.73-51.095-130.708-70.107-187.744-22.577-67.73-35.648-137.838-51.095-207.945-11.883-55.848-22.577-97.437-24.953-127.143zM375.92 880.836c9.506-16.635 22.577-28.518 38.024-40.4 22.577-17.824 54.66-24.954 90.308-24.954 33.27 0 64.165 9.506 89.119 24.953 17.824 10.695 28.518 27.33 39.212 42.778-30.894 21.388-58.224 38.024-79.613 52.283-22.577 14.259-40.4 17.824-48.718 17.824-8.318 0-23.765-5.942-43.966-16.636-24.953-13.07-51.095-30.895-84.366-55.848zm27.33-789.001v-7.13c10.694-9.506 20.2-16.635 33.271-22.577 17.824-8.317 33.271-15.447 51.095-15.447 17.824 0 36.836 5.941 53.472 15.447 11.882 7.13 23.765 13.071 32.082 23.766v5.94c0 42.778 0 89.12-2.376 136.65-3.565 80.801-7.13 153.285-14.26 222.204-10.693 105.755-28.517 222.204-48.718 349.347h-3.564c-7.13 0-14.26 1.188-21.389 1.188-21.389-128.331-38.024-247.157-51.095-360.041-8.318-74.86-15.447-150.909-20.2-226.957-3.565-54.66-5.942-95.06-8.318-122.39zm154.473 715.33c17.824-35.648 35.648-72.484 52.283-112.885 27.33-67.73 49.907-122.39 64.166-168.732 17.824-58.225 32.083-124.767 41.589-203.192 8.318-67.73 15.447-118.825 15.447-159.226v-1.188c26.142 0 49.907 8.318 74.86 23.765 23.765 15.447 41.59 42.777 55.848 81.99l-3.564 10.694c-7.13 22.577-19.012 61.79-42.778 120.014-29.706 71.295-57.036 133.084-84.366 185.367-21.388 41.59-49.906 90.308-87.93 144.967-22.577 32.083-43.966 61.79-65.355 87.931-5.94-2.376-11.882-7.13-20.2-9.506zm35.648 17.823c21.388-29.706 41.589-59.413 64.166-90.307 39.212-53.472 66.542-102.19 87.93-144.967 24.954-48.719 53.472-110.508 81.99-180.615 23.765-59.413 38.024-101.002 43.965-125.955 26.142 9.506 46.342 23.765 59.413 43.965 9.506 15.448 19.012 38.024 21.389 66.543l-4.753 14.259c-5.942 19.012-27.33 51.095-55.848 98.625-33.271 55.848-66.543 104.566-99.814 143.779-45.153 52.283-102.19 118.825-174.673 190.12-8.318-5.94-16.636-10.694-23.765-15.447zm33.27 27.33c76.05-73.672 133.085-137.838 178.24-192.497 32.082-39.213 64.165-87.931 98.624-144.967 28.518-46.342 47.53-80.802 55.848-102.19 8.318 8.317 17.824 15.447 23.765 23.765 10.695 14.259 11.883 30.894 11.883 51.095 0 24.953-22.577 64.165-64.166 115.26-36.836 45.154-85.554 98.626-149.72 156.85-43.965 40.4-89.12 78.425-136.65 115.26-5.94-9.505-10.694-15.446-17.823-22.576z"/></svg>