<svg xmlns="http://www.w3.org/2000/svg" width="1000" height="1000">
  <path d="M500.496 995.003c275.935 0 494.507-224.506 494.507-495.496C995.003 226.54 773.464 5 500.496 5 223.572 5 5 229.506 5 499.507c0 276.924 224.506 495.496 495.496 495.496zM164.231 701.266v-390.66l339.232-196.814 269.012 155.275-35.604 20.77L503.463 155.33 199.836 330.386v351.1L503.463 856.54l303.628-175.055V408.518l35.604-20.77v313.518L503.463 898.08zm203.737-19.78v-170.11H537.09c15.824-.99 31.648-7.913 42.527-17.803 10.88-11.868 17.803-27.692 17.803-43.517 0-7.912-1.978-15.824-3.956-22.747-2.968-7.912-7.913-13.846-13.847-19.78-4.945-5.934-12.857-9.89-18.791-12.857-7.912-3.956-15.824-4.945-23.736-4.945H367.968v-51.43H537.09c29.67 0 58.352 11.869 79.12 32.638 21.76 20.77 33.627 49.451 33.627 79.121 0 22.748-7.912 44.506-20.769 63.297-10.88 18.792-28.681 32.638-47.473 40.55-19.78 5.934-40.55 8.901-61.319 8.901H418.408v118.682zm175.056-84.066c18.791-.99 36.593-3.957 53.407-10.88l51.428 90.99h-58.352zm229.451-246.265v-40.55l34.616-20.769 35.604 20.77v40.549l-35.604 19.78z" style="fill:#000;fill-opacity:1;fill-rule:nonzero;stroke:none;"/>
</svg>
