<?xml version="1.0" encoding="utf-8"?>
<!-- Generator: Adobe Illustrator 26.0.1, SVG Export Plug-In . SVG Version: 6.00 Build 0)  -->
<svg version="1.1" id="Layer_1" xmlns="http://www.w3.org/2000/svg" xmlns:xlink="http://www.w3.org/1999/xlink" x="0px" y="0px"
	 viewBox="0 0 1000 1000" style="enable-background:new 0 0 1000 1000;" xml:space="preserve">
<path d="M736.8,428c1.5,4.8,2.3,9.6,2.3,14.5v113.1c0,4.9-0.8,9.7-2.3,14.4c-1.5,4.7-4.1,8.8-7.7,12.3c-3.6,3.5-7.8,6-12.6,7.4
	c-4.8,1.4-9.6,2.1-14.5,2.1c-4.9,0-9.7-0.7-14.5-2.1c-4.8-1.4-9-3.9-12.6-7.4c-3.6-3.5-6.2-7.6-7.7-12.3c-1.5-4.7-2.3-9.5-2.3-14.4
	V442.5c0-4.9,0.8-9.7,2.3-14.5c1.5-4.8,4.1-8.9,7.7-12.3c3.6-3.4,7.8-5.8,12.6-7.2c4.8-1.4,9.6-2.1,14.5-2.1c4.9,0,9.7,0.7,14.5,2.1
	c4.8,1.4,9,3.8,12.6,7.2C732.7,419.1,735.3,423.2,736.8,428z M995.3,500c0,273.4-221.6,495-495,495S5.3,773.4,5.3,500
	S226.9,5,500.3,5S995.3,226.6,995.3,500z M586.2,142.6c46.4,42.4,78.8,101.7,96.7,144.7h113.9L650.7,142.6H586.2z M779.1,417.7
	c-2-8.2-5.5-15.6-10.7-22.2c-5.1-6.7-11.3-12.1-18.6-16.5c-7.2-4.3-14.9-7.3-23.1-8.9c-8.2-1.6-16.5-2.5-24.9-2.5
	c-8.4,0-16.7,0.8-24.9,2.5c-8.2,1.6-15.9,4.6-23.1,8.9c-7.2,4.3-13.4,9.8-18.6,16.5c-5.1,6.7-8.7,14.1-10.7,22.2
	c-2,8.2-3,16.5-3,24.9v113.1c0,8.4,1,16.7,3,24.9c2,8.2,5.5,15.6,10.7,22.2c5.1,6.7,11.3,12.1,18.6,16.5c7.2,4.3,14.9,7.3,23.1,8.9
	c8.2,1.6,16.5,2.5,24.9,2.5c8.4,0,16.7-0.8,24.9-2.5c8.2-1.6,15.9-4.6,23.1-8.9c7.2-4.3,13.4-9.8,18.6-16.5
	c5.1-6.7,8.7-14.1,10.7-22.2c2-8.2,3-16.5,3-24.9V442.5C782.1,434.1,781.1,425.8,779.1,417.7z M515.4,287.3h140.4
	c-32.7-77.9-85.8-128.9-108.2-144.7h-32.2V287.3z M348.5,287.3h138.9V142.6h-32.9C393.2,186.7,358.3,257.4,348.5,287.3z M277,409.3
	v218.4h43.4V409.3h59.9v-38.9H217.1v38.9H277z M203.8,287.3h117.4c15.8-57.3,77.4-133.9,96-144.7h-68.8L203.8,287.3z M414.4,857.4
	C368,815,335.6,755.7,317.7,712.7H203.8l146.1,144.7H414.4z M485.3,712.7H344.9c32.7,77.9,85.7,128.9,108.2,144.7h32.2V712.7z
	 M570.7,627.7v-38.9H522V409.3h48.7v-38.9H430v38.9h48.7v179.6H430v38.9H570.7z M652.1,712.7H513.2v144.7h32.9
	C607.4,813.3,642.3,742.6,652.1,712.7z M796.9,712.7H679.4c-15.8,57.3-77.4,133.9-96,144.7h68.8L796.9,712.7z"/>
</svg>
