<?xml version="1.0" encoding="UTF-8"?><svg id="a" xmlns="http://www.w3.org/2000/svg" viewBox="0 0 1000 1000"><path d="M894.949,211.936L551.996,13.932c-32.175-18.576-71.816-18.576-103.992,0L105.051,211.936c-32.175,18.576-51.996,52.907-51.996,90.06v396.008c0,6.33,.619,12.567,1.733,18.67,5.424,29.713,23.57,55.978,50.263,71.39l42.646,24.622,.002-.003,40.464,23.362-.002,.003,110.407,63.744,149.436,86.277c32.175,18.576,71.817,18.576,103.992,0l342.953-198.004c32.175-18.576,51.996-52.907,51.996-90.06V301.996c0-37.153-19.821-71.483-51.996-90.06Zm-16.284,420.163l-192.468-300.807-74.07,124.455,24.86,38.638h0l171.216,264.918-44.003,25.405-167.439-266.776-11.111-17.698-85.651,143.912,135.029,215.139-123.292,71.183c-7.263,4.193-16.211,4.193-23.473,0l-154.565-89.251L664.987,288.872l-142.427-1.626L224.293,776.747l-40.033-23.113L473.39,286.685l-63.058-.72c-48.007-.548-92.929,23.6-118.954,63.944L121.335,613.512V294.93c0-8.386,4.474-16.135,11.736-20.328L488.263,69.531c7.262-4.193,16.21-4.193,23.473,0l355.192,205.07c7.262,4.193,11.737,11.942,11.737,20.328v337.17Z"/></svg>