<svg xmlns="http://www.w3.org/2000/svg" viewBox="0 0 1000 1000"><path d="M892.827 754.81 512.838 991.192c-5.083 2.542-8.896 3.813-12.708 3.813-5.084 0-7.626-1.27-12.709-3.813l-379.989-236.38c-6.354-3.813-10.167-7.626-11.438-13.98-1.27-6.354-1.27-12.709 2.542-19.063L478.525 40.584c-3.813-5.083-3.813-10.167-2.542-15.25 1.271-6.354 3.813-10.167 8.896-15.25C488.692 6.27 493.775 5 500.13 5c6.355 0 11.438 1.27 16.522 5.083 5.083 3.813 6.354 8.897 7.625 15.25 1.27 5.084 0 10.168-2.542 15.251l379.989 681.184c3.813 6.354 3.813 12.709 1.27 19.063-2.54 6.354-5.083 10.167-10.166 13.98zM177.33 740.832l292.299 183.005V819.625c0-10.167 1.27-20.334 3.812-30.501 2.542-15.25 10.167-27.96 20.334-36.855 5.084-5.084 15.25-11.438 33.043-22.876 16.521-11.438 29.23-19.063 39.397-25.417 16.52-10.167 26.688-20.334 34.313-30.5 5.083-7.626 11.438-13.98 16.521-24.147l1.271 6.354c10.167 16.521 21.605 31.772 36.855 45.751-3.812 5.084-7.625 8.896-10.167 10.167-10.167 12.709-24.146 25.417-41.938 39.397-11.438 8.896-26.688 16.521-47.022 29.23-13.98 8.896-20.334 13.98-22.876 13.98-1.27 0-1.27 5.083-2.542 10.166-1.27 5.084-1.27 8.896-1.27 13.98v105.482L822.93 740.83l-123.275-57.189c-6.354-2.542-12.708-6.354-17.792-11.438-12.708-10.167-21.604-22.875-29.23-36.855-5.083-8.896-10.166-26.688-16.52-53.376-6.355-29.23-12.71-48.293-19.064-57.19-10.167-16.52-21.604-29.229-33.042-38.125-16.522-12.709-34.314-21.605-55.918-26.688l5.083-3.813c15.25-11.438 22.876-27.959 29.23-48.293 41.939 15.25 78.794 41.939 104.211 83.877 6.354 10.167 11.438 22.876 16.521 38.126 2.542 8.896 7.625 21.605 10.167 38.126 3.813 22.876 8.896 34.314 12.709 39.397 6.354 8.896 11.438 19.063 21.604 24.147l90.232 41.938-288.486-515.97V357.03c1.27 11.437 0 21.604-2.542 30.5-3.813 16.522-8.896 31.772-20.334 39.397-5.084 3.813-15.25 11.438-31.772 21.605-17.792 11.438-30.5 19.063-39.397 26.688-13.979 12.709-27.959 20.334-36.855 30.5-10.167 11.439-16.52 24.147-21.604 40.669-5.084 16.52-7.626 38.126-7.626 64.814-21.604-10.167-40.667-16.522-58.46-19.063 1.272-26.688 5.084-50.835 11.438-69.898 7.626-21.605 16.522-40.668 33.043-57.189 10.167-10.167 24.146-22.875 41.939-36.855 10.166-7.625 26.688-17.792 45.75-29.23 13.98-8.896 21.605-13.98 22.876-16.521 1.271-3.813 3.813-5.083 3.813-8.896V157.504L181.142 673.475l64.815-29.23c17.792-8.896 35.584-12.708 52.105-12.708 15.25 0 33.043 3.812 53.376 15.25 15.25 8.896 27.96 16.521 40.668 26.688 30.5 25.417 58.46 39.397 78.794 45.751l-3.813 2.542c-13.98 12.709-24.146 29.23-29.23 48.293-25.417-10.167-52.105-27.96-81.335-50.835-10.167-7.625-20.334-13.98-31.772-20.334-12.708-6.354-21.605-7.625-26.688-7.625-7.625 0-16.521 1.271-25.417 6.355z"/></svg>