<svg xmlns="http://www.w3.org/2000/svg" viewBox="0 0 1000 1000"><path d="M500.496 5C223.572 5 5 229.506 5 500.002c0 276.43 224.506 495.001 495.002 495.001 276.43 0 495.001-224.506 495.001-495.001C995.003 226.539 773.464 5 500.496 5zM94.011 392.694v-13.847c6.923-16.813 12.857-28.681 32.638-35.604 23.736-3.956 47.472 6.923 55.385 28.681 6.923 23.737-3.957 47.473-24.726 58.352-23.736 6.923-46.483 0-56.374-23.736-2.967-3.956-2.967-6.923-6.923-13.846zm10.88-10.88c10.879-9.89 21.758-19.78 35.604-29.67-24.725-1.978-39.56 9.89-35.605 29.67zm152.308 0c87.033-107.802 250.22-152.308 374.836-93.956 114.726 51.429 152.308 167.143 87.033 274.946-32.637 61.319-87.033 96.923-155.275 117.693-15.824 6.923-33.626 13.846-50.44 16.813 84.067-6.923 157.254-49.45 208.682-114.726-10.879 30.66-31.648 55.385-60.33 73.187-90.989 70.22-191.868 92.968-303.627 59.341-128.572-38.571-203.737-208.682-100.88-333.298zm11.868 66.264c-9.89 50.44-2.967 95.935 37.582 134.506 44.506 44.506 98.902 55.385 155.276 51.43 0-3.957 0-3.957-1.978-3.957-8.902-2.967-14.836-5.934-20.77-8.901-54.396-17.802-91.978-48.462-115.714-99.89-24.726-46.484-13.847-101.869 23.736-135.496 37.582-33.626 84.066-42.527 132.528-33.626 20.77 1.978 37.582 5.934 57.363 12.857-44.506-21.758-91.979-25.714-137.473-18.791 56.374-20.77 110.77-12.857 160.22 15.824 44.506 23.736 79.121 61.319 82.088 115.715 3.956 22.747 0 43.516-2.967 66.264 61.32-48.462 58.352-144.396-3.956-193.847-104.835-86.044-263.078-45.495-328.353 45.495-13.846 17.802-30.66 27.692-37.582 52.417zm109.78 58.352c16.814 52.418 87.034 90 138.462 79.121 27.693-5.934 46.484-22.747 53.407-50.44 5.934-28.68 0-50.44-15.824-71.208-3.956 40.55-9.89 78.132-54.396 89.01-30.66 9.891-65.275-4.944-79.121-27.691-25.714-40.55-15.824-77.144 19.78-108.792-5.934 0-12.857 0-19.78 2.967-39.56 10.88-60.33 48.462-42.528 87.033zm49.451-51.429c-13.846 16.814-9.89 37.583 2.967 56.374-6.923-36.593 7.912-63.297 40.55-81.099-22.748-2.967-32.638 3.956-43.517 24.725zm342.2 83.078c0-37.583 31.648-66.264 73.186-66.264 35.605 0 69.231 28.681 69.231 70.22 0 37.582-30.66 71.209-67.253 71.209-43.516 0-75.165-33.627-75.165-75.165zm20.768 24.725c3.956-47.473 23.737-75.165 71.21-70.22-18.792-14.835-43.517-7.912-60.33 5.934-17.803 16.813-20.77 39.56-10.88 64.286z"/></svg>