<?xml version="1.0" encoding="UTF-8"?><svg id="a" xmlns="http://www.w3.org/2000/svg" viewBox="0 0 1000 1000"><path d="M61.203,553.552c-20.765-5.464-41.53-15.3-60.109-29.508,0-7.65-1.093-16.393-1.093-24.043,0-37.159,4.372-74.317,12.022-109.29,1.093-4.372,2.186-8.744,3.279-13.115,6.558-2.186,12.022-3.279,18.579-5.464,11.422-2.427,22.979-4.11,34.619-5.203,6.841-.642,13.715-.996,20.603-1.223h.037c1.915-.064,3.834-.086,5.752-.129,2.104-.035,4.2-.14,6.308-.14,.764,0,1.532,.069,2.295,.073,3.479,.021,6.97,.232,10.455,.336,4.258,.139,8.509,.153,12.773,.424h.006c5.775,.366,11.553,.979,17.33,1.582,11.845,1.211,23.678,2.77,35.465,4.798l.012,.002c3.796,.654,7.568,1.438,11.353,2.156,4.331,.832,8.67,1.608,12.981,2.529h.001c.447,.095,.888,.211,1.334,.307,14.699,3.17,29.26,6.815,43.606,10.789,.3,.083,.604,.156,.903,.239h0c1.342,.373,2.68,.744,4.018,1.123h.002c.538,.153,1.064,.319,1.602,.472,7.709,2.197,15.354,4.461,22.912,6.803l.011,.003c7.133,2.21,14.219,4.458,21.194,6.753,67.76,21.858,136.613,45.902,206.558,67.76-4.371,1.093-8.743,3.279-13.115,4.372-.53,.088-1.077,.194-1.607,.283-.31,.154-.579,.347-.579,.81-83.06,26.23-167.213,50.274-252.459,67.76-38.436,7.977-77.825,16.434-117.228,16.434-19.977,0-39.966-2.176-59.821-7.691Zm936.612-102.732c-1.093-8.744-2.186-17.487-3.278-28.416-.544-.622-1.161-1.15-1.726-1.75-7.37-7.832-16.228-13.861-22.318-17.922-4.809-2.836-9.78-5.291-14.817-7.566-1.492-.674-3.007-1.281-4.516-1.908-3.781-1.572-7.61-3.007-11.488-4.3-1.508-.503-3.008-1.034-4.529-1.497-5.224-1.589-10.501-3.018-15.849-4.164-.247-.053-.5-.083-.746-.135-5.168-1.087-10.389-1.941-15.631-2.66-1.644-.225-3.293-.408-4.942-.599-4.08-.474-8.169-.856-12.266-1.137-1.566-.107-3.129-.237-4.695-.32-5.372-.279-10.743-.458-16.097-.458-.085,0-.168,.007-.253,.007-4.098,.003-8.157,.175-12.222,.32-2.02,.072-4.062,.062-6.07,.165-6.05,.31-12.046,.753-17.954,1.303-6.659,.544-13.298,1.22-19.916,2.016-2.156,.259-4.297,.606-6.448,.891-4.454,.588-8.911,1.157-13.347,1.85-2.449,.383-4.883,.851-7.327,1.263-4.135,.698-8.274,1.369-12.395,2.15-2.408,.456-4.803,.989-7.207,1.472-4.136,.831-8.275,1.64-12.398,2.547-2.399,.528-4.787,1.122-7.183,1.674-4.118,.949-8.239,1.879-12.346,2.896-2.318,.574-4.625,1.205-6.939,1.798-4.174,1.071-8.349,2.129-12.512,3.262-2.163,.588-4.316,1.224-6.476,1.828-4.32,1.209-8.642,2.41-12.952,3.677-1.875,.551-3.745,1.137-5.618,1.698-4.59,1.375-9.18,2.752-13.759,4.183-1.574,.492-3.143,1.008-4.716,1.506-4.885,1.547-9.768,3.1-14.642,4.699-1.177,.386-2.35,.786-3.526,1.175-5.305,1.754-10.607,3.52-15.901,5.322-.45,.153-.897,.31-1.347,.464-36.851,12.572-73.441,26.133-110.021,38.779l-.034,.012c-1.125,.389-2.249,.788-3.373,1.175-4.371,2.186-7.65,3.279-12.022,4.372,1.093,0,3.279,1.093,4.371,1.093,.771,.23,1.546,.442,2.317,.672,145.7,43.394,293.57,78.069,445.77,87.853,5.431,.452,10.865,.718,16.219,.718,7.574,0,14.99-.53,22.033-1.811,2.186-19.672,3.279-39.344,3.279-60.109,0-16.393-1.093-31.694-2.186-48.087Zm-91.803,125.683c-30.235-6.999-61.533-9.91-93.314-9.91-92.284,.003-188.54,24.559-273.898,44.882-123.498,29.508-244.809,68.853-368.306,100.547-43.716,12.022-80.875,18.579-111.475,22.951,30.601,56.83,71.038,107.104,119.125,147.541,74.317-3.279,168.306-32.787,318.033-68.853,74.317-17.486,148.634-36.065,224.044-51.366,16.161-3.328,41.21-7.688,66.069-7.688,32.297,0,64.274,7.363,76.007,33.918,1.093,3.279,2.185,6.558,3.279,10.929,2.186,9.836-1.093,19.672-4.372,29.508-4.371,10.929-9.836,21.858-17.486,33.879,19.672-18.579,37.158-38.251,53.551-60.109,40.437-52.459,71.038-112.568,87.432-179.234-19.672-22.951-45.901-39.345-78.688-46.994ZM544.618,94.565c.846,.282,1.635,.563,2.389,.833,.218,.077,.428,.156,.634,.231h2.143l3.184,.995c54.337,16.98,105.827,25.235,157.415,25.235l5.737,.006,6.157,.006c31.939,0,67.47-1.031,93.196-11.321-2.931-2.423-5.799-4.847-8.914-7.27l-22.951-16.393c-1.087-.384-2.156-.654-3.243-1.015C700.132,32.517,604.08,.547,500.546,.547c-49.767,0-98.14,7.508-143.626,21.27,47.042,16.638,92.866,35.433,135.994,53.786,14.864,6.503,32.127,12.839,51.704,18.962Zm149.379,71.357c83.692,.003,170.089,19.302,231.687,82.712-155.191-16.393-325.683,15.3-473.224,40.437-109.873,18.859-219.127,43.24-328.232,66.247,67.023,3.834,133.043,23.125,178.581,38.105,28.28,9.123,57.295,18.807,85.355,28.173,37.948,12.667,77.142,25.709,116.233,37.991,2.969-.781,5.452-1.594,8.748-3.242l.648-.324,.684-.236c17.841-6.138,35.682-12.514,53.552-18.9,83.48-29.83,169.802-60.675,259.375-67.986,13.312-1.238,25.582-1.84,37.512-1.84,44.816,0,81.167,8.59,111.129,26.259l.26,.153,.251,.167c3.227,2.152,8.126,5.508,13.324,9.664-8.83-47.593-24.815-92.016-46.711-133.904-3.279-6.557-7.65-13.115-10.929-19.672-24.044-42.623-55.737-81.967-90.71-116.94-3.278-2.185-5.462-4.369-7.648-6.554l-.003-.003c-31.293,16.624-76.581,17.498-111.603,17.498-4.118,0-8.099-.012-11.894-.012-56.831,0-111.475-9.836-163.934-26.229-3.279,0-5.464-1.093-8.743-2.186-17.487-5.464-36.065-12.022-53.552-19.672-50.436-21.462-105.102-43.929-160.863-62.325-1.029-.34-2.041-.726-3.071-1.063-85.246,32.787-158.47,87.432-213.115,157.377-26.23,33.879-48.088,69.946-65.574,109.29,124.59-8.743,335.519-74.317,391.256-87.432,30.079-7.039,142.956-45.558,261.21-45.554ZM232.459,898.464c-12.137-1.478-24.151-3.595-36.029-6.346h0c-1.355-.314-2.73-.528-4.08-.861-2.186-1.093-4.371-1.093-6.557-2.186,1.594,1.159,3.189,2.319,4.783,3.479h0c4.497,3.271,8.993,6.54,13.49,9.811,1.832,1.332,3.663,2.665,5.495,3.997l10.413-1.822c12.522-2.191,26.954-3.386,42.803-3.679-10.167-.443-20.288-1.172-30.318-2.393Zm611.817-94.074c-.748-2.942-1.5-5.287-2.339-7.816-2.811-5.761-7.933-9.865-14.188-12.873-34.188-2.015-71.582,9.844-104.251,19.032-57.924,15.301-114.754,33.88-171.585,49.18-30.601,7.65-63.388,17.487-96.175,25.136-48.02,11.405-97.347,20.742-146.006,23.443-1.209,.067-1.281,1.798-.074,1.891,48.445,3.734,107.124,13.865,175.076,30.247,15.563-3.168,32.307-7.344,50.177-12.595,82.944-21.936,141.416-32.152,184.015-32.154,30.336,0,52.804,5.308,68.686,16.227l2.736,1.881,34.927-54.884c6.36-9.993,11.262-19.443,15.4-29.683,2.177-6.538,4.334-13.195,3.601-17.034Zm-125.356,94.421c-42.302,.001-101.681,10.756-181.215,31.79-9.954,2.928-19.541,5.488-28.867,7.788,36.276,8.918,76.982,20.155,123.811,34.203l15.879,4.764h0c6.357-2.019,12.655-4.164,18.91-6.402l.005-.002c3.228-1.155,6.419-2.388,9.618-3.601l.036-.014c3.004-1.139,6.011-2.273,8.989-3.465l.012-.005c2.379-.953,4.735-1.95,7.093-2.944,3.8-1.586,7.586-3.194,11.34-4.867l.004-.002c2.885-1.287,5.753-2.605,8.611-3.944l.008-.004c9.372-4.391,18.58-9.081,27.633-14.044l.018-.01c2.409-1.321,4.827-2.624,7.212-3.986h.001c3.737-2.135,7.42-4.361,11.097-6.596l.019-.011c1.739-1.058,3.493-2.089,5.224-3.16,5.76-3.608,11.46-7.316,17.061-11.183-13.939-9.583-34.468-14.305-62.501-14.304Zm-237.029,44.333l-22.728-5.271c-85.492-19.407-146.245-26.214-189.151-26.214-19.499,0-35.333,1.398-48.154,3.642,7.343,4.895,14.828,9.513,22.398,13.969l.005,.003,.008,.005c2.087,1.229,4.21,2.393,6.327,3.567,7.879,4.481,15.874,8.752,23.986,12.813,2.055,1.051,4.104,2.112,6.184,3.12l.01,.005c2.393,1.159,4.804,2.292,7.216,3.419h.002c1.95,.911,3.924,1.781,5.892,2.662,3.868,1.753,7.695,3.57,11.611,5.244,7.035,3.006,14.079,5.994,21.278,8.746,8.744,3.279,18.579,6.558,28.416,9.836,8.339,2.383,16.772,4.525,25.259,6.525,1.288,.304,2.571,.614,3.863,.909,8.702,1.984,17.466,3.804,26.316,5.375h.002l.01,.002c6.693,1.188,13.438,2.225,20.216,3.16,1.325,.182,2.656,.345,3.984,.517,5.476,.713,10.982,1.329,16.513,1.868,1.854,.179,3.708,.361,5.569,.52,5.216,.45,10.465,.793,15.732,1.081,1.892,.102,3.774,.239,5.672,.32,7.002,.302,14.037,.488,21.127,.488,9.295,0,18.519-.279,27.669-.78,9.089-.508,18.097-1.256,27.016-2.217,.029-.003,.058-.004,.087-.007h.003c19.01-2.052,37.606-5.08,55.607-9.018h0c3.279-.546,6.556-1.093,9.836-1.776,3.279-.683,6.557-1.504,9.836-2.596-54.435-16.33-102.347-29.398-144.847-39.221,.198-.043-2.968-.652-2.77-.695Z"/></svg>