<svg xmlns="http://www.w3.org/2000/svg" width="1000" height="1000">
  <path d="M178.964 146.835c-5.015 18.803-5.015 30.085-5.015 33.845-17.55 33.846-6.267 55.156 8.775 82.734 62.677 89.002 124.101 184.272 185.525 273.273 26.324 32.592 48.888 70.199 71.452 104.045 37.606 48.888 87.748 48.888 122.848 0 87.748-129.116 170.482-255.724 259.484-377.318 16.296-32.592 16.296-65.184 5.014-97.776 120.34 32.592 209.342 126.608 127.861 246.948-99.03 144.158-194.3 288.316-294.583 427.46-21.31 32.592-43.874 67.69-67.691 97.776-20.057 28.832-43.874 56.41-82.734 56.41-42.62 5.014-76.467-15.043-97.777-48.889-56.41-83.987-116.58-166.721-171.736-249.455C178.964 606.886 117.54 517.884 57.37 430.136c-27.578-37.607-55.156-82.734-38.86-137.89 11.282-32.592 28.831-66.438 60.17-83.988 28.831-21.31 60.17-37.606 100.284-61.423zm92.762 0c0-31.34 17.55-47.635 45.128-65.185 33.845-17.55 71.452-38.86 112.819-56.41 43.874-26.324 87.748-26.324 135.383-3.76 40.113 21.31 78.973 42.62 116.58 66.438 40.113 21.31 56.409 58.917 27.577 99.03-55.156 82.734-109.058 165.468-171.735 243.188-20.057 33.846-53.903 33.846-80.227 0-45.128-61.424-89.002-126.608-134.13-188.032-11.282-16.296-22.563-33.846-27.578-50.142-11.282-11.282-15.042-26.324-23.817-45.127z" style="fill:#000;fill-opacity:1;fill-rule:nonzero;stroke:none;"/>
</svg>
