<svg xmlns="http://www.w3.org/2000/svg" viewBox="0 0 1000 1000"><path d="M731.648 995H28.126V5h641.41c140.703 0 247.182 78.592 264.929 202.817 22.817 133.099-84.93 283.944-202.817 283.944 166.056 55.775 248.45 109.014 239.578 285.211-13.944 116.62-116.62 218.029-239.578 218.029zM208.126 815H656.86c81.127 0 81.127 0 81.127-82.394 0-27.887-10.14-36.76-31.69-36.76H390.662c3.803-8.874 202.817-234.508 292.817-334.649 44.366-41.83 44.366-86.197 36.76-139.436H229.676v97.605h310.563c10.141-11.408-266.197 313.1-304.225 356.198-35.493 41.83-27.888 92.535-27.888 139.437z"/></svg>