<svg xmlns="http://www.w3.org/2000/svg" viewBox="0 0 1000 1000"><path d="M5 500.496C5 225.55 226.54 5 500.496 5c272.968 0 494.507 222.528 494.507 494.507 0 274.946-222.528 495.496-494.507 495.496C225.55 995.003 5 772.475 5 500.496zm86.044 121.649c-10.879 21.758 0 41.539 25.715 44.506h15.824c16.813 0 34.615 0 46.484-18.792 50.44-99.89 104.835-200.77 156.264-297.693 6.923-9.89 6.923-23.736-2.967-31.648-4.945-6.924-14.835-9.89-22.748-9.89-54.395-1.979-48.461-4.946-72.198 38.57-48.461 92.968-97.912 182.969-146.374 274.947zm177.034 2.967c-6.923 20.77 4.945 38.572 26.703 41.539h35.605c11.868 0 20.769-7.913 24.725-18.792 15.824-27.692 28.681-53.407 44.506-79.12 4.945-12.858 12.857-20.77 27.692-20.77 13.846 2.967 18.791 10.879 23.736 23.736 9.89 25.715 18.792 50.44 28.682 76.154 4.945 12.857 9.89 20.77 25.714 23.737 11.868 0 23.737-7.913 27.693-20.77l162.198-300.66c2.967-5.934 2.967-9.89 5.934-12.857 0-18.791-12.857-30.66-28.681-30.66h-30.66c-15.824 0-26.703 6.923-33.626 19.78-12.857 26.704-25.715 49.451-41.539 74.177-4.945 10.879-12.857 15.824-23.736 15.824-12.857 0-19.78-4.945-25.715-16.813-6.923-23.737-17.802-46.484-27.692-70.22-4.945-15.825-12.857-28.682-30.66-31.649-17.802 0-22.747 15.824-31.648 28.682-48.462 92.967-96.923 185.934-146.374 277.913-4.945 7.912-9.89 15.824-12.857 20.769zm367.913 0c-9.89 22.747 2.967 41.539 28.682 41.539h95.934c12.857 0 22.747-7.913 24.725-20.77 4.945-12.857 0-25.714-11.868-30.66-26.703-15.823-55.385-28.68-81.099-40.549-14.835-8.9-27.692-2.967-34.616 11.868-8.9 12.858-12.857 25.715-21.758 38.572zm131.539-241.32c-4.945 9.89-2.967 19.78 7.912 27.693 7.912 10.879 20.77 12.857 30.66 4.945 30.659-19.78 61.318-38.572 92.967-59.34 9.89-6.924 12.857-19.781 9.89-30.66-1.978-12.858-12.857-19.78-25.714-19.78h-62.308c-6.923 1.977-16.813 6.922-19.78 11.868-12.858 21.758-23.737 41.538-33.627 65.274z"/></svg>