<svg xmlns="http://www.w3.org/2000/svg" viewBox="0 0 1000 1000"><path d="M750.77 926.072c73.685-42.785 131.92-102.21 175.894-175.895 46.351-77.251 67.744-161.633 67.744-250.77 0-87.947-22.581-172.329-67.744-249.58C883.88 176.14 824.455 116.717 750.77 72.743 673.52 26.393 589.136 5 500 5S326.482 27.581 250.42 72.743c-74.875 43.974-134.3 103.398-178.273 177.084-46.35 77.251-66.555 161.633-66.555 249.58 0 89.137 21.393 173.519 66.555 250.77 42.785 73.686 103.398 133.11 178.272 175.895 77.251 43.974 160.445 68.932 248.393 68.932 90.324 0 173.518-23.77 251.957-68.932zM53.13 499.408c0-80.817 20.205-154.503 61.801-224.623 40.409-67.743 91.513-121.225 160.445-160.445 68.932-39.22 143.806-60.612 223.435-60.612 82.005 0 156.879 20.204 227 60.612 66.554 38.031 120.036 92.702 159.256 160.445 40.408 70.12 60.612 143.806 60.612 224.623 0 82.005-20.204 155.69-60.612 225.81-39.22 67.744-92.702 121.226-159.257 160.446-70.12 41.596-144.994 60.612-225.811 60.612-80.817 0-155.69-20.204-224.623-60.612-68.932-40.409-121.225-92.702-160.445-160.445-40.408-70.12-61.8-143.806-61.8-225.811zM300.335 676.49c0 8.32 0 22.581 1.189 39.22l1.188 33.277h140.241v95.079H561.8l-4.754-97.455h140.24V631.329H466.724c24.958-24.958 43.973-46.35 55.858-60.613 55.859-67.743 102.21-117.659 135.487-158.067l13.073-13.074c8.32-7.13 13.073-14.261 15.45-19.015 7.131-7.131 10.697-13.074 10.697-19.016 3.565-11.885 4.754-24.958 4.754-39.22v-39.22l-1.189-34.466H558.236v-93.89H442.953v96.267H312.22v116.471h221.057L477.42 428.1c-58.236 64.178-98.644 121.225-134.298 156.88-3.566 3.565-8.32 8.319-14.262 15.45-5.943 7.13-11.885 13.073-15.45 17.827-4.754 7.13-8.32 13.073-9.508 19.015-2.377 11.885-3.566 24.958-3.566 39.22z"/></svg>