<svg xmlns="http://www.w3.org/2000/svg" viewBox="0 0 1000 1000"><path d="M648.216 353.496h-97.67v391.775h444.45V252.535h-346.78zM5.134 512.621c2.195 32.922 7.682 64.747 21.948 94.377C70.98 695.888 146.7 737.589 241.077 745.27c34.02 4.39 70.234 0 105.351 0h6.585V644.31H260.83c-21.948 0-43.896-3.293-65.844-13.17-38.41-13.168-68.04-38.409-81.208-79.013-7.682-21.948-8.78-47.188-6.585-71.331 3.292-43.897 21.948-76.819 58.163-100.962 28.532-17.558 59.26-24.143 92.182-24.143 74.624-2.195 147.053 0 219.482 0 7.682 0 9.876-3.292 9.876-9.877v-84.5c0-7.682-2.194-8.78-10.974-8.78H258.636c-31.825 0-63.65 4.39-93.28 15.364-62.552 23.046-110.838 61.455-138.274 124.008C9.524 431.412 4.037 470.919 5.134 512.62zm231.553 37.311c0 6.585 2.195 9.877 8.78 9.877 44.993-1.097 87.792-1.097 130.591-1.097h8.78v178.877c0 6.585 2.194 9.877 9.876 9.877 27.435-2.195 55.968-2.195 82.306 0 8.78 0 9.876-3.292 9.876-9.877V465.432c0-7.682-1.097-9.877-9.876-9.877H245.467c-6.585 0-8.78 2.195-8.78 9.877zm412.626 93.28V353.496h244.722v289.716z"/></svg>