<svg xmlns="http://www.w3.org/2000/svg" viewBox="0 0 1000 1000"><path d="M500.496 5C223.572 5 5 229.506 5 500.002c0 276.43 224.506 495.001 495.002 495.001 276.43 0 495.001-224.506 495.001-495.001C995.003 226.539 773.464 5 500.496 5zM116.76 579.617c-23.738-135.495 10.878-257.143 108.79-357.034C367.968 77.198 596.43 70.275 752.695 196.87c87.033 68.24 135.495 159.23 146.374 272.967 5.934 45.494-2.967 91.978-15.824 137.473-5.934 17.802-5.934 17.802-16.814 17.802h-49.45c-20.77 0-23.737-5.934-26.704-21.758-7.912-91.979-22.747-186.924-33.626-278.902 0-6.924-1.978-3.956-3.956-16.814-8.901 5.934-8.901 5.934-20.77 14.836-67.252 72.198-139.45 140.44-208.682 210.66-18.79 19.78-18.79 19.78-38.571 0-73.187-70.22-140.44-144.396-213.627-210.66-5.934-7.913-11.868-11.869-17.802-20.77-4.945 34.616-8.902 64.286-10.88 95.935-10.879 65.275-20.769 133.517-25.714 201.759-5.934 25.714-5.934 25.714-31.648 25.714h-15.825c-41.538 0-41.538 0-52.417-45.495zm52.417 126.594h95.935c14.835 0 18.791-4.945 20.77-19.78 5.933-64.286 11.867-105.825 18.79-171.1 2.967-20.769 5.934-26.703 7.912-34.615 9.89 3.956 12.858 10.879 20.77 15.824 52.418 49.45 107.802 102.858 155.275 155.275 10.88 10.88 18.791 10.88 30.66 0 50.44-52.417 103.846-102.857 155.275-155.275l19.78-19.78c2.967 27.692 7.912 49.45 7.912 69.23 5.934 44.506 9.89 93.957 18.791 140.44 0 14.836 6.923 19.781 19.78 19.781h93.957c-3.956 67.253-166.154 176.045-280.88 189.89-181.979 22.748-335.276-91.977-384.727-189.89z"/></svg>