<svg xmlns="http://www.w3.org/2000/svg" viewBox="0 0 1000 1000"><path d="M995.004 18.818 500.002 981.183 5 18.818h258.808l237.45 486.208L733.684 18.818zM422.11 204.758c0-21.358 6.281-40.203 22.614-56.536 15.076-15.076 33.921-21.358 55.28-21.358 22.614 0 41.459 6.282 55.279 21.358 15.076 17.59 22.614 35.178 22.614 56.536 0 22.614-6.282 40.203-22.614 56.536-13.82 13.82-32.665 21.358-55.28 21.358-21.358 0-40.203-7.538-55.28-21.358-17.588-15.076-22.613-33.922-22.613-56.536zM776.4 577.894c0-21.358 8.795-40.203 23.871-55.28 16.333-16.332 33.922-23.87 55.28-23.87 21.357 0 38.946 7.538 55.279 23.87 15.076 15.077 22.614 33.922 22.614 55.28 0 22.614-6.282 38.947-22.614 55.28-15.076 15.076-33.922 23.87-55.28 23.87-21.357 0-40.203-8.794-55.279-23.87-16.332-16.333-23.87-32.666-23.87-55.28z"/></svg>