<svg xmlns="http://www.w3.org/2000/svg" width="1000" height="1000">
  <path d="M300.06 536.881H76.178V429.47h181.176l-2.588-3.883-25.882-63.411c-1.295-3.883-1.295-3.883-2.589-3.883H76.178V253.47h104.823V247c-31.058-71.177-62.117-143.647-95.764-216.118 0-6.47-6.47-16.823-9.059-25.882h141.058c59.53 141.058 117.765 280.823 178.588 420.587v3.883H599c2.588 0 5.177 0 5.177-3.883l14.235-31.059C676.647 266.411 728.412 135.706 781.47 5h142.353v2.588l-99.647 231.647c-2.588 5.176-3.882 7.764-3.882 14.235h103.529v104.823H775c-1.294 0-1.294 0-5.177 3.883l-27.176 60.823s0 2.588-2.588 6.47h183.764v107.412H699.94c-3.882 0-3.882 0-5.176 1.294L618.412 721.94c-36.235 88-77.647 178.588-119.059 269.176 0 0 0 2.588-1.294 3.883v-3.883c-64.705-150.117-129.411-304.117-194.117-452.94-1.294-1.294-1.294-1.294-3.882-1.294zm141.058 0c16.824 45.294 37.53 91.882 56.941 141.058 22-49.176 40.118-95.764 60.824-141.058z" style="fill:#000;fill-opacity:1;fill-rule:nonzero;stroke:none;"/>
</svg>
