<svg xmlns="http://www.w3.org/2000/svg" width="1000" height="1000">
  <path d="M518.395 993.114C228.228 1004.931 2.397 779.099 5.023 499.436 7.649 219.773 220.35 18.888 473.753 7.072c301.984-14.443 521.25 221.892 521.25 492.364 0 283.602-221.892 483.174-476.608 493.678zM61.48 499.436c0 240.274 195.633 438.533 433.281 438.533 245.526 0 441.159-194.32 443.785-438.533 2.626-240.274-195.633-438.532-435.907-438.532-245.526 0-441.159 194.32-441.159 438.532zm68.275-89.282 2.626-3.939c1.313 9.191 1.313 15.756 1.313 22.32 10.504 48.58 34.137 84.031 66.961 116.855 45.954 42.016 98.473 70.9 150.992 99.786 26.26 14.443 56.458 27.573 81.405 42.015 32.824 18.382 57.77 40.703 66.961 80.092 2.626-18.382 2.626-36.764-5.252-56.458-13.13-31.511-36.763-55.145-63.022-76.152-27.573-17.07-56.458-30.199-84.03-47.267-44.642-27.573-86.657-64.336-116.855-106.351-59.084-76.153-44.641-207.45 26.26-273.099 47.266-43.328 102.411-66.961 157.556-78.778 140.488-30.198 262.594 9.191 361.067 110.29 106.351 108.977 126.046 242.9 78.779 388.64v2.626c-2.626-23.634-2.626-45.954-7.878-68.275-13.13-53.832-47.267-95.847-89.282-127.358-52.52-39.39-114.229-64.336-173.313-87.97-6.564-2.625-13.13-5.251-21.007-6.564l-1.313 1.313 24.946 14.442c43.328 24.947 93.221 48.58 133.924 82.718 65.648 51.206 107.663 122.106 97.16 206.136-7.878 66.962-39.39 122.107-97.16 160.183-51.206 36.763-107.664 61.71-172 69.587-108.977 13.13-204.824-13.13-288.854-82.717-118.167-98.473-161.495-228.457-129.984-382.075zm148.366 242.9c6.565 44.641 11.817 86.656 21.007 133.923 1.313 6.565 5.252 11.817 13.13 17.069 27.573 15.756 59.084 30.198 87.97 38.076 87.968 30.198 170.686 18.382 244.212-35.45 68.275-45.954 98.473-131.297 76.153-208.763-11.817-47.267-43.329-80.091-82.718-107.663-32.824-23.634-72.213-44.642-107.663-63.023-32.825-17.069-64.336-31.511-90.596-63.023-35.45-36.763-30.198-105.038 7.878-143.114 40.702-35.45 110.29-34.137 152.305 9.191 22.32 21.008 38.076 44.641 48.58 72.213 5.252 13.13 7.878 22.321 15.756 35.45 9.19-2.625 19.694-3.938 32.824-9.19-1.313-1.313-1.313-6.565-1.313-10.504-5.252-40.702-11.817-84.03-18.382-126.045 0-6.565-3.938-10.504-10.503-13.13-32.825-6.565-65.649-18.382-95.847-22.32-61.71-7.878-120.794 0-175.939 30.198-110.29 60.397-139.175 215.327-39.389 301.984 27.573 21.007 56.458 40.702 84.03 57.77 34.138 18.382 66.962 36.764 98.473 59.084 39.39 24.947 63.023 59.084 61.71 110.29-1.313 59.084-44.641 99.786-102.412 99.786-38.076 0-65.648-13.13-93.22-36.764-38.077-32.824-64.336-76.152-80.092-123.419-3.94-2.626-6.565-7.878-6.565-11.817-14.443 3.94-26.26 7.878-39.39 9.191z" style="fill:#000;fill-opacity:1;fill-rule:nonzero;stroke:none;"/>
</svg>
