<svg xmlns="http://www.w3.org/2000/svg" width="1000" height="1000">
  <path d="M500.496 5c272.968 0 494.507 221.54 494.507 495.002 0 270.495-218.572 495.001-495.001 495.001C229.506 995.003 5 776.431 5 500.002 5 229.506 223.572 5 500.496 5zM207.748 467.859c48.462-37.583 94.945-79.121 141.429-116.704 9.89-10.88 0-28.681-6.923-35.605-24.725-24.725-61.319-52.417-86.044-81.099-12.858-9.89-27.693-23.736-48.462-44.505zm42.528 75.165c52.417 81.099 112.747 166.154 171.099 248.242 44.506 65.275 66.264 100.88 77.143 100.88-56.374-205.715-119.67-534.068-139.45-534.068-31.65 36.594-69.232 72.198-102.858 109.78-33.627 35.605-33.627 35.605-5.934 75.166zm154.286-148.352c18.791 114.725 77.143 389.671 104.835 442.089 21.759-47.473 68.242-280.88 107.803-448.023 8.901-25.715 0-37.583-27.693-37.583H436.21c-39.56 0-39.56 2.967-31.648 43.517zm117.692 487.584c-4.945 16.813 6.924 0 14.836-10.88 80.11-115.714 161.209-234.396 245.275-350.11 5.934-9.89 3.956-20.77-10.879-37.583-41.539-46.484-46.484-53.407-122.638-125.605-43.516 178.023-87.033 345.166-126.594 524.178zm147.364-531.101c39.56 43.517 87.033 86.044 133.517 132.528v-280.88l-6.924-5.934c-45.494 45.494-87.033 88.022-126.593 133.517-6.923 8.9-6.923 13.846 0 20.769z" style="fill:#000;fill-opacity:1;fill-rule:nonzero;stroke:none;"/>
</svg>
