<svg xmlns="http://www.w3.org/2000/svg" viewBox="0 0 1000 1000"><path d="M5 500.496C5 225.55 226.54 5 500.496 5c272.968 0 494.507 222.528 494.507 494.507 0 274.946-222.528 495.496-494.507 495.496C225.55 995.003 5 772.475 5 500.496zm199.78-139.45c-26.703 191.868 37.583 348.132 195.826 450.99 113.736 74.176 90 67.253 202.748 1.978 85.055-44.506 147.363-116.704 181.978-207.693 43.517-116.704 37.583-232.419-.989-347.144-3.956-7.912-9.89-18.792-18.791-21.759-31.648-5.934-44.506-28.681-59.34-53.406H306.648c-17.802 38.571-17.802 38.571-78.132 63.296-8.9 38.572-17.802 78.133-23.736 113.737zm42.529 152.307c-11.869-86.044-4.946-137.473 23.736-243.297 29.67-4.945 51.429-18.791 56.374-50.44h356.045c4.945 25.714 22.747 42.528 50.44 48.462 31.648 87.033 43.516 180 23.736 272.968-28.682 132.528-114.726 212.638-234.396 270.99-13.847 5.934-24.726 5.934-39.561 0-128.572-61.32-212.638-157.254-236.374-298.683zm16.813-19.78c18.791 141.43 96.923 239.342 222.528 298.682 11.868 4.945 22.747 4.945 36.594 0 54.395-25.714 105.824-59.34 146.374-110.77 93.956-117.692 93.956-248.242 57.362-384.726-3.956-5.934-9.89-10.879-11.868-16.813-17.802-14.835-35.604-26.703-57.363-42.528H347.2c-7.912 9.89-16.813 27.693-27.692 32.638-34.616 15.824-39.561 42.527-45.495 75.165-9.89 51.429-15.824 99.89-9.89 148.352zm122.638 74.176V465.881c3.956-14.836 5.934-29.67 19.78-35.605 16.813-5.934 20.77-13.846 22.747-27.692 12.857-37.583 36.594-57.363 75.165-57.363 39.56 0 67.253 21.758 79.121 60.33 0 5.934 0 10.879 2.967 18.791 32.638 2.967 39.561 23.736 39.561 48.462-3.956 31.648 0 62.308 0 94.945-3.956 30.66-10.88 38.572-42.528 38.572-52.417 3.956-102.857 3.956-154.286 0-31.648 0-38.571-7.912-42.527-38.572zm68.242-140.44c37.582-2.967 68.241 5.934 100.879-4.945-8.901-40.55-26.703-55.385-57.363-52.418-26.703 3.956-37.582 17.803-43.516 57.363zm28.68 66.264c20.77 19.78 6.924 44.506 6.924 70.22h32.637c0-25.714-13.846-47.473 5.935-70.22 0 0-2.967-15.824-8.902-17.802-7.912-2.967-15.824-2.967-24.725 0-4.945 0-11.868 13.846-11.868 17.802z"/></svg>