<svg xmlns="http://www.w3.org/2000/svg" viewBox="0 0 1000 1000"><path d="M5 500.496c0 271.98 220.55 494.507 495.496 494.507 271.98 0 494.507-220.55 494.507-495.496C995.003 227.528 773.464 5 500.496 5 226.54 5 5 225.55 5 500.496zm172.088 50.44c-2.967-39.56 0-77.143 0-117.693v-4.945c4.946 3.956 7.913 4.945 10.88 7.912 72.198 73.187 145.385 146.374 215.605 221.54l94.945 94.945c6.923 6.923 11.868 6.923 17.802 0 61.32-63.297 125.605-126.594 186.924-191.869a7758.76 7758.76 0 0 0 127.583-127.583c3.956-.989 4.945-4.945 11.868-6.923v120.66c0 5.934-6.923 13.846-7.912 19.78-71.209 70.22-139.451 143.407-209.671 213.627-33.627 37.583-70.22 70.22-103.847 106.814-2.967 4.945-4.945 7.912-10.879 13.846-1.978-5.934-7.912-8.901-9.89-10.88-86.044-89.01-175.055-180-263.078-269.011-18.79-17.802-36.593-36.594-52.417-56.374-4.945-3.956-7.913-7.912-7.913-13.846zm28.682-140.44c73.187-75.165 146.374-151.32 221.54-223.517 22.746-23.737 47.472-49.451 71.208-73.187 1.978-1.978 6.923-5.935 9.89-10.88 4.945 4.945 9.89 8.902 12.857 12.858 75.166 76.154 151.32 151.319 226.485 230.44 21.758 20.77 41.538 41.539 63.297 64.286 6.923 4.945 6.923 10.879 0 17.802-40.55 39.56-76.154 79.121-113.737 114.726-59.34 60.33-115.715 119.67-176.045 180-12.857 12.858-12.857 12.858-26.703 2.967-92.967-99.89-188.902-197.802-285.825-297.693-7.912-4.945-10.88-9.89-2.967-17.802zm54.396 17.802 71.209 71.21c43.516 47.472 88.022 90.988 132.528 135.494 15.824 14.835 28.681 31.649 44.505 46.484 7.912-6.923 12.857-13.846 17.803-20.77 75.165-76.154 151.319-153.297 229.45-228.462 7.913-8.901 7.913-13.846 0-23.736-78.131-78.132-156.263-157.253-231.428-234.397-15.825-16.813-15.825-16.813-31.649 0-43.517 46.484-89.011 90-132.528 138.462-34.615 29.67-66.264 64.286-99.89 97.913-3.956 4.945-7.912 10.879 0 17.802zm253.187 162.198V243.352c4.945 5.935 10.88 7.913 12.858 10.88 47.472 50.44 96.923 99.89 146.374 151.319 10.879 9.89 10.879 9.89-2.967 22.747-46.484 49.45-95.935 99.89-143.407 149.341-4.946 4.945-7.913 6.923-12.858 12.857zm36.594-93.956c2.967-2.967 2.967-2.967 4.945-2.967 22.747-23.736 44.506-46.484 68.242-70.22 7.912-4.945 1.978-9.89 0-12.857-15.824-14.835-28.681-28.682-41.539-41.539-10.879-10.879-21.758-20.77-31.648-31.648z"/></svg>