<svg xmlns="http://www.w3.org/2000/svg" width="1000" height="1000">
  <path d="M500.496 5C223.572 5 5 229.506 5 500.002c0 276.43 224.506 495.001 495.002 495.001 276.43 0 495.001-224.506 495.001-495.001C995.003 226.539 773.464 5 500.496 5zm-320.44 709.123V274.012c0-12.857 1.978-20.77 16.813-24.725 30.66-9.89 61.319-19.78 93.956-32.638 21.758-6.923 41.539 5.934 49.45 26.703 7.913 42.528 18.792 88.023 30.66 127.583 7.912 20.77 7.912 33.627-4.945 49.451-3.956 7.912-6.923 14.835-11.868 25.714h-5.934c-19.78-60.33-35.605-117.692-53.407-175.055-27.692 6.923-36.593 14.835-36.593 39.56v360.002c0 35.604 6.923 36.593 39.56 50.44 6.923-28.682 14.835-60.33 23.737-90.001 18.79-60.33 37.582-120.66 72.198-178.023 10.879-24.725 28.681-48.461 49.45-67.253 39.56-42.527 90-35.604 130.55 13.847 5.934 3.956 5.934 7.912 5.934 11.868-8.9 8.901-11.868 23.736-17.802 38.571-6.923-7.912-14.835-10.879-17.802-17.802-26.704-36.593-58.352-36.593-87.033 0-34.616 45.495-53.407 99.89-71.21 154.286-16.813 51.43-31.648 102.858-45.494 155.276-7.912 26.703-24.726 35.604-53.407 26.703-28.681-8.901-59.34-19.78-90-26.703-14.835-5.934-16.813-9.89-16.813-27.693zM432.254 586.54v-9.89c3.956-11.868 10.88-23.736 17.802-36.593 6.924 9.89 13.847 16.813 19.78 24.725 23.737 24.725 50.44 28.681 70.22 2.967 23.737-32.637 45.495-61.319 57.364-95.934 27.692-72.198 48.461-147.363 72.198-222.528 4.945-29.67 27.692-39.561 53.406-29.67 34.616 9.89 63.297 19.78 93.957 29.67 10.879 3.956 11.868 6.923 11.868 21.758v443.078c0 13.846-.99 21.759-15.824 24.726-30.66 9.89-62.308 20.769-96.924 32.637-15.824 5.934-36.593-5.934-44.505-22.747-13.847-47.473-23.737-94.946-35.605-141.43-10.879-25.714 9.89-39.56 18.791-64.285h7.913c16.813 61.319 37.582 117.692 53.406 176.044 34.616-11.868 34.616-17.802 34.616-48.461V317.528c0-34.615 0-36.593-39.56-46.483-2.968 6.923-2.968 14.835-4.946 22.747-20.77 85.055-43.516 165.166-85.055 238.353-17.802 32.637-35.605 61.318-66.264 81.099-39.56 31.648-89.011 17.802-122.638-26.704z" style="fill:#000;fill-opacity:1;fill-rule:nonzero;stroke:none;"/>
</svg>
