<svg xmlns="http://www.w3.org/2000/svg" viewBox="0 0 1000 1000"><path d="M849.216 693.589c7.567 156.383-161.427 291.326-335.466 301.415-174.039 0-350.6-118.548-363.212-276.192 0-105.937 64.319-257.275 134.944-388.435l41.618-76.93c1.26-2.522 2.522-7.567 8.828-13.873l1.26 2.522L492.31 399.74c0 3.784 2.523 3.784 2.523 3.784 5.044 3.783 5.044 3.783 7.567 0 52.968-54.23 162.688-163.95 162.688-163.95C747.063 388.39 845.433 612.875 849.216 693.59zM362.412 199.217c-2.523-2.522-2.523-2.522 0-5.044C382.59 162.643 492.31 11.306 499.877 5l12.612 13.873c25.223 30.267 109.72 148.816 124.854 175.3 1.261 2.522 2.522 2.522 0 5.044C584.374 252.186 546.54 288.76 502.4 332.9c-3.784 3.784 0 3.784-3.784 0z"/></svg>