<svg width="33" height="32" viewBox="0 0 33 32" fill="none" xmlns="http://www.w3.org/2000/svg">
<g clip-path="url(#clip0_3393:12223)">
<path fill-rule="evenodd" clip-rule="evenodd" d="M16.4338 31.84C25.1819 31.84 32.2738 24.7482 32.2738 16C32.2738 7.25184 25.1819 0.160034 16.4338 0.160034C7.68556 0.160034 0.59375 7.25184 0.59375 16C0.59375 24.7482 7.68556 31.84 16.4338 31.84ZM6.86471 9.14339L11.5281 4.47998H13.7444C13.1441 4.82628 11.1587 7.2965 10.6508 9.14339H6.86471ZM16.0068 4.47998V9.14339H11.5281C11.8436 8.18147 12.9687 5.90209 14.9449 4.47998H16.0068ZM16.9072 9.14339H21.4321C20.3794 6.63162 18.6694 4.98788 17.9461 4.47998H16.9072V9.14339ZM25.9801 9.14339H22.3094C21.7322 7.75822 20.6887 5.84669 19.1927 4.47998H21.2705L25.9801 9.14339ZM10.5355 22.8566H6.8648L11.5744 27.52H13.6521C12.1561 26.1533 11.1127 24.2417 10.5355 22.8566ZM11.4128 22.8566H15.9377L15.9377 27.52L14.8988 27.52C14.1754 27.0121 12.4655 25.3683 11.4128 22.8566ZM16.838 22.8566V27.52H17.9C19.8762 26.0979 21.0012 23.8185 21.3167 22.8566L16.838 22.8566ZM21.3167 27.52L25.9801 22.8566H22.194C21.6861 24.7035 19.7007 27.1737 19.1005 27.52H21.3167ZM13.6489 21.0129C13.3542 21.0736 13.0552 21.1039 12.7519 21.1039C12.4486 21.1039 12.1452 21.0736 11.8419 21.0129C11.5472 20.9523 11.2699 20.8396 11.0099 20.6749C10.7499 20.5103 10.5289 20.3023 10.3469 20.0509C10.1736 19.7996 10.0522 19.5266 9.98291 19.2319C9.91357 18.9286 9.87891 18.6253 9.87891 18.3219V11.4449H11.4779V18.3219C11.4779 18.4953 11.4996 18.6686 11.5429 18.8419C11.5949 19.0066 11.6816 19.1583 11.8029 19.2969C11.9242 19.4269 12.0672 19.5223 12.2319 19.5829C12.4052 19.6349 12.5786 19.6609 12.7519 19.6609C12.9252 19.6609 13.0942 19.6349 13.2589 19.5829C13.4322 19.5223 13.5796 19.4269 13.7009 19.2969C13.8222 19.1583 13.9046 19.0066 13.9479 18.8419C13.9999 18.6686 14.0259 18.4953 14.0259 18.3219V11.4449H15.6249V18.3219C15.6249 18.6253 15.5902 18.9286 15.5209 19.2319C15.4516 19.5266 15.3259 19.7996 15.1439 20.0509C14.9706 20.3023 14.7539 20.5103 14.4939 20.6749C14.2339 20.8396 13.9522 20.9523 13.6489 21.0129ZM18.7471 20.9999H17.0441L19.4491 16.2159L17.0441 11.4449H18.7471L20.2421 14.5779L21.7501 11.4449H23.4401L21.0351 16.2159L23.4401 20.9999H21.7501L20.2421 17.8669L18.7471 20.9999Z" fill="black"/>
</g>
<defs>
<clipPath id="clip0_3393:12223">
<rect width="32" height="32" fill="white" transform="translate(0.441406)"/>
</clipPath>
</defs>
</svg>
