<svg xmlns="http://www.w3.org/2000/svg" viewBox="0 0 1000 1000"><path d="M855.515,652.93c144.338,93.439,144.485,278.215,144.485,278.215h-453.121c6.76-2.135,13.502-4.413,20.217-6.876,43.84-16.076,85.742-38.767,124.541-67.441,72.373-53.486,130.102-125.451,163.878-203.898ZM228.576,368.748c13.282,58.987,36.721,106.429,69.666,141.007,81.095,85.118,212.059,86.421,328.447,80.962,88.604-4.156,165.463,7.878,218.007,33.945,11.902-39.467,18.312-81.314,18.312-124.662,0-238.116-193.031-431.147-431.147-431.147-77.018,0-149.307,20.212-211.885,55.595-9.013,96.71-6.127,178.896,8.6,244.299Zm203.09,562.398c.065,0,.129,.001,.194,.001s.129-.001,.194-.001h2.851c42.002-2.036,84.098-10.698,125.254-25.791,42.04-15.416,82.246-37.194,119.503-64.728,69.954-51.699,125.623-121.274,157.914-197.001-49.448-25.205-123.612-36.835-209.944-32.783-22.774,1.068-46.111,1.878-69.544,1.878-100.895,.002-203.873-15.008-274.434-89.068-35.495-37.255-60.639-87.883-74.734-150.478-14.458-64.21-17.897-143.666-10.257-236.376C-164.972,378.667,5.149,931.146,429.513,931.146h2.153Z"/></svg>