<svg xmlns="http://www.w3.org/2000/svg" viewBox="0 0 1000 1000"><path d="M775.008 489.628c334.361 142.775 273.346 442.968-86.641 468.594-128.132 7.322-255.043 7.322-375.852 7.322H76.997C28.185 965.544 5 944.8 5 893.547V106.454c0-51.252 23.185-71.997 67.116-71.997 212.332 0 425.884 0 638.216 6.101 147.656 0 274.567 98.844 262.364 250.161 0 120.81-73.218 163.52-197.688 198.909zM256.38 737.348c0 23.186 13.423 36.61 41.49 36.61 245.28 0 427.105 12.202 427.105-91.523 0-71.998-76.88-95.183-157.419-95.183H390.614c-36.61 0-50.032-12.203-50.032-46.372v-87.86c0-35.389 13.423-48.812 50.032-48.812 190.366-7.322 319.718 19.525 319.718-85.42 0-65.897-50.032-84.201-134.233-84.201H297.871c-34.168 0-41.49 12.203-41.49 41.49 1.22 26.846 1.22 434.426 0 461.272z"
    style="fill:#000;fill-opacity:1;fill-rule:nonzero;stroke:none"/></svg>