<svg xmlns="http://www.w3.org/2000/svg" width="1000" height="1000">
  <path d="M236.677 607.129v25.034c-31.292-25.034-20.861-64.672-36.508-93.878-12.517 9.388-15.646 0-15.646-7.302-7.302-86.576 6.258-173.153 73.016-222.178 4.172-3.129 18.776 0 26.077 0 14.604 0 21.905 4.173 35.465 9.388-10.43 18.776-19.818 53.198-23.99 54.24-13.56 10.432-11.475 16.69 0 25.035 5.215 7.301 10.43 16.69 5.215 27.12-2.086 11.474 4.172 21.905 8.344 25.034 21.905 12.517 25.035 32.336 31.293 47.982 15.646 21.905 33.379 25.034 57.37 25.034 8.345 0 12.517-3.129 20.862-3.129 0 6.259 3.129 18.776 8.344 28.164 7.302 27.12 28.164 50.068 52.155 67.8 32.336 25.034 68.844 16.69 92.835-20.861 8.345-11.474 15.646-27.12 26.077-43.81 11.474-12.517 21.905-19.819 38.594-25.034v29.206c19.819-7.301 32.336-16.69 32.336-35.465 0-18.775 6.259-33.379 23.991-49.025 0 7.302 1.043 11.474 4.172 19.819 7.302 5.215 18.776-8.345 18.776-19.819v-28.163c0-9.388 1.043-17.733 7.302-23.991 9.387-8.345 13.56-1.043 13.56 6.258 15.646-2.086 15.646-10.43 15.646-19.819V357.83h4.173c4.172 0 8.344 4.173 8.344 7.302 12.517-7.302 15.647-19.819 7.302-32.336-3.13-14.603-3.13-32.335 5.215-49.025 3.13 6.259 6.259 6.259 11.474 6.259 5.216-20.862-8.344-45.896 5.216-69.887 6.258 16.69 19.818 27.12 22.948 40.68 8.344 19.819 23.99 35.465 44.852 44.853 11.474 7.302 18.776 19.819 36.509 31.293 0-18.776 3.129-40.68 31.292-42.767 0 6.259 0 14.603 4.173 18.776 13.56 5.215 25.034 5.215 39.637 8.344-3.13 9.388-9.388 15.647-12.517 23.991 17.732 7.302 28.163 16.69 34.422 37.552-16.69 0-36.508-6.259-53.198 4.172 21.905 22.948 31.293 35.465 21.905 51.111-10.43-3.129-21.905-9.388-30.25-19.818-4.172-8.345-14.603-13.56-25.034-20.862-7.301 16.69-10.43 25.034-14.603 37.551-20.862-10.43-25.034-20.862-17.732-52.154-3.13-6.259-7.302-6.259-14.604-10.431v20.861c14.604 177.326-109.524 329.617-281.633 355.694-13.56 0-23.992 3.129-29.207 18.775-3.13 16.69-15.646 23.991-36.508 32.336 0-3.13-3.13-11.474-8.345-19.819-11.474 16.69-19.818 25.035-27.12 41.724-4.172-10.43-9.388-13.56-13.56-21.905-7.302 5.216-10.431 8.345-18.776 11.474 16.69 13.56 21.905 20.862 28.164 40.68 0 16.69 8.344 32.336-11.474 44.853 0-23.99-25.035-28.163-41.724-44.852-23.991 11.473-43.81 29.206-52.154 56.326-4.173 12.517-14.604 21.905-29.207 32.336-6.258-15.646-9.388-32.336-6.258-46.939 3.129-12.517 15.646-25.034 27.12-36.508-46.94-12.517-40.68-6.259-90.749 23.991-12.517-23.991-8.345-41.724 13.56-53.198 10.431-2.086 47.982-9.387 50.069-16.689-25.035-6.258-44.853-19.819-63.629-31.293 6.259-12.517 30.25-23.99 49.025-16.689 14.604 8.345 27.12 20.862 41.724 33.379 0-8.345 0-16.69-3.13-20.862-8.344-15.646-20.861-27.12-32.335-40.68 14.603-11.474 32.336-3.13 43.81 0 13.56 8.344 20.861 25.034 32.335 40.68 5.216-12.517 8.345-23.991 12.517-37.551 0-3.13 0-6.259-7.301-10.431-80.318-40.68-84.49-47.982-101.18-47.982 0 2.086 3.13 12.517 3.13 16.69-13.56 0-27.12-4.173-32.336-16.69-3.13-8.345-6.259-18.776-12.517-29.207-6.259-25.034-2.087-25.034-27.12-43.81zM25.973 495.519c14.604 2.085 25.035 4.172 37.552 5.215v-3.13c-58.413-17.732-77.189-73.016-37.552-108.48 0 33.378 5.216 57.369 37.552 64.67 18.775 8.345 35.465 5.216 52.154-7.301-33.379 0-64.671 3.13-71.973-28.163-3.13-17.733 0-25.035 16.69-35.465 28.163 31.292 66.757 21.904 88.662-20.862 6.258-25.034 19.819-49.025 27.12-67.801 11.474-21.905 11.474-23.991 32.336-15.646 7.302 3.129 15.646 7.301 18.775 15.646-6.258 6.259-9.387 11.474-15.646 18.776-23.99 32.335-39.637 63.628-52.154 101.18-7.302 23.99-14.604 44.852-23.991 67.8-15.647 32.336-42.767 49.025-75.103 43.81-19.818-3.13-29.206-11.474-34.422-30.25zM71.87 368.26c6.259-6.258 10.431-9.387 16.69-12.517 10.43-7.301 15.646-6.258 23.99 2.086 11.475 10.431 13.56 22.948 5.216 28.164-17.732 7.301-52.154 4.172-45.896-17.733zm80.318-172.11c2.086-10.43 70.93 47.983 111.61 57.37 23.992 4.173 44.853-1.043 61.543 4.173 30.25 5.215 75.102 19.819 92.835 19.819-20.862-21.905-52.155-23.991-129.343-37.552-31.293-6.258-61.543-19.818-83.447-43.81-8.345-11.473-17.733-25.033-8.345-32.335 8.345 4.172 11.474 7.302 14.603 12.517 34.422 35.465 71.973 46.939 118.912 52.154 37.551 8.345 103.266 34.422 127.257 43.81 27.12 11.474 28.164 17.733 28.164 33.379v15.646c0 9.388 0 11.474 12.517 11.474 7.301 0 15.646 0 23.99 4.173 19.82 4.172 33.38 4.172 43.81-11.474 13.56-25.034 28.164-29.207 53.198-25.034 6.258 0 17.732 1.043 25.034 0 17.733 0 23.991-27.12 23.991-53.198 3.13 5.215 3.13 5.215 6.259 5.215v47.983c-12.517 45.895-103.266-10.431-65.715 49.025 9.388 12.517 21.905 21.905 30.25 33.379-3.13 6.258-25.035 0-19.82 21.904-7.3-4.172-15.645-7.301-15.645-7.301-16.69 3.13-29.207 12.517-44.853 12.517-11.474-5.216-20.862 8.345-28.164 12.517-4.172-4.172-4.172-8.345-8.344-12.517-8.345 14.603-8.345 32.336-3.13 49.025 7.302 15.646 17.733 36.508 22.948 52.154 22.948 60.5-1.043 119.956-47.982 92.835-25.034-17.732-39.637-41.723-47.982-70.93 0 0 0-2.086 4.172-2.086 0 0 29.207 37.551 35.466 43.81 12.517 8.345 25.034 11.474 36.508 5.215 8.344-9.387 12.517-21.905 8.344-32.335-4.172-14.604-8.344-21.905-11.474-33.38-13.56-28.163-25.034-52.154-33.378-79.274-3.13-12.517-11.474-12.517-20.862-12.517-10.431-4.172-22.948 0-31.293-21.905 0 0-4.172 0-7.302-3.13 0 7.302-5.215 12.518-5.215 16.69 8.345 14.603 25.034 20.862 43.81 14.603 9.388 17.733 17.732 37.552 13.56 57.37-9.388 11.474-20.862 14.604-36.508 11.474 4.172-7.301 4.172-11.474 8.344-19.818-8.344-7.302-20.861-6.259-23.99 0-5.216 4.172-12.518 12.517-19.82 17.732-13.56 5.216-29.206 1.043-41.723-13.56-7.301-7.302-25.034-15.646-15.646-35.465 3.13-8.345-2.086-12.517-12.517-11.474H322.21c8.344-10.43 11.474-16.69 14.603-30.25-6.259-4.172-17.733-11.474-28.164-15.646 21.905-27.12 28.164-27.12 81.361-20.862-12.517-18.775-35.465-15.646-56.326-22.948 6.258-19.818 31.292-8.344 43.81-23.99-8.345-3.13-12.518-8.345-19.82-12.518-23.99-8.344-49.025-14.603-74.059-18.775-43.81-12.517-83.447-29.207-111.61-66.758-7.302-6.259-12.517-14.603-19.819-27.12zm95.964-14.603c13.56-13.56 21.905-21.904 28.164-32.335-3.13-4.173-6.259-4.173-12.517-4.173 20.861-54.24 32.335 1.043 82.404-41.723-6.259 0-9.388-3.13-12.517-3.13 12.517-16.689 20.861-20.861 43.81-16.689 13.56 2.086 20.861 2.086 36.507 0-4.172-4.172-4.172-8.345-7.301-8.345 27.12-36.508 43.81 9.388 83.447 0-4.172-2.086-7.302-7.301-11.474-12.517 19.819-7.301 32.336-3.129 47.982 10.431 8.345 2.086 20.862 6.259 29.206 10.431 0-4.172 6.259-7.302-5.215-15.646 15.646-8.345 36.508 0 46.939 15.646 6.259 12.517 14.603 19.819 28.163 19.819-3.129-3.13-3.129-11.474-3.129-15.647 21.905-4.172 27.12 0 40.68 23.991 8.345 8.345 11.475 15.647 29.207 20.862-6.258-8.344-6.258-12.517-8.345-20.861 27.12 0 31.293 27.12 47.982 44.852v-20.861c19.82 0 49.026 49.025 44.853 81.36 0 0-23.99 104.31-25.034 104.31-3.13 16.689-41.723 94.92-59.456 113.696v-10.43c4.172-27.121 4.172-56.328-6.258-83.448-3.13-9.388 10.43-61.542 10.43-93.878 0-10.43-10.43-18.776-21.904-18.776s-25.035 5.216-27.12 15.647c-3.13 8.344-3.13 16.69-3.13 25.034-69.887-39.637-109.524-58.413-181.497-29.207-8.345 4.173-12.517 4.173-20.862 0-32.336-19.818-68.844-22.948-105.352-28.163-43.81-6.259-59.456-20.862-88.663-30.25zm173.153 167.938c8.345 15.646 21.905 19.818 34.422 9.388 5.215-6.259 2.086-9.388 2.086-13.56-3.13 0-7.302-4.173-11.474-4.173-8.345 4.172-16.69 8.345-25.034 8.345zm109.524 92.835c31.293 7.301 31.293 7.301 35.465-17.733 5.216 4.172 13.56 4.172 20.862 10.431 3.13-6.259 7.302-10.43 10.431-16.69 11.474 10.431 28.163 16.69 28.163 35.466 0 5.215-6.258 12.517-11.474 16.689-2.086 4.172-10.43 4.172-19.818 7.302 0 4.172-4.173 12.517-7.302 19.818-12.517-11.474-25.034-19.818-39.637-11.474-5.216-11.474-9.388-27.12-16.69-43.81zm19.819-77.189c15.646 3.13 23.991 17.733 39.637 3.13-8.344-9.388-18.775-10.432-39.637-3.13z" style="fill:#000;fill-opacity:1;fill-rule:nonzero;stroke:none;"/>
</svg>
