<svg xmlns="http://www.w3.org/2000/svg" width="1000" height="1000">
  <path d="M500.496 5C223.572 5 5 229.506 5 500.002c0 276.43 224.506 495.001 495.002 495.001 276.43 0 495.001-224.506 495.001-495.001C995.003 226.539 773.464 5 500.496 5zM87.088 493.573c0-231.43 192.858-422.31 425.276-419.342 232.419 0 417.364 194.836 417.364 426.265-2.967 233.408-192.857 418.353-425.276 418.353-230.44 0-417.364-191.869-417.364-425.276zm35.605 60.33c13.846 105.824 66.264 189.89 151.319 257.144 16.813 9.89 19.78 9.89 30.66-7.912-27.693-27.693-57.364-49.451-77.144-76.155C103.901 573.683 122.693 359.067 266.1 229.506c122.638-114.725 315.495-125.605 452.968-27.692 17.803 13.846 20.77 13.846 36.594-6.923-6.923-2.967-10.88-5.934-15.824-10.88-74.176-55.384-158.243-80.11-249.232-77.143-104.835 4.946-192.858 45.495-267.034 122.638-84.066 91.979-119.67 200.77-100.88 324.397zm124.615-24.725C326.43 603.354 403.573 680.497 476.76 757.64c21.758 17.802 38.571 17.802 60.33 0 71.209-70.22 140.44-144.396 214.616-214.616 13.846-13.846 20.77-32.638 10.879-52.418-6.923-21.758-25.714-24.725-46.484-24.725h-171.1c-15.823 0-22.747-2.967-18.79-19.78V416.43c-27.693 32.637-55.385 57.363-77.144 77.143l77.144 77.143v-20.77c-3.957-17.801 2.967-20.768 21.758-20.768h117.693c-5.935 7.912-5.935 13.846-9.89 16.813-44.506 43.516-90.99 88.022-133.518 134.506-9.89 9.89-17.802 6.923-26.703 0-57.363-56.374-114.726-112.748-169.121-170.11-11.869-9.89-11.869-16.814 0-27.693 54.395-55.385 111.758-107.803 169.121-164.176 8.901-13.847 16.813-13.847 26.703 0 31.649 30.659 67.253 67.252 99.89 97.912 5.935 2.967 16.814 5.934 19.781 2.967 13.846-9.89 23.737-19.78 39.56-33.627-6.922-6.923-11.867-10.879-15.823-18.79-40.55-41.54-84.067-84.067-125.605-125.606-24.726-25.714-41.539-25.714-63.297 0-27.693 23.737-52.418 51.43-76.154 77.144-53.407 51.428-102.858 100.879-153.297 150.33-19.78 21.758-19.78 38.571 0 60.33zm70.22 309.561c3.957 2.967 12.858 5.934 15.825 5.934 77.143 40.55 162.198 53.407 245.275 35.605 207.693-38.572 345.166-232.419 317.474-439.123-10.88-82.088-49.45-155.275-106.814-215.605-2.967-5.934-9.89-9.89-16.813-2.967-6.923 6.923-13.846 15.824-2.967 21.758 2.967 3.956 5.934 10.88 9.89 13.847 76.154 90.989 109.78 193.846 84.066 309.561C818.96 803.135 567.75 925.772 354.122 824.893c-20.77-7.912-23.736-7.912-36.593 13.846z" style="fill:#000;fill-opacity:1;fill-rule:nonzero;stroke:none;"/>
</svg>
