<?xml version="1.0" encoding="UTF-8"?><svg id="a" xmlns="http://www.w3.org/2000/svg" viewBox="0 0 1000 1000"><path d="M500,0C223.858,0,0,223.858,0,500s223.858,500,500,500,500-223.857,500-500S776.142,0,500,0Zm241.912,748.129c-45.116,24.607-102.533,8.203-127.142-32.81l-114.603-195.783-112.218,195.783c-24.607,45.113-82.026,61.52-127.14,32.81-45.113-24.609-61.52-82.026-32.81-127.142l188.154-328.265c1.069-2.203,2.406-4.24,3.645-6.358l.964-1.682c.433-.791,1.034-1.417,1.499-2.18,5.019-8.356,11.31-15.683,18.627-21.996,1.307-1.151,2.638-2.21,4-3.279,3.517-2.701,7.222-5.094,11.129-7.277,2.315-1.314,4.581-2.631,6.997-3.727,3.542-1.597,7.284-2.771,11.067-3.933,2.498-.753,4.896-1.712,7.457-2.243,6.846-1.502,13.925-2.458,21.32-2.458,2.966,0,5.675,.633,8.536,.906,.213,.023,.428,.003,.638,.028,.223,.033,.443,.073,.666,.11,24.341,2.673,44.593,14.709,58.688,32.217,.035,.04,.073,.073,.108,.113,3.347,3.702,6.311,7.61,8.969,11.758,.466,.698,1.044,1.249,1.497,1.963l2.741,4.781c.355,.678,.804,1.304,1.141,1.993l188.88,329.532c24.607,45.116,8.203,102.533-32.81,127.142Z"/></svg>