<svg xmlns="http://www.w3.org/2000/svg" viewBox="0 0 1000 1000"><path d="M500,995c273.4,0,495-221.6,495-495S773.4,5,500,5,5,226.6,5,500,226.6,995,500,995ZM201,285.7,346.7,140H416c-18.8,10.8-80.8,88-96.7,145.7ZM486.7,140V285.7h-140c9.9-30.1,45-101.3,106.8-145.7Zm28.1,145.7H656.2C623.3,207.2,569.9,155.8,547.3,140H514.8V285.7Zm283.6,0H683.6c-18-43.3-50.6-103-97.4-145.7h64.9ZM315.7,714.3H201L348.2,860h64.9C366.4,817.3,333.7,757.6,315.7,714.3Zm27.4,0H484.5V860H452C429.5,844.1,376,792.8,343.1,714.3Zm169.6,0V860h33.2c61.8-44.4,96.9-115.7,106.8-145.7ZM652.6,860,798.3,714.3H680C664.2,772,602.1,849.2,583.4,860ZM450.2,608.5q7.5-21.6,7.5-48.3c0-18.4-2.3-34.4-7-47.8-4.4-13.4-10.5-24.4-18.3-32.8a66.2,66.2,0,0,0-26.7-19.2,77.25,77.25,0,0,0-31.4-6.6,61.69,61.69,0,0,0-15.9,2.3,33.49,33.49,0,0,0-13.1,7l-.5-.5L412.3,336H350.9L285.2,464.5A287.28,287.28,0,0,0,266,510.9a174.83,174.83,0,0,0-7,50.6c0,17.5,2.3,33.3,7,47.4,5,14.1,11.9,25.9,20.6,35.6A90.55,90.55,0,0,0,318,667a110.95,110.95,0,0,0,80.2,0,89.63,89.63,0,0,0,31.4-22.5A109.13,109.13,0,0,0,450.2,608.5ZM393,511.9c7.5,12.5,11.3,28.4,11.3,47.8q0,30.45-12.2,49.7c-7.8,12.5-18.9,18.8-33.3,18.8s-25.6-6.1-33.8-18.3q-12.15-18.75-12.2-49.2a101.7,101.7,0,0,1,3.3-26.7,68,68,0,0,1,9.4-21.1A45.58,45.58,0,0,1,340,498.4a36.32,36.32,0,0,1,19.2-5.2C374.2,493.2,385.5,499.4,393,511.9ZM729.7,619.3c5.9-11.9,8.9-26.6,8.9-44.1,0-12.5-1.7-23.4-5.2-32.8A81.8,81.8,0,0,0,720.3,518a60.11,60.11,0,0,0-17.8-15.9,69,69,0,0,0-18.8-8v-.9c11.6-4.7,21.7-13,30.5-24.9s13.1-28.1,13.1-48.8c0-17.2-3-31.1-8.9-41.7-5.9-10.9-13.4-19.4-22.5-25.3a79.85,79.85,0,0,0-30-12.7A139.33,139.33,0,0,0,635,336H546.8V668h98.5a119.2,119.2,0,0,0,32.4-4.7,79.49,79.49,0,0,0,30-15.5A84.35,84.35,0,0,0,729.7,619.3ZM672.4,407.4c2.8,5.6,4.2,12.7,4.2,21.1s-1.4,15.6-4.2,21.6A40.66,40.66,0,0,1,647.6,473a56.52,56.52,0,0,1-16.4,2.3H599.3V383h31a68.14,68.14,0,0,1,17.4,2.3,38.88,38.88,0,0,1,24.7,22.1Zm7.5,138.8c3.1,6.6,4.7,14.7,4.7,24.4q0,13.2-4.2,22.5A42.38,42.38,0,0,1,669.6,609a45.08,45.08,0,0,1-15.5,9.4,62.32,62.32,0,0,1-19.2,2.8H599.3V517.6h34.2a58,58,0,0,1,17.8,2.8,46,46,0,0,1,16.4,9.4C672.8,533.8,676.8,539.3,679.9,546.2Z" fill-rule="evenodd"/></svg>