<svg xmlns="http://www.w3.org/2000/svg" viewBox="0 0 1000 1000"><path d="M500.3,5C226.9,5,5.3,226.6,5.3,500s221.6,495,495,495,495-221.6,495-495S773.7,5,500.3,5Zm61.462,187.646,75.987,34.016L555,207.753ZM218.211,657.438c-39.938-59.758,51.925-110.585,51.925-110.585L465.9,458.471l77.777-182.437,2.189.5-44.7,213.125L328.933,612.705l-.264.189-.249.21c-1.927,1.628-47.208,40.373-49.019,83.581-.079,1.884-.058,3.742.028,5.583C258.6,696,235.415,683.18,218.211,657.438ZM724.184,265.355l-2.918,12.77h0L714.69,306.9l-12.178-2.783L666.76,513.05s18.07,50.823,7.906,76.8-42.918,54.211-91.483,60.988c-39.529,32.753-159.246,114.07-159.246,114.07s-16.054,5.528-38.384,5.528c-23.923,0-55.047-6.347-81.334-32.634-10.638-10.638-15.521-22.018-16.616-33.363v0c-3.357-34.8,29.032-69.257,41.345-80.994l.078-.075.64-.606.028-.026q.925-.872,1.654-1.534l.131-.12.36-.327.195-.176.283-.254.173-.154c.148-.132.281-.249.4-.354l.146-.129.143-.124.131-.114.1-.088.078-.067.051-.044.043-.037L508.36,494.355l46.953-223.869-16.6-3.793,1.751-7.659-.2-.1,2.615-10.46,1.268-5.549,5.1-22.333h0l1.291-5.65,153.7,35.12,15.6,3.225-.046.33,6.72,1.535Z"/></svg>