<svg xmlns="http://www.w3.org/2000/svg" width="1000" height="1000">
  <path d="M5 500.496c0 271.98 220.55 494.507 495.496 494.507 271.98 0 494.507-220.55 494.507-495.496C995.003 227.528 773.464 5 500.496 5 226.54 5 5 225.55 5 500.496zm184.946 293.737V197.858c0-5.934 3.956-9.89 9.89-9.89h598.353c10.88 0 12.858 3.956 12.858 13.846v592.42c0 13.846 0 15.824-16.814 15.824H207.748c-15.824 0-17.802-1.978-17.802-15.825zM326.43 610.277h191.868v-37.583H385.771v-4.945c2.967-1.978 4.945-5.934 6.923-9.89 37.582-51.429 73.187-101.868 113.736-153.297 11.868-16.813 9.89-32.638 9.89-50.44H326.43v39.56h129.56c-1.978 3.957-3.956 5.935-5.934 7.913-37.582 52.417-76.154 106.813-113.736 156.264-13.846 18.791-9.89 34.615-9.89 52.418zm240.33 0h37.583V596.43c0-32.638 1.978-64.286 0-97.913 0-16.813 5.934-26.703 19.78-32.637 9.89-5.934 22.747-7.912 32.637-7.912h9.89v-37.583c-25.714 0-44.505 11.868-60.33 29.67-1.977-11.868-1.977-17.802-1.977-25.714H566.76z" style="fill:#000;fill-opacity:1;fill-rule:nonzero;stroke:none;"/>
</svg>
