<svg xmlns="http://www.w3.org/2000/svg" viewBox="0 0 1000 1000"><path d="M5 500.496c0 271.98 220.55 494.507 495.496 494.507 271.98 0 494.507-220.55 494.507-495.496C995.003 227.528 773.464 5 500.496 5 226.54 5 5 225.55 5 500.496zm140.44-126.594c9.89 2.967 19.78 4.945 28.681 7.912 52.418 13.847 105.825 27.693 159.232 41.539 11.868 2.967 23.736 5.934 36.593 8.901.99.99 2.967 1.978 3.956 3.956 34.616 66.264 70.22 134.506 104.836 201.76l2.967 2.966c-7.912-.989-16.813-3.956-23.736-5.934-34.616-8.901-70.22-18.791-105.825-27.692-31.648-7.912-64.286-16.814-95.934-25.715 0 0-2.967-.989-2.967-1.978-26.704-49.45-52.418-98.901-77.144-147.363-9.89-18.791-18.79-36.593-28.68-54.396 0-.989-.99-2.967-1.979-3.956zm1.978 365.936c1.978-1.978 4.945-4.945 7.912-6.923 45.495-33.627 90.99-65.275 136.484-98.902 2.967-2.967 3.956-2.967 5.934-1.978 34.616 7.912 67.253 13.846 101.869 19.78 23.736 5.934 47.472 9.89 71.209 14.836.989 0 1.978.989 2.967.989-5.934 3.956-9.89 7.912-15.824 11.868-42.528 30.66-83.078 61.319-125.605 92.967-3.956 2.967-6.923 3.956-11.868 2.967-56.374-11.868-112.748-22.747-168.133-34.615-1.978 0-2.967-.99-4.945-.99zM393.683 375.88c-2.967-2.967-2.967-5.934 0-9.89 35.604-83.077 72.198-166.154 109.78-250.22 0-.99 0-.99.99-2.967.988 1.978 2.966 4.945 3.955 7.912 35.605 82.088 73.187 164.176 109.78 246.264.99 2.967.99 5.934 0 6.923-31.648 70.22-62.307 140.44-93.955 210.66-5.935 13.847-11.869 26.704-17.803 41.539l-1.978 3.956c-.989-1.978-.989-2.967-.989-3.956-37.582-84.066-74.176-166.154-109.78-250.22zm136.484 265.056c.989-.989.989-1.978.989-3.956A19493.819 19493.819 0 0 0 636.98 437.2c.99-2.968 2.967-3.957 4.945-4.946 72.198-18.791 146.374-38.571 220.55-57.363 0 0 .99-.989 2.967-.989-4.945 8.901-8.9 18.792-13.846 26.704-24.725 47.472-49.45 93.956-74.176 141.429-5.934 11.868-12.857 24.725-18.791 37.582-.99.99-2.967 1.978-4.945 2.967-63.297 16.814-126.594 33.627-189.89 48.462-9.891 2.967-20.77 5.934-30.66 8.901 0 0-1.978 0-2.967.99zm4.945 26.704c5.934-.99 8.9-1.978 13.846-1.978 53.407-11.869 108.791-22.748 163.187-33.627 1.978-.989 4.945 0 7.912 1.978 46.484 34.616 92.968 69.231 140.44 103.847.99 0 1.978.989 2.967 1.978-1.978 0-2.967.989-3.956.989-58.351 11.868-115.714 23.736-173.077 35.604-.99 0-3.956-.989-4.945-1.978-46.484-34.615-91.979-67.253-138.462-101.868-1.978-1.978-3.956-2.967-7.912-4.945z"/></svg>