<svg xmlns="http://www.w3.org/2000/svg" viewBox="0 0 1000 1000"><path d="M340.912 903.654c-14.794-5.283-22.19-11.623-31.7-13.736-96.158-65.515-188.09-132.086-287.418-196.543-16.907-11.624-22.19-23.247-10.567-42.267C115.84 471.472 222.564 290.779 326.118 111.143l14.794-14.793zm13.737-13.736c63.4-59.175 128.915-118.349 193.373-177.523 22.19-22.19 42.267-42.267 65.514-61.287 13.737-10.567 16.907-22.19 5.283-39.098-22.19-42.267-42.267-82.42-67.627-128.915h438.523c3.17 2.114 3.17 5.284 5.283 5.284C782.605 625.747 570.212 761.002 359.932 898.37c-2.113-2.113-2.113-6.34-5.283-8.453z"/></svg>