<svg xmlns="http://www.w3.org/2000/svg" width="1000" height="1000">
  <path d="M522.447 970.07c243.647 0 437.84-159.214 466.788-407.685 51.866-325.666-254.502-594.642-587.405-519.86-74.782 18.093-133.884 49.454-192.987 89.257-22.917 21.711-20.505 21.711 18.093 60.309 14.474 14.474 14.474 14.474 27.742 0 44.628-27.742 72.37-43.422 120.617-60.309 72.37-32.566 156.802-32.566 236.41-13.268 82.019 13.268 172.481 73.577 212.285 129.06 91.669 106.143 121.823 225.554 91.669 355.82-30.154 106.144-91.669 177.308-178.513 237.616-68.752 38.598-159.215 55.484-231.585 55.484-88.05 0-161.627-32.566-237.615-73.576-24.124-13.268-39.804-25.33-59.103 0-16.886 25.33-10.855 41.01 18.093 56.69 86.844 61.514 174.894 90.463 295.511 90.463zM5 660.086c0 31.36 15.68 49.453 31.36 63.927 47.041 47.04 231.586 41.01 322.048 0 8.444-6.031 4.825-4.825 16.887-14.474h42.216c30.154 0 48.246 0 56.69-32.567-26.536 14.474-42.216 14.474-72.37 14.474-6.031-2.412 0-10.855 0-14.474 15.68-42.216 15.68-73.576 15.68-114.586 0-145.947-95.288-162.833-249.678-162.833-15.68 0-15.68-18.093-15.68-18.093 0-12.061 2.413-27.742 15.68-43.422h15.68c132.68 0 290.688-42.216 218.317-114.586-41.01 37.391-144.74 34.979-265.357 19.299-36.185 0-77.195 133.885-100.112 230.378-12.062 28.948 2.412 37.392 25.33 26.536 74.782-26.536 129.06-26.536 192.987-12.062 72.37 27.742 89.256 90.463 59.102 147.153-7.237 14.474-14.474 14.474-14.474 14.474-31.36-14.474-44.628-30.154-72.37-45.834C134.06 562.385 5 566.003 5 660.085zm56.69-10.856c15.68-21.71 49.453-26.536 121.824-14.474 32.566 9.65 61.514 20.505 84.432 42.216-38.598 32.567-78.402 41.01-173.689 21.711-31.36-10.855-43.422-28.948-32.567-49.453z" style="fill:#000;fill-opacity:1;fill-rule:nonzero;stroke:none;"/>
</svg>
