<svg xmlns="http://www.w3.org/2000/svg" width="1000" height="1000">
  <path d="M500.496 5c272.968 0 494.507 221.54 494.507 495.002 0 270.495-218.572 495.001-495.001 495.001C229.506 995.003 5 776.431 5 500.002 5 229.506 223.572 5 500.496 5zM233.462 371.924c8.901 40.55 21.759 80.11 43.517 117.693 45.495 79.121 97.912 152.308 147.363 229.451 6.923 10.88 17.802 20.77 23.736 31.649 1.978-1.978 3.956-1.978 4.945-2.967-.989-7.912-2.967-13.846-4.945-19.78 7.913 8.9 16.814 22.747 25.715 24.725 18.791 3.956 39.56 4.945 58.352 2.967 9.89 0 21.758-7.912 26.703-15.824 40.55-92.968 82.088-184.946 121.649-279.891 28.681-68.242 36.593-142.419 7.912-211.65-25.714-63.296-71.21-110.77-140.44-119.67-85.055-10.88-168.133 6.923-241.32 57.363-64.286 44.505-90 108.791-73.187 185.934zm82.088-11.868c3.957 60.33 25.715 118.682 50.44 173.078 25.715 56.373 55.385 112.747 76.154 169.121 2.967 7.912 2.967 16.813 5.934 25.714-43.516-90-90-179.011-127.582-270.99-29.67-72.198-37.583-147.363-4.946-221.539 17.803-40.55 50.44-69.23 95.935-90-2.967 6.923-6.923 6.923-6.923 8.901-72.198 49.45-94.946 120.66-89.012 205.715zm97.913-43.517c.989-39.56 10.88-79.12 20.77-118.681 7.911-20.77 21.758-36.594 34.615-56.374C413.463 251.264 425.33 365 442.144 478.738c8.901 61.319 20.77 121.649 31.649 181.978 1.978 5.935 1.978 10.88 1.978 17.803h-3.956c-2.967-15.825-6.923-29.67-8.901-44.506-22.748-104.835-52.418-208.682-49.451-317.474zM445.11 787.31c2.967 21.759 2.967 42.528 2.967 63.297 0 18.791 10.88 29.67 27.693 29.67 21.758 1.979 44.505 1.979 66.264 0 18.791 0 27.692-11.868 27.692-29.67 1.978-18.791 1.978-35.604 1.978-54.396-1.978-29.67-1.978-29.67-33.626-29.67h-69.231c-16.814-2.967-23.737 4.945-23.737 20.77zm111.76-173.077c22.747-151.32 60.33-299.672 5.934-450.99 4.945 5.933 8.901 11.867 12.857 21.758 20.77 46.483 25.715 95.934 27.693 144.396 0 97.912-23.737 191.868-46.484 284.836zm3.956 134.506c1.978 0 2.967 1.978 6.923 1.978 7.912-8.901 13.846-18.792 20.77-27.693 35.604-54.395 72.197-108.791 107.802-163.187 23.736-43.517 52.418-86.044 71.209-132.528 20.77-41.539 27.692-87.033 16.813-134.506C761.596 207.748 697.31 166.21 617.2 147.418c4.945 4.945 12.857 10.88 20.77 15.824 47.472 29.67 76.153 78.132 82.087 136.484 5.934 54.396 0 108.792-20.769 157.254-35.604 82.088-77.143 160.22-114.726 241.319-6.923 16.813-14.835 33.626-23.736 50.44z" style="fill:#000;fill-opacity:1;fill-rule:nonzero;stroke:none;"/>
</svg>
