<svg width="1000" height="1000" viewBox="0 0 1000 1000" fill="none" xmlns="http://www.w3.org/2000/svg">
<path d="M289 2L87 204H251C273 124 359 17 385 2H289Z" fill="black"/>
<path d="M483 204V2H437C351.4 63.6 302.667 162.333 289 204H483Z" fill="black"/>
<path d="M522 204H718C672.4 95.2 598.333 24 567 2H522V204Z" fill="black"/>
<path d="M756 204H915L711 2H621C685.8 61.2 731 144 756 204Z" fill="black"/>
<path d="M713 1000L915 798L751 798C729 878 643 985 617 1000L713 1000Z" fill="black"/>
<path d="M519 798L519 1000L565 1000C650.6 938.4 699.333 839.667 713 798L519 798Z" fill="black"/>
<path d="M480 798L284 798C329.6 906.8 403.667 978 435 1000L480 1000L480 798Z" fill="black"/>
<path d="M246 798L87 798L291 1000L381 1000C316.2 940.8 271 858 246 798Z" fill="black"/>
<path d="M347.548 709.998L348.698 397.198H346.973L265.323 709.998H211.273L131.348 397.198H129.623L130.773 709.998H68.0977V302.898H160.673L238.873 600.748H241.173L317.648 302.898H414.823V709.998H347.548Z" fill="black"/>
<path d="M732.277 596.148C732.277 617.615 728.635 635.632 721.352 650.198C714.452 664.382 705.443 676.073 694.327 685.273C683.593 694.09 671.327 700.415 657.527 704.248C644.11 708.082 630.885 709.998 617.852 709.998H497.102V302.898H605.202C617.085 302.898 629.735 304.432 643.152 307.498C656.568 310.182 668.835 315.357 679.952 323.023C691.068 330.307 700.268 340.657 707.552 354.073C714.835 367.107 718.477 384.165 718.477 405.248C718.477 430.548 713.11 450.482 702.377 465.048C691.643 479.615 679.185 489.773 665.002 495.523V496.673C672.668 498.59 680.335 501.848 688.002 506.448C696.052 511.048 703.335 517.565 709.852 525.998C716.368 534.048 721.735 544.015 725.952 555.898C730.168 567.398 732.277 580.815 732.277 596.148ZM656.377 416.173C656.377 405.823 654.652 397.198 651.202 390.298C648.135 383.015 643.918 377.265 638.552 373.048C633.568 368.448 627.627 365.19 620.727 363.273C613.827 361.357 606.735 360.398 599.452 360.398H561.502V473.673H600.602C607.502 473.673 614.21 472.715 620.727 470.798C627.627 468.498 633.568 465.048 638.552 460.448C643.918 455.848 648.135 449.907 651.202 442.623C654.652 435.34 656.377 426.523 656.377 416.173ZM666.152 590.398C666.152 578.515 664.235 568.548 660.402 560.498C656.568 552.065 651.585 545.357 645.452 540.373C639.318 535.007 632.61 531.173 625.327 528.873C618.043 526.573 610.76 525.423 603.477 525.423H561.502V652.498H605.202C613.635 652.498 621.493 651.348 628.777 649.048C636.06 646.365 642.385 642.532 647.752 637.548C653.502 632.182 657.91 625.665 660.977 617.998C664.427 610.332 666.152 601.132 666.152 590.398Z" fill="black"/>
<path d="M897.045 361.548V709.998H829.195V361.548H752.72V302.898H973.521V361.548H897.045Z" fill="black"/>
</svg>
