<svg xmlns="http://www.w3.org/2000/svg" width="1000" height="1000">
  <path d="M484.272 5c127.269 2.448 228.84 44.055 307.158 138.282 126.045 150.52 111.36 369.57-29.37 507.852-66.081 64.858-145.624 100.346-239.852 106.465-17.132 0-37.936 4.895-52.62 6.119-58.74 7.342-99.124 48.95-110.137 104.017-7.343 25.699-11.014 51.397-17.133 78.32-6.118 24.474-25.698 37.935-52.62 37.935-19.58 3.672-44.055-11.013-46.502-36.712-2.448-7.342-3.671-17.132-2.448-28.146 39.16-181.113 81.99-364.674 118.703-548.234 6.119-30.594 31.817-50.174 61.187-42.831 25.698 6.119 45.278 35.488 39.16 63.634-17.133 79.543-33.042 152.967-50.174 231.287-3.671 8.566-4.895 24.474-6.119 31.817 0 4.895 0 12.237 6.12 12.237 46.501-9.79 95.45-12.237 141.953-18.356C661.714 627.883 755.942 532.431 768.179 417.4c15.909-151.744-84.438-283.907-233.734-304.711-137.058-19.58-272.893 81.99-299.815 215.378-9.79 47.726-6.12 93.004 8.566 138.282 9.79 30.594-3.671 62.41-33.041 70.977-30.594 7.342-58.74-4.895-66.082-35.488C64.53 257.09 211.379 16.014 484.273 5zm-31.817 928.817c0-36.712 28.146-64.858 61.187-64.858 36.712 0 62.41 28.146 62.41 64.858 0 35.489-25.698 61.187-62.41 61.187-33.041 0-61.187-25.698-61.187-61.187z" style="fill:#000;fill-opacity:1;fill-rule:nonzero;stroke:none;"/>
</svg>
