<svg xmlns="http://www.w3.org/2000/svg" width="1000" height="1000">
  <path d="M500.002 995.004c273.259 0 495.002-221.743 495.002-495.002S773.26 5 500.002 5C226.742 5 5 226.743 5 500.002s221.743 495.002 495.002 495.002zM252.5 690.387c0-11.199 5.6-23.518 16.799-32.477l44.796-43.677 54.876-52.636c14.559 29.118 38.077 58.236 70.554 72.795l-55.995 52.635c85.113 52.636 195.985 35.838 266.54-31.357 16.798-21.278 49.275-26.878 72.794-8.96 11.199 8.96 16.798 23.519 16.798 38.078 0 14.559-5.6 29.117-16.798 38.077-123.19 125.43-327.015 125.43-450.206 2.24-3.36-2.24-8.959-8.96-11.199-14.56-.784-.671-1.568-1.455-2.352-2.24-4.927-5.487-6.607-12.99-6.607-17.918zm14.559-388.61c0-14.559 5.6-29.118 16.798-38.077 59.356-52.636 134.39-81.754 210.544-81.754 94.073 0 181.426 38.077 243.022 110.872 5.6 5.6 8.959 14.559 8.959 23.518 2.24 12.32 0 17.919-6.72 23.518l-107.51 101.912c-14.56-29.117-38.077-58.235-70.555-72.794l55.996-52.636c-81.754-54.876-190.386-49.276-263.18 14.559l-3.36 3.36s-2.24 0-2.24 2.24c-20.158 17.918-52.635 14.558-70.554-5.6-5.6-8.96-11.2-20.159-11.2-29.118zm128.79 201.585c0-55.996 43.676-105.272 104.152-105.272 59.355 0 105.272 49.276 105.272 105.272 0 55.995-49.276 105.272-105.272 105.272-54.876 0-104.152-49.277-104.152-105.272z" style="fill:#000;fill-opacity:1;fill-rule:nonzero;stroke:none;"/>
</svg>
