<svg xmlns="http://www.w3.org/2000/svg" width="1000" height="1000">
  <path d="M500.496 5C223.572 5 5 229.506 5 500.002c0 276.43 224.506 495.001 495.002 495.001 276.43 0 495.001-224.506 495.001-495.001C995.003 226.539 773.464 5 500.496 5zM74.231 408.518c37.583-171.1 172.088-303.628 341.21-337.254 135.495-26.703 259.122 6.923 362.968 93.956 75.165 63.297 124.616 140.44 147.363 238.353 3.956 15.824 2.967 16.813-12.857 16.813h-139.45c-19.781 0-19.781-26.703 0-26.703h122.637C859.508 243.353 714.123 89.066 499.507 90.055c-220.55.99-360.99 163.188-394.617 304.617h123.627c19.78 0 18.792 26.703.99 26.703H85.11c-10.879 0-12.857-2.967-10.879-12.857zm.989 185.935c-3.956-16.814-.989-16.814 14.835-16.814h138.462c19.78 0 16.813 25.715.99 25.715H103.9c34.616 146.374 193.847 308.572 385.716 308.572 110.77 0 233.407-51.429 309.561-132.528 42.528-45.494 93.957-138.462 97.913-174.066H773.464c-16.813 0-19.78-27.693 1.978-27.693h137.473c17.802 0 17.802-.989 12.857 16.814-16.813 74.176-49.45 137.472-95.934 189.89-83.077 93.957-218.572 151.32-338.243 151.32-107.803 0-199.78-39.561-274.946-106.814C145.44 765.552 96.98 688.409 75.22 594.452zm276.924 128.571h75.165c7.912 0 7.912-1.978 7.912-8.9V520.275c0-9.89 0-9.89 10.88-9.89h133.516c9.89 0 9.89 0 9.89-8.9v-79.122c0-2.967 25.715 27.692 45.495 47.473 2.967 2.967 3.956 6.923 3.956 9.89v75.165c0 5.934-.989 7.912-7.912 7.912H502.474c-9.89 0-9.89 0-9.89 8.901V767.53c0 8.901 0 8.901-8.901 8.901h-75.165c-3.956 0-7.912-1.978-10.88-4.945l-39.56-40.55c-.989-1.978-2.967-2.967-5.934-7.912zm83.077-307.583V302.693c0-5.934 2.967-5.934 8.901-5.934h140.44c10.88 0 10.88 0 10.88-10.879v-70.22c6.923 7.912 32.637 29.67 42.527 42.528 3.956 3.956 3.956 7.912 3.956 10.879.99 24.725 0 47.472 0 72.198 0 6.923-.989 7.912-8.9 7.912h-130.55c-9.891 0-9.891 0-9.891 9.89v55.385c0 6.923-.989 7.912-7.912 7.912h-41.539c-4.945 0-7.912-.989-7.912-6.923z" style="fill:#000;fill-opacity:1;fill-rule:nonzero;stroke:none;"/>
</svg>
