<svg xmlns="http://www.w3.org/2000/svg" viewBox="0 0 1000 1000"><path d="M505.237 995.004c268.732 0 489.767-223.362 489.767-495.584C995.004 224.872 772.806 5 495.93 5 224.872 5 5 228.362 5 502.91c0 273.386 222.198 492.094 500.237 492.094zM262.099 639.02a5669.99 5669.99 0 0 1 0-198.931c0-17.45-1.164-36.064 0-54.677 4.653-47.697 29.083-82.598 73.29-102.374 44.207-19.777 88.414-15.124 125.641 17.45 53.514 46.533 104.7 95.394 154.724 145.418 32.574 31.41 30.247 100.047 0 141.927-38.39 54.677-102.374 70.964-160.54 41.88-53.514-26.756-82.598-95.394-65.148-153.56 6.98-22.104 22.104-40.718 52.35-62.821 16.287 16.287 33.737 31.41 55.84 51.187-9.306 6.98-16.286 11.633-22.103 17.45-22.103 19.777-20.94 48.86 0 70.964 20.94 19.777 53.514 19.777 74.454-1.163 19.777-20.94 19.777-50.024-1.163-69.8L420.313 363.308c-16.287-15.123-33.737-20.94-53.514-12.796-22.103 9.306-32.573 26.756-32.573 51.187 1.163 95.394 1.163 191.95 1.163 287.345v20.94c-44.207 2.327-73.29-25.593-73.29-70.964zm260.588-303.63c33.737-51.187 90.74-72.127 146.581-55.84 53.514 16.286 87.25 61.657 87.25 120.987 0 80.27 0 161.705-1.163 241.975 0 31.41-22.103 57.004-51.187 65.147-15.123 3.49-22.103 1.164-20.94-17.45 1.164-95.394 1.164-190.788 1.164-286.182 1.163-34.9-20.94-59.33-52.35-58.167-11.634 1.163-24.431 6.98-34.901 12.797-8.143 4.653-15.123 13.96-23.267 20.94-17.45-15.123-34.9-30.247-51.187-44.207z"/></svg>