<svg xmlns="http://www.w3.org/2000/svg" viewBox="0 0 1000 1000"><path d="M5 500.496c0 271.98 220.55 494.507 495.496 494.507 271.98 0 494.507-220.55 494.507-495.496C995.003 227.528 773.464 5 500.496 5 226.54 5 5 225.55 5 500.496zm211.65-78.132h118.68c0 6.923-1.977 13.846-2.966 24.725-1.978 7.912-6.923 9.89-14.835 9.89h-51.43c-20.769-2.967-36.593-23.736-49.45-34.615zm13.845-34.615c11.868-40.55 18.792-79.122 27.693-118.682H406.54c4.945-41.539 16.813-77.143 23.736-115.715 3.956-22.747 1.978-22.747 29.67-22.747h115.715c-8.9 44.505-19.78 90-30.66 138.462h167.144c-2.967 18.791-7.912 31.648-10.879 44.505-6.923 24.726-9.89 39.561-13.846 56.374-3.956 14.835-6.923 17.803-24.725 17.803H516.32c-2.967 20.769-8.9 41.538-13.846 63.296-9.89 47.473-20.77 97.913-31.648 145.386-1.978 13.846-1.978 27.692-1.978 42.527 0 16.813 9.89 23.736 27.692 27.693 10.88 2.967 19.78 2.967 33.627 2.967H645.88c0 13.846-.989 21.758-3.956 35.604-5.934 26.703-9.89 51.429-16.813 76.154-4.945 11.868-7.912 13.846-16.813 13.846-60.33 0-124.616 2.967-181.979-1.978-38.571-5.934-76.154-21.758-97.912-60.33-13.847-24.725-13.847-52.417-5.934-80.11 1.978-9.89 53.406-256.154 55.384-265.055zm101.869 410.44c-6.923-5.934-6.923-10.879 0-10.879 40.55 28.682 86.044 38.572 136.484 38.572h159.231c13.846 0 17.802-2.967 20.77-12.857 10.878-46.484 23.736-98.902 33.626-147.363l.989 3.956c10.879 16.813 25.714 30.659 20.77 52.417-5.935 44.506-16.814 87.034-27.693 130.55 0 8.901-5.934 11.868-13.846 11.868-68.242-2.967-134.506 0-204.726-2.967-48.462-3.956-93.957-20.769-125.605-63.297zm166.154-162.198c-3.956-2.967-1.978-11.868 0-21.758 14.835-62.308 29.67-124.616 42.528-191.869h153.297c9.89 0 14.835-2.967 17.802-16.813 9.89-41.539 19.78-85.055 27.693-125.605 3.956-18.791 4.945-21.758 10.879-13.846 6.923 9.89 12.857 23.736 17.802 38.571 2.967 6.923 1.978 5.934 0 15.825-7.912 39.56-17.802 81.099-28.681 122.637-3.956 10.88-7.912 13.847-17.803 13.847H589.507c-13.846 0-20.769 3.956-22.747 17.802-8.901 48.461-18.791 94.945-28.681 139.45-7.912 26.704-9.89 26.704-39.56 21.76zm90.99-418.353c1.977-10.88 21.758-94.945 21.758-91.978 34.615 32.637 23.736 66.264 13.846 101.868-.989 6.923-24.725 9.89-30.66 6.923-4.945-2.967-6.923-8.9-4.945-16.813z"/></svg>