<svg xmlns="http://www.w3.org/2000/svg" width="1000" height="1000">
  <path d="M5 500.496c0 271.98 220.55 494.507 495.496 494.507 271.98 0 494.507-220.55 494.507-495.496C995.003 227.528 773.464 5 500.496 5 226.54 5 5 225.55 5 500.496zm53.407 110.77v-36.594c4.945-10.879 15.824-14.835 27.692-14.835 13.846.989 28.682 0 39.56 0h9.89V447.089H86.1c-11.868 0-22.747-3.956-27.692-15.824V396.65c4.945-12.858 12.857-16.814 27.692-16.814h49.45c17.803 0 13.847 0 20.77-11.868 51.429-131.539 146.374-214.616 286.814-243.297 16.814-2.967 35.605-5.934 55.385-6.923h25.715c2.967 0 7.912 0 7.912.989 62.308 2.967 120.66 20.769 173.077 52.417 35.605 20.77 67.253 48.462 92.967 80.11 7.913 8.902 7.913 15.825.99 24.726-18.792 22.747-39.561 44.506-61.32 66.264-7.912 7.912-22.747 7.912-29.67 0-3.956-3.956-6.923-7.912-10.879-10.88-109.78-128.571-315.496-109.78-401.54 36.594-2.967 4.945-3.956 6.923-5.934 11.868h45.495c27.692-.989 38.571 8.902 35.604 37.583 0 19.78-7.912 29.67-26.703 29.67H276.98c-9.89 0-10.88 1.978-13.846 9.89-3.956 31.649-.99 61.32 3.956 94.946 0 4.945 3.956 8.901 10.879 8.901 22.747-.989 47.473-.989 69.231 0 15.824 0 23.736 9.89 23.736 31.648 0 22.748-7.912 33.627-23.736 33.627h-40.55c-.989 0-3.956 2.967-5.934 2.967 32.638 74.176 149.341 128.572 248.243 114.726 77.143-13.847 166.154-85.056 175.055-143.407H588.518c-15.824 0-26.703-7.913-26.703-22.748-.989-25.714-.989-51.428 0-79.12 0-12.858 9.89-20.77 20.77-22.748h247.253c14.835 0 24.725 1.978 32.637 12.857V597.42c-.989 2.967-.989 8.9-3.956 12.857C827.86 744.783 714.123 849.618 576.65 867.42c-18.791 1.978-38.571 3.956-56.374 4.946h-20.769c-1.978 0-4.945-.99-8.901-.99-21.758-1.978-47.473-3.956-69.231-9.89-121.649-29.67-210.66-106.813-262.089-223.517-.989-8.901-6.923-11.868-14.835-11.868H89.066c-14.835 2.967-25.714-.99-30.66-14.835z" style="fill:#000;fill-opacity:1;fill-rule:nonzero;stroke:none;"/>
</svg>
