<?xml version="1.0" encoding="UTF-8"?><svg id="a" xmlns="http://www.w3.org/2000/svg" viewBox="0 0 1000 1000"><path id="b" d="M372.275,.046C388.738-.007,405.201,.046,421.664,.006c.066,38.71,0,77.42,.027,116.13,.172,32.316-.743,64.618-2.083,96.894-2.202,46.603-5.121,93.313-12.841,139.385-5.306,31.772-16.291,62.403-29.928,91.495-22.234,46.869-57.176,86.534-96.457,119.897-35.141,30.923-77.088,53.435-121.198,68.678-24.953,8.596-50.636,15.216-76.783,18.904,.027-32.462,.027-64.937,0-97.398,31.48-4.736,61.74-15.906,89.85-30.671,33.351-17.63,63.371-41.35,88.643-69.314,26.094-28.867,46.895-62.284,62.682-97.783,18.586-40.806,28.535-84.875,35.301-129.011,8.477-56.102,12.006-112.84,13.319-169.539,.186-19.209,.027-38.418,.08-57.627Zm69.261,.053c30.299-.199,60.612-.027,90.925-.08,.013,217.123,.013,434.247,0,651.357-30.233,.066-60.479-.146-90.712,.119-.385-69.235-.053-138.483-.159-207.718-.04-147.889,.053-295.777-.053-443.679Zm111.155-.066c16.37-.013,32.74-.04,49.097,.013-.531,66.197,1.725,132.513,9.618,198.286,6.461,51.087,15.561,102.546,35.911,150.144,19.289,46.046,47.094,88.842,83.323,123.347,34.597,32.992,76.531,58.357,122.086,72.949,12.709,4.059,25.709,7.256,38.922,9.18-.013,32.448-.027,64.897,0,97.345-25.961-3.529-51.419-10.215-76.199-18.639-29.503-10.268-58.038-23.56-84.252-40.607-19.129-12.298-36.534-27.023-53.249-42.398-27.553-25.404-52.215-54.284-70.734-86.985-14.486-25.457-25.059-52.971-33.337-81.028-7.588-28.203-10.825-57.349-13.77-86.348-5.691-62.655-7.827-125.615-7.416-188.509,0-35.579-.013-71.172,0-106.751ZM139.286,714.429c11.581-14.818,35.553-17.352,49.761-4.922,5.81,4.895,9.883,11.647,11.966,18.917,26.306,90.513,52.732,180.987,78.999,271.514-15.521,.013-31.056-.027-46.577,.013-7.323-24.953-14.473-49.96-21.703-74.939-30.021-.066-60.028-.013-90.049-.027-7.349,24.966-14.606,49.959-21.822,74.979-15.442-.053-30.883-.013-46.325-.027,24.993-86.348,50.013-172.696,75.125-259.017,2.985-9.021,4.112-19.116,10.626-26.492m27.407,55.465c-11.011,37.503-21.796,75.072-32.74,112.588,21.822,.106,43.632,.04,65.441,.04-10.918-37.543-21.783-75.085-32.701-112.628Zm299.638-53.515c8.092-11.74,23.733-17.431,37.503-13.81,12.603,2.905,22.247,13.77,25.577,26.001,26.28,90.447,52.652,180.868,78.932,271.315-15.548,.119-31.082,0-46.63,.066-7.23-24.98-14.38-49.986-21.663-74.966-29.968,.013-59.935-.053-89.903,.027-7.164,24.993-14.553,49.933-21.716,74.926-15.428,.013-30.843-.013-46.272,.013,24.98-86.826,50.251-173.571,75.43-260.331,2.64-7.84,3.661-16.476,8.742-23.242m-3.781,166.142c21.73,.027,43.446,.013,65.176,.013-10.812-37.622-21.796-75.191-32.568-112.813-10.852,37.609-21.809,75.178-32.608,112.8Zm-217.296-180.403h168.477v45.436c-20.682,.013-41.35-.027-62.018,.013,0,84.119,.013,168.252-.013,252.371h-44.428c0-84.119-.013-168.252,.013-252.371-20.682-.04-41.35,0-62.031-.013,0-15.15-.013-30.286,0-45.436Zm412.464,1.844c4.272-1.472,8.822-1.977,13.332-1.871,17.71,.066,35.42,.013,53.13,.027,29.822,.544,58.29,19.05,71.198,45.887,8.941,17.431,9.857,37.702,7.601,56.818-1.552,20.018-9.949,40.037-25.338,53.302-8.132,7.243-18.254,11.634-26.956,18.081-4.776,3.635-5.015,10.706-2.547,15.76,23.507,36.282,47.943,71.994,71.941,107.971-17.551,.027-35.102-.04-52.652,.027-22.977-34.505-45.714-69.182-68.598-103.74-6.726-9.83-8.556-22.857-4.524-34.08,3.144-8.61,10.666-14.911,19.05-18.161,15.999-6.102,31.772-15.694,40.634-30.79,6.739-11.342,6.394-25.338,3.356-37.755-3.555-16.118-19.262-28.8-35.858-28.243-11.475,.08-22.95-.053-34.412,.053-5.187-.119-10.069,4.391-10.002,9.644-.053,81.015,.027,162.043-.027,243.058-14.924-.027-29.835,0-44.759-.013-.027-87.223,.027-174.447-.027-261.67,.093-15.282,10.958-29.663,25.457-34.306Zm185.829-1.844h47.094c-.013,99.282,.027,198.551-.027,297.833-15.68-.04-31.374,0-47.067-.013v-297.82Zm81.506,263.833c10.268-2.998,21.756,5.558,21.371,16.37,.756,10.241-9.233,19.063-19.275,17.498-8.543-.836-15.641-8.822-15.017-17.458-.252-7.641,5.505-14.778,12.921-16.41m-.225,3.423c-3.728,1.26-6.965,3.993-8.371,7.734-4.245,8.331,2.6,19.382,11.899,19.527,9.286,1.048,17.458-9.034,14.34-17.856-1.857-7.522-10.652-11.953-17.869-9.405Zm-3.343,4.391c4.325,.332,9.22-1.154,13.107,1.287,3.117,3.025,1.075,7.907-2.706,9.167,2.255,2.467,4.086,5.28,5.718,8.225-5.107,1.459-5.757-4.059-8.358-6.872-1.26-.982-2.892-1.088-4.338-1.552-.093,2.759-.119,5.505-.133,8.291-.822,0-2.467,0-3.29,.013,0-6.195-.013-12.377,0-18.559m3.33,2.534v5.479c2.693-.292,7.774,.783,7.92-3.25-1.327-3.025-5.373-1.857-7.92-2.229Z"/></svg>