<svg xmlns="http://www.w3.org/2000/svg" width="1000" height="1000">
  <path d="M889.97 253.09c28.862 61.486 43.92 122.973 51.449 181.95 5.02 107.916-7.53 209.557-51.448 316.218-77.8 151.835-198.264 237.163-375.195 243.438-148.07 5.019-262.26-52.703-353.863-171.913-16.313-21.332-31.371-45.174-8.784-63.996l488.13-486.875c3.764-10.039 15.058-12.549 20.077-23.842-28.86-36.39-72.78-48.939-112.935-57.722-106.66-18.823-193.244 15.058-250.966 109.17-20.078 40.155-31.371 87.838-36.39 124.229-5.02 71.525 11.293 163.128-12.549 186.97-40.154 40.154-79.054 76.544-114.19 111.68-5.019 3.764-11.293 10.038-25.096 18.822C44.213 585.62 25.39 387.356 144.6 201.641 214.87 84.941 316.512 23.455 453.289 8.397 587.556-6.661 705.51 27.219 804.642 132.625c17.568 16.313 33.88 38.9 56.468 66.506 8.783 12.549 8.783 23.842-10.04 38.9L547.402 542.956c-61.486 61.486-124.228 125.483-189.48 183.205-25.096 25.097-18.822 28.861 6.275 48.939 112.935 74.035 296.14 47.683 357.627-106.661 28.861-82.819 33.88-164.383 26.352-250.967 0-5.019 0-17.567 2.51-26.351 41.409-47.684 87.838-86.584 139.286-138.032z" style="fill:#000;fill-opacity:1;fill-rule:nonzero;stroke:none;"/>
</svg>
