<svg xmlns="http://www.w3.org/2000/svg" viewBox="0 0 1000 1000"><path d="M597.7,562.81c-32-.59-64.08-.16-96.13-.16v.05c-32,0-64.09-.13-96.13.08-9.35.06-18.73.34-21.52,12.74-8.27,36.9,16.26,80,52.55,90.36s72.9,11.69,110.18,5.1c50.76-9,71.94-32.32,73.77-83.78C621.13,567.21,618.06,563.19,597.7,562.81Z"/><path d="M572.58,376.19c-46.3-14-93.11-13.47-139.56.12-17.92,5.25-31.21,16.73-38.52,34.17-8.34,19.88-10.59,40.56-6.12,66.58H420q79.65,0,159.3,0c9.26,0,18.85,1,27.67-1.14,5.18-1.23,12-6.93,13.2-11.84C629.08,428.72,606.53,386.44,572.58,376.19Z"/><path d="M927.61,250.77Q861.16,138.82,749.23,72.39,634.33,5,500.49,5,365.67,5,250.77,72.39,138.82,138.82,72.39,250.76,5,365.68,5,500T72.39,749.23q66.43,111.93,178.38,178.38Q365.67,994.95,500,995t249.23-67.39q111.93-66.45,178.38-178.38Q994.95,634.33,995,500T927.61,250.77ZM731.07,675.31c23.66.32,47.35-.18,71,.36,21.94.51,32.37,8.4,35.52,25.29a38.62,38.62,0,0,1-21.83,42A88.91,88.91,0,0,1,789,750.25c-21.83,2.34-43.79,4.73-65.7,4.8q-206.68.62-413.37,0c-27.86-.09-55.75-2-83.55-4.07a117.42,117.42,0,0,1-32.07-6.8c-19.51-7.3-28.64-25-24.86-44.79,3.27-17.11,12.37-23.54,36-24.08,21.12-.48,42.27,0,63.4-.31,9.09-.13,18.17-1.09,29.41-1.81-.91-8.67-1.36-15.09-2.29-21.45-3.06-21-7.07-41.85-9.26-62.91-2.69-25.76-2.26-26.13-28.93-26.51-17.75-.25-35.52.26-53.26-.25-30.24-.87-38.36-9.71-38.47-40.74-.11-33.3,7.75-42.73,38.3-44,19.41-.78,38.89.05,58.32-.49,20.91-.58,21.35-1.7,23.74-21.14,3.49-28.47,7.59-56.85,12.25-91.37-20.75,0-39.09,0-57.44,0-12.68,0-25.37.22-38-.22-22.69-.79-32.54-7.64-36.19-24.43s5.9-36.66,24.09-42.89a172.43,172.43,0,0,1,47-8.76c46.42-2.26,92.92-4.25,139.38-4,126.78.57,253.55,2.11,380.32,3.88,15.88.23,31.9,3.27,47.49,6.67,13.88,3,24.06,11.9,29.16,25.84,8.14,22.29-3.31,42-27.09,43.51-24.43,1.53-49,.55-73.51,1-8.88.17-17.73,1.35-26.75,2.08,4.92,34,9.57,64.84,13.79,95.74,1.7,12.38,10.12,14.37,20.07,14.49,18.6.21,37.21-.14,55.79.46,37.7,1.21,57.46,36.78,37.39,69.82-4.63,7.62-17.61,13.14-27.27,14.06-22.64,2.17-45.59,1-68.41,1.1-10.23,0-18.59,2.44-19.88,14.64-.18,1.69-.34,3.38-.54,5.07-3.56,29.32-7.13,58.63-11,90.86C715,674,723,675.2,731.07,675.31Z"/></svg>