<svg xmlns="http://www.w3.org/2000/svg" viewBox="0 0 1000 1000"><path d="M306.894 757.673c25.607-2.696 51.214-5.391 74.126-8.087 105.123-14.825 194.074-66.04 262.809-148.251 51.214-56.605 84.907-125.34 97.037-202.161 13.478-83.56-37.737-129.383-111.862-140.165-17.52-2.696-33.694 0-53.91 0H5c8.087-20.216 18.868-37.737 28.303-51.214 13.477-25.607 28.302-51.214 41.78-80.865 12.13-16.173 26.954-28.302 52.561-28.302 99.733 2.695 199.466 2.695 299.199 2.695 13.477 0 22.911-5.39 28.302-21.564 5.391-17.52 12.13-35.04 20.216-55.257 2.696-2.695 8.087-8.086 13.478-10.782h103.776c-12.13 30.998-20.216 53.91-29.65 82.212 17.52 9.434 32.345 5.391 45.823 2.696 6.738-2.696 9.434-10.782 12.13-16.173 8.086-14.825 10.781-29.65 17.52-45.823 5.39-17.52 13.477-25.607 33.693-22.912 68.735 0 24.26-1.348 88.951 2.696-12.13 28.302-20.216 53.91-32.346 82.212 55.258 6.738 136.122 28.302 183.293 63.344 64.692 45.823 87.603 105.123 82.212 181.944-10.782 83.56-45.823 154.99-84.907 226.42-45.824 76.822-106.472 138.818-180.598 190.032-59.3 43.128-125.34 78.169-194.074 101.08-30.998 8.087-61.996 16.173-90.299 25.608-14.825 2.695-20.216 8.086-25.607 18.868-9.434 22.912-17.52 45.823-29.65 66.04-2.695 5.39-10.782 12.129-16.173 12.129-35.041 2.695-66.04 2.695-97.037 2.695 5.39-25.607 13.477-48.518 22.911-74.125-20.216 2.695-41.78 0-52.561 2.695-16.173 6.739-20.217 30.998-24.26 51.214-6.738 10.782-9.434 20.216-22.911 20.216h-94.342c8.086-22.911 13.477-40.432 18.868-60.648-25.607-4.043-79.516-9.434-115.905-10.782 8.086-22.911 16.172-43.128 25.607-66.04 45.823-110.514 94.341-225.072 138.817-336.934 17.52-45.823 37.737-94.342 55.257-138.817 10.782-25.607 10.782-25.607 39.085-25.607 51.214 0 99.732-4.044 152.294-4.044 28.303 0 36.39 12.13 28.303 37.737-9.434 28.303-20.216 53.91-28.303 82.212-37.736 91.647-71.43 183.293-109.167 277.635 0 2.695 0 8.086-2.695 16.173z"/></svg>