<svg xmlns="http://www.w3.org/2000/svg" viewBox="0 0 1000 1000"><path d="M500.496 5C223.572 5 5 229.506 5 500.002c0 276.43 224.506 495.001 495.002 495.001 276.43 0 495.001-224.506 495.001-495.001C995.003 226.539 773.464 5 500.496 5zM142.473 363.023c-8.901-18.791 0-30.66 11.868-37.582 16.813-13.847 32.638-25.715 49.45-37.583 28.682-16.813 63.298-33.626 91.98-54.396 32.637-21.758 66.263-37.582 107.802-46.483 26.703-5.934 50.44-12.858 76.154-21.759 20.77-6.923 40.55 0 53.407 21.759 21.758 20.769 40.55 41.538 59.34 62.308 23.737 38.571 49.451 71.209 73.188 108.791 41.538 65.275 95.934 229.451 108.791 325.386v75.165c0 15.824-28.681 40.55-54.396 32.637-37.582-11.868-78.132-12.857-120.66-32.637-152.308-80.11-179.011-38.572-303.627-163.187-8.9-8.902-16.813-15.825-20.77-24.726-24.724-54.396-61.318-97.912-96.922-141.429-16.814-20.77-23.737-47.473-35.605-66.264zm18.791-12.857c181.979-4.945 268.023-27.692 292.748-60.33l66.264-89.011c10.88-14.835-82.088 68.242-135.495 87.033z"/></svg>