<svg xmlns="http://www.w3.org/2000/svg" viewBox="0 0 1000 1000"><path d="M5 500.496c0 89.011 22.747 172.089 67.253 249.232 44.506 74.176 103.846 133.517 178.023 178.022 77.143 44.506 160.22 67.253 250.22 67.253 89.011 0 172.089-22.747 249.232-67.253 74.176-44.505 133.517-103.846 178.022-178.022 44.506-77.143 67.253-160.22 67.253-250.22 0-89.012-22.747-172.09-67.253-249.232-44.505-74.177-103.846-133.517-178.022-178.023C672.585 27.747 589.508 5 500.496 5c-90 0-173.077 22.747-250.22 67.253-74.177 44.506-133.517 103.846-178.023 178.023C27.747 327.419 5 410.496 5 500.496zm247.254 158.242c0-77.143 48.461-188.901 98.901-285.825l30.66-56.374c1.977-2.967 2.966-5.934 5.934-8.9l116.703 116.703c0 1.978 1.978 1.978 1.978 1.978 1.978 2.967 1.978 2.967 3.956 0 39.56-38.571 120.66-118.682 120.66-119.67 60.33 108.79 133.517 274.945 135.495 334.286 2.967 115.715-118.682 214.616-248.243 222.528-127.582 0-257.143-88.022-266.044-204.726zm155.275-381.76c-1.978-1.977-1.978-1.977 0-3.955 15.824-23.736 96.923-134.506 100.88-140.44l9.89 11.868c18.79 20.77 82.088 108.792 92.967 128.572.989 1.978.989 1.978 0 3.956-37.583 39.56-68.242 66.264-100.88 98.901-1.978 1.978-.989 1.978-2.967 0z"/></svg>