<svg xmlns="http://www.w3.org/2000/svg" width="1000" height="1000">
  <path d="M749.265 968.648c72.776-28.86 129.24-79.05 165.627-150.57 17.567-33.879 27.605-72.776 30.114-110.418 2.51-38.898 0-79.05-13.802-120.456-8.783-27.605-21.33-56.464-37.643-84.068 13.803-26.35 25.095-52.7 33.879-81.56 11.292-37.642 17.566-72.775 17.566-107.908 0-31.368-8.783-63.992-23.84-100.38-15.057-35.133-33.878-66.501-57.719-96.615-28.859-37.643-66.501-63.993-104.144-82.814C721.661 15.038 680.254 5 637.593 5H252.384v196.996H54.134v793.001h544.561c55.21 0 105.4-8.783 150.57-26.35zm-592.242-75.285V303.63h463.003c3.764 0 8.783 1.255 13.802 6.274 3.765 3.764 6.274 6.274 10.038 12.548 1.255 7.528 1.255 13.802-2.51 20.076-1.254 3.764-2.509 6.273-5.018 7.528-13.802 7.529-53.954 45.171-126.73 110.418l-42.661 38.897 41.406 37.643c76.54 69.011 120.456 112.927 136.768 127.984 1.255 6.274 1.255 11.293 0 16.312-6.274 6.274-10.038 8.783-13.802 11.293-6.274 3.764-15.057 3.764-27.605 3.764H349V351.311H246.11v447.945h357.604c32.624 0 60.228-7.528 81.559-18.82 15.057-11.294 30.114-23.841 42.661-40.153 7.529-12.547 13.803-26.35 16.312-43.916 2.51-17.567 3.764-35.133 0-51.445-5.019-20.076-12.547-36.387-25.095-48.935-11.293-11.293-42.661-41.407-99.125-94.106 50.19-43.916 79.05-70.266 89.087-77.795 16.312-17.566 28.86-38.897 33.878-61.482 5.02-23.84 3.765-47.68-2.509-71.521-7.529-26.35-23.84-47.68-46.426-65.247-21.33-16.312-46.425-23.84-74.03-23.84H352.764v-94.107h284.829c31.368 0 61.482 8.784 91.596 25.095 21.331 11.293 37.643 30.114 55.21 51.445 16.31 20.076 33.877 43.916 42.66 69.011 8.784 23.84 13.803 42.662 13.803 60.228 0 22.586-3.764 46.426-10.038 71.521-5.02 20.076-12.548 40.152-21.33 58.973-6.275 13.803-12.548 23.84-16.313 28.86l-23.84 31.368 23.84 31.369c7.529 8.783 13.803 20.076 22.586 36.388 15.057 27.604 22.585 58.973 25.095 87.832 3.764 40.152 0 76.54-17.567 109.163-45.17 82.814-116.691 124.22-224.6 124.22z" style="fill:#000;fill-opacity:1;fill-rule:nonzero;stroke:none;"/>
</svg>
