<svg xmlns="http://www.w3.org/2000/svg" viewBox="0 0 1000 1000"><path d="M227.538 500.137c0-82.067 0-168.51-2.189-251.672 0-15.319 2.189-24.073 14.225-36.11 83.161-65.653 165.228-132.4 247.295-199.148 12.037-10.943 16.414-10.943 28.45 0 82.067 66.747 164.134 133.495 242.918 203.526 7.66 7.66 16.414 19.696 16.414 31.732v506.626c0 6.566-8.754 22.98-12.037 27.356-83.161 70.03-165.228 136.778-247.295 203.526-12.036 12.036-20.79 12.036-32.827 0-77.69-66.748-159.757-137.872-242.918-203.526-7.66-8.754-12.036-20.79-12.036-31.732-2.189-82.067 0-168.511 0-250.578zm157.568 0c0 53.617 0 109.422 4.377 160.851 0 12.037 4.377 22.979 10.942 26.261 28.45 28.45 59.089 47.052 86.444 74.408 7.66 4.377 16.414 8.754 24.073 0 31.733-22.979 62.371-45.958 90.82-70.03 6.566-7.66 10.943-18.602 10.943-30.639v-326.08c0-7.659-4.377-19.695-10.942-27.355-28.45-24.073-59.088-43.769-86.444-71.124-12.036-7.66-16.413-7.66-28.45 0-27.355 27.355-57.994 47.051-86.444 74.407-6.565 4.377-10.942 16.413-10.942 28.45-4.377 53.617-4.377 105.045-4.377 160.85z"/></svg>