<svg xmlns="http://www.w3.org/2000/svg" viewBox="0 0 1000 1000"><path d="M518.278 11.222C638.556 86.691 763.55 155.085 889.726 230.553c28.3 17.688 38.913 38.914 38.913 73.11v399.75c0 34.197-10.612 51.885-38.913 68.393C763.55 847.276 643.273 915.67 518.278 988.78c-12.971 9.434-23.584 7.075-34.197 0-96.695-55.422-195.747-113.203-298.338-169.805-21.225-16.508-51.885-34.196-80.185-51.884-21.226-11.792-34.197-29.48-34.197-50.706V293.05c0-30.66 17.688-44.81 41.272-62.498C248.24 149.19 464.035 24.193 484.08 11.223c16.509-9.435 21.226-7.076 34.197 0zM185.743 669.216c0 12.971 12.971 23.584 16.509 29.48 93.157 56.602 189.851 107.307 281.829 165.088 10.613 7.075 21.226 7.075 38.914-5.896 91.977-51.885 183.955-107.307 274.753-159.192 16.509-5.896 23.584-16.509 23.584-34.197V423.942c0-5.896 0-14.15-7.075-23.584-10.613 5.896-10.613 5.896-21.226 12.971-86.081 44.81-167.446 86.082-246.452 130.892-34.197 17.688-57.781 23.584-90.799 0 5.896 3.537-268.858-142.684-270.037-143.863v12.971c0 86.082-4.717 172.164 0 255.887zM219.94 293.05c257.066 146.22 257.066 148.58 280.65 148.58 28.3 0 62.497-28.302 91.977-45.99 62.498-34.196 119.1-63.676 183.956-97.873 9.433-9.434-154.476-91.978-264.141-159.192-7.075-5.896-16.51-3.538-28.301 5.896-79.006 45.989-154.475 86.081-229.944 130.891-10.613 4.717-17.688 10.613-34.197 17.688z"
    style="fill:#000;fill-opacity:1;fill-rule:nonzero;stroke:none"/></svg>