<?xml version="1.0" encoding="utf-8"?>
<!-- Generator: Adobe Illustrator 26.0.1, SVG Export Plug-In . SVG Version: 6.00 Build 0)  -->
<svg version="1.1" xmlns="http://www.w3.org/2000/svg" xmlns:xlink="http://www.w3.org/1999/xlink" x="0px" y="0px"
	 viewBox="0 0 1000 1000" style="enable-background:new 0 0 1000 1000;" xml:space="preserve">
<g id="Layer_1">
</g>
<g id="Layer_3">
</g>
<g id="Layer_2">
	<g>
		<path d="M397.2,606.3c-1.8-1.9-4.7-3.8-5-5.9c-1.4-9.8-2.3-19.7-2.8-29.6c-3-54-3.6-108,0.9-162c0.4-4.5,0.1-9.1,0.1-14
			c-18.7,1.3-36.6,2.6-55.1,3.9c1,2.7,1.8,4.8,2.7,7.1c-3.1-0.9-5.4-1.9-7.7-2.1c-5.5-0.4-10.5-1.1-16.4,1.5
			c-5.8,2.6-13.6,0.1-20.4,1c-3.1,0.4-6.7,2.8-8.5,5.3c-3.5,5-5.9,10.9-8.8,16.3c-0.8,1.4-2.4,3.8-3,3.7c-5.7-1.7-12.5,2.9-16.5-0.2
			c-4.3-3.4-7.2,2.1-10.6-0.6c-1-0.8-3.7,0.5-5.6,0.8c-0.4-2.3-1.2-4.5-1.1-6.8c0.3-4.6,1.7-9.1,1.5-13.6c-0.1-1.3-5.5-3.9-6-3.4
			c-5.1,4.9-9.7,10.3-15.8,17.2c5.3-0.9,7.8-1.9,10.1-1.6c2.4,0.4,4.5,2.1,6.8,3.2c-1,1.9-1.7,4.1-3.1,5.7c-1.8,2-4.1,3.9-6.5,4.9
			c-2,0.8-5.3,1-6.7-0.1c-9-7.3-10.3-7.3-15.9,1.9c-4-9.3-3-12.6,6-18.1c-3.9,0-7,0-10.2,0c-0.7,3.9-1.2,7.2-1.8,10.5
			c-0.7,0-1.4,0.1-2,0.1c-0.7-3.4-1.4-6.8-2.1-10.2c-0.8,0.1-1.7,0.2-2.5,0.3c0.3,3.3,0.6,6.7,0.9,10.7c-6.1,0-12.3,0.4-18.5-0.2
			c-1.8-0.2-3.5-2.9-5-4.7c-0.3-0.3,0.9-2.6,1.2-2.5c2.3,0.5,4.6,1.3,7,2.1c1.9-1.4,4.5-3.3,7.4-5.4c-20.4-9.6-21.9-9.9-39.3-4.7
			c-2,0.6-3.5,2.8-5.2,4.3c1.9,1.3,3.6,3.1,5.7,3.7c2.2,0.6,4.6,0.1,6.8,0.1c-1.4,10.9-9.9,4.9-14.9,6.6
			c-12.7,4.3-4.3-11.6-13.1-13.8c0.5,10,1.1,18.7,1.3,27.5c1.1,51.6,0,103.2-5.5,154.6c-0.9,8.5-0.7,16.8-6.3,24.2
			c-3.6,4.9-2.5,8.7,4.8,9c26.5,0.9,53,2.3,79.5,2.8c28.7,0.6,57.4,0.6,86.1,0.7c34.8,0.1,69.7,0,104.5-0.4c3.5,0,9-2.2,9.9-4.7
			c2.4-6.3,3-13.4,3.6-20.2C401.7,609.5,398.7,607.9,397.2,606.3z M140.7,444.6c3.3,6.1,7.1,10.3,15.1,6.8c-0.1,1.1-0.3,2.1-0.4,3.2
			c-4.8,0.2-9.5,0.5-14.6,0.8C140.7,451.4,140.7,448,140.7,444.6z M162.1,615.3c-8.4-0.4-16.8-0.8-25.2-1.1c0.2-0.5,0.4-1,0.6-1.5
			c8.3,0,16.5,0,24.8,0C162.2,613.6,162.2,614.4,162.1,615.3z M190.9,615.6c-5.8-0.7-11.6-1.4-19-2.2c1.8-2.1,3.1-4.5,3.8-4.3
			c5.3,1.4,10.5,3.2,15.7,4.9C191.2,614.5,191,615,190.9,615.6z M194.1,455.9c-8.5,0-17.1,0-25.6,0c0.1-1.4,0.2-2.8,0.3-4.3
			c8.5,0.4,17,0.8,25.5,1.2C194.2,453.8,194.1,454.8,194.1,455.9z M203.6,457.4c-1.9,0-3.8-2.2-5.7-3.4c0.3-0.6,0.5-1.2,0.8-1.7
			c2.7-0.4,5.3-0.8,8.5-1.2c0.8-2.4,1.7-5.1,2.8-8.1c3.9,4.9,7.3,9.2,10.2,12.9C214.5,456.5,209,457.4,203.6,457.4z M231,455.9
			c-0.2-1-0.3-1.9-0.5-2.9c7.5-0.7,15.1-1.4,22.6-2.1C246.7,458.8,238.9,457.9,231,455.9z M243.8,605.4c2.4,11,11.9,3.6,17.4,7.4
			C248.6,616.8,243.1,614.6,243.8,605.4z M282.9,455.5c-6.9,0-12.4,0-17.8,0c0-4.2,0-7.8,0-11.4c3.1,7,8.3,7.5,14.9,7.5
			c4.1-0.1,8.2,3.2,14.5,5.9c-2.2-2.8-3.1-4-5.5-7.2c5,1.6,7.8,2.5,11,3.6C291.3,462.7,289.1,462.6,282.9,455.5z M300.2,432.3
			c-0.9,2.1-2.3,4-2.5,4.3c-5.5-2.6-10.3-4.8-16.6-7.7c1.7-1.3,3.3-3.3,5.4-3.9c2.8-0.9,5.9-1.1,8.8-0.8c2.2,0.2,4.8,1,6.1,2.6
			C302.3,427.6,301,430.5,300.2,432.3z M319.9,455.4c-1.2,1.4-7,1.5-7.2,0.9c-1.4-3.9-1.8-8.1-2.6-12.2c1.1-0.1,2.2-0.2,3.3-0.3
			c0.5,2.2,1,4.5,1.5,6.7c0.6,0.4,1.2,0.9,1.8,1.3c0.8-1.6,1.5-3.2,2.3-4.8c0.7,0.1,1.4,0.2,2.1,0.3
			C320.8,450.2,321.4,453.7,319.9,455.4z M323.9,432.4c-3.7-1.1-7.5-2.1-11.2-3.2c1.1-1.5,2.6-4.4,3.3-4.2c3.2,0.9,6.2,2.6,9.3,4.1
			C324.8,430.1,324.4,431.2,323.9,432.4z M334.4,427.9c0-2.4,0-6.3,0-10.5c2,2.5,3.5,4.8,5.3,6.7c1.9,2,4.1,3.7,6.1,5.5
			c-0.5,0.9-1.1,1.7-1.6,2.6C341.2,430.8,338.2,429.5,334.4,427.9z M364.2,450c-0.3,2.5-0.6,4.8-0.7,6.2c-6.5-0.5-12.5-0.9-17.9-1.3
			C345.7,454.2,345.7,454.2,364.2,450z M359.9,483.3c-3.3-2.2-10.2-2.9-7.4-8.4c4.2,1.7,8.4,3.5,13,5.4
			C364.3,481,360.9,483.9,359.9,483.3z M371.1,430.3c-2.2-0.2-4.4-0.5-6.7-0.4c-1.9,0-3.8,0.5-5.8,0.6c-2.7,0.1-5.6,0.6-7.9-0.4
			c-0.9-0.4-0.7-4.3-0.4-6.5c0.4-2.5,1.5-4.8,2.3-7.2c0.6,0,1.3,0.1,1.9,0.1c0.6,2.2,1.3,4.5,2,7c2.7,0.5,5.7,0.8,8.5,1.6
			c2.3,0.6,4.4,1.9,6.6,2.8C371.5,428.7,371.3,429.5,371.1,430.3z"/>
		<path d="M63.7,365.1c-5.5-2.5-8.1-1-11.7,3.2C9.7,418.4-6.4,476.1,2.3,540.7c5.8,42.9,23.8,80.6,51.6,113.7
			c1.2,1.4,3.9,3.2,5.2,2.7c12.4-4.4,24.6-9.2,37-13.9c-61.2-88.9-63.9-176.7,0.1-265.4C85.1,373.5,74.1,369.8,63.7,365.1z"/>
		<path d="M998.3,480.6c-5.1-43.6-23.5-81.1-52.1-113.9c-1.3-1.5-4.4-3.3-5.9-2.7c-12.1,4.3-24.1,9.1-36.4,13.8
			c64.2,88.7,61.4,176.7,0.2,265.3c11.1,4.3,21.9,8.2,32.4,12.7c5.3,2.3,8.1,0.9,11.6-3.5C988.8,602,1005.8,544.9,998.3,480.6z"/>
		<path d="M394.2,346.7c-26.5-1.3-52.9-3-79.4-4.1c-43.6-1.8-87.2-3.3-130.8-4.8c-3.2-0.1-6.5,1-9.8,1.2c-5.7,0.4-11.3,0.6-17,0.8
			c-12.3,0.4-24.7,0-36.9,1.4c-7.9,0.9-4.8,8.7-5.3,13.7c-0.5,5.2,3.4,6.2,7.8,6.1c7.4-0.2,14.8-0.4,22.2-0.7
			c25.9-1,51.8-2.9,77.7-2.8c55.4,0.3,110.9,1.6,166.3,2.5c0,0.4,0,0.8,0,1.2c1.7,0,3.3-0.1,5,0c5.4,0.3,8.3-2.1,8.4-7.7
			C402.6,347.5,398.7,346.9,394.2,346.7z"/>
		<path d="M882.8,346.7c-17.9-1-35.8-2.2-53.7-3.2c-24.5-1.3-49.1-2.6-73.6-3.4c-33-1.1-66-5.6-99,0.5c-2.7,0.5-5.5-0.1-8.3-0.1
			c-11.5-0.2-23-1.1-34.4-0.5c-10.2,0.6-12.5,4.3-11,14.8c1.3,9.4,8.6,5.7,13.7,5.5c12.9-0.5,25.8-2.1,38.7-2.3
			c25.4-0.4,50.8-0.1,76.2-0.1c0,0.5,0,1,0,1.5c40,0,80-0.1,120,0.1c10.5,0,20.9,1,31.4,1.5c5.3,0.2,7.3-2.8,7.5-7.7
			C890.5,348.1,887.1,347,882.8,346.7z"/>
		<path d="M488.9,559.4c-18.1,0-34.9-0.1-51.7,0.2c-1.6,0-4.6,2.6-4.6,4.1c-0.3,16.2-0.2,32.4-0.2,49.2c8.7,0,16.4,0,24.5,0
			c2.5,17.6-10.2,22.3-22.1,27.8c4.1,8,7.7,14.9,11.2,21.7c28.7-8,42.2-23.8,42.8-49.7c0.3-12.4,0.1-24.8,0.1-37.2
			C488.9,570.4,488.9,565.3,488.9,559.4z"/>
		<path d="M884.8,606c-2-0.4-4.5-3.7-4.8-5.9c-1.3-9.5-2.2-19.2-2.8-28.8c-3-54-3.7-108,0.8-162c0.4-4.8,0.1-9.6,0.1-14.5
			c-18.9,1.3-36.8,2.6-55.3,3.9c1.2,2.8,2,4.6,2.9,6.5c-4.9-0.7-9.4-2-13.8-1.8c-9,0.4-17.9,1.9-26.9,2.5
			c-9.6,0.6-18.3,8.9-20.3,18.4c-0.6,3-4.8,5.3-7.4,7.9c-2.9-3.1-5.7-1.7-8.8-0.1c-1.1,0.6-3.1-0.4-4.7-0.6l-10.1-0.8
			c-2,0.2-5.3,1.1-5.6,0.5c-1-1.9-1.1-4.5-1-6.7c0.3-4.6,1.8-9.2,1.4-13.7c-0.3-4.4-4-5.7-7.1-2.6c-4.8,4.6-8.8,10.1-14.6,16.9
			c4.2-1,6-1.5,7.8-1.8c1.6-0.2,3.5-0.6,4.9-0.1c1.6,0.6,3.5,2.1,3.9,3.6c0.4,1.3-0.7,3.9-1.9,4.5c-4.5,2.4-9.2,5.1-14.1,5.7
			c-2.6,0.3-5.9-5-8.7-4.8c-2.7,0.1-5.3,4-8.7,6.8c-0.2-3.7-1.4-7.5-0.3-10.5c1-3,4.2-5.2,7.1-8.6c-3.6,0.2-6.6,0.3-9.5,0.5
			c-0.8,4.3-1.5,7.5-2.1,10.8c-0.7,0-1.3,0-2,0c-0.7-3.4-1.4-6.9-2.2-10.3c-0.9,0.1-1.8,0.3-2.6,0.4c0.4,3.4,0.7,6.8,1.1,10.2
			c-17.3,2.9-22.7,1.3-22.7-8.1c2.8,1.3,5.1,2.4,7,3.3c2.4-1.6,5-3.3,7.7-5.2c-12.8-8.8-26.1-10.4-40.2-4.8
			c-1.7,0.7-2.8,2.9-4.2,4.3c1.7,1.1,3.3,2.8,5.2,3.3c2.4,0.6,5,0.1,7.6,0.1c0.2,0.7,0.5,1.3,0.7,2c-3.1,1.8-7.3,5.8-8.9,5
			c-3.6-1.9-5.7-0.4-8.7,0.1c-2.5,0.4-5.5-3.3-9.3-5.8c-0.5,2.5-1.4,5.2-1.4,7.9c0,4.4,0.7,8.8,0.8,13.2
			c1.2,51.4-0.1,102.6-5.7,153.7c-0.9,7.9-0.9,15.5-5.9,22.7c-4.6,6.7-2.8,9.1,5.6,9.4c41.1,1.2,82.2,2.9,123.3,3.4
			c45.9,0.6,91.8,0.1,137.7,0c16.9,0,16.9,0,19.9-16.6c0.3-1.9,0.9-3.8,1.4-5.6C890.2,609.9,889.9,607.1,884.8,606z M628.6,444.6
			c2.8,7.7,7.9,9,14.9,7.3c-0.1,0.9-0.3,1.9-0.4,2.8c-4.6,0-9.3,0-14.4,0C628.6,451.6,628.6,448.1,628.6,444.6z M649.9,615.3
			c-8.4-0.4-16.8-0.7-25.2-1.1c0.2-0.5,0.5-1,0.7-1.4c8.2,0,16.4,0,24.6,0C650.1,613.6,650,614.4,649.9,615.3z M678.8,615.6
			c-5.8-0.7-11.6-1.4-19-2.2c1.7-2.1,3-4.5,3.6-4.3c5.3,1.3,10.5,3.2,15.8,4.8C679,614.5,678.9,615,678.8,615.6z M681.9,455.9
			c-8.5,0-17.1,0-25.6,0c0-0.9,0-1.8,0.1-2.7c8.5,0,17.1,0,25.6,0C682,454,681.9,455,681.9,455.9z M695.3,457.1c-3.1,0-6.2-1-9.3-3
			c5.8-2.1,11.9-2.5,10.9-12.3c4.7,6.1,8.1,10.4,11,14.2C703.1,456.4,699.2,457.1,695.3,457.1z M718.4,452.9
			c7.4-0.7,14.9-1.4,22.9-2.1C736.1,458.8,730.7,459.6,718.4,452.9z M731.2,604.1c3.3,11.9,11.9,5.5,17.5,8.2
			C739.3,617.3,731.3,614.6,731.2,604.1z M770.8,455.5c-6.7,0.3-12.2,0.6-18,0.9c0-4.8,0-8.5,0-12.2c4.7,14.2,21.5,1.6,26.4,14.2
			c0.5-0.7,1-1.4,1.5-2.1c-0.7-1.3-1.5-2.6-3.2-5.6c4.1,1.2,6.9,2,11,3.2C778.8,462.4,776.6,462.3,770.8,455.5z M788.1,432.3
			c-0.9,2.1-2.3,4-2.5,4.3c-5.5-2.6-10.2-4.8-16.5-7.7c1.6-1.2,3.3-3.3,5.3-3.9c2.8-0.9,5.9-1.1,8.8-0.8c2.2,0.2,4.8,1,6.2,2.5
			C790.2,427.6,788.9,430.5,788.1,432.3z M807.5,455.6c-1.2,1.3-6.9,1.1-7.2,0.4c-1.3-3.8-1.5-8-2.1-12.1c0.9-0.1,1.8-0.2,2.7-0.4
			c0.6,2.2,1.3,4.3,2.1,7.3c1.6-1.4,3-2.5,4.3-3.7c0.6,0.1,1.2,0.3,1.8,0.4C808.7,450.4,809.1,453.9,807.5,455.6z M811.5,432.7
			c-3.7-1.5-7.3-2.9-11-4.4c1.1-1.2,2.7-3.7,3.4-3.5c3.2,1,6.2,2.7,9.3,4.1C812.6,430.2,812.1,431.5,811.5,432.7z M822.2,428
			c0-2.4,0-6.3,0-10.3c4,4.3,7.7,8.4,11.4,12.4c-0.5,0.6-0.9,1.3-1.4,1.9C829.2,430.9,826.2,429.6,822.2,428z M840,451.8
			c3.7-0.9,7.5-1.2,12-1.9c-0.3,2.7-0.5,4.8-0.6,6.1c-6.4-0.4-12.3-0.8-19.1-1.2C834.8,453.8,837.3,452.4,840,451.8z M847.5,483.2
			c-2.8-2.6-10.2-2.6-7.3-8.2c4.7,1.9,8.7,3.5,13.3,5.3C852.1,481,848.2,483.8,847.5,483.2z M859.2,429.7c-1.9,0.2-4,1-5.5,0.4
			c-3-1.3-5.4-3.5-8.1,0.9c-0.6,0.9-5.3,0.3-7.1-1c-1.1-0.8-0.6-4.3-0.2-6.5c0.4-2.5,1.5-4.8,3.1-9.5c1.5,4.6,2.3,7,3,9.2
			c5.1,1.3,10.1,2.5,15.1,3.7C859.4,427.8,859.3,428.8,859.2,429.7z"/>
	</g>
</g>
</svg>
