<svg xmlns="http://www.w3.org/2000/svg" width="1000" height="1000">
  <path d="M805.169 576.08c50.095 0 43.833 43.833 0 43.833H701.222c-15.028 0-18.785 2.505-23.795 15.028-60.113 185.35-180.34 303.073-369.448 349.411-51.348 12.524-97.685 12.524-149.032 7.514 216.66-38.823 358.177-159.05 423.3-371.953H245.36c-17.533 0-35.066-5.01-35.066-21.29 0-11.272 15.028-22.543 38.823-22.543h319.354c13.776 0 26.3-2.505 26.3-25.047-2.505-35.067-2.505-73.89-2.505-108.956 0-15.029-3.757-20.038-21.29-20.038H249.117c-27.552 0-38.823-3.757-38.823-17.533 0-21.29 7.514-25.048 38.823-25.048h330.626c-23.795-102.694-78.9-185.35-154.042-251.726C348.054 61.357 256.631 22.533 158.947 5 414.43 5 604.79 122.723 674.923 355.663c7.514 18.786 15.028 23.795 33.813 23.795h96.433c48.842 0 48.842 42.58-6.262 42.58H693.708V576.08z" style="fill:#000;fill-opacity:1;fill-rule:nonzero;stroke:none;"/>
</svg>
