<svg xmlns="http://www.w3.org/2000/svg" viewBox="0 0 1000 1000"><path d="M5 500.496c0 271.98 220.55 494.507 495.496 494.507 271.98 0 494.507-220.55 494.507-495.496C995.003 227.528 773.464 5 500.496 5 226.54 5 5 225.55 5 500.496zm195.825 174.067c2.967-91.979 0-186.924 2.967-280.88v-14.836c26.703 14.836 50.44 28.682 77.143 44.506 11.868 5.934 14.835 13.846 14.835 24.725v156.265c0 14.835 2.967 22.747 17.802 29.67 59.341 40.55 115.715 77.143 175.056 117.693 14.835 10.879 25.714 10.879 40.55 0 39.56-22.748 80.11-44.506 116.703-70.22 10.88-6.923 19.78-6.923 28.682 0 26.703 19.78 52.417 32.637 80.11 51.429-17.802 10.879-35.605 21.758-53.407 34.615-58.352 38.572-121.649 76.154-180 111.759-9.89 7.912-14.836 7.912-24.726 0-91.978-59.341-186.924-116.704-277.913-175.056-11.868-6.923-17.802-15.824-17.802-29.67zm2.967-369.892c0 .99 292.748-185.934 292.748-185.934 9.89-6.923 17.802-6.923 29.67 0 90 58.351 181.98 119.67 272.968 180 23.737 20.77 29.67 76.154 14.836 94.946-6.923 17.802-29.67 32.637-46.484 47.472-26.703 17.803-51.429 38.572-77.143 62.308.989.99 82.088 52.418 112.748 69.231 10.879 7.912 14.835 13.846 14.835 25.715v98.901c-105.825-66.264-204.726-131.539-306.595-196.814 62.308-48.462 124.616-92.967 189.891-139.45-22.747-14.836-41.539-26.704-58.352-37.583-40.55-24.726-81.099-50.44-121.649-80.11-9.89-4.946-17.802-4.946-24.725 0-62.308 39.56-121.649 76.154-179.011 111.758-7.913 7.912-18.792 7.912-24.726 0-29.67-17.802-60.33-31.648-89.011-50.44z"/></svg>