<svg xmlns="http://www.w3.org/2000/svg" viewBox="0 0 1000 1000"><path d="M207.53 5h40.332c46.445 6.111 88 26.889 125.889 52.555 66 45.222 111.222 108.778 132 187 9.777 26.889 23.222 52.555 46.444 73.333 28.11 29.333 57.444 57.444 91.666 74.555 42.778 23.223 86.778 26.89 132 14.667 2.444-3.667 9.778-3.667 12.222-7.333 1.222 3.666 1.222 7.333 1.222 7.333 0 29.333 3.667 53.778 3.667 84.333-3.667 22-14.667 35.444-37.889 41.556-19.555 8.555-40.333 14.666-59.888 23.222-20.778 8.555-34.223 23.222-39.111 46.444-9.778 30.555-35.445 57.444-62.334 73.333-30.555 17.111-58.666 14.667-88-2.444-4.888-3.667-7.333-6.111-11-6.111-11 12.222-19.555 23.222-26.888 37.888-13.445 14.667-9.778 25.667 3.666 42.778 3.667-6.111 3.667-14.667 6.112-19.555 2.444 0 6.11 0 7.333 2.444 9.778 11 20.778 14.667 36.666 14.667 7.334 2.444 17.111 8.555 19.556 17.11 20.778 36.667 34.222 73.334 52.555 111.223 2.445 8.555 4.89 23.222 4.89 35.444 0 2.444-2.445 11-4.89 13.444-7.333 0-14.666-2.444-18.333-6.11-13.444-17.112-29.333-36.667-40.333-57.445-6.111-7.333-9.778-23.222-11-33 0-9.778-6.111-12.222-12.222-9.778l-28.111 15.89c1.222-20.779-6.111-23.223-15.89-20.779-15.888 0-24.444-8.555-30.555-20.777-6.11-12.222-9.777-22-14.666-34.222-8.556-15.89-11-15.89-31.778-14.667-14.667 6.111-26.889 8.555-41.555 12.222-25.667 2.445-52.556 2.445-80.667 2.445 2.445 2.444 4.889 6.11 8.556 6.11 6.11 2.445 11 2.445 14.666 2.445 11 0 24.445-6.111 31.778 0 8.556 6.111 11 20.778 12.222 29.333 15.889 31.778 30.556 59.89 40.333 91.667 3.667 6.11 0 11 0 20.777-7.333-3.666-17.11-3.666-22-7.333-4.888-6.11-11-13.444-18.333-19.555-7.333-13.445-17.11-25.667-24.444-37.89-12.222 7.334-17.111 7.334-25.667-6.11 0-1.222-7.333-3.667-12.222-3.667-30.555-11-45.222-35.444-52.555-61.11-9.778-25.667-20.778-46.445-44-61.112-40.334-22-57.445-63.555-59.889-105.11-4.889-23.223-7.333-37.89-35.444-42.778-23.223-6.111-36.667-20.778-40.334-46.445 0-6.11-2.444-8.555-2.444-12.222-6.111-9.777-2.444-22 8.556-28.11 17.11-8.556 25.666-37.89 51.333-22 20.777 9.777 18.333 9.777 30.555-2.445 11-11 18.333-18.333 28.111-23.222 12.222-14.667 12.222-18.334-4.889-29.334-33-23.222-58.666-51.333-75.777-91.666-31.778-66-35.445-134.444-7.334-204.11 24.445-57.445 70.89-83.111 130.778-95.334C202.64 5 205.085 5 207.529 5zM81.64 231.11c3.667 23.223 20.778 44 40.334 46.445 28.11 2.444 47.666-11 62.333-47.667 3.667 1.222 8.556 1.222 13.444 3.667 33 7.333 70.89-7.333 88-41.556 17.111-29.333 13.445-74.555-14.666-94.11-23.223-15.89-34.223-33-30.556-59.89 2.445-11-7.333-15.888-15.889-15.888-62.333-2.444-112.444 25.667-136.888 83.11-8.556 23.223-8.556 31.779 11 46.445 11 8.556 23.222 17.111 34.222 22-34.222 12.222-51.333 33-51.333 57.444zm12.223-4.888c0-17.111 13.444-33 31.778-33 17.11 0 26.888 13.444 26.888 30.555 0 17.111-12.222 30.556-30.555 30.556-14.667 0-28.111-9.778-28.111-28.111zm53.777-66c0-25.667 17.112-42.778 42.778-46.445 23.222 0 40.333 20.778 40.333 44s-19.555 42.778-42.777 42.778-40.334-17.111-40.334-40.333zm272.555 716.22s2.445-2.444 2.445-3.667c4.889 1.223 8.555 1.223 12.222 3.667 34.222 37.889 68.444 75.778 103.888 111.222v7.333c-44-34.222-80.666-74.555-118.555-118.555zm200.444-55c57.444 52.556 110 110 161.333 171.11-24.444-8.555-163.777-156.443-161.333-171.11zm20.778-128.333c2.444-2.444 4.889-4.889 8.555-9.778 36.667 39.111 72.111 75.778 105.111 113.667 0 2.444 0 2.444-2.444 2.444-34.222-36.666-68.444-74.555-106.333-111.222 0 2.445-2.445 2.445-4.89 4.89zm90.444-174.777c37.889-14.667 57.444-59.889 37.889-90.444-14.667 28.11-24.445 58.666-37.889 90.444zm25.667 48.889c18.333 0 154 143 162.555 163.777-58.667-51.333-112.444-105.11-162.555-163.777zm47.666 232.221c4.89 3.667 7.334 3.667 11 6.111 48.889 53.778 97.778 106.333 145.444 161.333 2.445 0 2.445 0 2.445 4.89-30.556-22-156.444-155.223-158.889-172.334z"/></svg>