<svg xmlns="http://www.w3.org/2000/svg" width="1000" height="1000">
  <path d="M500.496 995.003c275.935 0 494.507-224.506 494.507-495.496C995.003 226.54 773.464 5 500.496 5 223.572 5 5 229.506 5 499.507c0 276.924 224.506 495.496 495.496 495.496zm-278.902-219.56 45.495-43.518 44.505-46.483-4.945-10.88c-9.89-19.78-18.79-47.472-20.769-71.208-1.978-4.945-1.978-8.901-1.978-8.901 1.978-1.979 105.825-10.88 105.825-10.88s.989 3.956 1.978 8.901c5.934 29.67 19.78 55.385 38.571 70.22 7.912 6.924 26.704 15.825 38.572 18.792 32.637 8.9 77.143 4.945 101.868-7.912 18.791-10.88 34.616-27.693 40.55-46.484.989-6.923.989-21.758 0-28.681-5.934-15.825-14.835-25.715-34.616-35.605-15.824-6.923-25.714-9.89-100.88-28.681-38.57-10.88-73.186-22.748-93.956-34.616-50.44-25.714-78.132-72.198-78.132-126.594 0-16.813 1.978-28.681 6.923-44.505l3.956-9.89-46.483-47.473-46.484-46.484 36.594-37.582 36.593-36.594 47.473 46.484 45.495 47.472 10.879-5.934c29.67-10.879 67.253-16.813 110.77-14.835 39.56.99 67.252 4.945 94.945 14.835l10.879 4.945 45.494-46.483 47.473-46.484 36.594 36.594 36.593 37.582-45.494 46.484-46.484 45.494 3.956 9.89c6.923 15.825 8.901 32.638 10.88 49.451l1.977 8.901-13.846 1.979c-20.77 0-93.956 2.967-93.956 2.967-1.978 0-1.978-4.946-3.956-9.89-10.88-42.528-32.638-61.32-77.144-67.254-22.747-.989-51.428.99-68.242 5.935-14.835 5.934-29.67 14.835-34.615 23.736-9.89 13.846-9.89 33.626 2.967 47.473 10.88 14.835 39.56 27.692 105.824 44.505 93.957 23.737 128.572 37.583 157.254 69.231 28.681 28.682 40.55 65.275 39.56 114.726-.989 25.714-4.945 43.516-15.824 64.286l-4.945 10.879 40.55 41.539 41.538 40.55-36.593 37.582-36.594 36.593-44.505-44.505-45.495-44.506-5.934 1.978c-11.868 3.956-32.638 8.901-47.473 12.857-61.319 8.901-126.594 1.978-169.121-14.835l-7.912-3.956-45.495 47.473-47.473 45.494-36.593-36.593z" style="fill:#000;fill-opacity:1;fill-rule:nonzero;stroke:none;"/>
</svg>
