<svg xmlns="http://www.w3.org/2000/svg" width="1000" height="1000">
  <path d="M902.736 334.646V560.78c0 73.255-28.664 131.646-92.364 165.62-88.118 55.206-174.113 96.61-256.922 146.509-8.494 4.247-14.864 14.863-14.864 23.357v72.193c0 15.925-4.246 26.541-18.048 26.541-56.268 0-59.453 0-59.453-50.96 0-41.404-1.062-66.884-43.528-85.994-81.748-39.282-155.003-88.118-229.32-131.646-61.576-33.974-91.302-92.365-91.302-165.62V320.845c0-73.255 36.096-131.647 98.734-164.558 62.638-40.343 125.276-77.501 193.223-117.845 71.131-44.59 149.694-44.59 222.949 0 62.638 40.344 126.338 73.255 184.73 110.413 73.254 40.343 110.412 102.981 106.165 185.791zm-735.732 85.995c0 29.726 7.432 44.59 28.665 54.145 62.638 39.281 125.276 81.748 188.976 122.09 4.247 4.247 18.048 13.802 18.048 23.357s0 29.727-8.493 39.282c-9.555 8.493-29.726 8.493-44.59 0-52.02-32.912-160.31-105.105-179.42-112.536-7.432 54.144 13.801 98.734 54.144 121.03 71.132 40.342 144.386 83.87 214.456 122.09 7.432 5.309 13.802 9.555 21.233 9.555 4.247-4.246 4.247-4.246 4.247-9.555V596.877c0-10.617-7.432-20.172-11.678-20.172-54.145-29.726-79.625-71.131-79.625-130.584 0-9.555-8.493-25.48-12.74-29.727-57.33-38.22-111.475-73.255-164.558-106.166-11.678-4.247-14.863-9.555-25.48-13.802 0 9.555-3.185 18.049-3.185 28.665 0 32.912 3.185 66.885 0 95.55zm37.159-187.914c69.008 43.528 127.399 81.748 190.037 122.09 14.863 7.432 23.357 7.432 37.158 0 44.59-29.726 93.427-29.726 135.893 0 14.863 7.432 25.48 7.432 40.343 0C676.602 304.92 776.4 247.59 800.817 232.728 751.98 203 714.822 178.582 674.479 160.534c-4.247 0-13.802 4.246-18.048 4.246-29.727 20.172-56.268 33.973-78.563 49.898-32.912 21.234-69.008 41.405-97.673 65.823-27.603 15.925-36.097 13.802-57.33-9.555-13.802-19.11-9.555-35.034 15.925-48.836 18.048-14.863 37.158-23.357 52.021-37.158 33.974-20.172 72.193-44.59 105.105-69.008-50.96-44.59-105.105-53.083-153.941-23.357-73.255 38.22-139.078 81.748-213.394 122.091-10.617 3.185-14.863 7.432-24.418 18.049zm237.812 221.887c0 36.097 29.726 59.453 58.391 59.453 29.727 0 53.084-23.356 53.084-59.453 0-26.542-19.11-52.021-53.084-52.021-36.096 0-58.391 25.48-58.391 52.021zm96.611 326.992c0 4.247 6.37 8.493 6.37 18.048 8.494-4.246 12.74-4.246 18.048-9.555 67.947-38.22 140.14-77.501 208.086-122.09 43.528-22.296 63.7-57.33 63.7-107.229-5.308-77.501-5.308-158.187-5.308-235.689V292.18c-66.885 46.713-135.893 85.994-198.531 128.46-4.247 7.432-4.247 15.926-4.247 19.11 4.247 58.392-19.11 102.982-69.008 128.462-12.74 8.493-19.11 18.048-19.11 32.911z" style="fill:#000;fill-opacity:1;fill-rule:nonzero;stroke:none;"/>
</svg>
