<svg xmlns="http://www.w3.org/2000/svg" viewBox="0 0 1000 1000"><path d="M964.706 506.372v47.847c0 7.176-1.196 11.961-2.392 20.334-3.589 49.043-15.55 96.889-37.081 142.343-8.373 20.335-19.139 38.277-29.904 56.22-1.196 2.392-1.196 5.98 0 9.569 19.138 37.08 32.296 77.75 45.454 118.42 4.785 9.569 0 17.942-7.177 25.119-5.98 7.177-13.158 7.177-23.923 3.588-5.981-3.588-14.354-4.784-21.531-7.177-29.904-10.765-62.2-20.334-92.104-31.1-1.196 0-3.589 0-5.981 1.196-26.315 20.335-55.023 40.67-86.123 56.22-43.062 19.138-86.124 33.492-132.774 39.473-33.492 7.177-66.985 7.177-100.477 5.98-35.885-2.392-69.377-9.569-104.066-20.334-28.708-7.177-53.827-19.139-78.946-31.1-31.1-15.55-59.808-34.689-86.124-56.22-38.277-34.688-72.965-71.769-98.085-116.027-20.334-31.1-37.08-63.396-44.258-101.673-10.765-32.297-9.569-65.789 7.177-95.693 14.354-28.708 35.885-47.846 64.593-57.416 8.373-2.392 10.765-9.569 14.354-14.353 11.961-14.354 26.315-23.924 43.061-31.1 34.69-14.354 68.181-21.531 102.87-17.943 29.904 1.196 58.612 7.177 86.123 17.942 25.12 8.374 49.043 19.139 75.358 28.708 37.081 11.962 76.555 21.531 118.42 19.139 46.65-3.589 88.516-17.943 125.597-49.043 23.923-20.334 44.258-44.258 53.827-74.162 10.765-38.277 5.98-72.965-14.354-105.261-5.98-9.57-13.158-15.55-16.746-23.924-1.196-2.392-5.981-3.588-7.177-2.392-44.258 9.57-84.927 1.196-125.597-13.158-14.354-5.98-29.904-13.157-40.67-22.727-8.372-9.569-8.372-15.55-1.195-25.119 11.961-14.354 28.707-25.12 44.257-33.492 22.727-11.962 44.258-21.531 69.378-25.12 9.569-1.196 21.53-1.196 32.296-1.196 2.392-8.373 4.785-19.138 9.57-28.708 8.372-15.55 17.942-29.904 26.315-44.258 15.55-21.53 34.688-38.277 56.22-52.63 11.96-8.374 23.922-13.158 37.08-11.962 8.373 0 10.765 1.196 13.158 9.57 5.98 14.353 5.98 28.707 4.784 43.06-2.392 39.474-9.569 76.555-26.315 111.244-1.196 2.392-4.785 7.177-4.785 11.961 0 2.392 5.981 4.785 8.373 8.373 28.708 27.512 56.22 58.612 77.75 93.3 21.531 34.69 39.474 71.77 51.435 111.243 9.57 35.885 17.943 72.966 19.139 108.85 0 1.197 1.196 2.393 1.196 3.59zM35.291 533.884v-27.512c1.196-5.98 2.393-13.158 2.393-19.138 3.588-47.847 15.55-93.3 34.688-136.362 15.55-38.277 35.885-74.162 62.2-105.262 37.081-49.043 82.535-88.516 135.166-118.42 50.239-28.708 102.87-47.846 159.09-56.22 20.334-2.392 39.472-2.392 58.611-3.588 5.98-1.196 9.57-1.196 15.55-1.196 8.373 1.196 11.962 4.785 10.765 14.354 0 5.98-4.784 9.57-13.157 9.57-11.962 0-23.923 0-35.885 1.195-32.296 1.196-62.2 5.981-93.3 16.747-27.512 5.98-56.22 19.138-82.535 33.492-25.12 13.158-49.043 29.904-71.77 49.042-33.492 28.708-62.2 61.005-84.927 99.282-31.1 46.65-52.63 98.085-63.396 153.108-4.785 22.727-5.981 45.454-7.177 68.18 0 5.982-1.196 10.766-1.196 17.943 0 7.177-2.393 11.962-10.766 13.158-4.785 1.196-8.373-1.196-13.158-8.373zM79.55 657.088c9.57 35.885 23.923 69.377 44.258 99.281 23.923 41.866 55.023 77.75 90.908 108.85 23.923 19.14 46.65 37.082 72.966 49.043 35.884 20.335 72.965 35.885 111.242 43.062 27.512 7.177 53.827 11.961 80.143 11.961 21.53 1.197 45.454 0 66.985-1.196 29.904-2.392 58.612-10.765 87.32-17.942 32.296-10.766 64.592-25.12 93.3-43.062 14.354-8.373 26.315-16.746 40.669-26.315-9.57-4.785-17.942-8.373-26.315-11.962-2.393-1.196-4.785-2.392-8.374 0-4.784 3.589-9.569 5.98-13.157 8.373-35.885 16.746-71.77 29.904-110.047 35.885-33.492 8.373-66.985 13.158-100.477 13.158-19.139 0-38.277 0-56.22-2.393-23.923-2.392-45.454-5.98-68.18-10.765-28.708-4.785-55.024-15.55-83.732-26.316-14.354-8.373-29.904-16.746-45.454-25.119-3.588-2.392-4.784-7.177-2.392-10.765 2.392-4.785 7.177-4.785 11.962-2.393 20.334 9.57 38.277 20.335 58.611 28.708 46.65 20.335 95.693 29.904 145.932 31.1 26.315 1.196 53.827 0 80.142-2.392 26.316-3.588 52.631-8.373 78.947-13.158 23.923-5.98 47.846-16.746 70.573-25.12 7.177-2.391 11.962-5.98 20.335-9.568-9.57-7.177-16.747-10.766-23.923-15.55-2.393-1.197-4.785-3.589-7.177-1.197l-70.574 16.747c-33.492 8.373-69.377 10.765-104.066 10.765-19.138 0-40.669 0-61.004-2.392-20.334-2.393-44.257-4.785-65.788-9.57-52.631-10.765-99.281-29.903-144.735-57.415-19.139-11.962-38.277-27.512-57.416-40.67-3.588-2.392-4.785-10.765-1.196-14.353 2.392-3.589 9.57-3.589 13.158 0 27.511 22.727 55.023 39.473 86.123 53.827 26.315 14.354 55.023 25.12 86.123 33.492 43.062 13.158 84.928 19.139 130.382 19.139 16.746 0 35.884-1.196 55.023-1.196 33.492-2.393 65.789-7.177 100.477-17.943 7.177-1.196 13.158-2.392 21.531-4.784-9.57-11.962-17.942-22.727-25.12-33.493-2.392-3.588-4.784-3.588-8.372-2.392-27.512 8.373-57.416 14.354-87.32 14.354-27.512 0-57.416-1.196-84.927-3.589-34.689-1.196-68.181-9.569-101.674-17.942-32.296-10.766-63.396-21.531-92.104-39.473-23.923-16.747-49.042-35.885-72.965-53.827-2.393-2.393-3.589-3.589-3.589-4.785 0-3.589 1.196-8.373 5.98-11.962 2.393 0 7.178 0 10.766 3.589 10.766 7.177 22.727 15.55 33.493 23.923 34.688 26.315 70.573 45.454 111.242 59.808 55.024 17.942 112.44 25.12 171.051 26.315 27.512 1.197 55.023-1.196 82.535-5.98 5.98-3.589 14.354-4.785 22.727-7.177l-13.158-21.531c-1.196-1.196-3.588-4.785-5.98-4.785h-64.593c-19.139-1.196-39.473-2.392-57.416-4.784-23.923-4.785-47.846-11.962-72.965-16.747-27.512-8.373-53.827-19.138-77.75-33.492-29.905-16.746-57.416-37.081-82.536-58.612-1.196-1.196-2.392-2.392-2.392-5.98-1.196-3.59 1.196-7.178 5.98-8.374 3.59-1.196 7.178 1.196 10.766 2.393 4.785 2.392 8.373 4.784 10.766 8.373 25.12 15.55 47.846 34.688 74.162 49.042 35.884 20.335 75.358 32.296 116.027 41.866 38.277 5.98 77.75 8.373 118.42 9.569h19.138c-2.392-11.962-7.177-22.727-10.765-32.296 0-1.197-2.393-3.589-3.589-3.589-26.315-1.196-52.63-9.57-77.75-16.746-52.631-16.746-100.477-41.866-148.324-70.573-38.277-25.12-77.75-43.062-119.616-57.416-26.315-8.373-52.63-16.746-80.142-19.138-33.493-2.393-59.808 10.765-80.143 33.492-20.334 28.708-25.119 59.808-16.746 92.104zm446.167-578.94c0-7.177 4.785-9.57 10.765-9.57h3.589c0-1.196 1.196-1.196 1.196-2.392 4.785 2.392 10.766 2.392 14.354 5.98 3.588 3.59 3.588 8.374 1.196 13.159-1.196 3.588-3.588 5.98-9.57 5.98-3.588 0-8.372 0-13.157-1.196-5.98-1.196-9.57-7.177-8.373-11.961zm10.765 531.094c0 11.961 8.374 19.138 19.139 19.138 11.962 0 19.139-5.98 19.139-17.942 0-8.373-9.57-17.942-19.139-19.139-9.57 0-19.139 10.766-19.139 17.943zm34.69-526.31c0-7.177 4.784-11.961 15.55-10.765 10.765 3.588 26.315 5.98 38.276 9.57 13.158 3.588 28.708 8.372 41.866 13.157 11.961 3.588 13.157 15.55 3.588 22.727-2.392 2.392-5.98 3.588-8.373 2.392-26.315-10.765-55.023-17.942-83.731-22.727-5.98-2.392-8.373-5.98-7.177-14.354zm217.7 550.233c9.57 8.373 19.138 16.746 27.511 25.12 32.297-38.278 56.22-82.536 71.77-130.382 7.177-25.12 13.158-47.846 15.55-72.966 0-9.569 1.196-15.55 2.392-25.119 0-3.588 0-8.373 7.177-7.177 4.785 0 5.981 3.589 5.981 8.373 0 27.512-2.392 52.631-9.57 77.75-9.568 53.828-32.295 100.478-64.592 143.54-4.784 7.176-10.765 14.353-16.746 20.334 4.785 7.177 10.766 13.158 15.55 19.139 4.785-10.766 11.962-21.531 17.943-32.297 17.942-34.688 33.492-70.573 46.65-108.85 1.196-4.785 8.373-7.177 13.157-4.785 5.981 2.393 7.177 5.981 4.785 13.158-7.177 15.55-13.158 32.296-20.335 47.846-14.354 32.297-29.904 62.2-47.846 92.105-4.785 8.373-4.785 9.569 2.392 16.746l28.708-44.258c2.392-4.785 8.373-5.98 11.962-4.785 3.588 3.589 4.784 7.177 1.196 13.158-10.766 15.55-19.139 31.1-29.904 47.846-1.196 0-3.589 3.589-2.392 4.785 2.392 7.177 5.98 13.158 9.569 19.139 46.65-80.143 66.985-163.874 58.612-252.39-5.981-93.3-39.474-177.031-98.085-249.997-1.196 2.393-1.196 3.589-1.196 3.589l2.392 3.588c13.158 29.904 23.923 61.004 32.296 93.3 10.766 38.278 13.158 78.947 10.766 119.616-3.589 32.297-11.962 63.397-27.512 93.3-13.158 20.335-27.512 37.082-45.454 53.828-8.373 4.784-14.354 9.569-22.727 16.746z"/></svg>