<svg width="1000" height="1000" viewBox="0 0 1000 1000" fill="none" xmlns="http://www.w3.org/2000/svg">
<path d="M289 2L87 204H251C273 124 359 17 385 2H289Z" fill="black"/>
<path d="M483 204V2H437C351.4 63.6 302.667 162.333 289 204H483Z" fill="black"/>
<path d="M522 204H718C672.4 95.2 598.333 24 567 2H522V204Z" fill="black"/>
<path d="M756 204H915L711 2H621C685.8 61.2 731 144 756 204Z" fill="black"/>
<path d="M713 1000L915 798L751 798C729 878 643 985 617 1000L713 1000Z" fill="black"/>
<path d="M519 798L519 1000L565 1000C650.6 938.4 699.333 839.667 713 798L519 798Z" fill="black"/>
<path d="M480 798L284 798C329.6 906.8 403.667 978 435 1000L480 1000L480 798Z" fill="black"/>
<path d="M246 798L87 798L291 1000L381 1000C316.2 940.8 271 858 246 798Z" fill="black"/>
<path d="M483.395 584.501C483.395 609.201 479.928 631.517 472.995 651.451C466.062 670.951 456.528 687.634 444.395 701.501C432.262 714.934 417.745 725.334 400.845 732.701C383.945 739.634 365.528 743.101 345.595 743.101C325.228 743.101 306.595 739.634 289.695 732.701C272.795 725.334 258.278 714.934 246.145 701.501C234.012 688.067 224.478 671.601 217.545 652.101C211.045 632.601 207.795 610.717 207.795 586.451C207.795 561.317 211.045 537.917 217.545 516.251C224.478 494.151 233.362 472.701 244.195 451.901L335.195 273.801H420.345L326.745 449.301L327.395 449.951C332.162 445.617 338.228 442.367 345.595 440.201C353.395 438.034 360.762 436.951 367.695 436.951C382.862 436.951 397.378 439.984 411.245 446.051C425.545 451.684 437.895 460.567 448.295 472.701C459.128 484.401 467.578 499.567 473.645 518.201C480.145 536.834 483.395 558.934 483.395 584.501ZM409.295 583.851C409.295 556.984 404.095 534.884 393.695 517.551C383.295 500.217 367.695 491.551 346.895 491.551C336.928 491.551 328.045 493.934 320.245 498.701C312.445 503.467 305.728 510.184 300.095 518.851C294.462 527.084 290.128 536.834 287.095 548.101C284.062 559.367 282.545 571.717 282.545 585.151C282.545 613.317 288.178 636.067 299.445 653.401C310.712 670.301 326.312 678.751 346.245 678.751C366.178 678.751 381.562 670.084 392.395 652.751C403.662 634.984 409.295 612.017 409.295 583.851Z" fill="black"/>
<path d="M606.895 734.001V273.801H685.545V661.851H812.295V734.001H606.895Z" fill="black"/>
</svg>
