<svg xmlns="http://www.w3.org/2000/svg" viewBox="0 0 1000 1000"><path d="M590.752,164.182c-13.488-33.291-32.531-62.823-60.275-86.161-11.773-9.9-24.961-16.908-40.413-19.224-9.5-1.424-18.967-3.136-28.416-4.89a87.793,87.793,0,0,0-30.754,0c-25.647,4.3-48.221,15.429-68.625,31.334-6.229,4.855-12.64,9.489-19.133,13.984-2.408,1.666-5.291,2.645-8.079,4-2.615-5.134-4.255-9.745-7.013-13.542-19.785-27.232-63.518-26.384-82.223,1.753q-15.689,23.6-30.048,48.08c-8.04,13.64-14.641,28.018-17.934,43.7-1.518,7.226-1.865,14.467,1.056,21.29a32.532,32.532,0,0,1,2.294,16.136c-.685,7.519-1.482,15.066-2.9,22.472-9.058,47.218-18.776,94.313-27.343,141.618-7.835,43.259-14.7,86.7-21.6,130.121q-7.431,46.81-13.758,93.793c-3.889,28.6-7.49,57.255-6.8,86.247.247,10.311-.2,20.637-.1,30.953.553,53.3.42,106.615,2.083,159.877.954,30.562,13.941,55.634,41.581,71.533,11.217,6.451,22.755,8.7,35.564,6.008,18.81-3.954,35.041-11.562,46.381-27.972a71.032,71.032,0,0,0,12.864-34.363c1.666-18.466,3.18-36.986,3.644-55.511,1.135-45.367,1.078-90.767,2.576-136.119,1.032-31.237,3.393-62.455,6.036-93.607,2.177-25.656,5.536-51.215,8.617-76.787.684-5.678,1.35-11.6,5.245-16.5a48.9,48.9,0,0,1,6.309-.577c13.017.5,26.036,1,39.041,1.719,26.082,1.451,52.086,1.722,78.131-1.366,36.35-4.31,70.493-14.883,101.546-34.417,29.508-18.564,54.548-41.749,71.425-72.784,14.891-27.38,21.086-57.2,23.866-87.882,2.334-25.767,1.424-51.462-1.563-77.167C608.611,220.4,601.908,191.719,590.752,164.182Zm-93.7,157.367c-.358,5.123-.71,10.259-.726,15.39-.07,22.514-11.855,38.987-27.729,53.061-18.328,16.249-40.555,24.339-64.334,27.842-21.726,3.2-43.65,5.078-65.675,4.513-5.035-.129-10.333.454-15.565-3.234,6.3-17.406,12.251-34.191,18.448-50.883a1015.619,1015.619,0,0,1,57.281-127.726c9.624-17.9,20.693-34.872,35.174-49.331a66.082,66.082,0,0,1,9.443-7.927c8.568-5.82,12.922-5.414,19.632,2.226a75.209,75.209,0,0,1,8.742,12.667c10.737,19.018,17.173,39.628,21.782,60.853C498,279.65,498.514,300.546,497.047,321.549Z"/><path d="M811.267,487.263c-34.076-.685-49.364,19.577-52.331,53.463C756.9,564,786.11,591.609,811.165,591.019c30.659-.722,51.216-26.9,51.748-53.537C861.546,506.055,840.285,487.846,811.267,487.263Z"/></svg>