<svg xmlns="http://www.w3.org/2000/svg" viewBox="0 0 1000 1000"><path d="M5 500.496c0 271.98 220.55 494.507 495.496 494.507 271.98 0 494.507-220.55 494.507-495.496C995.003 227.528 773.464 5 500.496 5 226.54 5 5 225.55 5 500.496zM122.693 617.2V383.792c25.714-11.868 50.44-31.648 76.154-44.505 11.868-6.923 11.868-11.868 11.868-18.791v-77.144c0-13.846 7.912-15.824 13.846-19.78 37.583-25.714 71.21-45.495 108.792-64.286 25.714-14.835 51.428-31.648 77.143-45.494 0 0 3.956-4.946 7.912 0 16.813 7.912 31.648 19.78 42.528 25.714 13.846 7.912 13.846 13.846 13.846 27.692v281.87c0 5.933 5.934 13.846 13.846 19.78 95.934 50.44 185.935 108.791 281.87 160.22 5.933 7.912 10.878 3.956 19.78 0 19.78-8.901 37.582-18.791 57.362-31.648 0 0 6.923-3.957 6.923-13.847V417.42c0-7.912-6.923-13.846-6.923-13.846-19.78-11.868-39.56-22.748-57.363-31.649-6.923-5.934-13.846-5.934-19.78 0-16.813 8.901-30.66 16.814-50.44 25.715-13.846 5.934-19.78 7.912-19.78 21.758 0 14.835-25.714 29.67-45.495 23.736-14.835-4.945-30.659-19.78-25.714-39.56 6.923-19.78 19.78-31.649 39.56-31.649 19.78 5.934 25.715 0 37.583-5.934 19.78-7.912 33.627-18.791 44.506-26.703 5.934-6.923 14.835-11.868 14.835-18.791v-59.341c0-11.868-8.901-11.868-14.835-17.803-44.506-25.714-95.935-50.44-141.43-84.066-11.867-5.934-31.648 0-37.582 13.846-5.934 10.88 0 30.66 12.857 36.594 44.506 25.714 90 51.429 135.495 78.132 11.869 6.923 11.869 12.857 11.869 26.703-5.935 5.935-17.803 5.935-31.649 5.935C662.695 294.78 623.134 275 591.485 255.22c-6.923-5.934-13.846-5.934-19.78-11.869v231.43c-13.846-5.934-16.813-5.934-25.714-11.868-9.89-7.913-13.846-13.847-13.846-19.78V159.285c0-4.945 35.604-31.648 59.34-45.494 5.935-4.946 13.847 1.978 24.726 7.912 58.352 31.648 115.715 62.308 169.121 95.934 10.88 5.934 16.814 11.868 16.814 25.714-5.935 25.715-5.935 51.43 0 77.144 0 6.923 0 11.868 7.912 18.79 25.714 12.858 57.362 32.638 84.066 44.506V617.2c-26.704 14.835-52.418 30.66-84.066 45.494-7.912 4.946-13.847 10.88-13.847 16.814 2.967 28.681 2.967 49.45 5.935 79.12 0 6.924-2.968 11.869-11.869 16.814-39.56 19.78-76.154 45.495-109.78 65.275-25.715 12.857-51.429 32.638-76.154 46.484-6.923 5.934-6.923 1.978-12.858 0-13.846-7.912-25.714-14.835-45.494-26.704-5.934-6.923-13.846-12.857-13.846-25.714V550.936c0-11.868 0-11.868-5.934-19.78-95.935-56.374-192.858-107.803-289.782-159.232-3.956-2.967-11.868-5.934-17.802 0-13.846 5.934-33.626 19.78-53.407 31.649-5.934 3.956-11.868 5.934-11.868 13.846v166.154c0 6.923 5.934 9.89 11.868 13.847 19.78 12.857 37.583 17.802 53.407 31.648 8.901 7.912 11.868 3.956 17.802 0 19.78-8.901 39.56-18.791 50.44-25.714 13.846-5.934 19.78-12.858 26.703-25.715 6.924-19.78 26.704-26.703 39.561-19.78 40.55 13.846 31.648 71.209-6.923 71.209-19.78-5.934-32.638 0-45.495 7.912-13.846 5.934-24.725 16.813-44.505 25.714-5.934 1.979-5.934 10.88-5.934 16.814v59.34c0 5.935 0 11.869 11.868 19.78 44.505 25.715 90.989 50.44 142.418 82.09 5.934 0 30.66-5.935 39.56-12.858 5.934-12.857 0-32.638-13.846-37.583-45.495-25.714-90-51.428-134.506-77.143-14.835-7.912-19.78-13.846-14.835-25.714 5.934-13.846 19.78-13.846 32.637-7.912 26.704 19.78 52.418 33.626 79.122 51.428 17.802 7.913 31.648 13.847 51.428 27.693V525.22c5.934 0 10.88 5.935 24.726 13.847 5.934 5.934 5.934 5.934 5.934 18.791v282.858c0 6.923 0 12.857-5.934 12.857-18.792 13.846-31.649 22.748-53.407 35.605l-16.813-9.89c-58.352-38.572-117.693-70.22-174.067-103.847-9.89-4.945-13.846-4.945-13.846-16.813v-79.121c0-5.934-5.934-11.868-11.868-16.814-25.715-14.835-50.44-33.626-76.154-45.494zm127.583-309.562c5.934 0 11.868 0 19.78-6.923 50.44-31.648 102.857-57.363 154.286-90.99 10.88-5.933 19.78-11.867 19.78-31.648 0-10.879-25.714-24.725-39.56-18.79-51.429 24.725-97.913 58.351-148.352 84.065 0 0-5.934 5.935-5.934 11.869zm19.78 39.56c56.374 30.66 114.725 62.309 174.066 95.935v-199.78C378.847 275 326.43 307.637 270.056 347.198zm301.65 473.739c0 13.846 19.78 26.703 32.637 19.78 50.44-25.714 101.868-56.374 146.374-82.088 21.758-13.846 23.736-26.704 14.835-71.21-8.901 5.935-8.901 5.935-19.78 11.869-51.429 25.714-102.858 59.34-161.21 90.99-12.857 4.944-12.857 10.878-12.857 30.659zm0-62.308c57.362-39.56 116.703-71.21 174.066-104.836-57.363-30.66-116.704-63.297-174.067-95.934z"/></svg>