<svg xmlns="http://www.w3.org/2000/svg" width="1000" height="1000">
  <path d="M5 500.496C5 225.55 226.54 5 500.496 5c272.968 0 494.507 222.528 494.507 494.507 0 274.946-222.528 495.496-494.507 495.496C225.55 995.003 5 772.475 5 500.496zm139.451 212.638c119.67 71.21 242.309 142.418 361.98 209.671 100.879-53.407 200.77-109.78 296.704-168.132 22.747-13.846 47.472-26.704 72.198-41.539V290.825C752.695 218.627 633.024 147.418 506.43 79.176c-119.67 68.242-242.308 139.451-361.979 211.65zM275.99 440.166c-16.813 61.32-9.89 129.561 28.681 170.11 43.517 42.528 86.045 29.671 113.737-38.57 0-4.946 0-7.913 3.956-13.847h-3.956c-10.88 8.901-12.857 48.462-45.495 61.319-61.319 28.681-89.011-120.66-63.297-188.902 11.869-36.593 36.594-60.33 63.297-43.516 17.803 8.9 21.759 21.758 34.616 49.45h2.967v-66.264c-7.912 2.967-15.824 8.901-22.747 14.835-6.924-9.89-41.54-18.79-68.242-5.934-23.737 13.847-38.572 36.594-43.517 61.32zm146.374 183.957H576.65v-52.418l-4.945-4.945c-4.945 14.835-7.912 21.758-12.857 33.627h-97.912c6.923-11.869 14.835-13.847 22.747-21.759 22.747-20.769 52.418-50.44 68.242-78.132 10.88-18.791 19.78-37.582 19.78-60.33 0-41.538-42.527-76.154-85.055-70.22-41.539 5.934-61.319 41.539-49.45 84.066 2.966 19.78 23.736 28.682 40.549 23.737 0-8.901 0-18.791-1.978-26.704-14.835 0-35.605-5.934-35.605-25.714 0-23.736 23.737-42.528 46.484-46.484 19.78-5.934 39.56 7.912 49.45 32.638 7.913 24.725 1.979 51.429-6.922 77.143-13.847 31.648-37.583 60.33-65.275 83.077-14.836 16.813-26.704 32.638-41.539 52.418zM605.332 425.33c-28.682 104.836 16.813 250.22 96.923 198.792 35.605-22.747 49.45-75.165 49.45-127.583 0-122.638-106.813-182.968-146.373-71.209zm22.747 57.363c0-63.297 29.67-138.462 66.264-90 18.791 35.604 23.736 57.362 23.736 107.802 0 74.176-26.703 159.231-65.275 109.78-21.758-24.725-24.725-66.263-24.725-127.582z" style="fill:#000;fill-opacity:1;fill-rule:nonzero;stroke:none;"/>
</svg>
