<svg xmlns="http://www.w3.org/2000/svg" viewBox="0 0 1000 1000"><path d="M329.334 378.197V46.781c0-14.163-8.497-35.408-26.91-35.408H37.575c-15.579 0-28.325 12.747-28.325 26.91-5.666 307.34-5.666 610.43 0 917.768 0 7.082 19.828 32.575 32.575 32.575H281.18c39.657 0 48.154-12.747 48.154-48.154 0-87.811-14.163-175.622 67.983-243.605 19.829-12.747 21.245-8.498 32.575 7.081 55.236 80.73 109.056 168.541 162.876 259.185 12.747 18.412 35.407 25.493 48.154 25.493H995c-38.24-56.652-240.772-388.068-327.167-531.115-11.33-11.33-7.081-31.16 0-43.906 41.073-63.734 87.811-116.137 127.468-171.373 63.734-75.065 123.219-150.13 191.202-230.859H648.004c-19.829 0-41.073 12.747-55.236 26.91-46.738 53.82-87.811 116.138-135.966 175.622-39.656 49.571-80.73 104.807-127.468 164.292z"/></svg>