<svg xmlns="http://www.w3.org/2000/svg" viewBox="0 0 1000 1000"><path d="M500,0C223.858,0,0,223.858,0,500s223.858,500,500,500,500-223.858,500-500S776.142,0,500,0Zm302.262,178.713c31.431,.183,56.883,25.861,56.722,57.224-.163,31.87-25.793,57.068-57.903,56.925-30.818-.137-56.093-26.159-55.898-57.549,.195-31.334,25.859-56.783,57.079-56.601Zm-251.989,24.338c48.061,7.576,91.776,25.864,130.905,54.804,39.197,28.991,69.503,65.466,90.955,108.926-6.425,5.744-12.636,11.312-18.879,16.844-.398,.353-1.034,.577-1.574,.608-17.695,1.021-32.356,8.801-44.846,20.805-6.048,5.813-11.288,12.467-16.88,18.753-.619,.696-1.144,1.476-1.989,2.577-.748-4.36-1.366-8.267-2.094-12.154-7.483-39.965-24.204-75.681-50.065-106.978-38.368-46.431-87.464-75.308-146.219-87.838-24.053-5.13-48.421-6.605-72.967-4.687-2.572,.201-5.145,.392-7.734,.379,46.14-15.535,93.31-19.616,141.388-12.038ZM206.504,531.395c-1.972-18.192-2.301-36.429-.911-54.676,1.813-23.803,6.189-47.141,13.804-69.774,25.777-76.607,73.925-134.544,145.259-172.832,5.067-2.72,11.169-3.682,16.901-4.964,23.805-5.326,47.937-7.185,72.238-5.291,65.795,5.128,121.794,31.163,166.668,79.829,30.668,33.26,49.696,72.471,57.18,117.163,.913,5.454,1.396,10.981,2.022,16.481,.088,.77,.077,1.692-.265,2.346-2.183,4.179-4.472,8.303-6.815,12.608-14.936-52.557-46.107-91.581-95.475-114.997-41.004-19.448-83.647-21.988-126.882-8.321-87.323,27.604-138.536,118.93-116.91,207.846,7.554,31.058,22.381,58.176,44.649,81.12,22.214,22.888,48.767,38.603,79.554,46.944,30.841,8.356,61.739,8.09,92.726,.126-4.366,2.018-8.697,4.115-13.103,6.042-19.448,8.507-39.67,14.448-60.621,17.803-18.653,2.987-37.445,3.943-56.297,2.673-52.039-3.507-98.898-20.87-139.942-53.207-32.061-25.26-56.19-56.702-71.672-94.554-1.546-3.78-1.659-8.205-2.11-12.366Zm562.683,104.472c-1.904,6.237-4.988,11.764-8.567,17.129-5.12,7.675-9.76,15.689-15.165,23.153-36.112,49.871-83.38,84.948-141.202,105.916-16.981,6.158-34.593,9.759-52.327,12.824-13.037,2.253-26.171,3.669-39.403,4.194-15.031,.596-30-.218-44.903-2.055-28.53-3.516-56.143-10.683-82.352-22.517-85.231-38.487-141.24-102.761-168.609-192.102-.206-.673-.324-1.374-.533-2.28,4.102,6,7.853,11.933,12.039,17.542,36.079,48.335,83.551,79.823,141.725,95.258,27.139,7.2,54.813,9.644,82.814,7.896,32.542-2.031,63.605-9.96,93.308-23.504,13.603-6.203,27.167-12.455,39.097-21.511,9.103-6.91,17.655-14.56,26.306-22.049,10.177-8.808,20.172-17.855,28.279-28.678,4.637-6.19,9.16-12.534,13.037-19.213,13.396-23.075,38.337-35.263,63.46-31.986,27.124,3.538,48.251,22.862,54.324,48.776,2.634,11.242,2.026,22.213-1.329,33.207Zm6.148-64.42c-.239,4.585-.541,9.166-.852,14.371-23.537-47.668-86.693-55.822-121.211-16.772,.258-2.487,.41-4.47,.676-6.437,3.488-25.848,8.559-51.369,15.875-76.422,6.477-22.18,16.144-42.761,30.661-60.891,6.965-8.698,14.776-16.502,24.173-22.608,33.476-21.752,79.054-3.244,87.916,35.79,4.021,17.715,.648,33.986-10.283,48.596-11.918,15.928-19.417,33.825-23.839,53.127-2.359,10.296-2.57,20.782-3.115,31.247Zm95.986-113.152c-7.041,3.12-13.583,7.455-20.125,11.596-15.668,9.918-31.049,20.26-45.1,32.435-1.891,1.638-3.654,3.423-5.476,5.141-.162-.127-.325-.255-.487-.382,2.947-4.502,5.58-9.251,8.889-13.468,31.374-39.975,9.089-99.658-42.184-108.535-.267-.046-.523-.155-1.256-.379,3.12-2.639,5.905-5.117,8.817-7.436,16.283-12.963,34.114-23.051,54.271-28.636,12.276-3.401,24.662-4.479,37.128-.74,23.46,7.037,40.186,28.372,41.382,52.856,1.225,25.078-12.944,47.393-35.86,57.548Z"/></svg>
