<svg xmlns="http://www.w3.org/2000/svg" viewBox="0 0 1000 1000"><path d="M576.23 313.88c18.513 0 34.155 6.435 47.025 19.305 12.87 12.87 19.305 28.71 19.305 47.52 0 18.81-6.435 34.65-19.305 47.52-12.87 12.87-28.71 19.305-47.52 19.305-18.81 0-34.65-6.435-47.52-19.305-12.87-12.87-19.305-28.71-19.305-47.52 0-18.81 6.435-34.65 19.305-47.52 12.87-12.87 28.908-19.305 48.015-19.305zM5 500c0-89.793 22.473-172.953 67.32-249.48 44.253-74.547 103.653-133.947 178.2-178.2C327.047 27.473 410.207 5 500 5c89.793 0 173.25 22.473 250.47 67.32 74.547 44.253 133.65 103.653 177.21 178.2C972.527 327.047 995 410.207 995 500c0 89.793-22.473 173.25-67.32 250.47-43.56 74.547-102.663 133.65-177.21 177.21C673.25 972.527 589.793 995 500 995c-48.213 0-95.337-6.633-141.57-19.8-44.253-13.167-85.833-32.373-124.74-57.42l55.44-77.22c1.287-2.673 1.782-5.247 1.485-7.92-.297-2.673-1.683-4.653-3.96-5.94-2.277-1.287-4.752-1.782-7.425-1.485-2.673.297-4.653 1.485-5.94 3.465l-54.45 75.24-.99 2.97a1574.598 1574.598 0 0 0-20.79-14.85l68.31-97.02c2.673-3.267 3.168-6.633 1.485-9.9-1.683-3.267-4.455-5.148-8.415-5.445-3.96-.297-6.93 1.188-8.91 4.455l-68.31 95.04c-54.747-46.233-97.713-101.673-128.7-166.32C20.84 645.53 5 574.547 5 500zm217.8 19.8c21.087-5.94 41.58-8.613 61.38-7.92 12.573 0 26.433 2.277 41.58 6.93l18.81 5.94c-4.653 7.227-6.633 16.137-5.94 26.73.693 5.94 8.217 14.85 22.77 26.73l-5.94 7.92c-14.553 21.087-25.443 42.372-32.67 63.855-7.227 21.483-10.098 40.392-8.415 56.925 1.683 16.533 7.722 28.512 18.315 36.135 10.593 7.623 23.958 9.405 40.095 5.445 16.137-3.96 33.165-12.87 50.985-26.73 17.82-13.86 33.957-31.383 48.51-52.47l3.96-5.94c13.167 7.92 22.77 11.682 28.71 11.385 5.94-.297 12.573-3.465 19.8-9.405l8.91-7.92 16.83 21.78c11.88 16.533 19.305 28.908 22.275 37.125 2.97 8.217 5.742 19.602 8.415 34.155l1.98 20.79c5.94-7.227 12.177-16.533 18.81-27.72 13.167-23.76 22.077-48.213 26.73-73.26 3.267-17.82 3.663-35.64.99-53.46-1.98-12.573-5.247-24.453-9.9-35.64l-6.93-13.86 61.38-75.24c39.6-46.827 59.4-98.01 59.4-153.45 0-19.8-1.98-40.59-5.94-62.37-2.673-16.533-6.237-32.67-10.89-48.51l-5.94-18.81h-24.75c-19.8.693-39.303 2.97-58.41 6.93-26.433 5.94-50.193 14.553-71.28 25.74-29.007 15.84-53.757 34.947-74.25 57.42-11.187 12.573-22.473 28.413-33.66 47.52l-42.57 72.27c-9.9 0-21.78.99-35.64 2.97-27.72 3.96-51.48 11.583-71.28 22.77-13.86 7.92-27.423 18.117-40.59 30.69-9.9 9.207-18.81 19.503-26.73 30.69zm130.68 135.135c2.673-20.097 11.583-40.392 26.73-60.885l82.17 59.4-.99.99c-14.553 20.493-30.987 34.848-49.5 43.065-18.513 8.217-33.462 8.217-45.045 0-11.583-8.217-16.038-22.473-13.365-42.57z"
    style="fill:#000;fill-opacity:1;fill-rule:nonzero;stroke:n"/></svg>