<svg xmlns="http://www.w3.org/2000/svg" viewBox="0 0 1000 1000"><path d="M723.292 624.75c61.52 33.037 116.203 64.936 172.026 95.696 26.203 15.95 35.317 30.76 35.317 58.101 5.696 52.406 9.114 97.975-2.279 216.457-63.798-36.456-119.62-64.937-172.026-100.254-29.62-18.228-51.266-18.228-80.886 0-48.988 31.9-103.672 63.798-154.938 94.558-9.114 5.696-25.063 5.696-34.177 0-133.292-76.33-266.583-151.52-397.596-232.406-7.975-3.418-18.228-17.09-20.507-26.203-4.557-15.95-4.557-34.177-4.557-48.988 0-124.177 4.557-252.912 0-375.95 0-38.735 10.253-64.937 47.849-85.444 123.038-66.076 243.798-136.71 366.836-208.482 17.089-9.113 33.038-9.113 51.266 0 127.596 75.19 251.773 148.102 378.23 219.875 20.506 11.392 28.48 26.202 28.48 46.709-2.278 63.797 0 126.456-2.278 194.81 0 11.393-9.114 28.482-23.924 37.596-47.848 30.76-95.696 59.24-142.405 86.582-13.671 5.697-26.203 13.671-44.431 27.342zm-429.495-33.04c0 11.393 7.974 26.203 17.088 33.038L486.33 734.117c5.696 2.278 15.95 5.696 22.785 2.278 56.962-33.038 113.924-67.215 172.026-100.253 21.646-11.393 30.76-27.342 30.76-50.127v-87.722c0-33.038 3.417-62.658 0-95.697-3.418-12.531-12.532-29.62-25.064-38.734-54.684-33.038-112.785-67.215-166.33-96.836-9.114-5.696-28.48-5.696-36.455-3.417-58.102 33.038-116.203 63.797-170.887 100.253-11.393 5.696-19.367 22.785-19.367 35.317-3.418 63.797-3.418 127.595 0 192.532z"/></svg>