<?xml version="1.0" encoding="utf-8"?>
<!-- Generator: Adobe Illustrator 26.0.1, SVG Export Plug-In . SVG Version: 6.00 Build 0)  -->
<svg version="1.1" id="Layer_1" xmlns="http://www.w3.org/2000/svg" xmlns:xlink="http://www.w3.org/1999/xlink" x="0px" y="0px"
	 viewBox="0 0 1000 1000" style="enable-background:new 0 0 1000 1000;" xml:space="preserve">
<style type="text/css">
	.st0{fill-rule:evenodd;clip-rule:evenodd;}
</style>
<path class="st0" d="M385.9,7.6h-94.7L91.8,206.9h161.8C275.3,128,360.2,22.4,385.9,7.6z M908.8,206.9L707.5,7.6h-88.8
	C682.7,66,727.3,147.7,752,206.9H908.8z M91.8,793.1l201.3,199.3h88.8C318,934,273.4,852.3,248.7,793.1H91.8z M565.4,7.6H521v199.3
	h193.4C669.5,99.6,596.4,29.3,565.4,7.6z M482.6,206.9V7.6h-45.4c-84.5,60.8-132.6,158.2-146,199.3L482.6,206.9L482.6,206.9z
	 M518.1,793.1v199.3h45.4c84.5-60.8,132.6-158.2,146-199.3H518.1z M435.2,992.4h44.4V793.1H286.2
	C331.2,900.4,404.3,970.7,435.2,992.4z M614.8,992.4h94.7l199.3-199.3H747C725.3,872,640.4,977.6,614.8,992.4z M321,688.4
	c-11.5-2.3-22.3-6.7-32.3-13c-10-6.3-18.5-14.4-25.3-24c-6.8-9.7-11.6-20.3-14.3-31.8c-2.7-11.5-4-23.1-4-34.8V319.8h61.6v264.9
	c0,6.7,0.9,13.3,2.8,19.8c1.8,6.5,5.1,12.4,9.8,17.5c4.7,5.2,10.3,8.9,16.8,11c6.5,2.2,13.1,3.3,19.8,3.3c6.7,0,13.3-1.1,19.8-3.3
	c6.5-2.2,12.1-5.8,16.8-11c4.7-5.2,7.9-11,9.8-17.5c1.8-6.5,2.8-13.1,2.8-19.8V319.8h61.6v264.9c0,11.7-1.3,23.3-4,34.8
	c-2.7,11.5-7.4,22.1-14.3,31.8c-6.8,9.7-15.3,17.7-25.3,24c-10,6.3-20.8,10.7-32.3,13c-11.5,2.3-23.1,3.5-34.8,3.5
	C344.1,691.9,332.5,690.7,321,688.4z M613.7,503.6L521,319.8h65.6l57.6,120.7l58.1-120.7h65.1l-92.7,183.8l92.7,184.3h-65.1
	l-58.1-120.7l-57.6,120.7H521L613.7,503.6z"/>
</svg>
