<svg xmlns="http://www.w3.org/2000/svg" viewBox="0 0 1000 1000"><path d="M500.496 5c272.968 0 494.507 221.54 494.507 495.002 0 270.495-218.572 495.001-495.001 495.001C229.506 995.003 5 776.431 5 500.002 5 229.506 223.572 5 500.496 5zM130.605 423.353c0 19.78 0 19.78 38.571 19.78h46.484v287.803c0 35.605 63.297 38.572 63.297 0V482.694c0-39.56 0-39.56 32.637-39.56h83.078c26.703 0 26.703 0 26.703-25.715 0-26.703 0-26.703-26.703-26.703h-90c-19.781.989-25.715-6.924-25.715-24.726 0-63.297 25.714-96.923 97.912-96.923 22.748 0 44.506 4.945 71.21 10.879 5.933 1.978 8.9-8.901 9.89-15.824 5.934-27.693 2.967-25.715-30.66-33.627-110.77-28.681-201.759 5.934-211.649 120.66v39.56h-46.484c-38.571 0-38.571 0-38.571 32.638zm379.781 320.44c7.912-1.977 19.78-7.911 26.704-17.802-64.286-84.066-64.286-175.055 0-258.132-11.868-8.901-18.792-13.847-26.704-18.792-89.011 71.21-83.077 238.353 0 294.727zm53.407-44.505c25.714 7.912 37.583 11.868 45.495 7.912 8.9-3.956 14.835-13.846 23.736-31.648 8.901-16.814 13.846-24.726 26.703-48.462 10.88 22.747 17.803 33.626 25.715 48.462 8.901 16.813 13.846 24.725 20.77 27.692 9.89 3.956 20.768 1.978 41.538-3.956-10.88-17.802-24.726-42.528-37.583-62.308-15.824-28.681-15.824-47.473 0-76.154 13.846-22.747 26.704-49.45 37.583-72.198-23.737-2.967-31.649-1.978-35.605 0-9.89 4.945-14.835 12.857-26.703 31.648-7.912 13.847-15.824 26.704-25.715 44.506-11.868-18.791-17.802-29.67-26.703-44.506-8.901-16.813-14.835-24.725-20.77-31.648-4.944-5.934-24.725 0-48.46 4.945 17.801 26.703 30.659 51.429 45.494 78.132 9.89 21.758 9.89 27.693 0 51.429-14.835 26.703-27.693 50.44-45.495 76.154zm211.65 26.703c5.933 4.945 15.823 12.858 26.703 17.803 95.934-83.078 78.132-243.298 0-294.727-6.924 4.945-20.77 12.858-26.704 18.792 71.21 92.967 65.275 174.066 0 258.132z"/></svg>