<svg xmlns="http://www.w3.org/2000/svg" width="1000" height="1000">
  <path d="M338.602 776.377H319.36c-16.035-35.279-35.278-60.936-62.005-97.284-44.9 42.762-80.18 88.732-122.942 133.632-28.864-19.243-45.969-26.726-71.626-44.9 97.284-9.622 114.389-88.732 159.29-143.254 9.62 0 9.62-16.036 9.62-25.657-26.726-36.348-9.62-62.006 35.28-71.627 7.483 0 17.105-9.622 36.348-17.105-19.243-18.174-28.865-35.279-45.97-44.9-60.936-52.384-116.527-116.528-142.185-194.569-17.105-36.348-39.555-44.9-81.248-44.9-37.417 0-37.417-12.83-6.414-43.832 35.279-35.279 87.662-36.348 132.563-26.726 31.003 4.276 44.9 24.588 44.9 60.936 0 62.005 26.727 89.8 98.354 106.906 42.762 9.621 78.04 0 113.32-44.9 19.243-26.727 36.348-52.384 55.59-79.11 16.037-35.28 35.28-35.28 51.315 9.62 9.622 17.106 19.244 33.141 26.727 52.384 19.243 25.658 35.279 25.658 54.522 0l9.621-9.621c35.28-62.005 87.663-52.384 124.011 0 25.658 44.9 60.936 81.248 80.18 126.149 26.726 35.279 36.347 68.42 42.762 104.767 19.243 54.522 36.348 99.423 71.627 135.77 54.522 35.28 44.9 87.664 54.522 132.564 0 25.657 0 52.384 7.483 87.663h-71.627c64.144-97.285-7.483-184.947-133.632-229.848l28.864 78.041c0 19.244-9.621 35.28-19.243 54.522-25.657 35.28-52.383 71.627-80.179 97.285-36.348 26.726-52.384 0-79.11-9.622 26.726-16.036 52.384-35.279 71.627-42.762 52.384-54.522 52.384-54.522 26.726-132.563-19.243-28.865-26.726-54.522-26.726-81.249 0-35.279-19.243-44.9-44.9-54.522-106.907-7.483-213.812 19.243-311.097 54.522-62.005 17.105-62.005 71.627-26.726 124.011 17.105 19.243 9.621 54.522 9.621 80.18z" style="fill:#000;fill-opacity:1;fill-rule:nonzero;stroke:none;"/>
</svg>
