<svg xmlns="http://www.w3.org/2000/svg" viewBox="0 0 1000 1000"><path d="M737.709 867.319c2.117-26.47 6.353-40.236 21.176-48.706 123.883-102.707 176.824-279.53 131.295-433.06-48.706-163.06-189.53-275.296-360.002-293.296C356.531 80.61 186.06 186.493 118.295 349.552c-69.883 168.354-11.648 363.178 127.059 469.06 10.588 11.648 16.941 25.413 14.823 43.413H51.588v-47.648c0-18-5.294-25.411-21.176-25.411C14.529 788.966 5 799.554 5 814.377v94.236h302.825v-48.706c0-43.412-5.294-52.941-27.53-75.177-95.294-74.118-141.883-168.353-141.883-286.942 0-149.295 95.295-283.766 235.06-335.648 145.06-54 307.06-10.589 403.413 108 131.295 160.942 108 393.884-57.177 518.826-11.647 12.705-24.353 24.353-29.647 36v83.647h304.943v-94.236c0-4.235-3.177-25.411-22.236-25.411-13.765 0-24.353 10.588-25.412 25.411v52.942zM221 586.729c-29.647 60.354-3.177 108 66.706 114.354 32.824 5.294 66.706 0 97.412-6.353 6.353 12.706 12.706 23.294 19.059 34.941 10.588 19.06 18 41.294 32.824 59.295 36 52.94 90 52.94 124.941 0 16.941-22.236 28.589-45.53 41.294-69.883 4.236-16.941 10.589-23.294 33.883-18 16.941 3.176 34.941 5.294 49.765 5.294 36 0 72-5.294 96.353-40.235 25.412-36 3.177-67.765-10.588-96.354-10.588-21.176-24.353-37.059-36-55.059-2.118-3.176-5.294-6.353-9.53-10.588 9.53-15.882 22.236-31.765 30.706-45.53 5.294-8.47 12.706-21.176 20.118-30.706 49.765-63.53 5.294-130.235-78.353-130.235-26.47 0-56.118 5.294-86.824 10.588-9.53-28.588-22.235-57.177-40.236-81.53-41.294-73.059-99.53-70.941-140.824 0-16.94 20.118-32.823 51.883-46.588 80.471-26.47-4.235-60.353-9.53-92.118-9.53-76.236 5.295-108 60.354-69.883 122.825 15.883 26.47 30.706 56.117 47.648 77.294-2.118 5.294-4.236 8.47-7.412 12.706-15.883 22.235-31.765 47.647-42.353 76.235zm20.118 26.471c10.588-23.294 25.411-43.412 38.117-65.647 5.294-9.53 9.53-16.941 14.824-25.412 10.588 9.53 20.118 15.882 28.588 23.294 10.588 8.47 22.236 15.883 30.706 24.353 5.294 2.118 14.824 20.118 20.118 43.412 10.588 52.942 9.53 54-46.588 56.118-5.295 0-11.648 0-15.883 1.059-8.47 0-19.059 2.118-33.882-1.059-30.706-6.353-47.648-30.706-36-56.118zm4.235-219.177c-16.941-31.765-1.059-55.06 38.118-61.412 21.176-3.177 44.47-1.059 65.647 0h30.706c0 73.059-11.647 92.118-79.412 148.236-23.294-27.53-44.47-52.942-55.06-86.824zm76.235 105.883c11.647-8.471 24.353-20.118 41.295-31.765v64.588c-7.412-5.294-14.824-10.588-21.177-15.882-6.353-5.294-13.765-10.588-20.118-16.941zm69.883-2.118c0-21.177 0-47.647 12.706-58.236 38.118-31.764 70.941-48.706 91.06-48.706 33.882 0 82.588 26.471 101.647 48.706 7.411 9.53 13.764 32.824 13.764 58.236-2.117 27.53 0 56.118-13.764 65.647-30.706 21.177-62.471 50.824-94.236 50.824-33.883 0-73.06-27.53-98.471-50.824-11.647-10.588-12.706-43.412-12.706-65.647zm9.53 105.883c22.235 11.647 40.235 22.235 61.411 33.882-20.117 5.294-36 10.588-51.882 18-1.059-18-4.235-33.882-9.53-51.882zm0-205.413c5.294-16.941 8.47-32.823 9.529-50.823 15.882 8.47 33.882 12.705 51.882 19.058-11.647 5.295-20.117 9.53-29.647 14.824-10.588 6.353-22.235 10.588-31.765 16.941zm7.411 99.53c0 55.059 40.236 94.236 94.236 94.236 49.765 5.294 94.236-37.06 94.236-94.236 0-49.765-44.471-95.294-94.236-95.294-51.883 0-94.236 45.53-94.236 95.294zm9.53 193.765c59.294-41.294 110.118-41.294 164.118 0-12.706 27.53-28.588 60.354-43.412 86.824-22.235 26.47-52.941 26.47-72 0-13.765-19.059-24.353-40.235-34.942-59.294-5.294-9.53-8.47-18-13.764-27.53zm21.176-187.412c0-36 23.294-63.53 63.53-68.824 31.765 0 62.47 31.765 62.47 62.471 0 34.941-27.529 64.588-62.47 64.588-34.941 4.236-63.53-23.294-63.53-58.235zm0-241.413c14.824-26.47 27.53-52.941 63.53-59.294 31.765 0 45.53 32.824 58.235 59.294 5.295 12.706 9.53 24.353 12.706 34.942 4.236 6.353 5.294 10.588 8.47 16.94-15.881 6.354-28.587 10.59-42.352 15.883-10.588 2.118-21.177 6.353-33.883 9.53-6.353 2.117-15.882-1.06-27.53-4.236-4.234-3.176-10.587-3.176-13.764-5.294-50.824-16.94-50.824-15.882-25.412-67.765zm100.589 374.825c18-12.706 37.059-25.412 59.294-36-2.117 7.412-2.117 14.824-3.176 23.294-2.118 10.589-4.236 22.236-6.353 31.765-18-8.47-32.824-13.765-49.765-19.059zm0-271.06c16.941-6.353 31.765-10.588 49.765-20.117 2.117 9.53 4.235 21.176 6.353 29.647 2.117 8.47 1.059 14.823 2.117 22.235-21.176-10.588-40.235-21.176-58.235-31.765zm75.177 302.825c10.588-96.353 11.647-98.47 80.47-146.118 32.824 25.412 50.824 54 62.471 90 10.589 30.706-5.294 56.118-34.941 56.118-23.294 4.235-43.412 3.177-67.765 1.059-12.706 0-25.412-1.059-40.235-1.059zm5.294-336.707h33.882c25.412-1.059 47.647-2.118 73.06 0 27.529 6.353 37.058 23.294 30.705 52.941-8.47 41.295-31.765 64.589-58.235 91.06-57.177-37.06-58.236-42.354-79.412-144.001zm16.94 203.295v-68.824c5.295 5.294 11.648 10.588 16.942 13.765 9.53 5.294 13.765 13.765 22.236 19.059-12.706 12.706-24.353 22.235-39.177 36z"/></svg>