<svg xmlns="http://www.w3.org/2000/svg" width="1000" height="1000">
  <path d="M500.496 5c272.968 0 494.507 221.54 494.507 495.002 0 270.495-218.572 495.001-495.001 495.001C229.506 995.003 5 776.431 5 500.002 5 229.506 223.572 5 500.496 5zm-241.32 496.485c0 21.758 7.913 31.649 27.693 31.649h70.22c33.627 0 44.506 6.923 44.506 45.494v181.979c-6.923 45.495 33.626 57.363 61.319 80.11.989-22.747.989-29.67.989-34.615v-231.43c0-34.615 0-41.538 38.571-41.538h138.462c19.78 0 31.649-3.956 31.649-31.649 0-23.736-11.869-34.615-39.56-34.615h-130.55c-38.572 0-38.572 0-38.572-40.55v-94.945c0-39.56 6.923-46.484 38.571-46.484h209.671c22.748 0 35.605-4.945 35.605-28.681 0-27.693-12.857-38.572-40.55-38.572H440.166c-38.571 0-38.571 4.945-38.571 44.506v160.22c0 38.572-10.88 44.506-44.506 44.506h-70.22c-27.692 0-27.692 17.802-27.692 34.615z" style="fill:#000;fill-opacity:1;fill-rule:nonzero;stroke:none;"/>
</svg>
