<svg xmlns="http://www.w3.org/2000/svg" viewBox="0 0 1000 1000"><path d="M5 500.496c0 89.011 22.747 172.089 67.253 249.232 44.506 74.176 103.846 133.517 178.023 178.022 77.143 44.506 160.22 67.253 250.22 67.253 89.011 0 172.089-22.747 249.232-67.253 74.176-44.505 133.517-103.846 178.022-178.022 44.506-77.143 67.253-160.22 67.253-250.22 0-89.012-22.747-172.09-67.253-249.232-44.505-74.177-103.846-133.517-178.022-178.023C672.585 27.747 589.508 5 500.496 5c-90 0-173.077 22.747-250.22 67.253-74.177 44.506-133.517 103.846-178.023 178.023C27.747 327.419 5 410.496 5 500.496zm142.418 50.44c-8.901-36.594-1.978-77.143 21.758-105.825 17.803-18.79 37.583-30.66 62.308-38.571 13.846-3.956 13.846 7.912-.989 13.846-45.494 17.802-71.209 70.22-57.363 118.682 11.869 36.593 46.484 56.374 88.023 51.428 16.813-1.978 35.604-7.912 53.406-18.79 32.638-19.781 64.286-41.54 93.957-69.232-3.956-1.978-49.45-52.418-64.286-69.23-4.945-3.957-6.923-6.924 0-13.847 1.978-2.967 7.912-2.967 11.868.989 23.736 24.725 28.681 30.66 65.275 70.22 18.791-18.791 104.836-90.99 133.517-110.77 68.242-47.472 131.539-63.297 214.616-42.527 157.253 49.45 151.32 243.297-15.824 286.814-98.902 25.714-195.825-8.901-294.726-74.176-2.967-1.978-24.726-19.78-25.715-20.77-8.9 7.913-53.407 41.54-76.154 54.396-35.604 25.715-75.165 38.572-114.726 37.583-45.494-.99-83.077-28.682-94.945-70.22zm114.726-157.253c0-17.803 12.857-29.67 28.681-29.67 17.802 0 31.649 12.856 31.649 31.648 0 15.824-13.847 28.681-31.649 28.681-15.824 0-28.681-13.846-28.681-30.66zm187.912 120.66c1.978.988 32.638 22.747 34.616 24.725 68.242 44.505 136.484 66.264 207.693 64.286 33.626-1.978 65.275-9.89 93.956-27.693 55.385-38.571 67.253-112.747 27.693-161.21-48.462-59.34-135.495-61.318-213.627-18.79-36.594 19.78-86.045 60.33-150.33 118.681z"/></svg>