<svg xmlns="http://www.w3.org/2000/svg" viewBox="0 0 1000 1000"><path d="M500.496 5c272.968 0 494.507 221.54 494.507 495.002 0 270.495-218.572 495.001-495.001 495.001C229.506 995.003 5 776.431 5 500.002 5 229.506 223.572 5 500.496 5zm-291.76 747.695c0 9.89 0 9.89 10.88 7.912 42.528-7.912 86.044-15.824 128.572-24.725 64.286-10.88 129.56-22.748 192.858-35.605 3.956 0 6.923-1.978 8.9-3.956v-.989c-1.977 0-4.944-1.978-6.922-1.978-34.616-6.923-69.231-12.857-104.836-19.78-15.824-2.967-30.66-8.901-46.483-4.945-38.572 8.9-76.155 14.835-115.715 22.747-9.89 1.978-9.89 1.978-9.89-7.912V310.605h5.934c35.604 6.923 71.209 14.836 107.802 20.77 9.89 1.978 21.759 3.956 31.649 1.978 43.517-5.934 87.033-14.835 131.539-22.748 2.967 0 4.945-1.978 6.923-2.967v-3.956c-1.978 0-4.945-.989-6.923-.989-9.89-1.978-17.802-3.956-27.693-4.945-46.483-8.9-92.967-16.813-138.462-26.703-53.406-9.89-104.835-19.78-157.253-29.67-10.88-1.979-10.88-1.979-10.88 9.89zm195.826-133.517c0 12.857 0 12.857 11.868 15.824 27.692 4.945 54.396 9.89 82.088 14.835 46.484 8.901 93.957 18.792 140.44 27.693 57.363 10.879 113.737 20.769 171.1 32.637 9.89.99 11.868.99 11.868-9.89V303.682c0-10.879-1.978-10.879-11.868-9.89-5.934 1.978-13.847 3.956-20.77 4.945-60.33 9.89-118.681 21.759-177.033 32.638-42.528 6.923-86.044 14.835-128.572 23.736-24.725 4.945-47.473 9.89-72.198 14.835-4.945 0-6.923 3.956-6.923 8.901v9.89z"/></svg>