<svg xmlns="http://www.w3.org/2000/svg" viewBox="0 0 1000 1000"><path d="M994.998 498.746c0 259.733-209.544 493.116-494.372 493.116C224.581 991.862 8.765 773.536 5 498.746 5 227.72 227.091 8.138 499.372 8.138c277.3 0 493.116 223.346 495.626 490.608zM42.643 479.924c0 13.803 2.51 18.822 18.821 13.803 1.255 0 7.529-6.274 11.293-10.038 22.585-36.388 42.661-71.521 63.992-109.164 3.764-8.783 12.547-11.292 20.076-11.292h74.03c10.038 0 16.312 2.51 20.076 12.547 10.038 37.643 22.586 71.52 33.878 107.909 6.274 16.311 6.274 16.311 22.586 12.547 7.528 0 17.566-2.51 25.095-5.019 27.604-10.038 52.7-11.293 76.54 7.529 7.528 5.019 13.802 1.254 17.566-2.51 12.548-16.312 26.35-32.623 38.897-50.19 3.765-10.038 11.293-10.038 18.822-3.764 18.82 7.528 40.152 17.566 60.228 23.84 6.273 3.764 10.038 3.764 15.057 0 7.528-1.255 11.292-6.274 17.566-8.783-6.274-3.764-10.038-7.529-17.566-10.038-60.228-27.605-97.87-75.285-99.126-141.787-10.038-111.673 86.578-195.74 198.25-175.665 84.069 13.802 144.297 97.87 134.259 181.939-3.764 17.566-10.038 33.878-15.057 51.445-1.255 6.273-1.255 11.292 5.019 11.292 10.038 0 13.802 1.255 20.076 11.293 10.038 16.312 26.35 30.114 33.878 46.426 12.548 21.33 26.35 31.369 47.68 21.33 10.039-3.764 17.567 0 22.586 10.039 11.293 12.547 27.605 27.604 37.643 40.152 2.51 2.51 8.783 2.51 10.038 6.273 0-3.764 3.764-10.038 3.764-11.292v-17.567C947.317 237.758 746.557 45.781 490.588 45.781c-55.209 0-115.437 6.274-175.665 35.133-165.627 79.05-259.733 210.798-272.28 399.01zm2.51 63.993c3.764 22.585 6.273 47.68 13.802 71.52 0 6.274 3.764 7.529 10.038 7.529 11.292 1.255 13.802 0 20.076-11.293 13.802-43.916 27.604-84.068 43.916-127.984 0-2.51 1.254-7.529 3.764-17.567 3.764 10.038 7.529 13.802 7.529 17.567 8.783 33.878 22.585 67.756 31.368 105.399 3.764 2.509 7.529 5.019 10.038 11.292 0-2.51 5.02-8.783 5.02-11.292l18.82-55.21c3.765-6.273 3.765-12.547 10.038-23.84 1.255 6.274 1.255 7.529 5.02 13.803 12.547 31.368 22.585 61.482 30.113 97.87 6.274 10.038 13.803 12.548 22.586 12.548 41.407 5.019 81.559 11.292 119.201 20.076 20.076 3.764 36.388 13.802 53.954 25.094 22.586 12.548 26.35 38.898 10.038 62.738-10.038 10.038-25.095 21.33-33.878 33.878-15.057 6.274-27.604 16.312-37.642 27.605-6.274 3.764-11.293 10.038-17.567 16.311 7.529 3.765 13.802 10.038 23.84 10.038 47.68 11.293 95.361 17.567 141.787 30.114 56.464 11.293 114.182 20.076 168.137 40.152 5.019 1.255 13.802 0 16.311-2.51 37.643-21.33 71.521-43.915 101.635-74.03 63.992-67.756 107.908-148.06 127.984-239.656 2.51-12.548 0-17.567-10.038-26.35-10.038-13.802-23.84-25.095-33.878-40.152-12.547-21.33-30.114-30.114-56.464-18.821-7.528 0-13.802-2.51-17.566-7.529-16.312-21.33-30.114-41.407-43.916-60.228-16.312-22.585-16.312-25.095-42.662-5.019 0 3.764 0 3.764-1.254 3.764-6.274 2.51-8.784 2.51-16.312-3.764-7.529-12.547-16.312-20.076-23.84-32.623-2.51-7.529-10.038-7.529-13.803-1.255-15.057 20.076-32.623 37.642-48.935 53.954 0 0 0 1.255-3.764 3.764 20.076-2.51 32.623-10.038 43.916-20.076 2.51-3.764 5.019-13.802 10.038-3.764 12.548 13.802 26.35 20.076 43.916 27.605 32.624 11.292 58.974 33.878 63.993 70.266 2.509 6.273 6.273 13.802 11.292 16.311 7.529 7.529 17.567 10.038 22.586 11.293 28.859 12.548 50.19 32.624 60.228 60.228 7.528 26.35 2.51 43.916-23.84 56.464-10.039 5.019-25.096 7.528-36.388 11.292-22.586 6.274-31.369 16.312-31.369 38.898v40.152c-2.51 15.057-7.528 22.585-20.076 22.585-10.038 0-20.076-7.528-20.076-22.585v-42.662c0-13.802-3.764-25.095-16.312-30.114-7.528-6.274-17.566-6.274-25.095-10.038-12.547-2.51-12.547-2.51-12.547 12.548 0 20.076-3.764 37.642 0 55.209 0 20.076-10.038 36.387-26.35 38.897-7.528 7.528-17.566 10.038-25.095 13.802-36.388 7.529-69.011 3.764-102.89 1.255-13.802 0-27.604-5.019-41.406-7.529-30.114-10.038-43.916-33.878-28.86-65.247 11.293-25.095 32.624-45.17 60.229-52.699 8.783-6.274 18.82-10.038 26.35-13.802 10.037-3.765 16.311-18.821 22.585-18.821 7.528 0 15.057 15.056 25.095 18.82 12.547 7.53 26.35 13.803 40.152 17.567 10.038 7.529 12.547 7.529 12.547-7.528v-45.171c0-25.095-12.547-37.643-36.387-45.171-13.803-3.764-26.35-6.274-37.643-11.293-20.076-11.293-26.35-26.35-20.076-48.935v-13.802h-6.274c-7.528 2.51-16.311 10.038-20.076 6.273-21.33-6.273-37.642-11.292-55.209-18.82-11.292-7.53-12.547-3.765-22.585 2.509-27.605 36.387-56.464 72.775-84.068 110.418-17.567 20.076-11.293 20.076-36.388 1.254-7.529-5.019-7.529-7.528 0-16.311 10.038-15.057 25.095-31.37 36.388-45.171 3.764-3.765 7.528-10.038 0-11.293-10.038-8.783-17.567-15.057-30.114-8.783-26.35 6.273-51.445 10.038-81.559 20.076-12.548 3.764-12.548 3.764-18.821-11.293-7.529-33.878-17.567-66.502-27.605-100.38-13.802-40.152-3.764-32.624-47.68-32.624-12.548-2.51-20.076 2.51-26.35 12.548-20.076 35.133-40.152 69.011-57.718 105.399-6.274 10.038-13.803 15.057-22.586 15.057-10.038-2.51-15.057 0-25.095 0-5.019 0-6.274 1.255-6.274 11.293zM79.03 675.665c20.076 46.426 40.152 87.833 74.03 121.711 134.258 143.041 292.356 190.722 481.824 138.022 7.528 0 16.311-3.764 23.84-7.528v-3.764c-5.02-2.51-10.038-2.51-13.802-6.274-74.03-12.548-145.551-30.114-218.327-42.662-25.095-7.528-47.68-11.292-67.756-21.33-26.35-7.529-33.879-33.879-17.567-57.719 3.764-3.764 7.529-10.038 13.802-13.802 12.548-12.548 30.114-23.84 43.917-38.897 12.547-3.765 20.076-13.803 30.114-21.331 3.764-6.274 3.764-12.548-2.51-16.312-10.038-3.764-17.566-13.802-27.604-13.802-38.898-6.274-74.03-12.548-114.183-20.076-10.038 0-10.038 1.255-13.802 7.528-10.038 22.586-30.114 26.35-50.19 26.35-17.566 2.51-37.642-3.764-52.7-20.076 0-6.274 0-10.038-1.254-13.802-3.764-3.764-7.529-6.274-10.038-6.274-22.585-3.764-43.916-3.764-67.756-3.764-16.312 0-16.312 0-10.038 13.802zm50.19-63.992c-6.274 11.293 0 12.548 7.528 12.548 12.547 0 13.802-1.255 8.783-12.548 0-6.274-5.019-13.802-8.783-20.076-2.51 6.274-3.764 13.802-7.529 20.076zm74.03-370.151c0-57.719 43.916-111.673 111.672-111.673 74.03 2.51 114.183 57.719 114.183 114.182 0 61.483-51.445 114.183-114.183 114.183-63.992-2.51-111.672-52.7-111.672-116.692zm6.273 414.067c-1.254 10.038 0 12.548 10.038 12.548 11.293 0 15.057-2.51 11.293-13.802-3.764-5.02-6.274-15.057-10.038-22.586-3.764 7.529-7.528 17.566-11.293 23.84zm28.86-411.558c0 40.152 35.133 74.03 76.54 74.03 43.916 0 77.794-33.878 77.794-76.54 0-40.151-33.878-74.03-77.795-74.03-41.406 0-76.54 33.879-76.54 76.54zM520.702 732.13c-7.528 11.293-3.764 20.076 8.784 23.84 21.33 2.51 40.152 3.764 58.973 7.529 22.585-3.765 42.661-3.765 62.737-7.529s23.84-12.547 10.038-30.114c-2.51-1.255-3.764-3.764-7.528-7.528-28.86-26.35-79.05-27.605-112.928-5.02-6.273 5.02-13.802 11.293-20.076 18.822zm3.765-520.721c-58.974 76.54-21.331 188.212 72.775 208.288 11.293 3.765 17.567 0 23.84-7.528 23.84-26.35 50.19-52.7 71.521-76.54 10.038-10.038 16.312-10.038 20.076 0 2.51 6.274 8.783 12.548 13.802 22.586 6.274 5.019 10.038 1.254 12.548-2.51 3.764-3.764 3.764-7.528 6.274-10.038 33.878-87.832-26.35-179.43-126.73-179.43-33.878 0-67.757 13.803-94.106 45.172zm94.106 304.904c-10.038 11.293-7.529 17.567 6.274 21.33 20.076 2.51 43.916 6.275 62.737 10.039 15.057-3.764 25.095-3.764 37.643-3.764 3.764 0 11.292-3.765 20.076-3.765 21.33-6.273 23.84-12.547 7.528-33.878 0-2.51-3.764-2.51-3.764-6.274-23.84-18.82-50.19-23.84-80.304-18.82-20.076 2.509-41.407 15.056-50.19 35.132zm94.106 99.125c-7.528 8.784-3.764 18.822 8.783 22.586 23.84 1.255 41.407 3.764 63.992 7.528 11.293 0 23.84-3.764 33.879-3.764 7.528 0 13.802-2.51 17.566-2.51 26.35-5.018 30.114-15.056 12.548-33.878-3.765-5.019-6.274-7.528-12.548-11.292-25.095-20.076-75.285-22.586-104.144 0-7.528 6.273-13.802 11.292-20.076 21.33z"/></svg>