<svg xmlns="http://www.w3.org/2000/svg" width="1000" height="1000">
  <path d="M152.024 987.306V38.342C152.024 5 166.131 5 213.58 5c58.99 0 73.096 0 73.096 33.342v923.317c0 33.342-6.412 26.93-48.731 26.93-24.365 0-61.554-1.283-85.92-1.283zm175.687-351.373V374.327c0-28.213 16.67-28.213 66.684-28.213 48.73 0 65.402 6.412 65.402 28.213v61.554c83.355 17.954 157.733-41.036 173.121-112.85 24.366-93.614-15.388-183.38-105.155-201.334-43.601-8.977-114.132-8.977-161.58-8.977-30.778 0-30.778-16.67-30.778-48.73 0-32.06-7.694-58.99 20.518-58.99 76.943 0 188.51 1.282 262.89 19.236 101.308 23.083 156.45 115.414 156.45 214.158 8.977 133.368-60.272 238.523-183.38 273.148 75.66 41.036 107.72 101.308 133.367 166.71 32.06 92.331 80.79 203.899 120.544 285.972C853.49 975.765 841.947 995 793.216 995c-60.272 0-78.225-7.695-84.637-19.236-41.036-84.637-91.05-221.853-132.085-303.925-25.648-58.99-60.273-83.355-116.697-110.285v82.072c0 21.801-16.671 21.801-65.402 21.801-50.013 0-66.684 1.282-66.684-29.495z" style="fill:#000;fill-opacity:1;fill-rule:nonzero;stroke:none;"/>
</svg>
