<svg xmlns="http://www.w3.org/2000/svg" viewBox="0 0 1000 1000"><path d="M5 500.496c0 89.011 22.747 172.089 67.253 249.232 44.506 74.176 103.846 133.517 178.023 178.022 77.143 44.506 160.22 67.253 250.22 67.253 89.011 0 172.089-22.747 249.232-67.253 74.176-44.505 133.517-103.846 178.022-178.022 44.506-77.143 67.253-160.22 67.253-250.22 0-89.012-22.747-172.09-67.253-249.232-44.505-74.177-103.846-133.517-178.022-178.023C672.585 27.747 589.508 5 500.496 5c-90 0-173.077 22.747-250.22 67.253-74.177 44.506-133.517 103.846-178.023 178.023C27.747 327.419 5 410.496 5 500.496zm151.32-99.89c-14.836-8.901-14.836-15.825 0-15.825h192.857c43.517-2.967 80.11-7.912 124.616-21.758 88.022-30.66 178.022-67.253 265.056-103.846 14.835-5.934 21.758-6.923 28.681-6.923 0 0 11.868-.99 9.89 6.923-60.33 51.428-125.605 103.846-178.022 148.352 21.758 80.11 35.604 154.286 59.34 227.473-59.34 22.747-88.022 6.923-125.604-29.67-22.748-29.67-51.43-66.264-88.023-89.012-15.824-9.89-44.505 0-60.33 9.89-27.692 12.858-52.417 6.924-74.176-9.89-51.428-43.516-102.857-80.11-154.286-115.714zm125.604 411.43c0-22.748 1.978-31.649 5.934-44.506 15.824-58.352 37.583-116.704 61.319-176.045 7.912-21.758 21.758-36.593 43.517-52.417 20.769-12.857 41.538-14.836 68.242 9.89 31.648 29.67 47.472 64.286 87.033 92.967 24.725 15.824 43.516 18.791 65.275 18.791 45.494 0 67.253 2.968 74.176 48.462 8.901 29.67 14.835 58.352 22.747 95.935-9.89 0-17.802-7.913-29.67-15.825-50.44-34.615-109.78-72.198-162.199-116.703-15.824-11.869-29.67-14.836-51.428 0-44.506 36.593-95.935 73.187-146.374 110.77-9.89 5.933-23.737 13.845-38.572 28.68zm140.44-457.914c22.747-72.198 44.506-138.462 66.264-205.715 7.912-14.835 9.89-12.857 15.824 0 16.813 45.495 34.616 95.934 50.44 139.451 6.923 22.747-1.978 27.692-15.824 30.66-34.616 13.846-72.198 28.68-109.78 44.505-8.902 3.956-11.869.99-6.924-8.901zm198.792 59.34c0-5.933 30.66-28.68 37.582-28.68h190.88c11.868 0 16.813 6.923 7.912 15.824-68.242 43.516-133.517 87.033-205.715 138.462-9.89-44.506-21.758-81.1-30.66-125.605z"/></svg>