<svg xmlns="http://www.w3.org/2000/svg" viewBox="0 0 1000 1000"><path d="M499.169,0C223.027.459-.458,224.688,0,500.831S224.688,1000.458,500.831,1000,1000.458,775.312,1000,499.169,775.312-.458,499.169,0ZM268.31,660.656c-90.859-28.314-144.882-124.291-119.662-214.128,14.357-51.143,45.625-89.008,93.737-112.408,48.327-23.5,96.775-22.714,148.1,4.96-3.9-23.132-6.82-40.425-10.393-61.6l53.4-10.637c11.32,55.385,22.007,107.677,33.539,164.1L302.538,453.308c-3.326-18.956-6.126-34.915-9.365-53.372l61.854-11.211c-28.5-33.082-100.7-9.812-131.324,29.546-39.486,50.738-32.128,124.752,17.641,166.639,57.725,48.582,121.615,35.1,189.424-41.135h59.684C455.611,636.735,356,687.983,268.31,660.656Zm7.544-135.607V472.923H724.028v52.126Zm563.045,46c-34.469,69.142-111.324,108.073-187.665,95.038-8.161-1.394-16.3-2.925-30.027-5.4,6.027,19.766,10.776,35.339,17.022,55.821l-47.882,16.654c-4.124-7.359-7.588-11.924-9.423-17.07-15.886-44.556-31.479-89.216-48.963-138.979l159.462-46.248c5.3,19.109,9.628,34.727,14.634,52.786l-60.033,18.712c40.542,24.155,102.6,4.367,134.654-42.25,35.852-52.147,25.329-120.439-24.795-160.918-57.87-46.732-118.9-29.884-196.274,55.41H499.535C570.464,298.415,712.5,281.911,803.148,366.747,859.654,419.63,873.159,502.319,838.9,571.045Z"/></svg>