<svg xmlns="http://www.w3.org/2000/svg" width="1000" height="1000">
  <path d="M5 768.023V502.995c0-21.034 1.402-42.068 21.034-61.7 144.434-136.02 272.04-263.626 402.45-403.852C463.542 3.788 498.599 2.386 549.08 17.81c63.102 25.24 124.802 50.482 185.1 72.918 85.538 29.447 158.456 51.884 225.764 79.929C983.783 181.876 995 202.91 995 225.346v277.65c0 18.229-11.218 39.263-22.436 51.883-120.595 109.377-368.796 370.198-401.048 401.048-50.482 49.08-72.918 39.264-123.4 19.632-81.331-29.448-154.249-53.286-227.167-81.332-63.102-22.436-124.802-40.665-185.099-72.917C17.62 808.69 5 790.46 5 768.023zm61.7-277.648c28.045 11.218 37.861 19.631 63.102 30.85 113.583 43.47 227.167 82.733 326.728 124.801 35.057 9.816 53.286 0 72.918-18.23 30.85-32.251 53.286-54.688 82.733-85.537C717.351 441.295 808.5 347.344 910.864 243.576c11.218-11.218 11.218-18.23-11.218-29.448-33.654-14.022-312.705-105.17-380.014-130.41-22.436-11.219-23.839-5.61-40.666 11.218-124.802 123.4-248.201 242.592-370.198 356.175zm249.603-99.561c121.997-67.309 287.465 30.85 175.284 100.963-127.607 67.309-295.879-50.482-175.284-100.963zM521.034 202.91c105.17-32.252 245.397 46.275 164.065 102.366-168.272 99.56-319.716-49.08-164.065-102.366z" style="fill:#000;fill-opacity:1;fill-rule:nonzero;stroke:none;"/>
</svg>
