<svg xmlns="http://www.w3.org/2000/svg" viewBox="0 0 1000 1000"><path d="M500.496 5C223.572 5 5 229.506 5 500.002c0 276.43 224.506 495.001 495.002 495.001 276.43 0 495.001-224.506 495.001-495.001C995.003 226.539 773.464 5 500.496 5zM190.935 235.44c2.967-29.67 22.747-53.406 55.384-53.406 28.682 0 52.418 23.736 52.418 53.406 0 27.693-26.703 50.44-52.418 50.44-28.68 0-55.384-22.747-55.384-50.44zm2.967 528.134c0-28.681 23.736-52.418 52.417-52.418 28.682 0 52.418 23.737 52.418 52.418s-21.758 52.418-52.418 52.418c-28.68 0-52.417-23.737-52.417-52.418zm4.945-361.98c10.879-28.68 26.703-54.395 42.527-81.098.99-10.88 6.924-10.88 15.825-1.978 17.802 20.769 38.571 39.56 56.373 60.33 8.902 4.944 8.902 6.922 2.968 15.824-39.561 70.22-39.561 140.44 0 211.649 5.934 7.912 5.934 12.857-2.968 17.802-17.802 18.791-38.571 39.56-56.373 57.363-8.901 7.912-10.88 5.934-15.825-1.978-59.34-73.187-78.132-197.803-42.527-277.913zm90.99 303.628c2.966-4.945 8.9-7.912 13.845-12.857 3.956 4.945 12.858 7.912 12.858 12.857 0 5.934-8.902 10.88-9.89 14.835h-5.935c-1.978-3.956-10.879-8.9-10.879-14.835zm0-410.44c0-4.946 8.9-9.891 10.878-15.825h6.923c3.956 5.934 8.902 10.88 8.902 15.824-2.968 5.934-9.89 12.857-12.858 12.857-4.945 0-13.846-6.923-13.846-12.857zm26.703 468.792c7.912-4.945 10.879-10.88 14.835-15.824 15.824-18.792 34.615-34.616 53.406-52.418 4.946-5.934 9.89-7.912 16.814-2.967 72.198 42.528 142.418 38.571 213.627 0 3.956-2.967 9.89-2.967 12.857 0 23.736 20.77 47.473 44.506 70.22 67.253-4.945 5.934-6.923 7.912-12.857 13.846-129.561 87.033-225.495 67.253-368.902-9.89zm7.912-91.978c2.967-5.934 6.923-10.88 12.857-12.858 4.945 0 9.89 4.945 15.824 10.88v3.956c-5.934 2.967-10.88 7.912-15.824 10.879-7.912 0-12.857-4.945-12.857-12.857zm0-342.2c2.967-5.933 10.879-10.878 12.857-13.846 4.945 0 9.89 7.913 15.824 9.89v5.935c-5.934 4.945-10.88 10.879-15.824 10.879-7.912 0-14.835-5.934-12.857-12.857zm2.967-79.12c-8.901-10.88-4.945-12.858 1.978-19.78 106.813-74.177 237.363-78.133 340.22-10.88 6.924 4.945 17.803 11.868 28.682 17.802-2.967 4.945-4.945 7.912-6.923 9.89-19.78 21.759-39.56 38.572-61.319 60.33-4.945 4.945-7.912 4.945-14.835 1.978-71.21-38.571-141.43-38.571-213.627 0-6.923 2.967-11.868 2.967-16.814-1.978-18.79-21.758-37.582-38.571-57.362-57.362zm33.626 387.693c0-5.934 4.945-13.846 9.89-13.846 5.934 0 13.846 7.912 13.846 13.846 0 1.978-5.934 9.89-7.912 15.824h-7.912c-2.967-5.934-10.879-10.879-7.912-15.824zm0-275.935c-2.967-3.956 4.945-9.89 7.912-14.835 1.978 0 4.945 0 7.912 2.967 1.978 1.978 7.912 9.89 7.912 11.868 0 5.934-7.912 10.88-13.846 13.846-1.978-2.967-9.89-7.912-9.89-13.846zm33.627 241.32c0-3.956 5.934-9.89 6.923-14.836h9.89c.989 4.945 6.923 10.88 6.923 14.836 2.967 7.912-5.934 12.857-12.857 12.857-4.945-1.978-10.88-7.912-10.88-12.857zm0-206.704c0-1.978 5.934-10.88 10.879-10.88 6.923-1.978 15.824 3.957 12.857 10.88 0 4.945-5.934 9.89-6.923 15.824h-9.89c-.99-5.934-6.923-10.88-6.923-15.824zm34.615 173.077c0-4.945 6.923-13.846 10.88-13.846 4.944 0 10.878 4.945 14.835 8.901v6.923c-3.957 3.956-9.89 10.88-12.858 7.912-5.934 0-12.857-3.956-12.857-9.89zm0-139.45c0-1.979 6.923-9.891 12.857-9.891 4.945 0 9.89 4.945 12.858 9.89v5.934c-3.957 1.978-9.89 7.912-14.836 7.912-3.956 0-10.879-7.912-10.879-13.846zm33.627 104.835c0-4.945 4.945-9.89 7.912-15.825h7.912c2.967 5.934 10.879 10.88 7.912 15.825 0 5.934-7.912 7.912-12.857 13.846-2.967-5.934-10.88-10.88-10.88-13.846zm0-70.22c0-2.967 4.945-8.902 7.912-12.858h7.912c2.967 3.956 10.879 9.89 7.912 12.858 0 5.934-7.912 10.879-10.88 14.835-4.944-3.956-12.856-8.901-12.856-14.835zm34.615 36.593c0-5.934 7.912-12.857 12.857-12.857 1.978 0 10.88 6.923 10.88 10.88 1.977 3.955-5.935 9.89-8.902 14.834h-5.934c-4.945-2.967-8.9-7.912-8.9-12.857zm33.627 33.627c1.978-4.945 7.912-12.858 12.857-12.858 2.967 0 10.879 4.946 15.824 7.913v7.912c-4.945 2.967-10.88 10.879-15.824 7.912-4.945 0-10.88-7.912-12.857-10.88zm0-70.22c0-2.967 7.912-9.89 12.857-9.89 2.967 0 10.879 6.923 10.879 11.868 1.978 3.956-5.934 8.9-7.912 12.857h-5.934c-4.945-3.956-9.89-8.901-9.89-14.835zm33.626 104.835c5.934-4.945 6.923-13.846 12.857-13.846 4.945 0 10.88 4.945 16.814 10.88v4.944c-5.935 3.956-11.869 10.88-16.814 7.912-5.934 0-9.89-7.912-12.857-9.89zm0-136.484c2.967-4.945 6.923-12.857 12.857-12.857 4.945 0 10.88 4.945 16.814 7.912v7.912c-5.935 1.978-11.869 7.912-16.814 7.912-5.934 0-9.89-7.912-12.857-10.879zm34.616 170.11c1.978-3.955 6.923-12.857 11.868-12.857 5.934 0 13.846 8.902 13.846 12.858 0 4.945-7.912 10.879-9.89 15.824h-4.945c-5.934-4.945-10.88-12.857-10.88-15.824zm0-206.703c0-6.923 4.945-12.858 11.868-10.88 5.934 0 10.879 4.946 13.846 10.88 0 4.945-5.934 9.89-9.89 15.824h-4.945c-3.956-5.934-10.88-10.88-10.88-15.824zm33.626 241.32c0-5.935 7.912-10.88 10.88-15.825h4.944c4.945 4.945 10.88 9.89 10.88 15.824 0 4.945-7.913 11.868-13.847 9.89-4.945 0-12.857-7.912-12.857-9.89zm0-275.936c2.967-3.956 7.912-9.89 12.857-9.89 5.934 0 13.846 7.912 13.846 9.89 0 5.934-7.912 10.88-10.879 16.813h-4.945c-2.967-5.934-10.879-10.879-10.879-16.813zm34.616-32.637c0-5.934 7.912-10.88 8.9-16.814h5.935c4.945 5.935 10.879 10.88 10.879 16.814 1.978 6.923-5.934 14.835-12.857 12.857-4.945 0-10.88-8.901-12.857-12.857zm1.978 342.199c0-5.934 6.923-12.858 10.879-12.858 4.945 0 12.857 6.924 12.857 12.858 0 4.945-5.934 9.89-10.88 15.824h-5.933c-.99-5.934-8.901-10.88-6.923-15.824zm30.66-65.275c40.549-71.21 40.549-141.43 0-211.65-4.946-8.9-4.946-10.879 0-18.79 21.757-17.803 40.549-36.594 61.318-57.363 3.956-8.902 9.89-8.902 18.791 1.978 62.308 86.044 73.187 202.747 32.638 298.682-9.89 20.77-23.737 39.56-32.638 60.33-3.956 1.978-5.934 4.945-8.9 9.89-5.935-1.978-6.924-4.945-9.891-7.912-18.791-17.802-39.56-38.572-57.363-57.363-8.901-4.945-8.901-9.89-3.956-17.802zm3.955 98.901c-3.956-4.945 4.945-9.89 6.923-15.824h7.912c2.967 5.934 7.912 10.879 7.912 15.824 0 5.934-7.912 13.846-11.868 13.846-3.956 0-10.879-7.912-10.879-13.846zm0-410.44c0-4.946 6.923-8.902 10.88-12.858 3.955 3.956 11.867 7.912 11.867 12.857 0 5.934-4.945 10.88-7.912 14.835h-7.912c-1.978-3.956-10.879-8.9-6.923-14.835zm14.835 468.792c2.967-28.681 26.704-52.418 55.385-52.418 25.715 0 52.418 23.737 52.418 52.418s-23.736 52.418-52.418 52.418c-31.648 0-55.385-23.737-55.385-52.418zm2.967-528.134c0-29.67 23.737-53.406 52.418-53.406 28.682 2.967 52.418 25.714 52.418 55.384 0 28.682-23.736 52.418-52.418 52.418-28.681 0-55.385-26.703-52.418-54.396z"/></svg>