<svg xmlns="http://www.w3.org/2000/svg" width="1000" height="1000">
  <path d="M124.782 499.432C286.946 336.133 452.512 170.567 619.213 5c5.67 3.402 12.474 9.072 19.279 14.742 73.71 74.845 147.422 147.422 219.999 222.268 10.206 9.072 15.876 23.814 15.876 35.154a28895.306 28895.306 0 0 1 0 443.4c0 12.475-3.402 27.217-12.474 35.155-78.247 79.382-155.36 157.629-233.608 235.876-2.268 2.268-5.67 3.402-5.67 3.402-166.7-165.566-334.535-331.133-497.833-495.565zm63.505 4.536c58.969 60.103 120.205 121.34 187.112 185.978C436.637 501.7 497.873 315.721 559.11 135.412c-123.608 121.34-247.215 246.082-370.823 368.556zm249.483 138.35c9.073-6.804 11.34-6.804 13.609-9.072 81.649-81.65 163.298-163.299 243.813-244.948 5.67-4.536 11.34-18.144 9.073-22.68-28.35-83.918-55.567-166.701-81.65-249.484-5.67 1.134-7.938 1.134-10.206 1.134zm9.073 68.04h373.091c-31.752-96.39-63.505-188.246-92.99-278.967-95.257 92.989-185.978 184.844-280.101 278.968zm5.67 48.764c55.567 56.7 112.267 114.535 163.298 167.834L790.45 759.121zm219.999-633.916 70.31 207.525c23.813-23.814 48.762-46.495 69.174-64.639-45.36-46.495-89.587-90.721-139.484-142.886zm97.526 289.174c15.876 44.227 29.484 92.99 44.226 137.216 3.402 9.072 5.67 13.609 9.072 19.279 1.134 0 2.268 0 4.536-1.134V330.463c-3.402-1.134-5.67-1.134-7.938-4.536-12.474 15.876-26.082 31.752-40.824 44.227-15.877 14.742-17.01 26.082-9.072 44.226z" style="fill:#000;fill-opacity:1;fill-rule:nonzero;stroke:none;"/>
</svg>
