<svg xmlns="http://www.w3.org/2000/svg" viewBox="0 0 1000 1000"><path d="M389.469 824.07V180.587c0-76.85 38.999-110.114 112.408-110.114h386.548c41.293 0 75.703 12.617 94.056 51.616 19.5 41.293 16.058 84.88-9.176 123.878-17.206 26.382-43.587 39-74.557 39H677.372c-51.616 0-69.968 10.323-69.968 63.086v455.369c0 83.733-52.764 142.231-127.32 123.879-55.058-13.765-90.615-48.175-90.615-103.233zM9.803 210.41C1.774 167.97-.52 125.53 38.48 94.562c42.44-33.264 81.439-24.087 150.26-24.087 43.587 0 71.116 20.646 90.615 59.645 17.206 34.41 16.059 76.85-8.029 110.114-32.117 44.734-64.233 44.734-126.173 44.734H98.124c-42.44 0-81.439-35.557-88.32-74.556z"/></svg>