<svg xmlns="http://www.w3.org/2000/svg" viewBox="0 0 1000 1000"><path d="M500,0C223.854,0,0,223.854,0,500s223.854,500,500,500,500-223.854,500-500C1000,223.833,776.146,0,500,0ZM350.646,777.6H186.271L384.75,544.479a68.582,68.582,0,0,0,0-88.875L186.271,222.479H350.646V222.4L530.229,433.354a102.916,102.916,0,0,1,0,133.333Zm256.917-.062-92.48-113.084,88.688-22.416A68.708,68.708,0,0,1,663.9,655.479L812.979,777.542Zm56.354-433.084a68.562,68.562,0,0,1-60.125,13.4l-88.709-22.375,92.5-113.083H813.021Z"/></svg>