<svg xmlns="http://www.w3.org/2000/svg" width="1000" height="1000">
  <path d="M500.496 5C223.572 5 5 229.506 5 500.002c0 276.43 224.506 495.001 495.002 495.001 276.43 0 495.001-224.506 495.001-495.001C995.003 226.539 773.464 5 500.496 5zm-279.89 669.563c-46.485-111.759-58.353-253.188 25.713-384.727 50.44-84.066 122.638-127.583 220.55-137.473 95.935-7.912 180.001 13.846 249.232 88.022 13.846 12.858 24.726 27.693 40.55 47.473 6.923 9.89 6.923 16.813-5.934 28.681-72.198 71.21-144.396 143.408-217.583 217.584-42.528 43.516-87.034 88.022-134.506 130.55-17.803 15.824-13.847 18.79 3.956 33.626 80.11 53.407 210.66 34.616 255.165-76.154 20.77-59.341 24.726-117.693 17.803-179.012 0-3.956 0-11.868 2.967-17.802 29.67-33.626 62.308-62.308 98.901-98.901 20.77 43.516 31.649 88.022 36.594 130.55 3.956 77.143-4.945 149.34-36.594 223.517-55.385 108.791-142.418 170.11-266.045 174.066-105.824 2.967-189.89-36.593-253.187-121.648-11.869-15.825-22.748-32.638-5.934-45.495a28698.786 28698.786 0 0 1 347.144-347.144c2.967-6.923 10.879-9.89 13.846-17.802-20.77-24.726-50.44-34.616-80.11-40.55-76.154-13.846-137.473 10.88-178.023 77.143-14.835 28.682-21.758 62.308-25.714 90-3.956 50.44 7.912 114.726-9.89 132.528-26.704 28.682-56.374 54.396-81.1 79.121-3.956 3.957-6.923 7.913-17.802 13.847z" style="fill:#000;fill-opacity:1;fill-rule:nonzero;stroke:none;"/>
</svg>
