<svg xmlns="http://www.w3.org/2000/svg" width="1000" height="1000">
  <path d="M445.033 492.803h110.961c18.494 20.548 32.878 32.877 51.371 53.426-14.384 70.891-5.137 109.933 32.878 132.537 36.987 23.63 76.029 23.63 108.906 0 42.124-22.604 51.371-65.755 38.015-132.537 18.493-20.549 36.987-39.042 56.508-53.426 70.891 14.384 115.07 6.164 137.674-36.987 24.658-43.152 14.384-85.276-18.494-123.29-29.795-28.768-71.92-38.015-114.043-18.494-48.289 27.74-61.645 65.755-43.152 137.674-23.63 22.603-38.014 41.097-52.398 55.48H640.243c-25.686-21.575-25.686-21.575-51.371-51.37 18.493-65.755 8.22-99.66-24.658-127.4-36.987-28.768-85.276-33.905-124.318-5.137-47.261 38.014-42.124 85.275-27.74 128.427-23.63 22.603-38.015 41.097-52.399 55.48H250.851c-18.494-18.493-38.014-32.877-56.508-51.37 18.494-70.892 9.247-108.907-32.877-137.674-43.152-23.631-91.44-18.494-124.318 14.383-32.877 32.878-43.152 76.03-18.494 119.181 22.604 47.261 65.755 55.48 138.702 41.097 18.493 20.548 36.987 39.042 55.48 53.426-14.383 66.782-4.11 103.769 32.878 132.537 39.042 23.63 76.029 23.63 114.043 0 38.015-22.604 47.262-61.646 32.878-132.537 19.52-20.549 38.014-39.042 52.398-53.426z" style="fill:#000;fill-opacity:1;fill-rule:nonzero;stroke:none;"/>
</svg>
