<svg xmlns="http://www.w3.org/2000/svg" width="1000" height="1000">
  <path d="M5 500.002v.395-.395c.099-89.506 22.55-172.682 67.253-249.726 44.209-74.473 103.55-133.814 178.023-178.023C327.419 27.45 410.694 5 500.002 5c89.308 0 172.583 22.45 249.726 67.253C824.2 116.462 883.54 175.803 927.75 250.276c44.803 77.143 67.253 160.418 67.253 249.726 0 89.308-22.45 172.583-67.253 249.726C883.541 824.2 824.2 883.54 749.728 927.75c-77.143 44.803-160.418 67.253-249.726 67.253-89.308 0-172.583-22.45-249.726-67.253-74.473-44.209-133.814-103.55-178.023-178.022C27.55 672.684 5.099 589.508 5 500.002zm198.792-202.254c5.934 20.77 18.791 36.594 34.615 45.495 6.923 3.956 6.923 6.923 2.967 11.868-41.538 75.165-53.406 176.045-31.648 241.32 42.528 128.571 127.583 205.715 260.11 229.45 81.1 14.836 155.276-2.966 223.518-50.439 90-62.308 136.484-142.418 141.429-249.231 3.956-82.089-30.66-168.133-86.044-232.419-81.1-80.11-148.352-95.934-246.265-95.934-41.538 0-104.835 15.824-136.484 36.593-5.934 3.956-15.824 5.934-18.791-3.956-.99-12.857-28.681-28.681-42.528-32.637-20.769-6.923-49.45-2.967-72.198 13.846-30.66 22.747-36.593 58.352-28.681 86.044zm158.242 213.627c0 85.056 72.198 154.287 158.242 152.308 89.012-1.978 150.33-69.23 150.33-156.264 0-90-74.175-153.297-154.286-153.297-84.066 0-154.286 72.198-154.286 157.253z" style="fill:#000;fill-opacity:1;fill-rule:nonzero;stroke:none;"/>
</svg>
