<svg xmlns="http://www.w3.org/2000/svg" viewBox="0 0 1000 1000"><path d="M5 500.002v.395-.395c.099-89.506 22.55-172.682 67.253-249.726 44.209-74.473 103.55-133.814 178.023-178.023C327.419 27.45 410.694 5 500.002 5c89.308 0 172.583 22.45 249.726 67.253C824.2 116.462 883.54 175.803 927.75 250.276c44.803 77.143 67.253 160.418 67.253 249.726 0 89.308-22.45 172.583-67.253 249.726C883.541 824.2 824.2 883.54 749.728 927.75c-77.143 44.803-160.418 67.253-249.726 67.253-89.308 0-172.583-22.45-249.726-67.253-74.473-44.209-133.814-103.55-178.023-178.022C27.55 672.684 5.099 589.508 5 500.002zM192.913 365.99H687.42c21.758 0 26.703 3.956 26.703 23.737v44.505c0 46.484-13.846 60.33-59.34 60.33H436.21c3.956-27.692 8.901-55.385 16.813-87.033h-94.945c-18.791 0-23.736 8.9-28.681 26.703-13.847 67.253-74.176 358.023-78.132 376.815h91.978c23.736 0 28.681-4.945 32.637-27.693 9.89-59.34 23.737-119.67 36.594-180 3.956-16.814 30.66-18.792 55.385-18.792 0-3.956 0 39.56 3.956 43.517 5.934 5.934 30.66 5.934 36.593 2.967 7.912-6.923 12.857-17.802 13.846-27.692.99-8.902 2.968-22.748 7.913-22.748 10.879-1.978 28.681 0 42.527 0v18.792c0 13.846-4.945 27.692 12.857 31.648 23.737 3.956 32.638 0 37.583-27.692 3.956-12.858 9.89-22.748 27.692-22.748 36.594 0 76.154 0 108.792-8.9 51.429-12.858 69.23-44.506 69.23-94.946v-92.968c0-82.088-45.494-103.846-133.516-113.736v-7.912c0-7.912-1.978-27.693-21.758-27.693-33.627 0-35.605 15.825-36.594 41.539h-41.538v-22.747c0-18.792-4.946-23.737-22.748-23.737-13.846 0-27.692 4.945-27.692 23.737 0 22.747-14.835 26.703-32.638 26.703H278.957c-17.802 0-17.802 0-22.747 3.956-22.748 23.736-41.539 49.45-63.297 78.132z"/></svg>