<svg xmlns="http://www.w3.org/2000/svg" viewBox="0 0 1000 1000"><path d="M62.021 734.964v-468.91c0-11.134 2.475-16.083 12.373-21.032 137.332-77.945 274.664-155.89 415.708-236.31 7.423-4.95 12.372-4.95 19.795 0 137.333 77.945 278.376 158.365 415.709 236.31 9.897 4.949 12.372 9.898 12.372 21.033v468.909c0 11.135-4.949 16.084-12.372 21.033-137.333 77.945-274.665 155.89-413.234 233.835-9.898 4.95-14.847 7.424-22.27 2.475-141.044-80.42-278.376-158.365-415.708-236.31-9.898-4.95-12.373-9.898-12.373-21.033zm300.646-30.93c2.475 56.912 47.015 103.926 101.453 106.4 59.387 4.95 111.35-30.93 123.723-87.843 13.61-54.437-17.321-111.35-69.285-132.383-11.135-2.474-13.61-7.423-13.61-16.084V379.88c0-4.95 0-7.424 2.475-14.847h75.47c16.085 0 28.457-11.135 28.457-25.982 2.474-18.558-9.898-32.168-28.456-32.168h-77.945v-48.252c0-3.711 0-6.186 2.474-11.135h98.978c21.033 0 33.405-12.372 33.405-30.93 0-16.084-12.372-25.982-33.405-25.982H483.916c-30.931 0-38.354 9.898-38.354 38.354V571.65c0 11.135-2.475 16.084-13.61 21.033-45.777 18.558-74.233 64.335-69.285 111.35zm51.964-4.95c0-35.88 28.456-61.861 61.861-61.861s61.862 25.982 61.862 61.861c0 33.405-28.457 61.862-61.862 61.862s-61.861-28.457-61.861-61.862z"/></svg>