<svg xmlns="http://www.w3.org/2000/svg" viewBox="0 0 1000 1000"><path d="M901.153 203.312c7.232 0 18.08-9.642 24.106-9.642-6.026-12.053-13.258-25.312-24.106-39.776C815.576 64.701 709.508 14.078 584.156 5.641 380.458-5.207 183.992 122.556 109.263 319.022 30.918 513.077 88.773 749.318 253.9 880.697c196.466 167.539 480.92 147.048 647.253-36.159 19.285-18.08 36.16-31.338 0-44.597-185.618 208.52-474.893 195.26-647.253 31.339C67.077 654.099 63.461 368.44 234.615 184.027 386.485 21.31 684.197-30.518 901.153 203.312zM171.939 488.971c16.875-18.08 31.338-31.338 31.338-42.186 38.57-262.758 342.309-401.369 558.06-243.473 13.258 6.027 30.133 0 43.39 0C696.25 97.245 537.15 71.933 400.95 133.404c-142.227 63.882-237.447 204.903-229.01 355.567zm4.822 24.106C152.654 654.1 273.185 799.941 367.2 857.797c145.842 75.934 324.229 55.444 432.707-62.677-14.464 0-25.312 0-38.57 4.821-224.188 157.896-514.668 20.49-558.06-232.625 0-20.49-14.463-32.543-26.516-54.239zm96.424 78.346c63.882 215.75 333.872 289.274 491.768 133.79 14.463-13.26 40.98-36.16 26.517-50.624-2.411-3.616-12.054-7.232-12.054-7.232-172.36 132.584-308.56 132.584-417.037 10.848-95.22-107.273-89.194-269.99 13.258-374.852 112.094-106.067 257.937-94.014 398.958 34.954 4.821-8.437 16.875-12.053 21.696-12.053-4.822-16.874-16.875-33.749-31.338-45.802-94.015-96.425-238.652-112.094-360.389-38.57-120.53 71.113-175.975 215.75-131.379 349.54z"/></svg>