<svg xmlns="http://www.w3.org/2000/svg" width="1000" height="1000">
  <path d="M500.496 5C223.572 5 5 229.506 5 500.002c0 276.43 224.506 495.001 495.002 495.001 276.43 0 495.001-224.506 495.001-495.001C995.003 226.539 773.464 5 500.496 5zM226.54 787.31c6.923-12.857 12.857-29.67 19.78-47.472 4.946-9.89 7.913-20.77 7.913-30.66 0-109.78 0-218.572 1.978-328.353 0-34.615-1.978-65.275 0-99.89 0-37.583 12.857-65.275 41.538-88.022 20.77-21.759 47.473-36.594 68.242-34.616h126.594c20.77 5.934 27.692 23.737 27.692 48.462 0 50.44 3.957 96.923 3.957 149.341v435.166c0 20.77-12.858 52.418-28.682 52.418H239.396c-16.813-1.978-23.736-31.648-12.857-56.374zm348.133 3.956v-261.1c0-35.604 10.88-46.483 48.462-46.483h157.253c24.726 3.956 34.616 18.791 28.682 40.55-3.956 10.879-7.912 17.802-11.869 23.736-5.934 17.802-9.89 38.571-9.89 54.396-2.967 42.527 0 85.055 0 127.582 0 62.308-41.538 110.77-95.934 113.737h-86.044c-17.803 0-30.66-28.681-30.66-52.418zm0-392.638V208.737c0-26.703 7.912-50.44 30.66-50.44h79.12c52.419 0 95.935 45.495 102.858 94.946 0 45.494 3.956 90 0 134.506 0 24.725-11.868 50.44-42.527 50.44H617.2c-28.682 0-42.528-17.803-42.528-39.561z" style="fill:#000;fill-opacity:1;fill-rule:nonzero;stroke:none;"/>
</svg>
