<svg xmlns="http://www.w3.org/2000/svg" width="1000" height="1000">
  <path d="M498.663 843.3c-169.152 0-311.454-131.562-334.276-294.001-2.685-22.823-1.342-45.645-1.342-67.124 0-13.425 6.712-20.137 17.452-21.48 9.397-1.342 16.11-2.685 24.164-4.027 34.905 0 38.932 2.685 38.932 38.932-2.685 93.973 33.562 167.809 110.083 220.165 98 68.466 228.22 61.754 318.166-20.137 57.727-52.356 87.261-118.137 88.603-193.316 1.343-67.124-22.822-128.877-67.123-178.549-53.7-59.069-119.48-88.603-198.686-87.26-30.877 1.342-30.877-1.343-32.22-32.22 0-46.987 0-46.987 45.644-45.644 84.576 1.342 158.412 30.877 220.166 89.945 71.151 65.782 107.398 147.673 111.425 241.646 2.685 81.89-22.822 158.412-75.178 222.85-57.727 68.467-128.878 112.768-217.48 126.193-14.768 1.342-32.22 2.685-48.33 4.027zM11.345 506.34c-1.342-111.426 30.877-210.769 96.658-300.715C184.524 100.912 287.895 37.816 412.745 12.31c28.192-4.027 56.384-6.712 84.576-6.712 67.123-1.343 134.247 0 201.37 0h220.166c30.877 0 32.22 1.342 32.22 32.22 0 51.013 1.342 48.328-45.644 48.328-131.563 0-261.783 0-393.345-2.685-99.343 0-185.262 29.535-263.125 88.603-84.576 65.782-134.247 153.042-151.7 257.755-4.027 25.507-5.37 52.357-6.712 77.864-1.342 25.507-1.342 26.85-26.85 32.22-6.712 1.342-16.11 1.342-24.164 1.342-25.507-5.37-26.85-8.055-28.192-34.905zm36.247 453.756c0-45.645 0-45.645 45.644-45.645 130.22 0 259.097-1.342 387.975 0 103.37 1.343 194.659-26.85 273.865-91.288 79.205-64.439 127.535-146.33 146.33-247.015 5.37-26.85 5.37-55.041 6.712-84.576 1.342-26.85 8.054-33.562 34.904-33.562 5.37-1.342 12.082 0 18.794 1.343 24.165 4.027 26.85 5.37 26.85 30.877 1.342 135.59-44.302 255.07-138.275 353.07-73.836 75.179-159.754 120.823-261.782 140.96-28.192 5.37-56.384 9.397-84.576 9.397C435.567 995 367.1 995 298.634 995H81.154c-32.22-1.343-33.562-1.343-33.562-34.904zm271.18-402.743c-34.905-114.11 38.931-221.508 143.644-244.33 30.877-8.055 36.247-2.685 37.59 29.535 0 5.37-1.343 12.082 0 18.794 1.342 18.795-4.028 26.85-24.165 30.877-49.672 8.055-75.179 44.302-84.576 91.288-8.055 42.96 14.767 88.604 53.7 111.426 53.698 34.904 128.877 9.397 154.384-48.33 5.37-14.767 9.397-28.191 16.11-46.986h48.328c22.822 1.342 29.535 6.712 22.822 28.192-5.37 21.48-10.74 44.302-20.137 63.096-41.616 73.836-107.398 103.37-191.973 98-64.44-5.37-134.248-63.095-155.727-131.562z" style="fill:#000;fill-opacity:1;fill-rule:nonzero;stroke:none;"/>
</svg>
