<?xml version="1.0" encoding="UTF-8"?><svg id="a" xmlns="http://www.w3.org/2000/svg" viewBox="0 0 1000 1000"><path d="m514.368,148.419l278.497,162.801-277.925,164.902-.572-327.703Zm1.226,702.387l276.998-162.571-277.561-160.034.563,322.606Zm484.405-350.806c0,276.142-223.858,500-500,500S0,776.142,0,500,223.858,0,500,0s500,223.858,500,500Zm-177.781,188.002l.204-376.878L499.868,122.568v-.319l-.273.159-.273-.159v.319s-322.291,188.553-322.291,188.553v377.758l322.837,188.872,1.318-.775v-.319s320.486-188.095,320.486-188.095l.548.308v-.63l.204-.12-.204-.118Z"/></svg>