<svg xmlns="http://www.w3.org/2000/svg" viewBox="0 0 1000 1000"><path d="M5 500.496C5 225.55 226.54 5 500.496 5c272.968 0 494.507 222.528 494.507 494.507 0 274.946-222.528 495.496-494.507 495.496C225.55 995.003 5 772.475 5 500.496zm196.814-235.385c35.604 171.1 71.209 346.155 108.791 511.32H427.31c36.593-168.131 69.23-340.22 105.824-509.341H435.22c-20.77 117.692-40.55 232.418-64.286 350.11-6.923-6.922-8.9-12.856-8.9-19.78-19.781-99.89-36.594-200.77-55.386-300.66-2.967-12.857-13.846-29.67-22.747-29.67-23.736-1.978-52.418-1.978-82.088-1.978zm347.144 411.43c7.912 77.143 66.264 110.77 144.396 100.88 65.275-8.902 101.868-52.419 101.868-132.529h-75.165c-11.868 31.649-13.846 73.187-57.362 64.286-27.693-5.934-41.54-52.418-30.66-117.693h173.078c-4.945-37.582-4.945-71.209-9.89-102.857-11.869-71.21-46.484-107.803-113.737-108.792-69.231-2.967-124.616 31.649-132.528 99.89-7.912 65.276-11.868 133.518 0 196.815zm83.077-141.43c-4.945-55.384 7.912-86.044 38.572-89.01 31.648-1.979 43.516 24.725 43.516 89.01z"/></svg>