<svg xmlns="http://www.w3.org/2000/svg" viewBox="0 0 1000 1000"><path d="M4.7,395.857V428.04c8.317-.361,26.4-1.084,39.777-1.084H217.687V597.634H40.138A381.762,381.762,0,0,1,0,595.464V628.37c9.763-.723,26.036-1.446,40.862-1.446H217.687c-.361,8.679-.361,16.272-.723,20.25h32.545c-.362-5.786-1.447-22.058-1.447-35.076V425.509c0-8.678.724-19.888,1.085-28.205-7.232.361-18.08.723-26.759.723H44.116A364.767,364.767,0,0,1,4.7,395.857ZM341,487.343v35.438c11.209-1.085,30.375-1.808,50.263-1.808H589.782c16.272,0,31.459,1.446,38.692,1.808V487.343c-7.956.724-20.974,1.808-39.054,1.808H391.259C371.009,489.151,351.844,488.067,341,487.343ZM935.272,384.286a24.048,24.048,0,1,1,23.866,23.866A24.155,24.155,0,0,1,935.272,384.286Zm-16.634,0a40.741,40.741,0,0,0,1.808,11.571c-4.339.362-8.317.362-11.571.362H727.348a279.164,279.164,0,0,1-36.161-2.531v32.183c9.4-.362,21.7-1.085,36.161-1.085H912.129c-4.7,34.714-21.7,84.977-47.37,117.883-30.014,38.692-70.875,69.429-141.027,86.786l24.589,27.121c66.536-20.612,109.567-54.241,142.474-96.549,28.566-37.246,46.285-95.465,53.879-133.433a18.628,18.628,0,0,0,.723-3.978,43.7,43.7,0,0,0,13.741,2.17c22.42,0,40.862-18.08,40.862-40.5a41.052,41.052,0,0,0-40.862-40.862C936.719,343.424,918.638,361.866,918.638,384.286Z"/></svg>