<svg xmlns="http://www.w3.org/2000/svg" viewBox="0 0 1000 1000"><path d="M564.574,227.859a86.8,86.8,0,0,1,24.7-60.758l.81-.821,61.578,61.579V140.774l1.44.011a87.085,87.085,0,1,1-88.525,87.074ZM346.861,314.944A87.086,87.086,0,0,0,408.44,166.28l-61.579,61.579V140.774l-1.44.011a87.085,87.085,0,0,0,1.44,174.159Zm152.4,87.085A130.628,130.628,0,1,0,629.888,532.657,130.628,130.628,0,0,0,499.26,402.029ZM1000,728.6a43.543,43.543,0,1,1-80.935-22.325L867.84,629.437a21.773,21.773,0,0,0-17.412-9.684l-.7-.011-150.869,0a217.467,217.467,0,0,1-25.413,43.544l89.2,0A65.315,65.315,0,0,1,816.4,691.509l.583.86,53.187,79.779A43.525,43.525,0,1,1,831.98,793.36l-51.225-76.838a21.769,21.769,0,0,0-17.412-9.683l-.7-.012-132.737,0a217.777,217.777,0,0,1-261.286,0l-131.257,0-.7.012a21.772,21.772,0,0,0-17.013,9.1l-.4.579-51.224,76.84a43.547,43.547,0,1,1-38.191-21.214l53.185-79.779.583-.86a65.314,65.314,0,0,1,52.723-28.216l1.039-.008,87.717,0a217.563,217.563,0,0,1-25.413-43.544l-149.389,0-.7.011a21.773,21.773,0,0,0-17.013,9.1l-.4.579-51.224,76.84a43.547,43.547,0,1,1-38.191-21.214L95.93,605.284l.583-.86a65.314,65.314,0,0,1,52.723-28.216l1.039-.008,135.628,0a218.6,218.6,0,0,1-4.34-40.918l-.016-2.63-131.272,0a65.312,65.312,0,0,1-53.762-28.225l-.583-.859-53.185-79.78A43.524,43.524,0,1,1,80.936,402.58l51.224,76.84a21.772,21.772,0,0,0,17.412,9.683l.7.011,135.628,0a216.1,216.1,0,0,1,13.761-43.543l-63,0A65.314,65.314,0,0,1,182.9,417.347l-.583-.859-53.2-79.8a43.527,43.527,0,1,1,38.57-20.647l50.859,76.291a21.771,21.771,0,0,0,17.412,9.684l.7.011,88.415,0a217.745,217.745,0,0,1,348.366,0l89.895,0,.7-.011a21.772,21.772,0,0,0,17.013-9.1l.4-.579,50.859-76.291a43.547,43.547,0,1,1,38.57,20.647l-53.2,79.8-.583.859a65.313,65.313,0,0,1-52.722,28.217l-1.039.008-64.482,0a216.035,216.035,0,0,1,13.761,43.543l137.108,0,.7-.011A21.77,21.77,0,0,0,867.441,480l.4-.578,51.225-76.838a43.548,43.548,0,1,1,38.192,21.211l-53.187,79.78-.583.859a65.315,65.315,0,0,1-52.723,28.217l-1.039.008-132.753,0a218.592,218.592,0,0,1-4.355,43.548l137.108,0a65.314,65.314,0,0,1,53.762,28.224l.583.86,53.187,79.779A43.544,43.544,0,0,1,1000,728.6ZM673.431,532.657A174.171,174.171,0,1,0,499.26,706.827,174.17,174.17,0,0,0,673.431,532.657Z"/></svg>