<svg xmlns="http://www.w3.org/2000/svg" viewBox="0 0 1000 1000"><path d="M620.775,526.818c11.41,13.96,24.466,41.836,24.466,65.702,0,17.625-5.379,47.336-20.441,65.625-30.562,37.112-64.35,38.902-90.369,40.374v60.753h-64.549v-60.753c-24.56-2.944-57.867-16.448-80.687-34.995-22.82-18.539-32.957-45.821-33.351-74.464h60.455c1.595,15.424,7.901,28.833,18.916,40.21,10.061,10.409,28.906,14.771,46.5,18.117,41.957,2.152,70.995-5.448,83.211-17.566,12.208-12.118,14.689-24.709,14.689-41.604,0-38.97-51.64-51.64-73.156-59.17s-89.293-11.834-131.596-66.124c-11.158-14.32-17.415-32.679-17.415-56.184,0-29.745,11.307-54.342,33.929-73.81,22.613-19.459,52.742-30.295,79.579-32.498v-56.477h65.625v56.477c11.624,2.573,39.051,12.583,59.872,30.02,20.812,17.445,40.18,43.678,40.18,85.636h-62.399c-2.008-12.85-6.951-35.737-18.288-45.185-32.275-26.896-82.838-16.137-102.203-6.455-14.523,7.261-29.047,20.811-29.047,39.539,0,49.755,36.806,52.003,57.059,58.361,54.827,17.213,80.985,27.72,96.984,33.902,16.608,6.429,30.626,16.619,42.036,30.57Zm379.225-26.818c0,276.142-223.858,500-500,500S0,776.142,0,500,223.858,0,500,0s500,223.858,500,500Zm-124.359-132.1l-60.471,22.739c10.466,30.055,16.713,62.08,18.045,95.374h64.612c-1.38-41.288-9.084-80.973-22.186-118.113Zm-89.644-144.212l-45.661,45.661c25.588,26.42,46.804,57.091,62.496,90.855l60.597-22.786c-19.08-42.409-45.417-80.846-77.432-113.73Zm-147.956-26.168c28.468,12.781,54.789,29.478,78.304,49.391l45.789-45.789c-29.344-25.54-62.493-46.819-98.482-62.88l-25.611,59.277Zm-126.741-28.765c33.525,.856,65.805,6.713,96.135,16.83l25.691-59.464c-38.267-13.368-79.217-21.017-121.827-21.927v64.561Zm-152.193-37.772l24.686,59.695c25.69-9.899,52.925-16.678,81.246-19.888V105.873c-37.036,3.499-72.583,12.105-105.932,25.11Zm-127.332,80.532l45.68,45.68c22.703-21.117,48.37-39.083,76.32-53.198l-24.736-59.816c-35.795,17.529-68.55,40.307-97.264,67.333Zm-88.586,123.2l59.859,24.431c13.426-28.621,30.826-55,51.498-78.433l-45.729-45.729c-26.613,29.552-48.831,63.138-65.627,99.731Zm-35.63,151.298h64.612c1.348-33.705,7.736-66.109,18.436-96.485l-59.856-24.43c-13.71,37.944-21.777,78.586-23.192,120.915Zm17.002,129.238l60.592-22.784c-5.669-19.388-9.621-39.508-11.658-60.193H108.679c2.352,28.632,7.755,56.4,15.883,82.977Zm79.794,143.651l45.789-45.789c-22.526-26.601-40.924-56.803-54.208-89.627l-60.466,22.737c16.597,41.492,40.02,79.515,68.885,112.679Zm141.581,31.938c-26.911-14.508-51.574-32.641-73.355-53.736l-45.661,45.661c27.526,26.799,58.946,49.617,93.327,67.533l25.689-59.458Zm119.103,37.292c-31.352-3.553-61.375-11.478-89.443-23.168l-25.614,59.286c35.962,15.072,74.623,24.98,115.057,28.8v-64.918Zm37.654-20.447c170.227,0,308.224-137.996,308.224-308.224S672.921,191.238,502.694,191.238,194.47,329.234,194.47,499.461s137.996,308.224,308.224,308.224Zm128.002,65.955l-24.739-59.823c-29.902,9.817-61.674,15.507-94.657,16.349v64.561c41.709-.891,81.827-8.239,119.395-21.088Zm136.475-80.302l-45.73-45.73c-25.169,22.205-53.738,40.638-84.833,54.421l24.687,59.698c38.983-17.091,74.676-40.294,105.875-68.39Zm95.248-129.612l-59.856-24.43c-14.706,31.483-34.22,60.263-57.604,85.403l45.68,45.68c29.372-31.206,53.727-67.186,71.779-106.653Zm34.29-131.452h-64.817c-2.619,26.593-8.398,52.255-16.937,76.621l59.859,24.431c11.504-31.975,19.004-65.86,21.895-101.052Z"/></svg>