<svg xmlns="http://www.w3.org/2000/svg" viewBox="0 0 1000 1000"><path d="m723.108 981.717 21.876-16.729c15.442-15.442 32.171-28.31 50.187-43.753 25.737-21.876 41.18-50.187 57.908-73.35 21.877-30.884 38.606-60.482 50.187-92.653 12.869-37.318 19.303-74.637 19.303-111.956 0-57.908-1.287-102.947-6.434-138.98-6.435-43.752-18.016-82.357-34.745-118.39-18.016-38.605-45.04-74.636-82.358-109.381-38.606-36.032-84.932-74.637-146.701-113.243-43.753-27.024-96.514-54.047-154.422-78.497-46.326-19.303-99.087-29.598-154.422-43.753-41.179-10.295-87.505-16.73-133.832-24.45-30.884-5.148-64.342-7.721-93.94-9.008L78.397 5c-1.287 68.203-1.287 144.127 0 226.485 2.574 164.717 7.721 283.107 18.016 356.457 11.581 78.498 32.17 144.127 65.629 200.748 23.163 39.892 56.621 74.637 96.514 108.095 21.876 18.016 52.76 37.319 92.653 54.048 43.752 18.016 83.645 33.458 123.537 39.892 45.04 7.721 78.498 5.148 99.087-9.008 20.59-14.155 38.606-43.752 48.9-91.366 9.008-42.466 12.869-88.792 11.582-142.84-1.287-54.048-6.434-101.66-19.303-144.127-28.31-95.227-82.358-182.732-159.569-266.377-16.729-18.016-42.466-42.466-77.21-72.064-24.45-20.59-55.335-43.753-86.22-69.49l-41.179-33.458c28.311 14.156 61.77 30.885 96.514 50.187 75.924 42.466 131.258 78.498 168.577 108.096 33.458 25.737 65.63 57.908 97.8 100.374 33.459 43.753 63.056 87.505 86.22 133.832 25.736 51.474 43.752 96.513 48.9 140.266 3.86 30.885 6.434 64.343 5.147 101.661-1.287 29.598-5.148 61.769-9.008 91.366-2.574 23.164-11.582 46.327-14.155 66.917-1.287 9.007-5.148 16.729-7.721 27.023z"/></svg>