<svg xmlns="http://www.w3.org/2000/svg" viewBox="0 0 1000 1000"><path d="M5 500.002v.395-.395c.099-89.506 22.55-172.682 67.253-249.726 44.209-74.473 103.55-133.814 178.023-178.023C327.419 27.45 410.694 5 500.002 5c89.308 0 172.583 22.45 249.726 67.253C824.2 116.462 883.54 175.803 927.75 250.276c44.803 77.143 67.253 160.418 67.253 249.726 0 89.308-22.45 172.583-67.253 249.726C883.541 824.2 824.2 883.54 749.728 927.75c-77.143 44.803-160.418 67.253-249.726 67.253-89.308 0-172.583-22.45-249.726-67.253-74.473-44.209-133.814-103.55-178.023-178.022C27.55 672.684 5.099 589.508 5 500.002zm70.22-31.154c0 316.484 243.298 520.221 537.035 449.012 232.418-63.297 358.023-280.88 304.616-526.155C863.464 185 694.343 68.297 469.837 75.22 262.144 90.055 75.22 275.99 75.22 468.848zm30.66 32.637c0 218.572 178.022 396.595 397.583 396.595 219.561 0 397.584-178.023 397.584-394.617 0-219.561-180.99-396.595-400.55-396.595-214.617 0-394.618 180.001-394.618 394.617zm89.01-6.923c0-25.714 22.748-48.462 48.462-48.462 28.682 0 51.43 20.77 51.43 48.462-2.968 28.681-22.748 52.418-51.43 52.418-25.714 0-48.461-23.737-48.461-52.418zm193.848 178.023c2.967-8.901 8.9-17.803 11.868-28.682 2.967-8.9 5.934-11.868 16.813-8.9 19.78 5.933 43.517 10.878 63.297 14.834 36.593 8.901 63.297-8.9 65.275-45.494 2.967-20.77-5.934-41.539-22.748-52.418-19.78-16.813-42.527-33.627-66.263-48.462-36.594-22.747-56.374-54.396-62.308-99.89-6.923-72.198 43.516-110.77 114.725-110.77 30.66 0 59.341 4.945 85.056 15.824 12.857 7.912 13.846 9.89 2.967 37.583-4.946 23.736-4.946 23.736-28.682 17.802-19.78-2.967-39.56-5.934-57.363-8.901-21.758-2.967-36.593 2.967-41.538 16.813-8.901 19.78-8.901 43.517 6.923 57.363 20.77 16.813 40.55 30.66 61.319 45.495 7.912 5.934 12.857 11.868 19.78 14.835 50.44 39.56 68.242 93.956 47.473 156.264-10.88 34.616-36.594 52.418-70.22 61.32-49.451 12.856-93.957 4.944-137.473-14.836-8.901-6.923-10.88-11.868-8.901-19.78zm322.418-178.023c0-27.692 23.737-48.462 52.418-48.462 27.692 0 47.473 20.77 47.473 48.462 0 28.681-21.759 52.418-47.473 52.418-28.681 0-52.418-23.737-52.418-52.418z"/></svg>