<svg xmlns="http://www.w3.org/2000/svg" width="1000" height="1000">
  <path d="M22.26 630.668c-33.498-103.074-15.46-260.26 48.96-374.93 5.154-9.019 5.154-12.884-3.865-18.038-27.056-15.46-45.094-39.94-55.402-72.151-14.172-43.806-1.288-99.208 45.095-132.707C93.124 5.785 136.93-.658 170.428 9.65c20.615 6.442 64.422 32.21 65.71 51.537 3.865 16.75 19.326 12.884 29.634 5.154 43.806-33.5 146.88-56.69 211.3-56.69 152.033 0 257.684 25.768 383.949 150.744 85.035 97.92 139.149 233.204 132.707 359.469-9.02 167.494-78.594 292.47-220.32 387.813-105.65 70.863-220.32 103.074-346.584 79.882C220.677 950.195 87.97 831.661 22.26 630.668zm237.07-131.42c0 131.42 112.092 239.647 246.087 235.781 137.861-3.865 231.915-109.515 231.915-244.799 0-139.15-113.38-237.069-238.357-237.069-131.418 0-239.645 112.092-239.645 246.088z" style="fill:#000;fill-opacity:1;fill-rule:nonzero;stroke:none;"/>
</svg>
