<svg xmlns="http://www.w3.org/2000/svg" viewBox="0 0 1000 1000"><path d="M496.88 840.196c19.974-17.478 34.955-33.707 49.936-48.689-14.98-17.477-29.962-32.459-46.191-48.688-18.727 16.23-34.956 33.707-49.937 48.688 14.98 14.982 31.21 31.211 46.191 48.69zM5 942.566c14.981 16.23 31.21 34.957 46.192 52.435l49.937-52.434c-14.981-14.981-31.211-29.962-49.937-46.192C36.21 912.605 19.98 927.585 5 942.567zm0-147.313c14.981 14.98 31.21 36.204 46.192 51.185 18.726-19.975 34.956-36.204 49.937-51.185-14.981-16.23-33.708-31.21-49.937-46.192C36.21 764.042 19.98 779.023 5 795.253zm0-594.25c14.981 16.23 31.21 31.21 46.192 46.191 16.23-14.98 34.956-29.962 49.937-46.191-14.981-14.981-31.211-31.21-49.937-46.192zM5 53.689c14.981 16.23 31.21 32.459 46.192 47.44 16.23-14.981 34.956-31.21 49.937-47.44C86.148 37.459 69.918 22.478 51.192 5 36.21 22.478 19.98 37.46 5 53.689zm76.154 818.966 46.192 46.192c14.98-16.23 31.21-31.21 49.937-46.192-18.727-17.478-34.956-36.204-49.937-52.434-16.23 16.23-31.211 34.956-46.192 52.434zm0-149.81c14.98 14.98 29.962 32.458 46.192 47.44 14.98-14.982 31.21-32.46 46.191-51.186l-46.191-46.192c-16.23 14.981-31.211 34.956-46.192 49.937zm0-445.688c14.98 14.98 29.962 31.21 46.192 46.191l46.191-46.191c-14.98-16.23-31.21-31.211-46.191-46.192a806.003 806.003 0 0 0-46.192 46.192zm0-148.563c14.98 16.23 29.962 31.21 46.192 47.44 14.98-16.23 31.21-31.21 49.937-47.44-18.727-18.726-34.956-33.707-49.937-49.937-16.23 16.23-31.211 34.956-46.192 49.937zm71.16 666.659c16.23 14.98 33.708 31.21 48.689 46.191 17.478-14.98 32.459-31.21 48.688-46.191-16.23-16.23-31.21-31.21-49.937-46.192-16.23 14.981-31.21 29.962-47.44 46.192zm0-148.563c16.23 16.23 33.708 31.21 47.44 48.689 18.727-17.478 33.708-32.46 49.937-48.689-16.23-14.98-31.21-31.21-48.688-46.191-17.478 14.98-32.46 31.21-48.689 46.191zm0-297.125c16.23 14.981 33.708 33.708 48.689 51.186 17.478-17.478 32.459-32.46 48.688-51.186-16.23-16.23-31.21-31.21-48.688-47.44-17.478 16.23-32.46 31.21-48.689 47.44zm0-148.562c16.23 16.23 31.21 34.956 48.689 51.185 17.478-16.23 32.459-34.956 48.688-51.185-16.23-14.981-31.21-31.21-48.688-46.192-14.981 14.981-32.46 31.21-48.689 46.192zm0-147.314 48.689 47.44c17.478-14.981 32.459-31.21 48.688-47.44L201.003 5c-14.981 17.478-32.46 32.46-48.689 48.689zm2.497 888.878c14.981 16.23 31.21 34.956 46.192 52.434 17.478-17.478 32.459-36.205 48.688-52.434l-48.688-46.192c-14.981 16.23-32.46 31.21-46.192 46.192zm0-438.197c3.745 2.497 9.987 8.739 13.733 9.987 11.235 13.733 21.223 23.72 31.21 33.708 18.727-14.981 33.708-33.708 49.937-48.689-16.23-16.23-31.21-33.707-49.937-48.688-16.23 14.98-31.21 31.21-44.943 46.191-2.497 2.497-2.497 2.497 0 7.49zm72.409 368.285 47.44 46.192c16.23-16.23 33.707-31.21 48.688-46.192 0-4.994-1.248-4.994-1.248-4.994-16.23-16.23-29.962-27.465-44.943-44.943-2.497-2.497-2.497-2.497-4.994 0-13.733 17.478-29.962 28.714-41.198 44.943-3.745 0-3.745 0-3.745 4.994zm0-300.87c14.98 16.23 31.21 32.459 47.44 51.185 16.23-16.23 31.21-34.956 47.44-51.185l-47.44-47.44c-16.23 16.23-32.46 31.21-47.44 47.44zm0-147.314c14.98 16.23 31.21 31.21 47.44 47.44l47.44-47.44c-16.23-14.981-31.21-29.963-47.44-46.192zm0-297.125s0 1.248 3.745 4.993c11.236 12.485 27.465 27.466 41.198 41.198 2.497 2.497 4.994 2.497 4.994 0 14.98-13.732 28.713-28.713 44.943-41.198 1.248-3.745 1.248-4.993 0-8.739-8.74-9.987-19.975-18.726-29.962-28.713-4.994-2.497-11.236-8.74-17.478-16.23-16.23 16.23-32.46 31.21-47.44 48.689zm72.408 667.907c18.727 14.98 33.708 36.204 49.937 51.185 14.981-14.98 31.21-36.204 46.192-51.185-14.981-16.23-31.21-31.21-46.192-46.192-16.23 14.981-31.21 29.962-49.937 46.192zm2.497-295.877c16.23 14.981 31.21 33.708 47.44 48.689 14.981-14.981 31.21-33.708 46.192-48.689-14.981-16.23-31.21-33.707-46.192-47.44zm0-298.373c16.23 16.23 31.21 31.21 47.44 51.185l46.192-51.185-46.192-46.192c-16.23 14.981-31.21 31.21-47.44 46.192zm72.409 521.841c16.23 14.981 31.21 32.46 47.44 47.44 18.726-14.98 33.707-32.459 49.937-47.44-16.23-14.98-31.21-34.956-49.937-49.937-16.23 14.981-31.21 31.21-47.44 49.937zm0-445.687c16.23 14.98 31.21 31.21 47.44 46.191 14.98-14.98 33.707-31.21 49.937-46.191-16.23-16.23-34.956-31.211-49.937-46.192-16.23 14.981-31.21 29.962-47.44 46.192zm76.154 369.533c14.98 16.23 31.21 31.21 46.191 51.186 19.975-19.975 34.956-34.956 49.937-51.186-14.98-14.98-29.962-33.707-49.937-49.937-14.98 18.727-31.21 34.956-46.191 49.937zm0-297.125c14.98 14.981 31.21 33.708 46.191 51.186 19.975-17.478 34.956-32.46 49.937-51.186-14.98-16.23-29.962-31.21-49.937-47.44-14.98 16.23-31.21 31.21-46.191 47.44zm0-143.569c14.98 18.727 31.21 34.956 46.191 49.937 19.975-14.98 34.956-31.21 49.937-49.937-14.98-16.23-29.962-32.459-49.937-47.44-14.98 17.478-31.21 32.46-46.191 47.44zm76.153 516.848c14.982 14.981 31.211 32.46 46.192 47.44l46.192-47.44c-14.981-14.98-31.21-34.956-46.192-49.937-14.981 14.981-31.21 34.956-46.192 49.937zm0-445.687 46.192 46.191 46.192-46.191c-14.981-16.23-31.21-31.211-46.192-46.192-14.981 14.981-31.21 29.962-46.192 46.192zm72.409 518.096c16.23 14.98 32.46 36.204 47.44 51.185 16.23-19.975 34.956-36.204 49.937-51.185-14.98-16.23-33.707-31.21-49.937-46.192zm1.248-295.877c14.982 14.981 31.211 33.708 46.192 48.689 16.23-14.981 34.956-33.708 49.937-48.689-14.98-16.23-33.707-33.707-49.937-48.688-14.98 14.98-31.21 32.459-46.192 48.688zm0-298.373c14.982 16.23 31.211 31.21 46.192 46.191 16.23-14.98 34.956-29.962 49.937-46.191-14.98-14.981-33.707-31.21-49.937-46.192zm72.41 671.652c14.98 14.981 31.21 29.962 46.19 46.192 18.727-16.23 36.205-31.21 51.186-46.192-14.98-17.478-32.459-32.459-51.185-52.434-14.981 19.975-31.21 34.956-46.192 52.434zm0-300.87c14.98 16.23 31.21 32.459 46.19 47.44 17.479-14.981 36.205-31.21 51.186-47.44-18.726-16.23-33.707-31.21-51.185-47.44-14.981 16.23-31.21 31.21-46.192 47.44zm0-147.314c14.98 16.23 31.21 31.21 46.19 47.44 17.479-16.23 36.205-31.21 51.186-47.44-14.98-14.981-33.707-29.963-51.185-46.192-14.981 16.23-31.21 31.21-46.192 46.192zm0-295.877c14.98 16.23 31.21 31.21 46.19 47.44 17.479-16.23 36.205-31.21 51.186-47.44-14.98-18.726-33.707-33.707-51.185-46.192-14.981 12.485-31.21 31.211-46.192 46.192zm69.91 370.782c16.23 14.981 31.211 34.956 49.938 48.689 16.23-14.981 31.21-33.708 47.44-48.689-16.23-16.23-31.21-31.21-47.44-48.688-18.727 14.98-33.708 31.21-49.937 48.688zm2.498 295.877c18.726 14.98 33.707 31.21 49.937 51.185 14.98-19.975 31.21-36.204 51.185-51.185-4.994 0-4.994 0-4.994-3.746-14.98-12.484-26.216-27.465-41.198-42.446-4.993-3.745-4.993-3.745-7.49 0-16.23 14.981-28.714 29.962-43.695 42.447 0 0 0 3.745-3.745 3.745zm3.745 151.06c14.981 14.98 29.962 31.21 46.192 48.688 14.98-17.478 31.21-33.708 46.191-52.434-14.98-14.981-31.21-29.962-46.191-46.192-16.23 16.23-31.21 31.21-46.192 49.937zm0-299.623 46.192 48.689c14.98-17.478 31.21-32.46 46.191-48.689l-46.191-46.19c-16.23 14.98-31.21 31.21-46.192 46.191zm0-297.125c14.981 14.981 29.962 31.21 46.192 51.186 14.98-17.478 31.21-36.205 46.191-51.186-14.98-16.23-31.21-31.21-46.191-47.44-16.23 16.23-31.21 31.21-46.192 47.44zm0-148.562a806.005 806.005 0 0 0 46.192 46.191c14.98-14.98 31.21-29.962 51.185-46.191-19.975-14.981-36.204-31.21-51.185-46.192-16.23 14.981-31.21 31.21-46.192 46.192zm0-147.314c14.981 16.23 29.962 32.459 46.192 47.44 14.98-14.981 31.21-31.21 46.191-47.44-14.98-16.23-31.21-31.211-46.191-48.689zm71.16 818.966c16.23 14.981 31.21 29.962 51.186 46.192 14.98-16.23 31.21-31.21 47.44-46.192-16.23-17.478-32.46-32.459-51.186-49.937zm0-149.81 51.186 47.44c14.98-14.982 31.21-32.46 47.44-47.44-16.23-14.982-32.46-34.957-47.44-49.938-16.23 14.981-34.956 31.21-51.186 49.937zm0-445.688 51.186 46.191c14.98-14.98 31.21-31.21 47.44-46.191l-47.44-46.192c-16.23 14.981-34.956 29.962-51.186 46.192zm0-149.811c16.23 17.478 34.956 32.459 51.186 48.688 14.98-16.23 31.21-31.21 47.44-47.44-16.23-14.981-32.46-33.707-51.186-49.937-16.23 16.23-31.21 31.21-47.44 48.689zm76.154 815.22 46.192 52.435c16.23-17.478 36.204-33.708 52.434-52.434-21.224-14.981-36.205-29.962-52.434-46.192a806.008 806.008 0 0 1-46.192 46.192zm0-147.313c16.23 14.98 31.21 31.21 46.192 51.185 16.23-19.975 36.204-36.204 52.434-51.185-16.23-16.23-36.205-31.21-52.434-46.192zm0-594.25c16.23 16.23 31.21 34.956 46.192 51.185L995 201.003c-16.23-14.981-36.205-31.21-52.434-46.192-14.981 14.981-29.962 31.21-46.192 46.192zm0-147.314c16.23 16.23 31.21 32.459 46.192 51.185 16.23-17.478 31.21-32.46 48.688-48.689 3.746-2.496 3.746-4.993 0-4.993-12.484-14.981-27.465-28.714-41.198-41.198-2.496-3.746-2.496-3.746-7.49-4.994-14.981 17.478-29.962 32.46-46.192 48.689z"/></svg>