<?xml version="1.0" encoding="utf-8"?>
<!-- Generator: Adobe Illustrator 26.0.1, SVG Export Plug-In . SVG Version: 6.00 Build 0)  -->
<svg version="1.1" id="Layer_1" xmlns="http://www.w3.org/2000/svg" xmlns:xlink="http://www.w3.org/1999/xlink" x="0px" y="0px"
	 viewBox="0 0 1000 1000" style="enable-background:new 0 0 1000 1000;" xml:space="preserve">
<style type="text/css">
	.st0{fill-rule:evenodd;clip-rule:evenodd;}
</style>
<path class="st0" d="M385.9,7.6h-94.7L91.8,206.9h161.8C275.3,128,360.2,22.4,385.9,7.6z M908.8,206.9L707.5,7.6h-88.8
	C682.7,66,727.3,147.7,752,206.9H908.8z M91.8,793.1l201.3,199.3h88.8C318,934,273.4,852.3,248.7,793.1H91.8z M565.4,7.6H521v199.3
	h193.4C669.5,99.6,596.4,29.3,565.4,7.6z M482.6,206.9V7.6h-45.4c-84.5,60.8-132.6,158.2-146,199.3L482.6,206.9L482.6,206.9z
	 M518.1,793.1v199.3h45.4c84.5-60.8,132.6-158.2,146-199.3H518.1z M435.2,992.4h44.4V793.1H286.2
	C331.2,900.4,404.3,970.7,435.2,992.4z M614.8,992.4h94.7l199.3-199.3H747C725.3,872,640.4,977.6,614.8,992.4z M127.3,319.8h204.8
	v55.6H189.4V465h109.7v55.6H189.4v111.7h142.7v55.6H127.3V319.8z M399.2,319.8h108.2c10.3,0,20.6,0.8,30.8,2.5
	c10.2,1.7,19.9,4.8,29.3,9.3c9.3,4.5,17.9,10.3,25.5,17.3c7.7,7,13.9,15.2,18.8,24.5c4.8,9.4,8.2,19.1,10,29.3
	c1.8,10.2,2.8,20.5,2.8,30.8v140.7c0,10.4-0.9,20.6-2.8,30.8c-1.8,10.2-5.2,20-10,29.3c-4.8,9.4-11.1,17.5-18.8,24.5
	c-7.7,7-16.2,12.8-25.5,17.3c-9.4,4.5-19.1,7.6-29.3,9.3c-10.2,1.7-20.5,2.5-30.8,2.5H399.2V319.8z M507.4,632.3
	c7.7,0,15.2-1.2,22.5-3.5c7.3-2.3,13.6-6.4,18.8-12.3c5.2-5.8,8.8-12.4,11-19.8c2.2-7.3,3.3-14.9,3.3-22.5V433.5
	c0-7.7-1.1-15.3-3.3-22.8c-2.2-7.5-5.8-14.1-11-19.8c-5.2-5.7-11.4-9.7-18.8-12c-7.3-2.3-14.9-3.5-22.5-3.5h-46.6v256.9H507.4z
	 M695.7,319.8h110.2c11,0,22,0.9,32.8,2.8c10.8,1.8,21.3,5.2,31.3,10c10,4.8,18.8,11.4,26.3,19.5c7.5,8.2,12.8,17.6,16,28.3
	c3.2,10.7,4.8,21.4,4.8,32.1v44.1c0,10.7-1.6,21.4-4.8,32.1c-3.2,10.7-8.5,20.1-16,28.3c-7.5,8.2-16.3,14.7-26.3,19.5
	c-10,4.8-20.5,8.2-31.3,10c-10.9,1.8-21.8,2.8-32.8,2.8h-48.1v138.7h-62.1V319.8z M805.9,493.6c6,0,11.8-0.6,17.5-1.8
	c5.7-1.2,11.1-3.3,16.3-6.3c5.2-3,9.1-7.2,11.8-12.5c2.7-5.3,4-10.8,4-16.5v-44.1c0-5.7-1.3-11.2-4-16.5c-2.7-5.3-6.6-9.5-11.8-12.5
	c-5.2-3-10.6-5.1-16.3-6.3c-5.7-1.2-11.5-1.8-17.5-1.8h-48.1v118.2H805.9z"/>
</svg>
