<svg xmlns="http://www.w3.org/2000/svg" width="1000" height="1000">
  <path d="M124.388 806.714C-34.192 602.824-10.28 289.44 196.127 120.79 293.037 41.5 396.241 5 514.547 5 610.2 5 717.178 41.499 800.244 109.462c91.877 75.515 152.288 167.39 178.718 281.921H856.88c-2.517 0-2.517 0-2.517-1.258-22.654-67.963-65.446-130.892-113.272-172.425-110.755-96.91-252.974-113.272-383.866-55.378-235.354 104.462-290.731 437.985-89.359 616.703 70.48 62.93 154.805 93.135 247.94 93.135 47.826-2.517 93.135-11.327 137.185-31.464 94.393-42.792 178.718-137.185 201.372-229.061 0-2.518 0-2.518 2.517-2.518h122.082c0 93.135-120.823 251.716-221.51 313.386-145.994 89.36-323.454 95.652-466.932 21.396-65.446-33.982-122.082-80.549-166.132-137.185zM397.5 466.898c-20.138-64.187 20.137-133.41 93.134-147.254 74.256-8.81 138.444 51.602 129.634 122.083-5.035 42.791-25.172 75.514-61.67 95.651-1.26 0-3.776 2.518-3.776 3.776v140.96h-98.17v-140.96c0-1.258 0-3.776-2.516-3.776-27.69-16.361-46.568-39.015-56.636-70.48z" style="fill:#000;fill-opacity:1;fill-rule:nonzero;stroke:none;"/>
</svg>
