<svg xmlns="http://www.w3.org/2000/svg" width="1000" height="1000">
  <path d="M749.728 72.253C824.2 116.462 883.54 175.803 927.75 250.276c44.803 77.143 67.253 160.418 67.253 249.726 0 89.308-22.45 172.583-67.253 249.726C883.541 824.2 824.2 883.54 749.728 927.75c-77.143 44.803-160.418 67.253-249.726 67.253-89.308 0-172.583-22.45-249.726-67.253-74.473-44.209-133.814-103.55-178.023-178.022C27.451 672.585 5 589.31 5 500.002c0-89.308 22.45-172.583 67.253-249.726 44.209-74.473 103.55-133.814 178.023-178.023C327.419 27.45 410.793 5 500.496 5c89.011 0 172.089 22.45 249.232 67.253zM131.594 361.045c30.66 92.967 60.33 167.144 91.978 260.11C260.166 726.98 260.166 726.98 390.716 726.98c26.703 0 37.582-6.923 48.461-37.582 19.78-50.44 39.56-98.902 57.363-161.21 27.693 70.22 46.484 108.792 68.242 161.21 10.88 23.736 23.736 30.66 41.539 30.66h98.901c-37.582-96.924-61.319-167.144-98.901-266.046-39.56-109.78-17.803-96.923-127.583-98.901-39.56 0-57.363 10.88-71.21 47.473-16.812 51.428-36.593 108.791-68.241 168.132-29.67-68.242-47.473-116.704-67.253-179.011-6.923-18.792-8.901-30.66-30.66-30.66zm562.749 161.21c0 48.461 23.736 97.912 43.517 139.45 3.956 8.902 10.879 16.814 10.879 16.814 32.637-93.957 81.099-213.627 123.627-317.474-64.286-5.934-102.858-12.857-127.583 11.868-30.66 39.56-50.44 97.913-50.44 149.341z" style="fill:#000;fill-opacity:1;fill-rule:nonzero;stroke:none;"/>
</svg>
