<svg xmlns="http://www.w3.org/2000/svg" viewBox="0 0 1000 1000"><path d="M450,659.643a42.872,42.872,0,0,0-8.214-14.286,39.387,39.387,0,0,0-12.5-9.286,32.4,32.4,0,0,0-15.357-3.571,38.623,38.623,0,0,0-15.357,3.571,35.788,35.788,0,0,0-12.5,9.286,42.857,42.857,0,0,0-8.215,14.286A58.457,58.457,0,0,0,375,677.5a50.586,50.586,0,0,0,2.857,17.857,43.867,43.867,0,0,0,8.215,14.286,39.391,39.391,0,0,0,12.5,9.286,32.393,32.393,0,0,0,15.357,3.571,37.278,37.278,0,0,0,15.357-3.571,35.809,35.809,0,0,0,12.5-9.286A42.882,42.882,0,0,0,450,695.357a41.788,41.788,0,0,0,2.857-17.857A58.426,58.426,0,0,0,450,659.643Z" fill-rule="evenodd"/><path d="M271.071,645.714a42.14,42.14,0,0,0-11.428-9.643,27.006,27.006,0,0,0-13.929-3.571H222.5v90h23.214a31.023,31.023,0,0,0,13.929-3.571,32.039,32.039,0,0,0,11.428-9.286,52.89,52.89,0,0,0,10.358-31.786A58.432,58.432,0,0,0,278.571,660,45.294,45.294,0,0,0,271.071,645.714Z" fill-rule="evenodd"/><path d="M591.429,645.714A42.159,42.159,0,0,0,580,636.071a27.006,27.006,0,0,0-13.929-3.571H542.857v90h23.214A31.023,31.023,0,0,0,580,718.929a32.051,32.051,0,0,0,11.429-9.286,54.664,54.664,0,0,0,7.5-14.286,66.461,66.461,0,0,0,2.857-17.5A58.462,58.462,0,0,0,598.929,660,45.334,45.334,0,0,0,591.429,645.714Z" fill-rule="evenodd"/><path d="M500,0C223.858,0,0,223.858,0,500s223.858,500,500,500,500-223.858,500-500S776.142,0,500,0ZM323.929,678.214a75.733,75.733,0,0,1-21.786,53.929,74.228,74.228,0,0,1-23.929,16.071,75.562,75.562,0,0,1-29.643,5.715H187.5v-152.5h61.071a75.847,75.847,0,0,1,29.643,6.071,72.421,72.421,0,0,1,23.929,16.071,77.792,77.792,0,0,1,16.071,24.286A70.839,70.839,0,0,1,323.929,678.214Zm162.5,29.643a74.757,74.757,0,0,1-70,46.429,76.733,76.733,0,0,1-54.286-22.143,75.836,75.836,0,0,1-16.072-24.286,77.158,77.158,0,0,1,0-60,73.919,73.919,0,0,1,16.072-24.286,77.354,77.354,0,0,1,54.286-22.142,76.518,76.518,0,0,1,53.928,22.142,77.813,77.813,0,0,1,16.072,24.286,77.158,77.158,0,0,1,0,60ZM410,483.571V433.929c0-11.072,11.429-20,25.357-20s25.357,8.928,25.357,20v49.642c0,11.072-11.428,20-25.357,20S410,494.643,410,483.571ZM295.357,562.143H218.571c10-178.572,88.215-287.143,225.715-308.572a101.606,101.606,0,0,1-8.215-13.214c-10.714-22.143-8.928-44.643,3.572-50.714,10-4.643,24.286,2.857,35,17.143a38.837,38.837,0,0,1-.357-6.429c0-31.071,14.285-56.071,32.143-56.071s32.142,25.357,32.142,56.071V202.5c9.643-11.071,20.715-16.786,29.286-13.214,8.929,3.571,12.5,15.357,10.714,30.357a68.552,68.552,0,0,1-5.357,22.5,57.234,57.234,0,0,1-7.143,12.143c115.358,15,216.072,130,214.643,307.857H703.928C705,411.429,620,331.429,506.429,331.429,379.643,331.429,303.571,415,295.357,562.143ZM590,433.929v49.642c0,11.072-10.714,20-23.571,20-13.215,0-23.572-8.928-23.572-20V433.929c0-11.072,10.714-20,23.572-20S590,422.857,590,433.929Zm54.286,244.285A75.733,75.733,0,0,1,622.5,732.143a74.228,74.228,0,0,1-23.929,16.071,75.561,75.561,0,0,1-29.642,5.715H507.857v-152.5h61.072a75.846,75.846,0,0,1,29.642,6.071A72.421,72.421,0,0,1,622.5,623.571a77.792,77.792,0,0,1,16.071,24.286A70.839,70.839,0,0,1,644.286,678.214Zm162.143,29.643a74.757,74.757,0,0,1-70,46.429,76.731,76.731,0,0,1-54.286-22.143,75.836,75.836,0,0,1-16.072-24.286,77.347,77.347,0,0,1-5.714-30,71.324,71.324,0,0,1,5.714-30,73.919,73.919,0,0,1,16.072-24.286,77.354,77.354,0,0,1,54.286-22.142,76.518,76.518,0,0,1,53.928,22.142,77.813,77.813,0,0,1,16.072,24.286c4.285,9.286,6.071,19.286,6.071,30A76.313,76.313,0,0,1,806.429,707.857Z" fill-rule="evenodd"/><path d="M770.357,659.643a42.872,42.872,0,0,0-8.214-14.286,35.788,35.788,0,0,0-12.5-9.286,31.433,31.433,0,0,0-15.357-3.571,37.262,37.262,0,0,0-15.357,3.571,39.376,39.376,0,0,0-12.5,9.286,42.857,42.857,0,0,0-8.215,14.286,58.457,58.457,0,0,0-2.857,17.857,50.608,50.608,0,0,0,2.857,17.857,43.867,43.867,0,0,0,8.215,14.286,39.391,39.391,0,0,0,12.5,9.286,32.4,32.4,0,0,0,15.357,3.571,37.278,37.278,0,0,0,15.357-3.571,35.8,35.8,0,0,0,12.5-9.286,42.882,42.882,0,0,0,8.214-14.286,41.788,41.788,0,0,0,2.857-17.857A49.312,49.312,0,0,0,770.357,659.643Z"/></svg>