<svg xmlns="http://www.w3.org/2000/svg" viewBox="0 0 1000 1000"><path d="M5 500.496c0 271.98 220.55 494.507 495.496 494.507 271.98 0 494.507-220.55 494.507-495.496C995.003 227.528 773.464 5 500.496 5 226.54 5 5 225.55 5 500.496zm79.121 8.901v-20.769c2.967-12.857 6.923-21.758 14.835-32.637 55.385-96.924 110.77-194.836 162.199-286.815 17.802-26.703 40.55-44.505 71.209-44.505h336.265c29.67 0 52.417 17.802 70.22 44.505 53.406 95.935 111.758 192.858 167.143 290.77 13.846 22.748 13.846 49.451 0 76.155-55.385 98.901-113.737 196.814-170.11 292.748-14.836 27.692-37.583 40.55-67.253 40.55H335.33c-9.89 0-16.813 0-26.704-2.968-19.78-6.923-35.604-23.736-47.472-43.516-51.429-87.033-103.847-177.034-152.308-267.034-9.89-17.802-17.803-33.627-24.726-46.484zm84.066-17.802c0 17.802 10.88 35.605 30.66 44.506 3.956 0 10.879 5.934 13.846 12.857 32.637 58.352 66.264 117.693 98.901 173.077 2.967 6.923 6.924 13.847 2.967 21.759 0 13.846 6.924 31.648 24.726 42.527 13.846 9.89 32.637 6.923 42.527-3.956 9.89-6.923 16.814-9.89 27.693-9.89h185.935c10.879 0 17.802 2.967 23.736 9.89 6.923 3.956 16.813 6.923 25.714 10.88 26.704 0 47.473-23.737 40.55-49.451 0-10.88 0-14.836 6.923-23.737 32.637-57.363 64.286-112.747 95.934-171.1 3.956-6.922 10.88-12.856 17.803-14.834 16.813-6.923 26.703-24.726 26.703-42.528-3.956-15.824-13.846-29.67-30.66-35.605-2.967-2.967-9.89-6.923-13.846-13.846-31.648-55.385-67.253-114.725-98.901-170.11-3.956-6.923-3.956-13.846-3.956-15.824 3.956-20.77-1.978-38.572-16.813-47.473-16.814-6.923-32.638-6.923-49.451 2.967-5.934 5.934-12.857 10.88-20.77 10.88h-188.9c-10.88 0-17.802-4.946-27.693-10.88-12.857-9.89-28.681-9.89-46.483-2.967-13.846 8.901-20.77 26.703-20.77 44.506 0 4.945 0 11.868-2.967 18.79-28.681 55.386-63.296 114.726-94.945 170.111-3.956 3.956-10.88 10.88-17.802 13.846-17.802 5.935-30.66 19.78-30.66 35.605zm73.187 35.605c13.847-21.759 17.803-42.528 0-60.33 24.726-41.539 47.473-80.11 67.253-121.65 9.89-17.801 19.78-32.637 30.66-49.45 3.956-5.934 6.923-10.879 16.813-5.934 15.824 0 28.681-11.868 39.56-24.725 2.968-3.956 5.935-8.901 13.847-8.901h192.858l3.956 1.978c9.89 19.78 26.703 33.626 52.417 26.703 2.967 10.88 6.924 17.802 12.858 24.725-5.934 2.967-9.89 6.923-12.858 9.89-77.143 42.528-157.253 86.045-233.407 129.561-8.901 6.924-15.824 10.88-29.67 3.956-20.77-10.879-42.528 2.967-52.418 22.748-7.912 22.747 2.967 46.483 25.714 58.352 22.748 3.956 47.473-4.945 54.396-28.682 1.978-13.846 7.912-20.77 21.758-27.692 81.1-45.495 161.21-88.022 244.287-135.495 22.747 40.55 46.484 80.11 69.23 119.67-12.856 33.627-12.856 36.594 4.946 67.254-38.572 57.362-71.209 116.703-104.836 180-22.747-3.956-39.56 2.967-52.417 23.737 0 2.967-7.912 6.923-10.88 6.923H409.508c-7.912 0-10.88-3.956-13.846-10.88-10.88-13.846-23.737-19.78-39.56-19.78-9.891 0-9.891 0-16.814-16.813 21.758-13.846 45.494-25.714 70.22-39.56 62.308-37.583 122.638-73.188 185.935-110.77 6.923-3.956 13.846-5.934 23.736-3.956 20.77 10.879 42.528-1.978 52.418-21.759 6.923-20.769-5.934-48.461-26.704-54.395-18.791-8.902-46.483 4.945-53.407 26.703-2.967 16.813-12.857 23.736-25.714 31.648-82.088 44.506-164.176 94.946-247.253 142.418A7295.019 7295.019 0 0 1 241.374 527.2z"/></svg>