<svg xmlns="http://www.w3.org/2000/svg" viewBox="0 0 1000 1000"><path d="M468.393 144.855c10.993 2.443 25.65 8.55 37.865 14.658 54.965 15.879 107.487 35.422 161.231 51.3 9.772 7.33 21.986 4.886 26.872-9.771 17.1-32.98 34.2-67.18 51.3-101.38 2.444-7.33 2.444-14.658-6.106-15.88-50.08-28.093-102.602-47.636-158.789-52.522-118.48-9.771-227.19 9.772-324.906 75.73-73.287 50.08-145.352 103.824-189.325 186.882-21.986 41.53-45.193 85.502-56.186 134.36 0 9.771 0 14.657 10.993 18.322 40.308 13.436 81.837 17.1 123.366 26.871 9.772 2.443 19.544-1.221 24.43-9.771 4.885-8.55 6.107-13.436 8.55-20.765 19.543-57.408 42.75-113.595 62.293-172.224 2.443-6.108 2.443-7.329 7.33-17.1 0 17.1 0 28.093 4.885 42.75 0 2.443 1.221 7.329 3.664 7.329 19.543 0 17.1 14.657 19.543 28.093 2.443 10.993 2.443 23.208 7.33 32.98 9.77 25.65 9.77 52.522 2.442 78.172-9.772 14.658-14.657 29.315-23.207 41.53-8.55 20.764-8.55 20.764 10.993 26.871 63.515 19.544 125.809 30.537 189.324 47.637 6.108 2.443 10.993 3.664 20.765 7.329-6.107 7.328-10.993 14.657-14.657 19.543 4.885 8.55 3.664 8.55 0 29.315-4.886 25.65-36.644 40.308-63.516 32.979-64.737-23.208-129.474-41.53-192.989-62.294-21.986-7.329-21.986-4.886-36.643 10.993-20.765 23.208-41.53 47.637-67.18 64.737-19.543 17.1-45.194 24.429-69.623 39.086 12.215 23.208 24.43 47.637 37.865 70.844 68.401 87.945 152.681 153.903 261.39 181.996 79.395 20.765 157.568 23.208 236.962 7.33 95.273-19.544 180.774-56.188 254.062-125.81C941.094 727.487 998.502 594.349 994.838 435.56c-3.665-62.294-26.872-117.26-57.408-171.004-2.443-8.55-9.772-8.55-13.436-1.221-14.658 9.772-30.537 18.322-45.194 23.208-39.086 13.436-75.73 20.764-114.816 14.657-13.436 0-18.322 6.107-24.43 17.1-10.992 34.2-24.428 69.623-39.086 102.602-10.993 30.536-25.65 59.851-37.865 90.387-9.771 24.43-37.865 40.308-65.958 24.43l-41.53-24.43c17.1-34.2 29.315-68.4 47.637-101.38 13.436-30.536 25.65-61.072 41.53-91.609 2.442-8.55 0-14.657-10.994-17.1-10.993-2.443-19.543-4.886-30.536-7.329-28.093-6.107-52.522-17.1-67.18-40.308-14.657-15.878-21.986-32.979-40.307-46.415-1.222-3.664-1.222-8.55-4.886-14.657 4.886 0 12.214 0 14.657 2.443h4.886c3.664 0 3.664-2.443 3.664-2.443-14.657-17.1-30.536-32.98-45.193-47.637zM5.463 521.062c-2.443 48.858 4.886 90.387 19.543 134.36 0 3.664 8.55 6.107 10.993 6.107 6.107 0 7.329-2.443 10.993-6.107 34.2-24.43 48.858-61.073 61.073-96.495 3.664-3.664-2.443-12.215-4.886-14.657-30.536-8.55-64.737-15.88-94.052-28.094-3.664 2.443-3.664 4.886-3.664 4.886zm163.674 240.626c15.88 6.107 30.537 14.657 47.637 19.543 62.294 18.322 129.474 20.765 192.989 12.214 119.702-15.878 232.076-59.85 327.349-134.36 76.951-59.85 135.58-134.359 152.681-232.075 3.664-2.443 3.664-6.107 4.886-9.771 3.664 7.328 7.329 9.771 9.771 15.879 35.423 108.709 13.436 199.096-73.287 276.047-59.85 53.744-128.252 92.83-202.76 118.481-98.938 34.2-196.654 54.965-296.813 54.965-13.436 0-28.093-2.443-39.086-19.543 8.55 0 15.879 0 23.207-3.664h21.986v-2.443c-6.107-2.443-7.328-6.107-12.214-6.107-24.43 3.664-47.637-3.665-69.623-18.322-30.536-20.765-61.072-42.75-86.723-70.844zm212.533 101.38c19.543-6.107 45.193 12.215 61.072-6.107-10.993-7.329-52.522-6.107-61.072 6.107zm373.763-120.923c0 3.664 4.886 6.107 4.886 6.107 12.215-8.55 25.65-19.543 40.308-29.315-2.443-2.443-2.443-2.443-6.107-3.664-13.436 8.55-24.43 18.321-39.087 26.872zm20.765-533.774c-6.107 12.214 0 21.986 9.772 23.207 25.65 6.108 52.522 8.55 75.73 14.658 14.657-4.886 28.093-4.886 40.308-8.55 9.771-3.665 14.657-7.33 4.885-17.1l-83.058-83.06c-8.55-7.328-14.658-7.328-17.1 4.886-8.55 20.765-19.544 43.973-30.537 65.959z"/></svg>