<svg xmlns="http://www.w3.org/2000/svg" width="1000" height="1000">
  <path d="M5 500.496c0 271.98 220.55 494.507 495.496 494.507 271.98 0 494.507-220.55 494.507-495.496C995.003 227.528 773.464 5 500.496 5 226.54 5 5 225.55 5 500.496zm151.32 100.88c-.99-11.869 6.922-22.748 19.78-26.704 9.89-2.967 21.758 5.934 23.736 17.802l1.978 1.978h65.275l3.956-4.945c0-4.945 3.956-6.923 3.956-10.879 0 0 2.967 0 1.978-1.978l-42.528-54.396c-.989-.989-.989 0-1.978 0-14.835 0-29.67-.989-30.66-15.824-.988-10.879 5.935-23.736 18.792-24.725 11.868-.99 24.725 5.934 25.714 15.824.99 7.912 0 11.868-5.934 17.802v2.967l3.956 3.956 36.594 49.451c.989 1.978 1.978.99 3.956.99 3.956 0 5.934-1.979 10.88-1.979 1.977 0 1.977 0 1.977-1.978l9.89-57.363 9.89-50.44c.99-3.955 0-3.955-1.978-3.955-10.879 0-13.846-13.847-11.868-24.726 1.978-8.901 7.912-15.824 19.78-17.802 11.869-1.978 24.726 8.901 24.726 22.747 0 9.89-8.901 21.759-20.77 21.759-1.977 0-3.955 0-3.955 1.978l-9.89 63.296-8.902 46.484s0 .99 1.978.99l8.901 6.922 11.869-11.868 48.461-39.56s1.978-.99 0-2.968c-9.89-9.89 2.967-28.68 17.803-30.659 12.857-1.978 25.714 7.912 25.714 20.77 0 13.846-12.857 23.736-25.714 23.736-4.945 0-6.923-3.956-9.89-3.956l-1.979-1.978-60.33 50.44 6.924-1.979 139.45-32.637c1.979 0 1.979-.99 1.979-.99 0-6.922 0-10.878 3.956-14.834 1.978-1.978 0-3.956 0-3.956l-40.55-45.495-90-106.814c-.99-1.978-.99-1.978-2.967-1.978-8.901 0-16.813 1.978-24.726-5.934-1.978-1.978-1.978 0-3.956 1.978l-36.593 28.682-15.824 13.846c-1.286.593-1.78.494-1.88.198l-.098-.1v-.098c5.934 13.846-.99 28.681-14.836 31.648-13.846 2.967-24.725-5.934-26.703-18.791-1.978-10.88 5.934-23.736 20.77-23.736 5.933 0 8.9.989 14.835 3.956 1.978.989.989.989 2.967 0l53.406-43.517c0-1.978-.989-4.945-.989-7.912l-1.978-2.967c0-1.978 0-1.978-.989-1.978l-22.747-2.967-20.77-2.967s-.988 0-.988 1.978c0 11.868-12.858 14.835-22.748 14.835s-18.79-7.912-20.769-17.802c-2.967-12.857 5.934-25.715 18.791-26.704 11.868-.989 25.715 6.924 25.715 19.78h1.978l28.681 5.935 13.846.989c1.978 0 1.978 0 1.978-.99l2.967-5.933c0-1.978 1.978-2.967 0-3.956l-55.384-48.462-27.693-24.725c-1.978-1.978-1.978-1.978-2.967 0-6.923 13.846-33.626 0-35.604-16.814-1.978-13.846 7.912-25.714 21.758-25.714 11.868 0 22.747 8.901 22.747 19.78 0 3.956-1.978 8.901-1.978 12.857 0 1.979-1.978 1.979 0 3.957l83.077 75.165c1.978 1.978 1.978 1.978 2.968 0l2.967-1.978c1.978-1.978 0-1.978 0-2.967l-23.737-76.155c-.989-1.978-.989-3.956-2.967-3.956-11.868 0-21.758-6.923-23.736-18.79-1.978-9.891 5.934-21.76 15.824-23.737 12.857-2.967 25.714 3.956 28.681 17.802 1.978 9.89-3.956 15.824-9.89 21.758-1.978 1.978-1.978 1.978-1.978 2.967l25.715 77.144c.989 1.978.989 2.967 1.978 1.978h4.945c.989 0 0 0 .989-1.978l9.89-32.638 15.824-57.363c.99-1.978 0-2.967-.989-2.967-9.89 0-11.868-12.857-11.868-20.77 0-10.878 5.934-16.812 13.846-19.78 13.846-4.944 28.682 2.968 30.66 17.803 1.978 13.846-8.902 25.714-22.748 25.714-1.978 0-1.978 0-1.978.99l-24.725 90.989c-.99 1.978 0 1.978 2.967 3.956l3.956-3.956 94.945-123.627c.99-1.978 1.978-.99 0-2.967-11.868-11.868-.989-32.638 16.814-35.605 13.846-1.978 25.714 9.89 25.714 22.748 0 12.857-11.868 23.736-25.714 21.758l-6.923-1.978c-1.979 0-2.968-.99-3.957 0l-44.505 58.352-52.418 67.253c-1.978 1.978-1.978 1.978 0 3.956 3.956 3.956 3.956 5.934 3.956 10.879 0 .989 1.978.989 2.967.989l27.693-.99 19.78-.988 26.703-1.978 5.934-1.978s1.978 0 1.978-1.978c0-9.89 9.89-16.813 20.77-16.813 11.868 0 19.78 6.923 21.758 18.79 1.978 11.869-5.934 22.748-15.824 23.737-10.88.99-26.704-.989-26.704-12.857 0-1.978 0-2.967-3.956-2.967l-26.703.989-17.802 1.978-26.704.989-6.923 1.978c-.989 0-.989 0-.989.989l-1.978 4.945c0 .99-.989 1.978 1.978 2.967l140.44 75.165c1.978.99 1.978 0 2.967-.989 7.912-7.912 14.835-8.901 23.737-5.934 6.923 1.978 12.857 8.901 14.835 16.813 3.956 15.825-9.89 28.682-25.715 25.715-10.879-1.978-16.813-13.846-16.813-26.704 0-.989 0-1.978-1.978-2.967l-133.517-71.209-1.978-1.978v1.978L477.75 506.43l9.89 10.88c.989.988.989 0 1.978 0h26.703c1.978 0 2.967 1.977 3.956 0l128.572-151.32.99-1.978c.988-2.967 1.977-3.956-.99-5.934h-.989l-31.648 5.934-49.45 9.89c-.99 0-1.979 1.978-1.979 3.956 0 9.89-7.912 17.803-16.813 20.77-13.846 4.945-26.704-5.934-27.693-18.792-.989-11.868 5.935-21.758 13.847-24.725 10.879-3.956 28.681 0 28.681 12.857h2.967l80.11-16.813c1.978 0 1.978 0 1.978-1.978l.99-5.934c0-1.978 0-2.967-.99-3.956l-111.758-52.418-25.715-12.857c-.989 0-1.978 0-1.978.989 0 9.89-14.835 9.89-22.747 7.912-9.89-2.967-14.835-8.901-17.802-17.802-3.956-12.857 8.9-26.704 21.758-26.704 15.824 0 22.747 13.847 22.747 26.704 0 .989 0 1.978 1.978 2.967l135.495 65.275c2.967.989 3.956 1.978 3.956 0 1.978-3.956 3.956-3.956.99-7.912L566.76 203.79c-.989-1.977-.989-1.977-1.978-1.977-15.824 0-26.703-1.978-30.66-15.824-3.955-12.858 5.935-24.726 19.78-26.704 11.87-1.978 24.726 7.912 24.726 21.759 0 4.945 0 10.879-5.934 13.846-1.978.989-.989 2.967 0 4.945l75.165 103.846 12.857 18.792c.99 1.978.99 2.967 2.968.989 1.978-1.978 2.967 0 2.967-1.978l-6.924-36.594-10.879-51.429v-3.956c0-1.978-2.967-.989-5.934-1.978-8.9-2.967-15.824-7.912-17.802-17.802-1.978-11.868 5.934-20.77 14.835-24.725 11.868-4.945 25.715 3.956 29.67 18.79 2.968 9.891-3.955 14.836-11.868 22.748-1.978 1.978-1.978.99-1.978 2.967l13.847 67.253 2.967 22.748c0 1.978 1.978 1.978 2.967 1.978l4.945.989c.989 0 .989 0 1.978-.99l19.78-50.44 11.868-28.68c.99-.99 0-2.968-.989-3.957-6.923-6.923-8.9-11.868-7.912-20.769.99-9.89 5.934-15.824 14.835-17.802 12.858-2.967 26.704 3.956 28.682 17.802 1.978 14.835-10.88 24.725-23.737 24.725-1.978 0-2.967 0-3.956 1.978l-32.637 78.133c0 .989 0 2.967 1.978 2.967l2.967 3.956 10.88-9.89 83.076-67.253c1.978-.99 1.978-1.978.99-5.935-2.968-13.846 2.966-26.703 17.802-30.659 13.846-3.956 23.736 8.901 24.725 22.747.989 13.847-10.88 21.759-24.725 21.759-3.956 0-6.924-.99-9.89-3.956-1.979-1.978-3.957 0-3.957 0l-92.967 77.143.99 8.9h3.955l28.682-2.966 25.714-3.956h.989c1.978-9.89 5.934-15.824 15.824-18.792 12.857-3.956 24.726 4.946 28.682 18.792 2.967 9.89-5.935 21.758-16.814 24.725-10.879 2.967-25.714-4.945-25.714-14.835 0-1.978-1.978-1.978-2.967-1.978l-39.56 4.945-13.847.989c-2.967 0-2.967 0-2.967 2.967l-2.967 7.912c0 .99 0 .99.99 1.978l51.428 34.616 12.857 9.89c1.978.989.989 0 2.967-.99 7.912-3.955 13.846-6.922 21.758-2.966 8.901 3.956 13.847 9.89 13.847 17.802 0 13.846-10.88 26.703-23.737 23.736-11.868-2.967-19.78-9.89-19.78-20.769 0-2.967 1.978-4.945 1.978-8.901 0-1.978 0-.99-1.978-1.978l-63.297-44.506c-3.956 1.978-7.912 3.956-9.89 5.934h-1.978c-2.967 0-2.967 1.978-2.967 3.956l2.967 23.737 3.956 24.725 1.978 22.747 2.967 18.792c0 1.978.989 1.978 2.967 1.978 3.956 0 8.901 2.967 12.857 5.934 6.923 4.945 7.912 13.846 4.945 21.758-2.967 8.901-8.9 13.846-17.802 14.835-11.868.99-23.736-5.934-25.714-18.791-1.978-10.88 4.945-22.747 13.846-22.747 1.978 0 1.978-.99 1.978-2.967l-3.956-26.704-1.978-24.725-3.956-22.747-.99-15.825c0-1.978-.988-1.978-2.966-1.978-3.956 0-3.956-1.978-5.934 3.956l-47.473 119.671v1.978l2.967 1.978c5.934 5.934 8.901 13.846 7.912 22.748-.989 7.912-8.901 13.846-18.791 15.824-11.868 1.978-24.726-5.934-25.715-19.78-.989-12.858 7.913-24.726 21.759-24.726 3.956 0 4.945 0 5.934-1.978l42.526-108.79v-1.979l-72.198 85.056-50.44 57.363c-.988.989 0 2.967 0 4.945 0 5.934 4.946 7.912 4.946 14.835 0 .989.989.989 1.978.989l136.484 32.637 5.934 1.978h3.956c7.912 0 9.89-10.879 18.791-11.868 5.934-.989 11.868 3.956 17.802 3.956 1.978 0 .99 1.978 2.967 0l59.341-57.363c1.978-1.978 0-1.978 0-2.967 0-18.79 1.978-31.648 18.792-34.615 10.879-1.978 21.758 8.901 22.747 19.78.989 11.868-5.934 22.747-17.802 24.725-5.934.99-10.88 0-16.814-2.967-1.978-.989-.989-1.978-2.967 0l-58.351 57.363c-1.979 1.978-1.979 1.978 0 3.956l1.978 9.89c0 1.978 1.978 1.978 3.956 1.978h71.209l1.978-4.945c3.956-8.9 11.868-14.835 20.769-14.835 14.835 0 24.725 7.912 21.758 26.704-1.978 10.879-10.879 17.802-21.758 17.802-9.89 0-21.758-5.934-21.758-15.824 0-1.978-.99-1.978-2.967-1.978h-71.21c-1.977 7.912-5.934 13.846-11.868 17.802v1.978l28.682 56.374c.989 1.978.989.989 1.978.989l5.934-.99c15.824.99 22.747 12.858 21.758 24.726-.989 13.846-13.846 22.747-27.692 19.78-8.901-1.978-14.835-7.912-15.824-16.813-.99-8.901-.99-14.835 6.923-22.747 1.978-1.978.989-.99 0-1.978L726.98 645.88l-9.89-20.769-1.978-1.978h-5.934c-.989 0-2.967 1.978-2.967 3.956l-1.978 22.747-4.945 34.616-2.967 34.615-3.956 33.627c0 1.978 0 2.967.989 2.967 8.901 0 12.857 11.868 12.857 20.77 0 11.867-6.923 20.768-18.791 22.746-16.813 2.968-26.704-13.846-23.736-28.68 1.978-8.902 8.9-15.825 17.802-15.825.989 0 2.967 0 2.967-1.978l2.967-23.737 4.945-34.615 1.978-32.638 5.934-36.593c0-1.978 0-1.978-.989-1.978-6.923 0-10.88-7.912-16.813-13.846-1.978-1.978-.99-1.978-1.978-1.978l-88.022 19.78c-3.957.989-3.957.989-5.935 5.934-3.956 10.88-13.846 21.758-26.703 18.791-11.868-2.967-16.813-14.835-15.824-26.703.989-7.912 8.9-15.824 18.791-17.802 8.901-1.978 22.747 1.978 22.747 11.868 0 1.978.99 1.978 2.967 1.978l75.166-16.813 14.835-3.956h-1.978l-63.297-16.814-77.143-17.802c-1.978 0-2.967 0-2.967.99 0 9.89-10.88 15.823-17.803 15.823-.989 0-2.967.99-2.967 1.978V617.2l1.978 98.901v39.56l6.923 4.946.99-1.978 77.143-78.132c1.978-1.978 1.978-2.967 0-2.967-5.934 0-1.978-9.89-1.978-11.868 0-15.825 11.868-23.737 24.725-22.748 11.868.99 20.77 11.868 19.78 23.737-.989 15.824-22.747 29.67-34.615 17.802-1.978-1.978-.99-1.978-2.967 0l-76.154 77.143c-2.967 2.967-3.956 3.956-.99 5.934 1.979.989.99 2.967 2.968 1.978l53.406-19.78c1.978-.99 1.978-.99 1.978-2.967l.99-7.912c1.977-11.869 11.868-16.814 24.725-15.825 11.868.99 19.78 13.847 18.791 26.704-.989 8.9-8.901 14.835-18.791 15.824-7.912.989-15.824-1.978-21.759-7.912-1.978-1.978-.989-2.967-2.967-1.978l-8.9 4.945-44.506 14.835c-.99 0-.99.99-.99 1.978 0 5.934-1.977 7.912-1.977 11.868 0 1.978 0 2.967 1.978 3.956l56.373 30.66h2.967c3.957-5.934 9.89-7.912 17.803-7.912 13.846 0 21.758 13.846 20.769 25.714-.989 11.868-14.835 22.747-26.703 18.791-13.847-4.945-16.814-15.824-16.814-27.692 0-.99 0-1.978-.989-2.967l-57.362-30.66c-.99 0-1.978-1.978-1.978 0 0 4.946-9.89 8.902-16.814 8.902-.989 0-.989.989-.989 1.978v49.45c0 .99-.989 1.978.99 2.967 9.89 4.945 17.802 8.901 17.802 19.78 0 8.902-4.946 16.814-12.858 21.759l-7.912.989h-2.967l-7.912-.99c-7.912-4.944-12.857-12.856-12.857-21.757 0-10.88 6.923-19.78 17.802-19.78 1.978 0 1.978-1.979 1.978-2.968v-49.45c0-.99-1.978-.99-2.967-1.978-4.945-4.945-10.879-3.956-15.824-8.902-.99-.989-.99-.989-1.978 0l-58.352 30.66c-.989 0-.989 1.978 0 2.967 8.901 8.901-3.956 23.736-16.813 27.692-12.857 3.956-25.715-6.923-27.693-18.79-1.978-11.87 7.913-25.715 20.77-25.715 6.923 0 11.868 1.978 17.802 7.912 1.978 1.978 1.978.989 2.967 0l57.363-30.66c1.978-.989 1.978-1.978 0-3.956-.99-.989-.99-5.934 0-9.89.989-2.967-.99-2.967-1.978-2.967l-61.32-20.77c-1.977-.988-2.966 0-2.966 1.979 0 7.912-12.857 9.89-23.736 7.912-6.924-.989-14.836-7.912-15.825-16.813-.989-11.868 5.934-23.737 16.814-25.715 13.846-2.967 25.714 7.912 25.714 20.77 0 .989 0 2.967 1.978 4.945 0 0 .989 0 2.967.989l58.352 19.78h1.978l3.956-5.934 4.945-2.967c.989-1.978 1.978-2.967.989-4.945l-17.802-41.539-30.66-71.209c-.989-.989-1.978-.989-2.967-.989-11.868 0-20.769-4.945-23.736-11.868-5.934-14.835 2.967-29.67 17.802-31.648 12.857-1.978 24.726 6.923 24.726 20.769 0 7.912-1.978 11.868-7.913 17.802-1.978 1.978-1.978 1.978-1.978 2.967l47.473 108.792.99.989v-.99l-.99-108.79v-55.386c0-.989 0-1.978-.989-1.978-9.89 0-13.846-9.89-19.78-15.824-1.978-1.978-1.978-.989-2.967-.989L325.44 600.387c-1.978 0-1.978.989-1.978 2.967l-1.978 5.934c-1.978 0 0 .989 0 .989l52.417 37.582 9.89 5.934c1.979.99.99.99 2.968 0 16.813-8.9 33.626-4.945 36.593 11.869 1.978 12.857-5.934 24.725-18.791 26.703-11.868 1.978-20.77-5.934-25.715-17.802-1.978-4.945 1.978-7.912 1.978-12.858 0 0 1.978-.989 0-1.978L317.53 617.2c-.99-.99-.99 0-1.979 0-4.945 0-5.934 5.934-10.879 5.934v1.978l2.967 17.802 3.956 32.638 5.935 35.604 5.934 33.627 1.978 7.912c0 1.978 0 1.978 1.978 1.978 6.923 0 12.857 3.956 17.802 9.89 9.89 11.868 0 32.637-15.824 34.615-12.857 1.978-24.726-5.934-25.715-19.78-.989-9.89 2.967-23.736 12.858-23.736.989 0 .989 0 .989-.99l-5.935-31.648-3.956-34.615-5.934-34.616-3.956-26.703v-1.978l-8.9-1.978-1.979 1.978-26.703 55.385c-.99 1.978-.99.989 0 1.978 7.912 7.912 10.879 13.846 6.923 22.747-3.956 8.901-6.923 14.835-15.824 16.813-12.858 2.967-24.726-5.934-26.704-19.78-1.978-13.846 7.912-24.725 21.758-24.725l4.946.989c.989 0 .989 0 .989-.99l28.681-54.395c.989-1.978 0-1.978-1.978-3.956-5.934-5.934-7.912-9.89-9.89-17.802h-67.253s-1.978 0-1.978 1.978c0 9.89-11.868 15.824-22.748 15.824-9.89 0-19.78-7.912-20.769-17.802z" style="fill:#000;fill-opacity:1;fill-rule:nonzero;stroke:none;"/>
</svg>
