<svg xmlns="http://www.w3.org/2000/svg" width="1000" height="1000">
  <path d="M500.496 5C223.572 5 5 229.506 5 500.002c0 276.43 224.506 495.001 495.002 495.001 276.43 0 495.001-224.506 495.001-495.001C995.003 226.539 773.464 5 500.496 5zM116.76 537.09c-6.923-124.616 34.615-230.44 123.626-312.529 72.198-66.264 155.276-101.868 252.2-101.868 239.34 0 430.22 221.539 384.726 446.045-28.682 140.44-108.792 237.364-240.33 291.76-64.287 26.703-148.353 35.604-213.628 18.79-19.78-4.944-29.67-19.78-26.703-36.593 5.934-15.824 17.802-20.77 38.571-18.791 56.374 11.868 106.814 8.9 155.275-6.923C718.08 775.442 796.211 690.387 818.96 561.815c30.66-175.056-79.121-343.188-256.155-376.814-181.979-34.616-363.957 90-385.716 273.957-4.945 41.538-2.967 82.088 6.924 124.615 4.945 20.77-1.978 39.56-17.803 45.495-36.593 6.923-41.538-39.56-49.45-91.978zm93.956-57.363c3.956-100.88 59.34-184.946 149.341-229.451 104.836-52.418 210.66-48.462 306.595 18.79 23.736 16.814 45.494 40.55 64.286 62.309 15.824 18.791 15.824 35.604 0 47.472-13.847 12.858-28.682 7.912-43.517-11.868-36.594-48.461-82.088-76.154-134.506-89.011-93.956-22.747-197.803 16.813-248.243 92.967-56.373 85.055-50.44 199.781 10.88 274.946C376.868 721.046 455 750.717 545 731.925c87.034-17.802 145.386-71.209 176.045-159.23 0-.99.99-2.968 1.978-5.935 3.956-10.88 11.869-32.637 35.605-32.637 24.725 3.956 28.681 23.736 16.813 52.417-57.361 188.902-277.911 268.023-440.11 155.276-80.11-55.385-124.616-145.385-124.616-262.09zm135.495-55.385c-2.967-18.791 14.835-29.67 37.582-28.681 10.88 0 12.858-1.978 12.858-14.836-.99-20.769 10.879-36.593 28.681-36.593 18.791 0 31.649 11.868 31.649 35.604 0 6.923 0 10.88.989 14.836h92.967c6.923 0 11.868 0 15.824.989 19.78 1.978 30.66 12.857 29.67 29.67 0 15.824-12.857 26.703-29.67 26.703-18.791.99-88.022.99-103.846.99-4.945 0-5.934.988-5.934 7.912v30.659a613.721 613.721 0 0 0 0 60.33c1.978 42.528 45.494 65.275 80.11 40.55 6.923-1.979 28.681-27.693 53.406-1.979 10.88 14.836 8.902 31.649-7.912 45.495-33.626 27.692-72.198 35.605-113.736 20.77-43.517-15.825-72.198-54.396-73.187-101.87 0-30.659 0-60.329.989-88.021 0-13.847-.99-14.836-9.89-13.847h-4.946c-21.758-.989-35.604-10.879-35.604-28.681z" style="fill:#000;fill-opacity:1;fill-rule:nonzero;stroke:none;"/>
</svg>
