<svg xmlns="http://www.w3.org/2000/svg" viewBox="0 0 1000 1000"><path d="M801.272,577.462V892.72c-28.824,32.427-66.654,55.845-115.294,72.058C639.139,982.793,586.9,990,529.251,990c-102.686,0-187.354-32.427-255.81-99.081-52.243-48.64-84.669-108.09-97.279-176.545H134.728V660.33h36.029V629.705H134.728V575.661h43.235c10.809-63.052,41.434-120.7,90.074-169.338,27.022-27.023,55.845-48.64,88.272-63.052-7.206-14.412-14.412-28.822-18.015-45.035q-2.7-13.512-5.4-27.023V251.4c0-7.206,0-12.61,1.8-18.015,0-3.6,3.6-7.206,7.206-9.007s7.206,0,9.007,1.8a162.38,162.38,0,0,1,18.015,16.214c1.8,1.8,5.4,3.6,7.205,5.4,3.6,1.8,9.008,1.8,10.809-1.8,1.8-1.8,1.8-3.6,1.8-5.4V220.772c0-9.007,0-16.213,1.8-25.221,1.8-21.617,5.406-43.235,12.611-64.852,5.4-19.817,14.412-37.831,25.222-55.846,9.006-12.61,19.815-27.022,34.227-36.03C473.4,28.015,489.617,20.809,505.83,13.6c3.6,0,7.207-1.8,10.81-3.6,1.8,0,5.4,0,7.205,1.8s1.8,3.6,1.8,5.4c-1.8,5.4-1.8,9.007-3.6,14.412s-1.8,12.61-3.6,18.014c0,5.405-1.8,10.809-1.8,18.015V83.86c0,12.61,1.8,27.022,7.205,37.831,1.8,9.008,7.207,16.213,10.809,23.419a130.828,130.828,0,0,0,16.214,14.412,25.014,25.014,0,0,0,19.815,3.6,30.442,30.442,0,0,0,18.015-5.4,35.34,35.34,0,0,0,16.213-16.214c1.8-1.8,3.6-5.4,5.4-7.206a1.765,1.765,0,0,1,1.8-1.8c1.8-3.6,9.006-3.6,10.807,0s5.4,9.007,7.207,12.61c5.4,10.809,10.807,23.419,12.609,36.03,0,3.6,1.8,9.007,1.8,14.411v12.611c0,14.411-1.8,28.823-7.205,41.434,0,1.8-1.8,3.6,0,7.2,1.8,5.406,7.205,9.008,14.412,7.207,1.8,0,1.8-1.8,3.6-1.8a54.738,54.738,0,0,0,12.611-9.007s1.8-1.8,3.6-1.8a3.874,3.874,0,0,1,3.6,3.6v18.014c0,7.208-1.8,12.611-1.8,18.015q-8.106,18.916-16.213,37.83c52.242,18.017,95.478,48.64,133.309,90.075L685.978,521.618C642.742,474.779,586.9,449.56,520.242,449.56c-57.646,0-106.286,19.815-144.118,57.645-21.617,21.617-36.029,45.038-45.036,70.257h55.845v54.044H320.279v30.625h66.654v54.044H329.286c9.008,28.824,25.221,54.046,46.838,75.663,37.832,37.83,88.274,55.845,151.323,55.845,57.649,0,100.882-10.808,127.9-32.427V716.175h-127.9V577.462Z"/></svg>