<svg xmlns="http://www.w3.org/2000/svg" viewBox="0 0 1000 1000"><path d="m5.647 612.235 81.744 302.32 302.32 80.446 37.627-38.926-127.156-125.858-101.206-27.248-40.222-150.511 268.584-269.882-96.015-96.016zm0-223.172 37.628 38.926 127.156-128.454 28.545-101.206 150.512-40.223L619.37 427.99l96.016-97.314L389.71 5 87.39 88.04zm280.263 281.56 326.972 324.378 301.023-80.446 80.446-302.32-37.628-37.628-127.156 127.156-28.545 101.206-147.917 40.223-269.882-268.585zm286.75-51.9 97.313 97.313L994.35 389.063 913.905 88.041 612.882 5 572.66 43.925l128.453 125.859 99.909 28.545 41.52 150.511z"/></svg>