<?xml version="1.0" encoding="utf-8"?>
<!-- Generator: Adobe Illustrator 26.0.1, SVG Export Plug-In . SVG Version: 6.00 Build 0)  -->
<svg version="1.1" id="Layer_1" xmlns="http://www.w3.org/2000/svg" xmlns:xlink="http://www.w3.org/1999/xlink" x="0px" y="0px"
	 viewBox="0 0 1000 1000" style="enable-background:new 0 0 1000 1000;" xml:space="preserve">
<path d="M964.3,471.4c-31.4,37.1-80,34.8-80,34.8H745c-28.4,0-40.5,36.3-17.6,53.3c35.9,26.8,64.5,48.2,71.6,53.8
	c22.7,17.9,28.7,40.6,28.7,40.6s8.7,33.7-12.5,58.8c-21.2,25.1-54,23.5-54,23.5H422.9c0,0-134.3,0.4-182.1,0
	c-47.8-0.4-62.1-37.5-62.1-37.5s-8.4-19.4-3.6-42.7c4.8-23.3,31.3-43.9,31.3-43.9s30.1-22.6,70-52.4c22.8-17,10.7-53.2-17.7-53.2
	c-54.3,0.1-112.7,0-144.8-0.2c-70.7-0.6-91.9-55.5-91.9-55.5s-12.4-28.7-5.3-63.2c7.1-34.5,46.4-65,46.4-65S434.8,44.1,452.9,32.2
	c15.9-10.5,41-11.9,46.9-12.1c0.8,0,1.5,0,2.3,0c30.7,1.4,47.1,12.9,47.1,12.9s357.5,264.7,391.1,291.2
	c33.6,26.5,42.4,60.1,42.4,60.1S995.7,434.3,964.3,471.4z M501.9,816.5c0,0-10.7,0.1-17.2,4.3s-139,103.6-139,103.6
	s-14,10.9-16.5,23.2s1.9,22.5,1.9,22.5s7.6,19.6,32.8,19.8s96.1,0,96.1,0h178.6c0,0,17.3,0.8,28.5-12.4c11.2-13.2,6.6-31.1,6.6-31.1
	s-3.2-12-15.1-21.4S519.1,821.1,519.1,821.1S513.1,816.9,501.9,816.5z"/>
</svg>
