<svg xmlns="http://www.w3.org/2000/svg" width="1000" height="1000">
  <path d="M5 500.496c0 89.011 22.747 172.089 67.253 249.232 44.506 74.176 103.846 133.517 178.023 178.022 77.143 44.506 160.22 67.253 250.22 67.253 89.011 0 172.089-22.747 249.232-67.253 74.176-44.505 133.517-103.846 178.022-178.022 44.506-77.143 67.253-160.22 67.253-250.22 0-89.012-22.747-172.09-67.253-249.232-44.505-74.177-103.846-133.517-178.022-178.023C672.585 27.747 589.508 5 500.496 5c-90 0-173.077 22.747-250.22 67.253-74.177 44.506-133.517 103.846-178.023 178.023C27.747 327.419 5 410.496 5 500.496zm129.56 67.253c-41.538-44.506-37.582-105.824 9.891-146.374 13.846-9.89 30.66-23.736 47.473-30.66 16.813-6.923 16.813-16.813 13.846-30.659-10.88-29.67-16.813-57.363-10.88-90.99 10.88-44.505 47.473-78.131 91.98-78.131 27.691 0 54.395 6.923 78.131 9.89 13.846 3.956 20.77 3.956 26.704-9.89 62.308-92.968 130.55-126.594 200.77-40.55 9.89 12.857 16.813 29.67 26.703 43.517 6.923 10.879 10.879 10.879 20.77 10.879 27.692-6.923 54.395-13.846 78.131-13.846 68.242 0 108.792 54.395 98.902 118.681-3.956 16.814-6.923 37.583-10.88 54.396-6.923 13.846-2.966 16.813 10.88 23.737 19.78 16.813 43.516 33.626 64.286 54.395 30.66 30.66 30.66 94.946-3.956 125.605-19.78 16.813-40.55 30.66-60.33 43.517-13.846 6.923-17.803 13.846-13.846 27.692 6.923 19.78 13.846 40.55 13.846 61.319 7.912 94.945-86.044 134.506-177.034 101.869-9.89-6.924-16.813-3.957-20.77 5.934-12.856 30.659-29.67 54.395-60.329 72.198-13.846 9.89-38.572 22.747-65.275 19.78-50.44-9.89-81.1-43.517-101.868-91.978-2.967-9.89-9.89-9.89-23.737-9.89-19.78 6.923-43.516 13.846-67.253 13.846-75.165 0-118.681-51.43-105.824-125.605 0-16.813 6.923-33.627 10.879-51.429 2.967-9.89 0-12.857-6.923-19.78-23.737-13.846-44.506-27.693-64.286-47.473zm54.397-44.506c12.857 9.89 26.703 20.77 43.516 30.66 13.846-23.736 16.814-47.473 13.846-71.21-7.912-44.505-30.659-38.57-57.362-2.966-13.847 16.813-17.803 29.67 0 43.516zM266.1 706.211c0 20.77 10.879 34.616 30.66 34.616 34.615 0 40.549-2.967 58.351-16.814-13.846-17.802-27.692-37.582-44.506-51.428-30.659-23.737-37.582-19.78-44.505 20.769zm3.956-420.331c-3.956 16.813-3.956 37.583 2.967 50.44 3.956 3.956 10.879 6.923 13.846 6.923 30.66-12.857 54.396-33.627 64.286-74.176-23.736 0-40.55-6.923-60.33-3.956-6.923 0-20.77 10.879-20.77 20.769zm37.582 288.792c-3.956 6.923-3.956 12.857 6.923 16.813 43.517 19.78 77.144 54.396 101.869 101.869 5.934 11.868 9.89 6.923 12.857 6.923 51.429-17.802 98.902-17.802 149.341 0 10.88 2.967 13.846-3.956 16.814-6.923 20.769-47.473 54.395-82.088 101.868-101.869 10.88-3.956 16.813-10.879 3.956-30.659-16.813-33.626-13.846-85.055 0-129.56 6.923-12.858 2.967-16.814-9.89-23.737-41.539-19.78-72.198-47.473-91.978-90.99-6.924-16.813-13.847-16.813-27.693-13.846-36.593 13.846-74.176 20.77-111.758 6.923-9.89-3.956-26.704-9.89-37.583-6.923-9.89 2.967-16.813 20.77-23.736 33.627-19.78 30.66-43.517 54.396-78.132 68.242-9.89 6.923-19.78 9.89-12.858 23.736 16.814 51.429 16.814 98.902 0 146.374zm142.418 199.781c13.847 13.846 19.78 30.66 30.66 40.55 12.857 16.813 33.626 16.813 47.473 0 9.89-9.89 16.813-19.78 23.736-33.627 2.967-2.967 0-13.846-3.956-13.846-30.66-12.857-64.286-9.89-97.913 6.923zm0-545.936c37.583 16.813 67.253 16.813 97.913 5.934 3.956-2.967 6.923-9.89 6.923-12.857-9.89-13.846-16.813-27.692-26.703-37.582-16.814-13.847-30.66-13.847-47.473 2.967-10.88 10.879-16.813 27.692-30.66 41.538zm206.704 502.42c23.737 2.967 40.55 5.934 61.32 5.934 13.846 0 20.769-5.935 23.736-16.814 2.967-23.736 0-43.516-9.89-64.286-37.583 13.847-58.352 37.583-75.166 75.165zm6.924-445.057c9.89 26.703 30.659 44.506 57.362 57.363 6.923 3.956 13.847 0 13.847-6.923 22.747-74.176 8.9-81.1-64.286-67.253-9.89 2.967-9.89 6.923-6.923 16.813zm108.791 173.078c-9.89 30.659-13.846 61.318 6.923 94.945 19.78-13.846 47.473-20.77 50.44-50.44 3.956-27.692-23.736-39.56-40.55-47.473-8.9-2.967-16.813-2.967-16.813 2.968z" style="fill:#000;fill-opacity:1;fill-rule:nonzero;stroke:none;"/>
</svg>
