<svg xmlns="http://www.w3.org/2000/svg" viewBox="0 0 1000 1000"><path d="M928.629 736.024c-25.132 37.152-34.967 40.43-75.397 26.225-6.556 0-16.39 0-20.762 4.371-89.602 50.265-179.204 103.808-267.714 154.073-8.742 8.741-14.205 18.576-14.205 25.132-6.557 28.41-25.133 49.172-51.358 49.172-28.41 0-49.172-20.762-52.45-49.172 0-15.298-6.556-16.39-16.39-25.132-87.418-50.265-177.02-103.808-262.251-149.702-9.835-8.742-20.762-9.834-33.875-4.37-25.132 9.834-49.172 0-62.284-20.762-12.02-19.67-6.556-48.08 13.112-62.285 14.206-9.834 14.206-19.669 14.206-34.967V360.131c0-14.205 0-24.04-14.206-30.596-19.668-18.576-25.132-43.708-13.112-65.562 13.112-19.67 37.152-31.689 62.284-19.67 13.113 6.557 24.04 1.094 33.875-4.37 85.231-53.543 169.37-98.344 253.509-151.887 15.298-5.463 21.854-12.02 21.854-30.596 0-24.04 21.854-39.337 37.152-49.172 9.835-4.37 19.669-4.37 31.689 0 24.04 9.835 41.523 28.41 41.523 59.007 0 8.741 6.556 15.298 12.02 18.576 87.417 50.264 177.019 105.993 266.621 158.443 4.371 1.093 14.206 1.093 16.391 1.093 38.245-15.298 60.1-1.093 79.768 25.132 6.556 9.834 8.742 20.762 0 30.596-6.556 9.834-16.39 19.669-25.132 31.689-1.093 6.556-9.835 13.112-9.835 21.854v302.681c0 6.556 3.278 13.113 8.742 19.669 9.834 9.834 16.39 16.39 26.225 27.318 6.556 12.02 4.37 21.854 0 31.688zm-799.865-89.602c0 12.02 5.463 27.318 18.576 37.152 10.927 7.65 15.298 24.04 17.483 33.874 39.338 45.894 48.08 40.43 109.272 77.583 21.854 9.834 21.854 9.834 21.854-12.02V569.932c0-27.318 2.185-40.43 26.225-51.357 25.132-9.835 25.132-14.206 0-24.04-24.04-10.927-26.225-27.318-26.225-51.358v-217.45c0-20.76-3.278-24.039-21.854-14.204-30.596 20.761-61.192 39.337-91.788 55.728-9.835 6.556-14.205 13.112-17.484 28.41-2.185 9.835-10.927 24.04-20.761 33.874-9.835 6.557-15.298 16.391-15.298 26.226 5.463 52.45 0 101.622 0 148.608zm198.873 158.443c0 12.02 5.464 21.854 19.67 30.596 30.595 16.39 64.47 37.152 96.158 59.006 13.113 6.557 21.854 6.557 33.874 0 13.113-4.37 28.41-4.37 41.523 2.186 12.02 4.37 17.483 4.37 27.318-2.186 38.245-21.854 73.212-42.615 107.086-62.284 15.298-6.556 16.39-15.298 16.39-30.596V691.223c0-33.874-1.092-68.84 0-99.437 4.371-28.41-5.463-43.708-29.503-56.82-16.39-5.464-28.41-10.928-40.43 0-12.02 7.648-21.854 14.205-33.874 18.575-12.02 5.464-15.298 14.206-19.67 28.41-2.185 26.226-20.76 40.431-46.986 40.431-24.04 4.371-49.172-14.205-49.172-39.337-3.278-19.67-13.112-25.133-28.41-33.874-9.835-6.557-15.298-9.835-25.133-16.391-25.132-9.835-68.84 9.834-68.84 40.43zm0-485.164c0 40.43 0 78.675 3.279 119.106 0 6.556 0 21.854 6.556 25.132 30.596 24.04 40.43 24.04 74.304 6.556 24.04-18.576 32.782-15.298 38.245-41.523 0-28.41 25.133-40.43 49.172-40.43 26.225 1.093 44.801 16.39 46.987 44.801 4.37 8.742 4.37 12.02 4.37 15.298 20.762 12.02 40.431 28.41 64.47 34.967 14.206 4.37 30.597-13.113 49.173-19.669 4.37-3.278 5.463-15.298 5.463-18.576v-245.86c0-7.65-5.463-17.484-14.205-22.947-31.689-24.04-71.026-43.709-109.271-64.47-6.556-4.371-12.02-4.371-20.762 0-19.668 8.741-34.966 8.741-54.635 0-5.464-4.371-15.298-4.371-24.04 0-34.967 20.761-68.84 40.43-103.808 63.377-12.02 6.556-15.298 10.927-15.298 29.503 3.279 39.338 0 75.397 0 114.735zm91.788 189.04c6.557 9.834 45.894 20.76 55.729 20.76 12.02-5.463 25.132-6.556 40.43-5.463 18.576 5.464 50.265-1.093 59.006-10.927 3.279-4.37 3.279-4.37 3.279-8.742l-3.279-2.185c-8.741-12.02-40.43-21.854-55.728-18.576-13.112 4.37-28.41 4.37-43.708 0-9.835-3.278-49.172 6.556-55.729 18.576zm250.231-14.206c-19.668 9.834-19.668 14.205 4.371 24.04 25.133 10.927 28.41 24.04 28.41 49.172v213.078c0 20.762 0 24.04 19.67 14.206 27.317-18.576 55.728-33.874 81.953-52.45 14.205-6.557 24.04-15.298 24.04-31.69 4.37-9.834 9.834-24.039 20.761-30.595 9.834-6.556 14.205-13.113 14.205-28.41v-281.92c0-20.762 0-33.874-19.668-43.709-5.464-5.463-10.928-15.298-10.928-20.761 0-28.41-19.668-38.245-41.523-48.08-21.854-13.112-43.708-27.317-65.562-41.523-22.947-10.927-22.947-10.927-22.947 14.206v213.078c0 24.04-3.278 40.43-32.782 51.358z"/></svg>