<svg xmlns="http://www.w3.org/2000/svg" width="1000" height="1000">
  <path d="M500.496 5c272.968 0 494.507 221.54 494.507 495.002 0 270.495-218.572 495.001-495.001 495.001C229.506 995.003 5 776.431 5 500.002 5 229.506 223.572 5 500.496 5zM262.144 792.255c0 2.967.989 4.945 6.923 4.945h56.374c2.967 0 4.945-1.978 4.945-4.945V617.2l16.813 18.791 152.308 160.22c.99.99.99.99 2.967.99h70.22c2.967 0 5.934-2.968.99-9.89L390.715 586.54l170.11-212.639c1.978-2.967 0-6.923-3.956-6.923h-70.22c-.989 0-2.967 0-5.934 2.967l-150.33 188.902V210.715c0-4.945-.99-4.945-4.945-4.945h-56.374c-6.923 0-6.923 0-6.923 4.945zm368.902.99c0 1.977.99 3.955 4.945 3.955h65.275c2.967 0 3.956-1.978 3.956-3.956V568.738c0-32.637 4.945-61.319 24.725-90 22.748-32.638 50.44-48.462 86.045-48.462h19.78c2.967 0 5.934-.989 5.934-5.934v-51.429c0-3.956-.989-5.934-3.956-5.934-71.209 0-114.726 24.726-141.429 76.154v-71.209c0-2.967-.989-4.945-3.956-4.945h-57.363c-1.978 0-3.956 0-3.956 4.945z" style="fill:#000;fill-opacity:1;fill-rule:nonzero;stroke:none;"/>
</svg>
