<svg xmlns="http://www.w3.org/2000/svg" viewBox="0 0 1000 1000"><path d="M767.53 422.364c29.67 27.692 56.374 57.363 83.077 85.055C736.871 623.134 617.2 741.816 500.497 857.53c-27.693-25.714-53.408-56.374-85.056-83.077zM5 500.002c0 276.43 224.506 495.001 495.002 495.001 276.43 0 495.001-224.506 495.001-495.001C995.003 226.539 773.464 5 500.496 5 223.572 5 5 229.506 5 500.002zm146.374 3.461c27.693-25.714 55.385-53.407 85.055-81.099 25.715 27.692 53.407 57.363 79.121 85.055l-79.12 79.121c-27.693-23.736-57.363-53.406-85.056-83.077zm134.506-130.55c70.22-70.22 144.396-144.396 217.583-216.594 26.704 25.715 52.418 55.385 80.11 83.077-70.22 74.176-144.396 147.363-214.616 217.584-26.703-27.693-55.385-57.363-83.077-84.067zm5.934 280.88c-8.901-9.89-8.901-16.813 0-26.703 100.88-99.89 204.726-204.726 304.617-304.616 10.879-12.858 23.736-25.715 33.626-38.572 32.638 32.637 64.286 59.34 90 86.044C603.354 486.65 483.683 607.31 365.99 725.002c-5.934-7.912-16.813-16.813-26.703-27.692-15.824-12.857-30.66-29.67-47.473-43.517z"/></svg>