<svg xmlns="http://www.w3.org/2000/svg" width="1000" height="1000">
  <path d="m936.68 594.318-123.06 19.69V381.424c56.607 7.383 105.831 18.459 158.747 28.304 8.614 0 17.228 12.305 17.228 23.38 4.922 31.996 3.692 66.453 4.922 102.14 3.692 41.84-20.92 54.146-57.838 59.069zM5.12 566.014V433.11c0-6.153 9.845-18.46 14.767-20.92 54.146-9.845 104.6-19.69 161.208-30.765v235.043L24.809 586.934c-7.383 0-19.69-14.767-19.69-20.92zm9.845-209.201c31.995-57.838 60.299-115.676 89.833-173.514 4.922 1.23 7.384 4.923 12.306 7.384 18.459 46.762 38.148 92.294 56.607 143.98-50.454 9.844-98.447 19.689-147.671 28.303-4.922-2.461-7.384-4.922-11.075-6.153zm3.691 294.112c1.231-3.692 6.153-8.614 7.384-11.075l148.902 23.38c-20.92 54.147-39.38 100.91-57.838 146.442-4.922 1.23-7.384 3.691-9.845 4.922-30.765-52.916-59.068-109.523-88.603-163.67zm135.366 193.203c20.92-56.607 40.61-102.14 61.53-157.516l89.833 94.756c-45.532 20.92-93.525 39.379-151.363 62.76zm3.692-676.826c4.922-3.692 7.383-3.692 11.075-7.384 45.532 17.228 91.064 36.918 136.596 55.377-30.765 33.226-59.069 60.299-89.834 92.294-20.92-49.223-38.148-94.755-57.837-140.287zm24.611-61.53c56.608-29.534 110.754-60.3 179.667-93.525-12.306 61.53-19.69 108.292-28.304 163.669-50.454-20.92-98.447-38.149-145.21-57.838-2.46-3.692-2.46-8.614-6.153-12.306zm3.692 787.58c0-3.692 0-9.845 2.461-12.306 46.763-17.228 94.756-38.148 145.21-59.069l29.535 148.902c-3.692 2.461-4.923 6.153-9.845 9.845-56.607-29.534-113.215-57.838-167.36-87.372zm51.685-287.959V393.731c67.683 35.687 132.904 68.913 209.201 105.83-76.297 38.15-141.518 68.914-209.2 105.832zm9.845 45.532c61.53-31.996 123.06-61.53 183.358-91.064 3.692 1.23 4.923 4.922 6.153 6.153-28.303 60.299-59.068 119.368-89.833 183.358-34.457-33.226-66.452-63.99-99.678-98.447zm2.461-302.726c34.457-33.226 66.452-63.991 99.678-94.756 28.304 59.069 59.069 119.368 87.372 179.667-1.23 0-2.46 3.692-4.922 4.922-60.3-29.534-119.368-61.53-182.128-89.833zm129.212-164.9c11.076-55.376 18.46-105.83 29.535-155.054 1.23-8.615 15.997-14.768 25.842-22.151 1.23-2.461 2.461 0 6.153 0 44.301 0 88.603 1.23 137.827 4.922 12.305 52.916 25.842 109.523 39.379 172.283zm3.692 636.217h233.813c-9.845 49.224-18.459 102.14-29.534 152.594-2.461 7.383-14.767 18.459-24.612 19.69-28.304 3.691-57.838 3.691-84.911 2.46-66.452-2.46-66.452-2.46-76.297-65.22-6.153-33.227-11.075-70.145-18.459-109.524zm9.845-56.607c33.226-71.374 67.683-136.596 105.831-210.432 36.918 73.836 70.144 135.366 105.831 210.432zm0-526.694h211.662L498.588 446.646c-38.148-73.835-70.144-139.057-105.831-210.431zm157.516 263.347c75.066-36.918 143.98-72.605 214.123-107.062v214.124c-70.144-36.918-139.057-70.144-214.123-107.062zm8.614 66.452c1.23-1.23 2.461-4.922 3.692-8.614 61.53 31.995 120.598 60.299 185.82 93.525-35.688 31.995-68.914 57.838-103.37 87.372-27.073-52.915-55.377-111.984-86.142-172.283zm0-132.904c30.765-60.3 59.069-120.598 91.064-183.359 29.534 34.457 59.068 65.222 92.295 100.91-56.608 25.842-116.907 57.837-175.975 88.602-3.692-2.461-4.923-6.153-7.384-6.153zm73.836-413.48c70.144 19.69 126.75 50.455 183.358 95.987-52.915 18.459-102.14 39.379-151.363 60.299-12.306-54.146-20.92-100.909-31.995-156.286zm4.922 951.25c7.384-45.533 14.767-93.526 24.612-148.903 51.685 20.92 100.909 41.84 150.132 59.069 0 2.461 1.231 7.384 1.231 11.075-55.377 29.535-110.753 57.838-163.669 87.372-4.922-2.46-8.614-6.153-12.306-8.614zm51.685-755.585c50.454-19.69 98.448-38.149 153.824-60.3l-61.53 151.364c-33.226-30.765-59.068-57.838-92.294-91.064zm1.23 566.073c33.227-28.304 62.76-55.377 94.756-84.911 14.767 41.84 35.688 89.833 59.069 147.671-59.069-23.381-104.6-41.84-153.824-62.76zM822.235 663.23c51.685-11.075 99.678-20.92 147.671-28.304 3.692 3.692 7.384 4.923 11.076 7.384-29.535 57.838-59.069 114.445-87.372 171.052-3.692 0-9.845-2.46-13.537-2.46-18.459-46.763-35.687-93.526-57.838-147.672zm0-328.569c22.15-56.607 39.38-102.139 63.991-159.977l92.295 172.283c-2.462 3.692-4.923 7.384-8.615 11.076-47.993-7.384-95.986-15.998-147.67-23.382z" style="fill:#000;fill-opacity:1;fill-rule:nonzero;stroke:none;"/>
</svg>
