<svg xmlns="http://www.w3.org/2000/svg" viewBox="0 0 1000 1000"><path d="M935.86 725.031h35.452c32.413 0 28.361-27.348 7.09-54.697-50.645-54.697-93.187-115.471-139.78-166.116-6.078-8.104-6.078-13.168 0-21.271 36.464-40.517 70.903-89.136 109.393-134.717 9.116-12.155 15.194-21.27 30.387-37.477 13.168-20.258 5.065-35.452-21.27-35.452H904.46c-10.129 0-19.245 0-25.323 9.116-15.193 20.258-20.258 31.4-29.374 42.542-33.426 49.633-68.877 98.252-105.342 138.768-55.71 72.93-110.407 144.846-165.104 209.672-28.36 34.439-27.348 46.593 14.181 49.632h40.516c18.233 0 31.4-5.064 43.555-25.323 30.387-41.529 66.852-84.07 94.2-124.587 9.117-14.18 10.13-5.064 14.181 0 30.387 35.452 58.749 72.93 89.136 113.446 19.245 23.296 34.439 36.464 60.774 36.464zM5 341.14c0 12.155 6.077 17.22 18.232 17.22 25.323 1.012 46.594 0 65.84 0 11.141 0 16.206-5.065 16.206-17.22v-50.645c0-10.13-1.013-15.194-11.142-15.194H23.232C6.012 275.301 5 284.417 5 290.495zm138.768 358.568c0 20.259 9.116 25.323 23.297 25.323h48.62c10.128-5.064 15.193-5.064 15.193-25.323v-331.22c0-6.077 3.039-10.129 14.18-10.129h109.394c16.207 0 23.297-5.064 23.297-22.284v-36.464c0-19.245-7.09-24.31-23.297-24.31H172.13c-19.245 0-28.36 9.116-28.36 29.374V675.4zm287.665-11.141c0 25.322 12.155 31.4 37.478 31.4h21.27c25.323 0 30.388-8.104 30.388-31.4V299.61c0-29.374-28.361-24.31-65.839-24.31-22.284 0-23.297 9.116-23.297 29.374V675.4zm157-377.814c16.207 30.387 40.517 57.735 63.814 89.135 18.232 25.323 36.464 30.388 55.71 30.388 42.541 0 70.903-3.04 46.593-41.53-31.4-58.748-62.8-113.445-108.38-113.445h-47.607c-19.246 0-19.246 17.22-10.13 35.452z"/></svg>