<svg xmlns="http://www.w3.org/2000/svg" viewBox="0 0 1000 1000"><path d="M889.74 506.092c0 31.621-48.647 58.377-80.268 69.323-94.862 35.27-187.292 29.188-271.209-30.405-25.54-17.026-49.864-37.701-76.62-52.296-57.16-29.188-116.753-37.701-181.21-24.323-42.567 9.73-80.269 29.188-113.106 52.296-6.08 7.297-13.378 13.378-23.107 17.026-10.946 3.649-20.675 0-29.189-9.73-8.513-10.945-4.864-20.674 4.865-26.755 7.297-8.514 19.459-14.594 26.756-21.892 52.296-42.566 113.105-62.025 179.995-63.241 60.81 0 117.97 10.946 170.266 44.999 23.107 17.026 44.999 34.053 69.322 48.647 89.998 57.16 179.995 55.944 269.993 0 3.648-2.432 4.865-3.649 8.513-6.08 14.594-14.595 43.783-21.892 44.999 2.431zM121.112 369.88c3.649-65.674 19.46-127.7 53.512-186.076C237.866 81.644 326.647 22.052 444.617 8.674 588.127-9.57 704.88 40.294 792.445 154.616c62.026 81.484 86.35 177.562 66.89 279.722-1.216 9.73-7.297 19.459-14.594 24.323-60.809 41.35-126.483 54.729-195.805 41.35-45-7.297-80.268-26.755-116.754-52.295-27.972-18.243-55.944-41.35-87.565-54.729-91.214-36.485-182.428-31.62-268.777 20.676-10.945 7.297-24.323 17.026-38.917 26.756 0 1.216-2.433 0-6.081 1.216-7.297-24.324-10.946-48.648-9.73-71.755zm30.405 352.693V600.955c0-6.081 0-13.378 2.432-20.675 1.216-10.946 8.513-18.243 21.891-18.243 14.595 0 23.108 8.513 24.324 20.675v143.51c0 8.513 0 17.026-3.648 23.107-3.649 4.865-10.946 12.162-20.676 14.594-4.864 0-14.594-7.297-18.242-13.378-3.649-7.297-6.081-17.026-6.081-27.972zm89.997 20.675V551.091c0-23.107 9.73-40.134 25.54-40.134 15.81 0 23.108 13.378 23.108 40.134 3.648 31.621 0 64.458 0 96.079 0 31.62 3.648 64.457 0 96.078 0 24.324-7.297 37.702-23.108 35.27-15.81 0-25.54-13.379-25.54-35.27zm91.214 203.103c-1.216-132.564 0-262.696 0-395.26 0-8.513 0-17.026 3.649-26.756 3.648-7.297 8.513-17.026 23.107-14.594 19.459 0 21.891 7.297 21.891 19.459 3.649 4.865 1.217 234.723 1.217 420.8 0 19.458 4.864 43.782-15.81 44.998-25.54 0-34.054-13.378-34.054-48.647zm89.998-237.156V582.712c0-7.297 0-15.81 3.648-20.675 3.649-6.081 13.378-14.594 20.675-14.594 7.297 0 14.594 4.864 21.892 12.162 3.648 6.08 3.648 13.378 3.648 20.675v132.564c0 6.08 0 12.161-1.216 18.242-3.649 12.162-13.378 18.243-24.324 18.243-10.945-2.432-18.242-8.513-23.107-18.243-1.216-6.08-1.216-14.594-1.216-21.89zm91.213-87.565c2.433-14.594 9.73-21.891 24.324-21.891 13.378 0 21.891 8.513 24.324 23.107v20.675h2.432c-2.432 7.297 0 15.81-2.432 20.675-6.081 9.73-14.595 19.46-24.324 20.675-9.73 3.649-20.675-6.08-21.891-18.242-2.433-13.378-2.433-30.405-2.433-45zm89.998 259.047c-1.216-4.865 0-12.162 0-19.46V677.575c0-3.648-1.216-10.945 0-17.026 2.432-14.594 13.378-27.972 24.324-27.972 14.594 0 24.323 13.378 25.54 30.404v198.238c0 4.865 0 14.594-1.217 19.459-2.432 12.162-9.73 23.107-24.323 23.107-10.946 0-20.676-9.73-24.324-23.107zm89.997-42.567V673.926c1.217-18.243 12.162-30.405 24.324-30.405 14.594 0 25.54 12.162 25.54 27.972V838.11c0 7.298 0 13.378-1.216 17.027-2.433 13.378-9.73 21.891-23.108 24.324-13.378 0-21.891-10.946-24.323-23.108-1.217-4.865-1.217-10.945-1.217-18.243zm94.863-108.24c-2.433-31.62-2.433-58.377 0-87.565 0-14.594 9.73-20.675 23.107-20.675 14.594 1.216 21.891 9.73 21.891 24.324 2.433 10.945 0 25.54 0 38.917 0 13.378 2.433 26.756 0 40.134 0 14.595-7.297 21.892-21.89 21.892-13.379 2.432-23.108-3.649-23.108-17.027z"/></svg>