<svg xmlns="http://www.w3.org/2000/svg" viewBox="0 0 1000 1000"><path d="M362.267,437.627h48.021L362.267,587.692H308.029l-24.2-80.241-25.531,80.241H204.056L156.035,437.627h52.094l26.111,85.258,27.7-85.258h46.52l26.173,86.416Zm108.9,92.183h63.456V493.365H471.17V475.786h72.246V437.627H421.435V587.692H546.2V549.533H471.17Zm83.177-52.952h43.947V587.692h50.594V476.858h43.947V437.627H554.347Zm248.892-39.231v53.166H756.5V437.627H705.911V587.692H756.5v-55.31h46.735v55.31h50.593V437.627ZM1000,500c0,276.142-223.858,500-500,500S0,776.142,0,500,223.858,0,500,0,1000,223.858,1000,500Zm-22,0C978,250.785,775.971,48.757,526.757,48.757S75.513,250.785,75.513,500,277.542,951.243,526.757,951.243,978,749.215,978,500Z"/></svg>