<svg xmlns="http://www.w3.org/2000/svg" width="1000" height="1000">
  <path d="M749.728 72.253C673.277 27.45 590.2 5 500.496 5c-89.703 0-173.077 22.45-250.22 67.253-74.473 44.209-133.814 103.55-178.023 178.023C27.451 327.419 5 410.793 5 500.496c0 89.704 22.45 172.78 67.253 249.232 44.209 75.165 103.55 134.506 178.023 178.022 77.143 44.803 160.517 67.253 250.22 67.253 89.704 0 172.781-22.45 249.232-67.253 75.165-43.516 134.506-102.857 178.022-178.022 44.803-76.451 67.253-159.528 67.253-249.232 0-89.703-22.45-173.077-67.253-250.22-43.516-74.473-102.857-133.814-178.022-178.023zm-480.661 189.89s-1.978-3.955.989-3.955h479.672c2.967 0 2.967 1.978 1.978 3.956-18.791 40.55-220.55 525.166-240.33 577.584 0 2.967-3.957 2.967-4.946 0-1.978-6.923-236.374-575.606-237.363-577.584z" style="fill:#000;fill-opacity:1;fill-rule:nonzero;stroke:none;"/>
</svg>
