<svg xmlns="http://www.w3.org/2000/svg" viewBox="0 0 1000 1000"><path d="M500.496 5C223.572 5 5 229.506 5 500.002c0 276.43 224.506 495.001 495.002 495.001 276.43 0 495.001-224.506 495.001-495.001C995.003 226.539 773.464 5 500.496 5zM161.264 487.639c110.77-109.78 220.55-217.583 331.32-328.353 6.923-5.934 9.89-8.9 19.78-2.967 65.275 68.242 130.55 133.517 195.825 198.792 2.967 0 2.967 2.967 5.934 5.934-5.934 3.956-8.9 9.89-12.857 12.857-62.308 65.275-126.594 127.583-191.869 191.87-9.89 9.89-16.813 12.856-26.703 0-16.813-18.792-34.616-34.616-51.429-51.43-12.857-9.89-12.857-16.813 0-29.67 34.616-35.605 68.242-71.21 106.814-106.814 6.923-6.923 9.89-12.857 0-22.747-12.857-13.846-25.715-26.703-38.572-39.56-65.275 65.274-127.583 126.593-188.902 188.901 61.32 61.32 123.627 123.627 188.902 187.913 2.967-2.967 5.934-8.901 12.857-11.868 81.1-82.088 163.188-163.188 244.287-248.243 15.824-11.868 15.824-11.868 32.637 0 15.825 19.78 35.605 39.56 52.418 55.385 9.89 6.923 9.89 13.846 2.967 23.736C732.915 618.19 623.133 728.958 512.364 838.74c-6.923 6.923-12.857 6.923-19.78 0-110.77-109.78-220.55-217.583-328.353-327.364-9.89-9.89-9.89-13.846-2.967-23.736z"/></svg>