<svg xmlns="http://www.w3.org/2000/svg" viewBox="0 0 1000 1000"><path d="M224.177 635.206H5V539.91h190.589l-22.235-83.647H13.47V353.558c42.353 0 84.706-1.059 128.118-1.059-11.647-42.353-21.177-82.589-30.706-124.942 56.118-2.117 103.765 0 132.353 0 7.412 0 110.118 330.354 110.118 345.178 5.294 1.059 72-234 94.236-307.06 9.53-29.647 9.53-29.647 42.353-29.647h116.47c47.648 0 41.295 0 51.883 42.353 31.765 93.177 64.589 199.06 93.177 303.884 32.824-104.824 64.589-210.707 97.412-303.884 20.118-54 9.53-42.353 61.412-42.353h84.707c-3.177 23.294-6.353 29.647-10.589 42.353-41.294 146.118-93.177 303.884-135.53 452.12-15.882 50.823-22.235 42.352-64.588 42.352H709.12c-47.647 0-50.824-9.529-61.412-42.353-22.235-95.294-41.294-180-73.059-274.236-5.294-25.412-11.647-43.412-23.294-74.118-29.647 96.353-61.412 169.412-84.706 275.295-19.06 66.706-16.942 115.412-60.353 115.412h-98.471c-28.589 0-33.883-9.529-42.353-31.764-11.648-36-23.295-68.824-41.295-105.883z"/></svg>