<svg xmlns="http://www.w3.org/2000/svg" viewBox="0 0 1000 1000"><path d="M5 500.496c0 271.98 220.55 494.507 495.496 494.507 271.98 0 494.507-220.55 494.507-495.496C995.003 227.528 773.464 5 500.496 5 226.54 5 5 225.55 5 500.496zM201.814 656.76V455.001c0-64.285 47.473-131.538 103.846-157.253 72.198-24.725 133.517-14.835 188.902 36.594 2.967 2.967 9.89 10.879 18.791 15.824 36.594-38.572 80.11-67.253 137.473-61.319 85.056 0 165.166 71.21 165.166 157.253v210.66c0 29.67-9.89 42.528-33.627 42.528-28.681 0-36.593-12.857-36.593-42.528V477.75c0-31.649-2.967-55.385-25.715-83.077-48.461-57.363-148.352-40.55-170.11 39.56-4.945 25.715-4.945 55.385-4.945 86.044V656.76c0 29.67-8.901 42.528-34.616 42.528-27.692 0-36.593-12.857-36.593-45.495V464.892c0-70.22-49.45-114.726-118.682-104.836-49.45 8.901-79.121 48.462-82.088 117.693V656.76c0 29.67-6.923 42.528-31.649 42.528-32.637 0-39.56-12.857-39.56-42.528z"/></svg>