<svg xmlns="http://www.w3.org/2000/svg" viewBox="0 0 1000 1000"><path d="M500.496 204.78c-162.198 0-293.737 131.54-293.737 290.771 0 163.188 131.539 293.737 293.737 293.737 160.22 0 290.77-130.55 290.77-293.737 0-159.231-130.55-290.77-290.77-290.77zM5 499.508c0 273.957 221.54 495.496 494.507 495.496 276.924 0 495.496-224.506 495.496-495.496C995.003 223.572 770.497 5 500.496 5 223.572 5 5 229.506 5 499.507zm152.308-3.956c0-186.924 153.297-340.22 343.188-340.22 186.924 0 340.221 153.296 340.221 340.22 0 189.89-153.297 343.188-340.22 343.188-189.892 0-343.189-153.297-343.189-343.188z"/></svg>