<?xml version="1.0" encoding="utf-8"?>
<!-- Generator: Adobe Illustrator 24.2.3, SVG Export Plug-In . SVG Version: 6.00 Build 0)  -->
<svg version="1.1" id="Layer_1" xmlns="http://www.w3.org/2000/svg" xmlns:xlink="http://www.w3.org/1999/xlink" x="0px" y="0px"
	 viewBox="0 0 1000 1000" style="enable-background:new 0 0 1000 1000;" xml:space="preserve">
<path d="M500,0C223.9,0,0,223.9,0,500s223.9,500,500,500s500-223.9,500-500S776.1,0,500,0z M298.5,843.9
	c-38.1,0-68.9-30.9-68.9-68.9s30.9-68.9,68.9-68.9s68.9,30.9,68.9,68.9S336.6,843.9,298.5,843.9z M516.7,604.2h-48.2H349H229.6
	c0-66,53.5-119.4,119.4-119.4h48.2h119.4h119.4C636.2,550.8,582.7,604.2,516.7,604.2z M731.1,364.6h-48.2H349H229.6
	c0-66,53.5-119.4,119.4-119.4h48.2h333.8h119.4C850.5,311.1,797.1,364.6,731.1,364.6z"/>
</svg>
