<svg xmlns="http://www.w3.org/2000/svg" viewBox="0 0 1000 1000"><path d="M994.997 908.208c-43.298 0-90.106 3.51-135.744 0-7.022 0-16.383-3.51-19.894-10.532-72.553-69.042-142.766-138.084-214.148-207.127-72.553-72.553-177.872-72.553-255.106 0-69.042 69.043-138.085 138.085-210.638 207.127-7.02 7.022-19.893 10.532-29.255 10.532-43.298 3.51-83.085 0-125.212 0v-7.02c74.893-72.554 150.957-143.937 227.02-221.17 19.894-18.724 42.128-42.128 63.192-62.022 118.19-115.85 289.041-115.85 408.403 0 92.446 92.447 186.063 184.893 278.51 273.83 2.34 5.85 9.361 9.361 12.872 12.872zM5 92.572v-2.34h134.574c5.85 0 16.383 5.851 19.893 9.362 70.213 69.042 138.085 139.255 207.127 204.786 80.745 78.404 186.064 78.404 264.468 0 69.042-65.531 135.744-135.744 204.786-201.276 10.532-7.021 19.894-12.872 30.426-12.872h128.723c-7.021 5.851-10.532 12.872-12.872 16.383-95.958 92.446-193.085 187.233-287.872 279.68-110 105.319-284.36 105.319-393.19 0C202.765 287.997 103.297 192.04 5 92.572z"/></svg>