<svg xmlns="http://www.w3.org/2000/svg" width="1000" height="1000">
  <path d="M443.38 68.348c22.424 32.515 37 65.029 60.544 104.27 20.182-39.241 35.878-71.755 58.302-104.27C711.342 319.492 852.61 571.758 995 822.901H875.034c15.697 29.151 32.515 61.665 54.938 104.27l-865.55 4.485c17.94-38.12 39.242-69.513 53.817-108.755H9.485c-4.485 0-4.485 0-4.485-4.484 141.27-246.66 289.264-498.925 438.38-750.069zM92.453 767.964h43.726c14.575 0 22.423 0 26.908-10.091 68.392-121.087 132.3-228.72 214.145-366.625 29.15-49.332 54.938-99.785 81.846-141.269 17.94-32.514 13.454-43.726-22.423-77.361-113.24 201.812-229.842 399.14-344.202 595.346zm59.422 109.875H841.4c-5.606-11.212-11.212-21.302-15.696-32.514-8.97-21.302-17.94-22.424-38.12-22.424H202.326c-5.605 0-22.423-3.363-22.423 4.485-8.97 19.06-16.818 34.757-28.03 50.453zm65.029-109.875h563.952C688.92 604.272 594.74 438.337 503.925 275.766 405.26 438.337 312.202 604.272 216.902 767.964zm322.9-530.318c7.847 17.94 12.332 22.424 22.423 44.847C645.193 422.641 728.16 563.91 807.764 707.42c12.333 22.424 21.302 44.847 33.635 60.544h65.028c-113.239-196.207-227.599-399.14-344.201-600.952-10.091 15.697-14.576 30.272-22.424 43.726-5.606 11.212-5.606 16.818 0 26.908z" style="fill:#000;fill-opacity:1;fill-rule:nonzero;stroke:none;"/>
</svg>
