<svg xmlns="http://www.w3.org/2000/svg" viewBox="0 0 1000 1000"><path d="M499.507 995.003c276.924 0 495.496-224.506 495.496-495.496C995.003 223.572 770.497 5 500.496 5 236.43 5 5 229.506 5 499.507c0 273.957 221.54 495.496 494.507 495.496zM150.385 658.74l208.682-369.892 61.319 106.814-209.671 369.891zm80.11 119.67 54.396-95.934 54.396 95.934zm68.242-119.67 60.33-107.803 61.319 107.803-61.319 106.813zm80.11 119.67 61.32-108.791h418.352L797.2 778.409zm0-239.341h121.65l61.318 107.802H440.166zm0-23.737 61.32-107.802h120.659l-60.33 107.802zm0-262.088 54.396-95.935 54.396 95.935zm.99 23.736h120.66l61.318 107.803H440.166zm73.186-131.539h122.638l208.682 369.891H662.695zm67.253 381.76 61.32-107.803L642.913 527.2l-61.319 107.802zm82.089 119.67 60.33-107.802h121.648L723.024 646.87zm148.352 0 53.407-94.945 54.395 94.945z"/></svg>