<svg xmlns="http://www.w3.org/2000/svg" width="1000" height="1000">
  <path d="M500.496 5C223.572 5 5 229.506 5 500.002c0 276.43 224.506 495.001 495.002 495.001 276.43 0 495.001-224.506 495.001-495.001C995.003 226.539 773.464 5 500.496 5zM247.31 624.123c33.626-70.22 84.066-124.616 151.319-165.165 48.461-30.66 97.912-64.286 146.374-94.946 81.099-47.473 147.363-115.715 198.792-189.89 4.945-6.924 7.912-11.869 14.835-17.803 0 0 4.945-.989 4.945 1.978.989 31.649-3.956 66.264-13.846 100.88-15.824 62.308-58.352 111.758-114.726 149.34-52.418 36.594-107.802 64.287-156.264 97.913-96.924 64.286-172.089 142.418-186.924 262.089-2.967 29.67 4.945 54.396 6.923 80.11.99 2.967.99 6.923.99 20.77-6.924-10.88-12.858-12.858-17.803-14.836-55.385-58.352-70.22-153.297-34.615-230.44zm74.176 137.473c2.967-22.747 14.835-42.528 33.626-56.374 32.638-33.626 77.143-56.374 123.627-75.165 60.33-21.758 117.693-43.517 178.022-62.308 2.967 0 10.88-2.967 18.792-4.945-3.956 12.857-5.934 21.758-11.868 26.703-35.605 62.308-91.979 99.89-163.188 109.781-60.33 10.88-118.682 25.714-171.1 61.319 0 0-5.933.989-7.911.989zm1.978 61.319c15.824-29.67 33.626-46.484 63.297-56.374 36.593-9.89 73.187-18.791 109.78-25.714 24.725-6.923 53.407-21.759 79.121-28.682 4.945-1.978 10.88-2.967 17.803-6.923-5.935 21.758-15.825 42.528-32.638 50.44-27.692 15.824-49.45 30.66-80.11 37.582-48.462 14.836-98.902 10.88-148.352 29.67 0 0-1.978.99-8.901 0zm38.571-168.133c12.857-14.835 19.78-32.637 31.649-44.505 43.516-49.451 99.89-83.077 153.297-118.682 62.308-38.572 128.572-71.209 178.022-126.594 0 0 1.978-.989 9.89-2.967-2.966 15.824-.988 30.66-.988 46.484-2.968 69.23-44.506 124.616-109.781 145.385-64.286 25.714-133.517 42.528-194.836 72.198-15.824 8.901-30.66 17.802-46.484 26.703-2.967.99-10.879 2.967-15.824 4.945z" style="fill:#000;fill-opacity:1;fill-rule:nonzero;stroke:none;"/>
</svg>
