<svg xmlns="http://www.w3.org/2000/svg" width="1000" height="1000">
  <path d="M500.496 5C223.572 5 5 229.506 5 500.002c0 276.43 224.506 495.001 495.002 495.001 276.43 0 495.001-224.506 495.001-495.001C995.003 226.539 773.464 5 500.496 5zM77.198 521.265l8.901-95.934c2.967-46.484 23.737-11.868 31.649 39.56 5.934 32.638-15.825 46.484-31.649 65.276-4.945 2.967-8.901 8.9-8.901-8.902zm5.934 74.177c-5.934-11.869-5.934-24.726 0-33.627 12.857-12.857 21.758-24.725 31.649-37.583 5.934-5.934 15.824-13.846 18.79 2.968l18.792 108.791c5.934 20.77 8.901 42.528 10.88 69.231 0 0 0 2.967-1.979 4.945-2.967 0-5.934-1.978-5.934-4.945-24.725-34.615-50.44-72.198-72.198-109.78zm18.791-229.452c-2.967-14.835 0-27.692 9.89-37.582l84.067-77.143c15.824-17.803 18.791-7.913 10.879 8.9-8.901 28.682-18.791 53.407-26.703 78.133l-37.583 91.978c-5.934 13.846-10.88 15.824-15.824 0-8.901-20.77-14.835-42.527-24.726-64.286zm50.44 167.144c0-8.902.99-21.759 13.846-8.902l118.682 111.76c5.934 2.966 9.89 12.856 12.857 18.79-2.967 6.923-6.923 12.858-12.857 18.792-21.758 21.758-46.484 39.56-70.22 61.319-16.813 12.857-26.703 9.89-29.67-7.913zm2.967-87.034c10.88-29.67 21.758-61.319 32.638-91.978 10.879-31.648 23.736-59.34 34.615-93.956 14.835-40.55 18.791-37.583 43.517-8.901 31.648 33.626 62.308 68.242 90.99 102.857 14.834 18.791 11.867 24.725-9.891 33.627l-170.11 69.23c-2.968 2.968-10.88 2.968-13.847 2.968-7.912 0-10.879-7.913-7.912-13.847zm7.912 56.374c-7.912-12.857-4.945-21.758 10.88-26.703l113.736-48.462c21.758-4.945 43.517-13.846 69.231-23.736 8.901-5.934 14.835-2.967 14.835 12.857l-8.9 40.55c-15.825 51.428-27.693 104.835-43.517 157.253-2.967 15.824-12.858 18.791-24.726 6.923zm56.374 248.243c24.725-23.737 52.418-45.495 78.132-67.253 5.934-4.945 8.901-4.945 18.792-9.89 5.934 4.945 14.835 12.857 21.758 20.769 21.758 34.615 46.483 69.231 68.242 102.857l18.791 28.682c9.89 9.89 0 14.835-10.88 11.868-64.285-21.758-126.593-38.572-188.9-62.308-15.825-5.934-18.792-15.824-5.935-24.725zm27.692 62.308c-16.813-12.858-13.846-21.759 9.89-12.858l154.287 56.374c11.868 5.934 23.736 8.901 2.967 21.759l-35.605 21.758c-6.923 4.945-22.747 9.89-37.582-2.967zm24.726-577.585c-14.835-20.769-14.835-26.703 12.857-31.648 65.275-13.846 129.56-29.67 198.792-42.528h5.934c12.857-2.967 15.824 1.978 8.901 15.824-5.934 12.858-14.835 26.704-24.725 42.528l-70.22 121.649c-10.88 18.791-21.759 18.791-34.616 2.967-30.66-37.583-65.275-74.176-96.923-108.792zm18.791-64.286c21.758-18.79 47.473-37.582 72.198-59.34 2.967-2.968 8.901-5.935 15.824-12.858 8.902-8.9 21.759-11.868 32.638-5.934 24.725 12.857 48.462 24.726 69.23 34.616 11.87 5.934 21.76 12.857-3.955 18.791l-179.012 35.605c-12.857 0-15.824-3.957-6.923-10.88zm44.506 452.969c2.967-18.791 8.9-34.616 11.868-50.44 12.857-52.418 24.725-102.857 40.55-151.319 2.967-15.824 12.857-15.824 21.758-2.967l158.242 180c2.967 5.935 5.934 11.869 2.967 14.836 0 2.967-9.89 6.923-12.857 6.923-68.242 8.901-135.495 14.835-204.726 21.758h-2.967c-14.835 0-14.835-9.89-14.835-18.791zm14.835 62.308c-11.868-15.824-5.934-24.726 12.857-29.67l201.76-17.803c2.966 0 8.9 0 11.867 3.956l-2.967 11.868c-34.615 58.352-66.264 114.726-99.89 171.1-8.901 14.835-18.791 14.835-27.693 2.967-31.648-50.44-63.297-97.913-95.934-142.418zm61.319 213.627 13.846-8.901c23.736-15.824 45.495-18.791 70.22-2.967l31.649 16.813c6.923 5.934 9.89 13.846-2.967 13.846-40.55 0-75.166-2.967-109.781-5.934-15.824 0-12.857-4.945-2.967-12.857zm7.912-509.342s7.912-5.935 13.846-5.935c65.275-8.9 131.54-15.824 193.847-21.758 27.692 0 29.67 2.967 24.725 24.726-14.835 65.274-31.648 130.55-50.44 195.824 0 5.934-2.966 11.869-8.9 11.869-2.968 0-8.902-2.968-12.858-5.935-52.417-59.34-107.802-113.736-152.308-176.044-4.945-6.923-7.912-12.857-7.912-22.747zm0-43.517 40.55-74.176c16.813-28.682 35.604-58.352 51.428-90.99 12.858-18.79 21.759-18.79 34.616 0 27.692 43.517 59.34 88.023 90 131.54l2.967 2.966c12.857 21.759 9.89 27.693-16.813 30.66-61.319 6.923-123.627 12.857-188.902 21.758h-5.934c-15.824-2.967-17.802-5.934-7.912-21.758zm29.67-260.11c66.264 2.966 77.144 1.977 124.616 5.933 8.901 0 16.813.99 12.857 5.934l-9.89 9.89c-33.626 24.726-43.516 30.66-99.89 0-8.901-5.934-44.506-21.758-27.693-21.758zm40.55 744.727c12.857-21.758 24.725-40.55 34.616-62.308 21.758-34.615 43.516-72.198 62.307-104.835 8.902-15.825 21.759-18.792 33.627-2.968 34.615 35.605 64.286 76.155 98.901 113.737 9.89 12.857 9.89 21.758-5.934 24.725-67.253 15.825-136.484 31.649-204.726 43.517-15.824 2.967-27.692.99-18.791-11.868zm21.758 49.45c-11.868-7.911-11.868-17.802 2.967-21.758 31.649-5.934 59.341-11.868 87.034-18.79l92.967-18.792c10.88 0 10.88 8.9 5.934 12.857L608.3 909.948c-6.923 5.934-11.868 8.901-18.792 5.934-6.923-1.978-63.296-27.692-78.132-34.615zm49.451-741.76c3.956-5.934 6.923-8.901 12.857-11.868l37.583-18.792c10.879-6.923 27.692-6.923 40.55 5.935 56.373 47.472 88.022 76.154 101.868 89.01-35.605 0-47.473-7.911-177.034-51.428-5.934-2.967-18.791-7.912-15.824-12.857zm3.956 40.55c-6.923-11.869 0-20.77 5.934-16.814 18.791 10.88 37.583 15.824 59.341 23.737l129.56 46.483c18.792 4.945 21.76 10.88 5.935 23.737l-73.187 65.275c-16.813 12.857-24.725 9.89-35.605-5.935-29.67-43.516-61.318-90.989-91.978-136.483zM617.2 595.442c4.945-21.759 9.89-43.517 12.857-62.308l37.583-138.462c4.945-18.792 10.879-21.759 26.703-9.89l124.616 114.725c15.824 14.835 15.824 24.725-5.934 30.66-56.374 24.725-113.737 46.483-167.144 69.23-6.923 2.968-9.89 5.935-15.824 2.968-2.967 0-9.89-2.967-12.857-6.923zm15.824 56.373c-12.857-15.824-12.857-24.725 5.934-34.615 58.352-21.758 117.693-46.484 177.034-68.242 15.824-5.934 18.791-2.967 18.791 9.89-6.923 14.835-12.857 33.626-18.791 49.45l-56.374 148.353c-7.912 21.758-15.824 21.758-34.616 2.967zm59.341 210.66c7.912-7.912 15.824-14.835 23.736-21.758 8.901-5.934 18.792-14.835 24.726-18.791 14.835-6.923 20.769 8.9 12.857 12.857-18.791 12.857-40.55 22.747-59.341 34.615-4.945 2.968-6.923-.989-1.978-6.923zm7.912-493.518c-10.88-11.868-10.88-21.758 0-33.626l75.165-65.275c15.824-13.846 24.726-9.89 27.693 8.9 19.78 122.639 32.637 185.936 34.615 199.782 1.978 16.813-6.923 12.857-15.824 4.945-40.55-39.56-81.1-77.143-121.649-114.726zM772.475 797.2c1.978-.989 28.682-28.681 40.55-40.55 6.923-6.922 17.802-5.933 14.835-2.966-14.835 18.791-27.692 37.582-43.517 53.407-3.956 4.945-22.747 1.978-11.868-9.89zm8.901-52.417 65.275-171.1c2.967-6.923 9.89-14.835 12.857-5.934 12.858 27.693 21.759 56.374 29.67 87.033 2.968 4.945-4.944 15.825-10.878 20.77-31.649 26.703-56.374 53.406-84.067 78.132-11.868 7.912-18.79 5.934-12.857-8.901zm43.517-438.134c-2.967-17.802 5.934-14.835 12.857-2.967l65.275 102.858c9.89 12.857 9.89 23.736 1.978 34.615-7.912 15.825-18.791 26.704-29.67 39.56-9.89 8.902-17.803 8.902-18.792-1.977-1.978 0-31.648-172.089-31.648-172.089zm50.44 248.243c-9.89-22.747-6.924-40.55 8.9-57.363 1.979-2.967 6.924-7.912 23.737-26.703 5.934-6.923 8.901-5.934 7.912 12.857-5.934 40.55-10.879 75.165-12.857 111.759-1.978 10.879-8.901 16.813-16.813 0-1.978-11.869-4.945-26.704-10.88-40.55z" style="fill:#000;fill-opacity:1;fill-rule:nonzero;stroke:none;"/>
</svg>
