<svg xmlns="http://www.w3.org/2000/svg" viewBox="0 0 1000 1000"><path d="M289,2,87,204H251C273,124,359,17,385,2ZM483,204V2H437C351.4,63.6,302.7,162.3,289,204Zm39,0H718C672.4,95.2,598.3,24,567,2H522Zm234,0H915L711,2H621C685.8,61.2,731,144,756,204Zm-43,796L915,798H751c-22,80-108,187-134,202ZM519,798v202h46c85.6-61.6,134.3-160.3,148-202Zm-39,0H284c45.6,108.8,119.7,180,151,202h45Zm-234,0H87l204,202h90C316.2,940.8,271,858,246,798Zm138-64c-25.1,0-47.9-5.2-68.2-15.6-19.9-10.8-37.1-26.2-51.4-46.2-14.3-20.4-25.4-44.8-33.2-73.5-7.4-29-11.1-61.8-11.1-98.1q0-53.25,11.7-97.5t33.1-75.4c14.7-20.8,32.3-36.8,52.6-48.1q31.2-17.55,68.9-17.5c25.1,0,47.9,5.9,68.2,17.5q30.6,16.95,52,48.1c14.3,20.8,25.4,45.7,33.1,74.8q11.7,42.9,11.7,94.9a277.41,277.41,0,0,1-5.2,53.9,244.79,244.79,0,0,1-13.6,49.4,177.74,177.74,0,0,1-20.2,39.7c-7.4,11.3-15.2,19.7-23.4,25.3v2.6l81.9-1.3v67Zm87.8-233.4a335.79,335.79,0,0,0-5.9-64.4q-5.25-29.85-16.2-51.3-11.1-22-27.3-34.5a54.09,54.09,0,0,0-35.8-13,57.24,57.24,0,0,0-37,13Q334,362.7,323,384.9q-11.1,21.45-16.9,51.3a372.54,372.54,0,0,0-5.2,64.4,335.79,335.79,0,0,0,5.9,64.4c3.9,19.9,9.5,37.3,16.9,52,7.4,14.3,16.2,25.8,26.6,34.5a59.78,59.78,0,0,0,37.1,12.3,54.9,54.9,0,0,0,36.4-13Q440,637.15,450.4,615q11.1-22.8,16.2-52A370,370,0,0,0,471.8,500.6ZM680.8,734V273.8h78V734Z"/></svg>