<svg xmlns="http://www.w3.org/2000/svg" viewBox="0 0 1000 1000"><path d="M496.836 994.048c-82.171 5.057-116.304-8.85-254.1-72.058-22.756-10.114-49.303-17.699-74.587-17.699-44.247-6.321-61.945-25.284-68.266-73.323 0-22.755-5.057-51.831-20.227-70.794-118.833-208.59-88.493-447.52 77.115-613.129C318.587-14.77 558.781-40.054 761.051 80.044c18.962 8.849 48.039 12.642 70.794 12.642 42.982 6.32 68.266 25.283 73.322 69.53 5.057 25.283 7.586 61.945 22.756 80.907 184.57 341.33-49.303 755.982-431.087 750.925zM88.506 732.362c17.698 27.812 30.34 51.832 68.265 51.832 42.982-5.057 58.153 24.02 65.738 63.209 3.792 22.755 20.227 45.51 39.19 61.945 176.985 113.776 422.236 79.643 575.203-78.38 150.437-152.966 182.042-399.481 68.265-576.467-11.377-16.434-35.397-30.34-58.152-35.397-37.925-11.378-61.945-26.548-67.002-68.266 0-20.227-13.906-44.246-27.812-51.831-78.379-51.832-161.815-72.059-255.365-72.059-359.028 0-586.58 391.897-408.33 705.414zm42.982-235.138c0-208.59 149.173-361.556 364.084-361.556 221.232-5.057 374.198 145.38 374.198 361.556 0 216.175-152.966 367.877-366.613 372.934-213.647 0-371.67-156.759-371.67-372.934zm145.38-3.792c0 146.645 88.493 252.836 219.968 252.836 139.06 5.057 237.667-99.87 237.667-249.044 0-146.645-92.286-247.78-226.289-247.78-137.796 0-231.345 101.135-231.345 243.988zm107.456 0c0-61.945 54.36-108.72 118.833-108.72 67.002 0 112.513 51.831 112.513 118.833-1.265 59.417-56.889 112.512-118.834 112.512-58.152 0-116.304-56.888-112.512-122.625z"/></svg>