<svg id="Layer_1" data-name="Layer 1" xmlns="http://www.w3.org/2000/svg" viewBox="0 0 1000 1000"><path d="M254.5,496.46c8-.22,14.65-6.31,15-13.32.33-7.81-6.43-14.78-14.79-14.9-12.47-.18-25-.15-37.44-.16a17.93,17.93,0,0,0-3,.48v28C228.11,496.45,240.83,496.7,254.5,496.46Z"/><path d="M612.91,496.25c10.08-1,17.11-12.78,11.09-21-3.15-4.46-7.44-7-13.06-7-13.58.21-27.16-.67-40.7.24v27.93C584.81,496.37,598.87,496.49,612.91,496.25Z"/><path d="M468.76,487.82l-.68-.14c-1.37,2.8-2.75,5.59-4.54,9.22l5.22-.47Z"/><path d="M134.28,496.58H124.4v40.1h10.23v65.49H874.47V536.72h-9.22V496.36l9.38-.1V397.48H134.28Zm555-65.49h41v51.66l1,.41L785,430.82h58.09L779.93,490c2.7,8.66,9.46,6.21,15.62,6.65,10.73,12.87,21.67,26,33.25,39.92h-11l27.16,32.84c-16.84,0-33.08,0-49.86,0-2.08,0-3.91-.07-5.42-1.94-8.09-10.41-16.89-20-24.64-30.7l9.62-.5c-4.08-6.5-9.13-11.51-13.74-17.54-5.55,4.73-10.42,9.29-15.49,14.37-2.42,2.43-5.06,4-8.71,3.5a48.23,48.23,0,0,0-6.2,0v32.57H689.35V536.45h10.42V496.63H689.23ZM520.42,496.51h10.07V431.12c29.13-1,58.27-.21,87.43-.33a72.17,72.17,0,0,1,29.51,6.27c13.2,6,21.21,16.2,24.4,30.07,2.21,9.61,3.08,19.39-1.47,29.45-3.84.18-8.74-1.13-11.37,2.14-5.55,9.61-13.64,16.08-23.9,20a6.71,6.71,0,0,0-1,.67c8.82,3,14.74,9.11,19.29,17h10.39c4.91,10.8,9.78,21.53,14.86,32.72h-50c-6.44-10.32-10.94-32.2-25.72-32.46-10.16-.17-20.32-.13-30.48-.14a12.26,12.26,0,0,0-2.3.52v32H530.84V536.76H520.42Zm-184.56.15V431H392c10.29,21.79,19.43,44.34,29.76,66.35H423q14.79-33.23,29.57-66.47h55.92v65.45l-9.82.52v39.27l9.87.66V569H469.27V536.61H458.38V497.68c-3.08-1.85-4.62-.85-5.72,1.52-1.84,4-3.71,7.89-5.54,11.85q-5.67,12.3-11.29,24.63a6.59,6.59,0,0,0-.15,1.81h9.77c-4.5,10.18-8.58,19-13.12,28.8-.84,1.87-2,3.1-4.17,3.09-4.67,0-9.33,0-14.07,0L398.84,536.7H389c-6-12.43-11.72-24.75-17.47-37.25-1-2.27-2.4-3.62-5.34-2.32v39.32h9.67v32.61H336.29L336,536.79l-10-.43-.18-39.7Zm-162.1-.36V431.18c29.23-1.2,58.53-.35,87.81-.35,12.72.17,25.05,2.77,36,10.06,11.29,7.53,16.77,18.42,18.78,31.47,1.2,7.83,1.18,15.51-1.95,22.94a9.36,9.36,0,0,1-.71,1.09h-9.91a44.65,44.65,0,0,1-26.11,22.51c3.79,2.44,7.72,4.38,10.89,7.17s5.7,6.5,9,10.36h9.63l15,32.68H271.83c-3.75-8.2-7.71-17.22-12.74-24.93a16.05,16.05,0,0,0-13.82-7.49c-10.15-.09-20.3,0-31.16,0V569h-40V536.7H163.9c0-13.44-.36-40.34-.36-40.34Z"/><path d="M500,0C223.86,0,0,223.86,0,500s223.86,500,500,500,500-223.86,500-500S776.14,0,500,0ZM888,633q-382.71,0-765.44,0c-4.14,0-8.14-.4-11.54-3a16.06,16.06,0,0,1-6.75-13.68c.13-26.6,0-53,0-79.62H94.4V496.53h9.94c0-37.62.12-75-.08-112.59a16.41,16.41,0,0,1,18.09-16.86c256.38.16,512.83-.38,769.18.19,8.39,1.44,13.68,7.77,13.72,16.41.06,12.66,0,25.32,0,38,0,25.19.33,74.69.33,74.69H895.28V536.7h9.38s.31,52.54.59,79C905.22,626.45,898.75,632.85,888,633Z"/><path d="M376.71,488.29l-.72.33v8h4.85C379.22,493.33,378,490.81,376.71,488.29Z"/></svg>