<svg xmlns="http://www.w3.org/2000/svg" viewBox="0 0 1000 1000"><path d="M501.388 380.306c29.562-28.277 52.697-55.268 78.403-79.688 92.542-92.542 183.797-186.368 278.91-278.91 8.995-7.71 20.563-12.851 30.845-16.708 1.285 11.568 6.427 20.565 6.427 32.132 2.57 43.7 2.57 88.686 2.57 132.386 0 24.42-8.997 46.27-26.991 61.694-77.118 77.117-152.95 150.379-227.497 227.497-17.994 19.279-39.844 28.276-66.835 25.706H417.844c-24.42 2.57-42.414-6.427-57.838-20.565-78.403-79.688-158.091-158.091-233.923-237.78-10.283-14.138-21.85-34.702-21.85-51.411-3.856-48.841-2.57-96.397-2.57-141.383 0-10.282 8.996-19.279 11.567-28.276 7.712 3.856 16.709 6.426 25.706 14.138 111.82 111.82 223.64 224.927 338.032 336.747 8.997 7.712 15.423 12.853 24.42 24.42zM104.233 979.253c0-56.553-2.57-111.821 3.856-165.803 0-17.994 15.423-32.133 28.276-46.27 65.55-68.121 137.526-137.527 203.076-205.648 28.277-32.132 60.41-43.7 97.683-43.7 48.84 0 97.682-1.285 145.238 0 21.85 2.57 46.27 11.568 61.694 26.991 77.118 77.118 152.95 155.52 230.068 233.924 10.282 11.567 16.708 32.132 16.708 48.84 5.142 20.566 2.571 46.271 2.571 70.692v73.262c-2.57 7.712-3.856 15.423-6.426 23.135-7.712-2.57-16.71-5.141-21.85-10.282-33.418-30.847-68.121-64.265-101.539-97.683l-242.92-244.205c-19.28-15.424-28.277-15.424-46.27 0C367.717 753.04 259.752 857.15 153.073 965.114c-7.712 6.427-14.138 16.71-24.42 21.85-11.568 12.853-24.421 10.283-24.421-7.711z"/></svg>