<svg xmlns="http://www.w3.org/2000/svg" viewBox="0 0 1000 1000"><path d="M5 500.496C5 225.55 226.54 5 500.496 5c272.968 0 494.507 222.528 494.507 494.507 0 274.946-222.528 495.496-494.507 495.496C225.55 995.003 5 772.475 5 500.496zm140.44 125.605c0 46.484 16.813 81.1 59.34 105.824 80.111 45.495 164.177 91.979 248.243 136.484 38.572 20.77 77.144 20.77 111.76 0 85.054-44.505 169.12-90.989 253.187-136.484 38.571-24.725 55.385-59.34 55.385-105.824V377.858c3.956-52.417-16.814-91.978-66.264-114.725-76.155-46.484-154.287-89.012-234.397-130.55-42.527-24.726-84.066-24.726-126.594 0-80.11 41.538-161.209 88.022-238.352 130.55-42.528 22.747-62.308 58.352-62.308 103.846zm171.1-44.506V416.43c0-21.758 10.879-30.66 24.725-38.572 49.45-27.692 97.912-52.417 147.363-81.099 16.813-10.879 30.66-10.879 48.462 0 49.45 28.682 98.901 53.407 147.363 81.1 16.813 7.911 24.725 21.758 24.725 41.538v81.1c0 27.692 3.956 52.417 0 81.098 0 16.814-7.912 30.66-24.725 38.572a9259.526 9259.526 0 0 1-150.33 84.066c-14.836 5.934-28.682 5.934-42.528 0-48.462-28.681-100.88-56.374-150.33-84.066-17.802-7.912-24.725-18.791-24.725-38.572zm196.813 100.88c79.122-42.528 149.342-68.242 164.177-104.836 5.934-17.802 0-136.484-6.923-164.176-56.374 27.692-108.792 56.374-157.254 84.066z"/></svg>