<svg xmlns="http://www.w3.org/2000/svg" width="1000" height="1000">
  <path d="M908.735 341.449c-39.08-3.169-77.104-3.169-111.959 0-10.562 1.056-12.674 7.393-12.674 19.012v249.265c0 14.787 0 26.405 11.618 34.855 12.675 14.787 9.506 32.742-5.28 47.53-13.732 8.449-26.406 8.449-36.968 0-16.9-13.731-19.012-28.518-8.45-46.474l3.169-6.337c4.225-7.394 7.393-11.619 7.393-16.9V347.786c-40.136 6.337-74.99 20.068-108.79 34.855-10.561 6.337-14.786 12.674-14.786 25.349v146.813c0 6.337 3.168 11.618 6.337 17.956 1.056 3.168 3.169 7.393 5.281 10.562 14.787 21.124 13.73 36.967-4.225 51.754-13.73 11.618-30.63 11.618-48.585-1.056-11.619-15.843-8.45-38.024 7.393-57.036 5.281-6.337 9.506-11.618 9.506-14.786v-153.15c-31.686 21.123-52.81 44.36-72.879 69.709-1.056 1.056 0 5.281 0 11.618 1.057 2.113 1.057 6.338 1.057 8.45 0 26.405-11.619 41.192-36.968 43.305-12.674 1.056-23.236 7.393-32.742 19.011-69.71 81.328-162.656 123.577-282.008 132.026-24.293 1.057-46.473 3.17-65.485 4.225-88.722 4.225-103.509 4.225-110.902-6.337-8.45-12.674 3.169-17.956 23.237-19.012 12.674-1.056 25.349-2.112 31.686-7.393v-306.3c1.056-12.675 1.056-22.181-7.394-30.631-13.73-10.562-12.674-29.574 2.113-38.023 26.405-16.9 57.035 10.562 41.192 33.798-11.618 16.9-9.506 31.686-9.506 49.642v293.626c32.743 6.338 65.485 3.169 99.284-2.112 8.45-1.056 15.843-2.113 25.349-4.225V403.765c0-17.955 2.112-31.686-11.618-44.36-11.619-12.675-9.506-28.518 2.112-44.361 11.618-9.506 30.63-9.506 46.473 0 11.618 11.618 12.675 30.63 2.113 44.36-14.787 12.675-14.787 26.406-14.787 44.361v249.266c47.53-2.113 84.496-17.956 122.52-39.08 3.169-4.225 6.337-11.619 6.337-20.068V441.789c-1.056-5.281-4.225-10.562-7.393-16.9-1.056-2.112-4.225-4.225-5.281-7.393-13.731-21.124-12.675-42.249 4.225-51.754 11.618-12.675 31.686-12.675 45.417 0 13.73 16.899 13.73 38.023 0 52.81-12.675 8.45-13.731 19.012-13.731 32.743 1.056 32.742 0 63.372 0 96.115v42.248c27.461-15.843 45.417-35.911 63.372-57.035 0-1.057 2.113-2.113 2.113-4.225 1.056-4.225 2.112-10.562 2.112-14.787 0-30.63 9.506-46.473 35.911-49.642 16.9-4.225 24.293-13.73 34.855-26.405 72.879-74.991 156.32-114.07 254.547-123.577 33.798-2.112 68.653-3.168 102.452-3.168 22.18-1.057 44.36-1.057 67.597-3.169 62.317 0 53.867 19.012-16.899 38.024v27.461c-1.056 55.98-1.056 114.07 0 172.162v92.947c0 13.73-1.056 26.405 7.394 38.023 11.618 11.618 10.562 30.63-5.282 36.967-11.618 4.225-27.461 2.113-36.967-2.112-10.562-11.618-10.562-23.237-2.112-39.08 6.337-8.45 11.618-20.068 11.618-28.517V352.01c-2.112-3.169-2.112-6.337-2.112-10.562z" style="fill:#000;fill-opacity:1;fill-rule:nonzero;stroke:none;"/>
</svg>
