<?xml version="1.0" encoding="utf-8"?>
<!-- Generator: Adobe Illustrator 26.0.1, SVG Export Plug-In . SVG Version: 6.00 Build 0)  -->
<svg version="1.1" id="Layer_1" xmlns="http://www.w3.org/2000/svg" xmlns:xlink="http://www.w3.org/1999/xlink" x="0px" y="0px"
	 viewBox="0 0 1000 1000" style="enable-background:new 0 0 1000 1000;" xml:space="preserve">
<path d="M408,475.1h-35.4v-65.8H408c4.2,0,8.2,0.8,12.1,2.5c3.9,1.6,7,4.1,9.5,7.4c2.5,3.3,4.1,6.9,5.1,11c0.9,4.1,1.4,8.1,1.4,12.1
	c0,4.2-0.5,8.3-1.4,12.3c-0.9,4-2.6,7.6-5.1,11c-2.5,3.4-5.6,5.8-9.5,7.4C416.3,474.3,412.2,475.1,408,475.1z M436.4,523.7
	c-3.7-3.5-8.1-6-13.1-7.4c-5-1.4-10.1-2.1-15.2-2.1h-35.4v74.6H408c5.1,0,10.2-0.7,15.2-2.1c5-1.4,9.4-3.9,13.1-7.5
	c3.7-3.6,6.4-7.9,8.1-12.8c1.6-4.9,2.5-9.9,2.5-15.1c0-5.1-0.8-10.2-2.5-15.1C442.8,531.4,440.1,527.2,436.4,523.7z M995.3,500
	c0,273.4-221.6,495-495,495S5.3,773.4,5.3,500S226.9,5,500.3,5S995.3,226.6,995.3,500z M348.5,287.3h138.9V142.6h-32.9
	C393.2,186.7,358.3,257.4,348.5,287.3z M203.8,287.3h117.4c15.8-57.3,77.4-133.9,96-144.7h-68.8L203.8,287.3z M414.4,857.4
	C368,815,335.6,755.7,317.7,712.7H203.8l146.1,144.7H414.4z M485.3,712.7H344.9c32.7,77.9,85.7,128.9,108.2,144.7h32.2V712.7z
	 M490,551.4c0-27.8-12.1-47.1-36.4-58.1c17-11,25.6-28,25.6-51.1c0-7.7-0.8-15.3-2.5-22.8c-1.6-7.5-4.6-14.5-8.8-21
	c-4.2-6.5-9.5-12-15.9-16.3c-6.4-4.3-13.4-7.4-21-9.1c-7.6-1.8-15.2-2.6-22.9-2.6h-78.4v257.3H408c8.6,0,17.1-0.8,25.4-2.5
	c8.3-1.6,16.2-4.6,23.6-8.9c7.5-4.3,13.8-9.9,18.9-16.8c5.1-6.9,8.8-14.5,10.9-22.8C488.9,568.5,490,560,490,551.4z M586.2,142.6
	c46.4,42.4,78.8,101.7,96.7,144.7h113.9L650.7,142.6H586.2z M581,588.8l105-179.6v-38.9H531.3v38.9h105l-105,179.6v38.9H686v-38.9
	H581z M515.4,287.3h140.4c-32.7-77.9-85.8-128.9-108.2-144.7h-32.2V287.3z M652.1,712.7H513.2v144.7h32.9
	C607.4,813.3,642.3,742.6,652.1,712.7z M796.9,712.7H679.4c-15.8,57.3-77.4,133.9-96,144.7h68.8L796.9,712.7z"/>
</svg>
