<svg xmlns="http://www.w3.org/2000/svg" viewBox="0 0 1000 1000"><path d="M916.584 507.327c0 93.71-26.574 174.833-79.723 250.36-34.967 47.555-74.13 85.318-124.48 113.292-22.38 13.986-50.353 2.797-55.947-19.582-5.595-18.182 2.797-34.966 19.581-44.757 67.136-41.96 114.69-100.703 144.062-174.832 27.973-69.933 29.372-142.663 11.19-213.995-8.393-22.378-26.575-33.568-46.157-26.574-20.98 4.196-32.169 22.378-32.169 43.358 0 5.595 2.798 12.588 2.798 18.183-2.798 20.98-20.98 36.365-43.359 33.568-18.182-5.595-25.176-20.98-29.372-37.764-33.567-104.9-141.264-158.049-244.765-124.48-22.378 6.992-40.561-1.4-50.352-23.778-6.993-16.784 5.595-40.561 25.176-46.156 36.365-13.986 74.13-18.182 114.69-13.986 61.541 6.993 116.089 33.567 156.65 75.527 6.993 8.392 18.183 12.588 27.973 12.588 15.385 2.797 27.973-4.196 36.365-20.98 4.196-15.385 4.196-30.77-8.392-44.757-8.392-9.79-12.588-25.176-8.392-40.561 8.392-26.574 39.163-30.77 60.143-12.588 23.777 18.183 57.345 11.19 64.338-16.784 6.993-15.385 0-30.77-8.392-41.96C731.961 41.574 597.69-7.379 441.04 8.006c-113.29 13.987-207 64.339-288.123 142.664-18.183 16.784-18.183 41.96-2.798 58.744 15.386 15.385 37.764 15.385 55.947-2.797C313.762 105.912 438.243 66.75 583.704 94.723c43.358 6.993 82.52 22.379 118.886 44.757 15.385 9.79 22.378 19.581 19.58 34.967 0 16.784-6.993 27.973-23.776 34.966-13.987 2.797-23.778 0-33.568-6.993-132.873-71.332-299.313-50.352-404.213 55.946-19.58 18.183-20.98 40.561-5.594 57.345 15.385 15.385 37.764 15.385 58.743 0 11.19-8.392 23.778-12.588 36.366-5.594 13.986 4.195 22.378 13.986 23.777 29.371 4.196 13.987-2.798 25.176-12.588 33.568-75.528 82.521-71.332 208.4 12.588 283.928 15.385 12.588 19.581 37.764 4.196 54.548-13.987 15.385-37.764 15.385-53.15 1.398-57.344-54.547-89.513-120.284-89.513-197.21 0-29.373 4.196-51.751 9.79-81.123 4.196-25.176-16.784-48.953-43.358-43.358-18.183 1.398-29.372 9.79-33.568 27.973-8.392 26.574-33.568 34.966-55.946 20.98-12.588-6.994-18.183-22.379-16.784-39.163 4.196-25.176-5.595-46.155-30.77-50.351-20.98-4.196-37.765 8.392-44.758 34.966-8.392 32.17-13.986 67.136-13.986 100.704-6.994 104.899 20.98 204.204 75.527 292.32 68.534 106.297 163.643 177.629 283.928 213.994 8.392 2.797 20.98 2.797 29.372 0 15.385-2.797 27.973-20.98 23.777-37.764 0-16.784-9.79-33.568-29.372-37.764-72.73-19.58-135.67-58.743-187.42-111.892-76.926-81.123-117.488-180.427-120.285-292.32 0-23.777 16.784-39.162 36.365-39.162 19.581-2.798 34.967 12.588 39.163 34.966 2.797 22.379 2.797 41.96 6.993 62.94 26.574 137.068 106.298 226.582 241.968 271.34 22.378 8.391 43.358-2.798 51.75-22.38 8.392-22.378-4.196-41.959-26.574-53.148-22.379-5.595-32.17-25.176-25.176-46.156 4.196-19.581 22.378-27.973 44.757-25.176 44.757 12.588 90.913 9.79 130.075-13.986 55.947-25.176 93.71-74.13 106.298-132.873 4.196-26.574 22.379-40.561 44.757-33.568 20.98 2.798 32.17 23.778 27.974 48.953-12.588 61.541-44.758 113.292-95.11 155.251-29.371 22.379-60.142 37.764-96.507 47.555-20.98 5.595-29.372 20.98-29.372 41.96 2.798 18.182 16.784 33.567 34.967 36.365 5.595 0 15.385 0 20.98-2.798 22.378 0 40.56 15.386 37.764 39.163 0 19.581-11.19 27.973-26.575 34.966-29.372 11.19-37.764 41.96-16.784 65.737 12.588 12.588 27.973 12.588 46.156 8.392 258.752-74.129 412.604-348.266 342.671-611.214-2.797-6.993-6.993-15.385-13.986-22.378-11.19-11.19-32.17-11.19-46.156-2.797-15.385 9.79-19.581 27.973-15.385 46.155 8.392 33.568 13.986 69.933 13.986 106.298zm-530.091 0c0-61.54 51.75-116.088 114.69-114.69 60.142 0 113.291 53.15 113.291 116.089-4.196 64.338-53.149 116.089-116.089 114.69-64.338 0-114.69-51.75-111.892-116.089z"/></svg>