<svg xmlns="http://www.w3.org/2000/svg" viewBox="0 0 1000 1000"><path d="M185.197 301.972h84.492c12.674 0 17.955 2.113 19.01 16.899 14.787 54.92 27.46 113.008 41.19 170.04 14.787 64.425 29.573 127.794 43.303 192.219 2.112 4.224 2.112 7.393 2.112 9.505 0 3.169-2.112 6.337-3.168 6.337h-47.527c-6.337 0-6.337-5.28-8.45-8.45-5.28-28.515-12.673-59.144-20.066-87.66-2.113-9.505-3.169-20.066-5.281-29.572-2.112-5.28-3.168-6.337-10.561-6.337-22.18-2.112-22.18-2.112-17.955 19.011 3.168 32.74 8.45 66.537 13.73 101.39 2.112 11.618 2.112 11.618-11.618 11.618h-38.021c-5.28 0-9.505-1.056-9.505-8.45-6.337-50.694-12.674-99.277-19.011-148.916-7.393-68.65-16.898-136.243-23.235-204.893 0-5.28-2.113-12.674-2.113-17.955-2.112-10.561 2.113-14.786 12.674-14.786zM5.652 309.365c-2.113-5.28 1.056-7.393 7.393-7.393H77.47c21.123 0 41.19 0 62.313-1.056 7.393 0 10.561 3.168 12.673 10.562 2.113 10.561 4.225 21.123 5.281 33.796 2.113 5.281-1.056 7.393-7.393 7.393-8.449 0-15.842 2.113-24.291 0-9.506 0-9.506 3.169-7.393 10.562 7.393 40.134 12.674 79.211 20.067 117.232 11.617 69.706 24.291 139.412 36.965 208.062 0 7.393-1.056 8.45-8.45 8.45h-41.19c-7.392 0-9.505-3.17-11.617-10.562-10.561-62.313-21.123-125.682-33.797-187.995-7.393-45.414-13.73-88.717-23.235-133.075 0-10.561-5.28-12.674-14.786-12.674-6.337 2.113-13.73 0-23.235 0-5.281 0-6.337-2.112-8.45-7.393-2.112-12.673-4.224-23.235-5.28-35.909zm228.128 52.808c5.28 46.47 12.674 92.94 15.842 137.3 2.113 11.617 5.281 14.785 14.786 12.673 5.281-1.056 13.73 4.225 11.618-8.45-10.562-46.47-21.123-95.053-33.797-143.636 0-2.112-3.168-4.224-5.28-7.393-2.113 3.169-3.169 7.393-3.169 9.506zm114.064-17.955c0-11.617 2.112-22.179 0-32.74 0-7.394 4.225-10.562 11.618-9.506H486.2c5.28-1.056 9.505 2.113 9.505 7.393 0 12.674-2.112 23.236 0 34.853 0 6.337-4.225 8.45-10.561 8.45h-25.348c-5.28 0-7.393 3.168-7.393 9.505v321.07c0 13.73 0 13.73-14.786 13.73h-35.91c-6.336 0-10.56-1.057-10.56-10.562V363.229c0-7.393-1.057-10.562-10.562-10.562-7.393 2.113-14.786 0-23.236 0-7.393 0-9.505-2.112-9.505-8.449zm145.749 344.305c2.112-50.695 4.224-99.278 7.393-146.805 2.112-47.527 5.28-91.885 7.393-137.3 1.056-30.628 3.168-59.144 5.28-87.66 2.113-10.561 5.281-14.786 15.843-14.786h84.492c12.674 0 15.842 2.113 17.954 16.899 2.113 28.516 3.169 57.032 5.281 87.66 2.112 51.751 5.28 104.559 7.393 156.31 3.169 41.19 5.28 84.492 7.393 125.682 0 7.393-2.112 8.45-9.505 8.45h-41.19c-5.28 0-8.45-1.057-8.45-8.45-2.112-38.022-4.224-74.987-4.224-113.008-1.056-9.505-3.168-10.562-12.674-10.562-21.123 0-17.954-2.112-19.01 17.955-2.113 33.797-2.113 67.593-4.225 103.503 0 7.393-1.056 10.561-12.674 10.561h-36.965c-7.393 0-11.618-1.056-9.505-8.45zm66.537-190.107c0 13.73 0 13.73 14.786 13.73 8.45 0 10.562-3.169 10.562-12.674-2.113-21.123-2.113-44.358-4.225-65.481-1.056-24.292-1.056-45.415-3.168-66.538-2.113-5.28 3.168-12.673-5.281-12.673-7.393 0-5.28 7.393-5.28 12.673-2.113 42.246-5.282 85.549-7.394 130.963zm107.727 190.107c9.506-45.415 15.843-91.885 25.348-138.356 10.561-62.313 21.123-125.681 31.684-186.938 2.113-8.45-1.056-10.562-8.449-10.562h-23.235c-7.393 0-9.505-2.112-7.393-7.393 2.112-12.673 3.168-23.235 5.28-35.909 2.113-5.28 4.225-7.393 10.562-7.393h127.794c7.393-1.056 9.506 2.113 9.506 9.506-4.225 10.561-6.337 23.235-7.393 33.796 0 5.281-4.225 7.393-9.506 7.393h-25.347c-6.337 0-10.562 3.169-10.562 10.562-19.01 106.671-36.965 214.398-57.032 322.125-2.112 11.618-2.112 11.618-14.786 11.618H675.25c-5.28 0-9.505-1.056-7.393-8.45zM793.54 645.22c2.112-17.955 5.28-33.797 9.505-49.64 15.843-96.109 31.685-189.05 47.527-284.103 2.113-7.394 6.337-10.562 12.674-10.562 12.674 1.056 27.46 1.056 40.134 1.056 7.393-1.056 8.449 2.113 7.393 7.393-7.393 45.415-14.786 88.717-24.292 130.963-10.561 65.481-21.123 130.962-33.796 196.444-2.113 6.336 2.112 8.449 7.393 8.449 17.954 0 17.954 0 20.066-13.73 19.011-106.671 36.966-214.399 57.032-320.013 0-7.394 3.169-10.562 10.562-10.562 14.786 1.056 27.46 1.056 40.134 1.056 6.336-1.056 8.449 2.113 6.336 9.506-10.561 61.256-21.122 122.513-29.572 182.713-9.505 47.527-17.954 93.998-25.347 142.58-5.281 26.404-17.955 46.471-43.302 54.92-12.674 5.281-27.46 5.281-39.078 7.393v-2.112h-17.954c-32.741 0-50.696-21.123-45.415-51.751z"/></svg>