<svg xmlns="http://www.w3.org/2000/svg" viewBox="0 0 1000 1000"><path d="M5 500.002v.395-.395c.099-89.506 22.55-172.682 67.253-249.726 44.209-74.473 103.55-133.814 178.023-178.023C327.419 27.45 410.694 5 500.002 5c89.308 0 172.583 22.45 249.726 67.253C824.2 116.462 883.54 175.803 927.75 250.276c44.803 77.143 67.253 160.418 67.253 249.726 0 89.308-22.45 172.583-67.253 249.726C883.541 824.2 824.2 883.54 749.728 927.75c-77.143 44.803-160.418 67.253-249.726 67.253-89.308 0-172.583-22.45-249.726-67.253-74.473-44.209-133.814-103.55-178.023-178.022C27.55 672.684 5.099 589.508 5 500.002zm111.759-26.21c-24.726 31.65-6.923 46.484 11.868 65.276 23.736 22.747 44.505 44.505 65.275 64.286 1.978 0 1.978 0 1.978 1.978l105.824-104.836c-36.593-35.604-70.22-69.23-106.813-105.824-12.857 10.879-59.341 60.33-78.132 79.12zm113.736-109.78c34.616 36.594 71.21 70.22 104.836 103.847l282.858-279.891-67.253-67.253c-24.725-24.726-55.385-18.792-74.176-1.978-61.32 60.33-194.836 193.846-246.265 245.275zm10.88 286.814c35.604 35.605 70.22 70.22 106.813 104.836l280.88-281.87c-35.604-35.604-70.22-69.23-105.824-103.846zm148.352 151.32h1.978c20.769 22.747 43.516 43.516 65.275 68.242 29.67 24.725 57.362 17.802 76.154-1.979 22.747-22.747 44.505-43.516 65.275-64.285 0-1.978 0-1.978 1.978-1.978L495.55 696.32c-35.604 35.604-69.23 70.22-105.824 105.825zm141.429-140.44L636.98 768.518c0-1.978-.989-1.978.99-3.956l134.505-133.517c35.605-36.594 74.176-68.242 105.825-105.825 25.714-30.659 20.769-57.362 0-79.12l-65.275-67.254zM556.87 335.33c34.615 37.582 70.22 70.22 105.825 104.835 32.637-34.615 68.241-67.253 102.857-104.835L662.695 231.484z"/></svg>