<?xml version="1.0" encoding="utf-8"?>
<!-- Generator: Adobe Illustrator 26.0.1, SVG Export Plug-In . SVG Version: 6.00 Build 0)  -->
<svg version="1.1" id="Layer_1" xmlns="http://www.w3.org/2000/svg" xmlns:xlink="http://www.w3.org/1999/xlink" x="0px" y="0px"
	 viewBox="0 0 1000 1000" style="enable-background:new 0 0 1000 1000;" xml:space="preserve">
<style type="text/css">
	.st0{fill:#FFFFFF;}
</style>
<rect class="st0" width="32" height="32"/>
<g>
	<path d="M412.9,299.2c0.7-0.5,1.4-1.1,1.9-1.9c7.2-11.2-4.7-23.1-15.9-15.9c-0.7,0.5-1.4,1.1-1.9,1.9
		C389.8,294.4,401.7,306.4,412.9,299.2z"/>
	<path d="M353.8,299.2c0.7-0.5,1.4-1.1,1.9-1.9c7.2-11.2-4.7-23.1-15.9-15.9c-0.7,0.5-1.4,1.1-1.9,1.9
		C330.7,294.4,342.6,306.4,353.8,299.2z"/>
	<path d="M500.5,5C223.6,5,5,229.5,5,499.5C5,773.5,226.5,995,499.5,995C776.4,995,995,770.5,995,499.5C995,223.6,770.5,5,500.5,5z
		 M844.2,369.6l-0.2,0c0.4,1.1,0.7,2.1,1.1,3.2c5,17.2,8.9,34.7,11.7,52.4C807.4,437,770,375.5,758.5,354
		c-5.2-11.6-11.9-22.5-19.9-32.3c25,6.2,58.4,10.1,86.7-1.8C833,336.3,839.2,353,844.2,369.6z M552.7,652.1
		c5.4-22.8,12.4-45.2,21-67c1.2-2.8,2.4-5.6,3.5-8.5c7.7,50.3,24.8,107.9,55.4,124.6c1.4,0.8,3,1.5,4.6,2.2
		c-24.7,14-50,27-75.9,38.8v0C549.4,733.6,539.4,710.7,552.7,652.1z M480.5,686.3c16.4-15.8,43-32.5,58.9-49.6
		c-1,3.8-1.9,7.6-2.8,11.5c-11.2,49.3-8.4,83.3,8.4,101.4c-5.7,2.6-21,12.2-52.8,14.6c-16.5,1.2-35.5,0.1-54.8-2.2
		C439.6,731.9,462.4,703.8,480.5,686.3z M421.1,759.7c-36.9-5.9-72.7-16.7-92.7-29l-1.7-1.1c-17.7-11.7-30.6-32.3-41.2-52.8
		c-0.4-1-1.5-3.2-3.2-6.3c33.1,17.2,69.8,26.1,107.1,26.1c23.1,0,46-3.4,68.1-10.1C440.6,705.4,423.6,731.2,421.1,759.7z M406.4,679
		c-14.8,4.1-17.4-4.6-17.4-4.6l-4-8.3c-0.1-0.1-0.2-0.2-0.2-0.4L381,658c-44.6-92.9-44.5-93.1-37.8-98.2c3.7-2.8,10.1-5.8,20-4.1
		c13,2.2,28.6,12.1,43.3,26.6c6.3-10,18.1-37.5,57.6-46.9c47.8-11.4,79.3,20.1,100.3,26.9c0,0,0,0,0,0v0c0,0,0,0,0,0
		c-5,12.1-10.4,24-16.1,35.8C509.2,669.2,406.4,679,406.4,679z M680.4,348.8l-0.4-1.3c-0.4-1.5-10.1-33.5-66.6-55.7
		c19.8-2.2,50-0.7,86.8,16.7c16.7,11.6,30.3,27,39.6,45h0c0.2,0.3,1.4,3.1,3.7,7.5c8.5,18.9,14.4,42.7,14.9,72.7
		c-54.3,32.1-107.2,41.6-157.1,28.3c-7-1.9-13.9-4.2-20.7-6.9h0c-2.8-10.7-6.2-20.9-9.8-30.5l-0.1-0.2c-1.7-4.3-3.4-8.5-5.2-12.6
		l-0.1,0c-4.3-10.1-15.2-36.2-23.5-55.7c28.1,13.2,79.4,28.5,133.7,1l1.2-0.6c1.4-0.7,2.4-1.8,3.1-3.2
		C680.7,351.8,680.8,350.3,680.4,348.8z M593.3,572.5c29,9.4,61.5,16.9,90.8,16.9c17.2,0,33.3-2.6,46.9-9c3.9-1.8,7.5-3.9,10.8-6.3
		c-8.3,31.4-32.1,85.2-71.6,108.6l0-0.1c-11,7.6-20.7,8.9-29.6,4.1C616.8,673.7,600.7,620.9,593.3,572.5z M723.9,565.4
		c-26.6,12.5-70.7,9.3-127.4-9.3c-1.9-0.6-3.8-1.3-5.7-1.9c-4-25,1-52.6-5.9-80c19.6,6.7,40.2,10.2,61,10.2
		c36.9,0,74.8-10.7,113.3-32.1c0,0,0,0,0,0h0c0,0,0,0,0,0c0.9,26.2,2,75.1-16.6,98.6C737.6,557.1,731.2,562.1,723.9,565.4z
		 M579.6,134c41.6,5.2,81.7,19.1,117.6,40.9c48.9,31.3,89.4,74.1,118,124.7c0.8,1.6,1.7,3.1,2.6,4.7c0.1,0.2,0.3,0.5,0.4,0.7
		c-41,16.5-97.4-5.8-108.2-10.3c-33.8-16.4-62.7-20.7-84.5-20.4c23.8-16.5,51.7-40.8,63.9-70.3c0.6-1.6,0.8-3.3,0.4-4.9
		c-0.4-1.7-1.2-3.1-2.5-4.3c-17.4-15.9-51-27.5-114,0.1C581.4,175.6,583.6,154.4,579.6,134z M285.6,423.3c3.2-4.8,6-9.8,8.4-15.1
		c3.1-7.3,5.9-15,8.6-23.3l1-3.5l0,0c7.5-24.8,13-54.1,16.5-88.1c9.9-95.6,76.5-132.9,101.7-143.7l4.2,41.8c0,0.3,0.1,0.6,0.3,0.8
		s0.4,0.4,0.7,0.5c0.3,0.1,0.6,0.1,0.9,0c0.3-0.1,0.5-0.2,0.7-0.4l10.1-10.5c50.5-52.8,107.6-48.8,124.5-46.2
		c8.9,41.8-15.8,71.8-16.9,73.1l-25.4,29.9c-0.6,0.7,0.2,1.7,1,1.3l34.6-18.6c30.3-16.2,84.1-39.3,114.9-18.2
		c-23.4,46.4-92.3,79.3-93.1,79.6l-17.2,8.1c-1.2,0.6-1.1,2.4,0.2,2.7l18.4,4.7c54,13.7,74.2,36.6,81,47.5
		c-67.5,28.9-130.5-15.1-131.2-15.6l-21.8-15.7c-0.7-0.5-1.7,0.2-1.3,1l10.8,24.6c1.1,2.5,5.1,11.8,10.1,23.6l8.9,21.1l14.1,33.4
		l-0.1,0c4,9.3,7.5,18.4,10.4,27.4c0,0-67.5-32.1-104.5-105.7c-0.2-0.4-0.5-0.7-0.8-1c-0.3-0.3-0.7-0.5-1.1-0.5
		c-0.4-0.1-0.9-0.1-1.3,0c-0.4,0.1-0.8,0.3-1.1,0.5c-12,9.5-59.4,47-76.6,61.1c-9.4,7.7-36.4,27-51.4,37.8
		c-12.7,9.1-34.8,6.1-39.2,1.5C282.5,437.1,280,431.6,285.6,423.3z M277.2,546.7c0.7-6.4,6.5-8.5,15.2-11.2
		c51.2-15.7,79.8-65.1,107-120c13.4-27,35.3-42.3,50.1-53.7c14.7,23,54.7,77.3,117.4,105.3c6.7,18.2,7.6,52.8,2.1,79.1
		c-27-10.5-51.5-38.5-116.1-24.4c-2.1-5.9-5.4-10.8-9.2-15c-11.3,5.6-21.1,10.4-25,12.2c-34.6,15.3-65.6,24.6-86.2,29.8
		c-23.9,6.1-36.4,7.7-43.3,7.7c-5.7,0-7.5-1.1-8.5-1.9c-1.2-0.9-2.1-2.1-2.8-3.5C277.4,549.7,277.1,548.2,277.2,546.7z M149.3,412.1
		c8.5,6.8,8.9,20.1,8.6,26.1h0c-4.3,27.3-0.2,48.1,1.7,60.4c-6.3-5.1-14-8.3-22.1-9.1C138.5,463.2,142.5,437.3,149.3,412.1z
		 M137.3,506.1c17.8,2.8,30.4,25.9,34.2,38.2c6.8,22.3,20.4,43.4,39.1,68c-16-4.4-35-5.9-57.3-2.1
		C143.1,577.2,137.5,542.3,137.3,506.1z M215.6,728.2c-24.4-30.8-43.6-65.3-56.9-102.2c66.1-9.9,97.5,31.5,107.8,49.6
		c6.1,13,13.2,25.5,21.3,37.3C263.1,706.6,235.3,707.4,215.6,728.2z M226.7,740.4c29.1-32,83-1.8,92.1,3.6
		c12.6,7.8,26.3,13.7,40.5,17.8c-23.6,4.7-49.4,15-70.8,35.9C255.6,773.9,234.7,750.3,226.7,740.4z M302.3,807.4
		c39-35.7,94.8-33.6,114.8-31.5c27.4,4.6,55.7,6.7,79.8,4.7c0,0,0,0,0,0h0c0,0,0,0,0,0c-3.2,3-6.5,6.1-9.7,9.6
		c-22.4,23.7-33.7,48.8-33,73.1C400,856.4,348.1,837.3,302.3,807.4z M547.1,863.1l-2,0.2l-4.9,0.5c-33.1,3.6-58.4,1.8-69.5,0.6
		c-1.3-22.7,11-43.2,25.1-59.2c31.3-35.8,86.1-54.3,106.5-64.5c-20.3,27.9-34.8,67.4-11.7,114C576.4,858.4,561.9,861.2,547.1,863.1z
		 M606.9,850.1c-42.6-80.6,46.7-137.1,50.5-139.5l0-0.1c6.6-4,13-8.2,19.4-12.5l2.7-1.7l0-0.1c5.2-3.6,10.2-7.3,15.2-11.2
		c-8.7,25.8-15.1,57.8-6.5,83.3c4,12.3,12,22.9,22.7,30.1C679.2,821.1,644.1,838.6,606.9,850.1z M724.3,787.3
		c-10.1-5.4-16.8-13.4-20.5-24.3c-12.7-37.3,14.6-95.4,23-111.9c1-1.7,2-3.4,2.7-5.2l0,0c5-9.1,10.3-19.7,15.3-31.6
		c0.7,28,5.5,58.5,20,79.5v0c6.9,10.4,16.9,18.2,28.6,22.5C764.3,756.1,734.5,779.8,724.3,787.3z M835.2,641.9L835.2,641.9
		c-8.7,21.1-19.4,41.2-32,60.3c-10.2-2.5-18.4-8.3-24.9-17.7c-27.2-39.2-14.4-123.2-12.3-135.9c3-13.1,5.4-26.3,7-39.7
		c6,14.2,14.6,28,26.6,38.6c15.6,13.8,34.9,20.4,57.3,19.9C852.5,593.3,845.1,618.2,835.2,641.9z M859.5,550.8
		c-19.4,1-35.8-4.2-48.7-15.6c-26.5-23.4-33.4-67.1-35.1-86.8c-0.1-3.4-0.3-6.9-0.6-10.4c0-11.7-0.8-23-2.3-33.7
		c0.1,0.1,0.1,0.1,0.2,0.2c22.4,25.6,46.7,38.8,71.2,38.8c5,0,10-0.6,14.9-1.6c2.7,22.2,3.7,43.1,3.7,61.8c0,15-0.9,29.9-2.8,44.7
		C859.8,549.1,859.6,550,859.5,550.8z"/>
</g>
</svg>
