<?xml version="1.0" encoding="utf-8"?>
<!-- Generator: Adobe Illustrator 26.0.1, SVG Export Plug-In . SVG Version: 6.00 Build 0)  -->
<svg version="1.1" id="Layer_1" xmlns="http://www.w3.org/2000/svg" xmlns:xlink="http://www.w3.org/1999/xlink" x="0px" y="0px"
	 viewBox="0 0 1000 1000" style="enable-background:new 0 0 1000 1000;" xml:space="preserve">
<path d="M500.5,5C223.6,5,5,229.5,5,499.5C5,773.5,226.5,995,499.5,995C776.4,995,995,770.5,995,499.5C995,223.6,770.5,5,500.5,5z
	 M435.1,731.7c0,4.6-1.3,8.8-3.6,12.4c-3.6,6.9-10.8,11.6-19,11.6H208.4c-11.8,0-21.5-9.7-21.5-21.5v-0.1c0-11.8,9.7-21.5,21.5-21.5
	h179.8V563H229.5c-11.3,0-20.5-9.2-20.5-20.5v-2c0-11.3,9.2-20.5,20.5-20.5h158.7V373.3h-181c-11.9,0-21.6-9.7-21.6-21.6
	c0-11.9,9.7-21.6,21.6-21.6h205.2c7.9,0,14.9,4.4,18.6,10.8c2.6,3.8,4.1,8.3,4.1,13.2V731.7z M521.8,736.6
	c0,10.8-8.8,19.6-19.6,19.6H498c-10.8,0-19.6-8.8-19.6-19.6V287H208.8c-11.8,0-21.5-9.7-21.5-21.5v-0.1c0-11.8,9.7-21.5,21.5-21.5
	h582.2c11.8,0,21.5,9.7,21.5,21.5v0.1c0,11.8-9.7,21.5-21.5,21.5H521.8V736.6z M770.5,519.9c11.3,0,20.5,9.2,20.5,20.5v2
	c0,11.3-9.2,20.5-20.5,20.5H611.8v149.5h179.8c11.8,0,21.5,9.7,21.5,21.5v0.1c0,11.8-9.7,21.5-21.5,21.5H587.5
	c-8.2,0-15.4-4.7-19-11.6c-2.3-3.7-3.6-7.9-3.6-12.4V354.1c0-4.9,1.5-9.4,4.1-13.2c3.8-6.4,10.7-10.8,18.6-10.8h205.2
	c11.9,0,21.6,9.7,21.6,21.6c0,11.9-9.7,21.6-21.6,21.6h-181v146.6H770.5z"/>
</svg>
