<?xml version="1.0" encoding="utf-8"?>
<!-- Generator: Adobe Illustrator 26.0.1, SVG Export Plug-In . SVG Version: 6.00 Build 0)  -->
<svg version="1.1" xmlns="http://www.w3.org/2000/svg" xmlns:xlink="http://www.w3.org/1999/xlink" x="0px" y="0px"
	 viewBox="0 0 1000 1000" style="enable-background:new 0 0 1000 1000;" xml:space="preserve">
<style type="text/css">
	.st0{fill-rule:evenodd;clip-rule:evenodd;}
</style>
<g id="Layer_1">
</g>
<g id="Layer_3">
</g>
<g id="Layer_2">
	<path class="st0" d="M311.2,246.4c0-104.2,84.5-188.8,188.8-188.8c104.3,0,188.8,84.5,188.8,188.8v188.8H311.2V246.4z M253.6,245
		L253.6,245l0,1.4v188.9c-51.4,3-92.2,45.6-92.2,97.8V902c0,54.1,43.9,98,98,98h481.3c54.1,0,98-43.9,98-98V533.1
		c0-52.2-40.8-94.8-92.2-97.8V246.4V245h0C745.6,109.5,635.6,0,500,0C364.4,0,254.4,109.5,253.6,245z M219,533.1
		c0-22.3,18.1-40.3,40.3-40.3h481.3c22.3,0,40.3,18.1,40.3,40.3V902c0,22.3-18.1,40.3-40.3,40.3H259.4c-22.3,0-40.3-18.1-40.3-40.3
		V533.1z M530.3,622.5v76.9c17.2,10,28.8,28.6,28.8,49.9c0,31.8-25.8,57.6-57.6,57.6s-57.6-25.8-57.6-57.6c0-21.3,11.6-40,28.8-49.9
		v-76.9c0-15.9,12.9-28.8,28.8-28.8S530.3,606.6,530.3,622.5z"/>
</g>
</svg>
