<svg xmlns="http://www.w3.org/2000/svg" width="1000" height="1000">
  <path d="m537.045 978.394-306.58-335.961 284.864-356.4c2.555-6.388 0-11.497-6.387-11.497h-118.8c-1.277 0-3.832 0-8.942 3.832l-252.93 316.8V11.388C128.27 5 126.994 5 120.607 5h-94.53C14.58 5 14.58 5 14.58 11.387v975.95c0 5.109 1.278 7.664 11.497 7.664h94.53c5.11 0 7.664-2.555 7.664-7.665V693.53l29.38 30.658 254.207 269.535c2.555 1.278 2.555 1.278 6.387 1.278h116.246c5.11 0 10.219-5.11 2.554-16.607zm94.53 10.22c0 3.832 2.554 6.387 8.941 6.387h109.859c5.11 0 6.387-2.555 6.387-6.387V610.497c0-53.651 8.942-100.916 40.877-150.735 35.768-53.652 85.587-79.2 144.349-79.2h34.49c3.832 0 8.942-2.555 8.942-10.22v-85.587c0-7.664-1.277-11.497-6.387-11.497-118.8 0-191.613 40.878-237.6 127.742V280.923c0-3.832-1.278-6.387-6.387-6.387h-95.807c-2.555 0-7.665 0-7.665 6.387z" style="fill:#000;fill-opacity:1;fill-rule:nonzero;stroke:none;"/>
</svg>
