<svg xmlns="http://www.w3.org/2000/svg" viewBox="0 0 1000 1000"><path d="M12.68,312.544c2.282-10.666,4.137-21.445,6.922-31.978,12.337-46.666,39.755-81.16,84.23-100.728,9.6-4.222,12.313-9.52,11.991-19.2a277.569,277.569,0,0,1,1.109-38.843c3.408-31.635,26.189-55.9,55.048-59.819,35.916-4.872,64.978,9.639,76.754,41.554,6.5,17.616,7.991,37.043,12.4,55.5.959,4.015,3.993,9.547,7.331,10.684,70.715,24.09,104.209,78.383,117.01,147.369,8.71,46.935,13.263,94.656,19.244,142.08Q423.806,610.5,442.452,761.894c1.853,14.876,4.212,29.7,5.526,44.624.645,7.331,3.222,11.586,10.754,11.611q43.008.141,86.018.023c7.4-.02,10.037-4.034,10.941-11.429q17.637-144.171,35.916-288.264c8.626-67.913,16.783-135.907,26.948-203.594a194.267,194.267,0,0,1,40.458-92.643,152.571,152.571,0,0,1,71.566-50.413c7.765-2.658,11.719-6.053,12.79-14.906,1.938-16.018,4.234-32.315,9.2-47.579C764.1,73.873,793.628,56.918,831.6,61.971c30.112,4.007,52.32,28.948,55.47,63.406,1.214,13.281.161,26.767,1.333,40.055.375,4.246,3.629,10.332,7.184,11.894,65.446,28.76,94.475,82.161,94.981,149.979,1.49,199.859.487,399.736.7,599.606.01,9.114-2.907,11.84-11.89,11.724-34.057-.438-68.134-.65-102.181.1-11.23.246-13.3-3.748-13.285-13.968q.415-268.182.2-536.365c0-60.813-.266-121.627.253-182.435.09-10.514-2.846-16.283-13.405-16.726-26.218-1.1-52.446-1.964-78.672-2.848-7.158-.242-9.321,3.745-10.189,10.531q-20.3,158.54-41.136,317.011c-8.561,64.643-15.294,129.672-27.444,193.655-11.6,61.091-48.582,104.2-108.546,125.23-6.756,2.37-9.578,5.688-10.12,12.864-1.067,14.127-3.788,28.133-4.771,42.262-2.247,32.293-18.783,53.377-48.776,64.491H484.8c-33.77-11.234-49.912-35.187-51.593-70.21-.581-12.106-3.5-24.093-4.217-36.2-.467-7.83-3.828-11.074-10.965-13.465-28.645-9.6-53.289-25.389-72.607-48.994-21.389-26.135-33.913-56.424-38.523-89.386-12.008-85.869-22.892-171.9-34.152-257.867-10.418-79.55-20.873-159.1-30.909-238.7-1.036-8.212-4.253-11.634-12.1-11.367q-36.931,1.258-73.863,2.521c-12.615.42-16.323,6.429-16.3,19.277q.631,355.181.3,710.361c0,4.055.979,8.5-.366,12.048-1.2,3.162-4.972,7.6-7.638,7.616-39.729.3-79.462-.044-119.194-.235ZM115.624,200.818c-7.128,3.555-11.556,5.4-15.618,7.846-42.075,25.37-59.794,64.907-62.419,111.82-1.787,31.916-.7,64-.757,96.005q-.32,185.37-.537,370.739c-.049,38.493.286,76.991-.2,115.478-.127,10.177,3.241,13.406,13.271,12.954,16.179-.729,32.415-.189,48.627-.195,17.6-.007,17.625-.013,17.626-17.929q.008-339.754,0-679.511Zm772.431.136v18.8q0,337.538,0,675.076c0,3.649.226,7.31,0,10.944-.453,7.314,2.751,9.957,10.076,9.8,17.431-.372,34.875-.1,52.314-.111,16.379-.008,16.41-.018,16.411-16.5q.01-279.762-.015-559.523c0-6.484-.017-12.99-.51-19.448-1.935-25.384-7.935-49.621-21.6-71.436C931.507,227.452,913.455,212.027,888.055,200.954Zm-150.09-6.365c-32.251,11.893-54.79,31.184-71.148,58.03-16.117,26.451-24.506,55.6-28.355,85.936q-26.914,212.134-53.1,424.362c-1.831,14.682-3.441,29.39-5.221,44.672,2.716-.342,3.946-.28,5.006-.673,2.654-.985,5.271-2.092,7.833-3.3,41.053-19.321,66.722-52.231,75.769-95.54,9.252-44.291,14.186-89.52,20.165-134.45,12.98-97.551,25.437-195.172,38.074-292.768C730.611,252.847,734.121,224.819,737.965,194.589ZM423.774,809.013c-2.164-18.187-4.03-34.581-6.076-50.953-14.216-113.77-28.118-227.582-42.9-341.278-5.266-40.506-10.278-81.311-19.789-120.928-10.558-43.98-36.411-78.32-79.29-97.355-2.7-1.2-5.687-1.774-9.837-3.032,2.883,23.219,5.473,44.87,8.271,66.494q26.443,204.306,52.94,408.606c4.971,38.466,15.359,74.677,42.659,103.895C384.315,790.048,401.683,801.362,423.774,809.013Zm28.85,35.015c2.509,18.378,4.042,36.565,7.681,54.32,3.694,18.023,18.383,29.057,37.613,30.889,19,1.811,37.756-6.456,42.612-23.235,5.843-20.189,7.591-41.563,11.036-61.974ZM238.07,159.547c-4.184-16.875-6.665-33.834-12.7-49.414-7.024-18.128-22.963-25.449-42.053-25.146-17.782.282-31.365,7.966-38.458,24.73-7.651,18.081-5.465,36.956-4.694,54.406Zm527.169,1.233c19.929,0,35.665-.6,51.333.171,15.5.769,30.922,2.932,48.382,4.685-1.031-15.965-.761-30.977-3.239-45.521-3.448-20.235-16.59-31.769-35.641-34.3-21.079-2.8-39.591,5.134-47.2,23.873C772.483,125.421,769.894,142.7,765.239,160.78Z"/></svg>