<svg xmlns="http://www.w3.org/2000/svg" viewBox="0 0 1000 1000"><path d="M5 500.002v.395-.395c.099-89.506 22.55-172.682 67.253-249.726 44.209-74.473 103.55-133.814 178.023-178.023C327.419 27.45 410.694 5 500.002 5c89.308 0 172.583 22.45 249.726 67.253C824.2 116.462 883.54 175.803 927.75 250.276c44.803 77.143 67.253 160.418 67.253 249.726 0 89.308-22.45 172.583-67.253 249.726C883.541 824.2 824.2 883.54 749.728 927.75c-77.143 44.803-160.418 67.253-249.726 67.253-89.308 0-172.583-22.45-249.726-67.253-74.473-44.209-133.814-103.55-178.023-178.022C27.55 672.684 5.099 589.508 5 500.002zm193.847 142.912c0 24.726 1.978 24.726 20.77 24.726h43.219c-1.681 2.67-10.978 27.197-39.264 72.198-18.791 28.681-10.879 32.637 61.319 32.637H457.97c16.813 0 31.648 0 49.45-10.88L388.738 667.64c21.758 0 39.56 2.967 57.362 0 7.912 0 17.803-2.967 21.759-10.88 10.879-24.725-3.956-43.516-31.649-43.516h-21.758c-7.912 0-10.88-2.967-10.88-9.89 0-3.956 10.88-3.956 17.803-3.956h60.33c14.835 0 17.802-6.924 17.802-21.759s3.956-27.692-17.802-31.648H446.1c-17.802 0-21.758-3.956-9.89-18.791 6.923-17.803 17.803-31.649 27.693-47.473 43.516-56.374 92.967-95.935 159.23-117.693 38.573-10.879 71.21-6.923 96.924 24.725 99.89 115.715 211.65-68.241 42.528-110.77-38.572-10.878-75.165-6.922-111.759 6.924-38.571 13.846-78.132 39.56-117.692 61.319-17.803 6.923-33.627 21.758-54.396 28.681-24.725 13.846-61.319 10.88-79.121-10.879-17.803-21.758-24.726-53.407-7.912-79.121 11.868-13.846 29.67-28.681 47.472-39.56 10.88-10.88 22.748-14.836 14.835-32.638-3.956-13.846-17.802-9.89-29.67-9.89-90 5.934-169.121 99.89-99.89 189.89 17.802 25.715 43.516 35.605 71.209 43.517 18.79 7.912 21.758 10.88 10.879 25.715-17.802 23.736-31.649 49.45-49.45 71.209-6.924 7.912-18.792 14.835-28.682 14.835-25.715 3.956-54.396 0-83.078 3.956-7.912 0-18.79 2.967-21.758 8.901-6.923 29.67 0 40.55 31.649 40.55h32.637c17.802 0 28.682 13.846-2.967 13.846h-65.275c-20.77 0-20.77 3.956-20.77 29.67zm63.993 24.726h.293c0-.297-.1-.297-.297 0z"/></svg>