<svg xmlns="http://www.w3.org/2000/svg" width="1000" height="1000">
  <path d="M926.53 500.376c0-64.907 0-130.973 3.478-195.88 0-41.726-16.227-69.543-56.793-88.088C764.264 146.865 658.79 85.436 548.68 22.847 513.91-.334 486.092-.334 451.32 19.37 340.051 85.436 229.941 152.66 117.513 216.408c-31.294 18.545-47.52 41.726-47.52 84.611v396.396c0 42.884 16.226 66.065 47.52 85.77 112.428 62.588 222.538 129.813 333.807 197.038 30.135 19.704 59.112 19.704 92.724 0 111.269-67.225 224.856-134.45 337.284-197.039 32.453-19.704 48.68-42.885 48.68-82.292-3.477-66.066-3.477-132.132-3.477-200.516zm-722.088 46.362c50.998 33.612 98.52 59.112 144.881 88.088 19.704 11.59 42.885 23.18 62.59 35.93 101.996 57.953 161.107 47.521 243.4-47.52-32.453-35.931-68.384-67.226-121.7-59.112-23.181 4.636-54.476 4.636-54.476-30.136-5.795-40.566-27.817-45.203-59.111-45.203-32.454 0-50.999-6.954-63.748-35.93-11.59-23.181-34.772-33.613-53.317-49.84-24.34-15.067-50.998-31.294-88.087-55.634 70.702-42.885 134.45-71.861 188.925-112.428 69.543-54.475 133.29-57.952 207.47-4.636 47.521 40.567 106.633 67.225 161.108 98.52-24.34 40.566-46.362 42.884-78.815 26.658-41.726-22.022-82.293-42.885-120.542-69.544-44.044-32.453-83.451-34.771-129.813 0-27.818 18.545-57.953 35.931-90.406 59.112 34.771 38.249 57.952 59.112 107.791 46.362 23.181-5.795 68.384-8.113 60.271 44.044-4.636 10.431 30.135 35.93 47.521 34.772 40.567 0 75.338-3.478 77.657 50.998 0 12.75 27.817 23.18 44.043 34.771 31.295 20.863 62.59 38.249 107.792 67.225-60.27 38.249-107.792 70.702-159.949 98.52-158.79 89.247-100.837 92.724-261.945 0-49.84-27.818-97.36-55.635-146.04-83.452-30.136-19.704-49.84-44.044-25.5-91.565z" style="fill:#000;fill-opacity:1;fill-rule:nonzero;stroke:none;"/>
</svg>
