<svg xmlns="http://www.w3.org/2000/svg" width="1000" height="1000">
  <path d="m629.068 272.034 136.484 227.473L631.046 727.97H366.98L234.451 500.496 366.98 272.034zM5 500.496c0-89.703 22.45-173.077 67.253-250.22 44.209-74.473 103.55-133.814 178.023-178.023C327.419 27.45 410.793 5 500.496 5 590.2 5 673.277 27.45 749.728 72.253c75.165 44.209 134.506 103.55 178.022 178.023 44.803 77.143 67.253 160.517 67.253 250.22 0 89.704-22.45 172.78-67.253 249.232-43.516 75.165-102.857 134.506-178.022 178.022-76.451 44.803-159.528 67.253-249.232 67.253-89.703 0-173.077-22.45-250.22-67.253-74.473-43.516-133.814-102.857-178.023-178.022C27.451 673.277 5 590.2 5 500.496zm155.275 0 170.11 291.76H667.64l172.088-292.749-175.055-291.76H330.386zm214.616 121.649h249.232V372.913H374.891v54.396h95.935v45.495H374.89V527.2h150.33v-99.89h44.506v140.44H374.891z" style="fill:#000;fill-opacity:1;fill-rule:nonzero;stroke:none;"/>
</svg>
