<svg xmlns="http://www.w3.org/2000/svg" width="1000" height="1000">
  <path d="M499.507 995.003h.99c89.01 0 172.088-22.45 249.23-67.253 74.474-44.209 133.814-103.55 178.023-178.022 44.803-77.143 67.253-160.418 67.253-249.726 0-89.308-22.45-172.583-67.253-249.726-44.209-74.473-103.55-133.814-178.022-178.023C672.585 27.45 589.31 5 500.002 5c-89.308 0-172.583 22.45-249.726 67.253-74.473 44.209-133.814 103.55-178.023 178.023C27.451 327.419 5 410.694 5 500.002c0 89.308 22.45 172.583 67.253 249.726C116.462 824.2 175.803 883.54 250.276 927.75c77.143 44.803 160.22 67.253 249.231 67.253zm-250.22-350.11v-92.968c0-3.956 1.978-4.945 3.956-5.934l133.517-65.275c40.55-19.78 80.11-39.56 120.66-58.352.988-.989 2.966-1.978 4.944-3.956-4.945-1.978-10.879-4.945-15.824-6.923-33.626-16.813-68.242-33.627-103.846-50.44-45.495-22.747-92.968-44.506-139.451-67.253-2.967-.989-3.956-2.967-3.956-6.923v-91.978c0-3.956.989-4.945 4.945-6.923 29.67-12.858 60.33-24.726 90-38.572 2.967-1.978 2.967-2.967 4.945-2.967h1.978c14.835 7.912 30.66 16.813 47.473 23.736 44.505 20.77 89.011 43.517 133.517 64.286 65.275 31.649 130.55 62.308 196.813 93.957 3.957 1.978 5.935 3.956 5.935 8.9-.99 29.671 0 59.342 0 88.023 0 3.956-1.978 6.923-4.946 8.901-31.648 12.857-61.318 25.715-91.978 39.56-21.758 10.88-44.505 23.737-67.253 34.616-63.297 32.638-126.594 64.286-191.869 95.935 0 1.978-.989 2.967-3.956 2.967 86.045 42.527 172.089 84.066 259.122 125.605v-201.76c0-4.944.99-8.9 4.945-8.9 30.66-13.847 60.33-27.693 90-40.55 1.978 0 2.968-.99 4.946-.99 0 1.979.989 3.957.989 5.935v297.693c0 3.956-.99 5.934-4.946 6.923-30.659 13.847-60.33 26.704-90.989 40.55-3.956 1.978-6.923.989-9.89 0-69.231-34.616-140.44-67.253-209.671-99.89-48.462-23.737-99.89-49.451-150.33-73.188-5.934-2.967-10.88-4.945-16.813-7.912-1.978-.989-2.967-2.967-2.967-5.934z" style="fill:#000;fill-opacity:1;fill-rule:nonzero;stroke:none;"/>
</svg>
