<svg xmlns="http://www.w3.org/2000/svg" width="1000" height="1000">
  <path d="M560.758 119.32c4.607 8.063 32.25 65.654 35.706 111.727 0 9.215-2.303 10.367-10.366 10.367H432.905c-8.063 0-10.367-1.152-9.215-10.367 0-34.554 12.67-67.957 28.796-99.057 2.303-3.455 4.607-6.91 5.759-12.67H261.282c25.34 38.01 36.859 79.476 36.859 122.094H158.769c-5.759 0-9.214 2.304-12.67 8.063-44.921 81.78-93.298 161.256-139.371 244.188-2.304 5.759-2.304 8.062 0 13.821 16.125 25.34 29.947 51.833 46.073 78.325C82.748 641.099 115 695.235 146.099 751.674c2.304 3.456 4.607 6.911 10.367 6.911h120.942c4.607 0 6.91-1.152 6.91-6.91V660.68c0-5.76 0-5.76-6.91-6.911h-28.796c-5.76 0-10.367-1.152-13.822-8.063-26.492-47.225-51.832-93.298-78.324-140.523-3.456-3.456-3.456-5.76 0-10.367 26.492-47.225 51.832-92.146 78.324-139.371 3.455-5.76 8.063-6.91 13.822-6.91h344.397V358.9c0 26.492 0 51.832 1.152 78.324 0 8.063-3.456 10.366-9.215 10.366 3.455 0-160.104-1.151-160.104-1.151v-79.477c0-5.759-1.152-8.062-10.367-8.062H305.051c-6.91 0-8.062 2.303-8.062 10.366v421.57c0 20.732-8.063 35.706-21.885 49.528-10.367 10.367-20.733 19.581-31.1 29.948-3.455 2.303-5.759 4.607-11.518 10.366h255.706c-38.01-33.403-71.413-65.654-65.654-119.79 4.607-2.304 8.063-2.304 11.518-2.304h426.177c6.911 0 10.367-1.152 13.822-6.91 12.67-23.037 24.188-43.77 34.555-64.503 23.037-38.01 47.225-76.02 81.78-108.272 0-2.304 2.303-3.456 4.607-5.76-10.366-1.151-19.581-2.303-26.492-2.303-48.377-2.304-95.602-2.304-143.979-3.455-4.607 0-5.759 1.151-10.366 5.759-8.063 25.34-18.43 48.377-27.644 70.261-3.455 9.215-8.063 10.367-17.277 10.367h-32.252c-12.67 0-12.67 0-12.67-12.67V205.707c0-12.67 3.456-24.188 8.063-34.555 5.76-13.822 13.822-28.795 21.885-42.617 1.152-1.152 2.304-5.76 2.304-9.215zM424.842 649.161v-94.45h168.167v92.147c0 5.759-2.304 6.91-6.911 6.91H432.905c-2.304 0-8.063-3.455-8.063-4.607zM530.81 880.68h255.706c-8.063-6.91-13.822-11.518-18.43-17.277-26.491-24.189-49.528-50.68-51.832-86.387 0-2.304-2.303-5.76-5.759-5.76-35.706-2.303-70.261 0-105.968-2.303-4.607 0-5.76 3.455-5.76 8.063 0 19.58-8.062 38.01-18.428 51.832-10.367 11.518-19.581 21.885-31.1 34.555-4.607 5.759-10.366 10.366-18.429 17.277zm203.874-541.36c0 5.76 3.455 9.215 8.063 9.215 11.518-1.152 21.884-1.152 29.947 0 3.456 0 9.215 1.152 10.367 3.456 12.67 25.34 25.34 49.528 31.099 74.868 2.304 5.76 4.607 6.911 9.215 6.911 57.591 0 100.209 0 152.041-3.455 20.733 0 13.822-8.063 3.456-19.581-18.43-19.581-36.86-39.162-48.377-62.199-19.581-33.403-38.01-66.806-56.44-99.057-3.455-5.76-6.91-8.063-11.518-8.063h-119.79c-4.608 0-8.063 2.304-8.063 9.215z" style="fill:#000;fill-opacity:1;fill-rule:nonzero;stroke:none;"/>
</svg>
