<svg xmlns="http://www.w3.org/2000/svg" width="1000" height="1000">
  <path d="M500.002 995.003c276.43 0 495.001-224.506 495.001-495.001C995.003 226.539 773.464 5 500.496 5 223.572 5 5 229.506 5 500.002c0 276.43 224.506 495.001 495.002 495.001zm-396.1-490.55c0-218.573 176.044-394.618 395.605-394.618 217.583 0 393.628 176.045 393.628 394.617 0 218.572-176.045 395.606-393.628 395.606-219.561 0-395.606-177.034-395.606-395.606zm176.044 49.45c1.978 13.846 12.857 19.78 24.725 19.78 32.638 0 64.286.99 96.924 0 2.967 0 4.945.99 4.945 4.945 22.747 58.352 44.505 116.704 67.253 176.045 4.945 11.868 11.868 16.813 24.725 16.813 11.868 0 20.77-4.945 23.736-16.813 12.858-30.66 23.737-61.32 35.605-91.979 10.88-27.692 21.758-57.362 32.637-85.055 0-1.978 0-3.956 1.978-3.956 23.737.99 48.462.99 72.199.99 0 0 1.978-.99 2.967-.99 13.846 0 27.692.99 39.56 0 16.813 0 28.682-13.846 22.747-30.66-2.967-10.878-11.868-16.812-23.736-16.812H627.09c-.989 0-2.967-.99-2.967-.99-2.967 0-4.945.99-6.923.99H307.638c-3.956 0-6.923 0-9.89.989-11.868 2.967-19.78 14.835-17.802 26.703zm.989-106.814c-2.967 9.89-.989 19.78 7.912 26.704 3.956 5.934 10.88 5.934 18.791 5.934h398.573c17.802 0 28.682-13.846 24.725-30.66-2.967-10.879-12.857-17.802-24.725-17.802h-61.319c0-.989 1.978-2.967 1.978-2.967 6.923-17.802 11.868-33.626 17.803-51.429 10.879-25.714 20.769-51.428 31.648-77.143 2.967-10.879 0-20.77-7.912-26.703-12.857-12.857-32.638-8.901-37.583 7.912-6.923 12.857-10.879 24.725-15.824 37.583-7.912 22.747-16.813 45.494-24.725 68.242-5.934 12.857-10.88 27.692-16.813 41.538-.99.99-.99 2.967-1.979 2.967H406.54c-1.978 0-2.967-.989-3.956-2.967-10.88-27.692-20.77-54.396-31.649-82.088-7.912-21.758-15.824-43.517-24.725-65.275-3.956-10.88-16.813-17.802-27.692-14.835-13.847 3.956-23.737 17.802-16.814 33.626 6.923 15.824 11.868 31.649 17.803 47.473 10.879 27.692 20.769 53.407 29.67 81.1.989 0 .989.988 2.967 2.966h-47.473c-10.879 0-19.78 6.923-23.736 15.824zm177.034 127.583h81.099c-13.846 35.605-26.704 70.22-40.55 106.814-13.846-36.594-27.692-70.22-40.55-106.814z" style="fill:#000;fill-opacity:1;fill-rule:nonzero;stroke:none;"/>
</svg>
