<svg xmlns="http://www.w3.org/2000/svg" viewBox="0 0 1000 1000"><path d="M499.507 995.003h.99c89.01 0 172.088-22.45 249.23-67.253 74.474-44.209 133.814-103.55 178.023-178.022 44.803-77.143 67.253-160.418 67.253-249.726 0-89.308-22.45-172.583-67.253-249.726-44.209-74.473-103.55-133.814-178.022-178.023C672.585 27.45 589.31 5 500.002 5c-89.308 0-172.583 22.45-249.726 67.253-74.473 44.209-133.814 103.55-178.023 178.023C27.451 327.419 5 410.694 5 500.002c0 89.308 22.45 172.583 67.253 249.726C116.462 824.2 175.803 883.54 250.276 927.75c77.143 44.803 160.22 67.253 249.231 67.253zm-270.99-697.255c-6.923-11.868-5.934-26.703 17.802-26.703h35.605c46.484 0 43.517-5.934 68.242 43.516 51.429 103.847 103.846 202.748 153.297 308.573 6.923 14.835 18.791 23.736 36.594 23.736 20.769 0 31.648-5.934 43.516-23.736 79.122-167.144 110.77-236.375 161.21-330.33 2.967-6.924 5.934-9.891 8.9-12.858 7.913-8.901 14.836-8.901 22.748-2.967 6.923 5.934 3.956 11.868 0 20.77-36.593 71.208-72.198 146.373-107.802 217.582-45.495 96.924-114.726 243.298-135.495 270.001-14.836 18.792-48.462 12.857-64.286-8.9-8.901-8.902-64.286-126.595-113.737-228.463-54.396-103.847-120.66-237.364-126.594-250.22z"/></svg>