<svg xmlns="http://www.w3.org/2000/svg" width="1000" height="1000">
  <path d="M5 500.496c0 271.98 220.55 494.507 495.496 494.507 271.98 0 494.507-220.55 494.507-495.496C995.003 227.528 773.464 5 500.496 5 226.54 5 5 225.55 5 500.496zm102.857-6.923c0-219.561 179.012-396.595 395.606-396.595 213.627 0 393.628 174.067 395.606 396.595 0 221.54-176.045 398.573-398.573 398.573-218.572 0-392.639-180-392.639-398.573zm25.715-55.385c-4.945 47.473-1.978 91.979 7.912 136.484 2.967 5.934 2.967 13.846 13.846 13.846 9.89 0 17.802-5.934 20.77-13.846V440.166c0-12.857-7.913-17.802-23.737-17.802-15.824 0-15.824 0-18.791 15.824zm50.44-137.473c10.879 20.77 31.648 23.737 47.472 7.912 26.704-29.67 55.385-55.384 82.088-85.055 4.946-1.978 4.946-7.912 7.913-9.89 0-15.824-7.913-21.758-15.825-26.703-10.879-10.88-10.879-10.88-21.758-2.967-9.89 10.879-23.736 18.79-33.626 29.67-23.737 20.77-45.495 47.473-63.297 76.154-2.967 2.967-2.967 7.912-2.967 10.88zM204.78 707.2c21.758 23.736 42.527 44.506 66.264 66.264 12.857 12.857 31.648 23.736 50.44 36.594 9.89-12.858 9.89-18.792 1.978-26.704l-25.715-25.714c-21.758-18.791-39.56-39.56-61.319-61.319-7.912-4.945-15.824-9.89-25.714-7.912-7.912 5.934-10.88 10.879-5.934 18.791zm55.385-213.627C255.22 617.2 361.046 738.849 503.463 738.849c139.451-2.967 240.33-118.682 240.33-245.276 0-121.649-100.879-243.297-245.275-240.33-143.407 1.978-240.33 121.648-238.352 240.33zm15.824 1.978c0-123.627 103.846-226.484 227.473-224.506 123.627 0 224.506 103.846 221.54 224.506 2.966 124.616-99.891 224.506-224.507 224.506-123.627 0-224.506-99.89-224.506-224.506zm85.055-12.857c-10.879 23.736-10.879 47.473 2.967 71.209 7.912 12.857 17.802 23.736 33.627 23.736 26.703 2.967 53.406 2.967 79.12 2.967 10.88 0 16.814-23.736-7.911-23.736-15.825 0-33.627-1.978-52.418-1.978-15.824 0-23.736-8.901-26.703-24.725-1.978-7.913-1.978-15.825-1.978-26.704 1.978-12.857 9.89-23.736 25.714-23.736 7.912-1.978 18.791-1.978 26.703-1.978 23.737-3.956 23.737-10.88 26.704-26.704-26.704 0-47.473-2.967-71.21 2.967-15.824 4.946-26.703 12.858-34.615 28.682zm60.33 356.045c0 7.912 7.912 10.88 13.846 10.88 48.462 3.955 75.165 3.955 139.451 0 12.857 0 8.901-26.704-10.879-26.704H432.254c-7.912 2.967-10.879 10.879-10.879 15.824zm0-694.288c0 18.791 5.934 23.736 23.736 23.736h118.682c15.824 0 21.758-7.912 23.736-20.769v-7.912c0-15.824 0-15.824-15.824-18.791-44.505-7.912-87.033-7.912-128.572 0-26.703 2.967-21.758 2.967-21.758 23.736zm50.44 232.418c0 19.78 14.835 26.704 31.648 26.704 15.824 0 15.824 0 15.824 12.857v18.791c0 15.824 0 15.824-12.857 15.824H495.55c0 15.825 2.967 20.77 12.857 26.704 10.88 0 10.88 4.945 10.88 12.857v87.033c2.966 2.967 4.945 2.967 4.945 2.967h77.143c31.648-4.945 51.428-35.604 47.472-69.23 0-33.627-21.758-60.33-61.319-60.33H566.76c-12.857 0-12.857 0-12.857-15.825V376.87zm82.088 153.298v-42.528c0-7.912 0-10.88 9.89-9.89 10.88 0 18.791 0 29.67 1.978 13.847 0 23.737 20.77 23.737 31.648 0 34.616-10.88 42.528-37.583 42.528-28.681 0-25.714 4.945-25.714-23.736zm131.539 248.242c-4.945 7.912-1.978 15.824 2.967 20.77 4.945 5.934 10.879 0 15.824-1.979 34.616-21.758 63.297-50.44 90-82.088 4.945-7.912 9.89-15.824 17.803-23.736-12.858-18.791-23.737-18.791-36.594-4.945-26.703 25.714-55.385 55.385-84.066 84.066-2.967 2.967-5.934 4.945-5.934 7.912zm7.912-546.925c18.791 18.792 39.56 39.56 61.319 58.352l23.736 23.736c1.978 2.967 7.912 4.946 9.89 7.913 10.88 0 15.825-4.946 26.704-15.825 7.912-7.912 7.912-10.879 2.967-18.79-23.737-36.594-53.407-68.243-90-94.946-20.77-15.825-15.825-17.803-34.616 2.967-15.824 12.857-15.824 20.769 0 36.593zM827.86 556.87c0 10.88 6.923 25.714 26.703 25.714 7.912-1.978 7.912-7.912 10.88-15.824 7.912-32.637 15.824-139.45-2.968-150.33-15.824-7.912-34.615 2.967-34.615 23.736z" style="fill:#000;fill-opacity:1;fill-rule:nonzero;stroke:none;"/>
</svg>
