<svg xmlns="http://www.w3.org/2000/svg" viewBox="0 0 1000 1000"><path d="M500.496 5C223.572 5 5 229.506 5 500.002c0 276.43 224.506 495.001 495.002 495.001 276.43 0 495.001-224.506 495.001-495.001C995.003 226.539 773.464 5 500.496 5zM122.693 633.024h92.967c2.967 0 9.89 2.967 9.89 6.923 17.802 23.736 31.649 48.462 45.495 79.121-31.649 0-62.308 0-92.968-3.956l-6.923-2.967c-17.802-27.692-31.648-51.429-48.461-79.12zm0-30.66c3.956-6.922 6.923-10.879 6.923-13.846 86.044-155.275 175.055-309.561 261.1-467.803 6.923-9.89 13.846-13.847 23.736-13.847h83.077c-16.813 37.583-37.582 69.231-55.385 102.858C411.484 262.144 383.792 313.572 356.1 365c-12.857 20.77-9.89 30.66 17.802 30.66h226.485c13.846 0 17.802 3.956 24.725 13.846 9.89 20.77 23.736 44.505 40.55 72.198H308.627c-13.846 0-24.725 2.967-31.648 16.813-12.857 31.649-30.66 62.308-47.473 92.967-3.956 6.924-10.879 10.88-20.77 10.88zm127.583 20.77c0-3.956 0-10.88 2.967-13.846 13.846-27.693 27.692-55.385 44.505-86.045 17.802 30.66 31.649 54.396 45.495 82.089 2.967 3.956 2.967 6.923 0 10.879-13.846 26.703-27.693 54.396-45.495 85.055-16.813-26.703-30.66-54.396-47.472-78.132zm72.198-113.737h357.034c13.846 0 23.736-3.956 30.66-17.802 13.845-30.66 31.648-61.319 48.46-89.011 3.957-6.923 13.847-13.846 20.77-13.846h86.044c-3.956 6.923-6.923 10.879-6.923 17.802-89.01 154.286-175.055 308.572-261.1 463.847-6.923 9.89-10.879 16.814-24.725 16.814-26.703-2.967-51.429-2.967-82.088-2.967 2.967-6.923 6.923-10.88 9.89-17.803 41.539-79.12 86.044-158.242 130.55-237.363 13.846-23.736 10.88-33.626-16.813-33.626-75.165 0-151.32 0-226.484 2.967-10.88 0-17.803-6.924-24.726-16.814-13.846-24.725-26.703-44.505-40.55-72.198zm65.275-141.429c44.505-86.044 89.01-165.165 137.473-247.253 16.813 27.692 30.659 55.384 44.505 79.12 2.967 2.968 0 9.89 0 16.814-27.692 45.495-51.429 92.967-79.121 141.43-3.956 2.966-9.89 6.922-16.813 6.922-27.693 2.967-55.385 2.967-86.044 2.967zm30.659 426.265c-3.956-2.967 0-13.846 0-16.813 27.692-48.462 55.385-95.934 79.121-144.396 2.967-3.956 9.89-6.923 13.846-6.923h89.012c-44.506 82.088-89.012 161.21-133.517 244.287-17.803-27.693-34.616-51.43-48.462-76.155zM641.925 385.77c0-3.956 0-6.923 2.967-10.879 13.846-27.692 31.649-54.395 45.495-86.044 16.813 27.692 30.66 55.385 44.506 79.121 2.967 3.956 2.967 10.88 0 13.846-13.847 27.693-27.693 55.385-44.506 86.045-17.802-30.66-31.649-58.352-48.462-82.089zM717.09 275h92.968c3.956 0 6.923 3.957 6.923 6.924 17.802 24.725 30.66 48.462 48.461 79.121h-92.967c-2.967 0-9.89-2.967-9.89-6.923-13.846-23.736-31.649-51.429-45.495-79.121z"/></svg>