<svg xmlns="http://www.w3.org/2000/svg" viewBox="0 0 1000 1000"><path d="M500.496 995.003c275.935 0 494.507-224.506 494.507-495.496C995.003 226.54 773.464 5 500.496 5 223.572 5 5 229.506 5 499.507c0 276.924 224.506 495.496 495.496 495.496zM203.792 698.3c-6.923-43.517 7.912-80.11 40.55-108.792 8.9-10.879 12.857-10.879 23.736 0 9.89 7.913 16.813 14.836 23.736 22.748 5.934 5.934 5.934 10.879 0 16.813-3.956 4.945-10.879 10.88-13.846 15.824-17.802 26.704-13.846 58.352 7.912 76.154 21.758 19.78 54.396 19.78 77.143-1.978 25.715-26.703 53.407-53.406 81.1-80.11 6.922-7.912 4.944-12.857.988-20.77-13.846-23.736-25.714-47.472-54.395-55.384-6.924-1.978-11.869-7.912-17.803-11.868-13.846 11.868-25.714 24.725-37.582 36.593-15.824 13.847-16.813 13.847-30.66-.989-6.923-5.934-12.857-12.857-19.78-18.79-6.923-6.924-6.923-14.836 0-20.77 8.901-9.89 18.791-18.791 26.703-28.682 5.935-4.945 8.902-7.912 15.825-14.835-14.836-13.846-26.704-25.714-39.56-38.571-19.781-20.77-40.55-40.55-59.342-63.297-42.527-48.462-34.615-122.638 15.824-167.144 46.484-40.55 118.682-38.571 164.177 5.934 2.967 1.978 4.945 4.945 6.923 6.923 11.868 11.869 11.868 13.847-.99 25.715-5.933 6.923-14.834 12.857-18.79 19.78-12.858 12.857-15.825 12.857-28.682 0-8.9-7.912-17.802-15.824-30.66-19.78-20.769-4.945-45.494 1.978-57.362 17.802-14.835 19.78-14.835 39.56-5.934 63.297 3.956 1.978 4.945 4.945 6.923 7.912 31.648 31.649 61.319 62.308 92.967 91.978 15.825-7.912 30.66-15.824 44.506-25.714 4.945-1.978 7.912-5.934 9.89-8.901 7.912-12.857 12.857-25.714 21.758-41.539-1.978-3.956-5.934-8.9-9.89-13.846-9.89-9.89-19.78-18.791-27.692-28.681-10.88-7.912-10.88-13.846-2.967-21.759l24.725-24.725c10.88-8.901 13.846-8.901 22.748 0 11.868 9.89 22.747 21.758 31.648 31.649 3.956 3.956 6.923 6.923 11.868 8.9 4.945-3.955 9.89-7.911 12.857-11.868 26.704-24.725 49.451-48.461 74.176-71.209 24.726-27.692 56.374-42.527 96.924-40.55 49.45 4.946 88.022 29.671 103.846 77.144 17.803 45.495 10.88 87.033-22.747 124.616-5.934 6.923-12.857 12.857-22.747 20.77-10.88-11.87-23.737-24.726-36.594-37.583-3.956-4.946-2.967-10.88 1.978-15.825 6.923-5.934 13.846-13.846 17.802-20.769 12.858-24.725 6.924-55.385-11.868-71.209-22.747-16.813-53.407-17.802-76.154 1.978a1792.433 1792.433 0 0 0-61.319 61.319c-8.9 9.89-16.813 20.77-25.714 30.66 7.912 16.813 16.813 32.637 25.714 47.472 2.967 3.956 5.934 5.934 11.868 8.901 11.869 6.923 23.737 13.846 39.561 21.758 3.956-5.934 12.857-13.846 20.77-20.769 6.922-5.934 13.845-13.846 21.758-19.78 4.945-5.934 9.89-5.934 15.824-1.978 11.868 11.868 24.725 21.758 36.593 34.615-14.835 22.748-35.604 34.616-51.428 55.385 6.923 5.934 10.879 9.89 14.835 15.824 24.725 23.737 47.473 47.473 72.198 72.198 24.725 25.715 39.56 56.374 37.582 94.946-.989 56.374-48.461 107.802-103.846 113.736-48.462 3.957-86.044-12.857-117.693-54.395 13.846-12.858 24.726-24.726 36.594-35.605 5.934-5.934 11.868-2.967 17.802 2.967 5.934 4.945 10.88 9.89 17.802 13.846 23.737 14.836 52.418 10.88 71.21-6.923 16.813-18.791 20.769-49.45 4.944-71.209-10.879-15.824-24.725-26.703-38.571-40.55-17.802-17.802-38.572-37.582-56.374-56.373-16.813 9.89-31.648 17.802-46.484 25.714-4.945 1.978-6.923 6.923-9.89 10.88-7.912 13.846-14.835 27.692-22.747 43.516 9.89 10.88 21.758 21.758 33.626 34.616 15.825 14.835 15.825 18.79 0 32.637-2.967 4.945-9.89 10.88-14.835 13.846-11.868 13.846-14.835 13.846-26.703 0-12.857-10.879-25.715-23.736-40.55-38.571-31.648 31.648-62.308 61.319-91.978 90.989-14.835 15.824-31.649 25.714-51.429 31.648-65.275 23.737-142.418-27.692-152.308-97.912z"/></svg>