<svg xmlns="http://www.w3.org/2000/svg" viewBox="0 0 1000 1000"><path d="M5 500.496C5 225.55 226.54 5 500.496 5c272.968 0 494.507 222.528 494.507 494.507 0 274.946-222.528 495.496-494.507 495.496C225.55 995.003 5 772.475 5 500.496zm123.627 71.21c30.66 0 59.34 0 90 1.977v176.045H337.31c71.209 0 78.132-9.89 84.066-88.023h-100.88v-88.022h179.012c-19.78 57.363-43.516 117.693-63.297 176.045 103.847 2.967 100.88 16.813 138.462-78.132 30.66-75.165 37.583-106.814 81.1-101.869h176.044c27.692 0 40.55-6.923 40.55-36.593-2.967-65.275 0-129.561 0-193.847 0-26.704-5.935-36.594-37.583-36.594h-191.87c-27.692 0-34.615 15.825-40.55 30.66-17.802 36.593-31.648 78.132-47.472 118.681-7.912 12.858-20.77 26.704-30.66 26.704-68.241 2.967-135.494 2.967-206.703 2.967V386.76h159.23c74.177 0 81.1-2.968 90.99-81.1H218.627v173.078c-74.176 0-82.088 49.45-90 92.967zm530.111-90.001c17.803-85.055 34.616-95.935 94.946-94.946 30.66 0 24.725 30.66 24.725 50.44 0 24.726 0 44.506-24.725 44.506z"/></svg>