<svg xmlns="http://www.w3.org/2000/svg" viewBox="0 0 1000 1000"><path d="M502.745 995.004c-21.952 0-234.88-118.537-346.831-183.294-34.025-20.853-69.147-34.024-104.269-54.878v-509.27C322.744 105.976 493.964 10.488 502.745 5c14.268 15.366 148.17 83.415 228.293 128.415 74.634 39.512 148.171 80.122 217.318 114.147v504.88C555.428 967.565 513.72 995.004 502.745 995.004zM117.499 698.66c0 17.561 4.39 29.634 18.659 34.025 119.634 63.658 233.781 124.025 347.928 187.683 15.366 5.488 18.659 5.488 34.024-3.292 114.147-60.366 233.782-126.22 346.831-188.782 14.268-4.39 25.244-15.366 25.244-36.22-6.585-127.317 0-256.83 0-389.635 0-16.463-10.976-25.244-19.756-29.634-118.537-65.853-234.88-125.122-347.929-188.78-14.269-4.39-23.05-4.39-38.415 0-114.147 63.658-232.684 129.512-347.928 188.78-14.269 8.781-18.659 13.172-18.659 29.635zm104.269-212.927c-4.39-4.39-4.39-12.074 0-20.854 49.39-63.659 114.147-118.537 192.074-138.293 94.39-24.147 180-15.366 256.83 39.512 23.049 16.463 50.488 40.61 75.732 63.659 14.268 10.975 14.268 8.78 35.122 0l54.878-23.05v4.391c9.878 91.098-178.903 139.39-178.903 203.05v64.756c0 40.61 53.78 13.17 53.78-30.732 0-26.341 16.464-32.927 59.27-52.683 10.975 59.269-27.44 124.025-79.025 161.342-87.805 46.098-93.293-6.585-93.293-108.659v-24.146c-59.269 14.268-120.732 18.658-184.391 0v172.317c-18.659-9.878-34.025-14.268-49.39-24.146-8.781-5.488-8.781-15.366-8.781-19.756V620.734c0-16.463-6.586-21.951-16.464-25.244-49.39-30.732-83.415-65.854-117.44-109.756zm4.39-139.391c129.513-173.416 409.392-177.806 538.905 0-2.196 0-35.122 24.146-43.903 24.146-15.366-4.39-26.342-18.658-35.122-24.146-108.659-98.781-280.977-98.781-385.245 5.488-5.488 5.487-10.976 8.78-14.269 14.268-6.585 4.39-8.78 3.293-15.366 0-15.366-5.488-31.83-14.268-45-19.756zm74.635 139.39c29.634 29.635 69.146 61.464 108.659 72.44-39.513-63.659-36.22-117.44 13.17-166.83-49.39 8.78-75.732 20.854-121.83 73.537-10.975 8.78-5.487 16.463 0 20.854zm276.586-94.39c49.39 49.39 54.878 103.171 20.854 163.537 43.902-15.366 72.439-39.512 103.17-73.537 4.391-7.683 4.391-12.073 0-16.463-34.024-34.025-90-81.22-124.024-73.537z"/></svg>