<svg xmlns="http://www.w3.org/2000/svg" viewBox="0 0 1000 1000"><path d="M500,995c273.38,0,495-221.62,495-495S773.38,5,500,5,5,226.62,5,500,226.62,995,500,995ZM201,285.73,346.73,140H416c-18.76,10.82-80.8,88-96.67,145.73ZM486.69,140V285.73h-140c9.86-30.06,45-101.29,106.78-145.73Zm28.14,145.73h141.4C623.33,207.24,569.9,155.87,547.29,140H514.83Zm283.52,0H683.65c-18-43.28-50.65-103-97.4-145.73h64.93ZM315.71,714.27H201L348.17,860H413.1C366.36,817.29,333.74,757.55,315.71,714.27Zm27.41,0H484.53V860H452.06C429.46,844.13,376,792.76,343.12,714.27Zm169.54,0V860h33.19c61.75-44.44,96.91-115.67,106.77-145.73ZM652.62,860,798.35,714.27H680C664.17,772,602.12,849.18,583.36,860Zm-276-481.71q27.68,0,46,22L453.5,360a84.34,84.34,0,0,0-33.77-23.92q-19.69-8.44-45-8.44a100.26,100.26,0,0,0-34.24,6.09A86.33,86.33,0,0,0,310,351.56q-13.12,12.19-21.57,30.95-8,18.3-8,44.08,0,20.64,5.16,35.64A98.43,98.43,0,0,0,300.15,488a109,109,0,0,0,21.11,18.76,228.4,228.4,0,0,0,25.79,14.54q21.57,10.78,35.64,23.45T396.76,579q0,22-11.73,34.23t-29.54,12.19a71.37,71.37,0,0,1-31.42-7.5,78.5,78.5,0,0,1-25.79-20.63L267.8,638.55q14.07,16.43,37.51,27.2a120.87,120.87,0,0,0,51.12,10.79A102.47,102.47,0,0,0,393,670a83.8,83.8,0,0,0,30-19.22,93.76,93.76,0,0,0,20.63-31.89q8-18.76,8-43.14,0-21.11-6.56-36.58a92.69,92.69,0,0,0-16.89-26.73,112.14,112.14,0,0,0-23-19.23q-12.66-8-24.86-14.07-20.62-10.31-33.29-21.57-12.66-11.71-12.66-32.82a61,61,0,0,1,3.28-21.1,41.08,41.08,0,0,1,9.85-14.54,35.39,35.39,0,0,1,13.6-8A43.62,43.62,0,0,1,376.59,378.29ZM718.08,478.65q8-19.23,8-44.55,0-28.14-8.91-46.9-8.43-18.75-22-30a74.31,74.31,0,0,0-30-16.41,122.18,122.18,0,0,0-32.82-4.69H540.35v332h55.34V534.92h39.39a96.06,96.06,0,0,0,33.76-6.1,80.19,80.19,0,0,0,29.08-18.75A92.27,92.27,0,0,0,718.08,478.65Zm-58.15-83q12.66,12.19,12.66,38.93t-12.66,40.79Q647.27,489,627.58,489H595.69V383.45h31.89Q647.28,383.45,659.93,395.64Z" fill-rule="evenodd"/></svg>