<svg xmlns="http://www.w3.org/2000/svg" width="1000" height="1000">
  <path d="M600.184 502.048v-88.732c0-4.93 28.345 30.81 51.76 54.225 2.465 2.464 4.93 7.394 4.93 9.859v85.034c0 7.395-1.233 9.86-9.86 9.86H501.593c-11.092 0-11.092 0-11.092 9.859v221.83c0 11.09 0 11.09-11.091 11.09h-85.035c-4.93 0-7.394-3.696-11.091-7.394l-45.599-44.366c-1.232-2.464-3.697-3.697-6.162-8.626h85.035c7.394 0 8.627-3.697 8.627-11.092V524.23c0-11.091 0-11.091 12.324-11.091h150.35c12.325 0 12.325 0 12.325-11.091zM17.264 608.033c-4.929-19.718 0-19.718 16.022-19.718h156.513c22.183 0 19.718 29.577 2.465 29.577H50.539C88.743 784.264 268.672 967.89 486.804 967.89c124.471 0 263.73-59.155 351.23-150.352 48.063-50.527 105.986-156.513 110.915-198.414H808.457c-18.486 0-23.415-30.81 2.465-30.81h155.28c20.951 0 20.951 0 14.79 19.719-19.719 83.802-55.458 156.513-108.45 215.667-94.895 105.986-246.478 171.302-383.273 171.302-122.006 0-225.527-45.598-311.794-120.774-82.57-71.478-135.562-160.21-160.21-266.195zm0-210.738C57.935 203.81 210.75 53.459 403.003 15.255c154.048-30.81 292.075 8.627 410.385 107.217C898.42 193.951 956.343 281.45 980.99 392.365c4.93 16.021 3.697 17.254-14.789 17.254H808.457c-23.415 0-23.415-29.578 0-29.578h139.26C904.583 209.971 740.676 34.973 497.896 37.438 247.72 39.903 88.743 221.063 51.772 381.274h138.027c22.183 0 22.183 30.81 2.465 30.81H28.356c-11.091 0-14.788-3.698-11.091-14.79zm407.92 8.626V277.753c0-6.162 3.698-7.394 9.86-7.394h160.21c11.092 0 11.092 0 11.092-12.324v-78.873c8.626 8.627 36.971 34.507 49.295 48.063 3.697 3.697 4.93 8.627 4.93 12.324v81.338c0 7.394-2.465 9.859-11.092 9.859H501.593c-11.092 0-11.092 0-11.092 11.091v62.852c0 6.162-1.232 8.627-9.859 8.627h-46.83c-4.93 0-8.627-2.465-8.627-7.395z" style="fill:#000;fill-opacity:1;fill-rule:nonzero;stroke:none;"/>
</svg>
