<svg xmlns="http://www.w3.org/2000/svg" width="1000" height="1000">
  <path d="M606.359 949.674C470.154 1057.61 294.115 930.4 358.362 773.635c10.28-19.274 23.13-42.404 44.974-59.108 28.269-30.839 28.269-79.667 0-109.221-29.554-34.694-74.528-34.694-113.076-5.14-5.14 5.14-15.42 12.85-23.13 23.13C154.055 719.665 5 627.15 5 481.95c6.424-86.092 78.382-142.63 168.329-134.92 46.258 5.14 83.522 23.129 111.791 53.968 30.839 33.409 78.382 28.269 106.651 10.28 29.554-24.415 39.834-70.673 16.705-101.512-5.14-10.28-16.705-21.844-21.844-29.554-65.533-69.388-65.533-164.474 5.14-230.007C439.314 7.8 499.707-2.478 562.67 27.075c53.969 23.13 83.523 68.103 91.232 124.641 5.14 53.968-12.85 98.942-52.683 133.636-30.839 26.984-33.409 66.817-19.274 96.371 29.554 52.684 92.517 59.108 136.205 14.135 116.931-124.64 239.002-48.828 269.84 64.248 32.125 118.216-47.542 253.136-210.732 183.748-24.414-8.994-44.973-30.838-69.387-48.828-24.415-19.274-61.678-24.414-91.232-10.28-34.694 23.13-48.829 59.108-34.694 93.802 11.564 23.13 29.554 35.98 42.403 62.963 53.969 61.678 44.974 154.195-17.989 208.163zM73.102 501.224c0 53.969 42.404 93.802 92.517 93.802 48.828 0 91.232-42.403 91.232-93.802 0-47.543-42.404-84.807-91.232-84.807-50.113 0-92.517 42.404-92.517 84.807zm28.27 5.14c0-37.264 29.553-60.393 64.247-60.393 32.124 0 61.678 23.13 61.678 55.253 0 35.98-29.554 64.248-61.678 64.248-34.694 0-64.248-23.129-64.248-59.108zm307.104-337.943c0 47.543 38.548 91.232 86.092 91.232 47.543 0 93.802-43.689 93.802-91.232 0-47.544-41.119-93.802-88.662-93.802-52.684 0-91.232 41.119-91.232 93.802zm2.57 664.322c0 47.543 46.258 93.802 93.801 93.802 42.404 0 91.232-41.119 88.662-88.662 0-52.683-41.118-93.802-88.662-93.802-52.683 0-93.801 41.119-93.801 88.662zm20.559-669.462c0-29.554 33.409-60.393 62.963-60.393 38.548 0 62.963 30.839 62.963 65.533 0 37.264-24.415 62.963-62.963 62.963-32.124 0-62.963-29.554-62.963-68.103zm7.71 669.462c0-34.694 30.839-59.108 65.532-59.108 34.694 0 57.823 24.414 57.823 59.108 5.14 34.694-23.129 62.963-57.823 62.963-39.833 0-65.532-23.13-65.532-62.963zm303.25-334.089c0 48.829 39.833 91.232 92.516 91.232 48.828 0 91.232-42.403 91.232-91.232 0-44.973-42.404-87.377-91.232-92.516-50.113 0-87.377 39.833-92.517 92.516zm29.553 0c0-34.693 28.27-64.247 62.963-64.247 33.409 0 61.678 29.554 61.678 64.247 0 32.124-23.13 56.539-61.678 56.539-34.694 5.14-62.963-26.985-62.963-56.539z" style="fill:#000;fill-opacity:1;fill-rule:nonzero;stroke:none;"/>
</svg>
