<svg xmlns="http://www.w3.org/2000/svg" width="1000" height="1000">
  <path d="M5 500.002v.395-.395c.099-89.506 22.55-172.682 67.253-249.726 44.209-74.473 103.55-133.814 178.023-178.023C327.419 27.45 410.694 5 500.002 5c89.308 0 172.583 22.45 249.726 67.253C824.2 116.462 883.54 175.803 927.75 250.276c44.803 77.143 67.253 160.418 67.253 249.726 0 89.308-22.45 172.583-67.253 249.726C883.541 824.2 824.2 883.54 749.728 927.75c-77.143 44.803-160.418 67.253-249.726 67.253-89.308 0-172.583-22.45-249.726-67.253-74.473-44.209-133.814-103.55-178.023-178.022C27.55 672.684 5.099 589.508 5 500.002zm109.78-105.33c-23.736 127.582-2.966 244.286 59.341 338.243 57.363 86.044 172.089 162.198 270.001 169.121 232.419 16.813 410.441-96.923 455.936-315.496 10.88-52.417 10.88-105.824.989-159.23C852.585 150.384 545.002 2.032 296.759 150.384c-11.868 7.912-22.747 15.824-34.615 24.725-78.132 66.264-124.616 122.638-147.363 219.562zm37.583 91.978c0-17.802 0-36.594 3.956-52.418 1.978-20.77 7.912-38.571 14.835-57.363 11.869-37.582 43.517-99.89 78.133-130.55 7.912-8.9 16.813-18.79 25.714-26.703 8.901-7.912 18.791-15.824 28.681-23.736.99 1.978.99-7.912.99 23.736 0 128.572-.99 256.155-.99 383.738v65.275c0 6.923-1.978 9.89-9.89 11.868l-50.44 25.714c-8.9 4.945-9.89 6.923-14.835-1.978l-22.747-31.648c-13.846-18.792-21.758-40.55-30.66-61.32-6.923-16.813-8.9-34.615-13.846-50.439-7.912-24.725-8.9-48.462-8.9-74.176zM326.43 638.958c0-47.473.989-95.934.989-143.407 0-6.923-.99-40.55 0-81.1 0 0 25.714-.988 29.67 0 0 0-4.945 10.88-4.945 16.814 0 28.682-.989 41.539-.989 52.418 0 11.868-.989 23.736-.989 36.593 0 3.956 0 4.946 2.967 4.946h21.758c3.956 0 4.945-1.979 4.945-4.946v-28.681c0-4.945 1.978-5.934 6.924-5.934h17.802c2.967 0 4.945.989 4.945 5.934v26.703c0 5.934 2.967 6.924 7.912 6.924h15.824c5.934 0 6.923-1.979 6.923-4.946V426.32h-20.769c-8.901 0-9.89 0-9.89 9.89v20.77c0 3.956 0 6.923-5.934 6.923h-22.748v-15.825c0-17.802 0-28.681 14.836-43.516 6.923-5.934 17.802-19.78 26.703-23.737h-1.978c-5.934 0-6.923-1.978-6.923-6.923v-74.176c0-52.418-3.956-130.55-4.945-147.363 0-2.967 0-3.956 4.945-6.923 48.462-11.868 98.901-12.857 150.33-5.934 100.88 14.835 199.781 85.055 254.177 184.946 6.923 12.857 11.868 26.703 15.824 41.538l11.868 35.605c.99 3.956.99 6.923-1.978 8.9-18.791 10.88-79.121 44.506-111.758 60.33h-4.946c-5.934 1.979-6.923.99-6.923-5.933V292.803c0-8.901-1.978-14.835-10.879-14.835H603.354c-9.89 0-6.923 18.791-6.923 44.506l.989 68.242c0 2.967 4.945 5.934 9.89 5.934s8.9-1.978 8.9-5.934c0-48.462 7.913-43.517 44.506-43.517 22.748.989 39.561-1.978 39.561 33.626 0 58.352.99 94.946.99 151.32v259.121c0 5.934 1.977 6.923 6.922 2.967 69.231-72.198 99.89-104.835 141.43-177.033 7.911 14.835 21.758 47.473 14.834 34.615 1.978 6.923-2.967 12.858-5.934 17.803l-16.813 26.703c-66.264 104.835-129.56 147.363-244.286 174.067-125.605 24.725-142.418 0 .989-27.693 5.934-.989 8.9-2.967 6.923-10.88V559.838c0-9.89 0-9.89-7.912-9.89-60.33 0-120.66-.99-181.98-.99-9.89 0-9.89 0-9.89 10.88 0 32.637-.988 64.286-.988 95.934 0 7.913-.99 8.902-8.901 10.88-14.836 3.956-31.649 2.967-47.473 2.967h-19.78c-5.934.989-1.978-24.726-1.978-30.66zm147.363-160.22c0 8.901 1.978 18.791 3.956 27.692 1.978 5.934 7.912 11.868 12.857 14.835 11.868 6.924 21.758 6.924 35.605 6.924 15.824 0 34.615-15.825 34.615-32.638v-70.22c0-2.967-25.714-5.934-25.714 0v36.594c0 20.769.989 38.571-13.847 39.56-14.835 0-17.802-17.802-17.802-40.55V427.31c0-5.934-29.67-5.934-29.67 0zm116.703-7.912c0 48.461 18.792 54.395 65.275 54.395 14.836 0 12.858-27.692 2.967-26.703-15.824-.989-38.571 3.956-38.571-22.747 0-22.748 12.857-30.66 30.66-30.66 15.824 0 14.835-25.714.988-25.714-38.571-.989-61.319 19.78-61.319 51.429z" style="fill:#000;fill-opacity:1;fill-rule:nonzero;stroke:none;"/>
</svg>
