<svg xmlns="http://www.w3.org/2000/svg" width="1000" height="1000">
  <path d="M424.122 993.368c282.432 18.295 497.4-117.776 555.716-385.342 13.721-62.89 12.578-128.067 1.143-193.243-60.603-338.46-434.51-519.126-737.524-338.46-14.865 10.29-27.443 19.438-41.164 30.872-96.05 80.042-154.365 148.649-180.665 267.567-28.586 156.653-3.43 297.297 72.038 412.785 69.75 106.34 210.394 197.816 330.456 205.82zM73.083 435.365c9.148-102.91 82.329-224.116 178.378-303.014 1.144 2.287 1.144-9.147 1.144 29.73 0 156.652-1.144 312.161-1.144 467.67v78.898c0 8.004-2.287 12.578-11.434 14.865l-80.041 41.164c-14.865 8.004-102.91-149.792-86.903-329.313zm206.965 236.694c0-57.173 1.143-116.632 1.143-174.948 0-6.86-1.143-49.168 0-98.336 0 0 32.017-1.144 36.59 0 0 0-5.717 13.72-5.717 21.725 0 34.304-2.287 50.312-2.287 62.89 0 13.721-1.143 29.73-1.143 44.594 0 4.574 0 5.717 4.574 5.717h25.155c5.718 0 6.861-2.286 6.861-5.717v-34.303c0-6.86 2.287-8.004 9.148-8.004h20.582c3.43 0 6.86 1.143 6.86 8.004v32.016c0 6.861 3.43 8.004 9.148 8.004h18.295c8.004 0 9.148-2.286 9.148-5.717V413.64h-25.156c-10.291 0-11.435 0-11.435 12.578v25.156c0 4.574 0 8.004-8.004 8.004h-27.442V439.94c0-21.726 0-35.447 17.151-52.599 9.148-6.86 22.87-25.156 33.16-29.73h-2.287c-6.86 0-8.004-1.143-8.004-6.86v-91.476c0-64.033-4.574-158.94-6.86-179.521 0-3.43 0-4.574 6.86-8.005 58.316-16.008 120.062-17.151 181.808-8.004 169.23 24.013 305.301 160.083 345.322 320.166 1.143 4.574 1.143 8.004-3.43 10.29-22.87 12.579-96.05 53.743-134.927 73.181H768.3c-8.004 3.43-9.148 1.144-9.148-5.717V251.27c0-10.291-2.287-18.295-12.578-18.295h-129.21c-12.577 0-10.29 21.725-9.147 53.742l1.144 59.459c0 4.574 6.86 8.004 13.721 8.004 5.717 0 10.291-2.287 10.291-8.004 0-41.164 9.148-28.586 53.742-28.586 27.443 1.143 49.168-2.287 49.168 40.02 0 70.894 1.144 116.632 1.144 185.239v267.567c0 6.86 2.287 8.004 8.004 3.43C828.903 725.801 846.054 701.788 897.51 612.6c16.008 19.439 20.582 21.726 27.442 40.021 2.287 10.291-2.287 14.865-27.442 53.742-82.329 126.923-145.218 179.521-288.15 220.686-152.078 40.02-173.804 6.86 2.287-46.882 6.861-1.143 6.861-12.578 8.005-24.012v-254.99c0-12.577 0-12.577-10.291-12.577-73.181 0-146.362-1.144-220.686-1.144-12.578 0-12.578 0-12.578 13.722 0 38.877-1.143 53.742-1.143 92.62 0 10.29-1.144 11.434-11.435 12.577-17.151 4.574-38.877 4.574-57.172 4.574h-24.013c-6.86 0-2.286-30.873-2.286-38.877zm179.52-194.387c0 10.292 2.288 22.87 4.575 34.304 2.287 5.717 10.29 13.721 14.865 17.152 16.008 8.004 27.442 8.004 44.594 8.004 19.439 0 42.308-19.439 42.308-40.02v-84.616c0-4.574-32.017-8.004-32.017 0v44.594c0 25.156 1.143 46.882-17.152 48.025-18.295 0-20.582-21.725-20.582-49.168v-41.164c0-8.004-36.59-8.004-36.59 0zm141.788-10.29c0 59.459 24.013 66.32 80.042 66.32 18.295 0 16.008-33.16 3.43-32.017-18.295-1.144-48.025 4.574-48.025-27.443 0-28.586 17.152-37.734 37.734-37.734s19.439-32.016 1.144-32.016c-45.738-1.144-74.325 24.012-74.325 62.89z" style="fill:#000;fill-opacity:1;fill-rule:nonzero;stroke:none;"/>
</svg>
