<svg xmlns="http://www.w3.org/2000/svg" viewBox="0 0 1000 1000"><path d="M5 500.496c0 271.98 220.55 494.507 495.496 494.507 271.98 0 494.507-220.55 494.507-495.496C995.003 227.528 773.464 5 500.496 5 226.54 5 5 225.55 5 500.496zm81.1 85.055c2.966-3.956 5.933-6.923 7.911-9.89 16.814-23.736 32.638-46.483 50.44-70.22 24.725-35.604 52.418-72.198 77.143-107.802 3.956-6.923 8.901-9.89 14.835-9.89h60.33c7.912 0 7.912 0 10.88 9.89 26.703 105.824 48.461 169.121 50.44 187.912H251.264c4.945-17.802 7.912-35.604 9.89-49.45h27.692c-6.923-33.627-17.802-66.264-27.692-98.902-9.89 10.88-69.231 90.99-72.198 98.902 5.934 0 15.824 0 23.736.989-2.967 17.802-6.923 30.66-11.868 48.461zm294.725 0c3.956-44.505 20.77-89.01 29.67-145.385 4.946-23.736 8.902-52.417 16.814-52.417h31.649c1.978-15.825 3.956-33.627 4.945-49.451h33.626c0 7.912-.989 15.824-1.978 23.736-.989 7.912-1.978 15.824-1.978 23.736h32.638c0-3.956 3.956-39.56 4.945-47.472h31.648l-2.967 47.472h9.89c40.55 0 74.176 8.902 74.176 41.54 0 22.746-7.912 42.527-32.637 56.373 5.934 4.945 20.77 11.868 20.77 28.681 0 23.737-11.87 42.528-27.693 53.407-20.77 15.824-41.539 19.78-64.286 19.78h-29.67c-.99 8.902-4.946 15.825-4.946 25.715h-29.67c1.978-9.89 3.956-15.824 4.945-22.748-9.89 0-21.758-.989-39.56-.989v13.847c-2.968 9.89-2.968 9.89-13.847 9.89h-18.791c1.978-9.89 1.978-15.824 4.945-25.715zm75.166-50.44c2.967.99 4.945.99 9.89.99h74.176c11.868 0 20.769-.99 24.725-8.901 2.967-14.836.99-21.759-8.901-21.759H466.87c-2.967 0-4.945 2.967-6.923 6.923-1.978 7.912-3.956 14.836-3.956 22.748zm16.813-71.208c0 1.978 4.945 1.978 4.945 1.978h90c7.912-.99 11.868-9.89 11.868-17.803 0-6.923-5.934-10.879-16.813-10.879h-79.121c-2.967 0-5.934 0-7.912 2.967-1.978 8.901-2.967 15.825-2.967 23.737zm209.67 101.868c-53.406-34.615-33.626-122.638 31.65-159.231 48.461-25.715 86.044-18.791 190.879-18.791h12.857c-4.945 15.824-8.9 33.626-12.857 49.45H780.387c-68.242 0-96.923 88.022-33.626 98.902h137.473c-2.967 15.824-6.923 31.648-10.88 49.45H746.762c-24.726 0-46.484-6.923-64.286-19.78z"/></svg>