<svg xmlns="http://www.w3.org/2000/svg" viewBox="0 0 1000 1000"><path d="M748.606 112.35c67.287-56.845-34.804-151.975-91.65-83.528-56.846 61.487-113.691 126.453-172.858 187.94-30.163 33.643-30.163 95.13 0 129.933 51.046 61.487 104.411 118.333 158.937 176.339 5.8 11.6 5.8 15.081 0 26.682-39.444 34.804-73.088 73.088-107.891 107.892-73.088 75.407-150.816 148.495-223.904 226.223-37.123 38.284-22.042 95.13 32.484 110.211 26.683 4.64 45.244-8.12 60.326-26.682 112.532-110.212 222.743-226.224 336.435-337.595C785.73 588 804.292 516.073 772.968 476.629c-56.846-60.327-111.371-118.333-164.737-178.659-12.761-12.761-12.761-20.882 0-32.483 48.725-48.725 95.13-99.77 140.375-153.136zM211.47 519.554c0 45.245 8.12 48.725 19.722 64.967 34.804 38.284 73.088 73.088 107.891 110.211 26.683 27.843 61.487 32.484 88.17 4.64 26.682-26.682 30.163-61.486 3.48-91.649-22.042-23.202-46.405-45.244-68.447-69.607-8.121-10.441-8.121-15.081 0-26.683 19.722-16.241 38.284-38.284 54.525-56.846 26.683-26.682 26.683-64.966 0-89.329-27.843-26.683-64.966-26.683-92.81 4.64-26.682 25.523-49.884 53.366-76.567 80.049-23.203 23.202-35.964 42.924-35.964 69.607z"/></svg>