<svg xmlns="http://www.w3.org/2000/svg" viewBox="0 0 1000 1000"><path d="M911.51,640.897c-37.78-2.099-16.791-61.917-33.582-130.131-19.939-75.56,9.445-128.032,48.274-125.933,18.227,2.87,35.501,10.067,50.373,20.989-6.82-32.842-18.867-64.376-35.681-93.4-34.632-57.719-110.191-141.675-204.641-207.789V737.445c.036,35.297-28.549,63.94-63.846,63.976-24.777,.025-47.336-14.273-57.889-36.69-116.904,72.455-270.41,36.423-342.866-80.481-72.455-116.904-36.423-270.41,80.482-342.866,78.125-48.421,176.569-49.872,256.088-3.775V92.039c-.368-19.132,8.161-37.352,23.088-49.324C508.524-13.955,371.048-25.498,253.51,78.396,56.215,253.653-42.432,498.173,56.215,741.643c2.099,5.247,4.198,10.494,6.297,14.692,2.842-5.915,6.756-11.253,11.544-15.742,51.423-52.472,108.092,54.571,228.778,116.488,76.609,38.829,120.686,90.252,137.477,138.526,112.29,13.643,227.729-4.198,320.08-57.719,120.686-69.263,190.998-195.196,216.185-323.228-18.108,15.835-41.038,25.081-65.065,26.236ZM500.234,143.462c28.335-1.049,54.571,32.533,55.62,48.274s-24.137,9.445-51.423,18.89c-30.434,10.494-52.472,1.049-53.521-14.692-1.049-15.742,19.834-51.423,49.324-52.472Zm-62.022,501.633c60.868,34.632,134.328,20.989,147.971-56.67,7.346-45.126,3.148-115.439-36.73-137.477-132.23-75.56-243.47,118.587-111.241,194.147"/></svg>