<svg xmlns="http://www.w3.org/2000/svg" width="1000" height="1000">
  <path d="M10.956 993.676V760.735c88.677-66.177 172.059-127.06 262.059-193.236 26.47-13.235 46.323-21.176 72.794 0 26.47 14.56 52.941 27.795 78.088 39.706 48.97 26.47 96.618 21.177 141.618-11.911 113.823-92.647 227.647-189.265 342.794-289.853 7.941-5.294 22.5-13.236 26.47-18.53 35.736 48.97 54.265 150.883 54.265 218.383 0 263.382-213.088 483.088-475.147 489.705H55.957c-17.207 0-31.766-1.323-45-1.323zm0-338.824V5h536.03C654.19 5 789.19 84.41 875.22 178.382c11.911 15.882 11.911 29.118 0 42.353-120.441 96.617-239.56 206.47-367.941 307.059-6.618 5.294-34.412 5.294-47.647 0-25.148-13.236-51.618-25.147-87.353-38.383-47.647-35.735-92.647-30.44-140.294 2.647-74.118 54.265-145.589 109.853-221.03 162.794z" style="fill:#000;fill-opacity:1;fill-rule:nonzero;stroke:none;"/>
</svg>
