<?xml version="1.0" encoding="utf-8"?>
<!-- Generator: Adobe Illustrator 26.0.1, SVG Export Plug-In . SVG Version: 6.00 Build 0)  -->
<svg version="1.1" id="Layer_1" xmlns="http://www.w3.org/2000/svg" xmlns:xlink="http://www.w3.org/1999/xlink" x="0px" y="0px"
	 viewBox="0 0 1000 1000" style="enable-background:new 0 0 1000 1000;" xml:space="preserve">
<style type="text/css">
	.st0{fill:#FFFFFF;}
</style>
<rect class="st0" width="32" height="32"/>
<path d="M500.5,5C223.6,5,5,229.5,5,499.5C5,773.5,226.5,995,499.5,995C776.4,995,995,770.5,995,499.5C995,223.6,770.5,5,500.5,5z
	 M502.7,778.8l-81.2-181.3h128.6l82,181.3H502.7z M631.3,661.4l-57.8-126.1c2.6-10.4,3.5-21.6,3.5-31.9
	c0-81.2-56.1-151.1-135.6-168.4c-93.2-20.7-184.8,38-205.5,131.2c-2.6,12.1-4.3,24.2-3.5,37.1c-0.9,95.8,76.8,173.5,171.8,173.5
	l44.9,99.3c-72.5,12.1-147.6-5.2-208.1-47.5C115,639.8,84.8,464.5,173.7,338.5c88.9-126.1,264.2-156.3,390.2-67.3
	C690,360,720.2,535.3,631.3,661.4z M877.4,778.8H753V468h124.3V778.8z M863.5,381.6L753,430h-0.9v-50.1c0-12.1,7.8-23.3,19-28.5
	l105.3-45.8h0.9v55.3C877.4,370.4,871.3,378.2,863.5,381.6z"/>
</svg>
