<svg xmlns="http://www.w3.org/2000/svg" viewBox="0 0 1000 1000"><path d="M749.728 72.253C672.585 27.45 589.508 5 500.496 5c-89.703 0-173.077 22.45-250.22 67.253-74.473 44.209-133.814 103.55-178.023 178.023C27.451 327.419 5 410.694 5 500.002c0 89.308 22.45 172.583 67.253 249.726C116.462 824.2 175.803 883.54 250.276 927.75c77.143 44.803 160.418 67.253 249.726 67.253 89.308 0 172.583-22.45 249.726-67.253C824.2 883.541 883.54 824.2 927.75 749.728c44.803-77.143 67.253-160.418 67.253-249.726 0-89.308-22.45-172.583-67.253-249.726-44.209-74.473-103.55-133.814-178.022-178.023zM183.023 391.705c9.89-65.275 48.461-112.748 91.978-157.254 91.978-79.12 244.286-103.846 368.902-62.308 73.187 24.726 151.32 113.737 151.32 143.407-7.913-4.945-9.89-7.912-17.803-12.857-57.363-43.516-122.638-76.154-198.792-86.044-45.494-2.967-90 1.978-130.55 20.77-60.33 24.725-110.77 58.351-149.34 110.769-33.627 46.484-43.517 99.89-33.627 157.253 10.879 88.022 39.56 120.66 62.308 169.122-71.21-17.803-112.748-62.308-134.506-142.418-13.846-46.484-18.792-91.979-9.89-140.44zm29.67 265.055c48.462 48.462 156.264 104.836 228.462 113.737 47.473 6.923 89.012 0 132.528-19.78 59.341-24.726 107.803-62.308 149.341-113.737 40.55-59.34 50.44-131.539 31.649-196.814-4.945-19.78-56.374-113.736-70.22-134.506 36.593 18.792 122.638 49.451 148.352 182.968 21.758 105.824-9.89 191.869-89.011 265.056-95.935 90-226.485 112.747-351.1 72.198C317.529 808.08 212.693 717.09 212.693 656.76zm134.506-254.176c10.88-30.66 38.572-51.429 72.198-51.429h213.627c16.813 0 21.758 5.934 14.835 20.77-11.868 30.659-38.571 51.428-69.23 51.428h-4.946c-48.461 0-40.55-6.923-40.55 40.55v106.813c0 45.495-26.703 77.143-65.274 86.044-17.803 4.945-19.78 0-19.78-16.813 3.955-50.44 7.912-129.56 12.857-199.78 0-13.847-2.967-16.814-12.858-16.814h-87.033c-13.846 0-16.813-4.945-13.846-20.77z"/></svg>