<svg xmlns="http://www.w3.org/2000/svg" viewBox="0 0 1000 1000"><path d="M291.61,439.143c14.9,0,28.812,12.915,29.806,28.812s-12.916,30.8-29.806,30.8c-14.9,0-27.818-12.915-27.818-28.811C262.8,454.045,275.714,440.136,291.61,439.143Zm532.52-5.961c0,15.9-11.922,28.812-27.818,28.812-14.9.993-29.806-13.91-29.806-27.819-.993-15.9,14.9-31.792,30.8-31.792C813.2,403.377,825.123,416.292,824.13,433.182Zm-99.351,36.76c0,15.9-13.909,28.811-28.811,28.811a28.832,28.832,0,0,1-28.812-28.811c0-17.884,12.915-31.793,30.8-29.806C713.851,441.13,725.773,454.045,724.779,469.942ZM192.26,462.987c-14.9-.993-29.8-14.9-29.8-29.805-.994-15.9,14.9-30.8,30.8-30.8,15.9.994,28.812,15.9,27.818,30.8C221.071,449.078,207.162,462.987,192.26,462.987Zm377.532,35.766c0-38.747-32.786-71.532-71.532-70.539-39.741,0-71.533,32.786-71.533,71.533,0,37.753,33.779,71.532,71.533,71.532C537.006,571.279,569.792,537.5,569.792,498.753ZM521.11,908.078c168.9.993,394.422-150.02,389.455-417.273C905.6,250.377,708.883,79.494,484.351,87.442,244.916,95.39,61.117,303.032,89.929,555.383,110.792,742.162,312.474,927.948,476.4,906.091v-290.1c-16.89-8.942-32.786-15.9-46.695-25.831-43.714-30.8-57.624-90.409-34.773-139.091,21.857-48.682,74.513-74.513,126.175-63.584,51.663,11.922,85.442,49.675,92.4,104.318,4.968,44.707-24.837,93.389-71.532,112.266-16.89,6.954-22.851,14.9-22.851,33.779,1.987,70.539.994,140.085,1.987,210.624ZM500.247,44.721C751.6,46.708,954.279,252.364,953.286,499.747c-.994,261.292-219.565,461.98-468.935,454.032C243.922,946.825,37.273,742.162,44.227,482.857,50.188,244.416,256.838,42.734,500.247,44.721ZM2.5,499.747C2.5,772.961,224.052,996.5,500.247,996.5,773.461,996.5,997,774.948,997,498.753,997,225.539,774.455,2,500.247,2,225.045,2,2.5,223.552,2.5,499.747Z"/></svg>