<svg xmlns="http://www.w3.org/2000/svg" width="1000" height="1000">
  <path d="M707.285 404.336c16.59-96.218-54.192-149.304-161.47-179.165l24.33-139.351-66.357-21.014-42.026 133.822c-12.166 0-43.133-15.484-53.086-15.484L437.43 44.9l-81.84-12.166-32.073 138.245c0 1.106-163.682-40.92-162.577-40.92l-28.754 82.946 55.298 12.166c39.814 17.695 39.814 29.86 39.814 40.92l-84.053 371.603c-11.06 13.272-14.377 16.59-35.39 13.272l-59.722-13.272L5 735.019l102.854 29.86c23.226 8.848 33.18 12.166 50.875 14.378l-26.544 133.821 84.054 13.272 24.33-124.974c28.756 0 57.51 0 71.888 16.59l-29.86 118.337 81.84 30.967 30.967-139.35c138.245 32.072 244.417 14.377 288.656-105.067 23.225-96.219 0-152.623-85.16-192.437 54.193-18.802 96.22-59.722 108.385-126.08zm-437.96 289.762 54.192-182.484c55.298 18.802 222.298 43.133 190.225 157.047-9.954 96.218-190.225 35.39-244.417 25.437zm66.357-247.735 43.133-167c39.814 16.59 191.33 28.755 167 124.973-12.166 97.325-167 42.027-210.133 42.027zm355.014 374.92c4.423-16.589 13.271-32.072 19.907-37.602l19.907 12.165c-3.318 6.636-11.06 15.484-16.59 32.073-12.165 37.603 9.954 65.252 45.345 76.311 36.497 13.272 67.464-5.53 77.417-38.708 5.53-16.59 4.424-28.755 3.318-38.709l22.12 1.106c3.317 8.848 2.211 27.65-3.318 50.874-15.484 48.663-56.404 71.888-107.279 54.192-50.874-13.271-77.417-57.51-60.827-111.702zm42.026-142.668c13.272-46.45 56.404-67.464 107.278-54.193 60.828 18.802 72.994 68.57 61.934 108.385-12.166 44.238-55.298 68.57-107.278 51.98-54.192-15.484-75.206-60.828-61.934-106.172zm22.12 6.635c-12.166 36.497 16.589 60.828 47.556 69.676 35.39 12.165 69.675-3.318 78.523-30.967 7.741-28.755-12.166-55.298-48.663-68.57-28.755-7.741-67.463-3.318-77.417 29.861zm13.27-120.55 8.848-25.437 32.073 7.742V545.9c-18.801-14.377-28.755-35.39-21.013-55.298 1.106-4.424 2.212-6.636 2.212-8.847l28.755 8.847c-1.106 2.212-3.318 4.424-4.424 9.954-5.53 19.907 4.424 39.814 27.65 50.874 2.211 1.106 8.847 3.318 12.165 5.53l87.37 24.331-8.847 29.86-111.702-33.178c-18.801-3.318-36.497-9.954-53.086-13.271zm48.663-173.635c16.59-53.086 67.464-54.192 97.325-45.345 5.53 1.106 8.847 3.318 12.165 4.424L893.086 466.27c42.027 9.954 65.252-11.06 74.1-39.814 6.635-22.12 7.741-35.391 5.53-48.663l21.013 1.106c2.212 12.166 2.212 30.967-5.53 58.616-13.272 48.662-57.51 70.782-106.172 55.298-48.663-13.271-79.63-55.298-65.252-101.748zm21.013 6.636c-7.741 30.966 13.272 53.086 35.391 59.721l24.331-86.264c-18.801-5.53-50.874-5.53-59.722 26.543z" style="fill:#000;fill-opacity:1;fill-rule:nonzero;stroke:none;"/>
</svg>
