<svg xmlns="http://www.w3.org/2000/svg" width="1000" height="1000">
  <path d="m854.064 803.348-343.02 187.99c-8.546 4.883-14.65 4.883-23.194 0l-341.8-187.99c-4.884-2.441-8.546-6.103-9.767-12.207-1.22-4.883-1.22-10.986 0-14.649l115.968-461.43c1.221-2.442 2.442-6.104 4.883-8.545L480.525 14.766C485.408 8.662 491.512 5 498.836 5c8.545 0 15.87 3.662 20.752 9.766l219.73 291.75c2.44 2.442 3.661 6.104 4.882 8.546l119.63 461.43c1.22 3.663 1.22 9.766-1.22 14.65-2.442 6.103-4.883 9.765-8.546 12.206zm-651.862-46.387h197.756l-69.58-202.639zm15.87-115.968 92.774-145.265-31.739-91.554zM251.03 805.79l205.08 113.526-37.842-113.526zm51.27-479.742 40.283 117.189 131.838-206.301v-136.72zm62.256 175.783 86.671 255.13h95.216l87.892-256.35-134.28-212.405zM469.54 805.79l29.297 91.553 31.739-91.553zm53.711-568.854 130.617 206.301 40.284-118.41-170.9-223.39zm19.532 682.38 205.08-113.526H580.624zm54.932-162.355h198.977l-129.396-205.08zm89.112-262.454 92.775 144.045-61.036-234.378z" style="fill:#000;fill-opacity:1;fill-rule:nonzero;stroke:none;"/>
</svg>
