<svg xmlns="http://www.w3.org/2000/svg" viewBox="0 0 1000 1000"><path d="M500.496 5C223.572 5 5 229.506 5 500.002c0 276.43 224.506 495.001 495.002 495.001 276.43 0 495.001-224.506 495.001-495.001C995.003 226.539 773.464 5 500.496 5zM163.242 640.936c0-100.88 0-201.759 8.901-293.737 0-17.802 9.89-43.517 26.704-54.396 73.187-46.484 157.253-90 237.363-136.484 46.484-26.703 83.077-26.703 127.583 0 83.077 46.484 166.154 99.89 247.254 147.363-80.11 44.506-91.979 56.374-96.924 50.44-44.505-26.703-130.55-70.22-167.143-87.033-33.627-16.813-54.396-15.824-90 0-57.363 25.714-110.77 53.407-158.243 80.11-21.758 19.78-26.703 36.593-26.703 56.374-2.967 66.264 0 106.813 0 173.077 0 41.539 9.89 64.286 46.484 90.99 54.395 25.714 100.879 53.406 155.275 80.11 18.791 9.89 35.604 9.89 53.407 0 56.373-26.704 109.78-63.297 156.264-90 54.396-27.693 80.11-57.363 57.363-125.605-.99 0-90.99 43.516-93.957 44.505v-99.89c0-9.89 0-24.726 28.682-37.583 66.264-35.604 118.681-63.297 188.901-99.89 46.484 110.77 41.539 103.846 41.539 103.846-9.89 8.901-68.242 42.528-68.242 60.33 0 41.539-3.956 69.231-7.912 117.693-7.912 68.242-18.791 83.077-55.385 109.78-81.099 47.473-164.176 90-247.253 136.484-17.803 10.88-36.594 10.88-53.407 0-91.979-46.483-175.056-98.901-255.166-146.374-36.593-16.813-55.385-44.505-55.385-80.11z"/></svg>