<svg xmlns="http://www.w3.org/2000/svg" width="1000" height="1000">
  <path d="M5 515.367v-24.823c3.546-16.55 8.274-26.007 16.549-39.01 67.38-114.663 132.395-232.872 193.863-341.625 21.278-31.916 48.466-53.194 85.111-53.194h399.548c35.463 0 62.651 21.278 83.929 53.194 62.65 114.663 132.394 229.326 198.592 346.354 16.549 26.006 16.549 59.104 0 91.021C916.394 664.311 846.65 780.157 780.454 894.82c-17.732 33.098-44.92 48.466-80.383 48.466H304.07c-11.821 0-20.096 0-31.917-3.547-23.642-8.274-42.555-28.37-56.74-52.012-61.47-102.842-122.938-211.595-180.86-317.983-13.005-20.096-21.28-39.01-29.553-54.377zm100.478-21.277c0 21.277 11.82 41.373 35.463 53.194 5.91 0 13.003 7.093 16.549 14.185 39.009 69.744 79.2 140.67 118.21 206.867 3.546 8.274 8.274 16.549 3.546 26.006 0 16.549 8.274 36.645 29.552 50.83 16.55 10.639 37.827 7.092 50.83-5.91 10.639-8.275 18.913-10.64 31.917-10.64h222.233c11.821 0 20.096 2.365 27.188 10.64 8.275 5.91 20.096 8.274 30.735 13.002 31.916 0 56.74-28.37 48.466-57.922 0-14.185 0-17.732 8.274-29.553 39.01-67.379 75.654-133.576 114.664-203.32 3.546-7.092 11.82-14.185 20.095-17.731 20.096-8.275 31.917-28.37 31.917-49.648-4.729-20.096-16.55-35.463-36.645-42.556-3.547-3.546-11.821-8.274-15.367-16.549-39.01-66.197-80.383-135.94-118.21-202.138-4.728-8.275-4.728-16.55-4.728-18.914 4.728-24.824-3.547-46.101-20.096-56.74-20.095-7.093-39.009-7.093-59.105 3.546-7.092 7.093-15.367 13.003-24.824 13.003H391.545c-13.004 0-21.278-5.91-31.917-13.003-16.55-10.639-34.28-10.639-55.558-3.546-16.55 10.639-24.824 31.916-24.824 53.194 0 5.91 0 14.185-3.547 22.46-34.28 66.197-75.654 135.94-113.48 202.138-4.73 4.728-13.004 13.003-21.278 16.55-20.096 7.092-35.463 22.46-35.463 42.555zm86.293 41.373c16.549-24.824 21.277-49.648 0-70.926 29.552-49.648 56.74-95.75 80.382-144.215 11.82-21.278 23.642-40.191 36.645-59.105 3.546-8.274 8.275-13.003 18.913-8.274 18.914 0 34.281-13.003 48.466-28.37 2.364-5.911 7.093-10.64 15.368-10.64H620.87l4.728 2.365c11.821 23.642 31.917 40.19 62.651 31.916 3.546 13.003 8.275 21.278 15.367 29.553-7.092 2.364-11.82 8.274-15.367 10.638-91.021 50.83-186.77 102.843-276.61 154.855-11.82 8.274-20.095 13.003-35.463 4.728-24.824-13.003-50.83 3.546-63.833 26.006-8.274 28.37 4.729 56.74 30.735 69.744 27.188 5.91 56.74-4.729 65.015-33.099 3.546-16.55 10.639-24.824 26.006-33.099 95.75-54.376 191.5-105.206 290.795-161.946 26.006 48.465 55.559 95.75 82.747 143.033-15.368 40.191-15.368 43.737 4.728 80.382-44.92 67.38-83.929 137.123-124.12 213.96-27.188-4.729-47.284 3.546-62.65 27.188 0 4.728-9.458 8.274-11.822 8.274H391.545c-8.275 0-13.004-3.546-15.368-11.82-14.185-16.55-29.552-23.643-48.466-23.643-10.638 0-10.638 0-18.913-20.095 26.006-16.55 53.194-30.735 82.747-47.284 74.471-44.92 146.58-87.475 222.233-131.212 7.093-4.729 15.367-7.093 27.188-4.729 24.824 11.821 50.83-2.364 62.651-26.006 8.275-24.824-7.092-57.922-31.916-65.015-22.46-10.639-55.559 5.91-63.833 31.917-2.364 20.095-15.367 28.37-29.553 36.644C479.02 581.565 383.27 640.67 283.974 697.41c-33.099-56.74-62.651-107.57-92.203-161.947z" style="fill:#000;fill-opacity:1;fill-rule:nonzero;stroke:none;"/>
</svg>
