<?xml version="1.0" encoding="UTF-8"?><svg id="a" xmlns="http://www.w3.org/2000/svg" viewBox="0 0 1000 1000"><path d="m375.305,271.819c-28.056-11.841-59.793-17.763-95.207-17.763-130.168,0-210.89,62.625-242.167,187.875-11.036,46-19.545,85.397-25.525,118.188-2.3,14.576-3.45,26.873-3.45,36.892,0,47.824,17.248,84.716,51.744,110.675,34.958,25.507,79.8,38.259,134.537,38.259,66.233,0,119.123-15.257,158.681-45.772,39.558-30.971,67.383-77.655,83.481-140.053,9.661-38.256,17.938-77.653,24.841-118.188,2.3-14.574,3.447-26.643,3.447-36.209,0-31.882-8.049-59.209-24.144-81.981-16.101-23.228-38.177-40.536-66.236-51.922Zm-41.395,172.161c-5.518,31.882-13.567,69.229-24.15,112.042-7.818,30.97-20.926,53.97-39.323,68.999-17.938,15.029-39.786,22.545-65.542,22.545-44.154,0-66.233-20.951-66.233-62.854,0-10.018.919-19.584,2.759-28.691,8.277-44.18,16.557-81.528,24.838-112.042,7.818-30.971,20.698-53.971,38.636-69.001,18.398-15.029,40.473-22.545,66.233-22.545,43.695,0,65.545,20.723,65.545,62.169,0,10.02-.922,19.813-2.762,29.377Zm610.219-151.665c-30.818-20.951-71.754-31.427-122.81-31.427h-183.515c-4.599,0-8.971,1.594-13.111,4.783-4.14,3.188-6.668,7.288-7.59,12.297l-95.21,444.067c-.919,4.554-.228,8.652,2.072,12.297,2.759,3.187,6.668,4.781,11.73,4.781h93.829c4.599,0,8.968-1.594,13.108-4.781,4.137-3.19,6.671-7.288,7.59-12.297l31.734-149.619h93.142c60.255,0,107.631-12.522,142.126-37.572,34.955-25.052,58.184-63.765,69.682-116.142,2.759-12.297,4.14-24.14,4.14-35.526,0-39.624-15.639-69.912-46.916-90.862Zm-84.862,125.021c-4.599,19.584-14.258,34.614-28.978,45.089-14.255,10.476-31.043,15.714-50.366,15.714h-79.337l26.216-122.289h82.79c18.86,0,32.199,3.643,40.017,10.931,7.821,6.832,11.73,16.852,11.73,30.058,0,5.922-.691,12.754-2.072,20.496Z"/></svg>