<svg xmlns="http://www.w3.org/2000/svg" width="1000" height="1000">
  <path d="M5 500.496c0 271.98 220.55 494.507 495.496 494.507 271.98 0 494.507-220.55 494.507-495.496C995.003 227.528 773.464 5 500.496 5 226.54 5 5 225.55 5 500.496zm205.715 295.715c0-13.846-1.978-29.67 0-43.516 0-5.934 11.868-13.846 16.813-15.824 13.846-.99 29.67 0 44.506 0v-8.902c-3.956-46.483-3.956-46.483 40.55-49.45 4.945 0 6.923-1.978 16.813-2.967V617.2h-51.429c-1.978-.99-3.956-2.967-3.956-4.945-6.923-54.396-5.934-59.341 55.385-48.462V617.2h62.308c-1.978-17.802-2.967-33.627-2.967-57.363h-59.341v-59.34H217.638c-4.945-5.935-6.923-8.902-6.923-11.869-6.923-48.462-2.967-49.45 43.517-49.45 17.802 0 33.626-1.979 50.44 0 18.79 0 26.703-9.89 24.725-25.715 0-9.89 0-19.78-1.978-31.649-18.792 0-34.616-1.978-53.407-4.945v-57.362h114.726v-55.385c-12.858-1.978-25.715-1.978-38.572-1.978-13.846 0-20.77-5.934-20.77-20.77 1.979-12.857 1.979-25.714 1.979-39.56 9.89-.99 17.802-1.978 25.714-1.978 72.198 0 143.407-2.967 216.594 0 71.21 1.978 137.473 21.758 191.869 65.275 92.967 74.176 127.583 172.088 108.792 286.814-17.803 111.759-84.067 186.924-190.88 224.506-34.616 12.857-73.187 19.78-110.77 21.758-72.198 3.957-144.396 1.978-219.561 0-4.945 0-11.868 0-19.78-1.978-1.978-10.879-3.956-21.758-3.956-34.615 0-16.813-5.934-24.725-21.759-22.747-11.868 0-23.736-1.978-35.604-1.978v59.34zm118.682-295.715h55.384c13.847-58.352 4.946-67.253-51.428-56.374 0 18.792-1.978 37.583-3.956 56.374zm62.308 176.045h55.384v-55.385c-18.79-1.978-37.582-1.978-55.384-3.956zm61.318-283.847c-5.934 38.571-2.967 42.527 36.594 44.505 20.77 1.978 21.758 11.868 21.758 29.67v178.023c0 9.89 1.978 20.77 1.978 30.66 79.122 15.824 159.232-12.858 197.803-72.198 39.56-61.32 38.572-152.309-3.956-211.65-40.55-56.373-123.627-86.044-192.858-69.23 0 .989-.989 3.956-.989 5.934-1.978 15.824.99 35.604-7.912 45.494-8.9 9.89-30.66 5.934-48.461 9.89-1.978 2.968-3.957 5.935-3.957 8.902z" style="fill:#000;fill-opacity:1;fill-rule:nonzero;stroke:none;"/>
</svg>
