<svg xmlns="http://www.w3.org/2000/svg" viewBox="0 0 1000 1000"><path d="M5 500.496c0 271.98 220.55 494.507 495.496 494.507 271.98 0 494.507-220.55 494.507-495.496C995.003 227.528 773.464 5 500.496 5 226.54 5 5 225.55 5 500.496zM162.253 667.64c-79.12-91.979-75.165-227.474 6.923-317.474 78.133-85.055 232.419-111.759 341.21-4.945 107.803-103.847 264.067-83.077 346.155 9.89 78.132 85.055 80.11 220.55 2.967 314.507-70.22 82.088-232.418 123.626-349.122 9.89-55.384 52.417-117.692 78.132-194.836 70.22-61.318-6.923-111.758-33.627-153.297-82.088zm80.11-155.276c0 55.385 43.517 101.869 98.902 101.869 56.374 0 101.868-43.517 101.868-99.89 0-55.385-44.505-100.88-98.901-100.88-58.352 0-101.869 42.527-101.869 98.901zm336.265 1.978c0 53.407 45.495 99.89 101.869 99.89 55.385 0 101.868-46.483 101.868-101.868 0-56.374-46.483-98.901-101.868-98.901-58.352 0-101.869 42.527-101.869 100.88z"/></svg>