<svg xmlns="http://www.w3.org/2000/svg" viewBox="0 0 1000 1000"><path d="M990.202 469.968c0-22.247-16.685-34.483-25.584-38.933-10.012-7.786-23.36-8.899-34.484-8.899-11.123 0-20.022 2.225-25.584 2.225-20.022 6.674-46.72 10.011-68.966 10.011-12.236 0-23.36 0-34.484-1.112-1.112 0-1.112-1.112-2.224-1.112-32.259-3.337-61.18-13.349-88.99-30.034l-43.382-25.584c-24.472-17.798-45.607-40.046-63.404-66.742l-10.012-20.023c-14.46-28.921-32.258-75.64-32.258-129.034 0-15.573 0-32.259 3.337-44.495 4.45-25.584-1.113-54.505-13.349-74.528C533.021 10.562 510.773 5 495.2 5h-14.46C306.098 12.787 152.592 108.45 69.165 261.956 6.873 377.642-7.588 512.238 29.12 639.047 66.94 766.97 150.368 871.531 264.94 933.824c73.416 40.045 152.394 61.18 234.709 61.18 45.607 0 91.214-6.674 135.708-20.023C763.28 938.273 866.73 853.734 930.134 736.935c43.383-85.652 64.518-179.09 60.068-266.967zM64.715 629.036c-34.483-117.91-21.134-242.495 36.708-349.282 38.933-70.08 92.327-126.81 155.731-167.967 0 1.112-1.112 2.225-1.112 3.337-6.674 32.259-3.337 66.742 11.124 100.113 11.123 30.034 35.595 56.73 71.191 78.978 8.899 4.449 20.023 8.898 33.37 12.236-31.145 20.022-57.842 48.944-76.752 82.314-61.18 113.462-18.91 256.957 93.438 321.474 53.394 30.033 116.799 37.82 177.979 18.91 50.056-14.46 92.326-45.607 123.472-85.652 12.236-3.337 26.697-11.124 45.607-24.472 5.562-3.337 10.011-3.337 15.573-2.225 7.786 2.225 15.573 10.011 18.91 20.023l-27.809 107.899c0 2.225-1.112 2.225-1.112 3.337l21.135 4.45v1.112c-4.45 20.022-4.45 38.933 0 52.28 5.561 17.799 21.134 31.147 38.932 35.597-50.056 45.606-109.011 78.977-175.753 97.888-115.686 34.483-236.934 21.134-342.608-38.933C177.064 844.835 98.086 748.059 64.715 629.036zm51.17-236.933c0-14.461 11.123-24.472 24.471-24.472 13.349 0 24.472 10.01 24.472 24.472 0 13.348-11.123 22.247-24.472 22.247-13.348 0-24.472-8.899-24.472-22.247zm189.101 449.395c0-23.36 18.91-41.158 42.27-41.158 21.135 0 40.045 17.798 40.045 41.158 0 23.36-18.91 42.27-40.045 42.27-23.36 0-42.27-18.91-42.27-42.27zm23.36-434.935c37.82-71.191 115.686-109.011 191.326-102.337 43.382 6.674 86.765 26.697 121.248 57.843 14.46 14.46 25.584 31.146 35.596 47.831l6.674 20.023c13.348 31.146 17.798 67.854 12.236 103.45-1.113 5.562-2.225 11.123-3.337 17.798v1.112c-3.337 12.236-7.787 24.472-12.236 35.596-2.225 3.337-3.337 7.786-6.675 12.236-23.36 44.494-66.741 78.977-116.798 93.438-51.168 14.46-104.562 10.011-149.056-15.573-95.664-53.393-131.26-175.753-78.978-271.417zm145.72 414.912c0-13.348 10.01-24.472 23.359-24.472 13.348 0 24.472 11.124 24.472 24.472s-11.124 24.472-24.472 24.472-23.36-11.124-23.36-24.472z"/></svg>