<svg width="1000" height="1000" viewBox="0 0 1000 1000" fill="none" xmlns="http://www.w3.org/2000/svg">
<path fill-rule="evenodd" clip-rule="evenodd" d="M500 995C773.381 995 995 773.381 995 500C995 226.619 773.381 5 500 5C226.619 5 5 226.619 5 500C5 773.381 226.619 995 500 995ZM201 285.731L346.731 140H415.99C397.232 150.822 335.188 228.016 319.317 285.731H201ZM486.691 140V285.731H346.731C356.591 255.671 391.75 184.441 453.505 140H486.691ZM514.828 285.731H656.23C623.333 207.238 569.898 155.872 547.293 140H514.828V285.731ZM798.355 285.731H683.645C665.609 242.445 633 182.709 586.25 140H651.18L798.355 285.731ZM315.709 714.268H201L348.174 860H413.104C366.355 817.291 333.745 757.555 315.709 714.268ZM343.124 714.268H484.527V860H452.062C429.457 844.128 376.022 792.761 343.124 714.268ZM512.663 714.268L512.663 860H545.85C607.605 815.559 642.764 744.329 652.623 714.269L512.663 714.268ZM652.623 860L798.355 714.269H680.038C664.166 771.984 602.122 849.178 583.365 860H652.623ZM474.206 608.542C479.208 594.161 481.709 578.061 481.709 560.241C481.709 541.796 479.365 525.852 474.675 512.409C470.298 498.966 464.202 488.025 456.387 479.584C448.884 470.83 439.974 464.421 429.657 460.357C419.653 455.981 409.18 453.792 398.238 453.792C393.236 453.792 387.922 454.574 382.294 456.137C376.98 457.7 372.603 460.045 369.164 463.171L368.695 462.702L436.222 336.089H374.791L309.14 464.578C301.324 479.584 294.916 495.059 289.914 511.003C285.224 526.634 282.88 543.516 282.88 561.648C282.88 579.155 285.224 594.942 289.914 609.011C294.916 623.079 301.793 634.958 310.547 644.65C319.3 654.341 329.773 661.844 341.966 667.159C354.158 672.161 367.601 674.662 382.294 674.662C396.675 674.662 409.962 672.161 422.154 667.159C434.346 661.844 444.819 654.341 453.573 644.65C462.326 634.646 469.204 622.61 474.206 608.542ZM416.996 511.94C424.499 524.445 428.25 540.389 428.25 559.772C428.25 580.093 424.186 596.662 416.058 609.48C408.242 621.985 397.144 628.237 382.763 628.237C368.383 628.237 357.128 622.141 349 609.948C340.872 597.443 336.807 581.031 336.807 560.71C336.807 551.019 337.902 542.109 340.09 533.981C342.278 525.852 345.405 518.818 349.469 512.878C353.533 506.626 358.379 501.78 364.006 498.341C369.633 494.902 376.042 493.183 383.232 493.183C398.238 493.183 409.493 499.435 416.996 511.94ZM679.601 648.87C693.669 630.425 700.703 604.634 700.703 571.496V336.089H644.9V566.337C644.9 584.157 642.711 598.225 638.334 608.542C633.958 618.858 625.361 624.017 612.543 624.017C603.477 624.017 596.13 620.734 590.503 614.169C585.188 607.291 581.593 599.788 579.717 591.66L532.823 611.824C537.513 631.52 546.892 647.307 560.96 659.187C575.028 670.754 592.847 676.538 614.419 676.538C644.118 676.538 665.845 667.315 679.601 648.87Z" fill="black"/>
</svg>
