<svg width="33" height="32" viewBox="0 0 33 32" fill="none" xmlns="http://www.w3.org/2000/svg">
<g clip-path="url(#clip0_3393:12214)">
<path fill-rule="evenodd" clip-rule="evenodd" d="M16.4338 31.84C25.1819 31.84 32.2738 24.7482 32.2738 16C32.2738 7.25184 25.1819 0.160034 16.4338 0.160034C7.68556 0.160034 0.59375 7.25184 0.59375 16C0.59375 24.7482 7.68556 31.84 16.4338 31.84ZM6.86471 9.14339L11.5281 4.47998H13.7444C13.1441 4.82628 11.1587 7.2965 10.6508 9.14339H6.86471ZM16.0068 4.47998V9.14339H11.5281C11.8436 8.18147 12.9687 5.90209 14.9449 4.47998H16.0068ZM16.9072 9.14339H21.4321C20.3794 6.63162 18.6694 4.98788 17.9461 4.47998H16.9072V9.14339ZM25.9801 9.14339H22.3094C21.7322 7.75822 20.6887 5.84669 19.1927 4.47998H21.2705L25.9801 9.14339ZM10.5355 22.8566H6.8648L11.5744 27.52H13.6521C12.1561 26.1533 11.1127 24.2417 10.5355 22.8566ZM11.4128 22.8566H15.9377L15.9377 27.52L14.8988 27.52C14.1754 27.0121 12.4655 25.3683 11.4128 22.8566ZM16.838 22.8566V27.52H17.9C19.8762 26.0979 21.0012 23.8185 21.3167 22.8566L16.838 22.8566ZM21.3167 27.52L25.9801 22.8566H22.194C21.6861 24.7035 19.7007 27.1737 19.1005 27.52H21.3167ZM9.5605 20.096C9.9125 20.096 10.2565 20.052 10.5925 19.964C10.9365 19.876 11.2445 19.716 11.5165 19.484C11.7885 19.252 11.9925 18.972 12.1285 18.644C12.2725 18.308 12.3445 17.968 12.3445 17.624C12.3445 17.328 12.2885 17.044 12.1765 16.772C12.0725 16.5 11.9205 16.256 11.7205 16.04C11.5205 15.824 11.2925 15.64 11.0365 15.488C10.7885 15.336 10.5285 15.208 10.2565 15.104C9.9925 14.992 9.7205 14.888 9.4405 14.792C9.1685 14.688 8.9285 14.524 8.7205 14.3C8.5125 14.076 8.4085 13.82 8.4085 13.532C8.4085 13.372 8.4365 13.22 8.4925 13.076C8.5485 12.932 8.6325 12.808 8.7445 12.704C8.8645 12.6 9.0005 12.528 9.1525 12.488C9.3045 12.44 9.4565 12.416 9.6085 12.416C9.8005 12.416 9.9885 12.448 10.1725 12.512C10.3565 12.576 10.5005 12.692 10.6045 12.86C10.7165 13.028 10.7765 13.208 10.7845 13.4H12.2605C12.2605 13.064 12.1925 12.744 12.0565 12.44C11.9205 12.128 11.7205 11.864 11.4565 11.648C11.2005 11.432 10.9085 11.284 10.5805 11.204C10.2605 11.124 9.9365 11.084 9.6085 11.084C9.2645 11.084 8.9245 11.132 8.5885 11.228C8.2605 11.316 7.9645 11.48 7.7005 11.72C7.4445 11.952 7.2485 12.232 7.1125 12.56C6.9845 12.88 6.9205 13.212 6.9205 13.556C6.9205 13.844 6.9725 14.128 7.0765 14.408C7.1885 14.68 7.3445 14.924 7.5445 15.14C7.7445 15.356 7.9685 15.54 8.2165 15.692C8.4645 15.836 8.7245 15.964 8.9965 16.076L9.8125 16.388C10.0845 16.492 10.3245 16.656 10.5325 16.88C10.7485 17.104 10.8565 17.36 10.8565 17.648C10.8565 17.864 10.7965 18.068 10.6765 18.26C10.5565 18.444 10.3925 18.576 10.1845 18.656C9.9845 18.728 9.7765 18.764 9.5605 18.764C9.3605 18.764 9.1605 18.732 8.9605 18.668C8.7685 18.604 8.6085 18.488 8.4805 18.32C8.3605 18.152 8.2965 17.964 8.2885 17.756H6.8125C6.8125 18.1 6.8845 18.432 7.0285 18.752C7.1725 19.064 7.3805 19.328 7.6525 19.544C7.9245 19.752 8.2245 19.896 8.5525 19.976C8.8885 20.056 9.2245 20.096 9.5605 20.096ZM16.4386 20.096C16.6786 20.096 16.9146 20.076 17.1466 20.036C17.3866 19.996 17.6146 19.932 17.8306 19.844C18.0546 19.756 18.2586 19.636 18.4426 19.484C18.6266 19.324 18.7746 19.136 18.8866 18.92C19.0066 18.704 19.0786 18.48 19.1026 18.248C19.1346 18.008 19.1506 17.768 19.1506 17.528V15.08H16.4986V16.412H17.6746V17.528C17.6746 17.696 17.6546 17.864 17.6146 18.032C17.5746 18.192 17.4906 18.328 17.3626 18.44C17.2346 18.552 17.0906 18.636 16.9306 18.692C16.7706 18.74 16.6066 18.764 16.4386 18.764C16.2786 18.764 16.1186 18.74 15.9586 18.692C15.8066 18.636 15.6706 18.548 15.5506 18.428C15.4306 18.308 15.3466 18.168 15.2986 18.008C15.2506 17.848 15.2266 17.688 15.2266 17.528V13.652C15.2266 13.484 15.2506 13.32 15.2986 13.16C15.3546 13 15.4426 12.86 15.5626 12.74C15.6826 12.62 15.8226 12.536 15.9826 12.488C16.1426 12.44 16.3066 12.416 16.4746 12.416C16.6666 12.416 16.8586 12.448 17.0506 12.512C17.2426 12.576 17.3986 12.692 17.5186 12.86C17.6386 13.02 17.6986 13.2 17.6986 13.4H19.1746C19.1746 13.064 19.1026 12.74 18.9586 12.428C18.8226 12.116 18.6226 11.856 18.3586 11.648C18.0946 11.432 17.7986 11.284 17.4706 11.204C17.1426 11.124 16.8106 11.084 16.4746 11.084C16.2346 11.084 15.9986 11.104 15.7666 11.144C15.5346 11.176 15.3066 11.244 15.0826 11.348C14.8666 11.444 14.6706 11.572 14.4946 11.732C14.3186 11.892 14.1706 12.076 14.0506 12.284C13.9386 12.492 13.8586 12.712 13.8106 12.944C13.7706 13.176 13.7506 13.412 13.7506 13.652V17.528C13.7506 17.808 13.7826 18.088 13.8466 18.368C13.9186 18.64 14.0386 18.892 14.2066 19.124C14.3746 19.348 14.5786 19.536 14.8186 19.688C15.0666 19.84 15.3266 19.944 15.5986 20C15.8786 20.064 16.1586 20.096 16.4386 20.096ZM24.2406 20.012C23.9686 20.068 23.6926 20.096 23.4126 20.096C23.1326 20.096 22.8526 20.068 22.5726 20.012C22.3006 19.956 22.0446 19.852 21.8046 19.7C21.5646 19.548 21.3606 19.356 21.1926 19.124C21.0326 18.892 20.9206 18.64 20.8566 18.368C20.7926 18.088 20.7606 17.808 20.7606 17.528V11.18H22.2366V17.528C22.2366 17.688 22.2566 17.848 22.2966 18.008C22.3446 18.16 22.4246 18.3 22.5366 18.428C22.6486 18.548 22.7806 18.636 22.9326 18.692C23.0926 18.74 23.2526 18.764 23.4126 18.764C23.5726 18.764 23.7286 18.74 23.8806 18.692C24.0406 18.636 24.1766 18.548 24.2886 18.428C24.4006 18.3 24.4766 18.16 24.5166 18.008C24.5646 17.848 24.5886 17.688 24.5886 17.528V11.18H26.0646V17.528C26.0646 17.808 26.0326 18.088 25.9686 18.368C25.9046 18.64 25.7886 18.892 25.6206 19.124C25.4606 19.356 25.2606 19.548 25.0206 19.7C24.7806 19.852 24.5206 19.956 24.2406 20.012Z" fill="black"/>
</g>
<defs>
<clipPath id="clip0_3393:12214">
<rect width="32" height="32" fill="white" transform="translate(0.441406)"/>
</clipPath>
</defs>
</svg>
