<svg xmlns="http://www.w3.org/2000/svg" width="1000" height="1000">
  <path d="M5 500.496c0 271.98 220.55 494.507 495.496 494.507 271.98 0 494.507-220.55 494.507-495.496C995.003 227.528 773.464 5 500.496 5 226.54 5 5 225.55 5 500.496zm167.143 8.901v-84.066h87.034V182.034h83.077v242.308c2.967.99 71.209.99 73.187 0V194.891c3.956-.99 83.077-.99 84.066 0v229.451c3.956.99 50.44.99 53.407 0v-2.967c0-5.934 0-12.857.989-19.78 1.978-17.803 4.945-35.605 9.89-53.407 3.956-13.846 6.923-26.703 12.857-39.56 2.967-7.913 5.934-13.847 10.88-19.78 2.966-4.946 5.934-9.891 9.89-14.836 8.9-9.89 17.802-20.77 28.681-28.682 15.824-12.857 34.615-21.758 54.396-28.681 20.77-5.934 41.538-9.89 63.297-11.868 18.791-1.978 38.571-1.978 57.363-1.978h2.967v84.066h-2.967c-13.847-3.956-27.693-5.934-44.506-5.934-13.846-.99-29.67.989-43.517 4.945-20.77 4.945-37.582 15.824-51.429 33.627-9.89 12.857-18.79 26.703-24.725 40.55-6.923 19.78-10.879 41.538-7.912 61.318 0 1.978 0 2.967.989 3.956h81.1v2.967c.988 25.714.988 52.418 0 79.121v1.978h-78.133v5.934c0 11.869.99 22.748 3.956 33.627 4.945 19.78 12.857 37.582 24.725 53.407 6.924 8.9 16.814 16.813 26.704 23.736 13.846 9.89 29.67 16.813 47.473 18.791 14.835.99 30.659 1.978 46.483.99 12.857 0 24.726-.99 37.583-.99v66.264h-4.945c-2.967.99-6.923.99-9.89.99-19.78 1.977-38.572 1.977-57.363 0-16.814-.99-32.638-1.979-48.462-5.935-13.846-1.978-29.67-6.923-43.517-12.857-11.868-4.945-22.747-12.857-32.637-21.758-5.934-5.934-12.857-12.858-18.791-20.77-18.792-19.78-31.649-43.516-39.56-70.22-6.924-20.769-11.87-43.516-13.847-67.253v-3.956h-51.429v175.056c-1.978.989-82.088.989-84.066 0V511.375c0-.989 0-1.978-.99-1.978h-72.197v333.298h-83.077V513.353c0-3.956 0-3.956-4.945-3.956H175.11z" style="fill:#000;fill-opacity:1;fill-rule:nonzero;stroke:none;"/>
</svg>
