<svg xmlns="http://www.w3.org/2000/svg" viewBox="0 0 1000 1000"><path d="M388.666 662.561c3.136-11.5 3.136-18.817 6.272-30.316h-38.68c4.182-53.316 25.09-105.587 35.544-173.539 5.227-28.226 10.454-61.679 19.863-61.679h37.634c2.091-18.817 4.182-40.77 5.227-59.588h40.771c0 9.409-2.09 18.817-3.136 28.226-1.045 9.409-2.09 18.817-2.09 28.226 13.59 1.045 25.09 1.045 38.68 1.045 0-5.227 5.227-48.088 6.272-57.497h37.635c-1.046 18.817-2.091 37.635-4.182 56.452h12.545c48.089 0 87.815 11.5 87.815 50.18 0 27.18-9.41 50.18-38.68 66.906 7.317 6.272 25.09 13.59 25.09 34.498 0 28.227-14.637 50.18-33.454 62.725-24.044 18.817-49.134 24.045-76.315 24.045h-35.544c-1.045 10.454-5.227 18.817-5.227 30.316h-35.544c2.091-11.5 4.182-18.817 5.227-27.18-11.5 0-25.09-1.046-45.998-1.046 0 4.182-1.045 13.59-1.045 16.727-3.136 11.5-3.136 11.5-15.681 11.5zM5 632.245c4.182-5.228 7.318-8.364 10.454-12.545 19.863-27.181 38.68-54.362 59.589-82.588 29.271-42.862 62.724-86.769 91.996-128.585 4.181-8.364 10.454-11.5 16.726-11.5H255.9c9.408 0 9.408 0 13.59 11.5 31.362 125.449 57.497 200.719 59.588 223.718h-127.54c6.273-20.909 9.409-42.862 12.545-58.543h32.408c-8.363-40.771-20.908-79.452-32.408-118.132-12.545 12.545-82.587 107.677-85.724 118.132 6.273 0 17.772 0 27.181 1.045-3.136 20.908-7.318 36.59-13.59 57.498zm440.118-60.634c4.181 2.09 6.272 2.09 12.545 2.09h87.814c13.59 0 25.09-2.09 29.272-11.499 3.136-16.727 1.045-25.09-10.454-25.09H458.708c-4.182 0-6.272 3.136-8.363 8.363-2.091 9.41-5.227 16.727-5.227 26.136zm20.908-84.678c0 3.136 5.227 3.136 5.227 3.136H578.93c9.409-1.046 13.59-12.545 13.59-21.954 0-8.363-7.317-12.545-19.862-12.545H478.57c-4.182 0-7.318 0-9.409 3.136-2.09 10.455-3.136 18.818-3.136 28.227zM714.834 608.2c-63.77-40.77-39.726-145.312 37.634-189.22 57.498-30.316 102.45-21.953 226.854-21.953h15.682c-6.273 18.818-10.455 39.726-15.682 58.543H831.92c-81.542 0-116.041 104.541-40.771 118.132h164.129c-4.182 18.817-8.363 37.634-13.59 58.543h-150.54c-29.27 0-55.406-8.364-76.314-24.045z"/></svg>