<svg xmlns="http://www.w3.org/2000/svg" width="1000" height="1000">
  <path d="M5 544.12v-15.113c30.227-31.306 66.93-65.85 93.918-94.998 21.59-20.51 41.022-26.988 61.533-16.193 41.022 10.796 75.567 20.511 114.43 30.227 20.51 5.398 35.624 15.113 41.021 38.863 10.796 35.624 19.432 77.726 29.148 116.588 8.636 19.432 5.397 33.466-9.716 55.056-29.147 24.829-60.453 52.897-89.6 84.203-9.716 10.795-20.511 21.59-34.545 3.238-16.193-12.954 0-22.67 9.715-34.544 24.83-24.83 49.658-49.658 74.488-66.93 10.795-16.194 15.113-26.989 10.795-46.42-10.795-29.147-15.114-58.294-24.83-90.68-6.476-9.716-17.272-20.511-24.828-23.75-31.306-10.795-66.93-20.51-96.078-24.829-8.636 0-29.147 0-36.704 10.796C96.76 494.463 71.93 519.292 50.34 544.12c-15.113 12.954-28.068 20.51-45.34 0zm134.94-171.643c11.875-4.319 20.511-8.637 24.83-8.637 36.703 4.318 71.248 15.114 105.792 24.83 20.511 9.715 39.943 4.317 56.136-16.193 14.033-17.273 38.862-38.863 59.373-59.374 9.716-11.875 9.716-19.432 9.716-36.704-17.272-33.465-25.908-68.01-30.227-104.714-4.318-9.715 0-24.829 4.319-28.067 16.192-9.716 30.226 0 30.226 15.113 15.114 45.34 24.83 84.203 35.624 128.463 4.319 21.59 0 35.625-15.113 46.42-30.226 30.226-66.93 64.771-93.918 94.998-10.796 5.397-16.193 5.397-20.511 9.715-24.83-4.318-45.34-9.715-70.17-15.113-24.828-9.716-49.657-16.193-79.884-24.829-4.318-5.398-10.795-16.193-16.193-25.908zm110.112 416.695c-14.034-15.113-4.319-24.829 6.477-35.624 29.147-30.227 59.373-59.374 88.52-84.203 8.637-10.795 20.511-16.193 30.227-21.59 57.215 14.034 105.793 24.829 155.451 46.42 9.716 0 15.114 9.715 19.432 17.272 15.113 46.42 24.829 97.157 34.545 140.338 4.318 11.874 0 20.51-9.716 31.306-24.83 31.306-53.976 65.85-84.203 94.998-16.193 10.795-24.829 24.829-41.022 10.795-14.034-21.59-4.318-31.306 9.716-39.942 24.829-26.988 49.658-44.26 71.248-69.09 9.716-11.875 15.114-28.067 9.716-41.022-3.238-30.226-15.113-60.453-24.829-96.077 0-9.716-9.716-19.432-19.431-23.75-36.704-10.795-71.249-21.59-105.793-24.829-4.319 0-20.511 3.239-29.148 9.716-25.908 24.829-50.737 49.658-75.566 78.805-10.795 9.716-21.59 16.193-35.624 6.477zM320.22 478.27c-4.319-19.432 0-35.624 11.874-44.26 33.465-35.625 63.692-65.852 100.396-100.396 12.954-15.114 23.75-20.511 42.101-15.114 46.42 15.114 97.157 24.83 139.259 39.943 10.795 0 20.51 9.715 24.829 14.034 17.272 56.135 32.385 111.19 46.42 167.326-4.319 7.556-4.319 17.272-14.035 24.829-36.703 33.465-71.248 72.328-109.031 107.952-6.478 5.397-21.59 10.795-31.307 5.397-46.419-8.636-90.68-19.431-134.94-33.465-20.51-7.556-34.545-16.193-42.101-35.624-8.636-44.26-21.59-89.6-33.465-130.622zm58.294 5.397c7.556 28.068 17.272 60.454 24.829 89.6 0 8.637 11.875 20.512 21.59 24.83 31.306 10.795 59.374 14.034 90.68 19.431 9.716 5.398 21.59 0 30.227-5.397 25.908-18.352 43.18-38.863 68.01-64.772 7.556-3.238 7.556-7.556 10.795-15.113v-9.716c-10.795-38.863-15.113-84.203-35.624-109.032-23.75-24.829-68.01-24.829-104.714-34.544-3.239 0-3.239-6.477-3.239 0-10.795 0-21.59 0-24.829 3.238-23.75 24.83-45.34 46.42-70.169 71.249-7.556 9.715-10.795 19.431-7.556 30.226zm36.704-329.254c0-17.272 5.397-34.545 9.715-45.34 31.306-30.227 59.374-60.453 96.078-90.68 9.715-10.795 19.431-20.51 34.544-5.397 9.716 16.192 0 24.829-9.715 35.624l-75.567 75.566c-14.034 9.716-14.034 19.432-10.795 37.784 6.477 31.306 15.113 62.612 24.829 89.6 0 10.795 16.193 21.59 24.829 24.829 31.306 10.795 62.612 21.59 90.68 24.829 14.034 7.557 31.306 0 38.863-7.557 28.067-20.51 50.737-50.737 75.566-75.566 11.875-9.716 21.59-21.59 36.704-5.398 12.954 16.193 4.318 24.83-6.477 36.704-30.227 26.988-59.374 51.817-88.52 84.203-9.717 9.715-21.591 14.034-31.307 21.59-52.897-17.272-103.634-32.385-154.372-46.42-10.795 0-14.034-15.113-20.51-24.828-9.716-46.42-24.83-87.442-34.545-129.543zm146.815 543c0-3.239 3.238-19.432 9.715-24.83 34.545-35.623 66.93-69.089 102.555-99.315 6.477-8.636 26.988-8.636 35.624-8.636 45.34 8.636 90.68 24.829 131.702 33.465 14.034 5.397 24.829 10.795 18.352 24.829-4.318 14.034-15.114 14.034-29.147 10.795-34.545-5.398-70.17-16.193-104.714-24.829-16.193-5.398-31.306-5.398-45.34 8.636-20.51 19.432-42.101 41.022-59.374 60.453-15.113 16.193-15.113 30.227-11.874 50.738 11.874 35.624 21.59 70.169 29.147 110.111-4.318 8.636-7.557 19.432-14.034 19.432-10.795 0-18.352-6.477-24.83-15.114-15.112-44.26-24.828-97.157-37.782-145.735zm87.44-308.744c0-16.192 6.478-30.226 10.796-41.021 29.147-29.148 65.851-63.692 94.998-96.078 8.636-2.159 24.83-2.159 33.465-2.159 11.875 9.716 7.557 18.352-3.238 26.988-24.83 24.83-49.658 57.215-79.885 82.044-10.795 9.715-16.193 23.75-10.795 39.942 10.795 30.227 15.113 60.453 24.829 88.52 6.477 17.273 16.193 24.83 31.306 32.387 29.147 3.238 59.374 20.51 90.68 24.829 7.557 0 24.829-4.318 34.545-11.875 29.147-24.83 52.896-53.976 77.725-78.805 10.795-10.795 20.511-15.114 35.624-5.398 9.716 10.795 5.398 21.59-4.318 30.227-31.306 33.465-65.85 65.85-100.395 100.395-4.318 3.239-15.113 10.796-18.352 10.796-56.135-16.193-111.19-32.386-160.849-45.34-4.318 0-16.193-11.875-16.193-21.59-15.113-44.261-29.147-88.522-39.942-133.862z" style="fill:#000;fill-opacity:1;fill-rule:nonzero;stroke:none;"/>
</svg>
