<?xml version="1.0" encoding="utf-8"?>
<!-- Generator: Adobe Illustrator 26.0.1, SVG Export Plug-In . SVG Version: 6.00 Build 0)  -->
<svg version="1.1" id="Layer_1" xmlns="http://www.w3.org/2000/svg" xmlns:xlink="http://www.w3.org/1999/xlink" x="0px" y="0px"
	 viewBox="0 0 1000 1000" style="enable-background:new 0 0 1000 1000;" xml:space="preserve">
<style type="text/css">
	.st0{fill-rule:evenodd;clip-rule:evenodd;}
</style>
<path class="st0" d="M385.9,7.6h-94.7L91.8,206.9h161.8C275.3,128,360.2,22.4,385.9,7.6z M908.8,206.9L707.5,7.6h-88.8
	C682.7,66,727.3,147.7,752,206.9H908.8z M91.8,793.1l201.3,199.3h88.8C318,934,273.4,852.3,248.7,793.1H91.8z M565.4,7.6H521v199.3
	h193.4C669.5,99.6,596.4,29.3,565.4,7.6z M482.6,206.9V7.6h-45.4c-84.5,60.8-132.6,158.2-146,199.3L482.6,206.9L482.6,206.9z
	 M518.1,793.1v199.3h45.4c84.5-60.8,132.6-158.2,146-199.3H518.1z M435.2,992.4h44.4V793.1H286.2
	C331.2,900.4,404.3,970.7,435.2,992.4z M614.8,992.4h94.7l199.3-199.3H747C725.3,872,640.4,977.6,614.8,992.4z M353,685.4
	c-11-0.3-21.9-2.1-32.6-5.3c-10.7-3.2-20.6-8-29.8-14.5c-9.2-6.5-16.9-14.4-23-23.8c-6.2-9.3-10.5-19.4-13-30.3
	c-2.5-10.8-3.8-21.8-3.8-32.8V417c0-12,1.4-23.9,4.3-35.6c2.8-11.7,7.9-22.3,15.3-31.8c7.3-9.5,16.2-17.4,26.5-23.5
	c10.3-6.2,21.4-10.4,33.1-12.8c11.7-2.3,23.5-3.5,35.6-3.5c12,0,23.9,1.2,35.6,3.5c11.7,2.3,22.7,6.6,33.1,12.8
	c10.3,6.2,19.2,14,26.5,23.5c7.3,9.5,12.4,20.1,15.3,31.8c2.8,11.7,4.3,23.5,4.3,35.6v161.8c0,10.7-1.1,21.3-3.3,31.8
	c-2.2,10.5-6.2,20.4-12,29.5c-5.8,9.2-13.1,17-21.8,23.5c-8.7,6.5-18,11.6-28,15.3l20.5,76.6H374L353,685.4z M386.3,627.3
	c6.8-2,12.8-5.5,18-10.5c5.2-5,8.8-10.8,11-17.5c2.2-6.7,3.3-13.5,3.3-20.5V417c0-7-1.1-13.9-3.3-20.8c-2.2-6.8-5.8-12.7-11-17.5
	c-5.2-4.8-11.2-8.3-18-10.3c-6.8-2-13.8-3-20.8-3c-7,0-13.9,1-20.8,3c-6.8,2-12.9,5.4-18,10.3c-5.2,4.8-8.9,10.7-11,17.5
	c-2.2,6.8-3.3,13.8-3.3,20.8v161.8c0,7,1.1,13.9,3.3,20.5c2.2,6.7,5.8,12.5,11,17.5c5.2,5,11.2,8.5,18,10.5c6.8,2,13.8,3,20.8,3
	C372.5,630.3,379.4,629.3,386.3,627.3z M623.2,683.7c-9.9-1.5-19.3-4.3-28.3-8.5c-9-4.2-17.2-9.6-24.5-16.3
	c-7.3-6.7-13.4-14.4-18.3-23c-4.8-8.7-8.2-17.9-10-27.5c-1.8-9.7-2.8-19.5-2.8-29.5V417c0-10,0.9-19.9,2.8-29.5
	c1.8-9.7,5.2-18.9,10-27.5c4.8-8.7,10.9-16.4,18.3-23c7.3-6.7,15.5-12.1,24.5-16.3c9-4.2,18.4-7,28.3-8.5c9.8-1.5,19.8-2.3,29.8-2.3
	c14,0,27.9,1.7,41.6,5c13.7,3.3,26,9.4,37.1,18.3c11,8.9,19.4,19.8,25.3,32.8c5.8,13,8.8,26.5,8.8,40.6h-61.6
	c0-8.3-2.5-15.9-7.5-22.8c-5-6.8-11.5-11.6-19.5-14.3c-8-2.7-16-4-24-4c-7,0-13.9,1-20.5,3c-6.7,2-12.5,5.5-17.5,10.5
	c-5,5-8.6,10.9-10.8,17.5c-2.2,6.7-3.3,13.5-3.3,20.5v161.8c0,7,1.1,13.9,3.3,20.5c2.2,6.7,5.8,12.5,10.8,17.5
	c5,5,10.8,8.5,17.5,10.5c6.7,2,13.5,3,20.5,3c8,0,16-1.3,24-4c8-2.7,14.5-7.5,19.5-14.5c5-7,7.5-14.5,7.5-22.5h61.6
	c0,14-2.9,27.5-8.8,40.6c-5.8,13-14.3,24-25.3,32.8c-11,8.9-23.4,14.9-37.1,18.3c-13.7,3.3-27.5,5-41.6,5
	C642.9,685.9,633,685.2,623.2,683.7z"/>
</svg>
