<svg xmlns="http://www.w3.org/2000/svg" viewBox="0 0 1000 1000"><path d="M500.496 5C223.572 5 5 229.506 5 500.002c0 276.43 224.506 495.001 495.002 495.001 276.43 0 495.001-224.506 495.001-495.001C995.003 226.539 773.464 5 500.496 5zM275.99 287.858c0-12.857 1.978-19.78 11.868-29.67 70.22-55.385 138.462-111.759 207.693-167.144 9.89-8.9 13.846-8.9 23.736 0 68.242 55.385 137.473 111.759 203.737 170.11 5.934 6.924 13.847 16.814 13.847 26.704v424.287c0 5.934-7.913 19.78-10.88 23.737-69.23 58.351-138.462 114.725-206.704 170.11-9.89 9.89-17.802 9.89-27.692 0-65.275-55.385-133.517-115.715-203.737-170.11-5.934-7.913-9.89-17.803-9.89-26.704-1.978-69.23 0-141.429 0-210.66 0-68.242 0-140.44-1.978-210.66zm134.506 210.66c0 45.495 0 91.978 2.967 135.495 0 9.89 3.956 18.791 9.89 21.758 23.736 23.737 49.45 39.561 72.198 62.308 5.934 3.956 13.846 6.923 19.78 0 26.704-18.791 52.418-38.571 76.154-58.352 5.935-6.923 8.902-15.824 8.902-25.714V360.056c0-5.934-2.967-15.824-8.902-22.747-23.736-19.78-49.45-36.594-72.198-59.341-9.89-5.934-13.846-5.934-23.736 0-22.747 22.747-48.462 39.56-72.198 62.308-5.934 3.956-9.89 13.846-9.89 23.736-2.967 45.495-2.967 88.022-2.967 134.506z"/></svg>