<svg xmlns="http://www.w3.org/2000/svg" width="1000" height="1000">
  <path d="M240.551 146.716c235.551-159.31 526.86-85.344 650.895 162.724l17.069 30.724c9.103-10.241 14.793-20.483 19.344-30.724 19.345-30.724 42.104-36.414 67.138-4.552v9.104c-18.207 26.172-30.724 51.207-47.793 81.93-3.414 15.932-14.793 39.828-14.793 62.587 11.38 161.585-45.517 294.723-178.655 392.585-202.55 165-521.17 84.206-647.48-163.862-3.414-10.241-9.104-15.93-19.345-27.31-5.69 5.69-10.242 17.069-20.483 27.31C44.828 721.37 25.483 721.37 5 691.784v-10.242c14.793-22.758 30.724-48.93 40.965-77.379 9.104-20.482 20.483-40.965 20.483-59.172-11.38-163.861 45.517-298.137 174.103-398.275zM123.345 489.233c0 11.379-1.138 25.034 13.655 9.103 135.413-106.965 279.93-158.172 448.343-168.413 6.828 0 12.517 0 17.07-5.69 0-4.552-4.553-10.241-10.242-14.793-26.173-25.034-51.207-50.069-81.931-81.93-14.793-12.518 0-23.897 10.241-36.414 9.104-6.828 14.793-18.207 31.862-5.69 50.07 54.62 104.69 102.413 155.896 160.448 5.69 4.552 5.69 19.345 0 25.034-40.965 45.517-85.344 93.31-130.861 133.138-5.69 5.69-15.931 10.241-22.759 5.69-34.138-15.932-34.138-31.863-7.965-56.897 5.69-5.69 7.965-11.38 14.793-17.069 10.241-13.655 23.896-28.448 36.413-44.38-20.482 0-36.413 0-56.896 4.553-147.93 15.93-276.516 62.586-381.206 167.275-22.758 20.483-29.586 37.552-17.069 63.724C199.586 773.715 335 876.128 498.861 876.128c72.827 0 137.689-15.93 199.137-55.758 111.517-72.828 169.551-174.103 178.655-306.103 0-30.724 0-30.724-20.483-15.93C727.584 609.852 577.378 658.783 412.378 665.61c-4.552 5.69-9.103 5.69-14.793 5.69 0 5.69 5.69 10.241 5.69 15.931 30.724 29.586 54.62 55.759 86.482 81.93 13.655 19.346 0 30.725-11.379 39.828-9.103 11.38-20.483 15.931-35.276 5.69-50.069-56.896-102.413-106.965-152.482-155.896-5.69-6.828-5.69-26.172 0-31.862 39.827-47.793 86.482-87.62 132-133.138 6.827-4.551 15.93-4.551 20.482-4.551 31.862 14.793 35.276 34.138 10.242 59.172-4.552 6.827-10.242 9.103-14.794 14.793-15.93 15.931-26.172 33-35.275 40.965 13.655 0 35.275 5.69 54.62 0 144.517-20.482 275.379-64.861 383.482-168.413 20.483-19.345 26.172-39.827 14.793-64.862-86.483-224.172-352.758-322.033-556.447-186.62-112.655 62.586-170.689 170.69-176.378 304.965z" style="fill:#000;fill-opacity:1;fill-rule:nonzero;stroke:none;"/>
</svg>
