<svg xmlns="http://www.w3.org/2000/svg" viewBox="0 0 1000 1000"><path d="M109.764 254.321s-5.96-2.384-9.537-2.384c-2.384 5.96-8.344 10.729-11.92 14.305-61.988 106.095-91.79 218.15-66.757 338.55C52.544 801.483 164.6 924.266 345.795 993.407c8.344 3.576 15.497 0 22.65 0-2.385-3.576-7.153-11.92-10.73-15.497-66.756-53.644-90.597-126.36-66.756-206.23 26.226-71.524 51.26-143.048 75.101-218.149 9.537-29.802 22.65-66.756 35.762-104.902 34.57 53.643 65.564 104.902 97.75 156.161 34.57-51.259 67.949-102.518 97.75-152.585 4.769 2.384 4.769 7.152 7.153 10.729 33.378 104.902 69.14 202.652 104.903 305.17 26.225 83.446 3.576 156.162-63.18 209.806-8.345 3.576-8.345 11.92-14.305 15.497 5.96 0 14.305 3.576 21.457 0 56.028-15.497 110.863-47.683 157.354-87.022 188.348-157.354 233.647-429.147 98.942-640.144-3.576-3.576-7.152-11.92-14.305-14.305 0 0 0 2.384-4.768 2.384 4.768 8.345 7.152 11.921 7.152 19.074 63.18 132.32 63.18 262.256 4.769 392.192-7.153 20.266-20.266 30.994-40.53 30.994-21.458 0-35.763-7.152-42.916-26.225-58.411-113.248-116.823-221.726-176.427-332.59-4.768-9.536-4.768-20.265-4.768-29.801 4.768-21.458 10.729-41.723 15.497-65.564-51.26 65.564-102.518 125.168-153.778 194.308-50.067-69.14-102.518-128.744-149.009-194.308 0 23.841 7.153 44.106 10.729 69.14 4.768 5.96 4.768 13.113 0 21.457-59.604 115.632-118.016 224.11-177.62 340.934-10.728 19.073-30.993 26.225-51.259 22.65-20.265-3.577-32.186-14.306-40.53-34.571-54.836-131.128-54.836-256.296 8.344-388.616 3.577-7.153 3.577-10.729 9.537-19.074zM417.319 132.73c19.073-52.451 47.683-76.293 85.83-76.293 40.53 2.384 71.524 9.537 73.908 71.525 26.226-59.604 22.65-87.022-22.65-109.671C524.607.41 474.54-.783 441.162 23.059c-33.378 27.418-44.107 77.485-23.842 109.67z"/></svg>