<svg xmlns="http://www.w3.org/2000/svg" viewBox="0 0 1000 1000"><path d="M711.03 5h232.274c-96.309 314.42-178.455 631.674-276.18 947.51-8.498 33.992-21.245 42.49-50.987 42.49H385.279c-32.576 0-46.739-9.914-53.82-31.16-43.906-137.381-86.395-274.763-116.138-422.06h212.447c18.412 84.98 39.656 179.872 60.901 266.267C552.403 628.176 667.124 132.467 711.029 5zM56.694 13.498C56.695 5 66.609 5 77.94 5h209.613c18.412 72.232 32.575 135.966 53.82 220.944h-199.7c-16.995 0-24.077-12.747-32.575-33.991C87.854 129.635 66.61 77.232 56.695 13.498zm73.648 264.85h211.03c11.33 0 16.996 1.416 22.66 21.244 19.83 72.232 29.743 116.137 50.988 188.37h-199.7c-9.914 0-28.326-5.666-31.158-21.245-21.245-60.902-32.575-126.052-53.82-188.37z"/></svg>