<svg xmlns="http://www.w3.org/2000/svg" width="1000" height="1000">
  <path d="M5 500.496C5 225.55 226.54 5 500.496 5c272.968 0 494.507 222.528 494.507 494.507 0 274.946-222.528 495.496-494.507 495.496C225.55 995.003 5 772.475 5 500.496zm163.187-161.21c49.451 78.133 94.946 150.331 145.385 225.496-28.681 4.945-107.802 32.638-125.604 47.473-35.605 22.747-35.605 47.472 0 70.22 39.56 30.66 144.396 51.429 216.594 57.363 19.78 5.934 34.615 11.868 47.472 33.626 16.814 33.627 91.979 31.649 103.847 8.901 14.835-30.66 39.56-42.527 71.209-44.505 57.363 0 161.21-30.66 201.759-57.363 23.736-20.77 23.736-41.539 0-59.341-22.747-12.857-42.528-24.725-66.264-33.627-17.802-8.9-37.583-11.868-62.308-20.769 49.45-77.143 98.901-149.341 152.308-230.44h-68.242c-27.692-2.967-45.494 8.9-64.286 33.626-59.34 94.946-124.615 190.88-188.901 285.825-7.912 12.858-14.836 21.759-22.748 32.638-61.319-79.121-126.594-186.924-215.605-318.463-30.66-47.472-57.363-36.593-124.616-30.66zM257.2 635.003c-3.956-18.791 22.747-38.571 72.198-47.473 19.78 33.627 39.56 66.264 67.253 104.836-56.374-11.868-130.55-11.868-139.451-57.363zm64.286-328.353c27.692 56.374 169.121 271.98 191.868 291.76 61.32-94.946 119.671-193.847 183.957-291.76zm300.66 383.738c20.77-29.67 41.539-69.231 63.297-98.902 31.648 13.847 55.385 13.847 59.34 37.583 0 24.725-19.78 33.626-42.527 39.56-22.747 7.913-80.11 21.759-80.11 21.759z" style="fill:#000;fill-opacity:1;fill-rule:nonzero;stroke:none;"/>
</svg>
