<svg xmlns="http://www.w3.org/2000/svg" width="1000" height="1000">
  <path d="M642.632 546.228c-45.8 132.82-91.6 266.784-138.545 397.314h-8.015c-45.8-130.53-89.31-264.494-137.4-397.314-5.725 2.29-8.014 5.725-11.45 5.725-103.05 74.425-207.244 146.56-312.583 218.694-8.015 6.87-14.885 10.305-24.045 4.58-8.015-6.87-5.725-18.32-3.435-26.335 44.654-136.254 88.164-273.654 132.82-409.908 2.29-8.015 6.87-16.03 13.74-21.755 112.209-82.44 220.983-168.315 333.193-253.044 11.45-10.305 11.45-10.305 27.48 0 112.21 84.73 220.984 168.314 329.759 250.754 9.16 8.015 13.74 16.03 19.465 26.335 42.365 133.964 88.165 271.364 130.53 407.618 1.144 8.015 1.144 13.74 0 21.755-2.29 8.015-16.03 8.015-22.9 2.29-48.09-32.06-95.035-61.83-139.69-95.034-57.25-41.22-117.935-83.585-177.474-123.66-2.29-2.29-5.725-5.725-11.45-8.015zm-540.439 100.76c5.725-2.29 8.015-5.725 13.74-6.87 70.99-53.815 144.27-101.905 219.84-153.43 3.435-3.435 8.015-11.45 9.16-14.885 29.77-82.44 61.83-167.17 88.164-250.754 8.015-17.175 12.595-36.64 19.465-56.105-2.29 3.435-4.58 3.435-4.58 3.435-81.295 61.83-163.734 124.805-245.029 185.49-5.725 6.87-9.16 12.595-9.16 19.465-25.19 66.41-46.945 132.82-68.7 199.229-5.725 24.045-14.885 48.09-22.9 74.425zm304.57-114.5c32.06 83.585 62.974 164.88 91.599 248.464 35.495-83.584 65.265-164.88 96.18-248.464zm0-60.685h187.779c-30.915-87.02-60.685-172.894-96.18-261.059-28.625 88.165-59.54 174.04-91.6 261.06zM546.451 168.38c4.58 3.435 6.87 9.16 6.87 13.74 33.205 95.035 67.555 191.215 100.76 287.394 2.29 5.725 8.015 13.74 13.74 17.175 73.28 53.815 148.849 101.905 219.839 153.43 1.145 1.145 6.87 4.58 8.015 6.87v-10.305c-27.48-88.165-56.105-175.185-88.165-265.64-2.29-4.58-6.87-10.304-9.16-17.174-41.22-29.77-83.585-60.685-120.225-92.745-42.364-28.625-85.874-64.12-127.094-96.18 0 3.435 0 3.435-4.58 3.435z" style="fill:#000;fill-opacity:1;fill-rule:nonzero;stroke:non"/>
</svg>
