<svg width="33" height="32" viewBox="0 0 33 32" fill="none" xmlns="http://www.w3.org/2000/svg">
<g clip-path="url(#clip0_3393:12124)">
<path fill-rule="evenodd" clip-rule="evenodd" d="M16.4338 31.84C25.1819 31.84 32.2738 24.7482 32.2738 16C32.2738 7.25178 25.1819 0.159973 16.4338 0.159973C7.68556 0.159973 0.59375 7.25178 0.59375 16C0.59375 24.7482 7.68556 31.84 16.4338 31.84ZM6.86471 9.14333L11.5281 4.47992H13.7444C13.1441 4.82622 11.1587 7.29644 10.6508 9.14333H6.86471ZM16.0068 4.47992V9.14333H11.5281C11.8436 8.18141 12.9687 5.90203 14.9449 4.47992H16.0068ZM16.9072 9.14333H21.4321C20.3794 6.63155 18.6694 4.98782 17.9461 4.47992H16.9072V9.14333ZM25.9801 9.14333H22.3094C21.7322 7.75816 20.6887 5.84662 19.1927 4.47992H21.2705L25.9801 9.14333ZM10.5355 22.8565H6.8648L11.5744 27.5199H13.6521C12.1561 26.1532 11.1127 24.2417 10.5355 22.8565ZM11.4128 22.8565H15.9377L15.9377 27.5199L14.8988 27.5199C14.1754 27.012 12.4655 25.3683 11.4128 22.8565ZM16.838 22.8565V27.5199H17.9C19.8762 26.0978 21.0012 23.8184 21.3167 22.8565L16.838 22.8565ZM21.3167 27.5199L25.9801 22.8565H22.194C21.6861 24.7034 19.7007 27.1736 19.1005 27.5199H21.3167ZM6.35754 20H7.88154L8.37354 18.152H10.7975L11.2895 20H12.8135L10.4375 11.18H8.73354L6.35754 20ZM8.73354 16.82L8.97354 15.932C9.29354 14.756 9.49754 13.804 9.58554 13.076C9.67354 13.804 9.87754 14.756 10.1975 15.932L10.4375 16.82H8.73354ZM16.4996 20.096C16.7796 20.096 17.0556 20.068 17.3276 20.012C17.6076 19.956 17.8676 19.852 18.1076 19.7C18.3476 19.548 18.5476 19.356 18.7076 19.124C18.8756 18.892 18.9916 18.64 19.0556 18.368C19.1196 18.088 19.1516 17.808 19.1516 17.528V11.18H17.6756V17.528C17.6756 17.688 17.6516 17.848 17.6036 18.008C17.5636 18.16 17.4876 18.3 17.3756 18.428C17.2636 18.548 17.1276 18.636 16.9676 18.692C16.8156 18.74 16.6596 18.764 16.4996 18.764C16.3396 18.764 16.1796 18.74 16.0196 18.692C15.8676 18.636 15.7356 18.548 15.6236 18.428C15.5116 18.3 15.4316 18.16 15.3836 18.008C15.3436 17.848 15.3236 17.688 15.3236 17.528V11.18H13.8476V17.528C13.8476 17.808 13.8796 18.088 13.9436 18.368C14.0076 18.64 14.1196 18.892 14.2796 19.124C14.4476 19.356 14.6516 19.548 14.8916 19.7C15.1316 19.852 15.3876 19.956 15.6596 20.012C15.9396 20.068 16.2196 20.096 16.4996 20.096ZM22.4417 20H20.9537V11.18H23.5937C23.8577 11.18 24.1177 11.204 24.3737 11.252C24.6377 11.292 24.8897 11.372 25.1297 11.492C25.3697 11.604 25.5777 11.76 25.7537 11.96C25.9377 12.152 26.0657 12.376 26.1377 12.632C26.2177 12.888 26.2577 13.144 26.2577 13.4V14.456C26.2577 14.712 26.2177 14.968 26.1377 15.224C26.0657 15.48 25.9377 15.708 25.7537 15.908C25.5777 16.1 25.3697 16.256 25.1297 16.376C24.8897 16.488 24.6377 16.568 24.3737 16.616C24.1177 16.656 23.8577 16.676 23.5937 16.676H22.4417V20ZM22.4417 12.512V15.344H23.5937C23.7377 15.344 23.8777 15.332 24.0137 15.308C24.1497 15.276 24.2777 15.224 24.3977 15.152C24.5257 15.08 24.6217 14.98 24.6857 14.852C24.7497 14.724 24.7817 14.592 24.7817 14.456V13.4C24.7817 13.264 24.7497 13.132 24.6857 13.004C24.6217 12.876 24.5257 12.776 24.3977 12.704C24.2777 12.632 24.1497 12.584 24.0137 12.56C23.8777 12.528 23.7377 12.512 23.5937 12.512H22.4417Z" fill="black"/>
</g>
<defs>
<clipPath id="clip0_3393:12124">
<rect width="32" height="32" fill="white" transform="translate(0.441406)"/>
</clipPath>
</defs>
</svg>
