<svg xmlns="http://www.w3.org/2000/svg" width="1000" height="1000">
  <path d="M221.999 170.784v460.66c0 22.498 5.356 36.425 28.925 46.067 73.92 43.923 153.196 86.775 230.33 132.842 12.856 7.499 25.711 7.499 42.852 0 71.778-39.639 151.054-88.919 223.903-132.842 25.711-9.642 29.996-23.569 29.996-46.066V371.118c0-25.711-4.285-36.424-23.568-49.28-79.277-43.923-151.054-83.562-223.903-127.485-18.212-9.642-34.282-13.927-53.565 0-31.068 18.212-67.492 35.353-102.845 55.708-7.5 4.285-7.5 7.499-7.5-11.785V96.864c0-10.713 7.5-23.568 17.142-28.925 29.996-20.355 62.135-37.496 93.203-55.708 17.14-9.641 35.353-9.641 53.565 0 65.35 43.924 132.842 79.277 199.263 123.2 62.135 34.282 123.2 66.421 181.05 102.845 18.212 11.785 25.711 21.426 25.711 39.639v443.52c0 23.568-11.784 35.352-29.996 49.28-110.345 61.064-217.475 126.413-333.176 186.406-17.14 12.856-35.353 21.426-56.779 33.21-13.927 7.5-20.355 5.357-35.353-2.142C348.413 915.34 222 836.064 89.157 764.286c-20.355-7.499-25.711-25.71-25.711-42.852v-443.52c0-18.212 5.356-27.853 25.711-39.638 41.78-25.71 84.633-49.28 126.414-74.99 0 0 6.428 0 6.428 7.498zm144.626 386.74V455.752c0-18.212 7.499-31.068 24.64-43.923 27.854-14.999 59.993-35.353 89.99-54.637 12.855-7.5 25.71-7.5 35.352 0 39.638 25.711 67.492 43.924 97.489 62.136 12.855 10.713 18.212 10.713 18.212 22.497v115.7c0 12.856 0 18.213-18.212 31.069-29.997 17.14-66.421 42.852-97.489 61.064-9.642 4.285-21.426 5.356-35.353 0-29.996-18.212-58.922-37.496-97.488-56.78-9.642-9.64-17.141-22.497-17.141-35.352zm47.137 25.712h177.836v-31.068H463.042c-5.356-25.711 7.5-31.067 25.711-31.067 20.355 0 41.781-1.072 58.922-2.143 25.711 0 43.923-20.355 43.923-46.066 0-31.068-18.212-48.209-43.923-48.209H445.901c-18.212 0-23.569 5.357-23.569 31.068h108.202c7.5 0 11.784 11.784 11.784 17.14 0 8.571-7.499 18.213-29.996 18.213h-54.637c-18.212 0-35.353 12.856-43.923 29.997z" style="fill:#000;fill-opacity:1;fill-rule:nonzero;stroke:none"/>
</svg>
