<svg xmlns="http://www.w3.org/2000/svg" width="1000" height="1000">
  <path d="M500.496 5C223.572 5 5 229.506 5 500.002c0 276.43 224.506 495.001 495.002 495.001 276.43 0 495.001-224.506 495.001-495.001C995.003 226.539 773.464 5 500.496 5zM85.11 498.518c0-232.418 183.957-419.342 423.298-419.342 232.419 0 419.342 195.825 415.386 419.342 3.956 227.473-191.868 426.265-427.254 418.353-222.528-4.945-413.408-182.967-411.43-418.353zm46.484 0c-5.934 207.693 170.11 378.793 373.847 374.837 194.836 3.956 369.892-159.232 369.892-371.87 0-209.67-171.1-374.836-369.892-374.836-207.693 0-373.847 169.121-373.847 371.87zm101.868-123.627c17.803-2.967 26.704-2.967 38.572-2.967-4.945-11.868-10.88-27.692-17.802-44.505 6.923-4.945 14.835-4.945 19.78-4.945h115.715c14.835 0 22.747 4.945 27.692 15.824 3.956 12.857 7.912 20.77 11.868 33.626H537.09c0 19.78-4.945 34.616-11.868 35.605-16.814 0-235.386 1.978-275.935 1.978-3.957-10.88-6.924-22.748-15.825-34.616zm27.693 55.385c-1.978-3.956 16.813-3.956 24.725-3.956h226.484c0 19.78-8.9 31.649-15.824 40.55H297.748c-19.78 0-19.78 0-28.681-20.77-1.978-2.967-2.967-6.923-7.912-15.824zm68.242 71.21c-.99-2.968 10.879-2.968 16.813-2.968h127.583c10.879 0 12.857 6.923 18.791 15.824 3.956 4.945 7.912 12.858 12.857 18.792 31.649-71.21 63.297-138.462 94.946-210.66h99.89c20.77 0 35.605 0 56.374 4.945-8.901 16.813-12.857 27.692-20.77 44.505h32.638c-2.967 14.836-8.901 26.704-8.901 37.583h-44.506c0 9.89-1.978 10.879-3.956 16.813 12.857 0 24.726 0 36.594 3.956-3.956 11.868-11.868 25.715-15.824 36.594-10.88 0-22.748 0-39.561 3.956-35.605 80.11-72.198 159.231-106.814 238.352h-160.22c-32.637-67.253-63.297-139.45-95.934-207.693z" style="fill:#000;fill-opacity:1;fill-rule:nonzero;stroke:none;"/>
</svg>
