<svg xmlns="http://www.w3.org/2000/svg" width="1000" height="1000">
  <path d="M500.496 5c272.968 0 494.507 221.54 494.507 495.002 0 270.495-218.572 495.001-495.001 495.001C229.506 995.003 5 776.431 5 500.002 5 229.506 223.572 5 500.496 5zM135.55 654.782c-4.945 25.715-4.945 25.715 21.758 25.715h101.869c-3.956 27.692-10.88 51.428-14.836 76.154-5.934 29.67-5.934 29.67 24.726 29.67h72.198c37.582 0 38.571-.989 45.495-35.604 9.89-56.374 21.758-113.737 31.648-168.133 1.978-5.934 7.912-14.835 9.89-14.835 42.528-.989 85.055-.989 130.55-.989-1.978 7.912-1.978 11.868-1.978 17.802-12.857 60.33-25.714 120.66-36.594 181.979-2.967 13.846 0 19.78 14.836 19.78h97.912c15.824 0 24.725-7.912 28.682-23.736 3.956-22.747 7.912-44.506 11.868-67.253 2.967-9.89 5.934-14.835 17.802-14.835h90c15.824 0 25.715-4.945 28.682-21.759 3.956-23.736 6.923-46.483 10.879-68.242 6.923-23.736 3.956-23.736-17.802-23.736H700.277c4.945-35.604 11.868-68.242 17.802-99.89.99-11.869 7.912-15.825 20.77-15.825 25.714 1.978 52.417 0 78.132 0 28.681 0 32.637-2.967 39.56-31.648 3.956-18.791 7.912-39.56 10.88-60.33 3.956-23.736 3.956-25.714-21.759-25.714h-100.88c5.935-30.66 9.89-56.374 15.825-84.066 3.956-14.836-1.978-18.792-15.824-18.792h-95.935c-17.802 0-25.714 7.912-29.67 22.748-3.956 31.648-9.89 59.34-16.813 88.022-5.934 35.604-13.847 71.209-20.77 106.813H445.111c1.978-9.89 3.956-17.802 3.956-25.714 11.869-57.363 21.759-113.737 33.627-170.11 4.945-17.803-1.978-24.726-17.802-21.759h-92.968c-17.802-2.967-26.703 7.912-30.66 22.748-3.955 23.736-7.911 43.516-11.867 65.275-1.978 12.857-5.934 14.835-17.803 14.835H226.54c-17.802 0-27.692 7.912-31.648 25.714-5.934 22.747-9.89 45.495-13.846 67.253-3.957 24.725-3.957 24.725 20.769 24.725h100.88c-5.935 35.605-11.869 70.22-19.781 101.869 0 3.956-9.89 10.88-15.824 10.88-28.682 2.966-58.352 2.966-87.033 0-18.792 0-28.682 7.911-30.66 26.702-3.956 21.759-7.912 44.506-13.846 64.286z" style="fill:#000;fill-opacity:1;fill-rule:nonzero;stroke:none;"/>
</svg>
