<svg xmlns="http://www.w3.org/2000/svg" width="1000" height="1000">
  <path d="M502.473 994.356C230.67 994.356 5 773.672 5 495.636 5 231.317 224.437 5.647 491.251 5.647c281.777 0 507.447 214.448 503.706 497.471 0 270.555-221.93 491.239-492.484 491.239zM77.315 495.636C72.327 728.789 264.335 927.03 494.992 927.03c239.385 0 431.392-192.007 431.392-423.912 0-238.138-187.02-425.158-423.911-425.158C269.32 72.972 77.315 264.98 77.315 495.637zm260.58 79.796c0-49.872 28.677-96.004 78.548-113.459 62.34-12.468 86.03-11.221 142.135-11.221 11.222-38.65 0-67.327-33.663-78.548-41.144-11.222-68.574 0-86.03 39.897h-89.769c0-33.663 17.456-62.34 44.885-78.548 56.106-46.132 164.577-46.132 220.683 0 29.923 22.442 46.132 49.872 46.132 83.535v187.02c0 22.442 6.234 44.885 11.221 68.574-27.43 0-57.353 6.234-79.795 0-11.221 0-16.208-16.209-28.676-23.69-38.651 29.924-84.783 41.145-135.901 29.924-49.872-11.221-89.77-57.353-89.77-103.484zm96.004-4.988c4.987 28.677 22.442 39.898 44.884 39.898 62.34 4.987 91.017-28.676 84.783-107.225-33.664 3.74-68.574 3.74-96.004 11.222-28.676 3.74-39.897 22.442-33.663 56.105z" style="fill:#000;fill-opacity:1;fill-rule:nonzero;stroke:none"/>
</svg>
