<svg xmlns="http://www.w3.org/2000/svg" width="1000" height="1000">
  <path d="M500 995C227.648 995 5.68 773.033 5.68 496.596 5.68 224.244 227.649 5 500 5c275.076 0 494.32 219.244 494.32 494.32C994.32 773.032 772.351 995 500 995zM58.79 499.32c0 245.116 198.817 441.21 443.933 439.848 242.394 0 438.487-201.54 438.487-442.572C937.125 251.479 741.032 59.47 495.915 59.47c-239.67 0-437.125 198.817-437.125 439.848zm76.258 70.81v-9.53c21.788-10.895 55.832-1.362 74.897 23.15 9.532 10.894 13.618 24.511 20.426 39.49 44.938 78.983 106.218 134.815 193.37 160.688 132.091 36.768 277.8-25.873 344.526-142.985 0-4.085 4.085-6.808 4.085-10.894-14.98 0-25.873-4.085-39.491-4.085-12.256 0-20.426-8.17-23.15-19.065-1.362-12.255 6.809-17.703 17.703-20.426 36.768-10.894 73.535-21.788 110.303-34.044 21.788-5.447 32.682 8.17 29.958 31.32-2.723 13.618-5.447 31.32-10.894 42.215-55.832 137.538-159.326 216.52-306.396 235.585C362.462 887.42 182.71 760.778 135.048 570.13zm77.62-70.81c-34.044-55.833 6.81-261.459 81.706-291.417 13.618 42.214 28.597 80.343 42.215 123.92h4.085c1.362-6.81 1.362-14.98 4.085-20.427 6.81-19.064 10.894-39.49 19.065-59.917 4.085-8.17 9.532-13.618 12.256-19.065 13.617-17.703 27.235-13.617 39.49 4.085 2.724 0 2.724 1.362 5.448 4.086 27.235 62.64 50.385 128.005 42.214 197.455 0 5.447-4.085 10.894-4.085 19.065-40.853-21.788-49.023-66.727-66.726-106.218-2.724 10.894-2.724 21.789-8.17 32.683-5.448 17.703-10.895 34.044-21.789 49.023-14.98 21.788-34.044 21.788-47.661 0-9.533-16.341-14.98-34.044-23.15-53.109-2.724-2.723-2.724-9.532-2.724-14.979-17.703 51.747-28.597 103.494-76.258 134.814zm317.29-256.012c25.874 8.17 36.768 23.15 46.3 42.215 8.171 20.426 13.618 39.49 21.789 62.64 5.447-20.426 10.894-36.767 16.34-53.108 6.81-10.894 10.895-23.15 17.704-31.32 13.617-16.341 29.958-20.427 40.853-2.724 12.255 13.618 17.702 31.32 25.873 47.662 2.724 5.447 6.809 12.256 9.532 19.064 16.341-47.661 21.789-100.77 77.62-125.282 8.171 24.512 8.171 49.024 5.448 74.897-5.447 58.556-24.512 115.75-50.385 171.582-8.171 16.341-20.427 34.044-43.577 39.491-14.98-42.214-28.597-81.705-40.853-123.92-13.617 44.938-21.788 89.876-66.726 121.197-39.49-78.982-76.258-152.517-59.917-242.394z" style="fill:#000;fill-opacity:1;fill-rule:nonzero;stroke:none;"/>
</svg>
