<svg xmlns="http://www.w3.org/2000/svg" viewBox="0 0 1000 1000"><path d="M500.496 5C223.572 5 5 229.506 5 500.002c0 276.43 224.506 495.001 495.002 495.001 276.43 0 495.001-224.506 495.001-495.001C995.003 226.539 773.464 5 500.496 5zM131.594 724.013V308.627c0-3.956 2.967-6.923 7.912-6.923h49.45c4.946 0 7.913 2.967 7.913 6.923v154.287h129.56V308.627c0-3.956 2.968-6.923 7.913-6.923h51.429c4.945 0 7.912 2.967 7.912 6.923v415.386c0 3.956-2.967 6.923-7.912 6.923h-51.43c-4.944 0-7.911-2.967-7.911-6.923V538.08H196.869v185.934c0 3.956-2.967 6.923-7.912 6.923h-49.451c-4.945 0-7.912-2.967-7.912-6.923zm302.638 0V308.627c0-3.956 2.967-6.923 7.912-6.923h48.462c4.945 0 7.912 2.967 7.912 6.923v145.385L616.211 305.66c1.978-2.967 5.934-3.956 9.89-3.956h69.231c5.934 0 7.912 3.956 3.956 8.901L546.98 497.53l152.308 224.506c2.967 4.945 0 8.901-5.934 8.901h-68.242c-3.956 0-6.923-.989-8.901-3.956L500.496 551.925l-1.978 1.978v170.11c0 3.956-2.967 6.923-7.912 6.923h-48.462c-4.945 0-7.912-2.967-7.912-6.923zM700.277 597.42c-.989-4.946.99-7.913 5.934-8.902l36.594-9.89c3.956-.989 7.912.99 9.89 5.934 15.824 40.55 25.714 57.363 47.473 57.363 22.747 0 39.56-20.77 39.56-50.44 0-32.637-23.736-45.494-51.429-62.307-30.66-18.792-68.242-40.55-68.242-98.902 0-43.516 21.759-77.143 61.32-93.956v-37.583c0-3.956 2.966-6.923 6.922-6.923h32.638c4.945 0 7.912 2.967 7.912 6.923v37.583c25.714 6.923 41.539 25.714 58.352 59.34 1.978 3.957.989 6.924-2.967 9.89l-34.616 24.726c-2.967 1.978-6.923 1.978-9.89-2.967-11.868-19.78-20.77-30.66-34.615-30.66-16.814 0-30.66 14.836-30.66 33.627 0 17.802 7.912 26.704 37.583 42.528 13.846 8.9 27.692 16.813 37.582 25.714 30.66 23.736 44.506 54.396 44.506 92.967 0 50.44-27.693 97.913-65.275 110.77v39.56c0 4.946-2.967 7.913-7.912 7.913h-32.638c-3.956 0-6.923-2.967-6.923-7.912V706.21c-48.461-14.835-68.242-42.528-81.099-108.791z"/></svg>