<svg xmlns="http://www.w3.org/2000/svg" width="1000" height="1000">
  <path d="M934.826 292.564v411.531c0 33.278-12.202 55.463-45.48 67.665-118.689 73.21-236.27 140.874-351.631 214.085-24.404 12.201-61.009 12.201-72.101 0-117.58-73.21-249.582-140.875-364.944-214.085-24.403-12.202-35.495-34.387-35.495-67.665V292.564c0-24.404 11.092-58.79 35.495-73.21C216.032 157.234 336.94 92.898 452.303 17.47c37.714-22.185 61.008-9.983 85.412 0C653.077 92.899 770.657 165 889.347 219.353c33.277 24.404 45.48 48.807 45.48 73.21zM204.94 584.296c36.605 59.9 72.101 119.8 108.706 175.262 11.093 25.513 34.387 48.807 58.79 36.605 33.278-11.092 57.682-48.807 93.178-70.992-13.311-21.076-24.404-32.168-35.496-44.37-37.715-36.605-57.681-72.101-48.807-132 0-12.202-21.076-33.278-33.278-45.48-59.9-47.697-59.9-47.697-119.799 0-31.059 24.404-43.26 45.48-23.294 80.975zm94.286-212.975h402.658c-11.093-31.06-25.513-54.354-25.513-78.757 0-61.009-34.387-61.009-83.194-61.009H452.303c-127.564 0-127.564 0-153.077 139.766zm106.488 61.008c13.311 37.715 24.404 59.9 24.404 95.396 0 94.286 0 94.286 94.286 94.286 13.31 0 25.513-13.311 34.387-13.311 9.983-59.9 22.185-116.471 22.185-176.37zm163.06 248.472c-44.37 33.278-31.06 56.572 12.202 90.959 37.714 36.605 72.1 36.605 95.395-12.202 49.916-66.555 94.286-137.547 141.984-222.96-24.404-21.075-47.698-33.277-61.009-44.37-23.294-11.092-43.26-22.184-66.555-11.092-37.714 11.093-86.521 34.387-72.101 79.866 11.092 47.698-14.42 83.194-49.916 119.8z" style="fill:#000;fill-opacity:1;fill-rule:nonzero;stroke:none;"/>
</svg>
