<svg xmlns="http://www.w3.org/2000/svg" width="1000" height="1000">
  <path d="M150.382 854.22c108.427-244.235 217.95-486.28 332.948-734.895-55.856 3.285-94.19 20.81-130.332 48.19-67.904 52.57-97.475 122.665-102.95 203.711-161 12.048-224.523 127.046-242.046 215.76-16.428 96.38 35.048 223.424 142.38 267.234zm12.047 8.762c38.333 7.667 72.285 14.238 101.856 20.81C374.903 631.89 487.711 386.56 598.33 140.133c-33.952-15.333-64.619-30.666-99.666-20.81C389.141 363.56 278.523 612.177 162.43 862.983zm130.332 14.238h98.57c102.951-222.33 200.426-441.375 300.092-664.8-13.143-15.333-21.905-29.571-36.143-38.333-7.666-8.762-18.619-16.428-33.952-26.285zm134.713 0h91.998c72.285-157.712 140.19-313.234 211.379-467.66 27.38-59.143 13.142-107.333-19.714-167.57-96.38 216.854-191.665 423.852-283.663 635.23zm131.427 0h88.713c70.094-157.712 141.284-315.425 215.759-477.518l-74.475-28.476C711.137 542.081 636.66 708.556 558.9 877.22zm135.807 0h77.761c60.238-133.617 119.38-265.044 179.617-397.566-16.428-17.524-30.666-35.048-53.666-58.047-70.094 156.617-134.713 304.472-203.712 455.613zm142.38-23c114.998-28.475 193.854-192.76 141.283-307.758-48.19 104.047-91.998 204.807-141.283 307.758z" style="fill:#000;fill-opacity:1;fill-rule:nonzero;stroke:none;"/>
</svg>
