<svg xmlns="http://www.w3.org/2000/svg" width="1000" height="1000">
  <path d="M500.496 5C223.572 5 5 229.506 5 500.002c0 276.43 224.506 495.001 495.002 495.001 276.43 0 495.001-224.506 495.001-495.001C995.003 226.539 773.464 5 500.496 5zM193.902 304.671c23.736-22.747 59.34-23.736 89.011-17.802 20.77 2.967 30.66 16.813 30.66 41.539 0 41.538 17.802 60.33 65.274 71.209 28.682 6.923 52.418 0 76.155-29.67 12.857-17.803 24.725-35.605 37.582-53.408 10.88-23.736 23.736-23.736 34.616 6.924 5.934 10.879 12.857 21.758 17.802 34.615 12.857 17.802 23.736 17.802 36.593 0l5.934-5.934c23.737-41.539 59.341-35.605 84.067 0 16.813 29.67 40.55 54.396 53.406 84.066 17.803 23.737 24.726 46.484 28.682 70.22 12.857 36.594 24.725 67.253 48.462 90.99 35.604 23.736 29.67 59.34 35.604 89.01 0 17.803 0 35.605 5.934 59.342h-48.462c42.528-65.275-4.945-124.616-90-154.287 6.923 16.814 12.857 34.616 19.78 52.418 0 12.857-6.923 23.737-12.857 36.594-17.802 23.736-35.604 47.472-54.396 65.275-23.736 17.802-34.615 0-52.417-6.923 17.802-10.88 34.615-23.737 47.472-28.682 35.605-36.593 35.605-36.593 18.792-89.011-13.847-18.791-18.792-36.594-18.792-54.396 0-23.736-12.857-29.67-29.67-36.593-72.198-4.945-143.407 12.857-208.682 36.593-41.539 11.868-41.539 48.462-17.802 83.077 10.879 12.857 5.934 36.594 5.934 54.396h-12.857c-10.88-23.736-23.737-41.539-41.539-65.275-29.67 28.682-53.407 59.341-82.088 89.011-19.78-12.857-30.66-17.802-48.462-29.67 65.275-6.923 77.143-59.34 106.814-95.934 6.923 0 6.923-10.88 6.923-17.803-17.803-23.736-6.923-41.538 23.736-47.472 4.945 0 10.88-6.923 23.736-11.868-12.857-11.869-18.79-23.737-30.659-29.67-40.55-35.605-78.132-78.133-94.945-130.55-11.869-24.726-26.704-30.66-54.396-30.66-25.715 0-25.715-7.912-4.945-29.67z" style="fill:#000;fill-opacity:1;fill-rule:nonzero;stroke:none;"/>
</svg>
