<svg xmlns="http://www.w3.org/2000/svg" width="1000" height="1000">
  <path d="M5 500.496C5 225.55 226.54 5 500.496 5c272.968 0 494.507 222.528 494.507 494.507 0 274.946-222.528 495.496-494.507 495.496C225.55 995.003 5 772.475 5 500.496zm125.605 64.286c0 8.901 2.967 21.758 5.934 30.66 21.758 42.527 39.56 87.033 61.319 132.527 5.934 8.902 11.868 20.77 16.813 27.693 52.418 35.604 101.869 72.198 152.308 109.78 8.901 4.945 21.759 8.902 30.66 8.902 63.297 5.934 124.615 11.868 187.912 14.835 7.913 0 21.759-2.967 30.66-6.923 51.429-29.67 100.88-63.297 152.308-92.968 9.89-6.923 17.802-16.813 23.736-24.725 30.66-51.429 57.363-102.858 87.034-157.253 3.956-3.956 3.956-11.868 3.956-19.78-3.956-.99-5.934-.99-8.901-5.935-24.726 21.759-28.682 56.374-46.484 80.11-16.813 27.693-33.627 57.363-49.45 87.034-38.572-29.67-71.21-54.396-71.21-102.858V354.122c0-10.88 4.945-20.77 9.89-34.615 51.43 29.67 95.935 54.395 150.33 85.055 0-12.857 2.968-21.759 0-26.704-22.747-47.472-48.461-95.934-73.187-141.429-1.978-8.9-11.868-14.835-15.824-17.802-61.319-36.593-119.67-73.187-180-108.792-12.858-2.967-23.737-6.923-37.583-2.967-75.165 11.869-148.352 23.737-220.55 38.572-8.901 3.956-21.758 6.923-30.66 14.835C258.188 215.66 206.76 267.09 155.33 324.452c-6.923 8.9-12.857 24.725-14.835 37.582-3.956 66.264-6.923 134.506-9.89 202.748zm39.56-155.275c-5.934-60.33-5.934-64.286 57.363-96.924 0 8.902 0 15.825-2.967 17.803-11.868 47.472-26.703 94.945-45.494 150.33-2.968-31.649-4.946-52.418-8.902-71.21zm23.737 170.11c3.956 0 5.934-2.967 5.934-2.967 37.582 32.638 70.22 69.231 109.78 108.792-29.67 14.835-54.395 27.692-85.055 39.56-11.868-52.417-20.77-100.88-30.66-145.385zm18.791-141.429c14.835-46.483 29.67-92.967 45.495-137.473 36.593 0 58.352 11.868 58.352 42.528v314.506c-27.693-23.736-46.484-38.571-64.286-60.33-73.187-75.165-73.187-48.461-39.561-159.23zm24.725 308.573c95.935-52.418 85.056-40.55 108.792 35.604 5.934 12.857 8.901 27.693 8.901 45.495-36.593-27.693-75.165-51.429-117.693-81.1zm36.594-469.782c8.901-38.572 29.67-64.286 50.44-91.978 6.923-5.935 25.714-11.869 33.626-7.913 34.616 1.978 67.253 10.88 105.825 18.792-8.901 22.747-13.847 38.571-22.748 52.417-19.78 46.484-28.681 49.451-74.176 46.484-8.9 0-14.835-3.956-23.736-3.956-20.77-4.945-45.495-8.901-69.231-13.846zm66.264 47.473c57.363-17.803 85.055-11.869 118.682 32.637 33.626 42.528 67.253 91.978 99.89 134.506 5.934 4.945 20.77 11.868 26.703 9.89 5.934-4.945 12.858-15.824 7.913-24.725 0-38.572-1.979-80.11-1.979-119.67 0-37.583 1.979-42.529 40.55-42.529 17.802 0 32.638 4.946 53.407 4.946v353.078c-53.407 21.758-84.066 12.857-115.715-26.704-37.582-45.494-72.198-92.967-108.791-142.418-1.978-6.923-17.803-11.868-23.737-8.9-5.934 1.977-11.868 18.79-11.868 23.735 2.967 42.528 5.934 85.056 5.934 124.616.99 37.583-2.967 39.56-36.593 39.56H346.21c-12.857-32.637-14.835-306.594-5.934-358.022zm5.934 381.76h82.088c-11.868 42.527-27.692 83.076-42.527 127.582-14.836-48.462-27.693-85.055-39.561-127.583zm51.429-547.915c43.516-8.9 78.132-14.835 120.66-23.736-32.638 44.505-51.43 47.473-120.66 23.736zm5.934 688.354c17.802-48.462 28.681-89.011 46.483-133.517 42.528 35.605 77.144 67.253 124.616 105.825-61.319 12.857-110.77 18.791-171.1 27.692zm51.429-188.902c-2.968-33.626-2.968-70.22 3.956-104.835 57.362 69.23 142.418 127.583 126.593 247.253-42.527-35.604-79.12-63.296-111.758-95.934-12.857-11.868-18.791-31.648-18.791-46.484zM485.66 215.66c89.011 57.363 93.956 138.462 79.121 236.374-8.901-12.857-17.802-17.802-24.725-26.703-17.803-20.77-33.627-42.528-51.429-63.297-51.429-59.34-47.473-76.154-2.967-146.374zm22.747-14.835h180c3.957 11.868 6.924 17.802 3.957 23.736-6.923 23.736 8.901 57.363-21.758 66.264-29.67 9.89-69.231 9.89-95.935-13.846-23.736-21.758-39.56-46.484-66.264-76.154zm23.737-30.66c37.582-51.428 59.34-51.428 129.56 6.923H540.058c-2.967 0-4.945-3.956-7.912-6.923zm75.165 539.013c60.33-11.868 104.835 0 144.396 55.385-44.506 15.824-87.033 30.66-139.451 48.462-1.978-40.55-1.978-70.22-4.945-103.847zm110.77-490.55c36.593 48.46 68.241 88.021 100.879 130.549 0 3.956-2.967 3.956-2.967 4.945-29.67-13.846-56.374-29.67-88.023-47.473-32.637-20.769-17.802-51.428-9.89-88.022z" style="fill:#000;fill-opacity:1;fill-rule:nonzero;stroke:none;"/>
</svg>
