<svg xmlns="http://www.w3.org/2000/svg" viewBox="0 0 1000 1000"><path d="M504.433 113.875c79.757 0 137.992 11.394 203.824 48.108 18.99 13.926 18.99 27.852 0 48.107-44.31 48.108-79.757 82.29-156.983 51.906-88.62-29.118-181.036 0-245.602 82.29-60.767 74.693-69.63 167.11-31.65 262.06 21.522 34.18-5.064 45.575-65.831 102.544-22.788 17.724-30.384 17.724-49.374-11.394-79.757-120.269-69.63-307.635 18.99-435.5 84.822-100.013 192.43-148.12 326.626-148.12zM6.899 894.991c5.064-49.374 48.107-97.481 102.545-97.481 49.373 0 94.949 51.905 94.949 100.013 0 49.373-50.64 97.481-98.747 97.481-50.64 0-98.747-48.108-98.747-100.013zM274.022 816.5c24.054-32.916 53.172-68.364 88.62-89.886 31.65-13.926 245.602 82.29 350.679-98.747 43.044-68.363 48.108-145.589 13.926-219.016-7.596-27.852-7.596-46.842 15.192-64.566 13.926-21.522 39.245-51.905 67.097-82.289 78.491 108.875 106.343 215.218 78.491 327.891-40.511 145.59-131.662 255.73-286.113 293.71-119.003 29.118-274.72-6.33-327.892-67.097zm525.386-711.487C799.408 53.108 847.516 5 896.89 5c50.64 0 96.216 41.778 96.216 100.013 0 56.97-39.246 100.013-96.216 100.013-49.373 0-97.48-43.043-97.48-100.013z"/></svg>