<svg xmlns="http://www.w3.org/2000/svg" viewBox="0 0 1000 1000"><path d="M500.496 5C223.572 5 5 229.506 5 500.002c0 276.43 224.506 495.001 495.002 495.001 276.43 0 495.001-224.506 495.001-495.001C995.003 226.539 773.464 5 500.496 5zM95.99 524.232v-49.45c3.956-26.704 7.912-53.407 14.836-80.11 0-5.934 1.978-11.869 5.934-19.78 5.934 59.34-1.978 114.725-18.792 171.099 0-7.912-1.978-13.846-1.978-21.759zm7.912 63.297c-1.978-14.835 0-28.681 2.967-43.516 1.978-19.78 7.913-38.572 11.869-57.363 0-3.956 1.978-5.934 3.956-9.89h1.978c1.978 7.912 3.956 18.791 5.934 26.703 30.66 132.528 106.813 234.397 222.528 306.595 4.945 1.978 6.923 5.934 10.88 9.89 1.977 5.934 5.933 7.912 11.867 5.934 1.978 0 5.934 0 10.88 1.978 29.67 10.879 60.33 22.747 90.989 34.615 2.967 0 2.967 0 4.945 2.967-12.857 1.978-22.747 3.956-32.638 3.956-41.538 1.978-82.088 1.978-120.66-6.923-10.878 0-18.79-3.956-26.703-7.912-104.835-61.319-172.088-149.34-198.792-267.034zm20.77-151.319v-78.132c0-7.912 1.978-13.846 3.956-19.78 43.516-97.913 114.725-170.11 212.638-212.638 16.813-5.934 34.615-7.912 53.407-7.912 52.417-4.945 103.846 0 155.275 11.868 1.978 1.978 5.934 1.978 9.89 3.956-28.681 3.956-55.385 5.934-79.121 9.89-78.132 16.813-147.363 49.45-208.682 100.88-3.956 3.955-12.857 5.934-16.813 7.912-3.956 1.978-5.934 5.934-7.913 7.912-1.978 3.956-3.956 7.912-5.934 12.857-49.45 46.484-86.044 101.868-110.77 163.187-1.977 1.978-1.977 3.956-3.955 7.912-1.978-3.956-1.978-5.934-1.978-7.912zm5.934 46.484c0-5.934 1.978-11.868 1.978-17.802 0-1.978 1.978-3.956 0-3.956-5.934-12.858 1.978-20.77 6.923-28.682 23.736-59.34 58.352-110.77 103.846-155.275 24.726-8.901 32.638-34.616 53.407-47.473 21.759-9.89 40.55-24.725 63.297-36.593 21.758-9.89 44.506-20.77 67.253-28.682 22.747-5.934 46.484-11.868 69.231-15.824 22.747-4.945 44.506-6.923 71.21-8.901 3.955 1.978 10.878 3.956 14.834 6.923 1.978 0 5.934 1.978 7.912 1.978 7.913-4.945 14.836 0 22.748 1.978 99.89 42.528 177.033 111.759 232.418 207.693 0 14.835 10.88 22.747 16.813 32.638 7.913 12.857 13.847 28.681 15.825 43.516 3.956 7.912 1.978 19.78 0 30.66-5.934 52.417-24.726 105.824-50.44 155.275-3.956 7.912-6.923 17.802-18.791 21.758-1.978 0-3.956 4.945-3.956 8.901-1.978 3.956-1.978 9.89-3.956 13.847-72.199 101.868-170.11 167.143-289.782 195.824h-12.857c-36.593-7.912-73.187-19.78-105.824-36.593-3.956-1.978-8.902-5.934-12.858-9.89-1.978-1.978-5.934-3.956-7.912-3.956-5.934-3.956-13.846-3.956-20.769-7.912-117.693-74.177-193.847-180.001-220.55-319.452zm67.253 16.813c2.967 169.122 137.473 306.595 306.594 304.617 170.11 0 304.617-135.495 304.617-304.617 1.978-159.231-126.594-304.616-306.595-304.616-177.033 0-304.616 147.363-304.616 304.616zm143.407 371.87c5.934 1.978 9.89 1.978 14.835 1.978 46.484 5.934 93.956 3.956 140.44-3.957 7.912-1.978 14.835 0 22.747 0 46.484 9.89 93.957 9.89 142.419 3.957 0 0 1.978 0 3.956 1.978-19.78 5.934-38.572 13.846-58.352 17.802-24.726 6.923-53.407 10.879-78.132 14.835H486.65c-16.813-1.978-32.637-1.978-49.45-5.934-30.66-5.934-61.32-16.813-91.98-24.725-1.977-1.978-1.977-1.978-3.955-5.935zm26.703-371.87c0-76.154 61.32-137.473 134.506-137.473 78.132 0 137.473 61.319 137.473 137.473 0 77.143-61.319 136.484-137.473 136.484-75.165 0-134.506-61.319-134.506-136.484zm13.846-388.683c4.946-1.978 6.924-3.956 8.902-3.956 25.714-3.956 52.417-9.89 79.12-13.846 3.957 0 5.935 0 10.88-1.978h48.462c24.725 3.956 49.45 7.912 71.209 11.868 43.516 9.89 84.066 26.704 118.681 53.407-11.868-3.956-26.703-7.912-38.571-9.89-24.726-4.945-49.45-6.923-73.187-10.88-4.945 0-8.901-1.977-12.857-3.955-1.978 0-5.935-1.978-7.913-1.978-5.934 0-14.835 0-20.769-1.978-59.34-16.814-115.715-20.77-177.033-16.814zm43.517 323.408c0 17.802 13.846 32.638 32.638 32.638 17.802 0 32.637-14.836 32.637-32.638 0-18.791-14.835-32.637-32.637-32.637-18.792-1.978-32.638 13.846-32.638 32.637zm99.89 431.21v-2.967c1.979-1.978 5.935-1.978 9.89-3.956 112.748-30.66 202.749-93.956 270.002-189.89 3.956-3.956 7.912-5.935 11.868-9.89 1.978-3.957 3.956-7.913 6.923-11.869 1.978-4.945 1.978-8.9 3.956-12.857 28.681-50.44 48.462-107.802 56.374-167.143 2.967-1.978 2.967-1.978 2.967-7.912 1.978 5.934 3.956 7.912 3.956 9.89 3.956 30.66 11.868 61.319 13.846 91.978 1.978 11.868-1.978 26.703-5.934 38.572-30.66 112.747-95.934 197.802-195.825 257.143-8.901 3.956-16.813 5.934-24.725 8.901-47.473 7.913-95.935 7.913-143.407 1.978-3.956 0-5.934-1.978-9.89-1.978zm88.023-721.98v-1.978c13.846 1.978 28.681 1.978 42.527 6.923 26.704 5.934 51.43 11.868 78.133 19.78 9.89 1.978 17.802 7.912 25.714 14.836 53.407 42.527 91.978 93.956 118.682 157.253 1.978 5.934 3.956 13.846 3.956 19.78v57.363c-5.934-13.846-17.803-26.703-15.825-44.506 0-1.978-1.978-5.934-3.956-7.912-3.956-4.945-10.879-8.9-12.857-14.835-54.396-91.978-132.528-159.231-230.44-201.759-1.978-1.978-3.956-1.978-5.934-4.945zM889.18 440.166c-1.978-5.934 0-11.868 0-18.791 0-15.824 0-30.66 1.978-46.484 1.978 1.978 1.978 3.956 3.956 5.934 9.89 32.638 13.846 65.275 15.824 99.89 0 3.957 0 8.902 1.978 10.88v15.824c-1.978 5.934-1.978 11.868-3.956 16.813-5.934-26.703-13.846-55.384-19.78-84.066z"/></svg>