<?xml version="1.0" encoding="utf-8"?>
<!-- Generator: Adobe Illustrator 26.4.1, SVG Export Plug-In . SVG Version: 6.00 Build 0)  -->
<svg version="1.1" id="Layer_1" xmlns="http://www.w3.org/2000/svg" xmlns:xlink="http://www.w3.org/1999/xlink" x="0px" y="0px"
	 viewBox="0 0 1000 1000" style="enable-background:new 0 0 1000 1000;" xml:space="preserve">
<path d="M543.3,184.1c54.9,0,104.4,12.1,148.3,36.4c42.9,23.2,78.2,58.2,101.6,101l163.5-94.8C915.5,157.1,858,101.9,784.3,61.1
	C710.6,20.4,627.5-0.7,543.3,0C398.6,0,279.1,47.9,184.8,143.6S43.3,358.1,43.3,500c0,141,47.2,259.6,141.5,355.8
	S398.6,1000,543.3,1000c87.9,0,168.5-20.4,241.7-61.1c73.3-40.8,130.5-95.9,171.7-165.5l-163.5-94.8c-23.1,42.4-58.3,77-101,99.6
	c-44.4,24.3-94.1,36.4-149,36.4c-93.4,0-168.7-29.3-225.9-87.9C260.1,668,231.5,592.5,231.5,500c0-93.4,28.6-169.4,85.8-228
	C374.5,213.4,449.9,184.1,543.3,184.1z"/>
</svg>
