<svg xmlns="http://www.w3.org/2000/svg" viewBox="0 0 1000 1000"><path d="M995.003 665.678c-20.328 0-45.739 4.066-65.051 0-9.148 0-19.312-12.197-24.394-22.362-44.723-64.035-90.463-130.103-128.07-193.121-6.1-10.165-10.165-16.263-22.362-24.395v213.45c0 19.313-3.05 24.395-23.378 26.428-64.035 0-49.805 0-49.805-46.756V340.42c0-29.476 0-29.476 29.476-29.476 70.134 5.082 43.707-9.148 85.38 49.805 33.543 53.87 76.233 110.79 108.759 164.661 5.082 6.099 5.082 10.165 15.246 18.296V340.42c0-20.329 5.082-29.476 24.394-29.476 15.247 0 34.559 3.049 49.805 5.082zM5 529.476V471.54c13.214-114.857 86.397-181.941 202.27-155.514 50.821 10.164 86.396 54.887 92.495 103.676 0 10.164 0 20.328-15.247 20.328-34.558 0-41.673 0-50.821-29.476-14.23-25.411-29.477-32.526-58.953-39.641-34.559-5.082-60.986 0-80.298 29.476-25.41 39.641-25.41 86.397-19.312 125.021 0 14.23 4.065 30.493 9.148 44.723 15.246 34.559 39.64 48.79 74.199 48.79 35.575 0 54.887-14.231 69.117-44.724 22.362-38.624 26.427-38.624 66.068-30.493 10.165 60.986-50.821 126.038-118.922 130.103C85.298 679.908 5 612.823 5 529.476zm312.044-213.45c26.427 0 46.756-5.082 66.068 0 11.18 0 16.263 10.164 20.329 19.312 24.394 65.051 43.706 129.087 70.134 194.138 5.082 10.164 7.115 17.28 15.246 30.493 4.066-9.148 4.066-16.263 8.131-24.394 19.313-64.035 45.74-129.087 65.052-195.155 6.099-20.329 14.23-29.476 40.657-29.476h38.625C588.43 464.424 537.61 614.856 482.722 759.189h-4.065c-54.888-144.333-110.791-294.764-161.613-443.163zM423.77 326.19c-6.098-15.246-6.098-15.246 0-21.345 19.313-19.312 34.559-37.608 54.888-64.035 22.361 26.427 43.706 44.723 64.035 64.035 4.066 6.099 4.066 11.18 4.066 15.246-20.33 60.986-45.74 118.923-64.036 180.925 0 0-2.032 0-4.065-6.098-20.329-60.986-41.674-113.84-54.888-168.728z"/></svg>