<svg width="33" height="32" viewBox="0 0 33 32" fill="none" xmlns="http://www.w3.org/2000/svg">
<g clip-path="url(#clip0_3393:12268)">
<path fill-rule="evenodd" clip-rule="evenodd" d="M16.4338 31.84C25.1819 31.84 32.2738 24.7482 32.2738 16C32.2738 7.25184 25.1819 0.160034 16.4338 0.160034C7.68556 0.160034 0.59375 7.25184 0.59375 16C0.59375 24.7482 7.68556 31.84 16.4338 31.84ZM6.86471 9.14339L11.5281 4.47998H13.7444C13.1441 4.82628 11.1587 7.2965 10.6508 9.14339H6.86471ZM16.0068 4.47998V9.14339H11.5281C11.8436 8.18147 12.9687 5.90209 14.9449 4.47998H16.0068ZM16.9072 9.14339H21.4321C20.3794 6.63162 18.6694 4.98788 17.9461 4.47998H16.9072V9.14339ZM25.9801 9.14339H22.3094C21.7322 7.75822 20.6887 5.84669 19.1927 4.47998H21.2705L25.9801 9.14339ZM10.5355 22.8566H6.8648L11.5744 27.52H13.6521C12.1561 26.1533 11.1127 24.2417 10.5355 22.8566ZM11.4128 22.8566H15.9377L15.9377 27.52L14.8988 27.52C14.1754 27.0121 12.4655 25.3683 11.4128 22.8566ZM16.838 22.8566V27.52H17.9C19.8762 26.0979 21.0012 23.8185 21.3167 22.8566L16.838 22.8566ZM21.3167 27.52L25.9801 22.8566H22.194C21.6861 24.7035 19.7007 27.1737 19.1005 27.52H21.3167ZM16.4394 20.096C16.6794 20.096 16.9154 20.076 17.1474 20.036C17.3874 19.996 17.6154 19.932 17.8314 19.844C18.0554 19.756 18.2594 19.636 18.4434 19.484C18.6274 19.324 18.7754 19.136 18.8874 18.92C19.0074 18.704 19.0794 18.48 19.1034 18.248C19.1354 18.008 19.1514 17.768 19.1514 17.528V15.08H16.4994V16.412H17.6754V17.528C17.6754 17.696 17.6554 17.864 17.6154 18.032C17.5754 18.192 17.4914 18.328 17.3634 18.44C17.2354 18.552 17.0914 18.636 16.9314 18.692C16.7714 18.74 16.6074 18.764 16.4394 18.764C16.2794 18.764 16.1194 18.74 15.9594 18.692C15.8074 18.636 15.6714 18.548 15.5514 18.428C15.4314 18.308 15.3474 18.168 15.2994 18.008C15.2514 17.848 15.2274 17.688 15.2274 17.528V13.652C15.2274 13.484 15.2514 13.32 15.2994 13.16C15.3554 13 15.4434 12.86 15.5634 12.74C15.6834 12.62 15.8234 12.536 15.9834 12.488C16.1434 12.44 16.3074 12.416 16.4754 12.416C16.6674 12.416 16.8594 12.448 17.0514 12.512C17.2434 12.576 17.3994 12.692 17.5194 12.86C17.6394 13.02 17.6994 13.2 17.6994 13.4H19.1754C19.1754 13.064 19.1034 12.74 18.9594 12.428C18.8234 12.116 18.6234 11.856 18.3594 11.648C18.0954 11.432 17.7994 11.284 17.4714 11.204C17.1434 11.124 16.8114 11.084 16.4754 11.084C16.2354 11.084 15.9994 11.104 15.7674 11.144C15.5354 11.176 15.3074 11.244 15.0834 11.348C14.8674 11.444 14.6714 11.572 14.4954 11.732C14.3194 11.892 14.1714 12.076 14.0514 12.284C13.9394 12.492 13.8594 12.712 13.8114 12.944C13.7714 13.176 13.7514 13.412 13.7514 13.652V17.528C13.7514 17.808 13.7834 18.088 13.8474 18.368C13.9194 18.64 14.0394 18.892 14.2074 19.124C14.3754 19.348 14.5794 19.536 14.8194 19.688C15.0674 19.84 15.3274 19.944 15.5994 20C15.8794 20.064 16.1594 20.096 16.4394 20.096ZM6.60938 20H8.09737V18.236C8.09737 17.78 8.08537 17.328 8.06138 16.88C8.04537 16.424 8.00537 15.972 7.94137 15.524C7.87738 15.076 7.80937 14.632 7.73738 14.192C7.67338 13.744 7.62537 13.292 7.59338 12.836L9.11738 17.348H10.0534L11.5774 12.836C11.5454 13.292 11.4934 13.744 11.4214 14.192C11.3574 14.632 11.2934 15.076 11.2294 15.524C11.1734 15.972 11.1334 16.424 11.1094 16.88C11.0854 17.328 11.0734 17.78 11.0734 18.236V20H12.5614V11.18H11.2054L9.58537 15.98L7.96537 11.18H6.60938V20ZM24.3855 19.976C24.0575 20.056 23.7255 20.096 23.3895 20.096C23.1495 20.096 22.9095 20.076 22.6695 20.036C22.4375 20.004 22.2135 19.94 21.9975 19.844C21.7815 19.74 21.5855 19.608 21.4095 19.448C21.2335 19.288 21.0855 19.104 20.9655 18.896C20.8535 18.688 20.7735 18.468 20.7255 18.236C20.6855 18.004 20.6655 17.768 20.6655 17.528V13.652C20.6655 13.412 20.6855 13.176 20.7255 12.944C20.7735 12.712 20.8535 12.492 20.9655 12.284C21.0855 12.076 21.2335 11.892 21.4095 11.732C21.5855 11.572 21.7815 11.444 21.9975 11.348C22.2135 11.244 22.4375 11.176 22.6695 11.144C22.9095 11.104 23.1495 11.084 23.3895 11.084C23.7255 11.084 24.0575 11.124 24.3855 11.204C24.7135 11.284 25.0095 11.432 25.2735 11.648C25.5375 11.856 25.7375 12.116 25.8735 12.428C26.0175 12.74 26.0895 13.064 26.0895 13.4H24.6135C24.6135 13.2 24.5535 13.02 24.4335 12.86C24.3135 12.692 24.1575 12.576 23.9655 12.512C23.7735 12.448 23.5815 12.416 23.3895 12.416C23.2215 12.416 23.0575 12.44 22.8975 12.488C22.7375 12.536 22.5975 12.62 22.4775 12.74C22.3575 12.86 22.2695 13 22.2135 13.16C22.1655 13.32 22.1415 13.484 22.1415 13.652V17.528C22.1415 17.696 22.1655 17.86 22.2135 18.02C22.2695 18.18 22.3575 18.32 22.4775 18.44C22.5975 18.56 22.7375 18.644 22.8975 18.692C23.0575 18.74 23.2215 18.764 23.3895 18.764C23.5815 18.764 23.7735 18.732 23.9655 18.668C24.1575 18.604 24.3135 18.488 24.4335 18.32C24.5535 18.152 24.6135 17.972 24.6135 17.78H26.0895C26.0895 18.116 26.0175 18.44 25.8735 18.752C25.7375 19.064 25.5375 19.328 25.2735 19.544C25.0095 19.752 24.7135 19.896 24.3855 19.976Z" fill="black"/>
</g>
<defs>
<clipPath id="clip0_3393:12268">
<rect width="32" height="32" fill="white" transform="translate(0.441406)"/>
</clipPath>
</defs>
</svg>
