<svg xmlns="http://www.w3.org/2000/svg" viewBox="0 0 1000 1000"><path d="M658.38,104.43c-69.08,0-108,20.47-142.26,60.38-34.8,40.94-43,93.65-43.5,130.5l-2,105.93,58.85,1.53,2-105.93c.51-27.12,9.21-53.73,24.57-72.67,16.37-20.46,38.38-31.72,63.45-31.72H621c28.14.51,49.63,7.16,65,19.44,15.86,13.31,24.05,33.27,23.54,59.36a98.72,98.72,0,0,1-30.2,69.09A96.47,96.47,0,0,1,609.26,368l-57.32-1-.51,36.84,57.31,1h2.56c73.18,0,133.57-58.85,135.1-132.54.51-17.91-3.07-35.31-9.21-52.2l-2.56-6.65,4.61,5.12a128.59,128.59,0,0,1,28.65,82.9c-1,69.59-58.33,125.37-127.42,125.37h-2.56L531,424.77l-60.9-1.53-165.29-3.07h-4.09A222.39,222.39,0,0,0,99.06,736.93l-1.54,1A214.77,214.77,0,0,1,122.6,458c41.45-39.92,95.69-61.41,153-60.39l174,3.07.51-36.84-174-3.07h-4.61A251.57,251.57,0,0,0,20.25,608c-1.54,82.9,24.56,156.59,73.69,206.23,53.22,53.73,130.49,81.36,230.79,81.36,67.55,0,119.75-21,154.55-61.92,28.14-32.75,44-78.81,45-129l2.05-105.93-58.85-1.53-2.05,105.93c-.51,27.12-9.21,53.73-24.56,72.67-16.38,21-39.41,32.23-65,31.72-28.15-.51-49.64-7.16-65-19.44-15.87-13.31-24.06-33.27-23.54-59.36,1-53.74,45-96.72,98.25-96.72h1.53l57.32,1,.51-36.84-57.31-1h-2.56c-73.18,0-133.57,58.85-135.1,132.54-.51,17.91,3.07,35.31,9.21,52.2l2.56,6.65-4.61-5.12a128.59,128.59,0,0,1-28.65-82.9c1-69.59,58.33-125.37,127.42-125.37h2.56l107,2,60.9,1.54,165.29,3.07h4.09c120.77,0,220-97.23,222.6-218.51a223.16,223.16,0,0,0-21-98.25l1.54-1A214.77,214.77,0,0,1,873.82,542c-41.45,39.92-95.69,61.41-153,60.39l-174-3.07-.51,36.84,174,3.07h4.61c65.5,0,132.54-25.59,183.2-70.62C961.84,521,978.73,458,979.75,392,981.29,314.75,954.17,244.13,904,193,847.73,134.62,762.78,104.43,658.38,104.43ZM696.76,543.5h-3.58l-165.29-3.07L467,538.89l-106.95-2H357c-43,0-82.9,16.37-114.12,46C211.13,613.61,193.22,654,192.7,698A160.93,160.93,0,0,0,206,765.59l3.07,7.68L204,766.61c-22-28.65-33.26-62.43-32.24-98.25,1.54-85.46,71.65-154,156.59-154h3.07l115.66,2,.51-36.85-115.65-2h-3.59c-104.9,0-191.38,84.44-193.43,189.86a192.59,192.59,0,0,0,16.89,82.9l4.09,9.21-6.14-8.19c-24.56-33.26-36.85-72.15-36.33-113.6C114.92,536.33,198.33,455,299.15,455h3.58L469,458v.51l58.85,1.53v-.51h1l107,2.05h3.07c43,0,82.9-16.38,114.11-46.06,31.73-30.7,49.64-71.13,50.15-115.14a160.8,160.8,0,0,0-13.3-67.55l-3.07-7.67,5.12,6.65c22,28.66,33.26,62.43,32.24,98.25-.52,42-17.92,80.86-48.11,110-29.68,28.14-68.06,44-108.49,44h-3.07l-115.65-2.05-.51,36.84L664,521h3.58A193.59,193.59,0,0,0,844.14,248.23L840.05,239l6.14,8.18a185.82,185.82,0,0,1,36.33,113.61C880.48,462.64,797.58,543.5,696.76,543.5Z"/></svg>