<svg xmlns="http://www.w3.org/2000/svg" width="1000" height="1000">
  <path d="M429.275 993.595c-37.543-11.651-78.97-20.713-115.217-34.953C110.81 878.378-13.47 669.952 7.244 452.464 29.252 220.736 201.43 45.97 424.096 8.426c7.768-1.294 12.946-1.294 25.892-1.294 0 45.31-1.295 90.62-1.295 139.813 0 5.179-14.24 11.651-20.713 12.946-112.628 31.07-192.891 98.387-242.085 199.364-67.317 137.225-28.48 297.751 93.21 397.433 44.015 36.248 90.62 66.024 148.875 78.97 18.124 3.883 22.008 12.945 22.008 29.774v128.163zm117.806 0V864.138c0-16.83 7.767-24.597 23.302-28.48C714.08 799.408 804.7 710.083 840.948 567.68c2.59-14.24 10.357-20.713 25.892-20.713 41.426 2.589 84.147 0 128.162 0v20.713c-2.589 9.062-6.473 16.83-6.473 23.302-40.131 213.605-181.24 356.007-393.55 397.434-9.061 1.294-19.418 2.589-25.89 5.178zm0-868.657c1.294-32.365 0-66.024 0-98.388 0-18.124 7.767-22.008 25.891-19.418 216.194 31.07 402.612 189.007 422.03 441.448H868.134c-16.829 1.295-24.596-5.178-27.186-23.302-38.837-137.224-125.573-227.844-265.387-262.798-20.713-6.473-29.775-14.24-28.48-37.542z" style="fill:#000;fill-opacity:1;fill-rule:nonzero;stroke:none;"/>
</svg>
