<?xml version="1.0" encoding="utf-8"?>
<!-- Generator: Adobe Illustrator 26.0.1, SVG Export Plug-In . SVG Version: 6.00 Build 0)  -->
<svg version="1.1" xmlns="http://www.w3.org/2000/svg" xmlns:xlink="http://www.w3.org/1999/xlink" x="0px" y="0px"
	 viewBox="0 0 1000 1000" style="enable-background:new 0 0 1000 1000;" xml:space="preserve">
<style type="text/css">
	.st0{fill-rule:evenodd;clip-rule:evenodd;}
</style>
<g id="Layer_1">
</g>
<g id="Layer_3">
</g>
<g id="Layer_2">
	<path class="st0" d="M695.1,792.7c160,0,290-128.4,292.6-287.8l0-4.8c0,269.4-218.4,487.8-487.8,487.8S12.2,769.4,12.2,500h390.2
		C402.4,661.6,533.5,792.7,695.1,792.7z"/>
	<path class="st0" d="M304.9,792.7c-160,0-290-128.4-292.6-287.8l0-4.8c0,269.4,218.4,487.8,487.8,487.8
		c269.4,0,487.8-218.4,487.8-487.8H597.6C597.6,661.6,466.5,792.7,304.9,792.7z"/>
	<path class="st0" d="M304.9,207.3c-160,0-290,128.4-292.6,287.8l0,4.8C12.2,230.6,230.6,12.2,500,12.2
		c269.4,0,487.8,218.4,487.8,487.8H597.6C597.6,338.4,466.5,207.3,304.9,207.3z"/>
	<path class="st0" d="M695.1,207.3c160,0,290,128.4,292.6,287.8l0,4.8c0-269.4-218.4-487.8-487.8-487.8S12.2,230.6,12.2,500h390.2
		C402.4,338.4,533.5,207.3,695.1,207.3z"/>
	<path d="M397.6,495.1H17.1v9.8h380.5V495.1z"/>
	<path d="M982.9,495.1H602.4v9.8h380.5C982.9,504.9,982.9,495.1,982.9,495.1z"/>
</g>
</svg>
