<svg xmlns="http://www.w3.org/2000/svg" viewBox="0 0 1000 1000"><path d="M5 500.496c0 271.98 220.55 494.507 495.496 494.507 271.98 0 494.507-220.55 494.507-495.496C995.003 227.528 773.464 5 500.496 5 226.54 5 5 225.55 5 500.496zm127.583 279.891c8.901-26.703 12.857-48.462 20.77-74.176 34.615 4.945 47.472-20.77 56.373-50.44 7.912-39.56 21.758-78.132 30.66-112.747H145.44c3.956-20.77 7.912-37.583 12.857-58.352h92.968c36.593-121.649 37.582-147.363 69.23-198.792 38.572-59.34 116.704-59.34 154.287 0 21.758 44.506 38.571 90.99 51.429 137.473 22.747 78.132 39.56 150.33 56.373 226.484 8.901 39.56 31.649 66.264 46.484 35.605 13.846-35.605 21.758-69.231 30.66-98.902 20.769-78.132 34.615-149.34 54.395-222.528 23.737-65.275 61.32-120.66 120.66-120.66H878.3c-9.89 25.715-12.858 47.473-16.814 69.231 0 4.945-9.89 7.913-12.857 7.913-17.802 0-30.66 13.846-38.571 30.659-12.858 42.528-26.704 89.011-39.56 133.517h94.944c-3.956 16.813-3.956 37.582-13.846 54.396 0 3.956-6.923 3.956-12.857 3.956h-55.385c-20.769 0-29.67 8.9-33.626 30.66-8.901 34.615-16.813 72.197-29.67 105.824-8.902 22.747-16.814 44.505-29.671 61.319-39.56 56.373-116.704 56.373-150.33 0-21.759-34.616-38.572-78.133-51.429-120.66-21.758-85.055-43.517-171.1-64.286-252.199-4.945-13.846-8.901-26.703-12.857-33.626-8.901-13.846-16.813-13.846-25.714 0-8.902 16.813-17.803 33.626-21.759 55.385-21.758 85.055-43.516 171.099-64.286 256.154-3.956 22.748-12.857 43.517-21.758 60.33-33.627 68.242-64.286 81.1-145.385 74.176z"/></svg>