<svg xmlns="http://www.w3.org/2000/svg" viewBox="0 0 1000 1000"><path d="M340,498.4a36.324,36.324,0,0,1,19.2-5.2c15,0,26.3,6.2,33.8,18.7s11.3,28.4,11.3,47.8q0,30.45-12.2,49.7c-7.8,12.5-18.9,18.8-33.3,18.8s-25.6-6.1-33.8-18.3q-12.15-18.75-12.2-49.2a101.691,101.691,0,0,1,3.3-26.7,67.994,67.994,0,0,1,9.4-21.1A45.574,45.574,0,0,1,340,498.4Zm327.7,31.4a46,46,0,0,0-16.4-9.4,57.986,57.986,0,0,0-17.8-2.8H599.3V621.2h35.6a62.317,62.317,0,0,0,19.2-2.8,45.065,45.065,0,0,0,15.5-9.4,42.388,42.388,0,0,0,10.8-15.9q4.2-9.3,4.2-22.5c0-9.7-1.6-17.8-4.7-24.4C676.8,539.3,672.8,533.8,667.7,529.8ZM647.6,473a40.662,40.662,0,0,0,24.8-22.9q4.2-9,4.2-21.6c0-8.4-1.4-15.5-4.2-21.1a38.881,38.881,0,0,0-24.7-22.1,68.106,68.106,0,0,0-17.4-2.3h-31v92.3h31.9A56.5,56.5,0,0,0,647.6,473ZM995,500c0,273.4-221.6,495-495,495S5,773.4,5,500,226.6,5,500,5,995,226.6,995,500ZM201,285.7H319.3C335.2,228,397.2,150.8,416,140H346.7ZM344.8,462.6,412.3,336H350.9L285.2,464.5A287.285,287.285,0,0,0,266,510.9a174.821,174.821,0,0,0-7,50.6c0,17.5,2.3,33.3,7,47.4,5,14.1,11.9,25.9,20.6,35.6A90.55,90.55,0,0,0,318,667a110.951,110.951,0,0,0,80.2,0,89.636,89.636,0,0,0,31.4-22.5,109.125,109.125,0,0,0,20.6-36q7.5-21.6,7.5-48.3c0-18.4-2.3-34.4-7-47.8-4.4-13.4-10.5-24.4-18.3-32.8a66.2,66.2,0,0,0-26.7-19.2,77.254,77.254,0,0,0-31.4-6.6,61.693,61.693,0,0,0-15.9,2.3,33.49,33.49,0,0,0-13.1,7ZM413.1,860c-46.7-42.7-79.4-102.4-97.4-145.7H201L348.2,860Zm71.4-145.7H343.1C376,792.8,429.5,844.1,452,860h32.5ZM486.7,140H453.5c-61.8,44.4-96.9,115.6-106.8,145.7h140Zm28.1,145.7H656.2C623.3,207.2,569.9,155.8,547.3,140H514.8ZM683.7,494.1v-.9c11.6-4.7,21.7-13,30.5-24.9s13.1-28.1,13.1-48.8c0-17.2-3-31.1-8.9-41.7-5.9-10.9-13.4-19.4-22.5-25.3a79.856,79.856,0,0,0-30-12.7A139.313,139.313,0,0,0,635,336H546.8V668h98.5a119.212,119.212,0,0,0,32.4-4.7,79.492,79.492,0,0,0,30-15.5,84.348,84.348,0,0,0,22-28.5c5.9-11.9,8.9-26.6,8.9-44.1,0-12.5-1.7-23.4-5.2-32.8A81.793,81.793,0,0,0,720.3,518a60.111,60.111,0,0,0-17.8-15.9A69,69,0,0,0,683.7,494.1Zm-31,220.2h-140V860h33.2C607.7,815.6,642.8,744.3,652.7,714.3Zm145.6,0H680C664.2,772,602.1,849.2,583.4,860h69.2Zm.1-428.6L651.1,140H586.2c46.8,42.7,79.4,102.4,97.4,145.7Z" /></svg>