<svg xmlns="http://www.w3.org/2000/svg" width="1000" height="1000">
  <path d="M5 500.496C5 225.55 226.54 5 500.496 5c272.968 0 494.507 222.528 494.507 494.507 0 274.946-222.528 495.496-494.507 495.496C225.55 995.003 5 772.475 5 500.496zm150.33 90.99c20.77-9.89 39.56-14.836 61.32-25.715-14.836 59.34-30.66 114.726-43.518 171.1h405.496c33.627 0 33.627 0 43.517-27.693l1.978-3.956c44.506 36.594 92.967 49.45 155.275 40.55 24.726-3.956 50.44-12.857 68.242-27.693 1.978-3.956 4.945-12.857 4.945-12.857-7.912-18.791-20.769-33.626-30.66-53.407-5.933 4.945-7.911 6.923-15.823 9.89-49.451 40.55-121.65 18.792-137.473-43.516-6.924-20.77-6.924-41.539-3.956-61.319 6.923-46.484 40.55-89.011 95.934-83.077 18.791 0 36.593 5.934 58.352 11.868 6.923-17.802 18.791-37.583 28.681-58.352-56.374-24.725-114.725-33.626-167.143-5.934-89.012 39.56-108.792 116.704-95.935 206.704H367.968c2.967-6.923 2.967-9.89 2.967-14.835 6.923-25.715 14.836-47.473 18.792-72.198 6.923-33.627 18.79-52.418 52.417-57.363 34.616-3.956 48.462-25.714 52.418-60.33 3.956-11.868 5.934-20.77 9.89-36.594-27.692 8.902-52.418 18.792-80.11 27.693 20.77-74.176 38.572-144.396 58.352-216.594-3.956-2.967-5.934-2.967-5.934-2.967H325.44c-9.89 0-12.857 6.923-12.857 12.857-21.758 74.176-43.516 148.352-59.34 222.528-8.902 40.55-24.726 68.242-64.286 74.176h-6.923c-1.978 2.967-8.902 5.934-8.902 9.89-5.934 23.737-11.868 49.451-17.802 77.143z" style="fill:#000;fill-opacity:1;fill-rule:nonzero;stroke:none;"/>
</svg>
