<svg xmlns="http://www.w3.org/2000/svg" width="1000" height="1000">
  <path d="M179.157 647.723c-37.32 0-70.492-33.173-70.492-70.492v-80.859h139.948v80.859c0 37.32-31.1 70.492-69.456 70.492zM5 496.373V444.54c0-29.027 23.843-52.87 51.832-52.87 30.063 0 51.833 23.843 51.833 52.87v51.832zm243.613 0V337.764c0-29.026 24.88-53.906 52.869-53.906 30.063 0 54.942 24.88 54.942 53.906v158.607zm107.811 239.465V496.372h168.974v239.466c0 46.65-37.32 86.042-85.005 86.042-45.613 0-83.969-39.393-83.969-86.042zm168.974-239.466V260.016c0-45.613 38.356-81.895 82.932-81.895 45.612 0 82.932 36.282 82.932 81.895v236.356zM691.262 686.08V496.372H797V686.08c0 29.026-22.806 53.906-51.832 53.906-30.063 0-53.906-24.88-53.906-53.906zM797 496.372V325.325c0-26.953 21.77-46.65 47.686-46.65 27.99 0 48.722 19.697 48.722 46.65v171.047H995v51.833c0 30.062-22.806 51.832-53.906 51.832-27.99 0-50.795-21.77-50.795-51.832v-51.833z" style="fill:#000;fill-opacity:1;fill-rule:nonzero;stroke:none;"/>
</svg>
