<svg xmlns="http://www.w3.org/2000/svg" viewBox="0 0 1000 1000"><path d="M500.496 5C223.572 5 5 229.506 5 500.002c0 276.43 224.506 495.001 495.002 495.001 276.43 0 495.001-224.506 495.001-495.001C995.003 226.539 773.464 5 500.496 5zM69.286 493.573c.989-240.33 202.748-432.2 434.177-430.221 242.309 0 436.156 192.858 436.156 433.188-.99 240.33-195.825 435.166-436.156 435.166-240.33 0-434.177-195.824-434.177-438.133zm112.748.99c-.99 179.01 145.385 327.363 323.407 325.385 179.012-3.956 323.408-148.352 321.43-324.397-2.967-178.023-144.396-321.43-324.397-321.43-181.978 0-321.43 152.309-320.44 320.441zm53.406-5.935c4.945-100.88 51.43-175.056 137.473-224.506 15.825-8.901 30.66-15.825 45.495-21.759 2.967 7.913 2.967 12.858 2.967 17.803v39.56c0 6.923-3.956 7.912-10.88 7.912h-79.12c-9.89 0-10.88 3.956-10.88 12.858 0 8.9.99 19.78 0 29.67 0 6.923 2.968 10.88 9.89 10.88 11.869 0 20.77 0 30.66.988 13.846.99 23.736 10.88 23.736 25.715.99 71.209.99 144.396.99 216.594 0 13.846-5.935 19.78-18.792 20.769h-28.681c-3.956 0-7.912 4.945-7.912 9.89-3.956 13.846-5.934 25.714-6.923 38.572-1.978 7.912.989 9.89 7.912 9.89h79.12c7.913 0 11.869.989 10.88 9.89v47.473c0 9.89 0 9.89-10.88 6.923-51.428-18.792-91.977-50.44-123.626-92.968-36.593-50.44-53.407-106.813-51.429-166.154zm233.408 267.034v-63.297c0-3.956 4.945-8.901 7.912-8.901 9.89.989 19.78.989 26.703.989 6.923 0 7.912 3.956 7.912 7.912v63.297c.99 6.923-.989 7.912-7.912 7.912-7.912 0-16.813-.99-26.703-.99-2.967 0-7.912-.988-7.912-6.922zm0-455.936v-60.33c0-5.934 2.967-7.912 7.912-7.912 9.89 0 18.791 0 26.703-2.967 6.923 0 7.912 3.956 7.912 9.89v60.33c0 5.934-.989 7.912-8.9 7.912H476.76c-2.967 0-7.912-1.978-7.912-6.923zm2.967 318.463v-94.946c0-5.934 0-7.912 4.945-7.912 31.648-1.978 58.352-1.978 90 2.967 7.912 4.945 15.824 6.924 23.736 10.88 28.682 17.802 29.67 58.351 1.979 79.12-14.836 9.89-31.649 11.869-47.473 14.836-21.758.989-43.517.989-65.275 1.978-5.934 0-7.912-1.978-7.912-6.923zm0-161.21v-85.055c0-5.934 1.978-8.9 7.912-8.9 21.758 1.977 44.506 1.977 66.264 5.933 9.89 1.978 17.802 6.923 25.714 10.88 25.715 18.79 21.759 57.362-4.945 73.186-17.802 6.924-34.615 11.869-54.396 11.869-10.879 1.978-21.758 0-32.637 0-5.934 0-7.912-.99-7.912-7.912zm88.022 290.77c.989-18.79 0-36.593 0-55.384 0-3.956 1.978-8.901 9.89-9.89 20.77-.99 38.572-4.945 59.341-10.88 28.681-4.944 56.374-19.78 70.22-51.428 12.857-26.704 14.835-57.363 5.934-88.022-5.934-27.693-26.703-42.528-53.407-51.43-4.945-.988-7.912-1.977-11.868-2.966 1.978-4.945 4.945-5.934 6.923-7.912 21.759-12.857 31.649-33.627 32.638-60.33 2.967-26.704-2.967-52.418-27.693-73.187-17.802-11.868-39.56-18.792-60.33-23.737-8.9 0-15.824-.989-23.736-.989-6.923-3.956-7.912-6.923-7.912-11.868V245.33c0-6.923.989-10.879 9.89-6.923 56.374 14.836 103.847 44.506 140.44 90 36.594 47.473 57.363 98.902 60.33 158.243 1.978 72.198-21.758 133.517-70.22 189.89-34.615 38.572-79.121 65.276-130.55 79.122-7.912.989-9.89 0-9.89-7.912z"/></svg>