<svg xmlns="http://www.w3.org/2000/svg" width="1000" height="1000">
  <path d="M993.555 499.278c0-148.862 1.445-299.168 1.445-442.249 0-36.131-13.007-50.584-47.693-50.584H54.139C18.007 6.445 5 20.898 5 57.03v887.387c0 37.577 13.007 49.139 49.139 49.139h887.387c40.467 0 53.474-11.562 53.474-53.475-1.445-143.08-1.445-293.386-1.445-440.802zm-737.08-141.636c0-30.35 13.007-43.357 44.803-43.357 31.795 0 50.583 7.226 50.583 43.357v271.709c0 36.13 8.672 53.474 49.14 53.474 40.466 0 53.474-17.343 53.474-53.474V268.037c0-26.015 8.671-40.468 40.467-40.468h171.985c39.022 0 70.818 30.35 70.818 72.263 0 50.584-7.227 99.723-7.227 153.197 0 36.132 5.781 72.263 7.227 108.395 4.335 99.722-26.015 131.518-119.957 121.401h-27.46c-26.014 0-41.912 10.117-49.138 36.131-14.453 31.796-36.131 53.475-78.044 53.475H337.41c-49.139 0-76.599-31.796-76.599-79.49-4.335-108.393 0-221.123-4.335-335.299zm289.05 189.329c-4.335 37.577 13.008 50.584 49.14 50.584 31.795 0 53.474-10.117 53.474-50.584 0-39.022-21.679-47.693-57.81-44.803-36.132-2.89-44.803 10.117-44.803 44.803zm0-183.547c0 40.467 13.008 50.583 49.14 44.802 36.13 5.781 53.474-8.671 53.474-44.802 0-41.913-21.679-44.803-53.475-44.803-36.131 0-53.474 8.671-49.138 44.803z" style="fill:#000;fill-opacity:1;fill-rule:nonzero;stroke:none;"/>
</svg>
