<svg xmlns="http://www.w3.org/2000/svg" width="1000" height="1000">
  <path d="M500.496 995.003c275.935 0 494.507-224.506 494.507-495.496C995.003 226.54 773.464 5 500.496 5 223.572 5 5 229.506 5 499.507c0 276.924 224.506 495.496 495.496 495.496zM241.374 502.474v-260.11c0-37.583 23.737-70.22 55.385-83.078 8.901-2.967 19.78-5.934 29.67-5.934 63.298 0 128.573-.989 193.847 0 43.517.99 85.056 15.824 122.638 42.528 31.649 22.747 55.385 53.407 70.22 89.011 17.802 38.572 23.737 78.132 17.802 120.66-.989.989-.989 1.978-.989 3.956-1.978 0-1.978 0-1.978 2.967-4.945-2.967-9.89-2.967-14.835-5.934-25.714-10.88-54.396-15.824-82.088-15.824H449.067c-39.56 0-67.253 18.79-83.077 55.384-3.956 9.89-5.934 19.78-5.934 31.649v115.714h165.166c13.846 0 27.692-4.945 42.527-8.9h3.956c26.704-5.935 49.45-17.803 71.21-33.627 34.615-26.704 61.318-60.33 75.164-100.88 4.945-10.879 6.923-22.747 11.868-35.604 2.968.989 6.924 2.967 10.88 4.945 47.472 28.681 81.099 68.242 97.912 118.682 10.88 29.67 14.835 59.34 10.88 89.011-2.968 41.539-14.836 77.143-37.583 108.792-24.726 34.615-55.385 59.34-91.979 75.165-25.714 12.857-52.417 18.79-81.099 18.79-65.275.99-129.56.99-194.836 0-38.571 0-72.198-29.67-79.12-62.307-2.968-9.89-4.946-18.791-4.946-26.703V593.463H326.43c-39.56 0-74.176-29.67-82.089-63.296-.989-8.902-2.967-17.803-2.967-27.693z" style="fill:#000;fill-opacity:1;fill-rule:nonzero;stroke:none;"/>
</svg>
