<svg xmlns="http://www.w3.org/2000/svg" viewBox="0 0 1000 1000"><path d="M500.496 5C223.572 5 5 229.506 5 500.002c0 276.43 224.506 495.001 495.002 495.001 276.43 0 495.001-224.506 495.001-495.001C995.003 226.539 773.464 5 500.496 5zM317.53 764.563V261.155c0-38.572 29.67-68.242 68.242-68.242h263.077c39.56 0 69.231 29.67 69.231 68.242v109.78c0 3.956-1.978 6.923-5.934 6.923-43.516 3.956-76.154 24.726-97.912 61.32-31.649 49.45-26.704 111.758 8.9 157.253 23.737 28.68 53.408 44.505 90.001 47.472 2.967 0 4.945 2.967 4.945 6.923v115.715c0 33.626-31.648 65.275-65.275 65.275h-270.99c-34.615 0-64.285-31.649-64.285-67.253zm68.242-112.748c0 3.956.989 4.945 4.945 4.945h19.78c6.923 0 6.923 0 6.923-5.934v-110.77c0-6.922 2.967-10.878 9.89-15.824 0 1.979.99 1.979 1.978 2.968l62.308 71.209c16.813 16.813 32.638 36.593 49.45 54.395 1.979 2.967 4.946 3.956 6.924 3.956h39.56c-47.472-51.428-91.978-102.857-138.462-153.297 43.517-45.494 88.023-90 132.528-134.506h-31.648c-6.923 0-11.868.99-16.813 5.934-36.594 37.583-74.176 75.165-109.781 112.748-2.967.989-2.967.989-4.945 3.956 0-.989 0-.989-.989-.989V374.891c0-5.934 0-5.934-6.923-5.934h-16.813c-7.912 0-7.912 0-7.912 5.934v273.957z"/></svg>