<svg xmlns="http://www.w3.org/2000/svg" viewBox="0 0 1000 1000"><path d="M500.496 5C223.572 5 5 229.506 5 500.002c0 276.43 224.506 495.001 495.002 495.001 276.43 0 495.001-224.506 495.001-495.001C995.003 226.539 773.464 5 500.496 5zM97.967 506.43c-7.912-7.912-7.912-10.879 0-19.78C226.54 359.067 357.09 227.528 486.65 97.967c3.956-2.967 5.934-5.934 8.901-5.934 6.923.99 157.253 154.286 278.902 275.935 39.56 38.572 79.121 82.088 120.66 119.671 5.934 7.912 5.934 11.868 0 18.791-128.572 131.54-260.11 261.1-391.65 390.66-5.934 6.924-8.9 6.924-16.813 0C357.09 767.53 226.54 635.003 97.967 506.43zm113.737-10.879c92.967 1.978 34.615.99 161.21.99 3.955 0 5.933-.99 10.878-3.957 35.605-34.615 69.231-69.231 102.858-102.857 8.901-8.902 8.901-8.902 18.791 0 32.638 30.659 65.275 65.274 97.913 96.923 7.912 8.901 11.868 9.89 21.758 9.89h146.374c9.89 0 8.901-1.978 0-10.88L507.42 221.595c-11.868-12.857-9.89-12.857-23.736 0-241.32 241.32-270.001 266.045-271.979 273.957z"/></svg>