<svg xmlns="http://www.w3.org/2000/svg" viewBox="0 0 1000 1000"><path d="M261.805 98.045H161.316c0-6.203 58.308-91.804 60.79-91.804h158.796C534.736 6.24 686.09 5 834.962 5h11.165c-2.482 7.444-32.256 52.105-54.587 85.601-1.24 3.722-4.962 4.963-13.646 4.963H617.856c21.09 33.496 40.94 64.51 48.384 104.21h179.887c-2.482 4.962-37.218 58.308-54.587 83.12-4.962 7.444-7.443 9.925-13.646 9.925L669.962 295.3c-3.722 34.737-13.647 65.752-33.497 96.767-39.699 64.51-98.007 102.97-168.72 125.3-26.053 7.444-101.73 21.09-120.339 21.09 23.571 29.775 45.902 57.068 69.474 85.601 91.804 116.617 183.608 230.752 276.653 348.609 2.481 3.721 12.406 13.646 17.368 21.09H687.33c-40.94 0-80.639 0-119.097 1.24-9.925 0-9.925 0-17.369-8.684C435.49 846.126 315.151 704.697 196.054 563.27c-2.482-3.722-3.723-6.203-3.723-7.443v-85.602c28.534 0 57.068 2.482 88.083 0 59.548 0 117.857-11.165 168.721-43.42 53.346-28.534 79.398-73.196 79.398-133.985h-374.66c22.33-31.015 63.27-93.045 65.751-93.045H522.33c-54.586-80.639-93.044-101.73-260.525-101.73z"
    style="fill:#000;fill-opacity:1;fill-rule:nonzero;stroke:none"/></svg>