<svg xmlns="http://www.w3.org/2000/svg" width="1000" height="1000">
  <path d="M5 500.496c0 89.011 22.747 172.089 67.253 249.232 44.506 74.176 103.846 133.517 178.023 178.022 77.143 44.506 160.22 67.253 250.22 67.253 89.011 0 172.089-22.747 249.232-67.253 74.176-44.505 133.517-103.846 178.022-178.022 44.506-77.143 67.253-160.22 67.253-250.22 0-89.012-22.747-172.09-67.253-249.232-44.505-74.177-103.846-133.517-178.022-178.023C672.585 27.747 589.508 5 500.496 5c-90 0-173.077 22.747-250.22 67.253-74.177 44.506-133.517 103.846-178.023 178.023C27.747 327.419 5 410.496 5 500.496zm269.012-109.78c-10.88-8.902-10.88-15.825 0-26.704l223.517-223.517c10.88-10.88 12.857-10.88 23.736 0 75.166 76.154 148.353 148.352 219.562 220.55 13.846 13.846 13.846 20.77 0 29.67-34.616 34.616-68.242 69.232-109.78 109.781 16.812 14.835 33.626 28.682 48.46 42.528 23.737 23.736 44.506 43.516 68.243 69.23 6.923 5.935 6.923 9.89 0 20.77-78.132 75.165-155.275 154.286-233.408 229.451 0 1.978-3.956 1.978-5.934 6.923-4.945-4.945-7.912-6.923-14.835-13.846L276.98 638.958c-17.802-16.813-17.802-16.813 0-34.615 33.626-33.627 68.242-68.242 106.813-103.847-7.912-5.934-9.89-12.857-17.802-15.824-30.66-31.649-61.319-65.275-91.978-93.956zM385.77 498.518l119.67 123.627 122.638-119.67-118.682-123.628z" style="fill:#000;fill-opacity:1;fill-rule:nonzero;stroke:none;"/>
</svg>
