<?xml version="1.0" encoding="utf-8"?>
<!-- Generator: Adobe Illustrator 26.0.1, SVG Export Plug-In . SVG Version: 6.00 Build 0)  -->
<svg version="1.1" id="Layer_1" xmlns="http://www.w3.org/2000/svg" xmlns:xlink="http://www.w3.org/1999/xlink" x="0px" y="0px"
	 viewBox="0 0 1000 1000" style="enable-background:new 0 0 1000 1000;" xml:space="preserve">
<style type="text/css">
	.st0{fill:#FFFFFF;}
</style>
<rect class="st0" width="32" height="32"/>
<g>
	<path d="M341,439.8c3.2,0.9,6.3,1.8,9.5,2.7c0.4-1,0.8-1.9,1.1-2.9c-2.6-1.2-5.1-2.7-7.9-3.4C343.2,436.1,341.9,438.6,341,439.8z"
		/>
	<path d="M363.9,435.5c-1.5-1.6-2.8-3.5-4.5-5.7c0,3.6,0,6.9,0,8.9c3.2,1.4,5.8,2.5,8.3,3.6c0.5-0.7,0.9-1.4,1.4-2.2
		C367.4,438.6,365.5,437.2,363.9,435.5z"/>
	<path d="M384.7,457.5c-15.7,3.6-15.7,3.6-15.8,4.1c4.6,0.3,9.6,0.7,15.2,1.1C384.2,461.6,384.4,459.6,384.7,457.5z"/>
	<path d="M344.3,459.1c-0.5-0.4-1-0.7-1.5-1.1c-0.4-1.9-0.8-3.8-1.3-5.7c-0.9,0.1-1.9,0.2-2.8,0.3c0.6,3.5,1,7.1,2.2,10.4
		c0.2,0.5,5.1,0.4,6.1-0.8c1.3-1.5,0.7-4.4,1-6.8c-0.6-0.1-1.2-0.2-1.8-0.3C345.6,456.4,344.9,457.8,344.3,459.1z"/>
	<path d="M621.9,459.1c-5.9,1.5-10.2,0.4-12.6-6.2c0,3,0,6,0,8.6c4.4,0,8.3,0,12.3,0C621.6,460.7,621.7,459.9,621.9,459.1z"/>
	<path d="M326.3,435.6c-2.5-0.2-5.1,0-7.5,0.7c-1.8,0.6-3.2,2.3-4.6,3.3c5.3,2.5,9.4,4.4,14.1,6.5c0.1-0.2,1.3-1.8,2.1-3.6
		c0.7-1.5,1.8-4,1.1-4.8C330.4,436.5,328.1,435.8,326.3,435.6z"/>
	<path d="M378.2,435c-0.6-2.2-1.2-4.1-1.7-6c-0.5,0-1.1-0.1-1.6-0.1c-0.7,2-1.7,4-2,6.1c-0.3,1.9-0.4,5.2,0.3,5.5
		c2,0.8,4.5,0.4,6.7,0.3c1.6-0.1,3.3-0.5,4.9-0.5c1.9,0,3.8,0.2,5.6,0.4c0.2-0.7,0.4-1.3,0.5-2c-1.9-0.8-3.6-1.9-5.6-2.4
		C383.1,435.7,380.6,435.5,378.2,435z"/>
	<path d="M381,485.8c0.9,0.6,3.7-1.9,4.8-2.5c-3.9-1.6-7.5-3.1-11-4.6C372.4,483.3,378.2,483.9,381,485.8z"/>
	<path d="M207.7,458.7c-6.8,3-10-0.6-12.8-5.8c0,2.9,0,5.8,0,9.1c4.3-0.2,8.4-0.4,12.4-0.6C207.4,460.5,207.5,459.6,207.7,458.7z"/>
	<path d="M218.4,462.5c7.3,0,14.5,0,21.8,0c0-0.9,0.1-1.8,0.1-2.6c-7.2-0.3-14.4-0.7-21.7-1C218.6,460.1,218.5,461.3,218.4,462.5z"
		/>
	<path d="M221.3,596.3c6.3,0.7,11.2,1.3,16.2,1.9c0.1-0.5,0.3-1,0.4-1.4c-4.4-1.4-8.8-3-13.4-4.1C224,592.4,222.9,594.5,221.3,596.3
		z"/>
	<path d="M325.4,463.9c-5.3-2.3-8.8-5-12.3-5c-5.6,0.1-10-0.4-12.7-6.3c0,3.1,0,6.1,0,9.7c4.6,0,9.2,0,15.1,0
		c5.3,6,7.2,6.1,14.5-1.4c-2.7-0.9-5.1-1.7-9.4-3C322.9,460.5,323.6,461.5,325.4,463.9z"/>
	<path d="M606,597c7.1,0.3,14.3,0.6,21.4,0.9c0.1-0.7,0.1-1.4,0.2-2.2c-7,0-14,0-20.9,0C606.4,596.2,606.2,596.6,606,597z"/>
	<path d="M282.4,589.5c-0.6,7.8,4.1,9.7,14.8,6.3C292.5,592.5,284.5,598.8,282.4,589.5z"/>
	<path d="M290.3,458.3c-6.4,0.6-12.8,1.2-19.2,1.8c0.1,0.8,0.3,1.7,0.4,2.5C278.3,464.2,284.9,465,290.3,458.3z"/>
	<path d="M251.3,458.5c-2.7,0.4-4.9,0.7-7.2,1c-0.2,0.5-0.4,1-0.7,1.5c1.6,1,3.2,2.9,4.8,2.8c4.6,0,9.3-0.8,14.1-1.3
		c-2.5-3.2-5.4-6.8-8.7-10.9C252.8,454.2,252,456.4,251.3,458.5z"/>
	<path d="M191.7,597c7.1,0.3,14.2,0.6,21.4,1c0.1-0.7,0.1-1.5,0.2-2.2c-7,0-14,0-21,0C192,596.1,191.9,596.5,191.7,597z"/>
	<path d="M773.6,430.1c0,3.4,0,6.7,0,8.7c3.4,1.4,5.9,2.4,8.5,3.5c0.4-0.6,0.8-1.1,1.2-1.7C780.1,437.3,777,433.8,773.6,430.1z"/>
	<path d="M755.2,439.1c3.1,1.2,6.2,2.5,9.4,3.7c0.5-1.1,0.9-2.1,1.4-3.2c-2.6-1.2-5.1-2.7-7.9-3.5
		C757.4,436,756.1,438.1,755.2,439.1z"/>
	<path d="M757.3,458.3c-0.7-2.5-1.3-4.3-1.8-6.2c-0.8,0.1-1.5,0.2-2.3,0.3c0.5,3.4,0.7,7,1.8,10.2c0.2,0.6,5,0.8,6.1-0.4
		c1.4-1.5,1-4.5,1.5-6.8c-0.5-0.1-1-0.2-1.6-0.3C759.8,456.2,758.7,457.2,757.3,458.3z"/>
	<path d="M799,457.5c-3.9,0.6-7.1,0.8-10.2,1.6c-2.3,0.5-4.4,1.7-6.5,2.5c5.7,0.4,10.8,0.7,16.2,1
		C798.6,461.6,798.7,459.8,799,457.5z"/>
	<path d="M500.5,5C223.6,5,5,229.5,5,499.5C5,773.5,226.5,995,499.5,995C776.4,995,995,770.5,995,499.5C995,223.6,770.5,5,500.5,5z
		 M157,621.6c-10.5,4-20.9,8.1-31.4,11.8c-1.1,0.4-3.4-1.1-4.4-2.3C97.6,603,82.3,571,77.4,534.6c-7.4-54.9,6.3-103.8,42.2-146.4
		c3-3.6,5.3-4.8,9.9-2.7c8.9,4,18.2,7.1,27.6,10.8C102.7,471.5,105.1,546.1,157,621.6z M413.4,611.3c-0.8,2.2-5.5,4-8.4,4
		c-29.6,0.3-59.2,0.4-88.8,0.3c-24.4,0-48.8-0.1-73.1-0.6c-22.5-0.5-45-1.7-67.5-2.4c-6.2-0.2-7.1-3.4-4-7.6
		c4.7-6.3,4.5-13.4,5.3-20.6c4.7-43.6,5.7-87.4,4.7-131.3c-0.2-7.5-0.7-14.9-1.1-23.4c7.5,1.9,0.4,15.4,11.1,11.7
		c4.3-1.5,11.5,3.6,12.7-5.6c-1.9,0-4,0.4-5.8-0.1c-1.8-0.5-3.2-2-4.8-3.1c1.5-1.3,2.8-3.2,4.5-3.7c14.8-4.4,16.1-4.2,33.4,4
		c-2.4,1.8-4.7,3.4-6.3,4.6c-2.1-0.6-4-1.3-5.9-1.7c-0.2,0-1.2,1.9-1,2.2c1.2,1.5,2.7,3.8,4.2,4c5.2,0.5,10.5,0.2,15.7,0.2
		c-0.3-3.4-0.5-6.3-0.8-9.1c0.7-0.1,1.4-0.2,2.1-0.2c0.6,2.9,1.2,5.8,1.8,8.7c0.6,0,1.2-0.1,1.7-0.1c0.5-2.8,1-5.6,1.5-8.9
		c2.7,0,5.3,0,8.6,0c-7.6,4.7-8.5,7.5-5.1,15.4c4.8-7.8,5.9-7.8,13.5-1.6c1.2,1,4,0.7,5.7,0.1c2.1-0.8,4-2.5,5.5-4.2
		c1.2-1.3,1.8-3.2,2.6-4.8c-1.9-0.9-3.7-2.4-5.8-2.7c-2-0.3-4.1,0.6-8.6,1.3c5.2-5.8,9.1-10.4,13.4-14.6c0.5-0.4,5.1,1.8,5.1,2.9
		c0.2,3.8-1,7.7-1.3,11.6c-0.1,1.9,0.6,3.8,0.9,5.7c1.6-0.3,3.9-1.4,4.8-0.7c2.9,2.3,5.4-2.4,9,0.5c3.4,2.6,9.2-1.2,14,0.2
		c0.5,0.1,1.9-1.9,2.5-3.1c2.5-4.6,4.5-9.6,7.5-13.8c1.5-2.2,4.6-4.2,7.2-4.5c5.8-0.7,12.4,1.4,17.4-0.8c5-2.2,9.2-1.6,13.9-1.2
		c2,0.2,3.9,1,6.6,1.8c-0.8-2-1.4-3.7-2.3-6.1c15.7-1.1,30.9-2.2,46.8-3.3c0,4.1,0.3,8,0,11.9c-3.8,45.8-3.3,91.7-0.8,137.6
		c0.5,8.4,1.2,16.8,2.4,25.2c0.3,1.8,2.7,3.4,4.2,5c1.3,1.3,3.9,2.7,3.8,3.8C415.9,599.9,415.4,605.9,413.4,611.3z M410,382.1
		c-1.4-0.1-2.8,0-4.2,0c0-0.3,0-0.7,0-1c-47.1-0.8-94.1-1.9-141.2-2.1c-22-0.1-44,1.5-66,2.4c-6.3,0.2-12.6,0.4-18.9,0.6
		c-3.7,0.1-7-0.7-6.6-5.2c0.4-4.2-2.2-10.8,4.5-11.6c10.3-1.2,20.9-0.8,31.3-1.2c4.8-0.2,9.6-0.3,14.4-0.6c2.8-0.2,5.6-1.1,8.3-1
		c37,1.3,74,2.6,111.1,4.1c22.5,0.9,44.9,2.3,67.4,3.4c3.8,0.2,7.1,0.7,7,5.7C417,380.3,414.6,382.3,410,382.1z M490.5,595.8
		c-0.5,22-12,35.3-36.4,42.2c-3-5.8-6-11.7-9.5-18.4c10.1-4.7,20.9-8.7,18.8-23.6c-6.9,0-13.4,0-20.8,0c0-14.3-0.1-28.1,0.2-41.8
		c0-1.2,2.5-3.4,3.9-3.5c14.3-0.3,28.5-0.2,43.9-0.2c0,5,0,9.4,0,13.7C490.6,574.7,490.8,585.2,490.5,595.8z M830.5,596.7
		c-0.4,1.6-0.9,3.2-1.2,4.8c-2.6,14.1-2.6,14.1-16.9,14.1c-39,0-78,0.5-116.9,0c-34.9-0.4-69.8-1.9-104.7-2.9
		c-7.1-0.2-8.6-2.3-4.7-8c4.2-6.1,4.2-12.5,5-19.3c4.7-43.4,5.8-86.9,4.8-130.5c-0.1-3.7-0.7-7.5-0.7-11.2c0-2.3,0.8-4.6,1.2-6.7
		c3.2,2.1,5.8,5.3,7.9,4.9c2.6-0.4,4.4-1.6,7.4-0.1c1.4,0.7,5-2.7,7.6-4.2c-0.2-0.6-0.4-1.1-0.6-1.7c-2.1,0-4.4,0.4-6.4-0.1
		c-1.6-0.4-2.9-1.8-4.4-2.8c1.2-1.3,2.1-3.1,3.6-3.7c11.9-4.8,23.2-3.4,34.1,4.1c-2.3,1.5-4.5,3-6.5,4.4c-1.5-0.7-3.5-1.7-5.9-2.8
		c0,7.9,4.6,9.3,19.3,6.9c-0.3-2.9-0.6-5.8-0.9-8.6c0.7-0.1,1.5-0.2,2.2-0.3c0.6,2.9,1.2,5.8,1.8,8.7c0.6,0,1.1,0,1.7,0
		c0.5-2.8,1.1-5.6,1.8-9.2c2.4-0.1,5-0.2,8.1-0.4c-2.4,2.8-5.1,4.7-6,7.3c-0.9,2.5,0.1,5.7,0.3,8.9c2.9-2.5,5.1-5.7,7.4-5.8
		c2.4-0.1,5.1,4.4,7.4,4.1c4.2-0.5,8.2-2.9,12-4.9c1-0.5,1.9-2.8,1.6-3.9c-0.4-1.3-2-2.5-3.3-3c-1.2-0.5-2.8-0.1-4.2,0.1
		c-1.5,0.2-3,0.7-6.6,1.5c4.9-5.8,8.4-10.4,12.4-14.3c2.6-2.6,5.8-1.5,6.1,2.2c0.3,3.8-0.9,7.7-1.2,11.6c-0.1,1.9,0,4.1,0.8,5.7
		c0.3,0.5,3.1-0.2,4.8-0.4l8.5,0.7c1.3,0.2,3,1,4,0.5c2.6-1.4,5-2.5,7.5,0.1c2.2-2.2,5.7-4.2,6.2-6.7c1.7-8.1,9.1-15.2,17.2-15.7
		c7.6-0.4,15.2-1.8,22.8-2.1c3.8-0.2,7.6,1,11.7,1.6c-0.7-1.6-1.4-3.2-2.4-5.5c15.7-1.1,30.9-2.2,46.9-3.3c0,4.2,0.3,8.3,0,12.3
		c-3.9,45.9-3.3,91.7-0.7,137.6c0.5,8.2,1.2,16.4,2.4,24.5c0.3,1.9,2.4,4.7,4.1,5C831.1,591,831.4,593.3,830.5,596.7z M825.1,382
		c-8.9-0.4-17.8-1.2-26.7-1.3c-34-0.2-67.9-0.1-101.9-0.1c0-0.4,0-0.8,0-1.3c-21.6,0-43.1-0.2-64.7,0.1c-11,0.2-21.9,1.5-32.8,1.9
		c-4.3,0.2-10.5,3.3-11.7-4.7c-1.2-8.9,0.7-12.1,9.4-12.6c9.7-0.5,19.5,0.2,29.2,0.4c2.3,0,4.8,0.5,7,0.1c28-5.2,56-1.4,84-0.4
		c20.9,0.7,41.7,1.8,62.5,2.9c15.2,0.8,30.4,1.8,45.6,2.7c3.7,0.2,6.5,1.1,6.4,5.6C831.3,379.6,829.6,382.2,825.1,382z M870.7,632.3
		c-9-3.9-18.2-7.2-27.5-10.8c52-75.3,54.4-150-0.1-225.3c10.4-4,20.6-8.1,30.9-11.7c1.3-0.4,3.9,1,5,2.3
		c24.3,27.9,39.9,59.7,44.2,96.7c6.4,54.6-8,103.1-42.6,145.9C877.6,633.1,875.2,634.3,870.7,632.3z"/>
	<path d="M740.5,435.6c-2.5-0.2-5.1,0-7.5,0.7c-1.8,0.6-3.2,2.3-4.5,3.3c5.3,2.5,9.4,4.4,14,6.6c0.2-0.3,1.4-1.9,2.1-3.7
		c0.7-1.5,1.7-4,1.1-4.8C744.6,436.5,742.4,435.8,740.5,435.6z"/>
	<path d="M795.1,485.7c0.6,0.5,3.9-1.8,5.1-2.4c-3.9-1.6-7.3-2.9-11.3-4.5C786.5,483.5,792.8,483.5,795.1,485.7z"/>
	<path d="M789.9,426.9c-1.4,4-2.3,6-2.6,8.1c-0.3,1.9-0.7,4.8,0.2,5.5c1.5,1.1,5.6,1.6,6,0.9c2.3-3.7,4.3-1.8,6.8-0.7
		c1.3,0.5,3.1-0.2,4.7-0.3c0.1-0.8,0.2-1.6,0.3-2.4c-4.2-1-8.5-2.1-12.8-3.2C791.9,432.9,791.2,430.9,789.9,426.9z"/>
	<path d="M696.3,588.4c0.1,9,6.9,11.2,14.9,6.9C706.4,593,699.1,598.5,696.3,588.4z"/>
	<path d="M632.7,462.5c7.3,0,14.5,0,21.8,0c0-0.8,0-1.5,0.1-2.3c-7.3,0-14.5,0-21.8,0C632.7,461,632.7,461.8,632.7,462.5z"/>
	<path d="M657.9,461c2.7,1.7,5.3,2.5,7.9,2.5c3.3,0,6.6-0.6,10.7-1c-2.5-3.2-5.4-6.9-9.4-12C668,458.9,662.8,459.2,657.9,461z"/>
	<path d="M738.4,462.9c-0.4,0.6-0.9,1.2-1.3,1.8c-4.1-10.7-18.4,0-22.4-12c0,3.1,0,6.2,0,10.4c4.9-0.2,9.5-0.5,15.3-0.7
		c5,5.8,6.8,5.9,15.1-1.3c-3.5-1-5.8-1.7-9.3-2.8C737.1,460.7,737.7,461.8,738.4,462.9z"/>
	<path d="M704.9,458.3c-6.8,0.6-13.1,1.2-19.5,1.8C695.9,465.7,700.5,465,704.9,458.3z"/>
	<path d="M635.7,596.3c6.2,0.7,11.2,1.3,16.1,1.9c0.1-0.5,0.2-1,0.4-1.5c-4.5-1.4-8.9-3-13.4-4.1
		C638.2,592.5,637.1,594.5,635.7,596.3z"/>
</g>
</svg>
