<svg xmlns="http://www.w3.org/2000/svg" viewBox="0 0 1000 1000"><path d="M377.34 628.659c-4.36 122.115-8.722 244.23-11.993 366.345h2.18C477.65 845.63 588.862 694.077 698.984 542.524c-43.613 2.18-86.135 3.27-128.657 7.632 35.98-100.309 75.231-195.166 114.483-295.474-5.452 2.18-6.542 2.18-9.813 2.18-16.355 1.09-34.89 4.361-51.245 6.542-34.89 4.361-70.87 9.813-109.031 15.264-34.89 4.362-69.78 8.723-104.67 15.265-25.077 2.18-47.974 5.451-70.87 8.722-5.452 0-7.633 3.271-7.633 4.362-2.18 6.541-2.18 10.903-2.18 17.445-2.18 30.528-5.452 57.786-7.632 86.134-3.271 30.529-4.362 59.967-9.813 89.406-2.18 29.438-5.452 59.967-7.632 88.315-2.181 13.084-2.181 26.168-3.271 40.342zm-43.612-23.987c0-17.445 4.361-34.89 5.452-50.155 2.18-30.528 5.451-61.057 8.722-89.405 2.18-32.71 5.452-61.058 8.723-91.586 1.09-17.445 4.36-35.98 5.451-54.516 0-6.542 5.452-11.993 10.903-9.813 9.813 0 14.174 4.361 11.994 11.994-5.452 45.793-7.632 94.857-13.084 140.65-3.27 37.07-5.452 76.322-8.722 112.302v7.632h68.69v5.452c0 45.793-2.181 92.676-3.272 139.56v10.903c-1.09 7.632-6.542 11.993-14.174 11.993s-13.084-4.36-13.084-13.083V604.672zm0-332.545c0 1.09 4.361 1.09 4.361 2.18 112.302-11.993 223.514-25.077 336.907-38.16v-1.091c-5.452-4.361-13.084-7.632-18.535-8.723-45.794-20.716-94.858-41.431-141.741-58.876-3.271 0-4.361-5.452-4.361-6.542-1.09-10.903-1.09-22.897-1.09-32.71-3.272-32.71-13.084-59.967-34.89-83.954C456.932 23.535 435.126 11.541 411.14 5c-4.361 13.084-7.632 26.167-10.903 39.251 31.62 11.994 50.155 34.89 56.696 66.51 5.452 17.444 5.452 33.799 7.633 51.244 0 5.452-3.271 7.632-7.633 10.903-38.16 31.62-77.412 63.238-115.573 94.857-1.09 3.271-3.27 3.271-7.632 4.362zm66.51 593.13v-86.135c0-7.632 6.541-11.994 11.993-11.994 8.722 0 13.083 5.452 13.083 11.994v83.954c0 9.813-4.36 14.174-10.903 14.174-7.632 0-14.174-4.361-14.174-11.994z"/></svg>