<svg xmlns="http://www.w3.org/2000/svg" width="1000" height="1000">
  <path d="M583.579 446.004c37.693-52.77 69.103-94.232 95.488-136.95 41.462-69.103 36.436-135.693-6.282-206.053C636.349 36.41 573.528 5 500.655 5c-82.924 0-147.001 36.436-182.18 110.565-41.463 76.642-31.411 152.027 15.076 218.617 47.744 69.104 99.257 131.925 147.001 193.49 47.744 64.077 92.976 126.898 135.694 188.463 42.718 59.052 30.154 135.693-21.36 178.412-52.769 46.487-129.41 46.487-182.18 5.025-59.052-47.744-69.104-120.616-31.41-175.899 13.82-33.923 36.435-54.026 51.512-79.154 26.385-32.667 26.385-42.719-5.025-70.36-10.052-8.795-15.077-8.795-26.385 0-25.129 37.693-57.796 74.129-77.898 115.59-72.873 115.592-5.026 246.26 94.231 288.978 94.232 36.436 188.464 10.051 245.003-62.821 57.795-79.155 57.795-173.386-3.77-252.541-89.206-118.104-178.412-239.977-267.617-359.337-47.744-64.077-41.462-140.719 10.05-192.232C459.194 57.77 537.092 57.77 589.862 103c62.821 47.744 69.103 126.898 26.385 196.002-21.36 26.385-42.718 46.487-56.539 71.616-7.539 10.051-7.539 27.641-7.539 32.667 7.539 15.077 17.59 25.128 31.411 42.718z" style="fill:#000;fill-opacity:1;fill-rule:nonzero;stroke:none;"/>
</svg>
