<svg xmlns="http://www.w3.org/2000/svg" width="1000" height="1000">
  <path d="M585.273 987.277c103.403-17.428 191.703-63.901 266.06-139.42 142.906-141.745 183.57-362.494 102.242-546.064C850.17 69.426 593.405-47.919 349.42 28.762c-9.295 2.323-12.78 6.97-12.78 17.427v458.926c0 13.942 1.162 26.722 3.485 39.502 17.428 90.623 108.05 149.877 199.836 127.802 88.3-20.913 145.23-117.345 118.507-203.321-22.075-73.196-82.49-118.508-159.171-119.67h-69.71c-8.133 1.162-11.619-2.323-11.619-10.456 1.162-12.78 0-24.399 1.162-36.017 0-3.485 4.647-9.295 6.971-9.295 37.179 0 74.358-3.485 109.213 2.324 95.27 12.78 166.142 84.814 183.57 178.923C742.12 596.9 653.82 717.73 530.666 732.835 395.893 750.262 279.71 646.859 279.71 510.924V60.13c-1.162-1.161-2.324-2.323-4.648-2.323-22.075 13.942-45.311 29.046-68.548 44.15-10.457 5.809-12.78 13.941-12.78 24.398 1.162 127.802 0 256.766 1.162 384.568 0 24.398 2.323 48.797 8.132 73.196 37.18 161.495 198.674 263.736 361.332 230.043 202.16-42.988 305.562-270.708 203.32-450.792-53.444-92.947-134.772-145.23-241.661-154.525-31.37-2.323-61.577-2.323-91.785-2.323-13.942 1.162-17.428-3.486-16.266-16.266 1.162-9.295 1.162-19.751 0-29.046 0-9.295 2.324-11.618 11.619-11.618h54.606c45.311-1.162 89.461 4.647 133.611 18.59 180.085 60.415 284.65 255.603 234.691 439.173-56.93 209.13-280.003 322.99-482.162 245.148C229.75 799.059 139.127 666.61 136.803 521.38c-1.161-106.889 0-213.778 0-321.828v-31.37c-1.161 0-1.161-1.162-2.323-1.162-3.485 3.486-6.97 6.971-9.295 10.457C-9.588 334.325-33.986 556.235 67.094 739.806c102.241 184.732 306.724 283.488 518.179 247.47zM417.968 509.762v-32.531c0-12.78 1.162-26.723 0-39.503 0-8.133 3.486-11.618 11.619-10.456 25.56 0 51.12-1.162 76.68 0 44.15 2.323 79.006 39.502 77.844 83.652-2.324 46.473-38.34 81.328-85.976 81.328-44.15-1.161-79.005-37.178-80.167-82.49z" style="fill:#000;fill-opacity:1;fill-rule:nonzero;stroke:none;"/>
</svg>
