<svg xmlns="http://www.w3.org/2000/svg" width="1000" height="1000">
  <path d="M728.692 574.62h13.136c25.079 93.148 56.128 179.131 80.012 268.697 53.74-17.913 53.74-26.272 53.74-74.04v-538.59c0-53.74 0-56.128-59.71-71.652-4.777 10.747-4.777 22.69-8.36 34.632-31.05 130.169-65.682 253.172-130.17 364.234-26.272 48.963-52.544 94.343-101.507 123.004-59.71 48.962-134.946 27.466-186.297-40.604v-13.136c5.971-20.301 16.72-37.02 27.467-57.322 10.748 15.525 20.302 26.273 29.855 37.02 35.827 38.215 77.624 45.38 106.285 4.777 38.215-48.962 71.653-93.148 89.566-145.693 40.603-109.868 74.04-225.706 108.673-339.156 8.36-45.38 42.992-59.71 82.4-45.38 52.546 14.33 96.732 29.855 143.306 45.38C993.807 132.76 995 137.539 995 159.035v677.117c0 20.302-1.194 33.438-23.884 38.215-46.574 14.33-95.537 31.05-149.277 48.962-23.884 9.554-54.933-8.36-66.875-34.632-21.496-71.652-35.827-144.5-54.934-216.152-16.719-39.409 16.719-60.905 28.661-97.925zM5 836.152v-672.34c0-19.108 3.583-31.05 26.273-37.021 45.38-15.525 93.148-31.05 142.111-50.157 33.438-9.554 63.293 8.36 75.235 40.603 11.942 64.488 29.856 134.946 47.769 194.656 10.748 31.05 10.748 50.157-8.36 75.236-5.97 13.136-9.553 22.69-17.913 39.409h-9.554c-28.66-91.955-53.739-180.326-81.206-267.503-41.797 10.747-54.934 22.69-54.934 60.904v549.337c0 54.934 10.748 56.128 59.711 77.624 10.748-45.38 22.69-93.149 35.826-138.529 28.661-91.954 58.517-182.714 111.062-272.28 16.719-35.826 44.186-74.04 75.235-101.508 60.905-64.487 137.334-53.739 199.433 21.496 8.36 4.777 8.36 11.942 8.36 17.913-13.137 13.137-17.913 35.827-26.273 58.517-11.942-11.942-22.69-16.72-27.467-26.273-40.603-56.128-88.371-56.128-132.557 0-52.545 69.264-82.4 151.665-108.673 234.065-26.273 80.013-48.963 157.636-70.459 237.648-11.942 41.798-38.214 54.934-81.206 41.798-42.992-14.33-90.76-31.05-136.14-41.798C8.583 869.59 5 862.425 5 836.152z" style="fill:#000;fill-opacity:1;fill-rule:nonzero;stroke:none;"/>
</svg>
