<svg xmlns="http://www.w3.org/2000/svg" width="1000" height="1000">
  <path d="M500.496 5c272.968 0 494.507 221.54 494.507 495.002 0 270.495-218.572 495.001-495.001 495.001C229.506 995.003 5 776.431 5 500.002 5 229.506 223.572 5 500.496 5zM236.43 789.288c0 4.945 3.956 8.901 7.912 13.847 86.045 46.483 171.1 96.923 256.155 146.374 4.945 1.978 10.88 1.978 14.835 0 83.078-49.451 169.122-97.913 253.188-146.374 7.912-4.946 9.89-8.902 9.89-16.814V211.704c0-8.901-1.978-15.824-9.89-20.77C684.453 143.463 598.41 95 515.331 47.529c-3.956-2.967-11.868-2.967-14.835 0-85.055 48.461-170.11 95.934-256.155 145.385-3.956 2.967-7.912 6.923-7.912 14.835zm41.539-23.736V532.145c28.681 16.813 52.418 30.659 80.11 48.461 48.462 25.715 94.945 53.407 142.418 80.11 4.945 3.957 10.88 1.978 16.813 0l216.595-124.615c0-1.978 1.978-1.978 3.956-1.978 0 3.956 1.978 4.945 1.978 10.879v218.572c0 7.912-1.978 12.857-7.912 13.846-72.199 41.539-142.419 83.077-212.639 124.616-7.912 5.934-13.846 3.956-20.769 0L284.891 777.42c-4.945-.989-6.923-5.934-6.923-11.868zm0-304.616V245.33c64.286 37.583 124.616 72.198 188.902 108.792-64.286 37.583-124.616 73.187-188.902 106.814zm18.791 35.604c64.286-36.593 127.583-71.209 190.88-106.813V606.32c-63.297-36.594-126.594-72.198-190.88-109.78zm0-286.814c15.824-6.923 30.66-16.813 45.495-24.725 50.44-30.66 104.835-58.352 156.264-90 5.934-4.946 9.89-4.946 16.813-1.979 24.726 14.835 206.704 117.693 204.726 116.704-23.736 12.857-42.527 25.714-62.308 35.604-48.461 26.704-94.945 53.407-142.418 80.11-3.956 1.979-9.89 4.946-12.857 1.979-66.264-37.583-131.539-76.154-197.803-113.737-1.978-1.978-3.956-1.978-7.912-3.956zM529.178 606.32V389.727c64.286 35.604 126.593 70.22 190.88 106.813-64.287 37.583-126.594 73.187-190.88 109.78zm18.79-252.199c63.298-36.594 125.606-71.209 189.892-108.792v215.606c-62.308-33.627-126.594-69.231-189.891-106.814z" style="fill:#000;fill-opacity:1;fill-rule:nonzero;stroke:none;"/>
</svg>
