<svg xmlns="http://www.w3.org/2000/svg" width="1000" height="1000">
  <path d="M12.483 544.065c0-335.962 201.577-539.032 533.06-539.032 62.712-1.494 310.577 47.78 403.153 306.098 7.466 16.425 7.466 31.357 0 47.781-47.781 128.412-123.932 210.536-243.385 270.263 23.89-55.247 34.342-76.151 34.342-143.344-4.48-138.864-135.878-247.865-273.249-223.974-100.041 14.931-177.686 88.096-201.577 185.152-23.89 101.535 19.412 203.07 104.522 256.824 55.247 38.822 113.48 46.288 176.193 38.822 170.22-19.41 306.099-101.535 403.154-240.399 13.439-17.918 29.864-56.74 38.822-46.288C987.518 779.984 788.928 995 454.46 995 243.923 995 12.483 751.614 12.483 544.065z" style="fill:#000;fill-opacity:1;fill-rule:nonzero;stroke:none;"/>
</svg>
