<svg xmlns="http://www.w3.org/2000/svg" width="1000" height="1000">
  <path d="M501.313 995C230.836 995 5 777.044 5 496.062 5 225.584 221.645 5 501.313 5c275.73 0 487.123 225.836 493.688 491.061 0 275.73-227.149 498.94-493.688 498.94zM83.78 551.208c19.695 186.446 177.255 324.311 270.477 333.502 6.565-19.695 6.565-38.077 6.565-59.085 28.886 11.817 57.772 15.756 86.658 21.008 15.756 3.939 21.008 10.504 21.008 23.634v44.642h64.337v-39.39c0-18.382 2.626-24.947 22.321-28.886 19.695-5.252 42.016-9.191 61.711-15.756 2.626 0 13.13 0 23.634-5.252v65.65c127.361-34.138 275.73-186.446 275.73-395.213 0-207.453-152.308-354.51-275.73-387.334v49.894c0 9.19-5.252 10.504-21.008 9.19-13.13 0-27.573-5.251-44.642-9.19-42.016-11.817-42.016-11.817-42.016-56.46V91.659c-5.252 0-7.878-10.504-15.756-10.504-38.077-7.878-48.58 0-48.58 42.016v3.939c0 14.443-5.253 23.634-21.009 23.634-22.32 7.878-48.58 11.817-66.963 17.069-17.069 1.313-19.695 0-19.695-17.07v-42.015C203.262 158.62 58.832 330.624 83.78 551.207zm177.255 118.17c-7.878-19.695-7.878-30.199 14.443-30.199 34.138-5.252 69.588-14.443 105.04-19.695 9.19 0 18.381 0 23.633 14.443 5.252 24.947 24.947 39.39 48.581 43.33 34.138 10.503 72.215 10.503 102.414-7.879 17.07-10.504 26.26-26.26 26.26-40.703 0-18.382-9.19-34.138-28.886-39.39-24.947-9.19-55.146-13.13-84.032-22.32-24.947-6.566-49.894-11.818-76.154-15.757-56.459-18.382-106.352-61.71-120.795-124.734-18.382-93.223 9.19-175.942 112.917-211.393 84.032-28.886 161.5-28.886 241.592 15.756 47.268 23.634 69.59 69.589 91.91 112.918 6.565 7.878 0 18.382-9.19 18.382-39.39 9.19-73.529 17.069-107.667 22.32-14.443 0-19.695 0-26.26-15.755-9.19-28.886-31.512-45.955-66.963-49.894-24.947 0-51.207 0-70.902 14.443-11.817 10.504-18.382 24.947-18.382 45.955 0 19.695 10.504 27.573 28.886 34.138 35.451 9.19 69.59 19.694 105.04 28.885 44.642 5.252 82.72 19.695 120.796 44.642 103.727 64.337 99.788 227.15-22.32 284.921-44.643 21.008-87.972 30.2-164.126 30.2-43.329 0-97.162-5.253-145.743-36.765-42.015-22.32-65.65-56.459-80.092-95.849z" style="fill:#000;fill-opacity:1;fill-rule:nonzero;stroke:non"/>
</svg>
