<?xml version="1.0" encoding="UTF-8"?><svg id="a" xmlns="http://www.w3.org/2000/svg" viewBox="0 0 1000 1000"><path d="M517.901,0c5.52,.399,11.041,.785,16.56,1.202,4.907,.371,9.811,.776,14.908,1.181V152.49c-16.564-1.016-33.093-2.029-49.892-3.059-.048-.457-.202-1.237-.202-2.018-.011-48.626-.01-97.253-.004-145.879,0-.511,.073-1.023,.112-1.534h18.519Zm-18.519,1000c-.027-1.336-.077-2.672-.078-4.008-.004-45.567-.003-91.134-.003-136.702v-3.65c-17.009-1.203-33.631-2.379-50.25-3.555v145.381c5.735,.461,11.259,.921,16.786,1.344,5.419,.415,10.841,.794,16.261,1.189h17.284ZM0,517.901l.829,5.524H147.249v-49.74H.87l-.87,8.414c0,11.934,0,23.868,0,35.802Zm517.901,482.099c2.033-.194,4.063-.433,6.1-.575,8.995-.629,17.993-1.23,26.99-1.841v-146.046c-11.337,1.111-22.446,2.2-33.707,3.304v145.159h.617ZM1000,482.099c-.317-3.424-.635-6.848-.959-10.347h-145.113c.454,11.279,.903,22.409,1.362,33.804h144.71v-23.457Zm-498.862,357.011c.246-5.509,.448-11.038,.749-16.562,1.588-29.155,3.209-58.308,4.797-87.463,.38-6.977,.354-6.894,7.204-7.873,37.876-5.414,69.732-22.068,94.345-51.564,21.628-25.919,31.503-55.921,29.415-89.727-.28-4.539-3.294-7.155-7.765-6.796-12.599,1.01-25.2,1.998-37.796,3.042-21.507,1.782-43.01,3.61-64.516,5.395-4.264,.354-8.536,.601-13.144,.921,1.398-26.594,2.775-52.798,4.164-79.223-11.361,0-22.25,.059-33.137-.053-2.014-.021-3.105,.644-4.194,2.292-7.398,11.2-15.812,21.56-25.98,30.396-21.645,18.808-46.519,31.939-73.443,41.33-24.838,8.664-50.533,13.653-76.506,17.458-12.404,1.817-24.726,2.292-37.151,.309-23.644-3.774-43.203-15.145-59.966-31.824-21.381-21.274-34.644-47.206-43.396-75.72-.589-1.92-1.151-3.849-1.975-6.613-10.657,195.976,154.08,357.279,338.295,352.277Zm124.133-246.523c-.449,6.053-.624,11.876-1.364,17.625-1.306,10.137-4.169,19.874-8.219,29.28-.926,2.15-2.076,2.83-4.355,2.822-22.834-.079-45.668-.049-68.502-.045-1.13,0-2.271-.044-3.389,.088-2.746,.325-4.765,2.584-4.739,5.185,.026,2.636,2.061,4.799,4.846,5.068,1.02,.098,2.055,.053,3.083,.053,20.674,.002,41.348,.002,62.022,.002h3.928c-.758,1.321-1.236,2.275-1.823,3.157-19.749,29.668-47.262,48.312-81.815,56.106-41.242,9.303-79.787,2.605-114.191-22.607-24.717-18.113-40.371-42.337-45.605-72.861-.135-.787-.188-1.589-.307-2.623,86.709-7.075,173.218-14.134,260.429-21.25Zm152.563-310.326c5.959,7.209,5.961,7.281,2.425,16.053-.494,1.225-1.732,2.572-2.94,3.025-23.341,8.75-46.725,17.387-70.12,25.995-1.404,.517-2.975,.866-4.459,.834-16.759-.362-33.516-1.174-50.273-1.171-40.658,.007-81.192,2.663-121.617,6.865-26.576,2.762-53.139,5.691-79.652,8.996-26.617,3.318-53.191,7.011-79.735,10.878-27.546,4.013-55.069,8.239-82.162,14.796-23.82,5.765-47.165,12.92-69.107,24.075-10.073,5.122-19.285,11.436-26.711,20.075-9.988,11.62-14.817,25.137-13.509,40.408,.69,8.054,2.153,16.112,4.057,23.977,6.45,26.638,17.363,51.119,35.998,71.682,18.271,20.161,40.527,31.77,68.197,30.729,9.506-.358,18.997-2.055,28.416-3.615,26.835-4.443,53.175-10.761,77.975-22.314,19.512-9.09,37.879-20.016,52.705-35.908,30.283-32.459,40.603-71.33,35.947-114.761-1.097-10.235-2.833-20.4-4.241-30.602-.388-2.814-.208-2.985,2.695-3.854,1.973,9.631,3.609,19.371,5.993,28.924,6.827,27.363,18.688,52.181,38.145,72.971,18.71,19.992,41.755,33.102,67.372,41.986,32.049,11.114,65.269,14.628,98.965,14.815,21.626,.12,43.149-1.542,64.647-3.746,10.036-1.029,19.378-3.733,27.277-10.245,11.038-9.1,18.477-20.863,24.402-33.675,1.962-4.242,3.628-8.622,5.466-13.028,.534,.504,.946,.893,1.534,1.448,10.996-29.69,21.86-59.025,32.725-88.361,.685,1.351,1.003,2.573,.962,3.783-.42,12.524-.946,25.045-1.332,37.57-.116,3.744-.214,7.539,.254,11.237,.76,6.008,2.231,11.929,2.929,17.941,.347,2.99,1.458,3.573,4.23,3.568,46.189-.083,92.379-.059,138.568-.059h4.224c-1.718-12.994-3.37-25.48-5.037-38.091h-130.663c-1.417-5.732-2.803-11.337-4.185-16.926,38.327-20.556,76.306-40.925,114.598-61.463-2.652-7.156-5.239-14.136-7.855-21.192-.987,.213-1.589,.299-2.164,.473-10.994,3.325-22.005,6.597-32.965,10.029-3.436,1.076-6.541,1.367-10.018-.226-4.836-2.216-9.956-3.812-14.956-5.671-2.48-.922-4.961-1.839-8.165-3.025,20.793-6.286,40.78-12.329,61.446-18.577-6.447-13.104-12.72-25.855-19.19-39.007-7.861,7.869-15.196,15.213-22.533,22.554-9.672,9.677-19.324,19.375-29.063,28.983-.802,.791-2.424,1.616-3.3,1.326-5.626-1.866-11.151-4.038-16.709-6.11-.306-.37-.613-.741-.919-1.111,1.014-.541,2.233-.876,3.012-1.653,19.313-19.24,38.555-38.55,57.895-57.763,1.717-1.706,1.925-2.882,.577-4.9-3.655-5.472-7.031-11.129-10.621-16.646-2.841-4.367-5.835-8.635-9.038-13.354-22.098,22.1-43.888,43.892-65.904,65.909-1.986-5.315-3.768-10.41-5.808-15.399-.899-2.199-.674-3.587,1.1-5.346,19.209-19.052,38.31-38.212,57.437-57.347,.777-.777,1.513-1.596,2.636-2.784-10.856-12.821-21.592-25.502-32.399-38.266-16.463,16.509-32.418,32.509-48.361,48.496-.875-.713-1.346-1.098-1.282-1.045-2,2.63-3.638,5.354-5.811,7.548-15.492,15.64-31.094,31.172-46.658,46.741-.786,.787-1.54,1.606-2.346,2.45,5.853,6.909,11.497,13.444,16.997,20.099Zm-339.627,80.672c22.756,3.241,26.283,12.671,29.049,27.581,5.901,31.809-.793,61.27-17.034,88.812-13.242,22.455-31.972,39.108-54.656,51.748-34.69,19.33-71.821,29.07-111.458,29.311-5.423,.033-10.87-.72-16.274-1.371-10.184-1.227-18.391-6.471-25.319-13.624-25.812-26.652-41.893-58.015-46.434-95.183-1.343-10.99,2.313-19.532,9.352-27.181,9.482-10.305,21.269-17.422,33.678-23.558,24.138-11.935,49.713-19.574,76.156-24.035,25.83-4.358,51.793-7.953,77.738-11.602,8.335-1.172,16.796-1.448,26.985-2.279,4.916,.354,11.627,.443,18.217,1.382Zm269.498-16.453c3.087,.14,6.2,1.322,9.16,2.405,19.938,7.296,39.825,14.728,59.767,22.011,2.135,.78,3.295,1.962,4.06,4.06,5.481,15.028,11.198,29.972,16.49,45.066,.953,2.717,.706,6.06,.299,9.016-2.351,17.055-6.317,33.712-12.972,49.654-.356,.853-.78,1.679-1.11,2.541-6.519,17.057-18.724,26.239-36.967,28.826-22.636,3.21-45.236,3.955-67.981,2.367-25.82-1.802-51.197-5.972-75.985-13.619-18.427-5.685-35.97-13.112-50.858-25.627-20.947-17.608-35.599-39.664-44.743-65.384-2.025-5.697-3.563-11.573-5.195-17.402-3.258-11.636,2.422-24.773,12.537-31.404,8.846-5.798,18.779-8.124,29.012-9.596,31.038-4.466,62.292-4.962,93.568-5.022,.719-.001,1.438,0,2.157,0,.007-.193,.015-.386,.022-.58,22.914,.865,45.832,1.651,68.739,2.688Zm88.146,16.668c-1.356-3.801-3.253-5.947-7.161-7.326-16.427-5.797-32.713-11.991-49.049-18.045-1.017-.377-2.019-.794-3.751-1.479,8.177-3.026,15.62-5.777,23.061-8.536,10.761-3.991,21.499-8.042,32.296-11.933,1.962-.707,2.902-1.835,3.593-3.723,6.659-18.189,13.41-36.345,20.373-55.155,1.042,2.688,1.899,4.817,2.697,6.967,5.883,15.857,11.815,31.697,17.568,47.601,.898,2.482,2.254,3.757,4.691,4.642,17.336,6.297,34.62,12.738,51.918,19.139,.635,.235,1.249,.528,2.539,1.078-6.429,2.4-12.235,4.591-18.057,6.737-12.407,4.572-24.849,9.05-37.198,13.775-1.459,.558-2.967,2.207-3.532,3.698-6.564,17.352-12.949,34.771-19.39,52.169-.279,.753-.643,1.474-1.261,2.874-6.613-17.852-13.138-35.109-19.337-52.484Zm-508.249-122.775c-50.02,40.453-85.358,91.329-106.655,151.988,.575-.026,.931-.218,1.215-.486,11.05-10.41,23.798-18.241,37.532-24.518,19.234-8.791,39.461-14.635,59.897-19.796,39.639-10.011,80.081-15.489,120.508-20.934,31.576-4.253,63.23-7.936,94.856-11.813,1.785-.219,2.408-.893,2.598-2.657,.778-7.243,1.69-14.472,2.596-21.7,1.979-15.791,4.002-31.576,5.975-47.368,2.394-19.163,4.758-38.329,7.13-57.495,.792-6.401,1.569-12.804,2.38-19.436-67.52-4.008-153.109,13.622-228.033,74.215Zm143.058,608.04c-40.36-7.813-77.88-22.683-112.34-43.228-35.082,35.076-69.87,69.858-104.972,104.954,13.319,8.388,26.933,16.962,40.992,25.817,1.055-1.369,1.658-2.355,2.452-3.15,21.583-21.616,43.209-43.189,64.741-64.856,1.712-1.723,2.922-1.924,4.9-.601,3.24,2.167,6.606,4.163,10.02,6.046,1.74,.96,2.171,1.892,1.552,3.888-4.249,13.703-8.352,27.452-12.495,41.188-4.263,14.134-8.545,28.263-12.713,42.425-.254,.863,.144,2.676,.706,2.906,6.733,2.76,13.555,5.304,20.398,7.922,.506-.815,.852-1.312,1.137-1.842,7.426-13.835,14.845-27.675,22.268-41.513,5.773-10.763,11.519-21.542,17.385-32.254,.441-.805,1.877-1.75,2.63-1.59,5.093,1.084,10.126,2.447,15.352,3.764v90.311c12.676,2.277,25.196,4.525,37.988,6.823v-147.011Zm516.883-161.868c-24.697-13.243-49.385-26.504-74.116-39.682-1.832-.976-2.187-1.996-1.65-3.888,1.088-3.836,2.051-7.714,2.893-11.612,.448-2.075,1.409-2.736,3.568-2.71,10.49,.123,20.982,.055,31.474,.055,23.452,0,46.904-.036,70.355,.054,2.389,.009,3.485-.641,3.935-3.046,.68-3.632,1.779-7.184,2.588-10.795,1.682-7.5,3.29-15.016,5.007-22.883-1.587,0-2.703,0-3.819,0-46.903,0-93.807,.021-140.71-.058-2.592-.004-3.699,.675-4.383,3.285-6.574,25.049-15.972,49.048-28.453,71.707-8.413,15.273-17.862,29.974-26.58,44.487,33.638,33.639,67.768,67.768,102.166,102.167,8.5-11.562,17.252-23.467,26.245-35.7-24.52-24.51-48.703-48.682-72.948-72.918,3.02-5.056,5.952-9.965,8.869-14.849,15.573,4.713,30.875,9.35,46.18,13.973,16.198,4.892,32.394,9.794,48.619,14.594,.902,.267,2.731-.033,3.01-.61,3.839-7.939,7.481-15.974,11.305-24.276-4.894-2.635-9.221-4.972-13.555-7.296Zm-275.671,282.998c7.087-2.768,14.179-5.525,21.243-8.351,4.024-1.61,4.02-1.671,2.762-5.845-8.133-26.993-16.241-53.994-24.474-80.957-.678-2.222-.348-3.315,1.672-4.391,3.259-1.736,6.48-3.596,9.502-5.711,2.229-1.561,3.564-1.21,5.434,.673,21.02,21.16,42.135,42.226,63.229,63.313,.853,.852,1.746,1.663,2.833,2.695,11.3-7.295,22.416-14.471,33.28-21.484-34.886-34.886-69.476-69.475-104.18-104.179-11.29,6.684-23.418,12.232-35.809,17.512-24.186,10.305-48.72,19.201-74.477,24.518-2.827,.583-3.557,1.56-3.552,4.353,.09,46.59,.064,93.181,.064,139.772,0,1.113,0,2.226,0,3.434,.906,0,1.525,.091,2.108-.013,11.534-2.069,23.051-4.232,34.603-6.194,2.634-.447,3.138-1.645,3.13-4.105-.087-28.592-.056-57.184-.056-85.776,0-.72-.203-1.527,.055-2.138,.342-.811,.92-1.931,1.614-2.12,5.007-1.362,10.069-2.523,15.222-3.773,14.281,26.63,28.482,53.11,42.77,79.754,1.119-.361,2.094-.621,3.028-.986ZM214.479,710.445c-12.581-17.192-23.68-35.785-33.132-55.366-9.489-19.658-17.112-40.013-22.757-61.059H9.068c.126,1,.159,1.827,.342,2.619,2.495,10.819,5.065,21.62,7.477,32.457,.527,2.368,1.621,2.986,3.988,2.981,33.12-.083,66.241-.056,99.361-.056,.72,0,1.545-.222,2.135,.055,.863,.406,2.032,1.039,2.247,1.806,1.377,4.917,2.53,9.897,3.791,14.998-29.482,15.813-58.835,31.557-88.403,47.416,3.744,8.158,7.334,15.981,11.013,23.998,33.438-10.089,66.576-20.086,99.813-30.114,3.064,5.133,5.991,10.036,9.281,15.546-24.805,24.791-49.508,49.48-74.564,74.523,8.387,11.324,16.928,22.856,25.16,33.972,34.8-34.801,69.232-69.235,103.771-103.775ZM567.969,155.988c51.177,9.568,97.476,29.903,139.374,59.428,35.243-35.245,70.278-70.28,105.631-105.635-9.659-7.181-19.505-14.502-29.699-22.082-33.943,33.966-67.517,67.563-101.186,101.255-4.306-2.551-8.59-5.164-12.955-7.634-1.637-.927-1.56-2.05-1.103-3.56,9.347-30.808,18.672-61.623,27.992-92.44,4.003-13.238,7.983-26.484,12.083-40.092-8.205-3.488-16.27-6.916-24.4-10.372-9.717,18.114-19.179,35.749-28.637,53.386-11.451,21.352-22.915,42.698-34.32,64.074-.856,1.605-1.63,2.22-3.562,1.631-3.728-1.137-7.53-2.112-11.365-2.794-2.685-.478-3.31-1.719-3.305-4.317,.081-44.032,.058-88.063,.058-132.095v-4.32c-11.633-2.012-23.02-3.982-34.606-5.986V155.988ZM89.509,214.112c-6.76,10.53-13.606,21.194-20.569,32.042,35.893,35.891,71.441,71.438,107.07,107.066-3.005,4.99-5.951,9.883-8.928,14.828-45.492-13.732-90.707-27.381-136.215-41.118-1.542,4.399-3.008,8.544-4.447,12.7q-1.474,4.257,2.534,6.401c35.831,19.194,71.663,38.386,107.492,57.585,4.946,2.65,9.875,5.331,14.8,7.991-1.172,4.684-2.449,9.011-3.287,13.42-.525,2.762-1.683,3.506-4.486,3.499-44.85-.102-89.7-.072-134.55-.072-1.204,0-2.408,0-3.912,0l-3.086,26.622H149.894c6.312-48.138,22.303-92.697,46.831-133.746-35.76-35.761-71.302-71.304-107.215-107.218ZM309.549,37.606c-6.09,2.658-11.814,5.156-17.743,7.744,14.615,48.398,29.15,96.531,43.718,144.774,.919-.445,1.754-.826,2.568-1.247,27.724-14.318,56.806-24.866,87.379-31.149,3.054-.628,3.607-1.776,3.602-4.593-.085-48.138-.061-96.276-.061-144.414v-3.913c-12.463,2.27-24.373,4.44-36.393,6.63V156.779c-5.681,1.422-11.219,2.809-16.886,4.228-22.108-41.221-44.105-82.235-66.184-123.4Zm-69.738,225.32c11.729-11.068,23.802-22.461,35.701-33.689-34.909-34.905-69.955-69.945-105.465-105.451-11.804,11.43-23.748,22.997-35.244,34.129,35.459,35.459,70.394,70.396,105.008,105.01Zm755.129,310.987c1.638-16.712,3.267-33.327,4.91-50.091h-144.908c-2.187,16.858-4.338,33.437-6.499,50.091h146.497Zm-735.018,188.267c-11.218-11.885-22.623-23.968-33.713-35.717-34.042,34.042-68.275,68.274-102.918,102.917,11.239,11.65,22.72,23.55,34.091,35.337,34.638-34.637,68.734-68.733,102.539-102.537Zm479.105,2.559c-12.847,10.071-25.991,20.374-38.594,30.253,34.072,34.072,68.301,68.302,102.951,102.951,12.359-10.421,25.062-21.131,37.341-31.483-34.294-34.302-68.135-68.151-101.697-101.721ZM211.668,91.28c-8.774,6.641-17.934,13.573-26.904,20.363,35.517,35.509,70.777,70.761,106.093,106.069,9.414-6.21,19.164-12.641,28.466-18.778-35.828-35.828-71.584-71.584-107.654-107.654ZM477.852,.534c-9.124,.628-18.241,1.391-27.374,1.857-2.836,.145-3.507,1.144-3.502,3.871,.082,48.01,.059,96.02,.059,144.03v3.236c11.561-1.136,22.67-2.227,33.976-3.338V.524c-1.155,0-2.162-.059-3.159,.009ZM121.859,172.605c-6.946,8.581-14.026,17.326-20.741,25.621,35.68,35.68,70.976,70.976,106.142,106.142,6.516-8.703,13.276-17.733,19.85-26.513-34.997-34.997-69.946-69.946-105.25-105.251Zm729.966-28.128c-7.908-7.329-16.09-14.913-23.85-22.105-35.203,35.203-70.051,70.051-104.802,104.802,8.021,7.07,16.345,14.406,24.427,21.531,34.658-34.66,69.302-69.305,104.224-104.228ZM153.965,575.636c-1.793-11.342-3.552-22.468-5.312-33.6H1.558c1.361,11.391,2.685,22.477,4.014,33.6H153.965Zm17.678,301.691c8.655,7.031,17.393,14.13,25.709,20.886,34.889-34.884,69.383-69.374,103.743-103.729-8.673-6.505-17.632-13.225-26.629-19.972-34.174,34.171-68.349,68.344-102.823,102.815Zm603.37-150.698c-7.317,8.096-14.851,16.432-22.146,24.504,33.868,33.874,67.604,67.617,101.665,101.685,7.495-8.038,15.119-16.214,22.518-24.149-34.278-34.279-68.15-68.151-102.038-102.04ZM275.178,52.807c-16.149,9.271-31.784,18.248-47.234,27.118,26.815,26.811,53.152,53.144,79.401,79.39-10.597-35.087-21.272-70.431-32.167-106.508ZM37.039,309.917c33.745,10.187,66.693,20.134,99.62,30.075-25.672-25.663-51.236-51.218-77.287-77.259-7.38,15.593-14.779,31.224-22.333,47.185ZM374.458,15.563c-16.189,5.085-31.998,10.05-48.105,15.109,16.148,30.121,31.92,59.54,48.105,89.73V15.563ZM109.681,410.318l.159-.453c-30.017-16.089-60.034-32.179-90.67-48.599-3.895,16.606-7.645,32.595-11.505,49.052H109.681ZM724.68,52.861c-9.895,32.765-19.539,64.701-29.174,96.606,23.981-23.987,47.871-47.883,72.217-72.234-14.137-8.004-28.39-16.075-43.043-24.371Zm-103.831-38.432V112.771l.484,.156c15.002-27.98,30.004-55.961,45.424-84.722-15.514-4.656-30.518-9.159-45.908-13.778Zm278.048,382.807h90.774c-3.686-14.36-7.276-28.346-10.986-42.797-26.898,14.427-53.012,28.435-79.789,42.797Zm79.142,249.804h-65.988c18.978,10.176,37.127,19.908,55.796,29.918,3.494-10.257,6.817-20.013,10.192-29.918ZM59.352,736.661c5.365,9.252,10.569,18.227,15.667,27.019,15.269-15.268,30.134-30.133,45.469-45.468-20.526,6.194-40.585,12.247-61.136,18.449Zm-26.179-57.177c18.356-9.845,36.12-19.372,53.884-28.9l-.262-.436H22.893c3.47,9.903,6.838,19.512,10.28,29.336Zm892.919,82.418c4.862-8.463,9.804-17.065,14.93-25.989-19.815-5.981-39.186-11.827-58.634-17.698,14.607,14.601,29.034,29.023,43.704,43.686Zm-615.57,143.717c-12.944,12.938-25.983,25.97-39.182,39.164,7.716,3.713,15.642,7.528,23.89,11.497,5.22-17.291,10.301-34.126,15.292-50.661Zm403.274,46.512c7.991-4.054,15.713-7.97,23.246-11.791-12.909-12.908-25.518-25.517-38.412-38.41,5.083,16.824,10.073,33.344,15.166,50.201Zm-86.444-20.695v52.186c8.138-2.365,15.996-4.649,24.219-7.039-8.07-15.043-15.94-29.715-24.219-45.147Zm-252.848,4.13l-.437-.182c-7.465,13.919-14.929,27.838-22.602,42.143,7.882,2.246,15.341,4.371,23.038,6.564v-48.526Z"/></svg>
