<svg xmlns="http://www.w3.org/2000/svg" viewBox="0 0 1000 1000"><path d="M188.467 704.331V351.788c0-20.146-2.878-40.29 0-58.997 2.878-23.024 11.511-46.047 20.145-66.192 21.585-37.413 67.631-57.558 119.433-50.364 41.73 8.634 70.51 35.974 77.704 82.02 4.317 15.83 4.317 34.536 4.317 53.242 2.878 122.311 2.878 244.622 2.878 369.811v23.023h178.43V311.497c0-25.901 4.317-53.241 20.145-76.264 18.707-43.17 61.875-61.875 116.555-58.998 41.73 4.317 73.387 31.657 82.02 79.143 2.879 18.706 5.757 37.413 5.757 56.12V704.33h178.43V261.134c0-64.753-23.023-128.067-64.753-176.992C840.313-20.9 638.859-20.9 553.96 87.02c0 4.317-5.756 4.317-8.634 8.634C503.597 36.657 444.601 5 375.531 5c-74.826 0-136.7 20.145-187.064 79.142V25.145H5.72v679.186zM5.72 995h988.56V851.105H5.72z"/></svg>