<svg xmlns="http://www.w3.org/2000/svg" viewBox="0 0 1000 1000"><path d="M247.637 761.065H5v-522.13h229.328c19.452 0 37.88 1.024 57.332 3.071 35.832 6.143 68.593 17.405 99.307 33.785 33.785 17.405 110.569 92.141 110.569 109.545 2.047-3.071 4.095-4.095 4.095-5.119 16.38-25.594 34.809-48.117 57.332-68.593 39.927-35.833 97.26-59.38 155.615-69.618 10.238-1.023 22.523-3.07 33.785-3.07h238.542c4.095 0 4.095 0 4.095 3.07v95.212c0 4.096 0 4.096-4.095 4.096h-227.28c-13.31 1.023-29.69 2.047-44.023 6.142-22.523 6.143-41.975 11.262-62.45 23.547-24.572 14.333-45.047 36.857-61.428 60.404-14.333 20.475-24.57 42.999-34.809 65.522v4.095c7.167 19.452 17.405 37.88 26.619 57.332 13.309 21.5 27.642 40.951 46.07 56.308 19.452 16.38 39.928 27.642 63.475 33.785 25.594 7.167 51.189 10.238 76.784 10.238h217.042c4.095 0 4.095 0 4.095 5.119v97.26H747.244c-10.238-2.048-19.452-2.048-27.642-3.072-31.737-4.095-62.45-10.238-91.117-25.595-27.642-11.261-53.237-28.665-74.736-50.165-12.286-12.285-52.213-64.498-52.213-67.57l-25.595 35.833c-10.238 15.356-24.57 30.713-37.88 42.999-26.618 24.57-56.308 37.88-89.07 50.165-27.641 10.238-72.688 17.404-101.354 17.404zM106.355 654.592c0 4.095 1.024 4.095 3.071 4.095h73.713c24.57 0 48.118 0 69.617-1.024 19.452-2.047 38.904-5.119 58.356-10.238 21.5-8.19 42.999-18.428 61.427-35.832 15.357-12.286 27.642-29.69 39.927-47.094 11.262-20.476 20.476-39.928 30.714-62.451 1.024-1.024 1.024-4.095 0-6.143-5.119-10.238-11.262-24.57-17.404-36.856-25.595-51.19-57.332-87.022-113.64-105.45-26.619-7.166-56.309-12.285-85.998-12.285-24.571-1.024-50.166 0-75.76 0H113.52c-7.166 0-7.166 0-7.166 5.119z"/></svg>