<svg xmlns="http://www.w3.org/2000/svg" viewBox="0 0 1000 1000"><path d="M5 500.496c0 271.98 220.55 494.507 495.496 494.507 271.98 0 494.507-220.55 494.507-495.496C995.003 227.528 773.464 5 500.496 5 226.54 5 5 225.55 5 500.496zm112.748 144.396c35.604-106.813 69.23-215.605 104.835-323.407 1.978-5.935 5.934-12.858 10.88-16.814 88.022-65.275 174.066-132.528 262.088-198.792 10.88-8.9 10.88-8.9 22.747 0 88.023 66.264 174.067 131.54 259.122 196.814 7.912 5.934 11.868 12.857 15.824 20.77 33.627 105.824 69.231 214.616 102.858 321.43.989 5.933.989 10.878 0 16.812-1.978 6.924-11.868 6.924-18.791 1.978-37.583-24.725-73.187-48.461-108.792-75.165-46.484-31.648-92.967-65.275-140.44-96.923-1.978-1.978-4.945-3.956-8.901-5.934-35.605 104.835-73.187 209.671-110.77 312.528h-3.956c-36.593-102.857-72.198-207.693-109.78-312.528-3.956 1.978-5.934 3.956-7.912 3.956a18556.477 18556.477 0 0 1-246.265 172.088c-7.912 5.935-12.857 8.902-18.791 3.957-7.912-5.935-5.934-13.847-3.956-20.77zm75.165-80.11c4.945-1.978 6.923-3.956 10.879-5.934 56.374-41.539 113.737-80.11 172.088-119.67 3.956-3.957 7.912-9.89 8.901-12.858 22.748-65.275 47.473-131.539 69.232-196.814 5.934-14.835 9.89-29.67 15.824-44.505-1.978 1.978-3.956 1.978-3.956 1.978-64.286 48.461-129.561 98.901-192.858 147.363-5.934 3.956-8.901 8.9-8.901 14.835-18.792 52.418-35.605 104.835-52.418 157.253-5.934 18.792-11.868 37.583-18.791 58.352zm239.341-90c25.715 65.275 50.44 128.572 74.176 195.825 26.704-67.253 50.44-130.55 75.165-195.825zm0-48.462h149.341c-24.725-69.23-48.461-136.484-75.165-205.715-23.736 69.231-48.461 136.484-74.176 205.715zm111.759-239.34c1.978 2.967 3.956 6.923 3.956 10.879 27.692 75.165 54.396 151.319 80.11 226.484 1.978 4.945 5.934 10.88 11.868 14.835 57.363 41.539 115.715 80.11 172.089 119.671.989 1.978 4.945 3.956 6.923 5.934v-7.912c-22.748-69.231-44.506-138.462-69.231-209.671-1.978-3.956-5.934-8.901-8.901-12.857-31.649-24.726-64.286-48.462-93.957-73.187-33.626-23.737-67.253-50.44-100.88-76.154 0 1.978 0 1.978-1.977 1.978z"/></svg>