<svg xmlns="http://www.w3.org/2000/svg" viewBox="0 0 1000 1000"><path d="M289,2,87,204H251C273,124,359,17,385,2ZM483,204V2H437C351.4,63.6,302.7,162.3,289,204Zm39,0H718C672.4,95.2,598.3,24,567,2H522Zm234,0H915L711,2H621C685.8,61.2,731,144,756,204Zm-43,796L915,798H751c-22,80-108,187-134,202ZM519,798v202h46c85.6-61.6,134.3-160.3,148-202Zm-39,0H284c45.6,108.8,119.7,180,151,202h45Zm-234,0H87l204,202h90C316.2,940.8,271,858,246,798ZM394.1,362.9c-16.9-20.4-38.1-30.5-63.7-30.5a61,61,0,0,0-21.5,3.9A50.71,50.71,0,0,0,290,347.4a56.61,56.61,0,0,0-13.6,20.1c-3,8.2-4.5,18-4.5,29.2q0,29.25,17.5,45.5,17.55,15.6,46.1,29.9A382.11,382.11,0,0,1,370,491.6a155.54,155.54,0,0,1,31.9,26.7,131.1,131.1,0,0,1,23.4,37c6.1,14.3,9.1,31.2,9.1,50.7,0,22.5-3.7,42.5-11.1,59.8A129.77,129.77,0,0,1,394.7,710a115.49,115.49,0,0,1-41.6,26.6,141.07,141.07,0,0,1-50.7,9.1q-38.4,0-70.9-15c-21.7-10-39-22.5-52-37.7l42.2-57.2a108.94,108.94,0,0,0,35.8,28.6c14.3,6.9,28.8,10.4,43.6,10.4,16.5,0,30.1-5.6,40.9-16.9s16.2-27.1,16.2-47.5c0-19.9-6.5-35.8-19.5-47.5s-29.5-22.5-49.4-32.5a334.18,334.18,0,0,1-35.8-20.1,150.29,150.29,0,0,1-29.2-26,139.78,139.78,0,0,1-20.2-35.8c-4.8-13.9-7.1-30.3-7.1-49.4q0-35.7,11.1-61.1,11.7-26,29.9-42.9a118.81,118.81,0,0,1,42.2-24.7,139.63,139.63,0,0,1,47.5-8.5q35.1,0,62.4,11.7a118,118,0,0,1,46.8,33.1Zm420.7,46.8q0,35.1-11,61.8c-6.9,17.3-16.2,31.9-28,43.6a110.48,110.48,0,0,1-40.3,26,134.36,134.36,0,0,1-46.8,8.4H634.1V734H557.4V273.8H684.8a171.19,171.19,0,0,1,45.5,6.5,101.82,101.82,0,0,1,41.6,22.8q18.9,15.6,30.5,41.6Q814.85,370.65,814.8,409.7Zm-74.1.6c0-24.7-5.9-42.7-17.5-54s-26.7-16.9-44.9-16.9H634.1V485.6h44.2q27.3,0,44.9-18.9C734.8,453.9,740.7,435,740.7,410.3Z"/></svg>