<?xml version="1.0" encoding="utf-8"?>
<!-- Generator: Adobe Illustrator 26.4.1, SVG Export Plug-In . SVG Version: 6.00 Build 0)  -->
<svg version="1.1" id="Layer_1" xmlns="http://www.w3.org/2000/svg" xmlns:xlink="http://www.w3.org/1999/xlink" x="0px" y="0px"
	 viewBox="0 0 1000 1000" style="enable-background:new 0 0 1000 1000;" xml:space="preserve">
<path d="M276.9,587.8H341c0,14.5-3,28.9-8.9,42.2c-5.8,13.4-14.8,25.1-26.3,34.1c-11.4,9.1-24.7,15.6-38.8,19
	c-14.2,3.5-28.7,5.2-43.3,5.2c-12.4,0-24.8-1.2-37-3.6c-12.1-2.4-23.6-6.9-34.1-13.3c-10.6-6.4-19.8-14.8-27.1-24.8
	c-7.4-9.9-12.7-21.3-15.6-33.3c-2.9-11.9-4.4-24.2-4.4-36.5V408.5c0-12.4,1.5-24.7,4.4-36.7c2.9-12,8.3-23.2,15.6-33.1
	c7.3-9.9,16.5-18.4,27.1-24.8c10.5-6.4,22.1-10.9,34.1-13.3c12.2-2.4,24.6-3.7,37-3.6c14.6,0,29.1,1.8,43.3,5.2
	c14.2,3.4,27.4,9.9,38.8,19c11.5,9,20.5,20.7,26.3,34.1c5.9,13.3,8.9,27.7,8.9,42.2h-64.1c0-8.5-2.7-16.9-7.8-23.7
	c-5-7-12.1-12.2-20.3-14.8c-8.1-2.7-16.5-4.1-25-4.2c-9.7,0-19.3,2-28.1,6c-8.8,3.8-15.9,10.8-19.8,19.5c-4.1,8.8-6.3,18.4-6.3,28.1
	v168.3c0,9.6,2.1,19.2,6.3,27.9c4,8.7,11,15.6,19.8,19.5c8.8,4.1,18.4,6.3,28.1,6.3c8.5,0,17-1.4,25-4.2c8.2-2.7,15.4-8,20.3-15.1
	C274.3,603.9,276.9,596.1,276.9,587.8z M562.7,459.1H460.5V301.2h-64.1v383h64.1V517.4h102.1v166.8h64.1v-383h-64.1V459.1z
	 M896.5,359v-57.8H683.4v383H748v-174h114.1v-57.8H748V359H896.5z"/>
</svg>
