<svg xmlns="http://www.w3.org/2000/svg" width="1000" height="1000">
  <path d="M500.496 5C223.572 5 5 229.506 5 500.002c0 276.43 224.506 495.001 495.002 495.001 276.43 0 495.001-224.506 495.001-495.001C995.003 226.539 773.464 5 500.496 5zM236.43 655.771c1.978-6.923 0-15.824 0-26.703V420.386c-2.967-24.725 0-49.45 0-70.22 0-18.791 15.825-30.66 32.638-35.605h18.791c10.88 4.946 24.725 7.913 38.572 4.946 10.879-1.979 23.736 8.9 35.604 8.9 12.857 0 23.737-2.966 36.594-5.933 14.835 11.868 25.714 7.912 38.571 5.934 11.868-1.978 25.715 5.934 41.539 9.89 23.736-12.857 26.703-12.857 48.462 8.9 22.747-15.823 35.604-15.823 45.494 0 8.901 13.847 2.967 26.704-9.89 35.605 3.956 10.88 12.857 19.78 12.857 26.704 0 10.879-8.9 19.78-12.857 29.67 20.77 15.824 20.77 32.638 0 47.473 3.956 9.89 16.813 16.813 16.813 29.67 0 2.967-3.956 9.89-8.9 15.825-9.891 10.879-24.726 9.89-43.517-8.902-2.967 5.935-8.902 11.869-12.858 15.825L527.2 555.88c16.813-17.802 32.637-17.802 45.494-4.945 10.88 10.879 6.923 24.725-12.857 39.56 23.736 19.78 23.736 36.594 2.967 52.418 3.956 8.901 9.89 15.824 16.813 24.726 3.956 4.945-6.923 13.846-8.9 19.78-4.946 14.835-20.77 9.89-43.517-5.934l-5.935 5.934c-9.89 13.846-24.725 14.835-39.56 4.945-5.934-3.956-8.901-4.945-14.835 0-13.847 11.868-26.704 12.857-39.56 4.945-5.935-3.956-11.87 0-16.814 3.956-9.89 7.912-24.725 6.923-38.572 1.978-5.934-1.978-9.89 0-15.824 1.978-11.868 3.956-18.791 5.934-26.703 5.934-14.836 0-25.715-2.967-38.572 2.967-31.648 14.835-65.275-21.758-54.396-58.352zM514.342 487.64c3.956 5.934 9.89 11.868 12.858 15.824l16.813-15.824c-6.923-4.945-10.88-9.89-16.813-13.846zm0-49.45 12.858 15.823c5.934-5.934 9.89-11.868 16.813-15.824L527.2 420.386c-5.935 4.945-8.902 10.88-12.858 17.802zm0-52.419c3.956 4.946 9.89 9.89 9.89 13.847l19.78-13.847c-6.922-5.934-10.878-11.868-16.812-15.824zm.99 257.144 11.868 15.824c5.934-3.956 9.89-9.89 16.813-15.824l-19.78-13.846c-2.968 3.956-5.935 8.901-8.902 13.846zm0-52.418c2.966 6.924 8.9 12.858 11.868 16.814l16.813-16.814c-6.923-3.956-10.88-9.89-16.813-14.835zm66.263 77.144c0-11.869 10.88-18.792 20.77-18.792 12.857 0 22.747 9.89 22.747 22.748 0 9.89-10.88 20.769-22.747 16.813-9.89-2.967-20.77-9.89-20.77-20.77zm0-48.462c0-14.835 10.88-28.682 23.737-21.758 7.912 3.956 19.78 9.89 19.78 21.758 0 9.89-10.88 20.77-22.747 20.77-9.89 0-20.77-10.88-20.77-20.77zm0-51.429c0-11.868 10.88-21.758 20.77-21.758 11.868 0 22.747 8.9 22.747 21.758 0 9.89-10.88 20.77-22.747 20.77-9.89 0-20.77-10.88-20.77-20.77zm0-51.429c0-12.857 10.88-22.747 20.77-22.747 11.868 0 22.747 8.901 22.747 22.747 0 9.89-10.88 19.78-22.747 21.759-9.89 1.978-20.77-11.868-20.77-21.759zm0-55.384c0-9.89 10.88-18.792 20.77-18.792 11.868 0 22.747 11.868 22.747 21.759 0 9.89-10.88 22.747-22.747 18.79-9.89-2.966-20.77-10.878-20.77-21.757zm0-51.43c0-9.89 10.88-18.79 23.737-18.79 9.89 0 19.78 8.9 19.78 21.758 0 9.89-10.88 21.758-22.747 21.758-9.89 0-20.77-13.846-20.77-24.725zm0-52.417c0-9.89 10.88-19.78 20.77-18.791 12.857.989 22.747 8.9 22.747 22.747 0 9.89-10.88 21.758-24.725 21.758-10.88 0-18.792-12.857-18.792-25.714zm53.407 314.507c0-8.902 8.901-19.78 18.791-19.78 8.902 0 16.814 6.922 16.814 19.78 0 6.923-7.912 16.813-16.814 15.824-9.89-.99-18.79-5.934-18.79-15.824zm0-52.418c0-11.868 8.901-18.791 18.791-18.791 8.902 0 16.814 6.923 16.814 18.79 0 7.913-7.912 16.814-16.814 16.814-6.923 0-18.79-8.901-18.79-16.813zm0-51.429c0-11.868 8.901-19.78 18.791-19.78 8.902 0 19.78 7.912 19.78 19.78 0 7.912-6.922 16.813-19.78 16.813-6.923 0-18.79-8.9-18.79-16.813zm0-51.429c0-12.857 8.901-19.78 18.791-19.78 8.902 0 18.792 6.923 16.814 19.78-.99 6.923-7.912 15.825-16.814 15.825-9.89 0-18.79-8.902-18.79-15.825zm0-52.417c0-9.89 8.901-18.792 18.791-18.792 8.902 0 16.814 9.89 16.814 18.792 0 9.89-7.912 16.813-16.814 16.813-9.89 0-18.79-8.901-18.79-16.813zm0-54.396c0-6.923 8.901-15.824 18.791-15.824 8.902 0 16.814 8.9 16.814 15.824 0 10.879-7.912 19.78-16.814 19.78-9.89 0-18.79-8.901-18.79-19.78zm0-48.462c0-10.879 8.901-19.78 16.813-19.78 10.88 0 18.792 8.901 18.792 15.824 0 12.857-7.912 19.78-16.814 19.78-9.89 0-18.79-6.923-18.79-15.824zm54.396 306.595c0-2.967 9.89-11.869 13.846-11.869 8.901 0 13.846 2.967 13.846 15.825 0 3.956-4.945 9.89-10.879 15.824h-5.934c-.989-5.934-10.88-14.835-10.88-19.78zm0-48.462c-2.967-4.945 6.923-11.868 10.88-15.824l5.933-2.967c5.934 3.956 10.88 12.857 10.88 15.824 0 3.956-7.913 10.879-10.88 16.813-5.934-5.934-13.846-8.901-16.813-13.846zm0-54.396c0-8.901 6.923-13.846 13.846-13.846 5.934 0 13.846 10.879 13.846 16.813 0 3.956-4.945 9.89-10.879 16.813h-5.934c-3.956-6.923-10.88-12.857-10.88-19.78zm0-52.418c0-8.9 6.923-12.857 13.846-9.89 7.912 2.967 13.846 7.912 13.846 13.846 0 3.956-4.945 9.89-10.879 15.825h-5.934c-.989-5.934-10.88-11.869-10.88-19.78zm0-51.428c0-6.924 6.923-12.858 16.813-12.858 8.901 0 11.868 6.923 10.88 15.825-.99 6.923-4.946 9.89-10.88 16.813h-5.934c-3.956-6.923-10.88-10.88-10.88-19.78zm0-48.462c6.923-26.704 33.626-12.857 27.692 0-2.967 5.934-7.912 9.89-13.846 12.857-6.923 3.956-15.824-4.945-13.846-12.857zm0-55.385c0-1.978 9.89-9.89 13.846-9.89 8.901 0 13.846 2.967 13.846 13.846 0 21.758-27.692 14.835-27.692-3.956zm52.418 106.814c5.934-5.934 8.9-9.89 12.857-9.89 2.967 0 8.901.988 15.824 6.923-6.923 6.923-12.857 10.879-15.824 10.879-3.956 0-6.923-3.956-12.857-7.912zm2.967 207.693c0-3.956 5.934-12.858 9.89-12.858 2.967 0 8.901 5.935 15.824 12.858-6.923 3.956-12.857 9.89-15.824 9.89-3.956 0-9.89-8.901-9.89-9.89zm0-52.418c0-5.934 5.934-8.901 9.89-15.824 5.934 3.956 11.868 9.89 11.868 15.824 0 .989-8.901 4.945-11.868 9.89-2.967-1.978-9.89-8.901-9.89-9.89zm0-51.429c0-5.934 5.934-8.901 9.89-11.868 2.967 2.967 11.868 5.934 11.868 11.868 0 2.967-5.934 7.912-11.868 12.857-3.956-4.945-9.89-9.89-9.89-12.857zm0-51.429c2.967-5.934 5.934-12.857 9.89-12.857 2.967 0 8.901 6.923 15.824 8.901-6.923 6.923-12.857 10.88-15.824 10.88-2.967 0-6.923-3.957-9.89-6.924zm0-103.846c0-16.813 21.758-12.857 21.758 0 0 11.868-21.758 16.813-21.758 0zm0-55.385c0-1.978 5.934-6.923 6.923-6.923 5.934 0 11.868 4.945 14.835 6.923 15.824 10.88-21.758 24.725-21.758 0zm54.395 314.507c0-3.956 4.946-8.902 7.913-8.902 0 0 1.978 4.946 8.9 8.902-6.922.989-8.9 3.956-11.867 3.956-3.956 0-4.946-3.956-4.946-3.956zm0-55.385 4.946-5.934c2.967 0 4.945 2.967 11.868 8.9-6.923.99-8.901 4.946-8.901 4.946-6.923 0-7.913-3.956-7.913-7.912zm0-51.429s.99-5.934 4.946-5.934c2.967 0 4.945 2.967 11.868 8.901-6.923 2.967-8.901 3.956-8.901 3.956-2.967 0-7.913-.989-7.913-6.923zm0-48.462c0-3.956.99-5.934 4.946-12.857 2.967 3.956 7.912 6.923 7.912 8.901 0 3.956-4.945 6.923-7.912 7.912 0 0-4.946-.989-4.946-3.956zm0-55.384s.99-5.935 4.946-5.935c2.967 0 7.912 2.968 7.912 5.935 0 2.967-2.967 8.9-4.945 12.857-6.923-3.956-7.913-5.934-7.913-12.857zm0-51.43c0-2.966 4.946-2.966 4.946-5.933 2.967 2.967 7.912 5.934 7.912 8.9 0 2.968-4.945 5.935-7.912 7.913-3.956-4.945-4.946-7.912-4.946-10.88zm0-52.417s.99-3.956 4.946-3.956c19.78 0 2.967 10.88 2.967 12.857 0 2.967-7.913-1.978-7.913-8.9z" style="fill:#000;fill-opacity:1;fill-rule:nonzero;stroke:none;"/>
</svg>
