<?xml version="1.0" encoding="UTF-8"?><svg id="a" xmlns="http://www.w3.org/2000/svg" viewBox="0 0 1000 1000"><path d="M391.057,961.227c-195.006,0-353.09-158.084-353.09-353.09S196.05,255.047,391.057,255.047c7.56,0,15.057,.266,22.5,.734-91.421,37.937-155.726,128.052-155.726,233.197,0,139.388,112.997,252.385,252.385,252.385,105.146,0,195.26-64.304,233.197-155.726,.468,7.442,.734,14.939,.734,22.5,0,195.006-158.084,353.09-353.09,353.09ZM497.033,0C245.692,0,37.438,184.437,.204,425.35c68.808-146.877,217.936-248.624,390.852-248.624,238.262,0,431.411,193.149,431.411,431.411,0,173.765-102.746,323.511-250.788,391.863,242.264-36.062,428.116-244.937,428.116-497.238C999.796,225.094,774.701,0,497.033,0Z"/></svg>