<svg xmlns="http://www.w3.org/2000/svg" width="1000" height="1000">
  <path d="M5 500.496c0 271.98 220.55 494.507 495.496 494.507 271.98 0 494.507-220.55 494.507-495.496C995.003 227.528 773.464 5 500.496 5 226.54 5 5 225.55 5 500.496zM249.287 768.52C65.33 506.43 152.363 115.769 528.189 115.769c326.374 0 451.98 455.936 232.418 652.75-137.473-182.968-193.847-392.639-251.21-602.31-61.319 209.671-129.56 414.397-260.11 602.31zm130.55 85.055c44.505-113.736 85.055-226.484 124.615-347.144 27.693 85.055 57.363 159.232 79.121 233.408 11.869 45.494 28.682 91.978 39.56 130.55-90.988 13.846-142.417 10.879-243.297-16.814z" style="fill:#000;fill-opacity:1;fill-rule:nonzero;stroke:none;"/>
</svg>
