<svg xmlns="http://www.w3.org/2000/svg" width="1000" height="1000">
  <path d="M47.411 204.939V48.623h157.528c-61.8 41.2-115.117 94.517-157.528 156.316zM5 499.394c0-89.67 21.811-170.856 67.858-249.62C116.48 174.645 175.857 116.48 249.773 71.646 326.113 25.6 410.936 5 499.394 5c89.67 0 174.492 21.812 250.833 66.646 75.128 43.623 133.292 103 176.915 178.128C973.19 328.538 995 409.724 995 500.606c0 87.246-21.811 172.069-67.858 248.41-44.835 73.916-102.999 134.504-176.915 176.915C673.887 969.554 589.064 995 499.394 995c-88.458 0-172.069-23.024-249.62-69.07-72.706-43.623-133.293-102.999-176.916-176.916C28.023 672.675 5 587.852 5 499.395zm42.411 449.56V793.85c42.411 60.588 94.517 113.905 156.316 155.104zm92.093-449.56c0 65.435 16.965 126.023 48.47 182.975 30.294 54.529 75.129 96.94 129.657 128.445 55.741 32.718 116.329 48.47 181.763 48.47 65.435 0 126.022-15.752 182.975-48.47 54.528-31.505 95.728-75.128 129.657-128.445 35.14-55.74 48.47-117.54 48.47-182.975 0-64.222-15.753-126.022-48.47-181.762-32.717-54.529-75.129-96.94-129.657-130.87-54.53-33.928-117.54-48.47-182.975-48.47-64.223 0-126.022 18.177-181.763 48.47-55.74 30.294-95.728 76.341-129.657 130.87-33.929 54.529-48.47 117.54-48.47 181.762zm655.557-450.77h152.681v152.68c-38.776-61.8-92.093-112.693-152.68-152.68zm1.212 900.33c60.588-39.988 112.693-92.093 151.469-151.469v151.47z" style="fill:#000;fill-opacity:1;fill-rule:nonzero;stroke:none;"/>
</svg>
