<svg xmlns="http://www.w3.org/2000/svg" viewBox="0 0 1000 1000"><path d="M5 500.496c0 271.98 220.55 494.507 495.496 494.507 271.98 0 494.507-220.55 494.507-495.496C995.003 227.528 773.464 5 500.496 5 226.54 5 5 225.55 5 500.496zM209.726 778.41V228.517c0-16.813 2.967-19.78 18.791-19.78H778.41c15.824 0 19.78 2.967 19.78 19.78 0 183.957 3.957 364.946 3.957 549.892 0 14.835-7.913 18.791-23.737 18.791H228.517c-15.824 0-18.791-3.956-18.791-18.79zm69.231-77.143c0 19.78 6.923 26.703 26.703 26.703 134.506 0 265.056-6.923 400.551 0 18.791.99 22.747-6.923 22.747-26.703 0-134.506 2.968-270 2.968-404.507 0-14.835-6.924-22.747-22.748-22.747H305.66c-26.703 0-26.703 3.956-26.703 26.703zm34.615-30.66V504.453c0-54.396 2.968-107.802 0-161.21 0-15.823 2.968-22.746 22.748-22.746h134.506c66.264 0 119.67 49.45 123.627 115.714 7.912 65.275-35.605 125.605-96.924 138.462-22.747 2.967-42.527 0-64.286 0-12.857 0-19.78 2.967-19.78 18.791 0 33.627 3.956 50.44 3.956 77.144 0 10.879-7.912 18.79-19.78 18.79h-65.275c-15.824 0-18.792-7.911-18.792-18.79zm99.89-223.517c3.957 46.484-3.955 38.572 41.54 38.572 27.692 0 38.571-7.912 38.571-35.605 0-29.67-6.923-41.538-34.615-41.538-40.55 2.967-45.495-3.956-45.495 38.571zm45.496 227.474V628.08c0-15.824 4.945-19.78 15.824-19.78h199.78c15.825 0 19.781 3.956 19.781 19.78v46.484c0 10.879-8.901 14.835-19.78 14.835H474.782c-10.88 0-15.824-3.956-15.824-14.835z"/></svg>