<svg xmlns="http://www.w3.org/2000/svg" viewBox="0 0 1000 1000"><path d="M5 500.496C5 225.55 226.54 5 500.496 5c272.968 0 494.507 222.528 494.507 494.507 0 274.946-222.528 495.496-494.507 495.496C225.55 995.003 5 772.475 5 500.496zm142.418 31.649c-11.868 70.22 25.714 162.198 103.847 193.846 79.12-177.033 158.242-353.078 241.32-534.067-39.562 2.967-68.243 14.835-93.957 35.604-49.451 37.583-70.22 89.011-75.165 147.363-117.693 8.901-163.188 92.968-176.045 157.254zm112.748 200.77c28.681 5.934 52.417 9.89 73.187 15.824 81.099-183.957 163.187-361.98 244.286-541.98-25.714-10.88-47.472-21.758-73.187-14.835-80.11 178.022-160.22 359.012-244.286 540.99zm93.956 9.89h72.198c75.165-161.21 145.385-321.43 218.572-482.64-9.89-11.868-15.824-21.758-26.703-27.692-5.934-6.923-12.857-12.857-24.725-19.78-80.11 179.012-159.232 355.056-239.342 530.112zm98.901 0h67.253c51.43-114.726 101.869-227.474 153.298-339.232 20.769-43.517 8.9-78.132-14.836-121.649-70.22 156.264-138.462 307.583-205.715 460.88zm94.946 0h64.286C663.684 628.079 716.1 514.342 769.508 395.66c-18.791-5.934-35.604-12.858-53.407-20.77-57.363 124.616-110.77 246.265-168.132 367.914zm99.89 0h55.385c44.506-95.935 87.033-191.87 131.539-288.793-11.868-12.857-23.736-24.725-39.56-41.538-51.43 112.748-98.902 220.55-147.364 330.33zm102.858-16.814c84.066-19.78 140.44-140.44 102.857-223.517-34.615 76.154-67.253 149.341-102.857 223.517z"/></svg>