<svg xmlns="http://www.w3.org/2000/svg" viewBox="0 0 1000 1000"><path d="M497.017 208.415c209.679 4.152 368.495 91.345 487.866 260.541 13.494 21.798 13.494 39.445 0 61.243-104.84 147.398-241.857 236.667-417.28 256.389-112.106 13.494-211.755 0-307.252-44.635-103.801-46.71-186.842-120.41-246.009-213.83-12.456-19.722-12.456-37.369 0-56.053C115.03 321.56 257.237 232.29 438.89 212.567c16.608-4.152 41.52-4.152 58.128-4.152zM71.433 521.895c35.292 44.634 75.775 86.155 121.447 119.371 37.368 25.95 82.003 45.673 122.485 67.47l4.152-5.19c-44.634-40.482-72.66-90.306-86.154-145.32 0-3.115-3.115-8.305-9.343-13.495-8.304-8.304-13.494-25.95 0-36.33 9.343-4.152 22.837-8.304 36.33-4.152 14.533 4.152 14.533 17.646 8.305 37.368-3.114 8.304-3.114 16.608-3.114 24.912 28.026 78.89 72.66 133.904 150.512 161.93 76.812 24.912 151.55 16.608 217.982-28.026 9.342-5.19 26.988-5.19 26.988 0 8.304 13.494 18.684 8.304 32.179 3.114 96.535-40.483 172.31-103.801 236.666-184.766 13.494-14.532 8.304-28.027 0-38.407-44.634-59.166-95.497-108.99-159.854-144.283-26.988-18.684-59.166-32.179-85.116-45.673l-5.19 5.19c35.292 36.33 63.318 71.623 76.812 123.524 5.19 8.304 13.494 16.608 19.723 25.95 8.304 13.494 13.494 26.988 3.114 35.292-9.343 10.38-22.837 14.532-31.14 10.38-18.685 0-18.685-13.494-18.685-32.178 0-17.646 0-37.368-9.342-53.977-21.798-55.014-63.319-100.687-117.295-122.485-83.041-36.33-159.854-28.026-233.553 13.494-8.304 4.152-21.798 8.304-25.95 4.152-9.342-13.494-23.875-9.342-33.217-4.152-94.459 36.33-176.462 98.611-238.742 181.652-14.532 17.646-11.418 26.989 0 44.635zm161.93-63.319c10.38-53.977 32.178-103.801 68.508-141.17 4.152-5.19 13.494 0 22.837-5.19-5.19 9.343 0 19.723-5.19 23.875-31.14 35.292-50.863 76.813-59.167 126.637-3.114 6.228-13.494 9.342-16.608 14.532-5.19-8.304-10.38-14.532-10.38-18.684zm46.71 36.33c0-117.295 103.801-212.792 222.135-212.792 117.295 0 217.982 100.687 217.982 217.983 0 121.447-100.687 216.944-223.173 216.944-121.447 0-216.944-99.65-216.944-222.135zm30.102 5.19c0 107.954 83.041 190.995 192.033 190.995 100.687 0 186.842-86.155 186.842-190.994 4.152-92.383-74.737-192.033-192.033-192.033-103.8 0-186.842 86.155-186.842 192.033zm131.828-22.836c-22.836-28.026-11.418-69.546 10.38-91.345 32.178-22.836 73.699-22.836 95.497 0 28.026 21.799 36.33 63.319 13.494 94.46-13.494 19.722-18.684 33.216-13.494 56.052 4.152 21.798 8.304 41.52 13.494 63.319 6.228 28.026-5.19 36.33-33.216 36.33h-25.95c-63.32 0-63.32 0-55.015-64.357 0-8.304 5.19-16.608 5.19-26.988 3.114-22.836 8.304-44.634-10.38-67.47zm237.704 204.49c0-9.343 0-18.685 5.19-22.837 25.95-37.368 44.635-78.889 55.015-122.485 3.114-8.304 11.418-14.532 16.608-17.646 5.19 3.114 8.304 9.342 13.494 11.418-8.304 61.243-30.102 105.877-63.318 147.398-5.19 4.152-17.646 4.152-26.989 4.152z"/></svg>