<svg xmlns="http://www.w3.org/2000/svg" viewBox="0 0 1000 1000"><path d="M851.3,415.9a17.477,17.477,0,1,1-17.608-17.608A17.555,17.555,0,0,1,851.3,415.9Zm144,84.1c0,273.4-221.6,495-495,495S5.3,773.4,5.3,500,226.9,5,500.3,5,995.3,226.6,995.3,500ZM317.949,606.962c-.263-4.205-1.051-16.031-1.051-25.492V445.862c0-6.307.526-14.454.788-20.5-5.256.263-13.14.526-19.447.526H168.675a265.269,265.269,0,0,1-28.646-1.577V447.7c6.045-.263,19.185-.789,28.909-.789H294.822V570.958H165.784a277.614,277.614,0,0,1-29.172-1.577V593.3c7.1-.525,18.923-1.051,29.7-1.051H294.822c-.263,6.308-.263,11.826-.525,14.717ZM593.371,490.8c-5.781.525-15.242,1.314-28.383,1.314H420.97c-14.717,0-28.646-.789-36.53-1.314v25.755c8.147-.789,22.075-1.314,36.53-1.314H565.251c11.826,0,22.864,1.051,28.12,1.314Zm270.017-74.9a29.568,29.568,0,1,0-57.818,8.41c-3.154.263-6.045.263-8.41.263H665.231a202.872,202.872,0,0,1-26.281-1.84v23.39c6.833-.263,15.769-.789,26.281-.789H799.525c-3.416,25.23-15.768,61.76-34.427,85.675-21.813,28.12-51.511,50.459-102.495,63.074l17.871,19.71c48.356-14.98,79.63-39.421,103.546-70.169,20.761-27.069,33.639-69.381,39.158-96.976a13.544,13.544,0,0,0,.526-2.891,31.742,31.742,0,0,0,9.986,1.577A29.611,29.611,0,0,0,863.388,415.9Z"/></svg>