<svg xmlns="http://www.w3.org/2000/svg" width="1000" height="1000">
  <path d="m156.085 58.012-53.012 53.012 67.59 64.94 64.94 66.264-5.301 15.904c-7.952 21.205-9.278 39.759-9.278 62.29 0 78.192 38.434 141.806 110 178.915 29.157 17.229 78.193 34.458 132.53 49.036 106.024 26.506 120.603 31.807 143.133 41.084 27.831 13.253 41.084 27.831 49.036 50.362 1.325 9.277 1.325 31.807 0 41.084-7.952 26.506-30.482 50.361-56.988 64.94-34.458 18.554-98.072 25.18-144.458 10.602-17.229-2.65-42.41-15.904-54.337-25.18-26.506-21.206-46.386-58.314-54.337-99.398-1.326-6.627-3.976-13.253-3.976-13.253s-147.109 13.253-148.434 15.903c0 0 0 5.302 1.325 11.928 3.976 34.458 17.23 72.892 30.482 100.723l6.627 15.903-63.615 64.94-64.94 63.615 53.013 51.686L207.77 995l67.59-64.94 64.94-66.265 10.603 5.302c60.964 23.855 152.41 33.132 238.554 21.204 21.205-5.3 51.687-11.927 67.59-17.229l9.277-3.975 63.615 63.614L793.554 995l103.374-103.374-58.314-58.314-58.313-59.638 6.627-14.578c15.903-30.482 21.205-55.663 22.53-91.446 2.65-68.916-14.578-121.928-55.663-161.687-39.759-45.06-88.795-64.94-222.65-99.397-94.097-23.856-135.18-41.085-149.76-62.29-17.228-19.879-18.553-46.385-3.975-67.59 7.952-11.928 27.831-25.18 49.036-33.132 23.855-6.627 64.94-9.277 95.422-9.277 64.94 7.951 95.421 35.783 110 96.747 2.65 6.626 2.65 11.927 5.3 11.927 0 0 104.7-2.65 133.856-2.65l18.554-2.651-2.65-13.253c-1.326-23.855-5.301-46.386-14.579-70.24l-5.3-13.254 66.264-64.94 63.615-64.94L793.554 5l-67.59 66.265-64.94 64.94-14.578-5.302c-39.76-15.903-78.193-19.88-133.855-22.53-62.29-2.65-115.302 6.627-157.711 22.53l-14.579 7.952-64.94-67.59L207.772 5z" style="fill:#000;fill-opacity:1;fill-rule:nonzero;stroke:none"/>
</svg>
