<svg xmlns="http://www.w3.org/2000/svg" width="1000" height="1000">
  <path d="M78.308 95.662h649.46c193.578 11.455 290.94 170.67 262.304 319.576-5.727 57.272-18.327 107.67-28.636 163.797-40.09 160.36-192.433 302.394-358.52 318.43-12.6 6.873-22.909 6.873-34.363 6.873H39.363c-12.6 0-22.909-6.873-34.363-6.873 11.454-4.582 17.182-11.454 21.763-16.036 114.543-87.053 227.941-166.088 348.212-245.123 11.454-10.308 21.763-10.308 40.09 0 57.271 40.09 113.398 79.035 164.942 119.125 10.309 5.728 17.182 12.6 27.49 17.182 0-11.454 8.018-17.182 8.018-28.636V601.943c0-22.908 4.582-40.09 20.618-51.544C710.586 500 790.767 442.729 864.074 391.184c5.727-4.582 12.6-11.454 22.909-17.182h-238.25c-33.218 0-33.218-4.581-33.218-38.944V118.57h-12.6c-17.18 34.363-45.817 44.672-80.18 44.672-125.997-4.582-243.977-4.582-368.829 0-28.636 0-46.962-10.309-57.271-33.218-6.873-5.727-18.327-18.327-24.054-22.908 5.727-5.727 5.727-5.727 5.727-11.455zm75.598 113.398H534.19c-11.455 17.182-21.763 34.363-40.09 52.69-4.582 4.582-16.036 4.582-21.764 4.582h-250.85c-17.18 0-28.635-4.582-40.09-18.327-5.727-10.309-17.18-21.763-27.49-38.945zm73.308 108.816c0-5.727 5.727-5.727 5.727-5.727h227.941c-17.181 17.182-28.636 34.363-45.817 51.545-5.727 5.727-10.31 5.727-22.909 5.727H289.067c-17.181 0-21.763-5.727-34.363-18.327-4.581-11.455-17.181-21.763-27.49-33.218z" style="fill:#000;fill-opacity:1;fill-rule:nonzero;stroke:none;"/>
</svg>
