<svg xmlns="http://www.w3.org/2000/svg" viewBox="0 0 1000 1000"><path d="M392.602 12.633C269.159 39.791 156.826 120.028 85.229 226.19 51.9 279.27 29.68 328.646 14.867 395.306 3.757 439.745 2.523 517.514 8.695 564.422c14.813 124.677 75.3 234.54 174.054 317.248 50.612 43.204 109.864 76.534 109.864 60.486 0-2.468-6.172-8.64-14.813-17.282-50.612-48.142-76.535-134.552-65.425-216.024 13.579-108.63 58.018-178.992 143.194-234.541 13.578-11.11 28.392-19.751 30.86-19.751 6.173 0 3.704-12.344-12.344-44.44-28.392-55.549-39.502-95.05-39.502-145.662 0-79.003 32.096-164.178 82.707-214.79 16.048-16.047 17.282-17.282 17.282-30.86 0-11.11-1.234-12.345-9.875-11.11-2.47-1.235-17.282 2.468-32.095 4.937zm-1.235 753c1.235 51.846 11.11 75.3 39.502 108.63 24.688 23.454 67.893 34.564 118.505 29.626 59.252-6.172 104.926-27.157 145.662-67.893 17.282-18.517 19.75-20.986 23.454-16.048 1.235 3.703 1.235 6.172-3.703 17.282-39.502 66.66-111.099 124.677-181.46 140.725-13.58 4.937-18.517 7.406-18.517 11.11 0 11.11 92.582-4.938 148.13-25.923 140.726-50.612 257.996-169.117 304.904-312.31 19.751-59.253 27.158-97.52 27.158-153.07 0-58.017-3.704-75.3-8.641-103.69C957.969 250.877 865.387 127.434 729.6 53.368c-23.454-14.813-34.564-16.047-34.564-9.875 0 2.469 3.703 11.11 8.641 18.516 27.157 38.268 41.97 80.238 43.205 125.912 2.469 56.783-12.344 107.395-40.736 130.85-19.751 18.515-38.267 19.75-64.19 3.702-17.282-12.344-18.517-20.985-6.172-37.032 18.516-24.689 32.095-66.66 32.095-108.63 0-43.205-8.641-67.893-30.861-87.644-23.454-23.454-49.377-29.627-81.472-22.22-33.33 8.641-65.425 43.205-81.472 93.816-8.641 27.158-16.048 70.363-16.048 97.52 0 49.377 14.813 107.395 37.033 143.194 9.875 19.75 38.267 53.08 58.018 65.424l12.344 9.876c0 3.703-7.406 6.172-14.813 8.64-55.55 22.22-114.802 86.41-139.49 155.538-16.048 46.909-20.985 81.473-19.75 124.677z"/></svg>