<svg xmlns="http://www.w3.org/2000/svg" width="1000" height="1000">
  <path d="M985.533 712.479c-67.045-120.123-129.9-233.261-196.945-347.796h-4.19c-2.794 5.587-2.794 13.968-2.794 16.761 0 86.6 0 170.406 2.794 255.609 0 18.158-5.587 30.729-20.952 41.903-82.41 44.697-163.422 93.584-245.831 141.074-11.174 8.38-20.952 8.38-36.316 0-71.235-44.697-145.264-87.997-220.69-129.9-5.587-2.793-11.174-8.38-18.158-8.38 57.268 106.154 115.932 205.325 174.596 308.686-2.793 4.19-6.983 4.19-6.983 4.19-69.839 0-136.884 0-205.326-13.968-110.345-26.538-173.2-89.393-187.167-205.325-8.38-43.3-12.57-87.996-12.57-134.09V349.318c4.19-48.887 6.983-93.583 15.364-142.47 18.158-103.361 85.203-170.406 194.15-185.77C273.18 11.3 331.846 7.11 390.51 7.11c106.154-4.19 205.325 0 308.686 4.19 41.903 0 85.203 6.984 125.71 18.158 93.583 26.539 141.073 97.774 156.438 194.151 6.983 39.11 11.174 79.616 11.174 121.52 5.587 110.344 0 222.086 0 333.827v29.332c-4.19 4.19-4.19 4.19-6.984 4.19zm-757.05-103.361h6.984c5.587-6.984 6.984-16.762 6.984-26.539 0-62.855 4.19-127.106 0-189.96 0-25.143 6.984-43.3 33.523-54.475 11.174-4.19 19.554-11.174 29.332-15.364 60.06-37.713 120.122-71.236 181.58-104.758-8.38 12.57-16.761 26.539-27.936 37.713-22.348 40.506-41.903 78.219-62.854 117.328-50.284 78.22-94.98 159.232-136.884 236.055-16.76 27.935-4.19 46.093 27.936 51.68H722.94c25.142-8.38 32.126-26.539 20.952-48.887-71.236-125.71-141.074-247.228-212.31-370.144-8.38-23.745-25.141-27.935-47.49-23.745 12.571-6.984 18.158-6.984 29.333-4.19 79.615 44.696 152.247 89.393 227.673 135.486 9.777 2.794 13.968 15.365 19.555 23.745 2.793 5.588 2.793 12.571 5.587 23.746 15.364-32.126 8.38-51.68-15.365-67.045-78.219-44.697-155.041-87.997-227.673-132.694-16.761-8.38-26.539-8.38-41.903 0-79.616 44.697-156.438 92.187-234.658 136.884-15.364 6.984-18.158 18.158-18.158 36.316v222.086zm36.316 32.125C343.02 505.757 422.634 370.27 499.457 231.99c82.41 138.28 159.232 273.767 241.641 409.253z" style="fill:#000;fill-opacity:1;fill-rule:nonzero;stroke:none;"/>
</svg>
