<svg xmlns="http://www.w3.org/2000/svg" viewBox="0 0 1000 1000"><path d="M500.496 5C223.572 5 5 229.506 5 500.002c0 276.43 224.506 495.001 495.002 495.001 276.43 0 495.001-224.506 495.001-495.001C995.003 226.539 773.464 5 500.496 5zM123.682 561.815c-5.934-209.671 54.396-332.309 220.55-410.44 189.89-85.056 390.66-2.968 503.408 188.9 11.868 20.77 7.912 24.726-13.846 24.726H615.222c-5.934 0-13.846-3.956-17.802 1.978-9.89 18.791-24.726 37.583-36.594 59.341h147.363c18.791 0 22.747 3.956 12.857 20.77l-68.242 114.725c-5.934 9.89-11.868 15.824-27.692 15.824H492.584c-5.934 0-15.824 0-18.791.99-17.802 12.856-23.737 38.57-36.594 60.33 9.89 0 9.89 1.977 12.857 1.977l217.584-1.978c9.89 0 18.79-6.923 21.758-13.846l89.011-153.297c28.682-48.462 28.682-48.462 84.066-45.495 8.902 0 14.836 6.923 14.836 14.835 16.813 143.407-17.803 253.188-123.627 348.133-191.869 173.078-491.54 101.869-601.32-129.56-8.902-18.792-6.924-18.792 13.845-18.792H375.88c20.77 0 34.616-5.934 43.517-27.692 4.945-12.857 11.868-19.78 21.758-35.605H292.803c-17.802 0-18.791-2.967-8.901-21.758l60.33-110.77c6.923-11.868 19.78-18.79 31.648-18.79h132.528c8.901 0 17.803 0 20.77-2.968 12.857-17.802 21.758-36.594 34.615-58.352H336.32c-11.868 0-19.78 1.978-25.715 15.824-24.725 52.418-64.286 99.89-89.01 152.309-16.814 38.571-39.561 50.44-79.122 44.505h-4.945c-7.912 0-11.868-5.934-13.846-15.824z"/></svg>