<?xml version="1.0" encoding="UTF-8"?><svg id="a" xmlns="http://www.w3.org/2000/svg" viewBox="0 0 1000 1000"><path id="b" d="M999.95,499.975c0-39.348-15.299-76.346-43.148-104.145-27.199-27.199-63.197-42.348-101.545-42.998,25.599-26.499,41.448-62.497,41.448-102.195,0-81.246-66.097-147.343-147.343-147.343-39.648,0-75.646,15.849-102.195,41.448-.65-38.348-15.799-74.346-42.998-101.545C576.321,15.299,539.323,0,499.975,0s-76.346,15.299-104.195,43.148c-27.199,27.199-42.348,63.197-43.048,101.545-26.499-25.599-62.497-41.398-102.145-41.398-81.246,0-147.343,66.097-147.343,147.343,0,39.648,15.849,75.646,41.448,102.195-38.348,.65-74.346,15.799-101.545,42.998C15.299,423.629,0,460.627,0,499.975s15.299,76.346,43.148,104.195c27.199,27.199,63.197,42.348,101.545,43.048-25.599,26.499-41.398,62.497-41.398,102.145,0,81.246,66.097,147.343,147.343,147.343,39.648,0,75.646-15.849,102.145-41.398,.65,38.348,15.799,74.346,43.048,101.545,27.249,27.199,64.847,43.148,104.195,43.148s76.346-15.349,104.145-43.148c27.199-27.199,42.348-63.197,42.998-101.595,26.499,25.599,62.497,41.448,102.195,41.448,81.246,0,147.343-66.097,147.343-147.343,0-39.648-15.849-75.646-41.398-102.145,38.348-.65,74.346-15.799,101.545-43.048,27.849-27.849,43.148-64.847,43.148-104.195h-.05Zm-397.93,102.045v144.343l-102.045-102.045-102.045,102.045v-144.343H253.637l102.045-102.045-102.045-102.045h144.293V253.637l102.045,102.045,102.045-102.045v144.293h144.293l-102.045,102.045,102.045,102.045h-144.293Zm52.647-351.382c0-52.197,42.498-94.695,94.695-94.695s94.695,42.498,94.695,94.695-42.498,94.695-94.695,94.695h-94.695v-94.695ZM433.028,80.346c18.449-18.449,42.698-27.699,66.947-27.699s48.498,9.25,66.947,27.699c36.898,36.948,36.898,96.995,0,133.943l-66.947,66.947-66.947-66.947c-17.899-17.899-27.749-41.648-27.749-66.947s9.85-49.048,27.749-66.947v-.05Zm-182.391,75.546c52.197,0,94.695,42.498,94.695,94.695v94.695h-94.695c-52.197,0-94.695-42.498-94.695-94.695s42.498-94.695,94.695-94.695ZM80.346,433.028c18.449-18.449,42.698-27.699,66.947-27.699s48.498,9.25,66.947,27.699l66.947,66.947-66.947,66.947c-17.899,17.899-41.648,27.749-66.947,27.749s-49.048-9.85-66.947-27.749c-36.898-36.948-36.898-96.995,0-133.943v.05Zm264.937,316.334c0,52.197-42.498,94.695-94.695,94.695s-94.695-42.498-94.695-94.695,42.498-94.695,94.695-94.695h94.695v94.695Zm221.639,170.241c-36.948,36.948-96.995,36.898-133.943,0-36.898-36.948-36.898-96.995,0-133.943l66.947-66.947,66.947,66.947c17.899,17.899,27.749,41.648,27.749,66.947s-9.85,49.098-27.749,66.947l.05,.05Zm249.337-103.295c-17.899,17.849-41.648,27.749-66.947,27.749-52.197,0-94.695-42.498-94.695-94.695v-94.695h94.695c25.299,0,49.048,9.85,66.947,27.749,17.899,17.899,27.749,41.648,27.749,66.947s-9.85,49.098-27.749,66.947Zm103.295-249.337c-17.899,17.899-41.648,27.749-66.947,27.749s-49.098-9.85-66.947-27.749l-66.947-66.947,66.947-66.947c36.948-36.948,96.995-36.898,133.943,0,36.898,36.948,36.898,96.995,0,133.943l-.05-.05Z"/></svg>