<svg xmlns="http://www.w3.org/2000/svg" width="1000" height="1000">
  <path d="M500.496 995.003c275.935 0 494.507-224.506 494.507-495.496C995.003 226.54 773.464 5 500.496 5 223.572 5 5 229.506 5 499.507c0 276.924 224.506 495.496 495.496 495.496zM343.243 832.805v-671.54c24.725 5.933 49.45 12.856 72.198 19.78 1.978.989 3.956 4.945 4.945 7.912.989 4.945 0 10.879 0 16.813v544.947c11.868-1.978 22.747-2.967 32.637-4.945 63.297-14.836 116.704-44.506 153.298-99.89 30.66-43.517 44.505-93.957 51.428-146.375.99-9.89 1.978-20.77 3.956-32.637-23.736-6.923-47.472-13.847-71.209-19.78-28.68-7.913-57.362-14.836-85.055-22.748-2.967-1.978-8.9-5.934-8.9-8.901-.99-24.725 0-47.473 0-73.187 14.834 3.956 28.68 7.912 43.516 10.879 62.308 17.802 125.605 34.616 187.912 52.418 8.902 1.978 11.869 3.956 12.858 13.846.989 72.198-10.88 143.407-38.572 210.66-40.55 92.967-109.78 154.286-206.704 182.968-49.45 15.824-99.89 19.78-152.308 19.78zM496.54 278.957c-.989-23.736 0-46.484 0-73.187 62.308 15.824 123.627 33.626 184.946 49.45-7.912 25.715-14.835 49.451-21.759 74.177-30.659-8.901-60.33-15.825-90.989-23.737-20.77-5.934-41.538-11.868-63.297-17.802-2.967-.989-8.9-4.945-8.9-8.901z" style="fill:#000;fill-opacity:1;fill-rule:nonzero;stroke:none;"/>
</svg>
