<svg xmlns="http://www.w3.org/2000/svg" width="1000" height="1000">
  <path d="M500.496 5c272.968 0 494.507 221.54 494.507 495.002 0 270.495-218.572 495.001-495.001 495.001C229.506 995.003 5 776.431 5 500.002 5 229.506 223.572 5 500.496 5zM263.133 342.254C314.56 393.683 369.946 446.1 426.32 496.54c-58.352 56.374-109.78 108.792-159.231 162.198 28.681 28.682 58.352 58.352 86.044 89.012 24.725-23.737 49.45-48.462 73.187-74.176 29.67-29.67 58.352-60.33 89.011-90 53.407 55.384 104.836 108.79 154.287 156.264l38.571-35.605a33352.151 33352.151 0 0 0 48.462-45.495c-33.627-36.593-69.231-72.198-106.814-109.78-16.813-16.813-33.626-34.616-51.428-52.418 29.67-30.66 61.318-59.34 92.967-90.99 22.747-22.747 46.484-44.505 69.23-67.252-4.944-4.945-9.89-8.901-14.834-13.846-24.726-24.726-49.451-47.473-76.154-72.198-13.847 13.846-27.693 28.681-41.539 42.527-39.56 39.56-78.132 78.132-116.704 119.67-39.56-37.582-77.143-76.153-114.725-113.736-14.836-14.835-29.67-29.67-43.517-44.505-25.714 23.736-47.473 44.505-72.198 68.242-4.945 5.934-10.88 11.868-17.802 17.802zM375.88 771.486a1568.653 1568.653 0 0 1 57.363 57.363c24.726 26.703 51.429 51.429 78.132 77.143 18.792-17.802 36.594-37.583 55.385-56.374 26.704-26.703 52.418-53.407 79.121-78.132-1.978-1.978-3.956-4.945-5.934-6.923-17.802-19.78-37.582-40.55-59.34-61.319-20.77 23.736-44.506 48.462-69.232 71.21-19.78-18.792-36.593-38.572-52.417-57.364-3.956-3.956-7.913-8.9-11.869-13.846-15.824 14.835-28.681 27.692-41.538 39.56-9.89 9.89-19.78 18.792-29.67 28.682zm0-541.98c21.759 20.77 43.517 42.528 67.253 69.231 9.89-9.89 18.792-19.78 28.682-29.67 11.868-13.846 24.725-28.682 39.56-42.528l69.231 69.231c18.792-16.813 36.594-35.604 52.418-52.418 3.956-4.945 8.901-9.89 12.857-13.846-18.791-19.78-36.593-39.56-55.385-59.34-25.714-27.693-51.428-55.385-79.12-83.078-47.473 52.418-90.001 96.924-135.496 142.418z" style="fill:#000;fill-opacity:1;fill-rule:nonzero;stroke:none;"/>
</svg>
