<?xml version="1.0" encoding="utf-8"?>
<!-- Generator: Adobe Illustrator 26.0.1, SVG Export Plug-In . SVG Version: 6.00 Build 0)  -->
<svg version="1.1" id="Layer_1" xmlns="http://www.w3.org/2000/svg" xmlns:xlink="http://www.w3.org/1999/xlink" x="0px" y="0px"
	 viewBox="0 0 1000 1000" style="enable-background:new 0 0 1000 1000;" xml:space="preserve">
<path d="M929.9,748l0-496.1l0.1-0.1l-0.1-0.1v0l0,0L500.2,3.7L70.4,252.3L70,748l0.3,0.2l0,0l0.1,0.1v0.3l0.3-0.2L499.5,996v0.2l0,0
	v0l0.2-0.1l0.1,0.1v0l0.3,0.2l429.4-247.9l0.3,0.2v-0.3l0.2-0.1l-0.2-0.1v-0.1L929.9,748z M890.8,424.9l0,300.8L499.8,951v0.1
	l-0.1,0l-0.2,0.1v-0.2L109.1,725.5l0-150.4l390.6,225.6L630,725.5L240.8,500.8l0-150.4l389.3,224.8v-0.1l130.5-75.2v0L369.7,274.2
	l0-150.4l390.9,225.7v0l130.2-75.2L890.8,424.9L890.8,424.9z"/>
</svg>
