<svg xmlns="http://www.w3.org/2000/svg" viewBox="0 0 1000 1000"><path d="M500.496 995.003c275.935 0 494.507-224.506 494.507-495.496C995.003 226.54 773.464 5 500.496 5 223.572 5 5 229.506 5 499.507c0 276.924 224.506 495.496 495.496 495.496zM147.418 707.2V296.76c116.704-67.254 233.407-135.496 352.09-204.727 118.68 68.242 235.385 136.484 353.077 204.726V707.2c-115.714 67.253-232.418 135.495-352.089 204.726C383.792 843.684 266.1 776.431 147.418 707.2zm45.495-25.714c102.857 59.34 203.737 117.692 306.594 177.033 103.847-59.34 204.726-117.692 308.573-177.033V322.474C705.222 263.133 603.354 204.78 499.507 145.44 396.65 204.78 293.792 264.122 192.913 322.474zm158.242-98.902a2005.565 2005.565 0 0 1 0-188.901c2.967-59.341 59.34-91.979 120.66-68.242-5.934 12.857-13.846 23.736-18.792 35.604-51.428 7.912-56.373 13.846-56.373 64.286v139.451c0 25.714 8.9 45.495 38.571 48.462 24.726 1.978 39.56-15.824 40.55-47.473.989-13.846.989-26.703 1.978-41.539h39.56c17.803 74.177-4.945 122.638-61.318 135.495-54.396 10.88-102.858-23.736-104.836-77.143zm128.572-130.55c-20.77-78.132 15.824-137.473 85.055-137.473 49.45 0 86.044 33.627 88.022 83.078.99 60.33.99 119.67 0 179.011-1.978 67.253-59.34 100.88-128.571 77.143 4.945-8.9 9.89-15.824 12.857-21.758 3.956-5.934 6.923-11.868 8.9-16.813 49.452-6.923 56.375-13.846 56.375-63.297 0-46.484-.99-92.967 0-139.451 0-25.715-8.901-46.484-38.572-46.484-30.66 0-38.571 21.759-37.582 47.473.989 12.857 0 23.736 0 38.571z"/></svg>