<svg xmlns="http://www.w3.org/2000/svg" viewBox="0 0 1000 1000"><path d="M718.693 838.882c-137.535 86.734-302.328 84.255-438.624 0-52.04 50.801-105.319 102.841-153.642 154.881C83.06 955.353 45.89 914.464 5 877.293l157.36-157.36c-42.128-68.147-65.67-140.012-65.67-219.311 0-80.539 23.542-152.404 65.67-220.551C110.32 226.79 58.28 178.469 5 125.189 45.89 86.78 83.06 47.13 123.95 8.72c48.323 52.04 100.363 102.841 152.403 157.36 149.925-89.212 294.894-89.212 444.819-4.957 48.323-52.04 100.363-104.08 152.403-154.881 39.65 40.888 78.06 80.538 118.949 118.948L837.642 280.071c86.733 146.208 86.733 292.415 0 439.862C890.92 771.973 942.96 824.013 995 873.575c-43.367 40.89-81.777 81.778-121.427 120.188zM314.763 645.59c68.147 84.256 197.009 117.71 282.503 63.192-54.518-48.323-105.32-99.124-153.642-148.686 39.65-39.65 76.82-79.3 117.71-117.71 48.323 48.323 101.602 101.602 149.925 152.403 42.127-80.538 29.737-208.16-70.626-282.503-97.885-73.104-226.746-59.474-308.524 26.02-80.538 84.255-89.211 215.595-17.346 307.284z"/></svg>