<svg xmlns="http://www.w3.org/2000/svg" width="1000" height="1000">
  <path d="M500.496 5C223.572 5 5 229.506 5 500.002c0 276.43 224.506 495.001 495.002 495.001 276.43 0 495.001-224.506 495.001-495.001C995.003 226.539 773.464 5 500.496 5zM197.858 629.068c2.967-5.934 30.66-73.187 30.66-73.187 1.977-7.912 2.966-7.912 17.801-7.912 11.869 0 36.594.989 42.528.989 10.88.989 19.78.989 25.714-9.89 3.957-7.912 5.935-13.846 7.913-20.77.989-4.945 2.967-9.89 4.945-15.824 4.945-13.846 11.868-29.67 17.802-51.429h-68.242c7.912-23.736 20.77-54.395 37.582-87.033h46.484c26.704 0 26.704-10.879 34.616-28.681 30.66-69.231 34.615-81.1 41.538-98.902 3.956-7.912 2.967-7.912 14.835-7.912 17.407 0 103.65-.89 115.418-.989 1.484.297 8.11 1.583 10.187 7.912 2.967 2.967 51.429 108.792 46.484 99.89 10.88 22.748 17.802 28.682 39.56 28.682h45.495c12.857 25.715 24.726 52.418 35.605 81.1H666.65c7.912 15.824 15.824 32.637 35.604 77.142 7.912 20.77 9.89 25.715 33.627 25.715h56.373c2.967 8.901 9.89 26.703 17.803 44.505 4.945 12.858 9.89 25.715 15.824 36.594h-71.21c.99 2.967 32.638 79.121 42.528 103.847H682.475c-13.846 0-11.868 2.967-17.802-11.869-3.957-9.89-25.715-68.242-38.572-91.978H380.825c-24.725 55.385-37.582 88.022-44.505 103.847H231.484c.99-1.979.99-2.968 1.978-4.946 0 1.978 29.67-81.099 35.605-98.901zm224.506-85.055h171.1c-3.957-9.89-8.902-20.77-12.858-31.649-14.835-35.604-30.66-70.22-48.461-115.714-6.923-19.78-14.836-39.56-23.737-60.33-25.714 58.352-43.516 105.824-63.297 152.308-7.912 18.791-14.835 36.594-22.747 55.385z" style="fill:#000;fill-opacity:1;fill-rule:nonzero;stroke:none;"/>
</svg>
