<svg xmlns="http://www.w3.org/2000/svg" viewBox="0 0 1000 1000"><path d="M637.97 579.617H526.21v-53.406h187.913v187.912h-53.407V637.97c-19.78 23.044-43.714 41.242-71.703 54.396-27.99 13.154-58.154 19.78-90.495 19.78-38.275 0-73.681-9.593-106.319-28.681-32.637-19.088-58.55-45-77.638-77.638-19.087-32.637-28.68-68.242-28.68-106.813 0-38.572 9.593-74.176 28.68-106.814 19.088-32.637 45-58.55 77.638-77.638 32.638-19.088 68.044-28.681 106.32-28.681 34.911 0 67.45 7.912 97.417 23.736 29.967 15.825 54.89 37.286 74.67 64.286s32.638 57.066 38.572 90h-54.396c-7.912-35.604-26.406-65.274-55.384-89.01-28.979-23.737-62.605-35.605-100.88-35.605-28.978 0-55.681 7.12-80.11 21.264-24.429 14.143-43.813 33.626-58.352 58.351-14.538 24.726-21.758 51.627-21.758 80.605s7.22 55.682 21.758 80.11c14.539 24.429 33.923 43.814 58.352 58.352 24.429 14.539 51.132 21.758 80.11 21.758s55.88-7.22 80.605-21.758 44.308-33.923 58.846-58.352zM5 500.002c0-89.308 22.747-172.583 68.242-249.726 43.517-74.473 102.56-133.517 177.034-177.034C327.419 27.747 410.793 5 500.496 5c89.011 0 172.089 22.747 249.232 68.242 74.473 43.517 133.517 102.56 177.033 177.034 45.495 77.143 68.242 160.418 68.242 249.726 0 89.308-22.747 172.583-68.242 249.726-43.516 74.473-102.56 133.517-177.033 177.033-77.143 45.495-160.418 68.242-249.726 68.242-89.308 0-172.583-22.747-249.726-68.242-74.473-43.516-133.517-102.56-177.034-177.033C27.747 672.585 5 589.31 5 500.002zm207.693 0c0 51.725 13.154 100.088 39.56 144.89 25.023 43.517 59.341 77.836 102.858 102.858 44.209 26.406 92.275 39.56 144.396 39.56h286.814V500.496c0-52.12-12.857-100.583-38.571-145.385-25.715-43.517-60.033-77.835-102.858-102.857-44.802-26.407-93.264-39.561-145.385-39.561-52.12 0-100.187 13.154-144.396 39.56-43.517 25.023-77.835 59.341-102.857 102.858-26.407 44.802-39.561 93.165-39.561 144.89z"/></svg>