<svg xmlns="http://www.w3.org/2000/svg" viewBox="0 0 1000 1000"><path d="M5 500.496c0 271.98 220.55 494.507 495.496 494.507 271.98 0 494.507-220.55 494.507-495.496C995.003 227.528 773.464 5 500.496 5 226.54 5 5 225.55 5 500.496zm150.33-18.791c14.835-13.846 28.682-31.649 46.484-46.484 28.681-28.681 28.681-28.681 57.363 0 13.846 14.835 28.681 28.682 43.516 44.506 5.934 7.912 5.934 14.835 0 22.747-21.758 20.77-52.417 49.45-63.297 59.341-8.9 9.89-14.835 7.912-22.747 0-21.758-21.758-43.517-44.506-58.352-56.374-5.934-4.945-9.89-14.835-2.967-23.736zm144.396 161.21c-11.868-11.869-11.868-13.847 0-25.715 16.814-18.791 36.594-36.594 57.363-58.352 10.88-8.901 12.857-10.88 22.747 0 42.528 39.56 78.133 78.132 119.671 114.726 8.901 7.912 15.824 8.9 22.747 0 35.605-36.594 76.155-75.165 112.748-114.726 10.88-10.88 16.813-8.901 28.682 0 18.79 15.824 44.505 41.539 58.351 58.352 10.88 10.879 10.88 13.846 0 25.714-65.275 66.264-130.55 130.55-194.835 193.847-11.869 11.868-15.825 19.78-21.759 15.824-40.55-44.505-83.077-87.033-126.594-130.55-27.692-26.703-55.384-55.384-79.12-79.12zm0-278.903c-6.923-9.89-9.89-13.846 0-24.725 8.901-8.901 198.792-205.715 200.77-210.66 4.945-4.945 7.912-3.956 11.868 0 50.44 46.483 97.913 98.901 144.396 144.396 20.77 20.77 43.517 42.527 65.275 66.264 10.88 9.89 7.912 11.868 0 20.77-2.967 5.933-36.593 39.56-54.395 58.35-13.847 14.836-21.759 14.836-32.638 3.957-36.593-39.56-77.143-76.154-112.748-114.726-9.89-12.857-13.846-10.879-22.747 0-41.538 38.572-109.78 105.825-119.67 114.726-8.902 8.901-13.847 8.901-22.748 0-9.89-8.901-40.55-39.56-57.363-58.352zM436.21 502.474c-9.89-10.879-7.912-14.835 0-22.747 21.759-23.736 41.539-44.506 63.297-65.275 2.967-3.956 9.89-3.956 15.824 0 8.902 7.912 47.473 41.539 73.187 69.23 5.935 5.935 4.946 9.891-2.967 18.792-22.747 20.77-43.516 43.517-65.275 64.286-7.912 7.912-8.9 6.923-17.802-.989-11.868-8.901-45.494-42.528-66.264-63.297zm282.858 0c-7.912-7.912-9.89-14.835 0-22.747 21.759-23.736 44.506-44.506 61.32-61.319 10.878-9.89 15.823-6.923 21.758 0 21.758 21.758 42.527 43.517 68.242 67.253 2.967 4.945 2.967 7.912-1.979 12.857-25.714 21.758-41.538 39.56-66.263 60.33-9.89 10.88-14.836 12.857-24.726 2.967-7.912-6.923-51.429-54.396-58.352-59.34z"/></svg>