<svg xmlns="http://www.w3.org/2000/svg" width="1000" height="1000">
  <path d="M500.496 5C223.572 5 5 229.506 5 500.002c0 276.43 224.506 495.001 495.002 495.001 276.43 0 495.001-224.506 495.001-495.001C995.003 226.539 773.464 5 500.496 5zM185.99 723.024c-2.967-90.989-6.923-184.945 1.978-274.946 13.846-137.473 120.66-242.308 254.176-269.012 128.572-25.714 263.078 31.649 335.276 144.397 10.88 21.758 20.77 32.637 48.462 26.703 40.55-2.967 71.209 36.594 58.352 75.165-9.89 28.681-30.66 57.363-45.495 84.066-8.901 15.825-17.802 31.649-19.78 47.473-32.638 143.407-145.385 245.276-290.77 255.166-42.528 2.967-83.078 0-122.638 0H284.89c-49.45-1.978-98.901-41.539-98.901-89.012zm47.472-26.703c0 47.473 17.803 66.264 65.275 68.242H506.43c118.682 0 221.54-74.176 256.155-187.913 13.846-45.494 28.681-86.044 56.374-123.627 11.868-13.846 28.681-40.55 19.78-48.461-8.901-12.857-29.67 3.956-66.264 20.769-4.945-5.934-5.934-10.88-7.912-16.813-39.56-111.759-146.374-196.814-287.803-186.924-127.583 8.901-243.298 128.572-243.298 257.144zM376.87 438.188c-18.79-22.747 4.945-37.582 18.792-46.483 22.747-14.836 45.494-30.66 71.209-33.627 42.527-4.945 76.154 30.66 61.319 73.187-13.847 33.627-35.605 65.275-58.352 96.924-2.967 4.945-22.748 4.945-28.682.989-4.945-4.946-7.912-20.77-3.956-28.682 9.89-21.758 25.715-41.538 37.583-61.319 4.945-9.89 14.835-19.78 9.89-28.681-8.901-15.824-28.681-3.956-58.352 16.813-15.824 10.88-31.648 31.649-49.45 10.88z" style="fill:#000;fill-opacity:1;fill-rule:nonzero;stroke:none;"/>
</svg>
