<svg xmlns="http://www.w3.org/2000/svg" viewBox="0 0 1000 1000"><path d="m639.135 476.99-32.108-8.563 32.108-16.054c65.286-29.967 96.324-78.13 96.324-143.416 0-18.195-3.21-37.46-9.632-53.514-5.352-14.983-12.843-31.038-26.757-47.092-11.773-12.843-25.686-24.616-40.67-34.248-17.125-12.843-38.53-20.335-61.006-23.546-24.616-4.281-52.443-6.422-86.692-6.422h-24.616V38.178C486.086 18.914 470.032 5 450.767 5c-17.124 0-32.108 20.335-32.108 33.178v105.957H303.07c-26.757 0-47.092 6.422-58.865 17.125-10.703 10.702-14.984 29.967-14.984 56.724v534.065c0 26.757 5.352 44.951 14.984 57.794 9.633 11.773 32.108 16.055 58.865 16.055h115.59v138.064c0 13.914 10.702 31.038 32.107 31.038 22.476 0 35.32-13.913 35.32-31.038V825.898h11.772c37.46 0 69.568-3.211 97.395-6.422 26.757-3.21 50.303-9.633 70.638-18.195 32.108-12.843 56.724-34.248 75.989-65.286 19.265-29.968 28.897-61.006 28.897-98.465 0-77.06-42.81-134.854-131.643-160.54zm-315.73 268.637v-235.46h95.254v235.46zm0-308.238V224.405h95.254V437.39zm162.681 308.238v-235.46h2.14c53.514 0 94.185 9.633 119.871 26.757 29.968 21.406 44.951 50.303 44.951 88.833 0 81.34-54.583 119.87-160.54 119.87zm0-310.378V226.546c38.53 2.14 70.638 7.492 89.903 17.124 32.108 14.984 47.092 41.74 47.092 85.622 0 18.195-3.211 35.319-12.843 52.443-11.773 21.406-27.827 36.39-52.444 42.811-16.054 5.351-41.74 10.703-71.708 10.703z"/></svg>