<svg xmlns="http://www.w3.org/2000/svg" width="1000" height="1000">
  <path d="M500.496 995.003C229.506 995.003 5 776.431 5 499.507 5 229.507 223.572 5 500.496 5c272.968 0 494.507 221.54 494.507 494.507 0 270.99-218.572 495.496-494.507 495.496zM326.43 691.376c0 130.55 125.604 219.561 247.253 176.044 51.429-19.78 87.033-56.373 107.803-104.835 14.835-42.528 12.857-84.066 9.89-126.594 0-27.692 2.967-56.374 0-86.044-12.857-98.902-111.759-173.078-212.638-153.297-4.945 0-8.901 4.945-15.824 5.934 3.956 5.934 6.923 13.846 10.879 14.835 31.648 33.626 65.275 63.297 99.89 96.923 12.857 14.836 25.715 33.627 25.715 58.352 0 41.539 2.967 81.1 0 124.616 0 42.528-33.627 78.132-75.165 83.077-43.517 7.912-87.034-16.813-97.913-60.33-4.945-16.813-4.945-38.571-4.945-57.363 0-11.868-5.934-19.78-19.78-19.78h-53.407c-16.813 0-21.758 5.934-21.758 21.759zm0-282.858c1.978 58.352 21.758 105.824 67.253 141.429 43.516 37.582 94.945 49.45 149.34 40.55 15.825-2.968 17.803-10.88 5.935-22.748-26.704-26.703-56.374-53.407-86.044-80.11-19.78-20.77-41.539-42.528-41.539-73.187V287.858c0-54.396 54.396-93.956 105.825-82.088 43.516 8.901 72.198 41.538 72.198 91.978 0 8.901 0 21.759 2.967 30.66 0 4.945 6.923 12.857 11.868 14.835h64.286c8.9 0 12.857-4.945 15.824-14.835 1.978-62.308-6.923-122.638-55.385-170.11-53.407-47.474-114.725-62.309-181.978-42.528-67.253 22.747-111.76 68.242-123.627 136.484-7.912 35.604-6.923 70.22-6.923 156.264z" style="fill:#000;fill-opacity:1;fill-rule:nonzero;stroke:none;"/>
</svg>
