<svg xmlns="http://www.w3.org/2000/svg" viewBox="0 0 1000 1000"><path d="M5 500.496C5 225.55 226.54 5 500.496 5c272.968 0 494.507 222.528 494.507 494.507 0 274.946-222.528 495.496-494.507 495.496C225.55 995.003 5 772.475 5 500.496zm118.682 0 13.846 16.813h.989c45.495 41.539 148.352 103.847 203.737 118.682 50.44 11.868 109.78 18.791 165.165 18.791 44.506 0 85.056 0 129.561-11.868 90-22.747 157.253-51.429 231.43-125.605l15.824-15.824-376.815-388.682-341.21 350.11zm41.538 0 342.2-339.232 332.308 339.232c-66.264 52.418-125.605 90.99-213.627 109.78-42.528 14.836-74.176 14.836-118.682 14.836-191.869 0-243.297-58.352-339.232-122.638zm44.506 11.868h61.319c111.758 0 216.594 28.682 310.55 86.045l9.89.989h.99c48.461-5.935 110.77-29.67 177.033-67.253l15.824-16.814c-90-42.527-200.77-71.209-286.814-71.209-75.165 0-158.242 18.792-230.44 51.43zm151.32-30.66c63.296-19.78 270.99 1.979 356.044 39.561-40.55 26.704-79.12 40.55-124.615 43.517-72.199-41.539-147.364-69.23-231.43-83.077zm18.79 270.002L507.42 878.3l160.22-159.232c23.737-20.769 31.649-33.626 49.451-79.12-110.77 88.021-153.297 97.912-302.638 111.758zm76.155 28.681c52.417-6.923 113.736-19.78 162.198-46.483l-110.77 99.89z"/></svg>