<svg xmlns="http://www.w3.org/2000/svg" width="1000" height="1000">
  <path d="M706.887 5H954.04c-29.159 44.432-58.317 94.418-93.03 137.461C792.974 246.6 722.16 349.348 654.124 454.874c-11.108 15.273-11.108 23.604 0 40.266 18.05 23.605 34.712 54.152 47.209 77.756 91.64 133.296 179.116 272.146 267.98 405.442v9.72H731.88c-19.439 0-34.713-4.166-43.044-18.05-34.712-61.095-74.979-113.858-108.303-169.398-26.381-34.712-51.374-63.87-74.978-104.137C438.907 800.61 375.034 895.028 311.165 995H44.573c-4.166 0-11.108-6.942-13.885-6.942 2.777-9.72 13.885-23.605 23.604-33.324 98.584-148.57 202.721-302.693 302.693-452.651 13.885-16.662 8.331-29.159 0-47.21C262.567 311.859 169.538 171.62 73.731 28.605c-4.165-9.72-4.165-12.497-8.33-23.605h265.203c0 5.554 0 11.108 5.554 11.108 55.54 83.31 102.749 161.066 158.288 245.764 5.554 5.554 11.108 9.72 20.828 19.44C580.534 188.281 643.016 92.474 706.887 5zM118.163 943.626c5.554 0 5.554 4.165 5.554 4.165h123.577c24.993 0 40.266-9.72 54.151-27.77 79.145-124.965 158.289-242.987 238.822-366.564 5.554-4.165 13.885-16.662 23.604-23.604 84.699 122.188 163.843 247.153 247.153 369.34-38.878 15.274-52.763 9.72-74.979-19.438-52.763-79.145-102.749-159.678-155.512-238.822-5.554-2.777-11.108-12.497-22.216-18.05-12.496 15.273-23.604 29.158-9.719 49.985 61.094 80.533 113.857 162.455 169.397 247.153 4.165 4.166 13.885 15.274 18.05 15.274 45.82 2.777 90.253 0 140.239 0-5.554-11.108-11.108-20.828-15.274-26.382C758.261 746.46 648.57 582.616 545.821 420.161c-16.662-20.827-16.662-33.324 0-54.151 63.871-84.699 123.576-173.563 186.059-262.427 20.827-29.158 40.266-34.712 73.59-19.439-4.165 8.331-6.942 19.44-19.439 29.159-58.317 88.864-123.576 173.562-181.893 262.426-15.274 19.44-15.274 30.547 9.72 44.432 83.31-118.022 168.008-242.987 247.152-361.01 0-5.554 0-5.554-5.554-9.719h-90.252c-23.605 0-37.49 9.72-52.763 29.158-79.145 119.411-163.843 233.268-241.599 351.29-5.554 9.72-11.108 15.274-19.439 24.994C370.87 331.297 291.726 211.886 213.97 88.31c43.043-9.72 54.151-9.72 73.59 24.993 52.763 79.144 99.972 154.123 151.347 233.268 0 2.777 6.942 8.33 12.496 12.496 27.77-16.662 27.77-27.77 13.885-52.763-49.986-77.756-102.749-154.123-154.123-231.879-9.72-15.274-19.44-24.993-38.878-24.993h-91.641c-6.943 0-16.662 4.165-27.77 4.165 5.554 9.72 11.108 20.828 16.662 24.993 98.583 152.735 195.778 308.247 301.304 454.04 8.331 20.827 8.331 37.49 0 55.54-70.813 102.749-140.238 206.886-208.275 311.024-18.05 24.993-45.82 30.547-74.979 15.273l26.382-40.266c62.482-97.195 133.296-193.002 197.167-291.585 15.273-23.605 9.719-33.324-13.885-49.986-90.253 133.296-183.282 273.534-279.089 410.996z" style="fill:#000;fill-opacity:1;fill-rule:nonzero;stroke:none"/>
</svg>
