<svg xmlns="http://www.w3.org/2000/svg" viewBox="0 0 1000 1000"><path d="M5 500.496c0 271.98 220.55 494.507 495.496 494.507 271.98 0 494.507-220.55 494.507-495.496C995.003 227.528 773.464 5 500.496 5 226.54 5 5 225.55 5 500.496zm119.67 142.418c58.353-34.615 109.781-66.264 168.133-98.901v194.836c-55.385-32.638-109.78-65.275-168.132-95.935zm0-318.462c58.353-30.66 109.781-63.297 168.133-95.935v193.847c-58.352-32.637-109.78-64.286-168.132-97.912zm188.902 414.397V544.013c57.363 32.637 112.748 64.286 169.122 98.901-56.374 30.66-111.759 63.297-169.122 95.935zm0-316.485V227.528c57.363 33.627 112.748 66.264 169.122 96.924-56.374 33.626-111.759 65.275-169.122 97.912zm9.89 334.287c58.352-31.649 113.737-63.297 168.133-97.913v194.836c-54.396-32.637-109.78-62.308-168.132-96.923zm0-314.507c58.352-34.615 113.737-67.253 168.133-98.901V537.09c-54.396-32.638-109.78-64.286-168.132-94.946zm191.87 411.43V658.738c54.395 34.616 109.78 66.264 167.143 97.913-57.363 34.615-112.748 64.286-167.144 96.923zm0-316.484V343.243c54.395 31.648 109.78 64.286 167.143 98.901-57.363 30.66-112.748 62.308-167.144 94.946zm7.911 105.824c57.363-34.615 112.748-66.264 169.122-98.901v194.836c-56.374-32.638-111.759-65.275-169.121-95.935zm0-318.462c57.363-30.66 112.748-63.297 167.144-96.924v194.836c-54.396-32.637-109.78-64.286-167.143-97.912zm190.88 414.397V544.013c55.385 32.637 109.78 64.286 167.144 98.901-57.363 30.66-109.78 63.297-167.144 95.935zm0-316.485V228.517c55.385 32.638 109.78 65.275 167.144 95.935-57.363 33.626-109.78 65.275-167.144 97.912z"/></svg>