<svg xmlns="http://www.w3.org/2000/svg" viewBox="0 0 1000 1000"><path d="M750.214 72.119c74.324 44.12 133.547 103.343 177.667 177.667C972.594 326.775 995 410.179 995 500c0 89.82-22.406 173.225-67.119 250.214-44.12 74.324-103.343 133.547-177.667 177.667C673.225 972.594 589.821 995 500 995c-89.82 0-173.225-22.406-250.214-67.119-74.324-44.12-133.547-103.343-177.667-177.667C27.406 673.225 5 589.82 5 500s22.406-173.225 67.119-250.214c44.12-74.324 103.343-133.547 177.667-177.667C326.775 27.406 410.376 5 500.494 5c89.524 0 172.731 22.406 249.72 67.119zM199.447 286.306l301.047 584.327 300.06-584.327H642.626L501.481 582.418 356.386 286.306zm252.682 113.51c0 13.127 4.737 24.38 14.312 33.559 9.574 9.18 20.727 13.818 33.559 13.818 12.832 0 23.985-4.639 33.56-13.818 9.574-9.18 14.311-20.432 14.311-33.56 0-13.127-4.737-24.38-14.312-33.559-9.574-9.18-20.53-13.818-33.065-13.818-13.128 0-24.479 4.639-34.053 13.818-9.575 9.18-14.312 20.432-14.312 33.56zM668.29 625.847c0 13.128 4.64 24.38 13.819 33.56 9.18 9.18 20.431 13.818 33.559 13.818 13.128 0 24.38-4.639 33.56-13.818 9.179-9.18 13.818-20.432 13.818-33.56 0-13.127-4.64-24.38-13.819-33.559-9.18-9.18-20.431-13.818-33.559-13.818-13.128 0-24.38 4.639-33.56 13.818-9.179 9.18-13.818 20.432-13.818 33.56z"/></svg>