<svg xmlns="http://www.w3.org/2000/svg" width="1000" height="1000">
  <path d="M147.821 550.54v-85.773c0-7.797 1.3-7.797 14.296-7.797h79.275c0-44.186-5.198-72.777-6.498-109.166 0-51.984 1.3-88.372 18.194-142.955 29.891-98.77 88.373-158.55 196.239-187.142 98.77-31.19 226.13-3.898 315.801 70.178 7.798 7.798 9.097 7.798 0 16.895-7.797 7.798-35.089 46.785-64.98 80.575-7.797 9.097-5.198 10.397-18.194 0-45.486-33.79-100.068-46.786-157.25-45.486-144.255 3.899-137.757 77.976-137.757 317.1h231.327c12.996 0 12.996 0 12.996 11.697v79.275c0 11.697-3.899 14.296-12.996 14.296H386.947V871.54H723.54V728.585c0-9.097 1.3-10.397 9.097-10.397h100.069c16.895 0 19.494 1.3 19.494 3.899V995H147.82V876.738c1.3-2.599 2.6-2.599 14.296-2.599h74.077V562.237h-72.777c-16.895 0-15.596-5.199-15.596-11.697z" style="fill:#000;fill-opacity:1;fill-rule:nonzero;stroke:none;"/>
</svg>
