<svg xmlns="http://www.w3.org/2000/svg" viewBox="0 0 1000 1000"><path d="M728.422 516.66c9.674 21.498 16.123 46.221 15.049 74.169 0 55.895-42.997 115.016-68.795 120.39-5.375 1.075-151.563-2.15-151.563 2.15s2.15 82.769 0 82.769c-15.049 1.075-12.9-1.075-38.697 1.075v142.963h-87.068V798.287h-66.645v141.89h-89.218v-141.89H72.723l1.075-106.416h65.57c8.6 0 16.124 0 19.349-2.15 4.3-1.075 7.524-3.225 12.899-5.375 5.374-6.45 8.599-16.123 8.599-27.947V292.002c0-37.622-13.974-53.745-61.27-53.745H68.424v-91.368h173.061V5h89.218v141.889h66.645V5h87.068v142.964c35.472 2.15 62.345 7.524 88.143 13.974 25.798 8.599 49.446 19.348 69.87 33.322 24.723 17.199 41.921 42.997 48.37 75.244 3.225 16.124 4.3 36.547 3.225 55.896 0 9.674-2.15 20.423-7.524 33.322-3.225 13.974-9.674 26.873-16.124 36.547-6.45 7.525-16.123 17.199-32.247 29.023l-19.349 11.824 11.824 4.3c9.675 3.224 20.424 5.374 29.023 10.749 9.674 6.45 23.648 9.674 33.323 17.198 16.123 11.824 26.872 29.023 35.472 47.297zM330.703 245.78v170.912h23.648c91.368 0 180.586-8.6 178.436-88.144 0-76.318-79.544-82.768-202.084-82.768zm0 257.98v189.185c115.016 2.15 240.781-3.225 240.781-97.818 0-91.367-122.54-93.517-240.78-91.367zm299.901 491.236h-50.52V757.44h145.113v47.296h-94.593v51.596h92.443v47.296h-92.443zm300.977 0h-64.495l-41.922-77.394-45.146 77.394h-60.196l70.945-125.765-69.87-111.791h63.42l40.847 65.57 42.997-65.57h55.895l-67.72 111.79z"/></svg>