<svg width="32" height="32" viewBox="0 0 32 32" fill="none" xmlns="http://www.w3.org/2000/svg">
<path d="M9.24525 0.0640259L2.78125 6.52803H8.02925C8.73325 3.96803 11.4852 0.544026 12.3172 0.0640259H9.24525Z" fill="black"/>
<path d="M15.4532 6.52803V0.0640259H13.9812C11.242 2.03523 9.68258 5.19469 9.24525 6.52803H15.4532Z" fill="black"/>
<path d="M16.7012 6.52803H22.9732C21.514 3.04643 19.1439 0.768026 18.1412 0.0640259H16.7012V6.52803Z" fill="black"/>
<path d="M24.1892 6.52803H29.2772L22.7492 0.0640259H19.8692C21.9428 1.95843 23.3892 4.60803 24.1892 6.52803Z" fill="black"/>
<path d="M22.8133 32L29.2773 25.536L24.0293 25.536C23.3253 28.096 20.5733 31.52 19.7413 32L22.8133 32Z" fill="black"/>
<path d="M16.6053 25.536L16.6053 32L18.0773 32C20.8165 30.0288 22.376 26.8693 22.8133 25.536L16.6053 25.536Z" fill="black"/>
<path d="M15.3573 25.536L9.08535 25.536C10.5445 29.0176 12.9147 31.296 13.9173 32L15.3573 32L15.3573 25.536Z" fill="black"/>
<path d="M7.86935 25.536L2.78135 25.536L9.30935 32L12.1893 32C10.1157 30.1056 8.66935 27.456 7.86935 25.536Z" fill="black"/>
<path d="M6.74603 22.128C7.21536 22.128 7.67403 22.0693 8.12203 21.952C8.5807 21.8347 8.99136 21.6213 9.35403 21.312C9.7167 21.0027 9.9887 20.6293 10.17 20.192C10.362 19.744 10.458 19.2907 10.458 18.832C10.458 18.4373 10.3834 18.0587 10.234 17.696C10.0954 17.3333 9.8927 17.008 9.62603 16.72C9.35936 16.432 9.05536 16.1867 8.71403 15.984C8.38336 15.7813 8.0367 15.6107 7.67403 15.472C7.32203 15.3227 6.95936 15.184 6.58603 15.056C6.22336 14.9173 5.90336 14.6987 5.62603 14.4C5.3487 14.1013 5.21003 13.76 5.21003 13.376C5.21003 13.1627 5.24736 12.96 5.32203 12.768C5.3967 12.576 5.5087 12.4107 5.65803 12.272C5.81803 12.1333 5.99936 12.0373 6.20203 11.984C6.4047 11.92 6.60736 11.888 6.81003 11.888C7.06603 11.888 7.3167 11.9307 7.56203 12.016C7.80736 12.1013 7.99936 12.256 8.13803 12.48C8.28736 12.704 8.36736 12.944 8.37803 13.2H10.346C10.346 12.752 10.2554 12.3253 10.074 11.92C9.8927 11.504 9.62603 11.152 9.27403 10.864C8.9327 10.576 8.54336 10.3787 8.10603 10.272C7.67936 10.1653 7.24736 10.112 6.81003 10.112C6.35136 10.112 5.89803 10.176 5.45003 10.304C5.0127 10.4213 4.61803 10.64 4.26603 10.96C3.9247 11.2693 3.66336 11.6427 3.48203 12.08C3.31136 12.5067 3.22603 12.9493 3.22603 13.408C3.22603 13.792 3.29536 14.1707 3.43403 14.544C3.58336 14.9067 3.79136 15.232 4.05803 15.52C4.3247 15.808 4.62336 16.0533 4.95403 16.256C5.2847 16.448 5.63136 16.6187 5.99403 16.768C6.3567 16.9067 6.71936 17.0453 7.08203 17.184C7.4447 17.3227 7.7647 17.5413 8.04203 17.84C8.33003 18.1387 8.47403 18.48 8.47403 18.864C8.47403 19.152 8.39403 19.424 8.23403 19.68C8.07403 19.9253 7.85536 20.1013 7.57803 20.208C7.31136 20.304 7.03403 20.352 6.74603 20.352C6.47936 20.352 6.2127 20.3093 5.94603 20.224C5.69003 20.1387 5.4767 19.984 5.30603 19.76C5.14603 19.536 5.0607 19.2853 5.05003 19.008H3.08203C3.08203 19.4667 3.17803 19.9093 3.37003 20.336C3.56203 20.752 3.83936 21.104 4.20203 21.392C4.5647 21.6693 4.9647 21.8613 5.40203 21.968C5.85003 22.0747 6.29803 22.128 6.74603 22.128Z" fill="black"/>
<path d="M12.7808 22H19.2128V20.224H16.9888V12.016H19.2128V10.24H12.7808V12.016H15.0048V20.224H12.7808V22Z" fill="black"/>
<path d="M22.2075 22H28.8795V20.224H24.1915V10.24H22.2075V22Z" fill="black"/>
</svg>
