<svg xmlns="http://www.w3.org/2000/svg" viewBox="0 0 1000 1000"><path d="M500.496 5C223.572 5 5 229.506 5 500.002c0 276.43 224.506 495.001 495.002 495.001 276.43 0 495.001-224.506 495.001-495.001C995.003 226.539 773.464 5 500.496 5zM194.891 690.387c1.978-6.923 4.945-13.846 9.89-19.78 87.033-153.298 175.055-308.573 265.056-460.881.989-5.934 3.956-12.857 10.879-17.802 9.89-11.869 25.714-11.869 35.604.989 3.956 2.967 8.902 7.912 9.89 12.857 21.759 39.56 47.473 79.121 68.243 121.649 14.835 23.736 14.835 51.428 0 78.132-53.407 92.967-106.814 187.912-162.199 280.88-15.824 26.703-39.56 39.56-71.209 39.56H225.55c-4.945 0-8.9 0-10.879-1.978-17.802-4.945-24.725-16.813-19.78-33.626zm355.056.989c2.967-4.945 4.945-9.89 5.934-14.835 30.66-53.407 60.33-103.847 92.967-157.254 0-1.978 0-1.978.99-3.956 16.813-24.725 38.57-24.725 53.406 0 33.627 54.396 62.308 108.792 93.956 162.199 1.978 1.978 1.978 3.956 3.957 5.934 7.912 23.736-1.979 42.527-27.693 42.527h-190.88c-4.945 0-8.9 0-15.824-1.978-11.868-4.945-19.78-16.813-16.813-32.637z"/></svg>