<svg xmlns="http://www.w3.org/2000/svg" width="1000" height="1000">
  <path d="M499.507 995.003h.99c89.01 0 172.088-22.45 249.23-67.253 74.474-44.209 133.814-103.55 178.023-178.022 44.803-77.143 67.253-160.418 67.253-249.726 0-89.308-22.45-172.583-67.253-249.726-44.209-74.473-103.55-133.814-178.022-178.023C672.585 27.45 589.31 5 500.002 5c-89.308 0-172.583 22.45-249.726 67.253-74.473 44.209-133.814 103.55-178.023 178.023C27.451 327.419 5 410.694 5 500.002c0 89.308 22.45 172.583 67.253 249.726C116.462 824.2 175.803 883.54 250.276 927.75c77.143 44.803 160.22 67.253 249.231 67.253zm-310.55-325.385c-3.956-7.913-2.967-257.144 1.978-316.485 0-17.802 5.934-21.758 22.747-12.857 52.418 31.648 106.814 61.319 161.21 91.978 23.736 12.857 45.494 26.704 69.23 39.56 3.956 2.968 3.956 4.946 3.956 10.88-1.978 8.901-1.978 18.791 0 27.692 0 3.956 0 6.923-3.956 8.901-20.769 10.88-41.538 22.748-60.33 34.616-4.945-3.956-6.923-6.923-11.868-9.89-15.824-14.835-43.516-17.802-64.286-7.912-21.758 11.868-35.604 35.604-31.648 60.33 3.956 26.703 27.692 46.483 53.407 49.45 31.648 1.978 55.384-20.769 61.319-44.505 1.978-7.913 1.978-14.836 1.978-22.748 0-3.956 0-5.934 2.967-6.923 18.79-11.868 39.56-23.736 58.351-33.626 3.957-2.967 5.935-2.967 8.902 0 6.923 5.934 17.802 10.879 24.725 14.835 4.945.989 5.934 2.967 5.934 6.923v266.045c0 9.89-6.923 20.77-15.824 15.824 0 0-63.297-37.582-90.99-53.407-56.373-31.648-112.747-64.286-168.132-96.923-9.89-5.934-21.758-12.857-29.67-21.758zm23.736-352.09c-9.89-5.934-9.89-18.79 0-24.725 67.253-37.582 134.506-77.143 201.759-114.726 29.67-17.802 58.352-34.615 88.022-51.428h1.978c73.187 40.55 145.385 82.088 217.583 124.616 24.726 12.857 49.451 27.692 74.176 41.538 9.89 5.934 9.89 16.813-1.978 24.725-78.132 44.506-157.253 90-237.363 137.473-1.978.99-4.945 1.979-7.912 3.957-7.912-10.88-18.791-15.825-32.638-17.803-.989-.989-1.978-3.956-1.978-5.934v-71.209c5.934-1.978 9.89-3.956 14.836-5.934 21.758-8.901 35.604-34.615 32.637-57.363-2.967-27.692-22.747-48.461-49.45-52.418-23.737-3.956-49.451 9.89-60.33 30.66-15.825 33.626-.99 70.22 34.615 81.1 5.934 1.977 6.923 5.933 6.923 11.867v62.308c0 3.956-.989 5.934-5.934 6.923-7.912.99-18.791 5.934-29.67 15.825-7.913-3.957-18.792-9.89-30.66-16.814-71.209-41.538-143.407-82.088-214.616-122.638zm301.65 504.398V561.815c0-5.934.988-7.912 6.922-8.901 8.902-4.945 15.825-7.912 23.737-12.857 3.956-4.945 5.934-4.945 9.89-1.978 18.791 9.89 36.593 21.758 55.385 32.637 4.945 1.978 5.934 3.956 5.934 9.89-2.967 32.638 14.835 58.352 46.484 64.286 22.747 3.956 41.538-2.967 56.373-21.758 14.836-17.802 15.825-42.528 6.923-60.33-9.89-20.77-26.703-30.66-49.45-32.637-17.803-.99-33.627 4.945-45.495 19.78-4.945 3.956-6.923 2.967-10.88.989-18.79-9.89-36.593-20.77-55.384-31.649-3.956-1.978-5.934-4.945-3.956-8.9 2.967-11.869.99-23.737-2.967-33.627 17.802-9.89 33.626-20.77 49.45-29.67 102.858-57.363 160.221-90.99 192.859-109.781 7.912-3.956 18.79-1.978 18.79 9.89v314.506c0 9.89-2.966 15.825-12.856 19.78a9523.235 9523.235 0 0 1-145.386 83.078c-42.527 26.703-87.033 51.429-130.55 77.143-12.857 6.923-15.824-.989-15.824-19.78z" style="fill:#000;fill-opacity:1;fill-rule:nonzero;stroke:none;"/>
</svg>
