<?xml version="1.0" encoding="utf-8"?>
<!-- Generator: Adobe Illustrator 26.0.1, SVG Export Plug-In . SVG Version: 6.00 Build 0)  -->
<svg version="1.1" id="Layer_1" xmlns="http://www.w3.org/2000/svg" xmlns:xlink="http://www.w3.org/1999/xlink" x="0px" y="0px"
	 viewBox="0 0 1000 1000" style="enable-background:new 0 0 1000 1000;" xml:space="preserve">
<g>
	<path d="M631,303c0-72.3-58.6-131-131-131c-72.3,0-131,58.6-131,131v131h262V303z"/>
	<path d="M667,474H333c-15.5,0-28,12.5-28,28v256c0,15.5,12.5,28,28,28H667c15.5,0,28-12.5,28-28V502C695,486.5,682.4,474,667,474z
		 M501,692c-22.1,0-40-17.9-40-40c0-14.8,8-27.7,20-34.6V564c0-11,9-20,20-20c11,0,20,9,20,20v53.3c12,6.9,20,19.8,20,34.6
		C541,674.1,523.1,692,501,692z"/>
	<path d="M500.5,5C223.6,5,5,229.5,5,499.5C5,773.5,226.5,995,499.5,995C776.4,995,995,770.5,995,499.5C995,223.6,770.5,5,500.5,5z
		 M735,758c0,37.6-30.4,68-68,68H333c-37.5,0-68-30.4-68-68V502c0-36.2,28.3-65.8,64-67.9V303v-1h0c0.5-94,76.9-170,171-170
		c94.1,0,170.4,76,171,170h0v1v131.1c35.7,2.1,64,31.7,64,67.9V758z"/>
</g>
</svg>
