<svg xmlns="http://www.w3.org/2000/svg" viewBox="0 0 1000 1000"><path d="M31,340.85h53.7V611.08H211.58v48.07H31Zm300.12,0H392.6l85.75,318.3h-55l-16.46-66.69H316.81l-16.45,66.69h-55ZM395.2,544.39,371.38,447q-2.6-9.52-5-19.27t-4.55-19.27q-2.16,9.52-4.54,19.27T352.76,447l-24.25,97.44Zm189.25-16-81-187.52h55.87l52,129,52.4-129h55.86L638.15,528.37V659.15h-53.7ZM765,340.85h102.2A130,130,0,0,1,898,344.53a74.65,74.65,0,0,1,27.72,13.21,80.34,80.34,0,0,1,20.57,22.95,86.15,86.15,0,0,1,10.83,28.58A168.71,168.71,0,0,1,959.91,440a166.45,166.45,0,0,1-3,31.4,84.14,84.14,0,0,1-11.48,29.23,79.3,79.3,0,0,1-21.65,22.74,85.37,85.37,0,0,1-28.8,13.2L969,659.15h-57.6l-71.89-120H818.3v120H765Zm102.2,150.27A39.46,39.46,0,0,0,884.77,487a32,32,0,0,0,13.43-12.13A50,50,0,0,0,904.91,458a93.94,93.94,0,0,0,1.73-18,97.42,97.42,0,0,0-1.73-18.19,47.79,47.79,0,0,0-6.71-16.89A32.61,32.61,0,0,0,884.77,393a39.6,39.6,0,0,0-17.54-4.11H818.3v102.2Z"/></svg>