<svg xmlns="http://www.w3.org/2000/svg" viewBox="0 0 1000 1000"><path d="M500,0C223.858,0,0,223.858,0,500s223.858,500,500,500,500-223.858,500-500S776.142,0,500,0ZM141.339,499.047c0-198.083,160.578-358.661,358.661-358.661,161.703,0,298.395,107.017,343.153,254.086-13.16-10.164-29.495-15.944-46.709-15.944-31.506,0-58.627,19.122-70.377,46.367-31.16-95.067-120.582-163.736-226.068-163.736-131.382,0-237.887,106.506-237.887,237.887,0,14.034,1.285,27.76,3.616,41.127-.47,33.956-28.105,61.348-62.173,61.348-24.617,0-45.799-14.342-55.869-35.092-4.15-21.828-6.348-44.347-6.348-67.383Zm647.331,259.89c21.032,27.434,15.843,66.723-11.591,87.755-27.433,21.032-66.722,15.843-87.755-11.591l-16.609-21.664c-51.235,28.207-110.096,44.271-172.716,44.271-163.46,0-301.351-109.359-344.569-258.897,2.221,1.806,4.543,3.497,6.968,5.053,12.279,7.878,26.511,12.042,41.157,12.042,20.273,0,39.378-7.846,53.796-22.093,6.747-6.667,12.107-14.377,15.927-22.772,30.503,96.18,120.444,165.893,226.721,165.893,34.91,0,68.029-7.582,97.895-21.09l-23.965-31.26c-21.032-27.433-15.843-66.722,11.591-87.754,27.434-21.032,66.723-15.843,87.755,11.591l21.161,27.602c27.339-38.735,43.451-85.96,43.451-136.976,0-13.849-1.25-27.398-3.522-40.599-.071-1.1-.138-2.2-.138-3.319,0-34.361,27.855-62.217,62.217-62.217,23.659,0,44.174,13.23,54.675,32.679,4.935,23.712,7.542,48.278,7.542,73.455,0,90.288-33.373,172.775-88.442,235.823l18.451,24.067Z"/></svg>