<svg xmlns="http://www.w3.org/2000/svg" width="1000" height="1000">
  <path d="M691.2 420.559c0-73.152 37.592-128.016 99.568-155.448 59.944-23.368 123.952-5.08 165.608 45.72 44.704 44.704 50.8 118.872 17.272 172.72-31.496 54.864-94.488 87.376-159.512 73.152-81.28-18.288-133.096 18.288-141.224 105.664-9.144 58.928-50.8 100.584-105.664 100.584-49.784 4.064-104.648-32.512-109.728-82.296-4.064-23.368-4.064-41.656-9.144-59.944-33.528-113.792-94.488-154.432-209.296-154.432-15.24 0-27.432 0-41.656 4.064-31.496 13.208-54.864 40.64-64.008 73.152-4.064 9.144-8.128 18.288-4.064 31.496 9.144 36.576-14.224 73.152-50.8 78.232-36.576 4.064-68.072-18.288-73.152-54.864-4.064-36.576 23.368-64.008 59.944-68.072 54.864-5.08 104.648-50.8 108.712-105.664 0-9.144-1.016-16.256-4.064-27.432-18.288-49.784-4.064-100.584 36.576-137.16 36.576-27.432 91.44-32.512 132.08-5.08 41.656 28.448 64.008 78.232 50.8 129.032-5.08 31.496 4.064 58.928 22.352 82.296 32.512 49.784 82.296 77.216 146.304 81.28 91.44 0 133.096-27.432 133.096-127zm81.28 35.56c0 14.224 6.096 27.432 18.288 23.368 9.144 0 18.288-13.208 18.288-23.368V402.27c27.432 22.352 46.736 45.72 70.104 68.072 4.064 5.08 13.208 9.144 21.336 9.144 9.144 0 14.224-13.208 14.224-23.368V355.535c0-8.128 0-22.352-18.288-22.352-13.208 0-17.272 9.144-17.272 22.352v55.88h-6.096c-22.352-23.368-39.624-45.72-64.008-69.088-3.048-4.064-11.176-9.144-22.352-9.144-8.128 0-14.224 14.224-14.224 22.352z" style="fill:#000;fill-opacity:1;fill-rule:nonzero;stroke:non"/>
</svg>
