<svg xmlns="http://www.w3.org/2000/svg" viewBox="0 0 1000 1000"><path d="M278.642 277.707V231.28c0-126.015 99.486-224.174 218.87-224.174 110.097 0 209.583 79.588 225.5 194.992 3.98 45.1-15.917 75.61 21.224 75.61 98.16-11.94 173.769 27.855 222.848 114.076 80.916 141.933-23.876 327.64-188.36 327.64-15.917 0-34.488 0-46.426 6.633-9.286 3.98-5.306 29.182-5.306 45.1 0 149.892-137.954 249.378-279.887 214.89-103.465-25.204-183.054-129.996-168.463-241.42 0-18.57-6.632-25.203-25.203-25.203-50.406 6.633-95.506-2.653-140.606-27.856-90.2-61.018-129.995-155.198-95.507-259.99 37.142-112.75 181.728-184.38 261.316-153.87zm3.98 7.959c10.612 25.203 21.223 45.1 30.509 59.692 30.509 55.712 74.283 94.18 133.974 100.812v98.16c26.53 0 71.63 2.652 100.812 2.652 19.898 34.489 29.183 63.671 50.407 94.18 27.856 41.12 68.976 59.692 114.077 75.61-9.286-80.916-80.916-145.913-164.484-169.79v-91.527c0-10.612 0-3.98 41.121-19.897 83.568-35.815 114.077-84.895 128.669-149.892-55.713 0-133.975 70.303-149.892 115.404-19.898 54.385-11.939 54.385-91.527 50.406-7.96 0-19.898-2.653-29.183-5.306-25.203-79.589-94.18-153.872-164.483-160.504zm5.306 431.105c64.997-6.632 139.28-86.22 155.198-160.504-75.61 18.571-160.504 104.792-155.198 160.504z"/></svg>