<svg xmlns="http://www.w3.org/2000/svg" width="1000" height="1000">
  <path d="M5 500.496c0 271.98 220.55 494.507 495.496 494.507 271.98 0 494.507-220.55 494.507-495.496C995.003 227.528 773.464 5 500.496 5 226.54 5 5 225.55 5 500.496zm146.374 170.11c-48.462-24.725-29.67-96.923 13.846-135.494 0 26.703 6.923 60.33 31.649 71.209 35.604 18.79 72.198 23.736 112.747 18.79 108.792-13.845 206.704-49.45 301.65-103.846 50.44-27.692 90.99-54.395 131.539-93.956 36.593-39.56 54.395-75.165 53.406-118.682 0-31.648-39.56-37.582-40.55-48.461 32.638 0 63.298 3.956 90.99 13.846 35.605 12.857 44.506 44.506 35.605 80.11-8.901 57.363-78.132 107.803-153.298 167.143-82.088 54.396-172.088 98.902-266.044 126.594-49.451 17.803-103.847 30.66-153.298 40.55-58.351 5.934-107.802 3.956-158.242-17.802zm95.935-116.703c0-42.528 0-82.088 3.956-122.638 0-40.55 8.9-77.143 40.55-98.901 26.703-23.737 57.362-31.649 93.956-31.649h235.385c25.714 0 54.396 7.912 76.154 21.759 17.802 9.89 31.648 22.747 40.55 39.56 4.945 9.89 4.945 14.835 0 24.725-8.902 11.869-58.352 57.363-81.1 66.264 0-34.615-14.835-62.307-54.395-62.307H404.562c-40.55 0-55.385 13.846-55.385 58.351 0 12.858 5.934 134.506 5.934 135.495-48.462 23.737-102.857 21.759-107.802-30.66zm206.704 134.506c102.857-36.594 202.747-86.044 297.693-149.341 3.956 40.55 0 72.198-18.791 98.901-17.803 27.693-49.451 40.55-86.045 50.44 18.792 22.747 32.638 40.55 45.495 58.352 9.89 17.802 28.681 40.55 4.945 40.55h-81.1c-4.944 0-13.845-8.902-17.801-13.847-17.803-21.758-31.649-44.506-49.451-67.253-16.813-22.747-36.594-17.802-94.946-17.802z" style="fill:#000;fill-opacity:1;fill-rule:nonzero;stroke:none;"/>
</svg>
