<svg xmlns="http://www.w3.org/2000/svg" width="1000" height="1000">
  <path d="M5 500.002v-.396.396c.099 89.505 22.55 172.682 67.253 249.726C116.462 824.2 175.803 883.54 250.276 927.75c77.143 44.803 160.418 67.253 249.726 67.253 89.308 0 172.583-22.45 249.726-67.253C824.2 883.541 883.54 824.2 927.75 749.728c44.803-77.143 67.253-160.418 67.253-249.726 0-89.308-22.45-172.583-67.253-249.726-44.209-74.473-103.55-133.814-178.022-178.023C672.585 27.45 589.31 5 500.002 5c-89.308 0-172.583 22.45-249.726 67.253-74.473 44.209-133.814 103.55-178.023 178.023C27.55 327.32 5.099 410.496 5 500.002zm157.253 205.22V309.616c41.539-23.736 84.066-48.461 125.605-73.187 32.638-18.791 64.286-37.582 96.923-55.384 13.847-9.89 27.693-16.814 40.55-24.726 24.725-14.835 48.462-29.67 73.187-44.505 4.945-3.957 8.901-3.957 13.846 0 1.978 0 10.88 5.934 24.726 13.846 28.681 16.813 80.11 47.472 142.418 83.077 32.637 17.802 67.253 37.582 100.88 55.385 22.747 13.846 46.483 26.703 69.23 39.56v397.584l-20.77 11.868c-5.933 3.956-12.856 8.901-18.79 10.88-37.583 22.747-77.143 46.483-115.715 69.23-30.66 16.814-60.33 34.616-90 51.43-19.78 9.89-36.594 20.768-54.396 31.648-10.88 6.923-21.758 13.846-33.627 20.769-6.923 4.945-10.879 2.967-17.802 0-5.934-4.945-152.308-88.022-162.198-92.967-30.66-18.792-61.32-34.616-90.99-51.43-27.692-15.823-54.395-30.659-83.077-47.472zm24.726-28.681c0 6.923 3.956 12.857 11.868 18.791 17.802 9.89 36.593 20.77 54.396 30.66 79.12 44.505 157.253 90 232.418 134.505 8.901 3.956 7.912 5.934 7.912-7.912V714.123c0-9.89-1.978-13.846-8.901-15.824-18.791-10.88-36.594-21.758-54.396-32.637-29.67-16.814-59.34-33.627-89.011-51.43-9.89-6.922-15.824-13.845-15.824-24.725V428.298c0-5.934 0-10.88-4.945-13.846-14.836-8.901-28.682-16.813-42.528-24.725-27.692-16.814-54.396-32.638-84.066-49.451-6.923-2.967-6.923-3.956-6.923 5.934zm16.813-5.934c0-5.934 5.934-11.869 11.868-11.869 6.923 0 11.868 5.935 11.868 11.869s-4.945 11.868-11.868 11.868c-5.934 0-11.868-5.934-11.868-11.868zm1.978-359.013c-6.923 7.913 0 7.913 6.923 12.858 37.583 20.769 77.143 42.527 116.704 66.264 9.89 2.967 13.846 2.967 20.769.989 56.374-38.572 149.341-92.968 157.253-90 15.825 4.944 72.198 38.57 119.671 67.252 11.868 5.934 22.747 12.857 32.637 18.792 6.924 5.934 13.847 5.934 26.704 0 26.703-12.858 108.791-58.352 129.56-76.155-5.933-6.923-245.275-136.484-277.912-156.264-22.748-12.857-40.55-11.868-64.286 2.967-46.484 25.715-90.99 52.418-136.484 80.11-20.77 12.858-42.528 25.715-63.297 37.583-12.857 6.923-23.736 11.868-35.605 18.791-9.89 4.945-20.769 11.868-32.637 16.813zm37.582 333.298c0-5.934 5.935-11.868 11.869-11.868 6.923 0 11.868 5.934 11.868 11.868 0 6.923-4.945 11.868-11.868 11.868-5.934 0-11.869-4.945-11.869-11.868zm41.539-27.692c0-5.934 4.945-11.868 11.868-11.868 5.934 0 11.868 5.934 11.868 11.868 0 6.923-5.934 11.868-11.868 11.868-6.923 0-11.868-4.945-11.868-11.868zm66.264-35.605c0 2.967 3.956 7.912 5.934 9.89 34.616 20.77 68.242 40.55 102.858 61.32 8.9 4.944 18.79 10.879 27.692 16.813 7.912 2.967 5.934 2.967 5.934-4.945V525.22c0-9.89-2.967-14.835-8.901-18.79-26.703-14.836-53.407-29.671-79.121-43.517-15.824-9.89-32.638-18.792-49.45-28.682-6.924-3.956-4.946-3.956-4.946 3.956zm10.88-170.11c1.977.989 4.944 1.978 7.911 3.956 25.715 13.846 29.67 12.857 57.363 27.692 21.758 12.858 43.517 25.715 65.275 39.56 6.923 4.946 16.813 4.946 28.681 0 24.726-16.812 50.44-31.648 76.155-45.494 12.857-7.912 25.714-14.835 37.582-21.758 9.89-5.934 9.89-3.956 3.956-8.901-47.473-25.715-118.682-66.264-136.484-77.143-5.934 5.934-13.846 8.9-22.747 14.835-31.649 17.802-85.055 49.45-117.693 67.253zm133.516-140.44c0-6.923 4.945-11.868 11.868-11.868 5.934 0 11.868 4.945 11.868 11.868 0 5.934-5.934 11.868-11.868 11.868-6.923 0-11.868-5.934-11.868-11.868zm0-48.462c0-5.934 4.945-11.868 11.868-11.868 5.934 0 11.868 5.934 11.868 11.868 0 6.923-5.934 11.868-11.868 11.868-6.923 0-11.868-4.945-11.868-11.868zm1.978-45.495c0-6.923 4.945-11.868 11.868-11.868 5.934 0 11.868 4.945 11.868 11.868 0 5.935-5.934 11.869-11.868 11.869-6.923 0-11.868-5.934-11.868-11.869zm21.758 679.453c0 9.89 0 9.89 6.924 5.934 18.79-12.857 37.582-23.736 56.373-35.604 77.143-44.506 155.276-91.978 232.419-133.517 9.89-6.923 11.868-9.89 11.868-19.78V335.33c-.99 1.187-74.176 45.494-74.176 45.494-18.791 10.88-35.605 20.77-54.396 29.67-10.88 5.935-15.824 13.847-15.824 27.693v151.32c0 12.857-3.956 19.78-13.846 27.692-46.484 24.725-92.968 51.429-137.473 81.099-8.902 1.978-11.869 8.901-11.869 18.791zm0-191.868c0 11.868-1.978 11.868 6.924 4.945 40.55-22.748 81.099-46.484 124.615-72.198 4.945-4.946 6.923-8.902 6.923-15.825V440.166c0-20.769 8.902-10.879-6.923-.989-29.67 14.835-59.34 31.649-89.01 48.462-9.891 5.934-19.781 11.868-30.66 17.802-9.89 5.934-11.869 9.89-11.869 17.802v70.22zM697.31 617.2c0-5.934 5.934-11.868 11.868-11.868 6.923 0 11.868 5.934 11.868 11.868 0 6.923-4.945 11.868-11.868 11.868-5.934 0-11.868-4.945-11.868-11.868zm41.539 26.703c0-5.934 5.934-11.868 11.868-11.868s11.868 5.934 11.868 11.868c0 6.923-5.934 11.868-11.868 11.868s-11.868-4.945-11.868-11.868zm42.527 22.748c0-5.935 5.934-11.869 11.868-11.869 6.924 0 11.869 5.934 11.869 11.869 0 6.923-4.945 11.868-11.869 11.868-5.934 0-11.868-4.945-11.868-11.868zm45.495-331.32zM519.287 222.583c0-5.934-5.934-11.868-11.868-11.868-6.923 0-11.868 5.934-11.868 11.868m25.714-45.495c0-6.923-5.934-11.868-11.868-11.868-6.923 0-11.868 4.945-11.868 11.868" style="fill:#000;fill-opacity:1;fill-rule:nonzero;stroke:none;"/>
</svg>
