<?xml version="1.0" encoding="utf-8"?>
<!-- Generator: Adobe Illustrator 26.0.1, SVG Export Plug-In . SVG Version: 6.00 Build 0)  -->
<svg version="1.1" xmlns="http://www.w3.org/2000/svg" xmlns:xlink="http://www.w3.org/1999/xlink" x="0px" y="0px"
	 viewBox="0 0 1000 1000" style="enable-background:new 0 0 1000 1000;" xml:space="preserve">
<g id="Layer_1">
	<g>
		<polygon points="616.3,520.3 594,507.3 559.1,527.5 559.4,615.1 597.5,593.1 597.4,549.3 631.9,529.4 		"/>
		<path d="M690.2,506.6C690.1,506.6,690.1,506.7,690.2,506.6c-1.6,1.2-3.2,2.3-4.7,3.5c0,0,0,0,0,0c-1.6,1.2-3.1,2.3-4.6,3.5
			c0,0,0,0,0,0c-1.5,1.2-3.1,2.4-4.6,3.6c0,0,0,0,0,0c-1.5,1.2-3,2.4-4.6,3.7c0,0,0,0,0,0l0.1,29.3l38.1-22l-0.1-35.1
			C703,497.5,696.5,502,690.2,506.6z"/>
	</g>
	<path d="M778.2,246.5"/>
	<path d="M500.5,5C223.6,5,5,229.5,5,499.5C5,773.5,226.5,995,499.5,995C776.4,995,995,770.5,995,499.5C995,223.6,770.5,5,500.5,5z
		 M665.6,841.3L665.6,841.3l-17.3-10l0.1,19.4l-117.9,68.1v0l-165.1-96l-44.2,25.7l-95.4-55l0.2-65.7l-28.6-16.5l0.1-43.8l12.1-7
		l-0.3-96.2l-0.9-0.5l-0.6-207.8l128.4,74.7l-18.9,11l0,0l-0.3,90l-17,65.1l-0.1,38.8l16.8,9.7l33.8,19.5l142,86.5v0l0,0l0,0v0
		l18.9-11l59.8,8.7l5-9.4l31.7,7.6l9.8-20.2l37.8,14.6l37.6-58.2l9.9,8.8l31.6-44.1l5,3.6l39.9-52l0.2,73.8l-18.2,10.5l21.7,12.6
		l0,0l0.2,76.8L665.6,841.3z M802.4,408.4v43.5c-8.1,2-16.2,4.4-24.1,7.1l0.2,66.5l-286,165.1l0,0L369.8,539.9l0.3-89.9l122.4,71.1
		l0-11.8l0,0l-0.3-97.8l0,0l0,0L208.1,246.5l286-165.1l284.1,165.1l0,10l0.3,99.6l-0.5,0.3l0.1,37.7l-71.1-42
		c0,0-48.3,16.2-75.7,32.3c-27.4,16.1-53,35.2-76.2,56.9l69.6,40.4l19,11.1l6.1,3.5c1.1-1.1,2.3-2.1,3.4-3.1c0.5-0.5,1-0.9,1.5-1.4
		c1-0.9,2-1.8,3-2.7c1.7-1.5,3.5-3.1,5.2-4.6c0,0,0,0,0,0c0,0,0,0,0,0c1-0.8,1.9-1.7,2.9-2.5c0.5-0.4,1-0.9,1.6-1.3c0,0,0,0,0,0
		c0.3-0.3,0.6-0.5,0.9-0.8c0,0,0,0,0,0c1-0.8,1.9-1.6,2.9-2.4l0,0c0,0,0,0,0,0c4.2-3.4,8.5-6.8,12.8-10.1c0.2-0.2,0.4-0.3,0.7-0.5
		c4.2-3.2,8.5-6.3,12.8-9.3c0.4-0.3,0.7-0.5,1.1-0.8c1.9-1.3,3.7-2.6,5.6-3.8c0.3-0.2,0.6-0.4,0.9-0.6c2.1-1.4,4.3-2.8,6.4-4.2
		c0.4-0.2,0.8-0.5,1.2-0.7c1.8-1.1,3.5-2.2,5.3-3.3c0.6-0.4,1.1-0.7,1.7-1.1c2.1-1.3,4.3-2.6,6.4-3.9c1.9-1.1,3.7-2.2,5.6-3.2
		c0.5-0.3,1-0.6,1.5-0.9c1.5-0.8,3.1-1.7,4.6-2.5c0.4-0.2,0.8-0.4,1.1-0.6c1.9-1,3.9-2,5.9-3c0.2-0.1,0.5-0.2,0.7-0.4
		c1.8-0.9,3.6-1.7,5.3-2.5c0.4-0.2,0.7-0.3,1.1-0.5c4.1-1.9,8.3-3.7,12.5-5.4c0.2-0.1,0.4-0.1,0.6-0.2c2.1-0.8,4.1-1.6,6.2-2.4
		c0.1,0,0.1,0,0.2-0.1c10.1-3.8,20.4-6.9,30.9-9.5V408.4L802.4,408.4C802.5,408.3,802.5,408.4,802.4,408.4z"/>
</g>
<g id="Layer_2">
</g>
</svg>
