<svg xmlns="http://www.w3.org/2000/svg" width="1000" height="1000">
  <path d="M710.508 15.851c-13.84 8.073-25.372 13.84-36.905 20.76 0 1.153 1.153 2.306 1.153 2.306 4.613-1.153 10.38-2.307 19.606-3.46-6.92 5.767-10.38 8.073-14.993 11.533 1.153 0 1.153 1.153 1.153 1.153 10.38-3.46 19.606-8.073 29.986-11.533 16.146-4.613 21.913 1.154 20.76 16.147 0 2.306-2.307 5.766-1.154 6.92 18.453 12.686 2.307 23.065-1.153 34.598-5.767 13.84-10.38 28.833-17.3 42.672-2.306 5.767-5.766 11.533-10.38 16.147-12.686 13.84-9.226 24.219 0 38.059 18.454 26.525 35.753 53.051 51.9 80.73 11.532 20.76 3.46 46.132-16.147 59.972-8.073 5.767-14.993 13.84-23.066 19.606-9.226 8.073-18.453 10.38-19.606-5.766-21.913 3.46-26.526 1.153-34.599-20.76-9.226-23.066-9.226-23.066-32.292-16.146h-9.227c1.153-3.46 2.307-5.766 3.46-9.226-19.606-6.92-122.25 61.125-126.863 81.884 34.6-23.066 71.505-47.285 108.41-71.505l3.46 6.92c-8.073 4.613-16.146 9.227-24.22 14.993-24.218 17.3-49.59 34.599-72.657 53.052-13.84 11.533-11.533 16.146 4.613 25.372 20.76 12.687 43.826 23.066 63.432 36.906 57.665 38.059 92.264 93.417 116.483 158.002 14.993 39.212 8.073 71.504-11.533 104.95-1.153 1.153-2.307 3.46-3.46 6.92 3.46-1.153 5.767-1.153 12.686-2.307-5.766 9.227-10.38 16.147-17.3 26.526-1.152-5.766-2.306-9.226-4.612-18.453-9.227 11.533-14.993 19.607-21.913 26.526-29.986 31.14-64.585 55.359-102.644 76.118-31.139 18.453-65.738 26.526-100.337 34.6-11.533 2.306-19.606 6.919-23.066 17.299-11.533 33.445-23.066 66.89-35.752 100.337-2.307 5.766-6.92 11.533-10.38 17.3 0-2.308-1.153-3.46-1.153-5.767-10.38 0-20.76-1.154-29.986 1.153-12.686 2.306-18.453-2.307-23.066-13.84-3.46-10.38-11.533-18.453-14.993-28.832-3.46-14.993-8.073-29.986-6.92-44.979 1.154-18.453 8.074-36.905 12.687-54.205 4.613-13.84 3.46-26.526-9.226-34.599l-1.154-1.153c-26.526-35.752-50.745-73.811-58.818-117.637-6.92-38.059 5.766-74.964 24.22-108.41 12.686-21.913 28.832-25.372 49.591-10.38 3.46 2.307 8.073 8.074 6.92 11.533-4.613 14.993 6.92 16.147 14.993 20.76 33.445 13.84 33.445 13.84 25.372 48.438 6.92-1.153 12.687-2.306 19.606-3.46 0 11.534 1.154 21.913 0 31.14-1.153 12.686 4.614 17.3 14.993 14.992 65.738-16.146 124.557-43.825 158.002-106.103 10.38-19.606 6.92-25.373-12.686-35.752-32.292-17.3-65.738-35.753-96.877-55.359-28.833-18.452-49.592-46.132-61.125-78.424-11.533-32.292-21.913-65.738-28.832-99.184-5.767-29.986 4.613-55.358 31.139-73.81 23.066-14.994 43.825-34.6 68.044-47.286 26.526-16.146 55.359-26.526 83.038-40.366 10.38-5.766 20.76-16.146 27.679-26.526 19.606-29.985 36.906-61.124 55.358-92.263 10.38-18.453 27.68-29.986 46.132-36.906 14.993-5.767 27.68-2.307 41.52 8.073zM445.25 269.577c41.52-19.606 81.885-39.212 122.25-58.818-23.066-5.767-109.563 38.058-122.25 58.818zm14.993 467.086c35.752-5.766 65.738-21.913 91.11-46.132-1.152-1.153-2.306-2.307-3.459-4.613-28.833 17.3-58.818 33.446-87.65 50.745zm9.227-465.933c1.153 2.307 2.306 4.613 3.46 5.767 32.292-16.147 63.431-32.293 94.57-48.439l-3.46-6.92c-31.139 16.146-63.431 33.446-94.57 49.592zm16.146 73.811c47.285-24.219 92.264-48.438 139.549-72.658-24.22-9.226-122.25 41.52-139.55 72.658zm16.146 393.275c1.153 2.307 2.307 4.614 3.46 5.767 17.3-9.227 33.446-19.606 50.745-29.986-2.307-2.307-3.46-4.613-4.613-5.766-16.146 9.226-32.293 19.606-49.592 29.985zm5.766 66.892c27.68 6.92 86.498-27.68 99.184-57.665-32.292 19.606-65.738 38.059-99.184 57.665zm51.899 26.526c36.906-27.68 73.811-54.205 109.563-80.731-24.219 40.365-66.891 59.971-109.563 80.73z" style="fill:#000;fill-opacity:1;fill-rule:nonzero;stroke:none"/>
</svg>
