<svg xmlns="http://www.w3.org/2000/svg" viewBox="0 0 1000 1000"><path d="M570.26 52.579c27.005 49.1 54.01 99.427 82.243 147.299 111.701 193.944 223.403 386.66 335.105 580.604 8.593 14.73 11.048 27.005 0 42.962-13.502 19.64-23.322 40.507-39.28 66.285-162.029-281.096-322.83-558.51-483.632-837.15zM10.524 817.307c-7.365-12.275-7.365-20.868 0-33.143 73.65-126.431 147.299-254.09 220.948-381.75l169.394-294.598c4.91-6.138 8.593-13.503 14.73-24.55A539193.766 539193.766 0 0 1 913.96 946.193c-34.37 0-63.83 1.228-93.29 0-6.137-1.227-13.502-11.047-18.412-17.184-31.915-54.01-61.375-109.247-94.517-163.257-7.365-11.047-20.868-22.095-33.143-25.777-69.967-18.413-146.071-31.915-283.55-14.73 18.412-30.688 34.37-60.147 51.554-88.38 2.455-3.682 13.503-6.137 20.868-6.137 55.237 1.227 110.474 2.455 169.394 3.682-72.422-122.749-143.617-246.726-217.267-374.385C294.075 471.154 175.008 677.373 52.258 888.5c-15.957-27.005-28.232-49.1-41.734-71.194zM87.856 947.42C198.33 755.931 306.349 569.352 416.824 379.09c17.185 29.46 33.142 55.238 46.645 81.015 2.455 6.138-2.455 18.413-7.365 25.778-55.238 98.2-111.702 195.171-168.167 292.143-4.91 8.592-9.82 18.412-15.957 29.46 45.417-7.365 89.607-15.958 132.569-20.868 81.014-8.592 160.802-7.365 240.589 7.365 6.137 1.228 12.274 6.138 15.957 11.048 18.412 31.915 36.825 63.83 57.692 99.427-23.322-6.138-42.962-11.048-61.375-15.958-150.981-36.824-295.825-22.095-434.532 44.19-42.962 20.867-85.925 11.047-135.024 14.73z"/></svg>