<svg xmlns="http://www.w3.org/2000/svg" width="1000" height="1000">
  <path d="M5 500.496c0 271.98 220.55 494.507 495.496 494.507 271.98 0 494.507-220.55 494.507-495.496C995.003 227.528 773.464 5 500.496 5 226.54 5 5 225.55 5 500.496zm97.912-76.154c20.77-108.792 78.133-195.825 170.11-258.133 0 0 1.979-2.967 3.957-2.967v335.276c0 16.813 2.967 33.627 4.945 51.429 27.692 125.605 158.242 203.737 282.858 168.132 116.704-33.626 182.968-153.297 154.286-270-27.692-109.781-133.517-183.957-250.22-167.144-53.407 6.923-99.89 34.615-138.462 77.143 0 0 0 1.978-1.978 3.956V138.517c0-1.978 0-4.945 3.956-6.923 44.505-20.77 90.99-31.649 141.429-35.605 52.418-3.956 105.824 1.978 158.242 20.77 96.923 34.615 173.078 94.945 224.506 185.934 46.484 78.132 66.264 196.814 44.506 278.902-25.714 121.65-91.978 212.638-198.792 275.935-164.176 92.968-379.781 64.286-504.397-86.044-89.011-98.901-120.66-215.605-94.946-347.144zm59.341 48.462c-4.945 53.407 1.978 101.868 20.77 151.319 54.395 149.341 208.682 240.33 366.924 216.594 50.44-7.912 96.923-24.725 139.45-52.418 19.781-12.857 37.583-27.692 52.419-44.505 12.857-10.88 10.879-29.67-1.978-38.572-8.901-5.934-22.748-5.934-33.627 3.956-78.132 74.176-169.121 99.89-271.979 77.143C256.21 743.794 162.253 549.947 235.44 382.803c3.956-7.912 5.934-18.79 5.934-31.648v-70.22s-1.978 0-1.978 2.967c-45.494 54.396-71.209 118.682-77.143 188.902zm166.155 29.67c0-95.934 78.132-172.088 173.077-172.088 94.946 0 173.078 78.132 173.078 172.088 0 95.935-78.132 173.078-173.078 173.078-94.945 0-173.077-77.143-173.077-173.078zm37.582-259.122c2.967 0 4.945 0 4.945-1.978 65.275-31.648 132.528-38.571 201.76-21.758 51.428 12.857 95.934 38.572 136.483 76.154 7.912 10.88 23.737 10.88 34.616 0 8.9-9.89 8.9-24.725-1.978-35.604-8.901-8.901-16.814-16.814-24.726-23.737-70.22-54.395-150.33-79.12-239.341-75.165-37.583 1.978-73.187 9.89-106.814 24.726-1.978 1.978-4.945 1.978-4.945 5.934v25.714z" style="fill:#000;fill-opacity:1;fill-rule:nonzero;stroke:none;"/>
</svg>
