<svg xmlns="http://www.w3.org/2000/svg" viewBox="0 0 1000 1000"><path d="M749.728 72.253C824.2 116.462 883.54 175.803 927.75 250.276c44.803 77.143 67.253 160.418 67.253 249.726 0 89.308-22.45 172.583-67.253 249.726C883.541 824.2 824.2 883.54 749.728 927.75c-77.143 44.803-160.418 67.253-249.726 67.253-89.308 0-172.583-22.45-249.726-67.253-74.473-44.209-133.814-103.55-178.023-178.022C27.451 672.585 5 589.31 5 500.002c0-89.308 22.45-172.583 67.253-249.726 44.209-74.473 103.55-133.814 178.023-178.023C327.419 27.45 410.793 5 500.496 5c89.011 0 172.089 22.45 249.232 67.253zM243.352 384.78c0 14.539 5.935 36.594 17.803 66.264 7.22 17.11 19.78 44.21 37.582 81.1 20.473 42.23 32.341 69.428 35.605 81.593 3.264 12.165 3.66 25.912.989 41.044-1.286 8.605-4.253 20.077-8.901 34.616-1.978 6.626-3.264 11.374-3.956 14.34-.693 2.968-.297 4.748.989 5.44 2.67 1.978 10.879-3.66 24.725-16.813a324.912 324.912 0 0 0 37.583-42.528c13.153-17.802 20.076-31.648 20.769-41.538 1.286-13.154-4.253-35.308-16.813-66.264-7.22-17.803-20.473-46.187-39.561-85.055-11.176-23.045-18.791-39.561-22.747-49.451-6.627-15.132-10.583-26.011-11.869-32.638-3.263-17.802-3.263-40.253 0-67.253l1.979-11.868c0-3.264-.792-5.143-2.473-5.44-1.681-.296-8.407 4.451-20.275 14.341-13.154 11.868-24.428 24.033-33.626 36.594-11.868 16.516-17.803 30.956-17.803 43.516zm147.364-32.637c0 19.088 7.615 47.473 22.747 85.055 9.198 22.45 25.022 57.066 47.473 103.847 13.846 27.692 23.44 47.472 28.681 59.34 8.604 19.78 14.539 34.913 17.802 45.495 3.956 15.132 4.253 32.341.99 51.429-1.979 11.176-5.935 25.714-11.869 43.517-2.67 9.197-4.253 15.132-4.945 17.802-.692 4.648-.297 7.22.989 7.912 3.264 1.978 13.846-5.242 31.649-21.758 17.802-16.517 33.923-34.616 48.461-54.396 17.11-22.45 26.011-39.857 26.704-52.418 1.285-17.11-6.231-45.495-22.748-85.055-9.198-23.736-26.01-60.33-50.44-109.78-13.846-28.979-23.44-49.748-28.68-62.309-9.199-19.088-14.54-32.934-15.825-41.538-3.956-22.45-3.66-50.737.989-85.055l1.978-15.825c0-3.263-.692-5.241-1.978-5.934-2.67-1.285-11.572 4.649-26.703 17.803-17.11 15.131-31.649 30.956-43.517 47.472-14.539 20.473-21.758 38.572-21.758 54.396zm191.868 32.637c0 14.539 6.231 36.594 18.792 66.264 6.626 17.11 18.79 44.21 36.593 81.1 20.473 42.23 32.34 69.428 35.605 81.593 3.263 12.165 3.659 25.912.989 41.044-1.286 8.605-4.253 20.077-8.901 34.616-1.978 6.626-3.264 11.374-3.957 14.34-.692 2.968 0 4.748 1.979 5.44 1.978 1.978 9.89-3.66 23.736-16.813 13.846-13.154 26.703-27.396 38.571-42.528 13.154-17.802 20.077-31.648 20.77-41.538.692-13.154-5.242-35.308-17.803-66.264-7.22-18.495-20.077-47.176-38.571-86.044-11.176-23.045-19.088-39.264-23.736-48.462-6.627-15.132-10.583-26.011-11.869-32.638-3.263-17.802-2.967-40.253.99-67.253l.988-11.868c0-3.264-.79-5.242-2.472-5.934-1.681-.692-8.407 4.253-20.275 14.835-13.154 11.868-24.429 24.033-33.626 36.594-11.869 16.516-17.803 30.956-17.803 43.516z"/></svg>