<svg xmlns="http://www.w3.org/2000/svg" width="1000" height="1000">
  <path d="M500.496 5C223.572 5 5 229.506 5 500.002c0 276.43 224.506 495.001 495.002 495.001 276.43 0 495.001-224.506 495.001-495.001C995.003 226.539 773.464 5 500.496 5zm-301.65 668.574V436.21c0-2.967 0-5.934 1.979-8.9 2.967-6.924 9.89-12.858 18.791-12.858 6.923 0 15.824 5.934 16.813 12.857 1.978 2.967 2.967 5.934 2.967 7.912v213.627c0 3.956 1.978 6.923 5.934 8.901 6.924 4.945 14.836 9.89 21.759 13.847 15.824 9.89 32.637 18.79 48.461 28.681 32.638 18.791 63.297 36.594 94.946 55.385 27.692 15.824 53.407 30.66 80.11 47.473 2.967 1.978 7.912 2.967 11.868 3.956 5.934.989 11.868 0 15.824-1.978 5.935-3.957 11.869-6.924 17.803-10.88 40.55-22.747 80.11-47.472 121.648-70.22 23.737-14.835 47.473-29.67 73.188-44.505 9.89-5.934 20.769-11.868 31.648-17.803 4.945-3.956 6.923-7.912 6.923-14.835V439.177c0-3.956 0-5.934 1.978-8.9 1.978-9.891 9.89-15.825 18.791-15.825 9.89 0 18.792 5.934 21.759 15.824 0 0 .989 2.967.989 3.956v240.33s0 1.979-.99 1.979c0 3.956-2.966 6.923-6.922 9.89-11.869 6.923-23.737 13.846-35.605 19.78-29.67 17.802-58.352 33.627-88.022 51.429-28.682 16.813-58.352 33.626-87.033 50.44-25.715 14.835-50.44 28.681-75.166 43.516-1.978.99-4.945 1.978-8.9 2.967-.99 0-1.979 0-2.968.99h-4.945c0-.99-.989-.99-.989-.99-4.945-.989-9.89-2.967-12.857-5.934-25.714-13.846-49.45-28.681-75.165-42.527-27.692-16.814-56.374-33.627-85.055-49.451-38.572-22.747-79.121-46.484-116.704-69.231-2.967-.99-4.945-.99-6.923-3.956-2.967-1.978-5.934-5.934-5.934-9.89zm11.869-309.562c-12.857-16.813-9.89-41.538 5.934-57.363 2.967-4.945 7.912-8.9 12.857-11.868 50.44-31.648 100.88-63.297 152.308-94.945 12.858-6.923 25.715-16.813 38.572-23.737 20.77-11.868 41.539-20.769 63.297-21.758 7.912-1.978 15.824-1.978 23.736-2.967 28.682 0 55.385 7.912 81.1 22.747 8.9 4.945 17.802 10.88 26.703 15.825a4077.575 4077.575 0 0 1 154.286 97.912c7.912 2.967 14.835 8.901 20.77 13.846 8.9 9.89 13.846 20.77 15.824 33.627 2.967 20.77-5.934 35.604-19.78 47.472-4.946 3.957-10.88 6.924-16.814 9.89-45.495 27.693-90 56.374-135.495 83.078-9.89 5.934-17.802 13.846-23.736 23.736-5.934 8.901-11.868 18.791-16.813 28.682-20.77 32.637-40.55 64.285-59.341 97.912-3.956 6.923-6.923 12.857-9.89 18.791-3.957 5.934-8.902 7.912-13.847 8.901-8.9.99-14.835-.989-19.78-8.9-3.956-5.935-7.912-12.858-11.868-19.781-18.791-32.638-37.583-65.275-56.374-96.923-4.945-6.924-7.912-14.836-11.868-21.759-3.956-6.923-8.901-13.846-13.846-18.791-2.967-4.945-5.934-7.912-10.88-9.89-51.428-31.649-103.846-63.297-155.275-94.946-7.912-4.945-13.846-9.89-19.78-18.79zm63.297-28.681c2.967 11.868 8.901 20.77 18.791 25.714 21.758 12.857 42.528 26.704 63.297 38.572 20.77 13.846 41.539 27.692 63.297 40.55 11.868 6.922 19.78 17.802 26.703 28.68 14.836 27.693 30.66 56.374 44.506 84.067.989.989 1.978 3.956 4.945 6.923 2.967 3.956 6.923 7.912 12.857 6.923 5.934-.989 8.901-3.956 11.868-8.901 17.803-32.638 34.616-64.286 52.418-95.934 4.945-9.89 12.857-18.792 23.737-24.726 41.538-25.714 80.11-50.44 121.648-76.154 4.945-1.978 8.901-4.945 11.868-9.89 12.858-12.857 12.858-31.648 3.957-46.484-3.957-4.945-9.89-9.89-14.836-13.846-48.461-29.67-96.923-60.33-146.374-89.011-19.78-13.846-41.538-20.77-65.275-20.77-4.945 1.979-10.879 1.979-14.835 1.979-17.802 1.978-34.615 8.9-50.44 18.79-43.516 25.715-86.044 52.419-129.56 79.122-6.924 3.956-13.847 8.901-21.759 12.857-12.857 9.89-19.78 25.715-16.813 41.539z" style="fill:#000;fill-opacity:1;fill-rule:nonzero;stroke:none;"/>
</svg>
