<svg xmlns="http://www.w3.org/2000/svg" viewBox="0 0 1000 1000"><path d="M5 500.496c0 271.98 220.55 494.507 495.496 494.507 271.98 0 494.507-220.55 494.507-495.496C995.003 227.528 773.464 5 500.496 5 226.54 5 5 225.55 5 500.496zM278.957 196.87c25.714-11.868 51.429-25.715 77.143-38.572 45.495-22.747 102.858-51.429 150.33-73.187l12.857 4.945c22.748 10.88 37.583 18.791 57.363 27.693 68.242 35.604 140.44 73.187 163.188 80.11-2.967 3.956-92.968 50.44-86.045 47.472 44.506-18.79-86.044 43.517-129.56 62.308-10.88 5.934-22.748 7.912-31.649 4.945-20.77-10.879-41.539-22.747-63.297-32.637-45.495-20.77-90-47.473-132.528-68.242-5.934-4.945-13.846-7.912-17.802-14.835zm28.681 395.605c14.836-11.868 28.682-23.736 40.55-36.593l12.857-13.846c.99-.99 7.912-8.901 8.901-8.901 3.956-5.934 2.967-10.88 2.967-16.814V286.87c0-17.802 7.912-7.912 7.912-8.901 41.539 39.56 81.1 78.132 125.605 119.67 42.528-42.527 84.066-78.131 126.594-125.604 7.912 22.747 6.923 30.66 6.923 35.604V516.32c0 8.901 4.945 19.78 10.88 25.715 6.922 7.912 14.835 16.813 24.725 26.703 8.9 8.901 17.802 17.802 26.703 27.693-18.791 16.813-38.571 35.604-55.385 52.417-3.956 2.967-6.923 10.88-6.923 17.803v232.418H372.913V672.585c0-12.858-4.945-21.759-13.846-31.649-17.802-13.846-30.66-26.703-51.429-48.462zm38.572-393.627 26.703 13.846c23.737 12.857 46.484 24.725 71.21 38.572 8.9 4.945 16.813 9.89 23.736 13.846 13.846 7.912 22.747 13.846 38.571 13.846 12.857 0 27.693-8.901 41.539-16.813 6.923-4.945 13.846-7.912 20.77-11.868 20.768-11.869 40.549-20.77 60.329-31.649 11.868-5.934 24.725-12.857 36.594-19.78-25.715-12.857-50.44-24.726-75.166-36.594-26.703-12.857-58.351-29.67-86.044-43.516l-5.934 2.967c-30.66 17.802-63.297 32.637-95.934 48.461-18.792 8.901-36.594 18.792-56.374 28.682zm13.846 396.595c2.967 2.967 5.934 5.934 6.923 8.9.99 0 .99.99.99.99 1.977-1.978 2.966-3.956 3.955-3.956 8.901-8.902 12.857-11.869 18.792-17.803 12.857-10.879 17.802-15.824 15.824.99v251.209c37.582-36.594 74.176-73.187 111.758-109.78 44.506-43.517 88.023-90 135.495-133.518-2.967-2.967-6.923-5.934-8.9-7.912l-4.946-5.934-35.604 32.638 1.978-257.144c-36.594 35.605-72.198 70.22-107.803 106.814-44.505 46.483-90 90-138.462 134.506zm49.45-102.858c23.737-26.703 46.485-48.462 66.265-64.286-14.835-13.846-25.715-27.692-38.572-40.55-9.89-9.89-18.791-20.769-27.692-30.659zm13.168 373.772c53.492-.914 115.9-.914 172.768-.914 10.879 0 10.879-2.967 10.879-14.835V697.31c0-.989 0-1.978-.99-3.956-.988 0-.988-.99-.988-2.967-27.693 28.681-55.385 54.396-82.089 80.11-33.23 31.253-66.362 64.385-99.593 95.836z"/></svg>