<svg xmlns="http://www.w3.org/2000/svg" viewBox="0 0 1000 1000"><path d="M500.615 993.75C231.285 997.438 5 771.152 5 499.363S231.286 6.208 500.615 6.208C769.945 6.208 995 227.575 995 501.824c0 271.789-226.286 495.615-494.385 491.925zM75.099 526.42c0 31.975 2.46 62.72 14.758 89.776h6.149c4.92-33.205 4.92-66.41 11.068-97.155 12.298-56.572 22.137-114.373 39.354-170.944 18.448-61.491 63.95-94.696 130.36-103.305 55.342-8.608 109.454-23.366 163.566-33.205 18.447-4.919 35.665-4.919 51.652-2.46 45.503 8.61 87.317 27.057 125.441 56.572 12.298 7.38 22.137 18.447 33.205 22.137 30.746 8.609 46.733 27.056 52.882 59.03 6.15 31.976 20.907 63.951 33.205 94.697 6.15 18.447 14.758 39.354 27.056 56.571 27.056 39.354 65.18 70.1 111.913 84.857 6.15 1.23 11.069 3.69 17.218 6.15 0 2.459-2.46 3.689-2.46 3.689-24.596-6.15-51.652-9.839-81.168-15.988 11.069 24.597 19.677 47.963 27.056 70.1-27.056-36.895-54.112-75.019-79.938-109.454-25.826-31.975-44.273-65.18-54.112-102.074-4.919-14.758-11.068-27.056-17.217-36.895-6.149-12.298-12.298-17.217-28.286-12.298-29.515 9.839-59.03 18.447-87.316 25.826-57.802 13.528-102.075 47.963-138.97 89.777-8.608 9.838-17.217 24.596-23.366 36.894-6.15 14.758-3.69 29.516 4.92 41.814 18.446 29.515 34.434 60.26 52.881 89.776 19.677 30.746 44.274 55.342 71.33 79.938 47.962 39.354 93.465 81.168 138.969 122.982 8.608 8.608 15.987 12.298 30.745 6.149 162.335-84.858 255.801-281.628 215.217-459.951C869.56 182.072 642.044 34.494 407.15 88.606 204.229 136.569 62.801 314.892 75.099 526.42zm407.069-220.137c18.447 20.907 30.745 19.677 47.962 0-18.447-12.298-29.515-12.298-47.962 0z"/></svg>