<svg xmlns="http://www.w3.org/2000/svg" viewBox="0 0 1000 1000"><path d="m499.507 183.023 275.935 158.242v316.484L499.507 815.992 222.583 657.749V341.265zM5 500.002c0-89.308 22.45-172.583 67.253-249.726 44.209-74.473 103.55-133.814 178.023-178.023C327.419 27.45 410.793 5 500.496 5c89.011 0 172.089 22.45 249.232 67.253C824.2 116.462 883.54 175.803 927.75 250.276c44.803 77.143 67.253 160.418 67.253 249.726 0 89.308-22.45 172.583-67.253 249.726C883.541 824.2 824.2 883.54 749.728 927.75c-77.143 44.803-160.418 67.253-249.726 67.253-89.308 0-172.583-22.45-249.726-67.253-74.473-44.209-133.814-103.55-178.023-178.022C27.451 672.585 5 589.31 5 500.002zm191.869 173.572L499.507 846.65l303.628-173.077V326.43L499.507 153.352 196.87 326.43zm74.176-149.342 108.791 187.913h43.517l51.429-47.472v-23.737l-53.407-51.429v-80.11l-70.22-44.505zm81.099-99.89H646.87l-28.681-120.66H378.847zm69.231 17.802 26.703 67.253-8.9 75.165h119.67l-7.912-75.165 25.714-67.253zm101.869 222.529 51.428 46.483h43.517L725.99 524.232l-79.12-59.34-70.22 44.505v80.11l-53.407 50.44z"/></svg>