<svg xmlns="http://www.w3.org/2000/svg" viewBox="0 0 1000 1000"><path d="M500.496 5C223.572 5 5 229.506 5 500.002c0 276.43 224.506 495.001 495.002 495.001 276.43 0 495.001-224.506 495.001-495.001C995.003 226.539 773.464 5 500.496 5zM175.11 519.287c-9.89-16.813-9.89-30.659 0-47.472 48.462-81.1 95.935-167.144 143.408-251.21 10.879-17.802 24.725-23.736 44.505-23.736 91.979 2.967 187.913 2.967 282.858 0 23.737 0 37.583 9.89 50.44 30.66 47.473 88.021 98.901 172.088 149.341 258.132 4.945 6.923 3.956 14.835 0 19.78-50.44 89.012-101.868 178.023-152.308 263.078-6.923 9.89-13.846 16.813-20.77 26.703h-81.099c29.67-58.351 64.286-111.758 94.946-171.1 9.89-12.856 9.89-22.746 0-36.593-34.616-61.318-71.21-122.637-105.825-183.956-5.934-12.857-16.813-20.77-29.67-20.77-72.198 0-144.396 3.957-215.605 0-12.857 0-22.748 7.913-30.66 20.77-29.67 51.428-57.363 98.901-84.066 150.33-3.956 2.967-9.89 9.89-13.846 16.813-10.88-16.813-20.77-33.626-31.649-51.429zm55.385 88.023c-3.956-2.967 0-9.89 0-12.857 33.627-57.363 63.297-112.748 95.935-167.144 5.934-9.89 12.857-13.846 22.747-13.846H537.09c9.89 0 16.813 7.912 23.736 13.846 30.66 54.396 60.33 109.78 90.99 164.176 7.911 9.89 7.911 15.825 3.955 26.704-34.615 54.396-64.286 108.791-94.945 163.187-3.956 3.956-6.923 10.88-9.89 13.846H485.66c12.857-26.703 29.67-55.384 44.506-82.088 6.923-9.89 6.923-23.736 0-33.626-17.803-30.66-38.572-64.286-55.385-95.935-5.934-12.857-12.857-15.824-26.704-15.824H335.331c-12.857 0-22.748 2.967-30.66 15.824-10.879 20.77-23.736 40.55-33.626 62.308-3.956 2.967-6.923 10.88-13.846 16.813-9.89-19.78-19.78-34.615-26.704-55.384zm54.396 102.857c-3.956-9.89-6.923-16.813 0-26.703 13.846-23.737 27.692-48.462 41.539-72.198 5.934-9.89 12.857-13.846 22.747-13.846h86.044c9.89 0 15.824 3.956 19.78 13.846 13.847 23.736 27.693 48.461 40.55 72.198 6.923 9.89 6.923 16.813 0 26.703-16.813 26.704-30.66 54.396-47.473 85.055H339.287c-12.857-20.769-37.583-52.417-54.396-85.055z"/></svg>