<svg xmlns="http://www.w3.org/2000/svg" width="1000" height="1000">
  <path d="M749.728 72.253C824.2 116.462 883.54 175.803 927.75 250.276c44.803 77.143 67.253 160.418 67.253 249.726 0 89.308-22.45 172.583-67.253 249.726C883.541 824.2 824.2 883.54 749.728 927.75c-77.143 44.803-160.418 67.253-249.726 67.253-89.308 0-172.583-22.45-249.726-67.253-74.473-44.209-133.814-103.55-178.023-178.022C27.451 672.585 5 589.31 5 500.002c0-89.308 22.45-172.583 67.253-249.726 44.209-74.473 103.55-133.814 178.023-178.023C327.419 27.45 410.793 5 500.496 5c89.011 0 172.089 22.45 249.232 67.253zm-482.64 686.376h77.144V629.068h-77.143zm129.562 0h77.143V370.935H396.65zm129.56 0h77.144V499.507H526.21zm129.561 0h77.144V241.374H655.77z" style="fill:#000;fill-opacity:1;fill-rule:nonzero;stroke:none;"/>
</svg>
