<svg xmlns="http://www.w3.org/2000/svg" viewBox="0 0 1000 1000"><path d="M500.496 5C223.572 5 5 229.506 5 500.002c0 276.43 224.506 495.001 495.002 495.001 276.43 0 495.001-224.506 495.001-495.001C995.003 226.539 773.464 5 500.496 5zm-210.66 791.211v-611.21h130.55v477.693h13.846c48.462 0 100.88 1.979 149.341 0 12.858 0 25.715-3.956 33.627-8.9 8.901-5.935 13.846-17.803 10.879-28.682-1.978-11.868-9.89-23.736-22.747-26.703-4.945 0-12.858-2.967-21.759-2.967H469.837v-40.55h10.879c36.593 0 73.187-1.978 110.77 0 44.505 0 80.11 32.637 80.11 76.154 0 39.56-37.583 75.165-80.11 75.165h-211.65V227.528h-47.472v523.189h8.9c74.177 0 149.342 4.945 220.551 0 34.616 0 66.264-4.945 96.923-17.802 53.407-24.726 73.188-76.155 61.32-134.506-10.88-54.396-56.374-92.968-110.77-92.968H469.837v-43.516h118.681c67.253 3.956 108.792-42.528 112.748-105.825 4.945-52.418-23.736-94.945-73.187-115.715-27.692-12.857-57.363-13.846-86.044-13.846h-72.198v-41.538c59.34 0 122.638-5.935 181.978 20.769 68.242 29.67 104.836 97.912 90 176.044-9.89 40.55-26.703 73.187-61.318 97.913 2.967 1.978 4.945 1.978 4.945 6.923 64.286 39.56 90.99 96.923 75.165 172.088-10.88 74.177-57.363 109.781-124.616 127.583-43.516 11.868-85.055 9.89-126.594 9.89-68.242 1.978-138.462 1.978-207.693 1.978-2.967 0-5.934 0-11.868-1.978zm180-379.781v-42.528h103.847c22.748 0 35.605-11.868 35.605-29.67 0-16.813-16.814-28.682-35.605-28.682H469.837V275H575.66c42.528 0 73.187 28.682 76.154 69.232 0 41.538-33.626 72.198-76.154 72.198H474.78z"/></svg>