<svg xmlns="http://www.w3.org/2000/svg" width="1000" height="1000">
  <path d="M778.9 161.702 498.305 440.034 62.703 8.958c40.732 22.629 81.464 48.652 123.327 71.28 104.091 58.835 204.789 125.59 304.355 187.818 10.183 5.658 16.972 2.263 26.023 0 83.726-32.811 168.584-70.148 253.441-104.091 2.263 0 5.657-2.263 9.051-2.263zM5 938.996v-2.263c85.99-143.692 171.978-285.12 257.967-429.944 9.052-7.92 6.789-15.84 3.394-24.892-32.811-80.331-64.491-159.532-97.303-237.6l-11.314-28.286c93.909 96.171 190.08 191.212 280.595 286.252C298.041 647.086 148.692 790.778 5 938.996zM219.973 838.3l280.595-280.596c141.43 143.692 289.647 289.647 434.47 433.339l-50.914-26.023C756.272 886.95 628.42 808.881 502.83 733.075c-4.526-2.263-12.446-5.657-14.709-2.263-90.514 35.075-183.292 71.28-268.15 107.487zm334.904-339.43c145.955-144.824 291.91-293.041 440.127-438.996-44.126 69.017-85.989 138.035-126.72 208.183-45.258 74.675-92.778 150.481-138.035 226.287-5.657 7.92-5.657 12.446-2.263 21.497 36.206 82.595 69.017 169.715 106.355 254.573 0 4.525 0 6.788 2.263 12.445-93.91-97.303-186.687-191.212-281.727-283.99z" style="fill:#000;fill-opacity:1;fill-rule:nonzero;stroke:none;"/>
</svg>
