<svg xmlns="http://www.w3.org/2000/svg" viewBox="0 0 1000 1000"><path d="M500.496 5C223.572 5 5 229.506 5 500.002c0 276.43 224.506 495.001 495.002 495.001 276.43 0 495.001-224.506 495.001-495.001C995.003 226.539 773.464 5 500.496 5zM225.55 772.475c0-8.901 0-16.813 4.945-22.747 12.857-14.835 28.682-28.682 42.528-43.517 17.802-15.824 30.66-33.626 48.462-45.495 6.923-5.934 17.802-4.945 26.703-4.945-.99 8.902-.99 19.78-5.934 24.726-27.693 30.66-59.341 60.33-88.022 89.011-4.945 4.945-10.88 5.934-16.814 10.88-5.934-1.979-11.868-5.935-11.868-7.913zm0-178.022c0-6.924 2.967-16.814 7.912-18.792 31.649-10.879 61.32-20.77 92.968-28.681 6.923-1.978 20.769 2.967 21.758 7.912 5.934 9.89-4.945 15.824-14.835 18.791-25.715 7.912-53.407 16.813-79.121 25.715-4.945 1.978-10.88 1.978-16.814 3.956-3.956-1.978-11.868-4.945-11.868-8.901zm0-184.946c.99-3.956 9.89-7.912 14.835-7.912 16.814 2.967 32.638 8.9 50.44 14.835 14.835 4.945 30.66 7.912 45.495 15.824 5.934 2.967 8.9 11.868 13.846 16.813-6.923 4.945-10.88 8.902-16.813 11.869-36.594-11.869-68.242-22.748-101.869-33.627-4.945-2.967-7.912-12.857-5.934-17.802zm0-179.012c0-2.967 7.912-4.945 14.835-7.912 4.945 4.945 10.88 6.923 13.847 10.88 28.681 28.68 57.362 57.362 88.022 86.044 7.912 8.9 13.846 21.758 4.945 27.692-4.945 3.956-20.77 0-25.714-4.945-30.66-26.704-61.32-57.363-90-87.033-4.946-6.924-4.946-16.814-5.935-24.726zm174.067 533.079c1.978-8.901 2.967-17.802 7.912-26.703 7.912-23.737 14.835-47.473 23.736-70.22 2.967-4.946 10.88-8.902 18.791-13.847 2.967 4.945 6.924 10.88 9.89 16.814-11.868 34.615-22.747 69.23-34.615 101.868-.989 2.967-11.868 6.923-17.802 3.956-1.978 0-7.912-7.912-7.912-11.868zm1.978-513.298c-1.978-7.913.989-20.77 6.923-24.726 11.868-4.945 16.813 4.945 22.747 15.824 5.934 25.715 14.835 48.462 21.758 72.198 3.957 5.935 3.957 13.847 6.924 23.737-2.967 3.956-8.902 13.846-9.89 13.846-7.913-.989-15.825-6.923-18.792-11.868-10.879-28.682-20.77-58.352-29.67-89.011zm26.703 304.616c0-13.846 7.912-16.813 19.78-16.813 11.869 0 16.814 6.923 14.836 18.791 1.978 13.846-5.934 15.824-16.814 15.824-12.857 0-17.802-7.912-17.802-17.802zm0-107.803c0-11.868 7.912-14.835 19.78-14.835 11.869 0 16.814 2.967 14.836 14.835 1.978 13.847-5.934 19.78-17.803 19.78-11.868 0-16.813-8.9-16.813-19.78zM537.09 554.892c0-10.88 4.945-16.813 18.791-16.813 11.868 0 14.835 6.923 14.835 16.813 0 15.824-5.934 17.802-17.802 17.802-11.868 0-15.824-5.934-15.824-17.802zm0-105.825c0-12.857 4.945-16.813 16.813-16.813 12.857 0 16.813 2.967 16.813 14.835 0 11.869-2.967 19.78-16.813 16.814-11.868 2.967-16.813-2.967-16.813-14.836zm3.956-112.747c11.868-36.594 23.736-71.21 35.604-102.858 1.978-3.956 10.88-7.912 15.825-7.912 2.967 1.978 8.9 8.901 8.9 13.846 0 8.901-1.977 15.825-5.933 24.726-7.913 25.714-15.825 49.45-25.715 75.165-1.978 4.945-10.879 10.879-16.813 10.879-2.967.989-8.901-8.901-11.868-13.846zm.989 328.353c1.978-2.968 7.912-11.869 10.879-11.869 4.945 1.978 14.835 4.945 16.813 11.869 9.89 29.67 20.77 58.351 29.67 88.022 2.968 7.912 7.913 19.78-6.923 25.714-13.846 2.967-16.813-6.923-21.758-17.802-7.912-23.736-14.835-47.473-22.747-73.187-2.967-5.934-3.956-11.868-5.934-22.747zm107.802-111.76c6.923-2.966 11.868-7.911 17.803-11.867 36.593 11.868 68.242 22.747 102.857 36.593 2.967 0 6.923 9.89 4.945 16.814 0 3.956-8.901 6.923-13.846 6.923-8.901 0-16.813-1.978-25.714-4.945-23.737-8.902-48.462-15.825-70.22-23.737-6.924-2.967-9.89-11.868-15.825-19.78zm2.967-103.846c0-4.945 3.956-13.846 8.901-15.824 29.67-11.868 60.33-22.747 90-30.66 6.924-.988 21.76 1.979 23.737 6.924 6.923 12.857-4.945 17.802-14.835 22.747-24.725 5.934-48.462 14.835-73.187 21.758-5.934 3.957-13.846 3.957-22.747 6.924-3.957-2.967-11.869-6.924-11.869-11.869zm0-104.835c0-6.923 0-15.824 3.956-19.78 15.825-17.803 34.616-34.616 51.43-53.407 13.845-11.868 26.703-28.682 41.538-40.55 5.934-2.967 14.835-.989 23.736-2.967 0 8.901 1.978 19.78-2.967 23.737-29.67 33.626-62.308 64.285-91.978 93.956-4.945 4.945-8.901 5.934-16.814 7.912-2.967-1.978-8.9-5.934-8.9-8.901zm.99 311.54c7.911-9.89 19.78-2.968 27.692 5.933 28.681 28.682 57.363 56.374 88.022 87.034 3.956 3.956 5.934 9.89 7.912 11.868.99 19.78-7.912 19.78-18.791 17.802-5.934-2.967-10.88-5.934-13.846-10.879a1123.613 1123.613 0 0 1-84.067-84.066c-4.945-5.934-10.879-22.748-6.923-27.693z"/></svg>