<svg xmlns="http://www.w3.org/2000/svg" viewBox="0 0 1000 1000"><path d="M4.815,504.629H117.592c-28.786,16.936-29.84,20.454-16.637,52.691,28.12,68.656,56.262,137.305,84.451,205.934,2.019,4.912,4.472,9.646,8.024,17.242,4.147-8.704,7.336-14.786,10.003-21.09,29.167-68.882,58.266-137.795,87.356-206.709,11.682-27.673,9.36-33.822-21.479-48.173h106.624c-27.992,5.747-40.873,25.288-51.55,48.538-38.075,82.915-76.881,165.493-115.158,248.316-6.326,13.684-11.383,27.953-18.676,46.045-4.173-7.922-7.263-13.12-9.743-18.595-41.17-90.859-82.446-181.669-123.247-272.693-10.817-24.134-22.757-46.145-52.745-51.504v-.003Zm515.57,321.626c-4.071,.379-7.924,3.092-11.879,4.72,3.357,4.37,5.57,5.332,7.783,5.334,126.062,.085,252.123,.228,378.18-.415,4.856-.024,12.09-6.756,14.106-11.956,11.864-30.593,22.55-61.645,33.545-92.574,5.577-15.69,10.975-31.446,16.453-47.172-1.55-.921-3.1-1.841-4.649-2.764-3.282,3.901-7.241,7.416-9.712,11.777-6.59,11.631-12.292,23.765-18.79,35.451-25.946,46.677-65.311,73.704-118.906,75.851-52.269,2.094-104.652,1.363-156.986,1.761-.967,.007-1.946-1.324-3.07-2.14v-279.682c56.284,0,111.551-1.025,166.744,.534,20.454,.578,34.089,18.928,36.984,41.483,.758,5.913,1.499,11.828,2.667,21.059,11.631-16.927,10.545-144.393,.219-154.656-.957,4.003-2.075,7.135-2.419,10.348-3.855,35.75-19.856,50.143-56.158,50.238-22.533,.058-45.066,.012-67.597,.012h-79.923V201.005c62.991,0,124.415-.117,185.837,.046,34.016,.09,56.821,22.536,58.485,56.821,.26,5.351,1.113,10.676,2.024,19.091,9.466-12.35,11.675-96.856,5.446-122.326-63.472,18.066-128.642,16.883-193.788,16.586-64.876-.294-129.755-.066-194.633-.066-.483,1.691-.967,3.381-1.45,5.072,3.384,1.747,6.617,4.596,10.173,5.075,46.827,6.316,62.887,24.491,62.955,72.251,.09,62.726,.024,125.453,.024,188.179,0,105.356,.158,210.71-.085,316.066-.1,42.588-20.519,64.633-61.577,68.447l-.003,.007ZM992.691,109.955H0v19.795H992.691v-19.795h0ZM7.309,890.045H1000v-19.795H7.312v19.795h-.003Z"/></svg>