<svg xmlns="http://www.w3.org/2000/svg" viewBox="0 0 1000 1000"><path d="M313.787 995c-78.04 0-143.886-56.09-146.325-136.57-2.438-71.942-3.658-146.324 2.44-219.486 17.07-181.687 169.492-312.16 352.398-307.283 40.24 0 80.479 10.975 119.499 26.826 9.755 3.659 10.974 9.755 9.755 17.072-13.413 49.994-42.678 86.575-90.234 106.085-4.877 1.22-10.974 1.22-14.632 0-121.938-24.387-232.9 65.846-232.9 190.223v178.028c42.677 0 84.136 0 124.376-1.22 29.264 0 59.749 2.44 89.014-1.219 92.672-10.974 158.518-84.136 159.738-176.809 0-8.535 4.877-15.852 13.413-19.51 41.459-25.607 76.82-59.75 106.085-101.208 0-1.22 2.44-4.877 4.878-6.097 0-2.438 2.439-2.438 2.439-2.438 10.974 26.826 17.071 54.871 18.29 81.698 8.536 103.646-15.852 193.88-87.795 268.262C680.82 959.639 601.56 993.78 507.668 995zM167.462 237.77v-84.137c0-82.918 63.408-147.545 145.106-147.545 71.943 0 143.886-3.658 217.049 2.44C708.865 19.5 838.118 173.142 834.46 338.977c-2.439 131.692-58.53 230.461-173.151 293.869-98.77 52.433-201.197 48.775-302.405 3.658-2.439-2.439-3.658-2.439-7.316-3.658 15.852-54.872 51.214-92.673 104.866-112.183 2.439-2.439 8.536-1.22 13.413 0 101.208 19.51 196.32-41.459 214.61-140.228 26.826-140.228-79.26-232.9-185.345-228.023-54.872 2.439-113.402 0-168.273 0h-17.072v187.784c0 6.097-1.219 10.974-4.877 12.194-45.117 29.265-81.698 64.626-110.963 108.524-1.22 1.22-2.439 1.22-3.658 2.439-14.633-31.704-21.949-64.627-25.607-98.77-1.22-41.458-1.22-84.136-1.22-126.815z"/></svg>