<svg xmlns="http://www.w3.org/2000/svg" viewBox="0 0 1000 1000"><path d="M343.587,602.871c-1.983,7.932-2.974,15.864-4.957,24.788h.991c7.932,0,9.915,5.949,8.924,11.9-.992,8.924-5.949,14.873-13.881,18.839-6.941,2.974-12.89,0-13.881-6.941a9.637,9.637,0,0,1,.991-8.924L342.6,603.863v-.992ZM450.67,296.5l42.635-63.457.992.992c1.983,13.881.991,27.762-7.932,40.652-8.924,10.906-20.822,19.83-35.695,22.805ZM436.789,397.629l-32.72,57.507.992-.991c9.915-3.966,17.847-9.915,26.771-15.864,4.957-3.966,10.906-8.924,14.872-14.873a19.985,19.985,0,0,0,2.975-10.907C447.7,405.561,442.738,401.6,436.789,397.629Zm19.83-51.559c-3.966,12.89-8.923,25.78-12.889,38.669.991,0,1.983.992,2.974.992,17.847,5.949,25.78,29.745,13.881,43.626a172.268,172.268,0,0,1-14.872,12.89,178.083,178.083,0,0,1-39.661,22.8,3.64,3.64,0,0,1-2.974.992c-2.975.991-4.958,1.983-6.941,4.957-.991,3.967-6.94,4.958-10.906,2.975-6.941-1.983-9.915-6.941-11.9-12.89-2.975-6.94-2.975-13.881-1.983-20.821.991-3.966.991-6.941,1.983-9.915h.991v1.983c1.983,2.974,2.975,6.94,3.966,10.906.992.992.992,1.983,1.983,2.975,2.975,4.957,4.958,4.957,7.932,0,7.932-10.907,16.856-21.813,23.8-32.72,14.873-21.813,28.754-44.618,42.635-66.431C455.628,347.062,455.628,346.07,456.619,346.07ZM415.968,648.481c.991-1.983,2.974-2.975,3.966-4.958,5.949-5.949,11.9-11.9,18.838-16.856,1.983,0,2.975-1.983,3.966-2.974,3.966-4.958,2.975-10.907-1.983-13.881a13.764,13.764,0,0,0-10.906-1.983c-3.966,0-5.949,1.983-6.941,4.957a29.348,29.348,0,0,0-1.983,9.915c-.991,4.958-1.983,10.907-2.974,16.856C417.951,642.531,416.959,645.506,415.968,648.481ZM232.538,302.444v.992h.992c28.754,19.83,58.5,37.677,89.236,55.524a29.677,29.677,0,0,0,9.915,3.966c1.983.992,4.957.992,5.949-1.983,3.966-3.966,3.966-9.915.991-14.873-1.983-2.974-4.957-5.949-7.932-6.94-26.77-9.915-52.55-18.839-78.329-28.754C246.42,307.4,239.479,305.419,232.538,302.444ZM678.717,441.255h0c0,4.958.992,8.924.992,13.881,0,22.8-.992,45.61-5.949,67.423,0,1.983,0,3.966.991,4.957,11.9,22.805,19.83,46.6,20.822,72.381,1.983,16.855.991,34.7-1.983,52.55a250.427,250.427,0,0,1-58.5,117.989l-1.983,1.983c.991,0,.991-.991,1.983-.991C673.76,739.7,700.53,700.039,715.4,651.455c1.983-4.957,3.966-7.932,8.924-10.907.991-.991,2.974-.991,4.957-1.983,2.975-1.983,6.941-3.966,9.915-6.94.992-.992,1.983-1.983,1.983-2.975,1.983-11.9,2.975-24.787,3.966-36.685,0-6.941-1.983-11.9-6.94-16.856-.992,0-1.983-.992-2.975-1.983a56.7,56.7,0,0,1-6.94-7.932c-1.983-1.983-3.966-4.958-3.966-7.932-.992-4.958-1.983-9.915-1.983-13.881a244.74,244.74,0,0,0-36.686-93.2A54.469,54.469,0,0,0,678.717,441.255Zm-198.3,113.032c.991,0,.991-.991,1.983-1.983a421.812,421.812,0,0,1,26.77-45.609,193.665,193.665,0,0,1,16.856-22.805,11.259,11.259,0,0,1,7.932-2.974c9.915.991,20.822,0,30.737-1.983,24.788-4.958,43.626-18.839,54.533-41.644,6.94-13.881,10.906-28.754,10.906-43.626.992-23.8-5.949-45.61-17.847-66.431a3.072,3.072,0,0,1-.991-1.983,3.643,3.643,0,0,1,2.974.991,129.11,129.11,0,0,1,22.8,17.847c21.813,22.805,33.711,49.576,38.669,79.321.991,1.983.991,3.966,1.983,4.958,13.881,17.847,25.779,37.677,33.711,58.5A246.071,246.071,0,0,1,729.284,552.3c.992,4.958,1.983,7.932,4.958,10.907.991.991.991,1.983,1.983,1.983,2.974,3.966,6.94,6.94,9.915,10.906,2.974,2.975,3.966,6.941,3.966,10.907,0,13.881-1.983,27.762-3.966,41.643,0,3.966-2.975,7.932-5.949,9.915-1.983.992-4.958,2.975-6.941,3.966l-8.923,5.95c-1.983.991-2.975,2.974-3.966,4.957l-8.924,26.771c-16.856,39.66-42.635,71.388-76.346,98.159l-.992.992h.992c4.957-2.975,10.907-5.949,14.873-7.932a272.726,272.726,0,0,0,83.286-74.364c29.746-41.643,46.6-87.252,49.576-137.819a234.587,234.587,0,0,0-2.975-64.448,246.285,246.285,0,0,0-29.745-83.287C712.429,346.07,657.9,303.436,585.515,284.6a151.5,151.5,0,0,0-35.694-6.941c-1.983-.991-3.966,0-3.966,1.983a141.8,141.8,0,0,0-10.906,14.873,3.641,3.641,0,0,0-.992,2.975c4.958,12.889,9.915,24.787,14.873,37.677,5.949,15.864,12.889,31.728,18.838,48.584v4.957l-11.9,32.72c-.991.992-1.983.992-2.974,1.983-5.949,0-11.9.992-17.847.992-1.983,0-2.975.991-2.975,1.983-3.966,8.923-7.932,17.847-10.907,26.77-1.983,3.966-4.957,6.941-9.915,7.932-7.932,2.975-16.855,4.958-24.787,7.932-3.966.992-6.941,2.975-7.932,6.941-.992.992-.992,1.983-1.983,2.975-8.924,23.8-18.839,48.583-27.763,72.38V553.3c4.958-.992,10.907-.992,15.864-.992S475.458,554.287,480.416,554.287ZM342.6,477.941h0v1.983c-1.983,13.881-3.966,27.762-4.958,40.652-2.974,17.847-4.957,34.7-6.94,52.55-1.983,10.906-3.966,21.813-9.915,31.728l-5.949,11.9c-3.966,7.932-7.932,15.864-12.89,23.8a8.474,8.474,0,0,0,0,6.941l8.924,26.771c1.983,5.949,4.957,10.906,6.94,15.864a5.453,5.453,0,0,0,4.958,2.974c8.923,1.983,17.847,4.958,26.77,6.941,3.966,1.983,9.916.991,13.882-1.983s6.94-5.949,10.906-8.924c5.949-4.957,11.9-10.906,17.847-16.855s9.915-11.9,11.9-19.83c.992-5.949,1.983-10.907,2.975-16.856.991-7.932.991-15.864,1.983-23.8,1.983-7.932,5.949-13.881,14.873-16.856a56.143,56.143,0,0,1,17.847-2.974c1.983,0,4.957.991,6.94.991-6.94.992-12.889,1.983-18.838,4.958h7.932c11.9.991,18.838,7.932,19.83,19.83.991,3.966,0,6.94-1.983,8.923-2.975,2.975-4.958,5.949-7.932,7.932-2.975,2.975-6.941,4.958-9.915,7.932a529.019,529.019,0,0,0-39.661,41.644c0,.991-.991.991-.991,1.983h23.8c4.958,0,9.915-1.983,12.89-5.949l3.966-3.966c11.9-9.915,22.8-19.83,33.711-30.737,2.975-2.975,5.949-5.949,6.941-9.915,4.957-9.915,5.949-19.83,1.983-30.737a68.7,68.7,0,0,0-29.746-30.737c-4.957-2.974-11.9-3.966-17.847-2.974-7.932.991-15.864,1.983-23.8,4.957l1.983-1.983c6.941-9.915,16.856-15.864,27.762-19.83.992,0,1.983-.991,2.975-1.983,3.966-11.9,7.932-23.8,12.889-35.694,4.958-13.881,10.907-28.754,16.856-42.635,3.966-8.924,3.966-9.915,12.89-11.9a199.737,199.737,0,0,1,22.8-6.941c3.966-.991,6.941-2.974,7.932-6.94,8.924-20.822,17.848-42.635,27.763-63.457a6.324,6.324,0,0,0,0-5.949c-8.924-21.813-17.848-43.626-25.78-64.448l-.991-.991c-20.822,13.881-42.635,19.83-67.423,16.855a3.46,3.46,0,0,0,1.983-.991c3.966-1.983,6.941-2.975,9.915-4.958,13.882-8.923,24.788-20.821,34.7-33.711,10.907-13.881,14.873-30.737,14.873-48.584a119.357,119.357,0,0,0-8.924-44.618c0-.991-.991-1.983-.991-2.974l-1.983,1.983c-6.941,9.915-13.881,20.821-20.822,30.736-18.839,28.754-38.669,56.516-59.49,84.279-4.958,5.949-9.916,10.906-13.882,16.855-2.974,1.983-5.949,2.975-8.923,1.983-5.949-.991-8.924-4.957-11.9-8.923l-1.983-1.983c0,.991,0,.991-.992,1.983-7.932,23.8-16.855,47.592-25.779,70.4-1.983,7.932-4.958,14.872-4.958,22.805-.991,15.864,2.975,29.745,9.916,42.634,2.974,3.966,3.966,7.932,5.949,11.9,4.957,12.89,5.949,25.78,0,38.669-.992,3.966-2.975,6.941-3.966,9.915C360.443,501.737,351.519,489.839,342.6,477.941ZM458.6,136.862h10.907c1.983.992.991,1.983,0,1.983-6.941,12.89-14.873,24.788-22.805,36.686a3.072,3.072,0,0,1-.991,1.983c2.974-.992,4.957-2.975,7.932-3.966A287.657,287.657,0,0,1,561.719,143.8c18.839-1.983,38.669-.992,58.5.991a313.952,313.952,0,0,1,68.414,16.856c34.7,12.889,66.431,31.728,95.185,53.541,1.983.992,3.966,2.975,5.949,4.958a182.558,182.558,0,0,0-32.72-2.975c-10.906-.991-21.813-1.983-31.728-2.974v.991a368.517,368.517,0,0,1,47.593,26.771c53.541,37.677,93.2,84.278,118.981,144.76a341.107,341.107,0,0,1,26.77,125.922v21.813c0,8.924-.991,17.847-.991,26.771-.992,1.983-.992,3.966-.992,6.94L890.9,537.432v1.983c.992,4.957.992,9.915,1.983,14.872.992,20.822-.991,41.644-4.957,62.465-7.932,42.635-24.788,81.3-50.567,117-20.822,28.754-45.61,53.542-73.372,75.355-1.983,1.983-3.966,3.966-5.949,4.957l9.915-52.55-.991-.991V762.5a264.877,264.877,0,0,1-79.321,76.346,243.16,243.16,0,0,1-89.236,36.686,35.217,35.217,0,0,0-9.915,1.983h-1.983c.992-.992.992-1.983,1.983-1.983,11.9-10.907,22.8-21.813,32.72-34.7l.991-.991c-8.923,4.957-18.838,9.915-28.753,12.889-20.822,6.941-42.635,10.907-64.448,12.89-25.78,1.983-51.559,0-77.338-4.958-15.864-2.974-31.728-5.949-46.6-10.906-5.949-1.983-10.907-3.966-16.856-4.958.992-.991,1.983-.991,1.983,0,6.941.992,14.873,1.983,21.813,2.975a195.838,195.838,0,0,0,63.457-3.966c45.609-8.924,84.278-30.737,114.024-67.423,36.685-44.618,48.583-96.176,35.694-151.7-8.924-37.677-28.754-67.422-57.508-93.2-3.966-1.983-6.94-4.958-10.906-7.933,0,.992-.992.992-.992,1.983-9.915,11.9-18.838,24.788-28.754,36.686-5.949,7.932-11.9,15.864-15.864,23.8-3.966,8.924-6.94,16.856-4.957,26.771.991,6.941,0,13.881-.992,20.822q-4.461,19.335-20.821,32.72c-12.89,11.9-24.788,22.8-37.678,34.7-1.983.992-3.966,2.975-5.949,3.967a55,55,0,0,1-27.762,6.94c-3.966,0-7.932-.991-10.907-.991-5.949,0-11.9.991-16.855,4.957-1.983,1.983-4.958,3.966-6.941,5.949a20.732,20.732,0,0,1-5.949,3.966,60,60,0,0,1-18.839,0c-14.872-1.983-29.745-5.949-43.626-9.915a27.073,27.073,0,0,1-11.9-8.923,20.735,20.735,0,0,0-3.966-5.95c-8.924-15.864-14.873-33.711-19.83-51.558-.992-4.958-.992-10.907.991-15.864a68.325,68.325,0,0,0,3.966-9.915c5.949-11.9,12.89-23.8,18.839-35.694.992-2.975,2.975-6.941,3.966-10.907,1.983-9.915,2.975-19.83,3.966-29.745l5.949-44.618c1.983-12.89,2.975-26.771,4.958-39.661a48.15,48.15,0,0,0,0-16.855c-.992-6.941-3.966-12.89-6.941-18.839a36.655,36.655,0,0,1-5.949-20.822c0-7.932,1.983-15.864,3.966-23.8.992-.991.992-1.983-.991-2.974a129.12,129.12,0,0,0-14.873-9.915c-48.584-35.695-96.176-71.389-144.76-106.092l-14.873-11.9v-1.983c2.975-1.983,5.949-1.983,7.932-.991,14.873,4.957,29.745,10.906,44.618,15.864,33.711,11.9,67.423,23.8,102.125,36.686h1.983c-6.94-21.814-8.923-43.627-3.966-65.44s15.865-41.643,31.729-56.516c4.957,18.839,9.915,36.686,16.855,54.533h.992c0-.992,0-1.983.991-1.983,4.958-15.864,12.89-31.728,23.8-44.618C381.265,158.675,412,142.811,447.7,138.845,451.662,137.854,454.636,137.854,458.6,136.862Zm291.5-65.439C672.768,26.805,589.482,4,500.246,4,410.018,4,326.732,26.805,249.394,71.423Q137.85,138.349,70.923,249.894C26.305,327.232,3.5,410.518,3.5,499.754c0,90.228,22.805,173.514,67.423,250.852q66.926,111.545,178.471,178.471C326.732,973.7,410.018,996.5,500.246,996.5c89.236,0,172.522-22.8,249.86-67.423q111.545-66.925,178.471-178.471C973.2,673.268,996,589.982,996,499.754c0-89.236-22.8-172.522-67.423-249.86Q861.652,138.35,750.106,71.423Z"/></svg>