<svg xmlns="http://www.w3.org/2000/svg" width="1000" height="1000">
  <path d="M5 500.496c0 89.011 22.747 172.089 67.253 249.232 44.506 74.176 103.846 133.517 178.023 178.022 77.143 44.506 160.22 67.253 250.22 67.253 89.011 0 172.089-22.747 249.232-67.253 74.176-44.505 133.517-103.846 178.022-178.022 44.506-77.143 67.253-160.22 67.253-250.22 0-89.012-22.747-172.09-67.253-249.232-44.505-74.177-103.846-133.517-178.022-178.023C672.585 27.747 589.508 5 500.496 5c-90 0-173.077 22.747-250.22 67.253-74.177 44.506-133.517 103.846-178.023 178.023C27.747 327.419 5 410.496 5 500.496zm156.264-41.538c6.923-45.495 19.78-89.012 41.539-129.561 19.78-37.583 45.495-70.22 76.154-96.924 26.703-23.736 57.363-44.505 90-60.33 41.539-18.79 86.045-29.67 131.54-33.626 22.746-.99 43.516 0 66.263 3.956 60.33 6.923 115.715 28.681 165.166 64.286 3.956 2.967 3.956 3.956.989 6.923-41.54 58.352-85.056 115.715-127.583 174.067-2.967 4.945-3.956 4.945-6.923.989-26.704-16.814-56.374-25.715-87.034-21.759-35.604 2.967-64.286 15.824-89.011 40.55-28.681 30.66-41.539 68.242-36.593 109.78 6.923 53.407 36.593 90.99 87.033 112.748 85.055 35.605 130.55 9.89 151.319 8.901 34.615 9.89 60.33 11.868 86.044-1.978 2.967 1.978 7.912 2.967 9.89 5.934 31.649 19.78 63.297 41.539 93.957 61.32 2.967 3.955 2.967 4.944.989 8.9-3.956 3.956-6.923 8.901-10.88 12.857-16.813 20.77-32.637 39.561-52.417 55.385-39.56 32.638-82.088 55.385-129.561 69.231-26.703 7.912-53.407 11.868-80.11 14.835-22.748.99-46.484 0-69.231-4.945-36.594-3.956-71.21-14.835-104.836-29.67-45.494-20.77-83.077-50.44-116.703-87.033-20.77-24.726-39.561-49.451-53.407-78.132-30.66-60.33-45.495-142.419-36.594-206.704zm441.1-50.44c-.988-1.978-.988-3.956 0-4.945 17.803-20.77 33.627-40.55 52.418-59.341 15.825-18.791 32.638-36.594 48.462-56.374 16.813-19.78 33.627-38.571 49.45-58.352.99-.989 4.946-1.978 5.935-.989 2.967 2.967 4.945 3.956 8.901 8.901 0 0 1.978.99 2.967 1.978-.989.99-2.967 2.967-3.956 2.967-9.89 10.88-19.78 21.759-30.66 32.638-16.813 18.791-36.593 36.593-53.406 55.385a1823.03 1823.03 0 0 0-60.33 63.297l-13.846 13.846c-1.978 1.978-2.967 2.967-5.934.989zm7.913 29.67c-1.978-1.978 1.978-2.967 1.978-4.945 23.736-14.835 47.472-29.67 72.198-45.494 37.582-24.726 77.143-47.473 113.736-70.22 7.913-6.924 15.825-9.89 21.759-14.836 3.956-1.978 5.934-.989 6.923 1.978 1.978 2.967 3.956 6.923 7.912 11.868v.99c-11.868 4.945-22.747 11.868-34.615 17.802-34.616 18.791-67.253 36.593-100.88 57.363-27.692 14.835-55.385 30.659-83.077 45.494-1.978.99-3.956 2.967-5.934 0z" style="fill:#000;fill-opacity:1;fill-rule:nonzero;stroke:none;"/>
</svg>
