<svg xmlns="http://www.w3.org/2000/svg" viewBox="0 0 1000 1000"><path d="M289,2,87,204H251C273,124,359,17,385,2ZM483,204V2H437C351.4,63.6,302.7,162.3,289,204Zm39,0H718C672.4,95.2,598.3,24,567,2H522Zm234,0H915L711,2H621C685.8,61.2,731,144,756,204Zm-43,796L915,798H751c-22,80-108,187-134,202ZM519,798v202h46c85.6-61.6,134.3-160.3,148-202Zm-39,0H284c45.6,108.8,119.7,180,151,202h45Zm-234,0H87l204,202h90C316.2,940.8,271,858,246,798Zm99-80,1.2-326.4h-1.8L259.2,718H202.8L119.4,391.6h-1.8L118.8,718H53.4V293.2H150L231.6,604H234l79.8-310.8H415.2V718Zm156.1,0V293.2H691.3v63.6H570.1V469.6H682.3v58.8H570.1V653.8H697.3V718ZM929.2,375.4q-23.4-28.2-58.8-28.2a56,56,0,0,0-19.8,3.6A45.42,45.42,0,0,0,833.2,361a52.67,52.67,0,0,0-12.6,18.6q-4.2,11.4-4.2,27,0,27,16.2,42,16.2,14.4,42.6,27.6,15.6,7.8,31.8,18a143.41,143.41,0,0,1,29.4,24.6A118.65,118.65,0,0,1,958,553q8.4,19.8,8.4,46.8,0,31.2-10.2,55.2a119.79,119.79,0,0,1-26.4,40.8,107.28,107.28,0,0,1-38.4,24.6,131.13,131.13,0,0,1-46.8,8.4q-35.4,0-65.4-13.8t-48-34.8l39-52.8a100.39,100.39,0,0,0,33,26.4,91.28,91.28,0,0,0,40.2,9.6q22.8,0,37.8-15.6t15-43.8q0-27.6-18-43.8t-45.6-30a292.91,292.91,0,0,1-33-18.6,139.9,139.9,0,0,1-27-24,126.07,126.07,0,0,1-18.6-33q-6.6-19.2-6.6-45.6,0-33,10.2-56.4,10.8-24,27.6-39.6a110.05,110.05,0,0,1,39-22.8,128.1,128.1,0,0,1,43.8-7.8q32.4,0,57.6,10.8a108,108,0,0,1,43.2,30.6Z"/></svg>