<svg xmlns="http://www.w3.org/2000/svg" viewBox="0 0 1000 1000"><path d="M994.997 146.104v-1.138l-.569 1.366c-11.152 30.382-21.28 62.813-33.569 93.082-1.138 4.552-7.965 11.38-12.517 14.793-118.344 66-236.689 130.862-353.895 195.724-3.414 1.138-6.828 1.138-12.518 3.413 10.242-21.62 19.345-38.69 37.552-51.206 119.482-81.931 237.827-163.862 355.033-246.93 6.6-3.3 13.314-5.576 19.914-8.876zM5 147.242c0-1.138 1.138-2.276 2.276-3.414 6.827 4.552 12.517 9.104 19.345 12.517 117.206 81.931 236.689 163.862 353.895 246.93 14.793 11.38 26.173 29.587 38.69 44.38-2.276 1.138-4.552 4.552-4.552 6.827C289.482 385.07 164.31 315.655 40.276 247.38 27.759 213.242 16.379 180.242 5 147.242zm47.793 135.413 1.252.342c7.51 2.048 15.02 3.3 20.369 6.486 111.517 58.034 221.896 117.206 332.275 175.24 23.896 12.518 36.413 29.587 48.93 58.035C328.172 467 206.413 414.655 83.517 360.034c-10.241-24.92-20.369-50.979-29.472-77.037l-.114-.342zM92.62 386.207c128.586 53.482 251.482 105.827 375.517 157.034 7.965 14.793 15.93 30.724 23.896 43.241-10.241 78.517-20.483 152.482-31.862 232.137-11.38-9.103-19.345-17.069-28.448-25.034 15.93-69.414 30.724-138.827 46.655-208.24a61724.653 61724.653 0 0 1-365.275-143.38c-5.69-17.069-12.517-33-20.483-55.758zm365.275 87.62c5.69-6.827 11.38-13.655 18.207-22.758 7.966 15.93 15.931 29.586 23.897 46.655l22.758-45.517c6.828 7.965 12.517 13.655 19.345 21.62-13.655 29.586-26.172 58.034-42.103 93.31-15.931-34.138-28.449-62.586-42.104-93.31zm20.483 363c6.828-68.277 13.655-136.552 19.345-203.69h4.551c5.69 67.138 12.518 134.276 18.207 202.551-5.69 6.828-12.517 12.517-19.344 20.483-6.828-6.828-14.794-12.517-22.759-19.345zm1.138-410.793c5.69-7.965 12.517-13.655 21.62-23.896 5.69 7.965 12.518 14.793 18.207 23.896-5.69 11.38-11.379 22.759-19.344 35.276-6.828-12.517-13.656-23.897-20.483-35.276zm28.448 161.586c7.966-13.655 15.931-28.448 23.897-44.38 122.896-51.206 246.93-102.413 368.688-153.62 1.138 2.276 3.414 3.414 3.414 4.552-4.552 15.931-11.38 31.862-17.069 47.793a61724.381 61724.381 0 0 1-365.275 143.38c15.931 70.55 30.724 138.826 46.655 208.24-7.965 7.965-17.069 14.793-28.448 25.034-11.38-78.517-21.62-153.62-31.862-231zm37.552-66c10.241-27.31 22.758-44.379 46.655-55.758 112.655-59.173 223.034-119.483 335.688-178.655 4.552-2.276 10.242-4.552 19.345-9.103-10.241 28.448-20.483 54.62-29.586 80.792C795.86 413.517 674.102 465.862 545.516 521.62z"/></svg>