<svg xmlns="http://www.w3.org/2000/svg" width="1000" height="1000">
  <path d="M498.371 476.117v113.98c29.31 4.342 56.448 17.368 80.33 33.651 27.137 18.454 47.762 43.421 61.874 72.73 14.112 29.31 23.881 61.875 23.881 95.526 0 34.737-8.684 69.474-26.052 99.868-18.454 32.566-42.336 56.448-73.816 74.901-30.394 17.369-61.874 28.224-98.782 28.224-36.908 0-68.388-9.77-99.868-28.224-32.566-19.539-56.448-42.335-72.73-74.9-16.283-31.48-26.053-65.132-26.053-99.869 0-33.651 7.599-66.217 23.882-95.526 15.197-28.223 34.736-53.19 61.874-72.73 24.967-16.283 52.105-29.309 81.415-33.651v-113.98c-29.31-3.257-56.448-16.283-81.415-31.48-27.138-20.625-48.848-44.507-61.874-72.73-15.198-32.566-23.882-62.96-23.882-96.612 0-33.651 8.684-70.559 26.053-99.868 18.453-30.395 40.164-55.362 72.73-75.986 30.394-19.54 62.96-26.053 99.868-26.053 41.25 0 80.328 13.026 113.98 36.908L687.252 5l45.592 43.421-108.552 107.467c13.026 16.283 21.71 33.651 28.224 53.19 8.684 21.71 11.94 42.336 11.94 66.217 0 33.651-8.684 65.132-23.881 96.612-14.112 29.309-34.737 52.105-61.875 72.73-22.796 17.368-51.02 28.223-80.329 31.48zM330.115 792.004c0 24.967 4.342 48.849 19.54 69.474 13.026 18.454 27.138 37.993 48.848 48.848 21.71 10.855 42.336 19.54 67.303 19.54 23.881 0 46.677-4.342 66.217-19.54 19.539-15.197 37.993-28.223 51.02-49.934 13.025-19.54 18.453-43.42 18.453-68.388 0-27.138-5.428-48.848-18.454-69.473-13.026-22.796-28.223-39.08-51.02-51.02-20.624-10.855-42.335-18.454-66.216-18.454-24.967 0-46.678 5.428-67.303 18.454s-39.079 28.224-48.848 49.934c-10.855 23.882-19.54 43.421-19.54 70.56zm0-516.709c0 27.138 5.428 49.934 19.54 71.645 11.94 18.454 27.138 36.908 48.848 48.848 21.71 11.941 42.336 20.625 67.303 20.625 23.881 0 46.677-8.684 66.217-20.625 21.71-13.026 37.993-29.309 51.02-48.848 13.025-20.625 18.453-44.507 18.453-71.645 0-26.052-5.428-48.848-18.454-69.473-13.026-19.54-28.223-37.994-51.02-49.934-20.624-10.856-42.335-19.54-66.216-19.54-24.967 0-46.678 6.513-67.303 19.54-21.71 14.112-39.079 30.394-48.848 48.848-11.941 22.796-19.54 44.507-19.54 70.56z" style="fill:#000;fill-opacity:1;fill-rule:nonzero;stroke:none;"/>
</svg>
