<svg xmlns="http://www.w3.org/2000/svg" viewBox="0 0 1000 1000"><path d="M175.95 935.914c12.428-27.343 29.828-48.472 42.257-72.087 6.214-11.186 13.672-13.671 26.1-7.457 24.858 11.186 48.473 18.643 74.573 26.1 14.914 3.73 29.829 3.73 42.258 3.73 22.372 1.242 24.857 7.456 24.857 27.342-2.485 17.4-2.485 29.83-2.485 44.744-3.73 33.558-12.43 42.258-45.987 33.558l-93.216-24.858c-18.643-4.971-37.286-16.157-55.929-21.129-4.972-2.486-7.457-7.457-12.429-9.943zM8.16 323.176c0-41.015 13.673-80.787 32.316-118.073 3.728-8.7 11.186-12.429 21.129-8.7l47.229 27.343c16.157 9.943 14.914 13.672 8.7 32.315-8.7 23.615-12.429 49.715-18.643 75.815-2.486 11.186-8.7 18.644-23.615 18.644l-53.443-7.458c-9.943-3.728-14.915-11.186-13.672-19.886zm22.373 80.787c-3.729-4.971 3.728-12.429 9.943-16.157 8.7-1.243 16.157 0 23.614 0h11.186c26.1 0 29.83 3.728 33.558 29.829 3.729 18.643 8.7 37.286 14.914 55.93 1.243 12.428 0 22.371-16.157 23.614-11.186 2.486-24.857 6.214-37.286 11.186-11.186 2.486-18.643 0-21.13-11.186-7.456-32.315-14.914-60.901-18.642-93.216zm22.371-268.461c37.287-52.2 83.273-94.459 135.474-126.773C188.378 5 192.107 5 198.321 5c3.729 11.186 7.457 22.372 12.429 29.829l23.614 44.744c6.215 11.185 6.215 16.157-4.971 24.857-34.8 23.615-62.144 55.93-87.001 90.73-11.186 16.157-17.4 16.157-29.83 4.972-18.643-11.186-34.8-22.372-53.443-34.801-13.672-11.186-14.915-14.914-6.215-29.829zm55.93 443.707c-8.7-9.943-3.729-18.643 6.214-23.615l39.772-14.914c2.486 1.242 7.458 4.971 9.943 8.7 14.915 17.4 23.615 33.557 34.8 48.472 2.487 3.729 6.215 11.186 2.487 11.186-9.943 12.429-22.372 23.614-37.287 31.072-2.485 2.485-12.428-1.243-14.914-4.972-16.158-18.643-24.858-38.529-41.015-55.93zM236.85 326.905c6.215-7.457 13.672-11.186 22.372-3.729 7.457 6.215 18.643 8.7 12.429 19.886-4.972 13.672-12.43 24.858-18.643 37.287-42.258-16.158-32.315-22.372-16.158-53.444zm11.186 350.49c4.972-4.97 7.457-12.428 13.672-18.642 4.971-1.243 9.943-4.972 16.157-1.243 14.915 8.7 33.558 14.914 49.715 26.1-18.643 48.472-21.129 48.472-60.9 26.1-4.972-6.214-7.458-7.457-13.672-11.185-8.7-3.729-9.943-13.672-4.972-21.129zm77.058-427.548c-18.643-23.615-16.157-24.858 8.7-42.258 3.73-2.486 9.943-7.457 12.43-11.186 26.1-12.429 44.743-1.243 44.743 29.829-1.243 3.729-4.972 11.186-12.429 13.672-7.457 4.971-17.4 8.7-26.1 16.157-11.186 8.7-18.644 4.971-27.344-6.214zM404.638 921c1.243-12.43 0-27.344 4.972-38.53 7.457-7.457 24.857-6.214 33.558-7.457 22.371-3.728 41.014-13.671 62.143-18.643 18.644-4.971 18.644-6.214 28.587 12.429l17.4 44.743c4.971 11.186 1.243 22.372-11.186 26.1-39.772 12.43-78.301 27.344-116.83 29.83-11.186 0-17.4-7.457-17.4-14.915V921zm11.186-200.103c1.243-18.644 8.7-24.858 33.558-24.858 21.129 0 23.615 2.486 23.615 18.643 0 21.13-7.458 24.858-31.072 24.858-21.13 0-26.1-6.215-26.1-18.643zm42.258-536.923c-9.943-44.743-8.7-42.258 37.286-52.2l28.587-6.215c27.343 2.486 27.343 2.486 23.614 28.586-4.971 32.315-2.486 32.315-31.072 38.53l-37.286 3.728c-11.186 3.729-18.643-1.243-21.129-12.429zM578.642 868.8c-31.073-55.93-27.344-42.258 14.914-79.544l22.371-23.615c8.7-9.943 17.4-11.186 27.344 0 9.943 7.457 21.128 18.643 32.314 31.072 2.486 3.729 2.486 13.672 0 16.157-24.857 24.858-48.472 44.744-72.086 67.116-2.486 2.485-6.215 2.485-7.458 2.485-2.485 0-7.457-2.485-11.186-6.214zm29.828-702.225c3.729-8.7 6.214-22.372 11.186-33.558 2.486-11.186 7.457-18.643 18.643-16.157 13.672 3.728 26.1 4.971 39.772 8.7l47.23 14.914c13.671 9.943 13.671 13.672 6.214 26.1-24.858 48.473-24.858 48.473-74.573 33.559l-34.8-7.458c-13.672-2.485-18.643-11.186-13.672-26.1zm41.015 201.346c-8.7-11.186-14.915-18.643 0-28.586 14.915-8.7 22.372-8.7 31.072 6.214 6.214 8.7 9.943 18.643 16.157 29.83-6.214 4.97-9.943 11.185-16.157 12.428-8.7 3.728-16.157 6.214-21.129-1.243zM664.4 683.61c7.457-13.671 13.671-29.829 18.643-44.743 3.728-11.186 7.457-17.4 18.643-14.915l37.286 16.158c3.729 0 4.972 6.214 7.457 11.186-7.457 16.157-12.428 32.314-18.643 47.229-21.129 41.015-14.914 41.015-55.93 14.914-9.942-9.943-12.428-17.4-7.456-29.829zm34.8-195.131c2.486-14.915 18.643-9.943 32.315-9.943 11.186-2.486 14.914 2.486 14.914 17.4v27.343c0 29.83-9.943 37.287-39.772 24.858-1.243 0-4.971-2.486-4.971-6.215-2.486-18.643-4.972-37.286-2.486-53.443zm44.744-262.247c13.671-18.643 26.1-37.286 43.5-55.93 7.457-7.457 14.915-7.457 26.1-3.728 31.073 28.586 57.173 57.172 84.516 89.487 6.215 11.186 2.486 14.914-4.971 19.886-14.915 9.943-34.8 18.643-49.715 29.829-9.943 7.457-17.4 6.214-22.372-1.243-22.372-24.857-47.23-45.986-74.573-70.844 0-2.486 0-3.728-2.485-7.457zm111.858 119.316c-4.971-9.943-4.971-17.4 4.972-22.372l62.144-29.829c12.428-6.214 19.886-3.728 26.1 11.186 11.186 27.343 22.372 57.172 29.83 87.001 7.456 21.13 7.456 44.744 12.428 65.873 2.486 27.343 0 28.586-26.1 28.586-18.644 0-37.287-1.243-58.416-1.243-9.943-3.728-16.157-11.186-16.157-18.643-4.972-43.5-14.915-82.03-34.8-120.559z"/></svg>