<svg width="1000" height="1000" viewBox="0 0 1000 1000" fill="none" xmlns="http://www.w3.org/2000/svg">
<path d="M289 2L87 204H251C273 124 359 17 385 2H289Z" fill="black"/>
<path d="M483 204V2H437C351.4 63.6 302.667 162.333 289 204H483Z" fill="black"/>
<path d="M522 204H718C672.4 95.2 598.333 24 567 2H522V204Z" fill="black"/>
<path d="M756 204H915L711 2H621C685.8 61.2 731 144 756 204Z" fill="black"/>
<path d="M713 1000L915 798L751 798C729 878 643 985 617 1000L713 1000Z" fill="black"/>
<path d="M519 798L519 1000L565 1000C650.6 938.4 699.333 839.667 713 798L519 798Z" fill="black"/>
<path d="M480 798L284 798C329.6 906.8 403.667 978 435 1000L480 1000L480 798Z" fill="black"/>
<path d="M246 798L87 798L291 1000L381 1000C316.2 940.8 271 858 246 798Z" fill="black"/>
<path d="M234.555 709.998L118.98 422.498H117.255L118.405 709.998H56.3047V302.898H135.08L249.505 592.123H251.23L250.655 302.898H310.455V709.998H234.555Z" fill="black"/>
<path d="M572.619 709.998L463.944 512.198H462.219V709.998H393.219V302.898H462.219V479.423H463.944L567.444 302.898H645.069L525.469 490.348L652.544 709.998H572.619Z" fill="black"/>
<path d="M959.751 507.023C959.751 571.423 946.143 621.448 918.926 657.098C892.093 692.365 852.418 709.998 799.901 709.998H698.126V302.898H800.476C852.609 302.898 892.093 320.915 918.926 356.948C946.143 392.598 959.751 442.623 959.751 507.023ZM890.751 507.023C890.751 482.873 888.451 461.79 883.851 443.773C879.634 425.757 873.501 410.807 865.451 398.923C857.401 387.04 847.818 378.223 836.701 372.473C825.584 366.34 813.509 363.273 800.476 363.273H767.701V649.623H800.476C813.509 649.623 825.584 646.748 836.701 640.998C847.818 634.865 857.401 625.857 865.451 613.973C873.501 602.09 879.634 587.332 883.851 569.698C888.451 551.682 890.751 530.79 890.751 507.023Z" fill="black"/>
</svg>
