<svg xmlns="http://www.w3.org/2000/svg" viewBox="0 0 1000 1000"><path d="M465.29 85.78V5c21.457 0 80.78 80.78 100.974 112.334 61.847 97.187 103.499 244.862 26.506 340.787-25.243 27.768-46.7 54.274-71.944 80.78-107.285 98.45-174.18 218.356-212.046 359.72-11.36 21.457-11.36 26.506-22.719 17.67-60.584-56.797-107.285-151.46-107.285-215.832 0-112.333 22.72-191.85 116.12-277.678 27.768-21.458 51.75-47.963 73.207-76.993 60.584-74.469 90.876-161.559 97.187-260.009zM403.444 979.4c-16.409-5.048-10.098-20.194 0-20.194 25.243-3.787 35.34-25.244 36.603-49.225 3.786-64.371 36.603-117.383 78.255-164.083 34.078-41.652 76.992-79.517 112.333-121.17 66.896-79.516 73.207-83.303 122.432-201.947 40.39 41.651 68.157 138.839 68.157 246.124 0 88.352-30.292 167.87-94.663 232.24-69.42 69.42-156.51 104.761-253.698 90.877-23.981-1.262-47.962-7.573-69.42-12.622z"/></svg>