<svg xmlns="http://www.w3.org/2000/svg" width="1000" height="1000">
  <path d="M500.496 5C223.572 5 5 229.506 5 500.002c0 276.43 224.506 495.001 495.002 495.001 276.43 0 495.001-224.506 495.001-495.001C995.003 226.539 773.464 5 500.496 5zm153.297 450.99h37.583c-3.956-24.725-8.901-36.593-28.681-65.274-53.407-65.275-114.726-89.012-190.88-73.188-75.165 10.88-128.572 60.33-145.385 134.506-16.814 89.012 7.912 154.287 78.132 202.748 64.286 39.56 149.34 37.583 207.693-6.923 17.802-11.868 32.637-14.835 52.418-14.835h90c-.99 2.967-2.967 4.945-6.923 10.88-1.978 1.977-2.967 3.955-4.945 5.933-44.506 54.396-79.121 92.968-133.517 112.748-22.748 6.923-29.67 18.791-29.67 43.517v21.758c0 13.846-6.924 18.791-24.726 18.791-13.846 0-18.791-3.956-18.791-18.791v-11.868c0-29.67-5.934-35.605-34.616-35.605-21.758 0-24.725 14.835-24.725 30.66v16.813c0 18.791-8.901 18.791-24.726 18.791-14.835 0-18.79-3.956-18.79-18.791 4.944-41.539-13.847-57.363-51.43-80.11-117.692-59.341-176.044-180-147.363-309.562 21.759-98.901 75.165-164.176 163.188-201.759 27.692-11.868 35.604-22.747 35.604-47.472v-17.803c0-16.813 5.934-24.725 18.791-24.725 16.814 0 24.726 8.901 24.726 24.725v12.858c0 26.703 2.967 30.659 31.648 30.659 17.803 0 27.693-.989 27.693-21.758v-24.726c0-16.813 5.934-23.736 18.791-23.736 22.747 0 24.725.989 24.725 23.736 0 48.462 12.858 55.385 46.484 74.176 112.748 53.407 163.187 132.528 169.121 261.1 1.978 40.55-2.967 44.506-52.417 44.506H605.332c-19.78 0-23.737-1.978-23.737-23.737v-49.45c0-13.846 4.945-18.791 18.792-18.791zm-96.923 31.65v142.418c0 14.835-8.901 24.725-23.736 24.725h-53.407c-13.846 0-21.758-8.9-21.758-24.725V487.639c0-12.857 6.923-18.791 21.758-18.791h59.34c11.869 0 17.803 5.934 17.803 18.791zm0-117.693v27.693c0 60.33 5.934 51.428-52.418 51.428h-21.758c-12.857 0-17.802-4.945-17.802-18.79v-60.33c-.99-20.77 2.967-19.781 18.79-23.737 20.77-3.956 43.518-1.978 57.364 0 15.824 1.978 15.824 3.956 15.824 23.736z" style="fill:#000;fill-opacity:1;fill-rule:nonzero;stroke:none;"/>
</svg>
