<svg xmlns="http://www.w3.org/2000/svg" width="1000" height="1000">
  <path d="M5 500.496c0 89.011 22.747 172.089 67.253 249.232 44.506 74.176 103.846 133.517 178.023 178.022 77.143 44.506 160.22 67.253 250.22 67.253 89.011 0 172.089-22.747 249.232-67.253 74.176-44.505 133.517-103.846 178.022-178.022 44.506-77.143 67.253-160.22 67.253-250.22 0-89.012-22.747-172.09-67.253-249.232-44.505-74.177-103.846-133.517-178.022-178.023C672.585 27.747 589.508 5 500.496 5c-90 0-173.077 22.747-250.22 67.253-74.177 44.506-133.517 103.846-178.023 178.023C27.747 327.419 5 410.496 5 500.496zm235.385 40.55c2.967-13.846 4.945-30.66 10.88-43.517h2.967v12.857c0 22.748 0 47.473 4.945 71.21 13.846 55.384 38.571 99.89 82.088 137.472 35.604 29.67 77.143 52.418 123.627 60.33 90.989 14.835 171.1-9.89 234.396-82.088 13.846-13.846 24.725-32.637 35.605-49.45 1.978-1.979 1.978-5.935 5.934-7.913h4.945s2.967 1.978 2.967 5.934c-2.967 7.912-5.934 15.824-7.912 23.737-30.66 74.176-83.078 126.593-159.232 154.286-36.593 10.879-75.165 13.846-112.747 10.879-75.165-8.901-132.528-40.55-176.045-98.901-53.407-62.308-52.418-111.76-52.418-194.836zm140.44-22.748c0-1.978-3.956-7.912 0-9.89 7.913-58.352 54.396-107.802 111.76-112.747 52.417-5.934 93.955 13.846 124.615 54.395 7.912 11.869 15.824 13.847 26.703 13.847h71.21c10.878 0 16.813 2.967 21.758 13.846 3.956 10.879 8.9 24.725 11.868 38.571-5.934 0-7.912 1.978-11.868 1.978H622.145c-8.901 0-10.88-1.978-13.846-7.912-55.385-85.055-175.056-79.12-222.528 2.967zm112.748-249.231c22.747-98.902 131.539-132.528 216.594-73.187 90 66.264 63.297 152.308 33.627 185.934 5.934-21.758 0-53.406-95.935-102.857-92.967-43.517-154.286-8.901-154.286-9.89z" style="fill:#000;fill-opacity:1;fill-rule:nonzero;stroke:none;"/>
</svg>
