<svg xmlns="http://www.w3.org/2000/svg" width="1000" height="1000">
  <path d="M5 500.002v-.396.396c.099 89.505 22.55 172.682 67.253 249.726C116.462 824.2 175.803 883.54 250.276 927.75c77.143 44.803 160.418 67.253 249.726 67.253 89.308 0 172.583-22.45 249.726-67.253C824.2 883.541 883.54 824.2 927.75 749.728c44.803-77.143 67.253-160.418 67.253-249.726 0-89.308-22.45-172.583-67.253-249.726-44.209-74.473-103.55-133.814-178.022-178.023C672.585 27.45 589.31 5 500.002 5c-89.308 0-172.583 22.45-249.726 67.253-74.473 44.209-133.814 103.55-178.023 178.023C27.55 327.32 5.099 410.496 5 500.002zm133.517-188.408c10.88-45.494 48.462-60.33 100.88-45.494 2.966 2.967 10.879 2.967 17.802 0 55.384-33.627 111.758-63.297 167.143-95.935 3.956-4.945 10.88-10.879 14.835-19.78 5.934-48.462 49.451-78.132 103.847-55.385 14.835 10.88 27.692 25.715 29.67 44.506 0 19.78 10.88 25.714 26.704 34.615 48.461 28.682 100.88 58.352 152.308 88.023 10.879 6.923 18.791 6.923 33.626 3.956 21.759-10.88 45.495-7.912 63.297 6.923 36.594 26.703 33.627 82.088 3.956 104.835-10.879 6.923-14.835 15.825-14.835 28.682v190.88c0 10.879 3.956 17.802 14.835 25.714 25.715 22.747 29.67 59.34 14.835 85.055-14.835 29.67-55.384 44.506-82.088 29.67-10.879-6.923-22.747-2.966-33.626 0-51.429 34.616-107.803 64.287-159.231 96.924-10.88 3.956-15.825 10.88-19.78 22.747-6.924 37.583-29.671 59.341-66.265 59.341-32.637 0-58.352-21.758-67.253-59.34 0-11.869-6.923-18.792-18.791-26.704-51.429-28.681-107.803-58.352-159.231-89.011-10.88-6.923-18.792-6.923-30.66-3.956-25.714 10.879-47.472 7.912-70.22-10.88-28.681-32.637-28.681-57.362 7.912-107.802 3.956-7.912 10.88-14.835 10.88-21.758V406.54c0-6.923-3.957-12.857-6.924-21.759-26.703-18.79-37.582-47.472-33.626-73.187zm18.791 32.638c6.923 29.67 36.594 44.506 67.253 33.626 10.88-3.956 21.758-3.956 32.638 0 29.67 17.803 59.34 37.583 93.956 56.374 6.923 2.967 10.88 6.923 2.967 17.802-26.703 33.627-30.66 66.264-11.868 107.803 4.945 7.912 0 14.835-5.934 18.791-26.704 14.835-49.45 25.715-71.21 40.55-14.834 6.923-25.714 10.879-45.494 3.956-18.791-7.912-44.506 2.967-59.34 22.747-10.88 14.835-10.88 44.506 0 59.341 14.834 21.758 37.582 29.67 64.285 21.758 21.758-6.923 29.67-25.714 36.594-44.505 0-10.88 3.956-17.802 14.835-25.715 29.67-15.824 62.308-33.626 92.967-52.417 3.956-3.956 10.88-3.956 18.792-3.956 18.79 7.912 40.55 10.879 62.307 7.912 23.737-3.956 38.572 10.879 38.572 32.637v135.495c0 13.846-3.956 21.758-14.835 32.638-19.78 10.879-23.737 36.593-14.835 59.34 6.923 22.748 29.67 33.627 47.472 33.627 25.715 0 44.506-15.824 51.429-37.583 7.912-21.758 0-40.55-17.802-55.384-3.956-6.923-10.88-14.836-10.88-21.759V638.958c0-4.945 2.968-12.857 6.924-15.824 14.835-3.956 29.67-11.868 47.472-3.956 19.78 3.956 38.572 3.956 56.374-3.956 11.868-3.956 18.791-3.956 29.67 0 23.737 14.835 41.54 25.714 64.287 36.593 14.835 8.901 21.758 19.78 21.758 34.616 6.923 33.626 44.506 51.429 75.165 36.593 25.714-10.879 36.593-36.593 28.681-66.264-10.879-26.703-36.593-41.538-67.253-30.659-14.835 3.956-29.67 0-43.516-6.923-14.835-10.88-33.627-21.758-53.407-29.67-10.88-6.924-14.835-14.836-14.835-29.671 7.912-17.802 0-41.539-10.88-56.374-10.879-10.879-17.802-25.714-25.714-36.593-6.923-14.836-6.923-18.792 7.912-25.715 32.638-18.791 67.253-36.593 99.89-60.33 14.836-6.923 25.715-10.879 40.55-2.967 19.78 10.88 38.572 2.967 52.418-11.868 14.835-13.846 22.747-28.681 14.835-51.429-6.923-26.703-28.681-45.494-56.373-41.538-25.715 0-43.517 19.78-47.473 49.45 0 6.924-3.956 14.836-10.88 21.759-40.549 21.758-79.12 44.506-119.67 66.264-6.923 4.945-13.846 4.945-21.758-3.956-14.836-12.857-32.638-21.759-56.374-25.715-14.835 0-17.802-10.879-17.802-25.714V228.517c0-13.846 2.967-25.714 13.846-36.593 22.747-17.803 22.747-52.418 3.956-74.176-21.758-22.748-58.352-22.748-81.1 0-17.802 17.802-15.824 58.351 7.913 78.132 10.879 6.923 14.835 18.791 14.835 32.637V365.99c0 7.912-3.956 14.835-7.912 18.791-14.835 10.88-30.66 21.759-45.495 30.66-14.835 3.956-28.681 3.956-43.516-4.945-33.627-16.813-68.242-36.594-96.924-55.385-22.747-10.88-33.626-21.758-37.582-43.517-6.923-27.692-37.583-42.527-63.297-38.571-33.627 10.879-47.473 41.538-36.594 71.209zm32.638 331.32c0-7.912 7.912-14.836 14.835-14.836 10.879 0 14.835 6.924 14.835 14.836 0 6.923-2.967 15.824-14.835 15.824-7.912 0-14.835-4.945-14.835-15.824zm0-346.155c0-6.923 7.912-14.836 14.835-14.836 13.846-2.967 14.835 3.957 14.835 14.836 0 19.78-29.67 15.824-29.67 0zm179.011 208.682c-14.835-41.539 7.912-86.045 48.462-92.968 21.758-7.912 41.539-14.835 63.297-25.714 10.879-8.901 25.714-12.857 40.55-14.835 40.55 1.978 78.132 29.67 92.967 66.264 3.956 10.879 10.879 21.758 18.791 32.637 18.791 18.791 25.714 45.495 10.88 67.253-14.836 22.747-36.594 29.67-67.254 22.747-5.934-3.956-14.835-3.956-21.758 0-25.714 3.957-55.385 3.957-81.1-7.912-7.911-2.967-19.78-2.967-25.714-2.967-34.615 6.923-68.242-11.868-79.12-44.505zm122.638 311.54c3.956-6.924 10.88-14.836 14.835-14.836 7.912 0 10.88 7.912 18.792 10.88v7.911c-7.913 3.956-10.88 6.923-18.792 10.88-6.923 0-14.835-6.924-14.835-14.836zm0-695.278c0-10.879 6.923-14.835 14.835-14.835 10.88 0 14.835 3.956 14.835 14.835 0 6.923-6.923 15.824-14.835 15.824-6.923 0-14.835-8.9-14.835-15.824zm300.66 521.21c0-10.878 7.913-14.835 14.836-14.835 8.9 0 15.824 10.88 15.824 14.836 0 6.923-6.923 10.879-10.88 18.791h-8.9c-2.967-7.912-6.924-11.868-10.88-18.791zm2.967-350.11c0-5.934 7.913-10.88 11.869-10.88 7.912 0 14.835 3.957 15.824 12.858-.99 5.934-1.978 8.9-11.868 12.857-7.912 1.978-15.825-2.967-15.825-14.835z" style="fill:#000;fill-opacity:1;fill-rule:nonzero;stroke:none;"/>
</svg>
