<svg xmlns="http://www.w3.org/2000/svg" width="1000" height="1000">
  <path d="M468.825 630.724c-14.221 0-27.348-1.094-38.287 0-14.222 0-27.349 0-37.194-6.563-8.751-5.47-15.315-9.846-20.785-19.691-5.47-8.752-6.563-18.597-6.563-29.536V220.502c0-9.846 3.282-20.785 8.751-29.536 6.564-9.846 15.315-18.597 30.63-18.597h32.818v196.907h144.398c16.41 0 29.536 5.47 41.57 15.315 9.845 8.751 10.939 21.878 12.033 33.911v354.433c0 10.939-1.094 22.972-8.752 31.723-8.751 14.221-22.972 20.785-38.287 21.879-7.658 1.094-16.409 0-24.067 0V440.381H438.195v118.144h30.63zM5 781.686V422.878c0-10.94 2.188-21.879 7.658-32.818 5.47-9.845 14.22-12.033 21.878-15.315 6.564-4.375 14.221-5.47 20.785-5.47h211.128v71.106H78.293v316.145h387.25v71.105H58.603c-20.785 0-36.1-7.658-47.04-24.067-4.375-5.47-4.375-15.314-6.563-21.878zM534.46 242.38v-70.01h420.068c7.658 0 14.221 2.188 18.597 6.563 7.658 5.47 14.221 10.94 17.503 19.691 2.188 6.564 4.376 15.315 4.376 21.879V579.31c0 17.502-7.658 32.817-22.973 42.663-7.657 4.375-17.503 7.657-25.16 7.657-70.011 1.094-140.023 1.094-208.94 1.094-1.094 0-3.282-1.094-5.47-1.094v-71.105h188.156V242.38z" style="fill:#000;fill-opacity:1;fill-rule:nonzero;stroke:none;"/>
</svg>
