<svg xmlns="http://www.w3.org/2000/svg" viewBox="0 0 1000 1000"><path d="M500.496 5c272.968 0 494.507 221.54 494.507 495.002 0 270.495-218.572 495.001-495.001 495.001C229.506 995.003 5 776.431 5 500.002 5 229.506 223.572 5 500.496 5zM246.32 749.728c18.792 52.418 68.242 94.945 136.484 94.945h259.122c62.308 0 111.759-41.538 126.594-105.824 20.77-100.88 4.945-115.715-95.934-110.77-24.726 0-46.484 4.945-46.484 37.583 3.956 31.648-15.824 36.593-42.528 36.593H277.968c-37.583 0-42.528 16.813-31.649 47.473zm5.935-263.078c19.78 52.418 62.307 89.011 119.67 89.011h360.002c36.593 0 41.538-15.824 31.648-48.461-9.89-52.418-59.34-89.012-115.715-93.957H281.924c-41.539 0-46.484 21.758-29.67 53.407zm0-115.715c0 3.956 58.351 9.89 93.956 9.89 27.692.99 36.593-5.934 36.593-31.648-4.945-37.583 15.825-41.539 42.528-41.539h299.671c43.517 3.956 48.462-16.813 38.572-53.406-21.758-52.418-63.297-84.067-115.715-84.067-90-4.945-180-4.945-275.935 0-47.472 0-93.956 20.77-109.78 62.308-15.825 42.528-15.825 90-9.89 138.462z"/></svg>