<svg width="1000" height="1000" viewBox="0 0 1000 1000" fill="none" xmlns="http://www.w3.org/2000/svg">
<path d="M289 2L87 204H251C273 124 359 17 385 2H289Z" fill="black"/>
<path d="M483 204V2H437C351.4 63.6 302.667 162.333 289 204H483Z" fill="black"/>
<path d="M522 204H718C672.4 95.2 598.333 24 567 2H522V204Z" fill="black"/>
<path d="M756 204H915L711 2H621C685.8 61.2 731 144 756 204Z" fill="black"/>
<path d="M713 1000L915 798L751 798C729 878 643 985 617 1000L713 1000Z" fill="black"/>
<path d="M519 798L519 1000L565 1000C650.6 938.4 699.333 839.667 713 798L519 798Z" fill="black"/>
<path d="M480 798L284 798C329.6 906.8 403.667 978 435 1000L480 1000L480 798Z" fill="black"/>
<path d="M246 798L87 798L291 1000L381 1000C316.2 940.8 271 858 246 798Z" fill="black"/>
<path d="M368.819 584.501C368.819 609.201 365.352 631.517 358.419 651.451C351.485 670.951 341.952 687.634 329.819 701.501C317.685 714.934 303.169 725.334 286.269 732.701C269.369 739.634 250.952 743.101 231.019 743.101C210.652 743.101 192.019 739.634 175.119 732.701C158.219 725.334 143.702 714.934 131.569 701.501C119.435 688.067 109.902 671.601 102.969 652.101C96.4687 632.601 93.2188 610.717 93.2188 586.451C93.2188 561.317 96.4687 537.917 102.969 516.251C109.902 494.151 118.785 472.701 129.619 451.901L220.619 273.801H305.769L212.169 449.301L212.819 449.951C217.585 445.617 223.652 442.367 231.019 440.201C238.819 438.034 246.185 436.951 253.119 436.951C268.285 436.951 282.802 439.984 296.669 446.051C310.969 451.684 323.319 460.567 333.719 472.701C344.552 484.401 353.002 499.567 359.069 518.201C365.569 536.834 368.819 558.934 368.819 584.501ZM294.719 583.851C294.719 556.984 289.519 534.884 279.119 517.551C268.719 500.217 253.119 491.551 232.319 491.551C222.352 491.551 213.469 493.934 205.669 498.701C197.869 503.467 191.152 510.184 185.519 518.851C179.885 527.084 175.552 536.834 172.519 548.101C169.485 559.367 167.969 571.717 167.969 585.151C167.969 613.317 173.602 636.067 184.869 653.401C196.135 670.301 211.735 678.751 231.669 678.751C251.602 678.751 266.985 670.084 277.819 652.751C289.085 634.984 294.719 612.017 294.719 583.851Z" fill="black"/>
<path d="M808.219 734.001L809.519 380.401H807.569L715.269 734.001H654.169L563.819 380.401H561.869L563.169 734.001H492.319V273.801H596.969L685.369 610.501H687.969L774.419 273.801H884.269V734.001H808.219Z" fill="black"/>
</svg>
