<?xml version="1.0" encoding="UTF-8"?><svg id="a" xmlns="http://www.w3.org/2000/svg" viewBox="0 0 1000 1000"><path d="M295.668,608.971l.733-.316c-.115-.228-.253-.436-.367-.664l69.545-30.462,63.798-28.163c2.874,0,5.748,.575,8.046,1.724,8.621,3.449,13.794,11.495,14.369,20.116l-28.163,63.798-30.091,68.697c-41.354-21.032-75.561-54.152-97.871-94.731Zm-15.727-40.063l70.695-27.589,64.947-25.289c5.748-6.323,7.472-15.518,4.023-24.14-1.15-2.874-2.874-5.173-4.598-6.897l-64.948-25.289-70.695-27.589c-14.369,43.682-14.944,91.386,.575,136.792Zm178.353-296.301c25.61-5.043,51.367-5.279,76.21-1.327,11.493,1.866,22.698,4.586,33.559,8.093l-.169,.433c-.066-.023-.133-.042-.199-.065l-27.389,70.185-25.289,65.522c-1.724,1.724-4.023,3.448-6.897,4.598-8.046,3.448-17.243,1.724-23.565-3.448l-25.864-66.097-27.588-70.695-.609-1.562c21.215-6.469,43.707-9.978,67.01-9.978,8.094,0,16.089,.431,23.97,1.25-20.763-2.156-42.02-1.134-63.179,3.091Zm-1.411,.272c-3.547,.733-7.088,1.567-10.626,2.485,3.538-.911,7.079-1.761,10.626-2.485Zm-12.94,3.06c-4.13,1.12-8.254,2.339-12.362,3.715,4.108-1.376,8.231-2.602,12.362-3.715Zm-150.388,115.982l2.016,.904c-.035,.071-.078,.137-.113,.207l69.546,30.462,64.373,28.163c8.621-.575,16.093-6.322,19.541-14.369,1.15-2.874,1.724-5.173,1.724-8.047l-28.163-63.798-30.148-68.828c.089-.044,.171-.098,.261-.142l-1.022-2.281c-41.812,21.774-76.125,55.986-98.015,97.728Zm269.74,58.012c2.299,1.15,5.173,1.724,8.046,1.724l64.373-28.163,66.9-29.303c-21.15-41.442-54.438-75.697-95.214-97.947l-30.311,69.2-28.163,64.947c.575,8.621,5.748,16.093,14.369,19.542Zm-65.793,278.687c24.342,0,47.799-3.829,69.839-10.863l-26.462-67.809-25.289-64.947c-6.323-5.748-16.093-7.472-24.715-4.023-2.299,1.15-4.598,2.299-6.322,4.023l-25.289,64.947-27.004,69.197c20.698,6.13,42.582,9.475,65.242,9.475Zm325.668-68.59l-43.767-19.278-42.532-18.392-28.294-12.41c-22.311,42.062-56.804,76.697-98.774,99.16l12.116,27.626,18.392,42.532,19.572,44.434c70.567-35.375,128.079-93.007,163.285-163.673Zm165.445-262.974c-22.416-55.751-68.396-43.107-81.041-37.934l-3.448,1.149-28.163,10.921-25.201,9.985c12.281,36.897,19.03,76.297,19.03,117.266,0,42.322-7.198,82.973-20.268,120.914l26.438,10.475,39.084,14.944c45.406,18.967,64.372-13.219,71.27-30.462,17.243-70.12,18.392-144.264,2.299-217.258Zm-155.816-60.313l24.772-10.957,33.336-14.944-2.874,.575c12.07-5.748,54.027-28.738,30.462-83.915-40.233-63.223-94.26-114.376-156.334-151.735-43.681-22.416-70.695,28.738-70.695,28.738l-16.668,38.508-10.142,22.93c73.063,36.881,132.436,97.057,168.143,170.799Zm-105.119,161.7c0-22.686-3.352-44.595-9.495-65.315l-68.101,26.576-65.522,25.864c-5.748,6.322-7.472,15.518-4.023,24.139,1.15,2.299,2.299,4.598,4.023,6.323l65.522,25.289,67.009,26.15c6.868-21.802,10.588-44.986,10.588-69.027Zm-105.759-235.88h0s-11.093,25.736-11.093,25.736c42.704,23.121,77.553,58.907,99.607,102.255l27.587-11.891,41.957-18.392,44.929-20.029c-34.831-71.793-92.629-130.402-163.743-166.404l-20.852,47.342-18.392,41.383Zm78.509,344.39l-65.864-28.849-63.223-27.588c-2.299,0-5.173,.575-7.472,1.724-5.748,2.299-10.346,6.897-12.645,12.645-1.149,2.299-1.724,4.598-1.724,7.472l27.588,63.223,28.837,65.835c40.036-21.473,73.013-54.436,94.503-94.461Zm96.217-8.158l44.845,17.41c12.69-36.962,19.679-76.551,19.679-117.763,0-39.782-6.512-78.052-18.372-113.909l-45.577,17.695-43.107,16.668-27.92,10.884c6.545,21.759,10.107,44.799,10.107,68.662,0,25.229-3.963,49.543-11.247,72.389l28.486,11.296,43.107,16.668Zm-673.039,31.037l22.415-8.881c-13.421-38.393-20.808-79.594-20.808-122.508,0-41.561,6.948-81.506,19.571-118.86l-21.177-8.391-39.658-15.518c-45.98-18.392-64.373,15.518-70.695,32.187-16.668,68.971-17.817,141.964-2.299,213.809v.575c22.416,57.476,68.971,44.256,81.615,39.658l31.037-12.07Zm-11.495-317.265l2.874,1.15,27.014,12.07,21.051,9.311c36.293-74.009,96.43-134.256,170.343-170.715l-9.197-20.794-18.967-43.682c-21.266-42.532-59.774-28.163-73.569-21.266-60.924,37.934-111.503,87.938-149.437,145.988-.575,.575-.575,1.15-.575,2.299-24.14,56.326,18.392,79.891,30.462,85.638Zm53.122,353.477l-22.086,9.768-31.037,13.794s-54.602,29.312-29.313,85.638v.575c39.658,61.499,91.961,111.502,151.736,148.287,15.518,7.472,54.602,20.116,74.144-27.588l16.668-37.934,10.891-24.624c-73.79-35.611-134.03-94.916-171.004-167.917Zm722.799,22.413l-3.449-1.15-27.013-12.07-26.502-11.722c-36.12,72.691-95.286,131.945-167.904,168.191l11.634,26.304,16.668,37.934c21.841,52.878,66.672,32.187,78.167,25.289,59.004-36.994,109.219-86.424,147.137-144.839,.575-.575,.575-1.15,1.15-2.299,24.714-56.326-17.818-79.891-29.887-85.638Zm-258.64,187.945h0s-10.36-26.146-10.36-26.146c-38.116,13.205-78.978,20.476-121.529,20.476-40.87,0-80.179-6.716-116.999-18.94l-9.751,24.611-19.542,50.578s-9.771,39.658,47.705,61.499c1.149,.575,2.299,1.149,3.448,1.149,66.097,13.794,135.642,13.794,204.038-1.724,9.771-2.874,57.476-17.817,40.233-67.821l-17.243-43.682ZM370.177,124.046l8.575,21.641c37.323-12.599,77.231-19.534,118.751-19.534,42.751,0,83.799,7.335,122.067,20.658l9.248-23.34,12.07-31.037c4.598-12.645,17.817-59.774-39.658-81.615-.575,0-.575-.575-1.15-.575-68.396-13.794-140.24-13.794-210.935,2.874-16.093,5.173-54.027,23.565-33.911,72.419l14.944,38.509ZM152.808,382.761c-7.773,23.098-13.131,47.26-16.119,72.149,3.257-24.504,9.074-48.535,17.381-71.65l-1.261-.5Zm88.885-142.433c-.028,.028-.058,.055-.086,.083,.028-.028,.058-.055,.086-.083Zm-13.778,14.436c-.319,.353-.627,.714-.944,1.069,.317-.354,.625-.716,.944-1.069Zm44.595-41.446c-43.299,33.893-77.209,77.07-100.049,125.112l48.279,21.266,41.957,18.392,22.982,10.302c22.775-43.658,58.632-79.415,102.36-102.073l-10.391-23.18-18.392-41.957-21.266-48.28c-.23,.109-.449,.231-.678,.34l-.427-.964c-35.36,17.484-67.459,40.569-95.193,68.052,9.666-9.546,19.946-18.57,30.817-27.01Zm-100.624,125.687c14.208-30.129,32.717-58.154,55.085-83.172-22.244,24.775-41.189,52.57-56.026,82.756l.941,.416Zm69.721-98.594c-4.715,4.66-9.273,9.452-13.692,14.353,4.438-4.905,8.996-9.697,13.692-14.353Zm25.718,258.031c0,24.697,3.955,48.478,11.188,70.797l.852-.332c-15.518-45.98-14.944-93.686,0-136.792l-2.032-.792c-6.49,21.246-10.009,43.777-10.009,67.119ZM431.171,140.946c-4.969,1.005-9.932,2.156-14.891,3.37,5.043-1.234,10.09-2.398,15.143-3.415,21.445-3.955,43.507-6.127,66.079-6.127,41.705,0,81.752,7.148,119.091,20.129l-18.813,48.459-16.668,42.532-9.917,25.439c-23.226-7.555-47.98-11.69-73.693-11.69-24.406,0-47.961,3.697-70.155,10.532l-9.465-24.281-16.668-42.532-18.967-48.854-.316-.798c15.955-5.363,32.39-9.645,49.24-12.764Zm-16.995,3.846c-5.72,1.438-11.431,3.024-17.127,4.784,5.696-1.76,11.407-3.347,17.127-4.784ZM134.344,479.3c-.011,.172-.026,.343-.036,.515-.313,6.17-.473,12.38-.473,18.626,0,41.793,7.176,81.922,20.21,119.329l.024-.009c-.098-.272-.177-.545-.274-.817,.097,.272,.176,.545,.274,.817h0s48.854-18.967,48.854-18.967l42.532-16.668,25.019-9.753c-7.605-23.295-11.771-48.13-11.771-73.931,0-24.446,3.707-48.039,10.563-70.264l-23.812-9.283-42.532-16.093-48.854-18.967c-8.489,23.623-14.405,48.139-17.62,73.123,.078-.683,.158-1.366,.239-2.048-.527,3.964-1.003,7.937-1.394,11.923,.247-2.855,.68-5.654,.993-8.489-.397,3.188-.767,6.381-1.076,9.583-.316,3.784-.669,7.557-.868,11.373Zm363.159,382.81c41.629,0,81.604-7.123,118.885-20.06l-17.457-44.965-16.668-43.107-11.249-28.366c-23.173,7.517-47.866,11.628-73.511,11.628-23.59,0-46.371-3.492-67.91-9.894l-10.561,26.631-16.668,43.107-18.189,46.849c35.69,11.737,73.761,18.175,113.328,18.175Zm-118.704-124.225l11.479-26.172c-43.431-21.926-79.326-56.678-102.576-99.309l-24.429,10.53-41.957,18.392-48.187,21.225c36.138,71.136,94.902,128.925,166.86,163.647l20.419-46.356,18.392-41.957Z"/></svg>