<svg xmlns="http://www.w3.org/2000/svg" viewBox="0 0 1000 1000"><path d="M5 500.496C5 225.55 226.54 5 500.496 5c272.968 0 494.507 222.528 494.507 494.507 0 274.946-222.528 495.496-494.507 495.496C225.55 995.003 5 772.475 5 500.496zm123.627-49.45c-14.835 13.846-13.846 30.659 4.945 42.527 8.901 5.934 18.791 10.88 25.714 18.791 53.407 53.407 104.836 106.814 158.243 160.22 54.395 54.396 105.824 107.803 160.22 162.199 1.978 1.978 3.956 5.934 5.934 9.89.989 2.967 2.967 6.923 5.934 9.89 5.934 5.934 14.835 14.835 21.758 14.835 4.945 0 9.89-1.978 18.792-10.879l3.956-3.956c2.967-2.967 3.956-5.934 5.934-8.9 1.978-3.957 2.967-6.924 5.934-9.891 54.396-54.396 105.824-108.792 158.242-162.198l161.21-163.188 5.934-4.945c36.593-29.67 38.571-23.736 6.923-70.22L756.65 236.43c-1.977-3.956-2.966-7.912-3.955-11.868-.99-3.956-2.967-7.912-3.956-11.868-4.945-7.912-9.89-17.802-17.802-20.77-4.946-1.977-13.847.99-23.737 6.924-3.956 1.978-7.912 4.945-11.868 8.9-3.956 3.957-7.912 5.935-11.868 7.913-47.473 23.736-93.957 48.462-142.418 71.209-16.813 7.912-36.594 8.901-56.374 0-50.44-22.747-94.945-72.198-147.363-72.198-.99 0-12.857-9.89-21.759-16.813-6.923-4.945-17.802-7.912-24.725-5.934-6.923 2.967-10.879 12.857-13.846 20.769-13.846 35.604-19.78 38.572-88.022 150.33l-42.528 69.231c-4.945 7.912-17.802 18.791-17.802 18.791zm34.615-.99c28.682-45.494 58.352-89.01 85.056-134.506 9.89-16.813 21.758-32.637 31.648-51.428l.989-1.978c1.978 0 2.967.989 1.978 9.89-2.967 43.516-5.934 85.055-9.89 128.572-1.978 11.868-10.88 22.747-22.747 26.703-19.78 9.89-39.561 13.846-61.32 18.791-5.933 1.978-11.868 2.967-18.79 4.945h-1.979c-.989 0-2.967-.989-4.945-.989zm7.912 23.737 23.737-5.934c20.77-5.934 42.527-11.868 62.308-15.825 9.89-1.978 19.78 2.967 25.714 14.836 22.747 44.505 48.462 86.044 72.198 129.56l71.21 128.572c26.702 46.484 36.593 62.308 34.615 62.308-3.956-2.967-9.89-9.89-14.836-13.846-90-92.967-180-183.957-270-275.935-7.913-7.912-17.803-17.802-4.946-23.736zm123.627-73.187c.99-16.814 1.978-32.638 3.956-49.451 2.967-35.605 5.934-70.22 8.901-104.836 0-1.978.99-3.956 1.978-6.923 29.67 28.682 57.363 59.341 88.023 90 28.681 28.682 56.373 59.342 85.055 88.023 7.912 4.945-4.945 4.945-13.846 4.945H316.54c-20.77 0-24.726-4.945-21.759-21.758zm9.89 58.352c-6.923-12.858-6.923-13.847 7.912-13.847h167.144c14.835 0 20.77 5.934 20.77 18.792l-.99 339.232c-119.67-206.704-87.033-144.397-194.836-344.177zm50.44-207.693v-.99c2.967 1.979 4.945 1.979 6.923 1.979.99.989.99.989 2.967.989l54.396 27.692c18.791 9.89 36.594 17.802 55.385 28.681 15.824 8.902 25.714 21.759 25.714 39.561v51.429c-.989.989-.989 1.978-2.967 1.978-47.473-51.429-93.956-101.869-142.418-151.32zm167.143 150.33 2.968 2.967v-1.978c-.198-6.231-.99-12.462-.99-17.803-2.967-24.725-4.945-46.483 11.869-67.253 3.956-4.945 41.538-27.692 67.253-36.593 2.868-.989 62.406-30.758 64.286-30.758v.099L525.222 402.584c-.99 0-2.968-.99-2.968-.99zm1.979 403.518v-331.32c0-24.726 2.967-28.682 27.692-28.682h157.253c15.824 0 16.813.99 8.901 16.814-27.692 56.373-62.308 110.77-93.956 167.143-97.912 173.078-98.901 174.067-99.89 176.045zm15.824-385.716 172.088-180.99c3.956 4.945 4.945 5.934 4.945 6.923 2.967 34.616 5.934 69.231 7.912 102.858.99 19.78 2.967 37.582 3.956 56.374.99 12.857-3.956 17.802-17.802 17.802H551.925c-5.934 0-13.846 0-11.868-2.967zm25.714 361.98c4.945-8.902 8.901-17.803 12.857-26.704l2.967-5.934c35.605-62.308 73.187-125.605 107.803-188.902 16.813-30.66 33.626-60.33 50.44-90.99 10.879-16.813 17.802-19.78 36.593-14.835 10.88 2.968 21.758 5.935 31.649 8.902 13.846 3.956 26.703 6.923 38.571 10.879 14.835 2.967 15.824 6.923 6.923 17.802-29.67 28.681-61.319 60.33-90.989 90-27.692 29.67-56.374 58.352-85.055 87.034a5093.134 5093.134 0 0 0-101.87 104.835c-2.967 1.978-5.934 4.945-8.9 8.901-.99 0-.99 0-.99-.989zm176.045-517.255c40.55 61.319 79.12 121.648 116.703 186.923h-4.945l-16.813-3.956c-20.77-4.945-40.55-9.89-62.308-19.78-8.901-2.967-18.791-14.835-20.77-23.736-4.944-33.627-11.867-98.902-11.867-139.451z"/></svg>