<svg xmlns="http://www.w3.org/2000/svg" viewBox="0 0 1000 1000"><path d="M994.999 470.665v59.923C983.763 745.31 842.695 918.837 624.227 981.256h-4.993v-83.642C752.81 851.424 846.44 761.54 893.879 622.968H807.74c-4.993 0-4.993 3.746-4.993 7.49-26.216 62.42-71.158 111.107-128.584 148.559-38.7 24.968-83.642 38.7-126.088 44.942-158.545 23.72-304.607-72.407-355.79-225.958C141.1 450.69 211.01 289.648 349.582 214.745c36.203-18.726 71.158-33.706 112.355-38.7 127.335-14.98 250.926 43.694 319.587 153.552 2.497 2.497 2.497 9.987 4.994 11.235 0 0 2.496 2.497 4.993 2.497h91.133c-23.72-56.177-59.923-106.113-106.113-147.31s-99.872-72.406-157.297-92.38v-84.89s2.496 0 2.496 2.496C827.715 77.422 995 267.177 995 470.665zM5.026 518.104C8.771 263.432 141.101 84.913 399.517 16.25h4.994v84.89C213.507 153.575 92.413 312.12 92.413 505.62c0 183.513 122.343 340.81 312.098 394.49v83.643c-7.49 0-14.981-2.497-21.223-2.497C176.055 928.824 2.53 710.356 5.026 518.104zm319.588 59.922h154.8c2.497 0 4.994 0 8.739 1.249l88.635 131.08c0 2.497 3.746 2.497 6.242 2.497h116.1c-38.7-51.184-74.903-99.87-109.858-147.31h1.249c36.203-14.98 58.674-41.196 72.406-78.648 11.236-24.968 11.236-53.68 8.739-81.145-3.745-44.942-28.713-76.152-67.413-98.623-27.465-12.484-56.178-18.726-89.884-18.726H324.614v78.649h178.52c6.241 0 11.235 0 17.477 1.248 23.72 2.497 43.693 18.726 49.935 41.197 3.746 13.732 4.994 31.21 2.497 43.693-6.242 19.975-19.974 33.707-41.197 38.7h-22.47c-59.923 2.497-119.846 2.497-178.52 2.497h-6.242zm144.813 414.465v-82.393c27.464 2.497 53.68 2.497 79.897 0v82.393c-7.49 0-14.98 1.249-24.968 1.249h-36.203c-6.242 0-12.484 0-18.726-1.249zm0-901.336V6.265c27.464 0 53.68 0 79.897 2.496v84.89c-26.216-4.993-52.433-4.993-79.897-2.496z"/></svg>