<svg xmlns="http://www.w3.org/2000/svg" viewBox="0 0 1000 1000"><path d="M420.503 816.596c24.38 47.698 133.555 45.579 149.454 12.72 22.26-43.458 56.178-60.418 102.816-63.598 81.617 0 230.01-43.458 288.309-83.736 33.918-28.619 33.918-59.358 0-83.737-30.74-18.02-60.418-36.038-95.397-48.758-24.379-11.66-52.997-16.96-89.036-28.619C847.666 409.573 918.683 305.697 995 190.162h-97.516c-39.218-5.3-64.657 12.72-92.216 47.698-84.797 135.674-179.133 273.469-270.29 410.203-10.599 18.02-21.198 30.739-32.858 46.638-87.976-113.415-181.253-268.169-309.508-456.841-43.458-66.778-81.616-52.998-178.072-43.459 72.077 111.296 135.674 215.172 208.81 323.287-40.278 6.36-154.754 46.639-180.193 66.778-50.878 33.918-50.878 68.897 0 101.756 57.238 44.518 206.692 73.137 310.568 82.676 27.559 7.42 49.818 16.96 66.777 47.698zM142.794 618.384c-7.42-27.559 31.8-56.177 102.816-68.897 29.68 48.758 57.238 94.336 96.456 150.514-80.556-18.02-187.612-18.02-199.272-81.617zm93.277-471.68c39.218 81.616 240.61 391.124 273.469 418.682 86.916-135.674 171.713-277.708 263.93-418.683zM666.413 696.82c27.56-41.338 58.298-98.576 89.037-140.974 46.638 20.14 80.557 20.14 85.856 54.058 0 33.918-28.618 47.698-60.417 56.177-32.859 11.66-114.476 30.74-114.476 30.74z"/></svg>