<?xml version="1.0" encoding="UTF-8"?><svg id="a" xmlns="http://www.w3.org/2000/svg" viewBox="0 0 1000 1000"><path d="m500.001,395.033l-143.742-143.742c88.604-51.18,198.885-51.18,287.489,0l-143.747,143.742Zm495.299,104.967c0,273.4-221.6,495-495,495S5.3,773.4,5.3,500,226.9,5,500.3,5s495,221.6,495,495Zm-859.178,225.53l103.816-103.811c-35.897-76.936-36.014-166.566-.081-243.49l-103.758-103.758c-85.317,137.616-85.259,313.432.023,451.059Zm714.519,20.143l-101.928-101.928-143.742-143.748,143.742-143.742,101.928-101.928c-14.058-20.05-30.016-39.156-47.916-57.05-17.899-17.899-37.005-33.863-57.049-47.921-146.871-103.006-344.474-103.006-491.345,0-20.044,14.063-39.156,30.022-57.049,47.921-17.899,17.894-33.857,37.006-47.916,57.05l101.928,101.928,16.145,16.145,127.597,127.596-143.742,143.748-101.934,101.928c14.058,20.044,30.022,39.15,47.921,57.049,17.893,17.894,37.005,33.857,57.049,47.916,146.871,103.012,344.474,103.012,491.345,0,20.044-14.059,39.15-30.023,57.049-47.916,17.9-17.899,33.858-37.005,47.916-57.049Zm13.288-20.179c85.283-137.598,85.224-313.385-.035-450.988l-103.817,103.816c35.874,76.912,35.997,166.508.093,243.408l103.758,103.764Zm-507.67,23.216c88.604,51.18,198.885,51.18,287.489,0l-143.747-143.742-143.742,143.742Z"/></svg>