<svg xmlns="http://www.w3.org/2000/svg" viewBox="0 0 1000 1000"><path d="M500.496 5C223.572 5 5 229.506 5 500.002c0 276.43 224.506 495.001 495.002 495.001 276.43 0 495.001-224.506 495.001-495.001C995.003 226.539 773.464 5 500.496 5zM214.671 584.562c-35.604-60.33-26.703-128.571 21.758-171.1 55.385-55.384 114.726-111.758 170.11-171.099 40.55-43.516 108.792-49.45 152.309-27.692 23.736 13.846 38.572 20.77 24.725 34.616L338.298 494.562c-27.693 30.66-58.352 62.308-90 92.967-14.836 18.792-18.792 15.825-33.627-2.967zm74.176 77.143c-8.901-8.9-8.901-11.868 0-21.758 37.583-36.593 74.176-74.176 111.759-108.791C465.88 466.87 531.156 401.595 596.43 336.32c27.692-28.682 65.274-28.682 90-3.956 33.626 31.648 68.242 65.275 98.901 99.89 43.517 46.484 43.517 120.66 0 168.133-46.483 49.45-95.934 98.901-145.385 148.352-12.857 12.857-27.692 27.692-43.516 40.55-39.561 39.56-107.803 49.45-161.21 12.857-15.824-9.89-18.791-12.858-3.956-25.715 31.649-33.626 65.275-68.242 99.89-101.868l111.76-111.759c21.758-21.758 24.725-49.45 11.867-75.165-5.934-14.835-11.868-17.802-24.725-5.934-39.56 40.55-80.11 81.099-123.627 121.649-31.648 30.66-59.34 58.351-92.967 92.967-21.758 21.758-72.198 21.758-90 0-9.89-12.857-21.759-21.758-34.616-34.616z"/></svg>