<svg xmlns="http://www.w3.org/2000/svg" viewBox="0 0 1000 1000"><path d="M363.505,416.161l0,.007,0,0Zm0,0,0,0,0,0,0,0-.007,0Zm432.714-6.545,0,0v.009ZM1000,500c0,276.142-223.858,500-500,500S0,776.142,0,500,223.858,0,500,0,1000,223.858,1000,500ZM872.467,316.475l-1.514-24.989-7.41,20.855-41.5,36.4-48.165,6.226-13-11.885h0l-.006,0,0,0,.009.006,40.959-58.27.036-.018h0l52.551-14.559-55.943,2.754-68.262,47.939-62.36-5.229-.022-.016,0,.012,0,0,0,0h0v0l-89.131-45.912.338.407,0,0-.335-.4.142.3-51.064,10.082v0h0L363.511,416.153H363.5l0,0,0,0v0h0v0l0,.01-77.4,25.94-32,34.054,0,0-57.883.768,0,0v0h0l0,0v0l-28.539,53.239,0,0-.116.891-.02,0,.117-.9-40.121,11.594,37.8,6.175.8-6.115.025-.04-.8,6.155,35.493-47.088,0,0,53.384,10.724.186,50.075-.017,0L211.594,703.09l-.013.006-16.814,27.123L203.5,721.6l-8.731,8.616,43.261-8.891-5.591-28.275,36.137-74.617,69.65-28.058,27.006-44.754,45.54-33.191h0l1.372-.235-1.362.233,91.82,15.424h0L590,487.26l-13.3,61.687h0l-41.244,2.385-10.8,53.253,34.727-23.149h0l57.359-24.988,45.777-70.014-1.91.012h0l1.9-.013.179-3.122,26-1.9,70.048,40.2h0l.008,0,0,.015,41.936-19.266-4.452-92.751v0l-10.824-34,51.353-15.093h0l.019-.023-.013.023Z"/></svg>