<?xml version="1.0" encoding="utf-8"?>
<!-- Generator: Adobe Illustrator 26.0.1, SVG Export Plug-In . SVG Version: 6.00 Build 0)  -->
<svg version="1.1" xmlns="http://www.w3.org/2000/svg" xmlns:xlink="http://www.w3.org/1999/xlink" x="0px" y="0px"
	 viewBox="0 0 1000 1000" style="enable-background:new 0 0 1000 1000;" xml:space="preserve">
<g id="Layer_1">
</g>
<g id="Layer_3">
</g>
<g id="Layer_2">
	<g>
		<path d="M672.5,324.1c13.6,0,26.3,5.3,35.9,14.9l54.5,54.5c7.4,7.4,17.5,11.6,27.9,11.6c9.1,0,17.8-3.2,24.5-9.1
			c8.3-7.2,13.1-17.7,13.1-28.7c0-10.1-3.9-19.7-11.1-26.8l-53.7-53.7c-24.3-24.3-56.7-37.7-91.1-37.7c-34.4,0-66.7,13.4-91.1,37.7
			L218.6,649.4c-16.3,16.3-37.9,25.2-60.8,25.2h0c-21.3,0-41.5-8-56.7-22.5c-16.7-15.9-25.8-37.3-25.8-60.3
			c0-22.2,8.7-43.1,24.4-58.8l16.3-16.3l30.9,30.9V429.7H28.8l33.5,33.5l-14.6,14.6C-15.1,540.5-16,642,45.7,704
			c30.1,30.3,70.2,47,112.9,47c42.5,0,82.5-16.5,112.5-46.6l365.5-365.5C646.1,329.3,658.9,324.1,672.5,324.1z"/>
		<path d="M952.4,477.8l-27-27l33.5-33.5H840.8v118.1l30.9-30.9l28.6,28.6c15.7,15.7,24.4,36.6,24.4,58.8c0,23-9.2,44.4-25.8,60.3
			c-15.2,14.5-35.3,22.5-56.7,22.5c-23,0-44.6-9-60.8-25.2L587.5,455.6l-53.7,53.7L729,704.4c30,30,70,46.6,112.5,46.6
			c42.7,0,82.8-16.7,112.9-47C1016,642,1015.1,540.5,952.4,477.8z"/>
		<path d="M173.2,407.4c6.7,5.9,15.4,9.1,24.5,9.1c10.4,0,20.5-4.2,27.9-11.6l66-66c9.6-9.6,22.4-14.9,35.9-14.9
			c13.6,0,26.3,5.3,35.9,14.9l48.8,48.8l53.7-53.7l-47.3-47.3c-24.3-24.3-56.7-37.7-91.1-37.7c-34.4,0-66.8,13.4-91.1,37.7
			l-65.2,65.2c-7.2,7.2-11.1,16.7-11.1,26.8C160.1,389.7,164.9,400.2,173.2,407.4z"/>
	</g>
</g>
</svg>
