<svg xmlns="http://www.w3.org/2000/svg" viewBox="0 0 1000 1000"><path d="M104.351 285.52V104.35c47.922 36.234 85.325 65.455 127.403 97.014 149.61 111.039 299.22 223.247 450 337.792 67.792 50.26 137.922 99.35 202.208 149.61 8.182 7.014 11.688 16.364 11.688 23.377V895.65l-65.454-45.585c-210.39-161.298-423.117-317.922-632.338-481.558-26.883-17.533-50.26-32.728-77.143-51.429-11.689-7.013-16.364-16.364-16.364-31.558zm0 395.065v-180c23.377 16.363 43.247 31.558 58.442 43.246 107.532 79.481 215.065 161.3 322.597 240.78 10.52 8.182 14.026 15.195 14.026 30.39v180c-5.844-3.507-10.52-7.014-18.701-10.52-118.052-92.338-236.104-180-360-272.338-11.689-7.013-16.364-16.363-16.364-31.558zm395.065-494.416V4.999c35.065 26.884 66.624 50.26 97.013 70.13 95.844 73.637 192.858 146.105 287.533 218.572 8.182 2.338 11.688 11.689 11.688 18.702v188.182L830.196 455c-102.858-80.65-210.39-161.299-314.416-238.44-11.688-7.013-16.364-15.195-16.364-30.39z"/></svg>