<svg xmlns="http://www.w3.org/2000/svg" viewBox="0 0 1000 1000"><path d="M5 500.496c0 271.98 220.55 494.507 495.496 494.507 271.98 0 494.507-220.55 494.507-495.496C995.003 227.528 773.464 5 500.496 5 226.54 5 5 225.55 5 500.496zm117.693 39.56v-1.977c38.571-37.583 76.154-76.154 114.725-113.737.99-.989.99-.989 1.978 0 20.77 18.791 39.561 39.56 58.352 58.352 1.978 1.978 1.978 1.978 0 2.967-37.582 36.593-76.154 76.154-112.747 112.748 0 1.978 0 1.978-1.978 1.978-20.77-19.78-41.539-40.55-60.33-60.33zm154.286-156.264c77.143-76.154 152.308-151.319 228.462-227.473 19.78 19.78 41.539 39.56 60.33 61.319-54.396 54.396-108.791 109.78-164.176 166.154a5338.05 5338.05 0 0 0 105.824 105.825c33.627-34.616 68.242-70.22 102.858-105.825-16.813-15.824-33.627-33.626-50.44-51.428 20.77-19.78 41.539-40.55 62.308-61.32 36.593 38.572 74.176 75.166 113.737 112.748-77.144 76.155-155.276 152.309-230.44 228.463-76.155-76.154-151.32-152.308-228.463-228.463zm2.967 203.737c20.77-19.78 41.539-41.538 61.319-60.33 55.385 53.407 110.77 108.792 167.143 165.166 55.385-56.374 110.77-111.759 167.144-165.165 19.78 18.79 39.56 40.55 60.33 58.351-76.155 76.154-152.309 152.309-227.474 229.452-76.154-76.154-152.308-152.309-228.462-227.474zm435.166-99.89c-1.978 0-1.978 0 0-2.967 20.77-19.78 38.572-38.572 58.352-56.374 1.978-3.956 1.978-3.956 4.945 0l111.759 111.759c0 1.978 1.978 1.978 1.978 1.978l-1.978 1.978c-18.791 18.791-38.572 37.582-56.374 56.374-.989 1.978-.989 1.978-2.967 2.967 0-.99-.99-.99-.99-.99-38.57-37.582-76.153-75.164-114.725-114.725z"/></svg>