<svg xmlns="http://www.w3.org/2000/svg" viewBox="0 0 1000 1000"><path d="M190.787 31.354h762.636c38.976 0 41.575 0 41.575 37.677 0 289.723-2.599 578.148 0 865.273 0 25.984-10.394 38.976-38.977 36.378H407.755c-28.582 0-37.677-7.795-35.079-36.378v-76.653c0-40.276 0-40.276 37.678-40.276h394.96c36.377 0 38.975 0 38.975-38.976 0-184.488-2.598-371.574 0-556.062 0-28.582-9.094-35.078-38.976-35.078H199.882c-29.882 0-36.378 7.795-36.378 37.677 2.598 115.63 0 232.558 2.598 350.786 0 31.181-9.094 37.677-37.677 35.079-31.18-1.3-66.26 0-97.44 0C14.094 610.8 5 606.903 5 587.415V53.44c0-18.189 9.095-24.685 25.984-24.685 53.268 2.599 106.536 2.599 159.803 2.599zM5 894.029c0-76.654 0-76.654 76.654-76.654 81.85 0 81.85 0 81.85 81.85 0 83.15 11.693 71.457-70.157 71.457H81.654C5 970.682 5 970.682 5 894.029zm367.676-306.614v-165c0-20.787 9.095-25.984 27.284-25.984h209.173c16.89 0 24.685 5.197 24.685 25.985v165c0 22.086-7.796 23.385-24.685 23.385H399.96c-18.189 0-27.284-1.3-27.284-23.386z"/></svg>