<svg width="1000" height="1000" viewBox="0 0 1000 1000" fill="none" xmlns="http://www.w3.org/2000/svg">
<path d="M289 2L87 204H251C273 124 359 17 385 2H289Z" fill="black"/>
<path d="M483 204V2H437C351.4 63.6 302.667 162.333 289 204H483Z" fill="black"/>
<path d="M522 204H718C672.4 95.2 598.333 24 567 2H522V204Z" fill="black"/>
<path d="M756 204H915L711 2H621C685.8 61.2 731 144 756 204Z" fill="black"/>
<path d="M713 1000L915 798L751 798C729 878 643 985 617 1000L713 1000Z" fill="black"/>
<path d="M519 798L519 1000L565 1000C650.6 938.4 699.333 839.667 713 798L519 798Z" fill="black"/>
<path d="M480 798L284 798C329.6 906.8 403.667 978 435 1000L480 1000L480 798Z" fill="black"/>
<path d="M246 798L87 798L291 1000L381 1000C316.2 940.8 271 858 246 798Z" fill="black"/>
<path d="M446.895 584.501C446.895 609.201 443.428 631.517 436.495 651.451C429.562 670.951 420.028 687.634 407.895 701.501C395.762 714.934 381.245 725.334 364.345 732.701C347.445 739.634 329.028 743.101 309.095 743.101C288.728 743.101 270.095 739.634 253.195 732.701C236.295 725.334 221.778 714.934 209.645 701.501C197.512 688.067 187.978 671.601 181.045 652.101C174.545 632.601 171.295 610.717 171.295 586.451C171.295 561.317 174.545 537.917 181.045 516.251C187.978 494.151 196.862 472.701 207.695 451.901L298.695 273.801H383.845L290.245 449.301L290.895 449.951C295.662 445.617 301.728 442.367 309.095 440.201C316.895 438.034 324.262 436.951 331.195 436.951C346.362 436.951 360.878 439.984 374.745 446.051C389.045 451.684 401.395 460.567 411.795 472.701C422.628 484.401 431.078 499.567 437.145 518.201C443.645 536.834 446.895 558.934 446.895 584.501ZM372.795 583.851C372.795 556.984 367.595 534.884 357.195 517.551C346.795 500.217 331.195 491.551 310.395 491.551C300.428 491.551 291.545 493.934 283.745 498.701C275.945 503.467 269.228 510.184 263.595 518.851C257.962 527.084 253.628 536.834 250.595 548.101C247.562 559.367 246.045 571.717 246.045 585.151C246.045 613.317 251.678 636.067 262.945 653.401C274.212 670.301 289.812 678.751 309.745 678.751C329.678 678.751 345.062 670.084 355.895 652.751C367.162 634.984 372.795 612.017 372.795 583.851Z" fill="black"/>
<path d="M769.945 734.001L747.195 636.501H626.295L602.895 734.001H524.895L639.295 273.801H738.745L851.195 734.001H769.945ZM688.695 347.251H686.095L636.045 575.401H737.445L688.695 347.251Z" fill="black"/>
</svg>
