<svg xmlns="http://www.w3.org/2000/svg" viewBox="0 0 1000 1000"><path d="M749.728 72.253C824.2 116.462 883.54 175.803 927.75 250.276c44.803 77.143 67.253 160.418 67.253 249.726 0 89.308-22.45 172.583-67.253 249.726C883.541 824.2 824.2 883.54 749.728 927.75c-77.143 44.803-160.418 67.253-249.726 67.253-89.308 0-172.583-22.45-249.726-67.253-74.473-44.209-133.814-103.55-178.023-178.022C27.451 672.585 5 589.31 5 500.002c0-89.308 22.45-172.583 67.253-249.726 44.209-74.473 103.55-133.814 178.023-178.023C327.419 27.45 410.793 5 500.496 5c89.011 0 172.089 22.45 249.232 67.253zm-516.266 551.87c4.945 50.44 21.759 94.945 58.352 130.55 52.418 58.352 121.649 80.11 197.803 72.198 114.726-10.88 190.88-90.99 199.78-224.506V208.737c-1.977-17.802-13.845-30.66-33.626-35.605-25.714-2.967-47.472 12.858-47.472 39.561v226.484h-3.956c-1.978-1.978-6.923-5.934-8.901-7.912-49.451-49.45-105.825-70.22-173.078-62.308-67.253 3.956-119.67 37.583-154.286 95.935-31.649 49.45-40.55 100.88-34.616 159.23zm79.121-3.956c-8.9-80.11 23.737-136.484 81.1-165.166 88.022-44.505 195.824 7.913 214.616 110.77 7.912 53.407-2.967 100.88-39.56 141.43-36.594 40.549-84.067 56.373-139.452 45.494-74.176-13.846-109.78-70.22-116.704-132.528z"/></svg>