<svg xmlns="http://www.w3.org/2000/svg" width="1000" height="1000">
  <path d="M387.264 659.388h150.314c207.331 0 314.884-57.016 314.884-165.865v-300.63C852.462 62.016 744.909 5 537.578 5h-390.04v281.192h149.018l-9.07-169.752H555.72c94.594 0 149.019 19.437 149.019 76.453v278.601c0 58.312-54.425 97.186-149.02 97.186H387.265zM147.537 995.004h390.041c207.331 0 314.884-57.016 314.884-165.864v-94.595H704.739v77.749c0 51.833-54.425 88.115-149.02 88.115H296.557V471.494H595.89V363.941H147.537z" style="fill:#000;fill-opacity:1;fill-rule:nonzero;stroke:none;"/>
</svg>
