<svg xmlns="http://www.w3.org/2000/svg" width="1000" height="1000">
  <path d="m637.594 370.44-6.918 237.503-110.68 66.87c-12.683 3.458-19.6 6.917-33.435 0-41.506-20.753-80.705-50.73-126.822-73.788-3.46 0-8.07-5.764-16.141-5.764v25.364c0 48.423-3.46 97.999 0 147.575 0 19.6-9.224 28.823-20.753 36.893-46.117 28.823-91.081 53.035-139.504 78.4-3.459 3.458-16.141 3.458-25.364 0-40.353-25.365-86.47-49.577-131.434-74.941C10.402 799.329 5.79 787.799 5.79 768.2V234.395c-3.458-21.906 4.612-33.435 20.753-40.353 44.964-25.364 86.47-49.576 127.975-74.94 12.682-8.07 25.364-8.07 38.046 0C340.14 204.42 493.478 285.123 637.594 370.44zm20.753 397.76V595.26c-2.306 0 5.764-224.82 5.764-234.043V226.324c0-13.835 3.459-25.364 16.141-28.823 44.964-28.823 86.47-53.035 131.434-78.399 12.682-8.07 24.211-8.07 35.74 0 46.118 25.364 89.929 49.576 132.587 78.4 8.07 3.458 14.988 14.987 14.988 25.363V776.27c0 6.918-3.459 20.753-11.53 28.823-49.575 28.823-93.386 53.035-142.962 81.858-4.612 0-16.141 0-21.906-3.459l-134.892-74.94c-16.141-9.223-24.211-17.294-25.364-40.352z" style="fill:#000;fill-opacity:1;fill-rule:nonzero;stroke:none;"/>
</svg>
