<?xml version="1.0" encoding="utf-8"?>
<!-- Generator: Adobe Illustrator 26.0.1, SVG Export Plug-In . SVG Version: 6.00 Build 0)  -->
<svg version="1.1" id="Layer_1" xmlns="http://www.w3.org/2000/svg" xmlns:xlink="http://www.w3.org/1999/xlink" x="0px" y="0px"
	 viewBox="0 0 1000 1000" style="enable-background:new 0 0 1000 1000;" xml:space="preserve">
<path d="M500.3,5C226.9,5,5.3,226.6,5.3,500s221.6,495,495,495s495-221.6,495-495S773.7,5,500.3,5z M348.4,142.6h68.8
	c-18.6,10.8-80.2,87.4-96,144.7H203.8L348.4,142.6z M436.5,534.9c-1-10.3-1.8-20.5-2.3-30.8c-0.5-10.3-0.7-20.5-0.7-30.8V370.4h43.1
	v257.3h-49l-69-195.3c1.2,10.3,2.3,20.5,3.3,30.8c1.1,10.3,1.8,20.5,2.3,30.8c0.5,10.3,0.7,20.5,0.7,30.8v102.9h-43.1V370.4h49
	l69,195.3C438.6,555.5,437.5,545.2,436.5,534.9z M349.9,857.4L203.8,712.7h113.9c17.9,43,50.3,102.3,96.7,144.7H349.9z M485.3,857.4
	h-32.2c-22.5-15.8-75.5-66.8-108.2-144.7h140.4V857.4z M487.4,287.3H348.5c9.8-29.9,44.7-100.6,106-144.7h32.9V287.3z M650.7,142.6
	l146.1,144.7H682.9c-17.9-43-50.3-102.3-96.7-144.7H650.7z M563.5,463.2c1.1,10.3,1.8,20.5,2.3,30.8c0.5,10.3,0.7,20.5,0.7,30.8
	v102.9h-43.1V370.4h49l69,195.3c-1.2-10.3-2.3-20.5-3.3-30.8c-1-10.3-1.8-20.5-2.3-30.8c-0.5-10.3-0.7-20.5-0.7-30.8V370.4h43.1
	v257.3h-49l-69-195.3C561.4,442.6,562.5,452.9,563.5,463.2z M515.4,142.6h32.2c22.4,15.8,75.5,66.8,108.2,144.7H515.4V142.6z
	 M546.1,857.4h-32.9V712.7h138.9C642.3,742.6,607.4,813.3,546.1,857.4z M652.2,857.4h-68.8c18.6-10.8,80.2-87.4,96-144.7h117.5
	L652.2,857.4z"/>
</svg>
