<svg xmlns="http://www.w3.org/2000/svg" viewBox="0 0 1000 1000"><path d="M5 500.496c0 271.98 220.55 494.507 495.496 494.507 271.98 0 494.507-220.55 494.507-495.496C995.003 227.528 773.464 5 500.496 5 226.54 5 5 225.55 5 500.496zm235.385 194.836c-1.978-1.978-2.967-3.956 0-10.88l148.353-254.176c17.802-31.648 36.593-62.308 54.395-90.99 5.934-12.856 59.341-104.835 59.341-104.835 15.824 29.67 54.396 149.341 76.154 198.792 10.88 36.594 15.825 42.528 6.923 48.462-12.857 4.945-23.736-12.857-74.176-71.21-5.934-8.9-10.879-4.944-15.824 0-21.758 26.704-184.946 218.573-195.825 232.42-12.857 13.845-26.703 29.67-39.56 45.494-5.934 6.923-7.912 13.846-19.78 6.923zm22.748 8.901c28.681-43.517 104.835-130.55 159.231-193.847 29.67-32.637 7.912 36.594-8.901 87.034-1.978 10.879-1.978 13.846 11.868 17.802 15.824 4.945 363.957 74.176 371.87 76.154 7.912 1.978 5.934 12.857 0 12.857zM516.32 241.374c-4.945-17.802 9.89-22.747 17.803-8.9 30.66 53.406 62.308 108.79 93.956 162.198 17.802 29.67 161.21 278.902 163.187 282.858.99 2.967-220.55-39.56-245.275-47.473-13.846-2.967-11.868-12.857 0-16.813 25.714-6.923 50.44-11.868 82.088-22.748 8.901-1.978 9.89-6.923 8.901-15.824-7.912-27.692-35.604-102.857-49.45-137.473-8.902-26.703-20.77-53.407-29.671-80.11-11.868-37.582-27.692-78.132-41.539-115.715z"/></svg>