<svg xmlns="http://www.w3.org/2000/svg" viewBox="0 0 1000 1000"><path d="M5 500.496c0 271.98 220.55 494.507 495.496 494.507 271.98 0 494.507-220.55 494.507-495.496C995.003 227.528 773.464 5 500.496 5 226.54 5 5 225.55 5 500.496zm182.968 224.506V308.627c0-60.33 0-60.33 56.373-90.989 56.374-29.67 114.726-64.286 170.11-93.956h4.946c2.967 0 5.934 3.956 9.89 6.923 133.517 76.154 270.001 150.33 401.54 232.418 16.813 9.89 20.77 14.835 20.77 30.66v218.572c0 14.835-7.913 22.747-20.77 29.67-34.616 17.802-64.286 38.572-97.912 57.363-102.858 60.33-206.704 120.66-310.551 181.979h-10.88c-69.23-38.572-134.505-76.154-197.802-113.737-18.791-10.88-25.714-21.758-25.714-42.528zm25.714 0c0 3.956 0 16.814 3.956 16.814 22.747 14.835 48.462 28.681 75.165 45.494V347.2c0-6.923 0-14.835-1.978-19.78-24.725-15.825-50.44-29.67-77.143-49.451v11.868zm104.836-65.275c26.703-13.846 45.494-24.725 65.274-36.593 15.825-6.923 20.77-14.835 20.77-32.638V277.968c-23.737 11.868-42.528 19.78-66.264 33.626-14.835 11.869-19.78 23.737-19.78 38.572v284.836zm13.846 23.737c26.703 15.824 44.505 27.692 63.297 38.571 15.824 6.923 26.703 6.923 42.527 0 40.55-25.714 88.023-52.417 132.528-80.11 41.539-25.714 86.044-48.462 136.484-79.121-24.725-11.868-41.538-23.736-60.33-32.637-16.813-12.858-30.66-12.858-51.428 0-63.297 36.593-126.594 73.187-190.88 111.758-23.737 11.868-45.495 27.693-72.198 41.539zm1.978-485.606S714.123 415.44 713.134 415.44c9.89 3.956 15.824 7.912 24.726 7.912 22.747-16.813 43.516-27.692 74.176-45.495C793.244 365 544.013 219.615 432.254 157.307c-6.923-3.956-12.857-6.923-20.77-3.956-24.724 11.868-50.439 30.66-77.142 44.506zm90.99 402.529c62.307-33.627 113.736-64.286 173.077-97.913-59.341-33.626-110.77-68.242-173.078-98.901zm3.955 242.308c8.901 0 8.901 0 12.857-3.956 123.627-68.242 244.287-139.451 369.892-211.649 4.945-3.956 11.868-6.923 11.868-10.88v-91.978c-11.868 8.902-18.791 8.902-22.747 14.836-322.42 187.912-371.87 213.627-371.87 217.583zm0-564.727c-4.945 77.143-14.835 93.956 18.791 109.78 26.704 15.825 58.352 31.649 84.067 49.451 57.362 31.649 108.791 65.275 167.143 95.935 13.846 5.934 18.791 2.967 18.791-12.858v-50.44c1.978-22.747-4.945-23.736-15.824-32.637-67.253-37.582-136.484-78.132-203.737-116.703-23.736-11.869-41.538-25.715-69.23-42.528z"/></svg>