<svg xmlns="http://www.w3.org/2000/svg" viewBox="0 0 1000 1000"><path d="M676.643,489.2c-10,0-18.377,2.572-24.886,7.644-6.187,4.823-10.44,11.611-12.656,20.193h73.021c-2.216-9.134-6.516-16.066-12.792-20.616A37.88,37.88,0,0,0,676.643,489.2Z"/><path d="M430.625,489.2c-10,0-18.376,2.572-24.885,7.644-6.187,4.823-10.441,11.611-12.657,20.193h73.023c-2.217-9.134-6.516-16.065-12.794-20.616A37.878,37.878,0,0,0,430.625,489.2Z"/><path d="M500,0C223.858,0,0,223.858,0,500s223.858,500,500,500,500-223.858,500-500S776.142,0,500,0ZM198.006,550.644c12.107,12.4,28.29,18.689,48.1,18.689a65.338,65.338,0,0,0,31.717-7.741,52.385,52.385,0,0,0,21.4-21.108l.534-.981,37.272,21.612-.559.944a98.566,98.566,0,0,1-37.547,36.2,107.314,107.314,0,0,1-52.822,13.359c-31.457,0-57.81-10.606-78.326-31.523s-30.915-47.058-30.915-77.717c0-30.855,10.4-57.053,30.917-77.867s46.871-31.373,78.324-31.373a107.613,107.613,0,0,1,52.671,13.357,98.372,98.372,0,0,1,37.7,36.2l.559.943L299.77,465.246l-.537-.969a54.121,54.121,0,0,0-21.562-21.415,64.525,64.525,0,0,0-31.564-7.738c-19.807,0-35.99,6.288-48.1,18.689s-18.261,28.748-18.261,48.564C179.745,522,185.889,538.241,198.006,550.644Zm307.375-2.615-.16.895H393.744c5.332,17.327,18.579,25.757,40.446,25.757,14.232,0,25.138-4.854,32.414-14.427l.579-.762,32.751,18.895-.671.969c-14.8,21.407-36.9,32.261-65.667,32.261-24.746,0-44.9-7.605-59.9-22.6s-22.6-34.15-22.6-56.924c0-22.574,7.5-41.674,22.3-56.769s34.057-22.759,57.23-22.759c22,0,40.4,7.712,54.719,22.924,14.293,15.2,21.54,34.241,21.54,56.6A91.315,91.315,0,0,1,505.381,548.029Zm66.572,59.428h-40.5V388.383h40.5ZM751.4,548.029l-.16.895H639.761c5.332,17.327,18.579,25.757,40.447,25.757,14.231,0,25.137-4.854,32.413-14.427l.579-.762,32.751,18.895-.671.969c-14.8,21.407-36.9,32.261-65.666,32.261-24.747,0-44.9-7.605-59.9-22.6s-22.6-34.149-22.6-56.924c0-22.574,7.5-41.674,22.3-56.769s34.059-22.759,57.231-22.759c21.994,0,40.4,7.712,54.719,22.924,14.292,15.2,21.54,34.241,21.54,56.6A91.386,91.386,0,0,1,751.4,548.029ZM861.92,498.7c-11.367-1.345-21.669.994-30.617,6.956-8.847,5.9-13.332,15.892-13.332,29.7v72.1h-40.5V456.722h40.5v21.442a40.371,40.371,0,0,1,16.049-17.136,55.194,55.194,0,0,1,28.028-7.277h1.086v45.094Z"/></svg>