<svg xmlns="http://www.w3.org/2000/svg" width="1000" height="1000">
  <path d="M5 500.496c0 271.98 220.55 494.507 495.496 494.507 271.98 0 494.507-220.55 494.507-495.496C995.003 227.528 773.464 5 500.496 5 226.54 5 5 225.55 5 500.496zm118.682-3.956c0-56.374 44.505-103.846 100.88-103.846 56.373 0 101.868 47.472 101.868 103.846s-45.495 99.89-101.869 99.89-100.88-45.494-100.88-99.89zM265.11 290.825c-8.901-56.374 32.637-107.802 89.011-113.737 33.627-3.956 63.297 7.913 87.033 32.638 17.803 17.802 36.594 28.681 62.308 29.67 31.649 5.934 58.352-4.945 80.11-28.681 19.78-18.791 40.55-31.649 68.242-33.627 35.605-3.956 64.286 9.89 88.023 34.616 31.648 42.528 31.648 96.923-5.934 136.484-19.78 21.758-44.506 31.648-78.133 31.648-24.725 0-50.44-11.868-70.22-33.626-11.868-13.846-28.681-23.736-45.494-28.682-38.572-8.9-72.198 0-98.902 28.682-30.66 30.66-66.264 41.539-107.802 28.681-39.56-13.846-63.297-42.527-68.242-84.066zm32.637 499.452c-58.352-53.406-39.56-144.396 31.649-173.077 39.56-12.857 81.099-3.956 109.78 25.714 12.857 12.857 26.704 23.737 44.506 27.693 38.571 11.868 72.198 3.956 99.89-24.726 21.759-22.747 48.462-34.615 80.11-34.615 42.528 1.978 74.177 23.736 90.99 63.297 16.813 38.571 6.923 80.11-20.77 109.78-42.527 42.528-105.824 41.539-148.352-3.956-18.79-19.78-43.516-31.648-74.176-31.648-27.692 1.978-52.417 11.868-72.198 33.626-35.604 40.55-101.868 43.517-141.429 7.912zm112.748-294.726c0-55.385 45.495-102.857 102.857-102.857 57.363 0 101.869 47.472 101.869 103.846 0 54.396-46.484 101.869-101.869 101.869-55.384 0-102.857-47.473-102.857-102.858z" style="fill:#000;fill-opacity:1;fill-rule:nonzero;stroke:none;"/>
</svg>
