<svg xmlns="http://www.w3.org/2000/svg" width="1000" height="1000">
  <path d="M500.496 995.003c275.935 0 494.507-224.506 494.507-495.496C995.003 226.54 773.464 5 500.496 5 223.572 5 5 229.506 5 499.507c0 276.924 224.506 495.496 495.496 495.496zm-338.243-341.21v-320.44c0-21.759 8.901-36.594 28.682-49.451 92.967-53.407 182.967-107.803 272.968-158.242 27.692-14.836 45.494-14.836 68.242 0 89.01 50.44 176.044 102.857 269.012 152.308 21.758 12.857 36.593 33.626 36.593 65.275-3.956 49.45-3.956 102.857-3.956 152.308v158.242c3.956 20.77-10.88 40.55-32.637 54.396-87.034 52.418-175.056 101.869-260.111 155.275-31.649 12.858-55.385 12.858-83.077 0-88.023-53.406-174.067-102.857-263.078-155.275-23.737-13.846-32.638-33.626-32.638-54.396zm88.023-33.626c0 12.857 2.967 26.703 21.758 37.582 56.374 28.682 107.802 61.32 163.187 91.979 74.176 42.527 46.484 39.56 115.715 0 27.692-13.846 50.44-28.682 77.143-46.484-13.846-3.956-15.824-13.846-26.703-16.813-63.297-32.638-124.616-70.22-189.891-107.803-13.846-8.9-22.747-18.791-22.747-41.538V283.902c-8.902 2.967-14.836 2.967-18.792 2.967-36.593 24.725-73.187 42.528-104.835 65.275-11.868 5.934-14.835 19.78-14.835 27.692z" style="fill:#000;fill-opacity:1;fill-rule:nonzero;stroke:none;"/>
</svg>
