<svg xmlns="http://www.w3.org/2000/svg" viewBox="0 0 1000 1000"><path d="M5 500.496c0 271.98 220.55 494.507 495.496 494.507 271.98 0 494.507-220.55 494.507-495.496C995.003 227.528 773.464 5 500.496 5 226.54 5 5 225.55 5 500.496zm284.836 141.43V335.33L608.3 420.386c42.527 16.813 78.132 45.495 105.824 79.121 74.176 102.858 59.341 232.418-34.615 317.474-82.088 79.12-219.561 82.088-307.584 3.956-56.374-44.506-82.088-106.814-82.088-179.012zm0-327.365v-3.956c0-96.923 70.22-174.066 163.187-180.99 95.935-1.977 175.056 62.309 187.913 157.254 7.912 41.539 4.945 73.187-15.824 110.77-.989 2.967-1.978 3.956-3.956 6.923z"/></svg>