<svg xmlns="http://www.w3.org/2000/svg" width="1000" height="1000">
  <path d="M499.989 5c265.737 0 489.79 216.237 492.395 493.698C994.989 773.553 773.54 995 497.384 995 223.83 995 7.593 770.948 7.593 498.698 7.593 225.145 230.343 5 499.988 5zM40.159 429.658c-6.513 58.619-2.605 113.33 10.421 170.645 2.606 6.513 2.606 15.632 15.632 15.632s23.447-6.513 27.355-15.632v-168.04c0-16.934-10.42-22.144-29.96-22.144-20.842 0-20.842 0-23.448 19.54zm66.435-184.974c-18.237 23.448 13.026 50.803 41.684 23.448 31.263-46.895 69.04-89.882 114.631-127.658 24.75-20.842-13.026-42.987-36.473-27.356-53.408 40.382-78.158 65.132-119.842 131.566zm22.144 519.75c27.356 29.961 52.106 54.711 82.066 82.067 15.632 15.631 40.382 29.96 62.527 45.592 13.026-15.632 11.723-22.145 2.605-32.566l-31.263-32.566c-27.356-23.447-50.803-49.5-76.856-75.553-9.118-7.815-19.54-13.026-31.263-10.42-10.421 7.815-14.329 13.026-7.816 23.447zm69.04-265.736c-6.513 153.71 125.053 304.816 302.21 304.816 173.25 0 299.606-147.198 299.606-304.816 0-151.106-126.355-302.211-304.816-299.606-178.46 2.606-300.908 151.106-297 299.606zm19.54 1.302c0-152.408 128.96-281.368 282.67-278.763 155.015 2.605 278.765 128.96 276.16 278.763 2.605 156.316-125.053 280.066-278.764 280.066-155.013 0-280.066-123.75-280.066-280.066zm105.512-15.63c-13.027 29.96-14.33 58.618 3.907 88.579 10.422 16.934 22.145 29.96 41.685 29.96 33.868 3.908 66.434 3.908 99 3.908 13.026 0 20.842-28.658-10.421-28.658-19.54 0-41.685-3.908-65.132-3.908-19.54 0-29.96-10.42-32.566-31.263-2.605-7.816-2.605-18.237-2.605-32.566 2.605-15.631 11.724-28.657 32.566-28.657 9.118-3.908 22.145-3.908 32.566-3.908 29.96-3.908 29.96-13.027 32.565-32.566-32.565 0-58.618-3.908-87.276 3.908-20.842 5.21-35.171 15.631-44.29 35.17zm75.552 444.198c0 9.118 9.119 13.026 16.934 13.026 59.922 3.908 93.79 3.908 173.25 0 16.935 0 11.724-32.566-13.026-32.566H411.41c-9.119 2.605-13.027 13.026-13.027 19.54zm0-864.949c0 24.75 6.513 29.961 28.658 29.961h148.5c19.54 0 27.356-10.421 29.96-26.053v-9.118c0-20.842 0-20.842-20.841-23.447-54.71-6.514-108.119-10.422-160.224 0-32.566 2.605-26.053 2.605-26.053 28.657zm62.527 290.488c0 23.447 18.236 32.565 39.079 32.565 19.54 0 19.54 0 19.54 15.632v23.447c0 19.54 0 19.54-15.633 19.54h-14.328c0 19.54 5.21 26.052 16.934 32.566 13.026 0 13.026 6.513 13.026 16.934v108.118c3.908 3.908 6.513 3.908 6.513 3.908h96.395c39.079-6.513 63.829-44.29 58.619-85.973 0-42.987-26.053-75.553-75.553-75.553h-26.053c-16.934 0-16.934 0-16.934-19.54v-71.644zm101.605 188.881v-50.802c0-10.421 0-14.33 13.026-14.33 13.027 0 22.145 0 36.474 3.909 16.934 0 28.658 24.75 28.658 39.079 0 42.986-13.026 52.105-45.592 52.105-35.171 0-32.566 6.513-32.566-29.96zm164.132 310.027c-6.514 9.118-2.606 19.54 3.908 26.052 5.21 7.816 13.026 0 19.539-2.605 42.987-27.355 78.158-62.526 112.026-102.908 28.658-42.987 7.816-70.342-23.447-35.17-29.96 29.96-78.158 88.578-112.026 114.63zm9.118-679.974c24.75 23.447 49.5 48.197 78.158 71.644l28.658 29.96c2.605 3.909 9.118 6.514 11.724 9.12 14.329 0 19.54-5.211 33.868-19.54 10.421-10.421 10.421-13.026 3.908-23.447-28.658-45.593-66.434-84.672-113.329-117.237-24.75-20.843-18.237-22.145-42.987 2.605-18.237 16.934-18.237 27.355 0 46.895zm168.04 405.118c0 13.027 9.118 31.264 32.566 31.264 10.42-2.606 10.42-9.119 14.328-19.54 9.119-40.382 19.54-174.553-3.907-187.58-19.54-10.42-42.987 3.909-42.987 29.961z" style="fill:#000;fill-opacity:1;fill-rule:nonzero;stroke:none;"/>
</svg>
