<svg xmlns="http://www.w3.org/2000/svg" viewBox="0 0 1000 1000"><path d="M499.455 616.458c-24.429 29.98-49.968 54.41-81.059 79.948-69.954 71.065-148.792 91.052-244.285 61.071C85.28 731.94 29.76 667.536 8.663 572.042-15.766 443.237 85.28 308.88 214.085 293.335c45.526-5.552 45.526-5.552 49.967-51.078 9.994-104.377 109.929-197.65 214.305-204.312 95.494-4.442 168.78 31.09 225.41 105.487 17.766 35.533 14.435 73.286-15.546 95.494-31.09 19.987-64.403 9.993-89.941-25.54-24.429-39.973-64.403-58.85-115.481-51.077-49.968 5.552-84.39 36.643-93.273 86.61-11.104 38.864 0 73.286 23.318 104.377 11.104 14.435 15.546 24.428 19.987 38.863 6.663 25.54-4.441 51.078-29.98 65.513-19.987 11.104-48.857 11.104-68.844-11.104-25.54-13.324-48.857-35.532-81.059-35.532-53.298 0-104.376 32.201-118.811 81.058-15.546 55.52 6.662 109.929 49.967 135.468 44.416 28.87 105.487 24.428 144.35-14.435 84.39-85.5 171-169.89 249.839-250.948 88.83-87.721 219.857-98.825 313.13-28.87 81.058 58.85 122.142 163.227 95.493 256.5-28.87 103.266-114.37 172.11-214.305 177.662-75.507 8.883-141.02-17.766-194.318-71.065-24.429-25.539-48.858-54.409-78.838-79.948zM334.007 822.99c19.987-27.76 59.96-29.98 89.941-11.103 54.41 38.863 99.935 38.863 149.903 0 29.98-18.877 68.844-16.656 88.831 14.435 19.987 24.428 15.546 64.402-15.545 85.5-43.306 35.532-93.273 54.409-147.682 49.967-55.52 4.442-105.487-14.435-151.013-49.967-28.87-25.54-34.422-61.072-14.435-88.832zM439.494 278.9c0-36.643 24.428-62.182 59.96-62.182 34.423 0 58.852 25.539 58.852 62.182 0 33.311-24.43 56.63-58.851 56.63-35.533 0-59.961-23.319-59.961-56.63zm153.234 254.279c31.09 24.428 54.409 56.63 85.5 87.72 43.305 42.195 114.37 31.091 158.785-7.772 39.974-47.747 46.637-116.591 3.331-159.896-37.753-44.416-107.707-55.52-152.123-14.435-34.422 24.428-64.403 63.292-95.493 94.383z"/></svg>