<svg xmlns="http://www.w3.org/2000/svg" viewBox="0 0 1000 1000"><path d="M177.13 877.66C-6.473 726.723-26.748 549.88 39.71 306.58c-4.506-3.38-10.138-3.38-20.275-14.644 36.044-20.275 64.204-41.676 101.375-63.078 10.137 42.803 10.137 82.227 10.137 125.03-10.137-5.632-15.77-5.632-25.907-10.138-69.836 279.345 31.54 504.624 296.241 565.45 153.19 39.424 281.598-4.506 390.858-108.134 42.803-36.044 37.171-36.044 82.227-10.137 4.506 4.505 10.138 10.137 16.896 14.643-24.78 33.792-51.814 56.32-82.227 82.227-70.962 55.193-147.557 91.237-233.163 102.501-145.304 16.896-281.598-11.264-398.743-112.639zM94.902 206.33C187.267 92.565 298.78 21.602 440.705 6.96 661.478-8.811 829.31 76.795 941.95 271.661c81.1 152.063 60.825 355.94-4.506 458.442-21.401-10.138-36.045-20.275-51.814-30.413-11.264-9.011-11.264-15.77-6.758-25.907 52.94-110.386 51.814-245.553 0-346.929C809.035 179.297 694.143 97.07 533.069 82.427c-114.892-10.137-218.52 27.034-304.126 96.87-25.907 21.401-46.182 39.424-68.71 65.33-19.148-15.769-39.423-25.906-65.33-38.297zm183.602 550.806V298.695c0-46.183 13.516-74.342 61.951-74.342 176.844 0 256.818-12.39 316.516 25.907 31.54 15.77 43.93 41.676 49.562 70.962 10.137 58.573 10.137 112.64-45.056 148.684v12.39c58.572 30.413 77.721 77.721 72.09 150.937-11.265 92.364-76.596 131.788-157.696 137.42-65.33 10.137-135.167 4.505-200.498 4.505H298.78c-14.643 0-20.275-4.505-20.275-18.022zm118.27-102.502c0 14.643 4.506 19.149 21.402 19.149 16.896-1.126 113.766-1.126 130.662-4.506 47.308-3.379 65.33-31.539 59.699-77.72-4.506-33.792-22.528-55.194-59.7-55.194-45.055-4.505-92.363-4.505-136.293-4.505-11.264 0-15.77 10.137-15.77 20.275zm0-236.542c0 11.264 4.506 15.77 15.77 15.77H548.84c37.17-4.506 47.308-25.907 47.308-59.7 0-48.434-57.446-52.94-119.397-52.94h-58.573c-16.896 0-21.401 5.632-21.401 22.528z"/></svg>