<svg xmlns="http://www.w3.org/2000/svg" width="1000" height="1000">
  <path d="M213.954 994.996c3.68-9.81 11.037-23.3 17.168-31.884 40.468-56.409 63.767-116.497 95.65-175.358 25.752-46.6 51.504-95.65 76.03-143.475 28.204-55.183 61.314-106.687 90.745-163.096 22.073-42.92 46.599-82.161 67.446-126.307 30.657-51.504 60.087-100.556 85.84-154.512l18.394-38.015s2.452-3.679 4.905 0c15.941 30.657 31.883 58.862 49.051 88.292 67.446 116.497 68.672 121.403 66.22 125.081l-89.52 159.417c-26.977 47.825-53.956 99.33-80.934 148.38L526.657 841.71c-62.54 111.592-83.388 153.286-87.067 153.286zm51.504-566.543c0-3.68-1.226 1.226 45.373-126.308 23.3-63.766 50.277-128.76 73.577-193.752 13.489-33.11 24.525-66.22 35.562-99.33 2.452-4.905 2.452-4.905 6.131-2.452 38.015 24.526 148.38 95.65 204.79 136.118 0 0 1.226 1.226 0 3.678-23.3 47.825-51.504 95.65-79.709 145.928-25.752 45.373-47.825 85.84-73.577 131.212l-76.03 134.892c-11.036 20.846-22.072 36.788-30.656 57.635l-1.227 2.453c-1.226 1.226-1.226 0-2.452-2.453l-44.146-82.161c-18.395-34.336-38.015-68.672-57.636-105.46zm213.374 566.543c53.956-95.65 127.533-232.994 186.395-337.228l116.497 153.285c-100.556 58.862-201.11 123.855-302.892 183.943z" style="fill:#000;fill-opacity:1;fill-rule:nonzero;stroke:none;"/>
</svg>
