<svg xmlns="http://www.w3.org/2000/svg" viewBox="0 0 1000 1000"><path d="M500.496 5C223.572 5 5 229.506 5 500.002c0 276.43 224.506 495.001 495.002 495.001 276.43 0 495.001-224.506 495.001-495.001C995.003 226.539 773.464 5 500.496 5zM162.253 644.892v-290.77c0-27.692 12.857-48.462 35.605-63.297 12.857-7.912 25.714-14.835 39.56-21.758 76.154-42.528 151.32-85.055 227.474-126.594 10.879-6.923 23.736-10.88 37.582-10.88s26.704 3.957 37.583 10.88c76.154 41.539 151.319 84.066 226.484 126.594 11.868 5.934 23.736 12.857 35.605 19.78 16.813 8.901 27.692 21.758 34.615 39.56 2.967 7.913 3.956 17.803 3.956 26.704v289.781c0 28.682-13.846 51.429-38.571 66.264-89.012 49.45-176.045 96.924-263.078 144.396-7.912 5.934-15.825 6.923-22.748 9.89h-.989c0-1.978-.989-1.978-.989-2.967v-59.34c0-3.957.99-3.957 1.978-3.957h26.704c14.835 0 25.714-8.9 31.648-23.736 1.978-6.923 3.956-12.857 3.956-20.77 0-1.977.99-2.966 2.967-2.966 26.704-9.89 50.44-23.737 71.21-42.528 14.835-13.846 25.714-30.66 34.615-49.45 7.912-16.814 11.868-33.627 13.846-50.44v-14.836c.99-25.714.99-50.44 0-76.154 0-2.967.99-3.956 1.978-4.945 17.802-19.78 15.824-49.45-3.956-68.242-11.868-9.89-24.725-13.846-38.572-13.846H558.848c-3.956 0-3.956 0-3.956-3.956v-14.835c0-1.978 0-1.978 3.956-1.978h98.901c3.957 0 3.957 0 3.957-3.956v-24.726c0-.989-.99-1.978-.99-1.978H557.86c-1.978 0-2.967 0-2.967-1.978v-17.802h103.846c-3.956-19.78-10.879-36.593-19.78-52.418-14.835-21.758-34.615-36.593-58.352-45.494-.989 0-.989.989-.989 2.967v25.714c0 2.967 0 2.967-1.978 2.967h-15.824c-1.978 0-1.978 0-1.978-2.967v-32.637c0-.99 0-2.967-1.978-2.967a293.366 293.366 0 0 0-41.539-2.967c-.989 0-1.978.989-1.978 1.978v36.593c0 2.967 0 2.967-1.978 2.967H496.54c-1.978 0-1.978 0-1.978-2.967v-36.593c0-1.978 0-1.978-3.956-1.978-11.868 0-24.725.989-39.56 1.978-1.979 0-1.979 0-1.979 3.956v35.604h-19.78c-.989 0-.989-.989-.989-1.978v-30.66c-17.802 5.935-34.615 14.836-47.473 27.693-19.78 18.791-31.648 46.484-34.615 71.21h100.88c.988 0 1.977 0 1.977 1.977-.989 5.934 0 9.89 0 15.824 0 1.978-.989 1.978-1.978 1.978H345.221c-2.967 0-2.967 0-2.967 1.978v26.704c0 1.978 0 1.978 1.978 1.978h100.88c3.955 0 3.955 0 3.955 1.978v15.824c0 2.967 0 2.967-3.956 2.967h-100.88c-12.856 0-25.713 2.967-36.593 10.88-13.846 10.878-21.758 24.725-20.769 42.527 1.978 11.868 5.934 21.758 13.846 29.67 1.978.99 3.956 3.956 3.956 6.923v78.133c0 40.55 12.858 76.154 40.55 105.824 12.857 14.835 30.66 26.703 48.462 33.627 10.879 4.945 21.758 8.9 34.615 12.857.99 0 .99 0 .99 2.967 1.977 8.9 3.955 17.802 6.922 25.714 6.923 10.88 14.835 16.813 28.682 18.791 7.912.99 15.824 0 24.725 0 4.945 0 4.945 0 4.945 4.946v59.34c0 2.967 0 2.967-2.967 2.967-3.956-.989-9.89-2.967-14.835-4.945-3.956-.989-9.89-2.967-12.857-5.934-71.21-39.56-144.396-80.11-215.605-119.67-15.825-8.902-31.649-16.814-45.495-25.715-16.813-8.901-28.682-21.758-35.605-38.571-2.967-8.902-4.945-17.803-4.945-26.704zm146.374-152.308c-3.956-10.88-1.978-23.736 7.913-32.637 5.934-3.956 13.846-7.913 21.758-8.902 2.967 0 2.967 0 2.967 3.956v13.847c0 2.967 0 2.967 2.967 2.967h63.297c1.978 0 1.978.989 1.978 2.967v15.824c0 2.967 0 2.967-1.978 2.967h-65.275c-.99 0-.99 0-.99 1.978v11.868c0 1.978 0 2.967-1.977 2.967-13.846 1.978-25.715-8.9-30.66-17.802zm15.825 115.715v-79.121c2.967 0 5.934.989 8.9.989 3.957.989 7.913.989 11.869.989h98.901c4.945 0 4.945 0 4.945 4.945v13.846c0 2.967 0 2.967-4.945 2.967h-98.901c-2.967 0-2.967 0-2.967 2.967v23.736c0 2.967 0 2.967 2.967 2.967h98.901c4.945 0 4.945 0 4.945 3.956v14.836c0 .989 0 .989-3.956.989H342.254c3.956 21.758 10.879 42.527 22.747 59.34 16.813 21.759 37.583 34.616 63.297 45.495v-26.703c0-1.978 0-1.978.99-2.967h17.801c.99 0 1.978.989 1.978.989v31.648c0 .99.99 1.978 1.978 1.978 13.847 3.956 27.693 4.945 40.55 3.956 2.967 0 2.967-.989 2.967-2.967v-32.637c0-2.967 0-2.967 1.978-2.967h15.824s.99.989 1.978.989v34.615c0 2.967 0 2.967 1.978 2.967 13.847 0 27.693-.989 41.539-4.945 1.978-.989 1.978-.989 1.978-1.978v-28.681c0-2.967 0-2.967 1.978-2.967h15.824c1.978 0 1.978 0 1.978 2.967v20.769c0 .99 0 .99.99 1.978 0 0 .988 0 .988-.989 31.649-12.857 53.407-32.637 68.242-63.297 5.934-9.89 8.901-21.758 10.88-32.637 0-3.956 0-3.956-2.968-3.956h-99.89c-1.978 0-2.967 0-2.967-.99v-16.813c0-.989.989-1.978 2.967-1.978h102.857s.99-.989.99-1.978v-25.714c0-1.978 0-1.978-2.968-1.978h-99.89c-3.956 0-3.956 0-3.956-1.978v-15.824c0-3.956 0-3.956 3.956-3.956h103.847c5.934 0 10.879-.99 16.813-1.978 0 0 .989 0 1.978-.99v69.232c0 18.79-4.945 35.604-12.857 52.417-10.88 20.77-23.737 38.572-42.528 52.418-19.78 16.813-44.506 28.681-71.209 32.638-8.901.989-17.802.989-26.703.989-20.77.989-40.55.989-61.32.989-14.835 0-26.703-3.956-39.56-7.913-19.78-5.934-35.604-15.824-51.429-27.692-19.78-14.835-33.626-34.615-42.527-58.352-4.945-11.868-7.912-22.747-8.901-34.615zm126.593 147.363c1.978.989 4.946.989 6.924.989 14.835 1.978 30.659 1.978 46.483 1.978 11.868-.99 25.715 0 39.56-.99 3.957 0 7.913 0 13.847-.988h1.978c.989 9.89-1.978 16.813-8.901 21.758-4.945 1.978-8.901 2.967-12.857 2.967H475.77c-2.967 0-6.923-.989-9.89-1.978-6.923-.989-9.89-5.934-13.847-11.868-.989-2.967-.989-6.923-.989-11.868zm19.78-259.122v-24.725c0-4.945 1.979-7.912 3.957-8.901 7.912-4.945 14.835-9.89 22.747-12.858 3.956-1.978 6.923-1.978 10.88 0 6.922 2.967 14.834 7.913 21.758 12.858 3.956.989 5.934 3.956 5.934 8.9v24.726c0 3.956-1.978 6.923-5.934 8.901-6.924 4.945-13.847 8.901-21.759 12.857-3.956 1.978-6.923 1.978-10.879 0-7.912-3.956-14.835-7.912-22.747-11.868-1.978-2.967-3.956-5.934-3.956-9.89zm126.595-5.934v-15.824c0-2.967 0-2.967 1.978-2.967h57.362c4.946 0 4.946 0 4.946-4.945v-13.847c0-.989 0-1.978 1.978-1.978 12.857 1.978 24.725 9.89 28.681 22.748 2.967 11.868-2.967 24.725-12.857 31.648-4.945 1.978-9.89 4.945-15.824 4.945-1.978 0-1.978 0-1.978-2.967v-11.868c0-1.978 0-1.978-2.968-1.978h-59.34c-1.978 0-1.978 0-1.978-2.967z"/></svg>