<svg xmlns="http://www.w3.org/2000/svg" width="1000" height="1000">
  <path d="M500.496 5C223.572 5 5 229.506 5 500.002c0 276.43 224.506 495.001 495.002 495.001 276.43 0 495.001-224.506 495.001-495.001C995.003 226.539 773.464 5 500.496 5zM206.76 790.277V788.3c5.934-15.824 11.868-30.66 15.824-46.483 24.725-65.275 47.473-129.561 69.231-194.836 27.693-74.176 53.407-149.341 81.1-223.517l47.472-136.484c1.978-5.934 3.956-10.88 5.934-17.803h158.242c0 .99 0 .99.99.99 16.813 47.472 33.626 95.934 50.44 144.395 30.659 85.056 60.329 169.122 90.988 254.177 25.715 72.198 50.44 142.418 76.155 214.616 0 1.978.989 4.945 1.978 6.923h-131.54c-1.977 0-2.966-.989-2.966-1.978-28.682-85.055-59.341-167.143-89.012-251.21-23.736-68.241-48.461-137.472-73.187-205.714 0-2.967-.989-5.934-1.978-7.912h-.989c-54.396 155.275-110.77 310.55-165.165 466.814h-131.54zm228.462-65.275c0-40.55 32.638-72.198 73.187-71.209 36.594 0 69.231 32.638 69.231 72.198-.989 38.572-32.637 70.22-73.187 70.22-38.571-.989-69.23-32.637-69.23-71.209z" style="fill:#000;fill-opacity:1;fill-rule:nonzero;stroke:none;"/>
</svg>
