<svg xmlns="http://www.w3.org/2000/svg" viewBox="0 0 1000 1000"><path d="M500.496 5c272.968 0 494.507 221.54 494.507 495.002 0 270.495-218.572 495.001-495.001 495.001C229.506 995.003 5 776.431 5 500.002 5 229.506 223.572 5 500.496 5zM337.31 152.363c-37.583 69.231-28.682 136.484 13.846 196.814 42.528 61.319 89.011 117.693 131.539 173.077 42.528 57.363 84.066 113.737 121.649 169.122 38.571 53.407 27.692 122.638-18.792 160.22-47.472 42.528-116.703 42.528-163.187 4.945-53.407-42.527-62.308-107.802-28.681-158.242 12.857-29.67 32.637-48.462 46.483-71.209 23.737-28.681 23.737-37.583-4.945-62.308-8.9-8.901-12.857-8.901-23.736 0-22.747 33.627-51.429 66.264-69.231 103.847-66.264 102.857-4.945 220.55 84.066 259.121 85.055 32.638 169.122 8.901 220.55-56.374 51.429-71.209 51.429-155.275-3.956-226.484-80.11-106.813-160.22-215.605-240.33-323.407-42.528-57.363-37.583-126.594 8.9-173.078 52.419-48.462 122.639-48.462 169.122-6.923 57.363 42.528 62.308 113.737 23.737 176.044-18.792 22.748-37.583 41.54-50.44 64.286-6.923 8.902-6.923 24.726-6.923 28.682 6.923 13.846 15.824 22.747 28.681 38.571 33.627-47.472 62.308-85.055 85.055-122.637 37.583-62.308 33.627-122.638-4.945-184.946-32.637-60.33-89.01-89.011-155.275-89.011-74.176 0-131.539 33.626-163.187 99.89z"/></svg>