<svg xmlns="http://www.w3.org/2000/svg" viewBox="0 0 1000 1000"><path d="M216.748 668.511H27.173C11.652 668.511 5 664.077 5 652.991V339.249c0-11.086 6.652-14.412 22.173-14.412h159.642c64.3 0 94.233 21.064 94.233 72.06v23.282c0 25.498-8.869 44.345-28.824 49.888 42.128 6.652 64.3 28.825 64.3 74.278v46.563c0 53.214-29.933 77.603-99.776 77.603zm-96.45-79.82h66.517c11.086 0 17.738-6.652 17.738-17.739v-19.955c0-14.412-6.652-23.281-17.738-23.281h-66.518zm0-129.71h42.127c13.304 0 18.847-6.652 18.847-22.173v-12.194c0-12.195-5.543-21.064-18.847-21.064h-42.128zm245.006 111.971V420.18c0-64.3 39.91-95.342 123.057-95.342h124.166c11.087 0 16.63 3.326 16.63 14.412v58.757c0 14.413-5.543 16.63-16.63 16.63H510.534c-22.173 0-29.933 9.978-29.933 26.607v113.08c0 16.63 7.76 22.172 29.933 22.172h101.993c12.195 2.218 16.63 5.544 16.63 18.847v57.649c0 11.086-5.543 15.52-16.63 15.52H488.361c-83.147 0-123.057-28.824-123.057-97.559zm318.176 7.76V339.25c0-11.086 5.543-14.412 16.629-14.412h82.038c12.195 0 13.304 3.326 13.304 14.412v221.726c0 11.086 8.869 21.064 45.454 21.064 34.367 0 41.019-9.978 41.019-21.064V339.249c0-11.086 2.217-14.412 16.63-14.412h78.712c11.086 0 17.738 3.326 17.738 14.412v239.464c0 60.974-32.15 96.45-154.1 96.45-128.6 0-157.424-35.476-157.424-96.45z"/></svg>