<?xml version="1.0" encoding="utf-8"?>
<!-- Generator: Adobe Illustrator 26.0.1, SVG Export Plug-In . SVG Version: 6.00 Build 0)  -->
<svg version="1.1" xmlns="http://www.w3.org/2000/svg" xmlns:xlink="http://www.w3.org/1999/xlink" x="0px" y="0px"
	 viewBox="0 0 1000 1000" style="enable-background:new 0 0 1000 1000;" xml:space="preserve">
<g id="Layer_1">
</g>
<g id="Layer_3">
</g>
<g id="Layer_2">
	<g>
		<polygon points="838.3,734.5 812.4,719.5 834.2,706.9 834,618.8 786.3,680.8 780.3,676.5 742.6,729.1 730.8,718.6 685.8,788.1 
			640.7,770.7 628.9,794.8 591,785.8 585.1,797 513.6,786.6 491.1,799.8 491.1,799.8 491.1,799.8 491.1,799.8 491.1,799.8 
			321.5,696.5 281.2,673.2 261.1,661.6 261.2,615.2 281.6,537.5 281.9,430 281.9,430 304.5,416.9 151.2,327.7 151.9,575.9 
			152.9,576.5 153.3,691.4 138.9,699.7 286.5,916.1 339.3,885.4 536.5,1000 536.5,1000 677.2,918.7 677.2,895.6 697.8,907.5 
			697.6,815.8 697.6,815.8 697.8,907.5 838.6,826.3 838.4,734.5 		"/>
		<polygon points="138.7,752.1 172.9,771.8 172.6,850.3 286.5,916.1 138.9,699.7 		"/>
		<polygon points="832.3,197.2 492.9,0 151.3,197.2 490.7,394.4 		"/>
		<path d="M861.2,390.5v-0.3c-12.5,3.1-24.8,6.9-36.9,11.4c-0.1,0-0.2,0.1-0.2,0.1c-2.5,0.9-5,1.9-7.4,2.9c-0.2,0.1-0.4,0.2-0.7,0.3
			c-5,2-10,4.2-14.9,6.4c-0.4,0.2-0.9,0.4-1.3,0.6c-2.1,1-4.3,2-6.4,3c-0.3,0.1-0.6,0.3-0.9,0.4c-2.3,1.2-4.7,2.3-7,3.6
			c-0.5,0.2-0.9,0.5-1.4,0.7c-1.9,1-3.7,2-5.5,3c-0.6,0.3-1.2,0.7-1.8,1c-2.2,1.3-4.5,2.5-6.7,3.8c-2.6,1.5-5.1,3.1-7.7,4.6
			c-0.7,0.4-1.4,0.8-2,1.3c-2.1,1.3-4.2,2.6-6.3,4c-0.5,0.3-0.9,0.6-1.4,0.9c-2.6,1.6-5.1,3.3-7.6,5c-0.4,0.2-0.7,0.5-1.1,0.7
			c-2.2,1.5-4.5,3-6.7,4.6c-0.4,0.3-0.9,0.6-1.3,0.9c-5.2,3.6-10.2,7.3-15.3,11.1c-0.3,0.2-0.5,0.4-0.8,0.6
			c-5.2,3.9-10.2,7.9-15.2,12c0,0,0,0,0,0l0,0c-1.2,1-2.3,1.9-3.5,2.9c0,0,0,0,0,0c-0.4,0.3-0.7,0.6-1.1,0.9c0,0,0,0,0,0
			c-0.6,0.5-1.3,1.1-1.9,1.6c-1.2,1-2.3,2-3.5,3c0,0,0,0,0,0c0,0,0,0,0,0c-2.1,1.8-4.2,3.6-6.3,5.5c-1.2,1.1-2.4,2.1-3.6,3.2
			c-0.6,0.5-1.2,1.1-1.8,1.6c-1.4,1.2-2.7,2.5-4.1,3.7l-7.2-4.2L649,477.9l-83.1-48.3c27.7-25.9,58.3-48.7,91-67.9
			c32.8-19.2,90.4-38.5,90.4-38.5l84.9,50.2l-0.1-45l0.5-0.3l-0.4-130.8L490.7,394.4l0.3,116.7l0,0l0,14.1l-146.2-85l-0.3,107.3
			l146.5,180l0,0l341.6-197.2l-0.2-79.4c9.4-3.2,19-6.1,28.7-8.4V390.5C861.3,390.6,861.3,390.5,861.2,390.5L861.2,390.5z
			 M616.4,611.2l-45.5,26.3l-0.3-104.7l41.7-24.1l26.6,15.5l18.7,10.8l-41.2,23.8L616.4,611.2z M704.9,560.2l-0.1-35c0,0,0,0,0,0
			c1.8-1.5,3.6-2.9,5.4-4.4c0,0,0,0,0.1,0c1.8-1.4,3.7-2.9,5.5-4.3c0,0,0,0,0.1,0c1.8-1.4,3.7-2.8,5.5-4.2c0,0,0,0,0.1,0
			c1.9-1.4,3.7-2.8,5.6-4.2c0,0,0,0,0,0c7.6-5.5,15.3-10.9,23.2-16l0.1,41.9L704.9,560.2z"/>
	</g>
</g>
</svg>
