<svg xmlns="http://www.w3.org/2000/svg" width="1000" height="1000">
  <path d="m801.238 715.471 193.765 166.236H773.71l-333.531-289.06h244.59c29.646 0 57.176-8.47 82.588-23.294 25.412-14.823 45.53-33.882 59.294-58.235 14.824-26.471 23.294-54 23.294-82.589 0-30.706-7.412-58.235-23.294-82.588-15.882-25.412-33.882-45.53-59.294-61.412-25.412-15.883-52.942-21.177-82.589-21.177h-78.353l-166.236-145.06h244.59c56.117 0 108 13.765 156.706 42.354 46.588 27.53 82.588 64.588 109.059 111.177 27.53 48.706 44.47 99.53 44.47 155.647 0 42.353-9.529 83.648-25.411 120.707-16.942 38.117-39.177 70.941-68.824 99.53-29.647 28.588-61.412 50.823-99.53 67.764zM5 571.471c0-41.294 8.47-82.589 24.353-119.648 16.941-39.176 40.235-69.882 69.883-99.53 28.588-28.588 61.412-50.823 99.53-67.764L5 118.293h221.295l333.53 289.06H315.237c-29.647 0-58.235 7.411-82.588 23.294-24.353 15.882-45.53 33.882-60.353 58.235-14.824 24.353-22.236 52.942-22.236 82.589s7.412 58.235 22.236 82.588c14.823 25.412 34.941 45.53 60.353 61.412 23.294 14.824 52.941 21.177 82.588 21.177h77.295l167.295 145.06h-244.59c-57.176 0-109.059-15.883-156.706-42.354-47.647-26.47-83.647-64.588-110.118-111.177C20.882 679.471 5 628.647 5 571.471z" style="fill:#000;fill-opacity:1;fill-rule:nonzero;stroke:none;"/>
</svg>
