<svg xmlns="http://www.w3.org/2000/svg" viewBox="0 0 1000 1000"><path d="M5 500.496c0-90 22.747-173.077 67.253-250.22 44.506-74.177 103.846-133.517 178.023-178.023C327.419 27.747 410.496 5 500.496 5c89.011 0 172.089 22.747 249.232 67.253 74.176 44.506 133.517 103.846 178.022 178.023 44.506 77.143 67.253 160.22 67.253 249.231 0 90-22.747 173.078-67.253 250.22-44.505 74.177-103.846 133.518-178.022 178.023-77.143 44.506-160.22 67.253-249.232 67.253-90 0-173.077-22.747-250.22-67.253-74.177-44.505-133.517-103.846-178.023-178.022C27.747 672.585 5 589.508 5 500.496zM136.539 386.76c0 8.9 3.956 12.857 12.857 12.857 18.791.989 35.605 0 49.45 0 8.902 0 12.858-3.956 12.858-12.858v-38.571c0-6.923-.989-10.88-8.901-10.88h-53.407c-11.868 0-12.857 6.924-12.857 10.88zm102.857 268.022c0 14.836 6.923 18.792 17.803 18.792h36.593c7.912-3.956 10.88-3.956 10.88-18.792V406.54c0-3.956 2.966-6.923 10.878-6.923h82.089c12.857 0 16.813-3.956 16.813-16.814v-27.692c0-13.846-3.956-17.802-16.813-17.802H261.155c-14.836 0-21.759 6.923-21.759 21.758V636.98zm216.595-8.9c0 18.79 7.912 23.736 26.703 23.736h16.813c18.791 0 22.747-5.934 22.747-23.737v-290.77c0-21.758-21.758-17.802-49.45-17.802-16.813 0-16.813 6.923-16.813 21.758V636.98zm109.78-8.902c-20.77 24.725-20.77 34.616 10.88 36.594h30.659c12.857 0 22.747-3.956 31.648-18.792 22.748-30.66 49.45-62.308 71.21-92.967 5.933-10.88 6.922-4.945 9.89 0 22.747 26.703 43.516 53.407 67.252 84.066 13.847 17.803 25.715 27.693 45.495 27.693h26.703c24.726 0 20.77-19.78 3.956-40.55-37.582-40.55-68.242-86.044-103.846-124.616-4.945-4.945-4.945-8.9 0-15.824 27.692-30.66 53.407-66.264 81.1-100.88 7.911-8.9 11.867-15.824 22.746-27.692 10.88-15.824 3.956-26.703-14.835-26.703h-39.56c-7.912 0-13.847 0-18.792 6.923-11.868 14.835-15.824 23.736-22.747 31.648-24.725 37.583-51.429 74.176-79.121 103.847-40.55 54.396-81.1 108.791-122.638 157.253zm5.934-272.968c13.846 22.748 31.649 42.528 48.462 66.264 13.846 19.78 27.692 23.736 41.538 23.736 31.649 0 52.418-2.967 34.616-31.648-22.747-43.517-46.484-85.055-80.11-85.055h-35.605c-14.835 0-14.835 12.857-8.9 26.703z"/></svg>