<svg xmlns="http://www.w3.org/2000/svg" width="1000" height="1000">
  <path d="M5 500.496c0 271.98 220.55 494.507 495.496 494.507 271.98 0 494.507-220.55 494.507-495.496C995.003 227.528 773.464 5 500.496 5 226.54 5 5 225.55 5 500.496zm99.89 29.67C87.088 282.914 288.847 99.947 504.452 99.947c227.474 0 400.551 182.967 402.53 399.561 0 216.594-177.035 402.529-404.508 399.562-218.572 0-384.726-174.067-397.584-368.902zm115.715-68.241c-8.901 91.978 12.857 175.055 68.242 249.231 47.473 69.231 108.792 98.902 202.748 98.902 19.78 0 39.56-1.978 59.34-4.945 67.254-14.836 126.595-47.473 170.111-101.869 79.122-98.901 95.935-207.693 50.44-324.397-50.44-128.571-183.957-211.649-330.33-184.945-52.418 10.879-99.891 27.692-137.474 72.198-47.472 58.352-76.154 121.649-83.077 195.825zm122.638 229.45v-368.9c0-1.978 1.978-3.956 1.978-6.924 32.637 17.803 63.297 33.627 93.956 50.44 1.978 1.978 4.945 8.901 4.945 12.857v91.979c0 10.879 1.978 13.846 12.858 10.879 39.56-10.88 78.132-19.78 117.692-27.693 8.901-2.967 10.88-6.923 10.88-15.824V255.221c8.9 3.956 15.824 7.912 21.758 10.879 24.725 12.857 50.44 25.714 72.198 38.571 4.945 2.967 8.9 8.901 8.9 13.847v370.88s0 1.978-1.977 6.923c-6.923-4.945-15.824-8.901-21.758-10.88-21.759-12.856-43.517-26.703-68.242-39.56-8.902-3.956-10.88-8.9-10.88-19.78v-87.033c0-8.901-1.978-10.88-10.879-8.901-39.56 10.879-81.099 19.78-119.67 28.681-8.902 1.978-10.88 5.934-10.88 14.835v179.012c-17.802-8.901-33.626-16.813-48.461-25.715-15.825-6.923-30.66-15.824-43.517-23.736-4.945-2.967-8.901-8.901-8.901-11.868z" style="fill:#000;fill-opacity:1;fill-rule:nonzero;stroke:none;"/>
</svg>
