<svg xmlns="http://www.w3.org/2000/svg" viewBox="0 0 1000 1000"><path d="M499.777 294.742c130.766-126.582 322.208-100.428 422.637 12.554 95.197 103.567 97.29 268.855 3.138 383.93-85.783 100.428-283.501 150.643-425.775 11.507-67.999 64.86-144.366 95.198-238.518 85.783-74.275-8.37-135.997-40.8-186.211-100.429-97.29-111.936-92.06-277.224 8.369-387.068 95.198-103.567 283.501-135.997 416.36-6.277zm-327.44 203.996c0 67.998 53.354 124.49 121.352 124.49 67.999 0 123.443-53.353 123.443-121.352 0-67.998-53.352-123.443-120.305-123.443-71.136 0-124.49 52.306-124.49 120.305zm410.084 3.138c0 64.86 56.491 121.351 124.49 121.351 67.998 0 124.49-56.49 124.49-124.49 0-67.998-56.492-120.304-124.49-120.304-71.137 0-124.49 52.306-124.49 123.443z"/></svg>