<svg xmlns="http://www.w3.org/2000/svg" viewBox="0 0 1000 1000"><path d="M500.496 5C223.572 5 5 229.506 5 500.002c0 276.43 224.506 495.001 495.002 495.001 276.43 0 495.001-224.506 495.001-495.001C995.003 226.539 773.464 5 500.496 5zM275.001 508.408c-52.418-161.21 45.495-322.418 226.484-329.342 85.055 1.979 151.32 29.67 203.737 91.979 83.077 100.88 74.176 245.275-18.791 337.254-43.517 43.516-97.913 67.253-160.22 71.209-10.88 0-23.737 1.978-34.616 2.967-38.572 5.934-65.275 32.637-73.187 70.22-3.956 16.813-6.923 33.626-11.868 52.418-3.956 14.835-16.813 24.725-33.627 24.725-13.846 1.978-29.67-7.912-31.648-23.736-1.978-5.935-2.967-12.858-1.978-19.78 26.703-120.66 52.418-243.298 79.121-363.958 3.956-19.78 20.77-32.637 40.55-27.692 17.802 3.956 30.659 21.758 26.703 41.538-10.88 52.418-22.747 102.858-33.627 153.297-1.978 6.924-2.967 15.825-3.956 22.748 0 2.967 0 5.934 3.956 5.934 30.66-4.945 63.297-6.923 93.957-11.868 74.176-12.858 135.495-77.143 144.396-153.298 11.868-99.89-55.385-187.912-155.275-201.758-91.979-12.858-182.968 53.406-199.781 143.407-5.934 31.648-3.956 61.318 5.934 91.978 6.923 19.78-2.967 39.56-21.758 46.484-19.78 5.934-38.572-3.956-44.506-24.726zm204.726 286.814c0-22.747 18.791-41.538 41.538-41.538 23.737 0 41.54 18.791 41.54 42.527-.99 22.748-17.803 40.55-41.54 40.55-22.747 0-41.538-17.802-41.538-41.539z"/></svg>