<svg xmlns="http://www.w3.org/2000/svg" viewBox="0 0 1000 1000"><path d="M500.496 5C223.572 5 5 229.506 5 500.002c0 276.43 224.506 495.001 495.002 495.001 276.43 0 495.001-224.506 495.001-495.001C995.003 226.539 773.464 5 500.496 5zM225.55 687.42V462.914h311.54c23.736 0 27.692 3.956 27.692 26.703v61.319c0 18.791-5.934 26.703-25.714 26.703h-65.275c-17.802 0-24.726-7.912-24.726-26.703v-46.484H397.64c0 22.748-2.967 46.484 0 67.253 4.945 35.605 36.593 59.341 72.198 61.32h74.176c47.472-1.979 78.132-39.562 75.165-76.155v-73.187c2.967-38.572-30.66-76.154-75.165-76.154H226.539l-.989-2.967c.99-25.715 0-53.407.99-78.132 10.878-52.418 56.373-90 111.758-90h56.374v126.593h54.395V236.43H677.53c53.407 0 101.868 43.517 107.802 95.935 1.978 12.857 1.978 21.758 1.978 33.626v314.507c0 57.363-36.593 100.88-93.956 115.714H334.342c-57.363 0-108.792-51.428-108.792-108.791z"/></svg>