<svg xmlns="http://www.w3.org/2000/svg" viewBox="0 0 1000 1000"><path d="M600.11,549.46a291.12,291.12,0,0,1-3.75-47.84,282.556,282.556,0,0,1,3.75-47.36q3.75-22.51,11.26-38.45,8-16.429,19.22-25.79a42.241,42.241,0,0,1,27.2-9.38A39.719,39.719,0,0,1,684,390q11.73,9.38,19.23,25.79,7.98,15.97,11.77,38.47a252.025,252.025,0,0,1,4.22,47.36,291.12,291.12,0,0,1-3.75,47.84q-3.75,22-11.72,38.45-7.5,16.41-19.23,25.79a40.43,40.43,0,0,1-26.73,9.38,42.3,42.3,0,0,1-27.2-9.38q-11.25-9.371-19.22-25.79Q603.86,571.5,600.11,549.46ZM385.94,416.24q-7.969-15.949-19.7-24.86A39.151,39.151,0,0,0,340.45,382a41.649,41.649,0,0,0-26.73,9.44q-11.231,8.921-19.23,24.86-7.961,15.43-12.19,37a271.32,271.32,0,0,0-3.75,46.43,242.017,242.017,0,0,0,4.22,46.42q4.19,21.57,12.19,37.52,7.98,15.48,19.23,24.85a43,43,0,0,0,26.73,8.91,39.791,39.791,0,0,0,26.26-9.38q11.711-9.851,19.23-25.79a142.939,142.939,0,0,0,11.72-37.51,262.617,262.617,0,0,0,3.75-45,241.315,241.315,0,0,0-4.22-46.43Q393.91,431.75,385.94,416.24ZM995,500c0,273.38-221.62,495-495,495S5,773.38,5,500,226.62,5,500,5,995,226.62,995,500ZM201,285.73H319.33C335.2,228,397.24,150.82,416,140H346.73Zm213.54,335v-1.87q8.91-6.109,16.88-18.29A128.518,128.518,0,0,0,446,572a174.878,174.878,0,0,0,9.85-35.64,202.727,202.727,0,0,0,3.75-38.92q0-37.511-8.44-68.46-8.48-31.46-23.96-53.98t-37.51-34.7q-22-12.66-49.24-12.66a99.671,99.671,0,0,0-49.71,12.66q-22,12.19-38,34.7-15.48,22.51-23.92,54.4t-8.44,70.34q0,39.39,8,70.81,8.43,30.95,23.91,53,15.48,21.57,37.05,33.29,22,11.25,49.24,11.26H473.63V619.79ZM413.1,860c-46.74-42.71-79.36-102.45-97.39-145.73H201L348.17,860Zm71.43-145.73H343.12C376,792.76,429.46,844.13,452.06,860h32.47ZM486.69,140H453.47c-61.78,44.44-96.92,115.67-106.78,145.73h140Zm28.14,145.73h141.4C623.33,207.24,569.9,155.87,547.29,140H514.83Zm92.26,54.58q-22,12.19-37.51,35.17t-23.45,54.86q-8,31.89-8,71.28t8,71.75q8.45,31.89,23.92,54.87t37.51,35.64q22,12.66,50.18,12.66,27.679,0,49.71-12.66,22.5-12.679,38-35.64t23.45-54.87q8.45-32.359,8.44-71.75t-8.44-71.28q-8-31.87-23.45-54.86t-38-35.17q-22-12.66-49.71-12.66Q629.6,327.65,607.09,340.31Zm45.53,373.96H512.66V860h33.19C607.6,815.56,642.76,744.33,652.62,714.27Zm145.73,0H680C664.17,772,602.12,849.18,583.36,860h69.26Zm0-428.54L651.18,140H586.25c46.75,42.73,79.4,102.45,97.4,145.73Z"/></svg>