<svg xmlns="http://www.w3.org/2000/svg" viewBox="0 0 1000 1000"><path d="M684.84,492.771q12.744,19.79,12.744,52.871t-12.653,52.149q-12.654,19.071-35.067,19.068T614.8,597.609q-12.654-19.25-12.654-51.967,0-32.9,12.835-52.782t34.885-19.883Q672.1,472.977,684.84,492.771ZM456.094,472.977q-22.053,0-34.885,19.883t-12.834,52.782q0,32.715,12.654,51.967t35.065,19.25q22.414,0,35.068-19.068t12.652-52.149q0-33.08-12.743-52.871T456.094,472.977ZM995.3,500c0,273.4-221.6,495-495,495S5.3,773.4,5.3,500,226.9,5,500.3,5,995.3,226.6,995.3,500ZM357.945,556.488a4.04,4.04,0,0,0-2.078-3.252,7.624,7.624,0,0,0-4.43-1.448q-2.709,0-3.434,1.448-15,32.353-30.366,44.194t-37.6,11.839H244.25q-20.971,0-20.968-21.347V412.269q0-12.843,3.073-17.909t11.027-8.048q7.949-2.986,23.135-4.8,2.891,0,2.893-4.971t-2.893-4.971q-12.111,0-28.739,1.087-15.909,1.081-26.934,1.082t-27.112-1.082q-16.81-1.089-28.921-1.087-2.9,0-2.893,4.971t2.893,4.971q15.361,1.808,23.317,4.792t11.116,8.142q3.16,5.158,3.164,17.816V582.492q0,16.822-7.864,22.431t-29.733,8.141q-2.9.363-2.893,4.882,0,5.057,2.893,5.06,68.325-2.171,97.245-2.169,29.285,0,98.513,2.169A559.853,559.853,0,0,1,357.945,556.488ZM540.327,546q0-36.512-23.523-60.555t-60.618-24.039q-36.92,0-60.618,24.133T371.862,546q0,35.79,23.525,59.106t60.8,23.318q37.272,0,60.709-23.224T540.327,546Zm193.77,0q0-36.512-23.524-60.555t-60.618-24.039q-36.918,0-60.618,24.133T565.631,546q0,35.79,23.526,59.106t60.8,23.318q37.272,0,60.709-23.224T734.1,546Zm61.422,28.2V487.439l53.864,1.448q4.7,0,4.7-9.764t-4.7-9.759H796.241l1.447-34.524q0-2.89-5.045-2.895a5.928,5.928,0,0,0-5.047,2.9q-18.561,27.049-43.6,41.928a5.723,5.723,0,0,0-3.244,5.323q0,4.623,3.978,4.619h13.737q4.34,0,4.338,5.06l-.724,87.845v1.63q0,20.6,12.268,33.166t32.828,12.565a59.8,59.8,0,0,0,30.216-7.684q13.438-7.678,13.442-12.2a7.589,7.589,0,0,0-1.176-4.066q-1.178-1.9-2.621-1.9a53.9,53.9,0,0,1-27.295,7.047Q795.517,608.183,795.519,574.2Z"/></svg>