<svg xmlns="http://www.w3.org/2000/svg" viewBox="0 0 1000 1000"><path d="M500,995c273.38,0,495-221.62,495-495S773.38,5,500,5,5,226.62,5,500,226.62,995,500,995ZM201,285.73,346.73,140H416c-18.76,10.82-80.8,88-96.67,145.73ZM486.69,140V285.73h-140c9.86-30.06,45-101.29,106.78-145.73Zm28.14,145.73h141.4C623.33,207.24,569.9,155.87,547.29,140H514.83Zm283.52,0H683.65c-18-43.28-50.65-103-97.4-145.73h64.93ZM315.71,714.27H201L348.17,860H413.1C366.36,817.29,333.74,757.55,315.71,714.27Zm27.41,0H484.53V860H452.06C429.46,844.13,376,792.76,343.12,714.27Zm169.54,0V860h33.19c61.75-44.44,96.91-115.67,106.77-145.73ZM652.62,860,798.35,714.27H680C664.17,772,602.12,849.18,583.36,860ZM444.11,667.63q21.11-7.51,36.11-19.7V479.58H388.78v48.77h40.33v85.82a48,48,0,0,1-15,7,79.07,79.07,0,0,1-20.17,2.35q-17.82,0-30.95-9.38-12.66-9.37-21.1-25.79a150.36,150.36,0,0,1-12.66-38.92A259.75,259.75,0,0,1,325,501.62a246.8,246.8,0,0,1,4.22-46.42q4.23-22,12.66-38.46Q350.33,399.87,363,390a49.41,49.41,0,0,1,30.48-9.85q31.89,0,50.65,27.2L476.47,368a89.82,89.82,0,0,0-35.17-29.55q-21.57-10.79-51.12-10.78-28.14,0-50.64,13.13Q317,353.44,301.08,376.89q-15.94,23-24.38,54.86t-8.44,69.87q0,38.93,8.44,70.81,8.91,31.89,24.85,54.87a117.06,117.06,0,0,0,39.86,35.64q23.46,12.19,53,12.19Q423.49,675.13,444.11,667.63ZM577.68,336.09v332H731V617.92H631.6v-98h87.7V474H631.6V385.8h94.73V336.09Z" fill-rule="evenodd"/></svg>