<?xml version="1.0" encoding="UTF-8"?><svg id="a" xmlns="http://www.w3.org/2000/svg" viewBox="0 0 1000 1000"><path d="M541.603,392.912h-135.593v97.072h135.593c27.735,0,53.544-20.801,53.544-48.536s-25.809-48.536-53.544-48.536Zm-64.33,70.108h-44.299v-43.143h44.299v43.143Z"/><path d="M500,0C223.858,0,0,223.858,0,500s223.858,500,500,500,500-223.858,500-500S776.142,0,500,0Zm-16.179,213.02h32.358V82.435h114.792V213.405h-32.357v29.661c-16.117-1.843-32.316-2.871-48.536-3.082h-66.256v-26.965Zm-162.172,0h32.358v-54.7h114.792v55.085h-32.358v26.965h-114.792v-27.35Zm325.501,661.787h-114.792v-184.129h-44.684v97.458h-114.792v-25.809h60.093v-110.94h73.96c26.194,0,32.743,8.475,66.641,85.131l4.237,9.245,6.934,16.179h62.404v112.866Zm-44.684-140.216c-3.082-7.447-6.163-14.381-9.245-20.801-28.12-63.945-41.988-89.754-85.901-89.754h-101.31v110.94h-134.053v-110.94h-35.439v-133.667h35.439v-222.265h303.929l10.401,.77h.77c97.843,9.245,147.535,56.626,162.558,124.037,3.458,15.944,5.137,32.222,5.008,48.536-.127,16.759-3.803,33.301-10.786,48.536h-35.439c-15.408,33.898-46.61,63.174-92.45,76.656,47.766,10.786,67.026,52.774,67.026,52.774l2.311,4.622h35.439c7.704,15.408,33.128,67.026,50.847,110.555h-169.106Z"/></svg>