<svg xmlns="http://www.w3.org/2000/svg" viewBox="0 0 1000 1000"><path d="M500.496 5C223.572 5 5 229.506 5 500.002c0 276.43 224.506 495.001 495.002 495.001 276.43 0 495.001-224.506 495.001-495.001C995.003 226.539 773.464 5 500.496 5zm-320.44 671.54c-.99-115.714 0-230.44 0-346.154 0-7.912 5.934-18.792 13.846-23.737 97.912-61.319 200.77-115.714 300.66-174.066 6.923-2.967 20.77-2.967 26.703 0 103.847 51.429 200.77 114.725 299.672 172.088 11.868 6.923 14.835 14.836 14.835 28.682v341.21c0 13.846-3.956 21.758-14.835 27.692-99.89 54.396-198.792 114.726-298.683 171.1-6.923 2.967-20.769 4.945-28.68 0-100.88-56.374-199.782-114.726-301.65-174.067-5.934-2.967-11.868-13.846-11.868-22.747zm40.55-34.615c1.977 1.978 3.955 1.978 5.933 2.967 8.901-13.846 13.846-27.692 23.737-38.571 16.813-24.726 22.747-53.407 20.769-82.089v-140.44c0-15.824 4.945-22.747 16.813-30.659 54.396-35.605 113.737-62.308 169.122-95.934 4.945-2.967 8.9-3.956 13.846-6.923 51.428 89.01 101.868 178.022 152.308 265.055-2.967.99-4.945 2.967-5.934 2.967h-82.088c-37.583 0-48.462 10.88-56.374 49.451h234.396c-74.176-132.528-149.34-261.1-222.528-389.672-89.011 51.43-175.056 99.89-260.11 151.32-4.946 1.978-9.89 14.835-9.89 22.747zm19.78 32.638c1.977 1.978 4.944 5.934 6.922 6.923 83.078 48.461 164.177 94.945 247.254 142.418 6.923 3.956 18.791 1.978 26.703-.99 81.1-45.494 162.199-92.967 242.309-141.428 3.956-.99 9.89-2.967 14.835-4.945-3.956-1.978-4.945-3.956-6.923-6.923-14.835 0-30.66 1.978-43.517 0-28.681-1.978-55.384 5.934-80.11 21.758-40.55 25.714-84.066 48.462-126.594 73.187-7.912 2.967-19.78 2.967-26.703 0-59.34-33.627-117.693-67.253-177.033-102.858-2.968-.989-4.946-3.956-7.913-6.923 51.43-88.022 101.869-176.044 154.287-266.044 15.824 26.703 30.66 51.428 45.494 76.154 18.792 31.648 31.649 38.571 73.187 24.725-39.56-66.264-78.132-133.517-119.67-204.726-75.165 132.528-150.33 261.1-222.529 389.672zm102.857-32.638c9.89 1.978 13.846 1.978 17.802 1.978 136.484 0 274.946.99 412.42.99 18.79 0 20.768-9.89 20.768-23.737V353.133c0-15.824-4.945-22.747-19.78-30.66-77.143-44.505-157.253-90-236.374-136.483-5.934-1.978-10.88-3.956-15.825-5.935 4.946 17.803 14.836 30.66 20.77 43.517 11.868 26.704 31.648 44.506 56.374 57.363 40.55 20.77 80.11 46.484 122.637 69.231 12.858 7.912 18.792 16.813 18.792 33.626v187.913c0 5.934-.99 11.868-1.978 16.813H431.265c17.802-32.637 35.605-61.318 51.429-90 3.956-6.923 5.934-14.835 3.956-21.758-4.945-13.846-13.846-25.715-23.736-44.506-40.55 74.176-79.122 139.451-119.671 209.671z"/></svg>