<svg xmlns="http://www.w3.org/2000/svg" viewBox="0 0 1000 1000"><path d="M499.169,0C223.027.459-.458,224.688,0,500.831S224.688,1000.458,500.831,1000,1000.458,775.312,1000,499.169,775.312-.458,499.169,0ZM363.661,624.926c-20.686-18.638-31.348-40.842-39.933-64.808-21.337-59.567-7.783-114.478,25.452-164.268,30.027-44.984,62.2-89.14,98.294-129.241,33.519-37.238,55.81-78.33,67.56-126.231.979-3.988,2.069-7.95,4.848-11.855,6.214,31.176,14.631,62.074,4.746,94-17.241,55.685-48.412,104.111-79.157,152.739-7.755,12.265-16.5,23.931-23.71,36.5A112.558,112.558,0,0,0,409.4,444.631c12.9-11.4,25.012-23.873,38.863-33.942,21.634-15.726,43.652-31.245,66.924-44.3,44.967-25.231,80.957-56.516,85.557-112.881l4.659-.166c2.391,9.229,6.157,18.346,6.913,27.708,2.229,27.567-8.383,51.7-22.766,74.255-27.246,42.722-65,75.411-102.9,108-25.161,21.637-51.036,42.654-74.323,66.21-22.643,22.906-34.845,52.606-43.6,83.522C367.774,616.412,365.981,619.556,363.661,624.926ZM686.544,517.655c-21.6,89.95-80.272,156.657-139.761,222.4-30.8,34.037-51.113,72.563-61.27,116.989-1.122,4.908-2.449,9.768-5.778,14.433-6.953-34.1-13.941-67.462-2.525-102.319,15.27-46.62,41.03-87.371,66.435-128.494,13.542-21.921,27.147-43.806,40.372-65.919,2.821-4.716,4.122-10.349,7.308-18.645-19.5,16.042-35.124,30.749-52.57,42.8-23.75,16.409-48.992,30.625-73.406,46.081-34.994,22.154-60.667,50.964-65.5,94.339-.155,1.391-1.452,2.655-3.9,6.891-11.053-18.895-10.9-37.042-6.341-55.02,8.976-35.424,29.19-64.86,54.746-89.762,34.919-34.024,70.536-67.575,108.2-98.435,38.359-31.428,65.691-68.781,78.292-116.894.777-2.968,2.447-5.7,5.067-11.635,6.816,7.417,14.184,12.51,17.446,19.529,10.1,21.74,18.775,44.16,27.7,66.437,2.377,5.93,3.684,12.294,5.483,18.458Z"/></svg>