<svg xmlns="http://www.w3.org/2000/svg" width="1000" height="1000">
  <path d="M731.068 122.806c-13.24 10.832-13.24 21.664-15.646 32.496-2.408 15.647-2.408 28.886-4.815 42.126v6.017c-3.61 18.054-10.832 20.461-27.682 7.222-20.46-18.054-48.143-28.886-79.436-26.479h-21.664c-15.647-2.407-19.257-8.425-10.832-24.071 6.017-4.815 10.832-13.24 13.239-21.665 8.425-10.832 13.24-20.46 19.257-31.293 2.407-2.407 4.814-8.425 4.814-13.239-8.425-6.018-13.239 0-18.053 2.407-32.497 15.647-64.993 34.904-91.472 61.383-15.646 15.646-31.293 28.885-48.143 45.735-24.071 18.054-50.55 31.293-79.436 39.718-61.382 15.647-120.357 32.497-179.333 48.143-26.478 8.425-52.957 18.054-80.64 26.48-31.292 13.238-61.381 32.496-81.842 58.974-3.611 2.407-3.611 4.815-6.018 4.815C49.845 240.756 172.609 74.663 371.199 21.705c213.033-56.567 429.676 34.904 544.016 208.22 115.543 173.314 89.065 381.532 24.072 493.465-4.815-13.24-7.222-28.886-9.63-42.125-10.831-48.143-32.496-96.286-56.567-138.411-19.257-38.515-39.718-72.215-58.975-109.526-13.24-24.071-24.072-48.143-32.497-72.214-4.814-14.443-7.221-27.682-7.221-43.329 2.407-39.718-2.407-80.64-10.832-120.357-6.018-21.665-10.833-39.718-21.665-58.976-2.407-4.814-8.425-10.832-10.832-15.646zM5.312 521.189c0-2.407 2.407-6.018 2.407-10.832 26.479 4.814 50.55-6.018 74.622-8.425 58.975-2.407 114.34-7.221 170.908 8.425 10.832 2.407 24.071 8.425 34.903 13.24 39.718 21.664 50.55 45.735 45.736 90.268-3.61 16.85-3.61 32.496 0 48.143 2.407 6.017 4.815 8.425 7.222 13.239 2.407-2.407 2.407-4.814 6.018-7.222 7.221-24.071 13.239-50.55 15.646-80.64 0-28.885-10.832-55.364-37.31-74.62-24.072-15.647-48.144-24.072-74.622-32.497-40.922-7.222-80.64-7.222-120.358-7.222-39.718 2.407-78.232 7.222-117.95 18.054H7.719c-6.017-10.832 0-18.054 0-31.293 15.647-3.61 28.886-6.018 44.533-8.425 27.682-4.814 56.568-8.425 83.046-13.24 61.383-4.814 122.765-2.407 181.74 21.665 21.665 7.221 40.922 20.46 56.568 37.31 13.24 10.833 21.665 24.072 24.072 39.719 7.221 32.496 4.814 61.382-2.407 91.471-10.833 39.718-32.497 74.622-64.993 101.1-24.072 18.054-50.55 28.887-77.03 34.904-48.142 13.24-96.285 13.24-144.428 13.24-13.24 0-21.665-6.018-28.886-15.647-34.904-56.568-56.568-117.95-67.4-181.74a2676.004 2676.004 0 0 0-7.222-58.975zM108.82 801.622h19.257c39.718 2.407 81.843 7.222 122.765 7.222 28.885 0 58.975-4.815 85.453-9.629 55.365-8.425 96.286-40.921 131.19-83.047 15.647-19.257 31.293-40.921 46.94-61.382 24.071-30.09 54.16-54.16 91.471-67.4 37.311-10.832 72.215-4.814 107.118 13.24 24.072 13.239 44.533 32.496 63.79 54.16 34.904 42.125 77.029 79.436 120.357 114.34 2.408 2.407 4.815 8.425 10.833 10.832-8.425 10.832-16.85 21.664-24.072 32.496-2.407-3.61-6.018-6.017-8.425-8.425-34.904-32.496-72.214-66.196-103.507-104.71-19.258-20.461-40.922-42.126-67.4-57.772-26.48-16.85-58.976-24.072-90.269-16.85-21.664 6.018-37.31 19.257-54.16 34.903-28.886 30.09-58.976 63.79-87.862 96.286 0 0-2.407 2.408-4.814 6.018 15.647-3.61 26.479-10.832 33.7-19.257 10.832-8.425 21.665-19.257 30.09-28.886 18.053-21.664 37.31-40.921 61.382-54.16 39.718-24.072 79.436-21.665 114.34 10.832 24.071 21.664 45.735 45.735 69.807 67.4 26.479 26.478 52.957 50.55 80.64 77.029 4.814 2.407 9.628 4.814 15.646 10.832-24.072 28.886-50.55 52.957-80.64 74.621-77.028 56.568-164.89 87.861-263.583 93.88-190.164 10.832-347.833-89.065-420.047-192.573zM421.75 659.6c2.406-2.407 2.406-7.221 4.814-13.239 30.089-69.807 56.568-138.411 85.453-208.218 13.24-26.479 26.479-52.958 37.311-80.64 6.018-7.221 8.425-13.24 13.24-20.46 8.425-6.019 16.85-8.426 21.664-6.019 6.018 6.018 10.832 15.647 8.425 24.072-8.425 26.479-19.257 56.568-32.497 83.047-24.071 37.31-45.735 74.621-66.196 111.932-16.85 30.09-34.904 56.568-50.55 85.454-3.611 6.018-8.425 13.24-14.443 21.664 0 2.407-2.407 2.407-4.815 4.815 0 0-2.407 0-2.407-2.408zm101.1-432.083c2.407-8.425 8.425-16.85 15.646-16.85 8.425 0 14.443 6.018 14.443 16.85 0 7.221-6.018 13.24-14.443 13.24-7.221 0-15.646-6.019-15.646-13.24zm142.021 52.957c0-8.425 7.222-15.646 15.647-15.646s15.646 10.832 15.646 18.053c0 8.425-7.221 13.24-15.646 13.24-10.832 0-15.647-4.815-15.647-15.647z" style="fill:#000;fill-opacity:1;fill-rule:nonzero;stroke:none;"/>
</svg>
