<svg xmlns="http://www.w3.org/2000/svg" width="1000" height="1000">
  <path d="M500.496 5c272.968 0 494.507 221.54 494.507 495.002 0 270.495-218.572 495.001-495.001 495.001C229.506 995.003 5 776.431 5 500.002 5 229.506 223.572 5 500.496 5zM152.363 590.496c0 26.704.99 60.33 2.967 75.166 11.868 68.242 68.242 121.648 134.506 128.571 70.22 7.913 136.484-29.67 164.177-94.945 32.637-80.11-4.946-173.077-86.045-204.726-30.66-11.868-63.297-23.736-93.956-36.593-41.539-15.825-66.264-55.385-62.308-98.902 3.956-47.473 46.484-87.033 91.978-89.011h168.133c1.978 0 2.967 1.978 4.945 1.978v523.188h225.495c46.484 0 87.033-17.802 119.67-51.428 25.715-31.649 39.561-67.253 38.572-106.814-.989-65.275-40.55-119.67-101.868-142.418-27.692-11.868-58.352-23.736-87.033-33.626-70.22-25.715-86.045-109.781-40.55-157.254 28.681-31.648 64.286-39.56 104.836-26.703 37.582 10.88 63.296 45.495 66.264 83.077.989 16.813 0 33.627 0 50.44 0 1.978.989 3.956.989 6.923h57.362v-2.967c0-20.77.99-43.517-.989-67.253-11.868-88.022-96.923-150.33-184.945-131.539-58.352 10.88-99.89 46.484-118.682 103.847-18.791 57.362-5.934 110.77 33.626 155.275 20.77 23.736 49.451 36.593 78.133 46.483 24.725 9.89 49.45 18.792 75.165 27.693 41.538 18.791 66.264 63.297 58.352 108.791-9.89 45.495-48.462 79.122-93.957 79.122H535.112V219.616c0-5.934 0-5.934-6.923-5.934-73.187 0-146.375 0-219.562-1.978-31.648 0-58.351 7.912-84.066 25.714-52.418 35.605-77.143 83.078-71.209 145.385 6.923 62.308 41.539 105.825 97.913 129.561 29.67 12.858 59.34 23.737 90 34.616 15.824 4.945 27.692 12.857 39.56 24.725 32.638 35.605 35.605 88.022 6.924 126.594-25.715 32.637-68.242 46.484-108.792 34.616-37.583-11.869-65.275-47.473-67.253-86.045-.989-16.813-.989-34.615-.989-51.428 0-3.957-.989-5.935-5.934-5.935-6.923 0-32.638.99-52.418.99z" style="fill:#000;fill-opacity:1;fill-rule:nonzero;stroke:none;"/>
</svg>
