<svg xmlns="http://www.w3.org/2000/svg" viewBox="0 0 1000 1000"><path d="M5.507,557.96c-2.201-5.381-2.361-11.679-3.003-17.602-2.807-25.896-3.275-51.855-1.297-77.829,2.58-33.883,8.809-67.104,19.65-99.321C57.549,254.16,126.086,171.688,227.629,117.187c7.213-3.872,15.899-5.241,24.058-7.066,33.886-7.581,68.237-10.228,102.828-7.532,93.657,7.3,173.37,44.36,237.247,113.634,43.656,47.344,70.74,103.16,81.393,166.779,1.3,7.763,1.987,15.631,2.878,23.46,.125,1.096,.11,2.408-.377,3.34-3.108,5.949-6.366,11.819-9.701,17.947-21.261-74.813-65.632-130.363-135.905-163.694-58.369-27.684-119.068-31.3-180.612-11.845-124.301,39.293-197.202,169.293-166.418,295.863,10.753,44.21,31.858,82.812,63.556,115.472,31.621,32.58,69.419,54.95,113.243,66.823,43.901,11.894,87.884,11.516,131.992,.179-6.214,2.873-12.38,5.857-18.651,8.601-27.684,12.11-56.469,20.567-86.292,25.342-26.552,4.252-53.302,5.613-80.137,3.805-74.076-4.993-140.779-29.707-199.202-75.738-45.638-35.958-79.985-80.714-102.023-134.594Zm722.522,14.41c-35.761-4.665-71.264,12.684-90.333,45.53-5.52,9.507-11.957,18.537-18.558,27.349-11.541,15.406-25.768,28.284-40.255,40.822-12.316,10.66-24.488,21.549-37.446,31.386-16.982,12.891-36.29,21.79-55.653,30.62-42.283,19.28-86.499,30.566-132.822,33.457-39.858,2.488-79.251-.991-117.884-11.24-82.809-21.97-150.384-66.793-201.741-135.596-5.959-7.983-11.298-16.429-17.137-24.97,.298,1.29,.466,2.287,.759,3.245,38.959,127.173,118.685,218.666,240.01,273.45,37.307,16.846,76.613,27.047,117.225,32.053,21.215,2.615,42.522,3.774,63.919,2.926,18.835-.747,37.53-2.763,56.089-5.97,25.244-4.363,50.314-9.49,74.485-18.255,82.308-29.847,149.593-79.778,200.997-150.767,7.693-10.625,14.298-22.032,21.587-32.957,5.095-7.636,9.485-15.505,12.195-24.382,4.777-15.649,5.642-31.266,1.892-47.269-8.644-36.888-38.718-64.395-77.328-69.431ZM405.462,96.238c83.635,17.837,153.523,58.942,208.138,125.035,36.813,44.55,60.614,95.39,71.266,152.279,1.036,5.533,1.915,11.095,2.98,17.301,1.203-1.567,1.95-2.677,2.832-3.668,7.96-8.948,15.419-18.42,24.028-26.694,17.779-17.088,38.649-28.162,63.837-29.615,.768-.044,1.674-.364,2.241-.865,8.887-7.874,17.728-15.799,26.874-23.976-30.536-61.863-73.676-113.785-129.472-155.053-55.7-41.196-117.925-67.229-186.339-78.012-68.438-10.787-135.583-4.978-201.262,17.136,3.686,.018,7.348-.254,11.009-.54,34.941-2.729,69.628-.63,103.867,6.672Zm459.761,311.852c-12.614-55.564-77.493-81.909-125.145-50.946-13.376,8.691-24.495,19.8-34.409,32.182-20.664,25.808-34.425,55.104-43.645,86.677-10.414,35.662-17.632,71.99-22.598,108.784-.378,2.8-.594,5.623-.962,9.163,49.135-55.586,139.036-43.98,172.54,23.875,.442-7.409,.873-13.93,1.213-20.456,.775-14.897,1.077-29.823,4.434-44.48,6.294-27.476,16.969-52.952,33.934-75.625,15.56-20.796,20.362-43.958,14.638-69.174Zm134.672-53.708c-1.702-34.852-25.511-65.222-58.906-75.239-17.745-5.323-35.376-3.788-52.851,1.053-28.693,7.95-54.076,22.309-77.253,40.762-4.146,3.3-8.109,6.829-12.551,10.585,1.043,.318,1.408,.473,1.788,.539,72.985,12.636,104.707,97.594,60.048,154.497-4.711,6.003-8.459,12.763-12.654,19.172l.693,.544c2.594-2.444,5.103-4.986,7.794-7.317,20.001-17.33,41.896-32.053,64.199-46.17,9.312-5.894,18.625-12.064,28.647-16.506,32.62-14.456,52.789-46.221,51.045-81.918Zm-151.031-153.569c45.708,.203,82.192-35.664,82.424-81.031,.229-44.645-36.002-81.196-80.742-81.457-44.44-.259-80.972,35.966-81.25,80.569-.278,44.682,35.701,81.723,79.568,81.919Z"/></svg>
