<svg xmlns="http://www.w3.org/2000/svg" viewBox="0 0 1000 1000"><path d="M230.303 693.671H20.538C11.66 693.671 5 685.902 5 672.584V325.196c0-14.428 6.66-18.868 15.538-18.868h174.25c69.92 0 100.997 23.307 100.997 79.91v25.527c0 31.077-9.989 52.164-31.076 61.043 46.614 4.44 65.482 31.076 65.482 82.13v52.164c0 55.493-29.967 86.57-99.888 86.57zm-108.767-92.119h73.251c13.319 0 18.868-6.659 18.868-21.087v-21.087c0-13.319-5.55-21.088-18.868-21.088h-73.251zm0-147.612h47.724c13.319 0 21.088-6.659 21.088-21.087v-16.648c0-13.319-7.77-18.868-21.088-18.868h-47.724zm235.292-61.042v-67.702c0-14.428 4.439-18.868 21.087-18.868h278.576c16.648 0 21.088 4.44 21.088 18.868v67.702c0 9.988-4.44 18.867-21.088 18.867h-74.36v260.819c0 13.318-5.55 21.087-21.088 21.087h-87.68c-13.318 0-21.087-7.769-21.087-21.087V411.765h-74.361c-16.648 0-21.087-8.879-21.087-18.867zm360.706 279.686v-65.482c0-12.209 4.44-16.648 21.087-16.648h56.604V411.765H748.61c-14.428 0-18.868-8.879-18.868-18.867v-67.702c0-14.428 4.44-18.868 18.868-18.868h152.052c16.648 0 21.087 4.44 21.087 18.868v265.258h51.054c14.428 0 22.197 4.44 22.197 16.648v65.482c0 13.318-7.769 21.087-22.197 21.087H738.621c-16.648 0-21.087-7.769-21.087-21.087z"/></svg>