<svg xmlns="http://www.w3.org/2000/svg" width="1000" height="1000">
  <path d="M495.63 993.738C236.032 993.738 5 775.128 5 498.138 7.484 228.603 226.094 6.266 499.357 6.266c265.81-2.484 493.116 209.916 495.6 491.874 3.726 274.505-227.305 498.083-499.326 495.6zM52.2 500.623c0 248.42 201.22 449.642 449.641 445.915C750.262 946.538 949 754.012 949 500.623c0-269.537-222.337-449.642-447.158-447.158C250.936 48.497 52.2 252.202 52.2 500.623zm231.031 73.284c-2.484-8.695 6.21-11.179 13.663-13.663 36.021-7.453 68.316-12.421 101.853-21.116 4.968 0 14.905-3.726 21.116-3.726 7.452-2.484 13.663 3.726 13.663 12.42 6.21 40.99 12.42 83.222 18.631 124.211 2.484 8.695-2.484 13.663-12.42 13.663-28.57 8.695-36.022 6.21-38.506-22.358-2.484-9.936-2.484-21.115-6.21-29.81 0 0-2.485 0-2.485-2.484-8.694 11.179-14.905 24.842-14.905 40.99 0 49.683 38.505 100.61 91.916 111.789 47.2 8.694 88.19-4.969 118-47.2 26.084-34.78 26.084-85.706 3.726-124.21-9.937-13.664-21.116-27.327-36.021-34.78-9.937-8.694-14.905-17.39-14.905-29.81 0-8.695 0-17.39 2.484-26.084 0-9.937 2.484-12.421 9.937-7.453 43.473 27.326 84.463 59.621 99.368 116.758 23.6 93.158-43.474 191.284-145.326 202.463-73.284 9.937-176.379-47.2-176.379-158.99 0-18.631 4.968-38.505 12.421-55.894 0-3.727 2.484-8.695 4.968-14.906-4.968 0-7.452-2.484-12.42-2.484-2.485 2.484-8.695 2.484-13.664 2.484-38.505 8.695-29.81 6.211-38.505-29.81zm59.621-308.042c22.358-60.863 81.979-100.61 147.81-100.61 103.095-2.485 185.074 95.642 161.474 202.463-2.484 4.968-2.484 7.452-2.484 14.905 0 2.484 2.484 2.484 2.484 6.21 9.937-3.726 21.116-6.21 29.81-8.694 18.632-9.937 21.116-7.453 29.811 11.179v4.968c4.969 17.39 4.969 22.358-11.179 27.326-36.02 11.18-74.526 27.327-109.305 38.506-16.147 6.21-18.632 2.484-21.116-11.18-12.42-37.263-24.842-75.768-33.537-113.03-4.968-14.906-2.484-17.39 13.664-23.6 2.484 0 4.968 0 7.452-2.485 17.39-3.726 21.116 0 27.326 17.39 2.485 11.178 6.211 23.6 11.18 38.505h3.726c2.484-6.21 4.968-8.695 4.968-14.906 11.179-64.59-23.6-115.515-73.284-132.905-54.653-18.631-115.516 4.969-139.116 52.169-27.326 53.41-11.179 116.757 34.78 149.052 33.536 24.842 27.325 17.39 27.325 60.863 0 7.453 0 9.937-2.484 16.148-2.484-3.727-9.937-3.727-12.42-6.21-19.874-16.148-44.717-29.811-62.106-48.443-47.2-47.2-62.105-114.274-34.779-177.62zm129.179 234.758c0-62.105 0-125.453 2.484-188.8 0-21.116 0-21.116 24.842-21.116h7.453c13.663 0 16.147 2.484 16.147 13.663v378.842c0 27.326 0 29.81-27.326 29.81-21.116-2.484-21.116-2.484-21.116-23.6-2.484-60.862-2.484-126.694-2.484-188.8z" style="fill:#000;fill-opacity:1;fill-rule:nonzero;stroke:none"/>
</svg>
