<svg xmlns="http://www.w3.org/2000/svg" viewBox="0 0 1000 1000"><path d="M900.243 496.464c11.314 9.9 16.971 15.557 22.628 25.457 38.186 39.6 59.4 87.686 67.886 142.843 1.414 21.214 4.243 39.6 4.243 62.229-4.243 65.057-26.872 121.628-69.3 171.128-35.357 43.843-84.857 70.715-141.429 86.272-14.143 2.828-32.528 5.657-48.085 5.657-16.972 4.243-31.115 4.243-42.429 4.243H33.286C14.9 994.293 5 984.393 5 968.836v-79.2c0-16.972 9.9-24.043 25.457-24.043h684.514c69.3 0 137.186-49.5 151.329-123.043 7.071-56.572-8.486-107.486-49.5-147.086-22.629-22.628-50.914-33.943-80.614-33.943-55.158 0-111.729 0-168.3 2.829-14.143 0-22.629-8.486-22.629-24.043v-79.2c0-15.557 5.657-26.871 22.629-26.871h165.471c42.429 0 76.371-16.972 103.243-55.158 15.557-21.214 25.457-48.085 29.7-76.371 4.243-39.6-4.243-79.2-29.7-110.314-26.872-32.529-60.814-50.915-100.414-57.986-9.9-4.243-18.386-4.243-25.458-4.243H30.457c-15.557 0-21.214-7.071-21.214-14.143C5 113.193 5 110.364 5 110.364V26.921C5 11.364 14.9 5.707 30.457 5.707H717.8c63.643 0 123.043 21.214 175.371 62.229 50.915 42.428 86.272 97.585 97.586 165.471 4.243 26.871 4.243 53.743 1.414 82.029-4.243 56.571-24.043 104.657-56.571 148.5-9.9 9.9-18.386 21.214-31.114 29.7 0 2.828 0 2.828-4.243 2.828zM5 753.864V244.721c0-15.557 9.9-24.043 25.457-24.043h684.514c26.872 0 60.815 18.386 63.643 55.158 5.657 36.771-18.386 63.642-49.5 72.128h-584.1c-11.314 0-11.314 0-11.314 7.072v73.542c0 2.829 4.243 5.658 8.486 5.658h292.757c12.728 0 18.385 8.485 21.214 15.557v90.514c0 15.557-8.486 21.214-21.214 21.214H145.014c-11.314 0-11.314 0-11.314 8.486v73.543c0 7.071 4.243 7.071 8.486 7.071H714.97c29.7 0 57.986 22.629 63.643 48.086 8.486 33.943-15.557 73.543-52.328 76.371-2.829 0-8.486 2.829-11.315 2.829H30.457C14.9 777.907 5 768.007 5 753.864z"/></svg>