<svg xmlns="http://www.w3.org/2000/svg" width="1000" height="1000">
  <path d="M893.33 491.27c-16.432-6.161-31.836-11.296-46.214-15.404L710.53 429.652c-5.135-2.054-6.162-3.08-6.162-8.216v-97.562c2.054 0 5.135 1.027 7.19 2.054 92.427 35.944 184.854 72.915 277.281 109.886 5.135 2.054 6.162 4.108 6.162 9.243v92.427c0 4.108-1.027 6.162-5.135 7.189-93.454 36.971-185.882 73.942-278.309 110.913l-7.189 3.08v-98.588c0-5.135 1.027-7.19 6.162-8.216 57.51-20.54 117.075-39.025 175.612-57.51 2.054-1.028 3.081-2.055 7.189-3.081zM5 536.458V444.03c0-4.108 1.027-6.162 5.135-8.216 93.454-36.97 186.909-73.942 281.39-110.913 1.027-1.027 2.054-1.027 4.108-3.08v99.615c0 4.108-1.027 6.162-5.135 7.19-58.537 20.539-118.102 40.051-176.64 58.537-1.026 0-2.053 3.08-7.188 4.108 15.405 4.107 29.782 8.215 43.133 13.35 46.214 16.432 93.454 31.836 140.695 47.24 4.108 1.028 5.135 3.082 5.135 8.217v98.589c-2.054-1.027-4.108-1.027-5.135-2.054L11.162 544.673C6.027 543.646 5 541.593 5 536.457zm315.28 234.15c7.189-12.324 13.35-25.675 18.486-37.998 53.402-109.886 105.778-219.772 159.18-331.712l80.104-166.37c1.027-3.08 3.08-5.134 8.216-5.134 26.7 1.027 52.375 1.027 78.05 1.027h6.161c-1.027 2.054-1.027 4.108-2.054 5.135-51.348 105.778-101.67 213.61-153.018 319.388-33.89 69.834-66.753 140.695-101.67 209.502-1.027 5.135-3.081 6.162-7.19 6.162z" style="fill:#000;fill-opacity:1;fill-rule:nonzero;stroke:none;"/>
</svg>
