<svg xmlns="http://www.w3.org/2000/svg" width="1000" height="1000">
  <path d="M500.496 5C223.572 5 5 229.506 5 500.002c0 276.43 224.506 495.001 495.002 495.001 276.43 0 495.001-224.506 495.001-495.001C995.003 226.539 773.464 5 500.496 5zM121.704 629.068C89.066 512.364 95.989 400.606 155.33 295.77c65.275-114.725 185.935-178.022 263.078-188.902v23.737c15.824-3.956 30.66-7.912 46.484-10.88v50.44c0 1.978-2.967 4.945-4.945 4.945-10.88 3.956-23.737 5.935-34.616 7.913-4.945.989-6.923 2.967-6.923 8.9 0 19.781-1.978 17.803-19.78 24.726-19.78 8.901-39.56 19.78-61.32 30.66 17.803 19.78 34.616 39.56 52.419 57.362 77.143-41.538 154.286-42.527 232.418-1.978 15.824-17.802 31.648-35.604 50.44-53.406-23.737-16.814-49.451-28.682-76.154-37.583 0-7.912-1.978-12.857 0-19.78 0-5.934-1.978-7.912-6.924-8.901-14.835-1.978-26.703-5.935-41.538-7.913v-55.384c15.824 2.967 30.66 6.923 48.462 10.879V104.89c85.055 17.803 156.264 61.32 212.638 126.594 100.88 114.726 122.637 250.22 83.077 397.584-5.934-3.956-9.89-5.934-12.857-6.923-1.978-1.978-5.934-3.956-10.88-5.934-3.956 8.9-6.923 17.802-10.879 28.681-14.835-6.923-28.681-13.846-41.538-21.758-1.978-.99-3.956-4.945-3.956-6.923 1.978-6.923 3.956-13.846 7.912-21.759 1.978-2.967 0-6.923-5.934-8.9-1.978 0-4.945-3.957-6.923-4.946-4.945-1.978-6.923-5.934-4.945-8.9 4.945-39.561 4.945-81.1 0-120.66-9.89-54.396-30.66-102.858-65.275-146.375-1.978-1.978-3.956-2.967-6.924-6.923-8.9 8.901-16.813 15.824-23.736 23.737-6.923 8.9-13.846 17.802-21.758 24.725-2.967 5.934-2.967 6.923 0 12.857 21.758 26.703 37.582 57.363 45.494 91.978 8.902 39.561 6.924 79.122-3.956 118.682-13.846 50.44-44.505 90-86.044 120.66-23.736 15.824-48.462 26.703-76.154 35.604-2.967 0-6.923 5.934-10.88 6.924-17.801 19.78-6.922 43.516-10.878 67.252 47.472-7.912 90-23.736 130.55-47.472 11.868-8.901 24.725-17.802 37.582-26.704 4.945-3.956 8.901-3.956 13.846 0 3.956 1.978 8.902 5.934 14.836 6.924 8.9-8.902 17.802-19.78 24.725-28.682 5.934-6.923 7.912-6.923 14.835-2.967 12.857 6.923 26.704 13.846 41.539 20.77-12.857 12.857-21.759 25.714-32.638 38.57 6.923 2.968 12.858 6.924 19.78 11.87-144.395 171.099-426.265 192.857-608.243-4.946 6.923-3.956 13.846-8.901 21.758-14.835-8.901-8.901-16.813-19.78-25.714-30.66 16.813-8.9 30.66-17.802 47.472-24.725 6.924 6.923 13.847 15.824 20.77 24.725 1.978 3.956 5.934 3.956 9.89 1.978 4.945-2.967 9.89-2.967 13.846-6.923 6.923-4.945 12.857-3.956 17.802 1.978 36.594 32.638 78.132 57.363 124.616 72.198 13.846 2.967 26.704 4.945 43.517 8.901v-45.494c0-1.978-1.978-4.945-3.956-6.923-3.956-3.956-6.923-5.934-8.901-8.901-3.956-12.858-14.836-14.836-25.715-17.803-55.385-18.79-100.88-54.395-129.56-106.813-24.726-46.484-31.65-96.924-24.726-149.341 4.945-37.583 21.758-73.187 44.506-103.847 5.934-5.934 5.934-10.879 0-18.791-13.847-13.846-26.704-28.682-41.539-46.484-9.89 12.857-19.78 25.715-26.703 37.583-32.638 49.45-48.462 104.835-48.462 164.176 0 23.736 1.978 48.462 3.956 72.198 0 6.923-1.978 10.88-7.912 11.868-11.868 7.912-11.868 7.912-8.901 21.759 7.912 18.79 7.912 18.79-8.901 25.714-6.923 2.967-13.847 6.923-21.759 10.88-8.9 4.944-10.879 2.966-13.846-5.935-1.978-2.967-1.978-6.923-3.956-10.88-1.978-2.966-1.978-4.944-2.967-6.922-7.912 3.956-14.835 6.923-21.758 12.857zm171.1-340.22c11.867 15.823 24.725 30.659 39.56 44.505 2.967-4.945 6.923-10.88 10.879-15.825-12.857-12.857-25.714-26.703-38.572-41.538-2.967 5.934-8.9 8.901-11.868 12.857zm20.768-19.781c7.913 8.9 16.814 15.824 23.737 24.725 8.9 14.835 19.78 19.78 35.604 12.857v-1.978c-13.846-15.824-28.681-31.648-42.527-48.461-5.934 3.956-10.88 6.923-16.814 12.857zm1.978 331.32c28.682 55.384 74.177 90.989 133.517 109.78 1.978-28.681 13.847-47.473 37.583-56.374 1.978-1.978 5.934-4.945 5.934-8.9v-63.298c-1.978-2.967-3.956-6.923-5.934-9.89-12.857-9.89-23.736-18.791-35.605-27.692-28.681-21.759-58.351-42.528-87.033-64.286-2.967-3.956-6.923-8.901-4.945-14.835v-66.264c0-1.978-1.978-5.934-3.956-6.923-6.923-5.935-13.846-8.902-19.78-14.836-42.528 50.44-61.32 142.418-19.78 223.518zm30.66-248.243c0 11.868 12.857 24.725 25.714 24.725 13.847 0 26.704-12.857 26.704-26.703 0-14.835-12.857-25.714-26.704-25.714-12.857 0-25.714 12.857-25.714 27.692zm41.539 98.901c1.978 2.967 3.956 8.902 6.923 10.88 23.736 19.78 48.461 37.582 72.198 55.384 6.923 6.923 15.824 12.858 25.714 17.803 0-19.78 0-37.583-1.978-55.385 0-1.978-1.978-5.934-5.934-7.912-8.901-6.923-17.802-11.868-24.725-19.78-16.814-19.78-12.858-49.451 4.945-69.232 14.835-16.813 45.494-21.758 65.275-10.879 21.758 11.868 32.637 28.682 30.659 51.429-1.978 23.736-14.835 39.56-34.615 48.462-3.957 1.978-6.924 5.934-6.924 7.912v55.385c33.627-24.726 66.264-50.44 98.902-75.165 1.978-1.978 3.956-5.935 3.956-8.902.989-18.79.989-34.615 0-52.417 0-3.956-1.978-6.923-5.934-8.901-10.88-6.924-17.802-16.814-19.78-28.682-1.978-16.813 0-32.637 14.835-43.517-59.341-37.582-153.297-37.582-208.682 0v1.979c20.769 21.758 15.824 57.362-10.88 70.22-1.977 1.978-3.955 4.945-3.955 8.9zm79.12 255.166c0 21.758 17.803 39.56 37.583 37.583 21.759 0 37.583-15.825 37.583-37.583 1.978-19.78-13.846-35.604-35.605-37.582-21.758-1.978-39.56 17.802-39.56 37.582zm14.836 81.1c0 13.845 0 13.845 15.824 13.845 0 0 1.978 0 1.978-.989v-38.571c-5.934-.99-10.879-.99-16.813-2.967 0 1.978-.99 1.978-.99 1.978zm30.66 13.845h17.802v-44.505c-5.934 1.978-8.902 3.956-14.836 3.956-1.978.989-2.967 2.967-2.967 4.945zm6.922-154.286c0 4.945 1.978 6.923 4.946 8.901 10.879 3.956 21.758 8.902 25.714 19.78 4.945 10.88 8.901 21.759 13.846 32.638 56.374-12.857 118.682-59.34 144.396-136.484 24.726-70.22 12.857-137.473-30.66-198.792-6.922 7.912-12.856 12.857-19.78 16.814-5.934 1.978-5.934 4.945-5.934 10.879v64.286c0 5.934-.989 8.9-6.923 12.857l-118.681 91.978c-4.946 2.967-6.924 6.923-6.924 13.846zm92.968-294.726c0 11.868 12.857 24.725 25.714 24.725 13.846 0 26.704-12.857 26.704-24.725 0-14.835-12.858-27.692-26.704-27.692-14.835 0-25.714 12.857-25.714 27.692zm21.758-45.495c8.901 1.978 16.813 3.956 21.758 3.956h6.924c12.857-14.835 23.736-27.692 36.593-41.538-5.934-5.934-10.88-8.901-17.802-14.835-14.835 18.79-30.66 34.615-47.473 52.417zm36.594 12.858c2.967 4.945 4.945 10.879 8.9 15.824 13.847-15.824 28.682-30.66 42.528-46.484-4.945-3.956-8.9-6.923-13.846-12.857-12.857 14.835-25.714 28.681-37.582 43.517z" style="fill:#000;fill-opacity:1;fill-rule:nonzero;stroke:none;"/>
</svg>
