<svg xmlns="http://www.w3.org/2000/svg" width="1000" height="1000">
  <path d="M968.469 652.251c-5.145-2.572-7.718-9.003-12.863-11.576-97.752-97.752-195.505-196.791-295.83-294.544-50.163-52.735-111.902-78.46-185.216-69.456-74.6 5.145-132.48 41.16-174.926 105.47-38.587 69.456-41.16 141.484-7.717 214.799 7.717 21.866 27.01 43.731 43.731 63.025a16318.246 16318.246 0 0 0 298.403 298.403c2.573 3.859 5.145 7.717 14.149 11.576-70.742 23.152-138.912 30.87-209.654 20.58-119.619-15.435-222.516-68.17-306.12-159.492C-51.505 623.955-29.64 322.98 158.15 142.908 338.22-28.159 619.903-44.88 815.408 119.756c190.36 156.919 205.796 396.156 153.06 532.495zM528.58 716.562c10.29-5.144 19.293-6.43 24.438-9.003 16.721-7.717 30.87-10.29 47.59-19.293 16.721-7.718 28.297-2.573 45.018 11.576 52.735 55.307 106.756 110.615 164.636 165.922 10.29 11.576 10.29 11.576-2.572 21.866-18.007 12.862-34.728 23.152-52.735 34.728-6.431 9.003-15.435 5.145-20.58-2.573a3871.799 3871.799 0 0 1-145.343-145.343c-19.293-16.72-38.586-37.3-60.452-57.88zm153.06-100.325c11.576-28.297 20.58-52.735 33.442-81.032 0-1.286 0-1.286 5.145-2.572 10.29 7.717 23.152 19.293 32.156 30.87a4890.433 4890.433 0 0 1 163.35 163.35c15.434 14.148 15.434 14.148 5.144 33.44-12.862 16.722-24.438 30.87-37.3 50.164-2.572 6.43-6.431 9.003-15.435 1.286-60.452-59.166-119.618-120.905-181.357-181.357-2.572-3.859-5.145-9.004-5.145-14.149z" style="fill:#000;fill-opacity:1;fill-rule:nonzero;stroke:none;"/>
</svg>
