<svg xmlns="http://www.w3.org/2000/svg" viewBox="0 0 1000 1000"><path d="M650.96 595.121V461.769c0-13.457 0-33.032 37.925-50.16 88.086-47.712 156.597-84.415 250.8-133.35 62.393 148.032 55.053 138.244 55.053 138.244-12.234 12.234-91.756 57.5-91.756 79.522 0 56.277-2.447 94.202-8.564 157.82-8.564 91.755-25.692 110.106-74.628 145.585-107.66 64.841-218.99 121.118-329.097 182.288-24.468 13.458-48.936 14.681-72.181 0-121.118-61.17-232.448-132.128-338.884-194.522C30.69 763.951 5 728.473 5 679.536 5 546.185 5 411.61 17.234 289.27c0-23.245 13.457-58.724 35.479-73.405C148.139 152.247 263.139 97.194 369.576 34.8c62.393-36.703 111.33-35.48 170.053 0 108.884 66.064 221.437 133.351 329.097 195.745-106.436 59.947-122.34 77.075-129.68 67.288-58.725-35.48-173.725-92.98-222.661-116.224-44.043-20.798-70.958-20.798-119.894 0-77.075 33.032-148.033 70.957-210.427 107.66-29.362 25.691-35.479 48.936-35.479 74.628-3.67 88.085 0 143.139 0 231.224 0 53.83 13.458 84.415 62.394 121.117 72.181 34.256 134.575 70.958 205.533 106.437 26.915 12.234 47.713 12.234 72.181 0 73.405-36.702 145.586-83.192 207.98-119.894 70.957-37.926 106.436-75.851 75.851-167.607-1.223 0-121.118 57.5-123.564 59.947z"/></svg>