<svg xmlns="http://www.w3.org/2000/svg" width="1000" height="1000">
  <path d="M5 500.496c0-90 22.747-173.077 67.253-250.22 44.506-74.177 103.846-133.517 178.023-178.023C327.419 27.747 410.496 5 500.496 5c89.011 0 172.089 22.747 249.232 67.253 74.176 44.506 133.517 103.846 178.022 178.023 44.506 77.143 67.253 160.22 67.253 249.231 0 90-22.747 173.078-67.253 250.22-44.505 74.177-103.846 133.518-178.022 178.023-77.143 44.506-160.22 67.253-249.232 67.253-90 0-173.077-22.747-250.22-67.253-74.177-44.505-133.517-103.846-178.023-178.022C27.747 672.585 5 589.508 5 500.496zm155.275-14.835c-29.67 45.495-25.714 88.022 12.857 124.616 20.77 16.813 46.484 33.626 70.22 41.538 63.297 24.726 129.561 34.616 195.825 37.583 73.187 0 233.408-35.605 302.639-70.22 42.527-21.758 76.154-45.495 105.824-84.066 33.627-45.495 29.67-91.979-12.857-128.572-29.67-29.67-66.264-46.484-104.836-53.407-73.187-20.77-149.34-26.703-228.462-16.813-79.121 2.967-162.198 23.736-233.407 62.308-40.55 20.769-83.077 44.505-107.803 87.033zm36.594 200.77c3.956 40.55 33.626 70.22 80.11 77.143 49.45 12.857 95.934 0 145.385-16.813 33.627-9.89 65.275-23.737 98.901-39.56v-5.935c-111.758 8.901-219.56 5.934-324.396-40.55zm125.605-100.88c-17.803-64.286 19.78-89.01 84.066-104.835 15.824-3.956 36.593-2.967 54.396-7.912 19.78-2.967 18.79-19.78 2.967-19.78-50.44 0-60.33-4.946-103.847 2.966 3.956-45.494 0-45.494 46.484-53.406 24.725-3.956 54.396-3.956 78.132 0 18.791 2.967 29.67 11.868 50.44 23.736 25.714-19.78 52.417-33.626 91.978-33.626 33.626 0 64.286 17.802 66.264 42.527 3.956 37.583-8.901 71.21-36.594 84.066-33.626 11.869-67.253 20.77-95.934 20.77h-21.758c-3.956 15.824 0 24.725 15.824 24.725 49.45 0 57.363-.989 101.868-12.857-2.967 26.703-1.978 58.352-21.758 58.352-97.912 8.9-114.726 0-162.198-20.77-21.759 17.803-50.44 29.67-88.023 29.67-33.626 0-54.395-11.867-62.307-33.626zm3.956 207.693c0 6.923.989 7.912 3.956 12.858 29.67 54.395 84.066 67.253 142.418 36.593 62.308-36.593 103.846-90 137.473-153.297v-2.967c-12.857 2.967-25.715 2.967-37.583 10.879-75.165 46.484-154.286 84.066-246.264 95.934zm71.209-466.814s-8.901 9.89 2.967 9.89c99.89-56.374 182.967-92.968 242.308-104.836 17.802-1.978 24.726-2.967 41.539-7.912 0-52.418-86.044-79.121-145.385-50.44-62.308 32.638-104.836 91.979-141.43 153.298zm11.868 200.77c-20.77 10.879-21.758 41.538 8.901 41.538 28.681 0 45.495-16.813 45.495-49.45-13.847-1.979-37.583-3.957-54.396 7.912zm78.132-212.639c113.737-8.9 221.54-3.956 326.375 41.54 3.956-50.44-24.726-95.935-79.121-102.858-50.44-13.847-95.935 0-147.364 15.824-32.637 11.868-66.264 23.736-99.89 41.538zm60.33 183.957c19.78-2.967 36.593-4.945 53.407-8.901 8.9-3.956 15.824-16.813 15.824-29.67 0-9.89-4.945-14.836-15.824-18.792-28.682-7.912-58.352 24.726-53.407 57.363z" style="fill:#000;fill-opacity:1;fill-rule:nonzero;stroke:none;"/>
</svg>
