<svg xmlns="http://www.w3.org/2000/svg" viewBox="0 0 1000 1000"><path d="M316.76 610.465c19.107-90.76 38.214-175.55 58.516-261.532 4.777-23.885 11.942-35.827 44.186-35.827 27.466 4.777 51.35 4.777 78.818 0 19.107 0 25.078 4.777 32.243 32.244 19.108 82.4 40.603 162.413 59.71 246.007 0 7.166 7.166 14.33 7.166 27.467 4.777-27.467 11.942-40.603 16.719-52.545 20.302-78.818 40.603-150.47 59.71-220.929 7.166-20.302 14.331-32.244 38.215-32.244 32.244 4.777 59.71 0 91.954 4.777 8.36 0 27.467 7.165 27.467 19.108 51.351 176.743 96.731 345.126 150.47 523.064 0 7.165 0 19.107-7.164 23.884-27.467 35.826-51.351 74.041-83.595 111.062C844.6 832.587 799.22 677.34 752.646 519.705c-19.107 78.818-44.185 150.47-59.71 229.288-4.777 25.079-19.108 32.244-44.186 32.244h-85.983c-32.244 5.97-45.38-13.136-51.351-39.41-20.302-64.486-40.603-136.14-59.71-206.598-4.778 23.885-13.137 42.992-19.108 63.294-13.136 51.35-25.078 103.896-37.02 158.83-8.36 16.719-15.525 23.884-35.827 23.884H257.05c-27.467 0-32.244-7.165-39.409-32.244-58.516-189.88-123.004-384.536-182.714-581.58C7.459 83.818 7.459 83.818 81.5 24.107 86.277 18.137 99.413 12.165 113.744 5c64.487 201.822 130.169 403.643 187.49 605.465z"/></svg>