<svg xmlns="http://www.w3.org/2000/svg" width="1000" height="1000">
  <path d="M5 851.972V393.78c0-54.577 19.038-95.192 68.538-129.461C190.307 188.166 307.076 113.282 421.306 32.05c48.23-34.27 102.808-35.538 156.115 0l350.307 232.27c46.961 31.73 67.269 74.884 67.269 129.46v464.538c0 82.5-55.846 135.807-135.807 135.807h-48.231c-96.461-34.269-165-93.922-184.038-196.73-15.23-40.615-15.23-68.538 26.654-96.461 54.577-46.962 68.538-109.154 40.615-177.692-20.308-60.923-74.884-107.884-143.423-107.884H393.383c-40.615 0-68.538 26.653-68.538 68.538v491.191c0 5.077 0 13.961 7.615 19.038H147.153C53.23 994.125 5 945.895 5 851.972z" style="fill:#000;fill-opacity:1;fill-rule:nonzero;stroke:none;"/>
</svg>
