<svg xmlns="http://www.w3.org/2000/svg" width="1000" height="1000">
  <path d="M722.338 406.861h-7.454c-2.484-2.485-9.938-9.938-11.18-12.423-75.78-73.294-160.254-104.351-263.363-94.413-99.383 9.938-177.646 58.387-231.064 145.347-48.45 73.294-62.114 152.8-50.934 239.76 6.212 77.02 33.542 145.346 85.718 198.764 80.748 88.202 185.1 119.26 299.389 109.32 171.434-18.632 289.45-139.133 301.874-339.14V59.023c-2.485-27.33-22.361-45.965-50.934-53.418-38.51-4.97-72.052 21.119-72.052 62.114v318.023zm-447.22 273.302c-11.18-121.744 36.026-204.977 122.985-248.456 134.166-68.326 295.663 9.938 324.235 166.465 12.423 80.748-4.969 152.8-58.387 213.672-55.903 60.872-127.955 83.233-209.945 67.083-113.048-18.634-166.466-104.351-178.888-198.764z" style="fill:#000;fill-opacity:1;fill-rule:nonzero;stroke:none;"/>
</svg>
