<svg xmlns="http://www.w3.org/2000/svg" viewBox="0 0 1000 1000"><path d="M286.11 805.045H5V195.973h281.11c-49.907 34.63-88.61 78.426-115.092 130.37-27.5 53.981-43.796 112.037-43.796 174.166 0 63.148 14.26 120.185 43.796 174.166 28.518 51.944 65.185 96.76 115.092 130.37zm-81.48-230.184c-13.24-52.963-13.24-106.944 2.037-159.907 14.26-50.926 40.74-95.74 78.426-132.407 39.722-37.685 84.536-66.204 139.536-78.426 23.426-5.092 49.908-9.166 75.37-9.166 44.815 0 89.63 10.185 129.352 29.536 39.722 19.352 75.37 44.815 103.888 79.445 28.519 33.61 50.926 74.351 61.111 120.184 12.222 53.982 13.241 106.945-2.037 159.907-14.259 49.908-40.74 94.722-79.444 132.407-39.722 38.704-84.537 65.185-137.5 78.426-53.98 13.24-106.944 12.222-159.906-2.037-50.926-13.24-95.74-40.74-133.426-79.444-38.703-39.722-64.166-85.556-77.407-138.518zm129.35-176.203 10.186 38.703 20.37-5.092c11.204-3.056 18.333-3.056 22.407 0 2.037 2.037 4.074 3.055 5.093 5.092 1.018 2.037 3.055 5.093 4.074 10.185l38.703 151.76c1.019 5.092 1.019 7.129-1.018 10.184-2.037 3.056-6.111 6.111-12.222 8.148l-22.408 5.093 4.074 44.815 71.297-17.315 14.259 58.055 36.666-9.166-14.259-59.074 27.5-7.13 15.278 59.074 36.666-10.185-15.277-58.056c9.166-3.055 18.333-6.11 22.407-8.148h1.018c21.39-9.166 38.704-20.37 49.908-33.61 8.148-10.186 13.24-20.371 14.259-34.63 1.018-10.185 0-21.389-3.056-36.667-4.074-21.389-16.296-36.666-34.63-43.796-6.11-3.055-12.221-5.092-21.388-6.111h-11.204c8.148-8.148 13.241-15.278 16.297-22.407 4.074-8.148 5.092-20.37 3.055-31.574-2.037-8.148-5.092-15.278-8.148-22.408-7.13-12.222-16.296-20.37-27.5-25.463-18.333-8.148-41.759-8.148-69.259-2.037l-16.296-60.092-36.667 9.167 16.296 58.055-28.518 7.13-15.278-58.056L390 322.27l15.278 58.055zm118.148 14.259c9.167-3.056 16.296-5.093 23.426-7.13 12.222-3.055 22.407-4.074 31.574-4.074h6.111c7.13 1.019 14.26 3.056 20.37 7.13 5.093 4.074 8.149 8.148 10.186 15.277 4.074 13.241 3.055 23.426-6.112 31.574-10.185 9.167-21.388 15.278-37.685 19.352l-29.537 8.148zm28.519 106.944c14.259-5.093 28.518-9.167 39.722-11.204 9.166-1.018 17.314-2.037 26.481-2.037 7.13 0 11.204 0 16.296 1.019 14.26 3.055 23.426 11.203 27.5 23.426 3.056 8.148 2.037 15.277-1.018 21.388-3.056 5.093-6.111 9.167-11.204 14.26-8.148 7.13-20.37 14.259-39.722 19.351l-38.704 11.204zM711.85 805.045c50.925-33.61 88.61-78.426 116.11-130.37 28.519-53.981 43.796-111.018 43.796-174.166 0-62.13-14.259-120.185-43.796-174.166-28.518-51.944-65.185-95.74-116.11-130.37h283.147v609.072z"/></svg>