<svg xmlns="http://www.w3.org/2000/svg" viewBox="0 0 1000 1000"><path d="M289,2,87,204H251C273,124,359,17,385,2ZM483,204V2H437C351.4,63.6,302.7,162.3,289,204Zm39,0H718C672.4,95.2,598.3,24,567,2H522Zm234,0H915L711,2H621C685.8,61.2,731,144,756,204Zm-43,796L915,798H751c-22,80-108,187-134,202ZM519,798v202h46c85.6-61.6,134.3-160.3,148-202Zm-39,0H284c45.6,108.8,119.7,180,151,202h45Zm-234,0H87l204,202h90C316.2,940.8,271,858,246,798ZM420.9,584.5q0,37.05-10.4,67c-6.9,19.5-16.5,36.2-28.6,50a125.92,125.92,0,0,1-43.5,31.2,144.67,144.67,0,0,1-55.2,10.4q-30.6,0-55.9-10.4a127.26,127.26,0,0,1-43.6-31.2c-12.1-13.4-21.7-29.9-28.6-49.4q-9.75-29.25-9.8-65.7c0-25.1,3.2-48.5,9.8-70.2a394.36,394.36,0,0,1,26.6-64.3l91-178.1h85.1L264.2,449.3l.6.6a46.7,46.7,0,0,1,18.2-9.8,81.4,81.4,0,0,1,22.1-3.2,106.38,106.38,0,0,1,43.5,9.1,93,93,0,0,1,37,26.6q16.2,17.55,25.4,45.5Q420.9,546.15,420.9,584.5Zm-74.1-.6q0-40.35-15.6-66.3t-46.8-26a50.14,50.14,0,0,0-26.6,7.1,63.54,63.54,0,0,0-20.1,20.2,95.25,95.25,0,0,0-13,29.2,143.63,143.63,0,0,0-4.6,37q0,42.3,16.9,68.2,17,25.35,46.8,25.3t46.1-26C341.1,635,346.8,612,346.8,583.9ZM745.9,734,615.2,409h-1.9l1.3,325H544.4V273.8h89L762.8,600.7h1.9l-.6-326.9h67.6V734Z"/></svg>