<svg xmlns="http://www.w3.org/2000/svg" width="1000" height="1000">
  <path d="M5 501.948c0-276.732 222.165-495 501.495-495 268.936 0 488.502 218.268 488.502 495 0 267.637-219.566 491.1-488.502 491.1C229.763 993.049 5 776.082 5 501.949zm44.173 0C37.48 750.097 262.243 957.97 499.999 954.072c254.645 0 452.124-196.18 461.219-449.526 2.598-223.464-170.196-462.519-461.22-462.519-288.424 0-462.518 239.055-450.825 459.92zm28.583 2.598c0-176.692 83.149-310.511 250.747-389.763 126.023-62.362 253.346-50.669 380.668 18.19-118.228 0-171.495 72.755-223.464 158.503-15.59 29.881-31.18 40.275-66.26 40.275h-9.094c-25.984 0-45.472 6.496-45.472 32.48 0 24.685 19.488 29.882 38.976 35.079 20.787 0 40.276-5.197 40.276 19.488 0 31.181-24.685 24.685-40.276 24.685-19.488 6.496-36.378 6.496-50.669 11.693-10.394 3.898-24.685 20.787-20.787 25.984 0 12.992 10.393 31.181 20.787 31.181 20.787 9.095 38.976 9.095 66.26 14.292-19.488 85.747-41.575 167.598-66.26 253.345-76.653-45.472-102.638-40.275-131.22 36.378-92.244-81.85-144.212-187.086-144.212-311.81zm215.668 358.582c120.827-7.796 176.693-83.15 213.07-184.488 10.394-38.976 23.386-75.354 35.08-115.63 6.495-32.48 14.29-46.771 46.77-46.771 10.395 0 19.489 0 29.883-3.898 9.094-7.795 19.488-20.787 19.488-31.18 0-11.694-10.394-22.087-19.488-25.985-16.89-11.693-29.882-11.693-40.276-11.693-3.897-28.582 3.898-44.173 35.079-44.173 5.197 0 14.291 0 20.787-5.197 20.788 0 40.276-5.197 40.276-29.882 0-20.787-14.292-32.48-36.378-32.48-10.394 0-19.488-3.897-36.378-3.897 11.693-46.772 25.984-85.748 62.362-126.024 15.59 35.079 25.984 68.858 71.457 54.567 40.275-10.394 40.275-41.575 35.078-80.551 146.81 105.236 240.354 376.77 55.866 600.235-132.52 162.4-385.865 198.779-532.676 87.047z" style="fill:#000;fill-opacity:1;fill-rule:nonzero;stroke:none;"/>
</svg>
