<svg width="1000" height="1000" viewBox="0 0 1000 1000" fill="none" xmlns="http://www.w3.org/2000/svg">
<path d="M713 1000L915 798L751 798C729 878 643 985 617 1000L713 1000Z" fill="black"/>
<path d="M519 798L519 1000L565 1000C650.6 938.4 699.333 839.667 713 798L519 798Z" fill="black"/>
<path d="M480 798L284 798C329.6 906.8 403.667 978 435 1000L480 1000L480 798Z" fill="black"/>
<path d="M246 798L87 798L291 1000L381 1000C316.2 940.8 271 858 246 798Z" fill="black"/>
<path d="M289 2L87 204H251C273 124 359 17 385 2H289Z" fill="black"/>
<path d="M483 204V2H437C351.4 63.6 302.667 162.333 289 204H483Z" fill="black"/>
<path d="M522 204H718C672.4 95.2 598.333 24 567 2H522V204Z" fill="black"/>
<path d="M756 204H915L711 2H621C685.8 61.2 731 144 756 204Z" fill="black"/>
<path d="M232.751 734V273.8H438.801V342.7H307.501V464.9H429.051V528.6H307.501V664.45H445.301V734H232.751Z" fill="black"/>
<path d="M748.556 362.85C731.656 342.483 710.423 332.3 684.856 332.3C677.49 332.3 670.34 333.6 663.406 336.2C656.473 338.366 650.19 342.05 644.556 347.25C638.923 352.45 634.373 359.166 630.906 367.4C627.873 375.633 626.356 385.383 626.356 396.65C626.356 416.15 632.206 431.316 643.906 442.15C655.606 452.55 670.99 462.516 690.056 472.05C701.323 477.683 712.806 484.183 724.506 491.55C736.206 498.916 746.823 507.8 756.356 518.2C765.89 528.6 773.69 540.95 779.756 555.25C785.823 569.55 788.857 586.45 788.857 605.95C788.857 628.483 785.173 648.416 777.806 665.75C770.873 683.083 761.34 697.816 749.206 709.95C737.506 721.65 723.64 730.533 707.606 736.6C691.573 742.666 674.673 745.7 656.906 745.7C631.34 745.7 607.723 740.716 586.056 730.75C564.39 720.783 547.056 708.216 534.056 693.05L576.306 635.85C586.273 647.983 598.19 657.516 612.056 664.45C626.356 671.383 640.873 674.85 655.606 674.85C672.073 674.85 685.723 669.216 696.556 657.95C707.39 646.683 712.806 630.866 712.806 610.5C712.806 590.566 706.306 574.75 693.306 563.05C680.306 551.35 663.84 540.516 643.906 530.55C631.34 524.483 619.423 517.766 608.156 510.4C597.323 503.033 587.573 494.366 578.906 484.4C570.673 474 563.956 462.083 558.756 448.65C553.99 434.783 551.606 418.316 551.606 399.25C551.606 375.416 555.29 355.05 562.656 338.15C570.456 320.816 580.423 306.516 592.556 295.25C605.123 283.983 619.206 275.75 634.806 270.55C650.406 264.916 666.223 262.1 682.256 262.1C705.656 262.1 726.456 266 744.656 273.8C763.29 281.166 778.89 292.216 791.456 306.95L748.556 362.85Z" fill="black"/>
</svg>
