<svg xmlns="http://www.w3.org/2000/svg" viewBox="0 0 1000 1000"><path d="M484.778 990.64 43.333 725.52C189.213 485.77 477.167 5 477.167 7.537v405.927c0 19.027-3.806 25.37-20.297 32.981-34.25 16.49-49.472 54.546-38.055 95.14 11.416 34.25 45.666 58.351 81.185 58.351 36.787-2.537 69.769-27.907 78.648-59.62 8.88-41.862-7.61-77.38-43.13-93.87-11.416-7.612-13.953-13.955-13.953-26.64V5C583.722 106.482 643.343 207.963 705.5 310.713c83.723 138.27 166.176 275.27 251.167 414.807L513.954 986.835c-11.417 10.148-19.028 10.148-29.176 3.805z"/></svg>