<svg xmlns="http://www.w3.org/2000/svg" width="1000" height="1000">
  <path d="M177.394 983.592v-576.76H54.437c-7.606 0-12.676-3.804-12.676-11.41V354.86c0-6.338 5.07-10.14 12.676-10.14h116.62v-81.127H54.436c-7.606 0-12.676-3.803-12.676-10.141V206.55c0-8.873 5.07-13.943 12.676-13.943h116.62V18.944c0-6.338 5.07-13.944 11.408-13.944 197.746 0 278.873 2.535 380.282 6.338 114.084 2.535 200.282 50.704 250.986 166.056 3.803 8.874 7.606 13.944 20.282 13.944 36.76 0 76.056 1.268 112.817 1.268 7.605 0 11.408 3.803 11.408 13.943v41.831c0 8.874-3.803 12.677-11.408 12.677H828.944v83.662h112.817c7.606 0 11.409 2.535 11.409 10.14v45.634c0 7.606-3.803 11.409-11.409 11.409H837.817c-29.155 0-29.155 0-36.76 21.549-40.564 97.606-117.888 139.437-218.028 155.916-62.113 6.338-125.494 6.338-182.536 8.873h-92.535v385.352c0 6.338-5.07 11.409-11.409 11.409H187.535c-7.605 0-10.14-5.07-10.14-11.409zm130.564-503.24c180 0 297.887 3.803 358.733-68.45H307.958zm0-135.633H635c48.17 0 62.113 0 62.113-81.127H307.958zm0-158.451H671.76c-25.352-30.423-54.507-60.845-91.268-60.845-74.788 0-149.577-1.268-220.563-1.268h-51.972z" style="fill:#000;fill-opacity:1;fill-rule:nonzero;stroke:none;"/>
</svg>
