<?xml version="1.0" encoding="UTF-8"?><svg id="a" xmlns="http://www.w3.org/2000/svg" viewBox="0 0 1000 1000"><path d="M500,0C223.858,0,0,223.858,0,500s223.858,500,500,500,500-223.857,500-500S776.142,0,500,0Zm169.642,559.408c1.85-.925,4.163-.231,5.089,1.388l33.075,62.681c.898,1.617,.938,3.508,.27,5.249l.193-.161c-.045,.09-.099,.21-.146,.313l.377-.313c-.231,.463-.462,1.156-.925,1.619l-8.327,11.102-.211,.164-159.844,216.79c-.116,.175-.277,.261-.444,.282h-.002c-.153,.019-.311-.021-.448-.095-.347-.161-.617-.513-.495-.88l34.925-114.49c.231-.694,.463-1.156,.463-1.85l.13-.108c.042-1.174-.227-2.317-.824-3.361l-45.177-80.606-111.872,157.858c-.925,2.082-4.163,2.775-6.014,1.156l-115.647-146.64c-2.776-2.313-3.007-6.245-.925-8.789l151.831-187.708-114.13,58.878c-1.85,.925-4.163,.231-5.089-1.388l-33.306-62.681c-.898-1.617-.938-3.507-.27-5.249l-.193,.16c.231-.463,.463-1.156,.925-1.619L485.532,193.733c.357-.535,1.111-.377,1.338,.04,.218,.159,.373,.377,.281,.654l-59.674,153.81c-.231,.694-.463,1.156-.463,1.85l-.13,.108c-.042,1.174,.227,2.318,.824,3.361l46.498,82.964,88.809-109.794c.925-1.156,1.388-2.544,1.388-3.932V142.848c.231-1.619,2.544-1.85,3.007-.463l140.627,254.423c.694,1.619,.694,3.469,0,5.32l-153.569,216.697,115.174-59.417Z"/></svg>