<svg xmlns="http://www.w3.org/2000/svg" viewBox="0 0 1000 1000"><path d="M579.064,537.207c-49.793,34.357-103.5,72.258-158.128,106.155V464.122c49.9-34.432,103.548-72.42,158.128-106.372ZM1000,500c0,276.142-223.858,500-500,500S0,776.142,0,500,223.858,0,500,0,1000,223.858,1000,500ZM863.431,546.509V272.772c0-11.959-5.315-15.945-17.274-15.945C763.175,256,669.83,301.289,579.064,357.75v-136.8C447.512,311.308,282.738,440.2,153.843,438.874c-11.959,0-17.274,5.316-17.274,15.946V728.557c0,11.958,5.315,15.945,17.274,15.945,82.258.831,175.944-44.578,267.093-101.14V779.051c131.552-90.359,296.326-219.254,425.221-216.6C858.116,562.455,863.431,557.139,863.431,546.509Z"/></svg>