<?xml version="1.0" encoding="UTF-8"?><svg id="a" xmlns="http://www.w3.org/2000/svg" viewBox="0 0 1000 1000"><path d="M500,0C223.858,0,0,223.858,0,500s223.858,500,500,500,500-223.857,500-500S776.142,0,500,0Zm345.41,274.021c13.776,21.012,25.696,43.347,35.506,66.789-103.662,32.478-95.669,56.489-95.669,56.489,23.771,6.792,45.843-1.698,63.684-3.396,11.985-1.141,36.653,3.08,51.568,5.975,7.006,28.109,11.135,57.353,12.046,87.41h-216.979l99.417-220.101c13.584-.138,32.79,3.08,50.427,6.834ZM243.591,176.568c17.536,9.59,44.836,17.523,86.619,15.285,95.082-5.094,202.05-14.899,191.862-21.033-10.187-6.134-117.155-40.091-146.019-50.279-7.088-2.502-13.242-5.23-18.437-8.057,44.383-16.312,92.342-25.222,142.384-25.222,96.372,0,185.026,33.032,255.268,88.387l-39.035,90.276c-30.434,23.009-61.632,44.23-85.495,54.968-.857,9.425,32.444-.761,68.046-14.614l-19.534,45.176H317.799l-9.548-21.521c6.204-2.369,10.074-3.947,10.074-3.947,0,0,64.52,5.094,67.916-8.49,3.396-13.583-40.249-5.878-69.614-20.375-7.504-3.704-16.767-6.175-26.398-7.809l-49.13-110.738c.83-.67,1.657-1.344,2.492-2.007Zm407.027,241.105l-30.101,69.614h-242.455l-30.885-69.614h303.441ZM186.695,231.318l25.663,56.431c-7.679,.019-17.302-.295-28.168-1.413-10.467-1.078-20.171-7.29-28.154-14.514,9.398-14.137,19.637-27.665,30.659-40.504Zm-95.976,214.971c12.829-14.914,32.798-35.868,56.117-52.386,40.75-28.864,52.635-47.477,74.708-42.448,4.574,1.042,11.426,.544,19.386-.877l62.171,136.709H87.455c.42-13.848,1.513-27.526,3.265-40.998Zm-2.942,74.956h230.767l178.038,391.492c-219.279-1.782-397.816-174.523-408.805-391.492Zm305.35,0h212.706l-104.985,242.799-107.721-242.799Zm110.266,391.492l176.833-391.492h231.995c-10.99,216.976-189.539,389.723-408.829,391.492Z"/></svg>