<svg xmlns="http://www.w3.org/2000/svg" viewBox="0 0 1000 1000"><path d="M500.496 995.003c275.935 0 494.507-224.506 494.507-495.496C995.003 226.54 773.464 5 500.496 5 223.572 5 5 229.506 5 499.507c0 276.924 224.506 495.496 495.496 495.496zM156.32 735.882c57.363-100.88 116.704-201.76 175.056-301.65 1.978 99.89.989 200.77 0 301.65zm248.243-191.87V317.529c0-4.945 0-10.879 3.956-15.824 30.66-55.385 63.297-109.78 94.945-164.176 31.649 53.407 62.308 107.802 92.968 161.21 4.945 5.933 6.923 14.834 6.923 22.747v192.857c-43.517-15.824-90.99-17.802-135.495-3.956-22.748 7.912-43.517 18.792-63.297 33.627zm4.945 111.76c10.879-44.506 50.44-80.11 95.934-87.034 32.638-5.934 67.253 1.978 95.935 18.791.989 49.451-.99 98.902 1.978 148.353-64.286.989-127.583 0-191.87 0-5.933-26.704-9.89-54.396-1.977-80.11zm265.056 81.099c-.99-100.88-.99-201.76 0-301.65 59.34 98.902 116.703 200.77 174.066 301.65-57.363 0-116.703-.99-174.066 0z"/></svg>