<?xml version="1.0" encoding="utf-8"?>
<!-- Generator: Adobe Illustrator 26.0.1, SVG Export Plug-In . SVG Version: 6.00 Build 0)  -->
<svg version="1.1" id="Layer_1" xmlns="http://www.w3.org/2000/svg" xmlns:xlink="http://www.w3.org/1999/xlink" x="0px" y="0px"
	 viewBox="0 0 1000 1000" style="enable-background:new 0 0 1000 1000;" xml:space="preserve">
<style type="text/css">
	.st0{fill-rule:evenodd;clip-rule:evenodd;}
</style>
<path class="st0" d="M385.9,7.6h-94.7L91.8,206.9h161.8C275.3,128,360.2,22.4,385.9,7.6z M908.8,206.9L707.5,7.6h-88.8
	C682.7,66,727.3,147.7,752,206.9H908.8z M91.8,793.1l201.3,199.3h88.8C318,934,273.4,852.3,248.7,793.1H91.8z M565.4,7.6H521v199.3
	h193.4C669.5,99.6,596.4,29.3,565.4,7.6z M482.6,206.9V7.6h-45.4c-84.5,60.8-132.6,158.2-146,199.3L482.6,206.9L482.6,206.9z
	 M518.1,793.1v199.3h45.4c84.5-60.8,132.6-158.2,146-199.3H518.1z M435.2,992.4h44.4V793.1H286.2
	C331.2,900.4,404.3,970.7,435.2,992.4z M614.8,992.4h94.7l199.3-199.3H747C725.3,872,640.4,977.6,614.8,992.4z M257.6,319.8h112.2
	c11,0,22,1.3,32.8,3.8c10.8,2.5,20.9,6.8,30.1,13c9.2,6.2,16.8,13.9,22.8,23.3c6,9.4,10.2,19.4,12.5,30.1
	c2.3,10.7,3.5,21.5,3.5,32.6c0,33.1-12.2,57.4-36.6,73.1c34.7,15.7,52.1,43.4,52.1,83.1c0,12.4-1.5,24.5-4.5,36.3
	c-3,11.9-8.2,22.7-15.5,32.6c-7.3,9.9-16.4,17.9-27,24c-10.7,6.2-22,10.4-33.8,12.8c-11.9,2.3-24,3.5-36.3,3.5H257.6V319.8z
	 M387,466.3c5.5-2.2,10-5.7,13.5-10.5c3.5-4.8,5.9-10.1,7.3-15.8c1.3-5.7,2-11.5,2-17.5c0-5.7-0.7-11.4-2-17.3
	c-1.3-5.8-3.8-11.1-7.3-15.8c-3.5-4.7-8-8.2-13.5-10.5c-5.5-2.3-11.3-3.5-17.3-3.5h-50.6v94.2h50.6
	C375.8,469.5,381.5,468.5,387,466.3z M369.8,632.3c7.3,0,14.6-1,21.8-3c7.2-2,13.4-5.6,18.8-10.8c5.3-5.2,9.2-11.3,11.5-18.3
	c2.3-7,3.5-14.2,3.5-21.5c0-7.3-1.2-14.5-3.5-21.5c-2.3-7-6.2-13-11.5-18c-5.3-5-11.6-8.5-18.8-10.5c-7.2-2-14.4-3-21.8-3h-50.6
	v106.7H369.8z M555.1,319.8h61.6V473l91.7-153.3h70.1L673.8,487.6l104.7,200.3h-68.6l-73.1-140.7l-20,32.1v108.7h-61.6V319.8z"/>
</svg>
