<svg xmlns="http://www.w3.org/2000/svg" viewBox="0 0 1000 1000"><path d="M139.135 783.307v-212.45c2.374-72.4 4.748-142.426 2.374-214.825-5.934-170.91 131.743-300.28 256.365-335.886 149.547-43.915 310.962 9.495 398.79 136.49C943.838 371.462 825.15 664.62 571.159 713.282c-30.859 8.309-36.793 18.99-39.167 47.476-2.373 56.97-2.373 113.94-39.167 160.228-46.288 56.97-103.258 80.707-173.284 72.4-116.313-15.43-180.405-92.577-180.405-210.078zm116.314-440.33c-2.374 157.854 0 319.269 2.374 477.123 0 15.43 4.747 30.86 13.056 41.541 15.429 30.859 48.661 41.54 79.52 33.233 32.046-10.682 52.223-35.607 52.223-74.774 2.374-150.733 2.374-297.906 4.747-448.639 0-13.056 0-28.485 3.56-41.54 9.496-48.662 61.719-79.521 113.941-66.466 46.288 13.056 74.773 66.465 59.344 113.94-15.43 48.662-54.596 66.466-103.258 64.092-10.682 43.914-18.99 85.455-28.485 126.996-5.935 21.363 4.747 26.11 22.55 28.485 137.678 13.055 256.366-90.203 267.047-230.254 10.682-129.37-96.137-251.618-227.88-256.366-137.677-8.308-256.365 96.137-258.739 232.628z"/></svg>