<svg xmlns="http://www.w3.org/2000/svg" viewBox="0 0 1000 1000"><path d="M5 967.539c50.69 19.149 87.862 0 116.022-33.793 33.793-45.057 75.471-60.827 136.299-56.322 39.425 4.506 83.355 4.506 129.539 4.506 33.793 0 60.827-15.77 87.862-41.678 72.091-69.839 143.056-141.93 214.021-214.022 83.356-78.85 170.091-158.826 248.942-244.435 113.77-122.781 48.436-316.527-110.39-352.573-84.483-16.896-150.942 16.896-209.517 73.218-137.424 131.792-266.964 271.47-405.515 398.756-61.953 52.943-90.114 113.77-78.85 191.494C153.69 812.09 103 908.964 5 967.539zm191.493-194.873c-38.298-117.149-13.517-179.102 82.23-255.7 23.655 159.954 18.023 171.218-82.23 255.7zm48.437 50.69c60.827-98 138.55-125.034 248.94-85.61-52.941 111.518-153.194 88.989-248.94 85.61zm95.746-197.126c-30.413-132.919-11.264-185.86 95.747-256.826 27.034 138.551 9.011 184.735-95.747 256.826zm50.69 50.69c54.068-116.023 155.447-107.011 257.952-98-67.585 103.632-134.045 130.666-257.952 98zm98-197.126c-23.656-113.77-4.506-217.4 107.01-271.47 29.287 129.54 11.264 182.482-107.01 271.47zm57.447 46.184c70.965-107.011 102.505-121.655 266.964-107.011-58.574 101.379-131.792 130.666-266.964 107.01zM649.318 319.84V161.014c0-9.011 9.012-24.781 16.897-32.666 48.436-54.069 138.55-63.08 205.01-21.402 60.827 45.057 88.988 123.907 56.322 190.366-15.77 49.563-48.437 76.598-105.885 76.598-42.804 2.253-78.85 0-113.77 0-14.643 0-11.264-7.885-4.505-16.897 22.529-28.16 57.448-54.068 82.23-86.735 14.643-11.264 28.16-47.31 23.655-51.816-27.035-32.666-43.931 0-57.448 15.77-31.54 28.161-58.575 63.08-85.61 94.62-7.884 7.886-18.022 2.253-16.896-9.01z"/></svg>