<svg xmlns="http://www.w3.org/2000/svg" viewBox="0 0 1000 1000"><path d="M538 635.926c38.205-9.552 71.635-26.267 102.677-50.146 51.34-38.205 89.545-87.156 111.036-146.853 7.163-15.521 9.551-33.43 16.715-52.533 4.776 2.388 10.745 4.776 15.521 8.358 70.442 41.787 118.199 99.096 143.272 173.12 15.52 42.981 21.49 85.962 16.715 130.138-4.776 59.696-22.685 112.23-56.115 158.792-35.818 50.146-79.993 85.963-133.72 109.842-38.206 17.909-76.412 27.46-118.2 27.46a11367.139 11367.139 0 0 1-285.349 0c-56.114 0-105.065-42.981-115.81-91.932-3.582-13.133-7.164-26.267-7.164-38.206V649.06h-48.951c-57.309-1.194-108.648-44.176-119.393-93.127-1.194-13.133-4.776-26.266-4.776-40.593V135.67c0-54.92 34.624-102.678 81.187-120.587 13.133-4.776 28.654-9.551 42.982-9.551 93.126 0 188.64-1.194 282.96 0 64.473 1.194 125.364 23.878 179.09 62.084 46.564 33.43 81.188 77.605 103.872 130.138 25.073 56.115 33.43 114.618 25.073 176.702-1.194 1.194-1.194 2.388-1.194 4.776-2.388 1.194-2.388 1.194-3.582 4.775-5.97-3.581-14.327-4.775-20.297-8.357-38.205-15.521-79.993-23.879-120.587-23.879H357.716c-57.309 0-97.902 28.655-120.587 81.187-5.97 14.328-9.551 29.849-9.551 46.564V649.06c81.187 0 162.374 0 242.367-1.194 20.297 0 40.594-7.164 60.89-11.94z"/></svg>