<?xml version="1.0" encoding="utf-8"?>
<!-- Generator: Adobe Illustrator 26.0.1, SVG Export Plug-In . SVG Version: 6.00 Build 0)  -->
<svg version="1.1" xmlns="http://www.w3.org/2000/svg" xmlns:xlink="http://www.w3.org/1999/xlink" x="0px" y="0px"
	 viewBox="0 0 1000 1000" style="enable-background:new 0 0 1000 1000;" xml:space="preserve">
<style type="text/css">
	.st0{fill-rule:evenodd;clip-rule:evenodd;}
</style>
<g id="Layer_1">
</g>
<g id="Layer_3">
</g>
<g id="Layer_2">
	<path class="st0" d="M315.8,11H0v302.6h114v39.5h118.4v39.5h109.6v35.1h35.1v35.1h35.1v35.1h35.1v35.1h35.1V568h35.1v35.1h35.1
		v35.1h35.1v35.1h35.1v35.1h35.1v35.1H693v35.1h35.1v35.1h35.1v35.1h35.1v35.1h35.1v35.1h35.1v35.1h35.1V989h96.5v-96.5h-35.1v-35.1
		h-35.1v-35.1h-35.1v-35.1h-35.1v-35.1h-35.1v-35.1h-35.1V682h-35.1v-35.1h-35.1v-35.1h-35.1v-35.1h-35.1v-35.1H614v-35.1h-35.1
		v-35.1h-35.1v-35.1h-35.1v-35.1h-35.1v-35.1h-35.1v-35.1h-39.5V221.5h-43.9v-114h-39.5V11z"/>
</g>
</svg>
