<svg xmlns="http://www.w3.org/2000/svg" viewBox="0 0 1000 1000"><path d="M5 500.01v.387-.395c.099-89.506 22.45-172.682 67.253-249.726 44.209-74.473 103.55-133.814 178.023-178.023C327.419 27.45 410.694 5 500.002 5c89.308 0 172.583 22.45 249.726 67.253C824.2 116.462 883.54 175.803 927.75 250.276c44.803 77.143 67.253 160.418 67.253 249.726 0 89.308-22.45 172.583-67.253 249.726C883.541 824.2 824.2 883.54 749.728 927.75c-77.143 44.803-160.418 67.253-249.726 67.253-89.308 0-172.583-22.45-249.726-67.253-74.473-44.209-133.814-103.55-178.023-178.022-37.187-63.89-58.945-132.231-65.275-204.726-1.286-14.835-1.978-29.77-1.978-45zm1.978 44.992 274.946 86.044c0 2.967 24.725-97.912 28.681-97.912 56.374 0 56.374 4.945 56.374 4.945l-60.33 301.65c3.956 4.944 3.956 4.944 6.923 4.944H528.19c100.879-11.868 188.901-31.648 214.616-151.32 6.923-31.648 15.824-59.34 17.802-90.988 10.88-57.363-30.66-125.605-75.165-125.605 100.88-35.605 148.352-168.133 110.77-254.177C771.485 166.21 691.375 155.33 617.2 155.33H440.166c-10.879 0-10.879 30.66-28.681 122.638-15.824 80.11-24.725 156.264-30.66 156.264H212.693c-12.857 0-13.846 31.649-28.681 110.77zm454.947 198.792c0-5.934 15.824-91.979 36.593-205.715 4.945-8.901 77.143-8.901 104.836.989 45.494 25.714 28.681 204.726-55.385 204.726zm54.395-309.562L549.947 257.2h73.187c81.1 0 49.45 168.132-29.67 177.033z"/></svg>