<svg xmlns="http://www.w3.org/2000/svg" viewBox="0 0 1000 1000"><path d="M500.496 5c272.968 0 494.507 221.54 494.507 495.002 0 270.495-218.572 495.001-495.001 495.001C229.506 995.003 5 776.431 5 500.002 5 229.506 223.572 5 500.496 5zM321.485 708.19c0 19.78 4.945 34.615 11.868 44.505 5.934 8.9 23.736 10.879 44.505 10.879h87.034v104.835c0 7.913 8.9 23.737 24.725 23.737 16.813 0 26.703-9.89 26.703-23.737V763.574h8.902c28.68 0 52.417-1.978 73.187-3.956 20.769-1.978 38.571-6.923 54.395-14.835 23.737-8.901 42.528-25.715 57.363-49.451 13.846-21.758 20.77-45.495 20.77-74.176 0-58.352-31.649-101.869-98.902-120.66l-24.725-6.923 24.725-11.868c49.45-23.736 72.198-59.341 72.198-108.792 0-13.846-1.978-28.681-6.923-40.55-4.945-11.867-9.89-22.747-19.78-35.604-7.912-10.879-19.78-18.791-31.649-25.714-11.868-9.89-28.681-15.824-45.494-18.791-18.792-2.967-39.561-3.957-65.275-3.957H516.32v-80.11c0-14.835-12.857-24.725-26.703-24.725s-24.725 14.835-24.725 24.725v80.11h-87.034c-20.769 0-35.604 3.957-44.505 12.858-7.912 7.912-11.868 22.747-11.868 42.527zm72.198-4.946V525.221h71.209v178.023zm0-233.407v-160.22h71.209v160.22zM516.32 703.244V525.221h1.978c39.561 0 70.22 6.924 90 19.78 22.748 14.836 34.616 38.572 34.616 67.254 0 62.308-41.538 90.99-122.638 90.99zm0-234.396V310.605c29.67.99 53.407 5.934 68.242 12.858 23.737 10.879 35.605 31.648 35.605 64.286 0 14.835-2.967 27.692-9.89 39.56-8.901 16.813-21.759 27.692-39.56 33.627-12.858 3.956-32.638 7.912-54.397 7.912z"/></svg>