<svg xmlns="http://www.w3.org/2000/svg" viewBox="0 0 1000 1000"><path d="M987.9,569.785c-2.053,9.753-5.245,25.216-8.572,40.65-4.083,18.94-17.638,32.484-27.873,47.825-11.614,17.407-24.26,34.126-36.544,51.082-20.8,28.717-41.755,57.328-62.471,86.109-6.16,8.558-11.5,17.708-17.632,26.283-12.031,16.814-24.289,33.468-36.589,50.087-8.75,11.821-17.362,23.772-26.693,35.125-10.071,12.255-23.011,20.887-37.365,27.7a181.1,181.1,0,0,1-56.215,16.048c-11.349,1.377-22.907,1.39-34.369,1.371a291.853,291.853,0,0,1-32.429-1.5c-29.118-3.313-57.977-8.211-85.643-18.314-26.81-9.79-53.8-19.205-80.122-30.178-19.672-8.2-38.618-18.239-57.521-28.157-17.685-9.279-35.147-19.049-52.221-29.4-13.563-8.226-26.453-17.573-39.53-26.586-11.731-8.085-23.649-15.956-34.873-24.706-16.857-13.141-33.385-26.724-49.663-40.578-12.426-10.576-24.574-21.53-36.246-32.928q-17.756-17.338-34.274-35.929c-15.1-17.022-30.567-33.862-44.1-52.1-15.875-21.393-31.406-43.342-44.213-66.63-13.445-24.447-25.244-49.863-31.48-77.72-5.472-24.448-7.185-48.71-3.914-73.25,3.018-22.649,14.4-41.907,27.5-60.193,11.374-15.868,22.52-31.9,33.924-47.745,12.364-17.178,24.975-34.177,37.347-51.348,5.637-7.824,10.849-15.954,16.444-23.809Q155.135,199.3,177.9,167.748c9.017-12.442,18.425-24.6,27.483-37.012,5.136-7.039,9.648-14.54,14.913-21.475,12.52-16.491,27.257-30.114,46.317-39.344,18.567-8.99,38.132-14.052,58.112-17.182,13.522-2.119,27.557-1.9,41.308-1.353a336.461,336.461,0,0,1,42.513,4.478c18.106,3.059,36.341,6.22,53.908,11.411,25.33,7.484,50.4,16.089,75.028,25.631A488.305,488.305,0,0,1,591.9,118.165c31.9,17.138,63.854,34.358,94.575,53.486,22.372,13.929,43.146,30.537,64,46.768,19.979,15.555,39.815,31.426,58.466,48.519,18.585,17.033,35.847,35.542,53.256,53.815,11.7,12.284,23.242,24.82,33.782,38.094,10.844,13.656,20.591,28.206,30.432,42.627,7.633,11.186,15.13,22.516,21.833,34.269,5.331,9.348,9.463,19.39,13.948,29.206,2.947,6.451,5.4,13.13,8.378,19.565C982.207,509.647,985.727,536.466,987.9,569.785ZM20.308,431.258c.417,45.121,10.658,78.179,25.722,109.95,16.881,35.607,38.644,68.115,63.152,98.9,35.761,44.918,76.285,85.13,120.415,121.7,46.628,38.64,96.221,73.041,149.4,102.171C452.351,904.165,528.7,935.809,612.63,945.71c33.079,3.9,65.883,2.682,97.94-7.21,27.129-8.372,50.469-22.529,67.38-45.96q19.23-26.646,38.327-53.387,58.832-82.113,117.635-164.246c10.461-14.623,21.58-28.861,30.956-44.158,18.161-29.632,19.965-62.31,14.812-95.706-6.712-43.506-25.756-82.163-48.807-118.9-29.931-47.7-66.725-89.813-107.221-128.864A948.809,948.809,0,0,0,675.493,170.659C604.7,125.418,529.925,88.847,448,68.484,403.4,57.4,358.29,51.228,312.38,60.1c-34.3,6.631-64.59,20.506-86.383,49.081-7.83,10.265-15.118,20.944-22.633,31.448C151.426,213.221,99.761,286.006,47.413,358.3,29.4,383.172,19.446,410.007,20.308,431.258Z"/><path d="M649.506,934.29c-47.431-1.023-87.9-9.759-127.6-22.542-85.646-27.581-163.127-70.841-235.742-123.334-34.263-24.768-67.141-51.323-97.2-81.042C140.236,659.2,95.4,607.812,64.135,546.082c-17.464-34.478-30.554-70.2-29.758-109.737.482-24,7.045-45.66,21.2-65.333q89.348-124.161,178.17-248.7c19.83-27.742,47.525-42.194,80.246-48.41,45.513-8.645,90.126-2.237,134.218,9.019,61.662,15.741,119.277,41.452,174.647,72.541A937.28,937.28,0,0,1,776.743,263.382c55.993,48.324,106.134,101.962,145.076,165.264,18.57,30.186,33.948,61.916,41.842,96.761,6.721,29.665,8.005,59.5-5.639,87.4-7.828,16.008-18.962,30.5-29.377,45.123C875.78,732.176,822.4,806.051,769.76,880.453c-21.887,30.937-52.641,45.184-88.572,50.712C668.918,933.053,656.446,933.63,649.506,934.29ZM354.552,101.757c-18.179.454-37.219,1.944-55.426,8.811-15.935,6.01-29.6,15.036-38.779,29.782-13.074,21-14.512,43.9-10.069,67.464,6.639,35.215,21.813,66.988,40.506,97.191,37.164,60.046,85.094,110.708,138.285,156.539a902.392,902.392,0,0,0,167.567,114.7c53.024,28.032,107.926,51.311,167.131,63.033,34.363,6.8,68.82,10.32,103.7,3.479,46.083-9.037,72.6-43.323,68.017-87.726-2.687-26.065-10.593-50.536-21.613-74.025-22.28-47.489-53.8-88.664-89.2-126.9-44.838-48.428-94.988-90.782-149.467-128.054-65.293-44.67-134.393-81.713-210.206-105.315C429.379,109.652,393.016,102.569,354.552,101.757ZM225.28,242.607l-2.951.042c-1.545,2.665-4.158,5.25-4.367,8.016-.265,3.5,1.259,7.2,2.3,10.724,11.664,39.484,31.852,74.6,56.172,107.395,40.08,54.042,88.3,100.292,139.321,143.791,3.441,2.934,7.106,4.256,10.283.475,3.644-4.336.433-7.723-2.843-10.534-34.689-29.77-67.968-61-98.628-94.955-22.465-24.88-43.07-51.187-60.449-79.89-14.4-23.78-26.039-48.809-33.257-75.8C229.967,248.527,227.187,245.684,225.28,242.607ZM818.448,686.472c12.587-1.111,23.364-1.942,34.111-3.071,4.183-.44,8.07-2.195,7-7.4-.981-4.763-4.819-4.532-8.812-4.008a251.707,251.707,0,0,1-67.514-.526c-6.156-.85-12.357-1.887-18.528-1.827-2.142.02-4.255,3.1-6.381,4.777a51.876,51.876,0,0,0,4.95,5.8c.9.808,2.6.862,3.963,1C784.857,683.056,802.483,684.843,818.448,686.472ZM737,675.689c1.95-1.467,5.87-3.132,5.82-4.668-.08-2.462-2.3-6.24-4.476-7a151.647,151.647,0,0,0-24-6.216c-2.261-.392-5.071,2.387-7.629,3.711,1.514,2.473,2.512,6.413,4.633,7.158C719.332,671.48,727.681,673.244,737,675.689ZM212.1,215.274l-.3.019c.3,2.721.39,5.485.942,8.153.826,3.989,3.294,7.471,7.46,5.924,2.352-.874,4.577-4.777,4.973-7.582a26.473,26.473,0,0,0-1.33-12.144,8.556,8.556,0,0,0-6.205-4.677c-1.736-.11-4.1,2.835-5.383,4.918C211.436,211.212,212.1,213.446,212.1,215.274Z"/><path d="M473.233,241.415c31.125-.188,59.957,9.426,87.9,21.807,57.505,25.476,107.312,61.9,149.6,108.358,20.761,22.808,38.489,47.867,47.843,77.753,2.375,7.587,4.222,15.87,3.8,23.7-1.083,20.247-14.823,32.393-36.491,34.448-26.539,2.517-51.962-2.737-76.625-11.616-68.642-24.713-126.8-65.341-175.983-118.812C454.658,356.8,438.652,334.424,428.86,308.3a123.55,123.55,0,0,1-5.636-19.2c-5.319-26.813,9.5-45.842,36.872-47.639C464.457,241.168,468.853,241.415,473.233,241.415Z"/></svg>