<svg width="1000" height="1000" viewBox="0 0 1000 1000" fill="none" xmlns="http://www.w3.org/2000/svg">
<path d="M289 2L87 204H251C273 124 359 17 385 2H289Z" fill="black"/>
<path d="M483 204V2H437C351.4 63.6 302.667 162.333 289 204H483Z" fill="black"/>
<path d="M522 204H718C672.4 95.2 598.333 24 567 2H522V204Z" fill="black"/>
<path d="M756 204H915L711 2H621C685.8 61.2 731 144 756 204Z" fill="black"/>
<path d="M713 1000L915 798L751 798C729 878 643 985 617 1000L713 1000Z" fill="black"/>
<path d="M519 798L519 1000L565 1000C650.6 938.4 699.333 839.667 713 798L519 798Z" fill="black"/>
<path d="M480 798L284 798C329.6 906.8 403.667 978 435 1000L480 1000L480 798Z" fill="black"/>
<path d="M246 798L87 798L291 1000L381 1000C316.2 940.8 271 858 246 798Z" fill="black"/>
<path d="M465.303 584.5C465.303 609.2 461.836 631.516 454.903 651.45C447.97 670.95 438.436 687.633 426.303 701.5C414.17 714.933 399.653 725.333 382.753 732.7C365.853 739.633 347.436 743.1 327.503 743.1C307.136 743.1 288.503 739.633 271.603 732.7C254.703 725.333 240.186 714.933 228.053 701.5C215.92 688.066 206.386 671.6 199.453 652.1C192.953 632.6 189.703 610.716 189.703 586.45C189.703 561.316 192.953 537.916 199.453 516.25C206.386 494.15 215.27 472.7 226.103 451.9L317.103 273.8H402.253L308.653 449.3L309.303 449.95C314.07 445.616 320.136 442.366 327.503 440.2C335.303 438.033 342.67 436.95 349.603 436.95C364.77 436.95 379.286 439.983 393.153 446.05C407.453 451.683 419.803 460.566 430.203 472.7C441.036 484.4 449.486 499.566 455.553 518.2C462.053 536.833 465.303 558.933 465.303 584.5ZM391.203 583.85C391.203 556.983 386.003 534.883 375.603 517.55C365.203 500.216 349.603 491.55 328.803 491.55C318.836 491.55 309.953 493.933 302.153 498.7C294.353 503.466 287.636 510.183 282.003 518.85C276.37 527.083 272.036 536.833 269.003 548.1C265.97 559.366 264.453 571.716 264.453 585.15C264.453 613.316 270.086 636.066 281.353 653.4C292.62 670.3 308.22 678.75 328.153 678.75C348.086 678.75 363.47 670.083 374.303 652.75C385.57 634.983 391.203 612.016 391.203 583.85Z" fill="black"/>
<path d="M769.503 362.85C752.603 342.483 731.37 332.3 705.803 332.3C698.436 332.3 691.286 333.6 684.353 336.2C677.42 338.366 671.136 342.05 665.503 347.25C659.87 352.45 655.32 359.166 651.853 367.4C648.82 375.633 647.303 385.383 647.303 396.65C647.303 416.15 653.153 431.316 664.853 442.15C676.553 452.55 691.936 462.516 711.003 472.05C722.27 477.683 733.753 484.183 745.453 491.55C757.153 498.916 767.77 507.8 777.303 518.2C786.836 528.6 794.636 540.95 800.703 555.25C806.77 569.55 809.803 586.45 809.803 605.95C809.803 628.483 806.12 648.416 798.753 665.75C791.82 683.083 782.286 697.816 770.153 709.95C758.453 721.65 744.586 730.533 728.553 736.6C712.52 742.666 695.62 745.7 677.853 745.7C652.286 745.7 628.67 740.716 607.003 730.75C585.336 720.783 568.003 708.216 555.003 693.05L597.253 635.85C607.22 647.983 619.136 657.516 633.003 664.45C647.303 671.383 661.82 674.85 676.553 674.85C693.02 674.85 706.67 669.216 717.503 657.95C728.336 646.683 733.753 630.866 733.753 610.5C733.753 590.566 727.253 574.75 714.253 563.05C701.253 551.35 684.786 540.516 664.853 530.55C652.286 524.483 640.37 517.766 629.103 510.4C618.27 503.033 608.52 494.366 599.853 484.4C591.62 474 584.903 462.083 579.703 448.65C574.936 434.783 572.553 418.316 572.553 399.25C572.553 375.416 576.236 355.05 583.603 338.15C591.403 320.816 601.37 306.516 613.503 295.25C626.07 283.983 640.153 275.75 655.753 270.55C671.353 264.916 687.17 262.1 703.203 262.1C726.603 262.1 747.403 266 765.603 273.8C784.236 281.166 799.836 292.216 812.403 306.95L769.503 362.85Z" fill="black"/>
</svg>
