<svg xmlns="http://www.w3.org/2000/svg" width="1000" height="1000">
  <path d="M373.112 870.143c9.198-50.589 18.396-96.578 26.444-143.718 33.342-192.007 66.685-385.164 102.327-577.17 4.599-20.696 19.546-40.242 33.343-54.039 21.845-19.545 48.289-32.192 68.984-50.588 21.845-17.246 39.091-17.246 63.236-9.198 217.301 80.482 350.671 295.484 324.227 523.133-2.299 26.444-11.497 40.24-44.84 40.24-112.674-2.299-225.35 0-339.174 0-34.492 0-36.791-4.598-29.893-42.54 12.647-68.984 1.15-59.786 72.434-59.786h212.702c21.845 0 31.043-6.899 28.744-28.744-13.797-152.916-114.974-289.735-267.89-339.174-2.3-2.3-6.899 0-13.797 0-10.348 54.038-19.546 106.926-31.043 162.114-32.193 192.007-65.536 385.163-98.878 576.02 0 5.75-2.3 14.947-6.899 19.546-37.941 26.444-77.032 55.188-114.974 81.632-6.898 4.599-21.845 0-31.043-4.599C147.762 893.138 39.686 764.367 8.643 573.509c-6.898-48.289-2.3-96.578 0-148.317 2.3-5.748 14.947-21.845 24.145-21.845h365.618c3.45 0 8.048 2.3 12.647 4.6-2.3 26.443-4.599 50.588-11.497 74.733-3.45 9.198-21.845 20.695-34.492 20.695-78.183 2.3-155.216 2.3-232.248 0-25.295 0-31.043 8.048-29.894 31.043C123.618 687.334 200.65 795.41 340.92 859.795c8.048 4.6 17.246 6.899 32.193 10.348z" style="fill:#000;fill-opacity:1;fill-rule:nonzero;stroke:none;"/>
</svg>
