<svg xmlns="http://www.w3.org/2000/svg" width="1000" height="1000">
  <path d="M48.594 921.838C97.72 845.917 231.7 691.84 327.718 581.308c51.358-58.058 14.514 63.64-15.631 152.96-3.35 18.98-3.35 23.445 20.097 31.26 29.028 7.816 640.867 130.63 653.148 132.864 14.515 3.35 11.165 23.446 0 23.446zM8.4 906.208c-3.35-3.35-5.582-6.7 0-20.098 0 1.117 260.143-445.48 260.143-445.48 31.262-55.826 63.64-110.534 94.902-159.66 11.165-22.33 104.95-184.22 104.95-184.22 27.913 52.475 96.02 261.26 133.98 349.463 18.98 63.64 27.912 73.688 11.165 83.737-21.213 8.932-40.194-22.33-129.513-123.931-11.165-16.748-18.98-8.932-27.913 0-37.96 45.776-324.9 382.957-343.88 407.52-23.446 24.563-46.893 52.475-69.222 80.388C32.963 906.208 28.497 918.49 8.4 906.208zm484.56-798.295c-8.932-31.262 16.747-40.194 31.261-15.63 53.592 93.785 109.417 192.036 164.125 285.822 32.378 52.475 284.706 490.14 288.056 496.84 1.116 4.465-387.424-69.223-432.084-83.738-24.562-5.582-20.097-22.33 0-30.145 45.777-11.165 89.32-20.097 144.028-39.077 15.631-3.35 17.864-12.282 15.631-27.913-13.398-49.125-62.524-180.872-85.97-241.162-15.63-46.893-36.844-94.902-52.475-140.679-21.214-66.99-49.126-138.445-72.572-204.318z" style="fill:#000;fill-opacity:1;fill-rule:nonzero;stroke:none;"/>
</svg>
