<svg xmlns="http://www.w3.org/2000/svg" width="1000" height="1000">
  <path d="M539.79 694.18h184.629C784.901 500 863.422 316.43 994.997 149.84c-19.1 0-168.713-7.427-198.424 9.55-18.038 10.611-35.016 37.138-188.874 357.587-14.855-25.466-24.405-42.443-31.833-57.298-47.749-91.254-90.192-181.447-137.941-271.64-10.611-13.794-28.65-35.015-45.627-35.015-55.177-3.184-113.537-3.184-181.447-3.184 46.688 53.055 32.894 105.048 9.55 154.92-18.038 40.32-35.016 83.825-56.237 118.841C112.17 513.794 59.116 603.987 5 697.363c42.444 0 83.826-3.184 125.209 0 55.176 8.488 83.826-13.795 105.048-63.666 37.138-90.192 83.826-177.202 133.697-274.822 58.36 119.903 116.72 228.134 170.835 335.304zM105.803 896.847c219.645 0 428.68 0 638.776-3.184 11.672 0 22.283-3.183 28.65-11.672 32.893-49.87 70.031-105.048 101.864-154.919-147.492 49.871-296.044 22.283-444.597 28.65 10.611-39.26 28.65-72.155 22.283-100.804-3.183-35.016-28.65-67.91-46.688-100.803-7.428-18.039-18.038-33.955-29.71-57.3-83.827 140.065-122.026 299.228-270.578 400.032zm414.886-661.06c22.283 47.75 51.993 97.62 75.337 152.797 55.177-101.864 105.048-195.24 157.041-285.433H531.301c-3.184 27.589-6.367 53.055-6.367 78.52-4.244 18.04-7.428 39.261-4.244 54.117z" style="fill:#000;fill-opacity:1;fill-rule:nonzero;stroke:none;"/>
</svg>
