<svg xmlns="http://www.w3.org/2000/svg" width="1000" height="1000">
  <path d="M994.996 438.112H748.199c-16.886 0-25.978-14.288-32.473-29.875-45.462-92.224-129.893-146.779-231.209-140.284-92.224 7.793-176.654 77.935-203.932 170.16-28.576 114.305 33.772 240.301 148.078 277.97 107.811 40.267 233.807-15.587 277.97-122.1 16.887-41.565 41.566-48.06 79.235-32.473v63.648c0 29.875 22.082 53.256 54.555 53.256 23.381-6.495 36.37-23.38 36.37-53.256 9.093-72.74 9.093-72.74 79.235-72.74h38.968C978.11 756.35 791.064 986.26 514.392 994.053c-277.97 0-494.891-207.828-509.18-478.005C-2.58 253.665 205.249 21.156 461.137 6.868c270.177-15.587 510.479 168.86 533.86 431.244zM415.674 501.76c0-48.06 36.37-85.73 90.925-85.73 48.06 0 85.73 37.67 85.73 85.73 0 44.163-37.67 85.729-90.926 85.729-49.36 0-85.73-41.566-85.73-85.73z" style="fill:#000;fill-opacity:1;fill-rule:nonzero;stroke:none;"/>
</svg>
