<svg xmlns="http://www.w3.org/2000/svg" viewBox="0 0 1000 1000"><path d="M443.287,385.78c-29.935,0-60.329,8.694-83.443,23.865V623.993a113.14,113.14,0,0,0,57.7,0V556.6c9.4,7.328,23.126,11.135,37.651,11.135,44.457,0,69.928-33.81,69.928-92.8C525.124,416.01,497.442,385.78,443.287,385.78Zm-2.6,128.874a33.718,33.718,0,0,1-23.626-9.4V443.89c6.1-3.429,14.333-5.19,22.8-5.19,18.973,0,27.011,11.2,27.011,36.492C466.873,502.879,459.051,514.654,440.686,514.654Z"/><path d="M271.823,417.248a90.593,90.593,0,0,0-43.38,11.063V359.229a114.121,114.121,0,0,0-57.7,0v234.8a111.434,111.434,0,0,0,57.7,0V478.881c7.942-5.516,17.448-8.67,26.076-8.67,13.178,0,19.03,5.715,19.03,19.6V594.032a111.434,111.434,0,0,0,57.7,0V478.745C331.25,438.745,307.718,417.248,271.823,417.248Z"/><path d="M66.5,440.624c0-5.093,5.272-8,14.889-8,10.057,0,19.268,3.725,25.259,10.2a44.626,44.626,0,0,0,27.655-32.48c-13-15.766-35.074-24.82-60.131-24.82-37.9,0-64.889,20.986-64.889,53.929,0,55.431,71.43,51.881,71.43,69.109,0,6.3-8.628,9.48-23.208,9.48-14.026,0-30.313-3.3-44.727-9.048C4.526,518.826.033,532.121,0,546.332v.247a69.253,69.253,0,0,0,.4,7.329c18.88,8.791,43.113,13.83,66.509,13.83,44.081,0,72.629-21.31,72.629-56.935C139.538,451.27,66.5,459.073,66.5,440.624Z"/><path d="M585.451,347.046a94.816,94.816,0,0,0-27.941,4.135,83.9,83.9,0,0,0,0,48.507,105.162,105.162,0,0,0,55.878,0,83.7,83.7,0,0,0,0-48.507A94.77,94.77,0,0,0,585.451,347.046Z"/><path d="M739.587,397.419c-31.487,0-64.916,8.7-93.867,23.871V575.236a114.136,114.136,0,0,0,57.7,0v-118.8a59.542,59.542,0,0,1,26.211-6.057c12.826,0,18.9,6.126,18.9,19.605V575.236a114.136,114.136,0,0,0,57.7,0V458.919C806.228,419.351,782.278,397.419,739.587,397.419Z"/><path d="M922.207,409.228c-55.629,0-87.491,31.559-87.491,86.621,0,54.02,24.852,83.552,69.932,83.552,13.109,0,26.849-2.942,37.648-9.494v6.458c0,18.818-13.337,25.8-37.377,25.8a94.57,94.57,0,0,1-45.432-12.093c-10.345,10.036-15.223,26.155-13.024,42.679,16.167,12.845,41.585,20.2,69.781,20.2,55.993,0,83.756-28.919,83.756-87.259V432.833C978.988,417.828,950.644,409.228,922.207,409.228Zm20.579,111.018a39.779,39.779,0,0,1-23.439,7.356c-18.5,0-26.361-10.241-26.361-34.311,0-23.923,8.615-34.109,28.882-34.109a58.326,58.326,0,0,1,20.918,3.643Z"/><path d="M556.59,421.064V595.249a108.391,108.391,0,0,0,57.7,0V421.064A116.012,116.012,0,0,1,556.59,421.064Z"/></svg>