<svg xmlns="http://www.w3.org/2000/svg" viewBox="0 0 1000 1000"><path d="M5 500.496c0 271.98 220.55 494.507 495.496 494.507 271.98 0 494.507-220.55 494.507-495.496C995.003 227.528 773.464 5 500.496 5 226.54 5 5 225.55 5 500.496zm70.22 120.66c-3.956-31.649 19.78-55.385 51.429-59.341 48.461-3.956 90.99-43.517 94.945-91.978 0-7.912-.989-13.847-3.956-23.737-15.824-42.527-2.967-87.033 32.638-118.681 31.648-23.737 79.12-28.682 114.725-4.945 35.605 24.725 55.385 68.242 43.517 112.747-3.956 26.704 3.956 50.44 19.78 71.21 27.693 43.516 71.21 67.252 126.594 70.22 80.11 0 115.715-23.737 115.715-109.781 0-63.297 32.637-111.759 87.033-135.495 52.418-19.78 107.802-3.956 143.407 39.56 39.56 39.56 44.506 103.847 15.824 150.33-27.692 47.473-82.088 76.155-139.45 63.297-70.22-15.824-114.726 16.814-122.639 91.979-7.912 51.428-43.516 88.022-90.989 88.022-43.517 2.967-90.99-28.681-95.934-72.198-3.956-19.78-3.956-35.605-7.912-51.429-28.682-98.901-82.089-134.506-181.98-134.506-12.856 0-23.735 0-36.593 3.956-26.703 10.88-47.472 34.616-55.384 63.297-2.967 7.912-6.923 15.824-2.967 27.693 7.912 31.648-12.858 63.297-44.506 67.253-31.649 3.956-59.34-15.825-63.297-47.473zm666.596-123.627c0 12.857 4.945 23.736 15.824 20.77 7.912 0 15.824-11.869 15.824-20.77v-46.484c23.736 18.792 40.55 39.561 61.319 59.341 2.967 3.956 10.88 7.912 17.802 7.912 7.912 0 12.857-11.868 12.857-20.769v-87.033c0-6.923 0-19.78-15.824-19.78-11.868 0-14.835 7.912-14.835 19.78v48.462h-5.934c-18.791-20.77-34.616-39.561-55.385-60.33-2.967-3.956-9.89-7.912-19.78-7.912-6.923 0-11.868 12.857-11.868 19.78z"/></svg>