<svg xmlns="http://www.w3.org/2000/svg" viewBox="0 0 1000 1000"><path d="M67.934 267.717V733.91c0 12.878 3.864 18.03 12.878 21.893 136.51 78.557 271.732 155.827 406.954 235.672 10.302 6.44 15.454 2.576 25.756 0C647.456 911.63 783.966 834.36 917.9 755.803c7.727-3.863 14.166-9.015 14.166-18.03v-473.92c0-10.302-6.44-15.454-11.59-18.03-136.51-79.845-273.02-157.114-406.954-236.96-10.302-5.15-15.454-5.15-25.756 0C352.544 88.71 217.322 165.978 80.812 245.823c-9.014 2.576-12.878 7.728-12.878 21.894zm88.86 412.104V307.64c0-7.727 2.576-15.454 12.878-20.605 106.89-61.816 213.78-121.056 318.094-182.871 10.302-6.44 15.454-6.44 25.756 0 105.602 61.815 209.916 121.055 315.518 182.871 9.015 5.151 14.166 12.878 14.166 20.605v365.743c0 14.166-5.151 19.317-14.166 25.757-105.602 60.527-212.492 122.343-315.518 182.871-10.302 3.864-15.454 3.864-25.756 0-104.314-60.528-211.204-122.344-318.094-185.447-10.302-3.864-12.878-9.015-12.878-16.742zm74.694-42.498c0 5.151 9.015 14.166 11.59 16.742 83.71 47.65 162.267 95.299 244.688 142.948 10.302 2.576 15.454 2.576 25.756-3.863 70.83-37.347 142.949-79.845 209.916-122.344 54.089-27.044 43.786-15.453 43.786-77.27 2.576-7.726-2.576-12.877-11.59-19.317-121.056-68.254-242.112-135.221-360.592-204.764-6.439-2.576-11.59-5.151-18.03-7.727 41.211-23.18 79.846-48.937 118.48-69.543 2.576 0 10.303 0 12.879 5.152 54.089 28.332 105.602 59.24 158.403 87.572 6.439 2.576 9.014 7.727 9.014 19.317v84.997c0 5.151 2.576 11.59 5.152 14.166 25.756 15.454 57.952 32.196 86.284 50.225v-207.34c0-7.727-6.44-10.303-11.59-14.166-79.846-47.65-159.69-95.3-242.112-142.949-10.302-6.439-18.03-6.439-28.332 0-69.543 43.786-144.237 87.572-218.93 127.495-25.757 15.454-41.211 29.62-34.772 63.104 3.864 10.302 3.864 16.741 15.454 24.468 119.768 66.967 245.975 139.086 367.03 206.053 5.152 2.575 7.728 6.439 18.03 12.878-45.074 21.893-83.709 45.074-126.207 69.542-2.575 0-10.302 0-12.878-2.575-54.089-29.62-106.89-59.24-157.115-91.436-6.44-5.151-9.015-12.878-9.015-18.03-3.863-23.18-3.863-51.513 0-77.269 0-20.605-6.439-32.196-24.468-41.21-23.181-12.879-43.787-23.181-66.967-38.635-3.864 5.151-3.864 5.151-3.864 9.014z"/></svg>