<?xml version="1.0" encoding="UTF-8"?><svg id="a" xmlns="http://www.w3.org/2000/svg" viewBox="0 0 1000 1000"><path d="m622.659,499.997l167.963-167.963,119.103-119.103c-16.427-23.429-35.074-45.754-55.99-66.663-20.915-20.915-43.24-39.569-66.662-55.996-171.62-120.363-402.519-120.363-574.139,0-23.422,16.433-45.754,35.081-66.662,55.996-20.915,20.909-39.563,43.241-55.99,66.663l119.103,119.103,18.866,18.866,149.097,149.097-167.963,167.97-119.11,119.103c16.427,23.422,35.081,45.747,55.996,66.662,20.909,20.909,43.241,39.563,66.662,55.99,171.62,120.37,402.519,120.37,574.139,0,23.422-16.428,45.747-35.082,66.662-55.99,20.916-20.915,39.563-43.24,55.99-66.662l-119.103-119.103-167.963-167.97ZM332.038,209.383c103.534-59.804,232.398-59.804,335.932,0l-167.97,167.963-167.963-167.963Zm0,581.236l167.963-167.963,167.97,167.963c-103.535,59.804-232.398,59.804-335.932,0Zm-135.921-148.452l-121.31,121.303c-99.653-160.819-99.721-366.26-.027-527.065l121.242,121.242c-41.987,89.886-41.851,194.62.095,284.519Zm729.136,121.38l-121.242-121.249c41.953-89.859,41.81-194.551-.109-284.424l121.31-121.31c99.626,160.79,99.694,366.198.041,526.982Z"/></svg>