<svg xmlns="http://www.w3.org/2000/svg" viewBox="0 0 1000 1000"><path d="M480.622 13.508v15.8c0 113.028 3.646 227.273 0 340.302 0 9.723-3.646 24.307-7.292 34.03-20.661 38.892-44.969 72.922-65.63 110.598-2.43 7.292-2.43 9.723-9.723 19.446h195.674c-3.646-6.077-7.292-12.154-7.292-19.446-23.092-37.676-44.969-75.352-65.63-114.244-2.43-6.077-6.077-15.8-6.077-26.738V5c6.077 10.938 10.939 14.584 14.585 20.661C665.357 266.304 802.694 503.3 944.892 743.942c12.153 24.308 9.723 24.308-14.585 37.677-137.336 68.06-278.318 137.336-419.3 206.612-9.724 6.077-20.662 9.723-34.031 3.646C339.64 918.955 202.303 849.68 64.966 781.62c-20.66-13.37-20.66-17.015-9.722-37.677C191.365 503.3 332.347 262.658 470.899 23.23c2.43-3.646 2.43-7.292 6.077-14.584zM130.597 775.542c82.645 37.676 164.074 78.999 246.719 116.675 0 0 0-3.646 3.646-3.646-44.969-38.892-88.722-75.353-133.69-113.029-3.646-4.862-7.292-4.862-10.938-4.862-34.03-2.43-68.061 0-105.737 0zm139.767-44.969c-2.431 6.077 0 9.723 3.646 15.8 52.26 44.969 99.66 89.937 148.274 134.906 13.37 10.938 27.954 23.092 40.108 34.03h3.646c-34.03-113.029-64.415-223.627-98.445-339.087-4.861 2.43-7.292 6.077-7.292 6.077-27.954 48.614-58.338 97.229-89.937 148.274zm134.905-151.92c34.03 121.536 68.06 236.996 102.091 360.963 72.922-65.63 140.983-123.967 213.904-188.381-106.952-59.553-210.258-117.89-313.564-175.013 0 2.43-2.43 2.43-2.43 2.43zm215.12 313.564c82.645-37.676 166.505-78.999 247.935-116.675-35.246-7.292-69.276-7.292-102.091-4.862-8.508 0-12.154 0-14.584 4.862-43.754 37.676-88.722 74.137-131.26 113.029z"/></svg>