<?xml version="1.0" encoding="UTF-8"?><svg id="a" xmlns="http://www.w3.org/2000/svg" viewBox="0 0 1000 1000"><path d="M793.135,562.341l-293.135,171.138-293.136-171.138-19.043-11.118,12.522,18.151,295.605,428.503,1.465,2.123h5.159l1.48-2.123,295.604-428.503,12.521-18.151-19.043,11.118Zm-58.636,60.918l-220.391,317.424v-187.692l220.391-129.732Zm-246.973,130.143v187.758l-221.958-317.905,221.958,130.147ZM201.475,504.373l112.667,65.778c-.28,1.959-.422,3.913-.422,5.841,0,23.219,18.89,42.11,42.11,42.11,9.276,0,18.222-3.064,25.558-8.692l116.914,68.257,1.148,.67h2.659l1.163-.67,114.411-66.796c6.933,4.682,15.177,7.23,23.56,7.23,23.219,0,42.11-18.89,42.11-42.11,0-1.107-.048-2.236-.143-3.377l116.89-68.244,.192-.112,4.298-2.507-2.561-4.266-.126-.21-112.608-187.63c7.339-7.777,11.479-18.078,11.479-28.843,0-23.219-18.89-42.11-42.11-42.11-3.728,0-7.43,.504-11.051,1.5L505.007,2.587l-1.553-2.587-3.01,.215h-.015s-2.548,.183-2.548,.183l-1.315,2.19-143.031,238.319c-4.33-1.47-8.825-2.213-13.413-2.213-23.219,0-42.11,18.89-42.11,42.11,0,11.725,4.77,22.647,13.225,30.579l-111.568,185.894-.126,.21-2.561,4.266,4.298,2.507,.193,.113Zm160.765,30.039l-4.363-79.526,107.653-45.413-94.443,127.295c-2.849-1.109-5.805-1.897-8.846-2.357Zm-11.678-212.854c18.339-4.701,31.67-21.486,31.67-40.755,0-9.788-3.343-19.099-9.482-26.602l109.625-182.657V341.124c-11.424,6.34-19.274,17.642-21.206,30.545l-105.418,44.461-5.189-94.572Zm131.75,102.612v217.089l-86.968-50.773c1.724-4.649,2.595-9.506,2.595-14.493,0-9.495-3.168-18.574-8.995-25.974l93.368-125.848Zm-237.52,78.42l91.776-38.715,3.999,72.898c-6.47,2.524-12.24,6.635-16.769,11.942l-79.007-46.125Zm3.596-41.179l80.67-134.412,5.383,98.119-86.053,36.294Zm379.741,74.57l-94.667-127.596,103.582,43.696-4.538,82.722c-1.478,.313-2.939,.706-4.377,1.178Zm-11.579-255.178c0,17.834,11.212,33.555,27.72,39.54l-5.101,92.982-94.561-39.882c-1.624-15.162-11.407-28.342-25.411-34.282V71.545l108.498,180.781c-7.126,7.745-11.146,17.915-11.146,28.478Zm-6.973,267.491c-6.683,7.643-10.446,17.516-10.446,27.697,0,5.714,1.181,11.378,3.445,16.624l-83.317,48.642v-214.7l90.318,121.736Zm45.121-12.176l4.107-74.857,97.97,41.329-82.064,47.911c-5.096-6.664-12.098-11.701-20.013-14.383Zm14.53-214.59l83.953,139.882-92.25-38.907,5.505-100.346c.935-.177,1.866-.387,2.792-.629Z"/></svg>