<svg xmlns="http://www.w3.org/2000/svg" width="1000" height="1000">
  <path d="M676.936 316.628c36.462-13.505 70.223-27.01 97.232-36.462 20.256-10.804 29.71-16.206 37.812-32.41 10.804-32.411 20.257-63.472 29.71-95.882 16.205 9.453 21.607 14.855 32.41 25.658 129.643 162.053 155.302 337.611 75.625 519.921C857.895 895.968 699.893 993.2 483.822 993.2c-102.633 0-193.113-32.41-272.79-90.48-17.555-13.504-17.555-22.957-9.452-44.564 9.453-25.659 20.256-52.668 31.06-90.48 0-8.103 13.504-16.205 25.658-21.607 60.77-29.71 117.489-39.163 183.66 0 89.13 54.018 197.165 54.018 299.8 17.556 9.452-6.753 18.905-12.154 24.307-28.36 56.719-144.497 28.36-276.84-66.172-395.68-8.102-4.051-13.504-12.154-22.957-22.957zM32.774 665.042C-68.509 382.8 117.852 68.146 419.001 11.427 544.592-3.427 656.679 16.83 760.663 81.651c18.906 12.154 18.906 22.957 18.906 43.214-27.008 95.881-133.693 159.352-210.669 116.138-95.881-45.915-193.113-45.915-301.149-13.504-13.504 5.401-24.308 13.504-29.71 32.41-44.564 126.942-27.008 245.78 48.616 353.816 4.052 8.103 9.454 17.556 20.257 36.462-33.76 10.804-63.47 20.257-95.881 32.411-22.958 5.402-32.411 14.855-36.462 37.812-10.804 36.462-29.71 70.224-43.215 108.036-43.214-51.317-75.624-102.634-98.582-163.404z" style="fill:#000;fill-opacity:1;fill-rule:nonzero;stroke:none;"/>
</svg>
