<?xml version="1.0" encoding="UTF-8"?><svg id="a" xmlns="http://www.w3.org/2000/svg" viewBox="0 0 1000 1000"><path d="M931.205,462.564c-13.419-14.994-28.849-28.112-45.634-39.427-29.912-149.234-143.565-268.135-289.806-305.457,29.42-29.775,41.034-57.461,33.323-113.468-.664-4.831-7.21-5.826-9.049-1.309-20.79,51.054-101.381,70.742-148.775,84.288-49.128,14.218-107.805,35.912-156.195,61.434C133.415,244.254,63.554,447.846,118.04,621.87c.214,.604,.501,1.14,.719,1.74,24.871,77.822,74.809,149.551,150.567,202.666,188.226,131.968,422.866,75.84,570.179-81.772,3.159-3.38-.092-9.053-4.277-7.077-8.584,4.057-17.674,7.19-27.09,9.486,53.301-67.488,85.208-152.698,85.208-245.42,0-12.834-.663-25.509-1.855-38.031,11.896,1.725,23.765,3.698,35.464,6.159,4.075,.859,7.031-3.954,4.25-7.058Zm-77.453-57.677c-27.399-12.968-57.617-21.163-89.732-23.155-24.155-1.497-48.512,.559-72.054,6.186-22.727,5.433-44.643,14.169-64.894,25.826-9.652,5.559-20.194,10.958-30.985,15.323-6.957,2.814-14.014,5.197-21.003,6.917-13.294,3.27-26.972,5.032-40.666,5.038-44.652,.019-87.163-19.983-112.129-57.632-41.996-63.333-21.935-140.037,41.398-182.033,35.224-21.623,73.842-36.594,107.657-62.166,136.889,27.832,246.133,131.867,282.407,265.696Zm13.225,96.607c0,96.192-37.181,183.635-97.517,249.472-7.539-.245-15.201-1.048-22.953-2.505-56.955-10.711-101.985-55.652-112.793-112.59-13.138-69.22,23.906-132.386,81.121-158.648,5.398-2.217,10.757-4.489,16.406-6.347,.213-.067,.42-.149,.635-.216,38.411-12.504,85.15-14.803,132.658-10.395,1.51,13.554,2.442,27.278,2.442,41.229Z"/></svg>