<svg xmlns="http://www.w3.org/2000/svg" width="1000" height="1000">
  <path d="M469.338 27.922c-47.037 4.589-69.982 24.092-103.253 47.037-34.417 22.946-57.363 22.946-102.105 22.946-120.462 0-142.26 69.982-170.941 203.064-12.62 95.222-34.418 137.67-57.363 195.033-53.921 141.112-42.449 252.396 80.308 318.937 122.756 61.952 169.793 103.253 215.684 125.05 90.633 45.89 182.413 45.89 261.574-21.797 91.78-80.308 172.088-170.941 297.139-206.506 96.37-27.534 125.05-147.996 90.633-227.157-12.62-36.712-22.945-113.578-12.62-170.94 22.945-80.308-21.798-136.524-112.43-160.616-103.254-20.65-205.36-33.27-295.993-100.959-25.24-17.209-57.362-24.092-90.633-24.092zM191.702 786.257C1.258 643.997 101.07 299.821 285.777 177.065c156.027-104.4 317.79-45.89 473.817 78.013 89.486 72.278 166.352 113.579 173.235 170.941 9.178 74.572-73.424 161.763-134.229 227.157-61.951 75.719-133.081 161.763-222.567 199.622-83.75 56.216-86.044-39.006-162.91-44.743-60.805 0-165.205 12.62-221.42-21.798zm18.357-98.663c87.19 90.633 337.293 149.143 438.25 69.982 164.058-129.64 215.685-279.93 164.058-383.183-125.05-252.396-457.754-234.04-598.867-84.897-79.16 95.222-86.044 306.317-3.441 398.098zm8.03-181.267c0-158.32 113.579-273.046 273.047-273.046 159.468 0 238.629 114.725 251.249 273.046 0 147.996-137.67 263.869-262.722 251.25-162.91-13.768-273.046-113.58-261.574-251.25z" style="fill:#000;fill-opacity:1;fill-rule:nonzero;stroke:none;"/>
</svg>
