<svg xmlns="http://www.w3.org/2000/svg" width="1000" height="1000">
  <path d="M994.738 498.756c8.86 259.458-208.832 496.135-492.338 496.135C227.754 994.89 5 768.34 5 498.756 10.063 227.907 227.754 10.216 493.54 5.153c292.366-3.797 510.057 240.473 501.198 493.603zM40.438 602.54c17.72 78.47 51.892 148.081 105.05 203.77 3.796 5.063 16.453 10.125 21.515 10.125 21.516-10.125 26.579-26.578 8.86-44.297-3.797-3.797-8.86-13.923-8.86-16.454-87.33-113.908-108.846-244.27-69.61-379.695 16.453-56.954 48.094-108.846 83.532-153.143 12.657-8.86 7.594-16.454 0-26.579-5.062-7.594-8.86-11.39-13.922-21.516-7.594 5.062-12.656 10.125-17.719 13.922C45.501 305.112 10.063 445.6 40.438 602.54zm65.814-69.61c5.063 21.516 5.063 48.094 12.656 74.673 35.439 155.675 192.38 280.974 353.117 291.1 18.984 0 21.516-5.063 21.516-21.517 0-17.719-7.594-22.781-21.516-22.781-169.597-16.454-299.96-146.816-322.741-299.96 0-13.921 0-21.515-3.797-30.375-5.063-17.719-17.719-12.656-31.641-12.656-12.657 0-12.657 12.656-7.594 21.516zm0-69.611c0 16.453 5.063 21.516 21.516 25.313 17.72 0 17.72-11.39 21.516-25.313 17.72-174.66 153.144-305.022 322.74-317.678 21.517 0 21.517-13.922 21.517-26.579 0-18.984-12.657-18.984-21.516-18.984-103.784 5.062-217.692 72.142-283.506 154.409-48.095 60.751-77.204 130.362-82.267 208.832zm65.814 35.438c-5.063 177.19 143.018 334.131 330.334 334.131 182.254 0 336.663-151.878 331.6-334.132 5.063-170.862-149.346-336.663-340.46-331.6-174.659 5.063-321.474 151.878-321.474 331.6zm12.656-336.663c3.797 22.782 30.376 26.58 43.032 12.657 162.003-135.425 396.149-130.362 549.292 5.063 21.516 16.453 26.579-5.063 40.501-7.594 7.594-10.126 2.531-18.985-5.063-26.579C725.154 70.968 621.371 31.732 493.541 26.67c-2.532 0-21.516 5.062-34.173 5.062-103.783 7.594-191.113 51.892-270.849 116.44 0 0-3.797 10.125-3.797 13.922zm3.797 665.732c-7.594 10.125-7.594 18.985 5.063 26.579 99.986 84.798 210.098 122.768 339.194 113.908 101.252-5.062 188.582-39.235 265.786-99.986 31.642-26.579 31.642-26.579-5.062-56.954-193.645 151.878-387.29 149.346-583.465 0-8.86 5.062-11.39 13.922-21.516 16.453zm326.538 53.157c0 17.72 13.922 17.72 22.781 17.72 187.317-17.72 342.991-169.598 361.976-361.976 0-8.86 7.594-21.516-13.922-25.313-17.719 0-25.313 3.797-30.375 25.313 0 22.781-3.797 44.297-13.923 65.813C793.5 750.62 689.716 832.888 532.776 854.404c-17.72 5.062-17.72 13.922-17.72 26.578zm0-761.92c0 12.656 0 26.578 17.719 26.578 30.375 2.531 67.08 7.594 96.19 21.516 130.361 51.892 210.097 151.878 226.55 296.162 5.063 21.516 12.657 25.313 30.376 21.516 21.516 0 13.922-12.656 13.922-26.579-5.062-21.516-8.86-43.032-13.922-65.813C846.657 235.503 698.576 114 537.838 100.078c-12.656 0-22.781 0-22.781 18.984zM820.078 777.2c-16.453 21.516 5.063 26.579 13.922 34.173 7.594 13.922 17.72 5.062 26.58-5.063 116.439-148.08 143.017-307.553 73.407-487.275-17.72-51.892-48.095-99.986-92.393-144.284-2.53 5.063-7.594 10.125-7.594 13.922-21.516 20.25-21.516 20.25-3.796 44.298 34.172 37.97 55.688 82.267 72.142 130.362 45.563 151.878 24.047 291.1-82.268 413.867z" style="fill:#000;fill-opacity:1;fill-rule:nonzero;stroke:none;"/>
</svg>
