<svg xmlns="http://www.w3.org/2000/svg" viewBox="0 0 1000 1000"><path d="M500,995c273.38,0,495-221.62,495-495S773.38,5,500,5,5,226.62,5,500,226.62,995,500,995ZM203.15,286.73,348.88,141h69.26c-18.76,10.82-80.81,88-96.68,145.73ZM488.84,141V286.73h-140c9.86-30.06,45-101.29,106.77-145.73ZM517,286.73H658.38C625.48,208.24,572,156.87,549.44,141H517Zm283.53,0H685.79c-18-43.28-50.64-103-97.39-145.73h64.93ZM317.85,715.27H203.15L350.32,861h64.93C368.5,818.29,335.89,758.55,317.85,715.27Zm27.42,0h141.4V861H454.21C431.6,845.13,378.17,793.76,345.27,715.27Zm169.54,0V861H548c61.76-44.44,96.92-115.67,106.78-145.73ZM654.77,861,800.5,715.27H682.18C666.31,773,604.27,850.18,585.51,861ZM309.6,651.78,226.22,444.37H225l.83,207.41H181V358.08h56.83l82.55,208.66h1.25l-.42-208.66h43.15v293.7Zm243.89,0-78.4-142.7h-1.25v142.7H424.06V358.08h49.78V485.43h1.25l74.67-127.35h56L519.47,493.32l91.68,158.46Zm249.84-38.16Q832.79,575,832.78,505.35T803.33,397.08q-29-39-85.45-39H644v293.7h73.42Q774.3,651.78,803.33,613.62ZM778,459.71q5,19.5,5,45.64,0,25.71-5,45.21-4.57,19.08-13.28,31.94A60.14,60.14,0,0,1,744,602a56,56,0,0,1-26.13,6.22H694.23V401.64h23.65A53.26,53.26,0,0,1,744,408.27q12,6.23,20.74,19.09T778,459.71Z" fill-rule="evenodd"/></svg>