<svg xmlns="http://www.w3.org/2000/svg" width="1000" height="1000">
  <path d="M923.33 740.261c-103.053 24.316-220 24.316-324.21 34.737-34.737 68.315-57.895 137.789-92.631 220-69.474-103.053-137.79-185.264-207.263-265.158-69.474 0-138.947 10.421-217.684 10.421 27.79-69.473 62.527-162.105 103.053-252.42 24.315-41.684 13.894-54.421-10.421-92.632-34.737-45.157-57.895-91.473-103.053-149.368 113.474-10.42 228.105-24.315 332.315-34.736C437.015 142.789 461.331 83.737 496.068 5c68.315 92.631 137.789 171.368 195.683 265.157 81.053 0 149.368-13.895 231.578-13.895-33.578 97.263-47.473 125.053-92.63 231.579-24.317 54.42-25.474 72.947 10.42 127.368 24.316 34.736 48.632 79.894 82.21 125.052zM71.12 695.103c-69.473-57.894-82.21-299.894 0-414.525 20.842 23.158 20.842 45.158 20.842 69.474-10.42 45.157-20.842 92.63-20.842 137.789 0 45.157 0 78.736 10.421 127.368 5.79 26.631 10.421 56.736-10.42 79.894zm34.737 69.474c20.842-10.421 33.579-10.421 54.421 10.42 78.737 77.58 148.21 127.369 243.157 151.685 33.58 10.42 37.053 19.684 57.895 44-92.632 34.736-321.894-103.053-355.473-206.105zm0-543.051C139.437 118.473 368.7-8.894 461.331 28.158c0 20.842-15.053 45.158-45.158 45.158-33.579 2.315-57.895 10.42-92.631 24.315-46.316 20.842-93.79 45.158-128.526 89.158-20.842 24.316-55.579 48.631-89.158 34.737zm54.421 461.998c69.473-8.105 138.947-11.579 208.42-23.158-34.736-59.052-69.473-104.21-103.052-148.21 81.053-24.315 150.526-34.736 220-48.631 15.052-33.579 26.631-68.316 45.157-113.473-59.052 0-114.631 5.789-162.105 10.42-56.736 12.737-91.473 48.632-114.63 92.632-20.843 48.631-77.58 177.157-93.79 230.42zm5.79-401.788c16.21 27.79 42.841 68.316 53.262 91.473 46.316-23.157 92.632-38.21 127.369-59.052 24.315-11.579 50.947-44 22-44-56.737-3.474-130.842-2.316-202.632 11.579zm180.63 264c52.106 60.21 84.527 104.21 125.053 149.367 16.21 19.684 41.684 34.737 92.631 34.737 59.053 0 104.21-5.79 163.263-11.579 38.21-6.947 68.315-12.737 113.473-23.158-45.158-57.894-90.315-104.21-137.789-172.526-22 68.316-46.316 114.632-79.894 172.526-48.632-57.894-92.632-114.631-127.368-162.105-67.158 0-82.21-2.315-149.368 12.737zm22 172.525c34.737 56.737 82.21 114.631 127.369 173.684 10.42-48.632 24.315-69.474 34.736-92.632-45.158-34.736-93.789-59.052-137.789-93.789 0 0-10.42 8.106-24.316 12.737zm57.895-426.104c69.474 3.474 127.368-4.632 184.105 0-39.369 105.368-64.842 172.526-69.474 220 23.158 20.841 47.474 54.42 69.474 89.157 23.158-55.579 46.315-103.052 70.631-148.21 22-44 10.421-92.631-12.737-138.947-45.157-57.895-79.894-113.473-127.368-171.368-10.42-10.421-20.842-24.316-34.736-34.737-28.948 68.316-55.58 127.368-79.895 184.105zm114.631 678.524c0-33.578 12.737-44 33.58-44 106.525-13.894 187.578-69.473 255.893-137.789 17.368-20.842 34.737-34.736 59.053-24.315-24.316 103.052-232.737 230.42-348.526 206.104zm0-942.523c92.632-37.053 313.789 90.315 358.947 193.368-27.79 8.105-50.948 17.368-69.474-10.421-34.737-45.158-79.894-78.737-138.947-103.053-81.052-32.42-127.368-41.684-150.526-79.894zm196.842 424.946c0 24.316 0 45.158 24.316 45.158 33.578-55.58 57.894-113.474 78.736-184.105h-90.315c-12.737 59.052-12.737 105.368-12.737 138.947zm172.526 196.841c30.105-77.578 32.42-185.262 12.736-265.157-9.263-41.684-12.736-59.052 10.421-81.052 69.474 56.737 69.474 321.894 0 391.367-33.578-11.579-30.105-23.158-23.157-45.158z" style="fill:#000;fill-opacity:1;fill-rule:nonzero;stroke:none;"/>
</svg>
