<svg xmlns="http://www.w3.org/2000/svg" viewBox="0 0 1000 1000"><path d="M333.264,336.977c-35.22-52.339-49.337-108.617-35.109-170.278,10.193-44.179,32.916-81.293,68.151-110.175C437.615-1.928,539.2-5.7,612.579,47.471c46.458,33.664,74.214,79.116,82.876,135.85,8.592,56.276-7.131,106.731-38.616,154.079,57.707-39.413,119.409-51.94,185.992-31.294,44.2,13.7,79.8,40.165,105.914,78.64,52.023,76.644,44.973,179.887-15.071,248.214-53.123,60.452-166.227,104.193-275.84,27.393,66.56,117.313,54.944,220.577-60.6,299.139-70.683,48.062-171.589,35.364-236.792-23.219-39.378-35.38-61.605-79.9-66.669-132.794-5.022-52.459,10.692-99.111,40.031-142.87-49.012,32.478-101.572,48.558-159.765,37.716C115.927,687.5,70.1,657.181,37.855,607.221c-48.495-75.132-39.981-176.137,20.419-243.7,22.749-25.448,50.516-43.5,82.419-55.189,32.444-11.882,65.865-14.457,99.957-9.35C274.375,304.029,304.144,318.6,333.264,336.977ZM622.5,625.231c-28.751-37.7-42.783-80.17-42.8-126.638-.018-46.391,14.576-88.606,43.021-126.367-85.184,57.326-169.782,57.067-254.916.066,28.881,37.893,43.083,80.26,43.1,126.785.02,46.5-14.642,88.826-42.78,126.342C453.5,568.569,537.565,568.971,622.5,625.231Z"/></svg>