<svg xmlns="http://www.w3.org/2000/svg" width="1000" height="1000">
  <path d="M900.417 673.888h-168.15c-24.728 0-37.916 0-42.862 28.025-6.594 11.54-9.891 24.728-14.837 32.97-70.886 113.749-225.848 113.749-304.978 75.832-44.51-18.133-65.94-60.995-65.94-113.748 4.945-49.456 32.97-82.426 79.129-98.912 23.08-3.297 41.213-13.188 60.995-16.485 85.724-24.728 169.799-44.51 250.577-72.535 54.401-18.134 107.154-56.05 140.125-112.1 52.753-90.67 24.728-217.606-56.05-296.735-62.644-60.996-136.828-85.724-220.903-93.967C453.665 1.288 358.05 9.53 270.679 62.283c-80.778 56.05-123.64 131.883-136.828 230.794 4.945 0 4.945 4.946 9.891 4.946 56.05 0 112.1 0 168.15-4.946 4.946 0 13.188-9.89 19.782-14.836 8.243-41.214 32.97-70.887 70.887-87.372 65.941-32.97 131.882-32.97 197.824-6.594 41.213 19.782 65.94 47.807 65.94 93.966-4.945 42.861-32.97 65.94-65.94 80.778-37.917 18.133-75.833 28.025-118.695 42.861-65.94 18.134-131.882 32.97-197.823 56.05-70.887 18.134-131.882 51.105-159.907 123.64-56.05 131.882-18.134 291.79 141.773 370.919 74.184 37.916 158.259 46.159 239.037 41.213 95.615-3.297 178.041-28.025 255.522-79.13 79.13-56.05 126.937-136.827 140.125-240.684z" style="fill:#000;fill-opacity:1;fill-rule:nonzero;stroke:none;"/>
</svg>
