<svg xmlns="http://www.w3.org/2000/svg" viewBox="0 0 1000 1000"><path d="M5 500.496c0 271.98 220.55 494.507 495.496 494.507 271.98 0 494.507-220.55 494.507-495.496C995.003 227.528 773.464 5 500.496 5 226.54 5 5 225.55 5 500.496zm92.967-26.703c1.978-26.704 4.945-50.44 11.869-75.165 8.9-31.649 20.769-61.32 36.593-89.012 12.857-24.725 26.703-45.494 43.517-67.253 8.9-8.9 15.824-16.813 22.747-25.714 8.901-8.901 19.78-15.824 28.681-24.725 8.902-6.923 16.814-13.847 27.693-20.77 20.77-15.824 42.527-28.681 66.264-38.571 12.857-5.934 26.703-10.88 38.571-15.824 19.78-6.924 38.572-10.88 58.352-15.825 9.89-1.978 20.77-1.978 32.638-3.956 19.78-2.967 38.571-.989 58.351-.989 15.825 0 31.649 2.967 48.462 4.945 22.748 2.967 44.506 8.901 67.253 15.825 22.747 8.9 45.495 18.79 66.264 31.648 18.791 9.89 36.594 22.747 54.396 36.594 9.89 6.923 16.813 13.846 25.714 22.747 5.934 4.945 12.857 10.88 17.803 17.802 15.824 15.824 27.692 30.66 40.55 50.44 11.867 17.802 23.735 36.593 32.637 57.363 12.857 26.703 20.769 54.396 28.681 84.066 2.967 13.846 4.945 29.67 6.923 45.495 0 13.846.99 26.703.99 40.55v20.768c-.99 15.825-2.968 29.67-4.946 45.495-2.967 24.725-10.88 47.473-17.802 70.22-7.912 26.704-20.77 50.44-36.594 75.165-9.89 19.78-22.747 36.594-36.593 52.418-10.88 10.88-20.77 21.758-29.67 31.648-18.792 20.77-40.55 35.605-61.32 49.451-24.725 13.846-49.45 25.715-75.165 36.594-17.802 7.912-34.615 11.868-52.417 17.802-12.858.989-22.748 2.967-35.605 4.945-29.67 4.945-59.34 4.945-87.033 2.967-13.846 0-26.704-.989-38.572-4.945-22.747-2.967-43.516-8.901-65.275-15.824-27.692-8.901-53.406-20.77-78.132-36.594-19.78-10.879-36.593-24.725-52.418-38.571-12.857-8.901-24.725-20.77-35.604-31.649-13.846-13.846-23.736-29.67-36.594-45.494-11.868-18.792-24.725-38.572-32.637-59.341-10.88-22.748-19.78-45.495-26.703-68.242-3.957-17.803-6.924-33.627-10.88-50.44-2.967-28.681-2.967-58.352-.989-86.044zm39.56 29.67c0 106.814 38.572 197.803 117.694 270.001 70.22 64.286 154.286 97.912 250.22 97.912 104.836 0 195.825-38.571 268.023-115.714 66.264-70.22 99.89-154.286 99.89-252.199 0-104.835-40.549-195.825-117.692-268.023-70.22-66.264-154.286-99.89-250.22-99.89-101.87 0-188.902 36.593-261.1 106.813-72.199 70.22-106.814 159.232-106.814 261.1zm31.65 6.923c0-11.868-1.979-24.725 0-36.593 3.955-10.88 3.955-20.77 4.944-29.67 1.978-12.858 5.935-24.726 8.902-35.605 0-2.967 1.978-6.923 3.956-9.89h6.923c2.967 1.978 4.945 6.923 4.945 9.89-1.978 5.934-2.967 12.857-4.945 17.802-3.956 17.802-6.923 33.627-6.923 50.44C185 487.639 185 498.518 185 508.408c0 3.956-1.978 5.934-4.945 6.923-5.935 3.956-10.88 0-10.88-4.945zm17.802 101.869c-1.978-6.923 1.978-10.88 4.945-10.88 6.923 0 8.9 3.957 10.879 6.924 2.967 8.9 6.923 17.802 9.89 28.681 8.901 18.791 19.78 37.583 31.648 53.407 1.978 3.956 3.957 5.934 5.935 6.923.989 3.956 0 7.912-1.978 8.901-1.979 1.978-6.924 3.956-8.902 1.978-3.956-1.978-4.945-4.945-6.923-6.923-15.824-22.747-30.66-49.45-40.55-75.165-1.977-4.945-4.944-10.88-4.944-13.846zm27.692-112.748c1.978-78.132 29.67-146.374 86.044-202.748 56.374-56.374 125.605-84.066 206.704-84.066 78.132 0 146.374 29.67 202.748 84.066 60.33 57.363 88.022 129.561 86.044 211.65-1.978 79.12-29.67 147.362-86.044 201.758-58.352 55.385-125.605 84.066-213.627 84.066-71.209 0-141.429-27.692-197.803-84.066-58.352-58.352-86.044-127.583-84.066-210.66zm13.846-186.924s1.978-2.967 3.956-4.945c13.846-19.78 29.67-36.593 47.473-52.417 6.923-6.924 15.824-13.847 23.736-21.759 3.956-.989 7.912-.989 10.88 1.978 1.978 3.956 1.978 6.923-1.979 10.88-4.945 4.945-11.868 9.89-16.813 15.824-10.879 9.89-22.747 20.769-31.648 31.648l-21.759 25.715c0 1.978-.989 1.978-2.967 3.956-6.923.989-11.868-1.978-10.879-10.88zm81.1 463.848c-1.979-2.967-1.979-6.923 0-8.901 1.977-.989 2.966-2.967 4.944-2.967 3.957 0 4.946 0 6.924 1.978 26.703 18.791 54.395 30.66 84.066 41.539 1.978 0 3.956 1.978 4.945 1.978 3.956 1.978 6.923 6.923 5.934 8.9 0 4.946-5.934 7.913-10.88 6.924-6.922-1.978-11.867-5.934-18.79-6.923-26.704-10.88-51.43-22.748-74.177-38.572-.989-1.978-2.967-3.956-2.967-3.956zm80.11-171.1h52.417c3.956 0 6.923 0 10.88 2.968v31.648c0 4.945 0 4.945 4.945 4.945h24.725c13.846 0 13.846 1.978 13.846-11.868v-26.703h24.725v33.626c0 4.945 0 4.945 4.946 4.945h36.593v-43.516c3.956 0 6.923-1.978 10.88-2.967 15.823-3.957 27.692-10.88 40.549-22.748 4.945-6.923 8.9-12.857 9.89-21.758 1.978-6.923 1.978-13.846 1.978-22.747-1.978-13.847-4.945-27.693-15.824-38.572-2.967-2.967-6.923-6.923-9.89-7.912-6.923-3.956-14.836-10.88-24.726-8.901 4.945-3.956 8.901-6.923 11.868-6.923 8.902-3.956 13.847-12.858 19.78-17.803 4.946-10.879 9.89-22.747 9.89-34.615 0-15.824-6.922-28.681-20.768-38.572-6.924-7.912-17.803-12.857-27.693-14.835-1.978 0-3.956-.989-3.956-4.945-1.978-1.978-1.978-2.967-1.978-4.945v-33.626h-41.539c-1.978 13.846 0 26.703-1.978 40.55h-24.725v-38.572c-7.912-1.978-36.593-1.978-41.539 0v38.571c-10.879 0-20.769 1.978-29.67 0-8.901-1.978-19.78-1.978-28.681-1.978-4.945 0-4.945 1.978-4.945 4.945v26.704c3.956 4.945 8.9 3.956 12.857 3.956 9.89 0 16.813 6.923 16.813 16.813v143.407c0 8.901-6.923 15.824-16.813 15.824h-12.857zm0-410.44c0-2.967 1.978-7.912 6.923-9.89l22.747-6.924c17.802-3.956 35.605-6.923 54.396-8.9 8.9 0 17.802-1.979 26.703-1.979a8.864 8.864 0 0 1 8.901 8.901c0 3.957-3.956 6.924-8.9 6.924C489.616 185 480.715 185 470.825 185c-17.803 2.967-37.583 4.945-54.396 11.868-5.934 0-8.901 1.978-12.857 3.956h-8.901c-2.967-1.978-2.967-3.956-4.945-5.934zm4.945 513.298h8.9c1.979-10.879 1.979-36.593 0-43.516h-8.9zm21.758 0h9.89v-18.791c0-3.956 1.978-5.934 3.956-5.934 2.967 0 4.945 1.978 4.945 5.934v18.791h10.88v-22.747c-1.979-6.923-6.924-11.868-15.825-8.901-1.978 0-4.945 1.978-8.901 0h-4.945zm38.572-22.747c.989 0 .989 1.978.989 3.956v6.923c0 9.89 3.956 11.868 12.857 11.868h2.967c3.956-6.923-.99-6.923-4.945-8.901v-13.846c1.978-1.978 3.956-1.978 4.945-1.978v-6.923c-6.923 1.978-4.945-2.967-6.923-8.901-4.945 0-8.901 1.978-9.89 6.923-1.979 3.956-3.957 7.912 0 10.879zm23.736 13.846c1.978 6.923 8.901 8.901 14.835 8.901h7.912c1.978 0 3.956-1.978 3.956-1.978 1.978-.989 0-2.967 0-4.945-10.879 1.978-10.879 1.978-17.802-4.945h19.78c1.978-3.956 1.978-5.934 1.978-6.923-1.978-5.934-3.956-10.88-10.879-12.857-6.923-1.978-11.868-1.978-15.824 5.934-4.945 4.945-4.945 11.868-3.956 16.813zm1.978-136.484V496.54c1.978-1.978 3.956-1.978 5.934-1.978h29.67c7.913 1.978 16.814 1.978 25.715 4.945 12.857 3.956 17.802 10.88 19.78 22.747.99 10.88 0 21.759-6.923 30.66-5.934 6.923-14.835 7.912-22.747 9.89h-10.88c-6.923 0-11.868 1.978-19.78 1.978-6.923 0-13.846-1.978-20.77-1.978zm0-104.835c-1.978-6.924-1.978-41.54 0-57.363 19.78 0 36.593 0 54.396.989 6.923 1.978 11.868 3.956 15.824 8.9 4.945 5.935 6.923 12.858 4.945 20.77-2.967 14.835-9.89 22.747-23.736 24.726-5.934 1.978-10.88 1.978-15.825 1.978zm20.77 374.836c0-3.956 1.977-8.901 7.911-8.901h2.967c15.825 0 29.67-1.978 45.495-4.945 15.824-1.978 31.648-5.934 47.473-10.88 2.967-1.977 6.923-1.977 10.879-1.977 0 1.978 0 1.978.989 1.978 3.956 6.923 3.956 11.868-4.945 13.846-11.868 3.956-24.726 6.923-38.572 10.879-13.846 2.967-27.692 4.945-43.516 6.923h-22.748c-3.956 0-5.934-3.956-5.934-6.923zm14.834-124.616h9.89v-15.824c0-2.967 0-4.945 5.935-6.923 4.945-1.978 4.945-2.967.989-10.88-2.967 1.979-4.945 3.957-8.901 5.935-.99-5.934-4.946-3.956-7.913-3.956zm23.737-11.868c0 4.945 3.956 9.89 10.879 11.868 4.945 1.978 10.88 1.978 17.802 0 0-2.967 0-4.945-1.978-6.923-4.945 0-11.868 1.978-17.802-4.945h20.77v-6.923c-.99-10.88-7.913-15.824-16.814-12.857-8.901 1.978-13.846 8.9-12.857 19.78zm37.582 11.868h13.846c2.968 0 6.924-1.978 8.902-4.945.989-6.923 0-10.88-6.923-13.846-1.979 0-3.957-1.978-7.913-1.978 3.956-6.923 8.902-1.978 12.858-4.945v-3.956c-6.924-3.956-8.902-3.956-13.847-1.978-5.934 1.978-6.923 3.956-6.923 8.9 0 4.946.99 8.902 6.923 10.88.99 0 2.967.989 6.923.989-5.934 3.956-5.934 3.956-13.846 3.956zm15.825-520.221c.989-2.967 4.945-6.923 7.912-6.923 6.923 1.978 12.857 3.956 15.824 5.934 28.681 9.89 54.396 23.736 79.121 39.56 1.978 1.978 1.978 1.978 2.967 3.956 3.956 2.967 3.956 2.967 1.978 8.901-1.978 2.967-2.967 2.967-8.901 2.967 0 0-2.967 0-4.945-.989-13.846-10.879-27.693-19.78-45.495-26.703-11.868-4.945-24.725-10.88-38.571-15.824-1.978 0-2.967 0-4.945-1.978-3.956-1.978-6.924-6.923-4.945-8.901zm11.868 495.496c2.967 1.978 2.967 3.956 2.967 5.934v7.912c0 7.912 3.956 10.88 12.857 10.88h2.967c3.956-6.924-.99-8.902-4.945-8.902v-13.846c1.978-1.978 3.956-1.978 6.923-1.978v-4.945c-6.923-3.956-6.923-3.956-8.901-10.88h-2.967c-1.978 0-3.956 1.979-5.934 1.979-.99 3.956-.99 6.923-2.967 12.857zm89.011 79.12 4.945-4.944c15.824-10.88 28.681-24.725 42.528-36.594 8.9-10.879 15.824-21.758 24.725-31.648 0-1.978 1.978-3.956 4.945-3.956 4.945-2.967 10.88 0 10.88 8.9-1.979 0-1.979 2.968-3.957 6.924-13.846 17.802-29.67 34.616-47.472 50.44-6.924 6.923-15.825 14.835-22.748 19.78-.989 1.978-2.967 1.978-2.967 2.967-3.956 0-6.923 0-8.901-.989-3.956-3.956-3.956-6.923-1.978-10.88zm66.264-451.979c-2.967-2.967-.99-6.923 0-9.89 3.956-3.956 8.901-1.978 12.857.99 2.967 5.933 8.901 10.878 11.868 15.823 13.846 22.748 26.704 45.495 35.605 72.199.989 1.978.989 4.945 2.967 6.923 0 4.945-1.978 8.9-4.945 8.9-4.945 1.979-8.901 0-10.88-4.944-1.977-3.956-2.966-8.901-4.944-14.836-5.935-18.79-17.803-36.593-27.693-53.406-3.956-7.912-8.901-14.836-14.835-21.759zm51.429 283.847c4.945-17.802 8.9-34.615 9.89-52.417 1.978-13.846 1.978-26.704 3.956-38.572v-6.923c0-3.956 4.945-6.923 8.901-6.923 2.967 1.978 6.923 2.967 6.923 8.901-1.978 11.868 0 23.736-1.978 36.594-1.978 20.769-4.945 40.55-10.88 59.34-.988 1.979-.988 3.957-.988 4.946-3.956 8.9-3.956 8.9-13.846 8.9-3.956-4.944-3.956-8.9-1.978-13.846z"/></svg>