<svg xmlns="http://www.w3.org/2000/svg" viewBox="0 0 1000 1000"><path d="M995.003 499.507C995.003 227.528 773.464 5 500.496 5 226.54 5 5 225.55 5 500.496c0 271.98 220.55 494.507 495.496 494.507 271.98 0 494.507-220.55 494.507-495.496zM341.265 701.266V294.781c99.89 85.055 200.77 169.122 301.65 253.188 1.977-3.956 1.977-6.923 1.977-8.901V326.43c0-1.978-1.978-8.902-4.945-10.88-33.626-29.67-68.242-59.34-102.857-89.01-1.978 0-1.978 0-3.956-1.979v143.407h-2.967c-3.956-4.945-10.88-8.9-15.825-13.846-13.846-15.824-26.703-29.67-40.55-43.517-2.966-1.978-4.944-6.923-4.944-10.879V69.286c4.945 1.978 8.9 3.956 11.868 8.901 70.22 61.319 141.429 125.605 211.649 186.924 6.923 6.923 11.868 11.868 18.791 15.824 1.978 4.945 3.956 9.89 3.956 11.868v380.77c0 6.924 2.967 13.847 2.967 20.77 0 1.978-2.967 4.945-2.967 6.923-99.89-84.066-200.77-166.154-300.66-251.21-2.967 4.945-2.967 6.924-2.967 8.902v210.66c0 3.956 2.967 8.9 4.945 10.879 34.615 29.67 68.242 59.34 104.835 89.011l2.968 2.967v-151.32h1.978c3.956 2.968 6.923 4.946 10.879 9.891l55.385 47.473c1.978 1.978 3.956 6.923 3.956 8.9v235.386c0 1.978-1.978 1.978-1.978 4.945h-1.978l-102.858-89.01c-36.594-32.637-75.165-64.286-111.759-95.934-8.9-9.89-20.769-18.792-29.67-27.693-4.945-1.978-6.923-6.923-6.923-13.846z"/></svg>