<?xml version="1.0" encoding="UTF-8"?><svg id="a" xmlns="http://www.w3.org/2000/svg" viewBox="0 0 1000 1000"><path d="M292.975,672.496c6.978,23.994,13.922,47.989,20.9,71.983-13.939,0-27.878,.042-41.825-.025,6.995-23.977,13.888-47.989,20.925-71.958Zm484.535,131.919v3.502c1.721-.186,4.968,.5,5.062-2.077-.848-1.933-3.434-1.187-5.062-1.424Zm11.429,1.586c1.992,5.638-3.23,12.082-9.165,11.412-5.943-.093-10.318-7.156-7.605-12.481,.899-2.391,2.967-4.138,5.35-4.943,4.612-1.628,10.234,1.204,11.421,6.011Zm-3.256,8.733c-1.043-1.882-2.213-3.68-3.654-5.257,2.416-.805,3.722-3.926,1.73-5.859-2.484-1.56-5.613-.61-8.377-.822-.008,3.951,0,7.902,0,11.862,.526-.008,1.577-.008,2.103-.008,.008-1.781,.025-3.536,.085-5.299,.924,.297,1.967,.365,2.772,.992,1.662,1.797,2.077,5.325,5.342,4.392Zm214.316-314.733c0,276.143-223.858,500-500,500S0,776.143,0,500,223.858,0,500,0s500,223.858,500,500ZM468.635,180.5c.068,94.528,.008,189.047,.034,283.567,.068,44.25-.144,88.508,.102,132.758,19.323-.17,38.654-.034,57.977-.076,.008-138.761,.008-277.53,0-416.299-19.374,.034-38.747-.076-58.112,.051Zm-229.533,416.257c16.711-2.357,33.126-6.588,49.074-12.082,28.191-9.742,55.001-24.13,77.461-43.894,25.105-21.324,47.438-46.675,61.648-76.63,8.716-18.594,15.736-38.171,19.128-58.477,4.935-29.446,6.8-59.299,8.207-89.085,.856-20.628,1.441-41.274,1.331-61.928-.017-24.741,.025-49.481-.017-74.222-10.522,.025-21.044-.008-31.566,.025-.034,12.277,.068,24.554-.051,36.831-.839,36.238-3.095,72.501-8.513,108.357-4.324,28.208-10.683,56.374-22.562,82.454-10.09,22.689-23.384,44.046-40.061,62.496-16.152,17.873-35.339,33.033-56.654,44.301-17.966,9.437-37.306,16.576-57.426,19.603,.017,20.747,.017,41.503,0,62.25Zm126.297,222.767c-16.788-57.858-33.677-115.682-50.49-173.532-1.331-4.646-3.934-8.962-7.648-12.09-9.081-7.944-24.401-6.325-31.803,3.146-4.163,4.714-4.884,11.166-6.791,16.932-16.05,55.17-32.041,110.357-48.014,165.545,9.869,.008,19.738-.017,29.607,.017,4.612-15.991,9.25-31.964,13.947-47.921,19.187,.008,38.366-.025,57.553,.017,4.621,15.965,9.191,31.947,13.871,47.896,9.92-.025,19.848,0,29.768-.008Zm45.827-161.297c13.21-.025,26.419,0,39.638-.008v-29.039h-107.678c-.008,9.683,0,19.357,0,29.039,13.218,.008,26.428-.017,39.646,.008-.017,53.763-.008,107.534-.008,161.297h28.395c.017-53.763,.008-107.534,.008-161.297Zm164.019,161.263c-16.796-57.807-33.652-115.597-50.448-173.404-2.128-7.817-8.292-14.761-16.347-16.618-8.801-2.315-18.797,1.323-23.969,8.826-3.247,4.324-3.9,9.844-5.587,14.854-16.092,55.45-32.244,110.892-48.209,166.384,9.861-.017,19.713,0,29.573-.008,4.578-15.974,9.301-31.914,13.879-47.887,19.153-.051,38.306-.008,57.46-.017,4.655,15.965,9.225,31.947,13.846,47.913,9.937-.042,19.865,.034,29.802-.042Zm135.327,.034c-15.338-22.994-30.955-45.818-45.979-69.007-1.577-3.23-1.424-7.749,1.628-10.073,5.562-4.121,12.031-6.927,17.229-11.556,9.835-8.479,15.202-21.273,16.194-34.067,1.441-12.218,.856-25.173-4.858-36.314-8.25-17.152-26.445-28.98-45.505-29.328-11.319-.008-22.638,.025-33.957-.017-2.883-.068-5.791,.254-8.521,1.195-9.267,2.968-16.211,12.158-16.27,21.926,.034,55.747,0,111.494,.017,167.24,9.538,.008,19.068-.008,28.607,.008,.034-51.779-.017-103.566,.017-155.345-.042-3.357,3.078-6.24,6.393-6.164,7.326-.068,14.66,.017,21.994-.034,10.607-.356,20.645,7.75,22.918,18.051,1.942,7.936,2.162,16.881-2.145,24.13-5.664,9.649-15.745,15.779-25.97,19.679-5.358,2.077-10.166,6.105-12.175,11.607-2.577,7.173-1.407,15.499,2.891,21.782,14.626,22.087,29.158,44.25,43.843,66.303,11.217-.042,22.434,0,33.652-.017Zm45.098-190.345h-30.099v190.345c10.03,.008,20.06-.017,30.082,.008,.034-63.454,.008-126.899,.017-190.353Zm.644-94.698c-8.445-1.229-16.754-3.273-24.876-5.867-29.116-9.326-55.916-25.538-78.029-46.624-23.155-22.053-40.926-49.405-53.254-78.834-13.006-30.421-18.823-63.31-22.952-95.961-5.045-42.037-6.486-84.421-6.147-126.73-10.454-.034-20.917-.017-31.379-.008-.008,22.74,0,45.488,0,68.227-.263,40.197,1.102,80.437,4.74,120.481,1.882,18.534,3.951,37.162,8.801,55.187,5.291,17.932,12.048,35.517,21.307,51.787,11.836,20.9,27.598,39.358,45.208,55.594,10.683,9.827,21.807,19.238,34.033,27.098,16.754,10.895,34.991,19.391,53.848,25.953,15.838,5.384,32.108,9.657,48.701,11.912-.017-20.739-.008-41.477,0-62.216Zm35.008,273.783c.246-6.91-7.097-12.379-13.659-10.463-4.74,1.043-8.419,5.604-8.258,10.488-.399,5.52,4.138,10.624,9.598,11.158,6.418,1.001,12.803-4.638,12.319-11.183Zm-309.257-63.784c13.888,.017,27.767,.008,41.655,.008-6.91-24.045-13.93-48.057-20.815-72.102-6.935,24.037-13.939,48.048-20.84,72.094Z"/></svg>