<svg xmlns="http://www.w3.org/2000/svg" width="1000" height="1000">
  <path d="M499.411 995c274.281 0 495.59-221.308 495.59-495.588C995 226.308 773.691 5 499.41 5 226.308 5 5 226.308 5 499.412 5 773.692 226.308 995 499.41 995zM226.308 562.98c-2.355-16.48 8.24-31.784 22.366-35.315 3.532-1.177 7.063-1.177 12.949-1.177h499.12c14.126 0 25.898 8.24 30.607 21.189 4.708 21.189-9.418 40.024-30.607 40.024H618.306c-3.532 0-3.532 1.177-3.532 3.531-14.126 35.315-27.075 71.807-41.2 105.945-14.127 38.847-28.253 76.516-43.556 115.363-4.709 14.126-16.48 21.19-30.607 21.19-15.303 0-25.897-7.064-30.606-21.19-27.075-74.162-56.504-147.146-83.58-220.13-1.176-3.532-3.53-4.71-7.062-4.71H258.09c-16.48 0-29.429-9.417-31.783-24.72zm1.177-135.375c4.709-10.594 15.303-18.834 29.43-20.012h58.858c-1.177-1.177-1.177-2.354-1.177-3.531-12.95-34.138-25.898-68.276-38.847-100.06-8.24-21.189-14.126-40.023-22.366-61.212-8.24-18.835 3.531-37.67 21.189-41.201 14.126-3.532 29.43 3.531 34.138 17.657 10.594 27.075 21.189 55.327 31.783 82.402l38.847 102.414c1.177 2.354 1.177 4.709 4.709 4.709 58.858-1.178 116.54-1.178 176.575-1.178h55.327c1.177 0 2.355-1.177 3.532-2.354 7.063-18.835 12.949-36.492 20.012-52.973 10.594-29.429 22.366-57.681 31.783-85.933 5.886-15.303 11.772-30.607 18.835-47.087 7.063-18.835 31.784-25.898 47.087-11.772 10.594 9.418 12.949 22.367 8.24 35.316-11.772 32.96-24.72 64.744-36.492 98.882-7.063 20.012-15.303 41.2-24.72 62.39 0 1.177 0 2.354-1.178 3.531h76.516c15.303 1.178 27.075 9.418 31.784 22.367 4.708 21.189-9.418 40.023-31.784 40.023h-499.12c-9.418 0-17.658-3.531-23.544-8.24-10.594-9.417-12.949-22.366-9.417-34.138zM448.793 587.7c16.48 44.732 34.138 89.464 50.618 133.02 16.48-44.733 34.138-89.465 50.619-133.02z" style="fill:#000;fill-opacity:1;fill-rule:nonzero;stroke:none;"/>
</svg>
