<svg xmlns="http://www.w3.org/2000/svg" width="1000" height="1000">
  <path d="M500.496 995.003c275.935 0 494.507-224.506 494.507-495.496C995.003 226.54 773.464 5 500.496 5 223.572 5 5 229.506 5 499.507c0 276.924 224.506 495.496 495.496 495.496zM298.737 499.507c-11.868-14.835-11.868-15.824 0-29.67 22.748-26.704 45.495-53.407 69.231-80.11 15.824-17.803 31.649-35.605 48.462-55.385-7.912-7.912-12.857-15.824-19.78-22.748-13.847-15.824-29.67-32.637-44.506-48.461-3.956-6.923-6.923-12.857-10.88-19.78 7.913-.99 14.836-4.946 21.76-4.946 25.714-1.978 52.417 0 80.11 0 15.824 0 32.637-3.956 44.505 15.825 28.681-33.627 55.385-64.286 81.1-95.935h124.615c7.912 8.901 5.934 15.824-.989 23.737-28.681 31.648-57.363 64.285-85.055 96.923-15.825 16.813-31.649 35.604-46.484 53.407 2.967 3.956 3.956 6.923 6.923 9.89C613.244 393.683 659.727 446.1 707.2 496.54c3.956 3.956 8.901 7.912 13.846 11.868v14.835c-4.945 4.946-11.868 8.902-15.824 14.836-23.736 24.725-45.495 50.44-68.242 77.143-13.846 16.813-28.681 34.615-44.505 51.429 7.912 8.9 14.835 15.824 20.769 23.736 15.824 16.813 31.648 33.626 46.483 51.429 3.957 3.956 4.946 9.89 7.913 14.835-6.924 2.967-11.869 5.934-16.814 5.934-27.692.989-55.384.989-82.088.989-16.813 0-35.604 2.967-45.494-16.813-6.924 7.912-11.869 12.857-15.825 17.802-19.78 21.758-38.571 43.517-58.352 65.275-3.956 3.956-8.9 8.901-12.857 8.901-39.56.99-77.143.99-115.714 0-10.88 0-12.858-4.945-7.913-12.857.99-2.967 3.957-5.934 4.946-7.912 27.692-31.649 55.384-63.297 83.077-93.957 15.824-19.78 31.648-37.582 48.461-56.373-3.956-4.946-5.934-8.902-8.9-11.869-47.473-52.417-94.946-104.835-141.43-156.264zm128.572-15.824c31.649 34.615 61.319 68.242 92.967 102.857 20.77-23.736 40.55-47.472 61.32-70.22-30.66-34.615-61.32-68.242-92.968-101.868-20.77 23.736-40.55 45.495-61.319 69.23z" style="fill:#000;fill-opacity:1;fill-rule:nonzero;stroke:none;"/>
</svg>
