<svg xmlns="http://www.w3.org/2000/svg" viewBox="0 0 1000 1000"><path d="M749.728 72.253C672.585 27.747 589.508 5 500.496 5c-90 0-173.077 22.747-250.22 67.253-74.177 44.506-133.517 103.846-178.023 178.023C27.747 327.419 5 410.496 5 499.507c0 90 22.747 173.078 67.253 250.22 44.506 74.177 103.846 133.518 178.023 178.023 77.143 44.506 160.22 67.253 250.22 67.253 89.011 0 172.089-22.747 249.232-67.253 74.176-44.505 133.517-103.846 178.022-178.022 44.506-77.143 67.253-160.22 67.253-250.22 0-89.012-22.747-172.09-67.253-249.232-44.505-74.177-103.846-133.517-178.022-178.023zM100.934 508.408c0-75.165 59.341-124.616 126.594-124.616 66.264 0 115.715 49.451 115.715 124.616 0 75.165-49.45 124.616-115.715 124.616-75.165 0-126.594-49.45-126.594-124.616zm38.572 0c0 50.44 37.582 88.023 88.022 88.023 41.539 0 74.176-37.583 74.176-88.023 0-49.45-32.637-87.033-74.176-87.033-50.44 0-88.022 37.583-88.022 87.033zm241.32 116.704V391.705h50.44c.988 0 66.263 176.044 66.263 175.055 8.901-17.802 20.77-51.429 68.242-176.044 7.912 0 48.462.989 56.374.989v233.407h-41.539v-150.33c-37.582 98.901-56.373 149.34-57.362 149.34l-48.462-.988c-15.824-41.539-38.572-107.803-60.33-148.352v150.33zm284.836-166.154c22.747-76.155 107.802-99.89 175.055-58.352 24.725 16.813 32.638 32.637 41.539 66.264-41.539 0-44.506 0-45.495-2.967-23.736-91.979-182.968-40.55-134.506 86.044 12.857 33.626 38.572 48.462 71.21 48.462 57.362 0 67.252-30.66 67.252-56.374h-58.352c-16.813 0-16.813-8.901-16.813-16.814 0-16.813 0-24.725 8.901-24.725h107.803v124.616h-41.539v-16.813c-9.89 24.725-66.264 37.582-99.89 24.725-65.275-24.725-99.89-90.99-75.165-174.066z"/></svg>