<svg xmlns="http://www.w3.org/2000/svg" width="1000" height="1000">
  <path d="M500.496 5C223.572 5 5 229.506 5 500.002c0 276.43 224.506 495.001 495.002 495.001 276.43 0 495.001-224.506 495.001-495.001C995.003 226.539 773.464 5 500.496 5zm-381.76 494.507c0-218.572 167.144-375.825 365.936-385.715 236.374-9.89 406.485 173.077 406.485 385.715-1.978 221.54-173.078 376.815-371.87 385.716-226.484 6.923-402.528-168.133-400.55-385.716zm43.517 0c0 186.924 153.297 342.2 338.243 342.2 191.869.988 345.166-152.31 347.144-342.2 0-187.913-153.297-342.199-340.22-342.199-191.87 0-345.167 151.32-345.167 342.2zm53.407-69.23 1.978-3.957c1.978 6.923 1.978 12.857 1.978 17.802 6.923 37.583 26.703 65.275 52.418 90.99 35.604 33.626 76.154 56.373 116.704 78.132 21.758 10.879 43.516 21.758 63.296 32.637 26.704 13.846 45.495 31.649 52.418 62.308 2.967-12.857 2.967-28.681-3.956-43.516-9.89-24.726-27.692-43.517-49.45-59.341-20.77-13.847-43.517-24.726-65.275-36.594-34.616-23.736-67.253-51.429-91.979-84.066-45.494-59.34-34.615-162.198 21.758-212.638 36.594-33.627 79.122-52.418 123.627-62.308 108.792-21.758 204.726 6.923 280.88 86.044 81.1 87.033 98.902 189.89 62.308 304.617v1.978c-2.967-18.792-2.967-35.605-6.923-54.396-10.879-41.539-36.593-74.176-70.22-98.902-40.55-31.648-89.011-50.44-135.495-69.23-4.945-1.979-9.89-2.968-15.824-4.946l-.99 1.978c6.924 2.967 11.87 5.934 18.792 9.89 34.616 20.77 74.176 38.572 105.825 64.286 50.44 41.539 83.077 95.935 75.165 162.199-3.956 52.418-29.67 94.945-75.165 125.605-40.55 28.681-84.066 47.472-134.506 53.406-85.055 9.89-160.22-9.89-225.495-64.286-92.968-77.143-126.594-178.022-101.869-297.693zm114.726 188.9c6.923 34.616 11.868 68.243 17.802 104.836.989 5.934 3.956 9.89 9.89 12.858 21.758 12.857 45.495 23.736 68.242 30.659 69.231 21.758 133.517 12.857 191.869-27.692 52.418-36.594 76.154-102.858 59.34-163.188-9.89-36.593-33.626-63.297-64.285-84.066-26.704-18.791-56.374-34.615-85.055-50.44-25.715-12.857-49.451-24.725-70.22-47.472-27.693-29.67-24.726-83.078 5.934-112.748 31.648-28.681 86.044-25.714 119.67 6.923 16.814 15.824 28.682 35.605 37.583 56.374 2.967 9.89 5.934 17.802 10.88 27.692 8.9-1.978 16.812-2.967 26.702-5.934-.989-1.978-.989-5.934-.989-7.912-3.956-32.637-8.9-66.264-13.846-99.89 0-5.934-2.967-8.901-8.9-9.89-24.726-5.935-50.44-14.836-75.166-17.803-47.473-6.923-93.956 0-137.473 23.737-85.055 47.472-107.803 168.132-29.67 236.374 20.769 15.824 43.516 31.648 65.275 44.506 26.703 14.835 52.417 29.67 76.154 45.494 30.66 20.77 50.44 47.473 49.45 87.034-2.967 46.483-35.604 78.132-81.099 78.132-28.681 0-51.429-10.88-72.198-29.67-30.66-25.715-50.44-59.342-63.297-95.935-2.967-1.978-4.945-5.934-4.945-8.901-10.879 2.967-19.78 5.934-31.648 6.923z" style="fill:#000;fill-opacity:1;fill-rule:nonzero;stroke:none;"/>
</svg>
