<svg xmlns="http://www.w3.org/2000/svg" viewBox="0 0 1000 1000"><path d="M5 500.496C5 225.55 226.54 5 500.496 5c272.968 0 494.507 222.528 494.507 494.507 0 274.946-222.528 495.496-494.507 495.496C225.55 995.003 5 772.475 5 500.496zM144.451 757.64h330.33c3.957 0 10.88-7.912 14.836-15.824 7.912-22.748 18.791-52.418 26.703-79.122 3.956-7.912 7.913-10.879 18.792-10.879h163.187c11.868 0 15.824 2.967 19.78 14.836 6.923 26.703 18.792 52.417 29.67 79.12 0 3.957 7.913 11.869 11.869 11.869h101.868c0-7.912-3.956-11.868-3.956-15.824-51.428-151.32-109.78-303.628-162.198-454.947-28.681-65.275-2.967-57.363-83.077-57.363-50.44 0-50.44 0-69.231 45.495-41.539 118.682-83.077 240.33-128.572 357.034 0 7.912-8.901 14.835-11.868 19.78H295.77c49.45-145.385 98.902-280.88 152.308-422.309h-97.912c-11.868 0-19.78 3.956-22.747 15.824-57.363 167.144-118.682 329.342-180 496.486 0 3.956 0 7.912-2.968 15.824zm417.364-215.605c18.791-50.44 34.616-99.89 52.418-156.265 23.736 56.374 38.571 105.825 58.352 156.265z"/></svg>