<svg xmlns="http://www.w3.org/2000/svg" viewBox="0 0 1000 1000"><path d="M943.86 375.084v256.963c0 16.905 5.635 27.048 19.16 37.192 37.192 22.54 41.7 89.035 12.397 118.337-25.922 36.065-74.384 43.954-112.703 14.652-12.397-9.016-19.16-9.016-31.557-1.127-100.305 58.605-203.991 114.956-304.297 173.562-15.778 10.143-32.684 12.397-51.843 1.127-99.179-58.605-200.611-114.957-299.79-173.562-16.905-9.016-25.921-9.016-39.445 2.254-34.938 29.303-87.908 20.286-113.83-19.16-30.43-41.7-16.905-93.543 16.905-113.83 14.652-12.397 19.16-25.921 19.16-43.953a9679.417 9679.417 0 0 1 0-255.836c0-19.16-4.508-31.556-19.16-45.08-30.43-19.16-49.589-68.75-14.651-117.212 25.922-36.064 76.638-42.827 113.83-12.397 14.651 11.27 24.794 9.016 37.192 0C276.66 138.41 376.966 82.057 475.017 23.452c19.16-9.016 34.938-9.016 50.716 0 52.97 30.43 108.195 59.732 160.038 92.416 49.59 28.176 98.051 54.097 145.386 84.527 14.652 7.89 21.414 5.635 33.811-3.38 31.557-23.668 75.511-19.16 101.433 5.634 38.319 32.684 38.319 93.544-1.127 127.354-15.779 12.398-21.414 24.795-21.414 45.081zm-827.238 246.82c0 20.286 6.762 37.191 27.049 52.97 22.54 15.778 33.81 41.7 28.176 71.002-3.382 19.16 3.38 29.303 20.286 36.065 77.765 42.827 155.53 91.29 232.168 135.244 18.032 11.27 39.446 21.413 63.113 33.81V710.94c0-11.27-6.762-32.684 12.397-32.684 18.033 0 16.906 21.413 16.906 36.065v201.737c0 9.017 0 19.16 1.127 31.557 11.27-5.635 21.413-9.016 28.176-11.27 89.035-52.97 178.07-102.56 265.978-154.403 14.651-9.016 19.16-15.778 16.905-32.684-3.38-31.556 4.509-58.605 30.43-77.764 14.651-12.398 18.033-25.922 18.033-41.7v-277.25c-2.254-10.142-10.144-16.905-22.541-10.142-4.508 1.127-11.27 3.38-15.778 7.889-77.765 43.954-156.657 89.035-234.422 136.37-6.762 5.635-14.651 16.906-19.16 25.922-10.143 15.778-10.143 32.684-29.302 50.716-49.59 42.827-120.592 19.16-137.497-45.081-3.382-12.397-5.636-25.922-22.541-33.81-46.208-25.923-90.162-51.844-136.37-76.639-36.065-22.54-72.13-42.827-110.449-64.24-16.905-10.144-30.43-3.381-30.43 16.905-2.254 5.635 0 11.27 0 14.651 0 83.4 0 165.673-2.254 246.82zM192.133 217.3c-29.303 15.778-29.303 56.351 2.254 74.383 75.51 43.954 153.276 90.163 227.66 134.117 11.27 6.762 22.54 9.016 34.937 2.254 27.05-16.906 59.733-19.16 85.654 0 10.144 6.762 19.16 6.762 32.684 0 75.511-45.081 155.53-92.417 234.422-136.37 29.303-16.906 29.303-58.606 0-74.384l-10.143-7.89C715.074 160.948 629.42 111.36 546.02 65.15c-6.763-4.507-16.906-6.761-29.303-14.65v241.183c0 12.398 0 29.303-15.779 31.557-18.032 0-13.524-19.16-13.524-29.303V48.247c-9.016 5.635-15.778 7.889-21.413 10.143-90.163 52.97-183.706 104.813-273.868 158.91z"/></svg>