<svg xmlns="http://www.w3.org/2000/svg" viewBox="0 0 1000 1000"><path d="M500,995c273.38,0,495-221.62,495-495S773.38,5,500,5,5,226.62,5,500,226.62,995,500,995ZM201,714.27H315.71c18,43.28,50.65,103,97.39,145.73H348.17Zm283.53,0H343.12C376,792.76,429.46,844.13,452.06,860h32.47ZM512.66,860V714.27h140c-9.86,30.06-45,101.29-106.77,145.73ZM798.35,714.27,652.62,860H583.36c18.76-10.82,80.81-88,96.68-145.73ZM346.73,140,201,285.73H319.32C335.19,228,397.23,150.82,416,140Zm140,145.73V140H453.51c-61.76,44.44-96.92,115.67-106.78,145.73Zm169.54,0H514.83V140h32.46C569.9,155.87,623.33,207.24,656.23,285.73Zm27.42,0h114.7L651.18,140H586.25C633,182.71,665.61,242.45,683.65,285.73Zm-51.33,92.56q27.67,0,46,22L709.22,360a84.22,84.22,0,0,0-33.76-23.91q-19.69-8.44-45-8.44a100.25,100.25,0,0,0-34.23,6.09,86,86,0,0,0-30.48,17.82q-13.12,12.19-21.57,30.95-8,18.28-8,44.08,0,20.64,5.16,35.64A98.43,98.43,0,0,0,555.88,488,109.58,109.58,0,0,0,577,506.78a228.55,228.55,0,0,0,25.8,14.54q21.57,10.78,35.64,23.45T652.48,579q0,22-11.72,34.23t-29.54,12.19a71.34,71.34,0,0,1-31.42-7.5A78.4,78.4,0,0,1,554,597.29l-30.48,41.26Q537.6,655,561,665.75a120.84,120.84,0,0,0,51.12,10.79A102.42,102.42,0,0,0,648.73,670a83.73,83.73,0,0,0,30-19.23,93.49,93.49,0,0,0,20.64-31.88q8-18.76,8-43.14,0-21.11-6.57-36.58a92.45,92.45,0,0,0-16.88-26.73,111.62,111.62,0,0,0-23-19.23q-12.66-8-24.85-14.07-20.62-10.31-33.29-21.57-12.66-11.71-12.67-32.82a61.06,61.06,0,0,1,3.29-21.11,41.15,41.15,0,0,1,9.84-14.53,35.54,35.54,0,0,1,13.6-8A43.72,43.72,0,0,1,632.32,378.29Zm-326.17-42.2v332H459.49V617.92H360.08v-98h87.69V474H360.08V385.8H454.8V336.09Z" fill-rule="evenodd"/></svg>