<svg xmlns="http://www.w3.org/2000/svg" width="1000" height="1000">
  <path d="M5 500.002v.395-.395c.099-89.506 22.55-172.682 67.253-249.726 44.209-74.473 103.55-133.814 178.023-178.023C327.419 27.45 410.694 5 500.002 5c89.308 0 172.583 22.45 249.726 67.253C824.2 116.462 883.54 175.803 927.75 250.276c44.803 77.143 67.253 160.418 67.253 249.726 0 89.308-22.45 172.583-67.253 249.726C883.541 824.2 824.2 883.54 749.728 927.75c-77.143 44.803-160.418 67.253-249.726 67.253-89.308 0-172.583-22.45-249.726-67.253-74.473-44.209-133.814-103.55-178.023-178.022C27.55 672.684 5.099 589.508 5 500.002zm197.803 66.758 48.462 181.979L433.243 797.2l22.748-22.747-76.155-76.154-61.318-16.813-23.737-90 161.21-162.199-57.363-58.352zm0-133.517 22.747 22.747 76.154-76.154 16.814-61.318 90-23.737 162.198 161.21 58.352-57.363-195.825-195.825-181.978 48.462zm168.132 168.133L566.76 797.2l181.98-48.46 48.46-181.98-22.747-22.747-76.154 76.154-16.813 61.319-90 23.736-162.199-161.21zm173.078-30.66 57.363 58.352L797.2 433.243l-48.46-181.978-181.98-48.462-22.747 22.747 76.154 76.154 61.319 16.814 23.736 90z" style="fill:#000;fill-opacity:1;fill-rule:nonzero;stroke:none;"/>
</svg>
