<?xml version="1.0" encoding="UTF-8"?><svg id="a" xmlns="http://www.w3.org/2000/svg" viewBox="0 0 1000 1000"><path d="M580.749,454.931c0,20.501-16.62,37.12-37.12,37.12s-37.12-16.619-37.12-37.12,16.619-37.12,37.12-37.12,37.12,16.619,37.12,37.12Zm335.697,45.069c0,111.237-43.318,215.815-121.974,294.471-78.656,78.656-183.235,121.974-294.471,121.974-99.815,0-194.255-34.901-269.429-98.893l145.461-134.359-11.965-12.953-146.742,135.542c-3.919-3.63-7.796-7.32-11.597-11.116l179.618-165.909-11.965-12.953-179.854,166.127c-4.083-4.429-8.056-8.933-11.925-13.507l145.379-134.283-11.965-12.953-144.552,133.52c-56.356-72.608-86.908-161.307-86.908-254.707,0-111.237,43.318-215.815,121.974-294.471,78.656-78.656,183.235-121.974,294.471-121.974s215.815,43.318,294.471,121.974c78.656,78.656,121.974,183.235,121.974,294.471Zm-226.104-186.453c-138.759-10.606-244.817,130.805-244.817,130.805l-63.635,15.025-43.06,53.524,60.261,23.326c-.388,10.252,2.798,20.972,9.044,30.673l-25.001,27.387,25.874,23.62,24.986-27.371c15.884,8.587,33.261,10.461,47.595,6.173l-7.318,4.229,18.953,59.228,53.233-49.932,12.195-58.054c162.622-144.062,131.689-238.631,131.689-238.631Zm309.658,186.453c0,276.141-223.859,500-500,500S0,776.141,0,500,223.859,0,500,0s500,223.859,500,500Zm-43.383,0c0-252.182-204.434-456.617-456.617-456.617S43.383,247.818,43.383,500s204.435,456.617,456.617,456.617,456.617-204.434,456.617-456.617Z" fill-rule="evenodd"/></svg>