<?xml version="1.0" encoding="utf-8"?>
<!-- Generator: Adobe Illustrator 26.0.1, SVG Export Plug-In . SVG Version: 6.00 Build 0)  -->
<svg version="1.1" xmlns="http://www.w3.org/2000/svg" xmlns:xlink="http://www.w3.org/1999/xlink" x="0px" y="0px"
	 viewBox="0 0 1000 1000" style="enable-background:new 0 0 1000 1000;" xml:space="preserve">
<g id="Layer_1">
</g>
<g id="Layer_3">
</g>
<g id="Layer_2">
	<g>
		<path d="M368.2,466.8c19.5,0,36.1,12.5,41.7,29.9h51.8c-6.5-45.1-45.9-79.7-93.5-79.7s-87,34.6-93.5,79.7h51.8
			C332.2,479.3,348.7,466.8,368.2,466.8z"/>
		<path d="M500,0C223.9,0,0,223.9,0,500c0,276.1,223.9,500,500,500c276.1,0,500-223.9,500-500C1000,223.9,776.1,0,500,0z
			 M801.8,543.1H295.7l-21.8,0c23,100.8,114.5,176,223.8,176c90.4,0,168.6-51.4,206-126.2h98.1v139.5c0,33-27.2,59.8-60.7,59.8
			H255.2c-33.5,0-60.7-26.8-60.7-59.8V377.1h607.3V543.1z M645.4,593c-32.2,46.3-86.3,76.8-147.7,76.8S382.2,639.3,350,593H645.4z
			 M801.8,327.3H194.4v-73.1c0-33,27.2-59.8,60.7-59.8h485.9c33.5,0,60.7,26.8,60.7,59.8V327.3z"/>
		<path d="M628,466.8c19.5,0,36.1,12.5,41.7,29.9h51.8c-6.5-45.1-45.9-79.7-93.5-79.7c-47.6,0-87,34.6-93.5,79.7h51.8
			C592,479.3,608.5,466.8,628,466.8z"/>
	</g>
</g>
</svg>
