<svg xmlns="http://www.w3.org/2000/svg" width="1000" height="1000">
  <path d="M5 500.496C5 225.55 226.54 5 500.496 5c272.968 0 494.507 222.528 494.507 494.507 0 274.946-222.528 495.496-494.507 495.496C225.55 995.003 5 772.475 5 500.496zm180-6.923c-37.582 99.89-29.67 179.012 57.363 226.484 87.034 43.517 120.66 73.187 153.298 88.023 64.286 32.637 129.56 32.637 184.945-14.836 65.275-57.362 122.638-121.648 211.65-146.374 68.241-19.78 88.022-105.824 64.285-161.21-16.813-41.538-16.813-81.098-8.9-121.648 15.823-57.363-15.825-96.923-80.111-113.736-73.187-14.836-145.385-23.737-209.671-72.199-18.791-11.868-41.539-16.813-65.275-16.813-32.637 2.967-49.45 16.813-73.187 33.627-23.736 15.824-40.55 15.824-72.198 15.824-85.055 0-100.88 49.45-121.649 144.396-8.9 67.253-23.736 97.912-40.55 138.462zm129.561 6.923c0-111.758 81.1-193.847 193.847-193.847 113.737 0 169.122 82.089 178.023 193.847 0 104.836-96.924 187.913-185.935 178.023-115.715-8.901-193.847-80.11-185.935-178.023z" style="fill:#000;fill-opacity:1;fill-rule:nonzero;stroke:none;"/>
</svg>
