<svg xmlns="http://www.w3.org/2000/svg" viewBox="0 0 1000 1000"><path d="M505.175 89.245V5c236.124 0 458.01 186.29 481.742 433.093 35.596 288.333-156.626 522.085-430.72 554.122C274.983 1020.692 48.35 827.284 13.94 573.361 3.261 490.3 3.261 506.913 75.641 503.354h64.074c5.933 26.104 5.933 52.208 10.68 70.007 35.596 185.102 195.781 300.198 377.324 288.333 188.663-13.052 329.863-169.678 338.169-354.78 0-169.678-154.253-366.647-313.251-366.647-55.768 0-47.462 0-47.462-51.022zm-289.52 396.31V47.716c0-16.612 0-28.477 4.746-42.716h154.252v485.302c0 39.156 5.933 70.006 36.784 99.67 39.156 36.784 85.432 53.395 136.454 32.037 49.835-17.798 81.872-66.447 81.872-118.655 5.933-48.65-32.037-94.925-77.126-119.842-18.985-7.12-32.037-7.12-47.462-10.68V220.954c34.41-8.306 68.82 0 98.484 8.306 99.67 47.462 166.118 124.589 185.103 234.938 30.85 195.782-158.999 384.445-385.631 310.878-100.858-37.97-163.745-115.096-182.73-219.513-4.746-26.104-4.746-48.649-4.746-70.007zm289.52 97.298V420.295c47.462 0 81.872 34.41 81.872 83.059 0 52.208-34.41 86.618-81.872 79.499z"/></svg>