<svg xmlns="http://www.w3.org/2000/svg" width="1000" height="1000">
  <path d="M749.728 72.253C824.2 116.462 883.54 175.803 927.75 250.276c44.803 77.143 67.253 160.418 67.253 249.726 0 89.308-22.45 172.583-67.253 249.726C883.541 824.2 824.2 883.54 749.728 927.75c-77.143 44.803-160.418 67.253-249.726 67.253-89.308 0-172.583-22.45-249.726-67.253-74.473-44.209-133.814-103.55-178.023-178.022C27.451 672.585 5 589.31 5 500.002c0-89.308 22.45-172.583 67.253-249.726 44.209-74.473 103.55-133.814 178.023-178.023C327.419 27.45 410.793 5 500.496 5c89.011 0 172.089 22.45 249.232 67.253zM159.78 515.33c-2.967 11.176-1.484 21.759 4.45 31.649s14.341 16.319 25.22 19.286c10.88 2.967 21.264 1.483 31.154-4.451 10.583-5.934 17.308-14.34 20.275-25.22 2.967-10.879 1.483-21.461-4.45-31.648-5.935-10.187-14.54-16.814-25.715-19.78-11.176-2.968-21.758-1.484-31.648 4.45s-16.32 14.538-19.286 25.714zm56.868-117.198c2.67 9.594 8.209 16.616 16.813 21.264 8.605 4.648 17.803 5.637 27.693 2.967 5.934-1.978 11.176-5.242 15.824-9.89 4.648-4.648 7.615-10.088 8.901-16.319 1.286-6.23 1.187-12.56-.494-18.791-1.682-6.23-4.946-11.572-9.89-15.824-4.946-4.253-10.583-7.121-16.814-8.407-6.23-1.286-12.363-.989-18.297.989-9.197 2.67-16.12 8.209-20.769 16.813-4.648 8.605-5.637 17.605-2.967 27.198zm32.143 61.319c-2.275 8.901-1.187 17.506 3.462 25.714 4.648 8.21 11.373 13.55 20.274 15.825 8.901 2.274 17.308 1.186 25.22-3.462 8.605-4.648 14.044-11.374 16.319-20.275 2.275-8.9 1.187-17.505-3.462-25.714-4.648-8.209-11.571-13.55-20.769-15.824-9.198-2.275-17.802-1.187-25.714 3.461-7.912 4.649-13.055 11.374-15.33 20.275zm39.066-174.066c.692 8.208 4.154 15.033 10.385 20.274 6.23 5.242 13.351 7.912 21.264 7.912 5.934-.692 11.077-2.472 15.33-5.44 4.252-2.966 7.615-6.922 9.89-11.867 2.274-4.945 3.263-10.088 2.966-15.33-.296-5.242-1.978-10.187-4.945-14.835-2.967-4.649-6.923-8.11-11.868-10.385-4.945-2.275-10.088-3.165-15.33-2.472-8.604.692-15.527 4.153-20.769 10.384-5.242 6.231-7.615 13.55-6.923 21.759zm13.846 78.626c1.978 5.242 4.748 9.693 8.407 13.352 3.66 3.66 7.912 5.934 12.857 6.923 4.945.989 9.89.791 14.835-.495 4.945-1.285 9.198-3.956 12.858-7.912 3.659-3.956 6.131-8.406 7.417-13.351 1.286-4.945.99-10.088-.989-15.33-1.978-7.22-6.428-12.66-13.352-16.319-6.923-3.66-14.142-4.253-21.758-1.978-7.615 2.275-13.352 6.923-17.308 13.846-3.956 6.923-4.945 14.044-2.967 21.264zm7.418 208.682c.297 5.242 2.77 9.1 7.418 11.374 4.648 2.275 9.197 1.78 13.846-1.484 3.263-1.978 5.241-4.747 5.934-8.406.692-3.66-.198-7.121-2.473-10.385-2.274-3.264-5.242-5.242-8.9-5.934-3.66-.692-7.122 0-10.386 1.978-3.956 3.264-5.736 7.615-5.44 12.857zm.494 36.1c-2.67 5.637-2.274 11.076.99 16.318 2.67 3.264 6.131 5.242 10.384 5.934 4.253.692 8.209-.198 11.868-2.473 3.66-2.274 5.737-5.637 6.429-9.89.692-4.252 0-8.11-1.978-11.373-3.956-5.242-8.901-7.715-14.835-7.418-5.934.297-10.187 3.264-12.858 8.901zm9.396 47.966c-3.66 7.913-2.77 15.528 2.473 22.748 3.263 5.242 8.11 8.406 14.34 9.395 6.231.99 11.868-.296 16.814-3.956 4.945-3.659 7.912-8.406 8.9-14.34.99-5.934-.197-11.572-3.46-16.814-4.65-7.22-11.375-10.582-20.276-9.89-8.9.693-15.132 4.945-18.791 12.857zm.495-128.571c-1.978 4.648-1.682 8.9.989 12.857 1.978 2.67 4.747 4.252 8.406 4.945 3.66.692 6.725 0 9.396-1.978 2.67-1.978 4.253-4.649 4.945-7.912.692-3.264 0-6.627-1.978-9.89-2.67-3.957-6.429-5.737-11.374-5.44-4.945.297-8.406 2.77-10.384 7.418zm10.879-92.473c0 5.637 1.285 10.879 3.956 15.824 2.67 4.945 6.428 8.703 11.373 11.374 4.946 2.67 10.088 3.956 15.33 3.956 5.242 0 10.385-1.286 15.33-3.956s8.901-6.429 11.868-11.374c2.967-4.945 4.45-10.187 4.45-15.824 0-5.638-1.68-10.682-4.944-15.33-2.67-4.648-6.43-8.407-11.374-11.374-4.945-2.967-10.088-4.45-15.33-4.45-5.242 0-10.384 1.483-15.33 4.45-4.945 2.967-8.703 6.726-11.373 11.374-2.67 4.648-3.956 9.692-3.956 15.33zm12.857 282.363c-1.286 6.627 0 12.857 3.956 18.792 3.956 5.241 9.198 8.604 15.824 9.89 6.627 1.285 12.66 0 18.297-3.956 5.637-3.956 9.099-9.198 10.385-15.825 1.285-6.626 0-12.659-3.956-18.296-3.957-5.638-9.198-9.1-15.825-10.385-6.626-1.286-12.66 0-18.296 3.956-5.638 3.956-9.1 9.198-10.385 15.824zm21.264-445.55c.296 6.922 3.165 12.56 8.406 16.813 5.242 4.252 11.176 6.131 17.803 5.44 9.197-.693 16.022-5.243 20.274-13.847 4.253-8.604 3.66-16.615-1.978-24.23-5.637-7.616-13.055-11.078-22.252-10.386-6.627.693-12.066 3.462-16.32 8.407-4.252 4.945-6.23 10.88-5.933 17.802zm.494 295.22c0 4.648 1.682 8.407 4.945 11.374 3.264 2.967 7.22 4.45 11.868 4.45 4.649 0 8.21-1.681 10.88-4.945 4.648-4.648 6.132-9.89 4.45-15.824-1.681-5.934-5.637-9.692-11.868-11.374-6.23-1.68-11.374-.197-15.33 4.45-3.263 3.265-4.945 7.22-4.945 11.87zm1.484-45.99c.296 4.254 1.978 7.715 4.945 10.386 2.967 2.67 6.626 3.956 10.879 3.956 4.253 0 7.714-1.484 10.385-4.45 2.67-2.968 3.956-6.627 3.956-10.88 0-4.253-1.484-7.912-4.45-10.88-2.968-2.966-6.627-4.252-10.88-3.955-4.253.296-7.714 1.78-10.385 4.45-3.263 3.264-4.747 7.121-4.45 11.374zm8.9 96.924c.298 4.945 2.276 9.198 5.935 12.858 3.66 3.659 7.912 5.44 12.857 5.44 4.945 0 9.198-1.979 12.857-5.935 3.66-3.956 5.44-8.407 5.44-13.352s-1.978-9.197-5.934-12.857c-3.956-3.66-8.407-5.242-13.352-4.945-4.945.297-9.396 2.176-13.352 5.44-3.263 3.956-4.747 8.406-4.45 13.351zm1.484-266.539c3.264 10.582 9.89 17.011 19.78 19.286 9.89 2.274 18.495-.297 25.715-7.912 7.22-7.616 9.198-16.32 5.934-26.21-1.978-7.219-6.23-12.56-12.857-15.823-6.626-3.264-13.352-3.957-20.275-1.978-6.923 1.978-12.165 6.23-15.824 12.857-3.66 6.626-4.45 13.154-2.473 19.78zm7.418 419.837c-1.681 8.208-.198 15.824 4.45 22.747 4.649 6.923 11.078 11.176 19.286 12.857 8.21 1.681 16.022.198 23.242-4.45 6.627-5.242 10.682-11.869 12.363-19.78 1.681-7.913 0-15.33-4.945-22.254-4.945-6.923-11.572-11.175-19.78-12.857-8.21-1.681-15.627-.198-22.253 4.45-6.627 4.65-10.682 11.078-12.363 19.287zm13.846-97.913c.297 7.616 3.165 13.846 8.407 18.791s11.571 7.22 18.791 6.924c7.22-.297 13.55-3.165 18.791-8.407 5.242-5.242 7.715-11.572 7.418-18.791-.297-7.22-3.165-13.55-8.407-18.792-5.241-5.241-11.67-7.714-19.285-7.417-7.616.296-13.649 3.165-18.297 8.406-5.242 5.242-7.715 11.67-7.418 19.286zm12.363-254.177c0 8.21 3.66 14.539 10.879 18.792 7.22 4.253 14.539 4.154 21.758-.495 5.242-2.67 8.704-6.923 10.385-12.857 1.681-5.934.989-11.571-1.978-16.813-2.967-5.242-7.418-8.605-13.352-9.89-5.934-1.286-11.571-.693-16.813 1.978-7.22 4.648-10.88 11.077-10.88 19.285zm8.406 91.484c3.66 5.934 8.704 8.901 15.33 8.901 6.627 0 11.868-2.967 15.824-8.9 1.978-3.957 2.275-8.21.99-12.858-1.286-4.648-3.957-8.209-7.913-10.879-3.956-2.67-8.406-3.264-13.351-1.978-4.945 1.286-8.407 3.956-10.385 7.912-3.956 5.934-4.154 11.868-.495 17.802zm9.396 48.462c1.286 5.242 4.253 9.198 8.901 11.868 4.649 2.67 9.396 3.264 14.341 1.978 4.945-1.286 8.703-4.253 11.374-8.9 2.67-4.65 3.263-9.594 1.978-14.836-1.286-5.242-4.253-9.1-8.901-11.374-4.649-2.275-9.396-2.77-14.341-1.483-4.945 1.285-8.704 4.154-11.374 8.406-2.67 4.253-3.264 9.1-1.978 14.341zm0-283.353c.692 6.231 3.264 11.374 7.912 15.33 4.649 3.956 10.088 5.736 16.319 5.44 6.23-.297 11.374-2.967 15.33-7.912 3.956-4.945 5.736-10.583 5.44-16.814-.297-6.23-2.968-11.373-7.913-15.33-4.945-3.955-10.384-5.637-16.319-4.944-6.626.692-11.868 3.263-15.824 7.912-3.956 4.648-5.637 10.088-4.945 16.318zm14.34 448.024c-.988 4.945-.79 9.89.495 14.835 1.286 4.945 3.759 9.198 7.418 12.857 3.66 3.66 8.11 5.934 13.352 6.923 5.241.99 10.384.792 15.33-.494 4.944-1.286 9.098-3.956 12.362-7.912 5.242-5.934 7.912-12.857 7.912-20.77 0-7.912-2.967-14.538-8.901-19.78-5.934-5.242-12.857-7.912-20.77-7.912-7.911 0-14.538 2.967-19.78 8.901-3.956 3.956-6.428 8.407-7.417 13.352zm5.44-373.353c1.978 6.626 6.429 10.681 13.352 12.363 6.923 1.681 12.857-.198 17.802-5.44s6.429-11.176 4.45-17.802c-1.977-4.649-5.142-8.209-9.395-10.88-4.252-2.67-8.9-3.164-13.846-1.483-4.945 1.681-8.604 4.649-10.88 8.901-2.274 4.253-2.768 9.1-1.483 14.341zm5.44 264.067c1.681 5.934 5.143 10.384 10.385 13.351 5.241 2.968 10.681 3.66 16.318 1.979 5.638-1.682 10.088-5.143 13.352-10.385 3.956-6.627 3.758-13.649-.494-21.264-4.253-7.615-10.583-11.374-18.792-11.374-8.209 0-14.34 3.956-18.296 11.869-3.264 4.648-4.154 9.89-2.473 15.824zm22.253-197.309c-1.286 4.946-.692 9.693 1.978 14.341 3.956 6.627 9.593 9.89 16.813 9.89 7.22 0 12.66-3.263 16.319-9.89 3.66-6.626 3.461-12.857-.495-18.791-2.67-4.648-6.428-7.616-11.373-8.901-4.945-1.286-9.693-.693-14.341 1.978-4.648 2.67-7.615 6.428-8.901 11.373zm11.373-130.55c.297 4.253 2.176 7.913 5.44 10.88 3.264 2.967 7.121 4.252 11.374 3.956 4.252-.297 7.714-2.176 10.384-5.44 2.67-3.264 3.759-7.12 3.462-11.373-.297-4.253-2.176-7.913-5.44-10.88-3.263-2.967-6.923-4.153-10.879-3.461-4.648 0-8.209 1.681-10.879 4.945-2.67 3.264-3.758 7.12-3.462 11.374zm6.924 384.727c2.274 8.209 7.22 14.539 14.835 18.791 7.615 4.253 15.527 5.242 23.736 2.967 8.209-2.274 14.34-7.12 18.297-14.34 3.264-5.242 4.945-10.583 4.945-15.825 0-5.241-1.484-10.384-4.45-15.33-2.968-4.944-6.726-8.703-11.374-11.373-4.649-2.67-9.693-3.956-15.33-3.956-5.637 0-10.88 1.286-15.824 3.956-4.945 2.67-8.704 6.23-11.374 10.88-4.648 7.911-5.736 16.021-3.461 24.23zm5.934-315.495c-1.682 6.23-.198 11.571 4.45 15.824 4.649 4.253 10.187 5.44 16.813 3.461 3.957-1.285 6.924-3.956 8.902-7.912 1.978-3.956 2.472-8.11 1.483-12.362-.989-4.253-3.461-7.418-7.417-9.396-3.957-1.978-8.21-2.275-12.858-.99-5.934 1.287-9.692 5.144-11.373 11.375zm2.967 418.353c-1.682 6.23-1.484 12.56.494 18.79 1.978 6.232 5.242 11.572 9.89 15.825 4.649 4.253 10.088 7.22 16.32 8.901 6.23 1.682 12.362 1.484 18.296-.494 5.934-1.978 11.176-5.242 15.824-9.89 6.626-7.22 9.692-15.825 9.396-25.715-.297-9.89-3.956-18.099-10.88-24.725-6.923-6.627-15.33-9.89-25.22-9.89-9.89 0-18.098 3.66-24.725 10.879-4.648 4.648-7.714 10.088-9.395 16.319zm21.264-209.671c0 4.945 1.68 9.099 4.945 12.362 3.263 3.264 7.615 4.945 12.857 4.945 6.626.693 11.67-1.978 15.33-7.912 3.659-5.934 3.659-11.868 0-17.802-3.66-5.934-8.704-8.901-15.33-8.901-5.242 0-9.594 1.681-12.857 4.945-3.264 3.264-4.945 7.418-4.945 12.363zm3.461-126.594c-.297 6.923 2.473 12.066 8.407 15.33 5.934 3.263 11.868 3.263 17.802 0 4.648-2.67 7.418-6.231 8.407-10.88.989-4.648.296-9.099-1.978-13.351-2.275-4.253-5.737-7.121-10.385-8.407-4.648-1.286-8.901-.692-12.857 1.978-5.934 3.264-9.1 8.407-9.396 15.33zm0-130.056c.297 3.956 1.978 7.121 4.945 9.396 2.967 2.275 6.429 3.264 10.385 2.967 3.956-.297 7.12-1.978 9.395-4.945 2.275-2.967 3.264-6.23 2.967-9.89-.296-3.66-1.978-6.627-4.945-8.901-2.967-2.275-6.132-3.462-9.395-3.462-3.956 0-7.22 1.484-9.89 4.45-2.67 2.968-3.759 6.43-3.462 10.385zm13.846 79.122c.99 3.956 3.264 6.923 6.923 8.9 3.66 1.979 7.418 2.275 11.374.99 5.934-1.286 9.593-4.748 10.88-10.385 1.285-5.637-.199-10.385-4.451-14.34-4.253-3.957-9.1-5.242-14.341-3.957-3.956 1.286-6.923 3.758-8.901 7.418-1.978 3.66-2.473 7.417-1.484 11.374zm17.308-59.341c-1.978 4.648-1.681 8.9.989 12.857 2.67 3.956 6.429 5.736 11.374 5.44 4.945-.297 8.406-2.77 10.384-7.418 1.978-4.649 1.682-8.901-.989-12.857-2.67-3.956-6.23-5.638-10.879-4.945-5.242 0-8.901 2.274-10.879 6.923zm.495 397.089c2.274 8.901 7.615 15.626 15.824 20.275 8.209 4.648 16.813 5.736 25.714 3.461 8.901-2.274 15.627-7.417 20.275-15.33 4.648-8.604 5.736-17.307 3.461-26.208-2.274-8.901-7.417-15.627-15.33-20.275-7.911-4.649-16.516-5.736-25.714-3.462-9.197 2.275-16.12 7.616-20.769 15.825-4.648 8.208-5.736 16.813-3.461 25.714zm4.945-186.924c3.659 6.231 9.099 9.396 16.318 9.396 5.242 0 9.693-1.78 13.352-5.44 3.66-3.66 5.44-8.11 5.44-13.351 0-5.242-1.78-9.89-5.44-13.847-3.66-3.956-8.11-5.934-13.352-5.934-7.22 0-12.66 3.264-16.318 9.89-3.66 6.627-3.66 13.055 0 19.286zm4.945 59.836c-.99 3.956-.297 7.714 1.978 11.373 2.274 3.66 5.44 5.934 9.395 6.923 3.956.99 7.715.297 11.374-1.978 3.66-2.274 5.736-5.44 6.429-9.395 1.285-3.956.79-7.715-1.484-11.374-2.275-3.66-5.44-5.934-9.396-6.923-3.956-.99-7.714-.297-11.373 1.978-3.66 2.275-5.934 5.44-6.923 9.396zm24.23-121.65c0 5.935 1.979 11.078 5.935 15.33 3.956 4.253 8.9 6.43 14.835 6.43 8.604 0 15.033-3.66 19.286-10.88 4.252-7.22 4.252-14.539 0-21.758-4.253-7.22-10.682-10.88-19.286-10.88-5.934.693-10.88 2.968-14.835 6.924-3.956 3.956-5.934 8.9-5.934 14.835zm3.957-253.681c0 11.571 3.956 21.263 11.868 29.176 7.912 7.912 17.604 11.868 29.176 11.868 11.571 0 21.461-3.956 29.67-11.868 8.209-7.913 12.363-17.605 12.363-29.176 0-11.572-4.154-21.462-12.363-29.67-8.209-8.21-18-12.363-29.176-12.363-11.868 0-21.758 4.153-29.67 12.362-7.912 8.209-11.868 18.1-11.868 29.67zm7.912 183.462c0 8.604 2.967 16.022 8.9 22.253 5.935 6.23 13.155 9.395 21.76 9.395 8.604 0 16.021-3.165 22.252-9.395 6.23-6.231 9.396-13.649 9.396-22.253 0-8.605-3.165-15.824-9.396-21.759-6.23-5.934-13.648-8.9-22.253-8.9-8.604 0-15.824 2.966-21.758 8.9-5.934 5.935-8.901 13.154-8.901 21.759zm2.472 237.363c.99 3.264 3.165 5.638 6.429 6.923 3.264 1.286 6.626 1.484 9.89.495 3.264-.99 5.637-3.165 6.923-6.429 1.978-3.264 2.275-6.626.99-9.89-1.287-3.264-3.462-5.736-6.43-7.418-2.967-1.68-6.23-1.78-9.89-.494-3.659 1.286-6.132 3.66-7.417 6.923-1.286 3.264-1.484 6.626-.495 9.89zm.495-68.242c-1.286 5.934.198 11.077 4.45 15.33 4.253 4.253 9.594 5.637 15.825 3.956 6.23-1.681 10.087-5.736 11.373-12.363.692-3.956-.198-7.912-2.472-11.868-2.275-3.956-5.638-6.428-9.89-7.417-4.253-.99-8.407-.297-12.363 1.978-3.956 2.274-6.231 5.736-6.923 10.384zm5.934-254.176c0 9.197 3.264 17.11 9.89 23.736 6.626 6.626 14.538 9.89 23.736 9.89s17.11-3.264 23.737-9.89c6.626-6.627 9.89-14.539 9.89-23.736 0-9.198-3.264-17.11-9.89-23.737-6.627-6.626-14.539-9.89-23.737-9.89-9.198 0-17.11 3.264-23.736 9.89-6.626 6.627-9.89 14.539-9.89 23.737zm28.187 447.034c2.967 11.176 9.395 19.78 19.286 25.714 9.89 5.934 20.472 7.418 31.648 4.451 11.176-2.967 19.78-9.692 25.714-20.275 5.242-9.89 6.429-20.275 3.462-31.154-2.967-10.879-9.396-19.286-19.286-25.22-9.89-5.934-20.472-7.417-31.648-4.45-11.176 2.967-19.583 9.395-25.22 19.286-5.638 9.89-6.923 20.472-3.956 31.648zm1.483-229.946c-1.285 4.945-.692 9.594 1.978 13.846 2.67 4.253 6.627 7.121 11.868 8.407 5.242 1.286 10.088.692 14.341-1.978s7.121-6.626 8.407-11.868c1.285-5.242.494-10.088-2.473-14.34-2.967-4.254-6.923-6.924-11.868-7.913-4.945-.989-9.593-.198-13.846 2.473-4.253 2.67-7.121 6.428-8.407 11.373zm.99 83.572c-2.671 4.648-2.473 9.099.494 13.352 2.967 4.252 7.12 6.23 12.362 5.934 5.242-.297 9.198-2.77 11.869-7.418 1.285-3.956 1.285-7.615 0-10.88-1.286-3.263-3.66-5.735-6.923-7.417-3.264-1.681-6.726-1.78-10.385-.494-3.66 1.286-6.132 3.66-7.418 6.923zm23.241-126.1c2.967 9.594 9.692 15.627 20.275 18.297 6.626 1.978 13.055.99 19.286-2.967 6.23-3.956 10.384-9.593 12.362-16.813 1.978-7.22.99-14.044-2.967-20.275-3.956-6.23-9.593-10.088-16.813-11.373-9.89-2.67-18.495-.198-25.714 7.417-7.22 7.616-9.396 16.121-6.429 25.715zm12.363 113.243c1.285 3.956 3.956 6.923 7.912 8.9 3.956 1.979 7.912 2.276 11.868.99 3.956-1.286 6.923-3.956 8.901-7.912 2.67-5.242 2.275-10.583-.989-15.824-3.264-5.242-8.11-7.616-14.34-6.924-6.231.693-10.682 3.66-13.352 8.902-1.286 3.956-1.286 7.912 0 11.868zm12.857-195.825c-1.978 7.22-.791 14.34 3.462 21.264 4.252 6.923 10.186 11.176 17.802 12.857 7.615 1.681 14.835.494 21.758-3.462 6.923-3.956 11.077-9.89 12.363-17.802 1.285-4.648 1.285-9.593 0-14.835-1.286-5.242-3.758-9.594-7.418-12.857-3.66-3.264-8.11-5.638-13.352-6.923-5.241-1.286-10.384-1.286-15.33 0-4.944 1.285-9.197 3.956-12.856 7.912-3.66 3.956-5.737 8.604-6.429 13.846zm4.945-86.044c-2.67 9.197-1.286 18.099 3.956 26.703s12.66 14.044 22.253 16.319c9.593 2.274 18.593.791 27.198-4.45 8.604-5.243 14.044-12.66 16.319-22.254 2.274-9.593.79-18.593-4.451-27.198-5.242-8.604-12.66-14.044-22.253-16.318-9.593-2.275-18.593-.791-27.198 4.45-8.604 5.242-13.846 12.857-15.824 22.748zm11.868 245.275c1.978 5.934 5.736 10.187 11.374 12.857 5.637 2.67 11.374 2.967 17.308.99 5.934-1.979 10.186-5.935 12.857-11.869 2.67-5.242 2.769-10.879.494-16.813-2.274-5.934-6.23-10.187-11.868-12.857-5.637-2.67-11.176-2.967-16.813-.99-5.637 1.979-9.692 5.737-12.363 11.374-2.67 5.638-2.967 11.374-.989 17.308zm32.143-50.934c2.275 6.23 6.627 10.88 12.857 13.846 6.231 2.967 12.56 3.264 18.792.99 6.23-2.276 10.681-6.43 13.351-12.364 3.264-6.626 3.759-13.055 1.484-19.285-2.275-6.231-6.627-10.88-12.857-13.847-6.231-2.967-12.56-3.263-18.792-.989-6.23 2.275-10.879 6.627-13.846 12.858-2.967 6.23-3.264 12.56-.989 18.79zm17.802-73.682c.297 5.242 1.978 10.187 4.945 14.836 2.968 4.648 6.924 8.11 11.869 10.384 4.945 2.275 10.088 3.165 15.33 2.473 5.241-.693 10.186-2.473 14.835-5.44 4.648-2.967 7.912-6.725 9.89-11.373 3.956-7.913 4.648-15.627 1.978-23.242-2.67-7.616-7.715-13.154-15.33-16.814-7.615-3.659-15.33-4.153-23.242-1.483-7.912 2.67-13.846 7.615-17.802 14.835-1.978 5.242-2.77 10.583-2.473 15.824z" style="fill:#000;fill-opacity:1;fill-rule:nonzero;stroke:none;"/>
</svg>
