<svg xmlns="http://www.w3.org/2000/svg" width="1000" height="1000">
  <path d="M886.473 434.331v396.641c3.27 22.883-4.359 40.318-27.242 50.125-59.932 38.139-123.133 75.188-186.334 107.878-11.986 7.627-34.87 7.627-46.856 2.18-65.38-34.87-126.402-71.92-188.513-107.879-20.704-11.986-30.511-27.241-30.511-50.124 2.18-73.009 2.18-146.017 0-215.756 0-25.062 9.807-40.318 32.69-52.304 57.753-32.69 115.505-68.65 175.438-101.34 20.703-11.986 32.69-27.241 30.51-54.483-2.179-30.511 0-63.201 0-93.712 2.18-34.87 19.614-44.677 50.125-27.242 55.574 32.69 111.147 65.38 165.63 98.07 20.704 9.808 25.063 25.063 25.063 47.946zm-773.668-63.2c0-63.202 3.27-125.313 0-188.514 0-30.511 7.628-50.125 38.139-67.56 57.752-30.51 117.684-65.38 175.437-100.25 17.435-13.076 35.96-13.076 53.394 0 62.111 37.049 127.492 73.008 188.514 110.057 11.986 7.628 21.793 25.063 21.793 40.318 3.269 75.187 3.269 150.375 3.269 225.562 0 26.152-13.076 38.139-30.51 47.946-59.933 35.96-117.685 70.829-175.438 103.519-22.883 11.986-32.69 27.242-32.69 52.304 2.179 30.511 2.179 59.932 0 90.443 0 34.87-17.435 47.946-47.946 30.51-57.753-32.69-115.505-67.559-173.258-103.518-9.807-4.359-17.435-25.063-17.435-37.049-3.269-68.65-3.269-136.21-3.269-203.769z" style="fill:#000;fill-opacity:1;fill-rule:nonzero;stroke:none;"/>
</svg>
