<svg xmlns="http://www.w3.org/2000/svg" viewBox="0 0 1000 1000"><path d="M503.61 27.86c58.636-10.197 87.955-7.648 117.273-7.648h7.649c6.373 0 14.022 2.55 22.945 5.099 12.747 3.824 26.769 10.198 35.692 19.12l6.373 5.1c2.55 2.549 7.649 6.373 12.748 10.197 5.098 5.1 8.923 11.473 12.747 17.846l5.099 7.649c5.098 8.923 10.197 17.846 14.021 26.769l7.649 17.846 8.923 31.868c1.275 6.373 2.55 14.022 5.099 20.395 2.55 15.297 2.55 29.319 2.55 44.615-2.55 30.594-10.199 58.637-19.122 84.132-3.824 11.472-10.197 26.769-16.571 39.516l-25.494 36.967-14.022 15.297-16.572 20.395c-14.021 11.473-30.593 24.22-48.439 35.692-21.67 8.923-40.79 17.846-66.285 22.945 0 0 0 1.275-10.198 1.275-6.374 0-10.198-3.824-10.198-11.473 0-8.923 7.649-42.065 10.198-45.89 3.824-12.747 6.374-24.22 6.374-42.065v-22.945c0-15.297-1.275-28.044-3.825-42.066-2.549-16.571-6.373-31.868-10.197-48.44-12.748-31.867-26.77-58.636-43.34-82.856l-29.32-35.692c-15.296-17.846-31.867-30.593-45.89-39.516-33.142-22.945-71.383-36.967-113.45-43.34l-31.867-6.374c5.099-1.275 8.923-1.275 16.571-1.275 19.121-3.824 39.517-6.374 58.637-8.923 10.198-2.55 71.385-11.473 90.505-14.022 47.165-7.648 49.714-7.648 63.736-10.198zM9.017 472.737c17.846-44.615 20.396-57.362 34.418-86.68l20.395-52.264c10.198-25.495 26.77-68.835 35.692-90.505 5.1-16.572 12.748-31.868 19.121-44.615 30.593-62.462 47.165-81.582 81.582-87.956 12.747-3.824 24.22-6.374 36.967-6.374 11.473-1.274 25.494-1.274 36.967-1.274 66.285 2.55 86.68 17.846 138.944 54.813 16.572 11.472 43.34 42.065 57.363 62.46 10.197 11.473 17.846 26.77 25.494 43.341 7.648 17.846 14.022 35.692 17.846 52.264 6.374 20.395 3.824 59.911 2.55 98.153-3.825 20.396-8.924 39.516-12.748 43.34-5.099 2.55-7.648 2.55-10.197 1.275-5.1 0-6.374-2.55-11.473-7.648-6.374-10.198-16.571-19.12-28.044-28.044-31.868-26.769-76.483-48.44-117.274-62.461-15.296-5.099-70.11-14.022-93.054-11.473-47.165 5.1-121.099 20.396-159.34 52.264-19.12 12.747-58.637 47.164-75.209 71.384zm15.297 40.791c11.473-21.67 26.77-40.79 43.34-57.362 35.693-39.517 107.077-65.01 156.79-72.66 16.572-2.549 33.144-1.274 49.715-1.274 31.868 1.275 62.461 8.923 93.054 20.396 24.22 10.197 44.616 22.944 61.187 38.241 20.395 16.571 26.769 21.67 30.593 35.692 1.275 3.824 0 6.374-5.099 8.923-56.087 14.022-91.78 26.77-121.098 49.714-40.791 31.868-71.384 54.813-99.428 113.45-26.77 54.813-31.868 89.23-35.692 140.22-1.275 16.57 7.648 56.087 21.67 105.8 5.099 17.847 6.374 16.572 1.275 11.473L93.15 741.703C7.744 630.803-16.476 605.308 24.315 513.528zm207.78 261.317c2.549-21.67 7.647-43.34 11.472-61.186l14.022-40.791c39.516-87.956 89.23-123.648 186.108-155.516 21.67-8.923 30.594 0 19.121 21.67-12.747 29.319-19.12 72.66-19.12 118.55 7.648 65.01 11.472 82.856 33.142 118.548 19.121 36.967 39.516 65.01 65.01 90.505 36.968 36.967 117.275 73.934 163.165 73.934 10.198 1.275 3.824 2.55 0 2.55-19.121 3.823-270.24 36.966-282.988 36.966-90.505 0-118.549-8.923-160.614-80.307-19.121-31.868-29.319-87.956-29.319-124.923zM474.29 643.55c0-31.868 7.648-75.208 16.571-93.054 2.55-5.099 6.374-6.374 14.022-5.099l44.615 44.615c17.846 12.747 30.593 21.67 42.066 29.319l36.967 17.846c25.494 10.198 45.89 15.296 67.56 17.846 68.835 7.648 126.197 1.275 169.537-20.396 22.945-11.472 29.319-14.022 45.89-25.494 10.198-7.648 22.945-16.571 31.868-25.494 3.824-3.825 33.143-33.143 38.242-40.791l7.393-8.668c-1.147 1.657-2.55 6.5-6.119 13.766-3.824 8.924-7.648 19.121-12.747 29.319l-11.472 29.319c-5.1 8.923-7.649 19.12-11.473 28.043l-11.47 28.043-17.846 45.89c-16.572 43.34-31.868 82.857-42.066 99.428-10.198 16.571-19.12 34.417-31.868 50.989-21.67 28.044-25.494 30.593-59.912 42.066-8.923 2.549-38.241 5.098-53.538 5.098-30.593 0-70.11-8.923-99.428-21.67-15.297-6.373-29.318-16.571-43.34-28.044-11.473-6.373-34.418-29.318-59.912-59.911-38.242-45.89-53.538-112.176-53.538-152.967zm72.659-109.625c-3.824-8.923-3.824-12.748 5.099-16.572 15.296-3.824 26.769-7.648 26.769-7.648l61.186-24.22 39.516-26.769c7.649-6.373 11.473-12.747 20.396-20.395 15.297-8.923 26.769-25.495 36.967-38.242 7.648-11.472 12.747-22.945 19.12-33.143 12.748-20.395 19.121-39.516 26.77-61.186 5.099-14.022 8.923-25.494 8.923-35.692l2.55-14.022c0-2.55 1.274-6.374 2.549-11.473 1.274-10.197 0-17.846 0-26.769v-12.747c0-16.571-2.55-31.868-7.649-47.164-5.099-21.67-10.198-39.517-17.846-54.813l-7.648-17.846 1.275 1.274 3.824 5.1c2.55 2.549 5.099 6.373 6.373 10.197l10.198 10.198 17.846 20.395 14.022 16.572c1.275 2.549 3.824 3.824 5.099 6.373 3.824 3.824 7.648 7.648 10.198 12.747 2.55 3.824 6.373 8.923 10.197 12.748 22.945 28.043 31.868 38.241 30.594 36.966-21.67-21.67 28.043 31.868 30.593 34.418l10.198 10.198c30.593 30.593 63.736 84.13 76.483 122.372 0-1.274 3.824 8.924 3.824 15.297 6.374 50.989-36.967 131.296-94.33 168.263-29.318 19.12-40.79 25.494-79.032 38.242-59.912 14.021-86.68 2.549-155.515 2.549-1.275 0-29.319-10.198-34.418-12.747-14.022-6.374-28.044-14.022-43.34-25.495-16.572-10.197-25.495-20.395-35.692-30.593-2.55-2.55-2.55-2.55-5.1-6.373z"/></svg>