<svg xmlns="http://www.w3.org/2000/svg" width="1000" height="1000">
  <path d="M500.496 5C223.572 5 5 229.506 5 500.002c0 276.43 224.506 495.001 495.002 495.001 276.43 0 495.001-224.506 495.001-495.001C995.003 226.539 773.464 5 500.496 5zM263.133 647.86c0-87.034 16.813-148.353 89.011-213.628 20.77-16.813 39.56-36.593 55.385-59.34 46.483-57.364 70.22-123.627 75.165-199.782v-62.307c16.813 0 62.308 62.307 77.143 86.044 49.45 74.176 80.11 187.912 20.77 262.089-18.792 21.758-35.605 41.538-55.385 62.307-83.078 76.155-133.517 168.133-163.188 275.935-7.912 16.814-7.912 20.77-16.813 13.847-46.484-43.517-82.088-115.715-82.088-165.166zM435.22 861.485c-11.868-3.956-7.912-15.824 0-15.824 18.792-2.967 26.704-19.78 28.682-37.582 1.978-49.451 27.692-90 59.34-126.594 26.704-31.649 58.352-60.33 86.045-92.968 53.407-58.351 57.363-63.296 94.945-154.286 29.67 31.649 51.429 105.825 51.429 188.902-1.978 68.242-22.747 129.56-72.198 178.022-52.418 53.407-119.67 80.11-194.836 70.22-18.791-1.978-36.594-5.934-53.407-9.89z" style="fill:#000;fill-opacity:1;fill-rule:nonzero;stroke:none;"/>
</svg>
