<svg xmlns="http://www.w3.org/2000/svg" viewBox="0 0 1000 1000"><path d="M5 500.496c0 271.98 220.55 494.507 495.496 494.507 271.98 0 494.507-220.55 494.507-495.496C995.003 227.528 773.464 5 500.496 5 226.54 5 5 225.55 5 500.496zm107.803-77.143c-4.946-2.967 0-10.88 8.9-21.758 30.66-35.605 66.265-71.21 101.87-106.814 13.845-12.857 21.757-12.857 35.604 0 39.56 35.605 76.154 71.21 111.758 106.814 20.77 21.758 20.77 21.758 40.55 4.945 26.703-26.704 47.473-49.45 74.176-71.21 13.846-8.9 26.703-12.856 46.484-12.856 101.868-5.935 202.748 0 310.55 0 18.791 0 19.78 22.747 5.934 30.659-35.604 30.66-73.187 61.319-113.736 93.956-65.275 58.352-132.528 111.759-198.792 168.133-9.89 4.945-12.857 17.802-12.857 31.648v160.22c0 13.847-10.88 33.627-13.847 47.473-9.89-8.9-26.703-20.769-36.593-29.67-70.22-66.264-141.43-137.473-218.572-204.726-21.759-21.758-34.616-40.55-30.66-72.198V455.99c0-21.758-3.956-22.747-17.802-22.747h-71.21c-8.9 0-17.801-4.945-21.757-9.89zm61.318-21.758c18.792 0 36.594 4.945 45.495-3.956 8.901-8.901 3.956-31.649 8.901-48.462 0-8.901 0-8.901-8.9 0-13.847 16.813-31.65 34.615-45.496 48.462zm90 178.022c34.616 31.649 67.254 59.341 93.957 86.045 31.649 26.703 31.649 26.703 58.352 1.978 106.814-88.023 212.638-172.089 314.507-261.1 23.736-17.802 39.56-31.649 63.296-49.45 0-3.957 0-3.957-4.945-3.957-80.11 0-165.165-3.956-249.231 0-13.846 0-27.693 3.956-35.605 12.857-72.198 62.308-138.462 125.605-205.715 186.924-12.857 7.912-20.77 18.791-34.615 26.703zm0-33.626c31.65-33.627 62.309-64.286 93.957-90 4.945-5.935 0-14.836-5.934-18.792-25.714-30.66-56.374-57.363-88.022-93.956zm154.287 172.088c23.736 22.748 46.484 45.495 64.286 67.253 2.967 0 2.967-4.945 2.967-4.945V654.782c-65.275 58.352-46.484 44.506-67.253 63.297z"/></svg>