<svg xmlns="http://www.w3.org/2000/svg" width="1000" height="1000">
  <path d="M499.507 995.003h.99c89.01 0 172.088-22.45 249.23-67.253 74.474-44.209 133.814-103.55 178.023-178.022 44.803-77.143 67.253-160.418 67.253-249.726 0-89.308-22.45-172.583-67.253-249.726-44.209-74.473-103.55-133.814-178.022-178.023C672.585 27.45 589.31 5 500.002 5c-89.308 0-172.583 22.45-249.726 67.253-74.473 44.209-133.814 103.55-178.023 178.023C27.451 327.419 5 410.694 5 500.002c0 89.308 22.45 172.583 67.253 249.726C116.462 824.2 175.803 883.54 250.276 927.75c77.143 44.803 160.22 67.253 249.231 67.253zm-296.704-390.66V251.265c0-13.847 4.648-25.418 13.846-34.616s20.77-13.846 34.616-13.846h497.474c9.89 0 18.791 2.67 26.703 7.912 7.912 5.242 13.846 12.363 17.802 21.264 3.956 8.9 4.945 18.099 2.967 27.692-1.978 9.594-6.23 17.605-12.857 24.231L365.99 701.266h336.265v-96.923H589.507L797.2 396.65v352.089c0 13.846-4.747 25.417-14.34 34.615-9.594 9.198-20.967 13.846-34.121 13.846H251.265c-9.89 0-18.792-2.67-26.704-7.912-7.912-5.241-13.846-12.362-17.802-21.263-3.956-8.902-4.945-18.1-2.967-27.693 1.978-9.593 6.23-17.604 12.857-24.23l417.364-417.365H297.748v97.913h112.748z" style="fill:#000;fill-opacity:1;fill-rule:nonzero;stroke:none;"/>
</svg>
