<svg id="a" xmlns="http://www.w3.org/2000/svg" viewBox="0 0 1000 1000"><path d="M500,0C223.858,0,0,223.858,0,500s223.858,500,500,500,500-223.858,500-500S776.142,0,500,0Zm0,952.381c-249.843,0-452.381-202.538-452.381-452.381S250.157,47.619,500,47.619s452.381,202.538,452.381,452.381-202.538,452.381-452.381,452.381Zm95.238-654.762h166.667v47.619H285.714v309.524h428.571v-130.952H404.762v-47.619h357.143v226.19h-166.667v142.857h-47.619v-142.857h-95.238v142.857h-47.619v-142.857H238.095V297.619h166.667V154.762h47.619v142.857h95.238V154.762h47.619v142.857Z"/></svg>
