<svg xmlns="http://www.w3.org/2000/svg" width="1000" height="1000">
  <path d="M159.674 855.24c193.56 187.195 491.543 184.648 685.104 2.548 188.467-182.1 201.201-486.45 26.742-686.378C697.06-27.244 395.258-50.166 191.51 114.106-21.154 282.2-37.709 575.086 71.806 726.625c35.656-39.477 64.945-78.953 103.148-110.789 66.218-71.311 117.155-73.858 193.56-16.554 15.282-16.555 30.563-26.742 47.118-43.297-31.836-34.382-54.758-62.398-78.953-92.96-36.93-57.304-91.687-52.21-131.163 3.82-30.562 43.297-72.585 81.5-114.608 128.617-34.383-205.022 49.663-382.029 215.209-467.348 168.092-87.867 368.02-54.758 499.183 81.5 100.601 106.967 146.445 283.973 91.687 385.848-59.85-70.039-118.429-132.437-171.913-201.202-34.382-42.023-92.96-42.023-123.522 0-22.922 35.656-47.117 68.765-80.226 95.507-118.429 126.07-236.857 244.498-361.653 365.474zm98.054-14.007c42.023-31.836 82.772-63.671 118.428-98.054 75.133-72.585 145.171-143.897 221.577-217.756 34.382-35.656 95.507-35.656 131.163 0 53.484 47.117 103.147 98.054 151.538 142.624C786.2 904.905 489.49 990.224 257.728 841.233zm14.007-319.63c-34.382-1.274-30.562-58.578 0-58.578 50.937 0 50.937 58.578 0 58.578zm388.396-58.578c-45.844-14.007-22.922-66.218 7.64-61.124 44.57 16.554 26.742 68.765-7.64 61.124z" style="fill:#000;fill-opacity:1;fill-rule:nonzero;stroke:none;"/>
</svg>
