<svg xmlns="http://www.w3.org/2000/svg" viewBox="0 0 1000 1000"><path d="M592.287,591.818Q559.8,548.992,559.8,497.3c0-34.458,10.829-65.962,32.489-93.529-63.994,42.334-127,42.334-190.012,0,21.66,27.567,31.5,59.071,31.5,93.529a155.9,155.9,0,0,1-31.5,94.514C466.269,549.484,528.293,549.484,592.287,591.818ZM376.678,377.193c-26.582-39.38-37.412-80.73-26.582-126.018q11.814-50.21,50.21-82.7c54.149-43.319,128.972-46.272,184.1-6.892,34.458,25.6,55.132,59.071,61.04,101.406,6.891,41.349-4.923,79.745-28.551,114.2,43.318-28.551,88.606-38.4,138.816-22.644,32.489,9.846,59.071,29.536,78.762,58.087,38.4,57.1,33.473,133.894-10.83,185.089-39.381,44.3-125.034,76.792-205.764,19.69,49.226,87.622,41.35,164.414-45.288,222.5-52.179,35.442-127,26.582-176.228-16.737-29.535-26.582-45.288-60.056-49.226-99.436-3.938-38.4,7.876-73.839,29.536-106.328-36.427,24.613-75.808,36.427-119.127,28.551-42.334-7.876-76.792-30.52-100.42-67.932-36.427-56.117-30.52-130.94,14.768-181.15a153.033,153.033,0,0,1,61.04-41.35c24.612-8.861,49.225-9.845,74.823-6.892C332.375,352.58,355.018,363.41,376.678,377.193ZM6.5,501.242C6.5,771.984,226.047,993.5,499.742,993.5,770.484,993.5,992,773.953,992,500.258,992,229.516,771.469,8,499.742,8,227.031,8,6.5,227.547,6.5,501.242Z"/></svg>