<svg xmlns="http://www.w3.org/2000/svg" viewBox="0 0 1000 1000"><path d="M448.916 846.688V694.922c0-4.464-7.812-12.275-16.739-16.739-66.956-26.782-107.129-79.23-112.709-151.766-17.854-90.39 41.29-178.548 133.912-205.33 85.926-23.435 179.664 24.55 213.142 107.128 45.753 98.202 0 206.447-98.202 249.968-10.043 4.464-15.623 12.275-15.623 29.014v133.911c6.696-3.347 10.043-7.811 15.623-7.811 75.883-59.144 150.65-113.825 225.417-174.085 8.928-5.58 13.391-15.623 13.391-24.55 3.348-14.507 3.348-32.362 3.348-47.985-3.348-11.16 0-15.623 15.623-15.623h71.42c7.811 0 13.39 8.927 13.39 15.623V687.11c0 7.812-5.579 15.623-13.39 20.087-126.1 94.854-253.316 190.824-384.995 285.677-6.696 3.348-14.507 3.348-24.55-4.463-129.448-90.39-256.664-186.36-383.88-281.214-8.927-4.464-14.507-16.739-14.507-24.55-1.116-31.246 0-62.492 0-95.97 0-11.16 5.58-15.623 17.855-15.623h63.608c15.623 0 23.435 4.464 21.203 21.203-14.507 46.869 14.507 75.883 51.332 98.201 61.376 43.521 121.636 90.39 183.012 140.607 5.58 2.232 11.16 6.696 22.319 15.623zM89.587 415.94v-99.317c0-6.696 5.58-15.623 8.928-18.971 132.795-95.97 262.243-190.824 389.458-286.793 10.044-7.812 17.855-7.812 24.55 0 127.216 95.97 258.896 190.823 384.996 282.33 4.463 4.463 13.39 13.39 13.39 20.086v114.94H810.477v-60.26c-3.348-5.58-7.811-20.086-16.739-22.318-90.39-68.072-185.244-136.143-281.213-198.635-6.696-8.928-14.507-8.928-26.783 0-91.506 62.492-186.36 130.563-278.981 193.055-12.275 7.812-14.507 17.855-14.507 27.898v47.985c0 12.275-5.58 17.855-16.74 17.855h-68.07c-12.276 0-17.856-5.58-17.856-17.855zm314.692 88.158c0 56.913 44.637 94.854 97.085 94.854 51.333 0 90.39-37.941 90.39-90.39 4.464-55.796-39.057-100.433-90.39-100.433-52.448 0-97.085 44.637-97.085 95.97z"/></svg>