<svg xmlns="http://www.w3.org/2000/svg" width="1000" height="1000">
  <path d="M555.643 6.426c240.44 27.407 391.18 169.428 432.292 411.113 44.849 266.6-128.317 519.497-394.918 568.083-274.075 53.57-529.463-128.317-578.05-394.918C-49.812 258.077 209.313-17.244 555.644 6.426zM58.57 498.516c0 240.438 188.116 444.749 442.258 444.749 244.176 0 442.258-196.836 442.258-444.75 3.738-227.98-180.64-441.012-442.258-441.012-262.863 0-442.258 213.032-442.258 441.012zm205.557 190.606c-140.775-174.411-47.34-438.52 171.92-483.369 14.95-3.737 18.687 0 18.687 11.212v51.078c0 11.212-3.738 13.704-14.95 17.441-80.977 27.408-134.546 80.977-155.724 166.937-27.408 114.613 37.374 225.49 149.495 260.371 24.916 6.23 21.179 17.442 21.179 47.34v22.425c0 14.95-3.738 18.687-18.687 13.704-67.273-16.196-125.826-49.832-171.92-107.139zm284.042 90.943v-43.602c0-13.704 3.737-19.933 14.95-21.179 87.205-31.145 142.02-90.943 158.215-180.64 17.442-107.139-52.323-215.523-154.478-245.422-14.95-7.475-18.687-12.458-18.687-23.67v-48.587c0-11.212 3.737-14.95 14.95-11.212 128.316 31.145 237.946 155.725 237.946 264.11 0 166.936-79.73 294.007-234.21 326.398-14.949 1.246-18.686 1.246-18.686-16.196z" style="fill:#000;fill-opacity:1;fill-rule:nonzero;stroke:none"/>
</svg>
