<svg xmlns="http://www.w3.org/2000/svg" width="1000" height="1000">
  <path d="M702.855 934.736H285.37c-25.513 0-42.908-4.639-56.825-30.152-71.9-124.086-140.321-245.852-212.221-367.619-16.236-25.513-13.917-47.547 0-73.06 71.9-121.767 140.321-243.533 212.221-364.14 13.917-26.673 31.312-34.79 59.144-34.79 140.322 0 282.962 2.319 423.284 0 27.832 0 46.387 11.596 60.303 34.79 69.581 124.086 140.322 248.172 214.541 372.258 13.917 20.874 10.438 39.429 0 59.144-70.74 120.606-141.48 241.213-209.902 361.82-17.395 32.471-39.43 44.068-73.06 41.749zM75.467 499.856c66.102 62.622 127.565 114.808 189.028 172.792 9.278 8.117 32.472 13.916 37.11 11.597 15.076-9.278 27.833-25.513 27.833-39.43 3.479-99.732 3.479-194.826 0-294.559 0-10.437-8.118-31.311-18.555-33.63-9.278-5.799-30.152 2.319-39.43 8.117-42.908 39.43-85.816 78.859-128.724 115.968-22.034 20.875-40.589 37.11-67.262 59.144zm40.59-82.338c106.69-63.783 162.355-140.322 176.27-234.256 0-8.118-6.957-22.034-16.235-44.068-56.824 95.094-106.69 183.23-160.036 278.324zm1.159 175.112c52.186 88.135 102.052 176.271 154.238 259.768 2.319 0 6.958-2.319 9.277-2.319 0-8.118 4.639-19.715-2.32-25.513-22.033-27.832-27.832-59.144-15.075-96.254 1.16-8.117 0-19.714-6.958-25.513-41.749-38.269-86.976-76.539-128.725-115.968-3.479 3.48-6.958 3.48-10.437 5.799zm172.792 172.792c0 33.631 27.833 59.144 60.304 59.144 30.152-2.32 56.824-30.152 56.824-64.942-4.638-33.63-26.672-56.825-60.303-56.825-35.95 3.48-59.144 28.992-56.825 62.623zm11.597-519.537c0 24.353 27.833 49.866 56.825 49.866 27.832-2.32 48.706-25.513 48.706-55.665-4.638-31.31-23.193-47.546-54.505-47.546-27.832 0-51.026 25.513-51.026 53.345zm2.32-104.371c12.756 4.638 23.193 13.916 37.11 19.714l70.74 25.513c11.597 2.32 23.194 8.118 30.152 5.799 66.102-20.875 131.044-39.43 193.667-60.304v-4.639H310.883c-3.48 4.64-3.48 6.958-6.958 13.917zm3.479 725.96c3.479 0 3.479 2.32 3.479 5.799H611.24v-5.799c-54.505-19.714-111.33-37.11-169.313-56.824-4.639 0-16.236 0-20.874 4.639-23.194 28.992-54.506 40.588-91.615 37.11-8.118 0-12.757 9.277-22.034 15.075zm56.824-229.617c0 48.707 45.228 74.22 84.657 51.026 75.38-41.748 148.44-88.136 226.138-129.884 35.95-22.034 38.27-93.934 0-115.968-77.699-41.749-150.759-86.976-226.138-128.725-39.43-24.353-84.657 0-84.657 47.547zm86.976-356.022c84.657 48.707 170.473 96.254 253.97 144.96 19.715 13.916 56.825-15.076 60.304-39.429-17.395-73.06-32.471-153.078-52.186-229.617 0-4.639-16.235-13.916-22.034-11.597-80.018 23.194-157.716 48.707-237.734 77.699-25.513 8.118-25.513 44.068-2.32 57.984zm2.32 438.36c-25.513 13.916-25.513 52.185 4.638 62.622 77.699 30.152 160.036 55.665 247.013 86.977 19.714-89.296 39.429-171.633 56.824-257.45 6.958-27.832-37.11-49.866-64.942-33.63-82.338 46.387-161.196 93.934-243.533 141.48zm276.004-216.86c2.32 35.95 28.992 63.782 67.261 63.782 33.631 0 63.783-27.833 63.783-63.783 3.479-38.27-27.833-67.261-63.783-71.9-34.79 0-67.261 33.63-67.261 71.9zm24.353 291.08c3.48 0 4.639 2.319 8.118 2.319 49.866-90.456 104.371-184.39 157.717-273.685-4.64-3.48-8.118-5.799-11.597-9.278-3.48 5.799-13.916 9.278-16.236 15.076-17.395 35.95-41.748 61.463-84.657 69.581-6.958 2.32-13.916 16.236-16.235 26.673-15.076 55.664-25.513 111.33-37.11 169.313zm11.597-585.64c3.479 59.144 3.479 119.447 31.311 166.994 22.034 46.387 75.38 74.22 114.809 107.85 3.479 0 6.958-4.638 6.958-4.638-52.186-89.296-102.052-178.591-153.078-270.206z" style="fill:#000;fill-opacity:1;fill-rule:nonzero;stroke:none;"/>
</svg>
