<svg xmlns="http://www.w3.org/2000/svg" width="1000" height="1000">
  <path d="M5 500.496c0 271.98 220.55 494.507 495.496 494.507 271.98 0 494.507-220.55 494.507-495.496C995.003 227.528 773.464 5 500.496 5 226.54 5 5 225.55 5 500.496zm102.857-43.516c11.869-46.484 47.473-86.045 88.023-102.858 33.626-12.857 76.154-15.824 109.78-8.901 33.627 4.945 66.264 15.824 97.913 27.692 30.66 12.857 60.33 25.715 89.011 41.539 16.813 9.89 34.616 19.78 51.429 28.681 3.956 2.967 6.923 2.967 9.89-.989 5.934-5.934 10.88-9.89 15.824-15.824 34.616-26.703 72.198-48.462 114.726-60.33 31.648-8.9 62.308-13.846 93.956-9.89 29.67 2.967 60.33 11.868 85.055 28.681 24.726 16.814 40.55 38.572 47.473 68.242 8.901 52.418-5.934 105.825-36.593 144.397-16.814 21.758-36.594 37.582-62.308 47.472-26.704 10.88-55.385 15.824-85.056 12.857-31.648-4.945-62.307-10.879-91.978-22.747-34.615-13.846-67.253-29.67-99.89-46.484-21.759-11.868-42.528-22.747-64.286-33.626-1.978-.99-3.956 0-4.945.989-4.945 3.956-9.89 8.901-14.836 13.846-33.626 27.693-70.22 49.45-112.747 63.297-30.66 8.901-64.286 15.824-97.913 11.868-25.714-2.967-50.44-8.9-74.176-19.78-61.319-31.649-79.12-103.847-58.352-168.132zm20.77 39.56c10.879 16.813 26.703 28.681 44.505 37.583 36.594 17.802 74.176 24.725 114.726 21.758 35.605-3.956 72.198-9.89 106.814-19.78 8.9-1.978 18.79-4.945 28.681-7.912-1.978-1.978-3.956-1.978-5.934-2.967-40.55-21.759-80.11-44.506-121.649-64.286-26.703-11.869-54.396-19.78-84.066-18.792-15.824.99-30.66 5.934-43.517 12.857-15.824 8.902-28.681 21.759-39.56 34.616-1.978 2.967-1.978 4.945 0 6.923zm467.804-24.725c.989.989 1.978.989 1.978.989 4.945 2.967 9.89 6.923 16.813 8.9 33.626 19.781 69.23 37.583 107.802 52.419 25.715 9.89 54.396 15.824 83.078 15.824 9.89-.99 21.758-1.978 31.648-6.923 17.802-8.901 32.638-19.78 46.484-33.627 2.967-2.967 2.967-5.934.989-8.9-11.868-12.858-24.726-23.737-39.56-31.65-39.561-20.769-82.089-27.692-126.595-22.747-32.637 3.956-65.275 9.89-96.923 18.792-7.912.989-16.813 3.956-25.714 6.923z" style="fill:#000;fill-opacity:1;fill-rule:nonzero;stroke:none;"/>
</svg>
