<svg xmlns="http://www.w3.org/2000/svg" viewBox="0 0 1000 1000"><path d="M500.496 995.003c275.935 0 494.507-224.506 494.507-495.496C995.003 226.54 773.464 5 500.496 5 223.572 5 5 229.506 5 499.507c0 276.924 224.506 495.496 495.496 495.496zM124.671 506.43c.989-209.67 170.11-376.814 379.781-375.825 205.715.989 374.837 173.077 373.848 377.803-1.978 206.704-172.089 375.826-375.826 375.826-210.66-.99-377.803-168.133-377.803-377.804zm63.297-48.461c-30.66 159.23 79.12 321.43 239.341 359.012 146.374 34.615 325.386-52.418 359.012-178.023h-341.21c-16.813 0-30.66 1.978-45.494 12.857-19.78 14.836-46.484 9.89-61.32-7.912-15.823-18.791-17.801-44.505-1.977-62.308 15.824-20.769 40.55-23.736 63.297-12.857 11.868 5.934 24.725 10.88 38.571 10.88 112.748.988 228.463.988 343.188.988 9.89 0 18.792-1.978 28.682-1.978 42.527-166.154-66.264-341.21-237.364-380.77-178.022-41.539-332.309 75.165-366.924 199.78 4.945 0 10.88.99 15.824.99 117.693 0 235.386.989 355.056 0 9.89 0 20.77-4.945 29.67-9.89 23.737-13.847 50.44-9.89 66.265 8.9 14.835 18.792 13.846 44.506-1.978 63.298-15.825 17.802-41.539 22.747-63.297 7.912-11.868-8.901-23.737-10.88-38.572-10.88H216.65z"/></svg>