<svg xmlns="http://www.w3.org/2000/svg" width="1000" height="1000">
  <path d="M500.496 5C223.572 5 5 229.506 5 500.002c0 276.43 224.506 495.001 495.002 495.001 276.43 0 495.001-224.506 495.001-495.001C995.003 226.539 773.464 5 500.496 5zM196.87 798.19c177.033 168.132 435.166 162.198 599.342 12.857 87.034-79.122 135.495-180.001 143.408-298.683 7.912-117.692-30.66-221.539-106.814-313.517 69.231 64.286 138.462 201.759 115.715 354.067-26.704 180.99-130.55 306.594-305.606 361.98-176.044 55.384-345.166-7.913-446.045-116.705zm61.319-123.627v-87.034c0-29.67 22.747-54.395 52.417-54.395 31.649-2.967 57.363 19.78 57.363 47.472 3.956 34.616 3.956 66.264 3.956 100.88-3.956 31.648-29.67 52.418-63.297 50.44-27.692-1.979-50.44-23.737-50.44-57.363zm188.901-6.923V294.78c0-21.758 15.825-42.527 38.572-52.418 20.77-6.923 48.462 0 61.319 20.77 8.901 11.868 12.857 25.714 12.857 38.571v370.88c0 31.65-22.747 54.396-53.407 59.341-24.725 1.979-49.45-16.813-57.363-42.527-1.978-7.912-1.978-14.835-1.978-21.758zm188.902-144.397V384.781c0-34.615 24.725-58.351 56.374-58.351 29.67 0 55.385 23.736 55.385 58.351v138.462c0 31.649-25.715 59.341-55.385 59.341-31.649-1.978-56.374-27.692-56.374-59.34z" style="fill:#000;fill-opacity:1;fill-rule:nonzero;stroke:none;"/>
</svg>
