<svg xmlns="http://www.w3.org/2000/svg" viewBox="0 0 1000 1000"><path d="M5 500.496c0 271.98 220.55 494.507 495.496 494.507 271.98 0 494.507-220.55 494.507-495.496C995.003 227.528 773.464 5 500.496 5 226.54 5 5 225.55 5 500.496zM164.231 667.64V332.364c0-23.737 13.847-35.605 32.638-49.451C304.67 218.627 475.77 119.726 491.595 108.846c12.857-6.923 16.813-4.945 26.703 0 94.946 60.33 194.836 114.726 294.727 174.067 21.758 13.846 30.66 30.66 30.66 58.352v316.484c0 26.704-8.902 41.539-30.66 54.396-99.89 59.341-195.825 113.737-294.727 172.089-9.89 6.923-18.79 4.945-26.703 0-77.143-44.506-155.275-90-236.374-134.506-16.814-13.846-41.539-27.693-64.286-41.539-16.814-8.901-26.704-23.736-26.704-40.55zm90.99-36.594c0 9.89 9.89 17.802 12.857 22.747 73.187 45.495 150.33 85.056 223.517 130.55 7.912 5.934 16.813 5.934 30.66-3.956 72.198-41.538 145.385-85.055 217.583-126.594 12.857-4.945 18.79-12.857 18.79-26.703V436.21c0-4.945 0-10.879-5.933-18.791-7.912 4.945-7.912 4.945-16.813 10.88-68.242 34.615-132.528 68.241-194.836 102.857-27.693 14.835-46.484 18.79-72.1.098-1.879-.692-212.736-112.846-213.725-113.835v10.88c0 68.241-3.956 136.483 0 202.747zm26.703-298.682c203.737 115.714 203.737 117.692 222.528 117.692 22.748 0 49.45-21.758 73.187-36.593 49.451-26.703 93.957-50.44 145.385-77.143 6.923-7.912-122.637-73.187-209.67-126.594-4.946-3.956-12.858-1.978-21.759 4.945-63.297 36.594-122.638 68.242-182.968 103.847-7.912 3.956-13.846 8.9-26.703 13.846zm186.924 198.792.099.098z"/></svg>