<svg xmlns="http://www.w3.org/2000/svg" viewBox="0 0 1000 1000"><path d="M378.724 661.547H160.335l-56.841 149.581-.997.997c-1.995 4.986-8.975 9.972-14.958 9.972h-67.81c-10.97 0-16.953-8.974-13.962-18.947l255.286-683.088c3.989-12.964 20.942-11.967 24.93 0l250.3 684.086c2.992 8.975-2.992 17.95-12.964 17.95h-70.802c-7.977 0-12.963-2.992-15.955-9.973l-.997-.997-53.85-146.59c0-1.994-.997-2.991-2.991-2.991zm-181.492-110.69c-.997 1.994-.997 1.994.997 1.994h144.595c3.99 0 1.995 1.994.998-.997l-70.802-200.44c-.998-2.991.997-2.991.997 0zm366.973 69.804c0-1.994 3.989-4.986 6.98-4.986h89.75c5.983 0 6.98.997 7.977 2.992 33.905 85.76 64.819 114.679 118.668 114.679 55.844 0 98.724-44.875 98.724-102.713 0-62.824-56.841-92.74-121.66-122.657C690.851 474.071 609.08 435.18 609.08 331.47c0-79.777 52.852-141.604 144.596-167.531v-71.8c0-2.99 1.994-4.985 4.986-4.985h79.777c2.991 0 5.983 1.994 5.983 4.986v69.805c60.83 9.972 129.637 68.807 146.59 154.567.997 4.986-.998 10.97-2.992 10.97h-93.738c-4.986 0-6.98.997-6.98-.998-12.964-40.885-47.866-65.816-88.752-65.816-43.877 0-77.782 30.914-77.782 70.802 0 41.883 28.919 58.836 89.749 87.755C928.186 475.068 995 520.94 995 630.633c0 95.732-64.82 181.492-150.58 201.436v74.791c0 3.989-2.99 5.983-5.982 5.983H758.66c-2.992 0-4.986-1.994-4.986-5.983v-69.804c-115.677-24.93-167.531-82.769-189.47-216.395z"
    style="fill:#000;fill-opacity:1;fill-rule:nonzero;stroke:none"/></svg>