<svg xmlns="http://www.w3.org/2000/svg" viewBox="0 0 1000 1000"><path d="M500,5C226.62,5,5,226.62,5,500S226.62,995,500,995,995,773.38,995,500,773.38,5,500,5ZM346.73,140H416c-18.76,10.82-80.8,88-96.67,145.73H201ZM369.2,463.14a33.1,33.1,0,0,1,13.13-7,59.467,59.467,0,0,1,15.95-2.35,77.561,77.561,0,0,1,31.42,6.57,67.4,67.4,0,0,1,26.73,19.22q11.719,12.671,18.28,32.83,7,20.171,7,47.83,0,26.73-7.5,48.3-7.5,21.11-20.61,36.11a90.582,90.582,0,0,1-31.42,22.51,104,104,0,0,1-39.86,7.5,105.28,105.28,0,0,1-40.32-7.5,90.586,90.586,0,0,1-31.45-22.51q-13.129-14.53-20.64-35.64-7-21.1-7-47.36a175.512,175.512,0,0,1,7-50.65,285.249,285.249,0,0,1,19.23-46.42l65.65-128.52h61.47L368.74,462.67ZM348.17,860,201,714.27H315.71C333.74,757.55,366.36,817.29,413.1,860Zm136.36,0H452.06c-22.6-15.87-76.06-67.24-108.94-145.73H484.53Zm2.16-574.27h-140c9.86-30.06,45-101.29,106.78-145.73h33.22ZM514.83,140h32.46c22.61,15.87,76.04,67.24,108.94,145.73H514.83ZM700.7,336.09V571.5q0,49.69-21.1,77.37-20.6,27.671-65.14,27.65-32.36-.01-53.46-17.35-21.139-17.82-28.14-47.37l46.9-20.16a57.678,57.678,0,0,0,10.78,22.51q8.411,9.851,22,9.85,19.219.01,25.79-15.46t6.57-42.2V336.09ZM545.85,860H512.66V714.27H652.62C642.76,744.33,607.6,815.56,545.85,860Zm106.77,0H583.36c18.76-10.82,80.81-88,96.64-145.73H798.35Zm31.03-574.27c-18-43.28-50.65-103-97.4-145.73h64.93L798.35,285.73ZM364,498.34a36.075,36.075,0,0,1,19.22-5.16q22.53,0,33.78,18.76t11.25,47.83q0,30.48-12.19,49.71-11.73,18.75-33.3,18.76T349,610q-12.191-18.76-12.19-49.24A102.565,102.565,0,0,1,340.09,534a68.553,68.553,0,0,1,9.38-21.1A46,46,0,0,1,364,498.34Z" /></svg>