<?xml version="1.0" encoding="UTF-8"?><svg id="a" xmlns="http://www.w3.org/2000/svg" viewBox="0 0 1000 1000"><path d="M643.264,703.254c-22.318,0-40.411-18.092-40.411-40.411s18.092-40.411,40.411-40.411,40.411,18.092,40.411,40.411-18.092,40.411-40.411,40.411Zm-64.852,89.092c0,22.318,18.093,40.411,40.411,40.411s40.411-18.092,40.411-40.411-18.093-40.411-40.411-40.411-40.411,18.092-40.411,40.411Zm-31.336-260.95c-22.318,0-40.411,18.092-40.411,40.411s18.093,40.411,40.411,40.411,40.411-18.092,40.411-40.411-18.093-40.411-40.411-40.411Zm-270.916,10.883l21.004,126.511c2.949,17.764,18.332,30.36,35.767,30.36,1.974,0,3.977-.161,5.989-.495,19.778-3.285,33.149-21.979,29.865-41.757l-18.902-113.849-7.061-42.528L264.763,30.362C261.814,12.598,246.441,0,229.003,0c-1.977,0-3.981,.162-5.996,.497-19.778,3.284-33.149,21.978-29.865,41.756l80.159,482.818,2.857,17.209Zm79.128,205.915c0,22.318,18.092,40.411,40.411,40.411s40.411-18.092,40.411-40.411-18.092-40.411-40.411-40.411-40.411,18.092-40.411,40.411Zm155.32-341.686c-62.237,0-119.988,19.174-167.698,51.917l13.073,78.74c42.133-39.293,96.719-60.849,154.626-60.849,60.617,0,117.606,23.606,160.469,66.468,42.863,42.863,66.468,99.852,66.468,160.469s-23.606,117.606-66.468,160.469c-42.863,42.863-99.852,66.468-160.469,66.468s-117.606-23.606-160.469-66.468c-42.863-42.863-66.469-99.852-66.469-160.469,0-15.499,1.553-30.758,4.567-45.607l-20.693-124.638c-33.819,48.195-53.682,106.897-53.682,170.245,0,163.888,132.858,296.746,296.746,296.746s296.746-132.858,296.746-296.746-132.858-296.746-296.746-296.746Zm-89.679,171.773c-22.318,0-40.411,18.092-40.411,40.411s18.092,40.411,40.411,40.411,40.411-18.092,40.411-40.411-18.092-40.411-40.411-40.411Zm58.142,129.503c0,22.318,18.092,40.411,40.411,40.411s40.411-18.092,40.411-40.411-18.092-40.411-40.411-40.411-40.411,18.092-40.411,40.411Zm-26.018,131.079c0,22.318,18.092,40.411,40.411,40.411s40.411-18.092,40.411-40.411-18.092-40.411-40.411-40.411-40.411,18.092-40.411,40.411Z"/></svg>