<?xml version="1.0" encoding="utf-8"?>
<!-- Generator: Adobe Illustrator 26.0.1, SVG Export Plug-In . SVG Version: 6.00 Build 0)  -->
<svg version="1.1" id="Layer_1" xmlns="http://www.w3.org/2000/svg" xmlns:xlink="http://www.w3.org/1999/xlink" x="0px" y="0px"
	 viewBox="0 0 1000 1000" style="enable-background:new 0 0 1000 1000;" xml:space="preserve">
<path d="M500.5,5C223.6,5,5,229.5,5,499.5C5,773.5,226.5,995,499.5,995C776.4,995,995,770.5,995,499.5C995,223.6,770.5,5,500.5,5z
	 M498.5,839.7c-28.9-57.9-56.1-112.3-84.1-168.3c56.7,0,111.3,0,168.2,0C554.7,727.3,527.4,781.9,498.5,839.7z M769.1,721.3
	c-30.5,0.3-61-0.4-91.5,0.3c-13,0.3-20.1-5.1-25.2-16.3c-33.4-72.3-67-144.5-100.6-216.7c-17.2-37.1-34.5-74.2-53.3-114.5
	c-18.7,40.1-35.9,77.1-53.1,114.1c-33.6,72.2-67.2,144.4-100.5,216.7c-5.5,11.9-13.1,16.9-26.4,16.6c-30-0.7-60.1-0.1-90.2-0.3
	c-20.4-0.2-24.1-5.9-15.8-23.9c81-176.6,162.1-353.2,243-529.8c6.1-13.4,14.8-21.2,30.6-19.4c8.1,0.9,16.5,1,24.6,0
	c16.5-2,25.1,6.5,31.4,20.3C622.7,344.7,703.6,520.9,784.4,697C792.8,715.3,789.2,721.2,769.1,721.3z"/>
</svg>
