<svg xmlns="http://www.w3.org/2000/svg" width="1000" height="1000">
  <path d="M900.278 569.5c95.956-95.955 109.664-179.573 82.248-302.944C952.369 130.847 823.514 33.52 679.581 33.52c-72.652 0-138.45 26.045-194.653 71.281-12.337 10.967-19.19 16.45-42.494 10.967-172.72-87.73-400.272 27.416-434.542 237.148-12.337 97.326 15.079 179.574 76.765 252.226 45.236 50.719 101.438 82.247 163.124 97.326 17.82 5.483 20.562 8.225 26.045 24.674 10.966 56.203 34.27 102.81 76.764 145.304 72.652 72.652 160.383 102.81 261.822 91.843 72.652-6.854 139.82-37.011 191.91-91.843 65.799-72.652 95.956-161.753 79.507-264.563-1.37-19.191 0-24.674 16.45-38.382zM109.331 372.108C120.297 274.78 197.06 188.42 314.95 188.42c102.81 0 189.17 72.652 205.619 164.495-132.967 31.528-216.585 113.775-252.226 246.742-86.36-16.45-174.09-108.292-159.012-227.551zM371.152 655.86c-4.112-113.776 87.731-205.619 205.62-205.619 123.37 0 211.101 95.955 211.101 205.619 0 117.888-91.843 209.731-211.102 209.731-123.371 0-209.731-101.438-205.619-209.731zm179.574-467.44c46.607-57.574 175.462-76.765 267.305-5.484 82.247 71.282 102.81 205.62 20.562 297.462-4.113-4.112-9.596-9.595-15.079-13.708-46.607-58.944-101.439-94.584-174.09-108.292-15.08-5.483-26.046-12.337-31.529-31.528-5.483-46.607-24.674-87.731-56.202-123.372-2.742-6.854-12.338-10.966-10.967-15.078z" style="fill:#000;fill-opacity:1;fill-rule:nonzero;stroke:none;"/>
</svg>
