<svg xmlns="http://www.w3.org/2000/svg" width="1000" height="1000">
  <path d="M499.507 995.003h.99c89.01 0 172.088-22.45 249.23-67.253 74.474-44.209 133.814-103.55 178.023-178.022 44.803-77.143 67.253-160.418 67.253-249.726 0-89.308-22.45-172.583-67.253-249.726-44.209-74.473-103.55-133.814-178.022-178.023C672.585 27.45 589.31 5 500.002 5c-89.308 0-172.583 22.45-249.726 67.253-74.473 44.209-133.814 103.55-178.023 178.023C27.451 327.419 5 410.694 5 500.002c0 89.308 22.45 172.583 67.253 249.726C116.462 824.2 175.803 883.54 250.276 927.75c77.143 44.803 160.22 67.253 249.231 67.253zM321.485 200.825h243.297c9.89 0 15.824 1.978 22.747 7.912 88.023 79.121 145.386 178.022 149.342 298.682v15.824s0 3.957-3.956 3.957h-130.55c0-14.836-1.978-24.726-3.956-41.54-14.836-93.955-69.231-158.241-142.418-208.681-59.341-39.56-83.078-44.506-134.506-76.154zm89.01 593.408V419.397c56.375 92.967 110.77 184.946 164.177 274.946-53.407 33.626-107.802 64.286-164.176 99.89z" style="fill:#000;fill-opacity:1;fill-rule:nonzero;stroke:none;"/>
</svg>
