<svg width="1000" height="1000" viewBox="0 0 1000 1000" fill="none" xmlns="http://www.w3.org/2000/svg">
<path d="M289 2L87 204H251C273 124 359 17 385 2H289Z" fill="black"/>
<path d="M483 204V2H437C351.4 63.6 302.667 162.333 289 204H483Z" fill="black"/>
<path d="M522 204H718C672.4 95.2 598.333 24 567 2H522V204Z" fill="black"/>
<path d="M756 204H915L711 2H621C685.8 61.2 731 144 756 204Z" fill="black"/>
<path d="M713 1000L915 798L751 798C729 878 643 985 617 1000L713 1000Z" fill="black"/>
<path d="M519 798L519 1000L565 1000C650.6 938.4 699.333 839.667 713 798L519 798Z" fill="black"/>
<path d="M480 798L284 798C329.6 906.8 403.667 978 435 1000L480 1000L480 798Z" fill="black"/>
<path d="M246 798L87 798L291 1000L381 1000C316.2 940.8 271 858 246 798Z" fill="black"/>
<path d="M394.09 362.852C377.19 342.485 355.957 332.302 330.39 332.302C323.023 332.302 315.873 333.602 308.94 336.202C302.007 338.368 295.723 342.052 290.09 347.252C284.457 352.452 279.907 359.168 276.44 367.402C273.407 375.635 271.89 385.385 271.89 396.652C271.89 416.152 277.74 431.318 289.44 442.152C301.14 452.552 316.523 462.518 335.59 472.052C346.857 477.685 358.34 484.185 370.04 491.552C381.74 498.918 392.357 507.802 401.89 518.202C411.423 528.602 419.223 540.952 425.29 555.252C431.357 569.552 434.39 586.452 434.39 605.952C434.39 628.485 430.707 648.418 423.34 665.752C416.407 683.085 406.873 697.818 394.74 709.952C383.04 721.652 369.173 730.535 353.14 736.602C337.106 742.668 320.207 745.702 302.44 745.702C276.873 745.702 253.257 740.718 231.59 730.752C209.923 720.785 192.59 708.218 179.59 693.052L221.84 635.852C231.807 647.985 243.723 657.518 257.59 664.452C271.89 671.385 286.407 674.852 301.14 674.852C317.607 674.852 331.257 669.218 342.09 657.952C352.923 646.685 358.34 630.868 358.34 610.502C358.34 590.568 351.84 574.752 338.84 563.052C325.84 551.352 309.373 540.518 289.44 530.552C276.873 524.485 264.957 517.768 253.69 510.402C242.857 503.035 233.107 494.368 224.44 484.402C216.207 474.002 209.49 462.085 204.29 448.652C199.523 434.785 197.14 418.318 197.14 399.252C197.14 375.418 200.823 355.052 208.19 338.152C215.99 320.818 225.957 306.518 238.09 295.252C250.657 283.985 264.74 275.752 280.34 270.552C295.94 264.918 311.757 262.102 327.79 262.102C351.19 262.102 371.99 266.002 390.19 273.802C408.823 281.168 424.423 292.218 436.99 306.952L394.09 362.852Z" fill="black"/>
<path d="M814.782 409.652C814.782 433.052 811.099 453.635 803.732 471.402C796.799 488.735 787.482 503.252 775.782 514.952C764.082 526.652 750.649 535.318 735.482 540.952C720.315 546.585 704.715 549.402 688.682 549.402H634.082V734.002H557.382V273.802H684.782C699.515 273.802 714.682 275.968 730.282 280.302C745.882 284.635 759.749 292.218 771.882 303.052C784.449 313.452 794.632 327.318 802.432 344.652C810.665 361.985 814.782 383.652 814.782 409.652ZM740.682 410.302C740.682 385.602 734.832 367.618 723.132 356.352C711.432 345.085 696.482 339.452 678.282 339.452H634.082V485.702H678.282C696.482 485.702 711.432 479.418 723.132 466.852C734.832 453.852 740.682 435.002 740.682 410.302Z" fill="black"/>
</svg>
