<svg xmlns="http://www.w3.org/2000/svg" viewBox="0 0 1000 1000"><path d="M5 837.703V426.81c12.84-3.852 25.68-7.704 35.953-7.704 92.451-5.136 170.778-39.805 241.4-84.747 101.44-60.35 199.027-130.972 299.182-193.89 8.989-7.705 17.977-12.84 30.817-20.545 0 2.568 5.137 2.568 5.137 2.568v159.221c12.84-3.852 21.828-7.704 25.68-12.84 44.942-23.113 84.747-43.657 123.269-60.35 61.634-32.101 123.268-53.93 193.89-53.93 21.829 0 34.67 8.988 34.67 35.953v359.533c0 25.68-12.841 30.817-38.522 35.953-21.829 0-44.941 5.136-66.77 7.704-70.623 14.124-130.973 44.942-188.755 79.61-93.735 61.635-190.038 128.405-282.49 190.04-2.567 3.851-12.84 8.987-25.68 16.692V714.435c-52.646 25.68-92.451 52.646-136.109 73.19-61.634 32.102-123.268 52.646-193.89 57.782-16.693 5.137-39.805 8.989-57.782-7.704z"/></svg>