<?xml version="1.0" encoding="UTF-8"?><svg id="a" xmlns="http://www.w3.org/2000/svg" viewBox="0 0 1000 1000"><path d="M595.828,342.411c17.821,4.272,34.849,11.354,50.438,20.98v103.907h-99.722v-29.845c.702-8.367-1.834-16.683-7.086-23.237-5.978-4.855-13.448-7.505-21.152-7.505s-15.173,2.65-21.151,7.505c-5.252,6.554-7.789,14.87-7.086,23.237v125.254c-.703,8.367,1.834,16.683,7.086,23.236,5.994,4.819,13.457,7.446,21.151,7.446s15.157-2.627,21.152-7.446c5.252-6.553,7.788-14.869,7.086-23.236v-33.621h99.722v107.472c-15.635,9.54-32.648,16.616-50.438,20.981-23.582,6.531-47.96,9.743-72.43,9.547-52.31,.105-92.655-13.113-121.032-39.653-28.482-26.541-42.723-68.992-42.723-127.353,0-111.442,54.235-167.163,162.705-167.163,24.814-.231,49.541,2.964,73.48,9.494Zm404.172,157.59c0,276.142-223.858,499.999-500,499.999S0,776.142,0,500,223.858,0,500,0s500,223.857,500,500ZM725.012,208.703c.738,8.607,4.867,16.569,11.479,22.133l3.674,3.042,.525,.472c6.462,5.332,14.74,7.952,23.096,7.312,8.355-.641,16.135-4.493,21.708-10.748,5.573-6.255,8.502-14.424,8.172-22.792-.329-8.369-3.892-16.283-9.938-22.08l-4.094-3.882-1.154-1.154c-6.612-5.564-15.165-8.276-23.778-7.538-4.264,.365-8.415,1.566-12.215,3.535-3.8,1.968-7.175,4.666-9.932,7.937-2.757,3.272-4.842,7.055-6.136,11.131-1.294,4.077-1.773,8.369-1.407,12.631Zm-163.483-69.708c5.039,8.243,13.149,14.148,22.545,16.416h.368l4.618,1.101h.63c9.32,2.337,19.186,.879,27.43-4.054,8.243-4.933,14.188-12.936,16.526-22.25,2.339-9.314,.879-19.174-4.057-27.412-4.936-8.238-12.945-14.179-22.265-16.517l-5.248-1.469-.892-.21c-9.397-2.267-19.309-.712-27.557,4.325-8.248,5.036-14.157,13.141-16.426,22.53-2.269,9.391-.712,19.296,4.327,27.54Zm-188.342-11.092c2.164,9.127,7.789,17.059,15.691,22.121,7.901,5.064,17.461,6.863,26.665,5.02h.577l4.619-.997h1.364c4.701-1.082,9.137-3.091,13.051-5.908,3.913-2.817,7.227-6.386,9.743-10.498,2.517-4.112,4.188-8.684,4.915-13.45,.727-4.765,.496-9.628-.68-14.302-1.177-4.675-3.275-9.068-6.17-12.923-2.896-3.855-6.533-7.093-10.697-9.526-4.164-2.433-8.772-4.011-13.554-4.643-4.782-.632-9.641-.303-14.295,.965l-5.563,1.102v-.21c-9.052,2.479-16.788,8.374-21.576,16.443s-6.255,17.679-4.09,26.807Zm-151.473,54.101c-6.327,5.665-10.169,13.592-10.695,22.066-.525,8.474,2.308,16.815,7.887,23.217,5.579,6.402,13.456,10.353,21.928,10.998,8.471,.644,16.855-2.069,23.341-7.554l.472-.368,3.675-3.041,1.469-1.259c6.148-5.902,9.734-13.979,9.985-22.495,.251-8.515-2.852-16.79-8.641-23.043-5.79-6.254-13.805-9.987-22.32-10.397-8.515-.409-16.851,2.537-23.216,8.205l-4.146,3.881,.262-.209Zm-91.167,359.608l-.314-5.245c.051-.506,.051-1.016,0-1.521-.696-4.257-3.057-8.063-6.56-10.58-3.504-2.519-7.865-3.542-12.125-2.847-4.26,.696-8.069,3.053-10.588,6.556-2.52,3.501-3.544,7.86-2.848,12.117l.892,5.245-.21-.21c.466,4.208,2.586,8.059,5.893,10.705,3.308,2.646,7.531,3.871,11.743,3.404,4.21-.466,8.064-2.584,10.712-5.89,2.647-3.304,3.872-7.526,3.406-11.734Zm31.77-199.588c-2.968-6.035-8.212-10.645-14.581-12.814-6.368-2.171-13.338-1.724-19.377,1.242-6.038,2.965-10.651,8.207-12.822,14.572l-1.785,5.245,.315-.262c-2.006,6.104-1.596,12.743,1.145,18.553,2.742,5.811,7.606,10.351,13.593,12.689,5.988,2.337,12.644,2.293,18.601-.123,5.956-2.416,10.761-7.02,13.425-12.865v-.42l1.941-4.459c.317-.642,.58-1.309,.787-1.993,2.172-6.364,1.725-13.33-1.243-19.364Zm24.547,370.737l-2.73-4.353-.314-.472c-1.24-1.642-3.08-2.724-5.117-3.009-2.038-.285-4.106,.25-5.748,1.488-1.643,1.238-2.726,3.077-3.012,5.113-.285,2.036,.251,4.102,1.489,5.743l3.149,4.249-.105-.315c1.161,1.541,2.871,2.575,4.775,2.889,1.904,.313,3.856-.118,5.45-1.205,1.595-1.088,2.708-2.746,3.11-4.631,.402-1.887,.063-3.856-.949-5.498Zm134.786,127.852c.024-.247-.002-.503-.075-.742s-.193-.461-.351-.648c-.159-.196-.354-.358-.575-.469l-4.513-2.573c-.241-.163-.514-.273-.8-.323-.287-.05-.58-.038-.862,.034s-.544,.204-.771,.386c-.227,.182-.412,.41-.544,.669-.131,.262-.206,.544-.219,.834-.014,.29,.036,.58,.143,.853,.108,.264,.272,.512,.481,.708,.21,.205,.46,.358,.734,.461l4.57,2.304h-.004l.105,.05-.1-.05c.445,.237,.964,.289,1.445,.136,.239-.068,.461-.188,.653-.35,.193-.154,.352-.35,.47-.572,.118-.222,.19-.46,.214-.708Zm178.657,44.244l-5.196-.051h-.052l.052,.051h5.196Zm182.694-44.406c-.024-.273-.107-.537-.242-.776s-.319-.452-.541-.614c-.222-.162-.476-.273-.744-.333-.27-.06-.548-.06-.817,0-.269,.059-.523,.17-.743,.341l-4.724,2.252c-.392,.247-.677,.623-.8,1.075-.122,.444-.072,.913,.139,1.322,.212,.41,.57,.725,1.004,.887,.433,.154,.91,.145,1.336-.034l4.671-2.303,.263,.154c.255-.103,.484-.264,.674-.461s.334-.435,.425-.699c.091-.256,.124-.538,.1-.811Zm132.956-340.451c0-174.498-141.459-315.956-315.956-315.956S184.044,325.502,184.044,500s141.458,315.956,315.956,315.956,315.956-141.458,315.956-315.956Zm11.394,215.729c-.423-1.977-1.615-3.705-3.313-4.805-1.698-1.099-3.764-1.479-5.742-1.055-1.979,.423-3.708,1.614-4.807,3.311l-2.782,4.301c-.995,1.609-1.335,3.537-.951,5.388,.384,1.851,1.463,3.485,3.014,4.567,1.552,1.081,3.461,1.527,5.331,1.246,1.872-.281,3.564-1.268,4.73-2.757l3.201-4.196,.262-.263c1.1-1.696,1.479-3.76,1.056-5.738Zm46.583-328.691c6.082-2.291,11.038-6.854,13.827-12.724,2.781-5.871,3.173-12.594,1.1-18.749l-1.681-5.245-.682-1.993c-2.798-5.945-7.796-10.575-13.938-12.916-6.141-2.341-12.957-2.21-19.004,.363-6.05,2.574-10.865,7.392-13.433,13.44-2.568,6.049-2.69,12.856-.34,18.993l1.89,4.511,.262,.525c2.506,5.994,7.242,10.783,13.208,13.357,5.971,2.573,12.709,2.731,18.791,.439Zm27.884,158.663c.111-.367,.162-1.049,.264-1.783,.213-4.221-1.228-8.357-4.026-11.526-2.798-3.171-6.722-5.124-10.935-5.446-4.214-.322-8.393,1.015-11.635,3.725s-5.306,6.579-5.732,10.782l-.367,5.245v.367c-.52,4.174,.649,8.38,3.233,11.695,2.593,3.315,6.389,5.466,10.569,5.981,4.18,.515,8.385-.649,11.703-3.236,3.318-2.587,5.468-6.385,5.988-10.558l.938-5.246Z"/></svg>