<svg xmlns="http://www.w3.org/2000/svg" viewBox="0 0 1000 1000"><path d="M663.419 817.378h-185.18c-28.806 0-52.468-24.69-54.526-55.554-3.086-44.237 25.72-72.014 65.842-72.014 62.755 2.057 128.597 0 191.353 0 74.072 0 143-46.296 170.777-117.281 24.69-64.813 18.518-124.483-18.518-180.037-36.007-53.496-87.446-82.302-152.26-82.302h-200.61c-30.863 0-56.583-27.777-56.583-58.64-2.057-24.691 4.115-46.295 23.662-57.612 10.288-7.201 23.662-9.259 32.921-9.259 68.928 0 139.914-2.058 209.87 0 64.814 2.058 124.483 22.633 177.98 64.813 48.352 39.094 83.33 85.389 103.906 140.943 16.46 42.18 24.691 85.388 22.633 127.568-7.201 80.245-38.064 150.202-93.618 205.756-42.18 42.18-90.533 70.986-148.145 84.36-26.748 5.144-58.64 7.202-89.503 9.26zM5 247.435c0-31.893 20.576-62.756 59.67-62.756 64.812-2.058 128.597-2.058 191.352-2.058 41.151 0 69.957 44.238 55.554 86.418-8.23 25.72-30.863 41.151-57.611 41.151H66.727C27.633 307.104 7.057 282.413 5 247.435zm215.015 220.158c12.345-19.547 31.892-28.806 53.496-28.806H587.29c23.662 0 45.266 0 67.9 2.058 27.776 2.058 46.294 26.748 46.294 54.525 2.058 33.95-11.316 56.583-46.295 65.842-7.201 2.058-12.345 2.058-18.518 2.058h-363.16c-19.546 0-39.093-9.26-51.439-27.777-12.345-21.605-12.345-44.238-2.057-67.9z"/></svg>