<svg xmlns="http://www.w3.org/2000/svg" viewBox="0 0 1000 1000"><path d="M422.26,511.94q11.26,18.769,11.26,47.83,0,30.48-12.19,49.71Q409.6,628.23,388,628.24T354.27,610q-12.191-18.76-12.2-49.24A102.607,102.607,0,0,1,345.36,534a68.553,68.553,0,0,1,9.38-21.1,46.128,46.128,0,0,1,14.53-14.54,36.139,36.139,0,0,1,19.23-5.16q22.5-.019,33.76,18.74ZM995,500c0,273.38-221.62,495-495,495S5,773.38,5,500,226.62,5,500,5,995,226.62,995,500ZM346.69,285.73h140V140H453.47C391.69,184.44,356.55,255.67,346.69,285.73Zm-145.69,0H319.33C335.2,228,397.24,150.82,416,140H346.73ZM413.1,860c-46.74-42.71-79.36-102.45-97.39-145.73H201L348.17,860Zm71.43-145.73H343.12C376,792.76,429.46,844.13,452.06,860h32.47ZM487,560.24q0-27.66-7-47.83-6.559-20.16-18.29-32.83a67.252,67.252,0,0,0-26.73-19.22,77.444,77.444,0,0,0-31.41-6.57,59.387,59.387,0,0,0-15.95,2.35,33.1,33.1,0,0,0-13.13,7l-.47-.47,67.53-126.61H380.06L314.41,464.58A284.43,284.43,0,0,0,295.18,511a175.512,175.512,0,0,0-7,50.65q0,26.261,7,47.36,7.5,21.11,20.63,35.64a90.763,90.763,0,0,0,31.42,22.51,105.334,105.334,0,0,0,40.33,7.5,104,104,0,0,0,39.86-7.5,90.683,90.683,0,0,0,31.42-22.51,110.172,110.172,0,0,0,20.63-36.11Q487,587,487,560.24Zm27.83-274.51h141.4C623.33,207.24,569.9,155.87,547.29,140H514.83ZM632.82,616V336.09H576.07v332H724.26V616Zm19.8,98.27H512.66V860h33.19C607.6,815.56,642.76,744.33,652.62,714.27Zm145.73,0H680C664.17,772,602.12,849.18,583.36,860h69.26Zm0-428.54L651.18,140H586.25c46.75,42.73,79.4,102.45,97.4,145.73Z"/></svg>