<svg xmlns="http://www.w3.org/2000/svg" width="1000" height="1000">
  <path d="M500.496 5C223.572 5 5 229.506 5 500.002c0 276.43 224.506 495.001 495.002 495.001 276.43 0 495.001-224.506 495.001-495.001C995.003 226.539 773.464 5 500.496 5zM151.374 672.585V328.408c0-24.726 10.88-41.539 33.627-56.374 12.857-9.89 172.088-101.869 257.143-150.33 30.66-17.803 51.43-29.67 51.43-29.67 14.834-6.924 22.746-1.979 45.494 11.867 33.626 18.792 67.253 38.572 101.868 58.352 64.286 37.583 128.572 76.154 194.836 109.78 19.78 13.847 26.703 23.737 26.703 43.517-2.967 84.067-1.978 165.166-.989 247.254 0 40.55.99 81.1.99 122.638 0 14.835-9.89 19.78-18.792 22.747-9.89 6.923-20.77 13.846-32.637 20.77-17.803 10.879-36.594 21.758-56.374 31.648a14587.83 14587.83 0 0 0-154.286 89.011c-30.66 17.802-60.33 35.605-91.979 52.418-4.945 3.956-5.934 0-13.846-2.967l-6.923-4.945c-104.836-59.341-209.671-119.67-311.54-180.99-16.813-9.89-24.725-22.747-24.725-40.55zm29.67-328.353c3.957 176.044 2.968 74.176 2.968 312.528 0 11.869 4.945 15.825 19.78 15.825H356.1c2.967 0 6.923 0 14.835-.99-64.286-108.791-126.594-218.572-189.89-327.363zm22.748-31.649c-4.55-8.307 75.363 136.287 81.099 147.265 27.692-50.341 56.374-99.792 84.066-148.254 33.726-56.868 66.462-112.747 96.528-168.528-86.242 54.792-172.484 106.616-259.715 152.704-10.88 5.934-10.88 8.901-1.978 16.813zm22.747 391.65v-.989l.99.99c.988.988 1.186.988 1.977.988 45.495 26.703 90.99 53.407 137.473 81.1 40.55 23.736 81.1 47.472 120.66 72.197 10.88 3.956 10.88.99 16.813-6.923 19.78-29.67 37.583-61.319 55.385-92.967 8.901-13.846 16.813-28.682 25.714-43.517 1.978-3.956 2.967-5.934 3.956-9.89-121.352 0-238.748 0-361.979-.989zm58.352-244.286v-.1c.495.89.495.99 0 .1zm27.692 17.802c-5.934 8.9-2.967 12.857 1.978 15.824 8.902 3.956 15.825 8.901 22.748 12.857 16.813 7.912 39.56 21.759 42.527 21.759 0-55.583 0-112.056 1.78-170.309-4.846 8.704-9.79 16.912-14.637 25.912-17.802 31.649-36.593 64.286-54.396 93.957zm8.902 55.385c14.835 12.857 44.505 63.297 57.362 92.967 21.759 44.506 23.737 47.473 76.155 8.901 5.934-3.956 12.857-8.901 21.758-13.846-18.791-9.89-35.605-19.78-51.429-28.682-35.604-19.78-69.23-38.571-103.846-59.34zm60.148-175.3.181-5.69h2.967c-1.087 1.88-2.076 3.857-3.164 5.736zm28.863 46.728 1.978-1.286c36.989-23.242 74.868-44.605 113.737-65.967 13.846-7.912 22.747-12.857 36.593-20.77 4.945-2.967-131.539 0-142.418 0-4.945 0-7.912 2.968-7.912 7.913v79.12zm1.978 129.56c.989 10.88 4.945 15.825 14.835 23.737 15.824 8.901 27.693 16.813 47.473 27.692 25.714 15.825 35.604 15.825 64.286 0 1.978-1.978 4.945-3.956 7.912-4.945 2.967-2.967 6.923-4.945 12.857-6.923 50.44-30.66 44.506-11.868 44.506-77.143v-35.604c0-14.836-3.956-21.759-13.847-28.682-10.879-5.934-21.758-11.868-33.626-19.78-12.857-6.923-25.714-13.846-37.583-19.78-7.912-4.945-11.868-4.945-20.769 0-12.857 6.923-26.703 13.846-40.55 20.769-10.879 6.923-22.747 11.868-34.615 18.791-9.89 6.923-10.88 9.89-10.88 23.737zm12.857-251.209H778.41c-46.483-30.66-107.802-65.275-163.187-95.934-33.627-18.792-64.286-36.594-89.011-51.43-12.858-7.911-11.869-8.9-17.803-.988-16.813 31.648-34.615 62.308-52.417 94.945-9.89 16.813-20.77 34.616-30.66 53.407zm14.835 389.672h149.341c10.88 0 14.836-3.956 14.836-15.825v-64.286c0-3.263-.495-4.549-.693-5.043-12.659 6.428-25.12 13.549-36.89 19.879zm25.28-529.567 2.413-4.501v2.967zm69.666 225.94v-2.968l3.066 1.78c47.67 27.594 99.89 55.089 151.22 83.572-9.297-12.363-18.495-27-28.682-40.846-16.813-26.704-33.626-53.407-49.45-81.1 0 0-1.978-1.977-4.945-.988-14.836 6.923-27.693 15.824-42.528 24.725-8.01 5.34-16.12 10.78-25.615 14.637-.99.396-1.978.792-3.066 1.187zm10.879 473.737c16.813-4.945 80.11-43.517 135.495-74.176 42.527-25.714 85.055-50.44 129.56-74.176 8.902-6.923 9.89-10.88 2.968-18.791-13.846-24.726-27.693-47.473-40.55-69.231-12.857-23.737-26.703-46.484-40.55-70.22 0 0-.988-.99-2.967-5.934-34.615 54.395-65.274 107.802-96.923 163.187-27.692 49.45-56.374 99.89-87.033 149.341zm57.663-255.294c-.201-.762.194-.168 3.656-1.85-1.187.594-2.473 1.187-3.66 1.88zm29.37 43.645c0 .99 57.363-97.912 57.363-96.923 22.747-43.517 18.791-32.638-14.835-54.396-6.923-2.967-12.857-5.934-18.792-8.901-6.923-3.956-14.835-6.923-23.736-11.868zm9.89-312.528c31.649 52.417 63.297 104.835 93.957 157.253 30.659 52.418 61.318 103.846 91.978 155.275V335.331c0-18.792 0-18.792-18.791-18.792-92.968 0-149.342-1.978-167.144 1.979zm46.45 132.84 3 1.665-.988.99c-.692-.89-1.385-1.78-1.978-2.67z" style="fill:#000;fill-opacity:1;fill-rule:nonzero;stroke:none;"/>
</svg>
