<svg xmlns="http://www.w3.org/2000/svg" viewBox="0 0 1000 1000"><path d="M500.496 5C223.572 5 5 229.506 5 500.002c0 276.43 224.506 495.001 495.002 495.001 276.43 0 495.001-224.506 495.001-495.001C995.003 226.539 773.464 5 500.496 5zM134.561 686.43V368.958c0-17.802 9.89-26.703 26.703-26.703H476.76c17.802 0 26.703 8.901 26.703 26.703v101.869c0 12.857-4.945 17.802-17.802 17.802h-110.77c-20.769 0-32.637 2.967-44.505 21.758-13.846 16.814-31.649 34.616-49.451 56.374h200.77c16.813 0 21.758 4.945 21.758 22.747v96.924c0 16.813-8.9 25.714-26.703 25.714H161.264c-16.813 0-26.703-8.9-26.703-25.714zm372.858-119.67h180.99c26.703 0 43.517-16.813 43.517-39.56 0-26.704-16.814-43.517-48.462-43.517H511.375c0-74.176 93.957-149.341 180.99-149.341 101.868 0 188.902 83.077 188.902 184.945C886.212 621.156 807.09 708.19 706.21 717.09c-92.967 7.912-189.89-61.319-198.792-150.33z"/></svg>