<svg xmlns="http://www.w3.org/2000/svg" viewBox="0 0 1000 1000"><path d="M500.496 995.003c275.935 0 494.507-224.506 494.507-495.496C995.003 226.54 773.464 5 500.496 5 223.572 5 5 229.506 5 499.507c0 276.924 224.506 495.496 495.496 495.496zM233.462 250.276c143.407-149.342 385.716-150.33 531.101-2.968 147.363 151.32 132.528 377.804 15.824 502.42-81.099-81.1-161.21-162.199-240.33-241.32L676.54 371.924v208.682c16.813 16.814 31.648 31.649 48.461 49.451 0-7.912.99-13.846.99-19.78V333.353c0-15.825-2.968-28.682-20.77-34.616-14.835-6.923-25.714-4.945-37.582 6.923a11201.33 11201.33 0 0 1-153.298 153.298c-3.956 4.945-6.923 10.879-10.879 15.824-1.978.989-5.934 1.978-7.912 2.967-2.967-6.923-5.934-13.846-10.88-18.791-49.45-50.44-100.879-100.88-151.318-151.32-10.88-12.857-21.759-16.813-37.583-9.89-15.824 5.934-21.758 15.824-21.758 32.638.989 118.681.989 237.363 0 357.034 0 16.813 6.923 25.714 21.758 31.648 15.824 6.923 25.715 2.967 37.583-7.912 49.45-51.429 99.89-101.868 150.33-153.297 4.945-4.945 8.901-9.89 10.88-13.846 84.065 84.066 165.164 164.176 246.264 244.286-111.759 108.792-335.276 136.484-492.53-5.934C95 641.925 88.078 401.595 233.463 250.275zm90.99 393.627v-270c46.483 44.505 91.978 90 135.495 134.505z"/></svg>