<svg xmlns="http://www.w3.org/2000/svg" width="1000" height="1000">
  <path d="M5 500.496c0 271.98 220.55 494.507 495.496 494.507 271.98 0 494.507-220.55 494.507-495.496C995.003 227.528 773.464 5 500.496 5 226.54 5 5 225.55 5 500.496zm113.737 22.747c-9.89-15.824-9.89-29.67 0-44.505 80.11-120.66 192.857-191.869 338.243-207.693 12.857-2.967 32.637-2.967 46.483-2.967 167.144 2.967 293.737 73.187 388.683 207.693 10.879 17.802 10.879 31.648 0 48.461-84.066 117.693-192.858 188.902-332.309 204.726-90 10.88-169.121 0-245.276-35.604-83.077-37.583-149.34-95.934-195.824-170.11zm45.494-4.945c27.693 35.605 60.33 68.242 96.924 94.946 29.67 20.77 65.275 36.593 96.923 53.407l3.956-3.957c-35.604-32.637-58.352-72.198-69.23-115.714 0-2.967-1.979-6.923-6.924-10.88-6.923-6.922-10.88-20.769 0-28.68 6.923-3.957 17.802-6.924 28.681-3.957 11.869 3.956 11.869 14.835 6.924 30.66-2.967 5.934-2.967 12.857-2.967 19.78 22.747 62.308 58.351 106.813 119.67 128.572 61.32 19.78 121.649 13.846 174.067-21.759 7.912-4.945 21.758-4.945 21.758 0 6.923 9.89 14.835 5.935 25.714 1.978 77.144-32.637 137.473-83.077 188.902-147.363 9.89-11.868 5.934-21.758 0-30.66-35.604-46.483-76.154-87.032-127.583-114.725-21.758-14.835-47.472-25.714-68.242-36.593l-3.956 3.956c27.693 29.67 50.44 57.363 61.32 98.901 3.955 6.923 10.878 12.857 15.823 20.77 5.935 10.879 10.88 21.758 1.978 27.692-6.923 8.901-17.802 11.868-24.725 8.901-14.835 0-14.835-10.88-14.835-25.714 0-14.836 0-29.67-6.923-43.517-17.802-43.517-50.44-80.11-93.957-97.912-66.264-28.682-127.582-21.759-185.934 10.879-6.923 3.956-17.803 6.923-20.77 3.956-7.912-10.88-18.79-7.912-26.703-3.956-75.165 29.67-140.44 79.12-189.89 145.385-11.869 13.846-9.89 20.77 0 35.604zm128.572-50.44c8.901-43.516 25.715-83.077 54.396-112.747 3.956-3.956 10.88 0 18.791-3.956-3.956 6.923 0 15.824-3.956 18.791-24.725 27.693-40.55 61.32-47.473 100.88-2.967 4.945-10.879 7.912-12.857 11.868-4.945-6.923-8.9-11.868-8.9-14.835zm37.583 28.682c0-93.956 82.088-170.11 177.033-170.11 92.968 0 174.067 81.099 174.067 174.066 0 96.924-81.1 173.078-178.023 173.078S330.386 594.452 330.386 496.54zm23.736 3.956c0 86.044 66.264 152.308 153.297 152.308 80.11 0 148.352-68.242 148.352-152.308 3.956-73.187-59.34-153.297-152.308-153.297-83.077 0-149.341 69.23-149.341 153.297zm104.836-17.802c-17.803-22.747-8.902-55.385 8.9-73.187 25.715-17.802 58.353-17.802 76.155 0 21.758 17.802 28.681 50.44 10.879 75.165-10.88 15.824-15.824 26.703-10.88 44.506 2.968 17.802 5.935 33.626 10.88 50.44 4.945 22.747-4.945 29.67-26.703 29.67h-20.77c-50.44 0-50.44 0-43.516-51.429 0-6.923 3.956-13.846 3.956-21.758 1.978-17.803 5.934-35.605-8.901-53.407zm189.89 163.187c0-7.912 0-15.824 3.956-18.791 20.77-29.67 35.605-62.308 43.517-97.912 2.967-5.935 9.89-10.88 13.846-13.847 3.956 2.967 6.923 7.912 10.88 8.901-6.924 49.451-24.726 85.056-50.44 117.693-4.945 3.956-14.836 3.956-21.759 3.956z" style="fill:#000;fill-opacity:1;fill-rule:nonzero;stroke:none;"/>
</svg>
