<svg xmlns="http://www.w3.org/2000/svg" viewBox="0 0 1000 1000"><path d="M500.496 5C223.572 5 5 229.506 5 500.002c0 276.43 224.506 495.001 495.002 495.001 276.43 0 495.001-224.506 495.001-495.001C995.003 226.539 773.464 5 500.496 5zM133.572 673.574C248.298 483.683 476.76 102.912 476.76 104.89v321.43c0 15.824-2.967 19.78-15.824 26.703-27.693 12.858-39.561 43.517-30.66 75.166 9.89 26.703 36.594 46.483 64.286 46.483 28.681-1.978 55.385-22.747 62.308-47.472 7.912-33.627-4.945-61.32-33.627-74.177-8.9-5.934-11.868-10.879-11.868-21.758V103.901c49.451 79.122 96.924 160.22 146.374 241.32 66.264 108.791 131.54 218.572 198.792 328.353l-350.11 207.693c-9.89 6.923-15.825 7.912-23.737 2.967z"/></svg>