<svg xmlns="http://www.w3.org/2000/svg" width="1000" height="1000">
  <path d="M407.529 627.09c4.945 38.572 21.758 38.572 46.483 38.572 68.242-12.858 137.473-5.935 202.748 25.714 20.77 4.945 28.682.989 41.539-14.835 32.638-40.55 53.407-86.045 79.121-126.594 38.572-60.33 67.253-113.737 83.077-146.374-108.791 50.44-211.649 95.934-296.704-31.649-7.912 28.682-16.813 47.473-7.912 57.363 55.385 61.319 109.78 82.088 198.792 63.297-28.682 50.44-59.341 97.912-90 148.352-82.089-29.67-168.133-33.626-257.144-13.846zM5 500.496C5 225.55 226.54 5 500.496 5c272.968 0 494.507 222.528 494.507 494.507 0 274.946-222.528 495.496-494.507 495.496C225.55 995.003 5 772.475 5 500.496zm154.286-94.945L316.54 676.54c21.758 24.725 37.582 24.725 60.33 0-13.847-25.715-30.66-49.451-44.506-75.165-19.78-37.583-45.495-74.176-72.198-108.792h2.967c5.934 0 10.879 1.978 17.802 1.978 58.352 13.846 114.726-1.978 161.21-42.528 18.79-17.802 37.582-38.571 54.395-59.34 6.923-11.869 15.824-22.748 25.714-33.627 15.825-24.725 11.869-45.495-13.846-64.286-11.868 18.791-24.725 36.594-39.56 54.396-63.297 76.154-104.836 124.616-200.77 95.934-32.638-9.89-71.21-21.758-108.792-39.56z" style="fill:#000;fill-opacity:1;fill-rule:nonzero;stroke:none;"/>
</svg>
