<?xml version="1.0" encoding="utf-8"?>
<!-- Generator: Adobe Illustrator 26.0.1, SVG Export Plug-In . SVG Version: 6.00 Build 0)  -->
<svg version="1.1" id="Layer_1" xmlns="http://www.w3.org/2000/svg" xmlns:xlink="http://www.w3.org/1999/xlink" x="0px" y="0px"
	 viewBox="0 0 1000 1000" style="enable-background:new 0 0 1000 1000;" xml:space="preserve">
<g>
	<polygon points="498.3,463.5 733.2,325.5 497,187.4 262.1,325.5 	"/>
	<polygon points="469.1,518.4 232.3,380.4 232.3,655.1 469.1,792.1 	"/>
	<polygon points="530.9,797.1 767.7,658.5 767.7,384.4 530.9,522.4 	"/>
	<path d="M500.5,5C223.6,5,5,229.5,5,499.5C5,773.5,226.5,995,499.5,995C776.4,995,995,770.5,995,499.5C995,223.6,770.5,5,500.5,5z
		 M816.1,686.6L498.3,868.8L183.9,682.6l0.7-368.5l311.8-182.9l319.8,186.3V686.6z"/>
</g>
</svg>
