<svg xmlns="http://www.w3.org/2000/svg" viewBox="0 0 1000 1000"><path d="M587.117 18.78C450.682 209.536 315.511 399.03 180.34 588.522h270.343c-26.529 130.119-48.005 257.71-72.007 385.303-218.55-48.005-410.569-276.66-367.618-550.793C59.063 137.529 331.933-27.962 587.118 18.78zM411.52 980.14C547.955 788.121 683.127 602.418 819.562 410.4h-265.29c21.476-127.592 41.688-257.71 65.69-382.776C763.979 66.785 872.62 143.845 938.313 272.7c89.693 189.494 74.533 368.88-56.849 533.108C758.924 966.245 563.115 1010.46 411.52 980.14z"/></svg>