<svg xmlns="http://www.w3.org/2000/svg" viewBox="0 0 1000 1000"><path d="M500.496 5C223.572 5 5 229.506 5 500.002c0 276.43 224.506 495.001 495.002 495.001 276.43 0 495.001-224.506 495.001-495.001C995.003 226.539 773.464 5 500.496 5zM203.792 590.496c-7.912-96.923 47.473-187.912 135.495-229.45 2.967-.99 6.923-4.946 7.912-6.924 41.539-90.99 134.506-144.396 236.374-135.495 95.935 10.88 178.023 83.077 199.781 180 24.726 105.825-29.67 214.617-129.56 261.1-3.957 1.978-6.924 4.946-9.89 8.902-37.583 82.088-119.671 135.495-210.66 135.495-118.683 0-219.562-92.968-229.452-213.628zm65.275 16.814c13.846 68.242 70.22 121.648 139.45 132.528 68.243 10.879 128.573-21.759 155.276-60.33-66.264 1.978-121.649-19.78-169.121-67.253-46.484-46.484-68.242-103.847-68.242-170.11-41.539 33.626-72.198 97.912-57.363 165.165zm121.649-192.858c-24.726 118.682 82.088 225.495 201.758 200.77 4.946-1.978 6.924-2.967 7.913-7.912 21.758-104.836-58.352-204.726-165.166-204.726-11.868 0-23.736 1.978-35.604 2.967-4.945 1.978-6.923 3.956-8.901 8.9zm37.582-73.187c66.264 0 122.638 21.758 169.122 68.242 46.483 46.484 69.23 102.857 68.242 170.11 48.461-39.56 73.187-108.791 55.384-177.033-19.78-66.264-78.132-116.704-146.374-122.638-56.374-3.956-128.572 25.714-146.374 61.319z"/></svg>