<svg xmlns="http://www.w3.org/2000/svg" viewBox="0 0 1000 1000"><path d="M333.337,765.42c184.1,0,333.337-149.239,333.337-333.337S517.435,98.746,333.337,98.746,0,247.986,0,432.083s149.24,333.337,333.337,333.337Zm666.663-197.52c0,184.1-149.242,333.335-333.34,333.335-104.629,0-197.983-48.219-259.096-123.633,21.614-4.623,42.768-11.267,63.315-19.958,42.078-17.797,79.863-43.271,112.306-75.715,32.443-32.443,57.917-70.229,75.714-112.306,18.43-43.574,27.775-89.849,27.775-137.541s-9.345-93.967-27.775-137.541c-8.578-20.281-18.957-39.553-31.023-57.722,12.726-1.475,25.662-2.258,38.784-2.258,184.098,0,333.34,149.239,333.34,333.339Z"/></svg>