<svg xmlns="http://www.w3.org/2000/svg" width="1000" height="1000">
  <path d="M500.496 5C223.572 5 5 229.506 5 500.002c0 276.43 224.506 495.001 495.002 495.001 276.43 0 495.001-224.506 495.001-495.001C995.003 226.539 773.464 5 500.496 5zM237.418 405.55c0-43.516 1.978-87.032 0-130.55 0-20.768 4.945-33.626 26.704-46.483 38.571-22.747 81.099-45.494 121.649-69.23 11.868-8.902 24.725-8.902 36.593 0 42.528 25.714 89.011 49.45 130.55 76.153 7.912 5.934 15.824 17.803 15.824 28.682 1.978 51.428 1.978 103.846 1.978 155.275 0 17.802-9.89 27.692-20.77 33.626-42.527 22.748-82.087 47.473-121.648 71.21-15.824 8.9-22.747 19.78-22.747 36.593.989 21.758.989 41.539 0 63.297 0 23.736-12.857 32.637-33.627 20.77-39.56-22.748-80.11-47.473-120.66-71.21-5.934-3.956-11.868-18.791-11.868-26.703-1.978-46.484-1.978-93.957-1.978-141.43zm204.726 321.43V576.65c0-16.813 5.934-27.692 21.759-35.604 41.538-20.77 80.11-47.473 121.648-71.21 14.836-7.911 22.748-18.79 20.77-36.593-1.978-21.758 0-44.505 0-65.275 1.978-24.725 13.846-30.66 35.604-18.791 38.572 20.77 77.143 44.506 113.737 67.253 14.835 7.912 18.791 17.802 18.791 33.626v274.946c1.978 15.825-3.956 27.693-19.78 34.616-41.539 26.703-85.055 52.418-128.572 75.165-8.901 4.945-23.736 4.945-32.637.989-45.495-23.736-87.034-50.44-130.55-75.165-14.836-7.912-20.77-18.791-20.77-33.627z" style="fill:#000;fill-opacity:1;fill-rule:nonzero;stroke:none;"/>
</svg>
