<svg xmlns="http://www.w3.org/2000/svg" width="1000" height="1000">
  <path d="M5 500.496c0-90 22.747-173.077 67.253-250.22 44.506-74.177 103.846-133.517 178.023-178.023C327.419 27.747 410.496 5 500.496 5c89.011 0 172.089 22.747 249.232 67.253 74.176 44.506 133.517 103.846 178.022 178.023 44.506 77.143 67.253 160.22 67.253 249.231 0 90-22.747 173.078-67.253 250.22-44.505 74.177-103.846 133.518-178.022 178.023-77.143 44.506-160.22 67.253-249.232 67.253-90 0-173.077-22.747-250.22-67.253-74.177-44.505-133.517-103.846-178.023-178.022C27.747 672.585 5 589.508 5 500.496zm194.836-149.341c0 31.648 24.725 53.407 53.407 53.407h200.77c19.78 0 31.648-11.868 31.648-32.638 0-16.813 0-26.703 22.747-26.703 20.77 0 20.77 15.824 20.77 26.703 0 26.704 11.868 32.638 32.637 32.638h199.78c38.573 0 59.342-21.759 59.342-49.451 0-26.703-20.77-41.539-59.341-41.539-47.473 0-63.297 2.967-87.033-5.934 0-5.934 1.978-5.934 5.934-10.879 20.77-37.582 20.77-59.34-5.934-87.033-25.715-21.758-58.352-15.824-86.045 10.88-21.758 20.768-38.571 43.516-53.406 64.285-22.748 32.637-32.638 32.637-54.396 0-21.758-25.714-47.473-52.418-76.154-75.165-15.824-15.824-38.572-15.824-59.341 0-21.758 15.824-34.616 37.582-26.703 60.33 4.945 8.9 9.89 20.77 20.769 37.582-13.846 3.956-21.758 7.912-43.517 5.934-51.429 0-95.934-4.945-95.934 37.583zm31.648 344.177c5.934 61.319 44.506 98.901 102.858 98.901h112.747c26.704 0 38.572-10.879 38.572-37.582V468.848c0-15.825-4.945-26.704-26.703-26.704h-200.77c-20.77 0-26.704 10.88-26.704 26.704zm129.561-431.21c-6.923-10.88-4.945-16.814 0-22.748 10.88-6.923 22.747-3.956 27.693 0 20.769 17.803 38.571 33.627 58.351 60.33-37.582 5.934-74.176-10.879-86.044-37.582zm168.133 498.463c0 20.77 5.934 31.648 32.637 31.648h112.748c65.275 0 102.857-37.582 102.857-101.868 4.945-76.154 0-147.363 4.945-223.517 0-15.825-8.9-26.704-31.648-26.704H554.892c-19.78 0-25.714 10.88-25.714 32.638V616.21zm37.582-460.88c21.758-22.748 32.638-42.528 55.385-60.33 2.967-3.957 20.77-12.858 31.648 0 6.923 13.846 0 28.68-4.945 33.626-23.736 21.758-44.505 38.571-82.088 26.703z" style="fill:#000;fill-opacity:1;fill-rule:nonzero;stroke:none;"/>
</svg>
