<svg xmlns="http://www.w3.org/2000/svg" width="1000" height="1000">
  <path d="M500.496 5c272.968 0 494.507 221.54 494.507 495.002 0 270.495-218.572 495.001-495.001 495.001C229.506 995.003 5 776.431 5 500.002 5 229.506 223.572 5 500.496 5zM157.308 639.947c68.242 167.144 240.33 260.11 418.353 234.397 134.506-21.759 279.891-150.33 285.825-250.221-140.44 31.648-271.979 9.89-391.65-67.253-118.681-79.121-192.857-188.902-208.681-334.287C157.308 305.66 94.01 482.693 157.308 639.947zm213.627-417.364c31.649 19.78 67.253 35.605 104.836 52.418 130.55 46.484 265.056 92.967 400.55 140.44v-11.868c-25.714-92.968-83.077-170.11-166.154-222.528-103.846-63.297-214.616-73.188-329.342-31.649-46.483 15.824-46.483 45.495-9.89 73.187z" style="fill:#000;fill-opacity:1;fill-rule:nonzero;stroke:none;"/>
</svg>
