<svg xmlns="http://www.w3.org/2000/svg" viewBox="0 0 1000 1000"><path d="M5 500.002v.395-.395c.099-89.506 22.55-172.682 67.253-249.726 44.209-74.473 103.55-133.814 178.023-178.023C327.419 27.45 410.694 5 500.002 5c89.308 0 172.583 22.45 249.726 67.253C824.2 116.462 883.54 175.803 927.75 250.276c44.803 77.143 67.253 160.418 67.253 249.726 0 89.308-22.45 172.583-67.253 249.726C883.541 824.2 824.2 883.54 749.728 927.75c-77.143 44.803-160.418 67.253-249.726 67.253-89.308 0-172.583-22.45-249.726-67.253-74.473-44.209-133.814-103.55-178.023-178.022C27.55 672.684 5.099 589.508 5 500.002zm134.506 42.033c0 50.44 50.44 72.198 84.066 45.494 15.824-12.857 22.747-29.67 18.791-49.45-4.945-28.682-30.659-47.473-59.34-41.539-24.726 1.978-43.517 26.703-43.517 45.495zm8.901-162.199c0 41.539 33.627 74.176 73.187 73.187 37.583.99 72.198-29.67 73.187-70.22 0-41.538-30.66-75.165-73.187-75.165-39.56 0-73.187 31.649-73.187 72.198zm34.616 320.441c0 43.517 34.615 74.176 75.165 75.165 41.538 0 77.143-34.615 76.154-75.165.989-42.528-33.627-76.154-75.165-76.154-43.517 0-76.154 32.637-76.154 76.154zm93.956-454.947c1.978 21.759 19.78 39.561 40.55 37.583 21.758 0 37.582-18.791 37.582-38.572 0-22.747-18.791-38.571-39.56-38.571-21.759 0-39.561 18.791-38.572 39.56zm51.429 162.199 1.978 1.978c17.802 10.879 34.615 19.78 52.417 30.66 2.968 1.977 3.957 3.955 3.957 6.922v195.825c.989 0 1.978-.989 1.978-.989 17.802-11.868 35.604-20.77 53.406-30.66 4.945-2.966 4.945-1.977 4.945-7.911V410.496c0-.99-.989-2.967-2.967-2.967-18.79-11.868-36.593-23.737-55.384-33.627-.99-1.978-1.978-1.978-4.946 0-16.813 9.89-35.604 21.759-54.395 31.649 0 0-.99 0-.99 1.978zm55.384 393.627c0 5.935 5.935 12.858 13.847 12.858 6.923 0 13.846-6.923 13.846-12.858 0-7.912-4.945-12.857-11.868-13.846-9.89-1.978-15.825 4.945-15.825 13.846zm64.286-393.627c1.978.989 1.978.989 1.978 1.978 17.803 9.89 34.616 19.78 51.43 30.66 4.944 1.977 4.944 1.977 4.944 6.922v195.825c.99 0 1.978-.989 1.978-.989 17.803-11.868 36.594-20.77 55.385-31.648 1.978-.99 2.967-1.978 2.967-4.945V411.485c0-1.978-.989-2.967-2.967-5.934-6.923-2.967-13.846-7.912-21.758-12.857-9.89-5.935-21.759-12.858-31.649-18.792-4.945-3.956-21.758 7.912-29.67 12.858-9.89 5.934-20.77 11.868-30.66 17.802 0 .989-1.978.989-1.978 2.967zm10.88-203.737c9.89 6.923 22.747 8.901 33.626 1.978 23.736-15.824 12.857-55.385-15.824-55.385-32.638 1.978-41.539 38.572-17.802 53.407zm82.088 606.266c-8.901 9.89-4.945 24.725 3.956 30.66 28.681 14.834 42.527-27.693 18.791-35.605-8.901-1.978-16.813-.99-22.747 4.945zm27.692-402.53c.99.99 1.978 1.979 2.967 1.979 17.802 10.879 34.616 21.758 52.418 31.648.989.99 2.967 2.967 2.967 5.934v195.825s1.978-.989 2.967-.989c5.934-4.945 12.857-7.912 18.791-11.868 11.868-5.934 23.737-12.857 35.605-19.78.989-.99 2.967-1.978 2.967-5.934V411.485c0-1.978 0-2.967-2.967-5.934-18.791-9.89-36.594-21.759-54.396-31.649-2.967-1.978-2.967-1.978-5.934 0-15.824 9.89-33.627 19.78-49.45 29.67-2.968.99-3.957 1.979-5.935 3.957zM617.2 202.804c0 13.846 11.868 25.714 24.725 25.714 14.835-.989 24.726-11.868 24.726-24.725 0-14.835-9.89-24.726-24.726-24.726-14.835 0-24.725 11.869-24.725 23.737zm67.253 560.77c0 16.814 14.835 29.671 31.648 29.671 16.814-.989 29.67-12.857 29.67-29.67 0-17.802-12.856-30.66-29.67-30.66-19.78 0-31.648 13.847-31.648 30.66zm73.187-453.957c0 11.869 8.901 18.792 18.791 18.792 10.88 0 18.791-7.912 18.791-18.792 0-8.9-7.912-17.802-18.79-17.802-10.88 0-18.792 8.901-18.792 17.802zm21.758 321.43c0 20.77 17.802 39.56 37.583 38.572 20.769.989 38.571-16.814 38.571-38.572 0-19.78-15.824-37.583-37.582-37.583-20.77-.989-38.572 16.814-38.572 37.583zm27.693-191.869c-14.836 16.813-12.858 42.528 2.967 58.352 12.857 12.857 33.626 16.813 51.428 6.923 27.693-15.824 26.704-51.429 8.902-69.23-8.902-8.902-20.77-12.858-34.616-11.869-11.868 1.978-21.758 5.934-28.681 15.824z"/></svg>