<svg xmlns="http://www.w3.org/2000/svg" viewBox="0 0 1000 1000"><path d="M5 500.496C5 225.55 226.54 5 500.496 5c272.968 0 494.507 222.528 494.507 494.507 0 274.946-222.528 495.496-494.507 495.496C225.55 995.003 5 772.475 5 500.496zm170.11-186.924c-25.714 42.528-7.912 86.045 45.495 116.704 23.736 15.824 47.473 28.682 73.187 44.506 15.824 9.89 33.627 18.791 50.44 29.67-11.868 5.934-22.747 11.868-33.627 18.791-36.593 18.792-70.22 36.594-104.835 57.363-45.495 27.693-56.374 76.154-24.725 118.682 24.725 33.627 66.264 38.572 108.791 15.824 32.638-15.824 65.275-34.615 98.902-54.396 11.868-6.923 24.725-13.846 36.593-20.769v145.385c0 56.374 34.616 93.957 81.1 93.957 50.439-2.967 81.098-38.572 81.098-93.957V643.903c2.967 0 3.956-.989 4.946-.989 33.626 17.802 63.296 34.616 93.956 52.418 8.901 3.956 18.791 9.89 27.692 14.835 53.407 29.67 100.88 23.737 125.605-19.78 25.714-42.528 7.912-86.044-47.473-118.682-9.89-5.934-19.78-11.868-29.67-16.813-30.66-14.835-60.33-33.627-90.99-53.407 9.89-5.934 19.78-10.879 29.671-16.813 37.583-20.77 73.187-40.55 105.825-63.297 43.516-25.714 54.395-75.165 27.692-114.726-24.725-33.626-69.231-40.55-111.759-17.802-25.714 13.846-54.395 29.67-82.088 45.495-16.813 9.89-33.626 19.78-50.44 28.681-.989-1.978-.989-2.967-.989-3.956-1.978-47.473-1.978-94.945-1.978-139.45 0-57.364-32.637-93.957-81.099-93.957-48.461 0-78.132 36.593-81.099 93.956-1.978 44.506 0 91.978 0 144.396-22.747-12.857-43.517-25.714-64.286-36.593-20.77-10.88-39.56-23.737-60.33-34.616-54.396-28.681-99.89-21.758-125.605 20.77zm28.682 21.759c11.868-26.704 40.55-32.638 77.143-14.835 20.77 12.857 40.55 24.725 62.308 35.604 21.758 10.88 41.538 24.725 61.319 36.594 44.505 37.582 3.956 105.824-44.506 78.132-25.714-12.857-50.44-27.693-76.154-41.539-16.813-10.879-33.626-20.77-50.44-29.67-31.648-16.814-41.538-37.583-29.67-64.286zm1.978 336.265c-12.857-24.726-4.945-44.506 27.692-65.275 41.539-26.704 84.067-51.43 128.572-74.176 46.484-23.737 89.011 49.45 44.506 78.132-29.67 18.791-59.341 34.615-90 52.417L275 686.431c-29.67 14.835-56.373 9.89-69.23-14.835zm253.188-317.474c-.99-51.429 0-94.945 2.967-143.407 0-31.649 17.802-52.418 45.494-50.44 29.67 2.967 45.495 19.78 45.495 50.44v143.407c-1.978 35.605-17.802 51.429-46.484 51.429-29.67 0-47.472-18.792-47.472-51.429zm1.978 338.243c0-17.802.989-34.616.989-52.418-1.978-26.703 15.824-42.527 44.505-42.527 28.682 0 46.484 16.813 46.484 42.527-1.978 16.813-.99 35.605-.99 52.418.99 7.912.99 15.824.99 23.736v80.11c-2.967 31.649-18.791 47.473-45.495 47.473-28.681 0-45.494-17.802-45.494-47.473-1.978-34.615-.99-69.23-.99-103.846zm45.494-142.418c-57.363 16.813-64.286-82.088 1.978-95.935 59.341-12.857 58.352 78.133-1.978 95.935zm94.946 54.396c-35.605-22.748 2.967-92.968 39.56-75.165 42.528 20.769 85.055 44.505 125.605 70.22 10.88 6.923 21.758 13.846 33.627 19.78 38.571 32.637-6.924 90.99-54.396 69.23-50.44-22.746-99.89-50.439-144.396-84.065zm6.923-211.65c25.714-16.813 51.428-30.659 77.143-44.505 16.813-8.901 33.626-17.802 50.44-27.692 33.626-17.803 60.33-11.869 73.187 12.857 13.846 26.703 3.956 47.472-28.682 66.264-23.736 11.868-48.461 25.714-71.209 39.56-17.802 10.88-37.582 20.77-56.374 31.649-49.45 28.681-90.989-41.539-44.505-78.132z"/></svg>