<svg xmlns="http://www.w3.org/2000/svg" viewBox="0 0 1000 1000"><path d="M44.197 338.733c12.319 0 16.799-7.84 23.518-17.919 15.679-38.077 33.598-50.396 78.394-50.396 293.418-40.317 463.644-45.917 701.066-6.72 51.516 6.72 89.593 19.039 107.512 70.555 4.48 4.48 4.48 4.48 15.679 11.2 7.839-72.795 24.638-143.35 24.638-220.624C662.389 68.833 337.614 57.634 5 136.03c16.799 71.674 27.998 136.629 39.197 202.704zm232.942 89.593c4.48 63.835 4.48 120.95 10.08 183.666h431.166l15.679-183.666c-153.428-21.279-303.497-21.279-456.925 0zM394.73 750.86c5.6 55.996 5.6 111.991 12.319 169.107h185.906c5.6-60.475 6.72-110.872 6.72-169.107z"/></svg>