<svg xmlns="http://www.w3.org/2000/svg" viewBox="0 0 1000 1000"><path d="M501.615,356.931,247.6,59.32S359.973,20.634,411.554.984c54.855-19.445,260.564,255.652,260.564,255.652ZM736.389,98.005c-19.24,90.675-57.926,158.631-57.926,158.631l176.848,113.19C929.407,175.581,736.389,98.005,736.389,98.005ZM961.542,522.317c-3.275-38.89-9.62-119.741-9.62-119.741s3.275-19.445-41.756-25.79c-54.855-10.03-54.855-6.755-54.855-6.755L871.481,573.9l73.891-9.62S964.612,557.727,961.542,522.317ZM871.276,573.9,723.289,693.638l67.546,132.636s16.17,51.785,64.271-6.55c45.031-58.335,64.271-67.956,61-103.571C913.236,680.538,903.412,596.413,871.276,573.9ZM340.733,961.98s-12.895,25.79,32.135,29.065c45.031,6.55,118.922,22.72,157.608-16.17,38.685-35.411,189.743-281.442,189.743-281.442L517.581,602.758ZM517.581,599.688,498.34,360.206,60.929,389.476s-25.791,3.275-22.516,51.786c3.275,64.68,9.621,135.91,9.621,135.91s-3.275,29.065,54.65,32.34C160.61,612.583,511.235,612.583,517.581,599.688Z"/></svg>