<svg xmlns="http://www.w3.org/2000/svg" viewBox="0 0 1000 1000"><path d="M138.248,522.115c1.7,48.766,22.116,87.325,93,87.325,44.228,0,81.653-13.608,123.048-36.858,7.372-3.969,11.341-9.072,11.341-13.608,0-30.623-19.847-70.882-53.3-107.74-32.321-34.588-75.417-65.209-115.677-85.622-13.609-6.806-18.145-14.176-18.145-20.982,0-14.175,15.876-43.662,28.919-64.642l4.536-.568C257.9,307.773,309.5,349.734,347.488,396.8c34.589,43.1,56.137,86.757,56.137,134.388,0,35.158-9.072,68.614-23.816,99.233-50.467,30.055-104.337,52.735-157.639,52.735-64.642,0-108.872-35.723-108.872-119.645a253.022,253.022,0,0,1,2.835-41.395Z"/><path d="M510.516,615.963c0-42.968,29.033-73.163,69.678-73.163s68.518,30.2,68.518,73.163c0,41.805-26.71,73.161-69.678,73.161C538.387,689.124,510.516,657.768,510.516,615.963Z"/><path d="M886.7,814.71a275.01,275.01,0,0,1-22.115,38.559c-56.7,9.072-106.037,23.816-147.431,42.527l-1.134-1.7,13.609-23.815c5.1-6.24,16.444-15.312,26.084-18.712v-1.7c-26.651-7.937-44.229-24.948-44.229-49.332,0-15.311,10.774-35.158,26.651-49.9,18.713-18.144,45.364-32.32,68.612-32.32,22.683,0,35.723,13.04,35.723,27.784s-9.072,26.083-18.144,36.858h-1.135c-6.237-12.475-11.908-20.415-18.144-22.115-3.969-1.132-10.775-1.7-17.579-1.7-19.848,0-39.693,11.34-39.693,19.847,0,27.216,47.632,36.291,81.087,36.291,19.28,0,38.559-1.135,57.838-2.268ZM772.158,685.99c5.672-35.723,6.24-75.982,6.24-113.408V517.011c0-103.768-11.34-254.6-20.415-352.7,15.879-20.413,37.994-44.229,55.57-60.106l5.1,1.7C830.564,229.52,833.4,372.983,833.4,505.1c0,34.59-1.132,68.613-3.968,93.561-1.7,31.187-17.012,55-49.9,91.294Z"/></svg>