<svg xmlns="http://www.w3.org/2000/svg" width="1000" height="1000">
  <path d="M500.496 5c272.968 0 494.507 221.54 494.507 495.002 0 270.495-218.572 495.001-495.001 495.001C229.506 995.003 5 776.431 5 500.002 5 229.506 223.572 5 500.496 5zM224.561 795.222h22.747c78.133-4.945 156.265-12.857 236.375-12.857 74.176-4.945 149.341 0 224.506 3.956 11.868 0 20.77-3.956 25.715-16.813 8.9-75.165 20.769-144.396 33.626-214.616 0-9.89 4.945-16.813 4.945-26.703-69.23 51.428-139.45 82.088-218.572 91.978 0-4.945-4.945-4.945-4.945-9.89 84.066-121.649 161.21-244.287 249.231-371.87H777.42c-79.121 0-159.231 3.956-236.374 0-62.308 0-119.671-4.945-175.056-29.67-16.813-4.945-26.703-4.945-35.604 12.857-48.462 87.033-71.21 179.012-79.121 275.935v21.758c69.23-56.373 149.34-79.12 232.418-79.12 3.956 4.944 3.956 4.944 3.956 8.9-87.033 114.726-172.089 227.474-263.078 346.155z" style="fill:#000;fill-opacity:1;fill-rule:nonzero;stroke:none;"/>
</svg>
