<svg xmlns="http://www.w3.org/2000/svg" viewBox="0 0 1000 1000"><path d="M184.62 215.95h231.834c5.222 0 14.62 6.266 16.71 9.4l142.024 140.98c5.222 3.133 8.354 9.399 16.709 13.576 7.31-7.31 13.576-15.665 20.886-24.02 44.905-44.904 86.677-89.809 131.582-130.537 5.221-7.31 14.62-9.398 18.797-9.398 73.101-2.089 144.114-2.089 213.037-2.089 7.31 0 9.4 2.089 15.665 2.089-93.987 95.031-187.974 186.93-283.005 280.916 97.12 97.12 189.018 191.107 286.138 289.272H765.25c-6.266 0-15.665-3.133-20.886-8.355-50.127-46.993-98.165-96.075-145.158-144.113-7.31-9.399-13.576-11.487-21.93 0-46.994 48.038-95.032 91.898-138.892 137.847-11.488 9.4-18.798 14.62-33.418 14.62h-216.17s0-3.132-4.177-3.132C279.65 687.974 374.682 593.987 468.67 500c-93.988-95.031-186.93-185.885-284.05-284.05zM5 771.519V415.412c0-6.266 0-12.532 11.487-12.532h139.937v363.417c0 19.842 0 19.842-20.886 19.842H18.576C7.089 786.139 5 783.006 5 771.519zm0-429.207V227.438c0-9.399 2.089-13.576 13.576-13.576h126.36c6.266 0 11.488 4.177 11.488 13.576V342.31c0 7.31-5.222 13.576-15.665 11.487H18.576C7.089 355.887 5 349.621 5 342.311z"
    style="fill:#000;fill-opacity:1;fill-rule:nonzero;stroke:none"/></svg>