<svg xmlns="http://www.w3.org/2000/svg" viewBox="0 0 1000 1000"><path d="M5 500.496c0 271.98 220.55 494.507 495.496 494.507 271.98 0 494.507-220.55 494.507-495.496C995.003 227.528 773.464 5 500.496 5 226.54 5 5 225.55 5 500.496zm101.868 43.517c-19.78-104.836 62.308-213.627 167.144-226.485 35.604-4.945 35.604-4.945 40.55-40.55 6.923-86.043 89.01-162.197 174.066-166.153 77.143-4.946 137.473 23.736 182.968 85.055 14.835 28.681 11.868 60.33-12.858 77.143-24.725 16.813-51.428 7.912-73.187-20.77-19.78-32.637-52.417-47.472-93.956-41.538-40.55 5.934-68.242 29.67-76.154 70.22-8.901 31.648 0 60.33 19.78 85.055 8.901 11.868 11.868 19.78 15.824 31.649 5.935 20.769-3.956 41.538-24.725 54.395-14.835 7.913-39.56 7.913-55.385-8.9-20.769-10.88-40.55-29.671-65.275-29.671-44.505 0-86.044 25.714-96.923 66.264-12.857 44.505 4.945 90 39.56 109.78 37.583 23.737 87.034 19.78 117.693-10.879 69.231-70.22 139.451-139.45 203.737-203.737 72.198-73.187 179.012-82.088 255.166-24.725 65.275 47.473 98.901 132.528 77.143 209.671-22.747 83.077-92.967 139.451-174.067 143.407-61.318 7.912-114.725-13.846-158.242-57.363-19.78-20.769-39.56-44.505-64.286-65.275-19.78 24.726-40.55 44.506-65.275 65.275-56.374 57.363-121.648 74.176-199.78 49.451-71.21-20.77-117.693-73.187-133.518-151.32zm264.067 204.726c15.825-22.748 49.451-24.726 73.187-8.901 44.506 31.648 81.1 31.648 121.65 0 24.724-15.825 56.373-13.847 72.197 11.868 16.813 19.78 12.857 52.418-11.868 69.23-35.605 29.671-76.154 44.506-120.66 39.561-44.505 4.945-85.055-9.89-121.649-39.56-24.725-20.77-29.67-49.45-12.857-72.198zm86.045-442.09c0-29.67 19.78-50.44 48.461-50.44 27.693 0 47.473 20.77 47.473 50.44 0 26.704-19.78 46.484-47.473 46.484-28.681 0-48.461-19.78-48.461-46.484zm124.615 205.715c25.715 20.77 44.506 47.473 69.231 72.198 35.605 33.627 91.979 24.726 129.561-5.934 32.638-38.571 37.583-95.934 2.967-130.55-30.66-36.593-88.022-44.505-124.616-11.868-27.692 19.78-51.428 51.429-77.143 76.154z"/></svg>