<?xml version="1.0" encoding="utf-8"?>
<!-- Generator: Adobe Illustrator 26.0.1, SVG Export Plug-In . SVG Version: 6.00 Build 0)  -->
<svg version="1.1" id="Layer_1" xmlns="http://www.w3.org/2000/svg" xmlns:xlink="http://www.w3.org/1999/xlink" x="0px" y="0px"
	 viewBox="0 0 1000 1000" style="enable-background:new 0 0 1000 1000;" xml:space="preserve">
<style type="text/css">
	.st0{fill:#FFFFFF;}
</style>
<rect class="st0" width="32" height="32"/>
<path d="M500.5,5C223.6,5,5,229.5,5,499.5C5,773.5,226.5,995,499.5,995C776.4,995,995,770.5,995,499.5C995,223.6,770.5,5,500.5,5z
	 M789.5,783.1h-55.9v-20.3h-20.3v-20.3H693v-20.3h-20.3v-20.3h-20.3v-20.3H632v-20.3h-20.3v-20.3h-20.3v-20.3h-20.3v-20.3h-20.3V580
	h-20.3v-20.3h-20.3v-20.3h-20.3V519h-20.3v-20.3h-20.3v-20.3h-20.3v-20.3h-20.3v-20.3h-63.5v-22.9h-68.6v-22.9h-66V216.9h182.8v55.9
	h22.9v66h25.4v63.5h22.9v20.3h20.3v20.3h20.3v20.3h20.3v20.3h20.3v20.3H566v20.3h20.3v20.3h20.3v20.3H627v20.3h20.3v20.3h20.3v20.3
	h20.3V646h20.3v20.3h20.3v20.3h20.3v20.3h20.3v20.3h20.3V783.1z"/>
</svg>
