<svg xmlns="http://www.w3.org/2000/svg" viewBox="0 0 1000 1000"><path d="M5 500.496C5 225.55 226.54 5 500.496 5c272.968 0 494.507 222.528 494.507 494.507 0 274.946-222.528 495.496-494.507 495.496C225.55 995.003 5 772.475 5 500.496zm174.067 104.836c0 55.384 21.758 97.912 67.252 127.583 66.264 39.56 128.572 76.154 193.847 111.758 38.572 22.747 82.088 26.703 124.616 3.956 66.264-39.56 134.506-80.11 200.77-121.649 41.539-25.714 61.319-66.264 65.275-118.681V500.496c0-125.605 7.912-184.946-71.21-232.418-64.285-36.594-125.604-75.165-190.879-111.759-43.516-23.736-85.055-23.736-128.572 0-65.275 39.56-131.539 75.165-196.814 114.726-45.494 29.67-64.285 72.198-64.285 123.627zm181.978 62.308c13.846-18.792 23.736-36.594 56.374-26.704 35.604 13.846 59.34-11.868 59.34-55.385 1.979-78.132 1.979-157.253 1.979-232.418v-46.484h50.44v141.43c0 68.241 19.78 85.055 88.022 68.241 9.89 9.89 19.78 16.814 29.67 26.704-36.593 35.604-49.45 39.56-113.736 26.703-3.956 48.462-13.847 97.913-70.22 116.704-35.605 14.835-68.242 9.89-101.869-18.791z"/></svg>