<svg xmlns="http://www.w3.org/2000/svg" viewBox="0 0 1000 1000"><path d="M410.276 743.99c99.59 0 316.143-48.638 411.102-96.117 57.901-28.951 103.065-61.376 143.596-113.488 45.163-62.533 39.373-125.067-17.37-174.863-40.532-40.53-90.327-63.692-142.439-72.956-99.59-27.793-202.656-35.899-310.353-23.16-107.697 4.632-220.026 32.424-317.301 85.694-55.586 27.793-112.33 60.218-145.912 118.12-40.532 61.375-34.741 119.277 17.37 169.072 27.793 23.161 62.534 45.164 94.959 56.744 85.694 33.583 176.021 46.321 266.348 50.953zm-328.882-4.633c4.632 55.586 45.163 94.96 107.697 105.381 68.324 17.37 130.858 0 198.024-23.16 46.321-13.897 89.169-32.425 134.332-54.428v-8.106c-151.703 12.738-298.773 8.106-440.053-54.428zM251.625 602.71c-24.319-86.852 26.635-121.593 113.487-142.438 22.003-5.79 49.796-4.632 74.114-10.422 26.635-4.632 25.477-27.793 4.633-27.793-69.482 0-82.22-5.79-141.28 4.632 5.79-62.534 0-62.534 62.533-72.956 33.583-4.632 74.114-4.632 106.54 0 25.476 4.632 40.53 16.213 68.323 32.425 34.741-26.635 71.798-45.163 125.068-45.163 45.163 0 88.01 23.16 90.327 57.901 4.632 50.954-12.739 96.117-49.796 113.488-45.163 16.212-91.484 27.793-130.858 27.793h-28.95c-5.79 22.002 0 33.583 20.844 33.583 67.166 0 78.746-1.158 138.964-16.213-4.632 35.9-2.316 78.746-30.109 78.746-133.174 11.58-155.176 0-220.026-27.792-28.95 23.16-68.324 39.373-119.278 39.373-45.163 0-74.114-16.213-84.536-45.164zm5.79 282.56c0 8.107 1.158 10.423 4.632 17.371 40.532 72.956 114.646 90.327 193.392 49.796 84.536-49.796 141.28-122.752 186.443-208.447v-4.632c-17.37 4.632-34.74 4.632-50.953 15.055C489.022 816.947 381.325 867.9 257.415 885.271zm96.117-634.602s-11.58 12.739 4.632 12.739c135.49-75.273 247.82-126.226 328.882-141.28 23.16-3.475 33.583-4.633 55.585-11.58 0-70.64-115.803-107.698-196.865-68.325-84.537 45.163-142.439 125.068-192.234 208.446zm16.212 272.138c-28.95 15.055-30.108 56.744 11.58 56.744 39.374 0 62.535-22.003 62.535-67.166-19.687-2.316-50.954-4.632-74.115 10.422zm106.54-288.35c154.018-11.58 299.93-5.79 442.368 56.743 5.79-68.324-33.583-130.857-106.539-140.122-69.482-18.528-130.858 0-200.34 22.003-45.163 16.212-90.326 32.425-135.49 55.586zm81.062 250.135c27.793-4.632 49.795-6.948 72.956-12.738 11.58-4.633 22.003-22.003 22.003-40.532-1.158-12.738-6.949-19.686-22.003-25.476-39.373-10.423-78.746 33.583-72.956 78.746z"/></svg>