<svg xmlns="http://www.w3.org/2000/svg" viewBox="0 0 1000 1000"><path d="M197.385 65.664H539.4c88.629 0 176.121 1.136 264.75 1.136 6.817 0 9.09 3.409 10.226 9.09 56.813 126.125 115.899 249.978 179.53 373.83 2.272 5.682 1.136 9.09-4.545 11.363-70.449 70.449-142.033 139.76-211.345 205.664-89.765 88.629-181.803 174.985-273.84 262.477-4.545 6.817-4.545 6.817-12.499 0-92.037-87.492-180.666-173.848-271.567-261.34-70.448-67.04-139.76-135.216-211.345-204.528-4.545-4.545-4.545-7.954-2.272-13.635C36.036 383.817 67.85 320.187 95.12 258.828c30.68-62.494 59.086-122.716 87.493-181.802 2.272-7.954 5.68-11.362 14.771-11.362zm-2.273 397.692c2.273 3.409 4.546 6.817 10.227 7.954 12.499 6.817 22.725 13.635 36.36 17.044 61.359 20.452 127.262 28.406 192.029 31.815 5.681 2.273 7.954 3.409 6.817 9.09v36.36c0 63.631 0 128.398-1.136 189.757 0 6.817 2.273 10.226 6.818 10.226h117.035c7.954 0 7.954 0 7.954-10.226 2.272-42.042 2.272-84.084 2.272-127.262 1.136-32.952 1.136-67.04 1.136-98.855 0-6.817 1.137-10.226 9.09-11.362 29.543-1.137 61.359-3.41 92.038-7.954 35.224-2.273 65.903-11.363 99.991-21.59 13.635-5.68 29.543-12.498 40.906-22.725 7.953-12.499 7.953-21.589-2.273-30.679-5.681-5.681-12.499-10.226-18.18-14.771-49.996-29.543-105.673-40.906-164.758-44.314-15.908-2.273-34.088-2.273-48.86-3.41-5.681 0-7.954-1.135-7.954-5.68 1.137-18.18 1.137-34.088 0-52.269 0-4.545 1.137-5.681 7.954-5.681 4.545-1.136 13.635-1.136 22.726-1.136 40.905-1.137 85.22-1.137 129.534-1.137 7.953 0 7.953 0 7.953-11.362 0-35.224 0-70.448-1.136-104.536 0-10.227 0-10.227-6.817-10.227H270.106c-4.545 0-6.818 1.137-6.818 6.818 0 36.36-1.136 73.857-2.272 111.354 0 2.272 1.136 6.817 6.817 6.817 12.5 0 23.862 0 36.36 1.136 39.77 0 79.54 0 119.308 1.137 2.273 0 7.954 0 10.227 1.136 1.136 0 2.272 2.273 2.272 4.545v53.404c0 1.137-1.136 5.682-2.272 5.682-9.09 1.136-17.044 1.136-22.725 3.409-37.497 4.545-72.721 7.953-107.945 13.635-31.816 4.545-61.359 12.499-87.493 26.134-9.09 4.545-17.044 11.362-20.453 14.771-10.226 10.227-9.09 21.59 0 32.952zm39.77-13.635c-7.954-5.682-7.954-14.772 1.136-19.317 14.771-5.681 29.543-11.362 45.45-15.907 35.225-9.09 69.313-13.636 106.81-18.18 13.634-1.137 27.27-2.273 42.041-3.41 4.545-1.136 5.681 1.137 5.681 7.954-1.136 22.726 0 47.723-1.136 69.312 0 6.818 4.545 9.09 10.226 9.09 32.952-1.136 65.904 0 96.583-1.136h24.998c6.817 0 9.09-2.272 9.09-7.954-1.137-17.044-1.137-32.951-1.137-51.131 1.137-6.818 1.137-14.772 1.137-23.862 0-2.272 0-3.409 4.545-3.409 35.224 3.41 71.584 7.954 107.945 12.5 24.998 2.272 51.132 9.09 76.13 20.452 4.545 3.409 9.09 4.545 12.498 6.817 7.954 6.818 9.09 11.363 0 18.18-11.362 5.682-22.725 11.363-37.496 15.908-30.68 9.09-61.359 13.636-94.31 17.044-55.677 3.41-107.945 4.545-163.622 6.818 0 0-1.136 0-1.136-1.136-23.862 0-48.86 0-74.994-1.137-51.132-5.68-98.855-11.362-148.85-26.134-5.682-2.272-14.772-7.954-21.59-11.362z"/></svg>