<svg xmlns="http://www.w3.org/2000/svg" viewBox="0 0 1000 1000"><path d="M829.08 320.466c-39.242 0-77.218-18.988-107.599-53.166-18.988-21.52-45.571-35.445-72.154-43.04-58.23-15.19-110.131-1.266-153.17 43.04-46.838 49.368-102.536 64.559-167.095 45.57-62.028-22.785-96.206-67.09-106.333-130.384C210.07 96.407 274.629 15.392 363.24 6.531c51.901-5.064 96.206 10.127 135.448 49.369 25.318 29.115 55.698 44.305 96.206 46.837 48.103 7.595 89.877-6.33 122.79-44.306 30.38-29.115 63.293-48.103 105.067-51.9 54.432-5.064 100.003 13.924 136.713 53.166 49.37 65.825 48.103 149.373-8.86 211.4-30.382 32.913-69.624 49.37-121.524 49.37zM5 501.486c0-87.346 68.357-162.033 155.7-162.033 88.611 0 159.5 74.686 159.5 162.031s-70.889 153.17-159.5 153.17C73.357 654.655 5 586.298 5 501.485zm269.63 454.446c-89.877-83.547-62.028-224.059 49.368-268.364 60.762-18.988 125.321-5.064 169.627 41.773 18.988 17.723 40.508 35.445 69.623 41.774 58.23 16.456 112.662 6.33 154.435-39.242 34.179-35.444 73.42-54.432 124.056-53.166 67.09 3.797 115.194 37.976 140.51 98.737 25.318 58.23 11.394 124.056-31.646 169.627-65.825 64.56-164.563 63.293-229.122-5.064-30.38-31.646-69.623-48.103-116.46-48.103-41.773 1.266-81.015 16.457-111.396 50.635-55.698 62.028-158.234 65.825-218.995 11.393zm174.69-456.979c0-84.813 69.622-159.499 159.499-159.499 88.61 0 158.233 74.686 158.233 162.031 0 84.813-72.154 155.702-159.5 155.702-84.812 0-158.233-70.889-158.233-158.234z"/></svg>