<svg xmlns="http://www.w3.org/2000/svg" viewBox="0 0 1000 1000"><path d="M500.496 5c272.968 0 494.507 221.54 494.507 495.002 0 270.495-218.572 495.001-495.001 495.001C229.506 995.003 5 776.431 5 500.002 5 229.506 223.572 5 500.496 5zM195.88 579.617c2.967 15.825 3.956 24.726 9.89 33.627 11.868 17.802 40.55 36.593 173.077 105.824 14.836 5.934 27.693 6.923 39.561 2.967 28.681-14.835 48.462-20.769 56.374-28.681 1.978-1.978 5.934-2.967 6.923-2.967 4.945-1.978 7.912-3.956 11.868-5.934 12.857 14.835 28.681 23.736 40.55 23.736h151.319c21.758 0 37.582-12.857 45.494-18.791 5.935-3.956 8.902-11.868 11.869-15.824 16.813-21.759 52.417-87.034 72.198-121.65 3.956-6.922 6.923-12.856 9.89-15.823 16.813-16.814 11.868-44.506 0-64.286-21.758-35.605-77.143-143.407-85.055-152.308-15.825-16.814-33.627-25.715-48.462-25.715H532.145c-11.869 0-24.726 7.912-34.616 20.77h-.989c-.989 0-1.978 0-2.967-.99l-19.78-9.89c-38.572-21.758-63.297-39.56-90.99-27.692-8.9 3.956-154.286 85.055-163.187 90.99-9.89 6.922-13.846 15.823-15.824 32.637l-1.978 7.912c-5.934 24.725-10.88 146.374-5.934 172.088zm21.758-3.956c-3.956-23.736 1.978-140.44 6.923-164.176l3.956-18.791 5.934-7.913v.99c5.934-5.935 150.33-86.045 157.254-88.023 16.813-4.945 32.637 2.967 72.198 24.726l17.802 9.89c-27.692 36.593-66.264 100.88-79.121 140.44l-2.967 8.9c-3.956 11.869 1.978 21.76 1.978 33.627v1.978c11.769 40.154 42.923 98.704 77.143 146.968l-35.605 18.198c-29.67 14.835-38.571 19.78-41.538 18.791-3.956 0-8.901-.989-11.868-1.978-58.352-30.66-155.276-78.132-164.177-98.901-4.945-6.924-5.934-13.847-7.912-24.726zm261.07 88.57 1.019 1.43 1.978-2.967z"/></svg>