<svg xmlns="http://www.w3.org/2000/svg" width="1000" height="1000">
  <path d="M496.113 995.004h-18.784c-9.944-14.364-19.888-24.308-24.308-39.777-45.301-123.75-11.049-233.137 78.45-325.95 69.609-79.554 153.582-129.275 251.92-159.108 9.944-4.42 35.357-4.42 25.413-25.413-5.525-18.783-25.413-9.944-35.357-4.42-158.003 35.358-291.698 113.807-405.504 228.718-29.833 28.728-54.14 62.98-79.554 93.918-14.364 8.839-24.308 28.727-44.197 14.363-19.888-9.944-19.888-29.832-8.839-49.72 24.308-48.617 48.616-103.863 74.03-158.004 0-9.944 9.944-15.468 9.944-19.888 0-9.944 4.42-30.938-5.525-35.357-4.42-4.42-25.413-9.944-29.833-4.42-48.616 19.889-93.917 44.197-139.219 68.505-14.364 9.944-24.308 20.993-38.672 26.518-9.944 0-30.938 0-35.357-5.525-4.42-11.049-9.944-29.833 0-35.357 45.301-54.14 95.022-102.757 143.639-153.583 4.42-4.42 25.413-4.42 29.832 0 44.197 15.469 89.499 29.832 134.8 45.301 48.616 24.308 92.813-5.524 92.813-64.085V267.97c0-25.413 9.944-35.358 29.833-45.302 113.806-44.196 222.087-34.252 322.635 45.302 92.813 74.029 133.694 176.786 112.701 296.117-9.944 104.967-69.61 178.996-153.583 232.032-43.092 30.938-88.393 59.665-138.114 79.554-65.19 25.413-113.807 59.665-149.164 119.33zM66.301 227.088c-15.469-18.784-9.944-34.252 14.364-43.092 39.777-15.469 74.03-9.944 109.387 4.42 49.72 14.364 93.917-9.944 93.917-64.085 0-45.302 19.889-83.974 49.722-119.331h24.308c49.72 68.505 83.973 148.059 78.449 237.557V391.72c0 34.253-14.364 48.616-48.617 34.253-59.665-19.889-113.806-44.197-173.471-65.19-64.085-28.728-108.282-74.03-148.059-133.695zm44.197 5.524c14.364 9.945 24.308 19.889 39.777 35.358h15.468c9.945-9.945 14.364-25.413 18.784-35.358-8.84-5.524-18.784-9.944-29.833-15.468h-38.672c0 5.524-5.524 9.944-5.524 15.468zm217.668-113.806c-4.42 5.525 0 14.364 5.525 14.364 9.944 0 18.783 0 34.252-4.42 0 0 4.42-9.944 4.42-14.363-4.42-14.364-14.364-35.358-24.309-49.722h-9.944c-4.42 14.364-9.944 35.358-9.944 54.141zM481.749 930.92c45.302-29.833 88.393-59.666 123.75-83.974-35.357-24.308-74.029-50.826-118.225-79.554-19.889 55.246-19.889 108.282-5.525 163.528z" style="fill:#000;fill-opacity:1;fill-rule:nonzero;stroke:none;"/>
</svg>
