<svg xmlns="http://www.w3.org/2000/svg" width="1000" height="1000">
  <path d="M37.018 5c7.94 9.265 18.53 11.912 23.823 19.853 51.618 50.294 101.912 101.912 156.177 152.206 14.559 15.882 25.147 38.382 9.264 48.97-9.264 7.942-37.058 0-45-7.94C125.694 170.44 71.43 116.175 21.135 63.234c-9.264-11.911-9.264-30.44-10.588-43.676 0-5.294 14.559-9.265 26.47-14.559zm-26.47 976.765c0-15.883 0-30.442 9.264-41.03 22.5-26.47 50.294-50.294 75.441-76.765 30.441-27.794 54.265-59.558 86.03-80.735 11.911-10.588 31.764-9.264 46.323-9.264-1.324 15.882-1.324 35.735-10.588 43.676-48.97 55.588-104.56 107.206-156.177 158.823-7.94 7.942-18.53 10.589-29.117 18.53-10.589-2.647-21.177-10.588-21.177-13.235zm0-316.324c0-11.912 5.293-30.441 14.558-33.088 55.588-19.853 108.53-37.059 164.118-51.618 13.235-2.647 37.058 5.294 38.382 14.56 10.588 17.205-7.941 27.793-25.147 33.087-46.324 14.56-95.294 30.441-141.618 46.324-7.94 2.647-18.53 2.647-29.117 6.617-6.618-3.97-21.177-9.264-21.177-15.882zm0-328.235c1.323-6.618 17.205-14.559 26.47-14.559 29.117 5.294 58.235 15.882 88.676 26.47 26.47 9.265 55.588 14.56 82.059 27.795 9.265 5.294 14.559 21.176 23.824 30.44-11.912 9.266-18.53 15.883-29.118 21.177-66.177-21.176-121.765-41.029-181.324-59.558-9.264-5.295-14.558-22.5-10.588-31.765zm308.381 628.676c3.971-15.882 5.295-31.764 14.56-47.647 14.558-42.353 26.47-84.706 42.352-124.412 5.294-9.264 18.53-15.882 33.088-25.147 5.295 9.265 11.912 19.853 17.206 30.442C404.96 860 386.43 922.206 365.253 980.44c-1.324 3.97-21.176 11.912-31.765 6.618-3.97 0-14.559-14.56-14.559-21.177zM322.9 53.971c-3.97-13.236 1.324-37.06 11.912-43.677 21.176-9.265 30.441 9.265 41.03 27.794 10.587 46.324 26.47 86.03 38.382 128.383 6.617 10.588 6.617 25.147 11.911 42.353-5.294 6.617-15.882 25.147-17.206 25.147-14.558-2.647-27.794-13.236-33.088-21.177-19.853-51.618-37.059-104.559-52.941-158.823zm47.647 541.323c0-25.147 14.559-30.441 34.412-30.441 21.176 0 30.441 13.235 26.47 34.412 3.971 23.823-10.588 27.794-29.117 27.794-22.5 0-31.765-14.56-31.765-31.765zm0-191.912c0-21.176 14.559-26.47 34.412-26.47 21.176 0 30.441 5.294 26.47 26.47 3.971 25.147-10.588 35.736-31.764 35.736-19.853 0-29.118-15.883-29.118-35.736zm193.235 191.912c0-19.853 9.265-30.441 33.089-30.441 21.176 0 26.47 13.235 26.47 30.441 0 27.794-10.588 31.765-31.765 31.765-21.176 0-27.794-10.588-27.794-31.765zm0-187.941c0-22.5 9.265-30.441 29.118-30.441 23.824 0 30.441 5.294 30.441 26.47 0 21.177-5.294 35.736-30.441 30.442-19.853 5.294-29.118-5.295-29.118-26.471zM570.4 207.5c21.176-64.853 42.353-127.059 63.53-182.647 3.97-7.941 19.852-14.559 27.794-14.559 5.294 3.97 15.882 15.883 15.882 25.147 0 15.883-3.97 27.794-10.588 43.677-13.236 45-27.794 87.353-45 133.676-3.971 7.941-19.853 18.53-30.442 18.53-5.294 2.647-15.882-15.883-21.176-23.824zm2.647 582.353c2.647-5.294 13.235-21.177 18.53-21.177 9.264 3.971 26.47 9.265 30.44 21.177 17.207 52.941 37.06 104.559 51.618 156.176 5.294 14.56 14.56 35.736-11.911 46.324-23.824 5.294-29.118-11.912-38.383-31.765-14.559-42.353-26.47-84.706-41.03-129.706-5.293-10.588-6.617-21.176-9.264-41.03zm190.588-198.53c11.912-5.294 21.177-13.235 31.765-21.176 64.853 21.176 121.765 41.03 182.647 64.853 5.294 0 11.912 18.53 9.265 30.441 0 6.618-15.883 11.912-25.147 11.912-15.883 0-29.118-2.647-45-7.941-42.353-15.883-86.03-29.118-125.736-42.353-11.911-5.294-17.206-21.177-27.794-35.736zm5.294-183.97c0-9.265 6.618-25.147 15.883-27.794 52.94-21.177 107.206-41.03 160.147-54.265 11.912-2.647 38.382 2.647 42.353 11.912 11.911 22.5-9.265 31.765-26.47 39.706-43.677 10.588-86.03 26.47-129.707 39.706-10.588 6.617-25.147 6.617-41.03 11.911-6.617-5.294-21.176-11.911-21.176-21.176zm0-186.618c0-11.911 0-27.794 6.618-34.411 29.118-31.765 62.206-62.206 91.324-95.295 25.147-21.176 47.647-50.294 74.117-71.47 10.588-5.294 26.47-2.647 42.353-5.294 0 15.882 3.97 34.412-5.294 42.353-52.941 59.558-111.176 113.823-162.794 166.764-9.265 7.942-15.882 10.589-30.441 13.236-5.294-2.647-15.883-10.589-15.883-15.883zm1.324 553.236c14.559-17.206 35.735-5.295 50.294 10.588 50.294 51.617 101.912 100.588 156.176 154.853 6.618 6.617 10.589 17.206 13.236 21.176C992.606 995 976.723 995 956.87 992.353c-10.589-5.294-19.853-10.588-23.824-19.853-52.941-47.647-101.912-96.618-149.559-149.559-9.265-10.588-19.853-39.706-13.235-48.97z" style="fill:#000;fill-opacity:1;fill-rule:nonzero;stroke:none;"/>
</svg>
