<svg xmlns="http://www.w3.org/2000/svg" width="1000" height="1000">
  <path d="M638.06 622.908h-41.531c-7.857 0-13.47-5.612-13.47-13.469v-110l-74.08 44.898c-5.613 4.49-13.47 4.49-20.205 0l-71.836-44.898v110c0 7.857-6.735 13.47-15.715 13.47h-40.408c-7.857 0-14.591-5.613-14.591-13.47V397.297c0-10.102 7.857-20.204 19.081-20.204 4.49 0 6.735 2.245 10.102 4.49l115.612 79.693c4.49 3.368 11.224 3.368 15.714 0l115.612-79.693c8.98-5.613 20.204-4.49 25.816 5.612 3.368 2.245 4.49 5.612 4.49 10.102v212.142c0 7.857-5.612 13.47-14.592 13.47zM5 603.827V390.562c1.122-8.98 6.735-13.47 14.592-13.47h41.53c8.98 0 14.592 4.49 14.592 13.47v162.755H233.98V390.562c0-7.857 5.612-13.47 13.47-13.47h41.53c6.734 0 13.47 4.49 13.47 13.47v213.265c0 11.224-7.858 19.081-17.96 19.081H24.082C13.98 622.908 5 615.051 5 603.827zm691.427 4.49V395.052c0-10.102 8.98-17.96 19.081-17.96h259.285c10.102 0 20.204 7.858 20.204 17.96v213.265c0 8.98-6.735 14.591-15.714 14.591h-41.53c-6.735 0-13.47-5.612-13.47-14.591V455.664c0-4.49-4.49-8.98-10.102-8.98h-138.06c-5.613 0-8.98 4.49-8.98 8.98v152.653c0 8.98-6.735 14.591-14.592 14.591h-41.53c-7.858 0-14.592-5.612-14.592-14.591zm113.367-60.612v-42.653c0-6.735 6.734-13.47 14.591-13.47h41.53c7.858 0 14.593 6.735 14.593 13.47v42.653c0 7.857-6.735 14.591-14.592 14.591h-41.53c-7.858 0-14.592-5.612-14.592-14.592z" style="fill:#000;fill-opacity:1;fill-rule:nonzero;stroke:none;"/>
</svg>
