<svg xmlns="http://www.w3.org/2000/svg" width="1000" height="1000">
  <path d="M440.473 905.95v-2.619c10.477-3.929 22.262-6.548 32.738-9.167 48.453-11.785 94.286-23.571 138.81-32.738 10.476-1.31 13.095 0 13.095 7.858 2.619 24.88 5.238 52.38 5.238 77.261 0 11.786-2.62 15.714-15.714 9.167-55-13.095-108.69-30.12-163.69-43.214-2.62 0-7.858-2.62-10.477-6.548zm-269.76 36.667v-95.595c0-13.096 2.618-15.715 15.713-13.096 22.262 7.858 43.215 13.096 61.548 17.024 1.31 2.62 3.929 2.62 11.786 6.548-28.81 34.047-56.31 65.476-82.5 95.595h-3.929c0-3.929-2.619-6.548-2.619-10.476zm0-174.167v-62.857c0-14.404 6.547-17.023 15.713-10.476 24.881 17.024 20.953 11.786 10.477 40.595-3.929 10.477-9.167 23.572-13.096 35.357l-6.547 7.858h-3.929c0-5.238-2.619-7.858-2.619-10.477zm0-404.641v-64.167c0-14.405 2.618-17.024 17.023-14.405 2.619 0 7.857 0 9.167 2.62 20.952 2.618 20.952 2.618 14.404 17.023-10.476 23.572-20.952 41.905-27.5 62.857-2.619 2.62-5.238 5.238-6.547 9.167l-3.929-2.62c0-1.309-2.619-6.547-2.619-10.475zm0-133.571v-40.596c0-6.547 6.547-9.166 13.094-6.547 11.786 2.619 22.262 2.619 36.667 6.547-17.024 19.643-30.119 39.286-43.214 55 0-2.619-3.929-2.619-3.929-2.619 0-3.928-2.619-6.547-2.619-11.785zm0-218.69c0-1.31 7.856-6.548 10.475-6.548h121.786c3.928 0 6.547 2.619 13.095 5.238-18.333 13.095-30.119 24.881-43.214 35.357-19.643 15.714-39.286 28.81-56.31 44.524-7.857 7.857-13.095 5.238-19.642-2.62-6.548-14.404-15.715-32.737-23.572-49.761-2.619-7.857-2.619-17.024-2.619-26.19zm2.618 802.736c13.095-32.738 23.572-61.548 37.976-95.595h5.238c14.405 43.214 28.81 86.428 44.524 125.714-1.31 2.619-1.31 2.619-3.928 2.619-26.19-7.857-51.072-13.096-78.572-20.953-1.31-2.619-7.857-9.166-5.238-11.785zm0-151.905c23.572-23.571 52.381-45.833 75.952-65.476 2.62 0 2.62 2.62 7.858 2.62-5.238 5.237-5.238 7.856-7.858 11.785-9.166 24.88-19.642 52.38-32.738 79.88-2.619 14.405-7.857 14.405-19.642 3.93-6.548-3.93-10.477-6.548-18.334-10.477-10.476-7.857-10.476-18.333-5.238-22.262zm0-13.095c0-6.548-2.619-10.476 0-13.095 3.929-9.167 7.857-19.643 10.476-28.81 9.167-20.952 15.715-43.214 27.5-62.857 5.238-15.714 6.548-15.714 18.334-2.619 9.166 7.858 18.333 18.334 30.119 28.81 1.31 1.31 1.31 9.166 0 10.476-26.19 23.571-53.69 43.214-78.572 61.547 0 3.929-2.619 3.929-7.857 6.548zm0-47.143V458.094s3.929 0 3.929-1.31c1.31 1.31 3.928 6.548 3.928 10.477 9.167 14.404 14.405 30.119 24.881 45.833 5.238 6.548 5.238 14.405 0 23.571-9.166 17.024-15.714 37.976-22.262 53.69-2.619 6.548-5.238 9.167-6.547 14.405 0-2.619-3.929-2.619-3.929-2.619zm0-172.856c37.976 10.476 72.024 19.642 110 34.047-13.095 9.167-19.643 15.714-31.428 24.881-9.167 6.548-15.715 13.095-26.19 20.952-5.239 6.548-9.168 9.167-14.406 0-11.785-24.88-23.571-43.214-34.047-69.404 0-2.62 0-3.929-3.929-10.476zm0-24.881c17.024-36.667 32.738-70.714 47.143-110 5.238 2.62 9.167 5.238 9.167 6.548 9.166 15.714 18.333 32.738 30.119 45.833 1.31 5.238 1.31 10.476-7.857 13.095-20.953 14.405-45.834 30.119-70.715 44.524zm0-142.738c13.095-19.643 30.12-40.595 44.524-56.31h5.238v13.096c0 17.024-2.619 34.047-2.619 51.071 0 9.167-2.619 11.786-9.167 11.786-11.785 0-20.952-2.62-30.119-2.62-10.476-3.928-13.095-11.785-7.857-17.023zm0-113.928c7.857-10.476 17.024-22.262 26.19-32.738l3.93 1.31c5.237 19.642 13.094 36.666 17.023 56.309 0 5.238-3.929 7.857-9.167 7.857l-32.738-7.857c-7.857-3.929-11.785-15.715-5.238-24.881zm0-17.024V62.619s3.929-2.62 5.238-2.62c2.62 7.858 7.857 14.406 11.786 23.572 9.167 19.643 6.548 32.738-17.024 47.143zm3.929 847.26c6.547-3.929 13.095-9.167 19.643-14.405 20.952-10.476 41.904-19.643 62.857-31.428 3.928-1.31 9.166-1.31 10.476-1.31 24.88 18.333 51.071 35.357 77.262 52.38 0 3.93 0 3.93 5.238 9.167l-174.167-9.166c0-2.62-1.31-5.238-1.31-5.238zm0-14.405c28.81-32.738 56.31-64.167 82.5-94.285 1.31 0 1.31 0 3.928 1.309v51.071c0 1.31-3.928 3.929-6.547 3.929-23.572 14.405-45.834 26.19-70.715 37.976zm1.31-540.832v-5.238c17.023-13.095 37.975-24.88 57.618-34.048 3.929-6.547 11.786-10.476 20.953-13.095 2.619-2.619 9.166 0 9.166 2.62 6.548 23.57 14.405 52.38 19.643 81.19-37.976-9.167-72.024-22.262-107.38-31.429zM211.306 115c0-2.62 5.238-7.857 6.548-7.857h110s2.619 0 7.857 2.619c-37.976 26.19-69.405 47.142-106.071 73.333-6.548-26.19-13.096-47.143-18.334-68.095zm6.548 591.903c15.714-40.595 34.048-77.262 51.071-117.857h3.929c5.238 7.857 7.857 15.714 13.095 24.881 7.857 13.095 14.405 24.88 23.571 39.286 0 1.31 0 10.476-2.619 10.476-28.81 15.714-55 30.119-81.19 43.214zm2.619-608.927c13.095-13.095 24.88-23.571 36.667-34.048 18.333-13.095 37.976-28.809 58.928-45.833 9.167-7.857 11.786-6.547 14.405 5.238 5.238 22.262 10.476 44.524 14.404 64.167 2.62 7.857 2.62 13.095-6.547 13.095H230.95c-1.31 0-5.239-2.619-10.477-2.619zm5.238 631.189c-2.619-10.476 0-14.405 7.857-19.643 18.334-6.548 36.667-18.333 57.62-27.5 3.928-2.619 9.166-5.238 18.332-7.857l2.62 2.619c-14.405 52.38-28.81 104.762-41.905 157.142h-3.929c-2.619-3.928-5.238-7.857-5.238-10.476zm0-200.357c-2.619-1.31-2.619-6.547 0-9.166 17.024-15.715 35.357-30.12 55-44.524 0 0 2.619 2.619 5.238 2.619-7.857 28.81-13.095 56.31-17.024 86.428 0 0-2.619 3.929-5.238 3.929zm5.238-240.952c0-2.619 9.167-13.095 14.405-18.333 2.619 0 3.928 0 3.928 2.62 2.62 18.332 7.858 35.356 10.477 52.38-2.62 0-2.62 2.619-7.857 2.619-6.548-13.095-15.715-26.19-20.953-39.286zm0-15.714v-51.071s2.62-2.62 5.238-2.62c2.62 14.406 9.167 26.191 9.167 39.286 0 3.929-6.548 9.167-11.786 14.405zm7.857-62.857c1.31 0 3.929-1.31 3.929-1.31l60.238 52.381-2.62 1.31c-9.166 0-19.642-1.31-30.118-1.31-9.167-2.619-18.333-7.857-20.953-20.952-1.31-9.166-6.547-20.952-10.476-30.119zm0-19.643 52.381-9.166 53.69-7.857c14.405-3.929 17.024 0 10.477 10.476l-30.12 69.404c-2.618 7.857-3.928 11.786-11.785 5.238-22.262-19.642-44.524-39.285-65.476-57.618-2.62-1.31-5.238-5.239-9.167-10.477zm13.096-14.404c14.404-10.476 23.57-18.334 36.666-24.881 18.333-9.167 34.048-23.572 49.762-34.048 13.095-6.547 13.095-3.928 14.405 9.167 2.619 7.857 6.547 17.024 9.166 24.88 0 5.239-6.547 11.786-9.166 11.786-31.429 6.548-64.167 13.096-95.595 18.334-5.239-2.62-5.239-5.238-5.239-5.238zm9.166 112.618c-1.31-23.57-1.31-23.57 22.262-20.952 7.857 2.62 14.405 2.62 23.571 5.238 2.62 0 5.238 6.548 5.238 9.167-14.404 18.333-26.19 39.285-39.285 58.928-2.62-2.619-2.62-2.619-3.929-2.619zm9.167 622.023v-48.453c0-1.31 5.238-3.928 7.857-7.857 19.643-6.547 43.214-14.404 62.857-22.262l10.476 2.62c-28.81 27.5-51.071 52.38-75.952 78.57-2.62 0-2.62-2.618-5.238-2.618zm2.619-547.38c30.119 7.857 57.619 11.786 89.047 20.952-23.571 22.262-43.214 43.215-64.166 65.476h-5.238c-6.548-26.19-11.786-56.309-19.643-86.428zm2.619 474.047c13.095-49.762 24.88-100.834 40.595-150.595 0 0 0-1.31 5.238-3.929 1.31 3.929 1.31 6.548 3.929 11.786 10.476 35.357 19.642 73.333 34.047 107.38 2.62 10.477 2.62 15.715-11.785 19.643-19.643 5.238-40.596 17.024-61.548 23.572-7.857 2.619-13.095 2.619-10.476-7.857zm0-272.38c7.857-30.12 13.095-57.62 17.024-86.43h2.619c2.619-2.618 2.619-5.237 5.238-5.237 2.619 5.238 6.547 9.166 11.785 15.714 13.096 15.714 26.19 34.048 40.596 48.452 6.547 7.857 2.619 10.476-1.31 13.096-23.571 7.857-44.524 11.785-65.476 20.952-2.619 0-10.476-6.548-10.476-6.548zm2.619-217.381c13.095-22.262 24.88-41.905 40.595-64.167h3.929c13.095 30.12 22.261 60.238 39.285 91.667-10.476-1.31-19.643-1.31-23.571-3.929-17.024-2.619-35.357-7.857-52.381-13.095-2.619 0-7.857-7.857-7.857-10.476zm2.619 242.261c0-2.619 2.619-11.786 2.619-11.786l68.095-19.642s1.31 0 7.857 2.619c-14.405 28.81-26.19 60.238-37.976 89.047h-5.238c-3.929-6.548-6.548-13.095-13.095-19.643-7.857-13.095-14.405-27.5-22.262-40.595zm2.619 324.761c24.88-22.262 44.524-47.143 64.166-72.023 3.93-2.62 7.858-2.62 11.786-5.238 2.62 5.238 3.929 7.857 3.929 10.476v124.404l-1.31 9.167c-6.547 0-9.166 0-10.476-2.62-23.571-14.404-44.524-28.809-65.476-45.832-13.095-6.548-13.095-9.167-2.619-18.334zm23.571-443.927v-3.929c55 3.929 108.69 6.548 161.071 11.786 2.62 0 2.62 1.31 2.62 3.928-2.62 2.62-3.93 2.62-7.858 2.62-30.119 17.023-57.619 37.976-87.738 52.38-3.928 3.929-11.785 3.929-13.095 0-19.643-20.952-39.285-44.523-55-66.785zm0-15.714c0-2.62 2.62-5.239 5.238-7.858 13.096-17.023 30.12-30.119 43.215-49.761 5.238-7.857 13.095-9.167 22.261-1.31 26.19 20.952 52.381 40.595 79.881 58.929 2.62 2.619 9.167 9.166 10.476 11.785l-1.31 1.31c-30.118 0-56.309-1.31-82.499-1.31-22.262-2.619-45.833-2.619-68.095-7.857-3.929 0-6.548-1.31-9.167-3.928zm15.715 212.142c13.095 2.619 22.261 2.619 36.666 6.547 0 0 2.62 3.929 2.62 6.548v94.286h-6.548c-10.477-35.358-19.643-68.096-32.738-107.381zm5.238-387.618c-2.62-3.929-2.62-11.786 0-14.405 7.857-22.262 17.023-43.214 27.5-61.547 0-2.62 3.928-2.62 3.928-3.929h2.62v147.976l-2.62 2.619c-3.928-5.238-6.547-6.548-6.547-9.167-10.477-19.643-17.024-40.595-24.881-61.547zm5.238 354.88c7.857-13.095 11.785-28.81 19.643-44.524 0-2.619 2.619-5.238 6.547-7.857 2.62 2.62 2.62 5.238 2.62 7.857v65.476c0 7.857-2.62 9.167-10.477 9.167-28.81-3.929-28.81-3.929-18.333-30.12zm7.857-595.832C333.093 5 333.093 5 368.45 5h58.928s0 2.619 2.62 2.619c-24.882 27.5-47.143 55-70.715 82.5h-3.928c-3.929-17.024-10.477-35.357-14.405-52.381zm20.952 82.5c1.31-3.929 1.31-3.929 3.929-3.929 17.024 14.405 37.976 26.19 55 39.286v3.928c-17.024 2.62-32.738 2.62-47.143 0-2.62 0-2.62-2.619-2.62-2.619-5.237-10.476-7.856-23.571-9.166-36.666zm6.548-10.476c0-2.62 0-3.929 2.619-3.929 27.5-5.238 53.69-10.476 86.428-11.786-1.31 6.548-1.31 11.786-3.928 15.715-2.62 15.714-7.857 27.5-13.096 40.595 0 2.619-7.857 5.238-7.857 5.238zm0-15.715c22.262-30.119 45.833-52.38 66.785-82.5h5.238c5.239 23.572 13.096 43.215 17.024 65.477 0 2.619-3.928 7.857-6.547 7.857-26.19 5.238-52.381 9.166-79.881 13.095 0-2.62-2.62-2.62-2.62-3.929zm5.238 877.38c-5.238-7.858-7.857-117.858 0-132.262 1.31 2.619 3.928 5.238 3.928 7.857 10.477 17.023 20.953 32.738 30.12 52.38 0 1.31 2.618 6.548 0 13.096-9.167 15.714-19.643 36.666-30.12 56.31-2.619 0-2.619 2.618-3.928 2.618zm0-145.358c1.31-2.619 1.31-2.619 1.31-5.238 23.57 2.62 48.452 5.238 73.333 5.238-7.858 18.334-15.715 34.048-23.572 47.143 0 2.62 0 2.62-1.31 5.238l-9.166 13.095c-3.929-5.238-6.548-7.857-9.167-13.095-9.166-18.333-20.952-34.047-31.428-52.38zm3.928 154.524c13.096-18.334 24.881-40.595 36.667-64.167 1.31-2.619 6.548-2.619 9.167-2.619 32.738 18.334 62.857 41.905 96.904 61.548 0 0 0 2.619 2.62 5.238-7.858 2.619-13.096 2.619-19.644 2.619-40.595 3.928-78.57 9.166-119.166 11.786-6.548 0-9.167-5.239-6.548-14.405zm2.62-593.213c7.857-2.62 10.476-2.62 13.095-2.62h57.619c5.238 0 9.166 5.239 11.785 7.858 5.238 19.643 13.095 39.286 17.024 58.928 0 2.62 0 5.239-2.619 11.786-31.428-26.19-61.547-47.143-96.904-75.952zm7.857 154.523c5.238-1.31 5.238-5.238 6.547-7.857 28.81-14.404 53.69-32.738 81.19-45.833 6.548-9.167 10.477-6.548 18.334 3.929 2.619 14.404 6.547 27.5 11.785 39.285 1.31 9.167 1.31 13.095-7.857 13.095h-104.76s0-2.619-5.238-2.619zm35.357 354.88c9.166-23.57 19.642-43.214 32.738-62.857 0-2.619 3.928-3.928 3.928-2.619 45.833 5.239 90.357 13.096 132.262 19.643 0 0 3.928 2.62 6.547 9.167-58.928 10.476-116.547 26.19-174.166 39.285 0 0 0-2.619-1.31-2.619zm24.88-739.879c2.62-14.404 7.858-30.119 11.786-47.142 2.62 0 6.548 0 6.548 2.619 3.928 18.333 9.167 35.357 13.095 52.38 0 2.62-3.929 7.858-6.548 7.858-6.547-3.929-15.714-5.238-22.261-7.857 0-2.62-2.62-5.239-2.62-7.858zm0-141.428C448.33 11.548 453.57 5 456.189 5c32.738 5.238 72.023 6.548 106.07 13.095 2.62 0 2.62 2.62 5.239 5.238-23.571 14.405-48.452 26.19-70.714 40.595-10.476 6.548-17.024 9.167-20.953 13.096-7.857 2.619-9.166 0-13.095-3.929-5.238-19.643-9.166-40.595-14.404-57.619zm5.239 907.498c0-1.31 2.619-1.31 2.619-3.929 51.071 13.096 102.142 27.5 154.523 43.214v3.929c-5.238 0-7.857 2.62-11.786 5.238-10.476 2.62-23.57 2.62-34.047 3.929-14.405 5.238-27.5 2.619-41.905-3.929-17.024-15.714-40.595-27.5-60.238-40.595zm14.404-828.927c20.953 1.31 39.286 6.548 57.62 11.786 2.618 0 3.928 3.929 3.928 6.548-10.476 18.333-23.572 35.357-35.357 55-5.238-2.62-7.857-2.62-7.857-2.62-6.548-22.261-10.477-48.452-18.334-70.714zm2.62 293.333c52.38 18.333 102.142 37.976 151.904 55v2.619c-2.62 1.31-5.238 3.928-7.857 3.928-36.667 5.239-74.643 14.405-113.929 18.334-3.928 2.619-11.785 0-14.404-9.167-3.929-18.333-9.167-40.595-13.096-61.547-2.619-1.31 0-3.929-2.619-9.167zm5.237-3.929v-6.547c9.167-9.167 20.953-19.643 31.429-27.5 2.619-2.62 11.786-2.62 13.095-2.62 30.12 26.191 61.548 49.763 94.286 78.572l2.619 3.929c-49.762-13.096-96.905-32.738-141.429-45.834zM479.76 87.5v-7.857c30.118-15.715 60.237-31.429 87.737-49.762l2.619 2.619c-10.476 20.952-19.643 40.595-26.19 61.547-3.929 1.31-6.548 3.929-9.167 3.929-15.714-2.62-34.048-7.857-55-10.476zm6.547 738.57v-5.239c2.619 0 7.857-2.619 11.785-2.619 5.238-1.31 11.786-1.31 17.024-3.928 34.048-13.096 52.38 15.714 74.643 24.88v5.239c-34.048-5.238-66.786-13.096-103.452-18.334zm10.476-341.786c1.31 0 1.31-2.619 3.928-2.619l137.5 47.143v2.62c-6.548 2.618-10.476 2.618-13.095 5.237-32.738 3.929-62.857 5.238-95.595 7.857-9.167 0-14.405-2.619-19.643-15.714-2.619-13.095-9.167-30.119-13.095-44.524zm10.476-328.69c7.857-9.166 13.095-18.332 20.952-28.809 1.31 0 3.929 3.929 3.929 3.929-2.62 22.262-3.929 47.143-9.167 72.024h-3.928c-30.12-19.643-30.12-19.643-11.786-47.143zm5.238 323.452v-3.928c2.62 0 7.857-2.62 10.476-2.62l112.619-20.952c9.167 0 15.714 0 15.714 11.786 3.929 20.952 9.167 40.595 13.095 64.167l-1.31 1.31c-51.07-15.715-100.832-31.43-150.594-49.763zm10.476-151.904c14.405-30.119 27.5-62.857 41.905-94.285 0 0 2.619 0 5.238-2.62 2.619 2.62 2.619 7.858 5.238 9.167 13.095 32.738 26.19 68.095 36.667 100.833 5.238 6.548 2.619 11.786-6.548 9.167-24.88-2.62-49.762-6.548-75.952-9.167-3.929-2.619-9.167-5.238-6.548-13.095zm6.548 223.928c40.595-3.929 81.19-6.548 121.785-10.476 0 1.31 1.31 3.928 1.31 3.928-5.238 2.62-7.857 6.548-10.476 9.167-17.024 14.405-31.429 26.19-45.834 35.357-3.928 1.31-7.857 5.238-11.785 1.31-17.024-9.167-34.048-19.643-52.381-32.738 0 0 0-3.929-2.62-6.548zm0-348.332c2.619-22.262 7.857-43.215 10.476-62.857l6.548-2.62c2.619 9.167 3.928 15.715 3.928 19.643 5.238 11.786 7.857 23.572 9.167 35.357 5.238 17.024 5.238 17.024-13.095 17.024h-9.167c-2.62-1.31-7.857-3.928-7.857-6.547zm2.619 18.333c0-9.167 14.405-3.929 20.952-3.929 6.548 0 6.548 3.929 5.238 11.786-2.619 9.167-7.857 18.333-11.785 28.81h-6.548c-2.619-10.477-7.857-22.262-7.857-36.667zm2.619 130.952c2.619 0 2.619-2.62 2.619-2.62 2.619 0 6.548-2.618 9.167-2.618 20.952 5.238 43.214 6.547 64.166 13.095 3.929 0 9.167 2.62 11.786 7.857 7.857 17.024 13.095 36.667 18.333 57.62 1.31 1.309 0 1.309 0 10.475-37.976-31.428-70.714-56.31-106.071-83.81zm14.405 453.094c15.714-14.405 31.428-23.571 49.761-36.667 0 0 6.548 2.62 6.548 5.239l14.405 68.095-2.62 2.619c-20.952-13.096-44.523-26.19-68.094-39.286zm0-688.808c-2.62-6.547 0-10.476 9.166-13.095 34.048-5.238 66.786-13.095 102.143-19.643h9.167c0 1.31 2.619 1.31 2.619 3.929-31.429 37.976-64.167 74.642-99.524 117.857-2.619-6.548-5.238-10.477-5.238-13.096-7.857-24.88-11.786-49.761-18.333-75.952zm3.928-18.333V87.5c9.167-19.643 17.024-39.286 27.5-57.62 1.31-2.618 9.167-5.237 9.167-5.237 27.5 17.024 52.38 30.119 77.261 43.214 0 2.619 0 2.619 2.62 6.548-39.286 9.166-77.262 15.714-116.548 23.571zm22.262 113.928c32.738-39.285 65.476-75.952 96.905-113.928 1.31 0 1.31 2.619 5.238 2.619-10.477 49.762-19.643 99.524-30.12 154.523-24.88-15.714-45.833-26.19-72.023-43.214zm5.238 18.334 1.31-1.31c2.619 0 6.547 1.31 7.857 1.31 18.333 7.857 32.738 17.023 48.452 24.88 2.62 2.62 6.548 6.548 6.548 9.167-3.929 23.571-13.096 45.833-19.643 69.405 0 1.31-2.62 1.31-5.238 3.928-14.405-36.666-27.5-73.333-39.286-107.38zm15.714 369.284c9.167-9.166 15.715-13.095 23.572-19.643 15.714-9.166 27.5-22.261 43.214-32.738 1.31-2.619 9.167-2.619 9.167 0l79.88 125.714v6.548c-52.38-24.88-100.833-52.38-155.833-79.88zm5.238 14.405 1.31-2.619c41.905 22.262 85.119 43.214 130.952 65.476 0 2.619-2.619 2.619-2.619 5.238h-9.167c-28.81-5.238-57.619-7.857-86.428-13.095-7.857-2.62-15.714-5.238-18.333-11.786-5.238-14.405-9.167-23.571-14.405-32.738zm9.167 138.81c3.929-23.572 9.167-45.834 11.786-68.096 35.357 31.429 68.095 65.476 102.142 96.905-5.238 0-7.857 2.619-10.476 0-28.81-7.857-61.547-14.405-94.285-22.262-2.62 0-9.167-3.929-9.167-6.548zm1.31 24.88c-1.31-13.095 5.238-10.476 13.095-10.476 32.738 6.548 62.857 14.405 94.285 23.571 2.62 0 5.238 3.929 11.786 3.929v3.928s-5.238 2.62-6.548 2.62c-30.119 15.714-57.619 30.118-83.809 45.833-9.167 2.619-10.476 0-13.095-7.857-5.238-20.953-10.476-41.905-15.714-61.548zm18.333-433.451c7.857-22.262 11.786-47.143 20.952-72.024h3.929c7.857 13.095 17.024 22.262 24.88 35.357 10.477 14.405 17.024 30.12 27.5 44.524 5.239 7.857 2.62 10.476-3.928 10.476l-62.857-9.167c-5.238 0-10.476-6.547-10.476-9.166zm1.31 529.046c0-6.548 3.928-11.786 10.476-9.167 30.119 11.786 61.547 26.19 91.666 35.357 0 1.31 1.31 1.31 6.548 6.548-35.357 17.024-66.786 36.667-99.524 52.38-2.619-5.237-2.619-6.547-2.619-11.785-2.619-24.88-2.619-47.143-6.548-73.333zm0-502.856c-1.31-7.857 3.928-7.857 9.166-7.857 17.024 0 31.429 1.31 49.762 5.238 3.928 0 13.095 2.62 22.262 2.62-19.643 24.88-39.286 45.832-57.62 65.475h-3.928c-6.547-23.571-13.095-43.214-19.643-65.476zm9.166 306.428h10.476c28.81 5.238 61.548 10.476 94.286 14.405 19.643 2.619 19.643 2.619 14.404 23.571-2.619 17.024-7.857 37.976-13.095 56.31 0 2.619-1.31 7.857-1.31 7.857-35.356-32.738-72.023-66.786-104.76-102.143zm1.31 180.714v-6.548c9.166-3.928 15.714-9.166 22.261-11.785 23.572-13.096 45.834-22.262 66.786-31.429 6.548-6.548 11.786-6.548 11.786 1.31 2.619 30.119 2.619 57.618 3.928 85.118 0 0-1.31 0-1.31 2.62-35.356-13.096-68.094-27.5-103.451-39.286zm15.714-400.713s2.619 0 2.619-2.62c23.571 11.786 44.524 18.334 70.714 27.5-20.952 17.024-37.976 31.429-53.69 45.834-3.929 0-5.238-2.62-5.238-2.62-5.239-23.57-9.167-45.833-14.405-68.094zm0-217.38c9.166-51.072 19.643-99.524 30.119-145.358l2.619-3.928c2.619 5.238 3.928 7.857 6.547 10.476 10.477 19.643 22.262 39.286 36.667 58.928 0 2.62 0 9.167-2.619 13.096-20.952 22.261-43.214 41.904-64.167 65.476-2.619 0-3.928 0-9.166 1.31zm2.619 27.5c-2.62-2.62-2.62-9.168 0-11.787 23.571-23.571 44.524-45.833 64.166-66.785 1.31-2.62 6.548-2.62 9.167-5.238h3.929c2.619 31.428 9.166 61.547 7.857 95.595 0 22.262-11.786 48.452-23.572 74.642-5.238-1.31-7.857-3.928-7.857-6.547-17.024-24.881-36.666-52.381-53.69-79.88zm19.643 280.236c0-2.619 3.928-2.619 3.928-5.238 1.31 0 6.548 0 9.167 2.62 31.428 5.238 62.857 13.095 94.285 19.642 7.858 0 9.167 6.548 7.858 13.095l-23.572 95.595c0 1.31-2.619 1.31-5.238 9.167-31.428-45.833-56.31-92.976-86.428-134.88zm3.928-18.333c10.476-6.547 20.953-15.714 30.12-24.88 28.809-19.644 19.642-19.644 41.904 5.237 10.476 11.786 18.333 22.262 27.5 35.357 2.619 2.62 3.928 5.239 6.547 6.548-2.619 2.62-2.619 2.62-2.619 6.548l-102.142-23.572c0-2.619 0-2.619-1.31-5.238zm65.476 280.238c-2.619-7.858 0-10.477 7.857-10.477l44.524 9.167c7.857 0 10.476 3.929 6.548 9.167-15.715 22.262-31.429 44.523-45.834 62.857 0 3.928-2.619 3.928-6.547 6.547 0-7.857-3.929-10.476-3.929-15.714 0-19.643-2.619-40.595-2.619-61.547zm7.857-24.881c23.572-28.81 41.905-57.62 64.167-89.048 0 0 3.928 0 7.857-1.31l-11.786 100.834c0 2.619-7.857 3.928-9.166 3.928-15.715 0-31.429-1.31-43.214-3.928-7.858-3.929-13.096-6.548-7.858-10.476zm0-19.643v-9.167c5.238-17.024 7.858-34.047 11.786-48.452 0-3.929 7.857-13.095 14.405-15.714 11.786-5.238 24.88-6.548 35.357-11.786 0 2.62 2.619 2.62 2.619 5.238l-58.929 82.5c-2.619 0-5.238-2.62-5.238-2.62zm17.024-79.88c11.786-31.43 18.333-64.167 24.881-98.215h5.238c7.857 20.952 14.405 37.976 20.952 56.31 7.858 26.19 7.858 26.19-17.023 34.047-11.786 3.929-20.953 5.238-27.5 7.857z" style="fill:#000;fill-opacity:1;fill-rule:nonzero;stroke:none;"/>
</svg>
