<svg xmlns="http://www.w3.org/2000/svg" width="1000" height="1000">
  <path d="M426.077 8.434c18.26 19.275 39.563 37.535 56.809 55.795 27.39 30.434 51.737 65.94 61.882 104.49 17.245 56.808 7.1 108.546-27.39 159.268-20.29 27.39-46.665 50.723-74.056 71.012-6.086 6.087-6.086 21.304-6.086 29.42 0 1.014 1.014 3.043 5.072 4.057 23.332 14.203 33.477 30.434 33.477 56.81-1.015 11.159 3.043 15.216 8.115 18.26 26.376 15.217 51.738 30.433 78.113 45.65 5.073 3.044 11.16 3.044 14.203-2.029 19.274-14.202 54.78-13.188 68.983 2.03 8.115 7.1 17.245 0 21.303-10.145 4.058-20.29 8.116-37.535 18.26-52.752 17.246-25.361 41.593-38.55 71.012-40.578 24.347 0 43.622 2.029 64.925 11.159 11.16 6.087 19.275 10.144 18.26 20.289-4.057 32.462-12.173 59.853-34.491 85.214-20.29 23.333-46.665 28.405-78.113 25.361-14.202-2.028-26.376-4.057-40.578-8.115-8.116-3.044-15.217 3.043-15.217 13.188 1.014 25.361-12.173 44.636-35.506 58.838-4.058 2.029-6.087 5.072-6.087 10.145v93.33c0 9.13 2.03 9.13 8.116 13.187 38.55 18.26 38.55 62.896 24.347 84.2-17.246 28.405-53.766 37.535-82.17 18.26-6.088-5.072-12.174-5.072-18.261 0-25.361 15.217-49.708 28.405-76.084 42.607-6.087 5.072-10.145 12.174-9.13 19.275 0 26.376-14.203 49.708-40.578 54.78-26.376 9.13-53.766 0-67.969-19.274-8.115-13.188-12.173-24.347-10.144-39.564 2.029-7.101 0-9.13-5.073-12.173-29.419-15.217-54.78-30.434-82.17-47.68-4.058-3.043-9.13-3.043-13.188 2.03-41.593 25.36-95.359-6.088-95.359-57.825 0-24.347 20.29-36.52 33.477-45.65 7.101-3.044 9.13-6.087 9.13-12.174V665.8c0-5.072 0-8.115-5.072-10.144-37.535-20.289-40.578-38.55-36.52-59.853 9.13-51.737 62.896-66.954 95.358-42.607 5.072 4.058 7.101 3.044 9.13 0 27.39-15.217 55.795-31.448 85.214-47.68 5.073-3.043 7.102-9.13 5.073-12.173-2.03-28.404 10.144-46.664 35.506-60.867 1.014-1.014 6.086-1.014 6.086-4.058 0-8.115 2.03-15.216 0-23.332 0-1.015-3.043-6.087-6.086-9.13-26.376-20.29-52.752-44.636-73.041-73.04-17.246-24.348-29.42-51.738-34.492-82.172-2.029-42.607 8.116-81.156 28.405-118.69 26.376-44.637 60.867-82.172 102.46-113.62 4.058-4.058 5.072-5.072 10.145 0zM192.752 824.055c0 16.232 14.202 28.405 28.405 28.405 15.217 0 27.39-12.173 27.39-28.405a27.276 27.276 0 0 0-27.39-27.39c-14.203 0-28.405 15.217-28.405 27.39zm0-223.18c0 15.217 14.202 28.405 28.405 28.405 15.217 0 27.39-13.188 27.39-28.404 0-14.203-12.173-27.39-27.39-27.39-14.203 0-28.405 13.187-28.405 27.39zm46.665 150.14c0 12.173 1.014 20.289 12.173 28.404 4.058 4.058 9.13 4.058 19.275-2.028 23.332-14.203 48.694-30.434 75.07-45.65 8.115-6.088 11.159-6.088 11.159-17.247 0-15.216 0-15.216-13.188-24.346-24.347-11.16-44.636-24.347-66.954-37.535-10.145-6.087-19.275-9.13-28.405 0-6.087 7.1-9.13 9.13-9.13 15.217zm34.491-152.168c-2.029 12.173 1.015 12.173 14.203 18.26 23.332 15.217 47.68 29.419 71.012 43.621 11.159 5.073 16.23 8.116 30.433 2.03 10.145-3.044 9.13-7.102 9.13-14.203v-86.229c2.03-13.188 0-21.303-14.202-25.361-5.072-3.043-10.145-5.072-17.246 0-23.332 14.202-48.694 27.39-74.055 41.593-9.13 5.072-17.246 9.13-19.275 20.289zm2.03 227.237c0 8.116 7.1 12.174 12.173 15.217 23.332 15.217 47.68 28.405 71.012 43.622 17.245 11.159 17.245 13.188 33.477 6.086 7.1-2.029 6.086-14.202 6.086-21.303v-82.17c0-11.16 0-18.261-8.115-25.362-7.102-6.087-14.203-4.058-24.347 1.014-23.333 14.203-49.709 27.39-73.041 42.607-14.202 9.13-17.246 10.145-17.246 20.29zm61.881-668.525c-18.26 40.578-19.275 82.17 2.029 122.749 13.188 24.347 30.434 47.68 52.752 65.94 0 0 1.014 0 6.086 3.043V233.643c0-18.26 6.087-26.376 21.304-26.376 14.202 2.03 17.246 9.13 17.246 18.26V353.35c0 4.058 1.014 3.043 2.028 2.029 1.015-2.03 34.492-31.448 44.636-47.68 35.506-49.708 42.607-100.43 15.217-155.211-16.231-36.52-45.65-65.94-73.04-94.344-4.058-2.03-6.087-2.03-10.145 2.028-7.101 6.087-15.217 15.217-23.332 21.304-22.318 23.332-39.564 48.694-54.781 76.084zm52.752 779.1c0 18.261 10.144 27.391 25.361 27.391 18.26 0 27.39-9.13 27.39-27.39 0-14.203-9.13-28.405-27.39-28.405-15.217 0-25.361 14.202-25.361 28.405zm0-223.179c-4.058 15.217 10.144 27.39 25.361 27.39 18.26 0 27.39-10.144 27.39-27.39 0-16.231-9.13-28.405-27.39-28.405-15.217 0-25.361 12.174-25.361 28.405zm0-226.223c0 15.216 10.144 27.39 25.361 27.39 18.26 0 27.39-12.174 27.39-27.39 0-15.217-9.13-28.405-25.361-28.405-17.246 0-27.39 10.144-27.39 28.405zm43.621 153.182c0 12.174 1.015 15.217 11.16 22.318 7.1 6.087 9.13 8.116 17.245 3.044 28.405-16.232 56.81-33.477 84.2-48.694 7.1-5.072 5.072-5.072 5.072-18.26-2.03-11.16-5.072-15.217-14.203-20.29-20.289-12.173-44.636-25.36-66.953-37.534-9.13-7.101-18.26-9.13-28.405-3.044-5.072 5.073-7.101 9.13-7.101 15.217 0 27.39 0 59.853-1.015 87.243zm1.015 219.122c-1.015 15.217 0 22.318 14.202 30.434 7.101 3.043 8.116 4.058 16.231 0 23.333-15.217 45.65-28.405 69.998-40.578 13.187-8.116 17.245-14.203 17.245-28.405-1.014-7.101-1.014-9.13-8.115-13.188-24.347-13.188-50.723-28.405-74.055-42.607-8.116-7.101-16.232-13.188-28.405-7.101-6.087 2.029-7.101 5.072-7.101 19.275v46.664zm40.578-145.067c-1.015 9.13 3.043 14.203 8.115 17.246 24.347 13.188 47.68 26.376 72.027 40.578 8.115 7.101 17.245 14.203 28.404 4.058 7.102-6.087 7.102-8.116 8.116-17.246v-85.214c1.014-11.159 0-16.231-13.188-24.347-6.087-3.043-13.188-3.043-18.26 0-26.376 16.232-50.723 31.448-77.099 44.636-5.072 3.044-9.13 8.116-8.115 17.246zM584.33 824.055c0 16.232 11.16 28.405 27.39 28.405 15.217 0 28.405-12.173 28.405-28.405 0-15.216-13.188-27.39-28.404-27.39-16.232 0-27.39 12.174-27.39 27.39zm0-223.18c0 15.217 11.16 28.405 27.39 28.405 15.217 0 28.405-13.188 28.405-28.404 0-14.203-13.188-27.39-28.404-27.39-16.232 0-27.39 13.187-27.39 27.39zm129.85-81.156c20.29-9.13 26.376-6.087 32.463 3.044 7.101 14.202 7.101 20.289-15.217 30.433 13.188 5.072 24.347 3.044 36.52-6.087 17.246-10.144 25.362-30.433 31.449-50.722 1.014-3.044-3.044-6.087-5.073-6.087-14.202 0-27.39-1.014-40.578-1.014-7.1 0-15.217 1.014-22.318 6.086-10.144 5.073-17.245 15.217-17.245 24.347z" style="fill:#000;fill-opacity:1;fill-rule:nonzero;stroke:none;"/>
</svg>
