<svg xmlns="http://www.w3.org/2000/svg" width="1000" height="1000">
  <path d="M552.914 205.77 344.232 548.958c-5.934 9.89-12.857 21.758-20.77 31.648-8.9 10.88-14.835 23.737-21.758 35.605H688.41c-8.901-28.682-19.78-72.198-27.693-100.88.99-2.967 9.89 8.901 9.89 7.912l155.276 157.254H168.187l29.67-39.56 39.561-48.463c16.814-20.769 34.616-43.516 53.407-65.274l91.978-108.792c16.814-17.802 32.638-38.572 47.473-57.363 6.923-8.901 50.44-64.286 69.231-86.044 19.78-23.736 37.583-50.44 53.407-69.231zM5 500.002c0 276.43 224.506 495.001 495.002 495.001 276.43 0 495.001-224.506 495.001-495.001C995.003 226.539 773.464 5 500.496 5 223.572 5 5 229.506 5 500.002z" style="fill:#000;fill-opacity:1;fill-rule:nonzero;stroke:none;"/>
</svg>
