<svg width="1000" height="1000" viewBox="0 0 1000 1000" fill="none" xmlns="http://www.w3.org/2000/svg">
<rect width="1000" height="1000" fill="white"/>
<path fill-rule="evenodd" clip-rule="evenodd" d="M676.502 75.1024L324.363 74.7333L75.1024 323.472L74.7333 675.611L323.472 924.872L675.611 925.241L924.872 676.502L925.241 324.363L676.502 75.1024ZM984.975 299.694L701.296 15.4209L299.694 15L15.4209 298.678L15 700.28L298.678 984.554L700.28 984.975L984.554 701.296L984.975 299.694Z" fill="black"/>
<path d="M360.73 656.982C369.475 656.982 378.074 656.253 386.528 654.795C395.273 653.338 403.581 651.006 411.451 647.799C419.613 644.593 427.047 640.22 433.751 634.682C440.456 628.852 445.849 622.001 449.93 614.131C454.302 606.26 456.926 598.098 457.8 589.644C458.966 580.899 459.549 572.154 459.549 563.409V474.209L362.916 474.209L362.916 522.744L405.767 522.744V563.409C405.767 569.531 405.038 575.652 403.581 581.774C402.123 587.604 399.062 592.559 394.398 596.64C389.734 600.721 384.487 603.782 378.657 605.823C372.827 607.572 366.851 608.446 360.73 608.446C354.9 608.446 349.069 607.572 343.239 605.823C337.701 603.782 332.745 600.576 328.373 596.203C324 591.831 320.939 586.729 319.19 580.899C317.441 575.069 316.567 569.239 316.567 563.409L316.567 422.175C316.567 416.054 317.441 410.078 319.19 404.248C321.231 398.418 324.437 393.316 328.81 388.944C333.183 384.571 338.284 381.511 344.114 379.761C349.944 378.012 355.92 377.138 362.041 377.138C369.037 377.138 376.034 378.304 383.03 380.636C390.026 382.968 395.71 387.195 400.083 393.316C404.455 399.146 406.642 405.705 406.642 412.993L460.424 412.993C460.424 400.75 457.8 388.944 452.553 377.575C447.598 366.207 440.31 356.733 430.691 349.154C421.071 341.283 410.285 335.89 398.334 332.975C386.382 330.06 374.285 328.603 362.041 328.603C353.296 328.603 344.697 329.331 336.243 330.789C327.79 331.955 319.482 334.433 311.32 338.222C303.449 341.72 296.307 346.384 289.894 352.214C283.481 358.044 278.088 364.749 273.716 372.328C269.635 379.907 266.72 387.924 264.971 396.377C263.513 404.831 262.784 413.43 262.784 422.175L262.784 563.409C262.784 573.612 263.95 583.814 266.282 594.017C268.906 603.928 273.278 613.11 279.4 621.564C285.522 629.726 292.955 636.576 301.7 642.115C310.737 647.654 320.211 651.443 330.122 653.484C340.324 655.816 350.527 656.982 360.73 656.982Z" fill="black"/>
<path d="M532.646 653.484H711.484L711.484 604.948L586.866 604.948V507.44L682.625 507.44L682.625 458.905L586.866 458.905V380.636L711.484 380.636L711.484 332.101L532.646 332.101V653.484Z" fill="black"/>
</svg>
