<svg xmlns="http://www.w3.org/2000/svg" viewBox="0 0 1000 1000"><path d="M888.2,798.99l-60.115-45.566a352.222,352.222,0,0,0-5.875-418.975l-1.441,1.3,68.408-64.25a18.47,18.47,0,0,0,.417-26.4l-15.75-15.72A448.912,448.912,0,0,0,568.8,96.512l.362-62.521a38.147,38.147,0,0,0-.947-12.5,32.364,32.364,0,0,0-6.033-11.1A27.587,27.587,0,0,0,551.993,2.99a27.419,27.419,0,0,0-24.052.04,31.977,31.977,0,0,0-10.163,7.427,27.357,27.357,0,0,0-6,10.662,23.146,23.146,0,0,0-.905,12.505L510.522,98a438.768,438.768,0,0,0-80.921,15.88l.327-80.119a38.116,38.116,0,0,0-.942-12.5,32.374,32.374,0,0,0-6.032-11.1,27.6,27.6,0,0,0-10.188-7.394,27.419,27.419,0,0,0-24.052.04,32.063,32.063,0,0,0-10.168,7.427,27.411,27.411,0,0,0-5.991,10.662,23.1,23.1,0,0,0-.906,12.506l-1.217,102.35A451.542,451.542,0,0,0,546.707,999.162L877.43,1000A18.568,18.568,0,0,0,895.9,981.443l-.278-167.183A19.551,19.551,0,0,0,888.2,798.99ZM660.8,626.627a131.244,131.244,0,0,0,6.226-150.059l92.831-84.128a267.16,267.16,0,0,1,.589,309.717Zm154.96,283.167a9.281,9.281,0,0,1-9.234,9.278l-253.475-.5A370.933,370.933,0,0,1,369.2,226.516l-.264,121.8a38.154,38.154,0,0,0,.947,12.5,32.335,32.335,0,0,0,6.033,11.105,27.56,27.56,0,0,0,10.188,7.394,27.408,27.408,0,0,0,24.051-.04,31.935,31.935,0,0,0,10.164-7.427,27.464,27.464,0,0,0,6-10.661,23.142,23.142,0,0,0,.905-12.5l.213-149.588c40.682-14.887,83.685-21.906,127.166-21.978a365.66,365.66,0,0,1,221.219,74.2,9.488,9.488,0,0,1,.95,14.354L604.036,424.8A131.909,131.909,0,0,0,554.063,414.7a135.621,135.621,0,0,0-55.485,11.669A130.987,130.987,0,0,0,453.3,460.249a137.1,137.1,0,0,0-27.2,49.6,129.839,129.839,0,0,0-4.072,56.5,137.063,137.063,0,0,0,19.517,53.229c10.2,16.191,24.1,29.6,39.848,40.226a137.451,137.451,0,0,0,53.223,19.825,128.9,128.9,0,0,0,56.424-4.265L812.416,843.114a9.66,9.66,0,0,1,3.713,7.4ZM606.554,547.985a55.233,55.233,0,0,1-8.74,29.191,53.683,53.683,0,0,1-23.558,19.492A48.3,48.3,0,0,1,544.2,599.5c-9.719-2.3-19.441-6.918-26.854-14.311a51.584,51.584,0,0,1-11.192-56.948,53.728,53.728,0,0,1,19.385-23.651,55.054,55.054,0,0,1,29.125-8.846,52.144,52.144,0,0,1,51.895,52.244Z" fill-rule="evenodd"/></svg>