<svg xmlns="http://www.w3.org/2000/svg" width="1000" height="1000">
  <path d="M546.499 35.605h31.783c3.532 0 9.417 0 10.595 1.177 76.516 3.532 148.323 25.898 211.89 64.744 44.733 25.898 83.58 60.036 115.363 98.883 9.417 10.594 9.417 18.834 1.177 30.606-23.543 27.075-49.44 54.15-75.339 81.225-10.594 9.417-28.252 9.417-37.67 0-4.708-4.709-8.24-9.417-12.948-14.126-135.375-157.741-388.466-134.198-494.412 45.91-3.531 5.885-4.708 8.24-7.063 14.126h56.505c34.137-1.178 47.086 10.594 43.555 45.91 0 24.72-9.418 36.492-32.961 36.492h-82.402c-11.772 0-14.126 2.354-17.657 12.948-4.71 38.847-1.178 75.34 4.708 116.54 1.177 5.886 5.886 10.595 14.126 10.595 28.252-1.177 58.859-1.177 84.757 0 20.011 0 29.429 12.949 29.429 38.846 0 28.253-9.418 41.201-29.43 41.201h-49.44c-1.178 0-4.71 3.532-7.064 3.532 40.024 91.82 183.639 158.918 304.888 141.26 95.35-16.48 204.827-103.59 215.422-175.398H657.153c-18.835 0-31.784-10.595-31.784-28.252-1.177-31.784-1.177-63.567 0-97.705 0-15.303 11.772-25.898 24.72-28.252h304.888c17.657 0 29.429 2.354 40.024 16.48v133.02c-1.178 4.709-1.178 11.772-4.71 16.48-37.669 164.805-177.752 294.293-347.264 316.66-23.544 2.354-47.087 4.708-69.454 5.885h-25.897c-2.355 0-5.886-1.177-10.595-1.177-27.075-2.354-57.681-4.708-84.756-12.949-149.5-36.492-258.978-130.666-322.545-274.28-1.177-11.772-8.24-15.304-18.835-15.304H42.67c-17.658 3.532-30.607-1.177-37.67-17.657v-44.733c7.063-14.126 20.012-18.834 34.138-18.834 17.658 1.177 35.315 0 49.441 0h11.772V440.552H39.138c-14.126 0-27.075-4.71-34.138-18.835v-42.378c7.063-16.48 16.48-21.19 34.138-21.19h61.213c22.366 0 17.657 0 25.898-14.125 62.39-162.45 180.107-264.864 351.974-300.179 21.189-3.531 44.732-7.063 68.276-8.24z" style="fill:#000;fill-opacity:1;fill-rule:nonzero;stroke:none;"/>
</svg>
