<svg xmlns="http://www.w3.org/2000/svg" width="1000" height="1000">
  <path d="M500.496 995.003c275.935 0 494.507-224.506 494.507-495.496C995.003 226.54 773.464 5 500.496 5 223.572 5 5 229.506 5 499.507c0 276.924 224.506 495.496 495.496 495.496zM183.023 542.035V433.243c26.703 6.923 26.703 8.901 26.703 32.638 0 17.802 2.967 37.582 0 55.384 0 9.89 3.956 17.803 13.846 21.759 19.78 10.879 38.572 22.747 63.297 36.593V387.75c-14.835 8.9-31.648 14.835-43.517 24.725-17.802 11.868-30.659 10.879-47.472-3.956 23.736-14.835 44.505-27.693 69.23-39.56 15.825-7.913 25.715-20.77 23.737-41.54-1.978-25.714 0-50.44 0-77.142 24.725 7.912 26.703 8.9 26.703 32.637v53.407c58.352-31.649 112.748-62.308 169.122-95.935-26.703-14.835-49.45-29.67-74.176-42.527-2.967-1.978-8.901.989-12.857 3.956-17.803 8.901-35.605 19.78-51.43 29.67-21.757 11.868-21.757 11.868-43.516-6.923 33.627-18.791 63.297-37.582 96.924-55.385 4.945-2.967 14.835 0 20.769 2.967 25.714 14.836 51.429 26.704 77.143 42.528 10.88 7.912 19.78 7.912 30.66 0 25.714-12.857 50.44-26.703 73.187-41.539 11.868-6.923 21.758-6.923 32.637-.989 27.692 18.792 59.341 34.616 87.033 52.418-15.824 17.802-19.78 18.791-40.55 6.923-19.78-10.879-40.549-22.747-63.296-36.593-23.736 14.835-48.462 29.67-77.143 45.494 13.846 6.923 23.736 14.836 34.615 20.77 18.792 8.9 37.583 19.78 55.385 31.648 11.868 6.923 20.77 6.923 31.649-.989 18.79-11.868 36.593-22.747 55.384-33.626 5.934-2.967 11.868-6.923 18.792-10.88v107.803c31.648 16.813 61.318 33.627 91.978 51.429-15.824 17.802-28.682 17.802-44.506 5.934-13.846-9.89-28.681-15.824-44.505-25.714v104.835c35.604-19.78 67.253-40.55 102.857-61.319V446.1c.99 29.67 0 60.33.99 90 0 10.88-3.957 17.803-14.836 24.726-23.736 14.835-48.462 28.681-73.187 41.539-12.857 7.912-18.791 14.835-18.791 30.66 1.978 27.691 0 55.384 1.978 82.087 0 12.857-3.956 22.748-16.814 27.693-27.692 17.802-59.34 35.604-90 52.417v-120.66c-30.66 16.814-58.352 33.627-89.011 52.418 17.802 8.902 30.66 16.814 45.494 24.726 21.759 12.857 21.759 12.857 17.803 42.527-30.66-17.802-62.308-33.626-92.968-51.428-29.67 15.824-59.34 33.626-92.967 52.417v-29.67c.989-19.78.989-38.572 1.978-57.363 0-13.846-3.956-20.77-16.813-28.681-23.737-10.88-46.484-25.715-72.198-39.56l-15.824-7.913c0 28.681-.99 55.385 0 80.11 0 4.945 7.912 10.88 11.868 12.857 15.824 9.89 32.637 17.803 48.461 28.682 21.759 10.879 21.759 11.868 16.814 40.55-14.836-6.924-28.682-15.825-43.517-22.748-15.824-10.88-31.648-19.78-47.473-28.681-10.879-4.945-14.835-12.858-14.835-24.726.99-29.67 0-58.352.99-87.033 0-13.846-3.957-20.77-13.847-26.703-26.703-13.847-51.429-28.682-77.143-43.517-7.912-3.956-14.835-9.89-14.835-18.791zm108.791-184.946c1.978 4.945 2.967 10.88 3.956 15.824 1.978 1.978 5.934 1.978 6.923 2.967 10.88 4.945 13.847 12.858 12.857 25.715 0 16.813.99 34.615 0 52.417-1.978 17.803 5.935 25.715 18.792 33.627 15.824 6.923 31.648 17.802 48.461 25.714 8.902 3.956 14.836 10.88 12.858 21.759-.99 11.868 2.967 18.79 13.846 23.736 10.879 5.934 13.846 12.857 11.868 24.725 0 20.77 1.978 39.56 0 59.341 0 10.88 3.956 17.802 13.846 22.748 11.868 6.923 22.748 13.846 34.616 20.769 16.813 8.901 35.604 14.835 31.648 40.55 0 2.966 6.923 8.9 12.857 8.9 2.967 1.979 6.923-4.945 9.89-8.9.99-2.968.99-6.924.99-11.869 0-27.692 1.978-57.363 1.978-84.066 0-13.846 4.945-20.77 15.824-26.703 24.725-14.836 47.472-28.682 72.198-43.517 9.89-6.923 14.835-13.846 14.835-25.714 0-28.682.99-58.352.99-85.056 0-13.846 3.955-21.758 14.834-26.703 25.715-14.835 51.429-32.637 77.143-47.473 8.902-3.956 12.858-10.879 12.858-20.769-7.913-3.956-16.814-4.945-25.715 1.978-8.9 5.934-15.824 4.945-24.725-1.978-17.802-8.901-35.605-18.791-51.429-27.692-8.901-6.923-17.802-7.912-27.692-1.978-17.803 10.879-36.594 21.758-55.385 31.648-8.901 4.945-15.824 5.934-23.736 0-8.902-5.934-18.792-6.923-27.693 0-8.901 7.912-16.813 4.945-26.703-1.978-16.813-10.88-36.594-19.78-55.385-31.648-6.923-3.956-12.857-3.956-21.758 0-14.836 8.9-29.67 15.824-44.506 24.725-11.868 8.901-26.703 19.78-42.528 4.945-2.967-1.978-10.879 1.978-16.813 3.956zm23.736 152.308c0 29.67 0 55.385.99 80.11 0 2.967 1.978 8.902 4.945 9.89 22.747 13.847 44.505 25.715 72.198 40.55v-79.121c0-2.967-5.934-9.89-9.89-11.868-19.78-13.846-41.54-24.726-68.243-39.56zM421.375 527.2v-81.1c0-9.89 3.956-17.802 12.857-21.758 22.748-14.835 46.484-29.67 70.22-41.539 11.868-7.912 22.748-1.978 22.748 11.869.989 19.78.989 38.571 0 59.34-1.978 14.836 2.967 24.726 17.802 32.638 16.813 7.912 34.615 18.791 50.44 27.692 5.934 4.945 9.89 12.858 9.89 19.78 0 8.902-10.88 11.869-18.792 7.913-18.79-12.857-39.56-22.748-58.351-34.616-10.88-6.923-19.78-8.9-30.66 0-20.77 11.868-39.56 21.759-56.374 32.638-13.846 6.923-23.736 1.978-19.78-12.857zm13.846-225.496c27.693 15.824 52.418 30.66 77.143 45.495 26.704-14.835 51.43-29.67 81.1-44.506-29.67-17.802-55.385-32.637-81.1-45.494-25.714 12.857-50.44 27.692-77.143 44.505z" style="fill:#000;fill-opacity:1;fill-rule:nonzero;stroke:none;"/>
</svg>
