<svg xmlns="http://www.w3.org/2000/svg" width="1000" height="1000">
  <path d="M772.087 671.249c31.3 45.07 63.85 91.392 100.157 136.462 10.015 10.016 0 18.78-3.756 23.788-76.37 83.88-171.518 138.966-280.438 156.494-120.187 18.779-227.855 0-336.775-58.842 101.408-75.117 196.557-148.982 296.713-221.596 25.039 21.283 51.33 45.07 76.369 68.858 8.764 10.015 13.771 10.015 26.29 3.756 46.323-27.543 90.142-63.85 121.44-108.92zM9.648 556.069C-2.872 449.653 18.412 353.253 69.742 255.6c78.873 97.653 152.738 194.053 231.611 300.469-27.543 21.283-50.078 43.818-75.117 63.85-13.772 12.52-13.772 22.535-3.756 31.298 13.772 23.787 28.795 46.323 46.322 65.102 18.78 18.78 40.063 36.307 58.842 56.338-45.07 31.299-91.392 68.857-137.715 100.156-5.007 5.008-13.771 0-17.527-3.756C79.757 786.428 23.42 678.76 9.648 556.07zm111.424-370.578C255.03 10.218 531.712-58.639 748.3 75.319c-102.66 68.858-202.816 141.47-305.476 215.336-22.535-26.291-50.078-53.834-72.613-83.88-61.346 30.046-101.409 71.36-138.967 122.69-37.559-46.322-73.865-97.652-110.172-143.974zm548.355 46.322c51.33-36.306 97.653-72.613 148.983-110.172 187.793 151.487 225.351 434.428 110.171 622.22-73.865-97.651-147.73-195.304-221.595-290.452 26.29-33.803 55.086-55.086 77.62-83.881-12.519-46.322-51.33-91.393-115.179-137.715z" style="fill:#000;fill-opacity:1;fill-rule:nonzero;stroke:none;"/>
</svg>
