<svg xmlns="http://www.w3.org/2000/svg" viewBox="0 0 1000 1000"><path d="M500.496 5C223.572 5 5 229.506 5 500.002c0 276.43 224.506 495.001 495.002 495.001 276.43 0 495.001-224.506 495.001-495.001C995.003 226.539 773.464 5 500.496 5zM121.704 477.749c-3.956-3.956-5.934-7.912 0-14.835 13.846-11.869 25.714-25.715 36.593-36.594 27.693-27.692 66.264-29.67 92.968-2.967 76.154 74.176 151.319 149.341 227.473 224.506 0 .99 1.978.99 1.978.99-17.802 18.79-32.638 37.582-50.44 52.417-27.692 22.747-64.286 19.78-90.99-5.934-37.582-37.583-73.186-75.165-112.747-112.748-33.626-33.626-68.242-70.22-104.835-104.835zM275 328.408c-7.912-6.923-7.912-11.869 0-19.78 6.923-5.935 18.791-16.814 23.736-22.748 20.77-17.802 33.627-12.857 53.407 6.923 20.77 18.791 38.572 38.572 60.33 57.363 22.747 23.736 43.517 46.484 66.264 69.231 5.934 6.923 7.912 8.901 1.978 14.835-6.923 6.923-14.835 14.835-20.77 18.791-9.89 5.935-18.79 11.869-29.67 16.814-8.901-4.945-20.77-10.88-27.692-16.814-43.517-40.55-85.055-83.077-127.583-124.615zm97.912-119.671c7.912-5.934 11.868-8.901 17.803-12.857 7.912-6.923 18.79-6.923 24.725 0 25.714 21.758 48.462 44.505 71.209 68.242l2.967 3.956c-2.967 15.824-29.67 24.725-41.539 15.824-24.725-25.714-47.472-50.44-75.165-75.165zm36.594 556.815c-3.956-6.923-3.956-10.88 0-16.813 13.846-11.868 28.681-26.704 40.55-37.583 12.857-14.835 28.68-18.791 46.483-18.791 15.824 0 32.638 3.956 42.528 15.824 14.835 13.846 27.692 28.682 42.527 40.55 2.967 5.934 5.934 9.89 0 14.835-25.714 27.692-52.417 52.418-78.132 78.132-6.923 5.934-9.89 5.934-16.813 0-23.736-25.714-48.462-50.44-77.143-76.154zM446.1 497.529c-4.945-5.934-4.945-7.912 0-12.857 7.912-6.923 13.847-12.857 19.78-19.78 24.726-22.748 42.528-15.825 57.363 0 7.913 6.923 13.847 12.857 19.78 19.78 7.913 6.923 4.946 9.89-1.977 16.813-11.868 14.835-29.67 29.67-37.583 38.572-6.923 4.945-9.89 4.945-13.846 0-15.824-14.835-29.67-27.693-43.517-42.528zm19.78-193.847c20.77-28.681 39.561-28.681 57.363 0-6.923 7.912-14.835 14.836-24.725 21.759-3.956 2.967-3.956 2.967-6.923 0-8.901-6.923-15.824-13.847-25.714-21.759zm37.583-35.604c0-1.978-.989-2.967 1.978-5.934 23.737-23.737 45.495-44.506 68.242-66.264 7.912-6.923 17.802-6.923 27.693 0 4.945 3.956 7.912 6.923 15.824 12.857-27.693 24.725-50.44 49.45-76.154 75.165-9.89 8.901-34.616-1.978-37.583-15.824zm6.923 166.154c-4.945-5.934-4.945-7.912 0-12.857 43.517-42.528 86.045-87.033 129.561-130.55 17.802-15.824 41.539-15.824 57.363 0 6.923 7.912 12.857 14.835 19.78 20.77 4.945 4.944 4.945 6.923 0 11.868-42.527 46.483-86.044 89.01-132.528 131.538-11.868 10.88-18.79 19.78-24.725 14.836-10.88-4.945-20.77-10.88-26.703-14.836-9.89-5.934-16.814-13.846-22.748-20.769zm1.978 214.616c0-.989 1.978-2.967 5.934-6.923 71.21-71.209 141.43-142.418 214.617-213.627 32.637-31.648 71.209-31.648 103.846 0 12.857 12.857 26.703 26.703 42.528 41.539-24.726 21.758-46.484 42.527-66.264 65.275-55.385 53.406-106.814 104.835-158.243 157.253-20.769 18.791-42.527 28.681-67.253 20.77-8.9 0-18.79-4.946-24.725-8.902-19.78-17.802-33.626-36.593-50.44-55.385z"/></svg>