<?xml version="1.0" encoding="UTF-8"?><svg id="a" xmlns="http://www.w3.org/2000/svg" viewBox="0 0 1000 1000"><path d="M500,0C223.858,0,0,223.858,0,500s223.858,500,500,500,500-223.857,500-500S776.142,0,500,0Zm43.325,843.13c-5.045,.843-10.122,1.18-15.219,1.18h-146.875c-11.912,0-21.571-9.648-21.571-21.571s9.658-21.57,21.571-21.57h146.875c2.76,0,5.519-.147,8.236-.611,40.687-6.699,173.523-41.688,173.523-210.776,0-189.774-183.539-203.34-191.354-203.825l-82.206,.042c-6.035,.516-30.449,4.382-30.449,30.207,0,12.112,2.96,21.191,8.805,27.005,9.521,9.479,24.551,9.585,24.32,9.279h53.157c1.232-.126,66.155-4.202,110.928,37.527,26.753,24.941,40.318,60.035,40.318,104.335,0,44.531-13.566,79.878-40.308,105.093-44.226,41.667-107.979,38.444-110.707,38.233l-162.832,.042c-45.511,0-82.543-37.032-82.543-82.533V151.261c0-11.912,9.658-21.571,21.57-21.571s21.571,9.658,21.571,21.571v503.927c0,21.718,17.674,39.391,39.402,39.391h164.117c1.675-.021,49.576,2.212,80.047-26.731,17.61-16.726,26.542-41.456,26.542-73.496,0-31.85-8.942-56.328-26.584-72.779-30.692-28.596-79.573-26.099-80.005-25.994l-54.305,.053c-2.686,.084-32.398,.274-54.569-21.307-10.069-9.785-22.065-27.816-22.065-58.118,0-54.632,47.312-71.842,72.327-73.306l84.755-.042c3.56,.169,233.21,16.062,233.21,246.924,0,208.29-174.671,247.598-209.681,253.348Z"/></svg>