<svg xmlns="http://www.w3.org/2000/svg" width="1000" height="1000">
  <path d="M198.74 553.482h265.643c22.969 0 28.96 6.99 28.96 29.96v128.827c0 22.969-10.985 34.953-34.952 34.953H39.953C16.983 747.222 5 735.238 5 712.269V291.834c0-23.968 11.984-35.952 34.953-35.952h418.438c23.967 0 34.953 11.984 34.953 35.952v134.819c0 16.977-5.992 22.969-23.968 22.969H323.572c-27.963 0-43.941 4.993-59.92 28.96-17.976 22.97-40.945 45.94-64.912 74.9zm299.597 0h240.676c34.953 0 56.924-21.97 56.924-51.93 0-34.953-21.97-57.922-63.914-57.922H504.329c0-98.867 123.833-197.734 239.678-197.734 134.818 0 250.663 109.852 250.663 244.67 6.99 134.82-98.867 250.664-232.688 262.648-122.834 10.985-251.661-80.892-263.645-199.732z" style="fill:#000;fill-opacity:1;fill-rule:nonzero;stroke:none;"/>
</svg>
