<svg xmlns="http://www.w3.org/2000/svg" width="1000" height="1000">
  <path d="M127.666 717.103V286.15c123.75-74.9 246.413-146.545 367.992-216.019 129.177 69.474 251.841 141.118 375.59 216.02v430.952c-18.453 9.77-35.821 21.71-55.36 31.48-105.297 61.875-210.592 123.75-320.23 181.283-121.579-68.388-244.243-141.118-367.992-212.763zm-56.448 31.48c141.118 83.585 284.407 167.17 424.44 246.414 119.407-62.96 234.473-130.263 348.453-197.565 28.223-15.198 55.361-31.48 84.67-48.849V253.585C785.493 168.914 644.376 85.329 495.659 5 355.625 85.329 212.336 168.914 71.218 253.585zm155.23-320.23c-20.625 72.73-11.94 153.06 32.566 199.737 52.105 49.934 100.953 34.737 133.52-44.506 0-6.513 0-9.77 5.427-16.283h-5.428c-11.94 9.77-15.197 56.447-53.19 71.644-71.645 33.652-104.21-141.118-73.816-221.446 14.112-43.421 42.335-70.56 73.816-51.02 20.624 9.77 26.052 24.967 41.25 57.533h3.256V346.94c-9.77 3.256-18.454 9.77-27.138 17.368-7.599-11.94-48.849-22.796-80.329-7.599-27.138 16.283-44.506 43.421-49.934 71.645zm171.513 216.02h180.197v-60.79l-5.428-6.512c-5.428 17.368-8.684 26.052-15.197 40.164H442.467c8.684-14.112 17.369-16.283 27.138-26.053 26.053-23.881 61.875-58.618 80.329-91.184 14.112-21.71 22.796-44.506 22.796-71.644 0-47.763-49.934-89.013-99.868-81.414-47.763 9.77-71.645 47.763-57.533 97.697 3.257 23.881 27.138 33.651 46.678 28.223 0-10.855 0-21.71-2.171-31.48-17.369 0-41.25-6.513-41.25-30.394 0-27.139 27.138-48.849 54.276-54.277 22.796-6.513 46.677 9.77 58.618 37.994 8.684 29.309 2.171 60.789-8.684 91.184-16.283 36.907-44.507 70.559-77.072 97.697-17.369 19.54-30.395 37.993-47.763 60.789zm213.848-233.387c-33.651 123.75 20.625 293.09 113.98 233.387 42.335-26.053 57.532-87.927 57.532-149.802 0-143.29-124.835-213.848-171.512-83.585zm27.138 67.302c0-73.816 34.737-161.743 78.158-105.296 21.71 42.336 27.138 67.303 27.138 127.006 0 86.842-31.48 186.71-75.987 128.092-26.053-28.223-29.31-77.072-29.31-149.802z" style="fill:#000;fill-opacity:1;fill-rule:nonzero;stroke:none;"/>
</svg>
