<svg xmlns="http://www.w3.org/2000/svg" width="1000" height="1000">
  <path d="M54.151 528.358c2.635-18.443 6.587-36.885 10.54-54.01 17.125-60.598 43.471-115.926 76.405-171.254 52.693-88.262 113.29-173.889 179.157-255.563 9.222-10.54 18.443-22.395 28.982-32.934 6.586-10.539 18.442-11.856 27.664-6.587 9.221 7.905 11.856 19.76 2.634 30.3-28.981 38.202-59.28 76.405-89.578 113.29-57.963 77.723-113.291 159.398-152.811 248.977-17.126 35.568-32.934 71.136-38.203 110.656-9.221 50.058-3.952 97.483 9.221 142.272 46.107 152.81 146.225 251.611 301.67 289.814 127.782 31.616 245.025 1.317 347.777-81.675 79.04-64.55 126.464-147.542 143.59-247.66 9.22-59.28 3.951-115.925-18.443-169.935-28.982-73.771-68.502-140.955-111.974-206.822-44.79-68.502-96.165-131.734-148.859-196.283-7.904-11.856-7.904-23.712 1.318-30.299 7.904-7.904 21.077-6.587 30.298 3.952 56.646 69.819 113.291 140.955 162.033 218.678 42.154 63.232 77.722 125.147 104.069 194.966 32.933 77.722 32.933 159.397 10.539 238.437-19.76 76.406-56.646 139.638-110.656 194.966-98.8 98.8-231.852 148.859-379.393 129.099C245.165 964.396 89.72 812.903 59.42 619.254c-2.635-13.173-3.952-26.346-5.27-36.885zm88.262 64.55c-9.221-56.646 2.635-108.022 25.03-159.398 31.615-75.088 75.087-143.59 125.146-209.456 36.886-48.742 76.406-96.166 114.608-146.225 3.952-2.634 9.222-6.586 15.808-9.221 9.222-3.952 17.126 0 22.395 9.221 3.952 7.904 1.318 15.808-3.952 23.712-39.52 48.742-81.675 97.483-118.56 148.86-46.107 63.231-88.262 129.098-119.878 198.917-31.616 75.088-30.298 148.859 2.635 221.312 48.742 111.974 135.686 177.84 256.88 194.966 129.1 17.125 256.881-51.376 320.113-165.984 26.347-47.424 39.52-98.8 36.886-151.494 0-36.885-10.54-69.819-23.713-102.752-30.298-71.136-73.77-138.32-121.194-200.235-38.203-47.424-76.406-94.848-113.291-142.272-10.539-11.856-10.539-22.395 0-30.3 6.586-7.903 19.76-7.903 27.664 3.953 35.568 43.472 73.77 86.944 108.021 133.05 44.79 56.646 85.627 117.244 117.243 180.476 21.078 42.155 38.203 85.627 44.79 131.733 2.634 10.54 2.634 19.76 2.634 35.568-5.27 130.417-64.55 233.169-181.792 302.988-130.416 79.04-306.94 60.597-420.23-43.472-65.867-60.598-105.387-134.369-117.243-223.947zm102.752 55.328c-28.981-65.867-26.347-130.417 3.952-194.966 23.712-55.328 54.01-102.752 88.262-150.176 46.106-61.915 94.848-121.195 147.541-175.206 5.27-6.587 9.222-11.856 17.126-19.76 5.269 10.539 11.856 15.808 18.442 23.712 47.424 52.693 94.848 108.022 138.32 165.984 36.886 48.742 69.82 100.118 94.849 156.763 39.52 89.58 26.346 172.571-27.664 250.294-59.28 82.992-144.907 125.147-246.342 115.926-113.291-10.54-191.014-71.137-234.486-172.571zm22.395-72.454C282.05 693.025 383.485 779.97 515.219 779.97c59.28-1.317 121.195-30.299 168.619-86.944 30.299-35.568 47.424-81.675 51.376-127.782 3.952-38.202-7.904-73.77-25.03-108.021-30.298-63.232-68.5-117.243-111.973-172.571-30.299-35.568-60.597-72.453-90.896-108.022-3.952-3.952-6.587-7.904-13.173-1.317-31.616 39.52-65.867 77.723-96.166 117.243-43.472 52.693-81.675 109.339-111.973 171.254-14.491 34.25-23.712 72.453-18.443 111.973z" style="fill:#000;fill-opacity:1;fill-rule:nonzero;stroke:none;"/>
</svg>
