<svg xmlns="http://www.w3.org/2000/svg" width="1000" height="1000">
  <path d="M5 500.496c0 271.98 220.55 494.507 495.496 494.507 271.98 0 494.507-220.55 494.507-495.496C995.003 227.528 773.464 5 500.496 5 226.54 5 5 225.55 5 500.496zm139.451 181.979v-361.98c0-14.835 6.923-19.78 18.791-28.68 109.78-59.342 216.594-119.672 327.364-179.012 5.934-2.968 8.901-5.935 13.846-7.913h11.868c20.77 11.869 38.572 22.748 59.341 33.627 92.968 51.429 189.891 100.88 282.858 155.275 11.869 6.923 16.814 11.868 16.814 26.704v361.979c0 12.857-4.945 21.758-16.814 27.692-110.77 59.341-223.517 121.649-334.286 183.957-10.88 4.945-19.78 4.945-30.66 0-109.78-62.308-220.55-121.649-330.33-183.957-14.836-5.934-18.792-14.835-18.792-27.692zm15.824 1.978c32.638-17.802 68.242-37.583 100.88-53.407 0-2.967 3.956-8.901 3.956-11.868V381.814c0-2.967-3.956-8.9-6.923-8.9-29.67-19.781-65.275-36.594-97.913-56.375zm3.956 14.835c8.901 2.967 12.857 4.945 18.792 7.912 103.846 56.374 208.682 112.748 313.517 173.078 11.868 5.934 16.813 5.934 24.725 0C627.09 819.948 733.904 763.574 838.74 707.2c2.967-2.967 7.912-4.945 15.824-11.868-35.604-16.813-67.253-32.638-97.912-53.407-8.901-2.967-13.846-2.967-22.747 2.967-67.253 37.583-138.462 77.143-206.704 115.715-10.88 6.923-22.748 6.923-36.594 0-67.253-38.572-135.495-76.154-205.715-113.737-8.901-4.945-17.802-7.912-26.703-1.978-28.682 17.802-53.407 30.66-81.1 45.495-3.956 2.967-5.934 4.945-12.857 8.901zm0-393.628c6.923 1.978 12.857 5.934 15.825 7.912 68.242 37.583 135.494 74.177 199.78 109.781 11.869 6.923 14.836 11.868 14.836 23.736v106.814c8.9-1.978 11.868-1.978 16.813-4.945 24.725-13.846 53.407-31.649 79.121-45.495 8.901-2.967 13.846-7.912 13.846-19.78-2.967-116.704-2.967-231.43-2.967-348.133v-13.846C387.75 184.012 277.968 243.352 164.231 305.66zm239.342 263.078c36.593 16.813 68.242 36.594 100.88 53.407 3.955 2.967 5.933 2.967 8.9 0 33.627-16.813 65.275-36.594 101.869-56.374-36.594-19.78-68.242-36.593-101.869-54.396 0-2.967-4.945-2.967-8.9 0-32.638 17.803-64.287 37.583-100.88 57.363zm112.747-80.11c0 2.967 2.967 9.89 2.967 9.89 33.627 18.791 67.253 36.594 100.88 55.385V452.034c0-12.857 6.923-21.758 17.802-30.659 30.66-13.846 59.341-30.66 87.033-48.462 22.748-10.879 25.715-7.912 25.715 14.836v222.528c0 11.868 2.967 17.802 14.835 23.736 21.758 10.88 44.506 24.725 67.253 36.594 8.901 4.945 17.802 7.912 28.681 13.846V320.496c0-8.902-6.923-14.836-10.879-17.803-107.802-59.34-215.605-115.714-320.44-175.055-5.934-1.978-8.902-1.978-13.847-5.934v3.956z" style="fill:#000;fill-opacity:1;fill-rule:nonzero;stroke:none;"/>
</svg>
