<?xml version="1.0" encoding="UTF-8"?><svg id="a" xmlns="http://www.w3.org/2000/svg" viewBox="0 0 1000 1000"><path d="M503.354,.007C226.287-.911,.934,222.942,0,500.007c.006,274.829,221.824,498.133,496.647,499.977,276.134,1.85,501.49-220.499,503.342-496.635C1001.841,227.213,779.488,1.859,503.354,.007ZM228.267,663.091v-102.329l88.657-51.183,88.623,51.149v102.331l-88.657,51.214-88.623-51.183Zm277.398,160.352l-123.169-71.011,55.936-32.298,1.399-.813,2.15,1.236,121.019,69.773-57.335,33.113Zm277.43-159.895l-154.1,88.884h-.195l-153.935-88.884v-178.095l154.13-89.015,154.1,89.015v178.095Zm0-253.923l-121.247-70.001-32.884-18.982-32.884,18.982-154.098,89.015-32.884,18.982v39.299l-59.288-34.22-32.884-18.982-32.884,18.982-55.773,32.167v-141.889L505.665,182.822l277.43,160.155v66.647Z"/></svg>