<svg xmlns="http://www.w3.org/2000/svg" width="1000" height="1000">
  <path d="M995 193.52v-15.797h-17.904C910.745 198.787 841.234 203 778.043 203H450.5c-117.957 0-162.191 65.298-207.479 160.085 0 0 0 4.213 4.213 9.478 20.01-5.265 41.075-5.265 60.032-5.265h500.266c58.979 0 99-24.224 128.49-74.777 20.01-34.755 41.074-64.245 58.978-99zM5 822.277h560.298c49.5 0 93.734-24.223 123.223-68.457 18.958-25.277 34.756-49.5 48.447-73.724v-21.063h-17.904c-25.277 0-49.5 5.266-74.777 5.266H158.766c-50.553-5.266-80.043 15.797-103.213 58.978C39.755 753.82 19.745 778.042 5 807.532zm119.01-231.702c0 4.213 5.267 4.213 5.267 9.479H153.5c21.064-5.266 38.968-5.266 64.245-5.266h485.521c45.287 0 78.99-18.958 104.266-54.766 20.01-29.49 33.702-58.979 54.766-88.468 4.213-15.798 4.213-25.277-14.745-20.01-35.808 0-65.297 4.212-99 4.212H272.511c-25.277 0-54.766 0-68.458 25.277-29.49 40.02-54.766 85.308-80.042 129.542z" style="fill:#000;fill-opacity:1;fill-rule:nonzero;stroke:none;"/>
</svg>
