<svg xmlns="http://www.w3.org/2000/svg" viewBox="0 0 1000 1000"><path d="M500.496 5c272.968 0 494.507 221.54 494.507 495.002 0 270.495-218.572 495.001-495.001 495.001C229.506 995.003 5 776.431 5 500.002 5 229.506 223.572 5 500.496 5zM211.704 202.803c.989 4.945 116.704 398.573 173.077 588.463.99 3.956 2.968 8.901 9.89 8.901 24.726-2.967 50.44-2.967 77.144 0 6.923 0 8.9-4.945 9.89-11.868 55.385-185.934 109.78-370.88 165.165-558.793 3.956-8.9 5.934-14.835 8.901-26.703h-91.978c-7.912 0-8.901 1.978-11.868 9.89-43.418 148.055-104.638 353.276-118.583 397.386-3.56-15.132-84.758-286.22-114.824-395.408-3.957-9.89-8.902-11.868-16.814-11.868h-78.132zm221.54 407.474c.197.593.296.494.098-.198zm89.01 186.923h208.683v-95.934H574.672c-22.747 0-22.747 0-28.681 20.77-8.901 25.714-15.824 50.44-23.737 75.164zm45.495-152.308h163.188v-90.99c0-7.911-3.957-7.911-8.902-7.911H617.2c-20.77 0-20.77 0-26.704 22.747-7.912 25.715-14.835 49.45-22.747 76.154zm45.495-156.264h117.692v-95.934h-85.055c-1.978 0-4.945 2.967-6.923 8.9-7.912 27.693-15.824 53.407-23.736 81.1-1.978 2.967-1.978 4.945-1.978 5.934zM749.728 797.2h53.407v-95.934h-53.407zm0-152.308h53.407V547.97h-53.407zm0-156.264h53.407v-95.934h-53.407z"/></svg>