<svg xmlns="http://www.w3.org/2000/svg" width="1000" height="1000">
  <path d="M500.496 5C223.572 5 5 229.506 5 500.002c0 276.43 224.506 495.001 495.002 495.001 276.43 0 495.001-224.506 495.001-495.001C995.003 226.539 773.464 5 500.496 5zM154.341 755.662 357.09 211.704c2.967-6.923 6.923-6.923 9.89 0l199.78 543.958c.99 4.945-.989 6.923-5.934 6.923h-56.374c-2.967 0-6.923-.99-7.912-4.945l-41.538-117.693c-.99-3.956-4.946-4.945-7.913-4.945H274.012c-3.956 0-6.923.99-7.912 4.945L221.594 757.64c-1.978 3.956-3.956 4.945-7.912 4.945h-52.418c-5.934 0-7.912-2.967-6.923-6.923zm143.407-204.726c-2.967 5.934 0 8.901 4.945 8.901H417.42c5.934 0 7.912-2.967 6.923-7.912l-57.363-160.22c-1.978-4.945-7.912-4.945-9.89 0zm250.22 31.648c-.988-4.945.99-7.912 4.946-8.9l47.473-8.902c2.967-.989 5.934 0 7.912 4.945 18.791 47.473 39.56 75.165 82.088 75.165 38.571 0 73.187-31.648 73.187-75.165 0-101.868-188.902-77.143-188.902-205.715 0-53.407 37.583-92.967 97.913-110.77v-48.461c0-3.956 2.967-5.934 6.923-5.934h38.571c4.945 0 6.923 1.978 6.923 5.934v48.462c40.55 6.923 72.198 22.747 89.012 65.275 1.978 4.945 1.978 8.9-1.978 10.879l-42.528 24.725c-3.956 1.978-7.912.989-9.89-2.967-12.857-26.703-36.594-39.56-61.319-39.56-32.637 0-57.363 22.747-57.363 52.417 0 31.649 22.748 45.495 63.297 64.286 22.747 10.88 43.517 20.77 59.341 30.66 40.55 25.714 64.286 58.351 64.286 110.77 0 62.307-42.528 120.659-102.858 132.527v50.44c0 4.945-1.978 7.912-6.923 7.912h-38.571c-3.956 0-6.923-2.967-6.923-7.912V706.21c-79.121-16.813-109.78-48.462-124.616-123.627z" style="fill:#000;fill-opacity:1;fill-rule:nonzero;stroke:none;"/>
</svg>
