<svg xmlns="http://www.w3.org/2000/svg" viewBox="0 0 1000 1000"><path d="M995.003 414.97v66.267c0 32.13-23.093 32.13-62.251 32.13-31.126 0-27.11 8.032-27.11 30.122v33.134c0 16.065-3.012 25.101-15.06 25.101-12.05 0-19.078-9.036-19.078-21.085v-51.207c0-12.049-4.016-16.065-19.077-16.065h-27.11c-33.134 0-48.195-14.057-48.195-45.183v-49.199c0-14.057 7.029-23.093 20.082-23.093 11.044 0 15.06 9.036 15.06 23.093v45.183c0 11.045 6.025 17.07 18.074 17.07h112.454c12.049 0 17.07-5.021 17.07-17.07v-48.195c0-25.101 35.141-28.114 35.141-1.004zM5 412.96c0-23.093 235.954-24.097 235.954 0 0 14.057-10.04 15.06-29.118 15.06h-52.21c-16.066 0-18.074 3.013-18.074 16.066v121.491c0 25.102-5.02 36.146-19.077 36.146-12.049 0-15.06-11.044-15.06-36.146v-121.49c0-13.053-4.017-16.065-22.09-16.065H38.134c-22.09 0-33.134 0-33.134-15.061zm266.076 156.633v-128.52c0-32.13 13.053-45.182 43.175-45.182h130.527c31.126 0 44.179 11.045 44.179 39.158v24.098c0 48.195-9.037 57.231-57.231 57.231h-8.033c4.016 5.02 9.037 9.037 14.057 14.057 12.049 13.053 24.097 25.102 35.142 35.142 1.004 1.004 3.012 2.008 5.02 4.016 13.053 12.05 16.065 22.09 3.013 31.126-13.053 8.033-26.106-2.008-72.293-50.203-8.032-8.032-17.069-16.065-26.105-26.105-21.086-19.077-15.061-43.175 12.048-43.175h41.167c19.077 0 19.077-7.028 19.077-37.15 0-14.057-3.012-16.065-23.093-16.065H323.287c-15.06 0-16.065 1.004-16.065 16.065v125.507c0 42.17-36.146 43.175-36.146 0zm257.04-7.028c-4.017-42.17-4.017-86.35 0-127.516 0-20.08 18.072-39.158 38.154-39.158h131.532c21.085 0 39.158 18.073 39.158 39.158v127.516c0 27.11-16.065 42.17-44.179 42.17H566.27c-22.09 0-38.155-17.069-38.155-42.17zm32.13-9.037c0 12.05 6.024 17.07 22.089 17.07h106.43c11.045 0 18.073-7.029 18.073-17.07V444.087c0-10.04-8.032-16.065-22.09-16.065H582.336c-14.057 0-22.09 6.024-22.09 16.065z"/></svg>