<svg xmlns="http://www.w3.org/2000/svg" width="1000" height="1000">
  <path d="M872.163 58.536c0 3.81-19.053 86.372-26.674 116.857-91.453-68.59-194.337-77.481-299.762-40.646C436.49 166.5 365.36 292.249 359.01 367.19h444.563c-8.89 30.484-12.701 59.698-17.782 90.183H348.849v83.832h416.619c-5.08 31.754-11.432 57.158-15.242 86.372H362.82c6.35 85.102 58.428 170.204 133.369 214.66 118.127 64.78 233.713 59.699 349.3-17.782v120.667c0 5.08-3.811 10.161-8.892 15.242-85.102 31.754-180.366 43.186-260.387 27.944-129.558-20.323-227.362-85.102-287.06-196.878-25.404-48.267-43.187-99.074-55.889-151.151-3.81-7.621-3.81-12.702-16.512-12.702h-87.642c0-2.54 1.27-2.54 1.27-6.351 7.621-22.863 10.161-41.916 17.782-66.05 2.54-13.971 5.081-17.782 16.513-17.782h52.077v-80.021h-88.912c0-5.081 2.54-8.892 2.54-10.162 7.621-22.863 10.161-45.726 17.782-68.59 2.54-6.35 5.081-11.431 12.702-11.431h66.05c0-6.351 2.54-12.702 2.54-15.242C270.098 170.312 378.063 59.806 555.888 17.89 653.692-7.513 781.98 3.918 872.163 58.536z" style="fill:#000;fill-opacity:1;fill-rule:nonzero;stroke:none;"/>
</svg>
