<?xml version="1.0" encoding="utf-8"?>
<!-- Generator: Adobe Illustrator 26.0.1, SVG Export Plug-In . SVG Version: 6.00 Build 0)  -->
<svg version="1.1" id="Layer_1" xmlns="http://www.w3.org/2000/svg" xmlns:xlink="http://www.w3.org/1999/xlink" x="0px" y="0px"
	 viewBox="0 0 1000 1000" style="enable-background:new 0 0 1000 1000;" xml:space="preserve">
<path d="M704.9,475.1h-35.4v-65.8h35.4c4.2,0,8.2,0.8,12.1,2.5c3.8,1.6,7,4.1,9.5,7.4c2.5,3.3,4.1,6.9,5.1,11
	c0.9,4.1,1.4,8.1,1.4,12.1c0,4.2-0.5,8.3-1.4,12.3c-0.9,4-2.6,7.6-5.1,11c-2.5,3.4-5.6,5.8-9.5,7.4
	C713.1,474.3,709.1,475.1,704.9,475.1z M537,569.9c1.5-4.7,2.3-9.5,2.3-14.4V442.5c0-4.9-0.8-9.7-2.3-14.5
	c-1.5-4.8-4.1-8.9-7.7-12.3c-3.6-3.4-7.8-5.8-12.6-7.2c-4.8-1.4-9.6-2.1-14.5-2.1c-4.9,0-9.7,0.7-14.5,2.1c-4.8,1.4-9,3.8-12.6,7.2
	c-3.6,3.4-6.2,7.5-7.7,12.3c-1.5,4.8-2.3,9.6-2.3,14.5v113.1c0,4.9,0.8,9.7,2.3,14.4c1.5,4.7,4.1,8.8,7.7,12.3
	c3.6,3.5,7.8,6,12.6,7.4c4.8,1.4,9.6,2.1,14.5,2.1c4.9,0,9.7-0.7,14.5-2.1c4.8-1.4,9-3.9,12.6-7.4
	C532.9,578.7,535.5,574.6,537,569.9z M733.2,523.7c-3.7-3.5-8.1-6-13.1-7.4c-5-1.4-10.1-2.1-15.2-2.1h-35.4v74.6h35.4
	c5.1,0,10.2-0.7,15.2-2.1c5-1.4,9.4-3.9,13.1-7.5c3.7-3.6,6.4-7.9,8.1-12.8c1.6-4.9,2.5-9.9,2.5-15.1c0-5.1-0.8-10.2-2.5-15.1
	C739.6,531.4,737,527.2,733.2,523.7z M995.3,500c0,273.4-221.6,495-495,495S5.3,773.4,5.3,500S226.9,5,500.3,5
	S995.3,226.6,995.3,500z M586.2,142.6c46.4,42.4,78.8,101.7,96.7,144.7h113.9L650.7,142.6H586.2z M750.4,493.3
	c17-11,25.6-28,25.6-51.1c0-7.7-0.8-15.3-2.5-22.8c-1.6-7.5-4.6-14.5-8.8-21c-4.2-6.5-9.5-12-15.9-16.3c-6.4-4.3-13.4-7.4-21-9.1
	c-7.6-1.8-15.2-2.6-22.9-2.6h-78.4v257.3h78.4c8.6,0,17.1-0.8,25.4-2.5c8.3-1.6,16.2-4.6,23.6-8.9c7.5-4.3,13.8-9.9,18.9-16.8
	c5.1-6.9,8.8-14.5,10.8-22.8c2.1-8.3,3.2-16.7,3.2-25.4C786.8,523.6,774.6,504.2,750.4,493.3z M515.4,287.3h140.4
	c-32.7-77.9-85.8-128.9-108.2-144.7h-32.2V287.3z M348.5,287.3h138.9V142.6h-32.9C393.2,186.7,358.3,257.4,348.5,287.3z
	 M263.5,555.6V442.5c0-4.9,0.8-9.7,2.3-14.4c1.5-4.7,4-8.8,7.5-12.3c3.5-3.5,7.6-6,12.3-7.4c4.7-1.4,9.5-2.1,14.4-2.1
	c5.6,0,11.2,0.9,16.8,2.8c5.6,1.9,10.2,5.2,13.7,10c3.5,4.8,5.3,10.1,5.3,15.9h43.1c0-9.8-2-19.3-6.1-28.4
	c-4.1-9.1-10-16.7-17.7-22.9c-7.7-6.2-16.3-10.4-25.9-12.8c-9.6-2.3-19.3-3.5-29.1-3.5c-7,0-13.9,0.5-20.8,1.6
	c-6.9,1.1-13.5,3-19.8,6c-6.3,2.9-12,6.7-17.2,11.4c-5.1,4.7-9.4,10-12.8,16.1c-3.4,6.1-5.7,12.5-7,19.3c-1.3,6.8-1.9,13.7-1.9,20.7
	v113.1c0,7,0.6,13.9,1.9,20.7c1.3,6.8,3.6,13.2,7,19.3c3.4,6.1,7.6,11.4,12.8,16.1c5.1,4.7,10.9,8.5,17.2,11.4
	c6.3,2.9,12.9,4.9,19.8,6c6.9,1,13.8,1.6,20.8,1.6c9.8,0,19.5-1.2,29.1-3.5c9.6-2.3,18.2-6.6,25.9-12.8c7.7-6.2,13.6-13.8,17.7-22.9
	c4.1-9.1,6.1-18.6,6.1-28.4h-43.1c0,5.6-1.8,10.9-5.3,15.8c-3.5,4.9-8.1,8.3-13.7,10.2c-5.6,1.9-11.2,2.8-16.8,2.8
	c-4.9,0-9.7-0.7-14.4-2.1c-4.7-1.4-8.8-3.9-12.3-7.4c-3.5-3.5-6-7.6-7.5-12.3C264.2,565.3,263.5,560.5,263.5,555.6z M203.8,287.3
	h117.4c15.8-57.3,77.4-133.9,96-144.7h-68.8L203.8,287.3z M414.4,857.4C368,815,335.6,755.7,317.7,712.7H203.8l146.1,144.7H414.4z
	 M485.3,712.7H344.9c32.7,77.9,85.7,128.9,108.2,144.7h32.2V712.7z M502.2,630.5c8.4,0,16.7-0.8,24.9-2.5c8.2-1.6,15.9-4.6,23.1-8.9
	c7.2-4.3,13.4-9.8,18.6-16.5c5.1-6.7,8.7-14.1,10.7-22.2c2-8.2,3-16.5,3-24.9V442.5c0-8.4-1-16.7-3-24.9c-2-8.2-5.5-15.6-10.7-22.2
	c-5.1-6.7-11.3-12.1-18.6-16.5c-7.2-4.3-14.9-7.3-23.1-8.9c-8.2-1.6-16.5-2.5-24.9-2.5c-8.4,0-16.7,0.8-24.9,2.5
	c-8.2,1.6-15.9,4.6-23.1,8.9c-7.2,4.3-13.4,9.8-18.6,16.5c-5.1,6.7-8.7,14.1-10.7,22.2c-2,8.2-3,16.5-3,24.9v113.1
	c0,8.4,1,16.7,3,24.9c2,8.2,5.5,15.6,10.7,22.2c5.1,6.7,11.3,12.1,18.6,16.5c7.2,4.3,14.9,7.3,23.1,8.9
	C485.5,629.7,493.8,630.5,502.2,630.5z M652.1,712.7H513.2v144.7h32.9C607.4,813.3,642.3,742.6,652.1,712.7z M796.9,712.7H679.4
	c-15.8,57.3-77.4,133.9-96,144.7h68.8L796.9,712.7z"/>
</svg>
