<svg xmlns="http://www.w3.org/2000/svg" viewBox="0 0 1000 1000"><path d="M603.354 393.683 501.485 495.55 397.64 390.716c13.154-13.154 28.681-23.242 46.483-30.165 17.803-6.923 36.297-10.385 55.385-10.385 19.78 0 38.77 3.758 56.868 11.374 18.1 7.615 33.825 18.296 46.979 32.143zM5 500.002c0-89.308 22.747-172.583 68.242-249.726 43.517-74.473 102.56-133.814 177.034-178.023C327.419 27.45 410.793 5 500.496 5 590.2 5 673.277 27.45 749.728 72.253c75.165 44.209 134.506 103.55 178.022 178.023 44.803 77.143 67.253 160.418 67.253 249.726 0 89.308-22.45 172.583-67.253 249.726C884.234 824.2 824.893 883.54 749.728 927.75c-76.451 44.803-159.528 67.253-249.232 67.253-89.703 0-173.077-22.45-250.22-67.253-74.473-44.209-133.517-103.55-177.034-178.022C27.747 672.585 5 589.31 5 500.002zm99.89-41.044 1.978 7.912c.693 4.648 3.264 10.879 7.913 18.79 7.912 14.54 18.79 27.99 32.637 40.55 25.022 22.451 58.055 39.561 98.901 51.43 30.957 9.197 65.572 15.131 103.847 17.802l13.846.989-7.912-11.869c-19.088-28.978-28.681-61.022-28.681-95.934 0-7.22.296-14.835.989-22.747l1.978-6.923zm245.276 35.604c0 27.692 6.725 53.11 20.275 76.154 13.55 23.044 31.846 41.539 54.89 55.385 23.044 13.846 48.165 20.77 75.165 20.77 27 0 52.121-6.726 75.165-20.276 23.044-13.549 41.341-31.846 54.89-54.89 13.55-23.044 20.275-48.462 20.275-76.154 0-27.692-7.22-53.703-21.758-78.132l-2.967-4.945-10.88 11.868c9.891 15.824 11.869 32.34 5.935 49.45-5.242 14.54-15.033 25.023-29.176 31.65-14.143 6.626-28.484 7.219-43.022 1.977-4.648-1.285-8.605-2.967-11.868-4.945l-36.594 36.594-31.648-32.638c-7.912 5.242-16.319 8.407-25.22 9.396-8.901.989-17.605.198-26.209-2.473-15.132-5.934-26.209-16.022-33.132-30.165-6.923-14.143-7.714-28.879-2.473-44.01 1.286-3.957 3.66-8.21 6.924-12.858l-13.847-13.846-2.967 4.945c-14.538 23.736-21.758 49.45-21.758 77.143zm26.703-102.857L501.485 516.32l122.638-122.637-4.945-3.956c-15.132-17.11-33.132-30.363-53.901-39.561-20.77-9.198-42.726-13.846-65.77-13.846-22.45 0-43.813 4.253-64.286 12.857-20.472 8.604-38.275 21.066-53.407 37.583zm22.748 70.22c0 8.604 2.967 15.824 8.9 21.758 5.935 5.934 12.66 8.901 20.276 8.901 7.615 0 14.34-1.978 20.274-5.934l-43.516-43.517c-3.956 5.934-5.934 12.165-5.934 18.792zm156.264 21.758c5.242 3.264 10.88 4.945 16.813 4.945 8.605 0 15.824-2.967 21.759-8.901 5.934-5.934 8.9-13.154 8.9-21.758.693-5.935-.988-11.572-4.944-16.814zm81.1 112.748 13.845-.99c38.275-2.67 72.89-8.604 103.847-17.802 40.846-11.868 73.88-28.978 98.901-51.428 13.846-12.561 24.726-26.012 32.638-40.55 4.648-7.912 7.22-14.143 7.912-18.791l1.978-7.912H670.607l.989 6.923c1.285 7.912 1.978 15.527 1.978 22.747 0 34.912-9.594 66.56-28.682 94.945z"/></svg>