<svg xmlns="http://www.w3.org/2000/svg" width="1000" height="1000">
  <path d="M5 387.986c1.087-27.168 3.26-54.336 8.694-81.504 9.78 30.428 24.994 54.336 45.642 71.723 27.168 22.821 63.03 34.775 108.672 34.775 39.122 0 78.244-6.52 116.28-18.474 31.514-9.78 63.03-23.908 92.37-43.469 22.822-15.214 46.73-30.428 67.378-51.076 14.127-14.127 28.254-28.255 40.208-42.382l14.128-18.474-13.04-6.52 99.977-135.84 8.694 170.615-16.3-3.26-7.608 9.78c-5.433 7.607-11.954 16.3-18.474 24.995-10.867 13.04-21.734 24.994-32.602 36.948a421.579 421.579 0 0 1-45.642 42.382c-18.474 15.214-36.948 29.342-57.596 41.296-22.821 13.04-46.73 27.168-71.724 36.948-27.168 10.867-55.423 19.561-83.677 26.082-31.515 6.52-64.117 8.693-97.805 8.693-83.678 0-135.84-33.688-157.575-103.238zm3.26 66.29c36.949 45.642 77.157 71.723 120.626 79.33 38.036 6.52 82.591 6.52 131.494-2.173 66.29-11.954 130.406-38.035 190.176-79.33 31.515-21.735 60.856-43.47 86.938-69.55 21.734-21.735 41.295-42.383 58.683-64.117 13.04-16.301 22.82-32.602 32.601-48.903l9.78-18.474-13.04-6.52 99.979-135.84 8.693 169.528-17.387-3.26-8.694 16.3c-7.607 14.128-15.214 29.342-26.081 45.643-15.214 21.734-31.515 43.469-49.99 65.203-22.82 27.168-48.902 51.076-77.157 76.07-40.208 34.776-85.85 64.117-136.927 86.938-51.076 22.822-102.152 39.122-154.314 45.643-53.25 6.52-101.065 5.433-144.534-4.347-36.949-8.694-68.464-30.428-94.545-64.117-8.694-29.341-14.127-58.683-16.3-88.024zm30.428 128.233c40.21 43.469 88.025 68.463 142.36 74.984 53.25 6.52 105.413 2.173 155.402-11.954 48.903-14.128 107.586-41.296 174.962-81.504 30.429-18.475 59.77-38.036 85.851-59.77 20.648-17.388 39.122-34.775 56.51-52.163 11.954-11.954 22.821-24.994 30.428-36.948l9.78-14.128-16.3-7.607 99.978-139.1 8.694 172.789-14.127-4.347-13.041 19.56c-10.867 16.302-24.995 32.602-39.122 47.817-20.648 21.734-39.122 43.468-58.683 61.943-26.081 23.908-51.076 43.469-76.07 58.683-67.377 41.295-126.06 72.81-177.136 91.284-70.637 24.995-139.1 34.775-206.477 24.995-46.73-6.52-88.025-28.255-126.06-68.464-14.127-24.994-26.081-49.989-36.949-76.07zm81.505 139.1c52.162 29.342 106.498 44.556 161.921 44.556 101.065 0 207.564-38.035 319.496-113.02 29.342-19.56 58.683-42.381 89.112-71.723 21.734-20.648 43.468-42.382 64.116-66.29l23.908-29.341-17.388-6.52 101.066-135.84 7.607 172.788-18.475-7.607-24.994 31.515c-20.648 24.994-42.382 49.989-65.204 72.81-33.688 33.689-66.29 60.857-99.978 83.678-60.856 41.295-116.28 72.81-167.355 92.371-59.77 22.821-122.8 32.602-191.263 32.602-36.949 0-77.157-11.954-119.54-35.862-22.82-19.561-43.468-41.296-63.03-64.117zm113.019 101.065c46.729 14.128 92.371 20.648 135.84 20.648 63.03 0 130.406-17.387 204.304-53.25 60.856-29.34 116.279-67.376 168.441-110.845 27.168-22.821 52.163-48.902 76.071-78.244 18.474-22.821 36.949-46.729 52.163-72.81 10.867-18.474 21.734-36.949 31.515-54.336l8.693-21.735-22.82-8.693 98.89-135.84 8.695 169.528-20.648-5.434-14.127 28.255c-13.041 21.734-27.169 44.556-42.383 67.377-21.734 31.515-44.555 60.856-69.55 88.024-30.428 33.689-63.03 61.943-96.718 85.851-129.32 91.285-242.339 139.1-342.317 139.1-26.082 0-55.423-4.346-86.938-11.953-31.515-11.954-60.857-28.255-89.111-45.643zm164.095 68.464c81.504 3.26 156.488-13.04 226.038-44.556 35.862-16.3 68.463-32.601 97.805-51.076 22.82-14.127 43.469-29.341 61.943-43.468 13.04-9.781 23.908-20.648 32.602-29.342 3.26-4.347 6.52-7.607 9.78-10.867l-8.694-6.52 48.903-42.383-4.347 68.464-6.52-4.347-17.388 16.3c-14.127 13.041-28.255 27.169-43.469 39.123-22.821 18.474-45.642 33.688-67.377 48.902-27.168 18.474-56.51 30.428-83.677 42.382-39.122 17.388-81.504 24.995-124.973 29.342-40.209 1.087-80.418-3.26-120.626-11.954z" style="fill:#000;fill-opacity:1;fill-rule:nonzero;stroke:none;"/>
</svg>
