<svg xmlns="http://www.w3.org/2000/svg" viewBox="0 0 1000 1000"><path d="M469.745 972.554V745.775c0-61.42 25.986-113.39 72.05-155.91 0-1.182 2.362-4.725 4.725-4.725 8.268-5.906 12.992-14.174 10.63-28.347-8.268-31.891 24.804-62.6 59.057-56.695 5.906 2.362 12.993 0 15.355-4.725 27.166-36.615 47.245-76.774 53.151-121.657 16.536-106.303-47.245-200.794-151.186-225.598-5.906-2.362-9.449 0-11.811 5.906-21.26 30.71-57.876 31.89-82.68 4.724-4.725-4.724-9.45-4.724-14.174-3.543-75.593 30.71-118.114 83.86-129.925 164.178-8.268 77.956 23.622 138.194 86.223 184.258 2.362 3.544 3.543 3.544 5.906 4.725 18.898 10.63 33.072 10.63 46.064-1.181 12.993-15.355 14.174-38.978 1.181-55.514-9.449-14.174-22.441-27.166-33.072-40.159-29.528-36.615-36.615-76.774-20.08-119.295 16.537-43.702 47.247-69.687 93.311-75.593 51.97-8.268 101.578 17.717 124.02 62.6 23.623 44.884 14.174 100.397-18.898 138.194-8.268 7.087-12.993 14.174-20.08 21.26-7.087 9.45-20.08 9.45-29.528 2.363-8.268-8.268-10.63-21.26-2.363-29.529 5.906-9.449 12.993-15.355 21.26-23.623 22.443-25.985 28.348-61.419 12.993-90.947-17.717-29.529-51.97-44.884-80.317-38.978-36.615 5.906-61.42 31.89-66.144 66.144-3.543 23.623 3.543 46.064 18.898 63.781 11.812 11.812 22.442 23.623 31.891 35.435 33.072 35.434 24.804 95.672-15.355 122.838-24.804 16.536-49.608 16.536-75.593 3.544-28.347-10.63-48.427-33.072-68.506-55.514-42.521-51.97-60.238-109.846-55.514-177.171 3.544-50.79 25.985-94.491 57.876-132.288 31.891-36.615 69.688-60.238 115.752-73.23 3.544-1.182 7.087-4.725 8.268-9.45 22.442-31.89 62.6-33.072 86.223-4.724 3.544 3.543 8.268 7.087 12.993 7.087 68.506 14.173 124.02 49.608 160.635 108.665 31.891 49.608 42.521 103.94 35.434 161.816-8.268 57.876-33.072 107.484-67.325 151.186-4.724 4.725-4.724 10.63-4.724 16.536 4.724 33.072-18.898 59.057-51.97 59.057-7.087-3.543-14.174 1.181-20.08 5.906-34.253 29.528-61.42 64.962-69.687 109.846-1.181 12.992-2.362 23.623-2.362 36.615v214.968c0 14.174-7.087 23.623-18.899 25.985-14.173 0-23.623-8.268-23.623-22.442zM152.02 338.282c1.18-75.593 25.985-144.1 72.05-205.519C277.22 66.619 346.908 25.279 431.95 11.105 535.89-7.793 630.382 17.011 711.88 87.88c37.797 30.71 64.963 70.868 87.405 115.751 1.181 2.363 4.724 5.906 9.449 8.268 36.615 7.087 55.514 57.876 21.26 87.405-2.362 2.362-3.543 7.087-2.362 10.63 8.268 82.68-15.355 161.817-61.42 232.685-18.897 28.347-38.977 59.057-64.962 81.499-30.71 28.347-48.427 66.144-53.151 106.302-1.181 28.348-1.181 55.514-3.544 85.043 0 15.354-14.173 24.804-28.347 20.079-9.45-5.906-12.993-12.993-12.993-22.442v-24.804c0-43.702 3.544-83.86 18.899-122.838 9.449-27.167 25.985-49.608 47.245-68.507 47.246-47.245 82.68-100.397 102.76-164.178 12.992-35.434 15.354-72.05 14.173-111.027 0-5.906-3.543-11.812-11.811-17.718-27.166-11.81-35.434-44.883-17.717-69.687 3.543-8.268 2.362-15.355 0-21.26-27.166-54.333-67.325-95.673-118.114-126.383-108.665-64.962-249.221-48.426-343.712 34.254-55.514 50.789-89.767 113.39-99.216 188.982-4.725 54.333 3.543 105.122 25.985 154.73 1.181 4.724 4.724 8.268 10.63 7.087 31.89-2.363 62.6 35.434 47.246 72.05-3.544 5.905-2.363 9.448 1.18 12.992 23.624 36.615 48.428 73.23 73.232 107.484 21.26 33.071 30.71 67.325 33.072 105.121V813.1c0 14.174-8.268 23.623-21.26 23.623-11.812 0-21.261-10.63-21.261-24.804 0-21.26-1.182-42.52-3.544-62.6 0-25.985-10.63-44.884-24.804-64.963-24.804-34.253-48.427-68.506-70.868-103.94-4.725-4.725-9.45-5.906-14.174-9.45-35.434-1.18-57.876-35.434-44.883-68.506 2.362-3.543 2.362-8.268 0-12.992-22.442-47.246-34.253-98.035-34.253-151.186zm60.238 184.258c0 12.992 7.087 20.079 20.08 20.079 12.992 1.181 22.44-7.087 22.44-20.08 0-10.63-9.448-22.441-21.26-22.441-11.811 0-21.26 9.449-21.26 22.442zm243.315-394.502c0 10.63 10.63 20.08 22.441 20.08 12.993 0 21.261-7.087 21.261-20.08 0-12.992-8.268-21.26-21.26-21.26-11.812 0-22.442 8.268-22.442 21.26zm128.744 421.668c0 12.992 9.45 21.26 22.442 21.26 10.63 0 22.442-8.268 22.442-21.26 0-12.993-9.45-22.442-22.442-22.442-12.993 2.362-22.442 9.45-22.442 22.442zM774.48 261.507c2.362 12.993 11.811 21.26 24.804 21.26 12.992-2.361 18.898-8.267 18.898-21.26 3.544-11.811-8.268-22.441-21.26-22.441-10.63 0-22.442 10.63-22.442 22.441z"/></svg>