<svg xmlns="http://www.w3.org/2000/svg" width="1000" height="1000">
  <path d="M749.48 72.32c74.547 43.56 133.947 102.663 178.2 177.21C972.527 326.75 995 410.207 995 500s-22.473 172.953-67.32 249.48c-44.253 74.547-103.653 133.947-178.2 178.2C672.953 972.527 589.793 995 500 995c-89.793 0-173.25-22.473-250.47-67.32-74.547-44.253-133.65-103.653-177.21-178.2C27.473 672.953 5 589.793 5 500c0-89.793 22.473-173.25 67.32-250.47 43.56-74.547 102.663-133.65 177.21-177.21C326.75 27.473 410.207 5 500 5s172.953 22.473 249.48 67.32zM199.04 432.68c-.693 18.513.297 37.323 2.97 56.43 5.94 34.947 17.82 59.4 35.64 73.26 27.72 20.493 145.827 92.367 354.42 215.82v-346.5l-61.38 36.63V628.7zm19.8-12.87 292.05 173.25v-78.21l-134.64-77.22 338.58-191.07c-5.94-5.247-14.157-10.89-24.75-16.83-21.087-11.88-43.56-18.513-67.32-19.8-32.967-1.287-66.33 8.217-99.99 28.71zm198.99 17.82 63.36 35.64 131.67-77.22v394.02c18.513-9.9 36.333-22.77 53.46-38.61 32.373-30.987 48.51-63.36 48.51-97.02V270.32z" style="fill:#000;fill-opacity:1;fill-rule:nonzero;stroke:n"/>
</svg>
