<svg xmlns="http://www.w3.org/2000/svg" viewBox="0 0 1000 1000"><path d="M755.807 921.292c-97.658 62.146-172.487 71.024-295.511 71.024-115.415-8.878-214.341-54.536-300.585-130.633-81.17-78.634-130.634-173.756-148.39-284.097C-11.508 427.928 27.81 294.758 124.2 179.343 200.296 91.831 295.418 37.295 408.296 14.466c32.975-6.342 68.487-7.61 102.731-6.342 32.976 0 69.756 2.537 102.731 12.683 22.83 6.342 39.317 26.634 39.317 49.464 0 34.243-24.097 58.34-48.195 54.536-13.95 0-24.097-3.805-36.78-5.073-81.17-13.951-159.804-3.805-235.902 31.707-81.17 39.317-139.511 98.927-181.365 178.829-19.024 43.121-30.439 87.512-38.049 131.902-7.61 74.829 8.879 147.121 41.854 213.072 38.049 74.83 92.585 126.829 162.34 167.414 44.391 22.83 91.318 36.78 139.513 41.854 106.536 12.683 206.73-16.488 287.901-84.976 74.83-60.877 120.488-139.511 136.975-232.096 10.147-53.268 8.878-105.268-5.073-152.195-8.878-38.049 19.024-72.292 52-68.488 22.83 0 44.39 13.952 50.732 36.78 5.073 21.562 7.61 45.66 12.682 67.22 11.415 72.293-7.61 178.829-45.658 262.536-44.39 87.512-107.804 157.268-190.243 208zM315.71 500.22c0-48.195 16.487-90.048 50.731-125.56 31.707-34.244 69.756-52 115.414-55.805 22.83-2.537 44.39 0 64.683 6.342 82.439 22.829 162.341-29.171 177.56-112.878 8.879-53.268 16.488-95.122 76.098-95.122 41.853-1.268 76.097 26.634 82.439 65.951 8.878 40.585-24.098 83.707-67.22 90.049-15.22 3.805-29.17 3.805-44.39 7.61-50.731 13.95-90.048 59.609-98.926 114.145-1.269 22.83 0 39.317 5.073 62.147 8.878 39.316 5.073 77.365-10.146 114.145-26.635 62.147-72.293 97.659-139.512 110.342-55.805 8.878-104-6.342-150.927-43.122-36.78-35.512-60.877-86.244-60.877-138.244z"/></svg>