<svg xmlns="http://www.w3.org/2000/svg" width="1000" height="1000">
  <path d="M500.496 5C223.572 5 5 229.506 5 500.002c0 276.43 224.506 495.001 495.002 495.001 276.43 0 495.001-224.506 495.001-495.001C995.003 226.539 773.464 5 500.496 5zM95 620.167v-99.89c-1.978-14.836 4.945-22.748 16.814-28.682 25.714-14.835 52.417-28.681 76.154-44.506 7.912-3.956 12.857-15.824 13.846-23.736 1.978-28.681 0-56.374 1.978-85.055 0-7.912 5.934-19.78 11.868-22.748 29.67-20.769 59.34-37.582 89.011-53.406 5.934-2.967 16.814-1.978 23.737 0 30.66 15.824 58.352 32.637 86.044 51.428 7.912 4.946 14.835 16.814 14.835 26.704 2.967 25.714.99 52.418.99 79.121-.99 16.813 3.955 27.692 18.79 36.594 64.286 39.56 62.308 39.56 124.616 0 12.857-7.913 16.813-15.825 16.813-29.67-.989-28.682 0-58.353 0-86.045-.989-13.846 4.946-22.748 17.803-29.67 27.692-15.825 54.396-32.638 84.066-46.484 5.934-3.956 16.813-3.956 24.725 0 27.693 13.846 54.396 30.66 81.1 45.494 14.835 7.912 18.79 17.803 18.79 32.638-1.977 30.66-1.977 58.352 0 89.011 0 6.923 3.957 16.813 8.902 20.77 28.681 18.79 59.34 34.615 89.011 49.45V636.98l-97.912 56.374c-10.88 5.934-18.792 6.923-29.67 0-27.693-16.813-55.385-32.638-84.067-48.462-10.879-5.934-15.824-13.846-13.846-25.714 0-31.649.989-61.319-1.978-91.978 0-9.89-5.934-21.759-13.846-25.715-59.341-37.582-60.33-37.582-118.682-.989-6.923 3.956-11.868 7.912-22.747 13.846 25.714 14.836 48.461 29.67 71.209 42.528 15.824 7.912 21.758 16.813 20.769 33.626-1.978 29.67.989 61.32 0 91.979-1.978 8.9-6.923 18.791-14.835 24.725-27.693 17.802-55.385 32.638-85.055 49.45-5.935 3.957-18.792 3.957-26.704 0-30.66-16.812-59.34-32.637-87.033-51.428-5.934-1.978-10.88-12.857-12.857-20.77-.99-33.626-.99-67.252 1.978-101.868 0-7.912 7.912-17.802 13.846-22.747 23.736-15.824 48.462-29.67 76.154-46.484-26.703-16.813-49.45-31.648-75.165-45.494-3.956-1.978-9.89 0-14.835 2.967-23.737 12.857-48.462 25.714-70.22 41.538-5.934 3.956-12.857 14.836-12.857 21.759a1081.852 1081.852 0 0 0 0 80.11c0 15.824-3.957 25.714-17.803 32.637-27.692 15.824-55.385 32.638-83.077 46.484-5.934 4.945-17.802 4.945-24.725 0-26.704-13.846-53.407-29.67-81.1-45.495-10.879-4.945-16.813-12.857-14.835-27.692zm22.748-48.462c-1.978 35.605 7.912 55.385 40.55 73.187 32.637 20.77 54.395 21.759 87.032 1.978 32.638-19.78 53.407-37.582 42.528-68.242-1.978-69.23 8.901-49.45-44.506-84.066-30.659-21.758-52.417-20.77-82.088 0-51.428 34.616-38.571 13.846-43.516 77.143zm7.912 43.517V527.2c11.868 18.79 11.868 71.209 0 88.022zm73.187 35.604c26.703-14.835 52.418-28.681 77.143-43.516 1.978 2.967 3.956 4.945 4.945 7.912-25.714 15.824-51.429 29.67-77.143 44.505-1.978-3.956-2.967-6.923-4.945-8.9zm0-161.209c1.978-1.978 4.945-5.934 5.934-8.901 25.714 14.835 50.44 30.66 76.154 44.506-.989 3.956-2.967 5.934-4.945 8.9-25.714-13.846-50.44-29.67-77.143-44.505zm30.66-100.88c-2.968 35.605 8.9 57.363 41.538 72.199 57.363 28.681 33.626 28.681 88.022 0 32.638-14.836 53.407-36.594 42.528-66.264-1.978-68.242 7.912-48.462-42.528-84.067-32.637-20.769-55.385-20.769-87.033 1.978-49.45 33.627-38.572 12.858-42.528 76.155zm9.89 38.572v-79.121c.988 0 2.966-1.978 3.955-1.978v81.1zm71.208-121.649c2.967-2.967 4.945-4.945 5.935-7.912 25.714 14.835 51.428 28.682 75.165 43.517 0 1.978-2.967 6.923-4.945 8.901-24.726-14.835-49.451-28.681-76.155-44.506zm1.978 160.22c24.726-13.846 51.43-27.692 76.155-41.538 2.967 2.967 2.967 5.934 4.945 7.912-24.726 14.835-50.44 28.682-75.165 43.517-2.968-2.967-4.946-6.923-5.935-9.89zm111.76 168.133c-1.979 37.583 10.878 57.363 43.516 76.154 31.648 18.791 54.395 17.802 86.044-.989 30.66-17.802 52.418-36.593 41.539-69.23 0-55.386-1.978-54.397-43.517-82.089-29.67-20.77-52.418-20.77-84.066 0-49.451 34.615-38.572 13.846-43.517 76.154zm7.911 40.55v-82.089c12.857 11.869 13.846 65.275 0 82.089zm73.187 38.571c26.704-13.846 52.418-28.681 79.121-43.516 1.978 2.967 1.978 5.934 4.945 7.912-26.703 15.824-51.428 30.66-78.132 45.494-2.967-2.967-3.956-5.934-5.934-9.89zm0-159.231c2.967-3.956 4.945-6.923 5.934-9.89 26.704 15.824 51.43 29.67 78.132 45.494-.989 2.967-2.967 4.945-4.945 7.913-26.703-14.836-52.417-28.682-79.12-43.517zm115.715-167.144c-12.857 39.561 8.901 57.363 39.56 77.144 31.649 17.802 56.374 17.802 87.034-.99 14.736-8.703 24.923-17.9 31.648-28.879-23.835 14.341-49.55 29.473-75.165 42.726-2.967-3.956-3.956-5.934-4.945-8.901 25.714-15.825 52.418-29.67 78.132-44.506 1.583 2.374 3.165 4.055 4.253 6.725 6.132-11.769 8.604-25.714 8.604-43.319 0-17.307-2.175-31.153-8.11-42.824-.989 2.77-1.978 5.44-4.747 7.22-25.714-13.846-52.418-29.67-78.132-45.495 1.978-2.967 3.956-4.945 4.945-7.912 26.407 14.638 52.813 29.374 77.242 44.901-6.626-12.362-17.604-22.45-34.714-32.044-31.649-17.802-54.396-20.769-86.045-.989-29.67 19.78-52.417 36.594-39.56 77.144zm4.945 41.54v-80.111h6.923v79.121c-2.967 0-4.945 0-6.923.99zm90.99 143.406c-2.968 37.583 7.911 58.352 40.549 73.187 55.385 27.693 32.637 29.67 88.022 0 31.649-16.813 50.44-34.615 37.583-73.187 14.835-41.538-8.901-59.34-41.539-79.121-29.67-18.791-51.429-18.791-81.1 1.978-51.428 34.616-40.549 13.846-43.516 77.143zm13.845 38.572c-10.879-5.934-13.846-60.33 0-80.11zm48.489-176.26a96.538 96.538 0 0 0 2.248-3.939c.297.693.494 1.385.692 2.176zm2.075-91.327.865.553-.198.692c-.197-.395-.494-.791-.692-1.286zm16.69 308.136c24.725-14.835 51.428-28.681 76.154-43.516 2.967 2.967 3.956 4.945 4.945 7.912-25.715 15.824-50.44 29.67-77.143 44.505-2.968-1.978-3.957-6.923-3.957-8.9zm0-161.209c.988-1.978 2.967-5.934 3.956-8.901 28.68 15.824 53.406 32.637 80.11 48.462-1.978 1.978-2.967 4.945-4.945 7.912-26.704-15.825-52.418-31.649-79.122-47.473z" style="fill:#000;fill-opacity:1;fill-rule:nonzero;stroke:none;"/>
</svg>
