<svg xmlns="http://www.w3.org/2000/svg" viewBox="0 0 1000 1000"><path d="M746.07 709.302H571.818c0-10.014 4.006-22.032 5.008-31.045 29.042-123.178 57.082-244.352 82.118-366.529 4.006-15.022 12.018-21.03 25.036-21.03 51.074 0 101.146 0 150.217 4.006 22.032 0 47.068 2.002 66.096 11.015 36.052 9.013 60.086 34.05 63.09 71.103 0 10.015 9.014 13.019 19.028 13.019 22.032 0 16.023 52.075-25.036 47.068-63.091 48.07 15.022-13.019-64.092 49.07l4.005 4.006c24.035 12.018 42.061 29.042 51.074 59.086 4.006 6.008 28.04 7.01 34.05 13.019 7.01 7.01-7.01 37.053-19.028 37.053-13.019 2.003-20.03 11.016-27.04 20.029-21.03 59.085-110.158 90.13-190.274 90.13zM5 376.822c0-29.042 12.017-86.124 32.046-86.124h75.109c11.016 0 18.026 4.006 13.018 18.026-2.002 18.026-5.007 31.045-10.014 50.072-3.004 10.015-11.016 18.026-25.036 18.026zm53.077 332.48V687.27c29.042-125.18 62.09-250.361 90.13-375.542 0-17.024 11.016-21.03 22.032-21.03h296.428c17.024 0 21.03 4.006 17.024 21.03-32.046 133.192-59.085 265.383-93.134 397.574h-95.138c0-10.014 0-18.026 3.005-28.04 22.031-94.136 44.063-191.276 64.092-282.408 4.006-22.032 4.006-22.032-18.026-22.032-75.108 0-102.147-10.014-107.155 22.032-13.018 63.091-31.044 132.19-46.066 196.283-8.012 38.055-19.028 74.107-30.043 114.165zM475.68 433.905c8.011-40.058 17.024-75.109 27.039-115.167 0-7.01 4.005-10.014 6.008-22.032 4.006 9.013 8.012 12.018 8.012 15.022 26.037 57.083 50.072 115.166 75.108 169.244 4.006 5.008 4.006 17.025 4.006 25.037-11.016 47.068-20.029 93.134-33.048 139.2 0 4.006-3.004 7.01-8.011 11.017-6.009-23.034-12.018-37.054-21.03-55.08-30.044-62.09-64.093-138.2-58.084-167.241zm223.322 153.22c-10.014 46.067-15.022 40.059 29.042 40.059 38.055 0 65.094 1.001 93.134-21.03 13.02-11.017 18.027-29.043 13.02-47.069-5.008-30.043-44.064-28.04-113.164-28.04-13.019 0-13.019 18.026-22.032 56.08zm40.058-178.257c-9.013 33.048-25.036 47.068 28.04 47.068h7.01c41.06 0 79.115-15.021 71.103-62.09-3.004-20.028-29.042-25.035-52.075-25.035-50.072 0-40.058-2.003-54.078 40.057z"/></svg>