<svg xmlns="http://www.w3.org/2000/svg" viewBox="0 0 1000 1000"><path d="M5 500.496C5 225.55 226.54 5 500.496 5c272.968 0 494.507 222.528 494.507 494.507 0 274.946-222.528 495.496-494.507 495.496C225.55 995.003 5 772.475 5 500.496zM279.946 326.43c-15.824 66.264-11.868 128.57 17.802 187.912 37.583 68.242 92.968 111.759 167.144 129.561v42.528h-99.89c2.966 14.835 2.966 30.66 2.966 42.527h96.924v23.737c-22.748 0-74.176.989-94.946.989 0 0 2.967 29.67 3.956 43.516h87.034c3.956 25.715 3.956 52.418 8.9 77.144h88.023c0-24.726.989-53.407.989-80.11h95.934c0-12.858.99-27.693-1.978-38.572-33.626-1.978-66.264-1.978-93.956-1.978v-24.726h95.934c0-19.78-3.956-30.659-3.956-42.527-34.615-3.956-63.297-3.956-91.978-3.956v-38.572c140.44-35.604 200.77-162.198 188.902-280.88-15.824-116.704-108.792-209.67-220.55-212.638-118.682-7.912-215.606 63.297-247.254 176.045zm123.627 73.187c1.978-84.067 30.66-130.55 107.802-130.55 53.407 0 98.902 49.45 98.902 119.67-2.967 71.21-31.649 136.484-98.902 136.484-65.275 0-107.802-45.494-107.802-125.604z"/></svg>