<svg xmlns="http://www.w3.org/2000/svg" width="1000" height="1000">
  <path d="M390.647 19.283c55.278-16.712 87.417-14.14 147.837-14.14 168.404 0 339.38 152.978 398.514 335.523 32.139 123.411 10.285 165.834 10.285 195.4C902.289 797.03 649.039 964.15 393.218 902.444c-30.852-5.142-65.562-25.71-95.129-20.568-28.282 5.142-55.278 37.28-83.56 55.278-26.996 17.997-53.992 34.71-89.987 57.849 5.142-23.14 5.142-33.424 7.714-44.994 12.855-42.422 25.71-86.13 42.422-125.982 7.713-24.425 5.142-39.851-14.14-57.849C-65.717 511.642 57.694 102.843 390.647 19.283zM152.824 458.935c0 192.83 155.55 348.38 345.808 348.38 187.688 0 343.237-155.55 345.808-341.952 0-192.83-152.978-349.665-343.237-349.665-188.973-2.571-345.808 154.264-348.379 343.237zm129.839 56.563V411.37h165.833V245.537h100.272V411.37h167.119v97.7H551.339v169.69H451.067V515.499z" style="fill:#000;fill-opacity:1;fill-rule:nonzero;stroke:none;"/>
</svg>
