<svg xmlns="http://www.w3.org/2000/svg" viewBox="0 0 1000 1000"><path d="M989.41,862.73,745.61,712.19a17.56,17.56,0,0,0-9.12-2.58H61.68a17.34,17.34,0,0,0-9.1,32.09L296.39,892.23a17.39,17.39,0,0,0,9.1,2.57H980.3a17.33,17.33,0,0,0,9.11-32.07Zm-679-2.59L122.76,744.28H731.58L919.24,860.14ZM263.49,290.39H938.3a17.33,17.33,0,0,0,9.11-32.08L703.61,107.77a17.63,17.63,0,0,0-9.11-2.57H19.68a17.34,17.34,0,0,0-9.09,32.09l243.8,150.52A17.4,17.4,0,0,0,263.49,290.39ZM689.58,139.86,877.24,255.72H268.42L80.76,139.86ZM518.74,394.37a106.27,106.27,0,0,1,1,212.53l-1.06,0a106.27,106.27,0,0,1-1.06-212.54Z" fill-rule="evenodd"/></svg>