<svg xmlns="http://www.w3.org/2000/svg" width="1000" height="1000">
  <path d="M971.16 362.604c-5.02 8.783-8.784 13.802-8.784 22.585-112.928 195.741-222.09 391.482-331.254 588.478-8.783 12.547-13.802 21.33-31.369 21.33-33.878-3.764-65.247-3.764-104.144-3.764 3.764-8.783 8.783-13.802 12.548-22.585 52.699-100.38 109.163-200.76 165.626-301.14 17.567-30.114 13.803-42.662-21.33-42.662-95.361 0-191.977 0-287.338 3.764-13.802 0-22.585-8.783-31.369-21.33-17.566-31.369-33.878-56.464-51.444-91.597h452.964c17.567 0 30.114-5.019 38.897-22.585 17.567-38.898 40.152-77.795 61.483-112.928 5.02-8.783 17.567-17.566 26.35-17.566zM28.841 672.527H146.79c3.764 0 12.547 3.764 12.547 8.783 22.586 30.114 40.152 61.483 57.719 100.38-40.152 0-79.05 0-117.947-5.02l-8.783-3.763c-22.586-35.133-40.152-65.247-61.483-100.38zm0-38.898c5.02-8.783 8.783-13.802 8.783-17.566C146.79 419.067 259.716 223.326 368.88 22.566 377.663 10.02 386.446 5 398.993 5h105.4c-21.331 47.68-47.681 87.832-70.267 130.494-38.897 66.502-74.03 131.749-109.163 196.996-16.312 26.35-12.547 38.897 22.586 38.897h287.337c17.567 0 22.586 5.019 31.369 17.566 12.547 26.35 30.114 56.464 51.445 91.597H264.735c-17.566 0-31.369 3.764-40.152 21.33-16.312 40.153-38.897 79.05-60.228 117.947-5.019 8.783-13.802 13.802-26.35 13.802zm161.863 26.35c0-5.019 0-13.802 3.764-17.566 17.567-35.133 35.133-70.266 56.464-109.163 22.585 38.897 40.152 69.01 57.718 104.144 3.765 5.019 3.765 8.783 0 13.802-17.566 33.878-35.133 69.011-57.718 107.908-21.33-33.878-38.897-69.01-60.228-99.125zm174.41-323.725C421.58 227.09 478.043 126.71 539.525 22.566c21.331 35.133 38.898 70.266 56.464 100.38 3.764 3.765 0 12.548 0 21.331-35.133 57.719-65.247 117.947-100.38 179.43-5.019 3.764-12.547 8.783-21.33 8.783-35.134 3.764-70.267 3.764-109.164 3.764zm38.897 540.797c-5.019-3.764 0-17.567 0-21.33 35.133-61.484 70.266-121.712 100.38-183.194 3.765-5.02 12.548-8.784 17.567-8.784h112.927c-56.463 104.145-112.927 204.525-169.39 309.924-22.586-35.133-43.917-65.247-61.484-96.616zm283.574-518.212c0-5.019 0-8.783 3.764-13.802 17.566-35.133 40.152-69.011 57.718-109.163 21.331 35.133 38.898 70.266 56.464 100.38 3.764 5.019 3.764 13.802 0 17.566-17.566 35.133-35.133 70.266-56.464 109.164-22.585-38.898-40.152-74.03-61.482-104.145zm95.36-140.532h117.947c5.02 0 8.783 5.02 8.783 8.784 22.586 31.368 38.898 61.482 61.483 100.38H853.213c-3.765 0-12.548-3.765-12.548-8.784-17.566-30.114-40.152-65.247-57.718-100.38z" style="fill:#000;fill-opacity:1;fill-rule:nonzero;stroke:none;"/>
</svg>
