<svg xmlns="http://www.w3.org/2000/svg" width="1000" height="1000">
  <path d="M499.998 5c39.051 0 73.221 14.644 98.848 36.61l355.12 360.002c51.255 54.915 51.255 142.78 0 192.814L784.338 765.274v181.831c0 14.645-8.542 28.068-28.067 28.068-14.645 0-23.187-13.423-23.187-28.068v-181.83c0-4.882-4.881-8.543-14.644-17.086l-92.746-85.424-98.848-101.288c-35.39 19.525-78.102 0-91.526-36.61-20.746-37.831 0-79.323 36.61-93.967 37.831-10.983 79.323 6.102 92.747 39.051 4.88 9.763 4.88 17.085 4.88 26.848 0 8.542 0 24.406-4.88 34.17L756.27 715.24l156.204-159.865c40.27-36.61 41.491-73.22 0-118.373l-352.68-352.68c-39.05-41.491-87.865-28.068-119.593 0l-353.9 352.68c-30.509 32.949-30.509 87.864 0 118.373l353.9 355.12c25.627 29.288 87.864 34.17 119.593 0l130.577-135.458 9.763 10.983-3.661 68.34-93.967 97.627c-54.915 57.356-144 57.356-200.136 0L46.03 594.427c-51.255-50.035-51.255-137.9 0-192.815L402.37 41.61C426.778 19.644 463.388 5 499.998 5z" style="fill:#000;fill-opacity:1;fill-rule:nonzero;stroke:none;"/>
</svg>
