<svg xmlns="http://www.w3.org/2000/svg" viewBox="0 0 1000 1000"><path d="M218.831 764.205H5l1.028-2.056 33.925-79.159c31.87-72.99 61.682-145.98 93.551-219.999 31.87-74.018 64.766-150.093 96.635-226.167 0-2.056 1.028-2.056 3.085-2.056H443.97c1.028 0 3.084 0 4.112 2.056 23.644 45.233 49.345 91.495 75.046 137.756 32.897 59.626 65.794 120.28 99.72 178.878 0 1.028 0 1.028 1.027 3.084 0-2.056 0-2.056 2.057-3.084 26.728-58.598 55.513-117.196 83.27-174.766 22.617-47.29 46.262-94.579 68.879-141.868 1.028-2.056 1.028-2.056 3.084-2.056h213.83c-2.055 2.056-2.055 2.056-2.055 3.084-31.87 66.822-62.71 132.616-94.58 198.41L741.073 762.15c-1.028 2.056-3.084 3.084-6.168 3.084H524.157s-1.028 0-1.028-1.028c-28.785-51.402-55.514-101.775-84.299-151.121-29.813-51.402-57.57-103.831-85.326-155.233 0-1.028 0-1.028-2.057-1.028v1.028l-9.252 20.56c-40.093 95.608-79.158 189.159-120.28 283.738 0 2.056-2.056 2.056-3.084 2.056z"/></svg>