<svg xmlns="http://www.w3.org/2000/svg" viewBox="0 0 1000 1000"><path d="M500.496 995.003c275.935 0 494.507-224.506 494.507-495.496C995.003 226.54 773.464 5 500.496 5 223.572 5 5 229.506 5 499.507c0 276.924 224.506 495.496 495.496 495.496zM234.451 326.43v-44.506h117.693v-96.923l-26.703-26.704V135.55h78.132l28.681 16.813v129.561h304.617l30.659 30.66-186.924 186.923c10.88-4.945 23.737-7.912 35.605-8.901 22.747.989 46.484 7.912 67.253 19.78 24.725 10.88 44.505 29.67 59.34 51.429 12.858 19.78 21.759 41.539 25.715 64.286 3.956 17.802 6.923 35.604 6.923 52.418 0 36.593-7.912 69.23-23.736 100.88-13.846 29.67-38.572 55.384-69.231 69.23-29.67 15.824-64.286 23.737-97.913 23.737-53.406 0-91.978-13.847-114.725-38.572-22.748-21.758-36.594-51.429-37.583-81.1 0-9.89 2.967-18.79 6.923-26.703 4.945-8.9 10.88-13.846 17.803-18.79 16.813-7.913 35.604-7.913 53.406 0 6.923 4.944 12.858 9.89 17.803 18.79 2.967 7.913 5.934 16.814 4.945 26.704.989 10.879-2.967 21.758-7.912 30.66-4.946 6.922-13.847 12.856-21.759 15.823 7.912 10.88 19.78 17.803 34.616 21.759 13.846 4.945 31.648 6.923 46.483 6.923 20.77 0 41.539-5.934 59.341-17.802 16.813-12.858 30.66-31.649 38.572-52.418 7.912-24.725 12.857-50.44 11.868-79.121.989-26.704-3.956-54.396-13.846-80.11-6.923-20.77-21.759-39.561-39.56-50.44-16.814-10.88-36.594-16.813-57.364-16.813-17.802.989-33.626 6.923-50.44 17.802L497.53 566.76v-17.802L662.695 326.43h-230.44v230.44c0 16.813 4.944 32.637 13.845 46.484 8.902 13.846 22.748 19.78 38.572 18.79 13.846 0 26.703-4.944 37.582-13.845 12.858-8.901 23.737-19.78 32.638-31.649 0-2.967 1.978-4.945 3.956-5.934.989-1.978 2.967-1.978 4.945-1.978 4.945 0 7.912 1.978 10.88 4.945 4.944 3.956 5.933 8.901 5.933 14.835-.989 3.956-.989 7.913-.989 11.869-8.9 18.79-22.747 36.593-40.55 48.461-16.813 10.88-35.604 16.814-55.384 16.814-49.45 0-83.077-8.902-102.858-28.682-19.78-22.747-29.67-51.429-28.681-81.1V326.43z"/></svg>