<svg xmlns="http://www.w3.org/2000/svg" viewBox="0 0 1000 1000"><path d="M5 500.496C5 225.55 226.54 5 500.496 5c272.968 0 494.507 222.528 494.507 494.507 0 274.946-222.528 495.496-494.507 495.496C225.55 995.003 5 772.475 5 500.496zm189.89 148.352c0 31.649 11.869 49.451 35.605 64.286 83.077 46.484 165.166 96.924 249.232 147.363 21.758 13.847 43.516 13.847 69.23 0 83.078-50.44 167.144-100.88 251.21-147.363 24.726-14.835 36.594-32.637 36.594-61.319-2.967-49.45-2.967-98.901-2.967-149.34 0-49.452 0-98.902 2.967-147.364 0-30.66-11.868-51.429-42.528-65.275-82.088-51.429-160.22-97.912-242.308-144.396-25.714-17.802-46.484-17.802-72.198-2.967-84.066 49.45-166.155 98.901-249.232 147.363-23.736 13.846-35.604 30.66-35.604 63.297zm99.891-111.758c38.572 24.725 73.187 43.516 107.803 65.275 14.835 7.912 32.637 16.813 46.483 26.703 77.144 43.517 120.66 35.605 182.968-35.605-24.725-26.703-51.429-50.44-91.978-43.516-16.814 2.967-40.55 2.967-40.55-22.747-3.956-30.66-19.78-34.616-43.516-34.616-24.726 0-38.572-4.945-47.473-25.714-8.901-17.803-26.704-25.715-40.55-37.583-17.802-11.868-37.582-23.736-65.275-41.538 53.407-32.638 99.89-54.396 141.43-84.067 51.428-40.55 98.9-43.516 154.286-3.956 35.604 30.66 80.11 50.44 120.66 74.176-17.803 29.67-34.616 31.649-59.342 19.78-30.659-15.824-61.318-31.648-90-51.428-32.637-24.726-62.308-26.704-96.923 0-20.77 12.857-43.517 25.714-67.253 43.516 25.714 28.682 42.527 44.506 80.11 34.616 17.802-4.945 51.429-5.934 45.495 32.637-2.967 7.913 21.758 27.693 35.604 26.704 30.66 0 55.385-2.967 57.363 37.582 0 9.89 20.77 17.803 32.637 25.715 23.737 15.824 47.473 29.67 81.1 50.44-45.495 28.68-81.1 52.417-118.682 73.187-119.67 67.253-76.154 69.23-195.825 0-37.582-20.77-73.187-40.55-109.78-61.32-22.748-14.835-37.583-32.637-18.792-68.241z"/></svg>