<svg xmlns="http://www.w3.org/2000/svg" viewBox="0 0 1000 1000"><path d="M500.496 5c272.968 0 494.507 221.54 494.507 495.002 0 270.495-218.572 495.001-495.001 495.001C229.506 995.003 5 776.431 5 500.002 5 229.506 223.572 5 500.496 5zM97.967 411.485c0 36.593-3.956 34.615 34.616 34.615 35.604 0 32.637 0 32.637-34.615 0-37.583 2.967-34.616-34.615-34.616-36.594 0-32.638 0-32.638 34.616zm104.836 100.88c0 34.615 0 34.615 34.615 34.615 35.605 0 32.638 0 32.638-30.66 0-34.615 2.967-34.615-35.605-34.615-31.648 0-31.648 0-31.648 30.66zm0-100.88c0 34.615 0 34.615 34.615 34.615 35.605 0 32.638 0 32.638-34.615 0-34.616 2.967-34.616-35.605-34.616-31.648 0-31.648 0-31.648 29.67zm100.88 209.67c0 27.693 0 27.693 32.637 27.693 30.66 0 30.66 0 30.66-32.637 0-33.627 0-33.627-30.66-33.627h-17.802c-6.924 0-14.836 2.967-14.836 12.858zm0-104.835c0 30.66 0 30.66 28.68 30.66 37.583 0 34.616 3.956 34.616-34.616 0-30.66 0-30.66-28.681-30.66-38.572 0-34.616 0-34.616 34.616zm0-83.077c0 9.89 7.911 12.857 16.813 12.857h32.637c8.901 0 13.846-7.912 13.846-12.857V406.54c0-29.67 0-29.67-28.681-29.67-34.616 0-34.616 0-34.616 34.615zm97.912 201.76c0 13.845 3.956 16.812 18.791 16.812h83.077c26.704-2.967 55.385-7.912 80.11-24.725 33.627-22.747 51.43-59.34 54.396-100.88 4.945-72.198-30.66-135.494-113.736-146.374-31.649-2.967-66.264-2.967-101.869-2.967-16.813 0-20.77 2.967-20.77 23.737zm60.33-52.419V448.078c0-14.835 1.978-14.835 16.813-14.835h30.66c27.692 0 49.45 12.857 59.34 36.594 14.835 31.648 9.89 63.297-3.956 91.978-9.89 20.77-31.648 33.627-55.385 33.627h-30.66c-10.878 0-16.812-3.957-16.812-12.858zM667.64 636.98c0 11.868 4.945 16.813 15.824 16.813 8.9 0 10.879-6.923 10.879-18.79V425.33c.989.99 7.912 7.912 11.868 12.857 33.627 41.539 64.286 81.1 95.935 122.638 17.802 23.736 37.582 48.462 56.373 73.187 8.901 9.89 15.825 20.77 32.638 14.835 8.901-2.967 9.89-12.857 9.89-32.637V385.77c0-6.924-3.956-10.88-11.868-10.88-7.912 0-12.857 2.967-12.857 10.88 0 68.241-1.978 200.77 0 226.484-55.385-84.066-208.682-271.98-208.682-232.419z"/></svg>