<svg xmlns="http://www.w3.org/2000/svg" viewBox="0 0 1000 1000"><path d="M248.29,485.21H216.4V383h31.89a62.619,62.619,0,0,1,16.88,2.3,38.639,38.639,0,0,1,15,8,39.068,39.068,0,0,1,11.26,15.47q4.219,9.86,4.22,24.86h0q-.01,25.8-13.6,38.92Q268.921,485.21,248.29,485.21ZM995,500c0,273.38-221.62,495-495,495S5,773.38,5,500,226.62,5,500,5,995,226.62,995,500ZM587.25,140c46.75,42.73,79.4,102.45,97.4,145.73h114.7L652.18,140ZM515.83,285.73h141.4C624.33,207.24,570.9,155.87,548.29,140H515.83Zm-168.14,0h140V140H454.47C392.69,184.44,357.55,255.67,347.69,285.73Zm-145.69,0H320.33C336.2,228,398.24,150.82,417,140H347.73ZM162,668.1h54.4V526.48h31.42L299.4,668.1h59.08L298.95,515.22a57.469,57.469,0,0,0,17.82-8.44,72.058,72.058,0,0,0,16.88-16.88,87.661,87.661,0,0,0,12.19-24.85Q351,450.04,351,430.81q0-24.851-7-42.67a79.088,79.088,0,0,0-19.73-29.53,71.067,71.067,0,0,0-29.54-16.89,122.615,122.615,0,0,0-38-5.62H162ZM413.75,860C367,817.29,334.39,757.55,316.36,714.27H201.65L348.82,860Zm71.41-145.73H343.77C376.67,792.76,430.1,844.13,452.71,860h32.45Zm35.03-46.17V383.92h62.37V336.09H402.49v47.83h62.37V668.1Zm133.07,46.17H513.3V860h33.18C608.24,815.56,643.4,744.33,653.26,714.27Zm145.74,0H680.68C664.81,772,602.77,849.18,584,860h69.27Zm39.54-378.19H779L728.34,483.33l-1.4.94L677.23,336.09h-61l83,204.92V668.1h55.38V541Z"/></svg>