<svg xmlns="http://www.w3.org/2000/svg" width="1000" height="1000">
  <path d="M499.485 212.58c-12.362 18.544-19.573 30.906-25.754 45.329-16.483 29.875-38.117 41.207-69.022 47.388-105.078 15.452-198.824 61.81-289.48 117.44C80.203 450.552 44.147 476.307 5 505.151c132.893 117.44 284.329 188.523 453.278 211.186 15.453 25.755 25.754 44.298 44.298 71.083 15.452-26.785 26.784-49.449 41.207-71.083C713.762 696.764 857.987 622.591 995 505.151 862.107 392.861 719.943 320.75 555.115 294.995c-18.544-25.754-32.966-48.418-55.63-82.414zM50.328 505.152C161.587 434.07 276.967 381.53 411.92 351.655c-10.302 32.965-37.086 60.78 3.09 87.565 20.604-31.936 39.147-61.81 58.72-90.656 13.393-4.12 31.936-4.12 52.54-4.12 17.513 29.875 36.056 62.84 58.72 97.866 30.905-26.784 23.694-57.69 0-90.655 139.074 25.754 251.363 82.414 367.773 153.496-116.41 75.203-235.91 131.863-379.105 157.617 15.452-40.177 35.026-71.082 49.448-101.987 12.362-16.483 18.543-35.026 25.755-51.51 15.452-25.754 7.21-38.116-10.302-55.629-49.449 67.992-76.233 142.165-116.41 209.126-42.237 7.211-42.237 7.211-60.78-25.754-25.755-49.449-49.449-97.867-72.113-143.195-6.181-14.422-14.422-25.754-21.634-40.177-29.875 31.936-29.875 31.936-15.452 63.871 22.664 43.268 49.448 89.626 73.142 134.953-76.233 10.302-263.725-64.9-374.984-147.315z" style="fill:#000;fill-opacity:1;fill-rule:nonzero;stroke:none;"/>
</svg>
