<svg xmlns="http://www.w3.org/2000/svg" width="1000" height="1000">
  <path d="M5 500.496c0 271.98 220.55 494.507 495.496 494.507 271.98 0 494.507-220.55 494.507-495.496C995.003 227.528 773.464 5 500.496 5 226.54 5 5 225.55 5 500.496zm235.385-62.308v-241.32h8.902c90.989 0 181.978-.988 274.946.99 93.956.989 164.176 44.505 212.638 124.616 25.714 41.538 33.626 87.033 30.659 135.495-2.967 61.318-27.692 112.747-69.231 155.275-2.967 5.934-2.967 8.9-1.978 11.868 22.747 55.385 44.506 111.759 66.264 165.165 1.978 1.978 1.978 2.967 2.967 5.934H335.331c-3.956 0-8.901 0-12.857-3.956-17.803-23.736-24.726-48.461-30.66-78.132-4.945-30.66-2.967-59.34 5.934-89.011 18.792-56.374 57.363-93.956 114.726-109.78 7.912-2.968 16.813-2.968 24.725-5.935v49.451c59.341-39.56 116.704-77.143 176.045-115.715-59.341-37.582-116.704-77.143-176.045-114.725v43.516c0 5.934-1.978 6.923-5.934 7.912-17.802 1.978-36.593 2.967-56.374 4.945-47.472 6.924-90 23.737-128.572 48.462-2.967 1.978-2.967 2.967-5.934 4.945z" style="fill:#000;fill-opacity:1;fill-rule:nonzero;stroke:none;"/>
</svg>
