<svg xmlns="http://www.w3.org/2000/svg" viewBox="0 0 1000 1000"><path d="M5 500.496c0 271.98 220.55 494.507 495.496 494.507 271.98 0 494.507-220.55 494.507-495.496C995.003 227.528 773.464 5 500.496 5 226.54 5 5 225.55 5 500.496zm107.803-2.967c0-216.594 173.077-392.639 396.594-392.639 220.55 0 388.683 180.99 393.628 392.64 0 219.56-180.99 397.583-393.628 397.583-215.605 0-396.594-173.078-396.594-397.584zm63.296 43.517c15.825 149.34 141.43 259.121 215.606 267.034 4.945-15.825 4.945-30.66 4.945-47.473 23.736 8.901 46.483 12.857 69.23 16.813 12.858 3.956 17.803 7.912 17.803 18.791v35.605h50.44v-31.649c0-14.835 2.967-18.79 18.79-22.747 14.836-3.956 32.638-7.912 48.463-12.857 1.978 0 9.89 0 18.79-3.956v52.418c101.87-27.693 219.562-149.341 219.562-315.496 0-165.165-121.649-282.858-219.561-309.561v39.56c0 7.912-3.956 9.89-16.813 7.912-9.89 0-22.748-3.956-35.605-7.912-33.626-8.9-33.626-8.9-33.626-43.516v-8.902c-3.956 0-6.923-7.912-11.869-7.912-30.659-6.923-38.571 0-38.571 32.638v2.967c0 11.868-4.945 19.78-17.802 19.78-17.803 4.945-38.572 8.901-53.407 12.857-12.857 1.978-15.824 0-15.824-12.857v-34.615C271.045 227.528 156.32 365 176.1 541.046zm141.43 94.945c-6.924-15.824-6.924-23.736 11.868-23.736 26.703-4.945 55.384-11.868 83.077-15.824 7.912 0 14.835 0 18.791 10.879 3.956 20.769 19.78 31.648 39.56 35.604 27.693 7.912 56.375 7.912 82.089-6.923 12.857-7.912 19.78-20.77 19.78-32.637 0-14.836-6.923-26.704-22.747-31.649-19.78-6.923-43.517-9.89-66.264-17.802-20.77-4.945-40.55-8.901-61.319-12.857-45.495-14.835-85.055-48.462-96.923-98.902-14.836-74.176 7.912-140.44 90.989-169.121 67.253-22.747 128.572-22.747 191.869 12.857 38.571 19.78 55.385 55.385 74.176 90 4.945 6.923 0 14.836-6.923 14.836-31.649 7.912-59.341 12.857-87.034 17.802-10.879 0-15.824 0-20.769-12.857-6.923-22.748-25.714-35.605-53.407-39.56-19.78 0-40.55 0-56.373 11.867-9.89 7.912-14.836 19.78-14.836 35.605 0 15.824 7.912 22.747 22.748 27.692 28.681 7.912 56.373 15.824 84.066 23.736 35.604 3.957 66.264 14.836 96.923 35.605 83.077 50.44 79.121 180.99-17.802 226.484-35.604 16.814-71.209 24.726-130.55 24.726-35.604 0-78.132-3.956-117.693-28.682-32.637-18.791-51.428-45.494-63.296-77.143z"/></svg>