<svg xmlns="http://www.w3.org/2000/svg" width="1000" height="1000">
  <path d="m743.617 322.641-74.74-47.88c-52.55-31.53-105.1-65.396-156.484-102.766-14.014-7.007-23.356-7.007-30.363 0-81.746 50.215-156.485 96.927-231.224 142.471-10.51 10.51-24.523 10.51-31.53 0-37.37-22.188-77.075-39.705-114.444-64.228 0 2.335 374.863-238.231 377.198-238.231 11.678-9.343 22.188-9.343 37.37 0C633.844 86.746 750.624 164.988 868.57 243.23c31.53 25.691 38.538 96.927 19.853 120.283-9.343 23.356-38.538 43.208-59.558 61.893-35.034 22.188-65.397 49.048-100.43 78.243 2.335 3.503 106.27 70.067 144.806 89.92 15.182 10.51 18.685 18.685 18.685 33.866v126.122C757.63 668.31 631.508 585.395 498.38 501.314c80.578-60.725 161.156-119.115 245.238-178.673zM101.328 724.363c3.504-117.947 0-239.398 3.504-360.85V344.83c33.866 18.685 64.228 37.37 99.262 56.054 15.182 8.175 18.685 18.685 18.685 32.699v200.861c0 18.685 3.504 30.363 24.524 37.37 73.571 52.55 147.142 99.262 223.05 152.981 18.684 12.846 33.865 12.846 51.382 0 51.383-30.363 102.767-58.39 150.646-91.088 15.182-9.343 25.692-9.343 37.37 0 33.866 25.691 66.564 40.873 102.766 66.564-23.356 12.846-46.712 26.86-68.9 43.209-74.74 50.215-156.485 98.095-231.224 143.639-14.014 10.51-18.685 10.51-30.363 0C362.915 912.378 240.296 837.64 123.516 762.9c-14.013-9.343-22.188-19.853-22.188-38.538z" style="fill:#000;fill-opacity:1;fill-rule:nonzero;stroke:none"/>
</svg>
