<svg xmlns="http://www.w3.org/2000/svg" width="1000" height="1000">
  <path d="M500.496 5C223.572 5 5 229.506 5 500.002c0 276.43 224.506 495.001 495.002 495.001 276.43 0 495.001-224.506 495.001-495.001C995.003 226.539 773.464 5 500.496 5zM225.55 465.88c35.605-68.241 73.187-135.494 112.748-198.791 8.9-15.824 36.593-30.66 54.396-30.66 76.154-1.978 151.319-1.978 229.45-1.978 25.715 0 45.496 13.846 56.375 35.605 35.604 63.297 73.187 124.616 107.802 185.935 17.803 28.68 17.803 55.384 0 80.11-36.593 62.308-72.198 125.604-107.802 186.923-13.846 22.748-30.66 35.605-59.341 35.605-36.594-1.978-72.198 0-109.78 0-41.54-1.978-80.11 1.978-119.671-1.978-16.814-2.967-42.528-14.835-51.43-30.66-39.56-64.286-77.142-127.582-110.769-196.813-8.9-15.825-8.9-47.473-1.978-63.297z" style="fill:#000;fill-opacity:1;fill-rule:nonzero;stroke:none;"/>
</svg>
