<svg xmlns="http://www.w3.org/2000/svg" viewBox="0 0 1000 1000"><path d="M5 500.496C5 225.55 226.54 5 500.496 5c272.968 0 494.507 222.528 494.507 494.507 0 274.946-222.528 495.496-494.507 495.496C225.55 995.003 5 772.475 5 500.496zm142.418-83.077L505.441 846.65 858.52 417.42 747.75 275l-107.802-58.352H382.803L271.045 275zm22.747-5.934L275.99 287.858l103.846 50.44-56.373 152.308zm11.869 30.66 141.429 81.098L466.87 768.52zm110.77-163.188 90-45.495h257.143l81.1 44.506-95.935 47.473H382.803zm40.549 229.451 59.34-168.132h232.419l47.473 168.132L505.44 812.036zm80.11 100.88h60.33v45.494h18.791v-45.494h22.747v45.494h18.792l.989-45.494c75.165 0 99.89-70.22 35.604-100.88 48.462-20.769 26.704-87.033-35.604-90.99v-33.626h-19.78v33.627h-22.748v-33.627h-18.791v33.627h-60.33v34.615h24.725c9.89 0 9.89 0 9.89 10.88V575.66s0 8.901-9.89 8.901h-24.725zm79.121-24.726v-51.428c12.857 0 67.253-.99 67.253 20.769 0 30.66-54.396 30.66-67.253 30.66zm0-87.033v-45.495c12.857 0 56.374-1.978 56.374 22.748 0 30.66-43.517 22.747-56.374 22.747zm49.45 275.935 141.43-250.22 115.714-63.297zm102.858-435.166 97.913-50.44 98.901 130.55-154.286 72.198z"/></svg>