<svg xmlns="http://www.w3.org/2000/svg" viewBox="0 0 1000 1000"><path d="M500,378.463l43.59,114.919-43.59-39.627-43.59,39.627,43.59-114.919Zm500,121.537c0,276.142-223.858,500-500,500S0,776.142,0,500,223.858,0,500,0s500,223.858,500,500Zm-440.559,171.705c0-35.665-27.739-59.441-59.441-59.441-35.665,0-59.441,27.739-59.441,59.441s23.776,59.441,59.441,59.441,59.441-27.739,59.441-59.441Zm210.025,126.808L500,128.81,230.534,798.513c106.994-55.478,198.137-130.77,269.466-221.913,71.329,91.143,162.472,166.435,269.466,221.913Z"/></svg>