<svg width="33" height="32" viewBox="0 0 33 32" fill="none" xmlns="http://www.w3.org/2000/svg">
<g clip-path="url(#clip0_3393:12151)">
<path fill-rule="evenodd" clip-rule="evenodd" d="M16.4338 31.84C25.1819 31.84 32.2738 24.7482 32.2738 16C32.2738 7.25178 25.1819 0.159973 16.4338 0.159973C7.68556 0.159973 0.59375 7.25178 0.59375 16C0.59375 24.7482 7.68556 31.84 16.4338 31.84ZM6.86471 9.14333L11.5281 4.47992H13.7444C13.1441 4.82622 11.1587 7.29644 10.6508 9.14333H6.86471ZM16.0068 4.47992V9.14333H11.5281C11.8436 8.18141 12.9687 5.90203 14.9449 4.47992H16.0068ZM16.9072 9.14333H21.4321C20.3794 6.63155 18.6694 4.98782 17.9461 4.47992H16.9072V9.14333ZM25.9801 9.14333H22.3094C21.7322 7.75816 20.6887 5.84662 19.1927 4.47992H21.2705L25.9801 9.14333ZM10.5355 22.8565H6.8648L11.5744 27.5199H13.6521C12.1561 26.1532 11.1127 24.2417 10.5355 22.8565ZM11.4128 22.8565H15.9377L15.9377 27.5199L14.8988 27.5199C14.1754 27.012 12.4655 25.3683 11.4128 22.8565ZM16.838 22.8565V27.5199H17.9C19.8762 26.0978 21.0012 23.8184 21.3167 22.8565L16.838 22.8565ZM21.3167 27.5199L25.9801 22.8565H22.194C21.6861 24.7034 19.7007 27.1736 19.1005 27.5199H21.3167ZM7.32876 20H12.2368V18.668H8.81676V15.992H11.4448V14.66H8.81676V12.512H12.2368V11.18H7.32876V20ZM13.8468 20H16.4388C16.6868 20 16.9308 19.98 17.1708 19.94C17.4188 19.9 17.6548 19.828 17.8788 19.724C18.1028 19.612 18.3068 19.472 18.4908 19.304C18.6748 19.136 18.8228 18.94 18.9348 18.716C19.0548 18.492 19.1348 18.26 19.1748 18.02C19.2228 17.772 19.2468 17.524 19.2468 17.276V13.904C19.2468 13.656 19.2228 13.412 19.1748 13.172C19.1348 12.924 19.0548 12.688 18.9348 12.464C18.8228 12.24 18.6748 12.044 18.4908 11.876C18.3068 11.708 18.1028 11.572 17.8788 11.468C17.6548 11.356 17.4188 11.28 17.1708 11.24C16.9308 11.2 16.6868 11.18 16.4388 11.18H13.8468V20ZM15.3228 18.668V12.512H16.4388C16.6228 12.512 16.8028 12.54 16.9788 12.596C17.1548 12.652 17.3028 12.748 17.4228 12.884C17.5508 13.02 17.6388 13.18 17.6868 13.364C17.7428 13.54 17.7708 13.72 17.7708 13.904V17.276C17.7708 17.46 17.7428 17.64 17.6868 17.816C17.6388 17.992 17.5508 18.152 17.4228 18.296C17.3028 18.432 17.1548 18.528 16.9788 18.584C16.8028 18.64 16.6228 18.668 16.4388 18.668H15.3228ZM22.4409 20H20.9529V11.18H23.5929C23.8569 11.18 24.1169 11.204 24.3729 11.252C24.6369 11.292 24.8889 11.372 25.1289 11.492C25.3689 11.604 25.5769 11.76 25.7529 11.96C25.9369 12.152 26.0649 12.376 26.1369 12.632C26.2169 12.888 26.2569 13.144 26.2569 13.4V14.456C26.2569 14.712 26.2169 14.968 26.1369 15.224C26.0649 15.48 25.9369 15.708 25.7529 15.908C25.5769 16.1 25.3689 16.256 25.1289 16.376C24.8889 16.488 24.6369 16.568 24.3729 16.616C24.1169 16.656 23.8569 16.676 23.5929 16.676H22.4409V20ZM22.4409 12.512V15.344H23.5929C23.7369 15.344 23.8769 15.332 24.0129 15.308C24.1489 15.276 24.2769 15.224 24.3969 15.152C24.5249 15.08 24.6209 14.98 24.6849 14.852C24.7489 14.724 24.7809 14.592 24.7809 14.456V13.4C24.7809 13.264 24.7489 13.132 24.6849 13.004C24.6209 12.876 24.5249 12.776 24.3969 12.704C24.2769 12.632 24.1489 12.584 24.0129 12.56C23.8769 12.528 23.7369 12.512 23.5929 12.512H22.4409Z" fill="black"/>
</g>
<defs>
<clipPath id="clip0_3393:12151">
<rect width="32" height="32" fill="white" transform="translate(0.441406)"/>
</clipPath>
</defs>
</svg>
