<svg xmlns="http://www.w3.org/2000/svg" viewBox="0 0 1000 1000"><path d="M500.496 5C223.572 5 5 229.506 5 500.002c0 276.43 224.506 495.001 495.002 495.001 276.43 0 495.001-224.506 495.001-495.001C995.003 226.539 773.464 5 500.496 5zM215.66 744.783c0-45.495 0-45.495 45.495-45.495 48.461 0 48.461 0 48.461 47.473 0 49.45 6.924 42.527-42.527 42.527h-5.934c-45.495 0-45.495 0-45.495-44.505zm0-181.979V247.308c0-11.868 4.945-15.824 14.835-15.824 31.649 1.978 63.297 1.978 94.946 1.978h451.98c22.747 0 23.736 0 23.736 21.759 0 172.088-.99 342.199 0 513.298 0 15.824-5.935 22.747-22.748 20.77H454.012c-16.813 0-22.747-3.957-20.769-20.77v-45.495c0-23.736 0-23.736 22.748-23.736h233.407c20.77 0 22.747 0 22.747-22.747 0-109.78-1.978-220.55 0-330.331 0-16.813-4.945-20.77-22.747-20.77H330.386c-17.803 0-20.77 4.946-20.77 22.748.99 68.242 0 137.473.99 206.704 0 18.791-4.946 22.747-22.748 21.758-17.802-1.978-37.582 0-57.363 0-9.89 0-14.835-2.967-14.835-13.846zm217.583 0v-97.912c0-11.869 5.934-14.836 15.824-14.836h123.627c10.88 0 15.824 2.967 15.824 14.836v97.912c0 11.868-4.945 13.846-15.824 13.846H449.067c-9.89 0-15.824-1.978-15.824-13.846z"/></svg>