<svg xmlns="http://www.w3.org/2000/svg" viewBox="0 0 1000 1000"><path d="M5 500.496c0 271.98 220.55 494.507 495.496 494.507 271.98 0 494.507-220.55 494.507-495.496C995.003 227.528 773.464 5 500.496 5 226.54 5 5 225.55 5 500.496zm184.946 278.902V244.341c0-13.846 5.934-21.758 15.824-29.67 22.747-14.835 45.495-31.648 67.253-46.484 13.846-10.879 26.703-19.78 40.55-28.681 5.934-5.934 10.879-2.967 14.835 0 34.615 17.802 73.187 32.637 109.78 47.473l34.616 16.813c16.813 5.934 16.813 18.791 0 28.681-29.67 12.857-56.374 26.704-85.055 41.539-8.902 3.956-18.792 7.912-28.682 12.857-3.956 2.967-18.791-.989-25.714-3.956v463.848c33.626-1.978 63.297 8.9 91.978 18.791 15.824 6.923 31.649 11.868 49.45 16.813 0 0 7.913 4.945 9.89 11.868 1.979 7.913-1.977 11.869-12.856 15.825-13.846 4.945-28.682 9.89-41.539 13.846-22.747 5.934-78.132 23.736-89.011 28.681-3.956 1.978-7.912 3.956-14.835 3.956h-11.87c-17.802-6.923-35.604-14.835-52.417-20.769-15.825-8.901-33.627-14.835-51.429-21.758-14.835-7.912-20.77-18.792-20.77-34.616zm26.703-2.967c0 5.934 0 8.901.99 11.868 11.867 3.956 24.724 8.901 34.615 14.836 16.813 8.9 35.604 14.835 52.417 22.747V177.088c-14.835 11.869-29.67 20.77-46.483 32.638-10.88 7.912-22.748 13.846-33.627 22.747-3.956 2.967-7.912 8.901-7.912 15.824v129.561zm116.704 49.45c5.934-1.977 10.879-2.966 15.824-4.944 28.681-9.89 55.385-17.802 81.1-25.715-18.792-7.912-40.55-12.857-58.353-18.79-12.857-3.957-25.714-3.957-38.571-3.957zm0-581.54c0 12.858 9.89 19.78 18.791 14.836 20.77-8.901 41.539-16.814 64.286-29.67 8.901-4.946 17.802-7.913 25.714-13.847-16.813-5.934-34.615-12.857-51.428-19.78-17.803-6.923-36.594-14.835-57.363-23.737zM537.09 794.233c0-6.923 5.934-13.846 12.857-13.846 18.791-4.945 39.56-11.868 57.363-17.802 20.769-6.923 38.571-12.857 59.34-18.791 4.946 0 8.902.989 13.847.989 2.967 1.978 5.934 1.978 8.9 2.967V281.924c-22.746 7.912-41.538-2.967-57.362-12.857-17.802-8.901-27.692-11.868-44.506-18.791l-33.626-16.814c-5.934-2.967-13.846-9.89-14.835-17.802 0-5.934 3.956-10.88 12.857-14.835 24.725-8.901 47.473-19.78 72.198-29.67 18.791-5.935 35.604-13.847 53.407-19.78 22.747-11.87 33.626-11.87 43.516-.99 8.901 5.934 30.66 19.78 62.308 41.539 11.868 6.923 20.77 12.857 29.67 17.802 14.836 12.857 20.77 20.77 20.77 38.571v528.134c0 17.802-8.901 29.67-25.714 35.605-16.814 6.923-32.638 14.835-47.473 23.736-17.802 5.934-32.638 13.846-49.45 20.77-3.957 2.966-9.89 2.966-15.825 0-21.758-6.924-41.539-14.836-63.297-20.77-3.956-.989-82.088-27.692-82.088-27.692-6.923-1.978-12.857-7.913-12.857-13.847zm40.55-576.595c2.966.99 5.933.99 8.9 1.978 30.66 9.89 55.385 28.681 80.11 39.56 8.902 2.968 22.748-2.966 22.748-7.911v-79.122c-19.78 8.902-38.572 16.814-57.363 23.737-18.791 5.934-35.604 13.846-54.396 21.758zm17.802 576.595c-5.935 1.978 77.143 28.682 93.956 34.616v-38.572c0-16.813-7.912-22.747-23.736-17.802-23.737 4.945-46.484 11.868-70.22 21.758zm120.66 31.649c5.933-1.978 11.867-4.945 17.802-7.912 20.769-7.912 41.538-15.824 62.307-26.704 8.902-2.967 8.902-2.967 8.902-13.846V251.265c0-13.847-2.967-14.836-2.967-13.847-21.759-17.802-47.473-33.626-72.199-52.417-3.956-2.967-8.9-4.945-13.846-7.913z"/></svg>