<svg xmlns="http://www.w3.org/2000/svg" width="1000" height="1000">
  <path d="M5 500.496c0 271.98 220.55 494.507 495.496 494.507 271.98 0 494.507-220.55 494.507-495.496C995.003 227.528 773.464 5 500.496 5 226.54 5 5 225.55 5 500.496zm174.067 171.1V321.485c0-8.902 1.978-11.869 8.9-15.825 102.858-58.352 205.716-116.703 310.551-177.033 5.934-2.967 8.901-2.967 14.835 0 102.858 58.352 207.693 118.681 310.55 177.033 7.913 3.956 8.902 6.923 8.902 15.825v350.11c0 7.913-2.967 11.869-8.901 15.825-102.858 58.352-204.726 116.704-308.573 175.055-7.912 2.967-10.879 4.945-16.813.99-104.835-59.341-207.693-117.693-310.55-176.045-6.923-3.956-8.901-7.912-8.901-15.824zm224.506-22.748c1.978 42.528 34.615 77.143 75.165 79.121 44.505 3.956 84.066-22.747 92.967-65.275 9.89-40.55-12.857-83.077-51.429-98.9-8.9-1.979-10.879-5.935-10.879-12.858V406.54c0-3.956 0-5.934 1.978-11.868h56.374c11.868 0 21.758-7.913 21.758-18.792 1.978-13.846-7.912-23.736-21.758-23.736h-58.352V315.55c0-2.967 0-4.945 1.978-7.912h74.176c15.825 0 24.726-9.89 24.726-23.736 0-11.868-8.901-18.791-24.726-18.791h-91.978c-22.747 0-28.681 6.923-28.681 28.681v256.155c0 7.912-.99 11.868-9.89 14.835-33.627 14.835-55.385 48.462-51.43 84.066zm38.571-3.956c0-26.703 21.759-46.483 46.484-46.483s46.484 19.78 46.484 46.483c0 24.726-21.759 46.484-46.484 46.484s-46.484-21.758-46.484-46.484z" style="fill:#000;fill-opacity:1;fill-rule:nonzero;stroke:none;"/>
</svg>
