<svg xmlns="http://www.w3.org/2000/svg" viewBox="0 0 1000 1000"><path d="M499.487,401.892A120.749,120.749,0,1,0,620.236,522.64,120.748,120.748,0,0,0,499.487,401.892Zm0,211.31a90.562,90.562,0,1,1,90.562-90.562A90.562,90.562,0,0,1,499.487,613.2ZM500,0C223.858,0,0,223.858,0,500s223.858,500,500,500,500-223.858,500-500S776.142,0,500,0Zm61.89,269.208.561-.569,42.691,42.692V250.956l1,.008a60.375,60.375,0,1,1-44.251,18.244ZM392.834,250.964l1-.008v60.375l42.691-42.692a60.374,60.374,0,1,1-43.689-17.675ZM742.457,552.827A45.284,45.284,0,0,1,779.729,572.4l.4.6L817.007,628.3a30.176,30.176,0,1,1-26.478,14.706l-35.513-53.27a15.094,15.094,0,0,0-12.072-6.714l-.487-.007-104.594,0a150.823,150.823,0,0,1-17.618,30.188l61.838,0a45.281,45.281,0,0,1,37.271,19.567l.4.6,36.873,55.31a30.175,30.175,0,1,1-26.477,14.705l-35.514-53.27A15.09,15.09,0,0,0,682.57,643.4l-.487-.008-92.024,0a150.98,150.98,0,0,1-181.144,0l-91,0-.487.008a15.1,15.1,0,0,0-11.8,6.312l-.276.4-35.513,53.271a30.19,30.19,0,1,1-26.477-14.707l36.872-55.309.405-.6A45.279,45.279,0,0,1,317.2,613.207l.72,0,60.813,0a150.823,150.823,0,0,1-17.618-30.188l-103.569,0-.487.007a15.1,15.1,0,0,0-11.795,6.313l-.277.4-35.512,53.271A30.19,30.19,0,1,1,183,628.3l36.872-55.309.4-.6a45.283,45.283,0,0,1,36.552-19.562l.72-.006,94.028,0a151.581,151.581,0,0,1-3.009-28.368l-.01-1.823H257.543a45.283,45.283,0,0,1-37.272-19.567l-.4-.6L183,447.168a30.175,30.175,0,1,1,26.477-14.707l35.512,53.271a15.091,15.091,0,0,0,12.072,6.713l.487.008,94.028,0a149.819,149.819,0,0,1,9.541-30.187l-43.679,0A45.281,45.281,0,0,1,280.162,442.7l-.4-.6-36.883-55.322a30.176,30.176,0,1,1,26.74-14.314l35.26,52.891a15.093,15.093,0,0,0,12.071,6.713l.487.008,61.3,0a150.959,150.959,0,0,1,241.515,0l62.322,0,.487-.008a15.091,15.091,0,0,0,11.794-6.312l.277-.4,35.26-52.891a30.19,30.19,0,1,1,26.74,14.314L720.242,442.1l-.4.6a45.28,45.28,0,0,1-36.551,19.561l-.72.006-44.7,0a149.817,149.817,0,0,1,9.54,30.187l95.054,0,.487-.008a15.093,15.093,0,0,0,11.8-6.312l.277-.4,35.513-53.27a30.19,30.19,0,1,1,26.478,14.706l-36.874,55.309-.4.6a45.283,45.283,0,0,1-36.552,19.562l-.72,0H650.422A151.581,151.581,0,0,1,647.4,552.83Z"/></svg>