<svg xmlns="http://www.w3.org/2000/svg" width="1000" height="1000">
  <path d="m214.525 435.902 65.626 39.623c9.906 4.953 11.144 1.238 17.335-6.19L496.841 137.49c2.476-6.191 4.952-6.191 7.429 0l200.592 331.844c6.191 7.43 8.668 9.906 14.859 6.191l69.34-40.861s6.192-6.191-1.238-16.097L546.37 12.429C541.417 5 537.702 5 529.034 5h-58.196c-8.668 0-8.668 0-14.859 7.43L214.525 418.566c-8.667 13.62 0 17.335 0 17.335zM56.033 683.547c-8.668 18.573-2.477 26.003 7.43 33.432l423.472 272.41c8.667 6.19 14.858 8.667 24.764 0l423.473-272.41c9.906-7.43 17.335-16.097 9.906-33.432L852.21 525.054c-4.953-9.906-7.43-9.906-13.62-6.19l-69.341 39.622c-6.191 4.953-6.191 11.144 0 18.574l50.767 89.152c4.953 8.667 0 11.144 0 11.144L504.27 881.663s-2.477 3.714-7.43 0L183.57 678.594s-8.668-6.191-2.477-12.382l48.291-89.152c2.477-6.191 7.43-12.383 0-18.574l-65.626-38.385s-9.906-2.476-16.097 4.953z" style="fill:#000;fill-opacity:1;fill-rule:nonzero;stroke:none;"/>
</svg>
