<svg xmlns="http://www.w3.org/2000/svg" width="1000" height="1000">
  <path d="M500.496 5C223.572 5 5 229.506 5 500.002c0 276.43 224.506 495.001 495.002 495.001 276.43 0 495.001-224.506 495.001-495.001C995.003 226.539 773.464 5 500.496 5zM120.715 675.552c-62.308-51.43-73.187-265.056 0-365.936 17.802 20.77 17.802 40.55 17.802 61.32-8.901 39.56-17.802 82.087-17.802 121.648 0 39.56 0 69.231 8.9 111.759 5.935 23.736 8.902 49.45-8.9 71.209zm0-396.595c99.89-8.901 200.77-20.77 291.759-30.66 30.66-60.33 52.418-111.758 82.088-181.978 61.319 82.088 121.649 152.308 173.078 233.407 71.209 0 131.538-11.868 203.737-11.868-28.682 86.044-41.54 110.77-81.1 204.726-21.758 47.473-22.747 64.286 8.901 111.759 20.77 30.66 42.528 71.209 72.199 110.77-90.99 20.769-193.847 20.769-285.826 29.67-29.67 61.319-51.428 121.648-82.088 194.835-60.33-91.978-120.66-164.176-181.978-234.396-61.32 0-121.65 9.89-191.87 9.89 24.726-62.308 55.386-143.407 90.99-222.528 20.77-37.583 11.868-48.462-8.901-82.088-30.66-39.56-51.429-80.11-90.99-131.54zm29.67 456.925c18.791-8.902 30.66-8.902 49.45 8.9 68.243 69.232 130.55 112.748 212.639 133.518 30.66 8.9 33.626 17.802 52.418 39.56-82.089 30.66-283.847-90.99-314.507-181.978zm0-477.694c30.66-91.979 232.418-203.737 314.507-171.1 0 18.791-13.847 39.56-39.56 39.56-30.66 1.979-52.419 9.89-82.09 21.76-40.549 17.801-83.076 39.56-113.736 79.12-17.802 20.77-48.461 42.528-79.12 30.66zm49.45 406.485c60.33-6.924 121.65-10.88 182.968-20.77-30.659-51.429-61.318-90.99-90.989-130.55 71.21-20.769 133.517-30.66 193.847-42.527 13.846-29.67 23.736-60.33 39.56-99.89-51.428 0-99.89 4.944-142.418 8.9-49.45 10.88-80.11 42.528-101.868 82.089-17.802 42.527-67.253 155.275-81.1 202.748zm3.957-354.068c13.846 24.726 37.582 60.33 47.473 80.11 40.55-19.78 82.088-33.626 111.758-51.428 21.758-9.89 45.495-39.56 19.78-39.56-49.45-1.979-114.725-1.979-179.011 10.878zm159.231 233.408c46.484 52.418 75.165 90.99 110.77 131.539 13.846 15.824 36.593 29.67 82.088 29.67 51.429 0 91.978-4.945 143.407-9.89 33.627-5.934 60.33-10.88 99.89-19.78-39.56-51.43-80.11-91.979-121.648-153.298-18.792 61.32-40.55 101.869-70.22 153.298-42.528-51.43-82.088-101.869-112.748-143.407-58.352 0-72.198-1.978-131.539 11.868zm19.78 151.319c29.67 49.45 72.199 100.88 111.76 152.308 8.9-41.538 21.757-60.33 30.659-81.099-39.561-30.66-82.089-51.429-121.65-82.088 0 0-8.9 5.934-20.769 10.879zm51.43-375.825c60.33 3.956 111.758-3.957 161.209 0-34.616 93.956-56.374 152.308-61.32 193.846 21.759 18.792 42.528 48.462 61.32 79.121 20.769-48.461 41.538-90.989 63.296-130.55 18.792-39.56 8.902-82.088-10.879-122.637-40.55-51.429-71.209-99.89-113.736-151.32-8.901-8.9-17.803-21.758-30.66-30.659-25.714 61.32-48.461 112.748-69.23 162.199zm99.89 598.353c0-30.66 11.868-39.56 30.66-39.56 93.955-11.869 164.175-60.33 225.494-121.65 14.836-17.801 29.67-29.67 51.43-20.768-21.76 90.989-204.727 203.736-307.584 181.978zm0-830.772c82.088-32.637 276.924 79.121 316.484 171.1-23.736 6.923-44.505 14.835-60.33-9.89-30.66-39.561-71.209-69.232-122.637-90.99-72.198-28.681-111.759-36.593-133.517-70.22zm174.066 374.837c0 20.769 0 39.56 20.77 39.56 30.659-48.462 51.428-99.89 70.22-162.198h-80.11c-10.88 51.429-10.88 91.978-10.88 122.638zm151.32 173.077c26.703-68.242 28.68-163.187 11.868-233.407-7.913-37.583-11.869-51.429 9.89-71.21 60.33 49.451 60.33 282.859 0 345.167-30.66-10.88-26.704-21.759-21.759-40.55z" style="fill:#000;fill-opacity:1;fill-rule:nonzero;stroke:none;"/>
</svg>
