<svg xmlns="http://www.w3.org/2000/svg" viewBox="0 0 1000 1000"><path d="M500.496 5C223.572 5 5 229.506 5 500.002c0 276.43 224.506 495.001 495.002 495.001 276.43 0 495.001-224.506 495.001-495.001C995.003 226.539 773.464 5 500.496 5zM215.66 730.936c-.989-152.308-.989-303.627 0-452.968 0-35.605 26.703-65.275 60.33-67.253 33.626-2.967 59.34 7.912 82.088 34.615 110.77 135.495 226.484 270.99 339.232 408.463 0 0 1.978 1.978 3.956 2.967V347.2c-1.978 3.956-5.934 5.934-8.901 9.89-26.703 31.649-56.374 62.308-82.088 92.967-6.923 5.934-10.88 7.913-16.813 2.967-14.836-18.79-30.66-33.626-46.484-49.45-4.945-3.956-4.945-7.912-1.978-11.868 47.473-55.385 90.99-106.814 139.45-160.22 34.616-38.572 96.924-23.737 111.76 24.725 3.956 6.923 3.956 12.857 3.956 21.758v452.968c0 36.594-28.682 65.275-66.264 66.264-31.649 1.978-55.385-9.89-76.155-34.615-112.747-137.473-225.495-270.99-336.264-405.496-2.967-1.978-3.956-3.956-7.913-5.934v304.616c35.605-37.582 66.264-75.165 101.869-112.747.989 3.956 4.945 4.945 6.923 9.89 15.824 14.835 31.648 29.67 46.484 45.495 6.923 2.967 6.923 7.912 2.967 12.857-33.627 40.55-67.253 79.12-99.89 117.692-13.847 14.836-24.726 31.649-37.583 44.506-38.572 37.583-97.913 27.692-116.704-22.747-1.978-6.923-1.978-14.835-1.978-19.78z"/></svg>