<svg xmlns="http://www.w3.org/2000/svg" viewBox="0 0 1000 1000"><path d="M679.893,635.136l172.29-18.7c-2.953,7.876-4.922,13.783-6.891,19.69C796.066,753.278,709.429,824.163,583.411,844.838c-18.706,3.938-37.412,4.923-57.1,4.923-76.793.984-154.569,0-231.361.984H283.133c0-.984-.984-1.969-.984-3.938l176.228-55.133v-1.969L279.2,776.907a125.6,125.6,0,0,1-.984-18.706V640.059c0-20.675-3.938-18.706,17.721-25.6,51.195-16.737,103.374-33.474,154.569-51.195,2.954-.985,6.892-2.954,8.861-5.907H452.47c-42.334-.985-84.668-1.969-126.018-2.954-13.783,0-25.6-1.969-38.4-2.953-6.892,0-9.845-2.954-9.845-9.846V402.791c0-8.861,4.922-10.83,10.829-12.8,46.273-16.737,92.545-33.474,139.8-50.21,1.969,0,2.953-1.969,5.907-2.954L279.2,325.014a90.956,90.956,0,0,1-.984-14.768V181.275c0-13.783,0-14.768,14.768-14.768,81.714,0,163.429-.985,245.144,0,26.582.985,54.148,2.954,81.715,11.814-8.861,9.845-19.691,11.814-29.536,17.721-9.845,4.923-20.675,9.846-33.473,15.753,36.427,4.922,68.916,4.922,102.389,1.969,11.814-.985,23.629-.985,35.443-.985a27.259,27.259,0,0,1,12.8,2.954c40.365,24.613,73.838,57.1,101.4,96.482l3.938,7.876c-51.2,31.5-105.343,56.118-157.523,86.638,6.892-.985,14.768-1.969,22.644-2.954,6.892,0,14.768,0,22.644-1.969,44.3-7.876,87.622-15.752,131.925-22.644,7.876-1.969,12.8,0,14.768,6.892A330.065,330.065,0,0,1,868.92,526.84c-.984,4.922-4.922,9.845-8.861,12.8-49.225,24.613-98.451,50.211-147.677,75.808-10.83,4.923-22.644,9.845-33.473,15.752C678.909,632.183,679.893,633.167,679.893,635.136ZM5.5,501.242C5.5,771.984,225.047,993.5,498.742,993.5,769.484,993.5,991,773.953,991,500.258,991,229.516,770.469,8,498.742,8,226.031,8,5.5,227.547,5.5,501.242Z"/></svg>