<svg xmlns="http://www.w3.org/2000/svg" viewBox="0 0 1000 1000"><path d="M5 500.496c0 89.011 22.747 172.089 67.253 249.232 44.506 74.176 103.846 133.517 178.023 178.022 77.143 44.506 160.22 67.253 250.22 67.253 89.011 0 172.089-22.747 249.232-67.253 74.176-44.505 133.517-103.846 178.022-178.022 44.506-77.143 67.253-160.22 67.253-250.22 0-89.012-22.747-172.09-67.253-249.232-44.505-74.177-103.846-133.517-178.022-178.023C672.585 27.747 589.508 5 500.496 5c-90 0-173.077 22.747-250.22 67.253-74.177 44.506-133.517 103.846-178.023 178.023C27.747 327.419 5 410.496 5 500.496zm138.462 56.374c0-44.506 11.868-55.385 56.374-55.385 54.396 0 97.912-1.978 97.912-34.615 0-25.715-15.824-36.594-35.604-36.594h-71.21c10.88-52.418 36.594-70.22 95.935-55.385 42.528 8.901 67.253 30.66 71.21 66.264 8.9 45.495-12.858 92.968-51.43 107.803 10.88 28.681 26.704 60.33 40.55 94.945h-65.275c-14.835-11.868-22.747-27.692-30.66-55.385-3.956-26.703-24.725-31.648-51.428-31.648zm235.385-177.034c45.495-16.813 62.308-9.89 75.166 30.66 19.78 44.505 36.593 90.99 62.307 142.418 6.924-15.824 35.605-90.99 56.374-137.473 19.78-45.495 24.726-52.418 80.11-40.55 0 10.88-3.956 14.836-4.945 19.78-30.66 76.155-60.33 154.287-95.934 229.452-12.857 23.736-61.319 25.714-71.21 4.945-25.713-58.352-62.307-147.363-101.868-249.232zm264.067 173.078c0-40.55 9.89-51.429 50.44-51.429h66.264c19.78 0 36.593-14.835 36.593-34.615 0-25.715-16.813-36.594-36.593-36.594h-66.264c5.934-50.44 10.88-60.33 57.363-60.33 50.44 0 93.956 19.78 105.824 71.21 9.89 40.549-4.945 76.153-40.55 100.879-4.944 2.967-4.944 2.967-9.89 6.923 9.89 28.681 25.715 60.33 40.55 94.945h-67.253c-2.967 0-9.89 0-14.835-14.835-9.89-24.725-13.846-55.385-35.605-72.198-12.857-8.901-49.45 0-81.099 0 0 0-4.945 0-4.945-3.956z"/></svg>