<svg id="a" xmlns="http://www.w3.org/2000/svg" viewBox="0 0 1000 1000"><path d="M1000,369.458l-42.398-107.567-138.757-59.1-48.822-146.466-123.339-44.968-128.479,55.246L373.025,0l-114.346,47.331-60.385,140.042L59.537,240.049l-42.398,111.776,42.398,115.631L0,612.634l51.828,129.356,137.472,56.942,59.1,147.75,102.783,42.398,135.545-57.584,147.108,68.505,106.637-44.325,59.1-136.187,152.889-60.154,47.537-106.868-59.1-132.102,59.1-150.906Zm-93.789-87.011l34.689,88.65-42.398,96.359-46.252-113.061-304.494-125.909,111.776-47.537,246.679,101.498ZM387.232,497.141l36.717-87.967,181.546,75.777-36.717,87.967-181.546-75.777Zm167.513,109.398l-36.717,87.967-181.546-75.777,36.717-87.967,181.546,75.777Zm-116.763-230.986l36.717-87.967,181.546,75.777-36.717,87.967-181.546-75.777ZM631.267,56.325l92.505,35.974,35.974,96.359-106.637-46.252-195.287,78.372-160.598,382.866-44.968-114.346L391.012,155.253l240.255-98.929Zm-348.177,30.835l89.935-39.828,95.485,41.319-112.187,44.762-125.909,310.918-47.537-115.631,100.213-241.54ZM95.511,264.46l93.327-35.974-41.062,100.47,123.751,315.8-113.061-46.252L59.537,351.826l35.974-87.365Zm-8.994,440.913l-34.689-88.65,42.398-96.359,46.252,113.061,304.494,125.909-111.776,47.537-246.679-101.498Zm274.944,226.122l-92.505-35.974-35.974-96.359,106.637,46.252,195.287-78.372,160.598-382.866,44.968,114.346-138.757,334.044-240.255,98.929Zm348.177-30.835l-89.935,39.828-95.485-41.319,112.187-44.762,125.909-310.918,47.537,115.631-100.213,241.54Zm187.579-177.3l-93.327,35.974,41.062-100.47-123.751-315.8,113.061,46.252,98.928,246.679-35.974,87.365Z"/></svg>