<?xml version="1.0" encoding="utf-8"?>
<!-- Generator: Adobe Illustrator 26.0.1, SVG Export Plug-In . SVG Version: 6.00 Build 0)  -->
<svg version="1.1" id="Layer_1" xmlns="http://www.w3.org/2000/svg" xmlns:xlink="http://www.w3.org/1999/xlink" x="0px" y="0px"
	 viewBox="0 0 1000 1000" style="enable-background:new 0 0 1000 1000;" xml:space="preserve">
<g>
	<path d="M500,186.1c-173.1,0-313.9,140.8-313.9,313.9c0,173.1,140.8,313.9,313.9,313.9S813.9,673.1,813.9,500
		C813.9,326.9,673.1,186.1,500,186.1z M570.5,678.2l-69.3-181.9l48.8-81.5v-16.1l-77.5-43.8v323.4h-44.3V306.9h49.6l116.5,65.9V427
		l-44,73.6l67.7,177.6H570.5z"/>
	<path d="M500.5,5C223.6,5,5,229.5,5,499.5C5,773.5,226.5,995,499.5,995C776.4,995,995,770.5,995,499.5C995,223.6,770.5,5,500.5,5z
		 M500,858.2c-197.5,0-358.2-160.7-358.2-358.2S302.5,141.8,500,141.8S858.2,302.5,858.2,500S697.5,858.2,500,858.2z"/>
</g>
</svg>
