<svg xmlns="http://www.w3.org/2000/svg" viewBox="0 0 1000 1000"><path d="M500.496 995.003c275.935 0 494.507-224.506 494.507-495.496C995.003 226.54 773.464 5 500.496 5 223.572 5 5 229.506 5 499.507c0 276.924 224.506 495.496 495.496 495.496zm-263.078-231.43v-520.22h538.024v518.243l-162.198-119.67V505.44l30.66-22.747-136.485-104.836-136.484 104.836 28.682 23.736v136.484zm204.726-151.318v-71.21c0-35.604 29.67-64.285 63.297-64.285h1.978c33.627 0 63.297 28.681 61.32 64.286v71.209l-63.298-47.473z"/></svg>