<svg xmlns="http://www.w3.org/2000/svg" width="1000" height="1000">
  <path d="M823.702 703.335c-8.587 7.36-17.175 14.72-22.082 20.854-13.494 8.588-14.721 18.402-7.36 29.443 11.04 9.814 20.855 9.814 31.895 2.453 14.722-11.04 29.443-20.855 42.937-34.349 14.721-11.04 15.948-25.762-2.453-36.803-49.07-39.256-100.595-78.513-153.346-117.77-50.297-38.029-100.594-77.285-153.345-116.542-60.111-44.163-376.616-290.742-380.296-290.742 22.081-15.948 36.803-25.762 60.111-42.937 12.268-9.814 55.204-42.937 82.193-63.792 2.454 1.227 26.989 17.175 36.803 24.536 13.494 11.04 24.535 12.267 33.123 1.226 9.814-8.587 9.814-22.081-7.361-33.122 0 0-31.896-24.535-46.617-34.35-11.04-7.36-22.082-8.587-31.896 0-53.977 47.844-114.089 87.1-168.066 130.037-18.402 14.721-18.402 25.762-1.227 40.483 18.401 11.041 31.896 24.536 47.844 35.577 18.401 12.267 34.349 25.762 50.297 38.03 181.56 139.85 364.348 277.248 549.59 415.872 13.494 11.04 24.535 22.081 39.256 31.896zm-698.028-3.68c-1.227 9.813 1.227 15.947 12.268 24.534 116.542 89.554 229.404 175.428 345.947 262.528 12.267 11.04 22.081 11.04 35.576 0 31.896-22.082 63.791-46.617 94.46-69.926-1.226 0 122.677-90.78 131.264-99.368 7.36-6.133 12.268-20.855 3.68-31.895-7.36-7.361-18.401-9.814-29.442-1.227-30.669 23.308-69.925 53.977-106.728 80.966-36.803 26.989-71.152 51.524-106.729 78.513-4.907 3.68-3.68 6.134-9.814 2.454-98.14-74.833-262.527-197.51-280.928-214.684-9.814-7.36 57.658-6.134 94.46-6.134 3.68 0 9.815 6.134 12.268 7.36 72.38 51.525 143.531 105.502 215.91 159.48 9.814 7.36 24.536 7.36 33.123 0 8.587-11.04 3.68-24.535-8.587-33.123-20.855-17.174-42.937-33.122-66.246-51.524-51.524-36.803-101.82-76.059-152.118-114.089-7.36-4.907-15.948-8.587-24.535-8.587-39.257-2.453-76.06 0-114.09 0h-57.657c-11.041 0-20.855 3.68-22.082 14.721zm8.587-382.75c24.536 18.4 46.617 31.895 71.153 52.75 15.948 13.495 615.834 466.17 621.968 469.85-14.72 11.041-28.215 20.855-42.936 31.896-32.632 26.62-67.595 50.788-102.68 74.955-12.513-7.115-23.064-15.334-33.491-23.431-11.041-8.587-20.855-8.587-31.896 0-11.04 9.814-6.134 20.855 7.36 33.123 7.361 7.36 39.257 33.122 39.257 33.122 13.494 8.588 24.535 6.134 34.35-2.453 29.442-19.628 57.657-40.483 84.646-61.338 29.442-22.082 58.885-44.164 84.647-65.019 17.174-9.814 18.401-24.535 2.453-39.256-24.535-18.402-47.844-35.576-71.152-53.978-24.535-18.401-46.617-34.35-71.152-51.524-122.677-94.46-246.58-190.148-369.256-283.382-55.204-41.71-107.955-83.42-161.932-122.676-3.68-3.68-11.041-8.588-15.948-13.495 7.36-7.36 15.948-13.494 22.081-17.174 14.722-11.041 17.175-23.309 6.134-33.123-9.814-8.587-18.401-11.04-30.669 0-12.268 9.814-26.989 18.402-42.937 31.896-22.081 13.494-17.174 23.308 0 39.256zM254.484 212.63c12.268 9.814 18.402 12.267 29.442 3.68 68.576-51.524 139.729-106.606 216.892-165.49 10.428 8.587 54.959 43.304 121.695 93.11 36.803 26.99 74.832 56.432 111.635 84.647 20.855 14.722 41.71 31.896 63.792 49.071h-99.368c-7.36 0-13.494-6.134-22.082-9.814-71.152-53.978-141.077-110.409-211.003-160.706-13.494-8.587-24.535-8.587-34.35 0-7.36 9.814-3.68 24.535 9.815 31.896 36.803 29.442 74.833 57.658 111.635 88.327 36.803 30.669 77.286 55.204 114.09 83.42 3.68 3.68 11.04 7.36 18.4 7.36h170.52c11.042 0 20.856-3.68 24.536-14.721 1.227-11.04 0-17.175-11.04-25.762-116.543-88.327-231.86-177.88-349.629-266.207-13.495-8.588-23.309-8.588-33.123 0-58.884 51.524-122.676 93.233-184.014 138.624-13.495 9.814-28.216 20.855-44.164 33.122-8.587 6.134-14.72 19.628-3.68 29.443z" style="fill:#000;fill-opacity:1;fill-rule:nonzero;stroke:none;"/>
</svg>
