<svg xmlns="http://www.w3.org/2000/svg" viewBox="0 0 1000 1000"><path d="M728.4,333.21a122.62,122.62,0,0,1,24,75c-1.35,67.18-56,120.53-122.56,120.53h-2.37l-109.05-2-40.18-1-70.56-1.35h-2c-28.36,0-54.69,10.8-75.29,30.39-20.93,20.25-32.75,46.93-33.08,76A106.23,106.23,0,0,0,306,675.23l2,5.06-3.38-4.39a100.56,100.56,0,0,1-21.27-64.82c1-56.38,47.27-101.63,103.32-101.63h2l76.31,1.35.33-24.31-76.3-1.35h-2.36c-69.22,0-126.28,55.71-127.63,125.26a127.1,127.1,0,0,0,11.15,54.7l2.7,6.08-4.05-5.41a121.88,121.88,0,0,1-24-74.95c1-66.85,56.05-120.53,122.56-120.53h2.37l109.72,2v.34l38.83,1v-.34h.68l70.56,1.35h2c28.36,0,54.69-10.81,75.29-30.39,20.93-20.26,32.75-46.93,33.08-76a106.2,106.2,0,0,0-8.77-44.57l-2-5.07,3.38,4.39a100.59,100.59,0,0,1,21.27,64.83c-.34,27.68-11.82,53.34-31.74,72.59-19.58,18.57-44.9,29-71.58,29h-2l-76.31-1.35-.33,24.31,76.3,1.35h2.36a127.71,127.71,0,0,0,116.48-180l-2.7-6.08ZM995,500c0,273.38-221.62,495-495,495S5,773.38,5,500,226.62,5,500,5,995,226.62,995,500ZM766.56,297.42C729.42,258.94,673.37,239,604.5,239c-45.58,0-71.24,13.51-93.86,39.84-23,27-28.36,61.79-28.7,86.1l-1.35,69.89,38.82,1L520.76,366c.34-17.89,6.08-35.45,16.21-47.94,10.8-13.51,25.32-20.93,41.87-20.93h1c18.57.33,32.75,4.72,42.88,12.83,10.46,8.77,15.87,21.94,15.53,39.16a65.12,65.12,0,0,1-19.92,45.58,63.63,63.63,0,0,1-46.26,18.23l-37.81-.67-.34,24.31,37.82.67h1.68a89.37,89.37,0,0,0,89.14-87.44c.34-11.82-2-23.3-6.08-34.44l-1.69-4.39,3,3.38A84.86,84.86,0,0,1,676.75,369c-.68,45.92-38.49,82.72-84.07,82.72H591l-70.56-1.35-40.18-1-109-2h-2.7a146.73,146.73,0,0,0-133,209l-1,.68A141.77,141.77,0,0,1,352,432.47l114.79,2,.34-24.31-114.79-2h-3A166,166,0,0,0,183.48,571.24c-1,54.69,16.2,103.31,48.61,136.06C267.21,742.75,318.19,761,384.36,761c44.57,0,79-13.84,102-40.85,18.57-21.61,29-52,29.71-85.08l1.35-69.89-38.83-1L477.21,634c-.34,17.89-6.08,35.45-16.21,47.94-10.8,13.84-26,21.27-42.87,20.93-18.57-.33-32.75-4.72-42.88-12.83-10.47-8.77-15.87-21.94-15.53-39.16a65.07,65.07,0,0,1,64.82-63.81h1l37.82.67.34-24.31-37.82-.67H424.2a89.36,89.36,0,0,0-89.13,87.44c-.34,11.82,2,23.3,6.08,34.44l1.69,4.39-3-3.38A84.86,84.86,0,0,1,320.89,631c.68-45.92,38.49-82.72,84.07-82.72h1.69l70.56,1.35,40.18,1,109.05,2h2.7c79.68,0,145.18-64.15,146.87-144.17a147.35,147.35,0,0,0-13.84-64.82l1-.68A141.77,141.77,0,0,1,645.69,567.53l-114.8-2-.33,24.31,114.79,2h3c43.21,0,87.44-16.88,120.87-46.59,35.45-31.4,46.59-72.93,47.27-116.48C817.54,377.78,799.64,331.19,766.56,297.42Z"/></svg>