<svg xmlns="http://www.w3.org/2000/svg" viewBox="0 0 1000 1000"><path d="M937.746 682.977h-74.843c-62.369 0-106.594 6.804-161.025 73.709-34.02 41.957-71.44 79.378-107.728 116.8-31.751 32.885-62.369 66.904-92.986 102.058-27.216 30.617-46.493 23.813-58.967-11.34-15.876-44.225-32.886-87.317-51.03-132.676-15.875-40.823-31.75-86.182-51.028-129.273-6.804-14.742-6.804-19.278-20.412-19.278-6.804 0-120.202 4.536-148.551 4.536-23.814 0-38.556-5.67-46.493-31.752-31.752-95.254-68.04-193.91-102.059-290.298-12.473-35.154-6.803-46.494 30.618-46.494h158.757c6.804 0 22.68-9.071 27.215-15.875 86.183-94.12 171.231-187.107 250.61-276.691 29.483-32.886 49.895-27.216 65.77 12.474 11.34 41.957 29.484 81.646 43.092 123.603 19.278 46.493 35.153 92.987 53.297 137.212 1.134 10.206 7.938 13.608 24.948 13.608H827.75c22.68 0 39.69 9.071 45.359 32.885 19.278 66.905 43.091 132.676 69.173 196.178 12.474 30.618 20.411 61.235 34.02 91.853 15.875 36.287 5.67 48.76-38.556 48.76zm-855.02-310.71c15.875 47.627 34.019 91.852 49.894 137.211 13.608 38.555 28.35 73.709 41.958 111.13 5.67 17.01 74.842 13.608 158.757 6.804 14.742-3.402 29.483-19.278 83.914-78.245 13.608-14.741 27.216-30.617 40.824-46.493 11.34-9.072 6.803-13.608 6.803-15.876-7.937-24.947-15.875-47.627-23.813-71.44-6.804-11.34-11.34-24.948-15.876-35.154-2.268-3.402-6.804-7.937-7.938-7.937zM301.582 313.3h123.604c28.35 0 39.69 10.205 48.761 36.287 11.34 34.02 30.618 95.254 34.02 97.522 4.536-6.804 11.34-12.474 18.143-19.277 10.206-10.206 18.144-19.278 24.948-27.216 7.938-10.206 15.876-19.278 24.947-27.215 15.876-13.608 27.216-27.216 29.484-41.958 4.536-13.607-2.268-27.215-12.474-45.359-3.402-9.072-7.938-19.278-13.608-29.483-20.411-36.288-28.35-79.379-44.225-121.336-6.804-19.278-13.608-35.154-19.278-54.431-34.019 35.153-65.77 70.307-97.522 106.594-38.555 41.957-77.11 83.914-116.8 125.872zm86.183 349.265c3.402 27.216 14.742 54.431 27.215 82.78 6.804 19.278 14.742 38.556 21.546 57.834C449 838.332 477.35 912.04 477.35 916.577c71.44-78.245 140.614-151.954 214.322-233.6-44.225 0-81.646 4.536-117.934 4.536-22.68 0-43.09-12.474-49.895-32.886-6.804-19.277-31.751-94.12-35.153-105.46-34.02 39.69-66.905 78.245-100.924 108.862zm148.551-163.293c-7.938 12.474 12.474 66.905 39.69 131.542h3.401c115.666 0 233.6 0 350.4 4.536-106.594-258.548-104.326-263.083-120.202-263.083h-148.55c-3.402 0-11.34 5.67-15.876 9.071-1.134 3.402-100.924 109.996-108.862 117.934z"/></svg>