<svg xmlns="http://www.w3.org/2000/svg" viewBox="0 0 1000 1000"><path d="M500,0C223.858,0,0,223.858,0,500s223.858,500,500,500,500-223.858,500-500S776.142,0,500,0Zm261.056,834.853h-111.618c6.91-121.717,20.729-397.04-67.502-406.608-17.54-1.595-36.674,5.847-55.809,23.387-71.754,64.313-120.654,188.687-123.843,383.221h-111.618v-1.063c4.252-194.002,6.91-415.112-17.008-668.644h112.681c7.973,89.826,12.756,178.057,15.414,260.973,15.414-22.324,31.891-41.458,49.962-57.403,38.269-34.548,81.322-52.088,124.906-52.088,5.847,0,11.693,.531,17.54,1.063,90.357,10.099,145.635,84.511,164.238,222.173,12.756,95.672,7.441,205.164,2.658,294.99Z"/></svg>