<svg xmlns="http://www.w3.org/2000/svg" width="1000" height="1000">
  <path d="M5 500.496c0 89.011 22.747 172.089 67.253 249.232 44.506 74.176 103.846 133.517 178.023 178.022 77.143 44.506 160.22 67.253 250.22 67.253 89.011 0 172.089-22.747 249.232-67.253 74.176-44.505 133.517-103.846 178.022-178.022 44.506-77.143 67.253-160.22 67.253-250.22 0-89.012-22.747-172.09-67.253-249.232-44.505-74.177-103.846-133.517-178.022-178.023C672.585 27.747 589.508 5 500.496 5c-90 0-173.077 22.747-250.22 67.253-74.177 44.506-133.517 103.846-178.023 178.023C27.747 327.419 5 410.496 5 500.496zm90 69.231c-10.879-52.418-8.9-98.901.99-156.264 35.604-151.32 124.615-254.177 267.033-309.562 6.923-2.967 6.923-.989 6.923 4.945V256.21c0 2.967-2.967 7.912-6.923 9.89-72.198 47.472-115.715 111.758-125.605 195.825-11.868 112.747 30.66 201.758 125.605 265.055 4.945 2.967 6.923 5.935 6.923 11.869v146.374c0 4.945-1.978 5.934-6.923 4.945C215.66 830.827 126.65 725.002 95 569.728zm320.44 326.375a22803.77 22803.77 0 0 0 0-520.222c0-6.923 2.968-9.89 7.913-11.868 55.385-24.725 110.77-24.725 166.154 0 5.935 1.978 7.913 4.945 7.913 11.868v520.222c0 6.923-1.978 10.879-8.902 10.879-57.362 9.89-105.824 9.89-163.187 0-6.923 0-9.89-3.956-9.89-10.88zm0-662.64c1.979-46.483 0-92.967 1.979-138.462 0-1.978 2.967-6.923 5.934-6.923 72.198-15.824 109.78-14.835 165.165-.989 6.924.99 8.902 2.967 8.902 8.901v137.473c0 4.945 0 5.934-7.913 4.945-55.384-17.802-110.77-17.802-166.154 0-4.945.99-7.912.99-7.912-4.945zm228.463 651.76V737.86c0-4.945 3.956-7.913 6.923-10.88 86.045-57.362 130.55-138.462 127.583-243.297-5.934-93.956-49.45-166.155-127.583-216.594-5.934-4.945-6.923-7.912-6.923-12.857V110.825c0-7.913 0-9.89 8.901-6.924 195.825 80.11 301.65 266.045 264.067 473.738-33.626 150.33-122.638 255.166-266.045 310.55-5.934 2.968-6.923 1.979-6.923-2.966z" style="fill:#000;fill-opacity:1;fill-rule:nonzero;stroke:none;"/>
</svg>
