<svg xmlns="http://www.w3.org/2000/svg" viewBox="0 0 1000 1000"><path d="M500.496 5C223.572 5 5 229.506 5 500.002c0 276.43 224.506 495.001 495.002 495.001 276.43 0 495.001-224.506 495.001-495.001C995.003 226.539 773.464 5 500.496 5zM204.781 670.607V221.594c0-6.923 8.901-6.923 17.802-6.923 37.583 0 77.143-.989 115.715 0 89.011 0 159.231 41.539 159.231 129.56 0 21.76-2.967 44.507-12.857 66.265-6.923 14.835-43.517 58.352-43.517 58.352-2.967 3.956 1.978 12.857 56.374 155.275 3.956 12.857 8.901 24.725 13.846 36.593 3.956 11.869 0 16.814-11.868 16.814H446.1c-4.945 0-9.89-.99-11.868-7.912-11.868-31.649-23.736-61.32-33.626-91.979-11.868-27.692-19.78-55.385-29.67-81.099-2.968-7.912-2.968-7.912-10.88-7.912h-70.22c-5.934 0-5.934 0-5.934 5.934v168.132c0 13.847-2.967 14.836-15.824 14.836h-45.495c-7.912 0-12.857-.99-17.802-6.923zm79.121-252.2c0 3.957.989 5.935 4.945 5.935 10.88 0 22.747.99 34.616 0 11.868 0 22.747-1.978 34.615-1.978 15.824-3.956 30.66-11.868 43.517-24.725 18.791-19.78 20.769-44.506 15.824-68.242-2.967-11.869-7.912-18.792-15.824-26.704-12.857-12.857-27.693-17.802-43.517-21.758-22.747-.99-47.473 0-72.198-.99-2.967 0-1.978.99-1.978 4.946v66.264zm262.089 423.3v-452.97c0-8.9 2.967-10.879 11.868-10.879h42.528c8.9 0 11.868 1.978 11.868 9.89v27.693c46.483-55.385 139.45-55.385 192.858-10.88 73.187 58.353 80.11 197.804 19.78 266.046-28.682 33.626-64.286 54.395-108.792 55.384-24.725 1.978-47.472-.989-70.22-11.868-10.879-5.934-30.66-19.78-32.637-24.725v151.32c0 9.89-2.967 11.867-12.857 11.867h-42.528c-8.901 0-11.868-2.967-11.868-10.879zm64.286-301.65c0 47.472 15.824 83.077 43.516 104.835 40.55 31.649 90.99 23.737 122.638-16.813 14.835-17.802 23.737-38.572 24.726-61.319 4.945-41.539-3.957-80.11-36.594-110.77-15.824-15.824-35.605-22.747-57.363-22.747-27.692 0-50.44 12.857-68.242 33.627-18.791 22.747-28.681 50.44-28.681 73.187z"/></svg>