<?xml version="1.0" encoding="utf-8"?>
<!-- Generator: Adobe Illustrator 26.0.1, SVG Export Plug-In . SVG Version: 6.00 Build 0)  -->
<svg version="1.1" id="Layer_1" xmlns="http://www.w3.org/2000/svg" xmlns:xlink="http://www.w3.org/1999/xlink" x="0px" y="0px"
	 viewBox="0 0 1000 1000" style="enable-background:new 0 0 1000 1000;" xml:space="preserve">
<path d="M248.8,451.9c0-17.6,0.5-31.7,0.5-45.8c0-119.9,0.9-258.9-0.6-378.8c0-19.5,6.7-25.1,25.6-25.1c0,0,92,0,120.9,0
	c19.1,0,27.1,9.9,27.1,26.4c0,87-0.6,190.9-0.6,277.9c0,12.8,0,25.7,0,51c12.2-19.1,18.5-27.9,23.7-37.2
	c52.1-94.5,104.8-188.7,155.4-284c13.6-25.7,24.7-34.1,53.5-34.1c32.8,0,73.9,0.7,108.4,0.7c40.1,0,47.5,13.2,28.1,48.8
	C728.5,166,665.3,280,602.5,394.2c-9.3,17-18,34.4-30.2,57.6l203.5,1c16.7,0,32.4,18.9,43.7,28.8c-11.2,8.7-25.8,24.8-39.3,24.8
	l-209.8,1.3c8.3,16.6,14.1,29.2,20.8,41.4C662.8,679.6,734.6,809.9,806,940.3c21.6,38.2,23.4,57.5-22.4,57.5s-51.1,0-76.8,0
	c-45.9,0-59.4-30-59.4-30S444.1,642.1,372.7,525.3c14.1,65.1,34.2,129.6,40.8,195.4c8.3,83.5,6.8,167.8,6.8,252
	c0,15.4-7.4,23.9-24.9,23.9c0,0-116.8-0.2-123.3,0c-12.7,0-22.8-3.3-22.8-23.2c0-105.4,0-313.9,0-419.3c0-14.1,0-28.3,0-46.3
	c-39.1,0-105.4-1.4-105.4-1.4c-15.9,0-27.2-18.4-40-28.3c12.6-8.8,26.8-26.3,40-26.3C144,451.9,209.4,451.9,248.8,451.9z"/>
</svg>
