<svg xmlns="http://www.w3.org/2000/svg" viewBox="0 0 1000 1000"><path d="M990.037 13.51c-36.877 38.295-76.59 75.172-113.468 107.794C758.847 240.444 634.034 362.42 516.311 482.98c-14.183 11.347-14.183 19.857 0 34.04C673.747 670.2 826.928 821.963 975.853 977.98c4.255 2.837 8.51 7.092 17.02 9.929-8.51 7.091-12.765 7.091-17.02 7.091H516.311c-8.51 0-22.693-9.928-25.53-14.183L266.684 756.719c-4.255-4.255-7.092-4.255-12.765-8.51-78.009 79.427-157.436 158.854-239.7 236.863h-7.09V17.765c7.092 0 7.092 0 7.092-4.255 79.427 83.682 157.435 163.109 235.444 243.954 32.622-34.04 60.988-56.733 89.355-86.518 52.479-49.642 103.539-102.12 154.6-157.436C499.29 9.255 507.8 5 516.31 5h463.797l4.255 4.255c5.674 0 5.674 4.255 5.674 4.255z"/></svg>