<svg xmlns="http://www.w3.org/2000/svg" viewBox="0 0 1000 1000"><path d="M500,995c273.38,0,495-221.62,495-495S773.38,5,500,5,5,226.62,5,500,226.62,995,500,995ZM201,285.73,346.73,140H416c-18.76,10.82-80.8,88-96.67,145.73ZM486.69,140V285.73h-140c9.86-30.06,45-101.29,106.78-145.73Zm28.14,145.73h141.4C623.33,207.24,569.9,155.87,547.29,140H514.83Zm283.52,0H683.65c-18-43.28-50.65-103-97.4-145.73h64.93ZM315.71,714.27H201L348.17,860H413.1C366.36,817.29,333.74,757.55,315.71,714.27Zm27.41,0H484.53V860H452.06C429.46,844.13,376,792.76,343.12,714.27Zm169.54,0V860h33.19c61.75-44.44,96.91-115.67,106.77-145.73ZM652.62,860,798.35,714.27H680C664.17,772,602.12,849.18,583.36,860ZM474.21,608.54q7.5-21.57,7.5-48.3,0-27.66-7-47.83-6.56-20.16-18.28-32.83a67.4,67.4,0,0,0-26.73-19.22,77.55,77.55,0,0,0-31.42-6.57,59.47,59.47,0,0,0-15.95,2.35,33.1,33.1,0,0,0-13.13,7l-.46-.47,67.52-126.61H374.79L309.14,464.58A285.26,285.26,0,0,0,289.91,511a175.51,175.51,0,0,0-7,50.65q0,26.26,7,47.36,7.51,21.11,20.64,35.64A90.58,90.58,0,0,0,342,667.16a105.27,105.27,0,0,0,40.32,7.5,104,104,0,0,0,39.86-7.5,90.58,90.58,0,0,0,31.42-22.51Q466.71,629.65,474.21,608.54ZM417,511.94q11.25,18.77,11.25,47.83,0,30.48-12.19,49.71-11.73,18.75-33.3,18.76T349,610q-12.19-18.76-12.19-49.24A102.59,102.59,0,0,1,340.09,534a68.54,68.54,0,0,1,9.38-21.1A46,46,0,0,1,364,498.34a36.08,36.08,0,0,1,19.22-5.16Q405.75,493.18,417,511.94ZM679.6,648.87q21.1-27.68,21.1-77.37V336.09H644.9V566.34q0,26.73-6.57,42.2T612.54,624q-13.59,0-22-9.85a57.68,57.68,0,0,1-10.78-22.51l-46.9,20.16q7,29.55,28.14,47.37,21.1,17.34,53.46,17.35Q659,676.54,679.6,648.87Z" fill-rule="evenodd"/></svg>