<svg xmlns="http://www.w3.org/2000/svg" width="1000" height="1000">
  <path d="M500.496 995.003c275.935 0 494.507-224.506 494.507-495.496C995.003 226.54 773.464 5 500.496 5 223.572 5 5 229.506 5 499.507c0 276.924 224.506 495.496 495.496 495.496zM178.078 677.53V468.848c2.967-1.978 4.945-3.956 6.923-5.934 95.934-95.935 191.868-189.891 285.825-285.826 1.978-1.978 3.956-3.956 5.934-7.912h212.638c3.956 4.945 5.934 7.912 8.901 11.869 42.528 42.527 85.055 85.055 128.572 127.582 4.945 5.934 8.901 10.88 8.901 18.792a6013.769 6013.769 0 0 0 0 188.901c0 6.923-1.978 11.869-7.912 17.803-50.44 50.44-101.869 99.89-151.32 153.297-41.538 45.495-86.044 87.033-129.56 130.55-5.934 5.934-11.868 9.89-20.77 8.9-61.318 0-122.637 0-184.945.99-9.89 0-14.835-3.956-21.758-9.89a8123.472 8123.472 0 0 0-130.55-130.55c-2.967-4.945-6.923-6.923-10.88-9.89zm66.263-34.616c0 5.934 1.978 11.868 6.924 15.824l98.901 98.902c2.967 4.945 7.912 5.934 12.857 5.934h141.43c6.922 0 9.89-1.978 14.834-6.923 23.737-23.736 47.473-47.473 71.21-72.198l5.934-5.934c-1.978 0-5.935-.99-7.913-.99h-99.89c-6.923 0-11.868-.988-16.813-6.922L334.342 533.134c-5.934-4.945-6.923-8.902-6.923-16.814v-97.912c0-1.978-.99-3.956-.99-4.945-1.977.989-2.966 1.978-3.955 2.967-24.726 22.747-47.473 46.484-72.198 70.22-3.957 4.945-5.935 8.901-5.935 14.835v70.22c0 23.737 1.978 48.462 0 71.21zm146.375-149.341c0 3.956.989 7.912 3.956 10.88 36.593 34.615 71.209 71.208 105.824 105.824 2.967 2.967 4.945 3.956 9.89 3.956H617.2c4.945 0 4.945-1.978 4.945-5.934V499.507c0-4.945-.99-7.912-3.956-10.879A4946.423 4946.423 0 0 0 516.32 386.76c-2.967-2.968-4.945-3.957-8.9-3.957H396.65c-4.945 0-5.934 1.978-5.934 5.935zm31.648-175.055c.99 0 2.967.989 3.956.989H527.2c6.923-.99 12.857.989 17.802 6.923 44.505 44.505 88.022 89.01 133.517 132.528 5.934 5.934 6.923 11.868 6.923 19.78v100.88c0 .988.989 2.966 1.978 3.955l1.978-1.978c26.703-25.714 52.418-52.417 79.121-77.143 2.967-3.956 2.967-7.912 2.967-11.868V354.122c0-4.945-.989-8.901-5.934-12.857-33.626-33.627-68.242-67.253-101.868-101.869-3.957-4.945-8.902-5.934-13.847-5.934H513.353c-5.934 0-10.879.99-14.835 5.934-23.736 24.726-49.45 48.462-73.187 73.187-1.978 1.978-1.978 3.956-2.967 5.935z" style="fill:#000;fill-opacity:1;fill-rule:nonzero;stroke:none;"/>
</svg>
