<svg xmlns="http://www.w3.org/2000/svg" viewBox="0 0 1000 1000"><path d="M5 500.496c0 271.98 220.55 494.507 495.496 494.507 271.98 0 494.507-220.55 494.507-495.496C995.003 227.528 773.464 5 500.496 5 226.54 5 5 225.55 5 500.496zm159.231 114.726V360.056c37.583 16.813 107.803 46.484 149.341 66.264 3.957 3.956 9.89 15.824 9.89 20.77 3.957 29.67 3.957 58.351 0 86.044 0 7.912-1.977 14.835-9.89 16.813-43.516 21.758-89.01 43.516-133.516 61.319-3.957 3.956-7.913 3.956-15.825 3.956zm17.803-290.77c53.406-59.341 105.824-121.65 160.22-180.99h5.934c7.912 45.495 15.824 95.934 25.714 140.44 6.923 29.67 6.923 47.473-7.912 69.231-32.637 42.528-17.802 49.45-52.418 34.616-39.56-21.759-81.099-38.572-120.66-56.374-3.955-3.956-7.911-3.956-10.878-6.923zm6.923 344.177c-6.923-7.913-8.901-15.825 3.956-21.759 42.527-18.791 89.011-38.571 130.55-60.33 15.824-3.956 20.769 0 28.681 10.88 17.802 20.769 35.605 41.538 57.363 67.253 6.923 5.934 10.879 17.802 2.967 27.692-20.77 46.484-42.528 89.011-64.286 135.495 0 2.967-3.956 5.934-5.934 9.89-20.77-25.714-38.572-45.495-60.33-67.253-31.648-35.604-60.33-66.264-92.967-101.868zm194.835 182.967c21.759-48.461 43.517-98.901 67.253-147.363 3.957-7.912 11.869-11.868 13.847-11.868h89.01c3.957 0 7.913-3.956 13.847 11.868 25.715 48.462 46.484 98.902 71.21 147.363zm226.485-155.275c-5.934-13.846-5.934-25.714 3.956-35.605 17.802-21.758 35.604-42.527 54.396-67.253 5.934-10.879 17.802-10.879 27.692-6.923 42.528 21.759 89.011 41.539 131.539 60.33 9.89 5.934 13.846 9.89 5.934 17.803-52.418 57.362-102.857 112.747-159.231 173.077 0 .989-60.33-132.528-64.286-141.429zm39.56-443.078c10.88-35.605 18.792-74.177 24.726-109.781 0 0 0-7.912 7.912 0 42.527 49.45 85.055 99.89 127.583 144.396 9.89 11.868 20.769 21.758 31.648 36.594-10.88 2.967-21.758 10.879-28.681 13.846-38.572 17.802-78.132 34.615-116.704 52.418-9.89 7.912-17.802 3.956-24.725-5.935-38.572-43.516-38.572-71.209-21.759-131.538zm46.484 275.935c-3.956-23.737-3.956-52.418 0-82.089 0-4.945 3.956-16.813 11.868-16.813 44.506-21.758 90-42.527 137.473-64.286 2.967-1.978 5.934-1.978 9.89-1.978V618.19c-21.758-9.89-42.527-17.802-60.33-24.726-27.692-13.846-56.373-28.68-86.044-43.516-4.945-1.978-12.857-12.857-12.857-20.77z"/></svg>