<svg xmlns="http://www.w3.org/2000/svg" viewBox="0 0 1000 1000"><path d="M5 500.496C5 225.55 226.54 5 500.496 5c272.968 0 494.507 222.528 494.507 494.507 0 274.946-222.528 495.496-494.507 495.496C225.55 995.003 5 772.475 5 500.496zm69.231 132.528c0 25.714 13.846 41.539 26.703 53.407 40.55 40.55 196.814 34.615 272.968 0 7.912-5.934 4.945-4.945 14.836-11.868h35.604c25.714 0 40.55 0 47.473-28.682-21.759 12.857-34.616 12.857-61.32 12.857-4.944-1.978 0-8.9 0-12.857 13.847-34.615 13.847-61.319 13.847-96.923 0-123.627-80.11-137.473-212.638-137.473-11.868 0-11.868-14.835-11.868-14.835 0-10.88 2.967-23.737 11.868-37.583h14.835c112.748 0 245.276-35.604 183.957-96.923-33.627 32.637-121.649 30.66-224.506 15.824-29.67 0-65.275 114.726-85.056 195.825-8.9 23.736 2.967 31.648 21.759 21.758 63.297-21.758 109.78-21.758 163.187-8.901 62.308 22.747 75.165 75.165 50.44 124.616-5.934 12.857-12.857 12.857-12.857 12.857-25.715-12.857-37.583-26.703-61.32-39.56-78.131-35.605-187.912-31.65-187.912 48.461zm48.462-8.901c12.857-19.78 42.527-23.736 103.846-12.857 27.693 7.912 51.429 17.802 71.21 34.615-32.638 28.682-66.265 34.616-147.364 19.78-26.703-9.89-36.593-25.714-27.692-41.538zm124.615 146.374c-14.835 19.78-7.912 34.616 14.836 47.473 74.176 51.428 148.352 77.143 251.21 77.143 205.714 0 370.88-134.506 395.605-346.155 43.517-275.935-216.594-505.386-498.463-439.123-62.308 12.858-112.748 41.54-163.187 75.166-18.792 17.802-17.803 19.78 14.835 50.44 12.857 12.856 12.857 12.856 23.736 0 37.583-22.748 62.308-36.594 102.858-50.44 61.318-26.704 132.527-26.704 199.78-11.869 70.22 11.869 146.375 62.308 180.99 109.781 77.143 90 101.869 190.88 77.143 301.65-25.714 90-77.143 149.34-152.308 200.77-57.363 32.637-133.517 46.483-195.825 46.483-74.176 0-137.473-26.703-200.77-61.319-20.77-10.88-33.626-21.758-50.44 0z"/></svg>