<svg xmlns="http://www.w3.org/2000/svg" viewBox="0 0 1000 1000"><path d="M637.43 175.514c1.272-30.54 11.452-55.99 26.722-81.44 15.27-24.177 38.175-45.81 64.897-58.534 26.722-12.725 55.99-22.905 86.53-22.905 33.084 0 61.08 8.907 89.074 22.905 27.995 13.997 50.9 36.902 66.17 62.352C986.093 123.342 995 152.61 995 181.877c0 30.54-10.18 59.807-24.177 83.984-15.27 26.723-38.175 47.083-66.17 62.353-27.995 15.27-55.99 21.632-89.074 21.632h-5.09c-25.45-36.902-50.9-69.987-77.623-96.71-26.722-26.722-57.262-50.9-95.437-77.622zM5 515.27c0-6.362 1.272-19.087 1.272-38.175l139.975-41.992 216.324 449.19-73.805 66.17c-55.99-24.177-105.617-58.534-147.61-101.8-41.992-44.536-77.622-92.891-99.254-148.881C18.997 641.247 5 580.168 5 515.27zm3.817-57.262c7.635-64.897 27.995-127.25 62.352-181.967l67.443 141.247zM81.35 255.681c44.538-63.624 99.255-114.524 167.97-152.699 69.987-39.447 146.336-58.535 226.504-58.535 15.27 0 29.267 0 41.992 1.273l25.45 244.319-386.839 120.887zm82.712 171.787 383.021-120.887 40.72 379.204L376.568 872.84zm145.065 529.358 61.08-52.172 40.72 78.894c-35.63-5.09-68.715-13.997-101.8-26.722zm76.35-67.442 204.871-180.695 29.267 255.772c-48.354 16.542-94.164 22.905-143.791 22.905-12.725 0-27.995 0-44.538-1.273zM535.63 48.264c34.357 5.09 71.26 13.998 104.344 25.45-8.907 15.27-16.542 29.268-21.632 45.81-10.18-5.09-19.087-11.452-25.45-13.997-3.817-1.272-7.635 0-8.907 1.273-3.818 3.817-8.908 3.817-10.18 7.635l-11.453 30.54c-1.272 3.817-2.545 8.907 0 11.452 1.273 1.272 3.818 3.817 7.635 6.362 16.543 10.18 36.903 24.178 57.262 39.448 29.268 22.905 59.808 45.81 83.985 71.26 24.177 26.722 49.627 55.99 73.805 87.801 16.542 21.633 30.54 43.265 41.992 64.898 1.273 2.545 3.818 5.09 7.635 5.09h3.818c2.545 0 3.817 0 6.362-2.545l31.812-21.633c2.545-1.272 3.818-5.09 5.09-6.362 2.545-2.545 1.273-6.363 0-8.908-1.272-3.817-5.09-10.18-7.635-17.815 15.27-5.09 29.268-10.18 43.265-19.087l10.18 22.905c1.273 2.545 1.273 3.817 1.273 5.09L604.345 670.515zm71.26 645.156 327.03-288.857c8.908 35.63 12.726 72.532 12.726 110.707 0 67.443-12.725 132.34-40.72 192.147-27.995 59.807-62.352 110.707-108.162 153.972-47.083 43.265-103.072 77.622-162.88 97.982z"/></svg>