<svg xmlns="http://www.w3.org/2000/svg" viewBox="0 0 1000 1000"><path d="M894.59 250.55H622.164V5c-64.747 30.541-124.607 52.53-180.803 83.072-17.103 7.33-35.428 37.87-35.428 54.974-2.443 194.24-2.443 389.703 0 579.058 0 107.505 43.98 190.576 142.933 232.112 109.947 52.53 224.782 56.196 337.173 0-17.103-56.195-35.428-102.618-51.31-145.375-47.643 0-91.622 7.33-129.493-6.109-29.32-7.33-73.299-37.87-76.964-58.638-9.773-103.84-6.108-208.901-6.108-320.07H894.59zM105.41 354.39c0 64.747 36.649 120.942 103.84 120.942 58.638-2.443 94.066-56.195 94.066-116.056 0-64.747-32.985-119.72-98.954-119.72-62.303 1.221-94.066 54.973-98.953 114.834z"/></svg>