<svg xmlns="http://www.w3.org/2000/svg" viewBox="0 0 1000 1000"><path d="M500.496 5C223.572 5 5 229.506 5 500.002c0 276.43 224.506 495.001 495.002 495.001 276.43 0 495.001-224.506 495.001-495.001C995.003 226.539 773.464 5 500.496 5zm-301.65 186.924c0-4.945 7.913-4.945 14.836-4.945h143.407c13.846 49.45 23.736 92.967 37.583 151.319H258.188c-12.858 0-17.803-7.912-22.748-22.748-14.835-43.516-28.681-79.12-36.593-123.626zm51.43 181.978h144.396c7.912 0 11.868 1.978 15.824 14.836 12.857 50.44 20.77 80.11 35.604 129.56H308.627c-7.912 0-19.78-3.956-21.758-13.846-13.846-42.527-22.747-87.033-36.593-130.55zm58.351 181.979h145.385c12.858 58.352 27.693 123.627 42.528 181.979 43.517-122.638 122.638-463.848 152.308-550.881h160.22c-66.263 215.605-123.626 434.177-189.89 650.771-5.934 22.747-14.835 29.67-35.605 29.67H425.331c-22.747 0-31.648-7.912-37.582-21.758-30.66-93.956-58.352-188.902-79.122-289.781z"/></svg>