<?xml version="1.0" encoding="UTF-8"?><svg id="a" xmlns="http://www.w3.org/2000/svg" viewBox="0 0 1000 1000"><path d="M442.31,421.505L137.055,118.016,252.883,2.883l247.34,245.924L747.564,2.883l115.778,115.132-305.23,303.49c-15.982,15.908-36.936,23.862-57.889,23.862s-41.907-7.954-57.914-23.862Zm310.35,78.296l247.316-245.924-115.778-115.132-305.23,303.49c-31.793,31.534-32.003,82.87-.469,114.663,.156,.157,.312,.313,.469,.469l305.23,303.49,115.803-115.157-247.34-245.899Zm-310.772,78.694L136.657,881.984l115.778,115.132,247.365-245.924,247.316,245.924,115.828-115.132-305.254-303.49c-32.055-31.793-83.749-31.793-115.803,0Zm-20.829-20.73c31.786-31.619,31.922-83.018,.303-114.804-.101-.101-.202-.202-.303-.303L115.828,139.168,0,254.3l247.365,245.899L.025,746.122l115.779,115.132,305.23-303.49h.025Z"/></svg>