<svg xmlns="http://www.w3.org/2000/svg" width="1000" height="1000">
  <path d="M500.496 5C223.572 5 5 229.506 5 500.002c0 276.43 224.506 495.001 495.002 495.001 276.43 0 495.001-224.506 495.001-495.001C995.003 226.539 773.464 5 500.496 5zM146.43 620.167c-.989-4.945 1.978-8.901 6.923-9.89l57.363-10.88c4.945-.988 7.912.99 9.89 5.935 22.747 56.373 44.506 79.12 83.077 79.12 40.55 0 71.21-32.637 71.21-74.175 0-46.484-40.55-67.253-87.034-89.012-52.418-24.725-110.77-53.406-110.77-126.593 0-59.341 39.561-104.836 103.847-124.616 68.242-20.77 118.682 9.89 159.231 77.143 2.967 4.945 1.978 8.901-2.967 11.868l-51.428 29.67c-3.957 1.979-8.902 1.979-10.88-2.967-11.868-30.659-38.571-43.516-63.297-43.516-32.637 0-55.384 22.747-55.384 52.418 0 29.67 20.769 42.527 64.286 63.297 22.747 10.879 45.494 20.769 62.307 32.637 45.495 32.637 70.22 66.264 70.22 119.67 0 65.276-53.406 133.518-111.758 144.397-56.374 13.846-171.1-14.835-194.836-134.506zm360.001 4.945c-.989-4.945 1.978-8.901 6.923-9.89l63.297-11.868c4.945-.99 7.912.989 9.89 4.945 29.67 60.33 48.462 87.033 90.99 87.033 44.505 0 79.12-34.616 79.12-81.1 0-50.439-45.494-73.186-95.934-96.923-56.373-26.703-121.648-57.362-121.648-138.462 0-63.297 41.538-111.758 112.747-132.528v-56.373c0-4.945 2.967-7.912 7.912-7.912h54.396c4.945 0 7.912 2.967 7.912 7.912v56.373c48.462 8.902 76.154 34.616 104.836 82.089 2.967 4.945 1.978 8.9-1.978 10.879l-58.352 33.626c-3.956 1.978-8.901.99-10.88-2.967-15.823-32.637-42.527-47.472-69.23-47.472-35.605 0-61.319 24.725-61.319 56.373 0 32.638 23.736 47.473 71.209 69.231 25.714 11.869 48.462 23.737 67.253 34.616 53.407 30.66 77.143 74.176 77.143 131.539 0 75.165-51.429 142.418-118.682 157.253v59.34c0 4.946-2.967 7.913-7.912 7.913h-54.396c-4.945 0-7.912-2.967-7.912-7.912v-55.385c-86.044-17.802-125.604-53.407-145.385-150.33z" style="fill:#000;fill-opacity:1;fill-rule:nonzero;stroke:none;"/>
</svg>
