<svg xmlns="http://www.w3.org/2000/svg" viewBox="0 0 1000 1000"><path d="M289,2,87,204H251C273,124,359,17,385,2ZM483,204V2H437C351.4,63.6,302.7,162.3,289,204Zm39,0H718C672.4,95.2,598.3,24,567,2H522Zm234,0H915L711,2H621C685.8,61.2,731,144,756,204Zm-43,796L915,798H751c-22,80-108,187-134,202ZM519,798v202h46c85.6-61.6,134.3-160.3,148-202Zm-39,0H284c45.6,108.8,119.7,180,151,202h45Zm-234,0H87l204,202h90C316.2,940.8,271,858,246,798Zm137.2-64L311.7,537.7H268.1V734H192.7V273.8H324q28.65,0,52.6,7.8c16,4.8,29.7,12.6,40.9,23.4,11.7,10.8,20.8,24.5,27.3,40.9s9.8,36.2,9.8,59.2c0,17.8-2.4,33.6-7.1,47.4A123.3,123.3,0,0,1,430.6,487a99.9,99.9,0,0,1-23.4,23.4,81.48,81.48,0,0,1-24.7,11.7L465.1,734ZM378,409c0-13.9-1.9-25.4-5.9-34.5s-9.1-16.2-15.6-21.4A54.4,54.4,0,0,0,335.7,342a85.7,85.7,0,0,0-23.4-3.2H268.1V480.5h44.2q28.65,0,46.8-17.6Q378,444.75,378,409Zm457.4.7q0,35.1-11,61.8c-6.9,17.3-16.2,31.9-28,43.5a110.48,110.48,0,0,1-40.3,26,134.47,134.47,0,0,1-46.8,8.5H654.7V734H578V273.8H705.4a171.19,171.19,0,0,1,45.5,6.5,101.82,101.82,0,0,1,41.6,22.8q18.9,15.6,30.6,41.6Q835.4,370.65,835.4,409.7Zm-74.1.6q0-37.05-17.6-53.9t-44.8-16.9H654.7V485.7h44.2c18.2,0,33.2-6.3,44.8-18.8C755.5,453.9,761.3,435,761.3,410.3Z"/></svg>