<svg xmlns="http://www.w3.org/2000/svg" viewBox="0 0 1000 1000"><path d="M500.002 995.003c276.43 0 495.001-224.506 495.001-495.001C995.003 226.539 773.464 5 500.496 5 223.572 5 5 229.506 5 500.002c0 276.43 224.506 495.001 495.002 495.001zM84.122 518.298v-35.604l2.966-13.846h90.99v63.297h-46.484L87.088 536.1zM95 596.431c0-4.946 10.88-4.946 47.473-4.946h46.484l4.945 10.88c2.967 14.835 26.703 59.34 37.582 79.12 47.473 71.21 120.66 122.639 207.693 141.43 9.89 1.978 33.627 1.978 52.418 3.956 61.319 1.978 103.847-6.923 155.275-31.649 38.572-19.78 63.297-37.582 92.968-69.23 32.637-34.616 61.319-82.089 72.198-119.671l3.956-14.836h99.89l-8.9 20.77c-8.902 40.55-29.671 81.099-52.419 118.681-62.308 93.957-160.22 160.22-265.056 180.99-136.484 26.703-275.935-15.824-373.847-107.802-41.539-42.528-73.187-85.056-97.912-136.484C110.825 645.88 95 602.365 95 596.43zm0-186.924v-8.901c6.923-16.814 18.792-56.374 31.649-83.078 23.736-45.494 62.308-98.9 102.857-130.55 69.231-61.318 149.341-92.967 243.298-103.846 16.813-2.967 52.418-2.967 74.176 0 124.616 14.835 237.363 82.088 307.583 186.924 20.77 33.626 43.517 82.088 54.396 122.638l6.923 16.813h-99.89l-3.956-13.846c-10.88-39.561-39.56-83.078-72.198-120.66-49.451-49.45-101.869-78.132-170.11-93.956-33.627-6.924-94.946-6.924-127.584-2.968-26.703 8.902-60.33 18.792-82.088 31.649-43.516 19.78-88.022 58.352-118.682 97.912-16.813 20.77-40.55 65.275-47.472 88.023l-4.945 13.846zM410.496 576.65c0-12.857 0-15.824 2.967-20.77 3.956-1.977 44.506-1.977 48.462 0 0 4.946 1.978 7.913 1.978 11.87 0 19.78 8.9 26.703 27.692 28.68 21.758 1.979 35.605-1.977 44.506-6.923 5.934-3.956 5.934-5.934 8.9-23.736 0-26.703-6.922-33.626-53.406-37.582-47.473-6.924-61.319-12.858-74.176-34.616-6.923-12.857-6.923-14.835-6.923-48.462 0-35.604 2.967-40.55 6.923-46.483 10.88-20.77 33.626-36.594 57.363-36.594h7.912v-17.802c0-10.88 0-21.758 1.978-24.725 4.945-1.979 37.582-1.979 40.55 0 0 2.967 1.978 13.846 1.978 24.725v17.802h6.923c14.835 0 31.648 6.923 39.56 19.78 10.88 10.88 19.78 24.726 21.759 49.451 0 20.77 0 20.77-27.693 20.77-25.714 0-29.67-2.968-29.67-16.814 0-8.9-1.978-12.857-6.923-19.78-3.956-3.956-5.934-3.956-22.748-5.934-35.604 0-44.505 3.956-44.505 35.604 0 25.715 4.945 28.682 49.45 33.627 37.583 1.978 54.396 10.879 67.253 21.758 14.836 14.835 17.803 27.693 17.803 65.275-2.967 30.66-2.967 32.638-8.902 44.506-10.879 19.78-23.736 28.681-53.406 32.637H527.2v16.813c0 25.715-1.978 25.715-22.748 25.715-8.9 0-17.802 0-19.78-1.978 0-1.978-1.978-12.857-1.978-21.759l-.99-18.79-15.823-1.979c-14.836-1.978-28.682-8.9-37.583-19.78-12.857-12.857-14.835-22.747-17.802-44.506zm418.353-40.55v-69.23h46.484c53.406 0 49.45-3.956 49.45 33.626 0 40.55 3.956 35.605-49.45 35.605z"/></svg>