<svg xmlns="http://www.w3.org/2000/svg" viewBox="0 0 1000 1000"><path d="M510.014 361.835h71.693v207.699h124.409v56.932c3.163 0 3.163 0 8.434 3.163 0-3.163 3.163-6.326 3.163-10.543 20.032-37.955 45.336-69.584 65.368-107.54 10.543-7.38 10.543-17.923 0-25.303-20.032-37.955-41.118-69.584-62.205-103.322-3.163-8.435-6.326-13.706-11.597-21.086h73.802c3.163 0 13.706 7.38 17.923 12.651 16.869 25.304 31.63 50.607 49.552 73.802 15.815-23.195 33.738-45.335 45.336-65.367 8.434-17.923 20.032-26.358 41.118-21.086h54.824c-5.272 7.38-9.489 12.651-12.652 21.086-22.14 33.738-42.172 65.367-63.258 100.16-7.38 10.542-7.38 21.085 0 32.683 21.086 33.738 41.118 65.367 66.421 100.16 0 7.38 4.217 10.542 12.652 24.248h-75.91c-3.163-3.163-10.544-10.543-14.76-13.706-12.653-20.032-29.521-45.335-42.173-65.367-3.163-3.163-8.435-8.434-11.598-17.923-17.923 26.358-32.683 42.172-46.39 66.421-10.542 27.412-28.466 30.575-52.715 30.575-74.856-3.163-146.549 0-220.35 0h-21.087zM5 637.009V364.998l3.163-3.163c53.77 0 103.322-5.272 152.875 3.163 66.421 9.488 101.214 80.127 74.856 139.168-8.435 18.978-29.52 31.63-41.118 48.499 14.76 25.303 37.955 53.77 61.15 87.507H178.96c-3.163 0-13.706-10.543-13.706-13.706-10.543-16.869-24.25-27.412-31.63-45.335-13.705-20.032-30.574-23.195-55.878-16.869v72.747zm72.747-132.843H127.3c27.412-6.325 37.955-17.923 41.118-37.955 0-21.086-10.543-37.955-30.575-41.118H77.747zm4.218 217.188V661.26h66.421c6.326 3.163 6.326 3.163 6.326 6.325-9.489 29.521 10.543 37.956 31.63 50.607a13946.43 13946.43 0 0 0 300.478 173.96c10.543 3.163 20.031 10.544 26.357 0 106.486-62.204 207.7-119.137 311.022-178.178 17.923-11.597 26.357-20.032 22.14-37.955 0-3.163 4.217-11.597 4.217-14.76h65.368v73.801c0 4.218-11.598 13.706-15.815 16.87-82.236 45.335-162.364 90.67-239.328 137.06-52.716 28.466-101.214 52.715-147.604 82.236-11.597 8.434-20.032 8.434-26.357 0-129.68-75.91-259.36-148.658-386.932-222.46-11.598-6.326-17.923-13.706-17.923-27.412zm0-402.746v-51.661c0-5.272 9.488-14.76 17.923-17.924 79.073-46.39 156.038-91.724 236.165-136.005 49.553-31.63 98.051-57.988 143.386-88.563 13.706-3.162 27.412-3.162 37.956 4.218 125.462 70.638 255.143 146.549 382.714 220.35 12.652 7.38 15.815 12.652 15.815 28.467v41.118h-65.368c3.163-24.25-17.923-28.466-29.52-35.847C717.713 223.72 619.663 164.68 517.395 107.746c-10.544-8.435-20.032-8.435-30.575 0-106.486 56.933-208.754 121.246-318.402 179.233-10.543 7.38-20.032 14.76-13.706 31.629zm180.287 321.564V361.835h132.843c15.814 0 31.629 7.38 49.552 16.869 42.173 21.086 45.335 87.507 4.217 107.54-4.217 0-4.217 4.216-8.434 4.216 8.434 3.163 11.597 7.38 14.76 7.38 24.25 13.707 37.955 30.576 37.955 54.825 4.218 28.466-3.163 53.77-28.466 66.421-20.032 7.38-46.39 10.543-66.421 17.923-9.49 3.163-21.087 3.163-29.521 3.163zm69.584-173.96h53.77c12.652 0 21.086-10.544 21.086-21.087 0-13.706-8.434-20.032-21.086-20.032h-53.77zm4.217 111.756c21.086 0 41.118 0 62.205-4.217 12.651-4.217 20.031-12.652 20.031-24.25-4.217-13.705-11.597-21.085-23.194-21.085-17.924-5.272-37.956-5.272-59.042-5.272z"/></svg>