<svg xmlns="http://www.w3.org/2000/svg" viewBox="0 0 1000 1000"><path d="M500,0C223.858,0,0,223.858,0,500s223.858,500,500,500,500-223.858,500-500S776.142,0,500,0ZM830.556,447.139a183.969,183.969,0,0,1-32.732,67.014c-1.616,1.8-3.587,4.2-5.861,6.964-8.357,10.144-20.59,25.045-32.416,31.536,2.536,11.182,5.768,22.18,8.988,33.152q1.13,3.837,2.233,7.634l1.459,4.862c2.851,9.619,5.769,19.25,8.107,29.026a13.663,13.663,0,0,1-1.313,9.08c3.284,8.7-1.748,20.656-15.348,20.354-26.714,3.311-53.3,5.781-79.773,8.239-46.555,4.323-92.821,8.62-139.021,17.371a1013.714,1013.714,0,0,0-239.437,70.956,12.312,12.312,0,0,1-8.817-4.087,12.4,12.4,0,0,1-9.2-5.032c-7.516-13.377-11.918-28.2-16.333-43.021a302.242,302.242,0,0,0-10.078-30.117c-.644-1.892-1.433-3.744-2.234-5.6a50,50,0,0,1-3.22-9.093,170.907,170.907,0,0,1-71.429,2.418C82.877,644.58,81.655,544.375,139.379,479.516c36.306-39.079,95.107-52.324,146.76-48.053,3.325.749,7.753,1.379,12.72,2.063,10.656,1.484,23.717,3.3,33.205,7.634,23.244-19.631,45.582-40.826,67.92-62.021,70.141-66.567,140.164-133.069,238.938-150.545C775.341,211.355,868.635,312.243,830.556,447.139Zm-37.068-127.2c30.695,56.332,17.673,131.414-21.143,180.781a151.366,151.366,0,0,1-26.9,27.015,63.565,63.565,0,0,0-12.326-1.892c-1.576-.131-3.127-.276-4.585-.447,12.614-21.142,19.118-54.465,18.4-68.63,1.5-18.3-25.952-21.024-27.9-2.772a166.081,166.081,0,0,1-4.677,33.007,84.326,84.326,0,0,1-15.6,30.222,14.326,14.326,0,0,0-6.123,4.481,13.371,13.371,0,0,0-1.314,1.984q-16.163-.288-32.3.158c8.226-18.633,12.772-40.642,10.735-49.932a169,169,0,0,0-6.99-33.836c-5.769-17.515-32.035-9.106-26.845,8.489,9.2,25.216,6.57,55.8-10.959,77q-31.378,2.365-62.48,7.451a573.427,573.427,0,0,0-75.779,21.155,14.1,14.1,0,0,0,8.357,26.937c5.44-1.643,10.867-3.351,16.294-5.046,13.416-4.2,26.805-8.409,40.471-11.76,25.781-6.071,50.773-8.7,76.882-10.276a13.307,13.307,0,0,0,5.256-.3c6.268-.341,12.6-.644,19.04-.906,26.043-2.142,52.074-.7,77.973,1.011.262,6.662,2.628,14.218,4.783,21.024a112.881,112.881,0,0,1,3.088,11.038c2.233,7.4,4.257,14.861,6.281,22.338,1.892,6.951,3.784,13.9,5.834,20.787-23.258,2.707-46.6,5.007-69.931,7.293-59.288,5.821-118.641,11.642-176.9,24.454A1044.672,1044.672,0,0,0,377.751,694.7h-.118c-23.573,7.542-47.383,15.164-69.024,27.213-3.338-9.04-6.281-18.238-9.2-27.449-5.112-15.952-10.21-31.918-17.292-46.989,16.267-5.624,35.188-13.521,29.118-29.473a14.454,14.454,0,0,0-19.053-6.912c-45.294,24.3-109.141,33.6-150.69-2.417-27.935-34.94-3.337-87.828,24.651-115.462,37.58-32.061,90.219-38.7,137.97-29.709q-11.459,8.607-23.324,16.5c-15.676,10.512-.315,33.612,15.4,24.02,43.875-27.594,81.166-63.493,118.484-99.418,23.481-22.613,46.988-45.241,72.138-65.805,56.949-48.223,130.914-92.939,208.322-81.468C733.727,265.215,775.223,282.718,793.488,319.943Z"/></svg>