<svg xmlns="http://www.w3.org/2000/svg" width="1000" height="1000">
  <path d="M5 500.496C5 225.55 226.54 5 500.496 5c272.968 0 494.507 222.528 494.507 494.507 0 274.946-222.528 495.496-494.507 495.496C225.55 995.003 5 772.475 5 500.496zm244.287 2.967c0 122.638 88.022 226.484 199.78 242.309 112.748 16.813 231.43-42.528 275.935-158.243H621.156c-96.923 162.199-363.957 11.869-262.089-152.308 63.297-97.912 205.715-115.714 262.089 0h103.846c-44.505-120.66-163.187-190.88-275.935-173.077-111.758 26.703-199.78 127.583-199.78 241.32zm242.308 373.848c210.66 0 373.847-166.155 373.847-373.848 0-201.759-172.088-371.87-373.847-371.87v86.045c129.56 0 259.122 96.923 271.979 244.287H637.969v86.044h125.605c-12.857 140.44-142.418 241.32-271.979 241.32z" style="fill:#000;fill-opacity:1;fill-rule:nonzero;stroke:none;"/>
</svg>
