<svg xmlns="http://www.w3.org/2000/svg" viewBox="0 0 1000 1000"><path d="M908.733 498.81C908.733 229.892 680.27 5 412.543 5v113.04c172.536 0 345.072 129.7 360.54 324.845H607.687v113.04h165.396C757.615 743.932 585.078 877.2 412.543 877.2V995c279.627 0 496.19-221.322 496.19-496.19zm-817.465 0c0 161.827 116.61 301.046 265.349 321.275 149.928 22.608 305.805-55.926 365.3-209.424H585.079c-128.51 214.183-483.1 14.28-348.642-203.473 83.294-128.51 272.489-153.498 348.642 0h136.84c-59.496-159.447-215.373-254.64-365.301-229.652-148.739 35.697-265.35 170.156-265.35 321.274z"
    style="fill:#000;fill-opacity:1;fill-rule:nonzero;stroke:none"/></svg>