<?xml version="1.0" encoding="utf-8"?>
<!-- Generator: Adobe Illustrator 26.0.1, SVG Export Plug-In . SVG Version: 6.00 Build 0)  -->
<svg version="1.1" id="Layer_1" xmlns="http://www.w3.org/2000/svg" xmlns:xlink="http://www.w3.org/1999/xlink" x="0px" y="0px"
	 viewBox="0 0 1000 1000" style="enable-background:new 0 0 1000 1000;" xml:space="preserve">
<g>
	<path d="M500.5,5C223.6,5,5,229.5,5,499.5C5,773.5,226.5,995,499.5,995C776.4,995,995,770.5,995,499.5C995,223.6,770.5,5,500.5,5z
		 M891.8,548.1c-4.8,2.2-9.9,3.2-15.2,3.2c-9.7,0-18.9-3.7-26-10.5c-0.3-0.3-0.7-0.7-1-1c-1.3,12-3.3,23.9-6,35.7
		c-18.2,81.2-66.5,154.5-136,206.3c-60.8,45.3-131.3,69.3-203.7,69.3c-12.4,0-24.9-0.7-37.2-2.2c-85.1-10-165.6-54.3-232.6-128.3
		l-6.8-7.5c-31.4-3.1-61.3-17.8-88.9-43.8c-23.6-22.2-39.7-47.4-47.2-60.5c-6.4-11.1-6.4-24.9,0.1-36c6.5-11.3,18.7-18.3,31.7-18.3
		c1.6,0,3.2,0.1,4.8,0.3c1.9,0.2,3.8,0.4,5.7,0.4c9.9,0,19.5-3.3,30.5-7.1c12.3-4.2,26.3-9.1,42.2-9.1c3.1,0,6.1,0.2,9.1,0.5
		c10.4-16.8,26-27,38-34.8c11.5-7.5,21.4-13.9,27.6-24.4c6.6-11.1,18.7-18.1,31.6-18.1c14.8,0,27.9,8.8,33.5,22.5
		c5.8,14.3,16,43.1,18.8,75.9c2.4,28.4-1.2,54.4-10.7,76.9c37.8,20.5,71.1,31.2,97.3,31.2c1.5,0,3.1,0,4.6-0.1
		c21.9-1.1,36.5-9.7,44.8-26.5c5-10.2,7.3-23.2,6.7-37.3c-2.5-0.3-5.3-0.4-8.1-0.4c-22.7,0-49,7.7-62.6,12.3
		c-4.2,1.4-8.7,2.2-13.1,2.2c-13.2,0-25.6-6.4-33.1-17.2c-7.4-10.6-9.2-24.2-4.7-36.4c5.3-14.6,14.7-35.9,29.6-54.8
		c5.3-6.7,10.9-12.7,16.9-18c-50.8-41.9-97.9-98.9-124.2-151.3c-17.1-34.1-24.6-64-22.1-88.7c1.7-16.7,8.1-31.5,18.5-42.6
		c10.9-11.6,25.6-19,43.7-21.9c13.9-2.3,31.9-7.9,51-13.8c8-2.5,16.3-5.1,24.7-7.5c30.2-8.8,66.5-17.8,107.3-17.8h0.4
		c49.6,0.1,96.8,14.4,140.2,42.6c42.3,27.5,81.1,67.4,118.5,122c5.1,7.5,10,15.2,14.6,23c1.8,1.1,3.6,2.2,5.4,3.3
		c16.5,10.6,41,29.9,64,62.1c32.8,46,39,89.4,39.7,111.1C914.1,528.2,905.6,541.9,891.8,548.1z"/>
	<path d="M792.6,366.8c-4.3-2.7-8.1-4.9-11.5-6.7c-5.3-9.6-11.2-19.1-17.6-28.5C694.2,230.3,618.3,181,531.3,180.9
		c-0.2,0-0.3,0-0.4,0c-36.7,0-70.3,8.4-98.3,16.5c-8.1,2.4-16.2,4.9-24.2,7.4c-20.2,6.3-39.2,12.2-55.3,14.9
		c-11,1.8-19.6,5.9-25.6,12.3c-5.7,6-9,14-10,23.8c-1.8,18.4,4.7,43,18.8,71.2c28.3,56.4,82.6,118.5,138.2,158.2
		c5.7,4.1,11.1,8.6,16.2,13.4c-0.1,0-0.1,0-0.2,0c-43.3,6.2-65.8,52.7-75,77.8c-2.4,6.6,4.1,12.4,10.7,10.2
		c26.2-8.8,79.1-23,110-6.1c5.8,27.6,3.4,54.7-7.1,75.9c-13.5,27.4-38.4,42.7-71.9,44.3c-39.5,1.9-88.4-15-145.2-50.3l-1.1-0.6
		c-0.3-0.2-0.7-0.4-1-0.6c42-50.6,16.4-127,6.1-152.2c-1.4-3.4-6-3.3-7.8-0.2c-24,40.6-73.2,37.6-72.3,86c0,0,0-0.1-0.1-0.1
		c-37.6-30.6-65.5,10.1-112.3,4c-3.6-0.5-6.5,3.2-4.7,6.3c13.7,23.9,59.1,92.5,126.2,88.8l-2,1.3l14.7,16.2
		c61.7,68.1,135.3,108.9,212.6,118c11.2,1.3,22.3,2,33.5,2c64.9,0,129.3-21.8,184.5-62.9c63.4-47.2,107.4-113.8,123.9-187.6
		c5.5-24.4,7.8-48.9,7-73.1c1.5-0.5,3.1-0.9,4.7-1.1c18.7-2.4,38.6,13.6,48.7,23.3c1.1,1,2.4,1.6,3.8,1.6c0.7,0,1.5-0.1,2.1-0.5
		c1.8-0.8,2.9-2.6,2.9-4.7c-0.6-18.2-5.8-54.5-33.8-93.6C827.9,392.5,806.8,375.8,792.6,366.8z M562,264c33,0,83.5,37.4,93.8,51.3
		c-3.2,8.4-24.5,10.3-35.2,9.5c-10.7-0.8-28.8-2.6-42.6-9.5c-13.9-6.9-27.7-16.1-33-23.5C539.6,284.3,529,264,562,264z M660.1,729.9
		c-55.7,39.5-121.2,57.1-185.3,49.6c-63.4-7.4-124.5-39.7-177.4-93.6c61.3,37.2,115.7,54.9,161.7,52.7
		c46.8-2.3,84.8-26.1,104.2-65.4c16.2-33,18.5-75.4,6.1-116.4c-12.5-41.5-38.3-77.9-72.8-102.5c-47.1-33.6-93.1-84.6-120.1-132.6
		l-0.2-0.3c-0.1-0.2-0.3-0.5-0.4-0.7c-1.9-3.6-7.3-15.9,9.1-18.2C538.6,280.5,850.9,572.1,660.1,729.9z"/>
</g>
</svg>
