<svg xmlns="http://www.w3.org/2000/svg" width="1000" height="1000">
  <path d="M5 500.496c0 271.98 220.55 494.507 495.496 494.507 271.98 0 494.507-220.55 494.507-495.496C995.003 227.528 773.464 5 500.496 5 226.54 5 5 225.55 5 500.496zm192.858 179.012c.989-.99 1.978-2.967 2.967-4.945 67.253-114.726 134.506-230.44 200.77-346.155 19.78-33.627 39.56-69.231 59.34-102.858 10.88-17.802 24.726-30.66 44.506-36.593.99-.99 2.967-.99 5.934-2.967-90 157.253-179.011 312.528-269.012 467.803 3.956.99 5.935.99 8.902.99h398.572c4.945 0 7.912.988 11.868 5.933.99 6.924 5.935 11.869 9.89 18.792zm5.934 45.494s0-.989 1.978-2.967h540.002c-.99-.989-1.978-2.967-2.967-5.934-67.253-114.725-134.506-231.43-199.781-345.166-2.967-5.934-2.967-8.9 0-13.846 3.956-4.945 6.923-11.868 10.879-17.802 80.11 136.484 158.242 271.979 236.374 408.463-2.967 0-3.956 1.978-5.934 1.978H327.42c-21.759-1.978-43.517-1.978-64.286-1.978-21.759 0-39.56-6.923-55.385-19.78-.99-.99-1.978-1.979-3.956-2.968zM316.54 613.244c80.11-138.462 158.242-272.968 237.363-409.452 2.967 3.956 4.945 7.912 6.923 10.879 87.033 150.33 173.078 299.671 260.11 448.023 10.88 18.792 13.847 38.572 7.913 59.341v2.967l-1.978.99c-90-157.254-180.99-313.518-272.968-471.76-.99 1.978-1.978 3.956-2.967 4.945C483.683 375.88 416.43 490.606 349.177 606.32c-1.978 3.956-4.945 6.923-10.88 6.923-6.922-1.978-12.856 0-21.757 0zm87.033-1.978c37.582-63.297 73.187-126.594 110.77-190.88 36.593 64.286 72.197 127.583 108.79 190.88zm42.527-23.737h134.506c-21.758-38.571-43.516-77.143-66.264-115.714z" style="fill:#000;fill-opacity:1;fill-rule:nonzero;stroke:none;"/>
</svg>
