<svg xmlns="http://www.w3.org/2000/svg" viewBox="0 0 1000 1000"><path d="M91.494 362.894 610.769 55.175c37.183-21.796 73.083-35.9 108.983-44.875 30.772-7.693 61.544-6.411 91.034 0 24.36 5.128 47.44 8.975 69.236 19.232 16.669 7.693 29.49 17.95 44.876 28.208l15.386 10.257L362.03 393.666l228.224 130.78v134.627zm-30.772 23.079 565.433 334.643v-273.1l106.42-62.825v589.793C374.85 765.492 172.27 643.687 124.83 606.504c-29.49-23.079-48.722-64.108-58.98-124.37-5.128-32.053-7.692-62.825-5.128-96.161zm371.827 7.693 507.735-284.64v653.902c0 42.311-16.668 82.058-43.593 121.805-19.233 28.208-47.44 55.133-82.059 79.494-17.95 12.822-33.336 23.079-48.722 30.772V323.147L541.532 456.492z"/></svg>