<svg xmlns="http://www.w3.org/2000/svg" viewBox="0 0 1000 1000"><path d="M54.805 348.861c-3.862 28.317-28.317 50.199-21.882 78.516 18.02-24.456 36.04-50.199 54.06-78.516 25.743 32.179 14.159 60.496 3.862 90.1 14.158-11.584 28.317-21.881 39.9-33.466-7.722-6.435-15.445-14.158-21.88-20.594 10.297-3.861 18.02-11.584 24.455-14.158 3.861-3.862 11.584-3.862 15.446-3.862v14.159c0 6.435-3.862 14.158-7.723 28.317 10.297-3.862 21.881 0 28.317-3.862 39.901-28.317 75.94-56.634 115.842-86.238 3.862 0 3.862-2.574 6.436-6.435-32.179-14.159-36.04-11.585-54.06 10.297-6.436 14.158-18.02 29.604-24.456 39.9-10.297-3.86-18.02-7.722-28.317-7.722-18.02 0-21.88-6.436-18.02-24.456 2.575-3.86 2.575-7.722 2.575-14.158-2.574-21.881 7.723-39.901 29.604-54.06 14.158-7.723 20.594-21.881 18.02-39.901-3.862-10.297 0-25.743 0-36.04h6.436c25.742 18.02 47.624 10.297 65.644-3.861 28.316-24.456 60.495-24.456 100.396-24.456-7.723 24.456-11.584 50.199-14.158 74.654 18.02-2.574 32.178-6.436 50.198-18.02 2.574-2.574 6.436-14.158 10.297-20.594 3.861-21.881 7.723-39.901-14.158-54.06-11.585-11.584-14.159-25.742-25.743-43.762 18.02-6.436 32.178-18.02 50.198-20.594 18.02-3.862 36.04-7.723 47.624-21.882 6.436-11.584 18.02-18.02 32.179-29.604-11.585-2.574-18.02-2.574-25.743-6.436 14.158-18.02 36.04-18.02 72.08 3.862-3.862 2.574-6.436 2.574-10.298 6.435 6.436 7.723 32.179 11.585 38.614 7.723 7.723-3.861 15.446-7.723 21.882-7.723 29.604 3.862 57.92 3.862 79.802 29.605h2.575c47.624 0 72.08 38.614 111.98 56.634 21.882 7.722 32.179 36.04 46.337 54.06 14.159 14.158 29.604 28.316 47.624 43.762 0 2.574 2.575 2.574 2.575 6.436 21.88 50.198 50.198 97.822 65.644 151.882 6.435 28.317 20.594 56.634 14.158 88.812 0 11.584-3.861 21.881-3.861 29.604 0 18.02 0 36.04 3.861 50.199v18.02c-7.723 24.455-14.158 50.198-18.02 78.515-11.584 57.92-32.178 111.98-72.08 158.318-7.722 14.158-18.02 25.742-25.742 36.04-14.159 24.455-32.179 39.9-56.634 54.06-18.02 6.435-32.179 21.88-50.199 32.178-14.158 7.722-29.604 14.158-43.762 21.88-10.297 6.436-21.881 6.436-28.317 14.16-11.584 10.296-21.881 18.02-39.901 21.88-24.456 0-50.199 10.298-72.08 10.298-32.178 3.861-60.495 3.861-90.1 3.861-20.594 3.861-38.614 6.436-60.495 6.436-10.297 0-18.02-2.575-28.317-2.575-11.584-3.86-21.881-11.584-32.178-15.445-29.604-10.297-54.06-20.594-83.664-28.317-46.337-10.297-82.377-32.179-106.833-75.941-7.722-10.297-18.02-20.594-29.604-28.317-39.9-28.317-64.356-64.357-82.376-104.258-10.297-18.02-25.743-36.04-28.317-57.921-11.585-28.317-15.446-60.496-21.882-92.674-3.861-7.723-3.861-11.584-7.723-18.02-10.297-18.02-14.158-36.04-2.574-54.06 2.574 0 2.574-3.861 2.574-7.723-10.297-28.317 3.862-56.634 3.862-82.376 0-24.456 3.861-46.337 14.158-68.219 3.862-10.297 11.585-14.158 21.882-10.297zm10.297 136.437c-6.436 21.881 3.861 32.178 36.04 39.901 3.861-21.881 0-21.881-28.317-21.881 0-7.723-3.862-11.584-7.723-18.02zm79.802-218.813c3.862-11.585 3.862-18.02 3.862-25.743-7.723-14.159-3.862-25.743 10.297-32.178 14.158-7.723 25.742-18.02 36.04-28.317 3.861 20.594 3.861 38.614 7.722 56.634-21.88-3.862-29.604 43.762-57.92 29.604zm74.654-21.882h51.486c-3.862 14.159-3.862 24.456-7.723 38.614h3.861c18.02-20.594 38.614-46.336 56.634-68.218-6.436 0-14.158 3.862-20.594 7.723-25.743 14.159-25.743 14.159-39.901-7.723-3.862-2.574-10.297-6.435-14.159-2.574-11.584 6.436-18.02 18.02-29.604 32.178zm79.803-176.337c6.435-10.297 14.158-18.02 24.455-28.317 3.862 10.297 3.862 18.02 7.723 24.455-10.297 3.862-21.881 3.862-28.317 7.723zm3.861 36.04s2.574 0 6.436-3.862c14.158-7.723 32.178-14.158 54.06-21.881 3.86 21.881 3.86 39.901 7.722 57.92-47.624 10.298-54.06 7.724-68.218-32.178zM507.877 164.8c10.297-20.594 21.881-42.476 32.178-64.357-10.297-3.861-18.02-7.723-25.743-7.723-20.594 21.882-28.317 43.763-6.435 72.08zm28.317-96.535c3.861 7.723 3.861 10.297 7.722 18.02 14.159-10.297 21.882-21.882 32.179-28.317v-3.862c-14.159 3.862-25.743 10.297-39.901 14.159z"/></svg>