<svg xmlns="http://www.w3.org/2000/svg" viewBox="0 0 1000 1000"><path d="M500.496 995.003h-.989c-89.011 0-172.088-22.747-249.231-67.253-74.177-44.505-133.517-103.846-178.023-178.022C27.747 672.585 5 589.508 5 499.508c0-89.012 22.747-172.09 67.253-249.232 44.506-74.177 103.846-133.517 178.023-178.023C327.419 27.747 410.496 5 500.496 5c89.011 0 172.089 22.747 249.232 67.253 74.176 44.506 133.517 103.846 178.022 178.023 44.506 77.143 67.253 160.22 67.253 249.231 0 90-22.747 173.078-67.253 250.22-44.505 74.177-103.846 133.518-178.022 178.023-77.143 44.506-160.22 67.253-249.232 67.253zm-319.451-251.21c0 9.89 2.967 20.77 16.813 20.77 38.571 0 79.12 0 119.67-3.956 33.627 0 54.396-26.703 57.363-60.33v-170.11c0-27.693-6.923-38.572-30.66-47.473-5.933-3.956-5.933-6.923 0-13.846 19.781-13.847 27.693-33.627 27.693-56.374 0-36.594 0-73.187-3.956-109.78 0-38.572-19.78-61.32-60.33-61.32-33.626-2.967-71.209-2.967-104.835-2.967-18.791 0-21.758 5.934-21.758 23.737zm55.384-455.935c0-2.967 0-5.934 2.967-5.934 27.693 0 57.363 2.967 57.363 20.77 0 43.516 3.956 87.033 0 132.527 0 19.78-16.813 26.704-36.593 16.813-3.956 0-5.934-6.923-5.934-13.846 0-38.571 1.978-82.088 1.978-122.638 0-12.857 0-30.659-19.78-27.692zm17.803 214.616h15.824c36.593 0 34.615 57.363 26.703 128.572v58.352c0 3.956-2.967 13.846-5.934 13.846-10.879 3.956-20.77 3.956-30.66 3.956-3.955 0-3.955-6.923-3.955-13.846v-150.33c0-12.857 0-26.704-1.978-40.55zm216.594 238.353c0 16.813 2.967 23.736 19.78 23.736h30.66c13.846 0 20.769-2.967 20.769-16.813V530.167c0-20.77 2.967-23.737 23.736-23.737h29.67c10.88 0 13.847-7.912 13.847-16.813v-23.736c0-10.88-6.923-16.814-13.846-16.814h-40.55c-9.89 0-12.857-3.956-12.857-13.846 2.967-35.604 2.967-72.198 2.967-108.791-2.967-41.539-2.967-41.539 37.582-41.539 33.627 2.967 36.594 0 33.627-33.626 0-6.924-2.967-12.858-13.846-12.858H490.606c-16.813 0-19.78 2.967-19.78 19.78zm204.726-476.705c0 14.835 5.934 20.769 25.714 20.769 23.736 0 27.692 2.967 27.692 26.703v412.42c0 36.593 0 36.593 36.594 40.549h3.956c26.703 2.967 30.66 0 30.66-27.692 0-70.22 0-136.484-3.957-206.704-1.978-133.517 3.957-187.913 3.957-218.573 0-19.78 6.923-23.736 26.703-23.736 16.813 0 23.736-2.967 23.736-15.824 0-27.693-2.967-28.682-23.736-30.66-39.56-2.967-81.1-2.967-125.605-2.967-15.824 0-25.714 9.89-25.714 25.715z"/></svg>