<svg xmlns="http://www.w3.org/2000/svg" width="1000" height="1000">
  <path d="M5 500.496C5 225.55 226.54 5 500.496 5c272.968 0 494.507 222.528 494.507 494.507 0 274.946-222.528 495.496-494.507 495.496C225.55 995.003 5 772.475 5 500.496zm84.066 72.198C115.77 651.815 206.76 698.3 289.836 677.53c72.198-21.759 130.55-101.869 113.737-167.144-34.616 23.737-69.231 31.649-103.847 2.967-24.725-15.824-31.648-52.417-24.725-75.165 14.835-45.494 47.473-58.352 90.99-58.352-28.682-18.79-55.386-14.835-84.067 0-45.495 23.737-58.352 58.352-54.396 105.825-3.956-24.725-11.868-47.473-3.956-69.231 3.956-19.78 17.802-40.55 27.693-62.308-30.66 4.945-62.308 21.758-79.122 49.45-14.835 27.693-20.769 57.364-31.648 80.11-9.89-34.615 6.923-74.175 31.648-114.725C95.99 403.573 60.385 493.573 89.066 572.694zM365.99 725.991c33.627 50.44 89.012 54.396 130.55 44.506 44.506-14.835 83.077-59.34 83.077-103.846 3.956-88.023 0-173.078 0-259.122 0-35.605 12.858-65.275 44.506-84.066 3.956-2.967 3.956-6.924 7.912-6.924-35.604-40.55-84.066-54.395-132.528-40.55-48.462 17.803-82.088 62.309-82.088 110.77 0 82.089-3.956 162.199 0 240.331 0 42.528-6.923 77.143-51.429 98.901zM592.475 507.42c-8.902 75.165 52.417 155.275 128.571 170.11 90 15.825 173.078-35.604 193.847-121.648 19.78-87.033-31.648-166.154-83.077-183.957 37.583 73.187 27.692 81.1 27.692 111.759-24.725-84.066-62.308-124.616-113.736-129.561 41.538 66.264 44.505 98.901 19.78 135.495 6.923-48.462-7.912-86.044-40.55-105.825-27.692-18.79-63.296-22.747-86.044-3.956 41.539 3.956 71.21 16.814 82.088 55.385 10.88 25.715 3.956 58.352-23.736 78.132-35.604 28.682-69.231 20.77-104.835-5.934z" style="fill:#000;fill-opacity:1;fill-rule:nonzero;stroke:none;"/>
</svg>
