<svg xmlns="http://www.w3.org/2000/svg" viewBox="0 0 1000 1000"><path d="M500.496 5C223.572 5 5 229.506 5 500.002c0 276.43 224.506 495.001 495.002 495.001 276.43 0 495.001-224.506 495.001-495.001C995.003 226.539 773.464 5 500.496 5zm-320.44 509.342V290.825c0-68.242 53.406-121.649 122.637-121.649H517.31c194.836 4.945 347.144 158.243 338.243 357.035-6.923 108.791-55.384 197.802-148.352 261.1-134.506 91.978-315.495 73.186-431.21-45.495-62.308-62.308-95.934-139.451-95.934-227.474zm147.363-66.264c3.956 20.77 13.846 35.605 29.67 39.561 22.747 0 34.616-7.912 41.539-25.714 2.967-3.956 6.923-11.869 10.879-18.792 44.506-62.308 129.56-74.176 187.913-26.703 60.33 49.45 62.307 137.473 10.879 189.89-54.396 62.309-163.188 55.385-206.704-32.637-13.846-22.747-33.627-29.67-51.429-19.78-18.791 10.88-25.714 28.681-11.868 52.418 36.593 85.055 132.528 128.572 222.528 106.813 91.978-18.791 158.242-98.901 158.242-192.858 0-144.396-144.396-243.297-276.924-186.923-13.846 3.956-26.703 10.879-40.55 17.802-2.966-6.923-2.966-11.868-2.966-13.846v-26.704c0-21.758-15.825-37.582-32.638-37.582-18.791 0-34.615 10.879-34.615 34.615-3.956 13.847-3.956 31.649-3.956 47.473zm137.473 69.231c0 28.682 25.714 51.43 52.417 51.43 27.693 0 50.44-22.748 50.44-51.43 0-29.67-19.78-51.428-47.473-51.428-29.67 0-55.384 21.758-55.384 51.428z"/></svg>