<?xml version="1.0" encoding="UTF-8"?><svg id="a" xmlns="http://www.w3.org/2000/svg" viewBox="0 0 1000 1000"><path d="M633.757,199.339H97.837c28.534-37.451,61.527-70.446,98.088-98.088C417.963-65.501,732.738-21.806,900.38,199.339h-96.305c-9.808,0-19.617-3.566-26.751-11.591l-35.669-40.127c-5.351-5.351-13.376-8.917-21.402-8.917h-1.783c-8.025,0-15.159,3.566-20.51,8.917l-42.801,44.584c-5.351,5.351-12.485,8.919-21.402,7.134Zm-155.159,250.572l42.803-44.584c5.349-5.351,12.483-8.917,20.508-8.917h1.785c8.025,0,16.051,3.566,21.4,9.808l35.669,40.127c7.134,8.025,16.942,12.485,26.751,12.485h371.847c-3.566-41.912-12.485-83.822-25.859-123.057h-200.637v-.891h-88.279c-9.81,0-19.619-4.459-26.753-11.593l-35.668-40.127c-10.702-11.591-27.644-12.483-40.127-2.674l-2.676,2.674-30.319,34.778c-9.808,11.591-24.968,17.834-40.127,17.834H26.498C13.123,375.008,4.205,416.918,.639,458.83H457.199c8.025,0,16.051-3.568,21.4-8.919Zm-168.533,391.465c-10.702,0-20.51-4.459-26.753-11.593l-35.668-40.127c-10.702-11.591-28.536-12.485-40.127-1.783l-1.785,1.783-31.21,34.776c-9.808,11.593-24.076,17.836-39.235,17.836h-1.783c188.152,201.526,506.495,211.337,708.915,21.402,8.025-7.134,15.159-15.159,23.185-23.185H310.065v.891Zm170.316-260.382l-35.668-40.127c-10.7-11.591-27.644-12.483-40.127-2.674l-2.676,2.674-31.21,34.778c-9.808,11.591-24.076,17.834-39.235,17.834H7.773c8.025,42.801,22.293,84.713,41.018,124.84h227.387c8.025,0,15.159-3.568,21.402-8.917l42.803-44.586c5.349-5.351,12.483-8.917,20.508-8.917h1.783c8.025,0,16.051,3.566,21.402,9.808l35.669,40.127c7.134,8.025,16.942,12.485,26.751,12.485h504.712c18.725-39.235,32.993-81.145,41.018-124.84H507.134c-10.7,0-20.51-4.459-26.753-12.485Z"/></svg>