<svg xmlns="http://www.w3.org/2000/svg" width="1000" height="1000">
  <path d="M671.392 831.096c62.016 51.869 131.925 71.037 219.876 57.506 34.954-5.637 71.036-18.04 96.97-38.337 3.383-6.765 6.766-19.169 6.766-19.169-11.276-25.934-29.317-47.357-42.848-75.546-9.02 6.765-12.403 10.148-22.551 13.53-69.91 58.634-173.645 27.062-196.197-60.888-9.02-30.445-9.02-59.761-4.51-87.95 9.02-65.4 57.506-126.288 135.308-117.267 27.062 0 52.996 7.892 83.44 16.913 9.02-25.934 27.062-52.996 40.592-83.44-80.057-34.954-162.37-47.358-237.916-7.893-126.288 56.378-154.477 165.752-135.308 293.167H307.188c4.51-9.02 4.51-13.53 4.51-21.423 9.02-36.082 21.424-66.527 27.062-101.481 9.02-48.486 25.934-74.42 74.42-82.313 48.485-5.638 68.78-36.082 74.419-84.567 4.51-16.914 7.893-30.444 13.53-52.996-39.464 13.531-74.419 27.062-113.884 39.465 29.317-104.864 55.25-205.217 82.313-306.698-4.51-4.51-7.893-4.51-7.893-4.51H247.427c-14.659 0-19.169 9.02-19.169 18.04-30.444 104.864-60.888 210.856-83.44 315.72-13.53 57.505-34.954 96.97-91.333 104.863H43.337c-3.382 4.51-12.403 9.02-12.403 14.658C21.914 594.307 14.021 630.39 5 669.854c30.444-13.53 56.378-21.423 87.95-36.082-21.424 83.44-43.975 162.37-62.016 242.427h575.06c48.485 0 48.485 0 62.015-39.465z" style="fill:#000;fill-opacity:1;fill-rule:nonzero;stroke:none;"/>
</svg>
