<svg xmlns="http://www.w3.org/2000/svg" width="1000" height="1000">
  <path d="M500.496 5C223.572 5 5 229.506 5 500.002c0 276.43 224.506 495.001 495.002 495.001 276.43 0 495.001-224.506 495.001-495.001C995.003 226.539 773.464 5 500.496 5zm-200.77 803.08V674.563c0-45.495.99-90 0-135.495 0-10.88 3.956-13.846 15.824-13.846 40.55.989 80.11 0 119.671 0 15.824 0 18.792 2.967 11.868 13.846-11.868 19.78-20.769 33.626-29.67 52.417-1.978 1.978-6.923 3.957-7.912 6.924-2.967-2.967-4.945-4.946-6.923-9.89-4.945-9.89-15.824-16.814-26.704-12.858-11.868 2.967-18.79 12.857-16.813 24.726 6.923 27.692 13.846 54.395 23.736 81.099.99 12.857 12.858 16.813 26.704 14.835 23.736-6.923 48.462-13.846 73.187-19.78 8.901-1.978 17.802-8.901 19.78-20.77 2.967-14.835-8.9-26.703-26.703-23.736-1.978 0-6.923-2.967-10.88-2.967 1.979-.989 1.979-6.923 3.957-10.88 8.9-15.823 18.791-33.626 29.67-51.428 3.956-7.912 8.901-7.912 13.846 0 19.78 35.605 39.56 71.21 60.33 107.803 8.901 13.846 8.901 14.835-6.923 21.758-74.176 44.506-150.33 90-226.484 132.528-16.813 10.88-31.649 6.923-38.572-8.901-.989-4.945-.989-6.923-.989-11.868zm3.956-344.177V203.792c0-8.901 0-17.802 8.901-24.726 10.88-3.956 19.78-1.978 29.67 2.968 73.188 44.505 149.342 87.033 223.518 131.538 13.846 6.924 13.846 8.902 6.923 20.77-17.802 34.615-38.571 69.23-58.352 102.857-1.978 1.978-4.945 4.945-8.9 7.912-2.968-2.967-4.946-5.934-6.924-9.89-8.901-13.846-17.802-29.67-26.703-42.527-2.967-4.945-2.967-6.924-4.945-11.869h13.846c12.857-1.978 21.758-8.9 24.725-21.758 1.978-11.868-4.945-22.747-17.802-24.725-24.725-8.901-52.418-15.824-77.143-22.748-14.835-3.956-26.704 1.978-30.66 17.803l-20.769 74.176c-2.967 17.802 4.945 33.626 23.736 33.626 9.89 1.978 19.78-4.945 23.737-15.824 0-1.978 0-3.956 2.967-6.923 0 0 .989 0 .989-1.978 13.846 22.747 27.692 45.495 40.55 66.264-6.924 2.967-10.88 2.967-15.825 2.967H322.474c-18.792 0-18.792-2.967-18.792-17.802zm246.265 7.912c0-2.967 0-7.912 1.978-9.89 20.77-36.594 40.55-69.231 61.319-102.858 3.956-11.868 10.879-11.868 19.78-6.923 76.154 43.517 151.32 90 227.473 132.528 17.803 7.912 17.803 33.626 0 41.539-76.154 42.527-151.319 88.022-227.473 132.527-8.901 3.956-13.846 3.956-17.802-3.956-22.748-36.593-42.528-73.187-63.297-108.791-3.956-3.956-3.956-7.912 4.945-7.912 19.78-2.967 42.528 0 65.275 0 0 0 1.978 0 3.956.989-1.978 2.967-3.956 6.923-6.923 9.89-5.934 10.879-3.956 23.736 4.945 30.66 8.901 8.9 23.736 6.922 33.626-.99 16.814-18.791 35.605-36.593 56.374-53.407 10.88-13.846 12.857-25.714 0-39.56-19.78-16.813-36.593-34.616-54.396-53.407-11.868-10.879-26.703-10.879-37.582-1.978-8.901 8.901-8.901 21.758 1.978 35.605 0 2.967 0 2.967 1.978 5.934z" style="fill:#000;fill-opacity:1;fill-rule:nonzero;stroke:none;"/>
</svg>
