<svg xmlns="http://www.w3.org/2000/svg" width="1000" height="1000">
  <path d="M605.332 639.947c0-9.89 3.461-18.297 10.384-25.22 6.923-6.923 15.33-10.384 25.22-10.384 9.89 0 18.297 3.461 25.22 10.384 6.923 6.923 10.385 15.33 10.385 25.22 0 9.89-3.462 18.297-10.385 25.22-6.923 6.923-15.33 10.385-25.22 10.385-9.89 0-18.297-3.462-25.22-10.385-6.923-6.923-10.384-15.33-10.384-25.22zM5 500.002c0-89.308 22.747-172.583 68.242-249.726 43.517-74.473 102.56-133.814 177.034-178.023C327.419 27.45 410.793 5 500.496 5 590.2 5 673.277 27.45 749.728 72.253c75.165 44.209 134.506 103.55 178.022 178.023 44.803 77.143 67.253 160.418 67.253 249.726 0 89.308-22.45 172.583-67.253 249.726C884.234 824.2 824.893 883.54 749.728 927.75c-76.451 44.803-159.528 67.253-249.232 67.253-89.703 0-173.077-22.45-250.22-67.253-74.473-44.209-133.517-103.55-177.034-178.022C27.747 672.585 5 589.31 5 500.002zm237.363 140.44c0 21.461 5.242 41.044 15.825 58.846 10.582 17.802 24.923 31.945 43.022 42.528 18.099 10.582 37.879 15.824 59.34 15.824 21.462 0 41.045-5.242 58.847-15.824 17.802-10.583 31.945-24.726 42.528-42.528 10.582-17.802 15.824-37.583 15.824-59.34 0-28.979 7.417-56.078 22.253-81.1 14.835-25.022 34.615-44.802 59.34-59.34 24.726-14.54 51.924-21.76 81.594-21.76 21.066 0 40.748-5.241 58.847-15.823 18.099-10.583 32.44-24.924 43.022-43.023 10.582-18.099 15.824-37.879 15.824-59.34 0-21.462-5.242-41.044-15.824-58.847-10.583-17.802-24.923-31.945-43.022-42.527-18.1-10.583-37.88-15.825-59.341-15.825-21.462 0-41.044 5.242-58.847 15.825-17.802 10.582-31.945 24.725-42.527 42.527-10.583 17.803-15.824 37.583-15.824 59.341 0 28.978-7.418 56.077-22.253 81.1-14.836 25.021-34.616 44.802-59.341 59.34-24.726 14.539-51.923 21.758-81.594 21.758-21.066 0-40.747 5.242-58.846 15.825-18.1 10.582-32.44 24.923-43.022 43.022-10.583 18.099-15.825 37.879-15.825 59.34zm0-280.88c0 21.461 5.242 41.241 15.825 59.34 10.582 18.1 24.923 32.44 43.022 43.023 18.099 10.582 37.879 15.824 59.34 15.824 21.462 0 41.045-5.242 58.847-15.824 17.802-10.583 31.945-24.924 42.528-43.023 10.582-18.098 15.824-37.879 15.824-59.34 0-21.462-5.242-41.044-15.824-58.847-10.583-17.802-24.726-31.945-42.528-42.527-17.802-10.583-37.583-15.825-59.34-15.825-21.067 0-40.748 5.242-58.847 15.825-18.1 10.582-32.44 24.725-43.022 42.527-10.583 17.803-15.825 37.385-15.825 58.847zm82.089 280.385c0-9.89 3.461-18.297 10.384-25.22 6.923-6.923 15.33-10.384 25.22-10.384 9.89 0 18.297 3.461 25.22 10.384 6.923 6.923 10.385 15.33 10.385 25.22 0 9.89-3.462 18.297-10.385 25.22-6.923 6.923-15.33 10.385-25.22 10.385-9.89 0-18.297-3.462-25.22-10.385-6.923-6.923-10.384-15.33-10.384-25.22zm0-279.89c0-9.891 3.461-18.298 10.384-25.22 6.923-6.924 15.33-10.385 25.22-10.385 9.89 0 18.297 3.461 25.22 10.384 6.923 6.923 10.385 15.33 10.385 25.22 0 9.89-3.462 18.297-10.385 25.22-6.923 6.923-15.33 10.385-25.22 10.385-9.89 0-18.297-3.462-25.22-10.385-6.923-6.923-10.384-15.33-10.384-25.22zm198.792 280.385c0 21.461 5.241 41.044 15.824 58.846 10.582 17.802 24.725 31.945 42.527 42.528 17.803 10.582 37.583 15.824 59.341 15.824 21.066 0 40.748-5.242 58.847-15.824 18.099-10.583 32.44-24.726 43.022-42.528s15.824-37.385 15.824-58.846c0-21.462-5.242-41.242-15.824-59.341-10.583-18.1-24.923-32.44-43.022-43.022-18.1-10.583-37.88-15.825-59.341-15.825-21.462 0-41.044 5.242-58.847 15.825-17.802 10.582-31.945 24.923-42.527 43.022-10.583 18.099-15.825 37.879-15.825 59.34zm82.088-280.386c0-9.89 3.461-18.297 10.384-25.22 6.923-6.923 15.33-10.384 25.22-10.384 9.89 0 18.297 3.461 25.22 10.384 6.923 6.923 10.385 15.33 10.385 25.22 0 9.89-3.462 18.297-10.385 25.22-6.923 6.923-15.33 10.385-25.22 10.385-9.89 0-18.297-3.462-25.22-10.385-6.923-6.923-10.384-15.33-10.384-25.22z" style="fill:#000;fill-opacity:1;fill-rule:nonzero;stroke:none;"/>
</svg>
