<svg xmlns="http://www.w3.org/2000/svg" width="1000" height="1000">
  <path d="M67.588 753.19c0-67.65 2.293-134.154 0-202.95 0-16.053 6.88-21.786 24.079-21.786 60.77 2.293 121.54 0 181.164 0 22.932 0 27.518 5.733 17.199 21.786-17.2 28.665-30.959 50.45-44.718 79.116-2.293 2.293-10.32 5.733-12.613 9.172-3.44-3.44-6.88-6.88-10.319-13.759-6.88-16.052-22.932-26.372-40.131-19.492-17.2 3.44-27.519 19.492-24.079 36.691 10.32 41.278 20.639 81.41 34.398 121.54 2.293 20.64 20.64 26.373 40.131 22.933 36.692-10.32 73.383-20.64 111.221-29.812 12.613-3.44 26.372-12.613 29.812-30.958 3.44-22.933-13.76-40.132-40.131-36.692-3.44 0-10.32-3.44-17.2-3.44 3.44-2.293 3.44-10.32 6.88-16.052 12.613-24.079 27.519-50.45 43.571-77.97 6.88-12.612 13.76-12.612 21.786 0C418.45 645.409 448.262 699.3 479.22 753.19c12.613 20.639 12.613 22.932-10.32 33.252-112.367 67.65-225.881 135.3-340.542 199.51-26.372 16.052-48.157 10.319-58.477-13.76-2.293-6.88-2.293-10.32-2.293-17.199zm6.88-316.464V45.733c0-13.76 0-27.519 13.759-37.838 16.052-5.734 29.812-2.294 43.571 4.586 111.22 67.65 224.735 130.713 337.103 198.363 20.638 10.32 20.638 12.613 10.319 30.958-27.519 52.744-58.477 104.342-88.289 154.792a195.232 195.232 0 0 1-13.759 12.613c-3.44-5.733-6.88-10.32-10.32-16.052-12.612-20.64-26.371-44.718-40.13-64.21-3.44-6.88-3.44-10.32-6.88-17.2h20.639c19.492-3.44 33.251-13.759 36.691-33.251 3.44-17.2-6.88-34.398-26.372-36.692-36.691-13.759-77.97-24.078-115.807-34.398-21.786-5.733-40.132 3.44-45.865 26.372-10.32 37.838-20.639 74.53-30.958 112.368-5.733 26.372 6.88 50.45 34.398 50.45 16.053 2.294 29.812-6.88 36.692-24.078 0-3.44 0-5.733 3.44-10.32 0 0 2.293 0 2.293-3.44 20.639 34.399 41.278 68.797 60.77 100.902-10.32 3.44-16.053 3.44-22.932 3.44H101.986c-27.518 0-27.518-3.44-27.518-26.372zm370.354 12.612c0-5.733 0-12.612 3.44-16.052 30.958-53.89 60.77-104.341 91.728-154.792 5.733-17.2 16.053-17.2 29.812-10.32 114.66 66.504 228.175 135.3 342.835 199.51 26.372 12.613 26.372 50.45 0 63.063-114.66 64.21-228.174 131.86-342.835 199.51-13.76 5.733-20.639 5.733-27.519-6.88-33.251-53.89-63.063-108.927-94.021-162.818-6.88-5.733-6.88-12.613 6.88-12.613 29.811-3.44 64.21 0 97.46 0 0 0 3.44 0 6.88 2.294-3.44 4.586-6.88 10.32-10.319 13.759-9.173 17.2-6.88 36.691 6.88 47.01 13.759 13.76 36.691 10.32 50.45-2.292 26.372-27.519 53.89-53.89 84.85-80.263 16.052-20.639 19.492-37.838 0-58.477-28.666-26.372-55.038-52.744-81.41-80.262-17.199-17.2-40.131-17.2-57.33-3.44-12.613 12.613-12.613 33.251 3.44 53.89 0 3.44 0 3.44 3.44 9.173z" style="fill:#000;fill-opacity:1;fill-rule:nonzero;stroke:none;"/>
</svg>
