<svg xmlns="http://www.w3.org/2000/svg" width="1000" height="1000">
  <path d="M625.546 444.999H753.69c-5.67-35.155-12.474-52.165-40.824-92.99C638.02 260.154 550.7 227.267 445.238 249.948c-106.598 14.742-181.443 83.917-206.392 189.38-23.814 125.877 11.34 217.732 110 285.773 90.721 56.7 210.927 52.165 292.577-10.206 26.082-17.01 47.628-20.412 74.845-20.412h125.876c-1.134 3.402-3.402 6.804-9.073 15.876-2.268 2.268-3.402 4.536-6.804 7.938C763.897 794.276 714 848.709 638.02 877.059c-31.752 9.072-41.958 26.083-41.958 61.237v30.619c0 19.278-10.206 26.082-34.02 26.082-20.413 0-26.083-5.67-26.083-26.082v-17.01c0-40.825-9.072-49.897-49.897-49.897-30.618 0-35.154 20.412-35.154 44.226v22.68c0 26.083-12.475 26.083-34.02 26.083-21.547 0-26.083-4.536-26.083-26.082 5.67-57.835-19.279-81.65-72.577-112.268-166.7-83.917-248.35-254.02-208.66-436.597 30.619-139.484 106.598-231.34 230.206-285.772 38.557-17.01 51.03-30.618 51.03-65.773V42.423c0-22.68 7.939-34.02 26.083-34.02 22.68 0 34.02 12.473 34.02 34.02v18.144c0 38.556 4.537 44.227 44.227 44.227 26.083 0 40.825-1.134 40.825-30.619V39.021C535.959 15.206 542.763 5 562.04 5c31.753 0 34.02 2.268 34.02 34.02 0 68.042 18.145 78.248 65.774 105.464 158.762 74.845 231.34 185.979 238.143 367.422 2.269 56.7-4.536 62.37-73.71 62.37H632.35c-28.35 0-32.886-3.401-32.886-34.02v-68.04c0-20.413 5.67-27.217 26.082-27.217zM425.96 689.946v-200.72c0-17.01 9.072-27.217 29.485-27.217h83.917c17.01 0 24.948 9.072 24.948 27.216v200.721c0 21.547-13.608 35.155-34.02 35.155h-74.845c-19.279 0-29.485-12.474-29.485-35.155zm9.072-281.236v-85.05c-2.268-29.485 3.402-28.35 24.949-34.02 30.618-5.67 62.37-2.269 81.649 1.133 22.68 4.536 22.68 4.536 22.68 32.887v39.69c0 83.918 9.073 72.578-73.71 72.578h-31.753c-18.145 0-23.815-7.939-23.815-27.217z" style="fill:#000;fill-opacity:1;fill-rule:nonzero;stroke:none;"/>
</svg>
