<svg xmlns="http://www.w3.org/2000/svg" viewBox="0 0 1000 1000"><path d="M500.496 5c272.968 0 494.507 221.54 494.507 495.002 0 270.495-218.572 495.001-495.001 495.001C229.506 995.003 5 776.431 5 500.002 5 229.506 223.572 5 500.496 5zM328.408 226.54c-33.628 109.78 4.945 208.68 104.835 278.9 46.484 27.693 81.1 49.45 119.67 74.176 42.529 27.693 69.232 66.264 78.133 111.759 9.89 66.264-8.901 117.693-62.308 179.012-9.89 11.868-13.846 13.846-26.703 23.736-14.835 11.868 4.945 25.714 24.725 16.813 62.308-40.55 95.935-79.121 115.715-133.517 32.637-107.802-1.978-207.693-94.946-271.979-15.824-11.868-33.626-21.758-50.44-31.648-22.747-13.846-45.494-27.693-67.252-45.495-28.682-25.714-49.451-44.506-63.297-79.121-35.605-66.264-24.726-136.484 40.55-201.759 7.912-7.912 29.67-34.615 29.67-34.615 19.78-21.759 1.978-28.682-31.649-12.858-52.417 20.77-99.89 72.198-116.703 126.594zm28.681 361.978c-47.473 91.979-46.484 173.078 3.956 246.265 25.715 32.637 57.363 57.363 96.924 76.154 14.835 6.923 26.703-2.967 18.79-15.824-4.944-4.945-19.78-20.77-29.67-31.649-63.297-72.198-74.176-150.33-30.659-237.363 1.978-3.956 3.956-6.923 4.945-8.901 3.956-6.923 6.923-11.868 6.923-21.758 0-38.572-48.462-44.506-71.209-6.924zm184.946-475.715c6.923 7.912 9.89 10.879 17.802 17.802 70.22 79.12 80.11 163.187 33.627 257.144-10.88 21.758-15.825 36.593 8.9 57.362 26.704 13.847 39.561-8.9 50.44-21.758 68.242-100.88 50.44-251.21-86.044-323.408-26.703-15.824-43.516-6.923-24.725 12.858z"/></svg>