<svg xmlns="http://www.w3.org/2000/svg" viewBox="0 0 1000 1000"><path d="M5 500.496C5 225.55 226.54 5 500.496 5c272.968 0 494.507 222.528 494.507 494.507 0 274.946-222.528 495.496-494.507 495.496C225.55 995.003 5 772.475 5 500.496zm280.88 90.99c0 69.23 0 138.461 3.956 206.703 0 29.67 0 29.67 26.704 29.67h53.406c19.78 0 23.737-4.944 23.737-24.724V585.55h118.681c64.286-4.945 117.693 55.385 117.693 123.627 0 29.67 5.934 63.297 0 93.957 0 13.846 5.934 24.725 24.725 24.725h59.341c20.77 0 24.726-10.88 24.726-24.725V699.288c0-54.396-19.78-97.912-54.396-142.418-8.901-9.89-13.846-14.835-18.791-19.78 18.79-33.627 43.516-58.352 53.406-93.957 64.286-147.363-43.516-310.55-211.649-310.55-121.648 5.934-217.583 98.901-217.583 221.539-3.956 80.11-3.956 158.242-3.956 237.363zm107.803-112.748c0-50.44-3.956-94.946 0-138.462 9.89-64.286 74.176-108.792 143.407-98.902 59.34 10.88 103.846 74.176 92.967 133.517-8.901 64.286-53.407 103.847-117.693 103.847z"/></svg>