<svg xmlns="http://www.w3.org/2000/svg" viewBox="0 0 1000 1000"><path d="M474.37,453.32a242.127,242.127,0,0,1,4.22,46.43,262.617,262.617,0,0,1-3.75,45,142.579,142.579,0,0,1-11.73,37.51q-7.5,15.94-19.22,25.79a39.814,39.814,0,0,1-26.26,9.38,43,43,0,0,1-26.73-8.91q-11.26-9.37-19.23-24.85-8-15.949-12.19-37.52a242.017,242.017,0,0,1-4.22-46.42A271.281,271.281,0,0,1,359,453.32q4.219-21.57,12.19-37,8-15.94,19.23-24.86A41.606,41.606,0,0,1,417.16,382,39.152,39.152,0,0,1,443,391.42q11.73,8.91,19.69,24.86Q470.621,431.75,474.37,453.32ZM995,500c0,273.38-221.62,495-495,495S5,773.38,5,500,226.62,5,500,5,995,226.62,995,500ZM514.83,285.73h141.4C623.33,207.24,569.9,155.87,547.29,140H514.83Zm114.54,50.36v332H685.7v-332ZM346.69,285.73h140V140H453.47C391.69,184.44,356.55,255.67,346.69,285.73Zm-145.69,0H319.33C335.2,228,397.24,150.82,416,140H346.73ZM413.1,860c-46.74-42.71-79.36-102.45-97.39-145.73H201L348.17,860Zm71.43-145.73H343.12C376,792.76,429.46,844.13,452.06,860h32.47Zm65.81-46.17V619.79l-59.09.94v-1.87q8.91-6.109,16.88-18.29A128.929,128.929,0,0,0,522.67,572a174.878,174.878,0,0,0,9.85-35.64,202.727,202.727,0,0,0,3.75-38.92q0-37.511-8.44-68.46-8.45-31.43-23.92-53.93t-37.51-34.7q-22-12.66-49.24-12.66a99.671,99.671,0,0,0-49.71,12.66q-22,12.19-38,34.7-15.48,22.511-23.92,54.4t-8.44,70.34q0,39.39,8,70.81,8.44,30.949,23.92,53,15.461,21.52,36.99,33.24,22.05,11.25,49.24,11.26Zm102.28,46.17H512.66V860h33.19C607.6,815.56,642.76,744.33,652.62,714.27Zm145.73,0H680C664.17,772,602.12,849.18,583.36,860h69.26Zm0-428.54L651.18,140H586.25c46.75,42.73,79.4,102.45,97.4,145.73Z" fill-rule="evenodd"/></svg>