<svg xmlns="http://www.w3.org/2000/svg" width="1000" height="1000">
  <path d="M972.356 197.567c-13.915 3.976-27.83 9.94-39.757 12.921-19.879 4.97-37.77 12.921-47.709 32.8-7.951 15.903-19.878 28.824-29.817 41.745-2.982 3.975-4.97 8.945-2.982 11.927 4.97 5.963 10.933 9.94 15.903 9.94 16.896 0 34.787-1.989 52.678-5.964 8.945-2.982 10.933-6.958 17.89-11.928 13.916-7.951 23.855-19.878 35.782-29.817 3.976-3.976 5.964-9.94 7.952-15.903 2.981-13.915 3.975-7.952 9.939-13.915 1.988 13.915 5.963 27.83-1.988 37.769-13.915 15.903-25.842 31.806-37.77 47.709-5.963 3.975-9.939 5.963-13.914 7.951-15.903 3.976-30.812 9.94-48.703 13.915-6.957 1.988-8.945 5.964-6.957 11.927 11.927 29.818 13.915 57.648 13.915 89.454 0 19.878 1.987 39.757 1.987 59.636 1.988 5.963 0 10.933-5.963 12.92-4.97 1.989-11.927 4.97-15.903 6.958-24.848 16.897-44.727 12.921-66.593-4.97-17.891-12.92-37.77-23.854-57.648-36.775-10.933-6.957-19.879-17.89-32.8-29.818 0 11.927 0 19.879-1.988 31.806 0 3.976-2.981 10.933-4.97 14.909-17.89 26.836-34.787 52.678-49.696 77.526-4.97 5.964-9.94 8.946-13.915 10.934-37.77 15.903-75.538 30.812-107.344 57.648-3.976 1.987-4.97 5.963-7.952 1.987 0-14.908 9.94-43.732 11.928-61.623 1.987-6.958 3.975-10.933 11.927-10.933 11.927 0 23.854 0 35.781-1.988 1.988 0 9.94-2.982 9.94-6.958 5.963-21.866 9.939-46.714 13.914-70.569-21.866 10.933-41.745 19.879-63.611 28.824-34.788 13.915-52.678 17.89-94.423 14.91-22.86-1.989-44.727-6.958-64.606-10.934-5.963 0-12.92 1.988-16.897 3.976-15.902 11.927-30.811 22.86-44.726 33.793-8.946 6.958-14.91 12.921-17.891 21.867-12.921 30.812-36.776 50.69-70.57 59.635-12.92 4.97-23.853 8.946-34.787 14.91-6.957 2.981-12.92 6.957-14.909 13.914-13.915 25.843-29.817 53.673-39.757 81.503-5.963 8.945 0 19.878 0 31.805 1.988 9.94 1.988 10.934-11.927 13.915-13.915 4.97-27.83 7.952-43.733 9.94.994-3.976 1.988-6.958 3.976-9.94 15.903-19.878 21.866-43.732 23.854-65.599 9.94-45.72 27.83-88.46 42.74-130.205 10.932-26.836 4.969-50.69 4.969-77.526 0-1.988-3.976-4.97-7.952-5.964-17.89-4.97-34.787-6.957-51.684-11.927-5.964 0-8.945 2.982-11.927 6.958-9.94 12.92-23.854 28.824-35.782 44.726-3.975 5.964-9.939 10.934-19.878 8.946-11.927-2.982-28.824-5.964-42.74-7.952 0 0-1.987-1.988 4.97-3.975 13.916-1.988 29.818-5.964 43.733-10.934 5.964-1.987 9.94-5.963 13.915-10.933 9.94-16.897 17.891-32.8 25.843-50.69 3.975-5.964 7.951-10.933 15.902-10.933 19.88 0 39.758 0 57.648-1.988 7.952 0 11.928-2.982 15.903-4.97 8.946-7.951 17.891-19.879 26.836-27.83 6.958-7.951 14.91-13.915 26.836-15.903 23.855-8.945 47.71-17.89 74.545-25.842 6.958-2.982 12.921-7.951 17.89-11.927 65.6-53.672 132.194-107.345 198.787-163.005 29.818-19.878 53.672-33.793 81.502-21.866 37.77 19.879 75.539 39.757 110.326 59.636 8.946 2.981 55.66 5.963 75.539 5.963 5.963 0 12.92-1.988 19.878-3.975 21.867-15.903 45.721-33.794 67.588-48.703 6.957-4.97 13.915-6.957 19.878-8.945 15.903-1.988 33.794-1.988 49.697-3.976z" style="fill:#000;fill-opacity:1;fill-rule:nonzero;stroke:none"/>
</svg>
