<svg xmlns="http://www.w3.org/2000/svg" viewBox="0 0 1000 1000"><path d="M565.074 732.685v-52.462c193.61-48.715 276.05-221.09 259.812-383.473C803.651 138.115 677.493 9.458 523.854 5.71 362.72-4.282 229.067 91.898 185.348 246.786 164.113 337.97 169.11 421.66 211.58 502.851c49.964 94.932 126.16 151.141 227.336 177.372v58.708H304.012c3.748 18.736 3.748 39.97 3.748 58.707h131.155v31.228c-31.227 0-101.177 2.498-129.906 2.498 0 0 2.498 37.473 4.996 59.957H433.92c4.996 34.974 4.996 68.7 9.992 103.675h121.163V886.324H696.23c0-19.985 1.25-38.722-1.25-52.462-44.967-2.498-91.183-3.747-129.905-3.747v-31.228c39.97 0 86.188-1.249 131.155-1.249 0-29.978-3.747-43.718-3.747-58.707-46.217-6.246-87.437-6.246-127.408-6.246zm-209.849-385.97c2.499-114.918 43.719-177.373 146.145-177.373 71.198 0 136.151 67.451 136.151 162.383-4.996 97.43-43.718 186.115-136.151 186.115-88.686 0-146.145-62.454-146.145-171.126z"
    style="fill:#000;fill-opacity:1;fill-rule:nonzero;stroke:none"/></svg>