<svg xmlns="http://www.w3.org/2000/svg" width="1000" height="1000">
  <path d="M500.496 5c272.968 0 494.507 221.54 494.507 495.002 0 270.495-218.572 495.001-495.001 495.001C229.506 995.003 5 776.431 5 500.002 5 229.506 223.572 5 500.496 5zm-200.77 186.924c7.912 44.505 15.824 82.088 19.78 126.594 0 95.934-3.956 188.901-3.956 282.858-4.945 50.44-7.912 97.912-7.912 150.33v62.308c2.967 27.692 19.78 43.516 51.43 40.55 15.823 0 31.648-8.902 47.472-12.858 22.747-7.912 22.747-10.88 11.868-30.66-4.945-8.9-4.945-15.824-4.945-24.725-2.967-19.78-6.923-37.582-9.89-63.297V617.2c37.582 14.835 37.582 14.835 37.582 43.516-2.967 59.341-2.967 121.65-2.967 184.946 0 27.693 15.825 44.506 42.528 44.506 19.78-4.945 41.538-12.857 60.33-19.78 3.956 0 9.89-12.858 9.89-19.78-18.791-52.419-21.758-107.803-21.758-164.177 0-34.616 0-34.616 36.593-41.539h2.967c105.825-20.77 197.803-111.758 210.66-218.572 19.78-172.088-131.539-301.65-293.737-255.166-28.681 8.902-56.374 20.77-82.088 33.627-16.813-43.517-49.45-43.517-84.066-40.55-19.78 3.956-24.726 12.857-19.78 27.693zM406.54 518.298V302.693c0-19.78 11.868-28.681 31.648-31.648 15.825 90.99 2.967 186.924 7.912 281.869-11.868-7.912-24.725-10.88-32.637-15.824-2.967-3.956-6.923-12.858-6.923-18.792zm122.638-254.176c0-20.77 2.967-24.726 24.725-20.77 81.1 10.88 130.55 68.242 130.55 151.32 0 38.571-4.945 79.12-31.649 112.747-23.736 37.583-64.286 53.407-101.868 60.33-12.857 0-18.791-2.967-18.791-14.835v-250.22c0-12.858 0-22.748-2.967-38.572z" style="fill:#000;fill-opacity:1;fill-rule:nonzero;stroke:none;"/>
</svg>
