<svg id="a" xmlns="http://www.w3.org/2000/svg" viewBox="0 0 1000 1000"><path d="M357.451,60.438l19.543,47.937-11.984,4.886-9.954-24.416-35.953,14.657,9.954,24.416-11.984,4.886-19.543-47.937,11.984-4.886,4.703,11.537,35.953-14.657-4.703-11.537,11.984-4.886Zm-45.724-9.312l-11.984,4.886,9.771,23.969,11.984-4.886-9.771-23.969Zm19.386,16.139l14.354-1.941-9.771-23.969-13.188,1.932-3.681-9.03-11.984,4.886,4.886,11.984,10.476-4.271,8.91,20.409ZM471.045,12.942h12.942V77.651h-12.942v12.942h38.826v-12.942h-12.942V12.942h12.942V0h-38.826V12.942Zm183.351,25.525l3.847-12.357-37.071-11.54-3.847,12.357,12.357,3.847-19.234,61.785-12.357-3.847-3.847,12.357,37.071,11.54,3.847-12.357-12.357-3.847,19.234-61.785,12.357,3.847ZM548.691,3.15l-12.898-1.07-6.422,77.385-1.07,12.898,51.59,4.281,1.07-12.898-38.693-3.211,6.422-77.385Zm108.208,118.097l34.448,17.91,5.97-11.483-34.448-17.91-5.97,11.483Zm.457-28.935l-5.97,11.483,11.483,5.97,5.97-11.483-11.483-5.97Zm75.323-4.598l5.97-11.483-11.483-5.97-5.97,11.483,11.483,5.97Zm-23.423,16.995l-11.94,22.965,11.483,5.97,11.94-22.965-11.483-5.97Zm.223-.429l5.97-11.483-34.448-17.91-5.97,11.483,34.448,17.91Zm-16.761-51.929l34.448,17.91,5.97-11.483-34.448-17.91-5.747,11.054-11.483-5.97-11.94,22.965,11.483,5.97,11.717-22.537Zm-286.065,50.139l38.195-6.971-2.324-12.732-38.195,6.971,2.324,12.732Zm-17.379-23.139l2.324,12.732,12.732-2.324-2.324-12.732-12.732,2.324Zm56.686-49.814l-2.324-12.732-12.732,2.324,2.324,12.732,12.732-2.324Zm4.648,25.463l-12.732,2.324,4.648,25.463,12.732-2.324-4.648-25.463Zm-12.818,1.848l-2.324-12.732-38.195,6.971,2.324,12.732,38.195-6.972Zm-45.079-30.748l38.195-6.972-2.324-12.732-38.195,6.971,2.237,12.256-12.732,2.324,4.648,25.463,12.732-2.324-4.561-24.988Zm-121.422,69.844l-14.849-20.608-10.5,7.566,14.849,20.608,10.5-7.566Zm-2.511,18.654l14.849,20.608,10.5-7.566-14.849-20.608-10.5,7.566Zm-16.511,43.501l-15.131-21,31.501-22.697-7.566-10.5-31.501,22.697-15.131-21,31.501-22.697-7.566-10.5-31.501,22.697-10.5,7.566,52.96,73.501,10.5-7.566,31.501-22.697-7.566-10.5-31.501,22.697ZM782.465,88.919l-10.324-7.804-54.628,72.27,10.324,7.804,23.412-30.973,10.324,7.804,7.804-10.324-10.324-7.804,23.412-30.973Zm-13.088,38.777l10.324,7.804,7.804-10.324-10.324-7.804-7.804,10.324Zm-5.284,28.452l7.804-10.324-10.324-7.804-7.804,10.324,10.324,7.804Zm23.412-30.973l10.324,7.804,7.804-10.324-10.324-7.804-7.804,10.324Zm-20.892,49.101l7.804-10.324-10.324-7.804-7.804,10.324,10.324,7.804Zm46.824-61.946l-7.804,10.324,10.324,7.804,7.804-10.324-10.324-7.804Zm-44.304,80.074l7.804-10.324-10.324-7.804-7.804,10.324,10.324,7.804ZM374.515,500c0,120.175,47.828,229.178,125.485,309.018,77.656-79.841,125.485-188.843,125.485-309.018s-47.828-229.178-125.485-309.018c-77.656,79.841-125.485,188.843-125.485,309.018Zm278.42,439.562l-19.543-47.937,11.984-4.886,9.954,24.416,35.953-14.657-9.954-24.416,11.984-4.886,19.543,47.937-11.984,4.886-4.703-11.537-35.953,14.657,4.703,11.537-11.984,4.886Zm45.724,9.312l11.984-4.886-9.771-23.969-11.984,4.886,9.771,23.969Zm-19.386-16.139l-14.354,1.941,9.771,23.969,13.188-1.932,3.681,9.03,11.984-4.886-4.886-11.984-10.476,4.271-8.91-20.409Zm-139.932,54.323h-12.942v-64.71h12.942v-12.942h-38.826v12.942h12.942v64.71h-12.942v12.942h38.826v-12.942Zm-183.351-25.525l-3.847,12.357,37.071,11.54,3.847-12.357-12.357-3.847,19.234-61.785,12.357,3.847,3.847-12.357-37.071-11.54-3.847,12.357,12.357,3.847-19.234,61.785-12.357-3.847Zm105.705,35.317l12.898,1.07,6.422-77.385,1.07-12.898-51.59-4.281-1.07,12.898,38.693,3.211-6.422,77.385Zm-108.208-118.097l-34.448-17.91-5.97,11.483,34.448,17.91,5.97-11.483Zm-.457,28.935l5.97-11.483-11.483-5.97-5.97,11.483,11.483,5.97Zm-75.323,4.598l-5.97,11.483,11.483,5.97,5.97-11.483-11.483-5.97Zm23.423-16.995l11.94-22.965-11.483-5.97-11.94,22.965,11.483,5.97Zm-.223,.429l-5.97,11.483,34.448,17.91,5.97-11.483-34.448-17.91Zm16.761,51.929l-34.448-17.91-5.97,11.483,34.448,17.91,5.747-11.054,11.483,5.97,11.94-22.965-11.483-5.97-11.717,22.537Zm286.065-50.139l-38.195,6.971,2.324,12.732,38.195-6.971-2.324-12.732Zm17.379,23.139l-2.324-12.732-12.732,2.324,2.324,12.732,12.732-2.324Zm-56.686,49.814l2.324,12.732,12.732-2.324-2.324-12.732-12.732,2.324Zm-4.648-25.463l12.732-2.324-4.648-25.463-12.732,2.324,4.648,25.463Zm12.818-1.848l2.324,12.732,38.195-6.971-2.324-12.732-38.195,6.972Zm45.079,30.748l-38.195,6.972,2.324,12.732,38.195-6.971-2.237-12.256,12.732-2.324-4.648-25.463-12.732,2.324,4.561,24.988Zm121.422-69.844l14.849,20.608,10.5-7.566-14.849-20.608-10.5,7.566Zm2.511-18.654l-14.849-20.608-10.5,7.566,14.849,20.608,10.5-7.566Zm16.511-43.501l15.131,21-31.501,22.697,7.566,10.5,31.501-22.697,15.131,21-31.501,22.697,7.566,10.5,31.501-22.697,10.5-7.566-52.96-73.501-10.5,7.566-31.501,22.697,7.566,10.5,31.501-22.697Zm-530.197,69.18l10.324,7.804,54.628-72.27-10.324-7.804-23.412,30.973-10.324-7.804-7.804,10.324,10.324,7.804-23.412,30.973Zm13.088-38.777l-10.324-7.804-7.804,10.324,10.324,7.804,7.804-10.324Zm5.284-28.452l-7.804,10.324,10.324,7.804,7.804-10.324-10.324-7.804Zm-23.412,30.973l-10.324-7.804-7.804,10.324,10.324,7.804,7.804-10.324Zm20.892-49.101l-7.804,10.324,10.324,7.804,7.804-10.324-10.324-7.804Zm-46.824,61.946l7.804-10.324-10.324-7.804-7.804,10.324,10.324,7.804Zm44.304-80.074l-7.804,10.324,10.324,7.804,7.804-10.324-10.324-7.804ZM939.562,357.628l-47.937,19.543-4.886-11.984,24.416-9.954-14.657-35.953-24.416,9.954-4.886-11.984,47.937-19.543,4.886,11.984-11.537,4.703,14.657,35.953,11.537-4.703,4.886,11.984Zm9.312-45.724l-4.886-11.984-23.969,9.771,4.886,11.984,23.969-9.771Zm-16.139,19.386l1.941,14.354,23.969-9.771-1.932-13.188,9.03-3.681-4.886-11.984-11.984,4.886,4.271,10.476-20.409,8.91Zm54.323,139.932v12.942h-64.71v-12.942h-12.942v38.826h12.942v-12.942h64.71v12.942h12.942v-38.826h-12.942Zm-25.525,183.351l12.357,3.847,11.54-37.071-12.357-3.847-3.847,12.357-61.785-19.234,3.847-12.357-12.357-3.847-11.54,37.071,12.357,3.847,3.847-12.357,61.785,19.234-3.847,12.357Zm35.317-105.705l1.07-12.898-77.385-6.422-12.898-1.07-4.281,51.59,12.898,1.07,3.211-38.693,77.385,6.422Zm-118.097,108.208l-17.91,34.448,11.483,5.97,17.91-34.448-11.483-5.97Zm28.935,.457l-11.483-5.97-5.97,11.483,11.483,5.97,5.97-11.483Zm4.599,75.323l11.483,5.97,5.97-11.483-11.483-5.97-5.97,11.483Zm-16.996-23.423l-22.965-11.94-5.97,11.483,22.965,11.94,5.97-11.483Zm.429,.223l11.483,5.97,17.91-34.448-11.483-5.97-17.91,34.448Zm51.929-16.761l-17.91,34.448,11.483,5.97,17.91-34.448-11.054-5.747,5.97-11.483-22.965-11.94-5.97,11.483,22.537,11.717Zm-50.139-286.065l6.971,38.195,12.732-2.324-6.971-38.195-12.732,2.324Zm23.139-17.379l-12.732,2.324,2.324,12.732,12.732-2.324-2.324-12.732Zm49.814,56.686l12.732-2.324-2.324-12.732-12.732,2.324,2.324,12.732Zm-25.463,4.648l-2.324-12.732-25.463,4.648,2.324,12.732,25.463-4.648Zm-1.848-12.818l12.732-2.324-6.971-38.195-12.732,2.324,6.972,38.195Zm30.748-45.079l6.972,38.195,12.732-2.324-6.971-38.195-12.256,2.237-2.324-12.732-25.463,4.648,2.324,12.732,24.988-4.561Zm-69.844-121.422l20.608-14.849-7.566-10.5-20.608,14.849,7.566,10.5Zm-18.654-2.511l-20.608,14.849,7.566,10.5,20.608-14.849-7.566-10.5Zm-43.501-16.511l21-15.131,22.697,31.501,10.5-7.566-22.697-31.501,21-15.131,22.697,31.501,10.5-7.566-22.697-31.501-7.566-10.5-73.501,52.96,7.566,10.5,22.697,31.501,10.5-7.566-22.697-31.501Zm69.18,530.197l7.804-10.324-72.27-54.628-7.804,10.324,30.973,23.412-7.804,10.324,10.324,7.804,7.804-10.324,30.973,23.412Zm-38.777-13.088l-7.804,10.324,10.324,7.804,7.804-10.324-10.324-7.804Zm-28.452-5.284l10.324,7.804,7.804-10.324-10.324-7.804-7.804,10.324Zm30.973,23.412l-7.804,10.324,10.324,7.804,7.804-10.324-10.324-7.804Zm-49.101-20.892l10.324,7.804,7.804-10.324-10.324-7.804-7.804,10.324Zm61.946,46.824l-10.324-7.804-7.804,10.324,10.324,7.804,7.804-10.324Zm-80.074-44.304l10.324,7.804,7.804-10.324-10.324-7.804-7.804,10.324ZM60.438,648.229l47.937-19.543,4.886,11.984-24.416,9.954,14.657,35.953,24.416-9.954,4.886,11.984-47.937,19.543-4.886-11.984,11.537-4.703-14.657-35.953-11.537,4.703-4.886-11.984Zm-9.312,45.724l4.886,11.984,23.969-9.771-4.886-11.984-23.969,9.771Zm16.139-19.386l-1.941-14.354-23.969,9.771,1.932,13.188-9.03,3.681,4.886,11.984,11.984-4.886-4.271-10.476,20.409-8.91ZM12.942,534.635v-12.942H77.651v12.942h12.942v-38.826h-12.942v12.942H12.942v-12.942H0v38.826H12.942Zm25.525-183.351l-12.357-3.847-11.54,37.071,12.357,3.847,3.847-12.357,61.785,19.234-3.847,12.357,12.357,3.847,11.54-37.071-12.357-3.847-3.847,12.357-61.785-19.234,3.847-12.357ZM3.15,456.989l-1.07,12.898,77.385,6.422,12.898,1.07,4.281-51.59-12.898-1.07-3.211,38.693-77.385-6.422Zm118.097-108.208l17.91-34.448-11.483-5.97-17.91,34.448,11.483,5.97Zm-28.935-.457l11.483,5.97,5.97-11.483-11.483-5.97-5.97,11.483Zm-4.599-75.323l-11.483-5.97-5.97,11.483,11.483,5.97,5.97-11.483Zm16.996,23.423l22.965,11.94,5.97-11.483-22.965-11.94-5.97,11.483Zm-.429-.223l-11.483-5.97-17.91,34.448,11.483,5.97,17.91-34.448Zm-51.929,16.761l17.91-34.448-11.483-5.97-17.91,34.448,11.054,5.747-5.97,11.483,22.965,11.94,5.97-11.483-22.537-11.717Zm50.139,286.065l-6.971-38.195-12.732,2.324,6.971,38.195,12.732-2.324Zm-23.139,17.379l12.732-2.324-2.324-12.732-12.732,2.324,2.324,12.732Zm-49.814-56.686l-12.732,2.324,2.324,12.732,12.732-2.324-2.324-12.732Zm25.463-4.648l2.324,12.732,25.463-4.648-2.324-12.732-25.463,4.648Zm1.848,12.818l-12.732,2.324,6.971,38.195,12.732-2.324-6.972-38.195Zm-30.748,45.079l-6.972-38.195-12.732,2.324,6.971,38.195,12.256-2.237,2.324,12.732,25.463-4.648-2.324-12.732-24.988,4.561Zm69.844,121.422l-20.608,14.849,7.566,10.5,20.608-14.849-7.566-10.5Zm18.654,2.511l20.608-14.849-7.566-10.5-20.608,14.849,7.566,10.5Zm43.501,16.511l-21,15.131-22.697-31.501-10.5,7.566,22.697,31.501-21,15.131-22.697-31.501-10.5,7.566,22.697,31.501,7.566,10.5,73.501-52.96-7.566-10.5-22.697-31.501-10.5,7.566,22.697,31.501ZM88.919,223.215l-7.804,10.324,72.27,54.628,7.804-10.324-30.973-23.412,7.804-10.324-10.324-7.804-7.804,10.324-30.973-23.412Zm38.777,13.088l7.804-10.324-10.324-7.804-7.804,10.324,10.324,7.804Zm28.452,5.284l-10.324-7.804-7.804,10.324,10.324,7.804,7.804-10.324Zm-30.973-23.412l7.804-10.324-10.324-7.804-7.804,10.324,10.324,7.804Zm49.101,20.892l-10.324-7.804-7.804,10.324,10.324,7.804,7.804-10.324Zm-61.946-46.824l10.324,7.804,7.804-10.324-10.324-7.804-7.804,10.324Zm80.074,44.304l-10.324-7.804-7.804,10.324,10.324,7.804,7.804-10.324Z"/></svg>
