<?xml version="1.0" encoding="utf-8"?>
<!-- Generator: Adobe Illustrator 26.0.1, SVG Export Plug-In . SVG Version: 6.00 Build 0)  -->
<svg version="1.1" id="Layer_1" xmlns="http://www.w3.org/2000/svg" xmlns:xlink="http://www.w3.org/1999/xlink" x="0px" y="0px"
	 viewBox="0 0 1000 1000" style="enable-background:new 0 0 1000 1000;" xml:space="preserve">
<style type="text/css">
	.st0{fill:#FFFFFF;}
</style>
<rect class="st0" width="32" height="32"/>
<g>
	<path d="M665.8,484.4c-6.8-5.5-14.6-4.6-30.1-3c-7,0.8-15.2,1.7-24.5,3c-8.2,1.1-15.6,2.8-22.3,4.9c-13.7,4.1-20.5,6.2-30.9,20.2
		c-10.4,14-10.4,25.3-10.4,47.8c0,13.9,0,31.5,0,53.7c0,31.1,0,53.3,0,68.7c0,14.9,0,22.4,4.6,27c4.6,4.6,12.1,4.6,27.1,4.6
		c11.5,0,24.6,0,37,0c0.9,0,1.7,0,2.6,0c24.6,0,36.8,0,45.9-8.3c9.1-8.3,10.1-19.8,12.1-42.9c1.6-18.1,2.8-40.1,2.8-65.1
		c0-33.3-2.2-61.6-4.5-81.9C673.5,497.6,672.6,489.8,665.8,484.4z"/>
	<path d="M500.5,5C223.6,5,5,229.5,5,499.5C5,773.5,226.5,995,499.5,995C776.4,995,995,770.5,995,499.5C995,223.6,770.5,5,500.5,5z
		 M500,838.2c-186.8,0-338.2-151.4-338.2-338.2S313.2,161.8,500,161.8S838.2,313.2,838.2,500S686.8,838.2,500,838.2z"/>
	<path d="M405.9,489.2c-6.7-2-14.2-3.7-22.3-4.9c-9.3-1.3-17.5-2.2-24.5-3c-15.5-1.7-23.3-2.5-30.1,3c-6.8,5.5-7.7,13.2-9.4,28.8
		c-2.3,20.4-4.5,48.7-4.5,81.9c0,24.9,1.2,47,2.8,65.1c2,23,3,34.5,12.1,42.9c9.1,8.3,21.4,8.3,45.9,8.3c0.8,0,1.7,0,2.6,0
		c12.4,0,25.6,0,37,0c14.9,0,22.4,0,27.1-4.6c4.6-4.6,4.6-12.1,4.6-27c0-15.4,0-37.6,0-68.7c0-22.2,0-39.8,0-53.7
		c0-22.6,0-33.8-10.4-47.8C426.4,495.5,419.5,493.4,405.9,489.2z"/>
	<path d="M669.7,293.2c-8.2-7.7-20-8.5-43.6-10.3c-33-2.4-78.1-4.9-126-4.9s-93,2.5-126,4.9c-23.6,1.8-35.5,2.6-43.6,10.3
		c-1,1-2.1,2.1-3,3.2c-7,8.7-7,20.9-7,45.2c0,24.1,0,36.2,7,44.9c0.9,1.1,2,2.2,3,3.2c8.2,7.7,19.8,8.5,43.2,10.3
		c32.2,2.4,76.6,4.8,126.5,4.8s94.3-2.4,126.5-4.8c23.3-1.7,35-2.6,43.2-10.3c1-1,2.1-2.1,3-3.2c7-8.7,7-20.8,7-44.9
		c0-24.3,0-36.5-7-45.2C671.8,295.3,670.7,294.2,669.7,293.2z"/>
</g>
</svg>
