<svg xmlns="http://www.w3.org/2000/svg" viewBox="0 0 1000 1000"><path d="M5 500.002v.395-.395c.099-89.506 22.55-172.682 67.253-249.726 44.209-74.473 103.55-133.814 178.023-178.023C327.419 27.45 410.694 5 500.002 5c89.308 0 172.583 22.45 249.726 67.253C824.2 116.462 883.54 175.803 927.75 250.276c44.803 77.143 67.253 160.418 67.253 249.726 0 89.308-22.45 172.583-67.253 249.726C883.541 824.2 824.2 883.54 749.728 927.75c-77.143 44.803-160.418 67.253-249.726 67.253-89.308 0-172.583-22.45-249.726-67.253-74.473-44.209-133.814-103.55-178.023-178.022C27.55 672.684 5.099 589.508 5 500.002zM276.979 777.42l104.835-4.945V244.341l-104.835-4.945v8.901c1.978.99 3.956.99 5.934 1.979 5.934 2.967 11.868 5.934 15.824 9.89 7.912 4.945 14.835 11.868 18.792 18.79 5.934 9.891 12.857 19.781 15.824 32.638 4.945 14.836 7.912 31.649 7.912 48.462V647.86c0 20.77-2.967 39.56-7.912 56.374-2.967 12.857-7.912 24.725-15.824 34.616-4.946 7.912-10.88 13.846-18.792 18.79-4.945 3.957-9.89 5.935-15.824 8.902h-5.934zm142.418-6.923 48.462 3.956c35.604 2.967 62.308 2.967 82.088 2.967 15.824 0 33.626-3.956 50.44-10.879 18.79-8.901 36.593-22.747 48.461-37.583 15.825-18.79 25.715-42.527 30.66-68.242 5.934-37.582 1.978-69.23-7.912-96.923-6.923-17.802-18.792-29.67-30.66-41.539-4.945-4.945-12.857-9.89-25.714-15.824-6.923-2.967-16.813-7.912-26.704-10.879l-13.846-3.956 8.901-5.934c6.923-4.945 12.858-8.901 19.78-14.835 6.924-5.934 14.836-12.857 18.792-19.78 5.934-13.847 12.857-29.671 15.824-48.462 2.967-19.78 3.956-41.539-.989-62.308-3.956-14.835-8.901-29.67-18.791-43.517-8.901-14.835-21.758-25.714-34.616-35.604-13.846-8.901-28.681-16.814-42.527-17.803-13.846-1.978-24.726-1.978-37.583-1.978-6.923 0-18.791.99-32.637 1.978-19.78.99-36.594.99-51.429.99zm39.56-252.199c-.988 30.66-1.977 74.176.99 132.528.989 19.78 2.967 36.594 7.912 49.451 3.956 11.868 6.923 19.78 14.835 26.703 4.945 4.945 10.88 6.924 18.791 8.902 4.945.989 10.88 2.967 21.759 2.967h.989c24.725 0 44.505-2.967 59.34-9.89 24.726-12.858 42.528-33.627 50.44-66.265 6.923-22.747 7.912-45.494 2.967-66.263-3.956-16.814-10.879-31.649-23.736-43.517-10.88-11.868-19.78-19.78-31.649-25.714-7.912-3.957-23.736-6.924-45.494-7.913-14.836-.989-31.649-4.945-51.43-2.967zm0-36.593h23.737c17.802 0 33.626-.99 47.473-4.945 20.769-5.934 35.604-14.835 45.494-26.704 12.857-14.835 17.803-32.637 19.78-53.406 1.979-21.759-.988-40.55-5.934-60.33-5.934-19.78-16.813-32.638-30.659-40.55-13.846-7.912-24.725-14.835-39.56-16.813-12.858-.99-22.748-.99-33.627.989-8.901 1.978-14.835 4.945-18.791 7.912-2.967 3.956-3.956 21.758-4.945 53.407-.99 24.725-2.967 55.385-2.967 91.978zM618.19 254.232l7.912 3.956c3.956 2.967 7.912 7.912 13.846 13.846 5.934 6.923 11.868 14.835 16.813 22.747 5.935 8.901 10.88 19.78 14.836 31.649 4.945 13.846 6.923 26.703 6.923 40.55 0 33.626-3.956 60.33-14.835 83.076-4.946 11.869-9.89 19.78-15.825 23.737l8.901-2.967c5.935-1.978 11.869-5.934 18.792-11.868 6.923-5.935 14.835-10.88 21.758-19.78 8.901-8.902 14.835-19.781 17.802-30.66 4.945-13.846 8.901-28.682 8.901-45.495 0-15.824-3.956-31.648-11.868-45.495-6.923-10.879-14.835-20.769-26.703-30.659-8.901-7.912-18.791-13.846-29.67-20.77-8.902-4.944-17.803-6.922-26.704-8.9zm53.407 503.408 8.9-3.956c8.902-2.967 16.814-5.934 24.726-10.88 10.88-6.922 19.78-14.835 27.693-24.725 10.879-11.868 17.802-22.747 24.725-37.582 7.912-14.835 8.901-33.627 8.901-52.418 0-18.791-3.956-35.605-11.868-52.418-5.934-12.857-11.868-24.725-21.758-35.604-8.902-7.912-17.803-16.814-29.67-21.759-5.935-5.934-13.847-9.89-22.748-12.857l-8.901-1.978c2.967 1.978 4.945 3.956 6.923 6.923 4.945 7.912 10.879 13.846 15.824 23.737 4.945 10.879 11.868 24.725 15.824 39.56 4.945 17.802 7.912 35.605 7.912 55.385 0 15.824-.989 32.637-2.967 46.484-2.967 11.868-5.934 23.736-12.857 36.593-3.956 8.901-7.912 16.813-14.835 24.726-4.945 5.934-6.923 11.868-10.88 14.835z"/></svg>