<svg xmlns="http://www.w3.org/2000/svg" viewBox="0 0 1000 1000"><path d="M5 500.496c0-90 22.747-173.077 67.253-250.22 44.506-74.177 103.846-133.517 178.023-178.023C327.419 27.747 410.496 5 500.496 5c89.011 0 172.089 22.747 249.232 67.253 74.176 44.506 133.517 103.846 178.022 178.023 44.506 77.143 67.253 160.22 67.253 249.231 0 90-22.747 173.078-67.253 250.22-44.505 74.177-103.846 133.518-178.022 178.023-77.143 44.506-160.22 67.253-249.232 67.253-90 0-173.077-22.747-250.22-67.253-74.177-44.505-133.517-103.846-178.023-178.022C27.747 672.585 5 589.508 5 500.496zm375.825 86.044h58.352c-2.967 93.957-5.934 187.913-8.9 282.858h1.977C517.31 753.684 602.364 636.98 687.42 520.276c-33.627 1.978-66.264 2.967-98.902 5.935 27.693-77.144 57.363-150.33 88.023-228.463-3.956 1.978-4.945 1.978-7.912 1.978-11.869.99-26.704 3.956-39.561 5.934-26.703 2.967-54.396 6.923-83.077 10.88-27.693 3.956-54.396 6.923-81.1 11.868-19.78 1.978-37.582 3.956-55.384 6.923-2.967 0-4.945 2.967-4.945 3.956-1.978 3.956-1.978 7.912-1.978 12.857-1.978 23.736-3.956 44.506-5.934 67.253-2.967 22.747-3.956 45.495-6.923 68.242-1.978 22.747-4.946 45.495-6.924 68.242-.989 9.89-.989 19.78-1.978 30.66zm25.715-18.79c0-12.858 1.978-26.704 2.967-37.583 1.978-24.726 4.945-47.473 7.912-69.231.989-24.726 3.956-47.473 5.934-71.21.99-13.846 2.967-27.692 3.956-41.538 0-5.934 4.945-8.901 8.901-6.923 6.923 0 10.88 1.978 8.901 8.901-3.956 34.615-5.934 72.198-9.89 107.803-1.978 28.68-3.956 58.351-6.923 87.033v4.945h53.407c0 1.978-1.978 83.077-2.967 111.758v8.902c-.99 5.934-4.945 8.9-9.89 8.9-6.923 0-10.88-2.966-10.88-9.89V567.75zm0-256.156c0 .99 1.978.99 1.978 1.978 87.033-8.9 173.077-19.78 260.11-29.67v-.989c-3.955-2.967-8.9-4.945-13.846-5.934-35.604-15.824-73.187-31.649-108.791-46.484-2.967 0-3.956-2.967-3.956-3.956-.99-8.901-.99-17.802-.99-25.714-2.966-24.726-9.89-46.484-26.703-65.275-12.857-15.824-29.67-24.726-48.461-29.67-3.956 9.89-5.934 19.78-8.901 29.67 24.725 9.89 38.571 27.692 44.505 51.429 2.967 13.846 2.967 26.703 4.945 40.55 0 2.966-2.967 4.944-4.945 7.911-30.66 24.726-60.33 48.462-90 73.187-.99 1.978-2.967 1.978-4.945 2.967zm50.44 456.925v-65.275c0-6.923 4.945-9.89 9.89-9.89 5.934 0 9.89 3.956 9.89 9.89v64.286c0 6.923-3.956 10.88-7.912 10.88-6.923 0-11.868-3.957-11.868-9.891z"/></svg>