<svg xmlns="http://www.w3.org/2000/svg" viewBox="0 0 1000 1000"><path d="M5 500.002v.395-.395c.099-89.506 22.55-172.682 67.253-249.726 44.209-74.473 103.55-133.814 178.023-178.023C327.419 27.45 410.694 5 500.002 5c89.308 0 172.583 22.45 249.726 67.253C824.2 116.462 883.54 175.803 927.75 250.276c44.803 77.143 67.253 160.418 67.253 249.726 0 89.308-22.45 172.583-67.253 249.726C883.541 824.2 824.2 883.54 749.728 927.75c-77.143 44.803-160.418 67.253-249.726 67.253-89.308 0-172.583-22.45-249.726-67.253-74.473-44.209-133.814-103.55-178.023-178.022C27.55 672.684 5.099 589.508 5 500.002zm175.056 183.462c0-.99 0-.99.989-.99l8.9-17.801c5.935-11.869 10.88-23.737 15.825-35.605 13.846-21.758 29.67-42.528 45.495-61.319 3.956-4.945 7.912-8.901 10.879-14.835-7.912-13.846-8.901-40.55 8.9-54.396 18.792-13.846 28.682-7.912 39.561-3.956 3.956 1.978 5.935 1.978 7.913 0l10.879-8.901c8.9-7.912 18.791-14.835 28.681-21.758 21.758-19.78 44.506-35.605 69.231-51.43C547.97 335.332 726.98 275.99 819.948 326.43c-.99-5.934-3.956-10.88-7.912-15.825-12.858-22.747-27.693-43.516-45.495-62.308-10.88-11.868-24.725-22.747-38.572-33.626-16.813-14.835-37.582-28.681-60.33-38.572-14.835-8.9-31.648-14.835-48.461-20.769-14.835-3.956-29.67-8.901-44.506-11.868-61.319-8.901-89.011-8.901-147.363 0-39.56 7.912-64.286 15.824-102.857 35.604-19.78 9.89-37.583 22.748-56.374 37.583-11.868 9.89-23.737 21.758-35.605 33.627-18.791 21.758-36.593 46.483-51.428 72.198-58.352 110.77-50.44 232.418-.99 360.99zm21.758 18.791c2.967 19.78 13.846 34.616 32.637 45.495 15.825 8.9 35.605 10.879 55.385 12.857 9.89 0 20.77-1.978 32.638-2.967 12.857-.99 26.703-4.945 40.55-8.901 35.604-9.89 69.23-24.726 100.879-39.56 20.769-9.891 39.56-23.737 59.34-36.594 29.67-18.792 54.396-43.517 79.122-69.231 12.857-13.847 24.725-27.693 35.604-43.517 13.846-19.78 25.715-40.55 33.627-65.275 4.945-15.824 7.912-31.648 6.923-48.462-2.967-12.857-8.901-24.725-17.803-33.626-7.912-7.912-16.813-12.857-26.703-16.813-12.857-4.945-27.692-5.934-42.528-5.934-8.9 0-17.802 0-26.703 1.978-18.791 1.978-38.571 5.934-57.363 11.868-52.417 13.846-102.857 40.55-149.34 74.176-11.87 6.923-22.748 15.824-33.627 24.725-3.956 2.967-3.956 2.967-1.978 5.934 2.967 6.923 4.945 12.857 2.967 20.77-.99 18.79-20.77 33.626-40.55 27.692-3.956 0-7.912-1.978-10.88-1.978h-3.955c-3.956 1.978-5.934 4.945-7.912 7.912-10.88 16.813-23.737 34.616-35.605 50.44-8.9 14.835-15.824 27.692-20.77 44.505-3.955 14.836-6.922 29.67-3.955 44.506zm165.165 138.462c1.978 0 1.978 0 2.967.99 13.846 5.933 28.682 9.89 44.506 13.845 19.78 5.934 42.528 7.912 63.297 9.89h38.571c9.89 0 20.77-1.978 30.66-1.978 19.78-1.978 38.571-7.912 57.363-11.868 16.813-3.956 32.637-9.89 48.461-16.813 25.715-10.88 49.451-25.714 71.21-41.539 10.879-8.9 20.769-15.824 31.648-26.703 18.791-17.802 35.604-38.572 50.44-60.33 15.824-23.736 28.681-50.44 39.56-77.143 9.89-23.736 13.846-46.484 18.791-72.198 1.978-9.89 2.967-20.77 3.956-30.66 0-49.45 0-57.362-6.923-80.11v-1.978h-.989c0 .99-42.527 85.056-54.395 103.847-18.792 29.67-40.55 55.385-65.275 80.11l-26.704 25.714c-14.835 13.847-31.648 25.715-47.472 38.572-22.748 17.802-44.506 34.615-68.242 49.45-20.77 12.858-42.528 25.715-65.275 36.594-12.858 7.912-24.726 13.846-37.583 18.791-20.77 7.913-38.571 16.814-57.363 22.748-22.747 6.923-44.505 14.835-68.242 18.791-.989 0-.989 1.978-2.967 1.978z"/></svg>