<svg xmlns="http://www.w3.org/2000/svg" viewBox="0 0 33 32">
	<path
		d="M16.4 31.8c8.7 0 15.8-7.1 15.8-15.8C32.2 7.3 25.1.2 16.4.2 7.7.2.6 7.3.6 16c0 8.7 7.1 15.8 15.8 15.8zM6.9 9.1l4.7-4.7h2.2c-.6.3-2.6 2.8-3.1 4.7H6.9zM16 4.5v4.7h-4.5c.3-1 1.4-3.2 3.4-4.7H16zm.9 4.6h4.5c-1.1-2.5-2.8-4.2-3.5-4.7h-1v4.7zm9.1 0h-3.7c-.6-1.4-1.6-3.3-3.1-4.7h2.1L26 9.1zM10.5 22.9H6.9l4.7 4.7h2.1c-1.5-1.4-2.6-3.4-3.2-4.7zm.9 0h4.5v4.7h-1c-.7-.6-2.4-2.2-3.5-4.7zm5.4 0v4.7h1.1c2-1.4 3.1-3.7 3.4-4.7h-4.5zm4.5 4.6l4.7-4.7h-3.8c-.5 1.8-2.5 4.3-3.1 4.7h2.2zM9.6 20.1c.3 0 .7 0 1-.1s.6-.2.9-.4c.3-.2.5-.5.6-.8.1-.3.2-.6.2-1h-1.5c0 .2-.1.4-.2.5-.1.2-.3.3-.5.3-.2.1-.4.1-.6.1-.2 0-.3 0-.5-.1s-.3-.1-.4-.3c-.1-.1-.2-.3-.3-.4 0-.2-.1-.3-.1-.5v-3.9c0-.2 0-.3.1-.5s.1-.3.3-.4.3-.2.4-.3.3-.1.5-.1.4 0 .6.1c.2.1.3.2.5.3.1.2.2.3.2.5h1.5c0-.3-.1-.7-.2-1-.1-.3-.3-.6-.6-.8-.3-.2-.6-.4-.9-.4-.3-.1-.7-.1-1-.1-.2 0-.5 0-.7.1-.2 0-.5.1-.7.2-.2.1-.4.2-.6.4-.2.2-.3.3-.4.6-.1.2-.2.4-.2.7 0 .2-.1.5-.1.7v3.9c0 .2 0 .5.1.7 0 .2.1.5.2.7.1.2.3.4.4.6.2.2.4.3.6.4.2.1.4.2.6.2.3.1.5.1.8.1zm6.9 0c.3 0 .6 0 .9-.1.3-.1.5-.2.8-.3.2-.2.5-.3.6-.6.2-.2.3-.5.4-.8.1-.3.1-.6.1-.9v-3.9c0-.3 0-.6-.1-.9-.1-.3-.2-.5-.4-.8l-.6-.6c-.2-.2-.5-.3-.8-.3-.3-.1-.6-.1-.9-.1s-.6 0-.9.1-.5.2-.8.3c-.2.1-.5.3-.6.6-.2.2-.3.5-.4.8-.1.3-.1.6-.1.9v3.9c0 .3 0 .6.1.9.1.3.2.5.4.8l.6.6c.2.1.5.2.8.3.3.1.6.1.9.1zm0-1.3c-.2 0-.3 0-.5-.1-.2 0-.3-.1-.4-.3-.1-.1-.2-.3-.3-.4 0-.2-.1-.3-.1-.5v-3.9c0-.2 0-.3.1-.5s.1-.3.3-.4c.1-.1.3-.2.4-.3.2 0 .3-.1.5-.1s.3 0 .5.1c.2 0 .3.1.4.3.1.1.2.3.3.4.1.2.1.3.1.5v3.9c0 .2 0 .3-.1.5 0 .2-.1.3-.3.4-.1.1-.3.2-.4.3-.2 0-.3.1-.5.1zm6.9 1.2h-2.7v-8.8h2.7c.3 0 .5 0 .8.1.3.1.5.2.7.3.2.1.4.3.6.6.1.2.2.5.3.7.1.3.1.5.1.8 0 .8-.3 1.4-.9 1.8.8.4 1.2 1 1.2 2 0 .3 0 .6-.1.9-.1.3-.2.5-.4.8l-.6.6c-.3.1-.5.2-.8.3-.3-.1-.6-.1-.9-.1zm-1.2-5.2h1.2c.1 0 .3 0 .4-.1.1-.1.2-.1.3-.3.1-.1.1-.2.2-.4v-.4-.4c0-.1-.1-.3-.2-.4l-.3-.3c-.1-.1-.3-.1-.4-.1h-1.2v2.4zm0 1.3v2.6h1.2c.2 0 .3 0 .5-.1.2 0 .3-.1.5-.3.1-.1.2-.3.3-.4.1-.2.1-.3.1-.5s0-.3-.1-.5-.1-.3-.3-.4c-.1-.1-.3-.2-.5-.3-.2 0-.3-.1-.5-.1h-1.2z"
		fill-rule="evenodd" clip-rule="evenodd" />
</svg>