<svg xmlns="http://www.w3.org/2000/svg" viewBox="0 0 1000 1000"><path d="M664.75 499.4c22.91 19.293 45.821 38.586 65.115 56.674 32.558 32.558 60.293 59.087 91.645 92.85 9.647 8.442 9.647 13.265 0 27.735C716.6 777.951 612.897 884.066 507.988 985.357c0 3.618-4.823 3.618-8.44 9.647-6.03-6.03-9.647-9.647-19.294-18.088L188.438 685.1c-22.911-22.911-22.911-22.911 0-45.822 45.822-45.823 92.85-91.645 143.496-139.879-9.647-8.44-13.264-18.088-22.911-21.705-42.205-42.205-83.204-88.027-124.203-125.409-14.47-13.264-14.47-21.705 0-36.175C286.112 214.818 382.58 117.144 485.077 15.853c14.47-14.47 18.088-14.47 32.558 0 101.292 101.291 198.966 198.965 294.228 295.433 19.294 19.294 19.294 27.735 0 41-45.822 45.822-91.645 92.85-147.114 147.113zm-329.198-2.413L495.93 662.19l165.2-160.379-159.17-166.408z"/></svg>