<svg xmlns="http://www.w3.org/2000/svg" width="1000" height="1000">
  <path d="M5 500.496C5 225.55 226.54 5 500.496 5c272.968 0 494.507 222.528 494.507 494.507 0 274.946-222.528 495.496-494.507 495.496C225.55 995.003 5 772.475 5 500.496zm153.297-6.923c-1.978 190.88 155.275 353.078 347.144 353.078 191.869 1.978 351.1-154.286 353.078-346.155 2.967-193.847-154.286-353.078-347.144-355.056-190.88-1.978-353.078 155.275-353.078 348.133zm29.67 27.692c3.957-43.516 8.902-82.088 12.858-119.67h7.912c7.912 33.626 17.802 65.275 28.681 98.901-10.879 4.945-26.703 10.88-49.45 20.77zm49.451-110.77c1.978-65.274 58.352-121.648 122.638-121.648 68.242 0 124.616 56.374 124.616 121.649C486.65 477.749 428.298 536.1 360.056 536.1c-66.264-1.978-122.638-58.352-122.638-125.605zm12.858 208.683c0-23.736 14.835-39.56 40.55-42.528 25.714-1.978 48.46 18.792 49.45 42.528 0 24.725-19.78 45.495-44.506 45.495-27.692 1.978-47.472-17.803-45.494-45.495zM275 280.935c28.681-25.714 59.34-48.462 92.967-72.198 1.978 23.736 3.956 38.571 6.923 51.429-32.637 6.923-63.297 15.824-96.923 25.714 0-2.967-2.967-4.945-2.967-4.945zm51.429 480.66c18.79-13.845 31.648-22.746 43.516-31.648 19.78 21.759 42.528 46.484 62.308 69.231 0 2.968 0 4.946-.989 5.935-32.637-12.858-66.264-28.682-104.835-43.517zm13.846-199.78c24.725-2.967 42.527-2.967 65.275-4.945-10.88 17.802-22.748 35.604-35.605 56.374-9.89-17.802-17.802-31.649-29.67-51.429zm47.473 109.78c-1.978-70.22 53.406-125.604 120.66-125.604 68.241 0 122.637 53.407 122.637 120.66s-54.396 123.626-119.67 123.626c-67.254 1.978-123.627-51.428-123.627-118.681zm74.176-424.287c1.978-22.747 24.725-45.494 46.483-45.494 25.715 1.978 48.462 24.725 48.462 47.473 0 21.758-22.747 46.483-48.462 46.483-23.736 0-46.483-24.725-46.483-48.462zm4.945 275.935c12.857-22.747 25.714-47.472 41.538-71.209 14.835 23.737 29.67 46.484 43.517 71.21zm15.824-201.758H536.1c-9.89 17.802-15.825 33.626-27.693 56.373-10.879-22.747-17.802-36.593-25.714-56.373zm48.462 93.956c0-68.242 56.373-126.594 125.604-126.594 66.264 0 121.65 56.374 121.65 124.616 0 64.286-55.386 120.66-121.65 122.638-64.286 0-122.637-55.385-125.604-120.66zm56.373 389.672V797.2c20.77-20.769 40.55-43.516 61.32-67.253 10.878 8.902 22.747 17.803 40.549 31.649-34.616 14.835-68.242 30.66-101.869 43.517zm22.748-248.243c22.747 1.978 42.527 1.978 64.286 4.945-7.912 19.78-17.803 33.627-25.715 51.429-11.868-17.802-22.747-36.594-38.571-56.374zm30.66-296.704c2.966-12.858 4.944-27.693 9.89-48.462 30.659 20.77 62.307 43.517 91.978 66.264-1.978 2.967-1.978 4.945-4.945 7.912-30.66-9.89-63.297-18.791-96.924-25.714zm36.593 359.012c1.978-23.736 14.835-42.528 42.527-42.528 26.704-1.978 46.484 18.792 46.484 42.528 0 27.692-17.802 45.495-43.517 45.495-25.714 0-48.461-20.77-45.494-45.495zm103.846-118.682c7.912-30.66 18.792-65.275 28.682-98.901 1.978 0 4.945 0 4.945-2.967 2.967 40.55 7.912 79.12 12.857 119.67-22.747-6.923-35.605-12.857-46.484-17.802z" style="fill:#000;fill-opacity:1;fill-rule:nonzero;stroke:none;"/>
</svg>
