<?xml version="1.0" encoding="utf-8"?>
<!-- Generator: Adobe Illustrator 26.0.1, SVG Export Plug-In . SVG Version: 6.00 Build 0)  -->
<svg version="1.1" id="Layer_1" xmlns="http://www.w3.org/2000/svg" xmlns:xlink="http://www.w3.org/1999/xlink" x="0px" y="0px"
	 viewBox="0 0 1000 1000" style="enable-background:new 0 0 1000 1000;" xml:space="preserve">
<path d="M500.5,5C223.6,5,5,229.5,5,499.5C5,773.5,226.5,995,499.5,995C776.4,995,995,770.5,995,499.5C995,223.6,770.5,5,500.5,5z
	 M236.8,371.5l52.2-52.2c19.5-19.5,45.4-30.2,72.9-30.2c27.5,0,53.4,10.7,72.9,30.2l37.9,37.9l-43,43l-39-39
	c-7.7-7.7-17.9-11.9-28.8-11.9s-21.1,4.2-28.8,11.9l-52.8,52.8c-5.9,5.9-14,9.3-22.3,9.3c-7.3,0-14.2-2.6-19.6-7.3
	c-6.6-5.8-10.4-14.2-10.4-22.9C227.9,384.8,231.1,377.2,236.8,371.5z M316.7,653.6c-24.1,24.1-56,37.3-90.1,37.3
	c-34.2,0-66.3-13.4-90.4-37.6c-49.3-49.7-48.6-130.9,1.6-181.1l11.7-11.7l-26.8-26.8h94.5v94.5l-24.7-24.7l-13,13
	C167,529.1,160,545.8,160,563.6c0,18.4,7.3,35.5,20.7,48.2c12.2,11.6,28.3,18,45.4,18h0c18.4,0,35.7-7.2,48.7-20.2l290.4-290.4
	c19.5-19.5,45.4-30.2,72.9-30.2c27.5,0,53.4,10.7,72.9,30.2l43,43c5.7,5.7,8.9,13.4,8.9,21.5c0,8.8-3.8,17.1-10.4,22.9
	c-5.4,4.7-12.4,7.3-19.6,7.3c-8.3,0-16.4-3.4-22.3-9.3l-43.7-43.7c-7.7-7.7-17.9-11.9-28.8-11.9c-10.9,0-21.1,4.2-28.8,11.9
	L316.7,653.6z M773.3,690.9c-34,0-66-13.2-90.1-37.3L527.1,497.5l43-43l155.1,155.1c13,13,30.3,20.2,48.7,20.2
	c17.1,0,33.2-6.4,45.4-18c13.3-12.7,20.7-29.8,20.7-48.2c0-17.8-6.9-34.5-19.5-47.1l-22.9-22.9l-24.7,24.7v-94.5h94.5l-26.8,26.8
	l21.6,21.6c50.2,50.2,50.9,131.4,1.6,181.1C839.6,677.6,807.5,690.9,773.3,690.9z"/>
</svg>
