<svg xmlns="http://www.w3.org/2000/svg" viewBox="0 0 1000 1000"><path d="M180.368 799.512V202.486c0-14.84 4.566-22.83 19.407-29.68 87.898-53.652 178.08-102.738 265.978-156.39C473.744 12.99 485.16 5 496.575 5c6.85 0 18.265 0 26.255 7.99 53.653 26.256 106.163 58.22 159.816 86.758 14.84 7.99 18.265 15.981 18.265 34.246v247.714c0 14.84 0 14.84-14.84 6.85-22.831-12.558-45.662-26.256-68.493-37.671-11.415-7.991-14.84-14.84-14.84-26.256v-133.56c0-14.84-3.425-26.255-14.84-34.246-27.397-11.416-50.228-26.256-76.483-37.671-7.99-7.99-14.84-7.99-22.83-3.425-67.352 38.813-132.42 75.342-197.487 114.154-7.991 3.425-11.416 11.416-11.416 22.831v481.73c0 19.406 3.425 30.822 22.831 42.237 59.36 35.388 121.003 68.492 178.08 102.739 11.416 7.99 22.831 7.99 34.247 0 61.643-34.247 125.569-71.917 186.07-106.164 11.416-7.99 15.982-15.981 15.982-27.397V564.355c0-11.416-4.566-19.407-15.981-27.397L428.082 377.142s-4.566-3.425-7.99-3.425c-7.991-3.424-7.991-7.99 0-11.415 11.415-7.99 22.83-14.84 34.246-19.406 11.415-6.85 26.255-14.84 42.237-21.69 6.85-7.99 14.84-4.566 26.255 0 68.493 41.096 140.41 83.333 212.327 124.428 22.83 15.982 45.661 27.397 68.492 42.237 11.415 3.425 15.982 11.416 15.982 22.831 0 99.314-4.567 197.487-4.567 292.234 0 11.416-3.424 15.982-11.415 22.831-94.748 53.653-186.07 106.163-280.819 163.24-14.84 7.991-30.821 7.991-45.661 0-94.748-57.077-187.213-107.304-280.82-163.24-11.414-6.85-15.98-14.84-15.98-26.255zm228.308-163.24V407.964c0-3.425 3.425-7.991 3.425-11.416 4.566 0 7.99 0 11.415 3.425 15.982 11.415 34.247 19.406 53.653 30.821 7.99 7.991 11.415 11.416 11.415 22.831v49.086c0 11.416 3.425 11.416 14.84 7.991 11.416-7.99 27.397-14.84 42.237-22.83 7.99-7.991 19.406-7.991 26.256 0 15.981 7.99 30.821 14.84 45.661 26.255 15.982 7.99 15.982 7.99 0 19.406-49.086 26.255-98.172 57.077-151.825 83.332-14.84 11.416-26.255 19.407-42.237 26.256-11.415 7.99-14.84 7.99-14.84-6.85z"/></svg>