<svg xmlns="http://www.w3.org/2000/svg" width="1000" height="1000">
  <path d="M5 500.002v.395-.395c.099-89.506 22.55-172.682 67.253-249.726 44.209-74.473 103.55-133.814 178.023-178.023C327.419 27.45 410.694 5 500.002 5c89.308 0 172.583 22.45 249.726 67.253C824.2 116.462 883.54 175.803 927.75 250.276c44.803 77.143 67.253 160.418 67.253 249.726 0 89.308-22.45 172.583-67.253 249.726C883.541 824.2 824.2 883.54 749.728 927.75c-77.143 44.803-160.418 67.253-249.726 67.253-89.308 0-172.583-22.45-249.726-67.253-74.473-44.209-133.814-103.55-178.023-178.022C27.55 672.684 5.099 589.508 5 500.002zm150.33 214.121h152.308s1.978 0 1.978-1.978c29.67-67.253 57.363-133.517 86.045-201.759l5.934-14.835v-.989c1.978 0 1.978 0 1.978.99 19.78 36.593 38.571 75.164 60.33 110.769 20.769 34.615 39.56 71.209 60.33 107.802 0 .99.989.99.989.99h150.33c1.978 0 3.956-.99 3.956-2.968l112.747-232.418c22.748-46.484 44.506-93.957 67.253-141.43l.99-1.977h-152.31c-.989 0-.989 0-1.978 1.978-15.824 33.626-32.637 67.253-49.45 100.88-19.78 40.549-39.561 83.076-59.341 124.615-.99.99-.99.99-.99 1.978-.988-.989-.988-.989-.988-1.978-23.737-41.539-47.473-85.055-71.21-127.583-17.802-32.637-36.593-66.264-53.406-97.912-.99-1.978-1.978-1.978-2.967-1.978h-150.33c-.99 0-1.979 0-1.979 1.978-22.747 53.407-46.483 107.802-69.23 161.21-22.748 52.417-43.517 104.835-66.264 156.263l-24.726 56.374z" style="fill:#000;fill-opacity:1;fill-rule:nonzero;stroke:none;"/>
</svg>
