<svg xmlns="http://www.w3.org/2000/svg" viewBox="0 0 1000 1000"><path d="M5 500.496C5 225.55 226.54 5 500.496 5c272.968 0 494.507 222.528 494.507 494.507 0 274.946-222.528 495.496-494.507 495.496C225.55 995.003 5 772.475 5 500.496zM202.803 286.87l11.868 256.155c0 34.615 9.89 63.297 22.747 95.934l80.11-134.506c-13.846-6.923-19.78-16.813-19.78-28.681 0-12.857 5.934-18.791 19.78-24.726l-108.79-186.924c-5.934 5.934-5.934 11.868-5.934 22.747zm21.758-28.681 104.836 184.945h16.813L490.606 196.87c-106.814 0-197.803 21.758-266.045 61.319zm18.791 396.594c10.88 19.78 19.78 39.56 30.66 51.43 23.736 2.966 90.99 22.746 199.78 47.472 0 0 0-6.923 6.924-12.857L346.21 504.452c-3.956 6.923-6.923 6.923-13.846 6.923h-2.967zm41.54 74.176c24.724 24.726 47.472 46.484 80.11 66.264l122.637 78.133h8.901v-78.133c-8.901 0-22.747-11.868-22.747-24.725-90-23.736-150.33-34.615-188.902-41.539zm73.186-231.429 132.528 238.353c9.89-10.88 23.736-7.913 31.648 0l128.572-231.43c-13.846-6.923-15.824-17.802-15.824-29.67 0-8.901 1.978-17.802 15.824-23.737L508.408 196.87h-5.934L358.078 456.98c6.923 5.935 8.901 10.88 8.901 18.792 0 11.868-1.978 15.824-8.9 21.758zm29.67 6.923 99.891-61.319v-64.286c0-11.868 2.967-17.802 14.835-17.802 13.846 0 19.78 5.934 19.78 17.802v64.286l94.946 61.32-11.868 26.703-83.078-33.627v68.242l21.759 19.78v15.825l-41.539-10.88-40.55 10.88V585.55l25.715-19.78v-68.24l-88.022 25.714zm120.66 368.903h13.846l121.65-78.133c28.68-19.78 61.318-41.538 78.131-73.187l-180 48.462c-5.934 12.857-13.846 24.725-33.627 24.725zm13.846-676.486 138.462 246.264h19.78l100.88-184.945c-66.264-39.56-156.264-54.396-259.122-61.32zm13.847 543.958c0 5.934 0 12.857 5.934 12.857l197.803-47.473c6.923-11.868 19.78-31.648 21.758-45.495l-81.1-149.34h-19.78zm155.275-289.782c5.934 5.935 12.857 10.88 13.846 24.726 0 15.824-6.923 18.791-11.868 24.725l76.154 145.385c11.868-33.626 25.714-68.242 25.714-102.857l19.78-256.155c0-7.912-8.9-16.813-13.845-22.747z"/></svg>