<?xml version="1.0" encoding="UTF-8"?><svg id="a" xmlns="http://www.w3.org/2000/svg" viewBox="0 0 1000 1000"><path d="M536.54,582.522c65.727,24.186,210.512,74.036,291.401,76.584-4.719,10.772-10.254,21.593-16.664,32.305-2.858,4.776-5.824,9.378-8.843,13.888-64.622,23.711-164.595,74.592-179.26,124.533-1.347,4.585-1.774,8.746-1.512,12.525-21.26,7.579-35.963,10.7-38.732,11.244-.36,.013-.719,.021-1.088,.021-32.596-.004-106.996-54.749-128.493-134.278-7.331-27.115-2.184-52.582,15.75-77.86,15.896-22.413,40.221-42.088,67.441-58.962Zm152.985-416.274c-52.703-28.556-112.14-43.867-172.961-43.867-44.086,0-87.018,7.88-127.931,23.374,10.5,18.612-7.115,45.732-7.388,46.142-18.787,28.248-53.612,53.424-91.594,73.612,8.076,16.053,24.432,32.287,47.696,47.977,70.152-87.816,254.329-144.577,347.011-147.323,1.425,.017,3.21,.043,5.167,.086Zm310.475,333.751c0,276.142-223.858,500-500,500S0,776.142,0,500,223.858,0,500,0s500,223.858,500,500Zm-660.917,237.977c-3.683-24.239-11.347-74.677-59.477-156.429-7.752-13.168-45.845-74.798-73.53-112.604-29.079-39.71-63.281-75.269-92.841-114.589l-.026,.021c-1.498,4.062-2.934,8.154-4.306,12.276-6.78,20.366-12.006,41.441-15.537,63.086-3.531,21.645-5.367,43.859-5.367,66.502s1.836,44.862,5.367,66.509c3.531,21.647,8.757,42.725,15.537,63.092,6.78,20.367,15.115,40.025,24.863,58.832,9.748,18.806,20.91,36.762,33.345,53.726,12.435,16.964,26.143,32.936,40.983,47.776,14.84,14.84,30.813,28.548,47.777,40.983,12.53,9.184,25.601,17.674,39.156,25.414,25.81,14.478,34.717,13.933,38.997,13.671,4.966-8.087,8.748-103.986,5.059-128.265Zm540.381-91.139c18.417-46.622,28.536-97.429,28.536-150.599,0-123.12-54.269-233.57-140.19-308.727-1.731-1.406-3.561-2.702-5.445-3.928-67.004-54.719-152.541-87.512-245.801-87.512-56.228,0-109.604,12.049-157.865,33.518-.024,.01-.045,.021-.068,.031-4.018-.566-8.461-.925-13.417-1.02-8.072,.297-32.637,1.197-56.612,15.079-11.27,6.708-22.191,13.941-32.729,21.665-16.964,12.435-32.936,26.142-47.777,40.982-14.84,14.839-28.548,30.811-40.983,47.774-12.435,16.963-23.597,34.917-33.345,53.722-1.195,2.304-2.368,4.622-3.52,6.951,.056,.108,.13,.252,.185,.36,15.768,4.747,76.384-10.239,135.708-37.901,10.507,20.936,30.292,40.418,56.559,58.132-10.58,19.469-15.496,40.205-12.634,62.041,12.228,93.283,147.775,152.662,192.318,172.174,.181,.079,1.527,.613,3.668,1.448-23.495,16.334-43.857,34.708-58.415,55.234-22.439,31.642-29.068,65.266-19.69,99.952,22.525,83.315,103.519,153.72,154.016,153.716,1.122,0,2.235-.034,3.323-.107,.548-.036,22.152-3.739,53.599-15.579,12.91,4.996,31.23,3.814,48.71-4.343,70.2-36.678,128.224-93.224,167.411-161.88,2.055-3.602,.083-6.76-4.55-6.305-2.701,.265-6.154,.899-10.119,1.804,6.602-12.094,12.189-24.225,16.831-36.264,9.771-1.904,17.469-5.228,22.297-10.417Z"/></svg>