<?xml version="1.0" encoding="UTF-8"?><svg id="a" xmlns="http://www.w3.org/2000/svg" viewBox="0 0 1000 1000"><path d="M306.199,802.811c4.499,29.608-.114,146.558-6.169,156.42-5.22,.319-16.082,.984-47.557-16.672-16.53-9.438-32.471-19.792-47.751-30.992-20.687-15.165-40.166-31.882-58.264-49.98s-34.815-37.576-49.98-58.264c-15.164-20.687-28.777-42.585-40.664-65.519-11.888-22.935-22.053-46.908-30.321-71.746-8.269-24.838-14.642-50.543-18.948-76.941-4.306-26.399-6.545-53.493-6.545-81.109s2.239-54.704,6.545-81.1c4.306-26.396,10.679-52.098,18.948-76.934,1.673-5.026,3.424-10.016,5.251-14.97l.032-.025c36.049,47.952,77.758,91.316,113.221,139.743,33.763,46.105,80.217,121.263,89.671,137.322,58.695,99.699,68.041,161.208,72.533,190.768ZM1000,508.009c0,64.842-12.34,126.802-34.8,183.658-5.887,6.328-15.275,10.382-27.191,12.703-5.661,14.682-12.475,29.476-20.526,44.225,4.836-1.104,9.046-1.877,12.34-2.2,5.65-.555,8.055,3.295,5.549,7.688-47.789,83.727-118.551,152.686-204.16,197.415-21.317,9.948-43.658,11.39-59.402,5.297-38.35,14.44-64.697,18.955-65.365,18.999-1.326,.089-2.684,.131-4.052,.131-61.581,.005-160.355-85.854-187.824-187.458-11.437-42.3-3.353-83.305,24.012-121.893,17.754-25.032,42.585-47.439,71.237-67.359-2.611-1.018-4.252-1.669-4.473-1.766-54.32-23.795-219.621-96.208-234.534-209.968-3.491-26.63,2.504-51.917,15.407-75.66-32.033-21.602-56.161-45.36-68.974-70.892-72.347,33.734-146.269,52.01-165.498,46.221-.067-.132-.158-.307-.226-.439,1.405-2.841,2.836-5.667,4.293-8.477,11.888-22.933,25.5-44.828,40.664-65.515,15.165-20.687,31.882-40.164,49.98-58.261,18.098-18.097,37.577-34.814,58.264-49.978,12.851-9.42,26.169-18.241,39.913-26.421,29.238-16.929,59.195-18.027,69.039-18.389,6.044,.116,11.462,.553,16.363,1.244,.029-.012,.055-.026,.084-.038,58.855-26.182,123.948-40.876,192.519-40.876,113.732,0,218.045,39.991,299.758,106.722,2.298,1.496,4.529,3.076,6.64,4.791,104.782,91.654,170.964,226.349,170.964,376.496ZM727.266,105.478c1.738,.02,3.915,.052,6.301,.104-64.272-34.824-136.756-53.497-210.928-53.497-53.763,0-106.12,9.61-156.014,28.504,12.805,22.697-8.677,55.77-9.01,56.271-22.911,34.449-65.381,65.151-111.7,89.771,9.849,19.576,29.796,39.374,58.166,58.508,85.551-107.093,310.158-176.314,423.184-179.663Zm175.102,601.151c-98.646-3.107-275.212-63.901-355.368-93.395-33.195,20.579-62.86,44.573-82.245,71.905-21.871,30.827-28.148,61.884-19.207,94.951,26.216,96.988,116.947,163.749,156.699,163.754,.449,0,.888-.01,1.326-.026,3.376-.663,21.307-4.47,47.234-13.712-.321-4.609,.201-9.683,1.843-15.274,17.884-60.904,139.802-122.954,218.61-151.87,3.682-5.5,7.298-11.112,10.784-16.936,7.818-13.063,14.567-26.259,20.322-39.396Z"/></svg>